<?xml version="1.0" encoding="utf-8"?>
<!-- Generator: Adobe Illustrator 24.3.0, SVG Export Plug-In . SVG Version: 6.00 Build 0)  -->
<svg version="1.1" id="Слой_1" xmlns="http://www.w3.org/2000/svg" xmlns:xlink="http://www.w3.org/1999/xlink" x="0px" y="0px"
	 viewBox="0 0 720 720" style="enable-background:new 0 0 720 720;" xml:space="preserve">
<style type="text/css">
	.st0{fill-rule:evenodd;clip-rule:evenodd;}
</style>
<g>
	<path class="st0" d="M411.85,111.77c0.07,0.08,0.14,0.14,0.22,0.17c0.08,0.04,0.16,0.05,0.27,0.07
		c31.84,5.47,62.01,15.86,89.69,30.34c27.68,14.48,52.86,33.06,74.74,54.93c27.74,27.69,50.19,60.68,65.7,97.32
		c15.51,36.64,24.09,76.92,24.09,119.2s-8.58,82.55-24.09,119.18c-15.51,36.63-37.96,69.62-65.7,97.33
		c-27.72,27.71-60.75,50.13-97.43,65.63C442.65,711.43,402.32,720,360,720s-82.64-8.57-119.32-24.06
		c-36.67-15.49-69.7-37.92-97.44-65.63s-50.19-60.7-65.7-97.33S53.45,456.07,53.45,413.8s8.58-82.56,24.09-119.2
		s37.96-69.63,65.7-97.32c21.84-21.81,46.95-40.35,74.55-54.82s57.66-24.85,89.41-30.36c0.19-0.03,0.37-0.05,0.53-0.09
		c0.16-0.04,0.31-0.11,0.44-0.26c0.07-0.09,0.11-0.28,0.13-0.45c0.02-0.17,0.02-0.32,0.02-0.32V96.36V81.75c0-2.3,1-4.45,2.71-6.24
		c1.71-1.79,4.14-3.23,6.99-4.12c0.49-0.15,0.86-0.51,1.05-0.94c0.18-0.43,0.18-0.93-0.07-1.39c-1.82-3.32-3.25-6.89-4.22-10.65
		c-0.97-3.75-1.49-7.69-1.49-11.76c0-6.44,1.3-12.57,3.66-18.16c2.36-5.58,5.78-10.62,10.01-14.84c4.23-4.21,9.26-7.63,14.85-9.99
		S353.54,0,360,0c6.44,0,12.59,1.31,18.17,3.67s10.62,5.78,14.83,9.99c4.23,4.23,7.66,9.26,10.03,14.84s3.68,11.72,3.68,18.16
		c0,4.03-0.51,7.95-1.47,11.68c-0.96,3.73-2.38,7.28-4.19,10.59c-0.27,0.49-0.27,1.03-0.07,1.49s0.59,0.84,1.12,1.01
		c2.82,0.9,5.22,2.34,6.91,4.12c1.69,1.78,2.67,3.91,2.67,6.2v14.62v14.62c0,0,0,0.15,0.03,0.33
		C411.73,111.49,411.77,111.68,411.85,111.77z M376.07,30.6c-2.06-2.05-4.51-3.71-7.23-4.86s-5.71-1.78-8.85-1.78
		s-6.13,0.63-8.85,1.78s-5.17,2.81-7.23,4.86c-2.06,2.05-3.72,4.5-4.87,7.22c-1.15,2.72-1.78,5.7-1.78,8.84s0.63,6.12,1.78,8.84
		c1.15,2.72,2.81,5.16,4.87,7.22c2.06,2.05,4.51,3.71,7.23,4.86c2.72,1.15,5.71,1.78,8.85,1.78s6.13-0.63,8.85-1.78
		c2.72-1.15,5.17-2.81,7.23-4.86c2.06-2.05,3.72-4.5,4.87-7.22s1.78-5.7,1.78-8.84s-0.63-6.12-1.78-8.84
		C379.79,35.1,378.13,32.66,376.07,30.6L376.07,30.6L376.07,30.6z M238.27,316.13c-1.41-2.24-3.65-1.46-6.68-0.77
		c-3.03,0.69-6.85,1.29-11.41-1.31c-1.2-0.68-1.81-1.96-2.15-3.41c-0.35-1.45-0.43-3.08-0.59-4.46c-0.05-0.5,0.85-1.04,1.66-1.55
		s1.54-0.97,1.15-1.29c-1.46-1.23-2.27-1.44-2.83-1.58s-0.87-0.22-1.32-1.19c-0.14-0.33,0.07-0.91,0.22-1.6s0.24-1.51-0.12-2.3
		c-1.54-3.34-3.8-3.87-6.43-3.94c-2.64-0.07-5.66,0.31-8.75-1.19c-0.26-1.81-1.11-3.15-2.24-3.71c-1.12-0.56-2.51-0.35-3.83,0.94
		c-1.44,1.42-1.31,2.9-0.43,3.92c0.88,1.02,2.52,1.57,4.1,1.15c-0.69,1.1-1.41,3.12-1.44,5.37c-0.03,2.26,0.65,4.76,2.78,6.81
		c-0.09,1.81-0.27,3.33-0.51,4.13s-0.55,0.9-0.9-0.13c-1.49-4.6-3.85-7.67-6.81-9.87c-2.96-2.2-6.54-3.53-10.46-4.68
		c-1.97-0.58-2.02-2.54-1.91-4.75c0.11-2.21,0.39-4.66-0.93-6.24c-1.61-1.95-3.05-1.05-4.75,0.48c-1.7,1.53-3.66,3.7-6.32,4.28
		c-2.88,0.6-5.46,0.78-7.08,1.44s-2.29,1.81-1.35,4.34c0.67,1.8,4.26,1.91,7.32,2.12s5.59,0.53,4.13,2.74
		c-3.34,5.07-3.08,8.55-2.76,10.74c0.33,2.19,0.72,3.08-2.35,2.96c-5.93-0.22-10.62,1.69-13.92,4.52c-3.31,2.82-5.23,6.56-5.65,9.96
		c-0.91,7.45,1.99,11.56,5.87,13.29s8.75,1.06,11.78-1.07c2.36-1.66,2.8-5.2,1.71-7.7c-1.09-2.49-3.71-3.94-7.47-1.41
		c-0.58,0.38-1.11,1.03-1.54,1.46c-0.42,0.44-0.74,0.66-0.9,0.18c-0.96-3.18,1.24-6.13,4.22-7.52c2.98-1.39,6.74-1.23,8.9,1.8
		c4.68,6.64,1.21,12.97-0.44,18.88c-1.65,5.91-1.48,11.42,10.48,16.41c4.01,1.66,5.92,3.06,6.45,4.23s-0.32,2.14-1.82,2.92
		c-3.07,1.61-8.2,2.11-12.62,2.91c-4.42,0.79-8.13,1.87-8.35,4.63c-0.17,2.02,8.54,2.71,20.42,2.17
		c11.87-0.54,26.91-2.31,39.38-5.22c4.63-1.08,12.95-2.54,21.67-5.18c8.73-2.64,17.86-6.44,24.11-12.21
		c1.23-1.13,2.32-2.27,3.28-3.41s1.79-2.28,2.51-3.41c0.07,0.33,0.18,0.63,0.34,0.92c0.16,0.29,0.36,0.56,0.62,0.82
		c1.54,1.56,3.06,0.13,4.46-2.07s2.69-5.17,3.77-6.69c1.18-1.66,2.74-4.36,4.14-6.16s2.63-2.69,3.16-0.72
		c1.3,4.9,0.79,5.76-0.19,5.97c-0.98,0.21-2.42-0.24-2.96,2.04c-0.29,1.23-0.02,1.89,0.33,2.59s0.77,1.43,0.77,2.82
		c0,1.87-0.35,3.76-0.24,4.9c0.11,1.15,0.67,1.55,2.51,0.44c5.29-3.2,4.8-8.65,5.23-14.39c0.43-5.74,1.78-11.78,10.78-16.14
		c3.12-1.52,6.68-1.57,10.36-1.29c3.68,0.27,7.48,0.86,11.06,0.61c1.63-0.1,5.35-1.98,9.03-3.38c3.68-1.41,7.32-2.35,8.79-0.59
		c1.39,1.69-0.79,2.41-3.36,3.91s-5.55,3.77-5.75,8.58c-0.09,1.73,2.89-0.47,5.95-2.67s6.22-4.41,6.49-2.7
		c0.12,0.82-0.97,1.57-2.08,2.57c-1.11,0.99-2.25,2.23-2.24,4.01c0,0.41-0.08,1.07-0.06,1.59c0.02,0.52,0.13,0.91,0.51,0.77
		c3.1-1.13,7.27-4.47,10.81-8.45c3.54-3.98,6.46-8.6,7.08-12.3c0.34-0.51,1.9-3.32,3.51-5.47c1.61-2.15,3.27-3.65,3.82-1.54
		c1.32,4.91,0.81,5.78-0.16,5.99c-0.97,0.21-2.41-0.24-2.96,2.06c-0.31,1.22-0.03,1.87,0.31,2.58s0.77,1.45,0.75,2.83
		c0,1.87-0.35,3.76-0.24,4.9c0.11,1.15,0.69,1.55,2.54,0.44c5.29-3.2,4.79-8.65,5.21-14.4c0.42-5.75,1.78-11.79,10.79-16.17
		c3.1-1.51,6.66-1.54,10.34-1.26s7.48,0.87,11.08,0.61c1.63-0.12,5.35-2,9.02-3.41c3.68-1.41,7.31-2.34,8.76-0.56
		c1.41,1.69-0.76,2.4-3.34,3.89s-5.56,3.76-5.78,8.57c-0.07,1.73,2.91-0.47,5.98-2.67s6.21-4.41,6.46-2.7
		c0.12,0.82-0.97,1.58-2.08,2.58c-1.11,1-2.25,2.24-2.24,4.02c0,0.39-0.07,1.05-0.04,1.58c0.03,0.53,0.15,0.92,0.52,0.78
		c3-1.1,7.02-4.28,10.49-8.11c3.47-3.83,6.4-8.32,7.23-12.02c0.51-0.92,2.32-4.17,4.15-6.65s3.67-4.19,4.25-2.05
		c1.3,4.9,0.79,5.76-0.19,5.97c-0.98,0.21-2.42-0.24-2.96,2.04c-0.31,1.23-0.03,1.9,0.32,2.6c0.35,0.7,0.78,1.44,0.78,2.81
		c-0.02,1.87-0.38,3.76-0.27,4.9c0.11,1.15,0.68,1.55,2.53,0.44c5.29-3.2,4.8-8.64,5.23-14.38c0.43-5.74,1.78-11.77,10.78-16.15
		c3.12-1.51,6.68-1.54,10.36-1.27c3.68,0.27,7.48,0.86,11.06,0.58c1.63-0.1,5.35-1.98,9.02-3.38c3.68-1.41,7.31-2.35,8.76-0.59
		c1.41,1.69-0.76,2.41-3.34,3.91s-5.56,3.77-5.78,8.58c-0.07,1.73,2.91-0.47,5.98-2.67s6.21-4.41,6.46-2.7
		c0.12,0.82-0.96,1.57-2.07,2.57c-1.11,0.99-2.25,2.23-2.25,4.01c0.02,0.41-0.05,1.07-0.03,1.59s0.13,0.91,0.51,0.77
		c3.38-1.23,8.03-5.09,11.75-9.55s6.53-9.52,6.2-13.15c-0.22-2.33-2.43-2.52-4.96-2.57c-2.53-0.05-5.38,0.03-6.89-1.75
		c-1.66-1.95-2.18-4.1-2.44-6.38c-0.26-2.28-0.27-4.68-0.92-7.15c-0.41-1.57-1.94-3.55-3.39-5.44s-2.8-3.7-2.85-4.93
		c-0.02-0.68,1.33-1.09,2.83-1.71s3.17-1.46,3.78-3.02c0.38-0.96,1.01-0.98,1.44-1.15s0.65-0.5,0.21-2.07
		c-0.24-0.92-0.81-1.35-1.57-1.62c-0.75-0.27-1.69-0.38-2.65-0.67c-2.4-0.72-5.09-0.84-7.52-1.27c-2.43-0.43-4.61-1.18-5.98-3.15
		c-1.11-1.63,0.61-3.4,2.33-5.17c1.72-1.77,3.44-3.54,2.33-5.17c-1.01-1.45-1.87-0.46-2.81,0.42c-0.94,0.88-1.97,1.64-3.32-0.28
		c-1.3-1.87-0.48-4.58,0.66-7.55c1.14-2.97,2.6-6.2,2.56-9.09c-0.02-1.1-0.91-2.28-2-2.68c-1.1-0.4-2.4-0.03-3.24,1.99
		c-0.6,1.4-0.86,3.73-1.47,5.2s-1.58,2.09-3.6,0.07c-1.58-1.57-3.06-3.92-4.26-5.34s-2.12-1.92-2.56,0.21
		c-0.72,3.29,0.93,6.09,2.51,8.56c1.58,2.46,3.1,4.59,2.12,6.5c-1.11,2.21-2.76,0.12-4.58-2.82c-1.82-2.94-3.82-6.73-5.63-7.93
		c-2.45-1.64-2.79,1.58-1.43,5.85c1.37,4.27,4.44,9.58,8.83,12.12c1.76,1.01,3.02,1.82,3.79,2.89s1.08,2.38,0.94,4.4
		c-0.07,1.2-1.83,1.72-3.43,2.2c-1.6,0.48-3.03,0.92-2.43,1.94c0.86,1.52,2.92,1.55,4.99,1.57s4.13,0.04,4.99,1.54
		c1.32,2.33,1.63,4.16,1.7,5.98c0.07,1.82-0.1,3.64,0.26,5.93c0.33,2.11,0.14,3.74-0.41,5c-0.55,1.26-1.46,2.15-2.57,2.77
		c-0.27,0.15-1.98-0.55-4.42-1.27c-2.44-0.72-5.62-1.47-8.84-1.4c-3.29,0.07-6.37,0.59-8.75,1.06c-2.38,0.47-4.07,0.89-4.58,0.75
		c-0.87-0.22-1.64-1.54-2.4-2.77c-0.77-1.23-1.54-2.38-2.43-2.26c-2.3,0.33-2.77,2.52-2.65,5.17c0.12,2.64,0.82,5.73,0.87,7.84
		c0.02,1.28-0.36,1.99-0.72,2.9c-0.36,0.91-0.72,2.01-0.65,4.08c0.07,2.12,0.45,3.5,0.62,4.56c0.18,1.06,0.15,1.81-0.59,2.66
		c-1.97,2.23-3.32,2.7-4.5,3.49c-1.18,0.8-2.18,1.92-3.45,5.44c-0.38,1.08-0.64,1.94-0.99,2.78s-0.78,1.65-1.48,2.63
		c-0.57,0.79-1.41,1.53-2.27,2.29s-1.73,1.53-2.35,2.37c-1.23-0.02-2.53-0.03-3.7-0.24c-1.17-0.22-2.21-0.65-2.95-1.5
		c-1.64-1.95-2.16-4.09-2.42-6.36s-0.27-4.68-0.9-7.16c-0.41-1.57-1.94-3.54-3.39-5.43c-1.44-1.89-2.8-3.69-2.85-4.94
		c-0.03-0.68,1.31-1.09,2.82-1.7c1.51-0.62,3.18-1.45,3.8-2.99c0.38-0.98,1-1,1.43-1.18c0.42-0.18,0.65-0.5,0.22-2.08
		c-0.24-0.91-0.82-1.34-1.58-1.6c-0.76-0.27-1.69-0.38-2.63-0.65c-2.4-0.74-5.09-0.86-7.52-1.3c-2.43-0.44-4.61-1.18-5.98-3.15
		c-1.13-1.61,0.58-3.38,2.3-5.15c1.72-1.77,3.44-3.54,2.33-5.15c-0.99-1.47-1.85-0.49-2.79,0.39c-0.94,0.88-1.97,1.65-3.31-0.25
		c-1.3-1.87-0.48-4.59,0.66-7.56s2.58-6.2,2.53-9.08c0-1.11-0.88-2.3-1.98-2.71c-1.1-0.41-2.41-0.03-3.26,1.99
		c-0.58,1.4-0.83,3.74-1.44,5.22c-0.61,1.48-1.58,2.11-3.6,0.09c-1.58-1.57-3.06-3.93-4.26-5.35c-1.2-1.42-2.13-1.92-2.59,0.22
		c-0.7,3.27,0.94,6.07,2.52,8.53c1.58,2.46,3.1,4.6,2.14,6.53c-1.11,2.21-2.76,0.12-4.58-2.82c-1.82-2.94-3.82-6.74-5.63-7.96
		c-2.45-1.64-2.8,1.58-1.44,5.85c1.36,4.27,4.44,9.58,8.84,12.12c1.76,1.03,3.01,1.84,3.78,2.91c0.77,1.07,1.07,2.38,0.95,4.42
		c-0.09,1.2-1.85,1.71-3.45,2.19c-1.6,0.47-3.03,0.91-2.45,1.96c0.86,1.51,2.93,1.52,5,1.54c2.07,0.02,4.15,0.05,5,1.57
		c1.32,2.31,1.63,4.13,1.7,5.95c0.07,1.82-0.1,3.63,0.26,5.93c0.31,2.12,0.12,3.77-0.42,5.03s-1.44,2.14-2.56,2.74
		c-0.27,0.15-1.98-0.54-4.43-1.26c-2.45-0.72-5.63-1.46-8.87-1.41c-3.27,0.07-6.34,0.59-8.72,1.06c-2.38,0.47-4.07,0.89-4.58,0.75
		c-0.89-0.22-1.65-1.54-2.42-2.77c-0.76-1.23-1.53-2.37-2.42-2.23c-2.3,0.31-2.77,2.5-2.66,5.14c0.11,2.64,0.81,5.73,0.84,7.83
		c0.03,1.3-0.33,2.01-0.69,2.92s-0.71,2.01-0.64,4.1c0.07,2.11,0.45,3.48,0.62,4.54c0.17,1.06,0.14,1.81-0.62,2.64
		c-1.95,2.23-3.31,2.7-4.49,3.49c-1.18,0.8-2.18,1.92-3.43,5.44c-0.38,1.08-0.64,1.94-0.99,2.78c-0.35,0.84-0.78,1.65-1.48,2.63
		c-0.45,0.62-1.06,1.22-1.72,1.81s-1.36,1.2-1.98,1.81c-1.23-0.03-2.54-0.04-3.71-0.26s-2.23-0.63-2.97-1.49
		c-1.66-1.95-2.18-4.1-2.43-6.38c-0.26-2.28-0.26-4.68-0.89-7.15c-0.41-1.59-1.95-3.57-3.4-5.46c-1.45-1.89-2.8-3.68-2.84-4.92
		c-0.03-0.68,1.31-1.09,2.82-1.71c1.51-0.62,3.18-1.46,3.8-3.02c0.38-0.98,1-0.99,1.43-1.16c0.42-0.17,0.65-0.5,0.22-2.09
		c-0.26-0.91-0.84-1.33-1.59-1.59c-0.75-0.27-1.68-0.38-2.62-0.67c-2.4-0.74-5.1-0.86-7.54-1.28c-2.44-0.43-4.61-1.16-5.97-3.13
		c-1.13-1.63,0.58-3.4,2.3-5.17c1.72-1.77,3.44-3.54,2.33-5.17c-1.01-1.45-1.87-0.46-2.81,0.42c-0.94,0.88-1.96,1.64-3.29-0.28
		c-1.3-1.87-0.48-4.59,0.66-7.56c1.14-2.97,2.58-6.2,2.53-9.08c-0.02-1.11-0.9-2.3-1.99-2.7c-1.09-0.4-2.39-0.02-3.25,2.02
		c-0.6,1.39-0.85,3.71-1.46,5.19c-0.61,1.48-1.58,2.1-3.62,0.08c-1.56-1.57-3.03-3.92-4.23-5.34c-1.2-1.42-2.12-1.92-2.59,0.21
		c-0.7,3.29,0.94,6.09,2.52,8.56c1.58,2.46,3.08,4.59,2.11,6.5c-1.11,2.21-2.76,0.12-4.58-2.82c-1.82-2.94-3.82-6.74-5.63-7.96
		c-2.45-1.63-2.79,1.61-1.43,5.88c1.37,4.27,4.44,9.59,8.83,12.12c1.76,1.01,3.02,1.82,3.8,2.89c0.78,1.07,1.09,2.38,0.97,4.4
		c-0.09,1.2-1.85,1.71-3.45,2.19s-3.03,0.91-2.45,1.96c0.86,1.52,2.92,1.55,4.99,1.57c2.06,0.02,4.13,0.04,4.99,1.54
		c1.32,2.33,1.64,4.16,1.71,5.98c0.07,1.82-0.1,3.64,0.24,5.93c0.33,2.11,0.14,3.74-0.41,5s-1.44,2.15-2.54,2.77
		c-0.27,0.14-1.99-0.56-4.44-1.28s-5.64-1.45-8.86-1.39c-3.29,0.07-6.36,0.58-8.73,1.05c-2.38,0.47-4.07,0.89-4.6,0.77
		c-0.87-0.22-1.63-1.54-2.39-2.77c-0.76-1.23-1.53-2.38-2.44-2.26c-2.28,0.33-2.75,2.52-2.64,5.16c0.11,2.64,0.81,5.72,0.86,7.81
		c0.03,1.3-0.34,2.02-0.71,2.93c-0.37,0.91-0.73,2.02-0.66,4.09c0.09,2.12,0.46,3.5,0.63,4.56s0.14,1.81-0.6,2.66
		c-1.95,2.23-3.31,2.7-4.49,3.49c-1.18,0.8-2.18,1.92-3.43,5.44c-0.38,1.06-0.65,1.93-1,2.77c-0.35,0.84-0.78,1.66-1.47,2.64
		c-0.5,0.68-1.22,1.34-1.97,2.01c-0.75,0.66-1.54,1.33-2.18,2.03c0.22-7.15-3.81-13.05-9-15.7c-5.19-2.64-11.53-2.04-15.91,3.82
		c-2.74,3.66-1.73,7.69,0.59,10.01c2.32,2.32,5.94,2.95,8.43-0.18c0.58-0.72,0.74-1.63,0.48-2.4c-0.25-0.77-0.91-1.38-1.96-1.5
		c-0.96-0.1-1.74,0.73-2.32,1.37c-0.58,0.65-0.97,1.11-1.14,0.27c-0.53-2.38,1.03-4.34,3.11-4.95c2.08-0.61,4.69,0.14,6.25,3.17
		c0.96,1.88,1.17,4.08,0.38,6.5c-0.79,2.41-2.57,5.04-5.59,7.78c-3.1,2.84-6.76,5.33-10.71,7.3c-3.95,1.97-8.19,3.43-12.46,4.2
		c-1.29,0.24-1.76-1.57-1.52-3.6c0.25-2.03,1.23-4.29,2.85-4.96c4.92-2.05,8.4-3.59,9.77-5.72c1.38-2.12,0.65-4.83-2.85-9.21
		c-1.46-1.83-1.03-3.05-0.59-4.37c0.44-1.33,0.88-2.76-0.54-5.04l-2.98-4.74L238.27,316.13z M278.3,179.89
		c4.76,0,9.07,1.93,12.19,5.04c3.12,3.12,5.05,7.42,5.05,12.18c0,4.74-1.93,9.04-5.05,12.15c-3.12,3.11-7.43,5.04-12.19,5.04
		c-4.75,0-9.06-1.93-12.18-5.04c-3.12-3.11-5.06-7.41-5.06-12.15c0-4.76,1.94-9.06,5.06-12.18S273.55,179.89,278.3,179.89
		L278.3,179.89L278.3,179.89z M211.64,424.1c4.23,0,8.06,1.71,10.83,4.48c2.77,2.76,4.49,6.58,4.49,10.79
		c0,4.23-1.71,8.05-4.49,10.82c-2.77,2.77-6.6,4.48-10.83,4.48c-4.22,0-8.04-1.71-10.8-4.48s-4.48-6.59-4.48-10.82
		c0-4.21,1.71-8.03,4.48-10.79S207.43,424.1,211.64,424.1L211.64,424.1L211.64,424.1z M402.47,331.03l3.77,14.49l3.77,14.49
		c0.04,0.14,0.11,0.27,0.2,0.38c0.1,0.11,0.22,0.19,0.36,0.24l12.49,4.53l12.49,4.53c0.39,0.14,0.59,0.49,0.59,0.84
		c0,0.35-0.2,0.7-0.59,0.84l-12.49,4.55l-12.49,4.55c-0.14,0.05-0.26,0.13-0.36,0.24c-0.1,0.11-0.17,0.23-0.2,0.38l-3.77,14.49
		l-3.77,14.49c-0.12,0.45-0.49,0.67-0.87,0.67c-0.37,0-0.75-0.22-0.86-0.67l-3.76-14.49l-3.76-14.49c-0.04-0.14-0.11-0.27-0.2-0.38
		c-0.1-0.11-0.22-0.19-0.36-0.24l-12.49-4.55l-12.49-4.55c-0.39-0.14-0.59-0.49-0.59-0.84c0-0.35,0.2-0.7,0.59-0.84l12.49-4.53
		l12.49-4.53c0.14-0.05,0.26-0.13,0.36-0.24c0.1-0.11,0.17-0.23,0.2-0.38l3.76-14.49l3.76-14.49c0.12-0.45,0.49-0.67,0.86-0.67
		C401.98,330.36,402.35,330.58,402.47,331.03z M529.72,288.24l4.57,17.62l4.57,17.62c0.01,0.05,0.04,0.09,0.07,0.12
		c0.03,0.03,0.07,0.06,0.12,0.08l14.97,5.43l14.97,5.43c0.13,0.05,0.19,0.16,0.19,0.28s-0.06,0.23-0.19,0.28L554,340.53l-14.97,5.43
		c-0.05,0.02-0.09,0.04-0.12,0.08c-0.03,0.03-0.06,0.08-0.07,0.12l-4.57,17.62l-4.57,17.62c-0.04,0.15-0.16,0.22-0.28,0.22
		c-0.12,0-0.25-0.07-0.29-0.22l-4.58-17.62l-4.58-17.62c-0.01-0.05-0.04-0.09-0.07-0.12c-0.03-0.03-0.07-0.06-0.12-0.08l-14.95-5.43
		l-14.95-5.43c-0.13-0.05-0.19-0.16-0.19-0.28s0.06-0.23,0.19-0.28l14.95-5.43l14.95-5.43c0.05-0.02,0.09-0.04,0.12-0.08
		c0.03-0.03,0.06-0.08,0.07-0.12l4.58-17.62l4.58-17.62c0.04-0.15,0.16-0.22,0.29-0.22C529.55,288.01,529.68,288.09,529.72,288.24z
		 M245.81,656.84c1.13,2.38,5.22-2.52,12.36-6.28c7.15-3.76,17.35-6.37,30.71,0.6c14.75,7.69,18.37,4.86,21.8,2.47
		c3.44-2.39,6.69-4.35,20.72,5.06c3.32,2.21,10.68,0.95,16.93-1.88c6.26-2.83,11.42-7.24,10.38-11.33c-0.7-2.72-2.76-3.55-5.31-3.57
		c-2.55-0.02-5.6,0.78-8.29,1.31c-3.38,0.67-10.2-1.26-17.65-3.5s-15.51-4.8-21.35-5.4c-7.25-0.74-24.61,0.1-39.01,3.52
		S241.25,647.26,245.81,656.84L245.81,656.84L245.81,656.84z M236.64,221.3l2.96,9.98l2.96,9.98c0.06,0.19,0.19,0.35,0.35,0.43
		c0.16,0.09,0.36,0.12,0.56,0.06l11.22-3.34l11.22-3.34c0.34-0.1,0.65,0.05,0.81,0.29c0.16,0.25,0.19,0.59-0.04,0.86l-7.85,9.77
		l-7.85,9.77c-0.09,0.11-0.15,0.25-0.16,0.39s0.01,0.28,0.08,0.41l5.02,9.32l5.02,9.32c0.15,0.28,0.1,0.59-0.07,0.8
		c-0.17,0.21-0.45,0.34-0.76,0.25l-8.65-2.28l-8.65-2.28c-0.21-0.05-0.42-0.01-0.58,0.09c-0.17,0.11-0.29,0.28-0.32,0.49
		l-2.06,12.02l-2.06,12.02c-0.07,0.39-0.37,0.59-0.69,0.61c-0.32,0.01-0.64-0.17-0.74-0.55l-3.09-12.05l-3.09-12.05
		c-0.05-0.21-0.19-0.38-0.37-0.47c-0.18-0.09-0.39-0.11-0.6-0.03l-10.75,4.16l-10.75,4.16c-0.33,0.13-0.65,0-0.83-0.23
		c-0.18-0.23-0.23-0.57-0.04-0.86l6.52-9.72l6.52-9.72c0.13-0.19,0.15-0.41,0.1-0.61c-0.06-0.2-0.2-0.37-0.4-0.46l-13.24-5.96
		l-13.24-5.96c-0.35-0.16-0.47-0.5-0.42-0.8s0.3-0.57,0.68-0.59l16.64-0.87l16.64-0.87c0.15-0.01,0.28-0.06,0.4-0.14
		c0.11-0.08,0.2-0.2,0.25-0.34l3.99-10.84l3.99-10.84c0.12-0.33,0.42-0.49,0.71-0.48C236.25,220.78,236.54,220.96,236.64,221.3z
		 M337.69,430.43c3.72,0,7.09,1.51,9.52,3.95c2.44,2.44,3.95,5.81,3.95,9.54c0,3.71-1.51,7.08-3.95,9.51
		c-2.44,2.43-5.8,3.94-9.52,3.94c-3.72,0-7.09-1.51-9.52-3.94c-2.44-2.43-3.95-5.8-3.95-9.51c0-3.73,1.51-7.1,3.95-9.54
		C330.6,431.94,333.97,430.43,337.69,430.43L337.69,430.43L337.69,430.43z M331.01,361.93c4.73,0,9,1.92,12.1,5.01
		c3.09,3.1,5,7.38,5,12.1c0,4.71-1.91,8.98-5,12.07c-3.09,3.09-7.37,5.01-12.1,5.01s-9-1.92-12.1-5.01c-3.09-3.09-5-7.36-5-12.07
		c0-4.72,1.91-9,5-12.1C322,363.85,326.28,361.93,331.01,361.93L331.01,361.93L331.01,361.93z M139.47,393.19
		c4.75,0,9.05,1.93,12.16,5.04c3.11,3.12,5.04,7.42,5.04,12.18s-1.93,9.06-5.04,12.18c-3.11,3.12-7.42,5.04-12.16,5.04
		c-4.76,0-9.07-1.93-12.19-5.04s-5.05-7.42-5.05-12.18s1.93-9.06,5.05-12.18C130.4,395.11,134.71,393.19,139.47,393.19
		L139.47,393.19L139.47,393.19z M573.91,482.4c4.75,0,9.05,1.93,12.16,5.04c3.11,3.12,5.04,7.42,5.04,12.18
		c0,4.74-1.93,9.04-5.04,12.15c-3.11,3.11-7.42,5.04-12.16,5.04c-4.76,0-9.07-1.93-12.19-5.04c-3.12-3.11-5.05-7.41-5.05-12.15
		c0-4.76,1.93-9.06,5.05-12.18C564.84,484.32,569.15,482.4,573.91,482.4L573.91,482.4L573.91,482.4z M360.72,194.4
		c4.75,0,9.05,1.93,12.16,5.04c3.11,3.11,5.04,7.41,5.04,12.15c0,4.76-1.93,9.06-5.04,12.18c-3.11,3.12-7.42,5.04-12.16,5.04
		c-4.76,0-9.07-1.93-12.19-5.04c-3.12-3.12-5.05-7.42-5.05-12.18c0-4.74,1.93-9.04,5.05-12.15
		C351.65,196.33,355.96,194.4,360.72,194.4L360.72,194.4L360.72,194.4z M191.29,493.97l-9.02,5.3l-9.02,5.3
		c-0.17,0.1-0.28,0.25-0.32,0.43s-0.02,0.36,0.07,0.53l5.97,10.13l5.97,10.13c0.17,0.3,0.11,0.61-0.08,0.82s-0.5,0.31-0.81,0.17
		l-11.44-5.29l-11.44-5.29c-0.13-0.06-0.27-0.08-0.4-0.06c-0.13,0.02-0.26,0.08-0.36,0.17l-7.87,7.13l-7.87,7.13
		c-0.23,0.21-0.52,0.23-0.76,0.12c-0.24-0.11-0.42-0.34-0.41-0.65l0.14-8.98l0.14-8.98c0-0.21-0.08-0.39-0.22-0.52
		s-0.33-0.2-0.53-0.19l-12.27,0.9l-12.27,0.9c-0.38,0.03-0.64-0.21-0.72-0.5c-0.08-0.29,0.01-0.63,0.34-0.81l11.04-5.94l11.04-5.94
		c0.18-0.1,0.31-0.27,0.35-0.45s0.01-0.39-0.11-0.56l-6.66-9.48l-6.66-9.48c-0.2-0.28-0.15-0.6,0.02-0.83
		c0.17-0.22,0.47-0.35,0.79-0.23l11.08,4.02l11.08,4.02c0.2,0.07,0.42,0.05,0.59-0.05s0.3-0.27,0.34-0.48l2.63-14.37l2.63-14.37
		c0.07-0.36,0.35-0.56,0.65-0.57s0.6,0.14,0.71,0.49l4.88,16.01l4.88,16.01c0.04,0.13,0.12,0.25,0.22,0.33
		c0.1,0.09,0.23,0.14,0.37,0.16l11.52,1.26l11.52,1.26c0.33,0.04,0.55,0.28,0.61,0.55C191.67,493.5,191.58,493.8,191.29,493.97z
		 M562.31,386.44l2.93,9.88l2.93,9.88c0.06,0.21,0.2,0.37,0.38,0.46c0.18,0.1,0.39,0.12,0.59,0.06l11.11-3.31l11.11-3.31
		c0.37-0.11,0.69,0.05,0.87,0.31c0.18,0.26,0.2,0.63-0.04,0.92l-7.78,9.69l-7.78,9.69c-0.1,0.12-0.15,0.27-0.17,0.42
		s0.02,0.3,0.09,0.44l4.97,9.24l4.97,9.24c0.16,0.3,0.11,0.62-0.07,0.85c-0.18,0.23-0.48,0.36-0.81,0.27l-8.56-2.25l-8.56-2.25
		c-0.22-0.06-0.44-0.02-0.62,0.1c-0.18,0.11-0.31,0.3-0.35,0.52l-2.05,11.89l-2.05,11.89c-0.07,0.41-0.4,0.63-0.74,0.65
		c-0.34,0.01-0.68-0.18-0.79-0.59l-3.05-11.91l-3.05-11.91c-0.06-0.23-0.21-0.4-0.4-0.5c-0.19-0.1-0.42-0.12-0.64-0.03l-10.65,4.12
		l-10.65,4.12c-0.36,0.14-0.69,0.01-0.89-0.24s-0.25-0.61-0.04-0.92l6.47-9.63l6.47-9.63c0.13-0.2,0.16-0.44,0.1-0.65
		c-0.06-0.21-0.21-0.4-0.43-0.5L532,417.53l-13.14-5.91c-0.37-0.17-0.51-0.53-0.45-0.85c0.06-0.33,0.32-0.61,0.73-0.64l16.54-0.88
		l16.54-0.88c0.16-0.01,0.3-0.06,0.42-0.15c0.12-0.09,0.22-0.21,0.27-0.36l3.96-10.74l3.96-10.74c0.13-0.35,0.45-0.52,0.76-0.51
		C561.9,385.89,562.21,386.08,562.31,386.44z M398.9,550.42c2.26-0.42,2.46-2.39,2.33-4.98c-0.13-2.59-0.6-5.81,0.35-8.72
		c2-6.16,4.72-11.54,7.69-16.8c2.96-5.26,6.18-10.39,9.18-16.06c5.41-10.24,10.42-18.46,15.61-26.38
		c5.19-7.92,10.57-15.54,16.74-24.56c1.27-1.85,3.98-5.9,6.16-9.8c2.18-3.91,3.83-7.67,2.95-8.96c-1.3-1.93-2.34-2.14-4.4-1.57
		c-2.06,0.57-5.14,1.93-10.54,3.11c-8.52,1.87-17.95,1.06-26.85,0.01c-8.9-1.05-17.26-2.34-23.63-1.45
		c-2.23,0.29-4.38,0.87-6.44,1.69c-2.06,0.82-4.04,1.88-5.93,3.13c-1.97,1.3-3.85,2.82-5.61,4.52c-1.76,1.69-3.42,3.56-4.94,5.55
		c-4.78,6.18-16.32,23.15-26.58,39.2c-10.26,16.05-19.24,31.18-18.9,33.68c1.51,10.95,15.29,18.39,30.91,22.92
		C372.6,549.48,390.05,551.1,398.9,550.42L398.9,550.42L398.9,550.42z M347.53,593.75c-3.32-1.69-4.04-8.17-3.66-15.66
		s1.84-15.97,2.87-21.69c0.36-2.07,0.79-3.87,1.44-4.35c0.65-0.48,1.52,0.36,2.78,3.56c0.91,2.29,0.9,5.11,0.68,8.1
		s-0.66,6.14-0.61,9.12c0.07,5.17,0.7,9.75,0.57,13.36C351.45,589.81,350.54,592.45,347.53,593.75L347.53,593.75L347.53,593.75z
		 M413.32,589.82c-3.32-1.25-4.04-5.98-3.66-11.45c0.38-5.46,1.84-11.66,2.87-15.84c0.36-1.51,0.79-2.82,1.44-3.17
		s1.53,0.26,2.78,2.58c0.91,1.68,0.9,3.73,0.68,5.91c-0.22,2.18-0.66,4.48-0.61,6.65c0.07,3.78,0.7,7.13,0.57,9.77
		S416.34,588.86,413.32,589.82L413.32,589.82L413.32,589.82z M520.93,574.82c0.6-9.74-2.22-14.33-5.19-14.9
		c-2.97-0.56-6.1,2.91-6.12,9.32c-0.02,9.43,2.6,14.2,5.32,14.92C517.67,584.89,520.5,581.57,520.93,574.82L520.93,574.82
		L520.93,574.82z M503.97,574.82c0.6-9.74-2.22-14.33-5.19-14.9c-2.97-0.56-6.1,2.91-6.12,9.32c-0.02,9.43,2.6,14.2,5.33,14.92
		C500.72,584.89,503.56,581.57,503.97,574.82L503.97,574.82L503.97,574.82z M519.73,543.71c0.6-9.72-2.22-14.32-5.19-14.88
		c-2.97-0.56-6.1,2.91-6.12,9.33c-0.02,9.43,2.6,14.2,5.33,14.92C516.49,553.8,519.32,550.47,519.73,543.71L519.73,543.71
		L519.73,543.71z M502.8,543.71c0.6-9.72-2.22-14.32-5.19-14.88c-2.97-0.56-6.1,2.91-6.12,9.33c-0.02,9.43,2.6,14.2,5.32,14.92
		C499.54,553.8,502.38,550.47,502.8,543.71L502.8,543.71L502.8,543.71z M476.04,574.82c0.6-9.74-2.22-14.33-5.19-14.9
		s-6.1,2.91-6.12,9.32c-0.02,9.43,2.6,14.2,5.32,14.92C472.77,584.89,475.61,581.57,476.04,574.82L476.04,574.82L476.04,574.82z
		 M459.07,574.82c0.6-9.74-2.21-14.33-5.17-14.9c-2.96-0.56-6.08,2.91-6.1,9.32c-0.03,9.43,2.58,14.2,5.3,14.92
		C455.83,584.89,458.66,581.57,459.07,574.82L459.07,574.82L459.07,574.82z M474.84,543.71c0.6-9.72-2.22-14.32-5.19-14.88
		s-6.09,2.91-6.09,9.33c-0.03,9.43,2.58,14.2,5.3,14.92C471.59,553.8,474.43,550.47,474.84,543.71L474.84,543.71L474.84,543.71z
		 M541.8,586.7c3.32-1.25,4.04-5.98,3.66-11.45c-0.37-5.46-1.83-11.66-2.84-15.84c-0.38-1.51-0.81-2.82-1.46-3.17
		c-0.65-0.35-1.53,0.26-2.79,2.58c-0.89,1.68-0.88,3.73-0.66,5.91c0.22,2.18,0.66,4.48,0.63,6.65c-0.07,3.78-0.7,7.13-0.57,9.77
		C537.9,583.81,538.8,585.74,541.8,586.7L541.8,586.7L541.8,586.7z M457.91,543.71c0.6-9.72-2.22-14.32-5.19-14.88
		s-6.1,2.91-6.12,9.33c-0.02,9.43,2.6,14.2,5.33,14.92S457.5,550.47,457.91,543.71L457.91,543.71L457.91,543.71z M465.89,367.45
		c-0.41-8.88,1.23-13.15,2.57-17.4c1.34-4.25,2.38-8.48,0.75-17.27c-0.51-2.86-0.73-5.17-0.76-7.34c-0.03-2.17,0.12-4.21,0.35-6.52
		c0.24-2.58-0.75-4.31-2.11-4.61c-1.36-0.3-3.08,0.84-4.3,3.99c-1.71,4.4-1.77,6.28-1.47,8.4s0.99,4.47,0.75,9.81
		c-0.27,6.04-1.67,8.17-2.52,11.63c-0.85,3.46-1.15,8.24,0.77,19.59c0.74,4.35,2.25,4.93,3.57,4.1
		C464.82,370.99,465.95,368.75,465.89,367.45L465.89,367.45L465.89,367.45z M447.56,406.57c-3.67,1.47-4.4,3.45-4.23,5.93
		c0.17,2.49,1.25,5.48,1.22,8.99c-0.03,3.47,2.03,4.3,5,4.21c2.97-0.1,6.85-1.13,10.45-1.36c3.34,0.02,5.85,0.58,7.98,0.9
		c2.13,0.32,3.89,0.39,5.72-0.59c2.3-1.22,2.57-2.38,2.32-3.88c-0.25-1.5-1.02-3.33-0.81-5.88c0.03-0.58,0.42-2.11,0.57-3.58
		c0.15-1.48,0.08-2.91-0.81-3.3c-3.12-1.4-5.39-1.68-7.62-1.66s-4.43,0.34-7.39,0.12c-2.76-0.21-4.67-0.66-6.49-0.82
		S449.94,405.61,447.56,406.57L447.56,406.57L447.56,406.57z M486.87,508.48c3.96,0,7.11,0.33,10.22,0.45
		c3.11,0.12,6.16,0.03,9.93-0.79c4.9-1.1,2.35-2.7-2.54-4.04s-12.1-2.4-16.52-2.4c-6.82,0-13.89-0.5-19.94-0.72
		s-11.08-0.17-13.82,0.92c-3.99,1.57-4.24,2.95-2.49,4.07c1.75,1.11,5.5,1.96,9.51,2.47c5.45,0.7,11.81,0.71,16.83,0.54
		C483.08,508.82,486.77,508.48,486.87,508.48L486.87,508.48L486.87,508.48z M280.15,397.95c3.24-2,1.73-3.75-0.52-6.95
		c-2.25-3.2-5.24-7.86-4.96-15.68c0.07-1.93,0.12-4.96-0.42-7.35s-1.68-4.15-4-3.57c-1.68,0.41-2.63,2.34-3.18,4.67
		c-0.55,2.33-0.71,5.05-0.79,7.03c-0.1,2.36-0.15,4.79-0.41,7.13c-0.26,2.34-0.72,4.59-1.64,6.59c-0.63,1.39-2.13,3.12-3.44,4.92
		c-1.3,1.8-2.41,3.65-2.25,5.28c0.14,1.37,0.76,2.31,1.62,2.73c0.86,0.42,1.96,0.33,3.04-0.37c0.63-0.39,1.13-1,1.73-1.69
		c0.6-0.69,1.29-1.47,2.32-2.21c2.9-2.07,5.18-1.62,7.22-0.94S278.27,399.13,280.15,397.95L280.15,397.95L280.15,397.95z
		 M269.29,406.06c-3.46,1.3-5.12,2-6.71,2.86c-1.58,0.86-3.09,1.88-6.25,3.81c-4.71,2.88-5.8,5.25-5.19,6.75
		c0.61,1.5,2.91,2.14,4.99,1.54c1.22-0.36,1.65-0.81,2.17-1.2c0.52-0.39,1.12-0.7,2.66-0.79c1.53-0.09,2.21,0.18,2.87,0.5
		c0.66,0.32,1.29,0.68,2.72,0.8c1.58,0.14,3.38-0.51,5.04-1.36c1.66-0.85,3.17-1.89,4.14-2.54c1.92-1.27,4.4-1.63,6.56-1.83
		c2.16-0.21,3.99-0.26,4.61-0.91c0.75-0.8,0.86-2.12,0.14-3.46c-0.72-1.34-2.26-2.7-4.8-3.59c-1.54-0.55-3.88-1.03-6.28-1.2
		C273.55,405.26,271.09,405.39,269.29,406.06L269.29,406.06L269.29,406.06z M448.66,384.39c-1.58,0.63-3.28,1.5-4.67,2.7
		c-1.38,1.21-2.45,2.76-2.74,4.76c-0.29,2.04-0.2,4.44,0.48,6.39c0.68,1.95,1.94,3.44,3.98,3.64c2.14,0.24,3.34-0.94,4.54-2.27
		c1.2-1.33,2.39-2.8,4.51-3.14c3.02-0.51,4.92,0.07,6.47,0.99s2.75,2.19,4.36,3.05c2.09,1.13,4.15,1.26,5.84,0.59
		s3.02-2.12,3.65-4.15c0.74-2.33,0.87-4.31,0.62-6.08c-0.25-1.76-0.9-3.3-1.72-4.74c-1.59-2.76-3.63-2.94-5.83-2.39
		s-4.55,1.81-6.78,1.95c-1.71,0.09-3.7-0.71-5.86-1.29S451.04,383.45,448.66,384.39L448.66,384.39L448.66,384.39z M280.49,499.96
		c1.41-0.29,2.18-1.62,2.93-3.01s1.48-2.86,2.8-3.42c1.3-0.58,4.57,2.28,8.2,4.94s7.63,5.14,10.41,3.79
		c3.94-1.92,2.78-4.06-0.15-6.86c-2.93-2.81-7.65-6.28-10.82-10.87c-0.96-1.39-2.11-3.34-3.6-4.82c-1.5-1.48-3.34-2.5-5.68-2.02
		c-1.34,0.26-1.96,0.9-2.5,1.58s-0.99,1.4-1.99,1.81c-1.01,0.41-1.93,0.06-2.78-0.51c-0.86-0.57-1.65-1.36-2.42-1.82
		c-1.34-0.82-3.58-2.02-5.84-2.84c-2.26-0.82-4.54-1.25-5.95-0.55c-0.43,0.21-0.83,0.46-1.2,0.76c-0.36,0.3-0.69,0.63-0.96,0.99
		c-0.93,1.22-1.05,2.4-0.24,3.32c0.81,0.92,2.54,1.59,5.31,1.78c1.17,0.09,2.19,0.45,3.15,0.98c0.96,0.53,1.84,1.21,2.71,1.93
		c3.87,3.22,4.38,7.27,4.74,10.34C276.96,498.52,277.19,500.62,280.49,499.96L280.49,499.96L280.49,499.96z M225.9,525.39
		c0.89,0.09,1.91,1.06,3.02,1.87c1.11,0.81,2.32,1.46,3.59,0.9c0.99-0.45,2.08-1.39,3.16-2.37c1.08-0.97,2.14-1.96,3.08-2.49
		c3.39-1.95,5.33-1.8,7.15-1.53c1.82,0.27,3.54,0.64,6.49-0.86c2.36-1.22,2.95-2.02,2.6-3.19s-1.62-2.7-2.98-5.37
		c-0.79-1.56-1.22-2.81-1.7-3.71s-1.01-1.45-2-1.6c-2.38-0.34-3.88-0.13-5.14,0.24s-2.27,0.88-3.67,1.13
		c-1.73,0.33-3.96-0.7-6.13-1.78s-4.28-2.22-5.77-2.12c-2.86,0.21-6.42,4.67-9.09,9.8c-2.67,5.13-4.46,10.92-3.8,13.78
		c0.81,3.49,2.93,2.76,5.19,1.18C222.17,527.69,224.56,525.27,225.9,525.39L225.9,525.39L225.9,525.39z M258.8,617.92
		c0.77,0.87,2.29,0.62,3.86,0.3c1.57-0.32,3.2-0.71,4.19-0.09c1.13,0.68,1.64,2.11,2.17,3.46s1.1,2.65,2.35,3.08
		c2.42,0.8,4.1-0.33,5.56-1.69c1.47-1.36,2.72-2.95,4.28-3.07c2.09-0.15,3.94,0.87,5.72,1.66c1.78,0.79,3.48,1.34,5.28,0.22
		c2.07-1.3,2.18-3.82,1.39-6.65c-0.79-2.84-2.49-5.99-4.03-8.58c-2.02-3.41-3.57-5.38-5.31-6.12c-1.73-0.74-3.65-0.24-6.41,1.3
		c-3.87,2.17-6.11-0.66-7.93-3.42c-1.82-2.76-3.24-5.46-5.47-3.01c-1.11,1.22-3.34,5.95-4.88,10.84
		C258.03,611.02,257.17,616.07,258.8,617.92L258.8,617.92L258.8,617.92z M339.71,617.44c2.72-2.93,1.76-4.8-0.46-6.33
		c-2.21-1.53-5.68-2.71-7.94-4.25c-2.64-1.78-3.94-3.66-5.07-5.7c-1.13-2.03-2.08-4.21-4.01-6.59c-2.36-2.91-5.43-2.66-8.28-1.63
		s-5.49,2.85-7,3.07c-3.6,0.53-5.64-2.11-7.31-4.46c-1.67-2.36-2.97-4.44-5.1-2.79c-2.04,1.57-1.35,4.59,0.08,7.49
		c1.43,2.9,3.59,5.69,4.48,6.82c2.26,2.88,3.31,6.27,4.25,8.9s1.77,4.47,3.6,4.25c1.56-0.21,2.3-1.27,3.22-1.87
		c0.93-0.6,2.04-0.74,4.35,0.91c5.26,3.71,7.68,4.56,9.51,4.32c1.83-0.24,3.07-1.58,5.98-2.23c1.53-0.34,3.37,0.32,5.12,0.74
		C336.88,618.51,338.55,618.71,339.71,617.44L339.71,617.44L339.71,617.44z M242.08,448.1c1.68,0.48,2.83-1.12,4.11-2.87
		c1.29-1.75,2.71-3.65,4.93-3.77c1.23-0.07,2,0.04,2.59,0.31c0.58,0.27,0.98,0.7,1.46,1.26c1.63,1.85,3.34,3.57,5.37,3.92
		s4.37-0.65,7.24-4.27c2.67-3.32,6.74-2.52,10.54-0.71c3.8,1.81,7.33,4.61,8.92,5.3c1.3,0.58,2.72,1.53,4.14,2.18
		c1.42,0.65,2.83,0.99,4.12,0.36c2.45-1.23,2.72-2.67,2.18-4.3c-0.55-1.63-1.92-3.44-2.76-5.43c-0.91-2.16-2.96-5.66-5.37-8.92
		s-5.17-6.28-7.48-7.48c-2.35-1.22-4.36-1.44-6.16-1.03s-3.4,1.45-4.9,2.77c-2.45,2.14-3.84,3.37-5.13,3.82
		c-1.29,0.45-2.49,0.1-4.57-0.91c-1.8-0.87-4.16-1.18-6.37-0.98c-2.22,0.2-4.3,0.9-5.55,2.05c-0.87,0.8-4.34,5.01-6.76,9.24
		S238.8,447.15,242.08,448.1L242.08,448.1L242.08,448.1z M244.1,467.78c1.44-0.82,2.27-1.65,3.06-1.98c0.79-0.33,1.53-0.16,2.8,1.02
		c1.41,1.32,1.04,3.51,0.74,5.63c-0.3,2.12-0.53,4.18,1.15,5.22c1.87,1.18,3.02,0.28,4.13-1.51c1.1-1.8,2.15-4.49,3.79-6.91
		c2.91-4.21,6.61-3.25,10.17-1.38c3.56,1.87,6.97,4.66,9.3,4.12c2.18-0.5,3.49-0.91,4.45-1.21s1.58-0.49,2.37-0.54
		c0.99-0.07,2.01-0.06,3.29,0.41s2.8,1.39,4.8,3.15c1.41,1.25,3.38,1.1,4.53,0.05c1.15-1.06,1.49-3.03-0.38-5.42
		c-0.86-1.13-2.32-2.19-3.92-3.5c-1.59-1.31-3.32-2.87-4.69-4.99c-1.39-2.12-3.2-5.49-5.57-7.87s-5.32-3.79-8.99-1.99
		c-1.61,0.79-2.97,2.27-4.81,3.43c-1.84,1.16-4.16,2.01-7.69,1.53c-0.81-0.12-3.24-1.21-6.02-1.91c-2.78-0.71-5.91-1.03-8.1,0.37
		c-1.54,0.98-3.15,2.43-4.64,3.98s-2.85,3.19-3.89,4.54c-1.88,2.41-2.57,4.84-1.92,6.16C238.68,469.52,240.65,469.75,244.1,467.78
		L244.1,467.78L244.1,467.78z M462.47,616.14c0.81,1.73,3.4,1.81,6.4,1.5c3-0.31,6.4-1,8.82-0.81c2.91,0.26,4.58,1.13,5.95,1.91
		c1.38,0.78,2.46,1.46,4.23,1.34c1.94-0.14,3.07-1.4,4.44-2.33c1.38-0.93,2.99-1.52,5.91-0.3c11.82,4.88,16.23,3,19.02,0.55
		c2.79-2.46,3.98-5.49,9.36-2.94c2.59,1.22,7.27,0.92,11.11-0.41c3.84-1.34,6.85-3.71,6.1-6.68c-0.51-1.95-2-2.55-3.83-2.56
		c-1.84-0.01-4.03,0.56-5.97,0.95c-2.43,0.48-5.47,0.15-8.46-0.62c-2.99-0.76-5.94-1.95-8.2-3.18c-1.73-0.94-4.54-2.11-7.44-3.05
		c-2.9-0.95-5.88-1.67-7.95-1.74c-4.16-0.14-7.69,0.45-11.05,1.5c-3.37,1.05-6.58,2.55-10.13,4.25c-2.76,1.32-8.38,2.28-12.79,4.01
		S460.38,611.74,462.47,616.14L462.47,616.14L462.47,616.14z M215.35,577.18c0.86-0.26,1.61-0.68,2.34-1.15
		c0.73-0.47,1.43-0.97,2.18-1.38c2.67-1.52,3.72-0.27,4.93,1.09c1.22,1.35,2.6,2.8,5.96,1.65c3.77-1.28,4.62-1.56,5.55-1.27
		c0.93,0.29,1.95,1.15,6.07,2.12c2.26,0.55,3.33-0.58,4.31-1.83c0.98-1.25,1.87-2.61,3.77-2.52c2.3,0.1,3.48,1.73,4.6,2.64
		c1.12,0.92,2.17,1.12,4.21-1.62c2.96-3.99,4.44-7.2,4.89-9.94c0.45-2.74-0.12-5.02-1.26-7.14c-1.9-3.58-5.05-3.28-8.69-1.7
		c-3.63,1.58-7.75,4.44-11.57,5.98c-2.35,0.94-3.91,1.23-5.48,1.12s-3.16-0.62-5.56-1.29c-2.69-0.77-4.51-1.13-6.43-1.25
		c-1.92-0.12-3.94-0.01-7.04,0.16c-3.17,0.19-8.28,0.42-12.66,1.36c-4.38,0.94-8.02,2.59-8.24,5.62c-0.19,2.65,0.91,3.51,2.62,3.77
		c1.71,0.26,4.03-0.07,6.29,0.2c2.76,0.34,3.11,2.26,3.74,3.8C210.54,577.16,211.46,578.33,215.35,577.18L215.35,577.18
		L215.35,577.18z M363.02,621.58c1.73,0.55,6.1-3.58,10.6-6.93s9.12-5.94,11.37-2.31c0.5,0.82,0.66,1.93,1.06,2.87
		c0.4,0.94,1.05,1.72,2.5,1.89c1.06,0.12,2.46-0.52,3.92-1.31c1.47-0.79,3-1.73,4.34-2.21c3.99-1.44,4.55,0.57,5.14,3.01
		c0.59,2.43,1.2,5.29,5.32,5.55c1.53,0.09,3.32-0.17,5.2-0.38c1.87-0.21,3.82-0.36,5.63-0.07c2.42,0.39,3.74,1.22,5.13,1.97
		c1.39,0.74,2.86,1.4,5.56,1.45c8.52,0.17,16.71-3.16,21.94-7.26c5.23-4.1,7.51-8.97,4.21-11.88c-2.21-1.97-3.85-1.23-6.09,0.49
		c-2.24,1.72-5.08,4.42-9.71,6.39c-2.04,0.86-3.8,1.37-5.37,1.59c-1.57,0.22-2.96,0.14-4.26-0.18c-2.62-0.65-6.25-3.18-10.04-5.96
		c-3.79-2.78-7.75-5.81-11.04-7.45c-13.5-6.68-27.6-2.34-36.96,4.1C362.12,611.36,357.52,619.89,363.02,621.58L363.02,621.58
		L363.02,621.58z M209.38,607.1c0.24,2.53,1.41,4.23,3,5.14s3.62,1.04,5.57,0.44c1.59-0.5,2.36-1.27,2.81-1.52s0.58,0,0.89,1.56
		c0.22,1.13,0.46,2.38,0.78,3.51c0.32,1.13,0.72,2.15,1.27,2.82c2.36,2.79,5.02,1.64,7.51-0.1c2.48-1.75,4.8-4.09,6.48-3.7
		c1.59,0.36,3.24,2.89,5.51,2.27s5.18-4.41,9.29-16.68c1.27-3.82,3.5-9.85,3.5-13.48s-2.24-4.87-9.91,0.92
		c-4.32,3.27-7.12,4.47-9.93,4.27c-2.81-0.2-5.62-1.79-9.95-4.1c-4.64-2.48-9.9-5.02-15.11-4.72c-5.2,0.3-10.35,3.44-14.77,12.32
		c-1.08,2.16-1.76,4.01-2.13,5.67s-0.42,3.15-0.23,4.57c0.27,2.04,2.21,2.47,4.64,2.2c2.42-0.28,5.34-1.27,7.57-2.09
		c1.71-0.63,2.45-1.1,2.79-1.09C209.3,605.31,209.25,605.8,209.38,607.1L209.38,607.1L209.38,607.1z M236.04,493.15
		c0.98,0.22,1.48,1.22,1.98,2.25s1,2.07,1.96,2.37c2.38,0.8,3.53-0.31,4.51-1.05c0.98-0.74,1.78-1.11,3.48,1.19
		c1.68,2.26,2.25,4.17,3.49,5c1.23,0.83,3.13,0.58,7.45-1.47c2.06-0.98,4.98-3.08,6.9-5.43c1.92-2.34,2.85-4.93,0.91-6.86
		c-0.74-0.75-1.42-1.33-2.32-1.7c-0.9-0.38-2-0.56-3.58-0.52c-2.59,0.05-4.34,0.5-5.65,0.89c-1.32,0.39-2.2,0.72-3.05,0.55
		c-0.89-0.15-1.76-0.85-3.07-2.56c-1.3-1.71-3.03-4.44-5.64-8.67c-1.63-2.64-4.04-2.6-6.44-1.55c-2.39,1.05-4.77,3.11-6.31,4.53
		c-1.03,0.94-3.8,4.42-5.59,8.07c-1.79,3.65-2.6,7.45,0.32,9.05c1.27,0.68,2.73-0.62,4.48-1.95
		C231.62,493.94,233.65,492.58,236.04,493.15L236.04,493.15L236.04,493.15z M274.6,519.98c4.59-2.02,7.2-0.75,9.09,0.75
		c1.89,1.5,3.06,3.24,4.79,2.16c8.31-5.2,11.12-4.14,13.7-2.02c2.58,2.12,4.94,5.29,12.34,4.32c1.11-0.14,1.86-2.04,1.76-4.33
		c-0.09-2.3-1.03-4.99-3.27-6.72c-0.74-0.56-3.32-1.16-6.1-1.84s-5.74-1.46-7.23-2.4c-6.65-4.11-9.79-2.64-12.45-1.1
		s-4.84,3.14-9.55-0.71c-0.94-0.77-1.43-2.27-2.16-3.49c-0.73-1.22-1.71-2.16-3.63-1.82c-1.13,0.19-2.84,1.1-4.58,2.33
		c-1.73,1.24-3.49,2.8-4.71,4.31c-2.07,2.6-0.54,5.9,2.24,8.22S271.67,521.28,274.6,519.98L274.6,519.98L274.6,519.98z
		 M490.95,430.26c-1.56,0.84-1.94,4.28-1.89,7.78s0.51,7.06,0.63,8.14c0.77,6.64,3.3,13.59,6.5,20.29s7.09,13.15,10.56,18.8
		l4.78,9.02l4.78,9.02c1.85,4.3,5.44,12.08,8.68,19.05s6.16,13.11,6.65,14.12c4.39,9.04,8.28,11.39,10.54,9.24
		c2.26-2.15,2.88-8.81,0.72-17.79c-1.63-6.73-4.85-13.68-8.57-20.72s-7.93-14.16-11.55-21.21c-3.36-6.54-5.78-12.94-8.32-19.38
		c-2.54-6.44-5.18-12.93-8.99-19.64c-0.69-1.63-2.9-6.57-5.65-10.73C497.08,432.08,493.79,428.72,490.95,430.26L490.95,430.26
		L490.95,430.26z M457.26,461.41c-2.62,4.07-5.65,8.47-8.59,12.9c-2.94,4.42-5.78,8.87-8.03,13.05c-1.27,2.4-2.76,4.83-4.27,7.25
		c-1.51,2.42-3.03,4.84-4.37,7.2c-2.11,3.66-4.71,8.1-7.3,12.5c-2.59,4.41-5.16,8.79-7.2,12.35c-7.28,12.65-7.13,20.62-2.68,20.55
		c4.45-0.06,13.2-8.16,23.1-27.64c2.47-4.84,5.74-10.96,9.25-16.87s7.25-11.6,10.66-15.58c3.02-3.95,6.73-8.13,10.32-12.4
		c3.6-4.27,7.09-8.62,9.66-12.94c1.75-2.94,3.02-7.83,3.76-12.79c0.75-4.96,0.97-10,0.63-13.26c-0.99-9.72-6.35-4.82-11.9,3.27
		C464.76,447.1,459.02,458.38,457.26,461.41L457.26,461.41L457.26,461.41z M270.62,546.41c0.55,2.16,1.51,2.46,2.78,2.01
		c1.28-0.45,2.87-1.63,4.69-2.46c1.3-0.58,2.58-1.03,3.78-1.15c1.2-0.12,2.33,0.07,3.35,0.77c2.4,1.66,4.35,3.47,6.5,4.47
		c2.15,0.99,4.49,1.16,7.66-0.46c0.87-0.46,1.27-1.83,1.67-3.19s0.81-2.7,1.72-3.11c2.35-1.08,6.65,2.11,10.77,4.75
		s8.06,4.75,9.69,1.51c1.58-3.13-1.7-6.98-5.97-10.51c-4.27-3.53-9.54-6.73-11.96-8.56c-1.2-0.92-2.13-1.76-3.36-2.36
		s-2.74-0.95-5.11-0.89c-1.9,0.03-2.84,0.02-3.66,0.42c-0.82,0.4-1.51,1.22-2.92,2.94c-5,6.11-7.25,2.64-9.28-0.27
		s-3.85-5.26-7.99,3.07c-0.87,1.73-1.59,4.48-2.03,7.06C270.52,543.03,270.37,545.42,270.62,546.41L270.62,546.41L270.62,546.41z
		 M263.12,525.84c-5.98-0.24-8.28,0.8-9.89,2.16c-1.61,1.36-2.55,3.05-5.8,4.11c-1.35,0.45-2.42-0.04-3.76-0.54
		c-1.33-0.5-2.93-1.01-5.32-0.62c-0.84,0.14-2.03,0.77-3.33,1.51c-1.3,0.74-2.7,1.57-3.97,2.12c-2.21,0.92-3.67,1.04-5.08,1.03
		c-1.41,0-2.78-0.12-4.82,0.34c-1.3,0.31-2.54,0.96-3.49,1.87c-0.95,0.92-1.6,2.1-1.72,3.47c-0.22,2.38-0.9,3.4-1.86,4.24
		c-0.96,0.84-2.21,1.51-3.59,3.19c-0.79,0.96-1.23,2.35-0.95,3.54c0.28,1.19,1.29,2.16,3.42,2.28c1.87,0.1,3.77-0.63,5.69-1.48
		c1.92-0.84,3.87-1.79,5.82-2.12c4.95-0.84,6.74-0.29,7.98,0.35s1.94,1.38,4.7,0.92c3.19-0.53,4.97-1.69,6.74-3.07
		s3.54-2.96,6.69-4.33c1.35-0.58,3.54,0.17,5.94,0.3c2.4,0.13,5.01-0.36,7.22-3.42c0.58-0.8,0.94-2.32,1.17-3.98
		c0.22-1.66,0.31-3.48,0.34-4.88c0.03-1.66,0.36-3.37,0.25-4.69C265.38,526.82,264.83,525.91,263.12,525.84L263.12,525.84
		L263.12,525.84z M298.18,561.54c-4.27,0.43-7.21-1.98-10.13-3.32c-2.93-1.34-5.84-1.63-10.05,3.05c-2.66,2.94-3.68,8.36-3.67,13.41
		s1.07,9.74,2.57,11.23c6.08,5.96,6.85,5.35,7.57,2.29c0.72-3.06,1.39-8.56,7.27-12.39c2.06-1.35,3.06-0.1,4.25,1.36
		c1.19,1.46,2.56,3.13,5.35,2.61c1.68-0.31,3.19-1.75,4.81-2.78s3.38-1.67,5.53-0.37l4.39,2.65l4.39,2.65
		c8.76,5.31,12.97,2.04,12.59-3.87c-0.39-5.91-5.37-14.46-15.02-19.71c-4.85-2.64-8.62-1.96-11.77-0.56S300.56,561.3,298.18,561.54
		L298.18,561.54L298.18,561.54z"/>
</g>
</svg>
