<?xml version="1.0" encoding="utf-8"?>
<!-- Generator: Adobe Illustrator 24.3.0, SVG Export Plug-In . SVG Version: 6.00 Build 0)  -->
<svg version="1.1" id="Слой_1" xmlns="http://www.w3.org/2000/svg" xmlns:xlink="http://www.w3.org/1999/xlink" x="0px" y="0px"
	 viewBox="0 0 720 720" style="enable-background:new 0 0 720 720;" xml:space="preserve">
<style type="text/css">
	.st0{fill-rule:evenodd;clip-rule:evenodd;}
</style>
<g>
	<path class="st0" d="M95.92,416.58l3.57-1l3.57-1c0,0,0.04,0.01,0.06,0.03c0.02,0.02,0.03,0.05-0.03,0.09
		c-0.32,0.22-0.55,0.48-0.69,0.79c-0.14,0.3-0.19,0.65-0.16,1.04c0.23,2.46,0.78,4.93,1.66,7.41c0.88,2.48,2.07,4.97,3.6,7.46
		c0.04,0.06,0.05,0.13,0.05,0.2c0,0.07-0.03,0.14-0.08,0.19c-2.26,2.71-4.19,5.59-5.8,8.64c-1.61,3.05-2.9,6.25-3.87,9.6
		c-0.02,0.08-0.09,0.12-0.15,0.12c-0.06,0-0.12-0.04-0.13-0.13c-0.63-5.25-1.11-12.79-1.46-19.37c-0.34-6.58-0.54-12.2-0.59-13.6
		c0-0.11,0.11-0.22,0.23-0.31C95.8,416.65,95.92,416.58,95.92,416.58z M341.61,34.95c2.34-2.34,5.14-4.23,8.25-5.53
		c3.11-1.31,6.53-2.03,10.12-2.03c3.59,0,7.01,0.72,10.12,2.03c3.11,1.31,5.91,3.2,8.25,5.53c2.36,2.36,4.26,5.15,5.57,8.26
		c1.31,3.1,2.03,6.51,2.03,10.1c0,3.58-0.72,6.99-2.03,10.1s-3.21,5.9-5.57,8.26c-2.34,2.34-5.14,4.23-8.25,5.53
		s-6.53,2.03-10.12,2.03c-3.59,0-7.01-0.72-10.12-2.03s-5.91-3.2-8.25-5.53c-2.36-2.36-4.26-5.15-5.57-8.26S334,56.89,334,53.31
		c0-3.58,0.72-6.99,2.03-10.1C337.34,40.11,339.25,37.31,341.61,34.95L341.61,34.95L341.61,34.95z M607.26,483.03
		c0.8-5.12,0.35-10.55-0.66-15.92c-1-5.37-2.56-10.69-3.96-15.61c-0.04-0.15-0.05-0.3-0.03-0.45c0.02-0.15,0.08-0.29,0.16-0.42
		c0.84-1.34,1.41-2.59,1.7-3.77s0.3-2.28,0.03-3.3c-0.36-1.07-0.98-1.93-1.84-2.58c-0.86-0.66-1.97-1.11-3.32-1.36
		c-0.03-0.01-0.07-0.04-0.09-0.07s-0.04-0.08-0.03-0.1c0.1-0.2,0.19-0.4,0.28-0.61c0.09-0.21,0.16-0.43,0.23-0.66l3.08-13.07
		l3.08-13.07c0.03-0.12,0.11-0.21,0.21-0.25c0.1-0.05,0.22-0.05,0.33,0.01l8.8,4.74l8.8,4.74c0.03,0.02,0.06,0.03,0.09,0.04
		c0.03,0.01,0.06,0.03,0.09,0.04c0.05,0.02,0.12,0.12,0.17,0.23c0.06,0.11,0.1,0.23,0.1,0.29c0,0.01,0,0.03,0,0.04
		c0,0.01,0,0.03,0,0.04c-0.19,9.62-0.89,19.1-2.07,28.43c-1.19,9.33-2.86,18.5-5.01,27.5c-0.04,0.18-0.11,0.35-0.2,0.51
		c-0.09,0.16-0.2,0.31-0.32,0.44c-1.32,1.36-2.73,2.44-4.22,3.23s-3.08,1.29-4.75,1.5c-0.13,0.02-0.31-0.07-0.45-0.18
		C607.35,483.29,607.24,483.14,607.26,483.03z M595.38,495.87c1.75-0.59,3.33-1.33,4.72-2.24c1.4-0.91,2.61-1.97,3.64-3.22
		c0.05-0.07,0.12-0.12,0.2-0.16s0.16-0.06,0.24-0.06c1.86-0.05,3.63-0.28,5.32-0.68c1.7-0.4,3.31-0.97,4.85-1.71
		c0.11-0.06,0.23-0.03,0.32,0.04c0.08,0.07,0.13,0.18,0.09,0.3c-0.36,1.26-0.72,2.51-1.1,3.77c-0.37,1.26-0.75,2.51-1.14,3.77
		c-0.03,0.11-0.1,0.2-0.19,0.27c-0.09,0.06-0.2,0.1-0.31,0.1h-8.32h-8.32c-0.05,0-0.09-0.04-0.09-0.08
		C595.31,495.94,595.33,495.89,595.38,495.87z M560.5,587.95c-4.82-4.02-10.5-7.28-16.74-9.82c-6.24-2.54-13.05-4.37-20.1-5.52
		c-0.75-0.12-1.23-0.66-1.36-1.28c-0.14-0.62,0.07-1.31,0.69-1.74c2.03-1.41,3.93-3,5.67-4.75c1.74-1.75,3.32-3.65,4.72-5.69
		c0.14-0.2,0.35-0.3,0.55-0.3c0.21,0,0.42,0.1,0.56,0.3c3.65,5.3,8.53,9.7,14.24,12.78c5.7,3.08,12.23,4.82,19.15,4.82
		c0.29,0,0.58,0,0.87-0.01c0.29-0.01,0.59-0.02,0.88-0.03c0.14-0.01,0.27,0.11,0.33,0.25c0.06,0.14,0.07,0.32-0.03,0.44
		c-1.37,1.78-2.76,3.54-4.18,5.28c-1.42,1.74-2.86,3.47-4.32,5.19c-0.12,0.14-0.28,0.21-0.45,0.23
		C560.82,588.11,560.64,588.06,560.5,587.95z M478.26,643.78c0.7-6.41-1.98-12.65-6.32-16.71c-4.34-4.06-10.34-5.93-16.27-3.59
		c-1.62,0.64-2.96,1.61-3.99,2.86s-1.77,2.79-2.17,4.58c-0.97,4.46,0.07,7.79,2.38,9.94s5.88,3.13,9.97,2.89
		c0.15-0.01,0.28,0.06,0.36,0.17c0.08,0.11,0.11,0.25,0.05,0.39c-0.99,2.36-2.63,3.82-4.63,4.52c-2,0.7-4.35,0.64-6.76-0.06
		c-4.93-1.42-8.25-4.73-10.03-8.74c-1.78-4-2.02-8.7-0.81-12.89c2.24-7.91,9.33-14.67,17.37-19.64c8.04-4.97,17.05-8.17,23.13-8.95
		c0.07-0.01,0.13,0.03,0.16,0.08c0.03,0.05,0.04,0.13,0,0.19c-2.77,4.93-4.23,9.32-4.81,13.79s-0.3,9.02,0.39,14.27
		c0.03,0.24,0.2,0.4,0.4,0.45c0.2,0.05,0.43-0.02,0.56-0.22c5.36-7.83,12.4-15.03,20.51-20.6c8.1-5.56,17.27-9.48,26.89-10.75
		c0.26-0.03,0.47,0.11,0.57,0.3s0.09,0.45-0.08,0.64c-2.5,2.67-4.36,5.14-5.44,7.84c-1.08,2.7-1.38,5.64-0.75,9.25
		c0.03,0.2,0.17,0.35,0.35,0.42c0.17,0.07,0.38,0.06,0.54-0.06c3.87-2.76,7.51-5.05,11.42-6.63c3.91-1.57,8.09-2.42,13.04-2.28
		c0.16,0,0.28,0.11,0.33,0.24c0.05,0.13,0.03,0.29-0.08,0.4c-10,9.72-20.76,18.66-32.18,26.72c-11.42,8.06-23.51,15.25-36.16,21.45
		c-0.33,0.16-0.66,0.06-0.87-0.16c-0.2-0.22-0.28-0.57-0.1-0.89c0.8-1.41,1.46-2.89,1.97-4.43
		C477.72,647.03,478.08,645.42,478.26,643.78L478.26,643.78L478.26,643.78z M388.19,675.13l6.32-0.33l6.32-0.33
		c0.3-0.02,0.57-0.14,0.76-0.34c0.2-0.2,0.33-0.47,0.34-0.76l0.33-5.94l0.33-5.94c0.01-0.27,0.17-0.49,0.38-0.6s0.47-0.13,0.71,0
		l6.7,3.74l6.7,3.74c0.15,0.08,0.31,0.1,0.46,0.05c0.15-0.04,0.28-0.14,0.36-0.29l3.27-5.77l3.27-5.77c0.1-0.18,0.12-0.39,0.07-0.58
		c-0.05-0.19-0.18-0.36-0.36-0.46l-6.65-3.73l-6.65-3.73c-0.22-0.13-0.34-0.35-0.35-0.57c-0.01-0.23,0.09-0.46,0.3-0.6l2.89-1.97
		l2.89-1.97c0.14-0.1,0.31-0.12,0.46-0.07c0.15,0.05,0.28,0.16,0.34,0.32c1.25,3.15,2.94,6.13,5.04,8.85
		c2.1,2.72,4.6,5.18,7.47,7.27c2.51,1.84,5.16,3.31,7.89,4.41s5.55,1.84,8.4,2.2c0.15,0.02,0.23,0.13,0.25,0.25
		c0.01,0.12-0.04,0.24-0.18,0.29c-9.6,3.31-19.44,6.09-29.5,8.29c-10.06,2.21-20.32,3.84-30.76,4.85c-0.19,0.02-0.35-0.08-0.43-0.22
		s-0.1-0.32,0-0.48l1.08-1.75l1.08-1.75c0.05-0.09,0.12-0.15,0.21-0.2C388,675.17,388.09,675.14,388.19,675.13z M289.76,659.6
		c2.68-1.91,5.06-4.16,7.11-6.65c2.05-2.49,3.76-5.22,5.09-8.1c0.21-0.45,0.6-0.75,1.04-0.87s0.93-0.06,1.35,0.21l2.63,1.73
		l2.63,1.73c0.23,0.15,0.33,0.39,0.33,0.63c-0.01,0.24-0.13,0.47-0.36,0.61l-6.2,3.64l-6.2,3.64c-0.37,0.22-0.61,0.56-0.71,0.94
		s-0.05,0.8,0.17,1.17l2.85,4.81l2.85,4.81c0.27,0.46,0.71,0.77,1.19,0.9s1.01,0.06,1.48-0.21l5.86-3.45l5.86-3.45
		c0.31-0.18,0.66-0.17,0.94-0.02c0.28,0.15,0.49,0.43,0.52,0.79l0.44,5.61l0.44,5.61c0.03,0.37,0.19,0.69,0.44,0.93
		s0.58,0.39,0.95,0.4l5.92,0.2l5.92,0.2c0.24,0.01,0.47,0.07,0.67,0.19c0.2,0.11,0.38,0.28,0.51,0.48l0.98,1.5l0.98,1.5
		c0.09,0.15,0.08,0.31,0.01,0.44c-0.08,0.13-0.22,0.22-0.39,0.2c-10.38-0.97-20.6-2.55-30.6-4.69s-19.8-4.85-29.35-8.1
		c-0.3-0.1-0.43-0.37-0.41-0.62c0.02-0.25,0.2-0.5,0.51-0.55c2.54-0.42,5.05-1.15,7.5-2.18
		C285.14,662.54,287.51,661.22,289.76,659.6L289.76,659.6L289.76,659.6z M201.3,613.32c0.55-3.47,0.21-6.31-0.87-8.94
		c-1.08-2.63-2.9-5.04-5.33-7.63c-0.18-0.2-0.2-0.46-0.1-0.66c0.1-0.2,0.31-0.35,0.58-0.31c9.51,1.26,18.58,5.12,26.61,10.59
		c8.03,5.47,15.03,12.55,20.4,20.27c0.2,0.29,0.53,0.38,0.81,0.31c0.28-0.07,0.53-0.3,0.57-0.65c0.62-4.92,0.85-9.24,0.32-13.48
		c-0.53-4.24-1.84-8.4-4.29-12.99c-0.15-0.28-0.11-0.59,0.04-0.82c0.16-0.23,0.43-0.37,0.75-0.32c6.28,1.01,15.01,4.21,22.73,9.12
		c7.72,4.91,14.41,11.52,16.62,19.35c1.21,4.19,0.97,8.88-0.81,12.89s-5.1,7.32-10.03,8.74c-1.6,0.47-3.14,0.63-4.55,0.51
		s-2.7-0.53-3.79-1.21c-0.56-0.37-1.06-0.8-1.51-1.31c-0.45-0.5-0.84-1.08-1.18-1.72c-0.15-0.29-0.12-0.61,0.03-0.85
		c0.15-0.25,0.42-0.42,0.74-0.41c1.69,0.04,3.44-0.16,5.06-0.64c1.62-0.48,3.11-1.25,4.27-2.36c2.5-2.38,3.18-6.05,2.42-9.45
		c-0.76-3.4-2.96-6.54-6.24-7.85c-2.17-0.84-4.74-1.02-7.35-0.6c-2.61,0.42-5.25,1.44-7.55,3.02c-2.83,1.93-4.96,4.56-6.29,7.63
		c-1.33,3.07-1.84,6.58-1.43,10.26c0.2,1.85,0.62,3.64,1.23,5.35c0.61,1.71,1.41,3.34,2.39,4.86c0.12,0.18,0.07,0.38-0.05,0.52
		c-0.12,0.13-0.32,0.2-0.51,0.1c-12.9-6.24-25.22-13.5-36.85-21.66c-11.63-8.17-22.58-17.25-32.72-27.13
		c-0.1-0.1-0.12-0.24-0.07-0.35c0.05-0.12,0.15-0.21,0.29-0.21c4.85-0.17,8.98,0.61,12.84,2.1c3.86,1.49,7.45,3.69,11.23,6.37
		c0.22,0.16,0.6,0.17,0.94,0.09C200.98,613.71,201.27,613.54,201.3,613.32z M156.46,576.76c6.9,0,13.39-1.74,19.07-4.8
		s10.55-7.43,14.2-12.71c0.15-0.22,0.39-0.33,0.63-0.33c0.24,0,0.47,0.11,0.63,0.33c1.63,2.34,3.49,4.51,5.56,6.47
		c2.07,1.95,4.34,3.69,6.78,5.17c0.21,0.13,0.28,0.35,0.24,0.54c-0.04,0.19-0.2,0.36-0.45,0.38c-8,0.67-16,2.16-23.41,4.63
		c-7.41,2.47-14.24,5.92-19.9,10.52c-0.33,0.27-0.73,0.38-1.12,0.35s-0.77-0.21-1.04-0.53c-1.26-1.49-2.51-3-3.74-4.52
		c-1.23-1.52-2.43-3.06-3.62-4.61c-0.21-0.28-0.2-0.62-0.05-0.88c0.15-0.26,0.44-0.44,0.79-0.39c0.88,0.12,1.78,0.22,2.69,0.28
		C154.62,576.72,155.53,576.76,156.46,576.76L156.46,576.76L156.46,576.76z M115.36,496.05h-3.75h-3.75c-0.08,0-0.16-0.03-0.22-0.07
		s-0.11-0.11-0.14-0.19c-0.27-0.87-0.54-1.74-0.8-2.61c-0.26-0.87-0.52-1.74-0.78-2.61c-0.04-0.13,0.02-0.24,0.11-0.3
		c0.09-0.06,0.22-0.07,0.32,0.02c1.66,1.29,3.4,2.4,5.23,3.33c1.84,0.93,3.77,1.67,5.8,2.24c0.14,0.04,0.11,0.09,0.06,0.14
		s-0.15,0.08-0.15,0.08h-0.96H115.36z M119.28,409.93c0.11-0.03,0.23-0.02,0.32,0.03c0.1,0.05,0.18,0.13,0.22,0.23l1.57,3.73
		l1.57,3.73c0,0,0.06,0.14,0.13,0.32c0.07,0.17,0.16,0.38,0.21,0.5c0.01,0.03,0.01,0.07,0,0.1c-0.01,0.03-0.03,0.06-0.05,0.06
		c-1.61,0.83-3.19,1.77-4.73,2.81c-1.54,1.05-3.04,2.21-4.51,3.49c-0.07,0.06-0.15,0.08-0.23,0.07c-0.08-0.01-0.15-0.05-0.2-0.13
		c-0.47-0.86-1-2.08-1.58-3.68c-0.58-1.59-1.22-3.56-1.92-5.89c-0.19-0.55-0.57-0.92-1.04-1.16c-0.47-0.24-1.04-0.35-1.63-0.39
		c-0.13-0.01-0.2-0.1-0.21-0.19s0.04-0.2,0.16-0.23l5.95-1.7L119.28,409.93z M123.94,333.64l-2.78,9.78l-2.78,9.78
		c-0.04,0.16-0.14,0.28-0.27,0.37c-0.13,0.08-0.28,0.12-0.44,0.1l-6.5-0.87l-6.5-0.87c-0.28-0.04-0.52-0.2-0.67-0.42
		c-0.15-0.22-0.21-0.5-0.13-0.78c0.76-2.91,1.57-5.82,2.42-8.7s1.76-5.74,2.71-8.57c0.06-0.18,0.18-0.34,0.33-0.45
		c0.15-0.11,0.34-0.17,0.53-0.17h6.74h6.74c0.2,0,0.38,0.1,0.49,0.24C123.95,333.25,123.99,333.44,123.94,333.64z M165.03,241.33
		c7.3,4.56,15.42,7.86,23.11,10.02c7.69,2.16,14.94,3.18,20.48,3.18c0.05,0,0.22,0,0.44-0.01c0.22-0.01,0.5-0.01,0.77-0.02
		c0.15,0,0.22,0.04,0.22,0.1c0,0.06-0.07,0.12-0.19,0.17c-0.15,0.06-0.3,0.12-0.45,0.17s-0.3,0.12-0.45,0.18
		c-3.73,1.53-7.2,3.61-10.29,6.13c-3.09,2.53-5.79,5.5-8.01,8.83c-0.07,0.11-0.19,0.17-0.3,0.17s-0.23-0.05-0.3-0.16
		c-3.63-5.42-8.53-9.93-14.27-13.07c-5.74-3.15-12.33-4.94-19.33-4.94c-0.39,0-0.77,0.01-1.14,0.03s-0.74,0.04-1.11,0.05
		c-0.13,0.01-0.24-0.09-0.3-0.21c-0.06-0.12-0.06-0.27,0.02-0.38c0.08-0.1,0.15-0.19,0.23-0.29c0.08-0.1,0.16-0.19,0.23-0.29
		c1.37-1.68,2.75-3.34,4.16-4.99c1.41-1.65,2.83-3.28,4.28-4.89c0.05-0.06,0.11-0.12,0.16-0.18s0.11-0.12,0.16-0.18
		c0.06-0.06,0.24-0.09,0.41-0.11c0.17-0.02,0.33-0.01,0.33-0.01l0.24,0.15l0.24,0.15l0.33,0.2L165.03,241.33z M264.56,205.24
		c3.53-1.4,5.78-4.84,6.37-8.48c0.59-3.64-0.48-7.48-3.6-9.68c-1.09-0.77-2.37-1.33-3.81-1.69s-3.01-0.51-4.67-0.45
		c-0.28,0.01-0.51-0.13-0.64-0.33s-0.17-0.47-0.05-0.71c1.05-2.13,2.67-3.46,4.62-4.09c1.95-0.63,4.21-0.55,6.54,0.13
		c4.92,1.42,8.23,4.73,10.02,8.74c1.78,4,2.04,8.7,0.83,12.89c-2.24,7.93-9.08,14.62-16.92,19.54c-7.84,4.93-16.68,8.1-22.91,9
		c-0.22,0.03-0.4-0.07-0.51-0.23c-0.1-0.16-0.13-0.38-0.02-0.57c2.5-4.56,3.85-8.69,4.44-12.88c0.58-4.19,0.4-8.44-0.16-13.25
		c-0.06-0.48-0.4-0.81-0.8-0.92c-0.4-0.11-0.85,0.01-1.13,0.41c-5.26,7.44-12.02,14.24-19.74,19.55
		c-7.72,5.31-16.42,9.12-25.56,10.58c-0.48,0.08-0.87-0.17-1.07-0.53c-0.19-0.36-0.18-0.82,0.14-1.19c2.04-2.31,3.59-4.49,4.54-6.85
		c0.95-2.36,1.3-4.89,0.96-7.9c-0.06-0.54-0.4-0.94-0.84-1.13s-0.97-0.18-1.41,0.14c-2.66,1.87-5.22,3.51-7.94,4.82
		s-5.59,2.29-8.88,2.84c-0.29,0.05-0.54-0.11-0.65-0.33s-0.09-0.51,0.13-0.71c8.96-8.17,18.49-15.73,28.51-22.61
		c10.02-6.88,20.54-13.09,31.49-18.55c0.2-0.1,0.42-0.06,0.57,0.06s0.24,0.32,0.18,0.54c-0.16,0.58-0.3,1.16-0.41,1.75
		c-0.11,0.59-0.2,1.19-0.26,1.81c-0.7,6.41,1.99,12.65,6.34,16.71S258.63,207.6,264.56,205.24L264.56,205.24L264.56,205.24z
		 M317.18,167.3l-6.46-3.8l-6.46-3.8c-0.26-0.15-0.55-0.18-0.82-0.12c-0.27,0.07-0.51,0.24-0.66,0.49l-3.16,5.33l-3.16,5.33
		c-0.17,0.29-0.21,0.62-0.13,0.92c0.08,0.3,0.27,0.57,0.56,0.74l6.31,3.72l6.31,3.72c0.25,0.15,0.38,0.4,0.38,0.65
		c0.01,0.25-0.11,0.51-0.35,0.67l-2.65,1.72l-2.65,1.72c-0.24,0.16-0.52,0.18-0.76,0.1c-0.25-0.08-0.46-0.26-0.57-0.52
		c-1.85-4.3-4.63-8.16-8.03-11.4c-3.4-3.24-7.41-5.84-11.72-7.61c-0.2-0.08-0.29-0.26-0.29-0.44c0.01-0.18,0.11-0.35,0.32-0.41
		c5.63-1.71,11.34-3.23,17.12-4.56c5.78-1.33,11.62-2.47,17.53-3.41c0.29-0.05,0.56,0.05,0.76,0.23c0.2,0.18,0.31,0.44,0.29,0.74
		l-0.36,4.75l-0.36,4.75c-0.02,0.24-0.16,0.43-0.35,0.53C317.62,167.41,317.38,167.42,317.18,167.3z M430.47,169.08
		c-3.06,2.18-5.72,4.79-7.94,7.7c-2.22,2.9-3.99,6.1-5.28,9.45l-3.69-2.51l-3.69-2.51l7.47-4.19l7.47-4.19l-3.61-6.39l-3.61-6.39
		l-7.47,4.21l-7.47,4.21l-0.33-6.08L402,156.3c6.03,0.96,11.99,2.13,17.88,3.49c5.89,1.36,11.7,2.92,17.42,4.67
		c0.19,0.06,0.28,0.21,0.29,0.37c0.01,0.16-0.08,0.32-0.26,0.4c-1.18,0.5-2.35,1.08-3.5,1.72
		C432.68,167.59,431.56,168.3,430.47,169.08L430.47,169.08L430.47,169.08z M524.11,232.92c-9.13-1.32-17.84-5.01-25.61-10.21
		c-7.77-5.2-14.59-11.91-19.94-19.27c-0.39-0.53-0.99-0.68-1.52-0.54c-0.53,0.14-0.98,0.58-1.05,1.23
		c-0.49,4.42-0.61,8.37-0.06,12.29s1.76,7.78,3.95,12.01c0.2,0.38,0.13,0.8-0.09,1.1c-0.22,0.3-0.6,0.49-1.02,0.41
		c-6.29-1.19-14.9-4.5-22.48-9.4c-7.58-4.9-14.12-11.4-16.26-18.95c-1.21-4.19-0.96-8.88,0.83-12.89c1.78-4,5.1-7.32,10.02-8.74
		c1.6-0.49,3.14-0.66,4.55-0.54c1.41,0.12,2.7,0.54,3.79,1.24c0.57,0.36,1.08,0.8,1.53,1.31c0.45,0.51,0.85,1.1,1.19,1.76
		c0.14,0.28,0.11,0.58-0.04,0.82c-0.15,0.24-0.41,0.4-0.72,0.39c-1.71-0.04-3.47,0.15-5.09,0.63c-1.62,0.48-3.11,1.25-4.29,2.37
		c-2.52,2.38-3.21,6.05-2.44,9.45s2.99,6.54,6.31,7.85c2.15,0.86,4.71,1.04,7.31,0.62s5.25-1.46,7.55-3.03
		c2.83-1.93,4.96-4.56,6.29-7.62c1.33-3.06,1.84-6.56,1.43-10.22c-0.05-0.49-0.11-0.96-0.19-1.44c-0.08-0.47-0.18-0.94-0.29-1.41
		c-0.08-0.35,0.06-0.67,0.29-0.86c0.24-0.19,0.58-0.26,0.9-0.09c10.76,5.43,21.1,11.57,30.96,18.36
		c9.85,6.79,19.22,14.23,28.05,22.26c0.24,0.22,0.26,0.53,0.14,0.77c-0.12,0.24-0.38,0.41-0.7,0.36c-3.12-0.56-5.86-1.5-8.45-2.74
		c-2.59-1.24-5.04-2.78-7.55-4.54c-0.44-0.31-0.97-0.28-1.35-0.04s-0.65,0.69-0.56,1.23c0.31,1.86,0.85,4.43,1.71,7.1
		s2.05,5.42,3.67,7.64c0.22,0.3,0.21,0.66,0.06,0.93S524.48,232.97,524.11,232.92z M518.12,256.37c-0.43-0.22-0.6-0.65-0.53-1.05
		c0.07-0.39,0.37-0.74,0.85-0.79c7.26-0.71,14.34-2.02,20.91-3.96c6.57-1.94,12.62-4.51,17.82-7.74c0.28-0.18,0.61-0.24,0.92-0.2
		c0.31,0.04,0.6,0.19,0.83,0.44c1.14,1.29,2.25,2.58,3.35,3.89c1.1,1.31,2.19,2.62,3.26,3.95c0.2,0.25,0.22,0.56,0.11,0.81
		c-0.11,0.25-0.36,0.44-0.68,0.47c-6.31,0.45-12.23,2.36-17.42,5.38c-5.19,3.02-9.65,7.17-13.04,12.1
		c-0.15,0.22-0.38,0.34-0.62,0.36c-0.24,0.02-0.48-0.07-0.65-0.27l-0.73-0.97l-0.73-0.97c-0.12-0.13-1.96-2.21-4.56-4.64
		S521.27,257.96,518.12,256.37z M606.23,351.35l-2.52-8.81l-2.52-8.81c-0.06-0.22-0.01-0.43,0.11-0.59s0.31-0.27,0.54-0.27h4.12
		h4.12c0.22,0,0.43,0.07,0.6,0.19c0.17,0.12,0.3,0.3,0.37,0.51c0.74,2.25,1.46,4.52,2.15,6.81c0.69,2.29,1.35,4.59,1.98,6.91
		c0.05,0.17,0.03,0.34-0.04,0.49c-0.07,0.15-0.19,0.27-0.35,0.35l-3.89,1.8l-3.89,1.8c-0.16,0.07-0.33,0.07-0.48,0
		C606.39,351.64,606.28,351.52,606.23,351.35z M547.07,496.05c-0.12,0-0.19-0.08-0.2-0.17c-0.01-0.09,0.03-0.19,0.14-0.23
		c1.48-0.5,2.93-1.15,4.36-1.96c1.43-0.81,2.83-1.76,4.21-2.87c4.56-3.62,8.07-8.13,11.21-12.93c3.15-4.79,5.93-9.87,9.07-14.62
		c1.55-2.35,3.01-4.41,4.37-6.17s2.63-3.25,3.79-4.44c0.14-0.14,0.34-0.18,0.51-0.13c0.17,0.05,0.32,0.18,0.37,0.38
		c0.99,4.02,1.81,8,2.44,11.95s1.09,7.85,1.35,11.7c-2.09,0.43-3.29,1.89-3.62,3.61c-0.33,1.72,0.2,3.7,1.59,5.16
		c-0.39,0.37-0.85,0.64-1.38,0.82c-0.53,0.18-1.14,0.27-1.82,0.27c-0.66-0.04-1.29-0.19-1.88-0.44s-1.16-0.63-1.71-1.12
		c-0.51-0.49-0.94-0.98-1.29-1.5c-0.35-0.52-0.62-1.05-0.82-1.62c-1.81-0.64-4.11-0.14-6.08,0.98c-1.97,1.12-3.62,2.84-4.14,4.63
		c0.66,1.73,1.57,3.23,2.72,4.51s2.55,2.31,4.18,3.13c0.28,0.14,0.55,0.27,0.83,0.4c0.28,0.13,0.55,0.25,0.83,0.37
		c0.11,0.05,0.12,0.12,0.1,0.18c-0.02,0.06-0.07,0.11-0.07,0.11l-14.54,0L547.07,496.05z M410.71,606.58l6.12-3.61l6.12-3.61
		c0.33-0.19,0.55-0.51,0.64-0.85c0.09-0.34,0.04-0.72-0.15-1.05l-3.01-5.06l-3.01-5.06c-0.21-0.35-0.54-0.59-0.91-0.68
		c-0.37-0.09-0.77-0.05-1.13,0.16l-5.98,3.52l-5.98,3.52c-0.35,0.2-0.74,0.19-1.06,0.03s-0.55-0.48-0.58-0.88l-0.42-5.37l-0.42-5.37
		c-0.04-0.46-0.24-0.87-0.55-1.16c-0.31-0.3-0.73-0.48-1.19-0.5l-5.64-0.17l-5.64-0.17c-0.31-0.01-0.6-0.09-0.86-0.24
		c-0.26-0.15-0.49-0.35-0.66-0.61l-2.51-3.83l-2.51-3.83c-0.15-0.23-0.19-0.49-0.13-0.73c0.05-0.24,0.2-0.46,0.43-0.61
		c2.89-1.85,5.53-4.07,7.86-6.58c2.33-2.51,4.35-5.32,5.99-8.36c0.12-0.22,0.32-0.32,0.53-0.32c0.21,0,0.41,0.11,0.53,0.32
		c3.41,6.35,8.46,11.67,14.59,15.41c6.13,3.74,13.33,5.89,21.05,5.89c6.83,0,13.26-1.7,18.91-4.71s10.49-7.3,14.15-12.48
		c0.21-0.29,0.52-0.44,0.84-0.44c0.32,0,0.63,0.15,0.84,0.44c1.86,2.65,4.04,5.06,6.48,7.19s5.14,3.97,8.04,5.48
		c0.21,0.11,0.3,0.32,0.27,0.51s-0.17,0.37-0.4,0.41c-13.27,2.38-26.31,6.79-37.28,13.26c-10.97,6.47-19.87,15-24.85,25.62
		c-0.17,0.35-0.47,0.6-0.81,0.7c-0.34,0.1-0.72,0.06-1.05-0.16l-3.35-2.2l-3.35-2.2c-0.29-0.19-0.43-0.5-0.42-0.81
		C410.25,607.06,410.41,606.75,410.71,606.58z M385.32,632.57c0.31-1.49,0.45-3.08,0.45-4.67c-0.01-1.59-0.16-3.18-0.44-4.7
		c-0.08-0.44-0.01-0.89,0.17-1.28c0.18-0.39,0.48-0.73,0.87-0.95l3.48-2.06l3.48-2.06c0.29-0.17,0.61-0.25,0.93-0.25
		c0.32,0,0.64,0.09,0.93,0.26l7.71,4.56l7.71,4.56c0.55,0.33,0.83,0.89,0.84,1.45c0.01,0.56-0.26,1.13-0.8,1.47l-7.63,4.76
		l-7.63,4.76c-0.26,0.16-0.55,0.25-0.85,0.25c-0.3,0.01-0.59-0.06-0.86-0.21l-3.84-2.16l-3.84-2.16c-0.28-0.16-0.48-0.39-0.6-0.67
		C385.28,633.19,385.25,632.88,385.32,632.57z M367.03,602.4l-0.05-4.5l-0.05-4.5c0-0.29,0.07-0.57,0.21-0.82
		c0.14-0.24,0.35-0.45,0.6-0.59l8.75-4.91l8.75-4.91c0.18-0.1,0.38-0.09,0.53,0s0.27,0.25,0.28,0.46l0.34,9.97l0.34,9.97
		c0.01,0.34-0.07,0.67-0.23,0.96s-0.39,0.53-0.69,0.71l-3.78,2.21l-3.78,2.21c-0.21,0.12-0.44,0.17-0.67,0.14
		c-0.23-0.02-0.45-0.12-0.63-0.28c-1.39-1.21-2.82-2.22-4.35-3.08c-1.53-0.85-3.15-1.55-4.9-2.13c-0.11-0.04-0.29-0.27-0.43-0.49
		S367.03,602.4,367.03,602.4z M387.32,652.09l-0.11,10.23l-0.11,10.23c0,0.16-0.09,0.28-0.2,0.35c-0.12,0.07-0.27,0.08-0.41,0.01
		l-8.99-4.78l-8.99-4.78c-0.21-0.11-0.39-0.28-0.51-0.48c-0.12-0.2-0.19-0.43-0.2-0.68l-0.07-4.6l-0.07-4.6
		c0-0.2,0.06-0.39,0.17-0.55c0.11-0.16,0.28-0.28,0.47-0.34c1.69-0.57,3.3-1.31,4.82-2.22s2.94-1.97,4.27-3.17
		c0.15-0.13,0.32-0.21,0.51-0.23c0.18-0.02,0.38,0.01,0.55,0.11l4.26,2.44l4.26,2.44c0.11,0.06,0.2,0.15,0.25,0.26
		C387.29,651.85,387.32,651.97,387.32,652.09z M205.69,527.19h18.59h18.59c0.7,1.4,1.25,2.89,1.62,4.45
		c0.37,1.55,0.57,3.17,0.57,4.83c0,5.73-2.32,10.91-6.08,14.66s-8.94,6.07-14.68,6.07c-5.75,0-10.96-2.32-14.73-6.07
		s-6.1-8.93-6.1-14.66c0-1.66,0.2-3.27,0.59-4.83S204.99,528.59,205.69,527.19L205.69,527.19L205.69,527.19z M155.34,489.94
		c-0.31,1.15-0.41,1.54-0.51,1.92c-0.1,0.38-0.2,0.76-0.51,1.89c-0.14,0.48-0.08,0.89,0.1,1.25c0.18,0.35,0.49,0.65,0.84,0.92
		c0.03,0.02,0.04,0.06,0.03,0.09c-0.01,0.03-0.03,0.05-0.07,0.05l-7.41,0h-7.41c-0.14,0-0.22-0.1-0.23-0.2
		c-0.01-0.1,0.04-0.22,0.17-0.25c2.98-0.76,5.69-1.79,8.23-3.15c2.54-1.36,4.91-3.06,7.2-5.16c0.06-0.06,0.13-0.04,0.18-0.01
		c0.05,0.03,0.09,0.08,0.09,0.08l-0.35,1.29L155.34,489.94z M185.8,373.86l-7.65-1.69l-7.65-1.69c-0.14-0.03-0.25-0.13-0.29-0.26
		s-0.03-0.27,0.05-0.39l3.97-5.36l3.97-5.36c0.02-0.03,0.06-0.04,0.09-0.02s0.05,0.05,0.04,0.09c-0.61,3.34-0.16,6.28,1.18,8.73
		c1.33,2.45,3.55,4.41,6.46,5.8c0.14,0.07,0.1,0.11,0.02,0.13C185.91,373.86,185.8,373.86,185.8,373.86z M224.77,333.28
		c-0.12,0.22-0.27,0.4-0.41,0.54c-0.14,0.14-0.28,0.24-0.37,0.31c-1.29,1.42-2.68,2.53-4.24,3.5s-3.29,1.82-5.24,2.71
		c-3.73,1.68-7.36,2.77-11.04,3.69s-7.39,1.69-11.27,2.7c-1.23,0.32-2.38,0.71-3.48,1.15c-1.1,0.44-2.13,0.95-3.1,1.52
		c-0.05,0.03-0.11,0.02-0.14-0.02c-0.03-0.04-0.04-0.09,0-0.14l4.89-6.65l4.89-6.65c0.04-0.06,0.27-0.38,0.57-0.78
		c0.3-0.41,0.68-0.9,1-1.33c0.23-0.3,0.52-0.54,0.85-0.71s0.7-0.25,1.08-0.25l12.81,0h12.81c0,0,0.17-0.03,0.31,0.01
		C224.81,332.91,224.91,333.01,224.77,333.28z M172.54,333.73l-10.44,5.45l-10.44,5.45c-0.25,0.13-0.53,0.13-0.77,0.03
		c-0.24-0.1-0.43-0.3-0.51-0.58l-1.48-5.16l-1.48-5.16c-0.06-0.22-0.01-0.45,0.11-0.61c0.13-0.17,0.33-0.28,0.56-0.28h12.11h12.11
		c0.24,0,0.4,0.16,0.45,0.35C172.82,333.4,172.75,333.62,172.54,333.73z M334.72,196.16c-0.31,1.57-0.46,3.11-0.46,4.66
		c0,1.55,0.15,3.1,0.44,4.68c0.06,0.35,0.02,0.7-0.12,1.01c-0.14,0.31-0.37,0.57-0.68,0.75l-3.79,2.13l-3.79,2.13
		c-0.26,0.15-0.56,0.22-0.85,0.21c-0.29-0.01-0.58-0.09-0.84-0.25l-8.09-5.05l-8.09-5.05c-0.33-0.21-0.5-0.56-0.5-0.91
		c0-0.35,0.18-0.69,0.52-0.89l8.17-4.83l8.17-4.83c0.29-0.17,0.61-0.26,0.94-0.26c0.32,0,0.65,0.09,0.94,0.26l3.61,2.13l3.61,2.13
		c0.34,0.2,0.59,0.5,0.73,0.84C334.76,195.39,334.8,195.78,334.72,196.16z M394.27,212.45l-4.3-2.57l-4.3-2.57
		c-0.19-0.12-0.34-0.29-0.42-0.48c-0.08-0.2-0.11-0.42-0.06-0.64c0.34-1.62,0.54-3.39,0.57-5.15s-0.13-3.52-0.5-5.13
		c-0.05-0.24-0.03-0.48,0.06-0.69c0.09-0.21,0.25-0.39,0.46-0.51l4.08-2.28l4.08-2.28c0.19-0.1,0.39-0.15,0.6-0.15
		c0.2,0,0.41,0.06,0.59,0.18l8.43,5.24l8.43,5.24c0.24,0.15,0.36,0.4,0.35,0.64c0,0.25-0.12,0.49-0.37,0.64l-8.85,5.26
		L394.27,212.45z M418.9,215.99c5.01,10.59,14.45,19.14,26.37,25.51c11.92,6.37,26.3,10.57,41.19,12.49c0.12,0.02,0.19,0.11,0.2,0.2
		c0.01,0.1-0.04,0.2-0.16,0.24c-4.09,1.46-7.87,3.55-11.23,6.15s-6.29,5.73-8.67,9.26c-0.11,0.17-0.29,0.25-0.47,0.25
		c-0.18,0-0.36-0.08-0.47-0.25c-3.64-5.35-8.52-9.79-14.23-12.9c-5.71-3.1-12.25-4.86-19.19-4.86c-7.77,0-15.03,2.2-21.19,5.99
		s-11.22,9.2-14.6,15.6c-0.08,0.15-0.23,0.23-0.38,0.23c-0.15,0-0.3-0.08-0.38-0.23c-1.62-3.05-3.62-5.87-5.93-8.4
		c-2.32-2.53-4.95-4.76-7.84-6.64c-0.31-0.2-0.51-0.51-0.59-0.84c-0.07-0.33-0.02-0.69,0.18-1l2.12-3.24l2.12-3.24
		c0.45-0.68,0.88-1.14,1.33-1.44c0.44-0.29,0.89-0.42,1.36-0.44l4.92-0.17l4.92-0.17c0.73-0.02,1.39-0.32,1.89-0.79
		c0.49-0.47,0.82-1.12,0.88-1.85l0.42-5.37l0.42-5.37c0.01-0.17,0.11-0.3,0.24-0.37c0.13-0.07,0.3-0.07,0.44,0.01l6.24,3.66
		l6.24,3.66c0.45,0.26,0.97,0.32,1.44,0.2c0.47-0.12,0.89-0.42,1.16-0.87l2.72-4.58l2.72-4.58c0.3-0.5,0.36-1.07,0.23-1.59
		c-0.13-0.52-0.46-0.99-0.96-1.29l-6.09-3.61l-6.09-3.61c-0.17-0.1-0.26-0.28-0.26-0.45c0-0.18,0.08-0.35,0.25-0.46l3.95-2.56
		l3.95-2.56c0.15-0.1,0.33-0.12,0.48-0.07C418.68,215.71,418.82,215.83,418.9,215.99z M518.64,301.69h-18.59h-18.59
		c-0.7-1.4-1.26-2.89-1.64-4.45c-0.38-1.55-0.59-3.17-0.59-4.83c0-5.73,2.33-10.92,6.1-14.68c3.76-3.76,8.96-6.09,14.7-6.09
		c5.73,0,10.94,2.33,14.72,6.09c3.77,3.76,6.11,8.95,6.11,14.68c0,1.66-0.2,3.27-0.59,4.83
		C519.9,298.79,519.34,300.28,518.64,301.69L518.64,301.69L518.64,301.69z M411.4,292.41c0-5.73,2.33-10.92,6.1-14.68
		c3.77-3.76,8.98-6.09,14.73-6.09c5.72,0,10.9,2.33,14.66,6.09c3.76,3.76,6.09,8.95,6.09,14.68c0,1.66-0.2,3.27-0.57,4.83
		c-0.37,1.55-0.92,3.04-1.62,4.45h-18.59h-18.59c-0.7-1.4-1.26-2.89-1.64-4.45C411.6,295.68,411.4,294.07,411.4,292.41L411.4,292.41
		L411.4,292.41z M339.11,292.41c0-5.73,2.34-10.92,6.11-14.68c3.77-3.76,8.98-6.09,14.72-6.09c5.73,0,10.93,2.33,14.7,6.09
		c3.76,3.76,6.1,8.95,6.1,14.68c0,1.66-0.2,3.27-0.59,4.83c-0.38,1.55-0.94,3.04-1.64,4.45h-18.59h-18.59
		c-0.7-1.4-1.26-2.89-1.64-4.45C339.31,295.68,339.11,294.07,339.11,292.41L339.11,292.41L339.11,292.41z M367.71,173.62l0.05-3.31
		l0.05-3.31c0.01-0.39,0.12-0.77,0.32-1.09s0.48-0.6,0.83-0.78l8.19-4.36l8.19-4.36c0.4-0.21,0.84-0.18,1.19,0.03
		c0.34,0.2,0.59,0.57,0.59,1.03l0.1,9.15l0.1,9.15c0,0.39-0.1,0.76-0.28,1.09c-0.19,0.33-0.46,0.6-0.79,0.79l-3.52,2.02l-3.52,2.02
		c-0.38,0.22-0.8,0.31-1.22,0.27c-0.41-0.03-0.82-0.19-1.14-0.47c-1.3-1.12-2.74-2.13-4.26-2.98c-1.52-0.85-3.12-1.55-4.74-2.05
		c-0.05-0.02-0.1-0.05-0.13-0.09c-0.03-0.04-0.05-0.09-0.05-0.15l0.02-1.3L367.71,173.62z M378.84,220.4l3.77,2.2l3.77,2.2
		c0.12,0.07,0.22,0.18,0.29,0.3c0.07,0.12,0.1,0.26,0.1,0.4l-0.34,10.19l-0.34,10.19c-0.01,0.25-0.15,0.45-0.34,0.56
		s-0.44,0.12-0.65,0l-8.87-4.97l-8.87-4.97c-0.13-0.07-0.24-0.18-0.31-0.3c-0.07-0.13-0.11-0.27-0.11-0.42l0.05-4.83l0.05-4.83
		c0-0.15,0.05-0.29,0.14-0.4c0.09-0.11,0.21-0.2,0.35-0.24c1.89-0.59,3.62-1.34,5.25-2.27c1.63-0.93,3.16-2.05,4.63-3.39
		c0.03-0.03,0.14-0.03,0.24-0.02c0.1,0.01,0.2,0.02,0.2,0.02l0.5,0.29L378.84,220.4z M333.25,176.02l0.35-9.95l0.35-9.95
		c0.01-0.29,0.17-0.52,0.39-0.64c0.22-0.12,0.5-0.14,0.75,0l8.69,4.87l8.69,4.87c0.2,0.11,0.36,0.27,0.47,0.46
		c0.11,0.19,0.17,0.41,0.17,0.64l-0.05,4.59l-0.05,4.59c0,0.22-0.07,0.42-0.2,0.58c-0.12,0.16-0.3,0.29-0.5,0.35
		c-1.71,0.53-3.37,1.26-4.94,2.14c-1.57,0.88-3.05,1.93-4.4,3.09c-0.16,0.14-0.36,0.23-0.57,0.25c-0.2,0.02-0.41-0.02-0.6-0.13
		l-3.97-2.32l-3.97-2.32c-0.2-0.11-0.35-0.28-0.46-0.47C333.29,176.47,333.24,176.25,333.25,176.02z M352.32,226.94l-0.05,4.22
		l-0.05,4.22c0,0.21-0.06,0.41-0.17,0.59c-0.11,0.17-0.26,0.32-0.44,0.42l-8.99,4.77l-8.99,4.77c-0.16,0.09-0.35,0.07-0.49-0.01
		c-0.14-0.08-0.24-0.24-0.24-0.42l-0.11-10.19l-0.11-10.19c0-0.1,0.02-0.19,0.07-0.28c0.05-0.08,0.12-0.15,0.2-0.2l4.2-2.4l4.2-2.4
		c0.24-0.14,0.5-0.18,0.76-0.15c0.26,0.03,0.5,0.14,0.71,0.33c1.33,1.2,2.76,2.23,4.27,3.09c1.52,0.87,3.13,1.59,4.83,2.18
		c0.07,0.02,0.17,0.17,0.25,0.3c0.08,0.14,0.15,0.27,0.15,0.27l-0.01,0.54L352.32,226.94z M271.31,292.41
		c0-5.73,2.33-10.92,6.1-14.68c3.76-3.76,8.96-6.09,14.7-6.09c5.73,0,10.94,2.33,14.72,6.09c3.77,3.76,6.11,8.95,6.11,14.68
		c0,1.66-0.2,3.27-0.59,4.83c-0.38,1.55-0.94,3.04-1.64,4.45h-18.59h-18.59c-0.7-1.4-1.26-2.89-1.64-4.45
		C271.51,295.68,271.31,294.07,271.31,292.41L271.31,292.41L271.31,292.41z M239.97,332.86h6.52h6.52c0.15,0,0.25,0.1,0.27,0.22
		c0.02,0.12-0.03,0.25-0.17,0.31c-0.76,0.33-1.52,0.69-2.28,1.1c-0.76,0.4-1.51,0.85-2.27,1.33c-2.31,1.47-4.45,3.12-6.42,4.96
		c-1.97,1.84-3.76,3.85-5.39,6.03c-0.05,0.07-0.13,0.08-0.19,0.05c-0.06-0.03-0.1-0.1-0.07-0.18l2.17-6.11l2.17-6.11
		c-0.09-0.21-0.21-0.41-0.36-0.6c-0.15-0.18-0.34-0.35-0.56-0.51c-0.12-0.09-0.11-0.21-0.07-0.31
		C239.9,332.94,239.97,332.86,239.97,332.86z M271.28,332.86h9.8h9.8c0.06,0,0.1,0.04,0.11,0.09s-0.01,0.1-0.07,0.13
		c-2.59,1.13-5.16,2.74-7.74,4.82s-5.16,4.64-7.74,7.68c-0.05,0.06-0.13,0.07-0.19,0.05c-0.06-0.02-0.11-0.09-0.1-0.17
		c0.25-2.17,0.22-4.49-0.33-6.6c-0.54-2.11-1.6-4.03-3.39-5.42c-0.13-0.1-0.17-0.25-0.18-0.36
		C271.26,332.95,271.28,332.86,271.28,332.86z M336.18,386.79c0.43-1.95,1-3.71,1.73-5.29c0.73-1.58,1.6-2.97,2.64-4.18
		c0.99-1.25,2.01-2.13,3.04-2.67c1.03-0.54,2.09-0.72,3.16-0.57c0.92,0.12,1.51,0.56,1.77,1.31c0.26,0.76,0.2,1.83-0.21,3.21
		c-0.31,1.11-0.82,2.14-1.52,3.11c-0.7,0.96-1.58,1.86-2.66,2.7c-1.05,0.82-2.24,1.43-3.57,1.83
		C339.25,386.64,337.78,386.83,336.18,386.79L336.18,386.79L336.18,386.79z M518.31,496.05c-0.07,0-0.11-0.05-0.12-0.1
		c-0.01-0.05,0.02-0.11,0.08-0.13c1-0.33,1.95-0.74,2.84-1.24c0.89-0.49,1.73-1.07,2.51-1.73c1.44-1.22,2.8-2.61,4.07-4.19
		c1.28-1.58,2.47-3.34,3.6-5.29c0.04-0.08,0.12-0.1,0.19-0.08s0.12,0.08,0.11,0.17c-0.17,2-0.14,3.8,0.08,5.4s0.65,2.99,1.28,4.18
		c0.25,0.48,0.53,0.91,0.85,1.3c0.32,0.39,0.68,0.73,1.06,1.03c0.14,0.11,0.18,0.28,0.14,0.42s-0.17,0.25-0.35,0.25h-8.17H518.31z
		 M193.68,463.17c-1.48,4.5-2.69,8.46-3.61,11.86c-0.92,3.4-1.54,6.24-1.85,8.52c-0.27,2.1-0.25,3.99,0.07,5.67
		c0.33,1.68,0.96,3.15,1.92,4.42c0.33,0.47,0.73,0.88,1.21,1.24c0.47,0.37,1.02,0.68,1.63,0.96c0.08,0.04,0.05,0.09,0.01,0.13
		s-0.11,0.08-0.11,0.08h-9.88h-9.88c0,0-0.03-0.02-0.06-0.05c-0.02-0.03-0.04-0.06,0-0.08c0.28-0.16,0.51-0.31,0.68-0.48
		c0.17-0.17,0.27-0.34,0.3-0.53c0.78-3.17,1.85-7.4,3.22-12.66c1.37-5.26,3.04-11.57,5.01-18.92c0.03-0.1,0.07-0.19,0.12-0.27
		s0.12-0.17,0.19-0.23c1.61-1.49,3.13-2.63,4.56-3.42c1.43-0.79,2.77-1.24,4.03-1.36c1.44-0.16,2.38,0.19,2.79,1.03
		S194.32,461.3,193.68,463.17L193.68,463.17L193.68,463.17z M270.46,486.86c0.03,1.21,0.2,2.33,0.5,3.34s0.72,1.93,1.25,2.74
		c0.36,0.51,0.79,0.98,1.28,1.38c0.49,0.41,1.04,0.77,1.66,1.08c0.16,0.08,0.22,0.25,0.19,0.39c-0.03,0.14-0.15,0.27-0.33,0.27
		h-9.31h-9.31c-0.18,0-0.29-0.13-0.31-0.26c-0.02-0.14,0.05-0.29,0.22-0.34c2.57-0.79,5-1.9,7.29-3.33
		c2.29-1.43,4.44-3.19,6.45-5.25c0.07-0.07,0.17-0.11,0.26-0.11C270.38,486.75,270.45,486.79,270.46,486.86z M398.99,491.22
		c0.16-0.14,0.31-0.27,0.46-0.42c0.15-0.14,0.3-0.28,0.46-0.43c0.13-0.12,0.3-0.2,0.43-0.22c0.13-0.02,0.22,0.02,0.19,0.13
		c-0.15,0.55-0.29,1.11-0.44,1.66c-0.15,0.56-0.29,1.12-0.44,1.69c0.02,0.41,0.16,0.78,0.42,1.13c0.27,0.34,0.66,0.65,1.17,0.92
		c0.09,0.05,0.12,0.14,0.1,0.22s-0.08,0.15-0.19,0.15h-5.06h-5.06c-0.08,0-0.13-0.05-0.14-0.12c-0.01-0.06,0.02-0.13,0.1-0.15
		c1.44-0.47,2.83-1.08,4.17-1.84S397.77,492.28,398.99,491.22L398.99,491.22L398.99,491.22z M437.81,462.07
		c-1.85,7.29-3.42,13.6-4.71,18.94s-2.29,9.7-3.01,13.09c0.11,0.28,0.25,0.53,0.45,0.76s0.44,0.45,0.72,0.65
		c0.14,0.1,0.16,0.23,0.14,0.34c-0.02,0.11-0.07,0.2-0.07,0.2h-7.05h-7.05c0,0-0.07-0.03-0.11-0.08c-0.05-0.04-0.07-0.09,0.01-0.13
		c0.42-0.18,0.78-0.38,1.06-0.59c0.28-0.21,0.5-0.44,0.63-0.69c1.4-6.22,2.79-11.94,4.14-17.18c1.35-5.24,2.67-9.98,3.94-14.23
		c1.54-1.52,3.03-2.68,4.46-3.49c1.43-0.81,2.79-1.27,4.08-1.38c0.6-0.04,1.09,0.02,1.47,0.18c0.38,0.16,0.65,0.41,0.83,0.76
		c0.2,0.35,0.29,0.76,0.3,1.23C438.04,460.94,437.96,461.47,437.81,462.07L437.81,462.07L437.81,462.07z M496.71,485.04
		c0.06,0.42,0.12,0.82,0.19,1.22c0.07,0.4,0.15,0.78,0.24,1.15c0.37,1.32,0.85,2.48,1.44,3.47c0.59,0.99,1.31,1.81,2.15,2.45
		c0.67,0.55,1.36,1.02,2.06,1.43s1.43,0.73,2.17,1.01c0.08,0.03,0.11,0.1,0.1,0.17c-0.01,0.07-0.06,0.13-0.15,0.13h-11.5h-11.5
		c-0.07,0-0.11-0.05-0.12-0.1s0.02-0.11,0.09-0.13c2.61-0.84,5.13-2.16,7.57-3.97c2.44-1.8,4.79-4.09,7.05-6.87
		c0.03-0.04,0.09-0.05,0.13-0.04S496.71,484.99,496.71,485.04z M464.61,493.17c0.39,0.56,0.87,1.06,1.42,1.49
		c0.56,0.44,1.2,0.81,1.91,1.12c0.07,0.03,0.1,0.1,0.09,0.16s-0.06,0.11-0.14,0.11l-9.9,0l-9.9,0c0,0-0.05-0.03-0.09-0.07
		c-0.04-0.04-0.06-0.09,0-0.12c0.28-0.15,0.53-0.31,0.73-0.48c0.21-0.17,0.37-0.36,0.5-0.57c1.77-7.73,3.3-14.23,4.58-19.5
		c1.29-5.27,2.34-9.3,3.15-12.11c0.07-0.26,0.18-0.5,0.33-0.72c0.14-0.22,0.32-0.43,0.52-0.6c1.41-1.24,2.72-2.17,3.92-2.81
		s2.32-0.97,3.34-1c0.7-0.04,1.29,0.05,1.75,0.26c0.46,0.21,0.8,0.56,1.02,1.02c0.21,0.47,0.32,1.01,0.31,1.63
		c-0.01,0.62-0.14,1.31-0.39,2.07c-0.74,3.08-1.48,6.16-2.23,9.24s-1.51,6.16-2.29,9.24c-0.55,2.51-0.71,4.73-0.49,6.67
		C462.98,490.13,463.59,491.79,464.61,493.17L464.61,493.17L464.61,493.17z M485.91,434.68c0-0.97,0.2-1.89,0.59-2.75
		c0.39-0.86,0.98-1.67,1.76-2.43c1-0.98,2.17-1.84,3.53-2.58c1.35-0.74,2.89-1.37,4.6-1.89c0.12-0.04,0.25,0,0.33,0.08
		c0.08,0.08,0.13,0.2,0.1,0.33c-0.36,1.43-0.69,2.67-0.99,3.71c-0.3,1.04-0.56,1.87-0.78,2.49c-0.66,1.7-1.48,3.01-2.45,3.94
		c-0.97,0.93-2.09,1.48-3.36,1.63c-1.11,0.12-1.94-0.04-2.49-0.46C486.18,436.33,485.91,435.64,485.91,434.68L485.91,434.68
		L485.91,434.68z M397.19,442.28l-1.87,0l-1.87,0c-0.23,0-0.44-0.11-0.56-0.29s-0.18-0.4-0.11-0.62c1.22-4.24,2.4-8.27,3.55-12.08
		c1.15-3.81,2.26-7.41,3.33-10.77c-0.08-0.34-0.24-0.67-0.47-0.98c-0.23-0.31-0.54-0.61-0.92-0.88c-0.07-0.05-0.1-0.14-0.08-0.2
		s0.08-0.13,0.17-0.13c6.29-0.24,11.77-2.52,16.56-6.37c4.79-3.86,8.89-9.3,12.43-15.86c2.29-4,4.27-7.9,5.94-11.7
		s3.03-7.51,4.07-11.12c0.03-0.11,0.12-0.19,0.22-0.22c0.1-0.03,0.21-0.01,0.3,0.07c1.25,1.08,2.49,2.34,3.17,3.76
		c0.68,1.42,0.8,2.99-0.2,4.68c-1.09,1.73-2.01,3.22-2.76,4.47s-1.35,2.25-1.8,3.01c-0.43,0.76-0.91,1.7-1.43,2.83
		c-0.52,1.13-1.09,2.43-1.69,3.91c-0.6,1.5-1.06,2.91-1.37,4.23c-0.31,1.32-0.46,2.53-0.46,3.64c-0.1,4.83,1.8,8,4.78,9.94
		c2.98,1.94,7.04,2.66,11.25,2.61c4.55-0.1,8.74-0.99,12.58-2.69c3.84-1.7,7.33-4.2,10.48-7.5c0.06-0.06,0.14-0.07,0.21-0.05
		s0.12,0.09,0.12,0.17c0.22,3.36,1.4,5.87,3.55,7.55s5.26,2.52,9.34,2.52c3.9,0,7.5-0.89,10.8-2.68s6.29-4.47,8.97-8.05
		c0.05-0.07,0.14-0.08,0.2-0.05s0.1,0.1,0.08,0.19c-0.68,2.15-1.35,4.18-2.03,6.08c-0.67,1.9-1.35,3.68-2.03,5.32
		c-0.13,0.31-0.34,0.58-0.59,0.78c-0.26,0.2-0.56,0.35-0.89,0.41c-1.14,0.23-2.17,0.44-3.1,0.63c-0.92,0.19-1.73,0.37-2.43,0.52
		c-0.8,0.18-1.71,0.39-2.71,0.64c-1,0.25-2.09,0.55-3.26,0.88c-1.15,0.35-2.2,0.72-3.15,1.11s-1.78,0.8-2.51,1.23
		c-0.76,0.45-1.51,0.93-2.26,1.45s-1.49,1.09-2.23,1.71c-0.74,0.6-1.4,1.27-1.99,1.99c-0.59,0.73-1.09,1.51-1.52,2.37
		c-0.43,0.86-0.78,1.76-1.07,2.72c-0.29,0.96-0.51,1.97-0.69,3.04c-0.27,2.12-0.11,4.04,0.49,5.75c0.6,1.7,1.63,3.2,3.1,4.46
		c0.04,0.04,0.09,0.07,0.14,0.11c0.05,0.04,0.1,0.07,0.15,0.11c0.06,0.04,0.05,0.11,0,0.17c-0.05,0.06-0.13,0.11-0.22,0.12
		c-2.98,0.21-5.86,0.96-8.66,2.26c-2.8,1.3-5.5,3.15-8.11,5.55c-0.15,0.14-0.35,0.16-0.51,0.1c-0.16-0.06-0.29-0.2-0.3-0.4
		c-0.05-1.16-0.27-2.2-0.66-3.1c-0.39-0.9-0.95-1.67-1.68-2.3c-0.8-0.72-1.77-1.27-2.93-1.63s-2.48-0.55-3.98-0.55
		c-2.63,0-5.47,0.7-8.54,2.09c-3.07,1.39-6.36,3.49-9.89,6.28c-0.1,0.08-0.22,0.07-0.3,0.01c-0.08-0.06-0.14-0.16-0.1-0.28
		c0.33-1.04,0.62-1.95,0.87-2.71s0.46-1.39,0.64-1.88c0.05-0.14,0.07-0.28,0.06-0.43c-0.01-0.14-0.06-0.28-0.14-0.4
		c-0.56-0.84-1.52-1.51-2.89-2.03c-1.37-0.52-3.13-0.87-5.3-1.07c-2.17-0.2-4-0.2-5.51-0.02c-1.5,0.18-2.68,0.55-3.52,1.11
		c-0.13,0.08-0.23,0.19-0.32,0.31c-0.09,0.12-0.15,0.26-0.2,0.41c-1.16,3.68-2.37,7.64-3.62,11.87c-1.25,4.23-2.54,8.73-3.86,13.49
		c-0.06,0.22-0.13,0.43-0.22,0.64c-0.08,0.21-0.18,0.42-0.29,0.62c-2.47,4.57-5.19,7.95-8.2,10.15s-6.28,3.21-9.85,3.04
		c-1.13-0.08-2.01-0.55-2.62-1.4s-0.97-2.1-1.04-3.74c-0.08-1.62,0.04-3.44,0.34-5.47s0.79-4.27,1.45-6.73
		c0.19-0.78,0.65-2.47,1.39-5.08c0.74-2.61,1.76-6.13,3.07-10.56c0.05-0.18,0.16-0.33,0.3-0.44c0.14-0.11,0.32-0.17,0.5-0.17h3.98
		h3.98c0.23,0,0.46-0.04,0.68-0.12c0.21-0.08,0.41-0.2,0.58-0.36c0.41-0.39,0.76-0.94,1.05-1.65c0.29-0.71,0.52-1.58,0.69-2.6
		c0.17-0.99,0.2-1.89,0.11-2.68c-0.09-0.8-0.32-1.49-0.69-2.09c-0.19-0.31-0.46-0.55-0.78-0.71c-0.32-0.16-0.68-0.25-1.04-0.25
		h-0.83L397.19,442.28z M375.21,496.05l-17.66,0l-17.66,0c-0.14,0-0.22-0.09-0.24-0.2c-0.02-0.1,0.03-0.22,0.16-0.27
		c1.49-0.56,2.85-1.24,4.07-2.05c1.22-0.81,2.31-1.74,3.26-2.81c0.14-0.16,0.31-0.29,0.5-0.38c0.19-0.09,0.4-0.14,0.61-0.15
		c3.18-0.13,6.12-0.78,8.83-1.96s5.16-2.88,7.39-5.11c0.21-0.21,0.49-0.29,0.75-0.24c0.26,0.05,0.49,0.21,0.6,0.49
		c0.59,1.46,1.45,3.95,2.91,6.37s3.53,4.77,6.54,5.93c0.1,0.04,0.14,0.13,0.12,0.22S375.32,496.05,375.21,496.05z M313.52,472.67
		c0.9-1.48,1.84-3,2.84-4.56c0.99-1.56,2.04-3.17,3.13-4.83c1.66-2.49,3.2-4.65,4.63-6.48s2.74-3.35,3.94-4.54
		c0.05-0.05,0.13-0.06,0.19-0.04c0.06,0.02,0.12,0.07,0.14,0.15c0.96,3.85,1.78,7.68,2.43,11.46c0.65,3.79,1.13,7.54,1.43,11.24
		c0.03,0.42-0.08,0.81-0.29,1.15s-0.53,0.61-0.91,0.8c-0.59,0.29-1.07,0.69-1.44,1.2c-0.38,0.51-0.65,1.12-0.83,1.83
		c-0.21,0.88-0.22,1.72-0.04,2.53c0.19,0.81,0.57,1.57,1.16,2.31c0.11,0.14,0.15,0.31,0.13,0.47c-0.02,0.16-0.11,0.31-0.26,0.41
		c-0.95,0.63-2.1,0.78-3.21,0.59c-1.11-0.19-2.19-0.73-3.01-1.47c-0.36-0.35-0.69-0.7-0.98-1.06c-0.29-0.36-0.54-0.73-0.75-1.11
		c-0.18-0.34-0.44-0.63-0.74-0.85s-0.66-0.36-1.04-0.39c-0.7-0.06-1.44,0.02-2.21,0.23c-0.77,0.21-1.57,0.56-2.4,1.04
		c-1.03,0.56-1.88,1.18-2.55,1.86s-1.17,1.42-1.5,2.21c-0.07,0.18-0.11,0.38-0.1,0.57c0.01,0.19,0.05,0.39,0.13,0.57
		c0.68,1.59,1.58,2.97,2.7,4.15c1.12,1.18,2.45,2.15,3.98,2.92c0.26,0.13,0.52,0.25,0.78,0.38c0.26,0.12,0.52,0.24,0.79,0.35
		c0.13,0.06,0.12,0.14,0.07,0.21c-0.05,0.07-0.13,0.12-0.13,0.12l-14.32,0l-14.32,0c-0.15,0-0.24-0.1-0.26-0.22s0.04-0.24,0.18-0.29
		c5.68-1.79,9.92-5.14,13.45-9.23C307.84,482.24,310.66,477.42,313.52,472.67L313.52,472.67L313.52,472.67z M237.69,453.73
		c1.25,1.07,2.5,2.36,3.19,3.79c0.69,1.44,0.81,3.02-0.2,4.67c-1.83,2.96-4.21,6.72-6.13,10.62c-1.92,3.9-3.38,7.93-3.38,11.44
		c-0.07,2.67,0.51,4.95,1.66,6.81c1.15,1.86,2.88,3.29,5.1,4.27c0.19,0.08,0.25,0.27,0.21,0.43c-0.04,0.16-0.17,0.3-0.38,0.3h-15.41
		h-15.41c0,0-0.07-0.05-0.1-0.11c-0.03-0.06-0.02-0.14,0.15-0.19c7.67-2.54,14.16-9.38,19.26-17.38s8.81-17.18,10.91-24.38
		c0.03-0.09,0.13-0.19,0.24-0.24C237.51,453.69,237.63,453.68,237.69,453.73z M312.93,536.46c0,5.73-2.34,10.91-6.11,14.66
		s-8.98,6.07-14.72,6.07c-5.73,0-10.93-2.32-14.7-6.07s-6.1-8.93-6.1-14.66c0-1.66,0.2-3.27,0.59-4.83
		c0.38-1.55,0.94-3.04,1.64-4.45h18.59h18.59c0.7,1.4,1.26,2.89,1.64,4.45C312.73,533.19,312.93,534.81,312.93,536.46L312.93,536.46
		L312.93,536.46z M380.73,536.46c0,5.73-2.33,10.91-6.1,14.66s-8.96,6.07-14.7,6.07c-5.73,0-10.94-2.32-14.72-6.07
		s-6.11-8.93-6.11-14.66c0-1.66,0.2-3.27,0.59-4.83c0.38-1.55,0.94-3.04,1.64-4.45h18.59h18.59c0.7,1.4,1.26,2.89,1.64,4.45
		C380.53,533.19,380.73,534.81,380.73,536.46L380.73,536.46L380.73,536.46z M452.98,536.46c0,5.73-2.33,10.91-6.09,14.66
		s-8.95,6.07-14.66,6.07c-5.75,0-10.96-2.32-14.73-6.07c-3.77-3.75-6.1-8.93-6.1-14.66c0-1.66,0.2-3.27,0.59-4.83
		c0.38-1.55,0.94-3.04,1.64-4.45h18.59h18.59c0.7,1.4,1.25,2.89,1.62,4.45C452.79,533.19,452.98,534.81,452.98,536.46L452.98,536.46
		L452.98,536.46z M562.64,422.06l7.69-5.25l7.69-5.25c0.28-0.19,0.61-0.22,0.9-0.12c0.29,0.1,0.53,0.32,0.64,0.64l4.43,13.31
		l4.43,13.31c0.13,0.36,0.29,0.71,0.48,1.04c0.19,0.33,0.41,0.64,0.66,0.94c0.03,0.03,0.04,0.07,0.03,0.11
		c-0.01,0.04-0.03,0.07-0.07,0.08c-1.26,0.53-2.49,1.18-3.68,1.99c-1.19,0.8-2.33,1.75-3.42,2.86
		c-5.95,5.92-10.01,12.64-13.81,19.01c-3.81,6.37-7.37,12.38-12.32,16.88c-1.56,1.42-2.96,2.49-4.21,3.22
		c-1.25,0.73-2.34,1.11-3.28,1.14c-1.44,0.08-2.32-0.66-2.64-2.21s-0.09-3.91,0.69-7.06c0.29-1.19,0.7-2.72,1.24-4.58
		c0.54-1.86,1.2-4.05,2-6.57c-0.39-0.76-1.2-1.44-2.42-2.05c-1.22-0.61-2.86-1.14-4.91-1.61c-2.05-0.45-3.82-0.63-5.33-0.55
		s-2.76,0.45-3.75,1.09c-0.47,1.32-0.98,2.64-1.53,3.96s-1.16,2.64-1.82,3.99c-0.62,1.34-1.3,2.72-2.01,4.11
		c-0.72,1.39-1.48,2.79-2.28,4.19c-0.82,1.42-1.64,2.64-2.47,3.66s-1.68,1.85-2.56,2.49c-0.84,0.6-1.63,0.92-2.37,0.93
		c-0.74,0.01-1.43-0.28-2.08-0.89c-1.01-0.95-1.44-2.58-1.28-4.88c0.16-2.3,0.91-5.27,2.26-8.91c0.74-2.05,1.69-3.93,2.84-5.65
		c1.16-1.72,2.52-3.28,4.1-4.68c1.56-1.36,3.18-2.42,4.85-3.15c1.67-0.73,3.4-1.14,5.17-1.22c3.45-0.19,6.66,0.16,9.64,1.05
		c2.97,0.89,5.72,2.32,8.23,4.29c0.55,0.16,1.2-0.04,1.97-0.57c0.77-0.54,1.66-1.41,2.67-2.62c0.98-1.23,1.65-2.31,2.01-3.24
		s0.41-1.71,0.14-2.33c-1.68-1.71-3.67-3.14-5.98-4.28c-2.31-1.14-4.94-2.01-7.91-2.62c-2.95-0.58-5.78-0.93-8.51-1.02
		c-2.73-0.1-5.34,0.05-7.84,0.44c-3.57,0.51-7.06,1.63-10.47,3.37s-6.75,4.1-10.01,7.08c-2.57,2.32-4.72,4.86-6.45,7.61
		c-1.73,2.75-3.05,5.71-3.96,8.87c-0.99,2.01-2.06,3.82-3.19,5.43s-2.33,3.02-3.6,4.23c-1.29,1.23-3.54,3.03-5.47,3.68
		c-1.93,0.65-3.54,0.14-3.54-3.25c0-3.76,0.93-7.36,2.05-10.93c1.13-3.57,2.45-7.09,3.25-10.7c0.49-1.91,0.86-4.06,0.79-6.16
		c-0.07-2.1-0.57-4.14-1.82-5.81c0.07-0.13,0.08-0.17,0.1-0.21c0.02-0.04,0.04-0.08,0.1-0.21c1.49,0,2.87-0.06,4.16-0.17
		c1.28-0.11,2.47-0.28,3.57-0.49c1.07-0.21,2.11-0.51,3.09-0.89c0.99-0.38,1.92-0.85,2.8-1.41c0.86-0.55,1.66-1.12,2.39-1.72
		c0.74-0.6,1.41-1.22,2.01-1.87c0.64-0.68,1.27-1.49,1.88-2.43c0.61-0.94,1.2-2.01,1.79-3.22c0.59-1.23,1.14-2.43,1.66-3.6
		c0.52-1.18,0.99-2.34,1.42-3.49c0.42-1.09,0.87-2.36,1.36-3.8c0.5-1.44,1.04-3.07,1.64-4.87c0.04-0.11,0.1-0.22,0.18-0.3
		s0.18-0.16,0.29-0.2c2.79-1.12,5.38-2.47,7.74-4.02s4.51-3.34,6.42-5.34c1.67-1.73,4.03-4.57,6.55-7.9
		c2.52-3.34,5.19-7.17,7.48-10.88c0.06-0.1,0.16-0.18,0.27-0.22s0.23-0.04,0.34-0.01l7.95,2.57l7.95,2.57
		c0.29,0.09,0.51,0.3,0.63,0.55c0.12,0.25,0.14,0.56,0.03,0.84l-3.23,8.48l-3.23,8.48c-1.01,2.67,0.01,5.2,1.88,6.67
		C557.57,423.25,560.28,423.65,562.64,422.06L562.64,422.06L562.64,422.06z M551.91,352.15l4.34,7.87l4.34,7.87
		c0.12,0.21,0.12,0.45,0.04,0.65c-0.08,0.2-0.25,0.37-0.48,0.44l-13.42,4.02l-13.42,4.02c-1.23,0.37-2.27,1.12-3.01,2.09
		s-1.18,2.17-1.2,3.44c0,1.29,0.41,2.5,1.13,3.5c0.72,0.99,1.74,1.76,2.97,2.15l1.95,0.64l1.95,0.64c0.12,0.04,0.21,0.13,0.24,0.24
		s0.03,0.23-0.04,0.34c-1.88,2.84-3.93,5.73-5.77,8.22c-1.84,2.49-3.47,4.57-4.52,5.78c-1.31,1.53-2.76,2.89-4.35,4.07
		s-3.33,2.18-5.21,3c-0.1,0.04-0.2,0.02-0.28-0.05c-0.07-0.06-0.11-0.17-0.08-0.27c2.39-8.64,4.63-16.71,6.73-24.23
		c2.1-7.52,4.04-14.49,5.84-20.91c-0.31-0.92-1.16-1.67-2.55-2.26c-1.38-0.59-3.31-1.03-5.76-1.32c-2.46-0.27-4.51-0.28-6.13-0.02
		c-1.63,0.26-2.84,0.78-3.62,1.58c-0.99,3.8-2.06,7.61-3.2,11.43c-1.15,3.82-2.37,7.65-3.7,11.49c-0.62,1.89-1.38,3.72-2.28,5.5
		c-0.9,1.78-1.93,3.5-3.1,5.18c-1.19,1.66-2.33,2.95-3.43,3.88c-1.1,0.93-2.15,1.5-3.16,1.69c-0.8,0.16-1.4,0.04-1.81-0.35
		s-0.62-1.04-0.64-1.95c-0.02-0.94,0.07-1.97,0.26-3.09c0.19-1.13,0.48-2.34,0.87-3.65c1.54-6.23,2.94-11.72,4.18-16.44
		c1.25-4.72,2.35-8.69,3.31-11.89c-0.31-0.92-1.18-1.67-2.59-2.25c-1.41-0.58-3.36-0.99-5.84-1.22c-2.52-0.23-4.54-0.22-6.11,0.03
		c-1.56,0.26-2.65,0.76-3.3,1.52c-1.26,3.95-2.5,7.99-3.72,12.1c-1.22,4.12-2.42,8.32-3.59,12.6c-0.13,0.46-0.28,0.92-0.47,1.36
		c-0.19,0.44-0.4,0.87-0.65,1.28c-1.25,2.02-2.55,3.79-3.93,5.28c-1.37,1.5-2.82,2.73-4.34,3.68c-1.77,1.11-3.46,1.95-5.08,2.52
		c-1.61,0.57-3.15,0.87-4.64,0.91c-1.76,0.08-2.91-0.39-3.52-1.28c-0.61-0.89-0.68-2.19-0.27-3.79c0.43-1.79,1.31-3.87,2.63-6.23
		s3.1-5,5.32-7.92c0.7-0.95,1.25-1.88,1.63-2.79c0.39-0.91,0.61-1.79,0.67-2.67c0.06-0.86-0.06-1.72-0.35-2.59
		c-0.29-0.87-0.75-1.73-1.37-2.59c-0.62-0.84-1.26-1.62-1.9-2.34c-0.64-0.72-1.28-1.38-1.93-1.99c-0.62-0.58-1.39-1.25-2.31-1.99
		c-0.91-0.75-1.97-1.57-3.15-2.49c-1.1-0.86-2.07-1.62-2.89-2.29c-0.82-0.67-1.5-1.23-2.02-1.7c-0.06-0.06-0.11-0.13-0.13-0.21
		c-0.02-0.08-0.02-0.16,0-0.25c0.24-0.98,0.4-1.89,0.47-2.75c0.07-0.86,0.04-1.67-0.07-2.43c-0.23-1.64-0.8-2.88-1.7-3.75
		s-2.13-1.34-3.69-1.44c-1.58-0.1-3.02,0.17-4.34,0.79c-1.32,0.63-2.51,1.62-3.58,2.99c-1.61,1.9-2.4,3.99-2.37,6.28
		c0.03,2.29,0.89,4.77,2.57,7.47c0.05,0.08,0.08,0.16,0.09,0.25c0.01,0.09,0.01,0.18-0.02,0.26c-0.98,3.34-2.29,6.93-3.94,10.75
		s-3.64,7.88-5.97,12.17c-1.25,2.05-2.56,3.84-3.95,5.36c-1.39,1.52-2.85,2.77-4.39,3.72c-1.77,1.11-3.47,1.95-5.1,2.52
		c-1.62,0.57-3.17,0.87-4.66,0.91c-0.86,0.04-1.58-0.05-2.16-0.26s-1.02-0.56-1.31-1.02c-0.29-0.49-0.47-1.04-0.52-1.67
		c-0.05-0.63,0.01-1.33,0.21-2.11c0.45-1.79,1.33-3.87,2.65-6.23c1.33-2.36,3.1-5,5.34-7.92c0.7-0.95,1.25-1.88,1.63-2.79
		c0.39-0.91,0.61-1.79,0.67-2.67c0.12-1.79-0.65-3.58-1.76-5.22s-2.55-3.12-3.78-4.29c-0.64-0.58-1.41-1.25-2.32-1.99
		c-0.91-0.75-1.95-1.57-3.14-2.49c-1.19-0.92-2.21-1.72-3.07-2.42s-1.54-1.28-2.04-1.75c0.27-1.03,0.45-2,0.53-2.9
		c0.08-0.91,0.06-1.75-0.06-2.55c-0.23-1.64-0.8-2.88-1.7-3.75c-0.9-0.86-2.13-1.34-3.69-1.44c-1.58-0.1-3.02,0.17-4.34,0.79
		c-1.32,0.63-2.51,1.62-3.58,2.99c-1.64,1.93-2.43,4.05-2.37,6.38c0.06,2.33,0.97,4.86,2.72,7.61c-1.23,4.29-3.4,10.38-6.25,16.15
		c-2.85,5.77-6.37,11.23-10.29,14.25c-2.5,1.89-4.96,3.32-7.59,4.26s-5.42,1.37-8.56,1.28c-4.41-0.08-7.78-0.88-10.12-2.4
		c-2.34-1.52-3.65-3.76-3.92-6.72c3.34,0.51,6.48,0.64,9.42,0.41c2.94-0.23,5.68-0.82,8.22-1.78c2.57-0.97,4.75-2.22,6.54-3.75
		c1.79-1.53,3.19-3.34,4.23-5.45c3.41-5.75,2.51-10.93-0.75-14.71c-3.25-3.78-8.85-6.16-14.82-6.29c-4.31-0.08-8.3,0.51-11.96,1.74
		c-3.66,1.24-6.98,3.13-9.97,5.66c-3,2.55-5.34,5.49-7.04,8.83c-1.69,3.33-2.74,7.05-3.15,11.16c-0.31,3.43,0.01,6.59,0.96,9.45
		c0.95,2.87,2.53,5.45,4.73,7.73c2.22,2.32,5.1,4.05,8.63,5.22c3.53,1.16,7.71,1.76,12.55,1.8c3.76,0.04,7.3-0.37,10.62-1.23
		c3.31-0.86,6.39-2.16,9.24-3.92c6.07-3.76,11.22-10.15,15.31-17.22c4.09-7.07,7.12-14.81,8.96-21.28c1.23,1.01,2.63,2.38,3.44,3.9
		s1.02,3.21-0.13,4.87c-1.07,1.73-1.99,3.22-2.75,4.47c-0.76,1.25-1.35,2.25-1.78,3.01c-0.43,0.76-0.91,1.7-1.43,2.83
		c-0.52,1.13-1.09,2.43-1.69,3.91c-0.62,1.5-1.08,2.91-1.38,4.23c-0.3,1.32-0.45,2.53-0.45,3.64c-0.04,2.01,0.41,4.33,1.21,6.42
		c0.8,2.09,1.95,3.96,3.32,5.08c0.18,0.14,0.37,0.28,0.56,0.42c0.19,0.14,0.39,0.27,0.59,0.4c0.08,0.05,0.1,0.12,0.06,0.18
		s-0.11,0.11-0.23,0.11c-0.95,0.03-2.13,0.08-3.2,0.3s-2.05,0.6-2.59,1.28c-0.36,0.99-1.23,3.63-2.59,7.9s-3.23,10.17-5.61,17.7
		c-0.08,0.25-0.24,0.47-0.44,0.62c-0.2,0.15-0.45,0.24-0.72,0.24l-1.59,0l-1.59,0c-0.62,0.12-1.16,0.58-1.61,1.4
		c-0.45,0.82-0.82,1.99-1.12,3.51c-0.27,1.52-0.33,2.75-0.17,3.67s0.54,1.55,1.15,1.86l0.97,0l0.97,0c0.25,0,0.47,0.12,0.61,0.3
		c0.14,0.18,0.2,0.42,0.14,0.66c-0.49,2.04-0.94,3.94-1.35,5.71c-0.4,1.77-0.76,3.42-1.07,4.93c-0.23,1.11-0.44,2.26-0.62,3.43
		s-0.35,2.37-0.51,3.58c-0.04,0.04-0.09,0.07-0.13,0.1c-0.04,0.03-0.08,0.06-0.1,0.1c-1.74,3.47-3.69,6.19-5.87,8.17
		c-2.18,1.98-4.59,3.22-7.24,3.73c-0.4,0.08-0.78-0.06-1.04-0.31c-0.26-0.25-0.41-0.63-0.36-1.03c0.64-5.05,0.12-10.36-0.9-15.61
		s-2.55-10.45-3.93-15.26c-0.02-0.06-0.02-0.11-0.01-0.17c0.01-0.06,0.03-0.11,0.06-0.16c0.92-1.39,1.54-2.69,1.86-3.92
		c0.32-1.22,0.35-2.36,0.06-3.41c-0.49-1.36-1.38-2.41-2.66-3.11c-1.29-0.7-2.97-1.06-5.06-1.06c-2.69,0-5.25,0.54-7.65,1.59
		c-2.4,1.06-4.66,2.64-6.74,4.72c-3.26,3.25-6.45,7.04-9.57,11.37s-6.19,9.19-9.19,14.58l0,0l0,0c-0.04,0.08-0.08,0.15-0.11,0.21
		c-0.03,0.06-0.06,0.12-0.08,0.18c-1.09,1.97-2,3.63-3.09,5.21c-1.09,1.58-2.36,3.07-4.17,4.69c-1.54,1.38-2.96,2.41-4.28,3.07
		c-1.32,0.67-2.53,0.98-3.64,0.94c-1.89,0-1.98-2.96-1.51-6.21c0.47-3.24,1.49-6.77,1.82-7.9c0.41-1.44,0.91-3.12,1.48-5.03
		s1.23-4.07,1.95-6.46c0.7-2.31,1.35-4.45,1.94-6.4s1.13-3.72,1.59-5.31c0.03-0.11,0.04-0.22,0.03-0.33
		c-0.01-0.11-0.05-0.22-0.12-0.31c-0.31-0.46-0.74-0.87-1.29-1.24c-0.55-0.37-1.23-0.69-2.02-0.96c-0.07-0.02-0.1-0.09-0.1-0.14
		c0-0.06,0.04-0.11,0.12-0.12c1.14-0.19,2.19-0.49,3.15-0.92c0.97-0.43,1.85-0.98,2.66-1.64c1.07-0.94,1.94-2,2.6-3.18
		c0.66-1.18,1.11-2.49,1.34-3.91c0.25-1.36,0.24-2.63-0.02-3.79c-0.27-1.16-0.79-2.21-1.58-3.15c-0.62-0.78-1.38-1.39-2.27-1.85
		c-0.89-0.46-1.92-0.77-3.07-0.93c-0.14-0.02-0.23-0.12-0.26-0.23c-0.03-0.11,0.01-0.23,0.13-0.31c1.8-1.1,3.8-3.1,5.09-5.3
		c1.29-2.2,1.88-4.6,0.86-6.5c-1.85-0.95-3.12-4.04-3.84-7.37c-0.72-3.33-0.88-6.91-0.53-8.84c0.94-5.75,2.49-11.21,4.17-16.63
		c1.68-5.42,3.5-10.8,4.96-16.37c1.06-4.24,3.32-10.52,4.16-16.51s0.27-11.68-4.32-14.74c-0.11-0.08-0.14-0.2-0.11-0.31
		c0.04-0.11,0.13-0.2,0.27-0.2l134.97,0l134.97,0c0.18,0,0.33,0.08,0.43,0.2c0.1,0.12,0.15,0.29,0.12,0.46l-1.67,8.51l-1.67,8.51
		c-0.06,0.3-0.25,0.53-0.49,0.65c-0.24,0.12-0.54,0.14-0.81,0.01l-7.75-3.61l-7.75-3.61c-1.15-0.55-2.41-0.68-3.59-0.45
		c-1.18,0.23-2.3,0.82-3.15,1.74c-0.88,0.94-1.4,2.09-1.56,3.3C551.07,349.79,551.29,351.04,551.91,352.15L551.91,352.15
		L551.91,352.15z M547.04,292.41c0-5.73,2.34-10.92,6.11-14.68c3.77-3.76,8.98-6.09,14.72-6.09c5.73,0,10.93,2.33,14.7,6.09
		c3.76,3.76,6.1,8.95,6.1,14.68c0,1.66-0.2,3.27-0.59,4.83c-0.38,1.55-0.94,3.04-1.64,4.45h-18.59h-18.59
		c-0.7-1.4-1.26-2.89-1.64-4.45C547.24,295.68,547.04,294.07,547.04,292.41L547.04,292.41L547.04,292.41z M268.7,244.52
		c7.92-3.3,14.59-7.41,19.99-12.3c5.4-4.9,9.55-10.58,12.41-17.04c0.07-0.15,0.19-0.25,0.34-0.3s0.3-0.02,0.44,0.07l3.72,2.54
		l3.72,2.54c0.19,0.13,0.28,0.34,0.27,0.54c-0.01,0.2-0.11,0.4-0.31,0.52l-1.04,0.61l-1.04,0.61l-5.57,3.09l-5.57,3.09
		c-0.23,0.13-0.38,0.34-0.45,0.57s-0.04,0.49,0.09,0.72l3.13,5.58l3.13,5.58c0.12,0.22,0.33,0.37,0.55,0.43
		c0.23,0.06,0.48,0.04,0.7-0.08l5.42-3.05l5.42-3.05l1.34-0.74l1.34-0.74c0.15-0.08,0.31-0.07,0.44,0s0.22,0.2,0.23,0.37l0.36,6.48
		l0.36,6.48c0.01,0.12,0.06,0.23,0.14,0.31c0.08,0.08,0.19,0.13,0.31,0.14l6.55,0.36l6.55,0.36c0.15,0.01,0.29,0.05,0.41,0.12
		c0.12,0.07,0.23,0.18,0.31,0.3l2.68,4.32l2.68,4.32c0.18,0.28,0.22,0.61,0.16,0.91c-0.07,0.3-0.25,0.58-0.52,0.77
		c-2,1.37-3.88,2.9-5.62,4.59c-1.74,1.69-3.32,3.53-4.74,5.5c-0.25,0.35-0.63,0.53-1.01,0.52c-0.38,0-0.76-0.18-1.01-0.53
		c-3.65-5.14-8.49-9.38-14.1-12.35c-5.62-2.96-12.01-4.64-18.79-4.64c-7.1,0-13.78,1.84-19.58,5.07c-5.8,3.23-10.73,7.85-14.32,13.4
		c-2.63-4.05-5.96-7.6-9.83-10.48c-3.87-2.87-8.27-5.07-13.04-6.42c-0.23-0.06-0.33-0.26-0.31-0.45c0.02-0.19,0.15-0.36,0.38-0.39
		c6.4-0.82,12.4-1.92,17.95-3.3C258.92,248.13,264.04,246.47,268.7,244.52L268.7,244.52L268.7,244.52z M203.47,292.41
		c0-5.73,2.33-10.92,6.1-14.68c3.77-3.76,8.98-6.09,14.73-6.09c5.73,0,10.92,2.33,14.68,6.09c3.75,3.76,6.08,8.95,6.08,14.68
		c0,1.66-0.2,3.27-0.57,4.83c-0.37,1.55-0.92,3.04-1.62,4.45h-18.59h-18.59c-0.7-1.4-1.26-2.89-1.64-4.45
		C203.67,295.68,203.47,294.07,203.47,292.41L203.47,292.41L203.47,292.41z M135.67,292.41c0-5.73,2.33-10.92,6.1-14.68
		c3.76-3.76,8.96-6.09,14.7-6.09c5.73,0,10.93,2.33,14.7,6.09c3.76,3.76,6.1,8.95,6.1,14.68c0,1.66-0.2,3.27-0.57,4.83
		c-0.37,1.55-0.92,3.04-1.62,4.45h-18.59h-18.59c-0.7-1.4-1.26-2.89-1.64-4.45C135.87,295.68,135.67,294.07,135.67,292.41
		L135.67,292.41L135.67,292.41z M134.22,451.16c2.79,0.53,5.42,0.77,7.91,0.74c2.49-0.03,4.83-0.35,7.03-0.93
		c4.1-1.05,7.97-3.02,11.02-5.81c3.05-2.79,5.27-6.39,6.07-10.72c0.38-2.18,0.43-4.21,0.15-6.1c-0.28-1.89-0.88-3.64-1.79-5.23
		c-0.02-0.04-0.02-0.08,0-0.11c0.02-0.03,0.06-0.05,0.11-0.04c2.23,0.43,4.28-0.45,5.57-1.98s1.81-3.7,0.99-5.87l-3.3-8.67
		l-3.3-8.67c-0.07-0.19-0.06-0.39,0.02-0.56s0.23-0.31,0.42-0.37l14.78-4.91l14.78-4.91c1.27-0.41,2.31-1.22,3.02-2.26
		c0.71-1.04,1.08-2.3,1-3.63c-0.07-1.6-0.61-2.78-1.48-3.65c-0.86-0.87-2.04-1.44-3.39-1.81c-0.13-0.04-0.2-0.08-0.21-0.12
		c-0.01-0.04,0.05-0.06,0.18-0.07c0.52,0,1.05-0.02,1.59-0.06c0.54-0.04,1.08-0.1,1.63-0.18c1.46-0.19,2.74-1.84,3.42-3.63
		c0.68-1.79,0.76-3.73-0.18-4.51c-2.73-1.07-3.77-3.35-3.59-5.68s1.6-4.71,3.78-5.97c1.91-1.11,3.94-1.69,6.02-2.2
		c2.08-0.52,4.2-0.97,6.31-1.85c0.85-0.32,1.63-0.68,2.35-1.08s1.38-0.84,1.97-1.31c0.21-0.17,0.45-0.15,0.63-0.03
		s0.28,0.34,0.2,0.59c-1.75,5.5-3.33,10.48-4.73,14.96c-1.4,4.48-2.63,8.45-3.66,11.93c-2.63,8.94-4.75,16.15-6.37,21.61
		c-1.62,5.46-2.73,9.18-3.35,11.13c-0.15,0.47-0.18,0.98-0.08,1.45c0.1,0.47,0.32,0.91,0.67,1.26c0.71,0.71,1.73,1.26,3.05,1.65
		s2.96,0.64,4.91,0.73c2.19,0.1,4.09,0.02,5.68-0.25s2.88-0.72,3.84-1.36c0.24-0.16,0.44-0.36,0.61-0.59s0.28-0.49,0.36-0.77
		c0.21-0.77,0.59-2.14,1.13-4.11s1.25-4.52,2.11-7.66c1.17-4.15,2.32-8.07,3.45-11.75c1.13-3.69,2.24-7.15,3.34-10.38
		c1.4-3.76,3.1-7.56,5.1-11.38s4.29-7.67,6.88-11.53c2.59-3.88,4.99-6.75,7.19-8.63c2.19-1.88,4.18-2.75,5.96-2.64
		c0.66,0.04,1.18,0.31,1.54,0.82c0.36,0.51,0.57,1.26,0.6,2.26c0.04,1.01-0.23,2.75-0.81,5.2c-0.58,2.45-1.47,5.62-2.66,9.49
		c-1.31,4.19-2.67,8.64-4.09,13.35c-1.42,4.71-2.89,9.66-4.41,14.87c-1.52,5.2-2.82,9.56-3.88,13.08c-1.06,3.52-1.89,6.21-2.48,8.08
		c0.12,0.84,0.58,1.54,1.37,2.11c0.79,0.57,1.91,1.01,3.35,1.32c1.44,0.31,2.91,0.5,4.38,0.55c1.48,0.05,2.97-0.02,4.47-0.24
		s2.73-0.5,3.68-0.84c0.95-0.35,1.62-0.75,2.01-1.22c1.17-2.69,2.31-6.65,3.38-10.7c1.07-4.04,2.08-8.16,2.97-11.16
		c1.05-3.53,2.22-7.27,3.5-11.22c1.28-3.95,2.66-8.11,4.14-12.47c1.17-2.98,2.57-5.81,4.22-8.49c1.65-2.68,3.54-5.21,5.69-7.61
		c2.13-2.4,4.11-4.19,5.94-5.38c1.84-1.19,3.54-1.79,5.1-1.79c0.57,0,1.03,0.09,1.41,0.26c0.38,0.18,0.66,0.44,0.85,0.79
		c0.76,1.36,0.03,4.8-1.01,8.27c-1.04,3.47-2.4,6.97-2.89,8.45c-2.05,6.64-4,13.06-5.63,19.56c-1.63,6.5-2.94,13.07-3.7,20.03
		c-0.37,3.08-0.42,7.77,0.28,12.26c0.7,4.48,2.16,8.75,4.79,10.97c0.75,0.64,1.52,1.2,2.34,1.66s1.67,0.83,2.6,1.08
		c0.19,0.05,0.3,0.21,0.32,0.37s-0.06,0.34-0.23,0.44c-0.33,0.18-0.66,0.38-0.97,0.6c-0.31,0.22-0.61,0.46-0.9,0.72
		c-1.09,0.94-1.99,2-2.69,3.19c-0.7,1.19-1.21,2.52-1.52,3.98c-0.27,1.31-0.27,2.54,0,3.7c0.27,1.15,0.8,2.23,1.6,3.2
		c0.25,0.3,0.52,0.58,0.79,0.83s0.55,0.48,0.84,0.69c0.07,0.05,0.07,0.11,0.03,0.16s-0.12,0.08-0.21,0.08
		c-1.68-0.09-3.1-0.04-4.27,0.15s-2.09,0.5-2.77,0.94c-0.14,0.09-0.26,0.22-0.35,0.36c-0.09,0.14-0.16,0.3-0.21,0.46
		c-1.51,5.22-2.86,9.95-4.06,14.2s-2.24,8.02-3.13,11.32c-1.37,2.44-2.82,4.53-4.35,6.28c-1.54,1.75-3.15,3.17-4.85,4.24
		c-1.77,1.11-3.46,1.96-5.08,2.54s-3.15,0.89-4.64,0.93c-1.74,0.08-2.9-0.42-3.52-1.33c-0.62-0.91-0.7-2.24-0.27-3.81
		c0.43-1.77,1.31-3.84,2.63-6.19c1.33-2.35,3.1-4.99,5.32-7.92c0.7-0.94,1.25-1.86,1.63-2.77c0.39-0.91,0.61-1.81,0.67-2.68
		c0.06-0.88-0.06-1.74-0.35-2.6c-0.29-0.86-0.75-1.7-1.37-2.54c-2.06-2.84-4.3-4.85-6.63-6.7c-2.33-1.85-4.74-3.54-7.14-5.73
		c-0.19-0.18-0.33-0.4-0.4-0.65c-0.07-0.25-0.08-0.51-0.02-0.77c0.19-0.85,0.31-1.67,0.35-2.45c0.04-0.77,0.02-1.5-0.09-2.18
		c-0.23-1.62-0.8-2.85-1.7-3.71c-0.9-0.86-2.13-1.33-3.69-1.43c-1.58-0.1-3.02,0.17-4.34,0.78c-1.32,0.62-2.51,1.59-3.58,2.92
		c-1.59,1.87-2.38,3.94-2.37,6.2c0.01,2.26,0.81,4.7,2.42,7.3c0.09,0.15,0.16,0.32,0.19,0.5c0.03,0.17,0.02,0.35-0.03,0.53
		c-1.27,4.28-3.48,10.23-6.2,15.97c-2.72,5.74-5.94,11.29-9.21,14.78c-1.37,1.44-2.61,2.54-3.76,3.29s-2.19,1.15-3.15,1.19
		c-0.47,0.04-0.87-0.01-1.2-0.14s-0.61-0.35-0.82-0.64c-0.47-0.72-0.57-1.95-0.5-3.2c0.06-1.25,0.29-2.51,0.46-3.31
		c0.62-3.08,1.68-6.04,2.76-8.98c1.09-2.94,2.21-5.85,2.97-8.83c0.86-2.32,1.29-4.42,1.3-6.32c0.01-1.89-0.4-3.58-1.22-5.06
		c-0.82-1.46-2.05-2.55-3.7-3.28c-1.65-0.73-3.73-1.09-6.25-1.09c-2.51,0-5.22,0.59-8.12,1.78s-5.98,2.97-9.24,5.35
		c-0.16,0.11-0.34,0.1-0.48,0.01c-0.13-0.09-0.22-0.25-0.17-0.44c1.5-5.76,3.09-11.44,4.75-17.02c1.66-5.58,3.39-11.06,5.18-16.42
		c0.04-0.58-0.26-1.13-0.91-1.63s-1.63-0.96-2.96-1.37s-2.67-0.71-4.04-0.91c-1.37-0.19-2.75-0.28-4.15-0.26
		c-1.42,0.02-2.7,0.14-3.84,0.36c-1.14,0.22-2.13,0.54-2.99,0.97c-2.95,9.62-5.79,19.14-8.54,28.54s-5.39,18.68-7.92,27.84
		c-3.49,6.23-10.04,11.06-17.22,13.21c-7.18,2.15-15,1.62-21.05-2.84c-2.32-1.71-4.11-4.09-5.35-7.13s-1.95-6.73-2.1-11.07
		c-0.11-3.15,0.1-6.28,0.64-9.39s1.41-6.19,2.61-9.25c0.11-0.27,0.32-0.45,0.58-0.53c0.25-0.08,0.54-0.05,0.78,0.11
		c2.43,1.56,4.9,2.84,7.42,3.86C129.06,449.92,131.62,450.67,134.22,451.16L134.22,451.16L134.22,451.16z M139.19,413.86l1.95-2.03
		l1.95-2.03c0.17-0.17,0.38-0.27,0.61-0.3c0.22-0.02,0.46,0.03,0.66,0.17l3.35,2.28l3.35,2.28c0.07,0.05,0.08,0.12,0.06,0.18
		c-0.02,0.06-0.08,0.1-0.16,0.09c-1.89-0.34-3.86-0.55-5.82-0.62s-3.94-0.02-5.83,0.15c-0.04,0-0.07-0.03-0.08-0.07
		C139.19,413.89,139.19,413.86,139.19,413.86z M143.04,424.94c0.9,0.04,1.71,0.19,2.43,0.46c0.72,0.27,1.36,0.65,1.9,1.13
		c1.77,1.64,1.76,3.93,0.86,6.05c-0.9,2.12-2.67,4.08-4.41,5.06c-1.44,0.78-3.01,1.32-4.7,1.6c-1.68,0.29-3.48,0.33-5.37,0.11
		c-1.69-0.19-3.31-0.54-4.88-1.04c-1.57-0.51-3.08-1.17-4.54-2c-0.31-0.18-0.5-0.48-0.56-0.8s0.02-0.68,0.24-0.96
		c2.72-3.36,5.67-5.83,8.84-7.44C136.03,425.51,139.42,424.79,143.04,424.94L143.04,424.94L143.04,424.94z M177.25,536.46
		c0,5.73-2.33,10.91-6.1,14.66c-3.76,3.75-8.96,6.07-14.7,6.07c-5.73,0-10.93-2.32-14.7-6.07c-3.76-3.75-6.1-8.93-6.1-14.66
		c0-1.66,0.2-3.27,0.59-4.83s0.94-3.04,1.64-4.45h18.59h18.59c0.7,1.4,1.25,2.89,1.62,4.45
		C177.06,533.19,177.25,534.81,177.25,536.46L177.25,536.46L177.25,536.46z M331.49,580.49l-6.19,0.34l-6.19,0.34
		c-0.28,0.02-0.54,0.14-0.73,0.32s-0.31,0.44-0.32,0.73l-0.35,6.29l-0.35,6.29c-0.01,0.12-0.08,0.22-0.17,0.27
		c-0.09,0.05-0.21,0.06-0.32,0l-6.84-3.84l-6.84-3.84c-0.22-0.12-0.47-0.15-0.7-0.08s-0.43,0.21-0.55,0.43l-3.21,5.71l-3.21,5.71
		c-0.09,0.16-0.1,0.33-0.06,0.49c0.04,0.16,0.15,0.3,0.31,0.39l6.71,3.77l6.71,3.77c0.21,0.12,0.33,0.33,0.34,0.55
		s-0.08,0.43-0.29,0.57l-3.36,2.3l-3.36,2.3c-0.21,0.14-0.45,0.17-0.66,0.11c-0.22-0.06-0.41-0.21-0.51-0.44
		c-4.63-9.77-13.02-18.01-23.54-24.5c-10.52-6.49-23.17-11.24-36.31-14.05c-0.37-0.08-0.58-0.36-0.62-0.67
		c-0.04-0.3,0.1-0.63,0.44-0.79c3.24-1.51,6.24-3.44,8.94-5.71c2.7-2.27,5.1-4.88,7.14-7.77c0.2-0.28,0.5-0.42,0.81-0.42
		c0.3,0,0.61,0.14,0.8,0.43c3.64,5.2,8.5,9.51,14.15,12.52c5.65,3.01,12.11,4.72,18.95,4.72c6.82,0,13.25-1.7,18.89-4.69
		c5.64-2.99,10.49-7.28,14.13-12.45c0.22-0.31,0.55-0.46,0.88-0.46c0.33,0,0.66,0.15,0.88,0.46c1.42,1.99,3.01,3.86,4.76,5.57
		c1.75,1.71,3.64,3.26,5.67,4.63c0.28,0.19,0.47,0.47,0.53,0.78c0.07,0.31,0.02,0.64-0.16,0.93l-2.61,4.2l-2.61,4.2
		c-0.11,0.17-0.25,0.31-0.42,0.41S331.69,580.48,331.49,580.49z M343.19,647.24c1.31,1.13,2.75,2.15,4.29,3
		c1.53,0.86,3.15,1.56,4.81,2.06c0.21,0.06,0.39,0.19,0.52,0.36s0.2,0.37,0.2,0.59l0.05,4.61l0.05,4.61c0,0.21-0.05,0.41-0.15,0.58
		s-0.25,0.32-0.43,0.42l-8.67,4.86l-8.67,4.86c-0.27,0.15-0.57,0.13-0.81,0c-0.24-0.13-0.41-0.38-0.42-0.69l-0.35-9.83l-0.35-9.83
		c-0.01-0.27,0.06-0.54,0.18-0.77c0.13-0.23,0.31-0.43,0.55-0.56l3.78-2.22l3.78-2.22c0.26-0.16,0.56-0.21,0.85-0.18
		C342.68,646.92,342.96,647.04,343.19,647.24z M332.68,603.27l0.11-10.16l0.11-10.16c0-0.13,0.07-0.24,0.17-0.3s0.23-0.07,0.34-0.01
		l9.18,4.87l9.18,4.87c0.14,0.07,0.25,0.18,0.33,0.31c0.08,0.13,0.12,0.28,0.13,0.44l0.05,4.69l0.05,4.69c0,0.23-0.07,0.45-0.2,0.63
		s-0.31,0.32-0.54,0.4c-1.61,0.56-3.18,1.29-4.67,2.17c-1.49,0.88-2.89,1.9-4.15,3.04c-0.19,0.17-0.42,0.27-0.65,0.3
		s-0.48-0.02-0.7-0.14l-4.09-2.34l-4.09-2.34c-0.17-0.1-0.31-0.24-0.41-0.41S332.68,603.47,332.68,603.27z M334.94,622
		c-0.45,2.05-0.68,3.99-0.68,5.94c0,1.94,0.25,3.88,0.76,5.91l-4.64,2.75l-4.64,2.75l-9.36-5.55l-9.36-5.55l9.23-5.77l9.23-5.77
		l4.74,2.65L334.94,622z M520.86,536.46c0,5.73-2.34,10.91-6.11,14.66c-3.77,3.75-8.98,6.07-14.72,6.07
		c-5.73,0-10.93-2.32-14.7-6.07c-3.76-3.75-6.1-8.93-6.1-14.66c0-1.66,0.2-3.27,0.59-4.83s0.94-3.04,1.64-4.45h18.59h18.59
		c0.7,1.4,1.26,2.89,1.64,4.45C520.66,533.19,520.86,534.81,520.86,536.46L520.86,536.46L520.86,536.46z M588.66,536.46
		c0,5.73-2.33,10.91-6.1,14.66c-3.76,3.75-8.96,6.07-14.7,6.07c-5.73,0-10.94-2.32-14.72-6.07c-3.77-3.75-6.11-8.93-6.11-14.66
		c0-1.66,0.2-3.27,0.59-4.83c0.38-1.55,0.94-3.04,1.64-4.45h18.59h18.59c0.7,1.4,1.26,2.89,1.64,4.45S588.66,534.81,588.66,536.46
		L588.66,536.46L588.66,536.46z M614.88,395.09l1.19,4.29l1.19,4.29c0.04,0.14-0.02,0.26-0.11,0.34c-0.09,0.08-0.23,0.1-0.35,0.03
		l-5.95-3.21l-5.95-3.21c-1.7-0.92-3.61-0.91-5.2-0.2c-1.59,0.71-2.87,2.11-3.3,3.98l-1.6,6.75l-1.6,6.75
		c-0.02,0.07-0.07,0.11-0.13,0.11s-0.12-0.03-0.14-0.1l-2.53-7.61l-2.53-7.61c-0.62-1.83-2.05-3.13-3.72-3.69
		c-1.67-0.56-3.58-0.38-5.18,0.73l-3.38,2.29l-3.38,2.29c-0.11,0.08-0.24,0.06-0.32-0.01c-0.09-0.07-0.13-0.19-0.08-0.31l1.05-2.73
		l1.05-2.73c0.27-0.76,0.4-1.56,0.37-2.35c-0.03-0.79-0.21-1.57-0.57-2.29c-0.35-0.72-0.84-1.35-1.43-1.87
		c-0.59-0.52-1.3-0.92-2.08-1.17l-6.66-2.15l-6.66-2.15c-0.32-0.1-0.48-0.38-0.48-0.66c0-0.28,0.17-0.55,0.49-0.65l7.25-2.18
		l7.25-2.18c0.86-0.25,1.63-0.69,2.27-1.27c0.64-0.58,1.15-1.3,1.48-2.12c0.35-0.82,0.5-1.7,0.45-2.56s-0.29-1.71-0.72-2.47
		l-1.77-3.23l-1.77-3.23c-0.07-0.13-0.04-0.26,0.04-0.34c0.08-0.09,0.21-0.13,0.34-0.07l3.12,1.46l3.12,1.46
		c1.72,0.8,3.59,0.68,5.13-0.1c1.54-0.78,2.74-2.24,3.11-4.11l1.95-9.92l1.95-9.92c0.06-0.3,0.3-0.45,0.54-0.46s0.49,0.13,0.57,0.42
		l2.89,10.19l2.89,10.19c0.51,1.73,1.73,3.05,3.22,3.74c1.5,0.69,3.27,0.76,4.89,0l6.27-2.9l6.27-2.9c0.13-0.06,0.26-0.03,0.34,0.05
		c0.09,0.08,0.14,0.2,0.1,0.33c-0.35,1.16-1.18,3.35-1.99,5.45c-0.82,2.1-1.62,4.11-1.94,4.92c-0.47,1.13-0.56,2.35-0.3,3.49
		c0.25,1.14,0.85,2.2,1.75,3.02l3.38,3.09l3.38,3.09c0.1,0.09,0.15,0.21,0.15,0.34s-0.05,0.25-0.15,0.34l-2.9,2.69l-2.9,2.69
		c-0.8,0.74-1.37,1.68-1.66,2.69C614.6,392.95,614.58,394.04,614.88,395.09L614.88,395.09L614.88,395.09z M99.85,379.18l0.92,1.02
		l0.92,1.02c0.14,0.15,0.22,0.34,0.23,0.53c0.02,0.19-0.02,0.39-0.13,0.57l-2.14,3.56l-2.14,3.56c-0.09,0.15-0.26,0.19-0.4,0.14
		s-0.25-0.18-0.23-0.36c0.19-1.89,0.41-3.76,0.65-5.62c0.24-1.87,0.49-3.73,0.77-5.58c0.01-0.07,0.13-0.08,0.24-0.06
		c0.11,0.02,0.22,0.05,0.22,0.05l0.54,0.6L99.85,379.18z M113.78,377.05l-5.88-6.44l-5.88-6.44c-0.13-0.14-0.14-0.33-0.06-0.48
		c0.08-0.14,0.23-0.25,0.43-0.22l9.67,1.27l9.67,1.27c1.44,0.19,2.85-0.16,3.99-0.91s2.02-1.9,2.41-3.3l3.57-12.53l3.57-12.53
		c0.06-0.2,0.23-0.3,0.4-0.3c0.17,0,0.34,0.1,0.4,0.3l2.67,9.28l2.67,9.28c0.23,0.86,0.66,1.63,1.23,2.27
		c0.57,0.64,1.28,1.16,2.08,1.51c0.82,0.35,1.69,0.51,2.55,0.47c0.86-0.03,1.71-0.26,2.49-0.67l10.84-5.68l10.84-5.68
		c0.14-0.07,0.28-0.03,0.36,0.07c0.08,0.1,0.11,0.24,0.01,0.37l-8.36,11.33l-8.36,11.33c-0.59,0.8-0.96,1.71-1.09,2.66
		c-0.14,0.95-0.04,1.93,0.31,2.87c0.35,0.94,0.93,1.74,1.65,2.37s1.6,1.08,2.56,1.29l5.9,1.32l5.9,1.32
		c0.07,0.02,0.11,0.08,0.12,0.14s-0.03,0.13-0.1,0.15l-7.72,2.54l-7.72,2.54c-1.58,0.53-2.78,1.67-3.44,3.06
		c-0.66,1.4-0.78,3.05-0.19,4.61l1.1,2.91l1.1,2.91c0.03,0.07,0,0.13-0.05,0.17c-0.05,0.04-0.12,0.05-0.18,0.01l-3.53-2.4l-3.53-2.4
		c-1.19-0.82-2.58-1.14-3.93-1c-1.34,0.14-2.63,0.73-3.6,1.74l-3.85,3.97l-3.85,3.97c-0.07,0.07-0.17,0.1-0.26,0.08
		c-0.09-0.02-0.17-0.08-0.21-0.17l-1.03-2.43l-1.03-2.43c-0.57-1.36-1.61-2.41-2.87-3.01c-1.26-0.6-2.73-0.76-4.15-0.35l-8.33,2.37
		l-8.33,2.37c-0.23,0.07-0.44-0.03-0.57-0.19s-0.16-0.39-0.03-0.6l5.15-8.52l5.15-8.52c0.66-1.11,0.93-2.38,0.8-3.6
		C115.17,379.19,114.66,378,113.78,377.05L113.78,377.05L113.78,377.05z M574.77,202.59c-21.4-21.34-45.43-39.11-71.37-53
		c-25.93-13.89-53.77-23.91-82.79-29.73c-0.45-0.09-0.83-0.33-1.1-0.66s-0.43-0.75-0.43-1.21V105.7V93.4c0-2.66-1.16-5.12-3.15-7.18
		c-1.98-2.05-4.79-3.69-8.09-4.7c-0.53-0.16-0.93-0.54-1.13-1.01c-0.2-0.46-0.2-1.01,0.07-1.49c2.11-3.81,3.76-7.91,4.88-12.22
		c1.12-4.31,1.72-8.83,1.72-13.5c0-7.35-1.48-14.36-4.17-20.74s-6.59-12.13-11.43-16.94c-4.86-4.81-10.62-8.72-17.01-11.42
		S367.35,0,359.98,0c-7.37,0-14.4,1.5-20.79,4.2c-6.39,2.7-12.16,6.61-17.01,11.42c-4.82,4.81-8.72,10.56-11.42,16.94
		s-4.19,13.4-4.19,20.74c0,4.72,0.61,9.3,1.77,13.67c1.15,4.36,2.85,8.5,5.03,12.35c0.23,0.41,0.24,0.87,0.09,1.26
		c-0.16,0.39-0.48,0.71-0.93,0.84c-3.41,0.97-6.32,2.62-8.38,4.69c-2.06,2.08-3.27,4.59-3.27,7.29v12.33v12.33
		c0,0.43-0.15,0.83-0.41,1.15s-0.62,0.54-1.05,0.63c-29.01,5.84-56.86,15.85-82.79,29.74c-25.94,13.89-49.97,31.66-71.36,53.01
		c-28.69,28.62-50.94,61.97-66.01,98.28s-22.97,75.58-22.97,116.04c0,40.49,7.9,79.76,22.97,116.06s37.32,69.64,66.01,98.26
		c28.67,28.62,62.08,50.81,98.45,65.85C280.1,712.12,319.45,720,360.02,720s79.91-7.88,116.29-22.92
		c36.37-15.04,69.78-37.23,98.47-65.85c28.67-28.62,50.91-61.96,65.98-98.26c15.07-36.3,22.97-75.57,22.97-116.06
		c0-40.47-7.9-79.74-22.97-116.04C625.68,264.56,603.45,231.21,574.77,202.59L574.77,202.59L574.77,202.59z"/>
</g>
</svg>
