<?xml version="1.0" encoding="utf-8"?>
<!-- Generator: Adobe Illustrator 24.3.0, SVG Export Plug-In . SVG Version: 6.00 Build 0)  -->
<svg version="1.1" id="Слой_1" xmlns="http://www.w3.org/2000/svg" xmlns:xlink="http://www.w3.org/1999/xlink" x="0px" y="0px"
	 viewBox="0 0 720 720" style="enable-background:new 0 0 720 720;" xml:space="preserve">
<style type="text/css">
	.st0{fill-rule:evenodd;clip-rule:evenodd;}
</style>
<g>
	<path class="st0" d="M315.78,129.86c1.39,2.91,1.92,4.94,2.08,7.06c0.16,2.12-0.05,4.35-0.12,7.66c-0.02,0.66-0.26,1.26-0.67,1.73
		s-0.97,0.8-1.62,0.9c-6.2,1-12.34,2.21-18.43,3.62c-6.09,1.41-12.12,3.03-18.08,4.85c-0.46,0.14-0.83-0.1-0.98-0.44
		s-0.09-0.78,0.31-1.03c7.14-4.59,13.79-9.18,19.64-13.4c5.85-4.22,10.9-8.08,14.86-11.19c0.36-0.28,1.04-0.37,1.67-0.31
		C315.07,129.36,315.64,129.57,315.78,129.86z M209.88,36.92c5.08-9.96,18.29-16.13,34.5-11.16s35.42,21.08,52.53,55.71
		c-38.65,1.67-62.75-4.87-76.01-14.13C207.63,58.07,205.2,46.1,209.88,36.92L209.88,36.92L209.88,36.92z M440.57,155.54
		c-5.95-1.8-11.97-3.4-18.04-4.8c-6.08-1.4-12.21-2.6-18.4-3.6c-0.11-0.02-0.21-0.08-0.28-0.16c-0.07-0.08-0.11-0.19-0.11-0.31
		c-0.02-3.65-0.32-6.4-0.2-9.03c0.12-2.62,0.66-5.12,2.32-8.24c0.08-0.14,0.21-0.24,0.35-0.27c0.14-0.03,0.3,0,0.43,0.1
		c3.76,2.99,8.8,6.9,14.78,11.28c5.98,4.37,12.9,9.22,20.41,14.08c0.68,0.44,0.82,0.81,0.56,1.01
		C442.12,155.79,441.47,155.81,440.57,155.54z M511.52,38.14c4.69,9.2,2.26,21.18-11,30.44s-37.35,15.8-75.99,14.1
		c17.11-34.61,36.32-50.71,52.53-55.68C493.26,22.03,506.46,28.2,511.52,38.14L511.52,38.14L511.52,38.14z M570.21,502.86
		l13.75-3.24l13.75-3.24c-2.25,8.77-4.97,17.38-8.14,25.82c-3.17,8.43-6.78,16.68-10.82,24.71l-4.27-22.02L570.21,502.86z
		 M309.6,678.19c1.6-0.05,3.2-0.11,4.79-0.17c1.59-0.06,3.18-0.14,4.76-0.23c0.29,0.52,0.65,1.01,1.07,1.45
		c0.42,0.44,0.9,0.84,1.42,1.18c-2.02-0.32-4.04-0.68-6.05-1.05C313.58,679,311.58,678.61,309.6,678.19L309.6,678.19L309.6,678.19z
		 M426.62,631.56c6.53,1.44,13.01,2.7,19.44,3.76s12.83,1.93,19.17,2.57c-1.66,0.7-3.33,1.42-5.02,2.16
		c-1.69,0.73-3.42,1.48-5.18,2.24l-0.11-0.11l-0.11-0.11c-0.68-0.7-1.52-1.26-2.44-1.64c-0.92-0.38-1.92-0.59-2.93-0.59
		c-1.03,0-2.02,0.21-2.92,0.59s-1.71,0.94-2.38,1.64c-0.68,0.63-1.24,1.44-1.63,2.35c-0.39,0.9-0.6,1.9-0.6,2.91v0.05v0.05
		c-2.2,0.81-4.46,1.61-6.76,2.4c-2.3,0.79-4.65,1.56-7.01,2.32c-0.11-0.16-0.22-0.32-0.34-0.47c-0.12-0.15-0.26-0.28-0.42-0.39
		c-0.65-0.7-1.45-1.26-2.35-1.64c-0.9-0.38-1.9-0.59-2.95-0.59c-1.06,0-2.05,0.21-2.94,0.59c-0.89,0.38-1.69,0.94-2.4,1.64
		c-0.65,0.63-1.18,1.4-1.55,2.26c-0.37,0.86-0.58,1.8-0.58,2.78c-2.92,0.81-5.86,1.61-8.82,2.4s-5.94,1.56-8.95,2.32
		c-0.16-0.22-0.32-0.43-0.49-0.63c-0.16-0.2-0.32-0.39-0.49-0.55c-0.7-0.63-1.51-1.16-2.39-1.53s-1.86-0.59-2.91-0.59
		c-1.06,0-2.05,0.22-2.95,0.59s-1.7,0.9-2.38,1.53c-0.54,0.59-1.01,1.23-1.38,1.93c-0.37,0.69-0.65,1.44-0.82,2.25
		c-2.67,0.61-5.4,1.15-8.18,1.66c-2.78,0.51-5.61,0.99-8.48,1.47c-0.22-0.27-0.41-0.54-0.61-0.8s-0.42-0.5-0.69-0.72
		c-0.63-0.7-1.43-1.27-2.33-1.66c-0.9-0.39-1.9-0.61-2.93-0.61c-1.01,0-2,0.22-2.92,0.61c-0.91,0.39-1.75,0.96-2.46,1.66
		c-0.47,0.49-0.87,1.05-1.19,1.67s-0.58,1.28-0.76,1.97c-3.21,0.43-6.48,0.81-9.78,1.16c-3.3,0.35-6.64,0.68-9.97,1
		c-0.16-0.49-0.41-0.95-0.69-1.38s-0.61-0.84-0.93-1.22c-0.7-0.68-1.54-1.24-2.46-1.63c-0.91-0.39-1.91-0.6-2.92-0.6
		c-1.03,0-2.03,0.22-2.93,0.6c-0.91,0.39-1.72,0.95-2.37,1.63c-0.54,0.49-0.97,1.03-1.31,1.62c-0.33,0.59-0.57,1.23-0.71,1.91
		c-4.74,0.27-9.53,0.46-14.36,0.56c-4.83,0.1-9.71,0.12-14.63,0.05c-9.21-2.81-18.24-6.18-27.05-10.08s-17.4-8.34-25.73-13.29
		c31.35,2.84,64.86,2.93,97.52,0.01S398.66,640.78,426.62,631.56L426.62,631.56L426.62,631.56z M210.75,603.79
		c2.83,13.43,4.86,15.99,8.03,12.49c3.17-3.5,7.48-13.06,14.87-23.87c4.2,20.06,5.33,28.53,8.33,27.75
		c3-0.78,7.88-10.81,19.58-27.75c7.99,21.28,10.45,31.93,13.56,32.24c3.11,0.31,6.86-9.73,17.4-29.83
		c8.63,19.7,11.56,29.14,14.42,28.69s5.63-10.79,13.96-30.67c9.05,13.72,13.74,24.6,17.1,27.93c3.36,3.33,5.38-0.9,9.07-17.42
		c3.75,1.85,7.5,3.55,11.26,5.2c3.76,1.66,7.53,3.28,11.31,4.99c1.5,2.65,2.53,3.7,3.23,3.78c0.69,0.08,1.05-0.81,1.17-2.05
		c5.39,2.09,10.82,4.07,16.27,5.93c5.45,1.86,10.91,3.61,16.35,5.23c-28.77,7.81-60.98,12.41-93.59,14.04
		c-32.61,1.62-65.63,0.26-96-3.84c-2.67-1.96-5.31-3.99-7.91-6.07c-2.6-2.08-5.17-4.21-7.7-6.39l4.65-10.19L210.75,603.79z
		 M129.49,492.85c-0.45,0.88-0.89,1.76-1.33,2.65c-0.44,0.88-0.88,1.76-1.33,2.65c-0.43,0.86-0.87,1.74-1.32,2.62
		c-0.44,0.88-0.88,1.76-1.32,2.64c-0.25-0.88-0.5-1.76-0.74-2.64c-0.24-0.88-0.49-1.75-0.74-2.62c-0.23-0.88-0.46-1.77-0.68-2.66
		c-0.22-0.89-0.44-1.78-0.65-2.66c0.67,0,1.34,0.01,2.02,0.02c0.68,0.01,1.35,0.02,2.02,0.02c0.68,0,1.36,0,2.04,0
		C128.13,492.85,128.81,492.85,129.49,492.85L129.49,492.85L129.49,492.85z M164.57,503.58c-0.47,0.79-0.94,1.59-1.41,2.39
		s-0.94,1.6-1.41,2.39s-0.94,1.59-1.41,2.39c-0.47,0.8-0.94,1.6-1.41,2.39c-1.86-0.05-3.71-0.11-5.57-0.16s-3.73-0.11-5.6-0.16
		c-1.86-0.05-3.71-0.11-5.57-0.17c-1.86-0.06-3.73-0.12-5.6-0.19c0.92-1.62,1.83-3.24,2.74-4.86c0.91-1.62,1.81-3.24,2.71-4.86
		c0.9-1.62,1.81-3.24,2.72-4.87c0.91-1.63,1.82-3.25,2.72-4.89c0.92,0.02,1.84,0.03,2.76,0.03s1.84,0,2.76,0
		c0.92,0.02,1.84,0.03,2.76,0.03c0.92,0,1.84,0,2.76,0c0.27,0.97,0.61,1.94,1.02,2.88c0.41,0.94,0.87,1.86,1.4,2.74
		c0.52,0.88,1.09,1.74,1.7,2.56C163.23,502.06,163.88,502.84,164.57,503.58L164.57,503.58L164.57,503.58z M158.51,477.97
		c-0.9,0-1.81,0-2.72,0s-1.82,0-2.72,0c-0.92,0-1.84,0-2.75,0c-0.91,0-1.83,0-2.73,0c-0.9-1.66-1.79-3.3-2.68-4.95
		c-0.89-1.65-1.77-3.29-2.65-4.95c-0.9-1.66-1.79-3.3-2.69-4.95c-0.89-1.65-1.78-3.29-2.69-4.95c1.87-0.04,3.75-0.06,5.62-0.09
		c1.87-0.03,3.75-0.05,5.62-0.09c1.87-0.04,3.75-0.06,5.62-0.09c1.87-0.03,3.75-0.05,5.62-0.09c0.45,0.79,0.9,1.58,1.35,2.37
		c0.45,0.79,0.9,1.57,1.35,2.35c0.45,0.79,0.9,1.58,1.35,2.38s0.9,1.58,1.35,2.38c-0.7,0.72-1.38,1.5-2.01,2.34
		c-0.64,0.83-1.23,1.71-1.77,2.63c-0.52,0.92-1,1.86-1.42,2.82C159.16,476.03,158.8,477,158.51,477.97L158.51,477.97L158.51,477.97z
		 M195.07,520.65c-0.97,1.58-1.96,3.18-2.94,4.77c-0.98,1.59-1.96,3.19-2.94,4.77c-0.99,1.58-1.97,3.17-2.95,4.75
		s-1.95,3.17-2.92,4.75c-0.96-1.58-1.91-3.16-2.86-4.74c-0.95-1.58-1.9-3.15-2.83-4.74c-0.96-1.57-1.9-3.14-2.85-4.72
		s-1.89-3.16-2.85-4.75c0.47-0.81,0.94-1.61,1.4-2.41c0.46-0.8,0.92-1.6,1.37-2.41c0.47-0.81,0.94-1.62,1.41-2.43
		s0.94-1.62,1.41-2.43c1.01,0.27,2.02,0.46,3.03,0.59c1.01,0.13,2.02,0.19,3.03,0.21c1.03,0,2.05-0.06,3.06-0.18s2.02-0.29,3.03-0.5
		c0.45,0.79,0.9,1.58,1.35,2.38s0.9,1.58,1.35,2.38c0.45,0.79,0.9,1.58,1.35,2.36C194.17,519.07,194.62,519.85,195.07,520.65
		L195.07,520.65L195.07,520.65z M190.02,459.97c-0.97-0.25-1.97-0.44-2.99-0.57c-1.01-0.13-2.04-0.19-3.07-0.19
		c-1.03,0-2.05,0.05-3.07,0.17c-1.01,0.11-2.01,0.28-2.99,0.52c-0.45-0.79-0.9-1.58-1.36-2.38c-0.46-0.79-0.91-1.58-1.38-2.38
		c-0.45-0.79-0.9-1.58-1.35-2.38s-0.9-1.58-1.35-2.38c0.99-1.58,1.97-3.17,2.96-4.75c0.98-1.58,1.96-3.17,2.96-4.75
		c0.97-1.58,1.96-3.17,2.94-4.75s1.98-3.17,2.97-4.75c0.94,1.58,1.88,3.17,2.83,4.75c0.95,1.58,1.89,3.16,2.83,4.72
		c0.96,1.58,1.91,3.17,2.86,4.75c0.95,1.58,1.9,3.16,2.83,4.72c-0.47,0.81-0.94,1.62-1.41,2.43c-0.47,0.81-0.94,1.61-1.41,2.4
		c-0.47,0.81-0.94,1.62-1.41,2.43C190.96,458.37,190.49,459.18,190.02,459.97L190.02,459.97L190.02,459.97z M221.49,277.43
		l-28.38,2.98l-28.38,2.98c-0.69,0.07-1.27-0.28-1.57-0.8c-0.3-0.52-0.32-1.19,0.09-1.75c3.49-4.74,7.14-9.37,10.97-13.88
		c3.82-4.51,7.81-8.9,11.97-13.16c7.54-7.68,15.47-14.81,23.75-21.36c8.28-6.55,16.91-12.52,25.84-17.89
		c0.49-0.29,1.03-0.21,1.42,0.08c0.39,0.29,0.61,0.8,0.47,1.35l-8.09,30.72L221.49,277.43z M351.82,180.62l-5.46,9.08l-5.46,9.08
		c-3.88,0.9-7.74,1.79-11.61,2.68c-3.87,0.89-7.73,1.78-11.61,2.68c-7.86,1.78-11.58,2.03-12,3.35c-0.42,1.31,2.45,3.69,7.79,9.72
		l7.8,8.89l7.8,8.89l-1.08,11.85l-1.08,11.85l-0.14,1.75l-0.14,1.75c-0.87-0.52-1.81-0.89-2.8-1.09s-2.03-0.24-3.07-0.09
		l-20.51,2.95l-20.51,2.95l-10.96-31.17l-10.96-31.17c-0.09-0.25,0.16-0.79,0.53-1.32c0.37-0.53,0.87-1.04,1.28-1.23
		c14.35-6.57,29.31-11.71,44.72-15.34c15.4-3.63,31.25-5.76,47.36-6.3c0.05,0,0.08,0.06,0.1,0.12
		C351.8,180.56,351.82,180.62,351.82,180.62z M494.14,237.39v-5.03v-5.03c0-1.41-0.51-2.75-1.38-3.78
		c-0.87-1.02-2.08-1.73-3.49-1.87c-1.62-0.17-3.13,0.38-4.23,1.37c-1.1,0.99-1.79,2.41-1.79,4l0.02,5.19l0.02,5.19l-4.76-4.75
		l-4.76-4.75c-1.19-1.17-2.6-1.94-4.05-2.11c-1.44-0.16-2.91,0.29-4.21,1.57c-0.5,0.52-0.9,1.13-1.17,1.78
		c-0.27,0.65-0.41,1.35-0.41,2.08c0,0.72,0.14,1.42,0.41,2.08c0.27,0.65,0.67,1.26,1.17,1.78l8.89,8.84l8.89,8.84v6.05v6.05
		l-9.54-9.52l-9.54-9.52c-1.06-1.04-2.46-1.57-3.86-1.57c-1.4,0-2.79,0.52-3.86,1.57c-1.03,1.06-1.54,2.46-1.54,3.85
		c0,1.39,0.51,2.78,1.54,3.82l13.39,13.36l13.39,13.36v0.74v0.74c-2.9,0.52-5.69,1.48-8.27,2.83s-4.98,3.11-7.08,5.24
		c-0.29,0.29-0.57,0.59-0.84,0.89c-0.27,0.3-0.55,0.61-0.82,0.91l-0.76-0.43l-0.76-0.43l-4.83-18.04l-4.83-18.04
		c-0.41-1.53-1.3-2.8-2.48-3.58c-1.19-0.78-2.67-1.07-4.29-0.63c-1.44,0.4-2.59,1.34-3.28,2.55c-0.69,1.21-0.92,2.67-0.55,4.11
		l3.5,12.98l3.5,12.98l-5.07-2.92l-5.07-2.92l-3.28-12.21l-3.28-12.21c-0.18-0.7-0.5-1.35-0.93-1.91c-0.43-0.56-0.98-1.04-1.63-1.4
		c-0.63-0.36-1.31-0.59-2-0.68c-0.69-0.09-1.39-0.04-2.08,0.14c-1.46,0.4-2.61,1.32-3.31,2.52c-0.69,1.19-0.93,2.65-0.55,4.11
		l1.87,7l1.87,7l-4.69-2.72l-4.69-2.72h-0.02h-0.02c-1.3-0.74-2.78-0.88-4.11-0.52c-1.34,0.36-2.54,1.24-3.28,2.53
		c-0.34,0.63-0.57,1.31-0.66,2c-0.09,0.69-0.05,1.4,0.15,2.11c0.18,0.68,0.5,1.32,0.92,1.88c0.43,0.55,0.97,1.02,1.6,1.36l4.52,2.61
		l4.52,2.61l-6.76,1.8l-6.76,1.8l0,0l0,0c-1.44,0.4-2.59,1.34-3.28,2.55c-0.69,1.21-0.92,2.67-0.55,4.11
		c0.4,1.44,1.34,2.58,2.55,3.27c1.21,0.69,2.68,0.92,4.12,0.54l11.99-3.2l11.99-3.2l5.23,3.01l5.23,3.01l-13.03,3.48l-13.03,3.48
		l0,0l0,0c-0.7,0.2-1.34,0.52-1.9,0.95c-0.55,0.43-1.02,0.97-1.38,1.6c-0.38,0.61-0.61,1.29-0.7,1.98c-0.09,0.69-0.04,1.4,0.16,2.09
		c0.32,1.22,1.03,2.23,1.95,2.93s2.07,1.1,3.28,1.1c0.23,0,0.47-0.01,0.7-0.04c0.23-0.03,0.47-0.07,0.7-0.14l18.28-4.9l18.28-4.9
		l0.78,0.45l0.78,0.45c-0.54,1.53-0.96,3.1-1.23,4.69s-0.42,3.21-0.42,4.85c0,1.69,0.15,3.37,0.45,5.01
		c0.29,1.64,0.73,3.24,1.28,4.79l-0.88,0.5l-0.88,0.5l-18.28-4.88l-18.28-4.88c-1.44-0.38-2.91-0.14-4.11,0.54
		c-1.2,0.69-2.14,1.83-2.52,3.27c-0.4,1.44-0.16,2.91,0.53,4.11c0.69,1.21,1.85,2.15,3.29,2.55l13.03,3.48l13.03,3.48l-4.99,2.88
		l-4.99,2.88l-12.15-3.24l-12.15-3.24c-1.46-0.38-2.93-0.14-4.13,0.54c-1.2,0.69-2.14,1.83-2.54,3.27c-0.18,0.68-0.23,1.4-0.14,2.09
		c0.09,0.7,0.32,1.38,0.68,2.01c0.36,0.63,0.84,1.17,1.4,1.6c0.56,0.43,1.2,0.74,1.88,0.92l6.92,1.85l6.92,1.85l-4.76,2.74
		l-4.76,2.74c-0.49,0.29-0.92,0.63-1.29,1.02c-0.37,0.39-0.68,0.83-0.91,1.32l-19.79-42.65l-19.79-42.65
		c-0.27-0.57-0.11-1.16,0.26-1.54c0.37-0.38,0.95-0.56,1.53-0.31c1.46,0.62,2.92,1.24,4.38,1.86c1.46,0.62,2.92,1.24,4.37,1.85
		c7.37,3.15,10.52,5.13,11.65,4.33s0.25-4.38-0.44-12.36l-1.1-11.85l-1.1-11.85c2.61-2.97,5.22-5.93,7.82-8.89
		c2.6-2.96,5.2-5.92,7.79-8.89c5.34-6.03,8.21-8.41,7.79-9.72c-0.42-1.31-4.13-1.57-11.97-3.35l-11.61-2.68l-11.61-2.68l-5.46-9.08
		l-5.46-9.08c0,0,0.03-0.06,0.09-0.12c0.05-0.06,0.12-0.12,0.19-0.12c24.63,0.85,48.64,5.39,71.4,13.36
		c22.76,7.97,44.29,19.38,63.97,33.98l-4.85,4.83L494.14,237.39z M536,277.36l-5.1,2.95l-5.1,2.95l3.48-13l3.48-13
		c0.2-0.7,0.24-1.41,0.15-2.11c-0.09-0.69-0.33-1.37-0.69-2c-0.38-0.63-0.86-1.17-1.41-1.6c-0.56-0.43-1.2-0.74-1.9-0.92
		c-0.7-0.18-1.42-0.23-2.13-0.14c-0.7,0.09-1.39,0.32-2.02,0.68c-0.61,0.38-1.14,0.86-1.57,1.41c-0.42,0.55-0.74,1.18-0.92,1.87
		l-4.9,18.22l-4.9,18.22l-0.63,0.38l-0.63,0.38c-0.27-0.34-0.55-0.67-0.84-0.98c-0.29-0.32-0.59-0.62-0.89-0.93
		c-2.13-2.12-4.52-3.87-7.09-5.22c-2.58-1.35-5.34-2.3-8.23-2.84v-0.76v-0.76l13.36-13.34l13.36-13.34c0.52-0.5,0.92-1.1,1.19-1.75
		s0.4-1.35,0.4-2.07s-0.14-1.42-0.4-2.08s-0.66-1.26-1.19-1.78c-1.06-1.04-2.45-1.57-3.84-1.57c-1.39,0-2.78,0.52-3.84,1.57
		l-9.52,9.51l-9.52,9.51v-6.05v-6.05l8.85-8.82l8.85-8.82c0.11-0.11,0.21-0.23,0.3-0.35c0.09-0.12,0.18-0.25,0.27-0.37
		c3.71,3.01,7.35,6.13,10.91,9.37s7.04,6.6,10.43,10.07c1.14,1.17,2.25,2.35,3.36,3.53c1.1,1.18,2.19,2.37,3.28,3.56l-2.2,8.23
		L536,277.36z M512.17,393.17c0.4-0.49,0.71-1.03,0.93-1.6s0.33-1.19,0.33-1.82c0-0.72-0.14-1.42-0.41-2.08
		c-0.27-0.65-0.67-1.26-1.17-1.78l-8.99-8.97l-8.99-8.97v-5.64v-5.64l9.54,9.51l9.54,9.51c0.5,0.52,1.09,0.93,1.73,1.2
		c0.64,0.27,1.35,0.42,2.09,0.42c0.72,0,1.42-0.14,2.07-0.41s1.24-0.67,1.75-1.17c0.5-0.52,0.9-1.13,1.17-1.78
		c0.27-0.65,0.41-1.35,0.41-2.08s-0.14-1.42-0.4-2.08c-0.27-0.65-0.66-1.26-1.19-1.78l-13.36-13.32l-13.36-13.32v-1.03v-1.03
		c2.94-0.52,5.76-1.48,8.39-2.84c2.63-1.36,5.07-3.14,7.26-5.3c0.2-0.2,0.39-0.41,0.58-0.63c0.19-0.22,0.38-0.45,0.58-0.66
		l0.85,0.49l0.85,0.49l4.88,18.24l4.88,18.24c0.34,1.19,1.06,2.19,2,2.89c0.93,0.7,2.08,1.11,3.27,1.11c1.77,0,3.31-0.85,4.29-2.12
		s1.41-2.99,0.94-4.72l-3.48-12.98l-3.48-12.98l5.32,3.06l5.32,3.06l3.15,11.78l3.15,11.78c0.63,2.32,2.51,3.67,4.54,3.93
		c2.03,0.26,4.2-0.58,5.41-2.63c0.36-0.63,0.59-1.31,0.68-2c0.09-0.69,0.05-1.4-0.14-2.11l-1.77-6.55l-1.77-6.55l4.45,2.57
		l4.45,2.57c1.26,0.74,2.73,0.89,4.07,0.54s2.56-1.22,3.32-2.52c0.74-1.28,0.89-2.75,0.54-4.09c-0.36-1.34-1.22-2.56-2.52-3.33
		l-4.83-2.77l-4.83-2.77l7.17-1.93l7.17-1.93c0.7-0.18,1.34-0.5,1.9-0.92c0.55-0.43,1.02-0.97,1.38-1.6c0.36-0.63,0.59-1.31,0.69-2
		c0.09-0.69,0.05-1.4-0.15-2.11c-0.18-0.68-0.49-1.32-0.91-1.88s-0.95-1.04-1.58-1.4c-0.63-0.36-1.31-0.59-2-0.69
		c-0.69-0.09-1.41-0.05-2.11,0.15l-12.42,3.31l-12.42,3.31L536,332l-4.94-2.83l13.03-3.48l13.03-3.48c1.44-0.4,2.59-1.34,3.28-2.55
		c0.69-1.21,0.92-2.67,0.55-4.11c-0.4-1.44-1.34-2.58-2.55-3.27c-1.21-0.69-2.68-0.92-4.12-0.54l-18.24,4.88l-18.24,4.88l-0.78-0.45
		l-0.78-0.45c0.59-1.6,1.05-3.26,1.37-4.96c0.31-1.7,0.47-3.43,0.47-5.2c0-1.62-0.14-3.21-0.41-4.78c-0.27-1.57-0.67-3.11-1.17-4.62
		l0.7-0.4l0.7-0.4l18.26,4.88l18.26,4.88c0.23,0.07,0.47,0.13,0.7,0.16c0.23,0.04,0.47,0.05,0.7,0.05c1.19,0,2.33-0.41,3.27-1.11
		c0.93-0.71,1.65-1.71,2-2.92c0.18-0.7,0.23-1.41,0.13-2.11c-0.09-0.69-0.33-1.37-0.71-2c-0.36-0.63-0.83-1.16-1.38-1.58
		c-0.55-0.42-1.19-0.74-1.9-0.94l-13.03-3.48l-13.03-3.48l5.41-3.11l5.41-3.11l11.43,3.06l11.43,3.06
		c11.14,17.11,20.13,35.45,26.83,54.69c6.7,19.24,11.09,39.37,13.04,60.04l-26.19,20.4l-26.19,20.4l-20.08-27.44L512.17,393.17z
		 M474.32,486.65l21.41,6.5l21.41,6.5l-9.72,18.73l-9.72,18.73l-11.7-25.23L474.32,486.65z M231.98,518.95
		c0.05-0.86,0.1-1.72,0.14-2.57c0.05-0.86,0.09-1.71,0.14-2.57c0.49-0.32,0.97-0.64,1.46-0.95c0.49-0.31,0.99-0.62,1.49-0.92
		c-0.54,1.17-1.08,2.34-1.62,3.51S232.52,517.78,231.98,518.95L231.98,518.95L231.98,518.95z M232.7,556.01
		c0.32,1.12,0.8,2.16,1.39,3.11c0.59,0.95,1.28,1.8,2.04,2.54c1.3,1.35,2.86,2.4,4.59,3.12c1.73,0.72,3.65,1.09,5.65,1.09
		c1.93,0,3.81-0.38,5.53-1.09c1.72-0.72,3.28-1.77,4.56-3.12c0.65-0.65,1.23-1.34,1.75-2.1s0.97-1.59,1.35-2.51
		c0.22,1.66,0.68,3.2,1.38,4.63s1.61,2.72,2.73,3.87c1.28,1.28,2.84,2.31,4.56,3.03c1.72,0.72,3.61,1.13,5.53,1.14
		c2,0,3.88-0.41,5.61-1.13c1.72-0.72,3.28-1.77,4.63-3.05c0.16-0.22,0.35-0.43,0.54-0.65s0.38-0.43,0.54-0.65
		c3.93,3.15,7.99,6.23,12.14,9.23c4.15,3,8.4,5.93,12.7,8.77c-14.64,1.03-28.98,0.95-42.48-0.06c-13.5-1.01-26.16-2.94-37.45-5.63
		c-1.03-0.25-2.05-0.51-3.05-0.78s-2-0.54-2.97-0.81c1.46-3.17,2.91-6.34,4.36-9.5C229.79,562.32,231.24,559.16,232.7,556.01
		L232.7,556.01L232.7,556.01z M227.73,528.24c-0.41,0.88-0.82,1.77-1.23,2.67c-0.41,0.9-0.81,1.8-1.23,2.7
		c-0.41,0.9-0.83,1.79-1.24,2.68s-0.83,1.78-1.24,2.68c-0.47-0.85-0.95-1.68-1.42-2.52c-0.48-0.84-0.96-1.67-1.42-2.52
		c-0.49-0.85-0.97-1.68-1.46-2.52c-0.48-0.84-0.96-1.67-1.43-2.52c0.88-0.05,1.78-0.11,2.67-0.16s1.78-0.11,2.67-0.16
		s1.78-0.11,2.67-0.16S226.85,528.3,227.73,528.24L227.73,528.24L227.73,528.24z M202.96,467.49c0.94-1.6,1.88-3.2,2.83-4.79
		c0.95-1.59,1.89-3.19,2.83-4.79c1.86,0.05,3.71,0.11,5.57,0.16c1.86,0.05,3.71,0.11,5.57,0.16c1.86,0.05,3.72,0.11,5.59,0.16
		s3.73,0.11,5.59,0.16c-0.92,1.62-1.83,3.25-2.74,4.88c-0.91,1.63-1.81,3.26-2.71,4.88c-0.9,1.62-1.8,3.25-2.71,4.88
		c-0.91,1.63-1.82,3.26-2.74,4.88c-0.92-0.02-1.84-0.03-2.75-0.04c-0.91-0.01-1.83-0.02-2.73-0.04c-0.92,0-1.84-0.01-2.76-0.02
		s-1.84-0.02-2.76-0.02c-0.32-1.01-0.68-1.97-1.09-2.9s-0.84-1.82-1.33-2.68c-0.5-0.86-1.05-1.7-1.66-2.52
		C204.37,469.06,203.7,468.27,202.96,467.49L202.96,467.49L202.96,467.49z M209.06,493.06c0.9,0,1.81,0,2.73,0s1.83,0,2.75,0
		c0.9,0,1.81,0,2.72,0c0.91,0,1.82,0,2.72,0c0.88,1.66,1.78,3.31,2.67,4.96c0.89,1.65,1.78,3.3,2.67,4.94
		c0.88,1.66,1.77,3.31,2.65,4.96c0.89,1.65,1.78,3.3,2.68,4.94c-1.87,0.04-3.75,0.07-5.62,0.1c-1.87,0.03-3.75,0.06-5.62,0.08
		c-1.87,0.04-3.75,0.07-5.62,0.1c-1.87,0.03-3.75,0.06-5.62,0.08c-0.45-0.77-0.9-1.56-1.35-2.35s-0.9-1.58-1.35-2.37
		c-0.45-0.79-0.9-1.58-1.35-2.37c-0.45-0.79-0.9-1.57-1.35-2.35c0.74-0.77,1.42-1.58,2.05-2.4s1.21-1.68,1.73-2.57
		c0.52-0.9,0.99-1.83,1.41-2.79C208.36,495.08,208.73,494.09,209.06,493.06L209.06,493.06L209.06,493.06z M243.23,532.82
		c0,0.02,0,0.04,0,0.05s0,0.04,0,0.05s0,0.04,0,0.05c0,0.02,0,0.04,0,0.05c0.83,0.14,1.68,0.28,2.54,0.4
		c0.86,0.12,1.73,0.23,2.62,0.32c0.87,0.09,1.74,0.17,2.62,0.24c0.88,0.07,1.78,0.12,2.68,0.16c1.6,1.82,3.27,3.66,4.98,5.48
		c1.71,1.83,3.46,3.65,5.22,5.43c-0.04,0.04-0.07,0.07-0.11,0.11s-0.07,0.07-0.11,0.11c-0.65,0.65-1.23,1.37-1.75,2.14
		c-0.52,0.77-0.97,1.6-1.35,2.47c-0.11-0.83-0.28-1.63-0.51-2.4s-0.52-1.51-0.86-2.21c-0.34-0.72-0.75-1.4-1.21-2.03
		c-0.46-0.63-0.97-1.22-1.53-1.76c-0.65-0.67-1.36-1.26-2.13-1.77c-0.77-0.51-1.59-0.95-2.45-1.29c-0.85-0.36-1.75-0.63-2.68-0.81
		c-0.93-0.18-1.88-0.27-2.84-0.27c-0.97,0-1.93,0.07-2.87,0.24c-0.94,0.17-1.86,0.43-2.76,0.81c0.22-0.47,0.42-0.94,0.63-1.4
		s0.41-0.92,0.63-1.37c0.2-0.47,0.41-0.94,0.61-1.4C242.83,533.75,243.03,533.29,243.23,532.82L243.23,532.82L243.23,532.82z
		 M257.65,517.73c1.01,0,1.98-0.22,2.88-0.6c0.89-0.39,1.7-0.95,2.39-1.63c0.59-0.59,1.08-1.28,1.45-2.03
		c0.36-0.75,0.61-1.56,0.72-2.4c0.09,0.16,0.23,0.32,0.37,0.49s0.31,0.32,0.46,0.49c0.7,0.68,1.51,1.25,2.41,1.65
		c0.89,0.4,1.87,0.62,2.89,0.62c1.06,0,2.05-0.23,2.96-0.62c0.9-0.4,1.71-0.96,2.42-1.65c0.65-0.65,1.19-1.42,1.57-2.29
		c0.38-0.87,0.59-1.83,0.59-2.86c0.11,0.05,0.19,0.14,0.26,0.22s0.12,0.16,0.18,0.22c0.68,0.7,1.51,1.26,2.43,1.64
		c0.91,0.38,1.92,0.59,2.94,0.59c1.03,0,2.02-0.21,2.92-0.59c0.9-0.38,1.7-0.94,2.35-1.64c0.68-0.65,1.25-1.45,1.65-2.35
		c0.4-0.9,0.62-1.89,0.62-2.91c0-0.16,0-0.35-0.01-0.54s-0.04-0.38-0.09-0.54c0.7,0.59,1.48,1.07,2.32,1.4s1.75,0.51,2.73,0.51
		c1.03,0,2-0.21,2.89-0.59c0.89-0.38,1.69-0.94,2.37-1.64c0.7-0.63,1.26-1.43,1.64-2.33c0.38-0.9,0.59-1.89,0.59-2.89
		c0-0.22-0.02-0.41-0.04-0.59c-0.02-0.19-0.04-0.38-0.04-0.59c0.58,0.49,1.28,0.86,2.04,1.12c0.76,0.26,1.57,0.39,2.36,0.39
		c1.03,0,2.02-0.22,2.92-0.61c0.9-0.4,1.71-0.97,2.38-1.69c0.68-0.63,1.24-1.43,1.63-2.33c0.39-0.9,0.6-1.89,0.6-2.89
		c0-0.32-0.03-0.62-0.07-0.91c-0.04-0.29-0.09-0.58-0.15-0.89c0.59,0.36,1.21,0.65,1.86,0.85c0.65,0.2,1.35,0.31,2.1,0.31
		c1.05,0,2.02-0.22,2.91-0.6s1.69-0.95,2.39-1.63c0.68-0.7,1.24-1.51,1.63-2.4s0.6-1.86,0.6-2.89c0-0.41-0.05-0.84-0.14-1.25
		c-0.08-0.41-0.19-0.82-0.3-1.2c0.16,0.11,0.35,0.22,0.55,0.31c0.2,0.09,0.42,0.18,0.64,0.23c2.05,1.33,4.13,2.62,6.22,3.87
		s4.21,2.47,6.36,3.66c-1.12,1.33-2.31,2.64-3.56,3.92c-1.26,1.28-2.58,2.53-3.97,3.75c-4.61,4.25-9.83,8.15-15.44,11.63
		s-11.6,6.54-17.76,9.12c-6.89,2.83-13.99,5.07-21.03,6.64c-7.04,1.58-14.01,2.48-20.65,2.65c-0.47-0.61-0.96-1.22-1.45-1.84
		s-0.99-1.22-1.47-1.84c-0.49-0.63-0.97-1.25-1.45-1.87c-0.48-0.62-0.95-1.23-1.4-1.84c0.65,0.54,1.4,0.97,2.21,1.27
		C255.85,517.57,256.73,517.73,257.65,517.73L257.65,517.73L257.65,517.73z M320.02,472.57c-1.01,0-1.97,0.23-2.86,0.61
		c-0.88,0.38-1.69,0.92-2.37,1.55c-0.72,0.7-1.27,1.5-1.64,2.39c-0.37,0.89-0.56,1.87-0.56,2.93c0,0.27,0,0.57,0.03,0.86
		s0.08,0.59,0.19,0.86c-0.59-0.32-1.23-0.59-1.9-0.78s-1.36-0.3-2.06-0.3c-1.01,0-2.01,0.22-2.93,0.59
		c-0.92,0.38-1.76,0.92-2.44,1.57c-0.65,0.7-1.19,1.51-1.57,2.41c-0.38,0.9-0.59,1.89-0.59,2.95c0,0.16,0,0.35,0.01,0.54
		s0.04,0.38,0.09,0.54c-0.63-0.43-1.33-0.78-2.08-1.03c-0.74-0.24-1.53-0.38-2.32-0.38c-1.08,0-2.07,0.22-2.97,0.59
		c-0.9,0.37-1.7,0.9-2.4,1.53c-0.7,0.7-1.24,1.53-1.61,2.44c-0.37,0.91-0.55,1.91-0.55,2.96c0,0.16,0,0.32,0,0.48
		c0,0.16,0,0.31,0,0.45c-0.65-0.58-1.4-1.03-2.23-1.33s-1.74-0.47-2.71-0.47c-1.03,0-2.03,0.22-2.94,0.59
		c-0.91,0.37-1.74,0.9-2.43,1.53c-0.65,0.7-1.19,1.5-1.57,2.39c-0.38,0.88-0.59,1.85-0.59,2.87c-0.05-0.11-0.14-0.19-0.22-0.27
		s-0.16-0.16-0.22-0.27c-0.7-0.65-1.51-1.18-2.42-1.55c-0.9-0.37-1.89-0.58-2.96-0.58c-1.03,0-2,0.21-2.89,0.58
		c-0.89,0.37-1.7,0.9-2.41,1.55c-0.58,0.58-1.05,1.25-1.41,2s-0.6,1.57-0.71,2.43c-0.11-0.16-0.24-0.32-0.39-0.49
		s-0.31-0.32-0.47-0.49c-0.68-0.65-1.5-1.2-2.39-1.58c-0.89-0.39-1.87-0.61-2.88-0.61c-0.11,0-0.19,0-0.27,0s-0.16,0-0.27,0
		l14.31-31.13l14.31-31.13c4.67,5.94,9.94,11.6,15.7,16.96S313.42,467.8,320.02,472.57L320.02,472.57L320.02,472.57z M307.69,431.2
		c1.6,0,3.15-0.27,4.6-0.77s2.79-1.22,3.98-2.12c0,0.22,0,0.4,0,0.58s0,0.36,0,0.58c0,1.03,0.19,2.03,0.55,2.93
		c0.37,0.9,0.91,1.71,1.61,2.36c0.68,0.68,1.49,1.24,2.39,1.63s1.9,0.6,2.98,0.6c0.65,0,1.26-0.08,1.85-0.24
		c0.59-0.16,1.14-0.41,1.69-0.73c-0.11,0.54-0.22,1.11-0.3,1.67c-0.08,0.56-0.14,1.12-0.14,1.64c0,2,0.41,3.91,1.14,5.64
		c0.73,1.73,1.78,3.28,3.08,4.56c1.33,1.28,2.89,2.33,4.61,3.07c1.72,0.73,3.61,1.15,5.59,1.15c0.27,0,0.51,0,0.76-0.01
		s0.49-0.04,0.76-0.09c0.05,0.11,0.11,0.24,0.16,0.38s0.11,0.27,0.16,0.38c-0.32-0.11-0.65-0.16-0.97-0.19s-0.65-0.03-0.97-0.03
		c-1.01,0-2,0.21-2.92,0.58s-1.75,0.9-2.46,1.55c-0.65,0.7-1.19,1.5-1.57,2.39s-0.59,1.87-0.59,2.93c0,0.49,0.05,0.95,0.15,1.4
		s0.23,0.88,0.39,1.3c-0.49-0.2-1.02-0.38-1.56-0.51c-0.55-0.13-1.1-0.21-1.64-0.21c-0.72,0-1.37,0.11-1.97,0.28
		s-1.16,0.41-1.7,0.66c-7.26-5.08-14.06-10.61-20.22-16.5c-6.16-5.89-11.67-12.15-16.38-18.68l1.73-3.69l1.73-3.69
		c0.32,0.97,0.78,1.89,1.34,2.74c0.55,0.85,1.2,1.62,1.91,2.3c1.35,1.28,2.91,2.32,4.63,3.05
		C303.81,430.79,305.69,431.2,307.69,431.2L307.69,431.2L307.69,431.2z M315.22,375.99c1.75,1.93,3.6,3.81,5.53,5.64
		c1.93,1.83,3.95,3.6,6.04,5.31c-3.28,1.33-6.53,2.5-9.74,3.49c-3.21,0.99-6.37,1.8-9.47,2.41l3.82-8.43L315.22,375.99z
		 M390.14,368.07v0.11v0.11c0,1.01,0.19,1.99,0.56,2.89c0.37,0.9,0.92,1.71,1.64,2.37c0.16,0.16,0.3,0.3,0.43,0.42
		c0.14,0.12,0.27,0.23,0.43,0.34c-0.65,0.2-1.28,0.46-1.87,0.79s-1.14,0.74-1.63,1.22c-0.68,0.7-1.24,1.5-1.63,2.38
		c-0.39,0.88-0.6,1.83-0.6,2.84c0,1.1,0.24,2.15,0.67,3.11c0.43,0.95,1.04,1.81,1.78,2.51c-0.16,0-0.32,0-0.47,0
		c-0.15,0-0.31,0-0.47,0c-1.03,0-2.02,0.18-2.92,0.54c-0.9,0.36-1.7,0.89-2.35,1.59c-0.7,0.68-1.27,1.49-1.66,2.4
		c-0.39,0.9-0.61,1.9-0.61,2.97c0,0.92,0.16,1.77,0.46,2.57s0.72,1.55,1.24,2.25c-1.06-0.11-2.13,0.03-3.13,0.39
		c-1,0.36-1.94,0.95-2.75,1.74c-0.05,0.05-0.11,0.11-0.18,0.18c-0.07,0.07-0.15,0.15-0.26,0.26c-1.73-0.59-3.45-1.21-5.17-1.85
		s-3.44-1.31-5.17-2.01c-3.23-1.33-6.44-2.81-9.6-4.41c-3.15-1.6-6.25-3.32-9.22-5.14l0.43-0.22l0.43-0.22
		c5.53-3.17,10.94-6.67,16.07-10.4c5.13-3.73,9.98-7.69,14.39-11.78c0.16,0.27,0.34,0.51,0.54,0.74c0.19,0.23,0.4,0.45,0.62,0.66
		c0.7,0.68,1.51,1.24,2.39,1.63s1.86,0.6,2.91,0.6c0.9,0,1.76-0.16,2.55-0.44C388.79,368.93,389.51,368.54,390.14,368.07
		L390.14,368.07L390.14,368.07z M392.99,362.38v-0.13v-0.13c0-1.33-0.35-2.64-1-3.77c-0.65-1.13-1.6-2.08-2.78-2.71
		c0.59-0.7,1.17-1.4,1.74-2.09s1.12-1.4,1.65-2.09c0.12-0.15,0.29-0.21,0.45-0.2s0.32,0.12,0.4,0.29l2.06,4.6l2.06,4.6
		c-0.85,0-1.68,0.14-2.45,0.41S393.62,361.84,392.99,362.38L392.99,362.38L392.99,362.38z M501.79,297.42L501.79,297.42
		L501.79,297.42c1.75,1.75,3.11,3.77,4.03,5.98c0.92,2.21,1.41,4.59,1.41,7.06c0,2.48-0.49,4.89-1.41,7.11
		c-0.92,2.22-2.28,4.25-4.03,6c-1.75,1.75-3.79,3.1-6,4.01c-2.22,0.91-4.61,1.39-7.08,1.39h-0.18h-0.18l0,0l0,0
		c-0.04,0-0.06,0.01-0.09,0.02s-0.05,0.02-0.09,0.02v-0.02v-0.02c-2.4-0.07-4.71-0.59-6.85-1.52c-2.14-0.93-4.11-2.26-5.8-3.95
		c-1.73-1.75-3.06-3.77-3.97-5.98c-0.9-2.21-1.37-4.59-1.37-7.06c0-2.47,0.48-4.85,1.39-7.06c0.91-2.21,2.27-4.23,4.02-5.98
		c1.75-1.75,3.79-3.1,6.01-4.01c2.22-0.91,4.63-1.39,7.12-1.39c2.47,0,4.87,0.48,7.08,1.39C498,294.32,500.04,295.67,501.79,297.42
		L501.79,297.42L501.79,297.42z M414.47,357.73c0.68,0.18,1.39,0.23,2.08,0.14s1.37-0.32,2-0.68l4.72-2.74l4.72-2.74l-1.84,6.86
		l-1.84,6.86c-0.18,0.7-0.23,1.42-0.13,2.12c0.09,0.7,0.33,1.37,0.71,1.99c0.36,0.63,0.84,1.16,1.4,1.58
		c0.56,0.42,1.2,0.72,1.88,0.9s1.4,0.23,2.1,0.14s1.38-0.32,2.01-0.68s1.17-0.84,1.6-1.4c0.43-0.56,0.74-1.2,0.92-1.88l3.24-12.06
		l3.24-12.06l5.03-2.9l5.03-2.9l-3.5,13l-3.5,13c-0.18,0.7-0.23,1.41-0.14,2.11c0.09,0.69,0.32,1.37,0.68,2
		c0.38,0.63,0.86,1.17,1.41,1.59c0.55,0.42,1.19,0.73,1.87,0.89c1.44,0.4,2.91,0.17,4.12-0.52s2.15-1.84,2.55-3.3l4.88-18.2
		l4.88-18.2l0.92-0.52l0.92-0.52c0.22,0.25,0.43,0.5,0.65,0.75c0.22,0.25,0.45,0.49,0.68,0.72c2.09,2.11,4.45,3.85,7.01,5.21
		c2.56,1.36,5.3,2.33,8.17,2.89v1.1v1.1l-13.36,13.32l-13.36,13.32c-0.5,0.52-0.9,1.13-1.17,1.78c-0.27,0.65-0.41,1.35-0.41,2.08
		s0.14,1.42,0.41,2.07c0.27,0.65,0.67,1.24,1.17,1.75c0.54,0.54,1.15,0.95,1.81,1.22c0.65,0.27,1.35,0.41,2.05,0.41
		c0.7,0,1.4-0.14,2.05-0.41c0.65-0.27,1.27-0.68,1.81-1.22l9.5-9.49l9.5-9.49v5.89v5.89l-8.72,8.7l-8.72,8.7
		c-0.5,0.52-0.9,1.13-1.17,1.78c-0.27,0.65-0.41,1.35-0.41,2.08s0.14,1.42,0.41,2.07c0.27,0.65,0.67,1.24,1.17,1.75
		c0.54,0.54,1.16,0.94,1.82,1.2c0.66,0.26,1.35,0.39,2.04,0.39c0.7,0,1.4-0.13,2.05-0.39c0.65-0.26,1.27-0.66,1.81-1.2l4.87-4.86
		l4.87-4.86v5.33v5.33c0,1.49,0.61,2.84,1.6,3.82c0.99,0.98,2.35,1.58,3.84,1.58s2.86-0.6,3.84-1.58c0.99-0.98,1.6-2.33,1.6-3.82
		v-5.62v-5.62l5.16,5.15l5.16,5.15c0.43,0.43,0.92,0.77,1.45,1.03c0.53,0.26,1.1,0.43,1.69,0.52l4.45,32.93l4.45,32.93l-24.05,6.18
		l-24.05,6.18l-26.82-57.8L414.47,357.73z M457.59,495.55c0.22-0.22,0.43-0.46,0.65-0.7s0.43-0.49,0.65-0.7l2.05,4.43L463,503
		c-3.5,0.5-7.07,0.81-10.72,0.96c-3.65,0.15-7.36,0.15-11.13,0.05c-0.11-1.4-0.41-2.75-0.86-4.01c-0.46-1.26-1.07-2.44-1.81-3.52
		c2.78,2.32,6.27,3.36,9.72,3.18S455.03,498.08,457.59,495.55L457.59,495.55L457.59,495.55z M373.92,426.48
		c0.32,0.11,0.7,0.19,1.1,0.24c0.39,0.05,0.8,0.08,1.18,0.08c1.03,0,2.02-0.21,2.93-0.58s1.74-0.9,2.44-1.55
		c0.63-0.7,1.17-1.54,1.55-2.45c0.38-0.91,0.61-1.9,0.61-2.91c0-0.86-0.14-1.69-0.41-2.45c-0.26-0.76-0.64-1.45-1.11-2.05
		c7.26,1.93,14.56,3.26,21.64,3.94c7.09,0.68,13.97,0.71,20.43,0.02l3.44,7.45l3.44,7.45c-1.14-0.76-2.38-1.35-3.7-1.76
		c-1.32-0.41-2.72-0.62-4.16-0.62c-2,0-3.88,0.41-5.59,1.13c-1.71,0.72-3.24,1.77-4.54,3.05c-1.55,1.57-2.7,3.41-3.42,5.42
		c-0.71,2.01-0.98,4.18-0.77,6.39c-0.16-0.54-0.41-1.05-0.7-1.52s-0.64-0.89-1-1.25c-0.72-0.7-1.53-1.28-2.43-1.68
		c-0.9-0.4-1.89-0.63-2.97-0.63c-1.01,0-2.01,0.23-2.92,0.63c-0.91,0.4-1.72,0.98-2.35,1.68c-0.27,0.22-0.49,0.45-0.69,0.71
		c-0.2,0.26-0.39,0.55-0.61,0.87c-0.27-1.44-0.75-2.81-1.4-4.07c-0.65-1.26-1.48-2.41-2.46-3.42c-1.3-1.3-2.86-2.34-4.59-3.06
		s-3.65-1.12-5.65-1.12c-1.93,0-3.81,0.4-5.53,1.12c-1.72,0.72-3.28,1.76-4.56,3.06c-0.65,0.68-1.24,1.4-1.77,2.17
		s-0.97,1.58-1.33,2.44c-0.13-0.4-0.3-0.78-0.5-1.15c-0.21-0.36-0.45-0.71-0.72-1.01c-0.05-0.54-0.16-1.08-0.32-1.6
		c-0.16-0.52-0.38-1.03-0.65-1.49c0.27,0.05,0.57,0.11,0.88,0.15c0.31,0.04,0.64,0.07,0.96,0.07c1.03,0,2.03-0.22,2.93-0.61
		c0.9-0.39,1.7-0.96,2.33-1.66c0.7-0.63,1.27-1.44,1.66-2.35c0.39-0.9,0.61-1.9,0.61-2.91c0-0.81-0.14-1.56-0.37-2.25
		S374.29,427.07,373.92,426.48L373.92,426.48L373.92,426.48z M333.57,336.13c0.49,0.2,1.03,0.38,1.59,0.51
		c0.56,0.13,1.15,0.21,1.73,0.21c0.5,0,1-0.05,1.48-0.15c0.48-0.09,0.94-0.23,1.37-0.39c-0.16,0.38-0.27,0.78-0.34,1.2
		c-0.07,0.42-0.09,0.85-0.09,1.28c0,1.06,0.21,2.06,0.58,2.97c0.37,0.9,0.9,1.71,1.55,2.4c0.7,0.65,1.51,1.18,2.41,1.55
		s1.9,0.58,3,0.58c0.85,0,1.65-0.13,2.4-0.37s1.44-0.62,2.07-1.1c-0.16,0.43-0.29,0.88-0.37,1.36c-0.09,0.48-0.13,0.98-0.13,1.52
		c0,1.01,0.18,2,0.54,2.9s0.9,1.71,1.62,2.36c0.68,0.7,1.49,1.27,2.38,1.66c0.9,0.39,1.89,0.61,2.95,0.61c0.87,0,1.7-0.16,2.49-0.45
		c0.78-0.28,1.51-0.69,2.16-1.17c-0.05,0.27-0.11,0.54-0.15,0.81c-0.04,0.27-0.07,0.54-0.07,0.81c0,1.01,0.22,1.99,0.6,2.89
		c0.39,0.9,0.95,1.73,1.63,2.44c0.32,0.32,0.68,0.62,1.07,0.87s0.82,0.46,1.31,0.6c-3.66,3.08-7.53,6.07-11.58,8.9
		s-8.26,5.51-12.61,7.95c-0.92,0.54-1.83,1.05-2.74,1.55s-1.82,0.97-2.74,1.44c-3.39-2.45-6.56-5.07-9.49-7.84s-5.63-5.69-8.06-8.73
		c2.24-4.84,4.47-9.69,6.71-14.54C329.08,345.9,331.32,341.02,333.57,336.13L333.57,336.13L333.57,336.13z M317.78,406.85
		c-0.92-0.95-1.97-1.75-3.12-2.38c-1.14-0.63-2.38-1.11-3.66-1.44c4.18-0.88,8.45-2.07,12.75-3.53c4.3-1.46,8.63-3.2,12.92-5.18
		c3.98,2.68,8.17,5.18,12.48,7.47c4.31,2.29,8.76,4.38,13.26,6.25c1.82,0.81,3.68,1.56,5.55,2.25c1.87,0.69,3.75,1.33,5.63,1.93
		c-0.49,0.22-0.96,0.46-1.41,0.76c-0.45,0.3-0.87,0.65-1.25,1.08c-0.7,0.65-1.27,1.45-1.66,2.35s-0.61,1.89-0.61,2.91
		c0,0.79,0.11,1.54,0.32,2.24s0.54,1.35,0.97,1.94c-0.38-0.11-0.75-0.19-1.12-0.24c-0.37-0.05-0.75-0.08-1.15-0.08
		c-1.08,0-2.07,0.22-2.97,0.59c-0.9,0.38-1.7,0.92-2.4,1.57c-0.63,0.68-1.17,1.51-1.55,2.42c-0.38,0.91-0.61,1.9-0.61,2.91
		c0,0.7,0.09,1.38,0.26,2.03c0.17,0.65,0.42,1.27,0.75,1.86c-0.27-0.11-0.58-0.19-0.88-0.24c-0.31-0.05-0.61-0.08-0.88-0.08
		c-0.79,0-1.54,0.14-2.25,0.36c-0.71,0.23-1.39,0.54-2.04,0.9c-0.32-1.17-0.8-2.3-1.42-3.34c-0.62-1.05-1.37-2.02-2.26-2.89
		c-1.28-1.28-2.8-2.31-4.51-3.03s-3.59-1.11-5.59-1.11c-1.93,0-3.79,0.37-5.48,1.06c-1.69,0.69-3.23,1.7-4.51,2.98
		c-0.05-0.95-0.3-1.88-0.69-2.73c-0.39-0.85-0.93-1.62-1.58-2.27c-0.7-0.65-1.51-1.19-2.39-1.57s-1.85-0.59-2.88-0.59
		c-0.54,0-1.05,0.05-1.54,0.15c-0.49,0.09-0.95,0.23-1.38,0.39c0.32-0.86,0.59-1.77,0.78-2.71c0.19-0.94,0.3-1.9,0.3-2.87
		c0.02-1.96-0.39-3.84-1.12-5.54C320.12,409.69,319.06,408.15,317.78,406.85L317.78,406.85L317.78,406.85z M391.58,524.39
		c-0.05-0.05-0.11-0.11-0.18-0.18c-0.07-0.07-0.15-0.15-0.26-0.26c-1.3-1.3-2.83-2.35-4.54-3.08c-1.71-0.73-3.59-1.13-5.59-1.13
		c-1.98,0-3.87,0.41-5.57,1.13c-1.71,0.73-3.24,1.78-4.52,3.08c-1.28,1.33-2.33,2.88-3.07,4.6c-0.73,1.72-1.15,3.6-1.15,5.6
		c0,0.16,0,0.34,0,0.52s0,0.36,0,0.52c-0.16-0.16-0.32-0.34-0.5-0.54s-0.37-0.4-0.58-0.62c-1.28-1.3-2.81-2.35-4.52-3.08
		c-1.71-0.73-3.59-1.13-5.57-1.13c-2,0-3.88,0.41-5.6,1.13c-1.72,0.73-3.27,1.78-4.6,3.08c-1.24,1.22-2.24,2.69-2.96,4.32
		c-0.72,1.63-1.15,3.42-1.26,5.29c-0.27-0.49-0.59-0.95-0.93-1.39c-0.34-0.45-0.71-0.88-1.09-1.31c-1.32-1.28-2.88-2.31-4.59-3.03
		c-1.72-0.72-3.59-1.11-5.54-1.11c-1.98,0-3.89,0.4-5.63,1.11c-1.74,0.72-3.31,1.75-4.61,3.03c-1.12,1.13-2.05,2.46-2.74,3.93
		c-0.69,1.47-1.14,3.08-1.3,4.79c-0.4-0.92-0.87-1.77-1.4-2.56c-0.53-0.79-1.13-1.51-1.78-2.16v-0.05v-0.05
		c-1.33-1.3-2.89-2.34-4.61-3.06c-1.72-0.72-3.61-1.12-5.59-1.12s-3.87,0.4-5.58,1.12c-1.71,0.72-3.25,1.76-4.55,3.06v0.05v0.05
		c-0.85,0.81-1.6,1.75-2.21,2.79c-0.62,1.04-1.1,2.18-1.43,3.41c-0.38-1.12-0.86-2.18-1.44-3.16c-0.59-0.99-1.28-1.9-2.09-2.71
		c-1.19-1.19-2.56-2.16-4.06-2.88c-1.51-0.72-3.15-1.17-4.88-1.34c-1.28-1.22-2.54-2.48-3.79-3.75c-1.25-1.27-2.5-2.56-3.74-3.85
		c6.09-0.65,12.28-1.8,18.46-3.4c6.17-1.6,12.33-3.66,18.35-6.1c9.08-3.82,17.85-8.59,25.76-14.17c7.91-5.58,14.96-11.96,20.6-19
		c2.36,1.13,4.72,2.27,7.11,3.37c2.39,1.1,4.8,2.17,7.27,3.18c5.66,2.36,11.39,4.48,17.16,6.38c5.77,1.9,11.59,3.56,17.41,5
		c-0.78,0.36-1.51,0.78-2.19,1.26c-0.68,0.48-1.32,1.02-1.92,1.62c-1.33,1.3-2.38,2.83-3.09,4.53c-0.71,1.7-1.09,3.57-1.09,5.55
		c0,0.47,0,0.92,0.03,1.36C391.42,523.5,391.47,523.94,391.58,524.39L391.58,524.39L391.58,524.39z M435.78,493.71
		c-1.24-1.03-2.64-1.84-4.16-2.39s-3.16-0.85-4.89-0.85c-1.93,0-3.81,0.41-5.53,1.13c-1.72,0.73-3.28,1.78-4.56,3.08
		c-0.81,0.85-1.54,1.78-2.15,2.79c-0.61,1-1.1,2.08-1.42,3.19c-7.32-1.39-14.68-3.21-22.02-5.43c-7.34-2.21-14.65-4.82-21.86-7.75
		c-5.34-2.25-10.58-4.66-15.71-7.27c-5.13-2.6-10.15-5.39-15.04-8.4c0.05-0.11,0.08-0.22,0.09-0.34c0.01-0.12,0.01-0.26,0.01-0.42
		c0-0.47-0.05-0.92-0.15-1.36s-0.23-0.87-0.39-1.31c0.49,0.22,1,0.41,1.54,0.54s1.1,0.22,1.67,0.22c1.03,0,2.03-0.22,2.93-0.6
		c0.91-0.39,1.72-0.95,2.37-1.63c0.68-0.65,1.24-1.45,1.63-2.35s0.6-1.9,0.6-2.94c0-0.58-0.05-1.13-0.18-1.67s-0.31-1.05-0.58-1.53
		c0.32,0.11,0.65,0.19,0.97,0.24c0.32,0.05,0.65,0.08,0.97,0.08c1.06,0,2.06-0.22,2.97-0.6c0.91-0.39,1.72-0.95,2.4-1.63
		c0.54-0.54,1-1.18,1.37-1.89c0.37-0.71,0.64-1.49,0.8-2.32c0.47,0.27,1,0.5,1.58,0.65c0.58,0.16,1.21,0.25,1.88,0.25
		c1.01,0,2-0.23,2.9-0.61c0.9-0.38,1.7-0.92,2.33-1.55c0.16-0.16,0.3-0.32,0.42-0.49s0.23-0.32,0.34-0.49
		c0.16,1.73,0.65,3.37,1.38,4.85c0.73,1.49,1.7,2.82,2.84,3.93c1.28,1.28,2.84,2.32,4.56,3.05c1.72,0.72,3.61,1.13,5.53,1.13
		c2,0,3.91-0.41,5.65-1.13c1.73-0.72,3.29-1.77,4.59-3.05c0.81-0.79,1.53-1.73,2.13-2.75c0.6-1.02,1.08-2.13,1.4-3.26
		c0.22,0.45,0.46,0.86,0.73,1.24c0.27,0.38,0.57,0.72,0.89,1.03c0.63,0.65,1.44,1.19,2.35,1.57c0.91,0.38,1.91,0.59,2.92,0.59
		c1.08,0,2.07-0.22,2.97-0.59c0.9-0.38,1.71-0.92,2.43-1.57c0.63-0.63,1.16-1.41,1.54-2.28c0.37-0.86,0.59-1.81,0.59-2.76h0.11h0.11
		c0.32,1.06,0.8,2.09,1.4,3.05c0.6,0.96,1.32,1.85,2.13,2.64c1.3,1.28,2.83,2.32,4.54,3.05c1.71,0.72,3.59,1.13,5.59,1.13
		c1.98,0,3.87-0.41,5.57-1.13c1.71-0.72,3.24-1.77,4.52-3.05c1.08-1.06,1.99-2.32,2.69-3.7s1.19-2.89,1.42-4.43l5.43,11.72
		l5.43,11.72c-0.16,0-0.32,0-0.47,0s-0.28,0-0.39,0c-2,0-3.88,0.41-5.59,1.13c-1.71,0.73-3.24,1.78-4.54,3.08
		c-1.33,1.28-2.41,2.83-3.15,4.54c-0.74,1.71-1.14,3.6-1.14,5.54c0,1.55,0.27,3.04,0.74,4.45S434.97,492.52,435.78,493.71
		L435.78,493.71L435.78,493.71z M400.38,376.32c-0.14-0.16-0.3-0.3-0.44-0.42s-0.28-0.23-0.39-0.34c0.74-0.22,1.43-0.5,2.08-0.89
		c0.64-0.38,1.24-0.86,1.78-1.45l8.06,17.63l8.06,17.63c-4.61,0.27-9.42,0.14-14.35-0.35c-4.93-0.48-10-1.31-15.14-2.43
		c-0.11-0.7-0.32-1.34-0.6-1.94s-0.66-1.17-1.09-1.73c2.22,0.23,4.26-0.54,5.75-1.91c1.49-1.37,2.43-3.33,2.43-5.47
		c0-1.06-0.22-2.11-0.64-3.06c-0.42-0.95-1.04-1.82-1.85-2.52c1.19,0.16,2.34,0.03,3.42-0.35c1.07-0.37,2.06-0.99,2.93-1.78
		c0.7-0.7,1.24-1.5,1.61-2.4c0.37-0.9,0.55-1.9,0.55-3c0-1.01-0.19-1.96-0.55-2.84C401.62,377.82,401.08,377.02,400.38,376.32
		L400.38,376.32L400.38,376.32z M387.64,340.22c-1.36,2.05-2.9,4.13-4.61,6.22c-1.71,2.09-3.6,4.19-5.65,6.29
		c-0.16-0.54-0.41-1.05-0.71-1.53c-0.3-0.47-0.66-0.9-1.06-1.28c-0.68-0.68-1.49-1.24-2.38-1.63s-1.89-0.6-2.95-0.6
		c-0.85,0-1.69,0.16-2.47,0.45c-0.79,0.28-1.53,0.69-2.18,1.17c0.05-0.27,0.11-0.54,0.15-0.81s0.07-0.54,0.07-0.81
		c0-1.01-0.22-2-0.6-2.91c-0.39-0.91-0.95-1.74-1.63-2.42c-0.7-0.67-1.51-1.22-2.39-1.6c-0.89-0.38-1.86-0.6-2.91-0.6
		c-0.85,0-1.68,0.14-2.45,0.39s-1.5,0.63-2.13,1.12c0.2-0.43,0.35-0.89,0.46-1.37c0.1-0.48,0.16-0.99,0.16-1.51
		c0-1.03-0.21-2.02-0.59-2.91c-0.39-0.9-0.96-1.7-1.68-2.35c-0.63-0.7-1.43-1.27-2.33-1.66s-1.89-0.61-2.9-0.61
		c-0.54,0-1.04,0.05-1.52,0.15c-0.48,0.09-0.95,0.23-1.44,0.39c0.16-0.38,0.3-0.78,0.39-1.2s0.15-0.84,0.15-1.25
		c0-1.08-0.21-2.07-0.59-2.97c-0.38-0.9-0.94-1.7-1.64-2.4c-0.32-0.31-0.7-0.59-1.1-0.86c-0.4-0.27-0.82-0.51-1.24-0.72l9.68-21.08
		l9.68-21.08c0.14-0.31,0.43-0.47,0.73-0.47c0.29,0,0.58,0.16,0.73,0.47l13.53,29.4l13.53,29.4c0.09,0.19,0.13,0.4,0.11,0.61
		C387.82,339.85,387.76,340.05,387.64,340.22z M329.07,275.59c0.68-0.85,1.19-1.78,1.52-2.77c0.33-0.99,0.48-2.02,0.46-3.07
		l3.53-1.51l3.53-1.51l4.58-1.92l4.58-1.92c0.49-0.21,0.98-0.06,1.29,0.27s0.44,0.82,0.22,1.3c-5.46,11.9-10.92,23.79-16.39,35.68
		c-5.47,11.89-10.93,23.77-16.39,35.66c-0.18,0.4-0.55,0.63-0.93,0.66c-0.38,0.04-0.79-0.12-1.04-0.48l-7.84-11.07l-7.84-11.07
		l15.36-19.12L329.07,275.59z M279.64,318.73l8.45,11.9l8.45,11.9c0.23,0.33,0.23,0.72,0.06,1.03c-0.17,0.3-0.49,0.52-0.9,0.5
		l-14.18-0.77l-14.18-0.77c-2.24-0.13-4.34,0.58-6.01,1.86s-2.88,3.15-3.33,5.34l-2.5,12.05l-2.5,12.05
		c-0.06,0.31-0.31,0.47-0.57,0.48s-0.52-0.13-0.61-0.43l-3.73-12.22l-3.73-12.22c-0.76-2.5-2.51-4.42-4.69-5.47
		c-2.18-1.05-4.77-1.24-7.21-0.29l-10.91,4.2l-10.91,4.2c-0.34,0.13-0.66,0-0.85-0.23c-0.19-0.23-0.24-0.58-0.04-0.88l7.55-11.25
		l7.55-11.25c0.74-1.1,1.22-2.33,1.42-3.61s0.13-2.6-0.23-3.88c-0.36-1.28-1-2.45-1.85-3.43c-0.85-0.99-1.92-1.79-3.12-2.33
		l-15.33-6.91l-15.33-6.91c-0.63-0.28-0.87-0.89-0.78-1.45s0.51-1.06,1.19-1.13l19.38-2.03l19.38-2.03c1.86-0.18,3.56-0.94,4.92-2.1
		s2.38-2.74,2.87-4.56l6.1-23.17l6.1-23.17c0.13-0.51,0.56-0.78,0.99-0.8c0.43-0.02,0.88,0.22,1.06,0.72l6.72,19.13l6.72,19.13
		c0.72,2.03,2.12,3.67,3.87,4.73c1.75,1.05,3.85,1.52,5.98,1.22l12.08-1.73l12.08-1.73c0.27-0.04,0.5,0.1,0.62,0.3
		s0.12,0.47-0.06,0.69l-9.84,12.23l-9.84,12.23c-1.26,1.57-1.93,3.46-1.99,5.37S278.47,317.08,279.64,318.73L279.64,318.73
		L279.64,318.73z M238,493.21c0.47,0.02,0.95,0.03,1.43,0.03s0.97,0,1.46,0c0.49,0,0.96,0,1.44,0s0.96,0,1.44,0
		c-0.23,0.52-0.47,1.04-0.7,1.54s-0.47,1.01-0.7,1.52c-0.23,0.52-0.47,1.04-0.7,1.54c-0.23,0.51-0.47,1.01-0.7,1.52
		c-0.23-0.5-0.48-1.02-0.73-1.53c-0.25-0.51-0.5-1.03-0.75-1.53c-0.25-0.52-0.5-1.04-0.75-1.55
		C238.48,494.24,238.24,493.73,238,493.21L238,493.21L238,493.21z M353.62,594.72c-0.72-0.4-1.42-0.76-2.14-1.11
		s-1.43-0.71-2.19-1.08l0.27-1.17l0.27-1.17l1.89,2.27L353.62,594.72z M327.45,580.64c-3.39-2.03-6.75-4.12-10.05-6.25
		c-3.3-2.13-6.55-4.3-9.7-6.5c0.68-0.38,1.35-0.77,1.99-1.22c0.64-0.45,1.25-0.95,1.83-1.55c1.14-1.13,2.08-2.45,2.78-3.89
		c0.7-1.44,1.16-3.02,1.32-4.68c0.38,0.9,0.84,1.76,1.36,2.54s1.11,1.51,1.74,2.14c1.3,1.3,2.87,2.35,4.61,3.08s3.65,1.13,5.63,1.13
		c1.95,0,3.83-0.41,5.55-1.13c1.72-0.73,3.28-1.78,4.58-3.08c1.23-1.22,2.24-2.66,2.97-4.27s1.16-3.38,1.21-5.27
		c0.27,0.49,0.59,0.95,0.93,1.38s0.73,0.84,1.12,1.22c1.33,1.28,2.88,2.32,4.6,3.05c1.72,0.72,3.6,1.13,5.6,1.13
		c1.98,0,3.87-0.41,5.57-1.13c1.71-0.72,3.24-1.77,4.52-3.05c1.32-1.3,2.37-2.83,3.1-4.53c0.73-1.7,1.12-3.57,1.12-5.55
		c0-0.22,0-0.41,0-0.59c0-0.19,0-0.38,0-0.59c0.16,0.22,0.32,0.44,0.5,0.65c0.18,0.21,0.37,0.4,0.58,0.54
		c1.28,1.3,2.81,2.34,4.52,3.06c1.71,0.72,3.59,1.12,5.57,1.12c2,0,3.88-0.4,5.59-1.12c1.71-0.72,3.24-1.76,4.54-3.06
		c1.33-1.3,2.38-2.83,3.09-4.52s1.09-3.56,1.09-5.52c0-0.5,0-0.97-0.03-1.42c-0.03-0.45-0.08-0.87-0.19-1.28
		c0.05,0.05,0.11,0.1,0.18,0.16s0.15,0.13,0.26,0.24c1.28,1.31,2.81,2.37,4.52,3.09c1.71,0.72,3.59,1.12,5.57,1.12
		c2,0,3.88-0.4,5.59-1.12c1.71-0.72,3.24-1.78,4.54-3.09c1.33-1.33,2.38-2.88,3.09-4.59s1.09-3.58,1.09-5.56
		c0-0.81-0.05-1.62-0.18-2.41s-0.31-1.57-0.58-2.3c1.08,0.7,2.3,1.23,3.58,1.59c1.28,0.36,2.62,0.54,3.96,0.54
		c2,0,3.91-0.4,5.64-1.11s3.28-1.75,4.56-3.03c0.05-0.05,0.11-0.14,0.18-0.22c0.07-0.08,0.15-0.16,0.26-0.22
		c4.49,0.27,8.93,0.35,13.29,0.23c4.36-0.12,8.63-0.45,12.78-0.99l-0.27,0.32l-0.27,0.32c-11.82,14.94-26.64,27.11-43.27,36.8
		s-35.05,16.92-54.11,22c-6.27,1.67-12.62,3.13-18.98,4.37C340.17,578.83,333.79,579.85,327.45,580.64L327.45,580.64L327.45,580.64z
		 M492.92,585.68c-9.81,7.56-20.43,14.18-31.65,19.94c-11.22,5.76-23.02,10.67-35.19,14.81c-8.49-1.98-17.03-4.37-25.56-7.1
		c-8.52-2.74-17.02-5.82-25.42-9.21l1.08-11.25l1.08-11.25c15.88,15.11,22.73,23.61,25.53,22.87c2.8-0.74,1.56-10.74,1.25-32.63
		c18.44,12.75,26.7,20.24,29.39,19.03c2.7-1.21-0.16-11.12-3.94-33.18l0.18-0.11l0.18-0.11c19.27,10.32,28.28,16.88,30.96,15.62
		c2.68-1.26-0.98-10.33-7.06-31.29c14.93,7.99,23.26,14.45,26.68,14.81s1.92-5.37-2.82-21.76c3.53,7.67,7.07,15.35,10.59,23.03
		c3.53,7.68,7.05,15.37,10.57,23.06c-0.97,0.79-1.96,1.6-2.95,2.4C494.86,584.16,493.87,584.94,492.92,585.68L492.92,585.68
		L492.92,585.68z M493.82,621.98c-1.32,0.81-3.03,2.01-4.79,3.2c-1.76,1.19-3.56,2.38-5.06,3.17c-5.73,0-12.62-0.52-19.39-1.27
		c-6.77-0.75-13.42-1.72-18.68-2.62c10.42-4.27,20.52-9.14,30.16-14.68c9.64-5.55,18.81-11.77,27.38-18.73l4.06,8.57l4.06,8.57
		c-1.01,1.03-1.76,1.82-2.61,2.64c-0.85,0.82-1.81,1.67-3.23,2.8c-0.63-0.59-1.38-1.05-2.21-1.36c-0.83-0.31-1.74-0.47-2.69-0.47
		c-1.05,0-2.05,0.19-2.95,0.55c-0.9,0.36-1.7,0.9-2.35,1.61c-0.68,0.7-1.24,1.5-1.63,2.4c-0.39,0.9-0.6,1.89-0.6,2.97
		c0,0.47,0.05,0.92,0.15,1.36S493.66,621.55,493.82,621.98L493.82,621.98L493.82,621.98z M114.13,431.81
		c0-22.71,2.92-44.98,8.59-66.33c5.67-21.36,14.08-41.81,25.05-60.91c0.33-0.58,0.86-0.98,1.46-1.18c0.6-0.19,1.26-0.17,1.87,0.11
		l25.2,11.35l25.2,11.35c0.62,0.28,1.04,0.81,1.22,1.41s0.09,1.27-0.29,1.84l-12.5,18.61l-12.5,18.61c-1.1,1.64-1.6,3.54-1.52,5.41
		s0.75,3.72,1.99,5.25c1.23,1.55,2.88,2.6,4.7,3.09c1.81,0.49,3.78,0.41,5.61-0.32l20.45-7.89l20.45-7.89
		c0.22-0.08,0.45-0.07,0.64,0.03s0.35,0.26,0.42,0.49l3.79,12.43l3.79,12.43c1.32,4.27,2.62,8.54,3.93,12.82s2.61,8.57,3.93,12.85
		c0.31,0.99,0.77,1.89,1.35,2.69c0.58,0.8,1.28,1.49,2.08,2.07c0.79,0.56,1.69,0.99,2.64,1.27c0.95,0.28,1.96,0.41,2.99,0.35
		c2.07-0.09,3.97-0.88,5.46-2.16c1.49-1.27,2.56-3.03,2.97-5.05l5.42-26.33l5.42-26.33c0.05-0.26,0.2-0.48,0.39-0.63
		c0.2-0.15,0.44-0.23,0.71-0.22l13.86,0.76l13.86,0.76c0.23,0.01,0.42,0.14,0.52,0.31s0.13,0.4,0.03,0.61
		c-4.35,9.51-8.7,19-13.05,28.49c-4.35,9.49-8.71,18.98-13.08,28.47c-4.42,9.63-8.84,19.27-13.27,28.92
		c-4.43,9.64-8.85,19.28-13.27,28.92c-1.05,0-2.09,0-3.14,0c-1.05,0-2.09-0.01-3.14-0.03c-1.05,0-2.09-0.01-3.14-0.02
		s-2.09-0.02-3.14-0.02c0.54-1.08,1.08-2.16,1.62-3.24c0.54-1.08,1.08-2.16,1.62-3.24c1.91-3.82,3.02-5.24,2.76-6.28
		s-1.89-1.71-5.46-4.02c-0.99-0.63-1.98-1.27-2.97-1.91c-0.99-0.64-1.98-1.28-2.97-1.91c-0.04-1.17-0.08-2.35-0.13-3.53
		s-0.09-2.36-0.13-3.53c-0.16-4.25,0.1-6-0.67-6.76c-0.77-0.77-2.56-0.55-6.83-0.87c-1.19-0.09-2.39-0.18-3.59-0.27
		s-2.41-0.18-3.62-0.27c0.78-1.31,1.56-2.64,2.34-3.97c0.78-1.33,1.57-2.66,2.34-3.99c2.42-4.09,3.84-5.64,3.66-6.76
		c-0.18-1.12-1.96-1.79-5.97-4.11c-4-2.34-5.47-3.57-6.54-3.18c-1.07,0.38-1.75,2.37-4.16,6.46c-0.78,1.33-1.56,2.66-2.34,4
		s-1.57,2.66-2.34,4c-0.67-1.01-1.33-2.02-2-3.02c-0.67-1.01-1.33-2.02-2-3.02c-2.36-3.58-3.05-5.25-4.1-5.53
		c-1.05-0.28-2.46,0.81-6.29,2.76c-1.06,0.56-2.12,1.11-3.17,1.65c-1.05,0.54-2.11,1.08-3.17,1.62c-1.03-0.54-2.05-1.08-3.08-1.62
		c-1.02-0.54-2.04-1.08-3.05-1.62c-3.71-1.94-5.07-3.01-6.1-2.71c-1.03,0.3-1.72,1.97-4.1,5.48c-0.68,0.99-1.36,1.98-2.04,2.98
		s-1.35,1.99-2.04,3c-0.78-1.33-1.54-2.67-2.31-4.02c-0.77-1.35-1.53-2.7-2.31-4.05c-2.34-4.12-2.98-6.13-4.05-6.54
		c-1.06-0.41-2.55,0.79-6.59,3.08c-4.02,2.29-5.8,2.94-6,4.06s1.2,2.69,3.55,6.82c0.78,1.35,1.54,2.69,2.3,4.03
		c0.76,1.34,1.52,2.68,2.28,4.03c-1.21,0.07-2.41,0.14-3.61,0.22s-2.4,0.14-3.61,0.22c-4.25,0.27-6.05,0.03-6.83,0.77
		c-0.78,0.74-0.56,2.47-0.78,6.68c-0.05,1.19-0.14,2.39-0.22,3.59c-0.08,1.2-0.14,2.41-0.14,3.61c-1.03,0.61-2.05,1.25-3.06,1.9
		c-1.02,0.64-2.04,1.29-3.06,1.92c-3.57,2.25-5.19,2.9-5.46,3.94c-0.27,1.04,0.82,2.48,2.68,6.32c0.52,1.08,1.05,2.17,1.57,3.26
		c0.53,1.09,1.06,2.18,1.6,3.26c-0.96-0.02-1.9-0.03-2.85-0.04c-0.95-0.01-1.89-0.02-2.85-0.04c-0.94,0-1.87-0.01-2.82-0.02
		s-1.89-0.02-2.84-0.02c-0.67-3.75-1.25-7.52-1.76-11.31c-0.5-3.79-0.93-7.61-1.27-11.45c-0.34-3.84-0.6-7.68-0.78-11.54
		S114.13,435.71,114.13,431.81L114.13,431.81L114.13,431.81z M149.5,562.02c-5.08-8.61-9.65-17.49-13.68-26.62
		c-4.03-9.12-7.52-18.49-10.44-28.05c0.79,0.52,1.58,1.04,2.36,1.54c0.78,0.51,1.57,1.01,2.36,1.52c0.79,0.5,1.58,1.01,2.36,1.52
		c0.78,0.51,1.57,1.02,2.36,1.54c-0.04,1.19-0.07,2.38-0.11,3.57s-0.09,2.38-0.14,3.57c-0.14,4.39-0.51,6.17,0.27,6.91
		c0.79,0.74,2.74,0.45,7.22,0.72c1.3,0.07,2.6,0.14,3.89,0.22s2.58,0.14,3.86,0.22c-0.74,1.26-1.48,2.51-2.22,3.76
		c-0.74,1.25-1.48,2.5-2.22,3.76c-2.51,4.25-4.03,5.9-3.91,7.08c0.12,1.18,1.89,1.89,5.96,4.27c4.06,2.39,5.53,3.59,6.62,3.13
		c1.09-0.46,1.79-2.59,4.3-6.84c0.74-1.26,1.48-2.52,2.22-3.78s1.48-2.52,2.22-3.78c0.67,1.01,1.33,2.01,2,3.01
		c0.67,1,1.33,2,2,3.01c2.38,3.58,3.06,5.26,4.11,5.55s2.45-0.81,6.27-2.77c1.06-0.54,2.13-1.08,3.2-1.62s2.14-1.09,3.22-1.65
		c1.01,0.54,2.03,1.08,3.05,1.62c1.02,0.54,2.04,1.08,3.05,1.62c3.71,1.96,5.07,3.02,6.1,2.72c1.03-0.3,1.72-1.97,4.1-5.46
		c0.68-1.01,1.37-2.01,2.05-3c0.68-0.99,1.36-1.99,2.02-2.98c0.72,1.26,1.44,2.53,2.16,3.8c0.72,1.27,1.44,2.54,2.16,3.8
		c1.5,2.63,2.16,4.77,3.04,5.93c0.87,1.16,1.96,1.33,4.28,0.01c0.49-0.29,0.98-0.58,1.48-0.86s1-0.56,1.51-0.83
		c-4.94,10.73-9.87,21.47-14.8,32.22c-4.93,10.74-9.86,21.49-14.8,32.24c-7.64-7.56-14.78-15.58-21.38-24.03
		C161.04,580.14,154.98,571.28,149.5,562.02L149.5,562.02L149.5,562.02z M328.1,681.32c0.59-0.22,1.14-0.49,1.64-0.8
		c0.5-0.31,0.96-0.66,1.39-1.04c0.38-0.38,0.7-0.8,0.99-1.25s0.53-0.93,0.74-1.41c3.44-0.32,6.86-0.68,10.26-1.05
		s6.79-0.78,10.18-1.22c0.16,0.34,0.35,0.64,0.55,0.92c0.2,0.28,0.41,0.54,0.6,0.81c0.7,0.65,1.54,1.18,2.46,1.55
		s1.91,0.58,2.92,0.58c1.03,0,2.03-0.21,2.93-0.58s1.7-0.9,2.33-1.55c0.54-0.52,1-1.12,1.35-1.76s0.59-1.32,0.7-2.03
		c2.9-0.47,5.79-0.97,8.64-1.51c2.86-0.54,5.69-1.1,8.48-1.7c0.16,0.22,0.32,0.43,0.49,0.63c0.16,0.2,0.32,0.39,0.49,0.55
		c0.68,0.7,1.49,1.26,2.38,1.64c0.9,0.38,1.89,0.59,2.95,0.59c1.05,0,2.02-0.21,2.91-0.59c0.89-0.38,1.69-0.94,2.39-1.64
		c0.59-0.54,1.07-1.18,1.43-1.9c0.36-0.72,0.59-1.52,0.7-2.39c3.12-0.76,6.22-1.54,9.28-2.35c3.06-0.81,6.08-1.63,9.04-2.48
		c0.05,0.11,0.14,0.19,0.22,0.27c0.08,0.08,0.16,0.16,0.22,0.27c0.7,0.68,1.51,1.22,2.4,1.58c0.89,0.36,1.87,0.55,2.94,0.55
		c1.05,0,2.05-0.19,2.95-0.55c0.9-0.36,1.7-0.89,2.35-1.58c0.65-0.59,1.15-1.31,1.51-2.12s0.56-1.68,0.62-2.6
		c2.49-0.79,4.92-1.6,7.29-2.43s4.68-1.66,6.91-2.51c0.05,0.05,0.14,0.11,0.22,0.18s0.16,0.15,0.22,0.26
		c0.67,0.63,1.48,1.17,2.38,1.55c0.9,0.38,1.89,0.61,2.92,0.61c1.01,0,2.01-0.23,2.93-0.61c0.92-0.38,1.76-0.92,2.44-1.55
		c0.65-0.7,1.19-1.53,1.57-2.44c0.38-0.91,0.59-1.9,0.59-2.93v-0.11v-0.11c2.47-1.06,4.91-2.13,7.29-3.21
		c2.38-1.08,4.7-2.16,6.91-3.24c0.68,0.59,1.46,1.08,2.31,1.42c0.85,0.34,1.77,0.53,2.74,0.53c1.03,0,2.02-0.22,2.93-0.59
		s1.74-0.92,2.44-1.57c0.22-0.22,0.4-0.45,0.56-0.7c0.17-0.25,0.32-0.51,0.48-0.78c2.88,0.11,5.75,0.16,8.59,0.16
		s5.65-0.05,8.43-0.16c-32.12,22.79-60.48,33.62-88.07,38.63C384,682.62,357.17,681.81,328.1,681.32L328.1,681.32L328.1,681.32z
		 M515.13,627.09c-3.44,0.4-6.93,0.71-10.46,0.94c-3.53,0.23-7.1,0.37-10.7,0.43c0.32-0.22,0.98-0.77,1.64-1.31
		c0.66-0.55,1.32-1.1,1.64-1.31c3.5,1.62,6.63,0.9,8.7-0.81c2.07-1.71,3.07-4.42,2.29-6.78c1.33-1.03,2.23-1.68,3.03-2.33
		s1.51-1.27,2.49-2.25l2.42,5.24l2.42,5.24c-0.58,0.5-1.15,1-1.73,1.49C516.28,626.12,515.7,626.61,515.13,627.09L515.13,627.09
		L515.13,627.09z M532.21,611.39l-15.07-32.48l-15.07-32.48l18.08-15.97l18.08-15.97l16.19,23.68l16.19,23.68
		c-5.35,9.04-11.25,17.71-17.66,25.98S539.62,603.96,532.21,611.39L532.21,611.39L532.21,611.39z M600.82,482.8l-12.65-5.62
		l-12.65-5.62l14.96-27.3l14.96-27.3c0.61,11.04,0.55,22.07-0.21,33.05C604.46,461,603,471.94,600.82,482.8L600.82,482.8
		L600.82,482.8z M374.74,117.8c-1.86,1.87-4.03,3.32-6.4,4.3c-2.37,0.98-4.95,1.49-7.62,1.49s-5.25-0.51-7.62-1.5
		c-2.38-0.99-4.56-2.44-6.44-4.33c-1.87-1.87-3.33-4.05-4.31-6.42c-0.98-2.37-1.5-4.92-1.5-7.55c0-2.65,0.51-5.21,1.5-7.58
		c0.99-2.37,2.45-4.55,4.34-6.42c1.86-1.87,4.03-3.32,6.4-4.3s4.95-1.49,7.62-1.49s5.25,0.51,7.62,1.49s4.55,2.43,6.4,4.3h0.02h0.02
		c1.87,1.87,3.33,4.05,4.31,6.42c0.98,2.37,1.5,4.94,1.5,7.58c0,2.63-0.51,5.19-1.5,7.57C378.1,113.74,376.64,115.92,374.74,117.8
		L374.74,117.8L374.74,117.8z M559.47,228.17c-7.68-7.87-15.73-15.23-24.11-22.06c-8.38-6.83-17.1-13.13-26.09-18.89
		c-0.37-0.24-0.44-0.64-0.31-0.96c0.13-0.32,0.46-0.56,0.9-0.48c10.97,2.13,21.24,2.02,29.94-1.43c8.7-3.45,15.83-10.26,20.51-21.54
		c2.67-6.39,1.37-12.37-2.33-21.16c-3.7-8.79-9.8-20.4-16.74-38.04c-2.97-7.56-2.12-17.01,0.19-26.7s6.07-19.63,8.9-28.18
		c11.14-33.81-18.5-49.85-55.32-47.2s-80.81,23.97-98.36,64.88c-4.87-4.65-10.47-8.25-16.55-10.69c-6.07-2.44-12.62-3.72-19.36-3.72
		c-6.65,0-13.11,1.24-19.12,3.62s-11.56,5.89-16.39,10.43C307.96,24.71,263.83,3.1,226.82,0.31s-66.91,13.23-55.69,47.16
		c2.83,8.55,6.59,18.49,8.9,28.18s3.16,19.14,0.19,26.7c-6.94,17.65-13.04,29.25-16.75,38.04c-3.7,8.79-5.01,14.77-2.36,21.16
		c4.76,11.45,12.05,18.29,20.95,21.69c8.9,3.4,19.41,3.37,30.6,1.07c0.41-0.08,0.72,0.14,0.84,0.45c0.12,0.3,0.05,0.68-0.3,0.91
		c-9.47,5.91-18.63,12.42-27.43,19.51c-8.8,7.09-17.24,14.76-25.28,22.99c-26.61,27.21-47.24,58.89-61.21,93.38
		s-21.31,71.8-21.31,110.26s7.33,75.78,21.31,110.28s34.61,66.21,61.21,93.43c26.62,27.24,57.65,48.36,91.45,62.67
		S322.29,720,359.96,720c37.71,0,74.28-7.5,108.08-21.81s64.82-35.43,91.42-62.67c26.62-27.21,47.26-58.9,61.25-93.4
		c13.98-34.51,21.31-71.83,21.31-110.31c0-38.46-7.33-75.78-21.31-110.27C606.73,287.04,586.09,255.36,559.47,228.17L559.47,228.17
		L559.47,228.17z"/>
</g>
</svg>
