<?xml version="1.0" encoding="utf-8"?>
<!-- Generator: Adobe Illustrator 24.3.0, SVG Export Plug-In . SVG Version: 6.00 Build 0)  -->
<svg version="1.1" id="Слой_1" xmlns="http://www.w3.org/2000/svg" xmlns:xlink="http://www.w3.org/1999/xlink" x="0px" y="0px"
	 viewBox="0 0 720 720" style="enable-background:new 0 0 720 720;" xml:space="preserve">
<style type="text/css">
	.st0{fill-rule:evenodd;clip-rule:evenodd;}
</style>
<g>
	<path class="st0" d="M541.01,618.51c-16.34,16.28-34.48,30.1-53.97,41.26c-19.49,11.16-40.34,19.66-62.09,25.32
		c-0.34,0.09-0.66-0.01-0.9-0.21c-0.23-0.2-0.37-0.51-0.33-0.86c1.71-13.76,3.37-31.82,2.83-51.05
		c-0.54-19.23-3.26-39.63-10.33-58.06c-2.13-5.53-4.95-10.98-8.3-16.24c-3.35-5.26-7.22-10.34-11.45-15.13
		c-0.27-0.3-0.44-0.67-0.5-1.06c-0.06-0.38-0.01-0.79,0.16-1.16l6.64-14.74l6.64-14.74c0.11-0.24,0.26-0.45,0.45-0.63
		c0.19-0.18,0.41-0.32,0.65-0.41l7.65-2.9l7.65-2.9c0.35-0.13,0.68-0.02,0.9,0.21s0.3,0.57,0.15,0.91l-8.82,19.54l-8.82,19.54
		c-1.05,2.33-1.06,4.87-0.22,7.09c0.84,2.22,2.53,4.12,4.88,5.18c2.33,1.05,4.86,1.06,7.08,0.22s4.11-2.53,5.16-4.88l12.9-28.56
		l12.9-28.56c0.1-0.22,0.24-0.42,0.42-0.59s0.38-0.29,0.61-0.38l0.69-0.26l0.69-0.26c0.31-0.12,0.64-0.11,0.94-0.01
		c0.3,0.1,0.56,0.3,0.75,0.58c2.76,4.25,6.17,8.07,10.11,11.31c3.94,3.24,8.41,5.9,13.29,7.84c0.21,0.08,0.38,0.23,0.49,0.42
		c0.11,0.19,0.15,0.41,0.11,0.63l-0.16,0.95l-0.16,0.95c-0.03,0.21-0.11,0.41-0.22,0.58c-0.11,0.18-0.25,0.33-0.42,0.45
		l-25.53,18.37l-25.53,18.37c-2.07,1.5-3.35,3.69-3.73,6.04c-0.38,2.34,0.12,4.83,1.62,6.9c1.5,2.07,3.7,3.34,6.04,3.73
		c2.34,0.38,4.83-0.12,6.9-1.62l17.12-12.31l17.12-12.31c0.42-0.31,0.93-0.28,1.3-0.04c0.38,0.23,0.62,0.67,0.54,1.19l-1.29,7.87
		l-1.29,7.87c-0.03,0.2-0.11,0.4-0.21,0.57s-0.25,0.32-0.42,0.45l-16.55,11.91l-16.55,11.91c-2.09,1.5-3.38,3.69-3.76,6.02
		c-0.39,2.34,0.12,4.82,1.62,6.91c1.5,2.07,3.7,3.34,6.05,3.73c2.35,0.38,4.85-0.12,6.94-1.62l8.84-6.35l8.84-6.35
		c0.17-0.12,0.36-0.11,0.51-0.02c0.15,0.09,0.24,0.26,0.21,0.46l-1.33,8.14l-1.33,8.14c-0.46,2.84,0.41,5.54,2.1,7.53
		c1.7,1.99,4.22,3.26,7.07,3.26c2.24,0,4.34-0.81,5.97-2.19c1.64-1.38,2.81-3.33,3.2-5.6l1.39-8.62l1.39-8.62
		c0.03-0.2,0.18-0.33,0.34-0.37c0.17-0.04,0.35,0.01,0.47,0.18l6.78,9.37l6.78,9.37c1.5,2.09,3.7,3.36,6.04,3.74
		c2.34,0.38,4.83-0.14,6.9-1.63c2.07-1.5,3.35-3.69,3.73-6.04c0.38-2.34-0.12-4.83-1.62-6.9l-12.3-17.05l-12.3-17.05
		c-0.13-0.18-0.22-0.38-0.27-0.6c-0.05-0.21-0.06-0.43-0.02-0.65l1.32-8.12l1.32-8.12c0.04-0.24,0.22-0.4,0.42-0.45
		c0.2-0.05,0.43,0.01,0.58,0.21l12.76,17.69L520,582.89c1.5,2.07,3.7,3.33,6.04,3.71c2.34,0.37,4.83-0.14,6.9-1.64
		c2.09-1.5,3.37-3.69,3.74-6.02c0.38-2.34-0.14-4.82-1.64-6.91l-18.4-25.51l-18.4-25.51c-0.1-0.15-0.18-0.31-0.22-0.48
		c-0.04-0.17-0.05-0.35-0.01-0.53l0.17-0.98l0.17-0.98c0.04-0.2,0.14-0.38,0.29-0.51s0.34-0.2,0.55-0.21
		c5.35-0.17,10.54-1.2,15.42-2.99c4.88-1.79,9.43-4.32,13.5-7.49c0.22-0.17,0.48-0.25,0.73-0.25c0.26,0,0.51,0.09,0.73,0.26
		l0.66,0.54l0.66,0.54c0.11,0.09,0.19,0.19,0.26,0.31c0.06,0.12,0.1,0.25,0.12,0.39l3.16,31.34l3.16,31.34
		c0.26,2.55,1.53,4.76,3.38,6.26c1.84,1.51,4.26,2.31,6.79,2.05c2.55-0.26,4.76-1.52,6.27-3.36c1.51-1.84,2.31-4.25,2.05-6.8
		l-2.17-21.55l-2.17-21.55c-0.03-0.3,0.13-0.54,0.35-0.66c0.22-0.12,0.51-0.12,0.74,0.07l6.63,5.39l6.63,5.39
		c0.39,0.32,0.71,0.7,0.94,1.13c0.23,0.43,0.37,0.91,0.42,1.41c0.4,4.49,1.04,13.13,1.81,21.45c0.77,8.32,1.66,16.33,2.55,19.55
		c0.09,0.32,0.1,0.65,0.04,0.96c-0.06,0.32-0.18,0.62-0.37,0.89c-4.45,6.48-9.22,12.78-14.29,18.88S546.7,612.84,541.01,618.51
		L541.01,618.51L541.01,618.51z M183.52,44.18c9.72,21.88,31.42,33.54,55.55,39.9s50.67,7.41,70.07,8.04
		c0.45,0.01,0.88-0.07,1.27-0.25c0.39-0.18,0.75-0.45,1.03-0.79c0.67-0.83,1.37-1.66,2.07-2.51c0.69-0.85,1.38-1.72,2.01-2.62
		c0.37-0.53,0.6-1.14,0.67-1.76c0.07-0.63-0.01-1.27-0.26-1.87c-4.85-11.69-12.48-22.61-22.25-31.98
		c-9.77-9.37-21.68-17.2-35.08-22.7c-9.58-3.93-32.53-8.65-51-7.95S175.16,26.48,183.52,44.18L183.52,44.18L183.52,44.18z
		 M180.64,74.12c2.5,7.7,4.55,15.12,5.3,22.33c0.75,7.22,0.19,14.24-2.53,21.17c-2.35,5.99-4.6,11.31-6.71,16.06
		c-2.11,4.76-4.07,8.95-5.83,12.68c-4.48,9.64-7.68,19.14-6.34,27.03c1.35,7.89,7.24,14.18,20.99,17.42
		c17.39,4.09,40.91-2.97,63.36-13.37s43.84-24.13,56.97-33.38c0.19-0.13,0.21-0.35,0.13-0.51c-0.08-0.16-0.27-0.28-0.49-0.22
		c-8.8,2.34-17.13,3.79-25.83,3.96c-8.69,0.16-17.75-0.96-27.98-3.78c-0.69-0.19-1.01-0.79-0.99-1.36s0.41-1.13,1.12-1.24
		c6.53-1.01,17.34-2.79,27.46-4.84c10.12-2.05,19.56-4.39,23.36-6.51c0.44-0.25,0.56-0.7,0.44-1.09s-0.48-0.69-0.98-0.65
		c-9.23,0.82-17.81,0.82-26.52-0.54c-8.71-1.37-17.54-4.11-27.26-8.77c-0.61-0.29-0.8-0.9-0.68-1.42c0.13-0.52,0.57-0.97,1.25-0.94
		c6.97,0.27,18.54,0.58,29.34,0.19c10.81-0.38,20.85-1.46,24.77-3.95c0.48-0.31,0.62-0.83,0.5-1.27s-0.51-0.81-1.08-0.81
		c-21.15,0.17-43.92-1.26-65.19-6.73c-21.27-5.48-41.03-15-56.17-31.01c-0.23-0.24-0.43-0.15-0.56,0c-0.14,0.15-0.22,0.37-0.22,0.37
		l0.19,0.6L180.64,74.12z M534.52,78.38c-15.13,8.37-36.52,15.98-58.56,21.68s-44.73,9.46-62.45,10.12
		c-0.99,0.04-1.62,0.74-1.76,1.53c-0.15,0.79,0.19,1.66,1.11,2.04c4.86,2,14.24,1.82,24.13,0.8s20.31-2.85,27.27-4.16
		c0.82-0.15,1.44,0.32,1.68,0.94s0.11,1.39-0.6,1.83c-8.17,5.16-15.83,8.66-23.52,11.01s-15.39,3.54-23.64,4.07
		c-0.79,0.05-1.26,0.62-1.34,1.24s0.21,1.3,0.96,1.55c9.15,3.15,13.86,4.95,19.72,6.43s12.84,2.61,26.52,4.44
		c0.83,0.11,1.29,0.76,1.33,1.43c0.04,0.67-0.33,1.37-1.14,1.59c-10.48,2.75-19.72,3.73-28.65,3.36c-8.93-0.37-17.53-2.08-26.73-4.7
		c-0.39-0.11-0.72,0.08-0.88,0.37c-0.16,0.29-0.14,0.67,0.17,0.94c4.97,4.32,9.02,7.74,13.45,10.98s9.24,6.29,15.74,9.86
		c9.88,5.1,19.75,9.26,29.77,12.9c10.02,3.65,20.18,6.79,30.63,9.86c6.32,1.51,12.62,3.31,18.6,4.41c5.98,1.1,11.64,1.52,16.69,0.28
		c5.49-1.35,10.13-3.69,13.98-7.09s6.9-7.84,9.21-13.38c1-2.44,0.92-5.01-0.26-8.82c-1.19-3.81-3.49-8.88-6.95-16.3
		c-1.74-3.73-3.69-7.92-5.79-12.66c-2.1-4.74-4.36-10.04-6.71-16.01c-2.26-5.78-2.87-12.13-2.43-18.68s1.9-13.32,3.77-19.93
		c0.22-0.79-0.19-1.49-0.87-1.89C536.28,78.01,535.34,77.92,534.52,78.38z M537.2,54.12c7.16-6.71,9.83-12.72,8.4-17.89
		c-1.43-5.17-6.97-9.49-16.24-12.82c-27.13-9.68-52.01-4.41-73.79,8.24c-21.78,12.65-40.46,32.68-55.21,52.53
		c-0.25,0.33-0.36,0.72-0.35,1.11c0.01,0.39,0.15,0.78,0.41,1.09l2.28,2.81l2.28,2.81c0.2,0.24,0.44,0.44,0.71,0.59
		s0.57,0.24,0.88,0.26c13.55,1.13,39.85-2.59,65.94-9.58C498.6,76.29,524.48,66.04,537.2,54.12L537.2,54.12L537.2,54.12z
		 M302.48,686.4c10.67-1.3,20.6-5.08,28.76-11.45s14.53-15.32,18.07-26.96c4.11-13.52,1.69-28.19-5.63-39.44
		s-19.54-19.1-35.06-18.97c-5.44-0.02-12.22,2.36-17.18,6.5c-4.95,4.14-8.07,10.05-6.16,17.11c0.91,3.4,3,6.12,5.6,7.87
		c2.61,1.75,5.73,2.53,8.71,2.03c4.29-0.71,6.52-1.91,8.29-3.63c1.78-1.72,3.11-3.97,5.61-6.77c0.26-0.29,0.61-0.44,0.97-0.46
		c0.36-0.02,0.72,0.1,0.99,0.37c5.72,5.63,10.11,12.45,10.21,19.88c0.09,7.43-4.12,15.48-15.6,23.58c-6.18,3.66-14.87,4.7-23.51,3.9
		c-8.64-0.8-17.22-3.44-23.17-7.15c-8.14-5.04-14.67-11.5-19.49-18.66s-7.92-15.02-9.17-22.87c-0.98-5.96-0.95-14.28,0.27-22.3
		s3.63-15.73,7.42-20.48c0.4-0.5,0.92-0.86,1.5-1.07c0.58-0.21,1.21-0.27,1.84-0.17c14.37,2.43,34.05,6.09,53.07,10.5
		c19.03,4.4,37.4,9.55,49.15,14.93c20.88,8.64,33.72,23.8,40.95,41.31c7.23,17.51,8.85,37.37,7.3,55.41
		c-0.04,0.41-0.21,0.79-0.49,1.07c-0.27,0.28-0.64,0.48-1.05,0.53c-15.36,2.07-30.89,2.76-46.36,2.07c-15.47-0.69-30.88-2.75-46-6.2
		c-0.23-0.05-0.32-0.16-0.28-0.26S302.22,686.43,302.48,686.4z M108.3,480.13c12.02,18.69,28.14,35.75,47.02,49.73
		c18.89,13.97,40.54,24.87,63.64,31.23c0.52,0.14,0.9,0.52,1.08,0.97c0.18,0.45,0.15,0.98-0.13,1.45
		c-8.92,14.66-12.41,31.57-10.61,48.17c1.81,16.59,8.91,32.87,21.19,46.26c0.15,0.16,0.18,0.29,0.13,0.35
		c-0.05,0.06-0.19,0.05-0.38-0.06c-9.25-5.44-18.19-11.48-26.76-18.1s-16.78-13.83-24.57-21.61c-19.01-18.97-34.67-40.4-46.67-63.57
		s-20.34-48.09-24.72-74.04c-0.08-0.45,0.02-0.81,0.18-0.97C107.86,479.77,108.09,479.81,108.3,480.13z M164.54,278.53
		c0.43,0.5,0.94,0.95,1.52,1.37c0.58,0.42,1.23,0.8,1.97,1.14c3.99,1.9,9.34,0.23,14.67-2.42c5.34-2.65,10.66-6.28,14.62-8.29
		c5.53-2.75,11.93-5.87,18.47-8.92s13.21-6.02,19.3-8.48c3.03-1.24,5.92-2.32,8.16-2.43c2.24-0.12,3.83,0.73,4.27,3.36
		c0.57,3.31,1.74,6.78,3.34,10.26c1.6,3.48,3.65,6.97,5.98,10.32c-1.24,1.03-2.52,2.04-3.81,3.03c-1.29,0.99-2.59,1.97-3.89,2.95
		c-7.01,5.29-13.71,10.62-18.05,16.92c-4.34,6.3-6.33,13.57-3.91,22.75c0.13,0.5-0.1,0.92-0.46,1.14c-0.36,0.21-0.84,0.22-1.23-0.13
		c-11.08-10.06-26.2-15.14-41.81-16.08c-15.61-0.94-31.71,2.28-44.75,8.83c-0.59,0.3-1.2,0.13-1.57-0.26c-0.38-0.39-0.53-1-0.2-1.58
		c3.43-6.16,6.89-11.94,10.72-17.43s8.05-10.7,12.99-15.71c0.39-0.39,1.17-0.63,1.93-0.68S164.27,278.23,164.54,278.53z
		 M466.92,462.89c0.67-4.08,2.11-7.92,4.23-11.33c2.12-3.42,4.91-6.42,8.28-8.84c3.14-2.25,7.02-4.02,11.06-5.02
		c4.05-1,8.26-1.23,12.09-0.42c4.11,0.67,7.95,2.11,11.38,4.22c3.43,2.12,6.43,4.9,8.85,8.27c2.42,3.36,4.11,7.08,5.02,10.99
		c0.91,3.9,1.05,7.99,0.38,12.07c-1.37,8.39-6.02,15.44-12.44,20.08c-6.42,4.63-14.6,6.84-23.03,5.53
		c-8.49-1.68-15.65-6.21-20.34-12.49C467.71,479.66,465.5,471.61,466.92,462.89L466.92,462.89L466.92,462.89z M453.16,357.29
		c0.77-0.38,1.55-0.77,2.33-1.16c0.78-0.4,1.57-0.81,2.35-1.23c0.22-0.12,0.42-0.05,0.53,0.11s0.14,0.42,0.03,0.69
		c-0.58,1.43-0.8,2.98-0.63,4.52c0.17,1.54,0.72,3.06,1.69,4.41l18.47,25.57l18.47,25.57c0.07,0.1,0.13,0.22,0.15,0.34
		c0.03,0.12,0.03,0.25,0.01,0.37l-0.1,0.63l-0.1,0.63c-0.03,0.18-0.12,0.33-0.25,0.45s-0.29,0.18-0.48,0.19
		c-5.31,0.2-10.49,1.26-15.39,3.09c-4.89,1.83-9.49,4.43-13.63,7.72c-0.34,0.27-0.76,0.41-1.17,0.41c-0.41,0-0.83-0.14-1.16-0.41
		l-0.18-0.15l-0.18-0.15c-0.17-0.14-0.31-0.31-0.42-0.51c-0.1-0.19-0.17-0.4-0.19-0.63l-3.18-31.22l-3.18-31.22
		c-0.15-1.43-0.61-2.76-1.31-3.91c-0.71-1.15-1.65-2.12-2.77-2.86c-0.16-0.11-0.2-0.36-0.14-0.61
		C452.78,357.65,452.93,357.4,453.16,357.29z M263.77,329.17c0.16,1.72,0.43,4.23,0.78,6.69c0.35,2.46,0.79,4.88,1.3,6.44
		c0.13,0.41-0.04,0.77-0.32,0.97c-0.28,0.2-0.69,0.23-1.02-0.03c-4.43-3.43-8.56-6.99-12.07-10.54c-3.51-3.54-6.4-7.07-8.37-10.41
		c-0.2-0.34-0.13-0.7,0.09-0.95c0.21-0.25,0.57-0.38,0.94-0.25c2.48,0.91,5.13,1.79,7.85,2.66c2.72,0.87,5.5,1.71,8.25,2.53
		c0.4,0.12,1.02,0.55,1.55,1.09C263.27,327.93,263.71,328.59,263.77,329.17z M285.79,345.4c-2.78-1.44-4.6-4.22-5.73-7.44
		c-1.14-3.22-1.59-6.88-1.64-10.08c-0.01-0.64,0.31-1.19,0.78-1.51c0.47-0.32,1.09-0.42,1.69-0.18c1.85,0.75,3.76,1.57,5.74,2.48
		c1.98,0.9,4.03,1.88,6.17,2.96c0.92,0.47,2.54,1.43,4.66,2.78s4.73,3.1,7.64,5.14c0.59,0.42,0.86,1.08,0.82,1.72
		c-0.04,0.64-0.39,1.26-1.04,1.59c-3.82,1.95-7.46,3.16-10.7,3.6C290.91,346.89,288.06,346.56,285.79,345.4L285.79,345.4
		L285.79,345.4z M314.88,355.84c3.26,2.39,6.63,4.9,9.9,7.39c3.27,2.5,6.44,4.98,9.31,7.3c0.34,0.28,0.41,0.69,0.27,1.03
		c-0.13,0.34-0.46,0.6-0.9,0.58c-6.03-0.28-12.66-1.42-19.16-3.12s-12.88-3.96-18.44-6.5c-0.34-0.15-0.47-0.48-0.43-0.78
		c0.04-0.3,0.27-0.58,0.64-0.63c2.58-0.35,5.24-0.98,7.95-1.88c2.71-0.9,5.48-2.08,8.27-3.54c0.23-0.12,0.78-0.16,1.32-0.14
		C314.15,355.61,314.68,355.7,314.88,355.84z M268.85,288.06c1.6,1.44,3.22,2.78,4.85,3.98s3.25,2.27,4.85,3.19
		c8.4,4.75,14.69,6.51,19.49,6.04c4.79-0.48,8.09-3.19,10.47-7.4c2-3.57,2.51-7.82,2.6-12.2s-0.23-8.88,0.1-12.92
		c1.34-16.52,6.64-28.06,13.24-36.66c6.6-8.6,14.49-14.26,21.01-19.01c1.07-0.78,2.32-0.63,3.19,0.02c0.87,0.65,1.36,1.81,0.91,3.05
		c-5.49,15.06-7.26,27.97-5.47,40.96c1.8,12.99,7.18,26.06,16,41.45c0.15,0.26,0.23,0.55,0.23,0.84c0,0.29-0.07,0.58-0.22,0.84
		c-2.69,4.72-6.08,11.06-8.77,17.1c-2.69,6.05-4.7,11.8-4.62,15.35c0.04,1.88,0.28,3.96,0.62,6.17c0.35,2.21,0.8,4.54,1.26,6.95
		c0.32,1.67,0.67,3.49,1,5.37c0.33,1.88,0.63,3.81,0.85,5.7c0.04,0.36-0.16,0.64-0.44,0.77s-0.62,0.09-0.86-0.19
		c-2-2.24-4.38-4.7-7.23-7.38c-2.85-2.68-6.16-5.6-10-8.78c-6.66-5.49-13.57-10.62-19.43-14.69c-5.85-4.06-10.64-7.06-13.05-8.26
		c-10.45-5.24-19.03-8.57-27.27-10.85s-16.15-3.51-25.25-4.55c-0.28-0.03-0.48-0.22-0.57-0.45c-0.09-0.23-0.05-0.5,0.14-0.7
		c2.55-2.58,5.51-5,8.57-7.36c3.06-2.35,6.22-4.64,9.17-6.95c0.37-0.29,1.32-0.33,2.27-0.22
		C267.47,287.41,268.44,287.69,268.85,288.06z M241,212.84c10.01-3.99,19.29-8.37,28.23-13.37s17.54-10.63,26.18-17.11
		c1.24-0.93,2.46-1.87,3.66-2.81c1.2-0.94,2.38-1.88,3.54-2.83c0.35-0.29,0.77-0.2,1.02,0.04c0.25,0.25,0.34,0.66,0.06,1.02
		c-3.47,4.39-6.79,9.11-9.74,14.03c-2.96,4.92-5.56,10.04-7.6,15.23c-0.34,0.88,0.06,1.66,0.7,2.05c0.64,0.39,1.52,0.38,2.14-0.33
		c7.11-8.16,13.39-14.18,19.31-19.18s11.48-8.97,17.17-13.02c0.4-0.29,0.84-0.16,1.09,0.12c0.25,0.29,0.32,0.73-0.01,1.1
		c-2.5,2.72-4.92,5.61-7.2,8.84c-2.28,3.23-4.41,6.8-6.32,10.88c-0.47,1.01-0.1,2,0.6,2.55c0.7,0.56,1.74,0.69,2.61-0.01
		c3.66-2.95,8.41-6.62,13.27-10.34c4.87-3.72,9.85-7.48,13.98-10.63c0.85-0.64,1.81-0.43,2.41,0.17c0.6,0.59,0.82,1.55,0.17,2.4
		c-2.39,3.13-5.01,6.01-7.75,8.79s-5.61,5.44-8.49,8.12c-8.45,7.87-17.03,15.84-23.88,26.45c-6.84,10.61-11.95,23.87-13.44,42.3
		c-0.13,1.43-0.17,2.86-0.18,4.29c-0.01,1.43,0.03,2.86,0.06,4.28c0.04,1.71-0.96,3.02-2.28,3.62c-1.32,0.6-2.96,0.47-4.21-0.7
		c-2.73-2.57-5.73-5.77-8.23-8.64c-2.51-2.87-4.53-5.41-5.32-6.66c-2.42-3.9-4.48-8.09-6.12-12.34s-2.83-8.54-3.54-12.64
		c-1.02-5.91-5.17-8.44-11.34-8.57c-6.17-0.13-14.37,2.14-23.46,5.84c-4.74,1.91-9.95,4.18-15.23,6.6s-10.63,4.97-15.67,7.43
		c-1.19,0.58-2.38,0.18-3.08-0.64s-0.92-2.05-0.17-3.13c6.96-10,14.87-16.76,22.97-21.8C225,219.21,233.29,215.91,241,212.84
		L241,212.84L241,212.84z M445.58,238.07c-0.7,4.12-1.39,7.88-2.2,11.25c-0.81,3.37-1.74,6.35-2.95,8.92
		c-0.58,1.26-2.44,3.86-4.79,6.61c-2.35,2.75-5.21,5.66-7.79,7.51c-0.73,0.52-1.6,0.53-2.29,0.18c-0.69-0.35-1.2-1.05-1.2-1.94
		c0-2.12,0.08-4.24,0.12-6.37s0.04-4.26-0.14-6.4c-1.54-18.51-6-30.92-11.89-40.26c-5.89-9.33-13.19-15.59-20.4-21.78
		c-2.69-2.29-5.26-4.52-7.66-6.88c-2.4-2.36-4.62-4.85-6.61-7.66c-0.3-0.42-0.2-0.89,0.08-1.19c0.28-0.3,0.75-0.43,1.18-0.15
		c4.19,2.64,8.59,5.17,13.33,8.58c4.75,3.4,9.84,7.67,15.44,13.78c0.32,0.35,0.77,0.35,1.09,0.14c0.32-0.21,0.52-0.61,0.34-1.06
		c-2.39-5.96-5.22-10.88-8.31-15.2s-6.45-8.03-9.89-11.57c-0.17-0.17-0.13-0.39-0.01-0.52c0.12-0.14,0.33-0.2,0.53-0.06
		c6.72,4.84,13.16,9.25,20.05,15.01c6.9,5.76,14.26,12.87,22.84,23.1c0.31,0.37,0.76,0.39,1.09,0.21c0.34-0.18,0.56-0.57,0.41-1.02
		c-1.17-3.57-2.64-7.12-4.33-10.61s-3.6-6.92-5.67-10.26c-0.22-0.35-0.13-0.72,0.11-0.96c0.23-0.24,0.61-0.33,0.96-0.12
		c6.25,3.76,12.27,6.79,18.49,9.45c6.22,2.66,12.63,4.95,19.67,7.23c11.4,3.68,22.86,7.53,33.25,12.88
		c10.39,5.35,19.69,12.21,26.79,21.88c1.03,1.4,0.78,3.04-0.13,4.13c-0.9,1.1-2.46,1.66-4.04,0.92c-1.06-0.49-2.15-1-3.25-1.52
		c-1.1-0.52-2.22-1.04-3.35-1.58c-7.64-3.62-15.78-7.47-23.57-10.69s-15.23-5.79-21.49-6.86c-6.36-1.09-11.79-0.88-15.89,1.11
		C449.41,228.31,446.63,232.07,445.58,238.07L445.58,238.07L445.58,238.07z M371.46,134.11c-1.9,1.9-4.13,3.39-6.57,4.4
		c-2.44,1.01-5.08,1.55-7.82,1.55c-2.72,0-5.36-0.54-7.81-1.55s-4.69-2.51-6.62-4.43c-1.92-1.9-3.41-4.13-4.42-6.56
		c-1.01-2.43-1.53-5.06-1.53-7.78c0-2.73,0.53-5.38,1.53-7.81c1.01-2.43,2.5-4.66,4.42-6.56c1.92-1.92,4.17-3.41,6.62-4.42
		s5.09-1.53,7.81-1.53c2.74,0,5.38,0.53,7.82,1.53s4.67,2.49,6.57,4.42c1.9,1.79,3.4,4.08,4.42,6.58c1.02,2.49,1.57,5.19,1.57,7.8
		c0,2.7-0.54,5.32-1.55,7.75C374.88,129.92,373.38,132.17,371.46,134.11L371.46,134.11L371.46,134.11z M394.47,346.95
		c-0.67-1.84-0.86-3.75-0.82-5.69s0.3-3.91,0.53-5.87c0.15-1.39,0.3-2.8,0.4-4.24c0.11-1.45,0.17-2.92,0.15-4.44
		c-0.07-4.14-2.23-9.8-5.19-15.41c-2.96-5.61-6.72-11.17-10.01-15.11c-13.58-20.18-18.51-32.79-18.31-45.32
		c0.2-12.53,5.53-25,12.48-44.9c0.07-0.21,0.36-0.36,0.67-0.42c0.31-0.06,0.65-0.03,0.82,0.12c9.59,8.64,16.65,14.67,21.61,22.23
		c4.96,7.56,7.83,16.65,9.03,31.42c0.35,4.06,0,8.54,0.08,12.91c0.08,4.37,0.59,8.63,2.66,12.25c2.37,4.17,5.64,6.87,10.42,7.34
		c4.78,0.47,11.07-1.28,19.46-6.01c5.09-2.86,9.19-6.13,12.53-10c3.33-3.87,5.89-8.35,7.86-13.61c0.09-0.25,0.36-0.47,0.64-0.58
		c0.28-0.12,0.57-0.13,0.7,0.02c3.39,3.93,6.72,6.69,10.44,8.92c3.72,2.23,7.81,3.94,12.73,5.79c1.94,0.73,3.84,1.44,5.58,2.2
		c1.74,0.75,3.32,1.54,4.63,2.43c0.15,0.1,0.08,0.33-0.09,0.56c-0.18,0.23-0.46,0.45-0.74,0.53c-18.25,5.13-37.63,12.72-54.85,23.33
		s-32.26,24.25-41.83,41.5c-0.15,0.27-0.49,0.41-0.82,0.42C394.88,347.33,394.56,347.21,394.47,346.95z M476.14,323.57
		c0.46-2.57,0.51-5.07,0.21-7.54c-0.3-2.47-0.94-4.9-1.86-7.35c-0.02-0.04,0.01-0.15,0.07-0.25c0.05-0.1,0.12-0.2,0.18-0.24
		c2.98-1.88,6.7-3.57,10.39-5c3.69-1.43,7.34-2.61,10.17-3.48c0.09-0.03,0.21-0.02,0.29,0.01c0.08,0.03,0.14,0.08,0.12,0.13
		c-1.99,4.14-4.74,8.28-8.02,12.31c-3.28,4.03-7.09,7.94-11.22,11.64c-0.07,0.07-0.16,0.06-0.23,0.01
		C476.17,323.76,476.12,323.67,476.14,323.57z M482.6,340.75l10.54,14.61l10.54,14.61c0.12,0.17,0.21,0.36,0.25,0.55
		c0.05,0.2,0.05,0.4,0.02,0.61l-1.4,8.56l-1.4,8.56c-0.06,0.37-0.32,0.6-0.63,0.68c-0.3,0.07-0.65-0.02-0.86-0.32l-12.56-17.42
		l-12.56-17.42c-0.78-1.08-1.76-1.94-2.84-2.57s-2.27-1.03-3.49-1.19c-0.28-0.04-0.46-0.22-0.52-0.44s0.01-0.46,0.25-0.61
		c2.11-1.37,4.22-2.8,6.31-4.3c2.09-1.5,4.16-3.06,6.19-4.67c0.17-0.13,0.71,0.06,1.21,0.29
		C482.15,340.49,482.6,340.75,482.6,340.75z M434.73,325.82c1.73-1.48,6.67-4.86,11.64-8.12c4.98-3.26,9.99-6.42,11.87-7.47
		c0.1-0.06,0.26-0.07,0.39-0.05c0.14,0.02,0.25,0.07,0.28,0.13c1.86,3.99,3.04,7.74,2.57,11.11s-2.58,6.33-7.32,8.75
		c-3.84,1.94-7.36,2.62-10.6,2.04c-3.24-0.58-6.21-2.42-8.95-5.55c-0.06-0.07-0.08-0.23-0.06-0.41
		C434.57,326.09,434.63,325.91,434.73,325.82z M414.62,350.69c1.64-1.46,4.03-3.25,6.43-4.98c2.4-1.73,4.8-3.42,6.46-4.66
		c0.12-0.09,0.26-0.13,0.4-0.13c0.14,0,0.28,0.05,0.4,0.15c1.7,1.34,3.47,2.47,5.31,3.38c1.84,0.91,3.73,1.61,5.68,2.08
		c0.16,0.04,0.25,0.17,0.25,0.3c0.01,0.13-0.06,0.27-0.22,0.33c-4.52,1.69-8.5,3.1-12.42,3.9c-3.92,0.8-7.79,1-12.08,0.28
		c-0.15-0.03-0.26-0.14-0.3-0.26C414.48,350.94,414.51,350.8,414.62,350.69z M438.48,367.16l2.06,20.18l2.06,20.18
		c0.08,0.79-0.34,1.44-0.93,1.76c-0.59,0.32-1.36,0.32-1.98-0.19l-5.1-4.15l-5.1-4.15c-0.44-0.36-0.81-0.8-1.07-1.3
		c-0.27-0.49-0.44-1.04-0.49-1.61l-1.47-14.58l-1.47-14.58c-0.07-0.69,0.13-1.36,0.51-1.88c0.38-0.53,0.96-0.92,1.64-1.06
		c2.02-0.42,4-0.87,5.91-1.35c1.91-0.48,3.74-0.98,5.46-1.48c0.13-0.04,0.24,0,0.32,0.09c0.07,0.08,0.11,0.2,0.07,0.33
		c-0.18,0.59-0.31,1.2-0.38,1.83C438.42,365.85,438.42,366.5,438.48,367.16L438.48,367.16L438.48,367.16z M399.92,604.26
		c-19.63-25.31-48.72-37.84-75.9-44.58c-27.18-6.74-52.46-7.69-64.45-9.82c-0.95-0.17-1.59-0.85-1.81-1.65
		c-0.22-0.8-0.02-1.72,0.71-2.35c13.98-12.08,29.03-19.01,44.04-21.39c15.01-2.38,29.99-0.22,43.83,5.88
		c11.01,4.85,24.56,15.97,35.39,29.52c10.84,13.55,18.96,29.52,19.14,44.08c0,0.26-0.16,0.44-0.36,0.51
		C400.32,604.52,400.08,604.47,399.92,604.26z M380.54,528.15c-0.76-0.63-1.52-1.24-2.29-1.85c-0.77-0.61-1.55-1.21-2.33-1.81
		c-0.12-0.09-0.16-0.23-0.15-0.36c0.02-0.13,0.1-0.25,0.24-0.3l4.19-1.57l4.19-1.57c0.15-0.06,0.3-0.01,0.39,0.09
		c0.09,0.1,0.13,0.25,0.06,0.39l-1.52,3.34l-1.52,3.34c-0.11,0.25-0.33,0.41-0.56,0.46C381.01,528.37,380.75,528.32,380.54,528.15z
		 M447.78,476.86l-0.51,0.2l-0.51,0.2c-0.34,0.13-0.71,0.19-1.07,0.18c-0.36-0.01-0.72-0.09-1.06-0.24l-28.47-12.79l-28.47-12.79
		c-2.33-1.05-4.86-1.06-7.08-0.22c-2.21,0.84-4.11,2.53-5.16,4.88c-1.05,2.33-1.06,4.86-0.22,7.07s2.53,4.11,4.88,5.16l19.78,8.89
		l19.78,8.89c0.27,0.12,0.4,0.37,0.39,0.62c-0.01,0.25-0.15,0.49-0.43,0.6l-7.81,2.96l-7.81,2.96c-0.2,0.08-0.42,0.11-0.63,0.11
		s-0.43-0.05-0.63-0.14l-18.96-8.52l-18.96-8.52c-2.35-1.05-4.89-1.05-7.11-0.21s-4.11,2.54-5.17,4.86
		c-1.05,2.33-1.06,4.87-0.22,7.09c0.84,2.22,2.53,4.12,4.88,5.18l9.9,4.46l9.9,4.46c0.33,0.15,0.48,0.46,0.47,0.76
		c-0.01,0.3-0.19,0.59-0.53,0.71c-2.8,0.98-6.79,2.28-10.46,3.77s-7.03,3.15-8.59,4.85c-0.12,0.14-0.31,0.22-0.5,0.25
		c-0.19,0.03-0.4,0.01-0.56-0.08c-1.22-0.62-2.43-1.2-3.64-1.75s-2.4-1.06-3.59-1.54c-25.39-10.18-47.31-8.65-64.44-3.38
		c-17.13,5.26-29.48,14.25-35.71,18.96c-0.58,0.44-1.28,0.6-1.94,0.5s-1.28-0.46-1.7-1.06c-4.59-6.49-12.25-17.32-16.09-29.9
		c-3.84-12.58-3.86-26.91,6.81-40.39c3.85-4.88,8.39-8.65,13.52-10.93s10.86-3.08,17.07-2c4.4,0.74,8.59,2.02,12.21,2.47
		s6.67,0.05,8.8-2.58c6.01-7.39-8.45-18.36-27.07-20.63s-41.39,4.16-52.01,31.57c-7.46,19.31-5.88,36.71-0.53,51.84
		s14.48,27.96,22.12,38.14c0.25,0.34,0.21,0.74,0,1.02c-0.21,0.28-0.58,0.44-0.98,0.29c-3.73-1.35-7.14-2.59-10.59-3.95
		c-3.44-1.35-6.92-2.81-10.79-4.58c-22.19-10.1-42.31-22.89-58.29-37.87s-27.8-32.18-33.4-51.09c-8.3-27.97-5.51-57.67,6.26-80.29
		c11.77-22.62,32.51-38.14,60.1-37.75c7.82,0.09,15.9,2.24,22.21,6.84c6.32,4.6,10.87,11.66,11.67,21.58
		c0.76,9.46-3.89,18.81-10,24.3s-13.67,7.09-18.74,1.05c7.36-2.83,9.7-10.65,7.49-17.52s-8.98-12.79-19.84-11.81
		c-17,1.55-24.37,14.93-23.1,28.7c1.28,13.78,11.21,27.95,28.83,31.11c17.7,3.15,34.84-5.47,46.22-19.21s17.02-32.6,11.7-49.95
		c-0.12-0.38,0.06-0.7,0.32-0.86c0.27-0.16,0.63-0.16,0.9,0.13c6.92,7.27,15.62,14.08,24.25,19.88s17.19,10.59,23.83,13.81
		c6.92,3.34,15.1,6.23,23.39,8.27c8.29,2.05,16.7,3.26,24.06,3.26c5.22,0,10.91-0.59,15.88-2.51s9.2-5.17,11.49-10.49
		c1.94-4.51,2.32-9.84,1.98-15.26c-0.34-5.42-1.41-10.94-2.35-15.81c-0.41-2.05-0.8-4.05-1.09-5.84c-0.3-1.8-0.5-3.39-0.54-4.65
		c0.16-1.56,1.44-4.9,3.23-8.88c1.79-3.98,4.1-8.61,6.32-12.74c0.1-0.18,0.28-0.28,0.46-0.29c0.18-0.01,0.37,0.07,0.49,0.25
		c1.92,2.91,3.86,6.22,5.33,9.17c1.47,2.94,2.46,5.52,2.48,6.95c0.02,1.05-0.03,2.15-0.12,3.29c-0.09,1.14-0.22,2.31-0.37,3.51
		c-0.68,6.32-0.64,12.96,1.28,18.74c1.91,5.78,5.7,10.69,12.48,13.55c1.6,0.64,3.38,1.13,5.34,1.49c1.96,0.36,4.1,0.57,6.41,0.66
		c0.39,0.01,0.75,0.17,1.03,0.42c0.27,0.25,0.46,0.59,0.5,0.98l0.57,5.56l0.57,5.56c0.04,0.44-0.19,0.79-0.51,0.96
		s-0.75,0.17-1.09-0.1l-6.02-4.9l-6.02-4.9c-2-1.61-4.46-2.26-6.82-2.02c-2.36,0.24-4.63,1.38-6.24,3.35
		c-1.63,1.98-2.29,4.43-2.06,6.8c0.24,2.36,1.37,4.64,3.35,6.24l5.81,4.73l5.81,4.73c0.32,0.26,0.4,0.65,0.3,0.98
		c-0.1,0.33-0.38,0.61-0.79,0.65l-10.4,1.05l-10.4,1.05c-2.55,0.26-4.75,1.52-6.25,3.36c-1.5,1.84-2.29,4.25-2.03,6.8
		c0.24,2.55,1.51,4.75,3.35,6.24c1.84,1.5,4.25,2.29,6.79,2.03l19.92-2l19.92-2c0.53-0.05,1.06,0,1.56,0.15
		c0.5,0.15,0.97,0.4,1.39,0.73l5.26,4.28l5.26,4.28c0.67,0.54,0.84,1.35,0.63,2.05c-0.21,0.7-0.8,1.28-1.65,1.36l-20.08,2.02
		l-20.08,2.02c-2.55,0.26-4.76,1.52-6.27,3.36s-2.31,4.25-2.05,6.8c0.26,2.55,1.54,4.75,3.38,6.24c1.84,1.5,4.26,2.29,6.79,2.03
		l31.2-3.13l31.2-3.13c0.29-0.03,0.57,0,0.84,0.08c0.27,0.08,0.52,0.21,0.75,0.39l0.34,0.28l0.34,0.28
		c0.24,0.19,0.39,0.45,0.44,0.73c0.06,0.28,0.02,0.58-0.11,0.85c-1.13,2.24-2.1,4.58-2.89,7c-0.79,2.42-1.4,4.91-1.81,7.45
		c-0.43,2.64-0.64,5.26-0.64,7.86c0,2.59,0.21,5.16,0.61,7.67c0.03,0.18-0.17,0.54-0.38,0.85
		C448,476.59,447.78,476.86,447.78,476.86z M609.22,381.13c-1.4,0.29-2.73,0.91-3.86,1.8s-2.07,2.07-2.69,3.48l-8.72,19.3
		l-8.72,19.3c-0.07,0.15-0.16,0.28-0.28,0.39c-0.12,0.11-0.25,0.19-0.4,0.25l-8.22,3.11l-8.22,3.11c-0.23,0.09-0.46,0.01-0.6-0.14
		s-0.2-0.38-0.1-0.61l8.97-19.86l8.97-19.86c1.05-2.35,1.05-4.89,0.21-7.1c-0.85-2.22-2.54-4.11-4.87-5.16
		c-2.33-1.05-4.87-1.06-7.1-0.23s-4.13,2.52-5.18,4.84l-12.97,28.75l-12.97,28.75c-0.05,0.12-0.13,0.22-0.22,0.31
		c-0.09,0.09-0.2,0.16-0.32,0.2l-0.62,0.23l-0.62,0.23c-0.16,0.06-0.32,0.06-0.47,0.01s-0.28-0.15-0.36-0.29
		c-0.31-0.51-0.64-1-0.97-1.5c-0.33-0.5-0.68-0.99-1.03-1.48c-2.87-4-6.26-7.49-10.07-10.4c-3.81-2.92-8.02-5.26-12.54-6.96
		c-0.2-0.08-0.36-0.22-0.47-0.39c-0.1-0.18-0.14-0.39-0.1-0.6l0.1-0.58l0.1-0.58c0.02-0.13,0.07-0.25,0.14-0.36
		c0.07-0.11,0.16-0.2,0.26-0.28l25.61-18.41l25.61-18.41c2.09-1.5,3.38-3.69,3.76-6.04c0.39-2.34-0.12-4.83-1.62-6.9
		c-1.5-2.09-3.7-3.36-6.05-3.74c-2.35-0.38-4.85,0.14-6.94,1.63l-17.48,12.55l-17.48,12.55c-0.29,0.21-0.64,0.19-0.89,0.03
		c-0.26-0.16-0.43-0.46-0.37-0.81l1.4-8.59l1.4-8.59c0.03-0.2,0.11-0.4,0.21-0.57s0.25-0.32,0.42-0.44l16.84-12.1l16.84-12.1
		c2.09-1.5,3.37-3.69,3.74-6.04c0.38-2.35-0.14-4.84-1.64-6.93c-1.5-2.07-3.69-3.34-6.03-3.73c-2.34-0.38-4.83,0.12-6.92,1.62
		l-8.77,6.31l-8.77,6.31c-0.3,0.21-0.65,0.19-0.91,0.03c-0.26-0.16-0.44-0.47-0.38-0.83l1.21-7.44l1.21-7.44
		c0.43-2.53-0.22-4.98-1.61-6.9c-1.39-1.92-3.51-3.32-6.05-3.74c-2.53-0.41-4.99,0.25-6.92,1.64c-1.93,1.39-3.32,3.51-3.73,6.05
		l-1.11,6.85l-1.11,6.85c-0.09,0.58-0.51,0.96-1,1.07c-0.48,0.11-1.03-0.04-1.37-0.51l-5.17-7.18l-5.17-7.18
		c-0.28-0.4-0.41-0.86-0.38-1.32c0.03-0.46,0.21-0.91,0.53-1.27c2.87-3.23,5.5-6.58,7.81-10.03s4.29-6.99,5.87-10.6
		c2.98-6.78,3.63-12.61,3.07-17.47c-0.57-4.86-2.36-8.75-4.29-11.65c-2.37-3.55-5.59-6.09-9.13-8.08
		c-3.53-1.99-7.37-3.43-10.96-4.78c-5.09-1.92-8.75-3.55-11.77-5.61c-3.02-2.06-5.39-4.54-7.89-8.16c-0.74-1.07-0.6-2.31,0.03-3.19
		c0.63-0.88,1.76-1.41,3-1.04c5.76,1.73,11.94,4.3,17.91,7.02c5.97,2.73,11.74,5.6,16.69,7.94c3.87,1.85,7.6,3.62,11.12,5.22
		s6.83,3.03,9.85,4.2c4.64,1.79,8.85,2.72,12.5,2.49c3.65-0.23,6.75-1.63,9.17-4.49c14.04,11.91,27.1,31.61,37.66,52.7
		c10.56,21.09,18.62,43.58,22.66,61.07c0.03,0.11,0,0.21-0.05,0.3C609.42,381.04,609.33,381.11,609.22,381.13z M614.41,414.34
		l-2.06,0.79l-2.06,0.79c-0.13,0.05-0.26,0.01-0.34-0.08c-0.08-0.09-0.12-0.22-0.06-0.34l1.97-4.39l1.97-4.39
		c0.03-0.06,0.09-0.08,0.14-0.08c0.05,0.01,0.1,0.05,0.11,0.11c0.14,1.14,0.28,2.28,0.4,3.41c0.12,1.14,0.24,2.28,0.34,3.41
		c0.01,0.1-0.09,0.28-0.2,0.45C614.52,414.2,614.41,414.34,614.41,414.34z M613.43,467.59l-19.61-8.8l-19.61-8.8
		c-0.14-0.06-0.2-0.19-0.2-0.31c0-0.13,0.08-0.25,0.22-0.3l8.95-3.4l8.95-3.4c0.16-0.06,0.33-0.09,0.5-0.08
		c0.17,0.01,0.34,0.04,0.5,0.11L604,447.5l10.87,4.89c0.2,0.09,0.36,0.24,0.47,0.42c0.11,0.18,0.17,0.39,0.15,0.61
		c-0.12,2.31-0.29,4.6-0.48,6.89s-0.42,4.56-0.68,6.82c-0.02,0.14-0.24,0.25-0.46,0.33C613.65,467.54,613.43,467.59,613.43,467.59z
		 M606.63,506.69c-0.59,2.12-1.2,4.23-1.85,6.33c-0.64,2.1-1.31,4.19-2.01,6.28c-0.04,0.14-0.13,0.25-0.23,0.34
		c-0.11,0.09-0.24,0.14-0.38,0.16l-11.96,1.19l-11.96,1.19c-0.14,0.01-0.28,0-0.41-0.04s-0.26-0.1-0.37-0.19l-6.37-5.16l-6.37-5.16
		c-0.27-0.22-0.34-0.55-0.26-0.83c0.08-0.28,0.32-0.52,0.67-0.55l20.5-2.07l20.5-2.07c0.16-0.02,0.3,0.05,0.4,0.16
		C606.63,506.38,606.67,506.54,606.63,506.69z M547,459.66l0.83-0.31l0.83-0.31c0.09-0.03,0.18-0.05,0.27-0.05
		c0.09,0,0.18,0.02,0.27,0.06l28.83,12.96l28.83,12.96c0.66,0.29,1.33,0.5,2.01,0.64c0.68,0.14,1.36,0.19,2.04,0.18
		c0.16,0,0.3,0.06,0.39,0.16c0.09,0.1,0.14,0.25,0.12,0.4c-0.04,0.23-0.08,0.46-0.12,0.69c-0.04,0.23-0.09,0.46-0.13,0.69
		c-0.03,0.15-0.12,0.26-0.24,0.32c-0.12,0.06-0.27,0.07-0.41,0.01c-0.66-0.27-1.35-0.45-2.07-0.55c-0.72-0.1-1.46-0.12-2.21-0.06
		l-31.39,3.17l-31.39,3.17c-0.16,0.02-0.33,0-0.48-0.05c-0.15-0.05-0.3-0.12-0.43-0.23l-0.53-0.44l-0.53-0.44
		c-0.19-0.15-0.31-0.36-0.35-0.59c-0.04-0.22-0.01-0.46,0.11-0.67c1.28-2.36,2.39-4.86,3.28-7.46s1.57-5.31,2.01-8.1
		c0.43-2.6,0.65-5.19,0.67-7.76c0.02-2.57-0.16-5.13-0.54-7.66c-0.01-0.1,0.07-0.28,0.16-0.44S547,459.66,547,459.66z
		 M642.32,422.99c-2.18-42.44-13.36-82.12-32.29-117.48s-45.64-66.42-78.86-91.62c-0.31-0.24-0.4-0.59-0.32-0.91
		c0.08-0.31,0.34-0.58,0.72-0.64c9.82-1.45,18.3-4.88,25.31-10.29c7.01-5.41,12.54-12.82,16.46-22.24c2.63-6.32,2.67-12.2,1.1-18.57
		s-4.76-13.22-8.61-21.48c-1.68-3.62-3.57-7.68-5.6-12.25s-4.2-9.66-6.46-15.35c-2.42-6.19-1.12-15.43,1.33-24.76
		s6.03-18.74,8.18-25.26c4.22-12.76,3.67-24.52-1.11-34.23c-4.79-9.71-13.81-17.36-26.55-21.93c-11.1-3.95-24.43-5.38-38.49-4.37
		s-28.85,4.43-42.85,10.17c-15.65,6.41-29.34,15.18-40.57,25.81c-11.23,10.63-19.99,23.13-25.79,37c-0.15,0.37-0.46,0.62-0.8,0.73
		c-0.35,0.1-0.74,0.06-1.07-0.16c-4.28-2.79-8.92-4.94-13.79-6.39c-4.87-1.45-9.97-2.2-15.18-2.2c-4,0-7.95,0.45-11.77,1.31
		c-3.82,0.87-7.53,2.15-11.05,3.84c-0.66,0.31-1.38,0.32-2.01,0.08c-0.63-0.24-1.17-0.72-1.47-1.39
		c-6.01-13.2-14.74-25.08-25.74-35.21c-11-10.13-24.27-18.52-39.37-24.71c-14.02-5.75-28.81-9.17-42.88-10.17s-27.4,0.42-38.49,4.37
		c-15.7,5.62-24.45,14.37-28.06,25.24c-3.61,10.87-2.09,23.86,2.76,37.93c2.5,7.26,5.3,15.42,6.96,23.05s2.19,14.76,0.14,19.95
		c-2.24,5.71-4.4,10.83-6.43,15.42s-3.93,8.67-5.63,12.29c-3.83,8.24-7.01,15.08-8.57,21.44c-1.56,6.36-1.51,12.23,1.14,18.53
		c3.87,9.31,9.33,16.56,16.18,21.78c6.85,5.22,15.08,8.41,24.51,9.61c0.93,0.12,1.55,0.77,1.76,1.53s0,1.64-0.75,2.2
		c-4.96,3.78-9.81,7.73-14.53,11.85c-4.72,4.12-9.32,8.42-13.78,12.88c-26.7,26.64-47.41,57.66-61.44,91.45
		s-21.38,70.32-21.38,107.99c0,37.69,7.35,74.24,21.38,108.04c14.03,33.8,34.73,64.83,61.44,91.47
		c26.7,26.66,57.81,47.32,91.68,61.32c33.87,14,70.51,21.33,108.27,21.33s74.39-7.33,108.25-21.33c33.86-14,64.96-34.66,91.66-61.32
		c17.13-17.07,31.39-35.21,43.16-54.75c11.77-19.54,21.05-40.47,28.18-63.11c4.86-15.37,8.1-30.6,9.89-46.44
		C642.9,457.22,643.24,440.78,642.32,422.99L642.32,422.99L642.32,422.99z"/>
</g>
</svg>
