<?xml version="1.0" encoding="utf-8"?>
<!-- Generator: Adobe Illustrator 24.3.0, SVG Export Plug-In . SVG Version: 6.00 Build 0)  -->
<svg version="1.1" id="Слой_1" xmlns="http://www.w3.org/2000/svg" xmlns:xlink="http://www.w3.org/1999/xlink" x="0px" y="0px"
	 viewBox="0 0 720 720" style="enable-background:new 0 0 720 720;" xml:space="preserve">
<style type="text/css">
	.st0{fill-rule:evenodd;clip-rule:evenodd;}
</style>
<g>
	<path class="st0" d="M587.83,463.73c6.41,9.03,9.87,14.11,11.13,19.4c1.27,5.29,0.34,10.8-2,20.66c-0.09,0.4-0.43,0.59-0.75,0.57
		c-0.32-0.01-0.64-0.22-0.7-0.62c-2.43-16.09-12.8-28.55-22.47-34.41s-18.64-5.11-18.27,5.2c0.44,12.29,6.27,20.94,11.21,31.59
		c4.93,10.65,8.97,23.31,5.8,43.64L571.1,553l-0.67,3.23c-0.11,0.54-0.54,0.83-0.99,0.86c-0.45,0.03-0.92-0.21-1.1-0.73
		c-2.44-6.88-7.11-9.2-11.55-7.95s-8.64,6.05-10.14,13.42c-3.52,17.04-7.4,31.88-15.25,45.49c-7.85,13.62-19.66,26.01-39.04,38.16
		c-0.39,0.24-0.79,0.11-1.01-0.16c-0.22-0.28-0.27-0.69,0.04-1.02c0.75-0.78,1.5-1.59,2.25-2.41c0.75-0.83,1.49-1.68,2.23-2.55
		c21.03-24.88,37.3-56.39,45.01-89.25c7.71-32.87,6.86-67.1-6.35-97.45c-6.89-15.88-6.18-26.82-3.54-36.35
		c2.64-9.53,7.2-17.65,8.01-27.88c0.84-10.77-8.33-14.18-17.22-9.95c-8.89,4.24-17.5,16.12-15.54,35.95
		c0.02,0.22-0.12,0.37-0.29,0.42c-0.17,0.05-0.37-0.01-0.46-0.21c-9.4-19.97-9.75-28.89-7.65-34.47c2.1-5.58,6.66-7.8,7.07-14.37
		c0.01-0.23,0.14-0.4,0.32-0.5c0.18-0.1,0.4-0.12,0.61-0.02c5.92,2.68,13.63,1.68,18.21-1.54c4.58-3.22,6.02-8.67-0.6-14.86
		c-1.98-3.6-1.05-5.94,0.91-7.04c1.96-1.11,4.96-0.98,7.14,0.36c5.85,3.56,7.46,6.23,8.86,8.74c1.39,2.51,2.57,4.87,7.57,7.81
		c3.8,2.21,6.68,2.31,9.82,2.14c3.13-0.17,6.52-0.62,11.33,0.49c7.06,1.44,12.2,4.48,16.02,8.62c3.82,4.13,6.34,9.37,8.15,15.21
		c0.18,0.58-0.11,1.05-0.53,1.27c-0.42,0.21-0.98,0.16-1.33-0.33c-4.48-6.24-10.31-11.48-16.27-14.78
		c-5.95-3.3-12.03-4.64-16.99-3.07c-3.15,1-4.65,3.96-4.74,7.18s1.25,6.7,3.79,8.75c2.71,2.16,12.61,6.06,22.2,11.05
		c9.59,4.99,18.87,11.08,20.34,17.6l0.51,2.27l0.51,2.27c0.24,1.04-0.2,1.97-0.93,2.52c-0.73,0.54-1.75,0.7-2.69,0.2
		c-9.56-5.15-13.81-3.65-17.76-4.16c-3.95-0.51-7.6-3.02-15.94-16.17c-0.81-1.28-2.18-1.76-3.45-1.56s-2.44,1.08-2.84,2.54
		c-4.77,17.12-1.36,26.87,5.38,35.34S579.3,451.72,587.83,463.73L587.83,463.73L587.83,463.73z M455.79,448.93
		c9.52,0,16.54,4.25,20.96,10.49s6.24,14.47,5.33,22.43c-0.02,0.21,0.09,0.37,0.24,0.44c0.15,0.07,0.35,0.05,0.5-0.1
		c6.41-6.7,14.74-9.1,22.41-8.27c7.67,0.84,14.68,4.91,18.45,11.17c-0.55-5.44-0.93-9.13-1.73-12.63c-0.8-3.5-2-6.83-4.2-11.56
		c-9.93-21.26-29.08-37.33-50.46-44.69c-21.38-7.36-44.99-6.01-63.85,7.57c-8.19,5.9-16.99,18.33-20.95,30.39
		c-3.96,12.06-3.08,23.74,8.07,28.14c5.96,2.34,11.13,1.35,16.31,0.15s10.37-2.62,16.39-1.14c6.55,1.63,10.43,5.51,14.43,9.18
		s8.09,7.12,15.06,7.89c4.95-4.05,7.63-7.63,9.02-11.09c1.39-3.46,1.49-6.8,1.29-10.37c-0.03-0.62-0.39-1.11-0.88-1.37
		c-0.48-0.26-1.09-0.28-1.61,0.06c-1.17,0.75-2.48,1.36-3.88,1.76s-2.89,0.6-4.43,0.55c-11.56-0.49-15.61-7.75-14.31-14.88
		S445.93,448.93,455.79,448.93L455.79,448.93L455.79,448.93z M516.03,501.66c-2.03-4.38-5.61-8.5-9.96-10.65
		c-4.35-2.15-9.46-2.32-14.54,1.19c-4.35,3-5.28,8.36-4.19,12.99c1.09,4.63,4.2,8.53,7.92,8.59c0.64,0.01,1.15-0.33,1.41-0.81
		s0.28-1.1-0.05-1.65c-1.98-3.26-0.35-6.36,2.34-7.9c2.69-1.53,6.43-1.5,8.66,1.53c3.57,5.15,2.81,10-0.13,13.61
		c-2.94,3.6-8.06,5.96-13.22,6.12c-5.17,0.16-9.99-2.04-13.46-5.52c-3.48-3.48-5.62-8.25-5.45-13.22c0-0.11-0.06-0.18-0.14-0.21
		c-0.08-0.03-0.17,0-0.23,0.09c-4.34,6.77-10.45,12.58-17.53,16.86c-7.07,4.28-15.12,7.02-23.32,7.67
		c-6.88,0.55-14.7-0.26-22.48-2.25c-7.77-1.98-15.49-5.13-22.15-9.26c-6.97-4.37-12.3-9.79-16.14-15.91
		c-3.84-6.12-6.18-12.93-7.15-20.07c-0.04-0.28-0.21-0.49-0.43-0.6c-0.22-0.11-0.49-0.11-0.73,0.04c-1.46,0.93-3.21,1.73-5.37,2.41
		c-2.16,0.68-4.74,1.23-7.87,1.67c-0.18,0.03-0.34,0.11-0.45,0.24c-0.11,0.13-0.17,0.3-0.17,0.48c0.3,6.68-0.01,15.35,0.26,22.94
		c0.27,7.59,1.1,14.1,3.7,16.43c7.52,6.85,13.15,8.8,17.89,9.85c4.74,1.05,8.59,1.21,12.54,4.48c3.49,2.87,5.82,9.76,8.49,16.41
		c2.66,6.65,5.65,13.05,10.46,14.93c1.94,0.73,3.47,3.56,5.01,6.62c1.54,3.06,3.07,6.35,5.01,7.99c2.98,0.31,6.11,0,8.85-0.1
		c2.74-0.1,5.1,0.02,6.55,1.19c1.26,1.02,1.99,2.59,2.73,4.46c0.74,1.87,1.49,4.06,2.79,6.32c3.69,6.41,8.83,8.25,12.26,10.71
		s5.13,5.56,1.97,14.5c-4.02,11.46-12.72,21.05-22.07,29.29c-9.35,8.24-19.36,15.11-26,21.13c-0.14,0.12-0.13,0.3-0.05,0.42
		c0.08,0.12,0.24,0.19,0.41,0.11l26.32-12.88l26.32-12.88c7.44-3.65,12.96-9.92,16.35-17.32s4.68-15.94,3.65-24.15
		c-0.33-2.65-1.15-4.7-1.71-7.28c-0.55-2.58-0.84-5.69-0.09-10.44c0.59-3.73,1.98-7.15,3.54-10.54c1.57-3.38,3.31-6.73,4.61-10.29
		c0.27-3.25-0.62-6.16-2.25-7.48c-1.63-1.32-4-1.07-6.67,2c-4.28,4.88-9.78,6.03-14.18,4.38s-7.68-6.08-7.51-12.39
		c0.09-3.47,1.88-7.42,4.33-10.78s5.56-6.14,8.28-7.27c6.99-2.92,17.35-1.13,25.7,6.2s14.7,20.2,13.66,39.44
		c-0.09,1.84-0.48,3.89-1.02,6.01c-0.53,2.11-1.21,4.29-1.88,6.37c-0.13,0.41,0.09,0.75,0.4,0.88c0.31,0.13,0.7,0.07,0.91-0.31
		c7.02-13.11,13.93-30,17.54-46.97C521.94,532.1,522.23,515.06,516.03,501.66L516.03,501.66L516.03,501.66z M475.53,397.55
		c-2.68-1.86-5.09-3.71-7.06-5.68c-1.97-1.97-3.49-4.06-4.42-6.4c-1.15-2.94-2.87-5.22-5.05-6.97c-2.18-1.74-4.82-2.95-7.82-3.74
		c-4.57-1.21-6.05-2.58-6.73-4.68c-0.67-2.1-0.53-4.91-1.87-8.98c-1.9-5.7-4.51-10.72-8.12-14.77c-3.61-4.05-8.23-7.12-14.16-8.91
		c-3.6-1.1-8.44-1.64-13.49-1.66c-5.05-0.02-10.3,0.48-14.7,1.46c-0.18,0.04-0.35-0.01-0.48-0.11c-0.12-0.1-0.2-0.27-0.2-0.45
		c0.12-4.3-0.62-8.79-2.18-13.1c-1.56-4.31-3.94-8.46-7.1-12.08c-1.08-1.24-2.26-2.38-3.52-3.44c-1.26-1.05-2.61-2.02-4.01-2.92
		c14.58-3.96,22.68-9.92,27.39-15.77c4.71-5.86,6.03-11.61,7.03-15.17c3,7.31,8.45,13.35,15.23,16.83
		c6.79,3.48,14.91,4.4,23.25,1.48c3.71-1.3,7.08-3.28,9.62-5.7c2.54-2.42,4.26-5.27,4.68-8.3c0.82-6.05-1.36-11.35-5.02-14.69
		c-3.65-3.34-8.77-4.71-13.82-2.88c-3.18,1.17-4.86,4.33-5.13,7.24c-0.27,2.91,0.86,5.58,3.3,5.76c1.23,0.11,2.57,0.09,3.59-0.49
		s1.73-1.74,1.67-3.89c-0.07-2.27,1.99-1.69,3.7,0.03c1.71,1.72,3.06,4.59,1.56,6.91c-3.04,4.75-9.86,6.09-15.48,3.8
		c-5.62-2.29-10.04-8.22-8.26-18.01c0.91-4.97,2.94-8.63,5.86-11.12c2.91-2.48,6.71-3.79,11.15-4.05c5.46-0.31,8.13-0.71,10.38-2.07
		c2.24-1.37,4.06-3.7,7.79-7.88c0.38-0.43,0.93-0.56,1.41-0.44s0.91,0.48,1.05,1.04c0.46,1.86,1.02,3.73,1.96,5.33
		c0.93,1.6,2.24,2.93,4.19,3.73c6.86,2.83,11.63,1.59,16.62,0.52c4.99-1.07,10.21-1.98,17.94,1.53c16.58,7.49,30.83,15.75,43.1,26
		s22.55,22.48,31.18,37.91c0.14,0.26,0.04,0.5-0.15,0.63c-0.19,0.13-0.46,0.14-0.64-0.09c-27.82-33.21-65.51-43.07-93.57-36.78
		c-28.06,6.29-46.48,28.73-35.78,60.13c4.4,9.69,11.29,14.85,17.93,16.62s13.01,0.14,16.36-3.77c0.88-1.03,1.03-2.34,0.63-3.45
		c-0.4-1.11-1.37-2-2.71-2.19c-11.09-1.55-16-9.39-15.85-18.11s5.35-18.3,14.48-23.34c17.81-9.82,37.31-7.58,54.9,1.16
		c17.59,8.74,33.26,23.99,43.4,40.2c0.32,0.51,0.15,1.04-0.21,1.34s-0.91,0.37-1.35-0.04c-3.62-3.38-7.68-6.64-12.04-9.57
		s-9-5.56-13.79-7.65c-18.93-8.36-33.21-6.75-42.59-0.93c-9.38,5.83-13.86,15.87-13.18,24.4c0.03,0.33-0.07,0.64-0.26,0.88
		c-0.19,0.24-0.47,0.4-0.8,0.42c-6.8,0.45-13.97,4.74-18.17,12.26c-4.2,7.52-5.43,18.27-0.36,31.63c0.15,0.4,0,0.78-0.28,1
		C476.29,397.74,475.89,397.8,475.53,397.55z M377.04,229.68c-8.91,0.58-15.34,6.66-18.02,13.5s-1.6,14.46,4.53,18.14
		c2.52,1.51,4.81,1.71,6.81,1.35s3.72-1.26,5.1-1.95c0.44-0.22,0.93-0.22,1.35-0.04s0.77,0.52,0.92,0.99
		c3.02,9.26-3.86,18.47-13.87,22.31s-23.15,2.33-32.65-9.87c-5.47-7-7.43-16.18-6.56-26.17c0.88-9.99,4.59-20.78,10.49-30.99
		c0.18-0.32,0.52-0.42,0.81-0.34s0.55,0.32,0.56,0.69c0.22,4.96,1.28,9.66,3.44,13.68c2.16,4.02,5.42,7.35,10.04,9.58
		c0.7,0.34,1.47,0.28,2.07-0.06c0.61-0.34,1.06-0.95,1.14-1.73c0.28-2.7,0.54-5.21,0.92-7.76c0.38-2.55,0.87-5.14,1.62-8.01
		c2.78-10.72,7.78-18.45,13.78-23.58c5.99-5.13,12.98-7.66,19.73-7.98c0.36-0.02,0.6,0.21,0.68,0.49c0.08,0.28,0,0.61-0.31,0.79
		c-5.91,3.66-9.44,8.11-10.96,12.92c-1.52,4.82-1.05,10,1.04,15.12c0.3,0.73,0.94,1.18,1.62,1.27c0.68,0.1,1.41-0.15,1.88-0.78
		c4.84-6.5,8.74-13.6,14.37-19.08s13-9.32,24.79-9.3c0.3,0,0.5,0.2,0.56,0.44c0.06,0.24-0.03,0.51-0.29,0.65
		c-4.68,2.46-8.28,5.48-10.62,9.46c-2.35,3.99-3.45,8.95-3.14,15.31c0.03,0.57,0.39,0.99,0.85,1.18c0.46,0.18,1.01,0.12,1.42-0.28
		c5.47-5.3,11.59-9.66,17.97-12.69c6.37-3.03,12.99-4.74,19.46-4.74c15.66-0.02,28.1,3.6,37.83,8.77
		c9.73,5.17,16.74,11.88,21.53,18.05c0.13,0.16,0.09,0.35-0.03,0.47s-0.3,0.16-0.47,0.04c-13.65-9.74-31.33-13.91-47.42-13.93
		s-30.6,4.09-37.92,10.9c-4.53,4.23-7.85,8.02-10.14,11.89c-2.29,3.87-3.56,7.82-4,12.38c-0.02,0.23-0.19,0.36-0.37,0.38
		c-0.18,0.02-0.37-0.08-0.43-0.3c-1.11-3.89-3.57-9.51-8.29-13.99C394.16,232.37,387.18,229.02,377.04,229.68L377.04,229.68
		L377.04,229.68z M387.28,632.46c0.68-2.39,0.72-5.7-0.21-9.99c-0.93-4.29-2.83-9.56-6.05-15.88c-0.59-1.13-2.62-1.18-5.05-1.42
		c-2.43-0.24-5.27-0.68-7.46-2.6c-1.44-1.24-2.33-3.22-2.89-5.14c-0.56-1.92-0.8-3.77-0.95-4.76c-0.31-2.17-3.97-4.09-8.21-8.5
		c-4.24-4.41-9.07-11.32-11.72-23.47c4.57-0.09,10.23,0.63,15.24,1.57c5.01,0.94,9.37,2.09,11.35,2.85
		c5.71,2.28,11.73,11.66,19.42,21.53c7.69,9.87,17.05,20.25,29.41,24.54c2.49,0.82,4.18,1.03,4.99,1.86
		c0.81,0.83,0.75,2.28-0.27,5.59c-1.9,6.12-4.77,9.52-8.44,11.36c-3.66,1.85-8.12,2.14-13.18,2.05c-3.4-0.04-6.38-0.05-9.02,0
		C391.61,632.1,389.31,632.22,387.28,632.46L387.28,632.46L387.28,632.46z M359.12,657.89c-4.66,6.74-8.82,11.98-13.2,15.84
		s-8.99,6.32-14.53,7.51c-0.36,0.08-0.72,0.12-1.08,0.13c-0.36,0.01-0.73,0-1.09-0.05c-0.12-0.01-0.25-0.03-0.37-0.04
		c-0.12-0.01-0.25-0.03-0.37-0.04c10.33-6.38,19.76-16.51,24.94-28.02c5.18-11.5,6.1-24.37-0.58-36.21
		c4.19,3.85,8.49,7.81,12.57,11.19s7.95,6.2,11.28,7.77c-2.6,1.75-4.93,4.27-7.64,7.82C366.32,647.35,363.23,651.95,359.12,657.89
		L359.12,657.89L359.12,657.89z M309.19,658.59c-0.9-1.73-1.85-3.07-2.93-4.12c-1.08-1.05-2.31-1.82-3.77-2.39
		c-4.15-1.63-7.41,0.44-11.47,2.88c-4.06,2.44-8.92,5.25-16.3,5.12c-5.37-0.09-10.97-0.33-16.43-1.16
		c-5.46-0.84-10.79-2.27-15.64-4.74c-0.09-0.04-0.13-0.1-0.12-0.15c0.01-0.05,0.06-0.08,0.15-0.07c1.1,0.1,2.21,0.18,3.31,0.24
		c1.11,0.06,2.21,0.11,3.31,0.15c19.53,0.38,32.98-4.94,41.4-12.35c8.41-7.41,11.79-16.9,11.17-24.85
		c-0.46-5.79-3.37-10.43-7.37-13.61c-4.01-3.18-9.12-4.91-13.99-4.87c-7.08,0.07-13.04,4.43-15.2,9.54s-0.53,10.97,7.59,14.06
		c3.42,2.64,4.92,4.78,4.43,6.43c-0.48,1.65-2.94,2.8-7.43,3.45c-0.9,0.13-1.81,0.14-2.71,0.04c-0.9-0.1-1.79-0.32-2.64-0.64
		c-3.53-1.35-6.93-2.98-10.38-4.38s-6.96-2.58-10.72-3.04c-5.36-0.68-8.82-0.25-11.69,0.47c-2.87,0.72-5.13,1.72-8.1,2.2
		c-3.6,0.58-7.25,0.67-10.9,0.34c-3.65-0.32-7.3-1.07-10.9-2.16c-1.55-0.47-3.04-1.1-4.45-1.88c-1.41-0.78-2.73-1.71-3.95-2.78
		c-8.24-7.26-15.97-15.06-23.17-23.35s-13.86-17.1-19.96-26.35c-0.15-0.23-0.08-0.47,0.09-0.61c0.16-0.14,0.42-0.18,0.63-0.01
		c4.16,3.5,6.03,6.66,8.64,8.89c2.61,2.23,5.97,3.53,13.11,3.31c0.64-0.02,1.24-0.25,1.72-0.64c0.48-0.39,0.83-0.92,0.98-1.54
		c0.3-1.24,0.67-2.49,0.9-3.87c0.22-1.38,0.3-2.87,0.02-4.58c5.91,2.28,9.44,5.28,14.41,7.72s11.38,4.33,23.05,4.41
		c3.99,0.04,10,1.46,15.12,2.02c5.12,0.56,9.33,0.26,9.72-3.16c0.31-2.81-2.72-8.06-6.15-12.77c-3.43-4.71-7.27-8.88-8.59-9.56
		c-3.64-1.9-7.44-1.33-10.96-0.75c-3.51,0.58-6.73,1.17-9.2-0.67c-5.25-3.89-10.42-5.82-14.78-7.22s-7.9-2.28-9.87-4.07
		c2.38-1.44,7.11-5.4,12.55-8.78c5.44-3.38,11.57-6.18,16.75-5.33c13.33,2.21,25.29-0.99,36.88-4.08s22.8-6.09,34.63-3.48
		c8.16,1.81,11.98,8.99,16.36,16.7c4.38,7.71,9.33,15.95,19.74,19.88c2.98,1.13,6.98,8.2,11.75,17.08
		c4.77,8.88,10.32,19.57,16.41,27.93c-3.13-3.53-8.91-5.46-14.52-5.04c-5.61,0.42-11.06,3.21-13.53,9.13
		c-1.38,3.26-1.52,7.26-0.34,10.56c1.18,3.3,3.68,5.89,7.57,6.33c0.46,0.05,0.83-0.21,1-0.56c0.17-0.36,0.15-0.81-0.17-1.16
		c-0.91-0.99-1.82-2.1-2.35-3.27c-0.54-1.17-0.7-2.4-0.11-3.64c0.86-1.85,2.4-2.8,4.07-3.17c1.67-0.36,3.46-0.12,4.81,0.42
		c2.98,1.21,5.96,3.54,7.97,6.34c2.01,2.8,3.04,6.05,2.13,9.08c-1.08,3.6-6.16,4.52-11.54,5.45s-11.03,1.86-13.26,5.48
		c-1.45,2.37-2.42,4.88-3.26,7.39c-0.84,2.51-1.54,5.03-2.48,7.42c-0.09,0.22-0.3,0.4-0.52,0.48
		C309.48,658.76,309.27,658.74,309.19,658.59z M136.74,521.79c2.41,0.27,4.41,0.74,6.56,1.48c2.15,0.74,4.45,1.75,7.49,3.11
		c0.14,0.06,0.21,0.19,0.21,0.32c0.01,0.13-0.05,0.26-0.19,0.33c-1.29,0.65-2.63,1.23-3.95,1.96c-1.32,0.73-2.62,1.59-3.86,2.79
		c-0.1,0.1-0.23,0.13-0.35,0.11c-0.12-0.02-0.23-0.11-0.28-0.24c-0.63-1.66-1.57-3.3-2.64-4.86c-1.07-1.56-2.28-3.03-3.45-4.36
		c-0.11-0.13-0.09-0.29,0.01-0.43S136.56,521.77,136.74,521.79z M117.26,496.94c-6.8-25.3-9.54-51.32-8.18-77.24
		c1.36-25.93,6.82-51.77,16.41-76.72c1.48-3.85,3.05-7.65,4.69-11.38c1.65-3.74,3.37-7.42,5.18-11.05
		c2.76,3.61,5.65,7.06,8.31,10.03c2.66,2.96,5.08,5.43,6.9,7.07c0.31,0.27,0.36,0.67,0.23,0.98c-0.13,0.32-0.44,0.56-0.85,0.55
		c-2.39-0.09-5.44-0.36-8.29-0.6c-2.85-0.23-5.49-0.42-7.06-0.35c-2.25,0.11-3.71,0.73-3.79,1.77c-0.08,1.04,1.22,2.5,4.49,4.29
		c9.46,5.16,17.46,4.66,25.82,5.69c8.35,1.03,17.05,3.59,27.89,14.84c0.15,0.15,0.15,0.35,0.08,0.51c-0.08,0.16-0.25,0.27-0.45,0.25
		c-4.89-0.6-8.88-1.03-13.05-0.09c-4.18,0.94-8.54,3.23-14.16,8.04c-0.36,0.31-0.59,0.73-0.67,1.18c-0.07,0.44,0.01,0.91,0.28,1.3
		c2.46,3.54,7.58,5.81,12.47,7.48s9.55,2.72,11.08,3.84c-11.41,17.82-21.78,32.67-28.88,48.49c-7.1,15.82-10.93,32.62-9.27,54.32
		c0.11,1.42-0.35,2.76-1.19,3.78c-0.84,1.02-2.07,1.71-3.48,1.82c-4.33,0.34-8.78-0.19-12.98-0.39
		C124.56,495.17,120.6,495.3,117.26,496.94L117.26,496.94L117.26,496.94z M216.57,227.01c-0.41,2.73-0.27,5.69,0.38,8.63
		c0.65,2.94,1.82,5.86,3.45,8.51c0.04,0.06,0.03,0.14,0,0.19c-0.03,0.05-0.09,0.09-0.17,0.08c-0.31-0.04-0.61,0-0.88,0.12
		c-0.27,0.13-0.51,0.35-0.71,0.66c-1.06,1.55-1.49,4.48-1.74,7.11c-0.25,2.64-0.31,4.98-0.64,5.38c-2.56,3.11-5.17,1.26-8.16-1.14
		s-6.38-5.35-10.49-4.45c-4.86,1.06-3.84,3.1-0.11,6.32c3.73,3.22,10.17,7.64,16.13,13.45c2.94,2.87,5.92,6.11,8.5,9.58
		s4.76,7.17,6.14,10.95c3.29,9.17,2.78,16.51,0.81,21.64c-1.97,5.12-5.4,8.03-7.94,8.32c-3.66,0.44-6.49-3.11-9.1-7.67
		c-2.61-4.55-5-10.11-7.76-13.67c-1.32-1.68-2.18-2.68-2.94-3.16c-0.76-0.48-1.42-0.44-2.33-0.06c-1.16,0.48-1.16,3.56-0.48,7.29
		c0.68,3.73,2.05,8.11,3.64,11.19c0.21,0.42,0.17,0.87-0.05,1.21c-0.21,0.35-0.6,0.58-1.07,0.56c-2.71-0.12-4.48,1.13-4.4,3.26
		c0.07,2.13,1.98,5.14,6.62,8.55c0.09,0.07,0.16,0.16,0.2,0.27c0.04,0.1,0.04,0.22,0.01,0.33c-0.96,3.54-1.82,6.4-2.67,8.62
		s-1.69,3.8-2.6,4.78c-1.68,1.81-3.46,2.04-5.18,1.64c-1.73-0.4-3.41-1.42-4.91-2.11c-1.98-0.9-4.06-2.32-5.79-4.21
		c-1.73-1.89-3.11-4.23-3.68-6.97c-1.32-6.36-0.37-13.56,0.59-19.4s1.9-10.3,0.59-11.18c-1.25-0.85-3.53,0.54-5.95,5.15
		c-2.42,4.62-4.98,12.46-6.79,24.52c-0.07,0.44-0.36,0.76-0.72,0.91c-0.36,0.15-0.79,0.12-1.14-0.16
		c-7.07-5.59-11.75-10.83-14.71-15.92c-2.95-5.09-4.18-10.04-4.32-15.05c9.22-14.91,19.86-28.61,31.68-40.99
		C189.69,247.72,202.67,236.65,216.57,227.01L216.57,227.01L216.57,227.01z M213.72,37.46c5.1-9.99,18.25-16.23,34.45-11.49
		s35.43,20.44,52.68,54.35c0.28,0.54,0.22,1.14-0.06,1.61s-0.78,0.81-1.39,0.83c-38.12,1.31-61.9-5.41-74.97-14.75
		S209,46.67,213.72,37.46L213.72,37.46L213.72,37.46z M320.72,130.87c1.66,3.27,2.29,5.24,2.49,7.31c0.2,2.07-0.03,4.25-0.08,7.94
		c-0.01,0.43-0.17,0.82-0.44,1.12s-0.64,0.51-1.06,0.57c-5.57,0.74-11.12,1.66-16.64,2.74c-5.52,1.08-11.02,2.34-16.5,3.76
		c-0.33,0.08-0.58-0.09-0.69-0.33c-0.11-0.24-0.07-0.55,0.22-0.73c6.56-4.34,12.61-8.61,17.92-12.5s9.85-7.39,13.39-10.2
		c0.23-0.18,0.51-0.23,0.77-0.17S320.59,130.61,320.72,130.87z M366.72,85.21c5.58,0,10.63,2.23,14.28,5.86s5.91,8.65,5.91,14.24
		c0,2.67-0.52,5.26-1.52,7.67s-2.48,4.63-4.4,6.54c-1.88,1.9-4.09,3.37-6.5,4.37c-2.41,1-5.04,1.52-7.76,1.52
		c-2.69,0-5.3-0.52-7.72-1.52c-2.41-1-4.63-2.48-6.51-4.4c-1.9-1.9-3.37-4.11-4.37-6.51s-1.52-5-1.52-7.66
		c0-5.55,2.25-10.58,5.89-14.21S361.16,85.21,366.72,85.21L366.72,85.21L366.72,85.21z M295.95,206.26
		c-2.87,1.59-4.8,3.35-6.59,5.17s-3.45,3.69-5.77,5.5c-5.21,4.67-10.24,1.47-12.54-3.03c-2.31-4.5-1.89-10.29,3.8-10.79
		c0.2-0.02,0.36,0.09,0.44,0.25c0.08,0.16,0.07,0.35-0.06,0.51c-1.49,1.75-1.43,3.66-0.5,5.05s2.73,2.28,4.7,1.98
		c1.79-0.29,3.31-1.91,3.68-4.02c0.37-2.11-0.41-4.71-3.21-6.98c-0.86-0.69-1.86-1.17-2.91-1.51s-2.15-0.51-3.21-0.58
		c-0.11-0.01-0.18-0.09-0.19-0.18c-0.01-0.09,0.03-0.19,0.13-0.22c13.95-5.11,28.16-8.95,42.59-11.51
		c14.43-2.56,29.08-3.86,43.91-3.89c0.28,0,0.45,0.2,0.48,0.42c0.03,0.22-0.08,0.46-0.35,0.53c-3.73,1.03-7.31,2.12-10.7,3.47
		c-3.39,1.34-6.58,2.94-9.51,4.99c-6.89,4.79-15.06,6.65-22.94,8.24S301.71,202.57,295.95,206.26L295.95,206.26L295.95,206.26z
		 M239.6,221.35c-2.53,0.61-4.38,1.86-5.58,3.42c-1.2,1.57-1.75,3.45-1.68,5.34c0.07,1.79,0.7,3.59,1.87,5.12
		c1.16,1.53,2.85,2.79,5.05,3.5c2.67,0.88,5.56,0.47,7.95-0.86c2.39-1.33,4.28-3.58,4.96-6.37c0.75-3.07-0.1-6.27-1.76-9.11
		s-4.13-5.34-6.62-7c-0.74-0.5-1.39-0.87-2.06-1.18c-0.67-0.31-1.34-0.56-2.13-0.81c-0.13-0.04-0.2-0.15-0.21-0.26
		c-0.01-0.11,0.04-0.23,0.15-0.29c3.91-2.12,7.87-4.15,11.88-6.06c4.01-1.92,8.06-3.73,12.15-5.42c0.07-0.03,0.13,0,0.16,0.05
		c0.03,0.05,0.03,0.12-0.02,0.17c-6.26,6.36-4.56,16.72,3.17,23.05c7.73,6.33,21.48,8.63,39.33-1.11c1.6-0.87,3.35-2.05,5.18-3.35
		c1.84-1.3,3.77-2.7,5.76-4c0.17-0.11,0.35-0.07,0.47,0.05s0.16,0.3,0.06,0.47c-0.65,1.04-1.29,2.11-1.97,3.13s-1.4,2.01-2.18,2.9
		c-5.41,6.14-11.47,9.78-18.12,11.44c-6.65,1.66-13.89,1.33-21.68-0.48c-1.08-0.24-3.14-0.85-5.25-1.56
		c-2.12-0.71-4.29-1.53-5.61-2.16c-0.44-0.22-1.12-0.58-1.76-0.7c-0.64-0.11-1.24,0.02-1.54,0.81c-0.89,2.26,0.96,5.62,3.81,8.64
		c2.85,3.02,6.7,5.69,9.79,6.6c0.26,0.08,0.4,0.29,0.41,0.52c0.01,0.22-0.11,0.45-0.36,0.54c-2.9,1.07-6.37,1.84-10.01,2.33
		c-3.64,0.49-7.45,0.7-11.03,0.67c-4.9-0.05-9.72-0.58-13.91-2.28c-4.19-1.71-7.75-4.6-10.12-9.41c-3.56-7.24-2.11-12.83,0.94-15.96
		c3.05-3.14,7.7-3.82,10.52-1.24c0.12,0.11,0.17,0.32,0.16,0.5C239.78,221.16,239.71,221.32,239.6,221.35z M320.75,337.9
		c-15.78,8.28-19.68,16.9-21.79,23.47s-2.44,11.09-11.09,11.17c-6.77,0.05-14.34-2.27-20.21-5.96c-5.87-3.7-10.04-8.78-10-14.24
		c0-1.7,1.34-1.32,2.82-0.42c1.48,0.9,3.09,2.3,3.62,2.65c7.24,4.77,13.47,0.56,15.34-5.6c1.87-6.16-0.62-14.27-10.8-17.3
		c-9.82-2.92-17.36,1.03-21.15,7.75c-3.79,6.72-3.84,16.21,1.32,24.36c-3.72-0.43-6.91-0.02-9.46,0.62s-4.46,1.5-5.63,1.96
		c-0.2,0.08-0.41,0.05-0.58-0.05s-0.29-0.27-0.33-0.48c-1.6-11.02,0.76-15.19,4.29-19.07c3.53-3.87,8.21-7.45,11.27-17.29
		c1.12-3.56,1.03-5.52,0.25-6.21c-0.78-0.69-2.26-0.13-3.95,1.35c-0.95,0.83-1.99,1.91-3.06,3.09s-2.18,2.45-3.27,3.65
		c-0.15,0.16-0.35,0.16-0.5,0.07c-0.15-0.09-0.25-0.27-0.18-0.47c0.75-2.25,1.53-4.47,2.29-6.66c0.76-2.19,1.51-4.35,2.19-6.47
		c1.77-5.44,2.87-10.64,3.69-15.62c0.82-4.98,1.37-9.75,2.05-14.34c0.57-4,1.36-7.89,1.82-11.46c0.46-3.57,0.58-6.82-0.21-9.55
		c-0.57-1.99-1.85-3.66-3.21-4.14s-2.81,0.25-3.7,3.04c-0.71,2.21-0.74,5.91-1.04,9.12c-0.3,3.21-0.86,5.93-2.66,6.19
		c-1.83,0.26-3.53-0.58-5.1-1.93c-1.57-1.35-3-3.22-4.3-5.05c-3.5-4.84-4.48-8.95-4.84-12.95c-0.36-4-0.11-7.9-1.14-12.32
		c-0.02-0.07,0.02-0.12,0.06-0.15c0.05-0.02,0.11-0.02,0.16,0.03c5.89,6.81,13.11,10.28,20.55,11.79
		c7.45,1.51,15.12,1.06,21.91,0.06c0.31-0.05,0.59,0.09,0.75,0.31c0.16,0.22,0.21,0.52,0.08,0.8c-0.85,1.77-1.61,3.53-2.11,5.38
		s-0.75,3.77-0.59,5.88c0.15,1.94,0.87,4.38,1.94,6.59c1.07,2.22,2.49,4.22,4.02,5.28c1.13,0.79,1.99,1.08,2.59,0.95
		c0.59-0.13,0.92-0.68,1-1.57c0.04-0.4,0.01-0.79-0.03-1.17c-0.04-0.38-0.08-0.77-0.08-1.17c0.11-9.34,5.61-18.2,12.65-25.58
		c7.04-7.37,15.63-13.24,21.92-16.59c-1.52,9.28-1.89,11.21-3.01,12.55c-1.12,1.34-2.99,2.1-7.48,9.04
		c-3.37,5.21-3.21,10.31-3.1,14.33c0.11,4.01,0.16,6.94-3.41,7.78c-1.99,0.47-4.33-0.14-6.04-1.45c-1.71-1.32-2.8-3.33-2.3-5.67
		c3.09,1.1,5.14,0.24,6.15-1.32s0.97-3.8-0.11-5.48c-0.99-1.41-2.35-2.05-3.79-2.07s-2.94,0.57-4.22,1.63
		c-1.92,1.55-3.62,4.58-3.94,8.09c-0.32,3.52,0.74,7.53,4.34,11.05c4.25,4.12,10.4,5.23,16.49,3.76c6.08-1.46,12.09-5.5,16.05-11.67
		c0.2-0.32,0.54-0.48,0.88-0.47s0.67,0.16,0.87,0.49c0.13,0.21,0.26,0.42,0.39,0.63c0.13,0.21,0.27,0.41,0.4,0.62
		c-0.6,2.5-2.1,4.64-3.91,6.58c-1.81,1.94-3.93,3.67-5.78,5.37c-6.84,6.23-12.02,11.88-15.35,16.99c-3.33,5.1-4.82,9.65-4.29,13.67
		c1.66,12.86,9.58,14.65,17.69,12.23c8.11-2.43,16.41-9.07,18.85-13.07c0.66,1.39,0.97,4.14,0.59,7
		C323.89,333.1,322.83,336.07,320.75,337.9L320.75,337.9L320.75,337.9z M205.31,361.39c-0.66-2.06-0.79-3.8-0.28-6.19
		c0.52-2.39,1.69-5.43,3.62-10.08c0.12-0.29,0.38-0.45,0.65-0.47c0.27-0.02,0.55,0.09,0.71,0.36c2.08,3.38,3.58,6.15,4.52,8.67
		c0.94,2.53,1.32,4.81,1.17,7.2c-1.77-0.71-3.9-0.65-5.82-0.37C207.95,360.78,206.24,361.26,205.31,361.39L205.31,361.39
		L205.31,361.39z M412.97,401.69c-5.12,3.57-14.38,8.07-24.02,9.74c-9.65,1.68-19.68,0.54-26.35-7.15
		c-4.88-5.63-7.45-12.91-7.37-19.56c0.09-6.65,2.83-12.67,8.57-15.77c2.69-1.47,5.11-1.32,7.11-0.45s3.6,2.48,4.63,3.91
		c0.17,0.24,0.14,0.52,0,0.71c-0.14,0.19-0.4,0.31-0.68,0.21c-1.35-0.45-2.64-0.42-3.83,0c-1.19,0.43-2.27,1.25-3.21,2.4
		c-1.74,2.16-1.51,4.78-0.05,6.73c1.46,1.95,4.16,3.24,7.36,2.73c3.75-0.57,6.29-2.81,7.59-5.76c1.3-2.95,1.35-6.59,0.13-9.95
		c-0.78-2.16-1.94-3.94-3.41-5.38c-1.47-1.44-3.26-2.54-5.31-3.34c-0.12-0.05-0.17-0.15-0.16-0.25c0.01-0.1,0.08-0.19,0.21-0.21
		c4.47-0.66,8.18-2.84,10.98-5.99c2.8-3.15,4.71-7.27,5.58-11.8c0.02-0.13,0.1-0.23,0.2-0.3c0.1-0.07,0.23-0.09,0.35-0.06
		c18.33,4.27,25.07,11.57,28.51,19.34c3.44,7.77,3.57,16.02,8.67,22.21c2.3,2.78,4.95,5.35,7.99,7.7c3.04,2.34,6.47,4.45,10.32,6.3
		c0.15,0.07,0.19,0.23,0.15,0.36c-0.04,0.13-0.16,0.23-0.33,0.19c-4.4-0.95-9.03-2.64-13.19-4.3c-4.16-1.66-7.86-3.29-10.39-4.15
		c-23.9-8.04-32.72-6.23-32.43-1.98c0.29,4.25,9.69,10.95,22.21,12.68c0.25,0.03,0.41,0.24,0.45,0.49
		C413.29,401.25,413.21,401.53,412.97,401.69z M334.35,299.21c6.88,4.26,9.97,7.65,12.3,11.96s3.9,9.52,7.75,17.41
		c4.55,5.64,8.33,7.12,11.66,7.7c3.33,0.57,6.22,0.23,9,2.24c4.08,3.01,4.04,7.33,2.12,10.78s-5.72,6.03-9.15,5.56
		c-0.41-0.06-0.7-0.34-0.81-0.69c-0.11-0.34-0.05-0.75,0.25-1.04c0.58-0.57,1.17-1.35,1.39-2.39c0.21-1.04,0.05-2.35-0.89-3.97
		c-0.71-1.19-1.71-2.24-2.96-2.9c-1.25-0.67-2.75-0.95-4.47-0.6c-3.66,0.74-4.92,3.74-4.28,7.05s3.17,6.93,7.09,8.92
		c0.13,0.07,0.19,0.19,0.17,0.31c-0.01,0.12-0.1,0.23-0.24,0.26c-5.77,1.2-10.96,4.59-15.06,8.99c-4.1,4.39-7.12,9.78-8.52,14.96
		c-2.87,10.5-0.45,22.73,6.61,31.58c7.06,8.85,18.76,14.33,34.45,11.34c0.2-0.04,0.35,0.08,0.4,0.23s0.01,0.34-0.18,0.43
		c-2.52,1.25-5.08,2.27-7.84,3.07c-2.76,0.8-5.72,1.38-9.04,1.76c-6.33,0.71-13.27-0.3-19.68-0.62c-6.41-0.32-12.29,0.07-16.5,3.58
		c-7.66,6.48-7.69,13.44-2.96,18.12c4.73,4.68,14.22,7.09,25.61,4.44c0.22-0.05,0.39,0.06,0.47,0.22c0.08,0.16,0.07,0.37-0.1,0.51
		c-1.49,1.28-2.85,2.64-4.05,4.06s-2.24,2.9-3.07,4.42c-0.11,0.2-0.27,0.36-0.46,0.47c-0.19,0.11-0.41,0.17-0.64,0.16
		c-4.67-0.25-8.35-2.03-11.84-4.05c-3.48-2.03-6.76-4.3-10.6-5.57c-18.65-6.08-35.68-4.33-50.77-2.71
		c-15.09,1.62-28.24,3.1-39.14-3.53c-5.92-3.61-11.68-8.98-15.19-14.24c-3.51-5.26-4.78-10.41-1.71-13.56
		c0.26-0.27,0.61-0.44,0.97-0.49s0.74,0.01,1.07,0.18c5.54,2.96,7.91,5.92,9.9,8.41c1.99,2.49,3.61,4.51,7.64,5.59
		c4.01,1.08,6.56,1.15,8.59,0.5c2.03-0.65,3.55-2.03,5.49-3.86c2.21-2.1,4.57-4.71,4.72-8.87c0.15-4.16-1.91-9.87-8.53-18.16
		c-1.55-1.95-3.05-4.27-3.88-7.4s-1.02-7.05,0.04-12.22c0.61-3.04,3.3-3.66,6.65-4.37s7.36-1.51,10.64-4.9
		c0.08-0.09,0.2-0.13,0.3-0.14s0.22,0.04,0.3,0.13c5.85,6.51,16.4,14.7,29.03,18.19s27.34,2.26,41.52-10.08
		c10.39-9.04,15.76-23.44,16.66-39.27C345.47,331.28,341.89,314,334.35,299.21L334.35,299.21L334.35,299.21z M414.04,131.74
		c2.89,2.4,6.72,5.86,11.13,9.77c4.41,3.91,9.42,8.26,14.66,12.46c0.56,0.45,0.61,1.12,0.35,1.63c-0.26,0.51-0.84,0.86-1.53,0.66
		c-4.56-1.3-9.14-2.49-13.73-3.56c-4.59-1.07-9.2-2.02-13.83-2.86c-0.4-0.07-0.74-0.29-0.98-0.58c-0.24-0.3-0.37-0.68-0.36-1.08
		c0.09-3.29-0.01-5.91,0.21-8.43s0.79-4.94,2.22-7.83c0.1-0.19,0.45-0.32,0.83-0.36S413.83,131.56,414.04,131.74z M519.76,38.7
		c4.66,9.16,2.39,21.03-10.4,30.35c-12.79,9.32-36.09,16.08-73.46,15.01c-1.03-0.03-1.87-0.59-2.33-1.38
		c-0.46-0.79-0.55-1.79-0.07-2.71c17.18-33.05,36.22-48.31,52.22-52.83C501.73,22.61,514.7,28.82,519.76,38.7L519.76,38.7
		L519.76,38.7z M525.26,195.46c8.92-0.54,18.04-3.58,25.86-8.74s14.37-12.46,18.13-21.53c2.71-6.47,1.39-12.52-2.36-21.44
		c-3.75-8.92-9.94-20.7-16.99-38.62c-3.02-7.67-2.15-17.25,0.19-27.09s6.15-19.92,9.03-28.59c11.18-33.95-18.15-50.24-54.97-47.97
		s-81.11,23.09-99.85,63.34c-0.29,0.62-0.84,1.01-1.45,1.14c-0.61,0.12-1.27-0.02-1.79-0.47c-4.77-4.11-10.17-7.29-15.98-9.44
		c-5.8-2.15-12-3.28-18.37-3.28c-6.18,0-12.21,1.06-17.86,3.1c-5.66,2.04-10.95,5.06-15.67,8.97c-0.62,0.51-1.4,0.67-2.1,0.51
		c-0.71-0.16-1.34-0.62-1.68-1.35c-18.58-40.48-62.95-61.44-99.87-63.78s-66.38,13.94-55.15,47.94c2.87,8.68,6.68,18.76,9.03,28.59
		c2.34,9.83,3.21,19.41,0.19,27.09c-7.04,17.9-13.23,29.68-16.99,38.59c-3.76,8.91-5.08,14.97-2.4,21.44
		c4.21,10.13,10.36,16.72,17.85,20.53c7.49,3.81,16.31,4.86,25.84,3.92c0.09-0.01,0.16,0.05,0.18,0.11c0.02,0.07,0.01,0.15-0.07,0.2
		c-26.62,16.42-50.13,36.9-69.83,60.68s-35.6,50.88-46.98,80.54c-13.75,35.82-20.1,73.25-19.09,110.47
		c1.01,37.23,9.36,74.26,25.02,109.3c23.26,52.03,60.81,94.64,106.64,124.23s99.95,46.17,156.35,46.14c19.95,0,39.88-2.09,59.5-6.27
		c19.62-4.18,38.95-10.45,57.69-18.79c35.11-15.62,66.12-37.61,91.79-64.64c25.67-27.04,46-59.13,59.75-94.95
		c23.75-61.8,24.77-127.71,6.3-187.55c-18.48-59.84-56.45-113.6-110.7-151.12c-0.27-0.19-0.28-0.48-0.11-0.73
		S524.86,195.49,525.26,195.46z"/>
</g>
</svg>
