<?xml version="1.0" encoding="utf-8"?>
<!-- Generator: Adobe Illustrator 24.3.0, SVG Export Plug-In . SVG Version: 6.00 Build 0)  -->
<svg version="1.1" id="Слой_1" xmlns="http://www.w3.org/2000/svg" xmlns:xlink="http://www.w3.org/1999/xlink" x="0px" y="0px"
	 viewBox="0 0 720 720" style="enable-background:new 0 0 720 720;" xml:space="preserve">
<style type="text/css">
	.st0{fill-rule:evenodd;clip-rule:evenodd;}
</style>
<g>
	<path class="st0" d="M329.06,53.45c-15.36-33.78-52.24-51.28-82.95-53.26s-55.25,11.57-45.92,39.88c2.37,7.21,5.53,15.6,7.47,23.78
		c1.94,8.18,2.67,16.15,0.16,22.52c-5.85,14.9-10.99,24.7-14.11,32.11s-4.22,12.46-1.98,17.84c3.79,9.1,9.46,14.75,16.36,17.78
		c6.91,3.03,15.05,3.44,23.79,2.04c0.51-0.08,0.87,0.23,0.98,0.62c0.12,0.39-0.01,0.85-0.47,1.07
		c-15.22,7.28-29.72,15.83-43.36,25.49s-26.42,20.45-38.21,32.23c-26.76,26.73-48.42,58.56-63.4,93.92S64.17,383.7,64.17,424.5
		c0,40.79,8.28,79.65,23.25,115.01c14.97,35.35,36.63,67.19,63.4,93.94c26.76,26.73,58.64,48.37,94.03,63.33
		C280.25,711.73,319.16,720,360,720s79.75-8.27,115.15-23.23c35.39-14.96,67.27-36.59,94.03-63.33
		c26.76-26.75,48.42-58.59,63.4-93.94c14.97-35.35,23.25-74.21,23.25-115.01c0-40.81-8.28-79.68-23.25-115.03
		s-36.64-67.18-63.4-93.92c-11.57-11.56-24.1-22.17-37.46-31.7s-27.54-17.98-42.43-25.22c-0.33-0.16-0.41-0.48-0.33-0.76
		s0.34-0.5,0.7-0.45c8.41,1.15,16.22,0.55,22.85-2.54c6.63-3.09,12.08-8.67,15.75-17.5c2.24-5.38,1.14-10.42-1.98-17.84
		c-3.13-7.42-8.28-17.22-14.14-32.11c-2.5-6.37-1.77-14.34,0.18-22.52s5.12-16.56,7.48-23.78c9.31-28.24-15.05-41.79-45.63-39.91
		s-67.37,19.17-82.94,52.64c-0.04,0.08-0.16,0.13-0.29,0.15s-0.26,0.01-0.3-0.04c-4.09-4.02-8.89-7.15-14.09-9.28
		c-5.21-2.13-10.82-3.26-16.56-3.26c-5.61,0-11.11,1.08-16.23,3.12c-5.12,2.04-9.84,5.05-13.9,8.91c-0.09,0.09-0.27,0.13-0.44,0.12
		C329.26,53.59,329.1,53.54,329.06,53.45z M267.5,143.43c11.18-5.68,21.98-12.44,31.28-18.79s17.07-12.3,22.18-16.37
		c0.35-0.28,0.78-0.34,1.17-0.24c0.39,0.11,0.72,0.39,0.87,0.81c0.96,2.73,1.19,6.51,1.16,10.35s-0.32,7.76-0.39,10.76
		c-0.01,0.36-0.15,0.68-0.37,0.93c-0.23,0.25-0.54,0.42-0.89,0.46c-9.45,1.19-18.75,2.83-27.89,4.89s-18.12,4.55-26.91,7.43
		c-0.34,0.11-0.54,0.13-0.58,0.08C267.08,143.7,267.2,143.58,267.5,143.43z M396.23,130.04c-0.05-2.17-0.2-5.31-0.27-8.58
		c-0.07-3.27-0.04-6.66,0.27-9.33c0.12-1,0.76-1.74,1.57-2.08c0.81-0.34,1.79-0.27,2.58,0.36c4.66,3.67,11.14,8.59,18.75,13.87
		c7.61,5.28,16.36,10.93,25.55,16.06c0.25,0.14,0.29,0.39,0.21,0.6c-0.08,0.2-0.3,0.35-0.57,0.27c-7.54-2.24-15.22-4.19-23-5.83
		s-15.69-2.98-23.68-3.99c-0.23-0.03-0.58-0.26-0.87-0.53C396.47,130.57,396.23,130.25,396.23,130.04z M391.71,605.21
		c-0.04-0.43-0.11-0.86-0.16-1.19c-0.05-0.33-0.1-0.56-0.1-0.59c-1.42-9.32-5.47-15.71-10.74-21c-5.27-5.28-11.76-9.45-18.05-14.32
		c-13.96-10.79-20.26-16.51-24.22-21.56c-3.96-5.05-5.58-9.45-10.17-17.59c-0.31-0.55-0.88-0.69-1.36-0.55
		c-0.48,0.14-0.88,0.58-0.84,1.21c0.92,14.39,3.85,22.93,9.29,30.05c5.44,7.12,13.4,12.84,24.37,21.59
		c2.96,0.03,5.87,0.47,8.65,1.28s5.43,1.99,7.87,3.5c1.92,1.19,3.99,2.77,5.93,4.62c1.94,1.85,3.76,3.97,5.18,6.26
		c1,1.61,1.77,3.32,2.36,4.85s1,2.89,1.29,3.82c0.13,0.41,0.32,0.51,0.47,0.41C391.64,605.91,391.75,605.61,391.71,605.21z
		 M408.06,616.61c1.28,0.62,2.53,1.31,3.74,2.07c1.2,0.76,2.36,1.59,3.47,2.48c0.04,0.04,0.1,0.06,0.15,0.06
		c0.05,0,0.11-0.01,0.15-0.04c13.92-8.74,30.06-18.97,45.89-28.51s31.33-18.39,43.97-24.38c0.16-0.07,0.2-0.23,0.15-0.35
		c-0.04-0.13-0.16-0.23-0.33-0.2c-3.96,0.7-9.87,1.73-15.28,2.64c-5.41,0.91-10.31,1.71-12.28,1.95c-4.43,0.51-6.7-0.88-7.96-2.88
		s-1.54-4.6-1.97-6.52c-0.06-0.28-0.26-0.47-0.51-0.56s-0.52-0.05-0.74,0.13c-6.71,5.39-11.01,12.4-14.25,18.28
		c-3.23,5.88-5.4,10.62-7.82,11.47c-1.86,0.66-4.42,0.48-7.01-0.85c-2.59-1.32-5.22-3.79-7.23-7.67c-0.1-0.19-0.27-0.3-0.46-0.33
		c-0.18-0.03-0.38,0.03-0.51,0.19c-1.98,2.33-3.42,5.64-4.82,9.14s-2.76,7.19-4.58,10.29c-0.66,1.13-2.33-0.02-4.02-1.19
		c-1.69-1.17-3.4-2.36-4.13-1.31c-1.29,1.84-1.84,4.1-2.27,6.72c-0.43,2.62-0.73,5.6-1.52,8.91c-0.01,0.06,0.01,0.17,0.04,0.27
		C407.97,616.5,408.02,616.59,408.06,616.61z M423.05,629.85c0.92,1.42,1.75,2.92,2.47,4.49s1.34,3.2,1.84,4.89
		c0.04,0.12,0.11,0.23,0.2,0.31c0.1,0.08,0.21,0.13,0.34,0.14c4.32,0.41,8.23,1.23,11.82,1.76c3.59,0.53,6.86,0.77,9.91,0.02
		c0.26-0.06,0.42-0.26,0.47-0.47c0.05-0.22-0.01-0.47-0.21-0.64c-1.49-1.28-3.31-3.7-3.97-6.03c-0.66-2.32-0.15-4.55,3.01-5.45
		c1.9-0.54,6.34-0.73,10.9-0.83c4.56-0.1,9.24-0.09,11.63-0.23c0.22-0.01,0.41-0.13,0.51-0.3c0.1-0.17,0.13-0.39,0.04-0.59
		c-0.51-1.12-1.36-3.24-1.53-5.29c-0.17-2.05,0.35-4.04,2.59-4.93c3.65-1.43,8.16-2.25,12.44-2.92c4.28-0.68,8.34-1.21,11.07-2.08
		c0.21-0.07,0.36-0.23,0.41-0.42c0.06-0.19,0.03-0.41-0.11-0.59c-4.15-5.63-2.39-11.74,1.19-17.56c3.58-5.82,8.97-11.36,12.07-15.84
		c0.2-0.29,0.13-0.61-0.06-0.81c-0.19-0.2-0.51-0.28-0.8-0.09c-11.88,7.67-26.51,16.75-41.63,26.06
		C452.52,611.75,436.9,621.27,423.05,629.85L423.05,629.85L423.05,629.85z M303.09,635.18c0.56-1.13,1.19-2.23,1.89-3.3
		s1.46-2.1,2.29-3.09c0.1-0.12,0.04-0.43-0.1-0.75c-0.14-0.32-0.36-0.64-0.58-0.77c-14.24-8.81-30.47-18.7-46.18-28.36
		s-30.89-19.08-43.02-26.95c-0.17-0.11-0.34-0.1-0.42,0s-0.1,0.26,0.02,0.46c2.82,4.7,9.01,11.56,12.28,18.27
		c3.27,6.71,3.63,13.27-5.22,17.37c-0.06,0.03-0.08,0.1-0.06,0.17c0.02,0.07,0.08,0.14,0.16,0.17c2.85,0.92,8.67,1.37,14.72,1.96
		c6.04,0.59,12.31,1.31,16.04,2.78c2.41,0.94,2.31,3.6,1.45,6.3c-0.86,2.69-2.48,5.42-3.13,6.5c-0.09,0.14-0.06,0.27,0.01,0.36
		c0.08,0.09,0.2,0.15,0.32,0.15c2.33,0.05,7.72-0.51,13.02-0.95s10.5-0.75,12.44-0.18c3.3,0.93,3.71,3.19,2.92,5.47
		s-2.77,4.61-4.26,5.68c-0.12,0.08-0.16,0.24-0.15,0.39c0.01,0.15,0.09,0.29,0.2,0.34c4.08,1.74,7.74,1.72,11.52,1.13
		c3.78-0.58,7.67-1.72,12.21-2.2c0.2-0.02,0.57-0.19,0.9-0.38C302.72,635.54,303.02,635.32,303.09,635.18z M317.22,620.89
		c0.4-0.2,0.79-0.39,1.19-0.57c0.4-0.18,0.8-0.36,1.2-0.53c0.1-0.04,0.21-0.22,0.27-0.41c0.06-0.19,0.09-0.4,0.04-0.5
		c-2.35-4.95-3.06-9.4-3.62-13.23c-0.56-3.83-0.96-7.05-2.69-9.54c-0.73-1.05-2.44,0.14-4.13,1.31s-3.36,2.33-4.02,1.22
		c-1.83-3.11-3.88-6.25-6.03-9.51c-2.15-3.27-4.39-6.66-6.59-10.31c-0.1-0.16-0.33-0.2-0.57-0.15s-0.47,0.18-0.57,0.37
		c-1.87,3.75-3.67,6.29-5.46,7.72c-1.79,1.44-3.57,1.77-5.42,1.12c-2.4-0.85-4.8-6.74-8.28-13.8c-3.48-7.06-8.04-15.28-14.76-20.79
		c-0.16-0.13-0.44-0.15-0.68-0.08c-0.25,0.07-0.46,0.22-0.48,0.45c-0.24,2.56,0.27,7.55-0.29,11.77c-0.56,4.22-2.19,7.66-6.71,7.14
		c-2.03-0.23-7.27-1.37-12.97-2.64c-5.7-1.28-11.85-2.68-15.7-3.45c-0.27-0.05-0.5,0.14-0.61,0.37c-0.11,0.23-0.11,0.5,0.09,0.59
		c13.54,6.31,30.23,15.24,47.09,24.76c16.86,9.52,33.89,19.65,48.1,28.37c0.17,0.1,0.52,0.21,0.85,0.28S317.13,620.94,317.22,620.89
		z M331.57,597.38c0.6-1.21,1.09-2,1.65-2.72c0.56-0.72,1.18-1.38,2.04-2.35c0.06-0.07,0.09-0.16,0.08-0.24
		c0-0.09-0.04-0.17-0.11-0.23c-1.85-1.58-3.68-3.28-5.27-5.31c-1.59-2.03-2.94-4.39-3.81-7.28c-0.05-0.18-0.21-0.26-0.36-0.25
		s-0.3,0.11-0.33,0.3c-0.88,5.5-0.32,9.19,0.76,11.99c1.08,2.8,2.68,4.72,3.89,6.7c0.07,0.11,0.18,0.29,0.31,0.44
		c0.13,0.15,0.27,0.28,0.4,0.28c0.06,0,0.24-0.33,0.42-0.67S331.57,597.38,331.57,597.38z M376.12,640.49
		c-1.75,1.07-3.54,1.94-5.39,2.63c-1.84,0.69-3.75,1.2-5.72,1.55c-0.04,0.01-0.07,0.03-0.1,0.05c-0.03,0.03-0.05,0.06-0.05,0.1
		c-0.34,1.87-0.47,3.75-0.42,5.62c0.06,1.87,0.31,3.74,0.75,5.6c0.87,3.71,2.46,7.06,4.58,9.95c2.12,2.89,4.77,5.33,7.76,7.19
		c2.74,1.68,5.77,2.9,8.96,3.56c3.19,0.66,6.54,0.77,9.9,0.24c0.05-0.01,0.08-0.03,0.07-0.06c0-0.03-0.04-0.05-0.09-0.06
		c-0.66-0.15-1.3-0.35-1.92-0.59c-0.62-0.25-1.22-0.54-1.78-0.88c-1.28-0.79-2.41-1.83-3.31-3.06c-0.9-1.23-1.57-2.65-1.94-4.2
		c-0.37-1.57-0.4-3.13-0.14-4.62c0.26-1.49,0.81-2.91,1.6-4.19c0.78-1.27,1.81-2.39,3.04-3.28c1.23-0.9,2.66-1.57,4.23-1.93
		c1.56-0.37,3.12-0.4,4.61-0.15c1.49,0.25,2.91,0.79,4.18,1.59c1.28,0.79,2.4,1.82,3.3,3.05c0.9,1.22,1.57,2.64,1.95,4.21
		c0.37,1.58,0.4,3.16,0.13,4.67c-0.27,1.51-0.84,2.94-1.66,4.22c0,0.01-0.03,0.05-0.05,0.09c-0.02,0.04-0.04,0.09-0.02,0.1
		c0.02,0.01,0.06-0.02,0.11-0.06c0.05-0.04,0.1-0.08,0.12-0.1c1.35-1.03,2.61-2.18,3.74-3.43s2.15-2.6,3.03-4.02
		c1.86-3,3.15-6.37,3.76-9.91s0.52-7.26-0.37-10.98c-0.84-3.58-2.34-6.84-4.35-9.66s-4.51-5.22-7.35-7.08
		c-2.45-1.6-5.13-2.82-7.97-3.59c-2.84-0.77-5.83-1.09-8.87-0.92c-0.1,0.01-0.18,0.04-0.26,0.1c-0.07,0.06-0.13,0.14-0.15,0.23
		c-1.14,3.75-2.95,7.24-5.31,10.3C382.38,635.8,379.46,638.44,376.12,640.49L376.12,640.49L376.12,640.49z M352.95,644.53
		c-2.56-0.44-4.77-1.13-6.85-2.11s-4.04-2.24-6.1-3.82c-2.03-1.55-3.87-3.33-5.47-5.3c-1.6-1.97-2.96-4.12-4.05-6.43
		c-0.04-0.09-0.11-0.16-0.18-0.2c-0.08-0.05-0.17-0.07-0.27-0.06c-5.56,0.41-10.57,2.8-14.31,6.48c-3.74,3.68-6.22,8.66-6.72,14.23
		c-0.22,2.59-0.01,5.21,0.64,7.74s1.75,4.99,3.3,7.23c0.05,0.07,0.11,0.1,0.14,0.1c0.04-0.01,0.06-0.05,0.04-0.13
		c-0.12-0.54-0.21-1.09-0.24-1.64c-0.04-0.55-0.03-1.11,0.02-1.65c0.12-1.36,0.5-2.69,1.12-3.92c0.63-1.23,1.5-2.36,2.63-3.31
		c1.13-0.95,2.4-1.62,3.72-2.02c1.32-0.4,2.69-0.54,4.04-0.42c1.36,0.12,2.69,0.5,3.93,1.14c1.23,0.63,2.36,1.52,3.31,2.65
		c0.93,1.13,1.6,2.39,2,3.7c0.4,1.31,0.55,2.68,0.44,4.02c-0.12,1.36-0.5,2.69-1.14,3.92c-0.63,1.23-1.52,2.36-2.65,3.31
		c-0.99,0.83-2.09,1.45-3.24,1.86c-1.15,0.41-2.36,0.62-3.55,0.61c-0.06,0-0.1,0.02-0.12,0.04c-0.02,0.02-0.01,0.05,0.04,0.06
		c1.01,0.4,2.05,0.71,3.11,0.96c1.05,0.25,2.12,0.42,3.19,0.52c5.48,0.47,10.74-1.02,15-3.95c4.26-2.93,7.53-7.3,9.03-12.58
		c0.46-1.64,0.73-3.34,0.81-5.04s-0.02-3.41-0.32-5.09c-0.02-0.11-0.21-0.31-0.4-0.48s-0.37-0.31-0.37-0.31l-0.27-0.05
		L352.95,644.53z M375.48,622.92c0.28,1.21,0.34,2.43,0.21,3.62s-0.47,2.32-0.98,3.37c-0.03,0.05-0.01,0.11,0.03,0.13
		c0.04,0.03,0.09,0.03,0.14-0.01c1.51-1.38,2.81-2.94,3.88-4.65s1.92-3.56,2.52-5.51c0.58-1.92,0.91-3.91,0.97-5.91
		s-0.13-4.01-0.61-5.98c-0.72-3.07-2.02-5.84-3.77-8.23c-1.75-2.39-3.94-4.4-6.43-5.92c-2.49-1.54-5.27-2.6-8.19-3.1
		s-6-0.43-9.09,0.29c-3.07,0.72-5.85,2.03-8.24,3.78s-4.4,3.94-5.93,6.41c-1.54,2.49-2.6,5.26-3.1,8.18s-0.43,6,0.29,9.08
		c0.61,2.58,1.64,4.99,3.05,7.17c1.4,2.17,3.18,4.1,5.29,5.7c2.39,1.83,5.13,3.16,8.03,3.94c2.89,0.78,5.93,0.99,8.9,0.58
		c0.1-0.01,0.15-0.07,0.14-0.12s-0.08-0.11-0.19-0.15c-0.5-0.14-0.99-0.31-1.47-0.52c-0.48-0.21-0.94-0.44-1.39-0.72
		c-1.16-0.72-2.18-1.65-3-2.77c-0.82-1.12-1.43-2.41-1.76-3.85c-0.34-1.4-0.37-2.82-0.13-4.18c0.23-1.36,0.73-2.65,1.45-3.81
		c0.72-1.16,1.66-2.18,2.77-3c1.12-0.82,2.42-1.43,3.85-1.76c1.42-0.34,2.84-0.37,4.19-0.13c1.35,0.23,2.64,0.73,3.81,1.44
		c1.16,0.72,2.18,1.65,3,2.77S375.14,621.49,375.48,622.92L375.48,622.92L375.48,622.92z M143.16,372.56l1.09,7.57l1.09,7.57
		c0.03,0.22,0.12,0.42,0.26,0.58c0.14,0.16,0.32,0.29,0.53,0.35l7.27,2.35l7.27,2.35c0.44,0.14,0.71,0.5,0.78,0.89
		c0.07,0.39-0.06,0.82-0.42,1.11l-6.01,4.72l-6.01,4.72c-0.17,0.14-0.3,0.31-0.37,0.51c-0.07,0.2-0.09,0.42-0.04,0.63l1.59,7.47
		l1.59,7.47c0.1,0.45-0.08,0.86-0.38,1.12c-0.31,0.26-0.74,0.36-1.17,0.19l-7.11-2.84l-7.11-2.84c-0.2-0.08-0.42-0.1-0.63-0.06
		c-0.21,0.04-0.41,0.13-0.57,0.28l-5.68,5.11l-5.68,5.11c-0.34,0.31-0.79,0.36-1.16,0.23s-0.68-0.46-0.75-0.92l-1.08-7.56
		l-1.08-7.56c-0.03-0.22-0.12-0.42-0.26-0.58c-0.14-0.16-0.32-0.29-0.53-0.35l-7.28-2.36l-7.28-2.36c-0.44-0.14-0.71-0.5-0.78-0.89
		c-0.07-0.39,0.06-0.82,0.42-1.11l6.02-4.71l6.02-4.71c0.17-0.14,0.3-0.31,0.37-0.51c0.07-0.2,0.09-0.42,0.04-0.63l-1.59-7.48
		l-1.59-7.48c-0.1-0.45,0.08-0.86,0.39-1.12c0.31-0.26,0.74-0.36,1.17-0.19l7.09,2.85l7.09,2.85c0.2,0.08,0.42,0.1,0.63,0.07
		c0.21-0.04,0.41-0.13,0.57-0.28l5.68-5.12l5.68-5.12c0.34-0.31,0.79-0.36,1.16-0.23C142.79,371.78,143.1,372.11,143.16,372.56z
		 M129.61,453.89l5.81,4.59l5.81,4.59c0.14,0.11,0.3,0.18,0.46,0.21c0.17,0.03,0.34,0.03,0.51-0.02l7.11-2.08l7.11-2.08
		c0.43-0.12,0.83,0.02,1.09,0.3s0.38,0.7,0.22,1.11l-2.59,6.93l-2.59,6.93c-0.06,0.16-0.08,0.34-0.06,0.51s0.08,0.33,0.18,0.48
		l4.18,6.11l4.18,6.11c0.25,0.37,0.24,0.8,0.05,1.13c-0.19,0.33-0.54,0.57-0.99,0.55l-7.39-0.31l-7.39-0.31
		c-0.17-0.01-0.35,0.03-0.5,0.1c-0.15,0.07-0.29,0.18-0.4,0.32l-4.53,5.85l-4.53,5.85c-0.27,0.35-0.69,0.47-1.06,0.4
		c-0.38-0.07-0.71-0.34-0.83-0.77l-1.99-7.13l-1.99-7.13c-0.05-0.17-0.13-0.32-0.25-0.45c-0.12-0.12-0.26-0.22-0.43-0.28l-6.98-2.49
		l-6.98-2.49c-0.42-0.15-0.66-0.5-0.71-0.88s0.1-0.78,0.47-1.03l6.17-4.1l6.17-4.1c0.15-0.1,0.26-0.23,0.35-0.37
		c0.08-0.15,0.13-0.32,0.14-0.49l0.22-7.39l0.22-7.39c0.01-0.44,0.28-0.78,0.62-0.95C128.83,453.6,129.26,453.62,129.61,453.89z
		 M163.15,523.38l2,9.06l2,9.06c0.01,0.07,0.04,0.12,0.09,0.17c0.04,0.05,0.09,0.09,0.16,0.12l8.56,3.58l8.56,3.58
		c0.16,0.07,0.24,0.21,0.25,0.35c0.01,0.15-0.06,0.3-0.2,0.38l-8,4.69l-8,4.69c-0.06,0.03-0.1,0.08-0.14,0.14
		c-0.03,0.05-0.06,0.12-0.06,0.18l-0.77,9.23l-0.77,9.23c-0.01,0.17-0.12,0.29-0.26,0.35s-0.3,0.04-0.42-0.07l-6.96-6.14l-6.96-6.14
		c-0.05-0.04-0.11-0.07-0.17-0.09c-0.06-0.02-0.13-0.02-0.19,0l-9.02,2.12l-9.02,2.12c-0.16,0.04-0.32-0.02-0.41-0.14
		c-0.09-0.11-0.13-0.27-0.06-0.43l3.7-8.49l3.7-8.49c0.03-0.06,0.04-0.13,0.03-0.19c0-0.06-0.02-0.13-0.06-0.18l-4.8-7.93l-4.8-7.93
		c-0.09-0.14-0.07-0.31,0-0.43c0.08-0.12,0.22-0.21,0.39-0.19l9.23,0.9l9.23,0.9c0.07,0.01,0.13,0,0.19-0.03
		c0.06-0.02,0.11-0.06,0.16-0.11l6.06-7.02l6.06-7.02c0.11-0.13,0.27-0.17,0.41-0.13C162.99,523.11,163.11,523.22,163.15,523.38z
		 M222.74,435.86l3.4,16.46l3.4,16.46c0.02,0.09,0.06,0.17,0.11,0.24s0.13,0.13,0.21,0.16l11.34,5.2l11.34,5.2
		c0.22,0.1,0.33,0.31,0.33,0.52s-0.11,0.42-0.33,0.52l-11.34,5.2l-11.34,5.2c-0.08,0.04-0.15,0.09-0.21,0.16s-0.09,0.15-0.11,0.24
		l-3.4,16.46l-3.4,16.46c-0.06,0.31-0.31,0.46-0.56,0.46c-0.25,0-0.5-0.15-0.56-0.46l-3.38-16.46l-3.38-16.46
		c-0.02-0.09-0.06-0.17-0.11-0.24c-0.06-0.07-0.13-0.13-0.21-0.16l-11.36-5.2l-11.36-5.2c-0.22-0.1-0.33-0.31-0.33-0.52
		c0-0.21,0.11-0.42,0.33-0.52l11.36-5.2l11.36-5.2c0.08-0.04,0.15-0.09,0.21-0.16c0.06-0.07,0.09-0.15,0.11-0.24l3.38-16.46
		l3.38-16.46c0.06-0.31,0.31-0.46,0.56-0.46C222.43,435.4,222.68,435.55,222.74,435.86z M290.89,380.02l1.13,7.91l1.13,7.91
		c0.02,0.17,0.09,0.32,0.2,0.44c0.1,0.12,0.24,0.22,0.4,0.27l7.59,2.45l7.59,2.45c0.33,0.11,0.54,0.38,0.6,0.68
		c0.05,0.3-0.05,0.63-0.32,0.85l-6.28,4.93l-6.28,4.93c-0.13,0.1-0.23,0.24-0.28,0.39s-0.07,0.32-0.03,0.48l1.66,7.8l1.66,7.8
		c0.07,0.34-0.06,0.66-0.29,0.86s-0.57,0.27-0.89,0.14l-7.41-2.96l-7.41-2.96c-0.16-0.06-0.32-0.08-0.48-0.05
		c-0.16,0.03-0.31,0.1-0.43,0.21l-5.95,5.34l-5.95,5.34c-0.26,0.23-0.6,0.28-0.89,0.17c-0.29-0.1-0.52-0.35-0.57-0.7l-1.13-7.9
		l-1.13-7.9c-0.02-0.17-0.09-0.32-0.2-0.44s-0.24-0.22-0.4-0.27l-7.6-2.47l-7.6-2.47c-0.33-0.11-0.54-0.38-0.59-0.68
		c-0.05-0.3,0.05-0.63,0.32-0.85l6.28-4.93l6.28-4.93c0.13-0.1,0.23-0.24,0.28-0.39s0.07-0.32,0.03-0.48l-1.66-7.8l-1.66-7.8
		c-0.07-0.34,0.06-0.66,0.29-0.86c0.23-0.2,0.57-0.27,0.89-0.14l7.41,2.98l7.41,2.98c0.16,0.06,0.32,0.08,0.48,0.05
		c0.16-0.03,0.31-0.1,0.43-0.21l5.95-5.35l5.95-5.35c0.26-0.24,0.6-0.28,0.89-0.17C290.61,379.42,290.84,379.67,290.89,380.02z
		 M433.67,429.27l1.66,7.52l1.66,7.52c0.02,0.1,0.07,0.19,0.13,0.26c0.06,0.07,0.14,0.13,0.23,0.17l7.12,2.98l7.12,2.98
		c0.23,0.1,0.36,0.31,0.38,0.53c0.01,0.22-0.08,0.44-0.3,0.57l-6.64,3.91l-6.64,3.91c-0.09,0.05-0.16,0.12-0.21,0.2
		c-0.05,0.08-0.08,0.18-0.09,0.28l-0.65,7.68l-0.65,7.68c-0.02,0.25-0.18,0.44-0.39,0.52s-0.45,0.06-0.64-0.11l-5.77-5.11
		l-5.77-5.11c-0.08-0.07-0.16-0.11-0.26-0.14c-0.09-0.02-0.19-0.03-0.29,0l-7.5,1.77l-7.5,1.77c-0.25,0.06-0.47-0.04-0.61-0.2
		c-0.14-0.17-0.19-0.41-0.09-0.64l3.08-7.07l3.08-7.07c0.04-0.09,0.06-0.19,0.05-0.29s-0.04-0.19-0.09-0.28l-4.01-6.6l-4.01-6.6
		c-0.13-0.22-0.11-0.46,0-0.65c0.12-0.19,0.33-0.31,0.58-0.29l7.69,0.75l7.69,0.75c0.1,0.01,0.2-0.01,0.29-0.04s0.17-0.09,0.24-0.17
		l5.04-5.83l5.04-5.83c0.17-0.19,0.41-0.25,0.62-0.19C433.43,428.86,433.61,429.02,433.67,429.27z M562.02,557.17l1.71,7.72
		l1.71,7.72c0.05,0.24,0.16,0.46,0.31,0.64c0.15,0.18,0.35,0.33,0.57,0.42l6.55,2.75l6.55,2.75c0.48,0.2,0.74,0.63,0.77,1.08
		s-0.17,0.91-0.62,1.18l-6.1,3.58l-6.1,3.58c-0.23,0.14-0.42,0.32-0.56,0.55c-0.14,0.22-0.23,0.48-0.25,0.74l-0.58,6.91l-0.58,6.91
		c-0.05,0.58-0.42,1-0.88,1.19s-1.02,0.13-1.46-0.25l-5.13-4.55l-5.13-4.55c-0.23-0.2-0.5-0.35-0.79-0.42
		c-0.29-0.07-0.6-0.08-0.89-0.01l-7.04,1.65l-7.04,1.65c-0.42,0.1-0.8-0.06-1.04-0.35c-0.24-0.28-0.33-0.69-0.15-1.08l2.84-6.52
		l2.84-6.52c0.15-0.35,0.21-0.72,0.19-1.08c-0.02-0.37-0.14-0.73-0.33-1.05l-3.7-6.09l-3.7-6.09c-0.22-0.36-0.19-0.78,0.01-1.09
		c0.2-0.31,0.55-0.52,0.98-0.48l7.1,0.68l7.1,0.68c0.38,0.04,0.76-0.02,1.1-0.16s0.66-0.36,0.9-0.65l5.02-5.82l5.02-5.82
		c0.13-0.15,0.31-0.19,0.47-0.15C561.84,556.86,561.98,556.98,562.02,557.17z M580.24,462.03l3.37,16.39l3.37,16.39
		c0.07,0.32,0.21,0.62,0.41,0.87s0.46,0.45,0.76,0.59l10.31,4.72l10.31,4.72c0.5,0.23,0.75,0.7,0.75,1.16s-0.25,0.94-0.75,1.16
		l-10.25,4.69l-10.25,4.69c-0.34,0.15-0.63,0.39-0.85,0.67s-0.38,0.62-0.46,0.98l-3.4,16.54l-3.4,16.54
		c-0.04,0.19-0.19,0.28-0.35,0.29c-0.16,0-0.31-0.09-0.35-0.28l-3.4-16.47l-3.4-16.47c-0.08-0.41-0.26-0.78-0.51-1.1
		c-0.25-0.32-0.58-0.57-0.95-0.75l-10.95-5.02l-10.95-5.02c-0.19-0.09-0.29-0.27-0.29-0.45c0-0.18,0.1-0.36,0.29-0.45l11.03-5.05
		l11.03-5.05c0.33-0.15,0.62-0.38,0.84-0.65c0.22-0.28,0.38-0.61,0.45-0.96l3.37-16.34l3.37-16.34c0.05-0.24,0.24-0.36,0.44-0.36
		C580,461.68,580.19,461.79,580.24,462.03z M455.24,359.17l1,6.97l1,6.97c0.01,0.07,0.04,0.13,0.08,0.18
		c0.04,0.05,0.1,0.09,0.16,0.11l6.69,2.18l6.69,2.18c0.14,0.04,0.22,0.16,0.24,0.28c0.02,0.12-0.02,0.26-0.13,0.35l-5.54,4.34
		l-5.54,4.34c-0.05,0.04-0.09,0.1-0.12,0.16s-0.03,0.13-0.01,0.2l1.48,6.88l1.48,6.88c0.03,0.14-0.02,0.27-0.12,0.35
		s-0.23,0.11-0.37,0.06l-6.54-2.62l-6.54-2.62c-0.06-0.03-0.13-0.03-0.2-0.02c-0.07,0.01-0.13,0.04-0.18,0.09l-5.22,4.71l-5.22,4.71
		c-0.11,0.1-0.25,0.11-0.36,0.07c-0.12-0.04-0.21-0.15-0.23-0.29l-1-6.96l-1-6.96c-0.01-0.07-0.04-0.13-0.08-0.18
		c-0.04-0.05-0.1-0.09-0.16-0.11l-6.7-2.18l-6.7-2.18c-0.14-0.04-0.22-0.16-0.24-0.28c-0.02-0.12,0.02-0.26,0.13-0.35l5.54-4.34
		l5.54-4.34c0.05-0.04,0.09-0.1,0.12-0.16s0.03-0.13,0.01-0.2l-1.46-6.88l-1.46-6.88c-0.03-0.14,0.02-0.27,0.12-0.35
		s0.23-0.11,0.37-0.06l6.53,2.62l6.53,2.62c0.06,0.03,0.13,0.03,0.2,0.02c0.07-0.01,0.13-0.04,0.18-0.09l5.24-4.72l5.24-4.72
		c0.11-0.1,0.25-0.11,0.36-0.07C455.12,358.93,455.21,359.03,455.24,359.17z M594.21,384.37l2.22,10l2.22,10
		c0.07,0.33,0.22,0.62,0.43,0.87c0.21,0.25,0.48,0.45,0.78,0.58l9.48,3.98l9.48,3.98c0.36,0.15,0.55,0.47,0.57,0.8
		c0.02,0.33-0.13,0.68-0.46,0.87l-8.96,5.27l-8.96,5.27c-0.23,0.14-0.42,0.32-0.56,0.55c-0.14,0.22-0.23,0.48-0.25,0.74l-0.86,10.27
		l-0.86,10.27c-0.03,0.42-0.3,0.73-0.63,0.86c-0.33,0.13-0.74,0.1-1.05-0.18l-7.71-6.82l-7.71-6.82c-0.21-0.19-0.47-0.32-0.74-0.39
		c-0.27-0.07-0.55-0.07-0.83-0.01l-10.08,2.36l-10.08,2.36c-0.39,0.09-0.75-0.06-0.97-0.32c-0.22-0.26-0.3-0.64-0.14-1.01l4.12-9.44
		l4.12-9.44c0.12-0.29,0.18-0.59,0.16-0.9c-0.02-0.3-0.11-0.6-0.27-0.87l-5.69-9.39l-5.69-9.39c-0.06-0.1-0.05-0.21,0-0.29
		s0.15-0.14,0.26-0.13l10.96,1.07l10.96,1.07c0.29,0.03,0.59-0.01,0.85-0.12s0.51-0.28,0.7-0.5l6.73-7.8l6.73-7.8
		c0.27-0.31,0.65-0.4,0.99-0.31C593.83,383.71,594.12,383.97,594.21,384.37z M507.89,443.19l2.85,13.82l2.85,13.82
		c0.03,0.17,0.11,0.33,0.21,0.46c0.1,0.13,0.24,0.24,0.4,0.31l9.06,4.14l9.06,4.14c0.21,0.09,0.31,0.29,0.31,0.48
		c0,0.19-0.1,0.39-0.31,0.48l-9.07,4.15l-9.07,4.15c-0.15,0.07-0.28,0.17-0.37,0.29c-0.1,0.12-0.17,0.27-0.2,0.43l-2.73,13.24
		l-2.73,13.24c-0.05,0.26-0.27,0.39-0.48,0.39s-0.43-0.13-0.48-0.39l-2.7-13.1l-2.7-13.1c-0.05-0.25-0.16-0.48-0.31-0.67
		c-0.15-0.19-0.35-0.35-0.58-0.46l-8.8-4.02l-8.8-4.02c-0.26-0.12-0.39-0.37-0.39-0.61c0-0.25,0.13-0.49,0.39-0.61l8.95-4.09
		l8.95-4.09c0.13-0.06,0.25-0.15,0.34-0.27c0.09-0.11,0.15-0.25,0.18-0.39l2.86-13.86l2.86-13.86c0.03-0.13,0.13-0.19,0.24-0.19
		S507.87,443.06,507.89,443.19z M150.18,311.11c-0.46,0.03-0.91,0.07-1.35,0.12s-0.89,0.11-1.33,0.19c-1.1,0.21-2.15,0.59-3.15,1.11
		c-1,0.53-1.95,1.2-2.83,2.03c-0.9,0.82-1.52,1.75-1.85,2.78c-0.33,1.03-0.38,2.15-0.13,3.35c0.11,0.56,0.3,1.06,0.56,1.49
		c0.27,0.43,0.61,0.81,1.02,1.13c0.64,0.5,1.4,0.88,2.26,1.13c0.87,0.25,1.84,0.36,2.93,0.33c1.08-0.02,2.1-0.06,3.04-0.16
		s1.8-0.24,2.58-0.45c0.46-0.12,0.9-0.19,1.33-0.18c0.43,0.01,0.85,0.1,1.26,0.3c0.4,0.18,0.77,0.44,1.12,0.77
		c0.35,0.33,0.68,0.72,0.98,1.18c0.5,0.76,0.92,1.65,1.26,2.66s0.6,2.15,0.78,3.41c0.18,1.25,0.24,2.39,0.16,3.43
		c-0.07,1.04-0.27,1.97-0.59,2.79c-0.27,0.67-0.62,1.18-1.02,1.57c-0.4,0.39-0.87,0.66-1.39,0.84c-1.74,0.58-3.55,1.04-5.44,1.36
		c-1.89,0.32-3.87,0.48-5.95,0.47c-2.08,0-4.04-0.2-5.89-0.58c-1.85-0.39-3.6-0.96-5.25-1.7c-2.21-0.99-4.18-2.23-5.88-3.7
		c-1.7-1.47-3.14-3.18-4.32-5.12c-1.18-1.94-2-4.02-2.47-6.24c-0.47-2.22-0.57-4.57-0.31-7.06c0.4-3.95,1.38-7.46,2.95-10.53
		c1.56-3.08,3.71-5.72,6.43-7.95c2.7-2.21,5.75-3.76,9.13-4.65c3.38-0.89,7.09-1.12,11.12-0.69c0.67,0.06,1.31,0.27,1.9,0.62
		s1.15,0.85,1.67,1.49c0.5,0.63,0.96,1.49,1.38,2.58c0.42,1.1,0.79,2.43,1.13,4c0.34,1.56,0.4,2.91,0.21,4.06
		c-0.2,1.15-0.66,2.09-1.4,2.8c-0.56,0.56-1.34,0.79-2.16,0.89S150.96,311.06,150.18,311.11L150.18,311.11L150.18,311.11z
		 M188.71,365.09c-0.21,0.41-0.81,0.75-1.8,1c-0.99,0.26-2.37,0.43-4.16,0.52c-1.79,0.08-3.31,0.05-4.58-0.08
		c-1.27-0.13-2.27-0.37-3.02-0.72c-0.35-0.15-0.69-0.77-1.02-1.85c-0.33-1.08-0.65-2.62-0.97-4.62c-0.32-2-0.62-4.12-0.9-6.37
		c-0.28-2.25-0.54-4.62-0.78-7.11c-0.23-2.49-0.44-4.93-0.61-7.33s-0.33-4.76-0.45-7.06s-0.2-4.22-0.23-5.76s0-2.7,0.07-3.48
		c0.05-0.64,0.34-1.2,0.87-1.69s1.3-0.9,2.31-1.24c0.99-0.34,2.04-0.6,3.13-0.79c1.1-0.19,2.24-0.3,3.43-0.34s2.33,0.01,3.42,0.11
		c1.09,0.11,2.14,0.28,3.14,0.53c0.99,0.26,1.76,0.58,2.29,0.97c0.53,0.39,0.83,0.85,0.89,1.38c0.09,0.88,0.18,1.85,0.25,2.91
		c0.08,1.06,0.15,2.2,0.21,3.43c0.06,1.22,0.11,2.48,0.16,3.77c0.04,1.29,0.07,2.62,0.09,3.98c0.9-0.05,1.82-0.08,2.75-0.11
		c0.94-0.03,1.89-0.05,2.87-0.07c-0.05-1.36-0.08-2.67-0.1-3.94c-0.02-1.27-0.03-2.51-0.03-3.71c0.02-1.2,0.04-2.33,0.07-3.37
		c0.03-1.04,0.08-2,0.14-2.89c0.03-0.53,0.31-1.01,0.82-1.41c0.51-0.4,1.26-0.74,2.24-1c0.99-0.26,2.03-0.44,3.12-0.55
		c1.09-0.11,2.23-0.15,3.42-0.12c1.19,0.03,2.34,0.14,3.44,0.32s2.16,0.44,3.19,0.78c1.01,0.32,1.79,0.72,2.35,1.21
		c0.56,0.48,0.89,1.05,0.98,1.69c0.11,0.78,0.18,1.94,0.21,3.49s0.05,3.48,0.03,5.78c-0.03,2.3-0.08,4.66-0.16,7.06
		c-0.08,2.4-0.19,4.85-0.32,7.33c-0.12,2.5-0.28,4.87-0.47,7.12c-0.19,2.25-0.4,4.37-0.63,6.36c-0.24,2-0.5,3.54-0.78,4.62
		c-0.28,1.08-0.58,1.7-0.9,1.85c-0.72,0.35-1.71,0.59-2.97,0.73s-2.79,0.17-4.57,0.09c-1.79-0.08-3.17-0.24-4.16-0.49
		c-1-0.25-1.61-0.58-1.85-0.97c-0.14-0.23-0.31-0.66-0.48-1.29c-0.18-0.63-0.36-1.47-0.53-2.52c-0.17-1.07-0.33-2.24-0.48-3.53
		c-0.15-1.28-0.3-2.68-0.44-4.19c-1.86,0.37-3.22,0.32-4.33,0.21c-1.11-0.11-1.97-0.29-2.84-0.18c-0.09,1.39-0.18,2.93-0.26,4.35
		c-0.09,1.43-0.18,2.74-0.29,3.67c-0.12,0.95-0.25,1.71-0.38,2.29S188.84,364.86,188.71,365.09L188.71,365.09L188.71,365.09z
		 M262.57,316.75c1.08,0.88,2.09,1.76,3.03,2.63s1.81,1.72,2.62,2.56c0.81,0.84,1.42,1.58,1.83,2.21c0.41,0.63,0.63,1.16,0.64,1.57
		c0,0.3-0.08,0.69-0.26,1.14c-0.17,0.45-0.43,0.98-0.78,1.57c-0.35,0.59-0.73,1.2-1.13,1.8c-0.4,0.6-0.83,1.2-1.29,1.8
		c-0.44,0.59-0.89,1.16-1.32,1.69s-0.86,1.01-1.27,1.46c-0.43,0.46-0.79,0.79-1.08,1.01c-0.29,0.22-0.51,0.34-0.66,0.37
		c-0.69,0.11-1.53-0.01-2.52-0.36c-1-0.35-2.15-0.94-3.46-1.78c-1.31-0.84-2.5-1.55-3.55-2.11c-1.05-0.56-1.98-0.98-2.77-1.24
		c-0.78-0.26-1.4-0.33-1.84-0.22c-0.44,0.11-0.68,0.39-0.69,0.83c-0.03,0.75-0.06,1.41-0.12,1.99c-0.06,0.58-0.14,1.06-0.28,1.46
		c-0.15,0.4-0.49,0.72-1.01,0.98c-0.52,0.25-1.22,0.43-2.11,0.52c-1.01,0.11-2.09,0.19-3.25,0.25s-2.39,0.09-3.68,0.09
		c-1.3,0.02-2.36,0-3.18-0.03c-0.82-0.03-1.4-0.09-1.74-0.15c-0.24-0.05-0.46-0.14-0.65-0.27c-0.19-0.14-0.37-0.32-0.54-0.55
		c-0.2-0.29-0.41-1.08-0.64-2.38c-0.23-1.3-0.46-3.11-0.71-5.42s-0.47-4.74-0.66-7.26c-0.19-2.52-0.35-5.14-0.47-7.83
		c-0.14-2.71-0.24-5.31-0.3-7.8c-0.06-2.49-0.08-4.87-0.07-7.14c0.02-2.27,0.11-4.02,0.27-5.24s0.4-1.93,0.71-2.11
		c1.16-0.64,2.5-1.2,4.04-1.66c1.53-0.47,3.26-0.84,5.18-1.11s3.85-0.39,5.77-0.34s3.84,0.26,5.74,0.64
		c1.91,0.38,3.72,0.97,5.43,1.76c1.71,0.79,3.32,1.78,4.83,2.97c1.5,1.19,2.72,2.66,3.64,4.41c0.93,1.75,1.56,3.78,1.88,6.08
		c0.44,3.07,0.36,5.7-0.24,7.91C265.33,313.61,264.2,315.39,262.57,316.75L262.57,316.75L262.57,316.75z M246.73,310.74
		c0.79-0.08,1.5-0.27,2.11-0.56c0.61-0.3,1.14-0.7,1.58-1.2c0.44-0.49,0.78-1,1-1.52s0.33-1.07,0.31-1.62
		c0-0.55-0.13-1.06-0.38-1.53c-0.25-0.47-0.63-0.91-1.11-1.3c-0.5-0.4-1.14-0.66-1.92-0.8c-0.78-0.14-1.69-0.16-2.75-0.05
		c-0.85,0.11-1.45,0.54-1.79,1.31s-0.42,1.86-0.26,3.3c0.18,1.43,0.54,2.48,1.08,3.14C245.13,310.55,245.84,310.83,246.73,310.74
		L246.73,310.74L246.73,310.74z M300.68,361.89c-0.24,0.4-0.9,0.73-1.99,0.99c-1.09,0.26-2.62,0.43-4.6,0.51
		c-1.97,0.08-3.66,0.05-5.06-0.09s-2.52-0.38-3.34-0.73c-0.37-0.15-0.73-0.77-1.07-1.85c-0.35-1.08-0.68-2.63-1-4.64
		c-0.32-2-0.63-4.12-0.91-6.38c-0.28-2.25-0.54-4.63-0.77-7.13c-0.23-2.5-0.43-4.96-0.6-7.37c-0.17-2.41-0.31-4.77-0.41-7.09
		c-0.11-2.32-0.16-4.25-0.16-5.79s0.04-2.7,0.13-3.48c0.08-0.64,0.41-1.2,1-1.69c0.59-0.49,1.44-0.9,2.54-1.24
		c1.11-0.32,2.28-0.58,3.5-0.77c1.22-0.19,2.48-0.3,3.8-0.33c1.33-0.05,2.6-0.02,3.81,0.09s2.36,0.29,3.46,0.55
		c1.1,0.26,1.94,0.58,2.52,0.97c0.58,0.39,0.9,0.86,0.96,1.41c0.17,1.51,0.3,3.23,0.39,5.17s0.15,4.09,0.16,6.45
		c0.02,2.36,0.01,4.71-0.03,7.05c-0.04,2.33-0.11,4.65-0.21,6.95c-0.09,2.3-0.21,4.47-0.34,6.5c-0.14,2.03-0.3,3.93-0.48,5.7
		c-0.2,1.77-0.41,3.16-0.63,4.2C301.11,360.88,300.89,361.55,300.68,361.89L300.68,361.89L300.68,361.89z M337.99,306.2
		c-0.23,0.02-0.44-0.01-0.64-0.06s-0.39-0.15-0.58-0.27c-0.21-0.15-0.34-0.33-0.43-0.51c-0.09-0.18-0.15-0.36-0.24-0.53
		c-0.82-1.6-3.11-1.14-4.38-0.12s-1.51,2.62,1.76,3.29c0.37,0.08,0.73,0.14,1.1,0.21c0.37,0.06,0.73,0.13,1.1,0.19
		c2.43,0.43,4.6,1,6.5,1.72s3.56,1.59,4.95,2.61c1.74,1.25,3.1,2.71,4.09,4.36c0.99,1.65,1.61,3.5,1.87,5.52
		c0.26,2.03,0.11,3.96-0.46,5.78c-0.56,1.82-1.54,3.54-2.93,5.14c-1.63,1.91-3.56,3.4-5.79,4.49s-4.74,1.78-7.55,2.07
		c-2.79,0.27-5.4,0.42-7.83,0.13s-4.66-1-6.71-2.45c-1.74-1.24-3.17-2.62-4.27-4.17c-1.1-1.55-1.87-3.26-2.3-5.13
		c-0.21-0.87-0.09-1.65,0.35-2.33s1.21-1.27,2.27-1.76c0.47-0.21,0.98-0.4,1.5-0.56c0.53-0.16,1.08-0.29,1.64-0.38
		c0.58-0.09,1.14-0.17,1.69-0.22s1.08-0.08,1.6-0.08c0.87-0.02,1.69,0.03,2.47,0.13c0.78,0.1,1.51,0.26,2.2,0.48
		c0.7,0.2,1.25,0.44,1.65,0.73c0.4,0.29,0.64,0.63,0.73,1.01c0.09,0.4,0.27,0.74,0.53,1.01c0.25,0.27,0.57,0.48,0.94,0.6
		c0.79,0.26,1.95-0.08,2.78-0.74s1.34-1.65,0.85-2.71c-0.11-0.24-0.32-0.46-0.64-0.65s-0.74-0.36-1.26-0.51
		c-1.24-0.35-2.47-0.66-3.69-0.93c-1.23-0.27-2.45-0.5-3.67-0.68c-1.21-0.18-2.39-0.53-3.55-1.03c-1.16-0.5-2.29-1.16-3.39-1.96
		c-0.79-0.56-1.5-1.24-2.11-2.01s-1.15-1.66-1.61-2.65c-0.44-0.98-0.74-2.12-0.89-3.43c-0.15-1.31-0.15-2.78,0-4.41
		c0.21-2.2,0.85-4.19,1.9-6c1.06-1.8,2.54-3.41,4.45-4.83c1.11-0.84,2.31-1.53,3.58-2.09c1.27-0.55,2.62-0.96,4.06-1.24
		c1.42-0.29,2.82-0.43,4.21-0.43s2.76,0.14,4.12,0.43c1.34,0.27,2.62,0.69,3.83,1.24c1.21,0.55,2.35,1.25,3.44,2.09
		c1.08,0.84,2,1.81,2.74,2.93s1.32,2.36,1.71,3.75c0.15,0.53,0.15,0.72,0,0.88s-0.45,0.27-0.89,0.65c-0.46,0.38-0.98,0.73-1.55,1.05
		c-0.57,0.32-1.2,0.61-1.87,0.87c-0.69,0.24-1.38,0.47-2.08,0.66s-1.41,0.35-2.13,0.47c-0.72,0.12-1.34,0.21-1.88,0.28
		C338.78,306.15,338.34,306.18,337.99,306.2L337.99,306.2L337.99,306.2z M395.97,367.71c-0.14,0.2-0.39,0.39-0.77,0.56
		c-0.38,0.17-0.89,0.32-1.55,0.45c-0.64,0.12-1.33,0.22-2.06,0.3c-0.73,0.08-1.51,0.14-2.34,0.19c-0.81,0.03-1.62,0.03-2.43,0.01
		c-0.81-0.02-1.62-0.07-2.43-0.13c-0.79-0.06-1.49-0.15-2.09-0.27c-0.6-0.12-1.1-0.26-1.52-0.43c-0.44-0.2-0.85-1.07-1.24-2.62
		s-0.74-3.77-1.08-6.69c-0.35-2.9-0.66-5.82-0.92-8.76s-0.47-5.9-0.64-8.87c-1.56-0.03-3.01-0.08-4.35-0.16
		c-1.34-0.08-2.58-0.19-3.71-0.32c-1.13-0.12-2-0.28-2.62-0.48c-0.62-0.19-0.98-0.42-1.11-0.68c-0.2-0.4-0.38-0.91-0.55-1.56
		s-0.32-1.4-0.46-2.29c-0.14-0.88-0.25-1.78-0.34-2.7s-0.15-1.83-0.18-2.76c-0.05-0.93-0.07-1.81-0.06-2.66
		c0-0.84,0.03-1.64,0.1-2.41c0.06-0.75,0.16-1.33,0.29-1.75c0.13-0.43,0.3-0.7,0.5-0.84c0.32-0.21,0.99-0.43,2.02-0.64
		c1.03-0.2,2.42-0.39,4.18-0.52s3.64-0.26,5.66-0.36c2.02-0.1,4.17-0.19,6.46-0.25c2.27-0.06,4.57-0.1,6.89-0.11
		c2.32-0.02,4.66-0.01,7.03,0.02c2.35,0.02,4.5,0.05,6.43,0.11c1.93,0.06,3.66,0.14,5.17,0.25c0.6,0.03,1.1,0.3,1.51,0.82
		c0.41,0.51,0.73,1.27,0.96,2.26c0.21,0.99,0.36,2.03,0.44,3.11c0.08,1.08,0.08,2.21,0.02,3.39c-0.06,1.17-0.17,3.19-0.52,4.96
		c-0.35,1.77-0.94,3.29-1.96,3.45l-4.2,0.72l-4.2,0.72l-1.11,0.18l-1.11,0.18c-0.03,2.96-0.1,5.86-0.21,8.71
		c-0.11,2.85-0.26,5.65-0.46,8.39c-0.18,2.76-0.4,4.92-0.65,6.49C396.53,366.32,396.26,367.3,395.97,367.71L395.97,367.71
		L395.97,367.71z M453.46,306.35c1.04-1.54,2.06-3.05,3.07-4.53c1.01-1.48,2-2.92,2.98-4.32c0.96-1.4,1.88-2.64,2.74-3.7
		c0.86-1.06,1.67-1.96,2.42-2.67c0.32-0.3,0.8-0.58,1.44-0.81s1.43-0.42,2.38-0.56c0.95-0.15,1.91-0.26,2.89-0.33
		c0.98-0.07,1.99-0.1,3.03-0.1c1.02,0.02,2,0.06,2.93,0.14c0.93,0.08,1.81,0.19,2.63,0.35c0.84,0.14,1.5,0.31,1.99,0.52
		c0.48,0.21,0.79,0.44,0.91,0.7c0.2,0.46,0.37,1.37,0.53,2.74c0.16,1.36,0.29,3.18,0.42,5.44c0.11,2.27,0.19,4.63,0.25,7.07
		c0.06,2.44,0.09,4.98,0.09,7.6s-0.03,5.15-0.09,7.59c-0.06,2.44-0.15,4.78-0.27,7.02c-0.12,2.24-0.27,4.03-0.47,5.36
		c-0.2,1.33-0.44,2.2-0.75,2.6c-0.21,0.27-0.86,0.48-1.94,0.64s-2.58,0.26-4.5,0.34c-1.92,0.06-3.56,0.07-4.92,0.02
		s-2.42-0.14-3.2-0.3c-0.31-0.06-0.61-0.55-0.9-1.46s-0.58-2.25-0.84-4c-0.26-1.75-0.48-3.51-0.66-5.29s-0.32-3.56-0.41-5.36
		c-0.2,0.21-0.49,0.52-0.87,0.91c-0.38,0.39-0.84,0.87-1.39,1.44c-0.53,0.56-1.09,1.14-1.67,1.73c-0.58,0.59-1.18,1.18-1.81,1.78
		c-0.63,0.59-1.24,1.16-1.83,1.69c-0.6,0.53-1.18,1.04-1.74,1.51c-0.58,0.46-1.08,0.8-1.5,1.03c-0.42,0.23-0.76,0.34-1.04,0.34
		c-0.27,0-0.62-0.11-1.03-0.32c-0.42-0.22-0.9-0.55-1.47-0.99c-0.55-0.44-1.11-0.92-1.68-1.43c-0.57-0.51-1.15-1.05-1.74-1.62
		c-0.6-0.58-1.18-1.15-1.74-1.71s-1.1-1.11-1.62-1.64c-0.52-0.55-0.95-1.01-1.31-1.4c-0.36-0.38-0.64-0.68-0.85-0.89
		c-0.12,1.68-0.27,3.37-0.46,5.07c-0.19,1.7-0.41,3.42-0.67,5.14c-0.24,1.72-0.5,3.04-0.77,3.95s-0.55,1.41-0.84,1.51
		c-0.4,0.12-0.89,0.21-1.47,0.28s-1.25,0.1-2.02,0.12c-0.76,0.03-1.54,0.04-2.32,0.03c-0.78-0.01-1.57-0.03-2.35-0.06
		c-0.79-0.03-1.54-0.08-2.25-0.14c-0.71-0.06-1.37-0.14-2-0.23c-0.63-0.11-1.11-0.22-1.47-0.34c-0.35-0.12-0.58-0.24-0.67-0.36
		c-0.29-0.4-0.54-1.27-0.76-2.61c-0.21-1.34-0.39-3.16-0.53-5.44c-0.15-2.29-0.27-4.67-0.35-7.15c-0.08-2.48-0.13-5.05-0.14-7.7
		s0-5.21,0.04-7.66c0.04-2.46,0.11-4.81,0.2-7.07c0.09-2.27,0.22-4.06,0.38-5.36c0.16-1.3,0.35-2.13,0.56-2.48
		c0.17-0.26,0.5-0.49,1-0.69s1.17-0.37,2.03-0.5c0.84-0.15,1.73-0.27,2.65-0.34c0.92-0.08,1.89-0.11,2.88-0.11
		c1.02-0.02,2.02,0.02,2.98,0.09c0.97,0.07,1.92,0.19,2.85,0.34c0.93,0.14,1.72,0.32,2.35,0.55c0.64,0.23,1.13,0.5,1.46,0.82
		c0.73,0.72,1.53,1.6,2.4,2.66s1.8,2.3,2.79,3.71c0.99,1.4,1.99,2.84,3,4.32C451.42,303.3,452.44,304.81,453.46,306.35
		L453.46,306.35L453.46,306.35z M494.37,363.02c-0.18-0.21-0.34-0.45-0.44-0.71s-0.17-0.53-0.17-0.82c-0.03-1.02,0.05-2.3,0.22-3.84
		c0.18-1.54,0.45-3.33,0.82-5.37c0.38-2.04,0.81-4.13,1.29-6.26c0.48-2.13,1-4.3,1.58-6.52c0.56-2.21,1.14-4.35,1.74-6.43
		c0.6-2.07,1.22-4.08,1.86-6.02s1.24-3.58,1.79-4.94c0.55-1.36,1.06-2.44,1.54-3.23c0.18-0.3,0.56-0.59,1.11-0.87
		c0.56-0.27,1.3-0.53,2.21-0.78c0.92-0.24,1.89-0.45,2.9-0.62c1.02-0.17,2.09-0.31,3.2-0.42c1.11-0.09,2.21-0.14,3.28-0.13
		s2.13,0.06,3.16,0.16c1.02,0.09,1.9,0.26,2.63,0.5c0.73,0.24,1.3,0.55,1.71,0.93c0.58,0.56,1.22,1.47,1.92,2.72
		c0.69,1.25,1.44,2.83,2.24,4.75c0.81,1.92,1.61,3.93,2.4,6.02c0.79,2.09,1.57,4.27,2.33,6.55c0.76,2.26,1.49,4.48,2.18,6.65
		c0.69,2.17,1.34,4.3,1.95,6.37c0.61,2.09,1.12,3.87,1.53,5.33s0.71,2.63,0.91,3.48c0.14,0.64,0.18,1.18,0.14,1.62
		s-0.17,0.79-0.39,1.03c-0.23,0.24-0.53,0.45-0.92,0.62c-0.39,0.17-0.85,0.3-1.4,0.39c-0.92,0.17-1.95,0.3-3.11,0.42
		s-2.42,0.22-3.79,0.31c-1.36,0.08-2.47,0.12-3.34,0.14s-1.47,0-1.82-0.05c-0.14-0.02-0.27-0.05-0.39-0.09
		c-0.13-0.05-0.25-0.11-0.37-0.18c-0.37-0.23-0.73-0.68-1.1-1.35c-0.36-0.67-0.72-1.55-1.07-2.65s-0.7-2.02-1.05-2.77
		c-0.35-0.75-0.69-1.33-1.03-1.74c-0.2-0.24-0.43-0.46-0.69-0.61s-0.56-0.24-0.9-0.24l-2.58-0.02l-2.58-0.02
		c-0.81,0-1.48,0.14-2.01,0.42c-0.53,0.27-0.92,0.68-1.16,1.2c-0.31,0.66-0.64,1.35-1,2.08c-0.36,0.73-0.74,1.5-1.14,2.31
		c-0.4,0.81-0.75,1.46-1.05,1.97c-0.3,0.5-0.54,0.85-0.73,1.05c-0.46,0.5-1.88,0.66-3.34,0.69c-1.46,0.03-2.97-0.07-3.59-0.08
		c-1.62-0.05-2.88-0.16-3.79-0.33C495.17,363.5,494.6,363.28,494.37,363.02L494.37,363.02L494.37,363.02z M514.83,335.2
		c-0.35,0.38-0.7,0.88-1.05,1.49c-0.35,0.62-0.69,1.36-1.03,2.23s-0.56,1.59-0.69,2.15c-0.12,0.57-0.14,0.99-0.05,1.26
		c0.15,0.46,0.57,0.79,1.26,1c0.68,0.21,1.63,0.29,2.84,0.25c1.19-0.05,2.12-0.21,2.78-0.5c0.66-0.29,1.04-0.7,1.13-1.24
		c0.06-0.34-0.06-0.88-0.37-1.62c-0.31-0.75-0.81-1.7-1.49-2.86c-0.7-1.16-1.33-1.91-1.88-2.27
		C515.72,334.74,515.24,334.78,514.83,335.2L514.83,335.2L514.83,335.2z M574.31,307.85c-0.23,0-0.44-0.02-0.64-0.08
		c-0.2-0.06-0.39-0.15-0.58-0.29c-0.21-0.15-0.38-0.32-0.5-0.5c-0.11-0.18-0.18-0.36-0.18-0.54c0-0.18-0.05-0.37-0.15-0.56
		c-0.1-0.18-0.26-0.36-0.49-0.51c-0.87-0.55-3.05,0.24-4.18,1.35s-1.18,2.51,2.19,3.2c2.47,0.52,4.82,0.92,7.09,1.59
		c2.26,0.66,4.44,1.59,6.56,3.14c1.73,1.27,3.08,2.72,4.08,4.37s1.62,3.48,1.88,5.51c0.26,2.04,0.11,3.97-0.46,5.79
		c-0.56,1.82-1.54,3.54-2.93,5.15c-1.63,1.89-3.56,3.39-5.79,4.48c-2.23,1.09-4.74,1.78-7.55,2.05c-2.79,0.27-5.4,0.11-7.83-0.47
		c-2.42-0.59-4.66-1.6-6.71-3.03c-1.74-1.24-3.17-2.32-4.27-3.56c-1.1-1.24-1.87-2.65-2.3-4.52c-0.21-0.88-0.09-1.67,0.35-2.36
		c0.44-0.69,1.21-1.27,2.27-1.76c0.47-0.21,0.98-0.4,1.5-0.55s1.08-0.29,1.64-0.39c0.58-0.09,1.14-0.17,1.69-0.22
		c0.55-0.05,1.08-0.08,1.6-0.08c0.87,0,1.69,0.05,2.47,0.16c0.78,0.1,1.51,0.26,2.2,0.45c0.7,0.21,1.25,0.47,1.65,0.76
		s0.64,0.63,0.73,1.01c0.09,0.38,0.29,0.69,0.55,0.94s0.58,0.46,0.92,0.64c0.87,0.52,2.02,0.18,2.84-0.55
		c0.81-0.73,1.29-1.85,0.8-2.9c-0.11-0.23-0.32-0.43-0.64-0.62c-0.32-0.19-0.74-0.35-1.26-0.51c-1.24-0.35-2.47-0.66-3.69-0.93
		c-1.23-0.27-2.45-0.5-3.67-0.68c-1.22-0.18-2.4-0.53-3.56-1.04c-1.15-0.5-2.27-1.16-3.37-1.95c-0.79-0.58-1.5-1.25-2.11-2.02
		s-1.15-1.65-1.61-2.64c-0.44-0.99-0.74-2.14-0.89-3.45s-0.15-2.77,0-4.39c0.21-2.21,0.85-4.22,1.9-6.02
		c1.06-1.81,2.54-3.42,4.45-4.83c1.11-0.82,2.31-1.52,3.58-2.07c1.27-0.56,2.62-0.98,4.06-1.25c1.42-0.27,2.82-0.41,4.21-0.41
		s2.76,0.14,4.12,0.41c2,0.41,4.63,1.49,6.9,2.99c2.28,1.5,4.21,3.41,4.82,5.49c0.15,0.53,0.15,1.03,0,1.49
		c-0.15,0.46-0.46,0.88-0.92,1.26c-0.46,0.4-0.97,0.75-1.53,1.08c-0.56,0.32-1.18,0.6-1.85,0.85c-0.69,0.26-1.38,0.48-2.08,0.67
		c-0.7,0.19-1.41,0.34-2.13,0.46c-0.72,0.12-1.34,0.22-1.88,0.29C575.1,307.79,574.66,307.83,574.31,307.85L574.31,307.85
		L574.31,307.85z M226.85,240.14c1.04-1.54,2.06-3.05,3.07-4.53c1.01-1.48,2-2.93,2.98-4.35c0.96-1.4,1.88-2.63,2.74-3.69
		c0.86-1.06,1.67-1.94,2.42-2.66c0.32-0.32,0.79-0.59,1.43-0.83c0.63-0.23,1.43-0.42,2.39-0.58c0.95-0.14,1.91-0.24,2.89-0.31
		c0.98-0.07,1.99-0.1,3.03-0.08c1.02,0.02,2,0.06,2.93,0.14c0.93,0.08,1.81,0.19,2.63,0.35c0.84,0.14,1.5,0.3,1.99,0.51
		s0.79,0.44,0.91,0.71c0.2,0.46,0.37,1.36,0.53,2.73c0.16,1.36,0.29,3.18,0.42,5.45c0.11,2.26,0.19,4.61,0.25,7.06
		s0.09,4.99,0.09,7.61c0,2.62-0.03,5.15-0.09,7.59s-0.15,4.78-0.27,7.02c-0.12,2.24-0.27,4.03-0.47,5.36
		c-0.2,1.33-0.44,2.2-0.75,2.6c-0.21,0.26-0.86,0.47-1.94,0.63c-1.08,0.16-2.58,0.27-4.5,0.35c-1.92,0.06-3.56,0.07-4.92,0.02
		s-2.42-0.14-3.2-0.3c-0.31-0.06-0.61-0.55-0.9-1.46c-0.29-0.91-0.58-2.25-0.84-4c-0.26-1.75-0.48-3.51-0.66-5.29
		c-0.18-1.77-0.32-3.56-0.41-5.36c-0.21,0.21-0.5,0.52-0.88,0.91c-0.37,0.39-0.83,0.87-1.38,1.44c-0.53,0.56-1.09,1.14-1.67,1.73
		c-0.58,0.59-1.18,1.18-1.81,1.78c-0.63,0.59-1.24,1.16-1.83,1.69c-0.6,0.53-1.18,1.03-1.74,1.48c-0.58,0.47-1.08,0.82-1.51,1.06
		c-0.43,0.23-0.78,0.35-1.05,0.35c-0.26,0-0.6-0.11-1.01-0.34c-0.41-0.22-0.9-0.56-1.47-1c-0.55-0.43-1.11-0.9-1.68-1.41
		c-0.57-0.51-1.15-1.05-1.74-1.61c-0.6-0.58-1.18-1.15-1.74-1.71c-0.56-0.56-1.1-1.11-1.62-1.64c-0.52-0.55-0.95-1.01-1.31-1.4
		c-0.36-0.38-0.64-0.68-0.85-0.89c-0.12,1.68-0.27,3.37-0.46,5.07c-0.19,1.7-0.41,3.42-0.67,5.14c-0.24,1.72-0.5,3.04-0.77,3.95
		c-0.27,0.91-0.55,1.41-0.84,1.51c-0.4,0.12-0.89,0.21-1.47,0.28c-0.58,0.06-1.25,0.1-2.02,0.12c-0.76,0.03-1.54,0.04-2.32,0.03
		s-1.57-0.03-2.35-0.06c-0.79-0.03-1.54-0.08-2.25-0.14c-0.71-0.06-1.37-0.15-2-0.26c-0.63-0.09-1.11-0.2-1.47-0.31
		c-0.35-0.11-0.58-0.24-0.67-0.36c-0.29-0.4-0.54-1.27-0.76-2.61c-0.21-1.34-0.39-3.16-0.53-5.44c-0.15-2.3-0.27-4.69-0.35-7.16
		c-0.08-2.47-0.13-5.04-0.14-7.69c-0.02-2.65,0-5.21,0.04-7.67c0.04-2.46,0.11-4.82,0.2-7.09c0.09-2.26,0.22-4.03,0.38-5.33
		s0.35-2.12,0.56-2.47c0.17-0.26,0.5-0.49,1-0.69s1.17-0.38,2.03-0.53c0.84-0.14,1.72-0.24,2.64-0.32c0.92-0.08,1.88-0.12,2.89-0.14
		c1.02,0,2.02,0.04,2.98,0.11c0.97,0.07,1.92,0.18,2.85,0.32c0.93,0.15,1.72,0.34,2.35,0.58c0.64,0.23,1.13,0.51,1.46,0.83
		c0.73,0.72,1.53,1.6,2.4,2.66c0.87,1.06,1.8,2.28,2.79,3.69c0.99,1.42,1.99,2.87,3,4.35C224.81,237.09,225.83,238.6,226.85,240.14
		L226.85,240.14L226.85,240.14z M295,221.08c1.83-0.03,3.58-0.07,5.24-0.12c1.66-0.05,3.23-0.12,4.71-0.21
		c1.48-0.08,2.65-0.05,3.52,0.05s1.44,0.3,1.73,0.56c0.26,0.26,0.5,0.88,0.72,1.87c0.21,0.99,0.4,2.37,0.53,4.14
		c0.12,1.78,0.16,3.32,0.11,4.62c-0.05,1.29-0.19,2.34-0.42,3.13c-0.11,0.34-0.57,0.64-1.4,0.91s-2.01,0.52-3.55,0.73
		c-1.56,0.23-3.2,0.42-4.93,0.57c-1.73,0.15-3.56,0.27-5.48,0.34c-1.92,0.08-3.81,0.12-5.66,0.13c-1.85,0.01-3.66-0.01-5.43-0.07
		c-1.77-0.05-3.23-0.14-4.38-0.29c-1.15-0.14-2-0.32-2.55-0.54c-0.31-0.14-0.59-0.63-0.85-1.47c-0.26-0.85-0.5-2.05-0.71-3.62
		c-0.2-1.57-0.38-3.28-0.54-5.12c-0.16-1.84-0.3-3.82-0.4-5.92c-0.12-2.1-0.21-4.23-0.28-6.38s-0.11-4.32-0.15-6.52
		c-0.02-2.18-0.02-4.16,0.01-5.95c0.02-1.78,0.07-3.37,0.15-4.76l0,0l0,0c0-0.75,0.03-1.46,0.09-2.15s0.15-1.35,0.27-1.99
		c0.12-0.63,0.28-1.13,0.48-1.52s0.42-0.66,0.68-0.83c0.26-0.15,0.85-0.3,1.78-0.43c0.93-0.13,2.19-0.26,3.77-0.36
		c1.59-0.12,3.24-0.22,4.95-0.3c1.71-0.08,3.49-0.13,5.34-0.16c1.85-0.02,3.62-0.01,5.32,0.03c1.7,0.03,3.34,0.1,4.91,0.19
		c1.56,0.09,2.79,0.22,3.69,0.38c0.9,0.16,1.47,0.35,1.72,0.56c0.26,0.24,0.48,0.82,0.65,1.73c0.16,0.91,0.27,2.16,0.3,3.76
		c0.03,1.59,0,2.98-0.1,4.18c-0.1,1.2-0.26,2.21-0.48,3.02c-0.11,0.38-0.53,0.69-1.27,0.92s-1.79,0.39-3.15,0.48
		c-1.36,0.08-2.84,0.16-4.43,0.24c-1.6,0.08-3.31,0.16-5.12,0.22c0,0.29,0.02,0.59,0.03,0.88c0.02,0.3,0.04,0.59,0.06,0.88
		c1.19,0.02,2.27,0.06,3.24,0.14c0.97,0.08,1.82,0.21,2.56,0.37c0.18,0.05,0.37,0.23,0.55,0.55c0.18,0.32,0.35,0.77,0.52,1.35
		c0.17,0.56,0.32,1.16,0.45,1.78s0.23,1.28,0.29,1.97c0.06,0.67,0.09,1.32,0.09,1.94c0,0.63-0.04,1.23-0.12,1.81
		s-0.21,1.02-0.39,1.33c-0.18,0.31-0.42,0.48-0.71,0.53c-0.21,0.05-0.51,0.11-0.89,0.17c-0.38,0.06-0.85,0.12-1.4,0.17
		c-0.55,0.05-1.13,0.09-1.74,0.13s-1.25,0.07-1.92,0.08c0,0.3,0,0.61,0,0.92S295,220.76,295,221.08L295,221.08L295,221.08z
		 M361.83,245.36c1.08,0.9,2.09,1.78,3.03,2.65c0.94,0.87,1.81,1.72,2.62,2.56c0.81,0.84,1.42,1.57,1.83,2.2
		c0.41,0.63,0.63,1.16,0.64,1.58c0,0.3-0.08,0.69-0.26,1.14s-0.43,0.98-0.78,1.57c-0.35,0.59-0.73,1.19-1.13,1.79
		s-0.83,1.2-1.29,1.81c-0.44,0.59-0.89,1.15-1.32,1.67c-0.44,0.52-0.87,1.01-1.3,1.47c-0.41,0.46-0.76,0.79-1.05,1
		c-0.29,0.22-0.51,0.32-0.66,0.34c-0.69,0.12-1.53,0.02-2.52-0.34s-2.15-0.95-3.46-1.8c-1.31-0.84-2.5-1.54-3.55-2.1
		c-1.06-0.56-1.99-0.98-2.8-1.25c-0.76-0.24-1.38-0.31-1.81-0.21c-0.43,0.1-0.68,0.38-0.69,0.82c-0.03,0.76-0.06,1.43-0.12,2.01
		s-0.14,1.07-0.28,1.46c-0.15,0.4-0.49,0.72-1.01,0.96s-1.22,0.41-2.11,0.5c-1.01,0.11-2.09,0.19-3.25,0.25s-2.39,0.1-3.68,0.11
		c-1.3,0-2.36-0.02-3.18-0.05s-1.41-0.09-1.76-0.16c-0.23-0.05-0.44-0.14-0.63-0.27c-0.19-0.13-0.37-0.31-0.53-0.52
		c-0.2-0.29-0.41-1.09-0.64-2.4s-0.46-3.12-0.71-5.44s-0.47-4.73-0.66-7.25c-0.19-2.52-0.35-5.13-0.47-7.85
		c-0.14-2.7-0.24-5.3-0.3-7.79s-0.08-4.87-0.07-7.13c0.02-2.27,0.11-4.03,0.27-5.25c0.16-1.23,0.4-1.93,0.71-2.1
		c1.14-0.64,2.49-1.2,4.03-1.66c1.54-0.47,3.27-0.84,5.19-1.11c1.92-0.29,3.85-0.41,5.77-0.37c1.92,0.05,3.84,0.26,5.74,0.64
		c1.91,0.38,3.72,0.97,5.43,1.76c1.71,0.79,3.32,1.79,4.83,3c1.5,1.19,2.71,2.65,3.63,4.4c0.92,1.74,1.56,3.76,1.89,6.07
		c0.44,3.07,0.36,5.7-0.24,7.91C364.59,242.21,363.47,244,361.83,245.36L361.83,245.36L361.83,245.36z M345.96,239.38
		c0.81-0.09,1.52-0.28,2.14-0.58c0.62-0.29,1.14-0.69,1.59-1.19c0.44-0.5,0.78-1.02,1-1.55c0.22-0.53,0.33-1.06,0.31-1.59
		c0-0.55-0.13-1.06-0.39-1.53s-0.64-0.91-1.14-1.3c-0.49-0.4-1.12-0.67-1.9-0.82c-0.77-0.14-1.69-0.16-2.74-0.04
		c-0.85,0.09-1.46,0.52-1.8,1.28c-0.34,0.76-0.43,1.86-0.24,3.29s0.54,2.49,1.07,3.16C344.38,239.18,345.08,239.47,345.96,239.38
		L345.96,239.38L345.96,239.38z M426.01,216.96c1.08,0.88,2.09,1.76,3.03,2.63c0.94,0.87,1.82,1.73,2.64,2.58
		c0.79,0.84,1.4,1.57,1.82,2.2c0.41,0.63,0.63,1.14,0.63,1.56c0,0.32-0.08,0.7-0.26,1.15s-0.43,0.97-0.78,1.56
		c-0.35,0.61-0.73,1.21-1.13,1.81c-0.4,0.6-0.83,1.19-1.29,1.79c-0.44,0.59-0.89,1.16-1.32,1.69s-0.86,1.03-1.27,1.48
		c-0.43,0.44-0.79,0.76-1.08,0.98c-0.29,0.22-0.51,0.33-0.66,0.36c-0.69,0.11-1.53,0-2.52-0.35c-1-0.35-2.15-0.93-3.46-1.79
		c-1.31-0.84-2.5-1.55-3.55-2.11s-1.98-0.98-2.77-1.24c-0.78-0.24-1.4-0.31-1.84-0.21c-0.44,0.1-0.68,0.38-0.69,0.82
		c-0.03,0.75-0.06,1.41-0.12,1.99s-0.14,1.06-0.28,1.46c-0.15,0.41-0.49,0.74-1.01,0.99c-0.52,0.25-1.22,0.42-2.11,0.51
		c-1.01,0.11-2.08,0.19-3.24,0.25c-1.15,0.06-2.38,0.09-3.69,0.09c-1.3,0.02-2.36,0-3.18-0.03c-0.82-0.03-1.4-0.09-1.74-0.15
		c-0.24-0.05-0.46-0.14-0.65-0.27c-0.19-0.14-0.36-0.32-0.51-0.55c-0.21-0.29-0.44-1.08-0.66-2.38c-0.23-1.3-0.47-3.11-0.71-5.42
		c-0.24-2.32-0.46-4.73-0.64-7.25c-0.19-2.52-0.35-5.13-0.48-7.85c-0.14-2.71-0.24-5.31-0.3-7.8c-0.06-2.49-0.08-4.87-0.07-7.14
		s0.11-4.02,0.27-5.24c0.17-1.22,0.41-1.93,0.73-2.11c1.14-0.64,2.48-1.19,4.01-1.65c1.53-0.46,3.26-0.83,5.18-1.12
		c1.92-0.27,3.85-0.39,5.77-0.34c1.92,0.05,3.84,0.26,5.74,0.64c1.91,0.38,3.72,0.97,5.43,1.76c1.71,0.79,3.32,1.78,4.83,2.97
		c1.5,1.19,2.72,2.66,3.64,4.41s1.56,3.78,1.88,6.08c0.44,3.07,0.36,5.7-0.24,7.91C428.77,213.82,427.64,215.6,426.01,216.96
		L426.01,216.96L426.01,216.96z M410.16,210.95c0.79-0.08,1.5-0.26,2.11-0.55c0.61-0.29,1.14-0.69,1.58-1.19s0.78-1.02,1-1.55
		c0.22-0.53,0.33-1.07,0.31-1.62c0-0.53-0.13-1.04-0.38-1.51s-0.63-0.91-1.11-1.33c-0.5-0.4-1.14-0.66-1.92-0.8
		s-1.69-0.14-2.75-0.02c-0.85,0.09-1.45,0.52-1.79,1.28c-0.34,0.76-0.41,1.86-0.23,3.29c0.18,1.43,0.54,2.48,1.07,3.14
		C408.59,210.76,409.29,211.04,410.16,210.95L410.16,210.95L410.16,210.95z M496.48,229.19c-0.09,0.47-0.48,1.24-1.18,2.3
		c-0.7,1.06-1.71,2.41-3.03,4.04c-1.33,1.63-2.79,3.31-4.39,5.02s-3.32,3.47-5.17,5.25c-0.11,2.21-0.26,4.31-0.45,6.29
		s-0.43,3.85-0.71,5.6c-0.27,1.75-0.54,3.15-0.8,4.18c-0.26,1.03-0.51,1.69-0.76,1.98c-0.11,0.15-0.38,0.29-0.81,0.41
		c-0.43,0.12-1.02,0.22-1.75,0.29c-0.72,0.09-1.48,0.16-2.28,0.21s-1.64,0.09-2.51,0.12c-0.87,0.02-1.71,0.02-2.52,0.02
		s-1.6-0.01-2.36-0.02c-0.76-0.03-1.37-0.08-1.83-0.14c-0.46-0.06-0.76-0.14-0.92-0.23c-0.35-0.18-0.71-0.76-1.07-1.73
		s-0.73-2.34-1.1-4.09c-0.38-1.74-0.71-3.6-0.99-5.57c-0.28-1.97-0.52-4.06-0.72-6.26c-1.95-1.83-3.77-3.62-5.45-5.38
		c-1.68-1.75-3.23-3.47-4.65-5.15c-1.4-1.68-2.47-3.07-3.2-4.16c-0.73-1.09-1.14-1.89-1.23-2.4c-0.05-0.29,0.01-0.68,0.18-1.17
		c0.17-0.49,0.46-1.09,0.89-1.79c0.44-0.69,0.92-1.38,1.45-2.08c0.52-0.7,1.09-1.41,1.7-2.13c0.61-0.7,1.22-1.37,1.83-2
		c0.61-0.63,1.22-1.22,1.83-1.75c0.61-0.55,1.14-0.97,1.59-1.25c0.45-0.29,0.81-0.44,1.06-0.45c0.61-0.03,1.4,0.21,2.38,0.74
		c0.97,0.52,2.13,1.32,3.45,2.41c1.33,1.07,2.7,2.23,4.12,3.5c1.42,1.26,2.89,2.62,4.4,4.07c1.54-1.45,3.02-2.81,4.45-4.08
		c1.43-1.27,2.8-2.45,4.13-3.55c1.33-1.08,2.49-1.89,3.47-2.42s1.79-0.77,2.42-0.72c0.26,0.02,0.61,0.16,1.05,0.43
		s0.97,0.67,1.58,1.19c0.61,0.52,1.23,1.08,1.85,1.67c0.62,0.59,1.24,1.23,1.85,1.9c0.63,0.67,1.2,1.34,1.73,2.01
		c0.53,0.67,1.01,1.33,1.45,1.99c0.43,0.67,0.72,1.24,0.89,1.72C496.49,228.5,496.54,228.89,496.48,229.19L496.48,229.19
		L496.48,229.19z M379.6,495.08c-0.35-2.84-0.85-5.38-1.55-7.48s-1.58-3.79-2.69-4.9c-1.95-1.97-4.43-3.42-7.18-4.44
		s-5.79-1.6-8.88-1.81c-3.39-0.21-8.23-0.24-12.47,0.79c-4.24,1.04-7.88,3.14-8.87,7.2c-0.47,2-0.73,4.19-0.84,6.23
		s-0.09,3.92-0.02,5.3c1.02,4.45,3.78,8.26,7.5,11.81s8.41,6.85,13.29,10.3c6.94,4.89,13.85,10.18,19.47,18.04
		c5.62,7.86,9.95,18.29,11.71,33.44c0.05,0.45-0.23,0.77-0.57,0.87c-0.34,0.1-0.75-0.01-0.96-0.41
		c-5.58-10.92-8.39-16.94-12.98-22.46s-10.98-10.56-23.7-19.54c-6.38-4.5-12.49-8.8-17.22-13.89c-4.73-5.09-8.09-10.97-8.98-18.62
		l0.11-0.02l0.11-0.02c-0.05-1.78-0.02-4.05,0.16-6.47s0.52-5,1.1-7.41c1.82-7.5,6.92-12.05,13.25-14.6s13.91-3.13,20.67-2.69
		c4.43,0.29,8.85,1.17,12.94,2.77s7.87,3.91,11,7.05c2.2,2.2,3.88,5.02,5.13,8.32c1.26,3.3,2.09,7.06,2.59,11.14
		c0.38,3.15-0.03,7.94-0.66,13.04c-0.63,5.1-1.49,10.51-2,14.92c-0.06,0.5-0.43,0.79-0.83,0.85c-0.4,0.05-0.84-0.13-1.04-0.59
		c-2.32-5.5-3.82-9.53-4.95-13.51C381.12,504.3,380.38,500.36,379.6,495.08L379.6,495.08L379.6,495.08z M355.74,405.49
		c-3.39,5.65-4.87,12.24-5.31,18.98c-0.45,6.75,0.14,13.66,0.86,19.96c0.05,0.4-0.19,0.71-0.5,0.83c-0.31,0.13-0.69,0.07-0.93-0.25
		c-4.33-5.73-6.66-12.83-7.7-19.42c-1.04-6.59-0.8-12.67,0.01-16.35c1.02-4.73,2.78-9.02,5.03-12.55s5-6.3,8.01-7.98l1.03-0.58
		l1.03-0.58c0.47-0.27,1-0.37,1.52-0.33c0.52,0.05,1.02,0.25,1.43,0.59l0.93,0.77l0.93,0.77c1.86,1.57,4.52,4.07,7.09,7.56
		c2.57,3.48,5.05,7.95,6.56,13.46c1.44,5.25,1.94,12.09,0.77,19.85c-1.17,7.76-4.01,16.45-9.26,25.41
		c-0.09,0.16-0.26,0.21-0.41,0.17c-0.15-0.04-0.28-0.16-0.28-0.34c-0.32-8.45,0.89-17.36,0.67-26.12
		c-0.22-8.77-1.86-17.39-7.89-25.27c-0.33-0.43-0.82-0.64-1.31-0.64s-0.97,0.23-1.29,0.67l-0.49,0.69L355.74,405.49z M265.89,517.27
		c1.15,3.52,3.48,8.62,4.2,13.08c0.72,4.47-0.19,8.31-5.52,9.32c-0.11,0.02-0.17,0.13-0.16,0.26c0.01,0.13,0.07,0.27,0.21,0.36
		c1.58,1.02,4.07,2.22,6.63,3.53c2.56,1.31,5.2,2.72,7.08,4.17c1.25,0.97,1.09,2.37,0.5,3.64s-1.59,2.43-2.03,2.92
		c-0.06,0.07-0.07,0.15-0.04,0.22c0.03,0.07,0.09,0.12,0.15,0.14c1.29,0.44,4.23,1.03,7.12,1.67c2.89,0.65,5.72,1.35,6.79,2.02
		c1.87,1.16,1,2.59-0.61,3.81s-3.99,2.22-5.14,2.53c-0.05,0.01-0.09,0.06-0.1,0.11s0.01,0.1,0.06,0.13
		c2.3,1.46,6.42,1.92,10.92,2.37s9.39,0.9,13.22,2.33c1.51,0.56,2.85,1.11,4.09,1.64c1.24,0.54,2.36,1.06,3.43,1.6
		c0.14,0.07,0.28,0.02,0.36-0.08c0.08-0.1,0.09-0.25-0.01-0.37c-7.07-7.95-16.16-17.89-25.25-27.87
		c-9.09-9.98-18.16-19.99-25.19-28.08c-0.21-0.24-0.45-0.29-0.6-0.19S265.77,516.91,265.89,517.27z M312.3,530.65
		c-1.91,2.17-3.48,2.79-4.83,2.68c-1.35-0.11-2.48-0.94-3.5-1.69c-1.32-0.94-2.16-3.77-3.48-7.47c-1.32-3.7-3.11-8.26-6.32-12.65
		c-0.03-0.04-0.1-0.07-0.17-0.07s-0.14,0.01-0.16,0.05c-0.63,1.1-1.16,3.43-2.22,5.19c-1.06,1.77-2.65,2.97-5.38,1.83
		c-1.13-0.48-3.86-1.45-6.85-2.55c-3-1.09-6.27-2.31-8.5-3.28c-0.23-0.1-0.37-0.09-0.4-0.01s0.04,0.22,0.22,0.38
		c7.63,6.7,16.8,15.91,25.81,25.36c9.01,9.45,17.84,19.14,24.79,26.79c0.08,0.09,0.2,0.1,0.29,0.05c0.09-0.05,0.16-0.15,0.14-0.28
		c-0.67-4.6-0.58-8.22-0.49-11.22c0.09-3,0.17-5.38-0.54-7.52c-0.26-0.75-1.49-0.33-2.7,0.08c-1.21,0.41-2.41,0.82-2.61,0.04
		c-0.56-2.18-1.17-5.06-1.62-7.97c-0.45-2.91-0.73-5.84-0.6-8.12c0.01-0.22-0.11-0.22-0.23-0.18c-0.12,0.05-0.25,0.15-0.25,0.15
		l-0.19,0.2L312.3,530.65z M401.6,527.32c3.28,2.33,5.76,3.78,7.7,4.31c1.95,0.53,3.36,0.14,4.52-1.2c1.45-1.65,1.03-5.8,0.91-11.24
		c-0.12-5.44,0.05-12.18,2.69-19.02c0.13-0.33,0.41-0.53,0.71-0.58c0.3-0.05,0.63,0.05,0.85,0.33c1.37,1.72,3.27,4.63,5.6,6.54
		c2.33,1.92,5.09,2.85,8.15,0.62c1.43-1.04,4.64-3.76,8.32-6.53s7.86-5.58,11.22-6.81c0.21-0.08,0.4,0.01,0.52,0.15
		c0.11,0.15,0.14,0.36,0.01,0.54c-8.23,11.52-17.81,27.1-27.08,42.98s-18.25,32.06-25.27,44.79c-0.05,0.1-0.16,0.12-0.24,0.09
		c-0.08-0.03-0.15-0.11-0.14-0.23c0.7-6.85-1.1-12.66-2.99-17.54c-1.89-4.88-3.88-8.82-3.58-11.94c0.11-1.1,2.34-0.05,4.55,1
		s4.4,2.09,4.43,0.98c0.04-2.99-1.29-7.81-2.44-12.81c-1.14-5-2.1-10.19-1.29-13.93c0.11-0.51,0.47-0.88,0.91-1.04
		c0.44-0.17,0.96-0.13,1.39,0.17l0.28,0.19L401.6,527.32z M469.21,529.39c-1.57,1.8-5.72,4.06-10.07,6.56
		c-4.35,2.49-8.89,5.22-11.24,7.93c-1.68,1.91,0.38,4.19,2.87,6.02c2.49,1.82,5.4,3.18,5.43,3.23c-1.27,0.85-6.1,2.66-10.95,4.57
		s-9.73,3.92-11.09,5.19c-2.34,2.2-2.3,3.97-1.34,5.2c0.96,1.22,2.85,1.89,4.21,1.88c-2.6,2.78-5.43,4.48-8.86,6.25
		c-3.43,1.77-7.44,3.62-12.39,6.68c-2.24,1.39-4.19,2.68-5.95,3.93c-1.76,1.25-3.33,2.44-4.83,3.64c-0.03,0.03-0.07,0.02-0.09,0
		c-0.02-0.02-0.04-0.06-0.02-0.09c7.21-12.34,16.92-27.99,26.73-43.85c9.81-15.86,19.72-31.94,27.33-45.15
		c0.25-0.43,1.04-0.47,1.75-0.28c0.71,0.19,1.34,0.61,1.24,1.09c-0.93,4.86-2.46,11.87-2.08,17.57
		C460.25,525.43,462.53,529.8,469.21,529.39z M359.18,68.43c-4.49,0.23-8.47,2.18-11.32,5.19c-2.85,3.01-4.59,7.07-4.59,11.52
		c0,4.62,1.87,8.8,4.9,11.82c3.03,3.02,7.21,4.89,11.84,4.89c4.63,0,8.81-1.87,11.84-4.89c3.03-3.02,4.9-7.2,4.9-11.82
		c0-4.74-1.98-9.04-5.17-12.1C368.37,70,363.98,68.19,359.18,68.43L359.18,68.43L359.18,68.43z M414.24,68.83
		c14.39-28.71,30.49-42.04,44.05-46.1c13.57-4.07,24.6,1.13,28.85,9.47c3.93,7.71,1.93,17.75-9.08,25.54s-31,13.34-63.07,12.09
		c-0.2-0.01-0.43-0.18-0.58-0.39C414.24,69.23,414.16,68.99,414.24,68.83z M306.5,67.55c-0.06-0.12-0.11-0.24-0.16-0.34
		c-0.05-0.1-0.08-0.18-0.11-0.23c-14.4-28.78-30.61-41.91-44.29-45.76c-13.68-3.85-24.82,1.58-29.08,9.95
		c-3.95,7.75-2.21,17.86,8.67,25.68c10.88,7.82,30.89,13.35,63.47,11.91l0.35-0.02l0.35-0.02c0,0,0.24-0.19,0.46-0.43
		C306.4,68.05,306.59,67.76,306.5,67.55z"/>
</g>
</svg>
