<?xml version="1.0" encoding="utf-8"?>
<!-- Generator: Adobe Illustrator 24.3.0, SVG Export Plug-In . SVG Version: 6.00 Build 0)  -->
<svg version="1.1" id="Слой_1" xmlns="http://www.w3.org/2000/svg" xmlns:xlink="http://www.w3.org/1999/xlink" x="0px" y="0px"
	 viewBox="0 0 720 720" style="enable-background:new 0 0 720 720;" xml:space="preserve">
<style type="text/css">
	.st0{fill-rule:evenodd;clip-rule:evenodd;}
</style>
<path d="M564.04,228.42c-9.41-9.4-19.36-18.06-29.78-25.97c-10.42-7.9-21.31-15.05-32.6-21.42c-0.19-0.1-0.22-0.3-0.16-0.45
	c0.06-0.15,0.22-0.27,0.42-0.22c11.51,2.74,22.37,3.17,31.57,0.01c9.2-3.16,16.73-9.92,21.6-21.58c2.6-6.22,1.33-12.05-2.29-20.63
	c-3.62-8.58-9.58-19.91-16.35-37.12c-2.88-7.38-2.04-16.59,0.22-26.04s5.92-19.14,8.68-27.46c10.74-32.61-17.38-48.28-52.72-46.15
	s-77.88,22.06-95.99,60.65c-0.06,0.13-0.27,0.21-0.48,0.24s-0.45-0.01-0.56-0.12c-4.75-4.61-10.24-8.17-16.2-10.58
	c-5.96-2.41-12.39-3.67-19.02-3.67c-6.41,0-12.64,1.19-18.45,3.46c-5.81,2.27-11.18,5.63-15.89,9.96c-0.3,0.27-0.68,0.36-1.03,0.3
	c-0.35-0.07-0.67-0.29-0.84-0.66c-18.03-38.63-60.6-58.6-95.97-60.76s-63.54,13.49-52.78,46.09c2.76,8.34,6.43,18.04,8.68,27.49
	s3.1,18.67,0.22,26.04c-6.79,17.21-12.75,28.53-16.37,37.11c-3.62,8.58-4.89,14.41-2.31,20.64c5.15,12.35,13.29,19.2,23.23,22.11
	s21.66,1.86,33.99-1.6c0.12-0.03,0.21,0.03,0.24,0.11c0.04,0.08,0.01,0.19-0.09,0.25c-12.17,6.57-23.9,14.05-35.1,22.39
	c-11.2,8.34-21.88,17.55-31.94,27.6c-27.25,27.19-48.39,58.87-62.71,93.36s-21.83,71.8-21.83,110.24
	c0,38.46,7.51,75.78,21.83,110.27s35.46,66.17,62.71,93.36c27.25,27.19,58.99,48.27,93.55,62.56S321.46,720,360,720
	s75.93-7.49,110.49-21.78s66.3-35.37,93.55-62.56s48.39-58.87,62.71-93.36s21.83-71.81,21.83-110.27
	c0-38.45-7.51-75.75-21.83-110.24S591.29,255.61,564.04,228.42z M587.78,321.6c7.65,15.62,13.72,32.14,18.03,49.35
	c4.3,17.21,6.82,35.1,7.36,53.48c0.01,0.42-0.14,0.81-0.4,1.1c-0.26,0.29-0.63,0.49-1.05,0.52c-2.7,0.22-6.16,0.54-10.63,0.99
	s-9.97,1.02-16.75,1.74c-6.52,0.68-13.48,1.42-19.36,1.99c-5.88,0.57-10.69,0.96-12.92,0.96c-1.18,0-2.16-0.12-2.96-0.36
	c-0.8-0.24-1.4-0.59-1.82-1.05c-1.23-1.32-1.7-3.93-1.8-6.85c-0.11-2.92,0.15-6.16,0.36-8.75c0.24-2.9,0.59-6.98-0.21-10.27
	c-0.79-3.29-2.73-5.78-7.04-5.51c-0.08,0.01-0.14-0.04-0.17-0.09c-0.03-0.06-0.03-0.13,0.03-0.19
	c10.66-11.05,20.07-23.1,28.13-35.99c8.05-12.89,14.75-26.61,19.98-41.02c0.1-0.28,0.35-0.43,0.6-0.45S587.64,321.34,587.78,321.6z
	 M462.02,539.75c0.07,0.5-0.08,0.97-0.37,1.32c-0.29,0.35-0.73,0.57-1.24,0.56c-2.56-0.04-5.18-0.23-7.95-0.52
	c-2.77-0.29-5.7-0.66-8.87-1.07c-3.29-0.42-6.76-0.87-10.51-1.27c-3.75-0.4-7.78-0.76-12.17-1.01v-4.99v-4.99
	c5.39-2.53,10.92-5.12,16.55-7.74c5.63-2.63,11.37-5.3,17.17-8c1.4-0.07,2.79-0.13,4.17-0.17c1.38-0.04,2.76-0.07,4.13-0.08
	c3.16-0.03,6.27,0.06,9.35,0.28c3.08,0.22,6.11,0.59,9.11,1.12c3,0.53,5.95,1.24,8.87,2.12s5.79,1.95,8.64,3.2
	c1.75,0.75,3.47,1.58,5.2,2.46c1.72,0.88,3.44,1.82,5.18,2.79c0.18,0.1,0.23,0.24,0.16,0.34s-0.24,0.17-0.48,0.15
	c-0.48-0.05-0.96-0.1-1.45-0.15s-0.99-0.1-1.49-0.15c-5.22-0.53-10.81-1.1-15.88-1.41s-9.65-0.35-12.85,0.18
	c-5.68,0.95-9.27,3.01-11.53,5.3c-2.26,2.28-3.2,4.79-3.59,6.61c-0.19,0.85-0.29,1.71-0.31,2.57
	C461.83,538.06,461.89,538.91,462.02,539.75z M401.97,358.77c0.01-0.08,0.07-0.13,0.14-0.14c0.07-0.01,0.14,0.02,0.16,0.1
	c3.27,13.67,4.6,41.59,4.47,69.63c-0.14,28.04-1.74,56.19-4.35,70.3c-0.03,0.17-0.17,0.27-0.32,0.27c-0.14,0.01-0.29-0.07-0.34-0.24
	c-3.52-11.59-4.36-21.41-4.34-30.32c0.02-8.92,0.89-16.93,0.81-24.93c-0.17-12.15-0.23-23.93,0.26-37.36
	C398.94,392.64,399.97,377.55,401.97,358.77z M403.98,321.41c-0.04,0.12-0.15,0.17-0.25,0.16c-0.1-0.01-0.2-0.08-0.21-0.21
	c-0.7-4.99-2.45-10.1-4.65-15.13s-4.84-9.98-7.33-14.64c-1.51-2.81-3.05-5.67-4.49-8.51s-2.77-5.66-3.88-8.38l-1.6-3.97l-1.6-3.97
	c-0.23-0.57-0.75-0.88-1.27-0.9c-0.53-0.02-1.07,0.24-1.34,0.79l-1.91,3.83l-1.91,3.83c-4.46,8.89-8.47,17.18-11.52,24.83
	c-3.04,7.65-5.11,14.65-5.68,20.97c-0.01,0.12-0.1,0.19-0.19,0.2s-0.19-0.03-0.23-0.14c-3.99-10.75-1.21-24.21,3.98-37.19
	c5.19-12.98,12.81-25.47,18.5-34.26c0.16-0.25,0.42-0.37,0.68-0.36c0.26,0.01,0.51,0.14,0.66,0.4l0.84,1.43l0.84,1.43
	c0.79,1.37,1.02,1.76,1.27,2.17c0.25,0.41,0.51,0.84,1.37,2.28c7.37,12.37,13.94,24.17,17.88,35.15
	C405.87,302.2,407.17,312.35,403.98,321.41z M390.53,337.07l-10.02-0.03l-10.02-0.03c-0.11,0-0.23-0.03-0.33-0.08
	c-0.1-0.05-0.19-0.12-0.26-0.21c-4.11-5.42-3.47-14.37-1.16-23.31c2.31-8.94,6.28-17.88,8.83-23.3c0.12-0.25,0.35-0.37,0.59-0.38
	s0.47,0.12,0.6,0.36l0.53,1.01l0.53,1.01c0.67,1.28,0.92,1.77,1.17,2.24s0.51,0.95,1.2,2.22c2.54,4.72,6.43,11.92,8.86,19.35
	c2.44,7.43,3.42,15.1,0.16,20.77c-0.07,0.12-0.17,0.22-0.29,0.28C390.81,337.04,390.67,337.07,390.53,337.07z M359.75,646.34
	c1.42-0.61,2.98-0.58,4.33-0.03c1.35,0.55,2.51,1.61,3.12,3.05c0.62,1.44,0.59,2.99,0.05,4.33c-0.54,1.34-1.6,2.47-3.04,3.09
	c-1.46,0.63-3.02,0.61-4.36,0.07c-1.35-0.54-2.48-1.6-3.09-3.06c-0.63-1.42-0.62-2.97-0.07-4.32
	C357.23,648.12,358.29,646.97,359.75,646.34z M361.41,607.17c-0.62-1.44-0.59-2.99-0.04-4.34s1.61-2.49,3.07-3.1
	c1.44-0.6,2.99-0.56,4.33-0.02c1.35,0.54,2.49,1.59,3.12,3.01c0.62,1.44,0.59,3,0.04,4.36c-0.55,1.35-1.61,2.49-3.07,3.09
	c-1.44,0.61-3,0.59-4.35,0.05C363.16,609.66,362.02,608.61,361.41,607.17z M357.23,544.8c-0.05-0.1-0.06-0.17-0.02-0.2
	c0.03-0.03,0.1-0.03,0.2,0.03c2.04,1.29,10.13,5.2,20.39,6.82c10.27,1.62,22.71,0.94,33.45-6.96c0.13-0.09,0.19-0.13,0.21-0.11
	c0.02,0.02-0.01,0.1-0.06,0.25c-3.34,8.38-14.68,12.36-26.29,12.28C373.5,556.83,361.63,552.68,357.23,544.8z M407.78,337.52
	c-0.17,0.01-0.31-0.08-0.38-0.21c-0.07-0.13-0.07-0.3,0.04-0.43c4.58-5.78,7.18-11.96,8.3-18.33c1.12-6.38,0.76-12.95-0.59-19.53
	c-0.08-0.4-0.04-0.81,0.12-1.16c0.16-0.36,0.42-0.67,0.77-0.88c10.33-6.33,18.68-15.14,24.46-25.41c5.77-10.26,8.97-21.98,8.97-34.1
	c0-9.1-1.76-17.79-4.96-25.76c-3.2-7.97-7.83-15.23-13.58-21.46c-0.15-0.16-0.14-0.37-0.05-0.52c0.09-0.15,0.28-0.25,0.48-0.19
	c9.69,2.84,19.13,6.25,28.3,10.19s18.06,8.39,26.64,13.34c0.13,0.07,0.24,0.17,0.33,0.29s0.15,0.25,0.18,0.4
	c0.86,3.9,1.51,7.83,1.95,11.79s0.66,7.94,0.66,11.92c0,22.17-6.66,43.39-18.49,61.14c-11.83,17.75-28.85,32.02-49.56,40.27
	c-1.8-0.77-3.81-1.18-6.06-1.36C413.05,337.32,410.55,337.37,407.78,337.52z M431.06,434.97c0.05,0.18-0.05,0.31-0.18,0.37
	s-0.3,0.02-0.39-0.14c-1.29-2.27-2.66-4.5-4.05-6.66s-2.82-4.24-4.23-6.21c-0.19-0.28-0.4-0.54-0.62-0.79
	c-0.22-0.25-0.45-0.49-0.68-0.72v-2.95v-2.95c2.31,2.1,4.32,5.1,6.01,8.59C428.61,426.98,429.99,430.95,431.06,434.97z
	 M447.38,458.4c0.1-0.1,0.16-0.15,0.19-0.13c0.03,0.01,0.03,0.08,0,0.21c-0.89,4.14-4.98,12.17-10.23,16.74s-11.68,5.68-17.26-4.02
	c-0.05-0.08,0.02-0.19,0.12-0.26c0.1-0.07,0.22-0.1,0.28-0.03c5.86,7.56,12.06,4.99,17.06,0.25
	C442.53,466.42,446.32,459.52,447.38,458.4z M536.89,439.93c1.81,1.95,3.99,3.42,6.52,4.41c2.53,0.99,5.42,1.49,8.63,1.49
	c2.62,0,7.39-0.37,13.35-0.93s13.08-1.32,20.41-2.09c0.23-0.04,0.35,0.01,0.37,0.09c0.01,0.08-0.09,0.18-0.3,0.26
	c-10.32,3.87-21.17,8.12-32.32,12.65c-11.15,4.53-22.62,9.32-34.18,14.27c-0.2,0.09-0.39,0.01-0.5-0.12c-0.11-0.14-0.13-0.34,0-0.51
	c1.77-2.39,3.37-4.95,4.76-7.62c1.39-2.68,2.57-5.48,3.5-8.36c1.04-3.18,1.77-6.42,2.25-9.67c0.48-3.25,0.72-6.5,0.76-9.71
	c0.02-2.08-0.02-4.15-0.12-6.21c-0.1-2.06-0.27-4.12-0.51-6.18c0.19-0.17,0.36-0.34,0.54-0.51s0.36-0.34,0.55-0.5
	c0.14-0.12,0.32-0.13,0.46-0.06c0.14,0.07,0.25,0.21,0.25,0.39c-0.06,3.3,0.14,6.74,0.95,10
	C533.07,434.27,534.49,437.35,536.89,439.93z M523.38,433.29c-0.66,3.03-1.33,6.01-2.06,8.93s-1.52,5.77-2.43,8.57
	c-0.9,2.8-1.93,5.56-3.08,8.29s-2.41,5.45-3.78,8.17c-0.58,1.18-1.18,2.35-1.79,3.53s-1.23,2.36-1.86,3.55
	c-0.1,0.19-0.23,0.36-0.39,0.51c-0.16,0.14-0.34,0.26-0.53,0.35c-7.23,3.13-14.47,6.31-21.66,9.5c-7.2,3.19-14.36,6.39-21.43,9.58
	c-0.14,0.06-0.28,0.02-0.37-0.07c-0.09-0.09-0.12-0.23-0.05-0.37c0.74-1.48,1.41-3,2.01-4.56c0.59-1.56,1.1-3.16,1.52-4.79
	c0.79-2.98,1.2-6.07,1.26-9.15s-0.22-6.17-0.83-9.15c-0.02-0.12,0.02-0.22,0.11-0.27c0.08-0.06,0.19-0.07,0.29-0.01
	c3.06,1.83,6.23,3.03,9.32,3.61c3.09,0.58,6.12,0.55,8.89-0.09c3.45-0.79,6.44-3,9.46-6.28c3.02-3.28,6.05-7.63,9.57-12.69
	c2.5-3.59,5.3-7.58,8.45-11.68c3.15-4.1,6.65-8.32,10.58-12.35c0.07-0.07,0.17-0.08,0.25-0.04s0.13,0.13,0.1,0.23
	c-0.27,1.12-0.54,2.23-0.79,3.35S523.63,432.19,523.38,433.29z M457.99,442.66c-0.04-0.18-0.04-0.3,0.01-0.34
	c0.05-0.05,0.15-0.02,0.3,0.1c2.01,1.53,7.47,7.77,15.79,9.24c8.32,1.47,19.51-1.84,32.98-19.42c0.07-0.09,0.13-0.13,0.16-0.12
	c0.03,0,0.03,0.05-0.01,0.15c-8.99,19.63-20.62,25.2-30.34,24.37C467.15,455.8,459.34,448.58,457.99,442.66z M458.07,462.05
	c0.69-0.24,1.39-0.11,1.93,0.26c0.54,0.37,0.91,0.99,0.93,1.72c0.01,0.35,0.02,0.7,0.03,1.05c0.01,0.35,0.01,0.7,0.01,1.04
	c0.03,2.8-0.1,5.55-0.4,8.25c-0.3,2.71-0.79,5.37-1.47,8.01c-0.7,2.73-1.57,5.45-2.57,8.16c-1.01,2.71-2.16,5.4-3.43,8.1
	c-0.24,0.24-0.47,0.46-0.7,0.69c-0.23,0.23-0.46,0.45-0.7,0.69c-5.22,2.38-10.38,4.73-15.45,7.06c-5.07,2.33-10.04,4.62-14.91,6.87
	c-0.11,0.05-0.22,0.03-0.3-0.02c-0.09-0.06-0.15-0.15-0.15-0.27v-15.02v-15.02c0-0.41,0.24-0.73,0.55-0.87s0.71-0.13,1.03,0.13
	c1.37,1.11,2.81,2.1,4.34,2.76s3.18,1,4.97,0.81c1.23-0.12,2.32-0.56,3.33-1.19s1.93-1.45,2.83-2.32c3.32-3.22,6.08-6.52,8.76-9.73
	c2.68-3.21,5.26-6.34,8.21-9.21c0.45-0.44,0.95-0.82,1.47-1.14C456.94,462.51,457.49,462.25,458.07,462.05z M512.74,521.65
	c-0.05,0.16-0.17,0.26-0.31,0.29c-0.14,0.03-0.29-0.02-0.4-0.15c-1.39-1.74-2.91-3.38-4.55-4.92c-1.64-1.53-3.4-2.96-5.26-4.26
	c-2.85-1.99-5.95-3.66-9.2-5s-6.65-2.32-10.1-2.93c-1.58-0.29-3.17-0.49-4.76-0.63c-1.59-0.13-3.18-0.19-4.77-0.19
	c-0.14,0-0.24-0.09-0.26-0.2c-0.03-0.11,0.02-0.23,0.15-0.29c7.19-3.34,14.44-6.7,21.7-10.08c7.27-3.38,14.55-6.76,21.79-10.13
	c0.12-0.06,0.25-0.1,0.38-0.13c0.13-0.03,0.27-0.04,0.4-0.04c1.09,0.01,2.16,0.03,3.23,0.07c1.07,0.04,2.13,0.1,3.17,0.18
	c2.79,0.22,5.52,0.58,8.18,1.12c2.67,0.54,5.28,1.25,7.85,2.17c2.57,0.9,5.1,1.96,7.62,3.15c2.52,1.19,5.01,2.51,7.5,3.94
	c1.57,0.9,3.14,1.83,4.71,2.78c1.58,0.95,3.17,1.93,4.78,2.9c-3.14-0.17-10.9,0.64-18.5,1.64c-7.61,1.01-15.06,2.22-17.57,2.87
	c-4.72,1.26-8.17,3.94-10.68,7.2C515.32,514.28,513.74,518.1,512.74,521.65z M562.7,491.6c0,0.03,0.01,0.06,0.01,0.1
	c0.01,0.03,0.01,0.06,0.01,0.1c-0.58-0.63-1.17-1.25-1.78-1.86s-1.23-1.21-1.87-1.79c-2.32-2.09-4.85-4-7.58-5.65
	c-2.72-1.65-5.63-3.05-8.69-4.12c-1.49-0.54-3.01-0.97-4.55-1.32c-1.54-0.34-3.11-0.6-4.69-0.76c-0.25-0.03-0.4-0.2-0.43-0.4
	c-0.03-0.2,0.05-0.41,0.27-0.52c11.19-5.23,22.19-10.39,32.81-15.42c10.62-5.02,20.86-9.91,30.52-14.57c0.08-0.04,0.16,0,0.2,0.06
	c0.04,0.06,0.04,0.14-0.03,0.2c-6.41,5.27-15.32,12.32-22.45,20.26C567.33,473.87,561.98,482.72,562.7,491.6z M547.75,262.6
	c5.42,5.97,10.55,12.2,15.39,18.66c4.83,6.46,9.36,13.17,13.56,20.08c0.33,0.54,0.54,1.13,0.63,1.75c0.09,0.61,0.06,1.24-0.11,1.85
	c-4.02,14.91-10.76,30.12-19.13,44.38c-8.38,14.25-18.39,27.56-28.95,38.65c-0.07,0.07-0.18,0.1-0.28,0.08
	c-0.1-0.01-0.18-0.06-0.2-0.14c-0.22-1.31-0.74-2.57-1.51-3.67s-1.81-2.03-3.06-2.69c-2.15-1.14-4.55-1.31-6.71-0.65
	c-2.16,0.65-4.07,2.13-5.21,4.27c-1.01,1.87-2.08,3.63-3.21,5.28c-1.12,1.65-2.3,3.18-3.5,4.59c-0.08,0.09-0.19,0.09-0.28,0.04
	s-0.14-0.15-0.1-0.27c1.35-4.24,2.38-8.44,3.09-12.54c0.71-4.1,1.08-8.11,1.11-11.99c0.01-2.29-0.81-4.45-2.2-6.11
	c-1.39-1.66-3.36-2.8-5.63-3.05c-2.67-0.29-5.12,0.61-6.91,2.22s-2.91,3.95-2.91,6.54c0,1.39-0.06,2.78-0.17,4.19
	s-0.27,2.82-0.47,4.25c-0.02,0.12-0.1,0.21-0.2,0.23c-0.1,0.03-0.22,0-0.3-0.1c-1.36-1.62-3.21-2.66-5.19-3.03
	c-1.98-0.37-4.1-0.06-6.01,1.02c-2.09,1.21-3.51,3.16-4.1,5.34c-0.59,2.18-0.35,4.58,0.86,6.71c0.86,1.48,1.48,3.13,1.9,4.86
	c0.42,1.74,0.65,3.57,0.71,5.4c0,0.09-0.06,0.15-0.13,0.17s-0.15-0.01-0.18-0.1c-0.49-1.2-1.05-2.39-1.69-3.61
	c-0.64-1.21-1.34-2.44-2.13-3.7c-1.28-2.07-3.29-3.42-5.49-3.92c-2.2-0.5-4.6-0.17-6.68,1.11c-2.06,1.3-3.4,3.31-3.91,5.51
	s-0.18,4.59,1.1,6.64c1.85,2.96,3.01,5.7,3.67,8.28c0.66,2.58,0.82,5,0.68,7.29c-0.01,0.19-0.09,0.25-0.18,0.22
	s-0.19-0.16-0.25-0.37c-0.79-2.9-1.71-5.76-2.77-8.49c-1.06-2.74-2.25-5.35-3.58-7.78c-1.16-2.13-3.08-3.59-5.24-4.24
	c-2.16-0.65-4.57-0.47-6.72,0.69c-2.13,1.16-3.6,3.08-4.24,5.25c-0.65,2.16-0.47,4.57,0.69,6.7c1.57,2.9,2.88,6.16,3.95,9.55
	c1.07,3.39,1.9,6.9,2.51,10.31c0.03,0.18-0.08,0.29-0.22,0.33c-0.13,0.03-0.29-0.03-0.34-0.2c-1.55-5.29-3.57-10.47-6.11-15.12
	c-2.53-4.65-5.58-8.76-9.15-11.89c-0.4-0.34-1.06-0.77-1.75-1.18c-0.69-0.41-1.43-0.8-2-1.05c-0.08-0.03-0.11-0.11-0.1-0.19
	c0.01-0.08,0.05-0.16,0.13-0.19c0.18-0.08,0.37-0.15,0.62-0.24c0.25-0.09,0.57-0.2,0.99-0.35c16.69-5.23,32.52-13.13,46.82-23.22
	s27.07-22.39,37.62-36.42c8.45-11.23,15.37-23.29,20.7-35.95s9.06-25.93,11.14-39.6c0.05-0.32,0.27-0.54,0.53-0.62
	C547.23,262.3,547.54,262.36,547.75,262.6z M502.87,224.9c-0.03-0.3,0.12-0.55,0.34-0.68c0.22-0.13,0.51-0.15,0.76,0.02
	c5.23,3.61,10.31,7.41,15.25,11.4c4.93,3.99,9.71,8.17,14.34,12.52c0.1,0.09,0.17,0.2,0.22,0.32c0.05,0.12,0.07,0.25,0.06,0.38
	c-2.18,30.1-12.92,58.05-30.19,81.12c-17.27,23.07-41.08,41.28-69.42,51.88c-0.34,0.13-0.69,0.07-0.96-0.11
	c-0.27-0.18-0.45-0.48-0.46-0.85c-0.08-3.85-0.39-9.88-0.85-15.71s-1.08-11.45-1.79-14.49c-0.02-0.1-0.01-0.2,0.03-0.28
	s0.11-0.15,0.21-0.19c22.27-9.99,40.55-25.94,53.26-45.52c12.71-19.58,19.85-42.78,19.85-67.27c0-2.1-0.06-4.19-0.16-6.29
	C503.24,229.07,503.08,226.98,502.87,224.9z M507.49,37.19c4.54,8.92,2.22,20.51-10.51,29.52C484.24,75.72,461.1,82.14,424,80.7
	c-0.33-0.01-0.61-0.2-0.76-0.46s-0.19-0.59-0.03-0.89c16.67-33.08,35.27-48.44,50.95-53.12S502.56,27.56,507.49,37.19z
	 M402.55,127.62c0.14-0.71,0.64-1.22,1.25-1.44c0.61-0.22,1.32-0.14,1.89,0.31c4.76,3.79,11.48,8.95,19.48,14.62
	c8,5.66,17.28,11.83,27.15,17.62c0.22,0.13,0.41,0.27,0.5,0.37s0.1,0.16-0.04,0.11c-8.08-2.72-16.29-5.1-24.61-7.11
	s-16.76-3.64-25.29-4.89c-0.16-0.02-0.3-0.1-0.39-0.21c-0.1-0.11-0.16-0.26-0.16-0.42c-0.03-2.26-0.23-5.68-0.3-9.21
	C401.97,133.87,402.04,130.25,402.55,127.62z M346.67,84.75c1.81-1.83,3.93-3.24,6.25-4.2s4.83-1.46,7.43-1.46
	c2.58,0,5.1,0.5,7.42,1.46s4.46,2.37,6.29,4.2c1.83,1.81,3.24,3.93,4.2,6.24c0.96,2.31,1.46,4.83,1.46,7.43
	c0,2.58-0.5,5.08-1.46,7.39s-2.37,4.43-4.2,6.24c-1.83,1.83-3.97,3.25-6.29,4.22s-4.84,1.48-7.42,1.48c-2.6,0-5.12-0.51-7.43-1.48
	s-4.44-2.39-6.25-4.22c-1.83-1.83-3.25-3.95-4.22-6.26s-1.48-4.8-1.48-7.37c0-2.58,0.51-5.08,1.48-7.4
	C343.42,88.7,344.84,86.58,346.67,84.75z M379.55,181.81c15.39,0,29.33,6.24,39.43,16.32s16.35,23.99,16.35,39.32
	c0,9.07-2.24,17.85-6.31,25.66c-4.07,7.81-9.98,14.65-17.33,19.82c-0.3,0.21-0.66,0.25-0.98,0.15c-0.32-0.1-0.6-0.34-0.74-0.68
	c-3.52-8.55-7.88-16.34-12.4-24.01c-4.51-7.68-9.17-15.24-13.26-23.34l-1.23-2.44l-1.23-2.44c-0.35-0.7-1.02-1.08-1.71-1.13
	c-0.69-0.05-1.4,0.25-1.84,0.9l-1.55,2.26l-1.55,2.26c-6.28,9.17-11.61,17.71-16,25.68c-4.39,7.97-7.85,15.37-10.39,22.25
	c-0.1,0.28-0.33,0.48-0.58,0.56c-0.26,0.08-0.55,0.05-0.8-0.12c-7.34-5.16-13.24-11.96-17.31-19.74c-4.07-7.78-6.3-16.54-6.3-25.64
	c0-15.33,6.25-29.24,16.34-39.32S364.18,181.81,379.55,181.81z M338.52,180.23c0.23-0.02,0.39,0.08,0.45,0.21
	c0.06,0.13,0.02,0.3-0.16,0.43c-8.81,6.33-16.08,14.65-21.16,24.3c-5.07,9.65-7.95,20.63-7.95,32.27c0,12.36,3.27,24.24,9.2,34.6
	c5.93,10.36,14.52,19.19,25.15,25.45c0.12,0.07,0.21,0.17,0.26,0.29c0.05,0.12,0.07,0.26,0.05,0.39c-0.73,4.21-1.04,8.18-0.94,11.95
	s0.63,7.33,1.58,10.71c0.95,3.37,2.33,6.52,4.13,9.44c1.8,2.92,4.02,5.61,6.66,8.06c0.06,0.05,0.07,0.12,0.06,0.18
	s-0.06,0.12-0.14,0.14c-1.09,0.31-2.07,0.76-2.95,1.35c-0.87,0.59-1.64,1.33-2.3,2.22c-0.17,0.22-0.4,0.37-0.65,0.45
	c-0.26,0.08-0.54,0.08-0.8,0c-2.81-0.82-5.6-1.76-8.34-2.8c-2.74-1.04-5.45-2.2-8.1-3.45c-0.23-0.11-0.43-0.28-0.58-0.48
	s-0.25-0.44-0.3-0.7c-1.35-8.05-4.43-16.13-8.14-23.81c-3.7-7.68-8.03-14.95-11.85-21.39c-1.49-2.51-2.95-4.94-4.28-7.26
	s-2.56-4.52-3.6-6.58l-1.55-3.1l-1.55-3.1c-0.2-0.4-0.58-0.63-0.98-0.65c-0.4-0.03-0.8,0.14-1.06,0.51l-1.96,2.87l-1.96,2.87
	c-1.86,2.71-3.62,5.35-5.28,7.93s-3.25,5.12-4.73,7.6c-0.1,0.17-0.28,0.26-0.46,0.25c-0.18,0-0.35-0.09-0.45-0.27
	c-4.6-8.19-8.11-16.88-10.47-25.89s-3.57-18.34-3.57-27.81c0-7.73,0.78-15.33,2.35-22.74c1.56-7.41,3.91-14.64,7.03-21.65
	c0.09-0.2,0.22-0.39,0.39-0.53c0.16-0.15,0.36-0.26,0.57-0.33c9.29-3.1,18.83-5.66,28.58-7.67S328.41,181.09,338.52,180.23z
	 M221.74,563.96c-3.02-0.51-5.98-1.14-8.88-1.91c-2.9-0.77-5.74-1.67-8.51-2.74c-1.56-0.6-3.1-1.25-4.61-1.95
	c-1.52-0.7-3.02-1.45-4.5-2.24c-0.18-0.1-0.26-0.2-0.24-0.28c0.02-0.07,0.13-0.11,0.33-0.07c0.76,0.14,1.5,0.26,2.23,0.33
	s1.42,0.11,2.09,0.09c4.76,0.4,8.22-1.17,10.6-3.86c2.37-2.69,3.65-6.49,4.06-10.54c0.02-0.16,0.13-0.26,0.25-0.29
	c0.13-0.03,0.27,0.02,0.35,0.15c1.02,1.67,2.14,3.27,3.37,4.81c1.23,1.54,2.55,3.01,3.97,4.4c2.41,2.37,5.09,4.51,7.97,6.35
	c2.88,1.85,5.95,3.41,9.16,4.63c0.74,0.28,1.49,0.55,2.25,0.79s1.52,0.47,2.28,0.68c0.18,0.05,0.26,0.2,0.25,0.35
	s-0.11,0.29-0.29,0.32c-2.24,0.34-4.48,0.69-6.72,1.03c-2.24,0.35-4.47,0.69-6.7,1.04c-0.16,0.03-0.33,0.04-0.5,0.04
	s-0.33-0.01-0.5-0.03c-1.3-0.16-2.6-0.32-3.88-0.51C224.28,564.38,223.01,564.18,221.74,563.96z M231.32,457.49
	c1.49-0.13,2.96-0.5,4.41-1.08c1.45-0.59,2.87-1.4,4.28-2.43c0.43-0.32,0.96-0.42,1.45-0.33c0.49,0.09,0.94,0.38,1.22,0.84
	c0.36,0.58,0.73,1.17,1.1,1.77c0.37,0.6,0.74,1.2,1.12,1.8c2.99,4.85,6.34,10.67,10.08,16.18c3.75,5.51,7.89,10.7,12.46,14.28
	l0,5.37l0,5.37c0,0.5-0.27,0.91-0.65,1.14c-0.38,0.22-0.87,0.26-1.3,0c-7.35-4.22-14.93-8.57-22.64-12.95
	c-7.71-4.38-15.54-8.81-23.4-13.19c-0.31-0.54-0.63-1.08-0.94-1.62c-0.31-0.54-0.62-1.08-0.92-1.62c-1.62-2.9-3.14-5.83-4.54-8.79
	s-2.69-5.96-3.86-9.01c-1.13-2.94-2.14-5.92-3.06-8.95s-1.73-6.1-2.44-9.21c0-0.01,0-0.05,0.01-0.09s0.03-0.09,0.06-0.11
	c0.04-0.02,0.09-0.03,0.14-0.02c0.05,0.01,0.08,0.02,0.09,0.02c0.94,1.14,1.88,2.29,2.8,3.43c0.92,1.14,1.81,2.26,2.67,3.34
	c2.73,3.39,5.74,7.58,9.3,10.81C222.31,455.66,226.42,457.93,231.32,457.49z M212.59,425.78c1.13,1.16,4.89,8.16,9.86,12.99
	s11.14,7.49,17.08-0.02c0.09-0.12,0.23-0.09,0.34,0c0.11,0.1,0.19,0.26,0.17,0.41c-0.28,2.19-4.67,7.25-10.25,7.58
	c-5.58,0.34-12.36-4.06-17.41-20.77c-0.02-0.06,0.01-0.13,0.06-0.17S212.54,425.74,212.59,425.78z M276.17,306.84
	c-3.23,6.66-5.63,12.84-7.24,18.59c-1.61,5.75-2.43,11.07-2.47,16.01c0,0.22-0.14,0.39-0.31,0.46c-0.17,0.07-0.39,0.04-0.54-0.13
	c-12.99-14.17-23.16-30.6-30.08-48.31c-6.92-17.71-10.59-36.7-10.59-56.01c0-3.35,0.09-6.68,0.26-9.98
	c0.17-3.29,0.43-6.55,0.76-9.77c5.44-3.4,11.01-6.6,16.71-9.59c5.7-2.99,11.52-5.77,17.46-8.31c0.31-0.13,0.63-0.05,0.85,0.14
	s0.33,0.51,0.23,0.83c-1.83,5.89-3.21,11.91-4.13,18.02c-0.92,6.12-1.39,12.34-1.39,18.65c0,12.15,1.77,24.09,5.21,35.53
	s8.54,22.37,15.21,32.49c0.13,0.2,0.21,0.43,0.22,0.67S276.27,306.62,276.17,306.84z M196.79,435.23c0.13,3.58,0.56,7.16,1.29,10.69
	s1.74,7.01,3.04,10.38c0.52,1.36,1.09,2.69,1.7,4.01c0.61,1.32,1.27,2.61,1.96,3.88c0.22,0.41,0.11,0.83-0.16,1.1
	c-0.27,0.27-0.7,0.38-1.1,0.15c-11.33-6.2-22.55-12.21-33.36-17.78s-21.2-10.7-30.85-15.15c-0.11-0.05-0.13-0.15-0.1-0.24
	c0.03-0.08,0.12-0.15,0.23-0.13c9.89,2.11,20.39,4.04,30.3,4.19c9.91,0.16,19.23-1.45,26.75-6.41c0.07-0.05,0.15-0.05,0.22-0.01
	s0.11,0.1,0.1,0.19c-0.04,0.85-0.06,1.7-0.06,2.56C196.75,433.52,196.76,434.38,196.79,435.23z M210.81,482.8
	c0.22,0.13,0.3,0.35,0.25,0.55s-0.21,0.38-0.46,0.41c-1.98,0.21-3.95,0.54-5.9,0.97c-1.95,0.43-3.88,0.97-5.77,1.61
	c-3.44,1.16-6.75,2.66-9.87,4.46c-3.13,1.8-6.07,3.88-8.77,6.21c-0.13,0.11-0.32,0.06-0.47-0.08s-0.28-0.36-0.28-0.59
	c-0.06-2.84-0.62-5.93-1.89-9.24c-1.27-3.31-3.26-6.85-6.18-10.61c-1.64-2.11-5.41-6.02-10.97-11.54s-12.92-12.64-21.73-21.16
	c-0.55-0.53-1.11-1.07-1.67-1.6c-0.56-0.54-1.12-1.08-1.69-1.62c-0.37-0.35-0.45-0.62-0.36-0.75s0.35-0.13,0.65,0.05
	c11.44,6.56,23.68,13.57,36.32,20.81C184.66,467.9,197.72,475.36,210.81,482.8z M184.22,502.53c2.83-1.63,5.69-3.13,8.6-4.47
	c2.91-1.34,5.87-2.52,8.88-3.54c3.01-1.01,6.08-1.86,9.2-2.55c3.12-0.69,6.29-1.22,9.52-1.61c0.44-0.06,0.89-0.1,1.34-0.15
	s0.9-0.09,1.35-0.13c0.15-0.01,0.29,0,0.43,0.03c0.14,0.03,0.28,0.08,0.41,0.15c6.26,3.55,12.5,7.09,18.68,10.58
	s12.29,6.93,18.29,10.31c0.16,0.09,0.36,0.76,0.27,1.31s-0.45,0.98-1.41,0.59c-3.94-1.6-6.44-2.56-8.31-2.8s-3.14,0.25-4.61,1.56
	c-1.06,0.95-1.79,2.16-2.17,3.48c-0.38,1.32-0.4,2.74-0.01,4.11c0.56,2.16,0.78,3.9,0.77,5.19c-0.01,1.29-0.26,2.13-0.63,2.5
	c-0.63,0.57-1.85,1.11-4.22,1.22c-2.37,0.1-5.88-0.24-11.11-1.45c-0.23-0.05-0.42-0.19-0.55-0.37c-0.13-0.18-0.19-0.41-0.17-0.64
	c0.3-3.22-0.11-5.94-0.88-8.2c-0.77-2.26-1.91-4.05-3.08-5.42c-3.19-3.81-7.94-6.42-14.63-7.89s-15.32-1.79-26.26-1.02
	c-0.19,0.01-0.24-0.11-0.18-0.28C183.8,502.87,183.97,502.67,184.22,502.53z M254.39,537.41c1.39-1.3,2.51-2.77,3.35-4.43
	c0.84-1.66,1.39-3.49,1.66-5.5c0.04-0.3,0.21-0.56,0.44-0.71c0.23-0.15,0.52-0.2,0.81-0.09c0.93,0.34,1.89,0.7,2.89,1.08
	s2.02,0.77,3.06,1.18c0.25,0.1,0.46,0.27,0.61,0.48c0.15,0.21,0.23,0.47,0.23,0.74c-0.04,3.47-0.2,7.42,0.23,11.11
	c0.42,3.69,1.43,7.13,3.72,9.55c2.26,2.4,6.85,3.56,11.08,4.1s8.12,0.47,8.99,0.42c0.18-0.01,0.26,0.06,0.25,0.14
	c-0.01,0.08-0.11,0.17-0.29,0.2c-3.36,0.53-6.76,1.05-10.18,1.58c-3.42,0.53-6.87,1.06-10.33,1.59c-0.09,0.01-0.19,0.02-0.28,0.02
	c-0.09,0-0.19,0-0.28-0.01c-1.79-0.2-3.56-0.42-5.31-0.65s-3.48-0.49-5.19-0.79c-3.02-0.51-5.98-1.14-8.88-1.91
	s-5.74-1.67-8.51-2.74c-2.77-1.06-5.48-2.28-8.14-3.65c-2.65-1.37-5.25-2.88-7.8-4.54c-1.34-0.86-2.66-1.77-3.97-2.7
	c-1.31-0.94-2.62-1.91-3.93-2.91c-0.09-0.07-0.1-0.18-0.06-0.26c0.04-0.08,0.14-0.14,0.25-0.11c7.25,2.15,14.21,3.64,20.33,3.71
	C245.25,542.35,250.52,540.98,254.39,537.41z M248.68,573.32c2.22-0.33,4.43-0.65,6.65-0.98c2.21-0.33,4.42-0.66,6.62-1
	c0.24-0.04,0.42,0.09,0.5,0.27s0.05,0.41-0.13,0.57c-1.99,1.7-3.79,3.59-5.41,5.61c-1.62,2.02-3.06,4.16-4.34,6.37
	c-1.5,2.6-2.77,5.31-3.83,8.09c-1.05,2.78-1.89,5.63-2.51,8.52c-0.13,0.64-0.26,1.29-0.37,1.93c-0.11,0.65-0.21,1.3-0.3,1.95
	c-0.05,0.38-0.32,0.64-0.64,0.72c-0.32,0.09-0.68,0.01-0.93-0.29c-1.69-2.01-3.55-3.78-5.61-5.15c-2.06-1.37-4.32-2.35-6.82-2.77
	c-3.98-0.68-7.76,0.06-11.54,1.89s-7.57,4.78-11.59,8.48c-0.17,0.16-0.26,0.14-0.28,0.05c-0.03-0.09,0-0.23,0.06-0.32
	c0.32-0.48,0.64-0.95,0.96-1.42s0.65-0.93,0.98-1.4c1.76-2.51,3.61-4.91,5.55-7.19s3.98-4.46,6.14-6.5c2.15-2.04,4.42-3.96,6.8-5.77
	c2.38-1.81,4.86-3.5,7.46-5.08c1.82-1.12,3.7-2.19,5.62-3.22c1.92-1.03,3.9-2.04,5.92-3.04c0.16-0.08,0.34-0.15,0.51-0.21
	C248.32,573.39,248.5,573.35,248.68,573.32z M252.99,602.2c1.11-2.37,2.24-4.7,3.42-6.99c1.17-2.29,2.39-4.54,3.66-6.74
	c1.34-2.3,2.72-4.56,4.2-6.73s3.05-4.27,4.76-6.25c0.89-1.03,1.81-2.02,2.78-2.98s1.99-1.88,3.06-2.77c0.19-0.16,0.4-0.29,0.63-0.39
	s0.47-0.17,0.71-0.21c3.95-0.62,7.86-1.24,11.71-1.86c3.85-0.62,7.64-1.24,11.35-1.85c0.13-0.02,0.21,0.05,0.25,0.14
	s0,0.21-0.1,0.27c-0.63,0.39-1.24,0.8-1.84,1.25c-0.6,0.44-1.17,0.91-1.74,1.41c-0.05,0.04-0.1,0.08-0.15,0.12s-0.1,0.07-0.16,0.11
	c-7.58,4.7-15.07,9.9-22.17,15.56s-13.79,11.77-19.78,18.3c-0.53-0.36-0.41-0.28-0.29-0.19C253.4,602.48,253.52,602.56,252.99,602.2
	z M271.63,631.44c1.44-0.61,3-0.59,4.35-0.05c1.35,0.54,2.49,1.59,3.11,3.03c0.62,1.46,0.59,3.01,0.05,4.36
	c-0.54,1.34-1.6,2.48-3.04,3.09c-1.46,0.61-3.02,0.59-4.36,0.05s-2.48-1.59-3.09-3.03c-0.62-1.46-0.59-3.01-0.05-4.36
	C269.13,633.19,270.18,632.06,271.63,631.44z M271.8,604.2c2.44-2.27,4.96-4.48,7.55-6.63c2.59-2.14,5.24-4.22,7.93-6.22
	c0.1-0.07,0.21-0.08,0.31-0.04s0.17,0.13,0.19,0.25c0.58,3.48,1.86,6.73,3.74,9.6c1.88,2.87,4.35,5.35,7.31,7.29
	c0.2,0.13,0.32,0.34,0.34,0.55s-0.05,0.44-0.22,0.6c-0.42,0.4-0.84,0.81-1.26,1.21s-0.83,0.8-1.24,1.21
	c-0.13,0.13-0.3,0.19-0.48,0.19c-0.17,0-0.34-0.08-0.47-0.21c-3-3.16-6.71-5.41-10.74-6.66c-4.03-1.25-8.39-1.49-12.67-0.61
	c-0.16,0.03-0.29-0.05-0.35-0.16C271.67,604.46,271.68,604.31,271.8,604.2z M298.07,592.7c-0.62-1.42-0.58-2.98-0.04-4.33
	c0.55-1.35,1.6-2.5,3.02-3.12c1.46-0.61,3.02-0.59,4.37-0.04c1.35,0.54,2.48,1.61,3.08,3.06c0.62,1.44,0.59,2.99,0.05,4.33
	c-0.54,1.34-1.58,2.47-3.01,3.09c-1.46,0.61-3.02,0.59-4.38,0.05S298.69,594.14,298.07,592.7z M308.3,364.05
	c-2.8,0.21-5.52,0.29-8.25,0.26s-5.45-0.16-8.25-0.37c-0.79-0.77-1.36-1.53-1.79-2.24c-0.43-0.71-0.71-1.37-0.92-1.95
	c-1.3-3.66-0.81-8.58,0.82-14.33c1.63-5.75,4.41-12.32,7.68-19.27c0.05-0.11,0.16-0.17,0.26-0.17c0.11,0,0.21,0.05,0.27,0.16
	c0.46,0.89,0.93,1.77,1.39,2.64c0.46,0.87,0.93,1.75,1.39,2.62c4.4,8.2,7.57,14.64,8.98,19.89
	C311.31,356.55,310.96,360.61,308.3,364.05z M310.24,326.4c-1.34-2.48-2.69-5.01-3.96-7.52c-1.27-2.52-2.44-5.02-3.43-7.44
	l-1.83-4.52l-1.83-4.52c-0.14-0.35-0.46-0.54-0.78-0.55c-0.32-0.01-0.65,0.15-0.82,0.49l-2.18,4.36l-2.18,4.36
	c-3.72,7.44-7.06,14.1-9.66,20.26c-2.6,6.16-4.45,11.83-5.21,17.26c0,0.03-0.01,0.1-0.02,0.14c-0.01,0.05-0.01,0.08,0,0.05
	c-0.08,0.34-0.17,0.5-0.25,0.54c-0.08,0.04-0.14-0.04-0.17-0.17c-0.01-0.04-0.02-0.08-0.03-0.12c-0.01-0.04-0.02-0.08-0.03-0.12
	c-1.57-6.64-0.68-14.88,2.64-24.66s9.08-21.12,17.25-33.94c0.21-0.33,0.56-0.5,0.91-0.49c0.35,0,0.7,0.18,0.9,0.52l0.65,1.09
	l0.65,1.09c0.63,1.07,0.73,1.24,0.85,1.43c0.11,0.19,0.24,0.4,0.93,1.54c6.27,10.56,11.8,20.43,15.32,29.55
	c3.52,9.12,5.02,17.48,3.24,25.03c-0.05,0.2-0.21,0.3-0.37,0.3c-0.16,0-0.32-0.1-0.37-0.3c-0.91-4.01-2.46-8.07-4.28-12.05
	C314.33,334.02,312.24,330.11,310.24,326.4z M316.56,381.13c0.02-0.23,0.18-0.36,0.37-0.38s0.38,0.07,0.44,0.28
	c4.54,14.67,6.08,26.24,6.53,36.41c0.46,10.17-0.17,18.93,0.05,27.97c0.22,8.19,1.28,16.64,1.85,26.26s0.65,20.4-1.1,33.29
	c-0.08,0.59-0.51,0.96-0.99,1.05s-1.02-0.09-1.3-0.61c-3.33-6.13-4.66-14.58-5.26-23.14c-0.59-8.56-0.45-17.22-0.84-23.77
	c-0.65-11.11-1.18-21.9-1.25-34.18C315,412.02,315.38,398.24,316.56,381.13z M322.87,611.61c0.07-0.16,0.22-0.24,0.37-0.23
	s0.29,0.1,0.34,0.27c1.08,3.59,2.49,7.18,4.24,10.66c1.75,3.47,3.84,6.83,6.3,9.95c-0.45,0.92-0.83,1.8-1.15,2.68
	c-0.32,0.89-0.58,1.79-0.8,2.76c-0.04,0.15-0.15,0.26-0.28,0.29c-0.13,0.04-0.28,0-0.39-0.11c-2.01-2.13-4.25-3.82-6.71-5.09
	c-2.46-1.27-5.14-2.12-8.04-2.58c0.69-3.06,1.55-6.15,2.58-9.25S321.55,614.73,322.87,611.61z M332.89,571.35
	c-0.04,0.07-0.11,0.1-0.19,0.11c-0.07,0-0.14-0.03-0.2-0.09c-0.56-0.7-1.17-1.36-1.81-2c-0.64-0.63-1.32-1.24-2.03-1.8
	c-0.09-0.07-0.12-0.17-0.11-0.27c0.01-0.1,0.07-0.19,0.17-0.24c1.64-0.76,3.26-1.47,4.86-2.16c1.6-0.68,3.16-1.34,4.7-1.96
	c0.06-0.02,0.11-0.01,0.14,0.02c0.03,0.03,0.04,0.07,0.01,0.12c-0.92,1.35-1.86,2.72-2.78,4.1
	C334.72,568.56,333.8,569.95,332.89,571.35z M345.86,568.79c0,0.94-0.15,2.44-0.36,3.98c-0.21,1.54-0.48,3.12-0.72,4.21
	c-0.11,0.16-0.21,0.3-0.31,0.45c-0.1,0.15-0.2,0.29-0.31,0.45c-1.17,0.8-2.25,1.69-3.25,2.67c-1,0.98-1.92,2.04-2.74,3.18
	c-0.04,0.05-0.22,0.05-0.39,0.02c-0.17-0.03-0.33-0.08-0.33-0.13c0.01-1.86,2.12-6.04,4.22-9.52
	C343.77,570.61,345.86,567.83,345.86,568.79z M332.58,605.33c-0.01-0.13-0.15-0.9-0.15-1.93c0-1.03,0.14-2.3,0.69-3.42
	c0.05-0.11,0.16-0.19,0.26-0.21c0.1-0.02,0.18,0.01,0.2,0.12c0.16,1.22,0.37,2.92,0.63,4.55c0.27,1.64,0.6,3.22,1.02,4.2
	c1.04,2.46,2.45,4.71,4.17,6.68s3.74,3.66,6,5.01c0.08,0.05,0.12,0.13,0.12,0.21c0,0.08-0.05,0.16-0.13,0.2
	c-0.81,0.42-1.59,0.86-2.35,1.34c-0.76,0.48-1.49,1-2.19,1.55c-2.13-3.02-4.09-5.43-5.57-8.16
	C333.81,612.74,332.81,609.68,332.58,605.33z M337.24,524.73c-0.15-0.18-0.26-0.39-0.34-0.6c-0.08-0.22-0.12-0.45-0.12-0.68v-32.73
	v-32.73c0-0.28,0.12-0.53,0.31-0.69s0.45-0.25,0.73-0.21c1.05,0.17,2.39,0.31,3.6,0.28s2.3-0.23,2.84-0.75
	c0.68-0.66,1.32-1.58,1.86-2.61c0.54-1.02,0.98-2.14,1.27-3.2c0.02-0.07,0.08-0.11,0.14-0.1s0.11,0.05,0.11,0.13
	c0,4.76,0,22.8,0,41.17c0,18.37,0,37.08,0,43.17c0,0.35-0.22,0.61-0.5,0.72c-0.28,0.1-0.61,0.05-0.84-0.22
	c-1.45-1.7-2.94-3.47-4.46-5.3C340.35,528.55,338.8,526.66,337.24,524.73z M347.13,430.58c-0.6-3.09-1.33-6.23-2.08-9.36
	c-0.75-3.14-1.53-6.28-2.21-9.39c-0.4-1.77-0.8-3.52-1.18-5.25c-0.38-1.73-0.75-3.44-1.08-5.12c-0.01-0.03,0.01-0.06,0.03-0.08
	c0.02-0.02,0.05-0.03,0.08-0.02c1.15,0.27,2.29,0.53,3.42,0.77c1.13,0.24,2.27,0.47,3.4,0.68c0.05,0.01,0.08,0.03,0.11,0.07
	c0.03,0.03,0.04,0.08,0.04,0.12v13.77v13.77c0,0.16-0.12,0.25-0.24,0.26C347.29,430.8,347.16,430.73,347.13,430.58z M338.65,386.32
	c0-2.37,0.68-5.09,1.2-7.75s0.89-5.26,0.28-7.39c-0.89-3.1-2.47-5.15-4.52-6.48c-2.05-1.32-4.57-1.91-7.34-2.09
	c-0.19-0.01-0.33-0.12-0.41-0.26c-0.08-0.14-0.09-0.32,0-0.48c0.78-1.42,1.45-2.86,2.02-4.31c0.57-1.45,1.03-2.92,1.4-4.41
	c0.11-0.43,0.39-0.76,0.76-0.95c0.36-0.19,0.8-0.23,1.22-0.07c2.2,0.82,4.63,1.57,6.98,2.31c2.35,0.74,4.63,1.48,6.52,2.29
	c0.27,0.11,0.48,0.31,0.63,0.54c0.15,0.23,0.23,0.51,0.23,0.8c-0.03,5.06-0.02,10.12,0,15.19s0.04,10.13,0.04,15.19
	c-1.49-0.32-2.99-0.65-4.49-1.01C341.67,387.1,340.17,386.73,338.65,386.32z M317.94,126.84c0.75,2.55,0.96,5.53,0.94,8.57
	s-0.25,6.13-0.37,8.9c-0.03,0.79-0.34,1.51-0.84,2.07s-1.18,0.94-1.96,1.06c-8.62,1.31-17.15,3-25.55,5.07s-16.7,4.53-24.86,7.36
	c-0.7,0.24-1.07,0.32-1.11,0.24c-0.03-0.08,0.27-0.31,0.91-0.68c10.35-5.92,20.14-12.33,28.62-18.26s15.65-11.4,20.76-15.43
	c0.61-0.48,1.37-0.58,2.03-0.37C317.15,125.58,317.72,126.09,317.94,126.84z M213.21,36c4.92-9.6,17.56-15.6,33.11-11.06
	s34.04,19.62,50.64,52.16c0.28,0.55,0.22,1.15-0.06,1.62c-0.28,0.47-0.78,0.81-1.39,0.83c-36.6,1.25-59.44-5.22-71.99-14.2
	C210.97,56.36,208.7,44.85,213.21,36z M209.08,229.23c0.39-0.29,0.86-0.29,1.23-0.09c0.37,0.2,0.63,0.59,0.61,1.08
	c-0.05,1.2-0.08,2.41-0.1,3.61s-0.03,2.41-0.03,3.62c0,23.38,4.94,46.33,14.18,67.42c9.24,21.09,22.78,40.3,39.98,56.2
	c0.25,0.24,0.5,0.47,0.76,0.7c0.26,0.23,0.52,0.46,0.78,0.69c0.09,0.08,0.14,0.21,0.15,0.32s-0.03,0.21-0.11,0.22
	c-1.96,0.32-3.74,0.81-5.31,1.56c-1.57,0.75-2.92,1.76-4.04,3.11c-1.37,1.67-2.2,3.64-2.48,5.91c-0.28,2.27-0.02,4.83,0.79,7.68
	c0.12,0.41,0.22,0.82,0.32,1.21c0.1,0.4,0.19,0.79,0.27,1.17c0.05,0.25-0.02,0.43-0.15,0.5c-0.13,0.07-0.32,0.03-0.5-0.15
	c-0.25-0.26-0.51-0.5-0.8-0.72s-0.59-0.43-0.9-0.62c-2.09-1.25-4.49-1.53-6.68-0.97c-2.19,0.55-4.17,1.94-5.42,4.03
	c-0.85,1.41-1.67,2.8-2.46,4.18c-0.79,1.38-1.54,2.74-2.27,4.1c-0.08,0.15-0.22,0.23-0.37,0.23c-0.15,0.01-0.3-0.06-0.4-0.19
	c-1.48-2.02-0.42-4.72,1.46-7.19c1.88-2.46,4.58-4.68,6.4-5.7c2.13-1.18,3.57-3.11,4.18-5.28c0.61-2.17,0.39-4.58-0.8-6.7
	c-1.2-2.13-3.14-3.57-5.31-4.18c-2.18-0.61-4.58-0.39-6.71,0.8c-2.7,1.51-5.12,3.38-7.28,5.53c-2.16,2.15-4.06,4.56-5.74,7.17
	c-0.09,0.14-0.24,0.21-0.38,0.2c-0.14-0.01-0.29-0.08-0.38-0.23c-1.68-2.77-0.01-6.73,2.65-10.31c2.66-3.58,6.3-6.78,8.56-8.06
	c2.13-1.18,3.57-3.11,4.18-5.28c0.61-2.17,0.39-4.58-0.8-6.7c-1.18-2.13-3.11-3.57-5.28-4.18c-2.17-0.61-4.58-0.4-6.71,0.77
	c-2.67,1.49-5.06,3.27-7.21,5.28c-2.15,2-4.06,4.23-5.75,6.59c-0.09,0.13-0.24,0.16-0.37,0.12c-0.12-0.04-0.22-0.16-0.22-0.32
	c0.06-1.4,0.17-2.75,0.33-4.05c0.16-1.29,0.35-2.53,0.59-3.72c0.51-2.39,0.01-4.75-1.22-6.64c-1.23-1.89-3.18-3.32-5.57-3.82
	c-1.52-0.32-3.01-0.22-4.39,0.2s-2.63,1.18-3.65,2.19c-0.08,0.08-0.2,0.12-0.3,0.1c-0.1-0.01-0.2-0.08-0.25-0.18
	c-6.24-12.16-11.26-24.93-14.97-38.16c-3.71-13.23-6.1-26.9-7.09-40.87c-0.02-0.25,0.02-0.49,0.1-0.72
	c0.08-0.23,0.21-0.44,0.37-0.62c5.26-5.65,10.78-11.07,16.54-16.22S202.85,233.84,209.08,229.23z M161.55,277.22
	c2.15,15.44,5.91,30.46,11.17,44.87c5.26,14.41,12.03,28.21,20.22,41.18c0.02,0.05,0.03,0.1,0.05,0.15c0.02,0.05,0.03,0.1,0.05,0.15
	c0.03,0.59,0.05,1.2,0.08,1.82c0.03,0.62,0.06,1.24,0.1,1.86c0.01,0.15-0.07,0.23-0.17,0.23c-0.1,0.01-0.22-0.06-0.31-0.21
	c-0.87-1.42-1.72-2.93-2.55-4.49c-0.83-1.56-1.64-3.18-2.44-4.82c-1.04-2.2-2.87-3.76-5-4.51c-2.13-0.75-4.55-0.69-6.74,0.36
	c-2.2,1.05-3.76,2.9-4.51,5.02c-0.75,2.13-0.69,4.53,0.36,6.71c2.21,4.65,4.58,8.93,7.11,12.82c2.53,3.9,5.22,7.41,8.05,10.54
	c0.09,0.09,0.07,0.21,0,0.29c-0.07,0.07-0.18,0.11-0.28,0.03c-2.2-1.61-4.36-3.37-6.43-5.25c-2.07-1.88-4.07-3.88-5.95-6
	c-1.62-1.81-3.82-2.79-6.08-2.92c-2.26-0.12-4.56,0.61-6.37,2.25c-1.81,1.62-2.8,3.82-2.92,6.07c-0.12,2.25,0.62,4.55,2.25,6.36
	c0.3,0.35,0.6,0.69,0.91,1.03c0.31,0.34,0.62,0.67,0.94,1c0.08,0.09,0.09,0.21,0.05,0.3s-0.14,0.16-0.26,0.14
	c-1.64-0.25-3.32-0.02-4.83,0.64c-1.51,0.66-2.86,1.76-3.83,3.24c-1.34,2.02-1.72,4.4-1.27,6.61s1.76,4.25,3.8,5.58
	c0.09,0.05,3.1,1.89,7.49,4.37c4.39,2.48,10.16,5.6,15.76,8.21c0.13,0.06,0.19,0.19,0.17,0.31s-0.1,0.23-0.24,0.26
	c-6.26,1.22-13.71,0.87-21.41-0.18s-15.69-2.82-23.02-4.43c-5.49-1.21-10.64-2.35-15.35-3.14c-4.71-0.79-8.97-1.22-12.68-1.01
	c1.93-25.49,7.67-49.92,16.66-72.75s21.2-44.04,36.08-63.1c0.2-0.26,0.52-0.34,0.79-0.26C161.27,276.67,161.5,276.89,161.55,277.22z
	 M146.29,567.55c-12.5-19.57-22.38-40.95-29.14-63.66s-10.4-46.75-10.42-71.62c2.23,2.27,5.08,5.08,8.73,8.62
	c3.64,3.55,8.08,7.83,13.5,13.05c6.35,6.11,13.47,12.98,19.36,18.78s10.55,10.53,11.97,12.38c7.19,9.29,5.53,14.49,2.78,18.62
	c-2.75,4.13-6.58,7.18-3.73,12.19c0.7,1.26,1.77,2.24,3.01,2.85c1.24,0.61,2.67,0.86,4.09,0.66c1.64-0.25,6.15-0.88,11.79-1.43
	s12.42-1.01,18.59-0.93c4.05,0.05,7.85,0.35,10.9,1.02c3.05,0.68,5.34,1.73,6.4,3.29c0.11,0.17,0.06,0.37-0.06,0.51
	s-0.32,0.23-0.5,0.16c-0.96-0.35-1.94-0.72-2.91-1.05s-1.95-0.64-2.92-0.88c-2.83-0.72-5.24,0.15-6.8,1.89
	c-1.56,1.74-2.27,4.35-1.71,7.1c0.64,3.11,0.94,5.51,1.05,7.34c0.11,1.83,0.03,3.09-0.1,3.94c-0.02,0.14-0.14,0.31-0.28,0.45
	c-0.14,0.14-0.3,0.25-0.38,0.25c0,0-1.59-0.34-3.63-0.81s-4.53-1.05-6.32-1.55c-3.9-1.09-8.05-2.24-12.16-3.11s-8.17-1.46-11.9-1.42
	c-1.42,0.02-2.78,0.47-3.91,1.24c-1.13,0.77-2.04,1.87-2.56,3.19c-0.53,1.32-0.64,2.73-0.37,4.07s0.93,2.59,1.95,3.59
	c6.54,6.43,9.23,9.66,8.41,11.89c-0.82,2.23-5.14,3.45-12.63,5.85c-1.65,0.51-3.35,1.05-5.05,1.62S147.94,566.86,146.29,567.55z
	 M167.37,575.16c4.73-1.81,9.42-4.16,12.64-7.22s5-6.82,3.9-11.45c-0.02-0.07,0.01-0.13,0.06-0.15c0.05-0.02,0.11-0.01,0.17,0.05
	c2.41,2.37,5.09,4.51,7.97,6.35s5.95,3.41,9.16,4.63c0.64,0.24,1.28,0.48,1.93,0.69c0.65,0.22,1.3,0.42,1.95,0.61
	c0.15,0.04,0.22,0.13,0.21,0.21c-0.01,0.08-0.09,0.16-0.25,0.19c-6.63,1.09-13.13,2.18-19.41,3.28c-6.29,1.1-12.37,2.21-18.17,3.33
	c-0.17,0.03-0.29-0.07-0.33-0.2C167.16,575.37,167.21,575.22,167.37,575.16z M189,618.32c-3.18-2.92-6.23-5.86-9.21-8.88
	c-2.98-3.02-5.88-6.11-8.76-9.33c-0.04-0.04,0.05-0.07,0.14-0.09c0.09-0.02,0.2-0.03,0.2-0.03l0.43,0.21l0.43,0.21
	c4.6,2.14,8.11,4.31,10.87,7.07c2.76,2.76,4.76,6.1,6.34,10.56c0.04,0.13-0.01,0.24-0.11,0.3C189.23,618.4,189.1,618.41,189,618.32z
	 M170.36,584.16c-0.2-0.08-0.29-0.27-0.27-0.44c0.02-0.17,0.15-0.33,0.37-0.36c8.58-0.88,17.76-1.92,27.32-3.1
	s19.48-2.49,29.53-3.88c-2.07,1.08-4.08,2.3-5.99,3.66s-3.73,2.85-5.43,4.48c-2.49,2.36-4.72,4.98-6.67,7.78
	c-1.95,2.8-3.61,5.77-4.97,8.84c-0.56,1.29-1.08,2.6-1.54,3.92c-0.46,1.32-0.87,2.66-1.22,4.01c-0.03,0.12-0.13,0.19-0.23,0.2
	c-0.1,0.01-0.21-0.04-0.26-0.15c-3.16-6.63-7.7-11.65-13.01-15.61C182.69,589.53,176.61,586.6,170.36,584.16z M299.73,677.49
	c-17.51-4.27-34.31-10.36-50.18-18.07s-30.84-17.02-44.65-27.74c-0.07-0.05-0.11-0.13-0.12-0.21c-0.01-0.08,0.02-0.16,0.08-0.23
	c2.19-2.32,6.97-7.59,11.85-12.16s9.87-8.46,12.48-8.01c0.67,0.11,1.93,0.63,3.74,2.73c1.81,2.1,4.18,5.77,7.06,12.16
	c1.05,2.31,3.08,3.7,5.27,4.06c2.19,0.37,4.55-0.29,6.23-2.07c0.07-0.08,0.17-0.09,0.24-0.06c0.08,0.03,0.13,0.11,0.13,0.21
	c-0.53,9.41,3.99,17.43,10.79,22.17c6.8,4.74,15.89,6.21,24.51,2.52c0.16-0.07,0.33-0.04,0.45,0.05s0.2,0.24,0.19,0.41
	c-0.41,4.82,0.58,9.52,2.7,13.63c2.12,4.11,5.36,7.62,9.45,10.06c0.15,0.09,0.17,0.24,0.12,0.37
	C300.02,677.44,299.9,677.54,299.73,677.49z M302.74,632.17c-0.08,0.04-0.16,0.02-0.22-0.02s-0.1-0.12-0.09-0.2
	c0.14-1.58,0.14-3.18-0.01-4.75c-0.15-1.58-0.44-3.14-0.88-4.64c-0.04-0.14-0.04-0.28-0.01-0.41c0.03-0.13,0.1-0.26,0.2-0.36
	c1.11-1.15,2.27-2.31,3.45-3.47c1.18-1.16,2.39-2.32,3.6-3.48c0.28-0.27,0.64-0.26,0.91-0.09c0.26,0.17,0.43,0.49,0.3,0.86
	c-0.91,2.6-1.72,5.19-2.43,7.76c-0.71,2.58-1.32,5.15-1.82,7.71c-0.5,0.16-1.01,0.33-1.52,0.51
	C303.72,631.75,303.22,631.95,302.74,632.17z M310.2,664.53c-0.6-1.44-0.57-3-0.03-4.35c0.54-1.35,1.6-2.48,3.06-3.06
	c1.44-0.63,3-0.61,4.35-0.08c1.35,0.54,2.49,1.59,3.11,3.03c0.62,1.44,0.59,2.99,0.04,4.35s-1.61,2.5-3.07,3.14
	c-1.42,0.6-2.97,0.55-4.32,0C311.99,667.01,310.84,665.96,310.2,664.53z M360,684.73c-7.6,0-15.12-0.34-22.55-1
	c-7.43-0.66-14.77-1.64-22-2.91c-0.22-0.04-0.2-0.12-0.03-0.2s0.47-0.17,0.81-0.21c5.04-0.64,9.72-2.77,13.47-6.02
	c3.75-3.24,6.58-7.59,7.91-12.65c0.09-0.33,0.34-0.55,0.63-0.64s0.62-0.02,0.86,0.22c1.17,1.16,2.46,2.21,3.84,3.12
	c1.38,0.91,2.87,1.7,4.46,2.33c3.16,1.26,6.47,1.88,9.77,1.84s6.58-0.72,9.71-2.05c3.11-1.32,5.87-3.21,8.17-5.55
	c2.3-2.34,4.14-5.13,5.4-8.26c1.28-3.14,1.9-6.45,1.86-9.74s-0.72-6.58-2.04-9.69c-1.07-2.48-2.49-4.7-4.18-6.63
	c-1.68-1.93-3.63-3.57-5.76-4.91c-0.13-0.08-0.2-0.22-0.19-0.35c0.01-0.13,0.08-0.26,0.22-0.34c2.68-1.39,5.05-3.22,7.05-5.4
	s3.61-4.73,4.76-7.55c0.62-1.55,1.08-3.14,1.38-4.75c0.3-1.61,0.44-3.23,0.42-4.85c0-0.35,0.1-0.68,0.29-0.96
	c0.19-0.27,0.46-0.49,0.79-0.61c2.73-0.98,5.3-3.54,7.47-6.61c2.16-3.08,3.92-6.68,5-9.73c0.07-0.21,0.26-0.27,0.43-0.24
	s0.31,0.19,0.28,0.41c-0.41,3.62-1.36,7.45-3.02,11.08c-1.66,3.63-4.02,7.06-7.23,9.86c-1.83,1.6-2.84,3.78-2.99,6.03
	c-0.15,2.25,0.56,4.56,2.18,6.4c1.6,1.83,3.79,2.84,6.04,2.99s4.56-0.55,6.41-2.15c3.2-2.81,5.84-5.91,8.01-9.18
	c2.17-3.27,3.85-6.7,5.13-10.16c0.05-0.15,0.19-0.19,0.3-0.16s0.21,0.14,0.18,0.29c-0.88,4.47-2.37,9.37-4.49,13.9
	s-4.86,8.67-8.24,11.63c-1.83,1.6-2.84,3.79-2.99,6.05c-0.15,2.25,0.56,4.56,2.18,6.39c1.6,1.83,3.79,2.84,6.04,2.99
	s4.55-0.56,6.38-2.18c1.39-1.2,2.7-2.5,3.92-3.89c1.23-1.39,2.38-2.87,3.44-4.41c0.12-0.18,0.27-0.2,0.35-0.12
	c0.09,0.08,0.12,0.26,0.02,0.46c-0.86,1.77-1.89,3.4-3.04,4.88s-2.42,2.82-3.74,3.98c-1.85,1.62-2.86,3.81-3.01,6.06
	s0.56,4.55,2.16,6.38c1.62,1.84,3.82,2.85,6.07,3c2.25,0.15,4.55-0.56,6.38-2.16c1.21-1.06,2.34-2.21,3.41-3.41s2.08-2.48,3.02-3.81
	c0.1-0.14,0.22-0.15,0.31-0.08c0.08,0.07,0.12,0.22,0.04,0.38c-0.97,2.09-2.13,4.12-3.43,6.1c-1.3,1.98-2.74,3.9-4.27,5.78
	c-1.53,1.88-2.16,4.21-1.94,6.45c0.22,2.24,1.29,4.4,3.17,5.95c0.83,0.67,1.73,1.17,2.68,1.5c0.95,0.33,1.93,0.5,2.91,0.5
	c1.28,0,2.56-0.28,3.73-0.83c1.17-0.55,2.23-1.37,3.09-2.44c1.24-1.49,2.43-3.08,3.57-4.76s2.23-3.44,3.27-5.25
	c0.06-0.1,0.16-0.13,0.25-0.11c0.09,0.02,0.17,0.1,0.17,0.21c0.03,0.94,0.04,1.87,0.04,2.8c-0.01,0.93-0.03,1.85-0.1,2.75
	c-0.1,1.55,0.22,3.03,0.85,4.34c0.63,1.31,1.58,2.44,2.76,3.3c0.14,0.11,0.2,0.27,0.17,0.43c-0.02,0.16-0.13,0.3-0.29,0.36
	c-13.72,5.1-28,9.04-42.72,11.71C390.65,683.34,375.49,684.73,360,684.73z M427.01,568.16l-0.05-0.16l-0.05-0.16l0.19,0.06
	l0.19,0.06c5.27-1.08,15.85,9.26,24.15,22.83c8.3,13.57,14.34,30.36,10.53,42.19c-0.06,0.2-0.11,0.28-0.15,0.26
	c-0.04-0.02-0.08-0.15-0.13-0.37c-0.31-1.45-1.85-6.45-4.37-12.99c-2.51-6.54-6-14.62-10.2-22.25c-4.31-7.83-9.34-15.19-13.29-20.6
	C429.88,571.6,427.01,568.16,427.01,568.16z M462.07,662.82c0.04-0.2,0.07-0.4,0.1-0.6c0.03-0.21,0.05-0.42,0.06-0.63
	c0.06-0.88,0.1-1.76,0.12-2.64s0.03-1.76,0.03-2.64c0-0.13,0.08-0.22,0.18-0.24c0.1-0.03,0.21,0,0.28,0.11
	c0.55,0.93,1.26,1.74,2.09,2.41c0.83,0.67,1.78,1.18,2.81,1.51c0.14,0.04,0.21,0.16,0.21,0.29c0.01,0.12-0.06,0.25-0.19,0.32
	c-0.86,0.41-1.73,0.81-2.6,1.2c-0.87,0.39-1.74,0.78-2.62,1.17c-0.1,0.04-0.23,0.02-0.33-0.03
	C462.12,662.99,462.05,662.91,462.07,662.82z M531.54,608.05c0.81,0.67,1.71,1.17,2.66,1.5c0.95,0.33,1.93,0.5,2.9,0.5
	c0.4,0,0.79-0.03,1.17-0.08s0.76-0.13,1.13-0.23c0.12-0.03,0.23-0.01,0.29,0.03c0.06,0.04,0.07,0.11,0,0.18
	c-8.86,8.89-18.37,17.14-28.46,24.65c-10.09,7.51-20.75,14.3-31.93,20.28c-0.14,0.07-0.29,0.05-0.4-0.04
	c-0.11-0.08-0.16-0.22-0.12-0.37c0.83-2.72,0.47-6.6-0.39-10.46c-0.86-3.86-2.2-7.68-3.32-10.28c-0.05-0.11-0.01-0.21,0.07-0.27
	c0.07-0.06,0.18-0.07,0.27-0.01c1.32,0.95,2.87,1.52,4.48,1.65c1.61,0.13,3.28-0.18,4.82-1c2.15-1.14,3.63-3.05,4.29-5.2
	c0.66-2.16,0.51-4.56-0.64-6.7c-1.24-2.34-2.69-4.54-4.31-6.59c-1.62-2.05-3.4-3.96-5.3-5.73c-0.12-0.11-0.14-0.25-0.1-0.38
	s0.15-0.23,0.31-0.26c1.1-0.19,2.16-0.58,3.12-1.17c0.96-0.58,1.82-1.36,2.53-2.32c1.44-1.97,1.95-4.33,1.6-6.56
	s-1.55-4.33-3.54-5.77c-3.36-2.45-7.27-4.72-11.47-6.7c-4.2-1.98-8.69-3.68-13.22-4.99c-0.12-0.03-0.17-0.14-0.16-0.23
	c0.01-0.09,0.08-0.18,0.2-0.19c1.75-0.05,3.49,0.01,5.31,0.2c1.82,0.19,3.72,0.52,5.8,0.98c2.39,0.53,4.31,0.72,5.82,0.21
	c1.51-0.51,2.62-1.73,3.39-4.04c0.76-2.32,0.51-4.72-0.5-6.74c-1.01-2.02-2.79-3.65-5.09-4.43c-2.23-0.75-4.89-1.37-7.82-1.95
	c-2.93-0.58-6.12-1.11-9.4-1.69c-0.27-0.05-0.37-0.25-0.34-0.44c0.03-0.19,0.2-0.36,0.47-0.35c1.13,0.05,2.27,0.12,3.42,0.2
	c1.15,0.08,2.31,0.18,3.47,0.29c1.34,0.12,2.64-0.05,3.83-0.48c1.19-0.43,2.27-1.1,3.17-1.98c1.81,0.93,3.76,1.14,5.6,0.71
	c1.84-0.43,3.56-1.5,4.91-3.14c0.85-1.06,1.77-2.23,2.73-3.39s1.98-2.32,3.03-3.35c0.18-0.18,0.43-0.18,0.6-0.08
	c0.17,0.1,0.26,0.29,0.13,0.49c-0.84,1.28-1.83,2.52-2.82,3.71c-1,1.19-2.01,2.35-2.91,3.46c-1.55,1.88-2.18,4.21-1.96,6.45
	c0.22,2.24,1.31,4.4,3.19,5.95c1.88,1.55,4.21,2.18,6.46,1.95c2.25-0.22,4.41-1.3,5.96-3.18c1.96-2.39,4.2-5.53,6.45-9.04
	c2.25-3.52,4.52-7.41,6.56-11.31c0.08-0.16,0.46-0.35,0.76-0.32s0.53,0.26,0.32,0.94c-0.84,2.72-1.79,5.82-3.11,8.95
	c-1.32,3.13-3.01,6.29-5.35,9.14c-1.55,1.88-2.78,4.07-3.15,6.18c-0.38,2.11,0.11,4.14,1.99,5.68s4.41,1.85,6.85,1.3
	c2.44-0.55,4.79-1.96,6.32-3.84c2.21-2.7,4.12-5.69,5.87-8.82c1.75-3.13,3.34-6.4,4.9-9.64c0.13-0.26,0.38-0.34,0.6-0.27
	c0.22,0.06,0.4,0.26,0.38,0.55c-0.25,3.33-1.23,7.24-3,11.35c-1.77,4.12-4.33,8.44-7.72,12.6c-1.55,1.9-2.17,4.23-1.94,6.48
	s1.32,4.4,3.2,5.92c1.88,1.55,4.21,2.18,6.46,1.95s4.41-1.32,5.96-3.21c3.4-4.18,6.26-8.59,8.52-13.06
	c2.26-4.47,3.94-8.99,4.98-13.39c0.05-0.2,0.21-0.29,0.37-0.27c0.16,0.01,0.31,0.12,0.32,0.33c0.22,3.39-0.52,7.69-2.29,12.34
	c-1.77,4.65-4.58,9.64-8.49,14.41c-1.53,1.88-2.16,4.21-1.94,6.45S529.64,606.5,531.54,608.05z M549.69,598.74
	c1.23-1.97,2.34-3.98,3.33-5.99c0.99-2.01,1.85-4.04,2.58-6.05c0.05-0.12,0.15-0.19,0.26-0.19c0.11,0,0.22,0.06,0.27,0.18
	c0.24,0.56,0.48,1.11,0.71,1.67s0.45,1.11,0.65,1.67c-1.22,1.52-2.45,3.03-3.7,4.51s-2.52,2.96-3.81,4.42
	c-0.07,0.08-0.17,0.08-0.24,0.02C549.67,598.93,549.63,598.84,549.69,598.74z M529.92,528.34c-0.26-0.06-0.36-0.16-0.33-0.25
	s0.2-0.17,0.47-0.19c12.37-0.82,22.81,5.97,29.46,14.82s9.51,19.76,6.73,27.17c-0.09,0.24-0.16,0.38-0.23,0.38
	c-0.07,0.01-0.14-0.11-0.24-0.37c-0.43-1.11-1.51-5.2-3.54-10.25c-2.03-5.05-5.03-11.06-9.29-16.01c-3.99-4.63-9.01-8.3-13.41-10.89
	C535.16,530.16,531.39,528.65,529.92,528.34z M578.7,559.4c-0.85-0.64-1.72-1.24-2.58-1.83s-1.74-1.13-2.62-1.66
	c-0.26-0.16-0.34-0.39-0.29-0.56c0.06-0.17,0.25-0.28,0.54-0.19c0.99,0.31,2.15,0.5,3.32,0.72c1.17,0.22,2.35,0.48,3.35,0.92
	c-0.14,0.26-0.5,0.78-0.86,1.29S578.84,559.13,578.7,559.4z M588.3,541.45c-0.11,0.22-0.29,0.38-0.51,0.46
	c-0.22,0.08-0.46,0.07-0.69-0.03c-3.51-1.61-7.06-2.91-10.58-3.9c-3.52-0.99-7.02-1.67-10.43-2.03c-0.15-0.02-0.24-0.06-0.25-0.1
	c-0.01-0.04,0.04-0.08,0.19-0.1c1.16-0.13,2.43-0.19,3.69-0.17s2.53,0.11,3.67,0.29c2.39,0.39,4.56-0.09,6.23-1.26
	c1.67-1.17,2.83-3.03,3.2-5.42c0.39-2.41-0.25-4.74-1.58-6.57c-1.33-1.83-3.36-3.16-5.77-3.54c-3.07-0.47-6.3-0.75-9.6-0.81
	c-3.3-0.07-6.65,0.07-9.97,0.44c-0.09,0.01-0.15-0.05-0.16-0.11c-0.01-0.07,0.01-0.14,0.1-0.16c4.07-1.17,8.73-2.13,13.44-3.07
	c4.7-0.94,9.45-1.87,13.69-2.99c1.37-0.37,2.57-1.13,3.47-2.16c0.9-1.02,1.51-2.31,1.7-3.71c0.19-1.41-0.04-2.8-0.64-4.03
	c-0.59-1.23-1.54-2.28-2.77-3c-2.51-1.48-4.43-2.97-5.75-4.47c-1.32-1.51-2.04-3.03-2.16-4.55c-0.39-4.58,3.6-10.34,9.21-16.21
	s12.84-11.86,18.92-16.92c1.29-1.06,2.53-2.08,3.73-3.08c1.2-1,2.35-1.98,3.47-2.94c0.08-0.07,0.18-0.07,0.26-0.03
	s0.14,0.13,0.13,0.24c-1.21,16-3.94,31.58-8.03,46.62C600.4,513.16,594.96,527.64,588.3,541.45z"/>
</svg>
