<?xml version="1.0" encoding="utf-8"?>
<!-- Generator: Adobe Illustrator 24.3.0, SVG Export Plug-In . SVG Version: 6.00 Build 0)  -->
<svg version="1.1" id="Слой_1" xmlns="http://www.w3.org/2000/svg" xmlns:xlink="http://www.w3.org/1999/xlink" x="0px" y="0px"
	 viewBox="0 0 720 720" style="enable-background:new 0 0 720 720;" xml:space="preserve">
<style type="text/css">
	.st0{fill-rule:evenodd;clip-rule:evenodd;}
</style>
<g>
	<path class="st0" d="M613.8,464.65l-14.95-3.11l-14.95-3.11l-7.49-34.61l-7.49-34.61c-0.19-0.86-0.9-1.29-1.61-1.27
		c-0.71,0.01-1.4,0.46-1.56,1.33l-6.16,35.09l-6.16,35.09l-23.82,5.8l-23.82,5.8c-0.11,0.03-0.22,0.02-0.31-0.02
		c-0.1-0.04-0.18-0.11-0.23-0.21c-0.58-1.02-1.5-2.3-2.52-3.54c-1.02-1.23-2.14-2.42-3.13-3.25c-0.04-0.03-0.07-0.08-0.08-0.12
		c-0.02-0.05-0.02-0.1-0.01-0.15l2.7-14.71l2.7-14.71l14.3-2.55l14.3-2.55c0.57-0.1,0.86-0.56,0.86-1.02s-0.27-0.92-0.83-1.04
		l-14.51-3.05l-14.51-3.05l-2.68-19.58l-2.68-19.58c0.7-3-6.5-1.6-14.49,0.84c-7.98,2.44-16.76,5.91-19.21,7.04
		c-0.09,0.04-0.19,0.02-0.26-0.03c-0.07-0.05-0.11-0.15-0.09-0.25l2.79-15.39l2.79-15.39l22.48-4.02l22.48-4.02
		c0.6-0.11,0.9-0.59,0.91-1.07c0.01-0.48-0.28-0.97-0.88-1.1l-22.78-4.75l-22.78-4.75l-4.28-19.74l-4.28-19.74
		c2.76-8.2,3.57-17.07,2.25-25.65s-4.74-16.85-10.43-23.85c-3.41-4.2-7.47-7.62-11.98-10.34c-4.51-2.72-9.48-4.74-14.73-6.16
		c-0.68-0.18-0.71-0.27-0.49-0.31c0.21-0.03,0.66-0.01,0.92,0.04c2.27,0.42,4.56,0.93,6.88,1.55c2.32,0.62,4.67,1.34,7.03,2.16
		c16.54,5.84,29.69,15.92,40.33,27.6s18.76,24.97,25.22,37.24l-7.47,1.82l-7.47,1.82c-0.96,0.23-1.42,1.03-1.4,1.82
		c0.02,0.79,0.52,1.57,1.48,1.75l18.64,3.57l18.64,3.57l5.1,23.11l5.1,23.11c0.18,0.79,0.83,1.18,1.48,1.17
		c0.65-0.01,1.29-0.42,1.44-1.22l4.25-23.33l4.25-23.33l18.26-3.26l18.26-3.26c0.08-0.02,0.17,0,0.24,0.03
		c0.07,0.04,0.13,0.1,0.17,0.17c1.65,3.25,3.23,6.54,4.74,9.87s2.95,6.7,4.33,10.1c6.45,15.92,11.31,32.32,14.56,49.08
		c3.25,16.76,4.89,33.88,4.89,51.22c0,5.89-0.19,11.76-0.58,17.6C615.13,453.08,614.56,458.88,613.8,464.65L613.8,464.65
		L613.8,464.65z M116.07,350.56c2.55-5.15,5.98-9.18,10.48-12.14c4.5-2.97,10.08-4.88,16.95-5.81c6.29-0.84,12.7-0.18,18.93,1.88
		c6.23,2.06,12.29,5.53,17.87,10.3c4.31,3.69,8.31,8.15,11.98,13.08c3.67,4.93,7,10.32,9.97,15.87c0.19,0.35,0.55,0.41,0.83,0.3
		c0.28-0.12,0.49-0.42,0.38-0.8c-5.36-18.22-13.1-28.79-20.15-35.51c-7.04-6.72-13.38-9.61-15.9-12.46
		c-6.36-7.12-7.86-14.03-9.86-20.3c-2-6.27-4.5-11.9-12.86-16.47c-0.11-0.06-0.23-0.07-0.34-0.04c-0.11,0.03-0.22,0.1-0.28,0.2
		c-4.02,6.42-7.76,13.03-11.22,19.81c-3.46,6.79-6.64,13.75-9.54,20.87c-1.4,3.49-2.73,6.99-3.99,10.52
		c-1.26,3.53-2.44,7.08-3.55,10.64c-0.08,0.25-0.01,0.27,0.09,0.22C115.96,350.67,116.07,350.56,116.07,350.56z M110.88,368.62
		c-1.5,5.99-2.53,10.91-3.34,15.88c-0.81,4.96-1.41,9.98-2.06,16.16c-0.01,0.06,0.02,0.11,0.06,0.15s0.1,0.06,0.15,0.05
		c11.49-2.16,24.89-4.9,39.48-4.07s30.37,5.23,46.61,17.35c1.85,1.39,3.67,3.06,5.46,4.97c1.79,1.91,3.55,4.07,5.26,6.41
		c0.44,0.6,1,1.34,1.58,2.11c0.58,0.77,1.18,1.59,1.72,2.35c0.16,0.23,0.44,0.28,0.67,0.2c0.23-0.08,0.4-0.27,0.34-0.55
		c-0.6-2.78-1.11-5.41-1.63-8.08c-0.52-2.66-1.04-5.36-1.69-8.27c-2.09-9.41-5.43-23.11-12.54-35.96
		c-7.11-12.85-18-24.84-35.2-30.84c-4.7-1.64-9.62-1.56-14.16-0.32c-4.54,1.24-8.7,3.64-11.87,6.65c-2.24,2.11-3.84,4.51-4.77,7.08
		c-0.93,2.57-1.2,5.3-0.76,8.08c0.49,3.01,1.67,5.88,3.33,8.32c1.66,2.43,3.8,4.42,6.21,5.65c1.85,0.93,3.79,1.39,5.75,1.37
		c1.97-0.02,3.97-0.52,5.94-1.51c1.95-0.97,3.07-2.3,3.7-3.61c0.63-1.31,0.76-2.62,0.74-3.53c-0.02-1.6-0.46-3.16-1.2-4.45
		s-1.78-2.34-2.99-2.9c-0.39-0.18-0.68-0.47-0.85-0.83c-0.17-0.36-0.22-0.77-0.14-1.17c0.11-0.4,0.33-0.76,0.64-1
		s0.7-0.39,1.12-0.37c2.1,0.05,3.99,0.4,5.63,1.04s3.03,1.55,4.13,2.73c2.5,2.69,3.28,6.84,2.81,10.83c-0.47,3.98-2.2,7.8-4.72,9.82
		c-10.03,8.07-20.52,7.36-28.56,2.07s-13.6-15.18-13.78-25.47c0-0.14-0.05-0.15-0.1-0.13c-0.05,0.02-0.09,0.08-0.09,0.08l-0.45,1.87
		L110.88,368.62z M606.9,499.45c-2.87,7.79-4.74,12.74-7.21,17.57c-2.47,4.84-5.56,9.57-10.86,16.94c-1.89,2.61-4.14,5.22-6.67,7.76
		c-2.53,2.53-5.36,4.98-8.38,7.25c-0.15,0.11-0.32,0.1-0.46,0.02c-0.13-0.08-0.22-0.24-0.19-0.42l5.77-31.75l5.77-31.75l13.31-2.37
		l13.31-2.37c-0.62,3.22-1.15,6.47-1.82,9.69C608.82,493.21,608.03,496.38,606.9,499.45L606.9,499.45L606.9,499.45z M514.83,553.55
		c-4.28-4.4-6.93-7.63-10.05-10.4s-6.71-5.08-12.88-7.61c-14.14-5.82-18.47,3.52-13.36,14.81c5.1,11.28,19.64,24.51,43.23,26.45
		c0.71,0.06,0.91,0.34,0.68,0.67c-0.23,0.32-0.87,0.68-1.84,0.9c-10.21,2.25-17.82,2.67-25.33,1.65c-7.51-1.02-14.91-3.5-24.72-7.03
		c-16.77-6.03-28.05-15.87-34.81-27.26c-6.75-11.39-8.97-24.35-7.6-36.63c1.3-11.42,5.64-21.21,12.16-28.47
		c6.52-7.25,15.24-11.96,25.32-13.19c5.3-0.63,10.94,0.13,16.06,1.99c5.12,1.86,9.74,4.82,13,8.56c4.79,5.45,6.1,13.6,4.42,20.44
		c-1.68,6.84-6.36,12.38-13.54,12.63c-2.52,0.09-5.05-0.58-7.1-1.72s-3.63-2.76-4.24-4.57c-0.48-1.41-0.64-2.75-0.5-4.01
		s0.59-2.41,1.35-3.45c1.32-2.38,3.13-3.74,5.27-4.37c2.13-0.63,4.58-0.52,7.16,0.03c0.4,0.09,0.75-0.12,0.92-0.43
		c0.17-0.3,0.16-0.7-0.13-0.99c-2.19-2.18-5.38-3.39-8.74-3.49s-6.9,0.89-9.79,3.13c-2.08,1.62-3.65,3.99-4.56,6.73
		c-0.92,2.74-1.18,5.83-0.65,8.89c0.62,3.54,2.15,6.66,4.45,9.2c2.3,2.54,5.36,4.5,9.04,5.72c3.45,1.13,7.08,1.42,10.64,0.91
		c3.56-0.51,7.06-1.82,10.24-3.9c6.54-4.24,10.83-11.19,12.62-18.79c1.79-7.59,1.07-15.82-2.39-22.62c-0.05-0.1-0.04-0.21,0.02-0.29
		c0.06-0.08,0.16-0.12,0.27-0.1l23.01,4.42l23.01,4.42l7.23,32.74l7.23,32.74c0.03,0.12,0.02,0.25-0.03,0.36
		c-0.05,0.11-0.12,0.21-0.23,0.28c-8.75,5.79-18.77,10.01-28.45,10.88C531.51,563.64,522.18,561.16,514.83,553.55L514.83,553.55
		L514.83,553.55z M375.72,633.87c-7.27-4.8-9.74-13.85-10.81-23.37c-1.07-9.52-0.73-19.52-2.41-26.22
		c-0.83-3.27-2.46-5.28-4.24-7.75s-3.72-5.39-5.17-10.5c-0.08-0.28-0.29-0.45-0.54-0.51c-0.25-0.06-0.52,0-0.73,0.21
		c-4.72,4.63-6.83,11.9-6.95,20.23c-0.12,8.33,1.75,17.71,4.98,26.55c0.09,0.24-0.03,0.44-0.21,0.53c-0.18,0.09-0.41,0.06-0.54-0.16
		c-3.57-5.96-6.63-12.76-9.31-20.32s-5-15.88-7.09-24.89c-1.69-7.26-4.5-10.67-7.52-14.17c-3.01-3.5-6.23-7.08-8.75-14.69
		c-0.22-0.67-0.79-1.05-1.39-1.12c-0.6-0.06-1.23,0.19-1.56,0.81c-4.04,7.43-5.26,15.71-4.43,24.33c0.83,8.62,3.71,17.58,7.87,26.37
		c0.17,0.36,0.02,0.69-0.24,0.85s-0.62,0.16-0.87-0.14c-8.32-10.3-16.47-22.9-20.24-36.47c-3.77-13.57-3.16-28.11,6.04-42.28
		c3.36-5.15,7.64-9.24,12.34-11.94c4.69-2.7,9.8-4.03,14.82-3.68c3.63,0.25,7.16,1.28,10.18,3.09c3.02,1.81,5.53,4.39,7.09,7.73
		c1.55,3.27,2.14,6.72,2.05,9.94s-0.87,6.19-2.07,8.51c-0.85,1.64-2.03,2.96-3.55,3.98s-3.35,1.72-5.5,2.11
		c-1.9,0.33-3.72,0.19-5.3-0.36c-1.58-0.56-2.91-1.53-3.82-2.87c-0.81-1.18-1.2-2.52-1.17-3.91c0.03-1.39,0.48-2.85,1.34-4.25
		l0.76-1.25l0.76-1.25c0.12-0.2,0.1-0.42-0.01-0.58c-0.11-0.16-0.31-0.27-0.54-0.24c-6.49,0.87-9.07,6.08-8.22,11.4
		c0.85,5.32,5.14,10.75,12.39,12.07c13.54,2.46,22.88-5.05,26.47-15.46s1.41-23.72-8.08-32.85c-3.19-3.06-6.86-5.51-11-7.16
		c-4.14-1.65-8.74-2.49-13.8-2.34c-8.84,0.28-18.42,3.64-26.46,9.87c-8.04,6.23-14.54,15.32-17.21,27.07
		c-0.55,2.48-0.98,5.01-1.28,7.57c-0.3,2.56-0.47,5.17-0.51,7.8c-0.01,0.45-0.33,0.71-0.67,0.74c-0.35,0.04-0.71-0.15-0.81-0.59
		c-0.65-2.87-1.12-5.75-1.27-8.62s0.02-5.75,0.67-8.59c3.38-15.06,12.8-26.8,15.04-38.34c2.23-11.54-2.72-22.89-28.1-37.17
		c-0.44-0.25-0.91-0.16-1.24,0.11c-0.32,0.27-0.5,0.72-0.34,1.19c1.91,5.6,3.01,10.76,2.56,15.91c-0.44,5.15-2.43,10.31-6.67,15.89
		c-6.47,8.84-7.96,18.69-6.55,28.72c1.42,10.04,5.74,20.26,10.89,29.84c0.22,0.41,0.04,0.8-0.26,0.99c-0.3,0.19-0.73,0.19-1.01-0.19
		c-6.97-9.43-13.18-19.15-18.27-29.25c-5.09-10.09-9.06-20.56-11.56-31.46c-0.38-1.67-0.64-3.36-0.75-5.07
		c-0.12-1.7-0.1-3.42,0.05-5.12c0.98-10.85,5.06-20.96,11.53-29.32c6.47-8.36,15.32-14.98,25.82-18.85l0,0l0,0
		c1.36,2.53,3.13,4.83,5.25,6.68c2.11,1.85,4.56,3.25,7.26,3.98c6.82,1.88,12.8,1.96,17.94,0.69c5.14-1.27,9.43-3.89,12.84-7.41
		l15.36,2.94l15.36,2.94l4.73,21.41l4.73,21.41c0.11,0.5,0.52,0.74,0.93,0.73s0.81-0.27,0.9-0.77l3.93-21.62l3.93-21.62l18.03-3.2
		l18.03-3.2c-8.45,16.64-11.61,35.37-10.83,53.83c0.79,18.47,5.53,36.67,12.87,52.28c0.63,1.35,1.43,2.65,2.35,4.02
		s1.96,2.8,3.06,4.42c0.35,0.51,0.43,0.94,0.33,1.11c-0.1,0.17-0.4,0.09-0.81-0.41c-5.51-6.61-10.35-13.63-14.26-20.87
		c-3.91-7.23-6.88-14.68-8.63-22.12c-1.14-4.87-2.5-12.65-3.86-20.86c-1.36-8.21-2.71-16.86-3.86-23.47
		c-0.58-3.34-2.38-3.82-4.32-2.27s-4.03,5.11-5.19,9.84c-5.38,22.2-0.77,44.2,10.08,63.71c10.85,19.51,27.94,36.53,47.5,48.76
		c0.28,0.18,0.33,0.48,0.23,0.72c-0.1,0.24-0.35,0.42-0.67,0.34c-6.14-1.5-12.2-4.17-18.25-7.73s-12.12-7.99-18.25-13.01
		c-6.99-4.73-9.78-2.88-9.02,1.85s5.08,12.36,12.3,19.19c12.59,11.96,25.84,18.63,39.73,22.66c13.89,4.03,28.41,5.41,43.56,6.8
		c0.36,0.03,0.52,0.15,0.5,0.26s-0.23,0.24-0.63,0.29c-8.98,1.15-21-0.1-32.79-2.15c-11.79-2.05-23.34-4.9-31.39-6.93
		c-15.23-3.85-15.38-1.2-10.11,2.93c5.27,4.13,15.96,9.73,22.4,11.77c14.02,4.46,27.46,6.57,39.28,7.35
		c11.82,0.78,22.02,0.24,29.56-0.58c0.23-0.03,0.37,0.13,0.39,0.3c0.02,0.17-0.06,0.37-0.29,0.41c-8.19,1.76-16.54,2.83-24.95,3.13
		c-8.41,0.3-16.9-0.18-25.36-1.54c-5.27-0.83-10.18-1.87-15.08-3.11c-4.9-1.24-9.8-2.67-15.03-4.27l-8.37-2.59l-8.37-2.59
		c-3.47-1.06-8.49-2.35-11.53-1.89c-3.04,0.46-4.11,2.67,0.33,8.61c5.71,7.69,18.77,15.26,35.13,20.36s36,7.72,54.86,5.5
		c16.72-1.95,30.37-6.09,43-12.31c12.63-6.22,24.23-14.52,36.86-24.8c0.43-0.35,0.94-0.24,1.24,0.07c0.31,0.31,0.41,0.81,0.04,1.24
		c-27.36,31.78-61.41,44.21-93.16,47.49c-31.75,3.28-61.18-2.59-79.31-7.4c-0.57-0.15-1.86-0.77-3.01-1.35
		C376.73,634.41,375.72,633.87,375.72,633.87z M457.88,671.94c-12.66,5.36-25.64,9.64-38.85,12.83c-13.21,3.19-26.67,5.29-40.29,6.3
		c-0.1,0.01-0.17-0.05-0.2-0.12c-0.03-0.07-0.02-0.16,0.05-0.23c3.11-2.99,5.76-6.3,8.36-9.31c2.6-3.01,5.14-5.72,8.03-7.51
		c14.75-8.97,28.29-10.71,42.46-11.32c14.17-0.61,28.96-0.1,46.2-4.57c0.3-0.08,0.55,0.09,0.64,0.32c0.1,0.23,0.05,0.51-0.23,0.67
		c-4.22,2.4-8.51,4.68-12.87,6.84C466.82,668.01,462.38,670.04,457.88,671.94L457.88,671.94L457.88,671.94z M365.95,691.67
		c-6.08,0.21-11.9,0.2-17.71-0.06c-5.81-0.26-11.61-0.76-17.63-1.55c-0.07-0.01-0.11-0.07-0.12-0.13c0-0.06,0.03-0.12,0.1-0.14
		c6.33-1.4,13.6-8.11,23.92-15.13c10.33-7.01,23.72-14.33,42.3-16.95c0.39-0.06,0.66,0.2,0.73,0.5c0.07,0.3-0.05,0.65-0.42,0.78
		c-12.64,4.51-20.69,10.77-25.34,16.83c-4.65,6.06-5.91,11.91-4.97,15.63c0.01,0.03-0.02,0.08-0.05,0.11
		c-0.03,0.04-0.06,0.07-0.06,0.07l-0.38,0.01L365.95,691.67z M298.64,683.98c12.71-9.15,20.96-19.36,30.28-26.42
		c9.32-7.06,19.71-10.99,36.7-7.57c0,0,0.13,0.23,0.08,0.5s-0.29,0.59-1.03,0.76c-5.99,1.42-11.48,3.49-16.67,6.28
		c-5.19,2.79-10.08,6.31-14.87,10.65c-4.79,4.35-8.4,8.66-10.5,12.27c-2.09,3.61-2.67,6.5-1.4,8.02c0.05,0.06,0.05,0.14,0.01,0.2
		c-0.03,0.06-0.1,0.1-0.18,0.09c-3.75-0.58-7.48-1.24-11.19-1.99c-3.71-0.75-7.4-1.58-11.07-2.5c-0.07-0.02-0.13-0.07-0.16-0.13
		C298.61,684.07,298.6,684.01,298.64,683.98z M275.11,677.01c-2.17-0.79-4.34-1.6-6.5-2.44c-2.16-0.84-4.32-1.71-6.45-2.62
		c-4.98-2.11-9.87-4.36-14.67-6.77c-4.81-2.41-9.53-4.96-14.17-7.66c-0.08-0.04-0.1-0.12-0.08-0.19s0.08-0.13,0.17-0.13
		c6.72-0.2,12.17-2.27,16.1-5.73s6.35-8.28,7.01-14c0.67-5.52-1.04-10.59-4.14-14.34c-3.1-3.75-7.59-6.19-12.49-6.45
		c-7.48-0.4-12.17,3.37-13.85,7.63c-1.68,4.27-0.35,9.02,4.2,10.59c2.38,0.39,1.83-0.01,0.98-1.2c-0.85-1.19-2-3.17-0.84-5.95
		c0.62-1.42,1.77-2.73,3.23-3.65s3.23-1.47,5.08-1.38c1.16,0.07,2.34,0.38,3.5,0.99s2.28,1.51,3.34,2.78
		c3.05,3.66,2.79,8.44,0.61,12.41s-6.28,7.1-10.93,7.47c-5.35,0.42-9.69-1.66-12.71-5.46c-3.02-3.8-4.72-9.3-4.79-15.72
		c-0.07-7.51,3.15-14.89,10.69-20.31c7.53-5.42,19.38-8.87,36.55-8.54c12.44,0.26,24.45,3.19,37.26,9.26
		c12.81,6.07,26.42,15.27,42.04,28.06c0.25,0.21,0.29,0.51,0.19,0.76c-0.1,0.25-0.35,0.43-0.67,0.39
		c-12.52-1.64-30.27,1.93-44.56,9.37c-14.29,7.45-25.13,18.77-23.82,32.65c0,0.05-0.04,0.11-0.09,0.14
		C275.23,677,275.16,677.03,275.11,677.01z M192.89,568.53c0.72-2.43,2.99-4.3,5.78-4.9c2.79-0.6,6.1,0.07,8.9,2.7
		c1.9,1.76,3.21,4.5,3.65,7.66c0.43,3.16-0.02,6.73-1.64,10.14c-4.53,9.59-15.49,14.17-26.28,13.22
		c-10.79-0.95-21.41-7.45-25.25-20.01c-4.53-14.72-0.46-27.88,8.62-36.95s23.18-14.03,38.71-12.38c18.88,2,32.38,8.48,44.05,17.57
		c11.68,9.1,21.53,20.82,33.09,33.33c0.12,0.13,0.13,0.3,0.06,0.44s-0.21,0.23-0.39,0.21c-6.37-0.84-17.05-2.1-28.7-1.11
		c-11.65,0.99-24.27,4.22-34.53,12.37c-0.21,0.17-0.46,0.14-0.63,0c-0.17-0.14-0.25-0.38-0.13-0.62c2.32-4.72,3.72-10.17,3.52-15.42
		s-1.99-10.29-6.03-14.18c-5.33-5.09-11.97-5.86-16.97-4.04c-5,1.82-8.36,6.24-7.13,11.52c0.07,0.31,0.36,0.52,0.65,0.61
		C192.54,568.77,192.83,568.73,192.89,568.53z M199.19,633.63c-3.79-3.08-7.11-5.96-10.35-8.95s-6.39-6.1-9.85-9.63
		c-0.52-0.53-1.04-1.07-1.56-1.6c-0.51-0.53-1.02-1.07-1.53-1.6c-0.21-0.22-0.22-0.51-0.11-0.75s0.35-0.4,0.65-0.37
		c4.73,0.44,9.68,0.04,14.53-1.13c4.85-1.17,9.61-3.1,13.96-5.72c0.17-0.1,0.34-0.05,0.45,0.06c0.11,0.11,0.15,0.28,0.04,0.44
		c-3.48,5.11-5.37,10.42-6.04,15.6c-0.67,5.18-0.13,10.22,1.25,14.79c0.01,0.04-0.01,0.06-0.03,0.07c-0.02,0.01-0.05,0.02-0.05,0.02
		l-0.69-0.61L199.19,633.63z M136.41,557.51c-2.52-4.56-4.8-9.01-6.94-13.54c-2.15-4.53-4.16-9.15-6.15-14.02
		c-4.97-12.32-8.94-24.31-11.95-36.52c-3.01-12.21-5.07-24.64-6.21-37.85c-0.01-0.11,0.05-0.2,0.13-0.25s0.19-0.06,0.28,0
		c6.96,4.41,10.71,12.94,17.58,20.46c6.87,7.51,16.85,14.01,36.27,14.34c18.41,0.31,31.34,2.84,41.86,7.1
		c10.51,4.26,18.61,10.24,27.37,17.47c0.36,0.29,0.38,0.73,0.2,1.04s-0.56,0.52-0.99,0.37c-10.34-3.68-21.19-5.81-31.87-5.67
		c-10.68,0.15-21.2,2.57-30.89,8.01c-8.56,4.78-15.27,10.84-20.02,17.65c-4.75,6.81-7.54,14.36-8.26,22.14l-0.2-0.36L136.41,557.51z
		 M103.91,429.64c0-4.22,0.03-7.72,0.16-11.2c0.13-3.47,0.36-6.92,0.74-11.02c0.01-0.11,0.07-0.21,0.16-0.27
		c0.09-0.06,0.2-0.09,0.31-0.06c24.43,6.32,32.85,11.73,39.15,17.52c6.3,5.79,10.48,11.95,26.42,19.77
		c8.17,4.02,15.92,8.84,23.27,14.64s14.33,12.6,20.94,20.57c0.24,0.29,0.17,0.62-0.04,0.82c-0.2,0.2-0.54,0.27-0.82,0.02
		c-15.67-13.48-33.52-24.55-52.19-30.86c-18.67-6.31-38.16-7.87-57.13-2.33c-0.1,0.03-0.2,0.01-0.28-0.04
		c-0.08-0.05-0.13-0.14-0.14-0.24c-0.19-2.87-0.33-5.75-0.43-8.64C103.96,435.45,103.91,432.55,103.91,429.64L103.91,429.64
		L103.91,429.64z M179,244.2c9.08-9.26,18.72-17.76,28.9-25.47c10.17-7.71,20.87-14.62,32.07-20.7c0.12-0.06,0.25-0.05,0.35,0.02
		c0.1,0.07,0.16,0.19,0.15,0.32c-1.19,11.61-2.51,19.61-6.22,26.81s-9.81,13.62-20.55,22.07c-8.33,6.55-12.59,19.68-14.16,35.36
		c-1.57,15.68-0.47,33.91,1.92,50.67c0.04,0.29-0.14,0.48-0.36,0.53c-0.22,0.05-0.47-0.04-0.57-0.32
		c-4.3-12.35-9.82-24.8-18.15-34.14c-8.33-9.35-19.47-15.59-35-15.55c-0.05,0-0.08-0.02-0.1-0.06c-0.02-0.03-0.02-0.08,0-0.12
		c4.81-7.49,9.6-14.13,14.76-20.51C167.19,256.75,172.72,250.63,179,244.2L179,244.2L179,244.2z M217,36.07
		c4.92-9.61,17.57-15.61,33.15-11.08s34.07,19.62,50.69,52.17c0.29,0.56,0.23,1.19-0.06,1.67c-0.29,0.49-0.81,0.84-1.44,0.86
		c-36.62,1.24-59.47-5.24-72.03-14.24C214.75,56.45,212.48,44.93,217,36.07L217,36.07L217,36.07z M320.3,126.5
		c1.48,2.92,2.03,4.7,2.19,6.62c0.16,1.92-0.05,3.98-0.1,7.47c0,0.35-0.14,0.66-0.35,0.91s-0.51,0.41-0.86,0.46
		c-5.41,0.75-10.79,1.66-16.14,2.73c-5.35,1.07-10.67,2.3-15.95,3.68c-0.28,0.07-0.5-0.07-0.59-0.28c-0.09-0.2-0.05-0.47,0.19-0.62
		c6-3.96,11.55-7.86,16.45-11.45s9.16-6.85,12.57-9.54c0.32-0.25,0.91-0.36,1.44-0.35S320.18,126.27,320.3,126.5z M364.37,82.05
		c5.39,0,10.25,2.13,13.76,5.61s5.68,8.32,5.68,13.74c0,2.57-0.5,5.07-1.47,7.38c-0.96,2.32-2.39,4.45-4.24,6.3
		c-1.81,1.83-3.94,3.25-6.27,4.2c-2.33,0.96-4.86,1.46-7.46,1.46c-2.61,0-5.12-0.5-7.44-1.46c-2.32-0.96-4.44-2.39-6.26-4.24
		c-1.83-1.83-3.26-3.96-4.23-6.27c-0.97-2.31-1.48-4.81-1.48-7.38c0-5.35,2.17-10.19,5.69-13.69
		C354.16,84.21,359.01,82.05,364.37,82.05L364.37,82.05L364.37,82.05z M409.88,126.86c2.26,2.04,4.75,4.91,7.54,8.17
		c2.79,3.27,5.88,6.94,9.33,10.6c0.31,0.32,0.31,0.74,0.12,1.06c-0.18,0.31-0.55,0.52-0.98,0.42c-3.11-0.75-6.23-1.44-9.36-2.08
		c-3.13-0.64-6.28-1.23-9.44-1.77c-0.37-0.06-0.69-0.26-0.91-0.53s-0.35-0.62-0.34-0.99c0.09-3.02,0-5.33,0.2-7.54
		c0.21-2.21,0.71-4.31,1.99-6.93c0.11-0.22,0.47-0.4,0.86-0.49C409.28,126.67,409.69,126.68,409.88,126.86z M511.73,37.26
		c4.55,8.94,2.23,20.56-10.54,29.59c-12.77,9.02-35.98,15.45-73.21,13.98c-0.29-0.01-0.54-0.18-0.67-0.41
		c-0.14-0.23-0.16-0.52-0.03-0.78c16.68-33.21,35.33-48.64,51.04-53.34C494.02,21.6,506.79,27.61,511.73,37.26L511.73,37.26
		L511.73,37.26z M384.36,220.92c8.22-5.21,16.5-9.7,25.08-13.16c8.58-3.46,17.48-5.87,26.96-6.91c8.26-0.91,16.01-0.51,22.71,0
		c6.7,0.51,12.34,1.14,16.37,0.66c1.19-0.15,1.95-0.76,2.4-1.53c0.45-0.77,0.6-1.68,0.59-2.42c0-0.08,0.05-0.15,0.11-0.19
		c0.07-0.04,0.15-0.04,0.22,0c4.69,2.5,9.29,5.15,13.8,7.95s8.94,5.74,13.27,8.82c0.16,0.12,0.17,0.3,0.08,0.43
		c-0.08,0.13-0.25,0.21-0.42,0.11c-1.65-0.88-3.32-1.68-4.99-2.4s-3.33-1.36-4.97-1.9c-15.08-4.99-34.4-5.85-54.21-3.66
		c-19.81,2.19-40.12,7.44-57.18,14.67c-0.32,0.13-0.27,0.01-0.15-0.14C384.15,221.11,384.36,220.92,384.36,220.92z M442.17,306.26
		c-9.37,12.51-22.98,15.66-34.87,12.24c-11.89-3.41-22.06-13.39-24.54-27.13c-1.78-9.87,2.43-19,8.99-24.47
		c6.56-5.48,15.46-7.3,23.07-2.55c9.56,6.13,10.26,15.17,6.31,20.67c-3.95,5.5-12.55,7.47-21.61-0.56
		c-0.46-0.41-1.05-0.39-1.47-0.12c-0.43,0.27-0.69,0.79-0.53,1.39c0.42,1.48,1.09,2.99,1.88,4.36c0.79,1.37,1.71,2.59,2.63,3.5
		c1.76,1.76,4.02,3.2,6.49,4.24c2.47,1.04,5.17,1.67,7.81,1.81c4.42,0.21,9-0.78,12.93-3.07s7.2-5.88,9.02-10.86
		c3.73-10.29,0.36-20-6.71-26.94s-17.83-11.11-28.87-10.32c-8.92,0.63-17.17,4.09-23.14,9.82c-5.98,5.73-9.69,13.73-9.55,23.42
		c0,0.12-0.06,0.21-0.14,0.25s-0.19,0.03-0.27-0.05c-6-6.06-13.53-11.21-22.64-14.93s-19.8-6.02-32.13-6.38
		c-0.16,0-0.26-0.11-0.28-0.24c-0.02-0.12,0.03-0.25,0.18-0.3c15.65-4.96,33.68-10.1,50.65-13.69c16.97-3.59,32.87-5.62,44.25-4.35
		c19.72,2.18,31.91,12.84,37.14,25.66C452,280.49,450.27,295.46,442.17,306.26L442.17,306.26L442.17,306.26z M221.62,375.98
		c0.05-1.59,0.22-5.94,2.08-11.65c1.86-5.71,5.4-12.79,12.18-19.84c0.01-0.01,5.73-5.74,15.24-9.02c9.51-3.27,22.82-4.08,38.02,5.74
		c1.77,1.14,4.6,1.26,7.33,0.8c2.73-0.46,5.34-1.49,6.66-2.66c0.14-0.12,0.31-0.12,0.44-0.04c0.13,0.08,0.2,0.23,0.14,0.41
		c-1.07,3.21-1.36,6.65-0.94,10.03c0.41,3.37,1.51,6.68,3.21,9.63c0.07,0.12,0.04,0.24-0.04,0.31c-0.07,0.07-0.19,0.1-0.31,0.04
		c-15.56-8.88-31.52-9.13-45.99-3.9c-14.47,5.23-27.46,15.93-37.08,28.96c-0.21,0.29-0.52,0.34-0.77,0.23
		c-0.25-0.11-0.45-0.39-0.45-0.75c-0.01-1.62,0.06-3.48,0.13-5.04S221.61,376.41,221.62,375.98z M391.73,202.77
		c1.51-7.86-0.26-15.25-4.09-21.31c-3.83-6.06-9.72-10.79-16.44-13.34c-0.1-0.04-0.13-0.13-0.12-0.21s0.08-0.15,0.19-0.15
		c13.56,0.61,26.95,2.29,40.12,5.03c13.17,2.74,26.11,6.55,38.76,11.4c0.25,0.1,0.34,0.33,0.3,0.54c-0.04,0.21-0.21,0.4-0.48,0.4
		c-10.45,0.14-20.2,0.9-29.67,3.49c-9.46,2.6-18.64,7.03-27.93,14.52c-0.15,0.12-0.33,0.12-0.46,0.04
		C391.78,203.11,391.69,202.96,391.73,202.77z M246.46,194.61c3.12-1.64,5.4-2.77,7.72-3.83s4.68-2.06,7.94-3.44
		c13.91-5.88,28.18-10.46,42.73-13.73c14.55-3.27,29.38-5.23,44.44-5.86c0.09,0,0.15,0.06,0.17,0.13c0.01,0.07-0.02,0.15-0.1,0.19
		c-1.73,0.68-3.45,1.52-5.12,2.56c-1.67,1.04-3.3,2.26-4.87,3.7c-5.25,5.75-6.58,12.63-5.15,18.63c1.43,6.01,5.63,11.14,11.43,13.39
		c1.26,0.49,2.47,0.06,3.2-0.8c0.73-0.86,0.99-2.14,0.36-3.34c-2.59-4.94-2.55-10.07-0.31-13.88c2.24-3.82,6.67-6.32,12.89-6.01
		c5.09,0.25,9.23,2.81,11.51,7.2c2.28,4.39,2.7,10.62,0.36,18.2c-1.78,5.87-8.27,13.1-16.29,19.89s-17.57,13.14-25.48,17.21
		c-0.21,0.11-0.42,0.05-0.55-0.09c-0.13-0.14-0.19-0.36-0.08-0.57c11.02-21.46,5.51-39.45-6.78-49.27s-31.34-11.48-47.39-0.3
		c-11.64,8.13-16.32,21.69-14.18,33.28s11.09,21.21,26.72,21.46c7.59,0.13,14.29-3.15,18.21-7.87c3.91-4.72,5.03-10.87,1.45-16.46
		c-0.73-1.14-2-1.5-3.12-1.22c-1.12,0.27-2.09,1.17-2.22,2.52c-0.38,3.95-2.48,7.1-5.67,8.99s-7.46,2.52-12.16,1.41
		c-9.02-2.15-12.38-11.3-10.11-19.81c2.27-8.51,10.17-16.36,23.67-15.9c6.38,0.23,11.46,2.7,15.18,6.19c3.72,3.49,6.08,8,7.01,12.31
		c3.57,16.59-3.49,24.75-15.18,30.82c-11.7,6.07-28.03,10.04-43,18.26c-11.67,6.4-21.75,17.48-29.9,29.83
		c-8.15,12.35-14.35,25.96-18.27,37.45c-0.09,0.26-0.32,0.34-0.53,0.3s-0.39-0.22-0.37-0.49c0.75-9.85,2.15-18.84,5.46-27.81
		c3.31-8.97,8.54-17.93,16.97-27.7c7.5-8.69,12.51-23.63,14.17-39.54c1.66-15.91-0.04-32.79-5.96-45.35l0.62-0.32L246.46,194.61z
		 M268.85,395.52c-0.42,0.91-0.76,1.86-1.01,2.85c-0.26,0.98-0.43,1.99-0.54,3.03c-1.13-0.63-2.42-1.17-3.9-1.56
		c-1.48-0.39-3.14-0.64-5.01-0.69c-6.08-0.18-11.84,2.23-16.91,6.38c-5.07,4.15-9.46,10.05-12.81,16.83
		c-0.16,0.33-0.49,0.44-0.78,0.37c-0.29-0.06-0.54-0.3-0.55-0.67c-0.09-2.61-0.09-4.98-0.01-7.14c0.08-2.16,0.24-4.13,0.48-5.94
		c0.29-2.19,0.82-4.34,1.55-6.41s1.68-4.07,2.81-5.97c11.77-19.88,32.02-27.6,49.34-26.49c17.32,1.11,31.71,11.04,31.76,26.46
		c0.04,9.29-3.54,15.25-8.43,18.49s-11.1,3.75-16.33,2.13c-3.54-1.13-6.61-3.4-8.58-6.17c-1.97-2.78-2.83-6.07-1.95-9.24
		c0.86-3.02,3.08-5.8,5.93-7.61c2.85-1.81,6.32-2.64,9.67-1.77c1.51,0.39,2.79-0.35,3.39-1.44c0.61-1.09,0.54-2.53-0.64-3.54
		c-3.14-2.69-8.47-3.86-13.78-2.75C277.23,385.77,271.93,389.14,268.85,395.52L268.85,395.52L268.85,395.52z M335.42,362.59
		c-3.06-0.58-6.22-1.75-9.19-3.69c-2.98-1.94-5.78-4.66-8.14-8.34c-2.02-3.89-2.94-6.94-3.13-9.72c-0.19-2.77,0.36-5.26,1.28-8.02
		c0.41-1.23-0.01-2.41-0.82-3.15c-0.81-0.74-2.02-1.03-3.19-0.48c-0.17,0.08-0.35,0.16-0.52,0.25c-0.17,0.08-0.35,0.17-0.52,0.25
		c-0.8,0.56-1.55,1.17-2.23,1.81c-0.68,0.64-1.31,1.32-1.88,2.03c-0.12,0.15-0.3,0.18-0.45,0.12c-0.15-0.06-0.26-0.2-0.24-0.39
		c0.11-1.26-0.04-2.6-0.52-3.99s-1.28-2.84-2.46-4.32c-5.09-6.35-13.16-9.87-21.68-11.31c-8.51-1.44-17.47-0.81-24.32,1.14
		c-1.95,0.55-4.04,1.23-6.17,2.05c-2.12,0.82-4.27,1.8-6.31,2.95c-0.4,0.23-0.73,0.14-0.89-0.08s-0.15-0.6,0.14-0.95
		c1.02-1.26,2.11-2.49,3.28-3.67c1.17-1.18,2.43-2.31,3.79-3.36c11.83-9.16,24.28-9.14,35.76-6.85c11.49,2.29,22.02,6.83,30.03,6.71
		c5.92-0.09,11.31-2.52,14.1-6.33c2.79-3.8,2.98-8.98-1.49-14.53c-5.83-7.3-14.26-11.57-23.2-13.46c-8.94-1.89-18.4-1.39-26.27,0.84
		c-0.96,0.27-1.54,0.32-1.8,0.24c-0.26-0.07-0.2-0.26,0.13-0.47c3.32-2.06,6.67-3.77,10.01-5.1c3.34-1.33,6.68-2.27,9.96-2.78
		c13.01-2.04,27.57-0.84,40.43,4.12c12.86,4.96,24.03,13.69,30.26,26.7c1.66,3.43,2.85,6.89,3.66,10.25
		c0.81,3.36,1.22,6.62,1.31,9.67c0.28,10.52-3.48,22.13-10.27,30.54C357.07,359.67,347.25,364.88,335.42,362.59L335.42,362.59
		L335.42,362.59z M317.56,370.71c2.91,2.54,6.04,4.52,9.75,5.92c3.71,1.4,8.01,2.2,13.29,2.36c1.53,0.05,3.03-0.03,4.49-0.19
		c1.46-0.16,2.89-0.39,4.28-0.65l-3.15,14.74l-3.15,14.74l-12.56,3.05l-12.56,3.05c-0.05,0.01-0.1-0.01-0.12-0.04
		c-0.03-0.04-0.03-0.09,0-0.13c3.7-6.08,5.56-13.57,5.5-21.12c-0.06-7.55-2.03-15.16-5.99-21.48c-0.05-0.08-0.03-0.17,0.02-0.22
		C317.4,370.66,317.48,370.64,317.56,370.71z M490.39,434.64l2.91,13.28l2.91,13.28c0.01,0.05-0.01,0.1-0.05,0.12
		c-0.04,0.02-0.09,0.03-0.13,0c-11.42-7.97-25.79-9.97-38.87-6.75s-24.9,11.65-31.21,24.56c-0.11,0.23-0.34,0.29-0.53,0.24
		c-0.19-0.06-0.35-0.23-0.32-0.49c2.33-20.45,8.41-35.85,18.66-48.91c10.25-13.06,24.68-23.77,43.71-34.83
		c2.69-1.57,4.4-2.77,5.53-3.75c1.13-0.98,1.69-1.74,2.07-2.41l-2.85,16.31l-2.85,16.31l-13.08,3.19l-13.08,3.19
		c-0.4,0.1-0.59,0.43-0.58,0.76s0.22,0.66,0.62,0.73l13.57,2.59L490.39,434.64z M449.11,359.21l3.87,17.57l3.87,17.57
		c0.02,0.1,0.01,0.2-0.03,0.29c-0.04,0.09-0.1,0.17-0.19,0.22c-2.39,1.56-4.7,3.22-6.9,4.97c-2.2,1.75-4.28,3.58-6.24,5.47
		c-16.97,15.22-27.69,35.58-32.23,57.37c-4.55,21.8-2.92,45.03,4.78,65.99c0.26,0.7,0.33,1.19,0.25,1.3s-0.31-0.15-0.66-0.93
		c-2.74-6.18-5.29-13.13-7.3-20.89c-2.02-7.76-3.5-16.35-4.11-25.79c-1.3-20.51,2.35-38.37,9.13-54.07
		c6.78-15.7,16.69-29.24,27.89-41.09c4.3-4.56,3.56-6.13,1.01-6.13c-2.54,0-6.89,1.59-9.82,3.35c-6.01,3.66-11.98,8.12-17.36,13.25
		s-10.18,10.92-13.85,17.26l-19.13-3.98l-19.13-3.98l-3.77-15.15l-3.77-15.15c10.92-3.49,19.25-10.65,24.77-19.8
		c5.52-9.14,8.22-20.27,7.87-31.67c0-0.11,0.06-0.2,0.14-0.25c0.08-0.04,0.19-0.04,0.28,0.03c2.72,2.14,5.75,3.95,9.08,5.31
		c3.33,1.36,6.96,2.28,10.91,2.64c9.2,0.82,17.37-0.36,24.43-3.03s13.02-6.82,17.78-11.95c0.13-0.14,0.32-0.16,0.46-0.09
		c0.14,0.07,0.24,0.22,0.21,0.42l-1.87,10.75l-1.87,10.75l-20.44,4.96l-20.44,4.96c-0.37,0.09-0.55,0.4-0.54,0.71
		c0.01,0.31,0.2,0.61,0.57,0.68l21.17,4.06L449.11,359.21z M534.66,237.97l-3.56,29.38l-3.56,29.38l-5.99,1.46l-5.99,1.46
		c0.44-5.54-0.16-13.22-2.52-21.4c-2.36-8.18-6.48-16.86-13.08-24.41c-9.49-10.83-20.51-18.85-32.43-24.32
		c-11.91-5.46-24.71-8.37-37.74-8.97c-0.06,0-0.08-0.05-0.08-0.09c0-0.04,0.03-0.09,0.09-0.09c14.7-0.24,30.57,1.2,44.99,4.97
		s27.39,9.89,36.3,18.99c2.4,2.48,6.21,6.08,9.89,7.36c3.68,1.28,7.23,0.24,9.1-6.55c0.68-2.48,0.36-5.17-0.72-7.93
		c-1.08-2.76-2.93-5.58-5.32-8.32c-0.09-0.1-0.06-0.22,0.01-0.29s0.19-0.1,0.28-0.01c1.75,1.51,3.49,3.04,5.21,4.61
		C531.27,234.77,532.97,236.36,534.66,237.97L534.66,237.97L534.66,237.97z M581.44,302.52l-15.68-3.28l-15.68-3.28l-4.11-24.78
		l-4.11-24.78c-0.04-0.24,0.09-0.43,0.27-0.52c0.18-0.09,0.41-0.08,0.57,0.1c8.19,8.53,15.75,17.55,22.67,27.03
		c6.92,9.48,13.2,19.41,18.8,29.77c0.04,0.07,0.03,0.14-0.01,0.2c-0.04,0.05-0.11,0.09-0.19,0.07l-1.26-0.26L581.44,302.52z
		 M642.86,459.62c0.49-4.96,0.87-9.94,1.13-14.93c0.26-5,0.39-10.01,0.39-15.04c0-19.17-1.81-38.08-5.41-56.61
		c-3.59-18.52-8.96-36.66-16.08-54.29c-7.17-17.7-15.94-34.48-26.24-50.23c-10.3-15.75-22.14-30.46-35.43-44.03
		c-6.48-6.64-13.22-12.93-20.22-18.85s-14.26-11.47-21.75-16.65c-0.21-0.15-0.28-0.38-0.23-0.59c0.05-0.21,0.22-0.38,0.48-0.41
		c8.2-0.94,16.44-4.02,23.5-8.95c7.06-4.92,12.93-11.69,16.39-20c2.61-6.24,1.33-12.08-2.29-20.67s-9.58-19.93-16.34-37.17
		c-2.91-7.39-2.07-16.61,0.18-26.08s5.93-19.18,8.69-27.53c10.7-32.47-17.09-48.15-52.2-46.23s-77.53,21.46-96.12,59.44
		c-0.48,0.97-1.34,1.61-2.3,1.83s-2,0.03-2.85-0.65c-4.49-3.62-9.51-6.42-14.88-8.31s-11.07-2.88-16.92-2.88
		c-6.12,0-12.09,1.08-17.66,3.15s-10.78,5.13-15.37,9.09c-0.42,0.36-0.95,0.46-1.43,0.34c-0.48-0.12-0.91-0.45-1.14-0.95
		c-17.59-39.37-60.42-59.8-96.14-62.19s-64.33,13.29-53.49,46.14c2.76,8.36,6.44,18.07,8.7,27.53c2.26,9.47,3.1,18.69,0.22,26.08
		c-6.78,17.24-12.75,28.58-16.38,37.17c-3.63,8.59-4.91,14.43-2.32,20.67c3.92,9.4,9.57,15.62,16.43,19.33s14.93,4.94,23.68,4.33
		c0.41-0.03,0.7,0.22,0.8,0.53c0.1,0.31,0.02,0.69-0.33,0.91c-9.24,5.87-18.14,12.27-26.67,19.2s-16.7,14.37-24.48,22.33
		c-13.3,13.58-25.13,28.3-35.43,44.06c-10.3,15.75-19.07,32.53-26.24,50.23c-7.13,17.63-12.5,35.76-16.09,54.29
		c-3.59,18.52-5.39,37.43-5.39,56.61c0,19.16,1.81,38.07,5.39,56.59c3.59,18.53,8.96,36.67,16.09,54.3
		c7.17,17.7,15.94,34.47,26.24,50.21c10.3,15.74,22.14,30.46,35.43,44.04c13.3,13.62,27.71,25.74,43.13,36.29
		c15.42,10.55,31.85,19.54,49.18,26.9c17.29,7.3,35.1,12.81,53.29,16.49c18.19,3.68,36.76,5.54,55.58,5.54
		c18.84,0,37.42-1.86,55.62-5.54c18.2-3.69,36.01-9.2,53.32-16.52c17.33-7.34,33.76-16.32,49.18-26.87
		c15.42-10.55,29.84-22.67,43.13-36.29c13.3-13.58,25.13-28.29,35.43-44.04c10.3-15.74,19.07-32.52,26.24-50.21
		c4.28-10.59,7.92-21.36,10.91-32.28c3-10.92,5.36-22.01,7.08-33.23c0.39-2.57,0.75-5.13,1.08-7.69S642.6,462.21,642.86,459.62
		L642.86,459.62L642.86,459.62z"/>
</g>
</svg>
