  0
SECTION
  2
HEADER
  9
$ACADVER
  1
AC1024
  9
$ACADMAINTVER
 70
     6
  9
$DWGCODEPAGE
  3
ANSI_1252
  9
$INSBASE
 10
0.0
 20
0.0
 30
0.0
  9
$EXTMIN
 10
1.000000000000000E+20
 20
1.000000000000000E+20
 30
1.000000000000000E+20
  9
$EXTMAX
 10
-1.000000000000000E+20
 20
-1.000000000000000E+20
 30
-1.000000000000000E+20
  9
$LIMMIN
 10
0.0
 20
0.0
  9
$LIMMAX
 10
12.0
 20
9.0
  9
$ORTHOMODE
 70
     0
  9
$REGENMODE
 70
     1
  9
$FILLMODE
 70
     1
  9
$QTEXTMODE
 70
     0
  9
$MIRRTEXT
 70
     1
  9
$LTSCALE
 40
1.0
  9
$ATTMODE
 70
     1
  9
$TEXTSIZE
 40
0.2
  9
$TRACEWID
 40
0.05
  9
$TEXTSTYLE
  7
Standard
  9
$CLAYER
  8
0
  9
$CELTYPE
  6
ByLayer
  9
$CECOLOR
 62
   256
  9
$CELTSCALE
 40
1.0
  9
$DISPSILH
 70
     0
  9
$DIMSCALE
 40
1.0
  9
$DIMASZ
 40
0.18
  9
$DIMEXO
 40
0.0625
  9
$DIMDLI
 40
0.38
  9
$DIMRND
 40
0.0
  9
$DIMDLE
 40
0.0
  9
$DIMEXE
 40
0.18
  9
$DIMTP
 40
0.0
  9
$DIMTM
 40
0.0
  9
$DIMTXT
 40
0.18
  9
$DIMCEN
 40
0.09
  9
$DIMTSZ
 40
0.0
  9
$DIMTOL
 70
     0
  9
$DIMLIM
 70
     0
  9
$DIMTIH
 70
     1
  9
$DIMTOH
 70
     1
  9
$DIMSE1
 70
     0
  9
$DIMSE2
 70
     0
  9
$DIMTAD
 70
     0
  9
$DIMZIN
 70
     0
  9
$DIMBLK
  1

  9
$DIMASO
 70
     1
  9
$DIMSHO
 70
     1
  9
$DIMPOST
  1

  9
$DIMAPOST
  1

  9
$DIMALT
 70
     0
  9
$DIMALTD
 70
     2
  9
$DIMALTF
 40
25.4
  9
$DIMLFAC
 40
1.0
  9
$DIMTOFL
 70
     0
  9
$DIMTVP
 40
0.0
  9
$DIMTIX
 70
     0
  9
$DIMSOXD
 70
     0
  9
$DIMSAH
 70
     0
  9
$DIMBLK1
  1

  9
$DIMBLK2
  1

  9
$DIMSTYLE
  2
Standard
  9
$DIMCLRD
 70
     0
  9
$DIMCLRE
 70
     0
  9
$DIMCLRT
 70
     0
  9
$DIMTFAC
 40
1.0
  9
$DIMGAP
 40
0.09
  9
$DIMJUST
 70
     0
  9
$DIMSD1
 70
     0
  9
$DIMSD2
 70
     0
  9
$DIMTOLJ
 70
     1
  9
$DIMTZIN
 70
     0
  9
$DIMALTZ
 70
     0
  9
$DIMALTTZ
 70
     0
  9
$DIMUPT
 70
     0
  9
$DIMDEC
 70
     4
  9
$DIMTDEC
 70
     4
  9
$DIMALTU
 70
     2
  9
$DIMALTTD
 70
     2
  9
$DIMTXSTY
  7
Standard
  9
$DIMAUNIT
 70
     0
  9
$DIMADEC
 70
     0
  9
$DIMALTRND
 40
0.0
  9
$DIMAZIN
 70
     0
  9
$DIMDSEP
 70
    46
  9
$DIMATFIT
 70
     3
  9
$DIMFRAC
 70
     0
  9
$DIMLDRBLK
  1

  9
$DIMLUNIT
 70
     2
  9
$DIMLWD
 70
    -2
  9
$DIMLWE
 70
    -2
  9
$DIMTMOVE
 70
     0
  9
$DIMFXL
 40
1.0
  9
$DIMFXLON
 70
     0
  9
$DIMJOGANG
 40
0.7853981633974483
  9
$DIMTFILL
 70
     0
  9
$DIMTFILLCLR
 70
     0
  9
$DIMARCSYM
 70
     0
  9
$DIMLTYPE
  6

  9
$DIMLTEX1
  6

  9
$DIMLTEX2
  6

  9
$DIMTXTDIRECTION
 70
     0
  9
$LUNITS
 70
     2
  9
$LUPREC
 70
     4
  9
$SKETCHINC
 40
0.1
  9
$FILLETRAD
 40
0.5
  9
$AUNITS
 70
     0
  9
$AUPREC
 70
     0
  9
$MENU
  1
.
  9
$ELEVATION
 40
0.0
  9
$PELEVATION
 40
0.0
  9
$THICKNESS
 40
0.0
  9
$LIMCHECK
 70
     0
  9
$CHAMFERA
 40
0.5
  9
$CHAMFERB
 40
0.5
  9
$CHAMFERC
 40
1.0
  9
$CHAMFERD
 40
0.0
  9
$SKPOLY
 70
     0
  9
$TDCREATE
 40
2459192.939663021
  9
$TDUCREATE
 40
2459192.772996354
  9
$TDUPDATE
 40
2459192.939663079
  9
$TDUUPDATE
 40
2459192.772996412
  9
$TDINDWG
 40
0.0000000116
  9
$TDUSRTIMER
 40
0.0000000116
  9
$USRTIMER
 70
     1
  9
$ANGBASE
 50
0.0
  9
$ANGDIR
 70
     0
  9
$PDMODE
 70
     0
  9
$PDSIZE
 40
0.0
  9
$PLINEWID
 40
0.0
  9
$SPLFRAME
 70
     0
  9
$SPLINETYPE
 70
     6
  9
$SPLINESEGS
 70
     8
  9
$HANDSEED
  5
1E9
  9
$SURFTAB1
 70
     6
  9
$SURFTAB2
 70
     6
  9
$SURFTYPE
 70
     6
  9
$SURFU
 70
     6
  9
$SURFV
 70
     6
  9
$UCSBASE
  2

  9
$UCSNAME
  2

  9
$UCSORG
 10
0.0
 20
0.0
 30
0.0
  9
$UCSXDIR
 10
1.0
 20
0.0
 30
0.0
  9
$UCSYDIR
 10
0.0
 20
1.0
 30
0.0
  9
$UCSORTHOREF
  2

  9
$UCSORTHOVIEW
 70
     0
  9
$UCSORGTOP
 10
0.0
 20
0.0
 30
0.0
  9
$UCSORGBOTTOM
 10
0.0
 20
0.0
 30
0.0
  9
$UCSORGLEFT
 10
0.0
 20
0.0
 30
0.0
  9
$UCSORGRIGHT
 10
0.0
 20
0.0
 30
0.0
  9
$UCSORGFRONT
 10
0.0
 20
0.0
 30
0.0
  9
$UCSORGBACK
 10
0.0
 20
0.0
 30
0.0
  9
$PUCSBASE
  2

  9
$PUCSNAME
  2

  9
$PUCSORG
 10
0.0
 20
0.0
 30
0.0
  9
$PUCSXDIR
 10
1.0
 20
0.0
 30
0.0
  9
$PUCSYDIR
 10
0.0
 20
1.0
 30
0.0
  9
$PUCSORTHOREF
  2

  9
$PUCSORTHOVIEW
 70
     0
  9
$PUCSORGTOP
 10
0.0
 20
0.0
 30
0.0
  9
$PUCSORGBOTTOM
 10
0.0
 20
0.0
 30
0.0
  9
$PUCSORGLEFT
 10
0.0
 20
0.0
 30
0.0
  9
$PUCSORGRIGHT
 10
0.0
 20
0.0
 30
0.0
  9
$PUCSORGFRONT
 10
0.0
 20
0.0
 30
0.0
  9
$PUCSORGBACK
 10
0.0
 20
0.0
 30
0.0
  9
$USERI1
 70
     0
  9
$USERI2
 70
     0
  9
$USERI3
 70
     0
  9
$USERI4
 70
     0
  9
$USERI5
 70
     0
  9
$USERR1
 40
0.0
  9
$USERR2
 40
0.0
  9
$USERR3
 40
0.0
  9
$USERR4
 40
0.0
  9
$USERR5
 40
0.0
  9
$WORLDVIEW
 70
     1
  9
$SHADEDGE
 70
     3
  9
$SHADEDIF
 70
    70
  9
$TILEMODE
 70
     1
  9
$MAXACTVP
 70
    64
  9
$PINSBASE
 10
0.0
 20
0.0
 30
0.0
  9
$PLIMCHECK
 70
     0
  9
$PEXTMIN
 10
1.000000000000000E+20
 20
1.000000000000000E+20
 30
1.000000000000000E+20
  9
$PEXTMAX
 10
-1.000000000000000E+20
 20
-1.000000000000000E+20
 30
-1.000000000000000E+20
  9
$PLIMMIN
 10
0.0
 20
0.0
  9
$PLIMMAX
 10
12.0
 20
9.0
  9
$UNITMODE
 70
     0
  9
$VISRETAIN
 70
     1
  9
$PLINEGEN
 70
     0
  9
$PSLTSCALE
 70
     1
  9
$TREEDEPTH
 70
  3020
  9
$CMLSTYLE
  2
Standard
  9
$CMLJUST
 70
     0
  9
$CMLSCALE
 40
1.0
  9
$PROXYGRAPHICS
 70
     1
  9
$MEASUREMENT
 70
     0
  9
$CELWEIGHT
370
    -1
  9
$ENDCAPS
280
     0
  9
$JOINSTYLE
280
     0
  9
$LWDISPLAY
290
     1
  9
$INSUNITS
 70
     4
  9
$HYPERLINKBASE
  1

  9
$STYLESHEET
  1

  9
$XEDIT
290
     1
  9
$CEPSNTYPE
380
     0
  9
$PSTYLEMODE
290
     1
  9
$FINGERPRINTGUID
  2
{20F7F6B8-9A0D-427F-8DA0-F2323CCFF2BA}
  9
$VERSIONGUID
  2
{FAEB1C32-E019-11D5-929B-00C0DF256EC4}
  9
$EXTNAMES
290
     1
  9
$PSVPSCALE
 40
0.0
  9
$OLESTARTUP
290
     0
  9
$SORTENTS
280
   127
  9
$INDEXCTL
280
     0
  9
$HIDETEXT
280
     1
  9
$XCLIPFRAME
280
     2
  9
$HALOGAP
280
     0
  9
$OBSCOLOR
 70
   257
  9
$OBSLTYPE
280
     0
  9
$INTERSECTIONDISPLAY
280
     0
  9
$INTERSECTIONCOLOR
 70
   257
  9
$DIMASSOC
280
     2
  9
$PROJECTNAME
  1

  9
$CAMERADISPLAY
290
     0
  9
$LENSLENGTH
 40
50.0
  9
$CAMERAHEIGHT
 40
0.0
  9
$STEPSPERSEC
 40
2.0
  9
$STEPSIZE
 40
6.0
  9
$3DDWFPREC
 40
2.0
  9
$PSOLWIDTH
 40
0.25
  9
$PSOLHEIGHT
 40
4.0
  9
$LOFTANG1
 40
1.570796326794897
  9
$LOFTANG2
 40
1.570796326794897
  9
$LOFTMAG1
 40
0.0
  9
$LOFTMAG2
 40
0.0
  9
$LOFTPARAM
 70
     7
  9
$LOFTNORMALS
280
     1
  9
$LATITUDE
 40
37.795
  9
$LONGITUDE
 40
-122.394
  9
$NORTHDIRECTION
 40
0.0
  9
$TIMEZONE
 70
 -8000
  9
$LIGHTGLYPHDISPLAY
280
     1
  9
$TILEMODELIGHTSYNCH
280
     1
  9
$CMATERIAL
347
3C
  9
$SOLIDHIST
280
     1
  9
$SHOWHIST
280
     1
  9
$DWFFRAME
280
     2
  9
$DGNFRAME
280
     2
  9
$REALWORLDSCALE
290
     1
  9
$INTERFERECOLOR
 62
   256
  9
$CSHADOW
280
     0
  9
$SHADOWPLANELOCATION
 40
0.0
  0
ENDSEC
  0
SECTION
  2
CLASSES
  0
CLASS
  1
ACDBDICTIONARYWDFLT
  2
AcDbDictionaryWithDefault
  3
ObjectDBX Classes
 90
        0
 91
        4
280
     0
281
     0
  0
CLASS
  1
VISUALSTYLE
  2
AcDbVisualStyle
  3
ObjectDBX Classes
 90
     4095
 91
        4
280
     0
281
     0
  0
CLASS
  1
MATERIAL
  2
AcDbMaterial
  3
ObjectDBX Classes
 90
     1153
 91
        4
280
     0
281
     0
  0
CLASS
  1
SUN
  2
AcDbSun
  3
SCENEOE
 90
     1024
 91
        4
280
     0
281
     0
  0
ENDSEC
  0
SECTION
  2
TABLES
  0
TABLE
  2
VPORT
  5
8
330
0
100
AcDbSymbolTable
 70
     1
  0
VPORT
  5
29
330
8
100
AcDbSymbolTableRecord
100
AcDbViewportTableRecord
  2
*Active
 70
     0
 10
0.0
 20
0.0
 11
1.0
 21
1.0
 12
0.0
 22
0.0
 13
0.0
 23
0.0
 14
0.5
 24
0.5
 15
0.5
 25
0.5
 16
0.0
 26
0.0
 36
1.0
 17
16.31597221814323
 27
22.2073613747072
 37
0.0
 40
44.41472274941439
 41
0.7347100784664182
 42
50.0
 43
0.0
 44
0.0
 50
0.0
 51
0.0
 71
     0
 72
   100
 73
     1
 74
     3
 75
     0
 76
     0
 77
     0
 78
     0
281
     0
 65
     1
110
0.0
120
0.0
130
0.0
111
1.0
121
0.0
131
0.0
112
0.0
122
1.0
132
0.0
 79
     0
146
0.0
 60
     3
 61
     5
292
     1
282
     1
141
0.0
142
0.0
 63
   250
361
3F
  0
ENDTAB
  0
TABLE
  2
LTYPE
  5
5
330
0
100
AcDbSymbolTable
 70
     1
  0
LTYPE
  5
14
330
5
100
AcDbSymbolTableRecord
100
AcDbLinetypeTableRecord
  2
ByBlock
 70
     0
  3

 72
    65
 73
     0
 40
0.0
  0
LTYPE
  5
15
330
5
100
AcDbSymbolTableRecord
100
AcDbLinetypeTableRecord
  2
ByLayer
 70
     0
  3

 72
    65
 73
     0
 40
0.0
  0
LTYPE
  5
16
330
5
100
AcDbSymbolTableRecord
100
AcDbLinetypeTableRecord
  2
Continuous
 70
     0
  3
Solid line
 72
    65
 73
     0
 40
0.0
  0
ENDTAB
  0
TABLE
  2
LAYER
  5
2
330
0
100
AcDbSymbolTable
 70
     2
  0
LAYER
  5
10
330
2
100
AcDbSymbolTableRecord
100
AcDbLayerTableRecord
  2
0
 70
     0
 62
     7
  6
Continuous
370
    -3
390
F
347
3E
  0
LAYER
  5
40
330
2
100
AcDbSymbolTableRecord
100
AcDbLayerTableRecord
  2
Layer 1
 70
     0
 62
     7
  6
Continuous
370
    -3
390
F
347
3E
  0
ENDTAB
  0
TABLE
  2
STYLE
  5
3
330
0
100
AcDbSymbolTable
 70
     1
  0
STYLE
  5
11
330
3
100
AcDbSymbolTableRecord
100
AcDbTextStyleTableRecord
  2
Standard
 70
     0
 40
0.0
 41
1.0
 50
0.0
 71
     0
 42
0.2
  3
txt
  4

  0
ENDTAB
  0
TABLE
  2
VIEW
  5
6
330
0
100
AcDbSymbolTable
 70
     0
  0
ENDTAB
  0
TABLE
  2
UCS
  5
7
330
0
100
AcDbSymbolTable
 70
     0
  0
ENDTAB
  0
TABLE
  2
APPID
  5
9
330
0
100
AcDbSymbolTable
 70
     1
  0
APPID
  5
12
330
9
100
AcDbSymbolTableRecord
100
AcDbRegAppTableRecord
  2
ACAD
 70
     0
  0
ENDTAB
  0
TABLE
  2
DIMSTYLE
  5
A
330
0
100
AcDbSymbolTable
 70
     1
100
AcDbDimStyleTable
  0
DIMSTYLE
105
27
330
A
100
AcDbSymbolTableRecord
100
AcDbDimStyleTableRecord
  2
Standard
 70
     0
178
     0
340
11
  0
ENDTAB
  0
TABLE
  2
BLOCK_RECORD
  5
1
330
0
100
AcDbSymbolTable
 70
     4
  0
BLOCK_RECORD
  5
1F
330
1
100
AcDbSymbolTableRecord
100
AcDbBlockTableRecord
  2
*Model_Space
340
22
 70
     0
280
     1
281
     0
  0
BLOCK_RECORD
  5
1B
330
1
100
AcDbSymbolTableRecord
100
AcDbBlockTableRecord
  2
*Paper_Space
340
1E
 70
     0
280
     1
281
     0
  0
BLOCK_RECORD
  5
23
330
1
100
AcDbSymbolTableRecord
100
AcDbBlockTableRecord
  2
*Paper_Space0
340
26
 70
     0
280
     1
281
     0
  0
BLOCK_RECORD
  5
41
330
1
100
AcDbSymbolTableRecord
100
AcDbBlockTableRecord
  2
block 2
340
0
102
{BLKREFS
331
42
102
}
 70
     0
280
     1
281
     0
  0
BLOCK_RECORD
  5
45
330
1
100
AcDbSymbolTableRecord
100
AcDbBlockTableRecord
  2
block 3
340
0
102
{BLKREFS
331
46
102
}
 70
     0
280
     1
281
     0
  0
BLOCK_RECORD
  5
49
330
1
100
AcDbSymbolTableRecord
100
AcDbBlockTableRecord
  2
block 4
340
0
102
{BLKREFS
331
4A
102
}
 70
     0
280
     1
281
     0
  0
ENDTAB
  0
ENDSEC
  0
SECTION
  2
BLOCKS
  0
BLOCK
  5
20
330
1F
100
AcDbEntity
  8
0
100
AcDbBlockBegin
  2
*Model_Space
 70
     0
 10
0.0
 20
0.0
 30
0.0
  3
*Model_Space
  1

  0
ENDBLK
  5
21
330
1F
100
AcDbEntity
  8
0
100
AcDbBlockEnd
  0
BLOCK
  5
1C
330
1B
100
AcDbEntity
 67
     1
  8
0
100
AcDbBlockBegin
  2
*Paper_Space
 70
     0
 10
0.0
 20
0.0
 30
0.0
  3
*Paper_Space
  1

  0
ENDBLK
  5
1D
330
1B
100
AcDbEntity
 67
     1
  8
0
100
AcDbBlockEnd
  0
BLOCK
  5
24
330
23
100
AcDbEntity
  8
0
100
AcDbBlockBegin
  2
*Paper_Space0
 70
     0
 10
0.0
 20
0.0
 30
0.0
  3
*Paper_Space0
  1

  0
ENDBLK
  5
25
330
23
100
AcDbEntity
  8
0
100
AcDbBlockEnd
  0
BLOCK
  5
43
330
41
100
AcDbEntity
  8
0
100
AcDbBlockBegin
  2
block 2
 70
     0
 10
0.0
 20
0.0
 30
0.0
  3
block 2
  1

  0
ENDBLK
  5
44
330
41
100
AcDbEntity
  8
0
100
AcDbBlockEnd
  0
BLOCK
  5
47
330
45
100
AcDbEntity
  8
0
100
AcDbBlockBegin
  2
block 3
 70
     0
 10
0.0
 20
0.0
 30
0.0
  3
block 3
  1

  0
INSERT
  5
4A
330
45
100
AcDbEntity
  8
Layer 1
100
AcDbBlockReference
  2
block 4
 10
0.0
 20
0.0
 30
0.0
  0
ENDBLK
  5
48
330
45
100
AcDbEntity
  8
0
100
AcDbBlockEnd
  0
BLOCK
  5
4B
330
49
100
AcDbEntity
  8
0
100
AcDbBlockBegin
  2
block 4
 70
     0
 10
0.0
 20
0.0
 30
0.0
  3
block 4
  1

  0
SPLINE
  5
4D
330
49
100
AcDbEntity
  8
Layer 1
370
     0
100
AcDbSpline
210
0.0
220
0.0
230
1.0
 70
    11
 71
     3
 72
   119
 73
   115
 74
     0
 42
0.0000000001
 43
0.0000000001
 12
1.0
 22
0.0
 32
0.0
 13
1.0
 23
0.0
 33
0.0
 40
0.0
 40
0.0
 40
0.0
 40
0.0
 40
1.0
 40
1.0
 40
1.0
 40
2.0
 40
2.0
 40
2.0
 40
3.0
 40
3.0
 40
3.0
 40
4.0
 40
4.0
 40
4.0
 40
5.0
 40
5.0
 40
5.0
 40
6.0
 40
6.0
 40
6.0
 40
7.0
 40
7.0
 40
7.0
 40
8.0
 40
8.0
 40
8.0
 40
9.0
 40
9.0
 40
9.0
 40
10.0
 40
10.0
 40
10.0
 40
11.0
 40
11.0
 40
11.0
 40
12.0
 40
12.0
 40
12.0
 40
13.0
 40
13.0
 40
13.0
 40
14.0
 40
14.0
 40
14.0
 40
15.0
 40
15.0
 40
15.0
 40
16.0
 40
16.0
 40
16.0
 40
17.0
 40
17.0
 40
17.0
 40
18.0
 40
18.0
 40
18.0
 40
19.0
 40
19.0
 40
19.0
 40
20.0
 40
20.0
 40
20.0
 40
21.0
 40
21.0
 40
21.0
 40
22.0
 40
22.0
 40
22.0
 40
23.0
 40
23.0
 40
23.0
 40
24.0
 40
24.0
 40
24.0
 40
25.0
 40
25.0
 40
25.0
 40
26.0
 40
26.0
 40
26.0
 40
27.0
 40
27.0
 40
27.0
 40
28.0
 40
28.0
 40
28.0
 40
29.0
 40
29.0
 40
29.0
 40
30.0
 40
30.0
 40
30.0
 40
31.0
 40
31.0
 40
31.0
 40
32.0
 40
32.0
 40
32.0
 40
33.0
 40
33.0
 40
33.0
 40
34.0
 40
34.0
 40
34.0
 40
35.0
 40
35.0
 40
35.0
 40
36.0
 40
36.0
 40
36.0
 40
37.0
 40
37.0
 40
37.0
 40
38.0
 40
38.0
 40
38.0
 40
38.0
 10
25.50583440354922
 20
29.77443649819216
 30
0.0
 10
25.50583440354922
 20
29.77443649819216
 30
0.0
 10
25.78805770229322
 20
29.88026956235095
 30
0.0
 10
25.78805770229322
 20
29.88026956235095
 30
0.0
 10
25.78805770229322
 20
29.88026956235095
 30
0.0
 10
25.78805770229322
 20
29.88026956235095
 30
0.0
 10
25.78805770229322
 20
29.88026956235095
 30
0.0
 10
26.65812195005476
 20
30.27206708363226
 30
0.0
 10
27.44767323973368
 20
30.82236052908185
 30
0.0
 10
28.1163904967483
 20
31.50304680142687
 30
0.0
 10
29.63333601740585
 20
33.30221360221778
 30
0.0
 10
27.83416719800429
 20
35.31304653132629
 30
0.0
 10
27.83416719800429
 20
37.2180470691462
 30
0.0
 10
27.83416719800429
 20
39.12304760696613
 30
0.0
 10
28.68083440275547
 20
40.53415804485424
 30
0.0
 10
27.9752788473763
 20
42.19221386914337
 30
0.0
 10
27.55194659074114
 20
43.25054720221212
 30
0.0
 10
26.52889049714518
 20
43.74443612462105
 30
0.0
 10
25.36472275417721
 20
43.7797138687465
 30
0.0
 10
24.38224342584346
 20
43.81988850994828
 30
0.0
 10
23.41062422273079
 20
43.56161072754617
 30
0.0
 10
22.57777777213333
 20
43.03888090567699
 30
0.0
 10
21.83694497728138
 20
42.58026989561106
 30
0.0
 10
18.23861137569954
 20
38.91138080577833
 30
0.0
 10
18.16805555101354
 20
38.91138080577833
 30
0.0
 10
18.12870206379668
 20
39.1383850105776
 30
0.0
 10
18.00208134730951
 20
39.34097748408686
 30
0.0
 10
17.81527777332396
 20
39.47582538465571
 30
0.0
 10
17.66129411679711
 20
39.61624936067108
 30
0.0
 10
17.4591827454894
 20
39.69204112491148
 30
0.0
 10
17.2508338673168
 20
39.6874921858435
 30
0.0
 10
17.2508338673168
 20
39.6874921858435
 30
0.0
 10
16.22777777372083
 20
39.6874921858435
 30
0.0
 10
16.22777777372083
 20
39.6874921858435
 30
0.0
 10
16.0656335472633
 20
39.6788643075506
 30
0.0
 10
15.90811597638321
 20
39.63039712974781
 30
0.0
 10
15.76916693187246
 20
39.54638120934171
 30
0.0
 10
15.55750080355488
 20
39.44054780874781
 30
0.0
 10
15.34583332949687
 20
39.22888134399513
 30
0.0
 10
15.34583332949687
 20
39.08777003105823
 30
0.0
 10
14.22215891588484
 20
40.73136621092738
 30
0.0
 10
12.86770885993547
 20
42.20462681059611
 30
0.0
 10
11.32416612553946
 20
43.46221425572624
 30
0.0
 10
10.52584397264761
 20
44.0279764826962
 30
0.0
 10
9.584604859605056
 20
44.35802130347702
 30
0.0
 10
8.607777641051792
 20
44.41471427230987
 30
0.0
 10
7.40833333148125
 20
44.44999205060451
 30
0.0
 10
6.349999998412501
 20
44.02665870844045
 30
0.0
 10
5.856111244221126
 20
43.00360316155154
 30
0.0
 10
5.044722288248063
 20
41.41610316194841
 30
0.0
 10
5.750278180062335
 20
39.6522142735005
 30
0.0
 10
5.644444443033334
 20
38.02943636155437
 30
0.0
 10
5.538610706004332
 20
36.40665844960824
 30
0.0
 10
3.563055689238834
 20
34.25471454399796
 30
0.0
 10
4.938888887654167
 20
32.34971400617804
 30
0.0
 10
5.715000267719335
 20
31.46776956195408
 30
0.0
 10
6.526388887257292
 20
30.65638094241612
 30
0.0
 10
7.690555284484832
 20
30.30360316472654
 30
0.0
 10
7.690555284484832
 20
30.30360316472654
 30
0.0
 10
7.690555284484832
 20
30.30360316472654
 30
0.0
 10
7.690555284484832
 20
30.30360316472654
 30
0.0
 10
7.690555284484832
 20
30.30360316472654
 30
0.0
 10
7.796388348643623
 20
30.23304734004054
 30
0.0
 10
7.796388348643623
 20
30.23304734004054
 30
0.0
 10
0.0881395108777473
 20
25.54713208301635
 30
0.0
 10
-2.361945353023473
 20
15.49967528061692
 30
0.0
 10
2.323970408653372
 20
7.791427546778735
 30
0.0
 10
7.009886506765324
 20
0.0831771214597037
 30
0.0
 10
17.05734196342433
 20
-2.366904809147937
 30
0.0
 10
24.76559104300294
 20
2.319009102135826
 30
0.0
 10
26.23790104527972
 20
3.214039526242038
 30
0.0
 10
27.55932124826425
 20
4.336392422757783
 30
0.0
 10
28.68083440275547
 20
5.644438657409341
 30
0.0
 10
29.03361218044505
 20
6.067770914044502
 30
0.0
 10
29.38638995813463
 20
6.526383101633299
 30
0.0
 10
29.70389049635143
 20
6.984995289222097
 30
0.0
 10
29.70389049635143
 20
6.984995289222097
 30
0.0
 10
29.80972490625064
 20
7.126106938594099
 30
0.0
 10
29.80972490625064
 20
7.126106938594099
 30
0.0
 10
29.80972490625064
 20
7.126106938594099
 30
0.0
 10
29.80972490625064
 20
7.126106938594099
 30
0.0
 10
29.80972490625064
 20
7.126106938594099
 30
0.0
 10
29.80972490625064
 20
7.126106938594099
 30
0.0
 10
30.02139103456822
 20
7.408330237338105
 30
0.0
 10
30.02139103456822
 20
7.408330237338105
 30
0.0
 10
30.02139103456822
 20
7.408330237338105
 30
0.0
 10
30.16250268394023
 20
7.619996365655686
 30
0.0
 10
30.16250268394023
 20
7.619996365655686
 30
0.0
 10
30.16250268394023
 20
7.619996365655686
 30
0.0
 10
30.6916693504746
 20
8.537218049352433
 30
0.0
 10
30.6916693504746
 20
8.537218049352433
 30
0.0
 10
30.6916693504746
 20
8.537218049352433
 30
0.0
 10
30.6916693504746
 20
8.537218049352433
 30
0.0
 10
30.6916693504746
 20
8.537218049352433
 30
0.0
 10
30.6916693504746
 20
8.537218049352433
 30
0.0
 10
30.97389264921861
 20
9.066384715886809
 30
0.0
 10
30.97389264921861
 20
9.066384715886809
 30
0.0
 10
30.97389264921861
 20
9.066384715886809
 30
0.0
 10
31.11500429859061
 20
9.383885254103603
 30
0.0
 10
31.11500429859061
 20
9.383885254103603
 30
0.0
 10
31.11500429859061
 20
9.383885254103603
 30
0.0
 10
31.64417096512498
 20
10.61860747601714
 30
0.0
 10
31.64417096512498
 20
10.61860747601714
 30
0.0
 10
31.64417096512498
 20
10.65388471548993
 30
0.0
 10
31.67944820459777
 20
10.68916195496272
 30
0.0
 10
31.67944820459777
 20
10.75971912538915
 30
0.0
 10
31.67944820459777
 20
10.75971912538915
 30
0.0
 10
31.82055985396978
 20
11.11249690307873
 30
0.0
 10
31.82055985396978
 20
11.11249690307873
 30
0.0
 10
32.36096883600563
 20
12.77581053520414
 30
0.0
 10
32.63481624635111
 20
14.51415188744425
 30
0.0
 10
32.63194981924816
 20
16.26305191905048
 30
0.0
 10
32.65109432251892
 20
21.67161228909726
 30
0.0
 10
29.98016023945998
 20
26.73580306762316
 30
0.0
 10
25.50583440354922
 20
29.77443649819216
 30
0.0
  0
SPLINE
  5
4E
330
49
100
AcDbEntity
  8
Layer 1
370
     0
100
AcDbSpline
210
0.0
220
0.0
230
1.0
 70
    11
 71
     3
 72
   254
 73
   250
 74
     0
 42
0.0000000001
 43
0.0000000001
 12
1.0
 22
0.0
 32
0.0
 13
1.0
 23
0.0
 33
0.0
 40
0.0
 40
0.0
 40
0.0
 40
0.0
 40
1.0
 40
1.0
 40
1.0
 40
2.0
 40
2.0
 40
2.0
 40
3.0
 40
3.0
 40
3.0
 40
4.0
 40
4.0
 40
4.0
 40
5.0
 40
5.0
 40
5.0
 40
6.0
 40
6.0
 40
6.0
 40
7.0
 40
7.0
 40
7.0
 40
8.0
 40
8.0
 40
8.0
 40
9.0
 40
9.0
 40
9.0
 40
10.0
 40
10.0
 40
10.0
 40
11.0
 40
11.0
 40
11.0
 40
12.0
 40
12.0
 40
12.0
 40
13.0
 40
13.0
 40
13.0
 40
14.0
 40
14.0
 40
14.0
 40
15.0
 40
15.0
 40
15.0
 40
16.0
 40
16.0
 40
16.0
 40
17.0
 40
17.0
 40
17.0
 40
18.0
 40
18.0
 40
18.0
 40
19.0
 40
19.0
 40
19.0
 40
20.0
 40
20.0
 40
20.0
 40
21.0
 40
21.0
 40
21.0
 40
22.0
 40
22.0
 40
22.0
 40
23.0
 40
23.0
 40
23.0
 40
24.0
 40
24.0
 40
24.0
 40
25.0
 40
25.0
 40
25.0
 40
26.0
 40
26.0
 40
26.0
 40
27.0
 40
27.0
 40
27.0
 40
28.0
 40
28.0
 40
28.0
 40
29.0
 40
29.0
 40
29.0
 40
30.0
 40
30.0
 40
30.0
 40
31.0
 40
31.0
 40
31.0
 40
32.0
 40
32.0
 40
32.0
 40
33.0
 40
33.0
 40
33.0
 40
34.0
 40
34.0
 40
34.0
 40
35.0
 40
35.0
 40
35.0
 40
36.0
 40
36.0
 40
36.0
 40
37.0
 40
37.0
 40
37.0
 40
38.0
 40
38.0
 40
38.0
 40
39.0
 40
39.0
 40
39.0
 40
40.0
 40
40.0
 40
40.0
 40
41.0
 40
41.0
 40
41.0
 40
42.0
 40
42.0
 40
42.0
 40
43.0
 40
43.0
 40
43.0
 40
44.0
 40
44.0
 40
44.0
 40
45.0
 40
45.0
 40
45.0
 40
46.0
 40
46.0
 40
46.0
 40
47.0
 40
47.0
 40
47.0
 40
48.0
 40
48.0
 40
48.0
 40
49.0
 40
49.0
 40
49.0
 40
50.0
 40
50.0
 40
50.0
 40
51.0
 40
51.0
 40
51.0
 40
52.0
 40
52.0
 40
52.0
 40
53.0
 40
53.0
 40
53.0
 40
54.0
 40
54.0
 40
54.0
 40
55.0
 40
55.0
 40
55.0
 40
56.0
 40
56.0
 40
56.0
 40
57.0
 40
57.0
 40
57.0
 40
58.0
 40
58.0
 40
58.0
 40
59.0
 40
59.0
 40
59.0
 40
60.0
 40
60.0
 40
60.0
 40
61.0
 40
61.0
 40
61.0
 40
62.0
 40
62.0
 40
62.0
 40
63.0
 40
63.0
 40
63.0
 40
64.0
 40
64.0
 40
64.0
 40
65.0
 40
65.0
 40
65.0
 40
66.0
 40
66.0
 40
66.0
 40
67.0
 40
67.0
 40
67.0
 40
68.0
 40
68.0
 40
68.0
 40
69.0
 40
69.0
 40
69.0
 40
70.0
 40
70.0
 40
70.0
 40
71.0
 40
71.0
 40
71.0
 40
72.0
 40
72.0
 40
72.0
 40
73.0
 40
73.0
 40
73.0
 40
74.0
 40
74.0
 40
74.0
 40
75.0
 40
75.0
 40
75.0
 40
76.0
 40
76.0
 40
76.0
 40
77.0
 40
77.0
 40
77.0
 40
78.0
 40
78.0
 40
78.0
 40
79.0
 40
79.0
 40
79.0
 40
80.0
 40
80.0
 40
80.0
 40
81.0
 40
81.0
 40
81.0
 40
82.0
 40
82.0
 40
82.0
 40
83.0
 40
83.0
 40
83.0
 40
83.0
 10
26.98749999325313
 20
9.807214819257915
 30
0.0
 10
26.92969236760297
 20
9.930740332770057
 30
0.0
 10
26.78269444961672
 20
9.984018196153276
 30
0.0
 10
26.65916624462373
 20
9.926210570503123
 30
0.0
 10
26.65077689882098
 20
9.922286391426956
 30
0.0
 10
26.64261632889029
 20
9.917891203202414
 30
0.0
 10
26.63472221556354
 20
9.91304922915713
 30
0.0
 10
26.5111967020514
 20
9.855241603506977
 30
0.0
 10
26.45791883866818
 20
9.708243685520722
 30
0.0
 10
26.51572646431833
 20
9.584715480527732
 30
0.0
 10
26.5196506433945
 20
9.57632613472498
 30
0.0
 10
26.52404583161904
 20
9.568165564794295
 30
0.0
 10
26.52888780566433
 20
9.560271451467546
 30
0.0
 10
26.63409240904515
 20
9.375931928198202
 30
0.0
 10
26.75196850425765
 20
9.19911778537945
 30
0.0
 10
26.88166558335391
 20
9.031104784933172
 30
0.0
 10
26.88166558335391
 20
9.031104784933172
 30
0.0
 10
26.42305339576512
 20
9.136939194832385
 30
0.0
 10
26.42305339576512
 20
9.136939194832385
 30
0.0
 10
26.42305339576512
 20
9.136939194832385
 30
0.0
 10
26.07027561807553
 20
9.736660340312339
 30
0.0
 10
26.07027561807553
 20
9.736660340312339
 30
0.0
 10
25.98485339892642
 20
9.841794965191111
 30
0.0
 10
25.83678427156272
 20
9.87140932896002
 30
0.0
 10
25.71749784038595
 20
9.807214819257915
 30
0.0
 10
25.60175608948579
 20
9.735072366612107
 30
0.0
 10
25.56641156299181
 20
9.582764156913042
 30
0.0
 10
25.63855401563762
 20
9.467022406012886
 30
0.0
 10
25.64122127315784
 20
9.462742951464802
 30
0.0
 10
25.64401772175876
 20
9.458544241342153
 30
0.0
 10
25.64694336144037
 20
9.454437041568331
 30
0.0
 10
25.65656809695229
 20
9.401649027699422
 30
0.0
 10
25.68104442378265
 20
9.352699065519548
 30
0.0
 10
25.71749784038595
 20
9.31332539219633
 30
0.0
 10
25.71749784038595
 20
9.31332539219633
 30
0.0
 10
25.64694336144037
 20
9.31332539219633
 30
0.0
 10
25.64694336144037
 20
9.31332539219633
 30
0.0
 10
25.64694336144037
 20
9.31332539219633
 30
0.0
 10
25.117776694906
 20
10.1599925969475
 30
0.0
 10
25.117776694906
 20
10.1599925969475
 30
0.0
 10
25.117776694906
 20
10.1599925969475
 30
0.0
 10
25.99972113912995
 20
12.62943704077458
 30
0.0
 10
25.99972113912995
 20
12.62943704077458
 30
0.0
 10
25.99972113912995
 20
12.62943704077458
 30
0.0
 10
23.49499945583008
 20
12.06499313476742
 30
0.0
 10
23.49499945583008
 20
12.06499313476742
 30
0.0
 10
23.49499945583008
 20
12.06499313476742
 30
0.0
 10
21.66055474269616
 20
13.54665872447133
 30
0.0
 10
21.66055474269616
 20
13.54665872447133
 30
0.0
 10
21.66055474269616
 20
13.54665872447133
 30
0.0
 10
22.08388834507175
 20
14.04054815153292
 30
0.0
 10
22.08388834507175
 20
14.04054815153292
 30
0.0
 10
22.08388834507175
 20
14.04054815153292
 30
0.0
 10
23.17749891761329
 20
13.96999367258734
 30
0.0
 10
23.17749891761329
 20
13.96999367258734
 30
0.0
 10
23.17749891761329
 20
13.96999367258734
 30
0.0
 10
22.61305501160612
 20
14.95777252671051
 30
0.0
 10
22.61305501160612
 20
14.95777252671051
 30
0.0
 10
22.61305501160612
 20
14.95777252671051
 30
0.0
 10
23.00111002876849
 20
16.01610585977926
 30
0.0
 10
23.00111002876849
 20
16.01610585977926
 30
0.0
 10
23.00111002876849
 20
16.01610585977926
 30
0.0
 10
21.87222087101375
 20
15.69860532156247
 30
0.0
 10
21.87222087101375
 20
15.69860532156247
 30
0.0
 10
21.87222087101375
 20
15.69860532156247
 30
0.0
 10
20.99027642678978
 20
16.36888363746884
 30
0.0
 10
20.99027642678978
 20
16.36888363746884
 30
0.0
 10
20.99027642678978
 20
16.36888363746884
 30
0.0
 10
20.91972060210378
 20
15.31055030440009
 30
0.0
 10
20.91972060210378
 20
15.31055030440009
 30
0.0
 10
20.91972060210378
 20
15.31055030440009
 30
0.0
 10
20.14360922203862
 20
14.88721804776493
 30
0.0
 10
20.14360922203862
 20
14.88721804776493
 30
0.0
 10
20.14360922203862
 20
14.88721804776493
 30
0.0
 10
21.20194255510737
 20
17.5683286199096
 30
0.0
 10
21.20194255510737
 20
17.5683286199096
 30
0.0
 10
21.20194255510737
 20
17.5683286199096
 30
0.0
 10
18.34444174837749
 20
16.86277306453043
 30
0.0
 10
18.34444174837749
 20
16.86277306453043
 30
0.0
 10
18.34444174837749
 20
16.86277306453043
 30
0.0
 10
16.75694174877436
 20
18.20332969634319
 30
0.0
 10
16.75694174877436
 20
18.20332969634319
 30
0.0
 10
16.75694174877436
 20
18.20332969634319
 30
0.0
 10
17.42722006468074
 20
18.87360801224957
 30
0.0
 10
17.42722006468074
 20
18.87360801224957
 30
0.0
 10
17.42722006468074
 20
18.87360801224957
 30
0.0
 10
18.59138646190828
 20
18.80305353330399
 30
0.0
 10
18.59138646190828
 20
18.80305353330399
 30
0.0
 10
18.59138646190828
 20
18.80305353330399
 30
0.0
 10
17.95638673121512
 20
19.89666410584553
 30
0.0
 10
17.95638673121512
 20
19.89666410584553
 30
0.0
 10
17.95638673121512
 20
19.89666410584553
 30
0.0
 10
18.16805285953269
 20
20.49638525132548
 30
0.0
 10
18.16805285953269
 20
20.49638525132548
 30
0.0
 10
18.16805285953269
 20
20.49638525132548
 30
0.0
 10
18.66194228659428
 20
20.03777306373668
 30
0.0
 10
18.66194228659428
 20
20.03777306373668
 30
0.0
 10
18.66194228659428
 20
20.00249582426389
 30
0.0
 10
18.73249811128028
 20
20.00249582426389
 30
0.0
 10
18.76777535075307
 20
20.00249582426389
 30
0.0
 10
18.76777535075307
 20
20.00249582426389
 30
0.0
 10
21.13138673042137
 20
21.06082915733264
 30
0.0
 10
21.13138673042137
 20
21.06082915733264
 30
0.0
 10
21.53926315828774
 20
21.2088283061943
 30
0.0
 10
21.96776978685289
 20
21.29214847880123
 30
0.0
 10
22.4013861918077
 20
21.30777252512301
 30
0.0
 10
22.75416396949728
 20
21.30777252512301
 30
0.0
 10
22.96583009781486
 20
21.27249528565022
 30
0.0
 10
23.07166450771407
 20
21.16666087575101
 30
0.0
 10
23.17749891761329
 20
21.06082646585179
 30
0.0
 10
23.14221898665965
 20
21.06082646585179
 30
0.0
 10
23.10694174718686
 20
20.99027198690622
 30
0.0
 10
23.10694174718686
 20
20.99027198690622
 30
0.0
 10
22.89527561886928
 20
20.77860585858864
 30
0.0
 10
22.89527561886928
 20
20.77860585858864
 30
0.0
 10
22.89527561886928
 20
20.77860585858864
 30
0.0
 10
22.50722060170691
 20
20.56693973027106
 30
0.0
 10
22.50722060170691
 20
20.56693973027106
 30
0.0
 10
22.50722060170691
 20
20.56693973027106
 30
0.0
 10
21.90749811048653
 20
20.28471643152705
 30
0.0
 10
21.90749811048653
 20
20.28471643152705
 30
0.0
 10
21.90749811048653
 20
20.28471643152705
 30
0.0
 10
19.57916531603145
 20
19.26166033793109
 30
0.0
 10
19.57916531603145
 20
19.26166033793109
 30
0.0
 10
19.57916531603145
 20
19.26166033793109
 30
0.0
 10
19.57916531603145
 20
19.12054868855909
 30
0.0
 10
19.57916531603145
 20
19.12054868855909
 30
0.0
 10
19.57916531603145
 20
19.12054868855909
 30
0.0
 10
20.24944363193783
 20
18.4855476121255
 30
0.0
 10
20.24944363193783
 20
18.4855476121255
 30
0.0
 10
20.24944363193783
 20
18.4855476121255
 30
0.0
 10
20.35527669609662
 20
18.4855476121255
 30
0.0
 10
20.35527669609662
 20
18.4855476121255
 30
0.0
 10
20.35527669609662
 20
18.4855476121255
 30
0.0
 10
22.71888673002449
 20
19.50860370572146
 30
0.0
 10
22.71888673002449
 20
19.50860370572146
 30
0.0
 10
22.71888673002449
 20
19.50860370572146
 30
0.0
 10
22.85999837939649
 20
19.57915818466704
 30
0.0
 10
22.85999837939649
 20
19.57915818466704
 30
0.0
 10
23.22284767841873
 20
19.70854305198495
 30
0.0
 10
23.60381064354702
 20
19.77997226220608
 30
0.0
 10
23.98888619141082
 20
19.79082431298461
 30
0.0
 10
24.21509708223019
 20
19.81272758412443
 30
0.0
 10
24.4413833345133
 20
19.74987074040371
 30
0.0
 10
24.62388726784441
 20
19.61443542413982
 30
0.0
 10
24.76499891721641
 20
19.43804653529503
 30
0.0
 10
24.37694390005404
 20
19.12054599707824
 30
0.0
 10
23.53027669530287
 20
18.69721374044308
 30
0.0
 10
23.53027669530287
 20
18.69721374044308
 30
0.0
 10
22.54249918692012
 20
18.23860155285428
 30
0.0
 10
22.54249918692012
 20
18.23860155285428
 30
0.0
 10
22.37277036743334
 20
18.13060319235339
 30
0.0
 10
22.21849064801322
 20
18.00005829679005
 30
0.0
 10
22.08388834507175
 20
17.85054653569191
 30
0.0
 10
21.92059081907091
 20
17.70579869569446
 30
0.0
 10
21.81948668676179
 20
17.50359043107623
 30
0.0
 10
21.80166639206817
 20
17.28610262968474
 30
0.0
 10
21.76309343429718
 20
17.08353908959459
 30
0.0
 10
21.84570171021986
 20
16.87701907265811
 30
0.0
 10
22.01333252038575
 20
16.75693596315037
 30
0.0
 10
22.10035347915848
 20
16.64361654501328
 30
0.0
 10
22.20809345749797
 20
16.54784827348503
 30
0.0
 10
22.33083305860254
 20
16.47471266440636
 30
0.0
 10
22.48514507579283
 20
16.39708766527348
 30
0.0
 10
22.65269245005243
 20
16.34921698691359
 30
0.0
 10
22.8247211399237
 20
16.33360101503436
 30
0.0
 10
23.1185420296411
 20
16.29451802164271
 30
0.0
 10
23.41690613902967
 20
16.30645204772208
 30
0.0
 10
23.70666558414766
 20
16.36887825450715
 30
0.0
 10
23.70666558414766
 20
16.36887825450715
 30
0.0
 10
23.98888888289167
 20
16.43943273345273
 30
0.0
 10
23.98888888289167
 20
16.43943273345273
 30
0.0
 10
23.79952436487939
 20
16.21977021553618
 30
0.0
 10
23.67709428407232
 20
15.95043103561084
 30
0.0
 10
23.63611110520208
 20
15.66332269912798
 30
0.0
 10
23.56221649852432
 20
15.30121086585805
 30
0.0
 10
23.68256875611685
 20
14.92678281622835
 30
0.0
 10
23.95361164341888
 20
14.67554384500481
 30
0.0
 10
23.95361164341888
 20
14.67554384500481
 30
0.0
 10
24.27111218163567
 20
14.3933205462608
 30
0.0
 10
24.27111218163567
 20
14.3933205462608
 30
0.0
 10
24.41092115427732
 20
14.28876458976432
 30
0.0
 10
24.56547675048434
 20
14.2055413104679
 30
0.0
 10
24.72972436922447
 20
14.14637717847043
 30
0.0
 10
24.72972436922447
 20
14.14637717847043
 30
0.0
 10
25.36472544565806
 20
13.96998828962564
 30
0.0
 10
25.36472544565806
 20
13.96998828962564
 30
0.0
 10
25.36472544565806
 20
13.96998828962564
 30
0.0
 10
26.21139265040923
 20
13.96998828962564
 30
0.0
 10
26.21139265040923
 20
13.96998828962564
 30
0.0
 10
26.21139265040923
 20
13.96998828962564
 30
0.0
 10
26.07028100103723
 20
13.75832216130806
 30
0.0
 10
26.07028100103723
 20
13.75832216130806
 30
0.0
 10
25.97244298073698
 20
13.52381612651561
 30
0.0
 10
25.92439197316029
 20
13.27154093516565
 30
0.0
 10
25.92916935166522
 20
13.01748936645611
 30
0.0
 10
25.94549318300744
 20
12.75147416537786
 30
0.0
 10
26.05839811309396
 20
12.50057432074115
 30
0.0
 10
26.24666988988202
 20
12.31193381107694
 30
0.0
 10
26.24666988988202
 20
12.31193381107694
 30
0.0
 10
26.70528207747082
 20
11.95915603338736
 30
0.0
 10
26.70528207747082
 20
11.95915603338736
 30
0.0
 10
26.95512147865347
 20
11.78155328668018
 30
0.0
 10
27.24693183217753
 20
11.67212305836824
 30
0.0
 10
27.55194928222199
 20
11.64165549517056
 30
0.0
 10
27.54560277038275
 20
11.52921080830902
 30
0.0
 10
27.59929781329739
 20
11.42182072247975
 30
0.0
 10
27.69306093159399
 20
11.35943219642656
 30
0.0
 10
27.69306093159399
 20
11.35943219642656
 30
0.0
 10
28.29278207707394
 20
11.04193165820976
 30
0.0
 10
28.29278207707394
 20
11.04193165820976
 30
0.0
 10
28.32368027720728
 20
10.8959457370223
 30
0.0
 10
28.37102073384013
 20
10.75392705860457
 30
0.0
 10
28.43389372644594
 20
10.6185994015746
 30
0.0
 10
28.43389372644594
 20
10.6185994015746
 30
0.0
 10
27.86944982043878
 20
10.90082270031861
 30
0.0
 10
27.86944982043878
 20
10.90082270031861
 30
0.0
 10
27.75319130521584
 20
10.97213079390158
 30
0.0
 10
27.60114147767817
 20
10.93569083470252
 30
0.0
 10
27.52983338409519
 20
10.81943231947958
 30
0.0
 10
27.52499141004991
 20
10.81153820615283
 30
0.0
 10
27.52059891330621
 20
10.80337763622214
 30
0.0
 10
27.5166720427492
 20
10.79498829041939
 30
0.0
 10
27.45978221206816
 20
10.66740940675039
 30
0.0
 10
27.50478377184424
 20
10.51740779613793
 30
0.0
 10
27.62250645264841
 20
10.44221051272981
 30
0.0
 10
27.62250645264841
 20
10.44221051272981
 30
0.0
 10
28.57499999285625
 20
9.948326468629919
 30
0.0
 10
28.57499999285625
 20
9.948326468629919
 30
0.0
 10
28.63787298546206
 20
9.812998811599948
 30
0.0
 10
28.68521344209492
 20
9.67098013318222
 30
0.0
 10
28.71611164222825
 20
9.524994211994757
 30
0.0
 10
28.71611164222825
 20
9.524994211994757
 30
0.0
 10
27.76361271905872
 20
10.05416087852913
 30
0.0
 10
27.76361271905872
 20
10.05416087852913
 30
0.0
 10
27.66619456977073
 20
10.15157902781712
 30
0.0
 10
27.50825309065712
 20
10.15157902781712
 30
0.0
 10
27.41083494136914
 20
10.05416087852913
 30
0.0
 10
27.31341679208115
 20
9.95674272924115
 30
0.0
 10
27.31341679208115
 20
9.798801250127532
 30
0.0
 10
27.41083494136914
 20
9.70138310083955
 30
0.0
 10
27.41083494136914
 20
9.70138310083955
 30
0.0
 10
28.01055608684909
 20
8.748884177670014
 30
0.0
 10
28.01055608684909
 20
8.748884177670014
 30
0.0
 10
28.01055608684909
 20
8.748884177670014
 30
0.0
 10
27.55194389926029
 20
8.854718587569227
 30
0.0
 10
27.55194389926029
 20
8.854718587569227
 30
0.0
 10
27.55194389926029
 20
8.854718587569227
 30
0.0
 10
26.98749999325313
 20
9.807214819257915
 30
0.0
 10
26.98749999325313
 20
9.807214819257915
 30
0.0
  0
SPLINE
  5
4F
330
49
100
AcDbEntity
  8
Layer 1
370
     0
100
AcDbSpline
210
0.0
220
0.0
230
1.0
 70
    11
 71
     3
 72
    20
 73
    16
 74
     0
 42
0.0000000001
 43
0.0000000001
 12
1.0
 22
0.0
 32
0.0
 13
1.0
 23
0.0
 33
0.0
 40
0.0
 40
0.0
 40
0.0
 40
0.0
 40
1.0
 40
1.0
 40
1.0
 40
2.0
 40
2.0
 40
2.0
 40
3.0
 40
3.0
 40
3.0
 40
4.0
 40
4.0
 40
4.0
 40
5.0
 40
5.0
 40
5.0
 40
5.0
 10
27.26972329199713
 20
8.678327007243588
 30
0.0
 10
27.26972329199713
 20
8.60777252829801
 30
0.0
 10
27.19916881305155
 20
8.572492597344374
 30
0.0
 10
27.12861164262513
 20
8.572492597344374
 30
0.0
 10
27.05915259638463
 20
8.602502608797918
 30
0.0
 10
27.01657067789077
 20
8.673471575794064
 30
0.0
 10
27.02277723272591
 20
8.748881486189166
 30
0.0
 10
27.05805447219871
 20
8.784158725661955
 30
0.0
 10
27.12861164262513
 20
8.85471589608838
 30
0.0
 10
27.19916612157071
 20
8.819435965134742
 30
0.0
 10
27.25556071977574
 20
8.804067609493512
 30
0.0
 10
27.28881665713179
 20
8.74589394244805
 30
0.0
 10
27.27344830149056
 20
8.68949934424302
 30
0.0
 10
27.27241477284498
 20
8.685707047728396
 30
0.0
 10
27.27117130869328
 20
8.681976655273274
 30
0.0
 10
27.26972329199713
 20
8.678327007243588
 30
0.0
  0
POLYLINE
  5
50
330
49
100
AcDbEntity
  8
Layer 1
370
     0
100
AcDb2dPolyline
 66
     1
 10
0.0
 20
0.0
 30
0.0
  0
VERTEX
  5
51
330
50
100
AcDbEntity
  8
Layer 1
370
     0
100
AcDbVertex
100
AcDb2dVertex
 10
26.74055662546276
 20
8.537215357871585
 30
0.0
  0
VERTEX
  5
52
330
50
100
AcDbEntity
  8
Layer 1
370
     0
100
AcDbVertex
100
AcDb2dVertex
 10
26.3172243688276
 20
8.290271990081216
 30
0.0
  0
VERTEX
  5
53
330
50
100
AcDbEntity
  8
Layer 1
370
     0
100
AcDbVertex
100
AcDb2dVertex
 10
26.1408354799828
 20
8.537215357871585
 30
0.0
  0
VERTEX
  5
54
330
50
100
AcDbEntity
  8
Layer 1
370
     0
100
AcDbVertex
100
AcDb2dVertex
 10
26.3172243688276
 20
8.6430497677708
 30
0.0
  0
VERTEX
  5
55
330
50
100
AcDbEntity
  8
Layer 1
370
     0
100
AcDbVertex
100
AcDb2dVertex
 10
26.74055662546276
 20
8.537215357871585
 30
0.0
  0
SEQEND
  5
56
330
50
100
AcDbEntity
  8
Layer 1
370
     0
  0
SPLINE
  5
57
330
49
100
AcDbEntity
  8
Layer 1
370
     0
100
AcDbSpline
210
0.0
220
0.0
230
1.0
 70
    11
 71
     3
 72
    20
 73
    16
 74
     0
 42
0.0000000001
 43
0.0000000001
 12
1.0
 22
0.0
 32
0.0
 13
1.0
 23
0.0
 33
0.0
 40
0.0
 40
0.0
 40
0.0
 40
0.0
 40
1.0
 40
1.0
 40
1.0
 40
2.0
 40
2.0
 40
2.0
 40
3.0
 40
3.0
 40
3.0
 40
4.0
 40
4.0
 40
4.0
 40
5.0
 40
5.0
 40
5.0
 40
5.0
 10
26.1408354799828
 20
8.960547614506746
 30
0.0
 10
26.1408354799828
 20
8.889993135561168
 30
0.0
 10
26.07028100103723
 20
8.854713204607531
 30
0.0
 10
25.9997238306108
 20
8.854713204607531
 30
0.0
 10
25.9997238306108
 20
8.854713204607531
 30
0.0
 10
25.92916935166522
 20
8.854713204607531
 30
0.0
 10
25.92916935166522
 20
8.854713204607531
 30
0.0
 10
25.92916935166522
 20
8.854713204607531
 30
0.0
 10
25.92916935166522
 20
8.925267683553109
 30
0.0
 10
25.92916935166522
 20
8.925267683553109
 30
0.0
 10
25.95392290102291
 20
8.983220649169047
 30
0.0
 10
26.00771483724807
 20
9.023563255597491
 30
0.0
 10
26.07028100103723
 20
9.031102093452324
 30
0.0
 10
26.10555554902917
 20
9.06638202440596
 30
0.0
 10
26.17611002797474
 20
8.995824853979535
 30
0.0
 10
26.1408354799828
 20
8.960547614506746
 30
0.0
  0
POLYLINE
  5
58
330
49
100
AcDbEntity
  8
Layer 1
370
     0
100
AcDb2dPolyline
 66
     1
 10
0.0
 20
0.0
 30
0.0
  0
VERTEX
  5
59
330
58
100
AcDbEntity
  8
Layer 1
370
     0
100
AcDbVertex
100
AcDb2dVertex
 10
24.20055770269009
 20
9.31332539219633
 30
0.0
  0
VERTEX
  5
5A
330
58
100
AcDbEntity
  8
Layer 1
370
     0
100
AcDbVertex
100
AcDb2dVertex
 10
23.35388780645808
 20
9.31332539219633
 30
0.0
  0
VERTEX
  5
5B
330
58
100
AcDbEntity
  8
Layer 1
370
     0
100
AcDbVertex
100
AcDb2dVertex
 10
22.85999837939649
 20
8.784158725661955
 30
0.0
  0
VERTEX
  5
5C
330
58
100
AcDbEntity
  8
Layer 1
370
     0
100
AcDbVertex
100
AcDb2dVertex
 10
22.61305501160612
 20
9.52499152051391
 30
0.0
  0
VERTEX
  5
5D
330
58
100
AcDbEntity
  8
Layer 1
370
     0
100
AcDbVertex
100
AcDb2dVertex
 10
21.87222221675417
 20
9.877769298203493
 30
0.0
  0
VERTEX
  5
5E
330
58
100
AcDbEntity
  8
Layer 1
370
     0
100
AcDbVertex
100
AcDb2dVertex
 10
22.57777777213333
 20
10.26582431536587
 30
0.0
  0
VERTEX
  5
5F
330
58
100
AcDbEntity
  8
Layer 1
370
     0
100
AcDbVertex
100
AcDb2dVertex
 10
22.64833225107891
 20
11.00665711021782
 30
0.0
  0
VERTEX
  5
60
330
58
100
AcDbEntity
  8
Layer 1
370
     0
100
AcDbVertex
100
AcDb2dVertex
 10
23.2833333275125
 20
10.58332485358266
 30
0.0
  0
VERTEX
  5
61
330
58
100
AcDbEntity
  8
Layer 1
370
     0
100
AcDbVertex
100
AcDb2dVertex
 10
24.02416612236446
 20
10.79499098190024
 30
0.0
  0
VERTEX
  5
62
330
58
100
AcDbEntity
  8
Layer 1
370
     0
100
AcDbVertex
100
AcDb2dVertex
 10
23.77722275457409
 20
9.94832377714907
 30
0.0
  0
VERTEX
  5
63
330
58
100
AcDbEntity
  8
Layer 1
370
     0
100
AcDbVertex
100
AcDb2dVertex
 10
24.20055770269009
 20
9.31332539219633
 30
0.0
  0
SEQEND
  5
64
330
58
100
AcDbEntity
  8
Layer 1
370
     0
  0
POLYLINE
  5
65
330
49
100
AcDbEntity
  8
Layer 1
370
     0
100
AcDb2dPolyline
 66
     1
 10
0.0
 20
0.0
 30
0.0
  0
VERTEX
  5
66
330
65
100
AcDbEntity
  8
Layer 1
370
     0
100
AcDbVertex
100
AcDb2dVertex
 10
20.28472490863189
 20
9.172213742824326
 30
0.0
  0
VERTEX
  5
67
330
65
100
AcDbEntity
  8
Layer 1
370
     0
100
AcDbVertex
100
AcDb2dVertex
 10
19.57916935325272
 20
8.925270375033957
 30
0.0
  0
VERTEX
  5
68
330
65
100
AcDbEntity
  8
Layer 1
370
     0
100
AcDbVertex
100
AcDb2dVertex
 10
18.59139184486997
 20
9.736660340312339
 30
0.0
  0
VERTEX
  5
69
330
65
100
AcDbEntity
  8
Layer 1
370
     0
100
AcDbVertex
100
AcDb2dVertex
 10
18.45028019549797
 20
8.43138363945322
 30
0.0
  0
VERTEX
  5
6A
330
65
100
AcDbEntity
  8
Layer 1
370
     0
100
AcDbVertex
100
AcDb2dVertex
 10
17.7447246401188
 20
8.078605861763636
 30
0.0
  0
VERTEX
  5
6B
330
65
100
AcDbEntity
  8
Layer 1
370
     0
100
AcDbVertex
100
AcDb2dVertex
 10
18.94416962255956
 20
11.74749528803147
 30
0.0
  0
VERTEX
  5
6C
330
65
100
AcDbEntity
  8
Layer 1
370
     0
100
AcDbVertex
100
AcDb2dVertex
 10
18.1327810030216
 20
11.57110639918668
 30
0.0
  0
VERTEX
  5
6D
330
65
100
AcDbEntity
  8
Layer 1
370
     0
100
AcDbVertex
100
AcDb2dVertex
 10
18.83833655840077
 20
12.41777360393785
 30
0.0
  0
VERTEX
  5
6E
330
65
100
AcDbEntity
  8
Layer 1
370
     0
100
AcDbVertex
100
AcDb2dVertex
 10
21.37833682691385
 20
12.20610747562027
 30
0.0
  0
VERTEX
  5
6F
330
65
100
AcDbEntity
  8
Layer 1
370
     0
100
AcDbVertex
100
AcDb2dVertex
 10
21.23722517754185
 20
11.00666249317952
 30
0.0
  0
VERTEX
  5
70
330
65
100
AcDbEntity
  8
Layer 1
370
     0
100
AcDbVertex
100
AcDb2dVertex
 10
19.22639157556314
 20
9.666105861366761
 30
0.0
  0
VERTEX
  5
71
330
65
100
AcDbEntity
  8
Layer 1
370
     0
100
AcDbVertex
100
AcDb2dVertex
 10
20.28472490863189
 20
9.172213742824326
 30
0.0
  0
SEQEND
  5
72
330
65
100
AcDbEntity
  8
Layer 1
370
     0
  0
POLYLINE
  5
73
330
49
100
AcDbEntity
  8
Layer 1
370
     0
100
AcDb2dPolyline
 66
     1
 10
0.0
 20
0.0
 30
0.0
  0
VERTEX
  5
74
330
73
100
AcDbEntity
  8
Layer 1
370
     0
100
AcDbVertex
100
AcDb2dVertex
 10
18.73250214850155
 20
7.902214281437996
 30
0.0
  0
VERTEX
  5
75
330
73
100
AcDbEntity
  8
Layer 1
370
     0
100
AcDbVertex
100
AcDb2dVertex
 10
19.08527992619114
 20
8.149157649228366
 30
0.0
  0
VERTEX
  5
76
330
73
100
AcDbEntity
  8
Layer 1
370
     0
100
AcDbVertex
100
AcDb2dVertex
 10
19.08527992619114
 20
8.501935426917948
 30
0.0
  0
VERTEX
  5
77
330
73
100
AcDbEntity
  8
Layer 1
370
     0
100
AcDbVertex
100
AcDb2dVertex
 10
19.40278046440793
 20
8.254992059127579
 30
0.0
  0
VERTEX
  5
78
330
73
100
AcDbEntity
  8
Layer 1
370
     0
100
AcDbVertex
100
AcDb2dVertex
 10
19.7908354815703
 20
8.360826469026794
 30
0.0
  0
VERTEX
  5
79
330
73
100
AcDbEntity
  8
Layer 1
370
     0
100
AcDbVertex
100
AcDb2dVertex
 10
19.68500241741151
 20
7.937494212391632
 30
0.0
  0
VERTEX
  5
7A
330
73
100
AcDbEntity
  8
Layer 1
370
     0
100
AcDbVertex
100
AcDb2dVertex
 10
19.8966685457291
 20
7.619993674174838
 30
0.0
  0
VERTEX
  5
7B
330
73
100
AcDbEntity
  8
Layer 1
370
     0
100
AcDbVertex
100
AcDb2dVertex
 10
19.47333359761308
 20
7.619993674174838
 30
0.0
  0
VERTEX
  5
7C
330
73
100
AcDbEntity
  8
Layer 1
370
     0
100
AcDbVertex
100
AcDb2dVertex
 10
19.22638888408229
 20
7.337770375430832
 30
0.0
  0
VERTEX
  5
7D
330
73
100
AcDbEntity
  8
Layer 1
370
     0
100
AcDbVertex
100
AcDb2dVertex
 10
19.1205558199235
 20
7.761102632065993
 30
0.0
  0
VERTEX
  5
7E
330
73
100
AcDbEntity
  8
Layer 1
370
     0
100
AcDbVertex
100
AcDb2dVertex
 10
18.73250214850155
 20
7.902214281437996
 30
0.0
  0
SEQEND
  5
7F
330
73
100
AcDbEntity
  8
Layer 1
370
     0
  0
POLYLINE
  5
80
330
49
100
AcDbEntity
  8
Layer 1
370
     0
100
AcDb2dPolyline
 66
     1
 10
0.0
 20
0.0
 30
0.0
  0
VERTEX
  5
81
330
80
100
AcDbEntity
  8
Layer 1
370
     0
100
AcDbVertex
100
AcDb2dVertex
 10
18.90889103734635
 20
6.173602632462868
 30
0.0
  0
VERTEX
  5
82
330
80
100
AcDbEntity
  8
Layer 1
370
     0
100
AcDbVertex
100
AcDb2dVertex
 10
18.02694659312239
 20
7.584713743221202
 30
0.0
  0
VERTEX
  5
83
330
80
100
AcDbEntity
  8
Layer 1
370
     0
100
AcDbVertex
100
AcDb2dVertex
 10
18.62666908434277
 20
7.302490444477195
 30
0.0
  0
VERTEX
  5
84
330
80
100
AcDbEntity
  8
Layer 1
370
     0
100
AcDbVertex
100
AcDb2dVertex
 10
18.90889103734635
 20
6.173602632462868
 30
0.0
  0
SEQEND
  5
85
330
80
100
AcDbEntity
  8
Layer 1
370
     0
  0
POLYLINE
  5
86
330
49
100
AcDbEntity
  8
Layer 1
370
     0
100
AcDb2dPolyline
 66
     1
 10
0.0
 20
0.0
 30
0.0
  0
VERTEX
  5
87
330
86
100
AcDbEntity
  8
Layer 1
370
     0
100
AcDbVertex
100
AcDb2dVertex
 10
11.71222248844225
 20
2.786936504939038
 30
0.0
  0
VERTEX
  5
88
330
86
100
AcDbEntity
  8
Layer 1
370
     0
100
AcDbVertex
100
AcDb2dVertex
 10
11.57111083907025
 20
3.17499152210141
 30
0.0
  0
VERTEX
  5
89
330
86
100
AcDbEntity
  8
Layer 1
370
     0
100
AcDbVertex
100
AcDb2dVertex
 10
11.14777723669466
 20
3.351380410946201
 30
0.0
  0
VERTEX
  5
8A
330
86
100
AcDbEntity
  8
Layer 1
370
     0
100
AcDbVertex
100
AcDb2dVertex
 10
11.53583225385704
 20
3.59832377873657
 30
0.0
  0
VERTEX
  5
8B
330
86
100
AcDbEntity
  8
Layer 1
370
     0
100
AcDbVertex
100
AcDb2dVertex
 10
11.53583225385704
 20
4.021656035371731
 30
0.0
  0
VERTEX
  5
8C
330
86
100
AcDbEntity
  8
Layer 1
370
     0
100
AcDbVertex
100
AcDb2dVertex
 10
11.88861003154662
 20
3.739432736627725
 30
0.0
  0
VERTEX
  5
8D
330
86
100
AcDbEntity
  8
Layer 1
370
     0
100
AcDbVertex
100
AcDb2dVertex
 10
12.3119436339222
 20
3.880544385999728
 30
0.0
  0
VERTEX
  5
8E
330
86
100
AcDbEntity
  8
Layer 1
370
     0
100
AcDbVertex
100
AcDb2dVertex
 10
12.1708319845502
 20
3.386654958938142
 30
0.0
  0
VERTEX
  5
8F
330
86
100
AcDbEntity
  8
Layer 1
370
     0
100
AcDbVertex
100
AcDb2dVertex
 10
12.417776698081
 20
3.033877181248559
 30
0.0
  0
VERTEX
  5
90
330
86
100
AcDbEntity
  8
Layer 1
370
     0
100
AcDbVertex
100
AcDb2dVertex
 10
11.99444444144583
 20
3.033877181248559
 30
0.0
  0
VERTEX
  5
91
330
86
100
AcDbEntity
  8
Layer 1
370
     0
100
AcDbVertex
100
AcDb2dVertex
 10
11.71222248844225
 20
2.751653882504553
 30
0.0
  0
VERTEX
  5
92
330
86
100
AcDbEntity
  8
Layer 1
370
     0
100
AcDbVertex
100
AcDb2dVertex
 10
11.71222248844225
 20
2.786936504939038
 30
0.0
  0
SEQEND
  5
93
330
86
100
AcDbEntity
  8
Layer 1
370
     0
  0
POLYLINE
  5
94
330
49
100
AcDbEntity
  8
Layer 1
370
     0
100
AcDb2dPolyline
 66
     1
 10
0.0
 20
0.0
 30
0.0
  0
VERTEX
  5
95
330
94
100
AcDbEntity
  8
Layer 1
370
     0
100
AcDbVertex
100
AcDb2dVertex
 10
12.98222194982858
 20
7.796379871538782
 30
0.0
  0
VERTEX
  5
96
330
94
100
AcDbEntity
  8
Layer 1
370
     0
100
AcDbVertex
100
AcDb2dVertex
 10
14.00527804342454
 20
8.431380947972372
 30
0.0
  0
VERTEX
  5
97
330
94
100
AcDbEntity
  8
Layer 1
370
     0
100
AcDbVertex
100
AcDb2dVertex
 10
14.11111110758333
 20
9.48971428104112
 30
0.0
  0
VERTEX
  5
98
330
94
100
AcDbEntity
  8
Layer 1
370
     0
100
AcDbVertex
100
AcDb2dVertex
 10
15.06361137649329
 20
8.784158725661955
 30
0.0
  0
VERTEX
  5
99
330
94
100
AcDbEntity
  8
Layer 1
370
     0
100
AcDbVertex
100
AcDb2dVertex
 10
16.15722194903483
 20
9.10165926387875
 30
0.0
  0
VERTEX
  5
9A
330
94
100
AcDbEntity
  8
Layer 1
370
     0
100
AcDbVertex
100
AcDb2dVertex
 10
15.80444417134525
 20
7.866937041965207
 30
0.0
  0
VERTEX
  5
9B
330
94
100
AcDbEntity
  8
Layer 1
370
     0
100
AcDbVertex
100
AcDb2dVertex
 10
16.40416666256563
 20
6.914438118795672
 30
0.0
  0
VERTEX
  5
9C
330
94
100
AcDbEntity
  8
Layer 1
370
     0
100
AcDbVertex
100
AcDb2dVertex
 10
15.16944444065208
 20
6.914438118795672
 30
0.0
  0
VERTEX
  5
9D
330
94
100
AcDbEntity
  8
Layer 1
370
     0
100
AcDbVertex
100
AcDb2dVertex
 10
14.42861164580013
 20
6.138328084470927
 30
0.0
  0
VERTEX
  5
9E
330
94
100
AcDbEntity
  8
Layer 1
370
     0
100
AcDbVertex
100
AcDb2dVertex
 10
14.04055662863776
 20
7.267215896485255
 30
0.0
  0
VERTEX
  5
9F
330
94
100
AcDbEntity
  8
Layer 1
370
     0
100
AcDbVertex
100
AcDb2dVertex
 10
12.98222194982858
 20
7.796379871538782
 30
0.0
  0
SEQEND
  5
A0
330
94
100
AcDbEntity
  8
Layer 1
370
     0
  0
POLYLINE
  5
A1
330
49
100
AcDbEntity
  8
Layer 1
370
     0
100
AcDb2dPolyline
 66
     1
 10
0.0
 20
0.0
 30
0.0
  0
VERTEX
  5
A2
330
A1
100
AcDbEntity
  8
Layer 1
370
     0
100
AcDbVertex
100
AcDb2dVertex
 10
13.51138861636296
 20
2.681102095039823
 30
0.0
  0
VERTEX
  5
A3
330
A1
100
AcDbEntity
  8
Layer 1
370
     0
100
AcDbVertex
100
AcDb2dVertex
 10
12.84111030045658
 20
3.59832377873657
 30
0.0
  0
VERTEX
  5
A4
330
A1
100
AcDbEntity
  8
Layer 1
370
     0
100
AcDbVertex
100
AcDb2dVertex
 10
13.12333225346016
 20
4.092213205798156
 30
0.0
  0
VERTEX
  5
A5
330
A1
100
AcDbEntity
  8
Layer 1
370
     0
100
AcDbVertex
100
AcDb2dVertex
 10
13.51138861636296
 20
2.681102095039823
 30
0.0
  0
SEQEND
  5
A6
330
A1
100
AcDbEntity
  8
Layer 1
370
     0
  0
POLYLINE
  5
A7
330
49
100
AcDbEntity
  8
Layer 1
370
     0
100
AcDb2dPolyline
 66
     1
 10
0.0
 20
0.0
 30
0.0
  0
VERTEX
  5
A8
330
A7
100
AcDbEntity
  8
Layer 1
370
     0
100
AcDbVertex
100
AcDb2dVertex
 10
15.34583332949687
 20
10.79499098190024
 30
0.0
  0
VERTEX
  5
A9
330
A7
100
AcDbEntity
  8
Layer 1
370
     0
100
AcDbVertex
100
AcDb2dVertex
 10
12.45305528329421
 20
13.26443542572732
 30
0.0
  0
VERTEX
  5
AA
330
A7
100
AcDbEntity
  8
Layer 1
370
     0
100
AcDbVertex
100
AcDb2dVertex
 10
12.34722221913542
 20
12.17082485318578
 30
0.0
  0
VERTEX
  5
AB
330
A7
100
AcDbEntity
  8
Layer 1
370
     0
100
AcDbVertex
100
AcDb2dVertex
 10
12.02972168091862
 20
12.59415710982095
 30
0.0
  0
VERTEX
  5
AC
330
A7
100
AcDbEntity
  8
Layer 1
370
     0
100
AcDbVertex
100
AcDb2dVertex
 10
12.45305528329421
 20
13.89943381068007
 30
0.0
  0
VERTEX
  5
AD
330
A7
100
AcDbEntity
  8
Layer 1
370
     0
100
AcDbVertex
100
AcDb2dVertex
 10
11.74749972791504
 20
13.82887933173449
 30
0.0
  0
VERTEX
  5
AE
330
A7
100
AcDbEntity
  8
Layer 1
370
     0
100
AcDbVertex
100
AcDb2dVertex
 10
12.66472141161179
 20
15.02832431417524
 30
0.0
  0
VERTEX
  5
AF
330
A7
100
AcDbEntity
  8
Layer 1
370
     0
100
AcDbVertex
100
AcDb2dVertex
 10
14.39333306058692
 20
14.85193542533045
 30
0.0
  0
VERTEX
  5
B0
330
A7
100
AcDbEntity
  8
Layer 1
370
     0
100
AcDbVertex
100
AcDb2dVertex
 10
13.37027696699096
 20
14.18165710942407
 30
0.0
  0
VERTEX
  5
B1
330
A7
100
AcDbEntity
  8
Layer 1
370
     0
100
AcDbVertex
100
AcDb2dVertex
 10
16.15722194903483
 20
13.05276929740974
 30
0.0
  0
VERTEX
  5
B2
330
A7
100
AcDbEntity
  8
Layer 1
370
     0
100
AcDbVertex
100
AcDb2dVertex
 10
16.61583279088321
 20
11.14776875958982
 30
0.0
  0
VERTEX
  5
B3
330
A7
100
AcDbEntity
  8
Layer 1
370
     0
100
AcDbVertex
100
AcDb2dVertex
 10
15.34583332949687
 20
10.79499098190024
 30
0.0
  0
SEQEND
  5
B4
330
A7
100
AcDbEntity
  8
Layer 1
370
     0
  0
POLYLINE
  5
B5
330
49
100
AcDbEntity
  8
Layer 1
370
     0
100
AcDb2dPolyline
 66
     1
 10
0.0
 20
0.0
 30
0.0
  0
VERTEX
  5
B6
330
B5
100
AcDbEntity
  8
Layer 1
370
     0
100
AcDbVertex
100
AcDb2dVertex
 10
10.6186112430305
 20
10.51276768315623
 30
0.0
  0
VERTEX
  5
B7
330
B5
100
AcDbEntity
  8
Layer 1
370
     0
100
AcDbVertex
100
AcDb2dVertex
 10
11.39472195022546
 20
11.50054653727941
 30
0.0
  0
VERTEX
  5
B8
330
B5
100
AcDbEntity
  8
Layer 1
370
     0
100
AcDbVertex
100
AcDb2dVertex
 10
12.34722221913542
 20
11.42999205833383
 30
0.0
  0
VERTEX
  5
B9
330
B5
100
AcDbEntity
  8
Layer 1
370
     0
100
AcDbVertex
100
AcDb2dVertex
 10
12.24138915497663
 20
9.454437041568331
 30
0.0
  0
VERTEX
  5
BA
330
B5
100
AcDbEntity
  8
Layer 1
370
     0
100
AcDbVertex
100
AcDb2dVertex
 10
11.78277831312825
 20
9.172213742824326
 30
0.0
  0
VERTEX
  5
BB
330
B5
100
AcDbEntity
  8
Layer 1
370
     0
100
AcDbVertex
100
AcDb2dVertex
 10
11.39472329596588
 20
9.73665764883149
 30
0.0
  0
VERTEX
  5
BC
330
B5
100
AcDbEntity
  8
Layer 1
370
     0
100
AcDbVertex
100
AcDb2dVertex
 10
11.74750107365547
 20
10.72443650295466
 30
0.0
  0
VERTEX
  5
BD
330
B5
100
AcDbEntity
  8
Layer 1
370
     0
100
AcDbVertex
100
AcDb2dVertex
 10
10.6186112430305
 20
10.51276768315623
 30
0.0
  0
SEQEND
  5
BE
330
B5
100
AcDbEntity
  8
Layer 1
370
     0
  0
SPLINE
  5
BF
330
49
100
AcDbEntity
  8
Layer 1
370
     0
100
AcDbSpline
210
0.0
220
0.0
230
1.0
 70
    11
 71
     3
 72
    89
 73
    85
 74
     0
 42
0.0000000001
 43
0.0000000001
 12
1.0
 22
0.0
 32
0.0
 13
1.0
 23
0.0
 33
0.0
 40
0.0
 40
0.0
 40
0.0
 40
0.0
 40
1.0
 40
1.0
 40
1.0
 40
2.0
 40
2.0
 40
2.0
 40
3.0
 40
3.0
 40
3.0
 40
4.0
 40
4.0
 40
4.0
 40
5.0
 40
5.0
 40
5.0
 40
6.0
 40
6.0
 40
6.0
 40
7.0
 40
7.0
 40
7.0
 40
8.0
 40
8.0
 40
8.0
 40
9.0
 40
9.0
 40
9.0
 40
10.0
 40
10.0
 40
10.0
 40
11.0
 40
11.0
 40
11.0
 40
12.0
 40
12.0
 40
12.0
 40
13.0
 40
13.0
 40
13.0
 40
14.0
 40
14.0
 40
14.0
 40
15.0
 40
15.0
 40
15.0
 40
16.0
 40
16.0
 40
16.0
 40
17.0
 40
17.0
 40
17.0
 40
18.0
 40
18.0
 40
18.0
 40
19.0
 40
19.0
 40
19.0
 40
20.0
 40
20.0
 40
20.0
 40
21.0
 40
21.0
 40
21.0
 40
22.0
 40
22.0
 40
22.0
 40
23.0
 40
23.0
 40
23.0
 40
24.0
 40
24.0
 40
24.0
 40
25.0
 40
25.0
 40
25.0
 40
26.0
 40
26.0
 40
26.0
 40
27.0
 40
27.0
 40
27.0
 40
28.0
 40
28.0
 40
28.0
 40
28.0
 10
8.643055553394792
 20
12.98221212698332
 30
0.0
 10
8.643055553394792
 20
12.98221212698332
 30
0.0
 10
9.560277909961751
 20
13.22915549477369
 30
0.0
 10
9.560277909961751
 20
13.22915549477369
 30
0.0
 10
9.560277909961751
 20
13.22915549477369
 30
0.0
 10
9.207500132272168
 20
13.54665603299048
 30
0.0
 10
9.207500132272168
 20
13.54665603299048
 30
0.0
 10
9.207500132272168
 20
13.54665603299048
 30
0.0
 10
8.32555568804821
 20
13.29971266520011
 30
0.0
 10
8.32555568804821
 20
13.29971266520011
 30
0.0
 10
8.32555568804821
 20
13.29971266520011
 30
0.0
 10
7.937499998015626
 20
13.68776768236248
 30
0.0
 10
7.937499998015626
 20
13.68776768236248
 30
0.0
 10
7.937499998015626
 20
13.68776768236248
 30
0.0
 10
9.48972208527575
 20
14.11109993899765
 30
0.0
 10
9.48972208527575
 20
14.11109993899765
 30
0.0
 10
9.48972208527575
 20
14.11109993899765
 30
0.0
 10
9.172222219929168
 20
14.42860316869529
 30
0.0
 10
9.172222219929168
 20
14.42860316869529
 30
0.0
 10
9.172222219929168
 20
14.42860316869529
 30
0.0
 10
7.831666933856835
 20
14.0758253910057
 30
0.0
 10
7.831666933856835
 20
14.0758253910057
 30
0.0
 10
7.831666933856835
 20
14.0758253910057
 30
0.0
 10
8.043333735044628
 20
14.92249259575688
 30
0.0
 10
8.043333735044628
 20
14.92249259575688
 30
0.0
 10
8.043333735044628
 20
14.92249259575688
 30
0.0
 10
7.584722893196254
 20
14.81665818585766
 30
0.0
 10
7.584722893196254
 20
14.81665818585766
 30
0.0
 10
7.584722893196254
 20
14.81665818585766
 30
0.0
 10
7.514167068510252
 20
14.53443488711365
 30
0.0
 10
7.478889829037464
 20
14.32276875879607
 30
0.0
 10
7.478889829037464
 20
14.32276875879607
 30
0.0
 10
7.196667876033882
 20
14.64026929701287
 30
0.0
 10
7.196667876033882
 20
14.64026929701287
 30
0.0
 10
7.196667876033882
 20
14.64026929701287
 30
0.0
 10
7.373056764878673
 20
15.34582485239203
 30
0.0
 10
7.373056764878673
 20
15.34582485239203
 30
0.0
 10
7.373056764878673
 20
15.34582485239203
 30
0.0
 10
7.549445653723465
 20
16.0513804077712
 30
0.0
 10
7.549445653723465
 20
16.0513804077712
 30
0.0
 10
7.549445653723465
 20
16.0513804077712
 30
0.0
 10
7.97277925609905
 20
16.19249205714321
 30
0.0
 10
7.97277925609905
 20
16.19249205714321
 30
0.0
 10
7.902223431413049
 20
15.98082592882562
 30
0.0
 10
7.831668279597259
 20
15.69860263008162
 30
0.0
 10
7.831668279597259
 20
15.69860263008162
 30
0.0
 10
7.831668279597259
 20
15.69860263008162
 30
0.0
 10
8.149168144943841
 20
15.38110209186482
 30
0.0
 10
8.149168144943841
 20
15.38110209186482
 30
0.0
 10
8.149168144943841
 20
15.38110209186482
 30
0.0
 10
8.396112858474634
 20
16.22776929661599
 30
0.0
 10
8.396112858474634
 20
16.22776929661599
 30
0.0
 10
8.396112858474634
 20
16.22776929661599
 30
0.0
 10
9.383890366857383
 20
15.23999044249282
 30
0.0
 10
9.383890366857383
 20
15.23999044249282
 30
0.0
 10
9.383890366857383
 20
15.23999044249282
 30
0.0
 10
9.842501208705757
 20
15.38110209186482
 30
0.0
 10
9.842501208705757
 20
15.38110209186482
 30
0.0
 10
9.842501208705757
 20
15.38110209186482
 30
0.0
 10
8.9605567644818
 20
16.22776929661599
 30
0.0
 10
8.9605567644818
 20
16.22776929661599
 30
0.0
 10
8.9605567644818
 20
16.22776929661599
 30
0.0
 10
10.72444565292971
 20
15.41637933133761
 30
0.0
 10
10.72444565292971
 20
15.41637933133761
 30
0.0
 10
10.72444565292971
 20
15.41637933133761
 30
0.0
 10
11.18305649477809
 20
13.61721320341691
 30
0.0
 10
11.18305649477809
 20
13.61721320341691
 30
0.0
 10
11.18305649477809
 20
13.61721320341691
 30
0.0
 10
10.01889009755055
 20
14.53443488711365
 30
0.0
 10
10.01889009755055
 20
14.53443488711365
 30
0.0
 10
10.01889009755055
 20
14.53443488711365
 30
0.0
 10
10.01889009755055
 20
13.08804653688253
 30
0.0
 10
10.01889009755055
 20
13.08804653688253
 30
0.0
 10
10.01889009755055
 20
13.08804653688253
 30
0.0
 10
8.890000939795797
 20
12.41776822097615
 30
0.0
 10
8.890000939795797
 20
12.41776822097615
 30
0.0
 10
8.890000939795797
 20
12.41776822097615
 30
0.0
 10
8.925278852138797
 20
12.41776822097615
 30
0.0
 10
8.925278852138797
 20
12.41776822097615
 30
0.0
 10
8.925278852138797
 20
12.41776822097615
 30
0.0
 10
9.066389828640588
 20
12.55887987034816
 30
0.0
 10
9.066389828640588
 20
12.55887987034816
 30
0.0
 10
9.066389828640588
 20
12.55887987034816
 30
0.0
 10
8.643055553394792
 20
12.98221212698332
 30
0.0
 10
8.643055553394792
 20
12.98221212698332
 30
0.0
  0
SPLINE
  5
C0
330
49
100
AcDbEntity
  8
Layer 1
370
     0
100
AcDbSpline
210
0.0
220
0.0
230
1.0
 70
    11
 71
     3
 72
    20
 73
    16
 74
     0
 42
0.0000000001
 43
0.0000000001
 12
1.0
 22
0.0
 32
0.0
 13
1.0
 23
0.0
 33
0.0
 40
0.0
 40
0.0
 40
0.0
 40
0.0
 40
1.0
 40
1.0
 40
1.0
 40
2.0
 40
2.0
 40
2.0
 40
3.0
 40
3.0
 40
3.0
 40
4.0
 40
4.0
 40
4.0
 40
5.0
 40
5.0
 40
5.0
 40
5.0
 10
6.914444577289876
 20
14.64026660553202
 30
0.0
 10
6.596944711943293
 20
14.95776714374882
 30
0.0
 10
6.3147220860695
 20
15.27526768196561
 30
0.0
 10
5.997222220722917
 20
15.55748828922877
 30
0.0
 10
6.03684754750541
 20
15.64678624079878
 30
0.0
 10
6.060718291145004
 20
15.74227190683801
 30
0.0
 10
6.067778045408918
 20
15.83971158797277
 30
0.0
 10
6.067778045408918
 20
15.83971158797277
 30
0.0
 10
7.33777817966546
 20
16.19248936566236
 30
0.0
 10
7.33777817966546
 20
16.19248936566236
 30
0.0
 10
7.33777817966546
 20
16.19248936566236
 30
0.0
 10
6.667500536629295
 20
15.52221104975598
 30
0.0
 10
6.667500536629295
 20
15.52221104975598
 30
0.0
 10
6.667500536629295
 20
15.52221104975598
 30
0.0
 10
6.914444577289876
 20
14.64026660553202
 30
0.0
 10
6.914444577289876
 20
14.64026660553202
 30
0.0
  0
SPLINE
  5
C1
330
49
100
AcDbEntity
  8
Layer 1
370
     0
100
AcDbSpline
210
0.0
220
0.0
230
1.0
 70
    11
 71
     3
 72
    44
 73
    40
 74
     0
 42
0.0000000001
 43
0.0000000001
 12
1.0
 22
0.0
 32
0.0
 13
1.0
 23
0.0
 33
0.0
 40
0.0
 40
0.0
 40
0.0
 40
0.0
 40
1.0
 40
1.0
 40
1.0
 40
2.0
 40
2.0
 40
2.0
 40
3.0
 40
3.0
 40
3.0
 40
4.0
 40
4.0
 40
4.0
 40
5.0
 40
5.0
 40
5.0
 40
6.0
 40
6.0
 40
6.0
 40
7.0
 40
7.0
 40
7.0
 40
8.0
 40
8.0
 40
8.0
 40
9.0
 40
9.0
 40
9.0
 40
10.0
 40
10.0
 40
10.0
 40
11.0
 40
11.0
 40
11.0
 40
12.0
 40
12.0
 40
12.0
 40
13.0
 40
13.0
 40
13.0
 40
13.0
 10
2.786944477391219
 20
16.33360370651521
 30
0.0
 10
2.786944477391219
 20
16.33360370651521
 30
0.0
 10
2.539999932077979
 20
15.48693650176404
 30
0.0
 10
2.539999932077979
 20
15.48693650176404
 30
0.0
 10
2.539999932077979
 20
15.48693650176404
 30
0.0
 10
2.010833265543604
 20
16.01610316829841
 30
0.0
 10
2.010833265543604
 20
16.01610316829841
 30
0.0
 10
2.010833265543604
 20
16.01610316829841
 30
0.0
 10
2.010833265543604
 20
16.29832646704242
 30
0.0
 10
2.010833265543604
 20
16.29832646704242
 30
0.0
 10
2.010833265543604
 20
16.651104244732
 30
0.0
 10
2.046111009669052
 20
17.00388202242159
 30
0.0
 10
2.046111009669052
 20
17.32138256063838
 30
0.0
 10
2.046111009669052
 20
17.32138256063838
 30
0.0
 10
3.104444174520249
 20
17.63888309885517
 30
0.0
 10
3.104444174520249
 20
17.63888309885517
 30
0.0
 10
3.104444174520249
 20
17.63888309885517
 30
0.0
 10
2.892777373332456
 20
16.75693865463122
 30
0.0
 10
2.892777373332456
 20
16.75693865463122
 30
0.0
 10
2.892777373332456
 20
16.75693865463122
 30
0.0
 10
3.351388888051042
 20
16.89804761252237
 30
0.0
 10
3.351388888051042
 20
16.89804761252237
 30
0.0
 10
3.351388888051042
 20
16.89804761252237
 30
0.0
 10
3.457222288644938
 20
17.35665980011117
 30
0.0
 10
3.457222288644938
 20
17.35665980011117
 30
0.0
 10
3.457222288644938
 20
17.35665980011117
 30
0.0
 10
3.774722153991521
 20
17.07443650136716
 30
0.0
 10
3.774722153991521
 20
17.07443650136716
 30
0.0
 10
3.774722153991521
 20
17.07443650136716
 30
0.0
 10
3.386666800394043
 20
15.62804815113604
 30
0.0
 10
3.386666800394043
 20
15.62804815113604
 30
0.0
 10
3.386666800394043
 20
15.62804815113604
 30
0.0
 10
2.963333534453564
 20
15.52221374123683
 30
0.0
 10
2.963333534453564
 20
15.52221374123683
 30
0.0
 10
3.020407395137571
 20
15.68381025134183
 30
0.0
 10
3.067532869737708
 20
15.84874688917901
 30
0.0
 10
3.104444510955354
 20
16.01610316829841
 30
0.0
 10
3.104444510955354
 20
16.01610316829841
 30
0.0
 10
2.786944477391219
 20
16.33360370651521
 30
0.0
 10
2.786944477391219
 20
16.33360370651521
 30
0.0
  0
SPLINE
  5
C2
330
49
100
AcDbEntity
  8
Layer 1
370
     0
100
AcDbSpline
210
0.0
220
0.0
230
1.0
 70
    11
 71
     3
 72
    14
 73
    10
 74
     0
 42
0.0000000001
 43
0.0000000001
 12
1.0
 22
0.0
 32
0.0
 13
1.0
 23
0.0
 33
0.0
 40
0.0
 40
0.0
 40
0.0
 40
0.0
 40
1.0
 40
1.0
 40
1.0
 40
2.0
 40
2.0
 40
2.0
 40
3.0
 40
3.0
 40
3.0
 40
3.0
 10
2.1166666661375
 20
14.74610370691208
 30
0.0
 10
2.1166666661375
 20
14.74610370691208
 30
0.0
 10
2.363611043233187
 20
14.81665818585766
 30
0.0
 10
2.363611043233187
 20
14.81665818585766
 30
0.0
 10
2.363611043233187
 20
14.81665818585766
 30
0.0
 10
2.187222154388396
 20
14.11110263047849
 30
0.0
 10
2.187222154388396
 20
14.11110263047849
 30
0.0
 10
2.146289272566506
 20
14.32047023415201
 30
0.0
 10
2.12269070492765
 20
14.53285767933681
 30
0.0
 10
2.1166666661375
 20
14.74610370691208
 30
0.0
  0
POLYLINE
  5
C3
330
49
100
AcDbEntity
  8
Layer 1
370
     0
100
AcDb2dPolyline
 66
     1
 10
0.0
 20
0.0
 30
0.0
  0
VERTEX
  5
C4
330
C3
100
AcDbEntity
  8
Layer 1
370
     0
100
AcDbVertex
100
AcDb2dVertex
 10
2.222500066731396
 20
18.80304815034229
 30
0.0
  0
VERTEX
  5
C5
330
C3
100
AcDbEntity
  8
Layer 1
370
     0
100
AcDbVertex
100
AcDb2dVertex
 10
2.293055554982292
 20
18.73249367139671
 30
0.0
  0
VERTEX
  5
C6
330
C3
100
AcDbEntity
  8
Layer 1
370
     0
100
AcDbVertex
100
AcDb2dVertex
 10
2.222500066731396
 20
18.73249367139671
 30
0.0
  0
VERTEX
  5
C7
330
C3
100
AcDbEntity
  8
Layer 1
370
     0
100
AcDbVertex
100
AcDb2dVertex
 10
2.222500066731396
 20
18.80304815034229
 30
0.0
  0
SEQEND
  5
C8
330
C3
100
AcDbEntity
  8
Layer 1
370
     0
  0
SPLINE
  5
C9
330
49
100
AcDbEntity
  8
Layer 1
370
     0
100
AcDbSpline
210
0.0
220
0.0
230
1.0
 70
    11
 71
     3
 72
    17
 73
    13
 74
     0
 42
0.0000000001
 43
0.0000000001
 12
1.0
 22
0.0
 32
0.0
 13
1.0
 23
0.0
 33
0.0
 40
0.0
 40
0.0
 40
0.0
 40
0.0
 40
1.0
 40
1.0
 40
1.0
 40
2.0
 40
2.0
 40
2.0
 40
3.0
 40
3.0
 40
3.0
 40
4.0
 40
4.0
 40
4.0
 40
4.0
 10
2.151944578480501
 20
18.27388148380792
 30
0.0
 10
2.151944578480501
 20
18.27388148380792
 30
0.0
 10
2.610555756763981
 20
18.41499313317992
 30
0.0
 10
2.610555756763981
 20
18.41499313317992
 30
0.0
 10
2.610555756763981
 20
18.41499313317992
 30
0.0
 10
2.998611446796565
 20
18.02693811601755
 30
0.0
 10
2.998611446796565
 20
18.02693811601755
 30
0.0
 10
2.998611446796565
 20
18.02693811601755
 30
0.0
 10
2.081389258447158
 20
17.77999474822718
 30
0.0
 10
2.081389258447158
 20
17.77999474822718
 30
0.0
 10
2.1166666661375
 20
17.92110370611833
 30
0.0
 10
2.1166666661375
 20
18.09749259496312
 30
0.0
 10
2.151944578480501
 20
18.27388148380792
 30
0.0
  0
SPLINE
  5
CA
330
49
100
AcDbEntity
  8
Layer 1
370
     0
100
AcDbSpline
210
0.0
220
0.0
230
1.0
 70
    11
 71
     3
 72
    14
 73
    10
 74
     0
 42
0.0000000001
 43
0.0000000001
 12
1.0
 22
0.0
 32
0.0
 13
1.0
 23
0.0
 33
0.0
 40
0.0
 40
0.0
 40
0.0
 40
0.0
 40
1.0
 40
1.0
 40
1.0
 40
2.0
 40
2.0
 40
2.0
 40
3.0
 40
3.0
 40
3.0
 40
3.0
 10
2.046111177886605
 20
15.41638202281846
 30
0.0
 10
2.046111177886605
 20
15.41638202281846
 30
0.0
 10
2.257777810856844
 20
15.20471589450088
 30
0.0
 10
2.257777810856844
 20
15.20471589450088
 30
0.0
 10
2.257777810856844
 20
15.20471589450088
 30
0.0
 10
2.081388922012053
 20
15.1341614155553
 30
0.0
 10
2.081388922012053
 20
15.1341614155553
 30
0.0
 10
2.052345656835547
 20
15.22525996781253
 30
0.0
 10
2.04038555703546
 20
15.3209394204728
 30
0.0
 10
2.046111177886605
 20
15.41638202281846
 30
0.0
  0
SPLINE
  5
CB
330
49
100
AcDbEntity
  8
Layer 1
370
     0
100
AcDbSpline
210
0.0
220
0.0
230
1.0
 70
    11
 71
     3
 72
    20
 73
    16
 74
     0
 42
0.0000000001
 43
0.0000000001
 12
1.0
 22
0.0
 32
0.0
 13
1.0
 23
0.0
 33
0.0
 40
0.0
 40
0.0
 40
0.0
 40
0.0
 40
1.0
 40
1.0
 40
1.0
 40
2.0
 40
2.0
 40
2.0
 40
3.0
 40
3.0
 40
3.0
 40
4.0
 40
4.0
 40
4.0
 40
5.0
 40
5.0
 40
5.0
 40
5.0
 10
4.268611244618001
 20
16.15721481767041
 30
0.0
 10
4.268611244618001
 20
16.15721481767041
 30
0.0
 10
4.021666867522314
 20
17.03915926189437
 30
0.0
 10
4.021666867522314
 20
17.03915926189437
 30
0.0
 10
4.344788563489846
 20
16.75130807669751
 30
0.0
 10
4.651037702457304
 20
16.44505792842473
 30
0.0
 10
4.938888887654167
 20
16.12193757819763
 30
0.0
 10
4.894993190071452
 20
16.0341630047875
 30
0.0
 10
4.870907464399135
 20
15.93781875635781
 30
0.0
 10
4.868333399403271
 20
15.83971427945362
 30
0.0
 10
4.868333399403271
 20
15.83971427945362
 30
0.0
 10
3.63361117748973
 20
15.52221374123683
 30
0.0
 10
3.63361117748973
 20
15.52221374123683
 30
0.0
 10
3.63361117748973
 20
15.52221374123683
 30
0.0
 10
4.268611244618001
 20
16.15721481767041
 30
0.0
 10
4.268611244618001
 20
16.15721481767041
 30
0.0
  0
POLYLINE
  5
CC
330
49
100
AcDbEntity
  8
Layer 1
370
     0
100
AcDb2dPolyline
 66
     1
 10
0.0
 20
0.0
 30
0.0
  0
VERTEX
  5
CD
330
CC
100
AcDbEntity
  8
Layer 1
370
     0
100
AcDbVertex
100
AcDb2dVertex
 10
6.420555823098502
 20
18.1680470739087
 30
0.0
  0
VERTEX
  5
CE
330
CC
100
AcDbEntity
  8
Layer 1
370
     0
100
AcDbVertex
100
AcDb2dVertex
 10
6.773333600788085
 20
17.81526929621912
 30
0.0
  0
VERTEX
  5
CF
330
CC
100
AcDbEntity
  8
Layer 1
370
     0
100
AcDbVertex
100
AcDb2dVertex
 10
7.231944442636459
 20
17.95638094559112
 30
0.0
  0
VERTEX
  5
D0
330
CC
100
AcDbEntity
  8
Layer 1
370
     0
100
AcDbVertex
100
AcDb2dVertex
 10
6.596944711943293
 20
18.55610209107108
 30
0.0
  0
VERTEX
  5
D1
330
CC
100
AcDbEntity
  8
Layer 1
370
     0
100
AcDbVertex
100
AcDb2dVertex
 10
7.937499998015626
 20
18.94415710823345
 30
0.0
  0
VERTEX
  5
D2
330
CC
100
AcDbEntity
  8
Layer 1
370
     0
100
AcDbVertex
100
AcDb2dVertex
 10
8.043333062174415
 20
19.29693488592303
 30
0.0
  0
VERTEX
  5
D3
330
CC
100
AcDbEntity
  8
Layer 1
370
     0
100
AcDbVertex
100
AcDb2dVertex
 10
8.67833279286758
 20
18.97943434770623
 30
0.0
  0
VERTEX
  5
D4
330
CC
100
AcDbEntity
  8
Layer 1
370
     0
100
AcDbVertex
100
AcDb2dVertex
 10
8.854721681712373
 20
18.41499044169907
 30
0.0
  0
VERTEX
  5
D5
330
CC
100
AcDbEntity
  8
Layer 1
370
     0
100
AcDbVertex
100
AcDb2dVertex
 10
8.53722181636579
 20
18.34443596275349
 30
0.0
  0
VERTEX
  5
D6
330
CC
100
AcDbEntity
  8
Layer 1
370
     0
100
AcDbVertex
100
AcDb2dVertex
 10
8.184444038676206
 20
17.00387933094074
 30
0.0
  0
VERTEX
  5
D7
330
CC
100
AcDbEntity
  8
Layer 1
370
     0
100
AcDbVertex
100
AcDb2dVertex
 10
7.549444307983041
 20
17.63888040737433
 30
0.0
  0
VERTEX
  5
D8
330
CC
100
AcDbEntity
  8
Layer 1
370
     0
100
AcDbVertex
100
AcDb2dVertex
 10
7.443611243824251
 20
17.18026821978553
 30
0.0
  0
VERTEX
  5
D9
330
CC
100
AcDbEntity
  8
Layer 1
370
     0
100
AcDbVertex
100
AcDb2dVertex
 10
7.796389021513835
 20
16.82749044209595
 30
0.0
  0
VERTEX
  5
DA
330
CC
100
AcDbEntity
  8
Layer 1
370
     0
100
AcDbVertex
100
AcDb2dVertex
 10
7.373055419138249
 20
16.72165603219673
 30
0.0
  0
VERTEX
  5
DB
330
CC
100
AcDbEntity
  8
Layer 1
370
     0
100
AcDbVertex
100
AcDb2dVertex
 10
6.843888752603875
 20
17.25082539021195
 30
0.0
  0
VERTEX
  5
DC
330
CC
100
AcDbEntity
  8
Layer 1
370
     0
100
AcDbVertex
100
AcDb2dVertex
 10
6.3147220860695
 20
17.77999205674633
 30
0.0
  0
VERTEX
  5
DD
330
CC
100
AcDbEntity
  8
Layer 1
370
     0
100
AcDbVertex
100
AcDb2dVertex
 10
6.420555823098502
 20
18.1680470739087
 30
0.0
  0
SEQEND
  5
DE
330
CC
100
AcDbEntity
  8
Layer 1
370
     0
  0
SPLINE
  5
DF
330
49
100
AcDbEntity
  8
Layer 1
370
     0
100
AcDbSpline
210
0.0
220
0.0
230
1.0
 70
    11
 71
     3
 72
    20
 73
    16
 74
     0
 42
0.0000000001
 43
0.0000000001
 12
1.0
 22
0.0
 32
0.0
 13
1.0
 23
0.0
 33
0.0
 40
0.0
 40
0.0
 40
0.0
 40
0.0
 40
1.0
 40
1.0
 40
1.0
 40
2.0
 40
2.0
 40
2.0
 40
3.0
 40
3.0
 40
3.0
 40
4.0
 40
4.0
 40
4.0
 40
5.0
 40
5.0
 40
5.0
 40
5.0
 10
6.420555823098502
 20
19.79082431298461
 30
0.0
 10
6.420555823098502
 20
19.86137879193019
 30
0.0
 10
6.491111647784503
 20
19.89665872288383
 30
0.0
 10
6.526388887257292
 20
19.86137879193019
 30
0.0
 10
6.58483910395987
 20
19.86137879193019
 30
0.0
 10
6.632221951416082
 20
19.81399527160377
 30
0.0
 10
6.632221951416082
 20
19.75554438203098
 30
0.0
 10
6.632221951416082
 20
19.75554438203098
 30
0.0
 10
6.632221951416082
 20
19.75554438203098
 30
0.0
 10
6.632221951416082
 20
19.75554438203098
 30
0.0
 10
6.607467729188181
 20
19.69759141641504
 30
0.0
 10
6.553676465833234
 20
19.6572488099866
 30
0.0
 10
6.491110974914291
 20
19.64970997213177
 30
0.0
 10
6.420555823098502
 20
19.68499259456625
 30
0.0
 10
6.385277910755501
 20
19.72026983403904
 30
0.0
 10
6.420555823098502
 20
19.79082431298461
 30
0.0
  0
POLYLINE
  5
E0
330
49
100
AcDbEntity
  8
Layer 1
370
     0
100
AcDb2dPolyline
 66
     1
 10
0.0
 20
0.0
 30
0.0
  0
VERTEX
  5
E1
330
E0
100
AcDbEntity
  8
Layer 1
370
     0
100
AcDbVertex
100
AcDb2dVertex
 10
9.807222623492544
 20
19.26165764645024
 30
0.0
  0
VERTEX
  5
E2
330
E0
100
AcDbEntity
  8
Layer 1
370
     0
100
AcDbVertex
100
AcDb2dVertex
 10
9.45444484580296
 20
19.26165764645024
 30
0.0
  0
VERTEX
  5
E3
330
E0
100
AcDbEntity
  8
Layer 1
370
     0
100
AcDbVertex
100
AcDb2dVertex
 10
9.242778044615168
 20
19.04999151813266
 30
0.0
  0
VERTEX
  5
E4
330
E0
100
AcDbEntity
  8
Layer 1
370
     0
100
AcDbVertex
100
AcDb2dVertex
 10
9.136944980456379
 20
19.36749205634946
 30
0.0
  0
VERTEX
  5
E5
330
E0
100
AcDbEntity
  8
Layer 1
370
     0
100
AcDbVertex
100
AcDb2dVertex
 10
8.819445115109795
 20
19.50860370572146
 30
0.0
  0
VERTEX
  5
E6
330
E0
100
AcDbEntity
  8
Layer 1
370
     0
100
AcDbVertex
100
AcDb2dVertex
 10
9.101667068113377
 20
19.68499259456625
 30
0.0
  0
VERTEX
  5
E7
330
E0
100
AcDbEntity
  8
Layer 1
370
     0
100
AcDbVertex
100
AcDb2dVertex
 10
9.101667068113377
 20
20.00249313278304
 30
0.0
  0
VERTEX
  5
E8
330
E0
100
AcDbEntity
  8
Layer 1
370
     0
100
AcDbVertex
100
AcDb2dVertex
 10
9.383889021116959
 20
19.79082700446546
 30
0.0
  0
VERTEX
  5
E9
330
E0
100
AcDbEntity
  8
Layer 1
370
     0
100
AcDbVertex
100
AcDb2dVertex
 10
9.701388886463542
 20
19.89666141436468
 30
0.0
  0
VERTEX
  5
EA
330
E0
100
AcDbEntity
  8
Layer 1
370
     0
100
AcDbVertex
100
AcDb2dVertex
 10
9.595555822304751
 20
19.54388363667509
 30
0.0
  0
VERTEX
  5
EB
330
E0
100
AcDbEntity
  8
Layer 1
370
     0
100
AcDbVertex
100
AcDb2dVertex
 10
9.807222623492544
 20
19.26165764645024
 30
0.0
  0
SEQEND
  5
EC
330
E0
100
AcDbEntity
  8
Layer 1
370
     0
  0
POLYLINE
  5
ED
330
49
100
AcDbEntity
  8
Layer 1
370
     0
100
AcDb2dPolyline
 66
     1
 10
0.0
 20
0.0
 30
0.0
  0
VERTEX
  5
EE
330
ED
100
AcDbEntity
  8
Layer 1
370
     0
100
AcDbVertex
100
AcDb2dVertex
 10
8.960555418741375
 20
28.18693649858904
 30
0.0
  0
VERTEX
  5
EF
330
ED
100
AcDbEntity
  8
Layer 1
370
     0
100
AcDbVertex
100
AcDb2dVertex
 10
9.031111243427375
 20
28.61027010096462
 30
0.0
  0
VERTEX
  5
F0
330
ED
100
AcDbEntity
  8
Layer 1
370
     0
100
AcDbVertex
100
AcDb2dVertex
 10
9.101667068113377
 20
28.61027010096462
 30
0.0
  0
VERTEX
  5
F1
330
ED
100
AcDbEntity
  8
Layer 1
370
     0
100
AcDbVertex
100
AcDb2dVertex
 10
9.489722758145962
 20
28.32804814796104
 30
0.0
  0
VERTEX
  5
F2
330
ED
100
AcDbEntity
  8
Layer 1
370
     0
100
AcDbVertex
100
AcDb2dVertex
 10
10.01888942468034
 20
28.46915979733305
 30
0.0
  0
VERTEX
  5
F3
330
ED
100
AcDbEntity
  8
Layer 1
370
     0
100
AcDbVertex
100
AcDb2dVertex
 10
9.842500535835544
 20
27.86943730611267
 30
0.0
  0
VERTEX
  5
F4
330
ED
100
AcDbEntity
  8
Layer 1
370
     0
100
AcDbVertex
100
AcDb2dVertex
 10
10.12472248883913
 20
27.41082646426429
 30
0.0
  0
VERTEX
  5
F5
330
ED
100
AcDbEntity
  8
Layer 1
370
     0
100
AcDbVertex
100
AcDb2dVertex
 10
9.52499999761875
 20
27.41082646426429
 30
0.0
  0
VERTEX
  5
F6
330
ED
100
AcDbEntity
  8
Layer 1
370
     0
100
AcDbVertex
100
AcDb2dVertex
 10
9.172222219929168
 20
27.02277144710192
 30
0.0
  0
VERTEX
  5
F7
330
ED
100
AcDbEntity
  8
Layer 1
370
     0
100
AcDbVertex
100
AcDb2dVertex
 10
8.995833331084375
 20
27.5519381136363
 30
0.0
  0
VERTEX
  5
F8
330
ED
100
AcDbEntity
  8
Layer 1
370
     0
100
AcDbVertex
100
AcDb2dVertex
 10
8.46666666455
 20
27.86943596037224
 30
0.0
  0
VERTEX
  5
F9
330
ED
100
AcDbEntity
  8
Layer 1
370
     0
100
AcDbVertex
100
AcDb2dVertex
 10
8.960555418741375
 20
28.18693649858904
 30
0.0
  0
SEQEND
  5
FA
330
ED
100
AcDbEntity
  8
Layer 1
370
     0
  0
POLYLINE
  5
FB
330
49
100
AcDbEntity
  8
Layer 1
370
     0
100
AcDb2dPolyline
 66
     1
 10
0.0
 20
0.0
 30
0.0
  0
VERTEX
  5
FC
330
FB
100
AcDbEntity
  8
Layer 1
370
     0
100
AcDbVertex
100
AcDb2dVertex
 10
9.242777371744957
 20
23.95360316631404
 30
0.0
  0
VERTEX
  5
FD
330
FB
100
AcDbEntity
  8
Layer 1
370
     0
100
AcDbVertex
100
AcDb2dVertex
 10
9.313333196430959
 20
24.41221400816241
 30
0.0
  0
VERTEX
  5
FE
330
FB
100
AcDbEntity
  8
Layer 1
370
     0
100
AcDbVertex
100
AcDb2dVertex
 10
9.701388886463542
 20
24.09471346994562
 30
0.0
  0
VERTEX
  5
FF
330
FB
100
AcDbEntity
  8
Layer 1
370
     0
100
AcDbVertex
100
AcDb2dVertex
 10
10.19527764065492
 20
24.23582511931762
 30
0.0
  0
VERTEX
  5
100
330
FB
100
AcDbEntity
  8
Layer 1
370
     0
100
AcDbVertex
100
AcDb2dVertex
 10
10.05416666415313
 20
23.70665845278324
 30
0.0
  0
VERTEX
  5
101
330
FB
100
AcDbEntity
  8
Layer 1
370
     0
100
AcDbVertex
100
AcDb2dVertex
 10
10.33638861715671
 20
23.28332485040766
 30
0.0
  0
VERTEX
  5
102
330
FB
100
AcDbEntity
  8
Layer 1
370
     0
100
AcDbVertex
100
AcDb2dVertex
 10
9.771944711149544
 20
23.28332485040766
 30
0.0
  0
VERTEX
  5
103
330
FB
100
AcDbEntity
  8
Layer 1
370
     0
100
AcDbVertex
100
AcDb2dVertex
 10
9.45444484580296
 20
22.96582431219086
 30
0.0
  0
VERTEX
  5
104
330
FB
100
AcDbEntity
  8
Layer 1
370
     0
100
AcDbVertex
100
AcDb2dVertex
 10
9.27805595695817
 20
23.45971373925245
 30
0.0
  0
VERTEX
  5
105
330
FB
100
AcDbEntity
  8
Layer 1
370
     0
100
AcDbVertex
100
AcDb2dVertex
 10
8.784167202766795
 20
23.67137986757003
 30
0.0
  0
VERTEX
  5
106
330
FB
100
AcDbEntity
  8
Layer 1
370
     0
100
AcDbVertex
100
AcDb2dVertex
 10
9.242777371744957
 20
23.95360316631404
 30
0.0
  0
SEQEND
  5
107
330
FB
100
AcDbEntity
  8
Layer 1
370
     0
  0
SPLINE
  5
108
330
49
100
AcDbEntity
  8
Layer 1
370
     0
100
AcDbSpline
210
0.0
220
0.0
230
1.0
 70
    11
 71
     3
 72
    32
 73
    28
 74
     0
 42
0.0000000001
 43
0.0000000001
 12
1.0
 22
0.0
 32
0.0
 13
1.0
 23
0.0
 33
0.0
 40
0.0
 40
0.0
 40
0.0
 40
0.0
 40
1.0
 40
1.0
 40
1.0
 40
2.0
 40
2.0
 40
2.0
 40
3.0
 40
3.0
 40
3.0
 40
4.0
 40
4.0
 40
4.0
 40
5.0
 40
5.0
 40
5.0
 40
6.0
 40
6.0
 40
6.0
 40
7.0
 40
7.0
 40
7.0
 40
8.0
 40
8.0
 40
8.0
 40
9.0
 40
9.0
 40
9.0
 40
9.0
 10
9.877777775308333
 20
24.87082485001078
 30
0.0
 10
9.877777775308333
 20
24.87082485001078
 30
0.0
 10
9.101666395243166
 20
25.57638040538995
 30
0.0
 10
9.101666395243166
 20
25.57638040538995
 30
0.0
 10
9.101666395243166
 20
25.57638040538995
 30
0.0
 10
9.913055014781122
 20
26.66999097793149
 30
0.0
 10
9.913055014781122
 20
26.66999097793149
 30
0.0
 10
9.913055014781122
 20
26.66999097793149
 30
0.0
 10
11.39472195022546
 20
26.5641579137727
 30
0.0
 10
11.39472195022546
 20
26.5641579137727
 30
0.0
 10
11.39472195022546
 20
26.5641579137727
 30
0.0
 10
11.39472195022546
 20
26.07026983245154
 30
0.0
 10
11.39472195022546
 20
26.07026983245154
 30
0.0
 10
11.29704676451651
 20
26.01990818856697
 30
0.0
 10
11.21248447349828
 20
25.94742795507475
 30
0.0
 10
11.14777723669466
 20
25.85860370413396
 30
0.0
 10
11.14777723669466
 20
25.85860370413396
 30
0.0
 10
10.58333265781729
 20
25.54110316591716
 30
0.0
 10
10.58333265781729
 20
25.54110316591716
 30
0.0
 10
10.58333265781729
 20
25.54110316591716
 30
0.0
 10
10.83027737134808
 20
25.39999151654516
 30
0.0
 10
10.83027737134808
 20
25.39999151654516
 30
0.0
 10
10.79065204456559
 20
25.31069221923472
 30
0.0
 10
10.766781300926
 20
25.21520924467634
 30
0.0
 10
10.75972154666208
 20
25.11776956354158
 30
0.0
 10
10.75972154666208
 20
25.11776956354158
 30
0.0
 10
9.877777775308333
 20
24.87082485001078
 30
0.0
 10
9.877777775308333
 20
24.87082485001078
 30
0.0
  0
POLYLINE
  5
109
330
49
100
AcDbEntity
  8
Layer 1
370
     0
100
AcDb2dPolyline
 66
     1
 10
0.0
 20
0.0
 30
0.0
  0
VERTEX
  5
10A
330
109
100
AcDbEntity
  8
Layer 1
370
     0
100
AcDbVertex
100
AcDb2dVertex
 10
12.629444172139
 20
25.36471427707237
 30
0.0
  0
VERTEX
  5
10B
330
109
100
AcDbEntity
  8
Layer 1
370
     0
100
AcDbVertex
100
AcDb2dVertex
 10
12.27666639444942
 20
25.36471427707237
 30
0.0
  0
VERTEX
  5
10C
330
109
100
AcDbEntity
  8
Layer 1
370
     0
100
AcDbVertex
100
AcDb2dVertex
 10
12.06500026613184
 20
25.15304814875479
 30
0.0
  0
VERTEX
  5
10D
330
109
100
AcDbEntity
  8
Layer 1
370
     0
100
AcDbVertex
100
AcDb2dVertex
 10
11.95916720197305
 20
25.47054868697159
 30
0.0
  0
VERTEX
  5
10E
330
109
100
AcDbEntity
  8
Layer 1
370
     0
100
AcDbVertex
100
AcDb2dVertex
 10
11.64166666375625
 20
25.61166033634359
 30
0.0
  0
VERTEX
  5
10F
330
109
100
AcDbEntity
  8
Layer 1
370
     0
100
AcDbVertex
100
AcDb2dVertex
 10
11.67694390322904
 20
25.61166033634359
 30
0.0
  0
VERTEX
  5
110
330
109
100
AcDbEntity
  8
Layer 1
370
     0
100
AcDbVertex
100
AcDb2dVertex
 10
11.92388861675983
 20
25.78804922518838
 30
0.0
  0
VERTEX
  5
111
330
109
100
AcDbEntity
  8
Layer 1
370
     0
100
AcDbVertex
100
AcDb2dVertex
 10
11.92388861675983
 20
25.85860504987438
 30
0.0
  0
VERTEX
  5
112
330
109
100
AcDbEntity
  8
Layer 1
370
     0
100
AcDbVertex
100
AcDb2dVertex
 10
11.92388861675983
 20
25.85860504987438
 30
0.0
  0
VERTEX
  5
113
330
109
100
AcDbEntity
  8
Layer 1
370
     0
100
AcDbVertex
100
AcDb2dVertex
 10
12.13555474507741
 20
25.96443811403317
 30
0.0
  0
VERTEX
  5
114
330
109
100
AcDbEntity
  8
Layer 1
370
     0
100
AcDbVertex
100
AcDb2dVertex
 10
12.20611056976341
 20
25.89388228934717
 30
0.0
  0
VERTEX
  5
115
330
109
100
AcDbEntity
  8
Layer 1
370
     0
100
AcDbVertex
100
AcDb2dVertex
 10
12.52361110798021
 20
25.99971535350596
 30
0.0
  0
VERTEX
  5
116
330
109
100
AcDbEntity
  8
Layer 1
370
     0
100
AcDbVertex
100
AcDb2dVertex
 10
12.41777804382142
 20
25.61166033634359
 30
0.0
  0
VERTEX
  5
117
330
109
100
AcDbEntity
  8
Layer 1
370
     0
100
AcDbVertex
100
AcDb2dVertex
 10
12.629444172139
 20
25.36471427707237
 30
0.0
  0
SEQEND
  5
118
330
109
100
AcDbEntity
  8
Layer 1
370
     0
  0
SPLINE
  5
119
330
49
100
AcDbEntity
  8
Layer 1
370
     0
100
AcDbSpline
210
0.0
220
0.0
230
1.0
 70
    11
 71
     3
 72
    32
 73
    28
 74
     0
 42
0.0000000001
 43
0.0000000001
 12
1.0
 22
0.0
 32
0.0
 13
1.0
 23
0.0
 33
0.0
 40
0.0
 40
0.0
 40
0.0
 40
0.0
 40
1.0
 40
1.0
 40
1.0
 40
2.0
 40
2.0
 40
2.0
 40
3.0
 40
3.0
 40
3.0
 40
4.0
 40
4.0
 40
4.0
 40
5.0
 40
5.0
 40
5.0
 40
6.0
 40
6.0
 40
6.0
 40
7.0
 40
7.0
 40
7.0
 40
8.0
 40
8.0
 40
8.0
 40
9.0
 40
9.0
 40
9.0
 40
9.0
 10
17.85055501279675
 20
24.12999205515883
 30
0.0
 10
18.22586183092327
 20
24.33275611057214
 30
0.0
 10
18.63056500287003
 20
24.47559299916762
 30
0.0
 10
19.0499999952375
 20
24.55332565753442
 30
0.0
 10
19.33457026528083
 20
24.63841951602009
 30
0.0
 10
19.64180011258223
 20
24.60001477580209
 30
0.0
 10
19.89666719998867
 20
24.44749259337562
 30
0.0
 10
19.96111201740963
 20
24.32844166677303
 30
0.0
 10
19.97386425366675
 20
24.18815764776175
 30
0.0
 10
19.93194443946146
 20
24.05943757621325
 30
0.0
 10
19.8359110570697
 20
23.85128113892127
 30
0.0
 10
19.69061011775801
 20
23.66965462834656
 30
0.0
 10
19.50861083708588
 20
23.53027090967888
 30
0.0
 10
19.50861083708588
 20
23.53027090967888
 30
0.0
 10
18.7324994570207
 20
23.14221589251651
 30
0.0
 10
18.7324994570207
 20
23.14221589251651
 30
0.0
 10
17.67416612395196
 20
22.78943811482692
 30
0.0
 10
17.00388780804558
 20
22.71888229014092
 30
0.0
 10
16.792221679728
 20
22.93054976419893
 30
0.0
 10
16.74274822452322
 20
23.00291830123595
 30
0.0
 10
16.72971203703665
 20
23.09416757642066
 30
0.0
 10
16.75694444025521
 20
23.17749447772972
 30
0.0
 10
16.7838579029933
 20
23.28809011724878
 30
0.0
 10
16.84571486157904
 20
23.38706125098598
 30
0.0
 10
16.9333333291
 20
23.4597164307333
 30
0.0
 10
17.19048010078458
 20
23.74300286441221
 30
0.0
 10
17.50254250194828
 20
23.97104799942939
 30
0.0
 10
17.85055501279675
 20
24.12999205515883
 30
0.0
  0
SPLINE
  5
11A
330
49
100
AcDbEntity
  8
Layer 1
370
     0
100
AcDbSpline
210
0.0
220
0.0
230
1.0
 70
    11
 71
     3
 72
    59
 73
    55
 74
     0
 42
0.0000000001
 43
0.0000000001
 12
1.0
 22
0.0
 32
0.0
 13
1.0
 23
0.0
 33
0.0
 40
0.0
 40
0.0
 40
0.0
 40
0.0
 40
1.0
 40
1.0
 40
1.0
 40
2.0
 40
2.0
 40
2.0
 40
3.0
 40
3.0
 40
3.0
 40
4.0
 40
4.0
 40
4.0
 40
5.0
 40
5.0
 40
5.0
 40
6.0
 40
6.0
 40
6.0
 40
7.0
 40
7.0
 40
7.0
 40
8.0
 40
8.0
 40
8.0
 40
9.0
 40
9.0
 40
9.0
 40
10.0
 40
10.0
 40
10.0
 40
11.0
 40
11.0
 40
11.0
 40
12.0
 40
12.0
 40
12.0
 40
13.0
 40
13.0
 40
13.0
 40
14.0
 40
14.0
 40
14.0
 40
15.0
 40
15.0
 40
15.0
 40
16.0
 40
16.0
 40
16.0
 40
17.0
 40
17.0
 40
17.0
 40
18.0
 40
18.0
 40
18.0
 40
18.0
 10
16.29833225266641
 20
24.20054787984483
 30
0.0
 10
16.05886043570968
 20
23.96038838953147
 30
0.0
 10
15.89879403246668
 20
23.65257045366482
 30
0.0
 10
15.83972141081804
 20
23.31860343562087
 30
0.0
 10
15.76621437738237
 20
23.05150760498222
 30
0.0
 10
15.84786852334448
 20
22.76571674837438
 30
0.0
 10
16.05138753913562
 20
22.57777064076892
 30
0.0
 10
16.36888807735241
 20
22.29554868776534
 30
0.0
 10
16.86277615867358
 20
22.26027010255212
 30
0.0
 10
17.56833171405274
 20
22.40138175192413
 30
0.0
 10
17.56833171405274
 20
22.40138175192413
 30
0.0
 10
17.56833171405274
 20
22.40138175192413
 30
0.0
 10
17.56833171405274
 20
22.40138175192413
 30
0.0
 10
17.3913210931321
 20
22.23725659556257
 30
0.0
 10
17.28931935196022
 20
22.00775133218543
 30
0.0
 10
17.28610976104916
 20
21.76638202123096
 30
0.0
 10
17.24426127108634
 20
21.54299987678268
 30
0.0
 10
17.3249841646751
 20
21.31428590877481
 30
0.0
 10
17.49777588936674
 20
21.16666087575101
 30
0.0
 10
17.49777588936674
 20
21.16666087575101
 30
0.0
 10
17.70944201768432
 20
20.99027198690622
 30
0.0
 10
17.70944201768432
 20
20.99027198690622
 30
0.0
 10
17.70944201768432
 20
20.99027198690622
 30
0.0
 10
17.10971952646394
 20
20.84916033753422
 30
0.0
 10
17.10971952646394
 20
20.84916033753422
 30
0.0
 10
17.10971952646394
 20
20.84916033753422
 30
0.0
 10
16.15721925755398
 20
21.73110478175817
 30
0.0
 10
16.15721925755398
 20
21.73110478175817
 30
0.0
 10
16.15721925755398
 20
21.73110478175817
 30
0.0
 10
15.98083036870919
 20
20.35527091047263
 30
0.0
 10
15.98083036870919
 20
20.35527091047263
 30
0.0
 10
15.98083036870919
 20
20.35527091047263
 30
0.0
 10
15.48694094164761
 20
20.10832754268226
 30
0.0
 10
15.48694094164761
 20
20.10832754268226
 30
0.0
 10
15.48694094164761
 20
20.10832754268226
 30
0.0
 10
14.56971925795086
 20
21.41360424354138
 30
0.0
 10
14.56971925795086
 20
21.41360424354138
 30
0.0
 10
14.56971925795086
 20
21.41360424354138
 30
0.0
 10
15.34583063801603
 20
23.56554814915167
 30
0.0
 10
15.34583063801603
 20
23.56554814915167
 30
0.0
 10
15.34583063801603
 20
23.56554814915167
 30
0.0
 10
13.08805232250653
 20
23.0011042431445
 30
0.0
 10
13.08805232250653
 20
23.0011042431445
 30
0.0
 10
13.08805232250653
 20
23.0011042431445
 30
0.0
 10
12.80583036950294
 20
23.28332619614809
 30
0.0
 10
12.80583036950294
 20
23.28332619614809
 30
0.0
 10
13.29751278226929
 20
23.33963466696598
 30
0.0
 10
13.78215831835893
 20
23.44601948469858
 30
0.0
 10
14.25221871973407
 20
23.60082673436488
 30
0.0
 10
15.10730756805816
 20
23.87641687855935
 30
0.0
 10
15.94391805462134
 20
24.20634802107195
 30
0.0
 10
16.75694040303394
 20
24.58860424274763
 30
0.0
 10
16.75694040303394
 20
24.58860424274763
 30
0.0
 10
16.29833225266641
 20
24.20054787984483
 30
0.0
 10
16.29833225266641
 20
24.20054787984483
 30
0.0
  0
POLYLINE
  5
11B
330
49
100
AcDbEntity
  8
Layer 1
370
     0
100
AcDb2dPolyline
 66
     1
 10
0.0
 20
0.0
 30
0.0
  0
VERTEX
  5
11C
330
11B
100
AcDbEntity
  8
Layer 1
370
     0
100
AcDbVertex
100
AcDb2dVertex
 10
18.30916585464512
 20
20.84915764605337
 30
0.0
  0
VERTEX
  5
11D
330
11B
100
AcDbEntity
  8
Layer 1
370
     0
100
AcDbVertex
100
AcDb2dVertex
 10
18.30916585464512
 20
20.84915764605337
 30
0.0
  0
SEQEND
  5
11E
330
11B
100
AcDbEntity
  8
Layer 1
370
     0
  0
POLYLINE
  5
11F
330
49
100
AcDbEntity
  8
Layer 1
370
     0
100
AcDb2dPolyline
 66
     1
 10
0.0
 20
0.0
 30
0.0
  0
VERTEX
  5
120
330
11F
100
AcDbEntity
  8
Layer 1
370
     0
100
AcDbVertex
100
AcDb2dVertex
 10
12.80583306098379
 20
18.55610209107108
 30
0.0
  0
VERTEX
  5
121
330
11F
100
AcDbEntity
  8
Layer 1
370
     0
100
AcDbVertex
100
AcDb2dVertex
 10
13.54666585583575
 20
19.50860101424061
 30
0.0
  0
VERTEX
  5
122
330
11F
100
AcDbEntity
  8
Layer 1
370
     0
100
AcDbVertex
100
AcDb2dVertex
 10
15.66333252197325
 20
19.36748936486861
 30
0.0
  0
VERTEX
  5
123
330
11F
100
AcDbEntity
  8
Layer 1
370
     0
100
AcDbVertex
100
AcDb2dVertex
 10
16.19249918850762
 20
19.15582323655103
 30
0.0
  0
VERTEX
  5
124
330
11F
100
AcDbEntity
  8
Layer 1
370
     0
100
AcDbVertex
100
AcDb2dVertex
 10
16.33361083787963
 20
18.62665657001665
 30
0.0
  0
VERTEX
  5
125
330
11F
100
AcDbEntity
  8
Layer 1
370
     0
100
AcDbVertex
100
AcDb2dVertex
 10
16.01611029966283
 20
18.80304545886144
 30
0.0
  0
VERTEX
  5
126
330
11F
100
AcDbEntity
  8
Layer 1
370
     0
100
AcDbVertex
100
AcDb2dVertex
 10
15.87499999603125
 20
15.83971427945362
 30
0.0
  0
VERTEX
  5
127
330
11F
100
AcDbEntity
  8
Layer 1
370
     0
100
AcDbVertex
100
AcDb2dVertex
 10
14.78138942348971
 20
15.13415872407445
 30
0.0
  0
VERTEX
  5
128
330
11F
100
AcDbEntity
  8
Layer 1
370
     0
100
AcDbVertex
100
AcDb2dVertex
 10
13.68777885094817
 20
16.82749313357679
 30
0.0
  0
VERTEX
  5
129
330
11F
100
AcDbEntity
  8
Layer 1
370
     0
100
AcDbVertex
100
AcDb2dVertex
 10
14.42861164580013
 20
18.9088825602415
 30
0.0
  0
VERTEX
  5
12A
330
11F
100
AcDbEntity
  8
Layer 1
370
     0
100
AcDbVertex
100
AcDb2dVertex
 10
12.80583306098379
 20
18.55610209107108
 30
0.0
  0
SEQEND
  5
12B
330
11F
100
AcDbEntity
  8
Layer 1
370
     0
  0
POLYLINE
  5
12C
330
49
100
AcDbEntity
  8
Layer 1
370
     0
100
AcDb2dPolyline
 66
     1
 10
0.0
 20
0.0
 30
0.0
  0
VERTEX
  5
12D
330
12C
100
AcDbEntity
  8
Layer 1
370
     0
100
AcDbVertex
100
AcDb2dVertex
 10
12.34722221913542
 20
21.44888148301417
 30
0.0
  0
VERTEX
  5
12E
330
12C
100
AcDbEntity
  8
Layer 1
370
     0
100
AcDbVertex
100
AcDb2dVertex
 10
12.41777804382142
 20
22.11915979892055
 30
0.0
  0
VERTEX
  5
12F
330
12C
100
AcDbEntity
  8
Layer 1
370
     0
100
AcDbVertex
100
AcDb2dVertex
 10
12.98222194982858
 20
21.69582754228538
 30
0.0
  0
VERTEX
  5
130
330
12C
100
AcDbEntity
  8
Layer 1
370
     0
100
AcDbVertex
100
AcDb2dVertex
 10
13.65250026573496
 20
21.87221643113017
 30
0.0
  0
VERTEX
  5
131
330
12C
100
AcDbEntity
  8
Layer 1
370
     0
100
AcDbVertex
100
AcDb2dVertex
 10
13.40555555220417
 20
21.13138094479737
 30
0.0
  0
VERTEX
  5
132
330
12C
100
AcDbEntity
  8
Layer 1
370
     0
100
AcDbVertex
100
AcDb2dVertex
 10
13.79361056936654
 20
20.56693703879021
 30
0.0
  0
VERTEX
  5
133
330
12C
100
AcDbEntity
  8
Layer 1
370
     0
100
AcDbVertex
100
AcDb2dVertex
 10
13.05277777451458
 20
20.56693703879021
 30
0.0
  0
VERTEX
  5
134
330
12C
100
AcDbEntity
  8
Layer 1
370
     0
100
AcDbVertex
100
AcDb2dVertex
 10
12.59416693266621
 20
20.07304761172862
 30
0.0
  0
VERTEX
  5
135
330
12C
100
AcDbEntity
  8
Layer 1
370
     0
100
AcDbVertex
100
AcDb2dVertex
 10
12.38249945860821
 20
20.77860316710779
 30
0.0
  0
VERTEX
  5
136
330
12C
100
AcDbEntity
  8
Layer 1
370
     0
100
AcDbVertex
100
AcDb2dVertex
 10
11.74749972791504
 20
21.09610370532458
 30
0.0
  0
VERTEX
  5
137
330
12C
100
AcDbEntity
  8
Layer 1
370
     0
100
AcDbVertex
100
AcDb2dVertex
 10
12.34722221913542
 20
21.44888148301417
 30
0.0
  0
SEQEND
  5
138
330
12C
100
AcDbEntity
  8
Layer 1
370
     0
  0
POLYLINE
  5
139
330
49
100
AcDbEntity
  8
Layer 1
370
     0
100
AcDb2dPolyline
 66
     1
 10
0.0
 20
0.0
 30
0.0
  0
VERTEX
  5
13A
330
139
100
AcDbEntity
  8
Layer 1
370
     0
100
AcDbVertex
100
AcDb2dVertex
 10
12.770555821511
 20
17.32138256063838
 30
0.0
  0
VERTEX
  5
13B
330
139
100
AcDbEntity
  8
Layer 1
370
     0
100
AcDbVertex
100
AcDb2dVertex
 10
12.52361110798021
 20
16.58054976578643
 30
0.0
  0
VERTEX
  5
13C
330
139
100
AcDbEntity
  8
Layer 1
370
     0
100
AcDbVertex
100
AcDb2dVertex
 10
12.91166612514258
 20
16.01610585977926
 30
0.0
  0
VERTEX
  5
13D
330
139
100
AcDbEntity
  8
Layer 1
370
     0
100
AcDbVertex
100
AcDb2dVertex
 10
12.17083333029063
 20
16.01610585977926
 30
0.0
  0
VERTEX
  5
13E
330
139
100
AcDbEntity
  8
Layer 1
370
     0
100
AcDbVertex
100
AcDb2dVertex
 10
11.71222248844225
 20
15.52221643271768
 30
0.0
  0
VERTEX
  5
13F
330
139
100
AcDbEntity
  8
Layer 1
370
     0
100
AcDbVertex
100
AcDb2dVertex
 10
11.50055636012467
 20
16.19249474862405
 30
0.0
  0
VERTEX
  5
140
330
139
100
AcDbEntity
  8
Layer 1
370
     0
100
AcDbVertex
100
AcDb2dVertex
 10
10.86555528369108
 20
16.54526983483279
 30
0.0
  0
VERTEX
  5
141
330
139
100
AcDbEntity
  8
Layer 1
370
     0
100
AcDbVertex
100
AcDb2dVertex
 10
11.46527777491146
 20
16.89804761252237
 30
0.0
  0
VERTEX
  5
142
330
139
100
AcDbEntity
  8
Layer 1
370
     0
100
AcDbVertex
100
AcDb2dVertex
 10
11.53583359959746
 20
17.56832592842875
 30
0.0
  0
VERTEX
  5
143
330
139
100
AcDbEntity
  8
Layer 1
370
     0
100
AcDbVertex
100
AcDb2dVertex
 10
12.10027750560462
 20
17.14499367179359
 30
0.0
  0
VERTEX
  5
144
330
139
100
AcDbEntity
  8
Layer 1
370
     0
100
AcDbVertex
100
AcDb2dVertex
 10
12.770555821511
 20
17.32138256063838
 30
0.0
  0
SEQEND
  5
145
330
139
100
AcDbEntity
  8
Layer 1
370
     0
  0
POLYLINE
  5
146
330
49
100
AcDbEntity
  8
Layer 1
370
     0
100
AcDb2dPolyline
 66
     1
 10
0.0
 20
0.0
 30
0.0
  0
VERTEX
  5
147
330
146
100
AcDbEntity
  8
Layer 1
370
     0
100
AcDbVertex
100
AcDb2dVertex
 10
16.33361218362005
 20
19.79082700446546
 30
0.0
  0
VERTEX
  5
148
330
146
100
AcDbEntity
  8
Layer 1
370
     0
100
AcDbVertex
100
AcDb2dVertex
 10
16.68638996130963
 20
20.00249313278304
 30
0.0
  0
VERTEX
  5
149
330
146
100
AcDbEntity
  8
Layer 1
370
     0
100
AcDbVertex
100
AcDb2dVertex
 10
16.68638996130963
 20
20.35527091047263
 30
0.0
  0
VERTEX
  5
14A
330
146
100
AcDbEntity
  8
Layer 1
370
     0
100
AcDbVertex
100
AcDb2dVertex
 10
17.00389049952643
 20
20.14360478215505
 30
0.0
  0
VERTEX
  5
14B
330
146
100
AcDbEntity
  8
Layer 1
370
     0
100
AcDbVertex
100
AcDb2dVertex
 10
17.3919455166888
 20
20.24943919205426
 30
0.0
  0
VERTEX
  5
14C
330
146
100
AcDbEntity
  8
Layer 1
370
     0
100
AcDbVertex
100
AcDb2dVertex
 10
17.28611245253001
 20
19.79082700446546
 30
0.0
  0
VERTEX
  5
14D
330
146
100
AcDbEntity
  8
Layer 1
370
     0
100
AcDbVertex
100
AcDb2dVertex
 10
17.49777858084759
 20
19.47332646624867
 30
0.0
  0
VERTEX
  5
14E
330
146
100
AcDbEntity
  8
Layer 1
370
     0
100
AcDbVertex
100
AcDb2dVertex
 10
17.07444497847201
 20
19.47332646624867
 30
0.0
  0
VERTEX
  5
14F
330
146
100
AcDbEntity
  8
Layer 1
370
     0
100
AcDbVertex
100
AcDb2dVertex
 10
16.82750026494121
 20
19.2263830984583
 30
0.0
  0
VERTEX
  5
150
330
146
100
AcDbEntity
  8
Layer 1
370
     0
100
AcDbVertex
100
AcDb2dVertex
 10
16.72166720078242
 20
19.61443811562067
 30
0.0
  0
VERTEX
  5
151
330
146
100
AcDbEntity
  8
Layer 1
370
     0
100
AcDbVertex
100
AcDb2dVertex
 10
16.33361218362005
 20
19.79082700446546
 30
0.0
  0
SEQEND
  5
152
330
146
100
AcDbEntity
  8
Layer 1
370
     0
  0
POLYLINE
  5
153
330
49
100
AcDbEntity
  8
Layer 1
370
     0
100
AcDb2dPolyline
 66
     1
 10
0.0
 20
0.0
 30
0.0
  0
VERTEX
  5
154
330
153
100
AcDbEntity
  8
Layer 1
370
     0
100
AcDbVertex
100
AcDb2dVertex
 10
12.66472275735221
 20
24.764991785852
 30
0.0
  0
VERTEX
  5
155
330
153
100
AcDbEntity
  8
Layer 1
370
     0
100
AcDbVertex
100
AcDb2dVertex
 10
12.66472275735221
 20
24.764991785852
 30
0.0
  0
SEQEND
  5
156
330
153
100
AcDbEntity
  8
Layer 1
370
     0
  0
SPLINE
  5
157
330
49
100
AcDbEntity
  8
Layer 1
370
     0
100
AcDbSpline
210
0.0
220
0.0
230
1.0
 70
    11
 71
     3
 72
    20
 73
    16
 74
     0
 42
0.0000000001
 43
0.0000000001
 12
1.0
 22
0.0
 32
0.0
 13
1.0
 23
0.0
 33
0.0
 40
0.0
 40
0.0
 40
0.0
 40
0.0
 40
1.0
 40
1.0
 40
1.0
 40
2.0
 40
2.0
 40
2.0
 40
3.0
 40
3.0
 40
3.0
 40
4.0
 40
4.0
 40
4.0
 40
5.0
 40
5.0
 40
5.0
 40
5.0
 10
10.83027804421829
 20
24.05943623047283
 30
0.0
 10
10.88395491963721
 20
23.94327326281999
 30
0.0
 10
10.95536259801155
 20
23.83616174525847
 30
0.0
 10
11.04194484540609
 20
23.74193569225604
 30
0.0
 10
11.04194484540609
 20
23.74193569225604
 30
0.0
 10
11.35944471075267
 20
23.49499097872524
 30
0.0
 10
11.35944471075267
 20
23.49499097872524
 30
0.0
 10
11.35944471075267
 20
23.49499097872524
 30
0.0
 10
11.35944471075267
 20
23.07165737634966
 30
0.0
 10
11.35944471075267
 20
23.07165737634966
 30
0.0
 10
11.35944471075267
 20
23.07165737634966
 30
0.0
 10
10.79500013187529
 20
23.81249017120161
 30
0.0
 10
10.79500013187529
 20
23.81249017120161
 30
0.0
 10
10.79500013187529
 20
23.81249017120161
 30
0.0
 10
10.83027804421829
 20
24.05943623047283
 30
0.0
 10
10.83027804421829
 20
24.05943623047283
 30
0.0
  0
POLYLINE
  5
158
330
49
100
AcDbEntity
  8
Layer 1
370
     0
100
AcDb2dPolyline
 66
     1
 10
0.0
 20
0.0
 30
0.0
  0
VERTEX
  5
159
330
158
100
AcDbEntity
  8
Layer 1
370
     0
100
AcDbVertex
100
AcDb2dVertex
 10
11.50055636012467
 20
20.03777037225583
 30
0.0
  0
VERTEX
  5
15A
330
158
100
AcDbEntity
  8
Layer 1
370
     0
100
AcDbVertex
100
AcDb2dVertex
 10
11.78277831312825
 20
18.87360262928787
 30
0.0
  0
VERTEX
  5
15B
330
158
100
AcDbEntity
  8
Layer 1
370
     0
100
AcDbVertex
100
AcDb2dVertex
 10
10.61861191590071
 20
19.79082431298461
 30
0.0
  0
VERTEX
  5
15C
330
158
100
AcDbEntity
  8
Layer 1
370
     0
100
AcDbVertex
100
AcDb2dVertex
 10
10.5833333306875
 20
19.79082431298461
 30
0.0
  0
VERTEX
  5
15D
330
158
100
AcDbEntity
  8
Layer 1
370
     0
100
AcDbVertex
100
AcDb2dVertex
 10
10.5127775060015
 20
19.19110316750466
 30
0.0
  0
VERTEX
  5
15E
330
158
100
AcDbEntity
  8
Layer 1
370
     0
100
AcDbVertex
100
AcDb2dVertex
 10
10.15999972831192
 20
19.68499259456625
 30
0.0
  0
VERTEX
  5
15F
330
158
100
AcDbEntity
  8
Layer 1
370
     0
100
AcDbVertex
100
AcDb2dVertex
 10
10.4774995936585
 20
20.4258253894182
 30
0.0
  0
VERTEX
  5
160
330
158
100
AcDbEntity
  8
Layer 1
370
     0
100
AcDbVertex
100
AcDb2dVertex
 10
11.50055636012467
 20
20.03777037225583
 30
0.0
  0
SEQEND
  5
161
330
158
100
AcDbEntity
  8
Layer 1
370
     0
  0
POLYLINE
  5
162
330
49
100
AcDbEntity
  8
Layer 1
370
     0
100
AcDb2dPolyline
 66
     1
 10
0.0
 20
0.0
 30
0.0
  0
VERTEX
  5
163
330
162
100
AcDbEntity
  8
Layer 1
370
     0
100
AcDbVertex
100
AcDb2dVertex
 10
10.51277885174192
 20
18.69721374044308
 30
0.0
  0
VERTEX
  5
164
330
162
100
AcDbEntity
  8
Layer 1
370
     0
100
AcDbVertex
100
AcDb2dVertex
 10
10.44222302705592
 20
17.53304599747511
 30
0.0
  0
VERTEX
  5
165
330
162
100
AcDbEntity
  8
Layer 1
370
     0
100
AcDbVertex
100
AcDb2dVertex
 10
10.08944524936634
 20
17.32137986915753
 30
0.0
  0
VERTEX
  5
166
330
162
100
AcDbEntity
  8
Layer 1
370
     0
100
AcDbVertex
100
AcDb2dVertex
 10
9.560278582831963
 20
17.18026821978553
 30
0.0
  0
VERTEX
  5
167
330
162
100
AcDbEntity
  8
Layer 1
370
     0
100
AcDbVertex
100
AcDb2dVertex
 10
9.771945384019755
 20
18.06221266400949
 30
0.0
  0
VERTEX
  5
168
330
162
100
AcDbEntity
  8
Layer 1
370
     0
100
AcDbVertex
100
AcDb2dVertex
 10
9.34861178164417
 20
17.95637825411027
 30
0.0
  0
VERTEX
  5
169
330
162
100
AcDbEntity
  8
Layer 1
370
     0
100
AcDbVertex
100
AcDb2dVertex
 10
9.101667068113377
 20
17.03915657041353
 30
0.0
  0
VERTEX
  5
16A
330
162
100
AcDbEntity
  8
Layer 1
370
     0
100
AcDbVertex
100
AcDb2dVertex
 10
8.572500401579003
 20
16.89804492104152
 30
0.0
  0
VERTEX
  5
16B
330
162
100
AcDbEntity
  8
Layer 1
370
     0
100
AcDbVertex
100
AcDb2dVertex
 10
8.925278179268586
 20
18.16804438242785
 30
0.0
  0
VERTEX
  5
16C
330
162
100
AcDbEntity
  8
Layer 1
370
     0
100
AcDbVertex
100
AcDb2dVertex
 10
8.995834003954588
 20
17.95637825411027
 30
0.0
  0
VERTEX
  5
16D
330
162
100
AcDbEntity
  8
Layer 1
370
     0
100
AcDbVertex
100
AcDb2dVertex
 10
9.666111646990753
 20
18.80304545886144
 30
0.0
  0
VERTEX
  5
16E
330
162
100
AcDbEntity
  8
Layer 1
370
     0
100
AcDbVertex
100
AcDb2dVertex
 10
10.51277885174192
 20
18.69721374044308
 30
0.0
  0
SEQEND
  5
16F
330
162
100
AcDbEntity
  8
Layer 1
370
     0
  0
POLYLINE
  5
170
330
49
100
AcDbEntity
  8
Layer 1
370
     0
100
AcDb2dPolyline
 66
     1
 10
0.0
 20
0.0
 30
0.0
  0
VERTEX
  5
171
330
170
100
AcDbEntity
  8
Layer 1
370
     0
100
AcDbVertex
100
AcDb2dVertex
 10
8.678334138608005
 20
16.50999259536
 30
0.0
  0
VERTEX
  5
172
330
170
100
AcDbEntity
  8
Layer 1
370
     0
100
AcDbVertex
100
AcDb2dVertex
 10
8.995834003954588
 20
16.61582700525921
 30
0.0
  0
VERTEX
  5
173
330
170
100
AcDbEntity
  8
Layer 1
370
     0
100
AcDbVertex
100
AcDb2dVertex
 10
8.748889290423794
 20
16.43943811641442
 30
0.0
  0
VERTEX
  5
174
330
170
100
AcDbEntity
  8
Layer 1
370
     0
100
AcDbVertex
100
AcDb2dVertex
 10
8.678334138608005
 20
16.50999259536
 30
0.0
  0
SEQEND
  5
175
330
170
100
AcDbEntity
  8
Layer 1
370
     0
  0
POLYLINE
  5
176
330
49
100
AcDbEntity
  8
Layer 1
370
     0
100
AcDb2dPolyline
 66
     1
 10
0.0
 20
0.0
 30
0.0
  0
VERTEX
  5
177
330
176
100
AcDbEntity
  8
Layer 1
370
     0
100
AcDbVertex
100
AcDb2dVertex
 10
6.349999998412501
 20
16.72165872367758
 30
0.0
  0
VERTEX
  5
178
330
176
100
AcDbEntity
  8
Layer 1
370
     0
100
AcDbVertex
100
AcDb2dVertex
 10
7.231944442636459
 20
16.50999259536
 30
0.0
  0
VERTEX
  5
179
330
176
100
AcDbEntity
  8
Layer 1
370
     0
100
AcDbVertex
100
AcDb2dVertex
 10
5.997222220722917
 20
16.15721481767041
 30
0.0
  0
VERTEX
  5
17A
330
176
100
AcDbEntity
  8
Layer 1
370
     0
100
AcDbVertex
100
AcDb2dVertex
 10
5.891389156564126
 20
16.26304922756963
 30
0.0
  0
VERTEX
  5
17B
330
176
100
AcDbEntity
  8
Layer 1
370
     0
100
AcDbVertex
100
AcDb2dVertex
 10
5.785556092405336
 20
16.26304922756963
 30
0.0
  0
VERTEX
  5
17C
330
176
100
AcDbEntity
  8
Layer 1
370
     0
100
AcDbVertex
100
AcDb2dVertex
 10
6.103055957751919
 20
17.49777144948317
 30
0.0
  0
VERTEX
  5
17D
330
176
100
AcDbEntity
  8
Layer 1
370
     0
100
AcDbVertex
100
AcDb2dVertex
 10
6.349999998412501
 20
16.72165872367758
 30
0.0
  0
SEQEND
  5
17E
330
176
100
AcDbEntity
  8
Layer 1
370
     0
  0
POLYLINE
  5
17F
330
49
100
AcDbEntity
  8
Layer 1
370
     0
100
AcDb2dPolyline
 66
     1
 10
0.0
 20
0.0
 30
0.0
  0
VERTEX
  5
180
330
17F
100
AcDbEntity
  8
Layer 1
370
     0
100
AcDbVertex
100
AcDb2dVertex
 10
5.468055554188542
 20
16.43943542493357
 30
0.0
  0
VERTEX
  5
181
330
17F
100
AcDbEntity
  8
Layer 1
370
     0
100
AcDbVertex
100
AcDb2dVertex
 10
5.185833264749854
 20
16.43943542493357
 30
0.0
  0
VERTEX
  5
182
330
17F
100
AcDbEntity
  8
Layer 1
370
     0
100
AcDbVertex
100
AcDb2dVertex
 10
4.268611244618001
 20
17.35665710863032
 30
0.0
  0
VERTEX
  5
183
330
17F
100
AcDbEntity
  8
Layer 1
370
     0
100
AcDbVertex
100
AcDb2dVertex
 10
5.150555688841959
 20
17.10971374083995
 30
0.0
  0
VERTEX
  5
184
330
17F
100
AcDbEntity
  8
Layer 1
370
     0
100
AcDbVertex
100
AcDb2dVertex
 10
5.785555419535124
 20
17.77999205674633
 30
0.0
  0
VERTEX
  5
185
330
17F
100
AcDbEntity
  8
Layer 1
370
     0
100
AcDbVertex
100
AcDb2dVertex
 10
5.468055554188542
 20
16.43943542493357
 30
0.0
  0
SEQEND
  5
186
330
17F
100
AcDbEntity
  8
Layer 1
370
     0
  0
SPLINE
  5
187
330
49
100
AcDbEntity
  8
Layer 1
370
     0
100
AcDbSpline
210
0.0
220
0.0
230
1.0
 70
    11
 71
     3
 72
    23
 73
    19
 74
     0
 42
0.0000000001
 43
0.0000000001
 12
1.0
 22
0.0
 32
0.0
 13
1.0
 23
0.0
 33
0.0
 40
0.0
 40
0.0
 40
0.0
 40
0.0
 40
1.0
 40
1.0
 40
1.0
 40
2.0
 40
2.0
 40
2.0
 40
3.0
 40
3.0
 40
3.0
 40
4.0
 40
4.0
 40
4.0
 40
5.0
 40
5.0
 40
5.0
 40
6.0
 40
6.0
 40
6.0
 40
6.0
 10
4.974166799997167
 20
15.55749098070962
 30
0.0
 10
4.983792544814403
 20
15.50470296684071
 30
0.0
 10
5.008267189469233
 20
15.45575300466083
 30
0.0
 10
5.044722288248063
 20
15.41637933133761
 30
0.0
 10
5.044722288248063
 20
15.41637933133761
 30
0.0
 10
5.185833264749854
 20
15.41637933133761
 30
0.0
 10
5.185833264749854
 20
15.41637933133761
 30
0.0
 10
5.044722288248063
 20
14.99304707470245
 30
0.0
 10
4.938888887654167
 20
14.56971212658644
 30
0.0
 10
4.833055487060271
 20
14.14637986995128
 30
0.0
 10
4.833055487060271
 20
14.14637986995128
 30
0.0
 10
4.586111109964584
 20
14.99304707470245
 30
0.0
 10
4.586111109964584
 20
14.99304707470245
 30
0.0
 10
4.586111109964584
 20
14.99304707470245
 30
0.0
 10
3.704166665740625
 20
15.20471320302003
 30
0.0
 10
3.704166665740625
 20
15.20471320302003
 30
0.0
 10
3.704166665740625
 20
15.20471320302003
 30
0.0
 10
4.974166799997167
 20
15.55749098070962
 30
0.0
 10
4.974166799997167
 20
15.55749098070962
 30
0.0
  0
POLYLINE
  5
188
330
49
100
AcDbEntity
  8
Layer 1
370
     0
100
AcDb2dPolyline
 66
     1
 10
0.0
 20
0.0
 30
0.0
  0
VERTEX
  5
189
330
188
100
AcDbEntity
  8
Layer 1
370
     0
100
AcDbVertex
100
AcDb2dVertex
 10
5.468055554188542
 20
15.23999044249282
 30
0.0
  0
VERTEX
  5
18A
330
188
100
AcDbEntity
  8
Layer 1
370
     0
100
AcDbVertex
100
AcDb2dVertex
 10
5.679722355376335
 20
15.3105449214384
 30
0.0
  0
VERTEX
  5
18B
330
188
100
AcDbEntity
  8
Layer 1
370
     0
100
AcDbVertex
100
AcDb2dVertex
 10
5.750278180062335
 20
15.3105449214384
 30
0.0
  0
VERTEX
  5
18C
330
188
100
AcDbEntity
  8
Layer 1
370
     0
100
AcDbVertex
100
AcDb2dVertex
 10
6.667499863759083
 20
14.42860316869529
 30
0.0
  0
VERTEX
  5
18D
330
188
100
AcDbEntity
  8
Layer 1
370
     0
100
AcDbVertex
100
AcDb2dVertex
 10
5.785555419535124
 20
14.67554653648566
 30
0.0
  0
VERTEX
  5
18E
330
188
100
AcDbEntity
  8
Layer 1
370
     0
100
AcDbVertex
100
AcDb2dVertex
 10
5.150555352406854
 20
14.00526822057928
 30
0.0
  0
VERTEX
  5
18F
330
188
100
AcDbEntity
  8
Layer 1
370
     0
100
AcDbVertex
100
AcDb2dVertex
 10
5.468055554188542
 20
15.23999044249282
 30
0.0
  0
SEQEND
  5
190
330
188
100
AcDbEntity
  8
Layer 1
370
     0
  0
POLYLINE
  5
191
330
49
100
AcDbEntity
  8
Layer 1
370
     0
100
AcDb2dPolyline
 66
     1
 10
0.0
 20
0.0
 30
0.0
  0
VERTEX
  5
192
330
191
100
AcDbEntity
  8
Layer 1
370
     0
100
AcDbVertex
100
AcDb2dVertex
 10
10.6538891553735
 20
12.62943434929374
 30
0.0
  0
VERTEX
  5
193
330
191
100
AcDbEntity
  8
Layer 1
370
     0
100
AcDbVertex
100
AcDb2dVertex
 10
10.7244449800595
 20
13.01748936645611
 30
0.0
  0
VERTEX
  5
194
330
191
100
AcDbEntity
  8
Layer 1
370
     0
100
AcDbVertex
100
AcDb2dVertex
 10
11.04194484540609
 20
12.77054599866574
 30
0.0
  0
VERTEX
  5
195
330
191
100
AcDbEntity
  8
Layer 1
370
     0
100
AcDbVertex
100
AcDb2dVertex
 10
11.43000053543867
 20
12.87638040856495
 30
0.0
  0
VERTEX
  5
196
330
191
100
AcDbEntity
  8
Layer 1
370
     0
100
AcDbVertex
100
AcDb2dVertex
 10
11.28888888606667
 20
12.45304815192979
 30
0.0
  0
VERTEX
  5
197
330
191
100
AcDbEntity
  8
Layer 1
370
     0
100
AcDbVertex
100
AcDb2dVertex
 10
11.50055501438425
 20
12.135547613713
 30
0.0
  0
VERTEX
  5
198
330
191
100
AcDbEntity
  8
Layer 1
370
     0
100
AcDbVertex
100
AcDb2dVertex
 10
11.07722208487887
 20
12.135547613713
 30
0.0
  0
VERTEX
  5
199
330
191
100
AcDbEntity
  8
Layer 1
370
     0
100
AcDbVertex
100
AcDb2dVertex
 10
10.83027737134808
 20
11.85332431496899
 30
0.0
  0
VERTEX
  5
19A
330
191
100
AcDbEntity
  8
Layer 1
370
     0
100
AcDbVertex
100
AcDb2dVertex
 10
10.68916639484629
 20
12.24137933213136
 30
0.0
  0
VERTEX
  5
19B
330
191
100
AcDbEntity
  8
Layer 1
370
     0
100
AcDbVertex
100
AcDb2dVertex
 10
10.30111070481371
 20
12.41776822097615
 30
0.0
  0
VERTEX
  5
19C
330
191
100
AcDbEntity
  8
Layer 1
370
     0
100
AcDbVertex
100
AcDb2dVertex
 10
10.6538891553735
 20
12.62943434929374
 30
0.0
  0
SEQEND
  5
19D
330
191
100
AcDbEntity
  8
Layer 1
370
     0
  0
POLYLINE
  5
19E
330
49
100
AcDbEntity
  8
Layer 1
370
     0
100
AcDb2dPolyline
 66
     1
 10
0.0
 20
0.0
 30
0.0
  0
VERTEX
  5
19F
330
19E
100
AcDbEntity
  8
Layer 1
370
     0
100
AcDbVertex
100
AcDb2dVertex
 10
11.00666693306309
 20
9.313322700715482
 30
0.0
  0
VERTEX
  5
1A0
330
19E
100
AcDbEntity
  8
Layer 1
370
     0
100
AcDbVertex
100
AcDb2dVertex
 10
10.6186112430305
 20
9.313322700715482
 30
0.0
  0
VERTEX
  5
1A1
330
19E
100
AcDbEntity
  8
Layer 1
370
     0
100
AcDbVertex
100
AcDb2dVertex
 10
10.37166652949971
 20
9.031099401971476
 30
0.0
  0
VERTEX
  5
1A2
330
19E
100
AcDbEntity
  8
Layer 1
370
     0
100
AcDbVertex
100
AcDb2dVertex
 10
10.26583346534092
 20
9.419154419133848
 30
0.0
  0
VERTEX
  5
1A3
330
19E
100
AcDbEntity
  8
Layer 1
370
     0
100
AcDbVertex
100
AcDb2dVertex
 10
9.913055687651335
 20
9.56026606850585
 30
0.0
  0
VERTEX
  5
1A4
330
19E
100
AcDbEntity
  8
Layer 1
370
     0
100
AcDbVertex
100
AcDb2dVertex
 10
10.23055555299792
 20
9.771932196823432
 30
0.0
  0
VERTEX
  5
1A5
330
19E
100
AcDbEntity
  8
Layer 1
370
     0
100
AcDbVertex
100
AcDb2dVertex
 10
10.23055555299792
 20
10.12470997451302
 30
0.0
  0
VERTEX
  5
1A6
330
19E
100
AcDbEntity
  8
Layer 1
370
     0
100
AcDbVertex
100
AcDb2dVertex
 10
10.5480554183445
 20
9.877766606722645
 30
0.0
  0
VERTEX
  5
1A7
330
19E
100
AcDbEntity
  8
Layer 1
370
     0
100
AcDbVertex
100
AcDb2dVertex
 10
10.90083319603408
 20
9.98360101662186
 30
0.0
  0
VERTEX
  5
1A8
330
19E
100
AcDbEntity
  8
Layer 1
370
     0
100
AcDbVertex
100
AcDb2dVertex
 10
10.79500013187529
 20
9.595545999459487
 30
0.0
  0
VERTEX
  5
1A9
330
19E
100
AcDbEntity
  8
Layer 1
370
     0
100
AcDbVertex
100
AcDb2dVertex
 10
11.00666693306309
 20
9.313322700715482
 30
0.0
  0
SEQEND
  5
1AA
330
19E
100
AcDbEntity
  8
Layer 1
370
     0
  0
POLYLINE
  5
1AB
330
49
100
AcDbEntity
  8
Layer 1
370
     0
100
AcDb2dPolyline
 66
     1
 10
0.0
 20
0.0
 30
0.0
  0
VERTEX
  5
1AC
330
1AB
100
AcDbEntity
  8
Layer 1
370
     0
100
AcDbVertex
100
AcDb2dVertex
 10
10.83027804421829
 20
8.819433273653896
 30
0.0
  0
VERTEX
  5
1AD
330
1AB
100
AcDbEntity
  8
Layer 1
370
     0
100
AcDbVertex
100
AcDb2dVertex
 10
11.25361164659388
 20
8.819433273653896
 30
0.0
  0
VERTEX
  5
1AE
330
1AB
100
AcDbEntity
  8
Layer 1
370
     0
100
AcDbVertex
100
AcDb2dVertex
 10
10.47750026652871
 20
8.360821086065098
 30
0.0
  0
VERTEX
  5
1AF
330
1AB
100
AcDbEntity
  8
Layer 1
370
     0
100
AcDbVertex
100
AcDb2dVertex
 10
10.83027804421829
 20
8.819433273653896
 30
0.0
  0
SEQEND
  5
1B0
330
1AB
100
AcDbEntity
  8
Layer 1
370
     0
  0
POLYLINE
  5
1B1
330
49
100
AcDbEntity
  8
Layer 1
370
     0
100
AcDb2dPolyline
 66
     1
 10
0.0
 20
0.0
 30
0.0
  0
VERTEX
  5
1B2
330
1B1
100
AcDbEntity
  8
Layer 1
370
     0
100
AcDbVertex
100
AcDb2dVertex
 10
16.40416666256563
 20
14.46387771668723
 30
0.0
  0
VERTEX
  5
1B3
330
1B1
100
AcDbEntity
  8
Layer 1
370
     0
100
AcDbVertex
100
AcDb2dVertex
 10
17.2508338673168
 20
14.95776714374882
 30
0.0
  0
VERTEX
  5
1B4
330
1B1
100
AcDbEntity
  8
Layer 1
370
     0
100
AcDbVertex
100
AcDb2dVertex
 10
17.35666693147559
 20
15.83971158797277
 30
0.0
  0
VERTEX
  5
1B5
330
1B1
100
AcDbEntity
  8
Layer 1
370
     0
100
AcDbVertex
100
AcDb2dVertex
 10
18.09749972632754
 20
15.27526768196561
 30
0.0
  0
VERTEX
  5
1B6
330
1B1
100
AcDbEntity
  8
Layer 1
370
     0
100
AcDbVertex
100
AcDb2dVertex
 10
19.01472141002429
 20
15.52221104975598
 30
0.0
  0
VERTEX
  5
1B7
330
1B1
100
AcDbEntity
  8
Layer 1
370
     0
100
AcDbVertex
100
AcDb2dVertex
 10
18.69722221754792
 20
14.49915764764087
 30
0.0
  0
VERTEX
  5
1B8
330
1B1
100
AcDbEntity
  8
Layer 1
370
     0
100
AcDbVertex
100
AcDb2dVertex
 10
19.22638888408229
 20
13.72304761331612
 30
0.0
  0
VERTEX
  5
1B9
330
1B1
100
AcDbEntity
  8
Layer 1
370
     0
100
AcDbVertex
100
AcDb2dVertex
 10
18.20333279048633
 20
13.7936020922617
 30
0.0
  0
VERTEX
  5
1BA
330
1B1
100
AcDbEntity
  8
Layer 1
370
     0
100
AcDbVertex
100
AcDb2dVertex
 10
17.60361029926596
 20
13.15860101582811
 30
0.0
  0
VERTEX
  5
1BB
330
1B1
100
AcDbEntity
  8
Layer 1
370
     0
100
AcDbVertex
100
AcDb2dVertex
 10
17.28611110678958
 20
14.0758253910057
 30
0.0
  0
VERTEX
  5
1BC
330
1B1
100
AcDbEntity
  8
Layer 1
370
     0
100
AcDbVertex
100
AcDb2dVertex
 10
16.40416666256563
 20
14.46387771668723
 30
0.0
  0
SEQEND
  5
1BD
330
1B1
100
AcDbEntity
  8
Layer 1
370
     0
  0
POLYLINE
  5
1BE
330
49
100
AcDbEntity
  8
Layer 1
370
     0
100
AcDb2dPolyline
 66
     1
 10
0.0
 20
0.0
 30
0.0
  0
VERTEX
  5
1BF
330
1BE
100
AcDbEntity
  8
Layer 1
370
     0
100
AcDbVertex
100
AcDb2dVertex
 10
20.28472221715104
 20
14.60498936605923
 30
0.0
  0
VERTEX
  5
1C0
330
1BE
100
AcDbEntity
  8
Layer 1
370
     0
100
AcDbVertex
100
AcDb2dVertex
 10
21.025555012003
 20
14.25221158836965
 30
0.0
  0
VERTEX
  5
1C1
330
1BE
100
AcDbEntity
  8
Layer 1
370
     0
100
AcDbVertex
100
AcDb2dVertex
 10
21.41361002916537
 20
12.8763777170841
 30
0.0
  0
VERTEX
  5
1C2
330
1BE
100
AcDbEntity
  8
Layer 1
370
     0
100
AcDbVertex
100
AcDb2dVertex
 10
20.28472221715104
 20
14.60498936605923
 30
0.0
  0
SEQEND
  5
1C3
330
1BE
100
AcDbEntity
  8
Layer 1
370
     0
  0
POLYLINE
  5
1C4
330
49
100
AcDbEntity
  8
Layer 1
370
     0
100
AcDb2dPolyline
 66
     1
 10
0.0
 20
0.0
 30
0.0
  0
VERTEX
  5
1C5
330
1C4
100
AcDbEntity
  8
Layer 1
370
     0
100
AcDbVertex
100
AcDb2dVertex
 10
21.237222486061
 20
14.81665549437681
 30
0.0
  0
VERTEX
  5
1C6
330
1C4
100
AcDbEntity
  8
Layer 1
370
     0
100
AcDbVertex
100
AcDb2dVertex
 10
21.48416719959179
 20
14.95776714374882
 30
0.0
  0
VERTEX
  5
1C7
330
1C4
100
AcDbEntity
  8
Layer 1
370
     0
100
AcDbVertex
100
AcDb2dVertex
 10
21.48416719959179
 20
15.23999044249282
 30
0.0
  0
VERTEX
  5
1C8
330
1C4
100
AcDbEntity
  8
Layer 1
370
     0
100
AcDbVertex
100
AcDb2dVertex
 10
21.73111191312259
 20
15.06360155364803
 30
0.0
  0
VERTEX
  5
1C9
330
1C4
100
AcDbEntity
  8
Layer 1
370
     0
100
AcDbVertex
100
AcDb2dVertex
 10
22.01333386612617
 20
15.13415603259361
 30
0.0
  0
VERTEX
  5
1CA
330
1C4
100
AcDbEntity
  8
Layer 1
370
     0
100
AcDbVertex
100
AcDb2dVertex
 10
21.94277804144017
 20
14.81665549437681
 30
0.0
  0
VERTEX
  5
1CB
330
1C4
100
AcDbEntity
  8
Layer 1
370
     0
100
AcDbVertex
100
AcDb2dVertex
 10
22.08388969081217
 20
14.56971212658644
 30
0.0
  0
VERTEX
  5
1CC
330
1C4
100
AcDbEntity
  8
Layer 1
370
     0
100
AcDbVertex
100
AcDb2dVertex
 10
21.76638915259538
 20
14.56971212658644
 30
0.0
  0
VERTEX
  5
1CD
330
1C4
100
AcDbEntity
  8
Layer 1
370
     0
100
AcDbVertex
100
AcDb2dVertex
 10
21.59000026375059
 20
14.39332323774165
 30
0.0
  0
VERTEX
  5
1CE
330
1C4
100
AcDbEntity
  8
Layer 1
370
     0
100
AcDbVertex
100
AcDb2dVertex
 10
21.48416719959179
 20
14.67554653648566
 30
0.0
  0
VERTEX
  5
1CF
330
1C4
100
AcDbEntity
  8
Layer 1
370
     0
100
AcDbVertex
100
AcDb2dVertex
 10
21.237222486061
 20
14.81665549437681
 30
0.0
  0
SEQEND
  5
1D0
330
1C4
100
AcDbEntity
  8
Layer 1
370
     0
  0
POLYLINE
  5
1D1
330
49
100
AcDbEntity
  8
Layer 1
370
     0
100
AcDb2dPolyline
 66
     1
 10
0.0
 20
0.0
 30
0.0
  0
VERTEX
  5
1D2
330
1D1
100
AcDbEntity
  8
Layer 1
370
     0
100
AcDbVertex
100
AcDb2dVertex
 10
28.53972275338346
 20
8.854710513126683
 30
0.0
  0
VERTEX
  5
1D3
330
1D1
100
AcDbEntity
  8
Layer 1
370
     0
100
AcDbVertex
100
AcDb2dVertex
 10
28.36333386453867
 20
9.13693381187069
 30
0.0
  0
VERTEX
  5
1D4
330
1D1
100
AcDbEntity
  8
Layer 1
370
     0
100
AcDbVertex
100
AcDb2dVertex
 10
28.61027723232904
 20
8.995822162498687
 30
0.0
  0
VERTEX
  5
1D5
330
1D1
100
AcDbEntity
  8
Layer 1
370
     0
100
AcDbVertex
100
AcDb2dVertex
 10
28.53972275338346
 20
8.854710513126683
 30
0.0
  0
SEQEND
  5
1D6
330
1D1
100
AcDbEntity
  8
Layer 1
370
     0
  0
SPLINE
  5
1D7
330
49
100
AcDbEntity
  8
Layer 1
370
     0
100
AcDbSpline
210
0.0
220
0.0
230
1.0
 70
    11
 71
     3
 72
    17
 73
    13
 74
     0
 42
0.0000000001
 43
0.0000000001
 12
1.0
 22
0.0
 32
0.0
 13
1.0
 23
0.0
 33
0.0
 40
0.0
 40
0.0
 40
0.0
 40
0.0
 40
1.0
 40
1.0
 40
1.0
 40
2.0
 40
2.0
 40
2.0
 40
3.0
 40
3.0
 40
3.0
 40
4.0
 40
4.0
 40
4.0
 40
4.0
 10
28.75138888170104
 20
10.26582162388502
 30
0.0
 10
28.68083440275547
 20
10.23054438441223
 30
0.0
 10
28.64555447180183
 20
10.26582162388502
 30
0.0
 10
28.61027723232904
 20
10.3363761028306
 30
0.0
 10
28.57499999285625
 20
10.40693058177617
 30
0.0
 10
28.61027723232904
 20
10.4774877522026
 30
0.0
 10
28.68083171127462
 20
10.4774877522026
 30
0.0
 10
28.74902576151663
 20
10.50299760767853
 30
0.0
 10
28.82543151982544
 20
10.47243584265118
 30
0.0
 10
28.85722060011941
 20
10.40693327325702
 30
0.0
 10
28.85722329160026
 20
10.33638148579229
 30
0.0
 10
28.82194336064662
 20
10.26582431536587
 30
0.0
 10
28.75138888170104
 20
10.26582162388502
 30
0.0
  0
SPLINE
  5
1D8
330
49
100
AcDbEntity
  8
Layer 1
370
     0
100
AcDbSpline
210
0.0
220
0.0
230
1.0
 70
    11
 71
     3
 72
    17
 73
    13
 74
     0
 42
0.0000000001
 43
0.0000000001
 12
1.0
 22
0.0
 32
0.0
 13
1.0
 23
0.0
 33
0.0
 40
0.0
 40
0.0
 40
0.0
 40
0.0
 40
1.0
 40
1.0
 40
1.0
 40
2.0
 40
2.0
 40
2.0
 40
3.0
 40
3.0
 40
3.0
 40
4.0
 40
4.0
 40
4.0
 40
4.0
 10
28.50444551391067
 20
11.50054384579856
 30
0.0
 10
28.53972275338346
 20
11.46526660632577
 30
0.0
 10
28.50444551391067
 20
11.39470943589935
 30
0.0
 10
28.4338910349651
 20
11.35943219642656
 30
0.0
 10
28.4338910349651
 20
11.35943219642656
 30
0.0
 10
28.29277938559309
 20
11.42998667537213
 30
0.0
 10
28.29277938559309
 20
11.42998667537213
 30
0.0
 10
28.26726953011716
 20
11.49818072561415
 30
0.0
 10
28.29783129514451
 20
11.57458648392295
 30
0.0
 10
28.36333386453867
 20
11.60637556421693
 30
0.0
 10
28.43388834348425
 20
11.60638094717862
 30
0.0
 10
28.50444551391067
 20
11.57110370770583
 30
0.0
 10
28.50444551391067
 20
11.50054384579856
 30
0.0
  0
SPLINE
  5
1D9
330
49
100
AcDbEntity
  8
Layer 1
370
     0
100
AcDbSpline
210
0.0
220
0.0
230
1.0
 70
    11
 71
     3
 72
    14
 73
    10
 74
     0
 42
0.0000000001
 43
0.0000000001
 12
1.0
 22
0.0
 32
0.0
 13
1.0
 23
0.0
 33
0.0
 40
0.0
 40
0.0
 40
0.0
 40
0.0
 40
1.0
 40
1.0
 40
1.0
 40
2.0
 40
2.0
 40
2.0
 40
3.0
 40
3.0
 40
3.0
 40
3.0
 10
27.79888995853151
 20
12.20609940117773
 30
0.0
 10
27.79888995853151
 20
12.20609940117773
 30
0.0
 10
27.90472436843072
 20
12.31193381107694
 30
0.0
 10
27.90472436843072
 20
12.31193381107694
 30
0.0
 10
27.90144614475804
 20
12.27330836942942
 30
0.0
 10
27.91420376397685
 20
12.23503551177298
 30
0.0
 10
27.94000160790351
 20
12.20609940117773
 30
0.0
 10
27.94000160790351
 20
12.20609940117773
 30
0.0
 10
27.79888995853151
 20
12.20609940117773
 30
0.0
 10
27.79888995853151
 20
12.20609940117773
 30
0.0
  0
SPLINE
  5
1DA
330
49
100
AcDbEntity
  8
Layer 1
370
     0
100
AcDbSpline
210
0.0
220
0.0
230
1.0
 70
    11
 71
     3
 72
    35
 73
    31
 74
     0
 42
0.0000000001
 43
0.0000000001
 12
1.0
 22
0.0
 32
0.0
 13
1.0
 23
0.0
 33
0.0
 40
0.0
 40
0.0
 40
0.0
 40
0.0
 40
1.0
 40
1.0
 40
1.0
 40
2.0
 40
2.0
 40
2.0
 40
3.0
 40
3.0
 40
3.0
 40
4.0
 40
4.0
 40
4.0
 40
5.0
 40
5.0
 40
5.0
 40
6.0
 40
6.0
 40
6.0
 40
7.0
 40
7.0
 40
7.0
 40
8.0
 40
8.0
 40
8.0
 40
9.0
 40
9.0
 40
9.0
 40
10.0
 40
10.0
 40
10.0
 40
10.0
 10
28.04583332632188
 20
13.86415387972643
 30
0.0
 10
28.04583332632188
 20
13.86415387972643
 30
0.0
 10
27.72833278810508
 20
13.51137610203685
 30
0.0
 10
27.72833278810508
 20
13.51137610203685
 30
0.0
 10
27.72833278810508
 20
13.51137610203685
 30
0.0
 10
27.41083224988829
 20
13.22915280329284
 30
0.0
 10
27.41083224988829
 20
13.22915280329284
 30
0.0
 10
27.41083224988829
 20
13.22915280329284
 30
0.0
 10
27.12860895114428
 20
13.05276391444805
 30
0.0
 10
27.12860895114428
 20
13.05276391444805
 30
0.0
 10
27.12860895114428
 20
13.05276391444805
 30
0.0
 10
26.88166558335391
 20
12.98220943550247
 30
0.0
 10
26.88166558335391
 20
12.98220943550247
 30
0.0
 10
26.88166558335391
 20
12.98220943550247
 30
0.0
 10
26.63472221556354
 20
13.12332108487447
 30
0.0
 10
26.63472221556354
 20
13.12332108487447
 30
0.0
 10
26.49433726602046
 20
13.24656668437844
 30
0.0
 10
26.45133009355264
 20
13.44726233676018
 30
0.0
 10
26.52888780566433
 20
13.61721051193606
 30
0.0
 10
26.6224975095526
 20
13.8172144537399
 30
0.0
 10
26.75432354999952
 20
13.9969784595679
 30
0.0
 10
26.9169428228267
 20
14.14637717847043
 30
0.0
 10
26.9169428228267
 20
14.14637717847043
 30
0.0
 10
28.68083171127462
 20
14.60498936605923
 30
0.0
 10
28.68083171127462
 20
14.60498936605923
 30
0.0
 10
28.68083171127462
 20
14.60498936605923
 30
0.0
 10
28.36333117305782
 20
14.25221158836965
 30
0.0
 10
28.36333117305782
 20
14.25221158836965
 30
0.0
 10
28.36333117305782
 20
14.25221158836965
 30
0.0
 10
28.04583332632188
 20
13.86415387972643
 30
0.0
 10
28.04583332632188
 20
13.86415387972643
 30
0.0
  0
SPLINE
  5
1DB
330
49
100
AcDbEntity
  8
Layer 1
370
     0
100
AcDbSpline
210
0.0
220
0.0
230
1.0
 70
    11
 71
     3
 72
    20
 73
    16
 74
     0
 42
0.0000000001
 43
0.0000000001
 12
1.0
 22
0.0
 32
0.0
 13
1.0
 23
0.0
 33
0.0
 40
0.0
 40
0.0
 40
0.0
 40
0.0
 40
1.0
 40
1.0
 40
1.0
 40
2.0
 40
2.0
 40
2.0
 40
3.0
 40
3.0
 40
3.0
 40
4.0
 40
4.0
 40
4.0
 40
5.0
 40
5.0
 40
5.0
 40
5.0
 10
28.15166773622109
 20
8.466652804483465
 30
0.0
 10
28.18167774767463
 20
8.536111850723966
 30
0.0
 10
28.25264671467078
 20
8.578693769217823
 30
0.0
 10
28.32805662506588
 20
8.572487214382678
 30
0.0
 10
28.32805662506588
 20
8.572487214382678
 30
0.0
 10
28.32805662506588
 20
8.572487214382678
 30
0.0
 10
28.32805662506588
 20
8.572487214382678
 30
0.0
 10
28.32805662506588
 20
8.572487214382678
 30
0.0
 10
28.18694497569388
 20
8.396098325537887
 30
0.0
 10
28.18694497569388
 20
8.396098325537887
 30
0.0
 10
28.18694497569388
 20
8.396103708499583
 30
0.0
 10
28.15166773622109
 20
8.431380947972372
 30
0.0
 10
28.15166773622109
 20
8.46665818744516
 30
0.0
 10
28.15166773622109
 20
8.46665818744516
 30
0.0
 10
28.15166773622109
 20
8.466652804483465
 30
0.0
 10
28.15166773622109
 20
8.466652804483465
 30
0.0
  0
SPLINE
  5
1DC
330
49
100
AcDbEntity
  8
Layer 1
370
     0
100
AcDbSpline
210
0.0
220
0.0
230
1.0
 70
    11
 71
     3
 72
   284
 73
   280
 74
     0
 42
0.0000000001
 43
0.0000000001
 12
1.0
 22
0.0
 32
0.0
 13
1.0
 23
0.0
 33
0.0
 40
0.0
 40
0.0
 40
0.0
 40
0.0
 40
1.0
 40
1.0
 40
1.0
 40
2.0
 40
2.0
 40
2.0
 40
3.0
 40
3.0
 40
3.0
 40
4.0
 40
4.0
 40
4.0
 40
5.0
 40
5.0
 40
5.0
 40
6.0
 40
6.0
 40
6.0
 40
7.0
 40
7.0
 40
7.0
 40
8.0
 40
8.0
 40
8.0
 40
9.0
 40
9.0
 40
9.0
 40
10.0
 40
10.0
 40
10.0
 40
11.0
 40
11.0
 40
11.0
 40
12.0
 40
12.0
 40
12.0
 40
13.0
 40
13.0
 40
13.0
 40
14.0
 40
14.0
 40
14.0
 40
15.0
 40
15.0
 40
15.0
 40
16.0
 40
16.0
 40
16.0
 40
17.0
 40
17.0
 40
17.0
 40
18.0
 40
18.0
 40
18.0
 40
19.0
 40
19.0
 40
19.0
 40
20.0
 40
20.0
 40
20.0
 40
21.0
 40
21.0
 40
21.0
 40
22.0
 40
22.0
 40
22.0
 40
23.0
 40
23.0
 40
23.0
 40
24.0
 40
24.0
 40
24.0
 40
25.0
 40
25.0
 40
25.0
 40
26.0
 40
26.0
 40
26.0
 40
27.0
 40
27.0
 40
27.0
 40
28.0
 40
28.0
 40
28.0
 40
29.0
 40
29.0
 40
29.0
 40
30.0
 40
30.0
 40
30.0
 40
31.0
 40
31.0
 40
31.0
 40
32.0
 40
32.0
 40
32.0
 40
33.0
 40
33.0
 40
33.0
 40
34.0
 40
34.0
 40
34.0
 40
35.0
 40
35.0
 40
35.0
 40
36.0
 40
36.0
 40
36.0
 40
37.0
 40
37.0
 40
37.0
 40
38.0
 40
38.0
 40
38.0
 40
39.0
 40
39.0
 40
39.0
 40
40.0
 40
40.0
 40
40.0
 40
41.0
 40
41.0
 40
41.0
 40
42.0
 40
42.0
 40
42.0
 40
43.0
 40
43.0
 40
43.0
 40
44.0
 40
44.0
 40
44.0
 40
45.0
 40
45.0
 40
45.0
 40
46.0
 40
46.0
 40
46.0
 40
47.0
 40
47.0
 40
47.0
 40
48.0
 40
48.0
 40
48.0
 40
49.0
 40
49.0
 40
49.0
 40
50.0
 40
50.0
 40
50.0
 40
51.0
 40
51.0
 40
51.0
 40
52.0
 40
52.0
 40
52.0
 40
53.0
 40
53.0
 40
53.0
 40
54.0
 40
54.0
 40
54.0
 40
55.0
 40
55.0
 40
55.0
 40
56.0
 40
56.0
 40
56.0
 40
57.0
 40
57.0
 40
57.0
 40
58.0
 40
58.0
 40
58.0
 40
59.0
 40
59.0
 40
59.0
 40
60.0
 40
60.0
 40
60.0
 40
61.0
 40
61.0
 40
61.0
 40
62.0
 40
62.0
 40
62.0
 40
63.0
 40
63.0
 40
63.0
 40
64.0
 40
64.0
 40
64.0
 40
65.0
 40
65.0
 40
65.0
 40
66.0
 40
66.0
 40
66.0
 40
67.0
 40
67.0
 40
67.0
 40
68.0
 40
68.0
 40
68.0
 40
69.0
 40
69.0
 40
69.0
 40
70.0
 40
70.0
 40
70.0
 40
71.0
 40
71.0
 40
71.0
 40
72.0
 40
72.0
 40
72.0
 40
73.0
 40
73.0
 40
73.0
 40
74.0
 40
74.0
 40
74.0
 40
75.0
 40
75.0
 40
75.0
 40
76.0
 40
76.0
 40
76.0
 40
77.0
 40
77.0
 40
77.0
 40
78.0
 40
78.0
 40
78.0
 40
79.0
 40
79.0
 40
79.0
 40
80.0
 40
80.0
 40
80.0
 40
81.0
 40
81.0
 40
81.0
 40
82.0
 40
82.0
 40
82.0
 40
83.0
 40
83.0
 40
83.0
 40
84.0
 40
84.0
 40
84.0
 40
85.0
 40
85.0
 40
85.0
 40
86.0
 40
86.0
 40
86.0
 40
87.0
 40
87.0
 40
87.0
 40
88.0
 40
88.0
 40
88.0
 40
89.0
 40
89.0
 40
89.0
 40
90.0
 40
90.0
 40
90.0
 40
91.0
 40
91.0
 40
91.0
 40
92.0
 40
92.0
 40
92.0
 40
93.0
 40
93.0
 40
93.0
 40
93.0
 10
30.62111218004818
 20
16.29832108408072
 30
0.0
 10
30.62968992951028
 20
14.07963383640541
 30
0.0
 10
30.10969313822453
 20
11.89081126021786
 30
0.0
 10
29.10416665939062
 20
9.913043846195434
 30
0.0
 10
29.09590650466857
 20
9.972485200720232
 30
0.0
 10
29.08412858447837
 20
10.03138556759461
 30
0.0
 10
29.06888941991784
 20
10.08943273504023
 30
0.0
 10
29.06888941991784
 20
10.08943273504023
 30
0.0
 10
29.59805608645221
 20
11.0772115891634
 30
0.0
 10
29.59805608645221
 20
11.0772115891634
 30
0.0
 10
29.66225059615432
 20
11.19649802034017
 30
0.0
 10
29.63263623238541
 20
11.34456714770387
 30
0.0
 10
29.52750160750664
 20
11.42998936685298
 30
0.0
 10
29.41124309228369
 20
11.50129746043596
 30
0.0
 10
29.25919326474602
 20
11.4648575012369
 30
0.0
 10
29.18788517116305
 20
11.34859898601395
 30
0.0
 10
29.18304319711776
 20
11.34070487268721
 30
0.0
 10
29.17865070037407
 20
11.33254430275652
 30
0.0
 10
29.17472382981705
 20
11.32415495695377
 30
0.0
 10
29.17472382981705
 20
11.32415495695377
 30
0.0
 10
28.85722329160026
 20
10.79498829041939
 30
0.0
 10
28.85722329160026
 20
10.79498829041939
 30
0.0
 10
28.85722329160026
 20
10.79498829041939
 30
0.0
 10
28.75138888170104
 20
11.21832054705455
 30
0.0
 10
28.75138888170104
 20
11.21832054705455
 30
0.0
 10
28.75138888170104
 20
11.21832054705455
 30
0.0
 10
29.06888941991784
 20
11.81804169253451
 30
0.0
 10
29.06888941991784
 20
11.81804169253451
 30
0.0
 10
29.06888941991784
 20
11.85331893200729
 30
0.0
 10
29.06888941991784
 20
11.85331893200729
 30
0.0
 10
29.10416665939062
 20
11.88859617148008
 30
0.0
 10
29.10416665939062
 20
11.88859617148008
 30
0.0
 10
29.633333325925
 20
12.06498506032488
 30
0.0
 10
29.633333325925
 20
12.06498506032488
 30
0.0
 10
29.633333325925
 20
12.06498506032488
 30
0.0
 10
29.70388780487058
 20
12.13553953927045
 30
0.0
 10
29.70388780487058
 20
12.13553953927045
 30
0.0
 10
29.70388780487058
 20
12.13553953927045
 30
0.0
 10
29.70388780487058
 20
12.45304007748725
 30
0.0
 10
29.70388780487058
 20
12.45304007748725
 30
0.0
 10
29.70388780487058
 20
12.45304007748725
 30
0.0
 10
29.633333325925
 20
12.52359455643282
 30
0.0
 10
29.633333325925
 20
12.52359455643282
 30
0.0
 10
29.23640718788811
 20
12.37414739087503
 30
0.0
 10
28.82104978900513
 20
12.27920809544792
 30
0.0
 10
28.39861110401146
 20
12.24137125768882
 30
0.0
 10
28.39861110401146
 20
12.27664849716161
 30
0.0
 10
28.36333386453867
 20
12.3119257366344
 30
0.0
 10
28.36333386453867
 20
12.34720566758803
 30
0.0
 10
28.32232377085996
 20
12.4490216965814
 30
0.0
 10
28.22600105427705
 20
12.51782133001418
 30
0.0
 10
28.1163904967483
 20
12.52359455643282
 30
0.0
 10
28.1163904967483
 20
12.52359455643282
 30
0.0
 10
28.36333386453867
 20
12.80581785517683
 30
0.0
 10
28.36333386453867
 20
12.80581785517683
 30
0.0
 10
28.57168139697085
 20
13.01142276862505
 30
0.0
 10
28.76062873545172
 20
13.23579806950618
 30
0.0
 10
28.92777777054583
 20
13.47609617108321
 30
0.0
 10
29.11113490330571
 20
13.70400269483672
 30
0.0
 10
29.32477657856562
 20
13.90577763103845
 30
0.0
 10
29.56277884697942
 20
14.0758253910057
 30
0.0
 10
29.72582875674226
 20
14.23384492306391
 30
0.0
 10
29.93681394040534
 20
14.3331309600603
 30
0.0
 10
30.16249999245938
 20
14.35804868974971
 30
0.0
 10
30.2388842189214
 20
14.45917300816518
 30
0.0
 10
30.27643845119147
 20
14.58435378239876
 30
0.0
 10
30.26833440235859
 20
14.71082646743929
 30
0.0
 10
30.26794413763565
 20
14.86973418817729
 30
0.0
 10
30.20450324257095
 20
15.0219885682594
 30
0.0
 10
30.0919455135138
 20
15.13415872407445
 30
0.0
 10
29.88294125975474
 20
15.35324257360871
 30
0.0
 10
29.56165111650417
 20
15.42308919309131
 30
0.0
 10
29.28055554823542
 20
15.31054761291925
 30
0.0
 10
28.48263644460053
 20
15.02133722989422
 30
0.0
 10
27.67013758921284
 20
14.77405473551702
 30
0.0
 10
26.84638834388112
 20
14.56971481806729
 30
0.0
 10
26.77414361496309
 20
14.59082679383784
 30
0.0
 10
26.6962144784944
 20
14.57784039874695
 30
0.0
 10
26.63472221556354
 20
14.5344375785945
 30
0.0
 10
26.63472221556354
 20
14.5344375785945
 30
0.0
 10
26.31722167734675
 20
14.5344375785945
 30
0.0
 10
26.31722167734675
 20
14.5344375785945
 30
0.0
 10
26.03308742720077
 20
14.51812720465652
 30
0.0
 10
25.74807037133669
 20
14.54187952313881
 30
0.0
 10
25.47055447259558
 20
14.60499205754008
 30
0.0
 10
25.47055447259558
 20
14.60499205754008
 30
0.0
 10
24.90611056658841
 20
14.78138094638487
 30
0.0
 10
24.90611056658841
 20
14.78138094638487
 30
0.0
 10
24.78591979784676
 20
14.84335767586835
 30
0.0
 10
24.6782659468944
 20
14.92708695356416
 30
0.0
 10
24.58861002837162
 20
15.02832431417524
 30
0.0
 10
24.45703160416271
 20
15.12557559165066
 30
0.0
 10
24.40058586782157
 20
15.29490741771238
 30
0.0
 10
24.44749837899962
 20
15.4516565708104
 30
0.0
 10
24.49103308171361
 20
15.64888828734095
 30
0.0
 10
24.60364194890687
 20
15.82405793536167
 30
0.0
 10
24.76499891721641
 20
15.94554599787199
 30
0.0
 10
24.84512968501864
 20
16.06507466232507
 30
0.0
 10
24.95440111596056
 20
16.16220482316233
 30
0.0
 10
25.08249945543321
 20
16.22776929661599
 30
0.0
 10
25.32574742001947
 20
15.995572552391
 30
0.0
 10
25.61385698737773
 20
15.8155044092272
 30
0.0
 10
25.92916666018438
 20
15.69860263008162
 30
0.0
 10
26.3000634869417
 20
15.55406203410945
 30
0.0
 10
26.69529668352529
 20
15.48220218695267
 30
0.0
 10
27.09333440315234
 20
15.48693650176404
 30
0.0
 10
27.45875944934598
 20
15.47550578260321
 30
0.0
 10
27.80944594641678
 20
15.63136674702144
 30
0.0
 10
28.04583332632188
 20
15.9102687583992
 30
0.0
 10
28.23172852552128
 20
16.04989471034319
 30
0.0
 10
28.32645788544226
 20
16.27994903581329
 30
0.0
 10
28.29277669411224
 20
16.50998990387915
 30
0.0
 10
28.23180926994672
 20
16.75652954954234
 30
0.0
 10
28.09630128369994
 20
16.97826989067343
 30
0.0
 10
27.90472167694987
 20
17.14499098031274
 30
0.0
 10
27.60003258756885
 20
17.43997458975641
 30
0.0
 10
27.19926570636208
 20
17.61531110958969
 30
0.0
 10
26.77583386493555
 20
17.63888040737433
 30
0.0
 10
26.28660339122159
 20
17.68687220237237
 30
0.0
 10
25.79280278302798
 20
17.62665300988254
 30
0.0
 10
25.32944551470442
 20
17.46249151852954
 30
0.0
 10
25.05597222019678
 20
17.35032943715702
 30
0.0
 10
24.79569525628616
 20
17.2083618968754
 30
0.0
 10
24.55333548037968
 20
17.03915926189437
 30
0.0
 10
24.20709800115037
 20
16.94625203450739
 30
0.0
 10
23.85265688829682
 20
16.8871767213779
 30
0.0
 10
23.49500214731093
 20
16.86277037304958
 30
0.0
 10
23.03638995972213
 20
16.792215894104
 30
0.0
 10
22.75416935245897
 20
16.82749313357679
 30
0.0
 10
22.64833494255976
 20
16.93332485199516
 30
0.0
 10
22.54250053266055
 20
17.03915657041353
 30
0.0
 10
22.61305770308697
 20
17.07443650136716
 30
0.0
 10
22.68361218203255
 20
17.18026821978553
 30
0.0
 10
22.85329659208534
 20
17.32510218717011
 30
0.0
 10
23.04351161804555
 20
17.44398489621971
 30
0.0
 10
23.24805608803971
 20
17.53304599747511
 30
0.0
 10
23.24805608803971
 20
17.53304599747511
 30
0.0
 10
24.65916719879804
 20
18.1680470739087
 30
0.0
 10
24.65916719879804
 20
18.1680470739087
 30
0.0
 10
24.8729353736578
 20
18.27130573663652
 30
0.0
 10
25.06462802260347
 20
18.41507387760536
 30
0.0
 10
25.22361110480521
 20
18.59137933054386
 30
0.0
 10
25.36137724348333
 20
18.73615677683064
 30
0.0
 10
25.44808599047771
 20
18.92196584864291
 30
0.0
 10
25.47055447259558
 20
19.12054599707824
 30
0.0
 10
25.47518920261558
 20
19.34608940064734
 30
0.0
 10
25.38571630479045
 20
19.56338072393693
 30
0.0
 10
25.22361110480521
 20
19.72026714255819
 30
0.0
 10
25.22361110480521
 20
19.72026714255819
 30
0.0
 10
24.97666773701484
 20
19.89665603140298
 30
0.0
 10
24.97666773701484
 20
19.89665603140298
 30
0.0
 10
24.97666773701484
 20
19.89665603140298
 30
0.0
 10
24.69444443827084
 20
20.07304761172862
 30
0.0
 10
24.69444443827084
 20
20.07304761172862
 30
0.0
 10
24.69444443827084
 20
20.07304761172862
 30
0.0
 10
24.23583225068204
 20
20.1436020906742
 30
0.0
 10
24.23583225068204
 20
20.1436020906742
 30
0.0
 10
24.02366550692676
 20
20.16684841075709
 30
0.0
 10
23.80911680262113
 20
20.1549305335628
 30
0.0
 10
23.60083117424845
 20
20.10832485120141
 30
0.0
 10
23.98888619141082
 20
20.49637986836378
 30
0.0
 10
24.02416343088361
 20
20.88443488552615
 30
0.0
 10
23.67138565319403
 20
21.23721266321574
 30
0.0
 10
23.29688224210059
 20
21.54535492252455
 30
0.0
 10
22.81202811624524
 20
21.68570757429746
 30
0.0
 10
22.33083036712169
 20
21.62526768037811
 30
0.0
 10
22.33083036712169
 20
21.62526768037811
 30
0.0
 10
22.85999568791565
 20
21.83693380869569
 30
0.0
 10
22.85999568791565
 20
21.83693380869569
 30
0.0
 10
22.89527292738843
 20
21.83693380869569
 30
0.0
 10
22.89527292738843
 20
21.87221104816848
 30
0.0
 10
22.89527292738843
 20
21.90748963338169
 30
0.0
 10
22.89527292738843
 20
21.9427682185949
 30
0.0
 10
22.89527292738843
 20
21.94276687285448
 30
0.0
 10
22.89527292738843
 20
21.94276687285448
 30
0.0
 10
22.89527292738843
 20
21.94276687285448
 30
0.0
 10
22.29555581912975
 20
22.54249205555571
 30
0.0
 10
22.29555581912975
 20
22.54249205555571
 30
0.0
 10
22.26978219853073
 20
22.5717175003421
 30
0.0
 10
22.22519647254564
 20
22.57451394894302
 30
0.0
 10
22.19597102775925
 20
22.54874032834399
 30
0.0
 10
22.19375997624274
 20
22.54679035046972
 30
0.0
 10
22.19167273284523
 20
22.54470310707222
 30
0.0
 10
22.18972275497096
 20
22.54249205555571
 30
0.0
 10
22.18972275497096
 20
22.54249205555571
 30
0.0
 10
20.32000080236426
 20
21.73110209027733
 30
0.0
 10
20.32000080236426
 20
21.73110209027733
 30
0.0
 10
20.32000080236426
 20
21.73110209027733
 30
0.0
 10
18.83833386691992
 20
21.37832431258774
 30
0.0
 10
18.83833386691992
 20
21.37832431258774
 30
0.0
 10
18.45027884975755
 20
21.34304707311495
 30
0.0
 10
18.20333413622675
 20
21.34304707311495
 30
0.0
 10
18.13277831154075
 20
21.41360155206053
 30
0.0
 10
18.06222248685475
 20
21.48415603100611
 30
0.0
 10
18.06222248685475
 20
21.58999044090532
 30
0.0
 10
18.16805555101354
 20
21.69582485080453
 30
0.0
 10
18.39015116761655
 20
21.87840549133981
 30
0.0
 10
18.62604062356479
 20
22.04352784135549
 30
0.0
 10
18.87361110639271
 20
22.18971427786612
 30
0.0
 10
18.87361110639271
 20
22.18971427786612
 30
0.0
 10
21.166666661375
 20
23.21277037146208
 30
0.0
 10
21.166666661375
 20
23.21277037146208
 30
0.0
 10
21.166666661375
 20
23.24804761093487
 30
0.0
 10
21.20194390084779
 20
23.24804761093487
 30
0.0
 10
21.20194390084779
 20
23.28332619614809
 30
0.0
 10
21.20194390084779
 20
23.30280982600568
 30
0.0
 10
21.1861502912326
 20
23.31860343562087
 30
0.0
 10
21.166666661375
 20
23.31860343562087
 30
0.0
 10
21.166666661375
 20
23.31860343562087
 30
0.0
 10
20.56694417015462
 20
23.91832592684125
 30
0.0
 10
20.56694417015462
 20
23.91832592684125
 30
0.0
 10
20.56694417015462
 20
23.91832592684125
 30
0.0
 10
20.46111110599583
 20
23.91832592684125
 30
0.0
 10
20.46111110599583
 20
23.91832592684125
 30
0.0
 10
20.46111110599583
 20
23.91832592684125
 30
0.0
 10
20.28472221715104
 20
23.84777010215525
 30
0.0
 10
20.28472221715104
 20
23.84777010215525
 30
0.0
 10
20.48369397604973
 20
24.15089274968282
 30
0.0
 10
20.40554010093025
 20
24.55728751734245
 30
0.0
 10
20.10833332830625
 20
24.764991785852
 30
0.0
 10
19.89355719386898
 20
25.01297810247091
 30
0.0
 10
19.58892058836449
 20
25.16529707809336
 30
0.0
 10
19.26166612355508
 20
25.18832538822758
 30
0.0
 10
18.89962292304677
 20
25.26498549147651
 30
0.0
 10
18.52440492378823
 20
25.25288190210372
 30
0.0
 10
18.16805555101354
 20
25.15304814875479
 30
0.0
 10
18.16805555101354
 20
25.15304814875479
 30
0.0
 10
18.02694390164154
 20
25.15304814875479
 30
0.0
 10
18.02694390164154
 20
25.15304814875479
 30
0.0
 10
18.02694390164154
 20
25.15304814875479
 30
0.0
 10
18.7324994570207
 20
25.47054868697159
 30
0.0
 10
18.7324994570207
 20
25.47054868697159
 30
0.0
 10
18.7324994570207
 20
25.47054868697159
 30
0.0
 10
19.96722167893425
 20
26.03499259297875
 30
0.0
 10
19.96722167893425
 20
26.03499259297875
 30
0.0
 10
19.96722167893425
 20
26.03499259297875
 30
0.0
 10
21.025555012003
 20
26.45832619535433
 30
0.0
 10
21.025555012003
 20
26.45832619535433
 30
0.0
 10
21.37881456476435
 20
26.60836952391993
 30
0.0
 10
21.74481693359985
 20
26.72643402279178
 30
0.0
 10
22.11916558454454
 20
26.81110397304392
 30
0.0
 10
22.4072361254305
 20
26.8896346554821
 30
0.0
 10
22.70291817415419
 20
26.93694416008521
 30
0.0
 10
23.00111002876849
 20
26.95221562241592
 30
0.0
 10
23.00111002876849
 20
26.95221562241592
 30
0.0
 10
23.45972221635729
 20
26.38777171640876
 30
0.0
 10
23.45972221635729
 20
26.38777171640876
 30
0.0
 10
23.57313045336236
 20
26.28062790107706
 30
0.0
 10
23.7280413250413
 20
26.22899049527061
 30
0.0
 10
23.88305447299245
 20
26.24666006703675
 30
0.0
 10
24.01551839440031
 20
26.24048177275051
 30
0.0
 10
24.14417117892761
 20
26.29194423230186
 30
0.0
 10
24.23583225068204
 20
26.38777171640876
 30
0.0
 10
24.30975915512997
 20
26.46154386070794
 30
0.0
 10
24.33690004799971
 20
26.57011146940815
 30
0.0
 10
24.30638672962762
 20
26.66999366941234
 30
0.0
 10
24.31057736530772
 20
26.77448503036847
 30
0.0
 10
24.27241754984688
 20
26.87624453826404
 30
0.0
 10
24.2005523197284
 20
26.95221562241592
 30
0.0
 10
23.93221975364015
 20
27.17844669934165
 30
0.0
 10
23.61991108197887
 20
27.34661311419626
 30
0.0
 10
23.2833333275125
 20
27.44610370373708
 30
0.0
 10
23.1319456042634
 20
27.60522405146206
 30
0.0
 10
23.00153528274246
 20
27.7830555740413
 30
0.0
 10
22.89527831035013
 20
27.97527037027146
 30
0.0
 10
22.89527831035013
 20
27.97527037027146
 30
0.0
 10
22.43666746850176
 20
28.57499286149184
 30
0.0
 10
22.43666746850176
 20
28.57499286149184
 30
0.0
 10
22.30261422765324
 20
28.7561443256969
 30
0.0
 10
22.14879609719853
 20
28.92179689743961
 30
0.0
 10
21.97805662665338
 20
29.06888228855342
 30
0.0
 10
21.67027233429733
 20
29.36869710611898
 30
0.0
 10
21.32665501167341
 20
29.62937240919509
 30
0.0
 10
20.95500053305742
 20
29.84499366861859
 30
0.0
 10
26.73221303483442
 20
27.84745194480699
 30
0.0
 10
30.61126136014504
 20
22.41112087537208
 30
0.0
 10
30.62111218004818
 20
16.29832646704242
 30
0.0
 10
30.62111218004818
 20
16.29832646704242
 30
0.0
 10
30.62111218004818
 20
16.29832108408072
 30
0.0
 10
30.62111218004818
 20
16.29832108408072
 30
0.0
  0
SPLINE
  5
1DD
330
49
100
AcDbEntity
  8
Layer 1
370
     0
100
AcDbSpline
210
0.0
220
0.0
230
1.0
 70
    11
 71
     3
 72
    23
 73
    19
 74
     0
 42
0.0000000001
 43
0.0000000001
 12
1.0
 22
0.0
 32
0.0
 13
1.0
 23
0.0
 33
0.0
 40
0.0
 40
0.0
 40
0.0
 40
0.0
 40
1.0
 40
1.0
 40
1.0
 40
2.0
 40
2.0
 40
2.0
 40
3.0
 40
3.0
 40
3.0
 40
4.0
 40
4.0
 40
4.0
 40
5.0
 40
5.0
 40
5.0
 40
6.0
 40
6.0
 40
6.0
 40
6.0
 10
25.43527992460364
 20
16.47470997292551
 30
0.0
 10
25.85323191102394
 20
16.69482196814365
 30
0.0
 10
26.30726858117139
 20
16.83820253587039
 30
0.0
 10
26.77583386493555
 20
16.89804761252237
 30
0.0
 10
27.19916612157071
 20
16.96860209146795
 30
0.0
 10
27.5166666597875
 20
16.93332485199516
 30
0.0
 10
27.6577783091595
 20
16.75693596315037
 30
0.0
 10
27.79888995853151
 20
16.58054707430558
 30
0.0
 10
27.72833278810508
 20
16.72165872367758
 30
0.0
 10
27.69305554863229
 20
16.68638148420479
 30
0.0
 10
27.6577783091595
 20
16.651104244732
 30
0.0
 10
27.5166666597875
 20
16.40415818546078
 30
0.0
 10
27.16388888209792
 20
16.29832646704242
 30
0.0
 10
26.59070842925863
 20
16.0922882251777
 30
0.0
 10
25.95502909965138
 20
16.15715291361091
 30
0.0
 10
25.43527723312279
 20
16.47471535588721
 30
0.0
 10
25.43527723312279
 20
16.47471535588721
 30
0.0
 10
25.43527992460364
 20
16.47470997292551
 30
0.0
 10
25.43527992460364
 20
16.47470997292551
 30
0.0
  0
SPLINE
  5
1DE
330
49
100
AcDbEntity
  8
Layer 1
370
     0
100
AcDbSpline
210
0.0
220
0.0
230
1.0
 70
    11
 71
     3
 72
    14
 73
    10
 74
     0
 42
0.0000000001
 43
0.0000000001
 12
1.0
 22
0.0
 32
0.0
 13
1.0
 23
0.0
 33
0.0
 40
0.0
 40
0.0
 40
0.0
 40
0.0
 40
1.0
 40
1.0
 40
1.0
 40
2.0
 40
2.0
 40
2.0
 40
3.0
 40
3.0
 40
3.0
 40
3.0
 10
24.83555608764284
 20
42.6861031279874
 30
0.0
 10
26.17611271945559
 20
43.10943647803666
 30
0.0
 10
26.66999945503633
 20
42.05110322907669
 30
0.0
 10
26.10555554902917
 20
40.78110309482015
 30
0.0
 10
24.53662407579537
 20
39.43927675691742
 30
0.0
 10
22.55951742032109
 20
38.66832931929395
 30
0.0
 10
20.49638834546862
 20
38.59388094043175
 30
0.0
 10
21.27489918070965
 20
40.52676353765987
 30
0.0
 10
22.86042363337045
 20
42.02205340341561
 30
0.0
 10
24.83555608764284
 20
42.6861031279874
 30
0.0
  0
SPLINE
  5
1DF
330
49
100
AcDbEntity
  8
Layer 1
370
     0
100
AcDbSpline
210
0.0
220
0.0
230
1.0
 70
    11
 71
     3
 72
    26
 73
    22
 74
     0
 42
0.0000000001
 43
0.0000000001
 12
1.0
 22
0.0
 32
0.0
 13
1.0
 23
0.0
 33
0.0
 40
0.0
 40
0.0
 40
0.0
 40
0.0
 40
1.0
 40
1.0
 40
1.0
 40
2.0
 40
2.0
 40
2.0
 40
3.0
 40
3.0
 40
3.0
 40
4.0
 40
4.0
 40
4.0
 40
5.0
 40
5.0
 40
5.0
 40
6.0
 40
6.0
 40
6.0
 40
7.0
 40
7.0
 40
7.0
 40
7.0
 10
21.48416719959179
 20
31.99693622848845
 30
0.0
 10
21.48416719959179
 20
31.99693622848845
 30
0.0
 10
21.5547230242778
 20
31.89110316432966
 30
0.0
 10
21.5547230242778
 20
31.89110316432966
 30
0.0
 10
21.52892652609156
 20
31.86216839947484
 30
0.0
 10
21.51616890687275
 20
31.82389554181839
 30
0.0
 10
21.51944578480501
 20
31.78527010017087
 30
0.0
 10
20.81389022942584
 20
31.99693622848845
 30
0.0
 10
20.10833467404667
 20
32.20860370254645
 30
0.0
 10
19.40277911866751
 20
32.34971400617804
 30
0.0
 10
19.28825930007228
 20
32.50178671130291
 30
0.0
 10
19.19343304684078
 20
32.66773400019846
 30
0.0
 10
19.12055716566393
 20
32.84360343323962
 30
0.0
 10
19.12055716566393
 20
32.84360343323962
 30
0.0
 10
19.08527992619114
 20
32.84360343323962
 30
0.0
 10
19.08527992619114
 20
32.84360343323962
 30
0.0
 10
18.76739181473225
 20
33.46959006744355
 30
0.0
 10
18.53030868702799
 20
34.13342161384911
 30
0.0
 10
18.37972437081197
 20
34.81915912287533
 30
0.0
 10
18.37972437081197
 20
34.81915912287533
 30
0.0
 10
21.48416719959179
 20
31.99693622848845
 30
0.0
 10
21.48416719959179
 20
31.99693622848845
 30
0.0
  0
SPLINE
  5
1E0
330
49
100
AcDbEntity
  8
Layer 1
370
     0
100
AcDbSpline
210
0.0
220
0.0
230
1.0
 70
    11
 71
     3
 72
    29
 73
    25
 74
     0
 42
0.0000000001
 43
0.0000000001
 12
1.0
 22
0.0
 32
0.0
 13
1.0
 23
0.0
 33
0.0
 40
0.0
 40
0.0
 40
0.0
 40
0.0
 40
1.0
 40
1.0
 40
1.0
 40
2.0
 40
2.0
 40
2.0
 40
3.0
 40
3.0
 40
3.0
 40
4.0
 40
4.0
 40
4.0
 40
5.0
 40
5.0
 40
5.0
 40
6.0
 40
6.0
 40
6.0
 40
7.0
 40
7.0
 40
7.0
 40
8.0
 40
8.0
 40
8.0
 40
8.0
 10
16.22777777372083
 20
38.31165898742817
 30
0.0
 10
16.38176143024769
 20
38.45208296344354
 30
0.0
 10
16.58387280155539
 20
38.52787439124883
 30
0.0
 10
16.792221679728
 20
38.52332578861596
 30
0.0
 10
16.99314476224138
 20
38.50953598649199
 30
0.0
 10
17.18175970283754
 20
38.42151581545449
 30
0.0
 10
17.32138834626237
 20
38.27638107508516
 30
0.0
 10
17.46181232227775
 20
38.1223967456881
 30
0.0
 10
17.53760307721282
 20
37.92028537438039
 30
0.0
 10
17.53305447457995
 20
37.71193649620779
 30
0.0
 10
17.52666086182588
 20
37.50917715088596
 30
0.0
 10
17.43740328246858
 20
37.31790908304404
 30
0.0
 10
17.28610976104916
 20
37.18276982967341
 30
0.0
 10
17.12866351441155
 20
37.04810696841286
 30
0.0
 10
16.92883451886282
 20
36.97317143151719
 30
0.0
 10
16.721665855042
 20
36.97110302848562
 30
0.0
 10
16.51890583684996
 20
36.97749596836948
 30
0.0
 10
16.32763844187824
 20
37.06675422059699
 30
0.0
 10
16.19249918850762
 20
37.21804774201642
 30
0.0
 10
16.03654402225972
 20
37.36206282635304
 30
0.0
 10
15.95802679722577
 20
37.57144186882016
 30
0.0
 10
15.98083306019004
 20
37.78249232089379
 30
0.0
 10
15.97235085829804
 20
37.988513068133
 30
0.0
 10
16.06443045532431
 20
38.18582552908899
 30
0.0
 10
16.22777777372083
 20
38.31165898742817
 30
0.0
  0
SPLINE
  5
1E1
330
49
100
AcDbEntity
  8
Layer 1
370
     0
100
AcDbSpline
210
0.0
220
0.0
230
1.0
 70
    11
 71
     3
 72
    95
 73
    91
 74
     0
 42
0.0000000001
 43
0.0000000001
 12
1.0
 22
0.0
 32
0.0
 13
1.0
 23
0.0
 33
0.0
 40
0.0
 40
0.0
 40
0.0
 40
0.0
 40
1.0
 40
1.0
 40
1.0
 40
2.0
 40
2.0
 40
2.0
 40
3.0
 40
3.0
 40
3.0
 40
4.0
 40
4.0
 40
4.0
 40
5.0
 40
5.0
 40
5.0
 40
6.0
 40
6.0
 40
6.0
 40
7.0
 40
7.0
 40
7.0
 40
8.0
 40
8.0
 40
8.0
 40
9.0
 40
9.0
 40
9.0
 40
10.0
 40
10.0
 40
10.0
 40
11.0
 40
11.0
 40
11.0
 40
12.0
 40
12.0
 40
12.0
 40
13.0
 40
13.0
 40
13.0
 40
14.0
 40
14.0
 40
14.0
 40
15.0
 40
15.0
 40
15.0
 40
16.0
 40
16.0
 40
16.0
 40
17.0
 40
17.0
 40
17.0
 40
18.0
 40
18.0
 40
18.0
 40
19.0
 40
19.0
 40
19.0
 40
20.0
 40
20.0
 40
20.0
 40
21.0
 40
21.0
 40
21.0
 40
22.0
 40
22.0
 40
22.0
 40
23.0
 40
23.0
 40
23.0
 40
24.0
 40
24.0
 40
24.0
 40
25.0
 40
25.0
 40
25.0
 40
26.0
 40
26.0
 40
26.0
 40
27.0
 40
27.0
 40
27.0
 40
28.0
 40
28.0
 40
28.0
 40
29.0
 40
29.0
 40
29.0
 40
30.0
 40
30.0
 40
30.0
 40
30.0
 10
16.33361083787963
 20
30.62110370294333
 30
0.0
 10
17.2227052009759
 20
30.6145432183767
 30
0.0
 10
18.10896947196066
 20
30.52000764507676
 30
0.0
 10
18.9794441705515
 20
30.33888174993975
 30
0.0
 10
18.9794441705515
 20
30.33888174993975
 30
0.0
 10
18.8383325211795
 20
30.33888174993975
 30
0.0
 10
18.8383325211795
 20
30.33888174993975
 30
0.0
 10
18.3312750240698
 20
30.30825000641035
 30
0.0
 10
17.83175232759366
 20
30.2012098130913
 30
0.0
 10
17.35666558573516
 20
30.02138121172296
 30
0.0
 10
16.92047881657066
 20
29.8597591325499
 30
0.0
 10
16.52364822610387
 20
29.60722959625982
 30
0.0
 10
16.19249918850762
 20
29.280548416871
 30
0.0
 10
15.84101332162501
 20
28.94695955188617
 30
0.0
 10
15.62707827495269
 20
28.49392007539285
 30
0.0
 10
15.59277669728725
 20
28.01054895548467
 30
0.0
 10
15.54364640589056
 20
27.59481205780215
 30
0.0
 10
15.68647118282223
 20
27.1793214306172
 30
0.0
 10
15.98083171444962
 20
26.88165979772992
 30
0.0
 10
16.31380288457986
 20
26.57440976432217
 30
0.0
 10
16.76668087222231
 20
26.43207752838566
 30
0.0
 10
17.21555393636316
 20
26.49360478056755
 30
0.0
 10
17.63898712353011
 20
26.51717138687134
 30
0.0
 10
18.03975535047731
 20
26.69250656096419
 30
0.0
 10
18.34444443985834
 20
26.98749151614829
 30
0.0
 10
18.44284497965578
 20
27.09075287035695
 30
0.0
 10
18.48262775806787
 20
27.23662574934881
 30
0.0
 10
18.45027750401712
 20
27.37554653331066
 30
0.0
 10
18.45027750401712
 20
27.46962051764519
 30
0.0
 10
18.41500026454434
 20
27.5048991028584
 30
0.0
 10
18.34444443985834
 20
27.48137959746945
 30
0.0
 10
18.15135087513135
 20
27.2786303452008
 30
0.0
 10
17.88359832316582
 20
27.16387905925265
 30
0.0
 10
17.60361164500638
 20
27.16387905925265
 30
0.0
 10
17.31513603625281
 20
27.11043566979729
 30
0.0
 10
17.01783102457787
 20
27.18799338190898
 30
0.0
 10
16.79222302546842
 20
27.37554518757024
 30
0.0
 10
16.64998499136159
 20
27.51219570743692
 30
0.0
 10
16.58403429040627
 20
27.71004915604333
 30
0.0
 10
16.61583413662363
 20
27.90471185410461
 30
0.0
 10
16.66268878096345
 20
28.14858693372843
 30
0.0
 10
16.78630176760315
 20
28.37108896393946
 30
0.0
 10
16.96861191431321
 20
28.53971158479778
 30
0.0
 10
17.35990882015682
 20
28.91080892687826
 30
0.0
 10
17.83033930014854
 20
29.18824273545351
 30
0.0
 10
18.34444443985834
 20
29.35110289581658
 30
0.0
 10
18.90160385295079
 20
29.53189235584761
 30
0.0
 10
19.49086321237514
 20
29.59202003798861
 30
0.0
 10
20.07305608883346
 20
29.52749178466137
 30
0.0
 10
20.59770914198599
 20
29.44316230673649
 30
0.0
 10
21.08731642301865
 20
29.21059817537577
 30
0.0
 10
21.48416719959179
 20
28.85721346875499
 30
0.0
 10
21.86354891972197
 20
28.44438202464772
 30
0.0
 10
22.21700225910436
 20
28.00845498338504
 30
0.0
 10
22.54250053266055
 20
27.55193542215545
 30
0.0
 10
21.59000026375059
 20
27.58721266162824
 30
0.0
 10
20.39055662705026
 20
27.26971346915187
 30
0.0
 10
18.90888969160592
 20
26.6347137384587
 30
0.0
 10
18.90888969160592
 20
26.6347137384587
 30
0.0
 10
16.54527831193763
 20
25.64693623007595
 30
0.0
 10
16.54527831193763
 20
25.64693623007595
 30
0.0
 10
16.54527831193763
 20
25.64693623007595
 30
0.0
 10
14.42861164580013
 20
25.01193649938279
 30
0.0
 10
14.42861164580013
 20
25.01193649938279
 30
0.0
 10
14.15441838016569
 20
24.91964427536954
 30
0.0
 10
13.87018319948791
 20
24.86042765949554
 30
0.0
 10
13.58194444104896
 20
24.835547610538
 30
0.0
 10
13.58194444104896
 20
24.835547610538
 30
0.0
 10
13.08805501398737
 20
25.64693623007595
 30
0.0
 10
13.08805501398737
 20
25.64693623007595
 30
0.0
 10
13.08805501398737
 20
25.64693623007595
 30
0.0
 10
13.33499972751817
 20
26.7758253878307
 30
0.0
 10
13.33499972751817
 20
26.7758253878307
 30
0.0
 10
13.33499972751817
 20
26.7758253878307
 30
0.0
 10
12.27666639444942
 20
26.49360343482712
 30
0.0
 10
12.27666639444942
 20
26.49360343482712
 30
0.0
 10
12.27666639444942
 20
26.49360343482712
 30
0.0
 10
11.46527777491146
 20
27.23443622967908
 30
0.0
 10
11.46527777491146
 20
27.23443622967908
 30
0.0
 10
11.46527777491146
 20
27.23443622967908
 30
0.0
 10
11.46527777491146
 20
26.9522142766755
 30
0.0
 10
11.46527777491146
 20
26.9522142766755
 30
0.0
 10
11.46527777491146
 20
26.9522142766755
 30
0.0
 10
10.75972221953229
 20
28.01054760974425
 30
0.0
 10
10.75972221953229
 20
28.01054760974425
 30
0.0
 10
10.75972221953229
 20
28.01054760974425
 30
0.0
 10
11.28888888606667
 20
29.66860343403337
 30
0.0
 10
11.28888888606667
 20
29.66860343403337
 30
0.0
 10
12.89915881364261
 20
30.28809350634079
 30
0.0
 10
14.60831913053032
 20
30.61080205999818
 30
0.0
 10
16.33361083787963
 20
30.62110370294333
 30
0.0
  0
SPLINE
  5
1E2
330
49
100
AcDbEntity
  8
Layer 1
370
     0
100
AcDbSpline
210
0.0
220
0.0
230
1.0
 70
    11
 71
     3
 72
    29
 73
    25
 74
     0
 42
0.0000000001
 43
0.0000000001
 12
1.0
 22
0.0
 32
0.0
 13
1.0
 23
0.0
 33
0.0
 40
0.0
 40
0.0
 40
0.0
 40
0.0
 40
1.0
 40
1.0
 40
1.0
 40
2.0
 40
2.0
 40
2.0
 40
3.0
 40
3.0
 40
3.0
 40
4.0
 40
4.0
 40
4.0
 40
5.0
 40
5.0
 40
5.0
 40
6.0
 40
6.0
 40
6.0
 40
7.0
 40
7.0
 40
7.0
 40
8.0
 40
8.0
 40
8.0
 40
8.0
 10
14.04055528289733
 20
32.87888201845283
 30
0.0
 10
14.04055528289733
 20
32.87888201845283
 30
0.0
 10
14.04055528289733
 20
32.87888201845283
 30
0.0
 10
14.04055528289733
 20
32.87888201845283
 30
0.0
 10
14.04055528289733
 20
32.84360477898004
 30
0.0
 10
14.00527804342454
 20
32.84360477898004
 30
0.0
 10
14.00527804342454
 20
32.80832619376684
 30
0.0
 10
14.00527804342454
 20
32.80832619376684
 30
0.0
 10
13.72305609042096
 20
32.45554841607725
 30
0.0
 10
13.72305609042096
 20
32.45554841607725
 30
0.0
 10
12.98277235766197
 20
32.34522999908552
 30
0.0
 10
12.2516921436622
 20
32.18014667554213
 30
0.0
 10
11.53583359959746
 20
31.96165898901566
 30
0.0
 10
11.53583359959746
 20
31.96165898901566
 30
0.0
 10
11.53583359959746
 20
32.03221481370166
 30
0.0
 10
11.53583359959746
 20
32.03221481370166
 30
0.0
 10
11.53583359959746
 20
32.03221481370166
 30
0.0
 10
11.74749972791504
 20
32.34971535191846
 30
0.0
 10
11.74749972791504
 20
32.34971535191846
 30
0.0
 10
11.74749972791504
 20
32.34971535191846
 30
0.0
 10
15.06361003075287
 20
34.96027077224733
 30
0.0
 10
15.06361003075287
 20
34.96027077224733
 30
0.0
 10
14.82009695530309
 20
34.22266035284047
 30
0.0
 10
14.47582291135229
 20
33.52223879717858
 30
0.0
 10
14.04055528289733
 20
32.87888201845283
 30
0.0
  0
SPLINE
  5
1E3
330
49
100
AcDbEntity
  8
Layer 1
370
     0
100
AcDbSpline
210
0.0
220
0.0
230
1.0
 70
    11
 71
     3
 72
    14
 73
    10
 74
     0
 42
0.0000000001
 43
0.0000000001
 12
1.0
 22
0.0
 32
0.0
 13
1.0
 23
0.0
 33
0.0
 40
0.0
 40
0.0
 40
0.0
 40
0.0
 40
1.0
 40
1.0
 40
1.0
 40
2.0
 40
2.0
 40
2.0
 40
3.0
 40
3.0
 40
3.0
 40
3.0
 10
7.655278045012044
 20
41.48665865019931
 30
0.0
 10
7.16138929082067
 20
42.79193636036375
 30
0.0
 10
7.761111109170834
 20
43.7797142051816
 30
0.0
 10
9.031111243427375
 20
43.25054753864723
 30
0.0
 10
10.96478345384925
 20
42.47643105054298
 30
0.0
 10
12.44359741959486
 20
40.86789729633144
 30
0.0
 10
13.05277777451458
 20
38.87610322987044
 30
0.0
 10
11.00312629000774
 20
39.08634220046844
 30
0.0
 10
9.092600142007178
 20
40.01038779741981
 30
0.0
 10
7.655278045012044
 20
41.48665865019931
 30
0.0
  0
SPLINE
  5
1E4
330
49
100
AcDbEntity
  8
Layer 1
370
     0
100
AcDbSpline
210
0.0
220
0.0
230
1.0
 70
    11
 71
     3
 72
   155
 73
   151
 74
     0
 42
0.0000000001
 43
0.0000000001
 12
1.0
 22
0.0
 32
0.0
 13
1.0
 23
0.0
 33
0.0
 40
0.0
 40
0.0
 40
0.0
 40
0.0
 40
1.0
 40
1.0
 40
1.0
 40
2.0
 40
2.0
 40
2.0
 40
3.0
 40
3.0
 40
3.0
 40
4.0
 40
4.0
 40
4.0
 40
5.0
 40
5.0
 40
5.0
 40
6.0
 40
6.0
 40
6.0
 40
7.0
 40
7.0
 40
7.0
 40
8.0
 40
8.0
 40
8.0
 40
9.0
 40
9.0
 40
9.0
 40
10.0
 40
10.0
 40
10.0
 40
11.0
 40
11.0
 40
11.0
 40
12.0
 40
12.0
 40
12.0
 40
13.0
 40
13.0
 40
13.0
 40
14.0
 40
14.0
 40
14.0
 40
15.0
 40
15.0
 40
15.0
 40
16.0
 40
16.0
 40
16.0
 40
17.0
 40
17.0
 40
17.0
 40
18.0
 40
18.0
 40
18.0
 40
19.0
 40
19.0
 40
19.0
 40
20.0
 40
20.0
 40
20.0
 40
21.0
 40
21.0
 40
21.0
 40
22.0
 40
22.0
 40
22.0
 40
23.0
 40
23.0
 40
23.0
 40
24.0
 40
24.0
 40
24.0
 40
25.0
 40
25.0
 40
25.0
 40
26.0
 40
26.0
 40
26.0
 40
27.0
 40
27.0
 40
27.0
 40
28.0
 40
28.0
 40
28.0
 40
29.0
 40
29.0
 40
29.0
 40
30.0
 40
30.0
 40
30.0
 40
31.0
 40
31.0
 40
31.0
 40
32.0
 40
32.0
 40
32.0
 40
33.0
 40
33.0
 40
33.0
 40
34.0
 40
34.0
 40
34.0
 40
35.0
 40
35.0
 40
35.0
 40
36.0
 40
36.0
 40
36.0
 40
37.0
 40
37.0
 40
37.0
 40
38.0
 40
38.0
 40
38.0
 40
39.0
 40
39.0
 40
39.0
 40
40.0
 40
40.0
 40
40.0
 40
41.0
 40
41.0
 40
41.0
 40
42.0
 40
42.0
 40
42.0
 40
43.0
 40
43.0
 40
43.0
 40
44.0
 40
44.0
 40
44.0
 40
45.0
 40
45.0
 40
45.0
 40
46.0
 40
46.0
 40
46.0
 40
47.0
 40
47.0
 40
47.0
 40
48.0
 40
48.0
 40
48.0
 40
49.0
 40
49.0
 40
49.0
 40
50.0
 40
50.0
 40
50.0
 40
50.0
 10
7.33777817966546
 20
27.44610370373708
 30
0.0
 10
7.33777817966546
 20
27.44610370373708
 30
0.0
 10
8.36083360039121
 20
27.0227701013615
 30
0.0
 10
8.36083360039121
 20
27.0227701013615
 30
0.0
 10
8.36083360039121
 20
27.0227701013615
 30
0.0
 10
8.572500401579003
 20
26.28193730650954
 30
0.0
 10
8.572500401579003
 20
26.28193730650954
 30
0.0
 10
8.572500401579003
 20
26.28193730650954
 30
0.0
 10
8.572500401579003
 20
24.41221535390284
 30
0.0
 10
8.572500401579003
 20
24.41221535390284
 30
0.0
 10
8.572500401579003
 20
24.41221535390284
 30
0.0
 10
7.267222354979459
 20
23.56554814915167
 30
0.0
 10
7.267222354979459
 20
23.56554814915167
 30
0.0
 10
7.267222354979459
 20
23.56554814915167
 30
0.0
 10
8.678333465737794
 20
22.96582565793129
 30
0.0
 10
8.678333465737794
 20
22.96582565793129
 30
0.0
 10
8.678333465737794
 20
22.96582565793129
 30
0.0
 10
9.172222219929168
 20
21.48415872248696
 30
0.0
 10
9.172222219929168
 20
21.48415872248696
 30
0.0
 10
9.172222219929168
 20
21.48415872248696
 30
0.0
 10
10.05416666415313
 20
22.6483251197145
 30
0.0
 10
10.05416666415313
 20
22.6483251197145
 30
0.0
 10
10.05416666415313
 20
22.6483251197145
 30
0.0
 10
11.28888888606667
 20
22.54249205555571
 30
0.0
 10
11.28888888606667
 20
22.54249205555571
 30
0.0
 10
11.28888888606667
 20
22.54249205555571
 30
0.0
 10
11.28888888606667
 20
22.22499151733891
 30
0.0
 10
11.28888888606667
 20
22.22499151733891
 30
0.0
 10
11.28888888606667
 20
22.22499151733891
 30
0.0
 10
9.383889021116959
 20
20.95499205595258
 30
0.0
 10
9.383889021116959
 20
20.95499205595258
 30
0.0
 10
9.383889021116959
 20
20.95499205595258
 30
0.0
 10
10.01888875181012
 20
20.60221427826299
 30
0.0
 10
10.01888875181012
 20
20.60221427826299
 30
0.0
 10
10.01888875181012
 20
20.60221427826299
 30
0.0
 10
9.560277909961751
 20
20.46110262889099
 30
0.0
 10
9.560277909961751
 20
20.46110262889099
 30
0.0
 10
9.560277909961751
 20
20.46110262889099
 30
0.0
 10
8.678333465737794
 20
21.20193542374295
 30
0.0
 10
8.678333465737794
 20
21.20193542374295
 30
0.0
 10
8.678333465737794
 20
21.20193542374295
 30
0.0
 10
8.537222489236003
 20
20.07304761172862
 30
0.0
 10
8.537222489236003
 20
20.07304761172862
 30
0.0
 10
8.537222489236003
 20
20.07304761172862
 30
0.0
 10
7.655278045012044
 20
19.47332646624867
 30
0.0
 10
7.655278045012044
 20
19.47332646624867
 30
0.0
 10
7.655278045012044
 20
19.47332646624867
 30
0.0
 10
7.937499998015626
 20
19.33221481687666
 30
0.0
 10
7.937499998015626
 20
19.33221481687666
 30
0.0
 10
7.937499998015626
 20
19.33221481687666
 30
0.0
 10
6.491110974914291
 20
18.9441597997143
 30
0.0
 10
6.491110974914291
 20
18.9441597997143
 30
0.0
 10
6.491110974914291
 20
18.9441597997143
 30
0.0
 10
6.632221951416082
 20
19.47332646624867
 30
0.0
 10
6.632221951416082
 20
19.47332646624867
 30
0.0
 10
6.632221951416082
 20
19.47332646624867
 30
0.0
 10
7.549444307983041
 20
19.72026983403904
 30
0.0
 10
7.549444307983041
 20
19.72026983403904
 30
0.0
 10
7.549444307983041
 20
19.72026983403904
 30
0.0
 10
7.655277372141832
 20
20.17888202162784
 30
0.0
 10
7.655277372141832
 20
20.17888202162784
 30
0.0
 10
7.655277372141832
 20
20.17888202162784
 30
0.0
 10
6.773332927917873
 20
19.93193865383747
 30
0.0
 10
6.773332927917873
 20
19.93193865383747
 30
0.0
 10
6.773332927917873
 20
19.93193865383747
 30
0.0
 10
6.914443904419664
 20
20.49638255984463
 30
0.0
 10
6.914443904419664
 20
20.49638255984463
 30
0.0
 10
6.914443904419664
 20
20.49638255984463
 30
0.0
 10
6.52638821438708
 20
20.60221696974384
 30
0.0
 10
6.52638821438708
 20
20.60221696974384
 30
0.0
 10
6.52638821438708
 20
20.60221696974384
 30
0.0
 10
6.385277237885289
 20
20.03777306373668
 30
0.0
 10
6.385277237885289
 20
20.03777306373668
 30
0.0
 10
6.385277237885289
 20
20.03777306373668
 30
0.0
 10
5.714999594849123
 20
20.70805137964306
 30
0.0
 10
5.714999594849123
 20
20.70805137964306
 30
0.0
 10
5.714999594849123
 20
20.70805137964306
 30
0.0
 10
5.573888618347332
 20
20.24943919205426
 30
0.0
 10
5.573888618347332
 20
20.24943919205426
 30
0.0
 10
5.573888618347332
 20
20.24943919205426
 30
0.0
 10
6.244166261383498
 20
19.57916087614788
 30
0.0
 10
6.244166261383498
 20
19.57916087614788
 30
0.0
 10
6.244166261383498
 20
19.57916087614788
 30
0.0
 10
6.103055284881707
 20
19.04999420961351
 30
0.0
 10
6.103055284881707
 20
19.04999420961351
 30
0.0
 10
6.103055284881707
 20
19.04999420961351
 30
0.0
 10
4.974166463562062
 20
20.21416195258147
 30
0.0
 10
4.974166463562062
 20
20.21416195258147
 30
0.0
 10
4.974166463562062
 20
20.21416195258147
 30
0.0
 10
4.833055487060271
 20
19.75554976499268
 30
0.0
 10
4.833055487060271
 20
19.75554976499268
 30
0.0
 10
4.833055487060271
 20
19.75554976499268
 30
0.0
 10
5.820833331878125
 20
18.7677709108695
 30
0.0
 10
5.820833331878125
 20
18.7677709108695
 30
0.0
 10
5.820833331878125
 20
18.7677709108695
 30
0.0
 10
4.974166799997167
 20
18.55610478255192
 30
0.0
 10
4.974166799997167
 20
18.55610478255192
 30
0.0
 10
4.974166799997167
 20
18.55610478255192
 30
0.0
 10
5.29166666534375
 20
18.20332700486234
 30
0.0
 10
5.29166666534375
 20
18.20332700486234
 30
0.0
 10
5.29166666534375
 20
18.20332700486234
 30
0.0
 10
5.785555419535124
 20
18.34443865423434
 30
0.0
 10
5.785555419535124
 20
18.34443865423434
 30
0.0
 10
5.785555419535124
 20
18.34443865423434
 30
0.0
 10
5.679722355376335
 20
17.95638094559112
 30
0.0
 10
5.679722355376335
 20
17.95638094559112
 30
0.0
 10
5.679722355376335
 20
17.95638094559112
 30
0.0
 10
4.938888887654167
 20
17.74471481727354
 30
0.0
 10
4.938888887654167
 20
17.74471481727354
 30
0.0
 10
4.938888887654167
 20
17.74471481727354
 30
0.0
 10
4.233333332275
 20
17.53304868895596
 30
0.0
 10
4.233333332275
 20
17.53304868895596
 30
0.0
 10
4.233333332275
 20
17.53304868895596
 30
0.0
 10
3.951111042836312
 20
17.85054922717276
 30
0.0
 10
3.951111042836312
 20
17.85054922717276
 30
0.0
 10
3.951111042836312
 20
17.85054922717276
 30
0.0
 10
4.409722221119792
 20
17.95638363707197
 30
0.0
 10
4.409722221119792
 20
17.95638363707197
 30
0.0
 10
4.409722221119792
 20
17.95638363707197
 30
0.0
 10
4.550833197621583
 20
18.41499582466077
 30
0.0
 10
4.550833197621583
 20
18.41499582466077
 30
0.0
 10
4.550833197621583
 20
18.41499582466077
 30
0.0
 10
3.668888753397625
 20
18.20332969634319
 30
0.0
 10
3.668888753397625
 20
18.20332969634319
 30
0.0
 10
3.668888753397625
 20
18.20332969634319
 30
0.0
 10
4.056944443430209
 20
19.54388632815594
 30
0.0
 10
4.056944443430209
 20
19.54388632815594
 30
0.0
 10
4.056944443430209
 20
19.54388632815594
 30
0.0
 10
3.704166665740625
 20
19.86138686637274
 30
0.0
 10
3.704166665740625
 20
19.86138686637274
 30
0.0
 10
3.704166665740625
 20
19.86138686637274
 30
0.0
 10
3.316110975708041
 20
18.30915872328071
 30
0.0
 10
3.316110975708041
 20
18.30915872328071
 30
0.0
 10
3.316110975708041
 20
18.30915872328071
 30
0.0
 10
2.892777709767562
 20
18.69721374044308
 30
0.0
 10
2.892777709767562
 20
18.69721374044308
 30
0.0
 10
2.892777709767562
 20
18.69721374044308
 30
0.0
 10
3.139722086863249
 20
19.57915818466704
 30
0.0
 10
3.139722086863249
 20
19.57915818466704
 30
0.0
 10
3.139722086863249
 20
19.57915818466704
 30
0.0
 10
2.822222053299114
 20
19.93193596235662
 30
0.0
 10
2.822222053299114
 20
19.93193596235662
 30
0.0
 10
2.822222053299114
 20
19.93193596235662
 30
0.0
 10
2.57527784442098
 20
19.01471427865987
 30
0.0
 10
2.57527784442098
 20
19.01471427865987
 30
0.0
 10
2.57527784442098
 20
19.01471427865987
 30
0.0
 10
2.328333467325292
 20
19.26165764645024
 30
0.0
 10
2.328333467325292
 20
19.26165764645024
 30
0.0
 10
3.007401823245647
 20
22.48465213213538
 30
0.0
 10
4.776562313369187
 20
25.37511281332804
 30
0.0
 10
7.33777817966546
 20
27.44610370373708
 30
0.0
  0
SPLINE
  5
1E5
330
49
100
AcDbEntity
  8
Layer 1
370
     0
100
AcDbSpline
210
0.0
220
0.0
230
1.0
 70
    11
 71
     3
 72
   197
 73
   193
 74
     0
 42
0.0000000001
 43
0.0000000001
 12
1.0
 22
0.0
 32
0.0
 13
1.0
 23
0.0
 33
0.0
 40
0.0
 40
0.0
 40
0.0
 40
0.0
 40
1.0
 40
1.0
 40
1.0
 40
2.0
 40
2.0
 40
2.0
 40
3.0
 40
3.0
 40
3.0
 40
4.0
 40
4.0
 40
4.0
 40
5.0
 40
5.0
 40
5.0
 40
6.0
 40
6.0
 40
6.0
 40
7.0
 40
7.0
 40
7.0
 40
8.0
 40
8.0
 40
8.0
 40
9.0
 40
9.0
 40
9.0
 40
10.0
 40
10.0
 40
10.0
 40
11.0
 40
11.0
 40
11.0
 40
12.0
 40
12.0
 40
12.0
 40
13.0
 40
13.0
 40
13.0
 40
14.0
 40
14.0
 40
14.0
 40
15.0
 40
15.0
 40
15.0
 40
16.0
 40
16.0
 40
16.0
 40
17.0
 40
17.0
 40
17.0
 40
18.0
 40
18.0
 40
18.0
 40
19.0
 40
19.0
 40
19.0
 40
20.0
 40
20.0
 40
20.0
 40
21.0
 40
21.0
 40
21.0
 40
22.0
 40
22.0
 40
22.0
 40
23.0
 40
23.0
 40
23.0
 40
24.0
 40
24.0
 40
24.0
 40
25.0
 40
25.0
 40
25.0
 40
26.0
 40
26.0
 40
26.0
 40
27.0
 40
27.0
 40
27.0
 40
28.0
 40
28.0
 40
28.0
 40
29.0
 40
29.0
 40
29.0
 40
30.0
 40
30.0
 40
30.0
 40
31.0
 40
31.0
 40
31.0
 40
32.0
 40
32.0
 40
32.0
 40
33.0
 40
33.0
 40
33.0
 40
34.0
 40
34.0
 40
34.0
 40
35.0
 40
35.0
 40
35.0
 40
36.0
 40
36.0
 40
36.0
 40
37.0
 40
37.0
 40
37.0
 40
38.0
 40
38.0
 40
38.0
 40
39.0
 40
39.0
 40
39.0
 40
40.0
 40
40.0
 40
40.0
 40
41.0
 40
41.0
 40
41.0
 40
42.0
 40
42.0
 40
42.0
 40
43.0
 40
43.0
 40
43.0
 40
44.0
 40
44.0
 40
44.0
 40
45.0
 40
45.0
 40
45.0
 40
46.0
 40
46.0
 40
46.0
 40
47.0
 40
47.0
 40
47.0
 40
48.0
 40
48.0
 40
48.0
 40
49.0
 40
49.0
 40
49.0
 40
50.0
 40
50.0
 40
50.0
 40
51.0
 40
51.0
 40
51.0
 40
52.0
 40
52.0
 40
52.0
 40
53.0
 40
53.0
 40
53.0
 40
54.0
 40
54.0
 40
54.0
 40
55.0
 40
55.0
 40
55.0
 40
56.0
 40
56.0
 40
56.0
 40
57.0
 40
57.0
 40
57.0
 40
58.0
 40
58.0
 40
58.0
 40
59.0
 40
59.0
 40
59.0
 40
60.0
 40
60.0
 40
60.0
 40
61.0
 40
61.0
 40
61.0
 40
62.0
 40
62.0
 40
62.0
 40
63.0
 40
63.0
 40
63.0
 40
64.0
 40
64.0
 40
64.0
 40
64.0
 10
2.32833329910774
 20
13.33499259615375
 30
0.0
 10
2.32833329910774
 20
13.33499259615375
 30
0.0
 10
2.398888787358635
 20
13.33499259615375
 30
0.0
 10
2.398888787358635
 20
13.33499259615375
 30
0.0
 10
2.398888787358635
 20
13.33499259615375
 30
0.0
 10
2.751666565048218
 20
14.6755492279665
 30
0.0
 10
2.751666565048218
 20
14.6755492279665
 30
0.0
 10
2.751666565048218
 20
14.6755492279665
 30
0.0
 10
3.386666800394043
 20
14.0758253910057
 30
0.0
 10
3.386666800394043
 20
14.0758253910057
 30
0.0
 10
3.386666800394043
 20
14.0758253910057
 30
0.0
 10
3.492500200987939
 20
14.5344375785945
 30
0.0
 10
3.492500200987939
 20
14.5344375785945
 30
0.0
 10
3.492500200987939
 20
14.5344375785945
 30
0.0
 10
3.139722423298355
 20
14.88721535628409
 30
0.0
 10
3.139722423298355
 20
14.88721535628409
 30
0.0
 10
3.139722423298355
 20
14.88721535628409
 30
0.0
 10
3.563055689238834
 20
14.9930497661833
 30
0.0
 10
3.563055689238834
 20
14.9930497661833
 30
0.0
 10
3.563055689238834
 20
14.9930497661833
 30
0.0
 10
4.09222235577321
 20
14.46388309964892
 30
0.0
 10
4.09222235577321
 20
14.46388309964892
 30
0.0
 10
4.09222235577321
 20
14.46388309964892
 30
0.0
 10
4.621389022307584
 20
13.93471643311455
 30
0.0
 10
4.621389022307584
 20
13.93471643311455
 30
0.0
 10
4.621389022307584
 20
13.93471643311455
 30
0.0
 10
4.515555621713688
 20
13.54666141595218
 30
0.0
 10
4.515555621713688
 20
13.54666141595218
 30
0.0
 10
4.515555621713688
 20
13.54666141595218
 30
0.0
 10
4.162777844024105
 20
13.86416195416897
 30
0.0
 10
4.162777844024105
 20
13.86416195416897
 30
0.0
 10
4.162777844024105
 20
13.86416195416897
 30
0.0
 10
3.704166665740625
 20
13.75832754426976
 30
0.0
 10
3.704166665740625
 20
13.75832754426976
 30
0.0
 10
3.704166665740625
 20
13.75832754426976
 30
0.0
 10
4.339166732868897
 20
13.12332646783617
 30
0.0
 10
4.339166732868897
 20
13.12332646783617
 30
0.0
 10
4.339166732868897
 20
13.12332646783617
 30
0.0
 10
2.998611110361459
 20
12.77054869014659
 30
0.0
 10
2.998611110361459
 20
12.77054869014659
 30
0.0
 10
2.998611110361459
 20
12.77054869014659
 30
0.0
 10
2.892777709767562
 20
12.31193650255779
 30
0.0
 10
2.892777709767562
 20
12.31193650255779
 30
0.0
 10
2.892777709767562
 20
12.31193650255779
 30
0.0
 10
4.445000133462792
 20
12.73526875919295
 30
0.0
 10
4.445000133462792
 20
12.73526875919295
 30
0.0
 10
4.445000133462792
 20
12.73526875919295
 30
0.0
 10
4.303889156961001
 20
12.20610209265857
 30
0.0
 10
4.303889156961001
 20
12.20610209265857
 30
0.0
 10
4.303889156961001
 20
12.20610209265857
 30
0.0
 10
3.386666800394043
 20
11.9591587248682
 30
0.0
 10
3.386666800394043
 20
11.9591587248682
 30
0.0
 10
3.386666800394043
 20
11.9591587248682
 30
0.0
 10
3.280833399800146
 20
11.53582646823304
 30
0.0
 10
3.280833399800146
 20
11.53582646823304
 30
0.0
 10
3.280833399800146
 20
11.53582646823304
 30
0.0
 10
4.198055419931999
 20
11.78276983602341
 30
0.0
 10
4.198055419931999
 20
11.78276983602341
 30
0.0
 10
4.198055419931999
 20
11.78276983602341
 30
0.0
 10
4.021666531087208
 20
11.21832593001625
 30
0.0
 10
4.021666531087208
 20
11.21832593001625
 30
0.0
 10
4.021666531087208
 20
11.21832593001625
 30
0.0
 10
4.233333332275
 20
11.14777145107067
 30
0.0
 10
4.233333332275
 20
11.14777145107067
 30
0.0
 10
4.233333332275
 20
11.14777145107067
 30
0.0
 10
4.409722221119792
 20
11.14777145107067
 30
0.0
 10
4.409722221119792
 20
11.14777145107067
 30
0.0
 10
4.409722221119792
 20
11.14777145107067
 30
0.0
 10
4.550833197621583
 20
11.71221535707783
 30
0.0
 10
4.550833197621583
 20
11.71221535707783
 30
0.0
 10
4.550833197621583
 20
11.71221535707783
 30
0.0
 10
5.221110840657749
 20
11.04193704117146
 30
0.0
 10
5.221110840657749
 20
11.04193704117146
 30
0.0
 10
5.221110840657749
 20
11.04193704117146
 30
0.0
 10
5.36222181715954
 20
11.50054922876025
 30
0.0
 10
5.36222181715954
 20
11.50054922876025
 30
0.0
 10
5.36222181715954
 20
11.50054922876025
 30
0.0
 10
4.691944174123374
 20
12.13555030519384
 30
0.0
 10
4.691944174123374
 20
12.13555030519384
 30
0.0
 10
4.691944174123374
 20
12.13555030519384
 30
0.0
 10
4.833055150625165
 20
12.66471697172822
 30
0.0
 10
4.833055150625165
 20
12.66471697172822
 30
0.0
 10
4.833055150625165
 20
12.66471697172822
 30
0.0
 10
5.961944308379916
 20
11.53582915971389
 30
0.0
 10
5.961944308379916
 20
11.53582915971389
 30
0.0
 10
5.961944308379916
 20
11.53582915971389
 30
0.0
 10
6.103055284881707
 20
11.99444134730269
 30
0.0
 10
6.103055284881707
 20
11.99444134730269
 30
0.0
 10
6.103055284881707
 20
11.99444134730269
 30
0.0
 10
5.115277440063853
 20
12.94694027047223
 30
0.0
 10
5.115277440063853
 20
12.94694027047223
 30
0.0
 10
5.115277440063853
 20
12.94694027047223
 30
0.0
 10
5.961944308379916
 20
13.19388363826259
 30
0.0
 10
5.961944308379916
 20
13.19388363826259
 30
0.0
 10
5.961944308379916
 20
13.19388363826259
 30
0.0
 10
5.644444443033334
 20
13.51138417647939
 30
0.0
 10
5.644444443033334
 20
13.51138417647939
 30
0.0
 10
5.644444443033334
 20
13.51138417647939
 30
0.0
 10
5.150555688841959
 20
13.40554976658017
 30
0.0
 10
5.150555688841959
 20
13.40554976658017
 30
0.0
 10
5.150555688841959
 20
13.40554976658017
 30
0.0
 10
5.256389089435856
 20
13.79360478374255
 30
0.0
 10
5.256389089435856
 20
13.79360478374255
 30
0.0
 10
5.256389089435856
 20
13.79360478374255
 30
0.0
 10
5.997222220722917
 20
14.00527091206013
 30
0.0
 10
5.997222220722917
 20
14.00527091206013
 30
0.0
 10
5.997222220722917
 20
14.00527091206013
 30
0.0
 10
6.702777776102083
 20
14.18165980090492
 30
0.0
 10
6.702777776102083
 20
14.18165980090492
 30
0.0
 10
6.702777776102083
 20
14.18165980090492
 30
0.0
 10
6.984999729105666
 20
13.89943650216091
 30
0.0
 10
6.984999729105666
 20
13.89943650216091
 30
0.0
 10
6.984999729105666
 20
13.89943650216091
 30
0.0
 10
6.526388887257292
 20
13.75832485278891
 30
0.0
 10
6.526388887257292
 20
13.75832485278891
 30
0.0
 10
6.526388887257292
 20
13.75832485278891
 30
0.0
 10
6.420555823098502
 20
13.29971266520011
 30
0.0
 10
6.420555823098502
 20
13.29971266520011
 30
0.0
 10
6.420555823098502
 20
13.29971266520011
 30
0.0
 10
7.267222354979459
 20
13.54665603299048
 30
0.0
 10
7.267222354979459
 20
13.54665603299048
 30
0.0
 10
7.267222354979459
 20
13.54665603299048
 30
0.0
 10
6.914444577289876
 20
12.20609940117773
 30
0.0
 10
6.914444577289876
 20
12.20609940117773
 30
0.0
 10
6.914444577289876
 20
12.20609940117773
 30
0.0
 10
7.231944442636459
 20
11.88859886296093
 30
0.0
 10
7.231944442636459
 20
11.88859886296093
 30
0.0
 10
7.231944442636459
 20
11.88859886296093
 30
0.0
 10
7.655278045012044
 20
13.44082162309127
 30
0.0
 10
7.655278045012044
 20
13.44082162309127
 30
0.0
 10
7.655278045012044
 20
13.44082162309127
 30
0.0
 10
8.043333062174415
 20
13.01749205793695
 30
0.0
 10
8.043333062174415
 20
13.01749205793695
 30
0.0
 10
8.043333062174415
 20
13.01749205793695
 30
0.0
 10
7.796388348643623
 20
12.10027037424021
 30
0.0
 10
7.796388348643623
 20
12.10027037424021
 30
0.0
 10
7.796388348643623
 20
12.10027037424021
 30
0.0
 10
8.113888213990204
 20
11.78276983602341
 30
0.0
 10
8.113888213990204
 20
11.78276983602341
 30
0.0
 10
8.113888213990204
 20
11.78276983602341
 30
0.0
 10
8.360832927520999
 20
12.69999151972016
 30
0.0
 10
8.360832927520999
 20
12.69999151972016
 30
0.0
 10
8.360832927520999
 20
12.69999151972016
 30
0.0
 10
8.784166529896583
 20
12.276659263085
 30
0.0
 10
8.784166529896583
 20
12.276659263085
 30
0.0
 10
8.784166529896583
 20
12.276659263085
 30
0.0
 10
8.854722354582584
 20
12.34721374203058
 30
0.0
 10
8.854722354582584
 20
12.34721374203058
 30
0.0
 10
8.854722354582584
 20
12.34721374203058
 30
0.0
 10
10.12472248883913
 20
11.71221266559699
 30
0.0
 10
10.12472248883913
 20
11.71221266559699
 30
0.0
 10
10.12472248883913
 20
11.71221266559699
 30
0.0
 10
10.37166720236992
 20
10.75971374242745
 30
0.0
 10
10.37166720236992
 20
10.75971374242745
 30
0.0
 10
10.37166720236992
 20
10.75971374242745
 30
0.0
 10
9.842500535835544
 20
11.18304599906261
 30
0.0
 10
9.842500535835544
 20
11.18304599906261
 30
0.0
 10
9.842500535835544
 20
11.18304599906261
 30
0.0
 10
9.736667471676755
 20
10.15998990546665
 30
0.0
 10
9.736667471676755
 20
10.15998990546665
 30
0.0
 10
9.736667471676755
 20
10.15998990546665
 30
0.0
 10
8.819444442239584
 20
9.48971428104112
 30
0.0
 10
8.819444442239584
 20
9.48971428104112
 30
0.0
 10
8.819444442239584
 20
9.48971428104112
 30
0.0
 10
9.807221950622333
 20
9.031102093452324
 30
0.0
 10
9.807221950622333
 20
9.031102093452324
 30
0.0
 10
9.807221950622333
 20
9.031102093452324
 30
0.0
 10
10.05416666415313
 20
8.219712128173942
 30
0.0
 10
10.05416666415313
 20
8.219712128173942
 30
0.0
 10
10.05416666415313
 20
8.219712128173942
 30
0.0
 10
9.136944307586166
 20
7.478879333321987
 30
0.0
 10
9.136944307586166
 20
7.478879333321987
 30
0.0
 10
9.136944307586166
 20
7.478879333321987
 30
0.0
 10
12.59416693266621
 20
6.032490983090865
 30
0.0
 10
12.59416693266621
 20
6.032490983090865
 30
0.0
 10
12.59416693266621
 20
6.032490983090865
 30
0.0
 10
12.94694471035579
 20
4.833046000650112
 30
0.0
 10
12.94694471035579
 20
4.833046000650112
 30
0.0
 10
12.94694471035579
 20
4.833046000650112
 30
0.0
 10
12.06500026613184
 20
4.550822701906107
 30
0.0
 10
12.06500026613184
 20
4.550822701906107
 30
0.0
 10
12.06500026613184
 20
4.550822701906107
 30
0.0
 10
11.00666693306309
 20
5.432767146130065
 30
0.0
 10
11.00666693306309
 20
5.432767146130065
 30
0.0
 10
11.00666693306309
 20
5.432767146130065
 30
0.0
 10
10.86555595656129
 20
3.986378795898943
 30
0.0
 10
10.86555595656129
 20
3.986378795898943
 30
0.0
 10
10.86555595656129
 20
3.986378795898943
 30
0.0
 10
10.01888942468034
 20
3.457212129364568
 30
0.0
 10
10.01888942468034
 20
3.457212129364568
 30
0.0
 10
6.07937900073337
 20
5.400081802713757
 30
0.0
 10
3.24594272426413
 20
9.039356865212683
 30
0.0
 10
2.32833329910774
 20
13.33499259615375
 30
0.0
  0
SPLINE
  5
1E6
330
49
100
AcDbEntity
  8
Layer 1
370
     0
100
AcDbSpline
210
0.0
220
0.0
230
1.0
 70
    11
 71
     3
 72
    86
 73
    82
 74
     0
 42
0.0000000001
 43
0.0000000001
 12
1.0
 22
0.0
 32
0.0
 13
1.0
 23
0.0
 33
0.0
 40
0.0
 40
0.0
 40
0.0
 40
0.0
 40
1.0
 40
1.0
 40
1.0
 40
2.0
 40
2.0
 40
2.0
 40
3.0
 40
3.0
 40
3.0
 40
4.0
 40
4.0
 40
4.0
 40
5.0
 40
5.0
 40
5.0
 40
6.0
 40
6.0
 40
6.0
 40
7.0
 40
7.0
 40
7.0
 40
8.0
 40
8.0
 40
8.0
 40
9.0
 40
9.0
 40
9.0
 40
10.0
 40
10.0
 40
10.0
 40
11.0
 40
11.0
 40
11.0
 40
12.0
 40
12.0
 40
12.0
 40
13.0
 40
13.0
 40
13.0
 40
14.0
 40
14.0
 40
14.0
 40
15.0
 40
15.0
 40
15.0
 40
16.0
 40
16.0
 40
16.0
 40
17.0
 40
17.0
 40
17.0
 40
18.0
 40
18.0
 40
18.0
 40
19.0
 40
19.0
 40
19.0
 40
20.0
 40
20.0
 40
20.0
 40
21.0
 40
21.0
 40
21.0
 40
22.0
 40
22.0
 40
22.0
 40
23.0
 40
23.0
 40
23.0
 40
24.0
 40
24.0
 40
24.0
 40
25.0
 40
25.0
 40
25.0
 40
26.0
 40
26.0
 40
26.0
 40
27.0
 40
27.0
 40
27.0
 40
27.0
 10
13.15861083867337
 20
2.363604248303877
 30
0.0
 10
13.15861083867337
 20
2.363604248303877
 30
0.0
 10
13.68777750520775
 20
2.363604248303877
 30
0.0
 10
13.68777750520775
 20
2.363604248303877
 30
0.0
 10
13.68777750520775
 20
2.363604248303877
 30
0.0
 10
16.01611029966283
 20
5.256380948766121
 30
0.0
 10
16.01611029966283
 20
5.256380948766121
 30
0.0
 10
16.01611029966283
 20
5.256380948766121
 30
0.0
 10
19.68499838019024
 20
5.009437580975752
 30
0.0
 10
19.68499838019024
 20
5.009437580975752
 30
0.0
 10
19.68499838019024
 20
5.009437580975752
 30
0.0
 10
19.0499999952375
 20
5.997213743618076
 30
0.0
 10
19.0499999952375
 20
5.997213743618076
 30
0.0
 10
19.0499999952375
 20
5.997213743618076
 30
0.0
 10
19.72027831114388
 20
7.055547076686826
 30
0.0
 10
19.72027831114388
 20
7.055547076686826
 30
0.0
 10
19.72027831114388
 20
7.055547076686826
 30
0.0
 10
20.99027777253021
 20
6.949712666787613
 30
0.0
 10
20.99027777253021
 20
6.949712666787613
 30
0.0
 10
20.99027777253021
 20
6.949712666787613
 30
0.0
 10
20.31999945662383
 20
8.078603170282788
 30
0.0
 10
20.31999945662383
 20
8.078603170282788
 30
0.0
 10
20.31999945662383
 20
8.078603170282788
 30
0.0
 10
20.74333305899941
 20
9.031102093452324
 30
0.0
 10
20.74333305899941
 20
9.031102093452324
 30
0.0
 10
20.74333305899941
 20
9.031102093452324
 30
0.0
 10
21.62527750322337
 20
8.607769836817162
 30
0.0
 10
21.62527750322337
 20
8.607769836817162
 30
0.0
 10
21.62527750322337
 20
8.607769836817162
 30
0.0
 10
22.29555581912975
 20
6.103048153517291
 30
0.0
 10
22.29555581912975
 20
6.103048153517291
 30
0.0
 10
22.29555581912975
 20
6.103048153517291
 30
0.0
 10
23.95361164341888
 20
8.113880409755577
 30
0.0
 10
23.95361164341888
 20
8.113880409755577
 30
0.0
 10
23.95361164341888
 20
8.113880409755577
 30
0.0
 10
26.10555554902917
 20
7.972768760383573
 30
0.0
 10
26.10555554902917
 20
7.972768760383573
 30
0.0
 10
26.10227732535649
 20
7.934143318736058
 30
0.0
 10
26.1150349445753
 20
7.89587046107961
 30
0.0
 10
26.14083278850196
 20
7.866934350484359
 30
0.0
 10
26.22625500765107
 20
7.761799725605586
 30
0.0
 10
26.37432413501476
 20
7.732185361836677
 30
0.0
 10
26.49361056619154
 20
7.796379871538782
 30
0.0
 10
26.49361056619154
 20
7.796379871538782
 30
0.0
 10
27.44610948936107
 20
8.396101017018735
 30
0.0
 10
27.44610948936107
 20
8.396101017018735
 30
0.0
 10
27.44610948936107
 20
8.396101017018735
 30
0.0
 10
27.86944174599624
 20
8.29026660711952
 30
0.0
 10
27.86944174599624
 20
8.29026660711952
 30
0.0
 10
27.86944174599624
 20
8.29026660711952
 30
0.0
 10
26.95222006229949
 20
7.690545461639568
 30
0.0
 10
26.95222006229949
 20
7.690545461639568
 30
0.0
 10
26.74055393398191
 20
7.584711051740354
 30
0.0
 10
26.84638565240028
 20
7.23193327405077
 30
0.0
 10
27.09333171167149
 20
7.23193327405077
 30
0.0
 10
27.09333171167149
 20
7.23193327405077
 30
0.0
 10
27.3755550104155
 20
7.23193327405077
 30
0.0
 10
27.3755550104155
 20
7.23193327405077
 30
0.0
 10
27.30156081894637
 20
7.099593160761915
 30
0.0
 10
27.20620165250699
 20
6.980392856972271
 30
0.0
 10
27.09333171167149
 20
6.879155496361187
 30
0.0
 10
27.09333171167149
 20
6.879155496361187
 30
0.0
 10
26.74055393398191
 20
6.879155496361187
 30
0.0
 10
26.74055393398191
 20
6.879155496361187
 30
0.0
 10
26.60417121645958
 20
6.879155496361187
 30
0.0
 10
26.49361056619154
 20
6.768594846093146
 30
0.0
 10
26.49361056619154
 20
6.632212128570818
 30
0.0
 10
26.49270084566497
 20
6.530479535483729
 30
0.0
 10
26.54661389852828
 20
6.436132365843145
 30
0.0
 10
26.63472221556354
 20
6.385268760780448
 30
0.0
 10
26.52615595260376
 20
6.258984479399259
 30
0.0
 10
26.40822871925515
 20
6.141057246050648
 30
0.0
 10
26.28194443787396
 20
6.032490983090865
 30
0.0
 10
26.24666719840117
 20
5.997213743618076
 30
0.0
 10
26.17611002797474
 20
5.961936504145288
 30
0.0
 10
26.17611002797474
 20
5.891379333718862
 30
0.0
 10
23.52020248248936
 20
3.370070053953682
 30
0.0
 10
19.99568408890028
 20
1.967843521474106
 30
0.0
 10
16.3336094921392
 20
1.975546539660657
 30
0.0
 10
15.26362339273968
 20
1.978394126397683
 30
0.0
 10
14.19778486532669
 20
2.108664490914541
 30
0.0
 10
13.15861083867337
 20
2.363604248303877
 30
0.0
  0
ENDBLK
  5
4C
330
49
100
AcDbEntity
  8
0
100
AcDbBlockEnd
  0
ENDSEC
  0
SECTION
  2
ENTITIES
  0
INSERT
  5
42
330
1F
100
AcDbEntity
  8
Layer 1
100
AcDbBlockReference
  2
block 2
 10
0.0
 20
0.0
 30
0.0
  0
INSERT
  5
46
330
1F
100
AcDbEntity
  8
Layer 1
100
AcDbBlockReference
  2
block 3
 10
0.0
 20
0.0
 30
0.0
  0
ENDSEC
  0
SECTION
  2
OBJECTS
  0
DICTIONARY
  5
C
330
0
100
AcDbDictionary
281
     1
  3
ACAD_GROUP
350
D
  3
ACAD_LAYOUT
350
1A
  3
ACAD_MATERIAL
350
3B
  3
ACAD_MLEADERSTYLE
350
1E8
  3
ACAD_MLINESTYLE
350
17
  3
ACAD_PLOTSETTINGS
350
19
  3
ACAD_PLOTSTYLENAME
350
E
  3
ACAD_TABLESTYLE
350
1E7
  3
ACAD_VISUALSTYLE
350
2A
  0
SUN
  5
3F
330
29
100
AcDbSun
 90
        1
290
     0
 63
     7
421
 16777215
 40
1.0
291
     1
 91
  2455826
 92
 54000000
292
     0
 70
     2
 71
   256
280
     1
  0
DICTIONARY
  5
D
102
{ACAD_REACTORS
330
C
102
}
330
C
100
AcDbDictionary
281
     1
  0
DICTIONARY
  5
1A
102
{ACAD_REACTORS
330
C
102
}
330
C
100
AcDbDictionary
281
     1
  3
Layout1
350
1E
  3
Layout2
350
26
  3
Model
350
22
  0
DICTIONARY
  5
3B
102
{ACAD_REACTORS
330
C
102
}
330
C
100
AcDbDictionary
281
     1
  3
ByBlock
350
3D
  3
ByLayer
350
3C
  3
Global
350
3E
  0
DICTIONARY
  5
1E8
102
{ACAD_REACTORS
330
C
102
}
330
C
100
AcDbDictionary
281
     1
  0
DICTIONARY
  5
17
102
{ACAD_REACTORS
330
C
102
}
330
C
100
AcDbDictionary
281
     1
  3
Standard
350
18
  0
DICTIONARY
  5
19
102
{ACAD_REACTORS
330
C
102
}
330
C
100
AcDbDictionary
281
     1
  0
ACDBDICTIONARYWDFLT
  5
E
102
{ACAD_REACTORS
330
C
102
}
330
C
100
AcDbDictionary
281
     1
  3
Normal
350
F
100
AcDbDictionaryWithDefault
340
F
  0
DICTIONARY
  5
1E7
102
{ACAD_REACTORS
330
C
102
}
330
C
100
AcDbDictionary
281
     1
  0
DICTIONARY
  5
2A
102
{ACAD_REACTORS
330
C
102
}
330
C
100
AcDbDictionary
281
     1
  3
2dWireframe
350
2F
  3
3D Hidden
350
31
  3
3dWireframe
350
30
  3
Basic
350
32
  3
Brighten
350
36
  3
ColorChange
350
3A
  3
Conceptual
350
34
  3
Dim
350
35
  3
Facepattern
350
39
  3
Flat
350
2B
  3
FlatWithEdges
350
2C
  3
Gouraud
350
2D
  3
GouraudWithEdges
350
2E
  3
Linepattern
350
38
  3
Realistic
350
33
  3
Thicken
350
37
  0
LAYOUT
  5
1E
102
{ACAD_REACTORS
330
1A
102
}
330
1A
100
AcDbPlotSettings
  1

  2
none_device
  4

  6

 40
0.0
 41
0.0
 42
0.0
 43
0.0
 44
0.0
 45
0.0
 46
0.0
 47
0.0
 48
0.0
 49
0.0
140
0.0
141
0.0
142
1.0
143
1.0
 70
   688
 72
     0
 73
     0
 74
     5
  7

 75
    16
 76
     0
 77
     2
 78
   300
147
1.0
148
0.0
149
0.0
100
AcDbLayout
  1
Layout1
 70
     1
 71
     1
 10
0.0
 20
0.0
 11
12.0
 21
9.0
 12
0.0
 22
0.0
 32
0.0
 14
1.000000000000000E+20
 24
1.000000000000000E+20
 34
1.000000000000000E+20
 15
-1.000000000000000E+20
 25
-1.000000000000000E+20
 35
-1.000000000000000E+20
146
0.0
 13
0.0
 23
0.0
 33
0.0
 16
1.0
 26
0.0
 36
0.0
 17
0.0
 27
1.0
 37
0.0
 76
     0
330
1B
  0
LAYOUT
  5
26
102
{ACAD_REACTORS
330
1A
102
}
330
1A
100
AcDbPlotSettings
  1

  2
none_device
  4

  6

 40
0.0
 41
0.0
 42
0.0
 43
0.0
 44
0.0
 45
0.0
 46
0.0
 47
0.0
 48
0.0
 49
0.0
140
0.0
141
0.0
142
1.0
143
1.0
 70
   688
 72
     0
 73
     0
 74
     5
  7

 75
    16
 76
     0
 77
     2
 78
   300
147
1.0
148
0.0
149
0.0
100
AcDbLayout
  1
Layout2
 70
     1
 71
     2
 10
0.0
 20
0.0
 11
0.0
 21
0.0
 12
0.0
 22
0.0
 32
0.0
 14
0.0
 24
0.0
 34
0.0
 15
0.0
 25
0.0
 35
0.0
146
0.0
 13
0.0
 23
0.0
 33
0.0
 16
1.0
 26
0.0
 36
0.0
 17
0.0
 27
1.0
 37
0.0
 76
     0
330
23
  0
LAYOUT
  5
22
102
{ACAD_REACTORS
330
1A
102
}
330
1A
100
AcDbPlotSettings
  1

  2
none_device
  4

  6

 40
0.0
 41
0.0
 42
0.0
 43
0.0
 44
0.0
 45
0.0
 46
0.0
 47
0.0
 48
0.0
 49
0.0
140
0.0
141
0.0
142
1.0
143
1.0
 70
  1712
 72
     0
 73
     0
 74
     0
  7

 75
     0
 76
     0
 77
     2
 78
   300
147
1.0
148
0.0
149
0.0
100
AcDbLayout
  1
Model
 70
     1
 71
     0
 10
0.0
 20
0.0
 11
12.0
 21
9.0
 12
0.0
 22
0.0
 32
0.0
 14
1.000000000000000E+20
 24
1.000000000000000E+20
 34
1.000000000000000E+20
 15
-1.000000000000000E+20
 25
-1.000000000000000E+20
 35
-1.000000000000000E+20
146
0.0
 13
0.0
 23
0.0
 33
0.0
 16
1.0
 26
0.0
 36
0.0
 17
0.0
 27
1.0
 37
0.0
 76
     0
330
1F
331
29
  0
MATERIAL
  5
3D
102
{ACAD_REACTORS
330
3B
102
}
330
3B
100
AcDbMaterial
  1
ByBlock
 72
     1
 94
      127
  0
MATERIAL
  5
3C
102
{ACAD_REACTORS
330
3B
102
}
330
3B
100
AcDbMaterial
  1
ByLayer
 72
     1
 94
      127
  0
MATERIAL
  5
3E
102
{ACAD_REACTORS
330
3B
102
}
330
3B
100
AcDbMaterial
  1
Global
 72
     1
 94
      127
  0
MLINESTYLE
  5
18
102
{ACAD_REACTORS
330
17
102
}
330
17
100
AcDbMlineStyle
  2
Standard
 70
     0
  3

 62
   256
 51
90.0
 52
90.0
 71
     2
 49
0.5
 62
   256
  6
BYLAYER
 49
-0.5
 62
   256
  6
BYLAYER
  0
ACDBPLACEHOLDER
  5
F
102
{ACAD_REACTORS
330
E
102
}
330
E
  0
VISUALSTYLE
  5
2F
102
{ACAD_REACTORS
330
2A
102
}
330
2A
100
AcDbVisualStyle
  2
2dWireframe
 70
     4
177
     2
291
     0
 71
     0
176
     1
 72
     2
176
     1
 73
     0
176
     1
 90
        0
176
     1
 40
-0.6
176
     1
 41
-30.0
176
     1
 62
     5
 63
     7
421
 16777215
176
     1
 74
     1
176
     1
 91
        4
176
     1
 64
     7
176
     1
 65
   257
176
     1
 75
     1
176
     1
175
     1
176
     1
 42
1.0
176
     1
 92
        0
176
     1
 66
   257
176
     1
 43
1.0
176
     1
 76
     1
176
     1
 77
     6
176
     1
 78
     2
176
     1
 67
     7
176
     1
 79
     5
176
     1
170
     0
176
     1
171
     0
176
     1
290
     0
176
     1
 93
        1
176
     1
 44
0.0
176
     1
173
     0
176
     1
  0
VISUALSTYLE
  5
31
102
{ACAD_REACTORS
330
2A
102
}
330
2A
100
AcDbVisualStyle
  2
3D Hidden
 70
     6
177
     2
291
     0
 71
     1
176
     1
 72
     2
176
     1
 73
     2
176
     1
 90
        0
176
     1
 40
-0.6
176
     1
 41
-30.0
176
     1
 62
     5
 63
     7
421
 16777215
176
     1
 74
     2
176
     1
 91
        2
176
     1
 64
     7
176
     1
 65
   257
176
     1
 75
     2
176
     1
175
     1
176
     1
 42
40.0
176
     1
 92
        0
176
     1
 66
   257
176
     1
 43
1.0
176
     1
 76
     1
176
     1
 77
     6
176
     1
 78
     2
176
     1
 67
     7
176
     1
 79
     3
176
     1
170
     0
176
     1
171
     0
176
     1
290
     0
176
     1
 93
        1
176
     1
 44
0.0
176
     1
173
     0
176
     1
  0
VISUALSTYLE
  5
30
102
{ACAD_REACTORS
330
2A
102
}
330
2A
100
AcDbVisualStyle
  2
3dWireframe
 70
     5
177
     2
291
     0
 71
     0
176
     1
 72
     2
176
     1
 73
     0
176
     1
 90
        0
176
     1
 40
-0.6
176
     1
 41
-30.0
176
     1
 62
     5
 63
     7
421
 16777215
176
     1
 74
     1
176
     1
 91
        4
176
     1
 64
     7
176
     1
 65
   257
176
     1
 75
     1
176
     1
175
     1
176
     1
 42
1.0
176
     1
 92
        0
176
     1
 66
   257
176
     1
 43
1.0
176
     1
 76
     1
176
     1
 77
     6
176
     1
 78
     2
176
     1
 67
     7
176
     1
 79
     5
176
     1
170
     0
176
     1
171
     0
176
     1
290
     0
176
     1
 93
        1
176
     1
 44
0.0
176
     1
173
     0
176
     1
  0
VISUALSTYLE
  5
32
102
{ACAD_REACTORS
330
2A
102
}
330
2A
100
AcDbVisualStyle
  2
Basic
 70
     7
177
     2
291
     1
 71
     1
176
     1
 72
     0
176
     1
 73
     1
176
     1
 90
        0
176
     1
 40
-0.6
176
     1
 41
-30.0
176
     1
 62
     5
 63
     7
421
 16777215
176
     1
 74
     0
176
     1
 91
        4
176
     1
 64
     7
176
     1
 65
   257
176
     1
 75
     1
176
     1
175
     1
176
     1
 42
1.0
176
     1
 92
        8
176
     1
 66
     7
176
     1
 43
1.0
176
     1
 76
     1
176
     1
 77
     6
176
     1
 78
     2
176
     1
 67
     7
176
     1
 79
     5
176
     1
170
     0
176
     1
171
     0
176
     1
290
     0
176
     1
 93
        1
176
     1
 44
0.0
176
     1
173
     0
176
     1
  0
VISUALSTYLE
  5
36
102
{ACAD_REACTORS
330
2A
102
}
330
2A
100
AcDbVisualStyle
  2
Brighten
 70
    12
177
     2
291
     1
 71
     2
176
     1
 72
     2
176
     1
 73
     0
176
     1
 90
        0
176
     1
 40
-0.6
176
     1
 41
-30.0
176
     1
 62
     5
 63
     7
421
 16777215
176
     1
 74
     1
176
     1
 91
        4
176
     1
 64
     7
176
     1
 65
   257
176
     1
 75
     1
176
     1
175
     1
176
     1
 42
1.0
176
     1
 92
        8
176
     1
 66
     7
176
     1
 43
1.0
176
     1
 76
     1
176
     1
 77
     6
176
     1
 78
     2
176
     1
 67
     7
176
     1
 79
     5
176
     1
170
     0
176
     1
171
     0
176
     1
290
     0
176
     1
 93
        1
176
     1
 44
50.0
176
     1
173
     0
176
     1
  0
VISUALSTYLE
  5
3A
102
{ACAD_REACTORS
330
2A
102
}
330
2A
100
AcDbVisualStyle
  2
ColorChange
 70
    16
177
     2
291
     1
 71
     2
176
     1
 72
     2
176
     1
 73
     3
176
     1
 90
        0
176
     1
 40
-0.6
176
     1
 41
-30.0
176
     1
 62
     5
 63
     8
421
  8421504
176
     1
 74
     1
176
     1
 91
        4
176
     1
 64
     7
176
     1
 65
   257
176
     1
 75
     1
176
     1
175
     1
176
     1
 42
1.0
176
     1
 92
        8
176
     1
 66
     8
424
  8421504
176
     1
 43
1.0
176
     1
 76
     1
176
     1
 77
     6
176
     1
 78
     2
176
     1
 67
     7
176
     1
 79
     5
176
     1
170
     0
176
     1
171
     0
176
     1
290
     0
176
     1
 93
        1
176
     1
 44
0.0
176
     1
173
     0
176
     1
  0
VISUALSTYLE
  5
34
102
{ACAD_REACTORS
330
2A
102
}
330
2A
100
AcDbVisualStyle
  2
Conceptual
 70
     9
177
     2
291
     0
 71
     3
176
     1
 72
     2
176
     1
 73
     0
176
     1
 90
        0
176
     1
 40
-0.6
176
     1
 41
-30.0
176
     1
 62
     5
 63
     7
421
 16777215
176
     1
 74
     2
176
     1
 91
        2
176
     1
 64
     7
176
     1
 65
   257
176
     1
 75
     1
176
     1
175
     1
176
     1
 42
40.0
176
     1
 92
        8
176
     1
 66
     7
176
     1
 43
1.0
176
     1
 76
     1
176
     1
 77
     6
176
     1
 78
     2
176
     1
 67
     7
176
     1
 79
     3
176
     1
170
     0
176
     1
171
     0
176
     1
290
     0
176
     1
 93
        1
176
     1
 44
0.0
176
     1
173
     0
176
     1
  0
VISUALSTYLE
  5
35
102
{ACAD_REACTORS
330
2A
102
}
330
2A
100
AcDbVisualStyle
  2
Dim
 70
    11
177
     2
291
     1
 71
     2
176
     1
 72
     2
176
     1
 73
     0
176
     1
 90
        0
176
     1
 40
-0.6
176
     1
 41
-30.0
176
     1
 62
     5
 63
     7
421
 16777215
176
     1
 74
     1
176
     1
 91
        4
176
     1
 64
     7
176
     1
 65
   257
176
     1
 75
     1
176
     1
175
     1
176
     1
 42
1.0
176
     1
 92
        8
176
     1
 66
     7
176
     1
 43
1.0
176
     1
 76
     1
176
     1
 77
     6
176
     1
 78
     2
176
     1
 67
     7
176
     1
 79
     5
176
     1
170
     0
176
     1
171
     0
176
     1
290
     0
176
     1
 93
        1
176
     1
 44
-50.0
176
     1
173
     0
176
     1
  0
VISUALSTYLE
  5
39
102
{ACAD_REACTORS
330
2A
102
}
330
2A
100
AcDbVisualStyle
  2
Facepattern
 70
    15
177
     2
291
     1
 71
     2
176
     1
 72
     2
176
     1
 73
     0
176
     1
 90
        0
176
     1
 40
-0.6
176
     1
 41
-30.0
176
     1
 62
     5
 63
     7
421
 16777215
176
     1
 74
     1
176
     1
 91
        4
176
     1
 64
     7
176
     1
 65
   257
176
     1
 75
     1
176
     1
175
     1
176
     1
 42
1.0
176
     1
 92
        8
176
     1
 66
     7
176
     1
 43
1.0
176
     1
 76
     1
176
     1
 77
     6
176
     1
 78
     2
176
     1
 67
     7
176
     1
 79
     5
176
     1
170
     0
176
     1
171
     0
176
     1
290
     0
176
     1
 93
        1
176
     1
 44
0.0
176
     1
173
     0
176
     1
  0
VISUALSTYLE
  5
2B
102
{ACAD_REACTORS
330
2A
102
}
330
2A
100
AcDbVisualStyle
  2
Flat
 70
     0
177
     2
291
     1
 71
     2
176
     1
 72
     1
176
     1
 73
     1
176
     1
 90
        2
176
     1
 40
-0.6
176
     1
 41
30.0
176
     1
 62
     5
 63
     7
421
 16777215
176
     1
 74
     0
176
     1
 91
        4
176
     1
 64
     7
176
     1
 65
   257
176
     1
 75
     1
176
     1
175
     1
176
     1
 42
1.0
176
     1
 92
        8
176
     1
 66
     7
176
     1
 43
1.0
176
     1
 76
     1
176
     1
 77
     6
176
     1
 78
     2
176
     1
 67
     7
176
     1
 79
     5
176
     1
170
     0
176
     1
171
     0
176
     1
290
     0
176
     1
 93
       13
176
     1
 44
0.0
176
     1
173
     0
176
     1
  0
VISUALSTYLE
  5
2C
102
{ACAD_REACTORS
330
2A
102
}
330
2A
100
AcDbVisualStyle
  2
FlatWithEdges
 70
     1
177
     2
291
     1
 71
     2
176
     1
 72
     1
176
     1
 73
     1
176
     1
 90
        2
176
     1
 40
-0.6
176
     1
 41
30.0
176
     1
 62
     5
 63
     7
421
 16777215
176
     1
 74
     1
176
     1
 91
        4
176
     1
 64
     7
176
     1
 65
   257
176
     1
 75
     1
176
     1
175
     1
176
     1
 42
1.0
176
     1
 92
        0
176
     1
 66
   257
176
     1
 43
1.0
176
     1
 76
     1
176
     1
 77
     6
176
     1
 78
     2
176
     1
 67
     7
176
     1
 79
     5
176
     1
170
     0
176
     1
171
     0
176
     1
290
     0
176
     1
 93
       13
176
     1
 44
0.0
176
     1
173
     0
176
     1
  0
VISUALSTYLE
  5
2D
102
{ACAD_REACTORS
330
2A
102
}
330
2A
100
AcDbVisualStyle
  2
Gouraud
 70
     2
177
     2
291
     1
 71
     2
176
     1
 72
     2
176
     1
 73
     1
176
     1
 90
        2
176
     1
 40
-0.6
176
     1
 41
30.0
176
     1
 62
     5
 63
     7
421
 16777215
176
     1
 74
     0
176
     1
 91
        4
176
     1
 64
     7
176
     1
 65
   257
176
     1
 75
     1
176
     1
175
     1
176
     1
 42
1.0
176
     1
 92
        0
176
     1
 66
     7
176
     1
 43
1.0
176
     1
 76
     1
176
     1
 77
     6
176
     1
 78
     2
176
     1
 67
     7
176
     1
 79
     5
176
     1
170
     0
176
     1
171
     0
176
     1
290
     0
176
     1
 93
       13
176
     1
 44
0.0
176
     1
173
     0
176
     1
  0
VISUALSTYLE
  5
2E
102
{ACAD_REACTORS
330
2A
102
}
330
2A
100
AcDbVisualStyle
  2
GouraudWithEdges
 70
     3
177
     2
291
     1
 71
     2
176
     1
 72
     2
176
     1
 73
     1
176
     1
 90
        2
176
     1
 40
-0.6
176
     1
 41
30.0
176
     1
 62
     5
 63
     7
421
 16777215
176
     1
 74
     1
176
     1
 91
        4
176
     1
 64
     7
176
     1
 65
   257
176
     1
 75
     1
176
     1
175
     1
176
     1
 42
1.0
176
     1
 92
        0
176
     1
 66
   257
176
     1
 43
1.0
176
     1
 76
     1
176
     1
 77
     6
176
     1
 78
     2
176
     1
 67
     7
176
     1
 79
     5
176
     1
170
     0
176
     1
171
     0
176
     1
290
     0
176
     1
 93
       13
176
     1
 44
0.0
176
     1
173
     0
176
     1
  0
VISUALSTYLE
  5
38
102
{ACAD_REACTORS
330
2A
102
}
330
2A
100
AcDbVisualStyle
  2
Linepattern
 70
    14
177
     2
291
     1
 71
     2
176
     1
 72
     2
176
     1
 73
     0
176
     1
 90
        0
176
     1
 40
-0.6
176
     1
 41
-30.0
176
     1
 62
     5
 63
     7
421
 16777215
176
     1
 74
     1
176
     1
 91
        4
176
     1
 64
     7
176
     1
 65
   257
176
     1
 75
     7
176
     1
175
     7
176
     1
 42
1.0
176
     1
 92
        8
176
     1
 66
     7
176
     1
 43
1.0
176
     1
 76
     1
176
     1
 77
     6
176
     1
 78
     2
176
     1
 67
     7
176
     1
 79
     5
176
     1
170
     0
176
     1
171
     0
176
     1
290
     0
176
     1
 93
        1
176
     1
 44
0.0
176
     1
173
     0
176
     1
  0
VISUALSTYLE
  5
33
102
{ACAD_REACTORS
330
2A
102
}
330
2A
100
AcDbVisualStyle
  2
Realistic
 70
     8
177
     2
291
     0
 71
     2
176
     1
 72
     2
176
     1
 73
     0
176
     1
 90
        0
176
     1
 40
-0.6
176
     1
 41
-30.0
176
     1
 62
     5
 63
     7
421
 16777215
176
     1
 74
     1
176
     1
 91
        0
176
     1
 64
     7
176
     1
 65
   257
176
     1
 75
     1
176
     1
175
     1
176
     1
 42
1.0
176
     1
 92
        8
176
     1
 66
     8
424
  7895160
176
     1
 43
1.0
176
     1
 76
     1
176
     1
 77
     6
176
     1
 78
     2
176
     1
 67
     7
176
     1
 79
     5
176
     1
170
     0
176
     1
171
     0
176
     1
290
     0
176
     1
 93
       13
176
     1
 44
0.0
176
     1
173
     0
176
     1
  0
VISUALSTYLE
  5
37
102
{ACAD_REACTORS
330
2A
102
}
330
2A
100
AcDbVisualStyle
  2
Thicken
 70
    13
177
     2
291
     1
 71
     2
176
     1
 72
     2
176
     1
 73
     0
176
     1
 90
        0
176
     1
 40
-0.6
176
     1
 41
-30.0
176
     1
 62
     5
 63
     7
421
 16777215
176
     1
 74
     1
176
     1
 91
        4
176
     1
 64
     7
176
     1
 65
   257
176
     1
 75
     1
176
     1
175
     1
176
     1
 42
1.0
176
     1
 92
       12
176
     1
 66
     7
176
     1
 43
1.0
176
     1
 76
     1
176
     1
 77
     6
176
     1
 78
     2
176
     1
 67
     7
176
     1
 79
     5
176
     1
170
     0
176
     1
171
     0
176
     1
290
     0
176
     1
 93
        1
176
     1
 44
0.0
176
     1
173
     0
176
     1
  0
ENDSEC
  0
EOF
