  0
SECTION
  2
HEADER
  9
$ACADVER
  1
AC1024
  9
$ACADMAINTVER
 70
     6
  9
$DWGCODEPAGE
  3
ANSI_1252
  9
$INSBASE
 10
0.0
 20
0.0
 30
0.0
  9
$EXTMIN
 10
1.000000000000000E+20
 20
1.000000000000000E+20
 30
1.000000000000000E+20
  9
$EXTMAX
 10
-1.000000000000000E+20
 20
-1.000000000000000E+20
 30
-1.000000000000000E+20
  9
$LIMMIN
 10
0.0
 20
0.0
  9
$LIMMAX
 10
12.0
 20
9.0
  9
$ORTHOMODE
 70
     0
  9
$REGENMODE
 70
     1
  9
$FILLMODE
 70
     1
  9
$QTEXTMODE
 70
     0
  9
$MIRRTEXT
 70
     1
  9
$LTSCALE
 40
1.0
  9
$ATTMODE
 70
     1
  9
$TEXTSIZE
 40
0.2
  9
$TRACEWID
 40
0.05
  9
$TEXTSTYLE
  7
Standard
  9
$CLAYER
  8
0
  9
$CELTYPE
  6
ByLayer
  9
$CECOLOR
 62
   256
  9
$CELTSCALE
 40
1.0
  9
$DISPSILH
 70
     0
  9
$DIMSCALE
 40
1.0
  9
$DIMASZ
 40
0.18
  9
$DIMEXO
 40
0.0625
  9
$DIMDLI
 40
0.38
  9
$DIMRND
 40
0.0
  9
$DIMDLE
 40
0.0
  9
$DIMEXE
 40
0.18
  9
$DIMTP
 40
0.0
  9
$DIMTM
 40
0.0
  9
$DIMTXT
 40
0.18
  9
$DIMCEN
 40
0.09
  9
$DIMTSZ
 40
0.0
  9
$DIMTOL
 70
     0
  9
$DIMLIM
 70
     0
  9
$DIMTIH
 70
     1
  9
$DIMTOH
 70
     1
  9
$DIMSE1
 70
     0
  9
$DIMSE2
 70
     0
  9
$DIMTAD
 70
     0
  9
$DIMZIN
 70
     0
  9
$DIMBLK
  1

  9
$DIMASO
 70
     1
  9
$DIMSHO
 70
     1
  9
$DIMPOST
  1

  9
$DIMAPOST
  1

  9
$DIMALT
 70
     0
  9
$DIMALTD
 70
     2
  9
$DIMALTF
 40
25.4
  9
$DIMLFAC
 40
1.0
  9
$DIMTOFL
 70
     0
  9
$DIMTVP
 40
0.0
  9
$DIMTIX
 70
     0
  9
$DIMSOXD
 70
     0
  9
$DIMSAH
 70
     0
  9
$DIMBLK1
  1

  9
$DIMBLK2
  1

  9
$DIMSTYLE
  2
Standard
  9
$DIMCLRD
 70
     0
  9
$DIMCLRE
 70
     0
  9
$DIMCLRT
 70
     0
  9
$DIMTFAC
 40
1.0
  9
$DIMGAP
 40
0.09
  9
$DIMJUST
 70
     0
  9
$DIMSD1
 70
     0
  9
$DIMSD2
 70
     0
  9
$DIMTOLJ
 70
     1
  9
$DIMTZIN
 70
     0
  9
$DIMALTZ
 70
     0
  9
$DIMALTTZ
 70
     0
  9
$DIMUPT
 70
     0
  9
$DIMDEC
 70
     4
  9
$DIMTDEC
 70
     4
  9
$DIMALTU
 70
     2
  9
$DIMALTTD
 70
     2
  9
$DIMTXSTY
  7
Standard
  9
$DIMAUNIT
 70
     0
  9
$DIMADEC
 70
     0
  9
$DIMALTRND
 40
0.0
  9
$DIMAZIN
 70
     0
  9
$DIMDSEP
 70
    46
  9
$DIMATFIT
 70
     3
  9
$DIMFRAC
 70
     0
  9
$DIMLDRBLK
  1

  9
$DIMLUNIT
 70
     2
  9
$DIMLWD
 70
    -2
  9
$DIMLWE
 70
    -2
  9
$DIMTMOVE
 70
     0
  9
$DIMFXL
 40
1.0
  9
$DIMFXLON
 70
     0
  9
$DIMJOGANG
 40
0.7853981633974483
  9
$DIMTFILL
 70
     0
  9
$DIMTFILLCLR
 70
     0
  9
$DIMARCSYM
 70
     0
  9
$DIMLTYPE
  6

  9
$DIMLTEX1
  6

  9
$DIMLTEX2
  6

  9
$DIMTXTDIRECTION
 70
     0
  9
$LUNITS
 70
     2
  9
$LUPREC
 70
     4
  9
$SKETCHINC
 40
0.1
  9
$FILLETRAD
 40
0.5
  9
$AUNITS
 70
     0
  9
$AUPREC
 70
     0
  9
$MENU
  1
.
  9
$ELEVATION
 40
0.0
  9
$PELEVATION
 40
0.0
  9
$THICKNESS
 40
0.0
  9
$LIMCHECK
 70
     0
  9
$CHAMFERA
 40
0.5
  9
$CHAMFERB
 40
0.5
  9
$CHAMFERC
 40
1.0
  9
$CHAMFERD
 40
0.0
  9
$SKPOLY
 70
     0
  9
$TDCREATE
 40
2459192.938478333
  9
$TDUCREATE
 40
2459192.771811667
  9
$TDUPDATE
 40
2459192.93847838
  9
$TDUUPDATE
 40
2459192.771811713
  9
$TDINDWG
 40
0.0000000116
  9
$TDUSRTIMER
 40
0.0000000116
  9
$USRTIMER
 70
     1
  9
$ANGBASE
 50
0.0
  9
$ANGDIR
 70
     0
  9
$PDMODE
 70
     0
  9
$PDSIZE
 40
0.0
  9
$PLINEWID
 40
0.0
  9
$SPLFRAME
 70
     0
  9
$SPLINETYPE
 70
     6
  9
$SPLINESEGS
 70
     8
  9
$HANDSEED
  5
175
  9
$SURFTAB1
 70
     6
  9
$SURFTAB2
 70
     6
  9
$SURFTYPE
 70
     6
  9
$SURFU
 70
     6
  9
$SURFV
 70
     6
  9
$UCSBASE
  2

  9
$UCSNAME
  2

  9
$UCSORG
 10
0.0
 20
0.0
 30
0.0
  9
$UCSXDIR
 10
1.0
 20
0.0
 30
0.0
  9
$UCSYDIR
 10
0.0
 20
1.0
 30
0.0
  9
$UCSORTHOREF
  2

  9
$UCSORTHOVIEW
 70
     0
  9
$UCSORGTOP
 10
0.0
 20
0.0
 30
0.0
  9
$UCSORGBOTTOM
 10
0.0
 20
0.0
 30
0.0
  9
$UCSORGLEFT
 10
0.0
 20
0.0
 30
0.0
  9
$UCSORGRIGHT
 10
0.0
 20
0.0
 30
0.0
  9
$UCSORGFRONT
 10
0.0
 20
0.0
 30
0.0
  9
$UCSORGBACK
 10
0.0
 20
0.0
 30
0.0
  9
$PUCSBASE
  2

  9
$PUCSNAME
  2

  9
$PUCSORG
 10
0.0
 20
0.0
 30
0.0
  9
$PUCSXDIR
 10
1.0
 20
0.0
 30
0.0
  9
$PUCSYDIR
 10
0.0
 20
1.0
 30
0.0
  9
$PUCSORTHOREF
  2

  9
$PUCSORTHOVIEW
 70
     0
  9
$PUCSORGTOP
 10
0.0
 20
0.0
 30
0.0
  9
$PUCSORGBOTTOM
 10
0.0
 20
0.0
 30
0.0
  9
$PUCSORGLEFT
 10
0.0
 20
0.0
 30
0.0
  9
$PUCSORGRIGHT
 10
0.0
 20
0.0
 30
0.0
  9
$PUCSORGFRONT
 10
0.0
 20
0.0
 30
0.0
  9
$PUCSORGBACK
 10
0.0
 20
0.0
 30
0.0
  9
$USERI1
 70
     0
  9
$USERI2
 70
     0
  9
$USERI3
 70
     0
  9
$USERI4
 70
     0
  9
$USERI5
 70
     0
  9
$USERR1
 40
0.0
  9
$USERR2
 40
0.0
  9
$USERR3
 40
0.0
  9
$USERR4
 40
0.0
  9
$USERR5
 40
0.0
  9
$WORLDVIEW
 70
     1
  9
$SHADEDGE
 70
     3
  9
$SHADEDIF
 70
    70
  9
$TILEMODE
 70
     1
  9
$MAXACTVP
 70
    64
  9
$PINSBASE
 10
0.0
 20
0.0
 30
0.0
  9
$PLIMCHECK
 70
     0
  9
$PEXTMIN
 10
1.000000000000000E+20
 20
1.000000000000000E+20
 30
1.000000000000000E+20
  9
$PEXTMAX
 10
-1.000000000000000E+20
 20
-1.000000000000000E+20
 30
-1.000000000000000E+20
  9
$PLIMMIN
 10
0.0
 20
0.0
  9
$PLIMMAX
 10
12.0
 20
9.0
  9
$UNITMODE
 70
     0
  9
$VISRETAIN
 70
     1
  9
$PLINEGEN
 70
     0
  9
$PSLTSCALE
 70
     1
  9
$TREEDEPTH
 70
  3020
  9
$CMLSTYLE
  2
Standard
  9
$CMLJUST
 70
     0
  9
$CMLSCALE
 40
1.0
  9
$PROXYGRAPHICS
 70
     1
  9
$MEASUREMENT
 70
     0
  9
$CELWEIGHT
370
    -1
  9
$ENDCAPS
280
     0
  9
$JOINSTYLE
280
     0
  9
$LWDISPLAY
290
     1
  9
$INSUNITS
 70
     4
  9
$HYPERLINKBASE
  1

  9
$STYLESHEET
  1

  9
$XEDIT
290
     1
  9
$CEPSNTYPE
380
     0
  9
$PSTYLEMODE
290
     1
  9
$FINGERPRINTGUID
  2
{26704AAE-0F90-441F-A659-BE78C16EB152}
  9
$VERSIONGUID
  2
{FAEB1C32-E019-11D5-929B-00C0DF256EC4}
  9
$EXTNAMES
290
     1
  9
$PSVPSCALE
 40
0.0
  9
$OLESTARTUP
290
     0
  9
$SORTENTS
280
   127
  9
$INDEXCTL
280
     0
  9
$HIDETEXT
280
     1
  9
$XCLIPFRAME
280
     2
  9
$HALOGAP
280
     0
  9
$OBSCOLOR
 70
   257
  9
$OBSLTYPE
280
     0
  9
$INTERSECTIONDISPLAY
280
     0
  9
$INTERSECTIONCOLOR
 70
   257
  9
$DIMASSOC
280
     2
  9
$PROJECTNAME
  1

  9
$CAMERADISPLAY
290
     0
  9
$LENSLENGTH
 40
50.0
  9
$CAMERAHEIGHT
 40
0.0
  9
$STEPSPERSEC
 40
2.0
  9
$STEPSIZE
 40
6.0
  9
$3DDWFPREC
 40
2.0
  9
$PSOLWIDTH
 40
0.25
  9
$PSOLHEIGHT
 40
4.0
  9
$LOFTANG1
 40
1.570796326794897
  9
$LOFTANG2
 40
1.570796326794897
  9
$LOFTMAG1
 40
0.0
  9
$LOFTMAG2
 40
0.0
  9
$LOFTPARAM
 70
     7
  9
$LOFTNORMALS
280
     1
  9
$LATITUDE
 40
37.795
  9
$LONGITUDE
 40
-122.394
  9
$NORTHDIRECTION
 40
0.0
  9
$TIMEZONE
 70
 -8000
  9
$LIGHTGLYPHDISPLAY
280
     1
  9
$TILEMODELIGHTSYNCH
280
     1
  9
$CMATERIAL
347
3C
  9
$SOLIDHIST
280
     1
  9
$SHOWHIST
280
     1
  9
$DWFFRAME
280
     2
  9
$DGNFRAME
280
     2
  9
$REALWORLDSCALE
290
     1
  9
$INTERFERECOLOR
 62
   256
  9
$CSHADOW
280
     0
  9
$SHADOWPLANELOCATION
 40
0.0
  0
ENDSEC
  0
SECTION
  2
CLASSES
  0
CLASS
  1
ACDBDICTIONARYWDFLT
  2
AcDbDictionaryWithDefault
  3
ObjectDBX Classes
 90
        0
 91
        4
280
     0
281
     0
  0
CLASS
  1
VISUALSTYLE
  2
AcDbVisualStyle
  3
ObjectDBX Classes
 90
     4095
 91
        4
280
     0
281
     0
  0
CLASS
  1
MATERIAL
  2
AcDbMaterial
  3
ObjectDBX Classes
 90
     1153
 91
        4
280
     0
281
     0
  0
CLASS
  1
SUN
  2
AcDbSun
  3
SCENEOE
 90
     1024
 91
        4
280
     0
281
     0
  0
ENDSEC
  0
SECTION
  2
TABLES
  0
TABLE
  2
VPORT
  5
8
330
0
100
AcDbSymbolTable
 70
     1
  0
VPORT
  5
29
330
8
100
AcDbSymbolTableRecord
100
AcDbViewportTableRecord
  2
*Active
 70
     0
 10
0.0
 20
0.0
 11
1.0
 21
1.0
 12
0.0
 22
0.0
 13
0.0
 23
0.0
 14
0.5
 24
0.5
 15
0.5
 25
0.5
 16
0.0
 26
0.0
 36
1.0
 17
16.31597221814323
 27
22.2073613747072
 37
0.0
 40
44.41472274941439
 41
0.7347100784664182
 42
50.0
 43
0.0
 44
0.0
 50
0.0
 51
0.0
 71
     0
 72
   100
 73
     1
 74
     3
 75
     0
 76
     0
 77
     0
 78
     0
281
     0
 65
     1
110
0.0
120
0.0
130
0.0
111
1.0
121
0.0
131
0.0
112
0.0
122
1.0
132
0.0
 79
     0
146
0.0
 60
     3
 61
     5
292
     1
282
     1
141
0.0
142
0.0
 63
   250
361
3F
  0
ENDTAB
  0
TABLE
  2
LTYPE
  5
5
330
0
100
AcDbSymbolTable
 70
     1
  0
LTYPE
  5
14
330
5
100
AcDbSymbolTableRecord
100
AcDbLinetypeTableRecord
  2
ByBlock
 70
     0
  3

 72
    65
 73
     0
 40
0.0
  0
LTYPE
  5
15
330
5
100
AcDbSymbolTableRecord
100
AcDbLinetypeTableRecord
  2
ByLayer
 70
     0
  3

 72
    65
 73
     0
 40
0.0
  0
LTYPE
  5
16
330
5
100
AcDbSymbolTableRecord
100
AcDbLinetypeTableRecord
  2
Continuous
 70
     0
  3
Solid line
 72
    65
 73
     0
 40
0.0
  0
ENDTAB
  0
TABLE
  2
LAYER
  5
2
330
0
100
AcDbSymbolTable
 70
     2
  0
LAYER
  5
10
330
2
100
AcDbSymbolTableRecord
100
AcDbLayerTableRecord
  2
0
 70
     0
 62
     7
  6
Continuous
370
    -3
390
F
347
3E
  0
LAYER
  5
40
330
2
100
AcDbSymbolTableRecord
100
AcDbLayerTableRecord
  2
Layer 1
 70
     0
 62
     7
  6
Continuous
370
    -3
390
F
347
3E
  0
ENDTAB
  0
TABLE
  2
STYLE
  5
3
330
0
100
AcDbSymbolTable
 70
     1
  0
STYLE
  5
11
330
3
100
AcDbSymbolTableRecord
100
AcDbTextStyleTableRecord
  2
Standard
 70
     0
 40
0.0
 41
1.0
 50
0.0
 71
     0
 42
0.2
  3
txt
  4

  0
ENDTAB
  0
TABLE
  2
VIEW
  5
6
330
0
100
AcDbSymbolTable
 70
     0
  0
ENDTAB
  0
TABLE
  2
UCS
  5
7
330
0
100
AcDbSymbolTable
 70
     0
  0
ENDTAB
  0
TABLE
  2
APPID
  5
9
330
0
100
AcDbSymbolTable
 70
     1
  0
APPID
  5
12
330
9
100
AcDbSymbolTableRecord
100
AcDbRegAppTableRecord
  2
ACAD
 70
     0
  0
ENDTAB
  0
TABLE
  2
DIMSTYLE
  5
A
330
0
100
AcDbSymbolTable
 70
     1
100
AcDbDimStyleTable
  0
DIMSTYLE
105
27
330
A
100
AcDbSymbolTableRecord
100
AcDbDimStyleTableRecord
  2
Standard
 70
     0
178
     0
340
11
  0
ENDTAB
  0
TABLE
  2
BLOCK_RECORD
  5
1
330
0
100
AcDbSymbolTable
 70
     4
  0
BLOCK_RECORD
  5
1F
330
1
100
AcDbSymbolTableRecord
100
AcDbBlockTableRecord
  2
*Model_Space
340
22
 70
     0
280
     1
281
     0
  0
BLOCK_RECORD
  5
1B
330
1
100
AcDbSymbolTableRecord
100
AcDbBlockTableRecord
  2
*Paper_Space
340
1E
 70
     0
280
     1
281
     0
  0
BLOCK_RECORD
  5
23
330
1
100
AcDbSymbolTableRecord
100
AcDbBlockTableRecord
  2
*Paper_Space0
340
26
 70
     0
280
     1
281
     0
  0
BLOCK_RECORD
  5
41
330
1
100
AcDbSymbolTableRecord
100
AcDbBlockTableRecord
  2
block 2
340
0
102
{BLKREFS
331
42
102
}
 70
     0
280
     1
281
     0
  0
BLOCK_RECORD
  5
45
330
1
100
AcDbSymbolTableRecord
100
AcDbBlockTableRecord
  2
block 3
340
0
102
{BLKREFS
331
46
102
}
 70
     0
280
     1
281
     0
  0
BLOCK_RECORD
  5
49
330
1
100
AcDbSymbolTableRecord
100
AcDbBlockTableRecord
  2
block 4
340
0
102
{BLKREFS
331
4A
102
}
 70
     0
280
     1
281
     0
  0
ENDTAB
  0
ENDSEC
  0
SECTION
  2
BLOCKS
  0
BLOCK
  5
20
330
1F
100
AcDbEntity
  8
0
100
AcDbBlockBegin
  2
*Model_Space
 70
     0
 10
0.0
 20
0.0
 30
0.0
  3
*Model_Space
  1

  0
ENDBLK
  5
21
330
1F
100
AcDbEntity
  8
0
100
AcDbBlockEnd
  0
BLOCK
  5
1C
330
1B
100
AcDbEntity
 67
     1
  8
0
100
AcDbBlockBegin
  2
*Paper_Space
 70
     0
 10
0.0
 20
0.0
 30
0.0
  3
*Paper_Space
  1

  0
ENDBLK
  5
1D
330
1B
100
AcDbEntity
 67
     1
  8
0
100
AcDbBlockEnd
  0
BLOCK
  5
24
330
23
100
AcDbEntity
  8
0
100
AcDbBlockBegin
  2
*Paper_Space0
 70
     0
 10
0.0
 20
0.0
 30
0.0
  3
*Paper_Space0
  1

  0
ENDBLK
  5
25
330
23
100
AcDbEntity
  8
0
100
AcDbBlockEnd
  0
BLOCK
  5
43
330
41
100
AcDbEntity
  8
0
100
AcDbBlockBegin
  2
block 2
 70
     0
 10
0.0
 20
0.0
 30
0.0
  3
block 2
  1

  0
ENDBLK
  5
44
330
41
100
AcDbEntity
  8
0
100
AcDbBlockEnd
  0
BLOCK
  5
47
330
45
100
AcDbEntity
  8
0
100
AcDbBlockBegin
  2
block 3
 70
     0
 10
0.0
 20
0.0
 30
0.0
  3
block 3
  1

  0
INSERT
  5
4A
330
45
100
AcDbEntity
  8
Layer 1
100
AcDbBlockReference
  2
block 4
 10
0.0
 20
0.0
 30
0.0
  0
ENDBLK
  5
48
330
45
100
AcDbEntity
  8
0
100
AcDbBlockEnd
  0
BLOCK
  5
4B
330
49
100
AcDbEntity
  8
0
100
AcDbBlockBegin
  2
block 4
 70
     0
 10
0.0
 20
0.0
 30
0.0
  3
block 4
  1

  0
SPLINE
  5
4D
330
49
100
AcDbEntity
  8
Layer 1
370
     0
100
AcDbSpline
210
0.0
220
0.0
230
1.0
 70
    11
 71
     3
 72
    89
 73
    85
 74
     0
 42
0.0000000001
 43
0.0000000001
 12
1.0
 22
0.0
 32
0.0
 13
1.0
 23
0.0
 33
0.0
 40
0.0
 40
0.0
 40
0.0
 40
0.0
 40
1.0
 40
1.0
 40
1.0
 40
2.0
 40
2.0
 40
2.0
 40
3.0
 40
3.0
 40
3.0
 40
4.0
 40
4.0
 40
4.0
 40
5.0
 40
5.0
 40
5.0
 40
6.0
 40
6.0
 40
6.0
 40
7.0
 40
7.0
 40
7.0
 40
8.0
 40
8.0
 40
8.0
 40
9.0
 40
9.0
 40
9.0
 40
10.0
 40
10.0
 40
10.0
 40
11.0
 40
11.0
 40
11.0
 40
12.0
 40
12.0
 40
12.0
 40
13.0
 40
13.0
 40
13.0
 40
14.0
 40
14.0
 40
14.0
 40
15.0
 40
15.0
 40
15.0
 40
16.0
 40
16.0
 40
16.0
 40
17.0
 40
17.0
 40
17.0
 40
18.0
 40
18.0
 40
18.0
 40
19.0
 40
19.0
 40
19.0
 40
20.0
 40
20.0
 40
20.0
 40
21.0
 40
21.0
 40
21.0
 40
22.0
 40
22.0
 40
22.0
 40
23.0
 40
23.0
 40
23.0
 40
24.0
 40
24.0
 40
24.0
 40
25.0
 40
25.0
 40
25.0
 40
26.0
 40
26.0
 40
26.0
 40
27.0
 40
27.0
 40
27.0
 40
28.0
 40
28.0
 40
28.0
 40
28.0
 10
25.50583440354922
 20
29.77443649819216
 30
0.0
 10
25.50583440354922
 20
29.77443649819216
 30
0.0
 10
25.78805770229322
 20
29.88026956235095
 30
0.0
 10
25.78805770229322
 20
29.88026956235095
 30
0.0
 10
25.78805770229322
 20
29.88026956235095
 30
0.0
 10
25.78805770229322
 20
29.88026956235095
 30
0.0
 10
25.78805770229322
 20
29.88026956235095
 30
0.0
 10
26.65812195005476
 20
30.27206708363226
 30
0.0
 10
27.44767323973368
 20
30.82236052908185
 30
0.0
 10
28.1163904967483
 20
31.50304680142687
 30
0.0
 10
29.63333601740585
 20
33.30221360221778
 30
0.0
 10
27.83416719800429
 20
35.31304653132629
 30
0.0
 10
27.83416719800429
 20
37.2180470691462
 30
0.0
 10
27.83416719800429
 20
39.12304760696613
 30
0.0
 10
28.68083440275547
 20
40.53415804485424
 30
0.0
 10
27.9752788473763
 20
42.19221386914337
 30
0.0
 10
27.55194659074114
 20
43.25054720221212
 30
0.0
 10
26.52889049714518
 20
43.74443612462105
 30
0.0
 10
25.36472275417721
 20
43.7797138687465
 30
0.0
 10
24.38224342584346
 20
43.81988850994828
 30
0.0
 10
23.41062422273079
 20
43.56161072754617
 30
0.0
 10
22.57777777213333
 20
43.03888090567699
 30
0.0
 10
21.83694497728138
 20
42.58026989561106
 30
0.0
 10
18.23861137569954
 20
38.91138080577833
 30
0.0
 10
18.16805555101354
 20
38.91138080577833
 30
0.0
 10
18.12865900010312
 20
39.12986243647288
 30
0.0
 10
18.0168118219898
 20
39.32870264924513
 30
0.0
 10
17.85055501279675
 20
39.47582538465571
 30
0.0
 10
17.68080196998233
 20
39.61300679911963
 30
0.0
 10
17.46908604926907
 20
39.68773004546343
 30
0.0
 10
17.25083252157637
 20
39.6874921858435
 30
0.0
 10
17.25083252157637
 20
39.6874921858435
 30
0.0
 10
16.22777777372083
 20
39.6874921858435
 30
0.0
 10
16.22777777372083
 20
39.6874921858435
 30
0.0
 10
16.0656335472633
 20
39.6788643075506
 30
0.0
 10
15.90811597638321
 20
39.63039712974781
 30
0.0
 10
15.76916693187246
 20
39.54638120934171
 30
0.0
 10
15.55750080355488
 20
39.44054780874781
 30
0.0
 10
15.34583332949687
 20
39.22888134399513
 30
0.0
 10
15.34583332949687
 20
39.08777003105823
 30
0.0
 10
14.22215891588484
 20
40.73136621092738
 30
0.0
 10
12.86770885993547
 20
42.20462681059611
 30
0.0
 10
11.32416612553946
 20
43.46221425572624
 30
0.0
 10
10.52584397264761
 20
44.0279764826962
 30
0.0
 10
9.584604859605056
 20
44.35802130347702
 30
0.0
 10
8.607777641051792
 20
44.41471427230987
 30
0.0
 10
7.40833333148125
 20
44.44999205060451
 30
0.0
 10
6.385277910755501
 20
44.02665870844045
 30
0.0
 10
5.856111244221126
 20
43.00360316155154
 30
0.0
 10
5.044722288248063
 20
41.41610316194841
 30
0.0
 10
5.750278180062335
 20
39.6522142735005
 30
0.0
 10
5.644444443033334
 20
38.02943636155437
 30
0.0
 10
5.538610706004332
 20
36.40665844960824
 30
0.0
 10
3.563055689238834
 20
34.25471454399796
 30
0.0
 10
4.938888887654167
 20
32.34971400617804
 30
0.0
 10
5.715000267719335
 20
31.46776956195408
 30
0.0
 10
6.526388887257292
 20
30.65638094241612
 30
0.0
 10
7.655278045012044
 20
30.30360316472654
 30
0.0
 10
7.655278045012044
 20
30.30360316472654
 30
0.0
 10
7.690555957355044
 20
30.30360316472654
 30
0.0
 10
7.690555957355044
 20
30.30360316472654
 30
0.0
 10
7.690555957355044
 20
30.30360316472654
 30
0.0
 10
7.796389021513835
 20
30.23304734004054
 30
0.0
 10
7.796389021513835
 20
30.23304734004054
 30
0.0
 10
2.954694553802172
 20
27.25660461168241
 30
0.0
 10
0.0034423570217651
 20
21.98174086127179
 30
0.0
 10
0.0
 20
16.29832646704242
 30
0.0
 10
-0.0066673657943693
 20
12.92280307022869
 30
0.0
 10
1.041735475332709
 20
9.629585157742264
 30
0.0
 10
2.998611110361459
 20
6.879160879322883
 30
0.0
 10
2.998611110361459
 20
6.879160879322883
 30
0.0
 10
3.421944376301937
 20
6.31471428183487
 30
0.0
 10
3.421944376301937
 20
6.31471428183487
 30
0.0
 10
3.421944376301937
 20
6.31471428183487
 30
0.0
 10
3.421944376301937
 20
6.31471428183487
 30
0.0
 10
3.421944376301937
 20
6.31471428183487
 30
0.0
 10
8.963561129978213
 20
-0.7785381527118033
 30
0.0
 10
19.20614894810645
 20
-2.03639096103178
 30
0.0
 10
26.29940407413397
 20
3.505225456209389
 30
0.0
 10
33.3926592001615
 20
9.046841873450559
 30
0.0
 10
34.65050931700063
 20
19.28943103731922
 30
0.0
 10
29.10889289975945
 20
26.38268481760632
 30
0.0
 10
28.08750283280831
 20
27.69006221926719
 30
0.0
 10
26.87248225070104
 20
28.83382584592759
 30
0.0
 10
25.50583440354922
 20
29.77443649819216
 30
0.0
  0
POLYLINE
  5
4E
330
49
100
AcDbEntity
  8
Layer 1
370
     0
100
AcDb2dPolyline
 66
     1
 10
0.0
 20
0.0
 30
0.0
  0
VERTEX
  5
4F
330
4E
100
AcDbEntity
  8
Layer 1
370
     0
100
AcDbVertex
100
AcDb2dVertex
 10
27.58722383021393
 20
18.6266592614975
 30
0.0
  0
VERTEX
  5
50
330
4E
100
AcDbEntity
  8
Layer 1
370
     0
100
AcDbVertex
100
AcDb2dVertex
 10
27.02277992420676
 20
18.06221535549033
 30
0.0
  0
VERTEX
  5
51
330
4E
100
AcDbEntity
  8
Layer 1
370
     0
100
AcDbVertex
100
AcDb2dVertex
 10
25.92916935166522
 20
17.95638094559112
 30
0.0
  0
VERTEX
  5
52
330
4E
100
AcDbEntity
  8
Layer 1
370
     0
100
AcDbVertex
100
AcDb2dVertex
 10
26.77583655641639
 20
18.6266592614975
 30
0.0
  0
VERTEX
  5
53
330
4E
100
AcDbEntity
  8
Layer 1
370
     0
100
AcDbVertex
100
AcDb2dVertex
 10
27.58722383021393
 20
18.6266592614975
 30
0.0
  0
SEQEND
  5
54
330
4E
100
AcDbEntity
  8
Layer 1
370
     0
  0
POLYLINE
  5
55
330
49
100
AcDbEntity
  8
Layer 1
370
     0
100
AcDb2dPolyline
 66
     1
 10
0.0
 20
0.0
 30
0.0
  0
VERTEX
  5
56
330
55
100
AcDbEntity
  8
Layer 1
370
     0
100
AcDbVertex
100
AcDb2dVertex
 10
25.92916935166522
 20
19.57915818466704
 30
0.0
  0
VERTEX
  5
57
330
55
100
AcDbEntity
  8
Layer 1
370
     0
100
AcDbVertex
100
AcDb2dVertex
 10
27.02277992420676
 20
19.47332377476782
 30
0.0
  0
VERTEX
  5
58
330
55
100
AcDbEntity
  8
Layer 1
370
     0
100
AcDbVertex
100
AcDb2dVertex
 10
27.58722383021393
 20
18.90887986876066
 30
0.0
  0
VERTEX
  5
59
330
55
100
AcDbEntity
  8
Layer 1
370
     0
100
AcDbVertex
100
AcDb2dVertex
 10
26.77583386493555
 20
18.90887986876066
 30
0.0
  0
VERTEX
  5
5A
330
55
100
AcDbEntity
  8
Layer 1
370
     0
100
AcDbVertex
100
AcDb2dVertex
 10
25.92916935166522
 20
19.57915818466704
 30
0.0
  0
SEQEND
  5
5B
330
55
100
AcDbEntity
  8
Layer 1
370
     0
  0
POLYLINE
  5
5C
330
49
100
AcDbEntity
  8
Layer 1
370
     0
100
AcDb2dPolyline
 66
     1
 10
0.0
 20
0.0
 30
0.0
  0
VERTEX
  5
5D
330
5C
100
AcDbEntity
  8
Layer 1
370
     0
100
AcDbVertex
100
AcDb2dVertex
 10
27.19916881305155
 20
17.8858237751647
 30
0.0
  0
VERTEX
  5
5E
330
5C
100
AcDbEntity
  8
Layer 1
370
     0
100
AcDbVertex
100
AcDb2dVertex
 10
27.76361271905872
 20
18.45026768117186
 30
0.0
  0
VERTEX
  5
5F
330
5C
100
AcDbEntity
  8
Layer 1
370
     0
100
AcDbVertex
100
AcDb2dVertex
 10
27.76361271905872
 20
17.63887771589348
 30
0.0
  0
VERTEX
  5
60
330
5C
100
AcDbEntity
  8
Layer 1
370
     0
100
AcDbVertex
100
AcDb2dVertex
 10
27.09333440315234
 20
16.8274877506151
 30
0.0
  0
VERTEX
  5
61
330
5C
100
AcDbEntity
  8
Layer 1
370
     0
100
AcDbVertex
100
AcDb2dVertex
 10
27.19916881305155
 20
17.8858237751647
 30
0.0
  0
SEQEND
  5
62
330
5C
100
AcDbEntity
  8
Layer 1
370
     0
  0
POLYLINE
  5
63
330
49
100
AcDbEntity
  8
Layer 1
370
     0
100
AcDb2dPolyline
 66
     1
 10
0.0
 20
0.0
 30
0.0
  0
VERTEX
  5
64
330
63
100
AcDbEntity
  8
Layer 1
370
     0
100
AcDbVertex
100
AcDb2dVertex
 10
27.19916881305155
 20
19.64971266361261
 30
0.0
  0
VERTEX
  5
65
330
63
100
AcDbEntity
  8
Layer 1
370
     0
100
AcDbVertex
100
AcDb2dVertex
 10
27.09333440315234
 20
20.74332323615415
 30
0.0
  0
VERTEX
  5
66
330
63
100
AcDbEntity
  8
Layer 1
370
     0
100
AcDbVertex
100
AcDb2dVertex
 10
27.76361271905872
 20
19.89665603140298
 30
0.0
  0
VERTEX
  5
67
330
63
100
AcDbEntity
  8
Layer 1
370
     0
100
AcDbVertex
100
AcDb2dVertex
 10
27.76361271905872
 20
19.0852660661246
 30
0.0
  0
VERTEX
  5
68
330
63
100
AcDbEntity
  8
Layer 1
370
     0
100
AcDbVertex
100
AcDb2dVertex
 10
27.19916881305155
 20
19.64971266361261
 30
0.0
  0
SEQEND
  5
69
330
63
100
AcDbEntity
  8
Layer 1
370
     0
  0
POLYLINE
  5
6A
330
49
100
AcDbEntity
  8
Layer 1
370
     0
100
AcDb2dPolyline
 66
     1
 10
0.0
 20
0.0
 30
0.0
  0
VERTEX
  5
6B
330
6A
100
AcDbEntity
  8
Layer 1
370
     0
100
AcDbVertex
100
AcDb2dVertex
 10
27.23444605252434
 20
20.95498936447173
 30
0.0
  0
VERTEX
  5
6C
330
6A
100
AcDbEntity
  8
Layer 1
370
     0
100
AcDbVertex
100
AcDb2dVertex
 10
27.55194659074114
 20
21.09610101384374
 30
0.0
  0
VERTEX
  5
6D
330
6A
100
AcDbEntity
  8
Layer 1
370
     0
100
AcDbVertex
100
AcDb2dVertex
 10
27.76361271905872
 20
21.27248990268853
 30
0.0
  0
VERTEX
  5
6E
330
6A
100
AcDbEntity
  8
Layer 1
370
     0
100
AcDbVertex
100
AcDb2dVertex
 10
27.76361271905872
 20
20.28471104856536
 30
0.0
  0
VERTEX
  5
6F
330
6A
100
AcDbEntity
  8
Layer 1
370
     0
100
AcDbVertex
100
AcDb2dVertex
 10
27.23444605252434
 20
20.95498936447173
 30
0.0
  0
SEQEND
  5
70
330
6A
100
AcDbEntity
  8
Layer 1
370
     0
  0
SPLINE
  5
71
330
49
100
AcDbEntity
  8
Layer 1
370
     0
100
AcDbSpline
210
0.0
220
0.0
230
1.0
 70
    11
 71
     3
 72
    17
 73
    13
 74
     0
 42
0.0000000001
 43
0.0000000001
 12
1.0
 22
0.0
 32
0.0
 13
1.0
 23
0.0
 33
0.0
 40
0.0
 40
0.0
 40
0.0
 40
0.0
 40
1.0
 40
1.0
 40
1.0
 40
2.0
 40
2.0
 40
2.0
 40
3.0
 40
3.0
 40
3.0
 40
4.0
 40
4.0
 40
4.0
 40
4.0
 10
28.96305770149947
 20
23.00110020592323
 30
0.0
 10
28.96305770149947
 20
23.00110020592323
 30
0.0
 10
29.28055823971627
 20
22.33082189001685
 30
0.0
 10
29.28055823971627
 20
22.33082189001685
 30
0.0
 10
29.10416935087147
 20
22.08387717648606
 30
0.0
 10
28.96305770149947
 20
21.97804411232727
 30
0.0
 10
28.82194605212747
 20
21.97804411232727
 30
0.0
 10
28.69822675199428
 20
21.97677507910751
 30
0.0
 10
28.59266687314155
 20
22.06725728225058
 30
0.0
 10
28.57499999285625
 20
22.18971427786612
 30
0.0
 10
28.73948715339185
 20
22.44192621941616
 30
0.0
 10
28.86996476193399
 20
22.71474548407777
 30
0.0
 10
28.96305770149947
 20
23.00110020592323
 30
0.0
  0
SPLINE
  5
72
330
49
100
AcDbEntity
  8
Layer 1
370
     0
100
AcDbSpline
210
0.0
220
0.0
230
1.0
 70
    11
 71
     3
 72
    53
 73
    49
 74
     0
 42
0.0000000001
 43
0.0000000001
 12
1.0
 22
0.0
 32
0.0
 13
1.0
 23
0.0
 33
0.0
 40
0.0
 40
0.0
 40
0.0
 40
0.0
 40
1.0
 40
1.0
 40
1.0
 40
2.0
 40
2.0
 40
2.0
 40
3.0
 40
3.0
 40
3.0
 40
4.0
 40
4.0
 40
4.0
 40
5.0
 40
5.0
 40
5.0
 40
6.0
 40
6.0
 40
6.0
 40
7.0
 40
7.0
 40
7.0
 40
8.0
 40
8.0
 40
8.0
 40
9.0
 40
9.0
 40
9.0
 40
10.0
 40
10.0
 40
10.0
 40
11.0
 40
11.0
 40
11.0
 40
12.0
 40
12.0
 40
12.0
 40
13.0
 40
13.0
 40
13.0
 40
14.0
 40
14.0
 40
14.0
 40
15.0
 40
15.0
 40
15.0
 40
16.0
 40
16.0
 40
16.0
 40
16.0
 10
28.78666881265468
 20
21.58998774942447
 30
0.0
 10
28.94638397764703
 20
21.58622505919918
 30
0.0
 10
29.10021018254428
 20
21.65031998410991
 30
0.0
 10
29.21000106928984
 20
21.76637663826926
 30
0.0
 10
29.21000106928984
 20
21.76637663826926
 30
0.0
 10
29.42166719760742
 20
21.97804276658685
 30
0.0
 10
29.42166719760742
 20
21.97804276658685
 30
0.0
 10
29.57214789181079
 20
21.68167842746823
 30
0.0
 10
29.70181267313689
 20
21.37519681184254
 30
0.0
 10
29.80972221476979
 20
21.0608210828901
 30
0.0
 10
29.80972221476979
 20
21.0608210828901
 30
0.0
 10
29.774444975297
 20
21.0608210828901
 30
0.0
 10
29.774444975297
 20
21.0608210828901
 30
0.0
 10
29.70051807084907
 20
20.98704759285049
 30
0.0
 10
29.67337717797934
 20
20.87848132989071
 30
0.0
 10
29.70389049635143
 20
20.77859778414609
 30
0.0
 10
29.70389049635143
 20
20.77859778414609
 30
0.0
 10
28.89250053107305
 20
19.96720781886771
 30
0.0
 10
28.89250053107305
 20
19.96720781886771
 30
0.0
 10
28.89250053107305
 20
19.96720781886771
 30
0.0
 10
28.99833494097226
 20
21.13137556183568
 30
0.0
 10
28.99833494097226
 20
21.13137556183568
 30
0.0
 10
28.99833494097226
 20
21.20193004078125
 30
0.0
 10
28.96305770149947
 20
21.27248721120768
 30
0.0
 10
28.92778046202668
 20
21.27248721120768
 30
0.0
 10
28.92778046202668
 20
21.27248721120768
 30
0.0
 10
28.75139157318189
 20
21.27248721120768
 30
0.0
 10
28.75139157318189
 20
21.27248721120768
 30
0.0
 10
28.75139157318189
 20
21.27248721120768
 30
0.0
 10
28.01055877832994
 20
20.35526552751093
 30
0.0
 10
28.01055877832994
 20
20.35526552751093
 30
0.0
 10
28.01055877832994
 20
20.35526552751093
 30
0.0
 10
28.01055877832994
 20
21.44888148301417
 30
0.0
 10
28.01055877832994
 20
21.44888148301417
 30
0.0
 10
28.10644816649634
 20
21.46607197118939
 30
0.0
 10
28.17024433703296
 20
21.55773842590552
 30
0.0
 10
28.15305384885773
 20
21.65362781407192
 30
0.0
 10
28.15263936080716
 20
21.65594248760107
 30
0.0
 10
28.15217911758218
 20
21.65825177816853
 30
0.0
 10
28.15167042770194
 20
21.66054761133175
 30
0.0
 10
28.21432271887823
 20
21.68882969208097
 30
0.0
 10
28.26449999632472
 20
21.73900696952746
 30
0.0
 10
28.29278207707394
 20
21.80165926070375
 30
0.0
 10
28.41797630871175
 20
21.66149501259019
 30
0.0
 10
28.59882767280228
 20
21.58398574713376
 30
0.0
 10
28.78666612117383
 20
21.58999313238617
 30
0.0
 10
28.78666612117383
 20
21.58999313238617
 30
0.0
 10
28.78666881265468
 20
21.58998774942447
 30
0.0
 10
28.78666881265468
 20
21.58998774942447
 30
0.0
  0
SPLINE
  5
73
330
49
100
AcDbEntity
  8
Layer 1
370
     0
100
AcDbSpline
210
0.0
220
0.0
230
1.0
 70
    11
 71
     3
 72
    20
 73
    16
 74
     0
 42
0.0000000001
 43
0.0000000001
 12
1.0
 22
0.0
 32
0.0
 13
1.0
 23
0.0
 33
0.0
 40
0.0
 40
0.0
 40
0.0
 40
0.0
 40
1.0
 40
1.0
 40
1.0
 40
2.0
 40
2.0
 40
2.0
 40
3.0
 40
3.0
 40
3.0
 40
4.0
 40
4.0
 40
4.0
 40
5.0
 40
5.0
 40
5.0
 40
5.0
 10
30.16250268394023
 20
19.86137610044934
 30
0.0
 10
30.16250268394023
 20
19.86137610044934
 30
0.0
 10
29.06889211139869
 20
19.75554169055013
 30
0.0
 10
29.06889211139869
 20
19.75554169055013
 30
0.0
 10
29.06889211139869
 20
19.75554169055013
 30
0.0
 10
29.88028207667707
 20
20.56693165582851
 30
0.0
 10
29.88028207667707
 20
20.56693165582851
 30
0.0
 10
29.88028207667707
 20
20.56693165582851
 30
0.0
 10
29.98611110361459
 20
20.56693165582851
 30
0.0
 10
29.98611110361459
 20
20.56693165582851
 30
0.0
 10
30.05666558256016
 20
20.35527091047263
 30
0.0
 10
30.0919455135138
 20
20.10832485120141
 30
0.0
 10
30.16249999245938
 20
19.86138148341104
 30
0.0
 10
30.16249999245938
 20
19.86138148341104
 30
0.0
 10
30.16250268394023
 20
19.86137610044934
 30
0.0
 10
30.16250268394023
 20
19.86137610044934
 30
0.0
  0
POLYLINE
  5
74
330
49
100
AcDbEntity
  8
Layer 1
370
     0
100
AcDb2dPolyline
 66
     1
 10
0.0
 20
0.0
 30
0.0
  0
VERTEX
  5
75
330
74
100
AcDbEntity
  8
Layer 1
370
     0
100
AcDbVertex
100
AcDb2dVertex
 10
28.7161143337091
 20
20.7433205446733
 30
0.0
  0
VERTEX
  5
76
330
74
100
AcDbEntity
  8
Layer 1
370
     0
100
AcDbVertex
100
AcDb2dVertex
 10
28.57499999285625
 20
19.64971535509346
 30
0.0
  0
VERTEX
  5
77
330
74
100
AcDbEntity
  8
Layer 1
370
     0
100
AcDbVertex
100
AcDb2dVertex
 10
28.01055608684909
 20
19.0852714490863
 30
0.0
  0
VERTEX
  5
78
330
74
100
AcDbEntity
  8
Layer 1
370
     0
100
AcDbVertex
100
AcDb2dVertex
 10
28.01055608684909
 20
19.89665872288383
 30
0.0
  0
VERTEX
  5
79
330
74
100
AcDbEntity
  8
Layer 1
370
     0
100
AcDbVertex
100
AcDb2dVertex
 10
28.7161143337091
 20
20.7433205446733
 30
0.0
  0
SEQEND
  5
7A
330
74
100
AcDbEntity
  8
Layer 1
370
     0
  0
POLYLINE
  5
7B
330
49
100
AcDbEntity
  8
Layer 1
370
     0
100
AcDb2dPolyline
 66
     1
 10
0.0
 20
0.0
 30
0.0
  0
VERTEX
  5
7C
330
7B
100
AcDbEntity
  8
Layer 1
370
     0
100
AcDbVertex
100
AcDb2dVertex
 10
28.01055877832994
 20
18.45026498969101
 30
0.0
  0
VERTEX
  5
7D
330
7B
100
AcDbEntity
  8
Layer 1
370
     0
100
AcDbVertex
100
AcDb2dVertex
 10
28.57499999285625
 20
17.88582646664554
 30
0.0
  0
VERTEX
  5
7E
330
7B
100
AcDbEntity
  8
Layer 1
370
     0
100
AcDbVertex
100
AcDb2dVertex
 10
28.71611164222825
 20
16.82749313357679
 30
0.0
  0
VERTEX
  5
7F
330
7B
100
AcDbEntity
  8
Layer 1
370
     0
100
AcDbVertex
100
AcDb2dVertex
 10
28.01055608684909
 20
17.63888309885517
 30
0.0
  0
VERTEX
  5
80
330
7B
100
AcDbEntity
  8
Layer 1
370
     0
100
AcDbVertex
100
AcDb2dVertex
 10
28.01055877832994
 20
18.45026498969101
 30
0.0
  0
SEQEND
  5
81
330
7B
100
AcDbEntity
  8
Layer 1
370
     0
  0
POLYLINE
  5
82
330
49
100
AcDbEntity
  8
Layer 1
370
     0
100
AcDb2dPolyline
 66
     1
 10
0.0
 20
0.0
 30
0.0
  0
VERTEX
  5
83
330
82
100
AcDbEntity
  8
Layer 1
370
     0
100
AcDbVertex
100
AcDb2dVertex
 10
28.18694766717473
 20
18.62665387853581
 30
0.0
  0
VERTEX
  5
84
330
82
100
AcDbEntity
  8
Layer 1
370
     0
100
AcDbVertex
100
AcDb2dVertex
 10
28.99833763245311
 20
18.62665387853581
 30
0.0
  0
VERTEX
  5
85
330
82
100
AcDbEntity
  8
Layer 1
370
     0
100
AcDbVertex
100
AcDb2dVertex
 10
29.84499945424258
 20
17.95638094559112
 30
0.0
  0
VERTEX
  5
86
330
82
100
AcDbEntity
  8
Layer 1
370
     0
100
AcDbVertex
100
AcDb2dVertex
 10
28.78666612117383
 20
18.06221535549033
 30
0.0
  0
VERTEX
  5
87
330
82
100
AcDbEntity
  8
Layer 1
370
     0
100
AcDbVertex
100
AcDb2dVertex
 10
28.18694766717473
 20
18.62665387853581
 30
0.0
  0
SEQEND
  5
88
330
82
100
AcDbEntity
  8
Layer 1
370
     0
  0
POLYLINE
  5
89
330
49
100
AcDbEntity
  8
Layer 1
370
     0
100
AcDb2dPolyline
 66
     1
 10
0.0
 20
0.0
 30
0.0
  0
VERTEX
  5
8A
330
89
100
AcDbEntity
  8
Layer 1
370
     0
100
AcDbVertex
100
AcDb2dVertex
 10
28.18694766717473
 20
18.90887717727981
 30
0.0
  0
VERTEX
  5
8B
330
89
100
AcDbEntity
  8
Layer 1
370
     0
100
AcDbVertex
100
AcDb2dVertex
 10
28.78666881265468
 20
19.47332108328697
 30
0.0
  0
VERTEX
  5
8C
330
89
100
AcDbEntity
  8
Layer 1
370
     0
100
AcDbVertex
100
AcDb2dVertex
 10
29.84500214572343
 20
19.57915549318619
 30
0.0
  0
VERTEX
  5
8D
330
89
100
AcDbEntity
  8
Layer 1
370
     0
100
AcDbVertex
100
AcDb2dVertex
 10
28.99833494097226
 20
18.90887717727981
 30
0.0
  0
VERTEX
  5
8E
330
89
100
AcDbEntity
  8
Layer 1
370
     0
100
AcDbVertex
100
AcDb2dVertex
 10
28.18694766717473
 20
18.90887717727981
 30
0.0
  0
SEQEND
  5
8F
330
89
100
AcDbEntity
  8
Layer 1
370
     0
  0
SPLINE
  5
90
330
49
100
AcDbEntity
  8
Layer 1
370
     0
100
AcDbSpline
210
0.0
220
0.0
230
1.0
 70
    11
 71
     3
 72
    14
 73
    10
 74
     0
 42
0.0000000001
 43
0.0000000001
 12
1.0
 22
0.0
 32
0.0
 13
1.0
 23
0.0
 33
0.0
 40
0.0
 40
0.0
 40
0.0
 40
0.0
 40
1.0
 40
1.0
 40
1.0
 40
2.0
 40
2.0
 40
2.0
 40
3.0
 40
3.0
 40
3.0
 40
3.0
 10
30.23305985436665
 20
19.57915549318619
 30
0.0
 10
30.29345668459244
 20
19.35875281803648
 30
0.0
 10
30.34057913127662
 20
19.13492388776746
 30
0.0
 10
30.37417150373865
 20
18.90887717727981
 30
0.0
 10
30.37417150373865
 20
18.90887717727981
 30
0.0
 10
29.42166719760742
 20
18.90887717727981
 30
0.0
 10
29.42166719760742
 20
18.90887717727981
 30
0.0
 10
29.42166719760742
 20
18.90887717727981
 30
0.0
 10
30.23305985436665
 20
19.57915549318619
 30
0.0
 10
30.23305985436665
 20
19.57915549318619
 30
0.0
  0
SPLINE
  5
91
330
49
100
AcDbEntity
  8
Layer 1
370
     0
100
AcDbSpline
210
0.0
220
0.0
230
1.0
 70
    11
 71
     3
 72
    14
 73
    10
 74
     0
 42
0.0000000001
 43
0.0000000001
 12
1.0
 22
0.0
 32
0.0
 13
1.0
 23
0.0
 33
0.0
 40
0.0
 40
0.0
 40
0.0
 40
0.0
 40
1.0
 40
1.0
 40
1.0
 40
2.0
 40
2.0
 40
2.0
 40
3.0
 40
3.0
 40
3.0
 40
3.0
 10
24.83555608764284
 20
42.6861031279874
 30
0.0
 10
26.17611271945559
 20
43.10943647803666
 30
0.0
 10
26.66999945503633
 20
42.05110322907669
 30
0.0
 10
26.10555554902917
 20
40.78110309482015
 30
0.0
 10
24.54103810438585
 20
39.43192665915704
 30
0.0
 10
22.56124400528498
 20
38.65993189904866
 30
0.0
 10
20.49638834546862
 20
38.59388094043175
 30
0.0
 10
21.27489918070965
 20
40.52676353765987
 30
0.0
 10
22.86042363337045
 20
42.02205340341561
 30
0.0
 10
24.83555608764284
 20
42.6861031279874
 30
0.0
  0
SPLINE
  5
92
330
49
100
AcDbEntity
  8
Layer 1
370
     0
100
AcDbSpline
210
0.0
220
0.0
230
1.0
 70
    11
 71
     3
 72
    26
 73
    22
 74
     0
 42
0.0000000001
 43
0.0000000001
 12
1.0
 22
0.0
 32
0.0
 13
1.0
 23
0.0
 33
0.0
 40
0.0
 40
0.0
 40
0.0
 40
0.0
 40
1.0
 40
1.0
 40
1.0
 40
2.0
 40
2.0
 40
2.0
 40
3.0
 40
3.0
 40
3.0
 40
4.0
 40
4.0
 40
4.0
 40
5.0
 40
5.0
 40
5.0
 40
6.0
 40
6.0
 40
6.0
 40
7.0
 40
7.0
 40
7.0
 40
7.0
 10
21.48416719959179
 20
31.99693622848845
 30
0.0
 10
21.48416719959179
 20
31.99693622848845
 30
0.0
 10
21.5547230242778
 20
31.89110316432966
 30
0.0
 10
21.5547230242778
 20
31.89110316432966
 30
0.0
 10
21.52892652609156
 20
31.86216839947484
 30
0.0
 10
21.51616890687275
 20
31.82389554181839
 30
0.0
 10
21.51944578480501
 20
31.78527010017087
 30
0.0
 10
20.82434259529847
 20
32.01063182878275
 30
0.0
 10
20.11779926644815
 20
32.19904221683446
 30
0.0
 10
19.40277911866751
 20
32.34971400617804
 30
0.0
 10
19.29694605450872
 20
32.49082565555004
 30
0.0
 10
19.22639022982272
 20
32.66721454439483
 30
0.0
 10
19.12055716566393
 20
32.84360343323962
 30
0.0
 10
19.12055716566393
 20
32.84360343323962
 30
0.0
 10
19.08527992619114
 20
32.84360343323962
 30
0.0
 10
19.08527992619114
 20
32.84360343323962
 30
0.0
 10
18.78255965505032
 20
33.47601328648695
 30
0.0
 10
18.54611440830699
 20
34.13805970822017
 30
0.0
 10
18.37972437081197
 20
34.81915912287533
 30
0.0
 10
18.37972437081197
 20
34.81915912287533
 30
0.0
 10
21.48416719959179
 20
31.99693622848845
 30
0.0
 10
21.48416719959179
 20
31.99693622848845
 30
0.0
  0
SPLINE
  5
93
330
49
100
AcDbEntity
  8
Layer 1
370
     0
100
AcDbSpline
210
0.0
220
0.0
230
1.0
 70
    11
 71
     3
 72
    29
 73
    25
 74
     0
 42
0.0000000001
 43
0.0000000001
 12
1.0
 22
0.0
 32
0.0
 13
1.0
 23
0.0
 33
0.0
 40
0.0
 40
0.0
 40
0.0
 40
0.0
 40
1.0
 40
1.0
 40
1.0
 40
2.0
 40
2.0
 40
2.0
 40
3.0
 40
3.0
 40
3.0
 40
4.0
 40
4.0
 40
4.0
 40
5.0
 40
5.0
 40
5.0
 40
6.0
 40
6.0
 40
6.0
 40
7.0
 40
7.0
 40
7.0
 40
8.0
 40
8.0
 40
8.0
 40
8.0
 10
16.22777777372083
 20
38.31165898742817
 30
0.0
 10
16.38176143024769
 20
38.45208296344354
 30
0.0
 10
16.58387280155539
 20
38.52787439124883
 30
0.0
 10
16.792221679728
 20
38.52332578861596
 30
0.0
 10
16.99314476224138
 20
38.50953598649199
 30
0.0
 10
17.18175970283754
 20
38.42151581545449
 30
0.0
 10
17.32138834626237
 20
38.27638107508516
 30
0.0
 10
17.46181232227775
 20
38.1223967456881
 30
0.0
 10
17.53760307721282
 20
37.92028537438039
 30
0.0
 10
17.53305447457995
 20
37.71193649620779
 30
0.0
 10
17.52666086182588
 20
37.50917715088596
 30
0.0
 10
17.43740328246858
 20
37.31790908304404
 30
0.0
 10
17.28610976104916
 20
37.18276982967341
 30
0.0
 10
17.12866351441155
 20
37.04810696841286
 30
0.0
 10
16.92883451886282
 20
36.97317143151719
 30
0.0
 10
16.721665855042
 20
36.97110302848562
 30
0.0
 10
16.51890583684996
 20
36.97749596836948
 30
0.0
 10
16.32763844187824
 20
37.06675422059699
 30
0.0
 10
16.19249918850762
 20
37.21804774201642
 30
0.0
 10
16.03654402225972
 20
37.36206282635304
 30
0.0
 10
15.95802679722577
 20
37.57144186882016
 30
0.0
 10
15.98083306019004
 20
37.78249232089379
 30
0.0
 10
15.97235085829804
 20
37.988513068133
 30
0.0
 10
16.06443045532431
 20
38.18582552908899
 30
0.0
 10
16.22777777372083
 20
38.31165898742817
 30
0.0
  0
SPLINE
  5
94
330
49
100
AcDbEntity
  8
Layer 1
370
     0
100
AcDbSpline
210
0.0
220
0.0
230
1.0
 70
    11
 71
     3
 72
    14
 73
    10
 74
     0
 42
0.0000000001
 43
0.0000000001
 12
1.0
 22
0.0
 32
0.0
 13
1.0
 23
0.0
 33
0.0
 40
0.0
 40
0.0
 40
0.0
 40
0.0
 40
1.0
 40
1.0
 40
1.0
 40
2.0
 40
2.0
 40
2.0
 40
3.0
 40
3.0
 40
3.0
 40
3.0
 10
7.655278045012044
 20
41.48665898663442
 30
0.0
 10
7.16138929082067
 20
42.79193669679885
 30
0.0
 10
7.761111109170834
 20
43.77971454161671
 30
0.0
 10
9.031111243427375
 20
43.25054787508233
 30
0.0
 10
10.96478345384925
 20
42.47643121876053
 30
0.0
 10
12.44359741959486
 20
40.86789729633144
 30
0.0
 10
13.05277777451458
 20
38.87610322987044
 30
0.0
 10
11.00312629000774
 20
39.08634220046844
 30
0.0
 10
9.092600142007178
 20
40.01038779741981
 30
0.0
 10
7.655278045012044
 20
41.48665898663442
 30
0.0
  0
SPLINE
  5
95
330
49
100
AcDbEntity
  8
Layer 1
370
     0
100
AcDbSpline
210
0.0
220
0.0
230
1.0
 70
    11
 71
     3
 72
    29
 73
    25
 74
     0
 42
0.0000000001
 43
0.0000000001
 12
1.0
 22
0.0
 32
0.0
 13
1.0
 23
0.0
 33
0.0
 40
0.0
 40
0.0
 40
0.0
 40
0.0
 40
1.0
 40
1.0
 40
1.0
 40
2.0
 40
2.0
 40
2.0
 40
3.0
 40
3.0
 40
3.0
 40
4.0
 40
4.0
 40
4.0
 40
5.0
 40
5.0
 40
5.0
 40
6.0
 40
6.0
 40
6.0
 40
7.0
 40
7.0
 40
7.0
 40
8.0
 40
8.0
 40
8.0
 40
8.0
 10
15.02833279128008
 20
34.92499218703412
 30
0.0
 10
14.80784264300282
 20
34.19559684004511
 30
0.0
 10
14.47455118665168
 20
33.50520508776274
 30
0.0
 10
14.04055528289733
 20
32.87888067271241
 30
0.0
 10
14.04055528289733
 20
32.87888067271241
 30
0.0
 10
14.04055528289733
 20
32.87888067271241
 30
0.0
 10
14.04055528289733
 20
32.87888067271241
 30
0.0
 10
14.04055528289733
 20
32.84360343323962
 30
0.0
 10
14.00527804342454
 20
32.84360343323962
 30
0.0
 10
14.00527804342454
 20
32.80832484802641
 30
0.0
 10
14.00527804342454
 20
32.80832484802641
 30
0.0
 10
13.72305609042096
 20
32.45554707033683
 30
0.0
 10
13.72305609042096
 20
32.45554707033683
 30
0.0
 10
12.98277235766197
 20
32.3452286533451
 30
0.0
 10
12.2516921436622
 20
32.1801453298017
 30
0.0
 10
11.53583359959746
 20
31.96165764327524
 30
0.0
 10
11.53583359959746
 20
31.96165764327524
 30
0.0
 10
11.53583359959746
 20
32.03221346796124
 30
0.0
 10
11.53583359959746
 20
32.03221346796124
 30
0.0
 10
11.53583359959746
 20
32.03221346796124
 30
0.0
 10
11.74749972791504
 20
32.34971400617804
 30
0.0
 10
11.74749972791504
 20
32.34971400617804
 30
0.0
 10
11.74749972791504
 20
32.34971400617804
 30
0.0
 10
15.02833279128008
 20
34.92499218703412
 30
0.0
 10
15.02833279128008
 20
34.92499218703412
 30
0.0
  0
SPLINE
  5
96
330
49
100
AcDbEntity
  8
Layer 1
370
     0
100
AcDbSpline
210
0.0
220
0.0
230
1.0
 70
    11
 71
     3
 72
   419
 73
   415
 74
     0
 42
0.0000000001
 43
0.0000000001
 12
1.0
 22
0.0
 32
0.0
 13
1.0
 23
0.0
 33
0.0
 40
0.0
 40
0.0
 40
0.0
 40
0.0
 40
1.0
 40
1.0
 40
1.0
 40
2.0
 40
2.0
 40
2.0
 40
3.0
 40
3.0
 40
3.0
 40
4.0
 40
4.0
 40
4.0
 40
5.0
 40
5.0
 40
5.0
 40
6.0
 40
6.0
 40
6.0
 40
7.0
 40
7.0
 40
7.0
 40
8.0
 40
8.0
 40
8.0
 40
9.0
 40
9.0
 40
9.0
 40
10.0
 40
10.0
 40
10.0
 40
11.0
 40
11.0
 40
11.0
 40
12.0
 40
12.0
 40
12.0
 40
13.0
 40
13.0
 40
13.0
 40
14.0
 40
14.0
 40
14.0
 40
15.0
 40
15.0
 40
15.0
 40
16.0
 40
16.0
 40
16.0
 40
17.0
 40
17.0
 40
17.0
 40
18.0
 40
18.0
 40
18.0
 40
19.0
 40
19.0
 40
19.0
 40
20.0
 40
20.0
 40
20.0
 40
21.0
 40
21.0
 40
21.0
 40
22.0
 40
22.0
 40
22.0
 40
23.0
 40
23.0
 40
23.0
 40
24.0
 40
24.0
 40
24.0
 40
25.0
 40
25.0
 40
25.0
 40
26.0
 40
26.0
 40
26.0
 40
27.0
 40
27.0
 40
27.0
 40
28.0
 40
28.0
 40
28.0
 40
29.0
 40
29.0
 40
29.0
 40
30.0
 40
30.0
 40
30.0
 40
31.0
 40
31.0
 40
31.0
 40
32.0
 40
32.0
 40
32.0
 40
33.0
 40
33.0
 40
33.0
 40
34.0
 40
34.0
 40
34.0
 40
35.0
 40
35.0
 40
35.0
 40
36.0
 40
36.0
 40
36.0
 40
37.0
 40
37.0
 40
37.0
 40
38.0
 40
38.0
 40
38.0
 40
39.0
 40
39.0
 40
39.0
 40
40.0
 40
40.0
 40
40.0
 40
41.0
 40
41.0
 40
41.0
 40
42.0
 40
42.0
 40
42.0
 40
43.0
 40
43.0
 40
43.0
 40
44.0
 40
44.0
 40
44.0
 40
45.0
 40
45.0
 40
45.0
 40
46.0
 40
46.0
 40
46.0
 40
47.0
 40
47.0
 40
47.0
 40
48.0
 40
48.0
 40
48.0
 40
49.0
 40
49.0
 40
49.0
 40
50.0
 40
50.0
 40
50.0
 40
51.0
 40
51.0
 40
51.0
 40
52.0
 40
52.0
 40
52.0
 40
53.0
 40
53.0
 40
53.0
 40
54.0
 40
54.0
 40
54.0
 40
55.0
 40
55.0
 40
55.0
 40
56.0
 40
56.0
 40
56.0
 40
57.0
 40
57.0
 40
57.0
 40
58.0
 40
58.0
 40
58.0
 40
59.0
 40
59.0
 40
59.0
 40
60.0
 40
60.0
 40
60.0
 40
61.0
 40
61.0
 40
61.0
 40
62.0
 40
62.0
 40
62.0
 40
63.0
 40
63.0
 40
63.0
 40
64.0
 40
64.0
 40
64.0
 40
65.0
 40
65.0
 40
65.0
 40
66.0
 40
66.0
 40
66.0
 40
67.0
 40
67.0
 40
67.0
 40
68.0
 40
68.0
 40
68.0
 40
69.0
 40
69.0
 40
69.0
 40
70.0
 40
70.0
 40
70.0
 40
71.0
 40
71.0
 40
71.0
 40
72.0
 40
72.0
 40
72.0
 40
73.0
 40
73.0
 40
73.0
 40
74.0
 40
74.0
 40
74.0
 40
75.0
 40
75.0
 40
75.0
 40
76.0
 40
76.0
 40
76.0
 40
77.0
 40
77.0
 40
77.0
 40
78.0
 40
78.0
 40
78.0
 40
79.0
 40
79.0
 40
79.0
 40
80.0
 40
80.0
 40
80.0
 40
81.0
 40
81.0
 40
81.0
 40
82.0
 40
82.0
 40
82.0
 40
83.0
 40
83.0
 40
83.0
 40
84.0
 40
84.0
 40
84.0
 40
85.0
 40
85.0
 40
85.0
 40
86.0
 40
86.0
 40
86.0
 40
87.0
 40
87.0
 40
87.0
 40
88.0
 40
88.0
 40
88.0
 40
89.0
 40
89.0
 40
89.0
 40
90.0
 40
90.0
 40
90.0
 40
91.0
 40
91.0
 40
91.0
 40
92.0
 40
92.0
 40
92.0
 40
93.0
 40
93.0
 40
93.0
 40
94.0
 40
94.0
 40
94.0
 40
95.0
 40
95.0
 40
95.0
 40
96.0
 40
96.0
 40
96.0
 40
97.0
 40
97.0
 40
97.0
 40
98.0
 40
98.0
 40
98.0
 40
99.0
 40
99.0
 40
99.0
 40
100.0
 40
100.0
 40
100.0
 40
101.0
 40
101.0
 40
101.0
 40
102.0
 40
102.0
 40
102.0
 40
103.0
 40
103.0
 40
103.0
 40
104.0
 40
104.0
 40
104.0
 40
105.0
 40
105.0
 40
105.0
 40
106.0
 40
106.0
 40
106.0
 40
107.0
 40
107.0
 40
107.0
 40
108.0
 40
108.0
 40
108.0
 40
109.0
 40
109.0
 40
109.0
 40
110.0
 40
110.0
 40
110.0
 40
111.0
 40
111.0
 40
111.0
 40
112.0
 40
112.0
 40
112.0
 40
113.0
 40
113.0
 40
113.0
 40
114.0
 40
114.0
 40
114.0
 40
115.0
 40
115.0
 40
115.0
 40
116.0
 40
116.0
 40
116.0
 40
117.0
 40
117.0
 40
117.0
 40
118.0
 40
118.0
 40
118.0
 40
119.0
 40
119.0
 40
119.0
 40
120.0
 40
120.0
 40
120.0
 40
121.0
 40
121.0
 40
121.0
 40
122.0
 40
122.0
 40
122.0
 40
123.0
 40
123.0
 40
123.0
 40
124.0
 40
124.0
 40
124.0
 40
125.0
 40
125.0
 40
125.0
 40
126.0
 40
126.0
 40
126.0
 40
127.0
 40
127.0
 40
127.0
 40
128.0
 40
128.0
 40
128.0
 40
129.0
 40
129.0
 40
129.0
 40
130.0
 40
130.0
 40
130.0
 40
131.0
 40
131.0
 40
131.0
 40
132.0
 40
132.0
 40
132.0
 40
133.0
 40
133.0
 40
133.0
 40
134.0
 40
134.0
 40
134.0
 40
135.0
 40
135.0
 40
135.0
 40
136.0
 40
136.0
 40
136.0
 40
137.0
 40
137.0
 40
137.0
 40
138.0
 40
138.0
 40
138.0
 40
138.0
 10
16.33361083787963
 20
30.62110370294333
 30
0.0
 10
21.23066065575394
 20
30.60730717211725
 30
0.0
 10
25.78123210686307
 20
28.09251800470599
 30
0.0
 10
28.39861110401146
 20
23.95360316631404
 30
0.0
 10
28.39861110401146
 20
23.95360316631404
 30
0.0
 10
28.29277669411224
 20
23.70665845278324
 30
0.0
 10
28.29277669411224
 20
23.70665845278324
 30
0.0
 10
28.1085044578641
 20
23.34618034838796
 30
0.0
 10
28.01181300840503
 20
22.94733653024698
 30
0.0
 10
28.01055339536824
 20
22.54249205555571
 30
0.0
 10
28.01055339536824
 20
22.43665899139691
 30
0.0
 10
28.04583063484103
 20
22.33082592723812
 30
0.0
 10
28.04583063484103
 20
22.18971427786612
 30
0.0
 10
28.04583063484103
 20
22.18971427786612
 30
0.0
 10
27.69305285715145
 20
21.76638202123096
 30
0.0
 10
27.69305285715145
 20
21.76638202123096
 30
0.0
 10
27.69305285715145
 20
21.80165926070375
 30
0.0
 10
27.65777561767866
 20
21.80165926070375
 30
0.0
 10
27.62249837820587
 20
21.80165926070375
 30
0.0
 10
27.62249837820587
 20
21.80165926070375
 30
0.0
 10
27.62249837820587
 20
21.69582485080453
 30
0.0
 10
27.62249837820587
 20
21.69582485080453
 30
0.0
 10
27.62249837820587
 20
21.69582485080453
 30
0.0
 10
27.48138672883386
 20
21.58999044090532
 30
0.0
 10
27.48138672883386
 20
21.58999044090532
 30
0.0
 10
27.35069111034305
 20
21.4524665355035
 30
0.0
 10
27.1759359503729
 20
21.36508760977801
 30
0.0
 10
26.98749730177228
 20
21.34304707311495
 30
0.0
 10
26.98749730177228
 20
21.34304707311495
 30
0.0
 10
26.88166289187306
 20
21.41360155206053
 30
0.0
 10
26.88166289187306
 20
21.41360155206053
 30
0.0
 10
26.88166289187306
 20
21.41360155206053
 30
0.0
 10
26.88166289187306
 20
21.58999044090532
 30
0.0
 10
26.88166289187306
 20
21.58999044090532
 30
0.0
 10
26.8801125989047
 20
21.86668947520911
 30
0.0
 10
26.92789714987746
 20
22.14144929756203
 30
0.0
 10
27.02277454124507
 20
22.40137906044328
 30
0.0
 10
27.12860895114428
 20
22.68360101344686
 30
0.0
 10
27.34027507946186
 20
23.24804626519445
 30
0.0
 10
27.72833009662423
 20
24.12999070941841
 30
0.0
 10
27.72833009662423
 20
24.12999070941841
 30
0.0
 10
27.72833009662423
 20
24.12999070941841
 30
0.0
 10
27.72833009662423
 20
24.12999070941841
 30
0.0
 10
27.72833009662423
 20
24.149474339276
 30
0.0
 10
27.71253648700904
 20
24.1652679488912
 30
0.0
 10
27.69305285715145
 20
24.1652679488912
 30
0.0
 10
27.69305285715145
 20
24.1652679488912
 30
0.0
 10
26.95222275378034
 20
24.1652679488912
 30
0.0
 10
26.95222275378034
 20
24.1652679488912
 30
0.0
 10
26.66999945503633
 20
23.53026821819803
 30
0.0
 10
26.49361056619154
 20
23.07165737634966
 30
0.0
 10
26.38777884777317
 20
22.75415683813286
 30
0.0
 10
26.18253190127772
 20
22.39343246324
 30
0.0
 10
25.94646749907437
 20
22.0511380034528
 30
0.0
 10
25.68222329239401
 20
21.73110209027733
 30
0.0
 10
25.47055716407642
 20
21.48415872248696
 30
0.0
 10
25.29416827523163
 20
21.37832431258774
 30
0.0
 10
25.18833386533242
 20
21.37832431258774
 30
0.0
 10
25.08249945543321
 20
21.37832431258774
 30
0.0
 10
25.08249945543321
 20
21.41360155206053
 30
0.0
 10
25.08249945543321
 20
21.55471320143253
 30
0.0
 10
25.11204653218092
 20
21.78482943096213
 30
0.0
 10
25.17133985525909
 20
22.01013867569747
 30
0.0
 10
25.258888344278
 20
22.22499151733891
 30
0.0
 10
25.258888344278
 20
22.22499151733891
 30
0.0
 10
26.07027830955638
 20
24.16526929463162
 30
0.0
 10
26.07027830955638
 20
24.16526929463162
 30
0.0
 10
26.07027830955638
 20
24.16526929463162
 30
0.0
 10
25.29416558375079
 20
24.16526929463162
 30
0.0
 10
25.29416558375079
 20
24.16526929463162
 30
0.0
 10
25.29416558375079
 20
24.16526929463162
 30
0.0
 10
24.6591645073172
 20
22.68360235918728
 30
0.0
 10
24.6591645073172
 20
22.68360235918728
 30
0.0
 10
24.66244003950903
 20
22.64497691753977
 30
0.0
 10
24.64968511177106
 20
22.60670405988332
 30
0.0
 10
24.62388726784441
 20
22.57776929502849
 30
0.0
 10
24.50302901185249
 20
22.37525016437234
 30
0.0
 10
24.36113414155376
 20
22.18605386391305
 30
0.0
 10
24.20055501120925
 20
22.01332538902133
 30
0.0
 10
24.04204293815588
 20
21.85121480607439
 30
0.0
 10
23.86434060665734
 20
21.70905347917173
 30
0.0
 10
23.67138834467487
 20
21.58999313238617
 30
0.0
 10
23.67138834467487
 20
21.58999313238617
 30
0.0
 10
23.24805608803971
 20
21.41360424354138
 30
0.0
 10
23.24805608803971
 20
21.41360424354138
 30
0.0
 10
23.24805608803971
 20
21.41360424354138
 30
0.0
 10
22.93055554982292
 20
21.41360424354138
 30
0.0
 10
22.93055554982292
 20
21.41360424354138
 30
0.0
 10
22.80204003081886
 20
21.41618537367447
 30
0.0
 10
22.68314386436502
 20
21.48223969664244
 30
0.0
 10
22.61305501160612
 20
21.58999313238617
 30
0.0
 10
22.56634032427039
 20
21.72624396734695
 30
0.0
 10
22.54249918692012
 20
21.86928944570814
 30
0.0
 10
22.54249918692012
 20
22.01332673476175
 30
0.0
 10
22.53695339063312
 20
22.12037365678292
 30
0.0
 10
22.54886857634656
 20
22.22760898246345
 30
0.0
 10
22.57777642639291
 20
22.33082727297855
 30
0.0
 10
22.84240686057494
 20
22.35954941084639
 30
0.0
 10
23.10283723889389
 20
22.4187377661715
 30
0.0
 10
23.35388780645808
 20
22.50721616182334
 30
0.0
 10
23.63978766804025
 20
22.62460644474281
 30
0.0
 10
23.90257040062022
 20
22.79183218704108
 30
0.0
 10
24.12999784078282
 20
23.00110558888493
 30
0.0
 10
24.34243104114204
 20
23.19056161724604
 30
0.0
 10
24.46959274527963
 20
23.45760227252731
 30
0.0
 10
24.48277561847241
 20
23.74193838373688
 30
0.0
 10
24.49444049646699
 20
23.92078997755746
 30
0.0
 10
24.41477804633229
 20
24.0933906071089
 30
0.0
 10
24.27110949015482
 20
24.20054922558526
 30
0.0
 10
24.12110787954237
 20
24.32003213486393
 30
0.0
 10
23.93363278108528
 20
24.38252428292976
 30
0.0
 10
23.74194282362045
 20
24.37693811443005
 30
0.0
 10
23.40319842707157
 20
24.37627062717978
 30
0.0
 10
23.07660875803158
 20
24.25065787027013
 30
0.0
 10
22.8247211399237
 20
24.02416033674047
 30
0.0
 10
22.50568107466194
 20
23.79917137822602
 30
0.0
 10
22.25043045123467
 20
23.49530184476317
 30
0.0
 10
22.08388834507175
 20
23.14221589251651
 30
0.0
 10
21.97684949749312
 20
22.95711871738849
 30
0.0
 10
21.90507981494474
 20
22.7537706106312
 30
0.0
 10
21.87222221675417
 20
22.54249205555571
 30
0.0
 10
21.71334679378635
 20
22.30578035220844
 30
0.0
 10
21.5364317204358
 20
22.08168765681633
 30
0.0
 10
21.34305555021979
 20
21.87221373964933
 30
0.0
 10
21.08435175686474
 20
21.58999044090532
 30
0.0
 10
20.90796286801994
 20
21.44888148301417
 30
0.0
 10
20.81388888368542
 20
21.44888148301417
 30
0.0
 10
20.74333305899941
 20
21.44888148301417
 30
0.0
 10
20.70805581952663
 20
21.51943596195974
 30
0.0
 10
20.70805581952663
 20
21.62527037185896
 30
0.0
 10
20.72035050403961
 20
21.782549746684
 30
0.0
 10
20.75601935397576
 20
21.93711880029526
 30
0.0
 10
20.81388888368542
 20
22.08388121370733
 30
0.0
 10
20.81388888368542
 20
22.08388121370733
 30
0.0
 10
21.307778310747
 20
23.21277037146208
 30
0.0
 10
21.307778310747
 20
23.21277037146208
 30
0.0
 10
21.37676903931998
 20
23.38070801044462
 30
0.0
 10
21.41270434586007
 20
23.56038185166421
 30
0.0
 10
21.41361137490579
 20
23.74193703799646
 30
0.0
 10
21.42671754089441
 20
23.89644015032695
 30
0.0
 10
21.37568706401914
 20
24.04953158095273
 30
0.0
 10
21.27249972553379
 20
24.16527064037204
 30
0.0
 10
21.15183660190334
 20
24.2868677078567
 30
0.0
 10
20.98493518304722
 20
24.35106087181838
 30
0.0
 10
20.81388888368542
 20
24.34165952921683
 30
0.0
 10
20.81388888368542
 20
24.34165952921683
 30
0.0
 10
20.56694417015462
 20
24.34165952921683
 30
0.0
 10
20.56694417015462
 20
24.34165952921683
 30
0.0
 10
20.56694417015462
 20
24.34165952921683
 30
0.0
 10
20.28472221715104
 20
24.23582646505804
 30
0.0
 10
20.28472221715104
 20
24.23582646505804
 30
0.0
 10
20.1531141866528
 20
24.19181267875313
 30
0.0
 10
20.03271348240502
 20
24.11957198705637
 30
0.0
 10
19.93194443946146
 20
24.02416033674047
 30
0.0
 10
19.93194443946146
 20
24.02416033674047
 30
0.0
 10
20.95500053305742
 20
26.28193865224997
 30
0.0
 10
20.95500053305742
 20
26.28193865224997
 30
0.0
 10
20.95500053305742
 20
26.28193865224997
 30
0.0
 10
20.24944497767826
 20
26.28193865224997
 30
0.0
 10
20.24944497767826
 20
26.28193865224997
 30
0.0
 10
20.21047771796306
 20
26.28193865224997
 30
0.0
 10
20.17888915299225
 20
26.25035008727916
 30
0.0
 10
20.17888915299225
 20
26.21138282756397
 30
0.0
 10
20.17888915299225
 20
26.21138282756397
 30
0.0
 10
20.17888915299225
 20
26.21138282756397
 30
0.0
 10
20.17888915299225
 20
26.21138282756397
 30
0.0
 10
20.17888915299225
 20
26.21138282756397
 30
0.0
 10
18.62666639286192
 20
22.68360505066813
 30
0.0
 10
18.62666639286192
 20
22.68360505066813
 30
0.0
 10
18.43559547599209
 20
22.36638308071909
 30
0.0
 10
18.21087028260074
 20
22.07069161181244
 30
0.0
 10
17.95638807695554
 20
21.8016619521846
 30
0.0
 10
17.82399009682845
 20
21.63555721165945
 30
0.0
 10
17.6360897443974
 20
21.52281646190465
 30
0.0
 10
17.42722141042116
 20
21.4841614139678
 30
0.0
 10
17.35666558573516
 20
21.4841614139678
 30
0.0
 10
17.32138834626237
 20
21.55471589291338
 30
0.0
 10
17.32138834626237
 20
21.6605503028126
 30
0.0
 10
17.32781694826746
 20
21.87923985040264
 30
0.0
 10
17.37570242977202
 20
22.09472115282205
 30
0.0
 10
17.46249999563437
 20
22.29555003350576
 30
0.0
 10
17.66887736408593
 20
22.86005584357243
 30
0.0
 10
17.90437790105166
 20
23.41348351846933
 30
0.0
 10
18.16805555101354
 20
23.95360585779489
 30
0.0
 10
18.16805555101354
 20
23.95360585779489
 30
0.0
 10
18.62666639286192
 20
23.95360585779489
 30
0.0
 10
18.62666639286192
 20
23.95360585779489
 30
0.0
 10
18.6619436323347
 20
23.95360585779489
 30
0.0
 10
18.69722221754792
 20
23.95360585779489
 30
0.0
 10
18.69722221754792
 20
23.98888309726767
 30
0.0
 10
18.69722221754792
 20
23.98888309726767
 30
0.0
 10
18.83833386691992
 20
24.30638363548447
 30
0.0
 10
18.83833386691992
 20
24.30638363548447
 30
0.0
 10
18.83833386691992
 20
24.30638363548447
 30
0.0
 10
18.83833386691992
 20
24.37693946017047
 30
0.0
 10
18.83833386691992
 20
24.37693946017047
 30
0.0
 10
18.83833386691992
 20
24.37693946017047
 30
0.0
 10
18.34444443985834
 20
24.37693946017047
 30
0.0
 10
18.34444443985834
 20
24.37693946017047
 30
0.0
 10
18.34444443985834
 20
24.37693946017047
 30
0.0
 10
19.01472275576471
 20
25.82332781040159
 30
0.0
 10
19.01472275576471
 20
25.82332781040159
 30
0.0
 10
19.01472275576471
 20
25.82332781040159
 30
0.0
 10
19.01472275576471
 20
25.89388363508759
 30
0.0
 10
19.01472275576471
 20
25.89388363508759
 30
0.0
 10
19.01472275576471
 20
25.89388363508759
 30
0.0
 10
18.30916720038555
 20
25.89388363508759
 30
0.0
 10
18.30916720038555
 20
25.89388363508759
 30
0.0
 10
18.27019994067035
 20
25.89388363508759
 30
0.0
 10
18.23861137569954
 20
25.86229507011679
 30
0.0
 10
18.23861137569954
 20
25.82332781040159
 30
0.0
 10
18.23861137569954
 20
25.82332781040159
 30
0.0
 10
18.23861137569954
 20
25.82332781040159
 30
0.0
 10
18.23861137569954
 20
25.82332781040159
 30
0.0
 10
17.92111083748275
 20
25.08249501554964
 30
0.0
 10
17.70944470916517
 20
24.58860558848805
 30
0.0
 10
17.56833305979317
 20
24.34166087495726
 30
0.0
 10
17.56833305979317
 20
24.34166087495726
 30
0.0
 10
17.25083252157637
 20
24.34166087495726
 30
0.0
 10
17.25083252157637
 20
24.34166087495726
 30
0.0
 10
17.21555528210358
 20
24.34166087495726
 30
0.0
 10
17.18027669689037
 20
24.34166087495726
 30
0.0
 10
17.18027669689037
 20
24.30638363548447
 30
0.0
 10
17.18027669689037
 20
24.30638363548447
 30
0.0
 10
17.03916504751837
 20
23.98888309726767
 30
0.0
 10
17.03916504751837
 20
23.98888309726767
 30
0.0
 10
17.03916504751837
 20
23.98888309726767
 30
0.0
 10
17.03916504751837
 20
23.91832727258167
 30
0.0
 10
17.03916504751837
 20
23.91832727258167
 30
0.0
 10
17.03916504751837
 20
23.91832727258167
 30
0.0
 10
17.39194282520795
 20
23.91832727258167
 30
0.0
 10
17.39194282520795
 20
23.91832727258167
 30
0.0
 10
17.14499811167716
 20
23.3186047813613
 30
0.0
 10
16.93333198335958
 20
22.89527117898571
 30
0.0
 10
16.82749891920079
 20
22.61304922598213
 30
0.0
 10
16.65058922881193
 20
22.30635767485031
 30
0.0
 10
16.43738761067065
 20
22.02208885066193
 30
0.0
 10
16.19249918850762
 20
21.76638202123096
 30
0.0
 10
16.06010120838054
 20
21.60027728070581
 30
0.0
 10
15.87220085594948
 20
21.48753653095101
 30
0.0
 10
15.66333252197325
 20
21.44888148301417
 30
0.0
 10
15.59277669728725
 20
21.44888148301417
 30
0.0
 10
15.55749945781446
 20
21.51943596195974
 30
0.0
 10
15.55749945781446
 20
21.62527037185896
 30
0.0
 10
15.56492121625241
 20
21.8324740249308
 30
0.0
 10
15.61286187311434
 20
22.03621912511315
 30
0.0
 10
15.69861110718646
 20
22.22499286307933
 30
0.0
 10
15.9024342603134
 20
22.80199925594384
 30
0.0
 10
16.13797920671312
 20
23.36730443582232
 30
0.0
 10
16.40416666256563
 20
23.91832592684125
 30
0.0
 10
16.40416666256563
 20
23.91832592684125
 30
0.0
 10
16.862777504414
 20
23.91832592684125
 30
0.0
 10
16.862777504414
 20
23.91832592684125
 30
0.0
 10
16.89805474388679
 20
23.91832592684125
 30
0.0
 10
16.9333333291
 20
23.91832592684125
 30
0.0
 10
16.9333333291
 20
23.95360316631404
 30
0.0
 10
16.9333333291
 20
23.95360316631404
 30
0.0
 10
17.07444497847201
 20
24.27110370453083
 30
0.0
 10
17.07444497847201
 20
24.27110370453083
 30
0.0
 10
17.07444497847201
 20
24.27110370453083
 30
0.0
 10
17.07444497847201
 20
24.34165952921683
 30
0.0
 10
17.07444497847201
 20
24.34165952921683
 30
0.0
 10
17.07444497847201
 20
24.34165952921683
 30
0.0
 10
16.58055555141042
 20
24.34165952921683
 30
0.0
 10
16.58055555141042
 20
24.34165952921683
 30
0.0
 10
16.58055555141042
 20
24.34165952921683
 30
0.0
 10
17.2508338673168
 20
25.78804787944796
 30
0.0
 10
17.2508338673168
 20
25.78804787944796
 30
0.0
 10
17.2508338673168
 20
25.78804787944796
 30
0.0
 10
17.2508338673168
 20
26.07026983245154
 30
0.0
 10
17.2508338673168
 20
26.07026983245154
 30
0.0
 10
17.2508338673168
 20
26.07026983245154
 30
0.0
 10
16.54527831193763
 20
26.07026983245154
 30
0.0
 10
16.54527831193763
 20
26.07026983245154
 30
0.0
 10
16.50631105222244
 20
26.07026983245154
 30
0.0
 10
16.47472248725163
 20
26.03868126748073
 30
0.0
 10
16.47472248725163
 20
25.99971400776554
 30
0.0
 10
16.47472248725163
 20
25.99971400776554
 30
0.0
 10
16.47472248725163
 20
25.99971400776554
 30
0.0
 10
16.47472248725163
 20
25.99971400776554
 30
0.0
 10
16.15722194903483
 20
25.25888121291358
 30
0.0
 10
15.94555582071725
 20
24.764991785852
 30
0.0
 10
15.80444417134525
 20
24.5180470723212
 30
0.0
 10
15.80444417134525
 20
24.5180470723212
 30
0.0
 10
15.48694363312845
 20
24.5180470723212
 30
0.0
 10
15.48694363312845
 20
24.5180470723212
 30
0.0
 10
15.45166639365567
 20
24.5180470723212
 30
0.0
 10
15.41638780844245
 20
24.5180470723212
 30
0.0
 10
15.41638780844245
 20
24.48276983284841
 30
0.0
 10
15.41638780844245
 20
24.48276983284841
 30
0.0
 10
15.27527615907045
 20
24.16526929463162
 30
0.0
 10
15.27527615907045
 20
24.16526929463162
 30
0.0
 10
15.27527615907045
 20
24.16526929463162
 30
0.0
 10
15.27527615907045
 20
24.09471346994562
 30
0.0
 10
15.27527615907045
 20
24.09471346994562
 30
0.0
 10
15.27527615907045
 20
24.09471346994562
 30
0.0
 10
15.62805393676003
 20
24.09471346994562
 30
0.0
 10
15.62805393676003
 20
24.09471346994562
 30
0.0
 10
15.38110922322924
 20
23.56554680341124
 30
0.0
 10
15.20472033438445
 20
23.14221320103566
 30
0.0
 10
15.09888727022566
 20
22.85999124803207
 30
0.0
 10
14.8973128493471
 20
22.52766334182447
 30
0.0
 10
14.67336953114204
 20
22.20942802933621
 30
0.0
 10
14.42860895431928
 20
21.90749097912212
 30
0.0
 10
14.2169428260017
 20
21.66054761133175
 30
0.0
 10
14.0758311766297
 20
21.55471320143253
 30
0.0
 10
14.0052753519437
 20
21.55471320143253
 30
0.0
 10
13.93471952725769
 20
21.55471320143253
 30
0.0
 10
13.89944228778491
 20
21.62526768037811
 30
0.0
 10
13.89944228778491
 20
21.73110209027733
 30
0.0
 10
13.90972643610455
 20
21.94929371391052
 30
0.0
 10
13.95745850320077
 20
22.16409138019458
 30
0.0
 10
14.04055393715691
 20
22.36610182097049
 30
0.0
 10
14.1463870013157
 20
22.64832377397407
 30
0.0
 10
14.39333171484649
 20
23.24804626519445
 30
0.0
 10
14.81666531722208
 20
24.1652679488912
 30
0.0
 10
14.81666531722208
 20
24.1652679488912
 30
0.0
 10
14.11111110758333
 20
24.1652679488912
 30
0.0
 10
14.11111110758333
 20
24.1652679488912
 30
0.0
 10
14.07583386811054
 20
24.1652679488912
 30
0.0
 10
14.04055528289733
 20
24.1652679488912
 30
0.0
 10
14.04055528289733
 20
24.12999070941841
 30
0.0
 10
14.04055528289733
 20
24.12999070941841
 30
0.0
 10
13.96999945821133
 20
23.9888790600464
 30
0.0
 10
13.96999945821133
 20
23.9888790600464
 30
0.0
 10
13.90168159985032
 20
24.25846585620975
 30
0.0
 10
13.64717651661791
 20
24.43811681984213
 30
0.0
 10
13.37027696699096
 20
24.41221266242199
 30
0.0
 10
13.11934482458407
 20
24.41290975596158
 30
0.0
 10
12.87383063312391
 20
24.3392560368197
 30
0.0
 10
12.66472141161179
 20
24.20054653410441
 30
0.0
 10
12.42303316017685
 20
24.04731110925326
 30
0.0
 10
12.21823434524256
 20
23.84251229431897
 30
0.0
 10
12.06499892039141
 20
23.60082404288403
 30
0.0
 10
12.06499892039141
 20
23.60082404288403
 30
0.0
 10
11.99444444144583
 20
23.60082538862445
 30
0.0
 10
11.99444444144583
 20
23.60082538862445
 30
0.0
 10
12.13235322860889
 20
24.0916694051067
 30
0.0
 10
12.2972346910887
 20
24.57453183513464
 30
0.0
 10
12.48833386850742
 20
25.04721373885558
 30
0.0
 10
12.69677829425012
 20
25.59064794536441
 30
0.0
 10
12.98188820620345
 20
26.10146947843983
 30
0.0
 10
13.33500107325859
 20
26.5641579137727
 30
0.0
 10
13.50353487524893
 20
26.89562185462815
 30
0.0
 10
13.81627283810545
 20
27.13017499033543
 30
0.0
 10
14.18166827800976
 20
27.19915764446587
 30
0.0
 10
14.21694551748255
 20
27.19915764446587
 30
0.0
 10
14.21694551748255
 20
27.19915764446587
 30
0.0
 10
14.21694551748255
 20
27.26971346915187
 30
0.0
 10
14.15692280309461
 20
27.40863021589245
 30
0.0
 10
14.01498756058317
 20
27.49379136139931
 30
0.0
 10
13.86416773979296
 20
27.48137959746945
 30
0.0
 10
13.58298469839665
 20
27.49394477580764
 30
0.0
 10
13.30336809885379
 20
27.43315768085892
 30
0.0
 10
13.05277912025501
 20
27.30499070862466
 30
0.0
 10
12.78410204461824
 20
27.17834038584816
 30
0.0
 10
12.54403675613455
 20
26.99829242879071
 30
0.0
 10
12.34722221913542
 20
26.7758253878307
 30
0.0
 10
12.34722221913542
 20
26.7758253878307
 30
0.0
 10
11.67694390322904
 20
25.99971400776554
 30
0.0
 10
11.67694390322904
 20
25.99971400776554
 30
0.0
 10
11.47119499555546
 20
25.70516103525753
 30
0.0
 10
11.28272875927615
 20
25.39890415828263
 30
0.0
 10
11.11249932435166
 20
25.08249232406879
 30
0.0
 10
11.11249932435166
 20
25.08249232406879
 30
0.0
 10
10.51277683313129
 20
24.09471481568604
 30
0.0
 10
10.51277683313129
 20
24.09471481568604
 30
0.0
 10
10.30111003194349
 20
23.74193703799646
 30
0.0
 10
10.0894432307557
 20
23.45971508499288
 30
0.0
 10
9.913054341910911
 20
23.21277037146208
 30
0.0
 10
9.936573174429649
 20
23.49499232446566
 30
0.0
 10
9.971850413902438
 20
23.84777010215525
 30
0.0
 10
10.0188874060697
 20
24.27110370453083
 30
0.0
 10
10.0541653184127
 20
24.69443730690642
 30
0.0
 10
10.0894432307557
 20
25.047215084596
 30
0.0
 10
10.0894432307557
 20
25.32943703759958
 30
0.0
 10
10.0894432307557
 20
25.61165899060316
 30
0.0
 10
10.1599990554417
 20
25.89388094360675
 30
0.0
 10
10.23055420725749
 20
26.21138148182354
 30
0.0
 10
10.28603706632532
 20
26.4661314898131
 30
0.0
 10
10.39418547688347
 20
26.70646054341988
 30
0.0
 10
10.54805407260408
 20
26.91693703720271
 30
0.0
 10
10.54805407260408
 20
26.91693703720271
 30
0.0
 10
10.83027602560766
 20
26.91693703720271
 30
0.0
 10
10.83027602560766
 20
26.91693703720271
 30
0.0
 10
10.94615369629063
 20
26.90710774914636
 30
0.0
 10
11.06097159638976
 20
26.94537926106238
 30
0.0
 10
11.14777589095424
 20
27.0227701013615
 30
0.0
 10
11.22190196498492
 20
27.11436119461388
 30
0.0
 10
11.27057403176725
 20
27.22387351309169
 30
0.0
 10
11.28888686745603
 20
27.34027063957829
 30
0.0
 10
11.29509274942096
 20
27.41568054997339
 30
0.0
 10
11.25251217666753
 20
27.48664817122912
 30
0.0
 10
11.18305380329724
 20
27.51665952842308
 30
0.0
 10
11.12045601460812
 20
27.58674299822029
 30
0.0
 10
11.03002965969265
 20
27.62549628520808
 30
0.0
 10
10.93610908976645
 20
27.62249259258187
 30
0.0
 10
10.66374064814685
 20
27.61819564340828
 30
0.0
 10
10.39683591264839
 20
27.54540319813771
 30
0.0
 10
10.15999770970128
 20
27.41082646426429
 30
0.0
 10
10.15999770970128
 20
27.41082646426429
 30
0.0
 10
9.666108955509905
 20
27.5519381136363
 30
0.0
 10
9.666108955509905
 20
27.5519381136363
 30
0.0
 10
9.666108955509905
 20
27.5519381136363
 30
0.0
 10
9.066386464289529
 20
27.65777117779509
 30
0.0
 10
9.066386464289529
 20
27.65777117779509
 30
0.0
 10
8.896296313498922
 20
27.71561379269626
 30
0.0
 10
8.71652356035817
 20
27.7395827753868
 30
0.0
 10
8.537219797755155
 20
27.72832700248109
 30
0.0
 10
8.216801694299289
 20
27.72804035977079
 30
0.0
 10
7.897385494589035
 20
27.6925491475706
 30
0.0
 10
7.584719528845194
 20
27.6224939383223
 30
0.0
 10
10.089190231556
 20
29.56199118616913
 30
0.0
 10
13.16596127286886
 20
30.61652818550198
 30
0.0
 10
16.33361083787963
 20
30.62110370294333
 30
0.0
  0
SPLINE
  5
97
330
49
100
AcDbEntity
  8
Layer 1
370
     0
100
AcDbSpline
210
0.0
220
0.0
230
1.0
 70
    11
 71
     3
 72
    20
 73
    16
 74
     0
 42
0.0000000001
 43
0.0000000001
 12
1.0
 22
0.0
 32
0.0
 13
1.0
 23
0.0
 33
0.0
 40
0.0
 40
0.0
 40
0.0
 40
0.0
 40
1.0
 40
1.0
 40
1.0
 40
2.0
 40
2.0
 40
2.0
 40
3.0
 40
3.0
 40
3.0
 40
4.0
 40
4.0
 40
4.0
 40
5.0
 40
5.0
 40
5.0
 40
5.0
 10
22.64833225107891
 20
22.68360370492771
 30
0.0
 10
22.78185392445997
 20
23.02309364167145
 30
0.0
 10
22.95979310627313
 20
23.34338389978704
 30
0.0
 10
23.17749891761329
 20
23.63610397383767
 30
0.0
 10
23.42444228540366
 20
23.88304868736846
 30
0.0
 10
23.60083117424845
 20
24.02415899100004
 30
0.0
 10
23.77722006309324
 20
24.02415899100004
 30
0.0
 10
23.95360895193803
 20
24.02415899100004
 30
0.0
 10
23.84777454203882
 20
24.02415899100004
 30
0.0
 10
23.84777454203882
 20
23.98888175152725
 30
0.0
 10
23.84777454203882
 20
23.95360451205446
 30
0.0
 10
23.88305178151161
 20
23.74193703799646
 30
0.0
 10
23.77722006309324
 20
23.49499232446566
 30
0.0
 10
23.53441619284687
 20
23.07540660917071
 30
0.0
 10
23.1234243758991
 20
22.78000716593605
 30
0.0
 10
22.64833225107891
 20
22.68360370492771
 30
0.0
  0
POLYLINE
  5
98
330
49
100
AcDbEntity
  8
Layer 1
370
     0
100
AcDb2dPolyline
 66
     1
 10
0.0
 20
0.0
 30
0.0
  0
VERTEX
  5
99
330
98
100
AcDbEntity
  8
Layer 1
370
     0
100
AcDbVertex
100
AcDb2dVertex
 10
20.28472087141062
 20
8.81943865661559
 30
0.0
  0
VERTEX
  5
9A
330
98
100
AcDbEntity
  8
Layer 1
370
     0
100
AcDbVertex
100
AcDb2dVertex
 10
20.17888780725183
 20
8.81943865661559
 30
0.0
  0
VERTEX
  5
9B
330
98
100
AcDbEntity
  8
Layer 1
370
     0
100
AcDbVertex
100
AcDb2dVertex
 10
20.07305474309304
 20
8.748884177670014
 30
0.0
  0
VERTEX
  5
9C
330
98
100
AcDbEntity
  8
Layer 1
370
     0
100
AcDbVertex
100
AcDb2dVertex
 10
20.21416639246504
 20
8.748884177670014
 30
0.0
  0
VERTEX
  5
9D
330
98
100
AcDbEntity
  8
Layer 1
370
     0
100
AcDbVertex
100
AcDb2dVertex
 10
20.21416639246504
 20
8.537218049352433
 30
0.0
  0
VERTEX
  5
9E
330
98
100
AcDbEntity
  8
Layer 1
370
     0
100
AcDbVertex
100
AcDb2dVertex
 10
20.17888915299225
 20
8.537218049352433
 30
0.0
  0
VERTEX
  5
9F
330
98
100
AcDbEntity
  8
Layer 1
370
     0
100
AcDbVertex
100
AcDb2dVertex
 10
20.00250026414746
 20
8.43138363945322
 30
0.0
  0
VERTEX
  5
A0
330
98
100
AcDbEntity
  8
Layer 1
370
     0
100
AcDbVertex
100
AcDb2dVertex
 10
19.82611137530267
 20
8.43138363945322
 30
0.0
  0
VERTEX
  5
A1
330
98
100
AcDbEntity
  8
Layer 1
370
     0
100
AcDbVertex
100
AcDb2dVertex
 10
19.4380563581403
 20
8.60777252829801
 30
0.0
  0
VERTEX
  5
A2
330
98
100
AcDbEntity
  8
Layer 1
370
     0
100
AcDbVertex
100
AcDb2dVertex
 10
18.9794441705515
 20
8.60777252829801
 30
0.0
  0
VERTEX
  5
A3
330
98
100
AcDbEntity
  8
Layer 1
370
     0
100
AcDbVertex
100
AcDb2dVertex
 10
18.76777804223392
 20
8.501938118398796
 30
0.0
  0
VERTEX
  5
A4
330
98
100
AcDbEntity
  8
Layer 1
370
     0
100
AcDbVertex
100
AcDb2dVertex
 10
18.66194497807513
 20
8.43138363945322
 30
0.0
  0
VERTEX
  5
A5
330
98
100
AcDbEntity
  8
Layer 1
370
     0
100
AcDbVertex
100
AcDb2dVertex
 10
18.69722221754792
 20
8.43138363945322
 30
0.0
  0
VERTEX
  5
A6
330
98
100
AcDbEntity
  8
Layer 1
370
     0
100
AcDbVertex
100
AcDb2dVertex
 10
18.80305528170671
 20
8.360829160507642
 30
0.0
  0
VERTEX
  5
A7
330
98
100
AcDbEntity
  8
Layer 1
370
     0
100
AcDbVertex
100
AcDb2dVertex
 10
18.9088883458655
 20
8.290274681562064
 30
0.0
  0
VERTEX
  5
A8
330
98
100
AcDbEntity
  8
Layer 1
370
     0
100
AcDbVertex
100
AcDb2dVertex
 10
19.01472141002429
 20
8.219720202616486
 30
0.0
  0
VERTEX
  5
A9
330
98
100
AcDbEntity
  8
Layer 1
370
     0
100
AcDbVertex
100
AcDb2dVertex
 10
19.40277777292708
 20
8.219720202616486
 30
0.0
  0
VERTEX
  5
AA
330
98
100
AcDbEntity
  8
Layer 1
370
     0
100
AcDbVertex
100
AcDb2dVertex
 10
19.61444390124467
 20
8.290274681562064
 30
0.0
  0
VERTEX
  5
AB
330
98
100
AcDbEntity
  8
Layer 1
370
     0
100
AcDbVertex
100
AcDb2dVertex
 10
19.93194443946146
 20
8.290274681562064
 30
0.0
  0
VERTEX
  5
AC
330
98
100
AcDbEntity
  8
Layer 1
370
     0
100
AcDbVertex
100
AcDb2dVertex
 10
20.00250026414746
 20
8.219720202616486
 30
0.0
  0
VERTEX
  5
AD
330
98
100
AcDbEntity
  8
Layer 1
370
     0
100
AcDbVertex
100
AcDb2dVertex
 10
20.00250026414746
 20
7.902219664399691
 30
0.0
  0
VERTEX
  5
AE
330
98
100
AcDbEntity
  8
Layer 1
370
     0
100
AcDbVertex
100
AcDb2dVertex
 10
19.68499972593067
 20
7.902219664399691
 30
0.0
  0
VERTEX
  5
AF
330
98
100
AcDbEntity
  8
Layer 1
370
     0
100
AcDbVertex
100
AcDb2dVertex
 10
19.82611137530267
 20
7.831665185454114
 30
0.0
  0
VERTEX
  5
B0
330
98
100
AcDbEntity
  8
Layer 1
370
     0
100
AcDbVertex
100
AcDb2dVertex
 10
19.96722302467467
 20
7.7258307755549
 30
0.0
  0
VERTEX
  5
B1
330
98
100
AcDbEntity
  8
Layer 1
370
     0
100
AcDbVertex
100
AcDb2dVertex
 10
20.10833467404667
 20
7.7258307755549
 30
0.0
  0
VERTEX
  5
B2
330
98
100
AcDbEntity
  8
Layer 1
370
     0
100
AcDbVertex
100
AcDb2dVertex
 10
20.10833467404667
 20
7.443607476810894
 30
0.0
  0
VERTEX
  5
B3
330
98
100
AcDbEntity
  8
Layer 1
370
     0
100
AcDbVertex
100
AcDb2dVertex
 10
20.07305743457389
 20
7.443607476810894
 30
0.0
  0
VERTEX
  5
B4
330
98
100
AcDbEntity
  8
Layer 1
370
     0
100
AcDbVertex
100
AcDb2dVertex
 10
19.8966685457291
 20
7.373052997865317
 30
0.0
  0
VERTEX
  5
B5
330
98
100
AcDbEntity
  8
Layer 1
370
     0
100
AcDbVertex
100
AcDb2dVertex
 10
19.75555555061667
 20
7.373052997865317
 30
0.0
  0
VERTEX
  5
B6
330
98
100
AcDbEntity
  8
Layer 1
370
     0
100
AcDbVertex
100
AcDb2dVertex
 10
19.61444390124467
 20
7.443607476810894
 30
0.0
  0
VERTEX
  5
B7
330
98
100
AcDbEntity
  8
Layer 1
370
     0
100
AcDbVertex
100
AcDb2dVertex
 10
19.50861083708588
 20
7.549441886710109
 30
0.0
  0
VERTEX
  5
B8
330
98
100
AcDbEntity
  8
Layer 1
370
     0
100
AcDbVertex
100
AcDb2dVertex
 10
19.33222194824108
 20
7.549441886710109
 30
0.0
  0
VERTEX
  5
B9
330
98
100
AcDbEntity
  8
Layer 1
370
     0
100
AcDbVertex
100
AcDb2dVertex
 10
19.33222194824108
 20
7.231941348493314
 30
0.0
  0
VERTEX
  5
BA
330
98
100
AcDbEntity
  8
Layer 1
370
     0
100
AcDbVertex
100
AcDb2dVertex
 10
19.33222194824108
 20
7.231941348493314
 30
0.0
  0
VERTEX
  5
BB
330
98
100
AcDbEntity
  8
Layer 1
370
     0
100
AcDbVertex
100
AcDb2dVertex
 10
19.15583305939629
 20
7.126106938594099
 30
0.0
  0
VERTEX
  5
BC
330
98
100
AcDbEntity
  8
Layer 1
370
     0
100
AcDbVertex
100
AcDb2dVertex
 10
18.9794441705515
 20
7.126106938594099
 30
0.0
  0
VERTEX
  5
BD
330
98
100
AcDbEntity
  8
Layer 1
370
     0
100
AcDbVertex
100
AcDb2dVertex
 10
18.87361110639271
 20
7.196661417539677
 30
0.0
  0
VERTEX
  5
BE
330
98
100
AcDbEntity
  8
Layer 1
370
     0
100
AcDbVertex
100
AcDb2dVertex
 10
18.83833386691992
 20
7.196661417539677
 30
0.0
  0
VERTEX
  5
BF
330
98
100
AcDbEntity
  8
Layer 1
370
     0
100
AcDbVertex
100
AcDb2dVertex
 10
18.83833386691992
 20
7.866939733446055
 30
0.0
  0
VERTEX
  5
C0
330
98
100
AcDbEntity
  8
Layer 1
370
     0
100
AcDbVertex
100
AcDb2dVertex
 10
18.66194497807513
 20
7.866939733446055
 30
0.0
  0
VERTEX
  5
C1
330
98
100
AcDbEntity
  8
Layer 1
370
     0
100
AcDbVertex
100
AcDb2dVertex
 10
18.52083332870313
 20
7.937494212391632
 30
0.0
  0
VERTEX
  5
C2
330
98
100
AcDbEntity
  8
Layer 1
370
     0
100
AcDbVertex
100
AcDb2dVertex
 10
18.41500026454434
 20
8.043328622290847
 30
0.0
  0
VERTEX
  5
C3
330
98
100
AcDbEntity
  8
Layer 1
370
     0
100
AcDbVertex
100
AcDb2dVertex
 10
18.16805555101354
 20
8.043328622290847
 30
0.0
  0
VERTEX
  5
C4
330
98
100
AcDbEntity
  8
Layer 1
370
     0
100
AcDbVertex
100
AcDb2dVertex
 10
18.16805555101354
 20
7.161384178066888
 30
0.0
  0
VERTEX
  5
C5
330
98
100
AcDbEntity
  8
Layer 1
370
     0
100
AcDbVertex
100
AcDb2dVertex
 10
18.30916720038555
 20
7.161384178066888
 30
0.0
  0
VERTEX
  5
C6
330
98
100
AcDbEntity
  8
Layer 1
370
     0
100
AcDbVertex
100
AcDb2dVertex
 10
18.37972302507155
 20
7.09082969912131
 30
0.0
  0
VERTEX
  5
C7
330
98
100
AcDbEntity
  8
Layer 1
370
     0
100
AcDbVertex
100
AcDb2dVertex
 10
18.52083467444355
 20
6.949718049749308
 30
0.0
  0
VERTEX
  5
C8
330
98
100
AcDbEntity
  8
Layer 1
370
     0
100
AcDbVertex
100
AcDb2dVertex
 10
18.62666773860234
 20
6.879163570803731
 30
0.0
  0
VERTEX
  5
C9
330
98
100
AcDbEntity
  8
Layer 1
370
     0
100
AcDbVertex
100
AcDb2dVertex
 10
18.69722356328834
 20
6.808609091858153
 30
0.0
  0
VERTEX
  5
CA
330
98
100
AcDbEntity
  8
Layer 1
370
     0
100
AcDbVertex
100
AcDb2dVertex
 10
18.69722221754792
 20
6.808609091858153
 30
0.0
  0
VERTEX
  5
CB
330
98
100
AcDbEntity
  8
Layer 1
370
     0
100
AcDbVertex
100
AcDb2dVertex
 10
18.62666639286192
 20
6.596942963540572
 30
0.0
  0
VERTEX
  5
CC
330
98
100
AcDbEntity
  8
Layer 1
370
     0
100
AcDbVertex
100
AcDb2dVertex
 10
18.34444443985834
 20
6.596942963540572
 30
0.0
  0
VERTEX
  5
CD
330
98
100
AcDbEntity
  8
Layer 1
370
     0
100
AcDbVertex
100
AcDb2dVertex
 10
18.27388861517233
 20
6.66749744248615
 30
0.0
  0
VERTEX
  5
CE
330
98
100
AcDbEntity
  8
Layer 1
370
     0
100
AcDbVertex
100
AcDb2dVertex
 10
18.16805555101354
 20
6.738051921431728
 30
0.0
  0
VERTEX
  5
CF
330
98
100
AcDbEntity
  8
Layer 1
370
     0
100
AcDbVertex
100
AcDb2dVertex
 10
18.09749972632754
 20
6.808606400377305
 30
0.0
  0
VERTEX
  5
D0
330
98
100
AcDbEntity
  8
Layer 1
370
     0
100
AcDbVertex
100
AcDb2dVertex
 10
18.02694390164154
 20
6.808606400377305
 30
0.0
  0
VERTEX
  5
D1
330
98
100
AcDbEntity
  8
Layer 1
370
     0
100
AcDbVertex
100
AcDb2dVertex
 10
18.02694390164154
 20
6.455828622687721
 30
0.0
  0
VERTEX
  5
D2
330
98
100
AcDbEntity
  8
Layer 1
370
     0
100
AcDbVertex
100
AcDb2dVertex
 10
17.49777723510716
 20
6.455828622687721
 30
0.0
  0
VERTEX
  5
D3
330
98
100
AcDbEntity
  8
Layer 1
370
     0
100
AcDbVertex
100
AcDb2dVertex
 10
17.49777723510716
 20
6.843883639850094
 30
0.0
  0
VERTEX
  5
D4
330
98
100
AcDbEntity
  8
Layer 1
370
     0
100
AcDbVertex
100
AcDb2dVertex
 10
17.42722141042116
 20
6.843883639850094
 30
0.0
  0
VERTEX
  5
D5
330
98
100
AcDbEntity
  8
Layer 1
370
     0
100
AcDbVertex
100
AcDb2dVertex
 10
17.32138834626237
 20
6.773329160904516
 30
0.0
  0
VERTEX
  5
D6
330
98
100
AcDbEntity
  8
Layer 1
370
     0
100
AcDbVertex
100
AcDb2dVertex
 10
17.28611110678958
 20
6.773329160904516
 30
0.0
  0
VERTEX
  5
D7
330
98
100
AcDbEntity
  8
Layer 1
370
     0
100
AcDbVertex
100
AcDb2dVertex
 10
17.21555528210358
 20
6.702774681958939
 30
0.0
  0
VERTEX
  5
D8
330
98
100
AcDbEntity
  8
Layer 1
370
     0
100
AcDbVertex
100
AcDb2dVertex
 10
17.03916639325879
 20
6.702774681958939
 30
0.0
  0
VERTEX
  5
D9
330
98
100
AcDbEntity
  8
Layer 1
370
     0
100
AcDbVertex
100
AcDb2dVertex
 10
16.96861056857279
 20
6.773329160904516
 30
0.0
  0
VERTEX
  5
DA
330
98
100
AcDbEntity
  8
Layer 1
370
     0
100
AcDbVertex
100
AcDb2dVertex
 10
16.89805474388679
 20
6.773329160904516
 30
0.0
  0
VERTEX
  5
DB
330
98
100
AcDbEntity
  8
Layer 1
370
     0
100
AcDbVertex
100
AcDb2dVertex
 10
16.89805474388679
 20
5.961936504145288
 30
0.0
  0
VERTEX
  5
DC
330
98
100
AcDbEntity
  8
Layer 1
370
     0
100
AcDbVertex
100
AcDb2dVertex
 10
16.9333333291
 20
5.961936504145288
 30
0.0
  0
VERTEX
  5
DD
330
98
100
AcDbEntity
  8
Layer 1
370
     0
100
AcDbVertex
100
AcDb2dVertex
 10
17.003889153786
 20
6.032490983090865
 30
0.0
  0
VERTEX
  5
DE
330
98
100
AcDbEntity
  8
Layer 1
370
     0
100
AcDbVertex
100
AcDb2dVertex
 10
17.07444497847201
 20
6.032490983090865
 30
0.0
  0
VERTEX
  5
DF
330
98
100
AcDbEntity
  8
Layer 1
370
     0
100
AcDbVertex
100
AcDb2dVertex
 10
17.18027804263079
 20
6.103045462036443
 30
0.0
  0
VERTEX
  5
E0
330
98
100
AcDbEntity
  8
Layer 1
370
     0
100
AcDbVertex
100
AcDb2dVertex
 10
17.35666693147559
 20
6.208879871935657
 30
0.0
  0
VERTEX
  5
E1
330
98
100
AcDbEntity
  8
Layer 1
370
     0
100
AcDbVertex
100
AcDb2dVertex
 10
17.42722275616159
 20
6.279434350881234
 30
0.0
  0
VERTEX
  5
E2
330
98
100
AcDbEntity
  8
Layer 1
370
     0
100
AcDbVertex
100
AcDb2dVertex
 10
17.56833440553359
 20
6.279434350881234
 30
0.0
  0
VERTEX
  5
E3
330
98
100
AcDbEntity
  8
Layer 1
370
     0
100
AcDbVertex
100
AcDb2dVertex
 10
17.56833440553359
 20
7.373047614903621
 30
0.0
  0
VERTEX
  5
E4
330
98
100
AcDbEntity
  8
Layer 1
370
     0
100
AcDbVertex
100
AcDb2dVertex
 10
17.5330571660608
 20
7.373047614903621
 30
0.0
  0
VERTEX
  5
E5
330
98
100
AcDbEntity
  8
Layer 1
370
     0
100
AcDbVertex
100
AcDb2dVertex
 10
17.42722410190201
 20
7.302493135958043
 30
0.0
  0
VERTEX
  5
E6
330
98
100
AcDbEntity
  8
Layer 1
370
     0
100
AcDbVertex
100
AcDb2dVertex
 10
17.28611245253001
 20
7.302493135958043
 30
0.0
  0
VERTEX
  5
E7
330
98
100
AcDbEntity
  8
Layer 1
370
     0
100
AcDbVertex
100
AcDb2dVertex
 10
17.18027938837122
 20
7.231938657012466
 30
0.0
  0
VERTEX
  5
E8
330
98
100
AcDbEntity
  8
Layer 1
370
     0
100
AcDbVertex
100
AcDb2dVertex
 10
17.03916773899921
 20
7.161384178066888
 30
0.0
  0
VERTEX
  5
E9
330
98
100
AcDbEntity
  8
Layer 1
370
     0
100
AcDbVertex
100
AcDb2dVertex
 10
16.82750161068163
 20
7.161384178066888
 30
0.0
  0
VERTEX
  5
EA
330
98
100
AcDbEntity
  8
Layer 1
370
     0
100
AcDbVertex
100
AcDb2dVertex
 10
16.82750161068163
 20
6.420551383214933
 30
0.0
  0
VERTEX
  5
EB
330
98
100
AcDbEntity
  8
Layer 1
370
     0
100
AcDbVertex
100
AcDb2dVertex
 10
16.47472383299205
 20
6.420551383214933
 30
0.0
  0
VERTEX
  5
EC
330
98
100
AcDbEntity
  8
Layer 1
370
     0
100
AcDbVertex
100
AcDb2dVertex
 10
16.22777777372083
 20
6.31471428183487
 30
0.0
  0
VERTEX
  5
ED
330
98
100
AcDbEntity
  8
Layer 1
370
     0
100
AcDbVertex
100
AcDb2dVertex
 10
16.22777777372083
 20
6.31471428183487
 30
0.0
  0
VERTEX
  5
EE
330
98
100
AcDbEntity
  8
Layer 1
370
     0
100
AcDbVertex
100
AcDb2dVertex
 10
16.29833359840683
 20
6.526380410152451
 30
0.0
  0
VERTEX
  5
EF
330
98
100
AcDbEntity
  8
Layer 1
370
     0
100
AcDbVertex
100
AcDb2dVertex
 10
16.29833359840683
 20
6.632214820051665
 30
0.0
  0
VERTEX
  5
F0
330
98
100
AcDbEntity
  8
Layer 1
370
     0
100
AcDbVertex
100
AcDb2dVertex
 10
16.12194470956204
 20
6.632214820051665
 30
0.0
  0
VERTEX
  5
F1
330
98
100
AcDbEntity
  8
Layer 1
370
     0
100
AcDbVertex
100
AcDb2dVertex
 10
15.98083306019004
 20
6.561660341106088
 30
0.0
  0
VERTEX
  5
F2
330
98
100
AcDbEntity
  8
Layer 1
370
     0
100
AcDbVertex
100
AcDb2dVertex
 10
15.83972141081804
 20
6.49110586216051
 30
0.0
  0
VERTEX
  5
F3
330
98
100
AcDbEntity
  8
Layer 1
370
     0
100
AcDbVertex
100
AcDb2dVertex
 10
15.73388834665925
 20
6.49110586216051
 30
0.0
  0
VERTEX
  5
F4
330
98
100
AcDbEntity
  8
Layer 1
370
     0
100
AcDbVertex
100
AcDb2dVertex
 10
15.55749945781446
 20
6.596940272059725
 30
0.0
  0
VERTEX
  5
F5
330
98
100
AcDbEntity
  8
Layer 1
370
     0
100
AcDbVertex
100
AcDb2dVertex
 10
15.52222221834167
 20
6.596940272059725
 30
0.0
  0
VERTEX
  5
F6
330
98
100
AcDbEntity
  8
Layer 1
370
     0
100
AcDbVertex
100
AcDb2dVertex
 10
15.52222221834167
 20
6.808606400377305
 30
0.0
  0
VERTEX
  5
F7
330
98
100
AcDbEntity
  8
Layer 1
370
     0
100
AcDbVertex
100
AcDb2dVertex
 10
15.66333386771367
 20
6.808606400377305
 30
0.0
  0
VERTEX
  5
F8
330
98
100
AcDbEntity
  8
Layer 1
370
     0
100
AcDbVertex
100
AcDb2dVertex
 10
15.80444551708567
 20
6.879160879322883
 30
0.0
  0
VERTEX
  5
F9
330
98
100
AcDbEntity
  8
Layer 1
370
     0
100
AcDbVertex
100
AcDb2dVertex
 10
15.94555716645768
 20
6.949715358268461
 30
0.0
  0
VERTEX
  5
FA
330
98
100
AcDbEntity
  8
Layer 1
370
     0
100
AcDbVertex
100
AcDb2dVertex
 10
15.94555716645768
 20
6.949715358268461
 30
0.0
  0
VERTEX
  5
FB
330
98
100
AcDbEntity
  8
Layer 1
370
     0
100
AcDbVertex
100
AcDb2dVertex
 10
15.83972410229889
 20
7.020269837214038
 30
0.0
  0
VERTEX
  5
FC
330
98
100
AcDbEntity
  8
Layer 1
370
     0
100
AcDbVertex
100
AcDb2dVertex
 10
15.66333521345409
 20
7.020269837214038
 30
0.0
  0
VERTEX
  5
FD
330
98
100
AcDbEntity
  8
Layer 1
370
     0
100
AcDbVertex
100
AcDb2dVertex
 10
15.66333521345409
 20
7.725825392593205
 30
0.0
  0
VERTEX
  5
FE
330
98
100
AcDbEntity
  8
Layer 1
370
     0
100
AcDbVertex
100
AcDb2dVertex
 10
15.76916827761288
 20
7.796379871538782
 30
0.0
  0
VERTEX
  5
FF
330
98
100
AcDbEntity
  8
Layer 1
370
     0
100
AcDbVertex
100
AcDb2dVertex
 10
16.08666881582968
 20
7.796379871538782
 30
0.0
  0
VERTEX
  5
100
330
98
100
AcDbEntity
  8
Layer 1
370
     0
100
AcDbVertex
100
AcDb2dVertex
 10
16.26305770467447
 20
7.725825392593205
 30
0.0
  0
VERTEX
  5
101
330
98
100
AcDbEntity
  8
Layer 1
370
     0
100
AcDbVertex
100
AcDb2dVertex
 10
16.36889076883326
 20
7.655270913647627
 30
0.0
  0
VERTEX
  5
102
330
98
100
AcDbEntity
  8
Layer 1
370
     0
100
AcDbVertex
100
AcDb2dVertex
 10
16.72166854652285
 20
7.655270913647627
 30
0.0
  0
VERTEX
  5
103
330
98
100
AcDbEntity
  8
Layer 1
370
     0
100
AcDbVertex
100
AcDb2dVertex
 10
16.79222437120885
 20
7.725825392593205
 30
0.0
  0
VERTEX
  5
104
330
98
100
AcDbEntity
  8
Layer 1
370
     0
100
AcDbVertex
100
AcDb2dVertex
 10
16.89805743536764
 20
7.725825392593205
 30
0.0
  0
VERTEX
  5
105
330
98
100
AcDbEntity
  8
Layer 1
370
     0
100
AcDbVertex
100
AcDb2dVertex
 10
17.07444632421243
 20
7.831659802492418
 30
0.0
  0
VERTEX
  5
106
330
98
100
AcDbEntity
  8
Layer 1
370
     0
100
AcDbVertex
100
AcDb2dVertex
 10
17.28611245253001
 20
7.831659802492418
 30
0.0
  0
VERTEX
  5
107
330
98
100
AcDbEntity
  8
Layer 1
370
     0
100
AcDbVertex
100
AcDb2dVertex
 10
17.21555662784401
 20
7.902214281437996
 30
0.0
  0
VERTEX
  5
108
330
98
100
AcDbEntity
  8
Layer 1
370
     0
100
AcDbVertex
100
AcDb2dVertex
 10
17.14500080315801
 20
7.902214281437996
 30
0.0
  0
VERTEX
  5
109
330
98
100
AcDbEntity
  8
Layer 1
370
     0
100
AcDbVertex
100
AcDb2dVertex
 10
17.07444497847201
 20
7.972768760383573
 30
0.0
  0
VERTEX
  5
10A
330
98
100
AcDbEntity
  8
Layer 1
370
     0
100
AcDbVertex
100
AcDb2dVertex
 10
16.82750026494121
 20
7.972768760383573
 30
0.0
  0
VERTEX
  5
10B
330
98
100
AcDbEntity
  8
Layer 1
370
     0
100
AcDbVertex
100
AcDb2dVertex
 10
16.68638861556921
 20
8.078603170282788
 30
0.0
  0
VERTEX
  5
10C
330
98
100
AcDbEntity
  8
Layer 1
370
     0
100
AcDbVertex
100
AcDb2dVertex
 10
16.58055555141042
 20
8.149157649228366
 30
0.0
  0
VERTEX
  5
10D
330
98
100
AcDbEntity
  8
Layer 1
370
     0
100
AcDbVertex
100
AcDb2dVertex
 10
16.26305501319362
 20
8.149157649228366
 30
0.0
  0
VERTEX
  5
10E
330
98
100
AcDbEntity
  8
Layer 1
370
     0
100
AcDbVertex
100
AcDb2dVertex
 10
16.05138888487604
 20
8.078603170282788
 30
0.0
  0
VERTEX
  5
10F
330
98
100
AcDbEntity
  8
Layer 1
370
     0
100
AcDbVertex
100
AcDb2dVertex
 10
15.73388834665925
 20
8.078603170282788
 30
0.0
  0
VERTEX
  5
110
330
98
100
AcDbEntity
  8
Layer 1
370
     0
100
AcDbVertex
100
AcDb2dVertex
 10
15.66333252197325
 20
8.149157649228366
 30
0.0
  0
VERTEX
  5
111
330
98
100
AcDbEntity
  8
Layer 1
370
     0
100
AcDbVertex
100
AcDb2dVertex
 10
15.59277669728725
 20
8.254992059127579
 30
0.0
  0
VERTEX
  5
112
330
98
100
AcDbEntity
  8
Layer 1
370
     0
100
AcDbVertex
100
AcDb2dVertex
 10
15.59277669728725
 20
8.431380947972372
 30
0.0
  0
VERTEX
  5
113
330
98
100
AcDbEntity
  8
Layer 1
370
     0
100
AcDbVertex
100
AcDb2dVertex
 10
15.91027723550404
 20
8.431380947972372
 30
0.0
  0
VERTEX
  5
114
330
98
100
AcDbEntity
  8
Layer 1
370
     0
100
AcDbVertex
100
AcDb2dVertex
 10
15.80444417134525
 20
8.501935426917948
 30
0.0
  0
VERTEX
  5
115
330
98
100
AcDbEntity
  8
Layer 1
370
     0
100
AcDbVertex
100
AcDb2dVertex
 10
15.69861110718646
 20
8.572489905863526
 30
0.0
  0
VERTEX
  5
116
330
98
100
AcDbEntity
  8
Layer 1
370
     0
100
AcDbVertex
100
AcDb2dVertex
 10
15.59277804302767
 20
8.572489905863526
 30
0.0
  0
VERTEX
  5
117
330
98
100
AcDbEntity
  8
Layer 1
370
     0
100
AcDbVertex
100
AcDb2dVertex
 10
15.59277804302767
 20
8.784156034181107
 30
0.0
  0
VERTEX
  5
118
330
98
100
AcDbEntity
  8
Layer 1
370
     0
100
AcDbVertex
100
AcDb2dVertex
 10
15.66333386771367
 20
8.784156034181107
 30
0.0
  0
VERTEX
  5
119
330
98
100
AcDbEntity
  8
Layer 1
370
     0
100
AcDbVertex
100
AcDb2dVertex
 10
15.80444551708567
 20
8.854710513126683
 30
0.0
  0
VERTEX
  5
11A
330
98
100
AcDbEntity
  8
Layer 1
370
     0
100
AcDbVertex
100
AcDb2dVertex
 10
15.91027858124446
 20
8.854710513126683
 30
0.0
  0
VERTEX
  5
11B
330
98
100
AcDbEntity
  8
Layer 1
370
     0
100
AcDbVertex
100
AcDb2dVertex
 10
16.12194470956204
 20
8.713598863754681
 30
0.0
  0
VERTEX
  5
11C
330
98
100
AcDbEntity
  8
Layer 1
370
     0
100
AcDbVertex
100
AcDb2dVertex
 10
16.26305635893405
 20
8.713598863754681
 30
0.0
  0
VERTEX
  5
11D
330
98
100
AcDbEntity
  8
Layer 1
370
     0
100
AcDbVertex
100
AcDb2dVertex
 10
16.26305635893405
 20
9.031099401971476
 30
0.0
  0
VERTEX
  5
11E
330
98
100
AcDbEntity
  8
Layer 1
370
     0
100
AcDbVertex
100
AcDb2dVertex
 10
16.26305635893405
 20
9.031099401971476
 30
0.0
  0
VERTEX
  5
11F
330
98
100
AcDbEntity
  8
Layer 1
370
     0
100
AcDbVertex
100
AcDb2dVertex
 10
16.40416800830605
 20
9.13693381187069
 30
0.0
  0
VERTEX
  5
120
330
98
100
AcDbEntity
  8
Layer 1
370
     0
100
AcDbVertex
100
AcDb2dVertex
 10
16.75694578599563
 20
9.13693381187069
 30
0.0
  0
VERTEX
  5
121
330
98
100
AcDbEntity
  8
Layer 1
370
     0
100
AcDbVertex
100
AcDb2dVertex
 10
16.75694578599563
 20
8.396101017018735
 30
0.0
  0
VERTEX
  5
122
330
98
100
AcDbEntity
  8
Layer 1
370
     0
100
AcDbVertex
100
AcDb2dVertex
 10
16.79222302546842
 20
8.396101017018735
 30
0.0
  0
VERTEX
  5
123
330
98
100
AcDbEntity
  8
Layer 1
370
     0
100
AcDbVertex
100
AcDb2dVertex
 10
16.79222302546842
 20
8.325546538073157
 30
0.0
  0
VERTEX
  5
124
330
98
100
AcDbEntity
  8
Layer 1
370
     0
100
AcDbVertex
100
AcDb2dVertex
 10
16.89805608962721
 20
8.325546538073157
 30
0.0
  0
VERTEX
  5
125
330
98
100
AcDbEntity
  8
Layer 1
370
     0
100
AcDbVertex
100
AcDb2dVertex
 10
16.96861191431321
 20
8.254992059127579
 30
0.0
  0
VERTEX
  5
126
330
98
100
AcDbEntity
  8
Layer 1
370
     0
100
AcDbVertex
100
AcDb2dVertex
 10
17.18027804263079
 20
8.113880409755577
 30
0.0
  0
VERTEX
  5
127
330
98
100
AcDbEntity
  8
Layer 1
370
     0
100
AcDbVertex
100
AcDb2dVertex
 10
17.28611110678958
 20
8.04332593081
 30
0.0
  0
VERTEX
  5
128
330
98
100
AcDbEntity
  8
Layer 1
370
     0
100
AcDbVertex
100
AcDb2dVertex
 10
17.39194417094837
 20
7.972771451864421
 30
0.0
  0
VERTEX
  5
129
330
98
100
AcDbEntity
  8
Layer 1
370
     0
100
AcDbVertex
100
AcDb2dVertex
 10
17.53305582032038
 20
7.972771451864421
 30
0.0
  0
VERTEX
  5
12A
330
98
100
AcDbEntity
  8
Layer 1
370
     0
100
AcDbVertex
100
AcDb2dVertex
 10
17.53305582032038
 20
8.713604246716377
 30
0.0
  0
VERTEX
  5
12B
330
98
100
AcDbEntity
  8
Layer 1
370
     0
100
AcDbVertex
100
AcDb2dVertex
 10
17.63888888447917
 20
8.713604246716377
 30
0.0
  0
VERTEX
  5
12C
330
98
100
AcDbEntity
  8
Layer 1
370
     0
100
AcDbVertex
100
AcDb2dVertex
 10
17.56833305979317
 20
8.784158725661955
 30
0.0
  0
VERTEX
  5
12D
330
98
100
AcDbEntity
  8
Layer 1
370
     0
100
AcDbVertex
100
AcDb2dVertex
 10
17.25083252157637
 20
9.06638202440596
 30
0.0
  0
VERTEX
  5
12E
330
98
100
AcDbEntity
  8
Layer 1
370
     0
100
AcDbVertex
100
AcDb2dVertex
 10
17.18027669689037
 20
9.06638202440596
 30
0.0
  0
VERTEX
  5
12F
330
98
100
AcDbEntity
  8
Layer 1
370
     0
100
AcDbVertex
100
AcDb2dVertex
 10
17.18027669689037
 20
9.136936503351537
 30
0.0
  0
VERTEX
  5
130
330
98
100
AcDbEntity
  8
Layer 1
370
     0
100
AcDbVertex
100
AcDb2dVertex
 10
17.14499945741758
 20
9.136936503351537
 30
0.0
  0
VERTEX
  5
131
330
98
100
AcDbEntity
  8
Layer 1
370
     0
100
AcDbVertex
100
AcDb2dVertex
 10
17.14499945741758
 20
9.383879871141907
 30
0.0
  0
VERTEX
  5
132
330
98
100
AcDbEntity
  8
Layer 1
370
     0
100
AcDbVertex
100
AcDb2dVertex
 10
17.46249999563437
 20
9.383879871141907
 30
0.0
  0
VERTEX
  5
133
330
98
100
AcDbEntity
  8
Layer 1
370
     0
100
AcDbVertex
100
AcDb2dVertex
 10
17.56833305979317
 20
9.31332539219633
 30
0.0
  0
VERTEX
  5
134
330
98
100
AcDbEntity
  8
Layer 1
370
     0
100
AcDbVertex
100
AcDb2dVertex
 10
17.63888888447917
 20
9.242770913250752
 30
0.0
  0
VERTEX
  5
135
330
98
100
AcDbEntity
  8
Layer 1
370
     0
100
AcDbVertex
100
AcDb2dVertex
 10
17.74472194863796
 20
9.242770913250752
 30
0.0
  0
VERTEX
  5
136
330
98
100
AcDbEntity
  8
Layer 1
370
     0
100
AcDbVertex
100
AcDb2dVertex
 10
17.74472194863796
 20
10.26582431536587
 30
0.0
  0
VERTEX
  5
137
330
98
100
AcDbEntity
  8
Layer 1
370
     0
100
AcDbVertex
100
AcDb2dVertex
 10
17.74472194863796
 20
10.26582431536587
 30
0.0
  0
VERTEX
  5
138
330
98
100
AcDbEntity
  8
Layer 1
370
     0
100
AcDbVertex
100
AcDb2dVertex
 10
17.74472194863796
 20
10.33637879431144
 30
0.0
  0
VERTEX
  5
139
330
98
100
AcDbEntity
  8
Layer 1
370
     0
100
AcDbVertex
100
AcDb2dVertex
 10
18.09749972632754
 20
10.33637879431144
 30
0.0
  0
VERTEX
  5
13A
330
98
100
AcDbEntity
  8
Layer 1
370
     0
100
AcDbVertex
100
AcDb2dVertex
 10
18.27388861517233
 20
10.23054438441223
 30
0.0
  0
VERTEX
  5
13B
330
98
100
AcDbEntity
  8
Layer 1
370
     0
100
AcDbVertex
100
AcDb2dVertex
 10
18.27388861517233
 20
10.23054438441223
 30
0.0
  0
VERTEX
  5
13C
330
98
100
AcDbEntity
  8
Layer 1
370
     0
100
AcDbVertex
100
AcDb2dVertex
 10
18.27388861517233
 20
9.701377717877854
 30
0.0
  0
VERTEX
  5
13D
330
98
100
AcDbEntity
  8
Layer 1
370
     0
100
AcDbVertex
100
AcDb2dVertex
 10
18.41500026454434
 20
9.701377717877854
 30
0.0
  0
VERTEX
  5
13E
330
98
100
AcDbEntity
  8
Layer 1
370
     0
100
AcDbVertex
100
AcDb2dVertex
 10
18.52083332870313
 20
9.771932196823432
 30
0.0
  0
VERTEX
  5
13F
330
98
100
AcDbEntity
  8
Layer 1
370
     0
100
AcDbVertex
100
AcDb2dVertex
 10
18.59138915338913
 20
9.842486675769008
 30
0.0
  0
VERTEX
  5
140
330
98
100
AcDbEntity
  8
Layer 1
370
     0
100
AcDbVertex
100
AcDb2dVertex
 10
18.73250080276113
 20
9.842486675769008
 30
0.0
  0
VERTEX
  5
141
330
98
100
AcDbEntity
  8
Layer 1
370
     0
100
AcDbVertex
100
AcDb2dVertex
 10
18.83833386691992
 20
9.771932196823432
 30
0.0
  0
VERTEX
  5
142
330
98
100
AcDbEntity
  8
Layer 1
370
     0
100
AcDbVertex
100
AcDb2dVertex
 10
18.87361110639271
 20
9.771932196823432
 30
0.0
  0
VERTEX
  5
143
330
98
100
AcDbEntity
  8
Layer 1
370
     0
100
AcDbVertex
100
AcDb2dVertex
 10
18.87361110639271
 20
9.56026606850585
 30
0.0
  0
VERTEX
  5
144
330
98
100
AcDbEntity
  8
Layer 1
370
     0
100
AcDbVertex
100
AcDb2dVertex
 10
18.69722221754792
 20
9.56026606850585
 30
0.0
  0
VERTEX
  5
145
330
98
100
AcDbEntity
  8
Layer 1
370
     0
100
AcDbVertex
100
AcDb2dVertex
 10
18.62666639286192
 20
9.489711589560272
 30
0.0
  0
VERTEX
  5
146
330
98
100
AcDbEntity
  8
Layer 1
370
     0
100
AcDbVertex
100
AcDb2dVertex
 10
18.45027750401712
 20
9.34859994018827
 30
0.0
  0
VERTEX
  5
147
330
98
100
AcDbEntity
  8
Layer 1
370
     0
100
AcDbVertex
100
AcDb2dVertex
 10
18.23861137569954
 20
9.34859994018827
 30
0.0
  0
VERTEX
  5
148
330
98
100
AcDbEntity
  8
Layer 1
370
     0
100
AcDbVertex
100
AcDb2dVertex
 10
18.23861137569954
 20
8.678321624281892
 30
0.0
  0
VERTEX
  5
149
330
98
100
AcDbEntity
  8
Layer 1
370
     0
100
AcDbVertex
100
AcDb2dVertex
 10
18.52083332870313
 20
8.678321624281892
 30
0.0
  0
VERTEX
  5
14A
330
98
100
AcDbEntity
  8
Layer 1
370
     0
100
AcDbVertex
100
AcDb2dVertex
 10
18.7324994570207
 20
8.819433273653896
 30
0.0
  0
VERTEX
  5
14B
330
98
100
AcDbEntity
  8
Layer 1
370
     0
100
AcDbVertex
100
AcDb2dVertex
 10
18.94416558533829
 20
8.819433273653896
 30
0.0
  0
VERTEX
  5
14C
330
98
100
AcDbEntity
  8
Layer 1
370
     0
100
AcDbVertex
100
AcDb2dVertex
 10
19.01472141002429
 20
8.889987752599472
 30
0.0
  0
VERTEX
  5
14D
330
98
100
AcDbEntity
  8
Layer 1
370
     0
100
AcDbVertex
100
AcDb2dVertex
 10
19.0499999952375
 20
8.889987752599472
 30
0.0
  0
VERTEX
  5
14E
330
98
100
AcDbEntity
  8
Layer 1
370
     0
100
AcDbVertex
100
AcDb2dVertex
 10
19.0499999952375
 20
9.172211051343478
 30
0.0
  0
VERTEX
  5
14F
330
98
100
AcDbEntity
  8
Layer 1
370
     0
100
AcDbVertex
100
AcDb2dVertex
 10
19.1205558199235
 20
9.38387717966106
 30
0.0
  0
VERTEX
  5
150
330
98
100
AcDbEntity
  8
Layer 1
370
     0
100
AcDbVertex
100
AcDb2dVertex
 10
19.1205558199235
 20
9.48971428104112
 30
0.0
  0
VERTEX
  5
151
330
98
100
AcDbEntity
  8
Layer 1
370
     0
100
AcDbVertex
100
AcDb2dVertex
 10
19.4380563581403
 20
9.48971428104112
 30
0.0
  0
VERTEX
  5
152
330
98
100
AcDbEntity
  8
Layer 1
370
     0
100
AcDbVertex
100
AcDb2dVertex
 10
19.5086121828263
 20
9.419159802095544
 30
0.0
  0
VERTEX
  5
153
330
98
100
AcDbEntity
  8
Layer 1
370
     0
100
AcDbVertex
100
AcDb2dVertex
 10
19.5791680075123
 20
9.348605323149966
 30
0.0
  0
VERTEX
  5
154
330
98
100
AcDbEntity
  8
Layer 1
370
     0
100
AcDbVertex
100
AcDb2dVertex
 10
19.61444524698509
 20
9.348605323149966
 30
0.0
  0
VERTEX
  5
155
330
98
100
AcDbEntity
  8
Layer 1
370
     0
100
AcDbVertex
100
AcDb2dVertex
 10
19.61444524698509
 20
9.031104784933172
 30
0.0
  0
VERTEX
  5
156
330
98
100
AcDbEntity
  8
Layer 1
370
     0
100
AcDbVertex
100
AcDb2dVertex
 10
19.68500107167109
 20
9.031104784933172
 30
0.0
  0
VERTEX
  5
157
330
98
100
AcDbEntity
  8
Layer 1
370
     0
100
AcDbVertex
100
AcDb2dVertex
 10
19.93194578520188
 20
9.136939194832385
 30
0.0
  0
VERTEX
  5
158
330
98
100
AcDbEntity
  8
Layer 1
370
     0
100
AcDbVertex
100
AcDb2dVertex
 10
20.03777884936067
 20
9.136939194832385
 30
0.0
  0
VERTEX
  5
159
330
98
100
AcDbEntity
  8
Layer 1
370
     0
100
AcDbVertex
100
AcDb2dVertex
 10
20.10833467404667
 20
9.066384715886809
 30
0.0
  0
VERTEX
  5
15A
330
98
100
AcDbEntity
  8
Layer 1
370
     0
100
AcDbVertex
100
AcDb2dVertex
 10
20.21416773820546
 20
8.99583023694123
 30
0.0
  0
VERTEX
  5
15B
330
98
100
AcDbEntity
  8
Layer 1
370
     0
100
AcDbVertex
100
AcDb2dVertex
 10
20.24944497767826
 20
8.99583023694123
 30
0.0
  0
VERTEX
  5
15C
330
98
100
AcDbEntity
  8
Layer 1
370
     0
100
AcDbVertex
100
AcDb2dVertex
 10
20.24944497767826
 20
8.819441348096438
 30
0.0
  0
VERTEX
  5
15D
330
98
100
AcDbEntity
  8
Layer 1
370
     0
100
AcDbVertex
100
AcDb2dVertex
 10
20.28472087141062
 20
8.81943865661559
 30
0.0
  0
SEQEND
  5
15E
330
98
100
AcDbEntity
  8
Layer 1
370
     0
  0
SPLINE
  5
15F
330
49
100
AcDbEntity
  8
Layer 1
370
     0
100
AcDbSpline
210
0.0
220
0.0
230
1.0
 70
    11
 71
     3
 72
    29
 73
    25
 74
     0
 42
0.0000000001
 43
0.0000000001
 12
1.0
 22
0.0
 32
0.0
 13
1.0
 23
0.0
 33
0.0
 40
0.0
 40
0.0
 40
0.0
 40
0.0
 40
1.0
 40
1.0
 40
1.0
 40
2.0
 40
2.0
 40
2.0
 40
3.0
 40
3.0
 40
3.0
 40
4.0
 40
4.0
 40
4.0
 40
5.0
 40
5.0
 40
5.0
 40
6.0
 40
6.0
 40
6.0
 40
7.0
 40
7.0
 40
7.0
 40
8.0
 40
8.0
 40
8.0
 40
8.0
 10
17.32138834626237
 20
15.31054761291925
 30
0.0
 10
17.46504613651644
 20
14.90294167887808
 30
0.0
 10
17.84211049163661
 20
14.62363594537315
 30
0.0
 10
18.27388861517233
 20
14.60499205754008
 30
0.0
 10
18.55334507160475
 20
14.60964293644517
 30
0.0
 10
18.82911285353518
 20
14.66959028936936
 30
0.0
 10
19.08527723471029
 20
14.78138094638487
 30
0.0
 10
19.29694336302787
 20
15.20471320302003
 30
0.0
 10
19.29694336302787
 20
15.20471320302003
 30
0.0
 10
19.43805501239987
 20
15.27527037344646
 30
0.0
 10
19.53998273784843
 20
15.26622699779768
 30
0.0
 10
19.63753546117881
 20
15.22964439011368
 30
0.0
 10
19.72027696540345
 20
15.16943596354724
 30
0.0
 10
19.50250790426337
 20
14.56648504104987
 30
0.0
 10
18.91382721322131
 20
14.17881759712959
 30
0.0
 10
18.27388861517233
 20
14.21693704037771
 30
0.0
 10
18.27388861517233
 20
14.21693704037771
 30
0.0
 10
17.56833305979317
 20
14.21693704037771
 30
0.0
 10
17.56833305979317
 20
14.21693704037771
 30
0.0
 10
17.26667054062555
 20
14.50725093055035
 30
0.0
 10
17.04753286147434
 20
14.8724794986421
 30
0.0
 10
16.9333333291
 20
15.27527037344646
 30
0.0
 10
17.03941266375637
 20
15.37435454937926
 30
0.0
 10
17.19918031262526
 20
15.38887778003427
 30
0.0
 10
17.32138834626237
 20
15.31054761291925
 30
0.0
  0
SPLINE
  5
160
330
49
100
AcDbEntity
  8
Layer 1
370
     0
100
AcDbSpline
210
0.0
220
0.0
230
1.0
 70
    11
 71
     3
 72
    20
 73
    16
 74
     0
 42
0.0000000001
 43
0.0000000001
 12
1.0
 22
0.0
 32
0.0
 13
1.0
 23
0.0
 33
0.0
 40
0.0
 40
0.0
 40
0.0
 40
0.0
 40
1.0
 40
1.0
 40
1.0
 40
2.0
 40
2.0
 40
2.0
 40
3.0
 40
3.0
 40
3.0
 40
4.0
 40
4.0
 40
4.0
 40
5.0
 40
5.0
 40
5.0
 40
5.0
 10
17.07444497847201
 20
16.54526983483279
 30
0.0
 10
17.15019536119436
 20
16.76645842239007
 30
0.0
 10
17.39091333378365
 20
16.8843587409302
 30
0.0
 10
17.61210192134093
 20
16.80860970394827
 30
0.0
 10
17.74814012931473
 20
16.76202017047196
 30
0.0
 10
17.85122653726829
 20
16.64956202620618
 30
0.0
 10
17.88583359800996
 20
16.50999259536
 30
0.0
 10
17.87493982927828
 20
16.36557580750684
 30
0.0
 10
17.79646835941875
 20
16.23478867866719
 30
0.0
 10
17.67416746969238
 20
16.15721481767041
 30
0.0
 10
17.67416746969238
 20
16.15721481767041
 30
0.0
 10
17.2508338673168
 20
16.15721481767041
 30
0.0
 10
17.2508338673168
 20
16.15721481767041
 30
0.0
 10
17.14023553631688
 20
16.25611866438641
 30
0.0
 10
17.07623885045709
 20
16.39691002753752
 30
0.0
 10
17.07444497847201
 20
16.54526983483279
 30
0.0
  0
SPLINE
  5
161
330
49
100
AcDbEntity
  8
Layer 1
370
     0
100
AcDbSpline
210
0.0
220
0.0
230
1.0
 70
    11
 71
     3
 72
    23
 73
    19
 74
     0
 42
0.0000000001
 43
0.0000000001
 12
1.0
 22
0.0
 32
0.0
 13
1.0
 23
0.0
 33
0.0
 40
0.0
 40
0.0
 40
0.0
 40
0.0
 40
1.0
 40
1.0
 40
1.0
 40
2.0
 40
2.0
 40
2.0
 40
3.0
 40
3.0
 40
3.0
 40
4.0
 40
4.0
 40
4.0
 40
5.0
 40
5.0
 40
5.0
 40
6.0
 40
6.0
 40
6.0
 40
6.0
 10
19.57916666177188
 20
16.0513804077712
 30
0.0
 10
19.57916666177188
 20
16.0513804077712
 30
0.0
 10
19.15583305939629
 20
16.0513804077712
 30
0.0
 10
19.15583305939629
 20
16.0513804077712
 30
0.0
 10
19.05150049581018
 20
16.15476826157972
 30
0.0
 10
18.98873650817871
 20
16.29284930351704
 30
0.0
 10
18.9794441705515
 20
16.43943542493357
 30
0.0
 10
19.01422886902913
 20
16.64534716719845
 30
0.0
 10
19.19396999726992
 20
16.79513076786223
 30
0.0
 10
19.40277777292708
 20
16.79221320262316
 30
0.0
 10
19.59652267601924
 20
16.81278419074329
 30
0.0
 10
19.7702604562289
 20
16.67240193268105
 30
0.0
 10
19.79083279008946
 20
16.47865568384847
 30
0.0
 10
19.79346236687781
 20
16.45389406004823
 30
0.0
 10
19.79346236687781
 20
16.42892250074187
 30
0.0
 10
19.79083279008946
 20
16.40415818546078
 30
0.0
 10
19.77993902135778
 20
16.25974139760762
 30
0.0
 10
19.70146755149824
 20
16.12895426876798
 30
0.0
 10
19.57916666177188
 20
16.0513804077712
 30
0.0
  0
SPLINE
  5
162
330
49
100
AcDbEntity
  8
Layer 1
370
     0
100
AcDbSpline
210
0.0
220
0.0
230
1.0
 70
    11
 71
     3
 72
    26
 73
    22
 74
     0
 42
0.0000000001
 43
0.0000000001
 12
1.0
 22
0.0
 32
0.0
 13
1.0
 23
0.0
 33
0.0
 40
0.0
 40
0.0
 40
0.0
 40
0.0
 40
1.0
 40
1.0
 40
1.0
 40
2.0
 40
2.0
 40
2.0
 40
3.0
 40
3.0
 40
3.0
 40
4.0
 40
4.0
 40
4.0
 40
5.0
 40
5.0
 40
5.0
 40
6.0
 40
6.0
 40
6.0
 40
7.0
 40
7.0
 40
7.0
 40
7.0
 10
18.87361110639271
 20
20.84915764605337
 30
0.0
 10
18.87361110639271
 20
20.84915764605337
 30
0.0
 10
18.45027750401712
 20
20.84915764605337
 30
0.0
 10
18.45027750401712
 20
20.84915764605337
 30
0.0
 10
18.39232588414161
 20
20.87391119541105
 30
0.0
 10
18.35198193197274
 20
20.92770313163621
 30
0.0
 10
18.34444443985834
 20
20.99026929542537
 30
0.0
 10
18.34444443985834
 20
20.99026929542537
 30
0.0
 10
18.55611056817591
 20
20.99026929542537
 30
0.0
 10
18.55611056817591
 20
20.99026929542537
 30
0.0
 10
18.5913878076487
 20
20.99026929542537
 30
0.0
 10
18.62666639286192
 20
20.99026929542537
 30
0.0
 10
18.62666639286192
 20
21.06082377437095
 30
0.0
 10
18.62666639286192
 20
21.06082377437095
 30
0.0
 10
18.87361110639271
 20
21.51943596195974
 30
0.0
 10
18.87361110639271
 20
21.51943596195974
 30
0.0
 10
19.00040407765414
 20
21.44633803361295
 30
0.0
 10
19.0804460265884
 20
21.31293478538919
 30
0.0
 10
19.08527723471029
 20
21.16665818427016
 30
0.0
 10
19.04224449317442
 20
21.04485790998149
 30
0.0
 10
18.96948972863572
 20
20.93572643604366
 30
0.0
 10
18.87361110639271
 20
20.84915764605337
 30
0.0
  0
SPLINE
  5
163
330
49
100
AcDbEntity
  8
Layer 1
370
     0
100
AcDbSpline
210
0.0
220
0.0
230
1.0
 70
    11
 71
     3
 72
    32
 73
    28
 74
     0
 42
0.0000000001
 43
0.0000000001
 12
1.0
 22
0.0
 32
0.0
 13
1.0
 23
0.0
 33
0.0
 40
0.0
 40
0.0
 40
0.0
 40
0.0
 40
1.0
 40
1.0
 40
1.0
 40
2.0
 40
2.0
 40
2.0
 40
3.0
 40
3.0
 40
3.0
 40
4.0
 40
4.0
 40
4.0
 40
5.0
 40
5.0
 40
5.0
 40
6.0
 40
6.0
 40
6.0
 40
7.0
 40
7.0
 40
7.0
 40
8.0
 40
8.0
 40
8.0
 40
9.0
 40
9.0
 40
9.0
 40
9.0
 10
13.72305609042096
 20
23.49499232446566
 30
0.0
 10
13.72305609042096
 20
23.49499232446566
 30
0.0
 10
13.44083413741738
 20
22.8599925937725
 30
0.0
 10
13.44083413741738
 20
22.8599925937725
 30
0.0
 10
13.0175005350418
 20
22.08388121370733
 30
0.0
 10
12.70000134256543
 20
21.73110478175817
 30
0.0
 10
12.45305662903463
 20
21.73110478175817
 30
0.0
 10
12.20611191550384
 20
21.73110478175817
 30
0.0
 10
12.34722356487584
 20
21.76638202123096
 30
0.0
 10
12.27666774018984
 20
21.83693784591696
 30
0.0
 10
12.2453981156995
 20
21.91526532155114
 30
0.0
 10
12.23330260076926
 20
21.99993258032242
 30
0.0
 10
12.24139050071705
 20
22.08388255944775
 30
0.0
 10
12.25577242862754
 20
22.37356395162116
 30
0.0
 10
12.31528510739481
 20
22.65922561714829
 30
0.0
 10
12.41777938956184
 20
22.93054976419893
 30
0.0
 10
12.53193316676177
 20
23.25008102471542
 30
0.0
 10
12.69887899505187
 20
23.54819886360642
 30
0.0
 10
12.91166881662343
 20
23.81249420842288
 30
0.0
 10
13.08805770546822
 20
24.05943892195368
 30
0.0
 10
13.26444659431301
 20
24.20054922558526
 30
0.0
 10
13.4408354831578
 20
24.20054922558526
 30
0.0
 10
13.6172243720026
 20
24.20054922558526
 30
0.0
 10
13.6172243720026
 20
24.12999340089925
 30
0.0
 10
13.65250161147538
 20
23.98888309726767
 30
0.0
 10
13.71789248441436
 20
23.83300194674309
 30
0.0
 10
13.74218579054707
 20
23.66294745807371
 30
0.0
 10
13.72305609042096
 20
23.49499232446566
 30
0.0
  0
SPLINE
  5
164
330
49
100
AcDbEntity
  8
Layer 1
370
     0
100
AcDbSpline
210
0.0
220
0.0
230
1.0
 70
    11
 71
     3
 72
   377
 73
   373
 74
     0
 42
0.0000000001
 43
0.0000000001
 12
1.0
 22
0.0
 32
0.0
 13
1.0
 23
0.0
 33
0.0
 40
0.0
 40
0.0
 40
0.0
 40
0.0
 40
1.0
 40
1.0
 40
1.0
 40
2.0
 40
2.0
 40
2.0
 40
3.0
 40
3.0
 40
3.0
 40
4.0
 40
4.0
 40
4.0
 40
5.0
 40
5.0
 40
5.0
 40
6.0
 40
6.0
 40
6.0
 40
7.0
 40
7.0
 40
7.0
 40
8.0
 40
8.0
 40
8.0
 40
9.0
 40
9.0
 40
9.0
 40
10.0
 40
10.0
 40
10.0
 40
11.0
 40
11.0
 40
11.0
 40
12.0
 40
12.0
 40
12.0
 40
13.0
 40
13.0
 40
13.0
 40
14.0
 40
14.0
 40
14.0
 40
15.0
 40
15.0
 40
15.0
 40
16.0
 40
16.0
 40
16.0
 40
17.0
 40
17.0
 40
17.0
 40
18.0
 40
18.0
 40
18.0
 40
19.0
 40
19.0
 40
19.0
 40
20.0
 40
20.0
 40
20.0
 40
21.0
 40
21.0
 40
21.0
 40
22.0
 40
22.0
 40
22.0
 40
23.0
 40
23.0
 40
23.0
 40
24.0
 40
24.0
 40
24.0
 40
25.0
 40
25.0
 40
25.0
 40
26.0
 40
26.0
 40
26.0
 40
27.0
 40
27.0
 40
27.0
 40
28.0
 40
28.0
 40
28.0
 40
29.0
 40
29.0
 40
29.0
 40
30.0
 40
30.0
 40
30.0
 40
31.0
 40
31.0
 40
31.0
 40
32.0
 40
32.0
 40
32.0
 40
33.0
 40
33.0
 40
33.0
 40
34.0
 40
34.0
 40
34.0
 40
35.0
 40
35.0
 40
35.0
 40
36.0
 40
36.0
 40
36.0
 40
37.0
 40
37.0
 40
37.0
 40
38.0
 40
38.0
 40
38.0
 40
39.0
 40
39.0
 40
39.0
 40
40.0
 40
40.0
 40
40.0
 40
41.0
 40
41.0
 40
41.0
 40
42.0
 40
42.0
 40
42.0
 40
43.0
 40
43.0
 40
43.0
 40
44.0
 40
44.0
 40
44.0
 40
45.0
 40
45.0
 40
45.0
 40
46.0
 40
46.0
 40
46.0
 40
47.0
 40
47.0
 40
47.0
 40
48.0
 40
48.0
 40
48.0
 40
49.0
 40
49.0
 40
49.0
 40
50.0
 40
50.0
 40
50.0
 40
51.0
 40
51.0
 40
51.0
 40
52.0
 40
52.0
 40
52.0
 40
53.0
 40
53.0
 40
53.0
 40
54.0
 40
54.0
 40
54.0
 40
55.0
 40
55.0
 40
55.0
 40
56.0
 40
56.0
 40
56.0
 40
57.0
 40
57.0
 40
57.0
 40
58.0
 40
58.0
 40
58.0
 40
59.0
 40
59.0
 40
59.0
 40
60.0
 40
60.0
 40
60.0
 40
61.0
 40
61.0
 40
61.0
 40
62.0
 40
62.0
 40
62.0
 40
63.0
 40
63.0
 40
63.0
 40
64.0
 40
64.0
 40
64.0
 40
65.0
 40
65.0
 40
65.0
 40
66.0
 40
66.0
 40
66.0
 40
67.0
 40
67.0
 40
67.0
 40
68.0
 40
68.0
 40
68.0
 40
69.0
 40
69.0
 40
69.0
 40
70.0
 40
70.0
 40
70.0
 40
71.0
 40
71.0
 40
71.0
 40
72.0
 40
72.0
 40
72.0
 40
73.0
 40
73.0
 40
73.0
 40
74.0
 40
74.0
 40
74.0
 40
75.0
 40
75.0
 40
75.0
 40
76.0
 40
76.0
 40
76.0
 40
77.0
 40
77.0
 40
77.0
 40
78.0
 40
78.0
 40
78.0
 40
79.0
 40
79.0
 40
79.0
 40
80.0
 40
80.0
 40
80.0
 40
81.0
 40
81.0
 40
81.0
 40
82.0
 40
82.0
 40
82.0
 40
83.0
 40
83.0
 40
83.0
 40
84.0
 40
84.0
 40
84.0
 40
85.0
 40
85.0
 40
85.0
 40
86.0
 40
86.0
 40
86.0
 40
87.0
 40
87.0
 40
87.0
 40
88.0
 40
88.0
 40
88.0
 40
89.0
 40
89.0
 40
89.0
 40
90.0
 40
90.0
 40
90.0
 40
91.0
 40
91.0
 40
91.0
 40
92.0
 40
92.0
 40
92.0
 40
93.0
 40
93.0
 40
93.0
 40
94.0
 40
94.0
 40
94.0
 40
95.0
 40
95.0
 40
95.0
 40
96.0
 40
96.0
 40
96.0
 40
97.0
 40
97.0
 40
97.0
 40
98.0
 40
98.0
 40
98.0
 40
99.0
 40
99.0
 40
99.0
 40
100.0
 40
100.0
 40
100.0
 40
101.0
 40
101.0
 40
101.0
 40
102.0
 40
102.0
 40
102.0
 40
103.0
 40
103.0
 40
103.0
 40
104.0
 40
104.0
 40
104.0
 40
105.0
 40
105.0
 40
105.0
 40
106.0
 40
106.0
 40
106.0
 40
107.0
 40
107.0
 40
107.0
 40
108.0
 40
108.0
 40
108.0
 40
109.0
 40
109.0
 40
109.0
 40
110.0
 40
110.0
 40
110.0
 40
111.0
 40
111.0
 40
111.0
 40
112.0
 40
112.0
 40
112.0
 40
113.0
 40
113.0
 40
113.0
 40
114.0
 40
114.0
 40
114.0
 40
115.0
 40
115.0
 40
115.0
 40
116.0
 40
116.0
 40
116.0
 40
117.0
 40
117.0
 40
117.0
 40
118.0
 40
118.0
 40
118.0
 40
119.0
 40
119.0
 40
119.0
 40
120.0
 40
120.0
 40
120.0
 40
121.0
 40
121.0
 40
121.0
 40
122.0
 40
122.0
 40
122.0
 40
123.0
 40
123.0
 40
123.0
 40
124.0
 40
124.0
 40
124.0
 40
124.0
 10
2.010833265543604
 20
16.29832646704242
 30
0.0
 10
2.015785758521203
 20
19.57067463703461
 30
0.0
 10
3.135660978698948
 20
22.74365467986454
 30
0.0
 10
5.185833264749854
 20
25.2941597981268
 30
0.0
 10
5.145044208935771
 20
25.09666431647315
 30
0.0
 10
5.121437566854373
 20
24.89600634482328
 30
0.0
 10
5.115277776498958
 20
24.69443730690642
 30
0.0
 10
5.097656314952969
 20
24.3101315225651
 30
0.0
 10
5.22337538535611
 20
23.9329756570961
 30
0.0
 10
5.468055554188542
 20
23.63610397383767
 30
0.0
 10
5.641832360870493
 20
23.37134973153664
 30
0.0
 10
5.928425278770987
 20
23.20199906510898
 30
0.0
 10
6.24416693425371
 20
23.17749313198929
 30
0.0
 10
6.615545536082795
 20
23.17465631117566
 30
0.0
 10
6.967290457997015
 20
23.34401370630544
 30
0.0
 10
7.19666720316367
 20
23.63610397383767
 30
0.0
 10
7.425490176145879
 20
23.87544929119455
 30
0.0
 10
7.562855284177673
 20
24.18764222917939
 30
0.0
 10
7.584722893196254
 20
24.51804841806162
 30
0.0
 10
7.596676432511774
 20
24.64131420367195
 30
0.0
 10
7.543117982250166
 20
24.76182122141322
 30
0.0
 10
7.443611916694463
 20
24.83554895627842
 30
0.0
 10
7.373056092008461
 20
24.87082619575121
 30
0.0
 10
7.337778852535672
 20
24.87082619575121
 30
0.0
 10
7.337778852535672
 20
24.80027171680563
 30
0.0
 10
7.312863141456901
 20
24.57458431901117
 30
0.0
 10
7.213575758720085
 20
24.3635991353481
 30
0.0
 10
7.055556899532091
 20
24.20054922558526
 30
0.0
 10
6.926079176124926
 20
24.01372815697419
 30
0.0
 10
6.718005501869015
 20
23.89668642082452
 30
0.0
 10
6.491112320654715
 20
23.88304868736846
 30
0.0
 10
6.34242751704707
 20
23.9102178407871
 30
0.0
 10
6.206397383515811
 20
23.98441523906024
 30
0.0
 10
6.103056630622131
 20
24.09471481568604
 30
0.0
 10
6.027419290095386
 20
24.27300927297111
 30
0.0
 10
5.991312401651247
 20
24.46557530745191
 30
0.0
 10
5.997222220722917
 20
24.65915872169321
 30
0.0
 10
5.997577496194833
 20
25.10663625301444
 30
0.0
 10
6.119513690266318
 20
25.54560601337562
 30
0.0
 10
6.349999998412501
 20
25.92915818307954
 30
0.0
 10
6.563368488366347
 20
26.33211727543689
 30
0.0
 10
6.864820399157615
 20
26.68180254163229
 30
0.0
 10
7.231944442636459
 20
26.9522142766755
 30
0.0
 10
7.562280653016657
 20
27.18901345315031
 30
0.0
 10
7.954720092480179
 20
27.3239145104659
 30
0.0
 10
8.36083360039121
 20
27.34026929383787
 30
0.0
 10
8.81313561113222
 20
27.29093579563717
 30
0.0
 10
9.261196520927228
 20
27.20839749821654
 30
0.0
 10
9.701388886463542
 20
27.09332458030708
 30
0.0
 10
9.136944307586166
 20
26.59943515324549
 30
0.0
 10
8.643055553394792
 20
25.78804653370753
 30
0.0
 10
8.149166799203417
 20
24.62388013647999
 30
0.0
 10
8.149166799203417
 20
24.62388013647999
 30
0.0
 10
7.549444307983041
 20
23.31860208988045
 30
0.0
 10
7.549444307983041
 20
23.31860208988045
 30
0.0
 10
7.402736397058144
 20
23.02630054110166
 30
0.0
 10
7.237780918855025
 20
22.74352010582215
 30
0.0
 10
7.055555553791667
 20
22.47193623086971
 30
0.0
 10
6.95520840047101
 20
22.29671140749161
 30
0.0
 10
6.823697936153505
 20
22.141290500192
 30
0.0
 10
6.667499863759083
 20
22.01332538902133
 30
0.0
 10
6.573274483626864
 20
21.9267431416268
 30
0.0
 10
6.466162293195132
 20
21.85533546325245
 30
0.0
 10
6.349999998412501
 20
21.80165926070375
 30
0.0
 10
6.349999998412501
 20
21.80165926070375
 30
0.0
 10
5.961944308379916
 20
21.80165926070375
 30
0.0
 10
5.961944308379916
 20
21.80165926070375
 30
0.0
 10
5.926666396036915
 20
21.83693650017654
 30
0.0
 10
5.926666396036915
 20
21.87221508538975
 30
0.0
 10
5.891388483693914
 20
21.87221508538975
 30
0.0
 10
5.891388483693914
 20
21.87221508538975
 30
0.0
 10
5.820832659007913
 20
21.80165926070375
 30
0.0
 10
5.820832659007913
 20
21.80165926070375
 30
0.0
 10
5.820832659007913
 20
21.80165926070375
 30
0.0
 10
5.820832659007913
 20
21.62527037185896
 30
0.0
 10
5.820832659007913
 20
21.62527037185896
 30
0.0
 10
5.784830065446629
 20
21.4127564270743
 30
0.0
 10
5.865638413552309
 20
21.19726570447193
 30
0.0
 10
6.032499460195706
 20
21.06082646585179
 30
0.0
 10
6.130523192674455
 20
20.87613166711053
 30
0.0
 10
6.317666566117049
 20
20.75582516469242
 30
0.0
 10
6.52638821438708
 20
20.743325927635
 30
0.0
 10
6.81734065839088
 20
20.76122696675406
 30
0.0
 10
7.086839981426668
 20
20.90239244574302
 30
0.0
 10
7.267222354979459
 20
21.13138094479737
 30
0.0
 10
7.529873877868101
 20
21.45094854030532
 30
0.0
 10
7.743852661104198
 20
21.80757782708817
 30
0.0
 10
7.902222085672625
 20
22.18971427786612
 30
0.0
 10
8.129686533696882
 20
22.63581377099326
 30
0.0
 10
8.329960296455718
 20
23.09526435486616
 30
0.0
 10
8.501944576893
 20
23.56554814915167
 30
0.0
 10
8.501944576893
 20
23.56554814915167
 30
0.0
 10
9.101667068113377
 20
25.047215084596
 30
0.0
 10
9.101667068113377
 20
25.047215084596
 30
0.0
 10
9.30291985703062
 20
25.49334149253162
 30
0.0
 10
9.526632380752972
 20
25.92899265700739
 30
0.0
 10
9.771944711149544
 20
26.35249313119554
 30
0.0
 10
9.622453136157755
 20
26.02332233202247
 30
0.0
 10
9.504337499149795
 20
25.68078698469938
 30
0.0
 10
9.41916693345996
 20
25.32943703759958
 30
0.0
 10
9.348611108773959
 20
24.94138202043721
 30
0.0
 10
9.27805595695817
 20
24.55332565753442
 30
0.0
 10
9.242778044615168
 20
24.16527064037204
 30
0.0
 10
9.242778044615168
 20
24.16527064037204
 30
0.0
 10
9.136944980456379
 20
23.0011042431445
 30
0.0
 10
9.136944980456379
 20
23.0011042431445
 30
0.0
 10
9.101667068113377
 20
22.64832646545492
 30
0.0
 10
9.031111916297588
 20
22.26027144829255
 30
0.0
 10
8.960556091611586
 20
21.90749367060296
 30
0.0
 10
8.892362714239788
 20
21.59608126206401
 30
0.0
 10
8.773163756190566
 20
21.29808319407075
 30
0.0
 10
8.607778313922003
 20
21.02554922637901
 30
0.0
 10
8.607778313922003
 20
20.99027198690622
 30
0.0
 10
8.607778313922003
 20
20.99027198690622
 30
0.0
 10
8.643056226265005
 20
20.95499474743343
 30
0.0
 10
8.643056226265005
 20
20.95499474743343
 30
0.0
 10
8.643056226265005
 20
20.95499474743343
 30
0.0
 10
8.643056226265005
 20
20.95499474743343
 30
0.0
 10
8.678334138608005
 20
20.91971750796064
 30
0.0
 10
8.713612050951005
 20
20.91971750796064
 30
0.0
 10
8.713612050951005
 20
20.95499474743343
 30
0.0
 10
8.847135070072492
 20
21.04166312221509
 30
0.0
 10
8.966184650934656
 20
21.14880828328721
 30
0.0
 10
9.066389828640588
 20
21.27249528565022
 30
0.0
 10
9.392398810687654
 20
21.60999890952825
 30
0.0
 10
9.687556693516221
 20
21.97599589540205
 30
0.0
 10
9.948334272864548
 20
22.36610585819176
 30
0.0
 10
9.948334272864548
 20
22.36610585819176
 30
0.0
 10
10.79500013187529
 20
23.60082538862445
 30
0.0
 10
10.79500013187529
 20
23.60082538862445
 30
0.0
 10
10.79500013187529
 20
23.60082538862445
 30
0.0
 10
11.57111083907025
 20
24.94138067469679
 30
0.0
 10
11.57111083907025
 20
24.94138067469679
 30
0.0
 10
11.85333279207383
 20
25.39999151654516
 30
0.0
 10
12.10027750560462
 20
25.78804787944796
 30
0.0
 10
12.3119436339222
 20
26.07026983245154
 30
0.0
 10
11.82654582893559
 20
25.2716953532302
 30
0.0
 10
11.43585585202317
 20
24.41928049112845
 30
0.0
 10
11.14777723669466
 20
23.53026956393845
 30
0.0
 10
10.83587565151161
 20
22.7666681868541
 30
0.0
 10
10.65690563253373
 20
21.95533608841395
 30
0.0
 10
10.6186112430305
 20
21.13138094479737
 30
0.0
 10
10.5833333306875
 20
20.46110262889099
 30
0.0
 10
10.79500013187529
 20
20.10832485120141
 30
0.0
 10
11.14777790956488
 20
20.10832485120141
 30
0.0
 10
11.30228169476558
 20
20.09521733947237
 30
0.0
 10
11.45537177965094
 20
20.14625050782848
 30
0.0
 10
11.57111083907025
 20
20.24943650057341
 30
0.0
 10
11.71222114270183
 20
20.31999367099984
 30
0.0
 10
11.78277696738783
 20
20.39054814994542
 30
0.0
 10
11.78277696738783
 20
20.46110262889099
 30
0.0
 10
11.78277696738783
 20
20.49637986836378
 30
0.0
 10
11.74749972791504
 20
20.53165710783657
 30
0.0
 10
11.74749972791504
 20
20.56693703879021
 30
0.0
 10
11.74749972791504
 20
20.56693703879021
 30
0.0
 10
11.67694390322904
 20
20.63749151773579
 30
0.0
 10
11.67694390322904
 20
20.63749151773579
 30
0.0
 10
11.62687832223773
 20
20.68183904766583
 30
0.0
 10
11.60071847413704
 20
20.74723934078778
 30
0.0
 10
11.60638807854304
 20
20.81388040658058
 30
0.0
 10
11.57457477492143
 20
20.90434915231941
 30
0.0
 10
11.56254520127196
 20
21.00058843299603
 30
0.0
 10
11.57111083907025
 20
21.09610370532458
 30
0.0
 10
11.57111083907025
 20
21.23721535469658
 30
0.0
 10
11.60638807854304
 20
21.41360424354138
 30
0.0
 10
11.60638807854304
 20
21.55471589291338
 30
0.0
 10
11.60638807854304
 20
21.55471589291338
 30
0.0
 10
11.67694390322904
 20
21.44888148301417
 30
0.0
 10
11.67694390322904
 20
21.44888148301417
 30
0.0
 10
11.78117149906209
 20
21.25345305865167
 30
0.0
 10
11.98462591931287
 20
21.13138094479737
 30
0.0
 10
12.20611056976341
 20
21.13138094479737
 30
0.0
 10
12.52361110798021
 20
21.13138094479737
 30
0.0
 10
12.84111030045658
 20
21.37832431258774
 30
0.0
 10
13.15861083867337
 20
21.83693650017654
 30
0.0
 10
13.15861083867337
 20
21.83693650017654
 30
0.0
 10
13.15861083867337
 20
21.83693650017654
 30
0.0
 10
13.15861083867337
 20
21.83693650017654
 30
0.0
 10
13.15176505713686
 20
21.65575946690342
 30
0.0
 10
13.21493007541467
 20
21.47889956891025
 30
0.0
 10
13.33499972751817
 20
21.34304707311495
 30
0.0
 10
13.4309133390122
 20
21.20506830744985
 30
0.0
 10
13.59040241961333
 20
21.1253251128897
 30
0.0
 10
13.75833332989375
 20
21.13138094479737
 30
0.0
 10
13.75833332989375
 20
21.13138094479737
 30
0.0
 10
14.07583386811054
 20
21.13138094479737
 30
0.0
 10
14.07583386811054
 20
21.13138094479737
 30
0.0
 10
14.19466409328361
 20
21.1629197173725
 30
0.0
 10
14.30377672685551
 20
21.22353994050865
 30
0.0
 10
14.39333440632734
 20
21.30776983364216
 30
0.0
 10
14.55324066645989
 20
21.45531143075968
 30
0.0
 10
14.69531855745627
 20
21.62106897025546
 30
0.0
 10
14.8166666629625
 20
21.80165926070375
 30
0.0
 10
14.8166666629625
 20
21.80165926070375
 30
0.0
 10
14.8166666629625
 20
21.80165926070375
 30
0.0
 10
14.8166666629625
 20
21.80165926070375
 30
0.0
 10
14.82708673106496
 20
21.61267155001017
 30
0.0
 10
14.88799763413268
 20
21.42993614932614
 30
0.0
 10
14.99305555180729
 20
21.27249259416937
 30
0.0
 10
15.08896916330133
 20
21.13451382850427
 30
0.0
 10
15.24845824390246
 20
21.05477063394413
 30
0.0
 10
15.41638915418288
 20
21.06082646585179
 30
0.0
 10
15.41638915418288
 20
21.06082646585179
 30
0.0
 10
15.76916693187246
 20
21.06082646585179
 30
0.0
 10
15.76916693187246
 20
21.06082646585179
 30
0.0
 10
15.90178830490992
 20
21.08291006620842
 30
0.0
 10
16.02470419801002
 20
21.14436733988826
 30
0.0
 10
16.12194470956204
 20
21.23721535469658
 30
0.0
 10
16.29645494477504
 20
21.39362268972693
 30
0.0
 10
16.45054087757411
 20
21.57141384009345
 30
0.0
 10
16.58055555141042
 20
21.76638202123096
 30
0.0
 10
16.58055555141042
 20
21.76638202123096
 30
0.0
 10
16.58055555141042
 20
21.76638202123096
 30
0.0
 10
16.58055555141042
 20
21.76638202123096
 30
0.0
 10
16.59097561951288
 20
21.57739431053738
 30
0.0
 10
16.6518865225806
 20
21.39465890985335
 30
0.0
 10
16.75694444025521
 20
21.23721535469658
 30
0.0
 10
16.85285805174924
 20
21.09923658903148
 30
0.0
 10
17.01234713235037
 20
21.01949339447134
 30
0.0
 10
17.18027804263079
 20
21.02554922637901
 30
0.0
 10
17.18027804263079
 20
21.02554922637901
 30
0.0
 10
17.53305582032038
 20
21.02554922637901
 30
0.0
 10
17.53305582032038
 20
21.02554922637901
 30
0.0
 10
17.66567719335783
 20
21.04763282673563
 30
0.0
 10
17.78859308645794
 20
21.10909010041546
 30
0.0
 10
17.88583359800996
 20
21.2019381152238
 30
0.0
 10
17.88583359800996
 20
21.2019381152238
 30
0.0
 10
17.95638942269596
 20
21.27249259416937
 30
0.0
 10
17.95638942269596
 20
21.27249259416937
 30
0.0
 10
17.95638942269596
 20
21.27249259416937
 30
0.0
 10
17.88583359800996
 20
21.02554922637901
 30
0.0
 10
17.88583359800996
 20
21.02554922637901
 30
0.0
 10
17.85055635853717
 20
21.02554922637901
 30
0.0
 10
17.85055635853717
 20
20.99027198690622
 30
0.0
 10
17.88583359800996
 20
20.99027198690622
 30
0.0
 10
17.88583359800996
 20
20.99027198690622
 30
0.0
 10
18.09749972632754
 20
20.99027198690622
 30
0.0
 10
18.09749972632754
 20
20.99027198690622
 30
0.0
 10
18.09749972632754
 20
20.99027198690622
 30
0.0
 10
18.23861137569954
 20
20.77860585858864
 30
0.0
 10
18.23861137569954
 20
20.77860585858864
 30
0.0
 10
17.003889153786
 20
20.88444026848785
 30
0.0
 10
16.05138888487604
 20
21.02554922637901
 30
0.0
 10
15.80444417134525
 20
20.60221696974384
 30
0.0
 10
15.55749945781446
 20
20.17888471310868
 30
0.0
 10
15.55749945781446
 20
20.24943919205426
 30
0.0
 10
15.91027723550404
 20
19.43804922677588
 30
0.0
 10
16.26305501319362
 20
18.6266592614975
 30
0.0
 10
16.50999972672442
 20
18.13277252591676
 30
0.0
 10
16.4747211415112
 20
17.99166087654476
 30
0.0
 10
14.78138807774929
 20
18.30916141476155
 30
0.0
 10
14.74610949253607
 20
17.67416033832796
 30
0.0
 10
14.74610949253607
 20
17.67416033832796
 30
0.0
 10
14.71083225306329
 20
17.03915926189437
 30
0.0
 10
16.05138753913562
 20
17.28610532116559
 30
0.0
 10
16.01610895392241
 20
17.1097164323208
 30
0.0
 10
15.38066782037019
 20
16.70822015980426
 30
0.0
 10
14.90625664020451
 20
16.0964788608578
 30
0.0
 10
14.67555366785007
 20
15.38110478334567
 30
0.0
 10
15.55749811207403
 20
14.3933259292225
 30
0.0
 10
15.55749811207403
 20
14.3933259292225
 30
0.0
 10
15.02833144553966
 20
14.21693704037771
 30
0.0
 10
14.79105856843562
 20
13.9893911750578
 30
0.0
 10
14.58894046842579
 20
13.72782768330191
 30
0.0
 10
14.42860895431928
 20
13.44082700605296
 30
0.0
 10
14.42860895431928
 20
13.44082700605296
 30
0.0
 10
13.79360922362611
 20
13.86415926268812
 30
0.0
 10
13.79360922362611
 20
13.86415926268812
 30
0.0
 10
13.79360922362611
 20
13.86415926268812
 30
0.0
 10
13.68777615946733
 20
13.9347137416337
 30
0.0
 10
14.56972060369128
 20
15.20471589450088
 30
0.0
 10
14.56972060369128
 20
15.20471589450088
 30
0.0
 10
13.47611137689017
 20
15.48693650176404
 30
0.0
 10
13.47611137689017
 20
15.48693650176404
 30
0.0
 10
13.26444524857259
 20
14.2522142798505
 30
0.0
 10
13.15861083867337
 20
14.32276875879607
 30
0.0
 10
13.15861083867337
 20
14.32276875879607
 30
0.0
 10
12.41777804382142
 20
14.81665818585766
 30
0.0
 10
11.57111083907025
 20
15.23999044249282
 30
0.0
 10
11.42999918969825
 20
14.81665818585766
 30
0.0
 10
11.28888754032624
 20
14.3933259292225
 30
0.0
 10
11.25361030085345
 20
14.3933259292225
 30
0.0
 10
12.13555474507741
 20
13.89943650216091
 30
0.0
 10
12.13555474507741
 20
13.89943650216091
 30
0.0
 10
13.01749918930137
 20
13.47610424552575
 30
0.0
 10
13.01749918930137
 20
13.47610424552575
 30
0.0
 10
11.81805420686062
 20
12.8763831000458
 30
0.0
 10
12.2413878092362
 20
12.417770912457
 30
0.0
 10
12.2413878092362
 20
12.417770912457
 30
0.0
 10
12.2413878092362
 20
12.417770912457
 30
0.0
 10
13.40555420646374
 20
13.29971535668096
 30
0.0
 10
13.51138727062253
 20
13.22916087773538
 30
0.0
 10
13.51138727062253
 20
13.22916087773538
 30
0.0
 10
14.18166558652891
 20
12.94693757899138
 30
0.0
 10
14.18166558652891
 20
12.94693757899138
 30
0.0
 10
14.18166558652891
 20
12.94693757899138
 30
0.0
 10
13.96999945821133
 20
12.17082754466663
 30
0.0
 10
13.96999945821133
 20
12.17082754466663
 30
0.0
 10
14.00527669768412
 20
11.28888310044267
 30
0.0
 10
14.07583252237012
 20
10.51277306611793
 30
0.0
 10
14.07583252237012
 20
10.51277306611793
 30
0.0
 10
13.24965017835195
 20
9.905679954595712
 30
0.0
 10
12.58371187531273
 20
9.10655506754099
 30
0.0
 10
12.13555474507741
 20
8.184440271662849
 30
0.0
 10
12.13555474507741
 20
8.184440271662849
 30
0.0
 10
10.65388780963308
 20
10.68916195496272
 30
0.0
 10
10.65388780963308
 20
10.68916195496272
 30
0.0
 10
10.59307783709715
 20
10.76526895889742
 30
0.0
 10
10.6054774893632
 20
10.87626024610111
 30
0.0
 10
10.68158382042768
 20
10.93707156437747
 30
0.0
 10
10.72337982651397
 20
10.97046745873761
 30
0.0
 10
10.77807340882316
 20
10.98308781243318
 30
0.0
 10
10.83027669847787
 20
10.97138525370673
 30
0.0
 10
10.83027669847787
 20
10.97138525370673
 30
0.0
 10
11.67694390322904
 20
10.97138525370673
 30
0.0
 10
11.67694390322904
 20
10.97138525370673
 30
0.0
 10
11.85333279207383
 20
10.97138525370673
 30
0.0
 10
11.92388861675983
 20
11.07721966360594
 30
0.0
 10
11.85333279207383
 20
11.2183286214971
 30
0.0
 10
11.85333279207383
 20
11.2183286214971
 30
0.0
 10
9.983610839467124
 20
14.35805138123056
 30
0.0
 10
9.983610839467124
 20
14.35805138123056
 30
0.0
 10
9.922800866931192
 20
14.43415838516525
 30
0.0
 10
9.935200519197243
 20
14.54514967236895
 30
0.0
 10
10.01130685026173
 20
14.60596099064531
 30
0.0
 10
10.05310285634801
 20
14.63935688500545
 30
0.0
 10
10.1077964386572
 20
14.65197723870102
 30
0.0
 10
10.15999972831192
 20
14.64027467997456
 30
0.0
 10
10.15999972831192
 20
14.64027467997456
 30
0.0
 10
10.83027737134808
 20
14.64027467997456
 30
0.0
 10
10.83027737134808
 20
14.64027467997456
 30
0.0
 10
11.00666626019287
 20
14.64027467997456
 30
0.0
 10
11.07722208487887
 20
14.74610908987378
 30
0.0
 10
11.00666626019287
 20
14.92249797871857
 30
0.0
 10
11.00666626019287
 20
14.92249797871857
 30
0.0
 10
8.113888886860417
 20
19.72026983403904
 30
0.0
 10
8.113888886860417
 20
19.72026983403904
 30
0.0
 10
8.043333062174415
 20
19.89665872288383
 30
0.0
 10
7.902222085672625
 20
19.89665872288383
 30
0.0
 10
7.796389021513835
 20
19.72026983403904
 30
0.0
 10
7.796389021513835
 20
19.72026983403904
 30
0.0
 10
4.938888887654167
 20
14.92249259575688
 30
0.0
 10
4.938888887654167
 20
14.92249259575688
 30
0.0
 10
4.833055487060271
 20
14.74610370691208
 30
0.0
 10
4.903610975311167
 20
14.64026929701287
 30
0.0
 10
5.079999864155958
 20
14.64026929701287
 30
0.0
 10
5.079999864155958
 20
14.64026929701287
 30
0.0
 10
5.785555419535124
 20
14.64026929701287
 30
0.0
 10
5.785555419535124
 20
14.64026929701287
 30
0.0
 10
5.882972223082684
 20
14.64026929701287
 30
0.0
 10
5.961944308379916
 20
14.56129855745606
 30
0.0
 10
5.961944981250128
 20
14.46388040816808
 30
0.0
 10
5.961944981250128
 20
14.42571520974554
 30
0.0
 10
5.949566187960648
 20
14.38857815700689
 30
0.0
 10
5.926666396036915
 20
14.35804599826886
 30
0.0
 10
5.926666396036915
 20
14.35804599826886
 30
0.0
 10
4.056944106995102
 20
11.2183232385354
 30
0.0
 10
4.056944106995102
 20
11.2183232385354
 30
0.0
 10
3.986388618744207
 20
11.0772115891634
 30
0.0
 10
4.056944106995102
 20
10.97137987074503
 30
0.0
 10
4.233332995839894
 20
10.97137987074503
 30
0.0
 10
4.233332995839894
 20
10.97137987074503
 30
0.0
 10
5.079999864155958
 20
10.97137987074503
 30
0.0
 10
5.079999864155958
 20
10.97137987074503
 30
0.0
 10
5.29166666534375
 20
10.97137987074503
 30
0.0
 10
5.362222153594645
 20
10.83026822137303
 30
0.0
 10
5.256388753000749
 20
10.68915657200103
 30
0.0
 10
5.256388753000749
 20
10.68915657200103
 30
0.0
 10
4.162777507588999
 20
8.819433273653896
 30
0.0
 10
4.162777507588999
 20
8.819433273653896
 30
0.0
 10
2.74975090355476
 20
11.05743727937423
 30
0.0
 10
2.003322688237675
 20
13.65158341384397
 30
0.0
 10
2.010833265543604
 20
16.29832646704242
 30
0.0
  0
SPLINE
  5
165
330
49
100
AcDbEntity
  8
Layer 1
370
     0
100
AcDbSpline
210
0.0
220
0.0
230
1.0
 70
    11
 71
     3
 72
    23
 73
    19
 74
     0
 42
0.0000000001
 43
0.0000000001
 12
1.0
 22
0.0
 32
0.0
 13
1.0
 23
0.0
 33
0.0
 40
0.0
 40
0.0
 40
0.0
 40
0.0
 40
1.0
 40
1.0
 40
1.0
 40
2.0
 40
2.0
 40
2.0
 40
3.0
 40
3.0
 40
3.0
 40
4.0
 40
4.0
 40
4.0
 40
5.0
 40
5.0
 40
5.0
 40
6.0
 40
6.0
 40
6.0
 40
6.0
 10
9.383889021116959
 20
10.23054707589308
 30
0.0
 10
8.974738177069128
 20
10.23054707589308
 30
0.0
 10
8.643055553394792
 20
10.5622290266972
 30
0.0
 10
8.643055553394792
 20
10.97137987074503
 30
0.0
 10
8.64256839536133
 20
11.36104708493527
 30
0.0
 10
8.958061088865628
 20
11.67733107380883
 30
0.0
 10
9.347728303055863
 20
11.67781823184229
 30
0.0
 10
9.359787482994662
 20
11.67783168924653
 30
0.0
 10
9.371844644322824
 20
11.67753831783412
 30
0.0
 10
9.383889021116959
 20
11.6769354261242
 30
0.0
 10
9.783298050235993
 20
11.7656870070821
 30
0.0
 10
10.17903051651686
 20
11.51385052711034
 30
0.0
 10
10.26778209747476
 20
11.11444015225088
 30
0.0
 10
10.35653367843266
 20
10.71502977739142
 30
0.0
 10
10.10469585272048
 20
10.31929865685098
 30
0.0
 10
9.705286823601442
 20
10.23054707589308
 30
0.0
 10
9.599445012129896
 20
10.20702891624455
 30
0.0
 10
9.489730832588505
 20
10.20702891624455
 30
0.0
 10
9.383889021116959
 20
10.23054707589308
 30
0.0
  0
SPLINE
  5
166
330
49
100
AcDbEntity
  8
Layer 1
370
     0
100
AcDbSpline
210
0.0
220
0.0
230
1.0
 70
    11
 71
     3
 72
    23
 73
    19
 74
     0
 42
0.0000000001
 43
0.0000000001
 12
1.0
 22
0.0
 32
0.0
 13
1.0
 23
0.0
 33
0.0
 40
0.0
 40
0.0
 40
0.0
 40
0.0
 40
1.0
 40
1.0
 40
1.0
 40
2.0
 40
2.0
 40
2.0
 40
3.0
 40
3.0
 40
3.0
 40
4.0
 40
4.0
 40
4.0
 40
5.0
 40
5.0
 40
5.0
 40
6.0
 40
6.0
 40
6.0
 40
6.0
 10
9.701388886463542
 20
9.348602631669118
 30
0.0
 10
9.702276402273121
 20
9.134288086197252
 30
0.0
 10
9.529258593190264
 20
8.959831680601217
 30
0.0
 10
9.314943374848186
 20
8.958943491921426
 30
0.0
 10
9.30262850422884
 20
8.958892353785318
 30
0.0
 10
9.290319016571193
 20
8.95942795847404
 30
0.0
 10
9.278055284087957
 20
8.960547614506746
 30
0.0
 10
9.063738720005455
 20
8.96090558145951
 30
0.0
 10
8.890291619727366
 20
9.134936733081584
 30
0.0
 10
8.890650259550341
 20
9.349253970034297
 30
0.0
 10
8.891008226503105
 20
9.563062517106768
 30
0.0
 10
9.064246064145275
 20
9.736299681878727
 30
0.0
 10
9.278055284087957
 20
9.73665764883149
 30
0.0
 10
9.491485005231093
 20
9.756143970169935
 30
0.0
 10
9.680299788280202
 20
9.598921116442693
 30
0.0
 10
9.699784763878222
 20
9.385489376688922
 30
0.0
 10
9.700904419910929
 20
9.373226989946112
 30
0.0
 10
9.701440024599652
 20
9.360916156548038
 30
0.0
 10
9.701388886463542
 20
9.348602631669118
 30
0.0
  0
SPLINE
  5
167
330
49
100
AcDbEntity
  8
Layer 1
370
     0
100
AcDbSpline
210
0.0
220
0.0
230
1.0
 70
    11
 71
     3
 72
    20
 73
    16
 74
     0
 42
0.0000000001
 43
0.0000000001
 12
1.0
 22
0.0
 32
0.0
 13
1.0
 23
0.0
 33
0.0
 40
0.0
 40
0.0
 40
0.0
 40
0.0
 40
1.0
 40
1.0
 40
1.0
 40
2.0
 40
2.0
 40
2.0
 40
3.0
 40
3.0
 40
3.0
 40
4.0
 40
4.0
 40
4.0
 40
5.0
 40
5.0
 40
5.0
 40
5.0
 10
7.972777910358626
 20
14.0758253910057
 30
0.0
 10
7.563627066310795
 20
14.0758253910057
 30
0.0
 10
7.231944442636459
 20
14.40750734180983
 30
0.0
 10
7.231944442636459
 20
14.81665818585766
 30
0.0
 10
7.231944442636459
 20
15.22580902990549
 30
0.0
 10
7.563627066310795
 20
15.55749098070962
 30
0.0
 10
7.972777910358626
 20
15.55749098070962
 30
0.0
 10
8.381464473960204
 20
15.57697461056721
 30
0.0
 10
8.728565245671456
 20
15.26146307669698
 30
0.0
 10
8.748049548399264
 20
14.85277785883583
 30
0.0
 10
8.748622833819857
 20
14.84074693944593
 30
0.0
 10
8.748902747828033
 20
14.8287025626518
 30
0.0
 10
8.748889290423794
 20
14.81665818585766
 30
0.0
 10
8.730015280978236
 20
14.40186061499104
 30
0.0
 10
8.388004772420482
 20
14.07539475407005
 30
0.0
 10
7.972777910358626
 20
14.0758253910057
 30
0.0
  0
SPLINE
  5
168
330
49
100
AcDbEntity
  8
Layer 1
370
     0
100
AcDbSpline
210
0.0
220
0.0
230
1.0
 70
    11
 71
     3
 72
    23
 73
    19
 74
     0
 42
0.0000000001
 43
0.0000000001
 12
1.0
 22
0.0
 32
0.0
 13
1.0
 23
0.0
 33
0.0
 40
0.0
 40
0.0
 40
0.0
 40
0.0
 40
1.0
 40
1.0
 40
1.0
 40
2.0
 40
2.0
 40
2.0
 40
3.0
 40
3.0
 40
3.0
 40
4.0
 40
4.0
 40
4.0
 40
5.0
 40
5.0
 40
5.0
 40
6.0
 40
6.0
 40
6.0
 40
6.0
 10
8.431388752206999
 20
7.337770375430832
 30
0.0
 10
8.43227626801658
 20
7.123455829958966
 30
0.0
 10
8.25925845893372
 20
6.948999424362932
 30
0.0
 10
8.044943240591643
 20
6.94811123568314
 30
0.0
 10
8.032628369972299
 20
6.948060097547032
 30
0.0
 10
8.02031888231465
 20
6.948595702235754
 30
0.0
 10
8.008055149831415
 20
6.949715358268461
 30
0.0
 10
7.793738585748913
 20
6.950073325221224
 30
0.0
 10
7.620291485470823
 20
7.124104476843298
 30
0.0
 10
7.620650125293799
 20
7.338421713796012
 30
0.0
 10
7.621008092246563
 20
7.552230260868482
 30
0.0
 10
7.794245929888732
 20
7.72546742564044
 30
0.0
 10
8.008055149831415
 20
7.725825392593205
 30
0.0
 10
8.22148487097455
 20
7.745311713931649
 30
0.0
 10
8.41029965402366
 20
7.588088860204407
 30
0.0
 10
8.42978462962168
 20
7.374657120450636
 30
0.0
 10
8.430904285654387
 20
7.362394733707825
 30
0.0
 10
8.431439890343109
 20
7.350083900309753
 30
0.0
 10
8.431388752206999
 20
7.337770375430832
 30
0.0
  0
SPLINE
  5
169
330
49
100
AcDbEntity
  8
Layer 1
370
     0
100
AcDbSpline
210
0.0
220
0.0
230
1.0
 70
    11
 71
     3
 72
    20
 73
    16
 74
     0
 42
0.0000000001
 43
0.0000000001
 12
1.0
 22
0.0
 32
0.0
 13
1.0
 23
0.0
 33
0.0
 40
0.0
 40
0.0
 40
0.0
 40
0.0
 40
1.0
 40
1.0
 40
1.0
 40
2.0
 40
2.0
 40
2.0
 40
3.0
 40
3.0
 40
3.0
 40
4.0
 40
4.0
 40
4.0
 40
5.0
 40
5.0
 40
5.0
 40
5.0
 10
7.51416639564004
 20
17.42721427905675
 30
0.0
 10
7.51416639564004
 20
17.64153151600946
 30
0.0
 10
7.687904848719911
 20
17.81526929621912
 30
0.0
 10
7.902222085672625
 20
17.81526929621912
 30
0.0
 10
8.116538649755126
 20
17.81562726317188
 30
0.0
 10
8.290568455636777
 20
17.64218016289379
 30
0.0
 10
8.290927095459752
 20
17.42786561742193
 30
0.0
 10
8.29128640815294
 20
17.21354838046921
 30
0.0
 10
8.117839307874851
 20
17.03951722884714
 30
0.0
 10
7.903522070922137
 20
17.03915926189437
 30
0.0
 10
7.903088742505632
 20
17.03915926189437
 30
0.0
 10
7.902655414089129
 20
17.03915926189437
 30
0.0
 10
7.902222085672625
 20
17.03915926189437
 30
0.0
 10
7.687904848719911
 20
17.03915926189437
 30
0.0
 10
7.51416639564004
 20
17.21289704210403
 30
0.0
 10
7.51416639564004
 20
17.42721427905675
 30
0.0
  0
SPLINE
  5
16A
330
49
100
AcDbEntity
  8
Layer 1
370
     0
100
AcDbSpline
210
0.0
220
0.0
230
1.0
 70
    11
 71
     3
 72
    20
 73
    16
 74
     0
 42
0.0000000001
 43
0.0000000001
 12
1.0
 22
0.0
 32
0.0
 13
1.0
 23
0.0
 33
0.0
 40
0.0
 40
0.0
 40
0.0
 40
0.0
 40
1.0
 40
1.0
 40
1.0
 40
2.0
 40
2.0
 40
2.0
 40
3.0
 40
3.0
 40
3.0
 40
4.0
 40
4.0
 40
4.0
 40
5.0
 40
5.0
 40
5.0
 40
5.0
 10
9.348611108773959
 20
13.44082431457212
 30
0.0
 10
9.562928345726673
 20
13.44082431457212
 30
0.0
 10
9.736666798806542
 20
13.26708653436246
 30
0.0
 10
9.736666798806542
 20
13.05276929740974
 30
0.0
 10
9.73743387084818
 20
12.83208132529017
 30
0.0
 10
9.568534027462535
 20
12.6478252379271
 30
0.0
 10
9.348611108773959
 20
12.62943704077458
 30
0.0
 10
9.11481091483386
 20
12.62943704077458
 30
0.0
 10
8.925278179268586
 20
12.81896843059943
 30
0.0
 10
8.925277506398373
 20
13.05276929740974
 30
0.0
 10
8.924389990588795
 20
13.26708384288161
 30
0.0
 10
9.097407799671652
 20
13.44154024847764
 30
0.0
 10
9.311723018013732
 20
13.44242843715744
 30
0.0
 10
9.324037888633075
 20
13.44247957529354
 30
0.0
 10
9.336347376290723
 20
13.44194397060482
 30
0.0
 10
9.348611108773959
 20
13.44082431457212
 30
0.0
  0
SPLINE
  5
16B
330
49
100
AcDbEntity
  8
Layer 1
370
     0
100
AcDbSpline
210
0.0
220
0.0
230
1.0
 70
    11
 71
     3
 72
    20
 73
    16
 74
     0
 42
0.0000000001
 43
0.0000000001
 12
1.0
 22
0.0
 32
0.0
 13
1.0
 23
0.0
 33
0.0
 40
0.0
 40
0.0
 40
0.0
 40
0.0
 40
1.0
 40
1.0
 40
1.0
 40
2.0
 40
2.0
 40
2.0
 40
3.0
 40
3.0
 40
3.0
 40
4.0
 40
4.0
 40
4.0
 40
5.0
 40
5.0
 40
5.0
 40
5.0
 10
9.136944307586166
 20
15.7691571090272
 30
0.0
 10
9.136804350582079
 20
16.00295797583751
 30
0.0
 10
9.326224043951742
 20
16.19260240785797
 30
0.0
 10
9.560024237891842
 20
16.19274236486206
 30
0.0
 10
9.793825104702151
 20
16.19288232186614
 30
0.0
 10
9.983470882463036
 20
16.0034639742369
 30
0.0
 10
9.983610839467124
 20
15.76966310742659
 30
0.0
 10
9.983610839467124
 20
15.76949354413318
 30
0.0
 10
9.983610839467124
 20
15.76932667232061
 30
0.0
 10
9.983610839467124
 20
15.7691571090272
 30
0.0
 10
9.983470882463036
 20
15.53535624221688
 30
0.0
 10
9.793825104702151
 20
15.34593789458764
 30
0.0
 10
9.560024237891842
 20
15.34607785159173
 30
0.0
 10
9.326421867794059
 20
15.34621780859582
 30
0.0
 10
9.137084264590255
 20
15.53555541179963
 30
0.0
 10
9.136944307586166
 20
15.7691571090272
 30
0.0
  0
SPLINE
  5
16C
330
49
100
AcDbEntity
  8
Layer 1
370
     0
100
AcDbSpline
210
0.0
220
0.0
230
1.0
 70
    11
 71
     3
 72
    23
 73
    19
 74
     0
 42
0.0000000001
 43
0.0000000001
 12
1.0
 22
0.0
 32
0.0
 13
1.0
 23
0.0
 33
0.0
 40
0.0
 40
0.0
 40
0.0
 40
0.0
 40
1.0
 40
1.0
 40
1.0
 40
2.0
 40
2.0
 40
2.0
 40
3.0
 40
3.0
 40
3.0
 40
4.0
 40
4.0
 40
4.0
 40
5.0
 40
5.0
 40
5.0
 40
6.0
 40
6.0
 40
6.0
 40
6.0
 10
10.61861057016029
 20
8.537212666390737
 30
0.0
 10
11.02729713376187
 20
8.556696296248333
 30
0.0
 10
11.37439857834333
 20
8.2411847623781
 30
0.0
 10
11.39388220820093
 20
7.832499544516948
 30
0.0
 10
11.39445549362152
 20
7.820468625127052
 30
0.0
 10
11.3947354076297
 20
7.808424248332917
 30
0.0
 10
11.39472195022546
 20
7.796379871538782
 30
0.0
 10
11.3758479407799
 20
7.381582300672158
 30
0.0
 10
11.03383743222215
 20
7.055116439751171
 30
0.0
 10
10.61861057016029
 20
7.055547076686826
 30
0.0
 10
10.20945972611246
 20
7.055547076686826
 30
0.0
 10
9.877777102438122
 20
7.38722902749095
 30
0.0
 10
9.877777102438122
 20
7.796379871538782
 30
0.0
 10
9.877775756697698
 20
8.205530715586614
 30
0.0
 10
10.20945703463161
 20
8.537215357871585
 30
0.0
 10
10.61860787867944
 20
8.537215357871585
 30
0.0
 10
10.61860922441987
 20
8.537215357871585
 30
0.0
 10
10.61860989729008
 20
8.537215357871585
 30
0.0
 10
10.61861057016029
 20
8.537212666390737
 30
0.0
  0
SPLINE
  5
16D
330
49
100
AcDbEntity
  8
Layer 1
370
     0
100
AcDbSpline
210
0.0
220
0.0
230
1.0
 70
    11
 71
     3
 72
    20
 73
    16
 74
     0
 42
0.0000000001
 43
0.0000000001
 12
1.0
 22
0.0
 32
0.0
 13
1.0
 23
0.0
 33
0.0
 40
0.0
 40
0.0
 40
0.0
 40
0.0
 40
1.0
 40
1.0
 40
1.0
 40
2.0
 40
2.0
 40
2.0
 40
3.0
 40
3.0
 40
3.0
 40
4.0
 40
4.0
 40
4.0
 40
5.0
 40
5.0
 40
5.0
 40
5.0
 10
5.326943904816539
 20
7.161378795105192
 30
0.0
 10
5.009444039469956
 20
7.549433812267565
 30
0.0
 10
4.727221750031268
 20
7.937488829429937
 30
0.0
 10
4.44499946059258
 20
8.360823777545946
 30
0.0
 10
4.44499946059258
 20
8.360823777545946
 30
0.0
 10
4.44499946059258
 20
8.360823777545946
 30
0.0
 10
4.44499946059258
 20
8.360823777545946
 30
0.0
 10
4.44499946059258
 20
8.360823777545946
 30
0.0
 10
4.797777238282164
 20
8.431378256491524
 30
0.0
 10
4.797777238282164
 20
8.431378256491524
 30
0.0
 10
5.20688501863643
 20
8.437326429165275
 30
0.0
 10
5.543354440998669
 20
8.110502601291524
 30
0.0
 10
5.549302950107527
 20
7.701394820937256
 30
0.0
 10
5.552252813116772
 20
7.498535217953846
 30
0.0
 10
5.471879475603127
 20
7.303343643905965
 30
0.0
 10
5.326943904816539
 20
7.161378795105192
 30
0.0
  0
SPLINE
  5
16E
330
49
100
AcDbEntity
  8
Layer 1
370
     0
100
AcDbSpline
210
0.0
220
0.0
230
1.0
 70
    11
 71
     3
 72
    23
 73
    19
 74
     0
 42
0.0000000001
 43
0.0000000001
 12
1.0
 22
0.0
 32
0.0
 13
1.0
 23
0.0
 33
0.0
 40
0.0
 40
0.0
 40
0.0
 40
0.0
 40
1.0
 40
1.0
 40
1.0
 40
2.0
 40
2.0
 40
2.0
 40
3.0
 40
3.0
 40
3.0
 40
4.0
 40
4.0
 40
4.0
 40
5.0
 40
5.0
 40
5.0
 40
6.0
 40
6.0
 40
6.0
 40
6.0
 10
5.891388483693914
 20
9.595545999459487
 30
0.0
 10
5.890500967884336
 20
9.809860544931354
 30
0.0
 10
6.063518776967194
 20
9.984316950527388
 30
0.0
 10
6.277833995309272
 20
9.98520513920718
 30
0.0
 10
6.290148865928616
 20
9.985256277343288
 30
0.0
 10
6.302458353586265
 20
9.984720672654566
 30
0.0
 10
6.3147220860695
 20
9.98360101662186
 30
0.0
 10
6.529038650152001
 20
9.983243049669095
 30
0.0
 10
6.702485750430092
 20
9.809211898047021
 30
0.0
 10
6.702127110607115
 20
9.594894661094306
 30
0.0
 10
6.701769143654351
 20
9.381086114021837
 30
0.0
 10
6.528531306012182
 20
9.207848949249879
 30
0.0
 10
6.3147220860695
 20
9.207490982297115
 30
0.0
 10
6.101292364926365
 20
9.18800466095867
 30
0.0
 10
5.912478254747467
 20
9.345230206166761
 30
0.0
 10
5.892993279149446
 20
9.558659254439684
 30
0.0
 10
5.891872950246528
 20
9.570921641182494
 30
0.0
 10
5.891338018428018
 20
9.583232474580567
 30
0.0
 10
5.891388483693914
 20
9.595545999459487
 30
0.0
  0
SPLINE
  5
16F
330
49
100
AcDbEntity
  8
Layer 1
370
     0
100
AcDbSpline
210
0.0
220
0.0
230
1.0
 70
    11
 71
     3
 72
    26
 73
    22
 74
     0
 42
0.0000000001
 43
0.0000000001
 12
1.0
 22
0.0
 32
0.0
 13
1.0
 23
0.0
 33
0.0
 40
0.0
 40
0.0
 40
0.0
 40
0.0
 40
1.0
 40
1.0
 40
1.0
 40
2.0
 40
2.0
 40
2.0
 40
3.0
 40
3.0
 40
3.0
 40
4.0
 40
4.0
 40
4.0
 40
5.0
 40
5.0
 40
5.0
 40
6.0
 40
6.0
 40
6.0
 40
7.0
 40
7.0
 40
7.0
 40
7.0
 10
6.455833062571291
 20
11.2183232385354
 30
0.0
 10
6.046682218523459
 20
11.2183232385354
 30
0.0
 10
5.715000267719335
 20
11.55000518933952
 30
0.0
 10
5.715000267719335
 20
11.95915603338736
 30
0.0
 10
5.715000267719335
 20
11.9591587248682
 30
0.0
 10
5.715000267719335
 20
11.9591587248682
 30
0.0
 10
5.715000267719335
 20
11.9591587248682
 30
0.0
 10
5.714513109685874
 20
12.34882593905844
 30
0.0
 10
6.030005803190171
 20
12.66510992793201
 30
0.0
 10
6.419673017380407
 20
12.66559708596547
 30
0.0
 10
6.431732197319205
 20
12.66561054336971
 30
0.0
 10
6.443789358647368
 20
12.66531717195729
 30
0.0
 10
6.455833735441503
 20
12.66471428024737
 30
0.0
 10
6.855242764560536
 20
12.75346586120527
 30
0.0
 10
7.250975230841404
 20
12.50162938123351
 30
0.0
 10
7.339726811799305
 20
12.10221900637405
 30
0.0
 10
7.428478392757206
 20
11.70280863151459
 30
0.0
 10
7.17664056704502
 20
11.30707751097415
 30
0.0
 10
6.777231537925986
 20
11.21832593001625
 30
0.0
 10
6.67138972645444
 20
11.19480777036772
 30
0.0
 10
6.561675546913048
 20
11.19480777036772
 30
0.0
 10
6.455833062571291
 20
11.2183232385354
 30
0.0
  0
SPLINE
  5
170
330
49
100
AcDbEntity
  8
Layer 1
370
     0
100
AcDbSpline
210
0.0
220
0.0
230
1.0
 70
    11
 71
     3
 72
    23
 73
    19
 74
     0
 42
0.0000000001
 43
0.0000000001
 12
1.0
 22
0.0
 32
0.0
 13
1.0
 23
0.0
 33
0.0
 40
0.0
 40
0.0
 40
0.0
 40
0.0
 40
1.0
 40
1.0
 40
1.0
 40
2.0
 40
2.0
 40
2.0
 40
3.0
 40
3.0
 40
3.0
 40
4.0
 40
4.0
 40
4.0
 40
5.0
 40
5.0
 40
5.0
 40
6.0
 40
6.0
 40
6.0
 40
6.0
 10
6.244166261383498
 20
15.09887879312082
 30
0.0
 10
6.029849697300996
 20
15.09852082616805
 30
0.0
 10
5.855819891419346
 20
15.27196792644614
 30
0.0
 10
5.85546125159637
 20
15.48628247191801
 30
0.0
 10
5.855101938903181
 20
15.70059970887072
 30
0.0
 10
6.028549039181271
 20
15.8746308604928
 30
0.0
 10
6.242866276133986
 20
15.87498882744556
 30
0.0
 10
6.24329960455049
 20
15.87498882744556
 30
0.0
 10
6.243732932966994
 20
15.87498882744556
 30
0.0
 10
6.244166261383498
 20
15.87498882744556
 30
0.0
 10
6.458482825466
 20
15.87534679439833
 30
0.0
 10
6.63251263134765
 20
15.70189969412024
 30
0.0
 10
6.632871271170626
 20
15.48758514864837
 30
0.0
 10
6.633230583863814
 20
15.27326791169566
 30
0.0
 10
6.459783483585724
 20
15.09923676007358
 30
0.0
 10
6.24546624663301
 20
15.09887879312082
 30
0.0
 10
6.245032918216507
 20
15.09887879312082
 30
0.0
 10
6.244599589800003
 20
15.09887879312082
 30
0.0
 10
6.244166261383498
 20
15.09887879312082
 30
0.0
  0
SPLINE
  5
171
330
49
100
AcDbEntity
  8
Layer 1
370
     0
100
AcDbSpline
210
0.0
220
0.0
230
1.0
 70
    11
 71
     3
 72
    23
 73
    19
 74
     0
 42
0.0000000001
 43
0.0000000001
 12
1.0
 22
0.0
 32
0.0
 13
1.0
 23
0.0
 33
0.0
 40
0.0
 40
0.0
 40
0.0
 40
0.0
 40
1.0
 40
1.0
 40
1.0
 40
2.0
 40
2.0
 40
2.0
 40
3.0
 40
3.0
 40
3.0
 40
4.0
 40
4.0
 40
4.0
 40
5.0
 40
5.0
 40
5.0
 40
6.0
 40
6.0
 40
6.0
 40
6.0
 10
6.349999325542289
 20
6.067768222563654
 30
0.0
 10
6.349999325542289
 20
6.067768222563654
 30
0.0
 10
6.103054612011495
 20
6.314711590354023
 30
0.0
 10
6.103054612011495
 20
6.314711590354023
 30
0.0
 10
6.103054612011495
 20
6.314711590354023
 30
0.0
 10
11.81805555260104
 20
6.314711590354023
 30
0.0
 10
11.81805555260104
 20
6.314711590354023
 30
0.0
 10
11.95916720197305
 20
4.480268222960529
 30
0.0
 10
13.51138861636296
 20
2.892768223357404
 30
0.0
 10
15.20472168012487
 20
2.046101018606234
 30
0.0
 10
13.25688891609225
 20
2.208599174795264
 30
0.0
 10
11.36148889045661
 20
2.760422727106853
 30
0.0
 10
9.63083306177754
 20
3.668878257682148
 30
0.0
 10
9.63083306177754
 20
3.668878257682148
 30
0.0
 10
9.63083306177754
 20
6.067768222563654
 30
0.0
 10
9.63083306177754
 20
6.067768222563654
 30
0.0
 10
9.63083306177754
 20
6.067768222563654
 30
0.0
 10
6.349999325542289
 20
6.067768222563654
 30
0.0
 10
6.349999325542289
 20
6.067768222563654
 30
0.0
  0
SPLINE
  5
172
330
49
100
AcDbEntity
  8
Layer 1
370
     0
100
AcDbSpline
210
0.0
220
0.0
230
1.0
 70
    11
 71
     3
 72
   353
 73
   349
 74
     0
 42
0.0000000001
 43
0.0000000001
 12
1.0
 22
0.0
 32
0.0
 13
1.0
 23
0.0
 33
0.0
 40
0.0
 40
0.0
 40
0.0
 40
0.0
 40
1.0
 40
1.0
 40
1.0
 40
2.0
 40
2.0
 40
2.0
 40
3.0
 40
3.0
 40
3.0
 40
4.0
 40
4.0
 40
4.0
 40
5.0
 40
5.0
 40
5.0
 40
6.0
 40
6.0
 40
6.0
 40
7.0
 40
7.0
 40
7.0
 40
8.0
 40
8.0
 40
8.0
 40
9.0
 40
9.0
 40
9.0
 40
10.0
 40
10.0
 40
10.0
 40
11.0
 40
11.0
 40
11.0
 40
12.0
 40
12.0
 40
12.0
 40
13.0
 40
13.0
 40
13.0
 40
14.0
 40
14.0
 40
14.0
 40
15.0
 40
15.0
 40
15.0
 40
16.0
 40
16.0
 40
16.0
 40
17.0
 40
17.0
 40
17.0
 40
18.0
 40
18.0
 40
18.0
 40
19.0
 40
19.0
 40
19.0
 40
20.0
 40
20.0
 40
20.0
 40
21.0
 40
21.0
 40
21.0
 40
22.0
 40
22.0
 40
22.0
 40
23.0
 40
23.0
 40
23.0
 40
24.0
 40
24.0
 40
24.0
 40
25.0
 40
25.0
 40
25.0
 40
26.0
 40
26.0
 40
26.0
 40
27.0
 40
27.0
 40
27.0
 40
28.0
 40
28.0
 40
28.0
 40
29.0
 40
29.0
 40
29.0
 40
30.0
 40
30.0
 40
30.0
 40
31.0
 40
31.0
 40
31.0
 40
32.0
 40
32.0
 40
32.0
 40
33.0
 40
33.0
 40
33.0
 40
34.0
 40
34.0
 40
34.0
 40
35.0
 40
35.0
 40
35.0
 40
36.0
 40
36.0
 40
36.0
 40
37.0
 40
37.0
 40
37.0
 40
38.0
 40
38.0
 40
38.0
 40
39.0
 40
39.0
 40
39.0
 40
40.0
 40
40.0
 40
40.0
 40
41.0
 40
41.0
 40
41.0
 40
42.0
 40
42.0
 40
42.0
 40
43.0
 40
43.0
 40
43.0
 40
44.0
 40
44.0
 40
44.0
 40
45.0
 40
45.0
 40
45.0
 40
46.0
 40
46.0
 40
46.0
 40
47.0
 40
47.0
 40
47.0
 40
48.0
 40
48.0
 40
48.0
 40
49.0
 40
49.0
 40
49.0
 40
50.0
 40
50.0
 40
50.0
 40
51.0
 40
51.0
 40
51.0
 40
52.0
 40
52.0
 40
52.0
 40
53.0
 40
53.0
 40
53.0
 40
54.0
 40
54.0
 40
54.0
 40
55.0
 40
55.0
 40
55.0
 40
56.0
 40
56.0
 40
56.0
 40
57.0
 40
57.0
 40
57.0
 40
58.0
 40
58.0
 40
58.0
 40
59.0
 40
59.0
 40
59.0
 40
60.0
 40
60.0
 40
60.0
 40
61.0
 40
61.0
 40
61.0
 40
62.0
 40
62.0
 40
62.0
 40
63.0
 40
63.0
 40
63.0
 40
64.0
 40
64.0
 40
64.0
 40
65.0
 40
65.0
 40
65.0
 40
66.0
 40
66.0
 40
66.0
 40
67.0
 40
67.0
 40
67.0
 40
68.0
 40
68.0
 40
68.0
 40
69.0
 40
69.0
 40
69.0
 40
70.0
 40
70.0
 40
70.0
 40
71.0
 40
71.0
 40
71.0
 40
72.0
 40
72.0
 40
72.0
 40
73.0
 40
73.0
 40
73.0
 40
74.0
 40
74.0
 40
74.0
 40
75.0
 40
75.0
 40
75.0
 40
76.0
 40
76.0
 40
76.0
 40
77.0
 40
77.0
 40
77.0
 40
78.0
 40
78.0
 40
78.0
 40
79.0
 40
79.0
 40
79.0
 40
80.0
 40
80.0
 40
80.0
 40
81.0
 40
81.0
 40
81.0
 40
82.0
 40
82.0
 40
82.0
 40
83.0
 40
83.0
 40
83.0
 40
84.0
 40
84.0
 40
84.0
 40
85.0
 40
85.0
 40
85.0
 40
86.0
 40
86.0
 40
86.0
 40
87.0
 40
87.0
 40
87.0
 40
88.0
 40
88.0
 40
88.0
 40
89.0
 40
89.0
 40
89.0
 40
90.0
 40
90.0
 40
90.0
 40
91.0
 40
91.0
 40
91.0
 40
92.0
 40
92.0
 40
92.0
 40
93.0
 40
93.0
 40
93.0
 40
94.0
 40
94.0
 40
94.0
 40
95.0
 40
95.0
 40
95.0
 40
96.0
 40
96.0
 40
96.0
 40
97.0
 40
97.0
 40
97.0
 40
98.0
 40
98.0
 40
98.0
 40
99.0
 40
99.0
 40
99.0
 40
100.0
 40
100.0
 40
100.0
 40
101.0
 40
101.0
 40
101.0
 40
102.0
 40
102.0
 40
102.0
 40
103.0
 40
103.0
 40
103.0
 40
104.0
 40
104.0
 40
104.0
 40
105.0
 40
105.0
 40
105.0
 40
106.0
 40
106.0
 40
106.0
 40
107.0
 40
107.0
 40
107.0
 40
108.0
 40
108.0
 40
108.0
 40
109.0
 40
109.0
 40
109.0
 40
110.0
 40
110.0
 40
110.0
 40
111.0
 40
111.0
 40
111.0
 40
112.0
 40
112.0
 40
112.0
 40
113.0
 40
113.0
 40
113.0
 40
114.0
 40
114.0
 40
114.0
 40
115.0
 40
115.0
 40
115.0
 40
116.0
 40
116.0
 40
116.0
 40
116.0
 10
26.17611002797474
 20
5.96193381266444
 30
0.0
 10
21.83694363154095
 20
10.05415549556744
 30
0.0
 10
21.83694363154095
 20
10.08943273504023
 30
0.0
 10
21.94277669569975
 20
10.54804492262902
 30
0.0
 10
22.04860975985854
 20
11.00665711021782
 30
0.0
 10
22.04860975985854
 20
11.50054384579856
 30
0.0
 10
22.04860975985854
 20
11.50054384579856
 30
0.0
 10
22.43220095603474
 20
11.75356457734338
 30
0.0
 10
22.84731343016057
 20
11.95519148209847
 30
0.0
 10
23.2833333275125
 20
12.10027037424021
 30
0.0
 10
23.2833333275125
 20
12.10027037424021
 30
0.0
 10
23.38916773741171
 20
12.17082485318578
 30
0.0
 10
24.80027884817005
 20
11.14777145107067
 30
0.0
 10
24.80027884817005
 20
11.14777145107067
 30
0.0
 10
25.22361110480521
 20
12.276659263085
 30
0.0
 10
25.22361110480521
 20
12.276659263085
 30
0.0
 10
23.84777723351966
 20
12.38249367298421
 30
0.0
 10
23.95361164341888
 20
12.45304815192979
 30
0.0
 10
23.95361164341888
 20
12.45304815192979
 30
0.0
 10
24.62388995932526
 20
12.80582592961937
 30
0.0
 10
25.18833386533242
 20
13.19388094678175
 30
0.0
 10
24.90611056658841
 20
13.44082700605296
 30
0.0
 10
24.62388726784441
 20
13.68777306532418
 30
0.0
 10
24.58861002837162
 20
13.75832754426976
 30
0.0
 10
23.77722275457409
 20
13.40554976658017
 30
0.0
 10
23.77722275457409
 20
13.40554976658017
 30
0.0
 10
23.03638995972213
 20
12.98221750994501
 30
0.0
 10
23.03638995972213
 20
12.98221750994501
 30
0.0
 10
22.89527831035013
 20
14.18166249238577
 30
0.0
 10
22.33083440434297
 20
14.04055084301376
 30
0.0
 10
22.33083440434297
 20
14.04055084301376
 30
0.0
 10
21.7663904983358
 20
13.86416195416897
 30
0.0
 10
22.68361218203255
 20
12.80582862110022
 30
0.0
 10
22.61305770308697
 20
12.77055138162743
 30
0.0
 10
22.61305770308697
 20
12.77055138162743
 30
0.0
 10
22.01333521186659
 20
12.41777360393785
 30
0.0
 10
22.01333521186659
 20
12.41777360393785
 30
0.0
 10
21.98045069886755
 20
12.62074894059772
 30
0.0
 10
21.93329595441319
 20
12.82115122156704
 30
0.0
 10
21.87222221675417
 20
13.01749205793695
 30
0.0
 10
21.63517407830092
 20
13.42439551547683
 30
0.0
 10
21.32408061024244
 20
13.78335024171223
 30
0.0
 10
20.95500053305742
 20
14.0758253910057
 30
0.0
 10
21.76638915259538
 20
15.09888148460167
 30
0.0
 10
21.73111191312259
 20
16.01610316829841
 30
0.0
 10
20.95500053305742
 20
16.82749313357679
 30
0.0
 10
20.95500053305742
 20
16.82749313357679
 30
0.0
 10
20.91972329358463
 20
17.03915926189437
 30
0.0
 10
22.08388969081217
 20
16.651104244732
 30
0.0
 10
22.11916693028496
 20
17.28610532116559
 30
0.0
 10
22.11916693028496
 20
17.28610532116559
 30
0.0
 10
22.11916693028496
 20
17.95638094559112
 30
0.0
 10
20.49638969120905
 20
17.77999205674633
 30
0.0
 10
20.46111110599583
 20
17.95638094559112
 30
0.0
 10
20.46111110599583
 20
17.95638094559112
 30
0.0
 10
21.096110836689
 20
19.15582592803187
 30
0.0
 10
21.51944443906459
 20
19.89665872288383
 30
0.0
 10
21.37833278969258
 20
20.2847137400462
 30
0.0
 10
21.23722114032058
 20
20.67276875720857
 30
0.0
 10
21.20194390084779
 20
20.743325927635
 30
0.0
 10
20.28472221715104
 20
20.70804599668136
 30
0.0
 10
19.36750053345429
 20
20.67276606572772
 30
0.0
 10
19.08527723471029
 20
20.77860047562694
 30
0.0
 10
19.22638888408229
 20
20.88443488552615
 30
0.0
 10
19.36750053345429
 20
20.99026929542537
 30
0.0
 10
19.22638888408229
 20
21.69582485080453
 30
0.0
 10
18.94416693107871
 20
21.76637932975011
 30
0.0
 10
18.94416693107871
 20
21.76637932975011
 30
0.0
 10
19.50861083708588
 20
23.03637879113644
 30
0.0
 10
19.50861083708588
 20
23.03637879113644
 30
0.0
 10
19.63972767232938
 20
23.31201065328406
 30
0.0
 10
19.83292755054985
 20
23.55351050105965
 30
0.0
 10
20.07305474309304
 20
23.74193434651561
 30
0.0
 10
20.17793367729126
 20
23.87473604876987
 30
0.0
 10
20.32916394891076
 20
23.96295337077947
 30
0.0
 10
20.49638834546862
 20
23.9888790600464
 30
0.0
 10
20.67277723431341
 20
23.95360182057361
 30
0.0
 10
20.63749999484063
 20
23.56554545767082
 30
0.0
 10
20.35527669609662
 20
22.89526848750486
 30
0.0
 10
20.2312519128872
 20
22.64438613749367
 30
0.0
 10
20.12515239212447
 20
22.38503235151385
 30
0.0
 10
20.03777615787983
 20
22.1191571074397
 30
0.0
 10
19.9945603956463
 20
21.96997236126456
 30
0.0
 10
19.97084441215546
 20
21.8158191414443
 30
0.0
 10
19.96722033319383
 20
21.6605449198509
 30
0.0
 10
19.95385309356297
 20
21.48435520058885
 30
0.0
 10
20.00390117992877
 20
21.30918824404898
 30
0.0
 10
20.10833198256583
 20
21.16665549278931
 30
0.0
 10
20.20434652459166
 20
21.05219219529189
 30
0.0
 10
20.34701519563414
 20
20.98734365574375
 30
0.0
 10
20.4963869997282
 20
20.99026660394452
 30
0.0
 10
20.4963869997282
 20
20.99026660394452
 30
0.0
 10
20.84916477741778
 20
20.99026660394452
 30
0.0
 10
20.84916477741778
 20
20.99026660394452
 30
0.0
 10
20.84916477741778
 20
20.99026660394452
 30
0.0
 10
21.20194255510737
 20
21.16665549278931
 30
0.0
 10
21.20194255510737
 20
21.16665549278931
 30
0.0
 10
21.38021009758396
 20
21.30573507412119
 30
0.0
 10
21.53504291631831
 20
21.47247769560728
 30
0.0
 10
21.66055339695574
 20
21.6605449198509
 30
0.0
 10
21.72565224422272
 20
21.70228440483938
 30
0.0
 10
21.77523201292099
 20
21.76426113432285
 30
0.0
 10
21.80166504632774
 20
21.83693380869569
 30
0.0
 10
21.82926618242246
 20
21.61329059060517
 30
0.0
 10
21.90122696011104
 20
21.39740691179901
 30
0.0
 10
22.01333117464532
 20
21.2019327322621
 30
0.0
 10
22.1782395519336
 20
20.95894045835638
 30
0.0
 10
22.46157443226777
 20
20.82401652345359
 30
0.0
 10
22.75416396949728
 20
20.84915495457252
 30
0.0
 10
22.75416396949728
 20
20.84915495457252
 30
0.0
 10
23.07166450771407
 20
20.84915495457252
 30
0.0
 10
23.07166450771407
 20
20.84915495457252
 30
0.0
 10
23.07166450771407
 20
20.84915495457252
 30
0.0
 10
23.45971952487644
 20
20.95498936447173
 30
0.0
 10
23.45971952487644
 20
20.95498936447173
 30
0.0
 10
23.45971952487644
 20
20.95498936447173
 30
0.0
 10
23.91833171246524
 20
21.2019327322621
 30
0.0
 10
23.91833171246524
 20
21.2019327322621
 30
0.0
 10
24.09180034459012
 20
21.35747879342113
 30
0.0
 10
24.2566750783678
 20
21.52235352719881
 30
0.0
 10
24.41222113952683
 20
21.69582215932369
 30
0.0
 10
24.41222113952683
 20
21.69582215932369
 30
0.0
 10
24.41222113952683
 20
21.69582215932369
 30
0.0
 10
24.41222113952683
 20
21.69582215932369
 30
0.0
 10
24.41222113952683
 20
21.6605449198509
 30
0.0
 10
24.37694390005404
 20
21.62526768037811
 30
0.0
 10
24.37694390005404
 20
21.58998774942447
 30
0.0
 10
24.37694390005404
 20
21.39916175731181
 30
0.0
 10
24.43883719363123
 20
21.21348187658023
 30
0.0
 10
24.55333278889883
 20
21.0608210828901
 30
0.0
 10
24.65465896837789
 20
20.95356557110322
 30
0.0
 10
24.7939538681776
 20
20.89024848415751
 30
0.0
 10
24.9413878060612
 20
20.88443219404531
 30
0.0
 10
25.32944282322358
 20
20.84915495457252
 30
0.0
 10
25.75277777133958
 20
21.16665549278931
 30
0.0
 10
26.17611002797474
 20
21.80165387774205
 30
0.0
 10
26.17611002797474
 20
21.80165387774205
 30
0.0
 10
26.17611002797474
 20
21.62526498889726
 30
0.0
 10
26.17611002797474
 20
21.62526498889726
 30
0.0
 10
26.17588394358352
 20
21.42351965898486
 30
0.0
 10
26.23744080205473
 20
21.22654094165401
 30
0.0
 10
26.35249891681954
 20
21.0608210828901
 30
0.0
 10
26.45965753529589
 20
20.91715252671264
 30
0.0
 10
26.63225951058776
 20
20.83749007657793
 30
0.0
 10
26.81111110440833
 20
20.84915495457252
 30
0.0
 10
26.81111110440833
 20
20.84915495457252
 30
0.0
 10
26.91694551430755
 20
19.89665603140298
 30
0.0
 10
26.91694551430755
 20
19.89665603140298
 30
0.0
 10
26.91694551430755
 20
19.89665603140298
 30
0.0
 10
26.10555554902917
 20
20.743325927635
 30
0.0
 10
26.10555554902917
 20
20.743325927635
 30
0.0
 10
26.10555554902917
 20
20.743325927635
 30
0.0
 10
26.07027830955638
 20
20.743325927635
 30
0.0
 10
26.07027830955638
 20
20.743325927635
 30
0.0
 10
26.09879454913937
 20
20.79749197969801
 30
0.0
 10
26.11104616995878
 20
20.85874739231426
 30
0.0
 10
26.10555554902917
 20
20.91971481647979
 30
0.0
 10
26.10555554902917
 20
20.91971481647979
 30
0.0
 10
26.03500107008359
 20
21.02554922637901
 30
0.0
 10
26.03500107008359
 20
21.02554922637901
 30
0.0
 10
25.91447924919765
 20
21.13334841729715
 30
0.0
 10
25.73219063433437
 20
21.13334841729715
 30
0.0
 10
25.61166881344843
 20
21.02554922637901
 30
0.0
 10
25.54990201947109
 20
20.94471059911379
 30
0.0
 10
25.53642308338505
 20
20.83688180190632
 30
0.0
 10
25.57639157397564
 20
20.743325927635
 30
0.0
 10
25.57639157397564
 20
20.70804868816221
 30
0.0
 10
25.61166881344843
 20
20.67277144868942
 30
0.0
 10
25.61166881344843
 20
20.63749151773579
 30
0.0
 10
25.68880127158615
 20
20.56972272146773
 30
0.0
 10
25.79394397090747
 20
20.54343771950762
 30
0.0
 10
25.89389211219244
 20
20.56693703879021
 30
0.0
 10
25.89389211219244
 20
20.56693703879021
 30
0.0
 10
25.89389211219244
 20
20.56693703879021
 30
0.0
 10
25.89389211219244
 20
20.56693703879021
 30
0.0
 10
25.89389211219244
 20
20.56693703879021
 30
0.0
 10
26.7405593169436
 20
19.75554707351183
 30
0.0
 10
26.7405593169436
 20
19.75554707351183
 30
0.0
 10
26.7405593169436
 20
19.75554707351183
 30
0.0
 10
25.54111433450285
 20
19.89665872288383
 30
0.0
 10
25.54111433450285
 20
19.89665872288383
 30
0.0
 10
25.48266344493006
 20
19.89665872288383
 30
0.0
 10
25.43527992460364
 20
19.84927789403825
 30
0.0
 10
25.43527992460364
 20
19.79082700446546
 30
0.0
 10
25.43527992460364
 20
19.79082700446546
 30
0.0
 10
25.43527992460364
 20
19.79082431298461
 30
0.0
 10
25.43527992460364
 20
19.79082431298461
 30
0.0
 10
25.43527992460364
 20
19.79082431298461
 30
0.0
 10
25.43527992460364
 20
19.79082431298461
 30
0.0
 10
25.43527992460364
 20
19.79082431298461
 30
0.0
 10
25.40000268513085
 20
19.72026983403904
 30
0.0
 10
25.40000268513085
 20
19.6849899030854
 30
0.0
 10
25.47055716407642
 20
19.64971266361261
 30
0.0
 10
25.47055716407642
 20
19.64971266361261
 30
0.0
 10
26.38777884777317
 20
18.90887986876066
 30
0.0
 10
26.38777884777317
 20
18.90887986876066
 30
0.0
 10
26.38777884777317
 20
18.90887986876066
 30
0.0
 10
25.22361110480521
 20
18.90887986876066
 30
0.0
 10
25.22361110480521
 20
18.90887986876066
 30
0.0
 10
25.16474572718185
 20
18.98848579779756
 30
0.0
 10
25.07513556383348
 20
19.03969122092793
 30
0.0
 10
24.97666773701484
 20
19.04999151813266
 30
0.0
 10
24.82080138963492
 20
19.04977350818399
 30
0.0
 10
24.69462476748764
 20
18.92323891908395
 30
0.0
 10
24.69484277743632
 20
18.76737257170402
 30
0.0
 10
24.69506078738499
 20
18.6118157446216
 30
0.0
 10
24.82111090993242
 20
18.48576562207417
 30
0.0
 10
24.97666773701484
 20
18.4855476121255
 30
0.0
 10
25.07513556383348
 20
18.49584790933022
 30
0.0
 10
25.16474572718185
 20
18.5470533324606
 30
0.0
 10
25.22361110480521
 20
18.6266592614975
 30
0.0
 10
25.22361110480521
 20
18.6266592614975
 30
0.0
 10
26.38777884777317
 20
18.6266592614975
 30
0.0
 10
26.38777884777317
 20
18.6266592614975
 30
0.0
 10
26.38777884777317
 20
18.6266592614975
 30
0.0
 10
25.47055716407642
 20
17.88582646664554
 30
0.0
 10
25.47055716407642
 20
17.88582646664554
 30
0.0
 10
25.40000268513085
 20
17.85054922717276
 30
0.0
 10
25.40000268513085
 20
17.81527198769997
 30
0.0
 10
25.43527992460364
 20
17.74471481727354
 30
0.0
 10
25.43527992460364
 20
17.74471481727354
 30
0.0
 10
25.43527992460364
 20
17.74471481727354
 30
0.0
 10
25.43527992460364
 20
17.74471481727354
 30
0.0
 10
25.43527992460364
 20
17.67416033832796
 30
0.0
 10
25.50583440354922
 20
17.63888040737433
 30
0.0
 10
25.54111433450285
 20
17.67416033832796
 30
0.0
 10
25.54111433450285
 20
17.67416033832796
 30
0.0
 10
26.7405593169436
 20
17.77999474822718
 30
0.0
 10
26.7405593169436
 20
17.77999474822718
 30
0.0
 10
26.7405593169436
 20
17.77999474822718
 30
0.0
 10
25.89389211219244
 20
16.9686047829488
 30
0.0
 10
25.89389211219244
 20
16.9686047829488
 30
0.0
 10
25.89389211219244
 20
16.9686047829488
 30
0.0
 10
25.89389211219244
 20
16.9686047829488
 30
0.0
 10
25.89389211219244
 20
16.9686047829488
 30
0.0
 10
25.79394397090747
 20
16.99210410223139
 30
0.0
 10
25.68880127158615
 20
16.96581910027127
 30
0.0
 10
25.61166881344843
 20
16.89805030400322
 30
0.0
 10
25.50863354363098
 20
16.7892175844395
 30
0.0
 10
25.50863354363098
 20
16.61882800640457
 30
0.0
 10
25.61166881344843
 20
16.50999528684085
 30
0.0
 10
25.73219063433437
 20
16.4021960959227
 30
0.0
 10
25.91447924919765
 20
16.4021960959227
 30
0.0
 10
26.03500107008359
 20
16.50999528684085
 30
0.0
 10
26.09676786406093
 20
16.59083391410606
 30
0.0
 10
26.11024680014697
 20
16.69866271131354
 30
0.0
 10
26.07027830955638
 20
16.79221858558485
 30
0.0
 10
26.07027830955638
 20
16.79221858558485
 30
0.0
 10
26.91694551430755
 20
17.60360316790154
 30
0.0
 10
26.91694551430755
 20
17.60360316790154
 30
0.0
 10
26.91694551430755
 20
17.60360316790154
 30
0.0
 10
26.77583386493555
 20
16.43943542493357
 30
0.0
 10
26.77583386493555
 20
16.43943542493357
 30
0.0
 10
26.77583386493555
 20
16.368880945988
 30
0.0
 10
26.81111110440833
 20
16.33360101503436
 30
0.0
 10
26.88166827483476
 20
16.29832377556157
 30
0.0
 10
26.88166827483476
 20
16.29832377556157
 30
0.0
 10
26.88166827483476
 20
16.29832377556157
 30
0.0
 10
26.88166827483476
 20
16.29832377556157
 30
0.0
 10
26.91694551430755
 20
16.26304653608878
 30
0.0
 10
26.98750268473398
 20
16.29832377556157
 30
0.0
 10
27.02277992420676
 20
16.33360101503436
 30
0.0
 10
27.02277992420676
 20
16.33360101503436
 30
0.0
 10
27.76361002757787
 20
17.25082539021195
 30
0.0
 10
27.76361002757787
 20
17.25082539021195
 30
0.0
 10
27.76361002757787
 20
17.25082539021195
 30
0.0
 10
27.76361002757787
 20
16.08665764724399
 30
0.0
 10
27.76361002757787
 20
16.08665764724399
 30
0.0
 10
27.6755017105426
 20
16.03579404218129
 30
0.0
 10
27.62158865767929
 20
15.94144687254071
 30
0.0
 10
27.62249837820587
 20
15.83971427945362
 30
0.0
 10
27.62249837820587
 20
15.6838479320737
 30
0.0
 10
27.7488526380891
 20
15.55749098070962
 30
0.0
 10
27.90471898546902
 20
15.55749098070962
 30
0.0
 10
27.90471898546902
 20
15.55749098070962
 30
0.0
 10
27.90472167694987
 20
15.55749098070962
 30
0.0
 10
27.90472167694987
 20
15.55749098070962
 30
0.0
 10
28.05355787635521
 20
15.57328459032481
 30
0.0
 10
28.17115136607869
 20
15.69087808004828
 30
0.0
 10
28.18694497569388
 20
15.83971427945362
 30
0.0
 10
28.18117174927524
 20
15.94932483698237
 30
0.0
 10
28.11237211584246
 20
16.04564755356528
 30
0.0
 10
28.01055608684909
 20
16.08665764724399
 30
0.0
 10
28.01055608684909
 20
16.08665764724399
 30
0.0
 10
28.01055608684909
 20
17.25082539021195
 30
0.0
 10
28.01055608684909
 20
17.25082539021195
 30
0.0
 10
28.01055608684909
 20
17.25082539021195
 30
0.0
 10
28.75138888170104
 20
16.33360370651521
 30
0.0
 10
28.75138888170104
 20
16.33360370651521
 30
0.0
 10
28.7940999912756
 20
16.28103639407582
 30
0.0
 10
28.86813455495745
 20
16.26623055793179
 30
0.0
 10
28.92777777054583
 20
16.29832646704242
 30
0.0
 10
28.92777777054583
 20
16.29832646704242
 30
0.0
 10
28.92777777054583
 20
16.29832646704242
 30
0.0
 10
28.92777777054583
 20
16.29832646704242
 30
0.0
 10
28.97219258749708
 20
16.33163892549628
 30
0.0
 10
28.99833224949141
 20
16.38391824948494
 30
0.0
 10
28.99833224949141
 20
16.43943811641442
 30
0.0
 10
28.99833224949141
 20
16.43943811641442
 30
0.0
 10
28.89250053107305
 20
17.60360316790154
 30
0.0
 10
28.89250053107305
 20
17.60360316790154
 30
0.0
 10
28.89250053107305
 20
17.60360316790154
 30
0.0
 10
29.70389049635143
 20
16.79221320262316
 30
0.0
 10
29.70389049635143
 20
16.79221320262316
 30
0.0
 10
29.70389049635143
 20
16.79221320262316
 30
0.0
 10
29.70389049635143
 20
16.79221320262316
 30
0.0
 10
29.70389049635143
 20
16.79221320262316
 30
0.0
 10
29.65373205927087
 20
16.64463661625462
 30
0.0
 10
29.73270279882768
 20
16.48434278287997
 30
0.0
 10
29.88027938519622
 20
16.43418165431857
 30
0.0
 10
30.02785597156476
 20
16.38402321723801
 30
0.0
 10
30.1881498049394
 20
16.46299664827567
 30
0.0
 10
30.23831093350081
 20
16.61057054316336
 30
0.0
 10
30.28846937058137
 20
16.7581471295319
 30
0.0
 10
30.20949593954371
 20
16.91844365438739
 30
0.0
 10
30.06192204465601
 20
16.96860209146795
 30
0.0
 10
30.00302706074333
 20
16.98861863453342
 30
0.0
 10
29.93917167762806
 20
16.98861863453342
 30
0.0
 10
29.88027938519622
 20
16.96860209146795
 30
0.0
 10
29.88027938519622
 20
16.96860209146795
 30
0.0
 10
29.88027938519622
 20
16.96860209146795
 30
0.0
 10
29.88027938519622
 20
16.96860209146795
 30
0.0
 10
29.88027938519622
 20
16.96860209146795
 30
0.0
 10
29.06888941991784
 20
17.77999205674633
 30
0.0
 10
29.06888941991784
 20
17.77999205674633
 30
0.0
 10
29.06888941991784
 20
17.77999205674633
 30
0.0
 10
30.2330571628858
 20
17.67415764684712
 30
0.0
 10
30.2330571628858
 20
17.67415764684712
 30
0.0
 10
30.30361164183138
 20
17.63888040737433
 30
0.0
 10
30.33889157278502
 20
17.67415764684712
 30
0.0
 10
30.3741688122578
 20
17.74471212579269
 30
0.0
 10
30.3741688122578
 20
17.74471212579269
 30
0.0
 10
30.3741688122578
 20
17.74471212579269
 30
0.0
 10
30.3741688122578
 20
17.74471212579269
 30
0.0
 10
30.3741688122578
 20
17.81526660473827
 30
0.0
 10
30.3741688122578
 20
17.85054653569191
 30
0.0
 10
30.33889157278502
 20
17.8858237751647
 30
0.0
 10
30.33889157278502
 20
17.8858237751647
 30
0.0
 10
29.42166988908827
 20
18.62665657001665
 30
0.0
 10
29.42166988908827
 20
18.62665657001665
 30
0.0
 10
29.42166988908827
 20
18.62665657001665
 30
0.0
 10
30.44472598268423
 20
18.62665657001665
 30
0.0
 10
30.44472598268423
 20
18.62665657001665
 30
0.0
 10
30.55875326028431
 20
17.85571956188148
 30
0.0
 10
30.6176993823331
 20
17.07763936357611
 30
0.0
 10
30.62111487152902
 20
16.29832377556157
 30
0.0
 10
30.62810464729089
 20
12.38734102999119
 30
0.0
 10
29.01966492669148
 20
8.64708429756173
 30
0.0
 10
26.17611002797474
 20
5.96193381266444
 30
0.0
  0
ENDBLK
  5
4C
330
49
100
AcDbEntity
  8
0
100
AcDbBlockEnd
  0
ENDSEC
  0
SECTION
  2
ENTITIES
  0
INSERT
  5
42
330
1F
100
AcDbEntity
  8
Layer 1
100
AcDbBlockReference
  2
block 2
 10
0.0
 20
0.0
 30
0.0
  0
INSERT
  5
46
330
1F
100
AcDbEntity
  8
Layer 1
100
AcDbBlockReference
  2
block 3
 10
0.0
 20
0.0
 30
0.0
  0
ENDSEC
  0
SECTION
  2
OBJECTS
  0
DICTIONARY
  5
C
330
0
100
AcDbDictionary
281
     1
  3
ACAD_GROUP
350
D
  3
ACAD_LAYOUT
350
1A
  3
ACAD_MATERIAL
350
3B
  3
ACAD_MLEADERSTYLE
350
174
  3
ACAD_MLINESTYLE
350
17
  3
ACAD_PLOTSETTINGS
350
19
  3
ACAD_PLOTSTYLENAME
350
E
  3
ACAD_TABLESTYLE
350
173
  3
ACAD_VISUALSTYLE
350
2A
  0
SUN
  5
3F
330
29
100
AcDbSun
 90
        1
290
     0
 63
     7
421
 16777215
 40
1.0
291
     1
 91
  2455826
 92
 54000000
292
     0
 70
     2
 71
   256
280
     1
  0
DICTIONARY
  5
D
102
{ACAD_REACTORS
330
C
102
}
330
C
100
AcDbDictionary
281
     1
  0
DICTIONARY
  5
1A
102
{ACAD_REACTORS
330
C
102
}
330
C
100
AcDbDictionary
281
     1
  3
Layout1
350
1E
  3
Layout2
350
26
  3
Model
350
22
  0
DICTIONARY
  5
3B
102
{ACAD_REACTORS
330
C
102
}
330
C
100
AcDbDictionary
281
     1
  3
ByBlock
350
3D
  3
ByLayer
350
3C
  3
Global
350
3E
  0
DICTIONARY
  5
174
102
{ACAD_REACTORS
330
C
102
}
330
C
100
AcDbDictionary
281
     1
  0
DICTIONARY
  5
17
102
{ACAD_REACTORS
330
C
102
}
330
C
100
AcDbDictionary
281
     1
  3
Standard
350
18
  0
DICTIONARY
  5
19
102
{ACAD_REACTORS
330
C
102
}
330
C
100
AcDbDictionary
281
     1
  0
ACDBDICTIONARYWDFLT
  5
E
102
{ACAD_REACTORS
330
C
102
}
330
C
100
AcDbDictionary
281
     1
  3
Normal
350
F
100
AcDbDictionaryWithDefault
340
F
  0
DICTIONARY
  5
173
102
{ACAD_REACTORS
330
C
102
}
330
C
100
AcDbDictionary
281
     1
  0
DICTIONARY
  5
2A
102
{ACAD_REACTORS
330
C
102
}
330
C
100
AcDbDictionary
281
     1
  3
2dWireframe
350
2F
  3
3D Hidden
350
31
  3
3dWireframe
350
30
  3
Basic
350
32
  3
Brighten
350
36
  3
ColorChange
350
3A
  3
Conceptual
350
34
  3
Dim
350
35
  3
Facepattern
350
39
  3
Flat
350
2B
  3
FlatWithEdges
350
2C
  3
Gouraud
350
2D
  3
GouraudWithEdges
350
2E
  3
Linepattern
350
38
  3
Realistic
350
33
  3
Thicken
350
37
  0
LAYOUT
  5
1E
102
{ACAD_REACTORS
330
1A
102
}
330
1A
100
AcDbPlotSettings
  1

  2
none_device
  4

  6

 40
0.0
 41
0.0
 42
0.0
 43
0.0
 44
0.0
 45
0.0
 46
0.0
 47
0.0
 48
0.0
 49
0.0
140
0.0
141
0.0
142
1.0
143
1.0
 70
   688
 72
     0
 73
     0
 74
     5
  7

 75
    16
 76
     0
 77
     2
 78
   300
147
1.0
148
0.0
149
0.0
100
AcDbLayout
  1
Layout1
 70
     1
 71
     1
 10
0.0
 20
0.0
 11
12.0
 21
9.0
 12
0.0
 22
0.0
 32
0.0
 14
1.000000000000000E+20
 24
1.000000000000000E+20
 34
1.000000000000000E+20
 15
-1.000000000000000E+20
 25
-1.000000000000000E+20
 35
-1.000000000000000E+20
146
0.0
 13
0.0
 23
0.0
 33
0.0
 16
1.0
 26
0.0
 36
0.0
 17
0.0
 27
1.0
 37
0.0
 76
     0
330
1B
  0
LAYOUT
  5
26
102
{ACAD_REACTORS
330
1A
102
}
330
1A
100
AcDbPlotSettings
  1

  2
none_device
  4

  6

 40
0.0
 41
0.0
 42
0.0
 43
0.0
 44
0.0
 45
0.0
 46
0.0
 47
0.0
 48
0.0
 49
0.0
140
0.0
141
0.0
142
1.0
143
1.0
 70
   688
 72
     0
 73
     0
 74
     5
  7

 75
    16
 76
     0
 77
     2
 78
   300
147
1.0
148
0.0
149
0.0
100
AcDbLayout
  1
Layout2
 70
     1
 71
     2
 10
0.0
 20
0.0
 11
0.0
 21
0.0
 12
0.0
 22
0.0
 32
0.0
 14
0.0
 24
0.0
 34
0.0
 15
0.0
 25
0.0
 35
0.0
146
0.0
 13
0.0
 23
0.0
 33
0.0
 16
1.0
 26
0.0
 36
0.0
 17
0.0
 27
1.0
 37
0.0
 76
     0
330
23
  0
LAYOUT
  5
22
102
{ACAD_REACTORS
330
1A
102
}
330
1A
100
AcDbPlotSettings
  1

  2
none_device
  4

  6

 40
0.0
 41
0.0
 42
0.0
 43
0.0
 44
0.0
 45
0.0
 46
0.0
 47
0.0
 48
0.0
 49
0.0
140
0.0
141
0.0
142
1.0
143
1.0
 70
  1712
 72
     0
 73
     0
 74
     0
  7

 75
     0
 76
     0
 77
     2
 78
   300
147
1.0
148
0.0
149
0.0
100
AcDbLayout
  1
Model
 70
     1
 71
     0
 10
0.0
 20
0.0
 11
12.0
 21
9.0
 12
0.0
 22
0.0
 32
0.0
 14
1.000000000000000E+20
 24
1.000000000000000E+20
 34
1.000000000000000E+20
 15
-1.000000000000000E+20
 25
-1.000000000000000E+20
 35
-1.000000000000000E+20
146
0.0
 13
0.0
 23
0.0
 33
0.0
 16
1.0
 26
0.0
 36
0.0
 17
0.0
 27
1.0
 37
0.0
 76
     0
330
1F
331
29
  0
MATERIAL
  5
3D
102
{ACAD_REACTORS
330
3B
102
}
330
3B
100
AcDbMaterial
  1
ByBlock
 72
     1
 94
      127
  0
MATERIAL
  5
3C
102
{ACAD_REACTORS
330
3B
102
}
330
3B
100
AcDbMaterial
  1
ByLayer
 72
     1
 94
      127
  0
MATERIAL
  5
3E
102
{ACAD_REACTORS
330
3B
102
}
330
3B
100
AcDbMaterial
  1
Global
 72
     1
 94
      127
  0
MLINESTYLE
  5
18
102
{ACAD_REACTORS
330
17
102
}
330
17
100
AcDbMlineStyle
  2
Standard
 70
     0
  3

 62
   256
 51
90.0
 52
90.0
 71
     2
 49
0.5
 62
   256
  6
BYLAYER
 49
-0.5
 62
   256
  6
BYLAYER
  0
ACDBPLACEHOLDER
  5
F
102
{ACAD_REACTORS
330
E
102
}
330
E
  0
VISUALSTYLE
  5
2F
102
{ACAD_REACTORS
330
2A
102
}
330
2A
100
AcDbVisualStyle
  2
2dWireframe
 70
     4
177
     2
291
     0
 71
     0
176
     1
 72
     2
176
     1
 73
     0
176
     1
 90
        0
176
     1
 40
-0.6
176
     1
 41
-30.0
176
     1
 62
     5
 63
     7
421
 16777215
176
     1
 74
     1
176
     1
 91
        4
176
     1
 64
     7
176
     1
 65
   257
176
     1
 75
     1
176
     1
175
     1
176
     1
 42
1.0
176
     1
 92
        0
176
     1
 66
   257
176
     1
 43
1.0
176
     1
 76
     1
176
     1
 77
     6
176
     1
 78
     2
176
     1
 67
     7
176
     1
 79
     5
176
     1
170
     0
176
     1
171
     0
176
     1
290
     0
176
     1
 93
        1
176
     1
 44
0.0
176
     1
173
     0
176
     1
  0
VISUALSTYLE
  5
31
102
{ACAD_REACTORS
330
2A
102
}
330
2A
100
AcDbVisualStyle
  2
3D Hidden
 70
     6
177
     2
291
     0
 71
     1
176
     1
 72
     2
176
     1
 73
     2
176
     1
 90
        0
176
     1
 40
-0.6
176
     1
 41
-30.0
176
     1
 62
     5
 63
     7
421
 16777215
176
     1
 74
     2
176
     1
 91
        2
176
     1
 64
     7
176
     1
 65
   257
176
     1
 75
     2
176
     1
175
     1
176
     1
 42
40.0
176
     1
 92
        0
176
     1
 66
   257
176
     1
 43
1.0
176
     1
 76
     1
176
     1
 77
     6
176
     1
 78
     2
176
     1
 67
     7
176
     1
 79
     3
176
     1
170
     0
176
     1
171
     0
176
     1
290
     0
176
     1
 93
        1
176
     1
 44
0.0
176
     1
173
     0
176
     1
  0
VISUALSTYLE
  5
30
102
{ACAD_REACTORS
330
2A
102
}
330
2A
100
AcDbVisualStyle
  2
3dWireframe
 70
     5
177
     2
291
     0
 71
     0
176
     1
 72
     2
176
     1
 73
     0
176
     1
 90
        0
176
     1
 40
-0.6
176
     1
 41
-30.0
176
     1
 62
     5
 63
     7
421
 16777215
176
     1
 74
     1
176
     1
 91
        4
176
     1
 64
     7
176
     1
 65
   257
176
     1
 75
     1
176
     1
175
     1
176
     1
 42
1.0
176
     1
 92
        0
176
     1
 66
   257
176
     1
 43
1.0
176
     1
 76
     1
176
     1
 77
     6
176
     1
 78
     2
176
     1
 67
     7
176
     1
 79
     5
176
     1
170
     0
176
     1
171
     0
176
     1
290
     0
176
     1
 93
        1
176
     1
 44
0.0
176
     1
173
     0
176
     1
  0
VISUALSTYLE
  5
32
102
{ACAD_REACTORS
330
2A
102
}
330
2A
100
AcDbVisualStyle
  2
Basic
 70
     7
177
     2
291
     1
 71
     1
176
     1
 72
     0
176
     1
 73
     1
176
     1
 90
        0
176
     1
 40
-0.6
176
     1
 41
-30.0
176
     1
 62
     5
 63
     7
421
 16777215
176
     1
 74
     0
176
     1
 91
        4
176
     1
 64
     7
176
     1
 65
   257
176
     1
 75
     1
176
     1
175
     1
176
     1
 42
1.0
176
     1
 92
        8
176
     1
 66
     7
176
     1
 43
1.0
176
     1
 76
     1
176
     1
 77
     6
176
     1
 78
     2
176
     1
 67
     7
176
     1
 79
     5
176
     1
170
     0
176
     1
171
     0
176
     1
290
     0
176
     1
 93
        1
176
     1
 44
0.0
176
     1
173
     0
176
     1
  0
VISUALSTYLE
  5
36
102
{ACAD_REACTORS
330
2A
102
}
330
2A
100
AcDbVisualStyle
  2
Brighten
 70
    12
177
     2
291
     1
 71
     2
176
     1
 72
     2
176
     1
 73
     0
176
     1
 90
        0
176
     1
 40
-0.6
176
     1
 41
-30.0
176
     1
 62
     5
 63
     7
421
 16777215
176
     1
 74
     1
176
     1
 91
        4
176
     1
 64
     7
176
     1
 65
   257
176
     1
 75
     1
176
     1
175
     1
176
     1
 42
1.0
176
     1
 92
        8
176
     1
 66
     7
176
     1
 43
1.0
176
     1
 76
     1
176
     1
 77
     6
176
     1
 78
     2
176
     1
 67
     7
176
     1
 79
     5
176
     1
170
     0
176
     1
171
     0
176
     1
290
     0
176
     1
 93
        1
176
     1
 44
50.0
176
     1
173
     0
176
     1
  0
VISUALSTYLE
  5
3A
102
{ACAD_REACTORS
330
2A
102
}
330
2A
100
AcDbVisualStyle
  2
ColorChange
 70
    16
177
     2
291
     1
 71
     2
176
     1
 72
     2
176
     1
 73
     3
176
     1
 90
        0
176
     1
 40
-0.6
176
     1
 41
-30.0
176
     1
 62
     5
 63
     8
421
  8421504
176
     1
 74
     1
176
     1
 91
        4
176
     1
 64
     7
176
     1
 65
   257
176
     1
 75
     1
176
     1
175
     1
176
     1
 42
1.0
176
     1
 92
        8
176
     1
 66
     8
424
  8421504
176
     1
 43
1.0
176
     1
 76
     1
176
     1
 77
     6
176
     1
 78
     2
176
     1
 67
     7
176
     1
 79
     5
176
     1
170
     0
176
     1
171
     0
176
     1
290
     0
176
     1
 93
        1
176
     1
 44
0.0
176
     1
173
     0
176
     1
  0
VISUALSTYLE
  5
34
102
{ACAD_REACTORS
330
2A
102
}
330
2A
100
AcDbVisualStyle
  2
Conceptual
 70
     9
177
     2
291
     0
 71
     3
176
     1
 72
     2
176
     1
 73
     0
176
     1
 90
        0
176
     1
 40
-0.6
176
     1
 41
-30.0
176
     1
 62
     5
 63
     7
421
 16777215
176
     1
 74
     2
176
     1
 91
        2
176
     1
 64
     7
176
     1
 65
   257
176
     1
 75
     1
176
     1
175
     1
176
     1
 42
40.0
176
     1
 92
        8
176
     1
 66
     7
176
     1
 43
1.0
176
     1
 76
     1
176
     1
 77
     6
176
     1
 78
     2
176
     1
 67
     7
176
     1
 79
     3
176
     1
170
     0
176
     1
171
     0
176
     1
290
     0
176
     1
 93
        1
176
     1
 44
0.0
176
     1
173
     0
176
     1
  0
VISUALSTYLE
  5
35
102
{ACAD_REACTORS
330
2A
102
}
330
2A
100
AcDbVisualStyle
  2
Dim
 70
    11
177
     2
291
     1
 71
     2
176
     1
 72
     2
176
     1
 73
     0
176
     1
 90
        0
176
     1
 40
-0.6
176
     1
 41
-30.0
176
     1
 62
     5
 63
     7
421
 16777215
176
     1
 74
     1
176
     1
 91
        4
176
     1
 64
     7
176
     1
 65
   257
176
     1
 75
     1
176
     1
175
     1
176
     1
 42
1.0
176
     1
 92
        8
176
     1
 66
     7
176
     1
 43
1.0
176
     1
 76
     1
176
     1
 77
     6
176
     1
 78
     2
176
     1
 67
     7
176
     1
 79
     5
176
     1
170
     0
176
     1
171
     0
176
     1
290
     0
176
     1
 93
        1
176
     1
 44
-50.0
176
     1
173
     0
176
     1
  0
VISUALSTYLE
  5
39
102
{ACAD_REACTORS
330
2A
102
}
330
2A
100
AcDbVisualStyle
  2
Facepattern
 70
    15
177
     2
291
     1
 71
     2
176
     1
 72
     2
176
     1
 73
     0
176
     1
 90
        0
176
     1
 40
-0.6
176
     1
 41
-30.0
176
     1
 62
     5
 63
     7
421
 16777215
176
     1
 74
     1
176
     1
 91
        4
176
     1
 64
     7
176
     1
 65
   257
176
     1
 75
     1
176
     1
175
     1
176
     1
 42
1.0
176
     1
 92
        8
176
     1
 66
     7
176
     1
 43
1.0
176
     1
 76
     1
176
     1
 77
     6
176
     1
 78
     2
176
     1
 67
     7
176
     1
 79
     5
176
     1
170
     0
176
     1
171
     0
176
     1
290
     0
176
     1
 93
        1
176
     1
 44
0.0
176
     1
173
     0
176
     1
  0
VISUALSTYLE
  5
2B
102
{ACAD_REACTORS
330
2A
102
}
330
2A
100
AcDbVisualStyle
  2
Flat
 70
     0
177
     2
291
     1
 71
     2
176
     1
 72
     1
176
     1
 73
     1
176
     1
 90
        2
176
     1
 40
-0.6
176
     1
 41
30.0
176
     1
 62
     5
 63
     7
421
 16777215
176
     1
 74
     0
176
     1
 91
        4
176
     1
 64
     7
176
     1
 65
   257
176
     1
 75
     1
176
     1
175
     1
176
     1
 42
1.0
176
     1
 92
        8
176
     1
 66
     7
176
     1
 43
1.0
176
     1
 76
     1
176
     1
 77
     6
176
     1
 78
     2
176
     1
 67
     7
176
     1
 79
     5
176
     1
170
     0
176
     1
171
     0
176
     1
290
     0
176
     1
 93
       13
176
     1
 44
0.0
176
     1
173
     0
176
     1
  0
VISUALSTYLE
  5
2C
102
{ACAD_REACTORS
330
2A
102
}
330
2A
100
AcDbVisualStyle
  2
FlatWithEdges
 70
     1
177
     2
291
     1
 71
     2
176
     1
 72
     1
176
     1
 73
     1
176
     1
 90
        2
176
     1
 40
-0.6
176
     1
 41
30.0
176
     1
 62
     5
 63
     7
421
 16777215
176
     1
 74
     1
176
     1
 91
        4
176
     1
 64
     7
176
     1
 65
   257
176
     1
 75
     1
176
     1
175
     1
176
     1
 42
1.0
176
     1
 92
        0
176
     1
 66
   257
176
     1
 43
1.0
176
     1
 76
     1
176
     1
 77
     6
176
     1
 78
     2
176
     1
 67
     7
176
     1
 79
     5
176
     1
170
     0
176
     1
171
     0
176
     1
290
     0
176
     1
 93
       13
176
     1
 44
0.0
176
     1
173
     0
176
     1
  0
VISUALSTYLE
  5
2D
102
{ACAD_REACTORS
330
2A
102
}
330
2A
100
AcDbVisualStyle
  2
Gouraud
 70
     2
177
     2
291
     1
 71
     2
176
     1
 72
     2
176
     1
 73
     1
176
     1
 90
        2
176
     1
 40
-0.6
176
     1
 41
30.0
176
     1
 62
     5
 63
     7
421
 16777215
176
     1
 74
     0
176
     1
 91
        4
176
     1
 64
     7
176
     1
 65
   257
176
     1
 75
     1
176
     1
175
     1
176
     1
 42
1.0
176
     1
 92
        0
176
     1
 66
     7
176
     1
 43
1.0
176
     1
 76
     1
176
     1
 77
     6
176
     1
 78
     2
176
     1
 67
     7
176
     1
 79
     5
176
     1
170
     0
176
     1
171
     0
176
     1
290
     0
176
     1
 93
       13
176
     1
 44
0.0
176
     1
173
     0
176
     1
  0
VISUALSTYLE
  5
2E
102
{ACAD_REACTORS
330
2A
102
}
330
2A
100
AcDbVisualStyle
  2
GouraudWithEdges
 70
     3
177
     2
291
     1
 71
     2
176
     1
 72
     2
176
     1
 73
     1
176
     1
 90
        2
176
     1
 40
-0.6
176
     1
 41
30.0
176
     1
 62
     5
 63
     7
421
 16777215
176
     1
 74
     1
176
     1
 91
        4
176
     1
 64
     7
176
     1
 65
   257
176
     1
 75
     1
176
     1
175
     1
176
     1
 42
1.0
176
     1
 92
        0
176
     1
 66
   257
176
     1
 43
1.0
176
     1
 76
     1
176
     1
 77
     6
176
     1
 78
     2
176
     1
 67
     7
176
     1
 79
     5
176
     1
170
     0
176
     1
171
     0
176
     1
290
     0
176
     1
 93
       13
176
     1
 44
0.0
176
     1
173
     0
176
     1
  0
VISUALSTYLE
  5
38
102
{ACAD_REACTORS
330
2A
102
}
330
2A
100
AcDbVisualStyle
  2
Linepattern
 70
    14
177
     2
291
     1
 71
     2
176
     1
 72
     2
176
     1
 73
     0
176
     1
 90
        0
176
     1
 40
-0.6
176
     1
 41
-30.0
176
     1
 62
     5
 63
     7
421
 16777215
176
     1
 74
     1
176
     1
 91
        4
176
     1
 64
     7
176
     1
 65
   257
176
     1
 75
     7
176
     1
175
     7
176
     1
 42
1.0
176
     1
 92
        8
176
     1
 66
     7
176
     1
 43
1.0
176
     1
 76
     1
176
     1
 77
     6
176
     1
 78
     2
176
     1
 67
     7
176
     1
 79
     5
176
     1
170
     0
176
     1
171
     0
176
     1
290
     0
176
     1
 93
        1
176
     1
 44
0.0
176
     1
173
     0
176
     1
  0
VISUALSTYLE
  5
33
102
{ACAD_REACTORS
330
2A
102
}
330
2A
100
AcDbVisualStyle
  2
Realistic
 70
     8
177
     2
291
     0
 71
     2
176
     1
 72
     2
176
     1
 73
     0
176
     1
 90
        0
176
     1
 40
-0.6
176
     1
 41
-30.0
176
     1
 62
     5
 63
     7
421
 16777215
176
     1
 74
     1
176
     1
 91
        0
176
     1
 64
     7
176
     1
 65
   257
176
     1
 75
     1
176
     1
175
     1
176
     1
 42
1.0
176
     1
 92
        8
176
     1
 66
     8
424
  7895160
176
     1
 43
1.0
176
     1
 76
     1
176
     1
 77
     6
176
     1
 78
     2
176
     1
 67
     7
176
     1
 79
     5
176
     1
170
     0
176
     1
171
     0
176
     1
290
     0
176
     1
 93
       13
176
     1
 44
0.0
176
     1
173
     0
176
     1
  0
VISUALSTYLE
  5
37
102
{ACAD_REACTORS
330
2A
102
}
330
2A
100
AcDbVisualStyle
  2
Thicken
 70
    13
177
     2
291
     1
 71
     2
176
     1
 72
     2
176
     1
 73
     0
176
     1
 90
        0
176
     1
 40
-0.6
176
     1
 41
-30.0
176
     1
 62
     5
 63
     7
421
 16777215
176
     1
 74
     1
176
     1
 91
        4
176
     1
 64
     7
176
     1
 65
   257
176
     1
 75
     1
176
     1
175
     1
176
     1
 42
1.0
176
     1
 92
       12
176
     1
 66
     7
176
     1
 43
1.0
176
     1
 76
     1
176
     1
 77
     6
176
     1
 78
     2
176
     1
 67
     7
176
     1
 79
     5
176
     1
170
     0
176
     1
171
     0
176
     1
290
     0
176
     1
 93
        1
176
     1
 44
0.0
176
     1
173
     0
176
     1
  0
ENDSEC
  0
EOF
