<svg xmlns="http://www.w3.org/2000/svg" viewBox="0 0 141.61 192.77"><defs><style>.cls-1{font-size:49.98px;font-family:GoldenHillsDEMORegular, Golden Hills DEMO;}.cls-2{letter-spacing:-0.01em;}.cls-3{fill:#000001;}</style></defs><g id="Layer_2" data-name="Layer 2"><g id="Layer_1-2" data-name="Layer 1"><text class="cls-1" transform="matrix(0.87, -0.02, 0.16, 0.99, 24.09, 102.51)"><tspan class="cls-2">N</tspan><tspan x="42.98" y="0">ame</tspan></text><path class="cls-3" d="M110.68,63.45l1.24-.4h0a33.91,33.91,0,0,0,10-7c6.52-7.85-1.23-16.51-1.2-24.78,0-7,3.69-14.48.6-21.55-1.82-4.68-6.26-6.77-11.34-7A21.73,21.73,0,0,0,97.94,5.94C94.77,8,79.12,23.85,78.84,23.85a4.06,4.06,0,0,0-1.47-2.43,4.12,4.12,0,0,0-2.51-.86H70.38a3.85,3.85,0,0,0-2,.54c-.92.52-1.76,1.47-1.76,2-5-6.84-11-14-17.5-19A21.92,21.92,0,0,0,37.3,0c-5.1-.13-9.67,1.6-11.83,6.13-3.6,6.85-.51,14.57-1,21.55-.57,8.24-9,16.32-3,24.63,3.32,3.89,6.92,7.33,11.83,9h0a3,3,0,0,0,.56.26A70.84,70.84,0,0,0,13,162.84c.45.63.91,1.26,1.37,1.87.17.2.32.41.47.61A70.81,70.81,0,1,0,110.68,63.45Zm21.15,47.26h-4.2l3.59-2.91C131.45,108.77,131.64,109.73,131.83,110.71Zm-10.24-4.28,3-3.66-.49,4.68-2.46,2.47Zm0,6.18,2.46,2.46.49,4.69-3-3.66Zm.78-.78h3.49l3.67,3-4.7-.49Zm0-1.12,2.46-2.46,4.7-.51-3.67,3Zm7.28-7.28a1.72,1.72,0,0,0,.39,0c.3,1,.59,2,.85,3l-4.79.52,3.54-3.55ZM107.78,7.57c5.74-1.84,8,2.63,5.42,8.17A38.92,38.92,0,0,1,89,25.23,30.17,30.17,0,0,1,107.78,7.57ZM93.23,53.88l.27.52a1.25,1.25,0,0,0-.12.45,71.44,71.44,0,0,0-9.28-2.44c-.36-.69-.76-1.42-1.16-2.16,0-.09-.09-.16-.12-.24a37.54,37.54,0,0,1-3.15-8.54ZM70.36,26.45a3.4,3.4,0,0,1,2.42-.9A3.4,3.4,0,0,1,76,29a3.4,3.4,0,0,1-3.51,3.26,3.28,3.28,0,0,1-2.35-1.09,3.34,3.34,0,0,1,.18-4.76ZM33.2,12.77c-2.14-5.71.41-10,6-7.73A30.14,30.14,0,0,1,56.65,24,38.67,38.67,0,0,1,33.2,12.77Zm32,28.35a35.86,35.86,0,0,1-4.23,9,.56.56,0,0,1-.1.15,1.08,1.08,0,0,1-.13.19c-.24.33-.67,1-1.16,1.61A70.31,70.31,0,0,0,50,54.25l-.13-.41A9.25,9.25,0,0,1,52,51.52ZM23.1,161.57a57.36,57.36,0,0,1-3.83-5.09,3.42,3.42,0,0,1,1.53-.37,3.23,3.23,0,0,1,3.29,3.18A3.14,3.14,0,0,1,23.1,161.57Zm4.27-8.77a1.72,1.72,0,1,1,1.76-1.71A1.74,1.74,0,0,1,27.37,152.8Zm.67-8.75a3.19,3.19,0,1,1,3.28-3.19A3.24,3.24,0,0,1,28,144.05ZM27,127.2a1.72,1.72,0,1,1,1.76-1.72A1.74,1.74,0,0,1,27,127.2Zm4.32,1.17a3.28,3.28,0,1,1,3.28,3.19A3.23,3.23,0,0,1,31.33,128.37Zm1.23-11.32a1.76,1.76,0,1,1,1.76,1.71A1.74,1.74,0,0,1,32.56,117.05Zm7.95,17.36a1.71,1.71,0,1,1-1.76,1.71A1.73,1.73,0,0,1,40.51,134.41Zm-.81-10.2a1.77,1.77,0,1,1,1.76,1.72A1.74,1.74,0,0,1,39.7,124.21Zm1,17.77a3.19,3.19,0,1,1-3.27,3.19A3.23,3.23,0,0,1,40.74,142Zm5.38,13.68a3.18,3.18,0,1,1-3.29,3.19A3.24,3.24,0,0,1,46.12,155.66ZM42,152.16a1.76,1.76,0,1,1-1.76-1.71A1.73,1.73,0,0,1,42,152.16Zm-9,8.71a1.77,1.77,0,1,1,1.78,1.71A1.75,1.75,0,0,1,33,160.87Zm8.69,15.89V166.32H36v-1h15.2c.69,8,7.4,14.8,14.76,18.49A61.61,61.61,0,0,1,41.72,176.76ZM88,154.44l0,.2v.08l-.06,0-.14.07-.18.09-.48.23-.49.25-.21.12-.18.08-.11.06h0l0,0,.11,0,.34.15.43.22.42.2.17.09.13,0,.07,0v.07l0,.2,0,.43-.06.4-.09.18-.14.15-.69.54h-.06l-.18-.08-.28-.14-.35-.17-1.64-.78-.32-.15-.26-.12-.14-.08h0l-.14.08-.27.13-.39.19-.43.21-1,.49-.46.23-.41.2-.32.17-.22.11-.06,0h0l-.07,0h0v0l0,0,.21.14.29.18.3.2.19.14.07,0h0l.08,0,.12.09.4.26.49.31.44.3.17.11.11.08.06,0,.06,0,.2-.07.29-.1.38-.12.43-.16L85,160l.4-.14.35-.12.24-.09.14,0,.06,0,.08.08.15.15.32.29.22.37,0,.4-.08.41,0,.2,0,.1,0,0-.09,0-.16,0-.41.14-.47.17-.4.14-.14,0-.09,0v0l.09,0,.17.13.23.15.58.37.6.39.24.17.22.14.13.09,0,0,0,.22,0,.46-.09.42-.12.19-.14.14-.75.36-.06,0-.08-.06-.16-.1-.22-.14-.56-.38-.6-.39-.28-.18-.21-.14-.14-.09-.06,0v0l0,.11,0,.36.06,1v.18l0,.14V166l0,0-.71.46-.2.06H82.9l-.42-.1-.4-.19-.19-.07,0-.07V166l0-.31,0-.38-.07-.92-.06-.9,0-.37,0-.27v-.2l-.09-.06-.17-.11-.23-.15-.26-.17-.6-.4-.53-.35-.2-.14-.14-.08,0,0h0l-.11-.06-.34-.23-.13-.09-.08-.05v.23l0,.34,0,.44-.12,2.14,0,.45,0,.35v.26l.09.08.18.16.26.23.31.28.7.61.35.31.31.26.24.23.17.15.08.06,0,.09-.22.84-.1.19-.14.14-.37.18-.4.12-.18.08-.12-.12-.31-.25-.37-.32-.33-.31-.14-.12-.11-.09,0,0v.14l0,.17,0,.48,0,.57,0,.48,0,.16v.11l0,0-.1,0-.19.09-.38.19-.38.06-.42-.11-.36-.23-.19-.1-.09-.05,0,0v-.09l0-.17,0-.49,0-.55,0-.5v-.31l-.06,0-.1.08-.16.11-.38.26-.4.27-.32.23-.11.06,0,0-.17-.09-.38-.17-.34-.23-.14-.15-.07-.2-.13-.86v-.09l.07-.06.2-.12.28-.2.34-.23.36-.26.78-.52.34-.23.29-.2.22-.14.09-.07v-.26l0-.37,0-.45.14-2.17v-.44l0-.35v-.25l-.27.15-.43.22-.14.06h0l-.06,0-.13.06-.22.1-.56.29-.62.31-.29.14-.23.12-.18.09-.08.05v0l0,.17-.06.27L73,163l-.17.89-.18.89-.08.38-.06.29,0,.2,0,0-.22.07-.41.13-.43.06-.2,0-.18-.08-.64-.53,0-.05v-.08l0-.13,0-.19.19-1,.07-.36,0-.11v0l-.07,0-.16.08-.23.12-.27.14-.64.32-.62.3-.23.13-.18.09-.08,0-.06,0-.7-.45-.12-.15-.1-.2,0-.43,0-.46v-.23l0,0,.14-.06.23-.12.27-.14.63-.32.61-.31.26-.12.19-.09.09,0h0l-.08,0-.14-.06-.38-.19-.44-.21-.42-.2-.13-.06-.1,0v0l0-.1v-.22l0-.41.07-.4.26-.32.36-.26.16-.12.1-.08.06,0,.37.18.33.16.38.18.85.4.39.2.37.16L72,160l.25.12.07,0,.2-.11.29-.14.77-.38.84-.43.37-.18.32-.15.34-.17,0,0-.08,0-.27-.19-.37-.24-.37-.25-.29-.18-.06,0h0l-.06-.05-.15-.09-.2-.14-.25-.15-.52-.35-.49-.32-.18-.13-.14-.09,0,0-.07,0-.19.06-.31.11-.37.12-.43.16-.88.29-.42.13-.33.13-.25.07-.14,0-.06,0-.07-.08-.17-.15-.31-.29-.23-.37v-.4l.07-.41.05-.2v-.11l0,0,.11,0,.15,0,.41-.16.46-.15.42-.14.13,0,.08,0-.06-.05-.14-.09-.17-.12-.44-.3-.46-.3-.2-.12-.17-.11-.09-.06,0,0,0-.2,0-.43.09-.4.1-.17.14-.15.75-.43.06,0,.06,0,.13.08.17.12.9.58.37.25.12.07,0,0v-.13l0-.39-.08-1v-.32l0-.08,0,0,.7-.46.18-.06.22,0,.4.12.41.19.2.07,0,.06v.19l0,.3,0,.39.06.91.08.89,0,.39v.27l0,.17,0,0,.13.09.26.19.36.22.42.28.94.61.44.29.4.26.32.22.21.14.08.06v-.1l0-.21v-.32l0-.4,0-.46.06-.92v-.42l0-.36v-.41l-.14-.11-.22-.2-.29-.24-1.36-1.19-.29-.27-.23-.19-.14-.11v-.06l.09-.43.12-.41.09-.2.14-.16.34-.2.41-.13.18-.06,0,0h0l.06.05.1.1.16.13.35.3.37.32.27.25.08.07,0,0v-.24l0-.28v-.31l0-.72,0-.67,0-.26v-.29l.08,0,.21-.09.4-.22.43-.1.2,0,.18.07.69.48V148l0,.26,0,.31L79.25,150v.48l0,.1v0l.06,0,.1-.07.15-.11.38-.26.41-.28.33-.21.1-.08,0,0,.19.09.38.17.34.23.12.17.09.18.11.86v.11l-.07,0-.19.14-.27.18-.34.23-.38.26-.77.54-.35.23-.27.2-.22.14-.09.07,0,0v.48l0,.38L78.9,156v.38l0,.28,0,.17,0,0,.14-.08.26-.12.37-.2.44-.21,1-.49.46-.23.43-.22.34-.17.21-.1.09,0,0-.08,0-.21.08-.31.07-.39.08-.45.18-.92.1-.41.06-.35.06-.26v-.14l.06,0,.11,0,.43-.15.41-.08.22,0,.18.08.34.24.3.28.1.06v0l0,.11,0,.15-.07.45-.09.49-.1.41,0,.14v.09h0l.08,0,.14-.07.2-.1,1-.48.22-.1.16-.1.11-.06h0l.35.26.34.26.13.16.1.18L88,154ZM75.18,126.28a4.59,4.59,0,0,0,4.12,3,8.45,8.45,0,0,0,1.24-.07,4.15,4.15,0,0,0,2.91-2,1.9,1.9,0,0,1,.93-.88,2.31,2.31,0,0,1,1.13.44A6.07,6.07,0,0,1,79.27,131l-.06,0-.91-.08a5,5,0,0,1-4.07-2.67,12.82,12.82,0,0,1-.82-2A1.44,1.44,0,0,1,75.18,126.28Zm-1.07-5.44a1.69,1.69,0,0,1,1.82-1.51A1.67,1.67,0,0,1,77.57,121a2.38,2.38,0,0,1-.86,1.56c-1,0-1,0-1.91-.1A2.4,2.4,0,0,1,74.11,120.84Zm8.65-20.77a1.72,1.72,0,0,1,.1.6,1.84,1.84,0,1,1-3.67,0,1.9,1.9,0,0,1,.28-1,1.83,1.83,0,0,1,3.29.38Zm1.48,19.78a1.64,1.64,0,0,1,1.62,1.7,2.37,2.37,0,0,1-.85,1.57L83.09,123a2.35,2.35,0,0,1-.67-1.65A1.66,1.66,0,0,1,84.24,119.85Zm29.37,47a66.52,66.52,0,0,1-16.86,14.78l-.86-.29a29.65,29.65,0,0,0,2.89-2.55c3.8-3.88,7.62-11.44,5.44-18.58v-.07c-1.67-6.1-7.67-11.41-9.16-12.64,0-.2,0-.4.08-.63.09-.41.15-.82.21-1.22v0c0-.1,0-.21.05-.3a.08.08,0,0,1,0,0c.19-1.38.26-2.43.26-2.43,0-.31,2.51-1.35,5.26-2.65,0,0,.46-.2,5.31,3.21a1.32,1.32,0,0,0,2-.61c.24-.64.39-1.08.64-1.73a1.3,1.3,0,0,0-1.1-1.76c-4.17-.41-3.8-.59-3.8-.59,2.92-1.57,5.25-3.22,4.12-4.32,0,0-1.36-1.33-4.85.18-3,1.6-3,1.6-3.37,1.79-.54-5.26-3-4.56-3-4.56-2.42.69,1.55,5.38,1.22,5.54,0,0-1.53.88-2.61,1.52a12.06,12.06,0,0,0-3.26-6.05c-.77-.76-1.36-1.25-1.36-1.25,3.61-4.36,3.44-8.33,0-11.92,0,0,0-.85,5,.84.08-2.82.08-2.82.14-5.65-7.08.75-7.16,0-7.16,0,2.75-5.19,4.58-8.34,3.9-10,0,0-.81-2-4.68-1.93a36.58,36.58,0,0,1-4.7-.34,3.06,3.06,0,0,0,.86-2.11v-.11a2.48,2.48,0,0,0,0-.27A3.07,3.07,0,0,0,82,97.43h0a2.89,2.89,0,0,0-.84-.13l-.43,0h0A3,3,0,0,0,78.2,99.6a1.53,1.53,0,0,0-.08.37,2.83,2.83,0,0,0,0,.41,3,3,0,0,0,.66,1.91c-5.16-.42-9.16-.9-10.26.85,0,0-1,1.53.6,5,2.54,5.67,2.54,5.67,2.4,6.35-7.41-1.47-7.53,1.3-7.53,1.3-.1,2.75,5.6,1.67,5.45,2.54a10.82,10.82,0,0,0-1.25.87,7.79,7.79,0,0,0-1.61,10c.37.61.27.9-.22,1.15a8.06,8.06,0,0,0-2.84,2.34,15.68,15.68,0,0,0-.92,1.37,15.59,15.59,0,0,1-2.71-1.74s-.44-.31,3.34-5.75c-2.34-.56-2.34-.56-4.67-1.09-1,5.28-1.44,5-1.44,5-3.24-2.07-6.84-3.94-7.53-2.14,0,0-.72,1.85,3.08,4l3.87,1.82c-5.24,2.61-3.4,4.48-3.4,4.48,1.84,1.88,5.11-3.7,5.57-3.49l2.91,1.26a21.85,21.85,0,0,0-.83,5.91c0,.44,0,.87.05,1.31.11,1.95.23,3.28.23,3.28a28.15,28.15,0,0,0-8.36,10.11l-6.41-10.77c-.4-.66-.08-1.19.7-1.19h3.72c.78,0,1.1-.54.72-1.2l-8.08-13.56c-.38-.66-.06-1.19.7-1.19h3c.78,0,1.1-.54.7-1.2L35.25,107.08a.77.77,0,0,0-1.42,0L21.37,128c-.39.66-.06,1.2.72,1.2H25c.79,0,1.11.53.72,1.19L17.66,144c-.38.66-.07,1.2.72,1.2h3.71c.79,0,1.1.53.72,1.19L18,154.47a61.92,61.92,0,0,1-1.24-62.95,65.48,65.48,0,0,1,7.09-10.06A61.39,61.39,0,0,1,38.62,69l0,0,.06-.06a20.4,20.4,0,0,1,4-2.24.51.51,0,0,1,.15-.07c.18-.1.38-.19.58-.28l.32-.15.83-.4,1.32-.6.61-.27A56.08,56.08,0,0,1,59.4,61l.08,0a62,62,0,0,1,49.16,11.87,14.29,14.29,0,0,1,2.59,2.11,62,62,0,0,1,10.59,11.75,36.83,36.83,0,0,1,4.05,6.71,62.15,62.15,0,0,1,3.45,7.92.65.65,0,0,0-.16.13,1.21,1.21,0,0,0-.3,1.21l-3.55,3.55.53-5.07a.54.54,0,0,0-.35-.58s0,0,0,0,0,0,0,0a.48.48,0,0,0-.2,0,.53.53,0,0,0-.44.2l-.06.06-3.14,3.92V99.54a1.16,1.16,0,0,0,.59-1.37,1.14,1.14,0,0,0-1-.86,1.2,1.2,0,0,0-1.39,1.18,1.17,1.17,0,0,0,.64,1.05v5.13l-3.2-4a.57.57,0,0,0-.67-.16h0s0,0,0,0a.54.54,0,0,0-.35.58l.53,5.07-3.55-3.55h0a1.13,1.13,0,0,0-.3-1.21,1.2,1.2,0,0,0-1.94,1.33,1.15,1.15,0,0,0,.25.37,1.22,1.22,0,0,0,1.2.29h0L116,107l-5.07-.55a.59.59,0,0,0-.58.37s0,0,0,0a.56.56,0,0,0,.16.66l4,3.21h-5a1.21,1.21,0,0,0-1.41-.59,1.14,1.14,0,0,0-.78.73,1.2,1.2,0,0,0,2.19,1h5l-4,3.2a.56.56,0,0,0-.16.66h0l0,0a.55.55,0,0,0,.58.36l5.07-.53-3.54,3.55h0a1.2,1.2,0,0,0-1.2,2,1.19,1.19,0,0,0,1.69,0,1.14,1.14,0,0,0,.3-1.19l3.56-3.57-.53,5.08a.55.55,0,0,0,.35.58h0a.56.56,0,0,0,.67-.15l3.2-4v5a1.2,1.2,0,1,0,1.12,0v-5l3.2,4a.56.56,0,0,0,.67.15h0a.55.55,0,0,0,.35-.58l-.53-5.08,3.55,3.55v0a1.2,1.2,0,0,0,2,1.19,1.2,1.2,0,0,0-1.2-2h0l-3.54-3.55,5.07.53a.55.55,0,0,0,.58-.36v0h0a.53.53,0,0,0-.15-.66l-4-3.2H132a63.62,63.62,0,0,1,.82,10.13A61.89,61.89,0,0,1,113.61,166.84Zm6.07-56.13H116.2l-3.67-3,4.68.51Zm-2.18-7.94,3,3.66v3.49L118,107.45Zm2.18,9.06-2.47,2.46-4.68.49,3.67-3ZM118,115.07l2.46-2.46v3.49l-3,3.66Z"/></g></g></svg>