<svg xmlns="http://www.w3.org/2000/svg" viewBox="0 0 151 192.77"><defs><style>.cls-1{font-size:49.98px;font-family:GoldenHillsDEMORegular, Golden Hills DEMO;}.cls-2{letter-spacing:-0.01em;}.cls-3{fill:#000001;}</style></defs><g id="Layer_2" data-name="Layer 2"><g id="Layer_1-2" data-name="Layer 1"><text class="cls-1" transform="matrix(0.7, 0.52, -0.49, 0.87, 51.7, 82.32)"><tspan class="cls-2">N</tspan><tspan x="42.98" y="0">ame</tspan></text><path class="cls-3" d="M110.68,63.45l1.25-.4h0a33.83,33.83,0,0,0,10-7c6.52-7.85-1.22-16.51-1.21-24.78,0-7,3.69-14.48.61-21.55-1.83-4.68-6.26-6.77-11.35-7A21.71,21.71,0,0,0,98,5.94C94.77,8,79.13,23.85,78.85,23.85a4,4,0,0,0-4-3.29H70.39a3.89,3.89,0,0,0-2,.54c-.91.52-1.75,1.47-1.75,2-5-6.84-11-14-17.51-19A21.89,21.89,0,0,0,37.3,0c-5.08-.13-9.66,1.6-11.83,6.13-3.6,6.85-.51,14.57-1,21.55-.58,8.24-8.95,16.32-3,24.63,3.32,3.89,6.94,7.33,11.85,9h0a3.2,3.2,0,0,0,.58.26A70.81,70.81,0,0,0,106.7,183a.89.89,0,0,0,.55-.32,70.29,70.29,0,0,0,8.14-5.71c.35-.28.69-.55,1-.84l.34-.29q2-1.69,3.86-3.54c.89-.89,1.76-1.8,2.62-2.74.27-.3.55-.61.81-.92s.4-.44.59-.67c.37-.41.72-.84,1.08-1.27.18-.23.36-.47.56-.7l1.1-1.43c.37-.49.74-1,1.08-1.48s.59-.83.87-1.24.53-.78.78-1.18.37-.54.53-.81.26-.41.39-.61a70.83,70.83,0,0,0-20.34-95.8Zm-2.9-55.88c5.76-1.84,8,2.63,5.44,8.17A38.94,38.94,0,0,1,89,25.23,30.14,30.14,0,0,1,107.78,7.57ZM93.23,53.88l.27.52a1.06,1.06,0,0,0-.1.45,72.29,72.29,0,0,0-9.28-2.44c-.38-.69-.77-1.42-1.18-2.16,0-.09-.08-.16-.12-.24a39,39,0,0,1-3.14-8.54ZM70.36,26.45a3.45,3.45,0,0,1,2.43-.9,3.32,3.32,0,0,1,2.36,1.09A3.36,3.36,0,0,1,75,31.4a3.41,3.41,0,0,1-2.44.9,3.4,3.4,0,0,1-3.24-3.49A3.42,3.42,0,0,1,70.36,26.45ZM33.2,12.77c-2.13-5.71.43-10,6-7.73A30.11,30.11,0,0,1,56.66,24,38.74,38.74,0,0,1,33.2,12.77Zm32,28.35a35.12,35.12,0,0,1-4.21,9h0a.24.24,0,0,1-.09.15,2.2,2.2,0,0,0-.12.19c-.25.33-.68,1-1.17,1.61a69.82,69.82,0,0,0-9.53,2.2l-.14-.41.84-1.34ZM32.42,75l1.34-1.43,1.6-1.32,1.3-.66.56.06.69.37,1.64,1.36,3.55,3.75,2.77,2.91-3.6,1.19-2.67,1-1.66.8-1.68,1-.93.37-1.81-3.81-1.24-2.83-.51-1.68ZM51.23,91.82a1.89,1.89,0,1,1-1.88,1.89A1.89,1.89,0,0,1,51.23,91.82Zm-1.32-2.31,0-.55.4-.81.44-.37.56,0,2.89,1.45.37.42,0,.56-.39.8-.45.35-.55,0-2.91-1.45Zm8.3,6.43h.06a.6.6,0,0,1,.3.06.91.91,0,0,1,.13.08l.1.14h0l.05.09a.6.6,0,0,1-.21.6.6.6,0,0,0-.11.06q-4.5,2.51-9,5a2.78,2.78,0,0,1-2.48-1.53,2.74,2.74,0,0,1-.24-1.73l.26-.77.41-.62Zm-.51,14.93.35.19.05,0a14,14,0,0,1,3.83,3.2c.26.34.5.69.75,1.09a7.24,7.24,0,0,1,.9,2,7,7,0,0,1-.4,4.33,8.38,8.38,0,0,1-1.53,2.34c-.18.22-.37.43-.53.65A4.42,4.42,0,0,1,59,126.2a1.69,1.69,0,0,1-.39.08c-.25,0-.49.11-.68,0-.43-.29-.2-1.24-.07-2.22a15.8,15.8,0,0,0-.13-3.84,13.41,13.41,0,0,0-1.08-3.49,24.06,24.06,0,0,0-1.63-3.21,33.67,33.67,0,0,0-2.67-3.89,6.05,6.05,0,0,1,2-.12,6.92,6.92,0,0,1,3,1.18A2.14,2.14,0,0,1,57.7,110.87Zm21.51,40.85-.48,4.05-.66,2.31-1.16,2.44L75.35,163l-1.78,2.3-1.86,2L70,168.87l-1.56,1.06-1.14.35-.24-.47-.11-1.33V164l-.1-5.82-.23-2.95-.38-2.79.2-.49.29-.23.86.14,2.52,1.33,1.53.35,1.63-.17,1.57-.47,1.5-.69L78.55,151l.57-.22.1.05,0,.2Zm-1.63-3.65a7,7,0,0,1-5.26,3.46,6.27,6.27,0,0,1-1.3,0h0a6.63,6.63,0,0,1-4.27-2.4c-.12-.15-.23-.31-.33-.46a5.52,5.52,0,0,1-.85-4.61l0-.07a3.86,3.86,0,0,1,2.5-2.65v0a3.85,3.85,0,0,1,1.16,0h0a2.6,2.6,0,0,1,.84.28h0l.18.1s0,0,0,0a1.79,1.79,0,0,1,.46.41,2.47,2.47,0,0,1,.59,1.55,1.52,1.52,0,0,1-.16.69,3.51,3.51,0,0,1-1.38,1.27c-.26.14-.47.2-.52.4-.1.36.4.85.72,1.07a3.47,3.47,0,0,0,3.4-.11,4.23,4.23,0,0,0,2.22-3.54v-.32a3.65,3.65,0,0,0-.41-1.54v0l-.34-.56a5.11,5.11,0,0,0-.92-1,5.75,5.75,0,0,0-4.36-1.26,6.28,6.28,0,0,0-1.52.34H68l-.1.06h0a4.88,4.88,0,0,0-1.37.8c-1.1.92-1.22,1.87-2.63,2.56a2.26,2.26,0,0,1-1.36.3,1.64,1.64,0,0,1-1.13-.59,5,5,0,0,1-.6-.72,67.11,67.11,0,0,1-4-6.34c-.32-.57-.81-1.47-1.44-2.57a10.21,10.21,0,0,1,4.15-2.31,6.72,6.72,0,0,1,1.82-.25,2.82,2.82,0,0,1,.4,0,6.83,6.83,0,0,1,.84.1l.81.17a0,0,0,0,1,0,0,20.33,20.33,0,0,1,7.39,4.12h0c.65.52,1.25,1,1.82,1.54,3.35,3,5,4.49,5.54,6.48A7.48,7.48,0,0,1,77.58,148.07Zm-32.29-33.3c-2.74-.22-3.7-.78-5.28-.6a4.76,4.76,0,0,0-.83.14,4.34,4.34,0,0,0-1.3.55c-.11.08-.3.21-.55.41A3.89,3.89,0,0,0,36.2,117a2.93,2.93,0,0,0,2.2,4,2.32,2.32,0,0,0,2-.19,1.59,1.59,0,0,0,.53-.72,3.82,3.82,0,0,1-.46-.21,2.59,2.59,0,0,1-1.11-1.32h0a2.47,2.47,0,0,1-.15-.81,2.51,2.51,0,0,1,1.07-2,1.81,1.81,0,0,1,.47-.26l.46-.14a3.26,3.26,0,0,1,.52,0,4,4,0,0,1,1.85.49,4.31,4.31,0,0,1,1.84,3.54,5.5,5.5,0,0,1-2.14,4.28c-2,1.47-4.41.83-5.4.57a8.35,8.35,0,0,1-2-.78l-1.38-1a6.26,6.26,0,0,1-1.14-1.45,6,6,0,0,1-.78-4.32s0,0,0,0l.2-.6.77-1.22,1.1-1.17h0l.06-.06.3-.23.88-.64A25.79,25.79,0,0,1,41.23,110c1.29-.54,2.36-1,3.08-1.24a14.36,14.36,0,0,1,2.27,2.42c.7,1,.85,1.44.82,1.9a2,2,0,0,1-.78,1.4A2,2,0,0,1,45.29,114.77ZM46.42,129a8.41,8.41,0,0,1-6.58.12,8,8,0,0,1-3.29-2.68,9.4,9.4,0,0,0,3.46.41,9.13,9.13,0,0,0,1.73-.3,8.72,8.72,0,0,0,4.39-3.28,18.43,18.43,0,0,1,.37,3.17A18.84,18.84,0,0,1,46.42,129Zm-6.21-37.7.23-.52,2.4-2.16.55-.2.49.25.6.66.18.52-.23.5L42,92.54l-.54.2L41,92.5l-.6-.66Zm6.55,13.85a3.08,3.08,0,0,1-1.3-.29,4.22,4.22,0,0,1-1.76-1.61,6.7,6.7,0,0,1-1-1.79c.81.66,4,3.17,7.61,2.28a6.46,6.46,0,0,0,.87-.3c.15-.06.3-.14.47-.22C51.29,103.55,48.92,105.31,46.76,105.17Zm4.33,15.6a3.05,3.05,0,1,1-3.06,3A3,3,0,0,1,51.09,120.77ZM54,137.07a3.06,3.06,0,1,1-3,3A3,3,0,0,1,54,137.07Zm3.65,19.56a3.06,3.06,0,1,1,3-3A3,3,0,0,1,57.66,156.63Zm3,9.64a3.05,3.05,0,1,1-3-3A3,3,0,0,1,60.7,166.27ZM45.32,96.55a1.88,1.88,0,1,1,1.87-1.88A1.88,1.88,0,0,1,45.32,96.55ZM20.54,143l-.86,3.44L19.35,150l.1,2.83.43,2.76.74,2.66.09.23A61.93,61.93,0,0,1,28,77.09l.06.19,4.59,9.46-1.19,1.87-.89,2L30,92.83l-.23,2.32.11,2,.38,2,.65,1.86.9,1.78,1.12,1.62,1.33,1.46,1.51,1.3,1.6,1a12.84,12.84,0,0,0-6.4,3.41,13.16,13.16,0,0,0-2.44,3.4v0a11.68,11.68,0,0,0-.9,2.56,7.9,7.9,0,0,0-5.19-2.17,7.27,7.27,0,1,0,7.22,8.05,10.9,10.9,0,0,0,1.67,1.9,10.36,10.36,0,0,0,2.95,1.85l-2.93,1.79-2.93,2.25-2.57,2.55-2.17,2.82-1.78,3.06Zm6.05-20.25a4.19,4.19,0,1,1-4.18-4.2A4.19,4.19,0,0,1,26.59,122.76Zm7.77,44.57a2.28,2.28,0,0,1-.72-2.41c.4-.75,1.41-.49,1.88-1.36a1,1,0,0,0,.13-.3l.3-.36,0-.58-.43-.49-.15-.07h0a2.94,2.94,0,0,0-2.76-.43A4.51,4.51,0,0,0,30.15,164c-.46,1.18-.27,2-.82,2.28s-1.21-.27-1.44-.44a6.21,6.21,0,0,1-.74-.66c-1.62-1.73-4.36-6.06-4.1-12.92.12-3.55.29-8.22,3.11-11v0a7.46,7.46,0,0,1,1.42-1.1c3.78-2.28,8.28-.55,8.82-.34,1.13.46,4.45,1.81,5.52,5.27.77,2.51.4,6.33-2.51,8.14a6.73,6.73,0,0,1-7.19-.35h0l-.3-.23a6.45,6.45,0,0,1-2.59-4.43v-.06l.09-.93v0c.29-1.24,1.32-2.67,2.42-2.64a2.32,2.32,0,0,1,1.55,1.05c1.1,1.4.52,2.8,1.63,3.58a1.61,1.61,0,0,0,.89.34,2,2,0,0,0,1.41-.66,4.35,4.35,0,0,0,.49-4.62v0l0-.06,0-.06-.23-.32s0,0,0,0l-.15-.23-.2-.16-.19-.15-.09-.08,0,0-.12-.1-.06,0c-2.45-1.67-7.3-1.51-9.36,1.12a4.34,4.34,0,0,0-.58,1,.13.13,0,0,1,0,.05l-.1.18-.3,1v.51a6.49,6.49,0,0,0,.05,1.77c.41,2.8,2.6,4.55,4.39,6,2,1.63,2.57,1.34,5.62,3.72a8.51,8.51,0,0,1,3.07,3.58,4.6,4.6,0,0,1,.41,2.74A4,4,0,0,1,37,167.83,2.82,2.82,0,0,1,34.36,167.33Zm4.53,6.2-.73-.28-.37-.27-.06-.33.2-.33,1-.75,1.33-.8,1.27-.83.76-.82,1.24-3.26.25-1.29-.11-1.24-.49-1.24-.87-1.31-3.2-3.36.06-.35.63-.53L42,154.87l1.35-1.07,1.24-1.26,1-1.42.61-1.58.21-1.39.05-1.36-.15-1.33-.29-1.26L45.6,143,45,141.84l-1.72-2L41,138.23l-2.78-1.09-3.29-.53H33.09l-1.91.14,3.15-2.33,1.78-1.68.82-1.14.32-.59.22-.14.55.23,1.32.6,2.54.9h.65l.83-.13,1,0,1,.24,1.08.81,1.1,1.55,1.08,2.54,1,3.76.64,3.42.43,3.12.23,2.85,0,2.63L50.62,158l-.75,3.91-1,3.43-1,3.09-.83,2.94-.44,3L41.68,174Zm66.78-.26q-2.25,1.53-4.64,2.86c0-.43.06-.86.09-1.29l4.55-2.84Zm0-3.39-2.14,1.35q.14-1.26.27-2.49l1.87-1.06Zm0-4.24c-.92.51-1.82,1-2.74,1.53l-2.28-1a.89.89,0,0,0-1.18.43.91.91,0,0,0,.43,1.2l1.12.5c-.43.23-.84.48-1.27.72a.89.89,0,0,0,.87,1.55c.43-.23.84-.48,1.27-.71,0,.4-.09.8-.14,1.21a.9.9,0,0,0,.6.94l-2.17,1.36-2.33-.94a.89.89,0,0,0-1.16.49.9.9,0,0,0,.5,1.17l1.12.46-1.69,1.05a.9.9,0,0,0,.95,1.52L99.26,176c0,.37-.05.75-.08,1.12a62,62,0,0,1-56.88-.08l2.13.51,3.19.52,3.26.18,3.27-.08,3.18-.36,3.1-.63,3-.86,2.83-1.1,2.67-1.35,2.49-1.53,2.31-1.73,2.11-1.92,1.9-2.1,1.64-2.22,1.41-2.4,1.13-2.5.49-1.58,1.09.57c-.37.18-.74.35-1.09.54a.89.89,0,1,0,.78,1.6l2.25-1.11c1.58.84,3.17,1.66,4.75,2.51-.6.33-1.2.67-1.78,1-1.12-.58-2.22-1.18-3.32-1.76a.89.89,0,0,0-.84,1.58c.78.41,1.56.82,2.32,1.24l-1.62.93-2.05-.78a.9.9,0,0,0-.64,1.68q.35.12.69.27l-1.55.88a.9.9,0,0,0-.32,1.23.91.91,0,0,0,1.22.32c.51-.31,1-.6,1.55-.89,0,.23-.09.48-.12.72a.89.89,0,0,0,.73,1,.91.91,0,0,0,1-.74c.12-.72.23-1.45.35-2.17l1.64-.94c0,.88-.08,1.75-.11,2.62a.9.9,0,0,0,1.79.08c0-1.26.09-2.51.14-3.75l1.77-1c-.06,1.78-.13,3.57-.2,5.36l-2.08,1.39a.89.89,0,0,0-.24,1.24.91.91,0,0,0,1.24.25l1-.69c0,.67-.06,1.33-.08,2a.89.89,0,0,0,1.78.06c0-.65.06-1.33.07-2,.32.25.65.49,1,.75a.89.89,0,0,0,1.1-1.4l-2-1.55.09-2.56a.87.87,0,0,0,1.11.05l1-.73c0,.49,0,1,0,1.45a.89.89,0,1,0,1.77,0c0-.49,0-1,0-1.45.34.23.67.48,1,.7a.87.87,0,0,0,1.24-.21.89.89,0,0,0-.19-1.24c-.69-.49-1.38-1-2.06-1.45,0-1,0-2.1,0-3.14L99,159c.29,1.69.58,3.38.85,5.06a.78.78,0,0,0,1,.6l4.82-1.79ZM83.86,145.5a.9.9,0,0,0,1.21.37l3.32-1.76c.58.35,1.18.69,1.78,1-1.58.85-3.17,1.69-4.75,2.51l-2.25-1.1a.32.32,0,0,1-.09,0l-.26-1.42-.58-2-.13-.27a.9.9,0,0,0,.77.06l2.05-.78,1.62.95-2.32,1.22A.9.9,0,0,0,83.86,145.5ZM100.19,154c.55.44,1.09.89,1.62,1.33-.67.4-1.36.78-2,1.18l-3.48-2.88c1.15-1,2.31-1.93,3.48-2.89.67.4,1.36.78,2,1.18l-1.62,1.35A.47.47,0,0,0,100.19,154Zm-6.08-1a.77.77,0,0,0,0,1.17c1.32,1.11,2.65,2.19,4,3.28l-2.42,1.39L93,157.24c-.08-.84-.16-1.67-.23-2.49a.89.89,0,0,0-1-.81.88.88,0,0,0-.8,1c0,.41.08.81.11,1.22-.41-.26-.83-.5-1.26-.75a.89.89,0,0,0-1.21.33.88.88,0,0,0,.31,1.22l1.26.73c-.39.16-.75.33-1.12.49a.88.88,0,0,0-.52,1c-.77-.39-1.52-.79-2.27-1.19-.12-.83-.23-1.65-.35-2.48a.89.89,0,0,0-1.77.25c.06.39.12.81.18,1.2l-1.46-.76.4-2,.23-2.82v-.59c.27-.16.55-.3.84-.45l-.18,1.2a.89.89,0,0,0,1.77.26c.12-.85.23-1.67.35-2.5L88.53,148a.9.9,0,0,0,.52,1l1.12.48c-.43.24-.85.5-1.26.75a.87.87,0,0,0-.31,1.22.9.9,0,0,0,1.21.31l1.26-.74c0,.4-.08.81-.11,1.21a.89.89,0,0,0,.8,1,.9.9,0,0,0,1-.8c.07-.84.15-1.67.23-2.51.9-.52,1.8-1.06,2.69-1.59l2.42,1.39Zm-1.24,9.52,1.92-1.11c0,.71,0,1.43,0,2.13-.67.51-1.34,1-2,1.5ZM92,161c-.75-.4-1.49-.8-2.24-1.18l2.31-1,1.84,1.09C93.26,160.23,92.61,160.59,92,161Zm-8.6-12.24v-.1l.09,0Zm11.4-3-1.92-1.11-.09-2.52,2,1.5C94.8,144.32,94.79,145,94.79,145.75Zm-.89,1.54-1.84,1.09c-.76-.34-1.54-.66-2.31-1L92,146.19C92.61,146.56,93.26,146.93,93.9,147.29Zm11.77,13.59c-1.42.54-2.83,1.06-4.24,1.58-.26-1.48-.5-3-.76-4.45.68-.4,1.36-.78,2-1.18.12.69.25,1.38.35,2.06a.51.51,0,0,0,.65.39l2-.74Zm-3.63-7.3,1.12-.93,1.61.93-1.61.92Zm3.63,3.4-1.38.51-.24-1.44,1.62-.92Zm0-4.94-1.62-.94.24-1.44,1.38.51Zm0-3.43c-.66-.23-1.32-.48-2-.72a.48.48,0,0,0-.65.37c-.1.69-.23,1.37-.35,2.06l-2-1.18c.26-1.48.5-3,.76-4.45l4.24,1.58Zm0-9.14-1.87-1.05-.27-2.48v0c.7.46,1.42.9,2.14,1.35ZM109,170.85l-1.53-1v-2.2l1.86,1.06c.06.56.13,1.13.19,1.69Zm7.54-7.33-2,1.45a.89.89,0,0,0-.21,1.24c-.17.18-.36.35-.54.52,0,0,0-.11-.08-.17a.87.87,0,0,0-1.17-.43l-2.28,1c-.92-.5-1.83-1-2.74-1.53v-2.78l4.82,1.79a.77.77,0,0,0,1-.6c.28-1.68.57-3.37.86-5.06l2.4,1.39C116.54,161.42,116.54,162.48,116.52,163.52Zm-3.59-10.3-1.63-1.35c.68-.4,1.37-.78,2-1.18l3.47,2.89-3.47,2.88c-.67-.4-1.36-.78-2-1.18.54-.44,1.07-.89,1.63-1.33A.49.49,0,0,0,112.93,153.22Zm-2.51-2.9c-.13-.69-.25-1.37-.36-2.06a.47.47,0,0,0-.64-.37l-2,.72v-2.34l4.24-1.58c.26,1.49.5,3,.76,4.45Zm.65,3.26-1.11.92-1.61-.92,1.61-.93Zm-2.25-3.92.25,1.44-1.62.94v-1.87Zm.25,6.39-.25,1.44-1.37-.51v-1.85Zm.35,3.23a.5.5,0,0,0,.64-.39c.11-.68.23-1.37.36-2.06.67.4,1.34.78,2,1.18-.26,1.48-.5,3-.76,4.45-1.41-.52-2.82-1-4.24-1.58v-2.34Zm13.5-3.68-.87.52c0-.41.07-.81.1-1.22a.86.86,0,0,0-.79-1,.89.89,0,0,0-1,.81c-.08.82-.15,1.65-.23,2.49-.9.54-1.81,1.06-2.71,1.59l-2.4-1.39c1.31-1.09,2.65-2.17,4-3.28a.76.76,0,0,0,0-1.17l-4-3.28,2.4-1.39,2.71,1.59c.08.84.15,1.67.23,2.51a.9.9,0,0,0,1,.8.88.88,0,0,0,.79-1c0-.4-.07-.81-.1-1.21l1.25.74a.9.9,0,0,0,1.21-.31.88.88,0,0,0-.3-1.22L123,149.5l1.12-.48a.91.91,0,0,0,.52-1l2,1.05A60.41,60.41,0,0,1,122.92,155.6Zm-2.68-11-1.91,1.11c0-.71,0-1.43,0-2.13.68-.49,1.35-1,2-1.5Zm.89,1.55c.75.4,1.48.8,2.23,1.19-.76.34-1.54.66-2.31,1l-1.83-1.09Zm6.24,1.29c-1.48-.77-3-1.56-4.42-2.35.6-.33,1.19-.67,1.78-1,1.11.6,2.22,1.18,3.32,1.76h0C127.85,146.4,127.6,146.94,127.37,147.48Zm1.37-3.26-2.18-1.15,1.63-.95,1.16.44C129.15,143.11,129,143.67,128.74,144.22Zm1.82-5.54c-.42.26-.84.5-1.27.75,0-.25.07-.49.12-.74a.89.89,0,1,0-1.76-.27c-.12.71-.23,1.43-.35,2.15l-1.64,1c0-.89.08-1.76.11-2.63a.91.91,0,0,0-.86-.93.88.88,0,0,0-.93.85c0,1.26-.1,2.51-.14,3.75-.6.36-1.18.69-1.78,1,.06-1.78.14-3.57.2-5.34.69-.48,1.39-.94,2.08-1.4a.89.89,0,1,0-1-1.48c-.34.21-.68.44-1,.67,0-.67,0-1.33.07-2a.89.89,0,1,0-1.77-.07c0,.67-.06,1.33-.08,2l-1-.75a.92.92,0,0,0-1.26.15.89.89,0,0,0,.16,1.25c.65.52,1.31,1,2,1.55l-.09,2.57a.89.89,0,0,0-1.12,0l-1,.72c0-.49,0-1,0-1.46a.89.89,0,1,0-1.78,0c0,.49,0,1,0,1.45-.34-.23-.68-.46-1-.7a.91.91,0,0,0-1.25.21.89.89,0,0,0,.21,1.24c.69.49,1.36,1,2,1.45,0,1.06,0,2.1,0,3.14-.79.46-1.6.94-2.4,1.39-.29-1.68-.58-3.38-.86-5.06a.76.76,0,0,0-1-.58c-1.61.58-3.22,1.18-4.82,1.77v-2.77l2.74-1.54,2.28,1.05a.89.89,0,0,0,1.17-.44.9.9,0,0,0-.42-1.2c-.39-.16-.75-.33-1.12-.5l1.27-.7a.91.91,0,0,0,.34-1.23.89.89,0,0,0-1.21-.34l-1.27.72c0-.41.09-.81.13-1.21a.87.87,0,0,0-.59-.94l2.17-1.37,2.33.94a.89.89,0,0,0,1.16-.49.92.92,0,0,0-.5-1.17l-1.12-.45c.55-.36,1.12-.71,1.68-1.06a.9.9,0,0,0-.95-1.52l-1.68,1.08c0-.42,0-.82.08-1.23a.89.89,0,0,0-.83-.95.88.88,0,0,0-1,.84c-.06.83-.12,1.67-.17,2.5l-4.54,2.85V133.1l3.18-2a.89.89,0,0,0-.95-1.51L107.45,131v-1.9l1.69-1.38a.88.88,0,0,0,.14-1.25.91.91,0,0,0-1.27-.14c-.18.17-.37.32-.56.47V125a.89.89,0,0,0-1.78,0v1.79c-.2-.15-.38-.3-.58-.47a.89.89,0,1,0-1.12,1.39l1.7,1.38V131l-2.23-1.41a.89.89,0,0,0-1,1.51c1.05.66,2.11,1.34,3.18,2v2.06l-4.55-2.85c0-.83-.1-1.67-.16-2.5a.89.89,0,1,0-1.78.11c0,.41.06.81.08,1.23l-1.69-1.08a.9.9,0,0,0-.95,1.52l1.69,1.06-1.12.45a.9.9,0,0,0-.5,1.17.89.89,0,0,0,1.16.49l2.33-.94c.71.46,1.45.91,2.17,1.37a.89.89,0,0,0-.6.94c0,.4.09.8.14,1.21l-1.27-.72a.89.89,0,0,0-1.21.34.91.91,0,0,0,.34,1.23l1.27.7-1.12.5a.91.91,0,0,0-.43,1.2.9.9,0,0,0,1.18.44l2.28-1.05,2.74,1.54v2.77c-1.61-.59-3.21-1.19-4.82-1.77a.77.77,0,0,0-1,.58c-.27,1.68-.56,3.38-.85,5.06-.8-.45-1.61-.93-2.41-1.39,0-1,0-2.08,0-3.14l2.06-1.45a.9.9,0,0,0-1.05-1.45c-.32.24-.65.47-1,.7,0-.47,0-1,0-1.45a.89.89,0,1,0-1.77,0c0,.49,0,1,0,1.46-.33-.25-.65-.49-1-.72a.87.87,0,0,0-1.11,0l-.09-2.57c.65-.5,1.31-1,2-1.55a.89.89,0,0,0,.15-1.25.91.91,0,0,0-1.25-.15c-.32.26-.65.5-1,.75,0-.66,0-1.32-.07-2a.83.83,0,0,0-.26-.58,1.41,1.41,0,0,0-1-.2.93.93,0,0,0-.52.85c0,.66,0,1.32.08,2l-1-.67a.89.89,0,0,0-1,1.48c.69.46,1.4.92,2.08,1.4.07,1.77.14,3.56.2,5.34-.59-.34-1.18-.67-1.77-1,0-1.24-.09-2.49-.14-3.75a.89.89,0,0,0-.93-.85.91.91,0,0,0-.86.93c0,.87.08,1.74.11,2.63l-1.64-1c-.12-.72-.23-1.44-.35-2.15a.89.89,0,1,0-1.76.27c0,.25.07.49.12.74-.52-.31-1-.6-1.55-.91a.9.9,0,0,0-1.22.34.87.87,0,0,0,.32,1.21l1.55.9-.69.26a.86.86,0,0,0-.54.61l-1.09-2.51-2.23-3.49-2.77-3.18-3.26-2.79-3.69-2.38-4.07-1.93a3,3,0,0,0,.31-.31c1.77-1.83,4.48-6.72,2.06-10.73l-.56-.78-.07-.07-.13-.19-.49-.49-.62-.64-2.78-2-3.46-1.64-3.38-1c-.42-.14-.65-.2-.65-.2l2.56-2.27,1-1.33.92-1.44.72-1.54.55-1.64.37-1.7.15-1.79-.21-2.68-.66-2.54-1.12-2.36-1.48-2.11-1.87-1.84L53.66,82.7l-2.42-1.15-2.64-.76-.33-1.19-4.76-9.82-.88-1.13L41.45,68l-1-.12a61.85,61.85,0,0,1,26.23-7.79A9.28,9.28,0,0,1,68.11,60c.9,0,1.81-.06,2.71-.06A61.7,61.7,0,0,1,100,67.21l.75.4a62.76,62.76,0,0,1,17.75,14.68l.12.14c.89,1.07,1.37,1.73,1.37,1.73a62,62,0,0,1,10.59,54.52Zm-23.11.79v-2.2c.72-.45,1.43-.89,2.14-1.35v0l-.28,2.48Z"/></g></g></svg>