<svg xmlns="http://www.w3.org/2000/svg" viewBox="0 0 141.61 192.77"><defs><style>.cls-1{font-size:45.04px;font-family:GoldenHillsDEMORegular, Golden Hills DEMO;}.cls-2{letter-spacing:-0.01em;}.cls-3{fill:#000001;fill-rule:evenodd;}</style></defs><g id="Layer_2" data-name="Layer 2"><g id="Layer_1-2" data-name="Layer 1"><text class="cls-1" transform="matrix(0.69, -0.3, 0.38, 0.93, 16.1, 154.21)"><tspan class="cls-2">Y</tspan><tspan x="38.69" y="0">ourname</tspan></text><path class="cls-3" d="M141.59,120.75c0-.26,0-.52,0-.76a70.76,70.76,0,0,0-30.9-56.54l1.24-.4h0a34.1,34.1,0,0,0,10-7c6.52-7.85-1.23-16.51-1.2-24.78,0-7,3.69-14.48.6-21.55-1.82-4.68-6.26-6.77-11.34-7A21.73,21.73,0,0,0,97.94,5.94C94.77,8,79.12,23.85,78.84,23.85a4.06,4.06,0,0,0-1.47-2.43,4.12,4.12,0,0,0-2.51-.86H70.38a3.85,3.85,0,0,0-2,.54c-.92.52-1.76,1.47-1.76,2-5-6.84-11-14-17.5-19A21.92,21.92,0,0,0,37.3,0c-5.1-.13-9.67,1.6-11.83,6.13-3.6,6.85-.51,14.57-1,21.55-.57,8.24-9,16.32-3,24.63,3.32,3.89,6.92,7.33,11.83,9h0a3,3,0,0,0,.56.26A70.84,70.84,0,0,0,13,162.84c.6.84,1.21,1.67,1.84,2.48a71.15,71.15,0,0,0,22.09,18.83c1.16.63,2.34,1.22,3.53,1.8A71,71,0,0,0,90,190.12c1-.28,2-.6,3-.94a69.12,69.12,0,0,0,12.19-5.35c.87-.49,1.74-1,2.58-1.52A70.74,70.74,0,0,0,141.61,122C141.61,121.55,141.61,121.15,141.59,120.75Zm-9.23-2.51-.47-7.22a60.38,60.38,0,0,1,.86,7.3ZM107.78,7.57c5.74-1.84,8,2.63,5.42,8.17A38.94,38.94,0,0,1,89,25.23,30.17,30.17,0,0,1,107.78,7.57Zm-13,74.3L92,81.11l-2.15,2-.77-2.86-2.85-.85,2.08-2.09-.7-2.88,2.88.75,2.14-2L93.38,76l2.85.85L94.15,79ZM88.76,63.05l.36-.36c.17.05.33.09.49.15l1.33.44-.37.37L89.2,65l-.49-1.89Zm5.8,10-.46-1.69a1.78,1.78,0,0,0,1.27-1.25,1.82,1.82,0,1,0-3.08.75L91,72,90,68l2.84-2.78-.19-.77-.15-.58.86.32c1.27.49,2.51,1,3.73,1.61l-.4.4-.07.06,1,3.83Zm5.63-5.69.13.07-.41.41h0l-.11.11-.05-.21-.18-.7Zm-7-13.44.27.52a1.25,1.25,0,0,0-.12.45,71.44,71.44,0,0,0-9.28-2.44c-.36-.69-.76-1.42-1.16-2.16,0-.09-.09-.16-.12-.24a37.54,37.54,0,0,1-3.15-8.54ZM70.36,26.45a3.4,3.4,0,0,1,2.42-.9A3.4,3.4,0,0,1,76,29a3.4,3.4,0,0,1-3.51,3.26,3.28,3.28,0,0,1-2.35-1.09,3.34,3.34,0,0,1,.18-4.76Zm.44,33.46a62.12,62.12,0,0,1,11.08,1l.09.36.35,1.4,3.8,1.06.49,1.88L82.8,64.56l.76,3,3.82,1.07,1.05,4.08-1.69-.44a1.82,1.82,0,1,0-3.07.82,1.81,1.81,0,0,0,1.7.49l.42,1.72-4-1.13-1-3.87-3-.83,1,3.88-1.87-.53-1-3.88-3-.82L74,72l-2-.56-1.08,1.06L71.25,74l2,.54L70.63,77l-1.84-.23c-1.07-.18-5.68-.77-6.23-.93a10.48,10.48,0,0,1-.24-2l2.29-1c-.59-.39-1.51-.42-2.08-.74l-.43-2.66a10.72,10.72,0,0,0-1.45,2,21.62,21.62,0,0,1-2.54-.76l.39-9.52,2-.37A61.81,61.81,0,0,1,70.8,59.91Zm-17,30.85c-.76-.43-1.46-.85-2.22-1.19-.16.12,0,0-.13.12a.3.3,0,0,1-.09.1c-.12.11,0,.06-.21.12-.7-.34-.92-1.33-1.59-1.74a23.5,23.5,0,0,1,1.46-2l-2.6.41A21,21,0,0,0,47,84.86c-.32,2.89.16,2.24-1.61,2.8-.78.24-.76.41-.81-.45-.84,0-1.76-.22-2.64-.3s-1.76-.17-2.6-.28l-5.13-.7c.08-.35.19-.29.49-.48,1.32-.75,2.49-1.56,3.83-2.29.79-.44,1.49-.94,2.21-1.35s1.43-1,2.19-1.32l-.11-.57,2.37-.24a16.39,16.39,0,0,0,.71,2.15l.07,0,0-.06c.45-.59.51-1.82.89-2.45a10.8,10.8,0,0,0,2.34-.38,10.47,10.47,0,0,0-2.13-1.23c.19-.66.65-1.46.78-2.13l.79.37a2.19,2.19,0,0,0,.45-.46l.39-.52c.19-.26.07-.07.26-.27l3.11-3.85c.16-.21.21-.32.38-.54L55,68.18c.15-.19.16-.32.43-.21.32.78-.55,8.3-.19,9.74l1.26.32s0,0,0,0a16.47,16.47,0,0,1-1,1.94l-2.19-.22a19.6,19.6,0,0,1,1.46,2,6.29,6.29,0,0,0-1.06,2l2.73-.69c.29.48,1,.81,1.14,1.31a6.19,6.19,0,0,1-.84.46c.16,1.32,3.72,9.2,3.61,9.45s-.86-.27-1.08-.4c-.37-.19-.72-.39-1.08-.62ZM55,95.43a5,5,0,0,1-1.74.25l-.71-1.52c-.08-.38,0-.16,0-.26h.22l1.71.92C54.85,95,54.87,95,55,95.43Zm-5.1.73.77-1c.37-.53.69-1.23,1.09-1.21l-.2,2.19c-.5.08-1.5.53-1.89.42C49.66,96.13,49.54,96.48,49.85,96.16Zm-.27-4.34-3.36,3.94c-.39.42-1.2,1.57-1.54,1.57,0-.11,0-8.73.07-9a8.25,8.25,0,0,1,2,.59l0,2.68c.33-.27,1.27-1.62,1.65-2a9.17,9.17,0,0,1,2.27.82c0,.37,0,.26-.33.51a4,4,0,0,0-.38.48A5.51,5.51,0,0,0,49.58,91.82ZM41.5,90.49l0,.2a16.55,16.55,0,0,1-.11,2.75c-.27-.06-1-1-1.46-1.22C40.09,92,41.17,90.49,41.5,90.49Zm-1.76,0c-.36.2-.6.35-1,.52a2.16,2.16,0,0,1-.94-1.48h.08a19.65,19.65,0,0,1,2.69.25C40.52,90.3,40.6,90,39.74,90.49ZM59,75l1.34-.46c.49-.12.43,0,.66.39a2.6,2.6,0,0,1,.5.74c-.32.19-.86,0-1.4-.08-.3,0-1.11-.16-1.38-.25C58.74,75,58.57,75.15,59,75Zm.38-1.71a1.54,1.54,0,0,1-.17.24c-.16.22-.27.35-.4.52-.76,1.07-.36,1-.92,1.07,0-.13.08-2.5.13-2.93.08-1,.47-.38.71-.09a5.57,5.57,0,0,0,.84.7C59.46,73.31,59.57,72.93,59.36,73.28Zm-11-5.71L48.56,65a4.86,4.86,0,0,0-.94.93,5.59,5.59,0,0,1-1,1,6.9,6.9,0,0,0-2.14-1c.16.72.87,1.62,1.05,2.29-.4.35-1.13,1.43-1.61,1.56a28.35,28.35,0,0,1-2.75-1.61l-.68-.41c.56-.32,1.13-.64,1.71-.94a61.85,61.85,0,0,1,13.83-5.16L54,64.27c-.11.14,0,0-.16.17l-.13.13-3.17,4c-.23-.11-.16-.16-.51-.3A6.21,6.21,0,0,1,48.4,67.57Zm1.49,1.64a1.25,1.25,0,0,1-.44.68,10.46,10.46,0,0,1-1.4,1.67,1.72,1.72,0,0,1,0-1c.13-1.31-.19-1,.91-1.23A7,7,0,0,1,49.89,69.21Zm-5.8,7.6a6.44,6.44,0,0,0,.51,1.08c-.55.27-1.47,1.33-2.05,1.36L41,75a40.6,40.6,0,0,1-1.5-4.18,6.46,6.46,0,0,1,2,1c.65.37,5.73,3.19,5.83,3.37a6.12,6.12,0,0,1-1.64,1.38c-.13,0-1.64-1-2.06-1.11A5.88,5.88,0,0,0,44.09,76.81Zm1.2-6.66a9.9,9.9,0,0,1,1.28-.24,18.48,18.48,0,0,1,.75,2,18.27,18.27,0,0,1-2-1.15C45,70.56,44.48,70.29,45.29,70.15ZM39.36,79.4c0,.25.06.14-.25.33l-2.69,1.45a3.32,3.32,0,0,1,.4-1.7A8,8,0,0,1,39.36,79.4Zm21,7c.63,0,.71.29,1.13.56a2.78,2.78,0,0,1,.85.71c-.16.46-.51,1.1-.63,1.61-.48-.15-.42-.19-.57-.64-.1-.24-.16-.41-.26-.68A9.52,9.52,0,0,1,60.32,86.45Zm.81-.48c0-.5,0-.27,1.17-1a4,4,0,0,1,1.32-.6c.13.49-.62,1.73-.68,1.76A4.13,4.13,0,0,1,61.13,86Zm-2.7-2.12c-.08-.47-.19-1.31-.23-1.74.35-.28.66-.49,1-.78l.93-.74a8.26,8.26,0,0,0-1.85-.34.92.92,0,0,1-.55-.17c-.34-2-.54-2,.35-1.83,1.51.3,7.34.92,7.77,1.15l-.26.19-.22.11a4.8,4.8,0,0,0-.48.3ZM61,50.1a.56.56,0,0,1-.1.15,1.08,1.08,0,0,1-.13.19c-.24.33-.67,1-1.16,1.61A70.31,70.31,0,0,0,50,54.25l-.13-.41.85-1.34L65.19,41.12A35.86,35.86,0,0,1,61,50.1ZM33.2,12.77c-2.14-5.71.41-10,6-7.73A30.14,30.14,0,0,1,56.65,24,38.67,38.67,0,0,1,33.2,12.77ZM11.45,104.62a.45.45,0,0,1-.31.33c0-.14.07-.28.11-.42s.07-.21.1-.32A.47.47,0,0,1,11.45,104.62Zm26.22,64.62,1.5.18,1.5.17.53.06-.27.29-1.5,1.63-.77.82-.66.72h-.15l-1.33,0-.67,0A59.58,59.58,0,0,1,30.41,169l.19-.11.91-.58.94-.58.92-.59.93-.59.92-.58,0,0,1.58.35,1.64.38L40,167l-.75.64-.82.72-.83.72-.12.11Zm3.12,7,.41-.45L42,175l.75-.83.75-.81.61-.64.37,2,.26,1.33.37-.5.67-.91.69-.92.53-.72.75,2.45.65,2.05-.2.36-.57,1.07-.26.52a61.25,61.25,0,0,1-5.62-2.63Zm10.5,4.6.06-.12L52,181l.14.08C51.83,181,51.56,181,51.29,180.84ZM79,183.48c-1.47.19-3,.33-4.47.42-1.23.08-2.47.11-3.71.11a60.74,60.74,0,0,1-10.6-.92l0-.07.31-.6a1.43,1.43,0,0,0,.14-.34,2.48,2.48,0,0,0,0-.27,1.4,1.4,0,0,0-.74-1.26l-.35-.17-2.25-1.21L55.12,178l-2.25-1.19-.4-.2L52.3,176l-1-3.1-.3-1,1.27.44,1.84.64.05,0L52.88,170l.4.09,1.65.38,1.64.37,1,.23,4.45,7.08.08.13a1.06,1.06,0,0,0,.19.24,1.5,1.5,0,0,0,.66.37,1.45,1.45,0,0,0,.91-.11.31.31,0,0,0,.13-.08l.8-.49.4-.26a1.42,1.42,0,0,0,.44-.44,1.25,1.25,0,0,0,.17-.43,1.34,1.34,0,0,0-.17-1l-1.38-2.19-2.64-4.19.58-.37.93-.58.92-.58.93-.58.94-.58.92-.59.93-.58.18-.12a1.43,1.43,0,0,0,.57-.7c0-.05,0-.11,0-.17a1.3,1.3,0,0,0-.18-1l0,0,12,4.28-5.88,11.32-1.7,3.28L79,178.88l7.53-4.54.89,2.83,1.32,4.19-1.32.4A62.19,62.19,0,0,1,79,183.48ZM100.74,159,100,162.2l.83,3.29-5.79-3Zm-5.63.17,2-6.68,8.19-5.19-4,8.8Zm6.41,9.41.92,2.13,1.56,3.61c-.45.3-.91.58-1.37.86L98.31,173l-1.24-.65-2.51-6.84Zm.28-6.68L105,159.8l6.17,2-6,2.55ZM90.64,180.75l-1.38-4.07,0-.09,2-3.54,2,2.14.81.88-1.58,4C91.91,180.31,91.27,180.53,90.64,180.75Zm.92-10L88.65,172l3.23-5.9,2.85,6ZM83,159.52l6.08,3.12-6.52,3.13,1.67-3.19Zm5.91,5.68-2.34,6.69-8.24,4.79,4.17-8.08Zm3.06-11.69,2.89-1.61-3.06,7.18-3.33-7Zm-3.17-5.3,2.94-15.84L95,148.27,92,152Zm.11,10.93-6.24-2.34-4.18-8.47,7.8,4.23Zm-17.26,3.44,7.13-2.78,3,2.61-3.29,2.24ZM95,179.07l1.59-4.5,3.66,2c-.65.36-1.31.7-2,1C97.24,178.1,96.14,178.6,95,179.07Zm20.34-14c-.82.85-1.68,1.68-2.55,2.48a60.08,60.08,0,0,1-7,5.59l-1.59-3.53-1.09-2.41,9.71-4.24,4.33-1.89-1.78-.59-12.15-4.09,7.13-15.26L97.76,149.6l-6.57-29.95-5,30.63-13-6.91,7.34,13.47-13.26,5.29a1.34,1.34,0,0,0-.44-.19,1.55,1.55,0,0,0-.53,0,1.69,1.69,0,0,0-.51.2l-.47.29-1.87,1.17-.92.58-.93.58-.92.6-.93.58-.92.58-.64.4-.52-.12L56,166.39,54.35,166l-.76-.17.38-.34.82-.72.83-.72.81-.69L55,163.21l-1.5-.17-.38,0,.2-.22L54,162l.76-.81.75-.81.75-.81.1-.09,1.16,0,1.33-.06,1.33-.05,1.32,0,1.33-.05,1.33,0,.69,0a1.77,1.77,0,0,0,.55-.13,1.43,1.43,0,0,0,.72-.86s0-.06,0-.08a1.1,1.1,0,0,0,0-.36l0-1.37v0a1.39,1.39,0,0,0-1-1.27l-.09,0a1.54,1.54,0,0,0-.37,0l-.92,0-1.33.06-1.31,0-1.34,0-1.33,0-1.31.07-.06-1.92L57,151.41,57,149.5l-.08-1.75a1.09,1.09,0,0,0,0-.18,1.43,1.43,0,0,0-.75-1,1.63,1.63,0,0,0-.31-.11,3.7,3.7,0,0,0-.37,0l-.76,0-.63,0a1.27,1.27,0,0,0-.6.15,1.39,1.39,0,0,0-.7.89v0a.82.82,0,0,0,0,.35l0,1.47.08,1.92.06,1.91.08,1.91.06,1.76,0,.08-.76.81-.75.81-.75.81-.77.82-.1.12-.08-.37-.46-2.45-.17-.89-.24.34-.69.9-.68.92-.41.55-.56-1.86-.86-2.77.06-.11.55-1.07.57-1.06.56-1.07,1.14-2.14.56-1.06.52-1a.11.11,0,0,0,0-.06.71.71,0,0,0,.09-.28,1.38,1.38,0,0,0-.7-1.53l-1.21-.64,0,0a1.54,1.54,0,0,0-.34-.12,1.4,1.4,0,0,0-1,.14,1.48,1.48,0,0,0-.54.57l-.16.32-.57,1-1.13,2.15-.57,1.07L43,150.87l-.55,1-.09-.06-2.27-1.2-2.25-1.19-2-1.06-.23-.09-.11,0a1.34,1.34,0,0,0-1.1.23A1.43,1.43,0,0,0,34,149l-.23.46-.43.78a1.75,1.75,0,0,0-.12.32v0a1.4,1.4,0,0,0,.7,1.53l.78.41,2.25,1.2,2.27,1.19,2.25,1.19.38.2.17.52,1,3.11.27.84-1.33-.46L40,159.66l-.38-.12,1.45,3.38,0,.09-1.61-.37-1.64-.36L36.57,162l-4.78-7.61a1.39,1.39,0,0,0-.86-.61,1.74,1.74,0,0,0-.75,0,2.09,2.09,0,0,0-.29.16l-.66.39-.53.36a1.07,1.07,0,0,0-.34.29,1.5,1.5,0,0,0-.29.56,1.42,1.42,0,0,0,.18,1l.31.49,3.67,5.85-.44.28-.93.58-.92.58-.94.58-.91.6-.86.53q-.39-.36-.75-.75c-1.18-1.19-2.31-2.45-3.38-3.75a57.36,57.36,0,0,1-3.83-5.09c-.44-.66-.87-1.34-1.29-2a61.57,61.57,0,0,1-7.28-47.8l1-.63.41-.25,1.71.4-2.13,1.33a.94.94,0,0,0-.27,1.37,1,1,0,0,0,1.39.29l3.76-2.33,1.71.41-3.64,2.26a1,1,0,0,0,.54,1.81c1.43,0,2.87-.07,4.29-.12-.41.44-.81.87-1.22,1.29-1.47,0-2.95.09-4.43.12a1,1,0,0,0-1,1,1,1,0,0,0,1,1l2.51-.07-1.21,1.29-2.71.07a1,1,0,0,0-1,1,1,1,0,0,0,1,1l.8,0c-.42.44-.83.86-1.24,1.3a1,1,0,0,0,0,1.41,1,1,0,0,0,1.41-.07l1.23-1.28c0,.25,0,.52,0,.78a1,1,0,0,0,1,.93,1,1,0,0,0,1-1.07c0-.9-.07-1.8-.08-2.7.4-.42.81-.85,1.2-1.29,0,.85,0,1.68.09,2.51a1,1,0,0,0,1,.94,1,1,0,0,0,.95-1c0-1.48-.08-3-.12-4.43.39-.44.8-.87,1.21-1.29,0,1.42.08,2.87.13,4.29a1,1,0,0,0,1.83.44c.7-1.25,1.38-2.51,2.06-3.78.17.58.34,1.14.51,1.7-.7,1.3-1.41,2.59-2.12,3.9a1,1,0,0,0,.37,1.37,1,1,0,0,0,1.35-.36l1.21-2.22c.17.58.32,1.14.49,1.7q-.63,1.2-1.29,2.37a1.06,1.06,0,0,0,.38,1.38,1,1,0,0,0,1.35-.36c.12-.22.24-.46.38-.7.16.58.33,1.16.5,1.72a1,1,0,1,0,1.89-.56c-.17-.56-.34-1.14-.51-1.71.22.13.46.25.69.37a1,1,0,0,0,1.33-.44,1,1,0,0,0-.44-1.34q-1.2-.66-2.4-1.29c-.17-.56-.34-1.12-.51-1.7.75.41,1.48.8,2.23,1.19a1,1,0,0,0,1.32-.42,1,1,0,0,0-.44-1.36c-1.31-.7-2.6-1.41-3.9-2.1-.17-.56-.34-1.12-.51-1.7l3.78,2a1,1,0,0,0,1.31-1.37c-.75-1.22-1.5-2.44-2.24-3.66l1.71.4c.76,1.26,1.54,2.53,2.31,3.79a1.08,1.08,0,0,0,1.39.37,1,1,0,0,0,.35-1.36c-.44-.71-.88-1.42-1.3-2.13l1.71.4c.48.77.93,1.53,1.41,2.31a1,1,0,0,0,1.37.36,1,1,0,0,0,.38-1.34c-.14-.22-.27-.46-.41-.68.58.13,1.15.29,1.73.42a1,1,0,1,0,.46-1.91L39,110.18c.24-.14.46-.29.68-.43A1,1,0,0,0,40,108.4a1.05,1.05,0,0,0-1.41-.31l-2.29,1.43-1.73-.41,2.14-1.32a1,1,0,0,0,.29-1.38,1.06,1.06,0,0,0-1.4-.29l-3.76,2.35-1.71-.41c1.2-.77,2.42-1.51,3.64-2.27a1,1,0,0,0-.54-1.82l-4.29.12c.41-.42.8-.87,1.2-1.29,1.48,0,3-.07,4.43-.12a1,1,0,0,0,1-1,1,1,0,0,0-1-1l-2.51,0c.4-.43.81-.85,1.22-1.27.9,0,1.8,0,2.69-.07a1.06,1.06,0,0,0,1-1,1,1,0,0,0-1-1h-.78c.41-.44.82-.86,1.24-1.3a1,1,0,0,0,0-1.41,1,1,0,0,0-1.42.07c-.41.42-.82.86-1.22,1.3,0-.27,0-.52,0-.79a1,1,0,0,0-1-.94,1.06,1.06,0,0,0-1,1.07c0,.9.05,1.8.08,2.7-.4.44-.81.86-1.22,1.29,0-.83,0-1.68-.07-2.51a1,1,0,0,0-1-.93,1.05,1.05,0,0,0-1,1.06c.05,1.48.1,3,.14,4.43-.41.42-.8.85-1.21,1.27-.05-1.42-.08-2.85-.13-4.29A1,1,0,0,0,25.53,98c-.68,1.26-1.36,2.53-2.05,3.78-.15-.56-.32-1.13-.49-1.69.69-1.29,1.4-2.6,2.1-3.89a1,1,0,0,0-.36-1.37.94.94,0,0,0-1.35.35c-.41.73-.8,1.48-1.21,2.21l-.51-1.7L23,93.32A1.06,1.06,0,0,0,22.6,92a1,1,0,0,0-1.36.35c-.12.24-.26.46-.37.7l-.51-1.72a1,1,0,0,0-1.24-.69,1,1,0,0,0-.65,1.25L19,93.56c-.23-.12-.45-.26-.69-.38a1,1,0,0,0-1.33.44A1.06,1.06,0,0,0,17.41,95c.79.43,1.59.85,2.39,1.27.15.56.32,1.14.49,1.7l-2.21-1.19a.94.94,0,0,0-1.32.44,1,1,0,0,0,.44,1.36l3.9,2.09.51,1.69-3.8-2a1,1,0,0,0-1.29,1.37c.75,1.22,1.5,2.44,2.24,3.66l-1.71-.4c-.78-1.26-1.54-2.51-2.32-3.78a1,1,0,0,0-1.19-.45.82.82,0,0,0-.19.09.94.94,0,0,0-.35,1.34c.44.71.86,1.44,1.3,2.15l-1.71-.4a1.28,1.28,0,0,0-.14-.21c-.2-.35-.41-.69-.62-1,0-.08.05-.17.08-.25.17-.46.32-.93.49-1.39s.32-.86.49-1.29A62.28,62.28,0,0,1,36,70.66c.85,2.22,1.72,4.5,1.73,4.72-.48.15-1.67,1.35-2,1.36s-1.71-1-2.11-1.14l.76,2.4-.81.59a4.31,4.31,0,0,0-1.25,1l2.64-.11.77,2.12c-.25.27-10.15,5.6-10.74,6.2,2.05.41,9.57,1.3,12,1.57a14,14,0,0,1,.25,2.32c-.17.13-1.87.67-2.33.94.57.48,1.84.49,2.52.84.23.19.29,1.88.56,2.45l1.32-2.13a9.2,9.2,0,0,1,2.22.62c0,.88-.11,2.19-.11,3.15v9.55s0,0,.06,0l2.11-2.67.05,0,.78-1c.33-.47.6-.8.95-1.24l1.91-2.51A23.53,23.53,0,0,0,49.08,97c.54,0,1.59.58,2.31.73l-.21,2.85a2.77,2.77,0,0,0,.84-.83c1.16-1.46,1.18-1.06,1.89-.82l1.26.38c-.14-.67-.8-1.26-.94-2A14.19,14.19,0,0,1,56,95.79c.54.24,1.9,1.13,2.63,1.51,1.23.62,3.09,1.81,3.94,2.24.5.24.85.46,1.31.73l2.6,1.4C65.61,99.8,65,97.91,64.19,96c-.41-1-.81-1.92-1.19-2.88a26.27,26.27,0,0,1-1.17-2.83,15.71,15.71,0,0,1,1.54-1.17c.59.24,1.49,1.21,2.25,1.56l-.46-2.51c.38-.23.78-.51,1.18-.77.16-.09.36-.25.56-.36s.35-.11.55-.42l-2.68-.23-.23-2.47,4-2.3c1.11-.65,6-3.39,6.45-3.8a4.4,4.4,0,0,0-1-.25l2.22-2.18,1.86.52-2.81,2.77,3,.83L81,76.71l4.06,1.14-1.21,1.23a1.79,1.79,0,0,0-1.73-.46,1.82,1.82,0,0,0,.9,3.52,1.76,1.76,0,0,0,1.29-1.22l1.7.51-3,2.94-3.86-1.08L77,85.43l3.85,1.08-1.38,1.35L75.57,86.8,73.36,89,77.21,90l-1.46,1.43L76.13,93l1.47.41L79.07,92l1,3.83,2.2-2.16-1-3.83,1.38-1.35,1,3.83,2.21-2.16-1-3.83,3-2.94L88.31,85a1.79,1.79,0,0,0-1.25,1.26,1.82,1.82,0,0,0,3.51,1,1.8,1.8,0,0,0-.43-1.74l1.29-1.2,1,4.06-2.84,2.8.76,3,2.86-2.8.48,1.89L90.86,96l.76,3,2.86-2.8.51,2,1.48.41,1.11-1.06-.51-2,3.8,1.06-.77-3L96.31,92.6l-.48-1.87,3.8,1.06-.77-3-3.81-1.06-1-4.09,1.67.45a1.82,1.82,0,1,0,3.06-.84,1.79,1.79,0,0,0-1.71-.5l-.42-1.71,4.06,1.14,1,3.86,3,.85-1-3.88,1.87.52,1,3.88,3,.83-1-3.88,2,.56,1.08-1.07-.36-1.51-2-.54,2.83-2.76-3-.83L106.25,81l-1.86-.52,2.82-2.76-3-.83-2.83,2.76-4.06-1.14,1.22-1.24a1.83,1.83,0,0,0,1.73.46,1.82,1.82,0,0,0-.91-3.53,1.83,1.83,0,0,0-1.3,1.24l-1.68-.49,3-3,3.84,1.08,2-2,.17-.18-.77-.22-3.07-.86.67-.65.4-.41c.77.45,1.53.93,2.27,1.43.2.12.38.24.58.38a62.15,62.15,0,0,1,25.8,37.84L126,117l-10.44-2,6.9,7.62-5.77,9.11,10-4.43,5.22,5.8A62,62,0,0,1,115.37,165.08ZM15,105.46a.48.48,0,1,1,.93.22.47.47,0,0,1-.57.36A.48.48,0,0,1,15,105.46Zm7.43-.42.37,1.27-1.27-.3-1.32-2.16Zm-.63-5.56a.5.5,0,0,1-.61-.33.48.48,0,0,1,.32-.59.49.49,0,0,1,.61.32A.48.48,0,0,1,21.78,99.48ZM27,106.14l2.51-.07-2.14,1.33-1.29-.31Zm-.11-2a.48.48,0,0,1,.7.66.47.47,0,0,1-.68,0A.47.47,0,0,1,26.9,104.11ZM29,108.79a.47.47,0,0,1-.58.35.45.45,0,0,1-.35-.57.47.47,0,0,1,.57-.36A.47.47,0,0,1,29,108.79Zm-2.07.52,1.32,2.16L26,110.26,25.63,109Zm-.27,6.52a.48.48,0,0,1,.61.32.5.5,0,0,1-.34.61.47.47,0,0,1-.59-.34A.45.45,0,0,1,26.65,115.83Zm-.71-4.07a.5.5,0,0,1-.33.61A.48.48,0,0,1,25,112a.48.48,0,1,1,.92-.27Zm-1.28-6-.37-1.27,1.21-2.22.08,2.52ZM25,107a1,1,0,0,1-.2,1.43,1,1,0,0,1-1.41-.21A1,1,0,0,1,25,107Zm-.88,3.78L22.93,113l-.08-2.52.92-1Zm-1.05-6.95a.48.48,0,1,1-.27-.92.48.48,0,0,1,.27.92Zm-2.72,2.87a.45.45,0,0,1-.57.35.48.48,0,1,1,.22-.93A.48.48,0,0,1,20.37,106.74Zm.68,1.17,1.29.3-.91,1-2.53.07Zm.48,3.29a.51.51,0,0,1-.7,0,.54.54,0,0,1,0-.7.51.51,0,0,1,.7,0A.49.49,0,0,1,21.53,111.2Zm-3.16,3.34a.49.49,0,0,1-.68,0,.48.48,0,0,1,.67-.69A.49.49,0,0,1,18.37,114.54Zm-3.15,3.32a.48.48,0,0,1-.68,0,.48.48,0,1,1,.66-.7A.48.48,0,0,1,15.22,117.86Zm12.41,3a.48.48,0,0,1,.33-.59.49.49,0,0,1,.61.32.49.49,0,1,1-.94.27Zm4.87-11.17a.5.5,0,0,1,.59-.38.49.49,0,0,1,.36.6.48.48,0,0,1-.58.35A.49.49,0,0,1,32.5,109.64Zm4.46,1a.49.49,0,0,1,.6-.36.48.48,0,0,1,.35.58.49.49,0,0,1-.58.37A.51.51,0,0,1,37,110.69Zm-6.9-9.93a.51.51,0,0,1,.68,0,.5.5,0,0,1,0,.69.47.47,0,0,1-.67,0A.48.48,0,0,1,30.06,100.76Zm3.14-3.32a.5.5,0,0,1,.69,0,.49.49,0,1,1-.69,0Zm-12.4-3a.49.49,0,0,1-.34.59.45.45,0,0,1-.59-.32.46.46,0,0,1,.32-.59A.49.49,0,0,1,20.8,94.49Z"/></g></g></svg>