<svg xmlns="http://www.w3.org/2000/svg" viewBox="0 0 143.7 192.77"><defs><style>.cls-1{font-size:32.61px;font-family:GoldenHillsDEMORegular, Golden Hills DEMO;}.cls-2{letter-spacing:-0.01em;}.cls-3{fill:#000001;fill-rule:evenodd;}</style></defs><g id="Layer_2" data-name="Layer 2"><g id="Layer_1-2" data-name="Layer 1"><text class="cls-1" transform="matrix(0.59, 0.63, -0.64, 0.77, 53.86, 71.46)"><tspan class="cls-2">Y</tspan><tspan x="28.01" y="0">ourname</tspan></text><path class="cls-3" d="M110.68,63.45l1.24-.4h0a34,34,0,0,0,10-7c6.52-7.85-1.22-16.51-1.21-24.78,0-7,3.69-14.48.61-21.55-1.83-4.68-6.27-6.77-11.35-7A21.71,21.71,0,0,0,98,5.94C94.77,8,79.13,23.85,78.85,23.85a4.12,4.12,0,0,0-1.48-2.43,4.07,4.07,0,0,0-2.51-.86H70.39a3.86,3.86,0,0,0-2,.54c-.92.52-1.76,1.47-1.76,2-5-6.84-11-14-17.5-19A21.89,21.89,0,0,0,37.3,0c-5.08-.13-9.67,1.6-11.83,6.13-3.6,6.85-.51,14.57-1,21.55-.57,8.24-8.94,16.32-3,24.63,3.32,3.89,6.94,7.33,11.85,9h0a3,3,0,0,0,.56.26,70.86,70.86,0,1,0,95,100.88,5.87,5.87,0,0,0,.46-.65v0c.29-.41.57-.81.83-1.24s.39-.6.59-.9c.83-1.3,1.61-2.65,2.34-4,0,0,0-.08.07-.11.38-.73.78-1.48,1.14-2.23.23-.46.45-.92.66-1.4q1.25-2.64,2.25-5.38c.08-.19.14-.37.2-.56.2-.53.4-1.08.58-1.65a70.9,70.9,0,0,0-27.36-80.81ZM122.22,156a.54.54,0,0,1,.64-.4l.06,0c-.18.29-.37.58-.57.86A.51.51,0,0,1,122.22,156ZM123,153l1.1.6a6.48,6.48,0,0,1-.36.61Zm1.75-4.8a.54.54,0,1,1-.29-1,.54.54,0,0,1,.29,1Zm-17-140.66c5.76-1.84,8,2.63,5.44,8.17A39,39,0,0,1,89,25.23,30.17,30.17,0,0,1,107.78,7.57ZM93.23,53.88l.27.52a1.25,1.25,0,0,0-.12.45,71.15,71.15,0,0,0-9.26-2.44l-1.18-2.16c0-.09-.09-.16-.12-.24a37,37,0,0,1-3.14-8.54ZM70.36,26.45a3.4,3.4,0,0,1,2.43-.9A3.4,3.4,0,0,1,76,29a3.37,3.37,0,0,1-3.51,3.26,3.27,3.27,0,0,1-2.34-1.09,3.33,3.33,0,0,1-.92-2.4A3.53,3.53,0,0,1,70.36,26.45Zm.46,33.46a62.1,62.1,0,0,1,62,62.05,61.45,61.45,0,0,1-6.52,27.67c-.06-.24-.13-.49-.21-.73.78-1.44,1.54-2.86,2.33-4.29a1.14,1.14,0,0,0-.4-1.51,1.06,1.06,0,0,0-1.5.4c-.43.81-.88,1.6-1.32,2.41-.18-.61-.37-1.23-.55-1.85l1.42-2.61a1.15,1.15,0,0,0-.41-1.52,1,1,0,0,0-1.48.4c-.14.24-.28.5-.42.75-.18-.63-.38-1.26-.56-1.88a1.11,1.11,0,0,0-1.35-.77,1.1,1.1,0,0,0-.72,1.38c.18.64.37,1.27.57,1.9l-.77-.42a1.06,1.06,0,0,0-1.47.49,1.18,1.18,0,0,0,.49,1.49l2.63,1.41c.19.62.37,1.23.55,1.86l-2.43-1.31a1.05,1.05,0,0,0-1.47.49,1.14,1.14,0,0,0,.49,1.48c1.44.77,2.86,1.55,4.3,2.31.19.63.37,1.24.55,1.87l-4.16-2.25a1.08,1.08,0,0,0-1.44,1.51l2.48,4.05c-.63-.16-1.27-.31-1.9-.45-.84-1.39-1.7-2.78-2.54-4.16a1.16,1.16,0,0,0-1.51-.42,1.06,1.06,0,0,0-.4,1.5c.47.79,1,1.57,1.44,2.36l-1.9-.46c-.5-.84-1-1.68-1.55-2.54a1.15,1.15,0,0,0-1.51-.4,1.05,1.05,0,0,0-.4,1.49l.44.73a2.06,2.06,0,0,1-.32-.07L109,148.61,112.83,138l-11,2.35L94,134l1.76-2.22,4.78.35-2.5-4.22,1.75-4.65-5,1.37-3.75-3-.34,4.68L87.44,128,92,116.42l-12.34,3.06-6.93-5.72,2.84-2.93,5.19.26L78,106.43l1.92-5.73-5.62,1.58-4.2-3.89-.73,6-2.16,1.08-3.93-5.78,3.29-9.29L56.81,93,51.61,88,54.35,85l4.73.26-2.36-3.79,1.2-4.9L53.2,77.79l-3.41-3.23-.2,1.22-3-4.54,2.28-7.33A61.74,61.74,0,0,1,70.82,59.91Zm52.9,82.82a.54.54,0,0,1-1,.31.56.56,0,0,1,.35-.68A.57.57,0,0,1,123.72,142.73Zm-5.38,12.32a.54.54,0,0,1-.64.4.55.55,0,0,1-.4-.64.54.54,0,0,1,.65-.4A.51.51,0,0,1,118.34,155.05Zm-2.28.57-1.82,1.13-.75-1.16.69-.43Zm-2.63-1.75a.52.52,0,0,1-.64.4.48.48,0,0,1-.26-.17l-.09-.13a.49.49,0,0,1,0-.34.54.54,0,0,1,.63-.4A.54.54,0,0,1,113.43,153.87ZM105,152.36l-3.68-.17-2.12,2.28-1.12-3.26-3.14-1.45,3-1.82.36-3.16,2.71,2.05,3.25-.93-1.08,3.67Zm-17,.52L84.93,154l-4.3-3.46-.6,5.65-3,1.56,5.22-16-3.57.72,3.09-3.65,11.1,1L92.22,145l-8.83,5.83Zm-6.73,5.46,1.53-.93.18-1.64,1.41,1.07,1.67-.49-.55,1.9,1,1.44-1.89-.09-1.1,1.19-.58-1.7Zm.82,7.53-3.81-6.07L80.86,161Zm-31.34,14.8-.6-1.76-1.76-.81,1.67-1,.2-1.78,1.51,1.15,1.84-.52L53,178l1,1.56L52,179.47l-1.17,1.23S50.75,180.69,50.74,180.67Zm5.57-21.78,4.39-2.71.54-4.69,4,3.06,4.82-1.4-1.59,5.47,2.74,4.13-5.45-.26-3.17,3.41L61,161Zm2.3,22.18-2.85-4L56.94,175Zm8-35.23L54,135.19l-.46,4.73-1.39-1.87,1.93-5.7-3.06.39,4-5.22,7.42.67L58,131.13l12.12,5,2,8.28ZM46.1,147l3.29-4.24,4.16.34-.42,8.62-2,1.16-1.62-2.5,1.42-4.25Zm-8.59-10.64,3.92-1L40,133.92,36.09,135l-1.7-1.69,6.81-1.83L39.76,130,34,131.62l1-3.72-2,.54s-.34,1.25-.55,2.06l-1.27-1.27.82-3.12c.28-1,.55-2.08.83-3.12l1.74-.48c-.21.81-.55,2.07-.55,2.07L35.42,126l1-3.72,4.29,4.25,1.94-.52-3.82-3.79,7.74,3.52,1.88,7.93-4.9-4,0,6.29-5,2.92.11-.1.61-.61ZM30,129.12l-4-3.94a3.05,3.05,0,0,0,.33-1.24l5.43-1.47-2.85,2.83Zm-17.92-7.28-1,3.72-2.3-2.28c0-.43,0-.87,0-1.32,0-1.5.07-3,.17-4.48l4.61-1.24-1,3.72,2-.54s.32-1.25.54-2.07l1.28,1.28-1.65,6.24-1.75.47c.22-.81.55-2.06.55-2.06Zm-2.91,6.95,1.15-.32-.8,3C9.35,130.59,9.23,129.69,9.14,128.79Zm.55-17.6.27.27-.33.09C9.64,111.43,9.67,111.31,9.69,111.19Zm-.34,2.23,2-.55,1.68,1.68-4,1.07C9.15,114.89,9.24,114.16,9.35,113.42Zm-.47,12.43.95,1L9,127A11.71,11.71,0,0,1,8.88,125.85Zm9.69-3.29-1.08-3.83c1.34,1.32,2.67,2.63,4,4a2.57,2.57,0,0,0-.32,1.24l-5.43,1.47Zm9.35-8.7,1.51,1.52,2-.54-2.72-2.7,5.83-1.58.4-1.56,2.69,1.28.77,2.47-1.3.35-1.57,5.83-2.72-2.69-.51,2,1.52,1.5-1.75.47-2.29-2.28-2.28-2.28Zm-.14-7a.5.5,0,0,1,.6-.35.46.46,0,0,1,.33.59.49.49,0,0,1-.59.36A.48.48,0,0,1,27.78,106.81Zm14.77,2.37L41,109.1l-.92,1-.47-1.4-1.36-.62,1.28-.79.16-1.35,1.16.87,1.39-.39L41.75,108ZM38.92,70.47l.2-1.85.32-.18,1.67,1.25L43.42,69l-.76,2.63,1.31,2-2.61-.12-1.52,1.62L39,72.82l-2.25-1Zm1.23,18.35.23-2.08,1.79,1.35,2.14-.61-.7,2.42,1.21,1.83-2.42-.12L41,93.13,40.27,91l-2.08-1Zm2.69-4-3.43-3.12L43,77l6.43.46-.19,2.45L45.7,81.92l2.24,1.29Zm5.95-1.21,1.29.43.61,3.49-1.15-.92-.42,6-2.5-3.28Zm6-.87-1.57-.06-.92,1-.47-1.41-1.37-.62,1.29-.79.15-1.34,1.17.87,1.39-.4L54,81.51Zm5,20.82-3.27-.15-1.9,2-1-2.91-2.8-1.28,2.65-1.63.32-2.81,2.42,1.84,2.89-.85-1,3.28ZM76,108.22l-1.9-.08-1.09,1.18-.58-1.68-1.62-.75,1.53-1,.18-1.63,1.4,1.06,1.68-.47-.55,1.89Zm-5.16,3.59-1.45-.7L68.89,124l-4.7,3.13-4.87-7.39,3.34-9-7.1,1.52,3.28-4.2,9.06.68,2.38.82ZM56,123.26l-3.26-.15-1.89,2-1-2.91L47.08,121l2.63-1.62.32-2.82,2.42,1.84,2.9-.84-1,3.27Zm-6.15-17.45,1.27,5.07-5.08-4.1-.08.06-.43,2.56-1.45-2.06,1.35-3.21Zm-4.25,5.79-.29,5-1.52,1-2.39.65,1-3.92-2,.52-1,3.93-2.3.61,1.49-5.57.32,1,3-3.67Zm-8,9.46,1.4-.38-1.08.7Zm-10.14-.92,3.91,1c-1.82.48-3.63,1-5.45,1.48a2.88,2.88,0,0,0-.4-.52l-.21-.18a.7.7,0,0,0-.17-.13.29.29,0,0,0-.12-.07c.47-1.82,1-3.63,1.43-5.44Zm-3.79,1.21a2.5,2.5,0,0,0-.4,0l-.46.12-.37.17-4-4,3.85,1,2.8-2.86C24.67,117.71,24.2,119.53,23.71,121.35Zm-2.19,3.89a2.78,2.78,0,0,0,.4.52,1.64,1.64,0,0,0,.24.21,1.43,1.43,0,0,0,.22.15l0,0c-.49,1.82-1,3.63-1.44,5.43l-1-3.85-3.9-1Zm2.25,1.27a2.47,2.47,0,0,0,.89-.17c.09,0,.2-.08.29-.14h0c1.34,1.31,2.67,2.63,4,3.94l-3.84-1L22.32,132C22.81,130.15,23.28,128.33,23.77,126.51Zm22.51,11.32.19-1.62,1.41,1.06,1.66-.48-.55,1.9.95,1.42L48.06,140,47,141.22l-.58-1.69-1.63-.75Zm1.53,14.47-1.74-.09-1,1.1-.53-1.56-1.5-.69,1.42-.87.17-1.52,1.29,1,1.56-.44L46.93,151ZM47,154.5l1.81.11-3.4,2Zm24.25-24.56,3.59-2.19.43-3.83,3.28,2.5,3.93-1.14-1.3,4.44,2.24,3.37L79,132.87l-2.57,2.77-1.35-3.94Zm16.7-.57,3.26,1.48,1.68,5.93Zm4.17-.89,1.15-.7.14-1.23,1.06.8,1.25-.35-.41,1.42.7,1.07-1.41-.06-.82.89-.45-1.27ZM61,50.1h0a.56.56,0,0,1-.1.15,1.08,1.08,0,0,1-.13.19c-.24.33-.66,1-1.15,1.61A70.8,70.8,0,0,0,50,54.25l-.13-.41.85-1.34L65.19,41.12A36.52,36.52,0,0,1,61,50.1ZM33.2,12.77c-2.13-5.71.41-10,6-7.73A30.18,30.18,0,0,1,56.66,24,38.72,38.72,0,0,1,33.2,12.77ZM31.87,73.69l4.45,1.7.92,3.23-.11,8.14L31.5,90.48l6.21,2.6,2.07,6.41,3.78-5,5.36.43-.09,1.38-8.32,5.43,2.81,1.63-2,.5-3.8-3.11-.48,4.79-3.8,2.67,1.16.55-6.21,1.68.61-2.29,3.92-1.06.52-2-3.92,1.07.63-2.4-1.69-.46-.62,2.4-2.9-2.84-.52,1.94,2.9,2.86-.62,2.3-5-5L21,107l4.27,4.27-3.68,1L23,113.68l2.05-.57-.46,1.75c-1,.29-2.08.57-3.13.84l-3.1.86-1.29-1.29,2.07-.55.52-2-3.71,1,1.55-5.84L16.1,106.5l-1.79,6.81-1.7-1.66,1.06-3.94-1.44-1.42-1,3.93-1.09-1.08A62,62,0,0,1,31.87,73.69ZM10.1,134.85l.32-.09L12,128.93l2.73,2.69.5-2-1.51-1.5,1.74-.47,2.3,2.28L20,132.25,19.56,134l-1.51-1.51-2,.53,2.72,2.7L13,137.3l-.51,1.94,6.8-1.84-.61,2.3-3.92,1.06-.52,1.94,3.92-1.06-.63,2.41.84.23.84.21.63-2.39L22.71,145l.51-1.94-2.88-2.87.61-2.29,5,5,.52-2-4.28-4.25,3.7-1-1.44-1.42s-1.25.33-2.05.56l.46-1.74,3.11-.84c1-.3,2.08-.57,3.12-.86l1.29,1.28-2.07.55-.52,2,3.7-1-1.54,5.85,1.44,1.41,1.79-6.8,1.68,1.67-1,3.93,1.44,1.43,1-3.94,1.76,1.76.32-.33,5.54,2.78L45,146l-2.37-1.9-.43,4.47-3.93,3,4.26,2,1.11,3.58-4.11,3.2,15.07,6.28,1.52,5.16-3.89,1.2-4.58-3.85-.63,6.29-3.55,2.29A62.29,62.29,0,0,1,10.1,134.85Zm47,47.61,2.26.13,10.12-12.54,15.92,1.13-2.74-4.57L85.57,162l5.53.46-2.89-4.9,1.73-4.13,3.91,1.91,2.84,10.79,7.25-8.64,9.28.53a1,1,0,0,0,.18.52,1.13,1.13,0,0,0,1.55.32l4.14-2.55,1.89.44-4,2.5a1.08,1.08,0,0,0,.6,2l1.27,0c-.4.47-.8.94-1.21,1.4l-1.55.05a1.15,1.15,0,0,0-1.1,1.1,1.11,1.11,0,0,0,.67,1q-.78.81-1.56,1.56a1.07,1.07,0,0,0-.53.52A61.78,61.78,0,0,1,70.82,184,61.16,61.16,0,0,1,57.06,182.46Z"/></g></g></svg>