<svg xmlns="http://www.w3.org/2000/svg" viewBox="0 0 92.5 125.9"><defs><style>.cls-1{fill:#000001;fill-rule:evenodd;}</style></defs><title>Anna</title><g id="Layer_2" data-name="Layer 2"><g id="Layer_1-2" data-name="Layer 1"><path class="cls-1" d="M92.5,79.7A46.1,46.1,0,0,0,72.3,41.5l.8-.3h0a21.8,21.8,0,0,0,6.6-4.6c4.3-5.1-.8-10.8-.8-16.2s2.4-9.4.4-14.1c-1.2-3-4.1-4.4-7.4-4.5A13.8,13.8,0,0,0,64,3.9C61.9,5.2,51.7,15.6,51.5,15.6a2.5,2.5,0,0,0-1-1.6,2.3,2.3,0,0,0-1.6-.6H46a2.8,2.8,0,0,0-1.3.4c-.6.3-1.2.9-1.2,1.3A58.8,58.8,0,0,0,32.1,2.7,14.8,14.8,0,0,0,24.4,0C21-.1,18.1,1.1,16.6,4c-2.3,4.5-.3,9.5-.6,14.1s-5.9,10.7-2,16.1c2.2,2.5,4.5,4.8,7.8,5.8h0l.3.2a47.7,47.7,0,0,0-16,16.5,46.2,46.2,0,0,0,40.2,69.2,46.5,46.5,0,0,0,23.4-6.3l.4-.2h0a64.2,64.2,0,0,0,5.3-3.8l.9-.7,2.5-2.3h0l1.7-1.8h0l.5-.6,1.1-1.3h0l.4-.4.7-1h0l.7-.9h0l.6-.9.5-.7h0l.6-1h0A45.6,45.6,0,0,0,92.5,79.7ZM69,111l-1.4.9a9.9,9.9,0,0,0,.2-1.7l1.2-.6Zm-8.3-4.8,1.2-.7v1.3l-1.3,1Zm-.6-1-1.5-.8,1.5-.7,1.2.7Zm.6-2.5c0-.5-.1-1.1-.1-1.6a.5.5,0,0,0-.7-.5.6.6,0,0,0-.5.6c0,.3.1.5.1.8l-.8-.5a.6.6,0,0,0-.8.2.5.5,0,0,0,.2.8l.8.5-.7.3a.7.7,0,0,0-.4.7l-1.4-.8-.3-1.6a.6.6,0,1,0-1.1.1c0,.3.1.6.1.8l-1-.5.3-1.3V98.5l.6-.3c0,.2-.1.5-.1.8a.5.5,0,0,0,.5.6.5.5,0,0,0,.6-.5l.3-1.6,1.4-.8a.7.7,0,0,0,.4.7l.7.3-.8.5a.5.5,0,0,0-.2.8.8.8,0,0,0,.8.2l.8-.5c0,.2-.1.5-.1.8a.6.6,0,0,0,.5.6c.4,0,.7-.2.7-.5s.1-1.1.1-1.7l1.8-1,1.6.9a27.5,27.5,0,0,0-2.6,2.2.5.5,0,0,0,0,.7l2.6,2.2-1.6.9Zm-8.9-3.6-.4,2.7-.4,1.5-.7,1.6-1.1,1.6L48.1,108l-1.3,1.3-1.1,1-1,.7-.8.3v-9.9l-.3-1.8.2-.3.2-.2h.5l1.7.9,1,.2h1l1.1-.3.9-.5,1.5-.8h.5v.6Zm-6.2-3.2.4.2h1.2l.6-.2.5-.3.6-.7.4-.7V93.1l-.2-.5-.3-.5-.9-.8-1.2-.5H44.4l-.4.3-.4.3-.7.8-.6.7-.7.4h-.8l-.9-.5-1-1.2-1.2-2-1.5-3,1.7-1,1.3-.7.9-.2,1.1.3,1.6.7,2,1.1L47,88.3l1.9,1.6.9.9.7.9.5.9.4,1v1l-.2,1-.5,1.1-.6.9-.6.7-.8.4-.7.3H46.5l-.7-.2-1.4-.7-1.1-1-.5-.6-.2-.5V94.8l.3-.9.4-.6.4-.5.4-.4h1l.8.3.6.5.3.7v.8l-.4.3-.4.3-.4.2v.3ZM24.8,94.6v-.5l-.3-.4-.4-.3-.6-.2-1.1-.3h-2l-.9.2-.7.3-.6.4-.4.5-.4.6v1.4l.2.7.2.8.5.9.6.8.8.8,1,.8,1.9,1.2,1.1.8,1.2.9.9,1,.6,1.1.2.6v.6l-.2.6-.4.6-.5.7-.5.4-.4.3H23l-.6-.4-.4-.6-.2-.7v-.6l.5-.4.8-.4.3-.4v-.3l-.3-.4-.5-.2H21.6l-.6.2-.4.4-.3.5-.5,1.1-.4.9-.2.3h-.3l-.5-.2-.6-.6-.6-1-.5-1.2-.5-1.4-.4-1.6-.3-1.7-.2-1.7V96l.4-1.6.6-1.3.9-1.1,1.1-.8.7-.3.8-.2h1.8l1.8.3,1.5.6,1.1.8.9.9.5,1,.3,1.1v1.1l-.2,1.1-.5,1-.6.9-.7.6-.9.5-1,.2H22.8l-1.2-.5-1.2-.9-.6-.5-.3-.6-.3-.6V95.9l.5-.9.6-.6H21l.4.2.3.3.3.4.3.7.2.7.3.5.3.3.4.2h.3l.3-.2.5-.7.3-.9Zm.6,18.8-.5-.2-.2-.2v-.2l.2-.2.6-.5.9-.5.8-.6.5-.5.8-2.1.2-.9v-.8l-.3-.8-.6-.9-2.1-2.1v-.3l.4-.3,1.5-1.1.8-.7.9-.8.6-1,.4-1,.2-.9V95l-.2-.8-.3-.8-.4-.7-1.1-1.3-1.5-1.1-1.9-.7-2.1-.3H20.4l2-1.5,1.2-1.1.5-.7.2-.4h.2l.3.2.9.3,1.7.6h1.5l.7.2.7.5.7,1,.8,1.7.6,2.5.4,2.2.3,2,.2,1.9v1.7l-.2,3-.5,2.6-.7,2.2-.6,2-.6,2-.3,1.9-3.2-.2ZM37.3,44.5A5.1,5.1,0,0,0,39,48.1a5.7,5.7,0,0,0,4.3,1.3A4.7,4.7,0,0,0,46.7,48a1.2,1.2,0,0,0,.2-1.3c-.2-.3-.3-.4-.4-.2a3.5,3.5,0,0,1-2.3.9,3.5,3.5,0,0,1-2.7-.7,2.2,2.2,0,0,1-.9-1.7,3.3,3.3,0,0,1,.9-1.9,6.8,6.8,0,0,1,3-2.1,13.6,13.6,0,0,1,4.1-.9,10.9,10.9,0,0,1,4.3.6,10.2,10.2,0,0,1,3.9,1.9l1.8,1.6,1.2,1.2A6.6,6.6,0,0,1,61,46.6l.9,1c-3.4-.4-7.6.3-12.6,2a50.9,50.9,0,0,1-6.2,1.9,16.1,16.1,0,0,1-4.1.8,6.4,6.4,0,0,1-2.5-.1,5.1,5.1,0,0,1-1.5-.7.8.8,0,0,1-.2-.5c0-.1-.1-.2-.1-.3h-.4a.7.7,0,0,0-.5.4,3,3,0,0,0-.6,2l-1.4-.4-.3-.8-3.1-6.4-.6-.7-.7-.5h-.6a40.1,40.1,0,0,1,12.7-4.5l-.7.7A4.9,4.9,0,0,0,37.3,44.5Zm26.9,5.2.7.7a3.8,3.8,0,0,0,1.3.8,5,5,0,0,1-1.7,1.1l-3.2,1.3L57.8,55l-2.4,1.1-4.5-3.7h.2C56.6,50.3,61,49.4,64.2,49.7ZM37.7,79.1l-.2-1.3L37,76.6l-.5-1.2-1.2-2.1-1.2-1.7.3-.2h.5l.9.2,1,.4,1.1.7,2,1.5,1.2,1.2.3.5.2.5v2.5l-.3,1.1-.3.5-.4.5-1.1.9-1.1.7-.6.3-.2-.2v-.4l.2-1.9Zm-2.5-14-2.8,1.6-1.1-.3-.5-.4-.3-.5v-.6l.4-.9.2-.4,7-.9h.3v.4l-.2.3ZM29,59l-1.5,1.5h-.4l-.3-.2-.4-.4v-.7L28,57.9h.7l.4.5v.3Zm.6,1.5.5.2.4.3.3.4v1l-.3.4-.4.3h-.5l-.5-.2-.4-.2-.3-.5v-1l.3-.4.4-.3Zm-1.7,5.8h.2l.8.5,1.1.6,1.4.4h1.2l.9-.2.5-.3-.5.4-.7.5-.7.3-1.5.3h-.5l-.6-.2-.6-.4-.5-.8-.6-1Zm5.6-8.9,1.9.9.3.3V59l-.2.5-.3.2h-.4l-1.9-.9-.2-.3v-.4l.3-.5.3-.2ZM33,60h1l.4.3.3.4v.5l-.2.5-.2.4-.5.3h-1l-.4-.3-.2-.4v-1l.3-.4ZM21.2,49l.9-.9,1-.9.8-.4h.4l.5.3,1,.9,2.4,2.4L30,52.3l-2.4.8-1.7.7-1.1.5-1.1.6-.6.3-1.2-2.5-.8-1.9-.3-1.1Zm3.9,23.6,1.7-.8,2.1-.7.8.5.6.7.5.7.3.6v.6l-.3.5-.6.3h-1l-1.4-.2-1.4-.2H24.8l-.3.4-.7,1.3-.2.5v.5l.3.7.6.5.6.3h.7l.6-.2.2-.3-.4-.4-.6-.8-.2-.4v-.5l.2-.5.7-.4.8-.2h.7l.6.2.5.3.4.5.2.6.2.7v1.3l-.2.7-.4.6-.5.5-.6.4-.9.2H26l-1.1-.2-1.3-.5-1.2-.8-.5-.6-.4-.6-.3-.7V76.5l.2-.7.5-.8.8-.8,1.1-.8Zm5.4,10.8v.9l-.3.2-.7.2H26.4l-1.1-.5-.9-.7-.4-.4-.3-.6,1.3.2h2.1l.8-.5,1-.7,1.3-1v2.9Zm2-.5-.7-.5-.4-.7-.2-.8.2-.9.5-.7.7-.4.8-.2.9.2.6.5.5.7v.8l-.2.9-.4.6-.7.5-.9.2ZM33.7,91l.4-.7.7-.5h.9l.8.2.7.4.4.7.2.9-.2.8-.5.7-.7.4-.8.2-.8-.2-.7-.5-.5-.7v-.8Zm.6,16.3.5-.6.6-.5h1.7l.7.5.5.7v.9l-.2.8-.5.7-.7.4-.8.2-.8-.2-.7-.5-.4-.7-.2-.8Zm3.8-5.7-.7.5h-.8l-.8-.2-.7-.5-.5-.6V100l.2-.8.4-.7.7-.5h.9l.8.2.7.5.4.6.2.9-.2.8ZM51.2,88.8l-1.8-2.1-2.1-1.8-2.4-1.6L42.2,82l1.2-1.1.8-1.3.7.8.8.6,1,.4,1.1.2h.9l.9-.2.8-.5.6-.5.6-.7.4-.7.3-.9V76.2l-.3-.9-.3-.6v-.2l-.5-.7-.3-.2-.4-.4-.7-.4h-.3l-.6-.2H48l-1.3.2-1.2.5-1,.8-.7,1-.5-.8-.8-.7-1.8-1.3L38.4,71l-2.6-.8,1.7-1.5.7-.8.6-1,.4-1,.4-1.1.2-1.1V60.8l-.4-1.6-.8-1.6-.7-1h.2l1.6-.2,1.6-.5,1.9-.6,1.8-.6,1.9-.8,2-.8L53.5,57l-5.9,3a15.9,15.9,0,0,0-3.3,2.9,3.2,3.2,0,0,0-.8,2,2.2,2.2,0,0,0,.9,1.7,4,4,0,0,0,1.7.9c.7.1,1.1,0,1.3-.2s.1-.2,0-.3v-.9l.6-.8,1-1.1,1.7,1.4h.3l6.9-3.1a9.5,9.5,0,0,1,3.1-.5,4,4,0,0,1,1.9.5c.4.5-.5,1.4-2.8,2.5a19.8,19.8,0,0,0-2.6,1.3,5.3,5.3,0,0,0-1.2,1,2.7,2.7,0,0,0-.6,1.6,2.4,2.4,0,0,0,.9,1.5,3.4,3.4,0,0,0,1.1.7,3.7,3.7,0,0,0,1.5.5h.7l-1,.5h-.1c0,.1,0,.1.1.1l2,1.7h.3L68,71.1a9.5,9.5,0,0,1,3.1-.5,4,4,0,0,1,1.9.5c.4.5-.5,1.4-2.8,2.5a19.8,19.8,0,0,0-2.6,1.3,5.3,5.3,0,0,0-1.2,1,2.7,2.7,0,0,0-.6,1.6,2.4,2.4,0,0,0,.9,1.5,2.6,2.6,0,0,0,1.1.7,3.7,3.7,0,0,0,1.5.5,10.4,10.4,0,0,0,2.4-.1l.8-.2a3.7,3.7,0,0,0-.8,2.1,2.6,2.6,0,0,0,1,2.1l.7.4a.4.4,0,0,0-.1.3,9.2,9.2,0,0,0-.1,1.6l-3,1.9V87l2.1-1.3a.7.7,0,0,0,.2-.8.6.6,0,0,0-.8-.2l-1.5.9V84.4l1.1-.9a.6.6,0,0,0,.1-.9.6.6,0,0,0-.8-.1l-.4.4V81.7a.6.6,0,0,0-1.2,0v1.2l-.3-.4a.6.6,0,0,0-.8,1l1.1.9v1.2l-1.4-.9a.5.5,0,0,0-.8.2.6.6,0,0,0,.2.8L69,87v1.3l-2.9-1.9a8.1,8.1,0,0,1-.1-1.6c-.1-.3-.3-.6-.7-.5a.6.6,0,0,0-.5.6v.8l-1-.7a.7.7,0,0,0-.9.2.8.8,0,0,0,.2.8,4.1,4.1,0,0,1,1.1.7l-.7.3a.5.5,0,0,0-.3.7.5.5,0,0,0,.7.3l1.5-.6,1.5.9c-.3.1-.5.4-.4.6a1.9,1.9,0,0,0,.1.8l-.9-.4a.6.6,0,0,0-.8.2.7.7,0,0,0,.3.8l.8.4-.7.4a.6.6,0,0,0-.3.8.6.6,0,0,0,.8.2l1.5-.6,1.7,1v1.8l-3.1-1.2a.6.6,0,0,0-.7.4c-.2,1.1-.4,2.2-.5,3.3l-1.6-.9V93.8l1.3-.9a.6.6,0,0,0,.2-.8.7.7,0,0,0-.8-.2l-.7.5v-.9c0-.4-.2-.6-.5-.6s-.6.2-.6.5v1l-.7-.5a.6.6,0,0,0-.7.1,9.1,9.1,0,0,0-.1-1.7l1.3-1a.6.6,0,0,0,.1-.9.8.8,0,0,0-.8-.1l-.6.5c0-.4-.1-.8-.1-1.3a.6.6,0,0,0-1.1.1v1.3l-.7-.5a.7.7,0,0,0-.8.2.6.6,0,0,0,.2.8l1.4.9c0,1.2,0,2.4.1,3.5l-1.2-.7a19.3,19.3,0,0,0-.1-2.4.6.6,0,0,0-.6-.6.6.6,0,0,0-.5.6v1.8l-1-.7-.3-1.4a.6.6,0,0,0-.6-.5c-.4.1-.6.4-.5.7a.9.9,0,0,0,.1.5l-1-.6a.6.6,0,0,0-.6,1l1,.6-.5.2c-.2,0-.3.2-.3.4L52.7,91ZM45.1,76.9l.3-1.1.6-1,.9-.6.5-.2h1.7l.9.7h0l.2.4.4.6v1h0l-.3,1.2-.6.9-.9.6-.5.2H47.3l-.5-.2-.9-.7-.6-.9V76.9ZM79.7,102a2.2,2.2,0,0,0,.1-.8.6.6,0,0,0-.5-.6c-.3-.1-.6.2-.7.5a8.6,8.6,0,0,1-.1,1.6l-1.8,1.1-1.5-.9,2.6-2.2a.5.5,0,0,0,0-.7l-2.6-2.2,1.5-.9,1.8,1a9.7,9.7,0,0,1,.1,1.7.8.8,0,0,0,.7.5.6.6,0,0,0,.5-.6,1.9,1.9,0,0,0-.1-.8l.9.5a.6.6,0,0,0,.7-.2.5.5,0,0,0-.2-.8l-.8-.5.8-.3a.8.8,0,0,0,.3-.7l1.3.7a36.2,36.2,0,0,1-2.4,4.3h0Zm-8.5,9.6-1-.6v-1.4l1.2.6v1.2Zm3.1-2.7h0a.7.7,0,0,0-.8-.3l-1.5.7-1.8-1v-1.8l3.1,1.2c.3.1.7-.1.7-.4l.6-3.3,1.5.9v2l-1.3,1a.6.6,0,0,0-.2.8ZM72,91.5l1.5.6c.3.2.6,0,.8-.2a.6.6,0,0,0-.3-.8l-.8-.4.9-.4a.8.8,0,0,0,.2-.8.5.5,0,0,0-.8-.2l-.8.4a2.5,2.5,0,0,1,.1-.8.8.8,0,0,0-.4-.6l1.4-.9,1.5.6c.3.2.6,0,.8-.3a.6.6,0,0,0-.4-.7l-.7-.3,1.1-.7a.6.6,0,0,0,.2-.8.5.5,0,0,0-.8-.2l-1.1.7v-.8h0a9.4,9.4,0,0,0,2.8-.2h-.1a2.4,2.4,0,0,0-.5,1.8,2.6,2.6,0,0,0,.9,1.6l.3.2-.5.2a.7.7,0,0,0,.1.9l1.3,1V92a.6.6,0,0,0-.7-.1l-.6.5v-1a.6.6,0,0,0-.6-.5.6.6,0,0,0-.6.6v.9l-.6-.5a.8.8,0,0,0-.9.2.7.7,0,0,0,.2.8l1.3.9v2.1l-1.5.9L74,93.5c0-.3-.4-.5-.7-.4l-3.1,1.2V92.5Zm-1.8-.4V89.7l1.4-.9h0c-.1.6-.1,1.1-.2,1.6Zm13.9,3.1-1.4-.7,1.1-.6.7.2A3.6,3.6,0,0,1,84.1,94.2Zm-.4,1.1h0l-.5,1.1h0l-2.9-1.6,1.2-.6Zm-3.1,1-1.5.6-1.2-.7,1.2-.7Zm-3.3-1.1V93.8l1.3-.9v1.6Zm1.5-6.4h0Zm-5,11.3-1.1-.9,1.3-.7,2.3,1.8a21.1,21.1,0,0,1-2.3,1.9l-1.3-.7,1.1-.9A.5.5,0,0,0,73.8,100.1ZM73,94.5a25,25,0,0,0,.5,2.9l-1.4.8a5.9,5.9,0,0,0-.2-1.3c0-.2-.2-.3-.4-.3l-1.3.5V95.6Zm-.4,5.8-.8.6-1-.6,1-.6Zm-1.5-2.5.2.9-1.1.6V98.1Zm.2,4.2-.2.9-.9-.3v-1.2Zm.2,2.1c.2,0,.4-.1.4-.3a5.9,5.9,0,0,0,.2-1.3l1.4.7c-.2,1-.4,2-.5,2.9l-2.8-1v-1.5ZM85.3,90.6h0l-.8.5a.9.9,0,0,1,.1-.5.8.8,0,0,0-.5-.7c-.3,0-.7.2-.7.5s-.1,1-.2,1.4l-1.1.7a10.9,10.9,0,0,1,.1-1.8c0-.3-.3-.5-.6-.6a.6.6,0,0,0-.6.6c0,.8-.1,1.6-.1,2.4l-1.1.7c0-1.1,0-2.3.1-3.5l1.3-.9a.5.5,0,0,0,.3-.5h.7l3.4-1c.1,0,.2-.1.1-.2v-.9c0-.1-.1-.1-.2-.1a19.9,19.9,0,0,1-4.2.9H80a.6.6,0,0,0-.6-.6H79a.8.8,0,0,1,.2-.4,6.6,6.6,0,0,1,1.9-1.4c.8-.5,2.7-1.3,5.6-2.6A42.2,42.2,0,0,1,85.3,90.6ZM83.2,80.1a3,3,0,0,1-.9,1.5l-2.1,1c-2.9,1-4.8,1.1-5.5.5a.6.6,0,0,1-.3-.6,1.2,1.2,0,0,1,.4-.8,5.8,5.8,0,0,1,2.4-1.8,11,11,0,0,1,3.3-1.2,2.6,2.6,0,0,1,2.4.4A.9.9,0,0,1,83.2,80.1ZM69,89.7v1.4l-1.2-.7a10,10,0,0,0-.2-1.6h0Zm0,11.7v1.2l-.9.3V102Zm-1.6-.5-.7-.6.7-.6,1,.6Zm.6-2.2v-.9l.9.3v1.2Zm-.2-2.1a.5.5,0,0,0-.5.3,5.9,5.9,0,0,1-.2,1.3l-1.3-.8c.1-.9.3-1.9.5-2.9L69,95.6v1.5Zm-13.3.6h0Zm-.2-1.5h0l-.2-.9-.4-1.3v-.2h.5l1.4-.5,1.1.6-1.6.8a.6.6,0,0,0,.6,1l2.2-1.1,1.1.6-3.1,1.7Zm5.8-.2,1.2.7-1.2.7-1.5-.6Zm.6-1V92.9l1.3.9v1.4Zm2.2,5.8,2.3-1.8,1.3.7-1,.9a.3.3,0,0,0,0,.5l1,.9-1.3.7Zm4.2,2.2a5.9,5.9,0,0,1,.2,1.3.5.5,0,0,0,.5.3l1.2-.5v1.5l-2.7,1a25,25,0,0,1-.5-2.9Zm10.2,3h.2l-.2.2Zm.6-1.1.8-.4-.5.6Zm8.9-24.7a14.8,14.8,0,0,1-.1,2.1l-1.5-1.3h-.4c-.2.2-.4.2-.4.3a2.4,2.4,0,0,0-1-2.7,5.6,5.6,0,0,0-2.7-1.2,8.1,8.1,0,0,0-3.1.1A13.6,13.6,0,0,0,74.8,78h-.3a14.7,14.7,0,0,1-3.4.7c-1.4.1-2.2,0-2.5-.3s-.2-.4,0-.7a4.8,4.8,0,0,1,1.4-.9l3.8-1.8A5.8,5.8,0,0,0,75.3,74a1.9,1.9,0,0,0,.4-1.5,2.6,2.6,0,0,0-1-1.6l-.8-.6-1-.5-1.6-.2.9-.4a.1.1,0,0,0,.1-.1h-.1l-2-1.7h-.3l-5.3,2.4a26.6,26.6,0,0,1-3.7.7c-1.4.1-2.2,0-2.5-.3s-.2-.4,0-.7a4.8,4.8,0,0,1,1.4-.9l3.8-1.8a5.8,5.8,0,0,0,1.5-1.1,1.9,1.9,0,0,0,.4-1.5,2.6,2.6,0,0,0-1-1.6l-.8-.6-1-.4a4.1,4.1,0,0,0-1.6-.3l.9-.4a.1.1,0,0,0,.1-.1c0-.1,0-.1-.1-.1l-2-1.7h-.3l-9,4,1.4-.9a95.6,95.6,0,0,1,8.6-4.3l2.2-.9L66.4,55a4.9,4.9,0,0,0,2-1.3,2.5,2.5,0,0,0,.6-2,2.4,2.4,0,0,0-.9-1.7,9.2,9.2,0,0,0-3.2-1.8c-1.2-1-2.4-2.2-3.6-3.4l-3-2.8L56,40.3A40.6,40.6,0,0,1,86.8,79.7ZM70.4,4.9c3.8-1.2,5.2,1.8,3.6,5.4a25.6,25.6,0,0,1-15.9,6.2A20.2,20.2,0,0,1,70.4,4.9ZM60.9,35.2l.2.3a.4.4,0,0,0-.1.3c-2-.6-4-1.2-6-1.6-.3-.4-.5-.9-.8-1.4h-.1a28.8,28.8,0,0,1-2-5.6ZM46,17.3a2.3,2.3,0,0,1,1.6-.6,2.3,2.3,0,0,1,1.5.7,2.3,2.3,0,0,1,.6,1.6,2.1,2.1,0,0,1-.7,1.5,2.5,2.5,0,0,1-1.6.6,2.1,2.1,0,0,1-1.5-.7,2.3,2.3,0,0,1-.6-1.6A1.8,1.8,0,0,1,46,17.3ZM39.8,32.7h0c0,.1-.1.1-.1.2l-.8,1a42.9,42.9,0,0,0-6.2,1.4v-.2l.6-.9,9.4-7.4A20.7,20.7,0,0,1,39.8,32.7ZM21.7,8.3c-1.4-3.7.3-6.5,3.9-5A19.5,19.5,0,0,1,37,15.7,24.9,24.9,0,0,1,21.7,8.3ZM18.3,50.4h0l3,6.2-.7,1.2L20,59.2l-.4,1.5-.2,1.5v1.3l.3,1.3.4,1.2.6,1.2.7,1,.9,1,1,.8,1.1.8-1.4.5-1.2.6-1.1.7-.9.8-.7.9-.6.9-.3.9-.2,1.1-.6-.7-.8-.4-.9-.3-.9-.2h-1l-.8.3-.8.4-.7.5-.6.7-.4.8-.3.8v1.9l.2.8.4.8.6.7.6.6.8.4.9.3h1.8l.8-.2.8-.4.7-.5.5-.7.5-.7.3-.9v-.9l1.4,1.5,1.9,1.2-2.1,1.2-2,1.5-1.6,1.7-1.5,1.8-1.1,2-.9,2.1-.5,2.3L12.6,98v1.9l.3,1.8.5,1.7h0A40.1,40.1,0,0,1,5.7,79.7,40.6,40.6,0,0,1,18.3,50.4Zm-.9,29.9-.2,1.1-.6,1-.9.6H14l-.5-.2-.9-.6-.6-1V80.1l.3-1.1.6-.9.9-.7h1.7l.5.2.9.6.5,1,.2.6Zm28.9,39.9a39.9,39.9,0,0,1-18.6-4.5l1.3.3,2.1.4h4.3l2.1-.2,2-.4,1.9-.6,1.9-.7,1.7-.9,1.6-1,1.6-1.1,1.3-1.3,1.3-1.3,1-1.5,1-1.6.7-1.6.3-1,.7.3-.7.4a.5.5,0,0,0-.2.8.4.4,0,0,0,.7.2l1.5-.7,3.1,1.7-1.1.6-2.2-1.1a.5.5,0,0,0-.8.2.6.6,0,0,0,.2.8l1.6.8-1.1.6-1.4-.5a.6.6,0,0,0-.7.4.5.5,0,0,0,.3.7l.5.2-1,.6a.5.5,0,0,0-.2.8.7.7,0,0,0,.8.2l1-.6a.7.7,0,0,0-.1.5.5.5,0,0,0,.5.6.4.4,0,0,0,.6-.4l.3-1.5,1-.6v1.7c0,.4.2.6.5.6a.5.5,0,0,0,.6-.5,20.9,20.9,0,0,0,.1-2.5l1.2-.6c-.1,1.1-.1,2.3-.1,3.5l-1.4.9a.6.6,0,0,0-.2.8.6.6,0,0,0,.8.1l.7-.4v1.3a.6.6,0,0,0,.5.6.6.6,0,0,0,.6-.6c0-.4.1-.8.1-1.3l.6.5a.6.6,0,1,0,.7-.9l-1.3-1a9.7,9.7,0,0,0,.1-1.7.6.6,0,0,0,.7.1,1.8,1.8,0,0,1,.7-.5v.9a.5.5,0,0,0,.6.6.6.6,0,0,0,.5-.6v-.9l.7.4a.5.5,0,0,0,.8-.1.5.5,0,0,0-.2-.8l-1.3-1v-2l1.6-.9c.1,1.1.3,2.2.5,3.3a.6.6,0,0,0,.7.4l3.1-1.2v1.8l-1.7,1-1.5-.7a.6.6,0,0,0-.8.3.6.6,0,0,0,.3.8l.7.3-.8.5a.7.7,0,0,0-.3.8.6.6,0,0,0,.8.2l.9-.4a1.7,1.7,0,0,0-.1.7.6.6,0,0,0,.4.7l-1.5.8-1.5-.6a.6.6,0,0,0-.7.4.5.5,0,0,0,.3.7l.7.3-1.1.7a.8.8,0,0,0-.2.8.7.7,0,0,0,.9.2l1-.7v.7h0A40.1,40.1,0,0,1,46.3,120.2Zm19.8-6,2.9-1.8v.8a30.5,30.5,0,0,1-3,1.9C66,114.8,66.1,114.5,66.1,114.2Z"/></g></g></svg>