<svg xmlns="http://www.w3.org/2000/svg" viewBox="0 0 92.8 126.2"><defs><style>.a{fill:none;stroke:#000001;stroke-miterlimit:10;stroke-width:0.28px;fill-rule:evenodd;opacity:0.98;}</style></defs><title>Faith</title><path class="a" d="M72.5,41.6l.8-.3h0a21.5,21.5,0,0,0,6.6-4.5c4.2-5.2-.8-10.8-.8-16.2s2.4-9.5.4-14.1S75.4,2.1,72,1.9A14.6,14.6,0,0,0,64.1,4c-2,1.4-12.3,11.7-12.4,11.7a3.4,3.4,0,0,0-1-1.6,3,3,0,0,0-1.6-.5h-3a3.1,3.1,0,0,0-1.3.3c-.6.4-1.1,1-1.1,1.3-3.3-4.4-7.2-9.1-11.5-12.4A14.5,14.5,0,0,0,24.5.1c-3.3,0-6.3,1.1-7.7,4.1s-.3,9.5-.7,14-5.8,10.7-1.9,16.1a17.2,17.2,0,0,0,7.7,5.9h.4a46.3,46.3,0,0,0,24.1,85.8,45.8,45.8,0,0,0,35-16.1,34.7,34.7,0,0,0,3-3.7l.3-.5h0l.5-.8a2.1,2.1,0,0,0,.4-.6,22,22,0,0,0,1.5-2.6h.1l.7-1.4.5-.9c.5-1.2,1-2.4,1.4-3.6l.2-.3.3-1.1a44.3,44.3,0,0,0,2.4-14.6A46.1,46.1,0,0,0,72.5,41.6ZM70.6,5.1c3.7-1.2,5.2,1.7,3.5,5.3a25.6,25.6,0,0,1-15.8,6.2A19.3,19.3,0,0,1,70.6,5.1ZM61.1,35.3V36a42.1,42.1,0,0,0-6.1-1.6,10,10,0,0,0-.8-1.4v-.2a20.9,20.9,0,0,1-2.1-5.6Zm-15-17.9a2.3,2.3,0,0,1,1.6-.6,2.6,2.6,0,0,1,1.5.7,2,2,0,0,1,.6,1.6,2.4,2.4,0,0,1-.7,1.6,1.8,1.8,0,0,1-1.6.5,1.9,1.9,0,0,1-1.5-.7,2.2,2.2,0,0,1-.6-1.5A2.4,2.4,0,0,1,46.1,17.4ZM21.8,8.5c-1.4-3.7.3-6.5,4-5.1A20.3,20.3,0,0,1,37.2,15.8,25.6,25.6,0,0,1,21.8,8.5ZM42.7,27A24.3,24.3,0,0,1,40,32.9h0a.1.1,0,0,0-.1.1h-.1l-.7,1a64.2,64.2,0,0,0-6.3,1.5v-.3l.6-.9ZM36,54.2H34.9l-.6.7-.3-.9-.9-.5.9-.5v-.8l.7.5.9-.2-.3,1Zm3.3,13.6H37.1L35.9,69l-.7-1.9-1.8-.8,1.7-1.1.2-1.8,1.6,1.2,1.9-.6-.6,2.2Zm10.5,3H48.6l-.7.8-.4-1.1L46.4,70l1-.6.2-1.1.9.7,1.1-.3-.4,1.2Zm1.3-1.1.2-.6a.3.3,0,0,0,.1.2c.9,1,2.3,1.1,4.4.5h-.1a3.9,3.9,0,0,0-.8,2,2.3,2.3,0,0,0,.7,1.8,3.2,3.2,0,0,0,.9.8l1.3.3a7.9,7.9,0,0,0,2.3-.4H60a3.6,3.6,0,0,0-.8,2l-7,1.7-4.6-3.7,1.9-1.9h3.4Zm2.3-2.2a1.6,1.6,0,0,1,.5-1,11.8,11.8,0,0,1,2.6-2.1A10.6,10.6,0,0,1,60,62.9a2.4,2.4,0,0,1,2.4.3,1.4,1.4,0,0,1,.1,1.3,5.3,5.3,0,0,1-1.2,1.7l-2.2,1.2c-3.1,1.2-4.9,1.5-5.6.8A.8.8,0,0,1,53.4,67.5ZM66.2,85.1,67.9,87h.4l7.2-3.7a8.4,8.4,0,0,1,3.2-.7,2.6,2.6,0,0,1,1.8.4c.4.6-.7,1.6-3.2,3.1l-2.7,1.5a4.9,4.9,0,0,0-1.3,1.2,3.8,3.8,0,0,0-.9,1.8l-5.7,1.2-5.1-4.1,1.1-1.5,3.1.2-1.6-2.7.2-.5.9.8a4.2,4.2,0,0,0,1.4.3h.4l-.8.4c-.1,0-.1.1-.1.2S66.2,85.1,66.2,85.1Zm2.5,14.6H66.3L65,101.1l-.8-2.2-2-.9,1.9-1.2.2-2.1,1.8,1.4,2.1-.6-.7,2.4Zm-11.1.3-2,.7-2.8-2.2-.4,3.7-2,1,3.5-10.5-2.4.5,2-2.4,7.3.7-.4,3.4-5.8,3.8Zm-4.4,3.6,1-.6.2-1.1.9.7,1.1-.3-.4,1.2.6,1H55.4l-.7.8-.4-1.1Zm.6,4.9-2.5-4,1.7.8Zm-7.1-2-3.6-.2-2,2.2L40,105.4,36.9,104l2.9-1.8.4-3.1,2.6,2,3.1-.9-1,3.6ZM43.6,95.4l-8.2-6.9-.3,3.1-.9-1.3,1.3-3.7-2,.3,2.6-3.4,4.8.4L38,85.8l8,3.3,1.3,5.4Zm-13.3.8,2.1-2.8,2.7.3-.2,5.6-1.4.7-1-1.6.9-2.8Zm-5.6-6.9,2.5-.7-.9-1-2.6.7-1.1-1.1L27.1,86l-1-.9-3.8,1,.7-2.4-1.3.4a12.8,12.8,0,0,1-.4,1.3l-.8-.8.5-2.1.6-2,1.1-.3-.3,1.3.9,1,.6-2.5,2.8,2.8,1.3-.3L25.5,80l5.1,2.3,1.2,5.2-3.2-2.6V89l-3.3,1.9h.1l.4-.4Zm-5-4.8c-.8-.9-1.7-1.7-2.6-2.6a1.1,1.1,0,0,0,.2-.8l3.6-.9L19,82Zm-8.1-6.8,2.6,2.6a1.1,1.1,0,0,0-.2.8l-3.6,1,1.9-1.9Zm6.8-3.2,1,1,1.3-.3-1.8-1.8,3.8-1,.2-1,1.8.8.5,1.6-.8.2-1.1,3.8-1.7-1.7-.4,1.3,1,.9-1.1.4-1.5-1.5-1.5-1.5Zm-.1-4.6c0-.1.2-.2.4-.2s.3.2.2.4-.2.3-.4.2S18.2,70.1,18.3,69.9Zm9.6,1.6h-1l-.6.7-.3-1-.9-.4.9-.5v-.9l.7.6.9-.2-.3,1Zm8.9,9.2H34.6l-1.2,1.3L32.7,80l-1.8-.8,1.7-1.1.2-1.8,1.6,1.2,1.9-.6-.6,2.2ZM30.2,69.9h0l-.3,1.7L29,70.3l.8-2.1,2.9,1.1.9,3.3ZM30,73.1l-.2,3.2-1,.7-1.6.4.7-2.6-1.3.4-.7,2.5-1.5.4,1-3.6.2.7,2-2.4ZM25.7,79l-.8.4-.2-.2Zm-7.6-.4,2.6.7-3.6,1-.3-.4a.1.1,0,0,0-.1-.1h-.2c.3-1.2.6-2.4,1-3.6Zm-2.5.8h-.8l-2.6-2.5,2.5.6,1.9-1.8C16.3,77,16,78.2,15.6,79.4ZM14.2,82l.3.3a.1.1,0,0,0,.1.1h.2l-.9,3.5-.7-2.5-2.6-.7Zm1.5.8h.8l2.6,2.6-2.5-.7-1.9,1.9C15,85.2,15.4,84,15.7,82.8Zm14.7,7.4V89.1l.9.7,1.1-.3-.3,1.3.6.9H31.5l-.7.8-.4-1.1-1-.5Zm1,9.4H30.2l-.6.7-.4-1-1-.5,1-.5v-1l.8.6,1-.3-.3,1.2Zm-.5,1.5H32l-2.2,1.3ZM46.7,85,49,83.6l.3-2.5,2.2,1.6L54,82l-.8,2.9,1.4,2.2H51.7l-1.6,1.8-.9-2.6Zm10.9-.3,2.1.9,1.1,3.9Zm2.7-.6.8-.5v-.8l.7.5.8-.2-.3.9.5.7H62l-.6.6-.3-.8Zm3.4-3-1.6.4-2.4-1.9-.3,3.1-2.1,1.1,2.2-5.9.3.4,1,.8a3.5,3.5,0,0,0,1.3.3,5,5,0,0,0,2.3-.3h.2A4,4,0,0,0,63.7,81.1ZM46.5,73.2l-1-.5-.3,8.4-3.1,2.1-3.2-4.8,2.2-5.9-4.7,1,2.2-2.8,5.9.5,1.6.5ZM33.3,57.3l-.8-.6-.3,3.9-1.6-2.1L32,54.7l.9.3Zm-1-5L30,53.7l1.5.8-3.4,1-2.2-2,2.3-3.1,4.2.3Zm-2.9,7.8H27.8l-.9,1-.4-1.4L25.1,59l1.3-.8V56.8l1.2.9,1.4-.4-.5,1.6ZM27.2,48.2l-1,1-.5-1.5L24.2,47l1.4-.8V45h.2l1.1.8,1.5-.5L28,47l.9,1.3Zm-6.2.1,2.9,1.1.6,2.1v5.3l-3.7,2.5L24.8,61l1.3,4.1,2.5-3.2,3.5.3v.9l-5.4,3.5,1.8,1.1-1.2.3-2.5-2-.3,3.1-2.5,1.7.7.4-4,1.1.4-1.5,2.5-.7.4-1.3-2.6.7.4-1.5-1.1-.3-.4,1.5-1.9-1.8L16,68.6l1.9,1.9L17.5,72l-3.3-3.2L13.9,70l2.8,2.8-2.4.7.9.9,1.3-.4-.3,1.2-2,.5-2,.6-.9-.8,1.4-.4.3-1.3-2.4.7,1-3.8-.9-1L9.5,74.2,8.4,73.1l.7-2.6-1-.9-.6,2.6-.8-.8A40.5,40.5,0,0,1,21,48.3ZM6.3,74.2l1.3-.3L8.7,75l-2.6.7A7.7,7.7,0,0,1,6.3,74.2Zm-.4,5.6A28.1,28.1,0,0,1,6,76.9l3-.8-.7,2.4,1.3-.3a11.9,11.9,0,0,1,.4-1.4l.8.8L9.7,81.7,8.6,82A11.1,11.1,0,0,1,9,80.7l-1-1-.6,2.5L5.9,80.7Zm0,2.6.7.6H6A1.7,1.7,0,0,0,5.9,82.4Zm.2,1.9.8-.2L6.3,86A11.1,11.1,0,0,0,6.1,84.3Zm24.8,30.4-2.3,1.5a41.1,41.1,0,0,1-21.9-28H7l1-3.8,1.8,1.7.3-1.2-1-1,1.1-.3,1.5,1.5,1.5,1.4-.3,1.2-1-1-1.2.3,1.7,1.8-3.8,1-.3,1.3,4.4-1.2-.4,1.5-2.5.7-.4,1.3,2.6-.7-.4,1.6h1.1l.4-1.5L15,94.8l.3-1.2-1.9-1.9.4-1.5,3.3,3.3.3-1.3-2.8-2.8,2.5-.7-1-.9-1.3.4.3-1.2,2-.5,2-.6.9.9-1.4.3-.3,1.3,2.4-.7-1,3.9.9.9L21.8,88l1.1,1.1-.7,2.6,1,.9.7-2.5L25,91.2l.2-.2,3.6,1.8.8,2.7L28,94.3l-.3,2.9-2.5,2,2.8,1.2.7,2.4L26,104.9l9.8,4.1,1,3.3-2.5.8-3-2.5Zm3.2,2.7-.8.8h0l-.4-1.2-1.1-.5,1-.7.2-1.1,1,.7,1.2-.3-.4,1.3.6,1.1Zm2.5-1.6.7-1.3,1.1,3.9Zm40.3-10.3h.9l-.8.9H76a.8.8,0,0,0-.7.8c-.1.3.1.5.4.6l-1,1.1c-.2,0-.3.1-.4.3a40.3,40.3,0,0,1-27.9,11.2,44,44,0,0,1-7.3-.7v-.5l6.4-8,10.4.8-1.8-3,2-3,3.6.3-1.9-3.2,1.1-2.7,2.6,1.3,1.8,7,4.8-5.6,6,.3c0,.1.1.2.1.3a.7.7,0,0,0,1,.3,26.1,26.1,0,0,1,2.8-1.7l1.2.3-2.6,1.6A.7.7,0,0,0,76.9,105.5Zm-3.3-5c0-.2.2-.3.4-.2s.3.2.3.4a.4.4,0,0,1-.5.2.1.1,0,0,1-.1-.1h-.1Zm.7,1.3.4-.3,1.3.3-1.2.8Zm2.5-.5c0-.2.2-.3.4-.3a.5.5,0,0,1,.3.4.5.5,0,0,1-.5.3A.3.3,0,0,1,76.8,101.3Zm3.3,1.1c-.1-.1-.1-.2-.1-.4a.3.3,0,0,1,.4-.2h.1Zm.9-1.5-.5-.8.8.4Zm-2.2-3.3c-.6-.4-1.3.4-.9,1l1.6,2.6-1.2-.3-1.7-2.7a.7.7,0,1,0-1.2.7l.9,1.5-1.2-.3a14,14,0,0,1-1-1.6c-.3-.3-.7-.5-1-.3a.7.7,0,0,0-.3,1l.3.5h-.2l-1.6-2.4,1.8-4.7.9.7a3.8,3.8,0,0,0,1.4.5,8.7,8.7,0,0,0,2.5-.3h.3l.3.3,1.8,1,.3,1.2L79,95a.7.7,0,0,0-.9.3.7.7,0,0,0,.3,1l2.8,1.5a5.6,5.6,0,0,0,.4,1.2Zm1.7-4.4a.4.4,0,0,1,.5.2c0,.2-.1.4-.3.4s-.3,0-.4-.2A.3.3,0,0,1,80.5,93.2ZM81.7,97l-.5-.2a.5.5,0,0,1,.3-.5c.2,0,.4.1.4.3S81.9,96.9,81.7,97Zm5.2-17.2a40.5,40.5,0,0,1-4.2,18.1l-.2-.5a25.4,25.4,0,0,0,1.6-2.8.8.8,0,0,0-.3-1,.7.7,0,0,0-1,.3L82,95.5a5.6,5.6,0,0,1-.4-1.2l.9-1.7a.8.8,0,0,0-.2-1,.7.7,0,0,0-.6-.1V91c0-.1-.1-.2-.1-.1l-1,.3h0a.8.8,0,0,0-.9-.5.7.7,0,0,0-.5.9h0l-1.9.4c-1.3.2-2.1.1-2.4-.2s-.2-.5.1-.8l1.6-1.2,4-2.1a5.6,5.6,0,0,0,1.6-1.4,2.3,2.3,0,0,0,.7-1.7,2.4,2.4,0,0,0-.7-1.8l-.7-.7-1-.5a3.9,3.9,0,0,0-1.5-.2l7.8-4Zm-1.1-4.9c-.1-.1-.2-.1-.4,0l-13,6.7a17.7,17.7,0,0,1-3.9.9,3.2,3.2,0,0,1-2.2-.4c-.2-.3-.2-.5.1-.9a7.9,7.9,0,0,1,1.9-1.5l6.1-3.4,1.2,1.3H76l1.1-.6.2-.2c0-.1,0-.1-.1-.2l-1.1-1.2,5.4-2.8v-.4l-1.7-1.8h-.3L74,73.3l-.8-.9h-.4l-1.2.7h-.1c0,.1,0,.1.1.2l.8.9a48.6,48.6,0,0,0-4.3,2.3,18.1,18.1,0,0,1-4.3,1.1c-1.2.2-1.9.2-2.1-.1s-.2-.5.1-.8A10.7,10.7,0,0,1,63.9,75l7-3.8h.2c0-.1,0-.2-.1-.2l-.2-.2h.4a2.7,2.7,0,0,0,1.4-.7,1.4,1.4,0,0,0,.6-1.1,1.4,1.4,0,0,0-.5-1.1,3.2,3.2,0,0,0-1.4-.3,3.5,3.5,0,0,0-1.4.6,2.1,2.1,0,0,0-.6,1h0c-.1-.2-.2-.2-.3-.1l-5.2,2.8A30.1,30.1,0,0,1,59.4,73c-1.1.2-1.8.2-2-.1s-.2-.5.1-.8a9.2,9.2,0,0,1,2-1.6L66,67c.1-.1.1-.1.1-.2s0-.1,0-.2l-1.7-1.8H64l-.4.3a2.6,2.6,0,0,0-.5-3,4.6,4.6,0,0,0-2.6-1.3,6.6,6.6,0,0,0-3.1.2,11.1,11.1,0,0,0-2.9,1.4,7.8,7.8,0,0,0-2.4,1.9,5.7,5.7,0,0,0-1.2,2.1l-2.2.7-2.8-2.6-.4,4-1.5.7-2.5-3.8,1.4-4,.9-.2,1.5-.3a6.8,6.8,0,0,0,1.7-.7,9.1,9.1,0,0,0,1.7-.8l1.9-.9,1.9-1.1,1.9-1.1.4-.2L57,58.4h.4l1.4-.8h.1v-.2L56.6,55l2.9-1.7,2.6-1a4.3,4.3,0,0,1,2.1-.4,2,2,0,0,1,1.5.6c.1.1.2,0,.2-.2a.9.9,0,0,0-.2-1.1A4.6,4.6,0,0,0,61.6,50c-1.9.2-4.3,1.2-7.3,2.8l-4.9,2.3A27.2,27.2,0,0,1,46,56.4l-2.3.3-1.4-.2a2.4,2.4,0,0,1-.9-.8.5.5,0,0,1-.2-.4V55c-.1-.1-.2-.1-.4,0l-.6.5a5.2,5.2,0,0,0-.8,2.4,3.5,3.5,0,0,0,.7,2.3l-2.8.7-3.4-3.2,1.8-2.1,3,.2-1.5-2.5.8-3.2-3.1.9-2.2-2.1-.2.8-1.9-3,1.5-4.8a39.9,39.9,0,0,1,14.3-2.6,38.2,38.2,0,0,1,6.8.6h-.9a10.5,10.5,0,0,0-3.6,1.5A11.8,11.8,0,0,0,46,43.8a7.3,7.3,0,0,0-1.7,4.4,4.8,4.8,0,0,0,1.1,3.7,4.2,4.2,0,0,0,3.7,1.3,5.3,5.3,0,0,0,3.4-1.7,1.6,1.6,0,0,0,.3-1.3q0-.6-.3-.3A3.6,3.6,0,0,1,50.3,51a2.9,2.9,0,0,1-2.5-.7,2.3,2.3,0,0,1-.5-1.8,4.5,4.5,0,0,1,1.1-2,10.8,10.8,0,0,1,3-2.6,15.3,15.3,0,0,1,3.9-1.4,9.5,9.5,0,0,1,4.1.2A8.4,8.4,0,0,1,63,44.9,21.7,21.7,0,0,1,66,49c1,1.5,1.8,2.9,2.5,4.2a13,13,0,0,0,2,2.9,2.8,2.8,0,0,0,1.2.8,2.8,2.8,0,0,0,1.3-.1l1.1-.6a2.3,2.3,0,0,0,.7-.7l.3-.5a.4.4,0,0,0-.1-.3c0-.1-.2-.1-.4-.1h-.8a1.8,1.8,0,0,1-.9-.7c-1.5-1.6-3.1-3.4-4.7-5.4s-2.8-3.4-3.4-4.1l-1.3-1.2A40.4,40.4,0,0,1,86.7,75.9Z"/></svg>