<svg xmlns="http://www.w3.org/2000/svg" viewBox="0 0 92.5 125.9"><defs><style>.cls-1{fill:#000001;}</style></defs><title>Lisa</title><g id="Layer_2" data-name="Layer 2"><g id="Layer_1-2" data-name="Layer 1"><path class="cls-1" d="M72.3,41.5l.8-.3h0a21.8,21.8,0,0,0,6.6-4.6c4.3-5.1-.8-10.8-.8-16.2s2.4-9.4.4-14.1c-1.2-3-4.1-4.4-7.4-4.5A13.8,13.8,0,0,0,64,3.9C61.9,5.2,51.7,15.6,51.5,15.6a2.5,2.5,0,0,0-1-1.6,2.3,2.3,0,0,0-1.6-.6H46a2.8,2.8,0,0,0-1.3.4c-.6.3-1.2.9-1.2,1.3A58.8,58.8,0,0,0,32.1,2.7,14.8,14.8,0,0,0,24.4,0C21-.1,18,1.1,16.6,4c-2.3,4.5-.3,9.5-.6,14.1s-5.9,10.7-2,16.1c2.2,2.5,4.5,4.8,7.7,5.8h.1l.3.2A46.4,46.4,0,0,0,0,79.7a45.9,45.9,0,0,0,8.5,26.7L9.7,108A46.2,46.2,0,1,0,72.3,41.5Zm7.6,31.6h2.3L84.6,75l-3-.3Zm1.5,5.1-2-2.3V73.6L81,75.2Zm-2-6.4V69.5l2-2.4L81,70.2Zm.5.5,1.7-1.6,3-.3-2.4,1.9Zm4.8-4.7H85c.2.7.3,1.3.5,2l-3.1.3,2.3-2.3Zm1,2.8a16.2,16.2,0,0,1,.4,1.9H83.4ZM70.4,4.9c3.8-1.2,5.2,1.8,3.6,5.4a25.9,25.9,0,0,1-15.9,6.2A20.2,20.2,0,0,1,70.4,4.9ZM60.9,35.2l.2.3a.4.4,0,0,0-.1.3,60.6,60.6,0,0,0-6.1-1.6c-.2-.4-.5-.9-.7-1.4h-.1A29.2,29.2,0,0,1,52,27.1ZM46,17.3a2.2,2.2,0,0,1,1.5-.6,2.4,2.4,0,0,1,1.6.7,2.3,2.3,0,0,1,.6,1.6,2.1,2.1,0,0,1-.7,1.5,2.5,2.5,0,0,1-1.6.6,2.6,2.6,0,0,1-1.6-.7,2.2,2.2,0,0,1-.5-1.6A1.8,1.8,0,0,1,46,17.3Zm.3,21.8A40.6,40.6,0,0,1,84.5,66.2h-.1a.8.8,0,0,0-.2.8l-2.3,2.3.3-3.3c0-.2-.1-.4-.2-.4h-.5l-2.1,2.6V65.1a.8.8,0,0,0,.5-.7.1.1,0,0,0-.1-.1h-.7l1.7-2.6c.1,0,0-.1,0-.2l-.8-.9c-.1-.1-.1-.1-.2,0a28.3,28.3,0,0,1-3.2,4.2c-1,1-1.6,1.6-2,1.5s-.5-.2-.5-.7a7.6,7.6,0,0,1,.7-2.7c.5-1.2,1.6-3.7,3.5-7.5v-.2H75.1a.5.5,0,0,0-.4.2c-.2.3-.2.5-.3.6a2.7,2.7,0,0,0-2.7-1.9,6.1,6.1,0,0,0-3.4,1,9.5,9.5,0,0,0-2.8,2.5,20.2,20.2,0,0,0-1.8,3.2c0,.1,0,.2-.1.2a17.4,17.4,0,0,1-3.8,4.4,22.6,22.6,0,0,0,.1-2.7,24.8,24.8,0,0,0-.2-2.9,11.7,11.7,0,0,1,.1-2.7,3.4,3.4,0,0,1,1-2,1.4,1.4,0,0,0-.6-1.1,2,2,0,0,0-1.4-.6,3.1,3.1,0,0,0-2.7,1.4c-1.4,2.3-2.5,4-3.5,5.4h-.1c-.4.7-.8,1.2-1.2,1.8a.9.9,0,0,0-.4.6l-1.6,1.9q-1.5,1.5-2.1,1.5c-.4,0-.6-.2-.6-.7a13,13,0,0,1,.8-2.9c.5-1.3,1.8-4,3.8-8.1v-.2h-1l.9-.6a3.5,3.5,0,0,0,.8-1.6,1.1,1.1,0,0,0-.3-1.3,1.4,1.4,0,0,0-1.3-.4,3.7,3.7,0,0,0-1.5.8,4,4,0,0,0-.9,1.5,1.4,1.4,0,0,0,.4,1.4H48a.5.5,0,0,0-.4.2q-2.9,6-3.6,7.8a11.1,11.1,0,0,0-.7,3.1v.2a.5.5,0,0,0-.2-.4l-.4-.2h-.5a2.5,2.5,0,0,1-1.3,2.1,6.5,6.5,0,0,1-4.1.8A35.9,35.9,0,0,1,28.7,66a25,25,0,0,0,2.7-3.8,37.1,37.1,0,0,0,2-3.8c.5-.9,1.2-2.4,2.1-4.4l.4-1a22.8,22.8,0,0,0,6-1.1,15.8,15.8,0,0,0,4.5-2.3,12.7,12.7,0,0,0,2.8-2.9,5.1,5.1,0,0,0,1-3,3.1,3.1,0,0,0-.8-2.4,5.2,5.2,0,0,0-2-1.4,6.6,6.6,0,0,0-2.3-.4,7.3,7.3,0,0,0-3.8.8,10.6,10.6,0,0,0-3.4,2.4A28,28,0,0,0,35,46.4,37.4,37.4,0,0,0,32.3,51a20,20,0,0,1-4.6-.8,10,10,0,0,1-3.1-1.7,6.2,6.2,0,0,1-1.5-1.9H23A40.6,40.6,0,0,1,46.3,39.1Zm32.4,26v3.3l-1.5-1.8,1.1-1.3.2-.3Zm-5.5-6.9A28.6,28.6,0,0,0,72,60.9c-2,3.2-3.5,4.8-4.7,4.7a.6.6,0,0,1-.6-.4,1.8,1.8,0,0,1-.3-1.1,9.4,9.4,0,0,1,.9-3.6,12.3,12.3,0,0,1,2.1-3.7c.9-1,1.7-1.6,2.5-1.5s.8.2,1.1.8A4.4,4.4,0,0,1,73.2,58.2Zm2.9,9.3.2,1.9L75,68.1h0Zm.5,3.2,1.6,1.6H75.9l-2.4-1.9Zm1.6,2.4-1.6,1.6-3.1.3,2.4-1.9Zm-1.1,2.1,1.6-1.6v2.3l-1.9,2.3Zm0-5-.3-3.1,1.9,2.4v2.3ZM38.2,82c-.6,3.5-.9,3.3-.9,3.3-2.1-1.4-4.5-2.6-4.9-1.4s-.5,1.2,2,2.6l2.5,1.2c-3.4,1.7-2.2,3-2.2,3s3.3-2.5,3.6-2.3l1.9.8-.6,2.2c.1,2.5.3,4.7.3,4.7a17.9,17.9,0,0,0-5.5,6.6l-4.2-7.1a.5.5,0,0,1,.5-.8h2.4c.5,0,.7-.3.5-.7l-5.3-8.9a.5.5,0,0,1,.5-.8h1.9c.5,0,.7-.3.5-.8L23,70h0a13,13,0,0,0,3.1-1.6l4.1,1.4a35.7,35.7,0,0,0,4,1.1l4.5.6a5.1,5.1,0,0,0,2.2-.5,4.4,4.4,0,0,0,1.6-1.4,8.9,8.9,0,0,0,.8-1.7,11,11,0,0,0,.2-1.8h0a2.4,2.4,0,0,0,.6.9,1.8,1.8,0,0,0,.7.5h0s-.7,1,.3,3.3,1.7,3.7,1.6,4.1c-4.8-.9-4.9.9-4.9.9-.1,1.8,3.6,1.1,3.5,1.6a9.2,9.2,0,0,0-3.7,4.9c2.5,2.8,2.5,2.8,1,3.3a7.2,7.2,0,0,0-1.7,2.1c-.1.1-.8-.4-1.8-1.1s-.3-.2,2.2-3.8ZM26.6,96.9a2.1,2.1,0,0,1-2.1-2.1,2,2,0,0,1,2.1-2,2.1,2.1,0,1,1,0,4.1Zm.9,2.5a1.1,1.1,0,0,1-1.2,1.1,1.1,1.1,0,0,1,0-2.2A1.1,1.1,0,0,1,27.5,99.4ZM22.6,86a2.1,2.1,0,0,1-2.1-2.1,2.1,2.1,0,0,1,2.1-2.1,2.1,2.1,0,0,1,2.2,2.1A2.2,2.2,0,0,1,22.6,86Zm1.3,19.1a1.1,1.1,0,0,1-1.2,1.1,1.1,1.1,0,0,1,0-2.2A1.1,1.1,0,0,1,23.9,105.1ZM19.1,68.5c-1,0-1.4-.4-1.4-1.1a1,1,0,0,1,.5-.8,2.1,2.1,0,0,1,1.2-.3,19.7,19.7,0,0,1,3.5.8A5.8,5.8,0,0,1,19.1,68.5Zm4.5,8a1.1,1.1,0,0,1-1.2,1.1,1.1,1.1,0,0,1,0-2.2A1.1,1.1,0,0,1,23.6,76.5Zm2.9,11.3a1.1,1.1,0,0,1,1.1,1.1,1.2,1.2,0,0,1-1.1,1.2,1.2,1.2,0,0,1-1.2-1.2A1.1,1.1,0,0,1,26.5,87.8Zm-.6-6.6a1.2,1.2,0,1,1,2.4,0,1.2,1.2,0,0,1-2.4,0Zm4.2,20.5a2.1,2.1,0,0,1,2.2,2.1,2.2,2.2,0,0,1-2.2,2.1,2.1,2.1,0,0,1-2.1-2.1A2.1,2.1,0,0,1,30.1,101.7ZM52.6,62.5l3.6-5v1.6c0,.6.1,1.1.1,1.6v1.5a5.3,5.3,0,0,1-.1,1.3l-.3,1.1a1.3,1.3,0,0,1-.6.7l-.4.2H54a1.6,1.6,0,0,1-1.1-.9h0a1.4,1.4,0,0,1-.2-.6A3.8,3.8,0,0,1,52.6,62.5ZM49.6,78a1.1,1.1,0,0,1,1.1,1.1,1.8,1.8,0,0,1-.6,1H48.9a1.5,1.5,0,0,1-.5-1A1.1,1.1,0,0,1,49.6,78Zm-.5,4.5a3,3,0,0,0,2.7,2,6,6,0,0,0,2.3-.5c.6-1.2.6-1.2,1-1.4a1.6,1.6,0,0,1,.8.3,3.9,3.9,0,0,1-4.1,2.6h-2a6.7,6.7,0,0,1-1.8-3A.9.9,0,0,1,49.1,82.5Zm6.4-2.1H54.3a1.7,1.7,0,0,1-.5-1.1,1.2,1.2,0,0,1,1.2-1,1,1,0,0,1,1.1,1.1A1.3,1.3,0,0,1,55.5,80.4ZM51.1,65.2a3,3,0,0,0,.6,1.7l-2.5-.3A15.1,15.1,0,0,0,51,64.8c0,.1.1.2.1.4Zm6.3,35.7v.2h-.2l-.9.5h0l.2.2h.8v.6h-.1l-.5.3h-.6l-1-.5-.2-.2H53.8l-.7.3-.3.2H53l.3.2.3.2.3.2H55l.5-.2h1l.2.2v.9h-.9l.4.2.4.3h.4v.8h-.2l-.4.2H56l-.4-.2-.3-.3h-.5v.9h0l-.5.3h-.5l-.3-.2h-.1v-1.9h-.5l-.4-.2-.3-.3h-.7v2.5h.4l.2.2.4.4.3.2.2.2H53l-.2.6h-.9v-.2l-.3-.2-.2-.2h-.2v1H49.6v-1.1h-.2l-.3.2H49l-.2.2h-.5l-.2-.2h-.2V109H48l.2-.2h.2l.3-.2.5-.3.2-.2h.4V105h-.1l-.3.2h-.4l-.3.2-.5.2h-.5v2.1h-1L46,108h0v-.9h-.5l-.4.2-.4.2h-.3l-.5-.3H44v-.6h.5l.4-.2.4-.2h0l-.3-.2h-.5V104l.3-.2h.4l.2.2h.3l.5.2.3.2h1l.5-.3.5-.3h.6l-.2-.2h-.2l-.3-.2h-.6l-.4-.3-.3-.2H46.1l-.6.2h-.9l-.2-.2-.2-.3v-.5h.9l-.3-.2-.3-.2h-.3v-.6h.2l.4-.2h.3l.6.4h.4v-.9h0l.4-.3h1v2.1h.1v.2h.3l.2.2.6.4.3.2.3.2h.4v-2.1H50l-.2-.2-.9-.8h-.2v-.2h-.1v-.7h.9l.2.2.3.2h.2V96.8h0v-.2h1l.5.3h0v1.5h.4l.3-.2.2-.2h.4l.3.2h.1v.6H53l-.7.5-.3.2h-.4v2h.8l.6-.4h.6l.2-.2H54v-.8l.2-.6V99h.9l.2.2.2.2h.1v.9h.2l.7-.3h.3l.2.2h.3v.2h0v.5Zm-20.5-50,1.5-3.1a16.5,16.5,0,0,1,1.5-2.5,10.4,10.4,0,0,1,1.6-2.2,10.9,10.9,0,0,1,1.7-1.3,4.8,4.8,0,0,1,2-.4,1.2,1.2,0,0,1,1,.4,1.7,1.7,0,0,1,.3,1,4.6,4.6,0,0,1-.7,2.3A9.4,9.4,0,0,1,44,47.5a12.9,12.9,0,0,1-3,2.1A16.4,16.4,0,0,1,36.9,50.9Zm2.9-18.2h0c0,.1-.1.1-.1.2l-.8,1a42.9,42.9,0,0,0-6.2,1.4v-.2l.6-.9,9.4-7.4A23.9,23.9,0,0,1,39.8,32.7ZM21.7,8.3c-1.4-3.7.3-6.5,3.9-5A19.5,19.5,0,0,1,37,15.7,24.9,24.9,0,0,1,21.7,8.3ZM5.7,79.7A40.7,40.7,0,0,1,20,48.8a7.6,7.6,0,0,0,2.5,2,23.6,23.6,0,0,0,8.8,2.1l-.4.9-.8,1.6-.8,1.7a11.6,11.6,0,0,0-.7,1.5,15.5,15.5,0,0,1-.8,1.5l-.7,1.3-.8,1.4-.7,1.1L24.8,65a29.8,29.8,0,0,0-4.9-.7,4.2,4.2,0,0,0-3.3.9,2.8,2.8,0,0,0-1.1,2.2,2.6,2.6,0,0,0,1,2.1,3.7,3.7,0,0,0,2.7.9,12.7,12.7,0,0,0,2.8-.3L14,83.6c-.3.5-.1.8.4.8h1.9c.6,0,.8.4.5.8l-5.3,8.9c-.2.4,0,.7.5.7h2.4a.5.5,0,0,1,.5.8l-3.1,5.3A39.5,39.5,0,0,1,5.7,79.7Zm6.9,22.5,1-.2a2.1,2.1,0,0,1,1.5,3.6C14.2,104.5,13.4,103.4,12.6,102.2Zm4.1-3.5a1.1,1.1,0,0,1,1.2-1.1,1.1,1.1,0,0,1,0,2.2A1.1,1.1,0,0,1,16.7,98.7Zm1.6-4.6A2.1,2.1,0,0,1,16.2,92a2,2,0,0,1,2.1-2,2.1,2.1,0,1,1,0,4.1Zm-.7-11a1.1,1.1,0,0,1,0-2.2,1.1,1.1,0,1,1,0,2.2Zm9.7,32.4v-6.8H17.9l-.6-.7H33.5c.4,5.2,4.8,9.7,9.6,12.1A40.2,40.2,0,0,1,27.3,115.5ZM74.2,109c-12.3-11.6-12.3-11.7-12-13s.3-2.7.3-2.7a15.6,15.6,0,0,1,3.4-1.7s.4-.2,4.4,2.7l1.2-3.2c-3.9-.3-3.6-.5-3.6-.5,1.9-1,3.5-2.1,2.7-2.8s-.9-.9-3.2.1l-2.1,1.2c-.4-3.4-2-3-2-3-1.6.5,1,3.5.8,3.6l-1.7,1A12.4,12.4,0,0,0,62,89a11.9,11.9,0,0,0-2.6-3.1c2.3-2.8,2.2-5.4-.1-7.7,0,0,0-.6,3.3.5.1-1.8.1-1.8.1-3.7-4.6.5-4.7,0-4.7,0,1.8-3.4,3-5.5,2.6-6.6a2.1,2.1,0,0,0-1.2-.9L61,66.4a13.7,13.7,0,0,0,2-2.1,4.5,4.5,0,0,0,.8,2.6,2.9,2.9,0,0,0,2.4,1.2q2.3,0,4.5-3h0a2.6,2.6,0,0,0,.8,2.1,2.5,2.5,0,0,0,2,.9h.6l1.7,1.7-3.4-.4a.3.3,0,0,0-.3.3h0c-.1.2-.1.3.1.4l2.6,2.1H71.5a1,1,0,0,0-.7-.4.8.8,0,0,0,0,1.6,1,1,0,0,0,.7-.4h3.3l-2.6,2.1c-.2.1-.2.2-.1.4h0c0,.2.2.3.3.2l3.4-.3-2.4,2.3h0a.9.9,0,0,0-.8.2.8.8,0,0,0,0,1.1.9.9,0,0,0,1.2,0,.8.8,0,0,0,.1-.8L76.3,76l-.4,3.3c0,.2.1.3.3.4h0c.1.1.3,0,.4-.1L78.7,77v3.3a.8.8,0,0,0-.4.7.8.8,0,0,0,.8.8.9.9,0,0,0,.8-.8.8.8,0,0,0-.5-.7V77l2.1,2.6a.4.4,0,0,0,.5.1h0a.5.5,0,0,0,.2-.4L81.9,76l2.3,2.3h0a.8.8,0,1,0,.5-.5h0l-2.3-2.3,3.3.3c.2.1.3,0,.4-.2h0c0-.2,0-.3-.1-.4l-2.6-2.1h2.9a46.5,46.5,0,0,1,.5,6.6A40.2,40.2,0,0,1,74.2,109Z"/></g></g></svg>