<?xml version="1.0" encoding="UTF-8" standalone="no"?>
<!DOCTYPE svg PUBLIC "-//W3C//DTD SVG 1.1//EN" "http://www.w3.org/Graphics/SVG/1.1/DTD/svg11.dtd">
<svg width="100%" height="100%" viewBox="0 0 1123 794" version="1.1" xmlns="http://www.w3.org/2000/svg" xmlns:xlink="http://www.w3.org/1999/xlink" xml:space="preserve" xmlns:serif="http://www.serif.com/" style="fill-rule:evenodd;clip-rule:evenodd;stroke-linejoin:round;stroke-miterlimit:2;">
    <g transform="matrix(1.86809,0,0,1.86809,0,0)">
        <path d="M110.676,63.447C111.288,63.249 111.716,63.111 111.915,63.049L111.946,63.049C115.589,61.458 119.292,58.795 122.002,56.04C128.522,48.188 120.777,39.525 120.792,31.26C120.823,24.265 124.481,16.78 121.405,9.709C119.568,5.026 115.13,2.944 110.048,2.699C105.579,2.592 101.156,3.847 97.956,5.944C94.773,8.026 79.13,23.852 78.855,23.852C78.656,22.872 78.121,22.015 77.371,21.418C76.666,20.882 75.81,20.561 74.86,20.561L70.391,20.561C69.656,20.561 68.968,20.745 68.386,21.097C67.468,21.617 66.626,22.566 66.626,23.102C61.621,16.26 55.59,9.097 49.132,4.138C46.101,1.827 41.769,0.235 37.3,0.006C32.219,-0.117 27.627,1.612 25.469,6.143C21.872,12.985 24.964,20.714 24.458,27.693C23.893,35.928 15.52,44.009 21.443,52.32C24.765,56.208 28.377,59.651 33.29,61.274L33.305,61.274C33.458,61.366 33.642,61.443 33.872,61.534C13.561,73.993 0,96.385 0,121.945C0,161.068 31.698,192.765 70.82,192.765C92.232,192.765 111.441,183.26 124.435,168.215C126.027,166.362 127.527,164.435 128.92,162.414C129.088,162.199 129.241,161.985 129.379,161.756L129.379,161.74C129.67,161.327 129.945,160.93 130.206,160.501C130.42,160.21 130.603,159.903 130.803,159.598C131.629,158.297 132.41,156.949 133.144,155.588C133.16,155.557 133.175,155.511 133.206,155.481C133.588,154.746 133.986,153.996 134.353,153.246C134.583,152.787 134.797,152.327 135.012,151.853C135.838,150.093 136.588,148.302 137.262,146.466C137.338,146.281 137.399,146.098 137.46,145.914C137.66,145.379 137.858,144.828 138.042,144.262C140.369,137.251 141.624,129.751 141.624,121.945C141.624,97.64 129.349,76.197 110.676,63.447ZM57.06,182.464L59.325,182.587L69.442,170.052L85.36,171.184L82.62,166.608L85.574,162.031L91.1,162.49L88.207,157.593L89.936,153.46L93.854,155.373L96.686,166.164L103.941,157.516L113.216,158.052C113.231,158.235 113.293,158.419 113.4,158.572C113.752,159.077 114.425,159.215 114.946,158.894C116.323,158.052 117.701,157.194 119.094,156.338C119.721,156.49 120.349,156.628 120.976,156.781C119.629,157.608 118.298,158.449 116.951,159.277C116.017,159.858 116.446,161.297 117.548,161.266C117.977,161.251 118.39,161.251 118.818,161.235C118.42,161.71 118.022,162.185 117.609,162.644C117.104,162.658 116.583,162.674 116.063,162.69C115.466,162.705 114.977,163.194 114.961,163.791C114.946,164.266 115.237,164.664 115.635,164.832C115.114,165.368 114.594,165.889 114.074,166.394C113.844,166.5 113.645,166.684 113.538,166.914C102.411,177.505 87.35,184.01 70.82,184.01C66.09,184.01 61.483,183.475 57.06,182.464ZM58.605,181.071L55.759,177.092L56.937,174.995L58.605,181.071ZM50.739,180.674L50.142,178.913L48.381,178.103L50.05,177.077L50.248,175.301L51.764,176.449L53.601,175.929L52.988,177.995L54.029,179.557L51.978,179.465L50.815,180.704C50.785,180.689 50.754,180.689 50.739,180.674ZM40.905,140.332L41.334,141.502C41.342,141.525 41.35,141.548 41.357,141.571C41.856,143.226 40.935,145.033 39.3,145.605C39.3,145.605 39.3,145.605 39.3,145.605C38.297,145.956 37.26,145.779 36.474,145.22C36.565,146.181 36.201,147.169 35.397,147.864C34.786,148.393 34.021,148.656 33.259,148.656C32.382,148.656 31.51,148.308 30.877,147.632C30.86,147.614 30.844,147.596 30.829,147.577C30.829,147.577 29.372,145.826 29.372,145.826C29.372,145.826 29.372,149.684 29.372,149.684C29.372,151.409 27.941,152.832 26.147,152.832C24.352,152.832 22.921,151.409 22.921,149.684C22.921,149.684 22.921,145.826 22.921,145.826L21.464,147.577C21.449,147.596 21.433,147.614 21.416,147.632C20.233,148.895 18.21,149.001 16.896,147.865C16.896,147.864 16.896,147.864 16.896,147.864C16.092,147.169 15.728,146.181 15.819,145.22C15.163,145.686 14.333,145.886 13.493,145.736C19.295,159.664 30.033,171.05 43.514,177.674L47.065,175.378L47.693,169.087L52.269,172.944L56.157,171.735L54.642,166.577L39.565,160.302L43.683,157.103L42.565,153.522L38.31,151.547L42.244,148.593L42.672,144.123L45.045,146.022L43.912,141.843L40.905,140.332ZM56.31,158.894L60.703,156.185L61.238,151.485L65.279,154.547L70.1,153.154L68.508,158.618L71.248,162.75L65.799,162.49L62.631,165.903L60.978,161.036L56.31,158.894ZM82.084,165.873L78.273,159.797L80.86,160.976L82.084,165.873ZM81.258,158.343L82.789,157.409L82.972,155.772L84.38,156.843L86.049,156.353L85.497,158.251L86.447,159.69L84.564,159.598L83.462,160.791L82.88,159.093L81.258,158.343ZM87.993,152.879L84.932,153.95L80.63,150.491L80.034,156.139L76.988,157.699L82.207,141.705L78.641,142.425L81.733,138.782L92.829,139.792L92.217,144.965L83.386,150.797L87.993,152.879ZM116.063,155.618C115.466,155.985 114.854,156.368 114.242,156.751L113.492,155.588C113.721,155.45 113.951,155.312 114.181,155.159C114.808,155.312 115.435,155.465 116.063,155.618ZM47.004,154.501L48.81,154.609L45.412,156.598L47.004,154.501ZM57.493,78.259L56.723,81.417L59.08,85.212L54.351,84.952L51.611,88.028L56.815,92.972L66.549,90.446L63.259,99.737L67.192,105.523L69.35,104.436L70.085,98.39L74.279,102.278L79.896,100.701L77.982,106.426L80.722,111.094L75.534,110.834L72.687,113.757L79.62,119.482L91.956,116.42L87.441,128.037L90.763,126.293L91.1,121.61L94.85,124.594L99.809,123.216L98.063,127.869L100.559,132.094L95.783,131.741L94.023,133.961L101.875,140.313L112.834,137.955L108.946,148.609L111.333,152.267C111.441,152.297 111.548,152.327 111.655,152.343C111.502,152.098 111.349,151.853 111.211,151.609C110.89,151.088 111.058,150.414 111.609,150.123C112.129,149.833 112.803,150.017 113.124,150.522C113.645,151.378 114.165,152.221 114.67,153.063C115.313,153.215 115.941,153.368 116.568,153.522C116.079,152.726 115.604,151.944 115.13,151.164C114.808,150.628 114.977,149.955 115.527,149.664C116.048,149.389 116.721,149.557 117.043,150.077C117.885,151.455 118.742,152.848 119.583,154.24C120.211,154.379 120.854,154.531 121.481,154.685L119.002,150.644C118.435,149.71 119.461,148.609 120.44,149.129L124.604,151.378C124.42,150.751 124.236,150.139 124.053,149.511C122.614,148.746 121.19,147.966 119.752,147.2C119.231,146.925 119.002,146.251 119.262,145.716C119.522,145.15 120.18,144.935 120.731,145.226C121.543,145.67 122.354,146.098 123.165,146.542C122.981,145.914 122.798,145.302 122.614,144.675C121.727,144.2 120.854,143.741 119.981,143.267C119.461,142.976 119.247,142.318 119.492,141.782C119.752,141.216 120.41,141.001 120.961,141.292C121.206,141.43 121.466,141.568 121.727,141.705C121.527,141.078 121.344,140.45 121.16,139.808C121.129,139.703 121.113,139.596 121.113,139.49C120.09,139.746 119.236,139.856 118.555,139.833C117.647,139.802 116.969,139.641 116.511,139.4C116.072,139.169 115.575,138.774 115.036,138.197C114.307,137.417 113.976,136.384 114.106,135.078C114.154,134.6 114.256,134.141 114.411,133.702C112.262,134.009 110.696,133.554 109.697,132.485C108.741,131.463 108.363,130.23 108.579,128.78C108.652,128.287 108.789,127.79 108.991,127.29C108.186,127.452 107.504,127.511 106.948,127.475C106.052,127.418 105.383,127.249 104.931,127.011C104.486,126.777 104.018,126.41 103.537,125.896C102.793,125.099 102.434,124.105 102.488,122.903C102.509,122.435 102.591,121.983 102.736,121.548C100.739,121.789 99.269,121.329 98.308,120.302C97.353,119.279 96.974,118.046 97.19,116.597C97.261,116.118 97.392,115.636 97.584,115.151C96.841,115.303 96.201,115.366 95.668,115.348C94.76,115.317 94.082,115.156 93.624,114.915C93.185,114.684 92.688,114.289 92.149,113.712C91.42,112.932 91.088,111.899 91.219,110.593C91.263,110.155 91.352,109.732 91.487,109.326C90.943,109.406 90.466,109.431 90.056,109.404C89.16,109.347 88.491,109.179 88.039,108.941C87.594,108.707 87.126,108.339 86.646,107.825C85.901,107.028 85.543,106.034 85.597,104.832C85.618,104.365 85.7,103.913 85.844,103.477C83.848,103.718 82.377,103.258 81.417,102.231C80.461,101.208 80.083,99.975 80.299,98.526C80.379,97.986 80.535,97.442 80.769,96.895C80.311,96.963 79.892,97 79.511,97.006C77.75,97.034 76.207,96.543 74.886,95.546C74.296,95.203 73.688,94.704 73.069,94.042C72.236,93.15 71.773,92.058 71.693,90.759C71.64,89.884 71.718,89.05 71.926,88.259C70.491,88.51 69.154,88.61 67.915,88.56C64.836,88.435 62.267,87.268 60.206,85.063C58.411,83.143 57.503,80.876 57.493,78.259ZM104.997,152.359L101.324,152.19L99.196,154.471L98.079,151.21L94.941,149.756L97.895,147.935L98.263,144.781L100.972,146.833L104.217,145.9L103.145,149.572L104.997,152.359ZM47.815,152.297L46.07,152.205L45.045,153.307L44.509,151.746L43.009,151.057L44.433,150.185L44.601,148.669L45.887,149.649L47.448,149.205L46.928,150.965L47.815,152.297ZM46.101,147.031L49.392,142.792L53.555,143.129L53.126,151.746L51.09,152.909L49.468,150.414L50.892,146.159L46.101,147.031ZM132.566,127.964C127.314,130.702 124.004,132.453 122.635,133.219C120.863,134.211 119.66,135.055 119.052,135.787L119.043,135.799C119.12,135.83 119.211,135.848 119.313,135.863C119.649,135.914 120.066,135.89 120.566,135.808C121.751,135.612 123.527,135.094 125.896,134.263C125.899,134.262 125.903,134.261 125.906,134.259C126.252,134.143 126.523,134.216 126.724,134.334C126.953,134.469 127.224,134.736 127.205,135.272L127.098,136.707C127.097,136.756 127.091,136.806 127.081,136.854C126.988,137.304 126.729,137.581 126.358,137.712C125.118,138.192 124.028,138.588 123.089,138.9C123.148,138.99 123.194,139.089 123.226,139.195C123.41,139.822 123.609,140.45 123.792,141.078C123.931,140.833 124.068,140.572 124.206,140.328C124.497,139.776 125.17,139.609 125.69,139.93C126.211,140.236 126.379,140.909 126.103,141.445L124.68,144.063L124.99,145.105C125.07,145.376 125.151,145.646 125.231,145.914C125.675,145.104 126.119,144.308 126.547,143.496C126.853,142.945 127.512,142.776 128.048,143.098C128.553,143.404 128.736,144.078 128.445,144.613C127.665,146.037 126.9,147.46 126.119,148.899C126.195,149.144 126.272,149.389 126.333,149.634C129.661,143.003 131.824,135.693 132.566,127.964ZM66.564,145.838L54.014,135.186L53.555,139.914L52.162,138.047L54.091,132.354L51.029,132.736L55.009,127.517L62.432,128.191L58.009,131.129L70.131,136.088L72.105,144.368L66.564,145.838ZM17.102,142.996L18.331,135.391C18.331,135.391 22.921,132.884 22.921,132.884C22.921,132.884 23.174,137.917 23.174,137.917L17.102,142.996ZM35.191,142.995L28.971,138.467C28.971,138.467 29.372,132.884 29.372,132.884C29.372,132.884 34.364,135.925 34.364,135.925L35.191,142.995ZM11.312,139.605L11.746,139.354L11.466,140.117C11.414,139.946 11.362,139.775 11.312,139.605ZM48.385,137.122C48.78,138.021 48.758,139.103 48.222,140.044L49.943,140.113L48.994,138.691L49.545,136.792L48.385,137.122ZM87.947,129.369L91.207,130.854L92.89,136.777L87.947,129.369ZM71.248,129.936L74.845,127.746L75.273,123.92L78.549,126.415L82.482,125.282L81.182,129.721L83.416,133.088L78.977,132.874L76.406,135.645L75.059,131.695L71.248,129.936ZM48.041,131.991C47.844,132.284 47.6,132.545 47.32,132.762L48.443,133.685L48.041,131.991ZM92.125,128.482L93.273,127.777L93.411,126.553L94.467,127.349L95.722,126.996L95.309,128.42L96.013,129.491L94.604,129.43L93.778,130.318L93.334,129.048L92.125,128.482ZM9.008,126.915L15.426,124.435C15.426,124.435 20.368,127.285 20.368,127.285C20.368,127.285 15.582,130.318 15.582,130.318L9.068,127.695C9.046,127.435 9.026,127.176 9.008,126.915ZM113.667,129.839C113.666,129.807 113.666,129.719 113.676,129.66C113.724,129.392 113.885,129.122 114.126,128.833C114.845,127.967 115.896,127.122 117.268,126.285C118.651,125.44 120.023,124.858 121.387,124.543C121.989,124.404 122.498,124.352 122.916,124.409C123.191,124.445 123.415,124.527 123.57,124.692C123.726,124.86 123.638,125.108 123.524,125.433C123.318,126.018 122.894,126.617 122.275,127.248L122.273,127.249C121.428,127.688 120.709,128.084 120.116,128.438C118.33,129.166 116.797,129.652 115.517,129.887C114.952,129.991 114.484,130.028 114.109,129.982C113.922,129.958 113.767,129.929 113.667,129.839ZM44.243,127.285L37.054,129.904C37.054,129.904 31.925,127.285 31.925,127.285C31.925,127.285 37.184,124.569 37.184,124.569L44.243,127.285ZM46.91,127.231C46.873,127.25 46.835,127.268 46.797,127.285C46.845,127.308 46.893,127.331 46.94,127.356L46.91,127.231ZM70.881,111.814L69.427,111.11L68.891,123.966L64.192,127.104L59.325,119.711L62.662,110.711L55.56,112.227L58.835,108.032L67.896,108.706L70.284,109.533L70.881,111.814ZM56.034,123.262L52.774,123.11L50.876,125.145L49.881,122.236L47.081,120.95L49.713,119.328L50.035,116.512L52.453,118.349L55.346,117.507L54.396,120.782L56.034,123.262ZM93.586,64.238C93.894,65.06 94.008,66.002 93.911,67.069C93.803,68.246 93.349,69.326 92.536,70.303C91.671,71.345 90.51,72.061 89.046,72.436C87.663,72.791 86.151,72.83 84.512,72.544C82.918,72.265 81.2,71.602 79.362,70.54C77.556,69.496 75.853,68.121 74.257,66.414C74.154,66.303 74.045,66.182 73.931,66.051C71.204,67.429 68.91,69.234 67.053,71.468C65.264,73.621 64.221,75.661 63.968,77.612C63.736,79.394 64.051,80.803 65,81.818C66.23,83.134 67.926,83.87 70.071,84.067C71.564,84.203 73.192,84.075 74.955,83.687C75.273,83.526 75.577,83.46 75.858,83.469C76.506,83.3 77.171,83.097 77.853,82.861C77.855,82.86 77.858,82.859 77.86,82.859C77.944,82.83 78.024,82.813 78.099,82.805C79.773,82.239 81.924,81.45 84.551,80.438C86.1,79.837 87.415,80.132 88.502,81.295C89.049,81.88 89.343,82.608 89.364,83.488C89.386,84.395 89.158,85.071 88.769,85.539C88.618,85.721 88.399,85.835 88.163,85.854C87.623,85.898 87.075,86.233 86.481,86.789C85.756,87.466 85.105,88.241 84.524,89.114C83.894,90.063 83.19,91.037 82.413,92.035C82.17,92.348 81.931,92.644 81.694,92.925C82.751,92.749 83.952,92.427 85.296,91.962C85.343,91.933 85.39,91.904 85.437,91.875C86.721,91.096 88.053,90.499 89.434,90.083C90.875,89.649 92.316,89.549 93.755,89.78C95.272,90.023 96.502,90.662 97.454,91.681C98.381,92.672 98.793,93.748 98.692,94.908C98.853,94.978 99.004,95.09 99.148,95.244C99.148,95.244 101.338,97.587 101.338,97.587C101.596,97.863 101.702,98.203 101.598,98.622C101.522,98.929 101.352,99.174 101.083,99.353C101.056,99.371 101.028,99.387 101,99.402C96.789,101.585 94.064,103.061 92.825,103.831C91.814,104.459 91.066,105.014 90.594,105.511C90.97,105.51 91.528,105.488 92.079,105.398C93.434,105.177 95.113,104.707 97.117,103.992C99.27,102.785 104.654,99.946 113.268,95.474C113.542,95.325 113.798,95.284 114.025,95.304C114.312,95.33 114.578,95.449 114.806,95.694C114.806,95.694 116.997,98.037 116.997,98.037C117.253,98.311 117.377,98.672 117.227,99.143C117.104,99.531 116.878,99.741 116.655,99.854C107.282,104.712 101.647,107.672 99.748,108.734C97.977,109.726 96.775,110.569 96.167,111.3C96.237,111.324 96.318,111.34 96.406,111.353C96.745,111.407 97.167,111.385 97.673,111.307C98.728,111.143 100.234,110.714 102.194,110.029C102.239,110.001 102.284,109.974 102.329,109.946C103.612,109.167 104.945,108.57 106.325,108.154C107.767,107.72 109.208,107.62 110.647,107.851C112.164,108.094 113.394,108.733 114.346,109.751C114.375,109.783 114.404,109.814 114.433,109.846L122.309,105.867L124.904,111.09L116.254,113.544L118.229,115.657C118.488,115.934 118.594,116.274 118.49,116.692C118.414,117 118.243,117.244 117.975,117.424C117.948,117.442 117.92,117.458 117.891,117.473C113.681,119.656 110.956,121.131 109.717,121.901C108.705,122.53 107.957,123.085 107.486,123.582C107.862,123.58 108.42,123.559 108.971,123.469C110.229,123.264 111.766,122.844 113.583,122.212C113.628,122.185 113.673,122.157 113.718,122.13C115.001,121.35 116.334,120.753 117.714,120.338C119.156,119.904 120.596,119.804 122.036,120.034C123.553,120.277 124.783,120.917 125.735,121.935C126.551,122.809 126.966,123.747 126.979,124.75C128.403,124.008 130.36,122.994 132.852,121.707C132.746,95.627 116.486,73.303 93.586,64.238ZM17.102,111.575L23.444,116.299C23.444,116.299 22.921,121.687 22.921,121.687C22.921,121.687 17.934,119.332 17.934,119.332L17.102,111.575ZM35.191,111.575L33.9,119.1C33.9,119.1 29.372,121.686 29.372,121.686C29.372,121.686 29.4,116.5 29.4,116.5L35.191,111.575ZM102.279,117.655C102.278,117.622 102.277,117.535 102.288,117.476C102.335,117.208 102.496,116.938 102.737,116.649C103.456,115.783 104.507,114.938 105.879,114.101C107.262,113.257 108.634,112.674 109.998,112.359C110.6,112.221 111.109,112.169 111.527,112.225C111.802,112.262 112.026,112.343 112.181,112.509C112.229,112.56 112.233,112.631 112.232,112.712C112.23,112.856 112.193,113.017 112.133,113.196C111.946,113.755 111.56,114.327 110.995,114.926L110.994,114.928C109.903,115.5 108.984,116.014 108.236,116.47C106.083,117.32 104.437,117.785 103.293,117.833C102.826,117.853 102.476,117.844 102.279,117.655ZM35.525,106.823L37.055,105.553L37.545,100.763L41.341,103.87L43.315,103.364L40.515,101.742L48.826,96.309L48.917,94.931L43.56,94.503L39.78,99.492L37.713,93.079L31.499,90.477L37.132,86.758L37.239,78.615L36.321,75.386L31.867,73.687C20.954,82.503 13.086,94.931 10.102,109.135C9.812,110.72 9.572,112.292 9.383,113.849L11.746,115.217L10.959,113.069C10.95,113.046 10.943,113.023 10.936,112.999C10.437,111.344 11.357,109.538 12.993,108.966C13.996,108.615 15.033,108.792 15.819,109.351C15.728,108.39 16.092,107.401 16.896,106.706C18.21,105.57 20.233,105.676 21.416,106.938C21.433,106.956 21.449,106.975 21.464,106.993C21.464,106.993 22.921,108.745 22.921,108.745C22.921,108.745 22.921,104.887 22.921,104.887C22.921,103.162 24.352,101.738 26.147,101.738C27.941,101.738 29.372,103.162 29.372,104.887C29.372,104.887 29.372,108.745 29.372,108.745L30.829,106.993C30.844,106.975 30.86,106.956 30.877,106.938C32.06,105.676 34.083,105.57 35.397,106.706C35.441,106.744 35.484,106.783 35.525,106.823ZM41.477,111.763C41.517,112.17 41.481,112.589 41.357,112.999C41.35,113.023 41.343,113.046 41.334,113.069C41.334,113.069 40.547,115.217 40.547,115.217L43.878,113.289C44.402,112.986 44.981,112.854 45.552,112.879L45.626,111.599L41.953,111.171L41.477,111.763ZM49.881,105.814L51.152,110.88L46.07,106.777L45.994,106.839L45.565,109.395L44.111,107.344L45.458,104.13L49.881,105.814ZM40.448,109.666L40.974,109.105L42.55,109.181L41.754,107.972L42.213,106.396L40.82,106.793L39.657,105.921L39.504,107.268L38.219,108.064L39.581,108.676L39.744,109.16C40.003,109.297 40.239,109.468 40.448,109.666ZM76.039,108.217L74.141,108.14L73.054,109.318L72.473,107.635L70.85,106.885L72.381,105.936L72.564,104.314L73.957,105.369L75.641,104.896L75.09,106.793L76.039,108.217ZM59.861,103.518L56.585,103.364L54.687,105.401L53.692,102.492L50.892,101.206L53.539,99.584L53.861,96.768L56.279,98.605L59.172,97.763L58.208,101.038L59.861,103.518ZM85.387,99.584C85.386,99.552 85.386,99.465 85.396,99.405C85.444,99.137 85.605,98.868 85.846,98.578C86.565,97.713 87.616,96.868 88.988,96.03C90.37,95.186 91.743,94.603 93.107,94.289C93.708,94.15 94.217,94.098 94.635,94.154C94.911,94.191 95.135,94.272 95.289,94.438C95.337,94.489 95.342,94.56 95.34,94.641C95.338,94.785 95.302,94.946 95.242,95.125C95.055,95.684 94.668,96.256 94.104,96.856L94.102,96.857C93.011,97.429 92.092,97.943 91.344,98.399C89.191,99.249 87.545,99.715 86.401,99.763C85.935,99.782 85.585,99.774 85.387,99.584ZM40.147,88.824L40.376,86.743L42.167,88.089L44.31,87.477L43.606,89.896L44.815,91.733L42.397,91.61L41.004,93.125L40.269,90.967L38.188,90.018L40.147,88.824ZM48.795,83.574L50.081,84.003L50.692,87.493L49.545,86.574L49.116,92.605L46.621,89.329L48.795,83.574ZM76.647,87.006C76.202,87.488 75.888,88.008 75.713,88.573C75.575,89.019 75.609,89.395 75.886,89.691C75.999,89.812 76.106,89.903 76.234,89.92C76.367,89.937 76.501,89.875 76.651,89.784C76.955,89.599 77.252,89.377 77.542,89.119C77.843,88.85 78.172,88.489 78.531,88.038C78.922,87.547 79.284,87.081 79.617,86.64C79.799,86.398 79.997,86.134 80.211,85.848C79.212,86.175 78.319,86.455 77.534,86.688C77.235,86.799 76.94,86.905 76.647,87.006ZM42.841,84.784L39.412,81.661L42.978,76.947L49.407,77.406L49.224,79.855L45.703,81.922L47.937,83.207L42.841,84.784ZM54.825,82.702L53.248,82.641L52.331,83.62L51.856,82.212L50.494,81.585L51.779,80.804L51.933,79.457L53.096,80.33L54.489,79.932L54.029,81.508L54.825,82.702ZM69.689,59.922C62.369,60.053 55.364,61.447 48.871,63.907L46.591,71.238L49.591,75.784L49.789,74.559L53.203,77.789L57.6,76.604L57.607,76.555C58.035,73.345 59.588,70.102 62.299,66.84C64.366,64.353 66.976,62.328 70.133,60.771L70.133,60.771C69.977,60.486 69.829,60.204 69.689,59.922ZM38.922,70.473L39.122,68.621C39.228,68.56 39.336,68.498 39.443,68.437L41.111,69.692L43.422,69.019L42.657,71.651L43.974,73.641L41.356,73.519L39.841,75.141L39.045,72.815L36.795,71.774L38.922,70.473ZM89.357,64.986C89.467,65.103 89.533,65.227 89.525,65.37C89.513,65.563 89.438,65.736 89.307,65.892C88.858,66.433 88.197,66.804 87.344,67.04C86.392,67.302 85.36,67.375 84.249,67.265C83.117,67.152 81.9,66.764 80.594,66.113C79.683,65.659 78.829,65.097 78.034,64.429C80.295,63.74 82.466,63.431 84.548,63.509C86.852,63.594 88.47,64.037 89.357,64.986L89.357,64.986ZM93.227,53.881L93.503,54.402C93.503,54.402 93.411,54.555 93.38,54.846C90.38,53.836 87.289,53.025 84.12,52.412C83.738,51.723 83.34,50.989 82.942,50.254C82.896,50.162 82.85,50.086 82.819,50.009C81.38,47.361 80.432,44.407 79.682,41.468L93.227,53.881ZM60.978,50.101L60.963,50.101C60.932,50.162 60.901,50.208 60.855,50.254C60.84,50.3 60.794,50.361 60.733,50.438C60.488,50.775 60.075,51.387 59.585,52.045C56.325,52.565 53.142,53.3 50.035,54.249L49.897,53.836L50.754,52.504L65.187,41.116C64.131,44.27 62.83,47.392 60.978,50.101ZM70.36,26.454C71.018,25.841 71.891,25.52 72.794,25.551C73.682,25.581 74.539,25.964 75.136,26.637C75.748,27.28 76.085,28.152 76.039,29.04C76.008,29.943 75.61,30.785 74.967,31.398C74.294,32.009 73.437,32.331 72.534,32.3C71.646,32.27 70.789,31.887 70.192,31.214C69.58,30.571 69.243,29.698 69.274,28.811C69.32,27.892 69.718,27.066 70.36,26.454ZM107.783,7.567C113.538,5.73 115.742,10.199 113.216,15.739C106.451,21.587 97.911,24.938 88.972,25.229C92.278,16.826 99.181,10.337 107.783,7.567ZM33.198,12.77C31.071,7.062 33.611,2.776 39.198,5.041C47.57,8.439 53.968,15.403 56.662,24.02C47.769,23.087 39.489,19.107 33.198,12.77Z" style="fill:none;stroke:rgb(255,0,0);stroke-width:0.71px;"/>
    </g>
</svg>
