<?xml version="1.0" encoding="UTF-8" standalone="no"?>
<!-- Created with Inkscape (http://www.inkscape.org/) -->

<svg
   width="73.541985mm"
   height="100.00009mm"
   viewBox="0 0 73.541985 100.00009"
   version="1.1"
   id="svg203"
   inkscape:version="1.2.1 (9c6d41e410, 2022-07-14)"
   sodipodi:docname="csalad.svg"
   xmlns:inkscape="http://www.inkscape.org/namespaces/inkscape"
   xmlns:sodipodi="http://sodipodi.sourceforge.net/DTD/sodipodi-0.dtd"
   xmlns="http://www.w3.org/2000/svg"
   xmlns:svg="http://www.w3.org/2000/svg">
  <sodipodi:namedview
     id="namedview205"
     pagecolor="#ffffff"
     bordercolor="#000000"
     borderopacity="0.25"
     inkscape:showpageshadow="2"
     inkscape:pageopacity="0.0"
     inkscape:pagecheckerboard="0"
     inkscape:deskcolor="#d1d1d1"
     inkscape:document-units="mm"
     showgrid="false"
     inkscape:zoom="0.2102413"
     inkscape:cx="240.20019"
     inkscape:cy="340.08541"
     inkscape:window-width="1366"
     inkscape:window-height="705"
     inkscape:window-x="-8"
     inkscape:window-y="-8"
     inkscape:window-maximized="1"
     inkscape:current-layer="layer1" />
  <defs
     id="defs200" />
  <g
     inkscape:label="Layer 1"
     inkscape:groupmode="layer"
     id="layer1"
     transform="translate(-41.253994,-59.487273)">
    <path
       d="m 41.391305,122.33164 c 0.133013,-13.06493 7.114867,-24.489803 17.522487,-30.873903 -0.119012,-0.04712 -0.21433,-0.08697 -0.293492,-0.13436 h -0.0078 c -2.541794,-0.839817 -4.410443,-2.621225 -6.129115,-4.632582 -3.064422,-4.300045 1.267397,-8.48081 1.559811,-12.741276 0.261718,-3.610746 -1.337942,-7.609493 0.523167,-11.149425 1.116343,-2.344158 3.492273,-3.238632 6.120767,-3.175087 2.312386,0.118473 4.553417,0.942133 6.121574,2.137906 3.341221,2.565489 6.461648,6.271552 9.050832,9.811214 0,-0.277335 0.435657,-0.768192 0.910627,-1.03718 0.301302,-0.182288 0.657259,-0.277336 1.037452,-0.277336 h 2.312114 c 0.491398,0 0.934326,0.166132 1.299171,0.443467 0.388001,0.308839 0.664797,0.752037 0.767654,1.25905 0.142168,0 8.235516,-8.187859 9.882298,-9.26489 1.655665,-1.085109 3.943819,-1.734289 6.255933,-1.678822 2.629305,0.126551 4.925535,1.203851 5.876015,3.626632 1.59131,3.658406 -0.3013,7.530871 -0.31719,11.149964 -0.008,4.276082 3.99929,8.757878 0.62603,12.820439 -1.40229,1.425181 -3.31806,2.802972 -5.20287,3.626093 h -0.01588 c -0.102319,0.03204 -0.321495,0.10259 -0.634643,0.20383 5.995023,4.095946 10.713493,9.925376 13.430033,16.762106 l 0.0854,0.21675 c 1.56412,4.00844 2.44217,8.36153 2.48767,12.91333 l 0.002,0.37912 -5.3e-4,0.19574 -0.004,0.36916 -0.005,0.26225 -0.009,0.32311 -0.0105,0.29754 c -0.13624,3.51731 -0.76604,6.90376 -1.82503,10.0942 -0.0915,0.28191 -0.18983,0.55628 -0.28945,0.82312 l -0.11417,0.31718 c -0.34868,0.94995 -0.73669,1.87646 -1.164,2.78709 -0.1112,0.24529 -0.22187,0.48332 -0.34088,0.7208 -0.18982,0.388 -0.39581,0.77601 -0.59344,1.1562 -0.0162,0.0156 -0.024,0.0393 -0.032,0.0555 -0.37993,0.7041 -0.78381,1.40148 -1.21112,2.07463 -0.10044,0.15293 -0.19252,0.30695 -0.29888,0.45342 l -0.0264,0.0401 c -0.11067,0.18013 -0.22591,0.34976 -0.34707,0.52262 l -0.0646,0.0951 v 0.005 c -0.0714,0.11847 -0.15051,0.22914 -0.23748,0.34034 -0.72054,1.04553 -1.49653,2.04259 -2.3202,3.00115 -6.651468,7.7013 -16.450563,12.59695 -27.386197,12.69981 l -0.356769,0.002 c -0.968518,0 -1.928424,-0.0377 -2.879709,-0.11174 -17.943872,-1.39447 -32.256807,-15.71063 -33.645638,-33.65747 -0.07351,-0.94644 -0.110665,-1.9023 -0.110665,-2.86678 z m 7.535986,12.58564 c 3.160278,7.52172 9.155033,13.56521 16.645243,16.79038 -1.114726,-0.75204 -2.167792,-1.61016 -3.145467,-2.56899 -0.920593,-0.90282 -0.920593,-2.37162 0,-3.27444 0.920592,-0.90256 2.418474,-0.90256 3.339065,0 0.598292,0.58671 1.232392,1.12469 1.89719,1.61366 1.192273,-3.94113 1.093726,-7.32624 0.924899,-9.01179 l -2.50302,1.90554 c -0.897165,0.6831 -2.073822,0.70545 -2.997376,0.056 -0.923554,-0.64918 -1.279782,-1.74937 -0.907667,-2.80216 l 1.984967,-5.6143 0.248257,-3.66863 c 0.01588,-0.23264 0.149706,-0.44186 0.356228,-0.5571 0.206789,-0.11497 0.458545,-0.12063 0.670453,-0.0148 0.03258,0.0162 0.396615,0.19924 0.888817,0.49624 l -0.850852,-3.58194 -4.691549,-1.82476 0.255257,-0.1874 -3.442191,-1.60451 -1.481187,0.85786 3.724911,1.73348 -1.861109,1.07541 -3.72195,-1.73644 -2.19122,1.2639 2.991454,1.52184 -2.991454,1.52481 2.19122,1.26362 3.72195,-1.73617 1.861109,1.07246 -3.724911,1.73644 1.481187,0.85489 3.724911,-1.73617 1.857879,1.07245 -3.721681,1.73644 2.968028,1.71598 c 0.350843,0.20006 0.469586,0.64918 0.266835,1.00003 -0.203021,0.35353 -0.64945,0.47254 -1.002986,0.26952 l -2.968297,-1.71301 0.359459,4.09298 -1.858148,-1.07272 -0.359458,-4.09272 -1.481187,-0.85812 0.356497,4.09298 -1.857879,-1.07245 -0.356497,-4.09299 -2.191489,-1.26389 0.176903,3.35091 -2.814821,-1.82907 v 2.53049 l 3.365453,2.35654 v 2.14518 l -3.124198,-2.18772 z m 54.998859,5.80574 c -0.30696,-0.074 -0.61418,-0.14217 -0.92113,-0.21649 -0.72081,0.44293 -1.43353,0.88667 -2.14599,1.32233 -0.26952,0.16613 -0.61767,0.0948 -0.79996,-0.1664 -0.0552,-0.0792 -0.08751,-0.17448 -0.09505,-0.26926 l -4.798711,-0.27707 -3.434651,4.0938 c 0.709223,-0.0975 1.455338,0.12062 1.999776,0.6543 0.445889,0.43754 0.691454,1.01887 0.691454,1.63735 0,0.61822 -0.245565,1.19954 -0.691454,1.63709 -0.922208,0.90416 -1.910921,1.71894 -2.955642,2.43947 3.825076,-1.6939 7.25138,-4.1261 10.097708,-7.11567 -0.005,-0.0323 -0.007,-0.0657 -0.006,-0.0999 0.008,-0.30883 0.26118,-0.56194 0.57002,-0.56974 l 0.0568,-0.002 c 0.21782,-0.2426 0.43215,-0.48844 0.64191,-0.73696 -0.51779,-0.0434 -0.70223,-0.73911 -0.23937,-1.02722 0.66102,-0.40631 1.31451,-0.81854 1.97473,-1.22485 z m -21.750911,7.06586 c 0.437814,0.67341 1.112842,1.48819 1.669666,2.12471 -1.829067,0.62872 -3.77203,0.95668 -5.765885,0.95668 -1.775483,0 -3.510584,-0.26011 -5.160864,-0.76066 l 1.233471,-2.28357 c 1.295938,0.34707 4.53349,0.98979 8.023612,-0.0372 z m 6.87738,-8.21802 c 0.409271,1.05092 0.164516,1.90823 -0.593444,1.46288 0.07378,1.9505 0.437004,4.34959 0.859202,5.79847 0.368882,-0.30669 0.727266,-0.62872 1.072992,-0.96798 0.273833,-0.26818 0.598559,-0.45667 0.944017,-0.56544 l -1.38883,-5.29146 z m 12.384241,0.56329 c -0.30884,0.18983 -0.62549,0.388 -0.94213,0.58617 l -0.388,-0.60178 c 0.11847,-0.0714 0.23748,-0.14271 0.3565,-0.22187 0.32445,0.0792 0.64864,0.15832 0.97363,0.23748 z m -1.923846,-8.44446 -1.758252,4.8181 1.235083,1.89261 c 0.05574,0.0154 0.111205,0.031 0.166402,0.0393 -0.07916,-0.12682 -0.158324,-0.25364 -0.229677,-0.37992 -0.166132,-0.26953 -0.07916,-0.61822 0.205984,-0.76873 0.268986,-0.14998 0.617675,-0.0549 0.783809,0.20652 0.269527,0.44293 0.538507,0.87886 0.799697,1.31452 0.3328,0.0786 0.65779,0.15778 0.98198,0.23748 -0.25283,-0.41169 -0.49866,-0.81639 -0.74396,-1.22001 -0.1664,-0.27733 -0.0792,-0.62548 0.20545,-0.776 0.26952,-0.14217 0.61767,-0.0552 0.78434,0.21379 0.43566,0.71273 0.87913,1.43353 1.31425,2.1538 0.32473,0.0719 0.65753,0.15051 0.98198,0.23021 -0.42758,-0.69684 -0.85543,-1.39395 -1.28274,-2.09078 -0.29322,-0.48305 0.23748,-1.0528 0.74396,-0.78381 0.18013,0.0969 0.36,0.19413 0.53932,0.29106 l 1.07569,0.5816 c 0.12897,0.0697 0.25794,0.13921 0.38719,0.20895 0.0277,-0.0509 0.0555,-0.10178 0.0829,-0.15267 -0.0719,-0.24368 -0.14405,-0.48521 -0.21567,-0.73131 -0.7445,-0.39581 -1.48146,-0.79942 -2.22542,-1.1955 -0.26953,-0.14244 -0.388,-0.49113 -0.25337,-0.76793 0.13436,-0.29268 0.47497,-0.40388 0.75984,-0.25337 0.42031,0.22968 0.83982,0.45101 1.25932,0.68068 -0.0951,-0.32472 -0.18983,-0.64136 -0.28487,-0.96582 -0.45909,-0.24583 -0.91063,-0.48332 -1.36245,-0.72835 -0.26899,-0.15078 -0.37965,-0.49112 -0.25283,-0.76846 0.13436,-0.29268 0.47497,-0.40415 0.75985,-0.25337 0.12681,0.0714 0.26144,0.14271 0.39634,0.21352 -0.0789,-0.24771 -0.15294,-0.4957 -0.2259,-0.74719 -0.47094,0.16721 -0.88129,0.30104 -1.23105,0.40093 -0.62333,0.17825 -1.13088,0.25849 -1.52185,0.24502 -0.41142,-0.0143 -0.71999,-0.0808 -0.92732,-0.18982 -0.20383,-0.10744 -0.43216,-0.29296 -0.682031,-0.56033 -0.110395,-0.1182 -0.19925,-0.2496 -0.266025,-0.39473 z m -3.801383,6.7581 -1.900152,-0.0872 -1.100995,1.18016 -0.578096,-1.68717 -1.623354,-0.75231 1.528307,-0.94213 0.190366,-1.6317 1.401487,1.06141 1.678821,-0.48251 -0.554403,1.89961 z m -15.560942,-2.05578 0.32715,-0.0113 c 2.083784,-0.0207 3.747256,0.14809 5.17648,0.51725 l 3.44542,-2.2755 0.316645,-2.67642 -5.740841,-0.52236 z m -13.01592,-7.60303 c 0.348422,0.24314 0.706803,0.51886 1.029105,0.81531 2.140598,0.23291 4.219808,1.58243 6.029219,3.91824 0.965287,1.24639 1.619313,2.4629 1.935964,3.10723 0.836314,-0.0781 1.619046,-0.13759 2.356273,-0.17932 l 0.196829,-0.007 -1.009181,-6.41373 -6.271549,-2.56548 2.288421,-1.52023 -3.840422,-0.34869 z m 42.236311,-2.48687 c -3.24644,1.68906 -5.25995,2.75182 -6.03972,3.18828 -0.94537,0.52883 -1.58243,0.98468 -1.90662,1.37483 -0.10528,0.12682 -0.15078,0.22806 -0.0695,0.31476 0.0829,0.0891 0.20814,0.14029 0.3705,0.16479 0.19414,0.0296 0.43566,0.0186 0.72458,-0.0291 0.61579,-0.10151 1.53854,-0.36888 2.7685,-0.8005 8e-4,-2.6e-4 0.001,-5.3e-4 0.002,-8e-4 0.0821,-0.0277 0.14675,-0.0126 0.19441,0.0154 0.0568,0.0331 0.11685,0.10312 0.11227,0.23586 -0.002,0.0681 -0.0116,0.19333 -0.028,0.37616 -0.0153,0.1734 -0.0242,0.29241 -0.0267,0.35703 -2.6e-4,0.01 -0.001,0.0199 -0.004,0.0299 -0.0258,0.12574 -0.0969,0.20383 -0.2049,0.24152 -0.0248,0.01 -0.0493,0.0191 -0.0738,0.0285 0.0811,0.27087 0.16587,0.54174 0.24476,0.81262 0.0719,-0.12656 0.14271,-0.26172 0.21433,-0.388 0.15051,-0.28542 0.49866,-0.37185 0.76765,-0.20572 0.26953,0.15833 0.3565,0.50648 0.21379,0.78381 l -0.73642,1.35437 0.28515,0.95775 c 0.22967,-0.41924 0.45935,-0.83093 0.68095,-1.25097 0.15563,-0.28084 0.48843,-0.36996 0.76335,-0.2138 0.8627,-2.33177 1.45749,-4.79359 1.74667,-7.34669 z m -42.845908,6.69106 c 0.438888,0 0.795115,0.34922 0.795115,0.7795 0,0.43027 -0.356227,0.77977 -0.795115,0.77977 -0.438624,0 -0.794851,-0.3495 -0.794851,-0.77977 0,-0.43028 0.356227,-0.7795 0.794851,-0.7795 z m 32.841633,-1.91147 c -0.0072,-0.12008 -0.0043,-0.24636 0.0089,-0.37884 0.03931,-0.39231 0.156438,-0.75661 0.352187,-1.09265 -1.248548,0.29403 -2.139252,0.13113 -2.676152,-0.44346 -0.430003,-0.46016 -0.598292,-1.01591 -0.501359,-1.66806 0.05897,-0.39661 0.205444,-0.79673 0.440777,-1.19954 -0.630869,0.17475 -1.139229,0.24745 -1.524539,0.22268 -0.408734,-0.0261 -0.715145,-0.0977 -0.921668,-0.20626 -0.204634,-0.1077 -0.418696,-0.27868 -0.640025,-0.51536 -0.330917,-0.35407 -0.487357,-0.79754 -0.463394,-1.33174 0.01696,-0.37454 0.120092,-0.72646 0.310724,-1.05603 -0.279487,0.0611 -0.540131,0.0977 -0.781926,0.11012 l -0.846005,2.25504 1.29136,2.18583 -2.470978,-0.18256 -0.91063,1.14839 4.062291,3.28629 z m -12.476324,-4.5281 1.686629,0.76819 0.870778,3.06442 z m -8.639675,0.29322 1.861109,-1.13304 0.221332,-1.97931 1.694976,1.29082 2.034783,-0.58617 -0.672608,2.29649 1.155923,1.7421 -2.296496,-0.11066 -1.330407,1.43353 -0.696839,-2.04367 z m 25.190144,0.0504 c -0.45074,0.23345 -0.83174,0.4432 -1.14274,0.62926 -0.94132,0.38476 -1.74882,0.64002 -2.422238,0.76388 -0.321225,0.0592 -0.588328,0.0773 -0.801309,0.0509 -0.17744,-0.0221 -0.312878,-0.0732 -0.400119,-0.1664 -0.06839,-0.0732 -0.07808,-0.17932 -0.05412,-0.31423 0.03123,-0.17609 0.129514,-0.35757 0.287838,-0.54793 0.383154,-0.46124 0.941324,-0.91359 1.672358,-1.35976 0.73319,-0.44777 1.46126,-0.75553 2.18449,-0.92247 0.65699,-0.1516 1.11715,-0.11902 1.37348,0.15509 0.13813,0.14782 0.1349,0.36646 0.0342,0.65268 -0.11928,0.3398 -0.36485,0.69146 -0.73158,1.05899 z M 85.811026,92.138687 c 0.712724,0.309378 1.322324,0.735613 1.829068,1.277898 0.284334,0.303993 0.513741,0.657527 0.687683,1.060609 0.176364,0.408731 0.241795,0.885584 0.191979,1.430835 -0.05008,0.547669 -0.262794,1.049298 -0.640834,1.504071 -0.406847,0.489511 -0.953709,0.824199 -1.6422,1.000562 -0.671798,0.172056 -1.405794,0.189828 -2.201992,0.05062 -0.787307,-0.137594 -1.634932,-0.467165 -2.542061,-0.991677 -0.900935,-0.520745 -1.749636,-1.206545 -2.545831,-2.058207 -0.08966,-0.09612 -0.187944,-0.208407 -0.294836,-0.337111 -1.512152,0.73292 -2.776048,1.709518 -3.791151,2.931139 -0.953172,1.14677 -1.501648,2.237534 -1.636548,3.276604 -0.130591,1.00487 0.063,1.79568 0.598291,2.36839 0.670719,0.71784 1.593197,1.1263 2.763121,1.23347 0.796197,0.073 1.665359,0.004 2.607492,-0.20571 0.142169,-0.0794 0.276797,-0.10959 0.400119,-0.0964 0.350843,-0.0905 0.71111,-0.19979 1.081339,-0.32769 2.59e-4,0 7.94e-4,-2.6e-4 0.0011,-2.6e-4 0.03096,-0.0105 0.05924,-0.0148 0.08509,-0.0148 0.863777,-0.29134 1.979043,-0.70007 3.344986,-1.22593 0.675029,-0.26199 1.248818,-0.13679 1.722443,0.36996 0.234794,0.25121 0.358921,0.56463 0.367805,0.94186 0.0092,0.38316 -0.07728,0.67099 -0.241525,0.86863 -0.03069,0.0372 -0.07539,0.0603 -0.123586,0.0641 -0.325536,0.0264 -0.663721,0.21433 -1.022374,0.54956 -0.384768,0.35972 -0.731303,0.77169 -1.039874,1.23589 -0.318531,0.47955 -0.674219,0.97148 -1.066797,1.47607 -0.284067,0.36484 -0.557903,0.68688 -0.821777,0.9661 0.71569,-0.0342 1.590778,-0.23264 2.626071,-0.59183 0.03123,-0.0197 0.06301,-0.039 0.09478,-0.0584 0.635717,-0.38612 1.295395,-0.68203 1.979311,-0.88774 0.696031,-0.20949 1.391793,-0.25849 2.086747,-0.14702 0.710841,0.1139 1.288669,0.41116 1.734828,0.88855 0.484124,0.51805 0.656183,1.087 0.516438,1.70683 0.130858,-0.0339 0.246909,0.005 0.348689,0.11335 0,0 1.118764,1.19712 1.118764,1.19712 0.06947,0.0743 0.09613,0.16614 0.06812,0.27869 -0.02207,0.0897 -0.07216,0.16128 -0.150783,0.21379 -0.0054,0.003 -0.01106,0.007 -0.01696,0.01 -2.160254,1.12011 -3.558511,1.87753 -4.194228,2.27253 -0.616061,0.38289 -1.047683,0.71865 -1.291362,1.01214 -0.104471,0.12548 -0.158591,0.21972 -0.08374,0.29996 0.03527,0.0377 0.10582,0.0479 0.202753,0.0582 0.220522,0.0234 0.546322,-0.002 0.977675,-0.0724 0.709493,-0.11551 1.590236,-0.36215 2.642494,-0.7383 1.084032,-0.60852 3.839078,-2.06171 8.265403,-4.35955 0.08536,-0.0471 0.164788,-0.0625 0.235601,-0.0563 0.0832,0.008 0.159401,0.0433 0.22564,0.11417 0,0 1.118773,1.19712 1.118773,1.19712 0.0692,0.0738 0.0977,0.17178 0.0576,0.2986 -0.035,0.1104 -0.0956,0.17287 -0.1586,0.20464 -4.792519,2.4839 -7.674115,3.9974 -8.645056,4.54076 -0.945097,0.52882 -1.582428,0.98495 -1.906347,1.37483 -0.104203,0.12521 -0.158591,0.21972 -0.08374,0.29996 0.08347,0.0891 0.209481,0.14109 0.37319,0.16667 0.195482,0.0307 0.43916,0.0215 0.730498,-0.0237 0.554938,-0.0864 1.350328,-0.3118 2.386161,-0.67503 0.03016,-0.0188 0.06058,-0.0374 0.09128,-0.0563 0.635717,-0.38611 1.295667,-0.68176 1.979313,-0.88774 0.696299,-0.20948 1.391793,-0.25822 2.087015,-0.14675 0.71084,0.1139 1.288402,0.41116 1.734561,0.88856 0.06839,0.073 0.13032,0.14701 0.186325,0.22213 l 3.33988,-0.93594 c 0.18148,-0.0509 0.37049,0.0552 0.42139,0.23695 l 0.18444,0.65833 c 0.0509,0.18149 -0.0555,0.37024 -0.23695,0.42112 l -3.340413,0.5229 c 0.01937,0.18848 0.0067,0.38208 -0.03824,0.58106 0.131127,-0.0337 0.247179,0.005 0.348689,0.11363 0,0 1.118764,1.19685 1.118764,1.19685 0.0695,0.0743 0.0961,0.1664 0.0684,0.27868 -0.0223,0.0899 -0.0724,0.16129 -0.15078,0.21379 -0.006,0.004 -0.0113,0.007 -0.0172,0.0102 -2.160247,1.12012 -3.558504,1.87727 -4.194221,2.27254 -0.615791,0.38261 -1.047681,0.71865 -1.29136,1.01187 -0.104203,0.12547 -0.158594,0.21999 -0.08374,0.30022 0.03527,0.0374 0.105818,0.0479 0.20302,0.0582 0.220523,0.0232 0.546323,-0.002 0.977405,-0.0727 0.661297,-0.1077 1.471494,-0.32903 2.43059,-0.66318 0.03016,-0.0189 0.06058,-0.0377 0.09128,-0.0563 0.635717,-0.38612 1.295666,-0.68203 1.979306,-0.88775 0.6963,-0.20948 1.3918,-0.25848 2.08702,-0.14701 0.71084,0.1139 1.2884,0.41116 1.73456,0.88855 v 0 c 0.49059,0.52505 0.65806,1.10207 0.5019,1.73106 0.85408,-0.44643 2.25638,-1.17289 4.20688,-2.17991 0.01,-0.3258 0.0151,-0.65295 0.0151,-0.98118 0,-14.7249 -10.110089,-27.107256 -23.761993,-30.577989 z m 6.69348,31.376873 c -0.538517,-0.0485 -0.96179,-0.2426 -1.2709,-0.57298 -0.430003,-0.46016 -0.598292,-1.01591 -0.501356,-1.66805 0.05789,-0.38908 0.199789,-0.78165 0.42731,-1.17666 -0.596675,0.16668 -1.08457,0.24153 -1.463146,0.22833 -0.365921,-0.0127 -0.650526,-0.0668 -0.854893,-0.15536 l -2.21276,5.69373 1.718672,-0.90229 0.17421,-2.42304 1.940271,1.54392 z m -14.443528,-6.0443 -0.752305,-0.3643 -0.277067,6.65121 -2.431126,1.62362 -2.518098,-3.82508 1.72648,-4.65627 -3.674562,0.78434 1.694439,-2.17021 4.688046,0.34869 1.235356,0.42785 z m -7.681383,5.92287 -1.686631,-0.0789 -0.981983,1.05307 -0.514823,-1.50515 -1.448605,-0.66534 1.361906,-0.83927 0.166402,-1.45668 1.250971,0.9502 1.496803,-0.43565 -0.491397,1.69443 z M 48.688998,111.09982 v -2.6e-4 c 2.060629,-5.19372 5.462162,-9.71294 9.777018,-13.129279 l 1.714633,0.654026 0.474971,1.670743 -0.0552,4.21281 -2.914446,1.92411 3.214938,1.34629 1.069491,3.3178 1.95562,-2.58111 2.77147,0.22133 -0.04712,0.713 -4.299778,2.81105 1.448607,0.83901 -1.021294,0.26171 -1.963966,-1.60747 -0.253372,2.47825 -1.536385,1.07811 0.05951,-0.67691 -1.858148,1.07245 -0.359458,4.09299 -1.481187,0.85516 0.356497,-4.09299 -1.857879,1.07273 -0.356497,4.09271 -2.191489,1.2639 0.176903,-3.35091 -2.814821,1.82907 v -2.52753 l 3.365453,-2.35681 v -2.14787 l -3.365453,2.35681 v -1.71032 l 3.365453,-2.35655 v -2.14517 l -3.365453,2.35385 v -1.8568 c -0.0027,0.007 -0.0057,0.0145 -0.0086,0.0221 z m 48.992525,9.50156 c -0.577292,0.30184 -1.061146,0.57218 -1.451031,0.81074 -1.15,0.45558 -2.028586,0.69926 -2.636842,0.72484 -0.34815,0.0145 -0.596673,-0.0363 -0.737227,-0.18659 -0.06812,-0.073 -0.07808,-0.17933 -0.05412,-0.31396 0.0315,-0.17609 0.129514,-0.35784 0.287838,-0.54821 0.383153,-0.46096 0.941324,-0.91332 1.672359,-1.35948 0.733187,-0.44778 1.461262,-0.75553 2.184488,-0.92248 0.656989,-0.15159 1.11715,-0.11901 1.373486,0.1551 0.130051,0.13893 0.12655,0.34734 0.03473,0.62198 -0.109588,0.32688 -0.335497,0.66507 -0.673142,1.01753 z m -35.02451,0.88532 -3.196359,-1.49115 2.038012,-1.17611 0.06758,0.21944 1.528306,-1.90042 1.900422,0.22133 -0.150784,2.58999 -0.78381,0.50648 z m -15.840434,-2.84712 -0.0013,0.01 0.415734,0.29107 v 2.52752 l -0.705994,-0.45882 c 0.01481,-0.10178 0.118743,-1.09884 0.29026,-2.35977 l -0.01427,-0.01 z m 35.423549,-5.46702 -0.505127,1.51108 1.417373,2.41497 -2.683962,-0.13436 -1.473108,1.51215 3.587052,2.96184 5.927172,-1.47096 c -0.133014,-0.10205 -0.273836,-0.2321 -0.422736,-0.39123 v 0 c -0.322035,-0.34465 -0.46097,-0.804 -0.403079,-1.38129 0.03689,-0.3705 0.143515,-0.71569 0.319608,-1.03583 -0.467701,0.10824 -0.856509,0.15105 -1.165886,0.1314 -0.408734,-0.0261 -0.715415,-0.0977 -0.921668,-0.20626 -0.204907,-0.10797 -0.418965,-0.27868 -0.640027,-0.51536 -0.331184,-0.35434 -0.487355,-0.79754 -0.463391,-1.33202 0.01672,-0.37426 0.120089,-0.72645 0.310721,-1.05576 -1.16319,0.25392 -2.001123,0.0835 -2.518635,-0.47012 -0.1559,-0.16667 -0.277336,-0.346 -0.364307,-0.53825 z m -35.715155,7.83675 c -7.93e-4,0.006 -0.0013,0.009 -0.0016,0.009 -2.59e-4,0 -2.59e-4,-0.003 0,-0.009 z m 12.199261,-2.2833 2.329618,-1.34683 -0.215944,-0.70007 -1.856263,-0.88532 z m 8.471924,-4.35902 0.657799,2.62096 -2.629302,-2.12283 -0.03931,0.032 -0.222139,1.32259 -0.752036,-1.06114 0.696839,-1.66294 z m -3.792763,1.74183 -0.815312,-0.0393 -0.47551,0.50647 -0.245293,-0.72834 -0.704648,-0.31665 0.664798,-0.41169 0.07916,-0.69711 0.601791,0.45128 0.720804,-0.20545 -0.237486,0.81531 z m 18.727148,-4.22034 c 0.07378,-0.35946 0.219175,-0.72189 0.437544,-1.08646 -0.435391,0.0977 -0.815314,0.1489 -1.138963,0.15401 -0.8417,0.0132 -1.578388,-0.22159 -2.210334,-0.70222 -0.285417,-0.16398 -0.578909,-0.40577 -0.878859,-0.72646 -0.382616,-0.40954 -0.593714,-0.91197 -0.630332,-1.50892 -0.03554,-0.57594 0.04847,-1.11392 0.250139,-1.61366 -0.797541,0.16963 -1.538271,0.25014 -2.221645,0.24206 l -1.620393,4.57604 2.034781,2.99361 1.116613,-0.56248 0.38019,-3.12797 2.169679,2.01135 z m -9.770827,1.29055 -1.694979,-0.0797 -0.981983,1.05387 -0.514821,-1.50488 -1.448607,-0.66534 1.369446,-0.83927 0.166669,-1.45696 1.250974,0.95048 1.496804,-0.43566 -0.498666,1.69445 z m 16.692636,-1.80942 c -0.577292,0.30184 -1.061146,0.57218 -1.4513,0.81101 -1.150001,0.45531 -2.02832,0.69926 -2.636573,0.72457 -0.348152,0.0145 -0.596943,-0.0361 -0.737227,-0.18632 -0.06839,-0.0732 -0.07835,-0.17933 -0.05412,-0.31423 0.03123,-0.17609 0.129511,-0.35757 0.287835,-0.54794 0.383156,-0.46124 0.941324,-0.91332 1.672363,-1.35975 0.733186,-0.44751 1.460989,-0.75554 2.184484,-0.92248 0.656992,-0.15132 1.117153,-0.11901 1.373484,0.15537 0.129786,0.13893 0.126553,0.34734 0.03447,0.62171 -0.109318,0.32715 -0.335227,0.66507 -0.672875,1.01753 z m -9.233389,-5.48585 2.794624,-0.81639 -2.227837,2.92844 c -0.887473,1.06519 -2.196602,-1.59589 -0.566787,-2.11205 z m -17.658731,-0.30696 0.118474,-1.07676 0.926516,0.69657 1.108803,-0.31665 -0.364306,1.25152 0.625487,0.95047 -1.250972,-0.0638 -0.720534,0.78381 -0.380461,-1.11634 -1.076493,-0.49113 z m 8.727183,-1.92734 -1.378601,-0.0759 -1.417372,1.59159 2.692307,2.55768 4.296008,-1.11473 c -1.304552,-0.1454 -2.407971,-0.70142 -3.311062,-1.66751 -0.37319,-0.39931 -0.667221,-0.82959 -0.88128,-1.29109 z m -4.252928,-0.78893 0.665337,0.22214 0.316108,1.80564 -0.593444,-0.47551 -0.221867,3.12016 -1.291092,-1.69498 z m -3.080577,0.62603 -1.77387,-1.61555 1.844954,-2.438938 3.326141,0.237488 -0.09478,1.26686 -1.821529,1.06949 1.155655,0.66479 z m 6.2002,-1.07703 -0.815854,-0.0315 -0.474432,0.50648 -0.24583,-0.72862 -0.704649,-0.32418 0.664798,-0.40416 0.0797,-0.69684 0.601792,0.45155 0.720802,-0.20598 -0.238024,0.81558 z m 6.490726,-11.190897 c -3.434921,0.191445 -6.723367,0.933519 -9.780249,2.139254 l -0.970404,3.12043 1.552001,2.351963 0.102587,-0.63383 1.766332,1.671283 1.951847,-0.525862 c 0.388003,-1.111764 1.047684,-2.229723 1.9812,-3.352798 1.088339,-1.309669 2.478518,-2.36166 4.171608,-3.154891 v 0 c -0.319339,-0.552786 -0.577556,-1.091303 -0.774922,-1.615549 z m -14.689087,4.591386 c 0.235869,-0.144862 0.473624,-0.286493 0.713264,-0.424889 l 0.389885,0.293489 1.195773,-0.348419 -0.395809,1.361906 0.681222,1.029372 -1.354366,-0.06301 -0.783809,0.839275 -0.411965,-1.203582 -1.164001,-0.538514 1.100457,-0.673145 z m 25.104783,-1.126307 c 0.112014,0.119819 0.166941,0.251486 0.158327,0.397155 -0.0094,0.156171 -0.06759,0.29699 -0.173136,0.424082 -0.261181,0.314492 -0.642448,0.536901 -1.13896,0.673952 -0.516974,0.142436 -1.077031,0.183095 -1.679897,0.12332 -0.607177,-0.06031 -1.260666,-0.266295 -1.961005,-0.615254 -0.623871,-0.310991 -1.196311,-0.715957 -1.717328,-1.21516 1.348444,-0.463661 2.637652,-0.673955 3.867891,-0.628179 1.270624,0.04712 2.155137,0.317185 2.644108,0.840084 z m -8.588513,-3.514619 c 0.105278,0.346265 0.24691,0.696568 0.42462,1.050911 1.47338,-0.504319 2.914443,-0.733456 4.322394,-0.688223 -1.547963,-0.236678 -3.133621,-0.360267 -4.747014,-0.362688 z m 11.630859,-3.184785 c -1.554964,-0.523165 -3.157588,-0.945094 -4.798711,-1.257702 -0.195752,-0.352996 -0.399312,-0.728609 -0.603139,-1.104765 -0.02368,-0.04766 -0.04766,-0.08697 -0.06355,-0.126817 -0.744498,-1.369986 -1.235085,-2.898291 -1.623086,-4.418791 l 7.007701,6.422068 0.142975,0.269525 c 0,0 -0.04496,0.07459 -0.0622,0.216482 z m -17.478597,-1.44591 c -1.691212,0.269525 -3.343916,0.654833 -4.949227,1.147574 l -0.07055,-0.210828 0.443465,-0.6893 7.467055,-5.891629 c -0.546322,1.631702 -1.219194,3.246978 -2.177484,4.648468 h -0.0078 c -0.01587,0.0315 -0.03204,0.05546 -0.05574,0.07916 -0.0078,0.02368 -0.03177,0.05547 -0.06328,0.09532 -0.125473,0.172599 -0.336031,0.484667 -0.586441,0.821241 z m 5.567172,-13.229982 c 0.340608,-0.317185 0.792154,-0.483317 1.259318,-0.467162 0.459351,0.01562 0.902822,0.213791 1.21166,0.561941 0.316648,0.332534 0.491127,0.78381 0.467161,1.243163 -0.01587,0.467163 -0.221866,0.902822 -0.55467,1.220007 -0.348149,0.316109 -0.79135,0.482779 -1.258781,0.466624 -0.459354,-0.01562 -0.902549,-0.213791 -1.21166,-0.561941 -0.316645,-0.332533 -0.490855,-0.784348 -0.474699,-1.243163 0.02368,-0.475509 0.229677,-0.902821 0.561671,-1.219469 z M 97.15297,63.536784 c 2.97745,-0.950211 4.11776,1.361905 2.81105,4.228154 -3.50008,3.02538 -7.918331,4.759131 -12.543102,4.909646 1.710325,-4.347436 5.281761,-7.704541 9.732052,-9.1378 z m -38.587867,2.692038 c -1.100456,-2.953219 0.213521,-5.170556 3.104003,-3.998746 4.33155,1.757984 7.641805,5.360921 9.035485,9.819022 -4.601078,-0.482779 -8.8847,-2.541793 -12.139488,-5.820276 z"
       style="clip-rule:evenodd;fill:none;fill-rule:evenodd;stroke:#ff0000;stroke-width:0.269256px;stroke-linejoin:round;stroke-miterlimit:2"
       id="path25" />
  </g>
</svg>
