<?xml version="1.0" encoding="UTF-8" standalone="no"?>
<!DOCTYPE svg PUBLIC "-//W3C//DTD SVG 1.1//EN" "http://www.w3.org/Graphics/SVG/1.1/DTD/svg11.dtd">
<svg width="100%" height="100%" viewBox="0 0 1123 794" version="1.1" xmlns="http://www.w3.org/2000/svg" xmlns:xlink="http://www.w3.org/1999/xlink" xml:space="preserve" xmlns:serif="http://www.serif.com/" style="fill-rule:evenodd;clip-rule:evenodd;stroke-linejoin:round;stroke-miterlimit:2;">
    <g transform="matrix(2.82655,0,0,2.82655,108.381,70.1834)">
        <path d="M12.232,-20.078C11.91,-20.4 11.525,-20.661 11.098,-20.841C10.67,-21.021 10.201,-21.12 9.708,-21.12C9.216,-21.12 8.747,-21.021 8.319,-20.841C7.892,-20.661 7.507,-20.4 7.185,-20.078C6.862,-19.755 6.601,-19.37 6.42,-18.944C6.24,-18.517 6.141,-18.048 6.141,-17.557C6.141,-17.064 6.24,-16.596 6.42,-16.169C6.601,-15.742 6.862,-15.358 7.185,-15.035C7.507,-14.713 7.892,-14.452 8.319,-14.272C8.747,-14.092 9.216,-13.993 9.708,-13.993C10.201,-13.993 10.67,-14.092 11.098,-14.272C11.525,-14.452 11.91,-14.713 12.232,-15.035C12.555,-15.358 12.816,-15.742 12.997,-16.169C13.177,-16.596 13.276,-17.064 13.276,-17.557C13.276,-18.048 13.177,-18.517 12.997,-18.944C12.816,-19.37 12.555,-19.755 12.232,-20.078M17.85,-7.331C17.861,-7.318 17.872,-7.31 17.884,-7.305C17.896,-7.299 17.91,-7.296 17.927,-7.293C22.927,-6.433 27.665,-4.803 32.011,-2.529C36.357,-0.255 40.312,2.662 43.747,6.096C48.103,10.445 51.628,15.626 54.064,21.379C56.5,27.132 57.846,33.458 57.846,40.096C57.846,46.735 56.5,53.059 54.064,58.812C51.628,64.564 48.103,69.745 43.747,74.096C39.393,78.448 34.207,81.969 28.447,84.402C22.687,86.835 16.354,88.18 9.708,88.18C3.063,88.18 -3.269,86.835 -9.028,84.402C-14.787,81.969 -19.973,78.448 -24.33,74.096C-28.686,69.745 -32.211,64.564 -34.646,58.812C-37.083,53.059 -38.429,46.735 -38.429,40.096C-38.429,33.458 -37.083,27.132 -34.646,21.379C-32.211,15.626 -28.686,10.445 -24.33,6.096C-20.9,2.671 -16.957,-0.241 -12.624,-2.513C-8.291,-4.784 -3.569,-6.415 1.417,-7.28C1.446,-7.286 1.475,-7.288 1.5,-7.294C1.526,-7.301 1.55,-7.312 1.569,-7.335C1.581,-7.349 1.587,-7.379 1.59,-7.406C1.593,-7.432 1.593,-7.456 1.593,-7.456L1.593,-12.046C1.593,-12.408 1.75,-12.745 2.019,-13.027C2.288,-13.308 2.669,-13.534 3.117,-13.674C3.194,-13.698 3.252,-13.754 3.281,-13.821C3.31,-13.888 3.31,-13.967 3.271,-14.038C2.984,-14.56 2.76,-15.121 2.607,-15.71C2.455,-16.3 2.374,-16.919 2.374,-17.557C2.374,-18.567 2.578,-19.531 2.949,-20.408C3.319,-21.284 3.856,-22.075 4.521,-22.738C5.186,-23.399 5.975,-23.936 6.852,-24.307C7.729,-24.678 8.694,-24.883 9.708,-24.883C10.72,-24.883 11.685,-24.678 12.562,-24.307C13.439,-23.936 14.229,-23.399 14.891,-22.738C15.556,-22.075 16.094,-21.284 16.466,-20.408C16.838,-19.531 17.043,-18.567 17.043,-17.557C17.043,-16.923 16.963,-16.308 16.812,-15.723C16.661,-15.137 16.438,-14.579 16.154,-14.06C16.112,-13.983 16.112,-13.898 16.143,-13.826C16.173,-13.753 16.235,-13.693 16.319,-13.667C16.762,-13.525 17.139,-13.3 17.404,-13.019C17.669,-12.74 17.824,-12.405 17.824,-12.046L17.824,-7.456C17.824,-7.456 17.825,-7.432 17.828,-7.404C17.832,-7.376 17.838,-7.345 17.85,-7.331" style="fill:none;stroke:rgb(255,0,0);stroke-width:0.51px;"/>
    </g>
    <g transform="matrix(1.16917,0,0,0.997755,-19.5398,0.410044)">
        <g transform="matrix(1.11862,0,0,1.11862,-15.8033,-21.6617)">
            <path d="M61.621,216.585C61.826,217.302 62.137,217.929 62.549,218.465C63.399,219.574 64.594,220.143 66.147,220.143C67.841,220.143 69.541,219.238 71.198,217.355C71.397,217.934 71.719,218.45 72.162,218.903C72.967,219.727 73.967,220.143 75.165,220.143C75.931,220.143 76.583,220.06 77.122,219.904C77.349,219.838 77.598,219.737 77.869,219.599C77.884,219.634 77.902,219.668 77.922,219.701C78.097,219.992 78.357,220.143 78.707,220.143L82.484,220.143C82.932,220.143 83.281,219.939 83.505,219.491C83.508,219.485 83.511,219.48 83.513,219.474L88.31,209.175C89.264,207.69 90.228,206.55 91.211,205.76C92.041,205.094 92.693,204.699 93.211,204.659C93.216,204.671 93.214,204.69 93.218,204.706C93.242,204.793 93.25,204.895 93.249,205.014C93.246,205.894 92.777,207.359 91.888,209.423C90.955,211.387 90.38,212.746 90.155,213.502C89.917,214.302 89.797,215.144 89.797,216.029C89.797,217.294 90.154,218.282 90.824,219.008C91.512,219.753 92.442,220.143 93.627,220.143C94.414,220.143 95.107,220.063 95.705,219.909C96.305,219.755 97.052,219.411 97.943,218.863C98.557,218.486 99.211,217.931 99.902,217.196C100.094,217.84 100.434,218.409 100.917,218.903C101.724,219.729 102.709,220.143 103.873,220.143C104.671,220.143 105.339,220.06 105.877,219.904C106.416,219.747 107.098,219.391 107.915,218.818C108.474,218.425 109.069,217.867 109.697,217.137C109.892,217.715 110.198,218.246 110.615,218.73C111.429,219.677 112.426,220.143 113.6,220.143C114.484,220.143 115.224,220.062 115.82,219.909C116.427,219.753 117.159,219.397 118.009,218.825C118.751,218.325 119.56,217.554 120.426,216.503C120.678,217.434 121.077,218.214 121.615,218.846C122.627,220.036 124.134,220.662 126.159,220.662C128.604,220.662 130.954,219.565 133.185,217.322C133.662,217.472 134.146,217.546 134.635,217.546C135.261,217.546 135.825,217.463 136.326,217.301C136.828,217.14 137.339,216.874 137.859,216.498C138.337,216.152 138.757,215.814 139.12,215.484C139.491,215.147 139.88,214.717 140.285,214.195C140.671,213.696 140.992,213.262 141.249,212.892C141.505,212.524 141.794,212.084 142.114,211.573C142.298,211.289 142.336,210.961 142.148,210.585C142.121,210.53 142.086,210.479 142.045,210.434C141.43,209.757 141.071,209.391 140.982,209.323C140.976,209.319 140.97,209.314 140.964,209.31C140.736,209.113 140.496,209.092 140.3,209.131C140.113,209.169 139.895,209.278 139.742,209.566C138.711,211.252 137.737,212.484 136.808,213.248C136.455,213.539 136.114,213.759 135.782,213.901C137.089,211.698 137.733,209.541 137.733,207.436C137.733,205.555 137.204,204.028 136.177,202.844C135.134,201.642 133.581,201.009 131.495,201.009C129.633,201.009 127.793,201.649 125.982,202.952C124.217,204.222 122.797,205.847 121.725,207.827C121.175,208.843 120.766,209.864 120.497,210.889C119.445,212.386 118.459,213.568 117.535,214.433C116.479,215.422 115.646,215.976 114.969,215.976L114.949,215.976C114.94,215.93 114.927,215.853 114.927,215.793C114.927,215.006 115.172,214.009 115.638,212.799C116.125,211.536 117.351,208.759 119.316,204.467C119.316,204.467 121.485,204.467 121.485,204.467C121.986,204.467 122.339,204.244 122.553,203.815L123.319,202.141C123.329,202.12 123.337,202.098 123.345,202.075C123.444,201.779 123.409,201.508 123.261,201.262C123.086,200.97 122.826,200.82 122.476,200.82C122.476,200.82 121.021,200.82 121.021,200.82C121.729,199.298 122.756,197.077 124.103,194.156C124.32,193.798 124.279,193.466 124.036,193.161C123.835,192.91 123.58,192.793 123.279,192.793L119.549,192.793C119.052,192.793 118.685,193.023 118.47,193.515C116.863,196.957 115.728,199.392 115.063,200.82C115.063,200.82 113.6,200.82 113.6,200.82C113.099,200.82 112.746,201.042 112.531,201.472L111.767,203.189C111.649,203.435 111.639,203.717 111.824,204.025C111.999,204.317 112.259,204.467 112.608,204.467L113.361,204.467C112.369,206.623 111.594,208.354 111.037,209.66C109.69,211.739 108.44,213.396 107.282,214.629C106.602,215.353 106.045,215.864 105.604,216.154C105.445,216.258 105.325,216.34 105.221,216.352C105.212,216.303 105.201,216.23 105.201,216.171C105.201,215.436 105.496,214.337 106.054,212.866C106.65,211.3 108.139,207.962 110.521,202.854C110.532,202.831 110.541,202.808 110.549,202.783C110.618,202.578 110.622,202.385 110.568,202.204C111.095,201.6 105.211,201.439 105.24,201.707C105.073,201.816 104.938,201.974 104.835,202.18C104.832,202.186 104.829,202.191 104.827,202.197C103.241,205.611 102.074,208.207 101.326,209.984C100.238,211.674 99.078,213.158 97.846,214.433C97.075,215.23 96.433,215.793 95.912,216.112C95.688,216.249 95.508,216.344 95.353,216.353C95.344,216.304 95.333,216.23 95.333,216.171C95.333,215.718 95.566,214.98 95.991,213.945C96.46,212.803 97.337,210.869 98.621,208.145C98.627,208.133 98.632,208.121 98.637,208.108C99.05,207.077 99.251,206.097 99.251,205.169C99.251,204.135 98.872,203.243 98.106,202.497C97.36,201.769 96.359,201.386 95.091,201.386C94.461,201.386 93.939,201.412 93.524,201.462C93.086,201.515 92.496,201.691 91.759,202.007C91.622,202.066 91.485,202.13 91.349,202.198C91.327,202.12 91.292,202.044 91.248,201.97C91.073,201.678 90.813,201.528 90.464,201.528L86.686,201.528C86.185,201.528 85.832,201.751 85.618,202.18C85.615,202.185 85.612,202.191 85.61,202.197L82.109,209.711C80.773,211.8 79.555,213.45 78.45,214.659C77.798,215.374 77.265,215.878 76.845,216.164C76.706,216.259 76.603,216.339 76.513,216.352C76.504,216.303 76.493,216.229 76.493,216.171C76.493,215.437 76.764,214.384 77.277,213.004C77.825,211.532 79.196,208.448 81.388,203.752C81.399,203.728 81.409,203.705 81.417,203.68C81.515,203.384 81.48,203.114 81.332,202.867C81.157,202.576 80.898,202.425 80.548,202.425L76.771,202.425C76.474,202.425 76.228,202.504 76.033,202.657C75.297,201.695 74.133,201.198 72.521,201.198C70.986,201.198 69.483,201.644 68.016,202.548C66.585,203.43 65.396,204.537 64.447,205.869C63.517,207.174 62.767,208.569 62.196,210.053C62.139,210.201 62.085,210.349 62.033,210.495C60.879,212.178 59.802,213.493 58.798,214.433C57.741,215.422 56.909,215.976 56.231,215.976L56.212,215.976C56.203,215.93 56.19,215.853 56.19,215.793C56.19,215.006 56.434,214.009 56.901,212.799C57.388,211.536 58.614,208.759 60.578,204.467C60.578,204.467 62.747,204.467 62.747,204.467C63.248,204.467 63.601,204.244 63.816,203.815L64.581,202.141C64.591,202.12 64.6,202.098 64.607,202.075C64.706,201.779 64.671,201.508 64.523,201.262C64.348,200.97 64.089,200.82 63.739,200.82C63.739,200.82 62.283,200.82 62.283,200.82C62.992,199.298 64.019,197.077 65.365,194.156C65.583,193.798 65.542,193.466 65.298,193.161C65.098,192.91 64.843,192.793 64.542,192.793L60.811,192.793C60.315,192.793 59.947,193.023 59.732,193.515C58.126,196.957 56.99,199.392 56.326,200.82C56.326,200.82 54.862,200.82 54.862,200.82C54.361,200.82 54.008,201.042 53.794,201.472L53.03,203.189C52.912,203.435 52.902,203.717 53.086,204.025C53.261,204.317 53.521,204.467 53.871,204.467L54.623,204.467C52.914,208.182 51.849,210.64 51.424,211.841C50.939,213.214 50.701,214.438 50.701,215.51C50.701,216.747 51.095,217.82 51.878,218.73C52.692,219.677 53.689,220.143 54.862,220.143C55.747,220.143 56.487,220.062 57.082,219.909C57.689,219.753 58.422,219.397 59.272,218.825C59.994,218.338 60.78,217.594 61.621,216.585ZM206.992,201.707C206.825,201.816 206.69,201.974 206.587,202.18C206.584,202.186 206.581,202.191 206.579,202.197C204.993,205.611 203.826,208.207 203.078,209.984C201.99,211.674 200.83,213.158 199.598,214.433C198.827,215.23 198.185,215.793 197.664,216.112C197.44,216.249 197.26,216.344 197.105,216.353C197.096,216.304 197.084,216.23 197.084,216.171C197.084,215.718 197.318,214.98 197.743,213.945C198.212,212.803 199.089,210.869 200.373,208.145C200.379,208.133 200.384,208.121 200.389,208.108C200.801,207.077 201.003,206.097 201.003,205.169C201.003,204.135 200.624,203.243 199.858,202.497C199.112,201.769 198.111,201.386 196.843,201.386C196.213,201.386 195.69,201.412 195.276,201.462C194.837,201.515 194.248,201.691 193.511,202.007C193.374,202.066 193.237,202.13 193.101,202.198C193.079,202.12 193.044,202.044 193,201.97C192.825,201.678 192.565,201.528 192.215,201.528L188.438,201.528C187.937,201.528 187.584,201.751 187.37,202.18C187.367,202.185 187.364,202.191 187.362,202.197L183.672,210.116C182.898,211.268 182.074,212.27 181.198,213.119C180.204,214.084 179.265,214.786 178.374,215.217C177.478,215.65 176.71,215.951 176.067,216.115C175.45,216.273 174.884,216.354 174.368,216.354C173.837,216.354 173.435,216.177 173.18,215.785C172.864,215.297 172.721,214.668 172.721,213.905C172.721,213.571 172.748,213.23 172.802,212.883C174.096,212.77 175.479,212.456 176.95,211.936C178.639,211.34 180.162,210.43 181.519,209.206C182.971,207.895 183.675,206.433 183.675,204.839C183.675,203.516 183.177,202.544 182.224,201.902C181.361,201.321 180.178,201.009 178.664,201.009C176.739,201.009 174.852,201.657 173.012,202.975C171.214,204.261 169.787,205.861 168.732,207.775C168.103,208.914 167.662,210.037 167.406,211.141C166.548,212.36 165.647,213.458 164.705,214.433C163.934,215.23 163.292,215.793 162.771,216.112C162.547,216.249 162.366,216.344 162.212,216.353C162.203,216.304 162.191,216.23 162.191,216.171C162.191,215.718 162.424,214.98 162.85,213.945C163.319,212.803 164.196,210.869 165.48,208.145C165.486,208.133 165.491,208.121 165.496,208.108C165.908,207.077 166.11,206.097 166.11,205.169C166.11,204.135 165.731,203.243 164.965,202.497C164.219,201.769 163.218,201.386 161.95,201.386C161.32,201.386 160.797,201.412 160.383,201.462C159.944,201.515 159.355,201.691 158.618,202.007C158.481,202.066 158.344,202.13 158.208,202.198C158.185,202.12 158.151,202.044 158.106,201.97C157.932,201.678 157.672,201.528 157.322,201.528L153.545,201.528C153.044,201.528 152.691,201.751 152.477,202.18C152.474,202.185 152.471,202.191 152.469,202.197L144.725,218.817C144.714,218.84 144.705,218.863 144.697,218.888C144.598,219.184 144.633,219.454 144.781,219.701C144.956,219.992 145.216,220.143 145.565,220.143L149.343,220.143C149.791,220.143 150.14,219.939 150.364,219.491C150.367,219.485 150.369,219.48 150.372,219.474L155.169,209.175C156.123,207.69 157.087,206.55 158.07,205.76C158.9,205.094 159.552,204.699 160.069,204.659C160.075,204.671 160.073,204.69 160.077,204.706C160.101,204.793 160.109,204.895 160.108,205.014C160.105,205.894 159.636,207.359 158.747,209.423C157.814,211.387 157.239,212.746 157.014,213.502C156.776,214.302 156.656,215.144 156.656,216.029C156.656,217.294 157.013,218.282 157.682,219.008C158.371,219.753 159.301,220.143 160.486,220.143C161.273,220.143 161.965,220.063 162.564,219.909C163.163,219.755 163.911,219.411 164.801,218.863C165.646,218.344 166.567,217.491 167.553,216.293C167.808,217.09 168.181,217.806 168.668,218.441C169.717,219.81 171.279,220.52 173.376,220.52C174.13,220.52 174.785,220.487 175.343,220.421C175.913,220.354 176.694,220.15 177.684,219.797C178.346,219.562 178.978,219.269 179.58,218.92C179.494,219.204 179.532,219.463 179.674,219.701C179.849,219.992 180.109,220.143 180.459,220.143L184.236,220.143C184.684,220.143 185.033,219.939 185.257,219.491C185.26,219.485 185.263,219.48 185.265,219.474L190.062,209.175C191.016,207.69 191.98,206.55 192.963,205.76C193.793,205.094 194.445,204.699 194.963,204.659C194.968,204.671 194.966,204.69 194.97,204.706C194.994,204.793 195.002,204.895 195.001,205.014C194.998,205.894 194.529,207.359 193.64,209.423C192.707,211.387 192.132,212.746 191.907,213.502C191.669,214.302 191.549,215.144 191.549,216.029C191.549,217.294 191.906,218.282 192.576,219.008C193.264,219.753 194.194,220.143 195.379,220.143C196.166,220.143 196.859,220.063 197.457,219.909C198.056,219.755 198.804,219.411 199.695,218.863C200.309,218.486 200.963,217.931 201.654,217.196C201.846,217.84 202.186,218.409 202.669,218.903C203.476,219.729 204.461,220.143 205.625,220.143C206.423,220.143 207.091,220.06 207.629,219.904C208.168,219.747 208.85,219.391 209.667,218.818C210.451,218.267 211.307,217.388 212.225,216.171C213.099,215.01 214.125,213.476 215.302,211.569C215.431,211.368 215.464,211.163 215.431,210.962C215.405,210.804 215.332,210.637 215.181,210.478L214.761,210.012C214.496,209.717 214.31,209.515 214.204,209.406C214.033,209.182 213.809,209.106 213.593,209.106C213.418,209.106 213.201,209.163 212.992,209.372C212.958,209.406 212.928,209.443 212.902,209.483C211.512,211.646 210.224,213.362 209.034,214.629C208.354,215.353 207.797,215.864 207.356,216.154C207.197,216.258 207.077,216.34 206.973,216.352C206.964,216.303 206.953,216.23 206.953,216.171C206.953,215.436 207.248,214.337 207.806,212.866C208.402,211.3 209.891,207.962 212.273,202.854C212.284,202.831 212.293,202.808 212.301,202.783C212.37,202.578 212.374,202.385 212.32,202.204C212.847,201.6 206.963,201.439 206.992,201.707ZM132.014,204.467C132.351,204.467 132.562,204.682 132.697,205.05C132.842,205.445 132.906,205.974 132.906,206.633C132.906,207.998 132.602,209.44 132.004,210.96C131.435,211.121 130.893,211.487 130.394,212.083C129.795,212.798 129.506,213.565 129.506,214.377C129.506,214.69 129.551,214.964 129.632,215.2C129.041,215.97 128.476,216.563 127.931,216.971C127.407,217.364 126.917,217.582 126.443,217.582C126.203,217.582 126.046,217.397 125.902,217.117C125.66,216.647 125.551,216.047 125.551,215.321C125.551,213.709 125.96,212.024 126.766,210.263C127.579,208.486 128.516,207.052 129.585,205.968C130.533,205.006 131.32,204.467 132.014,204.467ZM73.897,207.027C73.326,208.264 72.871,209.327 72.532,210.216C71.175,212.488 69.988,214.089 68.954,215.003C68.393,215.499 67.912,215.788 67.469,215.788C67.333,215.788 67.231,215.701 67.138,215.571C66.971,215.337 66.908,215.014 66.908,214.613C66.908,213.45 67.23,212.052 67.856,210.412C68.49,208.75 69.32,207.283 70.348,206.014C71.252,204.897 72.075,204.278 72.899,204.278C73.223,204.278 73.439,204.512 73.619,204.889C73.88,205.438 73.962,206.151 73.897,207.025L73.897,207.027ZM215.319,210.707C215.477,211.207 214.691,211.597 214.691,211.597C214.96,211.597 215.203,211.434 215.307,211.185C215.371,211.029 215.373,210.859 215.319,210.707ZM179.004,204.137C179.034,204.239 179.019,204.364 178.99,204.508C178.916,204.881 178.706,205.329 178.38,205.859C178.378,205.861 178.377,205.864 178.375,205.866C177.405,207.492 175.906,208.675 173.891,209.435C174.49,208.185 175.239,207.052 176.141,206.037C177.214,204.829 178.143,204.156 179.004,204.137ZM210.116,167.035C210.116,165.321 209.656,163.917 208.764,162.815C207.836,161.669 206.543,161.08 204.87,161.08C204.123,161.08 203.369,161.244 202.61,161.577C202.609,161.578 206.985,152.208 206.985,152.208C206.995,152.185 207.005,152.161 207.013,152.137C207.126,151.796 207.061,151.517 206.89,151.29C206.722,151.065 206.481,150.929 206.144,150.929L202.367,150.929C201.866,150.929 201.513,151.151 201.299,151.581C201.296,151.586 201.293,151.591 201.291,151.597L193.026,169.307C192.958,169.454 192.893,169.6 192.83,169.744C191.263,172.174 189.866,173.995 188.633,175.199C188.018,175.8 187.35,176.259 186.63,176.575C187.533,175.533 188.304,174.346 188.945,173.014C189.97,170.881 190.474,168.887 190.474,167.035C190.474,165.321 190.014,163.917 189.122,162.815C188.194,161.669 186.901,161.08 185.227,161.08C184.481,161.08 183.727,161.244 182.968,161.577C182.967,161.578 187.342,152.208 187.342,152.208C187.353,152.185 187.363,152.161 187.371,152.137C187.484,151.796 187.418,151.517 187.248,151.29C187.08,151.065 186.839,150.929 186.502,150.929L182.725,150.929C182.224,150.929 181.871,151.151 181.656,151.581C181.654,151.586 181.651,151.591 181.649,151.597L173.384,169.307C173.254,169.589 173.133,169.866 173.02,170.137C172.084,171.572 171.197,172.62 170.349,173.267C170.057,173.49 169.773,173.663 169.496,173.782C170.802,171.58 171.446,169.423 171.446,167.319C171.446,165.438 170.917,163.911 169.89,162.727C168.847,161.524 167.294,160.891 165.208,160.891C163.346,160.891 161.506,161.532 159.695,162.835C157.93,164.105 156.51,165.729 155.438,167.709C154.899,168.705 154.495,169.704 154.227,170.708C152.275,173.608 150.165,175.893 147.892,177.555L154.792,162.775C154.894,162.61 154.939,162.45 154.935,162.295C155.595,161.629 149.804,161.228 149.823,161.473C149.537,161.566 149.321,161.764 149.171,162.063L145.673,169.553C143.522,172.997 141.182,175.661 138.645,177.537L145.131,163.634C145.142,163.611 145.151,163.587 145.159,163.563C145.258,163.267 145.223,162.996 145.075,162.75C144.9,162.458 144.64,162.308 144.291,162.308L140.56,162.308C140.227,162.308 139.959,162.407 139.754,162.6C139.029,161.597 137.857,161.08 136.217,161.08C134.647,161.08 133.135,161.528 131.685,162.433C130.273,163.313 129.086,164.418 128.122,165.747C127.175,167.053 126.416,168.45 125.844,169.936C125.759,170.158 125.68,170.377 125.607,170.594C124.955,171.498 124.268,172.302 123.547,173.002C122.552,173.967 121.613,174.669 120.723,175.099C119.826,175.532 119.058,175.834 118.416,175.998C117.799,176.156 117.233,176.237 116.716,176.237C116.185,176.237 115.783,176.06 115.528,175.667C115.212,175.18 115.069,174.551 115.069,173.787C115.069,173.453 115.096,173.113 115.15,172.766C116.444,172.653 117.827,172.338 119.299,171.819C120.987,171.223 122.51,170.313 123.867,169.088C125.319,167.778 126.023,166.315 126.023,164.722C126.023,163.399 125.526,162.426 124.572,161.784C123.71,161.203 122.527,160.891 121.013,160.891C119.087,160.891 117.201,161.54 115.36,162.857C113.562,164.144 112.136,165.744 111.08,167.658C110.48,168.746 110.051,169.819 109.79,170.875C108.715,172.483 107.808,173.69 107.067,174.491C106.274,175.348 105.622,175.845 105.032,175.858C105.023,175.809 105.012,175.735 105.012,175.676C105.012,174.692 105.472,173.178 106.351,171.122C107.279,168.952 110.18,162.648 115.053,152.209C115.158,151.991 115.184,151.716 115.022,151.392C114.845,151.038 114.567,150.882 114.214,150.882L110.436,150.882C109.939,150.882 109.572,151.111 109.357,151.604C104.599,161.813 101.779,167.981 100.896,170.109C99.971,172.34 99.524,174.104 99.524,175.393C99.524,176.63 99.917,177.703 100.7,178.613C101.514,179.559 102.511,180.025 103.684,180.025C104.548,180.025 105.247,179.942 105.782,179.787C106.33,179.628 106.998,179.259 107.775,178.659C108.444,178.141 109.173,177.369 109.955,176.336C110.208,177.069 110.562,177.731 111.017,178.324C112.065,179.693 113.627,180.403 115.724,180.403C116.478,180.403 117.134,180.37 117.691,180.304C118.261,180.237 119.043,180.032 120.032,179.68C121.018,179.329 121.938,178.853 122.79,178.251C123.502,177.748 124.3,177.033 125.179,176.101C125.382,176.976 125.733,177.726 126.225,178.353C127.091,179.46 128.293,180.025 129.842,180.025C130.463,180.025 131.077,179.914 131.683,179.686C131.43,180.224 131.243,180.62 131.121,180.874C130.554,181.028 129.943,181.171 129.287,181.302C127.834,181.586 126.712,181.815 125.922,181.989C125.114,182.167 124.267,182.401 123.379,182.691C122.409,183.009 121.709,183.365 121.269,183.735C120.815,184.116 120.434,184.577 120.126,185.121C119.805,185.688 119.638,186.347 119.638,187.102C119.638,188.611 120.205,189.813 121.327,190.715C122.399,191.576 123.74,192.018 125.357,192.018C126.365,192.018 127.231,191.923 127.954,191.738C128.687,191.55 129.508,191.158 130.41,190.547C130.472,190.603 130.535,190.658 130.601,190.711C131.657,191.574 132.991,192.018 134.611,192.018C135.652,192.018 136.533,191.923 137.255,191.738C137.996,191.549 138.817,191.151 139.712,190.531C140.581,189.929 141.472,189.015 142.374,187.779C143.207,186.637 144.115,185.155 145.096,183.331C147.347,182.394 149.447,181.046 151.395,179.287C152.301,178.469 153.211,177.483 154.123,176.328C154.374,177.285 154.779,178.084 155.327,178.728C156.34,179.919 157.847,180.545 159.872,180.545C162.317,180.545 164.667,179.448 166.898,177.204C167.375,177.354 167.859,177.429 168.347,177.429C168.974,177.429 169.538,177.345 170.039,177.184C170.54,177.023 171.052,176.757 171.571,176.381C171.708,176.283 171.839,176.185 171.966,176.087C172.032,176.431 172.127,176.738 172.247,177.009C172.49,177.554 172.793,177.95 173.136,178.212C173.271,178.315 173.407,178.399 173.545,178.465C173.659,178.728 173.818,178.961 174.02,179.163C174.453,179.596 174.931,179.856 175.447,179.959C175.897,180.049 176.409,180.071 176.985,180.017C177.372,179.98 179.375,180.32 180.224,180.421C180.45,180.447 180.616,180.458 180.692,180.455C181.761,180.578 182.714,180.639 183.551,180.639C184.417,180.639 185.218,180.59 185.953,180.492C186.743,180.386 187.48,180.149 188.164,179.781C188.81,179.433 189.414,179.044 189.976,178.614C190.549,178.176 191.149,177.564 191.771,176.773L191.787,176.752C191.819,176.841 191.853,176.927 191.89,177.009C192.132,177.554 192.435,177.95 192.778,178.212C192.913,178.315 193.05,178.399 193.187,178.465C193.301,178.728 193.46,178.961 193.662,179.163C194.095,179.596 194.574,179.856 195.089,179.959C195.539,180.049 196.052,180.071 196.628,180.017C197.014,179.98 199.018,180.32 199.866,180.421C200.092,180.447 200.258,180.458 200.334,180.455C201.403,180.578 202.211,180.706 202.913,180.492C206.943,179.262 210.116,170.703 210.116,167.035ZM132.86,188.019C132.934,187.98 133,187.927 133.056,187.862C133.073,187.842 133.088,187.822 133.102,187.801C133.032,187.889 132.942,187.957 132.84,188L132.853,188.013L132.86,188.019ZM128.484,185.423C127.278,186.928 125.983,187.711 124.554,187.711C124.34,187.711 124.164,187.675 124.041,187.559C123.948,187.472 123.899,187.368 123.899,187.244C123.899,186.897 124.183,186.693 124.63,186.52C125.273,186.27 126.559,185.906 128.484,185.423ZM137.779,185.413C135.924,185.878 134.665,186.234 134.003,186.484C133.765,186.854 133.532,187.199 133.305,187.52C133.316,187.534 133.329,187.547 133.343,187.559C133.466,187.675 133.642,187.711 133.856,187.711C135.266,187.711 136.558,186.924 137.779,185.413ZM86.555,181.75C86.532,181.712 86.437,181.553 86.383,181.42C86.266,181.136 86.22,180.747 86.22,180.256C86.22,178.112 86.676,175.656 87.58,172.884C88.503,170.051 90.219,165.88 92.723,160.37C92.725,160.366 92.727,160.361 92.729,160.357C92.822,160.14 93.327,159.156 94.242,157.405C95.18,155.607 95.951,153.984 96.556,152.537C97.199,150.996 97.504,149.798 97.504,148.951C97.504,147.647 97.049,146.588 96.155,145.768C95.26,144.948 94.303,144.554 93.297,144.554C91.651,144.554 90.004,144.883 88.359,145.543C86.309,145.477 84.169,145.33 81.938,145.101C79.613,144.862 77.717,144.743 76.251,144.743C73.086,144.743 70.083,145.261 67.241,146.294C64.386,147.333 62.012,148.683 60.114,150.337C58.212,151.995 56.702,153.817 55.58,155.8C54.432,157.831 53.865,159.83 53.865,161.794C53.865,164.15 54.654,166.137 56.225,167.759C57.812,169.398 59.613,170.204 61.614,170.204C63.976,170.204 65.979,169.341 67.622,167.613C69.277,165.871 70.072,164.157 70.072,162.502C70.072,161.507 69.651,160.799 68.834,160.362C68.302,160.042 67.892,160.094 67.676,160.21C67.44,160.337 67.227,160.584 67.227,161.039C67.227,161.851 66.741,162.717 65.848,163.678C64.953,164.64 63.973,165.141 62.889,165.141C62.122,165.141 61.532,164.89 61.137,164.351C60.69,163.742 60.487,162.917 60.487,161.889C60.487,160.38 60.908,158.813 61.736,157.186C62.584,155.521 63.689,154.029 65.052,152.712C66.416,151.393 68.016,150.311 69.85,149.462C71.661,148.624 73.464,148.201 75.26,148.201C76.383,148.201 77.467,148.225 78.512,148.272C79.548,148.318 80.291,148.364 80.739,148.41C81.193,148.457 81.928,148.543 82.945,148.669C83.008,148.676 83.069,148.684 83.128,148.691C79.697,151.526 76.311,155.81 72.983,161.554C71.167,164.686 69.577,167.263 68.215,169.283C66.876,171.269 65.708,172.764 64.708,173.764C63.748,174.724 62.943,175.38 62.279,175.72C61.668,176.032 61.038,176.19 60.387,176.19C60.318,176.19 60.258,176.157 60.2,176.108C59.82,175.792 59.521,175.717 59.395,175.717C59.106,175.717 58.71,175.885 58.421,176.464C58.255,176.796 58.162,177.208 58.162,177.706C58.162,178.795 58.658,179.917 59.711,181.042C60.763,182.166 61.983,182.717 63.361,182.717C64.001,182.717 64.614,182.618 65.201,182.423C65.79,182.227 66.381,181.891 66.97,181.409C67.497,180.978 67.977,180.571 68.408,180.188C68.863,179.783 69.38,179.171 69.953,178.346C70.488,177.574 70.93,176.936 71.276,176.431C71.631,175.916 72.107,175.118 72.703,174.039C73.288,172.98 73.723,172.181 74.008,171.644C74.292,171.107 74.749,170.223 75.381,168.992C75.879,168.021 76.259,167.277 76.521,166.758C76.521,166.758 83.249,166.758 83.249,166.758C81.819,169.973 80.794,172.581 80.171,174.58C79.473,176.822 79.126,178.95 79.126,180.964C79.126,182.236 79.498,183.305 80.225,184.177C80.988,185.093 81.962,185.55 83.145,185.55C84.181,185.55 85.136,185.29 86.011,184.772C86.569,184.442 86.952,184.117 87.175,183.821C87.401,183.521 87.495,183.224 87.495,182.947C87.495,182.561 87.332,182.246 86.985,182.015C86.842,181.919 86.699,181.831 86.555,181.75ZM141.65,179.481C141.168,179.842 140.585,180.276 139.987,180.714C140.619,180.375 141.153,179.987 141.541,179.596C141.579,179.558 141.615,179.52 141.65,179.481ZM165.727,164.35C166.064,164.35 166.275,164.564 166.41,164.932C166.555,165.328 166.618,165.857 166.618,166.516C166.618,167.881 166.315,169.322 165.716,170.843C165.148,171.004 164.606,171.37 164.106,171.966C163.508,172.681 163.219,173.448 163.219,174.259C163.219,174.573 163.263,174.847 163.345,175.083C162.754,175.853 162.189,176.445 161.644,176.854C161.12,177.247 160.629,177.464 160.155,177.464C159.915,177.464 159.759,177.28 159.615,177C159.373,176.53 159.264,175.929 159.264,175.204C159.264,173.592 159.672,171.907 160.478,170.146C161.292,168.369 162.229,166.935 163.298,165.851C164.246,164.889 165.032,164.35 165.727,164.35ZM196.482,174.695L197.446,172.608C198.219,170.999 198.977,169.606 199.72,168.43C200.436,167.296 201.081,166.457 201.662,165.92C202.228,165.398 202.717,165.018 203.138,164.786C203.474,164.6 203.764,164.491 204.02,164.491C204.164,164.491 204.258,164.57 204.316,164.709C204.405,164.924 204.439,165.213 204.439,165.572C204.439,167.164 203.947,169.039 202.985,171.203C202.105,173.184 201.118,174.742 200.013,175.869C199.07,175.468 197.385,174.913 196.482,174.695ZM176.84,174.695L177.804,172.608C178.577,170.999 179.335,169.606 180.078,168.43C180.794,167.296 181.438,166.457 182.02,165.92C182.585,165.398 183.075,165.018 183.496,164.786C183.832,164.6 184.122,164.491 184.378,164.491C184.522,164.491 184.616,164.57 184.674,164.709C184.763,164.924 184.797,165.213 184.797,165.572C184.797,167.164 184.305,169.039 183.343,171.203C182.463,173.184 181.476,174.742 180.371,175.869C179.428,175.468 177.743,174.913 176.84,174.695ZM131.164,175.67C131.018,175.67 130.907,175.599 130.822,175.471C130.663,175.233 130.603,174.904 130.603,174.495C130.603,173.333 130.925,171.934 131.551,170.295C132.186,168.633 133.016,167.166 134.043,165.897C134.945,164.782 135.751,164.161 136.547,164.161C136.895,164.161 137.126,164.405 137.309,164.809C137.575,165.392 137.659,166.156 137.592,167.095C137.592,167.098 136.1,170.262 136.1,170.262C134.775,172.473 133.616,174.028 132.606,174.914C132.062,175.392 131.595,175.67 131.164,175.67ZM121.352,164.02C121.382,164.122 121.368,164.246 121.339,164.39C121.264,164.764 121.054,165.212 120.728,165.742C120.727,165.744 120.725,165.747 120.724,165.749C119.753,167.374 118.254,168.558 116.24,169.318C116.838,168.067 117.587,166.934 118.489,165.92C119.563,164.712 120.492,164.039 121.352,164.02ZM78.671,162.78C82.407,156.213 85.927,151.682 89.265,149.194L90.369,149.193C90.82,149.193 91.23,149.176 91.599,149.142C91.464,149.587 91.26,150.099 90.992,150.677C90.492,151.756 89.765,153.202 88.811,155.015C87.845,156.852 87.046,158.451 86.412,159.813C85.851,161.017 85.402,162.006 85.066,162.78L78.671,162.78Z" style="fill:none;stroke:rgb(0,0,255);stroke-width:1.1px;"/>
        </g>
        <g transform="matrix(1,0,-0.225312,1,34.4406,-1.48561)">
            <circle cx="157.19" cy="152.978" r="3.545" style="fill:none;stroke:rgb(0,0,255);stroke-width:1.4px;stroke-linecap:round;stroke-miterlimit:1.5;"/>
        </g>
        <g transform="matrix(1,0,-0.225312,1,98.4898,43.9928)">
            <circle cx="157.19" cy="152.978" r="3.545" style="fill:none;stroke:rgb(0,0,255);stroke-width:1.4px;stroke-linecap:round;stroke-miterlimit:1.5;"/>
        </g>
        <g transform="matrix(1,0,-0.225312,1,65.6141,42.9928)">
            <path d="M160.796,149.57C162.753,149.57 157.157,156.536 155.201,156.536C153.244,156.536 153.645,154.934 153.645,152.978C153.645,151.755 154.237,150.555 155.18,149.917C155.746,149.534 160.062,149.57 160.796,149.57Z" style="fill:none;stroke:rgb(0,0,255);stroke-width:1.4px;stroke-linecap:round;stroke-miterlimit:1.5;"/>
        </g>
        <g transform="matrix(1,0,-0.225312,1,-14.9745,42.9928)">
            <path d="M160.796,149.57C162.753,149.57 157.157,156.536 155.201,156.536C153.244,156.536 153.645,154.934 153.645,152.978C153.645,151.755 154.237,150.555 155.18,149.917C155.746,149.534 160.062,149.57 160.796,149.57Z" style="fill:none;stroke:rgb(0,0,255);stroke-width:1.4px;stroke-linecap:round;stroke-miterlimit:1.5;"/>
        </g>
        <g transform="matrix(1,0,-0.225312,1,14.3479,43.6506)">
            <path d="M160.796,149.57C162.753,149.57 157.157,156.536 155.201,156.536C153.244,156.536 153.645,154.934 153.645,152.978C153.645,151.755 154.237,150.555 155.18,149.917C155.746,149.534 160.062,149.57 160.796,149.57Z" style="fill:none;stroke:rgb(0,0,255);stroke-width:1.4px;stroke-linecap:round;stroke-miterlimit:1.5;"/>
        </g>
    </g>
    <g transform="matrix(2.85286,0,0,2.85286,232.04,228.67)">
        <path d="M2.181,2.992C2.181,3.891 1.815,4.705 1.224,5.294C0.633,5.883 -0.184,6.247 -1.084,6.247C-1.985,6.247 -2.803,5.883 -3.395,5.294C-3.988,4.705 -4.355,3.891 -4.355,2.992C-4.355,2.732 -4.323,2.478 -4.264,2.234C-4.204,1.99 -4.117,1.756 -4.006,1.536L1.832,1.536C1.942,1.756 2.029,1.99 2.089,2.234C2.149,2.478 2.181,2.732 2.181,2.992M-8.466,2.992C-8.466,3.891 -8.833,4.705 -9.426,5.294C-10.019,5.883 -10.837,6.247 -11.737,6.247C-12.638,6.247 -13.454,5.883 -14.045,5.294C-14.636,4.705 -15.002,3.891 -15.002,2.992C-15.002,2.732 -14.97,2.478 -14.911,2.234C-14.851,1.99 -14.764,1.756 -14.653,1.536L-8.815,1.536C-8.705,1.756 -8.618,1.99 -8.558,2.234C-8.498,2.478 -8.466,2.732 -8.466,2.992M-37.663,16.423C-37.733,16.745 -37.77,17.051 -37.769,17.356C-37.768,17.661 -37.73,17.965 -37.65,18.284L-39.108,19.146L-40.578,18.274L-42.049,17.402L-40.6,16.497L-39.151,15.591L-37.663,16.423ZM-38.017,13.482L-37.999,11.886L-37.982,10.291C-37.982,10.27 -37.971,10.253 -37.955,10.244C-37.939,10.234 -37.919,10.233 -37.901,10.243L-36.46,11.007L-35.02,11.772C-34.998,11.783 -34.98,11.801 -34.967,11.821C-34.955,11.841 -34.948,11.865 -34.948,11.89L-34.939,12.626L-34.932,13.363C-34.931,13.399 -34.943,13.434 -34.963,13.462C-34.983,13.491 -35.013,13.513 -35.047,13.525C-35.299,13.613 -35.547,13.728 -35.78,13.866C-36.014,14.004 -36.234,14.165 -36.432,14.344C-36.461,14.37 -36.498,14.386 -36.535,14.391C-36.572,14.396 -36.61,14.388 -36.645,14.369L-37.287,14.001L-37.929,13.635C-37.957,13.619 -37.979,13.597 -37.994,13.57C-38.009,13.544 -38.017,13.514 -38.017,13.482M-36.366,20.387C-36.161,20.565 -35.934,20.725 -35.693,20.859C-35.453,20.993 -35.198,21.103 -34.938,21.183C-34.905,21.192 -34.877,21.212 -34.857,21.238C-34.837,21.265 -34.825,21.297 -34.825,21.332L-34.817,22.055L-34.809,22.779C-34.809,22.812 -34.817,22.843 -34.833,22.871C-34.849,22.898 -34.872,22.921 -34.9,22.937L-36.262,23.7L-37.624,24.464C-37.666,24.487 -37.713,24.485 -37.751,24.464C-37.788,24.443 -37.815,24.404 -37.817,24.355L-37.872,22.811L-37.927,21.268C-37.929,21.225 -37.918,21.184 -37.898,21.147C-37.878,21.111 -37.849,21.081 -37.813,21.059L-37.219,20.709L-36.626,20.36C-36.584,20.336 -36.538,20.327 -36.492,20.332C-36.447,20.336 -36.403,20.355 -36.366,20.387M-38.204,9.906L-40.146,10.014C-40.191,10.017 -40.231,10.036 -40.26,10.065C-40.29,10.095 -40.309,10.135 -40.312,10.179L-40.366,11.167L-40.421,12.156C-40.422,12.175 -40.433,12.19 -40.447,12.198C-40.462,12.206 -40.48,12.207 -40.497,12.198L-41.571,11.595L-42.646,10.993C-42.681,10.973 -42.72,10.97 -42.755,10.98C-42.791,10.989 -42.822,11.013 -42.842,11.047L-43.345,11.944L-43.849,12.841C-43.863,12.865 -43.865,12.893 -43.858,12.918C-43.851,12.943 -43.834,12.965 -43.81,12.979L-41.704,14.163C-41.67,14.182 -41.652,14.215 -41.651,14.249C-41.649,14.283 -41.665,14.317 -41.696,14.339L-42.225,14.7L-42.753,15.061C-42.785,15.083 -42.823,15.087 -42.857,15.078C-42.891,15.068 -42.921,15.045 -42.938,15.009C-43.664,13.475 -44.982,12.182 -46.634,11.162C-48.287,10.143 -50.273,9.397 -52.337,8.956C-52.394,8.943 -52.428,8.899 -52.433,8.851C-52.439,8.803 -52.417,8.752 -52.364,8.728C-51.856,8.49 -51.384,8.188 -50.96,7.831C-50.536,7.474 -50.158,7.064 -49.839,6.611C-49.808,6.567 -49.76,6.545 -49.712,6.545C-49.665,6.545 -49.617,6.567 -49.586,6.612C-49.014,7.428 -48.252,8.105 -47.364,8.578C-46.477,9.051 -45.463,9.319 -44.389,9.319C-43.318,9.319 -42.308,9.052 -41.422,8.583C-40.536,8.113 -39.775,7.44 -39.203,6.627C-39.168,6.58 -39.117,6.555 -39.065,6.555C-39.013,6.555 -38.961,6.579 -38.927,6.627C-38.704,6.94 -38.454,7.233 -38.18,7.501C-37.905,7.77 -37.607,8.014 -37.29,8.229C-37.246,8.259 -37.216,8.303 -37.206,8.351C-37.195,8.399 -37.202,8.451 -37.23,8.497L-37.641,9.156L-38.051,9.815C-38.067,9.842 -38.09,9.864 -38.116,9.879C-38.142,9.895 -38.172,9.904 -38.204,9.906M-62.424,2.992C-62.424,3.891 -62.79,4.705 -63.381,5.294C-63.972,5.883 -64.788,6.247 -65.689,6.247C-66.589,6.247 -67.406,5.883 -67.997,5.294C-68.588,4.705 -68.954,3.891 -68.954,2.992C-68.954,2.732 -68.922,2.478 -68.862,2.234C-68.802,1.99 -68.715,1.756 -68.604,1.536L-62.767,1.536C-62.656,1.756 -62.571,1.99 -62.512,2.234C-62.454,2.478 -62.424,2.732 -62.424,2.992M-68.954,-35.333C-68.954,-36.232 -68.588,-37.047 -67.997,-37.638C-67.406,-38.229 -66.589,-38.594 -65.689,-38.594C-64.788,-38.594 -63.972,-38.229 -63.381,-37.638C-62.79,-37.047 -62.424,-36.232 -62.424,-35.333C-62.424,-35.072 -62.454,-34.818 -62.512,-34.574C-62.571,-34.331 -62.656,-34.096 -62.767,-33.876L-68.604,-33.876C-68.715,-34.096 -68.802,-34.331 -68.862,-34.574C-68.922,-34.818 -68.954,-35.072 -68.954,-35.333M-58.307,-35.333C-58.307,-36.232 -57.941,-37.047 -57.349,-37.638C-56.757,-38.229 -55.939,-38.594 -55.036,-38.594C-54.135,-38.594 -53.32,-38.229 -52.731,-37.638C-52.141,-37.047 -51.777,-36.232 -51.777,-35.333C-51.777,-35.072 -51.807,-34.818 -51.866,-34.574C-51.924,-34.331 -52.009,-34.096 -52.12,-33.876L-57.958,-33.876C-58.068,-34.096 -58.155,-34.331 -58.215,-34.574C-58.275,-34.818 -58.307,-35.072 -58.307,-35.333M-48.064,-42.853C-46.821,-43.371 -45.774,-44.016 -44.925,-44.785C-44.077,-45.553 -43.426,-46.446 -42.977,-47.46C-42.966,-47.484 -42.946,-47.5 -42.924,-47.507C-42.901,-47.514 -42.876,-47.511 -42.854,-47.496L-42.271,-47.097L-41.687,-46.698C-41.657,-46.677 -41.643,-46.645 -41.644,-46.613C-41.645,-46.581 -41.661,-46.549 -41.692,-46.531L-42.018,-46.339L-42.893,-45.853L-43.769,-45.367C-43.804,-45.347 -43.829,-45.314 -43.839,-45.278C-43.85,-45.241 -43.846,-45.2 -43.826,-45.164L-43.333,-44.289L-42.842,-43.413C-42.822,-43.378 -42.791,-43.354 -42.755,-43.345C-42.72,-43.335 -42.681,-43.338 -42.646,-43.358L-40.944,-44.316L-40.524,-44.548C-40.501,-44.561 -40.476,-44.56 -40.456,-44.548C-40.435,-44.537 -40.42,-44.516 -40.419,-44.49L-40.307,-42.456C-40.305,-42.436 -40.297,-42.419 -40.284,-42.406C-40.271,-42.394 -40.254,-42.385 -40.235,-42.384L-38.177,-42.27C-38.154,-42.268 -38.132,-42.261 -38.113,-42.25C-38.093,-42.238 -38.077,-42.222 -38.064,-42.203L-37.644,-41.524L-37.223,-40.847C-37.195,-40.802 -37.188,-40.751 -37.198,-40.703C-37.208,-40.656 -37.237,-40.612 -37.28,-40.583C-37.594,-40.368 -37.89,-40.127 -38.162,-39.862C-38.435,-39.596 -38.684,-39.307 -38.906,-38.998C-38.946,-38.942 -39.005,-38.915 -39.065,-38.915C-39.125,-38.916 -39.184,-38.943 -39.223,-38.998C-39.797,-39.805 -40.556,-40.472 -41.438,-40.937C-42.32,-41.402 -43.324,-41.666 -44.389,-41.666C-45.503,-41.666 -46.553,-41.376 -47.464,-40.87C-48.375,-40.362 -49.148,-39.637 -49.712,-38.765C-50.125,-39.402 -50.648,-39.959 -51.256,-40.41C-51.863,-40.862 -52.555,-41.207 -53.303,-41.418C-53.339,-41.429 -53.354,-41.459 -53.352,-41.489C-53.349,-41.518 -53.328,-41.546 -53.292,-41.55C-52.286,-41.679 -51.345,-41.852 -50.473,-42.068C-49.6,-42.286 -48.796,-42.547 -48.064,-42.853M-4.355,-35.333C-4.355,-36.232 -3.988,-37.047 -3.395,-37.638C-2.803,-38.229 -1.985,-38.594 -1.084,-38.594C-0.184,-38.594 0.633,-38.229 1.224,-37.638C1.815,-37.047 2.181,-36.232 2.181,-35.333C2.181,-35.072 2.149,-34.818 2.089,-34.574C2.029,-34.331 1.942,-34.096 1.832,-33.876L-4.006,-33.876C-4.117,-34.096 -4.204,-34.331 -4.264,-34.574C-4.323,-34.818 -4.355,-35.072 -4.355,-35.333M-19.125,2.992C-19.125,3.891 -19.491,4.705 -20.082,5.294C-20.672,5.883 -21.487,6.247 -22.384,6.247C-23.288,6.247 -24.105,5.883 -24.698,5.294C-25.29,4.705 -25.655,3.891 -25.655,2.992C-25.655,2.732 -25.624,2.478 -25.563,2.234C-25.504,1.99 -25.417,1.756 -25.306,1.536L-19.468,1.536C-19.358,1.756 -19.272,1.99 -19.214,2.234C-19.156,2.478 -19.125,2.732 -19.125,2.992M-30.471,2.992C-30.471,3.891 -30.836,4.705 -31.428,5.294C-32.019,5.883 -32.835,6.247 -33.736,6.247C-34.636,6.247 -35.454,5.883 -36.047,5.294C-36.639,4.705 -37.007,3.891 -37.007,2.992C-37.007,2.732 -36.975,2.478 -36.915,2.234C-36.855,1.99 -36.768,1.756 -36.658,1.536L-30.82,1.536C-30.709,1.756 -30.622,1.99 -30.562,2.234C-30.502,2.478 -30.471,2.732 -30.471,2.992M-41.118,2.992C-41.118,3.891 -41.485,4.705 -42.078,5.294C-42.67,5.883 -43.488,6.247 -44.389,6.247C-45.289,6.247 -46.105,5.883 -46.697,5.294C-47.288,4.705 -47.654,3.891 -47.654,2.992C-47.654,2.732 -47.622,2.478 -47.562,2.234C-47.502,1.99 -47.415,1.756 -47.305,1.536L-41.467,1.536C-41.356,1.756 -41.269,1.99 -41.209,2.234C-41.149,2.478 -41.118,2.732 -41.118,2.992M-47.654,-35.333C-47.654,-36.232 -47.288,-37.047 -46.697,-37.638C-46.105,-38.229 -45.289,-38.594 -44.389,-38.594C-43.488,-38.594 -42.67,-38.229 -42.078,-37.638C-41.485,-37.047 -41.118,-36.232 -41.118,-35.333C-41.118,-35.072 -41.149,-34.818 -41.209,-34.574C-41.269,-34.331 -41.356,-34.096 -41.467,-33.876L-47.305,-33.876C-47.415,-34.096 -47.502,-34.331 -47.562,-34.574C-47.622,-34.818 -47.654,-35.072 -47.654,-35.333M-34.933,-45.613L-34.94,-44.95L-34.947,-44.288C-34.948,-44.255 -34.957,-44.223 -34.974,-44.196C-34.99,-44.169 -35.014,-44.146 -35.043,-44.13L-36.456,-43.381L-37.868,-42.631C-37.894,-42.618 -37.922,-42.62 -37.944,-42.633C-37.966,-42.646 -37.982,-42.67 -37.982,-42.7L-38,-44.299L-38.017,-45.899C-38.017,-45.915 -38.013,-45.929 -38.006,-45.942C-37.999,-45.956 -37.987,-45.966 -37.974,-45.974L-36.654,-46.728C-36.617,-46.749 -36.575,-46.757 -36.535,-46.752C-36.495,-46.747 -36.456,-46.729 -36.424,-46.701C-36.214,-46.512 -35.991,-46.352 -35.752,-46.215C-35.514,-46.079 -35.261,-45.966 -34.994,-45.873C-34.983,-45.869 -34.968,-45.847 -34.955,-45.826C-34.941,-45.804 -34.931,-45.784 -34.931,-45.784L-34.933,-45.613ZM-37.928,-53.609L-37.872,-55.172L-37.816,-56.736C-37.815,-56.781 -37.79,-56.817 -37.755,-56.836C-37.721,-56.856 -37.676,-56.858 -37.637,-56.836L-36.273,-56.072L-34.909,-55.307C-34.877,-55.29 -34.853,-55.264 -34.835,-55.234C-34.818,-55.205 -34.809,-55.17 -34.809,-55.134L-34.825,-53.694C-34.825,-53.66 -34.836,-53.628 -34.856,-53.603C-34.875,-53.577 -34.903,-53.558 -34.935,-53.547C-35.203,-53.464 -35.464,-53.35 -35.711,-53.211C-35.958,-53.072 -36.19,-52.909 -36.401,-52.725C-36.427,-52.703 -36.458,-52.69 -36.49,-52.687C-36.522,-52.683 -36.555,-52.69 -36.584,-52.707L-37.208,-53.071L-37.832,-53.436C-37.863,-53.454 -37.887,-53.479 -37.904,-53.509C-37.92,-53.54 -37.929,-53.574 -37.928,-53.609M-30.768,-46.641L-29.584,-45.949C-29.564,-45.938 -29.549,-45.922 -29.539,-45.903C-29.528,-45.884 -29.522,-45.862 -29.523,-45.839L-29.578,-44.239L-29.631,-42.639C-29.633,-42.6 -29.655,-42.568 -29.685,-42.552C-29.715,-42.535 -29.753,-42.532 -29.788,-42.551L-32.572,-44.113C-32.593,-44.124 -32.609,-44.141 -32.621,-44.161C-32.632,-44.18 -32.639,-44.203 -32.638,-44.227L-32.63,-44.984L-32.622,-45.743C-32.621,-45.766 -32.613,-45.788 -32.6,-45.805C-32.587,-45.823 -32.568,-45.836 -32.546,-45.844C-32.25,-45.937 -31.978,-46.054 -31.721,-46.2C-31.465,-46.346 -31.225,-46.521 -30.994,-46.732C-30.989,-46.736 -30.972,-46.736 -30.956,-46.735C-30.939,-46.734 -30.924,-46.732 -30.924,-46.732L-30.846,-46.687L-30.768,-46.641ZM-32.516,-53.986L-32.509,-54.506L-32.501,-55.025C-32.5,-55.087 -32.482,-55.146 -32.452,-55.197C-32.42,-55.248 -32.376,-55.291 -32.321,-55.32L-31.035,-56.004L-29.748,-56.688C-29.685,-56.722 -29.616,-56.716 -29.562,-56.684C-29.508,-56.652 -29.469,-56.594 -29.469,-56.522L-29.437,-53.648C-29.437,-53.587 -29.453,-53.529 -29.482,-53.478C-29.511,-53.427 -29.554,-53.383 -29.606,-53.353L-30.159,-53.036L-30.711,-52.719C-30.77,-52.686 -30.837,-52.671 -30.902,-52.676C-30.967,-52.682 -31.03,-52.706 -31.082,-52.751C-31.286,-52.927 -31.512,-53.084 -31.751,-53.218C-31.99,-53.352 -32.241,-53.462 -32.496,-53.541C-32.503,-53.543 -32.51,-53.548 -32.515,-53.555C-32.52,-53.561 -32.522,-53.569 -32.522,-53.578L-32.52,-53.782L-32.516,-53.986ZM-37.007,-35.333C-37.007,-36.232 -36.639,-37.047 -36.047,-37.638C-35.454,-38.229 -34.636,-38.594 -33.736,-38.594C-32.835,-38.594 -32.019,-38.229 -31.428,-37.638C-30.836,-37.047 -30.471,-36.232 -30.471,-35.333C-30.471,-35.072 -30.502,-34.818 -30.562,-34.574C-30.622,-34.331 -30.709,-34.096 -30.82,-33.876L-36.658,-33.876C-36.768,-34.096 -36.855,-34.331 -36.915,-34.574C-36.975,-34.818 -37.007,-35.072 -37.007,-35.333M-25.655,-35.333C-25.655,-36.232 -25.29,-37.047 -24.698,-37.638C-24.105,-38.229 -23.288,-38.594 -22.384,-38.594C-21.487,-38.594 -20.672,-38.229 -20.082,-37.638C-19.491,-37.047 -19.125,-36.232 -19.125,-35.333C-19.125,-35.072 -19.156,-34.818 -19.214,-34.574C-19.272,-34.331 -19.358,-34.096 -19.468,-33.876L-25.306,-33.876C-25.417,-34.096 -25.504,-34.331 -25.563,-34.574C-25.624,-34.818 -25.655,-35.072 -25.655,-35.333M-8.815,-33.876L-14.653,-33.876C-14.764,-34.096 -14.851,-34.331 -14.911,-34.574C-14.97,-34.818 -15.002,-35.072 -15.002,-35.333C-15.002,-36.232 -14.636,-37.047 -14.045,-37.638C-13.454,-38.229 -12.638,-38.594 -11.737,-38.594C-10.837,-38.594 -10.019,-38.229 -9.426,-37.638C-8.833,-37.047 -8.466,-36.232 -8.466,-35.333C-8.466,-35.072 -8.498,-34.818 -8.558,-34.574C-8.618,-34.331 -8.705,-34.096 -8.815,-33.876M-24.478,-47.333C-23.691,-45.67 -22.208,-44.329 -20.337,-43.328C-18.465,-42.327 -16.207,-41.667 -13.869,-41.367C-13.85,-41.364 -13.838,-41.35 -13.837,-41.335C-13.835,-41.32 -13.843,-41.304 -13.862,-41.297C-14.504,-41.068 -15.098,-40.74 -15.625,-40.331C-16.152,-39.922 -16.612,-39.431 -16.987,-38.877C-17.005,-38.85 -17.033,-38.837 -17.061,-38.837C-17.089,-38.837 -17.117,-38.85 -17.135,-38.876C-17.707,-39.717 -18.473,-40.415 -19.37,-40.902C-20.267,-41.389 -21.293,-41.666 -22.384,-41.666C-23.604,-41.666 -24.744,-41.321 -25.711,-40.725C-26.678,-40.128 -27.473,-39.28 -28.004,-38.274C-28.017,-38.25 -28.04,-38.238 -28.063,-38.238C-28.086,-38.238 -28.109,-38.25 -28.122,-38.274C-28.376,-38.753 -28.69,-39.196 -29.054,-39.593C-29.418,-39.99 -29.832,-40.341 -30.285,-40.635C-30.334,-40.667 -30.366,-40.715 -30.377,-40.768C-30.389,-40.82 -30.38,-40.876 -30.349,-40.925L-30.016,-41.434L-29.684,-41.942C-29.614,-42.049 -29.545,-42.122 -29.476,-42.168C-29.406,-42.214 -29.336,-42.234 -29.263,-42.236L-28.49,-42.263L-27.718,-42.289C-27.604,-42.292 -27.5,-42.339 -27.422,-42.413C-27.344,-42.487 -27.293,-42.589 -27.284,-42.704L-27.219,-43.547L-27.153,-44.39C-27.151,-44.417 -27.135,-44.437 -27.115,-44.449C-27.094,-44.459 -27.068,-44.46 -27.045,-44.447L-26.064,-43.872L-25.084,-43.297C-25.014,-43.255 -24.933,-43.246 -24.859,-43.265C-24.785,-43.284 -24.719,-43.331 -24.677,-43.401L-24.249,-44.121L-23.821,-44.839C-23.774,-44.917 -23.764,-45.007 -23.785,-45.089C-23.806,-45.171 -23.858,-45.245 -23.937,-45.291L-24.894,-45.858L-25.851,-46.424C-25.877,-46.44 -25.892,-46.468 -25.892,-46.495C-25.893,-46.523 -25.88,-46.551 -25.854,-46.568L-25.232,-46.97L-24.611,-47.372C-24.588,-47.387 -24.561,-47.391 -24.536,-47.383C-24.511,-47.376 -24.49,-47.359 -24.478,-47.333M-28.345,-47.889L-29.02,-48.293L-29.694,-48.697C-29.725,-48.715 -29.748,-48.742 -29.761,-48.772C-29.774,-48.803 -29.778,-48.838 -29.771,-48.874C-29.716,-49.128 -29.685,-49.405 -29.681,-49.681C-29.677,-49.958 -29.702,-50.233 -29.759,-50.487C-29.768,-50.524 -29.764,-50.562 -29.75,-50.595C-29.735,-50.628 -29.711,-50.656 -29.677,-50.675L-29.037,-51.033L-28.396,-51.392C-28.367,-51.408 -28.335,-51.416 -28.303,-51.415C-28.271,-51.414 -28.238,-51.405 -28.21,-51.387L-25.562,-49.741C-25.525,-49.718 -25.506,-49.679 -25.507,-49.64C-25.507,-49.602 -25.526,-49.563 -25.564,-49.541L-26.955,-48.715L-28.345,-47.889ZM-37.696,-50.446C-37.745,-50.201 -37.769,-49.958 -37.769,-49.714C-37.769,-49.471 -37.745,-49.227 -37.7,-48.979C-37.69,-48.924 -37.697,-48.869 -37.719,-48.82C-37.741,-48.771 -37.777,-48.73 -37.826,-48.702L-38.421,-48.367L-39.017,-48.032C-39.058,-48.009 -39.104,-47.998 -39.15,-47.999C-39.196,-48 -39.242,-48.013 -39.282,-48.038L-41.824,-49.624C-41.876,-49.656 -41.902,-49.711 -41.902,-49.766C-41.901,-49.82 -41.874,-49.874 -41.821,-49.906L-39.255,-51.424C-39.21,-51.451 -39.159,-51.464 -39.108,-51.464C-39.057,-51.464 -39.006,-51.451 -38.961,-51.424L-38.395,-51.089L-37.828,-50.754C-37.775,-50.723 -37.736,-50.676 -37.713,-50.622C-37.69,-50.568 -37.684,-50.507 -37.696,-50.446M-57.958,1.536L-52.12,1.536C-52.009,1.756 -51.924,1.99 -51.866,2.234C-51.807,2.478 -51.777,2.732 -51.777,2.992C-51.777,3.891 -52.141,4.705 -52.731,5.294C-53.32,5.883 -54.135,6.247 -55.036,6.247C-55.939,6.247 -56.757,5.883 -57.349,5.294C-57.941,4.705 -58.307,3.891 -58.307,2.992C-58.307,2.732 -58.275,2.478 -58.215,2.234C-58.155,1.99 -58.068,1.756 -57.958,1.536M-29.436,21.149L-29.453,22.756L-29.471,24.363C-29.471,24.387 -29.484,24.407 -29.503,24.418C-29.521,24.429 -29.545,24.431 -29.567,24.419L-32.389,22.919C-32.422,22.901 -32.45,22.875 -32.469,22.843C-32.488,22.812 -32.5,22.775 -32.5,22.737L-32.511,22.014L-32.521,21.292C-32.521,21.259 -32.512,21.23 -32.494,21.205C-32.476,21.181 -32.451,21.162 -32.42,21.151C-32.154,21.063 -31.901,20.945 -31.664,20.803C-31.425,20.661 -31.202,20.494 -30.994,20.306C-30.971,20.285 -30.943,20.273 -30.914,20.27C-30.885,20.266 -30.855,20.271 -30.828,20.287L-29.49,21.055C-29.473,21.064 -29.459,21.078 -29.45,21.095C-29.441,21.111 -29.436,21.13 -29.436,21.149M-32.622,13.346L-32.638,11.934C-32.638,11.888 -32.626,11.844 -32.604,11.806C-32.582,11.767 -32.549,11.735 -32.51,11.712L-31.135,10.942L-29.76,10.171C-29.732,10.155 -29.701,10.157 -29.676,10.171C-29.651,10.185 -29.634,10.211 -29.633,10.243L-29.58,11.808L-29.527,13.374C-29.525,13.427 -29.538,13.479 -29.563,13.524C-29.588,13.569 -29.625,13.608 -29.671,13.635L-30.265,13.981L-30.858,14.329C-30.891,14.347 -30.927,14.355 -30.962,14.351C-30.998,14.347 -31.033,14.332 -31.061,14.307C-31.278,14.117 -31.504,13.959 -31.744,13.824C-31.984,13.69 -32.238,13.581 -32.513,13.49C-32.531,13.484 -32.558,13.448 -32.581,13.414C-32.604,13.379 -32.622,13.346 -32.622,13.346M-29.751,18.084C-29.702,17.849 -29.68,17.601 -29.681,17.351C-29.682,17.102 -29.706,16.851 -29.749,16.612C-29.762,16.543 -29.751,16.473 -29.723,16.412C-29.693,16.351 -29.646,16.298 -29.585,16.262L-28.491,15.616C-28.446,15.59 -28.396,15.576 -28.345,15.576C-28.294,15.577 -28.244,15.59 -28.199,15.617L-26.988,16.333L-25.778,17.049C-25.691,17.1 -25.647,17.188 -25.646,17.277C-25.646,17.365 -25.687,17.455 -25.773,17.508L-26.971,18.255L-28.17,19.003C-28.21,19.028 -28.256,19.042 -28.303,19.042C-28.349,19.043 -28.396,19.032 -28.437,19.009L-29.041,18.669L-29.644,18.33C-29.687,18.305 -29.719,18.268 -29.738,18.225C-29.756,18.182 -29.761,18.132 -29.751,18.084M-25.763,14.002L-24.802,13.436L-23.841,12.869C-23.789,12.838 -23.754,12.79 -23.74,12.735C-23.727,12.681 -23.733,12.622 -23.764,12.57L-24.237,11.776L-24.709,10.982C-24.742,10.927 -24.794,10.89 -24.853,10.875C-24.91,10.86 -24.974,10.867 -25.03,10.9L-25.968,11.453L-26.907,12.007C-26.962,12.039 -27.024,12.037 -27.074,12.011C-27.123,11.985 -27.161,11.936 -27.166,11.872L-27.23,11.028L-27.296,10.184C-27.302,10.112 -27.334,10.048 -27.383,10.001C-27.432,9.955 -27.497,9.925 -27.569,9.923L-28.456,9.896L-29.342,9.868C-29.391,9.867 -29.437,9.854 -29.478,9.831C-29.519,9.808 -29.554,9.775 -29.581,9.734L-29.975,9.132L-30.368,8.53C-30.391,8.495 -30.397,8.454 -30.389,8.416C-30.38,8.377 -30.357,8.342 -30.321,8.32C-29.868,8.028 -29.453,7.681 -29.087,7.286C-28.721,6.892 -28.404,6.45 -28.146,5.973C-28.128,5.939 -28.096,5.922 -28.063,5.922C-28.031,5.922 -27.998,5.939 -27.98,5.973C-27.445,6.97 -26.652,7.806 -25.689,8.394C-24.727,8.981 -23.596,9.319 -22.384,9.319C-21.312,9.319 -20.301,9.051 -19.416,8.58C-18.529,8.109 -17.768,7.434 -17.193,6.62C-17.16,6.573 -17.111,6.55 -17.061,6.55C-17.011,6.55 -16.961,6.574 -16.929,6.62C-16.637,7.036 -16.295,7.415 -15.912,7.749C-15.528,8.083 -15.104,8.373 -14.649,8.609C-14.616,8.626 -14.603,8.659 -14.607,8.689C-14.611,8.719 -14.633,8.747 -14.67,8.753C-16.754,9.127 -18.801,9.819 -20.523,10.835C-22.246,11.851 -23.643,13.19 -24.426,14.858C-24.452,14.914 -24.5,14.952 -24.553,14.967C-24.606,14.983 -24.666,14.977 -24.718,14.943L-25.244,14.598L-25.769,14.253C-25.815,14.223 -25.837,14.174 -25.836,14.126C-25.835,14.078 -25.811,14.03 -25.763,14.002M-8.896,-40.991C-8.964,-41.026 -8.99,-41.094 -8.979,-41.156C-8.968,-41.218 -8.921,-41.273 -8.845,-41.28C-7.705,-41.392 -6.593,-41.597 -5.562,-41.902C-4.531,-42.206 -3.58,-42.609 -2.763,-43.117C-2.718,-43.144 -2.667,-43.154 -2.618,-43.147C-2.569,-43.141 -2.523,-43.117 -2.488,-43.078C-2.31,-42.875 -2.135,-42.672 -1.962,-42.466C-1.789,-42.261 -1.618,-42.055 -1.45,-41.847C-1.418,-41.808 -1.416,-41.759 -1.433,-41.72C-1.451,-41.681 -1.489,-41.65 -1.539,-41.647C-2.529,-41.576 -3.459,-41.277 -4.274,-40.802C-5.089,-40.328 -5.791,-39.677 -6.323,-38.901C-6.346,-38.867 -6.382,-38.848 -6.419,-38.846C-6.457,-38.843 -6.495,-38.856 -6.522,-38.888L-6.637,-39.041L-6.751,-39.194C-6.77,-39.215 -7.059,-39.54 -7.467,-39.922C-7.875,-40.304 -8.402,-40.743 -8.896,-40.991M-7.956,-44.674C-9.389,-44.881 -10.757,-45.46 -11.978,-46.277C-13.197,-47.094 -14.269,-48.148 -15.108,-49.304C-15.169,-49.387 -15.264,-49.411 -15.347,-49.389C-15.43,-49.366 -15.5,-49.297 -15.512,-49.195C-15.588,-48.501 -15.607,-47.88 -15.521,-47.266C-15.436,-46.651 -15.245,-46.044 -14.901,-45.38C-14.871,-45.32 -14.881,-45.255 -14.915,-45.208C-14.95,-45.16 -15.009,-45.131 -15.075,-45.144C-16.062,-45.33 -17.415,-45.851 -18.605,-46.621C-19.796,-47.391 -20.823,-48.411 -21.159,-49.596C-21.349,-50.254 -21.309,-50.991 -21.029,-51.62C-20.749,-52.249 -20.228,-52.769 -19.456,-52.992C-19.205,-53.069 -18.963,-53.096 -18.741,-53.077C-18.519,-53.058 -18.316,-52.992 -18.145,-52.882C-18.056,-52.826 -17.976,-52.757 -17.904,-52.676C-17.833,-52.596 -17.771,-52.503 -17.718,-52.399C-17.695,-52.355 -17.701,-52.308 -17.724,-52.27C-17.747,-52.233 -17.788,-52.208 -17.836,-52.209C-18.105,-52.215 -18.381,-52.186 -18.636,-52.11C-18.891,-52.035 -19.125,-51.914 -19.309,-51.738C-19.704,-51.365 -19.813,-50.788 -19.692,-50.253C-19.572,-49.719 -19.223,-49.226 -18.703,-49.021C-18.366,-48.886 -17.963,-48.857 -17.554,-48.924C-17.145,-48.99 -16.73,-49.152 -16.369,-49.4C-15.924,-49.703 -15.589,-50.116 -15.381,-50.597C-15.172,-51.079 -15.091,-51.628 -15.156,-52.203C-15.163,-52.279 -15.173,-52.354 -15.186,-52.429C-15.199,-52.503 -15.214,-52.577 -15.231,-52.649C-15.245,-52.704 -15.223,-52.754 -15.185,-52.784C-15.147,-52.814 -15.094,-52.824 -15.044,-52.799C-13.354,-51.947 -11.73,-50.983 -10.183,-49.916C-8.635,-48.85 -7.164,-47.682 -5.778,-46.42C-5.741,-46.386 -5.738,-46.337 -5.757,-46.299C-5.776,-46.262 -5.817,-46.234 -5.867,-46.244C-6.356,-46.331 -6.787,-46.479 -7.194,-46.673C-7.601,-46.868 -7.985,-47.109 -8.38,-47.385C-8.45,-47.434 -8.532,-47.429 -8.593,-47.391C-8.654,-47.353 -8.694,-47.282 -8.68,-47.198C-8.631,-46.906 -8.547,-46.502 -8.412,-46.084C-8.277,-45.666 -8.091,-45.233 -7.836,-44.884C-7.802,-44.837 -7.803,-44.78 -7.827,-44.738C-7.851,-44.695 -7.898,-44.666 -7.956,-44.674M-22.66,-54.7C-23.141,-54.357 -23.559,-53.947 -23.907,-53.491C-24.256,-53.035 -24.535,-52.533 -24.737,-52.007L-25.315,-52.402L-25.895,-52.796L-24.721,-53.454L-23.548,-54.112L-24.115,-55.116L-24.682,-56.119L-25.854,-55.458L-27.028,-54.797L-27.132,-56.707C-26.185,-56.555 -25.249,-56.373 -24.324,-56.159C-23.399,-55.945 -22.487,-55.701 -21.589,-55.426C-21.56,-55.417 -21.545,-55.393 -21.544,-55.368C-21.542,-55.342 -21.556,-55.317 -21.584,-55.305C-21.77,-55.226 -21.953,-55.136 -22.133,-55.035C-22.313,-54.934 -22.489,-54.822 -22.66,-54.7M-40.451,-54.979L-41.465,-55.577L-42.479,-56.174C-42.519,-56.198 -42.565,-56.203 -42.607,-56.192C-42.649,-56.182 -42.687,-56.155 -42.71,-56.115L-43.207,-55.278L-43.703,-54.442C-43.73,-54.396 -43.736,-54.344 -43.724,-54.297C-43.711,-54.249 -43.681,-54.207 -43.636,-54.18L-41.654,-53.012C-41.615,-52.99 -41.595,-52.95 -41.594,-52.91C-41.594,-52.871 -41.612,-52.83 -41.65,-52.806L-42.48,-52.266C-42.518,-52.241 -42.562,-52.237 -42.6,-52.25C-42.639,-52.262 -42.672,-52.29 -42.69,-52.331C-42.981,-53.006 -43.417,-53.613 -43.951,-54.121C-44.484,-54.629 -45.114,-55.038 -45.791,-55.316C-45.822,-55.33 -45.837,-55.358 -45.836,-55.386C-45.835,-55.414 -45.818,-55.441 -45.786,-55.451C-44.902,-55.718 -44.005,-55.958 -43.098,-56.167C-42.191,-56.377 -41.273,-56.556 -40.346,-56.703C-40.301,-56.71 -40.258,-56.695 -40.227,-56.667C-40.197,-56.639 -40.178,-56.597 -40.182,-56.552L-40.296,-55.06C-40.299,-55.022 -40.321,-54.992 -40.351,-54.977C-40.381,-54.961 -40.418,-54.96 -40.451,-54.979M-48.714,-49.021C-48.159,-49.241 -47.806,-49.781 -47.713,-50.353C-47.62,-50.924 -47.789,-51.527 -48.279,-51.873C-48.449,-51.993 -48.651,-52.082 -48.876,-52.138C-49.102,-52.194 -49.35,-52.218 -49.61,-52.208C-49.654,-52.207 -49.69,-52.229 -49.711,-52.26C-49.732,-52.291 -49.738,-52.333 -49.719,-52.372C-49.555,-52.706 -49.299,-52.915 -48.993,-53.013C-48.688,-53.112 -48.332,-53.1 -47.966,-52.992C-47.194,-52.769 -46.674,-52.249 -46.394,-51.62C-46.113,-50.991 -46.073,-50.254 -46.263,-49.596C-46.615,-48.35 -47.689,-47.301 -48.92,-46.527C-50.151,-45.754 -51.539,-45.256 -52.518,-45.114C-52.552,-45.109 -52.581,-45.125 -52.597,-45.15C-52.614,-45.175 -52.617,-45.209 -52.601,-45.24C-52.208,-45.956 -51.996,-46.605 -51.904,-47.263C-51.812,-47.921 -51.841,-48.589 -51.929,-49.344C-51.938,-49.42 -51.991,-49.471 -52.053,-49.488C-52.116,-49.504 -52.187,-49.486 -52.231,-49.424C-53.058,-48.256 -54.118,-47.187 -55.331,-46.354C-56.544,-45.52 -57.909,-44.921 -59.345,-44.693C-59.42,-44.681 -59.482,-44.719 -59.512,-44.775C-59.542,-44.831 -59.541,-44.904 -59.49,-44.961C-59.169,-45.323 -58.927,-45.666 -58.778,-46.037C-58.629,-46.407 -58.573,-46.805 -58.626,-47.277C-58.636,-47.361 -58.69,-47.424 -58.759,-47.455C-58.828,-47.485 -58.911,-47.482 -58.98,-47.434C-59.398,-47.14 -59.8,-46.882 -60.227,-46.677C-60.653,-46.471 -61.105,-46.317 -61.622,-46.23C-61.668,-46.223 -61.706,-46.248 -61.723,-46.283C-61.74,-46.317 -61.738,-46.362 -61.703,-46.394C-60.296,-47.677 -58.8,-48.863 -57.226,-49.944C-55.652,-51.024 -54,-51.999 -52.281,-52.857C-52.25,-52.873 -52.215,-52.866 -52.191,-52.847C-52.167,-52.828 -52.153,-52.796 -52.163,-52.762C-52.188,-52.671 -52.209,-52.58 -52.227,-52.487C-52.244,-52.394 -52.257,-52.299 -52.267,-52.203C-52.377,-51.196 -51.954,-50.216 -51.271,-49.579C-50.588,-48.943 -49.645,-48.651 -48.714,-49.021M-64.344,-43.354C-63.198,-42.638 -61.922,-42.12 -60.714,-41.78C-59.507,-41.441 -58.368,-41.28 -57.499,-41.28C-57.491,-41.28 -57.464,-41.281 -57.429,-41.282C-57.394,-41.283 -57.351,-41.284 -57.309,-41.285C-57.285,-41.285 -57.274,-41.278 -57.273,-41.27C-57.273,-41.261 -57.284,-41.25 -57.304,-41.243C-57.327,-41.234 -57.351,-41.225 -57.374,-41.215C-57.397,-41.206 -57.421,-41.197 -57.444,-41.187C-58.03,-40.947 -58.575,-40.621 -59.06,-40.224C-59.544,-39.828 -59.97,-39.36 -60.318,-38.838C-60.329,-38.82 -60.347,-38.812 -60.365,-38.812C-60.383,-38.812 -60.401,-38.82 -60.413,-38.837C-60.983,-39.689 -61.752,-40.396 -62.654,-40.891C-63.555,-41.385 -64.589,-41.666 -65.689,-41.666C-65.75,-41.666 -65.81,-41.664 -65.868,-41.662C-65.927,-41.659 -65.985,-41.656 -66.043,-41.653C-66.063,-41.652 -66.081,-41.667 -66.09,-41.686C-66.1,-41.706 -66.101,-41.729 -66.087,-41.745C-66.075,-41.76 -66.063,-41.775 -66.051,-41.79L-66.014,-41.835C-65.8,-42.099 -65.583,-42.36 -65.361,-42.62C-65.141,-42.878 -64.917,-43.135 -64.689,-43.387C-64.681,-43.396 -64.672,-43.406 -64.664,-43.416C-64.655,-43.425 -64.647,-43.435 -64.638,-43.444C-64.63,-43.454 -64.601,-43.458 -64.574,-43.46C-64.547,-43.463 -64.523,-43.463 -64.523,-43.463L-64.484,-43.439L-64.446,-43.416L-64.344,-43.354ZM-65.689,9.319C-64.605,9.319 -63.585,9.046 -62.693,8.566C-61.801,8.086 -61.037,7.399 -60.463,6.571C-60.439,6.536 -60.402,6.519 -60.365,6.519C-60.328,6.519 -60.291,6.536 -60.267,6.571C-60.011,6.938 -59.719,7.279 -59.394,7.586C-59.069,7.893 -58.713,8.166 -58.329,8.398C-58.296,8.418 -58.285,8.453 -58.292,8.483C-58.298,8.514 -58.323,8.54 -58.361,8.543C-59.618,8.648 -60.874,8.882 -62.037,9.27C-63.201,9.657 -64.273,10.199 -65.162,10.921C-65.213,10.963 -65.277,10.981 -65.338,10.977C-65.399,10.972 -65.458,10.943 -65.501,10.893C-65.7,10.659 -65.896,10.422 -66.088,10.183C-66.281,9.944 -66.471,9.703 -66.657,9.459C-66.69,9.416 -66.688,9.362 -66.665,9.321C-66.642,9.281 -66.596,9.252 -66.542,9.26C-66.403,9.28 -66.262,9.294 -66.12,9.304C-65.978,9.314 -65.834,9.319 -65.689,9.319M-58.647,15.06C-58.562,14.516 -58.614,14.069 -58.783,13.656C-58.953,13.243 -59.238,12.865 -59.62,12.458C-59.648,12.427 -59.651,12.386 -59.635,12.354C-59.619,12.321 -59.585,12.298 -59.543,12.304C-58.05,12.503 -56.626,13.108 -55.365,13.966C-54.103,14.825 -53.004,15.937 -52.161,17.149C-52.129,17.194 -52.078,17.209 -52.033,17.198C-51.988,17.187 -51.95,17.151 -51.943,17.096C-51.846,16.323 -51.809,15.645 -51.893,14.979C-51.977,14.313 -52.182,13.661 -52.566,12.939C-52.59,12.895 -52.584,12.846 -52.56,12.81C-52.535,12.774 -52.492,12.752 -52.442,12.76C-51.456,12.918 -50.085,13.421 -48.874,14.192C-47.662,14.962 -46.61,16.001 -46.263,17.231C-46.073,17.889 -46.112,18.626 -46.391,19.255C-46.67,19.884 -47.191,20.404 -47.966,20.627C-48.217,20.701 -48.459,20.727 -48.682,20.708C-48.904,20.688 -49.106,20.624 -49.277,20.517C-49.365,20.459 -49.444,20.391 -49.515,20.312C-49.585,20.233 -49.647,20.143 -49.7,20.042C-49.723,19.998 -49.719,19.947 -49.695,19.909C-49.672,19.87 -49.63,19.843 -49.579,19.844C-49.313,19.85 -49.039,19.819 -48.785,19.744C-48.53,19.668 -48.297,19.548 -48.113,19.373C-47.721,19 -47.614,18.423 -47.733,17.888C-47.853,17.354 -48.199,16.861 -48.714,16.656C-49.054,16.524 -49.458,16.495 -49.868,16.561C-50.277,16.627 -50.692,16.788 -51.054,17.035C-51.498,17.338 -51.833,17.751 -52.042,18.233C-52.25,18.715 -52.331,19.266 -52.267,19.844C-52.235,20.134 -52.169,20.416 -52.073,20.684C-51.977,20.953 -51.851,21.208 -51.699,21.447C-51.68,21.476 -51.687,21.508 -51.706,21.528C-51.725,21.549 -51.756,21.56 -51.787,21.545C-53.812,20.565 -55.747,19.426 -57.574,18.143C-59.4,16.86 -61.119,15.434 -62.712,13.882C-62.728,13.866 -62.73,13.844 -62.723,13.826C-62.716,13.808 -62.699,13.793 -62.677,13.793C-61.915,13.766 -61.267,13.889 -60.661,14.123C-60.055,14.356 -59.491,14.702 -58.897,15.122C-58.862,15.146 -58.802,15.148 -58.75,15.136C-58.698,15.123 -58.653,15.095 -58.647,15.06M-44.756,22.328C-44.335,22.028 -43.961,21.675 -43.64,21.284C-43.319,20.894 -43.05,20.465 -42.84,20.012C-42.808,19.941 -42.747,19.894 -42.677,19.875C-42.608,19.856 -42.531,19.866 -42.466,19.909L-42.052,20.181L-41.639,20.453C-41.604,20.476 -41.586,20.514 -41.587,20.551C-41.588,20.588 -41.607,20.626 -41.644,20.647L-42.618,21.218L-43.591,21.79C-43.649,21.823 -43.688,21.877 -43.703,21.938C-43.718,21.998 -43.711,22.063 -43.677,22.121L-43.229,22.876L-42.78,23.632C-42.737,23.705 -42.669,23.753 -42.593,23.772C-42.517,23.792 -42.434,23.783 -42.361,23.74L-41.44,23.197L-40.52,22.655C-40.471,22.626 -40.416,22.628 -40.372,22.651C-40.327,22.674 -40.294,22.718 -40.29,22.774L-40.221,23.656L-40.153,24.538C-40.148,24.595 -40.123,24.646 -40.084,24.684C-40.045,24.721 -39.993,24.744 -39.935,24.746L-39.006,24.777L-38.076,24.809C-38.039,24.81 -38.002,24.82 -37.971,24.838C-37.939,24.856 -37.912,24.882 -37.891,24.913L-37.583,25.385C-37.568,25.408 -37.57,25.434 -37.582,25.454C-37.594,25.474 -37.617,25.488 -37.644,25.486C-39.274,25.333 -40.878,25.085 -42.45,24.749C-44.021,24.413 -45.559,23.987 -47.059,23.478C-47.105,23.462 -47.126,23.42 -47.123,23.38C-47.119,23.34 -47.092,23.302 -47.043,23.293C-46.644,23.228 -46.249,23.113 -45.866,22.952C-45.482,22.791 -45.11,22.583 -44.756,22.328M-29.299,24.767L-28.307,24.715L-27.315,24.662C-27.268,24.66 -27.226,24.64 -27.195,24.609C-27.164,24.578 -27.144,24.536 -27.141,24.489L-27.089,23.556L-27.038,22.622C-27.036,22.58 -27.011,22.546 -26.979,22.528C-26.946,22.51 -26.904,22.507 -26.867,22.528L-25.816,23.115L-24.764,23.702C-24.741,23.714 -24.715,23.717 -24.692,23.71C-24.668,23.704 -24.647,23.688 -24.635,23.666L-23.607,21.852C-23.591,21.823 -23.588,21.79 -23.596,21.761C-23.604,21.731 -23.625,21.704 -23.653,21.688L-24.698,21.103L-25.742,20.517C-25.777,20.497 -25.796,20.462 -25.797,20.427C-25.799,20.392 -25.783,20.355 -25.75,20.333L-25.296,20.024L-24.843,19.714C-24.82,19.699 -24.794,19.696 -24.771,19.703C-24.747,19.711 -24.727,19.728 -24.717,19.754C-24.521,20.248 -24.254,20.716 -23.925,21.144C-23.595,21.571 -23.202,21.957 -22.752,22.286C-22.357,22.574 -21.941,22.805 -21.512,22.978C-21.083,23.151 -20.641,23.267 -20.193,23.323C-20.17,23.326 -20.157,23.344 -20.154,23.362C-20.152,23.38 -20.162,23.4 -20.184,23.407C-21.69,23.927 -23.237,24.363 -24.816,24.71C-26.396,25.056 -28.008,25.313 -29.646,25.472C-29.675,25.475 -29.7,25.46 -29.714,25.438C-29.728,25.417 -29.73,25.387 -29.714,25.362L-29.545,25.087L-29.376,24.813C-29.368,24.799 -29.356,24.788 -29.343,24.781C-29.33,24.773 -29.315,24.768 -29.299,24.767M-15.156,19.844C-15.045,18.837 -15.466,17.857 -16.148,17.22C-16.83,16.583 -17.771,16.289 -18.703,16.656C-18.957,16.757 -19.167,16.908 -19.329,17.105C-19.491,17.301 -19.606,17.543 -19.67,17.825C-19.823,18.525 -19.659,19.047 -19.297,19.385C-18.936,19.723 -18.375,19.876 -17.732,19.839C-17.708,19.838 -17.688,19.849 -17.675,19.866C-17.663,19.883 -17.658,19.905 -17.667,19.927C-17.823,20.297 -18.08,20.526 -18.394,20.636C-18.707,20.746 -19.077,20.736 -19.456,20.627C-20.231,20.404 -20.751,19.884 -21.031,19.255C-21.311,18.626 -21.349,17.889 -21.159,17.231C-20.807,15.988 -19.695,14.928 -18.432,14.146C-17.168,13.365 -15.754,12.864 -14.799,12.74C-14.788,12.739 -14.778,12.744 -14.773,12.753C-14.768,12.761 -14.768,12.773 -14.773,12.783C-15.208,13.557 -15.437,14.247 -15.528,14.948C-15.62,15.65 -15.576,16.365 -15.467,17.19C-15.462,17.228 -15.435,17.253 -15.404,17.261C-15.373,17.268 -15.337,17.258 -15.315,17.227C-14.473,15.997 -13.368,14.865 -12.095,13.992C-10.822,13.119 -9.382,12.503 -7.873,12.303C-7.832,12.298 -7.799,12.32 -7.783,12.351C-7.767,12.382 -7.768,12.422 -7.796,12.452C-8.188,12.872 -8.48,13.259 -8.65,13.683C-8.819,14.107 -8.866,14.568 -8.768,15.136C-8.762,15.167 -8.741,15.191 -8.713,15.202C-8.687,15.212 -8.655,15.21 -8.628,15.192C-8.021,14.759 -7.449,14.398 -6.834,14.151C-6.221,13.904 -5.564,13.771 -4.787,13.793C-4.761,13.793 -4.742,13.81 -4.734,13.83C-4.726,13.851 -4.729,13.876 -4.747,13.893C-6.316,15.419 -8.006,16.823 -9.8,18.089C-11.593,19.355 -13.491,20.483 -15.478,21.458C-15.529,21.483 -15.582,21.467 -15.613,21.432C-15.646,21.397 -15.657,21.343 -15.629,21.292C-15.503,21.071 -15.4,20.838 -15.32,20.596C-15.24,20.354 -15.185,20.102 -15.156,19.844M-2.241,11.076C-2.997,10.445 -3.89,9.933 -4.87,9.534C-5.851,9.135 -6.919,8.849 -8.027,8.668C-8.145,8.649 -8.22,8.564 -8.241,8.467C-8.263,8.37 -8.231,8.261 -8.133,8.193C-7.814,7.972 -7.516,7.722 -7.242,7.448C-6.969,7.174 -6.721,6.875 -6.501,6.555C-6.479,6.524 -6.447,6.508 -6.414,6.508C-6.381,6.508 -6.348,6.524 -6.327,6.555C-5.754,7.388 -4.987,8.079 -4.091,8.562C-3.195,9.044 -2.171,9.319 -1.084,9.319C-1.039,9.319 -0.993,9.318 -0.947,9.317C-0.901,9.316 -0.854,9.314 -0.809,9.313C-0.786,9.312 -0.767,9.329 -0.757,9.352C-0.747,9.374 -0.747,9.402 -0.761,9.42C-0.976,9.7 -1.195,9.976 -1.417,10.25C-1.64,10.524 -1.866,10.795 -2.095,11.064C-2.114,11.086 -2.139,11.098 -2.166,11.1C-2.192,11.102 -2.219,11.094 -2.241,11.076" style="fill:none;stroke:rgb(255,0,0);stroke-width:0.51px;"/>
    </g>
</svg>
