<?xml version="1.0" encoding="UTF-8" standalone="no"?>
<!DOCTYPE svg PUBLIC "-//W3C//DTD SVG 1.1//EN" "http://www.w3.org/Graphics/SVG/1.1/DTD/svg11.dtd">
<svg width="100%" height="100%" viewBox="0 0 1123 794" version="1.1" xmlns="http://www.w3.org/2000/svg" xmlns:xlink="http://www.w3.org/1999/xlink" xml:space="preserve" xmlns:serif="http://www.serif.com/" style="fill-rule:evenodd;clip-rule:evenodd;stroke-miterlimit:22.9256;">
    <g transform="matrix(1.33333,0,0,1.33333,-1622.32,-590.068)">
        <path d="M1259.1,600.038C1258.94,600.194 1258.73,600.291 1258.49,600.291C1258.02,600.291 1257.64,599.91 1257.64,599.441C1257.64,599.208 1257.74,598.997 1257.89,598.843L1254.46,595.455L1275.72,573.951L1279.14,577.339C1279.3,577.183 1279.51,577.086 1279.75,577.086C1280.22,577.086 1280.6,577.467 1280.6,577.937C1280.6,578.17 1280.51,578.381 1280.35,578.534L1283.78,581.922L1329.56,535.603L1329.56,513.438C1313.65,509.756 1301.78,495.492 1301.78,478.456C1301.78,458.626 1317.86,442.551 1337.69,442.551C1357.52,442.551 1373.59,458.626 1373.59,478.456C1373.59,495.492 1361.73,509.756 1345.81,513.438L1345.81,535.603L1391.6,581.922L1395.02,578.534C1394.87,578.381 1394.78,578.17 1394.78,577.937C1394.78,577.467 1395.16,577.086 1395.63,577.086C1395.86,577.086 1396.08,577.183 1396.23,577.339L1399.66,573.951L1420.91,595.455L1417.49,598.843C1417.64,598.996 1417.73,599.208 1417.73,599.441C1417.73,599.91 1417.35,600.291 1416.88,600.291C1416.65,600.291 1416.43,600.194 1416.28,600.038L1412.85,603.426L1458.63,649.745L1422.73,649.745L1422.73,654.564C1423.2,654.564 1423.58,654.944 1423.58,655.414C1423.58,655.884 1423.2,656.264 1422.73,656.264L1422.73,661.083L1392.49,661.083L1392.49,656.264C1392.02,656.264 1391.64,655.884 1391.64,655.414C1391.64,654.944 1392.02,654.564 1392.49,654.564L1392.49,649.745L1345.81,649.745L1345.81,604.852L1329.56,604.852L1329.56,649.745L1282.88,649.745L1282.88,654.564C1283.35,654.564 1283.74,654.944 1283.74,655.414C1283.74,655.884 1283.35,656.264 1282.88,656.264L1282.88,661.083L1252.65,661.083L1252.65,656.264C1252.18,656.264 1251.8,655.884 1251.8,655.414C1251.8,654.944 1252.18,654.564 1252.65,654.564L1252.65,649.745L1216.74,649.745L1262.53,603.426L1259.1,600.038Z" style="fill:none;stroke:rgb(255,0,0);stroke-width:0.22px;"/>
    </g>
    <g transform="matrix(1.33333,0,0,1.33333,-1622.32,-590.068)">
        <path d="M1417.95,638.406L1364.78,638.406L1398.37,604.86L1421.99,628.751C1423.63,630.413 1424.09,632.766 1423.18,634.922C1422.28,637.077 1420.29,638.406 1417.95,638.406ZM1357.11,630.092L1357.11,576.914C1357.11,574.567 1358.45,572.563 1360.62,571.67C1362.79,570.779 1365.16,571.259 1366.81,572.929L1390.42,596.818L1357.11,630.092Z" style="fill:none;fill-rule:nonzero;stroke:rgb(255,0,0);stroke-width:0.22px;"/>
    </g>
    <g transform="matrix(1.33333,0,0,1.33333,-1622.32,-590.068)">
        <path d="M1257.42,638.406L1310.59,638.406L1277.01,604.86L1253.39,628.751C1251.75,630.413 1251.29,632.766 1252.19,634.922C1253.09,637.077 1255.09,638.406 1257.42,638.406ZM1318.27,630.092L1318.27,576.914C1318.27,574.567 1316.92,572.563 1314.75,571.67C1312.58,570.779 1310.22,571.259 1308.57,572.929L1284.95,596.818L1318.27,630.092Z" style="fill:none;fill-rule:nonzero;stroke:rgb(255,0,0);stroke-width:0.22px;"/>
    </g>
    <g transform="matrix(1.33333,0,0,1.33333,-1622.32,-590.068)">
        <path d="M1337.69,455.779C1325.16,455.779 1315.01,465.932 1315.01,478.456C1315.01,490.981 1325.16,501.134 1337.69,501.134C1350.21,501.134 1360.37,490.981 1360.37,478.456C1360.37,465.932 1350.21,455.779 1337.69,455.779Z" style="fill:none;stroke:rgb(255,0,0);stroke-width:0.22px;"/>
    </g>
    <g transform="matrix(1.33333,0,0,1.33333,-465.328,-484.331)">
        <path d="M387.187,370.167C400.755,370.167 411.754,381.166 411.754,394.734C411.754,408.302 400.755,419.301 387.187,419.301C373.619,419.301 362.62,408.302 362.62,394.734C362.62,381.166 373.619,370.167 387.187,370.167Z" style="fill:none;stroke:rgb(255,0,0);stroke-width:0.22px;"/>
    </g>
    <g transform="matrix(1.33333,0,0,1.33333,-464.161,-489.184)">
        <path d="M386.769,435.06C399.293,435.06 409.446,445.213 409.446,457.737C409.446,470.261 399.293,480.414 386.769,480.414C374.245,480.414 364.092,470.261 364.092,457.737C364.092,445.213 374.245,435.06 386.769,435.06Z" style="fill:none;stroke:rgb(255,0,0);stroke-width:0.22px;"/>
    </g>
    <g transform="matrix(1.33333,0,0,1.33333,-465.328,-484.331)">
        <path d="M372.069,389.064L402.305,389.064L402.305,400.403L372.069,400.403L372.069,389.064Z" style="fill:none;stroke:rgb(255,0,0);stroke-width:0.22px;"/>
    </g>
    <g transform="matrix(1.33333,0,0,1.33333,-464.161,-489.184)">
        <path d="M375.43,452.068L398.108,452.068L398.108,463.406L375.43,463.406L375.43,452.068Z" style="fill:none;stroke:rgb(255,0,0);stroke-width:0.22px;"/>
    </g>
</svg>
