<?xml version="1.0" encoding="UTF-8" standalone="no"?>
<!DOCTYPE svg PUBLIC "-//W3C//DTD SVG 1.1//EN" "http://www.w3.org/Graphics/SVG/1.1/DTD/svg11.dtd">
<svg width="100%" height="100%" viewBox="0 0 1123 794" version="1.1" xmlns="http://www.w3.org/2000/svg" xmlns:xlink="http://www.w3.org/1999/xlink" xml:space="preserve" xmlns:serif="http://www.serif.com/" style="fill-rule:evenodd;clip-rule:evenodd;stroke-miterlimit:22.9256;">
    <g transform="matrix(1.33333,0,0,1.33333,-1302.47,-7.40192)">
        <g transform="matrix(1,0,0,1,-100.723,-43.6098)">
            <path d="M1136.16,354.264C1135.69,354.264 1135.31,353.883 1135.31,353.413C1135.31,352.943 1135.69,352.563 1136.16,352.563L1136.16,347.744L1132.41,347.744L1132.41,342.075C1132.41,341.805 1132.45,340.243 1132.5,338.528C1132.65,332.965 1132.88,324.774 1130.76,320.133C1129.68,317.754 1128.14,316.701 1122.7,319.18L1113.31,323.455C1108.92,325.451 1104.16,326.203 1099.57,325.763C1094.93,325.318 1090.44,323.662 1086.65,320.849L1086.14,320.473C1081.53,317.051 1078.72,312.456 1077.86,307.564C1076.98,302.572 1078.13,297.361 1081.47,292.822L1096.98,271.719C1094.66,270.762 1092.59,269.26 1090.99,267.281L1090.15,266.245C1088.1,263.727 1087.11,260.816 1087.16,257.869C1087.22,254.914 1088.31,252.033 1090.42,249.585L1107.14,230.272C1105.74,229.669 1104.42,228.866 1103.24,227.869L1102.46,227.216L1102.42,227.193C1099.58,224.79 1097.97,221.651 1097.65,218.361C1097.32,215.025 1098.32,211.637 1100.72,208.789L1100.72,208.767C1116.48,190.09 1130.95,173.087 1146.76,154.449L1146.25,145.18L1127.21,155.75L1138.41,137.171L1117.94,131.584L1138.81,125.789L1128.89,107.315L1145.61,116.796L1145.61,49.161L1156.94,49.161L1156.94,110.595L1158.67,117.642L1177.71,107.072L1166.51,125.65L1186.98,131.238L1166.11,137.033L1176.03,155.507L1157.72,145.121L1156.46,155.001C1172.06,173.386 1186.28,190.342 1201.83,208.767L1201.83,208.789C1204.22,211.637 1205.23,215.026 1204.9,218.361C1204.57,221.65 1202.96,224.79 1200.13,227.193L1200.11,227.193L1199.31,227.869C1198.12,228.866 1196.8,229.669 1195.41,230.272L1212.12,249.585C1214.24,252.033 1215.33,254.914 1215.38,257.869C1215.43,260.816 1214.44,263.727 1212.4,266.245L1211.56,267.281C1209.95,269.26 1207.88,270.762 1205.56,271.719L1221.08,292.822C1224.41,297.361 1225.57,302.572 1224.69,307.564C1223.83,312.456 1221.02,317.051 1216.4,320.473L1215.9,320.849C1212.11,323.662 1207.62,325.318 1202.97,325.763C1198.38,326.203 1193.62,325.451 1189.24,323.455L1179.85,319.18C1174.4,316.701 1172.87,317.754 1171.78,320.133C1169.67,324.774 1169.89,332.964 1170.04,338.528C1170.09,340.243 1170.13,341.805 1170.13,342.075L1170.13,347.744L1166.39,347.744L1166.39,352.563C1166.86,352.563 1167.24,352.943 1167.24,353.413C1167.24,353.883 1166.86,354.264 1166.39,354.264L1166.39,359.082L1162.61,359.082L1162.61,363.901C1163.08,363.901 1163.46,364.282 1163.46,364.752C1163.46,365.221 1163.08,365.602 1162.61,365.602L1162.61,370.421L1139.93,370.421L1139.93,365.602C1139.47,365.602 1139.09,365.221 1139.09,364.752C1139.09,364.282 1139.47,363.901 1139.93,363.901L1139.93,359.082L1136.16,359.082L1136.16,354.264Z" style="fill:none;stroke:rgb(255,0,0);stroke-width:0.22px;"/>
        </g>
        <g transform="matrix(1,0,0,1,-100.723,-43.6098)">
            <path d="M1109.36,216.075C1133.56,229.227 1156,189.63 1178.95,199.282L1151.27,166.624L1109.36,216.075Z" style="fill:none;fill-rule:nonzero;stroke:rgb(255,0,0);stroke-width:0.22px;"/>
        </g>
        <g transform="matrix(1,0,0,1,-100.723,-43.6098)">
            <path d="M1207.86,294.369C1174.3,270.589 1133.49,329.225 1090.59,299.51L1105.66,279.018C1112.52,282.118 1118.85,281.472 1124.38,275.238C1134.94,280.412 1143,278.449 1148.89,270.29C1157.97,275.678 1165.2,274.586 1170.28,265.973C1176.78,269.832 1182.02,268.971 1185.85,262.829L1207.86,294.369Z" style="fill:none;fill-rule:nonzero;stroke:rgb(255,0,0);stroke-width:0.22px;"/>
        </g>
        <g transform="matrix(1,0,0,1,-100.723,-43.6098)">
            <path d="M1118.71,230.27C1124.67,234.226 1131.13,234.981 1138.42,230.27C1146.61,236.603 1154.45,236.604 1161.92,230.27C1170.49,236.427 1178.2,234.198 1183.42,229.02L1191.29,239.114C1158.02,239.801 1142.26,275.989 1098.24,253.926L1118.71,230.27Z" style="fill:none;stroke:rgb(255,0,0);stroke-width:0.22px;"/>
        </g>
        <g transform="matrix(1,0,0,1,-100.723,-43.6098)">
            <path d="M1139,321.764C1142.69,323.232 1147.03,323.996 1150.79,324.052C1155,324.114 1159.41,323.407 1163.22,322.186L1163.22,325.064C1159.13,326.372 1155.29,326.942 1150.75,326.875C1146.66,326.815 1143.03,326.285 1139,324.685L1139,321.764Z" style="fill:none;fill-rule:nonzero;stroke:rgb(255,0,0);stroke-width:0.22px;"/>
        </g>
        <g transform="matrix(1,0,0,1,-100.723,-43.6098)">
            <path d="M1147.34,125.453L1151.68,127.892L1153.56,122.822L1154.5,127.812L1159.32,125.112L1156.31,129.729L1161.25,130.981L1156.05,132.521L1158.22,136.991L1153.87,134.552L1152,139.622L1151.06,134.632L1146.23,137.333L1149.25,132.715L1144.3,131.463L1149.51,129.923L1147.34,125.453Z" style="fill:none;stroke:rgb(255,0,0);stroke-width:0.22px;"/>
        </g>
    </g>
</svg>
