<?xml version="1.0" encoding="UTF-8" standalone="no"?>
<!DOCTYPE svg PUBLIC "-//W3C//DTD SVG 1.1//EN" "http://www.w3.org/Graphics/SVG/1.1/DTD/svg11.dtd">
<svg width="100%" height="100%" viewBox="0 0 1123 794" version="1.1" xmlns="http://www.w3.org/2000/svg" xmlns:xlink="http://www.w3.org/1999/xlink" xml:space="preserve" xmlns:serif="http://www.serif.com/" style="fill-rule:evenodd;clip-rule:evenodd;stroke-miterlimit:22.9256;">
    <g transform="matrix(1,0,0,1,-275.566,-7.40192)">
        <g transform="matrix(1.33333,0,0,1.33333,-1338.57,-58.1464)">
            <path d="M1338.35,363.901L1338.35,359.082L1342.13,359.082L1342.13,354.264C1343.25,354.264 1343.25,352.563 1342.13,352.563L1342.13,347.744L1384.86,347.744C1386.94,347.744 1388.63,346.046 1388.63,343.964L1388.63,338.966C1388.63,336.884 1386.94,335.187 1384.86,335.187L1378.54,335.187C1378.7,331.407 1376.55,329.331 1374.13,327.834C1370.17,325.383 1362.09,325.416 1358.8,327.927C1358.74,326.778 1355.59,319.998 1354.84,319.124C1355.07,318.419 1355.8,317.576 1356.25,316.821C1360.85,309.247 1360.69,304.61 1363.74,297.496C1368.57,296.345 1374.54,294.507 1378.91,292.011C1379.4,291.717 1382.94,289.583 1383.2,289.209C1385.29,289.308 1388.13,290.366 1388.39,285.31C1388.82,285.756 1392.26,293.054 1397.79,292.142C1401.68,291.499 1416.06,280.299 1406.16,267.051C1404.94,265.412 1402.61,263.395 1402.43,262.807C1405.08,259.524 1402.87,252.348 1401.2,249.173C1398.44,243.919 1395.4,243.292 1390.08,245.596C1389.76,245.182 1386.51,239.323 1384.21,236.289C1383.67,235.586 1382.24,234.003 1382.06,233.484C1381.73,231.818 1392.05,223.101 1371.88,197.021C1371.18,196.116 1368.9,193.643 1368.57,192.69C1370.08,190.807 1371.4,189.586 1372.05,186.562C1374.17,176.776 1365.2,173.446 1362.59,167.543C1362.11,165.661 1361.9,164.182 1361.26,162.336C1360.59,160.419 1359.69,159.139 1359.01,157.53C1363.27,159.134 1383.75,176.417 1389.25,180.672C1388.39,182.749 1387.66,184.57 1387.67,187.05C1387.68,193.621 1391.68,198.718 1398.96,199.738C1408.56,201.085 1422.89,191.612 1417.12,182.147C1412.88,175.194 1405.4,172.481 1397.36,175.06C1396.41,172.909 1383.99,156.845 1381.09,153.768C1374.08,146.307 1368.05,139.905 1358.93,134.521C1351.52,130.146 1341.37,126.332 1332.68,128.081L1332.68,49.161L1321.34,49.161L1321.34,130.987C1316.46,132.991 1309.79,136.937 1304.69,141.105L1299.94,145.034C1297.34,147.052 1293.22,151.851 1291.08,153.427C1289.39,154.47 1278.45,156.378 1276.53,166.919C1275.74,171.241 1277.26,173.122 1277.52,174.913C1274.42,177.419 1273.27,178.209 1270.42,180.986C1264.93,186.343 1261.1,192.364 1260.26,193.198C1260.52,191.878 1261.84,190.34 1260.94,187.456C1259.47,182.716 1254.88,177.878 1249.38,178.537C1248,178.701 1248.4,178.838 1247.88,178.517C1248.57,175.211 1249.82,173.352 1249.78,168.721C1249.75,164.916 1248.49,160.813 1244.82,160.632C1240.83,160.435 1238.67,164.139 1238.16,168.003L1234.04,162.935C1231.86,160.471 1227.47,157.963 1223.19,158.209C1218.6,158.473 1214.07,161.753 1211.97,165.397C1208.51,171.424 1212.28,180.576 1215.87,185.31C1218.25,188.451 1220.73,190.551 1224.82,192.941C1223.96,194.518 1222.25,196.367 1222.46,199.848C1222.71,203.905 1226.65,210.089 1229.87,211.998C1231.88,213.191 1235.49,212.131 1237.29,211.402C1237.66,211.843 1240.36,218.411 1240.89,219.594C1242.11,222.311 1243.42,224.989 1244.96,227.271C1245.29,228.622 1236.7,245.388 1237.42,256.995C1233.41,257.003 1232.2,265.212 1232.29,269.486C1232.48,277.983 1236.53,281.235 1243.04,285.52C1250.61,290.507 1261.68,293.201 1261.68,293.202C1269.07,300.606 1286.06,312.195 1296.66,317.076L1302.52,319.596L1302.73,324.433C1300.52,323.848 1296.19,321.746 1294.66,321.335C1293.97,321.148 1293.23,320.66 1292.14,320.273C1278.3,315.315 1272.77,323.952 1275.4,329.44C1276.91,332.584 1280.52,334.321 1284.64,335.187L1269.16,335.187C1267.08,335.187 1265.38,336.884 1265.38,338.966L1265.38,343.964C1265.38,346.046 1267.08,347.744 1269.16,347.744L1311.89,347.744L1311.89,352.563C1310.77,352.563 1310.77,354.264 1311.89,354.264L1311.89,359.082L1315.67,359.082L1315.67,363.901C1314.55,363.901 1314.55,365.602 1315.67,365.602L1315.67,370.421L1338.35,370.421L1338.35,365.602C1339.47,365.602 1339.47,363.901 1338.35,363.901Z" style="fill:none;stroke:rgb(255,0,0);stroke-width:0.22px;"/>
        </g>
        <g transform="matrix(1.33333,0,0,1.33333,-1338.57,-58.1464)">
            <path d="M1327.4,197.761L1337.06,201.875C1337.79,199.64 1337.41,199.133 1339.27,197.514C1340.51,196.43 1342.05,195.822 1343.97,195.756C1347.86,195.622 1350.94,197.915 1351.79,201.252L1352.07,200.477C1352.17,199.821 1351.96,199.049 1351.73,198.412C1351,196.389 1349.32,194.365 1347.88,192.897C1346.75,191.743 1342.43,187.76 1340.65,187.401C1341.04,189.478 1340.82,190.756 1338.19,190.197C1335.52,189.629 1325.64,184.88 1333.14,183.343C1332.72,182.976 1332.61,182.965 1332,182.722L1328.18,181.365C1326.54,180.817 1324.7,180.35 1322.84,179.979C1319.51,179.317 1314.35,178.252 1310.91,178.258L1311.52,179.195C1312.23,180.15 1312.25,181.12 1311.34,181.715C1309.83,182.703 1303.63,181.962 1302.32,181.415C1300.37,180.599 1300.99,179.656 1301.63,178.006C1295.41,178.222 1287.91,180.489 1287.06,186.015C1287.67,185.692 1291.38,180.802 1297.25,183.681C1301.61,185.818 1302.26,191.576 1300.31,192.144C1300.76,192.503 1305.84,192.9 1307.22,193.041C1308.76,193.198 1309.43,193.289 1309.59,193.347" style="fill:none;stroke:rgb(0,0,255);stroke-width:0.22px;"/>
        </g>
        <g transform="matrix(1.33333,0,0,1.33333,-1338.57,-58.1464)">
            <path d="M1305.53,185.327C1307.81,183.511 1309.62,187.3 1307.48,188.408C1305.75,189.31 1303.21,187.175 1305.53,185.327Z" style="fill:none;stroke:rgb(0,0,255);stroke-width:0.22px;"/>
        </g>
        <g transform="matrix(1.33333,0,0,1.33333,-1338.57,-58.1464)">
            <path d="M1332.74,191.03C1334.91,189.878 1336.45,193.307 1334.43,194.331C1332.1,195.509 1330.7,192.115 1332.74,191.03Z" style="fill:none;stroke:rgb(0,0,255);stroke-width:0.22px;"/>
        </g>
        <g transform="matrix(1.33333,0,0,1.33333,-1338.57,-58.1464)">
            <path d="M1313.78,192.598C1309.19,193.438 1309.48,198.061 1315.72,196.955C1321.18,195.989 1319.23,191.601 1313.78,192.598Z" style="fill:none;stroke:rgb(0,0,255);stroke-width:0.22px;"/>
        </g>
        <g transform="matrix(1.33333,0,0,1.33333,-1338.57,-58.1464)">
            <path d="M1337.06,201.875C1338.43,202.775 1343.08,204.492 1345.01,204.867C1346.56,205.169 1348.35,205.151 1349.59,204.37C1350.45,203.826 1351.72,202.455 1351.79,201.252" style="fill:none;stroke:rgb(0,0,255);stroke-width:0.22px;"/>
        </g>
        <g transform="matrix(1.33333,0,0,1.33333,-1338.57,-58.1464)">
            <path d="M1287.06,186.015C1285.96,189.168 1288.9,190.399 1291.43,191.027C1293.38,191.51 1298.41,192.349 1300.31,192.144" style="fill:none;stroke:rgb(0,0,255);stroke-width:0.22px;"/>
        </g>
        <g transform="matrix(1.33333,0,0,1.33333,-1338.57,-58.1464)">
            <path d="M1283,268.042C1287.04,268.957 1290.94,269.749 1295.15,269.772L1295.57,263.658C1290.28,263.211 1286.93,262.601 1281.92,261.685C1281.3,262.739 1280.94,266.1 1280.84,267.534L1283,268.042Z" style="fill:none;stroke:rgb(0,0,255);stroke-width:0.22px;"/>
        </g>
        <g transform="matrix(1.33333,0,0,1.33333,-1338.57,-58.1464)">
            <path d="M1309.57,161.564C1304.6,161.29 1300.6,161.605 1296.31,162.93C1292.87,163.992 1286.68,167.68 1285.43,166.141C1284.85,165.428 1285.63,163.686 1286.08,163.045C1287.39,161.181 1290.38,159.249 1292.61,158.441C1295.8,157.288 1301.99,156.797 1305.73,157.003C1309.39,157.206 1323.47,158.669 1326.98,160.45C1327.85,160.889 1328.6,161.104 1328.49,162.208C1327.71,162.916 1326.15,162.911 1324.84,162.839C1320.75,162.706 1314.05,161.811 1309.57,161.564Z" style="fill:none;stroke:rgb(0,0,255);stroke-width:0.22px;"/>
        </g>
        <g transform="matrix(1.33333,0,0,1.33333,-1338.57,-58.1464)">
            <path d="M1362.57,183.443C1361.09,183.436 1360.24,182.508 1359.39,181.518C1356.32,177.962 1355.1,176.695 1350.91,174.126C1347.14,171.81 1344.3,170.636 1340.76,168.606C1339.26,167.739 1338.07,166.299 1339.5,165.9C1342.01,165.201 1350.14,169.179 1352.49,170.912C1352.77,171.123 1352.93,171.27 1353.22,171.461C1354.52,172.313 1355.76,173.445 1356.86,174.383C1358.59,175.862 1360.69,178.024 1362.06,179.75C1363.04,180.991 1363.77,181.963 1362.57,183.443Z" style="fill:none;stroke:rgb(0,0,255);stroke-width:0.22px;"/>
        </g>
        <g transform="matrix(1.33333,0,0,1.33333,-1338.57,-58.1464)">
            <path d="M1248.35,187.148C1247.36,190.631 1242.96,193.438 1240.52,195.324C1238.58,196.819 1234.98,199.527 1232.23,198.82C1230.19,198.294 1230.12,195.693 1232,193.73C1234.4,191.222 1235.49,190.477 1238.83,188.524C1240.2,187.723 1245.28,184.722 1246.92,184.7C1248.4,184.681 1248.69,185.957 1248.35,187.148Z" style="fill:none;stroke:rgb(0,0,255);stroke-width:0.22px;"/>
        </g>
        <g transform="matrix(1.33333,0,0,1.33333,-1338.57,-58.1464)">
            <path d="M1257.74,189.827C1257.3,190.939 1256.2,192.145 1255.43,193.009C1254.52,194.044 1250.43,197.603 1249.51,198.094C1247.33,199.254 1246.76,197.806 1247.82,196.087C1248.68,194.693 1251.46,191.803 1252.73,189.986C1253.21,189.284 1255.38,185.235 1257.33,187.689C1257.71,188.162 1258.07,188.999 1257.74,189.827Z" style="fill:none;stroke:rgb(0,0,255);stroke-width:0.22px;"/>
        </g>
        <g transform="matrix(1.33333,0,0,1.33333,-1338.57,-58.1464)">
            <path d="M1255.96,214.151C1255.85,206.671 1262.41,192.95 1266.84,187.364C1272,180.859 1280.8,173.743 1288.27,170.675C1295.02,167.903 1302.82,167.336 1310.75,167.762C1328.49,168.713 1344.75,175.939 1356.45,186.645C1362.94,192.582 1367.7,200.388 1371.1,208.626C1374.18,216.055 1374.28,222.054 1369.61,227.706C1368.08,229.548 1364.64,231.758 1362.37,233.033C1358.87,234.994 1358.06,236.624 1352.57,236.029C1349.42,235.687 1344.54,234.394 1341.69,235.985C1339,237.493 1338.46,241.504 1333.74,240.79C1327.94,239.914 1323.01,233.633 1313.96,237.319C1310.63,238.677 1308.77,240.57 1306.54,242.464C1303.88,244.718 1302.61,245.788 1298.33,246.826C1293.79,247.927 1291.58,247.175 1287.95,245.62C1286.43,244.971 1284.78,244.808 1283.22,244.047C1281.53,243.219 1281.14,242.039 1279.95,240.82C1277.63,238.45 1275.42,236.976 1274.76,233.424C1274.08,229.823 1273.43,227.658 1270.05,225.362C1267.37,223.55 1264.44,222.742 1261.2,221.643C1257.75,220.47 1256.02,217.819 1255.96,214.151Z" style="fill:none;stroke:rgb(0,0,255);stroke-width:0.22px;"/>
        </g>
        <g transform="matrix(1.33333,0,0,1.33333,-1338.57,-58.1464)">
            <path d="M1237.29,211.402C1239.94,210.331 1240.32,210.097 1242.55,208.282M1242.55,208.282C1242.68,208.422 1242.82,208.577 1242.97,208.729C1244.92,210.637 1248.5,213.389 1250.8,213.506C1251.72,209.74 1252.7,206.4 1254.15,203.01C1254.85,201.373 1255.56,199.802 1256.42,198.348C1257.21,196.991 1258.46,195.557 1258.84,194.07C1258.28,194.757 1257.85,195.443 1257.23,196.131L1253.44,200.14C1250.63,202.598 1245.83,206.509 1242.55,208.282Z" style="fill:none;stroke:rgb(0,0,255);stroke-width:0.22px;"/>
        </g>
        <g transform="matrix(1.33333,0,0,1.33333,-1338.57,-58.1464)">
            <path d="M1281.26,249.635C1282.3,250.022 1282.92,251.109 1283.49,251.812C1285.2,253.959 1287.5,254.549 1288.77,255.428C1293.12,258.447 1282.28,257.923 1280.62,256.202C1279.28,254.813 1279.56,250.623 1281.26,249.635Z" style="fill:none;stroke:rgb(0,0,255);stroke-width:0.22px;"/>
        </g>
        <g transform="matrix(1.33333,0,0,1.33333,-1338.57,-58.1464)">
            <path d="M1385.83,247.266C1385.42,245.981 1383.78,244.792 1382.58,243.963C1373.5,237.681 1357.28,243.492 1363.84,255.975C1364.39,257.036 1365.82,258.716 1366.61,259.858" style="fill:none;stroke:rgb(0,0,255);stroke-width:0.22px;"/>
        </g>
        <g transform="matrix(1.33333,0,0,1.33333,-1338.57,-58.1464)">
            <path d="M1277.1,266.384L1271.92,265.094C1267.72,263.789 1263.68,262.523 1259.67,261.072C1256.04,259.756 1251.6,258.15 1248.28,256.438C1247.52,256.186 1247.14,255.847 1246.44,255.662C1246.08,255.408 1237.85,250.516 1237.67,250.46" style="fill:none;stroke:rgb(0,0,255);stroke-width:0.22px;"/>
        </g>
        <g transform="matrix(1.33333,0,0,1.33333,-1338.57,-58.1464)">
            <path d="M1245.95,267.466C1245.67,265.205 1246.22,258.589 1246.44,255.662" style="fill:none;stroke:rgb(0,0,255);stroke-width:0.22px;"/>
        </g>
        <g transform="matrix(1.33333,0,0,1.33333,-1338.57,-58.1464)">
            <path d="M1394.95,254.939C1393.73,258.157 1393,259.133 1390.53,260.862C1388.39,262.357 1383.4,265.939 1381.76,267.713C1377.69,272.125 1367.94,275.147 1368.87,267.578C1369.26,264.369 1371.42,261.67 1373.88,260.042C1376.86,258.063 1380.1,256.957 1382.09,255.695L1390.21,251.217C1391.47,250.599 1391.71,250.294 1393.35,250.532C1395.2,250.802 1395.71,252.94 1394.95,254.939Z" style="fill:none;stroke:rgb(0,0,255);stroke-width:0.22px;"/>
        </g>
        <g transform="matrix(1.33333,0,0,1.33333,-1338.57,-58.1464)">
            <path d="M1238.72,273.16C1238.13,271.476 1238.46,269.209 1239.61,268.315C1241.98,266.471 1242.27,269.849 1246.51,272.669C1250.97,275.64 1253.51,276.912 1259.13,278.098C1261,278.492 1261.99,279.159 1263.78,279.5C1265.16,279.765 1267.53,280.048 1268.49,280.744C1272.15,283.394 1264.83,285.502 1262.48,285.762C1254.7,286.627 1240.95,279.464 1238.72,273.16Z" style="fill:none;stroke:rgb(0,0,255);stroke-width:0.22px;"/>
        </g>
        <g transform="matrix(1.33333,0,0,1.33333,-1338.57,-58.1464)">
            <path d="M1375.17,283.115C1374.99,283.52 1374.55,284.01 1374.19,284.409C1370.68,288.347 1361.07,291.015 1355.86,291.832C1354.52,292.042 1353.01,292.304 1351.64,292.275C1349.14,292.221 1350.31,290.98 1351.64,290.464C1358.89,287.666 1356.95,289.56 1364.58,284.759C1366.79,283.37 1371,279.797 1373.76,280.129C1375.18,280.301 1375.87,281.574 1375.17,283.115Z" style="fill:none;stroke:rgb(0,0,255);stroke-width:0.22px;"/>
        </g>
        <g transform="matrix(1.33333,0,0,1.33333,-1338.57,-58.1464)">
            <path d="M1294.47,279.351C1298.94,281.632 1299.44,285.26 1304.38,287.106C1310.27,289.308 1314.91,290.02 1321.81,289.667C1324.79,289.514 1327.76,289.06 1330.7,288.629C1338.79,287.446 1343.48,287.138 1351.36,284.097C1352.24,283.758 1354.27,282.826 1355.26,282.993C1356.28,284.686 1355.04,285.182 1352.25,286.18C1350.45,286.825 1348.8,287.229 1346.94,287.863C1336.33,291.472 1325.33,296.649 1314.58,297.78C1305.8,298.705 1292.32,294.425 1287.15,288.69C1286.11,287.54 1285.67,287.159 1284.97,285.454C1284.29,283.816 1283.78,281.274 1284.67,279.622C1285.86,277.399 1292.34,278.413 1294.47,279.351Z" style="fill:none;stroke:rgb(0,0,255);stroke-width:0.22px;"/>
        </g>
        <g transform="matrix(1.33333,0,0,1.33333,-1338.57,-58.1464)">
            <path d="M1261.68,293.202C1263.45,293.648 1264.81,293.854 1268.08,294.112C1271.41,294.375 1277.84,294.627 1280.96,293.785C1282.56,293.354 1282.35,293.459 1283.53,294.215C1289.55,298.065 1300.02,300.923 1307.83,301.816L1310.47,302.169C1324.19,303.276 1336.6,301.395 1350.02,300.05C1353.88,299.239 1357.59,299.001 1362.07,297.899C1362.64,297.757 1363.19,297.626 1363.74,297.496" style="fill:none;stroke:rgb(0,0,255);stroke-width:0.22px;"/>
        </g>
        <g transform="matrix(1.33333,0,0,1.33333,-1338.57,-58.1464)">
            <path d="M1277.24,324.332C1277.78,323.061 1279.02,321.327 1280.38,320.982L1281.05,322.012C1280.33,322.735 1280.23,322.397 1279.54,323.357C1279.1,323.98 1278.82,324.609 1278.35,325.253L1277.24,324.332Z" style="fill:none;stroke:rgb(0,0,255);stroke-width:0.22px;"/>
        </g>
        <g transform="matrix(1.33333,0,0,1.33333,-1338.57,-58.1464)">
            <path d="M1294.66,321.335C1294.1,322.008 1294.86,322.358 1294.48,324.823C1293.34,332.317 1280.72,331.475 1276.26,325.558L1275.23,324.287" style="fill:none;stroke:rgb(0,0,255);stroke-width:0.22px;"/>
        </g>
        <g transform="matrix(1.33333,0,0,1.33333,-1338.57,-58.1464)">
            <path d="M1390.08,245.596C1389.63,245.792 1389.19,245.99 1388.79,246.169C1383.99,248.276 1380.03,249.955 1375.41,252.73C1373.71,253.746 1371.84,254.686 1370.43,255.784C1368.75,257.094 1367.86,258.073 1366.61,259.858C1365.13,260.964 1364.28,263.661 1364.12,265.425C1364,269.558 1365.39,272.056 1367.07,274.689C1365.19,276.532 1360.88,278.272 1357.77,279.329C1354.24,280.527 1350.41,281.348 1346.6,282.11C1337.13,283.716 1327.75,284.678 1317.93,284.313C1313.23,284.138 1306.08,282.939 1303.74,279.001C1302.44,276.824 1302.78,274.88 1302.37,272.571C1302.06,270.903 1301.69,270.802 1301.14,269.725L1300.07,269.66C1299.85,270.007 1299.99,269.687 1299.86,270.18L1299.72,271.537C1299.69,272.159 1299.65,272.728 1299.57,273.346C1295.8,273.936 1290.16,272.719 1286.42,272.192C1285.8,272.105 1281.2,270.932 1280.29,270.597C1279.34,270.252 1278.47,269.962 1277.51,269.486C1277.22,268.484 1277.33,267.538 1277.5,266.509L1277.2,266.483C1276.44,267.595 1275.66,268.354 1275.01,270.048C1274.54,271.268 1274.19,273.966 1273.79,274.683C1270.66,276.869 1261.9,274.408 1258.56,273.232C1256.13,272.381 1246.81,268.77 1246.05,267.566C1244.59,266.92 1242.88,265.607 1241.63,264.582C1241.08,264.135 1240.93,263.806 1240.45,263.376C1239.78,262.782 1239.77,262.973 1239.24,262.21C1238.94,261.782 1238.56,261.253 1238.27,260.785C1237.54,259.58 1237.51,258.557 1237.42,256.995" style="fill:none;stroke:rgb(0,0,255);stroke-width:0.22px;"/>
        </g>
        <g transform="matrix(1.33333,0,0,1.33333,-1338.57,-58.1464)">
            <path d="M1379.72,282.66C1380.7,283.13 1383.48,287.136 1385.72,284.285C1386.97,282.703 1386.74,278.389 1389.04,278.01C1393.48,277.277 1392.46,287.855 1399.93,285.98C1406.74,284.272 1411.62,273.677 1405.65,268.354C1403.5,266.426 1401.36,266.527 1398.36,266.574C1399.62,265.131 1401.31,264.208 1402.43,262.818" style="fill:none;stroke:rgb(0,0,255);stroke-width:0.22px;"/>
        </g>
        <g transform="matrix(1.33333,0,0,1.33333,-1338.57,-58.1464)">
            <path d="M1378.54,277.855L1379.72,282.66C1380.05,284.051 1380.44,285.511 1381.07,286.647C1381.39,287.238 1381.73,287.745 1382.1,288.212C1382.61,288.841 1383.02,289.063 1383.19,289.197" style="fill:none;stroke:rgb(0,0,255);stroke-width:0.22px;"/>
        </g>
        <g transform="matrix(1.33333,0,0,1.33333,-1338.57,-58.1464)">
            <path d="M1398.36,266.574C1397.77,266.803 1396.66,267.793 1396.08,268.214C1392.39,270.909 1388.17,273.601 1383.94,275.581C1382.77,276.127 1379.34,277.353 1378.54,277.855" style="fill:none;stroke:rgb(0,0,255);stroke-width:0.22px;"/>
        </g>
        <g transform="matrix(1.33333,0,0,1.33333,-1338.57,-58.1464)">
            <path d="M1300.91,264.011L1300.83,264.101C1314.94,264.961 1332.47,265.035 1346.43,263.364C1346.75,261.408 1345.31,254.756 1344.75,252.337C1344.37,250.715 1343.88,249.525 1343.84,249.535C1338.89,250.759 1326.52,244.435 1321.38,244.598C1319.62,244.654 1317.26,245.059 1315.86,245.862C1314.38,246.709 1313.73,248.144 1312.82,249.545C1310.37,253.327 1308.17,252.268 1303.2,253.403C1303.86,256.992 1303.24,261.442 1300.91,264.011Z" style="fill:none;stroke:rgb(0,0,255);stroke-width:0.22px;"/>
        </g>
        <g transform="matrix(1.33333,0,0,1.33333,-1338.57,-58.1464)">
            <path d="M1247.03,249.241L1248.91,250.278C1252.6,251.905 1256.53,253.568 1260.41,254.927C1262.38,255.616 1264.25,256.268 1266.37,257.007C1268.41,257.719 1270.38,258.202 1272.42,258.888C1274.08,259.398 1276.43,260.1 1278.15,260.266C1277.3,255.314 1276.54,251.305 1279.43,246.989C1278.21,245.61 1275.88,242.076 1274.72,240.401C1272.13,236.69 1273.48,237.552 1270.04,233.808C1267.12,230.637 1258.44,229.012 1254.63,226.554C1251.88,228.307 1248.69,240.037 1248.05,242.963C1247.7,244.563 1247.46,248.033 1247.03,249.241Z" style="fill:none;stroke:rgb(0,0,255);stroke-width:0.22px;"/>
        </g>
        <g transform="matrix(1.33333,0,0,1.33333,-1338.57,-58.1464)">
            <path d="M1210.65,172.418C1210.86,173.161 1211.27,173.883 1211.77,174.565C1213.41,176.783 1215.95,178.374 1218.76,179.353C1233.91,184.645 1246.07,171.888 1244.8,160.653" style="fill:none;stroke:rgb(0,0,255);stroke-width:0.22px;"/>
        </g>
        <g transform="matrix(1.33333,0,0,1.33333,-1338.57,-58.1464)">
            <path d="M1278.15,260.266C1278.89,260.372 1279.84,258.438 1280.08,257.85C1281.86,257.848 1299.77,260.832 1301.13,261.41L1300.83,264.101" style="fill:none;stroke:rgb(0,0,255);stroke-width:0.22px;"/>
        </g>
        <g transform="matrix(1.33333,0,0,1.33333,-1338.57,-58.1464)">
            <path d="M1250.8,213.506C1250.33,216.207 1250.66,218.523 1251.17,221.285C1251.57,222.754 1251.8,223.516 1252.65,224.547C1253.2,225.211 1253.72,226.106 1254.62,226.54" style="fill:none;stroke:rgb(0,0,255);stroke-width:0.22px;"/>
        </g>
        <g transform="matrix(1.33333,0,0,1.33333,-1338.57,-58.1464)">
            <path d="M1247.88,178.517L1241.38,181.207C1239.17,182.311 1237.49,183.356 1235.49,184.638C1232.62,186.48 1230.1,188.392 1227.51,190.53L1224.82,192.941" style="fill:none;stroke:rgb(0,0,255);stroke-width:0.22px;"/>
        </g>
        <g transform="matrix(1.33333,0,0,1.33333,-1338.57,-58.1464)">
            <path d="M1244.96,227.271C1246.02,227.046 1245.51,226.858 1246.25,225.693C1246.6,225.15 1247.13,224.541 1247.56,223.945L1249.46,221.752C1250.23,220.914 1250.19,221.188 1251.12,221.024" style="fill:none;stroke:rgb(0,0,255);stroke-width:0.22px;"/>
        </g>
        <g transform="matrix(1.33333,0,0,1.33333,-1338.57,-58.1464)">
            <path d="M1343.84,249.535C1347.41,248.656 1349.86,247.305 1352.88,245.45C1355.37,243.652 1358.2,241.317 1361.43,239.909C1367.96,237.066 1372.49,242.917 1378.24,236.995C1378.89,236.328 1379.38,235.954 1380.05,235.336C1381.2,234.285 1380.86,234.006 1382.06,233.484" style="fill:none;stroke:rgb(0,0,255);stroke-width:0.22px;"/>
        </g>
        <g transform="matrix(1.33333,0,0,1.33333,-1338.57,-58.1464)">
            <path d="M1279.43,246.989C1286.7,251.611 1294.53,253.225 1303.2,253.403" style="fill:none;stroke:rgb(0,0,255);stroke-width:0.22px;"/>
        </g>
        <g transform="matrix(1.33333,0,0,1.33333,-1338.57,-58.1464)">
            <path d="M1364.11,266.055C1364.09,266.06 1363.86,266.151 1363.83,266.162C1358.33,268.245 1352.74,269.573 1347.08,270.269M1346.5,282.011C1347.08,278.076 1346.76,274.223 1347.08,270.269C1343.81,270.402 1338.58,270.676 1335.15,270.766C1331.2,270.87 1327.3,270.969 1323.34,270.877C1315.78,270.702 1308.53,270.266 1301.04,269.626" style="fill:none;stroke:rgb(0,0,255);stroke-width:0.22px;"/>
        </g>
        <g transform="matrix(1.33333,0,0,1.33333,-1338.57,-58.1464)">
            <path d="M1309.52,302.09C1310.51,302.895 1312.05,304.547 1313.07,305.436L1321.38,312.086C1321.96,312.503 1322.47,312.856 1322.98,313.203" style="fill:none;stroke:rgb(0,0,255);stroke-width:0.22px;"/>
        </g>
        <g transform="matrix(1.33333,0,0,1.33333,-1338.57,-58.1464)">
            <path d="M1351.82,321.79C1351.67,321.328 1352.35,320.143 1352.52,319.427C1352.74,318.524 1352.89,317.494 1352.93,316.526C1353.05,313.877 1351.07,300.843 1350.02,300.05" style="fill:none;stroke:rgb(0,0,255);stroke-width:0.22px;"/>
        </g>
        <g transform="matrix(1.33333,0,0,1.33333,-1338.57,-58.1464)">
            <path d="M1307.13,320.282C1307.76,320.178 1308.65,319.256 1309.59,317.198C1312.2,311.481 1309.37,302.586 1307.83,301.816" style="fill:none;stroke:rgb(0,0,255);stroke-width:0.22px;"/>
        </g>
        <g transform="matrix(1.33333,0,0,1.33333,-1338.57,-58.1464)">
            <path d="M1302.52,319.596C1303.41,319.661 1305.43,319.956 1306.34,320.161C1308.69,320.691 1313.24,319.798 1315.41,319.349" style="fill:none;stroke:rgb(0,0,255);stroke-width:0.22px;"/>
        </g>
        <g transform="matrix(1.33333,0,0,1.33333,-1338.57,-58.1464)">
            <path d="M1362.59,167.543C1362.54,169.14 1350.71,161.235 1349.8,160.485C1343.86,158.37 1344.03,157.964 1336.97,156.061C1324.68,152.747 1311.04,152.173 1298.31,152.662C1297.18,152.705 1291.31,153.57 1291.08,153.426" style="fill:none;stroke:rgb(0,0,255);stroke-width:0.22px;"/>
        </g>
        <g transform="matrix(1.33333,0,0,1.33333,-1338.57,-58.1464)">
            <path d="M1239.17,244.155C1241.42,245.539 1244.82,248.228 1247.03,249.241" style="fill:none;stroke:rgb(0,0,255);stroke-width:0.22px;"/>
        </g>
        <g transform="matrix(1.33333,0,0,1.33333,-1338.57,-58.1464)">
            <path d="M1349.8,160.485C1350.19,156.991 1344.91,150.65 1344.57,148.481C1346.1,148.526 1346.44,148.848 1347.4,149.544C1348.26,150.166 1349.24,150.96 1350.33,150.555C1350.36,150.492 1350.39,150.328 1350.39,150.359C1350.4,150.376 1350.83,149.109 1349.08,147.41C1347.33,145.723 1345.3,144.86 1342.8,142.422C1342.21,141.85 1341.98,141.716 1342.07,140.878C1346.47,140.072 1352.98,145.027 1356.58,147.504C1359.74,149.675 1362.85,152.029 1365.77,154.579C1366.18,154.94 1366.76,155.47 1367.25,155.929L1374.35,162.481C1377.56,165.315 1385.18,173.135 1387.85,176.276C1388.47,176.998 1389.65,178.618 1390.5,179.217" style="fill:none;stroke:rgb(0,0,255);stroke-width:0.22px;"/>
        </g>
        <g transform="matrix(1.33333,0,0,1.33333,-1338.57,-58.1464)">
            <path d="M1397.36,175.059C1393.75,176.171 1392.62,177.222 1390.5,179.217C1390.3,179.704 1389.86,180.541 1389.25,180.672" style="fill:none;stroke:rgb(0,0,255);stroke-width:0.22px;"/>
        </g>
        <g transform="matrix(1.33333,0,0,1.33333,-1338.57,-58.1464)">
            <path d="M1402.7,177.96C1405.13,177.847 1407.98,177.788 1409.17,179.605C1410.28,181.311 1409.47,185.141 1408.75,186.697C1407.73,188.876 1406.54,190.091 1404.62,190.996C1398.71,193.777 1396.56,192.907 1392.62,189.439C1390.95,187.976 1390.15,186.037 1391.45,183.476C1393.57,179.31 1398.32,178.163 1402.7,177.96Z" style="fill:none;stroke:rgb(0,0,255);stroke-width:0.22px;"/>
        </g>
        <g transform="matrix(1.33333,0,0,1.33333,-1338.57,-58.1464)">
            <path d="M1358.8,327.927C1358.68,328.023 1358.55,328.129 1358.4,328.239C1356.1,329.972 1352.59,332.54 1356.72,336.59C1361.32,341.252 1374.96,340.638 1373.63,331.779C1372.85,326.547 1365.56,326.127 1365.37,326.021" style="fill:none;stroke:rgb(0,0,255);stroke-width:0.22px;"/>
        </g>
        <g transform="matrix(1.33333,0,0,1.33333,-1338.57,-58.1464)">
            <path d="M1354.84,319.124C1354.25,319.398 1354.08,319.865 1353.42,320.498C1352.93,320.976 1352.47,321.414 1351.82,321.79C1348.95,324.189 1346.64,324.593 1342.03,324.305" style="fill:none;stroke:rgb(0,0,255);stroke-width:0.22px;"/>
        </g>
        <g transform="matrix(1.33333,0,0,1.33333,-1338.57,-58.1464)">
            <path d="M1309.32,193.765C1308.33,194.594 1308.21,196.87 1310.74,198.177C1313.14,199.415 1327.29,203.543 1327.42,198.687C1327.41,196.74 1327.37,195.905 1325.2,194.106C1320.8,190.449 1311.79,190.228 1309.64,193.267C1309.61,193.317 1309.57,193.377 1309.54,193.424L1309.32,193.765Z" style="fill:none;stroke:rgb(0,0,255);stroke-width:0.22px;"/>
        </g>
        <g transform="matrix(1.33333,0,0,1.33333,-1338.57,-58.1464)">
            <path d="M1346.12,263.4C1352.76,262.585 1359.39,261.088 1366.03,259.059" style="fill:none;stroke:rgb(0,0,255);stroke-width:0.22px;"/>
        </g>
        <g transform="matrix(1.33333,0,0,1.33333,-1338.57,-58.1464)">
            <path d="M1300.41,335.187C1301.64,334.937 1302.9,334.605 1303.85,334.244C1306.68,333.172 1306.53,332.772 1307.87,332.037L1307.87,335.187L1300.41,335.187Z" style="fill:none;stroke:rgb(0,0,255);stroke-width:0.22px;"/>
        </g>
        <g transform="matrix(1.33333,0,0,1.33333,-1338.57,-58.1464)">
            <path d="M1350.44,335.187L1315.38,335.187L1315.41,319.35C1317.3,318.698 1318.36,318.319 1319.78,317.211C1320.7,316.499 1322.55,314.561 1322.98,313.203C1323.6,313.633 1324.22,314.057 1324.95,314.582L1331.86,319.165C1335.11,321.241 1338.09,322.907 1342.03,324.305L1346.82,330.428C1347.9,331.744 1348.72,332.874 1349.48,333.89L1350.44,335.187Z" style="fill:none;stroke:rgb(0,0,255);stroke-width:0.22px;"/>
        </g>
        <g transform="matrix(1.33333,0,0,1.33333,-1338.57,-58.1464)">
            <path d="M1350.41,335.151C1351.99,337.232 1353.59,338.993 1357.14,341.357C1364.72,346.389 1378.18,344.132 1378.54,335.149" style="fill:none;stroke:rgb(0,0,255);stroke-width:0.22px;"/>
        </g>
        <g transform="matrix(1.33333,0,0,1.33333,-1338.57,-58.1464)">
            <path d="M1284.46,335.15C1289.5,336.241 1295.33,336.01 1299.01,335.438C1299.38,335.382 1299.76,335.316 1300.15,335.24" style="fill:none;stroke:rgb(0,0,255);stroke-width:0.22px;"/>
        </g>
        <g transform="matrix(1.33333,0,0,1.33333,-1338.57,-58.1464)">
            <path d="M1307.87,335.187L1315.38,335.187" style="fill:none;stroke:rgb(0,0,255);stroke-width:0.22px;"/>
        </g>
        <g transform="matrix(1.33333,0,0,1.33333,-1338.57,-58.1464)">
            <path d="M1367.07,274.689C1370,277.936 1373.77,279.107 1378.54,277.855" style="fill:none;stroke:rgb(0,0,255);stroke-width:0.22px;"/>
        </g>
    </g>
</svg>
