<?xml version="1.0" encoding="UTF-8" standalone="no"?>
<!DOCTYPE svg PUBLIC "-//W3C//DTD SVG 1.1//EN" "http://www.w3.org/Graphics/SVG/1.1/DTD/svg11.dtd">
<svg width="100%" height="100%" viewBox="0 0 1123 794" version="1.1" xmlns="http://www.w3.org/2000/svg" xmlns:xlink="http://www.w3.org/1999/xlink" xml:space="preserve" xmlns:serif="http://www.serif.com/" style="fill-rule:evenodd;clip-rule:evenodd;stroke-miterlimit:22.9256;">
    <g transform="matrix(1,0,0,1,-558.389,-4.97697)">
        <g transform="matrix(1.33333,0,0,1.33333,-1338.57,-58.1464)">
            <path d="M1511.54,352.445C1511.07,352.445 1510.69,352.064 1510.69,351.594C1510.69,351.124 1511.07,350.744 1511.54,350.744L1511.54,345.925L1467.8,345.925C1464.98,345.925 1462.56,344.499 1461.19,342.033C1459.82,339.565 1459.89,336.757 1461.39,334.363L1462.86,332.006L1462.86,332.006C1455.31,324.226 1457.01,309.298 1464.14,304.256C1467.01,303.015 1469.02,305.163 1469.34,304.683C1469.71,304.124 1470.86,303.348 1471.4,303.391C1475.73,303.73 1479.96,305.51 1487.52,310.291C1488.51,300.3 1492.75,291.612 1497.52,283.135C1480.45,271.338 1482.83,247.071 1492.43,218.166C1471.66,222.885 1472.43,196.158 1462.6,189.75C1462.36,189.594 1462.24,189.319 1462.31,189.041C1462.37,188.763 1462.59,188.565 1462.87,188.527C1471.98,187.337 1480.99,188.095 1489.88,191.387C1487.3,189.501 1485.77,187.97 1482.81,186.766C1476.15,184.055 1468.6,184.548 1461.5,185.446C1455.87,186.159 1452.59,189.735 1436.04,186.248C1432.06,185.41 1422.64,178.065 1422.72,173.775C1422.73,172.949 1423.12,172.246 1423.8,171.785C1424.49,171.324 1425.28,171.234 1426.05,171.531C1430.85,173.384 1434.38,176.769 1439.81,178.469C1442.02,179.178 1443.32,178.576 1443.77,176.771C1444.35,171.832 1441.74,166.285 1441.64,161.105C1441.61,159.356 1441.97,158.102 1442.72,156.848C1443.21,156.023 1443.9,155.451 1444.84,155.255C1445.78,155.059 1446.7,155.234 1447.42,155.868L1448.96,157.217C1452.51,163.468 1453.33,171.416 1459.61,175.97C1464.8,177.742 1468.93,178.206 1471.73,174.885C1474.05,167.967 1467.55,159.87 1469.82,152.151C1471.55,149.299 1473.62,148.726 1476.62,148.955C1480.3,149.236 1480.4,156.012 1480.77,164.033C1480.89,166.726 1482.01,169.235 1483.32,172.714C1484.63,175.565 1486.15,178.183 1488.22,180.154C1489.46,181.132 1491.22,181.613 1492.24,180.543C1495.13,177.509 1493.75,173.238 1494.31,169.904C1495.54,162.672 1496.82,157.273 1500.72,157.535C1502.5,158.6 1503.92,160.557 1504.68,164.136C1505.41,172.182 1501.89,178.531 1501.67,187.143C1501.46,189.147 1502.55,191.556 1505.83,196.27C1507.34,191.54 1510.36,188.464 1514.38,186.501C1515.84,181.622 1518.09,178.023 1520.99,175.459L1520.99,47.343L1532.32,47.343L1532.32,166.088C1534.3,163.155 1538.28,161.531 1541.86,161.525C1543.92,161.521 1547.15,162.512 1548.62,164.136C1549.39,160.557 1550.81,158.6 1552.59,157.535C1556.49,157.273 1557.77,162.672 1559,169.904C1559.56,173.238 1558.18,177.509 1561.07,180.543C1562.09,181.613 1563.85,181.132 1565.09,180.154C1567.16,178.183 1568.68,175.565 1569.99,172.714C1571.3,169.235 1572.42,166.726 1572.54,164.033C1572.91,156.012 1573.01,149.236 1576.69,148.955C1579.69,148.726 1581.76,149.299 1583.49,152.151C1585.76,159.87 1579.26,167.967 1581.58,174.885C1584.38,178.206 1588.51,177.742 1593.7,175.97C1599.98,171.416 1600.8,163.468 1604.35,157.217L1605.89,155.868C1606.61,155.234 1607.53,155.059 1608.47,155.255C1609.41,155.451 1610.1,156.023 1610.59,156.848C1611.34,158.102 1611.7,159.356 1611.67,161.105C1611.57,166.285 1608.96,171.832 1609.54,176.771C1609.62,177.084 1609.72,177.361 1609.85,177.601C1612.23,175.952 1614.78,176.005 1617.41,176.856C1620.85,175.111 1623.71,172.901 1627.26,171.531C1628.03,171.234 1628.83,171.324 1629.51,171.785C1630.19,172.246 1630.58,172.95 1630.59,173.775C1630.67,178.222 1621.39,185.247 1617.41,186.216L1617.41,211.007L1618.16,211.007C1619.83,211.007 1621.19,212.366 1621.19,214.031L1621.19,219.571C1631.59,222.792 1639.14,232.486 1639.14,243.944C1639.14,258.033 1627.72,269.455 1613.63,269.455C1599.54,269.455 1588.12,258.033 1588.12,243.944C1588.12,232.486 1595.67,222.792 1606.07,219.571L1606.07,214.031C1606.07,212.366 1607.43,211.007 1609.09,211.007L1609.85,211.007L1609.85,187.468C1607.1,187.768 1604.87,187.807 1602.98,187.691C1597.79,187.371 1595.24,185.879 1591.81,185.446C1584.71,184.548 1577.16,184.055 1570.5,186.766C1567.54,187.97 1566.01,189.501 1563.43,191.387C1572.65,187.971 1582.01,187.283 1591.47,188.671C1591.71,188.706 1591.89,188.85 1591.99,189.071C1592.08,189.293 1592.06,189.528 1591.92,189.722C1582.84,202.342 1580.17,218.959 1560.88,218.166C1570.49,247.071 1572.86,271.338 1555.79,283.135C1560.56,291.612 1564.8,300.3 1565.79,310.291C1573.34,305.51 1577.58,303.73 1581.91,303.391C1582.45,303.348 1583.6,304.124 1583.97,304.683C1584.3,305.163 1586.3,303.015 1589.17,304.256C1596.3,309.298 1598,324.226 1590.45,332.006L1591.92,334.363C1593.41,336.757 1593.49,339.565 1592.12,342.033C1590.75,344.499 1588.33,345.925 1585.51,345.925L1541.77,345.925L1541.77,350.744C1542.24,350.744 1542.62,351.124 1542.62,351.594C1542.62,352.064 1542.24,352.445 1541.77,352.445L1541.77,357.264L1537.99,357.264L1537.99,362.083C1538.46,362.083 1538.84,362.463 1538.84,362.933C1538.84,363.403 1538.46,363.783 1537.99,363.783L1537.99,368.602L1515.32,368.602L1515.32,363.783C1514.85,363.783 1514.47,363.403 1514.47,362.933C1514.47,362.463 1514.85,362.083 1515.32,362.083L1515.32,357.264L1511.54,357.264L1511.54,352.445Z" style="fill:none;stroke:rgb(255,0,0);stroke-width:0.22px;"/>
        </g>
        <g transform="matrix(1.33333,0,0,1.33333,-1338.57,-58.1464)">
            <path d="M1548.62,164.136C1547.9,172.182 1552.74,178.531 1552.96,187.144C1553.21,189.527 1550.77,194.324 1545.84,201.052C1543.07,198.808 1533.06,196.381 1526.84,196.101C1520.56,195.579 1511.65,195.979 1507.94,199.213C1507.15,198.141 1506.45,197.164 1505.83,196.27" style="fill:none;stroke:rgb(0,0,255);stroke-width:0.22px;"/>
        </g>
        <g transform="matrix(1.33333,0,0,1.33333,-1338.57,-58.1464)">
            <path d="M1514.38,186.501C1523.65,183.485 1535.84,185.202 1551.39,192.37" style="fill:none;stroke:rgb(0,0,255);stroke-width:0.22px;"/>
        </g>
        <g transform="matrix(1.33333,0,0,1.33333,-1338.57,-58.1464)">
            <path d="M1531.07,170.707C1539.36,169.168 1545.5,171.426 1550.52,175.671" style="fill:none;stroke:rgb(0,0,255);stroke-width:0.22px;"/>
        </g>
        <g transform="matrix(1.33333,0,0,1.33333,-1338.57,-58.1464)">
            <path d="M1516.58,223.201C1513.74,223.201 1511.44,226.178 1511.44,229.849C1511.44,233.52 1513.74,236.496 1516.58,236.496C1519.41,236.496 1521.72,233.52 1521.72,229.849C1521.72,226.178 1519.41,223.201 1516.58,223.201Z" style="fill:none;stroke:rgb(0,0,255);stroke-width:0.22px;"/>
        </g>
        <g transform="matrix(1.33333,0,0,1.33333,-1338.57,-58.1464)">
            <path d="M1517.87,225.842C1516.74,225.842 1515.82,226.907 1515.82,228.222C1515.82,229.537 1516.74,230.603 1517.87,230.603C1519.01,230.603 1519.92,229.537 1519.92,228.222C1519.92,226.907 1519.01,225.842 1517.87,225.842Z" style="fill:none;stroke:rgb(0,0,255);stroke-width:0.22px;"/>
        </g>
        <g transform="matrix(1.33333,0,0,1.33333,-1338.57,-58.1464)">
            <path d="M1507.94,199.213C1509.15,203.629 1508.92,211.605 1500.66,210.065C1496.31,209.253 1495.97,196.104 1489.88,191.387" style="fill:none;stroke:rgb(0,0,255);stroke-width:0.22px;"/>
        </g>
        <g transform="matrix(1.33333,0,0,1.33333,-1338.57,-58.1464)">
            <path d="M1497.44,206.283C1486.87,198.118 1475.64,193.179 1462.31,189.041" style="fill:none;stroke:rgb(0,0,255);stroke-width:0.22px;"/>
        </g>
        <g transform="matrix(1.33333,0,0,1.33333,-1338.57,-58.1464)">
            <path d="M1498.1,207.661C1495.59,210.815 1493.75,214.446 1492.43,218.166" style="fill:none;stroke:rgb(0,0,255);stroke-width:0.22px;"/>
        </g>
        <g transform="matrix(1.33333,0,0,1.33333,-1338.57,-58.1464)">
            <path d="M1545.84,201.118C1544.63,205.534 1548.02,210.285 1552.65,210.065C1557.07,209.855 1557.34,196.104 1563.43,191.387" style="fill:none;stroke:rgb(0,0,255);stroke-width:0.22px;"/>
        </g>
        <g transform="matrix(1.33333,0,0,1.33333,-1338.57,-58.1464)">
            <path d="M1556.01,206.283C1566.58,198.118 1578.3,192.852 1591.63,188.714" style="fill:none;stroke:rgb(0,0,255);stroke-width:0.22px;"/>
        </g>
        <g transform="matrix(1.33333,0,0,1.33333,-1338.57,-58.1464)">
            <path d="M1555.32,207.768C1557.83,210.922 1559.56,214.446 1560.88,218.166" style="fill:none;stroke:rgb(0,0,255);stroke-width:0.22px;"/>
        </g>
        <g transform="matrix(1.33333,0,0,1.33333,-1338.57,-58.1464)">
            <path d="M1527.14,239.788C1542.6,239.788 1555.14,248.106 1555.14,258.367C1555.14,268.627 1542.6,276.945 1527.14,276.945C1511.67,276.945 1499.13,268.627 1499.13,258.367C1499.13,248.106 1511.67,239.788 1527.14,239.788Z" style="fill:none;stroke:rgb(0,0,255);stroke-width:0.22px;"/>
        </g>
        <g transform="matrix(1.33333,0,0,1.33333,-1338.57,-58.1464)">
            <path d="M1519.19,248.308C1521.8,247.641 1524.22,248.244 1524.58,249.653C1524.93,251.062 1523.1,252.746 1520.49,253.412C1517.87,254.078 1515.46,253.476 1515.1,252.067C1514.74,250.657 1516.57,248.974 1519.19,248.308Z" style="fill:none;stroke:rgb(0,0,255);stroke-width:0.22px;"/>
        </g>
        <g transform="matrix(1.33333,0,0,1.33333,-1338.57,-58.1464)">
            <path d="M1527.46,243.981C1536.74,243.981 1544.25,247.232 1544.25,251.242C1544.25,255.252 1536.74,258.503 1527.46,258.503C1518.19,258.503 1510.67,255.252 1510.67,251.242C1510.67,247.232 1518.19,243.981 1527.46,243.981Z" style="fill:none;stroke:rgb(0,0,255);stroke-width:0.22px;"/>
        </g>
        <g transform="matrix(1.33333,0,0,1.33333,-1338.57,-58.1464)">
            <path d="M1539.23,222.898C1542.07,222.898 1544.37,225.874 1544.37,229.546C1544.37,233.217 1542.07,236.193 1539.23,236.193C1536.39,236.193 1534.09,233.217 1534.09,229.546C1534.09,225.874 1536.39,222.898 1539.23,222.898Z" style="fill:none;stroke:rgb(0,0,255);stroke-width:0.22px;"/>
        </g>
        <g transform="matrix(1.33333,0,0,1.33333,-1338.57,-58.1464)">
            <path d="M1537.93,225.538C1539.07,225.538 1539.98,226.604 1539.98,227.919C1539.98,229.234 1539.07,230.3 1537.93,230.3C1536.8,230.3 1535.88,229.234 1535.88,227.919C1535.88,226.604 1536.8,225.538 1537.93,225.538Z" style="fill:none;stroke:rgb(0,0,255);stroke-width:0.22px;"/>
        </g>
        <g transform="matrix(1.33333,0,0,1.33333,-1338.57,-58.1464)">
            <path d="M1555.79,283.135C1548.96,286.974 1537.51,292.372 1526.65,291.849C1516.45,291.357 1504.75,287.776 1497.52,283.135" style="fill:none;stroke:rgb(0,0,255);stroke-width:0.22px;"/>
        </g>
        <g transform="matrix(1.33333,0,0,1.33333,-1338.57,-58.1464)">
            <path d="M1511.4,334.855C1511.77,324.125 1511.35,312.427 1510.14,299.758" style="fill:none;stroke:rgb(0,0,255);stroke-width:0.22px;"/>
        </g>
        <g transform="matrix(1.33333,0,0,1.33333,-1338.57,-58.1464)">
            <path d="M1483.61,334.162C1484.18,326.486 1485.45,318.54 1487.52,310.291" style="fill:none;stroke:rgb(0,0,255);stroke-width:0.22px;"/>
        </g>
        <g transform="matrix(1.33333,0,0,1.33333,-1338.57,-58.1464)">
            <path d="M1511.52,324.28C1502.17,326.483 1493.31,326.1 1484.71,324.28" style="fill:none;stroke:rgb(0,0,255);stroke-width:0.22px;"/>
        </g>
        <g transform="matrix(1.33333,0,0,1.33333,-1338.57,-58.1464)">
            <path d="M1541.91,334.855C1541.54,324.125 1541.95,312.427 1543.17,299.758" style="fill:none;stroke:rgb(0,0,255);stroke-width:0.22px;"/>
        </g>
        <g transform="matrix(1.33333,0,0,1.33333,-1338.57,-58.1464)">
            <path d="M1569.69,334.162C1569.13,326.486 1567.86,318.54 1565.79,310.291" style="fill:none;stroke:rgb(0,0,255);stroke-width:0.22px;"/>
        </g>
        <g transform="matrix(1.33333,0,0,1.33333,-1338.57,-58.1464)">
            <path d="M1541.79,324.28C1551.14,326.483 1560,326.1 1568.59,324.28" style="fill:none;stroke:rgb(0,0,255);stroke-width:0.22px;"/>
        </g>
        <g transform="matrix(1.33333,0,0,1.33333,-1338.57,-58.1464)">
            <path d="M1511.52,324.28C1520.89,329.961 1530.57,332.56 1541.97,317.307" style="fill:none;stroke:rgb(0,0,255);stroke-width:0.22px;"/>
        </g>
        <g transform="matrix(1.33333,0,0,1.33333,-1338.57,-58.1464)">
            <path d="M1510.14,299.758C1521.2,294.088 1532.21,294.113 1543.17,299.758" style="fill:none;stroke:rgb(0,0,255);stroke-width:0.22px;"/>
        </g>
        <g transform="matrix(1.33333,0,0,1.33333,-1338.57,-58.1464)">
            <path d="M1465.17,303.938C1466.9,304.616 1467.59,306.409 1468.29,309.813C1468.65,307.845 1468.65,305.849 1469.24,304.747M1471.31,303.391C1484.99,310.444 1482.91,334.162 1467.34,335.185" style="fill:none;stroke:rgb(0,0,255);stroke-width:0.22px;"/>
        </g>
        <g transform="matrix(1.33333,0,0,1.33333,-1338.57,-58.1464)">
            <path d="M1588.14,303.938C1586.41,304.616 1585.72,306.409 1585.02,309.813C1584.66,307.845 1584.66,305.849 1584.07,304.747M1582,303.391C1568.32,310.444 1570.4,334.162 1585.97,335.185" style="fill:none;stroke:rgb(0,0,255);stroke-width:0.22px;"/>
        </g>
        <g transform="matrix(1.33333,0,0,1.33333,-1338.57,-58.1464)">
            <path d="M1532.18,280.604C1534.14,280.921 1535.94,280.841 1537.6,280.39C1539.23,279.944 1540.73,279.137 1542.1,277.992C1542.45,277.704 1542.96,277.736 1543.26,278.066L1543.32,278.126C1543.48,278.302 1543.56,278.515 1543.55,278.755C1543.53,278.996 1543.37,279.145 1543.24,279.352C1542.2,281.078 1540.3,282.418 1538.42,282.932C1536.6,283.348 1533.99,283.251 1531.89,282.361C1531.67,282.267 1531.46,282.203 1531.33,282.005C1531.19,281.807 1531.14,281.586 1531.19,281.351L1531.21,281.265C1531.31,280.822 1531.73,280.531 1532.18,280.604Z" style="fill:none;fill-rule:nonzero;stroke:rgb(0,0,255);stroke-width:0.22px;"/>
        </g>
        <g transform="matrix(1.33333,0,0,1.33333,-1338.57,-58.1464)">
            <path d="M1596.23,236.534C1595.58,238.332 1595.15,240.322 1594.94,242.562C1595.99,241.676 1597.52,240.726 1599.98,239.859C1602.31,239.036 1605.82,238.829 1608.84,238.653C1609.71,238.603 1610.52,238.554 1611.4,238.48C1613.9,238.267 1615.83,237.351 1617.05,236.062C1617.59,235.494 1617.98,234.862 1618.23,234.189C1618.47,233.535 1618.56,232.828 1618.5,232.101C1618.38,230.691 1617.65,229.204 1616.21,227.846C1614.16,225.906 1611.65,225.286 1609.17,225.514C1606.04,225.801 1602.97,227.405 1600.87,229.444C1598.76,231.496 1597.23,233.8 1596.23,236.534Z" style="fill:none;stroke:rgb(0,0,255);stroke-width:0.22px;"/>
        </g>
        <g transform="matrix(1.33333,0,0,1.33333,-1338.57,-58.1464)">
            <path d="M1605.19,260.363C1603.75,262.424 1601.15,261.793 1599.99,260.181C1599.27,259.19 1599.29,258.25 1598.8,256.965C1597.94,254.725 1596.89,255.167 1596.06,254.099C1598.47,253.409 1608.22,256.019 1605.19,260.363Z" style="fill:none;stroke:rgb(0,0,255);stroke-width:0.22px;"/>
        </g>
        <g transform="matrix(1.33333,0,0,1.33333,-1338.57,-58.1464)">
            <path d="M1599.92,246.912C1598.1,247.494 1596.4,248.261 1595.19,249.049C1597.86,249.217 1599.33,250.094 1601.24,251.23C1601.97,251.665 1602.78,252.149 1603.81,252.649C1604.84,253.148 1605.88,253.355 1606.82,253.285C1607.48,253.24 1608.08,253.056 1608.59,252.746C1609.05,252.457 1609.43,252.052 1609.68,251.537C1609.95,250.974 1610.08,250.267 1610.02,249.427C1609.92,247.965 1609.22,247.061 1608.18,246.577C1607.22,246.12 1605.95,245.965 1604.56,246.029C1603.07,246.099 1601.46,246.422 1599.92,246.912Z" style="fill:none;stroke:rgb(0,0,255);stroke-width:0.22px;"/>
        </g>
        <g transform="matrix(1.33333,0,0,1.33333,-1338.57,-58.1464)">
            <path d="M1609.85,187.398L1609.85,177.601" style="fill:none;stroke:rgb(0,0,255);stroke-width:0.22px;"/>
        </g>
        <g transform="matrix(1.33333,0,0,1.33333,-1338.57,-58.1464)">
            <path d="M1617.41,176.856L1617.41,186.179" style="fill:none;stroke:rgb(0,0,255);stroke-width:0.22px;"/>
        </g>
        <g transform="matrix(1.33333,0,0,1.33333,-1338.57,-58.1464)">
            <path d="M1609.85,211.007C1612.62,210.713 1615.11,210.765 1617.42,211.007" style="fill:none;stroke:rgb(0,0,255);stroke-width:0.22px;"/>
        </g>
        <g transform="matrix(1.33333,0,0,1.33333,-1338.57,-58.1464)">
            <path d="M1606.14,219.55C1608.51,218.823 1611.02,218.432 1613.63,218.432C1616.27,218.432 1618.82,218.834 1621.22,219.578" style="fill:none;stroke:rgb(0,0,255);stroke-width:0.22px;"/>
        </g>
        <g transform="matrix(1.33333,0,0,1.33333,-1338.57,-58.1464)">
            <path d="M1494.88,340.465C1488.89,340.495 1485.54,339.54 1483.58,338.061L1483.61,334.162C1478.35,335.959 1473.11,336.029 1467.34,335.185C1465.61,334.363 1464.14,333.281 1462.91,332.01" style="fill:none;stroke:rgb(0,0,255);stroke-width:0.22px;"/>
        </g>
        <g transform="matrix(1.33333,0,0,1.33333,-1338.57,-58.1464)">
            <path d="M1555.18,341.031C1550.5,341.22 1546.02,340.787 1541.9,339.278L1541.91,334.855C1537.38,336.802 1532.44,338.078 1526.65,338.013C1520.87,338.078 1515.93,336.802 1511.4,334.855L1511.4,339.278C1507.29,340.787 1502.81,341.22 1498.13,341.031" style="fill:none;stroke:rgb(0,0,255);stroke-width:0.22px;"/>
        </g>
        <g transform="matrix(1.33333,0,0,1.33333,-1338.57,-58.1464)">
            <path d="M1590.41,332.048C1589.18,333.307 1587.7,334.377 1585.97,335.185C1580.2,336.029 1574.96,335.959 1569.69,334.162L1569.73,338.061C1567.77,339.54 1564.41,340.495 1558.43,340.465" style="fill:none;stroke:rgb(0,0,255);stroke-width:0.22px;"/>
        </g>
        <g transform="matrix(1.33333,0,0,1.33333,-1338.57,-58.1464)">
            <path d="M1498.13,341.031C1497.06,341.065 1495.83,340.857 1494.81,340.465L1496.76,334.619L1498.13,341.031Z" style="fill:none;stroke:rgb(0,0,255);stroke-width:0.22px;"/>
        </g>
        <g transform="matrix(1.33333,0,0,1.33333,-1338.57,-58.1464)">
            <path d="M1558.43,340.465L1556.55,334.619L1555.18,341.031C1556.25,341.065 1557.41,340.857 1558.43,340.465Z" style="fill:none;stroke:rgb(0,0,255);stroke-width:0.22px;"/>
        </g>
        <g transform="matrix(1.33333,0,0,1.33333,-1338.57,-58.1464)">
            <path d="M1521.05,175.401C1523.84,172.956 1527.23,171.463 1531.07,170.707C1530.96,168.897 1531.47,167.323 1532.37,166.015" style="fill:none;stroke:rgb(0,0,255);stroke-width:0.22px;"/>
        </g>
    </g>
</svg>
