<?xml version="1.0" encoding="UTF-8" standalone="no"?>
<!DOCTYPE svg PUBLIC "-//W3C//DTD SVG 1.1//EN" "http://www.w3.org/Graphics/SVG/1.1/DTD/svg11.dtd">
<svg width="100%" height="100%" viewBox="0 0 1123 794" version="1.1" xmlns="http://www.w3.org/2000/svg" xmlns:xlink="http://www.w3.org/1999/xlink" xml:space="preserve" xmlns:serif="http://www.serif.com/" style="fill-rule:evenodd;clip-rule:evenodd;stroke-miterlimit:22.9256;">
    <g transform="matrix(1,0,0,1,-358.532,-580.561)">
        <g transform="matrix(1.33333,0,0,1.33333,-569.4,-92.7194)">
            <path d="M695.949,660.662L760.019,505.961L771.358,505.961L835.427,660.662L695.949,660.662Z" style="fill:none;stroke:rgb(255,0,0);stroke-width:0.22px;"/>
        </g>
        <g transform="matrix(1.33333,0,0,1.33333,-569.4,-92.7194)">
            <path d="M870.617,661.437L934.688,506.737L946.027,506.737L1010.1,661.437L870.617,661.437Z" style="fill:none;stroke:rgb(255,0,0);stroke-width:0.22px;"/>
        </g>
        <g transform="matrix(1.33333,0,0,1.33333,-569.4,-92.7194)">
            <path d="M1037.95,662.437L1102.02,507.736L1113.36,507.736L1177.43,662.437L1037.95,662.437Z" style="fill:none;stroke:rgb(255,0,0);stroke-width:0.22px;"/>
        </g>
        <g transform="matrix(1.33333,0,0,1.33333,-569.4,-92.7194)">
            <path d="M1263.93,507.467L1199.87,662.168L1188.53,662.168L1124.46,507.469L1263.93,507.467Z" style="fill:none;stroke:rgb(255,0,0);stroke-width:0.22px;"/>
        </g>
        <g transform="matrix(1.33333,0,0,1.33333,-569.4,-92.7194)">
            <path d="M1094.43,506.961L1030.36,661.662L1019.02,661.662L954.948,506.963L1094.43,506.961Z" style="fill:none;stroke:rgb(255,0,0);stroke-width:0.22px;"/>
        </g>
        <g transform="matrix(1.33333,0,0,1.33333,-569.4,-92.7194)">
            <path d="M922.428,504.96L858.359,659.661L847.02,659.662L782.949,504.963L922.428,504.96Z" style="fill:none;stroke:rgb(255,0,0);stroke-width:0.22px;"/>
        </g>
        <g transform="matrix(1.33333,0,0,1.33333,-569.4,-92.7194)">
            <path d="M760.019,595.536L760.019,565.3L771.358,565.3L771.358,595.536L760.019,595.536Z" style="fill:none;stroke:rgb(255,0,0);stroke-width:0.22px;"/>
        </g>
        <g transform="matrix(1.33333,0,0,1.33333,-569.4,-92.7194)">
            <path d="M934.688,596.311L934.688,566.075L946.026,566.076L946.026,596.312L934.688,596.311Z" style="fill:none;stroke:rgb(255,0,0);stroke-width:0.22px;"/>
        </g>
        <g transform="matrix(1.33333,0,0,1.33333,-569.4,-92.7194)">
            <path d="M1102.02,597.311L1102.02,567.075L1113.36,567.075L1113.36,597.311L1102.02,597.311Z" style="fill:none;stroke:rgb(255,0,0);stroke-width:0.22px;"/>
        </g>
        <g transform="matrix(1.33333,0,0,1.33333,-569.4,-92.7194)">
            <path d="M748.861,609.726L750.533,610.724L750.531,606.512L748.86,607.511L748.861,609.726Z" style="fill:none;stroke:rgb(0,0,255);stroke-width:0.22px;"/>
        </g>
        <g transform="matrix(1.33333,0,0,1.33333,-569.4,-92.7194)">
            <path d="M923.53,610.501L925.202,611.499L925.2,607.288L923.529,608.287L923.53,610.501Z" style="fill:none;stroke:rgb(0,0,255);stroke-width:0.22px;"/>
        </g>
        <g transform="matrix(1.33333,0,0,1.33333,-569.4,-92.7194)">
            <path d="M1090.86,611.501L1092.53,612.498L1092.53,608.287L1090.86,609.286L1090.86,611.501Z" style="fill:none;stroke:rgb(0,0,255);stroke-width:0.22px;"/>
        </g>
        <g transform="matrix(1.33333,0,0,1.33333,-569.4,-92.7194)">
            <path d="M748.028,606.07L749.728,605.121L746.08,603.017L746.109,604.964L748.028,606.07Z" style="fill:none;stroke:rgb(0,0,255);stroke-width:0.22px;"/>
        </g>
        <g transform="matrix(1.33333,0,0,1.33333,-569.4,-92.7194)">
            <path d="M922.696,606.846L924.397,605.897L920.748,603.793L920.778,605.739L922.696,606.846Z" style="fill:none;stroke:rgb(0,0,255);stroke-width:0.22px;"/>
        </g>
        <g transform="matrix(1.33333,0,0,1.33333,-569.4,-92.7194)">
            <path d="M1090.03,607.845L1091.73,606.896L1088.08,604.792L1088.11,606.739L1090.03,607.845Z" style="fill:none;stroke:rgb(0,0,255);stroke-width:0.22px;"/>
        </g>
        <g transform="matrix(1.33333,0,0,1.33333,-569.4,-92.7194)">
            <path d="M746.112,612.275L746.084,614.222L749.73,612.115L748.03,611.167L746.112,612.275Z" style="fill:none;stroke:rgb(0,0,255);stroke-width:0.22px;"/>
        </g>
        <g transform="matrix(1.33333,0,0,1.33333,-569.4,-92.7194)">
            <path d="M920.781,613.051L920.752,614.997L924.399,612.89L922.698,611.943L920.781,613.051Z" style="fill:none;stroke:rgb(0,0,255);stroke-width:0.22px;"/>
        </g>
        <g transform="matrix(1.33333,0,0,1.33333,-569.4,-92.7194)">
            <path d="M1088.11,614.05L1088.08,615.997L1091.73,613.89L1090.03,612.942L1088.11,614.05Z" style="fill:none;stroke:rgb(0,0,255);stroke-width:0.22px;"/>
        </g>
        <g transform="matrix(1.33333,0,0,1.33333,-569.4,-92.7194)">
            <path d="M744.981,606.789L745.758,607.237L746.535,607.685L746.542,609.5L745.77,609.959L744.996,610.418L744.219,609.97L743.441,609.521L743.434,607.706L744.207,607.247L744.981,606.789Z" style="fill:none;stroke:rgb(0,0,255);stroke-width:0.22px;"/>
        </g>
        <g transform="matrix(1.33333,0,0,1.33333,-569.4,-92.7194)">
            <path d="M919.649,607.564L920.427,608.013L921.204,608.461L921.208,609.368L921.211,610.276L920.438,610.734L919.665,611.193L918.888,610.745L918.11,610.296L918.107,609.389L918.103,608.482L918.876,608.023L919.649,607.564Z" style="fill:none;stroke:rgb(0,0,255);stroke-width:0.22px;"/>
        </g>
        <g transform="matrix(1.33333,0,0,1.33333,-569.4,-92.7194)">
            <path d="M1086.98,608.564L1087.76,609.012L1088.53,609.46L1088.54,610.368L1088.54,611.275L1087.77,611.734L1087,612.192L1086.22,611.744L1085.44,611.296L1085.44,610.389L1085.43,609.481L1086.21,609.022L1086.98,608.564Z" style="fill:none;stroke:rgb(0,0,255);stroke-width:0.22px;"/>
        </g>
        <g transform="matrix(1.33333,0,0,1.33333,-569.4,-92.7194)">
            <path d="M741.934,606.07L740.233,605.121L743.881,603.017L743.852,604.964L741.934,606.07Z" style="fill:none;stroke:rgb(0,0,255);stroke-width:0.22px;"/>
        </g>
        <g transform="matrix(1.33333,0,0,1.33333,-569.4,-92.7194)">
            <path d="M916.603,606.846L914.902,605.897L918.55,603.793L918.521,605.739L916.603,606.846Z" style="fill:none;stroke:rgb(0,0,255);stroke-width:0.22px;"/>
        </g>
        <g transform="matrix(1.33333,0,0,1.33333,-569.4,-92.7194)">
            <path d="M1083.93,607.845L1082.23,606.896L1085.88,604.792L1085.85,606.739L1083.93,607.845Z" style="fill:none;stroke:rgb(0,0,255);stroke-width:0.22px;"/>
        </g>
        <g transform="matrix(1.33333,0,0,1.33333,-569.4,-92.7194)">
            <path d="M741.1,609.726L739.428,610.724L739.43,606.512L741.101,607.511L741.1,609.726Z" style="fill:none;stroke:rgb(0,0,255);stroke-width:0.22px;"/>
        </g>
        <g transform="matrix(1.33333,0,0,1.33333,-569.4,-92.7194)">
            <path d="M915.769,610.501L914.097,611.499L914.099,607.288L915.77,608.287L915.769,610.501Z" style="fill:none;stroke:rgb(0,0,255);stroke-width:0.22px;"/>
        </g>
        <g transform="matrix(1.33333,0,0,1.33333,-569.4,-92.7194)">
            <path d="M1083.1,611.501L1081.43,612.498L1081.43,608.287L1083.1,609.286L1083.1,611.501Z" style="fill:none;stroke:rgb(0,0,255);stroke-width:0.22px;"/>
        </g>
        <g transform="matrix(1.33333,0,0,1.33333,-569.4,-92.7194)">
            <path d="M743.849,612.275L743.878,614.222L740.231,612.115L741.932,611.167L743.849,612.275Z" style="fill:none;stroke:rgb(0,0,255);stroke-width:0.22px;"/>
        </g>
        <g transform="matrix(1.33333,0,0,1.33333,-569.4,-92.7194)">
            <path d="M918.518,613.051L918.547,614.997L914.9,612.89L916.601,611.943L918.518,613.051Z" style="fill:none;stroke:rgb(0,0,255);stroke-width:0.22px;"/>
        </g>
        <g transform="matrix(1.33333,0,0,1.33333,-569.4,-92.7194)">
            <path d="M1085.85,614.05L1085.88,615.997L1082.23,613.89L1083.93,612.942L1085.85,614.05Z" style="fill:none;stroke:rgb(0,0,255);stroke-width:0.22px;"/>
        </g>
        <g transform="matrix(1.33333,0,0,1.33333,-569.4,-92.7194)">
            <path d="M744.981,626.466L743.816,625.38L743.822,623.917L742.579,624.616L742.552,622.406L743.839,621.696L743.854,620.977L741.672,622.236L741.631,620.094L743.81,618.796L743.823,617.45L741.897,616.336L741.614,616.825L742.227,618.282L741.576,619.409L740.928,617.883L740.689,618.296L740.931,619.201L740.237,620.404L739.801,619.475L739.31,620.326L738.368,620.577L738.116,619.636L738.607,618.786L737.586,618.873L738.281,617.67L739.185,617.427L739.425,617.014L737.778,617.216L738.43,616.088L739.998,615.891L740.281,615.402L738.354,614.289L737.194,614.973L737.158,617.509L735.282,618.543L735.283,616.025L734.667,616.396L734.695,617.866L732.767,618.946L732.751,617.52L731.487,618.256L729.964,617.79L730.322,616.239L731.593,615.512L730.366,614.784L732.266,613.656L733.525,614.416L734.155,614.069L731.973,612.809L733.808,611.702L736.022,612.941L737.195,612.279L737.195,610.054L736.631,610.054L735.675,611.312L734.373,611.312L735.372,609.988L734.894,609.988L734.232,610.65L732.842,610.649L733.429,609.809L732.446,609.809L731.758,609.119L732.446,608.429L733.428,608.427L732.842,607.587L734.23,607.586L734.894,608.247L735.371,608.247L734.371,606.923L735.673,606.922L736.63,608.18L737.195,608.179L737.192,605.954L736.019,605.294L733.806,606.533L731.971,605.428L734.151,604.167L733.521,603.82L732.263,604.581L730.362,603.454L731.588,602.726L730.318,602L729.958,600.449L731.48,599.984L732.745,600.72L732.762,599.295L734.689,600.375L734.66,601.846L735.275,602.218L735.276,599.699L737.152,600.735L737.186,603.271L738.345,603.955L740.273,602.844L739.991,602.355L738.423,602.156L737.772,601.028L739.418,601.231L739.179,600.818L738.275,600.575L737.58,599.372L738.602,599.459L738.112,598.608L738.364,597.667L739.306,597.919L739.797,598.77L740.232,597.842L740.926,599.045L740.684,599.95L740.923,600.363L741.57,598.837L742.221,599.965L741.608,601.422L741.89,601.91L743.817,600.799L743.805,599.452L741.627,598.153L741.669,596.011L743.85,597.271L743.836,596.553L742.549,595.842L742.577,593.632L743.821,594.331L743.816,592.868L744.981,591.783L746.146,592.868L746.141,594.331L747.384,593.632L747.413,595.842L746.125,596.553L746.111,597.271L748.292,596.011L748.335,598.153L746.156,599.452L746.144,600.799L748.071,601.91L748.353,601.422L747.74,599.965L748.391,598.837L749.039,600.363L749.277,599.95L749.035,599.045L749.729,597.842L750.165,598.77L750.656,597.919L751.598,597.667L751.85,598.608L751.359,599.459L752.381,599.372L751.686,600.575L750.782,600.818L750.543,601.231L752.189,601.028L751.539,602.156L749.971,602.355L749.688,602.844L751.616,603.955L752.775,603.271L752.81,600.735L754.686,599.699L754.686,602.218L755.301,601.846L755.272,600.375L757.199,599.295L757.216,600.72L758.481,599.984L760.003,600.449L759.644,602L758.373,602.726L759.599,603.454L757.699,604.581L756.44,603.82L755.81,604.167L757.99,605.428L756.155,606.533L753.942,605.294L752.769,605.954L752.767,608.179L753.331,608.18L754.288,606.922L755.59,606.923L754.59,608.247L755.068,608.247L755.731,607.586L757.12,607.587L756.533,608.427L757.515,608.429L758.204,609.119L757.515,609.809L756.532,609.809L757.119,610.649L755.73,610.65L755.067,609.988L754.589,609.988L755.588,611.312L754.286,611.312L753.331,610.054L752.766,610.054L752.767,612.279L753.939,612.941L756.153,611.702L757.988,612.809L755.807,614.069L756.436,614.416L757.695,613.656L759.595,614.784L758.369,615.512L759.639,616.239L759.997,617.79L758.475,618.256L757.21,617.52L757.194,618.946L755.266,617.866L755.294,616.396L754.679,616.025L754.68,618.543L752.803,617.509L752.767,614.973L751.607,614.289L749.681,615.402L749.963,615.891L751.531,616.088L752.183,617.216L750.537,617.014L750.776,617.427L751.681,617.67L752.375,618.873L751.354,618.786L751.845,619.636L751.594,620.577L750.652,620.326L750.16,619.475L749.725,620.404L749.03,619.201L749.272,618.296L749.033,617.883L748.386,619.409L747.734,618.282L748.346,616.825L748.064,616.336L746.138,617.45L746.151,618.796L748.33,620.094L748.289,622.236L746.108,620.977L746.122,621.696L747.41,622.406L747.382,624.616L746.139,623.917L746.145,625.38L744.981,626.466Z" style="fill:none;stroke:rgb(0,0,255);stroke-width:0.22px;"/>
        </g>
        <g transform="matrix(1.33333,0,0,1.33333,-569.4,-92.7194)">
            <path d="M919.649,627.242L918.485,626.156L918.49,624.693L917.248,625.391L917.22,623.182L918.508,622.471L918.522,621.753L916.341,623.012L916.3,620.87L918.479,619.571L918.492,618.225L916.566,617.112L916.283,617.6L916.896,619.058L916.244,620.185L915.597,618.658L915.358,619.072L915.6,619.976L914.905,621.179L914.47,620.251L913.978,621.101L913.037,621.353L912.785,620.412L913.276,619.561L912.255,619.648L912.95,618.445L913.854,618.203L914.093,617.789L912.447,617.992L913.099,616.864L914.667,616.666L914.949,616.178L913.023,615.064L911.863,615.748L911.827,618.285L909.95,619.319L909.952,616.8L909.336,617.171L909.363,618.642L907.436,619.722L907.42,618.296L906.155,619.032L904.633,618.565L904.991,617.014L906.261,616.287L905.035,615.559L906.935,614.432L908.194,615.192L908.823,614.845L906.642,613.585L908.477,612.478L910.691,613.716L911.864,613.055L911.864,610.829L911.3,610.829L910.344,612.088L909.041,612.088L910.041,610.764L909.563,610.764L908.901,611.426L907.511,611.425L908.098,610.584L907.115,610.584L906.426,609.894L907.115,609.204L908.097,609.203L907.51,608.362L908.899,608.361L909.563,609.022L910.04,609.022L909.04,607.699L910.342,607.698L911.299,608.955L911.864,608.955L911.861,606.73L910.688,606.069L908.475,607.309L906.64,606.203L908.82,604.942L908.19,604.596L906.932,605.356L905.031,604.23L906.257,603.501L904.986,602.775L904.627,601.224L906.149,600.759L907.414,601.496L907.431,600.07L909.358,601.151L909.329,602.621L909.944,602.993L909.945,600.475L911.82,601.51L911.855,604.046L913.014,604.731L914.941,603.619L914.66,603.13L913.092,602.932L912.441,601.804L914.086,602.007L913.848,601.593L912.944,601.351L912.249,600.147L913.271,600.235L912.78,599.384L913.033,598.442L913.974,598.695L914.465,599.545L914.901,598.618L915.595,599.821L915.353,600.725L915.591,601.139L916.239,599.612L916.89,600.741L916.277,602.197L916.559,602.686L918.486,601.574L918.474,600.228L916.295,598.928L916.338,596.786L918.519,598.047L918.505,597.328L917.218,596.617L917.246,594.408L918.489,595.106L918.484,593.643L919.649,592.558L920.815,593.643L920.81,595.106L922.053,594.408L922.081,596.617L920.794,597.328L920.78,598.047L922.961,596.786L923.003,598.928L920.825,600.228L920.813,601.574L922.74,602.686L923.022,602.197L922.409,600.741L923.06,599.612L923.708,601.139L923.946,600.725L923.704,599.821L924.398,598.618L924.834,599.545L925.325,598.695L926.266,598.442L926.519,599.384L926.028,600.235L927.05,600.147L926.355,601.351L925.451,601.593L925.212,602.007L926.858,601.804L926.207,602.932L924.639,603.13L924.357,603.619L926.285,604.731L927.444,604.046L927.478,601.51L929.354,600.475L929.355,602.993L929.97,602.621L929.941,601.151L931.868,600.07L931.885,601.496L933.15,600.759L934.672,601.224L934.313,602.775L933.042,603.501L934.268,604.23L932.367,605.356L931.109,604.596L930.479,604.942L932.659,606.203L930.824,607.309L928.611,606.069L927.438,606.73L927.435,608.955L928,608.955L928.956,607.698L930.259,607.699L929.259,609.022L929.737,609.022L930.4,608.361L931.789,608.362L931.202,609.203L932.184,609.204L932.872,609.894L932.183,610.584L931.201,610.584L931.788,611.425L930.398,611.426L929.736,610.764L929.258,610.764L930.257,612.088L928.955,612.088L927.999,610.829L927.435,610.829L927.435,613.055L928.608,613.716L930.822,612.478L932.657,613.585L930.476,614.845L931.105,615.192L932.364,614.432L934.264,615.559L933.038,616.287L934.308,617.014L934.666,618.565L933.144,619.032L931.879,618.296L931.863,619.722L929.935,618.642L929.963,617.171L929.348,616.8L929.349,619.319L927.472,618.285L927.436,615.748L926.276,615.064L924.35,616.178L924.632,616.666L926.2,616.864L926.852,617.992L925.206,617.789L925.445,618.203L926.349,618.445L927.044,619.648L926.023,619.561L926.514,620.412L926.262,621.353L925.32,621.101L924.829,620.251L924.394,621.179L923.699,619.976L923.941,619.072L923.702,618.658L923.055,620.185L922.403,619.058L923.015,617.6L922.733,617.112L920.807,618.225L920.82,619.571L922.999,620.87L922.958,623.012L920.776,621.753L920.791,622.471L922.078,623.182L922.051,625.391L920.808,624.693L920.813,626.156L919.649,627.242Z" style="fill:none;stroke:rgb(0,0,255);stroke-width:0.22px;"/>
        </g>
        <g transform="matrix(1.33333,0,0,1.33333,-569.4,-92.7194)">
            <path d="M1086.98,628.241L1085.82,627.155L1085.82,625.692L1084.58,626.39L1084.55,624.181L1085.84,623.471L1085.85,622.752L1083.67,624.011L1083.63,621.869L1085.81,620.571L1085.82,619.224L1083.9,618.111L1083.61,618.6L1084.23,620.057L1083.58,621.185L1082.93,619.658L1082.69,620.071L1082.93,620.975L1082.24,622.178L1081.8,621.25L1081.31,622.101L1080.37,622.352L1080.12,621.411L1080.61,620.56L1079.59,620.647L1080.28,619.444L1081.18,619.203L1081.42,618.789L1079.78,618.991L1080.43,617.863L1082,617.666L1082.28,617.177L1080.35,616.063L1079.19,616.748L1079.16,619.284L1077.28,620.318L1077.28,617.799L1076.67,618.171L1076.69,619.641L1074.77,620.721L1074.75,619.295L1073.49,620.031L1071.96,619.565L1072.32,618.013L1073.59,617.287L1072.37,616.559L1074.27,615.431L1075.52,616.191L1076.15,615.844L1073.97,614.584L1075.81,613.477L1078.02,614.716L1079.19,614.054L1079.19,611.829L1078.63,611.829L1077.67,613.087L1076.37,613.087L1077.37,611.763L1076.89,611.763L1076.23,612.425L1074.84,612.424L1075.43,611.583L1074.45,611.583L1073.76,610.894L1074.45,610.203L1075.43,610.202L1074.84,609.362L1076.23,609.361L1076.89,610.022L1077.37,610.022L1076.37,608.698L1077.67,608.697L1078.63,609.955L1079.19,609.954L1079.19,607.729L1078.02,607.068L1075.81,608.308L1073.97,607.203L1076.15,605.942L1075.52,605.595L1074.26,606.356L1072.36,605.229L1073.59,604.5L1072.32,603.775L1071.96,602.224L1073.48,601.758L1074.74,602.495L1074.76,601.069L1076.69,602.15L1076.66,603.621L1077.28,603.992L1077.28,601.474L1079.15,602.509L1079.18,605.045L1080.34,605.73L1082.27,604.618L1081.99,604.129L1080.42,603.931L1079.77,602.803L1081.42,603.007L1081.18,602.593L1080.27,602.35L1079.58,601.146L1080.6,601.234L1080.11,600.383L1080.36,599.442L1081.31,599.694L1081.8,600.545L1082.23,599.617L1082.93,600.82L1082.68,601.725L1082.92,602.138L1083.57,600.612L1084.22,601.74L1083.61,603.196L1083.89,603.685L1085.82,602.574L1085.81,601.227L1083.63,599.928L1083.67,597.786L1085.85,599.046L1085.84,598.327L1084.55,597.616L1084.58,595.407L1085.82,596.106L1085.82,594.642L1086.98,593.558L1088.14,594.642L1088.14,596.106L1089.38,595.407L1089.41,597.616L1088.12,598.327L1088.11,599.046L1090.29,597.786L1090.33,599.928L1088.16,601.227L1088.14,602.574L1090.07,603.685L1090.35,603.196L1089.74,601.74L1090.39,600.612L1091.04,602.138L1091.28,601.725L1091.03,600.82L1091.73,599.617L1092.16,600.545L1092.65,599.694L1093.6,599.442L1093.85,600.383L1093.36,601.234L1094.38,601.146L1093.68,602.35L1092.78,602.593L1092.54,603.007L1094.19,602.803L1093.54,603.931L1091.97,604.129L1091.69,604.618L1093.62,605.73L1094.77,605.045L1094.81,602.509L1096.68,601.474L1096.68,603.992L1097.3,603.621L1097.27,602.15L1099.2,601.069L1099.22,602.495L1100.48,601.758L1102,602.224L1101.64,603.775L1100.37,604.5L1101.6,605.229L1099.7,606.356L1098.44,605.595L1097.81,605.942L1099.99,607.203L1098.15,608.308L1095.94,607.068L1094.77,607.729L1094.77,609.954L1095.33,609.955L1096.29,608.697L1097.59,608.698L1096.59,610.022L1097.07,610.022L1097.73,609.361L1099.12,609.362L1098.53,610.202L1099.51,610.203L1100.2,610.894L1099.51,611.583L1098.53,611.583L1099.12,612.424L1097.73,612.425L1097.07,611.763L1096.59,611.763L1097.59,613.087L1096.29,613.087L1095.33,611.829L1094.77,611.829L1094.77,614.054L1095.94,614.716L1098.15,613.477L1099.99,614.584L1097.81,615.844L1098.44,616.191L1099.69,615.431L1101.6,616.559L1100.37,617.287L1101.64,618.013L1102,619.565L1100.47,620.031L1099.21,619.295L1099.19,620.721L1097.27,619.641L1097.29,618.171L1096.68,617.799L1096.68,620.318L1094.8,619.284L1094.77,616.748L1093.61,616.063L1091.68,617.177L1091.96,617.666L1093.53,617.863L1094.18,618.991L1092.54,618.789L1092.78,619.203L1093.68,619.444L1094.37,620.647L1093.35,620.56L1093.85,621.411L1093.59,622.352L1092.65,622.101L1092.16,621.25L1091.72,622.178L1091.03,620.975L1091.27,620.071L1091.03,619.658L1090.38,621.185L1089.73,620.057L1090.35,618.6L1090.06,618.111L1088.14,619.224L1088.15,620.571L1090.33,621.869L1090.29,624.011L1088.11,622.752L1088.12,623.471L1089.41,624.181L1089.38,626.39L1088.14,625.692L1088.14,627.155L1086.98,628.241Z" style="fill:none;stroke:rgb(0,0,255);stroke-width:0.22px;"/>
        </g>
        <g transform="matrix(1.33333,0,0,1.33333,-569.4,-92.7194)">
            <path d="M796.965,638.292L798.885,639.439L798.884,634.602L796.964,635.75L796.965,638.292Z" style="fill:none;stroke:rgb(0,0,255);stroke-width:0.22px;"/>
        </g>
        <g transform="matrix(1.33333,0,0,1.33333,-569.4,-92.7194)">
            <path d="M971.634,639.068L973.554,640.214L973.553,635.378L971.633,636.525L971.634,639.068Z" style="fill:none;stroke:rgb(0,0,255);stroke-width:0.22px;"/>
        </g>
        <g transform="matrix(1.33333,0,0,1.33333,-569.4,-92.7194)">
            <path d="M1138.96,640.067L1140.88,641.213L1140.88,636.377L1138.96,637.525L1138.96,640.067Z" style="fill:none;stroke:rgb(0,0,255);stroke-width:0.22px;"/>
        </g>
        <g transform="matrix(1.33333,0,0,1.33333,-569.4,-92.7194)">
            <path d="M796.008,634.095L797.961,633.005L793.771,630.588L793.805,632.824L796.008,634.095Z" style="fill:none;stroke:rgb(0,0,255);stroke-width:0.22px;"/>
        </g>
        <g transform="matrix(1.33333,0,0,1.33333,-569.4,-92.7194)">
            <path d="M970.677,634.87L972.63,633.781L968.44,631.363L968.474,633.599L970.677,634.87Z" style="fill:none;stroke:rgb(0,0,255);stroke-width:0.22px;"/>
        </g>
        <g transform="matrix(1.33333,0,0,1.33333,-569.4,-92.7194)">
            <path d="M1138.01,635.87L1139.96,634.78L1135.77,632.363L1135.81,634.599L1138.01,635.87Z" style="fill:none;stroke:rgb(0,0,255);stroke-width:0.22px;"/>
        </g>
        <g transform="matrix(1.33333,0,0,1.33333,-569.4,-92.7194)">
            <path d="M793.808,641.22L793.776,643.456L797.963,641.036L796.01,639.948L793.808,641.22Z" style="fill:none;stroke:rgb(0,0,255);stroke-width:0.22px;"/>
        </g>
        <g transform="matrix(1.33333,0,0,1.33333,-569.4,-92.7194)">
            <path d="M968.477,641.996L968.445,644.232L972.632,641.812L970.679,640.723L968.477,641.996Z" style="fill:none;stroke:rgb(0,0,255);stroke-width:0.22px;"/>
        </g>
        <g transform="matrix(1.33333,0,0,1.33333,-569.4,-92.7194)">
            <path d="M1135.81,642.995L1135.78,645.231L1139.96,642.811L1138.01,641.723L1135.81,642.995Z" style="fill:none;stroke:rgb(0,0,255);stroke-width:0.22px;"/>
        </g>
        <g transform="matrix(1.33333,0,0,1.33333,-569.4,-92.7194)">
            <path d="M792.509,634.919L793.401,635.434L794.294,635.949L794.303,638.033L793.415,638.56L792.527,639.087L791.634,638.572L790.741,638.057L790.737,637.015L790.732,635.973L791.62,635.446L792.509,634.919Z" style="fill:none;stroke:rgb(0,0,255);stroke-width:0.22px;"/>
        </g>
        <g transform="matrix(1.33333,0,0,1.33333,-569.4,-92.7194)">
            <path d="M967.178,635.695L968.07,636.21L968.963,636.725L968.972,638.809L968.084,639.336L967.196,639.863L966.303,639.348L965.41,638.833L965.406,637.791L965.401,636.749L966.289,636.222L967.178,635.695Z" style="fill:none;stroke:rgb(0,0,255);stroke-width:0.22px;"/>
        </g>
        <g transform="matrix(1.33333,0,0,1.33333,-569.4,-92.7194)">
            <path d="M1134.51,636.694L1135.4,637.209L1136.29,637.724L1136.3,639.808L1135.41,640.335L1134.53,640.862L1133.63,640.347L1132.74,639.832L1132.74,638.79L1132.73,637.748L1133.62,637.221L1134.51,636.694Z" style="fill:none;stroke:rgb(0,0,255);stroke-width:0.22px;"/>
        </g>
        <g transform="matrix(1.33333,0,0,1.33333,-569.4,-92.7194)">
            <path d="M789.01,634.095L787.057,633.005L791.247,630.588L791.213,632.824L789.01,634.095Z" style="fill:none;stroke:rgb(0,0,255);stroke-width:0.22px;"/>
        </g>
        <g transform="matrix(1.33333,0,0,1.33333,-569.4,-92.7194)">
            <path d="M963.679,634.87L961.726,633.781L965.916,631.363L965.882,633.599L963.679,634.87Z" style="fill:none;stroke:rgb(0,0,255);stroke-width:0.22px;"/>
        </g>
        <g transform="matrix(1.33333,0,0,1.33333,-569.4,-92.7194)">
            <path d="M1131.01,635.87L1129.06,634.78L1133.25,632.363L1133.21,634.599L1131.01,635.87Z" style="fill:none;stroke:rgb(0,0,255);stroke-width:0.22px;"/>
        </g>
        <g transform="matrix(1.33333,0,0,1.33333,-569.4,-92.7194)">
            <path d="M788.053,638.292L786.133,639.439L786.134,634.602L788.054,635.75L788.053,638.292Z" style="fill:none;stroke:rgb(0,0,255);stroke-width:0.22px;"/>
        </g>
        <g transform="matrix(1.33333,0,0,1.33333,-569.4,-92.7194)">
            <path d="M962.722,639.068L960.801,640.214L960.803,635.378L962.722,636.525L962.722,639.068Z" style="fill:none;stroke:rgb(0,0,255);stroke-width:0.22px;"/>
        </g>
        <g transform="matrix(1.33333,0,0,1.33333,-569.4,-92.7194)">
            <path d="M1130.05,640.067L1128.13,641.213L1128.13,636.377L1130.05,637.525L1130.05,640.067Z" style="fill:none;stroke:rgb(0,0,255);stroke-width:0.22px;"/>
        </g>
        <g transform="matrix(1.33333,0,0,1.33333,-569.4,-92.7194)">
            <path d="M791.21,641.22L791.242,643.456L787.055,641.036L789.008,639.948L791.21,641.22Z" style="fill:none;stroke:rgb(0,0,255);stroke-width:0.22px;"/>
        </g>
        <g transform="matrix(1.33333,0,0,1.33333,-569.4,-92.7194)">
            <path d="M965.879,641.996L965.911,644.232L961.723,641.812L963.677,640.723L965.879,641.996Z" style="fill:none;stroke:rgb(0,0,255);stroke-width:0.22px;"/>
        </g>
        <g transform="matrix(1.33333,0,0,1.33333,-569.4,-92.7194)">
            <path d="M1133.21,642.995L1133.24,645.231L1129.05,642.811L1131.01,641.723L1133.21,642.995Z" style="fill:none;stroke:rgb(0,0,255);stroke-width:0.22px;"/>
        </g>
        <g transform="matrix(1.33333,0,0,1.33333,-569.4,-92.7194)">
            <path d="M792.509,657.518L791.172,656.271L791.178,654.591L789.75,655.392L789.72,652.855L791.198,652.039L791.215,651.214L788.709,652.66L788.662,650.2L791.165,648.709L791.18,647.163L788.968,645.885L788.643,646.446L789.346,648.119L788.598,649.414L787.855,647.66L787.58,648.135L787.859,649.174L787.061,650.555L786.56,649.489L785.996,650.466L784.915,650.756L784.625,649.674L785.19,648.697L784.017,648.797L784.815,647.415L785.853,647.138L786.128,646.663L784.238,646.895L784.986,645.599L786.787,645.373L787.111,644.812L784.899,643.533L783.566,644.319L783.525,647.232L781.37,648.419L781.371,645.526L780.664,645.953L780.696,647.641L778.483,648.882L778.464,647.244L777.012,648.089L775.264,647.554L775.675,645.772L777.134,644.938L775.725,644.102L777.907,642.806L779.353,643.679L780.076,643.28L777.571,641.834L779.678,640.563L782.22,641.985L783.567,641.225L783.567,638.669L782.919,638.669L781.822,640.115L780.326,640.115L781.474,638.594L780.925,638.594L780.165,639.354L778.569,639.353L779.243,638.388L778.114,638.387L777.323,637.595L778.114,636.803L779.242,636.801L778.568,635.836L780.163,635.835L780.924,636.594L781.473,636.594L780.325,635.074L781.82,635.073L782.919,636.517L783.567,636.517L783.564,633.961L782.218,633.202L779.676,634.626L777.568,633.357L780.072,631.909L779.348,631.51L777.903,632.384L775.72,631.09L777.128,630.253L775.669,629.42L775.257,627.639L777.005,627.104L778.457,627.95L778.477,626.313L780.69,627.555L780.657,629.243L781.363,629.67L781.364,626.777L783.518,627.966L783.557,630.879L784.888,631.665L787.102,630.388L786.778,629.827L784.978,629.599L784.231,628.304L786.121,628.537L785.846,628.063L784.808,627.784L784.011,626.401L785.184,626.501L784.62,625.524L784.91,624.443L785.991,624.734L786.555,625.71L787.056,624.645L787.853,626.027L787.574,627.066L787.848,627.54L788.592,625.787L789.34,627.083L788.636,628.756L788.96,629.317L791.173,628.04L791.159,626.494L788.657,625.002L788.706,622.542L791.211,623.989L791.195,623.164L789.716,622.347L789.749,619.81L791.177,620.613L791.171,618.932L792.509,617.686L793.847,618.932L793.841,620.613L795.269,619.81L795.302,622.347L793.823,623.164L793.807,623.989L796.312,622.542L796.361,625.002L793.859,626.494L793.845,628.04L796.058,629.317L796.382,628.756L795.678,627.083L796.425,625.787L797.17,627.54L797.444,627.066L797.165,626.027L797.962,624.645L798.463,625.71L799.027,624.734L800.108,624.443L800.398,625.524L799.834,626.501L801.007,626.401L800.21,627.784L799.172,628.063L798.897,628.537L800.787,628.304L800.04,629.599L798.24,629.827L797.916,630.388L800.129,631.665L801.461,630.879L801.5,627.966L803.654,626.777L803.655,629.67L804.361,629.243L804.328,627.555L806.541,626.313L806.561,627.95L808.013,627.104L809.761,627.639L809.349,629.42L807.89,630.253L809.298,631.09L807.115,632.384L805.67,631.51L804.946,631.909L807.45,633.357L805.342,634.626L802.8,633.202L801.454,633.961L801.451,636.517L802.099,636.517L803.198,635.073L804.693,635.074L803.545,636.594L804.093,636.594L804.855,635.835L806.45,635.836L805.776,636.801L806.904,636.803L807.695,637.595L806.903,638.387L805.775,638.388L806.449,639.353L804.853,639.354L804.093,638.594L803.544,638.594L804.692,640.115L803.196,640.115L802.098,638.669L801.45,638.669L801.451,641.225L802.798,641.985L805.34,640.563L807.447,641.834L804.942,643.28L805.665,643.679L807.111,642.806L809.293,644.102L807.884,644.938L809.343,645.772L809.754,647.554L808.006,648.089L806.554,647.244L806.535,648.882L804.322,647.641L804.354,645.953L803.647,645.526L803.648,648.419L801.493,647.232L801.452,644.319L800.119,643.533L797.907,644.812L798.231,645.373L800.032,645.599L800.78,646.895L798.89,646.663L799.165,647.138L800.203,647.415L801.001,648.797L799.828,648.697L800.393,649.674L800.103,650.756L799.022,650.466L798.457,649.489L797.957,650.555L797.159,649.174L797.438,648.135L797.162,647.66L796.42,649.414L795.671,648.119L796.374,646.446L796.05,645.885L793.838,647.163L793.853,648.709L796.355,650.2L796.309,652.66L793.803,651.214L793.82,652.039L795.298,652.855L795.267,655.392L793.84,654.591L793.846,656.271L792.509,657.518Z" style="fill:none;stroke:rgb(0,0,255);stroke-width:0.22px;"/>
        </g>
        <g transform="matrix(1.33333,0,0,1.33333,-569.4,-92.7194)">
            <path d="M967.178,658.294L965.841,657.047L965.847,655.366L964.419,656.168L964.388,653.63L965.867,652.815L965.883,651.989L963.378,653.435L963.331,650.976L965.834,649.485L965.849,647.938L963.637,646.66L963.312,647.221L964.015,648.894L963.267,650.189L962.524,648.436L962.249,648.911L962.527,649.949L961.73,651.331L961.229,650.265L960.665,651.242L959.583,651.531L959.294,650.45L959.859,649.473L958.685,649.572L959.484,648.191L960.522,647.913L960.797,647.438L958.906,647.67L959.655,646.375L961.455,646.149L961.78,645.587L959.568,644.309L958.235,645.094L958.194,648.007L956.039,649.195L956.04,646.302L955.333,646.728L955.365,648.417L953.151,649.657L953.133,648.02L951.68,648.865L949.932,648.329L950.344,646.548L951.803,645.713L950.394,644.877L952.576,643.582L954.022,644.455L954.744,644.056L952.239,642.609L954.346,641.338L956.889,642.761L958.236,642L958.236,639.445L957.588,639.445L956.491,640.89L954.995,640.89L956.142,639.37L955.594,639.37L954.833,640.13L953.237,640.129L953.912,639.163L952.783,639.163L951.992,638.371L952.783,637.578L953.91,637.577L953.236,636.612L954.832,636.61L955.593,637.37L956.142,637.37L954.994,635.85L956.489,635.848L957.588,637.293L958.236,637.292L958.233,634.737L956.886,633.978L954.345,635.402L952.237,634.132L954.741,632.684L954.017,632.286L952.572,633.159L950.389,631.866L951.797,631.029L950.338,630.196L949.925,628.414L951.674,627.88L953.126,628.726L953.146,627.089L955.359,628.33L955.325,630.019L956.032,630.446L956.032,627.553L958.186,628.742L958.226,631.655L959.557,632.441L961.771,631.164L961.447,630.603L959.647,630.375L958.899,629.08L960.79,629.313L960.515,628.838L959.477,628.559L958.679,627.177L959.852,627.277L959.289,626.3L959.579,625.219L960.66,625.509L961.224,626.486L961.724,625.421L962.522,626.802L962.243,627.841L962.517,628.316L963.261,626.563L964.009,627.859L963.304,629.531L963.628,630.092L965.841,628.816L965.828,627.27L963.326,625.777L963.375,623.317L965.879,624.765L965.864,623.94L964.385,623.123L964.418,620.585L965.845,621.388L965.84,619.707L967.178,618.462L968.516,619.707L968.51,621.388L969.938,620.585L969.971,623.123L968.492,623.94L968.476,624.765L970.981,623.317L971.03,625.777L968.528,627.27L968.514,628.816L970.727,630.092L971.051,629.531L970.347,627.859L971.094,626.563L971.838,628.316L972.113,627.841L971.834,626.802L972.631,625.421L973.132,626.486L973.695,625.509L974.777,625.219L975.067,626.3L974.503,627.277L975.676,627.177L974.879,628.559L973.841,628.838L973.566,629.313L975.456,629.08L974.709,630.375L972.909,630.603L972.585,631.164L974.798,632.441L976.13,631.655L976.169,628.742L978.323,627.553L978.324,630.446L979.03,630.019L978.997,628.33L981.21,627.089L981.23,628.726L982.682,627.88L984.43,628.414L984.018,630.196L982.558,631.029L983.967,631.866L981.783,633.159L980.338,632.286L979.615,632.684L982.119,634.132L980.011,635.402L977.469,633.978L976.123,634.737L976.12,637.292L976.768,637.293L977.867,635.848L979.362,635.85L978.214,637.37L978.762,637.37L979.524,636.61L981.119,636.612L980.445,637.577L981.573,637.578L982.364,638.371L981.572,639.163L980.444,639.163L981.118,640.129L979.522,640.13L978.762,639.37L978.213,639.37L979.36,640.89L977.865,640.89L976.767,639.445L976.119,639.445L976.12,642L977.467,642.761L980.009,641.338L982.116,642.609L979.611,644.056L980.334,644.455L981.78,643.582L983.962,644.877L982.553,645.713L984.012,646.548L984.423,648.329L982.675,648.865L981.223,648.02L981.204,649.657L978.991,648.417L979.023,646.728L978.316,646.302L978.317,649.195L976.162,648.007L976.12,645.094L974.788,644.309L972.575,645.587L972.9,646.149L974.701,646.375L975.449,647.67L973.558,647.438L973.833,647.913L974.872,648.191L975.67,649.572L974.497,649.473L975.061,650.45L974.772,651.531L973.691,651.242L973.126,650.265L972.626,651.331L971.828,649.949L972.107,648.911L971.831,648.436L971.089,650.189L970.34,648.894L971.043,647.221L970.719,646.66L968.507,647.938L968.522,649.485L971.024,650.976L970.978,653.435L968.472,651.989L968.488,652.815L969.967,653.63L969.936,656.168L968.509,655.366L968.515,657.047L967.178,658.294Z" style="fill:none;stroke:rgb(0,0,255);stroke-width:0.22px;"/>
        </g>
        <g transform="matrix(1.33333,0,0,1.33333,-569.4,-92.7194)">
            <path d="M1134.51,659.293L1133.17,658.046L1133.18,656.365L1131.75,657.168L1131.72,654.63L1133.2,653.814L1133.21,652.989L1130.71,654.435L1130.66,651.975L1133.16,650.484L1133.18,648.938L1130.97,647.659L1130.64,648.221L1131.35,649.894L1130.6,651.189L1129.86,649.435L1129.58,649.91L1129.86,650.949L1129.06,652.33L1128.56,651.264L1128,652.241L1126.91,652.53L1126.62,651.449L1127.19,650.472L1126.02,650.572L1126.81,649.19L1127.85,648.912L1128.13,648.437L1126.24,648.67L1126.99,647.374L1128.79,647.148L1129.11,646.587L1126.9,645.308L1125.57,646.093L1125.52,649.006L1123.37,650.194L1123.37,647.301L1122.66,647.728L1122.7,649.416L1120.48,650.656L1120.46,649.019L1119.01,649.864L1117.26,649.328L1117.67,647.547L1119.13,646.713L1117.72,645.877L1119.91,644.581L1121.35,645.454L1122.08,645.055L1119.57,643.608L1121.68,642.338L1124.22,643.76L1125.57,643L1125.57,640.444L1124.92,640.444L1123.82,641.889L1122.33,641.889L1123.47,640.369L1122.92,640.369L1122.16,641.129L1120.57,641.128L1121.24,640.162L1120.11,640.162L1119.32,639.37L1120.11,638.578L1121.24,638.576L1120.57,637.611L1122.16,637.61L1122.92,638.369L1123.47,638.369L1122.32,636.849L1123.82,636.848L1124.92,638.292L1125.57,638.292L1125.56,635.736L1124.22,634.977L1121.67,636.401L1119.57,635.132L1122.07,633.683L1121.35,633.285L1119.9,634.159L1117.72,632.865L1119.13,632.028L1117.67,631.195L1117.26,629.414L1119,628.879L1120.46,629.725L1120.48,628.088L1122.69,629.329L1122.66,631.018L1123.36,631.445L1123.36,628.552L1125.52,629.741L1125.56,632.654L1126.89,633.44L1129.1,632.163L1128.78,631.602L1126.98,631.375L1126.23,630.079L1128.12,630.312L1127.85,629.837L1126.81,629.558L1126.01,628.176L1127.18,628.276L1126.62,627.299L1126.91,626.218L1127.99,626.508L1128.56,627.485L1129.06,626.42L1129.85,627.802L1129.57,628.841L1129.85,629.315L1130.59,627.562L1131.34,628.858L1130.63,630.531L1130.96,631.092L1133.17,629.815L1133.16,628.269L1130.66,626.777L1130.7,624.317L1133.21,625.764L1133.19,624.939L1131.72,624.122L1131.75,621.585L1133.18,622.388L1133.17,620.707L1134.51,619.461L1135.85,620.707L1135.84,622.388L1137.27,621.585L1137.3,624.122L1135.82,624.939L1135.81,625.764L1138.31,624.317L1138.36,626.777L1135.86,628.269L1135.85,629.815L1138.06,631.092L1138.38,630.531L1137.68,628.858L1138.42,627.562L1139.17,629.315L1139.44,628.841L1139.16,627.802L1139.96,626.42L1140.46,627.485L1141.03,626.508L1142.11,626.218L1142.4,627.299L1141.83,628.276L1143.01,628.176L1142.21,629.558L1141.17,629.837L1140.9,630.312L1142.79,630.079L1142.04,631.375L1140.24,631.602L1139.91,632.163L1142.13,633.44L1143.46,632.654L1143.5,629.741L1145.65,628.552L1145.65,631.445L1146.36,631.018L1146.33,629.329L1148.54,628.088L1148.56,629.725L1150.01,628.879L1151.76,629.414L1151.35,631.195L1149.89,632.028L1151.3,632.865L1149.11,634.159L1147.67,633.285L1146.95,633.683L1149.45,635.132L1147.34,636.401L1144.8,634.977L1143.45,635.736L1143.45,638.292L1144.1,638.292L1145.2,636.848L1146.69,636.849L1145.54,638.369L1146.09,638.369L1146.85,637.61L1148.45,637.611L1147.78,638.576L1148.9,638.578L1149.69,639.37L1148.9,640.162L1147.78,640.162L1148.45,641.128L1146.85,641.129L1146.09,640.369L1145.54,640.369L1146.69,641.889L1145.19,641.889L1144.1,640.444L1143.45,640.444L1143.45,643L1144.8,643.76L1147.34,642.338L1149.45,643.608L1146.94,645.055L1147.66,645.454L1149.11,644.581L1151.29,645.877L1149.88,646.713L1151.34,647.547L1151.75,649.328L1150.01,649.864L1148.55,649.019L1148.54,650.656L1146.32,649.416L1146.35,647.728L1145.65,647.301L1145.65,650.194L1143.49,649.006L1143.45,646.093L1142.12,645.308L1139.91,646.587L1140.23,647.148L1142.03,647.374L1142.78,648.67L1140.89,648.437L1141.16,648.912L1142.2,649.19L1143,650.572L1141.83,650.472L1142.39,651.449L1142.1,652.53L1141.02,652.241L1140.46,651.264L1139.96,652.33L1139.16,650.949L1139.44,649.91L1139.16,649.435L1138.42,651.189L1137.67,649.894L1138.37,648.221L1138.05,647.659L1135.84,648.938L1135.85,650.484L1138.36,651.975L1138.31,654.435L1135.8,652.989L1135.82,653.814L1137.3,654.63L1137.27,657.168L1135.84,656.365L1135.85,658.046L1134.51,659.293Z" style="fill:none;stroke:rgb(0,0,255);stroke-width:0.22px;"/>
        </g>
        <g transform="matrix(1.33333,0,0,1.33333,-569.4,-92.7194)">
            <path d="M823.921,655.591C821.944,650.341 824.086,643.545 822.109,638.296C820.232,633.311 813.954,629.978 812.076,624.993C810.525,620.873 812.894,613.513 811.342,609.393C810.516,607.2 803.559,603.494 801.913,598.831C800.487,595.043 801.494,590.342 800.067,586.554C798.39,582.102 792.406,579.265 790.73,574.812C788.752,569.563 790.895,562.767 788.918,557.517C787.041,552.533 780.763,549.2 778.885,544.215C777.334,540.095 779.703,532.735 778.151,528.615C777.325,526.421 770.367,522.716 768.722,518.053C767.195,513.754 769.178,510.056 768.665,506.071" style="fill:none;stroke:rgb(0,0,255);stroke-width:0.22px;"/>
        </g>
        <g transform="matrix(1.33333,0,0,1.33333,-569.4,-92.7194)">
            <path d="M998.59,656.366C996.613,651.116 998.755,644.321 996.778,639.071C994.901,634.087 988.623,630.753 986.745,625.769C985.194,621.649 987.563,614.289 986.011,610.169C985.185,607.975 978.227,604.27 976.582,599.607C975.156,595.819 976.163,591.118 974.736,587.33C973.059,582.877 967.075,580.041 965.399,575.588C963.421,570.338 965.564,563.543 963.586,558.293C961.709,553.308 955.431,549.975 953.554,544.99C952.002,540.87 954.371,533.51 952.82,529.39C951.994,527.197 945.036,523.491 943.39,518.829C941.863,514.53 943.847,510.831 943.334,506.847" style="fill:none;stroke:rgb(0,0,255);stroke-width:0.22px;"/>
        </g>
        <g transform="matrix(1.33333,0,0,1.33333,-569.4,-92.7194)">
            <path d="M1165.92,657.365C1163.94,652.116 1166.09,645.32 1164.11,640.07C1162.23,635.086 1155.95,631.753 1154.08,626.768C1152.52,622.648 1154.89,615.288 1153.34,611.168C1152.52,608.975 1145.56,605.269 1143.91,600.606C1142.49,596.818 1143.49,592.117 1142.07,588.329C1140.39,583.876 1134.41,581.04 1132.73,576.587C1130.75,571.338 1132.89,564.542 1130.92,559.292C1129.04,554.308 1122.76,550.975 1120.88,545.99C1119.33,541.87 1121.7,534.51 1120.15,530.39C1119.32,528.197 1112.37,524.491 1110.72,519.828C1109.19,515.529 1111.18,511.831 1110.66,507.846" style="fill:none;stroke:rgb(0,0,255);stroke-width:0.22px;"/>
        </g>
        <g transform="matrix(1.33333,0,0,1.33333,-569.4,-92.7194)">
            <path d="M707.455,655.591C709.432,650.341 707.29,643.545 709.267,638.296C711.144,633.311 717.422,629.978 719.3,624.993C720.851,620.873 718.482,613.513 720.034,609.393C720.86,607.2 727.818,603.494 729.463,598.831C730.89,595.043 729.882,590.342 731.309,586.554C732.986,582.102 738.97,579.265 740.646,574.812C742.624,569.563 740.481,562.767 742.459,557.517C744.336,552.533 750.614,549.2 752.491,544.215C754.043,540.095 751.674,532.735 753.225,528.615C754.051,526.421 761.009,522.716 762.655,518.053C764.183,513.749 762.195,510.049 762.713,506.059" style="fill:none;stroke:rgb(0,0,255);stroke-width:0.22px;"/>
        </g>
        <g transform="matrix(1.33333,0,0,1.33333,-569.4,-92.7194)">
            <path d="M882.124,656.366C884.101,651.116 881.959,644.321 883.936,639.071C885.813,634.087 892.091,630.753 893.969,625.769C895.52,621.649 893.151,614.289 894.703,610.169C895.529,607.975 902.487,604.27 904.132,599.607C905.558,595.819 904.551,591.118 905.978,587.33C907.655,582.877 913.639,580.041 915.315,575.588C917.293,570.338 915.15,563.543 917.127,558.293C919.005,553.308 925.282,549.975 927.16,544.99C928.712,540.87 926.342,533.51 927.894,529.39C928.72,527.197 935.678,523.491 937.323,518.829C938.852,514.525 936.863,510.824 937.382,506.835" style="fill:none;stroke:rgb(0,0,255);stroke-width:0.22px;"/>
        </g>
        <g transform="matrix(1.33333,0,0,1.33333,-569.4,-92.7194)">
            <path d="M1049.45,657.365C1051.43,652.116 1049.29,645.32 1051.27,640.07C1053.14,635.086 1059.42,631.753 1061.3,626.768C1062.85,622.648 1060.48,615.288 1062.03,611.168C1062.86,608.975 1069.82,605.269 1071.46,600.606C1072.89,596.818 1071.88,592.117 1073.31,588.329C1074.99,583.876 1080.97,581.04 1082.65,576.587C1084.62,571.338 1082.48,564.542 1084.46,559.292C1086.34,554.308 1092.61,550.975 1094.49,545.99C1096.04,541.87 1093.67,534.51 1095.23,530.39C1096.05,528.197 1103.01,524.491 1104.65,519.828C1106.18,515.525 1104.19,511.824 1104.71,507.834" style="fill:none;stroke:rgb(0,0,255);stroke-width:0.22px;"/>
        </g>
        <g transform="matrix(1.33333,0,0,1.33333,-569.4,-92.7194)">
            <path d="M1199.87,572.593L1199.87,602.83L1188.53,602.83L1188.53,572.593L1199.87,572.593Z" style="fill:none;stroke:rgb(255,0,0);stroke-width:0.22px;"/>
        </g>
        <g transform="matrix(1.33333,0,0,1.33333,-569.4,-92.7194)">
            <path d="M1030.36,572.087L1030.36,602.323L1019.02,602.323L1019.02,572.087L1030.36,572.087Z" style="fill:none;stroke:rgb(255,0,0);stroke-width:0.22px;"/>
        </g>
        <g transform="matrix(1.33333,0,0,1.33333,-569.4,-92.7194)">
            <path d="M858.358,570.087L858.358,600.323L847.02,600.323L847.02,570.087L858.358,570.087Z" style="fill:none;stroke:rgb(255,0,0);stroke-width:0.22px;"/>
        </g>
        <g transform="matrix(1.33333,0,0,1.33333,-569.4,-92.7194)">
            <path d="M1211.02,558.404L1209.35,557.406L1209.35,561.617L1211.02,560.618L1211.02,558.404Z" style="fill:none;stroke:rgb(0,0,255);stroke-width:0.22px;"/>
        </g>
        <g transform="matrix(1.33333,0,0,1.33333,-569.4,-92.7194)">
            <path d="M1041.52,557.897L1039.84,556.9L1039.85,561.111L1041.52,560.112L1041.52,557.897Z" style="fill:none;stroke:rgb(0,0,255);stroke-width:0.22px;"/>
        </g>
        <g transform="matrix(1.33333,0,0,1.33333,-569.4,-92.7194)">
            <path d="M869.516,555.897L867.844,554.899L867.845,559.11L869.517,558.111L869.516,555.897Z" style="fill:none;stroke:rgb(0,0,255);stroke-width:0.22px;"/>
        </g>
        <g transform="matrix(1.33333,0,0,1.33333,-569.4,-92.7194)">
            <path d="M1211.86,562.059L1210.16,563.008L1213.8,565.112L1213.78,563.166L1211.86,562.059Z" style="fill:none;stroke:rgb(0,0,255);stroke-width:0.22px;"/>
        </g>
        <g transform="matrix(1.33333,0,0,1.33333,-569.4,-92.7194)">
            <path d="M1042.35,561.552L1040.65,562.501L1044.3,564.606L1044.27,562.659L1042.35,561.552Z" style="fill:none;stroke:rgb(0,0,255);stroke-width:0.22px;"/>
        </g>
        <g transform="matrix(1.33333,0,0,1.33333,-569.4,-92.7194)">
            <path d="M870.349,559.552L868.649,560.501L872.297,562.606L872.268,560.659L870.349,559.552Z" style="fill:none;stroke:rgb(0,0,255);stroke-width:0.22px;"/>
        </g>
        <g transform="matrix(1.33333,0,0,1.33333,-569.4,-92.7194)">
            <path d="M1213.77,555.854L1213.8,553.908L1210.15,556.015L1211.85,556.962L1213.77,555.854Z" style="fill:none;stroke:rgb(0,0,255);stroke-width:0.22px;"/>
        </g>
        <g transform="matrix(1.33333,0,0,1.33333,-569.4,-92.7194)">
            <path d="M1044.26,555.348L1044.29,553.401L1040.65,555.508L1042.35,556.456L1044.26,555.348Z" style="fill:none;stroke:rgb(0,0,255);stroke-width:0.22px;"/>
        </g>
        <g transform="matrix(1.33333,0,0,1.33333,-569.4,-92.7194)">
            <path d="M872.265,553.347L872.293,551.401L868.647,553.508L870.347,554.456L872.265,553.347Z" style="fill:none;stroke:rgb(0,0,255);stroke-width:0.22px;"/>
        </g>
        <g transform="matrix(1.33333,0,0,1.33333,-569.4,-92.7194)">
            <path d="M1214.9,561.341L1214.13,560.892L1213.35,560.444L1213.35,559.537L1213.34,558.629L1214.11,558.17L1214.89,557.712L1215.66,558.16L1216.44,558.609L1216.45,559.516L1216.45,560.423L1215.68,560.882L1214.9,561.341Z" style="fill:none;stroke:rgb(0,0,255);stroke-width:0.22px;"/>
        </g>
        <g transform="matrix(1.33333,0,0,1.33333,-569.4,-92.7194)">
            <path d="M1045.4,560.834L1044.62,560.386L1043.84,559.938L1043.84,559.03L1043.83,558.123L1044.61,557.664L1045.38,557.205L1046.16,557.653L1046.93,558.102L1046.94,559.009L1046.94,559.917L1046.17,560.375L1045.4,560.834Z" style="fill:none;stroke:rgb(0,0,255);stroke-width:0.22px;"/>
        </g>
        <g transform="matrix(1.33333,0,0,1.33333,-569.4,-92.7194)">
            <path d="M873.396,558.834L872.619,558.386L871.842,557.938L871.838,557.03L871.834,556.123L872.607,555.664L873.381,555.205L874.158,555.653L874.935,556.102L874.939,557.009L874.943,557.916L874.17,558.375L873.396,558.834Z" style="fill:none;stroke:rgb(0,0,255);stroke-width:0.22px;"/>
        </g>
        <g transform="matrix(1.33333,0,0,1.33333,-569.4,-92.7194)">
            <path d="M1217.95,562.059L1219.65,563.008L1216,565.112L1216.03,563.166L1217.95,562.059Z" style="fill:none;stroke:rgb(0,0,255);stroke-width:0.22px;"/>
        </g>
        <g transform="matrix(1.33333,0,0,1.33333,-569.4,-92.7194)">
            <path d="M1048.44,561.552L1050.14,562.501L1046.5,564.606L1046.53,562.659L1048.44,561.552Z" style="fill:none;stroke:rgb(0,0,255);stroke-width:0.22px;"/>
        </g>
        <g transform="matrix(1.33333,0,0,1.33333,-569.4,-92.7194)">
            <path d="M876.443,559.552L878.143,560.501L874.496,562.606L874.525,560.659L876.443,559.552Z" style="fill:none;stroke:rgb(0,0,255);stroke-width:0.22px;"/>
        </g>
        <g transform="matrix(1.33333,0,0,1.33333,-569.4,-92.7194)">
            <path d="M1218.78,558.404L1220.45,557.406L1220.45,561.617L1218.78,560.618L1218.78,558.404Z" style="fill:none;stroke:rgb(0,0,255);stroke-width:0.22px;"/>
        </g>
        <g transform="matrix(1.33333,0,0,1.33333,-569.4,-92.7194)">
            <path d="M1049.28,557.897L1050.95,556.899L1050.95,561.11L1049.28,560.112L1049.28,557.897Z" style="fill:none;stroke:rgb(0,0,255);stroke-width:0.22px;"/>
        </g>
        <g transform="matrix(1.33333,0,0,1.33333,-569.4,-92.7194)">
            <path d="M877.277,555.897L878.949,554.899L878.947,559.11L877.276,558.111L877.277,555.897Z" style="fill:none;stroke:rgb(0,0,255);stroke-width:0.22px;"/>
        </g>
        <g transform="matrix(1.33333,0,0,1.33333,-569.4,-92.7194)">
            <path d="M1216.03,555.854L1216.01,553.908L1219.65,556.015L1217.95,556.962L1216.03,555.854Z" style="fill:none;stroke:rgb(0,0,255);stroke-width:0.22px;"/>
        </g>
        <g transform="matrix(1.33333,0,0,1.33333,-569.4,-92.7194)">
            <path d="M1046.53,555.348L1046.5,553.401L1050.15,555.508L1048.44,556.456L1046.53,555.348Z" style="fill:none;stroke:rgb(0,0,255);stroke-width:0.22px;"/>
        </g>
        <g transform="matrix(1.33333,0,0,1.33333,-569.4,-92.7194)">
            <path d="M874.528,553.347L874.499,551.401L878.146,553.508L876.445,554.456L874.528,553.347Z" style="fill:none;stroke:rgb(0,0,255);stroke-width:0.22px;"/>
        </g>
        <g transform="matrix(1.33333,0,0,1.33333,-569.4,-92.7194)">
            <path d="M1214.9,541.663L1216.07,542.749L1216.06,544.212L1217.31,543.514L1217.33,545.723L1216.04,546.434L1216.03,547.152L1218.21,545.893L1218.25,548.035L1216.07,549.334L1216.06,550.68L1217.99,551.793L1218.27,551.305L1217.66,549.847L1218.31,548.72L1218.95,550.247L1219.19,549.833L1218.95,548.929L1219.65,547.726L1220.08,548.654L1220.57,547.803L1221.52,547.552L1221.77,548.493L1221.28,549.344L1222.3,549.257L1221.6,550.46L1220.7,550.702L1220.46,551.115L1222.11,550.913L1221.45,552.041L1219.89,552.239L1219.6,552.727L1221.53,553.84L1222.69,553.156L1222.73,550.62L1224.6,549.586L1224.6,552.105L1225.22,551.733L1225.19,550.263L1227.12,549.183L1227.13,550.609L1228.4,549.873L1229.92,550.339L1229.56,551.89L1228.29,552.618L1229.52,553.345L1227.62,554.473L1226.36,553.713L1225.73,554.06L1227.91,555.32L1226.08,556.427L1223.86,555.188L1222.69,555.85L1222.69,558.075L1223.25,558.075L1224.21,556.817L1225.51,556.817L1224.51,558.141L1224.99,558.141L1225.65,557.479L1227.04,557.48L1226.45,558.321L1227.44,558.321L1228.13,559.011L1227.44,559.701L1226.45,559.702L1227.04,560.542L1225.65,560.544L1224.99,559.882L1224.51,559.882L1225.51,561.206L1224.21,561.207L1223.25,559.949L1222.69,559.95L1222.69,562.175L1223.87,562.836L1226.08,561.596L1227.91,562.701L1225.73,563.962L1226.36,564.309L1227.62,563.548L1229.52,564.675L1228.3,565.404L1229.57,566.129L1229.93,567.68L1228.4,568.145L1227.14,567.409L1227.12,568.835L1225.19,567.754L1225.22,566.283L1224.61,565.911L1224.61,568.43L1222.73,567.395L1222.7,564.859L1221.54,564.174L1219.61,565.286L1219.89,565.775L1221.46,565.973L1222.11,567.101L1220.47,566.898L1220.7,567.312L1221.61,567.554L1222.3,568.757L1221.28,568.67L1221.77,569.521L1221.52,570.463L1220.58,570.21L1220.09,569.359L1219.65,570.287L1218.96,569.084L1219.2,568.179L1218.96,567.766L1218.31,569.292L1217.66,568.164L1218.28,566.708L1217.99,566.219L1216.07,567.331L1216.08,568.677L1218.26,569.977L1218.21,572.119L1216.03,570.858L1216.05,571.577L1217.34,572.288L1217.31,574.497L1216.06,573.798L1216.07,575.262L1214.9,576.347L1213.74,575.262L1213.74,573.798L1212.5,574.497L1212.47,572.288L1213.76,571.577L1213.77,570.858L1211.59,572.119L1211.55,569.977L1213.73,568.677L1213.74,567.331L1211.81,566.219L1211.53,566.708L1212.14,568.164L1211.49,569.293L1210.85,567.766L1210.61,568.179L1210.85,569.084L1210.15,570.287L1209.72,569.36L1209.23,570.21L1208.29,570.463L1208.03,569.521L1208.53,568.67L1207.5,568.758L1208.2,567.554L1209.1,567.312L1209.34,566.898L1207.69,567.101L1208.35,565.973L1209.91,565.775L1210.2,565.286L1208.27,564.174L1207.11,564.859L1207.07,567.395L1205.2,568.43L1205.2,565.912L1204.58,566.284L1204.61,567.754L1202.68,568.835L1202.67,567.409L1201.4,568.146L1199.88,567.681L1200.24,566.129L1201.51,565.404L1200.29,564.675L1202.18,563.549L1203.44,564.309L1204.07,563.963L1201.89,562.702L1203.73,561.596L1205.94,562.836L1207.12,562.175L1207.12,559.95L1206.55,559.95L1205.6,561.207L1204.29,561.206L1205.29,559.883L1204.82,559.883L1204.15,560.544L1202.76,560.543L1203.35,559.702L1202.37,559.701L1201.68,559.011L1202.37,558.321L1203.35,558.321L1202.77,557.48L1204.15,557.479L1204.82,558.141L1205.29,558.141L1204.3,556.818L1205.6,556.817L1206.55,558.076L1207.12,558.076L1207.12,555.85L1205.94,555.189L1203.73,556.427L1201.89,555.32L1204.08,554.06L1203.45,553.713L1202.19,554.473L1200.29,553.346L1201.52,552.618L1200.25,551.891L1199.89,550.34L1201.41,549.873L1202.67,550.609L1202.69,549.183L1204.62,550.263L1204.59,551.734L1205.2,552.105L1205.2,549.586L1207.08,550.62L1207.12,553.157L1208.28,553.841L1210.2,552.727L1209.92,552.239L1208.35,552.041L1207.7,550.913L1209.35,551.116L1209.11,550.702L1208.2,550.46L1207.51,549.257L1208.53,549.344L1208.04,548.493L1208.29,547.552L1209.23,547.804L1209.72,548.654L1210.16,547.726L1210.85,548.929L1210.61,549.833L1210.85,550.247L1211.5,548.72L1212.15,549.847L1211.54,551.305L1211.82,551.793L1213.75,550.68L1213.73,549.334L1211.55,548.035L1211.59,545.893L1213.78,547.152L1213.76,546.434L1212.47,545.723L1212.5,543.514L1213.74,544.212L1213.74,542.749L1214.9,541.663Z" style="fill:none;stroke:rgb(0,0,255);stroke-width:0.22px;"/>
        </g>
        <g transform="matrix(1.33333,0,0,1.33333,-569.4,-92.7194)">
            <path d="M1045.4,541.157L1046.56,542.242L1046.56,543.705L1047.8,543.007L1047.83,545.217L1046.54,545.927L1046.52,546.646L1048.7,545.387L1048.75,547.529L1046.57,548.827L1046.55,550.173L1048.48,551.286L1048.76,550.798L1048.15,549.341L1048.8,548.213L1049.45,549.74L1049.69,549.327L1049.44,548.422L1050.14,547.219L1050.58,548.147L1051.07,547.297L1052.01,547.045L1052.26,547.987L1051.77,548.837L1052.79,548.75L1052.1,549.953L1051.19,550.195L1050.95,550.609L1052.6,550.407L1051.95,551.535L1050.38,551.732L1050.1,552.22L1052.02,553.334L1053.18,552.65L1053.22,550.113L1055.1,549.079L1055.09,551.598L1055.71,551.227L1055.68,549.757L1057.61,548.677L1057.62,550.102L1058.89,549.367L1060.41,549.833L1060.05,551.384L1058.78,552.111L1060.01,552.839L1058.11,553.967L1056.85,553.207L1056.22,553.554L1058.4,554.814L1056.57,555.921L1054.36,554.682L1053.18,555.344L1053.18,557.569L1053.75,557.569L1054.7,556.311L1056,556.311L1055.01,557.634L1055.48,557.634L1056.14,556.973L1057.53,556.973L1056.95,557.814L1057.93,557.814L1058.62,558.504L1057.93,559.194L1056.95,559.195L1057.54,560.036L1056.15,560.037L1055.48,559.376L1055.01,559.376L1056.01,560.699L1054.7,560.701L1053.75,559.443L1053.18,559.443L1053.18,561.669L1054.36,562.329L1056.57,561.089L1058.41,562.195L1056.23,563.456L1056.86,563.803L1058.11,563.042L1060.02,564.168L1058.79,564.897L1060.06,565.623L1060.42,567.174L1058.9,567.639L1057.63,566.902L1057.61,568.328L1055.69,567.247L1055.72,565.777L1055.1,565.405L1055.1,567.924L1053.22,566.888L1053.19,564.352L1052.03,563.668L1050.1,564.779L1050.39,565.268L1051.95,565.466L1052.61,566.595L1050.96,566.391L1051.2,566.805L1052.1,567.048L1052.8,568.251L1051.78,568.164L1052.27,569.015L1052.01,569.956L1051.07,569.704L1050.58,568.853L1050.14,569.781L1049.45,568.577L1049.69,567.673L1049.45,567.259L1048.81,568.786L1048.15,567.658L1048.77,566.201L1048.49,565.713L1046.56,566.824L1046.57,568.17L1048.75,569.47L1048.71,571.612L1046.53,570.351L1046.54,571.07L1047.83,571.781L1047.8,573.991L1046.56,573.292L1046.56,574.755L1045.4,575.84L1044.23,574.755L1044.24,573.292L1042.99,573.991L1042.96,571.781L1044.25,571.07L1044.27,570.351L1042.09,571.612L1042.04,569.47L1044.22,568.17L1044.23,566.824L1042.31,565.713L1042.02,566.201L1042.64,567.658L1041.99,568.786L1041.34,567.259L1041.1,567.673L1041.34,568.577L1040.65,569.781L1040.21,568.853L1039.72,569.704L1038.78,569.956L1038.53,569.015L1039.02,568.164L1038,568.251L1038.69,567.048L1039.6,566.805L1039.83,566.391L1038.19,566.595L1038.84,565.466L1040.41,565.269L1040.69,564.779L1038.76,563.668L1037.6,564.352L1037.57,566.888L1035.69,567.924L1035.69,565.405L1035.08,565.777L1035.11,567.247L1033.18,568.329L1033.16,566.903L1031.9,567.639L1030.37,567.174L1030.73,565.623L1032,564.898L1030.78,564.169L1032.68,563.042L1033.94,563.803L1034.57,563.456L1032.39,562.195L1034.22,561.089L1036.43,562.33L1037.61,561.669L1037.61,559.443L1037.05,559.443L1036.09,560.701L1034.79,560.699L1035.79,559.376L1035.31,559.376L1034.65,560.037L1033.26,560.036L1033.84,559.196L1032.86,559.195L1032.17,558.504L1032.86,557.815L1033.84,557.815L1033.26,556.974L1034.65,556.973L1035.31,557.635L1035.79,557.635L1034.79,556.311L1036.09,556.311L1037.05,557.569L1037.61,557.569L1037.61,555.344L1036.44,554.682L1034.22,555.921L1032.39,554.814L1034.57,553.554L1033.94,553.207L1032.68,553.967L1030.78,552.839L1032.01,552.111L1030.74,551.385L1030.38,549.833L1031.9,549.367L1033.17,550.103L1033.18,548.677L1035.11,549.757L1035.08,551.227L1035.7,551.598L1035.7,549.08L1037.57,550.114L1037.61,552.65L1038.77,553.334L1040.7,552.22L1040.41,551.732L1038.85,551.535L1038.19,550.407L1039.84,550.609L1039.6,550.195L1038.7,549.954L1038,548.751L1039.02,548.837L1038.53,547.987L1038.78,547.046L1039.72,547.297L1040.22,548.148L1040.65,547.219L1041.35,548.422L1041.1,549.327L1041.34,549.74L1041.99,548.213L1042.64,549.341L1042.03,550.798L1042.31,551.286L1044.24,550.173L1044.22,548.827L1042.05,547.529L1042.09,545.387L1044.27,546.646L1044.26,545.927L1042.97,545.217L1042.99,543.007L1044.24,543.705L1044.23,542.242L1045.4,541.157Z" style="fill:none;stroke:rgb(0,0,255);stroke-width:0.22px;"/>
        </g>
        <g transform="matrix(1.33333,0,0,1.33333,-569.4,-92.7194)">
            <path d="M873.396,539.156L874.56,540.242L874.555,541.705L875.798,541.007L875.825,543.217L874.537,543.927L874.523,544.646L876.705,543.386L876.746,545.529L874.566,546.827L874.553,548.173L876.48,549.286L876.762,548.798L876.15,547.341L876.801,546.213L877.448,547.74L877.687,547.326L877.446,546.422L878.14,545.219L878.576,546.147L879.067,545.297L880.009,545.045L880.261,545.987L879.769,546.837L880.791,546.75L880.096,547.953L879.191,548.195L878.952,548.609L880.599,548.407L879.947,549.535L878.379,549.732L878.096,550.22L880.023,551.334L881.183,550.65L881.219,548.113L883.095,547.079L883.094,549.598L883.71,549.227L883.682,547.756L885.609,546.676L885.626,548.102L886.89,547.366L888.412,547.833L888.054,549.384L886.784,550.111L888.011,550.839L886.111,551.966L884.852,551.206L884.222,551.553L886.404,552.813L884.569,553.92L882.355,552.682L881.182,553.344L881.182,555.569L881.746,555.569L882.702,554.31L884.004,554.311L883.005,555.634L883.483,555.634L884.145,554.972L885.535,554.973L884.948,555.814L885.93,555.814L886.619,556.504L885.93,557.194L884.948,557.195L885.535,558.036L884.146,558.037L883.483,557.376L883.006,557.376L884.006,558.699L882.704,558.701L881.747,557.443L881.182,557.443L881.185,559.668L882.358,560.329L884.57,559.089L886.406,560.195L884.226,561.456L884.856,561.802L886.114,561.042L888.015,562.168L886.789,562.897L888.059,563.623L888.418,565.174L886.897,565.639L885.632,564.902L885.614,566.328L883.688,565.247L883.717,563.777L883.102,563.405L883.101,565.924L881.225,564.888L881.191,562.352L880.032,561.667L878.104,562.779L878.386,563.268L879.954,563.466L880.605,564.595L878.959,564.391L879.198,564.805L880.102,565.047L880.796,566.251L879.775,566.164L880.265,567.014L880.013,567.956L879.072,567.704L878.581,566.853L878.145,567.781L877.45,566.577L877.693,565.673L877.455,565.259L876.807,566.786L876.156,565.658L876.769,564.201L876.487,563.712L874.56,564.824L874.572,566.17L876.751,567.47L876.708,569.612L874.527,568.351L874.541,569.07L875.828,569.781L875.799,571.991L874.557,571.292L874.561,572.755L873.397,573.84L872.231,572.755L872.236,571.292L870.993,571.991L870.964,569.781L872.252,569.07L872.266,568.351L870.085,569.612L870.043,567.47L872.221,566.17L872.233,564.824L870.305,563.712L870.024,564.201L870.637,565.658L869.986,566.786L869.338,565.259L869.1,565.673L869.342,566.577L868.648,567.781L868.212,566.853L867.721,567.704L866.779,567.956L866.527,567.015L867.018,566.164L865.996,566.251L866.691,565.048L867.595,564.805L867.834,564.391L866.188,564.595L866.838,563.466L868.406,563.268L868.689,562.779L866.761,561.668L865.602,562.352L865.567,564.888L863.691,565.924L863.691,563.405L863.076,563.777L863.105,565.247L861.178,566.328L861.161,564.903L859.896,565.639L858.374,565.174L858.733,563.623L860.004,562.897L858.777,562.169L860.678,561.042L861.937,561.803L862.567,561.456L860.386,560.195L862.222,559.089L864.435,560.33L865.608,559.669L865.61,557.443L865.045,557.443L864.089,558.701L862.787,558.699L863.787,557.376L863.309,557.376L862.646,558.037L861.257,558.036L861.844,557.196L860.862,557.194L860.173,556.504L860.862,555.814L861.845,555.814L861.257,554.973L862.647,554.973L863.309,555.634L863.787,555.634L862.788,554.311L864.091,554.31L865.046,555.569L865.61,555.569L865.61,553.344L864.437,552.682L862.224,553.92L860.389,552.814L862.57,551.554L861.941,551.207L860.681,551.967L858.782,550.839L860.008,550.111L858.738,549.384L858.38,547.833L859.902,547.367L861.166,548.103L861.183,546.677L863.11,547.757L863.082,549.227L863.698,549.598L863.697,547.08L865.573,548.114L865.61,550.65L866.77,551.334L868.696,550.22L868.413,549.732L866.846,549.535L866.193,548.407L867.84,548.609L867.601,548.195L866.696,547.953L866.002,546.75L867.023,546.837L866.531,545.987L866.783,545.045L867.725,545.297L868.216,546.147L868.652,545.219L869.347,546.422L869.105,547.327L869.344,547.74L869.991,546.213L870.642,547.341L870.03,548.798L870.312,549.286L872.239,548.173L872.226,546.827L870.047,545.529L870.087,543.387L872.269,544.646L872.255,543.927L870.967,543.217L870.994,541.007L872.237,541.705L872.232,540.242L873.396,539.156Z" style="fill:none;stroke:rgb(0,0,255);stroke-width:0.22px;"/>
        </g>
        <g transform="matrix(1.33333,0,0,1.33333,-569.4,-92.7194)">
            <path d="M1162.92,529.838L1161,528.691L1161,533.528L1162.92,532.38L1162.92,529.838Z" style="fill:none;stroke:rgb(0,0,255);stroke-width:0.22px;"/>
        </g>
        <g transform="matrix(1.33333,0,0,1.33333,-569.4,-92.7194)">
            <path d="M993.411,529.331L991.491,528.185L991.492,533.021L993.412,531.874L993.411,529.331Z" style="fill:none;stroke:rgb(0,0,255);stroke-width:0.22px;"/>
        </g>
        <g transform="matrix(1.33333,0,0,1.33333,-569.4,-92.7194)">
            <path d="M821.411,527.331L819.491,526.185L819.493,531.021L821.412,529.874L821.411,527.331Z" style="fill:none;stroke:rgb(0,0,255);stroke-width:0.22px;"/>
        </g>
        <g transform="matrix(1.33333,0,0,1.33333,-569.4,-92.7194)">
            <path d="M1163.88,534.035L1161.92,535.125L1166.11,537.542L1166.08,535.306L1163.88,534.035Z" style="fill:none;stroke:rgb(0,0,255);stroke-width:0.22px;"/>
        </g>
        <g transform="matrix(1.33333,0,0,1.33333,-569.4,-92.7194)">
            <path d="M994.368,533.529L992.415,534.619L996.605,537.036L996.571,534.8L994.368,533.529Z" style="fill:none;stroke:rgb(0,0,255);stroke-width:0.22px;"/>
        </g>
        <g transform="matrix(1.33333,0,0,1.33333,-569.4,-92.7194)">
            <path d="M822.369,531.528L820.416,532.619L824.606,535.035L824.571,532.799L822.369,531.528Z" style="fill:none;stroke:rgb(0,0,255);stroke-width:0.22px;"/>
        </g>
        <g transform="matrix(1.33333,0,0,1.33333,-569.4,-92.7194)">
            <path d="M1166.08,526.91L1166.11,524.674L1161.92,527.094L1163.87,528.182L1166.08,526.91Z" style="fill:none;stroke:rgb(0,0,255);stroke-width:0.22px;"/>
        </g>
        <g transform="matrix(1.33333,0,0,1.33333,-569.4,-92.7194)">
            <path d="M996.568,526.403L996.6,524.167L992.413,526.588L994.366,527.676L996.568,526.403Z" style="fill:none;stroke:rgb(0,0,255);stroke-width:0.22px;"/>
        </g>
        <g transform="matrix(1.33333,0,0,1.33333,-569.4,-92.7194)">
            <path d="M824.568,524.403L824.601,522.167L820.413,524.587L822.366,525.675L824.568,524.403Z" style="fill:none;stroke:rgb(0,0,255);stroke-width:0.22px;"/>
        </g>
        <g transform="matrix(1.33333,0,0,1.33333,-569.4,-92.7194)">
            <path d="M1167.38,533.211L1166.48,532.696L1165.59,532.181L1165.58,530.097L1166.47,529.57L1167.36,529.043L1168.25,529.558L1169.14,530.073L1169.15,531.115L1169.15,532.157L1168.26,532.684L1167.38,533.211Z" style="fill:none;stroke:rgb(0,0,255);stroke-width:0.22px;"/>
        </g>
        <g transform="matrix(1.33333,0,0,1.33333,-569.4,-92.7194)">
            <path d="M997.868,532.704L996.975,532.189L996.082,531.674L996.073,529.59L996.961,529.063L997.849,528.536L998.742,529.051L999.635,529.566L999.639,530.608L999.644,531.65L998.756,532.177L997.868,532.704Z" style="fill:none;stroke:rgb(0,0,255);stroke-width:0.22px;"/>
        </g>
        <g transform="matrix(1.33333,0,0,1.33333,-569.4,-92.7194)">
            <path d="M825.868,530.704L824.975,530.189L824.083,529.674L824.073,527.59L824.961,527.063L825.85,526.536L826.742,527.051L827.635,527.566L827.639,528.608L827.644,529.65L826.756,530.177L825.868,530.704Z" style="fill:none;stroke:rgb(0,0,255);stroke-width:0.22px;"/>
        </g>
        <g transform="matrix(1.33333,0,0,1.33333,-569.4,-92.7194)">
            <path d="M1170.87,534.035L1172.83,535.125L1168.64,537.542L1168.67,535.306L1170.87,534.035Z" style="fill:none;stroke:rgb(0,0,255);stroke-width:0.22px;"/>
        </g>
        <g transform="matrix(1.33333,0,0,1.33333,-569.4,-92.7194)">
            <path d="M1001.37,533.529L1003.32,534.618L999.13,537.036L999.164,534.8L1001.37,533.529Z" style="fill:none;stroke:rgb(0,0,255);stroke-width:0.22px;"/>
        </g>
        <g transform="matrix(1.33333,0,0,1.33333,-569.4,-92.7194)">
            <path d="M829.367,531.528L831.319,532.618L827.13,535.035L827.164,532.799L829.367,531.528Z" style="fill:none;stroke:rgb(0,0,255);stroke-width:0.22px;"/>
        </g>
        <g transform="matrix(1.33333,0,0,1.33333,-569.4,-92.7194)">
            <path d="M1171.83,529.838L1173.75,528.691L1173.75,533.528L1171.83,532.38L1171.83,529.838Z" style="fill:none;stroke:rgb(0,0,255);stroke-width:0.22px;"/>
        </g>
        <g transform="matrix(1.33333,0,0,1.33333,-569.4,-92.7194)">
            <path d="M1002.32,529.331L1004.24,528.185L1004.24,533.021L1002.32,531.874L1002.32,529.331Z" style="fill:none;stroke:rgb(0,0,255);stroke-width:0.22px;"/>
        </g>
        <g transform="matrix(1.33333,0,0,1.33333,-569.4,-92.7194)">
            <path d="M830.324,527.331L832.244,526.185L832.242,531.021L830.323,529.874L830.324,527.331Z" style="fill:none;stroke:rgb(0,0,255);stroke-width:0.22px;"/>
        </g>
        <g transform="matrix(1.33333,0,0,1.33333,-569.4,-92.7194)">
            <path d="M1168.67,526.909L1168.64,524.674L1172.83,527.094L1170.88,528.182L1168.67,526.909Z" style="fill:none;stroke:rgb(0,0,255);stroke-width:0.22px;"/>
        </g>
        <g transform="matrix(1.33333,0,0,1.33333,-569.4,-92.7194)">
            <path d="M999.166,526.403L999.134,524.167L1003.32,526.587L1001.37,527.676L999.166,526.403Z" style="fill:none;stroke:rgb(0,0,255);stroke-width:0.22px;"/>
        </g>
        <g transform="matrix(1.33333,0,0,1.33333,-569.4,-92.7194)">
            <path d="M827.167,524.403L827.134,522.167L831.322,524.587L829.369,525.675L827.167,524.403Z" style="fill:none;stroke:rgb(0,0,255);stroke-width:0.22px;"/>
        </g>
        <g transform="matrix(1.33333,0,0,1.33333,-569.4,-92.7194)">
            <path d="M1167.37,510.612L1168.71,511.859L1168.7,513.539L1170.13,512.737L1170.16,515.275L1168.68,516.091L1168.67,516.916L1171.17,515.47L1171.22,517.93L1168.72,519.421L1168.7,520.967L1170.92,522.245L1171.24,521.684L1170.54,520.011L1171.29,518.716L1172.03,520.47L1172.3,519.995L1172.03,518.956L1172.82,517.574L1173.32,518.641L1173.89,517.664L1174.97,517.374L1175.26,518.456L1174.69,519.433L1175.87,519.333L1175.07,520.715L1174.03,520.992L1173.76,521.467L1175.64,521.235L1174.9,522.53L1173.1,522.757L1172.77,523.318L1174.98,524.597L1176.32,523.811L1176.36,520.898L1178.51,519.711L1178.51,522.603L1179.22,522.177L1179.19,520.489L1181.4,519.248L1181.42,520.886L1182.87,520.041L1184.62,520.576L1184.21,522.357L1182.75,523.192L1184.16,524.028L1181.98,525.324L1180.53,524.451L1179.81,524.849L1182.31,526.296L1180.21,527.567L1177.66,526.145L1176.32,526.905L1176.32,529.461L1176.96,529.461L1178.06,528.015L1179.56,528.015L1178.41,529.536L1178.96,529.536L1179.72,528.776L1181.31,528.777L1180.64,529.742L1181.77,529.743L1182.56,530.534L1181.77,531.327L1180.64,531.328L1181.32,532.294L1179.72,532.295L1178.96,531.535L1178.41,531.536L1179.56,533.056L1178.06,533.057L1176.96,531.613L1176.32,531.613L1176.32,534.169L1177.67,534.928L1180.21,533.504L1182.32,534.773L1179.81,536.221L1180.54,536.62L1181.98,535.746L1184.16,537.039L1182.76,537.876L1184.21,538.71L1184.63,540.491L1182.88,541.026L1181.43,540.18L1181.41,541.817L1179.19,540.575L1179.23,538.887L1178.52,538.46L1178.52,541.352L1176.37,540.163L1176.33,537.25L1175,536.464L1172.78,537.742L1173.11,538.303L1174.91,538.53L1175.65,539.826L1173.76,539.593L1174.04,540.067L1175.08,540.346L1175.87,541.729L1174.7,541.629L1175.26,542.605L1174.97,543.687L1173.89,543.396L1173.33,542.419L1172.83,543.485L1172.03,542.103L1172.31,541.064L1172.04,540.589L1171.29,542.342L1170.54,541.047L1171.25,539.374L1170.92,538.813L1168.71,540.089L1168.73,541.636L1171.23,543.128L1171.18,545.588L1168.67,544.141L1168.69,544.966L1170.17,545.783L1170.13,548.32L1168.71,547.517L1168.71,549.198L1167.38,550.444L1166.04,549.198L1166.04,547.517L1164.62,548.32L1164.58,545.783L1166.06,544.966L1166.08,544.141L1163.57,545.588L1163.52,543.128L1166.02,541.636L1166.04,540.09L1163.83,538.813L1163.5,539.374L1164.21,541.047L1163.46,542.343L1162.71,540.59L1162.44,541.064L1162.72,542.103L1161.92,543.485L1161.42,542.42L1160.86,543.396L1159.78,543.687L1159.49,542.606L1160.05,541.629L1158.88,541.729L1159.67,540.347L1160.71,540.067L1160.99,539.593L1159.1,539.826L1159.84,538.531L1161.64,538.303L1161.97,537.742L1159.75,536.465L1158.42,537.251L1158.38,540.164L1156.23,541.353L1156.23,538.46L1155.52,538.887L1155.56,540.576L1153.34,541.817L1153.32,540.18L1151.87,541.026L1150.12,540.492L1150.54,538.71L1151.99,537.877L1150.59,537.04L1152.77,535.746L1154.21,536.62L1154.94,536.222L1152.43,534.773L1154.54,533.504L1157.08,534.928L1158.43,534.169L1158.43,531.613L1157.78,531.613L1156.69,533.057L1155.19,533.056L1156.34,531.536L1155.79,531.536L1155.03,532.295L1153.43,532.294L1154.11,531.329L1152.98,531.327L1152.19,530.535L1152.98,529.743L1154.11,529.742L1153.43,528.777L1155.03,528.776L1155.79,529.536L1156.34,529.536L1155.19,528.015L1156.69,528.015L1157.79,529.461L1158.43,529.461L1158.43,526.905L1157.09,526.145L1154.54,527.567L1152.44,526.297L1154.94,524.85L1154.22,524.451L1152.77,525.324L1150.59,524.028L1152,523.193L1150.54,522.358L1150.13,520.577L1151.88,520.041L1153.33,520.886L1153.35,519.249L1155.56,520.489L1155.53,522.177L1156.24,522.603L1156.24,519.711L1158.39,520.899L1158.43,523.812L1159.76,524.597L1161.98,523.318L1161.65,522.757L1159.85,522.531L1159.1,521.235L1160.99,521.467L1160.72,520.992L1159.68,520.715L1158.88,519.333L1160.06,519.433L1159.49,518.456L1159.78,517.375L1160.86,517.664L1161.43,518.641L1161.93,517.575L1162.72,518.956L1162.45,519.995L1162.72,520.47L1163.46,518.716L1164.21,520.011L1163.51,521.684L1163.83,522.245L1166.05,520.967L1166.03,519.421L1163.53,517.93L1163.57,515.47L1166.08,516.916L1166.06,516.091L1164.59,515.275L1164.62,512.738L1166.04,513.539L1166.04,511.859L1167.37,510.612Z" style="fill:none;stroke:rgb(0,0,255);stroke-width:0.22px;"/>
        </g>
        <g transform="matrix(1.33333,0,0,1.33333,-569.4,-92.7194)">
            <path d="M997.867,510.105L999.204,511.352L999.198,513.033L1000.62,512.231L1000.66,514.769L999.178,515.584L999.161,516.41L1001.67,514.964L1001.71,517.423L999.211,518.914L999.196,520.461L1001.41,521.739L1001.73,521.178L1001.03,519.505L1001.78,518.21L1002.52,519.963L1002.8,519.488L1002.52,518.45L1003.32,517.068L1003.82,518.134L1004.38,517.157L1005.46,516.868L1005.75,517.949L1005.19,518.926L1006.36,518.826L1005.56,520.208L1004.52,520.486L1004.25,520.961L1006.14,520.729L1005.39,522.024L1003.59,522.25L1003.26,522.812L1005.48,524.09L1006.81,523.305L1006.85,520.392L1009.01,519.204L1009,522.097L1009.71,521.671L1009.68,519.982L1011.89,518.742L1011.91,520.379L1013.37,519.534L1015.11,520.07L1014.7,521.851L1013.24,522.686L1014.65,523.522L1012.47,524.817L1011.02,523.944L1010.3,524.343L1012.81,525.79L1010.7,527.06L1008.16,525.638L1006.81,526.398L1006.81,528.954L1007.46,528.954L1008.55,527.509L1010.05,527.509L1008.9,529.029L1009.45,529.029L1010.21,528.269L1011.81,528.27L1011.13,529.236L1012.26,529.236L1013.05,530.028L1012.26,530.82L1011.13,530.822L1011.81,531.787L1010.21,531.789L1009.45,531.029L1008.9,531.029L1010.05,532.549L1008.56,532.551L1007.46,531.106L1006.81,531.107L1006.81,533.662L1008.16,534.421L1010.7,532.997L1012.81,534.266L1010.3,535.715L1011.03,536.113L1012.47,535.239L1014.66,536.533L1013.25,537.37L1014.71,538.203L1015.12,539.984L1013.37,540.519L1011.92,539.673L1011.9,541.31L1009.69,540.069L1009.72,538.38L1009.01,537.953L1009.01,540.846L1006.86,539.657L1006.82,536.744L1005.49,535.958L1003.27,537.235L1003.6,537.796L1005.4,538.024L1006.15,539.319L1004.26,539.086L1004.53,539.561L1005.57,539.84L1006.37,541.222L1005.19,541.122L1005.76,542.099L1005.47,543.18L1004.38,542.89L1003.82,541.913L1003.32,542.978L1002.52,541.597L1002.8,540.558L1002.53,540.083L1001.78,541.836L1001.04,540.54L1001.74,538.868L1001.42,538.307L999.204,539.583L999.218,541.129L1001.72,542.622L1001.67,545.082L999.166,543.634L999.182,544.459L1000.66,545.276L1000.63,547.814L999.2,547.011L999.205,548.692L997.868,549.937L996.53,548.692L996.535,547.011L995.107,547.814L995.075,545.276L996.553,544.459L996.569,543.634L994.064,545.082L994.016,542.622L996.517,541.129L996.531,539.583L994.318,538.307L993.994,538.868L994.698,540.54L993.951,541.836L993.207,540.083L992.933,540.558L993.212,541.597L992.414,542.979L991.914,541.913L991.35,542.89L990.268,543.18L989.978,542.099L990.542,541.122L989.369,541.222L990.166,539.84L991.205,539.561L991.479,539.086L989.589,539.32L990.336,538.024L992.137,537.796L992.46,537.235L990.247,535.958L988.916,536.744L988.876,539.657L986.722,540.846L986.721,537.953L986.015,538.381L986.048,540.069L983.835,541.311L983.816,539.673L982.363,540.519L980.615,539.985L981.027,538.204L982.487,537.37L981.079,536.534L983.261,535.24L984.707,536.113L985.43,535.715L982.926,534.267L985.034,532.997L987.576,534.421L988.923,533.663L988.925,531.107L988.277,531.106L987.179,532.551L985.683,532.549L986.831,531.03L986.283,531.029L985.521,531.789L983.926,531.787L984.6,530.822L983.472,530.821L982.681,530.028L983.473,529.236L984.601,529.236L983.927,528.27L985.523,528.269L986.283,529.03L986.832,529.03L985.685,527.509L987.18,527.509L988.278,528.954L988.926,528.954L988.925,526.399L987.578,525.639L985.036,527.061L982.929,525.79L985.434,524.343L984.711,523.945L983.265,524.818L981.083,523.522L982.492,522.686L981.033,521.851L980.622,520.07L982.37,519.535L983.822,520.38L983.841,518.742L986.054,519.983L986.022,521.671L986.729,522.097L986.728,519.205L988.883,520.392L988.925,523.305L990.257,524.09L992.47,522.812L992.145,522.251L990.344,522.024L989.596,520.729L991.486,520.961L991.212,520.486L990.173,520.209L989.375,518.827L990.548,518.926L989.984,517.95L990.273,516.868L991.354,517.157L991.919,518.134L992.419,517.068L993.216,518.45L992.938,519.489L993.214,519.963L993.956,518.21L994.705,519.505L994.002,521.178L994.326,521.739L996.538,520.461L996.523,518.915L994.02,517.424L994.067,514.964L996.573,516.41L996.557,515.584L995.078,514.769L995.109,512.231L996.536,513.033L996.53,511.352L997.867,510.105Z" style="fill:none;stroke:rgb(0,0,255);stroke-width:0.22px;"/>
        </g>
        <g transform="matrix(1.33333,0,0,1.33333,-569.4,-92.7194)">
            <path d="M825.867,508.105L827.204,509.352L827.198,511.033L828.626,510.231L828.657,512.768L827.178,513.584L827.162,514.409L829.667,512.963L829.714,515.423L827.212,516.914L827.196,518.46L829.409,519.739L829.733,519.178L829.03,517.505L829.778,516.21L830.521,517.963L830.796,517.488L830.518,516.449L831.316,515.068L831.816,516.134L832.38,515.157L833.462,514.868L833.751,515.949L833.187,516.926L834.36,516.826L833.562,518.208L832.523,518.486L832.248,518.961L834.139,518.729L833.39,520.024L831.59,520.25L831.265,520.811L833.478,522.09L834.81,521.305L834.852,518.392L837.006,517.204L837.005,520.097L837.712,519.67L837.68,517.982L839.894,516.741L839.912,518.379L841.365,517.534L843.113,518.07L842.702,519.851L841.243,520.686L842.651,521.522L840.469,522.817L839.024,521.944L838.301,522.343L840.806,523.79L838.699,525.06L836.156,523.638L834.809,524.398L834.809,526.954L835.457,526.954L836.555,525.509L838.05,525.509L836.903,527.029L837.452,527.029L838.212,526.269L839.808,526.27L839.134,527.235L840.262,527.236L841.054,528.028L840.262,528.82L839.135,528.822L839.809,529.787L838.214,529.788L837.452,529.029L836.904,529.029L838.052,530.549L836.556,530.55L835.458,529.106L834.809,529.106L834.813,531.662L836.159,532.421L838.701,530.997L840.809,532.266L838.305,533.715L839.028,534.113L840.473,533.239L842.657,534.533L841.248,535.37L842.708,536.203L843.12,537.984L841.372,538.519L839.92,537.673L839.9,539.31L837.687,538.069L837.72,536.38L837.014,535.953L837.013,538.846L834.859,537.657L834.819,534.744L833.488,533.958L831.274,535.235L831.598,535.796L833.399,536.024L834.146,537.319L832.256,537.086L832.53,537.561L833.569,537.84L834.366,539.222L833.193,539.122L833.757,540.099L833.467,541.18L832.385,540.89L831.821,539.913L831.321,540.978L830.523,539.597L830.802,538.557L830.528,538.083L829.784,539.836L829.037,538.54L829.741,536.867L829.417,536.306L827.204,537.583L827.218,539.129L829.719,540.622L829.671,543.082L827.166,541.634L827.182,542.459L828.66,543.276L828.628,545.814L827.2,545.011L827.205,546.691L825.868,547.937L824.53,546.691L824.535,545.011L823.108,545.814L823.075,543.276L824.553,542.459L824.569,541.634L822.065,543.082L822.016,540.622L824.517,539.129L824.531,537.583L822.318,536.306L821.994,536.867L822.699,538.54L821.951,539.836L821.207,538.083L820.933,538.558L821.212,539.597L820.414,540.979L819.914,539.913L819.35,540.89L818.268,541.18L817.979,540.099L818.542,539.122L817.369,539.222L818.167,537.84L819.205,537.561L819.479,537.086L817.589,537.32L818.336,536.024L820.137,535.796L820.461,535.235L818.247,533.958L816.916,534.744L816.876,537.657L814.723,538.846L814.722,535.953L814.015,536.38L814.048,538.069L811.836,539.311L811.816,537.673L810.363,538.519L808.616,537.985L809.028,536.204L810.487,535.37L809.079,534.533L811.262,533.24L812.707,534.113L813.43,533.715L810.927,532.267L813.034,530.997L815.576,532.421L816.923,531.662L816.926,529.106L816.277,529.106L815.179,530.551L813.683,530.549L814.831,529.03L814.283,529.029L813.521,529.789L811.926,529.787L812.601,528.822L811.473,528.82L810.681,528.028L811.473,527.236L812.601,527.236L811.927,526.27L813.523,526.269L814.283,527.03L814.832,527.03L813.685,525.509L815.181,525.509L816.278,526.954L816.926,526.954L816.926,524.398L815.579,523.638L813.036,525.061L810.929,523.79L813.434,522.343L812.711,521.944L811.265,522.818L809.084,521.522L810.492,520.686L809.033,519.851L808.622,518.07L810.37,517.535L811.822,518.38L811.841,516.742L814.055,517.982L814.023,519.671L814.73,520.097L814.728,517.205L816.883,518.392L816.925,521.305L818.257,522.09L820.47,520.812L820.145,520.25L818.344,520.024L817.596,518.729L819.487,518.961L819.212,518.486L818.173,518.208L817.375,516.826L818.548,516.926L817.984,515.949L818.273,514.868L819.355,515.157L819.919,516.134L820.419,515.068L821.217,516.45L820.939,517.488L821.214,517.963L821.957,516.21L822.705,517.505L822.002,519.178L822.326,519.739L824.539,518.46L824.524,516.914L822.021,515.424L822.068,512.963L824.573,514.409L824.557,513.584L823.078,512.768L823.109,510.231L824.536,511.033L824.53,509.352L825.867,508.105Z" style="fill:none;stroke:rgb(0,0,255);stroke-width:0.22px;"/>
        </g>
        <g transform="matrix(1.33333,0,0,1.33333,-569.4,-92.7194)">
            <path d="M1135.96,512.54C1137.94,517.789 1135.8,524.585 1137.77,529.835C1139.65,534.819 1145.93,538.152 1147.81,543.137C1149.36,547.257 1146.99,554.617 1148.54,558.737C1149.37,560.93 1156.33,564.636 1157.97,569.299C1159.4,573.087 1158.39,577.788 1159.82,581.576C1161.49,586.028 1167.48,588.865 1169.15,593.318C1171.13,598.567 1168.99,605.363 1170.97,610.613C1172.84,615.597 1179.12,618.93 1181,623.915C1182.55,628.035 1180.18,635.395 1181.73,639.515C1182.56,641.708 1189.52,645.414 1191.16,650.077C1192.69,654.376 1190.71,658.074 1191.22,662.059" style="fill:none;stroke:rgb(0,0,255);stroke-width:0.22px;"/>
        </g>
        <g transform="matrix(1.33333,0,0,1.33333,-569.4,-92.7194)">
            <path d="M966.455,512.033C968.432,517.283 966.29,524.079 968.267,529.328C970.144,534.313 976.422,537.646 978.3,542.631C979.851,546.751 977.482,554.111 979.034,558.231C979.86,560.424 986.818,564.13 988.464,568.792C989.89,572.58 988.883,577.282 990.31,581.069C991.987,585.522 997.97,588.358 999.647,592.811C1001.62,598.061 999.482,604.856 1001.46,610.106C1003.34,615.091 1009.62,618.424 1011.49,623.409C1013.04,627.528 1010.68,634.888 1012.23,639.009C1013.05,641.202 1020.01,644.907 1021.66,649.57C1023.18,653.869 1021.2,657.567 1021.71,661.552" style="fill:none;stroke:rgb(0,0,255);stroke-width:0.22px;"/>
        </g>
        <g transform="matrix(1.33333,0,0,1.33333,-569.4,-92.7194)">
            <path d="M794.455,510.033C796.433,515.283 794.29,522.079 796.268,527.328C798.145,532.313 804.422,535.646 806.3,540.63C807.852,544.751 805.483,552.11 807.035,556.23C807.86,558.424 814.818,562.13 816.464,566.792C817.891,570.58 816.883,575.281 818.31,579.069C819.987,583.522 825.971,586.358 827.647,590.811C829.625,596.061 827.482,602.856 829.46,608.106C831.337,613.09 837.615,616.423 839.493,621.408C841.044,625.528 838.675,632.888 840.227,637.008C841.053,639.202 848.011,642.907 849.656,647.57C851.183,651.869 849.2,655.567 849.713,659.552" style="fill:none;stroke:rgb(0,0,255);stroke-width:0.22px;"/>
        </g>
        <g transform="matrix(1.33333,0,0,1.33333,-569.4,-92.7194)">
            <path d="M1252.43,512.538C1250.45,517.788 1252.59,524.584 1250.62,529.834C1248.74,534.818 1242.46,538.151 1240.58,543.136C1239.03,547.256 1241.4,554.616 1239.85,558.736C1239.02,560.929 1232.07,564.635 1230.42,569.298C1228.99,573.086 1230,577.787 1228.58,581.575C1226.9,586.028 1220.91,588.864 1219.24,593.317C1217.26,598.567 1219.4,605.362 1217.43,610.612C1215.55,615.597 1209.27,618.93 1207.39,623.915C1205.84,628.035 1208.21,635.395 1206.66,639.515C1205.83,641.708 1198.88,645.414 1197.23,650.077C1195.7,654.38 1197.69,658.081 1197.17,662.071" style="fill:none;stroke:rgb(0,0,255);stroke-width:0.22px;"/>
        </g>
        <g transform="matrix(1.33333,0,0,1.33333,-569.4,-92.7194)">
            <path d="M1082.92,512.032C1080.94,517.282 1083.09,524.077 1081.11,529.327C1079.23,534.311 1072.95,537.645 1071.08,542.629C1069.53,546.75 1071.89,554.109 1070.34,558.23C1069.52,560.423 1062.56,564.129 1060.91,568.791C1059.49,572.579 1060.49,577.281 1059.07,581.069C1057.39,585.521 1051.41,588.358 1049.73,592.811C1047.75,598.06 1049.9,604.856 1047.92,610.106C1046.04,615.09 1039.76,618.423 1037.89,623.408C1036.34,627.528 1038.7,634.888 1037.15,639.008C1036.33,641.201 1029.37,644.907 1027.72,649.57C1026.19,653.874 1028.18,657.575 1027.66,661.564" style="fill:none;stroke:rgb(0,0,255);stroke-width:0.22px;"/>
        </g>
        <g transform="matrix(1.33333,0,0,1.33333,-569.4,-92.7194)">
            <path d="M910.921,510.032C908.944,515.281 911.087,522.077 909.109,527.327C907.232,532.311 900.954,535.645 899.077,540.629C897.525,544.749 899.895,552.109 898.343,556.229C897.517,558.423 890.559,562.129 888.914,566.791C887.487,570.579 888.495,575.281 887.068,579.069C885.391,583.521 879.407,586.358 877.731,590.81C875.753,596.06 877.896,602.856 875.919,608.105C874.042,613.09 867.764,616.423 865.886,621.408C864.335,625.528 866.704,632.888 865.152,637.008C864.327,639.201 857.369,642.907 855.723,647.57C854.195,651.874 856.183,655.574 855.665,659.564" style="fill:none;stroke:rgb(0,0,255);stroke-width:0.22px;"/>
        </g>
    </g>
</svg>
