<?xml version="1.0" encoding="UTF-8" standalone="no"?>
<!DOCTYPE svg PUBLIC "-//W3C//DTD SVG 1.1//EN" "http://www.w3.org/Graphics/SVG/1.1/DTD/svg11.dtd">
<svg width="100%" height="100%" viewBox="0 0 1123 794" version="1.1" xmlns="http://www.w3.org/2000/svg" xmlns:xlink="http://www.w3.org/1999/xlink" xml:space="preserve" xmlns:serif="http://www.serif.com/" style="fill-rule:evenodd;clip-rule:evenodd;stroke-miterlimit:22.9256;">
    <g transform="matrix(1.33333,0,0,1.33333,-497.123,-406.377)">
        <g transform="matrix(1,0,0,1,-379.8,-69.5396)">
            <path d="M1135.15,434.599C1135,434.755 1134.79,434.852 1134.55,434.852C1134.08,434.852 1133.7,434.471 1133.7,434.002C1133.7,433.769 1133.79,433.557 1133.94,433.404L1130.52,430.017L1151.77,408.512L1155.2,411.9C1155.35,411.744 1155.57,411.647 1155.8,411.647C1156.27,411.647 1156.65,412.028 1156.65,412.498C1156.65,412.731 1156.56,412.942 1156.41,413.095L1159.84,416.483L1201.46,374.322L1201.46,484.306L1158.94,484.306L1158.94,489.125C1159.41,489.125 1159.79,489.506 1159.79,489.975C1159.79,490.445 1159.41,490.826 1158.94,490.826L1158.94,495.645L1128.7,495.645L1128.7,490.826C1128.24,490.826 1127.85,490.445 1127.85,489.975C1127.85,489.506 1128.24,489.125 1128.7,489.125L1128.7,484.306L1092.8,484.306L1138.58,437.987L1135.15,434.599Z" style="fill:none;stroke:rgb(255,0,0);stroke-width:0.22px;"/>
        </g>
        <g transform="matrix(1,0,0,1,-379.8,-69.5396)">
            <path d="M794.996,434.599C794.842,434.755 794.628,434.852 794.391,434.852C793.922,434.852 793.541,434.471 793.541,434.002C793.541,433.769 793.635,433.557 793.787,433.404L790.36,430.017L811.615,408.512L815.042,411.9C815.196,411.744 815.41,411.647 815.647,411.647C816.116,411.647 816.497,412.028 816.497,412.498C816.497,412.731 816.403,412.942 816.252,413.095L819.679,416.483L861.303,374.322L861.303,484.306L818.783,484.306L818.783,489.125C819.253,489.125 819.633,489.506 819.633,489.975C819.633,490.445 819.253,490.825 818.783,490.826L818.783,495.645L788.547,495.645L788.547,490.826L788.547,490.826C788.077,490.826 787.696,490.445 787.696,489.975C787.696,489.506 788.077,489.125 788.547,489.125L788.547,489.125L788.547,484.306L752.642,484.306L798.424,437.987L794.996,434.599Z" style="fill:none;stroke:rgb(255,0,0);stroke-width:0.22px;"/>
        </g>
        <g transform="matrix(1,0,0,1,-379.8,-69.5396)">
            <path d="M908.382,434.6C908.228,434.756 908.014,434.852 907.777,434.852C907.308,434.852 906.927,434.471 906.927,434.002C906.927,433.769 907.021,433.557 907.173,433.404L903.745,430.017L925.001,408.512L928.428,411.9C928.582,411.744 928.796,411.647 929.033,411.647C929.502,411.647 929.883,412.028 929.883,412.498C929.883,412.731 929.789,412.942 929.637,413.095L933.065,416.483L974.689,374.322L974.689,484.306L932.169,484.306L932.169,489.125C932.639,489.125 933.019,489.506 933.019,489.975C933.019,490.445 932.639,490.826 932.169,490.826L932.169,495.645L901.933,495.645L901.933,490.826C901.463,490.826 901.083,490.445 901.083,489.975C901.083,489.506 901.463,489.125 901.933,489.125L901.933,484.306L866.028,484.306L911.809,437.987L908.382,434.6Z" style="fill:none;stroke:rgb(255,0,0);stroke-width:0.22px;"/>
        </g>
        <g transform="matrix(1,0,0,1,-379.8,-69.5396)">
            <path d="M1021.77,434.599C1021.61,434.755 1021.4,434.852 1021.16,434.852C1020.69,434.852 1020.31,434.471 1020.31,434.002C1020.31,433.769 1020.41,433.557 1020.56,433.404L1017.13,430.017L1038.39,408.512L1041.81,411.9C1041.97,411.744 1042.18,411.647 1042.42,411.647C1042.89,411.647 1043.27,412.028 1043.27,412.498C1043.27,412.731 1043.17,412.942 1043.02,413.095L1046.45,416.483L1088.07,374.322L1088.07,484.306L1045.56,484.306L1045.56,489.125C1046.03,489.125 1046.4,489.506 1046.4,489.975C1046.4,490.445 1046.03,490.826 1045.56,490.826L1045.56,495.645L1015.32,495.645L1015.32,490.826C1014.85,490.826 1014.47,490.445 1014.47,489.975C1014.47,489.506 1014.85,489.125 1015.32,489.125L1015.32,484.306L979.413,484.306L1025.19,437.987L1021.77,434.599Z" style="fill:none;stroke:rgb(255,0,0);stroke-width:0.22px;"/>
        </g>
        <g transform="matrix(1,0,0,1,-379.8,-69.5396)">
            <path d="M793.321,472.967L846.492,472.967L812.904,439.421L789.29,463.313C787.647,464.974 787.19,467.327 788.09,469.483C788.99,471.639 790.985,472.967 793.321,472.967ZM850.009,460.501L849.88,415.812C849.874,413.465 848.537,411.46 846.365,410.568C844.194,409.676 841.829,410.157 840.179,411.826L820.852,431.38L850.009,460.501Z" style="fill:none;fill-rule:nonzero;stroke:rgb(255,0,0);stroke-width:0.22px;"/>
        </g>
        <g transform="matrix(1,0,0,1,-379.8,-69.5396)">
            <path d="M906.707,472.967L959.877,472.967L926.29,439.421L902.675,463.313C901.033,464.974 900.575,467.327 901.475,469.483C902.376,471.639 904.371,472.967 906.707,472.967ZM963.395,460.501L963.266,415.812C963.26,413.465 961.923,411.46 959.751,410.568C957.58,409.676 955.215,410.157 953.565,411.826L934.238,431.38L963.395,460.501Z" style="fill:none;fill-rule:nonzero;stroke:rgb(255,0,0);stroke-width:0.22px;"/>
        </g>
        <g transform="matrix(1,0,0,1,-379.8,-69.5396)">
            <path d="M1020.09,472.967L1073.26,472.967L1039.68,439.421L1016.06,463.313C1014.42,464.974 1013.96,467.327 1014.86,469.483C1015.76,471.639 1017.76,472.967 1020.09,472.967ZM1076.78,460.501L1076.65,415.812C1076.64,413.465 1075.31,411.46 1073.14,410.568C1070.97,409.676 1068.6,410.157 1066.95,411.826L1047.62,431.38L1076.78,460.501Z" style="fill:none;fill-rule:nonzero;stroke:rgb(255,0,0);stroke-width:0.22px;"/>
        </g>
        <g transform="matrix(1,0,0,1,-379.8,-69.5396)">
            <path d="M1133.48,472.967L1186.65,472.967L1153.06,439.421L1129.45,463.313C1127.8,464.974 1127.35,467.327 1128.25,469.483C1129.15,471.639 1131.14,472.967 1133.48,472.967ZM1190.17,460.501L1190.04,415.812C1190.03,413.465 1188.69,411.46 1186.52,410.568C1184.35,409.676 1181.99,410.157 1180.34,411.826L1161.01,431.38L1190.17,460.501Z" style="fill:none;fill-rule:nonzero;stroke:rgb(255,0,0);stroke-width:0.22px;"/>
        </g>
    </g>
</svg>
