<?xml version="1.0" encoding="UTF-8" standalone="no"?>
<!DOCTYPE svg PUBLIC "-//W3C//DTD SVG 1.1//EN" "http://www.w3.org/Graphics/SVG/1.1/DTD/svg11.dtd">
<svg width="100%" height="100%" viewBox="0 0 1123 794" version="1.1" xmlns="http://www.w3.org/2000/svg" xmlns:xlink="http://www.w3.org/1999/xlink" xml:space="preserve" xmlns:serif="http://www.serif.com/" style="fill-rule:evenodd;clip-rule:evenodd;stroke-miterlimit:22.9256;">
    <g transform="matrix(1.33333,0,0,1.33333,52.1027,-459.794)">
        <g transform="matrix(1,0,0,1,-100.723,-43.6098)">
            <path d="M305.233,394.125L379.424,522.629C381.506,526.234 381.506,530.362 379.424,533.967L305.233,662.471C303.151,666.077 299.577,668.14 295.413,668.14L147.219,668.14C143.055,668.14 139.481,666.077 137.399,662.471L63.207,533.967C61.126,530.362 61.126,526.234 63.207,522.629L137.399,394.125C139.481,390.519 143.055,388.456 147.219,388.456L295.413,388.456C299.577,388.456 303.151,390.519 305.233,394.125Z" style="fill:none;stroke:rgb(255,0,0);stroke-width:0.22px;"/>
        </g>
        <g transform="matrix(1,0,0,1,-100.723,-43.6098)">
            <path d="M202.418,649.243L240.214,649.243L240.214,660.582L202.418,660.582L202.418,649.243Z" style="fill:none;stroke:rgb(255,0,0);stroke-width:0.22px;"/>
        </g>
        <g transform="matrix(1,0,0,1,-100.723,-43.6098)">
            <path d="M316.608,605.136L335.506,572.405L345.326,578.074L326.428,610.805L316.608,605.136Z" style="fill:none;stroke:rgb(255,0,0);stroke-width:0.22px;"/>
        </g>
        <g transform="matrix(1,0,0,1,-100.723,-43.6098)">
            <path d="M335.506,484.191L316.608,451.46L326.428,445.791L345.326,478.522L335.506,484.191Z" style="fill:none;stroke:rgb(255,0,0);stroke-width:0.22px;"/>
        </g>
        <g transform="matrix(1,0,0,1,-100.723,-43.6098)">
            <path d="M240.214,407.353L202.418,407.353L202.418,396.015L240.214,396.015L240.214,407.353Z" style="fill:none;stroke:rgb(255,0,0);stroke-width:0.22px;"/>
        </g>
        <g transform="matrix(1,0,0,1,-100.723,-43.6098)">
            <path d="M126.024,451.46L107.126,484.191L97.306,478.522L116.204,445.791L126.024,451.46Z" style="fill:none;stroke:rgb(255,0,0);stroke-width:0.22px;"/>
        </g>
        <g transform="matrix(1,0,0,1,-100.723,-43.6098)">
            <path d="M107.126,572.405L126.024,605.136L116.204,610.805L97.306,578.074L107.126,572.405Z" style="fill:none;stroke:rgb(255,0,0);stroke-width:0.22px;"/>
        </g>
        <g transform="matrix(1,0,0,1,-100.723,-43.6098)">
            <path d="M171.02,505.806L144.835,490.688L150.504,480.869L176.69,495.987L171.02,505.806Z" style="fill:none;stroke:rgb(255,0,0);stroke-width:0.22px;"/>
        </g>
        <g transform="matrix(1,0,0,1,-100.723,-43.6098)">
            <path d="M176.69,560.609L150.504,575.727L144.835,565.908L171.02,550.79L176.69,560.609Z" style="fill:none;stroke:rgb(255,0,0);stroke-width:0.22px;"/>
        </g>
        <g transform="matrix(1,0,0,1,-100.723,-43.6098)">
            <path d="M226.985,583.101L226.985,613.337L215.647,613.337L215.647,583.101L226.985,583.101Z" style="fill:none;stroke:rgb(255,0,0);stroke-width:0.22px;"/>
        </g>
        <g transform="matrix(1,0,0,1,-100.723,-43.6098)">
            <path d="M271.612,550.79L297.797,565.908L292.128,575.727L265.942,560.609L271.612,550.79Z" style="fill:none;stroke:rgb(255,0,0);stroke-width:0.22px;"/>
        </g>
        <g transform="matrix(1,0,0,1,-100.723,-43.6098)">
            <path d="M265.942,495.987L292.128,480.869L297.797,490.688L271.612,505.806L265.942,495.987Z" style="fill:none;stroke:rgb(255,0,0);stroke-width:0.22px;"/>
        </g>
        <g transform="matrix(1,0,0,1,-100.723,-43.6098)">
            <path d="M215.647,473.495L215.647,443.259L226.985,443.259L226.985,473.495L215.647,473.495Z" style="fill:none;stroke:rgb(255,0,0);stroke-width:0.22px;"/>
        </g>
        <g transform="matrix(1,0,0,1,-100.723,-43.6098)">
            <path d="M221.316,520.172C225.804,520.172 229.442,523.81 229.442,528.298C229.442,532.786 225.804,536.424 221.316,536.424C216.828,536.424 213.19,532.786 213.19,528.298C213.19,523.81 216.828,520.172 221.316,520.172Z" style="fill:none;stroke:rgb(255,0,0);stroke-width:0.22px;"/>
        </g>
    </g>
</svg>
