<?xml version="1.0" encoding="utf-8"?>
<!-- Generator: Adobe Illustrator 25.2.0, SVG Export Plug-In . SVG Version: 6.00 Build 0)  -->
<svg version="1.1" id="Layer_1" xmlns="http://www.w3.org/2000/svg" xmlns:xlink="http://www.w3.org/1999/xlink" x="0px" y="0px"
	 viewBox="0 0 850.4 257.3" style="enable-background:new 0 0 850.4 257.3;" xml:space="preserve">
<style type="text/css">
	.st0{font-family:'GoldenHillsDEMORegular';}
	.st1{font-size:45.0374px;}
	.st2{fill-rule:evenodd;clip-rule:evenodd;fill:#000001;}
	.st3{font-size:32.6138px;}
	.st4{font-size:45.0371px;}
	.st5{font-size:49.9789px;}
	.st6{fill:#000001;}
	.st7{font-size:49.979px;}
</style>
<g>
	<text transform="matrix(0.6518 0.3807 -0.5216 0.8532 688.9954 126.4663)" class="st0 st1">Yourname</text>
	<path class="st2" d="M821.1,147.4c0-0.3,0-0.5,0-0.8c-0.6-23.5-12.7-44.1-30.9-56.5c0.6-0.2,1-0.3,1.2-0.4c0,0,0,0,0,0
		c3.6-1.6,7.3-4.3,10-7c6.5-7.9-1.2-16.5-1.2-24.8c0-7,3.7-14.5,0.6-21.6c-1.8-4.7-6.3-6.8-11.3-7c-4.5-0.1-8.9,1.1-12.1,3.2
		c-3.2,2.1-18.8,17.9-19.1,17.9c-0.2-1-0.7-1.8-1.5-2.4c-0.7-0.5-1.6-0.9-2.5-0.9h-4.5c-0.7,0-1.4,0.2-2,0.5c-0.9,0.5-1.8,1.5-1.8,2
		c-5-6.8-11-14-17.5-19c-3-2.3-7.4-3.9-11.8-4.1c-5.1-0.1-9.7,1.6-11.8,6.1c-3.6,6.8-0.5,14.6-1,21.6c-0.6,8.2-9,16.3-3,24.6
		c3.3,3.9,6.9,7.3,11.8,9c0,0,0,0,0,0c0.2,0.1,0.3,0.2,0.6,0.3c-20.3,12.5-33.9,34.9-33.9,60.4c0,15.2,4.8,29.3,13,40.9
		c0.6,0.8,1.2,1.7,1.8,2.5c6,7.7,13.5,14.1,22.1,18.8c1.2,0.6,2.3,1.2,3.5,1.8c9.2,4.4,19.5,6.8,30.4,6.8c6.7,0,13.1-0.9,19.2-2.6
		c1-0.3,2-0.6,3-0.9c4.3-1.4,8.3-3.2,12.2-5.4c0.9-0.5,1.7-1,2.6-1.5c20.3-12.5,33.8-34.8,33.8-60.4
		C821.1,148.2,821.1,147.8,821.1,147.4z M787.3,34.2c5.7-1.8,8,2.6,5.4,8.2c-6.7,5.8-15.3,9.2-24.2,9.5
		C771.8,43.5,778.7,37,787.3,34.2z M774.3,95.6l-2.3,1.5l-0.4-6.7c0.4,0.1,0.8,0.3,1.2,0.5c0.4,0.2,0.8,0.3,1.2,0.5L774.3,95.6z
		 M769.9,97.2l-4-2l0.1,2.3c0,0,1.3,0.7,2.2,1.1l-1.8,1.1c-1.1-0.6-2.2-1.1-3.3-1.7c-1.1-0.6-2.2-1.1-3.3-1.7l-0.1-2.1
		c0.9,0.4,2.2,1.1,2.2,1.1l2-1.3l-4-2l5.6-3.7c1.2,0.3,2.4,0.6,3.5,1c0.3,0.1,0.7,0.2,1,0.3l-0.6,0.4L769.9,97.2z M750,103.4
		c1.9,1,3.9,2,5.8,2.9c-0.1,0.5-0.1,1,0.1,1.5c-1.8,1.2-3.6,2.4-5.5,3.6l2.1-4.1L750,103.4z M750.8,102l4.6-0.2l2.1-4.2
		c0.1,2.2,0.2,4.4,0.4,6.5c-0.1,0-0.3,0.1-0.4,0.2c-0.2,0.1-0.3,0.2-0.5,0.3c-0.1,0.1-0.2,0.2-0.4,0.3
		C754.6,103.9,752.7,102.9,750.8,102z M756.8,109.2c0.2,0.2,0.4,0.3,0.6,0.4c0.1,0.1,0.2,0.1,0.4,0.2c0.1,0,0.2,0.1,0.3,0.1
		c0,0,0,0,0.1,0c0.1,2.2,0.2,4.3,0.4,6.5l-2.5-3.9l-4.7,0.3C753.1,111.5,755,110.4,756.8,109.2z M757.7,87.1c-0.2,0-0.3-0.1-0.4-0.2
		c0.2,0,0.4,0.1,0.6,0.1C757.8,87.1,757.8,87.1,757.7,87.1z M759.4,87.3c1.1,0.2,2.1,0.3,3.2,0.6c0.1,0,0.2,0,0.3,0.1l-4,2.6
		l-0.2-2.8L759.4,87.3z M760.6,109.2c0.1-0.1,0.2-0.2,0.3-0.3c0,0,0,0,0,0c1.9,1,3.9,2,5.8,2.9l-4.6,0.2l-2.1,4.2
		c-0.1-2.2-0.2-4.4-0.4-6.5C760,109.6,760.4,109.5,760.6,109.2z M759.6,104c-0.1,0-0.1,0-0.2,0c-0.1-2.2-0.2-4.3-0.4-6.5l2.5,3.9
		l4.7-0.3c-1.8,1.2-3.6,2.4-5.5,3.6c-0.2-0.2-0.4-0.3-0.6-0.4c-0.1,0-0.2-0.1-0.3-0.1C759.7,104.1,759.7,104.1,759.6,104z
		 M761.7,107.5c0.1-0.5,0.1-1-0.1-1.5c1.8-1.2,3.6-2.4,5.5-3.6l-2.1,4.1l2.5,3.8C765.6,109.4,763.6,108.5,761.7,107.5z M778,93.1
		l-1.8,1.2l-0.1-2.1c0.2,0.1,0.4,0.2,0.6,0.3C777.1,92.7,777.6,92.9,778,93.1z M772.7,80.5l0.3,0.5c0,0-0.1,0.2-0.1,0.4
		c-3-1-6.1-1.8-9.3-2.4c-0.4-0.7-0.8-1.4-1.2-2.2c0-0.1-0.1-0.2-0.1-0.2c-1.4-2.6-2.4-5.6-3.2-8.5L772.7,80.5z M749.8,53.1
		c0.7-0.6,1.5-0.9,2.4-0.9c0.9,0,1.7,0.4,2.4,1.1c0.6,0.6,0.9,1.5,0.9,2.4c0,0.9-0.4,1.7-1.1,2.4c-0.7,0.6-1.5,0.9-2.4,0.9
		c-0.9,0-1.7-0.4-2.4-1.1c-0.6-0.6-0.9-1.5-0.9-2.4C748.8,54.6,749.2,53.7,749.8,53.1z M712.7,39.4c-2.1-5.7,0.4-10,6-7.7
		c8.4,3.4,14.8,10.4,17.4,19C727.2,49.8,719,45.8,712.7,39.4z M744.7,67.8c-1.1,3.2-2.4,6.3-4.2,9c0,0.1-0.1,0.1-0.1,0.2
		c0,0-0.1,0.1-0.1,0.2c-0.2,0.3-0.7,0.9-1.2,1.6c-3.3,0.5-6.4,1.3-9.5,2.2l-0.1-0.4l0.9-1.3L744.7,67.8z M725.4,91.8l-2.3,3.7
		l-3.6-0.7c0.7-0.4,1.5-0.8,2.2-1.2C722.9,92.9,724.2,92.3,725.4,91.8z M690.6,147.1c-1,1.6,1.2,2.2,1.3,2.3c0,0-0.1,0-0.1,0.1
		c-0.4,0.3-0.9,0.5-1.4,0.3c-1.7-0.6-1.8-3.6-0.3-4.9c2.2-1.9,4.3-1.1,6.3,0.4c0.7,0.6,1.1,1.6,1.3,2.5c0.8,2.6-0.6,6.2-1.9,8.2
		c-0.7,1.1-0.6,0.9-1.1,2.4c-1.2,3.7,0.2,9.1,1.5,12.9c1,2.8,2.2,4.6,2.5,5.3c-0.5,0-0.7-0.1-1.4,0c-0.9,0.1-1.6,0.2-2.3,0.3
		c-4.1-8-6.6-17-6.8-26.5c0.6,0.6,1.5,1.1,2.5,1.2c1.2,0.1,2.6-0.9,3-1.5C695.7,146.9,691.7,145.3,690.6,147.1z M704,175.3
		c0.2,1.5,2.2,1.8,3.3,0.6c0.5-0.5,0.4-0.4,1.3-0.5l0.6,4.9l1.2-0.2l0.3,0.4c0,0,0,0.1,0.1,0.1l0.8-0.1l0.1,0.5l1.1-0.1
		c-0.1-1.4,0,0.3,0.7-1.2l1.2-0.2c0.1,0.6,0,0.9,0.1,1.6c2.5-0.3,1.9-1.3,3.2-1.8c0.2,1.9-4.4,4.5-5.6,5.2c-1.6,1-0.6,2.7,2.4,0.8
		c0,0.9-0.3,1-0.1,2.2c0.9-0.1,1.2-0.2,1.7-0.5c0.6-0.3,0.7-0.6,0.9-0.7c0.1,0,0.2-0.2,0.2,0l0.1,0.3c0,0.4-1,1.7-1.2,2
		c-0.6,0.6-1.4,1.3-2.2,1.6c-2.4-2.7-2.8-3-5.1-5.2c-1.9-1.9-5.9-5.5-6.7-7.9c-1.3-3.6,0.7-5.2,2.3-4.1
		C704.3,173.9,703.8,174.3,704,175.3z M719.8,200.7c-0.3,0.4-0.6,0.9-0.8,1.5c-0.2-0.1-0.5-0.3-0.7-0.4c0.7-1,1.6-2,2.3-2.3
		L719.8,200.7z M718.4,198.6c-0.4,0.3-0.8,0.7-1.1,1c-0.2-1.2,0-2.5-0.7-4.3c-0.2-0.5-0.4-0.7-0.4-1.3c0.8-0.5,1.6-0.7,2.5-1.7
		c0.3,0.3,1,1.2,1.2,1.6c0.7-0.2,1.4-0.7,2.1-0.8c0.1,0.7,0,0.9,0.1,1.5c0.1,0.6,0.2,0.8,0.4,1.6C720.8,197.1,720.5,197,718.4,198.6
		z M721.5,162.6l-0.6-0.9c1.3-1.2,3.3-2.1,5.1-2.3c-0.4,0.4-0.9,0.5-1.3,0.7c-1,0.5-1.4,0.9-2.2,1.6
		C722,162,721.9,162.3,721.5,162.6z M723.9,159C723.9,159,723.8,159,723.9,159c-0.1,0.1-0.2,0.1-0.2,0.1c-2.5,1.2-3.3,0.7-6.2,4
		c-0.4,0.5-1.5,2.3-1.4,2.9c0.9-0.2,1.5-1.9,2.3-2.2c0.3,2.5-2.8,4.2-3.2,4.6c0.2,0.2,0.3,0.5,0.4,0.8c0.9-0.1,1.3,0,2.3-0.2
		c0,1.3-1.7,1.8-2.2,2.1l-0.6,0.6c-0.8,0.7-0.8,0.4-0.9,0.9c0.4,0.5-0.2,0.4,1.5,0.2c-0.1,1.1-0.3,1.1-0.3,1.7
		c1.5,0.8,1.1-0.3,2.1-0.7c0.4,0.6,0.5,0.8,0,1.4c-0.7,0.9-2.4,2-3.4,2.7l-0.4-3l1-0.1c-0.1-0.5-1.3-2-1.7-2.4c-0.5,0-1.1,0.2-1.5,0
		c0.2-0.6,0.6,0,1.4-1c0.4-0.5,0.5-0.8,0.6-1.5c0.1-0.8-0.2-1.3-0.4-1.8c-0.1-0.2-0.3-0.5-0.4-0.7c-0.2-0.3-0.3-0.2-0.4-0.7
		c0.4-0.9,1.2-1.5,1.6-2C716.4,161.6,719.9,159.4,723.9,159C723.9,159,723.9,159,723.9,159z M713.1,176.9l0.3,2l-0.1,0l-0.8,0.1
		l-0.1,0l-0.3-2L713.1,176.9z M711.7,176.4l-0.1-1.1l1.5-0.2l0.1,0.6l0.1,0.5L711.7,176.4z M711.5,171.2c-0.6-0.1-0.1-0.1-0.4-0.2
		c-1.5-0.4-1,1.5-2,0l0.5-0.2c0.5-0.2,0.6,0.1,0.4-1.1c-0.6-0.2-1.1-0.6-1.8,0c-0.6,0.6-0.5,2,0.4,2.4c0.3,0.2,3.2,0.3,0.1,0.7
		c-0.3,0.5-0.4,1-0.8,1.4c-0.1-0.9,0-1-0.5-1.6c-0.4-0.4-0.6-0.5-1-0.7c-0.2-1.4-0.1-2.6,0.4-3.5c0.9-1.4,1.4-1.5,2.7-1.6
		C711.3,166.7,713.6,169.8,711.5,171.2z M711.2,177.2l0.3,2.1l-1.1,0.1l-0.3-2L711.2,177.2z M709.6,176.7l-0.2-1.1l0.7-0.1l0.4,0
		l0.4,0l0.1,1.1L709.6,176.7z M704.2,183l3.8,4.1c-0.5,0-1-0.3-1.5-0.4c-1.7-0.5-3.9-0.9-5.9-1c-0.6-0.9-1.3-1.7-1.8-2.6
		c-0.4-0.6-0.8-1.3-1.2-1.9c-0.1-0.3-0.2-0.6-0.5-0.8c-0.3-0.6-0.7-1.1-1-1.7c0.3,0,0.6,0,1,0.1c0.6,0.1,1,0.1,1.5,0.3
		C700.5,179.6,702.8,181.6,704.2,183z M707,193c-0.1-0.1-0.2-0.2-0.2-0.2c-0.3-0.2-0.5-0.5-0.7-0.7c-1.2-1.2-2.3-2.4-3.4-3.7
		c-0.2-0.2-0.4-0.5-0.6-0.7c0.7,0,1.3,0.1,1.8,0.2c1.3,0.3,4.4,2,5.7,3c1.6,1.2,3.3,3,3.8,5c0.2,1,0.4,2,0.5,3c-1.4-1-2.7-2-3.9-3.1
		C708.9,194.8,707.9,193.9,707,193z M731.6,207.8c-0.3-0.1-0.5-0.2-0.8-0.3c-1.3-0.4-2.6-0.9-3.9-1.5c-1.9-0.8-3.8-1.7-5.6-2.6
		c-0.3-0.1-0.5-0.3-0.8-0.4c0.5-0.8,1.2-1.7,2-2.6c1.9-2.1,5.8-3.3,9.2-3.1c1.6,0.1,2.4,0.4,3.8,1.1c3.3,1.5,7.1,4.3,7.6,8.3
		c0.2,1.4-0.2,2.5-0.9,3.4c-0.8-0.1-1.6-0.2-2.4-0.4c-0.7-0.1-1.3-0.3-2-0.4c0.3,0,0.6-0.1,0.9-0.2c1.2-0.4,1.5-1,1.6-2.3
		c0.2-3.7-5-4.6-6.6-1.3c-0.4,0.8-0.6,1.7-0.5,2.6C732.5,208,732.1,207.9,731.6,207.8L731.6,207.8z M731.1,182.6
		c-0.5-0.5-0.4-0.4-0.5-1.2l1.1-0.1l0.2,0.5l1.2-0.2c-0.2,0.7,0.3,1.4,0.7,1.8c0.7-0.2,0.5-0.4,1.1-0.7c-0.1,1.5-0.9,1.9-2.4,2.5
		c-1.5,0.6-2.6,0.2-2.9-1.5c1,0,1.4,0.4,2.4-0.3C731.8,183.2,731.4,182.9,731.1,182.6z M729.7,190.6c0.5,0.3,1.3,0.6,1.9,0.9
		c0.8-0.7,0.6-1.1,0.8-1.5c0.2-0.4,0.2-0.3,0.8-0.5c0.4-0.1,0.6-0.1,1-0.2c-0.4,0.8-1.7,2.4-2.2,2.5c-1.1,0.4-2.3-0.5-3.4,1.5
		c0.4,0.5,1.2,0.6,1.6,1l-3.8,0.5l-0.3-2c0.4,0.1,1.1,0.3,1.6,0.4L729.7,190.6z M741.8,175.1c0.7-0.1,0.7-0.1,1.2-0.3l-0.3,1.3
		c-0.8-0.3-2.8-0.9-3-1.8c1.8-0.7,2.2-0.3,2.4-1.3c0.2-0.8,0.5-1.1,1.9-1.6c-0.6,1.6-0.3,2.1-2.5,3L741.8,175.1z M750.7,202.4
		c1.2,0.6,3.3,3,3.3,4.9c0,1.1-0.7,1.9-1.5,2.4c-1,0.6-2.2-0.1-2.9-0.4l-0.1-1.1c0.2,0,2.8,1.3,3-0.6c0.6-3.5-3.5-3.7-4.7-0.9
		c-0.7,1.8-0.2,3.1,0.9,3.9c-1.5,0-3-0.1-4.5-0.3c0.3-0.4,0.5-0.8,0.7-1.3c1.3-3.3-1.6-7.9-3.9-9.7c-0.4-0.3-0.8-0.6-1.1-0.9
		C742.1,198.6,748.7,201.4,750.7,202.4z M745.9,187.7c0.9,0.2,1.2,0.1,2.4,0c0.1,1.4-1.7,2.3-2.8,2.6c-0.3,0.1-0.3,0.1-0.6,0
		c-0.4-0.2-0.8-0.7-0.9-1.2c0.4,0.1,1.6,0.3,2.2,0.2C747,189.2,746.1,189.1,745.9,187.7z M744,194c1.3,0.5,2.4,1.2,4.3,1
		c-0.2-0.9-1.3-1.6,0.3-1.4c0.9,0.1,2.1-0.1,2.6-0.6l-3.9-1.4c0,0,0.1-0.1,0.1-0.1c0.1,0,3-1.2,4.2-2.2c1.9-1.5,0.4-1.3,3.1-1.3
		c1.2,0,4.6-0.6,5.8-0.9c2.2-0.7,0.6-0.6,2.5-0.4c2.1,0.2,1.2-0.6,3.9-0.9c-0.2,0.4-2.4,1.9-3,2.1c-0.2,0.1-1.4,0.4-1.4,0.5
		c-0.5,0.4-0.4,2.6,4.1-0.5c0,0.6-0.3,0.7-1.2,1.4l0.2,1.2c0.3-0.1,0.5-0.3,0.8-0.5c0.1,1-0.2,2.2,0.9,3.5c2,2.2,5.1,0.9,5.5-0.6
		c0.7-2.8-2.2-4-3.1-2.2c-0.6,1.3,0.6,1.2,0.9,1.9c-0.3,0.1-0.4,0.2-0.6,0.4c-0.5-0.2-1-0.4-1.2-1c-0.5-1.4-0.1-2.3,0.9-3.1
		c2.7-2.2,6.3-0.4,6.6,1.9c0.3,2.3,0.5,1.9-0.7,3.9c-0.3,0.4-0.4,0.7-0.7,1c-1,1.2-2.4,2.3-3.9,3c-3.4,1.6-8,2.5-11.8,2.3
		c-0.4,0-0.9,0-1.3-0.1c-0.5-0.1-0.8-0.2-1.4-0.1c0.3-0.3,1-0.7,1.4-1.4c2.5-4-2.8-7.7-5.8-4.8c-1.1,1-0.5,3,1.7,2.8
		c0.5-0.1,0.7,0,1-0.6c0.3-0.6-0.2-0.4,0.5-0.7c0.1-0.1-0.1-0.2,0.5-0.2c0.8,0.1,1.9,2.2-0.6,3c-1.9,0.6-3.8,0.6-5.4,0.4
		c-1-0.1-1.4-0.2-2.3-0.5l-4.4-1.4c-1.1-0.5-1.1-0.3-1.4-1.9c0.5,0.1,0.7,0.3,1,0.3c0.4-0.1,0.4-0.5,0.6-0.9
		C743.6,194.6,743.8,194.4,744,194z M771.7,184.8c0.1-0.3,0.2-0.6,0.3-0.9c0.1-0.4,0.1-0.5,0.6-0.6c0,0,0,0.1,0.1,0.1l0.2,0.7
		l0.6-0.1c-0.1,0.9-1.1,0.6-1.3,1.4c0.5,0.5,0.9,0.2,1.5-0.2l0.1,0.7l-2,0.3c-3.1,0.4-1.4,0.3-2.5,0.7l1.4-3.2l0.8-0.1
		c-0.2,0.4-0.6,0.9-0.7,1.3L771.7,184.8z M735.3,205.8c1-0.1,2-0.5,2.5,0.1c-0.3,0.2-2.1,0.3-1.8,2.2c0.1,0.5,0.4,0.9,0.8,1.1
		c-0.8-0.2-1.5-0.4-2.3-0.6C734.4,207.7,734.8,206.6,735.3,205.8z M772.8,206.5c-1.3,0.5-2.6,1-4,1.4c-0.6,0.2-1.3,0.4-1.9,0.6
		c-2.7,0.8-5.6,1.3-8.4,1.7c-1.3,0.2-2.6,0.3-4,0.4c0.9-0.8,1.4-2,1.2-3.8c-0.1-0.9-0.2-1.3-0.5-2.1c-0.2-0.6-0.6-1.3-0.7-1.9
		c0.5-0.1,0.7,0,1.2,0l3.7,0c2.7,0,8-0.7,10.5-1.5c3.4-1.1,3.6-2.6,7.8-3.9c3-0.9,6.4-1.3,8.2,1.9c0,0,0,0.1,0,0.1
		c-0.8,0.5-1.5,1.1-2.3,1.6c-0.1,0-0.1,0.1-0.2,0.1c-0.2-0.3-0.4-0.6-0.7-0.9c-1.3-0.9-4.1-0.9-4.5,2.1c-0.1,0.7,0,1.2,0.1,1.7
		c-0.2,0.1-0.4,0.2-0.6,0.3C776.2,205,774.5,205.8,772.8,206.5z M780.4,202.9c0-0.1,0-0.2,0.1-0.2c0,0,0.1,0.1,0.1,0.1
		C780.5,202.8,780.4,202.8,780.4,202.9z M812.3,151.3L812.3,151.3c-0.1,2.9-0.4,5.7-0.9,8.5c-2.2,12.3-8.1,23.3-16.5,32
		c-0.8,0.9-1.7,1.7-2.6,2.5c-1.4,1.3-2.9,2.6-4.5,3.8l-0.5-0.7c-1.5-1.6-3.7-2.9-6-2.5c-1.1,0.2-2.3,0.3-3.4,0.4
		c0.2-2.2,1.2-3,0-5.7c-0.7-1.7-2-2.6-3.4-3.3l-0.2-1.1c0.6,0.2,0.9,0.6,1.7,0.5c-0.4-0.9-1.5-0.8-1.8-1.9l0.9,0.2l0-0.8
		c0.4,0,0.6,0.1,1,0.2l0.2,1.2l0.7-0.3c0,0,0-0.1,0-0.1c0,0,0-0.1,0-0.1c0-0.2,0-0.4-0.1-0.5c1.1,0.5-0.1,1.1,1,1.1
		c0.3-0.1,0.2-0.5,0.3-0.7c0.4,0.2,0.6,0.2,1.1,0.3c-0.2-0.4-0.7-0.8-1-1.1c1-0.8,0.5-1.2-0.4-0.6c-0.5,0.4-0.4,0.3-1,0.2l0.7-1.2
		c-1.4,0.2-1.2,0.7-1.8,0.8l-0.6-0.1c0.2-0.4,0.3-0.2,0.3-0.7l-0.4-0.1c-0.1-0.1-0.2-0.1-0.2,0c0,0,0-0.1-0.1-0.2
		c0.5-0.3,1.6-0.3,2.3-0.4l-0.1-0.9l-1.1,0.1c0.2-0.5,0.6-0.4,1.3-0.5c-0.1-0.8,0.1-0.6-0.5-0.6c0-0.4,0.2-0.6,0.3-0.8l-0.6-0.4
		c-0.3,0.2-0.4,0.3-0.6,0.6c0,0,0-0.1,0-0.1c0,0,0-0.1-0.1-0.1c0,0-0.1-0.1-0.1-0.1c-0.2-0.2,0-0.2-0.4-0.1c-0.1,0.2,0,0-0.1,0.3
		c0,0.1,0,0.1,0,0.1c0,0,0,0.1,0,0.1l-0.2,1.3c0,0-0.1-0.1-0.1-0.2l-0.7-1c-1,0.4,0,1.4,0.3,2.2c-0.2,0.1-0.2,0.3-0.4,0.4l-0.4-0.6
		c-0.6,0.3-0.1,0.3-0.7,0.5c-0.4-1,0.1-1,0-2.1c-0.4-0.1-0.2,0-0.6-0.2c-0.5,0.5-0.2,0.5-0.7,0.9c-0.4-1.1,0.4-0.6-0.3-1.5l-0.4,0.4
		c0,0,0,0.1-0.1,0.1l-0.1,0.2c-0.2-0.2-0.8-0.5-1.2-0.5c0.1,0.4,0,0.2,0.2,0.6c0.2,0.4,0.1,0.2,0.2,0.3c-0.3,0.3-0.4,0-0.4,0.6
		c0,0,0.1,0,0.1,0l0.3,0c0.6,0,0.8,0.1,1.3,0.7c-0.2,0-1.2,0.1-1.3,0.1l0,0.6c0.6,0.3,1.6-0.1,2.2-0.2l0.1,1l-0.9,0.1l0.5,0.5
		c-0.8,0.1-1.5-0.5-2.2-0.8c-0.2,0.2-0.4,0.4-0.6,0.6c0.4,0.5,0.8,0.5,1.1,0.8c-1.3,0.2,0-0.5-1.7-0.3c0.1,0.3,0.2,0.4,0.4,0.6
		c-0.6,0.1-0.9,0.3-1.8,0.4c-0.8,0.1-1,0-1.8,0.1l-0.2-2.5c-0.2-1.3-0.8-2.7-1.5-3.7c-0.5-0.7-0.8-0.8-0.9-1.7
		c0.4-0.3,0.8-0.5,1.2-0.8c0.3-0.2,0.4-0.2,0.6-0.4l0.6-0.4c-0.1-0.9,0.1-1.2-0.7-1.3c-0.5,0-1.1,0-1.7,0.1
		c-1.4,0.2-1.4-0.5-3.1-0.3c-0.1-1.1,0.1-1.7-0.9-1.5c-0.1,0.3-0.1,0.8-0.2,1c-0.1-0.2-0.1,0-0.2-0.3c-0.2-0.5-0.3-1.5-0.1-1.9
		c0.2-0.4,2-2.2,2.3-2.6c0.2-0.3,0.3-1.5,0.3-2l-1.1,0.1c0.1,0.4,0,0.6,0,1c0,0.7,0.2,0.3-0.2,0.7c-0.2-0.2-0.2-0.6-0.3-0.9
		c-1.1,0.1-1,0.4-1.5,1.3c-0.3-0.1-0.3-0.3-0.7-0.2c-0.7,0.1-0.2,0-0.4,0.2l-0.1,0.3c-0.3-0.4-0.2-0.4-0.6-0.6
		c-0.4,0.2-0.5,0.2-0.8,0.5c0.2,0.4,0.7,0.9,1,1.1c-0.2,0.4-0.7,1.5-1,1.8c-0.7-0.3-1.6-1.4-2.1-0.4c0.3,0.7,2.6,2.1,3.3,2.8
		c0.8,0.8,0.4,0.2,0.8,1.3c0.4,1.2,1.2,0.3,1.7,1.5c0.5,1.1,1.5,2.7,1,4c-0.8,1.8-4.1,2.5-6,2.7c-5.3,0.7-5.7,0.9-6-1.6
		c-1.7,0.4-0.6,2.6,0.2,3c-0.2,0.3-0.2,0.3-0.3,0.7c-0.1,0.6,0.1,0.6-0.4,0.9c0,0-0.2,0.1-0.2,0.1c-1.3,0.5-5.3-0.9-5.7-2.8
		c1.2-0.1,0.8,1.1,2.9,0.9c-0.2-0.3-0.3-0.5-0.4-1.1c0.9-0.1,1.3-0.1,2-0.4c-0.2-1.3-0.3-0.9-1.4-1.1c-0.6-0.1-1.2-0.3-1.7-0.5
		c-1.2-0.5-2.1-1.2-2.3-2.4c0.5,0,0.5,0.1,0.9,0.2c1,0.3,0.5,0.1,0.7,0l0.2-0.1c0.5-0.5-0.4-1-0.6-1.4l1.1-0.1
		c0.1-0.6,0.1-0.3-0.1-0.8c1.1,0.1,0.3-0.1,1-1.1c0.2,0.3,0.4,0.5,0.6,0.8c0.2-0.2,0.4-0.3,0.6-0.6c-0.2-0.6-0.9-1.1-0.8-1.7
		c0-0.2,0.4-1.5,0.5-1.8c1.7,1.8,0.7,2.9,0.8,3.6l0.9,0.3c0.4-0.4,0.1-0.3,0.5-0.6c0.1,0.3,0.2,0.5,0.4,0.8c0.5-0.2,0.5-0.2,0.9-0.5
		c-0.3-0.4-0.4-0.8-0.7-1.1c0.7,0,0.7,0.2,1.4,0.1l-0.1-0.8c-0.4,0-1.7-0.3-1.9-0.5c-0.3-0.2-0.9-1.4-1-1.7c2.6,0.2,2.1,1,2.8,2
		l0.8-0.1c-0.1-0.6-0.1-0.7-0.3-1.1c0.5,0.2,1,0.3,1.6,0.4c0.2-0.3,0.2-0.4,0.3-0.7c-0.4-0.2-0.5-0.2-1-0.3c0.2-0.4,0.4-0.4,0.5-0.8
		l-0.5-0.5c-0.6,0.2-1.4,0.8-2,0.7c-0.6-0.1-1.3-0.5-2-0.4l1.1-0.7c0.4-0.2,0.7-0.4,1.1-0.4c0.7,0,1.8,0.8,1.9-0.4l-0.8-0.2
		c0.4-0.3,0.9-0.5,1.3-0.9c-0.2-0.4-0.2-0.5-0.5-0.7c-0.4,0.1-0.6,0.2-0.9,0.4c0-0.3,0.1-0.4,0-0.8l-0.8,0.1
		c-0.2,0.4-0.2,0.5-0.4,0.9c-0.2,0.6-0.1,0.4-0.5,0.7c-0.5,0.3-1.3,0.7-1.8,0.9c0-0.5,0.2-0.7,0.3-1.2c0.1-0.5,0.2-0.7,0.3-1.1
		l1.8-0.2l-0.2-1.1l-1.3,0.4c0.1-0.3,0.3-0.9,0.2-1.3c-0.3-0.1-0.4-0.2-0.8-0.2c0,0.4-0.2,0.7-0.3,1l-0.7-0.5
		c-0.4,0.2-0.2,0.3-0.6,0.6c1.8,2.1,0.5,0.8,0.3,3.4c0,0,0-0.1-0.1-0.1c0,0,0-0.1-0.1-0.1c-1.3-1.8-1.2-1.7-0.4-3.4
		c-0.4-0.2-0.4-0.3-0.9-0.4l-0.4,0.9c-0.1-0.1-0.1,0-0.3-0.3c-0.5-0.7-0.4-1.2-1.3-0.5c0.1,0.4,0.5,1.1,0.7,1.4
		c-0.5,0-0.8-0.2-1.4-0.1c-0.1,0.3-0.1,0.4-0.2,0.7c0.5,0.2,1.7,0.3,2.1,0.5c0.3,0.2,1,1.4,1.1,1.7c-0.7-0.1-2-0.4-2.6-0.6l-0.2-1.2
		l-0.7,0.1l0,1c-0.4-0.1-1.1-0.4-1.6-0.3c-0.1,0.2-0.2,0.5-0.3,0.7c0.5,0.2,0.6,0.1,1.2,0.4c0,0-0.1,0.1-0.1,0.1l-0.4,0.6l0.6,0.4
		c0.8-0.3,1.1-0.9,1.8-0.7c0.7,0.2,1.1,0.4,1.9,0.5c-0.2,0.4-0.3,0.4-0.8,0.6c-1.1,0.6-1.3,0.4-2.7,0c-0.2,0.4-0.3,0.3-0.3,0.9
		c0.4,0,0.2,0,0.5,0.1l0.5,0.2c-1,0.4-1.3-0.2-1.9-0.9c-0.6-0.7-1.6-2.3-2.3-2.7l-2.3,3.4c-0.6,0.7-0.7,0.5-0.7,1.2l1.4-0.2
		c-0.1,0.6-0.3,0.7-0.6,1.1c-0.2,0.2-0.1,0-0.2,0.3l1.2-0.2c0.4,1-1.3,1.5-2.2,1.8c0.2,1.2,0.5,1.1,1.7,0.6
		c-0.1,0.8-0.6,0.6-0.9,1.4c0.4,0.4,0.9,0.3,1.3,0.5c0,1-1.2,1.8-2.2,1.9l-0.3-0.6c-0.6-1.4-2.6-0.6-3.7-0.7c-1.3-0.1-2.9-1-3.1-2.4
		c0.7,0.3,1,0.6,2,0.4l-0.2-1.8c1-0.2,1-0.1,1.6-0.6l-0.1-0.9c-1.2,0.2-1.9,0.1-2.7-0.3c-0.8-0.4-1.3-0.7-1.5-1.9
		c0.6,0.2,1.2,0.6,1.3-0.4c-0.6-0.2-0.7,0-1.2-0.6c0.8-0.1,1.8,0,1.9-0.9c0.1-0.4-0.2-0.8-0.6-0.8c-1.3-0.1-1.8,0-3.1-0.6l-0.1-1
		c0.4,0.2,0.7,0.3,1.2,0.4c-0.2-1.2-0.3-1.1-0.8-1.9l1.4-0.2c-0.1-0.7,0-0.7-0.4-1c-0.6-0.4-1.9-0.8-2.4-1.4
		c0.4-0.3,0.5-0.4,0.8-0.8c1.5-2,5.6-3.5,8.1-3.8c0,0.6-0.2,0.8-0.2,1.3l1.8-0.2c0.2,0.2,0.4,0.5,0.6,0.8c0.2,0.3,0.3,0.5,0.7,0.6
		c0.2-0.5,0.2-1.2,0.3-1.7l1.9-0.2c-0.2-0.6-0.9-0.9-1.3-1.4c0.3-0.4,0.6-0.8,0.6-1.3l-1.9,0.2l-0.9-1.5c-0.4,0.6-0.3,0.9-0.5,1.6
		c-1.9,0.3-1.5-0.4-1.6,0.5v0.3c-0.9,0.1-1.9-0.2-2.9-0.2c-1.1,0.1-2,0.1-3.3,0.3c-2.1,0.3-4.3,0.8-5.7,1.6c-2.7,1.8-5.6,3.7-7,6.7
		c-0.6,0-0.7-0.1-1.3-0.3c-0.5-0.1-0.9-0.1-1.4,0c-2.8,0.3-4.3,2.5-4.1,5.4c-2.5,0.3-3.7-0.2-5.1,3.4c-1.1-1.2-3.1-7.5-3.4-8.8
		c-0.5-2.6,0.2-6.7,1.8-8.8c1.4-1.8,3.8-2.9,6.2-2.3c0.4,0.1,0.6,0.2,0.9,0.4l0.6,0.4c1.7,1.2,1.1,5.3-1.6,5.8
		c-1,0.2-1.5-0.2-1.7-1.1c2.7,0.9,3.6-2.7,0.5-2.9c-1-0.1-2.2,0.6-2.6,1.3c-0.6,1.2-0.1,3.1,1.1,3.9l0.6,0.3
		c1.8,0.5,3.9,0.1,5.1-1.3c0.6-0.8,0.9-1.7,1-2.6l0.1-1.1c0.1-0.4,0-0.1,0.1-0.3c0,0,0,0.1,0,0.1l0.2,0.3c0,0,0,0.5,0.1,0.2
		c0,0,0,0.1,0,0.1l0.8-0.1l-0.1-1.1c0.4-0.2,0.6-0.4,0.9-0.7l0.2,1.5l0.9-0.1l-0.2-1.9l1-0.7c0.1,1,0.1,0.8,0.8,1.1
		c0-0.1-0.1-0.6-0.1-0.7c0-0.4-0.1-0.2,0.2-0.4c0.1,0.1,0.1,0,0.2,0.3c0.2,0.7,0,1.1-0.4,1.6c-0.1,0.2-0.4,0.6-0.4,0.7
		c0,0.2,0.1,0.7,0.4,0.7c0.7-0.2,0.8-0.7,1.2-1.1c0.2,1.3-0.6,1.2-0.5,2.5c0.9-0.1,0.8-0.2,1.2-0.7l0.4,1c0.4-0.2,0.4-0.7,0.4-1.3
		l1.2-0.2c-0.1-0.9-0.5-0.8-1.5-0.9l-0.1-0.9c0.9,0.3,0.7,0.4,2,0.3c-0.1-0.4,0-0.6-0.4-0.8l-2.1-0.7l-0.1-0.7
		c0.5,0.2,0.1,0.2,0.7,0.2l0.4-0.6c-0.4-0.4-0.4-0.1-0.8-0.6l1-0.1c0.4,0.6,1.1,1.2,1.3,1.9c0.7-0.1,0.5-0.2,1-0.4
		c-0.1-0.6-0.6-1.1-1-1.5l0.9-0.1c0.4,0.5,0.5,0.8,1,1.3l0.8-0.1c-0.2-0.6-0.4-0.5-0.6-1.2l1.4-0.2l-0.1-0.8l-1.1,0.2
		c0.1-0.3,0.2-0.4,0.2-0.9c-2,0.3-0.9,0.8-2.4,1c0.2-0.6,0.6-1.1,0.9-1.6c-0.7-0.2-1-0.4-1.5,0.3c-0.4,0.5-0.6,0.7-0.8,1.3l-1.1,0.1
		c0.1-0.3,0.4-0.3,0.4-0.4c0,0,0.1,0,0.1,0l-0.1-0.8l-0.9,0.4c0.1-0.3,0.1-0.7,0.2-1c2.7-0.4,1.8,0.2,2.4-1.4l-1.7,0.2
		c0-0.5,0.1-0.4,0.2-0.9l1.2-0.2c0-0.4,0.1-0.4,0.2-0.8l-0.8-0.2c0.1-0.3,0.2-0.6,0.2-1c-0.3-0.2-0.4-0.3-0.9-0.3
		c-0.2,0.2-0.1,0.2-0.3,0.5c-0.1,0.2-0.2,0.4-0.3,0.5c-0.3-0.2-0.5-0.3-0.8-0.4l-0.5,0.6c0.3,0.4,0.5,0.6,0.8,1l-0.3,0.7
		c-0.3-0.3-0.7-0.9-1.1-1.1c-0.2,0.1-0.3,0.2-0.5,0.4c0.1,0.7,0.4,0.9,0.7,1.4c0.5,0.7,0.2,0.5,0.2,1.4c-0.4-0.4-0.1-0.7-0.9-0.6
		c0,0,0,0.1,0,0.1s0,0.1,0,0.1l0,0.3c-0.1,0.6,0.3,0.2-0.2,0.5c-0.4-0.5-0.4-2.1-0.5-2.7l-1.1,0.2l0.2,1.3c-0.5-0.1-0.2-0.1-0.7-0.2
		l-0.2-1.8l-0.8,0.1l-0.2,0.6c0,0,0,0.1,0,0.1l-0.4-0.2c-0.7-0.3-1-0.5-1.6,0.2c0.4,0.5,0.8,0.5,1.1,0.8c-0.6,0.1-0.8,0.1-0.1,1.1
		c0.6-0.1,1.1-0.2,1.7,0.1l-0.9,0.3l0.1,1.1c1.3-0.1,1.7-0.2,3-0.1l-0.2,0.2c0,0-0.1,0-0.1,0.1l-0.4,0.4c0.2,0.3,0.4,0.3,0.8,0.4
		c-0.8,1-1.3,0.2-2.8,0c-0.3,0.3-0.4,0.3-0.4,0.7l1.2,0.7c-1.7,1.2-1.7-1.3-3.9-2.3c-0.4-0.2-0.8-0.4-1.2-0.5
		c-0.3-0.1-1-0.2-1.3-0.2c-0.4,0-2.4,0.4-3.2,0.5c0.2-2.5,0.6-5.2-0.9-7.6c-0.9-1.4-2-2.5-3.5-3c-0.2-0.1-0.5-0.2-0.8-0.2
		c-0.2,0-0.2,0-0.4-0.1c0,0-0.2-0.1-0.2-0.1l-0.2-0.1l-3.2,0.4c0,0-0.1,0-0.1,0.1l-0.7,0.3c-0.7,0.3-1.3,0.8-1.8,1.3
		c0.3-4.3,1.1-8.6,2.3-12.6c0.2-0.7,0.4-1.4,0.7-2.1c0.2-0.5,0.3-0.9,0.5-1.4c0.2-0.4,0.3-0.9,0.5-1.3c4.7-12.3,13.3-22.8,24.3-29.9
		l3.4,3.8l-5,7.9l8.7-3.8l5.9,6.6l-0.6-9l8.7-3.8l-9-1.7l-0.4-5.9c3.1-1.2,6.3-2.2,9.6-2.8c0.7-0.1,1.3-0.3,2-0.4
		c3.4-0.6,6.8-0.9,10.3-0.9c1.4,0,2.9,0.1,4.3,0.2l2.1,1.1l0.2,2.8l-7.3-3.7l0.1,2.3l6.2,3.2l-3.7,2.4l2.1,1.1c0,0,1.3-0.8,2.1-1.4
		l0.1,2.1c-1,0.7-2.1,1.4-3.1,2c-1,0.7-2.1,1.4-3.1,2l-1.9-0.9c0.8-0.5,2.1-1.4,2.1-1.4l-0.1-2.3l-3.7,2.4l-0.4-7l-2.1-1.1l0.5,8.2
		l-2.5-1.2l-0.3-4.7l-2.1-1.1l0.3,4.7l-2.6-1.3c0,0-0.2,0.4-0.5,0.9c-0.2,0.5-0.5,0.9-0.5,0.9l2.6,1.3l-3.9,2.6l2.1,1.1l3.9-2.6
		l2.5,1.2l-6.8,4.5l2.1,1.1l5.9-3.8l0.2,4.4l2-1.3c0,0-0.1-1.5-0.1-2.5l1.9,0.9c0.1,1.2,0.1,2.5,0.2,3.7c0.1,1.2,0.1,2.5,0.2,3.7
		l-1.8,1.1c-0.1-1-0.1-2.5-0.1-2.5l-2.1-1.1l0.2,4.4l-6.3-3.2l-2,1.3l7.3,3.7l-2.3,1.5l-4.2-2.1l-2,1.3l4.2,2.1l-2.4,1.6
		c0,0,0.3,0.4,0.6,0.8c0.3,0.4,0.6,0.8,0.6,0.8l2.4-1.6l0.3,4.7l2-1.3l-0.3-4.7l2.3-1.5l0.4,8.2l2-1.3l-0.4-7l4,2l-0.1-2.3
		c0,0-1.3-0.7-2.2-1.1l1.8-1.1c1.1,0.6,2.2,1.1,3.3,1.7c1.1,0.6,2.2,1.1,3.3,1.7l0.1,2.1c-0.9-0.4-2.2-1.1-2.2-1.1l-2,1.3l4,2
		l-5.9,3.8l0.1,2.3l6.8-4.5l0.2,2.8l-3.9,2.6l0.1,2.3l3.9-2.6l0.2,2.9c0,0,0.5,0,1-0.1c0.5,0,1-0.1,1-0.1l-0.2-2.9l4.2,2.1l-0.1-2.3
		l-4.2-2.1l-0.2-2.8l7.3,3.7l-0.1-2.3l-6.2-3.2l3.7-2.4l-2.1-1.1c0,0-1.3,0.8-2.1,1.4l-0.1-2.1c1-0.7,2.1-1.4,3.1-2
		c1-0.7,2.1-1.4,3.1-2l1.9,0.9c-0.8,0.5-2.1,1.4-2.1,1.4l0.1,2.3l3.7-2.4l0.4,7l2.1,1.1l-0.5-8.2l2.5,1.2l0.3,4.7l2.1,1.1l-0.3-4.7
		l2.6,1.3c0,0,0.2-0.5,0.5-0.9c0.2-0.5,0.5-0.9,0.5-0.9l-2.6-1.3c0,0,3.9-2.6,3.9-2.6c0,0-2.1-1.1-2.1-1.1l-3.9,2.6l-2.5-1.2
		l6.8-4.5l-2.1-1.1l-5.9,3.8l-0.2-4.4l-2,1.3c0,0,0.1,1.5,0.1,2.5l-1.9-0.9c-0.1-1.2-0.1-2.5-0.2-3.7c-0.1-1.2-0.1-2.5-0.2-3.7
		l1.8-1.1c0.1,1,0.1,2.5,0.1,2.5l2.1,1.1l-0.2-4.4l6.3,3.2l2-1.3l-7.3-3.7l2.3-1.5l4.2,2.1c0,0,2-1.3,2-1.3c0,0-4.2-2.1-4.2-2.1
		l2.4-1.6c0,0-0.2-0.3-0.4-0.6c0.1,0.1,0.2,0.1,0.3,0.2c0,0,0.1,0.1,0.2,0.1h0c0.8,0.4,1.5,0.9,2.3,1.3c0.8,0.5,1.6,0.9,2.3,1.5
		c0.2,0.1,0.4,0.2,0.6,0.4c12.7,8.6,22.1,21.8,25.7,37.2c0,0,0,0,0,0c-1.1-0.2-5.9-0.8-6.4-1c-0.1-0.6-0.3-1.5-0.3-2.1l2.4-1
		c-0.6-0.4-1.6-0.4-2.2-0.8l-0.4-2.8c-0.3,0.2-1.3,1.7-1.5,2c-0.3,0-2.2-0.6-2.6-0.8l0.5-12.4c-0.1,0.1-0.2,0.1-0.3,0.3l-4.5,5.5
		c-0.1,0.2,0,0-0.2,0.2c0,0-0.1,0.1-0.1,0.1l-3.3,4.2c-0.2-0.1-0.2-0.2-0.5-0.3c-0.5-0.2-1.4-0.5-1.7-0.8l0.2-2.6
		c-0.3,0.1-0.8,0.7-1,1c-0.4,0.4-0.6,0.7-1,1.1c-0.3-0.3-1.7-0.9-2.2-1c0.2,0.7,0.9,1.7,1.1,2.4c-0.4,0.4-1.2,1.5-1.7,1.6
		c-0.4-0.1-2.3-1.4-2.8-1.7l-8.3-5c0.2,0.9,0.8,2.2,1.1,3.1c0.4,1.1,3.5,8.8,3.5,9.2c-0.5,0.2-1.7,1.4-2,1.4c-0.2,0-1.8-1-2.2-1.2
		l0.8,2.5l-0.8,0.6c-0.3,0.2-1.1,0.6-1.3,1l2.7-0.1l0.8,2.2c-0.3,0.3-10.5,5.8-11.1,6.4c2.1,0.4,9.9,1.3,12.4,1.6
		c0.1,0.3,0.2,2,0.3,2.4c-0.2,0.1-1.9,0.7-2.4,1c0.6,0.5,1.9,0.5,2.6,0.9c0.2,0.2,0.3,1.9,0.6,2.5l1.4-2.2c0.6,0.1,1.9,0.4,2.3,0.6
		c0.1,0.9-0.1,2.3-0.1,3.3l0,9.9c0,0,0,0,0.1,0l2.2-2.8c0,0,0,0,0,0l0.8-1c0.3-0.5,0.6-0.8,1-1.3l2-2.6c0.4-0.5,1.7-2.1,1.9-2.6
		c0.5,0.1,1.6,0.6,2.4,0.8l-0.2,2.9c0.3-0.1,0.7-0.6,0.9-0.9c1.2-1.5,1.2-1.1,2-0.9c0.5,0.2,0.9,0.3,1.3,0.4c-0.1-0.7-0.8-1.3-1-2
		c0.3-0.3,1.6-1.6,1.8-1.7c0.6,0.2,2,1.2,2.7,1.6c1.3,0.7,3.2,1.9,4.1,2.3c0.5,0.3,0.9,0.5,1.3,0.8l2.7,1.5
		c-0.9-1.9-1.5-3.9-2.4-5.9c-0.4-1-0.8-2-1.2-3c-0.3-0.7-1.1-2.4-1.2-2.9c0.4-0.3,1.2-1,1.6-1.2c0.6,0.2,1.5,1.3,2.3,1.6l-0.5-2.6
		c0.4-0.2,0.8-0.5,1.2-0.8c0.2-0.1,0.4-0.3,0.6-0.4c0.4-0.2,0.4-0.1,0.6-0.4l-2.8-0.2l-0.2-2.6l4.1-2.4c0.2-0.1,0.6-0.4,1.1-0.7
		c0.3,2,0.6,4.1,0.7,6.2c0.1,1.2,0.1,2.4,0.1,3.6C812.3,149.5,812.3,150.4,812.3,151.3z M757.8,172.6c-0.4-0.2-0.8-0.6-1.1-1
		c0.1-0.4-0.1-0.7,0.8-1.5L757.8,172.6z M794,152.2l1.8,1c0.4,0.2,0.4,0.2,0.5,0.6c-0.4,0.2-1.3,0.3-1.8,0.3l-0.7-1.6
		c-0.1-0.4,0-0.2,0-0.3C794,152.2,793.6,152.1,794,152.2z M795.1,148.9c-0.8-0.4-1.5-0.9-2.3-1.2c-0.2,0.1,0,0-0.1,0.1
		c0,0-0.1,0.1-0.1,0.1c-0.1,0.1,0,0.1-0.2,0.1c-0.7-0.4-1-1.4-1.7-1.8c0.2-0.5,1.2-1.5,1.5-2l-2.7,0.4c-0.4-0.5-1-1.3-1.5-1.8
		c-0.3,3,0.2,2.3-1.7,2.9c-0.8,0.2-0.8,0.4-0.8-0.5c-0.9,0-1.8-0.2-2.7-0.3c-0.9-0.1-1.8-0.2-2.7-0.3l-5.3-0.7
		c0.1-0.4,0.2-0.3,0.5-0.5c1.4-0.8,2.6-1.6,4-2.4c0.8-0.5,1.6-1,2.3-1.4c0.8-0.5,1.5-1,2.3-1.4l-0.1-0.6l2.5-0.3
		c0.1,0.7,0.6,1.6,0.8,2.2c0,0,0,0,0.1-0.1c0,0,0,0,0.1-0.1c0.5-0.6,0.5-1.9,0.9-2.5c0.5,0,2-0.2,2.4-0.4c-0.3-0.3-1.8-1.2-2.2-1.3
		c0.2-0.7,0.7-1.5,0.8-2.2l0.8,0.4c0.2-0.1,0.3-0.3,0.5-0.5c0.2-0.2,0.3-0.3,0.4-0.5c0.2-0.3,0.1-0.1,0.2-0.3l3.2-4
		c0.2-0.2,0.2-0.3,0.4-0.6l1.7-2.1c0.1-0.2,0.2-0.3,0.4-0.2c0.3,0.8-0.6,8.6-0.2,10.1l1.3,0.3c0,0,0,0,0.1,0c0.1,0.1-1,1.8-1,2
		l-2.3-0.2c0.4,0.6,1.3,1.5,1.5,2.1c-0.4,0.5-0.9,1.4-1.1,2.1l2.8-0.7c0.3,0.5,1,0.8,1.2,1.3c-0.2,0.2-0.6,0.4-0.9,0.5
		c0.2,1.4,3.9,9.5,3.7,9.8c-0.2,0.4-0.9-0.3-1.1-0.4c-0.4-0.2-0.7-0.4-1.1-0.6L795.1,148.9z M791.1,154.5l0.8-1.1
		c0.4-0.5,0.7-1.3,1.1-1.2l-0.2,2.3c-0.5,0.1-1.6,0.5-2,0.4C790.9,154.5,790.7,154.9,791.1,154.5z M790.8,150l-3.5,4.1
		c-0.4,0.4-1.3,1.6-1.6,1.6c0-0.1,0-9,0.1-9.3c0.3,0,1.8,0.4,2.1,0.6l0,2.8c0.3-0.3,1.3-1.7,1.7-2.1c0.4,0,2.1,0.6,2.4,0.9
		c0,0.4,0,0.3-0.3,0.5c-0.2,0.2-0.2,0.3-0.4,0.5C791,149.8,790.9,149.8,790.8,150z M782.4,148.6l0,0.2c0,0.5,0,2.6-0.1,2.8
		c-0.3-0.1-1-1-1.5-1.3C781,150.2,782.1,148.6,782.4,148.6z M780.6,148.6c-0.4,0.2-0.6,0.4-1,0.5c-0.4-0.2-1-1-1-1.5
		c0,0,0.1,0,0.1,0c0.4-0.1,2.3,0.2,2.8,0.3C781.4,148.5,781.5,148.1,780.6,148.6z M777.6,137.2c0.4-0.1,2.3-0.2,2.6-0.1
		c-0.1,0.3,0.1,0.2-0.3,0.3l-2.8,1.5C777,138.7,777.4,137.6,777.6,137.2z M788.5,132.9c-0.1,0.2-1.5,1.4-1.7,1.4
		c-0.1,0-1.7-1-2.1-1.2c0.1,0.4,0.3,0.9,0.4,1.3c0.4,1,0.4,0.8,0.5,1.1c-0.6,0.3-1.5,1.4-2.1,1.4l-1.6-4.4c-0.3-0.8-1.5-3.7-1.6-4.3
		c0.6,0,1.6,0.8,2.1,1.1C783.1,129.8,788.4,132.7,788.5,132.9z M786.3,127.6c0.4-0.1,0.9-0.2,1.3-0.2c0.1,0.4,0.8,1.8,0.8,2.1
		c-0.2,0-1.8-1-2-1.2C786,128,785.5,127.7,786.3,127.6z M789.2,128c0.1-1.3-0.2-1,1-1.3c0.4-0.1,0.6-0.1,0.9-0.2
		c-0.1,0.4-0.2,0.5-0.5,0.7c-0.3,0.3-1.2,1.6-1.5,1.7C789,128.7,789.2,128.4,789.2,128z M801.9,144.5c0.7,0,0.7,0.3,1.2,0.6
		c0.3,0.2,0.7,0.5,0.9,0.7c-0.2,0.5-0.5,1.1-0.7,1.7c-0.5-0.1-0.4-0.2-0.6-0.7c-0.1-0.3-0.2-0.4-0.3-0.7
		C802.3,145.6,802,145.1,801.9,144.5z M802.7,144c0-0.5,0-0.3,1.2-1c0.3-0.2,1-0.6,1.4-0.6c0.1,0.5-0.6,1.8-0.7,1.8
		C804.3,144.3,803,144.1,802.7,144z M799.9,141.8c-0.1-0.5-0.2-1.3-0.2-1.8c0.4-0.3,0.7-0.5,1-0.8l1-0.8c-0.3-0.2-1.5-0.3-1.9-0.4
		c-0.3,0-0.4,0-0.6-0.2c-0.3-2-0.6-2.1,0.4-1.9c1.6,0.3,7.6,1,8,1.2l-0.2,0.2c-0.1,0.1-0.1,0.1-0.2,0.1c-0.2,0.1-0.3,0.2-0.5,0.3
		L799.9,141.8z M800.5,132.6l1.4-0.5c0.5-0.1,0.4,0,0.7,0.4c0.2,0.3,0.3,0.4,0.5,0.8c-0.3,0.2-0.9,0-1.4-0.1
		c-0.3-0.1-1.2-0.2-1.4-0.3C800.3,132.7,800.1,132.8,800.5,132.6z M800.9,130.8c-0.1,0.2-0.1,0.1-0.2,0.3c-0.2,0.2-0.3,0.4-0.4,0.5
		c-0.8,1.1-0.4,1-1,1.1c0-0.1,0.1-2.6,0.1-3c0.1-1.1,0.5-0.4,0.8-0.1c0.2,0.2,0.6,0.6,0.9,0.7C801,130.9,801.1,130.5,800.9,130.8z"
		/>
</g>
<g>
	<text transform="matrix(0.5905 0.6317 -0.6392 0.7691 69.1608 98.1298)" class="st0 st3">Yourname</text>
	<path class="st2" d="M126,90.1c0.6-0.2,1-0.3,1.2-0.4c0,0,0,0,0,0c3.6-1.6,7.3-4.3,10.1-7c6.5-7.9-1.2-16.5-1.2-24.8
		c0-7,3.7-14.5,0.6-21.6c-1.8-4.7-6.3-6.8-11.4-7c-4.5-0.1-8.9,1.1-12.1,3.2c-3.2,2.1-18.8,17.9-19.1,17.9c-0.2-1-0.7-1.8-1.5-2.4
		c-0.7-0.5-1.6-0.9-2.5-0.9h-4.5c-0.7,0-1.4,0.2-2,0.5c-0.9,0.5-1.8,1.5-1.8,2c-5-6.8-11-14-17.5-19c-3-2.3-7.4-3.9-11.8-4.1
		c-5.1-0.1-9.7,1.6-11.8,6.1c-3.6,6.8-0.5,14.6-1,21.6c-0.6,8.2-8.9,16.3-3,24.6c3.3,3.9,6.9,7.3,11.8,9c0,0,0,0,0,0
		c0.2,0.1,0.3,0.2,0.6,0.3c-20.3,12.5-33.9,34.9-33.9,60.4c0,39.1,31.7,70.8,70.8,70.8c21.4,0,40.6-9.5,53.6-24.6
		c1.6-1.9,3.1-3.8,4.5-5.8c0.2-0.2,0.3-0.4,0.5-0.7v0c0.3-0.4,0.6-0.8,0.8-1.2c0.2-0.3,0.4-0.6,0.6-0.9c0.8-1.3,1.6-2.6,2.3-4
		c0,0,0-0.1,0.1-0.1c0.4-0.7,0.8-1.5,1.1-2.2c0.2-0.5,0.4-0.9,0.7-1.4c0.8-1.8,1.6-3.6,2.2-5.4c0.1-0.2,0.1-0.4,0.2-0.6
		c0.2-0.5,0.4-1.1,0.6-1.7c2.3-7,3.6-14.5,3.6-22.3C156.9,124.3,144.6,102.9,126,90.1z M137.5,182.6c0.1-0.3,0.4-0.5,0.6-0.4
		c0,0,0,0,0.1,0c-0.2,0.3-0.4,0.6-0.6,0.9C137.5,183,137.5,182.8,137.5,182.6z M138.3,179.7l1.1,0.6c-0.1,0.2-0.2,0.4-0.4,0.6
		L138.3,179.7z M140.1,174.9c-0.3,0.1-0.6-0.1-0.7-0.4c-0.1-0.3,0.1-0.6,0.4-0.7c0.3-0.1,0.6,0.1,0.7,0.4
		C140.5,174.5,140.4,174.8,140.1,174.9z M123.1,34.2c5.8-1.8,8,2.6,5.4,8.2c-6.8,5.8-15.3,9.2-24.2,9.5
		C107.6,43.5,114.5,37,123.1,34.2z M108.5,80.5l0.3,0.5c0,0-0.1,0.2-0.1,0.4c-3-1-6.1-1.8-9.3-2.4c-0.4-0.7-0.8-1.4-1.2-2.2
		c0-0.1-0.1-0.2-0.1-0.2c-1.4-2.6-2.4-5.6-3.1-8.5L108.5,80.5z M85.7,53.1c0.7-0.6,1.5-0.9,2.4-0.9c0.9,0,1.7,0.4,2.3,1.1
		c0.6,0.6,0.9,1.5,0.9,2.4c0,0.9-0.4,1.7-1.1,2.4c-0.7,0.6-1.5,0.9-2.4,0.9c-0.9,0-1.7-0.4-2.3-1.1c-0.6-0.6-0.9-1.5-0.9-2.4
		C84.6,54.6,85,53.7,85.7,53.1z M86.1,86.6c34.2,0,62,27.8,62,62c0,9.9-2.3,19.3-6.5,27.7c-0.1-0.2-0.1-0.5-0.2-0.7
		c0.8-1.4,1.5-2.9,2.3-4.3c0.3-0.5,0.1-1.2-0.4-1.5c-0.5-0.3-1.2-0.2-1.5,0.4c-0.4,0.8-0.9,1.6-1.3,2.4c-0.2-0.6-0.4-1.2-0.6-1.9
		l1.4-2.6c0.3-0.5,0.1-1.2-0.4-1.5c-0.5-0.3-1.2-0.2-1.5,0.4c-0.1,0.2-0.3,0.5-0.4,0.7c-0.2-0.6-0.4-1.3-0.6-1.9
		c-0.2-0.6-0.8-0.9-1.3-0.8c-0.6,0.2-0.9,0.8-0.7,1.4c0.2,0.6,0.4,1.3,0.6,1.9c-0.3-0.1-0.5-0.3-0.8-0.4c-0.6-0.3-1.2-0.1-1.5,0.5
		c-0.2,0.5,0,1.2,0.5,1.5c0.9,0.5,1.7,0.9,2.6,1.4c0.2,0.6,0.4,1.2,0.6,1.9c-0.8-0.4-1.6-0.9-2.4-1.3c-0.6-0.3-1.2-0.1-1.5,0.5
		c-0.3,0.5,0,1.2,0.5,1.5c1.4,0.8,2.9,1.5,4.3,2.3c0.2,0.6,0.4,1.2,0.6,1.9c-1.4-0.7-2.8-1.5-4.2-2.2c-1-0.5-2,0.6-1.4,1.5
		c0.8,1.3,1.7,2.7,2.5,4c-0.6-0.2-1.3-0.3-1.9-0.4c-0.8-1.4-1.7-2.8-2.5-4.2c-0.3-0.5-1-0.7-1.5-0.4c-0.6,0.3-0.7,1-0.4,1.5
		c0.5,0.8,0.9,1.6,1.4,2.4c-0.6-0.2-1.3-0.3-1.9-0.5c-0.5-0.8-1-1.7-1.5-2.5c-0.3-0.5-1-0.7-1.5-0.4c-0.6,0.3-0.7,1-0.4,1.5
		c0.1,0.2,0.3,0.5,0.4,0.7c-0.1,0-0.2,0-0.3-0.1l-2.4-3.7l3.9-10.7l-11,2.4l-7.9-6.4l1.8-2.2l4.8,0.4l-2.5-4.2l1.7-4.7l-5,1.4
		l-3.8-3l-0.3,4.7l-3.3,1.7l4.5-11.6l-12.3,3.1l-6.9-5.7l2.8-2.9l5.2,0.3l-2.7-4.7l1.9-5.7l-5.6,1.6l-4.2-3.9l-0.7,6l-2.2,1.1
		l-3.9-5.8l3.3-9.3l-9.7,2.5l-5.2-4.9l2.7-3.1l4.7,0.3l-2.4-3.8l1.2-4.9l-4.7,1.3l-3.4-3.2l-0.2,1.2l-3-4.5l2.3-7.3
		C71,88,78.4,86.6,86.1,86.6z M139,169.4c0.1,0.3-0.1,0.6-0.4,0.7c-0.3,0.1-0.6-0.1-0.7-0.4c-0.1-0.3,0.1-0.6,0.4-0.7
		C138.6,169,138.9,169.1,139,169.4z M133.6,181.7c-0.1,0.3-0.4,0.5-0.6,0.4c-0.3-0.1-0.5-0.4-0.4-0.6c0.1-0.3,0.4-0.5,0.6-0.4
		C133.5,181.1,133.7,181.4,133.6,181.7z M131.4,182.3c-0.6,0.4-1.2,0.7-1.8,1.1l-0.7-1.2c0.2-0.1,0.5-0.3,0.7-0.4
		C130.1,182,130.7,182.1,131.4,182.3z M128.7,180.5c-0.1,0.3-0.4,0.5-0.6,0.4c-0.1,0-0.2-0.1-0.3-0.2l-0.1-0.1c0-0.1-0.1-0.2,0-0.3
		c0.1-0.3,0.4-0.5,0.6-0.4C128.6,180,128.8,180.3,128.7,180.5z M120.3,179l-3.7-0.2l-2.1,2.3l-1.1-3.3l-3.1-1.5l3-1.8l0.4-3.2
		l2.7,2.1l3.2-0.9l-1.1,3.7L120.3,179z M103.3,179.5l-3.1,1.1l-4.3-3.5l-0.6,5.6l-3,1.6l5.2-16l-3.6,0.7l3.1-3.6l11.1,1l-0.6,5.2
		l-8.8,5.8L103.3,179.5z M96.6,185l1.5-0.9l0.2-1.6l1.4,1.1l1.7-0.5l-0.6,1.9l0.9,1.4l-1.9-0.1l-1.1,1.2l-0.6-1.7L96.6,185z
		 M97.4,192.5l-3.8-6.1l2.6,1.2L97.4,192.5z M66,207.3l-0.6-1.8l-1.8-0.8l1.7-1l0.2-1.8l1.5,1.1l1.8-0.5l-0.6,2.1l1,1.6l-2.1-0.1
		L66,207.3C66.1,207.4,66.1,207.4,66,207.3z M71.6,185.6l4.4-2.7l0.5-4.7l4,3.1l4.8-1.4l-1.6,5.5l2.7,4.1l-5.4-0.3l-3.2,3.4
		l-1.7-4.9L71.6,185.6z M73.9,207.7l-2.8-4l1.2-2.1L73.9,207.7z M81.9,172.5l-12.6-10.7l-0.5,4.7l-1.4-1.9l1.9-5.7l-3.1,0.4l4-5.2
		l7.4,0.7l-4.4,2.9l12.1,5l2,8.3L81.9,172.5z M61.4,173.7l3.3-4.2l4.2,0.3l-0.4,8.6l-2,1.2l-1.6-2.5l1.4-4.3L61.4,173.7z
		 M52.8,163.1l3.9-1.1l-1.4-1.4l-3.9,1.1l-1.7-1.7l6.8-1.8l-1.4-1.4l-5.8,1.6l1-3.7l-2,0.5c0,0-0.3,1.3-0.6,2.1l-1.3-1.3l0.8-3.1
		c0.3-1,0.6-2.1,0.8-3.1l1.7-0.5c-0.2,0.8-0.6,2.1-0.6,2.1l1.4,1.4l1-3.7l4.3,4.3l1.9-0.5l-3.8-3.8l7.7,3.5l1.9,7.9l-4.9-4l0,6.3
		l-5,2.9l0.1-0.1c0.3-0.3,0.6-0.6,0.6-0.6L52.8,163.1z M45.3,155.8c-1.3-1.3-2.6-2.6-4-3.9c0.2-0.4,0.3-0.8,0.3-1.2
		c1.8-0.5,3.6-1,5.4-1.5l-2.8,2.8L45.3,155.8z M27.3,148.5l-1,3.7l-2.3-2.3c0-0.4,0-0.9,0-1.3c0-1.5,0.1-3,0.2-4.5l4.6-1.2l-1,3.7
		l2-0.5c0,0,0.3-1.3,0.5-2.1l1.3,1.3l-1.7,6.2l-1.7,0.5c0.2-0.8,0.6-2.1,0.6-2.1L27.3,148.5z M24.4,155.5l1.1-0.3l-0.8,3
		C24.7,157.3,24.5,156.4,24.4,155.5z M25,137.9l0.3,0.3l-0.3,0.1C24.9,138.1,25,138,25,137.9z M24.7,140.1l2-0.6l1.7,1.7l-4,1.1
		C24.5,141.6,24.5,140.8,24.7,140.1z M24.2,152.5l0.9,0.9l-0.9,0.2C24.2,153.3,24.2,152.9,24.2,152.5z M33.9,149.2l-1.1-3.8
		c1.3,1.3,2.7,2.6,4,3.9c-0.2,0.4-0.3,0.8-0.3,1.2c-1.8,0.5-3.6,1-5.4,1.5L33.9,149.2z M43.2,140.5c0.6,0.6,1.5,1.5,1.5,1.5l2-0.5
		l-2.7-2.7l5.8-1.6l0.4-1.6l2.7,1.3l0.8,2.5l-1.3,0.4l-1.6,5.8l-2.7-2.7l-0.5,2c0,0,0.9,0.9,1.5,1.5l-1.7,0.5
		c-0.8-0.8-1.5-1.5-2.3-2.3l-2.3-2.3L43.2,140.5z M43.1,133.5c0.1-0.3,0.3-0.4,0.6-0.4c0.3,0.1,0.4,0.3,0.3,0.6
		c-0.1,0.3-0.3,0.4-0.6,0.4C43.2,134,43,133.7,43.1,133.5z M57.8,135.8l-1.6-0.1l-0.9,1l-0.5-1.4l-1.4-0.6l1.3-0.8l0.2-1.3l1.2,0.9
		l1.4-0.4l-0.5,1.6L57.8,135.8z M54.2,97.1l0.2-1.9c0.1-0.1,0.2-0.1,0.3-0.2l1.7,1.3l2.3-0.7L58,98.3l1.3,2l-2.6-0.1l-1.5,1.6
		l-0.8-2.3l-2.2-1L54.2,97.1z M55.4,115.5l0.2-2.1l1.8,1.3l2.1-0.6l-0.7,2.4l1.2,1.8l-2.4-0.1l-1.4,1.5l-0.7-2.2l-2.1-0.9
		L55.4,115.5z M58.1,111.5l-3.4-3.1l3.6-4.7l6.4,0.5l-0.2,2.4l-3.5,2.1l2.2,1.3L58.1,111.5z M64.1,110.2l1.3,0.4l0.6,3.5l-1.1-0.9
		l-0.4,6l-2.5-3.3L64.1,110.2z M70.1,109.4l-1.6-0.1l-0.9,1l-0.5-1.4l-1.4-0.6l1.3-0.8l0.2-1.3l1.2,0.9l1.4-0.4l-0.5,1.6L70.1,109.4
		z M75.2,130.2l-3.3-0.2l-1.9,2l-1-2.9l-2.8-1.3l2.6-1.6l0.3-2.8l2.4,1.8l2.9-0.8l-1,3.3L75.2,130.2z M91.3,134.9l-1.9-0.1l-1.1,1.2
		l-0.6-1.7l-1.6-0.8l1.5-0.9l0.2-1.6l1.4,1.1l1.7-0.5l-0.6,1.9L91.3,134.9z M86.2,138.5l-1.5-0.7l-0.5,12.9l-4.7,3.1l-4.9-7.4l3.3-9
		l-7.1,1.5l3.3-4.2l9.1,0.7l2.4,0.8L86.2,138.5z M71.3,149.9l-3.3-0.2l-1.9,2l-1-2.9l-2.8-1.3L65,146l0.3-2.8l2.4,1.8l2.9-0.8
		l-0.9,3.3L71.3,149.9z M65.2,132.5l1.3,5.1l-5.1-4.1l-0.1,0.1l-0.4,2.6l-1.5-2.1l1.3-3.2L65.2,132.5z M60.9,138.3l-0.3,5l-1.5,1
		l-2.4,0.6l1-3.9l-1.9,0.5l-1,3.9l-2.3,0.6l1.5-5.6l0.3,1l3-3.7L60.9,138.3z M52.9,147.7l1.4-0.4l-1.1,0.7L52.9,147.7z M42.8,146.8
		l3.9,1c-1.8,0.5-3.6,1-5.4,1.5c-0.1-0.2-0.2-0.4-0.4-0.5c-0.1-0.1-0.1-0.1-0.2-0.2c0,0-0.1-0.1-0.2-0.1c0,0-0.1-0.1-0.1-0.1
		c0.5-1.8,1-3.6,1.4-5.4L42.8,146.8z M39,148c-0.1,0-0.3,0-0.4,0c-0.2,0-0.3,0.1-0.5,0.1c-0.1,0-0.2,0.1-0.4,0.2
		c-1.3-1.3-2.7-2.6-4-3.9l3.8,1l2.8-2.9C40,144.4,39.5,146.2,39,148z M36.8,151.9c0.1,0.2,0.2,0.4,0.4,0.5c0.1,0.1,0.2,0.2,0.2,0.2
		c0.1,0.1,0.1,0.1,0.2,0.2c0,0,0,0,0,0c-0.5,1.8-1,3.6-1.4,5.4l-1-3.9l-3.9-1C33.2,152.9,35,152.4,36.8,151.9z M39.1,153.2
		c0.3,0,0.6-0.1,0.9-0.2c0.1,0,0.2-0.1,0.3-0.1c0,0,0,0,0,0c1.3,1.3,2.7,2.6,4,3.9l-3.8-1l-2.8,2.9C38.1,156.8,38.6,155,39.1,153.2z
		 M61.6,164.5l0.2-1.6l1.4,1.1l1.7-0.5l-0.6,1.9l0.9,1.4l-1.9-0.1l-1.1,1.2l-0.6-1.7l-1.6-0.7L61.6,164.5z M63.1,179l-1.7-0.1
		l-1,1.1l-0.5-1.6l-1.5-0.7l1.4-0.9l0.2-1.5l1.3,1l1.6-0.4l-0.5,1.8L63.1,179z M62.3,181.2l1.8,0.1l-3.4,2L62.3,181.2z M86.5,156.6
		l3.6-2.2l0.4-3.8l3.3,2.5l3.9-1.1l-1.3,4.4l2.2,3.4l-4.4-0.2l-2.6,2.8l-1.3-3.9L86.5,156.6z M103.2,156l3.3,1.5l1.7,5.9L103.2,156z
		 M107.4,155.1l1.1-0.7l0.1-1.2l1.1,0.8l1.3-0.4l-0.4,1.4l0.7,1.1l-1.4-0.1l-0.8,0.9l-0.4-1.3L107.4,155.1z M76.3,76.8L76.3,76.8
		c0,0.1-0.1,0.1-0.1,0.2c0,0-0.1,0.1-0.1,0.2c-0.2,0.3-0.7,0.9-1.1,1.6c-3.3,0.5-6.4,1.3-9.6,2.2l-0.1-0.4l0.9-1.3l14.4-11.4
		C79.4,70.9,78.1,74.1,76.3,76.8z M48.5,39.4c-2.1-5.7,0.4-10,6-7.7c8.4,3.4,14.8,10.4,17.5,19C63.1,49.8,54.8,45.8,48.5,39.4z
		 M47.2,100.4l4.5,1.7l0.9,3.2l-0.1,8.1l-5.6,3.7l6.2,2.6l2.1,6.4l3.8-5l5.4,0.4l-0.1,1.4l-8.3,5.4l2.8,1.6l-2,0.5l-3.8-3.1
		l-0.5,4.8l-3.8,2.7l1.2,0.6l-6.2,1.7l0.6-2.3l3.9-1.1l0.5-2l-3.9,1.1l0.6-2.4l-1.7-0.5l-0.6,2.4l-2.9-2.8l-0.5,1.9l2.9,2.9
		l-0.6,2.3l-5-5l-0.5,1.9l4.3,4.3l-3.7,1l1.4,1.4c0,0,1.3-0.4,2.1-0.6l-0.5,1.7c-1,0.3-2.1,0.6-3.1,0.8c-1,0.3-2.1,0.6-3.1,0.9
		l-1.3-1.3c0.8-0.2,2.1-0.6,2.1-0.6l0.5-2l-3.7,1l1.5-5.8l-1.4-1.4l-1.8,6.8l-1.7-1.7l1.1-3.9l-1.4-1.4l-1,3.9l-1.1-1.1
		C28.4,121.6,36.3,109.2,47.2,100.4z M25.4,161.5l0.3-0.1l1.6-5.8l2.7,2.7l0.5-2c0,0-0.9-0.9-1.5-1.5l1.7-0.5
		c0.8,0.8,1.5,1.5,2.3,2.3c0.7,0.8,1.5,1.5,2.3,2.3l-0.5,1.7c-0.6-0.6-1.5-1.5-1.5-1.5l-2,0.5l2.7,2.7l-5.8,1.6l-0.5,1.9l6.8-1.8
		l-0.6,2.3l-3.9,1.1l-0.5,1.9l3.9-1.1l-0.6,2.4c0,0,0.4,0.1,0.8,0.2c0.4,0.1,0.8,0.2,0.8,0.2l0.6-2.4l2.9,2.8l0.5-1.9l-2.9-2.9
		l0.6-2.3l5,5l0.5-2l-4.3-4.3l3.7-1l-1.4-1.4c0,0-1.3,0.3-2.1,0.6l0.5-1.7c1-0.3,2.1-0.6,3.1-0.8c1-0.3,2.1-0.6,3.1-0.9l1.3,1.3
		c-0.8,0.2-2.1,0.6-2.1,0.6l-0.5,2l3.7-1l-1.5,5.8l1.4,1.4l1.8-6.8l1.7,1.7l-1,3.9l1.4,1.4l1-3.9l1.8,1.8c0,0,0.1-0.2,0.3-0.3
		l5.5,2.8l1.1,4.2l-2.4-1.9l-0.4,4.5l-3.9,3l4.3,2l1.1,3.6l-4.1,3.2l15.1,6.3l1.5,5.2l-3.9,1.2l-4.6-3.9l-0.6,6.3l-3.6,2.3
		C42,196.1,29.4,180.3,25.4,161.5z M72.4,209.1l2.3,0.1l10.1-12.5l15.9,1.1l-2.7-4.6l3-4.6l5.5,0.5l-2.9-4.9l1.7-4.1l3.9,1.9
		l2.8,10.8l7.3-8.6l9.3,0.5c0,0.2,0.1,0.4,0.2,0.5c0.4,0.5,1,0.6,1.5,0.3c1.4-0.8,2.8-1.7,4.1-2.6c0.6,0.2,1.3,0.3,1.9,0.4
		c-1.3,0.8-2.7,1.7-4,2.5c-0.9,0.6-0.5,2,0.6,2c0.4,0,0.8,0,1.3,0c-0.4,0.5-0.8,0.9-1.2,1.4c-0.5,0-1,0-1.5,0
		c-0.6,0-1.1,0.5-1.1,1.1c0,0.5,0.3,0.9,0.7,1c-0.5,0.5-1,1.1-1.6,1.6c-0.2,0.1-0.4,0.3-0.5,0.5c-11.1,10.6-26.2,17.1-42.7,17.1
		C81.4,210.7,76.8,210.1,72.4,209.1z"/>
</g>
<g>
	<text transform="matrix(0.6926 -0.3002 0.3791 0.9253 529.5455 180.8795)" class="st0 st4">Yourname</text>
	<path class="st2" d="M655,147.4c0-0.3,0-0.5,0-0.8c-0.6-23.5-12.7-44.1-30.9-56.5c0.6-0.2,1-0.3,1.2-0.4c0,0,0,0,0,0
		c3.6-1.6,7.3-4.3,10-7c6.5-7.9-1.2-16.5-1.2-24.8c0-7,3.7-14.5,0.6-21.6c-1.8-4.7-6.3-6.8-11.3-7c-4.5-0.1-8.9,1.1-12.1,3.2
		c-3.2,2.1-18.8,17.9-19.1,17.9c-0.2-1-0.7-1.8-1.5-2.4c-0.7-0.5-1.6-0.9-2.5-0.9h-4.5c-0.7,0-1.4,0.2-2,0.5c-0.9,0.5-1.8,1.5-1.8,2
		c-5-6.8-11-14-17.5-19c-3-2.3-7.4-3.9-11.8-4.1c-5.1-0.1-9.7,1.6-11.8,6.1c-3.6,6.8-0.5,14.6-1,21.6c-0.6,8.2-9,16.3-3,24.6
		c3.3,3.9,6.9,7.3,11.8,9c0,0,0,0,0,0c0.2,0.1,0.3,0.2,0.6,0.3c-20.3,12.5-33.9,34.9-33.9,60.4c0,15.2,4.8,29.3,13,40.9
		c0.6,0.8,1.2,1.7,1.8,2.5c6,7.7,13.5,14.1,22.1,18.8c1.2,0.6,2.3,1.2,3.5,1.8c9.2,4.4,19.5,6.8,30.4,6.8c6.7,0,13.1-0.9,19.2-2.6
		c1-0.3,2-0.6,3-0.9c4.3-1.4,8.3-3.2,12.2-5.4c0.9-0.5,1.7-1,2.6-1.5c20.3-12.5,33.8-34.8,33.8-60.4
		C655.1,148.2,655.1,147.8,655,147.4z M645.8,144.9l-0.5-7.2c0.4,2.4,0.7,4.8,0.9,7.3L645.8,144.9z M621.2,34.2
		c5.7-1.8,8,2.6,5.4,8.2c-6.7,5.8-15.3,9.2-24.2,9.5C605.7,43.5,612.6,37,621.2,34.2z M608.3,108.5l-2.9-0.8l-2.1,2l-0.8-2.9
		l-2.8-0.8l2.1-2.1l-0.7-2.9l2.9,0.7l2.1-2l0.8,2.9l2.8,0.8l-2.1,2.1L608.3,108.5z M602.2,89.7l0.4-0.4c0.2,0.1,0.3,0.1,0.5,0.1
		c0.4,0.1,0.9,0.3,1.3,0.4l-0.4,0.4l-1.4,1.3L602.2,89.7L602.2,89.7z M608,99.7l-0.5-1.7c0.6-0.2,1.1-0.6,1.3-1.3
		c0.3-1-0.3-2-1.3-2.2c-1-0.3-2,0.3-2.3,1.3c-0.2,0.6,0,1.3,0.4,1.7l-1.3,1.2l-1-4.1l2.8-2.8l-0.2-0.8l-0.1-0.6
		c0.3,0.1,0.6,0.2,0.9,0.3c1.3,0.5,2.5,1,3.7,1.6l-0.4,0.4l-0.1,0.1l1,3.8L608,99.7z M613.6,94c0,0,0.1,0,0.1,0.1l-0.4,0.4h0
		l-0.1,0.1l0-0.2l-0.2-0.7C613.2,93.8,613.4,93.9,613.6,94z M606.7,80.5l0.3,0.5c0,0-0.1,0.2-0.1,0.4c-3-1-6.1-1.8-9.3-2.4
		c-0.4-0.7-0.8-1.4-1.2-2.2c0-0.1-0.1-0.2-0.1-0.2c-1.4-2.6-2.4-5.6-3.2-8.5L606.7,80.5z M583.8,53.1c0.7-0.6,1.5-0.9,2.4-0.9
		c0.9,0,1.7,0.4,2.4,1.1c0.6,0.6,0.9,1.5,0.9,2.4c0,0.9-0.4,1.7-1.1,2.4c-0.7,0.6-1.5,0.9-2.4,0.9c-0.9,0-1.7-0.4-2.4-1.1
		c-0.6-0.6-0.9-1.5-0.9-2.4C582.7,54.6,583.1,53.7,583.8,53.1z M584.2,86.6c3.8,0,7.5,0.4,11.1,1l0.1,0.4l0.3,1.4l3.8,1.1l0.5,1.9
		l-3.8-1.1l0.8,3l3.8,1.1l1,4.1l-1.7-0.4c0.2-0.6,0-1.3-0.5-1.7c-0.7-0.7-1.9-0.7-2.6,0c-0.7,0.7-0.7,1.9,0,2.6
		c0.5,0.5,1.1,0.6,1.7,0.5l0.4,1.7l-4-1.1l-1-3.9l-3-0.8l1,3.9l-1.9-0.5l-1-3.9l-3-0.8l1,3.9l-2-0.6l-1.1,1.1l0.4,1.5l2,0.5
		l-2.6,2.5c-0.8-0.1-1.6-0.2-1.8-0.2c-1.1-0.2-5.7-0.8-6.2-0.9c-0.1-0.6-0.3-1.5-0.2-2l2.3-1c-0.6-0.4-1.5-0.4-2.1-0.7l-0.4-2.7
		c-0.3,0.2-1.3,1.7-1.4,2c-0.3,0-2.2-0.6-2.5-0.8l0.4-9.5c0.7-0.1,1.3-0.3,2-0.4C577.3,86.9,580.7,86.6,584.2,86.6z M567.2,117.4
		c-0.8-0.4-1.5-0.8-2.2-1.2c-0.2,0.1,0,0-0.1,0.1c0,0-0.1,0.1-0.1,0.1c-0.1,0.1,0,0.1-0.2,0.1c-0.7-0.3-0.9-1.3-1.6-1.7
		c0.1-0.4,1.1-1.4,1.5-2l-2.6,0.4c-0.4-0.5-0.9-1.3-1.4-1.7c-0.3,2.9,0.2,2.2-1.6,2.8c-0.8,0.2-0.8,0.4-0.8-0.4
		c-0.8,0-1.8-0.2-2.6-0.3c-0.9-0.1-1.8-0.2-2.6-0.3l-5.1-0.7c0.1-0.3,0.2-0.3,0.5-0.5c1.3-0.7,2.5-1.6,3.8-2.3
		c0.8-0.4,1.5-0.9,2.2-1.4c0.8-0.4,1.4-1,2.2-1.3l-0.1-0.6l2.4-0.2c0.1,0.6,0.6,1.5,0.7,2.1c0,0,0,0,0.1,0c0,0,0,0,0-0.1
		c0.4-0.6,0.5-1.8,0.9-2.4c0.5,0,2-0.2,2.3-0.4c-0.3-0.3-1.7-1.1-2.1-1.2c0.2-0.7,0.7-1.5,0.8-2.1l0.8,0.4c0.2-0.1,0.3-0.3,0.4-0.5
		c0.1-0.2,0.3-0.3,0.4-0.5c0.2-0.3,0.1-0.1,0.3-0.3l3.1-3.8c0.2-0.2,0.2-0.3,0.4-0.5l1.7-2.1c0.1-0.2,0.2-0.3,0.4-0.2
		c0.3,0.8-0.6,8.3-0.2,9.7l1.3,0.3c0,0,0,0,0,0c0.1,0.1-0.9,1.7-1,1.9l-2.2-0.2c0.4,0.6,1.3,1.5,1.5,2c-0.4,0.5-0.9,1.4-1.1,2
		l2.7-0.7c0.3,0.5,1,0.8,1.1,1.3c-0.2,0.1-0.6,0.4-0.8,0.5c0.2,1.3,3.7,9.2,3.6,9.5c-0.2,0.4-0.9-0.3-1.1-0.4
		c-0.4-0.2-0.7-0.4-1.1-0.6L567.2,117.4z M568.4,122.1c-0.4,0.2-1.3,0.3-1.7,0.3l-0.7-1.5c-0.1-0.4,0-0.2,0-0.3c0,0,0,0,0,0
		c0,0,0.1,0,0.2,0l1.7,0.9C568.3,121.7,568.3,121.7,568.4,122.1z M563.3,122.8l0.8-1c0.4-0.5,0.7-1.2,1.1-1.2l-0.2,2.2
		c-0.5,0.1-1.5,0.5-1.9,0.4C563.1,122.8,563,123.1,563.3,122.8z M563,118.5l-3.4,3.9c-0.4,0.4-1.2,1.6-1.5,1.6c0-0.1,0-8.7,0.1-9
		c0.3,0,1.8,0.4,2,0.6l0,2.7c0.3-0.3,1.3-1.6,1.7-2c0.3,0,2,0.6,2.3,0.8c0,0.4,0,0.3-0.3,0.5c-0.2,0.2-0.2,0.3-0.4,0.5
		C563.3,118.3,563.2,118.3,563,118.5z M554.9,117.2l0,0.2c0,0.5,0,2.5-0.1,2.7c-0.3-0.1-1-1-1.5-1.2
		C553.5,118.6,554.6,117.2,554.9,117.2z M553.2,117.2c-0.4,0.2-0.6,0.3-1,0.5c-0.4-0.2-1-1-0.9-1.5c0,0,0.1,0,0.1,0
		c0.4-0.1,2.2,0.2,2.7,0.3C554,117,554,116.6,553.2,117.2z M572.4,101.7l1.3-0.5c0.5-0.1,0.4,0,0.7,0.4c0.2,0.3,0.3,0.4,0.5,0.7
		c-0.3,0.2-0.9,0-1.4-0.1c-0.3,0-1.1-0.2-1.4-0.3C572.2,101.7,572,101.8,572.4,101.7z M572.8,99.9c-0.1,0.2-0.1,0.1-0.2,0.2
		c-0.2,0.2-0.3,0.3-0.4,0.5c-0.8,1.1-0.4,1-0.9,1.1c0-0.1,0.1-2.5,0.1-2.9c0.1-1,0.5-0.4,0.7-0.1c0.2,0.2,0.6,0.6,0.8,0.7
		C572.9,100,573,99.6,572.8,99.9z M561.8,94.2l0.2-2.6c-0.3,0.1-0.7,0.7-0.9,0.9c-0.4,0.4-0.6,0.7-1,1c-0.3-0.3-1.6-0.9-2.1-1
		c0.2,0.7,0.9,1.6,1,2.3c-0.4,0.3-1.1,1.4-1.6,1.6c-0.3-0.1-2.3-1.3-2.7-1.6l-0.7-0.4c0.6-0.3,1.1-0.6,1.7-0.9c4.3-2.2,9-4,13.8-5.2
		l-2.1,2.5c-0.1,0.1,0,0-0.2,0.2l-0.1,0.1l-3.2,4c-0.2-0.1-0.2-0.2-0.5-0.3C563,94.8,562.1,94.5,561.8,94.2z M563.3,95.9
		c-0.1,0.3-0.2,0.4-0.4,0.7c-0.2,0.3-1.1,1.6-1.4,1.7c-0.1-0.4,0-0.6,0-1c0.1-1.3-0.2-1,0.9-1.2C562.8,96,563,95.9,563.3,95.9z
		 M557.5,103.5c0.3,0.9,0.4,0.8,0.5,1.1c-0.6,0.3-1.5,1.3-2,1.4l-1.5-4.2c-0.3-0.8-1.4-3.6-1.5-4.2c0.5,0,1.5,0.8,2,1
		c0.7,0.4,5.7,3.2,5.8,3.4c-0.1,0.2-1.4,1.4-1.6,1.4c-0.1,0-1.6-1-2.1-1.1C557.2,102.6,557.4,103,557.5,103.5z M558.7,96.8
		c0.4-0.1,0.9-0.2,1.3-0.2c0.1,0.4,0.7,1.7,0.7,2c-0.2,0-1.7-1-2-1.1C558.4,97.2,557.9,97,558.7,96.8z M552.8,106.1
		c0,0.3,0.1,0.1-0.3,0.3l-2.7,1.4c-0.1-0.3,0.2-1.4,0.4-1.7C550.6,106,552.5,105.9,552.8,106.1z M573.8,113.1c0.6,0,0.7,0.3,1.1,0.6
		c0.3,0.2,0.7,0.4,0.9,0.7c-0.2,0.5-0.5,1.1-0.6,1.6c-0.5-0.1-0.4-0.2-0.6-0.6c-0.1-0.2-0.2-0.4-0.3-0.7
		C574.1,114.2,573.9,113.7,573.8,113.1z M574.6,112.6c0-0.5,0-0.3,1.2-1c0.3-0.2,0.9-0.6,1.3-0.6c0.1,0.5-0.6,1.7-0.7,1.8
		C576,113,574.8,112.8,574.6,112.6z M571.9,110.5c-0.1-0.5-0.2-1.3-0.2-1.7c0.3-0.3,0.7-0.5,1-0.8l0.9-0.7c-0.3-0.2-1.4-0.3-1.8-0.3
		c-0.3,0-0.4,0-0.6-0.2c-0.3-2-0.5-2,0.3-1.8c1.5,0.3,7.3,0.9,7.8,1.1l-0.3,0.2c-0.1,0-0.1,0.1-0.2,0.1c-0.2,0.1-0.3,0.2-0.5,0.3
		L571.9,110.5z M574.4,76.8c0,0.1-0.1,0.1-0.1,0.2c0,0-0.1,0.1-0.1,0.2c-0.2,0.3-0.7,0.9-1.2,1.6c-3.3,0.5-6.4,1.3-9.5,2.2l-0.1-0.4
		l0.9-1.3l14.4-11.4C577.6,70.9,576.3,74.1,574.4,76.8z M546.6,39.4c-2.1-5.7,0.4-10,6-7.7c8.4,3.4,14.8,10.4,17.4,19
		C561.2,49.8,552.9,45.8,546.6,39.4z M524.9,131.3c0,0.2-0.2,0.3-0.3,0.3c0-0.1,0.1-0.3,0.1-0.4c0-0.1,0.1-0.2,0.1-0.3
		C524.9,131,524.9,131.1,524.9,131.3z M551.1,195.9l1.5,0.2l1.5,0.2l0.5,0.1l-0.3,0.3l-1.5,1.6l-0.8,0.8l-0.7,0.7h-0.2l-1.3,0
		l-0.7,0c-1.9-1.3-3.7-2.7-5.4-4.2l0.2-0.1l0.9-0.6l0.9-0.6l0.9-0.6l0.9-0.6l0.9-0.6l0,0l1.6,0.4l1.6,0.4l1.5,0.3l-0.8,0.6l-0.8,0.7
		l-0.8,0.7l-0.1,0.1L551.1,195.9z M554.2,202.9l0.4-0.4l0.8-0.8l0.8-0.8l0.7-0.8l0.6-0.6l0.4,2l0.3,1.3l0.4-0.5l0.7-0.9l0.7-0.9
		l0.5-0.7l0.8,2.4l0.6,2.1l-0.2,0.4l-0.6,1.1l-0.3,0.5c-1.9-0.8-3.8-1.7-5.6-2.6C554.8,203.3,554.5,203.1,554.2,202.9z M564.7,207.5
		l0.1-0.1l0.6,0.3l0.1,0.1C565.3,207.7,565,207.6,564.7,207.5z M592.4,210.1c-1.5,0.2-3,0.3-4.5,0.4c-1.2,0.1-2.5,0.1-3.7,0.1
		c-3.6,0-7.2-0.3-10.6-0.9l0-0.1l0.3-0.6c0.1-0.1,0.1-0.2,0.1-0.3c0-0.1,0-0.2,0-0.3c0-0.5-0.3-1-0.7-1.3l-0.4-0.2l-2.2-1.2
		l-2.3-1.2l-2.2-1.2l-0.4-0.2l-0.2-0.6l-1-3.1l-0.3-1l1.3,0.4l1.8,0.6l0,0l-1.3-3.1l0.4,0.1l1.7,0.4l1.6,0.4l1,0.2l4.5,7.1l0.1,0.1
		c0,0.1,0.1,0.2,0.2,0.2c0.2,0.2,0.4,0.3,0.7,0.4c0.3,0.1,0.6,0,0.9-0.1c0,0,0.1,0,0.1-0.1l0.8-0.5l0.4-0.3c0.2-0.1,0.3-0.3,0.4-0.4
		c0.1-0.1,0.1-0.3,0.2-0.4c0.1-0.3,0-0.7-0.2-1l-1.4-2.2l-2.6-4.2l0.6-0.4l0.9-0.6l0.9-0.6l0.9-0.6l0.9-0.6l0.9-0.6l0.9-0.6l0.2-0.1
		c0.3-0.2,0.5-0.4,0.6-0.7c0,0,0-0.1,0-0.2c0.1-0.3,0-0.7-0.2-1l0,0l12,4.3L588,206l-1.7,3.3l6.2-3.7l7.5-4.5l0.9,2.8l1.3,4.2
		c-0.4,0.1-0.9,0.3-1.3,0.4C598.1,209.2,595.3,209.8,592.4,210.1z M614.2,185.7l-0.7,3.2l0.8,3.3l-5.8-3L614.2,185.7z M608.6,185.9
		l2-6.7l8.2-5.2l-4,8.8L608.6,185.9z M615,195.3l0.9,2.1l1.6,3.6c-0.5,0.3-0.9,0.6-1.4,0.9l-4.3-2.2l-1.2-0.6l-2.5-6.8L615,195.3z
		 M615.2,188.6l3.2-2.1l6.2,2l-6,2.6L615.2,188.6z M604.1,207.4l-1.4-4.1l0-0.1l2-3.5l2,2.1l0.8,0.9l-1.6,4
		C605.3,207,604.7,207.2,604.1,207.4z M605,197.4l-2.9,1.3l3.2-5.9l2.8,6L605,197.4z M596.4,186.2l6.1,3.1l-6.5,3.1l1.7-3.2
		L596.4,186.2z M602.3,191.9l-2.3,6.7l-8.2,4.8l4.2-8.1L602.3,191.9z M605.4,180.2l2.9-1.6l-3.1,7.2l-3.3-7L605.4,180.2z
		 M602.2,174.9l2.9-15.8l3.3,15.9l-3,3.7L602.2,174.9z M602.3,185.8l-6.2-2.3l-4.2-8.5l7.8,4.2L602.3,185.8z M585.1,189.2l7.1-2.8
		l3,2.6l-3.3,2.2L585.1,189.2z M608.5,205.7l1.6-4.5l3.7,2c-0.7,0.4-1.3,0.7-2,1C610.7,204.8,609.6,205.3,608.5,205.7z M628.8,191.7
		c-0.8,0.9-1.7,1.7-2.6,2.5c-2.2,2-4.5,3.9-7,5.6l-1.6-3.5l-1.1-2.4l9.7-4.2l4.3-1.9l-1.8-0.6l-12.2-4.1l7.1-15.3l-12.6,8.5l-6.6-30
		l-5,30.6l-13-6.9l7.3,13.5l-13.3,5.3c-0.1-0.1-0.3-0.2-0.4-0.2c-0.2,0-0.4,0-0.5,0c-0.2,0-0.4,0.1-0.5,0.2l-0.5,0.3l-1.9,1.2
		l-0.9,0.6l-0.9,0.6l-0.9,0.6l-0.9,0.6l-0.9,0.6l-0.6,0.4l-0.5-0.1l-1.6-0.4l-1.6-0.4l-0.8-0.2l0.4-0.3l0.8-0.7l0.8-0.7l0.8-0.7
		l-1.5-0.2l-1.5-0.2l-0.4,0l0.2-0.2l0.8-0.8l0.8-0.8l0.8-0.8l0.7-0.8l0.1-0.1l1.2,0l1.3-0.1l1.3,0l1.3,0l1.3,0l1.3,0l0.7,0
		c0.2,0,0.4-0.1,0.6-0.1c0.3-0.2,0.6-0.5,0.7-0.9c0,0,0-0.1,0-0.1c0-0.1,0-0.2,0-0.4l0-1.4v0c0-0.6-0.4-1.1-1-1.3c0,0-0.1,0-0.1,0
		c-0.1,0-0.2,0-0.4,0l-0.9,0l-1.3,0.1l-1.3,0l-1.3,0l-1.3,0l-1.3,0.1l-0.1-1.9l-0.1-1.9l-0.1-1.9l-0.1-1.7c0-0.1,0-0.1,0-0.2
		c-0.1-0.4-0.4-0.8-0.7-1c-0.1,0-0.2-0.1-0.3-0.1c-0.1,0-0.2,0-0.4,0l-0.8,0l-0.6,0c-0.2,0-0.4,0.1-0.6,0.2
		c-0.4,0.2-0.6,0.5-0.7,0.9v0c0,0.1,0,0.2,0,0.4l0,1.5l0.1,1.9l0.1,1.9l0.1,1.9l0.1,1.8l0,0.1l-0.8,0.8l-0.8,0.8l-0.8,0.8l-0.8,0.8
		l-0.1,0.1l-0.1-0.4l-0.5-2.4l-0.2-0.9l-0.2,0.3l-0.7,0.9l-0.7,0.9l-0.4,0.6l-0.6-1.9l-0.9-2.8l0.1-0.1l0.6-1.1l0.6-1.1l0.6-1.1
		l1.1-2.1l0.6-1.1l0.5-1c0,0,0,0,0-0.1c0-0.1,0.1-0.2,0.1-0.3c0.1-0.6-0.1-1.2-0.7-1.5l-1.2-0.6l0,0c-0.1-0.1-0.2-0.1-0.3-0.1
		c-0.4-0.1-0.7,0-1,0.1c-0.2,0.1-0.4,0.3-0.5,0.6l-0.2,0.3l-0.6,1.1l-1.1,2.1l-0.6,1.1l-0.6,1.1l-0.6,1l-0.1-0.1l-2.3-1.2l-2.2-1.2
		l-2-1.1c-0.1,0-0.1-0.1-0.2-0.1c0,0-0.1,0-0.1,0c-0.4-0.1-0.8,0-1.1,0.2c-0.2,0.1-0.3,0.3-0.4,0.5l-0.2,0.5l-0.4,0.8
		c0,0.1-0.1,0.2-0.1,0.3v0c-0.1,0.6,0.1,1.2,0.7,1.5l0.8,0.4l2.2,1.2l2.3,1.2l2.2,1.2l0.4,0.2l0.2,0.5l0.9,3.1l0.3,0.8l-1.3-0.5
		l-1.9-0.6l-0.4-0.1l1.5,3.4l0,0.1l-1.6-0.4l-1.6-0.4l-1.3-0.3l-4.8-7.6c-0.2-0.3-0.5-0.5-0.9-0.6c-0.2,0-0.5,0-0.8,0
		c-0.1,0-0.2,0.1-0.3,0.2l-0.7,0.4l-0.5,0.4c-0.1,0.1-0.2,0.2-0.3,0.3c-0.1,0.2-0.2,0.4-0.3,0.6c-0.1,0.4,0,0.7,0.2,1l0.3,0.5
		l3.7,5.8l-0.4,0.3l-0.9,0.6l-0.9,0.6l-0.9,0.6l-0.9,0.6l-0.9,0.5c-0.3-0.2-0.5-0.5-0.7-0.7c-1.2-1.2-2.3-2.4-3.4-3.7
		c-1.4-1.6-2.6-3.3-3.8-5.1c-0.4-0.7-0.9-1.3-1.3-2c-5.8-9.5-9.2-20.6-9.2-32.5c0-5.3,0.7-10.4,1.9-15.3c0.3-0.2,0.7-0.4,1-0.6
		c0.1-0.1,0.3-0.2,0.4-0.3c0.6,0.1,1.2,0.3,1.7,0.4c-0.7,0.4-1.4,0.9-2.1,1.3c-0.5,0.3-0.6,0.9-0.3,1.4c0.3,0.4,0.9,0.6,1.4,0.3
		c1.3-0.8,2.5-1.6,3.8-2.3c0.6,0.1,1.1,0.3,1.7,0.4c-1.2,0.7-2.4,1.5-3.6,2.3c-0.8,0.5-0.5,1.8,0.5,1.8c1.4,0,2.9-0.1,4.3-0.1
		c-0.4,0.4-0.8,0.9-1.2,1.3c-1.5,0-3,0.1-4.4,0.1c-0.5,0-1,0.5-1,1c0,0.6,0.4,1,1,1c0.8,0,1.7-0.1,2.5-0.1c-0.4,0.4-0.8,0.8-1.2,1.3
		c-0.9,0-1.8,0-2.7,0.1c-0.5,0-1,0.5-1,1c0,0.6,0.4,1,1,1c0.3,0,0.5,0,0.8,0c-0.4,0.4-0.8,0.9-1.2,1.3c-0.4,0.4-0.4,1,0,1.4
		c0.4,0.4,1,0.3,1.4-0.1c0.4-0.4,0.8-0.9,1.2-1.3c0,0.3,0,0.5,0,0.8c0,0.6,0.5,1,1.1,0.9c0.5-0.1,1-0.5,0.9-1.1
		c0-0.9-0.1-1.8-0.1-2.7c0.4-0.4,0.8-0.8,1.2-1.3c0,0.8,0.1,1.7,0.1,2.5c0,0.6,0.5,1,1,0.9c0.5,0,1-0.5,0.9-1.1c0-1.5-0.1-3-0.1-4.4
		c0.4-0.4,0.8-0.9,1.2-1.3c0.1,1.4,0.1,2.9,0.1,4.3c0,1,1.4,1.3,1.8,0.4c0.7-1.3,1.4-2.5,2.1-3.8c0.2,0.6,0.3,1.1,0.5,1.7
		c-0.7,1.3-1.4,2.6-2.1,3.9c-0.3,0.5-0.1,1.1,0.4,1.4c0.5,0.3,1.1,0.1,1.4-0.4c0.4-0.7,0.8-1.5,1.2-2.2c0.2,0.6,0.3,1.1,0.5,1.7
		c-0.4,0.8-0.8,1.6-1.3,2.4c-0.3,0.5-0.1,1.1,0.4,1.4c0.5,0.3,1.1,0.1,1.4-0.4c0.1-0.2,0.2-0.5,0.4-0.7c0.2,0.6,0.3,1.2,0.5,1.7
		c0.2,0.5,0.7,0.9,1.2,0.7c0.5-0.2,0.8-0.7,0.6-1.3c-0.2-0.6-0.3-1.1-0.5-1.7c0.2,0.1,0.5,0.3,0.7,0.4c0.5,0.3,1.1,0.1,1.3-0.4
		c0.2-0.5,0-1.1-0.4-1.3c-0.8-0.4-1.6-0.9-2.4-1.3c-0.2-0.6-0.3-1.1-0.5-1.7c0.7,0.4,1.5,0.8,2.2,1.2c0.5,0.3,1.1,0.1,1.3-0.4
		c0.2-0.5,0-1.1-0.4-1.4c-1.3-0.7-2.6-1.4-3.9-2.1c-0.2-0.6-0.3-1.1-0.5-1.7c1.3,0.7,2.5,1.4,3.8,2c0.9,0.5,1.8-0.5,1.3-1.4
		c-0.7-1.2-1.5-2.4-2.2-3.7c0.6,0.1,1.1,0.3,1.7,0.4c0.8,1.3,1.5,2.5,2.3,3.8c0.3,0.5,0.9,0.6,1.4,0.4c0.5-0.3,0.6-0.9,0.4-1.4
		c-0.4-0.7-0.9-1.4-1.3-2.1c0.6,0.1,1.1,0.3,1.7,0.4c0.5,0.8,0.9,1.5,1.4,2.3c0.3,0.5,0.9,0.6,1.4,0.4c0.5-0.3,0.7-0.9,0.4-1.3
		c-0.1-0.2-0.3-0.5-0.4-0.7c0.6,0.1,1.2,0.3,1.7,0.4c0.5,0.1,1.1-0.2,1.2-0.7c0.1-0.5-0.2-1.1-0.8-1.2c-0.6-0.1-1.2-0.3-1.7-0.4
		c0.2-0.1,0.5-0.3,0.7-0.4c0.5-0.3,0.6-0.9,0.3-1.4c-0.3-0.5-0.9-0.6-1.4-0.3c-0.8,0.5-1.5,0.9-2.3,1.4c-0.6-0.1-1.2-0.3-1.7-0.4
		c0.7-0.4,1.4-0.9,2.1-1.3c0.5-0.3,0.6-0.9,0.3-1.4c-0.3-0.4-0.9-0.6-1.4-0.3c-1.3,0.8-2.5,1.6-3.8,2.3c-0.6-0.1-1.2-0.3-1.7-0.4
		c1.2-0.8,2.4-1.5,3.6-2.3c0.8-0.5,0.5-1.8-0.5-1.8c-1.4,0-2.9,0.1-4.3,0.1c0.4-0.4,0.8-0.9,1.2-1.3c1.5,0,3-0.1,4.4-0.1
		c0.6,0,1-0.5,1-1c0-0.6-0.4-1-1-1c-0.8,0-1.7,0-2.5,0.1c0.4-0.4,0.8-0.8,1.2-1.3c0.9,0,1.8-0.1,2.7-0.1c0.6,0,1-0.5,1-1
		c0-0.6-0.4-1-1-1c-0.3,0-0.5,0-0.8,0c0.4-0.4,0.8-0.9,1.2-1.3c0.4-0.4,0.4-1,0-1.4c-0.4-0.4-1.1-0.3-1.4,0.1
		c-0.4,0.4-0.8,0.9-1.2,1.3c0-0.3,0-0.5,0-0.8c0-0.6-0.5-1-1.1-0.9c-0.5,0.1-1,0.5-0.9,1.1c0,0.9,0.1,1.8,0.1,2.7
		c-0.4,0.4-0.8,0.9-1.2,1.3c0-0.8-0.1-1.7-0.1-2.5c0-0.6-0.5-1-1.1-0.9c-0.5,0.1-1,0.5-0.9,1.1c0.1,1.5,0.1,3,0.1,4.4
		c-0.4,0.4-0.8,0.8-1.2,1.3c-0.1-1.4-0.1-2.8-0.1-4.3c0-1-1.4-1.3-1.8-0.4c-0.7,1.3-1.4,2.5-2.1,3.8c-0.2-0.6-0.3-1.1-0.5-1.7
		c0.7-1.3,1.4-2.6,2.1-3.9c0.3-0.5,0.1-1.1-0.4-1.4c-0.5-0.3-1.1-0.1-1.4,0.4c-0.4,0.7-0.8,1.5-1.2,2.2c-0.2-0.6-0.3-1.1-0.5-1.7
		c0.4-0.8,0.9-1.6,1.3-2.4c0.3-0.5,0.1-1.1-0.4-1.4c-0.5-0.3-1.1-0.1-1.4,0.4c-0.1,0.2-0.3,0.5-0.4,0.7c-0.2-0.6-0.3-1.1-0.5-1.7
		c-0.2-0.5-0.7-0.8-1.2-0.7c-0.5,0.2-0.8,0.7-0.6,1.3c0.2,0.6,0.3,1.1,0.5,1.7c-0.2-0.1-0.5-0.3-0.7-0.4c-0.5-0.3-1.1-0.1-1.3,0.4
		c-0.2,0.5,0,1.1,0.4,1.4c0.8,0.4,1.6,0.8,2.4,1.3c0.2,0.6,0.3,1.1,0.5,1.7c-0.7-0.4-1.5-0.8-2.2-1.2c-0.5-0.3-1.1-0.1-1.3,0.4
		c-0.2,0.5-0.1,1.1,0.4,1.4c1.3,0.7,2.6,1.4,3.9,2.1c0.2,0.6,0.3,1.1,0.5,1.7c-1.3-0.7-2.5-1.4-3.8-2c-0.9-0.5-1.8,0.5-1.3,1.4
		c0.7,1.2,1.5,2.4,2.2,3.7c-0.6-0.1-1.1-0.3-1.7-0.4c-0.8-1.3-1.5-2.5-2.3-3.8c-0.2-0.4-0.7-0.6-1.2-0.4c-0.1,0-0.1,0.1-0.2,0.1
		c-0.5,0.3-0.6,0.9-0.4,1.3c0.4,0.7,0.9,1.4,1.3,2.2c-0.6-0.1-1.1-0.3-1.7-0.4c0-0.1-0.1-0.1-0.1-0.2c-0.2-0.3-0.4-0.7-0.6-1
		c0-0.1,0.1-0.2,0.1-0.3c0.2-0.5,0.3-0.9,0.5-1.4c0.2-0.4,0.3-0.9,0.5-1.3c4.6-11.9,12.7-22,23.1-29.1c0.9,2.2,1.7,4.5,1.7,4.7
		c-0.5,0.2-1.7,1.4-2,1.4c-0.2,0-1.7-1-2.1-1.1l0.8,2.4l-0.8,0.6c-0.3,0.2-1,0.6-1.3,1l2.6-0.1l0.8,2.1c-0.3,0.3-10.2,5.6-10.7,6.2
		c2,0.4,9.6,1.3,12,1.6c0.1,0.3,0.2,1.9,0.3,2.3c-0.2,0.1-1.9,0.7-2.3,0.9c0.6,0.5,1.8,0.5,2.5,0.8c0.2,0.2,0.3,1.9,0.6,2.4l1.3-2.1
		c0.5,0.1,1.9,0.4,2.2,0.6c0,0.9-0.1,2.2-0.1,3.1l0,9.5c0,0,0,0,0.1,0l2.1-2.7l0,0l0.8-1c0.3-0.5,0.6-0.8,1-1.2l1.9-2.5
		c0.4-0.5,1.6-2,1.8-2.5c0.5,0,1.6,0.6,2.3,0.7l-0.2,2.8c0.3-0.1,0.7-0.6,0.8-0.8c1.2-1.5,1.2-1.1,1.9-0.8c0.4,0.1,0.9,0.3,1.3,0.4
		c-0.1-0.7-0.8-1.3-0.9-2c0.3-0.3,1.5-1.5,1.8-1.6c0.5,0.2,1.9,1.1,2.6,1.5c1.2,0.6,3.1,1.8,3.9,2.2c0.5,0.2,0.8,0.5,1.3,0.7
		l2.6,1.4c-0.9-1.9-1.5-3.8-2.3-5.7c-0.4-1-0.8-1.9-1.2-2.9c-0.3-0.7-1.1-2.3-1.2-2.8c0.4-0.3,1.2-1,1.5-1.2
		c0.6,0.2,1.5,1.2,2.3,1.6l-0.5-2.5c0.4-0.2,0.8-0.5,1.2-0.8c0.2-0.1,0.4-0.3,0.6-0.4c0.3-0.2,0.3-0.1,0.6-0.4l-2.7-0.2l-0.2-2.5
		l4-2.3c1.1-0.7,6-3.4,6.5-3.8c-0.1-0.1-0.5-0.2-1-0.3l2.2-2.2l1.9,0.5l-2.8,2.8l3,0.8l2.8-2.8l4.1,1.1l-1.2,1.2
		c-0.4-0.4-1.1-0.6-1.7-0.5c-1,0.2-1.6,1.2-1.3,2.2c0.3,1,1.2,1.6,2.2,1.3c0.6-0.2,1.1-0.6,1.3-1.2l1.7,0.5l-3,2.9l-3.9-1.1
		l-2.2,2.1l3.8,1.1l-1.4,1.4l-3.8-1.1l-2.2,2.1l3.8,1.1l-1.5,1.4l0.4,1.5l1.5,0.4l1.5-1.4l1,3.8l2.2-2.2l-1-3.8l1.4-1.4l1,3.8
		l2.2-2.2l-1-3.8l3-2.9l0.5,1.7c-0.6,0.2-1.1,0.6-1.3,1.3c-0.3,1,0.3,2,1.3,2.2c1,0.3,2-0.3,2.2-1.3c0.2-0.6,0-1.3-0.4-1.7l1.3-1.2
		l1,4.1l-2.8,2.8l0.8,3l2.9-2.8l0.5,1.9l-2.9,2.8l0.8,3l2.9-2.8l0.5,2l1.5,0.4l1.1-1.1l-0.5-2l3.8,1.1l-0.8-3l-3.8-1.1l-0.5-1.9
		l3.8,1.1l-0.8-3l-3.8-1.1l-1-4.1l1.7,0.4c-0.1,0.6,0,1.2,0.5,1.7c0.7,0.7,1.9,0.7,2.6,0c0.7-0.7,0.7-1.8,0-2.6
		c-0.5-0.5-1.1-0.6-1.7-0.5l-0.4-1.7l4.1,1.1l1,3.9l3,0.8l-1-3.9l1.9,0.5l1,3.9l3,0.8l-1-3.9l2,0.6l1.1-1.1l-0.4-1.5l-2-0.5l2.8-2.8
		l-3-0.8l-2.8,2.8l-1.9-0.5l2.8-2.8l-3-0.8l-2.8,2.8l-4.1-1.1l1.2-1.2c0.4,0.4,1.1,0.6,1.7,0.5c1-0.3,1.6-1.2,1.3-2.2
		c-0.3-1-1.2-1.6-2.2-1.3c-0.7,0.2-1.1,0.7-1.3,1.2l-1.7-0.5l3-3l3.8,1.1l2-2l0.2-0.2l-0.8-0.2l-3.1-0.9l0.7-0.7l0.4-0.4
		c0.8,0.5,1.5,0.9,2.3,1.4c0.2,0.1,0.4,0.2,0.6,0.4c12.9,8.7,22.3,22.2,25.8,37.8l-5.4,8.6l-10.4-2l6.9,7.6l-5.8,9.1l10-4.4l5.2,5.8
		C643.1,172.1,637.2,183.1,628.8,191.7z M528.4,132.1c0.1-0.3,0.3-0.4,0.6-0.4c0.3,0.1,0.4,0.3,0.4,0.6c-0.1,0.3-0.3,0.4-0.6,0.4
		C528.5,132.6,528.4,132.4,528.4,132.1z M535.9,131.7l0.4,1.3l-1.3-0.3l-1.3-2.2L535.9,131.7z M535.2,126.1
		c-0.3,0.1-0.5-0.1-0.6-0.3c-0.1-0.3,0.1-0.5,0.3-0.6c0.3-0.1,0.5,0.1,0.6,0.3C535.6,125.8,535.5,126.1,535.2,126.1z M540.4,132.8
		l2.5-0.1l-2.1,1.3l-1.3-0.3L540.4,132.8z M540.3,130.8c0.2-0.2,0.5-0.2,0.7,0c0.2,0.2,0.2,0.5,0,0.7c-0.2,0.2-0.5,0.2-0.7,0
		C540.2,131.3,540.2,131,540.3,130.8z M542.4,135.5c-0.1,0.3-0.3,0.4-0.6,0.4c-0.3-0.1-0.4-0.3-0.4-0.6c0.1-0.3,0.3-0.4,0.6-0.4
		C542.3,134.9,542.5,135.2,542.4,135.5z M540.4,136l1.3,2.2l-2.2-1.2l-0.4-1.3L540.4,136z M540.1,142.5c0.3-0.1,0.5,0.1,0.6,0.3
		c0.1,0.3-0.1,0.5-0.3,0.6c-0.3,0.1-0.5-0.1-0.6-0.3C539.7,142.8,539.8,142.6,540.1,142.5z M539.4,138.4c0.1,0.3-0.1,0.5-0.3,0.6
		c-0.3,0.1-0.5-0.1-0.6-0.3c-0.1-0.3,0.1-0.5,0.3-0.6C539,138,539.3,138.2,539.4,138.4z M538.1,132.4l-0.4-1.3l1.2-2.2l0.1,2.5
		L538.1,132.4z M538.5,133.7c0.3,0.5,0.2,1.1-0.2,1.4c-0.4,0.3-1.1,0.2-1.4-0.2c-0.3-0.4-0.2-1.1,0.2-1.4
		C537.5,133.2,538.1,133.3,538.5,133.7z M537.6,137.5l-1.2,2.2l-0.1-2.5l0.9-0.9L537.6,137.5z M536.5,130.5
		c-0.3,0.1-0.5-0.1-0.6-0.3c-0.1-0.3,0.1-0.5,0.3-0.6c0.3-0.1,0.5,0.1,0.6,0.3C536.9,130.2,536.8,130.5,536.5,130.5z M533.8,133.4
		c-0.1,0.3-0.3,0.4-0.6,0.4c-0.3-0.1-0.4-0.3-0.4-0.6c0.1-0.3,0.3-0.4,0.6-0.4C533.7,132.9,533.9,133.1,533.8,133.4z M534.5,134.6
		l1.3,0.3l-0.9,1l-2.5,0.1L534.5,134.6z M535,137.9c-0.2,0.2-0.5,0.2-0.7,0c-0.2-0.2-0.2-0.5,0-0.7c0.2-0.2,0.5-0.2,0.7,0
		C535.1,137.4,535.2,137.7,535,137.9z M531.8,141.2c-0.2,0.2-0.5,0.2-0.7,0c-0.2-0.2-0.2-0.5,0-0.7c0.2-0.2,0.5-0.2,0.7,0
		C532,140.7,532,141,531.8,141.2z M528.7,144.5c-0.2,0.2-0.5,0.2-0.7,0c-0.2-0.2-0.2-0.5,0-0.7c0.2-0.2,0.5-0.2,0.7,0
		C528.8,144,528.8,144.3,528.7,144.5z M541.1,147.5c-0.1-0.3,0.1-0.5,0.3-0.6c0.3-0.1,0.5,0.1,0.6,0.3c0.1,0.3-0.1,0.5-0.3,0.6
		C541.4,147.9,541.2,147.8,541.1,147.5z M545.9,136.3c0.1-0.3,0.3-0.4,0.6-0.4c0.3,0.1,0.4,0.3,0.4,0.6c-0.1,0.3-0.3,0.4-0.6,0.4
		C546,136.8,545.9,136.6,545.9,136.3z M550.4,137.4c0.1-0.3,0.3-0.4,0.6-0.4c0.3,0.1,0.4,0.3,0.4,0.6c-0.1,0.3-0.3,0.4-0.6,0.4
		C550.5,137.9,550.4,137.6,550.4,137.4z M543.5,127.4c0.2-0.2,0.5-0.2,0.7,0c0.2,0.2,0.2,0.5,0,0.7c-0.2,0.2-0.5,0.2-0.7,0
		C543.3,127.9,543.3,127.6,543.5,127.4z M546.6,124.1c0.2-0.2,0.5-0.2,0.7,0c0.2,0.2,0.2,0.5,0,0.7c-0.2,0.2-0.5,0.2-0.7,0
		C546.5,124.6,546.5,124.3,546.6,124.1z M534.2,121.2c0.1,0.3-0.1,0.5-0.3,0.6c-0.3,0.1-0.5-0.1-0.6-0.3c-0.1-0.3,0.1-0.5,0.3-0.6
		C533.9,120.7,534.2,120.9,534.2,121.2z"/>
</g>
<g>
	<text transform="matrix(0.6983 0.5222 -0.4858 0.8741 240.6126 117.5254)" class="st0 st5">Name</text>
	<path class="st6" d="M299.6,98.7c0.6-0.2,1.1-0.3,1.3-0.4h0c3.6-1.6,7.3-4.3,10.1-7c6.5-7.9-1.2-16.5-1.2-24.8
		c0-7,3.7-14.5,0.6-21.6c-1.8-4.7-6.3-6.8-11.4-7c-4.5-0.1-8.9,1.1-12.1,3.2c-3.2,2.1-18.8,17.9-19.1,17.9c-0.2-1-0.7-1.8-1.5-2.4
		c-0.7-0.5-1.6-0.9-2.5-0.9h-4.5c-0.7,0-1.4,0.2-2,0.5c-0.9,0.5-1.7,1.5-1.7,2c-5-6.8-11-14-17.5-19c-3-2.3-7.4-3.9-11.8-4.1
		c-5.1-0.1-9.7,1.6-11.8,6.1c-3.6,6.8-0.5,14.6-1,21.6c-0.6,8.2-9,16.3-3,24.6c3.3,3.9,6.9,7.3,11.8,9c0,0,0,0,0,0
		c0.2,0.1,0.4,0.2,0.6,0.3c-10.2,6.2-18.6,14.9-24.6,25.3c-5.9,10.3-9.3,22.3-9.3,35.1c0,39.1,31.7,70.8,70.8,70.8
		c13.1,0,25.4-3.6,35.9-9.8c0.2,0,0.4-0.2,0.6-0.3c2.9-1.7,5.6-3.6,8.1-5.7c0.4-0.3,0.7-0.6,1-0.8c0.1-0.1,0.2-0.2,0.3-0.3
		c1.3-1.1,2.6-2.3,3.9-3.5c0.9-0.9,1.8-1.8,2.6-2.7c0.3-0.3,0.6-0.6,0.8-0.9c0.2-0.2,0.4-0.4,0.6-0.7c0.4-0.4,0.7-0.8,1.1-1.3
		c0.2-0.2,0.4-0.5,0.6-0.7l1.1-1.4c0.4-0.5,0.7-1,1.1-1.5c0.3-0.4,0.6-0.8,0.9-1.2c0.3-0.4,0.5-0.8,0.8-1.2c0.2-0.3,0.4-0.5,0.5-0.8
		c0.1-0.2,0.3-0.4,0.4-0.6c6.7-10.8,10.6-23.6,10.6-37.3C330.5,132.8,318.3,111.4,299.6,98.7z M296.7,42.8c5.8-1.8,8,2.6,5.4,8.2
		c-6.7,5.8-15.3,9.2-24.2,9.5C281.2,52,288.1,45.5,296.7,42.8z M282.1,89.1l0.3,0.5c0,0-0.1,0.2-0.1,0.4c-3-1-6.1-1.8-9.3-2.4
		c-0.4-0.7-0.8-1.4-1.2-2.2c0-0.1-0.1-0.2-0.1-0.2c-1.4-2.6-2.4-5.6-3.1-8.5L282.1,89.1z M259.3,61.7c0.7-0.6,1.5-0.9,2.4-0.9
		c0.9,0,1.7,0.4,2.4,1.1c0.6,0.6,0.9,1.5,0.9,2.4c0,0.9-0.4,1.7-1.1,2.4c-0.7,0.6-1.5,0.9-2.4,0.9c-0.9,0-1.7-0.4-2.3-1.1
		c-0.6-0.6-0.9-1.5-0.9-2.4C258.2,63.1,258.6,62.3,259.3,61.7z M222.1,48c-2.1-5.7,0.4-10,6-7.7c8.4,3.4,14.8,10.4,17.5,19
		C236.7,58.3,228.4,54.3,222.1,48z M254.1,76.3c-1,3.2-2.3,6.3-4.2,9h0c0,0.1,0,0.1-0.1,0.2c0,0-0.1,0.1-0.1,0.2
		c-0.2,0.3-0.7,0.9-1.2,1.6c-3.3,0.5-6.4,1.3-9.5,2.2l-0.1-0.4l0.8-1.3L254.1,76.3z M221.3,110.2l1.3-1.4l1.6-1.3l1.3-0.7l0.6,0.1
		l0.7,0.4l1.6,1.4l3.6,3.7l2.8,2.9l-3.6,1.2l-2.7,1l-1.7,0.8l-1.7,1l-0.9,0.4l-1.8-3.8l-1.2-2.8l-0.5-1.7L221.3,110.2z M240.1,127
		c1,0,1.9,0.8,1.9,1.9c0,1-0.8,1.9-1.9,1.9c-1,0-1.9-0.8-1.9-1.9C238.3,127.9,239.1,127,240.1,127z M238.8,124.7l0-0.6l0.4-0.8
		l0.4-0.4l0.6,0l2.9,1.5l0.4,0.4l0,0.6l-0.4,0.8l-0.4,0.4l-0.6,0l-2.9-1.5L238.8,124.7z M247.1,131.1
		C247.1,131.1,247.1,131.1,247.1,131.1L247.1,131.1c0.2,0,0.3,0,0.4,0.1c0,0,0.1,0,0.1,0.1l0.1,0.1c0,0,0,0,0,0c0,0,0,0.1,0,0.1
		c0,0.2,0,0.5-0.2,0.6c0,0-0.1,0-0.1,0.1c-3,1.7-6,3.4-9,5c-0.5,0-1-0.2-1.5-0.4c-0.4-0.3-0.8-0.6-1-1.1c-0.3-0.6-0.4-1.1-0.2-1.7
		l0.3-0.8l0.4-0.6C240,132.1,243.6,131.6,247.1,131.1z M246.6,146.1l0.4,0.2l0,0c1.3,0.8,2.7,1.7,3.8,3.2c0.3,0.3,0.5,0.7,0.8,1.1
		c0.3,0.6,0.7,1.2,0.9,2c0.5,2.1-0.2,3.8-0.4,4.3c-0.4,1-0.9,1.6-1.5,2.3c-0.2,0.2-0.4,0.4-0.5,0.6c-0.6,0.7-1.3,1.3-2.1,1.5
		c-0.1,0-0.3,0.1-0.4,0.1c-0.2,0-0.5,0.1-0.7,0c-0.4-0.3-0.2-1.2-0.1-2.2c0,0,0.2-1.7-0.1-3.8c-0.2-1.2-0.5-2-1.1-3.5
		c-0.6-1.4-1.1-2.4-1.6-3.2c-0.6-1-1.5-2.4-2.7-3.9c0.5-0.1,1.2-0.2,2-0.1c0.6,0.1,1.4,0.2,3,1.2C246.4,145.9,246.5,146,246.6,146.1
		z M268.1,186.9l-0.5,4.1l-0.7,2.3l-1.2,2.4l-1.6,2.4l-1.8,2.3l-1.9,2l-1.8,1.6l-1.6,1.1l-1.1,0.4l-0.2-0.5l-0.1-1.3l0-4.5l-0.1-5.8
		l-0.2-3l-0.4-2.8l0.2-0.5l0.3-0.2l0.9,0.1l2.5,1.3l1.5,0.4l1.6-0.2l1.6-0.5l1.5-0.7l2.3-1.2l0.6-0.2l0.1,0l0,0.2L268.1,186.9z
		 M266.5,183.3c-0.2,0.4-1.9,3.2-5.3,3.5c-0.4,0-0.9,0-1.3,0c0,0,0,0,0,0c-1.7-0.2-3.3-1.1-4.3-2.4c-0.1-0.2-0.2-0.3-0.3-0.5
		c-0.2-0.4-1.6-2.4-0.8-4.6c0,0,0,0,0-0.1c0.2-0.5,0.8-2.3,2.5-2.6c0,0,0,0,0,0c0.1,0,0.6-0.1,1.2,0c0,0,0,0,0,0
		c0.3,0,0.6,0.1,0.8,0.3c0,0,0,0,0,0c0.1,0,0.1,0.1,0.2,0.1c0,0,0,0,0,0c0.2,0.1,0.3,0.2,0.5,0.4c0.4,0.4,0.6,1,0.6,1.5
		c0,0.2,0,0.5-0.2,0.7c-0.2,0.4-0.8,0.9-1.4,1.3c-0.3,0.1-0.5,0.2-0.5,0.4c-0.1,0.4,0.4,0.9,0.7,1.1c0.9,0.6,2.4,0.4,3.4-0.1
		c1.3-0.7,2.2-2,2.2-3.5v-0.3c0-0.6-0.2-1.1-0.4-1.5c0,0,0,0,0,0l-0.3-0.6c-0.4-0.5-0.7-0.8-0.9-1c-1.7-1.5-3.9-1.3-4.4-1.3
		c-0.3,0-0.8,0.1-1.5,0.3h-0.1l-0.1,0.1c0,0,0,0,0,0c-0.4,0.2-0.9,0.4-1.4,0.8c-1.1,0.9-1.2,1.9-2.6,2.6c-0.7,0.4-1.2,0.3-1.4,0.3
		c-0.1,0-0.2,0-0.2,0c-0.4-0.1-0.6-0.3-0.9-0.6c-0.3-0.2-0.4-0.5-0.6-0.7c-2.3-3.2-3.9-6.3-3.9-6.3c-0.3-0.6-0.8-1.5-1.4-2.6
		c0.9-0.8,2.3-1.9,4.1-2.3c0.6-0.2,1.2-0.2,1.8-0.2c0.1,0,0.3,0,0.4,0c0.2,0,0.4,0,0.8,0.1c0.3,0,0.5,0.1,0.8,0.2c0,0,0,0,0,0
		c2.7,0.7,5.2,2.4,7.4,4.1c0,0,0,0,0,0c0.7,0.5,1.3,1,1.8,1.5c3.4,3,5,4.5,5.5,6.5C267.3,178.3,267.9,180.8,266.5,183.3z M234.2,150
		c-2.7-0.2-3.7-0.8-5.3-0.6c-0.2,0-0.5,0-0.8,0.1c-0.4,0.1-0.8,0.3-1.3,0.6c-0.1,0.1-0.3,0.2-0.6,0.4c-0.4,0.4-0.9,0.9-1.1,1.8
		c-0.1,0.4-0.4,1.3,0,2.3c0.6,1.3,1.9,1.6,2.2,1.7c0.4,0.1,1.3,0.3,2-0.2c0.3-0.2,0.5-0.5,0.5-0.7c-0.2-0.1-0.3-0.1-0.5-0.2
		c-0.5-0.3-0.9-0.8-1.1-1.3c0,0,0,0,0,0c-0.1-0.3-0.2-0.5-0.2-0.8c0-1.2,1-2,1.1-2c0.2-0.1,0.3-0.2,0.5-0.3l0.5-0.1
		c0.2,0,0.4,0,0.5,0c1,0,1.8,0.5,1.9,0.5c1.7,1,1.8,3.2,1.8,3.5c0.1,2.6-2,4.2-2.1,4.3c-2,1.5-4.4,0.8-5.4,0.6
		c-0.3-0.1-1.1-0.3-1.9-0.8l-1.4-1c-0.4-0.4-0.8-0.9-1.1-1.5c-0.3-0.5-1.3-2.2-0.8-4.3c0,0,0,0,0,0l0.2-0.6l0.8-1.2l1.1-1.2v0
		l0.1-0.1l0.3-0.2c0.3-0.2,0.6-0.4,0.9-0.6c1.1-0.8,2.5-1.4,5.3-2.6c1.3-0.5,2.4-1,3.1-1.2c1.1,0.9,1.8,1.8,2.3,2.4
		c0.7,1,0.9,1.4,0.8,1.9c0,0.1-0.1,0.9-0.8,1.4C235.1,150,234.6,150,234.2,150z M235.3,164.2c-0.5,0.2-3.4,1.5-6.6,0.1
		c-1.8-0.8-2.8-2-3.3-2.7c0.7,0.2,2,0.5,3.5,0.4c0.2,0,1-0.1,1.7-0.3c2.3-0.7,3.8-2.4,4.4-3.3c0.2,0.9,0.3,2,0.4,3.2
		C235.4,162.6,235.4,163.5,235.3,164.2z M229.1,126.5l0.2-0.5l2.4-2.2l0.6-0.2l0.5,0.2l0.6,0.7l0.2,0.5l-0.2,0.5l-2.4,2.2l-0.5,0.2
		l-0.5-0.2l-0.6-0.7L229.1,126.5z M235.7,140.4c-0.2,0-0.7,0-1.3-0.3c-0.9-0.4-1.4-1.1-1.8-1.6c-0.3-0.4-0.7-1-0.9-1.8
		c0.8,0.7,4.1,3.2,7.6,2.3c0.3-0.1,0.6-0.2,0.9-0.3c0.2-0.1,0.3-0.1,0.5-0.2C240.2,138.8,237.8,140.5,235.7,140.4z M240,156
		c1.7,0,3,1.4,3,3c0,1.7-1.4,3.1-3,3.1c-1.7,0-3.1-1.4-3.1-3.1C236.9,157.3,238.3,156,240,156z M242.9,172.3c1.7,0,3.1,1.4,3.1,3
		c0,1.7-1.4,3.1-3.1,3.1c-1.7,0-3-1.4-3-3.1C239.9,173.6,241.2,172.3,242.9,172.3z M246.6,191.8c-1.7,0-3.1-1.4-3.1-3
		c0-1.7,1.4-3.1,3.1-3.1c1.7,0,3,1.4,3,3.1C249.6,190.5,248.2,191.8,246.6,191.8z M249.6,201.5c0,1.7-1.4,3.1-3,3.1
		c-1.7,0-3.1-1.4-3.1-3.1c0-1.7,1.4-3,3.1-3C248.2,198.4,249.6,199.8,249.6,201.5z M234.2,131.8c-1,0-1.9-0.8-1.9-1.9
		c0-1,0.8-1.9,1.9-1.9c1,0,1.9,0.8,1.9,1.9C236.1,130.9,235.3,131.8,234.2,131.8z M209.4,178.2l-0.9,3.4l-0.3,3.6l0.1,2.8l0.4,2.8
		l0.7,2.7l0.1,0.2c-7.5-10.3-11.9-22.9-11.9-36.5c0-17.6,7.4-33.6,19.2-44.9l0.1,0.2l4.6,9.5l-1.2,1.9l-0.9,2.1l-0.6,2.2l-0.2,2.3
		l0.1,2.1l0.4,2l0.6,1.9l0.9,1.8l1.1,1.6l1.3,1.5l1.5,1.3l1.6,1c-1.4,0.3-4,1.1-6.4,3.4c-1.1,1.1-1.9,2.3-2.4,3.4c0,0,0,0,0,0
		c-0.5,1-0.8,1.9-0.9,2.6c-0.5-0.5-2.5-2.2-5.2-2.2c-4,0-7.3,3.3-7.3,7.3c0,4,3.3,7.3,7.3,7.3c3.7,0,6.8-2.8,7.2-6.5
		c0.4,0.6,0.9,1.2,1.7,1.9c1,0.9,2.1,1.5,3,1.9l-2.9,1.8l-2.9,2.2l-2.6,2.6l-2.2,2.8l-1.8,3.1L209.4,178.2z M215.5,158
		c0,2.3-1.9,4.2-4.2,4.2c-2.3,0-4.2-1.9-4.2-4.2s1.9-4.2,4.2-4.2C213.6,153.8,215.5,155.7,215.5,158z M223.3,202.5
		c-0.6-0.6-1.1-1.7-0.7-2.4c0.4-0.7,1.4-0.5,1.9-1.4c0.1-0.1,0.1-0.2,0.1-0.3l0.3-0.4l0-0.6l-0.4-0.5l-0.2-0.1h0
		c-0.6-0.6-1.9-0.7-2.8-0.4c-1.6,0.5-2.3,2.4-2.4,2.6c-0.5,1.2-0.3,2-0.8,2.3c-0.5,0.2-1.2-0.3-1.4-0.4c-0.2-0.1-0.4-0.4-0.7-0.7
		c-1.6-1.7-4.4-6.1-4.1-12.9c0.1-3.6,0.3-8.2,3.1-11v0c0.4-0.4,0.9-0.8,1.4-1.1c3.8-2.3,8.3-0.6,8.8-0.3c1.1,0.5,4.5,1.8,5.5,5.3
		c0.8,2.5,0.4,6.3-2.5,8.1c-2.3,1.5-5.3,1-7.2-0.4h0c-0.1-0.1-0.2-0.2-0.3-0.2c-1.3-1-2.5-2.7-2.6-4.4v-0.1l0.1-0.9v0
		c0.3-1.2,1.3-2.7,2.4-2.6c0.7,0,1.3,0.7,1.5,1.1c1.1,1.4,0.5,2.8,1.6,3.6c0.1,0.1,0.4,0.3,0.9,0.3c0.7,0,1.2-0.5,1.4-0.7
		c1-0.9,1.3-3.2,0.5-4.6v0l0-0.1l0-0.1l-0.2-0.3c0,0,0,0,0,0l-0.2-0.2l-0.2-0.2c-0.1-0.1-0.1-0.1-0.2-0.2c0,0-0.1-0.1-0.1-0.1
		c0,0,0,0,0,0l-0.1-0.1l-0.1,0c-2.4-1.7-7.3-1.5-9.4,1.1c-0.2,0.3-0.4,0.6-0.6,1c0,0,0,0,0,0l-0.1,0.2l-0.3,1l0,0.5v0
		c-0.1,0.9,0,1.6,0,1.8c0.4,2.8,2.6,4.5,4.4,6c2,1.6,2.6,1.3,5.6,3.7c1.3,1,2.4,2,3.1,3.6c0.3,0.6,0.6,1.6,0.4,2.7
		c-0.2,1.3-1.2,2.9-2.8,3.3C225.6,203.1,224.2,203.5,223.3,202.5z M227.8,208.7l-0.7-0.3l-0.4-0.3l-0.1-0.3l0.2-0.3l1-0.7l1.3-0.8
		l1.3-0.8l0.8-0.8l1.2-3.3l0.2-1.3l-0.1-1.2l-0.5-1.2l-0.9-1.3l-3.2-3.4l0.1-0.4l0.6-0.5l2.3-1.7l1.3-1.1l1.2-1.3l1-1.4l0.6-1.6
		l0.2-1.4l0-1.4l-0.2-1.3l-0.3-1.3l-0.5-1.2l-0.6-1.1l-1.7-2l-2.3-1.6l-2.8-1.1l-3.3-0.5H222l-1.9,0.1l3.2-2.3l1.8-1.7l0.8-1.1
		l0.3-0.6l0.2-0.1l0.6,0.2l1.3,0.6l2.5,0.9l0.7,0l0.8-0.1l0.9,0l1,0.2l1.1,0.8l1.1,1.5l1.1,2.5l1,3.8l0.6,3.4l0.4,3.1l0.2,2.8l0,2.6
		l-0.4,4.6l-0.8,3.9l-1,3.4l-1,3.1l-0.8,2.9l-0.4,3l-4.9-0.4L227.8,208.7z M294.6,208.5c-1.5,1-3,2-4.6,2.9c0-0.4,0.1-0.9,0.1-1.3
		l4.5-2.8V208.5z M294.6,205.1c-0.7,0.5-1.4,0.9-2.1,1.3c0.1-0.8,0.2-1.7,0.3-2.5c0.6-0.4,1.2-0.7,1.9-1.1V205.1z M294.6,200.9
		c-0.9,0.5-1.8,1-2.7,1.5c-0.8-0.4-1.5-0.7-2.3-1c-0.4-0.2-1,0-1.2,0.4c-0.2,0.5,0,1,0.4,1.2c0.4,0.2,0.8,0.3,1.1,0.5
		c-0.4,0.2-0.8,0.5-1.3,0.7c-0.4,0.2-0.6,0.8-0.3,1.2c0.2,0.4,0.8,0.6,1.2,0.3c0.4-0.2,0.8-0.5,1.3-0.7c0,0.4-0.1,0.8-0.1,1.2
		c0,0.4,0.2,0.8,0.6,0.9c-0.7,0.5-1.5,0.9-2.2,1.4c-0.8-0.3-1.5-0.6-2.3-0.9c-0.5-0.2-1,0-1.2,0.5c-0.2,0.5,0,1,0.5,1.2
		c0.4,0.2,0.7,0.3,1.1,0.5c-0.6,0.4-1.1,0.7-1.7,1.1c-0.4,0.3-0.6,0.8-0.3,1.2c0.3,0.4,0.8,0.5,1.2,0.3c0.6-0.4,1.1-0.7,1.7-1.1
		c0,0.4,0,0.7-0.1,1.1c-4.3,2.2-8.8,3.9-13.5,5.1c-4.7,1.2-9.7,1.8-14.8,1.8c-10.3,0-20-2.5-28.5-6.9l2.1,0.5l3.2,0.5l3.3,0.2
		l3.3-0.1l3.2-0.4l3.1-0.6l3-0.9l2.8-1.1l2.7-1.3l2.5-1.5l2.3-1.7l2.1-1.9l1.9-2.1l1.6-2.2l1.4-2.4l1.1-2.5l0.5-1.6
		c0.4,0.2,0.7,0.4,1.1,0.6c-0.4,0.2-0.7,0.4-1.1,0.5c-0.4,0.2-0.6,0.7-0.4,1.2c0.2,0.4,0.7,0.6,1.2,0.4c0.7-0.4,1.5-0.7,2.2-1.1
		c1.6,0.8,3.2,1.7,4.7,2.5c-0.6,0.3-1.2,0.7-1.8,1c-1.1-0.6-2.2-1.2-3.3-1.8c-0.4-0.2-1-0.1-1.2,0.4c-0.2,0.4-0.1,1,0.4,1.2
		c0.8,0.4,1.6,0.8,2.3,1.2c-0.5,0.3-1.1,0.6-1.6,0.9c-0.7-0.3-1.4-0.5-2.1-0.8c-0.5-0.2-1,0.1-1.1,0.5c-0.2,0.5,0,1,0.5,1.2
		c0.2,0.1,0.5,0.2,0.7,0.3c-0.5,0.3-1,0.6-1.5,0.9c-0.4,0.2-0.6,0.8-0.3,1.2c0.2,0.4,0.8,0.6,1.2,0.3c0.5-0.3,1-0.6,1.5-0.9
		c0,0.2-0.1,0.5-0.1,0.7c-0.1,0.5,0.2,0.9,0.7,1c0.5,0.1,0.9-0.3,1-0.7c0.1-0.7,0.2-1.5,0.4-2.2c0.6-0.3,1.1-0.6,1.6-0.9
		c0,0.9-0.1,1.7-0.1,2.6c0,0.5,0.4,0.9,0.9,0.9c0.5,0,0.9-0.4,0.9-0.9c0-1.3,0.1-2.5,0.1-3.7c0.6-0.3,1.2-0.7,1.8-1
		c-0.1,1.8-0.1,3.6-0.2,5.4c-0.7,0.5-1.4,0.9-2.1,1.4c-0.4,0.3-0.5,0.8-0.2,1.2c0.3,0.4,0.8,0.5,1.2,0.2c0.3-0.2,0.7-0.5,1-0.7
		c0,0.7-0.1,1.3-0.1,2c0,0.5,0.4,0.9,0.9,0.9c0.5,0,0.9-0.4,0.9-0.9c0-0.7,0.1-1.3,0.1-2c0.3,0.2,0.6,0.5,1,0.7
		c0.4,0.3,0.9,0.2,1.3-0.2c0.3-0.4,0.2-0.9-0.2-1.3c-0.7-0.5-1.3-1-2-1.5c0-0.9,0.1-1.7,0.1-2.6c0.3,0.3,0.8,0.3,1.1,0
		c0.3-0.2,0.6-0.5,1-0.7c0,0.5,0,1,0,1.5c0,0.5,0.4,0.9,0.9,0.9c0.5,0,0.9-0.4,0.9-0.9c0-0.5,0-1,0-1.5c0.3,0.2,0.7,0.5,1,0.7
		c0.4,0.3,1,0.2,1.2-0.2c0.3-0.4,0.2-0.9-0.2-1.2c-0.7-0.5-1.4-1-2.1-1.5c0-1,0-2.1,0-3.1c0.8-0.5,1.6-0.9,2.4-1.4
		c0.3,1.7,0.6,3.4,0.9,5.1c0.1,0.5,0.6,0.8,1,0.6c1.6-0.6,3.2-1.2,4.8-1.8V200.9z M272.8,180.7c0.2,0.4,0.8,0.6,1.2,0.4
		c1.1-0.6,2.2-1.2,3.3-1.8c0.6,0.4,1.2,0.7,1.8,1c-1.6,0.8-3.2,1.7-4.7,2.5l-2.2-1.1c0,0-0.1,0-0.1,0l-0.3-1.4l-0.6-2L271,178
		c0.2,0.1,0.5,0.2,0.8,0.1c0.7-0.3,1.4-0.5,2.1-0.8c0.5,0.3,1.1,0.6,1.6,0.9c-0.8,0.4-1.5,0.8-2.3,1.2
		C272.7,179.7,272.5,180.3,272.8,180.7z M289.1,189.2c0.6,0.4,1.1,0.9,1.6,1.3c-0.7,0.4-1.4,0.8-2,1.2c-1.2-1-2.3-1.9-3.5-2.9
		c1.1-1,2.3-1.9,3.5-2.9c0.7,0.4,1.4,0.8,2,1.2c-0.5,0.4-1.1,0.9-1.6,1.3C288.9,188.6,288.9,189,289.1,189.2z M283,188.2
		c-0.4,0.3-0.4,0.9,0,1.2c1.3,1.1,2.6,2.2,4,3.3c-0.8,0.5-1.6,0.9-2.4,1.4c-0.9-0.5-1.8-1.1-2.7-1.6c-0.1-0.8-0.2-1.7-0.2-2.5
		c0-0.5-0.5-0.9-1-0.8c-0.5,0-0.8,0.5-0.8,1c0,0.4,0.1,0.8,0.1,1.2c-0.4-0.3-0.8-0.5-1.3-0.7c-0.4-0.2-1-0.1-1.2,0.3
		c-0.3,0.4-0.1,1,0.3,1.2c0.4,0.2,0.8,0.5,1.3,0.7c-0.4,0.2-0.7,0.3-1.1,0.5c-0.4,0.2-0.6,0.6-0.5,1c-0.8-0.4-1.5-0.8-2.3-1.2
		c-0.1-0.8-0.2-1.7-0.4-2.5c-0.1-0.5-0.5-0.8-1-0.8c-0.5,0.1-0.8,0.5-0.8,1c0.1,0.4,0.1,0.8,0.2,1.2c-0.5-0.3-1-0.5-1.5-0.8l0.4-2
		l0.2-2.8l0-0.6c0.3-0.2,0.6-0.3,0.8-0.4c-0.1,0.4-0.1,0.8-0.2,1.2c-0.1,0.5,0.3,0.9,0.8,1c0.5,0.1,0.9-0.3,1-0.7
		c0.1-0.8,0.2-1.7,0.4-2.5c0.7-0.4,1.5-0.8,2.3-1.2c-0.1,0.4,0.1,0.8,0.5,1c0.4,0.2,0.7,0.3,1.1,0.5c-0.4,0.2-0.8,0.5-1.3,0.8
		c-0.4,0.2-0.6,0.8-0.3,1.2c0.2,0.4,0.8,0.6,1.2,0.3c0.4-0.2,0.8-0.5,1.3-0.7c0,0.4-0.1,0.8-0.1,1.2c0,0.5,0.3,0.9,0.8,1
		c0.5,0,0.9-0.3,1-0.8c0.1-0.8,0.2-1.7,0.2-2.5c0.9-0.5,1.8-1.1,2.7-1.6c0.8,0.5,1.6,0.9,2.4,1.4C285.7,186,284.3,187.1,283,188.2z
		 M281.8,197.7c0.6-0.4,1.3-0.7,1.9-1.1c0,0.7,0,1.4,0,2.1c-0.7,0.5-1.3,1-2,1.5C281.7,199.4,281.8,198.6,281.8,197.7z M280.9,196.2
		c-0.7-0.4-1.5-0.8-2.2-1.2c0.8-0.3,1.5-0.7,2.3-1c0.6,0.4,1.2,0.7,1.8,1.1C282.2,195.4,281.5,195.8,280.9,196.2z M272.3,183.9
		L272.3,183.9C272.3,183.8,272.4,183.9,272.3,183.9C272.4,183.9,272.3,183.9,272.3,183.9z M283.7,181c-0.6-0.4-1.3-0.7-1.9-1.1
		c0-0.8-0.1-1.7-0.1-2.5c0.7,0.5,1.3,1,2,1.5C283.7,179.5,283.7,180.2,283.7,181z M282.8,182.5c-0.6,0.4-1.2,0.7-1.8,1.1
		c-0.8-0.3-1.5-0.7-2.3-1c0.7-0.4,1.5-0.8,2.2-1.2C281.5,181.8,282.2,182.1,282.8,182.5z M294.6,196.1c-1.4,0.5-2.8,1.1-4.2,1.6
		c-0.3-1.5-0.5-3-0.8-4.5c0.7-0.4,1.4-0.8,2-1.2c0.1,0.7,0.2,1.4,0.4,2.1c0.1,0.3,0.4,0.5,0.6,0.4c0.7-0.2,1.3-0.5,2-0.7V196.1z
		 M291,188.8l1.1-0.9l1.6,0.9l-1.6,0.9L291,188.8z M294.6,192.2l-1.4,0.5l-0.2-1.4l1.6-0.9V192.2z M294.6,187.2l-1.6-0.9l0.2-1.4
		l1.4,0.5V187.2z M294.6,183.8c-0.7-0.2-1.3-0.5-2-0.7c-0.3-0.1-0.6,0.1-0.6,0.4c-0.1,0.7-0.2,1.4-0.4,2.1c-0.7-0.4-1.3-0.8-2-1.2
		c0.3-1.5,0.5-3,0.8-4.5c1.4,0.5,2.8,1.1,4.2,1.6V183.8z M294.6,174.7c-0.6-0.4-1.2-0.7-1.9-1.1c-0.1-0.8-0.2-1.7-0.3-2.5
		c0,0,0,0,0,0c0.7,0.5,1.4,0.9,2.1,1.3V174.7z M297.9,206.1c-0.5-0.3-1-0.6-1.5-1v-2.2c0.6,0.4,1.2,0.7,1.9,1.1
		c0.1,0.6,0.1,1.1,0.2,1.7C298.2,205.8,298.1,205.9,297.9,206.1z M305.4,198.7c-0.7,0.5-1.4,1-2.1,1.5c-0.4,0.3-0.5,0.8-0.2,1.2
		c-0.2,0.2-0.4,0.4-0.5,0.5c0,0,0-0.1-0.1-0.2c-0.2-0.4-0.7-0.6-1.2-0.4c-0.8,0.4-1.5,0.7-2.3,1c-0.9-0.5-1.8-1-2.7-1.5v-2.8
		c1.6,0.6,3.2,1.2,4.8,1.8c0.4,0.2,0.9-0.1,1-0.6c0.3-1.7,0.6-3.4,0.9-5.1c0.8,0.5,1.6,0.9,2.4,1.4
		C305.4,196.6,305.4,197.7,305.4,198.7z M301.8,188.4c-0.6-0.5-1.1-0.9-1.6-1.3c0.7-0.4,1.4-0.8,2-1.2c1.2,1,2.3,1.9,3.5,2.9
		c-1.1,0.9-2.3,1.9-3.5,2.9c-0.7-0.4-1.4-0.8-2-1.2c0.5-0.4,1.1-0.9,1.6-1.3C302.1,189,302.1,188.6,301.8,188.4z M299.3,185.5
		c-0.1-0.7-0.2-1.4-0.4-2.1c-0.1-0.3-0.4-0.5-0.6-0.4c-0.7,0.2-1.3,0.5-2,0.7v-2.3c1.4-0.5,2.8-1.1,4.2-1.6c0.3,1.5,0.5,3,0.8,4.5
		C300.7,184.7,300,185.1,299.3,185.5z M300,188.8l-1.1,0.9l-1.6-0.9l1.6-0.9L300,188.8z M297.7,184.9l0.2,1.4l-1.6,0.9v-1.9
		L297.7,184.9z M298,191.3l-0.2,1.4l-1.4-0.5v-1.9L298,191.3z M298.3,194.5c0.3,0.1,0.6-0.1,0.6-0.4c0.1-0.7,0.2-1.4,0.4-2.1
		c0.7,0.4,1.3,0.8,2,1.2c-0.3,1.5-0.5,3-0.8,4.5c-1.4-0.5-2.8-1-4.2-1.6v-2.3C297,194,297.7,194.2,298.3,194.5z M311.8,190.8
		c-0.3,0.2-0.6,0.3-0.9,0.5c0-0.4,0.1-0.8,0.1-1.2c0-0.5-0.3-0.9-0.8-1c-0.5,0-0.9,0.3-1,0.8c-0.1,0.8-0.2,1.7-0.2,2.5
		c-0.9,0.5-1.8,1.1-2.7,1.6c-0.8-0.5-1.6-0.9-2.4-1.4c1.3-1.1,2.6-2.2,4-3.3c0.4-0.3,0.4-0.9,0-1.2c-1.3-1.1-2.6-2.2-4-3.3
		c0.8-0.5,1.6-0.9,2.4-1.4c0.9,0.5,1.8,1.1,2.7,1.6c0.1,0.8,0.2,1.7,0.2,2.5c0,0.5,0.5,0.8,1,0.8c0.5,0,0.8-0.5,0.8-1
		c0-0.4-0.1-0.8-0.1-1.2c0.4,0.2,0.8,0.5,1.3,0.7c0.4,0.2,1,0.1,1.2-0.3c0.3-0.4,0.1-1-0.3-1.2c-0.4-0.2-0.8-0.5-1.3-0.8
		c0.4-0.2,0.8-0.3,1.1-0.5c0.4-0.2,0.6-0.6,0.5-1c0.7,0.4,1.3,0.7,2,1.1C314.4,186.5,313.2,188.7,311.8,190.8z M309.2,179.9
		c-0.6,0.4-1.3,0.7-1.9,1.1c0-0.7,0-1.4,0-2.1c0.7-0.5,1.3-1,2-1.5C309.2,178.2,309.2,179,309.2,179.9z M310,181.4
		c0.7,0.4,1.5,0.8,2.2,1.2c-0.8,0.3-1.5,0.7-2.3,1c-0.6-0.4-1.2-0.7-1.8-1.1C308.8,182.1,309.4,181.8,310,181.4z M316.3,182.7
		c-1.5-0.8-3-1.6-4.4-2.3c0.6-0.3,1.2-0.7,1.8-1c1.1,0.6,2.2,1.2,3.3,1.8h0C316.8,181.6,316.5,182.1,316.3,182.7z M317.6,179.4
		c-0.7-0.4-1.5-0.8-2.2-1.1c0.5-0.3,1.1-0.6,1.6-0.9c0.4,0.2,0.8,0.3,1.2,0.4C318.1,178.3,317.9,178.9,317.6,179.4z M319.5,173.9
		c-0.4,0.3-0.8,0.5-1.3,0.7c0-0.2,0.1-0.5,0.1-0.7c0.1-0.5-0.2-0.9-0.7-1c-0.5-0.1-0.9,0.3-1,0.7c-0.1,0.7-0.2,1.4-0.4,2.2
		c-0.6,0.3-1.1,0.6-1.6,0.9c0-0.9,0.1-1.8,0.1-2.6c0-0.5-0.4-0.9-0.9-0.9c-0.5,0-0.9,0.4-0.9,0.9c0,1.3-0.1,2.5-0.1,3.7
		c-0.6,0.4-1.2,0.7-1.8,1c0.1-1.8,0.1-3.6,0.2-5.3c0.7-0.5,1.4-0.9,2.1-1.4c0.4-0.3,0.5-0.8,0.2-1.2c-0.3-0.4-0.8-0.5-1.2-0.2
		c-0.3,0.2-0.7,0.4-1,0.7c0-0.7,0-1.3,0.1-2c0-0.5-0.4-0.9-0.9-0.9c-0.5,0-0.9,0.4-0.9,0.9c0,0.7-0.1,1.3-0.1,2
		c-0.3-0.2-0.6-0.5-1-0.7c-0.4-0.3-0.9-0.2-1.3,0.2c-0.3,0.4-0.2,0.9,0.2,1.3c0.7,0.5,1.3,1,2,1.5c0,0.9-0.1,1.7-0.1,2.6
		c-0.3-0.3-0.8-0.3-1.1,0c-0.3,0.2-0.6,0.5-1,0.7c0-0.5,0-1,0-1.5c0-0.5-0.4-0.9-0.9-0.9c-0.5,0-0.9,0.4-0.9,0.9c0,0.5,0,1,0,1.5
		c-0.3-0.2-0.7-0.5-1-0.7c-0.4-0.3-1-0.2-1.3,0.2c-0.3,0.4-0.2,1,0.2,1.2c0.7,0.5,1.4,1,2.1,1.5c0,1.1,0,2.1,0,3.1
		c-0.8,0.5-1.6,0.9-2.4,1.4c-0.3-1.7-0.6-3.4-0.9-5.1c-0.1-0.5-0.6-0.7-1-0.6c-1.6,0.6-3.2,1.2-4.8,1.8v-2.8c0.9-0.5,1.8-1,2.7-1.5
		c0.7,0.4,1.5,0.7,2.3,1.1c0.4,0.2,1,0,1.2-0.4c0.2-0.4,0-1-0.4-1.2c-0.4-0.2-0.7-0.3-1.1-0.5c0.4-0.2,0.8-0.5,1.3-0.7
		c0.4-0.2,0.6-0.8,0.3-1.2c-0.2-0.4-0.8-0.6-1.2-0.3c-0.4,0.2-0.8,0.5-1.3,0.7c0-0.4,0.1-0.8,0.1-1.2c0-0.4-0.2-0.8-0.6-0.9
		c0.7-0.5,1.4-0.9,2.2-1.4c0.8,0.3,1.5,0.6,2.3,0.9c0.5,0.2,1,0,1.2-0.5c0.2-0.5,0-1-0.5-1.2c-0.4-0.2-0.7-0.3-1.1-0.5
		c0.6-0.4,1.1-0.7,1.7-1.1c0.4-0.3,0.6-0.8,0.3-1.2c-0.3-0.4-0.8-0.6-1.2-0.3c-0.6,0.4-1.1,0.7-1.7,1.1c0-0.4,0-0.8,0.1-1.2
		c0-0.5-0.3-0.9-0.8-0.9c-0.5,0-0.9,0.3-0.9,0.8c-0.1,0.8-0.1,1.7-0.2,2.5l-4.5,2.8v-2.1c1.1-0.7,2.1-1.3,3.2-2
		c0.4-0.3,0.5-0.8,0.3-1.2c-0.3-0.4-0.8-0.6-1.2-0.3c-0.7,0.5-1.5,0.9-2.2,1.4v-1.9l1.7-1.4c0.4-0.3,0.4-0.9,0.1-1.3
		c-0.3-0.4-0.9-0.4-1.3-0.1c-0.2,0.2-0.4,0.3-0.6,0.5v-1.8c0-0.5-0.4-0.9-0.9-0.9c-0.5,0-0.9,0.4-0.9,0.9v1.8
		c-0.2-0.2-0.4-0.3-0.6-0.5c-0.4-0.3-0.9-0.2-1.3,0.1c-0.3,0.4-0.2,0.9,0.1,1.3c0.6,0.5,1.1,0.9,1.7,1.4v1.9
		c-0.7-0.5-1.5-0.9-2.2-1.4c-0.4-0.3-1-0.1-1.2,0.3c-0.3,0.4-0.1,1,0.3,1.2c1.1,0.7,2.1,1.3,3.2,2v2.1l-4.5-2.8
		c0-0.8-0.1-1.7-0.2-2.5c0-0.5-0.5-0.9-0.9-0.8c-0.5,0-0.9,0.5-0.8,0.9c0,0.4,0.1,0.8,0.1,1.2c-0.6-0.4-1.1-0.7-1.7-1.1
		c-0.4-0.3-1-0.1-1.2,0.3c-0.3,0.4-0.1,1,0.3,1.2c0.6,0.4,1.1,0.7,1.7,1.1c-0.4,0.2-0.7,0.3-1.1,0.5c-0.5,0.2-0.7,0.7-0.5,1.2
		c0.2,0.5,0.7,0.7,1.2,0.5c0.8-0.3,1.6-0.6,2.3-0.9c0.7,0.5,1.5,0.9,2.2,1.4c-0.4,0.1-0.6,0.5-0.6,0.9c0,0.4,0.1,0.8,0.1,1.2
		c-0.4-0.2-0.8-0.5-1.3-0.7c-0.4-0.2-1-0.1-1.2,0.3c-0.2,0.4-0.1,1,0.3,1.2c0.4,0.2,0.8,0.5,1.3,0.7c-0.4,0.2-0.7,0.3-1.1,0.5
		c-0.4,0.2-0.6,0.7-0.4,1.2c0.2,0.4,0.7,0.6,1.2,0.4c0.8-0.4,1.5-0.7,2.3-1.1c0.9,0.5,1.8,1,2.7,1.5v2.8c-1.6-0.6-3.2-1.2-4.8-1.8
		c-0.4-0.2-0.9,0.1-1,0.6c-0.3,1.7-0.6,3.4-0.9,5.1c-0.8-0.5-1.6-0.9-2.4-1.4c0-1,0-2.1,0-3.1c0.7-0.5,1.4-1,2.1-1.5
		c0.4-0.3,0.5-0.8,0.2-1.2c-0.3-0.4-0.8-0.5-1.2-0.2c-0.3,0.2-0.7,0.5-1,0.7c0-0.5,0-1,0-1.5c0-0.5-0.4-0.9-0.9-0.9
		c-0.5,0-0.9,0.4-0.9,0.9c0,0.5,0,1,0,1.5c-0.3-0.2-0.7-0.5-1-0.7c-0.3-0.3-0.8-0.2-1.1,0c0-0.9-0.1-1.7-0.1-2.6
		c0.7-0.5,1.3-1,2-1.5c0.4-0.3,0.5-0.9,0.2-1.3c-0.3-0.4-0.9-0.4-1.3-0.2c-0.3,0.3-0.6,0.5-1,0.7c0-0.7,0-1.3-0.1-2
		c0-0.2-0.1-0.4-0.3-0.6c-0.4-0.3-1-0.2-1-0.2c-0.3,0.2-0.5,0.5-0.5,0.9c0,0.7,0,1.3,0.1,2c-0.3-0.2-0.7-0.5-1-0.7
		c-0.4-0.3-1-0.2-1.2,0.2c-0.3,0.4-0.2,1,0.2,1.2c0.7,0.5,1.4,0.9,2.1,1.4c0.1,1.8,0.1,3.6,0.2,5.3c-0.6-0.3-1.2-0.7-1.8-1
		c0-1.2-0.1-2.5-0.1-3.7c0-0.5-0.4-0.9-0.9-0.9c-0.5,0-0.9,0.4-0.9,0.9c0,0.9,0.1,1.7,0.1,2.6c-0.6-0.3-1.1-0.6-1.6-0.9
		c-0.1-0.7-0.2-1.4-0.4-2.2c-0.1-0.5-0.5-0.8-1-0.7c-0.5,0.1-0.8,0.6-0.7,1c0,0.2,0.1,0.5,0.1,0.7c-0.5-0.3-1-0.6-1.5-0.9
		c-0.4-0.2-1-0.1-1.2,0.3c-0.2,0.4-0.1,1,0.3,1.2c0.5,0.3,1,0.6,1.5,0.9c-0.2,0.1-0.5,0.2-0.7,0.3c-0.3,0.1-0.5,0.4-0.5,0.6
		l-1.1-2.5l-2.2-3.5l-2.8-3.2l-3.3-2.8l-3.7-2.4l-4.1-1.9c0.1-0.1,0.2-0.2,0.3-0.3c1.8-1.8,4.5-6.7,2.1-10.7l-0.6-0.8
		c0,0,0,0-0.1-0.1l-0.1-0.2l-0.5-0.5l-0.6-0.6l-2.8-2.1l-3.5-1.6l-3.4-1c-0.4-0.1-0.6-0.2-0.6-0.2l2.6-2.3l1-1.3l0.9-1.4l0.7-1.5
		l0.6-1.6l0.4-1.7l0.2-1.8l-0.2-2.7l-0.7-2.5l-1.1-2.4l-1.5-2.1l-1.9-1.8l-2.1-1.5l-2.4-1.1l-2.6-0.8l-0.3-1.2l-4.8-9.8l-0.9-1.1
		l-1.2-0.7l-0.9-0.1c7.9-4.4,16.8-7.2,26.2-7.8c1.5-0.1,1.4-0.1,1.4-0.1c0.9,0,1.8-0.1,2.7-0.1c10.5,0,20.5,2.6,29.2,7.3
		c0.7,0.4,0.7,0.4,0.7,0.4c6.8,3.8,12.8,8.8,17.8,14.7c0,0.1,0.1,0.1,0.1,0.1c0.9,1.1,1.4,1.7,1.4,1.7c8.1,10.5,12.9,23.6,12.9,37.8
		C321.8,163,321,168.6,319.5,173.9z M296.4,174.7v-2.2c0.7-0.4,1.4-0.9,2.1-1.3c0,0,0,0,0,0c-0.1,0.8-0.2,1.7-0.3,2.5
		C297.6,174,297,174.3,296.4,174.7z"/>
</g>
<g>
	<text transform="matrix(0.8716 -2.288843e-02 0.1604 0.9871 377.2461 133.1573)" class="st0 st7">Name</text>
	<path class="st6" d="M463.8,94.1c0.6-0.2,1-0.3,1.2-0.4c0,0,0,0,0,0c3.6-1.6,7.3-4.3,10-7c6.5-7.9-1.2-16.5-1.2-24.8
		c0-7,3.7-14.5,0.6-21.6c-1.8-4.7-6.3-6.8-11.3-7c-4.5-0.1-8.9,1.1-12.1,3.2c-3.2,2.1-18.8,17.9-19.1,17.9c-0.2-1-0.7-1.8-1.5-2.4
		c-0.7-0.5-1.6-0.9-2.5-0.9h-4.5c-0.7,0-1.4,0.2-2,0.5c-0.9,0.5-1.8,1.5-1.8,2c-5-6.8-11-14-17.5-19c-3-2.3-7.4-3.9-11.8-4.1
		c-5.1-0.1-9.7,1.6-11.8,6.1c-3.6,6.8-0.5,14.6-1,21.6c-0.6,8.2-9,16.3-3,24.6c3.3,3.9,6.9,7.3,11.8,9c0,0,0,0,0,0
		c0.2,0.1,0.3,0.2,0.6,0.3c-20.3,12.5-33.9,34.9-33.9,60.4c0,15.2,4.8,29.3,13,40.9c0.4,0.6,0.9,1.3,1.4,1.9
		c0.2,0.2,0.3,0.4,0.5,0.6c6.5,8.3,14.8,15.2,24.3,20c9.5,4.8,20.3,7.5,31.7,7.5c39.1,0,70.8-31.7,70.8-70.8
		C494.8,128.3,482.5,106.8,463.8,94.1z M485,141.4h-4.2l3.6-2.9C484.6,139.4,484.8,140.4,485,141.4z M474.7,137.1l3-3.7l-0.5,4.7
		l-2.5,2.5V137.1z M474.7,143.3l2.5,2.5l0.5,4.7l-3-3.7V143.3z M475.5,142.5h3.5l3.7,3l-4.7-0.5L475.5,142.5z M475.5,141.4l2.5-2.5
		l4.7-0.5l-3.7,3H475.5z M482.8,134.1c0.1,0,0.3,0,0.4,0c0.3,1,0.6,2,0.9,3l-4.8,0.5L482.8,134.1L482.8,134.1z M460.9,38.2
		c5.7-1.8,8,2.6,5.4,8.2c-6.7,5.8-15.3,9.2-24.2,9.5C445.4,47.5,452.3,41,460.9,38.2z M446.4,84.5l0.3,0.5c0,0-0.1,0.2-0.1,0.4
		c-3-1-6.1-1.8-9.3-2.4c-0.4-0.7-0.8-1.4-1.2-2.2c0-0.1-0.1-0.2-0.1-0.2c-1.4-2.6-2.4-5.6-3.2-8.5L446.4,84.5z M423.5,57.1
		c0.7-0.6,1.5-0.9,2.4-0.9c0.9,0,1.7,0.4,2.4,1.1c0.6,0.6,0.9,1.5,0.9,2.4c0,0.9-0.4,1.7-1.1,2.4c-0.7,0.6-1.5,0.9-2.4,0.9
		c-0.9,0-1.7-0.4-2.4-1.1c-0.6-0.6-0.9-1.5-0.9-2.4C422.5,58.5,422.9,57.7,423.5,57.1z M386.4,43.4c-2.1-5.7,0.4-10,6-7.7
		c8.4,3.4,14.8,10.4,17.4,19C400.9,53.7,392.6,49.8,386.4,43.4z M418.3,71.8c-1.1,3.2-2.4,6.3-4.2,9c0,0.1-0.1,0.1-0.1,0.2
		c0,0-0.1,0.1-0.1,0.2c-0.2,0.3-0.7,0.9-1.2,1.6c-3.3,0.5-6.4,1.3-9.5,2.2l-0.1-0.4c0.6-0.9,1.3-1.7,2.1-2.3L418.3,71.8z
		 M376.3,192.2c-1.4-1.6-2.6-3.3-3.8-5.1c0.5-0.2,1-0.4,1.5-0.4c1.8,0,3.3,1.4,3.3,3.2C377.2,190.8,376.9,191.6,376.3,192.2z
		 M380.5,183.5c-1,0-1.8-0.8-1.8-1.7s0.8-1.7,1.8-1.7c1,0,1.8,0.8,1.8,1.7S381.5,183.5,380.5,183.5z M381.2,174.7
		c-1.8,0-3.3-1.4-3.3-3.2c0-1.8,1.5-3.2,3.3-3.2c1.8,0,3.3,1.4,3.3,3.2C384.5,173.3,383,174.7,381.2,174.7z M380.2,157.8
		c-1,0-1.8-0.8-1.8-1.7s0.8-1.7,1.8-1.7c1,0,1.8,0.8,1.8,1.7S381.1,157.8,380.2,157.8z M384.5,159c0-1.8,1.5-3.2,3.3-3.2
		s3.3,1.4,3.3,3.2c0,1.8-1.5,3.2-3.3,3.2S384.5,160.8,384.5,159z M385.7,147.7c0-0.9,0.8-1.7,1.8-1.7s1.8,0.8,1.8,1.7
		c0,0.9-0.8,1.7-1.8,1.7S385.7,148.6,385.7,147.7z M393.7,165.1c1,0,1.8,0.8,1.8,1.7c0,0.9-0.8,1.7-1.8,1.7c-1,0-1.8-0.8-1.8-1.7
		C391.9,165.8,392.7,165.1,393.7,165.1z M392.9,154.9c0-0.9,0.8-1.7,1.8-1.7c1,0,1.8,0.8,1.8,1.7s-0.8,1.7-1.8,1.7
		C393.7,156.6,392.9,155.8,392.9,154.9z M393.9,172.6c1.8,0,3.3,1.4,3.3,3.2c0,1.7-1.5,3.2-3.3,3.2c-1.8,0-3.3-1.4-3.3-3.2
		C390.6,174.1,392.1,172.6,393.9,172.6z M399.3,186.3c1.8,0,3.3,1.4,3.3,3.2c0,1.7-1.5,3.2-3.3,3.2c-1.8,0-3.3-1.4-3.3-3.2
		C396,187.7,397.4,186.3,399.3,186.3z M395.2,182.8c0,0.9-0.8,1.7-1.8,1.7c-1,0-1.8-0.8-1.8-1.7c0-0.9,0.8-1.7,1.8-1.7
		C394.4,181.1,395.2,181.9,395.2,182.8z M386.2,191.5c0-0.9,0.8-1.7,1.8-1.7c1,0,1.8,0.8,1.8,1.7c0,0.9-0.8,1.7-1.8,1.7
		C387,193.2,386.2,192.5,386.2,191.5z M394.9,207.4V197h-5.7v-1h15.2c0.7,8,7.4,14.8,14.8,18.5C410.4,213.8,402.2,211.3,394.9,207.4
		z M441.1,185.1l0,0.2v0.1l-0.1,0l-0.1,0.1l-0.2,0.1l-0.5,0.2l-0.5,0.2l-0.2,0.1l-0.2,0.1l-0.1,0.1l0,0l0,0l0.1,0l0.3,0.2l0.4,0.2
		l0.4,0.2l0.2,0.1l0.1,0l0.1,0v0.1l0,0.2l0,0.4l-0.1,0.4l-0.1,0.2l-0.1,0.2l-0.7,0.5l-0.1,0l-0.2-0.1l-0.3-0.1l-0.4-0.2l-1.6-0.8
		l-0.3-0.2l-0.3-0.1l-0.1-0.1h0l-0.1,0.1l-0.3,0.1l-0.4,0.2l-0.4,0.2l-1,0.5l-0.5,0.2l-0.4,0.2l-0.3,0.2l-0.2,0.1l-0.1,0l0,0l-0.1,0
		h0l0,0l0,0l0.2,0.1l0.3,0.2l0.3,0.2l0.2,0.1l0.1,0h0l0.1,0l0.1,0.1l0.4,0.3l0.5,0.3l0.4,0.3l0.2,0.1l0.1,0.1l0.1,0l0.1,0l0.2-0.1
		l0.3-0.1l0.4-0.1l0.4-0.2l0.9-0.3l0.4-0.1l0.4-0.1l0.2-0.1l0.1,0l0.1,0l0.1,0.1l0.2,0.2l0.3,0.3l0.2,0.4l0,0.4l-0.1,0.4l0,0.2
		l0,0.1l0,0l-0.1,0l-0.2,0l-0.4,0.1l-0.5,0.2l-0.4,0.1l-0.1,0l-0.1,0v0l0.1,0l0.2,0.1l0.2,0.2l0.6,0.4l0.6,0.4l0.2,0.2l0.2,0.1
		l0.1,0.1l0,0l0,0.2l0,0.5l-0.1,0.4l-0.1,0.2l-0.1,0.1l-0.7,0.4l-0.1,0l-0.1-0.1l-0.2-0.1l-0.2-0.1l-0.6-0.4l-0.6-0.4l-0.3-0.2
		l-0.2-0.1l-0.1-0.1l-0.1,0v0l0,0.1l0,0.4l0.1,1l0,0.2l0,0.1l0,0.1l0,0l-0.7,0.5l-0.2,0.1H436l-0.4-0.1l-0.4-0.2l-0.2-0.1l0-0.1
		l0-0.2l0-0.3l0-0.4l-0.1-0.9l-0.1-0.9l0-0.4l0-0.3l0-0.2v0l-0.1-0.1l-0.2-0.1l-0.2-0.2l-0.3-0.2l-0.6-0.4l-0.5-0.4l-0.2-0.1
		l-0.1-0.1l0,0l0,0l-0.1-0.1l-0.3-0.2l-0.1-0.1l-0.1,0l0,0v0.2l0,0.3l0,0.4l-0.1,2.1l0,0.4l0,0.4l0,0.2v0l0.1,0.1l0.2,0.2l0.3,0.2
		l0.3,0.3l0.7,0.6l0.4,0.3l0.3,0.3l0.2,0.2l0.2,0.2l0.1,0.1l0,0.1l-0.2,0.8l-0.1,0.2l-0.1,0.1l-0.4,0.2l-0.4,0.1l-0.2,0.1l-0.1-0.1
		l-0.3-0.2l-0.4-0.3l-0.3-0.3l-0.1-0.1l-0.1-0.1l0,0v0.1l0,0.2l0,0.5l0,0.6l0,0.5l0,0.2v0.1l0,0l-0.1,0l-0.2,0.1l-0.4,0.2l-0.4,0.1
		l-0.4-0.1l-0.4-0.2l-0.2-0.1l-0.1,0l0,0v-0.1l0-0.2l0-0.5l0-0.6l0-0.5v-0.2l0-0.1v0l-0.1,0l-0.1,0.1l-0.2,0.1l-0.4,0.3l-0.4,0.3
		l-0.3,0.2l-0.1,0.1l0,0l-0.2-0.1l-0.4-0.2l-0.3-0.2l-0.1-0.2l-0.1-0.2l-0.1-0.9l0-0.1l0.1-0.1l0.2-0.1l0.3-0.2l0.3-0.2l0.4-0.3
		l0.8-0.5l0.3-0.2l0.3-0.2l0.2-0.1l0.1-0.1v0l0-0.2l0-0.4l0-0.4l0.1-2.2l0-0.4l0-0.4l0-0.2v0l-0.3,0.2l-0.4,0.2l-0.1,0.1l0,0l-0.1,0
		l-0.1,0.1l-0.2,0.1l-0.6,0.3l-0.6,0.3l-0.3,0.1l-0.2,0.1l-0.2,0.1l-0.1,0l0,0l0,0.2l-0.1,0.3l-0.1,0.4l-0.2,0.9l-0.2,0.9l-0.1,0.4
		l-0.1,0.3l0,0.2l0,0l-0.2,0.1l-0.4,0.1l-0.4,0.1l-0.2,0l-0.2-0.1l-0.6-0.5l0,0v-0.1l0-0.1l0-0.2l0.2-0.9l0.1-0.4l0-0.1l0,0l-0.1,0
		l-0.2,0.1l-0.2,0.1l-0.3,0.1l-0.6,0.3l-0.6,0.3l-0.2,0.1l-0.2,0.1l-0.1,0l-0.1,0l-0.7-0.4l-0.1-0.2l-0.1-0.2l0-0.4l0-0.5l0-0.2l0,0
		l0.1-0.1l0.2-0.1l0.3-0.1l0.6-0.3l0.6-0.3l0.3-0.1l0.2-0.1l0.1,0v0l-0.1,0l-0.1-0.1l-0.4-0.2l-0.4-0.2l-0.4-0.2l-0.1-0.1l-0.1,0
		l0,0l0-0.1l0-0.2l0-0.4l0.1-0.4l0.3-0.3l0.4-0.3l0.2-0.1l0.1-0.1l0.1,0l0.4,0.2l0.3,0.2l0.4,0.2l0.8,0.4l0.4,0.2l0.4,0.2l0.3,0.1
		l0.2,0.1l0.1,0l0.2-0.1l0.3-0.1l0.8-0.4l0.8-0.4l0.4-0.2l0.3-0.2l0.3-0.2l0,0l-0.1,0l-0.3-0.2l-0.4-0.2l-0.4-0.2l-0.3-0.2l-0.1,0
		l0,0l-0.1,0l-0.2-0.1l-0.2-0.1l-0.2-0.2l-0.5-0.4l-0.5-0.3l-0.2-0.1l-0.1-0.1l0,0l-0.1,0l-0.2,0.1l-0.3,0.1l-0.4,0.1l-0.4,0.2
		l-0.9,0.3l-0.4,0.1l-0.3,0.1l-0.2,0.1l-0.1,0l-0.1,0l-0.1-0.1l-0.2-0.2l-0.3-0.3l-0.2-0.4l0-0.4l0.1-0.4l0-0.2l0-0.1l0,0l0.1,0
		l0.2,0l0.4-0.2l0.5-0.2l0.4-0.1l0.1,0l0.1,0l-0.1,0l-0.1-0.1l-0.2-0.1l-0.4-0.3l-0.5-0.3l-0.2-0.1l-0.2-0.1l-0.1-0.1l0,0l0-0.2
		l0-0.4l0.1-0.4l0.1-0.2l0.1-0.2l0.7-0.4l0.1,0l0.1,0l0.1,0.1l0.2,0.1l0.9,0.6l0.4,0.2l0.1,0.1l0,0v0l0-0.1l0-0.4l-0.1-1l0-0.2v-0.1
		l0-0.1l0,0l0.7-0.5l0.2-0.1l0.2,0l0.4,0.1l0.4,0.2l0.2,0.1l0,0.1v0.2l0,0.3l0,0.4l0.1,0.9l0.1,0.9l0,0.4l0,0.3l0,0.2l0,0l0.1,0.1
		l0.3,0.2l0.4,0.2l0.4,0.3l0.9,0.6l0.4,0.3l0.4,0.3l0.3,0.2l0.2,0.1l0.1,0.1v-0.1l0-0.2l0-0.3l0-0.4l0-0.5l0.1-0.9l0-0.4l0-0.4
		l0-0.2v-0.1l0,0l-0.1-0.1l-0.2-0.2l-0.3-0.2l-1.4-1.2l-0.3-0.3l-0.2-0.2l-0.1-0.1l0-0.1l0.1-0.4l0.1-0.4l0.1-0.2l0.1-0.2l0.3-0.2
		l0.4-0.1l0.2-0.1l0,0l0,0l0.1,0l0.1,0.1l0.2,0.1l0.4,0.3l0.4,0.3l0.3,0.2l0.1,0.1l0,0V181l0-0.2l0-0.3l0-0.3l0-0.7l0-0.7l0-0.3
		l0-0.2v-0.1l0.1,0l0.2-0.1l0.4-0.2l0.4-0.1l0.2,0l0.2,0.1l0.7,0.5l0,0.1v0.2l0,0.3l0,0.3l-0.1,1.4l0,0.3v0.2l0,0.1v0l0.1,0l0.1-0.1
		l0.2-0.1l0.4-0.3l0.4-0.3l0.3-0.2l0.1-0.1l0,0l0.2,0.1l0.4,0.2l0.3,0.2l0.1,0.2l0.1,0.2l0.1,0.9l0,0.1l-0.1,0l-0.2,0.1l-0.3,0.2
		l-0.3,0.2l-0.4,0.3l-0.8,0.5l-0.4,0.2l-0.3,0.2l-0.2,0.1l-0.1,0.1l0,0v0.2l0,0.3l0,0.4l-0.1,1.8l0,0.4l0,0.3l0,0.2l0,0l0.1-0.1
		l0.3-0.1l0.4-0.2l0.4-0.2l1-0.5l0.5-0.2l0.4-0.2l0.3-0.2l0.2-0.1l0.1,0l0-0.1l0-0.2l0.1-0.3l0.1-0.4l0.1-0.4l0.2-0.9l0.1-0.4
		l0.1-0.4l0.1-0.3l0-0.1l0.1,0l0.1,0l0.4-0.2l0.4-0.1l0.2,0l0.2,0.1l0.3,0.2l0.3,0.3l0.1,0.1v0l0,0.1l0,0.2l-0.1,0.4l-0.1,0.5
		l-0.1,0.4l0,0.1l0,0.1h0l0.1,0l0.1-0.1l0.2-0.1l1-0.5l0.2-0.1l0.2-0.1l0.1-0.1h0l0.4,0.3l0.3,0.3l0.1,0.2l0.1,0.2l0.1,0.4
		L441.1,185.1z M428.3,156.9c0.8,1.9,2.1,2.9,4.1,3c0,0,0.5,0,1.2-0.1c1.2-0.2,2.3-0.9,2.9-1.9c0.4-0.6,0.5-0.6,0.9-0.9
		c0.6,0,1.1,0.4,1.1,0.4c-1.1,2.8-3.2,4.2-6.2,4.1c0,0,0,0-0.1,0c0,0,0,0-0.9-0.1c-1.7-0.1-3.3-1.1-4.1-2.7c-0.6-1.1-0.8-2-0.8-2
		C427.1,156.4,427.7,156.5,428.3,156.9z M427.3,151.5c0.1-0.9,0.9-1.6,1.8-1.5c1,0.1,1.7,0.8,1.6,1.7c0,0,0,0.9-0.9,1.6
		c-1,0-1,0-1.9-0.1C427.2,152.4,427.3,151.5,427.3,151.5z M435.9,130.7c0.1,0.2,0.1,0.4,0.1,0.6c0,1-0.8,1.8-1.8,1.8
		c-1,0-1.8-0.8-1.8-1.8c0-0.4,0.1-0.7,0.3-1c0.3-0.5,0.9-0.9,1.6-0.9C435,129.5,435.7,130,435.9,130.7z M437.4,150.5
		c0.9,0,1.7,0.8,1.6,1.7c0,0,0,0.9-0.9,1.6c-1-0.1-1-0.1-1.9-0.1c-0.7-0.8-0.7-1.7-0.7-1.7C435.6,151.1,436.4,150.4,437.4,150.5z
		 M466.8,197.5c-5.5,6.9-12,11.8-16.9,14.8L449,212c1-0.8,2-1.6,2.9-2.6c3.8-3.9,7.6-11.4,5.4-18.6v-0.1c-1.7-6.1-7.7-11.4-9.2-12.6
		c0-0.2,0-0.4,0.1-0.6c0.1-0.4,0.2-0.8,0.2-1.2v0c0-0.1,0-0.2,0-0.3c0,0,0,0,0,0c0.2-1.4,0.3-2.4,0.3-2.4c0-0.3,2.5-1.3,5.3-2.6
		c0,0,0.5-0.2,5.3,3.2c0.7,0.5,1.7,0.2,2-0.6c0.2-0.6,0.4-1.1,0.6-1.7c0.3-0.8-0.2-1.7-1.1-1.8c-4.2-0.4-3.8-0.6-3.8-0.6
		c2.9-1.6,5.2-3.2,4.1-4.3c0,0-1.4-1.3-4.9,0.2c-3,1.6-3,1.6-3.4,1.8c-0.5-5.3-3-4.6-3-4.6c-2.4,0.7,1.5,5.4,1.2,5.5
		c0,0-1.5,0.9-2.6,1.5c-0.5-2.3-1.6-4.4-3.3-6c-0.8-0.8-1.4-1.3-1.4-1.3c3.6-4.4,3.4-8.3,0-11.9c0,0,0-0.8,5,0.8
		c0.1-2.8,0.1-2.8,0.1-5.6c-7.1,0.7-7.2,0-7.2,0c2.8-5.2,4.6-8.3,3.9-10c0,0-0.8-2-4.7-1.9c-2.9-0.1-4.2-0.2-4.7-0.3
		c0.5-0.6,0.9-1.3,0.9-2.1v-0.1c0-0.1,0-0.2,0-0.3c-0.2-1.2-1-2.2-2.2-2.6h0c-0.3-0.1-0.6-0.1-0.8-0.1c-0.1,0-0.3,0-0.4,0
		c0,0,0,0,0,0c-1.2,0.2-2.2,1.1-2.5,2.3c0,0.1-0.1,0.2-0.1,0.4c0,0.1,0,0.3,0,0.4c0,0.7,0.2,1.4,0.7,1.9c-5.2-0.4-9.2-0.9-10.3,0.8
		c0,0-1,1.5,0.6,5.1c2.5,5.7,2.5,5.7,2.4,6.4c-7.4-1.5-7.5,1.3-7.5,1.3c-0.1,2.8,5.6,1.7,5.4,2.5c0,0-0.5,0.3-1.3,0.9
		c-3,2.4-3.6,6.7-1.6,10c0.4,0.6,0.3,0.9-0.2,1.1c-1.1,0.6-2.1,1.3-2.8,2.3c-0.6,0.8-0.9,1.4-0.9,1.4c-0.1,0.1-1.2-0.7-2.7-1.7
		c0,0-0.4-0.3,3.3-5.8c-2.3-0.6-2.3-0.6-4.7-1.1c-1,5.3-1.4,5-1.4,5c-3.2-2.1-6.8-3.9-7.5-2.1c0,0-0.7,1.9,3.1,4
		c3.5,1.7,3.5,1.7,3.9,1.8c-5.2,2.6-3.4,4.5-3.4,4.5c1.8,1.9,5.1-3.7,5.6-3.5c0,0,1.7,0.7,2.9,1.3c-0.5,1.9-0.8,3.9-0.8,5.9
		c0,0.4,0,0.9,0,1.3c0.1,1.9,0.2,3.3,0.2,3.3c-4.2,3.4-6.9,6.8-8.4,10.1l-6.4-10.8c-0.4-0.7-0.1-1.2,0.7-1.2h3.7
		c0.8,0,1.1-0.5,0.7-1.2l-8.1-13.6c-0.4-0.7-0.1-1.2,0.7-1.2h3c0.8,0,1.1-0.5,0.7-1.2l-12.4-20.9c-0.4-0.6-1-0.6-1.4,0l-12.5,20.9
		c-0.4,0.7-0.1,1.2,0.7,1.2h2.9c0.8,0,1.1,0.5,0.7,1.2l-8.1,13.6c-0.4,0.7-0.1,1.2,0.7,1.2h3.7c0.8,0,1.1,0.5,0.7,1.2l-4.8,8.1
		c-5.8-9.5-9.2-20.6-9.2-32.5c0-11.1,2.9-21.4,8-30.4c3.2-5.7,7.1-10.1,7.1-10.1c4.2-4.9,9.2-9.1,14.8-12.5l0,0l0.1-0.1
		c0,0,0.6-0.6,4-2.2c0,0,0.1-0.1,0.2-0.1c0.2-0.1,0.4-0.2,0.6-0.3c0.1-0.1,0.2-0.1,0.3-0.2c0.3-0.1,0.5-0.3,0.8-0.4
		c0.4-0.2,0.8-0.4,1.3-0.6c0.2-0.1,0.4-0.2,0.6-0.3c6.3-2.8,12.2-3.8,12.9-3.9c0,0,0.1,0,0.1,0c3.7-0.7,7.5-1,11.3-1
		c14.2,0,27.4,4.8,37.8,12.9c2.4,1.7,2.6,2.1,2.6,2.1c4,3.4,7.6,7.4,10.6,11.8c2.3,2.8,4.1,6.7,4.1,6.7c1.3,2.5,2.5,5.2,3.4,7.9
		c-0.1,0-0.1,0.1-0.2,0.1c-0.3,0.3-0.4,0.8-0.3,1.2l-3.6,3.6l0.5-5.1c0-0.3-0.1-0.5-0.4-0.6c0,0,0,0,0,0s0,0,0,0c-0.1,0-0.1,0-0.2,0
		c-0.2,0-0.3,0.1-0.4,0.2l-0.1,0.1l-3.1,3.9v-4l0-1.1c0.5-0.2,0.8-0.8,0.6-1.4c-0.1-0.4-0.5-0.8-1-0.9c-0.7-0.1-1.4,0.5-1.4,1.2
		c0,0.5,0.3,0.9,0.6,1.1l0,1.1v4l-3.2-4c-0.2-0.2-0.4-0.3-0.7-0.2h0c0,0,0,0,0,0c-0.2,0.1-0.4,0.3-0.4,0.6l0.5,5.1l-3.6-3.6h0
		c0.1-0.2,0.1-0.4,0-0.7c-0.1-0.2-0.2-0.4-0.3-0.6c-0.5-0.5-1.2-0.5-1.7,0c-0.4,0.4-0.4,0.9-0.2,1.3c0.1,0.1,0.1,0.3,0.2,0.4
		c0.3,0.3,0.8,0.4,1.2,0.3l0,0l3.5,3.6l-5.1-0.6c-0.3,0-0.5,0.1-0.6,0.4c0,0,0,0,0,0c-0.1,0.2,0,0.5,0.2,0.7l4,3.2h-5
		c-0.2-0.5-0.8-0.8-1.4-0.6c-0.4,0.1-0.7,0.4-0.8,0.7c-0.3,0.8,0.3,1.6,1.1,1.6c0.5,0,0.9-0.3,1.1-0.6h5l-4,3.2
		c-0.2,0.2-0.3,0.4-0.2,0.7c0,0,0,0,0,0c0,0,0,0,0,0c0.1,0.2,0.3,0.4,0.6,0.4l5.1-0.5l-3.5,3.6h0c-0.4-0.1-0.9,0-1.2,0.3
		c-0.5,0.5-0.5,1.2,0,1.7c0.5,0.5,1.2,0.5,1.7,0c0.3-0.3,0.4-0.8,0.3-1.2l3.6-3.6l-0.5,5.1c0,0.3,0.1,0.5,0.4,0.6h0
		c0.2,0.1,0.5,0,0.7-0.2l3.2-4v4.1v0.9c-0.5,0.2-0.8,0.8-0.6,1.4c0.1,0.4,0.5,0.8,1,0.9c0.7,0.1,1.4-0.5,1.4-1.2
		c0-0.5-0.3-0.9-0.6-1.1v-0.9v-4.1l3.2,4c0.2,0.2,0.4,0.3,0.7,0.2c0,0,0,0,0,0c0,0,0,0,0,0c0.2-0.1,0.4-0.3,0.4-0.6l-0.5-5.1
		l3.6,3.6v0c-0.1,0.4,0,0.9,0.3,1.2c0.5,0.5,1.2,0.5,1.7,0c0.5-0.5,0.5-1.2,0-1.7c-0.3-0.3-0.8-0.4-1.2-0.3h0l-3.5-3.6l5.1,0.5
		c0.3,0,0.5-0.1,0.6-0.4c0,0,0,0,0,0c0,0,0,0,0,0c0.1-0.2,0.1-0.5-0.2-0.7l-4-3.2h4.4c0.5,3.3,0.8,6.7,0.8,10.1
		C486,170.2,478.6,186.2,466.8,197.5z M472.8,141.4h-3.5l-3.7-3l4.7,0.5L472.8,141.4z M470.7,133.4l3,3.7v3.5l-2.5-2.5L470.7,133.4z
		 M472.8,142.5l-2.5,2.5l-4.7,0.5l3.7-3H472.8z M471.2,145.7l2.5-2.5v3.5l-3,3.7L471.2,145.7z"/>
</g>
</svg>
