<?xml version="1.0" encoding="utf-8"?>
<!-- Generator: Adobe Illustrator 24.3.0, SVG Export Plug-In . SVG Version: 6.00 Build 0)  -->
<svg version="1.1" id="Слой_1" xmlns="http://www.w3.org/2000/svg" xmlns:xlink="http://www.w3.org/1999/xlink" x="0px" y="0px"
	 viewBox="0 0 720 720" style="enable-background:new 0 0 720 720;" xml:space="preserve">
<style type="text/css">
	.st0{fill-rule:evenodd;clip-rule:evenodd;}
</style>
<g>
	<path class="st0" d="M419.4,127.93c0.11,0.13,0.17,0.2,0.26,0.25s0.18,0.08,0.34,0.11c29.26,5.96,56.98,16.18,82.47,29.99
		s48.76,31.22,69.11,51.55c27.08,27.04,48.98,59.24,64.12,95c15.14,35.75,23.5,75.06,23.5,116.32s-8.37,80.57-23.5,116.32
		c-15.14,35.75-37.04,67.95-64.12,95c-27.08,27.04-59.31,48.92-95.1,64.04C440.68,711.64,401.33,720,360.02,720
		c-41.33,0-80.69-8.36-116.49-23.48c-35.8-15.12-68.03-37-95.11-64.04c-27.06-27.04-48.96-59.24-64.1-95s-23.52-75.06-23.52-116.32
		s8.38-80.57,23.52-116.32s37.04-67.95,64.1-95c20.47-20.44,43.88-37.94,69.54-51.8c25.67-13.85,53.59-24.07,83.09-29.94v-0.74
		v-0.74v-16.68V93.26c0-2.76,1.26-5.31,3.39-7.42s5.14-3.75,8.65-4.69c0.33-0.09,0.57-0.33,0.69-0.62s0.1-0.63-0.07-0.93
		c-2.22-3.89-3.96-8.08-5.15-12.5s-1.82-9.08-1.82-13.88c0-7.34,1.49-14.34,4.18-20.71s6.59-12.11,11.42-16.93
		c4.83-4.8,10.57-8.7,16.94-11.39C345.64,1.49,352.65,0,360.02,0c7.35,0,14.36,1.49,20.73,4.19s12.11,6.59,16.92,11.39
		c4.83,4.82,8.74,10.56,11.44,16.93s4.2,13.37,4.2,20.71c0,4.66-0.6,9.17-1.72,13.48s-2.78,8.39-4.89,12.2
		c-0.27,0.49-0.27,1.03-0.07,1.49c0.2,0.46,0.6,0.84,1.13,1c3.3,1.01,6.11,2.65,8.09,4.7c1.98,2.05,3.14,4.52,3.14,7.16v16.68v16.68
		c0,0,0.05,0.26,0.12,0.55C419.17,127.46,419.28,127.79,419.4,127.93z M378.36,34.91c-2.35-2.34-5.14-4.24-8.24-5.55
		c-3.1-1.31-6.51-2.03-10.09-2.03c-3.58,0-6.99,0.72-10.09,2.03c-3.1,1.31-5.9,3.2-8.24,5.55c-2.35,2.34-4.24,5.14-5.55,8.24
		c-1.31,3.1-2.03,6.51-2.03,10.08c0,3.57,0.72,6.98,2.03,10.08c1.31,3.1,3.21,5.89,5.55,8.24c2.35,2.34,5.14,4.24,8.24,5.55
		c3.1,1.31,6.51,2.03,10.09,2.03c3.58,0,6.99-0.72,10.09-2.03c3.1-1.31,5.9-3.2,8.24-5.55c2.35-2.34,4.24-5.14,5.55-8.24
		c1.31-3.1,2.03-6.51,2.03-10.08c0-3.57-0.72-6.98-2.03-10.08C382.6,40.05,380.7,37.26,378.36,34.91L378.36,34.91L378.36,34.91z
		 M404.77,154.19l-7.83,3.91l-7.83,3.91c-0.39,0.19-0.55,0.58-0.51,0.94c0.04,0.36,0.28,0.7,0.7,0.81l19.15,4.98l19.15,4.98
		c1.02,0.27,1.54,1.12,1.55,1.99c0.01,0.86-0.5,1.73-1.52,2.01l-19.35,5.3l-19.35,5.3c-0.36,0.1-0.57,0.4-0.61,0.71
		c-0.03,0.32,0.11,0.65,0.44,0.82l9.04,4.66l9.04,4.66c0.13,0.07,0.27,0.11,0.41,0.13c0.14,0.02,0.29,0.01,0.43-0.02l15.9-3.81
		l15.9-3.81c0.5-0.12,1.01-0.06,1.45,0.14c0.44,0.2,0.82,0.55,1.06,1.01l2.02,3.9l2.02,3.9c0.24,0.46,0.23,0.97,0.03,1.39
		c-0.2,0.42-0.58,0.76-1.09,0.87l-11.63,2.54l-11.63,2.54c-0.21,0.05-0.33,0.21-0.36,0.39s0.05,0.37,0.23,0.47l6.07,3.41l6.07,3.41
		l4.76-0.14l4.76-0.14c0.33-0.01,0.65,0.05,0.95,0.17c0.3,0.12,0.58,0.3,0.81,0.53l5.05,5.06l5.05,5.06
		c0.68-0.35,1.46-0.53,2.27-0.57c0.81-0.04,1.66,0.04,2.5,0.22c3.23,0.84,4.58,1.69,4.63,1.48c0.04-0.21-1.23-1.48-3.26-4.88
		c-1.37-1.86-2.38-3.8-2.68-5.66c-0.29-1.86,0.14-3.65,1.66-5.19c1.86-1.68,3.98-2.1,5.97-1.93c1.99,0.17,3.86,0.93,5.21,1.62
		c0.68,0.51,0.94,0.85,0.94,0.85s-0.25-0.34-0.59-1.2c-1.72-4.1-1.22-9.44,1.03-13.5c2.25-4.06,6.25-6.83,11.52-5.79
		c3.4,1.02,5.86,3.97,7.22,7.48c1.36,3.51,1.61,7.57,0.6,10.79c-0.14,0.55-0.24,0.96-0.31,1.26c-0.07,0.3-0.1,0.5-0.08,0.62
		c0.04,0.31,0.53-0.24,1.7-0.88c1.17-0.63,3.03-1.35,5.81-1.35l0,0l0,0c-1.97-3.94-3.54-8.06-4.69-12.34s-1.9-8.71-2.23-13.28
		c-12.91-7.2-26.47-13.37-40.57-18.41c-14.1-5.05-28.73-8.96-43.79-11.65c-0.31-0.05-1.11,0.03-1.83,0.13
		C405.41,154.08,404.77,154.19,404.77,154.19z M506.05,192.54c0.38,1.57,0.84,3.11,1.36,4.61s1.12,2.98,1.79,4.42
		c0.07,0.14,0.18,0.24,0.32,0.28c0.14,0.04,0.29,0.03,0.43-0.04l2.59-1.48l2.59-1.48c0.12-0.07,0.19-0.19,0.19-0.32
		c0.01-0.13-0.05-0.26-0.16-0.34c-1.45-1.02-2.91-2.01-4.37-2.99s-2.94-1.94-4.42-2.89c-0.08-0.05-0.17-0.04-0.24,0.01
		C506.07,192.37,506.03,192.45,506.05,192.54z M583.46,266.5c-0.98,0.8-2.02,1.49-3.11,2.06s-2.21,1.01-3.34,1.3
		c-1.35,0.33-2.02,0.33-2.11,0.37c-0.08,0.04,0.43,0.12,1.44,0.61c0.84,0.53,1.69,1.21,2.46,2.02c0.77,0.81,1.45,1.73,1.96,2.75
		c0.94-0.78,1.93-1.5,2.96-2.16s2.11-1.25,3.22-1.78c-0.57-0.88-1.14-1.74-1.73-2.59C584.64,268.21,584.05,267.36,583.46,266.5
		L583.46,266.5L583.46,266.5z M592.65,280.68c-3.75,1.62-6.9,4.3-9.11,7.6c-2.21,3.3-3.48,7.24-3.48,11.38
		c0,5.66,2.35,10.83,6.11,14.58c3.76,3.75,8.94,6.08,14.61,6.08c1.94,0,3.8-0.26,5.57-0.76c1.76-0.49,3.43-1.22,4.95-2.13
		c-2.66-6.39-5.54-12.65-8.65-18.79C599.54,292.51,596.21,286.52,592.65,280.68L592.65,280.68L592.65,280.68z M621.5,346.8
		l-2.03,3.71l-2.03,3.71l3.05,4.75l3.05,4.75c0.33-0.12,0.67-0.22,1.02-0.32s0.7-0.17,1.05-0.23c-0.61-2.77-1.25-5.52-1.94-8.24
		C622.99,352.2,622.27,349.49,621.5,346.8L621.5,346.8L621.5,346.8z M631.83,418.23c-0.92-0.04-1.88-0.14-2.82-0.26
		c-0.94-0.12-1.87-0.27-2.73-0.41l-2.72,5.08l-2.72,5.08l5.06,7.65l5.06,7.65c0.33-4.12,0.57-8.25,0.71-12.38
		C631.82,426.51,631.87,422.37,631.83,418.23L631.83,418.23L631.83,418.23z M628.07,466.38c-4.73-0.18-9.45,0.68-13.83,2.42
		c-4.37,1.74-8.4,4.35-11.74,7.69c-3.23,3.22-5.78,6.95-7.52,11.06c-1.74,4.11-2.68,8.6-2.68,13.35s0.94,9.32,2.68,13.47
		c1.74,4.15,4.3,7.87,7.52,10.9c0.94,1.02,1.95,1.95,3.02,2.82s2.2,1.65,3.4,2.38c4.44-10.1,8.29-20.51,11.5-31.21
		C623.63,488.57,626.2,477.59,628.07,466.38L628.07,466.38L628.07,466.38z M601.06,546.76c-2.11-1.15-4.12-2.45-6.04-3.89
		c-1.91-1.44-3.72-3.01-5.42-4.71c-3.58-3.55-6.64-7.62-9.06-12.06c-2.42-4.44-4.2-9.27-5.21-14.34l-12.52,2.12l-12.52,2.12
		c-0.12,0.02-0.18,0.11-0.19,0.2c-0.01,0.09,0.03,0.2,0.14,0.25c2.62,1.32,3.91,3.8,3.94,6.3s-1.19,5.01-3.61,6.41
		c-0.09,0.05-0.15,0.14-0.16,0.23c-0.01,0.09,0.02,0.19,0.1,0.26l19.96,16.93l19.96,16.93c0.18,0.15,0.4,0.2,0.61,0.17
		s0.41-0.15,0.53-0.35c1.67-2.69,3.3-5.42,4.88-8.19C598.05,552.39,599.58,549.59,601.06,546.76L601.06,546.76L601.06,546.76z
		 M589.24,566.12l-24.61-9.74l-24.61-9.74c0,3.05-1.7,5.58-4.08,6.81c-2.38,1.23-5.44,1.15-8.16-1.03l5.13,14.05l5.13,14.05
		c0.08,0.21,0.21,0.38,0.38,0.51s0.38,0.2,0.6,0.21c5.77,0.26,11.4,1.18,16.85,2.69c5.46,1.51,10.76,3.6,15.89,6.21
		c0.2,0.1,0.43,0.13,0.64,0.08c0.21-0.04,0.41-0.16,0.55-0.34c2.91-3.66,5.73-7.39,8.46-11.2c2.73-3.81,5.35-7.69,7.88-11.64
		c0.08-0.12,0.06-0.35,0.03-0.55C589.3,566.29,589.24,566.12,589.24,566.12z M415.18,686.53c-0.49-1.11-0.91-2.48-1.3-3.88
		c-0.38-1.4-0.73-2.82-1.05-4.02c-0.02-0.09-0.26-0.2-0.5-0.25c-0.24-0.05-0.48-0.04-0.53,0.09c-0.48,1.46-1.35,3.35-2.29,5.17
		c-0.94,1.82-1.94,3.57-2.68,4.77c-0.03,0.05-0.02,0.11,0.02,0.15c0.03,0.04,0.09,0.07,0.14,0.06c1.35-0.23,2.69-0.48,4.02-0.73
		s2.68-0.51,4.02-0.78c0.06-0.01,0.12-0.11,0.15-0.24C415.22,686.76,415.22,686.62,415.18,686.53z M376.04,691.17
		c-1.48-3.79-2.97-7.64-4.54-11.7c-1.57-4.05-3.21-8.31-4.97-12.89c-0.23-0.6-0.09-1.21,0.26-1.65c0.36-0.44,0.93-0.7,1.56-0.61
		c19.08,2.9,25.2,3.84,29.62,4.53c4.42,0.69,7.14,1.13,19.41,3.04c0.22,0.03,0.42,0.13,0.57,0.27c0.16,0.14,0.28,0.33,0.33,0.54
		l1.43,5.41l1.43,5.41c0.08,0.34,0.27,0.66,0.51,0.95c0.24,0.29,0.55,0.54,0.89,0.73c0.1,0.06,0.21,0.09,0.32,0.1
		c0.11,0.01,0.23,0,0.34-0.03c0.42-0.1,0.84-0.21,1.27-0.31c0.43-0.1,0.86-0.21,1.29-0.31c0.33-0.35,0.6-0.75,0.75-1.18
		c0.15-0.42,0.19-0.87,0.07-1.32l-1.05-4.03l-1.05-4.03c-0.07-0.26,0.01-0.51,0.17-0.68c0.16-0.18,0.4-0.28,0.66-0.24l2.68,0.4
		l2.68,0.4c0.1,0.02,0.19,0.06,0.26,0.13c0.07,0.07,0.12,0.15,0.15,0.25l0.95,3.92l0.95,3.92c0.04,0.15,0.13,0.26,0.25,0.33
		c0.12,0.07,0.27,0.09,0.41,0.05c0.75-0.21,1.5-0.43,2.25-0.65c0.75-0.22,1.5-0.45,2.25-0.67c0.12-0.04,0.21-0.11,0.26-0.21
		s0.08-0.22,0.05-0.33l-0.62-2.74l-0.62-2.74c-0.03-0.13,0.01-0.25,0.09-0.34c0.08-0.08,0.2-0.13,0.33-0.11l5.49,0.97l5.49,0.97
		c0.17,0.02,0.35,0.05,0.52,0.09c0.17,0.03,0.34,0.07,0.5,0.11c0.24,0.06,0.44,0.04,0.58-0.05c0.13-0.09,0.2-0.25,0.17-0.49
		c-0.11-0.84-0.29-2.28-0.45-3.77c-0.16-1.48-0.29-3.01-0.3-4.04c0-0.1-0.04-0.18-0.09-0.25c-0.06-0.07-0.14-0.11-0.24-0.13
		l-5.63-0.91l-5.63-0.91c-0.23-0.04-0.41-0.19-0.5-0.37s-0.09-0.42,0.02-0.62l2.65-4.66l2.65-4.66c0.51-0.66,0.59-1.43,0.37-2.15
		c-0.22-0.72-0.72-1.41-1.39-1.91c-0.68-0.33-1.45-0.33-2.13-0.08c-0.68,0.25-1.28,0.76-1.63,1.44l-3.43,5.7l-3.43,5.7
		c-0.08,0.13-0.19,0.23-0.33,0.29c-0.13,0.06-0.28,0.08-0.43,0.06l-2.48-0.39l-2.48-0.39c-0.24-0.04-0.42-0.19-0.51-0.38
		c-0.09-0.19-0.09-0.43,0.03-0.64l2.62-4.47l2.62-4.47c0.35-0.68,0.44-1.45,0.27-2.12c-0.17-0.68-0.6-1.27-1.29-1.63
		c-0.66-0.51-1.43-0.59-2.11-0.37c-0.68,0.21-1.28,0.72-1.61,1.39l-3.41,5.7l-3.41,5.7c-0.09,0.15-0.22,0.26-0.36,0.32
		c-0.15,0.07-0.32,0.09-0.48,0.07c-8.24-1.3-14.04-2.2-21.05-3.26c-7.01-1.06-15.23-2.26-28.33-4.17c-0.45-0.06-0.77-0.36-0.92-0.73
		c-0.14-0.37-0.11-0.81,0.17-1.16c7.43-9.29,12.83-15.96,17.58-21.83c4.75-5.88,8.85-10.96,13.7-17.08
		c0.11-0.14,0.26-0.24,0.42-0.29c0.16-0.05,0.34-0.06,0.51,0l6.35,1.94l6.35,1.94c0.68,0.18,1.45,0.09,2.08-0.25
		c0.64-0.34,1.14-0.94,1.32-1.78c0.33-0.68,0.24-1.44-0.1-2.08s-0.94-1.14-1.62-1.32l-5.07-1.54l-5.07-1.54
		c-0.25-0.08-0.42-0.27-0.49-0.49c-0.07-0.22-0.03-0.48,0.13-0.68l1.48-1.84l1.48-1.84c0.13-0.16,0.3-0.28,0.49-0.34
		c0.19-0.06,0.4-0.06,0.59,0l6.45,1.93l6.45,1.93c0.68,0.18,1.45,0.01,2.08-0.37c0.64-0.38,1.14-0.98,1.32-1.66
		c0.35-0.66,0.26-1.43-0.08-2.06s-0.94-1.16-1.6-1.33l-5.23-1.57l-5.23-1.57c-0.18-0.05-0.31-0.19-0.36-0.36
		c-0.05-0.16-0.03-0.35,0.09-0.5l3.67-4.78l3.67-4.78c0.84-0.84,1.18-1.93,1.06-2.99c-0.12-1.05-0.71-2.07-1.73-2.75
		c-0.86-0.84-1.96-1.18-3.03-1.1s-2.08,0.59-2.76,1.45l-3.44,4.36l-3.44,4.36c-0.14,0.17-0.34,0.25-0.54,0.23
		c-0.2-0.02-0.39-0.13-0.49-0.32l-1.98-3.63l-1.98-3.63c-0.33-0.68-0.93-1.19-1.61-1.45s-1.46-0.25-2.14,0.08
		c-0.66,0.51-1.17,1.18-1.43,1.9c-0.25,0.72-0.25,1.48,0.1,2.16l2.69,4.75l2.69,4.75c0.11,0.2,0.15,0.41,0.13,0.63
		s-0.11,0.42-0.25,0.59l-1.64,1.89l-1.64,1.89c-0.15,0.18-0.37,0.25-0.58,0.23c-0.21-0.02-0.41-0.14-0.52-0.35l-1.98-3.64
		l-1.98-3.64c-0.33-0.68-0.92-1.19-1.59-1.44s-1.44-0.25-2.12,0.08c-0.68,0.51-1.19,1.19-1.4,1.91c-0.21,0.72-0.12,1.48,0.39,2.15
		l2.58,4.98l2.58,4.98c0.09,0.17,0.12,0.35,0.1,0.53c-0.02,0.18-0.09,0.36-0.21,0.5c-6.24,7.67-8.86,10.87-12.5,15.41
		c-3.65,4.53-8.33,10.39-18.69,23.36c-0.37,0.47-0.93,0.64-1.45,0.57c-0.52-0.08-1-0.41-1.22-0.97
		c-4.75-12.07-7.52-19.18-9.97-25.44c-2.45-6.26-4.58-11.66-8.04-20.31c-0.1-0.26-0.12-0.54-0.07-0.81c0.06-0.26,0.19-0.51,0.4-0.7
		l4.41-4.1l4.41-4.1c0.51-0.51,0.85-1.27,0.94-2.03c0.09-0.76-0.08-1.52-0.59-2.03c-0.68-0.51-1.46-0.85-2.18-0.89
		c-0.73-0.04-1.41,0.21-1.92,0.89l-3.51,3.37l-3.51,3.37c-0.18,0.18-0.43,0.23-0.65,0.19c-0.22-0.05-0.42-0.19-0.52-0.43l-1.02-2.41
		l-1.02-2.41c-0.08-0.2-0.1-0.41-0.06-0.61c0.04-0.2,0.14-0.39,0.3-0.54l4.49-4.32l4.49-4.32c0.68-0.51,1.03-1.19,1.07-1.87
		c0.04-0.68-0.21-1.35-0.72-1.84c-0.68-0.68-1.45-1.03-2.17-1.07c-0.72-0.04-1.39,0.21-1.9,0.72l-3.49,3.33l-3.49,3.33
		c-0.2,0.19-0.47,0.25-0.71,0.2c-0.24-0.05-0.46-0.22-0.56-0.48l-2-5.21l-2-5.21c-0.51-1.02-1.36-1.78-2.38-2.2
		c-1.02-0.42-2.21-0.51-3.41-0.18c-1.02,0.51-1.78,1.36-2.2,2.37c-0.42,1.02-0.5,2.2-0.15,3.37l1.91,4.84l1.91,4.84
		c0.14,0.36,0.08,0.73-0.12,1.01c-0.2,0.28-0.53,0.47-0.91,0.45l-4.28-0.15l-4.28-0.15c-0.84,0-1.52,0.34-1.98,0.89
		c-0.46,0.55-0.72,1.31-0.72,2.15c0,0.68,0.25,1.36,0.72,1.86c0.46,0.5,1.14,0.83,1.98,0.83l5.87,0.16l5.87,0.16
		c0.25,0.01,0.48,0.09,0.67,0.22s0.35,0.33,0.44,0.56l0.84,2.14l0.84,2.14c0.1,0.25,0.06,0.51-0.08,0.71
		c-0.14,0.2-0.36,0.34-0.64,0.34h-4.52h-4.52c-0.86-0.16-1.54,0.1-2.01,0.61s-0.72,1.27-0.72,2.13c-0.18,0.68,0.08,1.36,0.59,1.86
		c0.51,0.5,1.29,0.83,2.15,0.83l5.84,0.16l5.84,0.16c0.27,0.01,0.52,0.1,0.73,0.25c0.21,0.15,0.38,0.36,0.47,0.61
		c3.47,9.11,5.37,14.06,7.66,19.97c2.29,5.9,4.97,12.75,9.99,25.67c0.23,0.59,0.09,1.19-0.25,1.62c-0.35,0.43-0.91,0.69-1.53,0.6
		c-15.89-2.47-23.06-3.57-28.74-4.42c-5.68-0.85-9.86-1.45-19.79-2.91c-0.08-0.01-0.15-0.05-0.21-0.1c-0.06-0.05-0.1-0.12-0.12-0.19
		l-1.67-6.47l-1.67-6.47c-0.16-0.84-0.58-1.44-1.17-1.78c-0.59-0.34-1.35-0.43-2.19-0.25c-0.68,0.18-1.28,0.6-1.67,1.19
		c-0.39,0.59-0.56,1.35-0.41,2.21l1.29,5.1l1.29,5.1c0.04,0.15-0.01,0.29-0.1,0.39c-0.09,0.1-0.23,0.16-0.38,0.14l-2.88-0.43
		l-2.88-0.43c-0.12-0.02-0.23-0.07-0.32-0.15c-0.09-0.08-0.15-0.19-0.18-0.31l-1.48-6.4l-1.48-6.4c-0.18-0.84-0.68-1.44-1.32-1.78
		c-0.64-0.34-1.4-0.43-2.08-0.25c-0.84,0.18-1.44,0.6-1.78,1.19c-0.34,0.59-0.43,1.35-0.25,2.21l1.26,4.99l1.26,4.99
		c0.05,0.2-0.01,0.4-0.13,0.54c-0.12,0.14-0.31,0.22-0.52,0.19l-5.86-0.78l-5.86-0.78c-1.19-0.18-2.38,0.16-3.3,0.79
		c-0.93,0.63-1.6,1.56-1.78,2.57c-0.18,1.19,0.17,2.38,0.85,3.32c0.68,0.94,1.71,1.62,2.9,1.8l5.45,0.79l5.45,0.79
		c0.15,0.02,0.26,0.12,0.32,0.24c0.06,0.12,0.06,0.27-0.02,0.4l-2.23,3.79l-2.23,3.79c-0.51,0.68-0.59,1.45-0.41,2.12
		c0.18,0.67,0.61,1.26,1.11,1.59c0.66,0.53,1.51,0.7,2.27,0.58c0.76-0.13,1.45-0.56,1.8-1.24l2.96-4.93l2.96-4.93
		c0.06-0.09,0.14-0.16,0.23-0.21s0.2-0.06,0.3-0.04l2.99,0.45l2.99,0.45c0.11,0.02,0.19,0.09,0.23,0.18
		c0.04,0.09,0.04,0.2-0.02,0.29l-2.42,3.86l-2.42,3.86c-0.35,0.68-0.44,1.45-0.27,2.16c0.17,0.72,0.6,1.39,1.29,1.9
		c0.66,0.35,1.43,0.44,2.11,0.27c0.68-0.17,1.28-0.6,1.61-1.28l3.16-5.15l3.16-5.15c0.04-0.07,0.1-0.11,0.17-0.15
		c0.07-0.03,0.14-0.04,0.22-0.03c8.43,1.3,15.55,2.45,23.22,3.66s15.9,2.5,26.53,4.07c0.58,0.09,1,0.47,1.19,0.95
		c0.19,0.48,0.14,1.05-0.23,1.51c-4.6,5.72-8.34,10.36-11.6,14.4s-6.06,7.47-8.76,10.78c-0.29,0.36-0.33,0.8-0.18,1.18
		s0.49,0.67,0.95,0.72c1.17,0.13,2.34,0.25,3.52,0.37s2.35,0.23,3.54,0.33c0.28,0.02,0.56-0.02,0.81-0.13s0.48-0.28,0.65-0.5
		c1.76-2.24,3.85-4.88,6.67-8.44c2.82-3.55,6.37-8.01,11.06-13.88c0.32-0.4,0.8-0.56,1.25-0.49c0.45,0.07,0.86,0.36,1.05,0.84
		c2.09,5.29,3.81,9.66,5.3,13.42s2.74,6.93,3.88,9.84c0.03,0.07,0.08,0.13,0.14,0.17c0.06,0.04,0.14,0.06,0.21,0.06
		c1.31-0.04,2.6-0.09,3.9-0.14s2.6-0.12,3.9-0.19c0.15-0.01,0.32-0.19,0.43-0.42S376.11,691.34,376.04,691.17z M309.44,686.28
		c-0.45-0.84-0.88-1.69-1.29-2.55c-0.41-0.86-0.79-1.72-1.15-2.59c-0.07-0.16-0.2-0.26-0.35-0.29s-0.31,0.01-0.43,0.14
		c-0.7,0.72-1.41,1.44-2.12,2.16c-0.71,0.72-1.42,1.44-2.12,2.16c-0.2,0.21-0.25,0.48-0.18,0.72c0.07,0.24,0.27,0.45,0.55,0.51
		c1.07,0.23,2.14,0.46,3.21,0.67s2.15,0.43,3.24,0.63c0.29,0.05,0.53-0.18,0.66-0.51C309.6,687.02,309.61,686.6,309.44,686.28z
		 M269.74,677.35c0.2-0.1,0.4-0.17,0.62-0.21c0.22-0.04,0.45-0.06,0.71-0.06c0.65,0.04,2.29,0.1,3.88,0.2
		c1.59,0.1,3.14,0.25,3.59,0.46c0.4,0.14,0.76,0.48,1.01,0.89c0.26,0.41,0.41,0.9,0.38,1.34c-0.01,0.22,0.06,0.42,0.18,0.58
		c0.13,0.16,0.31,0.29,0.51,0.35c0.48,0.15,0.97,0.29,1.44,0.44c0.48,0.14,0.95,0.28,1.43,0.42c2.67-0.63,6.48-1.8,10.3-2.85
		s7.66-1.99,10.4-2.16c0.21-0.01,0.39-0.13,0.5-0.3s0.14-0.38,0.08-0.58c-0.85-2.7-1.32-5.02-1.69-7.34s-0.64-4.66-1.09-7.39h-0.18
		h-0.18c-1.19,2.03-2.38,4.4-3.91,6.44s-3.4,3.73-5.94,4.42c-2.18,0.3-3.83,0.23-5.31-0.27s-2.78-1.43-4.25-2.84
		c-0.08-0.08-0.19-0.12-0.29-0.12c-0.11,0-0.22,0.03-0.3,0.1c-1.16,0.95-2.91,1.34-4.68,1.33c-1.77-0.01-3.56-0.44-4.79-1.13
		c-1.15-0.64-2.18-1.52-3.01-2.58c-0.83-1.06-1.45-2.3-1.8-3.67c-0.16-0.93-0.17-1.99-0.05-3.06s0.4-2.16,0.81-3.14
		c0.06-0.14,0.05-0.3-0.02-0.42c-0.07-0.12-0.18-0.22-0.34-0.24c-1.72-0.3-3.22-0.58-4.61-1.22c-1.39-0.64-2.68-1.64-3.97-3.4
		c-1.68-2.38-2.27-5.26-1.8-8.02c0.47-2.75,1.99-5.38,4.54-7.25c1.76-1.28,3.29-1.79,4.85-1.95c1.56-0.16,3.15,0.03,5.04,0.17
		c0.3,0.02,0.41-0.09,0.44-0.22c0.03-0.12-0.01-0.25-0.01-0.25l-0.08-0.23l-0.08-0.23c-0.42-1.51-0.42-2.69-0.19-3.75
		c0.23-1.06,0.7-1.99,1.21-3.01c-4.23-0.66-8.47-2.26-12.53-4.75c-4.06-2.5-7.93-5.9-11.44-10.16c-0.23-0.28-0.53-0.49-0.86-0.59
		s-0.69-0.11-1.03,0.01c-4.71,1.66-10.8,0.7-15.88-1.79c-5.08-2.49-9.15-6.5-9.79-10.93c-0.03-0.19-0.1-0.36-0.2-0.52
		c-0.1-0.15-0.24-0.28-0.41-0.36l-3.7-1.85l-3.7-1.85c-0.26-0.13-0.51-0.05-0.66,0.13c-0.15,0.18-0.19,0.44-0.03,0.68
		c0.88,1.28,1.49,2.79,1.85,4.43c0.36,1.64,0.47,3.4,0.33,5.17l10.03,13.55l10.03,13.55c0.84,1.02,1.09,2.36,0.88,3.67
		c-0.21,1.31-0.88,2.58-1.9,3.44c-1.19,0.68-2.55,0.94-3.83,0.72s-2.47-0.9-3.33-2.09l-9.83-13.2l-9.83-13.2
		c-2.08-0.41-3.99-1.11-5.62-2.07c-1.62-0.96-2.96-2.17-3.9-3.62c-0.1-0.16-0.28-0.19-0.42-0.14c-0.14,0.05-0.24,0.19-0.21,0.38
		l0.81,4.75l0.81,4.75c4.32,1.64,7.1,6.83,8.02,12.59c0.92,5.76,0,12.07-3.09,15.96c4.55,3.2,9.23,6.28,14,9.21
		c4.77,2.93,9.64,5.73,14.58,8.36c0.47-1.7,1.59-7.39,3.11-12.49c1.52-5.1,3.44-9.6,5.49-8.91c0.51,0.18,0.94,0.43,1.29,0.77
		c0.35,0.34,0.61,0.76,0.79,1.26l2.87,10.33l2.87,10.33c0.18,0.37,0.32,0.99,0.35,1.58s-0.06,1.17-0.35,1.46l-0.86,1.46l-0.86,1.46
		l0.25,0.12l0.25,0.12l1.62-1.74l1.62-1.74c0.18-0.18,0.35-0.43,0.57-0.68s0.47-0.51,0.8-0.68c1.47-0.47,2.56,0.36,3.47,1.53
		c0.9,1.17,1.62,2.67,2.32,3.55c0.66,0.84,1.09,1.5,1.24,2.2c0.15,0.69,0.01,1.42-0.46,2.37c1.82,0.72,3.66,1.44,5.51,2.13
		C266,676.01,267.87,676.69,269.74,677.35L269.74,677.35L269.74,677.35z M183.1,627.32c0.12-2.44,0.6-4.77,1.45-6.78
		s2.07-3.67,3.68-4.78l-0.25-4.41l-0.25-4.41c-0.01-0.24-0.19-0.4-0.38-0.43s-0.41,0.05-0.5,0.27c-0.64,1.51-1.65,2.85-2.93,4.02
		s-2.83,2.15-4.53,2.93l-1.6,3.71l-1.6,3.71c1.13,1.05,2.28,2.09,3.43,3.11C180.77,625.29,181.93,626.31,183.1,627.32L183.1,627.32
		L183.1,627.32z M168.25,613.58l1-2.3l1-2.3c-0.71-2-1.12-3.94-1.13-5.77s0.39-3.55,1.29-5.12c0.07-0.13,0.03-0.26-0.06-0.33
		c-0.09-0.07-0.23-0.09-0.34,0l-3.95,3.25l-3.95,3.25c0.08,0.51,0.12,1.02,0.12,1.52c0,0.51-0.04,1.02-0.12,1.52
		c0.94,1,1.88,1.98,2.82,2.96c0.94,0.98,1.89,1.94,2.85,2.9c0.08,0.08,0.16,0.15,0.23,0.21
		C168.09,613.43,168.17,613.5,168.25,613.58L168.25,613.58L168.25,613.58z M151.12,594.91c0.86-0.06,1.71-0.02,2.53,0.12
		s1.6,0.39,2.32,0.74l4.16-2.63l4.16-2.63c0.14-0.09,0.17-0.23,0.12-0.35c-0.05-0.12-0.17-0.21-0.33-0.18
		c-1.66,0.31-3.42,0.19-5.16-0.28c-1.74-0.47-3.44-1.3-4.98-2.41l-4.11,0.47l-4.11,0.47c0.88,1.11,1.77,2.23,2.67,3.34
		S150.2,593.8,151.12,594.91L151.12,594.91L151.12,594.91z M138.61,578.74l7.15-0.8l7.15-0.8c1.22-1.36,2.66-2.5,4.21-3.34
		c1.55-0.84,3.2-1.37,4.86-1.51c0.21-0.02,0.34-0.17,0.36-0.33c0.02-0.16-0.06-0.34-0.25-0.41l-4.59-1.61l-4.59-1.61
		c-3.15,2.69-8.27,2.88-13.27,1.41c-5-1.47-9.89-4.61-12.57-8.55c1.82,3.01,3.68,5.98,5.61,8.9
		C134.6,573,136.58,575.89,138.61,578.74L138.61,578.74L138.61,578.74z M120.31,549.33c0.2-0.04,0.37-0.09,0.54-0.14
		c0.17-0.05,0.32-0.11,0.48-0.17c-0.16-0.59-0.47-1.2-0.91-1.81c-0.44-0.61-1-1.21-1.66-1.8c-0.14-0.13-0.26-0.12-0.32-0.02
		c-0.06,0.1-0.05,0.27,0.05,0.48c0.3,0.58,0.61,1.16,0.91,1.73C119.7,548.18,120.01,548.76,120.31,549.33L120.31,549.33
		L120.31,549.33z M111.59,531.56c2.29,0.79,4.55,1.86,6.75,3.2c2.2,1.34,4.35,2.95,6.4,4.83c0.19,0.18,0.44,0.18,0.63,0.07
		c0.18-0.11,0.3-0.32,0.23-0.58l-3.66-13.15l-3.66-13.15l2.54-4.24l2.54-4.24v-6.78v-6.78l-8.48,9.14l-8.48,9.14l-3.05-4.75
		l-3.05-4.75l11.03-11.85l11.03-11.85l0.51-10.33l0.51-10.33l-14.06,13.88l-14.06,13.88c1.97,8.44,4.33,16.72,7.06,24.82
		C105.03,515.87,108.13,523.81,111.59,531.56L111.59,531.56L111.59,531.56z M93.76,476.15l4.46-16.75l4.46-16.75l-6.45,4.08
		l-6.45,4.08c0.47,4.3,1.04,8.55,1.7,12.78S92.9,471.99,93.76,476.15L93.76,476.15L93.76,476.15z M88.64,437.01l4.12-2.11l4.12-2.11
		l-4.28-1.13l-4.28-1.13c0.04,1.07,0.09,2.16,0.14,3.24C88.53,434.86,88.58,435.94,88.64,437.01L88.64,437.01L88.64,437.01z
		 M91.43,410.84l2.43-0.62l2.43-0.62c0.1-0.03,0.16-0.11,0.17-0.2s-0.03-0.18-0.13-0.23l-3.62-1.85l-3.62-1.85
		c-0.11-0.05-0.22-0.05-0.32,0.01s-0.16,0.15-0.17,0.27c-0.05,0.94-0.1,1.88-0.15,2.82s-0.09,1.87-0.13,2.79
		c0,0.07,0.03,0.13,0.08,0.17s0.12,0.06,0.19,0.04l1.41-0.36L91.43,410.84z M89.78,391.44l6.45,4.08l6.45,4.08l-4.11-15.44
		l-4.11-15.44c-0.08-0.32-0.36-0.47-0.62-0.46s-0.53,0.17-0.59,0.5c-0.73,3.72-1.39,7.48-1.96,11.27S90.2,387.61,89.78,391.44
		L89.78,391.44L89.78,391.44z M95.25,359.34l14.06,14.04l14.06,14.04l-0.33-10.51l-0.33-10.51l-9.9-10.54l-9.9-10.54
		c-0.07-0.07-0.15-0.06-0.21-0.02s-0.09,0.13-0.03,0.21l5.15,7.87l5.15,7.87c0.14,0.22,0.1,0.46-0.03,0.63s-0.37,0.25-0.61,0.16
		l-8.07-3.24l-8.07-3.24c-0.16,0.62-0.3,1.25-0.45,1.87C95.55,358.09,95.41,358.71,95.25,359.34L95.25,359.34L95.25,359.34z
		 M112.61,308.53l4.2-0.15l4.2-0.15c0.41-0.01,0.71,0.24,0.82,0.56s0.04,0.7-0.29,0.94l-6.91,5.08l-6.91,5.08
		c-1.45,3.57-2.82,7.18-4.11,10.81s-2.5,7.31-3.64,11.02l0.33,0.49l0.33,0.49l2.71-4.21l2.71-4.21c0.17-0.27,0.45-0.42,0.74-0.45
		c0.29-0.03,0.59,0.07,0.8,0.31l8.05,8.68l8.05,8.68l-0.18-6.78l-0.18-6.78l-2.54-4.22l-2.54-4.22l4.59-16.11l4.59-16.11
		c-1.51-0.06-2.98-0.21-4.43-0.44c-1.45-0.24-2.86-0.57-4.25-1c-1.08,2.09-2.13,4.19-3.16,6.3
		C114.59,304.25,113.59,306.38,112.61,308.53L112.61,308.53L112.61,308.53z M124.93,284.7c7.1,1.29,14.01-0.84,19.14-5.1
		c5.14-4.26,8.5-10.66,8.5-17.9c0-2.19-0.31-4.3-0.9-6.29c-0.59-1.99-1.45-3.87-2.54-5.58c-4.48,5.47-8.74,11.12-12.78,16.94
		C132.32,272.59,128.5,278.57,124.93,284.7L124.93,284.7L124.93,284.7z M185.18,213.23c2.03,2.18,2.32,3.74,1.74,5.29
		c-0.58,1.55-2.04,3.09-3.5,5.21c-0.08,0.12-0.12,0.25-0.12,0.39s0.04,0.28,0.11,0.39l4.29,6.56l4.29,6.56l3.67-6.02l3.67-6.02
		c0.14-0.23,0.35-0.39,0.6-0.47c0.24-0.08,0.51-0.07,0.76,0.04l6.33,2.71l6.33,2.71l6.18-3.32l6.18-3.32
		c0.27-0.15,0.57-0.18,0.86-0.12c0.28,0.06,0.54,0.22,0.73,0.47l4.25,5.66l4.25,5.66l4-7.66l4-7.66c0.13-0.25,0.36-0.43,0.61-0.51
		c0.25-0.08,0.54-0.06,0.79,0.07l3.12,1.62l3.12,1.62l3.85-3.84l3.85-3.84c0.14-0.14,0.3-0.25,0.48-0.32
		c0.18-0.07,0.37-0.11,0.57-0.11h5.13h5.13l6.45-3.55l6.45-3.55l-12.3-2.7l-12.3-2.7c-0.39-0.09-0.69-0.35-0.84-0.67
		c-0.15-0.33-0.16-0.72,0.02-1.08l2.23-4.33l2.23-4.33c0.17-0.34,0.45-0.59,0.77-0.74c0.32-0.15,0.7-0.19,1.07-0.1l15.96,3.82
		l15.96,3.82c0.25,0.06,0.5,0.07,0.75,0.04c0.25-0.03,0.49-0.11,0.71-0.22l8.69-4.53l8.69-4.53c0.35-0.18,0.5-0.54,0.46-0.87
		c-0.04-0.33-0.26-0.64-0.64-0.74l-19.73-5.28l-19.73-5.28c-0.88-0.24-1.32-0.98-1.32-1.72c0-0.74,0.45-1.48,1.34-1.71l19.82-5.03
		l19.82-5.03c0.34-0.09,0.54-0.36,0.57-0.65c0.03-0.29-0.1-0.6-0.41-0.76l-6.33-3.2l-6.33-3.2c-0.19-0.1-0.39-0.16-0.6-0.18
		c-0.21-0.03-0.42-0.02-0.62,0.03c-11.77,2.61-23.27,5.97-34.42,10.04c-11.15,4.07-21.97,8.84-32.37,14.25
		c-0.3,0.16-0.49,0.44-0.53,0.75c-0.05,0.3,0.04,0.63,0.29,0.87l10.28,10.27l10.28,10.27c1.68,1.72,1.78,3.64,0.99,5.02
		c-0.79,1.38-2.47,2.22-4.35,1.77c-2.38-0.61-10.15-2.07-17.68-3.88c-7.53-1.81-14.83-3.97-16.3-5.96l-1.55-2.32l-1.55-2.32
		c0,0-0.15-0.22-0.31-0.44s-0.34-0.43-0.39-0.4c-0.05,0.03,0.01,0.27,0.09,0.5s0.17,0.47,0.17,0.47l1.26,3.78l1.26,3.78
		c1.43,2.85,0.38,4.32-1.47,5.1c-1.85,0.78-4.5,0.88-6.28,1c-1.35,0.1-3.23,0.32-4.85,0.07c-1.63-0.25-3.01-0.97-3.36-2.77
		l-0.47-1.46l-0.47-1.46c-0.06-0.18-0.2-0.31-0.36-0.37c-0.16-0.05-0.35-0.03-0.51,0.08c-0.68,0.49-1.35,0.99-2.02,1.5
		s-1.34,1.01-2,1.52c0.96,2.03,0.29,3.98-1,5.02s-3.22,1.17-4.78-0.45c-0.63,0.51-1.24,1.02-1.85,1.52S185.78,212.73,185.18,213.23
		L185.18,213.23L185.18,213.23z M549.52,230.3l-0.61,0.3l-0.61,0.3c-0.51,0.28-1.09,0.34-1.62,0.21c-0.53-0.13-1.01-0.46-1.33-0.95
		l-2.84-4.38l-2.84-4.38v-0.18v-0.18h-0.18h-0.18l-5.61-0.31l-5.61-0.31c-0.28-0.02-0.53-0.13-0.71-0.32
		c-0.18-0.18-0.3-0.43-0.32-0.71l-0.3-5.34l-0.3-5.34c-0.01-0.2-0.13-0.37-0.29-0.46c-0.16-0.09-0.36-0.1-0.54,0l-4.87,2.66
		l-4.87,2.66c0.84,1.37,1.86,2.65,2.92,3.84c1.06,1.19,2.17,2.29,3.18,3.31c4.65,4.6,9.92,8.5,15.72,11.44
		c5.8,2.94,12.12,4.93,18.85,5.7c0.29,0.03,0.56-0.07,0.76-0.24c0.2-0.18,0.33-0.44,0.33-0.73v-0.74v-0.74
		c0-0.22-0.04-0.43-0.12-0.62c-0.08-0.2-0.19-0.38-0.34-0.53c-0.78-0.81-1.56-1.63-2.34-2.44s-1.58-1.62-2.38-2.42
		c-0.15-0.15-0.35-0.24-0.55-0.27c-0.2-0.03-0.42,0.01-0.61,0.12l-0.9,0.52L549.52,230.3z M173.02,224.05
		c-0.22,0.21-0.43,0.42-0.65,0.62c-0.22,0.21-0.43,0.41-0.65,0.62c0.19,0.23,0.38,0.61,0.51,1.04s0.2,0.91,0.16,1.32
		c-0.01,0.1,0.03,0.18,0.1,0.22c0.07,0.05,0.16,0.06,0.24,0.01l1.04-0.57l1.04-0.57c0.13-0.07,0.2-0.19,0.22-0.32
		s-0.02-0.27-0.12-0.37l-0.96-1L173.02,224.05z M88.21,418.22c-0.02,1-0.03,2-0.03,2.99c0,0.99,0.01,1.98,0.03,2.96l8.25,2.28
		l8.25,2.28l6.72-3.66l6.72-3.66c0.17-0.1,0.26-0.27,0.26-0.44c0-0.17-0.09-0.34-0.27-0.43l-6.71-3.36l-6.71-3.36l-8.14,2.06
		l-8.14,2.06c-0.06,0.02-0.12,0.05-0.16,0.1S88.21,418.15,88.21,418.22z M190.92,633.77c1.02,0.8,2.02,1.59,3.03,2.37
		c1.01,0.78,2.03,1.55,3.06,2.31c2.48-2.07,3.33-5.98,2.76-9.5c-0.57-3.51-2.57-6.63-5.77-7.1c-1.74,0.64-2.88,2.47-3.41,4.71
		C190.08,628.81,190.18,631.46,190.92,633.77L190.92,633.77L190.92,633.77z M359.95,691.92l-2-4.92l-2-4.92
		c-0.15-0.36-0.46-0.57-0.8-0.62s-0.7,0.07-0.94,0.37l-3.7,4.58l-3.7,4.58c2.44,0.82,4.35,1.24,6.26,1.45
		c1.91,0.21,3.81,0.22,6.24,0.23c0.12,0,0.28-0.19,0.41-0.37C359.85,692.1,359.95,691.92,359.95,691.92z M492.21,658.45
		c0.43-0.24,0.85-0.48,1.27-0.71c0.42-0.24,0.84-0.47,1.26-0.71c0.44-0.25,0.69-0.69,0.73-1.15s-0.13-0.93-0.54-1.24
		c-0.96-0.73-1.78-1.5-2.47-2.33c-0.69-0.84-1.25-1.74-1.67-2.76c-0.12-0.3-0.33-0.54-0.59-0.71c-0.26-0.17-0.56-0.28-0.88-0.3
		c-3-0.26-5.83-0.96-8.4-1.95c-2.56-0.99-4.86-2.28-6.77-3.71c-0.63-0.5-1.25-1.04-1.84-1.61c-0.59-0.57-1.14-1.16-1.62-1.78
		c-0.22-0.28-0.56-0.4-0.87-0.36c-0.31,0.04-0.6,0.23-0.74,0.57c-1.09,2.75-1.98,5.57-2.69,8.44s-1.24,5.81-1.58,8.8
		c-0.05,0.4,0.09,0.78,0.34,1.06c0.25,0.28,0.61,0.45,1.02,0.45h13.02H492.21z M543.43,621.54c1.49-1.36,2.97-2.73,4.44-4.13
		c1.47-1.4,2.92-2.82,4.36-4.26c1.59-1.59,3.17-3.21,4.73-4.84s3.1-3.29,4.62-4.96c0.25-0.28,0.32-0.64,0.24-0.96
		c-0.08-0.32-0.31-0.61-0.66-0.74c-3.07-1.12-5.57-2.09-8.15-2.95c-2.58-0.85-5.23-1.59-8.62-2.22c-0.45-0.08-0.86,0.09-1.12,0.39
		c-0.26,0.3-0.38,0.73-0.24,1.16c0.23,0.7,0.44,1.4,0.62,2.1c0.18,0.7,0.34,1.4,0.46,2.1l0,0l0,0c0.32,2.43,0.25,5.1-0.2,7.85
		c-0.45,2.75-1.29,5.59-2.52,8.37c-0.09,0.21-0.13,0.43-0.12,0.64c0.01,0.22,0.07,0.43,0.18,0.63c0.11,0.19,0.22,0.4,0.33,0.63
		c0.11,0.23,0.23,0.47,0.34,0.71c0.11,0.24,0.38,0.42,0.65,0.51S543.3,621.66,543.43,621.54z M123.71,396.2l0.16,7.35l0.16,7.35
		c0.01,0.35-0.18,0.63-0.44,0.78c-0.26,0.15-0.6,0.18-0.9,0l-6.28-3.66l-6.28-3.66l-3.3-13.31l-3.3-13.31
		c-0.08-0.31,0.07-0.57,0.3-0.7s0.53-0.12,0.76,0.1l9.56,9.53L123.71,396.2z M124.03,431.67l-0.16,7.18l-0.16,7.18l-9.73,9.7
		l-9.73,9.7c-0.18,0.18-0.42,0.18-0.59,0.08c-0.18-0.1-0.3-0.31-0.24-0.55l3.36-13.55l3.36-13.55l6.27-3.5l6.27-3.5
		c0.3-0.17,0.64-0.14,0.9,0.01C123.86,431.04,124.04,431.32,124.03,431.67z M450.01,657.02c-0.03,0.71-0.11,1.42-0.18,2.12
		c-0.08,0.7-0.15,1.41-0.16,2.12c0,0.04-0.03,0.08-0.07,0.11c-0.04,0.03-0.08,0.05-0.11,0.03c-0.25-0.12-0.47-0.19-0.68-0.22
		s-0.42-0.04-0.68-0.04c-0.02,0-0.04-0.03-0.05-0.06s-0.01-0.07,0.01-0.1c0.34-0.49,0.7-1.21,1.02-1.94
		c0.32-0.74,0.6-1.49,0.76-2.07c0.03-0.11,0.07-0.14,0.09-0.12S450.02,656.94,450.01,657.02z M450.31,653.68
		c-0.18-1.57-0.75-3.03-1.62-4.3c-0.87-1.27-2.03-2.35-3.41-3.15c-1.46-0.8-3.15-1.21-4.84-1.22c-1.69,0-3.39,0.41-4.88,1.27
		c-0.15,0.08-0.31,0.12-0.46,0.1c-0.16-0.02-0.31-0.08-0.43-0.2c-0.28-0.27-0.57-0.53-0.89-0.8c-0.32-0.27-0.68-0.55-1.09-0.83
		c-4.36-2.18-7.61-1.44-10.22,0.65c-2.6,2.09-4.56,5.53-6.31,8.75c-0.13,0.25-0.39,0.34-0.62,0.3c-0.23-0.04-0.44-0.2-0.5-0.48
		c-1.32-6.74-2.07-11.26-3.64-15.64c-1.57-4.37-3.97-8.61-8.57-14.77c-0.06-0.08-0.05-0.17-0.01-0.24c0.04-0.07,0.12-0.11,0.21-0.08
		c2.34,0.71,4.96,1.75,7.57,2.28c2.61,0.53,5.21,0.55,7.5-0.77c1.38-0.69,2.58-1.93,3.46-3.39c0.88-1.46,1.46-3.14,1.59-4.71
		c0.02-0.21,0.09-0.4,0.21-0.56c0.12-0.16,0.28-0.28,0.48-0.35c0.4-0.13,0.8-0.26,1.2-0.39c0.4-0.13,0.8-0.26,1.2-0.4
		c2.21-1.35,3.82-3.47,4.55-5.84c0.72-2.38,0.56-5.01-0.79-7.4c-0.79-1.4-1.72-2.37-2.78-3.11c-1.07-0.74-2.28-1.25-3.65-1.72
		c-0.17-0.06-0.29-0.2-0.33-0.35s-0.02-0.33,0.1-0.47l0.62-0.73l0.62-0.73c0.84-1.19,1.52-2.55,1.94-3.94
		c0.43-1.4,0.6-2.83,0.44-4.18c-0.18-1.35-0.61-2.7-1.29-3.98s-1.62-2.47-2.82-3.48c-1.17-1.02-2.53-1.69-3.93-2.07
		s-2.85-0.45-4.2-0.28c-1.35,0.16-2.71,0.58-3.98,1.25c-1.28,0.68-2.47,1.62-3.48,2.81l-0.27,0.36l-0.27,0.36c0,0-0.19,0.02-0.41,0
		c-0.22-0.02-0.45-0.07-0.54-0.19c-0.55-0.79-1.26-1.45-2.06-1.99c-0.79-0.54-1.67-0.96-2.54-1.26c-1.19-0.33-2.47-0.42-3.75-0.25
		c-1.28,0.17-2.55,0.59-3.72,1.27c-1.19,0.51-2.13,1.27-2.85,2.25c-0.72,0.98-1.23,2.17-1.56,3.53c-0.14,0.4-0.28,0.81-0.4,1.21
		c-0.12,0.4-0.21,0.81-0.26,1.21c-0.02,0.17-0.1,0.33-0.22,0.45c-0.12,0.12-0.27,0.2-0.44,0.23c-0.41,0.06-0.81,0.17-1.22,0.33
		s-0.81,0.38-1.22,0.64c-1.19,0.66-2.12,1.5-2.84,2.48c-0.72,0.97-1.23,2.07-1.58,3.27c-0.78,2.36-0.46,4.58,0.34,6.69
		c0.8,2.11,2.08,4.1,3.23,6.02c0.08,0.14-0.08,0.39-0.32,0.58c-0.24,0.18-0.56,0.3-0.78,0.17c-4.27-2.47-9.9-4.16-15.72-5.01
		c-5.82-0.85-11.83-0.88-16.86-0.04c-0.32,0.05-0.58-0.11-0.7-0.35c-0.12-0.24-0.1-0.55,0.13-0.78l2.27-2.27l2.27-2.27
		c1.04-0.86,1.81-1.87,2.32-3.02c0.51-1.14,0.77-2.41,0.77-3.78c0-1.17-0.25-2.35-0.72-3.5s-1.15-2.25-2.01-3.26
		c-0.29-0.3-0.64-0.6-1.03-0.89c-0.39-0.29-0.82-0.58-1.25-0.87c-0.12-0.08-0.21-0.2-0.26-0.33c-0.05-0.13-0.05-0.28-0.01-0.42
		c0.13-0.43,0.26-0.86,0.36-1.28c0.1-0.43,0.16-0.86,0.16-1.28c0-0.56-0.04-1.11-0.11-1.66c-0.08-0.55-0.2-1.08-0.36-1.6
		c-0.09-0.28,0.03-0.54,0.22-0.68c0.19-0.14,0.47-0.16,0.7,0.02c3.05,2.44,6.51,4.34,10.26,5.64c3.75,1.3,7.81,1.98,12.05,1.98
		c4.93,0,9.6-0.93,13.85-2.66s8.07-4.27,11.29-7.49c1.11-1.13,2.09-2.33,2.98-3.57c0.89-1.24,1.71-2.52,2.51-3.82
		c0.08-0.14,0.19-0.26,0.31-0.36c0.12-0.1,0.26-0.18,0.41-0.24l23.72-9.05l23.72-9.05c0,3.05,1.69,5.58,4.06,6.85
		c2.37,1.27,5.42,1.27,8.14-0.76l-5.61,14.72l-5.61,14.72c-0.06,0.16,0.01,0.3,0.13,0.37c0.12,0.07,0.28,0.06,0.38-0.07l9.95-12.15
		l9.95-12.15c-0.51,3.22,0.94,5.76,3.19,7.16s5.31,1.65,8.03,0.3l2.08,12.85l2.08,12.85c0.07,0.41,0,0.82-0.17,1.18
		c-0.17,0.36-0.44,0.67-0.8,0.88c-3.01,1.8-5.93,3.74-8.69,5.83c-2.76,2.09-5.37,4.33-7.76,6.71c-6.23,6.2-11.69,13.88-15.82,22.22
		c-4.13,8.34-6.93,17.34-7.85,26.2c-0.02,0.2-0.05,0.3-0.08,0.3S450.34,653.88,450.31,653.68z M370.07,626.89l-3.52,4.35l-3.52,4.35
		c-0.21,0.26-0.52,0.36-0.81,0.31c-0.29-0.04-0.56-0.23-0.68-0.54l-2.07-5.1l-2.07-5.1c-0.09-0.22-0.05-0.45,0.07-0.63
		s0.33-0.3,0.56-0.29c2.13,0.02,3.99,0.12,5.84,0.39s3.71,0.68,5.81,1.35c0.15,0.05,0.25,0.28,0.31,0.49
		C370.05,626.69,370.07,626.89,370.07,626.89z M314.91,579.77c-1.16-0.01-2.25,0.24-3.27,0.67c-1.02,0.43-1.98,1.05-2.87,1.78
		c-1.86,1.87-2.79,4.33-2.79,6.78c0,2.45,0.93,4.9,2.79,6.78c0.29,0.42,0.58,0.79,0.89,1.09c0.31,0.3,0.64,0.55,1.02,0.74
		c0.13,0.07,0.23,0.17,0.28,0.29c0.05,0.12,0.06,0.26,0.02,0.4c-0.54,1.65-0.56,3.42-0.15,5.1s1.23,3.28,2.37,4.56
		c0.86,0.86,1.88,1.54,3.02,2.01c1.14,0.47,2.41,0.72,3.78,0.72l3.18,0.12l3.18,0.12c0.3,0.01,0.5,0.21,0.57,0.44
		c0.07,0.24,0.01,0.51-0.23,0.69c-4.57,3.41-8.33,6.67-11.56,10.44c-3.23,3.78-5.93,8.07-8.39,13.57c-0.08,0.27-0.17,0.55-0.26,0.82
		c-0.09,0.27-0.18,0.55-0.27,0.82c-0.08,0.23-0.29,0.23-0.48,0.16c-0.19-0.07-0.36-0.19-0.36-0.19l-0.84-3.5l-0.84-3.5
		c-0.33-1.19-0.93-2.29-1.7-3.27c-0.77-0.98-1.71-1.83-2.72-2.51c-1.45-0.97-3.13-1.47-4.83-1.52c-1.69-0.05-3.4,0.37-4.89,1.24
		c-0.08,0.04-0.23,0.07-0.38,0.07c-0.15,0.01-0.28-0.01-0.31-0.04c-0.05-0.04-0.08-0.08-0.12-0.12s-0.08-0.07-0.13-0.12
		c-0.03-0.02-0.02-0.09,0.01-0.16c0.03-0.07,0.08-0.14,0.14-0.16c0.41-0.17,0.82-0.38,1.23-0.63c0.41-0.24,0.82-0.51,1.23-0.79
		c0.07-0.05,0.12-0.12,0.16-0.19c0.03-0.08,0.04-0.16,0.03-0.25c-1.38-7.49-5.68-13.63-12.02-17.77
		c-6.34-4.14-14.72-6.28-24.26-5.78c-0.48,0.03-0.95-0.09-1.35-0.32s-0.73-0.57-0.95-1c-2.18-4.25-6.99-7.88-12.14-9.82
		c-5.15-1.94-10.64-2.2-14.17,0.29c-0.19,0.13-0.4,0.22-0.62,0.26c-0.22,0.04-0.45,0.02-0.66-0.07l-4.12-1.56l-4.12-1.56
		c-0.2-0.08-0.28-0.26-0.25-0.43c0.03-0.17,0.16-0.32,0.38-0.33c1.57-0.08,3.09-0.54,4.54-1.3s2.82-1.83,4.1-3.14
		c0.17-0.17,0.37-0.32,0.58-0.43c0.22-0.11,0.45-0.18,0.69-0.21l16.26-1.99l16.26-1.99c1.37,0,2.56-0.68,3.37-1.7
		c0.81-1.02,1.23-2.38,1.05-3.72c-0.18-1.35-0.94-2.53-2-3.33s-2.42-1.24-3.79-1.08l-16.46,1.87l-16.46,1.87
		c-1.68-1.26-3.48-2.17-5.27-2.69c-1.8-0.52-3.59-0.64-5.25-0.33c-0.16,0.03-0.27-0.06-0.32-0.17c-0.05-0.12-0.02-0.26,0.12-0.35
		l4.17-2.64l4.17-2.64c4.09,2.03,9.94,0.42,14.9-2.97s9.03-8.55,9.53-13.63c9.64-1.3,17.55-4.95,23.05-10.19s8.59-12.09,8.6-19.77
		c0-0.54-0.18-1.05-0.49-1.46c-0.31-0.41-0.75-0.71-1.28-0.85c-0.18-0.05-0.36-0.09-0.53-0.14s-0.36-0.09-0.53-0.14
		c-0.32-0.08-0.54-0.3-0.65-0.58c-0.1-0.27-0.09-0.59,0.08-0.87c1.3-2.13,2.34-4.6,3.25-7.28c0.91-2.68,1.69-5.56,2.48-8.52
		l4.25-2.52l4.25-2.52c0.2-0.12,0.43-0.19,0.66-0.2c0.23-0.01,0.46,0.04,0.67,0.14l4.55,2.19l4.55,2.19
		c0.24,0.11,0.43,0.29,0.57,0.51c0.13,0.21,0.21,0.47,0.21,0.73v4.31v4.31c-4.77,4.75-9.35,9.4-11.73,14.52
		c-2.38,5.12-2.54,10.71,1.52,17.31c1.52,2.56,3.14,4.51,4.84,5.99s3.49,2.5,5.37,3.18c0.49,6.01,1.59,11.16,3.89,15
		c2.29,3.84,5.77,6.38,11,7.17c0.29,0.04,0.5,0.23,0.6,0.46c0.1,0.24,0.09,0.52-0.07,0.75c-0.19,0.27-0.39,0.58-0.58,0.91
		c-0.2,0.33-0.4,0.69-0.6,1.08c-0.71,1.88-0.88,3.47-0.73,5c0.15,1.53,0.61,3.02,1.16,4.69c0.04,0.13-0.06,0.32-0.21,0.48
		C315.28,579.65,315.07,579.77,314.91,579.77z M336.89,633.11l2.04,5.37l2.04,5.37c0.09,0.24,0.04,0.48-0.1,0.65
		c-0.14,0.17-0.36,0.27-0.61,0.24l-5.49-0.84l-5.49-0.84c-0.29-0.04-0.51-0.22-0.62-0.46c-0.11-0.23-0.12-0.52,0.02-0.77
		c1.2-2.23,2.21-3.63,3.34-4.88c1.13-1.25,2.38-2.37,4.05-4.03c0.09-0.09,0.29-0.03,0.48,0.04
		C336.72,633.02,336.89,633.11,336.89,633.11z M257.15,607.64c2.72-1.19,8.15-0.18,13.08,1.86c4.93,2.03,9.34,5.08,10.03,7.95
		c-2.89,1.52-7.99,0.68-12.7-1.34S258.52,610.86,257.15,607.64L257.15,607.64L257.15,607.64z M245.62,602.56
		c-2.38,2.36-6.55,2.53-10.03,1.17s-6.28-4.24-5.92-7.97c1.86-2.36,5.93-2.45,9.5-1.05C242.74,596.11,245.8,598.99,245.62,602.56
		L245.62,602.56L245.62,602.56z M345.72,214.32l-0.47,10.26l-0.47,10.26c-0.01,0.15-0.04,0.29-0.1,0.43
		c-0.06,0.13-0.14,0.26-0.24,0.37l-11.22,12.02l-11.22,12.02c-7.88,0-14.95,1.4-21.12,4.47c-6.16,3.07-11.42,7.81-15.68,14.49
		c-0.07,0.11-0.17,0.21-0.28,0.27c-0.11,0.07-0.24,0.1-0.38,0.11l-5.13,0.16l-5.13,0.16c-0.2,0.01-0.36-0.09-0.46-0.24
		c-0.1-0.14-0.13-0.34-0.05-0.52l2.65-6.05l2.65-6.05c0.13-0.29,0.13-0.61,0.04-0.89c-0.09-0.28-0.29-0.53-0.57-0.69l-6.12-3.45
		l-6.12-3.45l-0.47-6.73l-0.47-6.73c-0.02-0.32-0.16-0.6-0.38-0.8s-0.5-0.33-0.82-0.34l-7.26-0.16l-7.26-0.16l0.86-1.52l0.86-1.52
		l9.79-2.31l9.79-2.31c0.14-0.03,0.27-0.1,0.39-0.18c0.12-0.08,0.21-0.19,0.29-0.32l2.6-4.37l2.6-4.37l6.28-3.73l6.28-3.73
		l-3.82,11.93l-3.82,11.93c-0.12,0.39-0.05,0.78,0.16,1.08s0.55,0.51,0.95,0.54l4.9,0.28l4.9,0.28c0.25,0.01,0.48-0.06,0.67-0.19
		c0.19-0.13,0.34-0.33,0.41-0.56l5.13-16.22l5.13-16.22l9.26-5.83l9.26-5.83c0.15-0.09,0.32-0.07,0.44,0.02
		c0.12,0.09,0.19,0.24,0.15,0.41l-5.42,20.36l-5.42,20.36c-0.25,0.94,0.2,1.75,0.89,2.14c0.69,0.4,1.61,0.39,2.3-0.29l14.66-14.49
		l14.66-14.49c0.18-0.18,0.42-0.2,0.61-0.11C345.59,213.88,345.74,214.07,345.72,214.32z M415.27,219.54l6,3.47l6,3.47l2.42,4.07
		l2.42,4.07c0.19,0.32,0.44,0.59,0.73,0.81c0.29,0.22,0.63,0.37,0.98,0.46l11.83,2.91l11.83,2.91c1.19,1.54,2.38,2.99,3.62,4.39
		s2.5,2.76,3.85,4.13c3.25,3.5,5.23,5.52,6.6,6.85c1.37,1.34,2.12,1.99,2.9,2.75c-0.27-0.2-1.22-0.94-2.94-2.21
		c-1.72-1.27-4.21-3.08-7.58-5.4c-11.89-8.3-18.93-10.33-22.67-7.06c-3.73,3.27-4.15,11.83-2.79,24.72c0.43,4.86,0.79,8.05,0.97,9.7
		c0.18,1.65,0.17,1.77-0.15,0.5c-0.18-0.76-0.46-2.01-0.87-3.72c-0.42-1.71-0.96-3.88-1.67-6.47c-1.68-5.76-3.8-12.2-6.39-16.91
		c-2.59-4.71-5.65-7.67-9.21-6.48c-1.35,0.33-2.29,1.18-2.97,2.37c-0.68,1.19-1.11,2.72-1.45,4.42c-0.12,0.74-0.2,1.33-0.25,1.76
		s-0.1,0.72-0.14,0.85c-0.06,0.23-0.12,0.05-0.29-0.52c-0.18-0.57-0.47-1.51-1-2.8c-1.02-2.19-2.38-4.64-4.12-6.33
		c-1.74-1.69-3.88-2.63-6.44-1.79c-2.03,0.51-3.39,1.95-4.24,3.65s-1.19,3.65-1.19,5.17c0,0.49,0.04,0.87,0.07,1.14
		s0.06,0.42,0.04,0.46c0,0.08-0.07-0.03-0.28-0.3c-0.22-0.27-0.58-0.71-1.16-1.3c-2.38-2.54-6.04-4.4-9.74-5s-7.43,0.08-9.97,2.62
		c-0.29,0.29-0.53,0.55-0.72,0.79c-0.2,0.24-0.35,0.46-0.49,0.68c-0.13,0.21-0.35,0.34-0.57,0.37c-0.22,0.03-0.46-0.05-0.63-0.23
		l-7.93-8.37l-7.93-8.37c-0.14-0.14-0.25-0.31-0.32-0.49c-0.08-0.18-0.12-0.37-0.13-0.57l-0.46-10.03l-0.46-10.03
		c-0.01-0.3,0.16-0.53,0.39-0.63c0.23-0.1,0.52-0.07,0.73,0.14l16.19,16.3l16.19,16.3c0.24,0.24,0.57,0.25,0.81,0.11
		c0.24-0.14,0.4-0.42,0.31-0.75l-5.91-22.36l-5.91-22.36c-0.08-0.29,0.05-0.56,0.25-0.71c0.21-0.15,0.49-0.19,0.75-0.02l8.59,5.51
		l8.59,5.51c0.13,0.08,0.24,0.18,0.32,0.3c0.09,0.12,0.16,0.25,0.2,0.39l4.87,15.36l4.87,15.36c0.19,0.6,0.57,1.1,1.06,1.44
		s1.09,0.52,1.72,0.49l3.79-0.2l3.79-0.2c0.71-0.04,1.31-0.41,1.67-0.94s0.49-1.22,0.26-1.9l-3.63-10.87l-3.63-10.87
		c-0.06-0.17,0.01-0.34,0.13-0.43S415.12,219.45,415.27,219.54z M501.63,226.47c-2.03,0.68-2.8,1.1-2.71,0.89
		c0.09-0.21,1.03-1.06,2.39-2.92c0.51-0.84,1.09-1.69,1.64-2.58s1.06-1.83,1.41-2.85c1.35,1.87,2.79,3.74,4.31,5.52
		s3.14,3.47,4.84,4.99c3.27,3.44,7.02,6.55,11.08,9.27c4.06,2.72,8.44,5.05,12.99,6.93c0.23,0.09,0.36,0.29,0.4,0.49
		c0.03,0.21-0.04,0.43-0.22,0.59c-1.99,1.65-3.77,4.6-5.36,8.11s-3,7.6-4.26,11.55c-2.38,8.12-3.32,12.78-3.45,13.08
		s0.56-3.76,1.42-13.08c1.35-14.24-0.35-21.26-5.06-22.87s-12.43,2.21-23.13,9.67c-2.29,1.64-4.1,2.98-5.47,4.01
		c-1.37,1.03-2.31,1.75-2.86,2.16c-0.96,0.7-0.67,0.44,0.66-0.81c1.33-1.25,3.72-3.49,6.96-6.73c2.74-2.85,5.67-6.03,8.15-9.2
		s4.5-6.32,5.42-9.11c1.19-3.51,0.49-5.93-1.3-7.14C507.68,225.22,504.8,225.2,501.63,226.47L501.63,226.47L501.63,226.47z
		 M550.54,249.52c-0.84,1.52-1.44,2.65-1.86,3.44c-0.42,0.79-0.66,1.25-0.8,1.45c-0.26,0.41-0.08-0.2-0.01-1.21s0.04-2.45-0.64-3.68
		c-0.1-0.18-0.08-0.38,0.02-0.51s0.27-0.22,0.47-0.17c0.47,0.12,0.94,0.23,1.41,0.35S550.07,249.39,550.54,249.52L550.54,249.52
		L550.54,249.52z M567.51,264.79c1.19,1.86,0.68,4.39-1.1,7.02c-1.78,2.63-4.84,5.34-8.75,7.55c-3.89,2.19-7.79,3.46-11.02,3.71
		c-3.23,0.25-5.78-0.51-6.97-2.38c-1.02-1.86-0.43-4.5,1.39-7.23c1.82-2.72,4.87-5.53,8.78-7.69c1.25-0.68,4.69-2.72,8.31-3.7
		C561.76,261.1,565.56,261.19,567.51,264.79L567.51,264.79L567.51,264.79z M550.53,504.85c2.52-1.4,3.63-3.87,3.52-6.35
		s-1.46-4.97-3.85-6.42l21.39-18.28l21.39-18.28l2.05,1.17l2.05,1.17c-1.37,0.86-2.65,1.8-3.88,2.81s-2.41,2.11-3.59,3.28
		c-4.77,4.75-8.59,10.43-11.22,16.7c-2.63,6.27-4.07,13.14-4.07,20.24c0,1.52,0.08,2.96,0.2,4.35c0.12,1.4,0.29,2.75,0.46,4.12
		l-12.17-1.94l-12.17-1.94c-0.16-0.03-0.26-0.15-0.29-0.28C550.33,505.08,550.38,504.93,550.53,504.85z M496.95,634.06
		c-1.77-2.35-3.68-4.34-5.72-5.98c-2.05-1.64-4.23-2.92-6.56-3.85c-0.73-0.25-1.46-0.46-2.2-0.63s-1.46-0.31-2.2-0.44
		c-0.4-0.07-0.68-0.34-0.81-0.67s-0.09-0.72,0.16-1.04c1.74-2.26,3.8-4.56,6.02-6.68c2.22-2.11,4.59-4.04,6.97-5.57
		c0.24-0.16,0.53-0.19,0.79-0.12s0.5,0.23,0.64,0.48l0.42,0.71l0.42,0.71l8.66,14.33l8.66,14.33c0.14,0.23,0.07,0.46-0.09,0.6
		c-0.16,0.14-0.41,0.18-0.62,0.02c-2.06-1.6-3.62-2.78-5.45-3.58s-3.94-1.22-7.08-1.29c-0.17,0-0.58-0.23-1-0.52
		C497.53,634.62,497.11,634.28,496.95,634.06z M496.63,584.73l-2.93-20.24l-2.93-20.24l3.07-5.08l3.07-5.08l3.56,5.08l3.56,5.08
		l-3.4,20.24l-3.4,20.24c-0.03,0.17-0.16,0.25-0.3,0.25S496.65,584.9,496.63,584.73z M319.98,550.39c-1.94,0-2.81-3.57-3.22-9
		s-0.37-12.71-0.5-20.13c-0.01-0.35-0.23-0.6-0.5-0.69c-0.27-0.1-0.6-0.04-0.83,0.23c-1.93,2.29-4.03,4.52-5.89,5.79
		s-3.45,1.59-4.36,0.06c-1.19-1.86,0.33-4.48,2.92-7.49c2.59-3.01,6.25-6.4,9.32-9.77l-0.17-9.06l-0.17-9.06
		c-0.01-0.11,1.17-0.21,2.35-0.27c1.18-0.06,2.37-0.06,2.38,0.04c0.33,3.93,0.75,8.49,1.08,12.08s0.59,6.19,0.59,6.19
		c3.23,3.2,6.97,6.61,9.61,9.68s4.17,5.8,2.98,7.66c-1.09,1.59-2.79,1.25-4.74-0.08c-1.95-1.33-4.15-3.64-6.25-6.01
		c-0.15-0.17-0.38-0.21-0.56-0.14c-0.18,0.07-0.32,0.24-0.32,0.47c0.06,3.39,0.29,10.77-0.07,17.29
		C323.27,544.71,322.31,550.39,319.98,550.39L319.98,550.39L319.98,550.39z M296.56,393.86c0.15,1.48,0.23,3.2,0.27,5
		c0.04,1.8,0.04,3.68,0.04,5.49c0,0.1-0.03,0.2-0.07,0.29c-0.05,0.09-0.11,0.17-0.2,0.22l-4.6,3.19l-4.6,3.19
		c-0.1,0.07-0.22,0.11-0.34,0.11c-0.12,0-0.24-0.03-0.34-0.09l-3.91-2.43l-3.91-2.43c-1.7-6.44-3.4-12.71-6.67-17.33
		c-3.27-4.61-8.11-7.57-16.08-7.4c-2.87,0.16-5.34,0.58-7.46,1.25s-3.91,1.6-5.44,2.77c-6.57-2.97-13.06-4.34-18.57-3.02
		c-5.51,1.33-10.03,5.36-12.67,13.21l-9.68-2.21l-9.68-2.21l5.94-3.22l5.94-3.22h4.25h4.25c0.43,0,0.86-0.09,1.25-0.25
		c0.39-0.16,0.75-0.4,1.06-0.71l11.4-11.37l11.4-11.37c0.64-0.63,0.66-1.49,0.3-2.13c-0.36-0.64-1.09-1.07-1.97-0.87l-15.8,3.7
		l-15.8,3.7c-0.43,0.1-0.83,0.29-1.17,0.55s-0.63,0.6-0.84,0.99l-2.04,3.8l-2.04,3.8l-5.94,3.4l-5.94,3.4l3.54-11.26l3.54-11.26
		c0.09-0.3,0.03-0.61-0.14-0.83s-0.44-0.38-0.75-0.38h-1.57h-1.57l3.56-6.78l3.56-6.78l4.24,5.62l4.24,5.62
		c0.2,0.27,0.49,0.45,0.81,0.51c0.31,0.06,0.65,0.02,0.94-0.15l5.94-3.43l5.94-3.43l5.44,2.6l5.44,2.6c0.76,0.36,1.6,0.41,2.36,0.19
		c0.76-0.22,1.44-0.72,1.88-1.44l3.29-5.35l3.29-5.35l4.33,6.85l4.33,6.85c0.33,0.52,0.83,0.85,1.38,0.97
		c0.55,0.12,1.15,0.03,1.67-0.29l4.91-3.14l4.91-3.14c0.44-0.28,0.72-0.71,0.82-1.18c0.1-0.47,0.03-0.98-0.25-1.41l-4.43-7l-4.43-7
		l6.69-0.74l6.69-0.74c0.54-0.06,1.02-0.32,1.36-0.7c0.34-0.38,0.55-0.88,0.55-1.43v-6.5v-6.5l5.43-3.89l5.43-3.89
		c1.02,3.71,2.45,7.18,4.28,10.35c1.82,3.17,4.03,6.05,6.59,8.59c1.52,1.54,3.22,2.99,4.99,4.3c1.78,1.31,3.65,2.49,5.52,3.51
		c-1.52,1.86-2.63,4.23-3.44,6.98s-1.31,5.89-1.65,9.27c-11.1,4.02-14.12,11.35-12.86,19.19S290.52,387.85,296.56,393.86
		L296.56,393.86L296.56,393.86z M269.04,519.22c0,3.2-3.3,7.18-7.46,10.22s-9.16,5.16-12.56,4.66c0.18-2.87,3.74-7.02,7.99-10.24
		C261.25,520.65,266.17,518.36,269.04,519.22L269.04,519.22L269.04,519.22z M267.36,483.65c-1.37,4.22-2.47,9.04-3.74,12.81
		s-2.71,6.48-4.74,6.48c-2.05-0.16-2.64-1.85-2.47-4.23s1.08-5.44,2.04-8.36c0.08-0.24-0.01-0.46-0.17-0.59
		c-0.16-0.13-0.4-0.18-0.61-0.06c-6.57,3.64-12.91,7.43-17.85,9.85c-4.94,2.42-8.48,3.48-9.47,1.66c-0.98-1.78,1.73-4.35,6.27-7.4
		c4.54-3.05,10.93-6.59,17.31-10.31c0.27-0.16,0.37-0.44,0.33-0.7c-0.04-0.26-0.23-0.5-0.54-0.56c-3.13-0.64-6.21-1.4-8.28-2.41
		c-2.07-1.02-3.12-2.3-2.19-3.99c1.02-1.86,4.08-1.77,7.99-0.96s8.67,2.33,13.09,3.34l7.78-4.36l7.78-4.36
		c0.21-0.12,0.45-0.14,0.67-0.08c0.22,0.06,0.41,0.2,0.54,0.4c0.35,0.55,0.7,1.08,1.05,1.6c0.35,0.52,0.7,1.05,1.05,1.6
		c0.14,0.21,0.17,0.46,0.12,0.69c-0.05,0.23-0.2,0.43-0.42,0.56c-3.22,1.87-7.09,4.21-10.17,6.09
		C269.63,482.23,267.36,483.65,267.36,483.65L267.36,483.65L267.36,483.65z M209.99,435.5l-14.95,3.57l-14.95,3.57l-9.34-4.75
		l-9.34-4.75l20.9-5.89l20.9-5.89c0.37-0.1,0.55-0.42,0.55-0.73c0-0.31-0.19-0.63-0.57-0.72l-20.89-5.41l-20.89-5.41l9.34-4.75
		l9.34-4.75l15.77,3.95l15.77,3.95l0.19-0.9l0.19-0.9c0.86,2.38,2.39,4.68,4.43,6.88s4.58,4.33,7.45,6.36
		c-0.33,1.86-0.33,3.89,0.09,6.09c0.43,2.2,1.28,4.57,2.64,7.11c3.89,6.95,8.89,9.67,14.58,10.17c5.69,0.51,12.06-1.19,18.69-3.07
		l4.49,2.57l4.49,2.57c0.16,0.09,0.3,0.22,0.4,0.38c0.1,0.15,0.16,0.33,0.18,0.52l0.45,5.2l0.45,5.2c0.02,0.26-0.03,0.51-0.15,0.73
		c-0.12,0.22-0.3,0.4-0.52,0.53l-3.69,2l-3.69,2c-6.63-1.68-13-3.29-18.69-2.74s-10.71,3.25-14.62,10.2
		c-0.07,0.16-0.14,0.33-0.22,0.52s-0.15,0.39-0.23,0.59c-0.14,0.37-0.44,0.61-0.78,0.68c-0.34,0.07-0.72-0.01-0.99-0.3l-5.98-6.13
		l-5.98-6.13c-0.13-0.13-0.28-0.23-0.44-0.29s-0.34-0.1-0.52-0.09l-4.64,0.17l-4.64,0.17l-6.12-3.4l-6.12-3.4l11.14-2.47l11.14-2.47
		c0.55-0.12,0.97-0.49,1.18-0.95c0.21-0.46,0.22-1.02-0.05-1.51l-1.86-3.48l-1.86-3.48c-0.19-0.36-0.49-0.63-0.84-0.78
		C210.79,435.45,210.39,435.4,209.99,435.5z M155.66,442.99l8.82,5.58l8.82,5.58c0,0,0.94,3.39,1.83,6.78s1.74,6.78,1.57,6.78
		c-2.68,2.19-4.85,4.52-6.51,6.97c-1.66,2.45-2.8,5.02-3.4,7.67c-0.04,0.16-0.16,0.24-0.29,0.25c-0.13,0-0.26-0.07-0.3-0.23
		l-5.26-19.69L155.66,442.99z M153.27,413.5l13.33,3.49l13.33,3.49c0.26,0.07,0.39,0.28,0.39,0.5c0,0.22-0.12,0.43-0.38,0.51
		l-13.33,3.8l-13.33,3.8l-6.39-3.73l-6.39-3.73c-0.25-0.14-0.37-0.4-0.36-0.65c0-0.25,0.13-0.5,0.39-0.63l6.38-3.42L153.27,413.5z
		 M133.97,410.82l0.3-7.13l0.3-7.13l9.55-9.68l9.55-9.68c0.22-0.22,0.52-0.23,0.74-0.1c0.22,0.13,0.37,0.39,0.29,0.69l-3.44,13.12
		l-3.44,13.12l-6.39,3.73l-6.39,3.73c-0.25,0.14-0.52,0.12-0.74-0.01C134.11,411.34,133.96,411.1,133.97,410.82z M180.76,504.62
		c-2.37-1.7-4.14-6.86-4.78-12.11c-0.64-5.25-0.13-10.58,2.08-12.61c2.93,2.95,4.56,6.69,4.98,10.91
		C183.46,495.03,182.67,499.74,180.76,504.62L180.76,504.62L180.76,504.62z M182.13,517.19c3.23,0.84,5.35,4.48,5.85,8.25
		c0.51,3.77-0.6,7.66-3.82,9.01c-2.89-0.33-5.01-3.81-5.61-7.62C177.96,523.02,178.9,518.87,182.13,517.19L182.13,517.19
		L182.13,517.19z M256.84,397.92c2.03-0.18,3.47,2.45,4.74,6.18c1.27,3.73,2.38,8.56,3.74,12.8l7.59,4.66l7.59,4.66
		c0.21,0.13,0.35,0.33,0.39,0.55c0.05,0.22,0.01,0.46-0.13,0.68c-0.32,0.51-0.61,1.06-0.88,1.63c-0.27,0.57-0.51,1.16-0.75,1.75
		c-0.07,0.17-0.2,0.29-0.35,0.34c-0.15,0.06-0.33,0.05-0.48-0.04c-3.39-1.86-7.49-4.07-10.74-5.81s-5.65-3.01-5.65-3.01
		c-4.42,1.02-9.17,2.45-13.07,3.21c-3.9,0.76-6.96,0.83-8-0.86c-0.95-1.73,0.25-3.1,2.45-4.17c2.2-1.07,5.41-1.85,8.49-2.4
		c0.22-0.04,0.36-0.21,0.4-0.4c0.03-0.19-0.04-0.4-0.23-0.51c-6.45-3.91-12.94-7.48-17.53-10.53c-4.59-3.05-7.28-5.58-6.12-7.4
		c0.99-1.81,4.58-0.72,9.58,1.75c5,2.47,11.41,6.3,18.04,9.97c0.16,0.09,0.34,0.06,0.46-0.04c0.12-0.1,0.19-0.27,0.13-0.44
		c-0.98-2.94-1.95-6.08-2.14-8.48C254.17,399.59,254.75,397.92,256.84,397.92L256.84,397.92L256.84,397.92z M188.58,262.4l3.23,4.9
		l3.23,4.9c-1.13,1.68-2.23,3.4-3.22,5.24c-0.99,1.84-1.87,3.8-2.57,5.97l-5.94,0.33l-5.94,0.33l-5.94-9.74l-5.94-9.74
		c-0.07-0.12-0.07-0.25-0.01-0.36c0.06-0.11,0.16-0.19,0.3-0.2l11.41-0.82L188.58,262.4z M178.06,300.01l5.94-0.35l5.94-0.35
		c0.63,1.91,1.69,3.92,2.96,5.79c1.27,1.88,2.73,3.64,4.16,5.06l-2.72,5.08l-2.72,5.08l-10.79-0.46l-10.79-0.46
		c-0.15-0.01-0.27-0.09-0.34-0.2c-0.07-0.11-0.09-0.26-0.03-0.4l4.19-9.4L178.06,300.01z M254.46,280.33l-5.94,0.35l-5.94,0.35
		c-0.72-2.19-1.62-4.09-2.74-5.85c-1.12-1.76-2.46-3.38-4.06-5l2.54-5.08l2.54-5.08l10.75-0.04l10.75-0.04
		c0.35,0,0.64,0.18,0.8,0.44c0.17,0.26,0.21,0.59,0.06,0.91l-4.38,9.52L254.46,280.33z M264.24,315.47l-10.15,1.23l-10.15,1.23
		l-3.23-4.9l-3.23-4.9c1.6-1.6,2.78-3.44,3.72-5.39c0.95-1.96,1.67-4.04,2.38-6.13l5.77-0.18l5.77-0.18l4.81,9.14l4.81,9.14
		c0.1,0.2,0.09,0.42,0,0.6C264.64,315.31,264.47,315.45,264.24,315.47z M230.33,326.41l-5.42,9.12l-5.42,9.12
		c-0.12,0.2-0.32,0.31-0.53,0.32c-0.21,0.01-0.42-0.08-0.56-0.26l-6.43-8.64l-6.43-8.64l2.72-5.08l2.72-5.08
		c2.38,0.68,4.53,0.77,6.66,0.6c2.13-0.17,4.25-0.6,6.6-0.95l3.05,4.75L230.33,326.41z M221.5,262.76c-1.9-0.33-4.19-0.47-6.48-0.37
		s-4.56,0.43-6.42,1.03l-3.23-4.92l-3.23-4.92l5.51-9.16l5.51-9.16c0.17-0.28,0.45-0.42,0.74-0.43c0.29-0.01,0.58,0.11,0.77,0.38
		l6.13,8.68l6.13,8.68l-2.72,5.1L221.5,262.76z M275.12,295.19l1.76-0.1l1.76-0.1c0.23-0.01,0.44,0.08,0.58,0.23
		c0.14,0.15,0.22,0.37,0.19,0.6c-0.14,1.02-0.21,2.27-0.23,3.56s0.02,2.61,0.12,3.77c0.02,0.2-0.11,0.34-0.26,0.38
		s-0.34,0-0.43-0.18l-1.99-3.63l-1.99-3.63c-0.11-0.2-0.09-0.42,0-0.59C274.72,295.33,274.9,295.21,275.12,295.19z M376.91,270.34
		l1.03-1.59l1.03-1.59c0.12-0.18,0.3-0.29,0.49-0.31c0.19-0.02,0.4,0.04,0.56,0.18c1.3,1.18,2.73,2.14,4.18,2.84
		c1.46,0.7,2.95,1.15,4.36,1.31c0.18,0.04,0.44,0.09,0.53,0.19c0.09,0.1,0,0.26-0.53,0.51c-1.35,0.66-2.96,1.85-4.11,3.46
		c-1.15,1.61-1.83,3.65-1.32,6.03c0.16,0.62,0.39,1.17,0.7,1.65c0.3,0.48,0.68,0.9,1.12,1.24c0.06,0.05,0.1,0.11,0.12,0.18
		s0.01,0.14-0.03,0.21l-4.99,9.16l-4.99,9.16c-0.12,0.21-0.3,0.36-0.52,0.44c-0.21,0.07-0.46,0.07-0.68-0.02l-6.74-2.88l-6.74-2.88
		c0-1.19-0.08-2.29-0.24-3.39c-0.17-1.1-0.42-2.19-0.77-3.36l2.07-7.33l2.07-7.33c0.09-0.31,0.11-0.63,0.07-0.94
		s-0.15-0.62-0.31-0.89l-2.41-4.05l-2.41-4.05c-0.03-0.06-0.06-0.11-0.08-0.18c-0.02-0.06-0.03-0.13-0.03-0.19v-6.38v-6.38
		c0-0.28,0.17-0.5,0.4-0.58c0.22-0.09,0.49-0.05,0.69,0.16l8.13,8.86l8.13,8.86c0.17,0.19,0.41,0.27,0.64,0.25
		C376.55,270.68,376.77,270.56,376.91,270.34z M393.33,294.58c0.68,3.38,4.33,4.65,9.21,4.73c4.88,0.08,10.99-1.02,16.6-2.39
		c3.6-0.86,6.48-1.64,8.62-2.25c2.14-0.61,3.54-1.05,4.16-1.23c0.8-0.23,0.26-0.04-1.68,0.77c-1.94,0.81-5.28,2.22-10.09,4.43
		c-2.68,1.33-5.03,2.58-7.04,3.8c-2.02,1.21-3.71,2.39-5.08,3.56c-0.04,0.03-0.08,0.06-0.13,0.08c-0.05,0.02-0.09,0.03-0.15,0.03
		l-8.05,0.15l-8.05,0.15c-0.2,0-0.39-0.07-0.54-0.19c-0.14-0.12-0.24-0.3-0.27-0.5l-1.28-9.63l-1.28-9.63
		c-0.01-0.08,0.02-0.15,0.07-0.2c0.05-0.05,0.13-0.07,0.21-0.05c0.64,0.14,1.35,0.21,2.1,0.24c0.75,0.03,1.53,0.03,2.31,0.03
		c2.5-0.12,4.14-0.38,5.08-0.56c0.93-0.18,1.16-0.26,0.83-0.03c-0.65,0.47-1.24,0.93-1.82,1.41c-0.58,0.48-1.13,0.99-1.7,1.56
		c0,0-0.74,0.74-1.37,1.83C393.37,291.76,392.86,293.2,393.33,294.58L393.33,294.58L393.33,294.58z M404,262.95
		c1.74-0.04,3.77,0.27,5.95,0.92c2.17,0.65,4.49,1.64,6.8,2.94c3.73,2.36,6.71,5.23,8.45,7.98c1.74,2.75,2.25,5.37,1.06,7.25
		c-1.19,1.86-3.73,2.53-6.91,2.19s-6.99-1.7-10.72-3.91c-2.46-1.48-4.55-3.17-6.2-4.91c-1.65-1.73-2.85-3.51-3.53-5.17
		c-0.94-2.3-0.88-4.1,0.02-5.34C399.81,263.68,401.56,263.01,404,262.95L404,262.95L404,262.95z M496.2,298.65
		c-1.17-0.86-2.53-1.62-3.98-2.25c-1.45-0.63-2.98-1.13-4.51-1.46l6.63-11.52l6.63-11.52c0.68-1.02,1.7-1.78,2.84-2.12
		c1.14-0.34,2.41-0.26,3.61,0.4c1.19,0.68,1.95,1.7,2.25,2.84s0.12,2.41-0.57,3.6l-6.45,11.01L496.2,298.65z M497.56,329.81l5.77,10
		l5.77,10c0.51,1.02,0.6,2.2,0.3,3.3c-0.29,1.1-0.97,2.11-1.98,2.8c-1.19,0.68-2.46,0.85-3.61,0.55c-1.14-0.3-2.16-1.06-2.84-2.23
		l-5.61-9.84l-5.61-9.84c1.37-0.49,2.73-1.16,4.04-1.97C495.1,331.76,496.37,330.83,497.56,329.81L497.56,329.81L497.56,329.81z
		 M491.19,400.77c-0.45,3.48-1.49,6.49-2.88,8.64s-3.14,3.43-5.02,3.43c-2.03-0.18-3.9-2.04-5.26-4.96
		c-1.36-2.92-2.21-6.91-2.21-11.32c0-4.41,0.94-8.4,2.43-11.28c1.49-2.88,3.53-4.66,5.74-4.66c1.6,0,3.07,0.99,4.27,2.66
		c1.2,1.67,2.14,4.04,2.69,6.79c0.31,1.6,0.48,3.46,0.51,5.32C491.5,397.26,491.41,399.13,491.19,400.77L491.19,400.77
		L491.19,400.77z M455.81,276.62c-0.51-1.19-0.6-2.46-0.26-3.6s1.1-2.16,2.29-2.84c1.02-0.66,2.29-0.74,3.43-0.4
		c1.14,0.34,2.16,1.1,2.67,2.12l6.8,11.68l6.8,11.68c-1.54,0.51-2.99,1.1-4.35,1.83c-1.36,0.72-2.63,1.57-3.82,2.59l-6.78-11.52
		L455.81,276.62z M463.94,354.22c-0.51,1.17-1.52,1.93-2.67,2.23s-2.41,0.13-3.43-0.55c-1.19-0.68-1.95-1.7-2.29-2.8
		s-0.25-2.28,0.26-3.3l6.1-10.68l6.1-10.68c1.19,1.19,2.38,2.29,3.66,3.23c1.28,0.93,2.63,1.69,4.16,2.2l-5.94,10.17L463.94,354.22z
		 M463.94,308.45c-0.55,1.64-0.8,3.1-0.92,4.57c-0.12,1.47-0.1,2.94-0.1,4.6H450.2h-12.73c-1.37,0-2.56-0.51-3.41-1.31
		s-1.36-1.91-1.36-3.1c0-1.35,0.51-2.54,1.36-3.39s2.04-1.37,3.41-1.37h13.23H463.94z M401.15,328.13l-1.89-2.97l-1.89-2.97
		c-0.09-0.15-0.12-0.31-0.1-0.47s0.11-0.31,0.25-0.41l2.68-2.11l2.68-2.11c0.16-0.13,0.36-0.17,0.54-0.14s0.36,0.14,0.48,0.31
		c1.35,1.94,3.68,3.96,6.87,6.01c3.19,2.05,7.25,4.14,12.07,6.23c1.57,0.7,2.92,1.31,4.06,1.83c1.14,0.52,2.07,0.95,2.81,1.31
		c0.71,0.34,0.9,0.55,0.79,0.65c-0.11,0.09-0.54,0.07-1.06-0.08c-3.15-0.88-7.85-2.28-12.95-3.39S405.89,327.86,401.15,328.13
		L401.15,328.13L401.15,328.13z M392.31,420.96c-0.85,1.84-3.86,1.77-7.7,0.99c-3.85-0.78-8.53-2.28-12.75-3.3
		c-0.09-0.02-0.18-0.03-0.26-0.01c-0.09,0.01-0.17,0.04-0.25,0.08l-7.9,4.33l-7.9,4.33c-0.16,0.09-0.35,0.1-0.51,0.04
		c-0.16-0.06-0.3-0.18-0.38-0.35c-0.29-0.61-0.62-1.19-0.97-1.77c-0.35-0.58-0.73-1.16-1.12-1.78c-0.09-0.15-0.12-0.32-0.08-0.47
		c0.03-0.16,0.13-0.3,0.27-0.39c2.88-1.8,6.33-3.89,9.27-5.65s5.37-3.19,6.2-3.68c0.1-0.06,0.19-0.13,0.25-0.22s0.12-0.19,0.15-0.3
		c1.17-4.21,2.27-8.95,3.57-12.63c1.3-3.68,2.81-6.32,4.82-6.32c1.98,0.15,2.51,1.91,2.27,4.42c-0.25,2.51-1.28,5.77-2.42,8.92
		c-0.03,0.09,0,0.18,0.06,0.23c0.06,0.05,0.15,0.07,0.24,0.02c6.71-3.68,13.22-7.58,18.3-10.1c5.08-2.52,8.74-3.66,9.74-1.81
		c1.17,1.82-1.6,4.39-6.29,7.5c-4.69,3.11-11.31,6.75-17.84,10.72c-0.11,0.07-0.15,0.19-0.13,0.3c0.02,0.11,0.1,0.21,0.23,0.23
		c3.13,0.53,6.4,1.29,8.64,2.38S393.29,419.16,392.31,420.96L392.31,420.96L392.31,420.96z M407.6,497.51
		c-1.17,1.82-4.86,0.64-9.91-1.87c-5.06-2.51-11.48-6.35-18.13-9.86c-0.15-0.08-0.3-0.04-0.41,0.05c-0.1,0.09-0.16,0.24-0.1,0.4
		c1.11,2.95,2.08,6.12,2.29,8.54c0.21,2.43-0.35,4.12-2.28,4.12c-1.94,0.15-3.35-2.24-4.59-5.75c-1.23-3.5-2.3-8.12-3.55-12.41
		c-0.11-0.38-0.29-0.73-0.53-1.03c-0.24-0.31-0.54-0.57-0.87-0.77l-7.16-4.26l-7.16-4.26c-0.17-0.1-0.28-0.25-0.34-0.43
		c-0.06-0.17-0.05-0.37,0.03-0.54c0.26-0.57,0.56-1.1,0.86-1.63s0.6-1.07,0.88-1.64c0.11-0.22,0.3-0.38,0.52-0.44
		c0.22-0.07,0.47-0.05,0.68,0.07c2.73,1.51,5.85,3.24,8.6,4.75c2.74,1.51,5.11,2.82,6.32,3.49c0.28,0.15,0.58,0.25,0.89,0.3
		c0.31,0.04,0.63,0.03,0.94-0.05c4.3-1.06,8.83-2.5,12.53-3.23c3.7-0.72,6.58-0.73,7.58,1.08c0.96,1.75-0.2,3.06-2.38,4.08
		c-2.18,1.03-5.36,1.78-8.45,2.45c-0.19,0.04-0.3,0.19-0.33,0.35c-0.03,0.16,0.03,0.34,0.2,0.44c6.32,3.8,12.78,7.41,17.41,10.52
		S408.59,495.7,407.6,497.51L407.6,497.51L407.6,497.51z M444.11,493.09c-2.15,1.51-3.26,3.93-3.22,6.31s1.22,4.72,3.65,6.08
		c0.15,0.09,0.21,0.24,0.18,0.38c-0.02,0.14-0.13,0.27-0.3,0.29l-12.85,1.9l-12.85,1.9c-0.1,0.01-0.18-0.04-0.22-0.11
		c-0.04-0.07-0.04-0.17,0.03-0.24c0.71-0.8,1.5-1.87,2.21-2.96c0.72-1.09,1.36-2.19,1.79-3.04c2.51-5.34,2.46-9.95,0.53-14.1
		s-5.71-7.85-10.67-11.37c-0.12-0.08-0.21-0.2-0.26-0.32c-0.05-0.13-0.07-0.27-0.05-0.41c0.22-1.58,0.14-3.21-0.16-4.83
		c-0.3-1.62-0.83-3.24-1.48-4.8c-0.29-0.69-0.01-1.34,0.49-1.69c0.5-0.36,1.21-0.42,1.78,0.06l15.72,13.14l15.72,13.14
		c0.11,0.09,0.16,0.22,0.15,0.34S444.23,493.01,444.11,493.09z M433.65,473.84l18.38,7.37l18.38,7.37c0.11,0.04,0.21,0.11,0.3,0.18
		c0.09,0.08,0.16,0.17,0.22,0.27l2.56,4.49l2.56,4.49c0.11,0.2,0.11,0.43,0.01,0.61c-0.1,0.18-0.28,0.32-0.51,0.34l-5.24,0.43
		l-5.24,0.43c-0.25,0.02-0.49-0.01-0.72-0.08s-0.45-0.19-0.64-0.34l-15.24-12.41l-15.24-12.41c-0.19-0.16-0.2-0.39-0.1-0.55
		C433.22,473.86,433.42,473.75,433.65,473.84z M390.26,381.66c-0.56-0.5-1.18-0.91-1.86-1.25s-1.42-0.63-2.2-0.9
		c-0.06-0.02-0.08-0.07-0.08-0.12s0.04-0.09,0.11-0.09c2.45,0.02,5.02-0.62,7.3-1.67s4.27-2.51,5.56-4.13c0.53-0.66,0.7-1,0.75-1
		s-0.04,0.33-0.04,1c0,0.64,0.08,1.43,0.23,2.26c0.15,0.83,0.38,1.7,0.67,2.51c0.03,0.08,0.02,0.16-0.03,0.22s-0.11,0.11-0.19,0.12
		c-1.68,0.19-2.9,0.41-4.29,0.87c-1.39,0.46-2.94,1.17-5.28,2.34c-0.05,0.02-0.18,0.01-0.31-0.03S390.31,381.71,390.26,381.66z
		 M407.91,347.78c3.91-2.03,7.9-3.13,11.17-3.27c3.27-0.13,5.82,0.71,6.86,2.56c1.02,1.87,0.33,4.51-1.58,7.19
		c-1.92,2.68-5.06,5.39-8.97,7.42c-9.81,5.1-16.08,3.92-17.69,0.31C396.08,358.39,399.12,352.36,407.91,347.78L407.91,347.78
		L407.91,347.78z M362.92,316.49l-3.78,2.8l-3.78,2.8c-0.28,0.21-0.6,0.15-0.81-0.04c-0.2-0.19-0.29-0.5-0.11-0.8
		c0.91-1.45,1.74-2.98,2.46-4.57s1.32-3.24,1.79-4.94c0.15-0.56,0.59-0.9,1.08-0.99c0.48-0.09,1.01,0.08,1.34,0.56l1.08,1.53
		l1.08,1.53c0.24,0.34,0.32,0.75,0.26,1.13C363.46,315.88,363.25,316.24,362.92,316.49z M345.68,266.32l-0.33,0.67l-0.33,0.67
		c-0.06,0.12-0.17,0.2-0.3,0.23s-0.26-0.01-0.36-0.09c-0.93-0.78-1.9-1.48-2.9-2.11c-1-0.64-2.05-1.21-3.12-1.73
		c-0.67-0.32-1.07-0.92-1.19-1.58c-0.12-0.66,0.05-1.37,0.55-1.92l3.57-3.93l3.57-3.93c0.17-0.18,0.41-0.22,0.6-0.14
		c0.2,0.08,0.35,0.26,0.35,0.51v6.46v6.46c0,0.08-0.01,0.15-0.03,0.23C345.74,266.18,345.72,266.25,345.68,266.32z M346.45,300.01
		c0,7.34-2.92,14.03-7.69,18.88c-4.77,4.85-11.39,7.87-18.78,7.87c-7,0-13.37-2.65-18.15-7.03c-4.77-4.38-7.95-10.51-8.56-17.46
		c-0.68-7.81,2.06-15.07,6.94-20.39c4.88-5.31,11.9-8.67,19.76-8.67c7.31,0,13.93,3.09,18.72,7.98S346.45,292.79,346.45,300.01
		L346.45,300.01L346.45,300.01z M302.19,368.94c1.19,0.04,2.66,0.98,4.22,2.37c1.55,1.39,3.19,3.22,4.69,5.04
		c0.13,0.15,0.32,0.19,0.48,0.13s0.29-0.2,0.29-0.4c0.12-7.58-0.03-15,0.32-20.52c0.35-5.52,1.22-9.15,3.37-9.15
		c2.13,0,3,3.63,3.36,9.11s0.23,12.8,0.36,20.17c0,0.28,0.18,0.48,0.4,0.56s0.48,0.04,0.66-0.17c2.06-2.34,4.23-4.61,6.15-5.9
		c1.92-1.29,3.61-1.61,4.71-0.06c1.17,1.87-0.44,4.5-3.07,7.46c-2.63,2.96-6.28,6.26-9.17,9.49l-0.3,9.13l-0.3,9.13
		c-0.01,0.18-0.08,0.34-0.2,0.46s-0.29,0.19-0.47,0.19c-0.7,0.01-1.4,0.02-2.1,0.04c-0.7,0.01-1.39,0.03-2.08,0.04
		c-0.18,0-0.34-0.07-0.46-0.18c-0.12-0.11-0.19-0.27-0.19-0.45c-0.01-3.73-0.1-8.32-0.18-11.97c-0.09-3.65-0.17-6.38-0.17-6.38
		c-2.44-2.58-5.27-5.25-7.63-7.76c-2.36-2.5-4.26-4.84-4.84-6.73c-0.22-0.74-0.16-1.67,0.2-2.4
		C300.59,369.44,301.24,368.9,302.19,368.94L302.19,368.94L302.19,368.94z M334.57,402.08v-4.11v-4.11
		c6.14-5.9,11.61-14.09,12.86-21.88c1.25-7.79-1.73-15.18-12.51-19.48c-0.33-2.71-0.75-5.25-1.3-7.54c-0.55-2.28-1.24-4.32-2.1-6.01
		c2.54-0.84,5-1.86,7.3-3.08c2.3-1.23,4.43-2.66,6.3-4.34l11.9-0.34l11.9-0.34c0.28-0.01,0.55,0.09,0.75,0.26s0.34,0.41,0.38,0.69
		l1.65,11.56l1.65,11.56c0.04,0.31,0.28,0.51,0.53,0.55c0.26,0.05,0.54-0.06,0.69-0.34l5.46-10.16l5.46-10.16
		c0.19-0.36,0.51-0.62,0.87-0.74c0.36-0.13,0.76-0.13,1.14,0.03l3.35,1.4l3.35,1.4c0.27,0.12,0.54,0.25,0.78,0.42
		c0.25,0.16,0.48,0.35,0.69,0.56c0.31,0.3,0.65,0.63,1,0.98s0.72,0.72,1.09,1.08c1.52,1.37,2.2,1.8,1.98,1.84
		c-0.22,0.04-1.32-0.3-3.35-0.47c-2.38-0.33-5.27-0.5-7.68,0.05s-4.36,1.82-4.87,4.36c-0.51,2.21,0,4.15,0.97,5.76
		c0.97,1.61,2.41,2.88,3.76,3.73c1.19,0.66,1.7,0.75,1.57,0.76c-0.13,0-0.89-0.07-2.24,0.26c-3.23,0.84-6.63,3.12-8.96,6.09
		s-3.61,6.61-2.57,10.16c0.36,1.4,0.94,2.39,1.71,3.21c0.76,0.81,1.69,1.45,2.74,2.15c0.06,0.04,0.08,0.11,0.05,0.17
		c-0.02,0.05-0.08,0.09-0.16,0.08c-8.28-1.89-13.93,0.97-17.94,5.94c-4.01,4.97-6.39,12.05-8.13,18.61l-4.14,2.52l-4.14,2.52
		c-0.38,0.23-0.8,0.36-1.23,0.38c-0.43,0.02-0.86-0.06-1.26-0.26l-4.06-1.95l-4.06-1.95c-0.35-0.17-0.64-0.43-0.84-0.75
		C334.68,402.84,334.57,402.47,334.57,402.08z M349.33,485.62l3.67,2.22l3.67,2.22c1.19,4.57,2.46,9.06,4.24,12.92
		c1.78,3.86,4.07,7.08,7.29,9.11c-3.05,0.68-5.93,1.79-8.65,3.23s-5.27,3.22-7.65,5.25c-0.84-3.22-2.62-6.19-4.91-9.07
		c-2.29-2.88-5.1-5.67-7.99-8.54v-5.13v-5.13c0-0.19,0.05-0.37,0.13-0.53c0.09-0.16,0.21-0.3,0.37-0.41l4.44-3.05l4.44-3.05
		c0.14-0.1,0.31-0.15,0.48-0.15S349.18,485.53,349.33,485.62z M376.01,523.6c3.23,0,6.28,0.6,9.09,1.74
		c2.8,1.15,5.34,2.85,7.53,5.05c2.05,2.03,3.75,4.48,4.94,7.27s1.86,5.93,1.86,9.32c0,3.2-0.67,6.25-1.86,9s-2.89,5.21-4.94,7.24
		c-2.19,2.21-4.73,3.98-7.53,5.21c-2.8,1.23-5.86,1.9-9.09,1.9c-3.23,0-6.28-0.67-9.09-1.9c-2.81-1.23-5.36-3-7.57-5.21
		c-2.03-2.03-3.72-4.48-4.91-7.23c-1.18-2.75-1.86-5.79-1.86-9.02c0-6.62,2.52-12.47,6.71-16.66
		C363.49,526.14,369.34,523.6,376.01,523.6L376.01,523.6L376.01,523.6z M387.9,513.44c0.84-0.33,1.69-0.67,2.5-1.1
		c0.81-0.43,1.57-0.95,2.23-1.63c4.71,2.18,9.17,3.7,13.21,3.99s7.66-0.67,10.7-3.44c0.07-0.06,0.15-0.11,0.23-0.13
		c0.09-0.03,0.18-0.04,0.27-0.02l13.88,2.12l13.88,2.12c0.11,0.02,0.19,0.1,0.2,0.2c0.02,0.1-0.02,0.2-0.12,0.25
		c-2.56,1.29-3.85,3.62-3.93,6.03c-0.08,2.4,1.06,4.88,3.34,6.44c0.16,0.11,0.24,0.27,0.26,0.44c0.01,0.17-0.05,0.34-0.19,0.46
		l-15.75,13.11l-15.75,13.11c-0.45,0.37-1,0.36-1.41,0.11c-0.41-0.25-0.68-0.73-0.56-1.3c0.25-1.17,0.45-2.37,0.58-3.58
		c0.14-1.21,0.21-2.43,0.21-3.64c0-7.34-2.42-14.56-6.61-20.52C400.88,520.5,394.93,515.79,387.9,513.44L387.9,513.44L387.9,513.44z
		 M465.03,521.63l4.89,0.41l4.89,0.41c0.4,0.03,0.71,0.27,0.88,0.58c0.17,0.31,0.18,0.71-0.02,1.05l-2.31,4.06l-2.31,4.06
		c-0.1,0.18-0.23,0.34-0.38,0.47c-0.15,0.13-0.33,0.24-0.52,0.32L452,540.26l-18.16,7.28c-0.25,0.1-0.46-0.01-0.57-0.19
		c-0.11-0.18-0.1-0.43,0.11-0.59l15.17-12.36l15.17-12.36c0.18-0.15,0.39-0.26,0.62-0.33C464.56,521.63,464.8,521.61,465.03,521.63z
		 M456.73,442.49l4.84,12.69l4.84,12.69c0.09,0.24,0.01,0.47-0.15,0.6c-0.16,0.14-0.4,0.19-0.63,0.07
		c-2.48-1.23-5.09-0.96-7.13,0.28s-3.5,3.44-3.69,6.08c-0.01,0.14-0.08,0.26-0.18,0.33s-0.24,0.09-0.37,0.05l-26.91-9.73
		l-26.91-9.73c-3.49-1.49-7.3-1.77-11.37-1.38c-4.07,0.39-8.38,1.44-12.87,2.6c-0.18,0.05-0.36,0.06-0.54,0.03
		c-0.18-0.02-0.35-0.08-0.51-0.17l-4.03-2.24l-4.03-2.24c-0.18-0.1-0.34-0.25-0.45-0.42s-0.18-0.37-0.2-0.58l-0.44-5.18l-0.44-5.18
		c-0.02-0.26,0.03-0.5,0.15-0.72c0.12-0.22,0.29-0.4,0.52-0.52l3.48-1.89l3.48-1.89c0.14-0.07,0.28-0.12,0.43-0.14
		c0.15-0.02,0.3-0.01,0.45,0.03c7.88,1.93,17.8,2.4,25.22-0.45s12.37-9.01,10.32-20.32c6.02-4.35,10.13-8.51,11.73-13.23
		c1.61-4.72,0.72-9.99-3.25-16.57c-0.84-1.16-1.74-2.15-2.65-2.98s-1.81-1.5-2.64-2.01c-0.04-0.03-0.07-0.06-0.08-0.11
		c-0.01-0.04,0-0.09,0.02-0.13c0.32-0.5,0.65-1.07,0.97-1.64s0.65-1.13,0.97-1.62c3.38-6.44,3.1-6.11,3-3.83s-0.01,6.52,4.12,7.89
		c3.4,1.02,6.29-1.52,8.76-5.71c2.46-4.19,4.5-10.03,6.18-15.61c0.72-2.44,1.31-4.58,1.78-6.37s0.83-3.25,1.09-4.34
		c0.19-0.78,0.36-1.04,0.47-0.91c0.1,0.13,0.14,0.67,0.03,1.49c-0.13,1.05-0.34,2.31-0.58,3.94s-0.5,3.64-0.73,6.19
		c-1.19,14.22,0.59,21.32,5.29,22.97c4.71,1.65,12.34-2.16,22.86-9.77c6.29-4.57,9.1-6.78,9.06-6.57c-0.04,0.21-2.94,2.84-8.04,7.93
		c-4.24,4.22-8.83,9.21-11.67,13.78c-2.84,4.57-3.95,8.72-1.23,11.26c1.04,1.02,2.32,1.45,3.72,1.45c1.4,0,2.93-0.41,4.45-1.1
		c2.03-0.66,2.8-1.08,2.75-0.87c-0.04,0.21-0.89,1.05-2.09,2.9c-1.52,1.87-3.05,4.25-3.73,6.62c-0.68,2.37-0.51,4.75,1.34,6.62
		c1.7,1.5,3.66,1.92,5.53,1.8c1.87-0.13,3.66-0.8,5.03-1.48c1.17-0.68,1.59-1.1,1.59-1.02c0,0.09-0.42,0.68-0.93,2.03
		c-0.84,3.4-0.59,7.47,0.77,10.94c1.35,3.48,3.81,6.36,7.37,7.37c2.25,0.45,4.3,0.27,6.08-0.52c1.78-0.8,3.3-2.21,4.47-4.24
		l-1.95,13.01l-1.95,13.01c-0.04,0.25-0.19,0.46-0.39,0.58c-0.2,0.12-0.45,0.15-0.69,0.05c-2.44-1.01-5.05-0.75-7.08,0.46
		s-3.48,3.37-3.61,6.15c-0.01,0.21-0.14,0.35-0.3,0.41c-0.16,0.05-0.35,0.02-0.48-0.14l-8.53-10.74l-8.53-10.74
		c-0.25-0.32-0.63-0.33-0.9-0.17C456.76,441.78,456.59,442.11,456.73,442.49z M505.03,400.3c1.19,0.33,2.38,0.5,3.45,0.37
		c1.06-0.13,1.99-0.56,2.65-1.42c0.35-0.33,0.69-0.66,0.95-1.04c0.25-0.38,0.42-0.8,0.42-1.3l4.24,6.27l4.24,6.27l-9.68,7.11
		l-9.68,7.11l-0.66-3.55l-0.66-3.55c0.84,0,1.6-0.18,2.32-0.47s1.39-0.72,2.06-1.21c0.92-0.82,1.47-1.74,1.73-2.71
		s0.24-2.01,0.03-3.07c-0.94-4.67-3.71-7.37-5.04-8.66C500.07,399.15,500.18,399.29,505.03,400.3L505.03,400.3L505.03,400.3z
		 M497.33,437.5l3.1,19.41l3.1,19.41c0.04,0.28,0.04,0.56-0.02,0.84c-0.06,0.27-0.17,0.53-0.33,0.77l-2.73,4.09l-2.73,4.09
		c-0.19,0.29-0.5,0.42-0.8,0.42c-0.3-0.01-0.61-0.16-0.78-0.45l-2.48-4.1l-2.48-4.1c-0.13-0.22-0.23-0.46-0.28-0.72
		s-0.06-0.51-0.02-0.77l2.82-19.45l2.82-19.45c0.03-0.23,0.22-0.35,0.41-0.35S497.29,437.27,497.33,437.5z M501.98,426.7l12.57-0.51
		l12.57-0.51l1.68,11.52l1.68,11.52l-5.43,7.14l-5.43,7.14c-0.15,0.19-0.36,0.23-0.55,0.17c-0.19-0.06-0.34-0.24-0.35-0.48
		c-0.11-2.68-1.58-4.75-3.59-5.9s-4.56-1.39-6.83-0.41c-0.23,0.1-0.48,0.07-0.68-0.04c-0.2-0.11-0.36-0.32-0.4-0.57l-2.62-14.54
		L501.98,426.7z M524.58,487.8l18.25-7.3l18.25-7.3c0.24-0.1,0.46,0.01,0.57,0.19c0.11,0.18,0.1,0.42-0.1,0.59l-15.21,12.65
		l-15.21,12.65c-0.09,0.08-0.2,0.14-0.32,0.17c-0.11,0.04-0.24,0.05-0.36,0.04l-5.33-0.44l-5.33-0.44c-0.28-0.02-0.5-0.18-0.62-0.4
		c-0.12-0.22-0.14-0.49-0.01-0.74l2.3-4.47l2.3-4.47c0.09-0.17,0.2-0.32,0.34-0.44S524.4,487.87,524.58,487.8z M589.89,452.64
		c-0.17,0.32-0.2,0.68-0.1,1c0.1,0.32,0.33,0.6,0.65,0.76l0.42,0.21l0.42,0.21l-25.18,9.82l-25.18,9.82
		c-0.21,0.08-0.43,0.06-0.61-0.05c-0.18-0.1-0.31-0.28-0.34-0.51c-0.3-2.54-1.86-4.64-3.92-5.78c-2.06-1.14-4.63-1.31-6.95,0.01
		c-0.21,0.12-0.44,0.08-0.6-0.04c-0.16-0.12-0.24-0.33-0.15-0.56l4.3-11.79l4.3-11.79l3.91-7.44l3.91-7.44l13.92,5.58l13.92,5.58
		l-8.13-12.2l-8.13-12.2l8.48-6.09l8.48-6.09l-2.24,4.91l-2.24,4.91c-0.18,0.4-0.2,0.83-0.07,1.22c0.12,0.39,0.38,0.73,0.76,0.95
		l5.97,3.5l5.97,3.5l0.61,6.45l0.61,6.45c0.04,0.48,0.26,0.9,0.59,1.2c0.33,0.31,0.76,0.5,1.24,0.51l6.8,0.16l6.8,0.16l-4.1,7.54
		L589.89,452.64z M573.61,385.03l-8.23,0.45l-8.23,0.45c-0.6,0.03-1.14,0.31-1.51,0.72c-0.38,0.42-0.59,0.98-0.56,1.58l0.28,5.51
		l0.28,5.51l-2.72,0.18l-2.72,0.18l-1.7-11.17l-1.7-11.17c0.35-0.68,0.61-1.37,0.82-2.09s0.38-1.48,0.55-2.32
		c0.33-2.03,0.33-2.88,0.5-2.71c0.17,0.17,0.51,1.35,1.53,3.38c0.86,2.21,2.13,4.67,3.83,6.4c1.7,1.74,3.82,2.75,6.38,2.07
		c3.05-1.02,4.49-3.39,5.16-5.59c0.67-2.2,0.59-4.23,0.59-4.56l3.73,6.6L573.61,385.03z M551.56,360.98c-3.91-2.21-6.97-5-8.8-7.7
		c-1.83-2.7-2.42-5.32-1.41-7.18c1.19-1.87,3.74-2.65,6.97-2.4c3.23,0.25,7.14,1.52,11.05,3.72c9.21,5.19,11.77,11.13,9.77,14.49
		C567.15,365.28,560.59,366.07,551.56,360.98L551.56,360.98L551.56,360.98z M541.35,379.96l-4.4,8.3l-4.4,8.3L521,391.81
		l-11.55-4.75c-1.19-1.86-2.64-3.8-4.21-5.7c-1.57-1.9-3.26-3.77-4.94-5.47c-5.94-6.09-9.51-9.23-9.68-9.52s3.05,2.24,10.7,7.49
		c11.71,8.3,18.67,10.42,22.4,7.2s4.24-11.77,3.05-24.81c-0.84-7.64-1.44-11.11-1.31-10.94c0.12,0.17,0.96,3.99,3,10.94
		c1.37,5.08,3.16,10.66,5.32,15.15S538.48,379.27,541.35,379.96L541.35,379.96L541.35,379.96z M524.62,317.63h-10.48h-10.48
		c0.18-0.35,0.26-0.78,0.31-1.25c0.04-0.47,0.04-0.98,0.04-1.48c0-1.17-0.09-2.27-0.26-3.32c-0.17-1.06-0.43-2.08-0.76-3.12h12.39
		h12.39c1.19,0,2.3,0.52,3.1,1.37s1.31,2.05,1.31,3.39c0,1.19-0.51,2.29-1.31,3.1s-1.91,1.31-3.1,1.31h-1.58H524.62z M477.7,246.86
		c-1.13-1.44-2.11-3.48-2.81-5.87c-0.69-2.4-1.1-5.16-1.1-8.07c0-4.39,0.94-8.38,2.38-11.26c1.45-2.89,3.4-4.67,5.43-4.67
		c2.21,0,4.24,1.79,5.72,4.67c1.48,2.89,2.41,6.87,2.41,11.26c0,3.65-0.64,7.07-1.7,9.82c-1.06,2.75-2.55,4.83-4.25,5.8
		c-1.02,0.61-2.24,0.57-3.36,0.19S478.31,247.62,477.7,246.86L477.7,246.86L477.7,246.86z M171.89,235.89l2.83,4.61l2.83,4.61
		c0.19,0.31,0.19,0.67,0.04,0.96s-0.43,0.51-0.79,0.54l-4.2,0.37l-4.2,0.37c-0.37,0.03-0.7-0.13-0.91-0.38s-0.3-0.61-0.19-0.97
		l1.53-4.96l1.53-4.96c0.11-0.35,0.4-0.55,0.71-0.59C171.37,235.45,171.7,235.58,171.89,235.89z M141.62,301.64l8.7-0.48l8.7-0.48
		l-2.79,6.51l-2.79,6.51c-0.15,0.34-0.15,0.71-0.04,1.03c0.11,0.33,0.34,0.61,0.66,0.79l5.88,3.26l5.88,3.26l0.18,0.16l0.18,0.16
		l0.63,6.71l0.63,6.71c0.03,0.33,0.18,0.61,0.4,0.82c0.22,0.21,0.52,0.34,0.85,0.35l7.05,0.16l7.05,0.16l-3.99,7.64l-3.99,7.64
		c-0.14,0.27-0.16,0.57-0.07,0.84c0.08,0.27,0.27,0.5,0.54,0.64l3.75,1.95l3.75,1.95L178.04,373l-4.75,15.07l-8.82,5.58l-8.82,5.58
		l4.99-18.77l4.99-18.77c0.26-0.98-0.21-1.82-0.93-2.23c-0.72-0.41-1.68-0.4-2.39,0.32l-13.69,13.81l-13.69,13.81l0.51-10.33
		l0.51-10.33l10.75-11.57l10.75-11.57c0.16-0.18,0.26-0.39,0.28-0.62c0.02-0.23-0.03-0.46-0.16-0.66l-2.5-3.87l-2.5-3.87
		c-0.17-0.26-0.44-0.41-0.72-0.43s-0.57,0.07-0.78,0.3l-8.07,8.69l-8.07,8.69v-6.95v-6.95l2.54-4.22l2.54-4.22l-4.57-16.11
		l-4.57-16.11c1.68-0.18,3.29-0.34,4.87-0.59s3.11-0.58,4.63-1.09l0.13,2.58l0.13,2.58c0.01,0.26,0.13,0.49,0.31,0.65
		C141.12,301.56,141.36,301.65,141.62,301.64z M147.84,438.23l3.34,13.52l3.34,13.52c0.06,0.25-0.06,0.45-0.24,0.55
		c-0.18,0.1-0.42,0.09-0.6-0.09l-9.55-9.85l-9.55-9.85l-0.32-7.58l-0.32-7.58c-0.01-0.17,0.08-0.3,0.2-0.38
		c0.12-0.07,0.28-0.09,0.43,0l6.63,3.87L147.84,438.23z M140.02,512.78l-2.54-4.24l-2.54-4.24v-6.78v-6.78l8.31,9.14l8.31,9.14
		l3.07-4.92l3.07-4.92l-10.87-11.68l-10.87-11.68l-0.51-10.33l-0.51-10.33l15.95,16.09l15.95,16.09c-0.18,4.06,0.42,8.21,1.78,12.4
		c1.36,4.19,3.49,8.43,6.39,12.67c-3.4,3.89-4.43,10.32-3.5,16.21c0.93,5.89,3.81,11.23,8.23,12.93l0.82,4.79l0.82,4.79
		c0.03,0.17-0.07,0.3-0.2,0.35c-0.13,0.05-0.29,0.02-0.38-0.13c-0.92-1.47-2.25-2.69-3.84-3.65c-1.58-0.96-3.42-1.66-5.37-2.08
		l-9.85-13.2l-9.85-13.2c-0.84-1.19-2.11-1.96-3.43-2.22s-2.67,0-3.69,0.85c-1.19,0.84-1.96,2.11-2.22,3.42s0,2.67,0.86,3.69
		l10.18,13.73l10.18,13.73c-0.14,1.88-0.06,3.76,0.29,5.5s0.99,3.32,1.97,4.61c0.13,0.17,0.1,0.36,0,0.49s-0.28,0.19-0.47,0.1
		l-4.3-2.15l-4.3-2.15c-0.15-4.57-4.1-8.75-9.21-11.39c-5.11-2.64-11.39-3.76-16.2-2.21c-0.22,0.07-0.44,0-0.58-0.15
		c-0.14-0.15-0.22-0.37-0.15-0.59l4.59-15.85L140.02,512.78z M148.85,560.85c-1.7,2.38-5.69,2.47-9.25,1.07
		c-3.56-1.4-6.7-4.28-6.7-7.83c2.37-2.38,6.61-2.47,10.13-1.07C146.56,554.42,149.36,557.3,148.85,560.85L148.85,560.85
		L148.85,560.85z M190.84,550.32l-0.29-5.06l-0.29-5.06c3.91-2.54,5.44-8.38,4.98-14.35s-2.93-12.07-7.01-15.14
		c1.88-4.75,2.98-9.4,3.32-13.81c0.34-4.4-0.09-8.55-1.29-12.28l1.29-0.1l1.29-0.1c0.39-0.03,0.72-0.24,0.91-0.53
		c0.2-0.29,0.27-0.67,0.15-1.05l-3.5-11.12l-3.5-11.12l5.94,3.55l5.94,3.55l2.21,3.95l2.21,3.95c0.1,0.18,0.24,0.34,0.4,0.46
		c0.16,0.12,0.35,0.21,0.55,0.26l10.16,2.46l10.16,2.46c0.29,0.07,0.47,0.29,0.52,0.54c0.05,0.25-0.03,0.53-0.27,0.71
		c-4.69,3.58-8.24,7.27-10.01,11.37c-1.77,4.1-1.75,8.61,0.69,13.82c0.18,0.16,0.34,0.4,0.51,0.65c0.17,0.25,0.33,0.5,0.51,0.68
		c-0.84,0.18-1.6,0.52-2.24,1.03c-0.64,0.51-1.14,1.18-1.48,2.02l-6.8,15.25l-6.8,15.25c-1.88,0.87-3.58,1.98-4.94,3.32
		c-1.35,1.34-2.36,2.89-2.86,4.65c-0.09,0.3-0.2,0.25-0.29,0.11C190.91,550.52,190.84,550.32,190.84,550.32z M208.59,546.64
		l6.63-15.25l6.63-15.25c0,0,0-0.08,0.04-0.16c0.04-0.08,0.13-0.16,0.31-0.16c3.05,2.19,6.53,2.95,10.39,2.66
		c3.86-0.29,8.1-1.64,12.68-3.67c0.68,0.66,1.53,1.26,2.47,1.77c0.93,0.51,1.95,0.94,2.97,1.27c-2.1,1.77-4.13,3.84-5.96,6.23
		c-1.83,2.39-3.48,5.08-4.82,8.09c-0.12,0.27-0.32,0.48-0.56,0.61c-0.24,0.13-0.53,0.19-0.82,0.15c-5.06-0.59-11,1.81-15.47,5.51
		c-4.47,3.69-7.47,8.68-6.65,13.28l-3.82,3.26l-3.82,3.26c-0.12,0.1-0.27,0.09-0.38,0.01s-0.16-0.22-0.08-0.36
		c0.81-1.6,1.17-3.41,1.18-5.32S209.17,548.64,208.59,546.64L208.59,546.64L208.59,546.64z M224.9,552.07
		c-1.19-2.89,0.76-6.44,3.78-8.81c3.02-2.37,7.09-3.55,10.14-1.69c0.86,3.22-1.26,6.86-4.28,9.19
		C231.53,553.08,227.62,554.1,224.9,552.07L224.9,552.07L224.9,552.07z M340.35,543.59c0,4.63,0.32,8.76,1.27,12.61
		c0.95,3.85,2.53,7.42,5.05,10.93c0.3,0.41,0.26,0.9,0.03,1.25s-0.67,0.57-1.17,0.47c-0.29-0.06-0.59-0.11-0.88-0.14
		s-0.59-0.05-0.89-0.05c-1.12,0-2.33,0.29-3.51,0.77s-2.32,1.16-3.32,1.92c-0.06,0.05-0.22-0.02-0.37-0.11
		c-0.15-0.08-0.28-0.18-0.28-0.18l-0.35-0.7l-0.35-0.7c-0.43-1.15-1.05-2.18-1.81-3.06c-0.75-0.88-1.64-1.61-2.61-2.17
		c-0.22-0.13-0.33-0.34-0.33-0.56c0-0.22,0.1-0.45,0.3-0.59c2.69-1.93,4.5-4.52,5.76-7.71c1.26-3.19,1.97-6.99,2.45-11.32
		c0.18-0.1,0.38-0.22,0.57-0.35C340.09,543.79,340.26,543.67,340.35,543.59L340.35,543.59L340.35,543.59z M522.58,633.66
		l-9.07-15.08l-9.07-15.08c-0.2-0.33-0.22-0.72-0.1-1.05s0.38-0.62,0.74-0.75c1.32-0.49,2.46-0.93,3.62-1.37
		c1.16-0.44,2.33-0.86,3.7-1.32c1.6-0.54,3.26-1.02,5.03-1.47c1.78-0.44,3.68-0.84,5.78-1.22c0.26-0.05,0.51,0.06,0.66,0.24
		s0.23,0.43,0.14,0.69c-0.27,0.83-0.53,1.66-0.76,2.48c-0.23,0.83-0.42,1.66-0.55,2.48c-0.33,2.4-0.28,5.02,0.15,7.73
		c0.44,2.71,1.25,5.51,2.46,8.25c0.13,0.31,0.2,0.63,0.19,0.96c0,0.33-0.08,0.65-0.23,0.95c-1.26,2.55-2.18,4.64-2.58,6.76
		c-0.4,2.11-0.29,4.25,0.51,6.9c0.11,0.36-0.05,0.34-0.24,0.22C522.79,633.87,522.58,633.66,522.58,633.66z M507.42,564.96
		c2.72,1.35,5.78,1.09,8.03-0.3c2.25-1.4,3.7-3.93,3.19-7.16l9.15,11.68l9.15,11.68c-5.74,0-10.98,0.28-16.14,1.03
		s-10.23,1.97-15.63,3.86c-0.33,0.12-0.67,0.04-0.91-0.16c-0.24-0.2-0.38-0.51-0.32-0.86l1.74-9.88L507.42,564.96z M518.64,522.93
		l6.1-0.33l6.1-0.33l15.43,12.84l15.43,12.84c0.18,0.15,0.19,0.38,0.09,0.54c-0.1,0.16-0.3,0.26-0.52,0.17l-18.62-7.61l-18.62-7.61
		l-2.7-5.25L518.64,522.93z M612,444.67l1.86,2.54l1.86,2.54c-1.17,0.35-2.44,0.69-3.72,1.07c-1.28,0.38-2.56,0.8-3.75,1.31
		l1.88-3.73L612,444.67z M606.57,420.61l-10.75-0.16l-10.75-0.16l4.12-10.17l4.12-10.17l5.94-0.18l5.94-0.18
		c0.61,1.82,1.62,3.85,2.83,5.77s2.6,3.72,3.97,5.09l-2.72,5.08L606.57,420.61z M604.54,383.71l-5.94,0.33l-5.94,0.33l-2.72-4.59
		l-2.72-4.59c1.54-2.05,2.4-3.71,2.62-5.46c0.22-1.75-0.22-3.6-1.25-6.02l7.62-0.51l7.62-0.51l3.23,4.9l3.23,4.9
		c-1.11,1.11-2.55,3.12-3.71,5.25C605.42,379.88,604.54,382.12,604.54,383.71L604.54,383.71L604.54,383.71z M593.67,346.41
		l-5.77,0.68l-5.77,0.68c0-0.35,0-0.86-0.04-1.41c-0.04-0.55-0.13-1.13-0.31-1.64c-0.35-2.21-1.71-3.48-3.53-4.15
		c-1.82-0.68-4.11-0.77-6.32-0.61c-7.12,0-6.73,0.19-4.77-0.78s5.53-3.07,4.77-7.66c-0.84-3.4-4.57-4.68-9.5-4.76
		c-4.93-0.09-11.05,1.02-16.66,2.38c-8.15,2.03-12.65,3.55-12.99,3.59c-0.34,0.04,3.48-1.41,11.97-5.31
		c13.08-6.09,18.35-11.08,17.37-15.9c-0.97-4.82-8.19-9.48-20.07-14.91c-7.14-3.22-10.36-4.49-10.06-4.49s4.12,1.27,11.08,3.12
		c4.75,1.19,10.26,2.38,15.14,2.81c4.88,0.42,9.12,0.08,11.33-1.79c-0.16,0.51-0.23,1.1-0.27,1.7c-0.04,0.6-0.04,1.19-0.04,1.7
		c0,6.56,1.81,12.34,5.04,17.19c3.24,4.85,7.9,8.76,13.61,11.59l-0.85,0.57l-0.85,0.57c-0.66,0.44-1.07,1.1-1.22,1.82
		c-0.15,0.72-0.02,1.49,0.41,2.16l4.15,6.42L593.67,346.41z M567.51,286.46c-1.7-1.37-2.46-1.87-2.25-1.96
		c0.22-0.08,1.41,0.26,3.62,0.59c0.51,0,1.18,0,1.9,0c0.72,0,1.48,0,2.16,0c-0.51,0.86-0.93,1.71-1.27,2.55
		c-0.34,0.84-0.59,1.68-0.77,2.52c-0.35-0.68-1.1-1.54-1.82-2.27S567.71,286.6,567.51,286.46L567.51,286.46L567.51,286.46z
		 M565.13,252.56c0-0.18,0-0.43,0-0.72s0-0.62,0-0.96c0.38,0,0.76,0,1.13-0.02s0.71-0.06,1.03-0.13c0.11-0.02,0.15,0.03,0.15,0.12
		c0,0.09-0.05,0.22-0.15,0.34c-0.38,0.49-0.75,1.03-1.07,1.46c-0.32,0.43-0.59,0.74-0.78,0.77c-0.1,0.02-0.18-0.03-0.23-0.17
		S565.13,252.89,565.13,252.56L565.13,252.56L565.13,252.56z M325.67,664.68l5.75,0.86l5.75,0.86c0.26,0.04,0.44,0.21,0.53,0.42
		c0.08,0.21,0.06,0.46-0.1,0.67l-3.55,4.55l-3.55,4.55c-0.16,0.21-0.41,0.31-0.65,0.3s-0.47-0.13-0.61-0.35
		c-1.12-1.77-2.04-3.55-2.78-5.41c-0.73-1.86-1.27-3.8-1.61-5.87c-0.02-0.12,0.18-0.25,0.39-0.37
		C325.46,664.76,325.67,664.68,325.67,664.68z M391.25,652.49l-4.94-0.77l-4.94-0.77c-0.44-0.07-0.75-0.36-0.89-0.72
		c-0.14-0.36-0.1-0.79,0.18-1.13l3.3-4.08l3.3-4.08c0.15-0.19,0.38-0.27,0.6-0.26s0.43,0.13,0.55,0.35
		c0.96,1.69,1.78,3.41,2.46,5.19c0.68,1.78,1.21,3.61,1.58,5.53c0.03,0.16-0.27,0.35-0.58,0.5
		C391.57,652.39,391.25,652.49,391.25,652.49z M388.95,675.04c-0.88,1.79-2.02,3.48-3.29,5.09c-1.27,1.61-2.66,3.12-4.06,4.55
		c-0.12,0.12-0.29,0.16-0.44,0.13c-0.15-0.03-0.29-0.13-0.35-0.3l-2.07-5.25l-2.07-5.25c-0.15-0.38-0.06-0.76,0.16-1.04
		c0.22-0.28,0.58-0.44,0.98-0.38l5.37,0.84l5.37,0.84c0.18,0.03,0.32,0.14,0.4,0.28C389.02,674.7,389.03,674.88,388.95,675.04z
		 M607.23,337.93l-2.37-3.38l-2.37-3.38c1.86-0.18,3.64-0.43,5.33-0.81c1.7-0.38,3.31-0.89,4.83-1.57l-2.72,4.57L607.23,337.93z"/>
</g>
</svg>
