<?xml version="1.0" encoding="utf-8"?>
<!-- Generator: Adobe Illustrator 24.3.0, SVG Export Plug-In . SVG Version: 6.00 Build 0)  -->
<svg version="1.1" id="Слой_1" xmlns="http://www.w3.org/2000/svg" xmlns:xlink="http://www.w3.org/1999/xlink" x="0px" y="0px"
	 viewBox="0 0 720 720" style="enable-background:new 0 0 720 720;" xml:space="preserve">
<style type="text/css">
	.st0{fill-rule:evenodd;clip-rule:evenodd;}
</style>
<g>
	<path class="st0" d="M341.98,34.28c2.31-2.29,5.06-4.15,8.1-5.43s6.38-1.99,9.88-1.99c3.54,0,6.9,0.71,9.95,1.99
		c3.05,1.28,5.8,3.13,8.11,5.43c2.3,2.31,4.16,5.05,5.45,8.1s2.01,6.39,2.01,9.9s-0.72,6.86-2.01,9.9s-3.16,5.79-5.45,8.1
		c-2.31,2.29-5.06,4.15-8.11,5.43c-3.05,1.28-6.41,1.99-9.95,1.99c-3.5,0-6.84-0.71-9.88-1.99c-3.04-1.28-5.79-3.13-8.1-5.43
		c-2.3-2.31-4.17-5.05-5.47-8.1c-1.3-3.04-2.03-6.39-2.03-9.9s0.73-6.86,2.03-9.9C337.81,39.34,339.68,36.6,341.98,34.28
		L341.98,34.28L341.98,34.28z M569.15,533.64c6.05-4.87,10.86-10.43,14.44-16.47c3.58-6.04,5.94-12.56,7.06-19.34
		c1.97-11.77-1.05-21.59-3.42-30.26c-2.37-8.67-4.09-16.2,0.48-23.41c3.19-5.03,8.19-8.16,13.03-8.8c4.84-0.64,9.53,1.21,12.11,6.16
		c0.94,1.8,1.32,3.59,1.16,5.25c-0.16,1.65-0.87,3.16-2.11,4.39c-3.04,2.96-6.97,3.24-9.62,2.2c-2.64-1.04-4-3.4-1.9-5.71
		c0.61-0.67,0.95-1.5,1-2.35s-0.18-1.72-0.69-2.47c-0.52-0.73-1.26-1.22-2.09-1.45c-0.82-0.23-1.72-0.19-2.54,0.15
		c-2.3,0.96-3.82,2.67-4.69,4.74s-1.09,4.51-0.78,6.92c0.77,5.97,4.13,10.24,8.76,12.29c4.63,2.05,10.51,1.88,16.33-1.05
		c0.15-0.08,0.31-0.05,0.43,0.03s0.19,0.23,0.16,0.4c-2.98,15.96-7.35,31.53-13.07,46.54c-5.72,15.02-12.78,29.48-21.13,43.25
		c-0.13,0.21-0.35,0.26-0.54,0.19s-0.34-0.25-0.32-0.49c0.41-4.36-0.61-8.6-2.73-12.23C576.35,538.5,573.13,535.5,569.15,533.64
		L569.15,533.64L569.15,533.64z M538.5,568.2c5.14,2.88,10.36,5.02,15.65,5.7s10.69-0.1,16.18-3.08c0.21-0.11,0.43-0.05,0.56,0.1
		c0.13,0.14,0.17,0.36,0.03,0.56c-3.66,5.13-7.52,10.14-11.56,15.03c-4.05,4.89-8.28,9.65-12.71,14.28
		c-0.14,0.15-0.34,0.16-0.49,0.08s-0.26-0.25-0.22-0.45c1.06-5.85,0.73-11.86-0.87-17.51c-1.6-5.65-4.47-10.93-8.49-15.33
		c-0.12-0.14-0.04-0.19,0.08-0.21c0.12-0.02,0.27,0,0.27,0l0.79,0.42L538.5,568.2z M453.59,605.15
		c8.42-7.45,20.41-18.35,33.15-24.96c12.73-6.62,26.2-8.96,37.56,0.69c9.43,11.1,7.49,21.96,1.19,28.28s-16.96,8.09-24.99,1.03
		c-0.1-0.09-0.13-0.22-0.09-0.33c0.03-0.11,0.12-0.21,0.26-0.24c3.28-0.65,6.05-2.58,7.71-5.18s2.23-5.88,1.12-9.23
		c-0.65-1.93-1.83-3.58-3.4-4.84s-3.54-2.13-5.78-2.49c-3.64-0.57-7.45,0.62-10.51,2.89c-3.06,2.26-5.37,5.6-5.98,9.31
		c-1.46,9.19,2.08,16.61,8.07,21.6c5.99,4.99,14.42,7.56,22.71,7.06c0.14-0.01,0.24,0.07,0.28,0.18c0.04,0.11,0.02,0.23-0.09,0.32
		c-4.65,3.54-9.41,6.89-14.27,10.07s-9.8,6.19-14.83,9.04c4.17-10.45,1.51-21.27-4.87-29.46S464.32,605.11,453.59,605.15
		L453.59,605.15L453.59,605.15z M400.37,644.93c5.45-3.46,14.82-9.02,24.39-13.6c9.58-4.58,19.36-8.18,25.66-7.73
		c7.67,0.54,12.98,4.78,15.64,9.77c2.66,4.99,2.68,10.72-0.22,14.24c-1.4,1.72-3.69,3.41-6.24,4.22c-2.54,0.81-5.34,0.73-7.73-1.08
		c-1.68-1.28-3.02-3.05-3.61-4.94c-0.59-1.89-0.43-3.91,0.89-5.69c1.22-1.62,2.93-2.33,4.48-2.57c1.55-0.23,2.96,0,3.59,0.27
		c0.8,0.34,1.67,0.38,2.48,0.16s1.54-0.71,2.08-1.42c0.54-0.69,0.78-1.52,0.76-2.35c-0.02-0.83-0.32-1.66-0.88-2.35
		c-1.01-1.24-2.34-2.24-3.88-2.93s-3.29-1.1-5.15-1.16c-10.01-0.32-15.96,6.74-16.89,15.05c-0.94,8.31,3.14,17.88,13.18,22.56
		c-6.87,2.54-13.85,4.79-20.93,6.73c-7.08,1.94-14.27,3.59-21.54,4.93c2.83-5.37,3.65-11.44,2.6-17.14
		C407.99,654.19,405.06,648.85,400.37,644.93L400.37,644.93L400.37,644.93z M364.44,656.36c9.55-4.91,16.08-6.03,20.68-5.31
		c4.6,0.72,7.26,3.28,9.05,5.73c3.1,4.19,2.54,9.77-0.09,14.05c-2.63,4.27-7.34,7.22-12.54,6.13c-0.53-0.12-1.01-0.27-1.44-0.46
		c-0.43-0.19-0.81-0.41-1.15-0.66c-0.19-0.14-0.25-0.35-0.21-0.55c0.04-0.2,0.18-0.38,0.4-0.45c0.39-0.11,0.77-0.26,1.14-0.43
		c0.37-0.17,0.73-0.37,1.07-0.59c1.34-0.86,2.37-2.04,3.04-3.41c0.66-1.36,0.96-2.9,0.83-4.47c-0.13-1.57-0.72-3.02-1.67-4.24
		c-0.95-1.22-2.27-2.22-3.88-2.87c-5.69-2.27-10.66,0.56-13.31,5.19c-2.64,4.63-2.96,11.07,0.68,16.02c0.16,0.22,0.16,0.49,0.06,0.7
		c-0.11,0.21-0.32,0.37-0.59,0.38c-7.52,0.19-15.02,0.07-22.5-0.39c-7.48-0.46-14.94-1.24-22.4-2.37c-0.19-0.03-0.3-0.18-0.31-0.33
		s0.06-0.32,0.24-0.39c7.63-2.81,14.76-6.3,21.78-10C350.34,663.95,357.25,660.04,364.44,656.36L364.44,656.36L364.44,656.36z
		 M117.26,511.74c2.64,1.53,5.2,2.83,7.71,3.9c2.51,1.08,4.97,1.93,7.4,2.56c0.4,0.11,0.8,0.22,1.21,0.32
		c0.4,0.1,0.8,0.18,1.21,0.26c1.02,0.2,2.04,0.37,3.05,0.49c1.01,0.12,2.01,0.21,3.01,0.25c0.14,0.01,0.3,0.09,0.41,0.19
		c0.11,0.1,0.17,0.22,0.11,0.29c-0.94,1.55-1.26,3.19-1,4.71c0.26,1.51,1.1,2.9,2.5,3.93c0.14,0.11,0.28,0.22,0.42,0.31
		c0.15,0.1,0.29,0.19,0.45,0.27c0.08,0.05,0.08,0.14,0.03,0.23c-0.05,0.09-0.16,0.17-0.28,0.2c-2.9,0.66-5.79,1.18-8.7,1.55
		c-2.91,0.37-5.84,0.59-8.8,0.64c-0.1,0-0.2-0.03-0.28-0.08c-0.08-0.05-0.15-0.12-0.19-0.22c-1.55-3.22-3.03-6.47-4.44-9.74
		c-1.41-3.28-2.75-6.58-4.03-9.91c-0.02-0.06,0-0.12,0.04-0.16S117.18,511.7,117.26,511.74L117.26,511.74L117.26,511.74z
		 M121.51,496.53c-1.24,0.64-2.58,0.99-3.91,1.34c-1.33,0.35-2.64,0.71-3.84,1.36c-0.27,0.15-0.58,0.16-0.84,0.05
		c-0.26-0.1-0.48-0.32-0.58-0.61c-0.37-1.13-0.73-2.26-1.08-3.4s-0.69-2.26-1.03-3.4c-0.08-0.26,0.03-0.5,0.22-0.62
		c0.19-0.13,0.45-0.15,0.67,0.01c1.58,1.11,3.23,2.07,4.96,2.87c1.72,0.81,3.52,1.46,5.38,1.97c0.1,0.03,0.16,0.11,0.17,0.19
		C121.64,496.39,121.6,496.48,121.51,496.53z M108.09,409.15l3.38,24.28l3.38,24.28c0.02,0.17-0.06,0.31-0.18,0.38
		c-0.12,0.07-0.28,0.08-0.41-0.02c-2.25-1.8-4.24-4.59-6.27-6.83c-2.03-2.24-4.12-3.93-6.57-3.53c-0.04,0.01-0.11-0.03-0.19-0.08
		c-0.07-0.05-0.14-0.11-0.14-0.17c-0.68-5.49-1.18-11.02-1.52-16.57c-0.34-5.55-0.51-11.14-0.51-16.74c0-1.36,0.02-2.72,0.04-4.08
		c0.03-1.36,0.06-2.72,0.09-4.08c0-0.16,0.09-0.3,0.21-0.38c0.12-0.08,0.28-0.11,0.43-0.06l3.78,1.36l3.78,1.36
		c0.19,0.07,0.35,0.19,0.47,0.34S108.06,408.95,108.09,409.15z M136.27,276.49c3.09-5.25,6.37-10.39,9.82-15.42
		c3.46-5.03,7.09-9.95,10.9-14.75c0.11-0.14,0.28-0.16,0.42-0.11c0.14,0.06,0.24,0.19,0.22,0.37l-1.28,11.8l-1.28,11.8
		c-0.02,0.18-0.09,0.34-0.2,0.47s-0.25,0.23-0.42,0.28l-9.1,2.78L136.27,276.49z M133.75,280.85l10.2,2.14l10.2,2.14
		c0.26,0.05,0.49,0.19,0.67,0.37c0.18,0.19,0.3,0.42,0.34,0.69l3.76,23.97l3.76,23.97c0.01,0.07-0.01,0.14-0.05,0.2
		s-0.1,0.1-0.17,0.12c-1.47,0.37-2.44,1.02-3.08,1.88c-0.64,0.86-0.95,1.92-1.1,3.11c-0.36,2.69-0.46,5.86-0.18,8.98
		c0.28,3.12,0.93,6.21,2.06,8.75c0.83,2,1.91,3.83,3.22,5.48c1.31,1.65,2.86,3.11,4.62,4.34c0.03,0.02,0.05,0.09,0.05,0.15
		c0,0.07-0.02,0.13-0.07,0.16c-1.45,0.54-2.46,1.14-3,2.04c-0.54,0.91-0.61,2.13-0.19,3.91c0.44,2.1,3.6,4.37,7.24,6.24
		c3.64,1.88,7.75,3.37,10.11,3.93c0.13,0.03,0.23,0.11,0.29,0.22s0.07,0.24,0.03,0.37c-0.16,0.56-0.22,1.1-0.17,1.62
		c0.04,0.52,0.19,1.02,0.43,1.51c0.1,0.19,0.05,0.49-0.07,0.74c-0.13,0.25-0.34,0.45-0.57,0.46c-0.18,0.01-0.35,0.01-0.53,0.01
		s-0.36,0-0.54,0c-2.2,0.06-4.5-0.06-6.87-0.33c-2.38-0.27-4.84-0.7-7.36-1.28c-1.4-0.32-2.54-0.57-3.6-0.63
		c-1.06-0.06-2.02,0.08-3.06,0.52c-1.49,0.63-2.52,1.51-3.12,2.77c-0.61,1.26-0.8,2.89-0.63,5.03c0.02,0.43,0.05,0.83,0.1,1.2
		c0.05,0.37,0.11,0.72,0.18,1.04c0.03,0.12-0.01,0.24-0.08,0.33s-0.18,0.14-0.3,0.14c-0.37-0.01-0.72-0.04-1.07-0.09
		s-0.7-0.12-1.04-0.21c-3-0.75-5.77-3.9-8.43-6.65c-2.66-2.75-5.21-5.09-7.8-4.21c-1.9,0.64-2.87,2.97-3.34,5.65
		c-0.47,2.69-0.45,5.73-0.37,7.82c0.01,0.19-0.08,0.35-0.22,0.45c-0.14,0.1-0.32,0.13-0.49,0.07l-6.76-2.44l-6.76-2.44
		c-0.14-0.05-0.26-0.14-0.36-0.25c-0.09-0.11-0.16-0.25-0.19-0.39l-3.27-17.39l-3.27-17.39c-0.09-0.49-0.49-0.71-0.88-0.69
		s-0.76,0.28-0.81,0.78l-1.57,17.25l-1.57,17.25c-0.02,0.21-0.1,0.4-0.22,0.55c-0.12,0.16-0.29,0.28-0.48,0.35l-3.51,1.27
		l-3.51,1.27c-0.19,0.07-0.38,0.03-0.52-0.08c-0.14-0.11-0.24-0.28-0.22-0.48c1.27-21.03,4.68-41.16,10.34-60.51
		C115.58,317.29,123.49,298.73,133.75,280.85L133.75,280.85L133.75,280.85z M198.44,206.41c2.16,2.44,6.21,6.07,10.36,9.64
		s8.38,7.08,10.92,9.29c0.19,0.17,0.33,0.38,0.41,0.62s0.09,0.49,0.04,0.74l-2.94,13.55l-2.94,13.55c-0.38,1.85-0.21,3.74,0.44,5.44
		c0.65,1.7,1.78,3.22,3.31,4.35c1.53,1.11,3.32,1.72,5.14,1.82c1.82,0.1,3.66-0.31,5.31-1.25l6.03-3.46l6.03-3.46
		c0.26-0.15,0.55-0.1,0.75,0.06c0.2,0.16,0.3,0.43,0.2,0.72c-1.87,5.45-3.67,11.61-5.9,17.5c-2.22,5.89-4.86,11.49-8.41,15.82
		c-3.67,4.53-7.64,6.62-11.97,7.41c-4.33,0.79-9.02,0.29-14.12-0.38c-2.74-0.34-5.01-0.63-6.74-0.79c-1.73-0.16-2.92-0.19-3.47-0.01
		c-3.42,1.2-4.31,5.82-3.84,10.82s2.3,10.38,4.3,13.09c0.16,0.22,0.23,0.47,0.22,0.72s-0.11,0.5-0.28,0.71
		c-1.11,1.32-1.28,2.65-0.9,3.89c0.38,1.24,1.32,2.38,2.45,3.33c1.93,1.65,4.05,3.13,5.98,4.36s3.66,2.21,4.81,2.86
		c0.11,0.06,0.16,0.18,0.14,0.29c-0.02,0.11-0.1,0.21-0.22,0.25c-3.08,0.8-5.9,1.07-8.68,0.76c-2.78-0.32-5.52-1.21-8.41-2.74
		c-1.55-0.8-2.75-1.42-3.91-1.64c-1.16-0.22-2.27-0.04-3.63,0.76c-1.67,1.04-2.35,2.32-2.56,3.76s0.05,3.01,0.26,4.64
		c0.01,0.08-0.02,0.16-0.07,0.21c-0.05,0.05-0.13,0.08-0.21,0.07c-1.17-0.18-2.14-0.62-3.01-1.24c-0.87-0.62-1.64-1.42-2.41-2.31
		c-0.59-0.68-1.16-1.39-1.74-2.1s-1.18-1.4-1.81-2.03c-0.05-0.05-0.09-0.11-0.11-0.17s-0.04-0.13-0.03-0.2l1.2-24.8l1.2-24.8
		c0.01-0.21,0.09-0.41,0.21-0.57c0.13-0.16,0.3-0.28,0.5-0.35l10.22-3.13l10.22-3.13c0.41-0.13,0.61-0.48,0.61-0.83
		c0-0.35-0.2-0.7-0.61-0.83l-10.3-3.14l-10.3-3.14c-0.16-0.05-0.31-0.14-0.42-0.26c-0.11-0.12-0.19-0.27-0.23-0.44l-3.38-15.11
		L162.77,240c-0.04-0.18-0.04-0.37,0.01-0.55s0.13-0.35,0.25-0.49c2.01-2.35,4.05-4.67,6.13-6.96c2.08-2.29,4.21-4.55,6.37-6.77
		c3.26-3.32,6.59-6.55,9.98-9.67s6.85-6.14,10.36-9.05c0.26-0.22,0.81-0.36,1.34-0.38C197.73,206.11,198.24,206.19,198.44,206.41z
		 M232.6,187.17l-5.57,0.57l-5.57,0.57c-0.14,0.01-0.24-0.07-0.27-0.17c-0.04-0.11-0.01-0.23,0.1-0.31
		c2.43-1.56,4.88-3.08,7.36-4.57c2.47-1.48,4.97-2.92,7.5-4.31c0.11-0.06,0.24-0.03,0.32,0.04c0.08,0.07,0.12,0.19,0.07,0.31
		l-1.66,3.71l-1.66,3.71c-0.06,0.12-0.14,0.23-0.25,0.31C232.87,187.11,232.74,187.16,232.6,187.17z M326.01,178.18l-13.19,5.61
		l-13.19,5.61c-0.25,0.11-0.52,0.18-0.79,0.22c-0.27,0.04-0.55,0.05-0.82,0.02l-11.21-1.17l-11.21-1.17
		c-0.5-0.05-0.97-0.24-1.37-0.52c-0.4-0.29-0.72-0.67-0.92-1.13l-4.36-9.7l-4.36-9.7c-0.08-0.18-0.08-0.38-0.01-0.55
		c0.07-0.17,0.21-0.32,0.39-0.39c10.91-4.36,22.12-7.96,33.55-10.78s23.1-4.85,34.94-6.07c0.28-0.03,0.53,0.09,0.69,0.28
		s0.24,0.45,0.17,0.72l-3.55,13.65l-3.55,13.65c-0.08,0.32-0.24,0.61-0.45,0.86S326.32,178.05,326.01,178.18z M406.07,157.39
		c-0.21,2.9-0.76,5.52-1.46,7.98c-0.71,2.46-1.58,4.75-2.44,7c-1.05,2.75-2.08,5.44-2.72,8.21s-0.91,5.63-0.45,8.72
		c0.2,1.32,0.55,2.6,1.02,3.84c0.46,1.25,1.04,2.46,1.71,3.67c0.18,0.32,0.14,0.67-0.04,0.93c-0.17,0.26-0.48,0.43-0.84,0.39
		c-2.48-0.3-5.42-0.65-8.01-1.48c-2.59-0.83-4.84-2.13-5.93-4.33c-0.61-1.28-0.83-2.85-0.66-4.7s0.74-3.98,1.69-6.39
		c0.59-1.49,1.77-4.69,2.2-7.76s0.11-6-2.28-6.96c-1.74-0.7-3.2-0.03-4.41,1.26c-1.21,1.29-2.18,3.19-2.94,4.95
		c-0.17,0.4-0.56,0.54-0.9,0.48s-0.65-0.34-0.67-0.77c-0.05-1.1-0.08-2.21-0.12-3.32c-0.04-1.11-0.1-2.22-0.22-3.32
		c-0.29-2.9-1-4.67-1.88-5.72c-0.88-1.05-1.91-1.37-2.83-1.39c-0.75,0-1.77,0.2-2.71,1.14s-1.8,2.62-2.22,5.59
		c-0.4,2.94-0.31,6.37,0.18,9.98s1.38,7.41,2.58,11.09c0.06,0.19,0,0.37-0.12,0.48c-0.12,0.12-0.3,0.17-0.48,0.1l-12.26-4.45
		l-12.26-4.45c-0.35-0.13-0.66-0.34-0.91-0.61c-0.25-0.27-0.43-0.6-0.52-0.96l-3.53-13.55l-3.53-13.55
		c-0.1-0.37-0.01-0.75,0.19-1.04c0.2-0.29,0.53-0.49,0.92-0.52c3.43-0.27,6.88-0.48,10.34-0.62s6.93-0.22,10.41-0.22
		c8.13,0,16.21,0.38,24.22,1.13c8.01,0.75,15.94,1.87,23.76,3.34c-0.77,0.8-1.21,1.93-1.47,3.02
		C406.21,155.69,406.13,156.74,406.07,157.39L406.07,157.39L406.07,157.39z M494.27,240.29c-0.72,1.58-1.3,3.15-1.74,4.69
		c-0.44,1.54-0.75,3.06-0.94,4.54c-0.04,0.31-0.27,0.5-0.52,0.54s-0.53-0.07-0.66-0.35c-1.51-3.13-2.19-5.11-2.47-6.5
		c-0.27-1.38-0.13-2.17,0.01-2.92c0.2-1.09,0.35-2.16,0.28-3.46c-0.07-1.31-0.36-2.85-1.03-4.91c-0.04-0.12-0.03-0.24,0.01-0.35
		c0.04-0.11,0.12-0.2,0.24-0.26c4.16-2.16,7.12-6.01,9.39-10.39s3.82-9.3,5.16-13.6c0.08-0.25,0.03-0.51-0.1-0.71
		c-0.13-0.2-0.35-0.35-0.62-0.37c-3.2-0.33-5.87-0.3-8.5,0.07c-2.63,0.37-5.22,1.1-8.27,2.16c-0.18,0.06-0.34-0.02-0.41-0.15
		s-0.08-0.31,0.06-0.44c0.71-0.66,1.45-1.31,2.15-1.92c0.7-0.61,1.37-1.18,1.95-1.67c2.3-1.97,4.77-4.07,7.1-6.33
		c2.33-2.26,4.52-4.69,6.27-7.31c0.11-0.17,0.28-0.28,0.47-0.32c0.18-0.04,0.38-0.01,0.55,0.11c6.62,4.44,13.07,9.2,19.31,14.28
		s12.29,10.47,18.13,16.16c0.37,0.36,0.37,0.84,0.16,1.2c-0.21,0.36-0.64,0.59-1.13,0.46c-8.5-2.22-17.79-2.02-25.92,0.86
		C505.07,226.28,498.1,231.83,494.27,240.29L494.27,240.29L494.27,240.29z M613.19,418.86c-6.3-3.1-13.49-3.3-20.14-1.35
		s-12.74,6.02-16.87,11.47c-0.2,0.26-0.49,0.38-0.77,0.37s-0.56-0.16-0.71-0.45c-1.48-2.7-3.41-5.66-5.28-8.75s-3.67-6.34-4.89-9.62
		c-2.22-6.02-1.28-12.39,1.74-17.29s8.12-8.33,14.22-8.47c3.88-0.08,7.5,2.28,9.36,5.42c1.87,3.13,1.98,7.04-1.14,10.06
		c-1.05,1.01-2.37,1.83-3.74,2.35c-1.36,0.52-2.77,0.75-3.99,0.6c-0.75-0.1-1.4-0.32-1.96-0.67c-0.56-0.35-1.03-0.84-1.41-1.47
		c-2.24-3.34-4.45-1.68-4.35,1.42c0.1,3.11,2.51,7.65,9.51,10.08c7.51,2.6,15.72,1.82,22.58-1.07c6.86-2.88,12.37-7.86,14.47-13.63
		c0.06-0.17,0.21-0.24,0.36-0.22c0.14,0.02,0.27,0.13,0.28,0.3c0.16,2.68,0.28,5.38,0.37,8.09s0.13,5.42,0.13,8.13
		c0,1.33-0.01,2.65-0.03,3.96s-0.06,2.63-0.1,3.94c-0.02,0.45-0.29,0.78-0.64,0.93c-0.35,0.15-0.79,0.11-1.12-0.19
		c-0.89-0.78-1.83-1.51-2.81-2.17C615.26,419.97,614.24,419.38,613.19,418.86L613.19,418.86L613.19,418.86z M136.7,411.48
		c0.99,2.37,2.31,4.6,3.9,6.59c1.6,2,3.48,3.76,5.62,5.22c0.5,0.32,0.98,0.62,1.46,0.9s0.94,0.53,1.41,0.76
		c0.1,0.05,0.14,0.14,0.13,0.23c-0.01,0.09-0.06,0.18-0.17,0.21c-1.82,0.64-3.31,1.29-4.35,2.22c-1.04,0.93-1.63,2.13-1.66,3.85
		c-0.08,3.21,3.47,6.11,7.71,8.33c4.23,2.22,9.15,3.77,11.81,4.29c0.37,0.08,0.75,0.15,1.12,0.21c0.37,0.06,0.75,0.11,1.12,0.16
		c0.1,0.01,0.19,0.07,0.24,0.16c0.05,0.08,0.06,0.18,0.03,0.29c-0.46,1.54-0.25,2.85,0.41,3.95s1.78,1.97,3.16,2.61
		c0.08,0.04,0.12,0.12,0.11,0.2s-0.06,0.15-0.15,0.17c-1.47,0.31-2.96,0.55-4.44,0.73s-2.98,0.29-4.47,0.33
		c-3.02,0.1-5.99-0.11-8.88-0.63c-2.89-0.51-5.7-1.32-8.42-2.43c-3.67-1.49-6.52-2.27-8.78-2.36c-2.25-0.09-3.91,0.51-5.19,1.79
		c-1.14,1.13-1.7,2.57-1.69,4.37c0.01,1.8,0.6,3.96,1.78,6.54c0.08,0.17,0.07,0.37-0.01,0.52c-0.08,0.15-0.23,0.27-0.42,0.3
		c-1.8,0.24-3.64,0.34-5.46,0.2c-1.82-0.14-3.61-0.52-5.31-1.25c-0.13-0.06-0.24-0.16-0.32-0.28c-0.07-0.12-0.11-0.26-0.1-0.41
		l1.29-25.09l1.29-25.09c0.01-0.17,0.07-0.33,0.16-0.46c0.1-0.13,0.23-0.23,0.39-0.29l6.91-2.5l6.91-2.5
		c0.17-0.06,0.35-0.04,0.49,0.05s0.24,0.23,0.27,0.41c0.19,1.36,0.44,2.65,0.78,3.91C135.72,408.95,136.15,410.2,136.7,411.48
		L136.7,411.48L136.7,411.48z M469.61,172.37c-3.52-0.07-4.98,1.52-5.02,3.73s1.33,5.03,3.46,7.4c3.56,3.97,4.78,6.83,4.57,9.56
		c-0.21,2.73-1.86,5.33-4.04,8.79c-0.98,1.56-2.02,3.22-3.01,5.03c-0.99,1.82-1.93,3.79-2.71,5.99c-0.07,0.21-0.21,0.38-0.38,0.51
		c-0.17,0.12-0.38,0.19-0.6,0.2c-0.95,0.01-1.95,0.06-2.95,0.15s-1.99,0.21-2.92,0.35c-0.27,0.04-0.53-0.01-0.76-0.13
		c-0.23-0.12-0.42-0.31-0.54-0.55c-0.98-1.93-2.13-3.54-3.32-4.96c-1.2-1.42-2.44-2.65-3.62-3.81c-2.28-2.24-4.39-4.32-5.82-7.39
		c-1.43-3.07-2.16-7.12-1.68-13.29l0,0l0,0c0.15-2.04,0.3-3.95,0.03-5.46c-0.26-1.51-0.93-2.63-2.41-3.11
		c-1.53-0.5-2.82,0.12-3.93,1.18c-1.1,1.06-2.02,2.56-2.81,3.82c-1.69,2.76-2.53,5.77-2.52,9.06c0.01,3.28,0.88,6.84,2.62,10.7
		c0.07,0.15,0.04,0.3-0.05,0.42c-0.09,0.11-0.23,0.18-0.39,0.16c-7.3-1.23-12.15-3.69-15.25-6.4c-3.09-2.71-4.42-5.67-4.66-7.88
		c-0.19-1.83,0.63-3.55,1.98-5.24c1.35-1.69,3.24-3.34,5.17-5.04c1.03-0.9,2.09-1.82,3.08-2.77c0.99-0.95,1.93-1.93,2.74-2.97
		c1.28-1.61,2.55-3.5,3.2-5.29c0.64-1.79,0.65-3.48-0.59-4.69c-1.32-1.26-2.89-1.13-4.43-0.43c-1.54,0.7-3.05,1.97-4.26,2.99
		c-0.21,0.17-0.42,0.34-0.64,0.51c-0.21,0.17-0.43,0.33-0.65,0.49c-0.1,0.07-0.23,0.04-0.34-0.04c-0.11-0.08-0.19-0.21-0.18-0.34
		c0.09-1.14,0.11-2.31,0.05-3.44s-0.18-2.22-0.39-3.22c-0.19-0.84-0.41-1.61-0.66-2.29c-0.25-0.69-0.54-1.3-0.87-1.83
		c11.1,2.39,22.3,5.86,32.07,9.37c9.77,3.5,18.11,7.03,23.5,9.52c0.3,0.14,0.42,0.3,0.38,0.43S469.89,172.37,469.61,172.37z
		 M303.46,646.71c1.69,1.47,3.52,2.86,5.43,4.13c1.91,1.26,3.91,2.4,5.93,3.35c0.06,0.04,3.2,1.53,6.89,2.5
		c3.68,0.97,7.9,1.43,10.1-0.59c0.74-0.69,1.21-1.62,1.46-2.7s0.3-2.33,0.2-3.66c-0.03-0.36,0.13-0.66,0.38-0.86
		c0.25-0.19,0.59-0.27,0.93-0.16c1.49,0.49,2.98,0.94,4.45,1.34c1.48,0.4,2.94,0.75,4.4,1.06c0.25,0.05,0.4,0.24,0.44,0.45
		c0.04,0.21-0.05,0.44-0.27,0.57c-2.45,1.45-4.93,2.94-7.43,4.37c-2.5,1.43-5.02,2.81-7.54,4.03c-3.33,1.57-7.29,3.28-11.68,4.86
		s-9.2,3-14.23,4.01c-0.25,0.05-0.47-0.04-0.62-0.21c-0.15-0.16-0.21-0.4-0.13-0.64c0.67-1.99,0.95-6.04,0.98-10.2
		s-0.17-8.45-0.46-10.91c-0.05-0.38,0.06-0.65,0.22-0.78S303.27,646.55,303.46,646.71z M267.82,663.1c0.74-1.08,1.52-2.24,2.32-3.5
		s1.62-2.6,2.43-4.04c0.41-0.72,0.8-1.43,1.17-2.12c0.37-0.69,0.72-1.37,1.05-2.05c0.1-0.21,0.29-0.33,0.49-0.36
		s0.41,0.04,0.56,0.21c0.74,0.86,1.52,1.72,2.33,2.6c0.81,0.88,1.66,1.76,2.55,2.67c1.11,1.18,3.67,3.89,6.39,6.64
		c2.72,2.74,5.6,5.52,7.35,6.83c0.14,0.11,0.18,0.27,0.14,0.42c-0.04,0.14-0.17,0.27-0.34,0.28c-4.66,0.32-8.97-0.41-13.21-1.64
		c-4.24-1.24-8.4-2.98-12.74-4.69c-0.18-0.07-0.35-0.31-0.45-0.57C267.76,663.52,267.72,663.24,267.82,663.1z M400.94,292.58
		l20.38-3.92l20.38-3.92c-1.61,4.66-4,9.29-6.65,13.69c-2.65,4.4-5.56,8.59-8.2,12.37c-0.82,1.2-1.64,2.38-2.41,3.51
		c-0.77,1.13-1.5,2.22-2.15,3.25c-4.42,0.99-8.86,1.91-13.29,2.86c-4.43,0.95-8.86,1.92-13.26,3.03l2.6-15.44L400.94,292.58z
		 M439.32,218.32c0.25,0.33,0.39,0.69,0.45,1.15s0.02,1.01-0.08,1.74c-0.03,0.21-0.1,0.41-0.2,0.59c-0.1,0.18-0.24,0.34-0.4,0.47
		c-4.74,3.78-7.11,7.06-8.17,10.08c-1.06,3.02-0.82,5.78-0.35,8.52c0.48,2.71-0.1,4.35-1.32,5.74c-1.22,1.39-3.1,2.54-5.22,4.28
		c-1.42,1.17-4.34,3.26-6.95,5.46c-2.61,2.2-4.89,4.5-5.03,6.09c-0.06,0.8,0.08,1.59,0.37,2.3c0.3,0.71,0.76,1.35,1.35,1.87
		c0.25,0.75,0.62,1.8,1.32,2.78s1.72,1.89,3.27,2.35c2.01,2.5,5.35,3.11,8.77,2.72c3.42-0.39,6.92-1.79,9.25-3.3
		c0.82-0.54,1.72-1.12,2.8-1.74c1.08-0.62,2.34-1.28,3.89-1.97c0.55,2.1,0.79,4.24,0.77,6.41c-0.03,2.17-0.33,4.37-0.84,6.58
		l-21.31-4.8l-21.31-4.8l-4.9-30.53l-4.9-30.53c-0.04-0.23,0.04-0.45,0.19-0.59s0.36-0.22,0.59-0.18c5.27,1,15.95,1.6,25.96,2.81
		C427.33,213.02,436.69,214.85,439.32,218.32L439.32,218.32L439.32,218.32z M489.56,183.31c-0.72,1.1-1.67,2.17-2.7,3.19
		s-2.15,1.98-3.23,2.85c-0.04,0.04-0.1,0.04-0.15,0.02c-0.05-0.02-0.08-0.06-0.1-0.11c-0.5-2.42-1.16-4.84-2.04-7.07
		s-1.99-4.26-3.41-5.89c-0.08-0.1-0.07-0.21-0.01-0.29s0.18-0.12,0.29-0.06c1.93,0.99,3.83,2.02,5.72,3.07
		c1.89,1.05,3.77,2.14,5.64,3.25c0.08,0.05,0.12,0.24,0.12,0.46C489.7,182.93,489.66,183.17,489.56,183.31z M558.01,467.82
		c-6.81-4.07-14.77-5.8-22.58-5.29s-15.47,3.26-21.69,8.16c-6.01,4.73-9.92,11.31-11.41,18.35c-1.49,7.04-0.56,14.54,3.12,21.11
		c0.11,0.19,0.04,0.38-0.1,0.49c-0.14,0.1-0.34,0.12-0.49-0.04c-3.47-3.59-5.75-7.78-6.84-12.32c-1.09-4.53-0.97-9.41,0.38-14.37
		c1.99-7.3,6.39-13.56,12.19-17.93c5.8-4.37,13-6.86,20.6-6.61c2.81,0.1,5.83-0.6,7.47-1.83c1.64-1.22,1.91-2.97-0.77-4.98
		c-3.83-2.9-9.54-3.59-15.05-3.21s-10.82,1.85-13.84,3.24c-2.43,1.13-4.8,2.57-7.05,4.29c-2.24,1.72-4.36,3.72-6.27,5.95
		c-1.71,2.01-3.23,4.15-4.56,6.39c-1.33,2.23-2.46,4.56-3.4,6.95c-0.04,0.11-0.14,0.14-0.23,0.11c-0.09-0.02-0.16-0.1-0.14-0.22
		c1.21-6.62,3.81-12.52,7.65-17.5c3.85-4.98,8.94-9.04,15.14-11.97c6.39-3.04,13.32-4.51,20.17-4.42
		c6.85,0.09,13.64,1.74,19.74,4.95c6.2,3.29,12.52,8.99,17.37,16.18c4.85,7.19,8.21,15.85,8.5,25.06c0.03,0.77,0.04,1.55,0.03,2.32
		c-0.01,0.77-0.04,1.54-0.08,2.31c-0.01,0.18-0.06,0.28-0.12,0.29c-0.06,0.01-0.13-0.06-0.16-0.23c-1.21-5.16-3.28-10.1-6.21-14.44
		C566.44,474.3,562.65,470.56,558.01,467.82L558.01,467.82L558.01,467.82z M546.72,547.13c-0.4,2.39,0.19,5.08,1.59,7.13
		s3.6,3.44,6.41,3.23c2.05-0.15,3.98-1.16,4.79-2.36c0.81-1.2,0.49-2.59-1.96-3.53c-0.29-0.11-0.56-0.2-0.81-0.3
		c-0.25-0.1-0.47-0.2-0.64-0.35c-1.21-0.99-1.33-3.01-0.59-4.75c0.74-1.74,2.35-3.22,4.61-3.12c2.75,0.23,4.61,1.4,5.84,2.74
		s1.85,2.84,2.11,3.72c0.63,2.03,0.66,4.16,0.17,6.07s-1.49,3.62-2.93,4.78c-2.09,1.64-5.36,2.22-9.78,1.72
		c-4.42-0.49-10-2.05-16.7-4.67c-1.29-0.49-2.71-1-4.23-1.46c-1.52-0.47-3.14-0.9-4.82-1.25c-0.22-0.05-0.35-0.23-0.36-0.41
		c-0.01-0.19,0.08-0.38,0.3-0.46c2.91-1.05,6-2.2,8.93-3.36S544.39,548.2,546.72,547.13L546.72,547.13L546.72,547.13z
		 M247.12,515.41l0.1-0.04l0.1-0.04l2.6-14.61l2.6-14.61c0.06-0.34,0.33-0.52,0.6-0.53c0.28-0.01,0.56,0.14,0.65,0.47l3.93,14.64
		l3.93,14.64l10.6,3.84l10.6,3.84c0.39,0.14,0.59,0.49,0.59,0.84s-0.2,0.7-0.59,0.84l-10.6,3.84l-10.6,3.84L258.34,545l-3.28,12.63
		c-0.08,0.3-0.33,0.45-0.59,0.45c-0.25,0-0.51-0.15-0.59-0.45L250.6,545l-3.28-12.63l-10.72-3.89l-10.72-3.89
		c-0.35-0.13-0.52-0.44-0.52-0.75c0-0.31,0.17-0.62,0.52-0.75l10.62-3.85L247.12,515.41z M226.91,397.53
		c-0.06-0.06-0.2-0.15-0.32-0.22c-0.12-0.07-0.23-0.13-0.23-0.13l-9.61-3.5l-9.61-3.5c-0.62-0.23-0.93-0.77-0.93-1.32
		c0-0.55,0.31-1.1,0.93-1.32l9.83-3.56l9.83-3.56c0,0,0.04-0.01,0.08-0.03c0.04-0.02,0.08-0.04,0.1-0.06
		c0.02-0.02,0.03-0.06,0.04-0.1s0.01-0.07,0.01-0.07l2.7-15.15l2.7-15.15c0.03-0.18,0.18-0.28,0.33-0.29
		c0.15-0.01,0.3,0.08,0.35,0.26l4.02,14.97l4.02,14.97c0.05,0.18,0.14,0.35,0.27,0.48c0.12,0.14,0.28,0.24,0.46,0.31l9.81,3.56
		l9.81,3.56c0.56,0.2,0.84,0.7,0.84,1.2c0,0.5-0.28,1-0.84,1.2l-10,3.64l-10,3.64c0,0-0.03,0.01-0.07,0.03s-0.08,0.04-0.09,0.06
		c-0.03,0.03-0.05,0.1-0.07,0.16c-0.02,0.06-0.04,0.12-0.04,0.12l-3.06,11.76l-3.06,11.76c-0.13,0.49-0.54,0.74-0.95,0.74
		s-0.82-0.25-0.95-0.74l-2.92-11.22l-2.92-11.22c0,0-0.05-0.25-0.13-0.54C227.14,397.98,227.03,397.66,226.91,397.53z
		 M264.29,285.65l2.98,11.17l2.98,11.17c0.06,0.21,0.16,0.4,0.31,0.56c0.14,0.16,0.33,0.28,0.53,0.35l8.54,3.1l8.54,3.1
		c0.17,0.06,0.26,0.21,0.26,0.36s-0.09,0.3-0.26,0.36l-8.65,3.14l-8.65,3.14c-0.14,0.05-0.26,0.14-0.35,0.24
		c-0.09,0.11-0.15,0.24-0.18,0.39l-3.19,18.38l-3.19,18.38c-0.03,0.2-0.2,0.3-0.36,0.29c-0.16,0-0.32-0.11-0.34-0.31l-2.08-18.28
		l-2.08-18.28c-0.02-0.2-0.1-0.38-0.22-0.53s-0.28-0.27-0.46-0.33l-8.23-2.99l-8.23-2.99c-0.28-0.1-0.42-0.35-0.42-0.6
		c0-0.25,0.14-0.5,0.42-0.6l8.18-2.98l8.18-2.98c0.23-0.08,0.43-0.22,0.58-0.4s0.26-0.4,0.3-0.64l1.98-11.08l1.98-11.08
		c0.05-0.3,0.3-0.47,0.55-0.48S264.21,285.35,264.29,285.65z M406.31,620.74c-0.35-0.76-0.82-1.44-1.37-2.06
		c-0.54-0.62-1.16-1.19-1.8-1.72c-0.18-0.15-0.21-0.36-0.14-0.54c0.07-0.17,0.24-0.31,0.47-0.29c1.85,0.12,3.7,0.12,5.56,0.01
		c1.86-0.11,3.74-0.33,5.63-0.66c0.17-0.03,0.3,0.06,0.35,0.18c0.05,0.12,0.03,0.28-0.11,0.37c-1.23,0.84-2.48,1.68-3.77,2.52
		c-1.29,0.85-2.61,1.69-3.96,2.54c-0.1,0.06-0.29,0.03-0.47-0.05C406.54,620.97,406.37,620.85,406.31,620.74z M373.43,635.82
		c-0.64-1.38-2.39-2.74-4.34-4.12s-4.09-2.77-5.52-4.23c-0.07-0.08-0.07-0.17-0.02-0.24c0.05-0.07,0.14-0.11,0.24-0.07
		c3.66,1.38,7.41,2.43,11.21,3.14c3.81,0.71,7.68,1.08,11.58,1.11c0.12,0,0.2,0.08,0.22,0.18s-0.02,0.2-0.13,0.25
		c-1.98,0.85-3.99,1.65-6.02,2.39c-2.04,0.74-4.1,1.43-6.2,2.06c-0.2,0.06-0.41,0.04-0.6-0.05
		C373.68,636.15,373.52,636,373.43,635.82z M304.95,453.4l-11.69-2.88l-11.69-2.88c-0.44-0.11-0.65-0.47-0.65-0.84
		c0.01-0.36,0.23-0.72,0.67-0.82l11.85-2.56l11.85-2.56c0.16-0.03,0.3-0.12,0.4-0.23s0.18-0.26,0.2-0.42l2.68-19.7l2.68-19.7
		c0.03-0.25,0.23-0.37,0.43-0.37c0.2,0,0.39,0.13,0.42,0.38l2.17,19.65l2.17,19.65c0,0-0.01,0.12,0,0.26c0,0.14,0.02,0.29,0.07,0.35
		c0.05,0.06,0.21,0.1,0.35,0.12c0.14,0.02,0.27,0.03,0.27,0.03l11.58,2.72l11.58,2.72c0.44,0.1,0.66,0.47,0.66,0.83
		c0,0.37-0.22,0.73-0.66,0.83l-11.45,2.67l-11.45,2.67c0,0-0.14,0.04-0.3,0.09s-0.34,0.13-0.41,0.21c-0.06,0.07-0.13,0.21-0.18,0.34
		c-0.05,0.13-0.08,0.24-0.08,0.24l-2.41,20.52l-2.41,20.52c-0.03,0.28-0.25,0.41-0.46,0.41c-0.22,0-0.43-0.14-0.46-0.41l-2.4-20.42
		l-2.4-20.42c-0.03-0.26-0.14-0.49-0.3-0.68C305.42,453.6,305.2,453.46,304.95,453.4z M347.72,386.95
		c-3.45,1.94-6.88,3.04-10.38,3.37s-7.05-0.1-10.75-1.24c-0.12-0.04-0.2-0.13-0.22-0.24s0.01-0.23,0.11-0.32
		c0.62-0.56,1.11-1.21,1.46-1.93c0.35-0.72,0.55-1.5,0.6-2.33c0.01-0.1,0.04-0.19,0.09-0.26c0.06-0.07,0.13-0.12,0.23-0.14
		c4.38-0.92,9.64-3.17,13.09-6.08c3.45-2.91,5.1-6.49,2.27-10.04c-0.1-0.12-0.14-0.27-0.12-0.4s0.08-0.27,0.21-0.36
		c0.3-0.22,0.6-0.45,0.9-0.69c0.3-0.24,0.6-0.49,0.89-0.76c0.15-0.13,0.33-0.16,0.49-0.1s0.28,0.19,0.31,0.39
		c0.39,3.15,1.03,6.38,1.82,9.57c0.79,3.2,1.71,6.36,2.66,9.38c0.06,0.18,0.03,0.37-0.07,0.52s-0.25,0.26-0.44,0.28
		c-0.54,0.08-1.04,0.25-1.55,0.49C348.82,386.3,348.3,386.6,347.72,386.95L347.72,386.95L347.72,386.95z M334.03,556.75l-10.01-3.65
		L314,549.45c-0.46-0.17-0.69-0.58-0.69-0.99c0-0.41,0.23-0.82,0.69-0.99l10.21-3.7l10.21-3.7c0.11-0.04,0.21-0.11,0.29-0.19
		c0.08-0.08,0.13-0.19,0.16-0.3l3.02-11.61l3.02-11.61c0.14-0.52,0.58-0.79,1.02-0.79s0.88,0.26,1.02,0.79l3.02,11.61l3.02,11.61
		c0.03,0.11,0.09,0.21,0.16,0.3s0.17,0.15,0.28,0.19l10.23,3.71l10.23,3.71c0.46,0.17,0.69,0.58,0.69,0.99
		c0,0.41-0.23,0.82-0.69,0.99l-10.3,3.75l-10.3,3.75c-0.07,0.02-0.13,0.07-0.17,0.12c-0.05,0.05-0.08,0.11-0.1,0.18L346,568.93
		l-3.04,11.68c-0.14,0.52-0.58,0.79-1.02,0.79c-0.44,0-0.88-0.26-1.02-0.78l-2.99-11.46l-2.99-11.46l-0.46-0.47L334.03,556.75z
		 M445.67,525.57c0.33-0.32,0.7-0.71,1.12-1.18c0.41-0.47,0.88-1.02,1.4-1.66c0.05-0.07,0.13-0.09,0.21-0.07
		c0.07,0.01,0.13,0.07,0.15,0.15c0.29,1.55,0.61,3.22,1,4.93c0.39,1.72,0.84,3.49,1.36,5.27c0.05,0.17,0.05,0.34,0.02,0.51
		c-0.04,0.17-0.11,0.32-0.23,0.46c-0.15,0.18-0.3,0.37-0.46,0.56c-0.16,0.2-0.33,0.4-0.5,0.62c-4.17,4.81-8.12,7.74-12.57,9.18
		c-4.45,1.43-9.39,1.36-15.52,0.17c-0.27-0.05-0.48-0.22-0.6-0.44c-0.12-0.22-0.15-0.49-0.05-0.74c0.91-2.28,1.76-5.77,1.84-9.03
		c0.08-3.26-0.61-6.31-2.8-7.71c-1.13-0.72-5.68,0.28-10.76,1.45s-10.67,2.51-13.88,2.45c-3.14-0.07-6.53-0.32-10.07-0.74
		s-7.24-0.99-11.02-1.72c-0.2-0.04-0.36-0.17-0.44-0.34c-0.08-0.17-0.08-0.37,0.02-0.55c0.6-1.02,0.87-2.18,0.84-3.34
		c-0.04-1.16-0.38-2.32-1-3.34c-0.08-0.14-0.08-0.29-0.02-0.41s0.18-0.21,0.34-0.21c5.54-0.21,10.4-1.55,15.03-3.5
		c4.64-1.96,9.05-4.54,13.69-7.25c1.26-0.71,2.09-1.88,2.39-3.18c0.3-1.29,0.06-2.71-0.82-3.89c-0.82-1.12-2.42-1.72-4.28-2.28
		c-1.86-0.55-3.99-1.06-5.89-1.99c-0.34-0.17-0.49-0.5-0.47-0.81s0.22-0.62,0.58-0.72c8.06-2.4,14.06-7.24,18.03-13.5
		c3.98-6.26,5.94-13.93,5.91-21.98c0-0.34,0.2-0.6,0.46-0.72c0.26-0.12,0.59-0.09,0.84,0.14c2.39,2.21,4.58,4.16,6.56,5.89
		c1.98,1.73,3.76,3.25,5.34,4.6c2.77,2.39,4.93,4.23,6.5,5.79c1.57,1.55,2.57,2.81,3.03,4.04c0.34,0.9,0.36,2.35,0.22,4.16
		c-0.15,1.81-0.46,3.97-0.79,6.28c-0.54,3.69-1.15,7.97-1.45,12.79s-0.29,10.2,0.42,16.06c0.19,1.64,0.43,4.41,1.29,6.12
		C441.51,527.58,442.99,528.21,445.67,525.57L445.67,525.57L445.67,525.57z M430.04,424.36c0.76,3.71,0.99,6.96,1.23,10.14
		c0.24,3.18,0.49,6.28,1.3,9.71c0.03,0.11-0.03,0.19-0.11,0.23s-0.18,0.02-0.24-0.07c-2.7-4.22-4.69-8.11-5.44-11.7
		c-0.75-3.6-0.25-6.92,2.03-10.01c0.12-0.16,0.35-0.14,0.56-0.09s0.38,0.15,0.38,0.15l0.15,0.83L430.04,424.36z M392.75,417.45
		c-1.34,2.73-2.28,4.67-2.81,6.18c-0.53,1.5-0.66,2.58-0.37,3.57c1.35,4.42,4.24,8.36,7.65,11.97s7.33,6.89,10.73,10
		c0.13,0.12,0.14,0.48,0.08,0.85s-0.19,0.77-0.36,0.95c-3.26,3.53-5.65,6.47-8.51,8.39c-2.86,1.91-6.19,2.8-11.33,2.23
		c-0.45-0.05-0.82-0.32-1.03-0.67s-0.26-0.81-0.09-1.23c1.12-2.73,1.55-4.99,1.28-6.82c-0.27-1.83-1.24-3.23-2.89-4.22
		c-2.13-1.22-5.49-0.71-9.11,0.26c-3.62,0.97-7.49,2.39-10.63,3c-0.36,0.07-0.7-0.04-0.95-0.27s-0.39-0.55-0.36-0.92
		c0.62-6.59,1.85-10.67,4.17-14.1c2.32-3.42,5.73-6.19,10.71-10.14c1.84-1.44,3.89-3.05,6.18-4.91s4.83-3.96,7.64-6.35
		c0.29-0.25,0.59-0.31,0.77-0.22c0.18,0.09,0.25,0.32,0.1,0.64c-0.15,0.31-0.29,0.62-0.44,0.92
		C393.04,416.84,392.89,417.15,392.75,417.45L392.75,417.45L392.75,417.45z M284.4,596.1c0,0,0.15-0.02,0.33-0.07
		c0.17-0.05,0.37-0.11,0.45-0.19c0.05-0.05,0.11-0.18,0.16-0.29s0.07-0.21,0.07-0.21l2.58-15.52l2.58-15.52
		c0.05-0.27,0.27-0.4,0.48-0.39c0.21,0.01,0.42,0.16,0.44,0.43l1.19,15.71l1.19,15.71c0,0.06,0.03,0.12,0.07,0.16
		c0.04,0.04,0.09,0.07,0.15,0.09l13.02,2.9l13.02,2.9c0.25,0.06,0.37,0.27,0.36,0.47c-0.01,0.21-0.15,0.41-0.4,0.44l-12.65,1.71
		l-12.65,1.71c0,0-0.16,0.02-0.34,0.07c-0.18,0.04-0.38,0.11-0.46,0.19c-0.04,0.05-0.09,0.15-0.13,0.24
		c-0.03,0.09-0.06,0.17-0.06,0.17l-2.23,12.53l-2.23,12.53c-0.05,0.26-0.26,0.39-0.47,0.38c-0.21-0.01-0.42-0.14-0.45-0.41
		l-1.51-12.41l-1.51-12.41c-0.03-0.21-0.12-0.41-0.26-0.56c-0.14-0.15-0.33-0.26-0.54-0.3l-11.67-2.28l-11.67-2.28
		c-0.25-0.05-0.38-0.25-0.38-0.46s0.13-0.41,0.38-0.46l11.58-2.29L284.4,596.1z M442.3,593.03c-0.23,0.21-0.46,0.43-0.69,0.65
		c-0.23,0.22-0.46,0.44-0.69,0.65c-3.46-1.11-5.5-1.66-7.39-2.56s-3.63-2.13-6.5-4.59c9.52-1.16,17.65-5.35,23.77-11.58
		s10.2-14.5,11.63-23.8c0.02-0.13,0.09-0.22,0.19-0.27s0.22-0.06,0.34,0c1.55,0.75,3.89,1.51,5.94,1.58
		c2.05,0.07,3.81-0.56,4.21-2.58c0.77-3.84-0.01-8.02-1.54-12.33s-3.82-8.75-6.07-13.13c-1.28-2.49-2.59-5.02-3.71-7.47
		s-2.07-4.84-2.65-7.05c-0.03-0.13,0.01-0.24,0.09-0.32c0.08-0.08,0.2-0.12,0.33-0.09c0.57,0.15,1.16,0.28,1.88,0.39
		c0.72,0.11,1.56,0.21,2.61,0.29l0.79,0.06l0.79,0.06c0.41,0.03,0.79-0.12,1.06-0.37c0.28-0.26,0.45-0.62,0.45-1.03v-0.79v-0.79
		c0-4.68-1.08-9.93-2.98-15.09c-1.9-5.16-4.62-10.21-7.9-14.49c-0.17-0.22-0.3-0.45-0.4-0.7c-0.1-0.25-0.16-0.52-0.18-0.79
		l-0.68-8.81l-0.68-8.81l-0.41-4.96l-0.41-4.96c-0.02-0.26,0-0.51,0.05-0.76c0.05-0.25,0.14-0.49,0.25-0.72
		c1-2.1,1.51-4.68,1.76-7.67c0.25-2.99,0.25-6.39,0.25-10.13c0-3.61-0.01-7.61,0.22-11.83c0.23-4.21,0.71-8.64,1.67-13.1
		c0.09-0.41,0.31-0.78,0.61-1.05c0.3-0.28,0.68-0.46,1.1-0.52c1.76-0.24,3.17-0.6,4.43-1.01c1.26-0.41,2.37-0.88,3.51-1.35
		c0.79-0.33,1.59-0.66,2.47-0.98c0.88-0.32,1.85-0.63,2.97-0.93c0.1-0.03,0.2-0.04,0.3-0.04s0.2,0.01,0.3,0.03
		c5.15,1.1,9.61,0.3,13.87-1.54s8.33-4.74,12.69-7.85c1.35-0.96,2.76-1.96,4.23-2.97c1.47-1.01,3.02-2.04,4.64-3.05
		c0.3-0.19,0.65-0.14,0.89,0.05c0.24,0.19,0.38,0.5,0.27,0.84c-2.41,7.49-7.92,18.67-13.57,28.45
		c-5.66,9.78-11.47,18.16-14.51,20.06l-0.33,0.12l-0.33,0.12c-0.34,0.12-0.63,0.35-0.82,0.63s-0.31,0.63-0.31,0.99l0.01,0.53
		l0.01,0.53c0,0.33-0.1,0.64-0.27,0.9s-0.43,0.46-0.74,0.56c-3.99,1.29-8.5,4.54-12.29,8.41c-3.79,3.87-6.87,8.35-7.99,12.09
		c-2.44,8.05,0.44,9.56,4.74,8.48s10.01-4.73,13.21-7.01c0.19-0.14,0.41-0.11,0.56,0.01s0.23,0.33,0.14,0.55
		c-0.55,1.41-1.03,2.84-1.44,4.29c-0.41,1.45-0.75,2.92-1.03,4.41c-2.47,13.32,0.63,28.62,8.82,40.73
		c8.19,12.12,21.47,21.05,39.35,21.64c8.86,0,16.74-4.53,21.28-10.95c4.54-6.42,5.73-14.72,1.22-22.27
		c-1.45-1.82-3.16-1.92-4.54-1.06c-1.39,0.86-2.46,2.68-2.65,4.73c-0.23,2.48-1.35,4.4-2.88,5.77c-1.54,1.36-3.49,2.16-5.38,2.41
		c-0.9,0.11-2.9,0.21-5.03-0.7s-4.39-2.82-5.8-6.72c-2.24-7.89,0.56-15.21,6.13-18.9c5.56-3.68,13.88-3.73,22.69,2.92
		c7.84,5.92,8.74,14.69,6.01,23.29c-2.73,8.6-9.09,17.05-15.77,22.34c-12.51,9.99-26.59,15.84-42.52,23.88
		C480,564.06,462.22,574.28,442.3,593.03L442.3,593.03L442.3,593.03z M568.27,367.49c-3.48,1.15-6.63,2.85-9.43,5.08
		s-5.25,5.01-7.33,8.29c-2.01,3.21-3.48,6.5-4.44,9.99s-1.41,7.18-1.37,11.19c0.05,5.5,1.44,10.74,3.6,15.7
		c2.17,4.96,5.12,9.62,8.33,13.95c0.14,0.18,0.11,0.39-0.01,0.53c-0.11,0.14-0.31,0.21-0.52,0.12c-8.33-3.75-17.6-5.67-26.89-5.65
		s-18.6,1.98-27.03,5.98c-0.17,0.08-0.33,0.03-0.42-0.08s-0.12-0.27-0.02-0.42c1.47-2.09,3.01-4.44,4.61-6.95
		c1.6-2.51,3.25-5.17,4.94-7.89c1.72-2.77,3.48-5.6,5.23-8.33c1.75-2.73,3.48-5.37,5.14-7.76c1.54-2.19,2.99-4.39,4.35-6.54
		c1.36-2.16,2.64-4.27,3.84-6.29c0.11-0.19,0.32-0.25,0.5-0.21c0.18,0.05,0.33,0.2,0.35,0.42c0.15,2.08,0.45,4.27,0.97,6.56
		s1.25,4.67,2.24,7.14c0.34,0.86,0.98,1.54,1.75,1.95s1.69,0.57,2.61,0.38c0.9-0.19,1.67-0.7,2.22-1.39
		c0.55-0.69,0.86-1.57,0.84-2.51c-0.23-6.9-0.22-12.8,1.14-18.28s4.07-10.53,9.23-15.73c3.86-3.82,8.46-6.85,13.27-8.87
		c4.81-2.02,9.84-3.03,14.59-2.82c9.26,0.4,16.41,4.03,21.25,9.12c4.84,5.09,7.38,11.63,7.41,17.86c0,1.52-0.14,3.07-0.45,4.61
		c-0.31,1.54-0.78,3.06-1.42,4.55c-0.09,0.2-0.27,0.27-0.44,0.24c-0.17-0.03-0.32-0.16-0.33-0.37c-0.37-8.98-5.63-16.28-12.95-20.62
		C586.28,366.07,576.89,364.67,568.27,367.49L568.27,367.49L568.27,367.49z M197.52,515.58l-2.12-16.86l-2.12-16.86
		c-0.02-0.14-0.08-0.27-0.17-0.36c-0.09-0.1-0.21-0.17-0.35-0.19l-13.29-2.54l-13.29-2.54c-0.48-0.09-0.72-0.48-0.72-0.87
		s0.24-0.78,0.72-0.87l13.24-2.54l13.24-2.54c0.18-0.03,0.34-0.12,0.45-0.25s0.2-0.29,0.22-0.47l1.84-15.72l1.84-15.72
		c0.05-0.43,0.38-0.65,0.72-0.65s0.68,0.2,0.74,0.63l2.4,15.95l2.4,15.95c0.01,0.06,0.04,0.12,0.08,0.16
		c0.04,0.04,0.1,0.07,0.16,0.09l13.12,2.43l13.12,2.43c0.43,0.08,0.64,0.42,0.65,0.77c0,0.35-0.2,0.7-0.63,0.79l-12.87,2.72
		l-12.87,2.72c-0.16,0.03-0.3,0.12-0.41,0.23s-0.18,0.26-0.21,0.42l-2.59,16.87l-2.59,16.87c-0.03,0.21-0.2,0.31-0.36,0.31
		S197.54,515.79,197.52,515.58z M178.96,570.95c0.07-0.08,0.13-0.28,0.17-0.46c0.04-0.18,0.07-0.34,0.07-0.34l1.67-9.4l1.67-9.4
		c0.06-0.35,0.34-0.54,0.63-0.55c0.29-0.01,0.58,0.15,0.67,0.49l2.56,9.61l2.56,9.61c0.04,0.14,0.11,0.27,0.21,0.38
		c0.1,0.11,0.22,0.19,0.36,0.24l7.24,2.63l7.24,2.63c0.29,0.11,0.44,0.37,0.44,0.63c0,0.26-0.15,0.52-0.44,0.63l-7.2,2.6l-7.2,2.6
		c0,0-0.1,0.04-0.22,0.09c-0.12,0.05-0.24,0.11-0.29,0.17c-0.04,0.05-0.08,0.16-0.1,0.26c-0.03,0.1-0.04,0.19-0.04,0.19l-2.12,8.2
		l-2.12,8.2c-0.09,0.33-0.36,0.5-0.64,0.5s-0.56-0.17-0.64-0.5l-2.11-8.15l-2.11-8.15c-0.05-0.18-0.14-0.35-0.26-0.49
		c-0.12-0.14-0.28-0.24-0.46-0.31l-7.17-2.6l-7.17-2.6c-0.29-0.11-0.44-0.37-0.44-0.63c0-0.26,0.15-0.52,0.44-0.63l6.98-2.53
		l6.98-2.53c0,0,0.18-0.05,0.37-0.12C178.66,571.14,178.88,571.05,178.96,570.95z M550.59,275.34c-6.66,5.12-10.2,11.49-11.43,17.91
		c-1.23,6.42-0.16,12.88,2.4,18.17c3.08,6.34,8.55,11.28,14.77,13.88c6.22,2.59,13.2,2.84,19.28-0.2
		c5.95-2.98,9.69-8.47,10.69-14.08s-0.73-11.37-5.72-14.89c-1.65-1.09-4.89-2.33-7.73-2.52s-5.29,0.68-5.35,3.82
		c-0.08,2.66,0.96,2.76,2.29,2.87s2.96,0.21,4.07,2.87c2.2,5.31-1.11,8.44-5.44,8.89c-4.33,0.45-9.68-1.76-11.55-7.13
		c-2.72-7.91,3.42-15.32,12.45-16.49c9.03-1.17,20.95,3.89,29.79,20.92c4.11,7.93,7.29,16.98,9.58,25.65
		c2.29,8.67,3.7,16.97,4.27,23.39c-6.08-7.78-14.54-12.65-23.74-14.73c-9.2-2.08-19.14-1.36-28.19,2.04
		c-4.11,1.52-7.91,3.51-11.31,5.9c-3.41,2.39-6.42,5.18-8.98,8.32c-0.13,0.16-0.31,0.2-0.47,0.16c-0.16-0.04-0.3-0.17-0.34-0.37
		c-0.32-1.64-0.83-3.17-1.53-4.53c-0.7-1.36-1.6-2.57-2.69-3.55c-1.74-1.57-4.4-1.92-7.49-1.67c-3.09,0.25-6.61,1.1-10.07,1.94
		c-0.33,0.08-0.68,0.16-1.04,0.25c-0.36,0.09-0.72,0.18-1.09,0.26c-0.32,0.08-0.61-0.05-0.78-0.27c-0.17-0.22-0.23-0.53-0.09-0.83
		c1.83-3.95,3-8.2,3.88-12.52c0.88-4.32,1.47-8.72,2.14-12.97c1.47-9.02,0.34-17.15-2.23-24.75c-2.57-7.59-6.57-14.65-10.83-21.51
		c-0.05-0.08-0.03-0.17,0.02-0.23c0.05-0.06,0.14-0.09,0.23-0.05c3.86,1.66,7.88,2.18,11.81,1.57c3.94-0.61,7.79-2.35,11.34-5.23
		c3.85-3.11,6.87-7.55,8.05-12.34s0.54-9.93-2.97-14.46c-1.26-1.62-2.8-2.93-4.54-3.89c-1.74-0.96-3.67-1.56-5.72-1.77
		c-1.95-0.21-5.41,0.2-8.04,1.37c-2.63,1.17-4.41,3.09-3.02,5.9c1.19,2.41,2.87,2.19,4.84,1.82s4.21-0.88,6.53,0.93
		c0.59,0.44,1.03,0.96,1.33,1.54c0.3,0.59,0.45,1.25,0.47,1.97c0,1.24-0.38,2.62-1.05,3.92c-0.66,1.3-1.61,2.52-2.74,3.46
		c-1.65,1.36-3.54,1.98-5.44,1.87s-3.82-0.94-5.5-2.48c-2.74-2.56-3.71-5.69-3.53-8.78c0.18-3.09,1.52-6.12,3.42-8.49
		c3.08-3.82,8.13-6.79,14.83-7.15c6.7-0.36,15.04,1.9,24.7,8.53c4.05,2.81,8.03,6.07,11.8,9.54c3.78,3.48,7.36,7.17,10.64,10.84
		c0.25,0.28,0.26,0.64,0.11,0.92c-0.15,0.28-0.45,0.47-0.82,0.43c-4.34-0.54-8.6-0.41-12.68,0.54S554.19,272.59,550.59,275.34
		L550.59,275.34L550.59,275.34z M292.69,253.78l-2.86-13.29l-2.86-13.29c-0.09-0.41-0.06-0.83,0.06-1.22
		c0.13-0.39,0.35-0.74,0.67-1.02l10.21-9.08l10.21-9.08c1.42-1.26,2.4-2.89,2.88-4.64c0.48-1.76,0.46-3.65-0.13-5.45
		c-0.18-0.6-0.43-1.16-0.73-1.7s-0.64-1.03-1.03-1.5c-0.07-0.09-0.07-0.2-0.02-0.27s0.15-0.12,0.26-0.08l8.34,3.04l8.34,3.04
		c0.3,0.11,0.56,0.28,0.76,0.51c0.21,0.23,0.36,0.5,0.44,0.81l3.99,15.28l3.99,15.28c0.14,0.53,0.59,0.8,1.03,0.8
		c0.45,0,0.89-0.27,1.03-0.8l3.92-15.09l3.92-15.09c0.11-0.42,0.32-0.79,0.61-1.1c0.29-0.3,0.66-0.53,1.07-0.65l13.08-3.87
		l13.08-3.87c0.14-0.04,0.29-0.03,0.41,0.03c0.12,0.06,0.22,0.16,0.28,0.3c1.13,2.85,2.73,6,4.74,8.81s4.45,5.27,7.25,6.75
		c0.19,0.1,0.34,0.25,0.43,0.43c0.09,0.18,0.14,0.38,0.11,0.6l-4.45,31.68l-4.45,31.68l-20.43,5.35l-20.43,5.35
		c-0.54,0.14-0.8,0.6-0.79,1.05c0.01,0.45,0.3,0.89,0.84,1.01l21.17,4.36l21.17,4.36l3.39,16.53l3.39,16.53
		c-6,1.84-11.88,4.01-17.21,6.63c-5.33,2.62-10.1,5.7-13.88,9.34c-0.13,0.13-0.3,0.15-0.44,0.09s-0.25-0.19-0.25-0.37
		c-0.05-1.63-0.1-3.17-0.61-4.43c-0.52-1.26-1.51-2.23-3.45-2.74c-1.66-0.44-2.82-0.26-3.86,0.4c-1.04,0.65-1.97,1.78-3.18,3.23
		c-0.87,1.15-1.76,2.32-2.78,3.28c-1.02,0.96-2.19,1.72-3.64,2.05c-0.21,0.05-0.42-0.01-0.58-0.13c-0.15-0.12-0.25-0.31-0.24-0.53
		c0.09-1.94,0.18-3.77-0.3-5.27c-0.48-1.5-1.55-2.68-3.79-3.33c-1.49-0.42-3.88,0.7-6.8,1.89s-6.35,2.47-9.92,2.35
		c-1.11-0.05-2.24-0.17-3.38-0.37s-2.3-0.47-3.46-0.81c-0.13-0.04-0.2-0.15-0.21-0.26c-0.01-0.11,0.04-0.23,0.16-0.28
		c2.31-1.04,6.7-3.09,9.93-5.6c3.23-2.51,5.31-5.48,2.98-8.37c-0.16-0.2-0.25-0.45-0.25-0.69s0.07-0.49,0.23-0.7
		c2.27-2.99,4.07-8.38,4.45-13.33c0.38-4.94-0.64-9.43-4.02-10.61c-4.53-1.47-9.94,0.87-15.97,1.47s-12.69-0.55-19.73-9
		c-3.05-3.66-5.97-8.67-8.52-13.95c-2.55-5.28-4.73-10.84-6.3-15.58c-0.04-0.11,0.09-0.31,0.28-0.44s0.46-0.2,0.7-0.05
		c1.75,1.07,3.82,2.38,5.89,3.43c2.07,1.05,4.14,1.83,5.89,1.83c3.04,0,5.71-1.4,7.46-3.56S293.35,256.79,292.69,253.78
		L292.69,253.78L292.69,253.78z M237.29,215.3l-4.52-4.04l-4.52-4.04c-0.06-0.06-0.08-0.14-0.05-0.2c0.02-0.07,0.08-0.12,0.16-0.13
		l6.1-0.63l6.1-0.63c1.7-0.17,3.29-0.79,4.63-1.76c1.34-0.97,2.43-2.29,3.14-3.86l2.25-5.02l2.25-5.02c0.14-0.3,0.42-0.46,0.71-0.46
		s0.57,0.15,0.71,0.46l2.25,5.02l2.25,5.02c0.71,1.57,1.8,2.89,3.14,3.86c1.34,0.97,2.93,1.59,4.63,1.76l5.47,0.56l5.47,0.56
		c0.32,0.03,0.55,0.25,0.63,0.51c0.08,0.26,0.03,0.57-0.21,0.79l-4.06,3.62l-4.06,3.62c-1.28,1.15-2.21,2.59-2.73,4.17
		c-0.52,1.58-0.62,3.3-0.26,5l1.21,5.66l1.21,5.66c0.04,0.2-0.04,0.37-0.18,0.47s-0.33,0.13-0.51,0.03l-5.11-2.93l-5.11-2.93
		c-1.47-0.84-3.12-1.26-4.76-1.26s-3.29,0.42-4.76,1.26l-5.28,3.02l-5.28,3.02c-0.1,0.06-0.22,0.04-0.3-0.02s-0.13-0.16-0.11-0.28
		l1.26-5.85l1.26-5.85c0.36-1.7,0.26-3.42-0.26-5S238.57,216.44,237.29,215.3L237.29,215.3L237.29,215.3z M571.71,197.98
		c-21.05-21.56-44.7-39.5-70.23-53.53c-25.53-14.03-52.94-24.14-81.5-30.04c-0.57-0.12-1.07-0.43-1.41-0.85
		c-0.35-0.43-0.55-0.97-0.55-1.55v-10.19V91.61c0-2.64-1.17-5.09-3.17-7.12c-2-2.03-4.83-3.64-8.15-4.6
		c-0.47-0.14-0.8-0.47-0.97-0.87c-0.16-0.4-0.15-0.88,0.09-1.3c2.1-3.76,3.75-7.81,4.86-12.07c1.12-4.26,1.71-8.74,1.71-13.35
		c0-7.2-1.46-14.08-4.11-20.34c-2.65-6.26-6.49-11.9-11.23-16.62c-4.73-4.72-10.37-8.55-16.64-11.2S367.21,0,359.96,0
		c-7.21,0-14.1,1.47-20.37,4.12s-11.91,6.48-16.63,11.2c-4.74,4.72-8.59,10.36-11.25,16.62s-4.13,13.14-4.13,20.34
		c0,4.78,0.65,9.41,1.85,13.81s2.98,8.57,5.22,12.42c0.13,0.23,0.14,0.48,0.04,0.69c-0.09,0.21-0.28,0.38-0.53,0.45
		c-3.54,0.89-6.59,2.5-8.74,4.58s-3.43,4.62-3.43,7.38v10.47v10.47c0,0.42-0.15,0.82-0.4,1.13s-0.61,0.53-1.02,0.62
		c-28.67,5.86-56.18,15.97-81.81,30.02c-25.63,14.05-49.37,32.04-70.51,53.66c-28.24,28.88-50.13,62.51-64.97,99.13
		s-22.61,76.23-22.61,117.05s7.78,80.43,22.61,117.05c14.84,36.62,36.73,70.27,64.97,99.16c28.26,28.89,61.19,51.3,97.06,66.48
		C281.18,712.04,319.98,720,359.96,720c40.02,0,78.84-7.96,114.71-23.14c35.87-15.18,68.8-37.59,97.04-66.48
		c28.26-28.89,50.16-62.54,65-99.16c14.84-36.62,22.62-76.23,22.62-117.05c0-40.84-7.78-80.44-22.62-117.06
		S599.97,226.86,571.71,197.98L571.71,197.98L571.71,197.98z"/>
</g>
</svg>
