<?xml version="1.0" encoding="utf-8"?>
<!-- Generator: Adobe Illustrator 24.3.0, SVG Export Plug-In . SVG Version: 6.00 Build 0)  -->
<svg version="1.1" id="Слой_1" xmlns="http://www.w3.org/2000/svg" xmlns:xlink="http://www.w3.org/1999/xlink" x="0px" y="0px"
	 viewBox="0 0 720 720" style="enable-background:new 0 0 720 720;" xml:space="preserve">
<style type="text/css">
	.st0{fill-rule:evenodd;clip-rule:evenodd;}
</style>
<g>
	<path class="st0" d="M601.97,419.52c-1.82,0.09-3.28,3.09-4.35,6.82c-1.08,3.73-1.77,8.2-2.08,11.2
		c-0.32,3.26-0.71,7.87-1.36,11.58c-0.65,3.71-1.57,6.51-2.97,6.17c-1.77-0.44-3.9-4.06-5.37-10.8c-1.47-6.74-2.29-16.61-1.44-29.57
		c0.19-2.81,0.58-6.78,0.48-10.09c-0.1-3.32-0.69-5.98-2.46-6.16c-2.4-0.27-5.91,12.37-10.04,22.34
		c-4.13,9.97-8.89,17.28-13.79,6.33c-3.16-7.15-1.8-14.84,0.7-21.7c2.5-6.86,6.14-12.89,7.53-16.71c0.09-0.25,0.25-0.46,0.46-0.6
		c0.21-0.14,0.46-0.22,0.72-0.22c1.77,0.02,3.81-0.32,5.96-1.34c2.16-1.03,4.43-2.75,6.67-5.51c0.14-0.18,0.43-0.28,0.7-0.31
		c0.27-0.03,0.52,0.03,0.61,0.18c1.34,3.18,2.96,5.91,4.76,8.08c1.8,2.17,3.78,3.77,5.86,4.71c0.94,0.44,1.88,0.77,2.83,0.98
		c0.94,0.21,1.89,0.31,2.83,0.31c1.06,0,2.11-0.14,3.14-0.41c1.03-0.28,2.03-0.69,2.99-1.25c1.99-1.16,3.82-3.03,5.19-5.23
		c1.38-2.21,2.31-4.75,2.51-7.25c0.03-0.37,0.23-0.47,0.44-0.35c0.21,0.11,0.44,0.44,0.54,0.89c1.99,9.01,3.52,18.19,4.55,27.52
		c1.03,9.33,1.56,18.81,1.56,28.42c0,4.64-0.13,9.25-0.37,13.82c-0.25,4.57-0.61,9.11-1.09,13.62c-3.71,0.02-6.03-11.54-8.22-23
		C607.28,430.52,605.2,419.15,601.97,419.52L601.97,419.52L601.97,419.52z M401.31,81.63c-0.46,0.69-0.44,1.49-0.11,2.13
		c0.34,0.63,0.99,1.1,1.82,1.11c16.75,0.27,31.23-0.1,44.07-1.31c12.84-1.21,24.03-3.27,34.2-6.38
		c9.17-2.82,30.76-12.61,44.28-23.74c13.52-11.14,18.99-23.63-4.08-31.86c-8.17-2.92-18.4-3.89-29.3-3.02s-22.48,3.6-33.34,8.05
		c-10.55,4.34-19.96,9.98-27.96,16.71c-8,6.72-14.6,14.53-19.53,23.18l-5.02,7.56L401.31,81.63z M486.25,93.37
		c-9.8,3.01-20.36,5.13-32.15,6.49c-11.79,1.37-24.8,1.99-39.5,2.01c-0.22,0-0.35,0.16-0.37,0.33c-0.02,0.17,0.07,0.35,0.29,0.39
		c6.71,1.2,22.22,3.65,34.62,6.28c12.4,2.63,21.69,5.45,15.94,7.39c-1.79,0.61-10.15,1.03-20.11,1.34s-21.51,0.5-29.69,0.66
		c-0.31,0.01-0.5,0.23-0.54,0.47c-0.04,0.25,0.08,0.52,0.38,0.62c31.74,10.74,45.67,18.4,44.16,21.16
		c-1.5,2.76-18.44,0.61-48.42-8.26c-0.52-0.15-0.97,0.08-1.21,0.45c-0.24,0.37-0.26,0.88,0.1,1.28
		c10.54,11.78,32.44,24.43,55.14,33.28c22.7,8.85,46.2,13.91,59.95,10.53c5.06-1.24,9.33-3.4,12.87-6.52
		c3.54-3.12,6.35-7.21,8.48-12.31c0.94-2.24,0.88-4.61-0.22-8.12c-1.09-3.51-3.22-8.17-6.42-15.01c-1.6-3.43-3.39-7.29-5.32-11.65
		s-4-9.25-6.16-14.74c-2.19-5.54-2.7-11.66-2.2-17.98c0.5-6.32,2-12.84,3.85-19.16c0.08-0.29-0.03-0.55-0.23-0.7
		c-0.2-0.15-0.48-0.19-0.73-0.04c-2.95,1.85-10.08,6.23-18.22,10.68C502.42,86.7,493.26,91.23,486.25,93.37z M240.59,96.19
		c-5.89-1.55-11.46-3.44-16.83-5.73c-5.37-2.29-10.54-4.98-15.65-8.14c-0.85-0.53-1.82-0.44-2.53,0.03
		c-0.71,0.47-1.17,1.32-1.01,2.31c0.67,4.14,0.99,8.25,0.8,12.21s-0.9,7.8-2.3,11.39c-2.16,5.51-4.24,10.41-6.17,14.78
		c-1.94,4.38-3.73,8.24-5.33,11.67c-3.18,6.84-5.29,11.49-6.38,14.98c-1.09,3.5-1.14,5.84-0.23,8.07c2.04,4.9,4.71,8.81,8.03,11.77
		c3.33,2.96,7.32,4.98,12.02,6.08c15.88,3.74,37.31-2.63,57.83-12.07c20.52-9.44,40.13-21.96,52.38-30.55
		c0.23-0.16,0.26-0.42,0.16-0.62c-0.1-0.2-0.32-0.34-0.59-0.27c-27.95,7.69-30.74,5.53-25.4,0.81s18.84-12.01,23.46-14.56
		c0.19-0.11,0.24-0.3,0.19-0.47c-0.05-0.17-0.21-0.3-0.42-0.28c-11.08,1.07-21.59,1.57-29.35,1.55s-12.78-0.56-12.89-1.57
		c-0.17-1.72,6.93-4.46,15.58-7.17c8.66-2.71,18.87-5.4,24.92-7.02c0.45-0.12,0.64-0.51,0.6-0.88c-0.04-0.37-0.32-0.7-0.79-0.71
		c-7.24-0.14-20.73-0.5-34.43-1.34C262.56,99.64,248.66,98.3,240.59,96.19z M203.93,4.31c10.2-3.64,22.47-4.95,35.41-4.03
		c12.95,0.92,26.56,4.08,39.45,9.36c14.1,5.79,26.48,13.65,36.69,23.16s18.27,20.68,23.71,33.07c0.15,0.33,0.42,0.57,0.73,0.68
		c0.31,0.11,0.67,0.1,1-0.07c3.37-1.7,6.93-3.01,10.62-3.89c3.69-0.88,7.5-1.34,11.37-1.34c4.84,0,9.57,0.7,14.09,2.06
		c4.52,1.35,8.81,3.36,12.77,5.95c0.26,0.17,0.56,0.2,0.82,0.12c0.27-0.08,0.5-0.27,0.61-0.56c5.33-12.8,13.39-24.34,23.74-34.16
		s22.98-17.92,37.43-23.84c12.89-5.29,26.5-8.44,39.45-9.36c12.95-0.92,25.22,0.39,35.41,4.03c29.01,10.37,30.66,28.34,26.32,46.95
		s-14.65,37.86-9.57,50.78c2.06,5.24,4.05,9.92,5.92,14.13s3.6,7.94,5.15,11.27c3.54,7.6,6.48,13.91,7.93,19.77
		c1.45,5.86,1.42,11.28-0.98,17.09c-3.89,9.31-9.44,16.38-16.38,21.37c-6.94,4.99-15.27,7.91-24.71,8.91
		c-0.79,0.08-1.33,0.62-1.52,1.27c-0.19,0.65-0.03,1.4,0.57,1.92c2.53,2.18,4.95,4.53,7.23,7.09c2.28,2.56,4.42,5.33,6.37,8.34
		c4.68,3.62,9.24,7.39,13.68,11.29c4.44,3.9,8.75,7.94,12.94,12.11c25.6,25.54,46.32,55.95,60.64,89.72s22.24,70.89,22.26,109.86
		v0.17v0.17c-0.02,38.95-7.94,76.07-22.26,109.83s-35.04,64.17-60.64,89.71c-25.62,25.56-56.12,46.24-89.99,60.53
		c-33.87,14.3-71.1,22.2-110.19,22.2c-39.1,0-76.33-7.91-110.2-22.2c-33.87-14.3-64.36-34.98-89.98-60.53s-46.35-55.99-60.68-89.78
		c-14.33-33.79-22.25-70.94-22.25-109.93c0-39,7.92-76.16,22.25-109.96s35.06-64.23,60.68-89.79c8.18-8.17,16.86-15.83,25.99-22.95
		c9.13-7.11,18.71-13.68,28.68-19.65c0.35-0.21,0.45-0.58,0.37-0.89c-0.09-0.32-0.36-0.58-0.76-0.58c-2.15-0.02-4.3-0.13-6.43-0.37
		c-2.13-0.23-4.25-0.58-6.34-1.07c-7.52-1.73-13.99-4.96-19.36-9.63c-5.37-4.67-9.64-10.79-12.77-18.32
		c-2.42-5.8-2.46-11.2-1.02-17.06s4.37-12.15,7.89-19.74c1.55-3.33,3.29-7.08,5.15-11.31c1.87-4.23,3.87-8.94,5.94-14.19
		c1.87-4.78,1.38-11.33-0.16-18.36c-1.54-7.03-4.12-14.54-6.41-21.22c-4.46-12.96-5.86-24.91-2.54-34.92S189.46,9.48,203.93,4.31
		L203.93,4.31L203.93,4.31z M244.85,79.77c9.83,2.57,20.77,4.04,33.61,4.76c12.84,0.72,27.57,0.7,44.99,0.3
		c0.35-0.01,0.67-0.14,0.92-0.35c0.25-0.21,0.43-0.51,0.49-0.85v0l0,0c0.32-1.85,0.39-3.73,0.2-5.59c-0.18-1.85-0.63-3.68-1.34-5.42
		c-4.42-10.74-12.11-20.42-21.28-28.47s-19.82-14.49-30.14-18.72c-9-3.69-19.93-6.64-30.97-7.82c-11.04-1.18-22.19-0.6-31.64,2.79
		c-23.08,8.25-20.77,21.4-9.44,33.33S231.89,76.39,244.85,79.77L244.85,79.77L244.85,79.77z M177.47,433.77
		c-3.1,1.12-3.84,0.01-3.57-1.71s1.56-4.05,2.51-5.36c1.86-2.54,4.27-5.46,6.94-8.1s5.58-5.02,8.44-6.47
		c0.06-0.03,0.07-0.09,0.05-0.14c-0.02-0.05-0.07-0.09-0.13-0.07c-3.92,0.92-6.8,2.18-9.32,3.88c-2.52,1.7-4.67,3.82-7.14,6.46
		c-0.23,0.24-0.54,0.26-0.78,0.13c-0.24-0.13-0.4-0.4-0.32-0.72c0.96-3.65,2.6-7.18,4.96-10.2s5.46-5.55,9.32-7.21
		c0.2-0.09,0.27-0.28,0.23-0.45s-0.18-0.31-0.4-0.3c-1.3,0.08-2.77,0.25-4.13,0.24c-1.36-0.01-2.62-0.2-3.5-0.83
		c-0.26-0.19-0.58-0.27-0.89-0.26s-0.62,0.12-0.88,0.31c-3.08,2.25-5.65,3.97-7.86,4.85c-2.21,0.88-4.05,0.92-5.64-0.19
		c-0.14-0.09-0.26-0.19-0.38-0.29s-0.23-0.21-0.34-0.32c-0.19-0.2-0.43-0.34-0.69-0.41s-0.53-0.06-0.8,0.03
		c-0.36,0.12-0.73,0.24-1.1,0.36s-0.75,0.22-1.13,0.31c-0.29,0.07-0.53,0.27-0.69,0.52c-0.15,0.25-0.22,0.55-0.15,0.85
		c0.55,2.53,0.69,5.27,0.09,7.82c-0.6,2.55-1.94,4.89-4.35,6.62c-0.75,0.53-1.47,0.94-2.18,1.3c-0.71,0.37-1.41,0.7-2.12,1.08
		c-0.24,0.13-0.44,0.32-0.58,0.55c-0.14,0.23-0.21,0.49-0.21,0.77c0.04,1.72,0.39,4.4,0.83,6.92s0.97,4.89,1.39,6.01
		c0.97,2.57,0.71,3.82,0.04,4.83s-1.74,1.8-2.39,3.43c-2.75,6.85-2.71,11.69-0.65,15.6c2.06,3.92,6.14,6.92,11.45,10.1
		c0.14,0.09,0.3,0.05,0.4-0.04c0.1-0.09,0.15-0.24,0.07-0.39c-0.38-0.73-0.74-1.49-1.07-2.27c-0.32-0.78-0.61-1.58-0.84-2.38
		c-1.09-3.83-1.41-6.14-1.3-7.56c0.11-1.42,0.66-1.96,1.3-2.23c0.48-0.2,0.98-0.18,1.49,0.05c0.51,0.23,1.03,0.67,1.57,1.32
		c0.04,0.05,0.11,0.06,0.16,0.04c0.05-0.02,0.09-0.07,0.07-0.14c-0.26-1.7-0.38-3.47-0.37-5.08s0.16-3.07,0.42-4.16
		c0.16-0.7,0.49-2.19,1.05-3.46c0.56-1.27,1.36-2.32,2.45-2.14c0.15,0.03,0.29,0,0.42-0.06c0.12-0.06,0.23-0.17,0.29-0.3
		c0.26-0.54,0.57-1.07,0.94-1.59c0.37-0.52,0.8-1.03,1.28-1.53c1.41-1.39,3.4-2.69,5.33-3.49c1.93-0.8,3.81-1.12,5.02-0.56
		c0.43,0.2,0.76,0.51,0.97,0.88c0.22,0.37,0.32,0.82,0.29,1.29c-0.09,0.94-0.6,2.43-0.84,3.94c-0.24,1.5-0.22,3.02,0.77,3.99
		c1.45,1.42,4.65,1.18,8.11,0.32c3.46-0.86,7.18-2.34,9.68-3.42c0.43-0.19,0.7-0.56,0.78-0.97c0.08-0.41-0.04-0.86-0.37-1.2
		c-0.64-0.66-1.15-1.42-1.51-2.23c-0.35-0.81-0.56-1.69-0.58-2.6c-0.05-2.17,0.93-3.96,2.4-5.33s3.45-2.31,5.4-2.77
		c0.07-0.02,0.11-0.07,0.11-0.13s-0.04-0.11-0.11-0.12c-1.19-0.2-4.11-0.55-8.73-0.12S185.49,430.88,177.47,433.77z M214.79,429.08
		c0.29,0.02,0.56,0.14,0.77,0.33s0.35,0.45,0.39,0.76c0.05,0.29-0.01,0.58-0.15,0.82c-0.14,0.24-0.37,0.44-0.66,0.54
		c-0.68,0.27-1.42,0.45-2.19,0.59s-1.56,0.23-2.34,0.33c-1.41,0.17-3.06,0.38-4.44,0.97c-1.38,0.59-2.51,1.56-2.88,3.24
		c-0.24,1.04,0.09,1.81,0.67,2.42c0.58,0.61,1.43,1.06,2.23,1.45c1.38,0.63,2.69,0.73,4.02,0.55c1.33-0.18,2.67-0.64,4.12-1.13
		c1.24-0.41,2.58-0.86,4.02-1.15c1.44-0.29,2.98-0.42,4.63-0.18c4.46,0.61,7.92,1.09,10.77,1.29c2.86,0.2,5.12,0.12,7.2-0.37
		c1.62-0.41,2.53-1.08,3.06-1.97c0.53-0.89,0.69-2.01,0.79-3.3c0.26-3.77-1.7-5.86-4.44-7.02s-6.26-1.41-9.14-1.51
		c-1.92-0.03-4.94-0.12-7.9-0.11c-2.97,0-5.89,0.1-7.62,0.42c-0.32,0.05-0.65-0.02-0.91-0.18s-0.47-0.42-0.55-0.74
		c-0.09-0.32-0.05-0.65,0.08-0.92c0.13-0.27,0.36-0.49,0.67-0.61c2.18-0.86,4.32-1.56,6.41-2.09c2.08-0.54,4.12-0.92,6.09-1.13
		c0.27-0.03,0.46-0.21,0.52-0.43c0.06-0.22,0-0.47-0.21-0.63c-1.47-1.12-2.94-2.28-4.09-3.66c-1.15-1.38-1.98-2.98-2.17-4.96
		c-0.04-0.41-0.05-0.83-0.03-1.24c0.02-0.42,0.07-0.84,0.15-1.28c0.05-0.26-0.07-0.48-0.25-0.59s-0.43-0.13-0.64,0.03
		c-1.92,1.45-4.19,2.55-6.56,3.14c-2.37,0.59-4.84,0.67-7.17,0.08c0.6,1.31,0.93,2.49,1.11,3.69c0.18,1.2,0.2,2.43,0.19,3.82
		c1.4,1.16,2.2,1.84,2.64,2.33s0.53,0.81,0.49,1.24l-0.02,0.17l-0.02,0.17l-0.1,0.15l-0.1,0.15c-0.48,0.65-1.8,1.04-3.12,1.27
		c-1.32,0.23-2.65,0.31-3.14,0.33c-0.73,0.05-1.46,0.11-2.17,0.17s-1.43,0.13-2.15,0.2c-0.85,0.07-0.77,0.31,0.05,0.62
		c0.81,0.31,2.35,0.67,4.41,0.98c1.22,0.16,2.24,0.33,3.03,0.65c0.79,0.32,1.34,0.79,1.63,1.57c0.08,0.22,0.22,0.4,0.39,0.53
		c0.17,0.13,0.39,0.2,0.62,0.2c0.62-0.01,1.48-0.02,2.27-0.02S214.48,429.05,214.79,429.08z M610.16,498.11
		c-3.69,1.42-10.33,3.3-16.9,4.86c-6.57,1.56-13.06,2.8-16.46,2.94c-0.46,0.02-0.9-0.12-1.25-0.38s-0.61-0.64-0.72-1.09
		c-0.16-0.69-0.34-1.51-0.53-2.33c-0.18-0.82-0.37-1.63-0.54-2.29c-0.11-0.42-0.09-0.85,0.05-1.24c0.13-0.39,0.38-0.75,0.72-1.01
		c5.45-4.23,10.19-8.01,15.27-11.38c5.08-3.37,10.49-6.34,17.27-8.97c0.33-0.13,0.68-0.16,1.02-0.11c0.34,0.05,0.66,0.2,0.92,0.43
		c0.84,0.73,1.67,1.32,2.49,1.79s1.62,0.82,2.39,1.08c0.47,0.16,0.84,0.47,1.07,0.87c0.24,0.4,0.33,0.88,0.25,1.36
		c-0.38,2.19-0.8,4.37-1.24,6.55c-0.44,2.17-0.92,4.34-1.42,6.5c-0.06,0.26-0.45,0.78-0.92,1.29
		C611.14,497.47,610.58,497.95,610.16,498.11z M604.73,517.87c-3.49,0.03-7.47-0.19-11.3-0.48c-3.83-0.29-7.52-0.66-10.44-0.94
		c-0.13-0.01-0.2-0.11-0.2-0.21c0-0.1,0.06-0.21,0.18-0.23c2.86-0.54,7.48-1.31,12.06-2.13c4.58-0.83,9.12-1.71,11.81-2.48
		c0.37-0.11,0.73,0.01,0.96,0.25c0.23,0.24,0.35,0.59,0.24,0.96c-0.21,0.7-0.43,1.46-0.66,2.2s-0.44,1.47-0.63,2.09
		c-0.05,0.17-0.41,0.42-0.83,0.62C605.5,517.71,605.02,517.87,604.73,517.87z M590.05,556.64l-15.12,3.18l-15.12,3.18v-9.78v-9.78
		c1.79-0.43,4.44-1.01,7.8-1.73c3.35-0.71,7.4-1.56,11.98-2.49c3.97-0.82,7.71-1.58,10.97-2.24c3.26-0.66,6.02-1.21,8.03-1.6
		c0,3.38-1.35,7.19-3.1,10.91S591.62,553.63,590.05,556.64L590.05,556.64L590.05,556.64z M559.82,602.17v-14.21v-14.21
		c4-0.9,7.8-1.62,11.61-2.33c3.81-0.7,7.62-1.38,11.64-2.2c-3.56,6.05-7.14,11.6-10.95,16.99
		C568.31,591.58,564.28,596.8,559.82,602.17L559.82,602.17L559.82,602.17z M557.68,534.06c-0.97,0.22-1.59,0.37-2.23,0.4
		c-0.64,0.03-1.29-0.04-2.33-0.26c-3.18-0.64-6.35-1.31-9.52-1.98s-6.34-1.34-9.5-2c-0.11-0.02-0.23-0.1-0.31-0.18
		c-0.08-0.08-0.12-0.17-0.07-0.23c0.95-0.83,1.84-1.56,2.61-2.15s1.41-1.04,1.87-1.32c0.11-0.06,0.22-0.12,0.33-0.16
		c0.11-0.04,0.23-0.07,0.36-0.09c8.45-1.2,15.17-1.39,21.25-0.85s11.54,1.79,17.48,3.46c0.42,0.12,0.59,0.41,0.65,0.66
		c0.06,0.26,0.01,0.48,0.01,0.48c-3.44,0.71-6.87,1.39-10.3,2.08C564.54,532.61,561.11,533.31,557.68,534.06L557.68,534.06
		L557.68,534.06z M546.45,562.11l-11.59-2.42l-11.59-2.42c-0.33-0.07-0.6-0.25-0.79-0.5c-0.19-0.25-0.3-0.56-0.28-0.89
		c0.05-0.9,0.1-1.79,0.14-2.69c0.04-0.9,0.07-1.8,0.07-2.71c0-0.8,0.01-1.59,0.06-2.36c0.05-0.77,0.13-1.53,0.29-2.26
		c0.28-1.17,0.62-2.21,1.03-3.19c0.41-0.98,0.9-1.91,1.49-2.87c0.24-0.39,0.58-0.68,0.98-0.85s0.85-0.22,1.29-0.13l9.65,2l9.65,2
		c0.46,0.1,0.86,0.35,1.14,0.69s0.45,0.78,0.45,1.25l0.05,7.83l0.05,7.83c0,0.55-0.25,1.04-0.64,1.35
		C547.51,562.08,546.99,562.23,546.45,562.11z M549.1,614.31c-1.12,1.21-2,2.14-2.89,3.06s-1.79,1.83-2.97,2.99
		c-5.62,5.63-11.51,10.98-17.64,16.06c-6.13,5.08-12.51,9.88-19.09,14.41c0.02-9.47,0.47-19.78,0.85-29.98
		c0.38-10.19,0.69-20.27,0.41-29.26c1.77,0.94,3.35,0.54,4.7-0.42c1.34-0.96,2.45-2.5,3.27-3.86c1.34-2.21,2.53-5.33,3.45-8.56
		s1.57-6.56,1.86-9.19l13.65,3.01l13.65,3.01l0.37,19.37L549.1,614.31z M497.04,565.39c3.76-5.96,5.93-12.34,7.18-17.58
		c1.26-5.24,1.6-9.34,1.72-10.77c0.01-0.16,0.08-0.3,0.18-0.4c0.1-0.1,0.24-0.17,0.4-0.19c0.89-0.1,2.08-0.27,3.24-0.45
		c1.16-0.18,2.29-0.38,3.04-0.52c0.67-0.13,1.31-0.25,1.91-0.38c0.6-0.12,1.17-0.24,1.71-0.36c0.13-0.03,0.25,0.03,0.31,0.12
		c0.07,0.09,0.08,0.22,0.02,0.34c-0.18,0.31-0.36,0.64-0.54,0.99s-0.37,0.71-0.55,1.09c-1.36,2.74-2.07,4.88-2.45,6.98
		s-0.44,4.17-0.51,6.75c0,3.57-0.29,8.42-0.76,13.27c-0.47,4.85-1.11,9.72-1.8,13.34c-0.01,0.06-0.06,0.09-0.11,0.08
		c-0.05,0-0.1-0.04-0.11-0.09c-1.23-4.8-3.64-7.87-6.11-9.67c-2.47-1.81-5-2.35-6.48-2.13c-0.14,0.02-0.24-0.04-0.3-0.12
		C496.98,565.61,496.98,565.49,497.04,565.39z M477.47,626.18c-2.76,2.75-3.74,7.26-3.82,12.74c-0.08,5.47,0.74,11.92,1.57,18.55
		c0.23,1.77,0.45,3.56,0.66,5.32c0.21,1.76,0.4,3.51,0.55,5.21c0.02,0.17-0.02,0.33-0.1,0.47s-0.2,0.26-0.35,0.33
		c-2.8,1.4-5.63,2.76-8.49,4.06c-2.86,1.3-5.75,2.56-8.67,3.75c-0.19,0.08-0.4,0.05-0.55-0.06c-0.15-0.11-0.25-0.28-0.25-0.49
		c0.07-2.52,0.11-5.04,0.12-7.55c0.01-2.51,0-5.02-0.01-7.51c-0.02-6.95-0.03-13.71,0.41-19.74s1.36-11.34,3.2-15.38
		c0.78-1.7,1.98-2.98,3.42-4.08c1.44-1.09,3.12-1.99,4.85-2.93c2.13-1.14,4.4-2.36,6.28-4.06c1.88-1.7,3.37-3.88,3.93-6.92
		c0.41-2.18,0.83-6.79,1.11-11.46c0.29-4.67,0.44-9.39,0.32-11.77c-0.29-5.05-5.8-8.96-12.23-11.85s-13.8-4.75-17.8-5.7
		c-1.43-0.34-2.85-0.68-4.28-1.03s-2.87-0.69-4.31-1.02c-0.19-0.04-0.27-0.2-0.26-0.35c0.01-0.15,0.12-0.29,0.32-0.3
		c5-0.23,10.18,0.03,15.33,0.59c5.14,0.56,10.24,1.42,15.06,2.38c2.57,0.49,5.17,1.01,7.58,1.6c2.4,0.59,4.61,1.25,6.38,2.04
		c0.71,0.32,2.62,1.63,4.56,4.01s3.9,5.83,4.74,10.44c0.77,4.15,0.62,9.67-2.05,16.49S486.81,616.88,477.47,626.18L477.47,626.18
		L477.47,626.18z M496.3,657.48c-1.56,0.96-3.13,1.91-4.71,2.84c-1.58,0.93-3.17,1.84-4.77,2.74c-0.24,0.13-0.51,0.12-0.72,0
		s-0.37-0.34-0.38-0.62c-0.19-3.85-0.41-7.05-0.62-9.75s-0.44-4.9-0.61-6.73c-0.43-4.17-0.64-6.25-0.09-8.15s1.85-3.62,4.45-7.05
		c0.76-0.99,1.63-2.14,2.62-3.47s2.1-2.84,3.34-4.58c0.31-0.43,0.8-0.53,1.21-0.4c0.41,0.13,0.75,0.5,0.75,1.03V640v16.65
		c0,0.17-0.04,0.34-0.12,0.48C496.57,657.27,496.45,657.39,496.3,657.48z M445.67,681.64c-11.56,4.21-21.65,7.28-32.05,9.47
		c-10.39,2.2-21.08,3.53-33.84,4.26c-0.24,0.01-0.48-0.03-0.7-0.12c-0.22-0.09-0.42-0.23-0.57-0.41c-6.54-7.76-6.46-20.3-5.29-33.42
		c1.17-13.12,3.44-26.83,1.27-36.94c13.91,1.67,25.72,2.39,37.54,2.75c11.82,0.36,23.65,0.35,37.59,0.55
		c-2.16,8.55-3.09,17.62-3.51,26.75C445.7,663.66,445.79,672.85,445.67,681.64L445.67,681.64L445.67,681.64z M367.57,581.56
		l0.03-0.14l0.03-0.14c0.12-0.78,0.24-1.56,0.43-2.19c0.19-0.63,0.44-1.13,0.83-1.35c1.67-0.94,5.99-0.78,10.74-0.25
		c4.74,0.53,9.91,1.44,13.26,2.02c1.33,0.24,2.51,0.45,3.52,0.62c1.01,0.17,1.84,0.3,2.47,0.37c4.17,0.41,11.59,0.99,20.35,1.03
		c8.76,0.04,18.86-0.47,28.4-2.26c8.77-0.39,14.53,0.99,18.11,3.71c3.58,2.72,4.99,6.76,5.04,11.69c-0.09,0.85-0.17,1.67-0.24,2.46
		s-0.12,1.53-0.14,2.23c0,3.06-0.25,5.73-1.09,7.91c-0.85,2.18-2.29,3.89-4.69,5.01c-4.56,2.14-15.65,2.9-29.03,2.82
		c-13.38-0.08-29.04-0.99-42.74-2.18c-3.08-0.27-6.78-0.66-10.48-1.23c-3.69-0.57-7.38-1.32-10.43-2.3
		c-0.92-0.31-1.85-1.17-2.67-2.43s-1.55-2.89-2.06-4.75c-0.83-3.15-0.96-7.06-0.77-10.81S367.15,584.08,367.57,581.56L367.57,581.56
		L367.57,581.56z M361.58,615.26c0.14,0.26,0.29,0.53,0.42,0.75s0.23,0.4,0.26,0.47c1.33,6.12,1.97,14.24,1.95,22.25
		c-0.02,8.01-0.69,15.91-1.98,21.59c-1.06,4.61-2.31,10.84-3.07,17.13s-1.05,12.65-0.19,17.49c0.05,0.3-0.03,0.58-0.21,0.8
		c-0.17,0.21-0.44,0.35-0.74,0.35c-1.98-0.01-3.3-0.01-4.63-0.03c-1.33-0.02-2.66-0.07-4.69-0.19c-0.26-0.01-0.51-0.11-0.71-0.26
		c-0.2-0.15-0.35-0.37-0.43-0.62c-2.73-9.3-1.91-23.8-1.14-38.12c0.77-14.31,1.49-28.43-1.46-36.96
		c-1.82-9.08-5.18-20.16-6.12-30.72c-0.94-10.57,0.54-20.62,8.4-27.66c1.91-1.48,4.02-2.58,6.33-3.32c2.31-0.74,4.82-1.1,7.53-1.1
		c2.47,0,6.32,0.55,10.17,1.24s7.68,1.52,10.12,2.07c0.29,0.06,0.43,0.3,0.42,0.54c-0.01,0.24-0.16,0.47-0.45,0.53
		c-2.64,0.49-5.06,1.05-7.25,1.67c-2.19,0.62-4.13,1.29-5.83,2.02c-2.23,0.97-4.58,3.5-6.55,6.55c-1.97,3.04-3.56,6.6-4.28,9.61
		c-2.26,9.33-1.83,16.77-0.53,22.4S360.39,613.17,361.58,615.26L361.58,615.26L361.58,615.26z M332.51,688.41
		c-0.89-2.13-1.49-4.2-1.92-6.17c-0.43-1.97-0.7-3.84-0.9-5.56c-0.8-6.78-1.57-18.81-2.08-30.95s-0.74-24.41-0.47-31.69
		c0.34,0.03,1.49,0.06,2.64,0.09c1.15,0.03,2.31,0.08,2.67,0.14c4.29,14.73,4.7,26.51,4.36,38.16s-1.43,23.16-0.15,37.35
		c0.07,0.74-0.37,1.31-0.95,1.54c-0.57,0.24-1.28,0.14-1.74-0.45c-0.31-0.39-0.59-0.82-0.84-1.24
		C332.89,689.22,332.68,688.8,332.51,688.41L332.51,688.41L332.51,688.41z M319.13,598.29c-1.09-2.96-1.4-8.87-0.99-14.71
		c0.41-5.84,1.53-11.63,3.3-14.33c1.34,0.31,2.6,0.7,3.88,1.08s2.6,0.76,4.09,1.03c-1.86,4.62-2.59,10.52-2.84,16.53
		c-0.26,6.01-0.03,12.12,0.02,17.17c-1.45-0.22-2.99-1.05-4.33-2.25C320.92,601.61,319.78,600.03,319.13,598.29L319.13,598.29
		L319.13,598.29z M314.75,690.78c-0.29,0.38-0.67,0.66-1.09,0.82c-0.43,0.16-0.9,0.21-1.36,0.12c-1.04-0.2-2.08-0.4-3.12-0.61
		s-2.08-0.42-3.11-0.64c-0.25-0.05-0.64-0.43-0.96-0.78c-0.32-0.36-0.58-0.7-0.58-0.7c-0.42-11.3,0.03-21.02,0.88-30.71
		c0.85-9.69,2.11-19.33,3.31-30.48c0.02-0.18,0.08-0.35,0.18-0.49c0.1-0.14,0.23-0.27,0.38-0.35c0.82-0.44,2.37-1.27,3.95-2.11
		c1.59-0.84,3.22-1.7,4.23-2.2c0.23-0.12,0.49-0.1,0.69,0.02c0.2,0.11,0.35,0.32,0.36,0.59c0.48,8.47,0.67,19.5,0.98,30.15
		s0.73,20.94,1.67,27.92c0.04,0.27,0.02,0.53-0.05,0.79c-0.07,0.25-0.18,0.49-0.35,0.71l-3.01,3.98L314.75,690.78z M256.45,579.42
		c4.41-2.92,8.86-5.8,13.31-8.66s8.91-5.73,13.35-8.63c0.08-0.05,0.16-0.09,0.24-0.11s0.17-0.04,0.27-0.04
		c1.68-0.04,3.47-0.29,5.32-0.66c1.84-0.38,3.73-0.88,5.59-1.42c0.09-0.03,0.19-0.04,0.29-0.05c0.1-0.01,0.19,0,0.29,0.02
		c2.03,0.39,4.74,0.9,7.88,1.47s6.69,1.21,10.4,1.88c0.48,0.09,0.83,0.4,0.99,0.79c0.17,0.39,0.15,0.87-0.12,1.27
		c-1.77,2.67-3.06,5.7-3.97,8.85c-0.9,3.15-1.41,6.44-1.62,9.61c-0.01,0.2-0.07,0.39-0.16,0.56c-0.09,0.17-0.23,0.32-0.39,0.43
		l-2.31,1.6l-2.31,1.6c-0.17,0.12-0.37,0.2-0.57,0.25c-0.2,0.05-0.41,0.05-0.62,0.02l-22.78-3.68l-22.78-3.68
		c-0.34-0.06-0.56-0.31-0.63-0.6S256.16,579.62,256.45,579.42z M297.63,615.46c-8.5-0.07-15.82-1.16-23.08-2.55
		s-14.46-3.08-22.72-4.36c-0.38-0.06-0.71-0.24-0.96-0.51c-0.25-0.26-0.41-0.61-0.44-0.99l-0.65-7.98l-0.65-7.98
		c-0.03-0.37,0.12-0.71,0.37-0.93c0.25-0.22,0.59-0.34,0.96-0.27c6.86,1.3,15.49,2.94,24.05,4.35c8.56,1.41,17.04,2.58,23.6,2.94
		c0.3,0.02,0.57,0.15,0.76,0.36c0.19,0.21,0.3,0.48,0.29,0.79l-0.21,8.04l-0.21,8.04c-0.01,0.3-0.13,0.56-0.33,0.75
		S297.93,615.46,297.63,615.46z M292.81,681.2c0,0.69,0,1.38,0,2.06c0,0.68,0.01,1.36,0.02,2.04c0.01,0.5-0.23,0.94-0.58,1.22
		s-0.84,0.4-1.32,0.27c-5.25-1.44-10.44-3.05-15.54-4.81c-5.11-1.76-10.14-3.68-15.11-5.74c-0.1-0.04-0.25-0.19-0.37-0.35
		c-0.12-0.16-0.22-0.33-0.22-0.41c-0.02-9.49-0.97-18.48-2.34-27.42c-1.38-8.94-3.18-17.82-4.91-27.07
		c-0.05-0.27,0.04-0.52,0.21-0.69c0.17-0.17,0.42-0.26,0.68-0.21c5.58,1.06,13.26,2.42,20.85,3.65c7.58,1.23,15.06,2.31,20.22,2.8
		c0.34,0.03,0.62,0.21,0.8,0.46c0.18,0.25,0.26,0.58,0.19,0.92c-2,9.22-2.58,17.81-2.7,26.46
		C292.58,663.03,292.93,671.74,292.81,681.2L292.81,681.2L292.81,681.2z M201.42,604.04c5.09,1.74,10.72,3.69,16.32,5.54
		c5.6,1.84,11.17,3.58,16.14,4.89c0.26,0.07,0.5,0.19,0.71,0.36c0.2,0.17,0.37,0.38,0.48,0.63c3.27,7.26,5.03,15.97,6.06,24.87
		c1.03,8.9,1.34,18.01,1.73,26.08c0.02,0.41-0.19,0.76-0.5,0.96s-0.71,0.24-1.08,0.05c-5.41-2.79-10.7-5.76-15.88-8.91
		c-5.17-3.15-10.23-6.47-15.15-9.96c-0.4-0.29-0.75-0.64-1.02-1.04c-0.27-0.4-0.47-0.85-0.59-1.33c-0.72-2.89-2.38-9.7-4.13-17.49
		c-1.75-7.78-3.59-16.54-4.67-23.33c-0.07-0.45,0.11-0.86,0.42-1.11C200.56,604,200.99,603.89,201.42,604.04z M176.53,618.9
		c1.54,0.27,2.88,0.48,4.03,0.61c1.15,0.14,2.12,0.21,2.94,0.21c1.33,0,2.25-0.19,2.89-0.57c0.64-0.38,1-0.96,1.2-1.74
		c0.37-1.41-0.13-2.49-1.74-3.56c-1.61-1.07-4.34-2.12-8.4-3.48c-1.4-0.48-2.85-1.22-4.14-2.04c-1.29-0.81-2.4-1.69-3.12-2.42
		c-0.63-0.63-1.19-1.34-1.67-2.13c-0.48-0.78-0.88-1.63-1.19-2.53c-1.04-2.98-1-5.68-0.17-8.37c0.83-2.7,2.46-5.38,4.6-8.32
		c2.25-3.09,3.79-5.22,4.49-6.81c0.71-1.59,0.58-2.66-0.51-3.63c-1.09-0.99-2.22-0.95-3.78-0.03s-3.55,2.72-6.36,5.27
		c-2.93,2.65-5.1,5.46-6.53,8.41s-2.11,6.03-2.05,9.24c0,0.21-0.13,0.36-0.3,0.42c-0.17,0.06-0.37,0.02-0.5-0.14
		c-1.92-2.44-3.8-4.9-5.63-7.4c-1.83-2.5-3.61-5.04-5.35-7.61c-0.02-0.02-0.03-0.05-0.05-0.08c-0.02-0.03-0.04-0.06-0.06-0.09
		c-0.3-0.53-0.48-1.11-0.56-1.71c-0.07-0.6-0.04-1.21,0.11-1.8c1.82-7.39,4.8-12.44,8.24-16.24s7.35-6.36,11.03-8.77
		c3.56-2.33,7.17-4.69,10.08-7.86c2.9-3.17,5.09-7.14,5.79-12.68v-0.02V533c0.46-3.69-0.15-7.08-1.29-10.3
		c-1.13-3.22-2.78-6.27-4.4-9.28c-0.51-0.97-1.04-1.96-1.55-2.95c-0.51-0.99-1.02-1.99-1.48-2.97c-0.95-2.14-2-3.66-3.14-4.52
		s-2.37-1.09-3.7-0.65c-1.26,0.41-2.09,1.25-2.5,2.52c-0.41,1.28-0.39,2.98,0.05,5.13c0.53,2.45,2.17,7.18,3.64,11.64
		s2.77,8.63,2.62,9.96c-0.34,2.67-1.41,4.66-3.2,6.51s-4.29,3.56-7.49,5.67c-3.36,2.2-7.03,4.61-10.54,7.84
		c-3.51,3.23-6.86,7.27-9.58,12.75c-0.31,0.63-0.91,0.96-1.52,0.97c-0.6,0.01-1.21-0.29-1.54-0.91
		c-3.51-6.66-8.48-17.56-12.98-28.18c-4.5-10.63-8.53-20.98-10.14-26.54c2.11-3.64,4.98-6.16,8.25-8.1
		c3.27-1.93,6.95-3.28,10.68-4.55c4.1-1.42,8.01-2.77,11.08-4.9c3.07-2.13,5.31-5.05,6.09-9.61c0.13-0.79,0.66-1.37,1.32-1.65
		c0.66-0.28,1.45-0.25,2.12,0.19c2.77,1.81,5.87,3.43,9.25,4.81c3.38,1.38,7.03,2.52,10.89,3.35c7.42,1.63,14.99,2,22.39,1.1
		c7.4-0.9,14.63-3.06,21.39-6.49c0.21-0.11,0.44-0.1,0.63-0.02c0.19,0.09,0.35,0.26,0.41,0.49c1.29,4.58,4.37,8.25,8.28,10.77
		c3.9,2.53,8.63,3.91,13.22,3.91c3.61,0,7.45-0.89,10.71-2.99c3.26-2.1,5.95-5.43,7.26-10.3c0.05-0.19,0.17-0.34,0.33-0.43
		c0.16-0.09,0.35-0.13,0.53-0.08c13.74,3.35,25.16,0.13,33.26-7.07c8.1-7.19,12.87-18.35,13.31-30.86c0.01-0.22,0.15-0.37,0.32-0.42
		c0.17-0.05,0.37,0,0.49,0.19c0.55,0.88,1.1,1.76,1.63,2.61s1.04,1.68,1.51,2.45c1.91,3.11,3.76,6.13,5.44,8.68
		c1.68,2.55,3.19,4.65,4.4,5.9c3.98,4.06,5.8,7.17,6.51,9.87c0.71,2.7,0.32,5.01-0.11,7.47c-0.44,2.72-0.92,5.62-0.19,8.95
		c0.73,3.33,2.67,7.1,7.06,11.55c0.85,0.87,1.59,1.9,2.22,3.01s1.15,2.28,1.56,3.42c-5.55,0.36-11.76,2.1-17.75,4.6
		c-5.99,2.5-11.75,5.77-16.4,9.17c-3.35-0.63-8.15-1.84-12.81-3.09c-4.67-1.26-9.21-2.57-12.07-3.4c-0.8-1.02-1.55-1.96-2.2-2.74
		s-1.2-1.42-1.61-1.85c-2.35-2.41-4.97-4.87-8.23-6.52c-3.26-1.65-7.17-2.49-12.09-1.67c-5.21,0.85-10.09,3.37-14.32,6.58
		c-4.22,3.22-7.78,7.14-10.33,10.79c-1.77,2.55-3.5,5.3-4.59,7.98c-1.09,2.69-1.54,5.31-0.76,7.63c0.22,0.6,0.41,1.06,0.67,1.48
		c0.26,0.42,0.59,0.79,1.1,1.2c-5.2,2.26-12.1,5.07-19.48,7.94s-15.24,5.8-22.35,8.32c-0.72,0.25-1.28,0.76-1.62,1.38
		c-0.34,0.63-0.46,1.37-0.28,2.11l8.83,37.35l8.83,37.35c0.1,0.41-0.1,0.77-0.4,0.96c-0.3,0.19-0.71,0.2-1.04-0.07
		c-3.18-2.64-6.28-5.34-9.31-8.11s-5.99-5.62-8.91-8.54c-0.19-0.19-0.23-0.44-0.16-0.62C176.12,618.98,176.3,618.85,176.53,618.9z
		 M125.45,452.88c1.92-1.98,3.14-4.11,3.84-6.68c0.69-2.57,0.85-5.59,0.64-9.35c-0.02-0.43,0.01-0.86,0.1-1.27
		c0.09-0.41,0.25-0.81,0.47-1.18c0.05-0.08,0.1-0.15,0.16-0.21s0.11-0.08,0.17-0.08c2.03-0.03,3.41-1.29,4.52-3.49
		s1.92-5.32,2.8-9.1c0.41-1.7,1.12-3.3,1.97-4.84c0.84-1.54,1.81-3.03,2.73-4.51c0.51-0.78,0.83-1.29,1.05-1.71
		c0.21-0.42,0.31-0.74,0.38-1.15c0.11-0.66,0.11-1.32-0.01-1.94c-0.11-0.62-0.34-1.21-0.69-1.74c-0.12-0.19-0.13-0.4-0.05-0.57
		c0.08-0.18,0.24-0.32,0.45-0.35c0.39-0.07,0.77-0.15,1.16-0.24c0.39-0.09,0.78-0.2,1.16-0.31c0.22-0.06,0.44-0.04,0.63,0.06
		c0.19,0.1,0.34,0.26,0.4,0.48c0.2,0.7,0.48,0.98,0.72,1.46c0.23,0.49,0.42,1.17,0.42,2.68c0.03,1.99-0.15,3.47-0.44,4.57
		c-0.29,1.1-0.67,1.81-1.03,2.27c-0.77,0.99-1.46,1.76-2.1,2.4c-0.63,0.64-1.2,1.14-1.71,1.58c-1.24,1.11-2.27,2.13-2.84,3.49
		c-0.57,1.35-0.67,3.03-0.06,5.42c0.12,0.44,0.24,0.92,0.36,1.43s0.24,1.07,0.36,1.66c0.32,1.58,0.68,3.36,1.22,5.32
		s1.26,4.1,2.32,6.41c-4.1,4.23-6.62,8.43-7.82,12.98c-1.2,4.55-1.07,9.45,0.12,15.07c1.23,5.76,1.4,8.81-0.12,10.92
		c-1.53,2.12-4.76,3.31-10.36,5.36c-2.98,1.09-5.72,2.08-8.31,3.26c-2.59,1.18-5.04,2.56-7.45,4.41c-0.64,0.49-1.43,0.57-2.1,0.33
		c-0.67-0.24-1.23-0.8-1.4-1.59c-1.05-4.8-2.04-10.14-2.91-15.5c-0.87-5.36-1.62-10.74-2.18-15.65c-0.08-0.69,0.15-1.33,0.56-1.81
		s1.03-0.78,1.72-0.79c2.36-0.02,6.07-0.25,9.98-1.31C118.19,458.04,122.3,456.17,125.45,452.88z M101.11,448.43
		c-0.09-1.8-0.15-3.61-0.2-5.43c-0.05-1.82-0.07-3.63-0.07-5.45c0-0.07,0.01-0.14,0.02-0.22c0.01-0.08,0.02-0.15,0.02-0.22
		c1.38,0.37,2.77,0.61,4.18,0.71c1.41,0.1,2.83,0.07,4.26-0.1c6.33-0.9,9.66,2.34,8.72,5.52
		C117.09,446.42,111.87,449.55,101.11,448.43L101.11,448.43L101.11,448.43z M104.14,396.33c1.11-2.09,3-5.2,4.7-8.28
		c1.69-3.07,3.18-6.11,3.47-8.05c0.7-3.04,1.25-5.74,1.72-8.19s0.85-4.66,1.21-6.74c0.94-5.46,1.66-9.69,3.33-14.42
		c1.67-4.73,4.29-9.95,9.03-17.38c18.59-29.25,45.27-40.05,71.72-37.08c26.45,2.96,52.67,19.69,70.33,45.5
		c0.37,0.54,0.26,1.15-0.09,1.56c-0.35,0.4-0.94,0.6-1.54,0.32c-5.74-2.72-11.89-4.96-17.82-6.53c-5.93-1.56-11.65-2.45-16.54-2.45
		c-0.21,0-0.41-0.02-0.62-0.05c-0.2-0.03-0.4-0.08-0.6-0.15c-6.67-2.3-13.08-3.77-19.73-3.69c-6.66,0.08-13.57,1.72-21.26,5.64
		c-0.08,0.04-0.17,0.07-0.26,0.09s-0.18,0.02-0.27,0.01c-4.37-0.48-9.75,0.32-15.07,2.1c-5.33,1.77-10.6,4.52-14.78,7.9
		c-2.24,1.82-4.51,4.03-6.61,6.39c-2.09,2.36-4.01,4.87-5.53,7.29c-0.05,0.08-0.14,0.1-0.22,0.07c-0.07-0.03-0.13-0.11-0.11-0.21
		c0.72-3.89,1.78-6.99,3.17-9.92c1.39-2.92,3.13-5.67,5.21-8.86c0.07-0.1,2.77-4.98,4.96-10.79c2.18-5.81,3.84-12.55,1.82-16.38
		c-0.34-0.65-0.88-1.15-1.51-1.46s-1.37-0.43-2.1-0.31c-0.73,0.14-1.38,0.5-1.87,1.02s-0.82,1.18-0.92,1.91
		c-0.46,3.43-1.7,6.66-3.42,9.9c-1.71,3.24-3.9,6.5-6.25,10c-3.2,4.76-6.62,9.83-9.4,15.71s-4.92,12.57-5.6,20.55
		c-0.02,0.23-0.07,0.45-0.14,0.66c-0.08,0.21-0.18,0.42-0.3,0.61c-0.23,0.36-0.45,0.73-0.66,1.12c-0.21,0.39-0.42,0.8-0.62,1.23
		c-0.47,1.07-1.32,2.96-1.7,5.5c-0.38,2.54-0.29,5.72,1.11,9.37c0.05,0.12,0.08,0.25,0.09,0.37c0.01,0.13,0.01,0.26-0.01,0.38
		c-0.32,2.02-0.34,3.76-0.17,5.25s0.54,2.73,1.02,3.76c0.08,0.18,0.08,0.53,0.03,0.86c-0.06,0.33-0.17,0.63-0.3,0.72
		c-1.55,1.16-3.2,2.38-4.5,3.8c-1.3,1.42-2.26,3.04-2.41,4.97c-0.1,1.09,0.06,2.15,0.47,3.18c0.41,1.02,1.08,2.01,1.98,2.95
		c0.15,0.17,0.16,0.38,0.07,0.56c-0.09,0.18-0.28,0.33-0.51,0.37c-1.09,0.23-2.16,0.78-3.13,1.52c-0.97,0.75-1.85,1.69-2.59,2.71
		c-0.71,0.6-1.5,1.17-2.34,1.73s-1.76,1.09-2.73,1.6c-2.28,1.16-4.82,1.93-7.28,1.93s-4.86-0.76-6.85-2.68
		c0.24-4.66,0.61-9.28,1.11-13.87C102.82,405.39,103.43,400.84,104.14,396.33L104.14,396.33L104.14,396.33z M184.15,247.66
		c-0.53,2.81-0.42,5.04,0.37,6.84c0.79,1.79,2.25,3.15,4.43,4.18c3.66,1.77,8.57,0.22,13.48-2.23c4.91-2.45,9.81-5.8,13.45-7.63
		c5.11-2.53,11-5.41,17.01-8.21c6.01-2.81,12.15-5.54,17.75-7.8c2.81-1.14,5.46-2.13,7.52-2.24c2.06-0.11,3.52,0.68,3.95,3.09
		c0.53,3.04,1.59,6.24,3.06,9.45c1.47,3.21,3.34,6.42,5.49,9.5c-1.14,0.95-2.31,1.88-3.5,2.79s-2.37,1.82-3.55,2.72
		c-5.52,4.17-11.65,8.8-15.89,14.55c-4.24,5.75-6.59,12.62-4.53,21.26c-17.18-10.27-34.8-15.88-52.09-15.46
		c-17.29,0.42-34.23,6.87-50.04,20.73c6.06-9.52,12.68-18.58,19.86-27.16C168.09,263.43,175.84,255.31,184.15,247.66L184.15,247.66
		L184.15,247.66z M269.39,193.52c7.57-3.23,13.6-7.27,19.32-11.69c5.72-4.42,11.13-9.22,17.48-13.98c1.64-1.24,3.25-2.49,4.83-3.75
		c1.58-1.26,3.12-2.52,4.62-3.79c0.16-0.14,0.35-0.1,0.46,0.02c0.11,0.11,0.15,0.3,0.01,0.46c-3.98,4.75-7.8,9.98-11.14,15.49
		s-6.19,11.3-8.22,17.15c-0.18,0.53,0.07,0.99,0.45,1.21s0.91,0.21,1.27-0.22c7.75-9.13,14.41-15.5,20.65-20.69
		c6.25-5.19,12.08-9.2,18.2-13.59c0.18-0.13,0.37-0.07,0.48,0.05c0.11,0.13,0.14,0.32-0.01,0.48c-3.24,3.33-6.4,6.83-9.31,10.92
		s-5.56,8.78-7.77,14.47c-0.13,0.34,0.02,0.64,0.27,0.79c0.25,0.15,0.59,0.15,0.84-0.12c6.57-7.27,12.4-11.78,17.77-15.34
		c5.37-3.56,10.27-6.17,14.98-9.66c0.27-0.2,0.57-0.13,0.75,0.05c0.18,0.18,0.25,0.48,0.05,0.75c-2.07,2.68-5.06,6.47-8.21,10.23
		c-3.15,3.76-6.47,7.47-9.19,9.99c-7.76,7.24-14.52,13.35-19.69,21.88s-8.74,19.49-10.14,36.44c-0.19,2.53,0.18,7.46,0.02,12
		c-0.16,4.54-0.84,8.69-3.12,9.66c-4.9,2.09-11.69-6.27-17.47-16.38s-10.53-21.95-11.37-26.81c-0.95-5.44-4.77-7.77-10.45-7.89
		s-13.21,1.97-21.58,5.37c-5.4,2.18-11.46,4.88-17.51,7.7s-12.07,5.76-17.39,8.4c-0.15,0.07-0.3,0.03-0.4-0.07
		c-0.1-0.1-0.13-0.26-0.05-0.4c4.77-8.28,13.96-15.57,24.93-22.03C244.75,204.15,257.5,198.51,269.39,193.52L269.39,193.52
		L269.39,193.52z M362.91,91.5c2.52,0,4.95,0.48,7.2,1.41c2.24,0.93,4.29,2.3,6.05,4.06h0.02h0.02c1.77,1.77,3.14,3.83,4.07,6.07
		s1.41,4.66,1.41,7.16c0,2.48-0.49,4.9-1.42,7.14c-0.93,2.24-2.31,4.31-4.1,6.09c-1.75,1.75-3.8,3.12-6.05,4.05
		c-2.24,0.93-4.68,1.42-7.2,1.42c-2.5,0-4.94-0.49-7.19-1.43s-4.32-2.31-6.09-4.08c-1.75-1.75-3.12-3.8-4.04-6.04
		s-1.41-4.66-1.41-7.16c0-5.19,2.09-9.86,5.48-13.24C353.06,93.58,357.74,91.5,362.91,91.5L362.91,91.5L362.91,91.5z M436.01,195.94
		c-1.16-3.77-2.66-7.52-4.44-11.2s-3.82-7.29-6.05-10.77c-0.1-0.16-0.06-0.33,0.04-0.44c0.1-0.11,0.27-0.15,0.44-0.05
		c3.05,1.88,6.3,3.72,9.77,5.51c3.47,1.79,7.16,3.53,11.09,5.19c2.18,0.94,4.59,1.83,7.19,2.72c2.6,0.9,5.4,1.8,8.37,2.75
		c9.9,3.2,21.69,7,32.53,12.91c10.84,5.91,20.75,13.93,26.89,25.55c0.21,0.39,0.11,0.8-0.14,1.07s-0.65,0.4-1.05,0.22
		c-1.91-0.85-3.97-1.79-6.14-2.79s-4.43-2.07-6.75-3.17c-7.03-3.33-14.52-6.88-21.69-9.84c-7.17-2.96-14.01-5.33-19.75-6.32
		c-5.87-1-10.89-0.81-14.66,1.02c-3.78,1.83-6.32,5.29-7.26,10.81c-0.68,3.79-1.32,7.25-2.06,10.35c-0.74,3.1-1.6,5.85-2.7,8.21
		c-0.89,2.38-2.43,4.62-4.2,6.61c-1.77,1.98-3.78,3.71-5.6,5.06c-1.03,0.76-2.26,0.77-3.24,0.28c-0.98-0.5-1.69-1.5-1.68-2.78
		c0-0.12,0-0.23,0-0.35c0-0.12,0-0.23,0-0.35c0.03-1.48,0.07-2.99,0.06-4.48c0-1.49-0.05-2.96-0.17-4.36
		c-1.4-17.04-5.5-28.46-10.92-37.05s-12.15-14.35-18.8-20.04c-2.33-2-4.65-3.99-6.87-6.15c-2.22-2.16-4.33-4.48-6.24-7.15
		c-0.28-0.39-0.19-0.84,0.07-1.12s0.7-0.4,1.11-0.15c4.03,2.53,8.27,4.95,12.86,8.3c4.59,3.35,9.55,7.61,15.01,13.82
		c0.14,0.16,0.35,0.17,0.5,0.08s0.24-0.27,0.17-0.48c-2.26-6.18-5.02-11.19-8.08-15.54c-3.05-4.34-6.4-8.02-9.82-11.52
		c-0.16-0.16-0.13-0.37-0.02-0.5s0.31-0.19,0.49-0.06c3.72,2.63,10.28,7.45,17.73,13.78c7.46,6.34,15.81,14.18,23.11,22.86
		c0.18,0.21,0.44,0.23,0.63,0.12C435.97,196.43,436.09,196.2,436.01,195.94z M537.65,249.28c0.84,0.78,1.66,1.57,2.48,2.36
		c0.82,0.79,1.63,1.59,2.44,2.4c0.54,0.54,0.88,1.24,0.99,1.96c0.11,0.72-0.01,1.48-0.38,2.15c-0.91,1.66-2.3,3.57-4.07,5.46
		c-1.76,1.89-3.89,3.75-6.29,5.3c-1.75,1.12-3.57,2.12-5.45,2.61s-3.83,0.47-5.86-0.43c-2.2-0.98-4.43-1.97-6.65-2.75
		s-4.44-1.34-6.62-1.46c-0.46-0.03-0.88-0.21-1.19-0.51s-0.52-0.7-0.56-1.16c-0.19-2.48-0.73-4.7-1.46-6.66
		c-0.73-1.96-1.66-3.66-2.62-5.1c-2.16-3.26-5.12-5.6-8.36-7.43c-3.24-1.83-6.77-3.16-10.09-4.4c-2.04-0.78-4.03-1.53-5.85-2.34
		c-1.83-0.81-3.49-1.69-4.91-2.72c-1.93-1.42-3.51-2.91-4.87-4.45c-1.36-1.55-2.52-3.17-3.6-4.86c-0.46-0.73-0.36-1.55,0.07-2.14
		s1.18-0.94,2.01-0.71c5.42,1.48,12.96,4.68,19.58,7.71s12.33,5.91,14.08,6.73c3.57,1.68,7.02,3.32,10.27,4.79
		c3.25,1.48,6.29,2.81,9.07,3.88c2.99,1.15,5.78,1.91,8.34,2.2c2.56,0.29,4.88,0.09,6.93-0.67c0.26-0.1,0.82-0.11,1.35-0.06
		C536.97,249,537.48,249.12,537.65,249.28z M492.35,486.14c0.27-1.81,0.77-3.67,1.44-5.44c0.67-1.77,1.5-3.45,2.45-4.9
		c0.11-0.16,0.26-0.28,0.44-0.35c0.17-0.06,0.37-0.07,0.56-0.02c2.27,0.69,5.2,1.91,8.46,3.52s6.85,3.61,10.46,5.85
		c4.78,2.92,8.46,5.53,11.05,7.66c2.59,2.12,4.09,3.75,4.51,4.72c0.07,0.15-0.09,0.36-0.34,0.52c-0.25,0.16-0.58,0.26-0.85,0.22
		c-6.23-1.07-12.26-1.94-18.32-2.51s-12.15-0.84-18.52-0.72c-0.17,0-0.34-0.05-0.48-0.13s-0.25-0.22-0.31-0.38
		c-0.51-1.35-0.73-2.81-0.78-4.2C492.05,488.59,492.17,487.26,492.35,486.14L492.35,486.14L492.35,486.14z M425.38,540.48
		L425.38,540.48L425.38,540.48c-0.2-0.91-0.05-1.91,0.36-2.81c0.41-0.89,1.06-1.67,1.88-2.11c3.8-2.06,5.75-3.36,8.27-4.59
		c2.52-1.24,5.59-2.41,11.65-4.22c0.44-0.13,0.63-0.51,0.59-0.88c-0.03-0.36-0.29-0.71-0.74-0.76c-3.57-0.42-6.81-0.47-9.87-0.19
		c-3.06,0.27-5.95,0.87-8.81,1.73c-0.75,0.23-1.43-0.1-1.79-0.64s-0.41-1.28,0.09-1.88c2.03-2.4,4.59-4.65,7.5-6.59
		c2.91-1.94,6.15-3.57,9.54-4.71c4.53-1.53,9-2.08,13.23-1.68c4.23,0.4,8.2,1.76,11.72,4.06c2.32,1.51,3.81,3.75,4.78,6.16
		s1.4,4.99,1.59,7.21c0.36,4.64-0.24,9.33-1.35,13.25c-1.11,3.91-2.74,7.05-4.44,8.58c-2.52,2.3-4.65,3.41-6.93,3.78
		c-2.29,0.37-4.73,0-7.88-0.68c-1.46-0.31-8.16-2.92-14.82-5.77S426.68,541.77,425.38,540.48L425.38,540.48L425.38,540.48z
		 M437.94,571.56c0.27,0.07,0.55,0.19,0.74,0.3c0.19,0.11,0.28,0.2,0.18,0.22c-3.15,0.41-7.19,0.62-12.09,0.63
		c-4.89,0.01-10.64-0.17-17.19-0.57c-3.56-0.21-7.13-0.47-10.69-0.77s-7.14-0.62-10.68-0.96c-0.22-0.02-0.33-0.19-0.34-0.36
		s0.09-0.35,0.3-0.39c3.71-0.78,7.67-1.6,11.07-2.28c3.4-0.67,6.24-1.2,7.71-1.41c0.26-0.04,0.52-0.05,0.78-0.05
		c0.26,0,0.52,0.02,0.78,0.06c1.73,0.27,6.73,1.07,12.48,2.1C426.72,569.11,433.21,570.37,437.94,571.56z M389.35,552.47
		c0.15,0.42,0.04,0.83-0.22,1.13c-0.26,0.29-0.66,0.46-1.09,0.38c-1.79-0.33-3.84-0.73-5.99-1.19c-2.15-0.46-4.41-0.96-6.63-1.49
		c-0.32-0.08-0.48-0.34-0.48-0.61c0-0.27,0.16-0.53,0.49-0.61c2.01-0.45,4.05-0.99,6.01-1.59c1.97-0.6,3.86-1.27,5.6-1.99
		c0.37-0.16,0.77-0.1,1.07,0.1c0.31,0.2,0.52,0.53,0.54,0.94c0.03,0.76,0.1,1.68,0.2,2.57C388.97,551,389.13,551.85,389.35,552.47z
		 M411.22,550.75c0.05,1.43,0.06,2.22-0.14,2.72c-0.2,0.5-0.62,0.71-1.42,0.99l0,0l0,0c-1.86,0.61-3.56,0.81-5.06,0.59
		c-1.51-0.22-2.82-0.85-3.89-1.88c-2.09-2.02-2.83-4.62-2.86-7.32c-0.03-2.71,0.66-5.53,1.43-8.01c1.19-3.92,2.15-7.05,2.27-9.99
		c0.12-2.94-0.6-5.68-2.76-8.81c-0.14-0.2-0.15-0.45-0.07-0.65c0.08-0.2,0.26-0.36,0.5-0.39c1.3-0.17,2.83,0.14,4.38,0.77
		c1.55,0.63,3.14,1.58,4.56,2.68c3.97,3.11,5.7,5.57,6.18,8.24c0.48,2.67-0.31,5.55-1.38,9.51c-0.56,2.14-1.02,3.9-1.33,5.69
		C411.32,546.67,411.17,548.49,411.22,550.75L411.22,550.75L411.22,550.75z M432.85,555.4c-1.9-0.13-3.85-0.24-5.79-0.3
		c-1.94-0.06-3.89-0.07-5.79,0.02c-0.33,0.02-0.63-0.09-0.87-0.28s-0.41-0.46-0.47-0.78c-0.18-0.95-0.31-1.93-0.39-2.89
		c-0.07-0.96-0.09-1.89-0.04-2.75c0.02-0.34,0.23-0.6,0.5-0.72s0.61-0.12,0.89,0.07c1.97,1.34,3.91,2.61,5.9,3.81
		c1.99,1.2,4.02,2.33,6.16,3.38c0.12,0.06,0.16,0.17,0.13,0.27C433.07,555.32,432.98,555.41,432.85,555.4z M397.26,508.76
		c-1.36,0.28-2.55,0.76-3.57,1.42c-1.01,0.66-1.84,1.49-2.48,2.47c-0.09,0.13-0.22,0.2-0.36,0.19c-0.13,0-0.27-0.07-0.34-0.21
		c-2.8-5-5.81-8.62-8.82-11.21c-3.02-2.59-6.05-4.16-8.9-5.06c-0.17-0.05-0.25-0.2-0.24-0.35c0.01-0.14,0.1-0.28,0.28-0.31
		c0.91-0.16,1.85-0.36,2.82-0.61s1.98-0.54,3.02-0.87c0.39-0.13,0.79-0.07,1.12,0.13c0.32,0.19,0.56,0.52,0.64,0.92
		c0.19,1.01,0.51,1.97,0.97,2.85s1.03,1.71,1.74,2.44c1.34,1.43,3.06,2.46,5.07,3.06c2,0.6,4.29,0.77,6.78,0.48
		c1.93-0.25,4.05-0.8,6.32-1.63s4.71-1.93,7.28-3.31c0.26-0.14,0.54-0.14,0.79-0.05c0.25,0.1,0.45,0.3,0.53,0.57
		c1.08,3.6,3.44,6.13,6.4,7.73c2.97,1.6,6.55,2.28,10.08,2.19c0.39-0.01,0.67,0.23,0.79,0.53c0.11,0.3,0.06,0.67-0.24,0.93
		c-1.33,1.16-2.61,2.41-3.83,3.75c-1.22,1.34-2.38,2.78-3.46,4.32c-0.24,0.34-0.59,0.54-0.96,0.59s-0.76-0.04-1.07-0.31
		c-1.79-1.51-5.45-4.47-9.37-6.9C404.32,510.09,400.13,508.18,397.26,508.76z M344.15,526.81c0.49-2.67,2.2-6.23,4.65-9.66
		c2.45-3.43,5.63-6.72,9.07-8.84c1.72-1.07,3.56-1.89,5.46-2.29c1.91-0.4,3.88-0.4,5.87,0.18c3.37,1,6.82,2.63,9.9,5.52
		c3.07,2.89,5.76,7.03,7.57,13.03c0.1,0.32,0,0.63-0.2,0.84c-0.2,0.21-0.5,0.31-0.82,0.22c-3.05-0.95-6.01-1.32-9.16-1.31
		c-3.15,0.01-6.47,0.42-10.25,1.04c-0.51,0.08-0.78,0.48-0.8,0.89s0.21,0.84,0.7,0.98c5.65,1.56,8.74,2.51,11.26,3.49
		c2.52,0.99,4.48,2.01,7.86,3.72c0.39,0.2,0.58,0.57,0.57,0.95c-0.01,0.37-0.21,0.74-0.6,0.92c-4.15,1.89-10.68,3.93-17.35,4.96
		s-13.47,1.05-18.15-1.1c-2.5-1.14-4.21-2.81-5.14-5.06C343.67,533.04,343.52,530.23,344.15,526.81L344.15,526.81L344.15,526.81z
		 M337.75,496.27c-2.2-2.24-3.23-4.14-3.66-6.06s-0.27-3.87-0.09-6.21c0.05-0.55,0.1-1.12,0.14-1.7c0.04-0.58,0.08-1.18,0.1-1.79
		c0.01-0.43,0.23-0.78,0.54-1s0.72-0.28,1.12-0.14c0.64,0.23,1.3,0.44,1.99,0.64c0.69,0.19,1.4,0.36,2.14,0.52
		c2.23,0.46,4.58,0.71,6.94,0.76c2.36,0.05,4.72-0.09,6.96-0.4c0.21-0.03,0.4,0.05,0.54,0.18c0.13,0.14,0.21,0.33,0.18,0.54
		c-0.37,3,0.1,5.82,1.37,8.17c1.27,2.35,3.34,4.21,6.16,5.29c0.15,0.06,0.21,0.2,0.2,0.32c-0.01,0.13-0.11,0.25-0.27,0.28
		c-3.18,0.55-6.22,1.71-9.04,3.3c-2.82,1.59-5.41,3.6-7.69,5.83c-0.21,0.21-0.5,0.28-0.76,0.24s-0.5-0.21-0.61-0.49
		c-0.56-1.28-1.31-2.63-2.32-4.02S339.37,497.72,337.75,496.27L337.75,496.27L337.75,496.27z M419.18,324.34
		c-0.65,0.1-1.17-0.24-1.42-0.73s-0.2-1.11,0.27-1.57c1.22-1.18,2.58-2.38,3.97-3.56c1.39-1.18,2.83-2.32,4.2-3.39
		c0.55-0.43,1.2-0.64,1.85-0.66c0.66-0.01,1.32,0.18,1.89,0.57c0.98,0.68,1.98,1.28,3,1.81c1.02,0.53,2.06,0.99,3.12,1.37
		c0.5,0.18,0.74,0.62,0.73,1.05c-0.01,0.43-0.27,0.86-0.78,1.01c-2.14,0.63-5.03,1.44-8.04,2.21
		C424.95,323.22,421.81,323.92,419.18,324.34z M434.59,299.7c3.21-2.83,6.64-5.4,10.23-7.75s7.33-4.46,11.14-6.38
		c0.09-0.04,0.26-0.04,0.41,0s0.3,0.1,0.33,0.16c0.94,1.73,1.61,3.32,2.02,4.79c0.41,1.46,0.55,2.79,0.46,4.01
		c-0.24,2.67-1.38,4.71-2.75,6.24c-1.37,1.53-2.98,2.54-4.16,3.15c-3.52,1.78-6.76,2.41-9.73,1.88c-2.98-0.53-5.69-2.21-8.19-5.07
		c-0.06-0.07-0.05-0.28-0.01-0.49C434.4,300.01,434.49,299.79,434.59,299.7z M496.77,298.39c1.89,2.3,4.07,4.62,6.49,6.36
		c2.42,1.75,5.07,2.92,7.92,2.92c7.35-0.03,16.56-2.53,22.41-3.26c5.84-0.73,8.32,0.31,2.21,7.35c-1.5,1.36-3.87,2.21-6.4,2.78
		s-5.2,0.87-7.29,1.13c-6.62,0.91-13.46-0.47-20.33-2.06c-6.86-1.59-13.74-3.38-20.43-3.29c-0.31,0-0.53-0.19-0.61-0.43
		c-0.09-0.24-0.04-0.53,0.19-0.73c2.25-1.95,4.42-3.99,6.49-6.09c2.07-2.11,4.03-4.28,5.87-6.51c0.3-0.36,0.72-0.53,1.14-0.52
		c0.42,0.02,0.82,0.22,1.09,0.6c0.21,0.31,0.44,0.63,0.66,0.94C496.38,297.89,496.59,298.17,496.77,298.39z M472.13,283.11
		c2.48-1.45,5.4-2.77,8.32-3.92s5.83-2.12,8.28-2.89c0.37-0.12,0.71,0.02,0.91,0.27c0.2,0.25,0.27,0.62,0.09,0.96
		c-1.78,3.38-4.09,6.74-6.79,10.02c-2.7,3.28-5.78,6.48-9.1,9.53c-0.27,0.25-0.63,0.28-0.92,0.15c-0.29-0.13-0.51-0.41-0.51-0.77
		c0-1.37-0.04-3.32-0.2-5.37s-0.44-4.2-0.92-5.96c-0.11-0.39-0.08-0.8,0.07-1.15S471.78,283.32,472.13,283.11z M410.3,261.84
		c2.2,3.84,5.22,6.33,9.62,6.76c4.4,0.43,10.19-1.18,17.92-5.53c4.34-2.45,7.8-5.15,10.59-8.16c2.8-3.01,4.93-6.33,6.63-10
		c0.29-0.6,0.56-1.2,0.81-1.81c0.25-0.61,0.49-1.22,0.72-1.84c0.11-0.3,0.36-0.48,0.63-0.53c0.27-0.05,0.57,0.04,0.77,0.27
		c0.98,1.12,2.05,2.23,3.22,3.32s2.47,2.16,3.89,3.2c2.16,1.6,4.48,2.86,6.85,3.94s4.8,1.99,7.18,2.89
		c1.45,0.54,2.87,1.08,4.21,1.63c1.34,0.55,2.6,1.12,3.71,1.74c0.48,0.26,0.69,0.75,0.64,1.21c-0.04,0.46-0.34,0.91-0.86,1.09
		c-15.47,5.35-31.83,12.66-47.11,22.37c-15.28,9.71-29.49,21.84-40.64,36.84c-0.19,0.25-0.6,0.37-1.01,0.35
		c-0.4-0.03-0.79-0.19-0.93-0.52c-0.46-1.62-0.6-3.26-0.56-4.99c0.03-1.73,0.24-3.54,0.46-5.48c0.14-1.26,0.27-2.53,0.37-3.84
		s0.16-2.65,0.14-4.05c-0.05-3.81-2.03-9.02-4.76-14.18c-2.73-5.16-6.2-10.28-9.23-13.9c0,0-8.12-9.23-13.38-23.12
		s-7.66-32.46,3.78-51.14c0.46-0.75,0.98-1.59,1.46-2.44c0.48-0.85,0.94-1.72,1.28-2.54c0.49-1.19,1.49-1.96,2.6-2.23
		c1.12-0.27,2.36-0.03,3.33,0.81c0.23,0.2,0.46,0.39,0.69,0.59c0.23,0.2,0.46,0.4,0.69,0.59c5.33,4.56,10.72,9.16,15.05,16.02
		c4.34,6.86,7.62,15.96,8.75,29.51c0.1,1.22,0.14,2.45,0.14,3.66c0,1.21-0.02,2.4-0.04,3.55c-0.05,2.94-0.1,5.78,0.18,8.46
		C408.38,257.03,409.01,259.54,410.3,261.84L410.3,261.84L410.3,261.84z M283.08,418.5c-0.3-0.35-0.56-0.65-0.79-0.93
		c-0.22-0.28-0.4-0.52-0.55-0.74c-0.16-0.24-0.18-0.51-0.1-0.76c0.08-0.25,0.26-0.46,0.52-0.59c0.95-0.47,1.55-1.31,1.99-2.27
		c0.44-0.96,0.71-2.05,0.97-3c1.01-3.52,3.37-8.18,5.27-12.97c1.91-4.79,3.37-9.7,2.6-13.74c-0.07-0.36-0.06-0.72,0.01-1.07
		c0.07-0.35,0.2-0.69,0.37-1.01c2.17-4.04,2.69-8.3,1.61-12.58s-3.76-8.59-8-12.71c-0.34-0.33-0.62-0.71-0.82-1.13
		s-0.34-0.87-0.38-1.34c-0.25-2.54-0.59-5.01-1.04-7.41c-0.45-2.4-0.99-4.74-1.63-7.01c-0.18-0.65,0.08-1.24,0.53-1.58
		c0.45-0.34,1.09-0.43,1.67-0.08c3.76,2.3,7.39,4.34,10.69,6.06c3.3,1.73,6.27,3.14,8.71,4.17c0.02,0,0.04,0.01,0.07,0.02
		c0.03,0.01,0.05,0.03,0.07,0.05c2.25,0.88,7.86,2.98,14.95,4.86c7.1,1.88,15.69,3.54,23.89,3.54c3.13,0,6.2-0.24,9.12-0.8
		c2.91-0.56,5.66-1.45,8.15-2.74c0.02,0,0.03-0.01,0.05-0.02c0.02-0.01,0.03-0.03,0.05-0.05c6.64-3.47,9.12-9.54,9.64-16.33
		c0.52-6.79-0.93-14.3-2.15-20.64c-0.36-1.89-0.71-3.72-0.97-5.38c-0.27-1.66-0.46-3.14-0.49-4.31c0.12-1.3,1.1-3.96,2.52-7.19
		c1.42-3.23,3.28-7.02,5.16-10.6c0.34-0.64,0.96-0.98,1.6-1s1.28,0.28,1.67,0.9c1.53,2.47,3,5.1,4.08,7.39
		c1.09,2.29,1.79,4.26,1.82,5.4c0,0.97-0.05,1.97-0.13,3.01c-0.08,1.03-0.19,2.1-0.31,3.18c-0.27,2.42-0.55,4.99-0.54,7.71
		c0.02,2.72,0.33,5.6,1.26,8.63c0.01,0.03,0.02,0.06,0.03,0.09c0.01,0.03,0.02,0.06,0.03,0.09c0.95,2.28,2.18,4.88,4.04,7.27
		c1.86,2.39,4.36,4.57,7.84,6.04c1.74,0.7,3.73,1.22,5.96,1.55c2.23,0.34,4.7,0.49,7.39,0.45c6.4-0.1,13.84-1.28,20.59-2.81
		c6.75-1.54,12.81-3.44,16.45-5.01c1.25-0.54,2.53-1.12,3.82-1.74c1.29-0.62,2.6-1.27,3.92-1.96c0.45-0.23,0.94-0.17,1.31,0.07
		c0.37,0.24,0.61,0.67,0.56,1.18c-0.08,0.84-0.09,1.69-0.02,2.54c0.07,0.85,0.21,1.69,0.42,2.54c0.48,1.82,1.3,3.57,2.47,5.24
		s2.69,3.26,4.54,4.76c0.72,0.57,1.48,1.11,2.26,1.63s1.58,1.01,2.39,1.47c0.23,0.13,0.36,0.36,0.37,0.59
		c0.02,0.23-0.07,0.47-0.28,0.64c-1.02,0.84-1.93,1.68-2.72,2.52s-1.47,1.7-2.06,2.57c-2.26,3.26-3.1,6.98-2.6,10.5
		c0.49,3.52,2.32,6.84,5.36,9.33c1.86,1.55,4.2,2.78,6.86,3.64c2.66,0.86,5.63,1.36,8.73,1.42c2.68,0.06,5.37-0.2,8-0.77
		c2.62-0.57,5.18-1.43,7.58-2.57c0.21-0.1,0.43-0.1,0.63-0.03c0.2,0.08,0.36,0.23,0.45,0.44c0.64,1.5,1.43,2.94,2.34,4.29
		c0.92,1.36,1.97,2.63,3.13,3.79c0.14,0.14,0.21,0.34,0.19,0.52c-0.02,0.19-0.11,0.36-0.29,0.47c-8.65,5.62-16.63,6.71-24.6,5.42
		c-7.97-1.3-15.94-4.97-24.57-8.89l-0.2-0.1l-0.2-0.1c-7.56-3.45-15.24-6.97-23.27-8.96c-8.03-1.99-16.4-2.45-25.34,0.22
		c-2.04,0.6-3.87,1.56-5.44,2.84s-2.88,2.89-3.89,4.78c-1.23,2.3-1.95,4.96-2.15,7.73s0.12,5.67,0.99,8.42
		c0.91,2.83,2.29,5.38,4.08,7.61c1.79,2.22,3.98,4.11,6.48,5.6c0.2,0.12,0.31,0.31,0.33,0.52c0.02,0.2-0.05,0.42-0.22,0.58
		c-3.44,3.24-4.96,6.35-5.47,9.04c-0.51,2.69,0,4.95,0.61,6.52c0.4,1.04,0.95,2.03,1.63,2.95c0.68,0.93,1.48,1.8,2.38,2.61
		c0.21,0.19,0.25,0.46,0.17,0.68c-0.08,0.22-0.29,0.4-0.57,0.4c-6.14-0.05-12.44-1.31-18.68-3.19c-6.24-1.88-12.42-4.39-18.32-6.93
		c-5.07-2.21-9.69-4.19-13.97-5.76s-8.21-2.72-11.9-3.29c-3.93-0.6-8.01-0.29-11.75,0.79s-7.14,2.92-9.73,5.4
		c-1.86,1.79-3.23,3.84-4.06,6.06c-0.84,2.21-1.14,4.59-0.87,7c0.49,4.55,2.72,8.04,5.88,10.7c3.16,2.66,7.23,4.5,11.39,5.78
		c0.26,0.08,0.41,0.29,0.45,0.52c0.04,0.23-0.04,0.48-0.26,0.64c-1.64,1.18-3.12,2.48-4.37,3.94s-2.26,3.05-2.95,4.81
		c-0.03,0.09-0.14,0.15-0.25,0.18c-0.11,0.03-0.23,0.02-0.3-0.05c-0.65-0.73-1.7-2.13-2.98-3.9c-1.28-1.77-2.79-3.9-4.34-6.1
		c-9.29-13.14-15.36-18.39-20.39-21.5S288.22,423.09,283.08,418.5L283.08,418.5L283.08,418.5z M187.58,424.76
		c-0.51,0.27-2.1,1.12-3.57,1.73c-1.46,0.61-2.8,0.99-2.8,0.31c0-0.66,1.39-2.57,2.92-4.31s3.2-3.31,3.76-3.31s0.75,1.25,0.66,2.57
		C188.47,423.08,188.11,424.47,187.58,424.76L187.58,424.76L187.58,424.76z M258.06,391.74c-1.06,0.07-2.14,0.47-3.33,1.11
		c-1.19,0.64-2.49,1.51-3.99,2.53c-1.1,0.75-2.44,1.73-3.86,2.55c-1.42,0.82-2.93,1.49-4.35,1.61c-0.16,0.01-0.31-0.06-0.4-0.17
		c-0.09-0.11-0.12-0.27-0.06-0.42c0.61-1.45,1.51-3.14,2.65-4.87c1.15-1.72,2.55-3.48,4.15-5.07c0.95-0.93,1.93-1.78,2.89-2.52
		c0.96-0.75,1.9-1.39,2.75-1.92c0.2-0.12,0.43-0.17,0.64-0.14c0.22,0.03,0.42,0.13,0.58,0.31c0.69,0.75,1.55,1.06,2.48,1.12
		c0.93,0.05,1.92-0.15,2.87-0.44c0.81-0.25,1.67-0.46,2.54-0.63c0.87-0.17,1.75-0.29,2.62-0.37c0.21-0.02,0.41,0.05,0.57,0.17
		c0.16,0.12,0.28,0.3,0.32,0.5c0.26,1.17,1.06,1.92,1.93,2.41c0.87,0.49,1.81,0.72,2.34,0.84c0.65,0.19,1.44,0.65,2.06,1.09
		c0.62,0.44,1.06,0.85,0.99,0.94c-0.92,1.15-0.85,2.26-0.41,3.37c0.45,1.1,1.28,2.2,1.9,3.33c0.07,0.13,0.02,0.27-0.07,0.34
		s-0.24,0.08-0.34-0.03c-1.33-1.39-3.16-3.13-5.03-4.12c-1.87-1-3.78-1.25-5.27,0.35c-0.17,0.18-0.4,0.3-0.63,0.34s-0.48,0-0.7-0.13
		c-0.68-0.38-1.71-0.93-2.78-1.36C260.04,392.02,258.92,391.69,258.06,391.74z M254.12,424.33c-0.14,0.05-0.49,0.19-0.83,0.35
		s-0.67,0.32-0.8,0.41l-1.03,0.73l-1.03,0.73c-0.34,0.28-0.75,0.4-1.15,0.38s-0.8-0.19-1.11-0.5l-0.01-0.01l-0.01-0.01
		c-0.39-0.39-0.52-0.91-0.42-1.39c0.1-0.48,0.42-0.91,0.93-1.12c3.79-1.54,7.81-2.64,11.89-3.19c4.08-0.55,8.24-0.54,12.31,0.14
		c0.14,0.02,0.34,0.08,0.49,0.15c0.15,0.08,0.25,0.18,0.19,0.31c-0.12,0.24-1.88-0.01-5.16,0.18
		C265.1,421.67,260.31,422.3,254.12,424.33z M256.42,416.7c0.14,0.49,0.51,0.8,0.68,1.06s0.12,0.48-0.57,0.81
		c-0.44,0.22-1.69,0.82-2.82,1.23s-2.15,0.64-2.15,0.13c0-0.53,0.31-1.5,1.1-2.69c0.78-1.19,2.03-2.59,3.91-3.97
		c0.41-0.29,0.27,0.14,0.09,0.85C256.46,414.83,256.22,415.83,256.42,416.7L256.42,416.7L256.42,416.7z M264.9,414.32
		c0,0.82-0.3,1.56-0.78,2.09c-0.49,0.54-1.16,0.87-1.91,0.87c-0.73,0-1.1-0.33-1.28-0.87c-0.18-0.54-0.18-1.28-0.18-2.09
		c0-0.82,0-1.55,0.18-2.07c0.18-0.53,0.55-0.85,1.28-0.85c0.75,0,1.42,0.32,1.91,0.85C264.6,412.77,264.9,413.5,264.9,414.32
		L264.9,414.32L264.9,414.32z M238.48,409.53c2,0.24,4.01-0.05,5.97-0.62c1.95-0.57,3.84-1.44,5.61-2.35
		c0.09-0.04,0.17-0.02,0.22,0.04s0.07,0.14,0.02,0.22c-0.73,1.16-1.38,2.42-1.93,3.71c-0.55,1.3-1.01,2.63-1.35,3.95
		c-0.04,0.15,0.04,0.28,0.15,0.34c0.11,0.06,0.27,0.05,0.37-0.07c1.59-1.8,3.33-3.5,5.33-4.86c1.99-1.36,4.23-2.4,6.8-2.86
		c0.56-0.1-1.34,1.09-3.92,3.18s-5.86,5.08-8.08,8.59c-0.04,0.07-0.08,0.13-0.12,0.2c-0.04,0.07-0.07,0.14-0.11,0.21l-0.97,2.03
		l-0.97,2.03c-0.09,0.19-0.26,0.33-0.44,0.38c-0.19,0.05-0.4,0.03-0.58-0.08c-1.23-0.74-2.59-1.39-4.11-1.91
		c-1.51-0.52-3.16-0.92-4.95-1.17c-0.23-0.03-0.45-0.11-0.65-0.24s-0.36-0.29-0.48-0.49c-1.48-2.33-3.56-4.46-4.88-6.81
		s-1.88-4.93-0.3-8.15c0.15-0.31,0.45-0.49,0.76-0.52c0.31-0.03,0.64,0.08,0.85,0.36c0.64,0.82,1.63,1.94,2.94,2.91
		C234.96,408.48,236.58,409.3,238.48,409.53z M189.73,392.45c-0.78-1.72-2.43-2.31-4.24-2.32s-3.78,0.58-5.2,1.2
		c-1.1,0.47-2.15,1.05-3.16,1.68c-1.01,0.63-2,1.31-2.98,2.01c-0.08,0.05-0.22,0.09-0.35,0.09c-0.13,0.01-0.25-0.01-0.28-0.06
		c-0.09-0.15-0.2-0.29-0.32-0.43c-0.12-0.14-0.27-0.28-0.43-0.42c-1.11-0.95-2.32-1.01-3.37-0.77c-1.05,0.24-1.92,0.79-2.35,1.04
		c-0.22,0.14-0.45,0.28-0.67,0.42c-0.22,0.14-0.45,0.27-0.67,0.4c-0.05,0.03-0.12,0.03-0.18,0.02c-0.06-0.01-0.11-0.05-0.11-0.08
		c0-0.27-0.04-0.54-0.1-0.8s-0.15-0.51-0.27-0.75c-0.02-0.04-0.01-0.11,0.02-0.18s0.06-0.14,0.1-0.16c0.18-0.09,0.35-0.18,0.52-0.28
		c0.17-0.09,0.34-0.18,0.51-0.28c3.78-2.23,6.09-4.02,7.48-5.47c1.39-1.45,1.86-2.55,1.99-3.39c0.05-0.32,0.19-0.61,0.4-0.84
		c0.21-0.23,0.49-0.39,0.81-0.44c1.79-0.32,3.86-0.49,5.91-0.29c2.05,0.2,4.07,0.77,5.76,1.93c1.02,0.7,2.06,1.41,3.12,1.74
		c1.06,0.33,2.14,0.28,3.25-0.55c0.25-0.21,0.47-0.42,0.65-0.64c0.18-0.22,0.32-0.45,0.44-0.68c0.09-0.18,0.23-0.3,0.4-0.35
		c0.17-0.05,0.36-0.04,0.53,0.05c3.23,1.81,6.07,3.44,8.57,5.48c2.5,2.04,4.65,4.49,6.51,7.94c1.02,1.9,0.83,2.87-0.05,3.23
		c-0.88,0.36-2.46,0.11-4.21-0.41c-0.73-0.22-1.6-0.58-2.55-1.01c-0.95-0.43-1.99-0.94-3.06-1.47c-1.84-0.92-3.77-1.88-5.71-2.68
		c-1.94-0.8-3.91-1.44-5.84-1.73c-0.1-0.01-0.29-0.15-0.46-0.3S189.78,392.55,189.73,392.45z M197.53,414.01
		c0.9,0,1.72,0.37,2.31,0.96c0.59,0.59,0.96,1.41,0.96,2.31s-0.37,1.72-0.96,2.31c-0.59,0.59-1.41,0.96-2.31,0.96
		c-0.9,0-1.18-0.43-1.24-1.09c-0.06-0.66,0.11-1.54,0.11-2.44s-0.17-1.65-0.11-2.17C196.34,414.31,196.62,414.01,197.53,414.01
		L197.53,414.01L197.53,414.01z M206.68,377.29c6.54-0.37,13.51-0.47,20.17-0.21c6.66,0.26,13.02,0.87,18.33,1.91
		c-3.08,2.15-5.72,4.83-7.89,7.59c-2.17,2.76-3.88,5.59-5.1,8.03c-0.13,0.25-0.31,0.45-0.53,0.6s-0.47,0.26-0.75,0.32
		c-0.9,0.19-1.81,0.82-2.65,1.6s-1.62,1.72-2.26,2.55c-0.14,0.19-0.36,0.23-0.54,0.17c-0.18-0.06-0.34-0.22-0.37-0.45
		c-0.45-3.82-3.81-8.52-7.67-12.69S209.19,378.93,206.68,377.29L206.68,377.29L206.68,377.29z M279.47,316.49
		c0.06,0.15,0,0.3-0.11,0.38c-0.11,0.08-0.26,0.1-0.39,0c-4.1-3.09-7.95-6.32-11.28-9.56c-3.32-3.23-6.12-6.47-8.1-9.57
		c-0.31-0.48-0.22-1.03,0.08-1.4s0.81-0.58,1.36-0.38c2.37,0.84,4.88,1.67,7.44,2.47s5.17,1.58,7.71,2.34
		c0.21,0.06,0.39,0.18,0.52,0.35s0.21,0.36,0.23,0.58c0.1,1.24,0.34,3.91,0.76,6.79S278.69,314.44,279.47,316.49z M297.34,317.91
		c-2.6-1.34-4.24-3.84-5.25-6.72s-1.4-6.12-1.52-8.96c0-0.01,0-0.01,0-0.02c0-0.01,0-0.01,0-0.02c-0.02-0.69,0.32-1.27,0.83-1.62
		c0.51-0.35,1.17-0.45,1.81-0.19c1.64,0.68,3.33,1.41,5.08,2.21c1.75,0.8,3.56,1.68,5.46,2.63c0.88,0.44,2.4,1.34,4.39,2.61
		c1.99,1.27,4.44,2.92,7.17,4.84c0.49,0.35,0.71,0.9,0.68,1.43c-0.03,0.53-0.33,1.05-0.86,1.32c-3.57,1.85-6.97,3.01-9.99,3.43
		S299.44,318.99,297.34,317.91L297.34,317.91L297.34,317.91z M345.39,343.55c0.27,0.21,0.32,0.54,0.21,0.8
		c-0.1,0.26-0.36,0.47-0.7,0.45c-5.16-0.35-11.67-1.78-18.22-3.7c-6.54-1.92-13.12-4.33-18.4-6.64c-0.57-0.25-0.8-0.78-0.74-1.28
		c0.06-0.5,0.41-0.96,1.02-1.08c2.13-0.4,4.31-0.99,6.52-1.79s4.47-1.79,6.74-2.98c0.35-0.18,0.74-0.26,1.11-0.24
		c0.38,0.02,0.75,0.15,1.07,0.39c1.88,1.38,6.04,4.45,10.33,7.64S343.03,341.65,345.39,343.55z M320.7,247.35
		c1.31-15.95,6.81-27.42,13.43-35.85c6.62-8.43,14.36-13.82,20.15-17.61c0.76-0.5,1.62-0.36,2.21,0.11c0.59,0.47,0.9,1.28,0.57,2.13
		c-5.65,14.47-7.68,26.74-6.26,39s6.3,24.49,14.47,38.89c0.27,0.48,0.41,1.01,0.41,1.54c0,0.53-0.13,1.06-0.4,1.54
		c-2.44,4.31-5.44,9.95-7.82,15.34c-2.38,5.38-4.14,10.51-4.07,13.78c0.03,1.73,0.26,3.65,0.57,5.68c0.32,2.03,0.74,4.18,1.16,6.39
		c0.31,1.61,0.73,4.26,1.14,7.08c0.41,2.82,0.8,5.82,1.03,8.1c0.03,0.29-0.14,0.51-0.36,0.6c-0.22,0.09-0.5,0.05-0.69-0.17
		c-7.26-8.58-13.77-15.56-21.19-21.75c-7.43-6.2-15.78-11.61-26.74-17.09c-9.46-4.75-16.89-8.26-23.98-10.84
		c-7.09-2.58-13.85-4.24-21.96-5.27c-0.42-0.05-0.72-0.34-0.84-0.68c-0.12-0.34-0.06-0.75,0.25-1.04c1.26-1.21,2.72-2.47,4.39-3.84
		s3.56-2.82,5.66-4.41c1.19-0.88,2.38-1.78,3.57-2.7s2.38-1.85,3.55-2.81c0.15-0.13,0.34-0.18,0.53-0.17s0.37,0.08,0.51,0.22
		c1.75,1.68,3.54,3.23,5.33,4.62s3.58,2.6,5.34,3.61c7.74,4.35,13.55,5.98,17.96,5.54c4.41-0.43,7.43-2.92,9.61-6.8
		c1.82-3.23,2.31-7.17,2.42-11.22C320.73,255.21,320.44,251.04,320.7,247.35L320.7,247.35L320.7,247.35z M150.14,372.46
		c0.08-0.17,0.16-0.36,0.25-0.56s0.18-0.39,0.25-0.56c0.04-0.09,0.1-0.17,0.17-0.24c0.07-0.07,0.15-0.13,0.24-0.17
		c0.92-0.42,1.86-0.59,2.84-0.83s2-0.55,3.05-1.25c0.68-0.44,1.47-0.99,2.36-1.62c0.89-0.63,1.86-1.33,2.92-2.08
		c1.57-1.14,3.23-2.35,4.88-3.52c1.65-1.16,3.27-2.27,4.75-3.18c1.84-1.11,2.67-2.24,2.98-3.26c0.31-1.01,0.09-1.9-0.19-2.49
		c-0.07-0.16-0.15-0.32-0.25-0.48s-0.21-0.32-0.34-0.46c-0.14-0.17-0.19-0.38-0.14-0.58c0.04-0.2,0.17-0.38,0.36-0.48
		c0.27-0.14,0.53-0.27,0.8-0.41c0.27-0.13,0.54-0.27,0.82-0.39c0.17-0.08,0.37-0.09,0.54-0.04c0.18,0.05,0.33,0.16,0.44,0.32
		c0.66,0.99,1.53,1.41,2.5,1.45c0.96,0.04,2.02-0.3,3.03-0.8c0.39-0.19,0.89-0.43,1.48-0.74c0.6-0.31,1.29-0.67,2.09-1.1
		c11.8-6.19,21.83-8.4,31.69-7.7c9.86,0.7,19.56,4.3,30.67,9.74c1.28,0.61,2.57,1.24,3.76,1.39c1.19,0.15,2.28-0.18,3.15-1.49
		c0.14-0.22,0.26-0.43,0.35-0.64c0.09-0.21,0.16-0.41,0.2-0.61c0.05-0.23,0.21-0.41,0.41-0.5c0.2-0.1,0.44-0.11,0.65-0.02
		c4.93,2.04,9.2,4.4,12.75,6.7c3.55,2.3,6.38,4.55,8.44,6.36c3.14,2.72,5.76,5.36,6.98,8.21c1.22,2.85,1.05,5.9-1.39,9.44
		c-0.2,0.29-0.51,0.42-0.81,0.41s-0.61-0.16-0.79-0.46c-1.19-1.9-3.03-3.48-5.39-4.42c-2.35-0.94-5.22-1.25-8.46-0.6
		c-0.25,0.05-0.51,0.02-0.74-0.07c-0.22-0.1-0.41-0.26-0.52-0.5c-0.48-1.06-1.78-1.95-3.35-2.36c-1.57-0.42-3.41-0.37-4.94,0.43
		c-0.22,0.11-0.45,0.16-0.69,0.15c-0.24-0.01-0.47-0.07-0.69-0.18c-9.17-4.39-26.11-6.94-42.97-6.97
		c-16.86-0.03-33.63,2.44-42.47,8.09c-0.1,0.06-0.2,0.12-0.3,0.16c-0.1,0.04-0.21,0.08-0.32,0.11c-1.84,0.45-4.81,1.19-7.05,2.56
		c-2.24,1.36-3.74,3.34-2.63,6.23c0.1,0.27,0.11,0.56,0.03,0.82c-0.08,0.26-0.25,0.49-0.49,0.65c-2.59,1.67-6.63,4-10.42,5.67
		c-3.79,1.68-7.32,2.7-8.89,1.77c-0.56-0.34-0.48-1.04-0.17-1.79s0.83-1.56,1.16-2.12c0.71-1.23,1.85-2.52,2.57-3.9
		c0.72-1.38,1.04-2.87,0.12-4.49c-0.07-0.12-0.09-0.27-0.06-0.39s0.11-0.24,0.23-0.31c0.45-0.25,1.16-0.74,1.98-1.66
		C148.4,375.77,149.31,374.42,150.14,372.46z M250.65,483.33c-1.63,2.7-3.65,4.29-5.74,5.24c-2.1,0.95-4.28,1.27-6.25,1.44
		c-3.34,0.26-6.84-0.29-10.08-1.46c-3.23-1.17-6.2-2.95-8.45-5.15c-0.42-0.41-0.58-0.95-0.53-1.48c0.06-0.53,0.33-1.04,0.8-1.39
		c0.23-0.17,0.46-0.34,0.68-0.52c0.23-0.18,0.46-0.37,0.68-0.56c0.19-0.16,0.42-0.22,0.64-0.2c0.22,0.02,0.44,0.13,0.59,0.32
		c1.91,2.31,4.6,3.77,7.45,4.62c2.84,0.84,5.83,1.07,8.35,0.89c2.29-0.16,4.36-0.64,6.11-1.38c1.76-0.74,3.21-1.74,4.25-2.94
		c0.07-0.09,0.17-0.14,0.27-0.16c0.1-0.02,0.21-0.01,0.31,0.04c0.05,0.02,0.1,0.05,0.16,0.08c0.05,0.03,0.11,0.05,0.17,0.08
		c0.48,0.23,0.79,0.65,0.9,1.12C251.07,482.4,250.98,482.91,250.65,483.33L250.65,483.33L250.65,483.33z M264.52,476.79
		c-4.92,0.15-8.61-1.33-11.46-3.62c-2.85-2.28-4.86-5.36-6.41-8.39l-0.39-0.98l-0.39-0.98c-0.13-0.34-0.45-0.48-0.75-0.46
		c-0.3,0.03-0.58,0.23-0.64,0.59l-0.18,0.94l-0.18,0.94c-0.12,0.65-0.2,1.47-0.23,2.41c-0.02,0.94,0.02,1.98,0.17,3.08
		c0.04,0.3-0.14,0.52-0.36,0.61s-0.51,0.04-0.68-0.21c-1.53-2.2-2.39-4.93-3.23-7.12c-0.84-2.19-1.66-3.83-3.09-3.84
		c-1.26-0.03-1.92,0.65-2.37,1.56c-0.45,0.91-0.69,2.04-1.1,2.89c-0.9,1.89-1.66,3.5-2.51,4.95c-0.85,1.44-1.8,2.72-3.05,3.96
		c-0.28,0.27-0.65,0.26-0.9,0.09c-0.26-0.17-0.41-0.5-0.25-0.86c0.8-1.8,1.53-3.7,2.08-5.31c0.55-1.61,0.91-2.93,0.96-3.57
		l0.03-0.27l0.03-0.27c0.05-0.56-0.28-0.98-0.71-1.14s-0.95-0.08-1.29,0.36l-0.17,0.22l-0.17,0.22
		c-5.03,8.12-17.06,15.24-29.12,17.91c-12.06,2.67-24.17,0.89-29.37-8.77c-0.06-0.11-0.05-0.19-0.01-0.23
		c0.04-0.03,0.13-0.02,0.23,0.08c0.64,0.64,1.28,1.17,1.9,1.61c0.62,0.44,1.22,0.79,1.76,1.07c0.89,0.46,1.67,0.82,2.35,1.08
		s1.27,0.39,1.77,0.39c0.31,0,0.58-0.05,0.82-0.16c0.24-0.11,0.44-0.28,0.61-0.52c0.39-0.58,0.39-1.22-0.07-2.04
		s-1.38-1.84-2.83-3.16c-2.07-1.91-3.79-4.45-4.97-7.19s-1.85-5.69-1.84-8.43c0-0.1,0.07-0.17,0.16-0.19
		c0.08-0.02,0.18,0.02,0.22,0.11c0.76,1.68,2,3.12,3.29,4.02s2.59,1.26,3.49,0.79c0.78-0.7,0.26-1.97-0.57-3.29
		c-0.83-1.32-1.96-2.68-2.39-3.55c-0.69-1.34-0.82-2.53-0.61-3.56c0.21-1.04,0.77-1.92,1.48-2.67c0.1-0.11,0.24-0.12,0.36-0.07
		c0.11,0.05,0.2,0.17,0.18,0.32c-0.1,1.43,0.04,2.82,0.43,4.1s1.03,2.44,1.91,3.42c0.9,0.99,2.42,2.2,4.78,2.8
		c2.37,0.6,5.58,0.58,9.89-0.9c3.15-1.05,6.72-2.55,10.28-4.14c3.55-1.59,7.09-3.26,10.15-4.67c0.78-0.03,1.88-0.79,3.49-1.45
		c1.61-0.66,3.73-1.22,6.55-0.86c3.73,1.28,6.75,2.35,9.49,3.01c2.74,0.67,5.2,0.93,7.8,0.59c2.93,0.63,5.08,0.82,7.09,1.42
		s3.89,1.58,6.25,3.79c1.45,1.33,2.91,2.68,4.51,3.7c1.6,1.02,3.34,1.71,5.33,1.71c1.79,0,3.55-0.53,5-1.49
		c1.46-0.96,2.61-2.34,3.18-4.04c0.05-0.16,0.13-0.23,0.19-0.22s0.11,0.11,0.11,0.29c0,0.58-0.05,1.17-0.14,1.79
		c-0.09,0.62-0.23,1.27-0.41,1.97c-0.1,0.32-0.2,0.65-0.3,0.96c-0.1,0.31-0.19,0.61-0.28,0.88c-0.26,0.8-0.56,1.77-0.49,2.54
		c0.07,0.77,0.52,1.34,1.78,1.34c1.92,0,3.35-1.54,4.29-3.49c0.94-1.95,1.39-4.32,1.36-5.97c0-0.09,0.05-0.17,0.13-0.2
		c0.07-0.03,0.16-0.02,0.23,0.04c5.52,5.53,5.61,11.49,2.75,16.05C276.61,473.67,270.8,476.84,264.52,476.79L264.52,476.79
		L264.52,476.79z M278.65,449.14c-0.64-0.44-1.29-0.87-1.91-1.16c-0.61-0.29-1.19-0.46-1.69-0.39c-0.1,0.01-0.19,0.01-0.28-0.02
		s-0.16-0.09-0.21-0.17c-0.21-0.34-0.44-0.69-0.68-1.03c-0.25-0.34-0.51-0.68-0.81-1.01c-0.46-0.53-1.63-1.71-2.92-2.77
		s-2.68-1.99-3.58-2.03c-0.24-0.02-0.46,0.02-0.65,0.09s-0.35,0.18-0.47,0.32c-0.49,0.43-0.59,0.89-0.46,1.38
		c0.13,0.49,0.5,1.01,0.95,1.56c0.05,0.06,0.06,0.13,0.05,0.2c-0.01,0.07-0.05,0.13-0.12,0.16c-0.31,0.14-0.55,0.4-0.66,0.71
		c-0.12,0.31-0.12,0.66,0.03,1c0.31,0.66,0.55,1.3,0.56,1.97s-0.22,1.36-0.87,2.15c-1.16,1.43-2.64,1.67-4.06,1.33
		c-1.43-0.33-2.8-1.23-3.73-2.08c-0.82-0.73-1.71-1.53-2.81-2.33c-1.1-0.8-2.41-1.6-4.06-2.31c-0.34-0.15-0.56-0.44-0.63-0.76
		c-0.07-0.32,0.01-0.68,0.26-0.96c1.08-1.2,1.85-2.6,2.27-4.12c0.42-1.52,0.49-3.16,0.16-4.86c-0.13-0.71-0.34-1.43-0.61-2.14
		c-0.27-0.71-0.61-1.42-1.01-2.12c-0.16-0.28-0.16-0.6-0.05-0.87c0.12-0.27,0.35-0.48,0.67-0.56c4.75-1.17,8.12-2.06,11.69-2.62
		c3.58-0.56,7.36-0.79,12.97-0.62c8.12,3.21,12.72,7.03,14.46,12.53s0.59,12.67-2.78,22.6c-0.13,0.42-0.32,0.89-0.55,1.38
		s-0.52,1.02-0.84,1.57c-0.05,0.09-0.13,0.12-0.19,0.11c-0.06-0.02-0.1-0.08-0.09-0.18c0.22-2.94-0.47-5.54-1.78-7.85
		C282.9,452.91,280.95,450.9,278.65,449.14L278.65,449.14L278.65,449.14z M315.79,533.17l3.07-1.57l3.07-1.57
		c0.42-0.21,0.55-0.64,0.45-1c-0.09-0.37-0.41-0.67-0.88-0.66l-1.83,0.07l-1.83,0.07c-2.22,0.06-5.5,0.97-9.13,2.32
		s-7.62,3.13-11.27,4.94c-0.15,0.07-0.29,0.01-0.35-0.1c-0.07-0.11-0.06-0.26,0.07-0.36c6.26-4.74,13.45-9.07,20.29-12.06
		c6.84-2.99,13.33-4.63,18.19-3.99c-0.56,1.45-1.02,2.88-1.37,4.29c-0.34,1.41-0.57,2.8-0.68,4.14c-0.1,1.26-0.07,2.56,0.1,3.87
		c0.17,1.31,0.46,2.64,0.89,3.95c-8.43,0.73-15.27,1.75-21.92,3.78c-6.64,2.03-13.08,5.06-20.68,9.83
		c-0.33,0.21-0.72,0.28-1.08,0.23c-0.37-0.05-0.71-0.24-0.94-0.55c-0.01-0.01-0.02-0.02-0.02-0.03c-0.01-0.01-0.02-0.02-0.02-0.03
		c-0.18-0.25-0.23-0.55-0.17-0.83c0.06-0.28,0.23-0.55,0.49-0.72c3.02-2.07,7.66-4.69,12.42-7.23S312.28,534.94,315.79,533.17
		L315.79,533.17L315.79,533.17z M283.78,531.93c-0.36-0.64-0.76-1.31-1.18-1.99c-0.42-0.68-0.87-1.38-1.33-2.08
		c-0.07-0.1-0.05-0.21,0.01-0.29c0.06-0.08,0.16-0.13,0.28-0.09c1.74,0.54,3.52,1.08,5.23,1.57c1.71,0.49,3.35,0.95,4.8,1.34
		c0.17,0.05,0.29,0.18,0.33,0.33c0.04,0.15,0,0.32-0.12,0.46c-0.33,0.36-0.65,0.71-0.96,1.07s-0.61,0.72-0.9,1.09
		c-0.08,0.1-0.19,0.17-0.31,0.2c-0.12,0.03-0.25,0.02-0.37-0.04c-0.71-0.32-1.45-0.57-2.22-0.76c-0.77-0.19-1.56-0.31-2.37-0.37
		c-0.11-0.01-0.31-0.08-0.5-0.17C283.98,532.1,283.82,531.99,283.78,531.93z M274.7,542.83c0.8-0.84,1.76-1.54,2.79-2.11
		c1.03-0.57,2.12-1.01,3.2-1.31c0.39-0.11,0.75,0.04,0.97,0.3s0.3,0.65,0.12,1.01c-0.54,1.13-0.86,2.36-0.97,3.65
		c-0.11,1.29,0.01,2.62,0.36,3.96c0.36,1.39,0.94,2.68,1.7,3.83c0.76,1.16,1.69,2.17,2.76,3.01c0.13,0.11,0.17,0.27,0.12,0.4
		c-0.05,0.14-0.17,0.25-0.34,0.26c-2.5,0.08-5.05-0.19-7.28-1.05c-2.22-0.86-4.12-2.31-5.31-4.58c-0.43-1.36-0.49-2.66-0.17-3.89
		C272.97,545.08,273.65,543.92,274.7,542.83L274.7,542.83L274.7,542.83z M234.02,529.67c3.12,0.18,10.78,3.19,17.94,7.02
		c7.16,3.83,13.82,8.47,14.95,11.91c0.04,0.11,0,0.23-0.08,0.3s-0.19,0.11-0.31,0.08l-17.95-4.69l-17.95-4.69
		c-3.73-2.11-4.28-4.68-3.2-6.69C228.5,530.91,231.21,529.48,234.02,529.67L234.02,529.67L234.02,529.67z M230.06,603.36
		c-4.15-1.45-11.3-4.05-18.09-6.54c-6.78-2.5-13.2-4.9-15.88-5.96c-0.17-0.07-0.32-0.17-0.43-0.31s-0.2-0.3-0.24-0.48l-1.8-7.88
		l-1.8-7.88c-0.06-0.28,0.04-0.53,0.22-0.7c0.18-0.17,0.45-0.24,0.72-0.15c6.11,2.01,12.06,4.05,18.06,6.01
		c5.99,1.97,12.02,3.86,18.27,5.6c0.28,0.08,0.52,0.24,0.7,0.46c0.18,0.22,0.29,0.49,0.31,0.78l0.57,8.07l0.57,8.07
		c0.02,0.32-0.12,0.6-0.35,0.77C230.67,603.4,230.36,603.47,230.06,603.36z M195.62,564.22c-0.48-0.17-1.03-0.53-1.42-0.86
		c-0.39-0.34-0.61-0.65-0.41-0.74c3.9-1.75,9.66-4.05,15.85-6.54s12.8-5.19,18.39-7.73l19.33,4.19l19.33,4.19
		c0.2,0.04,0.33,0.2,0.35,0.38s-0.04,0.36-0.23,0.46l-16.24,9.09l-16.24,9.09c-1.48,0.22-10.83-2.54-19.98-5.42
		S196.27,564.46,195.62,564.22L195.62,564.22L195.62,564.22z M256.8,523.62c0.19,0.1,0.57,0.36,1.28,0.93s1.75,1.47,3.25,2.84
		c1.58,1.41,3.35,3.11,5.04,4.82c1.68,1.71,3.27,3.44,4.48,4.92c0.09,0.11,0.13,0.25,0.13,0.39c-0.01,0.14-0.07,0.27-0.17,0.38
		c-0.17,0.18-0.34,0.37-0.51,0.55c-0.17,0.19-0.33,0.38-0.48,0.57c-0.1,0.12-0.23,0.19-0.37,0.21s-0.28-0.02-0.4-0.12
		c-3.04-2.51-6.85-4.98-10.81-7.26c-3.96-2.28-8.05-4.38-11.64-6.12c-1.34-0.65-2.6-1.25-3.55-1.84s-1.62-1.16-1.79-1.73
		c-0.1-0.29-0.09-0.65,0.04-1.09c0.13-0.44,0.37-0.95,0.71-1.53c1.12-1.9,2.62-3.53,4.34-4.76c1.72-1.23,3.67-2.06,5.7-2.38
		c2.14-0.34,4.2-0.12,6.13,0.54s3.72,1.76,5.34,3.17c2.3,2.03,4.84,4.81,7.3,7.8s4.83,6.2,6.76,9.07c0.05,0.07,0.08,0.16,0.06,0.26
		s-0.08,0.21-0.24,0.31c-0.24,0.15-0.38,0.12-0.48,0.04s-0.15-0.22-0.21-0.28c-2.83-3.38-6.21-6.42-9.54-8.71
		c-3.33-2.28-6.62-3.8-9.28-4.14l-2.82-0.36l-2.82-0.36c-0.27-0.03-0.47,0.13-0.54,0.33c-0.07,0.21-0.02,0.46,0.21,0.6l2.44,1.48
		L256.8,523.62z M309.7,596.81c0.52,2.29,1.3,4.74,2.34,7.04c1.04,2.31,2.34,4.48,3.91,6.22c0.13,0.15,0.18,0.33,0.16,0.5
		c-0.03,0.17-0.13,0.33-0.3,0.43l-3.22,1.84l-3.22,1.83c-0.09,0.05-0.2,0.05-0.28,0c-0.08-0.05-0.14-0.13-0.14-0.24
		c0,0,0.05-3.33,0.13-7.2c0.08-3.87,0.17-8.27,0.26-10.41c0-0.11,0.08-0.16,0.16-0.17C309.59,596.66,309.67,596.71,309.7,596.81z
		 M301.63,552.66c-0.46-0.07-0.78-0.36-0.88-0.68c-0.11-0.32,0-0.67,0.38-0.85c6.21-2.92,12.48-5.02,18.78-6.29
		c6.3-1.27,12.64-1.7,18.97-1.3c0.53,0.7,1.09,1.38,1.69,2.03c0.6,0.65,1.24,1.28,1.92,1.88c-4.26,3.2-11.85,4.87-19.69,5.56
		C314.96,553.7,306.87,553.4,301.63,552.66L301.63,552.66L301.63,552.66z M473.98,504.41c-0.05,0.2-0.19,0.35-0.35,0.42
		c-0.17,0.07-0.37,0.06-0.55-0.05c-0.98-0.61-2-1.17-3.08-1.66s-2.19-0.94-3.36-1.33c-2.58-0.87-5.36-1.41-8.25-1.62
		c-2.89-0.21-5.89-0.08-8.92,0.38c-0.57,0.09-1.05-0.18-1.31-0.59s-0.29-0.95,0.04-1.42c2.4-3.38,5.42-8.84,7.28-13.68
		s2.56-9.04,0.31-9.91c-2.23-0.68-4.9,3.49-8.55,8.38s-8.26,10.51-14.37,12.74c-2.93,1.07-5.63,1.51-7.56,1.36
		c-1.92-0.15-3.06-0.9-2.86-2.21c0.54-3.83,2.95-7.27,5.21-10.52c2.26-3.26,4.36-6.33,4.29-9.4c-0.09-4.51-2.12-4.41-4.51-2.88
		c-2.39,1.53-5.13,4.51-6.63,5.77c-4.8,4.05-9.43,7.41-13.43,9.91c-4,2.5-7.36,4.12-9.62,4.68c-8.24,1.99-8.67-0.54-6.51-4.02
		c2.17-3.47,6.93-7.89,9.09-9.65c6.57-5.42,7.47-8.69,5.55-9.85s-6.66-0.22-11.37,2.78c-5.45,3.47-9.92,5.93-13.56,7.68
		c-3.65,1.74-6.47,2.76-8.63,3.34c-5.29,1.41-7.84,0.17-7.8-2.01c0.03-2.18,2.65-5.29,7.67-7.62c2.3-1.05,5.67-3.13,8.22-5.38
		c2.55-2.25,4.29-4.68,3.32-6.45c-0.51-2.53-5.87-1.69-11.74,0s-12.23,4.23-14.75,5.1c-7.51,2.57-13.75,1.97-16.85,0.02
		c-3.1-1.95-3.07-5.26,1.97-8.11c2.89-1.65,6.6-2.97,10.39-4.02c3.78-1.05,7.64-1.83,10.82-2.41c2.43-0.46,5.79-1.46,8.39-2.75
		s4.45-2.85,3.87-4.43c-1.87-3.6-13.37-3.66-24.59-4.51c-11.22-0.85-22.17-2.51-22.93-9.33c-0.27-2.41,1.76-4.06,4.32-5.02
		c2.56-0.97,5.64-1.27,7.46-0.99c3.49,0.53,7.45,1.83,11.35,3.35c3.91,1.52,7.76,3.26,11.05,4.68c11.19,4.86,22.69,9.13,34.04,10.7
		c11.36,1.57,22.57,0.46,33.19-5.44c0.21-0.12,0.44-0.22,0.67-0.3c0.23-0.08,0.47-0.13,0.71-0.17c2.76-0.39,5.47-1.01,8.05-1.77
		c2.58-0.75,5.01-1.64,7.21-2.53c0.44-0.18,0.9-0.1,1.24,0.14s0.57,0.64,0.55,1.12c-0.11,2.92,0.04,5.9,0.67,8.73
		c0.63,2.84,1.74,5.53,3.54,7.87c3.49,4.57,8.46,6.82,13.45,6.82s10-2.24,13.58-6.65c0.24-0.29,0.6-0.7,0.98-0.82
		c0.38-0.12,0.77,0.05,1.07,0.92c1.03,2.99,2.08,5.34,3.42,7.49c1.35,2.16,2.99,4.12,5.19,6.34c0.32,0.32,0.49,0.74,0.5,1.17
		s-0.14,0.85-0.44,1.18c-1.2,1.31-3.17,3.58-4.94,6.16c-1.78,2.58-3.36,5.47-3.8,8.01c-0.3,1.71-0.26,3.94-0.06,6.12
		c0.19,2.18,0.54,4.31,0.87,5.81c0.18,0.83,0.6,1.48,0.53,2.12s-0.65,1.26-2.47,2.02c-1.26,0.53-2.67,1.39-3.84,2.46
		C475.24,501.75,474.3,503.03,473.98,504.41z M495.62,538.05c-0.8,5.04-1.51,9.24-2.51,12.85c-1,3.61-2.28,6.62-4.21,9.29
		c-0.07,0.1-0.18,0.18-0.29,0.22s-0.24,0.05-0.36,0.02c-0.9-0.23-3.12-0.71-5.44-1.22c-2.32-0.5-4.74-1.02-6.06-1.32
		c-0.19-0.04-0.3-0.18-0.33-0.34c-0.03-0.16,0.03-0.33,0.19-0.44c3.64-2.48,6.03-5.58,7.59-8.92c1.56-3.34,2.29-6.91,2.62-10.34
		c0.01-0.08,0.11-0.2,0.22-0.29c0.12-0.09,0.25-0.16,0.34-0.15c1.25,0.13,2.59,0.11,3.92,0.05s2.68-0.17,3.93-0.22
		c0.09,0,0.19,0.13,0.27,0.3C495.59,537.71,495.64,537.91,495.62,538.05z M491.96,525.32c-0.66-2.7-1.34-5.78-2.17-8.92
		c-0.84-3.14-1.84-6.34-3.14-9.27c-0.08-0.17-0.07-0.35-0.01-0.51s0.19-0.28,0.37-0.34c7.65-2.67,17.54-3.33,26.5-2.77
		s16.98,2.35,20.9,4.59c0.1,0.06,0.17,0.13,0.23,0.22c0.05,0.09,0.08,0.2,0.08,0.31c0.01,1.39-0.01,3.1-0.06,4.62
		s-0.12,2.84-0.22,3.43c-0.01,0.08-0.04,0.16-0.08,0.23s-0.1,0.13-0.16,0.18c-4.69,3.64-11.87,5.92-19.4,7.28
		c-7.53,1.35-15.4,1.78-21.46,1.71c-0.2,0-0.52-0.13-0.8-0.29C492.23,525.63,491.99,525.44,491.96,525.32z M538.18,486.21
		c-0.26-0.01-0.51-0.06-0.75-0.15c-0.24-0.09-0.46-0.22-0.67-0.38c-1.57-1.2-3.61-2.35-6-3.7c-2.39-1.34-5.13-2.87-8.09-4.85
		c-1.89-1.28-3.78-2.46-5.66-3.56c-1.89-1.1-3.77-2.1-5.65-3.01c-0.3-0.15-0.45-0.43-0.44-0.71c0.01-0.28,0.17-0.56,0.47-0.69
		c2.72-1.17,4.87-2.83,6.47-4.99c1.6-2.16,2.63-4.8,3.11-7.94c0.05-0.34,0.28-0.59,0.56-0.7c0.28-0.11,0.62-0.08,0.89,0.14
		c0.51,0.42,1.03,0.83,1.54,1.2c0.51,0.38,1.02,0.73,1.53,1.06c8.12,5.3,15.22,5.01,20.3,1.34c5.08-3.67,8.14-10.72,8.17-18.94
		c0-0.53,0.31-0.95,0.73-1.15c0.42-0.2,0.94-0.18,1.37,0.14c0.87,0.66,1.77,1.23,2.7,1.7c0.93,0.47,1.88,0.85,2.85,1.12
		c1.78,0.5,3.58,0.66,5.36,0.48c1.78-0.18,3.55-0.71,5.27-1.57c0.56-0.28,1.18-0.25,1.69,0c0.51,0.25,0.91,0.73,1.05,1.34
		c0.47,2.16,1.19,5.35,2.03,8.4c0.84,3.05,1.79,5.95,2.72,7.54c1.34,2.24,2.97,4.03,4.79,5.29c1.82,1.26,3.83,1.99,5.94,2.13
		c1.61,0.12,3.19-0.1,4.72-0.66c1.53-0.55,3-1.44,4.38-2.62c0.2-0.17,0.46-0.21,0.68-0.14s0.42,0.25,0.5,0.5
		c0.19,0.61,0.38,1.2,0.58,1.77c0.2,0.57,0.4,1.13,0.61,1.68c0.25,0.67,0.23,1.37-0.02,1.98s-0.72,1.13-1.37,1.42
		c-0.81,0.36-1.64,0.74-2.48,1.14c-0.85,0.4-1.71,0.82-2.58,1.26c-5.91,2.96-10.78,5.35-15.43,8c-4.64,2.65-9.06,5.54-14.03,9.49
		c-0.27,0.22-0.59,0.37-0.92,0.46s-0.68,0.1-1.03,0.03c-2.05-0.4-6.74-1.31-11.81-2.14C547.18,487.07,541.73,486.31,538.18,486.21z
		 M544.09,504.81c-0.14-0.81-0.3-1.6-0.47-2.38c-0.17-0.78-0.37-1.54-0.57-2.3c-0.1-0.37,0-0.73,0.22-0.99s0.56-0.42,0.94-0.39
		c2.91,0.26,6.45,0.38,9.87,0.61c3.42,0.22,6.73,0.55,9.18,1.2c0.34,0.09,0.65,0.26,0.9,0.49c0.25,0.23,0.45,0.52,0.56,0.85
		c0.61,1.73,1.31,4.17,1.93,6.63s1.16,4.93,1.43,6.74c0.03,0.18-0.03,0.34-0.15,0.45c-0.11,0.11-0.28,0.17-0.45,0.14
		c-2.74-0.47-6.43-0.76-10.33-0.84c-3.9-0.08-8.01,0.03-11.58,0.36c-0.34,0.03-0.65-0.09-0.87-0.31c-0.22-0.22-0.35-0.53-0.32-0.87
		c0.13-1.42,0.22-2.83,0.19-4.36C544.56,508.32,544.42,506.68,544.09,504.81L544.09,504.81L544.09,504.81z M556.21,268.62
		c11.2,12.94,21.14,27.01,29.62,42c8.48,14.99,15.51,30.91,20.88,47.56c0.1,0.32,0.02,0.55-0.15,0.63
		c-0.17,0.09-0.43,0.04-0.66-0.21c-0.29-0.3-0.59-0.6-0.88-0.9c-0.3-0.29-0.59-0.58-0.89-0.85c-4.51-4.52-6.49-4.83-6.89-3.08
		c-0.41,1.75,0.75,5.56,2.5,9.27c1.19,2.33,1.56,8.25,1.05,13.31c-0.51,5.07-1.9,9.28-4.21,8.21c-3.08-1.43-5.28-6.78-7.04-12.55
		c-1.76-5.76-3.09-11.94-4.43-15c-0.49-1.16-1.04-1.69-1.74-1.8s-1.56,0.2-2.69,0.75c-2.55,1.22-4.12,7.04-5.95,12.2
		s-3.94,9.67-7.56,8.27c-5.96-2.28-6.59-9.69-6.09-16.83c0.5-7.14,2.12-14,0.68-15.17c-3.4-1.09-5.91,1.16-7.66,4.31
		s-2.74,7.18-3.14,9.67c-0.68,4.09-0.72,8.3,0.08,12.3c0.8,4,2.44,7.79,5.13,11.07c0.25,0.3,0.39,0.66,0.43,1.03
		c0.04,0.37-0.04,0.75-0.23,1.08c-3.62,6.41-6.17,11.75-7.88,16.36s-2.55,8.47-2.76,11.93c-0.01,0.2-0.15,0.34-0.31,0.38
		c-0.16,0.04-0.35-0.01-0.47-0.17c-1.99-2.85-5.83-6.78-9.75-9.75c-3.92-2.97-7.93-4.99-10.25-4.04c-2.11,1.87,1.91,8.43,6.76,16.29
		c4.86,7.86,10.55,17,11.79,24.04c0.49,2.75-0.45,6.5-2.52,8.92c-2.07,2.43-5.26,3.54-9.26,1.04c-8.77-5.49-13.5-13.98-16.73-21
		s-4.96-12.55-7.72-12.12c-2.74,0.37-3.28,6.5-2.96,12.97c0.31,6.48,1.48,13.31,2.14,15.12c0.49,2.14,0.82,4.01,0.97,5.63
		s0.14,2.99-0.05,4.13c-0.31,1.89-1.94,3.6-4,4.38c-2.06,0.78-4.53,0.62-6.52-1.25c-6.45-4.54-8.17-15.77-9.24-25.83
		c-1.07-10.06-1.5-18.94-5.36-18.79c-2.76,0.43-4.69,4.35-6.19,9.05c-1.5,4.7-2.56,10.16-3.58,13.67c-0.97,3.13-3.67,7.4-6.4,9.79
		c-2.73,2.38-5.5,2.88-6.6-1.56c-0.44-1.79-0.37-4.19,0.02-6.67s1.07-5.03,1.86-7.1c1.53-4,1.97-8.1,0.75-10.53
		s-4.09-3.19-9.16-0.48c-1.91,1.02-6,3.1-10.9,5.06c-4.9,1.96-10.61,3.78-15.75,4.29c-4.6,0.1-8.72-0.82-10.8-2.44
		c-2.09-1.62-2.14-3.93,1.4-6.6c1.5-1.14,3.45-2.35,5.79-3.58c2.34-1.24,5.09-2.5,8.17-3.76c2.45-0.85,4.59-2.12,5.62-3.59
		s0.97-3.16-0.99-4.84c-1.34-1.19-3.89-1.85-6.27-2.18c-2.38-0.33-4.59-0.32-5.27-0.17c-14.18,0.75-22.34-9.02-19.37-15.37
		c2.97-6.35,17.07-9.27,47.42,5.16c12.81,5.91,21.64,9.69,31.01,10.17s19.27-2.34,34.22-9.64c0.37-0.18,0.77-0.31,1.18-0.37
		c0.41-0.07,0.83-0.08,1.24-0.04c3.89,0.37,7.59-0.22,10.8-1.81c3.21-1.59,5.94-4.17,7.88-7.76c3.86-7.38,1.95-16.06-1.57-22.55
		c-3.52-6.49-8.63-10.79-11.17-9.42c-1.87,1.33-1.48,4.31-0.6,7.98c0.88,3.67,2.24,8.02,2.31,12.08c0,2.82-1.21,5.67-3.2,7.61
		s-4.75,2.98-7.87,2.18c-5.43-1.5-6.71-6.58-6.97-11.62s0.47-10.03-0.92-11.34c-2.21-2.07-4.55,0.65-8.36,3.96
		c-3.8,3.32-9.07,7.23-17.14,7.53c-5.8,0.22-8.92-0.89-10.35-2.38c-1.43-1.49-1.19-3.36-0.27-4.65c2.11-3.13,7.46-6.01,11.88-8.87
		c4.41-2.86,7.89-5.69,6.23-8.71c-1.12-2.07-4.27-3.38-7.84-4.71s-7.55-2.72-10.34-4.94c-3.54-2.82-2.79-5.96-0.62-8.36
		c2.17-2.4,5.77-4.06,7.94-3.92c7.03,0.41,14.4,2.35,21.89,3.94c7.49,1.59,15.09,2.81,22.58,1.77c5.28-0.71,11.03-2.18,15.76-4.85
		s8.43-6.57,9.6-12.15c0.41-2.24,0.32-4.47-0.23-6.55s-1.57-4-3.04-5.63c-1.09-1.19-2.37-2.18-3.8-2.96c-1.43-0.78-3-1.34-4.67-1.66
		c-3.95-0.82-8.21-0.04-12.23,0.77c-4.01,0.81-7.77,1.66-10.72,1c-1.36-0.39-2.69-1-3.91-1.8c-1.22-0.8-2.34-1.79-3.27-2.92
		c-1.29-1.56-2.26-3.3-2.38-4.91c-0.12-1.61,0.61-3.1,2.72-4.17c6.03,0.22,10.42,3.26,15.64,4.65c5.23,1.39,11.29,1.11,20.65-5.3
		c2.1-1.44,4.01-3.07,5.7-4.83c1.69-1.76,3.15-3.66,4.36-5.65c0.2-0.33,0.65-0.63,1.09-0.81
		C555.61,268.46,556.04,268.42,556.21,268.62z"/>
</g>
</svg>
