<?xml version="1.0" encoding="utf-8"?>
<!-- Generator: Adobe Illustrator 24.3.0, SVG Export Plug-In . SVG Version: 6.00 Build 0)  -->
<svg version="1.1" id="Слой_1" xmlns="http://www.w3.org/2000/svg" xmlns:xlink="http://www.w3.org/1999/xlink" x="0px" y="0px"
	 viewBox="0 0 720 720" style="enable-background:new 0 0 720 720;" xml:space="preserve">
<style type="text/css">
	.st0{fill-rule:evenodd;clip-rule:evenodd;}
</style>
<g>
	<path class="st0" d="M418.03,123.01c0,0.46,0.16,0.88,0.43,1.21c0.27,0.33,0.65,0.58,1.1,0.67c9.13,1.94,18.12,4.3,26.93,7.07
		c8.81,2.78,17.45,5.96,25.89,9.55c17.96,7.63,35.03,17.02,51,27.98c15.96,10.96,30.82,23.47,44.36,37.34
		c13.54,13.85,25.76,29.05,36.46,45.38c10.7,16.34,19.87,33.81,27.32,52.21c7.15,17.71,12.71,36.27,16.48,55.49
		c3.77,19.22,5.75,39.09,5.75,59.44c0,20.35-1.98,40.22-5.75,59.44c-3.77,19.22-9.33,37.78-16.48,55.49
		c-7.44,18.39-16.62,35.86-27.32,52.2c-10.7,16.34-22.92,31.55-36.46,45.4c-13.54,13.87-28.4,26.39-44.36,37.34
		c-15.96,10.96-33.03,20.35-51,27.98c-17.33,7.34-35.48,13.04-54.27,16.9c-18.79,3.86-38.23,5.89-58.13,5.89
		c-19.89,0-39.31-2.03-58.1-5.89c-18.79-3.86-36.93-9.56-54.26-16.9c-17.96-7.63-35.03-17.02-51-27.98s-30.82-23.47-44.36-37.34
		c-13.54-13.85-25.76-29.06-36.46-45.4c-10.7-16.34-19.87-33.81-27.32-52.2c-7.15-17.71-12.71-36.27-16.48-55.49
		s-5.75-39.09-5.75-59.44c0-20.35,1.98-40.22,5.75-59.44c3.77-19.22,9.33-37.78,16.48-55.49c7.44-18.41,16.62-35.88,27.32-52.21
		c10.7-16.34,22.92-31.53,36.46-45.38c13.54-13.87,28.4-26.39,44.36-37.34c15.96-10.96,33.03-20.35,51-27.98
		c8.08-3.44,16.34-6.51,24.77-9.2c8.42-2.69,17.01-5,25.73-6.93c1.12-0.25,2.09-0.86,2.77-1.71c0.68-0.84,1.09-1.91,1.09-3.06
		v-14.44V91.76c0-2.5,1.05-4.84,2.87-6.81c1.82-1.97,4.4-3.58,7.45-4.62c0.71-0.24,1.23-0.78,1.48-1.42
		c0.25-0.64,0.23-1.38-0.12-2.05c-1.94-3.65-3.46-7.56-4.5-11.66s-1.59-8.4-1.59-12.82c0-7.22,1.47-14.11,4.13-20.38
		s6.51-11.92,11.26-16.66c4.73-4.73,10.38-8.56,16.65-11.21C345.85,1.47,352.75,0,359.98,0c7.25,0,14.16,1.47,20.43,4.12
		c6.28,2.65,11.92,6.48,16.65,11.21c4.75,4.75,8.59,10.39,11.24,16.66s4.11,13.16,4.11,20.38c0,4.57-0.58,9-1.68,13.22
		s-2.71,8.24-4.76,11.97c-0.27,0.49-0.27,1.05-0.07,1.51c0.2,0.47,0.61,0.86,1.15,1.02c3.23,0.99,5.98,2.61,7.91,4.63
		c1.94,2.02,3.07,4.43,3.07,7.03v15.63V123.01z M274.97,158.69c-0.13,0.04-0.27,0.08-0.4,0.12c-0.13,0.04-0.27,0.08-0.4,0.12
		c0.35,0.5,0.65,1.06,0.92,1.68c0.27,0.62,0.5,1.3,0.69,2.05c0.17,0.73,0.26,1.48,0.27,2.23c0.01,0.75-0.06,1.51-0.19,2.26
		c0.62-0.27,1.21-0.51,1.78-0.73s1.12-0.41,1.64-0.58c0.75-0.25,1.69-0.55,2.65-0.72s1.93-0.21,2.74,0.06
		c0.31,0.1,0.59,0.24,0.83,0.43c0.24,0.19,0.44,0.42,0.6,0.69c0.4,0.63,0.47,1.33,0.35,2.01c-0.13,0.68-0.44,1.35-0.81,1.95
		c-0.33,0.58-0.8,1.25-1.42,2.02c-0.62,0.77-1.39,1.65-2.31,2.63c-0.73,0.77-1.55,1.6-2.47,2.51c-0.92,0.9-1.94,1.87-3.07,2.91
		c0.25-0.02,0.48-0.02,0.69-0.01s0.4,0.03,0.58,0.05c0.46,0.08,0.83,0.22,1.1,0.44c0.27,0.22,0.46,0.52,0.55,0.9
		c0.27,1-0.57,2.16-1.68,3.26c-1.12,1.1-2.51,2.12-3.36,2.85c-0.06,0.05-0.11,0.09-0.17,0.14c-0.06,0.05-0.12,0.1-0.18,0.14
		c-0.08,0.07-0.15,0.21-0.17,0.34c-0.03,0.13-0.01,0.25,0.05,0.28c0.6,0.3,1.11,0.59,1.56,0.88c0.45,0.29,0.83,0.58,1.14,0.86
		c0.17,0.17,0.33,0.34,0.47,0.51c0.14,0.17,0.26,0.33,0.36,0.5c0.03,0.06,0.12,0.09,0.21,0.1c0.09,0.01,0.17-0.01,0.21-0.06
		c0.25-0.34,0.36-0.57,0.43-0.84c0.07-0.28,0.09-0.6,0.18-1.12c0.04-0.23,0.08-0.47,0.12-0.7c0.04-0.23,0.08-0.45,0.12-0.64
		c0.35-2.54,1.38-4.15,2.8-5.33c1.42-1.18,3.24-1.92,5.16-2.7c0.29-0.12,1.05-0.46,1.77-0.78s1.42-0.61,1.57-0.61
		c0.19-0.02,0.37,0.05,0.49,0.16c0.12,0.12,0.19,0.28,0.17,0.45c0.02,0.67,0.04,1.34,0.06,2.02s0.05,1.34,0.09,2.02
		c0.21,3.19,0.09,5.08-0.45,6.48c-0.54,1.4-1.49,2.3-2.93,3.51c-0.47,0.4-0.88,0.7-1.24,1.01c-0.36,0.31-0.67,0.62-0.92,1.07
		c-0.06,0.12-0.06,0.25-0.01,0.36c0.05,0.11,0.15,0.19,0.29,0.2c0.67,0.04,1.37,0.26,2.04,0.57c0.67,0.31,1.31,0.69,1.88,1.05
		c0.1,0.07,0.23,0.07,0.33,0.03c0.1-0.04,0.18-0.13,0.2-0.25c0.17-0.94,0.35-2.05,0.54-3.11c0.2-1.07,0.42-2.1,0.71-2.91
		c0.17-0.54,0.38-0.98,0.65-1.32c0.27-0.34,0.6-0.57,1-0.68c0.37-0.1,0.7-0.09,1.02,0.04c0.32,0.13,0.63,0.38,0.94,0.76
		c0.12,0.13,0.22,0.29,0.33,0.46c0.11,0.17,0.21,0.37,0.33,0.58c0.35-1.5,0.67-2.86,0.99-4.1s0.63-2.35,0.93-3.35
		c0.38-1.31,0.76-2.41,1.12-3.34c0.36-0.93,0.71-1.68,1.03-2.27c0.35-0.58,0.8-1.18,1.35-1.64s1.19-0.76,1.92-0.74
		c0.69,0.04,1.27,0.37,1.74,0.83c0.47,0.46,0.82,1.06,1.07,1.63c0.17,0.42,0.35,0.9,0.51,1.44c0.16,0.54,0.32,1.13,0.45,1.79
		c0.1,0.54,0.19,1.11,0.29,1.72s0.19,1.24,0.29,1.89c0.21-0.19,0.43-0.37,0.66-0.55c0.23-0.17,0.46-0.34,0.69-0.49
		c0.4-0.25,0.83-0.48,1.26-0.68c0.43-0.2,0.88-0.37,1.32-0.51c0.54-0.15,1.09-0.26,1.63-0.32c0.55-0.06,1.1-0.07,1.63-0.03
		c0.06,0,0.11,0,0.15,0s0.08,0,0.12,0c-4.46-6.53-10.25-12.06-16.97-16.17C290.82,162.28,283.16,159.58,274.97,158.69L274.97,158.69
		L274.97,158.69z M262.5,163.04c-0.88,0.35-1.77,0.71-2.66,1.09c-0.89,0.37-1.78,0.76-2.69,1.14c0.31,0.08,0.63,0.16,0.95,0.26
		c0.33,0.1,0.66,0.2,1.01,0.32c0.52,0.17,1.07,0.37,1.64,0.58s1.17,0.46,1.78,0.73c-0.13-0.69-0.21-1.38-0.22-2.07
		C262.31,164.39,262.37,163.71,262.5,163.04L262.5,163.04L262.5,163.04z M251.89,167.68c-2.64,1.25-5.28,2.57-7.91,3.95
		c-2.63,1.37-5.23,2.8-7.79,4.24c0.6,0.1,1.14,0.42,1.62,0.86c0.48,0.44,0.88,0.98,1.19,1.52c0.33,0.58,0.67,1.33,1.03,2.25
		c0.36,0.93,0.74,2.03,1.12,3.32c0.31,1,0.62,2.11,0.93,3.35c0.32,1.24,0.64,2.6,0.99,4.1c0.17-0.37,0.35-0.67,0.52-0.93
		c0.17-0.25,0.35-0.46,0.52-0.61c0.5-0.46,1-0.57,1.45-0.43c0.45,0.14,0.86,0.52,1.16,1.04c0.33,0.54,0.61,1.28,0.84,2.1
		s0.43,1.74,0.58,2.62c0.08,0.41,0.16,0.81,0.23,1.22s0.15,0.81,0.22,1.22c0.02,0.11,0.09,0.19,0.18,0.23
		c0.09,0.04,0.2,0.04,0.29-0.02c0.59-0.37,1.26-0.78,1.97-1.1s1.44-0.55,2.14-0.55c0.07,0,0.14-0.07,0.19-0.15
		c0.05-0.08,0.08-0.17,0.05-0.23c-0.15-0.37-0.27-0.55-0.46-0.73c-0.19-0.18-0.45-0.34-0.88-0.68c-0.75-0.6-1.5-1.2-2.16-1.89
		c-0.66-0.69-1.23-1.47-1.61-2.41c-0.44-1.06-0.62-2.15-0.65-3.29c-0.04-1.14,0.06-2.33,0.15-3.58c0.06-0.61,0.09-1.33,0.12-2.02
		c0.03-0.7,0.07-1.38,0.15-1.94c0.04-0.21,0.18-0.37,0.36-0.46c0.18-0.08,0.39-0.08,0.56,0.03c0.56,0.27,1.12,0.54,1.68,0.8
		s1.13,0.52,1.71,0.77c1.27,0.58,2.47,1.12,3.53,1.8c1.06,0.68,1.99,1.48,2.7,2.58c0.48,0.73,0.79,1.55,1.01,2.4s0.36,1.73,0.49,2.6
		c0.09,0.53,0.1,0.83,0.16,1.08c0.06,0.25,0.16,0.46,0.42,0.79c0.03,0.04,0.11,0.06,0.2,0.05c0.08-0.01,0.16-0.04,0.19-0.1
		c0.1-0.17,0.22-0.34,0.36-0.5c0.14-0.17,0.3-0.34,0.47-0.51c0.32-0.28,0.71-0.57,1.17-0.86c0.46-0.29,1-0.59,1.61-0.91
		c0.07-0.04,0.11-0.1,0.12-0.17s-0.01-0.14-0.07-0.19c-0.75-0.64-1.65-1.37-2.5-2.1s-1.68-1.48-2.26-2.15
		c-0.38-0.42-0.65-0.83-0.8-1.22c-0.15-0.39-0.18-0.78-0.08-1.16c0.1-0.38,0.28-0.68,0.55-0.9c0.27-0.22,0.64-0.37,1.1-0.44
		c0.17-0.02,0.37-0.04,0.58-0.05s0.44-0.01,0.69,0.01c-1.13-1.04-2.15-2.01-3.07-2.91c-0.92-0.9-1.74-1.74-2.47-2.51
		c-0.92-0.98-1.69-1.85-2.31-2.63s-1.09-1.45-1.42-2.02c-0.23-0.38-0.41-0.76-0.55-1.11c-0.14-0.36-0.24-0.69-0.29-1
		c0-0.08-0.01-0.15-0.02-0.23C251.9,167.84,251.89,167.76,251.89,167.68L251.89,167.68L251.89,167.68z M233.31,177.52
		c-1.4,0.83-2.79,1.65-4.15,2.48c-1.36,0.83-2.7,1.67-4.01,2.51c0.37,0.04,0.74,0.09,1.12,0.16c0.38,0.07,0.76,0.17,1.15,0.3
		c0.73,0.21,1.43,0.5,2.1,0.86c0.66,0.36,1.29,0.79,1.87,1.29c0.08-0.65,0.17-1.28,0.27-1.87c0.1-0.6,0.21-1.16,0.3-1.7
		c0.13-0.65,0.29-1.26,0.45-1.81c0.16-0.55,0.34-1.04,0.51-1.46c0.06-0.13,0.13-0.27,0.19-0.4
		C233.18,177.76,233.25,177.64,233.31,177.52L233.31,177.52L233.31,177.52z M315.01,233.62c-0.23-0.13-0.48-0.26-0.74-0.37
		s-0.53-0.22-0.8-0.32c0.54-0.4,1.05-0.8,1.52-1.18c0.48-0.38,0.92-0.76,1.32-1.12c0.65-0.58,1.49-1.34,2.16-2.2
		c0.67-0.86,1.17-1.81,1.15-2.75c0-1.06-0.55-1.75-1.32-2.18s-1.76-0.59-2.64-0.59c-0.67,0.02-1.49,0.1-2.47,0.24
		s-2.13,0.37-3.45,0.68c-1.02,0.25-2.14,0.54-3.38,0.88c-1.24,0.34-2.58,0.73-4.04,1.2c0.21-0.35,0.38-0.65,0.52-0.93
		c0.13-0.27,0.23-0.51,0.29-0.73c0.08-0.35,0.07-0.64-0.01-0.9s-0.22-0.47-0.41-0.64c-0.17-0.13-0.38-0.24-0.63-0.31
		s-0.51-0.11-0.8-0.11c-0.97-0.02-2.22,0.27-3.5,0.66c-1.28,0.39-2.58,0.88-3.64,1.26c-0.11,0.04-0.21,0.02-0.29-0.05
		c-0.08-0.06-0.13-0.16-0.13-0.27c0.03-0.66,0.04-1.41-0.03-2.14c-0.07-0.73-0.22-1.45-0.51-2.06c-0.06-0.13-0.04-0.26,0.04-0.36
		c0.08-0.1,0.2-0.17,0.34-0.17c0.87,0.01,1.73,0.3,2.59,0.64c0.86,0.34,1.72,0.72,2.59,0.91c1.12,0.23,2.13,0.2,3.39-0.23
		s2.75-1.27,4.8-2.65c0.31-0.21,0.62-0.42,0.93-0.63c0.31-0.21,0.63-0.41,0.96-0.6l0.67-0.44l0.67-0.44
		c0.17-0.08,0.28-0.23,0.31-0.4s0-0.37-0.12-0.52c-0.21-0.23-0.66-0.61-1.13-1c-0.47-0.38-0.95-0.77-1.22-1
		c-1.42-1.25-2.78-2.43-4.27-3.19s-3.13-1.11-5.11-0.69c-0.84,0.18-1.67,0.56-2.5,0.9c-0.83,0.34-1.66,0.62-2.51,0.61
		c-0.11,0-0.2-0.07-0.24-0.16c-0.04-0.09-0.05-0.2,0.01-0.31c0.31-0.62,0.47-1.36,0.54-2.13s0.05-1.53,0-2.21
		c-0.01-0.1,0.04-0.18,0.11-0.23s0.16-0.07,0.25-0.04c0.41,0.13,0.82,0.27,1.22,0.41c0.4,0.14,0.8,0.28,1.2,0.43
		c0.71,0.27,1.37,0.51,1.96,0.71s1.13,0.35,1.62,0.45c0.54,0.1,1.02,0.12,1.44,0.06s0.77-0.23,1.06-0.52
		c0.27-0.27,0.43-0.58,0.49-0.93c0.06-0.35,0.01-0.74-0.14-1.19c-0.08-0.15-0.18-0.33-0.3-0.51c-0.12-0.19-0.25-0.38-0.38-0.57
		c1.48,0.46,2.85,0.86,4.11,1.2c1.26,0.34,2.4,0.63,3.42,0.88c1.31,0.31,2.45,0.53,3.44,0.68c0.99,0.15,1.81,0.23,2.49,0.24
		c0.62,0,1.18-0.07,1.68-0.2c0.5-0.13,0.93-0.34,1.28-0.61c0.33-0.23,0.58-0.52,0.75-0.85c0.17-0.33,0.25-0.71,0.25-1.11
		c0-0.37-0.08-0.77-0.24-1.2s-0.41-0.88-0.76-1.34c-0.27-0.37-0.61-0.75-1-1.15s-0.85-0.83-1.35-1.27c-0.4-0.37-0.84-0.74-1.3-1.12
		c-0.47-0.38-0.97-0.78-1.51-1.18c0.27-0.1,0.53-0.2,0.78-0.32c0.25-0.12,0.5-0.24,0.75-0.37c0.42-0.21,0.83-0.46,1.21-0.74
		s0.75-0.59,1.1-0.91c0.4-0.38,0.77-0.8,1.1-1.24c0.33-0.44,0.62-0.91,0.87-1.41l0.02-0.02l0.02-0.02c1.52,3.48,2.7,7.15,3.51,10.96
		s1.23,7.77,1.23,11.83c0,4.15-0.44,8.2-1.28,12.1c-0.84,3.9-2.08,7.65-3.68,11.18c-0.52-0.86-1.17-1.66-1.91-2.35
		S315.86,234.06,315.01,233.62L315.01,233.62L315.01,233.62z M218.57,191.43c0.25,0.48,0.57,0.97,0.95,1.46
		c0.38,0.49,0.82,0.98,1.32,1.46c0.35,0.33,0.71,0.62,1.1,0.9s0.8,0.52,1.25,0.75c0.23,0.13,0.48,0.25,0.74,0.36
		c0.26,0.11,0.53,0.2,0.8,0.3c-0.54,0.4-1.04,0.8-1.51,1.18c-0.47,0.38-0.9,0.76-1.3,1.12c-0.5,0.44-0.95,0.86-1.35,1.27
		s-0.73,0.79-1,1.15c-0.35,0.48-0.6,0.93-0.76,1.36c-0.16,0.43-0.24,0.83-0.24,1.22c0,1.04,0.56,1.72,1.33,2.14
		c0.77,0.42,1.76,0.59,2.63,0.59c0.67-0.02,1.5-0.1,2.49-0.24c0.99-0.15,2.13-0.37,3.44-0.68c1.02-0.25,2.14-0.54,3.39-0.88
		c1.24-0.34,2.6-0.73,4.08-1.2c-0.23,0.35-0.41,0.65-0.55,0.93c-0.13,0.28-0.22,0.53-0.26,0.76c-0.15,0.65,0,1.13,0.35,1.45
		c0.35,0.32,0.88,0.47,1.5,0.47c0.62,0.02,1.38-0.11,2.21-0.31s1.71-0.49,2.56-0.8c0.32-0.11,0.65-0.22,0.97-0.33
		c0.33-0.11,0.65-0.23,0.98-0.34c0.2-0.07,0.4-0.03,0.55,0.09c0.15,0.11,0.25,0.3,0.24,0.51c-0.02,0.59-0.02,1.23,0.04,1.85
		c0.06,0.62,0.19,1.23,0.41,1.76c0.07,0.17,0.04,0.36-0.05,0.5c-0.1,0.14-0.26,0.23-0.45,0.22c-0.53-0.04-1.02-0.19-1.52-0.39
		s-1.01-0.44-1.57-0.66c-0.81-0.33-1.44-0.58-2.02-0.72c-0.58-0.14-1.1-0.17-1.67-0.05c-0.96,0.15-2.79,1.1-4.62,2.14
		c-1.83,1.05-3.65,2.2-4.62,2.78l-0.92,0.54l-0.92,0.54c-0.42,0.21-0.45,0.47-0.31,0.71c0.14,0.24,0.45,0.46,0.7,0.6l0.79,0.38
		l0.79,0.38c0.81,0.38,2.74,1.41,4.62,2.37s3.69,1.84,4.27,1.94c0.52,0.1,0.98,0.09,1.48-0.01s1.02-0.28,1.68-0.53
		c0.67-0.26,1.36-0.6,2.05-0.86c0.69-0.26,1.39-0.45,2.08-0.41c0.09,0,0.15,0.06,0.18,0.13s0.03,0.16-0.01,0.23
		c-0.35,0.62-0.52,1.4-0.59,2.2c-0.07,0.8-0.05,1.62,0,2.32c0,0.08-0.03,0.14-0.08,0.18c-0.05,0.04-0.12,0.06-0.19,0.03
		c-0.93-0.31-2-0.73-3.07-1.11c-1.06-0.38-2.11-0.73-2.99-0.91c-0.56-0.12-1.05-0.14-1.47-0.07s-0.78,0.24-1.07,0.53
		c-0.27,0.27-0.43,0.57-0.49,0.91c-0.05,0.34,0,0.73,0.18,1.17c0.06,0.17,0.13,0.35,0.23,0.53c0.1,0.18,0.21,0.37,0.35,0.59
		c-1.48-0.46-2.84-0.85-4.08-1.2s-2.37-0.63-3.39-0.88c-1.31-0.31-2.44-0.53-3.42-0.68c-0.98-0.15-1.81-0.23-2.5-0.24
		c-1.81-0.02-3.09,0.59-3.64,1.56c-0.56,0.97-0.39,2.31,0.68,3.75c0.27,0.35,0.61,0.73,1,1.14c0.39,0.41,0.85,0.84,1.35,1.28
		c0.4,0.37,0.85,0.74,1.32,1.12c0.47,0.38,0.97,0.78,1.49,1.18c-0.27,0.1-0.53,0.19-0.78,0.3c-0.25,0.11-0.5,0.22-0.75,0.36
		c-0.42,0.23-0.84,0.48-1.23,0.75c-0.39,0.27-0.77,0.57-1.12,0.9c-0.38,0.37-0.73,0.75-1.04,1.16c-0.31,0.41-0.59,0.85-0.84,1.34
		c-1.6-3.55-2.85-7.3-3.7-11.2s-1.3-7.95-1.3-12.12c0-4.09,0.43-8.09,1.26-11.94C215.8,198.63,217.02,194.93,218.57,191.43
		L218.57,191.43L218.57,191.43z M224.04,246.99c1.02,0.06,2.03-0.06,3-0.32c0.97-0.26,1.9-0.68,2.77-1.22
		c0.23-0.15,0.46-0.32,0.69-0.49c0.23-0.17,0.45-0.34,0.66-0.51c0.1,0.65,0.19,1.28,0.29,1.87s0.21,1.16,0.32,1.7
		c0.13,0.65,0.28,1.26,0.43,1.81c0.15,0.55,0.32,1.04,0.49,1.46c0.35,0.79,0.87,1.55,1.53,2.01c0.66,0.46,1.47,0.62,2.39,0.22
		c0.38-0.17,0.77-0.44,1.13-0.81c0.37-0.37,0.71-0.83,1.02-1.38c0.33-0.58,0.67-1.33,1.03-2.25c0.36-0.93,0.74-2.03,1.12-3.32
		c0.31-1,0.63-2.11,0.95-3.35c0.32-1.24,0.65-2.6,0.98-4.1c0.27,0.5,0.6,1.05,1.02,1.43c0.43,0.38,0.96,0.59,1.63,0.42
		c0.4-0.12,0.72-0.35,0.99-0.68c0.26-0.34,0.48-0.78,0.67-1.32c0.27-0.82,0.49-1.87,0.7-2.95c0.2-1.08,0.39-2.2,0.56-3.14
		c0.02-0.11,0.09-0.18,0.18-0.22s0.19-0.03,0.29,0.03c0.58,0.37,1.25,0.78,1.96,1.1s1.45,0.54,2.15,0.55c0.09,0,0.17,0.05,0.21,0.11
		c0.05,0.07,0.06,0.15,0.02,0.23c-0.35,0.68-0.89,1.18-1.5,1.65s-1.27,0.92-1.88,1.48c-1.42,1.38-2.07,2.85-2.31,4.43
		c-0.25,1.58-0.09,3.26,0.08,5.06c0.02,0.37,0.05,0.72,0.08,1.07c0.03,0.35,0.06,0.7,0.08,1.04l0.04,0.86l0.04,0.86
		c0,0.19,0.1,0.37,0.24,0.48c0.14,0.12,0.34,0.17,0.53,0.13c0.19-0.06,0.52-0.21,0.85-0.38c0.33-0.17,0.67-0.35,0.88-0.47
		c0.33-0.13,0.63-0.28,0.93-0.42c0.3-0.14,0.59-0.27,0.88-0.39c1.85-0.83,3.55-1.59,4.88-2.76c1.33-1.17,2.28-2.73,2.63-5.15
		c0.08-0.56,0.11-1.07,0.18-1.55s0.18-0.93,0.4-1.37c0.08-0.16,0.24-0.25,0.4-0.27c0.16-0.01,0.33,0.05,0.44,0.19
		c0.36,0.49,0.86,0.92,1.39,1.31s1.12,0.72,1.66,1c0.16,0.08,0.25,0.23,0.26,0.39c0.02,0.16-0.04,0.32-0.17,0.44
		c-0.28,0.25-0.56,0.49-0.82,0.72s-0.52,0.45-0.77,0.67c-0.6,0.5-1.64,1.29-2.49,2.18c-0.84,0.89-1.48,1.88-1.25,2.78
		c0.1,0.38,0.28,0.68,0.56,0.9c0.28,0.22,0.65,0.37,1.13,0.44c0.17,0.02,0.36,0.04,0.56,0.05c0.2,0.01,0.42,0.01,0.67-0.01
		c-1.13,1.04-2.15,2.01-3.07,2.91c-0.91,0.9-1.72,1.74-2.43,2.51c-0.94,0.98-1.71,1.85-2.33,2.63c-0.62,0.77-1.09,1.45-1.44,2.02
		c-0.33,0.54-0.56,1.07-0.69,1.57c-0.13,0.5-0.17,0.97-0.12,1.39c0.12,1,0.65,1.61,1.38,1.95c0.73,0.34,1.64,0.41,2.51,0.31
		c0.44-0.06,0.94-0.15,1.49-0.29c0.55-0.13,1.14-0.31,1.78-0.52c0.52-0.17,1.07-0.37,1.64-0.58s1.17-0.46,1.78-0.73
		c-0.06,0.29-0.11,0.57-0.14,0.85c-0.03,0.28-0.05,0.56-0.05,0.85c-0.02,0.48-0.01,0.96,0.03,1.44s0.12,0.95,0.24,1.41
		c0.13,0.63,0.32,1.22,0.54,1.76c0.22,0.54,0.48,1.03,0.77,1.47c-8.17-0.79-15.83-3.38-22.57-7.38
		C234.38,258.82,228.56,253.41,224.04,246.99L224.04,246.99L224.04,246.99z M274.2,270.2c0.29-0.44,0.55-0.93,0.77-1.47
		c0.23-0.54,0.42-1.14,0.57-1.79c0.12-0.46,0.19-0.92,0.24-1.39c0.04-0.47,0.05-0.94,0.03-1.42c0-0.29-0.02-0.57-0.05-0.85
		c-0.03-0.28-0.08-0.56-0.14-0.85c0.62,0.27,1.21,0.51,1.78,0.73s1.12,0.41,1.64,0.58c0.63,0.21,1.23,0.38,1.78,0.52
		c0.55,0.13,1.05,0.23,1.49,0.29c0.88,0.1,1.81,0.03,2.54-0.31c0.73-0.34,1.27-0.96,1.38-1.95c0.04-0.42-0.01-0.89-0.14-1.39
		s-0.36-1.03-0.66-1.57c-0.35-0.58-0.83-1.25-1.45-2.02c-0.63-0.77-1.39-1.65-2.32-2.63c-0.71-0.77-1.53-1.6-2.45-2.51
		c-0.92-0.9-1.94-1.87-3.05-2.91c0.56,0.04,1.19,0.03,1.73-0.16s0.98-0.55,1.15-1.22c0.12-0.38,0.09-0.77-0.07-1.16
		c-0.15-0.39-0.43-0.8-0.82-1.22c-0.58-0.65-1.28-1.3-2.01-1.92c-0.73-0.62-1.48-1.23-2.15-1.81c-0.06-0.05-0.13-0.11-0.19-0.17
		c-0.06-0.06-0.13-0.11-0.2-0.17c-0.07-0.06-0.08-0.22-0.04-0.37s0.13-0.3,0.25-0.36c0.57-0.3,1.19-0.65,1.74-1.06
		c0.56-0.41,1.05-0.87,1.4-1.39c0.08-0.11,0.2-0.16,0.33-0.15c0.12,0.01,0.25,0.08,0.31,0.2c0.27,0.46,0.39,0.93,0.48,1.43
		c0.09,0.5,0.13,1.04,0.22,1.65c0.35,2.52,1.38,4.13,2.81,5.31c1.43,1.18,3.25,1.93,5.15,2.72c0.27,0.12,0.54,0.22,0.8,0.33
		s0.51,0.21,0.74,0.33l0.79,0.33l0.79,0.33c0.27,0.15,0.49,0.12,0.64-0.01s0.24-0.37,0.24-0.64l0.02-0.81l0.02-0.81
		c0.02-0.38,0.04-0.77,0.06-1.15c0.02-0.38,0.05-0.77,0.09-1.15c0.17-2.92,0.08-4.76-0.36-6.12c-0.43-1.36-1.2-2.26-2.38-3.29
		c-0.53-0.46-1.1-0.87-1.61-1.3c-0.51-0.43-0.97-0.9-1.3-1.49c-0.05-0.1-0.04-0.2,0.02-0.28c0.05-0.08,0.15-0.14,0.26-0.14
		c0.65-0.02,1.33-0.23,1.99-0.52c0.66-0.29,1.29-0.66,1.85-1.02c0.14-0.09,0.29-0.09,0.42-0.03s0.23,0.18,0.26,0.34
		c0.2,1.1,0.41,2.41,0.7,3.66c0.29,1.25,0.65,2.43,1.14,3.24c0.15,0.25,0.33,0.46,0.51,0.63c0.19,0.17,0.39,0.29,0.6,0.37
		c0.25,0.1,0.5,0.12,0.75,0.05c0.25-0.06,0.5-0.21,0.75-0.44c0.17-0.15,0.35-0.36,0.52-0.61c0.17-0.25,0.35-0.55,0.52-0.89
		c0.35,1.5,0.68,2.86,1,4.1c0.32,1.24,0.63,2.35,0.92,3.35c0.4,1.29,0.78,2.39,1.14,3.32c0.36,0.93,0.71,1.69,1.05,2.29
		c0.21,0.38,0.44,0.72,0.68,1.01c0.24,0.29,0.49,0.53,0.74,0.72c0.27,0.23,0.56,0.39,0.86,0.5c0.3,0.11,0.61,0.15,0.91,0.15
		c0.33-0.02,0.63-0.09,0.9-0.21c0.28-0.12,0.54-0.29,0.79-0.52c0.62-0.56,1.06-1.41,1.39-2.32s0.55-1.88,0.73-2.67
		c0.12-0.52,0.22-1.09,0.32-1.69c0.1-0.6,0.18-1.23,0.26-1.89c0.21,0.19,0.43,0.37,0.66,0.55c0.23,0.17,0.46,0.34,0.69,0.49
		c0.81,0.5,1.73,0.91,2.7,1.21c0.97,0.29,1.99,0.47,2.99,0.49c-4.54,6.38-10.38,11.75-17.12,15.72S282.35,269.43,274.2,270.2
		L274.2,270.2L274.2,270.2z M378.02,34.35c-2.31-2.31-5.05-4.17-8.1-5.46s-6.4-2-9.94-2c-3.52,0-6.87,0.71-9.91,2
		s-5.78,3.15-8.09,5.46c-2.31,2.31-4.18,5.05-5.48,8.1c-1.3,3.05-2.02,6.4-2.02,9.92s0.72,6.87,2.02,9.92
		c1.3,3.05,3.17,5.8,5.48,8.1c2.31,2.31,5.05,4.17,8.09,5.46s6.39,2,9.91,2c3.54,0,6.9-0.71,9.94-2s5.79-3.15,8.1-5.46
		c2.31-2.31,4.17-5.05,5.46-8.1s2-6.4,2-9.92s-0.71-6.87-2-9.92S380.33,36.66,378.02,34.35L378.02,34.35L378.02,34.35z
		 M404.68,149.97l0.19,7.47l0.19,7.47l1.69,5.78l1.69,5.78c0.15,0.5,0.51,0.86,0.94,1.03c0.44,0.17,0.95,0.15,1.39-0.12
		c2.48-1.49,6.43-3.9,10.14-6.01c3.71-2.11,7.18-3.91,8.69-4.17c0.06-0.01,0.09-0.05,0.1-0.1c0.01-0.05-0.01-0.1-0.06-0.13
		l-1.54-1.03l-1.54-1.03c-1.48-0.98-2-2.68-1.61-4.14c0.39-1.46,1.7-2.67,3.88-2.67h3.2h3.2c0.3,0,0.48-0.21,0.51-0.44
		c0.03-0.23-0.08-0.49-0.37-0.57c-5.51-1.63-11.24-3.09-16.57-4.3C413.5,151.59,408.57,150.62,404.68,149.97L404.68,149.97
		L404.68,149.97z M548.66,226.05c-3.56-3.65-7.22-7.19-10.99-10.63c-3.76-3.44-7.63-6.77-11.59-10c-6.15,3.17-9.51,9.22-9.67,15.24
		s2.88,12,9.52,15.04c4.27,1.96,9.29,2.22,13.63,0.71c4.34-1.51,7.99-4.78,9.53-9.89l-0.21-0.23L548.66,226.05z M509.7,193.05
		c-3.83-2.65-7.71-5.21-11.67-7.66c-3.95-2.45-7.97-4.79-12.07-7.02l0,0l0,0c-0.5,0.36-0.86,0.87-1.03,1.44s-0.18,1.18,0.03,1.77
		l3.6,10.29l3.6,10.29c3-1.48,5.93-2.97,8.84-4.48C503.91,196.16,506.79,194.62,509.7,193.05L509.7,193.05L509.7,193.05z
		 M393.37,148.17c-4.81-0.61-9.65-1.1-14.52-1.44s-9.78-0.56-14.72-0.63c1.88,2.82,3.07,5.73,3.67,8.73c0.6,3,0.6,6.09,0.1,9.27
		c-0.1,0.63,0.04,1.25,0.35,1.75c0.31,0.51,0.8,0.9,1.41,1.09c2.54,0.77,5.92,2.48,9.28,4.34c3.36,1.87,6.7,3.9,9.17,5.34
		c0.56,0.33,1.2,0.34,1.74,0.11c0.54-0.23,0.97-0.7,1.13-1.33l1.38-5.52l1.38-5.52l-0.19-8.09L393.37,148.17z M317.96,149.41
		c-1.98,0.33-3.95,0.67-5.91,1.04s-3.92,0.76-5.87,1.17c-0.32,0.07-0.51,0.31-0.55,0.58c-0.04,0.27,0.06,0.56,0.34,0.73
		c1.72,1.04,3.39,2.15,5,3.32c1.61,1.17,3.17,2.39,4.66,3.67c0.24,0.2,0.53,0.22,0.78,0.12c0.24-0.11,0.43-0.34,0.44-0.65
		c0.05-1.62,0.2-3.14,0.5-4.63c0.3-1.49,0.74-2.95,1.4-4.47c0.08-0.18-0.01-0.42-0.17-0.61
		C318.41,149.51,318.18,149.38,317.96,149.41z M197.53,202.5c-3.19,2.69-8.05,6.95-13.36,11.95s-11.08,10.77-16.1,16.48
		c0.81,0.79,2.76,6.34,4.67,12.17c1.91,5.83,3.77,11.93,4.41,13.81h12.73h12.73c1.6,0,2.8,1.05,3.28,2.42
		c0.48,1.37,0.24,3.06-1.05,4.35l-10.17,7.34l-10.17,7.34c0.4,1.31,2.38,7.26,4.18,13.09c1.8,5.83,3.44,11.52,3.17,12.31
		c12.44-2.54,24.74-5.36,36.97-8.33s24.38-6.08,36.54-9.19c-19.21-0.85-36.46-9.16-48.9-22.07c-12.44-12.91-20.08-30.4-20.08-49.59
		c0-2.09,0.11-4.13,0.3-6.13C196.88,206.43,197.17,204.46,197.53,202.5L197.53,202.5L197.53,202.5z M145.37,256.91h4.58h4.58
		l1.02-2.96l1.02-2.96l2.08-6.07l2.08-6.07c-3.14,2.86-5.72,5.65-8.15,8.58C150.14,250.37,147.87,253.45,145.37,256.91
		L145.37,256.91L145.37,256.91z M136.25,270.32c-4.89,7.68-9.39,15.61-13.49,23.74s-7.8,16.46-11.09,24.95
		c12.27-1.92,24.47-4,36.6-6.25c12.13-2.25,24.2-4.68,36.22-7.32l-9.33-6.78l-9.33-6.78l-10.19,7.34l-10.19,7.34
		c-1.1,1.1-2.84,1.1-4.14,0.34c-1.3-0.76-2.17-2.3-1.51-4.3l3.96-12.12l3.96-12.12l-5.73-4.02L136.25,270.32z M104.94,338.67
		c-1.5,4.98-2.87,10.02-4.09,15.12s-2.31,10.26-3.26,15.47l0.17-0.04l0.17-0.04c8.21-1.5,12.55-7.2,13.54-13.5
		C112.47,349.39,110.12,342.52,104.94,338.67L104.94,338.67L104.94,338.67z M94.75,389.24c-0.6,3.59-1.13,13.63-1.39,23.72
		c-0.25,10.09-0.23,20.22,0.31,24.01c5.17,3.07,11.07,6.41,16.86,9.63c5.79,3.22,11.49,6.34,16.26,8.97
		c-5.12-11.51-4.19-24.02,1.15-34.25c5.35-10.23,15.12-18.16,27.7-20.5v-10.16v-10.16c-5.92,0.98-16.9,2.61-28.51,4.28
		C115.51,386.43,103.25,388.13,94.75,389.24L94.75,389.24L94.75,389.24z M97.32,467.82c0.71,4.15,1.53,8.28,2.44,12.38
		c0.91,4.1,1.91,8.16,2.99,12.18c2.87-4.03,3.71-8.96,2.74-13.49C104.52,474.36,101.73,470.24,97.32,467.82L97.32,467.82
		L97.32,467.82z M115.67,529.53c0.53,1.22,1.08,2.43,1.62,3.65s1.1,2.43,1.67,3.65c0.16,0.34,0.41,0.62,0.71,0.81
		c0.3,0.19,0.66,0.3,1.03,0.3h5.5h5.5c0.27,0,0.44-0.18,0.49-0.39s-0.04-0.45-0.29-0.55c-2.74-1.17-5.46-2.39-8.16-3.64
		C121.04,532.11,118.35,530.83,115.67,529.53L115.67,529.53L115.67,529.53z M131.45,560.59c0.3,0.52,0.61,1.03,0.92,1.54
		c0.31,0.51,0.63,1.02,0.94,1.53c0.18,0.29,0.46,0.47,0.77,0.53c0.31,0.06,0.64,0,0.91-0.19l2.56-1.82l2.56-1.82
		c0.21-0.15,0.26-0.39,0.2-0.6c-0.07-0.2-0.25-0.37-0.51-0.37h-3.83h-3.83c-0.31,0-0.56,0.17-0.69,0.4
		C131.32,560.02,131.3,560.32,131.45,560.59z M147.53,581.49c-0.44,0.31-0.7,0.78-0.78,1.27c-0.08,0.49,0.03,1.02,0.35,1.45
		c3.73,5.03,7.61,9.92,11.65,14.66c4.04,4.74,8.23,9.34,12.58,13.77c3.6,3.7,6.47,6.62,9.42,9.21c2.95,2.59,5.98,4.84,9.91,7.22
		c0.85,0.51,1.83,0.54,2.66,0.21c0.83-0.34,1.51-1.04,1.75-2l2.34-9.12l2.34-9.12l-0.28-22.48l-0.28-22.48
		c0-0.22-0.07-0.42-0.2-0.59c-0.12-0.17-0.29-0.3-0.5-0.38c-2.98-1.07-5.84-2.02-8.7-2.97c-2.86-0.95-5.72-1.91-8.7-3l-0.29,0.29
		l-0.29,0.29l-16.5,11.9L147.53,581.49z M268.57,673.78c-0.58,0.16-0.9,0.66-0.92,1.16s0.24,1.02,0.81,1.23
		c3.31,1.24,6.65,2.41,10.03,3.51c3.37,1.1,6.78,2.14,10.22,3.12c-0.04-0.15-0.08-0.31-0.11-0.47c-0.03-0.16-0.05-0.32-0.05-0.49
		c0-12.99,5.1-24.98,13.44-34.07c8.35-9.1,19.95-15.3,32.95-16.72l-0.58-16.66l-0.58-16.66c-19.77-3.59-39.26-7.75-58.4-12.45
		s-37.95-9.97-56.34-15.78c-0.43-0.14-0.86-0.04-1.18,0.2c-0.32,0.24-0.54,0.63-0.53,1.08l0.26,20.82l0.26,20.82l2.3,8.37l2.3,8.37
		c0.13,0.48,0.47,0.84,0.89,1.01c0.42,0.17,0.91,0.16,1.34-0.08l17.51-9.95l17.51-9.95c0.58-0.29,1.29-0.43,2-0.37
		c0.71,0.07,1.41,0.35,1.97,0.9c0.58,0.58,1.01,1.42,1.15,2.27s0,1.69-0.58,2.27l-9.56,16.97l-9.56,16.97
		c-0.31,0.55-0.32,1.18-0.1,1.71s0.67,0.97,1.28,1.14l18.88,5.29l18.88,5.29c0.85,0.29,1.55,0.71,2.04,1.27
		c0.49,0.56,0.77,1.26,0.77,2.11s-0.28,1.56-0.77,2.13c-0.49,0.57-1.19,1-2.04,1.29l-7.74,2.17L268.57,673.78z M393.02,690.61
		c6.75-0.86,13.42-1.97,19.99-3.33c6.57-1.36,13.06-2.95,19.44-4.79c0.56-0.16,0.9-0.61,0.98-1.1c0.08-0.49-0.09-1.03-0.55-1.37
		l-7.68-5.58l-7.68-5.58l-10.48,7.61l-10.48,7.61c-0.56,0.29-0.98,0.43-1.4,0.5c-0.42,0.07-0.85,0.07-1.4,0.07
		c-0.06,1-0.14,2-0.26,2.99C393.37,688.64,393.22,689.63,393.02,690.61L393.02,690.61L393.02,690.61z M443.84,678.92
		c0.83-0.29,1.65-0.58,2.48-0.87c0.83-0.29,1.65-0.59,2.48-0.9l-3.18-2.32l-3.18-2.32c-0.18-0.13-0.39-0.11-0.53,0
		c-0.15,0.11-0.23,0.3-0.15,0.51l1.05,2.95L443.84,678.92z M526.85,632.66c2.75-2.25,5.44-4.54,8.09-6.89
		c2.64-2.35,5.24-4.75,7.8-7.21c-3.44-0.08-6.88-0.15-10.31-0.24c-3.43-0.08-6.87-0.17-10.31-0.26l2.37,7.3L526.85,632.66z
		 M592.59,553.47c1.83-3.32,3.59-6.69,5.28-10.09s3.32-6.85,4.88-10.35c-5.96,4.8-12.49,8.91-19.46,12.21
		c-6.97,3.3-14.39,5.79-22.12,7.34c5.23,0.21,10.46,0.38,15.7,0.53S587.34,553.37,592.59,553.47L592.59,553.47L592.59,553.47z
		 M626.41,403c-0.33-5.67-0.83-11.28-1.49-16.83c-0.66-5.56-1.49-11.06-2.47-16.52l-14.23-10.37l-14.23-10.37l-9.91,7.34l-9.91,7.34
		c10.39,3.71,20.27,8.82,29.15,15.37C612.19,385.5,620.06,393.51,626.41,403L626.41,403L626.41,403z M585.78,273.62
		c-3.21-5.21-6.59-10.3-10.12-15.26c-3.53-4.97-7.23-9.81-11.07-14.51c-2.85,1.75-5.69,3.39-8.6,4.99c-2.9,1.59-5.87,3.14-8.94,4.7
		l1.12,22.57l1.12,22.57h14.14h14.14l4.12-12.53L585.78,273.62z M149.99,361.84c-11.04,1.98-17.97-5.35-19.39-13.67
		s2.69-17.63,13.73-19.61c10.75-1.69,17.54,5.78,18.95,14.1C164.7,350.99,160.74,360.15,149.99,361.84L149.99,361.84L149.99,361.84z
		 M125.68,502.94c0-4.51,1.84-8.61,4.88-11.57c3.04-2.96,7.28-4.8,12.09-4.8c4.81,0,9.05,1.83,12.09,4.8
		c3.04,2.96,4.88,7.06,4.88,11.57c0,4.8-1.84,9.04-4.88,12.07c-3.04,3.04-7.28,4.87-12.09,4.87c-4.81,0-9.05-1.83-12.09-4.87
		C127.51,511.98,125.68,507.74,125.68,502.94L125.68,502.94L125.68,502.94z M561.17,477.54l5.65,3.11l5.65,3.11l-0.51,11.63
		l-0.51,11.63c-0.02,0.48-0.29,0.87-0.67,1.08c-0.37,0.21-0.85,0.24-1.27,0l-10.12-5.67l-10.12-5.67v-6.22v-6.22
		c2.52-0.6,4.92-1.72,6.98-2.98C558.32,480.07,560.03,478.67,561.17,477.54L561.17,477.54L561.17,477.54z M571.56,406.03l0.46,11.2
		l0.46,11.2l-5.37,3.11l-5.37,3.11c-1.79-1.79-3.54-3.17-5.45-4.26c-1.91-1.09-3.99-1.89-6.43-2.5v-6.21v-6.21l9.9-5.28l9.9-5.28
		c0.42-0.23,0.89-0.19,1.26,0.02S571.54,405.55,571.56,406.03z M611.51,469.71l-3.28-6.39l-3.28-6.39c-0.1-0.19-0.15-0.4-0.14-0.61
		c0-0.21,0.05-0.42,0.16-0.6l3.27-6.07l3.27-6.07c0.16-0.3,0.19-0.63,0.12-0.93s-0.26-0.58-0.54-0.77l-6.28-4.17l-6.28-4.17
		l8.48-4.8l8.48-4.8c1.96,4.8,3.65,9.88,4.86,15.24c1.2,5.36,1.91,11,1.91,16.92c0,5.92-0.71,11.7-1.99,17.2
		c-1.27,5.5-3.11,10.73-5.36,15.53l-8.19-4.8l-8.19-4.8l6.26-3.91l6.26-3.91c0.29-0.18,0.48-0.45,0.57-0.76
		C611.69,470.35,611.67,470.01,611.51,469.71z M570.21,449.34l5.39-3.11l5.39-3.11l9.29,6.14l9.29,6.14c0.4,0.26,0.59,0.68,0.58,1.1
		c-0.01,0.42-0.21,0.84-0.62,1.09l-9.27,5.75l-9.27,5.75l-5.39-3.11l-5.39-3.11c0.29-1.59,0.58-3.99,0.65-6.47
		S570.78,451.32,570.21,449.34L570.21,449.34L570.21,449.34z M550.43,317.27l8.75,6.21l8.75,6.21l-4.79,14.68l-4.79,14.68
		c-1.13-0.29-2.13-0.43-3.12-0.5s-1.98-0.07-3.12-0.07l-0.85-20.6L550.43,317.27z M606.98,409.26l-8.48,4.8l-8.48,4.8l-0.52-7.62
		l-0.52-7.62c-0.02-0.32-0.16-0.61-0.38-0.83s-0.5-0.36-0.83-0.38l-7.03-0.51l-7.03-0.51c-0.21-0.02-0.4-0.08-0.58-0.18
		c-0.17-0.1-0.32-0.25-0.43-0.42l-3.76-5.98l-3.76-5.98c-0.18-0.28-0.45-0.48-0.75-0.56c-0.3-0.08-0.63-0.06-0.93,0.09l-6.82,3.41
		l-6.82,3.41v-9.59v-9.59c11.6,1.4,22.48,5.21,32.17,10.92C591.71,392.61,600.19,400.23,606.98,409.26L606.98,409.26L606.98,409.26z
		 M549.28,535.68v-9.32v-9.32l6.82,3.41l6.82,3.41c0.3,0.15,0.63,0.17,0.93,0.09c0.3-0.08,0.57-0.28,0.75-0.56l3.75-5.97l3.75-5.97
		c0.11-0.18,0.27-0.33,0.45-0.43c0.18-0.1,0.39-0.17,0.6-0.17l7.23-0.27l7.23-0.27c0.33-0.01,0.63-0.15,0.85-0.36
		c0.22-0.21,0.37-0.51,0.39-0.84l0.57-7.59l0.57-7.59l7.92,4.8l7.92,4.8c-6.5,9.03-14.85,16.5-24.47,22
		C571.77,531.02,560.88,534.54,549.28,535.68L549.28,535.68L549.28,535.68z M541.93,567.26c4.52,0,8.62,1.83,11.58,4.87
		c2.97,3.04,4.8,7.27,4.8,12.07c0.02,4.51-1.82,8.61-4.79,11.57s-7.08,4.8-11.6,4.8c-4.81,0-9.05-1.83-12.09-4.8
		c-3.04-2.96-4.88-7.06-4.88-11.57c0-4.8,1.84-9.04,4.88-12.07C532.88,569.1,537.12,567.26,541.93,567.26L541.93,567.26
		L541.93,567.26z M475.19,502.94l8.48-4.8l8.48-4.8l0.54,7.6l0.54,7.6c0.02,0.33,0.17,0.63,0.39,0.84c0.22,0.22,0.52,0.35,0.86,0.36
		l6.97,0.25l6.97,0.25c0.22,0.01,0.43,0.07,0.61,0.18c0.18,0.11,0.34,0.26,0.45,0.44l3.69,6.01l3.69,6.01
		c0.17,0.28,0.44,0.47,0.73,0.56c0.3,0.09,0.62,0.07,0.92-0.06l6.9-3.18l6.9-3.18v9.32v9.32c-11.87-1.13-22.9-4.8-32.59-10.45
		S481.69,511.97,475.19,502.94L475.19,502.94L475.19,502.94z M436.72,658.14l-0.56-1.4l-0.56-1.4c1.37-1,6.7-4.72,11.82-8.4
		c5.12-3.68,10.03-7.32,10.53-8.17c0.77-1.25,0.53-2.61-0.25-3.66s-2.08-1.79-3.45-1.79h-12.71h-12.71l-3.69-11.01l-3.69-11.01
		c12.73,1.13,25.74,2.26,38.9,3.24s26.44,1.83,39.73,2.41L494.42,635l-5.65,18.06h-22.06h-22.06c-1.69,0-3.24,0.57-4.58,1.48
		C438.72,655.47,437.59,656.73,436.72,658.14L436.72,658.14L436.72,658.14z M408.45,575.72c0-4.5,1.98-8.58,5.09-11.54
		s7.35-4.79,11.87-4.79c4.81,0,9.05,1.83,12.09,4.79c3.04,2.96,4.88,7.04,4.88,11.54c0,4.8-1.84,9.04-4.88,12.07
		c-3.04,3.04-7.28,4.87-12.09,4.87c-4.52,0-8.76-1.83-11.87-4.87C410.43,584.76,408.45,580.52,408.45,575.72L408.45,575.72
		L408.45,575.72z M349.63,567.84c0-4.51,1.98-8.75,5.09-11.86c3.11-3.11,7.35-5.09,11.87-5.09c4.81,0,9.05,1.98,12.09,5.09
		c3.04,3.11,4.88,7.34,4.88,11.86s-1.84,8.75-4.88,11.86c-3.04,3.11-7.28,5.09-12.09,5.09c-4.52,0-8.76-1.98-11.87-5.09
		S349.63,572.35,349.63,567.84L349.63,567.84L349.63,567.84z M383.37,644.03l7.73,5.65l7.73,5.65l-2.43,7.51l-2.43,7.51
		c-0.11,0.34-0.4,0.5-0.69,0.49s-0.57-0.19-0.65-0.53c-2.68-10.92-8.69-20.34-16.9-27.29c-8.21-6.96-18.61-11.46-30.06-12.55
		l-0.56-15.24L344.56,600c4.23,0.85,8.47,1.56,12.79,2.27s8.7,1.42,13.22,2.27c6.79,1.11,13.86,2.1,21.07,3.03
		s14.57,1.78,21.94,2.62l-3.96,11.57l-3.96,11.57h-12.73h-12.73c-1.13,0-2.01,0.36-2.64,0.91c-0.63,0.55-1.01,1.3-1.17,2.09
		c-0.35,1.75,0.75,3.2,2.26,4.45C380.14,642.02,382.06,643.07,383.37,644.03L383.37,644.03L383.37,644.03z M497.81,580.83
		c0,4.8-1.84,9.03-4.88,12.06s-7.28,4.85-12.09,4.85c-4.81,0-9.05-1.83-12.09-4.85s-4.88-7.25-4.88-12.06
		c0-4.51,1.84-8.61,4.88-11.57s7.28-4.8,12.09-4.8c4.81,0,9.05,1.83,12.09,4.8S497.81,576.31,497.81,580.83L497.81,580.83
		L497.81,580.83z M326.44,557.12c0,4.51-1.84,8.74-4.88,11.84c-3.04,3.1-7.28,5.07-12.09,5.07c-4.52,0-8.76-1.97-11.87-5.07
		c-3.11-3.1-5.09-7.32-5.09-11.84c0-4.8,1.98-9.04,5.09-12.07s7.35-4.87,11.87-4.87c4.81,0,9.05,1.83,12.09,4.87
		C324.6,548.08,326.44,552.32,326.44,557.12L326.44,557.12L326.44,557.12z M295.36,517.04l18.1-12.97l18.1-12.97L357,509.72
		l25.45,18.62c5.14,3.19,10.72,2.39,14.56-0.43s5.94-7.66,4.09-12.56l-9.89-30.18l-9.89-30.18l25.73-18.64l25.73-18.64
		c1.69-1.4,2.96-3.09,3.74-5c0.77-1.9,1.05-4.02,0.76-6.26c0.85,0.27,1.69,0.4,2.47,0.47c0.78,0.07,1.49,0.07,2.07,0.07
		c3.1,0,5.92-0.42,8.61-1.13c2.69-0.71,5.24-1.7,7.78-2.83c-5.1,7.63-9.06,15.96-11.75,24.85c-2.69,8.89-4.1,18.34-4.1,28.22
		c0,22.02,7.21,42.19,19.45,58.41c12.23,16.22,29.49,28.49,49.57,34.69c-35.77-2.79-72.34-6.56-108.68-11.77
		C366.37,532.22,330.25,525.57,295.36,517.04L295.36,517.04L295.36,517.04z M275,421.23c-0.27-0.2-0.34-0.51-0.25-0.77
		c0.09-0.26,0.32-0.48,0.66-0.48h16.76h16.76c2.54,0,4.94-0.85,6.92-2.25c1.98-1.41,3.54-3.38,4.39-5.62l5.24-15.7l5.24-15.7
		c0.13-0.39,0.48-0.59,0.82-0.58c0.34,0,0.68,0.2,0.81,0.6l4.97,15.69l4.97,15.69c0.85,2.25,2.4,4.22,4.39,5.62
		c1.98,1.41,4.39,2.25,6.92,2.25h14.82h14.82c0.94,0,1.6,0.6,1.84,1.34c0.24,0.74,0.05,1.61-0.71,2.16l-12,8.68l-12,8.68
		c-2.25,1.42-3.8,3.54-4.57,5.87c-0.77,2.33-0.77,4.87,0.07,7.11L360.6,468l4.73,14.16c0.29,0.86-0.06,1.66-0.67,2.1
		s-1.47,0.54-2.21,0.01l-12.07-8.73l-12.07-8.73c-2.04-1.52-4.55-2.28-7.06-2.28s-5.02,0.76-7.06,2.28l-12.98,9.57l-12.98,9.57
		c-0.37,0.27-0.8,0.23-1.11,0.01c-0.31-0.22-0.49-0.62-0.35-1.05l4.94-15.54l4.94-15.54c0.85-2.25,0.85-4.78,0.07-7.11
		c-0.78-2.33-2.34-4.45-4.61-5.87l-13.56-9.81L275,421.23z M206.53,352.81c-4.81,0.85-9.33-0.28-12.86-2.74
		c-3.53-2.46-6.07-6.27-6.91-10.78c-0.58-4.51,0.55-9.03,3.02-12.63c2.47-3.6,6.29-6.28,11.1-7.12c4.54-0.56,8.92,0.71,12.39,3.25
		c3.46,2.54,6,6.34,6.85,10.85c0.85,4.51-0.28,8.89-2.75,12.34C214.89,349.43,211.07,351.97,206.53,352.81L206.53,352.81
		L206.53,352.81z M279.51,320.65c0.85,4.51-0.29,8.9-2.76,12.36c-2.48,3.46-6.29,6.01-10.81,6.85s-9.04-0.29-12.65-2.76
		c-3.61-2.47-6.3-6.29-7.16-10.8c-0.56-4.8,0.72-9.32,3.27-12.84c2.55-3.53,6.37-6.06,10.89-6.91s9.05,0.29,12.59,2.83
		C276.4,311.92,278.95,315.87,279.51,320.65L279.51,320.65L279.51,320.65z M432.98,169.54l6.44,4.46l6.44,4.46
		c0.49,0.34,0.83,0.82,1.01,1.35c0.18,0.53,0.19,1.12,0,1.69l-2.51,7.5l-2.51,7.5l-8.84-2.26l-8.84-2.26
		c-0.53-0.14-0.93-0.51-1.12-0.97c-0.19-0.46-0.18-1,0.09-1.48l4.84-8.37l4.84-8.37c0.25-0.51,0.38-1.02,0.4-1.53
		c0.02-0.51-0.07-1.03-0.27-1.55c-0.02-0.05-0.01-0.09,0.01-0.13C432.95,169.55,432.98,169.54,432.98,169.54z M403.37,242.23
		l2.4-8.17l2.4-8.17c0.21-0.73,0.74-1.26,1.38-1.5c0.64-0.25,1.38-0.22,2.04,0.17l7.2,4.32l7.2,4.32c-3.67,1.4-7.35,2.96-11.09,4.51
		C411.15,239.27,407.33,240.83,403.37,242.23L403.37,242.23L403.37,242.23z M430.53,287.38c-4.54,0.85-8.92-0.29-12.39-2.76
		c-3.46-2.47-6-6.29-6.85-10.8s0.28-9.03,2.75-12.63s6.29-6.28,10.83-7.12c4.52-0.56,9.04,0.72,12.64,3.26
		c3.6,2.54,6.28,6.34,7.13,10.84c0.58,4.53-0.69,8.91-3.24,12.37C438.87,284,435.05,286.53,430.53,287.38L430.53,287.38
		L430.53,287.38z M376.21,307.67c-4.52,0.85-9.04-0.28-12.65-2.74c-3.61-2.46-6.3-6.27-7.16-10.78c-0.56-4.51,0.72-9.03,3.27-12.63
		s6.37-6.28,10.89-7.12c4.52-0.56,8.91,0.71,12.37,3.25c3.47,2.54,6.02,6.34,6.86,10.85s-0.29,8.89-2.76,12.34
		C384.55,304.28,380.73,306.82,376.21,307.67L376.21,307.67L376.21,307.67z M309.47,273.81c9.33-6.47,17.24-15.22,22.83-25.37
		c5.58-10.16,8.83-21.73,8.83-33.88c0-5.04-0.56-9.85-1.58-14.48c-1.02-4.63-2.51-9.09-4.36-13.43c-0.25-0.59-0.12-1.2,0.23-1.63
		s0.93-0.67,1.56-0.54c5.1,1.09,10.71,0.32,15.64-1.62c4.93-1.94,9.19-5.06,11.58-8.67c0.28-0.42,0.73-0.6,1.15-0.57
		c0.43,0.04,0.83,0.3,1.03,0.76c0.85,2.04,2.29,4.56,3.85,7.04c1.55,2.49,3.22,4.94,4.52,6.87c0.51,0.76,0.58,1.67,0.29,2.44
		c-0.29,0.77-0.93,1.41-1.82,1.65l-8.68,2.34l-8.68,2.34c-1.62,0.81-2.3,2.31-2.24,3.77c0.06,1.46,0.87,2.9,2.24,3.57l9.14,2.47
		l9.14,2.47c0.67,0.18,1.16,0.65,1.4,1.23c0.24,0.58,0.22,1.26-0.12,1.86l-4.68,8.11l-4.68,8.11c-0.62,1.83-0.41,3.34,0.41,4.31
		c0.82,0.97,2.26,1.38,4.13,0.99c1.02-0.22,3.94-1.77,7.27-3.66c3.33-1.89,7.06-4.11,9.71-5.67c0.7-0.41,1.5-0.44,2.18-0.17
		c0.68,0.27,1.24,0.85,1.46,1.63c0.85,3.04,2.14,7.64,3.24,11.54c1.1,3.9,2.02,7.11,2.11,7.39c-14.14,5.36-28.42,10.44-42.91,15.24
		S324.46,269.59,309.47,273.81L309.47,273.81L309.47,273.81z M314.01,292.45c4.52-0.85,9.04,0.28,12.57,2.74
		c3.53,2.46,6.08,6.27,6.66,10.78c0.85,4.51-0.29,9.04-2.76,12.65c-2.48,3.61-6.29,6.3-10.81,7.14c-4.52,0.56-9.05-0.72-12.66-3.27
		c-3.61-2.55-6.3-6.36-7.15-10.87c-0.56-4.51,0.72-8.89,3.27-12.34C305.67,295.83,309.49,293.29,314.01,292.45L314.01,292.45
		L314.01,292.45z M417.53,396.27h-27.72H362.1l-8.92-27.73l-8.92-27.73c-0.23-0.72-0.15-1.48,0.18-2.1
		c0.32-0.63,0.89-1.13,1.62-1.36c14.4-4.54,28.65-9.21,42.71-14.06c14.06-4.85,27.94-9.9,41.58-15.19c0.6-0.23,1.22-0.13,1.7,0.19
		c0.47,0.32,0.8,0.86,0.81,1.5l0.24,15.12l0.24,15.12c0,0.29-0.09,0.55-0.25,0.77c-0.16,0.22-0.39,0.38-0.66,0.47
		c-6.83,2.13-12.82,6.38-17.1,12.04c-4.28,5.65-6.86,12.71-6.86,20.43c0,4.23,0.85,8.32,2.4,12.13S414.68,393.18,417.53,396.27
		L417.53,396.27L417.53,396.27z M433.34,230.36c-0.28-0.28-1.92-3.21-3.89-6.77c-1.96-3.57-4.25-7.77-5.8-10.6
		c-0.41-0.75-0.41-1.58-0.11-2.29c0.3-0.71,0.91-1.28,1.73-1.5l6.86-1.83l6.86-1.83c0,1.5,0.88,2.65,2.09,3.21
		c1.22,0.56,2.77,0.52,4.14-0.37l9.82-7.16l9.82-7.16c0.38-0.28,0.83-0.41,1.28-0.41c0.45,0,0.89,0.15,1.27,0.43l8.43,6.31
		l8.42,6.31c-8.21,3.94-16.7,7.89-25.26,11.83C450.45,222.47,441.82,226.42,433.34,230.36L433.34,230.36L433.34,230.36z
		 M498.96,243.92c0.85,4.51-0.29,9.03-2.76,12.56c-2.48,3.53-6.29,6.06-10.81,6.62c-4.81,0.85-9.34-0.28-12.88-2.74
		c-3.54-2.46-6.09-6.27-6.93-10.78c-0.56-4.51,0.58-9.03,3.05-12.56s6.29-6.08,11.1-6.65c4.52-0.85,8.91,0.29,12.37,2.76
		S498.12,239.4,498.96,243.92L498.96,243.92L498.96,243.92z M473.5,383.86c0.58-1.4,1.14-3.09,1.57-4.86c0.42-1.76,0.7-3.6,0.7-5.29
		c0-7.28-2.32-14.04-6.29-19.54s-9.57-9.76-16.13-12.03c-0.57-0.2-1.05-0.56-1.39-1.03c-0.34-0.47-0.54-1.04-0.56-1.64l-0.52-18.96
		l-0.52-18.96c-0.01-0.53,0.14-1.04,0.41-1.46c0.28-0.42,0.68-0.77,1.17-0.97c13.57-5.56,26.87-11.38,39.89-17.41
		c13.02-6.03,25.76-12.25,38.22-18.62l1.98,47.42l1.98,47.42c-11.6,0.85-22.62,3.66-32.79,8.1
		C491.04,370.46,481.71,376.52,473.5,383.86L473.5,383.86L473.5,383.86z M517.45,388.69l-3.69,5.77l-3.69,5.77
		c-0.12,0.18-0.27,0.33-0.45,0.43s-0.39,0.16-0.6,0.17l-7.27,0.24l-7.27,0.24c-0.33,0.01-0.63,0.15-0.86,0.36
		c-0.22,0.22-0.37,0.51-0.4,0.85l-0.54,7.6l-0.54,7.6l-8.19-4.78l-8.19-4.78c6.79-8.74,15.27-16.22,24.96-21.8
		c9.68-5.58,20.57-9.25,32.17-10.36v9.59v9.59l-6.88-3.46l-6.88-3.46c-0.3-0.15-0.63-0.18-0.93-0.09
		C517.9,388.22,517.63,388.41,517.45,388.69z M520.43,434.66l-5.37-3.38l-5.37-3.38l0.76-10.88l0.76-10.88
		c0.03-0.47,0.3-0.84,0.66-1.05c0.36-0.2,0.82-0.23,1.24-0.01l9.89,5.2l9.89,5.2l-0.29,6.21l-0.29,6.21
		c-2.83,0.75-5.25,1.85-7.24,3.06C523.08,432.17,521.52,433.49,520.43,434.66L520.43,434.66L520.43,434.66z M520.43,477.54
		c1.54,1.46,3.14,2.7,5.03,3.8c1.9,1.1,4.1,2.06,6.85,2.96v6.22v6.22l-10.09,5.42l-10.09,5.42c-0.43,0.23-0.9,0.19-1.27-0.02
		c-0.37-0.22-0.63-0.61-0.65-1.09l-0.26-11.64l-0.26-11.64l5.37-2.82L520.43,477.54z M482.87,454.58l9.18-6.02l9.18-6.02l5.37,3.11
		l5.37,3.11c-0.44,1.79-0.63,4.41-0.61,7.04c0.02,2.63,0.24,5.26,0.61,7.07l-5.37,2.82l-5.37,2.82l-9.18-5.88l-9.18-5.88
		c-0.4-0.25-0.6-0.67-0.6-1.09C482.28,455.25,482.48,454.84,482.87,454.58z M477.15,456.16l-3.25,6.21l-3.25,6.21
		c-0.15,0.29-0.18,0.62-0.11,0.92c0.08,0.3,0.26,0.57,0.54,0.76l6.3,4.21l6.3,4.21l-8.48,4.78l-8.48,4.78
		c-1.98-5.07-3.68-10.29-4.89-15.65c-1.21-5.36-1.92-10.86-1.92-16.51c0-5.92,0.71-11.7,1.99-17.28c1.27-5.58,3.11-10.95,5.36-16.04
		l8.21,4.8l8.21,4.8l-6.3,4.19l-6.3,4.19c-0.28,0.18-0.46,0.46-0.54,0.76s-0.05,0.63,0.11,0.92l3.25,6.25l3.25,6.25
		c0.1,0.19,0.15,0.39,0.15,0.6C477.29,455.77,477.24,455.97,477.15,456.16z M213.88,524.96c0,4.78-1.84,9.02-4.88,12.06
		c-3.04,3.04-7.28,4.88-12.09,4.88c-4.52-0.02-8.62-1.86-11.58-4.9c-2.97-3.04-4.8-7.26-4.8-12.05c0-4.51,1.84-8.61,4.8-11.57
		c2.97-2.96,7.06-4.8,11.58-4.8c4.81,0,9.05,1.83,12.09,4.8C212.04,516.35,213.88,520.44,213.88,524.96L213.88,524.96L213.88,524.96
		z M268.77,542.44c0,4.51-1.98,8.75-5.09,11.86c-3.11,3.11-7.35,5.09-11.87,5.09c-4.83,0-9.08-1.98-12.12-5.09
		c-3.04-3.11-4.88-7.34-4.88-11.86c0-4.8,1.84-9.03,4.88-12.06c3.04-3.03,7.29-4.85,12.12-4.85c4.52,0,8.76,1.83,11.87,4.85
		S268.77,537.64,268.77,542.44L268.77,542.44L268.77,542.44z M263.66,509.13c-15.83-4.5-31.24-9.43-46.22-14.73
		c-14.99-5.29-29.56-10.94-43.71-16.86c19.04-5.23,28.64-21.3,28.68-37.55s-9.48-32.69-28.68-38.65l-0.27-11.57l-0.27-11.57
		c24.18-4.15,48.09-8.86,71.65-14.1s46.79-11.05,69.6-17.39c0.51-0.14,1,0.03,1.32,0.36c0.32,0.33,0.47,0.83,0.3,1.33l-7.81,23.93
		l-7.81,23.93h-31.68h-31.68c-2.83,0-5.37,0.85-7.34,2.33c-1.98,1.48-3.39,3.61-3.97,6.16c-0.85,2.25-0.85,4.78-0.14,7.11
		c0.71,2.32,2.12,4.44,4.1,5.84l25.73,18.64l25.73,18.64l-8.77,27.07L263.66,509.13z"/>
</g>
</svg>
