  0
SECTION
  2
HEADER
  9
$ACADVER
  1
AC1014
  9
$ACADMAINTVER
 70
     9
  9
$DWGCODEPAGE
  3
ANSI_1252
  9
$INSBASE
 10
0.0
 20
0.0
 30
0.0
  9
$EXTMIN
 10
1.000000000000000E+20
 20
1.000000000000000E+20
 30
1.000000000000000E+20
  9
$EXTMAX
 10
-1.000000000000000E+20
 20
-1.000000000000000E+20
 30
-1.000000000000000E+20
  9
$LIMMIN
 10
0.0
 20
0.0
  9
$LIMMAX
 10
12.0
 20
9.0
  9
$ORTHOMODE
 70
     0
  9
$REGENMODE
 70
     1
  9
$FILLMODE
 70
     1
  9
$QTEXTMODE
 70
     0
  9
$MIRRTEXT
 70
     1
  9
$DRAGMODE
 70
     2
  9
$LTSCALE
 40
1.0
  9
$OSMODE
 70
    37
  9
$ATTMODE
 70
     1
  9
$TEXTSIZE
 40
0.2
  9
$TRACEWID
 40
0.05
  9
$TEXTSTYLE
  7
STANDARD
  9
$CLAYER
  8
0
  9
$CELTYPE
  6
BYLAYER
  9
$CECOLOR
 62
   256
  9
$CELTSCALE
 40
1.0
  9
$DELOBJ
 70
     1
  9
$DISPSILH
 70
     0
  9
$DIMSCALE
 40
1.0
  9
$DIMASZ
 40
0.18
  9
$DIMEXO
 40
0.0625
  9
$DIMDLI
 40
0.38
  9
$DIMRND
 40
0.0
  9
$DIMDLE
 40
0.0
  9
$DIMEXE
 40
0.18
  9
$DIMTP
 40
0.0
  9
$DIMTM
 40
0.0
  9
$DIMTXT
 40
0.18
  9
$DIMCEN
 40
0.09
  9
$DIMTSZ
 40
0.0
  9
$DIMTOL
 70
     0
  9
$DIMLIM
 70
     0
  9
$DIMTIH
 70
     1
  9
$DIMTOH
 70
     1
  9
$DIMSE1
 70
     0
  9
$DIMSE2
 70
     0
  9
$DIMTAD
 70
     0
  9
$DIMZIN
 70
     0
  9
$DIMBLK
  1

  9
$DIMASO
 70
     1
  9
$DIMSHO
 70
     1
  9
$DIMPOST
  1

  9
$DIMAPOST
  1

  9
$DIMALT
 70
     0
  9
$DIMALTD
 70
     2
  9
$DIMALTF
 40
25.4
  9
$DIMLFAC
 40
1.0
  9
$DIMTOFL
 70
     0
  9
$DIMTVP
 40
0.0
  9
$DIMTIX
 70
     0
  9
$DIMSOXD
 70
     0
  9
$DIMSAH
 70
     0
  9
$DIMBLK1
  1

  9
$DIMBLK2
  1

  9
$DIMSTYLE
  2
STANDARD
  9
$DIMCLRD
 70
     0
  9
$DIMCLRE
 70
     0
  9
$DIMCLRT
 70
     0
  9
$DIMTFAC
 40
1.0
  9
$DIMGAP
 40
0.09
  9
$DIMJUST
 70
     0
  9
$DIMSD1
 70
     0
  9
$DIMSD2
 70
     0
  9
$DIMTOLJ
 70
     1
  9
$DIMTZIN
 70
     0
  9
$DIMALTZ
 70
     0
  9
$DIMALTTZ
 70
     0
  9
$DIMFIT
 70
     3
  9
$DIMUPT
 70
     0
  9
$DIMUNIT
 70
     2
  9
$DIMDEC
 70
     4
  9
$DIMTDEC
 70
     4
  9
$DIMALTU
 70
     2
  9
$DIMALTTD
 70
     2
  9
$DIMTXSTY
  7
STANDARD
  9
$DIMAUNIT
 70
     0
  9
$LUNITS
 70
     2
  9
$LUPREC
 70
     4
  9
$SKETCHINC
 40
0.1
  9
$FILLETRAD
 40
0.5
  9
$AUNITS
 70
     0
  9
$AUPREC
 70
     0
  9
$MENU
  1
.
  9
$ELEVATION
 40
0.0
  9
$PELEVATION
 40
0.0
  9
$THICKNESS
 40
0.0
  9
$LIMCHECK
 70
     0
  9
$CHAMFERA
 40
0.5
  9
$CHAMFERB
 40
0.5
  9
$CHAMFERC
 40
1.0
  9
$CHAMFERD
 40
0.0
  9
$SKPOLY
 70
     0
  9
$TDCREATE
 40
2459455.468043646
  9
$TDUPDATE
 40
2459455.468043739
  9
$TDINDWG
 40
0.0000000116
  9
$TDUSRTIMER
 40
0.0000000116
  9
$USRTIMER
 70
     1
  9
$ANGBASE
 50
0.0
  9
$ANGDIR
 70
     0
  9
$PDMODE
 70
     0
  9
$PDSIZE
 40
0.0
  9
$PLINEWID
 40
0.0
  9
$COORDS
 70
     1
  9
$SPLFRAME
 70
     0
  9
$SPLINETYPE
 70
     6
  9
$SPLINESEGS
 70
     8
  9
$ATTDIA
 70
     0
  9
$ATTREQ
 70
     1
  9
$HANDLING
 70
     1
  9
$HANDSEED
  5
19C
  9
$SURFTAB1
 70
     6
  9
$SURFTAB2
 70
     6
  9
$SURFTYPE
 70
     6
  9
$SURFU
 70
     6
  9
$SURFV
 70
     6
  9
$UCSNAME
  2

  9
$UCSORG
 10
0.0
 20
0.0
 30
0.0
  9
$UCSXDIR
 10
1.0
 20
0.0
 30
0.0
  9
$UCSYDIR
 10
0.0
 20
1.0
 30
0.0
  9
$PUCSNAME
  2

  9
$PUCSORG
 10
0.0
 20
0.0
 30
0.0
  9
$PUCSXDIR
 10
1.0
 20
0.0
 30
0.0
  9
$PUCSYDIR
 10
0.0
 20
1.0
 30
0.0
  9
$USERI1
 70
     0
  9
$USERI2
 70
     0
  9
$USERI3
 70
     0
  9
$USERI4
 70
     0
  9
$USERI5
 70
     0
  9
$USERR1
 40
0.0
  9
$USERR2
 40
0.0
  9
$USERR3
 40
0.0
  9
$USERR4
 40
0.0
  9
$USERR5
 40
0.0
  9
$WORLDVIEW
 70
     1
  9
$SHADEDGE
 70
     3
  9
$SHADEDIF
 70
    70
  9
$TILEMODE
 70
     1
  9
$MAXACTVP
 70
    64
  9
$PINSBASE
 10
0.0
 20
0.0
 30
0.0
  9
$PLIMCHECK
 70
     0
  9
$PEXTMIN
 10
1.000000000000000E+20
 20
1.000000000000000E+20
 30
1.000000000000000E+20
  9
$PEXTMAX
 10
-1.000000000000000E+20
 20
-1.000000000000000E+20
 30
-1.000000000000000E+20
  9
$PLIMMIN
 10
0.0
 20
0.0
  9
$PLIMMAX
 10
12.0
 20
9.0
  9
$UNITMODE
 70
     0
  9
$VISRETAIN
 70
     1
  9
$PLINEGEN
 70
     0
  9
$PSLTSCALE
 70
     1
  9
$TREEDEPTH
 70
  3020
  9
$PICKSTYLE
 70
     1
  9
$CMLSTYLE
  2
STANDARD
  9
$CMLJUST
 70
     0
  9
$CMLSCALE
 40
1.0
  9
$PROXYGRAPHICS
 70
     1
  9
$MEASUREMENT
 70
     0
  0
ENDSEC
  0
SECTION
  2
CLASSES
  0
CLASS
  1
ACDBDICTIONARYWDFLT
  2
AcDbDictionaryWithDefault
  3
ObjectDBX Classes
 90
        0
280
     0
281
     0
  0
CLASS
  1
VISUALSTYLE
  2
AcDbVisualStyle
  3
ObjectDBX Classes
 90
     4095
280
     0
281
     0
  0
CLASS
  1
MATERIAL
  2
AcDbMaterial
  3
ObjectDBX Classes
 90
     1153
280
     0
281
     0
  0
CLASS
  1
SUN
  2
AcDbSun
  3
SCENEOE
 90
     1024
280
     0
281
     0
  0
CLASS
  1
DICTIONARYVAR
  2
AcDbDictionaryVar
  3
ObjectDBX Classes
 90
        0
280
     0
281
     0
  0
CLASS
  1
XRECORD
  2
AcDbXrecord
  3
AutoCAD 2000
 90
        0
280
     0
281
     0
  0
CLASS
  1
LWPOLYLINE
  2
AcDbPolyline
  3
AutoCAD 2000
 90
        0
280
     0
281
     1
  0
CLASS
  1
HATCH
  2
AcDbHatch
  3
AutoCAD 2000
 90
        0
280
     0
281
     1
  0
CLASS
  1
ACDBPLACEHOLDER
  2
AcDbPlaceHolder
  3
ObjectDBX Classes
 90
        0
280
     0
281
     0
  0
CLASS
  1
LAYOUT
  2
AcDbLayout
  3
ObjectDBX Classes
 90
        0
280
     0
281
     0
  0
ENDSEC
  0
SECTION
  2
TABLES
  0
TABLE
  2
VPORT
  5
8
330
0
100
AcDbSymbolTable
 70
     1
  0
VPORT
  5
29
330
8
100
AcDbSymbolTableRecord
100
AcDbViewportTableRecord
  2
*ACTIVE
 70
     0
 10
0.0
 20
0.0
 11
1.0
 21
1.0
 12
0.0
 22
0.0
 13
0.0
 23
0.0
 14
0.5
 24
0.5
 15
0.5
 25
0.5
 16
0.0
 26
0.0
 36
1.0
 17
46.40000152587891
 27
63.09999847412109
 37
0.0
 40
126.1999969482422
 41
0.7353407709654497
 42
50.0
 43
0.0
 44
0.0
 50
0.0
 51
0.0
 71
     0
 72
   100
 73
     1
 74
     3
 75
     0
 76
     0
 77
     0
 78
     0
  0
ENDTAB
  0
TABLE
  2
LTYPE
  5
5
330
0
100
AcDbSymbolTable
 70
     1
  0
LTYPE
  5
14
330
5
100
AcDbSymbolTableRecord
100
AcDbLinetypeTableRecord
  2
BYBLOCK
 70
     0
  3

 72
    65
 73
     0
 40
0.0
  0
LTYPE
  5
15
330
5
100
AcDbSymbolTableRecord
100
AcDbLinetypeTableRecord
  2
BYLAYER
 70
     0
  3

 72
    65
 73
     0
 40
0.0
  0
LTYPE
  5
16
330
5
100
AcDbSymbolTableRecord
100
AcDbLinetypeTableRecord
  2
CONTINUOUS
 70
     0
  3
Solid line
 72
    65
 73
     0
 40
0.0
  0
ENDTAB
  0
TABLE
  2
LAYER
  5
2
330
0
100
AcDbSymbolTable
 70
     2
  0
LAYER
  5
10
330
2
100
AcDbSymbolTableRecord
100
AcDbLayerTableRecord
  2
0
 70
     0
 62
     7
  6
CONTINUOUS
  0
LAYER
  5
40
330
2
100
AcDbSymbolTableRecord
100
AcDbLayerTableRecord
  2
LAYER_1
 70
     0
 62
     7
  6
CONTINUOUS
  0
ENDTAB
  0
TABLE
  2
STYLE
  5
3
330
0
100
AcDbSymbolTable
 70
     1
  0
STYLE
  5
11
330
3
100
AcDbSymbolTableRecord
100
AcDbTextStyleTableRecord
  2
STANDARD
 70
     0
 40
0.0
 41
1.0
 50
0.0
 71
     0
 42
0.2
  3
txt
  4

  0
ENDTAB
  0
TABLE
  2
VIEW
  5
6
330
0
100
AcDbSymbolTable
 70
     0
  0
ENDTAB
  0
TABLE
  2
UCS
  5
7
330
0
100
AcDbSymbolTable
 70
     0
  0
ENDTAB
  0
TABLE
  2
APPID
  5
9
330
0
100
AcDbSymbolTable
 70
     1
  0
APPID
  5
12
330
9
100
AcDbSymbolTableRecord
100
AcDbRegAppTableRecord
  2
ACAD
 70
     0
  0
ENDTAB
  0
TABLE
  2
DIMSTYLE
  5
A
330
0
100
AcDbSymbolTable
 70
     1
  0
DIMSTYLE
105
27
330
A
100
AcDbSymbolTableRecord
100
AcDbDimStyleTableRecord
  2
STANDARD
 70
     0
  3

  4

  5

  6

  7

 40
1.0
 41
0.18
 42
0.0625
 43
0.38
 44
0.18
 45
0.0
 46
0.0
 47
0.0
 48
0.0
140
0.18
141
0.09
142
0.0
143
25.4
144
1.0
145
0.0
146
1.0
147
0.09
 71
     0
 72
     0
 73
     1
 74
     1
 75
     0
 76
     0
 77
     0
 78
     0
170
     0
171
     2
172
     0
173
     0
174
     0
175
     0
176
     0
177
     0
178
     0
270
     2
271
     4
272
     4
273
     2
274
     2
340
11
275
     0
280
     0
281
     0
282
     0
283
     1
284
     0
285
     0
286
     0
287
     3
288
     0
  0
ENDTAB
  0
TABLE
  2
BLOCK_RECORD
  5
1
330
0
100
AcDbSymbolTable
 70
     2
  0
BLOCK_RECORD
  5
1F
330
1
100
AcDbSymbolTableRecord
100
AcDbBlockTableRecord
  2
*MODEL_SPACE
  0
BLOCK_RECORD
  5
1B
330
1
100
AcDbSymbolTableRecord
100
AcDbBlockTableRecord
  2
*PAPER_SPACE
  0
BLOCK_RECORD
  5
41
330
1
100
AcDbSymbolTableRecord
100
AcDbBlockTableRecord
  2
BLOCK_2
  0
ENDTAB
  0
ENDSEC
  0
SECTION
  2
BLOCKS
  0
BLOCK
  5
20
330
1F
100
AcDbEntity
  8
0
100
AcDbBlockBegin
  2
*MODEL_SPACE
 70
     0
 10
0.0
 20
0.0
 30
0.0
  3
*MODEL_SPACE
  1

  0
ENDBLK
  5
21
330
1F
100
AcDbEntity
  8
0
100
AcDbBlockEnd
  0
BLOCK
  5
1C
330
1B
100
AcDbEntity
 67
     1
  8
0
100
AcDbBlockBegin
  2
*PAPER_SPACE
 70
     0
 10
0.0
 20
0.0
 30
0.0
  3
*PAPER_SPACE
  1

  0
ENDBLK
  5
1D
330
1B
100
AcDbEntity
 67
     1
  8
0
100
AcDbBlockEnd
  0
BLOCK
  5
43
330
41
100
AcDbEntity
  8
0
100
AcDbBlockBegin
  2
BLOCK_2
 70
     0
 10
0.0
 20
0.0
 30
0.0
  3
BLOCK_2
  1

  0
ENDBLK
  5
44
330
41
100
AcDbEntity
  8
0
100
AcDbBlockEnd
  0
ENDSEC
  0
SECTION
  2
ENTITIES
  0
INSERT
  5
42
330
1F
100
AcDbEntity
  8
LAYER_1
100
AcDbBlockReference
  2
BLOCK_2
 10
0.0
 20
0.0
 30
0.0
  0
SPLINE
  5
45
330
1F
100
AcDbEntity
  8
LAYER_1
 62
   178
100
AcDbSpline
210
0.0
220
0.0
230
1.0
 70
    11
 71
     3
 72
    83
 73
    79
 74
     0
 42
0.0000000001
 43
0.0000000001
 12
1.0
 22
0.0
 32
0.0
 13
1.0
 23
0.0
 33
0.0
 40
0.0
 40
0.0
 40
0.0
 40
0.0
 40
1.0
 40
1.0
 40
1.0
 40
2.0
 40
2.0
 40
2.0
 40
3.0
 40
3.0
 40
3.0
 40
4.0
 40
4.0
 40
4.0
 40
5.0
 40
5.0
 40
5.0
 40
6.0
 40
6.0
 40
6.0
 40
7.0
 40
7.0
 40
7.0
 40
8.0
 40
8.0
 40
8.0
 40
9.0
 40
9.0
 40
9.0
 40
10.0
 40
10.0
 40
10.0
 40
11.0
 40
11.0
 40
11.0
 40
12.0
 40
12.0
 40
12.0
 40
13.0
 40
13.0
 40
13.0
 40
14.0
 40
14.0
 40
14.0
 40
15.0
 40
15.0
 40
15.0
 40
16.0
 40
16.0
 40
16.0
 40
17.0
 40
17.0
 40
17.0
 40
18.0
 40
18.0
 40
18.0
 40
19.0
 40
19.0
 40
19.0
 40
20.0
 40
20.0
 40
20.0
 40
21.0
 40
21.0
 40
21.0
 40
22.0
 40
22.0
 40
22.0
 40
23.0
 40
23.0
 40
23.0
 40
24.0
 40
24.0
 40
24.0
 40
25.0
 40
25.0
 40
25.0
 40
26.0
 40
26.0
 40
26.0
 40
26.0
 10
72.5
 20
84.59999945068375
 30
0.0
 10
72.5
 20
84.59999945068375
 30
0.0
 10
73.30000305175781
 20
84.8999986877443
 30
0.0
 10
73.30000305175781
 20
84.8999986877443
 30
0.0
 10
73.30000305175781
 20
84.8999986877443
 30
0.0
 10
73.30000305175781
 20
84.8999986877443
 30
0.0
 10
73.30000305175781
 20
84.8999986877443
 30
0.0
 10
75.74581909179688
 20
85.95019628906266
 30
0.0
 10
77.95609283447266
 20
87.48038580322282
 30
0.0
 10
79.80000305175781
 20
89.3999986877443
 30
0.0
 10
84.10000610351562
 20
94.59999945068375
 30
0.0
 10
79.0
 20
100.1999979248048
 30
0.0
 10
79.10000610351562
 20
105.5999994506838
 30
0.0
 10
79.20001220703125
 20
111.0000009765627
 30
0.0
 10
81.50000762939453
 20
115.0999994506838
 30
0.0
 10
79.50000762939453
 20
119.6999998321535
 30
0.0
 10
77.50000762939453
 20
124.3000002136232
 30
0.0
 10
75.4000015258789
 20
124.0999980201723
 30
0.0
 10
72.0
 20
124.2999979486467
 30
0.0
 10
69.22042846679688
 20
124.3665007581712
 30
0.0
 10
66.47965240478516
 20
123.6379416217806
 30
0.0
 10
64.0999984741211
 20
122.1999979248048
 30
0.0
 10
62.09999847412109
 20
120.7999978294374
 30
0.0
 10
51.79999923706055
 20
110.4999981155397
 30
0.0
 10
51.69999694824219
 20
110.4999981155397
 30
0.0
 10
51.52428817749023
 20
111.1169929733278
 30
0.0
 10
51.1776008605957
 20
111.6716881027223
 30
0.0
 10
50.69999694824219
 20
112.0999984970094
 30
0.0
 10
50.22500991821289
 20
112.4153108825685
 30
0.0
 10
49.67000579833984
 20
112.5887489547731
 30
0.0
 10
49.09999847412109
 20
112.5999984970094
 30
0.0
 10
49.09999847412109
 20
112.5999984970094
 30
0.0
 10
46.09999847412109
 20
112.5999984970094
 30
0.0
 10
46.09999847412109
 20
112.5999984970094
 30
0.0
 10
45.65002822875977
 20
112.5955372085573
 30
0.0
 10
45.2064208984375
 20
112.493165992737
 30
0.0
 10
44.79999923706055
 20
112.2999983062746
 30
0.0
 10
44.20000076293945
 20
111.8999986877443
 30
0.0
 10
43.70000076293945
 20
111.2999983062746
 30
0.0
 10
43.70000076293945
 20
110.9999981155397
 30
0.0
 10
40.40000152587891
 20
115.3999986877443
 30
0.0
 10
36.5
 20
120.0999984970094
 30
0.0
 10
32.20000076293945
 20
123.39999773407
 30
0.0
 10
29.94470024108887
 20
125.018508457184
 30
0.0
 10
27.27220344543457
 20
125.9556179871561
 30
0.0
 10
24.5
 20
126.0999979233147
 30
0.0
 10
21.20000076293945
 20
126.0999979233147
 30
0.0
 10
18.20000076293945
 20
124.9999978771211
 30
0.0
 10
16.79999923706055
 20
121.9999981155397
 30
0.0
 10
15.39999771118164
 20
118.9999981155397
 30
0.0
 10
16.5
 20
112.4999981155397
 30
0.0
 10
16.09999847412109
 20
107.9999971618654
 30
0.0
 10
15.69999694824219
 20
103.4999971618654
 30
0.0
 10
10.29999828338623
 20
97.29999639892594
 30
0.0
 10
14.19999885559082
 20
91.89999487304704
 30
0.0
 10
16.14743423461914
 20
89.23529150390641
 30
0.0
 10
18.82042121887207
 20
87.18715765380875
 30
0.0
 10
21.89999771118164
 20
85.99999334716813
 30
0.0
 10
21.89999771118164
 20
85.99999334716813
 30
0.0
 10
22.29999732971191
 20
85.99999334716813
 30
0.0
 10
22.29999732971191
 20
85.99999334716813
 30
0.0
 10
0.4777747094631195
 20
72.77750494384782
 30
0.0
 10
-6.493687152862549
 20
44.3681497802736
 30
0.0
 10
6.728801250457764
 20
22.54592993164079
 30
0.0
 10
7.317342281341553
 20
21.57460882568375
 30
0.0
 10
7.941499710083008
 20
20.62532141113297
 30
0.0
 10
8.600000381469727
 20
19.69999792480485
 30
0.0
 10
8.600000381469727
 20
19.69999792480485
 30
0.0
 10
9.800000190734863
 20
18.00000097656266
 30
0.0
 10
9.800000190734863
 20
18.00000097656266
 30
0.0
 10
25.46174430847168
 20
-2.213225341796715
 30
0.0
 10
54.54415893554688
 20
-5.902937866210777
 30
0.0
 10
74.75739288330078
 20
9.758805297851723
 30
0.0
 10
94.97061920166016
 20
25.42054846191422
 30
0.0
 10
98.66033172607422
 20
54.50296118164079
 30
0.0
 10
82.99858856201172
 20
74.71619131469743
 30
0.0
 10
80.03669738769531
 20
78.53884603881852
 30
0.0
 10
76.49421691894531
 20
81.87388327026383
 30
0.0
 10
72.5
 20
84.59999945068375
 30
0.0
  0
SPLINE
  5
46
330
1F
100
AcDbEntity
  8
LAYER_1
 62
   178
100
AcDbSpline
210
0.0
220
0.0
230
1.0
 70
    11
 71
     3
 72
    20
 73
    16
 74
     0
 42
0.0000000001
 43
0.0000000001
 12
1.0
 22
0.0
 32
0.0
 13
1.0
 23
0.0
 33
0.0
 40
0.0
 40
0.0
 40
0.0
 40
0.0
 40
1.0
 40
1.0
 40
1.0
 40
2.0
 40
2.0
 40
2.0
 40
3.0
 40
3.0
 40
3.0
 40
4.0
 40
4.0
 40
4.0
 40
5.0
 40
5.0
 40
5.0
 40
5.0
 10
77.5999984741211
 20
72.19999792480485
 30
0.0
 10
77.5999984741211
 20
72.19999792480485
 30
0.0
 10
76.79999542236328
 20
72.69999792480485
 30
0.0
 10
76.79999542236328
 20
72.69999792480485
 30
0.0
 10
76.79999542236328
 20
72.69999792480485
 30
0.0
 10
76.49999237060547
 20
72.8999986877443
 30
0.0
 10
76.49999237060547
 20
72.8999986877443
 30
0.0
 10
76.49999237060547
 20
72.8999986877443
 30
0.0
 10
76.49999237060547
 20
73.19999792480485
 30
0.0
 10
76.49999237060547
 20
73.19999792480485
 30
0.0
 10
76.49999237060547
 20
73.3999986877443
 30
0.0
 10
76.39999389648438
 20
73.4999971618654
 30
0.0
 10
76.29999542236328
 20
73.69999792480485
 30
0.0
 10
76.29999542236328
 20
73.69999792480485
 30
0.0
 10
77.5999984741211
 20
72.19999792480485
 30
0.0
 10
77.5999984741211
 20
72.19999792480485
 30
0.0
  0
SPLINE
  5
47
330
1F
100
AcDbEntity
  8
LAYER_1
 62
   178
100
AcDbSpline
210
0.0
220
0.0
230
1.0
 70
    11
 71
     3
 72
    14
 73
    10
 74
     0
 42
0.0000000001
 43
0.0000000001
 12
1.0
 22
0.0
 32
0.0
 13
1.0
 23
0.0
 33
0.0
 40
0.0
 40
0.0
 40
0.0
 40
0.0
 40
1.0
 40
1.0
 40
1.0
 40
2.0
 40
2.0
 40
2.0
 40
3.0
 40
3.0
 40
3.0
 40
3.0
 10
70.5999984741211
 20
121.0999994506838
 30
0.0
 10
74.29999542236328
 20
122.2999994983675
 30
0.0
 10
75.79999542236328
 20
119.3999996414186
 30
0.0
 10
74.0999984741211
 20
115.7999992599489
 30
0.0
 10
69.69160461425781
 20
111.996752761841
 30
0.0
 10
64.11846923828125
 20
109.8098268737795
 30
0.0
 10
58.29999923706055
 20
109.5999994506838
 30
0.0
 10
60.42343139648438
 20
115.1140842666628
 30
0.0
 10
64.95577239990234
 20
119.3516350021364
 30
0.0
 10
70.5999984741211
 20
121.0999994506838
 30
0.0
  0
SPLINE
  5
48
330
1F
100
AcDbEntity
  8
LAYER_1
 62
   178
100
AcDbSpline
210
0.0
220
0.0
230
1.0
 70
    11
 71
     3
 72
    23
 73
    19
 74
     0
 42
0.0000000001
 43
0.0000000001
 12
1.0
 22
0.0
 32
0.0
 13
1.0
 23
0.0
 33
0.0
 40
0.0
 40
0.0
 40
0.0
 40
0.0
 40
1.0
 40
1.0
 40
1.0
 40
2.0
 40
2.0
 40
2.0
 40
3.0
 40
3.0
 40
3.0
 40
4.0
 40
4.0
 40
4.0
 40
5.0
 40
5.0
 40
5.0
 40
6.0
 40
6.0
 40
6.0
 40
6.0
 10
61.09999847412109
 20
90.8999986877443
 30
0.0
 10
61.09999847412109
 20
90.8999986877443
 30
0.0
 10
61.09999847412109
 20
90.19999792480485
 30
0.0
 10
61.09999847412109
 20
90.19999792480485
 30
0.0
 10
59.10952758789062
 20
90.88508703613297
 30
0.0
 10
57.07047271728516
 20
91.4199190368654
 30
0.0
 10
55.0
 20
91.79999639892594
 30
0.0
 10
54.77145385742188
 20
92.2874384155275
 30
0.0
 10
54.5039176940918
 20
92.75562765502946
 30
0.0
 10
54.20000076293945
 20
93.19999792480485
 30
0.0
 10
54.20000076293945
 20
93.19999792480485
 30
0.0
 10
54.20000076293945
 20
93.3999986877443
 30
0.0
 10
54.20000076293945
 20
93.3999986877443
 30
0.0
 10
53.23515319824219
 20
95.15633871459977
 30
0.0
 10
52.52791595458984
 20
97.0423097839357
 30
0.0
 10
52.10000228881836
 20
98.99999906921403
 30
0.0
 10
52.10000228881836
 20
98.99999906921403
 30
0.0
 10
61.09999847412109
 20
90.8999986877443
 30
0.0
 10
61.09999847412109
 20
90.8999986877443
 30
0.0
  0
SPLINE
  5
49
330
1F
100
AcDbEntity
  8
LAYER_1
 62
   178
100
AcDbSpline
210
0.0
220
0.0
230
1.0
 70
    11
 71
     3
 72
    29
 73
    25
 74
     0
 42
0.0000000001
 43
0.0000000001
 12
1.0
 22
0.0
 32
0.0
 13
1.0
 23
0.0
 33
0.0
 40
0.0
 40
0.0
 40
0.0
 40
0.0
 40
1.0
 40
1.0
 40
1.0
 40
2.0
 40
2.0
 40
2.0
 40
3.0
 40
3.0
 40
3.0
 40
4.0
 40
4.0
 40
4.0
 40
5.0
 40
5.0
 40
5.0
 40
6.0
 40
6.0
 40
6.0
 40
7.0
 40
7.0
 40
7.0
 40
8.0
 40
8.0
 40
8.0
 40
8.0
 10
46.09999847412109
 20
108.7999983062746
 30
0.0
 10
46.5364875793457
 20
109.1980505218507
 30
0.0
 10
47.10940170288086
 20
109.4128923645021
 30
0.0
 10
47.69999694824219
 20
109.3999986877443
 30
0.0
 10
48.26290512084961
 20
109.3363085021974
 30
0.0
 10
48.78960800170898
 20
109.0905142059328
 30
0.0
 10
49.19999694824219
 20
108.6999979248048
 30
0.0
 10
49.58171844482422
 20
108.2536936035158
 30
0.0
 10
49.79413223266602
 20
107.6872492065431
 30
0.0
 10
49.79999542236328
 20
107.0999975433351
 30
0.0
 10
49.77587509155273
 20
106.4976816406252
 30
0.0
 10
49.52598190307617
 20
105.9264974823
 30
0.0
 10
49.09999465942383
 20
105.4999971618654
 30
0.0
 10
48.68154907226562
 20
105.080004714966
 30
0.0
 10
48.08312606811523
 20
104.8929987182619
 30
0.0
 10
47.49999618530273
 20
104.9999971618654
 30
0.0
 10
46.91600036621094
 20
104.9759531250002
 30
0.0
 10
46.356689453125
 20
105.236966156006
 30
0.0
 10
45.99999618530273
 20
105.6999979248048
 30
0.0
 10
45.61700439453125
 20
106.1058130493166
 30
0.0
 10
45.40253067016602
 20
106.6419992675783
 30
0.0
 10
45.39999771118164
 20
107.1999979248048
 30
0.0
 10
45.42411804199219
 20
107.8023138275148
 30
0.0
 10
45.67401123046875
 20
108.37349798584
 30
0.0
 10
46.09999847412109
 20
108.7999983062746
 30
0.0
  0
SPLINE
  5
4A
330
1F
100
AcDbEntity
  8
LAYER_1
 62
   178
100
AcDbSpline
210
0.0
220
0.0
230
1.0
 70
    11
 71
     3
 72
    14
 73
    10
 74
     0
 42
0.0000000001
 43
0.0000000001
 12
1.0
 22
0.0
 32
0.0
 13
1.0
 23
0.0
 33
0.0
 40
0.0
 40
0.0
 40
0.0
 40
0.0
 40
1.0
 40
1.0
 40
1.0
 40
2.0
 40
2.0
 40
2.0
 40
3.0
 40
3.0
 40
3.0
 40
3.0
 10
21.79999923706055
 20
117.6999979248048
 30
0.0
 10
20.39999961853027
 20
121.39999773407
 30
0.0
 10
22.09999847412109
 20
124.1999979248048
 30
0.0
 10
25.79999923706055
 20
122.7999978294374
 30
0.0
 10
31.21642875671387
 20
120.5126300086977
 30
0.0
 10
35.37505340576172
 20
115.9892130126955
 30
0.0
 10
37.20000076293945
 20
110.39999773407
 30
0.0
 10
31.38358688354492
 20
111.0030679931642
 30
0.0
 10
25.94893455505371
 20
113.5792350997926
 30
0.0
 10
21.79999923706055
 20
117.6999979248048
 30
0.0
  0
SPLINE
  5
4B
330
1F
100
AcDbEntity
  8
LAYER_1
 62
   178
100
AcDbSpline
210
0.0
220
0.0
230
1.0
 70
    11
 71
     3
 72
    29
 73
    25
 74
     0
 42
0.0000000001
 43
0.0000000001
 12
1.0
 22
0.0
 32
0.0
 13
1.0
 23
0.0
 33
0.0
 40
0.0
 40
0.0
 40
0.0
 40
0.0
 40
1.0
 40
1.0
 40
1.0
 40
2.0
 40
2.0
 40
2.0
 40
3.0
 40
3.0
 40
3.0
 40
4.0
 40
4.0
 40
4.0
 40
5.0
 40
5.0
 40
5.0
 40
6.0
 40
6.0
 40
6.0
 40
7.0
 40
7.0
 40
7.0
 40
8.0
 40
8.0
 40
8.0
 40
8.0
 10
42.70000076293945
 20
99.19999792480485
 30
0.0
 10
42.06779098510742
 20
97.12147619628922
 30
0.0
 10
41.15969848632812
 20
95.13712408447282
 30
0.0
 10
40.0
 20
93.29999639892594
 30
0.0
 10
39.94477081298828
 20
93.29999639892594
 30
0.0
 10
39.90000152587891
 20
93.25522711181657
 30
0.0
 10
39.90000152587891
 20
93.19999792480485
 30
0.0
 10
39.90000152587891
 20
93.19999792480485
 30
0.0
 10
39.80000305175781
 20
93.19999792480485
 30
0.0
 10
39.80000305175781
 20
93.19999792480485
 30
0.0
 10
39.80000305175781
 20
93.19999792480485
 30
0.0
 10
39.10000228881836
 20
92.19999792480485
 30
0.0
 10
39.10000228881836
 20
92.19999792480485
 30
0.0
 10
36.97610473632812
 20
91.80630209350602
 30
0.0
 10
34.87343215942383
 20
91.30566503906266
 30
0.0
 10
32.80000305175781
 20
90.69999792480485
 30
0.0
 10
32.80000305175781
 20
90.69999792480485
 30
0.0
 10
32.80000305175781
 20
90.9999971618654
 30
0.0
 10
32.80000305175781
 20
90.9999971618654
 30
0.0
 10
32.80000305175781
 20
90.9999971618654
 30
0.0
 10
33.40000152587891
 20
91.8999986877443
 30
0.0
 10
33.40000152587891
 20
91.8999986877443
 30
0.0
 10
33.40000152587891
 20
91.8999986877443
 30
0.0
 10
42.70000076293945
 20
99.19999792480485
 30
0.0
 10
42.70000076293945
 20
99.19999792480485
 30
0.0
  0
SPLINE
  5
4C
330
1F
100
AcDbEntity
  8
LAYER_1
 62
   178
100
AcDbSpline
210
0.0
220
0.0
230
1.0
 70
    11
 71
     3
 72
   200
 73
   196
 74
     0
 42
0.0000000001
 43
0.0000000001
 12
1.0
 22
0.0
 32
0.0
 13
1.0
 23
0.0
 33
0.0
 40
0.0
 40
0.0
 40
0.0
 40
0.0
 40
1.0
 40
1.0
 40
1.0
 40
2.0
 40
2.0
 40
2.0
 40
3.0
 40
3.0
 40
3.0
 40
4.0
 40
4.0
 40
4.0
 40
5.0
 40
5.0
 40
5.0
 40
6.0
 40
6.0
 40
6.0
 40
7.0
 40
7.0
 40
7.0
 40
8.0
 40
8.0
 40
8.0
 40
9.0
 40
9.0
 40
9.0
 40
10.0
 40
10.0
 40
10.0
 40
11.0
 40
11.0
 40
11.0
 40
12.0
 40
12.0
 40
12.0
 40
13.0
 40
13.0
 40
13.0
 40
14.0
 40
14.0
 40
14.0
 40
15.0
 40
15.0
 40
15.0
 40
16.0
 40
16.0
 40
16.0
 40
17.0
 40
17.0
 40
17.0
 40
18.0
 40
18.0
 40
18.0
 40
19.0
 40
19.0
 40
19.0
 40
20.0
 40
20.0
 40
20.0
 40
21.0
 40
21.0
 40
21.0
 40
22.0
 40
22.0
 40
22.0
 40
23.0
 40
23.0
 40
23.0
 40
24.0
 40
24.0
 40
24.0
 40
25.0
 40
25.0
 40
25.0
 40
26.0
 40
26.0
 40
26.0
 40
27.0
 40
27.0
 40
27.0
 40
28.0
 40
28.0
 40
28.0
 40
29.0
 40
29.0
 40
29.0
 40
30.0
 40
30.0
 40
30.0
 40
31.0
 40
31.0
 40
31.0
 40
32.0
 40
32.0
 40
32.0
 40
33.0
 40
33.0
 40
33.0
 40
34.0
 40
34.0
 40
34.0
 40
35.0
 40
35.0
 40
35.0
 40
36.0
 40
36.0
 40
36.0
 40
37.0
 40
37.0
 40
37.0
 40
38.0
 40
38.0
 40
38.0
 40
39.0
 40
39.0
 40
39.0
 40
40.0
 40
40.0
 40
40.0
 40
41.0
 40
41.0
 40
41.0
 40
42.0
 40
42.0
 40
42.0
 40
43.0
 40
43.0
 40
43.0
 40
44.0
 40
44.0
 40
44.0
 40
45.0
 40
45.0
 40
45.0
 40
46.0
 40
46.0
 40
46.0
 40
47.0
 40
47.0
 40
47.0
 40
48.0
 40
48.0
 40
48.0
 40
49.0
 40
49.0
 40
49.0
 40
50.0
 40
50.0
 40
50.0
 40
51.0
 40
51.0
 40
51.0
 40
52.0
 40
52.0
 40
52.0
 40
53.0
 40
53.0
 40
53.0
 40
54.0
 40
54.0
 40
54.0
 40
55.0
 40
55.0
 40
55.0
 40
56.0
 40
56.0
 40
56.0
 40
57.0
 40
57.0
 40
57.0
 40
58.0
 40
58.0
 40
58.0
 40
59.0
 40
59.0
 40
59.0
 40
60.0
 40
60.0
 40
60.0
 40
61.0
 40
61.0
 40
61.0
 40
62.0
 40
62.0
 40
62.0
 40
63.0
 40
63.0
 40
63.0
 40
64.0
 40
64.0
 40
64.0
 40
65.0
 40
65.0
 40
65.0
 40
65.0
 10
46.40000152587891
 20
86.8999986877443
 30
0.0
 10
57.63842010498047
 20
86.9378519287111
 30
0.0
 10
68.376953125
 20
82.25788214111344
 30
0.0
 10
76.0
 20
73.9999971618654
 30
0.0
 10
75.8742904663086
 20
74.14191534423844
 30
0.0
 10
75.68890380859375
 20
74.21606924438493
 30
0.0
 10
75.5
 20
74.19999792480485
 30
0.0
 10
75.20559692382812
 20
74.22791006469743
 30
0.0
 10
74.92542266845703
 20
74.06780340576188
 30
0.0
 10
74.80000305175781
 20
73.79999639892594
 30
0.0
 10
74.60000610351562
 20
73.59999563598649
 30
0.0
 10
74.60000610351562
 20
73.29999639892594
 30
0.0
 10
74.60000610351562
 20
72.89999487304704
 30
0.0
 10
74.70939636230469
 20
72.57607366943375
 30
0.0
 10
74.91967010498047
 20
72.29570867919938
 30
0.0
 10
75.20000457763672
 20
72.09999563598649
 30
0.0
 10
74.75556182861328
 20
70.16566183471696
 30
0.0
 10
74.18773651123047
 20
68.26176931762711
 30
0.0
 10
73.50000762939453
 20
66.39999487304704
 30
0.0
 10
73.2435073852539
 20
65.8433351745607
 30
0.0
 10
72.9425277709961
 20
65.30826666259782
 30
0.0
 10
72.60000610351562
 20
64.79999639892594
 30
0.0
 10
72.24049377441406
 20
64.23724081420914
 30
0.0
 10
71.76275634765625
 20
63.75951101684586
 30
0.0
 10
71.20000457763672
 20
63.39999487304704
 30
0.0
 10
70.84382629394531
 20
63.122277282715
 30
0.0
 10
70.4358901977539
 20
62.9183092346193
 30
0.0
 10
70.00000762939453
 20
62.79999639892594
 30
0.0
 10
70.00000762939453
 20
62.79999639892594
 30
0.0
 10
69.00000762939453
 20
62.59999563598649
 30
0.0
 10
69.00000762939453
 20
62.59999563598649
 30
0.0
 10
68.61170196533203
 20
62.62055303955094
 30
0.0
 10
68.24943542480469
 20
62.80168630981461
 30
0.0
 10
68.00000762939453
 20
63.09999563598649
 30
0.0
 10
67.74279022216797
 20
63.52919104003922
 30
0.0
 10
67.5728759765625
 20
64.00496389770524
 30
0.0
 10
67.50000762939453
 20
64.4999971618654
 30
0.0
 10
67.50000762939453
 20
64.79999639892594
 30
0.0
 10
67.40000915527344
 20
65.09999563598649
 30
0.0
 10
67.40000915527344
 20
65.4999971618654
 30
0.0
 10
68.20429992675781
 20
65.50819113159196
 30
0.0
 10
68.99420928955078
 20
65.71425344848649
 30
0.0
 10
69.70001220703125
 20
66.09999563598649
 30
0.0
 10
70.50209045410156
 20
66.48405935668961
 30
0.0
 10
71.21683502197266
 20
67.02862265014664
 30
0.0
 10
71.80001068115234
 20
67.69999411010758
 30
0.0
 10
72.36174011230469
 20
68.36347296142594
 30
0.0
 10
72.58342742919922
 20
69.2502298583986
 30
0.0
 10
72.40000915527344
 20
70.09999563598649
 30
0.0
 10
72.38569641113281
 20
70.67149069213883
 30
0.0
 10
72.0851058959961
 20
71.19752600097672
 30
0.0
 10
71.60000610351562
 20
71.4999971618654
 30
0.0
 10
71.07861328125
 20
71.87553884887711
 30
0.0
 10
70.44038391113281
 20
72.05282690429704
 30
0.0
 10
69.80000305175781
 20
71.9999971618654
 30
0.0
 10
68.81952667236328
 20
71.91691687011735
 30
0.0
 10
67.89934539794922
 20
71.49221517944352
 30
0.0
 10
67.20000457763672
 20
70.79999639892594
 30
0.0
 10
66.37291717529297
 20
70.01162817382829
 30
0.0
 10
65.78388214111328
 20
69.00680258178727
 30
0.0
 10
65.50000762939453
 20
67.89999487304704
 30
0.0
 10
65.31912231445312
 20
67.31155874633805
 30
0.0
 10
65.18536376953125
 20
66.70966055297868
 30
0.0
 10
65.10000610351562
 20
66.09999563598649
 30
0.0
 10
64.71244812011719
 20
65.09709646606461
 30
0.0
 10
64.24424743652344
 20
64.12725546264664
 30
0.0
 10
63.70000076293945
 20
63.19999792480485
 30
0.0
 10
63.15634918212891
 20
62.45563223266618
 30
0.0
 10
62.31811904907227
 20
61.98185064697282
 30
0.0
 10
61.40000152587891
 20
61.89999487304704
 30
0.0
 10
62.14951324462891
 20
62.80660726928727
 30
0.0
 10
62.69519424438477
 20
63.86386206054704
 30
0.0
 10
63.0
 20
64.9999971618654
 30
0.0
 10
63.31208801269531
 20
66.13961126709
 30
0.0
 10
63.3802375793457
 20
67.3322496643068
 30
0.0
 10
63.20000076293945
 20
68.4999971618654
 30
0.0
 10
63.05178833007812
 20
69.33451940917985
 30
0.0
 10
62.7092170715332
 20
70.1224336853029
 30
0.0
 10
62.20000076293945
 20
70.79999639892594
 30
0.0
 10
61.65536117553711
 20
71.30506231689469
 30
0.0
 10
60.94271469116211
 20
71.59011938476579
 30
0.0
 10
60.20000076293945
 20
71.59999563598649
 30
0.0
 10
59.47140884399414
 20
71.58535482788102
 30
0.0
 10
58.79734802246094
 20
71.21087744140641
 30
0.0
 10
58.40000152587891
 20
70.59999563598649
 30
0.0
 10
58.40000152587891
 20
70.59999563598649
 30
0.0
 10
58.40000152587891
 20
71.29999639892594
 30
0.0
 10
58.40000152587891
 20
71.29999639892594
 30
0.0
 10
58.40000152587891
 20
71.29999639892594
 30
0.0
 10
56.29999923706055
 20
71.29999639892594
 30
0.0
 10
56.29999923706055
 20
71.29999639892594
 30
0.0
 10
56.18954086303711
 20
71.29999639892594
 30
0.0
 10
56.09999847412109
 20
71.21045401000993
 30
0.0
 10
56.09999847412109
 20
71.09999563598649
 30
0.0
 10
56.09999847412109
 20
71.09999563598649
 30
0.0
 10
56.09999847412109
 20
71.09999563598649
 30
0.0
 10
56.09999847412109
 20
71.09999563598649
 30
0.0
 10
56.09999847412109
 20
71.09999563598649
 30
0.0
 10
54.79999923706055
 20
65.69999411010758
 30
0.0
 10
54.79999923706055
 20
65.69999411010758
 30
0.0
 10
54.09999847412109
 20
64.09999563598649
 30
0.0
 10
53.29999923706055
 20
63.39999487304704
 30
0.0
 10
52.5
 20
63.59999563598649
 30
0.0
 10
53.16182327270508
 20
64.96563818359391
 30
0.0
 10
53.40535354614258
 20
66.49639608764664
 30
0.0
 10
53.20000076293945
 20
67.9999971618654
 30
0.0
 10
53.07314300537109
 20
68.93887426757829
 30
0.0
 10
52.65319442749023
 20
69.81376364135758
 30
0.0
 10
52.0
 20
70.4999971618654
 30
0.0
 10
51.44539260864258
 20
71.18419744873063
 30
0.0
 10
50.57167816162109
 20
71.526085876465
 30
0.0
 10
49.70000076293945
 20
71.3999986877443
 30
0.0
 10
48.72423553466797
 20
71.38081457519547
 30
0.0
 10
47.79325485229492
 20
70.98693945312516
 30
0.0
 10
47.10000228881836
 20
70.3000002136232
 30
0.0
 10
46.30619430541992
 20
69.48576452636735
 30
0.0
 10
45.72270584106445
 20
68.49039938354508
 30
0.0
 10
45.40000152587891
 20
67.3999986877443
 30
0.0
 10
45.20333480834961
 20
66.78575613403336
 30
0.0
 10
45.10215759277344
 20
66.14495184326188
 30
0.0
 10
45.10000228881836
 20
65.4999971618654
 30
0.0
 10
44.40000152587891
 20
63.8999986877443
 30
0.0
 10
43.60000228881836
 20
63.19999792480485
 30
0.0
 10
42.80000305175781
 20
63.29999639892594
 30
0.0
 10
43.48004150390625
 20
64.69604589843766
 30
0.0
 10
43.69050598144531
 20
66.27454092407243
 30
0.0
 10
43.40000152587891
 20
67.79999639892594
 30
0.0
 10
43.30781173706055
 20
68.72891714477555
 30
0.0
 10
42.92258071899414
 20
69.60444738769547
 30
0.0
 10
42.30000305175781
 20
70.29999639892594
 30
0.0
 10
41.66034317016602
 20
70.92128851318375
 30
0.0
 10
40.79045486450195
 20
71.24749853515641
 30
0.0
 10
39.90000152587891
 20
71.19999792480485
 30
0.0
 10
38.93088150024414
 20
71.18653204345719
 30
0.0
 10
38.01667785644531
 20
70.74771597290055
 30
0.0
 10
37.40000152587891
 20
69.9999971618654
 30
0.0
 10
36.54972457885742
 20
69.23022940063493
 30
0.0
 10
35.95631790161133
 20
68.21794607543961
 30
0.0
 10
35.70000076293945
 20
67.09999563598649
 30
0.0
 10
35.52004623413086
 20
66.57941152954118
 30
0.0
 10
35.38619995117188
 20
66.0440187683107
 30
0.0
 10
35.29999923706055
 20
65.4999971618654
 30
0.0
 10
34.73963165283203
 20
64.12679769897477
 30
0.0
 10
33.9254150390625
 20
62.87154104614274
 30
0.0
 10
32.89999771118164
 20
61.79999639892594
 30
0.0
 10
31.96952629089355
 20
60.7964716186525
 30
0.0
 10
30.66839408874512
 20
60.21819403076188
 30
0.0
 10
29.29999923706055
 20
60.19999792480485
 30
0.0
 10
28.19062042236328
 20
60.16610815429704
 30
0.0
 10
27.13851356506348
 20
60.69216253662125
 30
0.0
 10
26.5
 20
61.59999945068375
 30
0.0
 10
25.49161148071289
 20
62.82598593139664
 30
0.0
 10
24.86568641662598
 20
64.32125189209
 30
0.0
 10
24.70000076293945
 20
65.8999986877443
 30
0.0
 10
24.38564682006836
 20
67.93811514282243
 30
0.0
 10
24.52218818664551
 20
70.0203829040529
 30
0.0
 10
25.10000038146973
 20
71.9999971618654
 30
0.0
 10
25.10000038146973
 20
71.9999971618654
 30
0.0
 10
25.80000114440918
 20
71.9999971618654
 30
0.0
 10
25.80000114440918
 20
71.9999971618654
 30
0.0
 10
27.12928771972656
 20
72.02103140258805
 30
0.0
 10
28.44637298583984
 20
72.2574320068361
 30
0.0
 10
29.70000076293945
 20
72.69999792480485
 30
0.0
 10
30.76113510131836
 20
72.93839361572282
 30
0.0
 10
31.75332069396973
 20
73.41737844848649
 30
0.0
 10
32.60000228881836
 20
74.09999945068375
 30
0.0
 10
33.30080795288086
 20
74.63991262817399
 30
0.0
 10
33.88004302978516
 20
75.32136633300797
 30
0.0
 10
34.30000305175781
 20
76.09999945068375
 30
0.0
 10
34.66347885131836
 20
76.77228262329118
 30
0.0
 10
34.80357360839844
 20
77.5427980651857
 30
0.0
 10
34.70000457763672
 20
78.3000002136232
 30
0.0
 10
34.59830856323242
 20
78.93056204223649
 30
0.0
 10
34.3210563659668
 20
79.51972296142594
 30
0.0
 10
33.90000534057617
 20
80.00000097656266
 30
0.0
 10
33.53534698486328
 20
80.43496801757829
 30
0.0
 10
33.0471076965332
 20
80.74883749389664
 30
0.0
 10
32.50000381469727
 20
80.90000250244157
 30
0.0
 10
32.02395629882812
 20
81.0955667724611
 30
0.0
 10
31.51464462280273
 20
81.19742681884782
 30
0.0
 10
31.0
 20
81.19999792480485
 30
0.0
 10
29.18848991394043
 20
81.06390097045914
 30
0.0
 10
27.48564910888672
 20
80.28342916870133
 30
0.0
 10
26.20000076293945
 20
78.9999971618654
 30
0.0
 10
24.6427059173584
 20
77.52479650878922
 30
0.0
 10
23.44522666931152
 20
75.71146871948258
 30
0.0
 10
22.70000076293945
 20
73.69999792480485
 30
0.0
 10
21.35297966003418
 20
74.00352194213883
 30
0.0
 10
20.11067390441895
 20
74.65918447875993
 30
0.0
 10
19.10000038146973
 20
75.59999945068375
 30
0.0
 10
19.10000038146973
 20
75.59999945068375
 30
0.0
 10
18.80000114440918
 20
76.00000097656266
 30
0.0
 10
18.80000114440918
 20
76.00000097656266
 30
0.0
 10
26.26214027404785
 20
83.03772451782243
 30
0.0
 10
36.14273834228516
 20
86.93984320068375
 30
0.0
 10
46.40000152587891
 20
86.8999986877443
 30
0.0
  0
SPLINE
  5
4D
330
1F
100
AcDbEntity
  8
LAYER_1
 62
   178
100
AcDbSpline
210
0.0
220
0.0
230
1.0
 70
    11
 71
     3
 72
    20
 73
    16
 74
     0
 42
0.0000000001
 43
0.0000000001
 12
1.0
 22
0.0
 32
0.0
 13
1.0
 23
0.0
 33
0.0
 40
0.0
 40
0.0
 40
0.0
 40
0.0
 40
1.0
 40
1.0
 40
1.0
 40
2.0
 40
2.0
 40
2.0
 40
3.0
 40
3.0
 40
3.0
 40
4.0
 40
4.0
 40
4.0
 40
5.0
 40
5.0
 40
5.0
 40
5.0
 10
67.5
 20
66.4999971618654
 30
0.0
 10
67.6836166381836
 20
67.58943273925797
 30
0.0
 10
68.05586242675781
 20
68.63848593139664
 30
0.0
 10
68.5999984741211
 20
69.59999563598649
 30
0.0
 10
69.0999984741211
 20
70.39999487304704
 30
0.0
 10
69.69999694824219
 20
70.89999487304704
 30
0.0
 10
70.19999694824219
 20
70.89999487304704
 30
0.0
 10
70.69999694824219
 20
70.89999487304704
 30
0.0
 10
70.39999389648438
 20
70.89999487304704
 30
0.0
 10
70.39999389648438
 20
70.79999639892594
 30
0.0
 10
70.39999389648438
 20
70.69999792480485
 30
0.0
 10
70.69999694824219
 20
69.9999971618654
 30
0.0
 10
70.39999389648438
 20
69.19999792480485
 30
0.0
 10
69.94528198242188
 20
67.87191870117204
 30
0.0
 10
68.85713195800781
 20
66.85881140136735
 30
0.0
 10
67.5
 20
66.4999971618654
 30
0.0
  0
SPLINE
  5
4E
330
1F
100
AcDbEntity
  8
LAYER_1
 62
   178
100
AcDbSpline
210
0.0
220
0.0
230
1.0
 70
    11
 71
     3
 72
    32
 73
    28
 74
     0
 42
0.0000000001
 43
0.0000000001
 12
1.0
 22
0.0
 32
0.0
 13
1.0
 23
0.0
 33
0.0
 40
0.0
 40
0.0
 40
0.0
 40
0.0
 40
1.0
 40
1.0
 40
1.0
 40
2.0
 40
2.0
 40
2.0
 40
3.0
 40
3.0
 40
3.0
 40
4.0
 40
4.0
 40
4.0
 40
5.0
 40
5.0
 40
5.0
 40
6.0
 40
6.0
 40
6.0
 40
7.0
 40
7.0
 40
7.0
 40
8.0
 40
8.0
 40
8.0
 40
9.0
 40
9.0
 40
9.0
 40
9.0
 10
49.29999923706055
 20
43.59999945068375
 30
0.0
 10
49.68276214599609
 20
42.4267435302736
 30
0.0
 10
50.7661247253418
 20
41.6242532958986
 30
0.0
 10
52.0
 20
41.59999945068375
 30
0.0
 10
52.76566314697266
 20
41.55764868164079
 30
0.0
 10
53.52785491943359
 20
41.73087408447282
 30
0.0
 10
54.20000076293945
 20
42.09999945068375
 30
0.0
 10
54.79999923706055
 20
43.19999792480485
 30
0.0
 10
54.79999923706055
 20
43.19999792480485
 30
0.0
 10
55.29999923706055
 20
43.50000097656266
 30
0.0
 10
55.29999923706055
 20
43.50000097656266
 30
0.0
 10
56.0
 20
43.19999792480485
 30
0.0
 10
56.0
 20
43.19999792480485
 30
0.0
 10
55.4422492980957
 20
41.44484045410172
 30
0.0
 10
53.73273849487305
 20
40.31906988525407
 30
0.0
 10
51.90000152587891
 20
40.50000097656266
 30
0.0
 10
51.90000152587891
 20
40.50000097656266
 30
0.0
 10
51.90000152587891
 20
40.50000097656266
 30
0.0
 10
51.90000152587891
 20
40.50000097656266
 30
0.0
 10
51.90000152587891
 20
40.50000097656266
 30
0.0
 10
49.90000152587891
 20
40.69999792480485
 30
0.0
 10
49.90000152587891
 20
40.69999792480485
 30
0.0
 10
49.03627014160156
 20
41.47568609619157
 30
0.0
 10
48.41182327270508
 20
42.48174383544938
 30
0.0
 10
48.10000228881836
 20
43.59999945068375
 30
0.0
 10
48.46477890014648
 20
43.83739569091813
 30
0.0
 10
48.93522262573242
 20
43.83739569091813
 30
0.0
 10
49.29999923706055
 20
43.59999945068375
 30
0.0
  0
SPLINE
  5
4F
330
1F
100
AcDbEntity
  8
LAYER_1
 62
   178
100
AcDbSpline
210
0.0
220
0.0
230
1.0
 70
    11
 71
     3
 72
    23
 73
    19
 74
     0
 42
0.0000000001
 43
0.0000000001
 12
1.0
 22
0.0
 32
0.0
 13
1.0
 23
0.0
 33
0.0
 40
0.0
 40
0.0
 40
0.0
 40
0.0
 40
1.0
 40
1.0
 40
1.0
 40
2.0
 40
2.0
 40
2.0
 40
3.0
 40
3.0
 40
3.0
 40
4.0
 40
4.0
 40
4.0
 40
5.0
 40
5.0
 40
5.0
 40
6.0
 40
6.0
 40
6.0
 40
6.0
 10
48.59999847412109
 20
47.09999945068375
 30
0.0
 10
48.59999847412109
 20
47.69999792480485
 30
0.0
 10
49.09999847412109
 20
48.09999945068375
 30
0.0
 10
49.79999923706055
 20
48.09999945068375
 30
0.0
 10
50.35227584838867
 20
48.1027689208986
 30
0.0
 10
50.80223083496094
 20
47.65730383300797
 30
0.0
 10
50.80500030517578
 20
47.10502722167985
 30
0.0
 10
50.80517578125
 20
47.06995489501969
 30
0.0
 10
50.80350494384766
 20
47.0348978271486
 30
0.0
 10
50.79999923706055
 20
47.00000097656266
 30
0.0
 10
50.77944183349609
 20
46.61169531250016
 30
0.0
 10
50.59830856323242
 20
46.24942877197282
 30
0.0
 10
50.29999923706055
 20
46.00000097656266
 30
0.0
 10
50.29999923706055
 20
46.00000097656266
 30
0.0
 10
49.0
 20
46.00000097656266
 30
0.0
 10
49.0
 20
46.00000097656266
 30
0.0
 10
48.69980621337891
 20
46.28250982666032
 30
0.0
 10
48.55138778686523
 20
46.69065191650407
 30
0.0
 10
48.59999847412109
 20
47.09999945068375
 30
0.0
  0
SPLINE
  5
50
330
1F
100
AcDbEntity
  8
LAYER_1
 62
   178
100
AcDbSpline
210
0.0
220
0.0
230
1.0
 70
    11
 71
     3
 72
    23
 73
    19
 74
     0
 42
0.0000000001
 43
0.0000000001
 12
1.0
 22
0.0
 32
0.0
 13
1.0
 23
0.0
 33
0.0
 40
0.0
 40
0.0
 40
0.0
 40
0.0
 40
1.0
 40
1.0
 40
1.0
 40
2.0
 40
2.0
 40
2.0
 40
3.0
 40
3.0
 40
3.0
 40
4.0
 40
4.0
 40
4.0
 40
5.0
 40
5.0
 40
5.0
 40
6.0
 40
6.0
 40
6.0
 40
6.0
 10
52.0
 20
60.39999487304704
 30
0.0
 10
51.99723052978516
 20
60.95227148437516
 30
0.0
 10
52.44269561767578
 20
61.40223028564469
 30
0.0
 10
52.99497222900391
 20
61.40499975585954
 30
0.0
 10
53.03004455566406
 20
61.40517523193375
 30
0.0
 10
53.06510162353516
 20
61.40350439453141
 30
0.0
 10
53.09999847412109
 20
61.39999487304704
 30
0.0
 10
53.09999847412109
 20
61.39999487304704
 30
0.0
 10
53.69999694824219
 20
61.19999792480485
 30
0.0
 10
53.69999694824219
 20
61.19999792480485
 30
0.0
 10
53.69999694824219
 20
61.19999792480485
 30
0.0
 10
53.19999694824219
 20
59.29999639892594
 30
0.0
 10
53.19999694824219
 20
59.29999639892594
 30
0.0
 10
53.19999694824219
 20
59.29999639892594
 30
0.0
 10
52.39999771118164
 20
59.29999639892594
 30
0.0
 10
52.39999771118164
 20
59.29999639892594
 30
0.0
 10
52.09980392456055
 20
59.5825052490236
 30
0.0
 10
51.95138931274414
 20
59.99064733886735
 30
0.0
 10
52.0
 20
60.39999487304704
 30
0.0
  0
SPLINE
  5
51
330
1F
100
AcDbEntity
  8
LAYER_1
 62
   178
100
AcDbSpline
210
0.0
220
0.0
230
1.0
 70
    11
 71
     3
 72
    26
 73
    22
 74
     0
 42
0.0000000001
 43
0.0000000001
 12
1.0
 22
0.0
 32
0.0
 13
1.0
 23
0.0
 33
0.0
 40
0.0
 40
0.0
 40
0.0
 40
0.0
 40
1.0
 40
1.0
 40
1.0
 40
2.0
 40
2.0
 40
2.0
 40
3.0
 40
3.0
 40
3.0
 40
4.0
 40
4.0
 40
4.0
 40
5.0
 40
5.0
 40
5.0
 40
6.0
 40
6.0
 40
6.0
 40
7.0
 40
7.0
 40
7.0
 40
7.0
 10
55.70000076293945
 20
45.59999182128922
 30
0.0
 10
55.70000076293945
 20
45.59999182128922
 30
0.0
 10
54.40000152587891
 20
45.59999182128922
 30
0.0
 10
54.40000152587891
 20
45.59999182128922
 30
0.0
 10
54.15423583984375
 20
45.91542913818375
 30
0.0
 10
54.01425933837891
 20
46.30037023925797
 30
0.0
 10
54.0
 20
46.69999029541032
 30
0.0
 10
54.0525016784668
 20
47.30523016357438
 30
0.0
 10
54.5857048034668
 20
47.75331213378922
 30
0.0
 10
55.19094467163086
 20
47.70081427001969
 30
0.0
 10
55.19396591186523
 20
47.70055487060563
 30
0.0
 10
55.19698333740234
 20
47.7002802124025
 30
0.0
 10
55.20000076293945
 20
47.69999029541032
 30
0.0
 10
55.80524063110352
 20
47.64749243164079
 30
0.0
 10
56.25332641601562
 20
47.11428167724625
 30
0.0
 10
56.20082473754883
 20
46.50904180908219
 30
0.0
 10
56.2005615234375
 20
46.50602819824235
 30
0.0
 10
56.20028686523438
 20
46.50300695800797
 30
0.0
 10
56.20000076293945
 20
46.49999334716813
 30
0.0
 10
56.14473342895508
 20
46.15039923095719
 30
0.0
 10
55.96762847900391
 20
45.83161260986344
 30
0.0
 10
55.70000076293945
 20
45.59999182128922
 30
0.0
  0
SPLINE
  5
52
330
1F
100
AcDbEntity
  8
LAYER_1
 62
   178
100
AcDbSpline
210
0.0
220
0.0
230
1.0
 70
    11
 71
     3
 72
    38
 73
    34
 74
     0
 42
0.0000000001
 43
0.0000000001
 12
1.0
 22
0.0
 32
0.0
 13
1.0
 23
0.0
 33
0.0
 40
0.0
 40
0.0
 40
0.0
 40
0.0
 40
1.0
 40
1.0
 40
1.0
 40
2.0
 40
2.0
 40
2.0
 40
3.0
 40
3.0
 40
3.0
 40
4.0
 40
4.0
 40
4.0
 40
5.0
 40
5.0
 40
5.0
 40
6.0
 40
6.0
 40
6.0
 40
7.0
 40
7.0
 40
7.0
 40
8.0
 40
8.0
 40
8.0
 40
9.0
 40
9.0
 40
9.0
 40
10.0
 40
10.0
 40
10.0
 40
11.0
 40
11.0
 40
11.0
 40
11.0
 10
50.40000152587891
 20
63.19999792480485
 30
0.0
 10
49.80000305175781
 20
61.89999487304704
 30
0.0
 10
49.20000076293945
 20
61.29999639892594
 30
0.0
 10
48.60000228881836
 20
61.29999639892594
 30
0.0
 10
48.30324172973633
 20
61.35265447998063
 30
0.0
 10
48.04606246948242
 20
61.53635504150407
 30
0.0
 10
47.90000152587891
 20
61.79999639892594
 30
0.0
 10
47.67784118652344
 20
62.20085241699235
 30
0.0
 10
47.5416145324707
 20
62.64358618164079
 30
0.0
 10
47.5
 20
63.09999563598649
 30
0.0
 10
47.33509063720703
 20
64.16366293334977
 30
0.0
 10
47.36899948120117
 20
65.24870016479508
 30
0.0
 10
47.59999847412109
 20
66.29999639892594
 30
0.0
 10
47.81931304931641
 20
67.30082418823258
 30
0.0
 10
48.22651290893555
 20
68.25095846557633
 30
0.0
 10
48.79999923706055
 20
69.09999563598649
 30
0.0
 10
49.20000076293945
 20
69.79999639892594
 30
0.0
 10
49.70000076293945
 20
70.19999411010758
 30
0.0
 10
50.09999847412109
 20
70.19999411010758
 30
0.0
 10
50.49999618530273
 20
70.19999411010758
 30
0.0
 10
51.09999847412109
 20
69.59999563598649
 30
0.0
 10
51.19999694824219
 20
68.49999334716813
 30
0.0
 10
51.39932632446289
 20
67.50992681884782
 30
0.0
 10
51.39932632446289
 20
66.49005987548844
 30
0.0
 10
51.19999694824219
 20
65.49999334716813
 30
0.0
 10
50.87607574462891
 20
65.39060308837907
 30
0.0
 10
50.59571075439453
 20
65.18032934570329
 30
0.0
 10
50.39999771118164
 20
64.89999487304704
 30
0.0
 10
50.18758773803711
 20
64.53836157226579
 30
0.0
 10
50.11635589599609
 20
64.11097052001969
 30
0.0
 10
50.19999694824219
 20
63.69999411010758
 30
0.0
 10
50.20688247680664
 20
63.51522543334977
 30
0.0
 10
50.27755737304688
 20
63.33854391479508
 30
0.0
 10
50.40000152587891
 20
63.19999792480485
 30
0.0
  0
SPLINE
  5
53
330
1F
100
AcDbEntity
  8
LAYER_1
 62
   178
100
AcDbSpline
210
0.0
220
0.0
230
1.0
 70
    11
 71
     3
 72
    38
 73
    34
 74
     0
 42
0.0000000001
 43
0.0000000001
 12
1.0
 22
0.0
 32
0.0
 13
1.0
 23
0.0
 33
0.0
 40
0.0
 40
0.0
 40
0.0
 40
0.0
 40
1.0
 40
1.0
 40
1.0
 40
2.0
 40
2.0
 40
2.0
 40
3.0
 40
3.0
 40
3.0
 40
4.0
 40
4.0
 40
4.0
 40
5.0
 40
5.0
 40
5.0
 40
6.0
 40
6.0
 40
6.0
 40
7.0
 40
7.0
 40
7.0
 40
8.0
 40
8.0
 40
8.0
 40
9.0
 40
9.0
 40
9.0
 40
10.0
 40
10.0
 40
10.0
 40
11.0
 40
11.0
 40
11.0
 40
11.0
 10
40.70000076293945
 20
62.8999986877443
 30
0.0
 10
40.10000228881836
 20
61.69999792480485
 30
0.0
 10
39.5
 20
61.09999945068375
 30
0.0
 10
38.90000152587891
 20
61.09999945068375
 30
0.0
 10
38.60000228881836
 20
61.00000097656266
 30
0.0
 10
38.40000152587891
 20
61.19999792480485
 30
0.0
 10
38.20000076293945
 20
61.50000097656266
 30
0.0
 10
37.9734992980957
 20
61.90788366699235
 30
0.0
 10
37.80519866943359
 20
62.34545996093766
 30
0.0
 10
37.70000076293945
 20
62.80000021362321
 30
0.0
 10
37.57328033447266
 20
63.90323355102555
 30
0.0
 10
37.64097213745117
 20
65.02014257812516
 30
0.0
 10
37.90000152587891
 20
66.09999945068375
 30
0.0
 10
38.10648345947266
 20
67.0572366943361
 30
0.0
 10
38.47875595092773
 20
67.97099401855485
 30
0.0
 10
39.0
 20
68.79999639892594
 30
0.0
 10
39.5
 20
69.4999971618654
 30
0.0
 10
40.0
 20
69.89999487304704
 30
0.0
 10
40.40000152587891
 20
69.89999487304704
 30
0.0
 10
40.80000305175781
 20
69.89999487304704
 30
0.0
 10
41.30000305175781
 20
69.39999487304704
 30
0.0
 10
41.5
 20
68.19999411010758
 30
0.0
 10
41.66379165649414
 20
67.20311834716813
 30
0.0
 10
41.62981414794922
 20
66.18375112915055
 30
0.0
 10
41.40000152587891
 20
65.19999411010758
 30
0.0
 10
41.10000228881836
 20
65.19999411010758
 30
0.0
 10
40.90000152587891
 20
64.99999334716813
 30
0.0
 10
40.70000076293945
 20
64.59999563598649
 30
0.0
 10
40.49407196044922
 20
64.27280523681657
 30
0.0
 10
40.42242050170898
 20
63.87873556518571
 30
0.0
 10
40.5
 20
63.49999716186539
 30
0.0
 10
40.48142623901367
 20
63.28101828002946
 30
0.0
 10
40.55375289916992
 20
63.06403829956071
 30
0.0
 10
40.70000076293945
 20
62.8999986877443
 30
0.0
  0
SPLINE
  5
54
330
1F
100
AcDbEntity
  8
LAYER_1
 62
   178
100
AcDbSpline
210
0.0
220
0.0
230
1.0
 70
    11
 71
     3
 72
    26
 73
    22
 74
     0
 42
0.0000000001
 43
0.0000000001
 12
1.0
 22
0.0
 32
0.0
 13
1.0
 23
0.0
 33
0.0
 40
0.0
 40
0.0
 40
0.0
 40
0.0
 40
1.0
 40
1.0
 40
1.0
 40
2.0
 40
2.0
 40
2.0
 40
3.0
 40
3.0
 40
3.0
 40
4.0
 40
4.0
 40
4.0
 40
5.0
 40
5.0
 40
5.0
 40
6.0
 40
6.0
 40
6.0
 40
7.0
 40
7.0
 40
7.0
 40
7.0
 10
25.60000038146973
 20
73.3999986877443
 30
0.0
 10
26.21260070800781
 20
75.05471899414079
 30
0.0
 10
27.12823486328125
 20
76.58077719116227
 30
0.0
 10
28.30000114440918
 20
77.8999986877443
 30
0.0
 10
29.09290313720703
 20
78.84184362792985
 30
0.0
 10
30.18896675109863
 20
79.4782686462404
 30
0.0
 10
31.40000152587891
 20
79.69999792480485
 30
0.0
 10
31.86072731018066
 20
79.62164404296891
 30
0.0
 10
32.22164916992188
 20
79.26072409057633
 30
0.0
 10
32.30000305175781
 20
78.79999639892594
 30
0.0
 10
32.38872909545898
 20
78.21576788330094
 30
0.0
 10
32.28334045410156
 20
77.61856558227555
 30
0.0
 10
32.00000381469727
 20
77.09999563598649
 30
0.0
 10
31.6892261505127
 20
76.44932272338883
 30
0.0
 10
31.24651908874512
 20
75.87039663696305
 30
0.0
 10
30.70000457763672
 20
75.39999487304704
 30
0.0
 10
30.07817459106445
 20
74.7776842346193
 30
0.0
 10
29.32710647583008
 20
74.29973318481461
 30
0.0
 10
28.50000381469727
 20
73.99999334716813
 30
0.0
 10
27.55805778503418
 20
73.695031188965
 30
0.0
 10
26.58562660217285
 20
73.49384024047868
 30
0.0
 10
25.60000038146973
 20
73.3999986877443
 30
0.0
  0
SPLINE
  5
55
330
1F
100
AcDbEntity
  8
LAYER_1
 62
   178
100
AcDbSpline
210
0.0
220
0.0
230
1.0
 70
    11
 71
     3
 72
    17
 73
    13
 74
     0
 42
0.0000000001
 43
0.0000000001
 12
1.0
 22
0.0
 32
0.0
 13
1.0
 23
0.0
 33
0.0
 40
0.0
 40
0.0
 40
0.0
 40
0.0
 40
1.0
 40
1.0
 40
1.0
 40
2.0
 40
2.0
 40
2.0
 40
3.0
 40
3.0
 40
3.0
 40
4.0
 40
4.0
 40
4.0
 40
4.0
 10
15.19999980926514
 20
20.50000097656266
 30
0.0
 10
15.19999980926514
 20
20.50000097656266
 30
0.0
 10
12.69999980926514
 20
23.80000402832047
 30
0.0
 10
12.69999980926514
 20
23.80000402832047
 30
0.0
 10
12.998779296875
 20
23.991417907715
 30
0.0
 10
13.34519195556641
 20
24.09534552001969
 30
0.0
 10
13.69999980926514
 20
24.10000708007829
 30
0.0
 10
14.87702083587646
 20
24.10122015380875
 30
0.0
 10
15.84649848937988
 20
23.17581274414079
 30
0.0
 10
15.89999961853027
 20
22.00000860595719
 30
0.0
 10
15.88187980651855
 20
21.42525579834
 30
0.0
 10
15.62886428833008
 20
20.88307287597672
 30
0.0
 10
15.19999980926514
 20
20.50000097656266
 30
0.0
  0
SPLINE
  5
56
330
1F
100
AcDbEntity
  8
LAYER_1
 62
   178
100
AcDbSpline
210
0.0
220
0.0
230
1.0
 70
    11
 71
     3
 72
    20
 73
    16
 74
     0
 42
0.0000000001
 43
0.0000000001
 12
1.0
 22
0.0
 32
0.0
 13
1.0
 23
0.0
 33
0.0
 40
0.0
 40
0.0
 40
0.0
 40
0.0
 40
1.0
 40
1.0
 40
1.0
 40
2.0
 40
2.0
 40
2.0
 40
3.0
 40
3.0
 40
3.0
 40
4.0
 40
4.0
 40
4.0
 40
5.0
 40
5.0
 40
5.0
 40
5.0
 10
18.5
 20
36.09999945068375
 30
0.0
 10
19.65979766845703
 20
36.09999945068375
 30
0.0
 10
20.60000038146973
 20
35.15979864501969
 30
0.0
 10
20.60000038146973
 20
34.00000097656266
 30
0.0
 10
20.34243392944336
 20
32.8125848999025
 30
0.0
 10
19.17104530334473
 20
32.058800720215
 30
0.0
 10
17.98363304138184
 20
32.31636907959
 30
0.0
 10
17.1409797668457
 20
32.49915411376969
 30
0.0
 10
16.4827823638916
 20
33.15734960937516
 30
0.0
 10
16.29999923706055
 20
34.00000097656266
 30
0.0
 10
16.29868507385254
 20
35.15979864501969
 30
0.0
 10
17.23781967163086
 20
36.10106756591813
 30
0.0
 10
18.39761734008789
 20
36.1023798217775
 30
0.0
 10
18.43175888061523
 20
36.10241796875016
 30
0.0
 10
18.46589660644531
 20
36.10162451171891
 30
0.0
 10
18.5
 20
36.09999945068375
 30
0.0
  0
SPLINE
  5
57
330
1F
100
AcDbEntity
  8
LAYER_1
 62
   178
100
AcDbSpline
210
0.0
220
0.0
230
1.0
 70
    11
 71
     3
 72
    23
 73
    19
 74
     0
 42
0.0000000001
 43
0.0000000001
 12
1.0
 22
0.0
 32
0.0
 13
1.0
 23
0.0
 33
0.0
 40
0.0
 40
0.0
 40
0.0
 40
0.0
 40
1.0
 40
1.0
 40
1.0
 40
2.0
 40
2.0
 40
2.0
 40
3.0
 40
3.0
 40
3.0
 40
4.0
 40
4.0
 40
4.0
 40
5.0
 40
5.0
 40
5.0
 40
6.0
 40
6.0
 40
6.0
 40
6.0
 10
17.79999923706055
 20
43.00000097656266
 30
0.0
 10
17.1924877166748
 20
42.99898626709
 30
0.0
 10
16.69917488098145
 20
43.49064733886735
 30
0.0
 10
16.69815826416016
 20
44.09815313720719
 30
0.0
 10
16.69713973999023
 20
44.70566656494157
 30
0.0
 10
17.18880081176758
 20
45.19898321533219
 30
0.0
 10
17.79631423950195
 20
45.19999792480485
 30
0.0
 10
17.79754257202148
 20
45.19999792480485
 30
0.0
 10
17.79877090454102
 20
45.19999792480485
 30
0.0
 10
17.79999923706055
 20
45.19999792480485
 30
0.0
 10
18.40751075744629
 20
45.2010126342775
 30
0.0
 10
18.90082359313965
 20
44.70935156250016
 30
0.0
 10
18.90184020996094
 20
44.10184576416032
 30
0.0
 10
18.90285873413086
 20
43.49433233642594
 30
0.0
 10
18.41119766235352
 20
43.00101568603532
 30
0.0
 10
17.80368423461914
 20
43.00000097656266
 30
0.0
 10
17.80245590209961
 20
43.00000097656266
 30
0.0
 10
17.80122756958008
 20
43.00000097656266
 30
0.0
 10
17.79999923706055
 20
43.00000097656266
 30
0.0
  0
SPLINE
  5
58
330
1F
100
AcDbEntity
  8
LAYER_1
 62
   178
100
AcDbSpline
210
0.0
220
0.0
230
1.0
 70
    11
 71
     3
 72
    23
 73
    19
 74
     0
 42
0.0000000001
 43
0.0000000001
 12
1.0
 22
0.0
 32
0.0
 13
1.0
 23
0.0
 33
0.0
 40
0.0
 40
0.0
 40
0.0
 40
0.0
 40
1.0
 40
1.0
 40
1.0
 40
2.0
 40
2.0
 40
2.0
 40
3.0
 40
3.0
 40
3.0
 40
4.0
 40
4.0
 40
4.0
 40
5.0
 40
5.0
 40
5.0
 40
6.0
 40
6.0
 40
6.0
 40
6.0
 10
16.89999961853027
 20
27.30000402832047
 30
0.0
 10
16.84476852416992
 20
27.90499975585954
 30
0.0
 10
17.29043960571289
 20
28.44022467041032
 30
0.0
 10
17.89543724060059
 20
28.49545385742204
 30
0.0
 10
17.93020057678223
 20
28.49862768554704
 30
0.0
 10
17.9650936126709
 20
28.50014593505875
 30
0.0
 10
18.0
 20
28.50000097656266
 30
0.0
 10
18.66274070739746
 20
28.50000097656266
 30
0.0
 10
19.19999885559082
 20
27.96274664306657
 30
0.0
 10
19.20000076293945
 20
27.30000402832047
 30
0.0
 10
19.2025203704834
 20
26.69249822998063
 30
0.0
 10
18.71208000183105
 20
26.19796850585954
 30
0.0
 10
18.10457229614258
 20
26.19545080566422
 30
0.0
 10
18.06966209411621
 20
26.19530584716813
 30
0.0
 10
18.03476524353027
 20
26.19682409667985
 30
0.0
 10
18.0
 20
26.19999792480485
 30
0.0
 10
17.39248657226562
 20
26.19999792480485
 30
0.0
 10
16.89999961853027
 20
26.69248297119157
 30
0.0
 10
16.89999961853027
 20
27.30000402832047
 30
0.0
  0
SPLINE
  5
59
330
1F
100
AcDbEntity
  8
LAYER_1
 62
   178
100
AcDbSpline
210
0.0
220
0.0
230
1.0
 70
    11
 71
     3
 72
    23
 73
    19
 74
     0
 42
0.0000000001
 43
0.0000000001
 12
1.0
 22
0.0
 32
0.0
 13
1.0
 23
0.0
 33
0.0
 40
0.0
 40
0.0
 40
0.0
 40
0.0
 40
1.0
 40
1.0
 40
1.0
 40
2.0
 40
2.0
 40
2.0
 40
3.0
 40
3.0
 40
3.0
 40
4.0
 40
4.0
 40
4.0
 40
5.0
 40
5.0
 40
5.0
 40
6.0
 40
6.0
 40
6.0
 40
6.0
 10
27.39999961853027
 20
10.60000708007829
 30
0.0
 10
27.39999961853027
 20
10.60000708007829
 30
0.0
 10
27.39999961853027
 20
17.4000101318361
 30
0.0
 10
27.39999961853027
 20
17.4000101318361
 30
0.0
 10
27.39999961853027
 20
17.4000101318361
 30
0.0
 10
18.10000038146973
 20
17.4000101318361
 30
0.0
 10
18.10000038146973
 20
17.4000101318361
 30
0.0
 10
18.10000038146973
 20
17.4000101318361
 30
0.0
 10
17.39999961853027
 20
18.00000860595719
 30
0.0
 10
17.39999961853027
 20
18.00000860595719
 30
0.0
 10
17.39999961853027
 20
18.00000860595719
 30
0.0
 10
33.59999847412109
 20
18.00000860595719
 30
0.0
 10
33.59999847412109
 20
18.00000860595719
 30
0.0
 10
34.09999847412109
 20
12.800011657715
 30
0.0
 10
38.39999771118164
 20
8.400010131836098
 30
0.0
 10
43.19999694824219
 20
6.000008605957191
 30
0.0
 10
37.66390991210938
 20
6.379815124511879
 30
0.0
 10
32.27479553222656
 20
7.948800109863441
 30
0.0
 10
27.39999961853027
 20
10.60000708007829
 30
0.0
  0
SPLINE
  5
5A
330
1F
100
AcDbEntity
  8
LAYER_1
 62
   178
100
AcDbSpline
210
0.0
220
0.0
230
1.0
 70
    11
 71
     3
 72
    20
 73
    16
 74
     0
 42
0.0000000001
 43
0.0000000001
 12
1.0
 22
0.0
 32
0.0
 13
1.0
 23
0.0
 33
0.0
 40
0.0
 40
0.0
 40
0.0
 40
0.0
 40
1.0
 40
1.0
 40
1.0
 40
2.0
 40
2.0
 40
2.0
 40
3.0
 40
3.0
 40
3.0
 40
4.0
 40
4.0
 40
4.0
 40
5.0
 40
5.0
 40
5.0
 40
5.0
 10
22.79999923706055
 20
44.29999639892594
 30
0.0
 10
23.93815231323242
 20
44.24933721923844
 30
0.0
 10
24.84934043884277
 20
43.33815100097672
 30
0.0
 10
24.89999961853027
 20
42.19999792480485
 30
0.0
 10
24.89999961853027
 20
41.04020025634782
 30
0.0
 10
23.95979690551758
 20
40.09999945068375
 30
0.0
 10
22.79999923706055
 20
40.09999945068375
 30
0.0
 10
21.64151763916016
 20
40.04477026367204
 30
0.0
 10
20.6576099395752
 20
40.93913366699235
 30
0.0
 10
20.60238075256348
 20
42.09761907959
 30
0.0
 10
20.60075569152832
 20
42.13172247314469
 30
0.0
 10
20.59996223449707
 20
42.1658563842775
 30
0.0
 10
20.60000038146973
 20
42.19999792480485
 30
0.0
 10
20.65350151062012
 20
43.37580206298844
 30
0.0
 10
21.62297821044922
 20
44.30120947265641
 30
0.0
 10
22.79999923706055
 20
44.29999639892594
 30
0.0
  0
SPLINE
  5
5B
330
1F
100
AcDbEntity
  8
LAYER_1
 62
   178
100
AcDbSpline
210
0.0
220
0.0
230
1.0
 70
    11
 71
     3
 72
    26
 73
    22
 74
     0
 42
0.0000000001
 43
0.0000000001
 12
1.0
 22
0.0
 32
0.0
 13
1.0
 23
0.0
 33
0.0
 40
0.0
 40
0.0
 40
0.0
 40
0.0
 40
1.0
 40
1.0
 40
1.0
 40
2.0
 40
2.0
 40
2.0
 40
3.0
 40
3.0
 40
3.0
 40
4.0
 40
4.0
 40
4.0
 40
5.0
 40
5.0
 40
5.0
 40
6.0
 40
6.0
 40
6.0
 40
7.0
 40
7.0
 40
7.0
 40
7.0
 10
21.39999961853027
 20
49.59999945068375
 30
0.0
 10
21.39748382568359
 20
50.2075052490236
 30
0.0
 10
21.8879280090332
 20
50.70202734375016
 30
0.0
 10
22.49543571472168
 20
50.70454504394547
 30
0.0
 10
22.53034400939941
 20
50.70469000244157
 30
0.0
 10
22.56523704528809
 20
50.70317175292985
 30
0.0
 10
22.60000038146973
 20
50.69999792480485
 30
0.0
 10
23.20751190185547
 20
50.7010126342775
 30
0.0
 10
23.70082473754883
 20
50.20935156250016
 30
0.0
 10
23.70184135437012
 20
49.60184576416032
 30
0.0
 10
23.70285987854004
 20
48.99433233642594
 30
0.0
 10
23.2111988067627
 20
48.50101568603532
 30
0.0
 10
22.60368537902832
 20
48.50000097656266
 30
0.0
 10
22.60245704650879
 20
48.50000097656266
 30
0.0
 10
22.60122871398926
 20
48.50000097656266
 30
0.0
 10
22.60000038146973
 20
48.50000097656266
 30
0.0
 10
21.99500274658203
 20
48.44476416015641
 30
0.0
 10
21.45977973937988
 20
48.89043524169938
 30
0.0
 10
21.4045467376709
 20
49.49543859863297
 30
0.0
 10
21.4013729095459
 20
49.53019812011735
 30
0.0
 10
21.39985466003418
 20
49.56509497070329
 30
0.0
 10
21.39999961853027
 20
49.59999945068375
 30
0.0
  0
SPLINE
  5
5C
330
1F
100
AcDbEntity
  8
LAYER_1
 62
   178
100
AcDbSpline
210
0.0
220
0.0
230
1.0
 70
    11
 71
     3
 72
    23
 73
    19
 74
     0
 42
0.0000000001
 43
0.0000000001
 12
1.0
 22
0.0
 32
0.0
 13
1.0
 23
0.0
 33
0.0
 40
0.0
 40
0.0
 40
0.0
 40
0.0
 40
1.0
 40
1.0
 40
1.0
 40
2.0
 40
2.0
 40
2.0
 40
3.0
 40
3.0
 40
3.0
 40
4.0
 40
4.0
 40
4.0
 40
5.0
 40
5.0
 40
5.0
 40
6.0
 40
6.0
 40
6.0
 40
6.0
 10
26.60000038146973
 20
38.19999792480485
 30
0.0
 10
27.20751190185547
 20
38.2010126342775
 30
0.0
 10
27.70082473754883
 20
37.70935156250016
 30
0.0
 10
27.70184135437012
 20
37.10184576416032
 30
0.0
 10
27.70285987854004
 20
36.49433233642594
 30
0.0
 10
27.2111988067627
 20
36.00101568603532
 30
0.0
 10
26.60368537902832
 20
36.00000097656266
 30
0.0
 10
26.60245704650879
 20
36.00000097656266
 30
0.0
 10
26.60122871398926
 20
36.00000097656266
 30
0.0
 10
26.60000038146973
 20
36.00000097656266
 30
0.0
 10
25.99248886108398
 20
35.99898626709
 30
0.0
 10
25.49917602539062
 20
36.49064733886735
 30
0.0
 10
25.49815940856934
 20
37.09815313720719
 30
0.0
 10
25.49714088439941
 20
37.70566656494157
 30
0.0
 10
25.98880195617676
 20
38.19898321533219
 30
0.0
 10
26.59631538391113
 20
38.19999792480485
 30
0.0
 10
26.59754371643066
 20
38.19999792480485
 30
0.0
 10
26.5987720489502
 20
38.19999792480485
 30
0.0
 10
26.60000038146973
 20
38.19999792480485
 30
0.0
  0
SPLINE
  5
5D
330
1F
100
AcDbEntity
  8
LAYER_1
 62
   178
100
AcDbSpline
210
0.0
220
0.0
230
1.0
 70
    11
 71
     3
 72
    20
 73
    16
 74
     0
 42
0.0000000001
 43
0.0000000001
 12
1.0
 22
0.0
 32
0.0
 13
1.0
 23
0.0
 33
0.0
 40
0.0
 40
0.0
 40
0.0
 40
0.0
 40
1.0
 40
1.0
 40
1.0
 40
2.0
 40
2.0
 40
2.0
 40
3.0
 40
3.0
 40
3.0
 40
4.0
 40
4.0
 40
4.0
 40
5.0
 40
5.0
 40
5.0
 40
5.0
 10
26.10000038146973
 20
44.89999487304704
 30
0.0
 10
26.10000038146973
 20
45.50750830078141
 30
0.0
 10
26.59248733520508
 20
45.99999334716813
 30
0.0
 10
27.20000076293945
 20
45.99999334716813
 30
0.0
 10
27.8075122833252
 20
46.00100805664079
 30
0.0
 10
28.30082511901855
 20
45.50934698486344
 30
0.0
 10
28.30184173583984
 20
44.9018411865236
 30
0.0
 10
28.30286026000977
 20
44.29432775878922
 30
0.0
 10
27.81119918823242
 20
43.8010111083986
 30
0.0
 10
27.20368576049805
 20
43.79999639892594
 30
0.0
 10
27.20245742797852
 20
43.79999639892594
 30
0.0
 10
27.20122909545898
 20
43.79999639892594
 30
0.0
 10
27.20000076293945
 20
43.79999639892594
 30
0.0
 10
26.59248733520508
 20
43.79999639892594
 30
0.0
 10
26.10000038146973
 20
44.29248144531266
 30
0.0
 10
26.10000038146973
 20
44.89999487304704
 30
0.0
  0
SPLINE
  5
5E
330
1F
100
AcDbEntity
  8
LAYER_1
 62
   178
100
AcDbSpline
210
0.0
220
0.0
230
1.0
 70
    11
 71
     3
 72
    20
 73
    16
 74
     0
 42
0.0000000001
 43
0.0000000001
 12
1.0
 22
0.0
 32
0.0
 13
1.0
 23
0.0
 33
0.0
 40
0.0
 40
0.0
 40
0.0
 40
0.0
 40
1.0
 40
1.0
 40
1.0
 40
2.0
 40
2.0
 40
2.0
 40
3.0
 40
3.0
 40
3.0
 40
4.0
 40
4.0
 40
4.0
 40
5.0
 40
5.0
 40
5.0
 40
5.0
 10
26.80000114440918
 20
33.29999639892594
 30
0.0
 10
27.95979881286621
 20
33.29999639892594
 30
0.0
 10
28.89999961853027
 20
32.35979559326188
 30
0.0
 10
28.89999961853027
 20
31.19999792480485
 30
0.0
 10
28.89999961853027
 20
30.04020025634782
 30
0.0
 10
27.95979690551758
 20
29.09999945068375
 30
0.0
 10
26.79999923706055
 20
29.09999945068375
 30
0.0
 10
25.62297821044922
 20
29.09878637695329
 30
0.0
 10
24.65350151062012
 20
30.02419378662125
 30
0.0
 10
24.60000038146973
 20
31.19999792480485
 30
0.0
 10
24.59868621826172
 20
32.35979559326188
 30
0.0
 10
25.53782081604004
 20
33.30106451416032
 30
0.0
 10
26.69761848449707
 20
33.30237677001969
 30
0.0
 10
26.73176002502441
 20
33.30241491699235
 30
0.0
 10
26.76589584350586
 20
33.3016214599611
 30
0.0
 10
26.80000114440918
 20
33.29999639892594
 30
0.0
  0
SPLINE
  5
5F
330
1F
100
AcDbEntity
  8
LAYER_1
 62
   178
100
AcDbSpline
210
0.0
220
0.0
230
1.0
 70
    11
 71
     3
 72
    20
 73
    16
 74
     0
 42
0.0000000001
 43
0.0000000001
 12
1.0
 22
0.0
 32
0.0
 13
1.0
 23
0.0
 33
0.0
 40
0.0
 40
0.0
 40
0.0
 40
0.0
 40
1.0
 40
1.0
 40
1.0
 40
2.0
 40
2.0
 40
2.0
 40
3.0
 40
3.0
 40
3.0
 40
4.0
 40
4.0
 40
4.0
 40
5.0
 40
5.0
 40
5.0
 40
5.0
 10
30.30000114440918
 20
24.39999487304704
 30
0.0
 10
31.45979881286621
 20
24.39999487304704
 30
0.0
 10
32.40000152587891
 20
23.45979406738297
 30
0.0
 10
32.40000152587891
 20
22.29999639892594
 30
0.0
 10
32.40000152587891
 20
21.14019873046891
 30
0.0
 10
31.45979881286621
 20
20.19999792480485
 30
0.0
 10
30.30000114440918
 20
20.19999792480485
 30
0.0
 10
29.14151954650879
 20
20.14476873779313
 30
0.0
 10
28.15761184692383
 20
21.03913214111344
 30
0.0
 10
28.10238075256348
 20
22.19760992431657
 30
0.0
 10
28.10075569152832
 20
22.23171331787125
 30
0.0
 10
28.09996223449707
 20
22.2658548583986
 30
0.0
 10
28.10000038146973
 20
22.29999639892594
 30
0.0
 10
28.15350151062012
 20
23.47580053710954
 30
0.0
 10
29.12297821044922
 20
24.4012079467775
 30
0.0
 10
30.30000114440918
 20
24.39999487304704
 30
0.0
  0
SPLINE
  5
60
330
1F
100
AcDbEntity
  8
LAYER_1
 62
   178
100
AcDbSpline
210
0.0
220
0.0
230
1.0
 70
    11
 71
     3
 72
    23
 73
    19
 74
     0
 42
0.0000000001
 43
0.0000000001
 12
1.0
 22
0.0
 32
0.0
 13
1.0
 23
0.0
 33
0.0
 40
0.0
 40
0.0
 40
0.0
 40
0.0
 40
1.0
 40
1.0
 40
1.0
 40
2.0
 40
2.0
 40
2.0
 40
3.0
 40
3.0
 40
3.0
 40
4.0
 40
4.0
 40
4.0
 40
5.0
 40
5.0
 40
5.0
 40
6.0
 40
6.0
 40
6.0
 40
6.0
 10
27.60000038146973
 20
26.59999182128922
 30
0.0
 10
27.60000038146973
 20
25.99247839355485
 30
0.0
 10
27.10751342773438
 20
25.49999334716813
 30
0.0
 10
26.5
 20
25.49999334716813
 30
0.0
 10
25.8950023651123
 20
25.44475653076188
 30
0.0
 10
25.35977935791016
 20
25.89042761230485
 30
0.0
 10
25.30454635620117
 20
26.49543096923844
 30
0.0
 10
25.30137252807617
 20
26.53019049072282
 30
0.0
 10
25.29985427856445
 20
26.56508734130875
 30
0.0
 10
25.29999923706055
 20
26.59999182128922
 30
0.0
 10
25.30000114440918
 20
27.26273443603532
 30
0.0
 10
25.83725929260254
 20
27.79998876953141
 30
0.0
 10
26.5
 20
27.79998876953141
 30
0.0
 10
27.10750770568848
 20
27.80250646972672
 30
0.0
 10
27.60202980041504
 20
27.31205847167985
 30
0.0
 10
27.60454559326172
 20
26.70455267334
 30
0.0
 10
27.60469055175781
 20
26.66964819335954
 30
0.0
 10
27.60317420959473
 20
26.63475897216813
 30
0.0
 10
27.60000038146973
 20
26.59999182128922
 30
0.0
  0
SPLINE
  5
61
330
1F
100
AcDbEntity
  8
LAYER_1
 62
   178
100
AcDbSpline
210
0.0
220
0.0
230
1.0
 70
    11
 71
     3
 72
    23
 73
    19
 74
     0
 42
0.0000000001
 43
0.0000000001
 12
1.0
 22
0.0
 32
0.0
 13
1.0
 23
0.0
 33
0.0
 40
0.0
 40
0.0
 40
0.0
 40
0.0
 40
1.0
 40
1.0
 40
1.0
 40
2.0
 40
2.0
 40
2.0
 40
3.0
 40
3.0
 40
3.0
 40
4.0
 40
4.0
 40
4.0
 40
5.0
 40
5.0
 40
5.0
 40
6.0
 40
6.0
 40
6.0
 40
6.0
 10
24.0
 20
21.00000097656266
 30
0.0
 10
24.05523109436035
 20
20.3950052490236
 30
0.0
 10
23.60956001281738
 20
19.85978033447282
 30
0.0
 10
23.00456237792969
 20
19.8045511474611
 30
0.0
 10
22.96979904174805
 20
19.8013773193361
 30
0.0
 10
22.93490600585938
 20
19.79985906982438
 30
0.0
 10
22.89999961853027
 20
19.80000402832047
 30
0.0
 10
22.23725891113281
 20
19.80000402832047
 30
0.0
 10
21.70000076293945
 20
20.33725836181657
 30
0.0
 10
21.69999885559082
 20
21.00000097656266
 30
0.0
 10
21.69748306274414
 20
21.6075067749025
 30
0.0
 10
22.18792724609375
 20
22.10202886962907
 30
0.0
 10
22.79543495178223
 20
22.10454656982438
 30
0.0
 10
22.83034324645996
 20
22.10469152832047
 30
0.0
 10
22.86523628234863
 20
22.10317327880875
 30
0.0
 10
22.89999961853027
 20
22.09999945068375
 30
0.0
 10
23.50751304626465
 20
22.09999945068375
 30
0.0
 10
24.0
 20
21.60751440429704
 30
0.0
 10
24.0
 20
21.00000097656266
 30
0.0
  0
SPLINE
  5
62
330
1F
100
AcDbEntity
  8
LAYER_1
 62
   178
100
AcDbSpline
210
0.0
220
0.0
230
1.0
 70
    11
 71
     3
 72
   209
 73
   205
 74
     0
 42
0.0000000001
 43
0.0000000001
 12
1.0
 22
0.0
 32
0.0
 13
1.0
 23
0.0
 33
0.0
 40
0.0
 40
0.0
 40
0.0
 40
0.0
 40
1.0
 40
1.0
 40
1.0
 40
2.0
 40
2.0
 40
2.0
 40
3.0
 40
3.0
 40
3.0
 40
4.0
 40
4.0
 40
4.0
 40
5.0
 40
5.0
 40
5.0
 40
6.0
 40
6.0
 40
6.0
 40
7.0
 40
7.0
 40
7.0
 40
8.0
 40
8.0
 40
8.0
 40
9.0
 40
9.0
 40
9.0
 40
10.0
 40
10.0
 40
10.0
 40
11.0
 40
11.0
 40
11.0
 40
12.0
 40
12.0
 40
12.0
 40
13.0
 40
13.0
 40
13.0
 40
14.0
 40
14.0
 40
14.0
 40
15.0
 40
15.0
 40
15.0
 40
16.0
 40
16.0
 40
16.0
 40
17.0
 40
17.0
 40
17.0
 40
18.0
 40
18.0
 40
18.0
 40
19.0
 40
19.0
 40
19.0
 40
20.0
 40
20.0
 40
20.0
 40
21.0
 40
21.0
 40
21.0
 40
22.0
 40
22.0
 40
22.0
 40
23.0
 40
23.0
 40
23.0
 40
24.0
 40
24.0
 40
24.0
 40
25.0
 40
25.0
 40
25.0
 40
26.0
 40
26.0
 40
26.0
 40
27.0
 40
27.0
 40
27.0
 40
28.0
 40
28.0
 40
28.0
 40
29.0
 40
29.0
 40
29.0
 40
30.0
 40
30.0
 40
30.0
 40
31.0
 40
31.0
 40
31.0
 40
32.0
 40
32.0
 40
32.0
 40
33.0
 40
33.0
 40
33.0
 40
34.0
 40
34.0
 40
34.0
 40
35.0
 40
35.0
 40
35.0
 40
36.0
 40
36.0
 40
36.0
 40
37.0
 40
37.0
 40
37.0
 40
38.0
 40
38.0
 40
38.0
 40
39.0
 40
39.0
 40
39.0
 40
40.0
 40
40.0
 40
40.0
 40
41.0
 40
41.0
 40
41.0
 40
42.0
 40
42.0
 40
42.0
 40
43.0
 40
43.0
 40
43.0
 40
44.0
 40
44.0
 40
44.0
 40
45.0
 40
45.0
 40
45.0
 40
46.0
 40
46.0
 40
46.0
 40
47.0
 40
47.0
 40
47.0
 40
48.0
 40
48.0
 40
48.0
 40
49.0
 40
49.0
 40
49.0
 40
50.0
 40
50.0
 40
50.0
 40
51.0
 40
51.0
 40
51.0
 40
52.0
 40
52.0
 40
52.0
 40
53.0
 40
53.0
 40
53.0
 40
54.0
 40
54.0
 40
54.0
 40
55.0
 40
55.0
 40
55.0
 40
56.0
 40
56.0
 40
56.0
 40
57.0
 40
57.0
 40
57.0
 40
58.0
 40
58.0
 40
58.0
 40
59.0
 40
59.0
 40
59.0
 40
60.0
 40
60.0
 40
60.0
 40
61.0
 40
61.0
 40
61.0
 40
62.0
 40
62.0
 40
62.0
 40
63.0
 40
63.0
 40
63.0
 40
64.0
 40
64.0
 40
64.0
 40
65.0
 40
65.0
 40
65.0
 40
66.0
 40
66.0
 40
66.0
 40
67.0
 40
67.0
 40
67.0
 40
68.0
 40
68.0
 40
68.0
 40
68.0
 10
42.70000076293945
 20
40.59999945068375
 30
0.0
 10
42.05200576782227
 20
39.93327429199235
 30
0.0
 10
41.48169708251953
 20
39.19522192382829
 30
0.0
 10
41.0
 20
38.39999487304704
 30
0.0
 10
40.40587997436523
 20
38.75961401367204
 30
0.0
 10
39.83781051635742
 20
39.16059973144547
 30
0.0
 10
39.29999923706055
 20
39.59999182128922
 30
0.0
 10
39.29999923706055
 20
39.59999182128922
 30
0.0
 10
39.0
 20
39.79998876953141
 30
0.0
 10
41.39999771118164
 20
43.29998876953141
 30
0.0
 10
41.39999771118164
 20
43.29998876953141
 30
0.0
 10
38.39999771118164
 20
43.9999857177736
 30
0.0
 10
38.39999771118164
 20
43.9999857177736
 30
0.0
 10
37.69999694824219
 20
40.59998419189469
 30
0.0
 10
37.39999771118164
 20
40.79998876953141
 30
0.0
 10
37.39999771118164
 20
40.79998876953141
 30
0.0
 10
35.29999923706055
 20
42.09999182128922
 30
0.0
 10
32.99999618530273
 20
43.29998876953141
 30
0.0
 10
32.49999618530273
 20
42.19999029541032
 30
0.0
 10
31.99999618530273
 20
41.09999182128922
 30
0.0
 10
32.09999465942383
 20
40.99999334716813
 30
0.0
 10
34.49999618530273
 20
39.49999334716813
 30
0.0
 10
34.49999618530273
 20
39.49999334716813
 30
0.0
 10
37.09999465942383
 20
38.29999639892594
 30
0.0
 10
37.09999465942383
 20
38.29999639892594
 30
0.0
 10
33.59999465942383
 20
36.59999945068375
 30
0.0
 10
34.79999542236328
 20
35.39999487304704
 30
0.0
 10
34.79999542236328
 20
35.39999487304704
 30
0.0
 10
34.79999542236328
 20
35.39999487304704
 30
0.0
 10
38.19999694824219
 20
37.79999639892594
 30
0.0
 10
38.49999618530273
 20
37.69999792480485
 30
0.0
 10
38.49999618530273
 20
37.69999792480485
 30
0.0
 10
40.39999771118164
 20
36.89999487304704
 30
0.0
 10
40.39999771118164
 20
36.89999487304704
 30
0.0
 10
40.24831771850586
 20
36.15432836914079
 30
0.0
 10
40.04788970947266
 20
35.4194193115236
 30
0.0
 10
39.79999923706055
 20
34.69999792480485
 30
0.0
 10
39.79999923706055
 20
32.19999792480485
 30
0.0
 10
40.0
 20
30.00000097656266
 30
0.0
 10
40.0
 20
30.00000097656266
 30
0.0
 10
37.68331527709961
 20
28.27893164062516
 30
0.0
 10
35.82823944091797
 20
26.01162054443375
 30
0.0
 10
34.59999847412109
 20
23.40000250244157
 30
0.0
 10
34.59999847412109
 20
23.40000250244157
 30
0.0
 10
30.39999771118164
 20
30.40000250244157
 30
0.0
 10
30.39999771118164
 20
30.40000250244157
 30
0.0
 10
30.09999847412109
 20
30.90000250244157
 30
0.0
 10
30.29999732971191
 20
31.20000555419938
 30
0.0
 10
30.79999732971191
 20
31.20000555419938
 30
0.0
 10
30.79999732971191
 20
31.20000555419938
 30
0.0
 10
33.29999542236328
 20
31.20000555419938
 30
0.0
 10
33.29999542236328
 20
31.20000555419938
 30
0.0
 10
33.57613754272461
 20
31.20000555419938
 30
0.0
 10
33.79999542236328
 20
31.42385961914079
 30
0.0
 10
33.79999923706055
 20
31.69999792480485
 30
0.0
 10
33.79999923706055
 20
31.8081903686525
 30
0.0
 10
33.76491165161133
 20
31.91346075439469
 30
0.0
 10
33.69999694824219
 20
32.00000860595719
 30
0.0
 10
33.69999694824219
 20
32.00000860595719
 30
0.0
 10
28.49999618530273
 20
40.9000101318361
 30
0.0
 10
28.49999618530273
 20
40.9000101318361
 30
0.0
 10
28.19999694824219
 20
41.300011657715
 30
0.0
 10
28.39999580383301
 20
41.60000708007829
 30
0.0
 10
28.89999580383301
 20
41.60000708007829
 30
0.0
 10
28.89999580383301
 20
41.60000708007829
 30
0.0
 10
30.79999542236328
 20
41.60000708007829
 30
0.0
 10
30.79999542236328
 20
41.60000708007829
 30
0.0
 10
31.39999580383301
 20
41.60000708007829
 30
0.0
 10
31.59999465942383
 20
42.00000860595719
 30
0.0
 10
31.29999542236328
 20
42.4000101318361
 30
0.0
 10
31.29999542236328
 20
42.4000101318361
 30
0.0
 10
23.20000076293945
 20
56.09999945068375
 30
0.0
 10
23.20000076293945
 20
56.09999945068375
 30
0.0
 10
23.0168285369873
 20
56.37614538574235
 30
0.0
 10
22.64447975158691
 20
56.45150854492204
 30
0.0
 10
22.36833763122559
 20
56.26833441162125
 30
0.0
 10
22.30154609680176
 20
56.22403051757829
 30
0.0
 10
22.24430656433105
 20
56.16679479980485
 30
0.0
 10
22.20000076293945
 20
56.09999945068375
 30
0.0
 10
22.20000076293945
 20
56.09999945068375
 30
0.0
 10
14.10000038146973
 20
42.39999487304704
 30
0.0
 10
14.10000038146973
 20
42.39999487304704
 30
0.0
 10
13.92762470245361
 20
42.18425848388688
 30
0.0
 10
13.9627742767334
 20
41.86963751220719
 30
0.0
 10
14.17850875854492
 20
41.69725897216813
 30
0.0
 10
14.29698467254639
 20
41.60259344482438
 30
0.0
 10
14.45202255249023
 20
41.56681921386735
 30
0.0
 10
14.60000038146973
 20
41.59999182128922
 30
0.0
 10
14.60000038146973
 20
41.59999182128922
 30
0.0
 10
16.5
 20
41.59999182128922
 30
0.0
 10
16.5
 20
41.59999182128922
 30
0.0
 10
17.0
 20
41.59999182128922
 30
0.0
 10
17.20000076293945
 20
41.29998876953141
 30
0.0
 10
17.0
 20
40.89999487304704
 30
0.0
 10
17.0
 20
40.89999487304704
 30
0.0
 10
11.69999980926514
 20
31.99999334716813
 30
0.0
 10
11.69999980926514
 20
31.99999334716813
 30
0.0
 10
11.39999961853027
 20
31.59999182128922
 30
0.0
 10
11.59999942779541
 20
31.19999029541032
 30
0.0
 10
12.19999980926514
 20
31.19999029541032
 30
0.0
 10
12.19999980926514
 20
31.19999029541032
 30
0.0
 10
14.60000038146973
 20
31.19999029541032
 30
0.0
 10
14.60000038146973
 20
31.19999029541032
 30
0.0
 10
15.10000038146973
 20
31.19999029541032
 30
0.0
 10
15.30000019073486
 20
30.8999872436525
 30
0.0
 10
15.0
 20
30.3999872436525
 30
0.0
 10
15.0
 20
30.3999872436525
 30
0.0
 10
11.89999961853027
 20
25.09998419189469
 30
0.0
 10
11.89999961853027
 20
25.09998419189469
 30
0.0
 10
2.245281934738159
 20
40.85997869873063
 30
0.0
 10
4.421799659729004
 20
61.14676000976579
 30
0.0
 10
17.20000076293945
 20
74.4999857177736
 30
0.0
 10
17.20000076293945
 20
74.4999857177736
 30
0.0
 10
17.80000114440918
 20
73.9999857177736
 30
0.0
 10
17.80000114440918
 20
73.9999857177736
 30
0.0
 10
19.11710548400879
 20
73.10379888916032
 30
0.0
 10
20.62248802185059
 20
72.52217581176774
 30
0.0
 10
22.20000076293945
 20
72.29998495483414
 30
0.0
 10
21.49667930603027
 20
70.2083482971193
 30
0.0
 10
21.32485008239746
 20
67.97457983398454
 30
0.0
 10
21.70000076293945
 20
65.79998495483414
 30
0.0
 10
21.95519065856934
 20
63.60538198852555
 30
0.0
 10
22.82139205932617
 20
61.52650549316422
 30
0.0
 10
24.20000076293945
 20
59.79998876953141
 30
0.0
 10
25.32216835021973
 20
58.36476995849625
 30
0.0
 10
27.08222198486328
 20
57.57836248779313
 30
0.0
 10
28.90000152587891
 20
57.69999029541032
 30
0.0
 10
30.58497047424316
 20
57.70777227783219
 30
0.0
 10
32.18621444702148
 20
58.43560888671891
 30
0.0
 10
33.30000305175781
 20
59.69999029541032
 30
0.0
 10
34.23562240600586
 20
60.6888284912111
 30
0.0
 10
34.98136520385742
 20
61.84134008789079
 30
0.0
 10
35.50000381469727
 20
63.09999182128922
 30
0.0
 10
35.66017913818359
 20
62.28040792846696
 30
0.0
 10
36.04043960571289
 20
61.5198831787111
 30
0.0
 10
36.60000228881836
 20
60.89999487304704
 30
0.0
 10
37.20188903808594
 20
60.28368475341813
 30
0.0
 10
38.03967666625977
 20
59.95585729980485
 30
0.0
 10
38.90000152587891
 20
59.99999334716813
 30
0.0
 10
40.31171417236328
 20
60.09797003173844
 30
0.0
 10
41.56659698486328
 20
60.9345560302736
 30
0.0
 10
42.20000076293945
 20
62.19999792480485
 30
0.0
 10
42.20000076293945
 20
62.19999792480485
 30
0.0
 10
43.10000228881836
 20
62.00000097656266
 30
0.0
 10
43.10000228881836
 20
62.00000097656266
 30
0.0
 10
43.10000228881836
 20
62.00000097656266
 30
0.0
 10
43.80000305175781
 20
62.00000097656266
 30
0.0
 10
43.80000305175781
 20
62.00000097656266
 30
0.0
 10
44.07031631469727
 20
62.10764410400407
 30
0.0
 10
44.31050872802734
 20
62.27921011352555
 30
0.0
 10
44.50000381469727
 20
62.50000097656266
 30
0.0
 10
44.50000381469727
 20
62.50000097656266
 30
0.0
 10
45.0
 20
63.19999792480485
 30
0.0
 10
45.0
 20
63.19999792480485
 30
0.0
 10
45.0
 20
63.19999792480485
 30
0.0
 10
45.20000076293945
 20
63.49999716186539
 30
0.0
 10
45.20000076293945
 20
63.49999716186539
 30
0.0
 10
45.40386199951172
 20
62.63496115112321
 30
0.0
 10
45.77778625488281
 20
61.81912329101579
 30
0.0
 10
46.29999923706055
 20
61.09999945068375
 30
0.0
 10
46.91533660888672
 20
60.50430395507829
 30
0.0
 10
47.7437858581543
 20
60.18012335205094
 30
0.0
 10
48.59999847412109
 20
60.19999792480485
 30
0.0
 10
49.998779296875
 20
60.33507635498063
 30
0.0
 10
51.23731994628906
 20
61.16076757812516
 30
0.0
 10
51.89999771118164
 20
62.3999986877443
 30
0.0
 10
52.18063735961914
 20
62.26788427734391
 30
0.0
 10
52.4972038269043
 20
62.23271276855485
 30
0.0
 10
52.79999923706055
 20
62.30000021362321
 30
0.0
 10
52.79999923706055
 20
62.30000021362321
 30
0.0
 10
53.59999847412109
 20
62.30000021362321
 30
0.0
 10
53.59999847412109
 20
62.30000021362321
 30
0.0
 10
53.59999847412109
 20
62.30000021362321
 30
0.0
 10
54.09999847412109
 20
62.59999945068375
 30
0.0
 10
54.09999847412109
 20
62.59999945068375
 30
0.0
 10
54.09999847412109
 20
62.59999945068375
 30
0.0
 10
53.89999771118164
 20
61.79999639892594
 30
0.0
 10
53.89999771118164
 20
61.79999639892594
 30
0.0
 10
53.89999771118164
 20
61.79999639892594
 30
0.0
 10
53.19999694824219
 20
61.79999639892594
 30
0.0
 10
53.19999694824219
 20
61.79999639892594
 30
0.0
 10
50.19999694824219
 20
61.99999334716813
 30
0.0
 10
51.39999771118164
 20
59.19999792480485
 30
0.0
 10
51.89999771118164
 20
58.99999334716813
 30
0.0
 10
48.39999771118164
 20
59.29999639892594
 30
0.0
 10
45.59999847412109
 20
59.59999182128922
 30
0.0
 10
44.89999771118164
 20
58.49999334716813
 30
0.0
 10
44.19999694824219
 20
57.39999487304704
 30
0.0
 10
44.29999923706055
 20
57.49999334716813
 30
0.0
 10
45.29999923706055
 20
55.19999029541032
 30
0.0
 10
46.29999923706055
 20
52.8999872436525
 30
0.0
 10
46.89999771118164
 20
51.49999334716813
 30
0.0
 10
46.89999771118164
 20
50.99999334716813
 30
0.0
 10
41.99999618530273
 20
51.99999334716813
 30
0.0
 10
41.89999771118164
 20
50.19999029541032
 30
0.0
 10
41.89999771118164
 20
50.19999029541032
 30
0.0
 10
41.89999771118164
 20
48.3999872436525
 30
0.0
 10
45.59999847412109
 20
49.09999182128922
 30
0.0
 10
45.49999618530273
 20
48.49999334716813
 30
0.0
 10
43.69874572753906
 20
47.36189367675797
 30
0.0
 10
42.35395812988281
 20
45.62782385253922
 30
0.0
 10
41.69999694824219
 20
43.59999182128922
 30
0.0
 10
44.29999923706055
 20
41.00000097656266
 30
0.0
 10
44.29999923706055
 20
41.00000097656266
 30
0.0
 10
42.70000076293945
 20
40.59999945068375
 30
0.0
  0
POLYLINE
  5
63
330
1F
100
AcDbEntity
  8
LAYER_1
 62
   178
100
AcDb2dPolyline
 66
     1
 10
0.0
 20
0.0
 30
0.0
  0
VERTEX
  5
64
330
63
100
AcDbEntity
  8
LAYER_1
 62
   178
100
AcDbVertex
100
AcDb2dVertex
 10
57.59999847412109
 20
25.19999792480485
 30
0.0
  0
VERTEX
  5
65
330
63
100
AcDbEntity
  8
LAYER_1
 62
   178
100
AcDbVertex
100
AcDb2dVertex
 10
57.59999847412109
 20
25.00000097656266
 30
0.0
  0
VERTEX
  5
66
330
63
100
AcDbEntity
  8
LAYER_1
 62
   178
100
AcDbVertex
100
AcDb2dVertex
 10
57.0
 20
25.00000097656266
 30
0.0
  0
VERTEX
  5
67
330
63
100
AcDbEntity
  8
LAYER_1
 62
   178
100
AcDbVertex
100
AcDb2dVertex
 10
56.70000076293945
 20
24.80000402832047
 30
0.0
  0
VERTEX
  5
68
330
63
100
AcDbEntity
  8
LAYER_1
 62
   178
100
AcDbVertex
100
AcDb2dVertex
 10
56.90000152587891
 20
24.80000402832047
 30
0.0
  0
VERTEX
  5
69
330
63
100
AcDbEntity
  8
LAYER_1
 62
   178
100
AcDbVertex
100
AcDb2dVertex
 10
57.20000076293945
 20
24.60000708007829
 30
0.0
  0
VERTEX
  5
6A
330
63
100
AcDbEntity
  8
LAYER_1
 62
   178
100
AcDbVertex
100
AcDb2dVertex
 10
57.5
 20
24.60000708007829
 30
0.0
  0
VERTEX
  5
6B
330
63
100
AcDbEntity
  8
LAYER_1
 62
   178
100
AcDbVertex
100
AcDb2dVertex
 10
57.5
 20
23.9000101318361
 30
0.0
  0
VERTEX
  5
6C
330
63
100
AcDbEntity
  8
LAYER_1
 62
   178
100
AcDbVertex
100
AcDb2dVertex
 10
57.29999923706055
 20
23.9000101318361
 30
0.0
  0
VERTEX
  5
6D
330
63
100
AcDbEntity
  8
LAYER_1
 62
   178
100
AcDbVertex
100
AcDb2dVertex
 10
56.89999771118164
 20
23.50000860595719
 30
0.0
  0
VERTEX
  5
6E
330
63
100
AcDbEntity
  8
LAYER_1
 62
   178
100
AcDbVertex
100
AcDb2dVertex
 10
56.29999923706055
 20
23.50000860595719
 30
0.0
  0
VERTEX
  5
6F
330
63
100
AcDbEntity
  8
LAYER_1
 62
   178
100
AcDbVertex
100
AcDb2dVertex
 10
55.20000076293945
 20
24.00000860595719
 30
0.0
  0
VERTEX
  5
70
330
63
100
AcDbEntity
  8
LAYER_1
 62
   178
100
AcDbVertex
100
AcDb2dVertex
 10
54.20000076293945
 20
24.00000860595719
 30
0.0
  0
VERTEX
  5
71
330
63
100
AcDbEntity
  8
LAYER_1
 62
   178
100
AcDbVertex
100
AcDb2dVertex
 10
53.90000152587891
 20
23.800011657715
 30
0.0
  0
VERTEX
  5
72
330
63
100
AcDbEntity
  8
LAYER_1
 62
   178
100
AcDbVertex
100
AcDb2dVertex
 10
53.30000305175781
 20
23.50000860595719
 30
0.0
  0
VERTEX
  5
73
330
63
100
AcDbEntity
  8
LAYER_1
 62
   178
100
AcDbVertex
100
AcDb2dVertex
 10
53.0
 20
23.50000860595719
 30
0.0
  0
VERTEX
  5
74
330
63
100
AcDbEntity
  8
LAYER_1
 62
   178
100
AcDbVertex
100
AcDb2dVertex
 10
52.70000076293945
 20
23.300011657715
 30
0.0
  0
VERTEX
  5
75
330
63
100
AcDbEntity
  8
LAYER_1
 62
   178
100
AcDbVertex
100
AcDb2dVertex
 10
52.60000228881836
 20
23.300011657715
 30
0.0
  0
VERTEX
  5
76
330
63
100
AcDbEntity
  8
LAYER_1
 62
   178
100
AcDbVertex
100
AcDb2dVertex
 10
52.80000305175781
 20
23.10001470947282
 30
0.0
  0
VERTEX
  5
77
330
63
100
AcDbEntity
  8
LAYER_1
 62
   178
100
AcDbVertex
100
AcDb2dVertex
 10
53.40000152587891
 20
23.10001470947282
 30
0.0
  0
VERTEX
  5
78
330
63
100
AcDbEntity
  8
LAYER_1
 62
   178
100
AcDbVertex
100
AcDb2dVertex
 10
53.70000076293945
 20
22.800011657715
 30
0.0
  0
VERTEX
  5
79
330
63
100
AcDbEntity
  8
LAYER_1
 62
   178
100
AcDbVertex
100
AcDb2dVertex
 10
55.10000228881836
 20
22.800011657715
 30
0.0
  0
VERTEX
  5
7A
330
63
100
AcDbEntity
  8
LAYER_1
 62
   178
100
AcDbVertex
100
AcDb2dVertex
 10
55.70000076293945
 20
23.00000860595719
 30
0.0
  0
VERTEX
  5
7B
330
63
100
AcDbEntity
  8
LAYER_1
 62
   178
100
AcDbVertex
100
AcDb2dVertex
 10
56.60000228881836
 20
23.00000860595719
 30
0.0
  0
VERTEX
  5
7C
330
63
100
AcDbEntity
  8
LAYER_1
 62
   178
100
AcDbVertex
100
AcDb2dVertex
 10
56.80000305175781
 20
22.800011657715
 30
0.0
  0
VERTEX
  5
7D
330
63
100
AcDbEntity
  8
LAYER_1
 62
   178
100
AcDbVertex
100
AcDb2dVertex
 10
57.00000381469727
 20
22.60001470947282
 30
0.0
  0
VERTEX
  5
7E
330
63
100
AcDbEntity
  8
LAYER_1
 62
   178
100
AcDbVertex
100
AcDb2dVertex
 10
57.00000381469727
 20
22.00001623535172
 30
0.0
  0
VERTEX
  5
7F
330
63
100
AcDbEntity
  8
LAYER_1
 62
   178
100
AcDbVertex
100
AcDb2dVertex
 10
56.20000457763672
 20
22.00001623535172
 30
0.0
  0
VERTEX
  5
80
330
63
100
AcDbEntity
  8
LAYER_1
 62
   178
100
AcDbVertex
100
AcDb2dVertex
 10
56.50000381469727
 20
21.80001928710954
 30
0.0
  0
VERTEX
  5
81
330
63
100
AcDbEntity
  8
LAYER_1
 62
   178
100
AcDbVertex
100
AcDb2dVertex
 10
56.90000534057617
 20
21.50001623535172
 30
0.0
  0
VERTEX
  5
82
330
63
100
AcDbEntity
  8
LAYER_1
 62
   178
100
AcDbVertex
100
AcDb2dVertex
 10
57.30000686645508
 20
21.50001623535172
 30
0.0
  0
VERTEX
  5
83
330
63
100
AcDbEntity
  8
LAYER_1
 62
   178
100
AcDbVertex
100
AcDb2dVertex
 10
57.30000686645508
 20
20.90001776123063
 30
0.0
  0
VERTEX
  5
84
330
63
100
AcDbEntity
  8
LAYER_1
 62
   178
100
AcDbVertex
100
AcDb2dVertex
 10
57.0
 20
20.90001776123063
 30
0.0
  0
VERTEX
  5
85
330
63
100
AcDbEntity
  8
LAYER_1
 62
   178
100
AcDbVertex
100
AcDb2dVertex
 10
56.5
 20
20.70002081298844
 30
0.0
  0
VERTEX
  5
86
330
63
100
AcDbEntity
  8
LAYER_1
 62
   178
100
AcDbVertex
100
AcDb2dVertex
 10
56.20000076293945
 20
20.70002081298844
 30
0.0
  0
VERTEX
  5
87
330
63
100
AcDbEntity
  8
LAYER_1
 62
   178
100
AcDbVertex
100
AcDb2dVertex
 10
55.79999923706055
 20
21.00002386474625
 30
0.0
  0
VERTEX
  5
88
330
63
100
AcDbEntity
  8
LAYER_1
 62
   178
100
AcDbVertex
100
AcDb2dVertex
 10
55.39999771118164
 20
21.20002081298844
 30
0.0
  0
VERTEX
  5
89
330
63
100
AcDbEntity
  8
LAYER_1
 62
   178
100
AcDbVertex
100
AcDb2dVertex
 10
55.0
 20
21.20002081298844
 30
0.0
  0
VERTEX
  5
8A
330
63
100
AcDbEntity
  8
LAYER_1
 62
   178
100
AcDbVertex
100
AcDb2dVertex
 10
55.0
 20
20.20002081298844
 30
0.0
  0
VERTEX
  5
8B
330
63
100
AcDbEntity
  8
LAYER_1
 62
   178
100
AcDbVertex
100
AcDb2dVertex
 10
55.0
 20
20.20002081298844
 30
0.0
  0
VERTEX
  5
8C
330
63
100
AcDbEntity
  8
LAYER_1
 62
   178
100
AcDbVertex
100
AcDb2dVertex
 10
54.59999847412109
 20
19.90001776123063
 30
0.0
  0
VERTEX
  5
8D
330
63
100
AcDbEntity
  8
LAYER_1
 62
   178
100
AcDbVertex
100
AcDb2dVertex
 10
53.59999847412109
 20
19.90001776123063
 30
0.0
  0
VERTEX
  5
8E
330
63
100
AcDbEntity
  8
LAYER_1
 62
   178
100
AcDbVertex
100
AcDb2dVertex
 10
53.59999847412109
 20
22.00001623535172
 30
0.0
  0
VERTEX
  5
8F
330
63
100
AcDbEntity
  8
LAYER_1
 62
   178
100
AcDbVertex
100
AcDb2dVertex
 10
53.0
 20
22.00001623535172
 30
0.0
  0
VERTEX
  5
90
330
63
100
AcDbEntity
  8
LAYER_1
 62
   178
100
AcDbVertex
100
AcDb2dVertex
 10
52.59999847412109
 20
22.30001928710954
 30
0.0
  0
VERTEX
  5
91
330
63
100
AcDbEntity
  8
LAYER_1
 62
   178
100
AcDbVertex
100
AcDb2dVertex
 10
52.19999694824219
 20
22.50001623535172
 30
0.0
  0
VERTEX
  5
92
330
63
100
AcDbEntity
  8
LAYER_1
 62
   178
100
AcDbVertex
100
AcDb2dVertex
 10
51.89999771118164
 20
22.50001623535172
 30
0.0
  0
VERTEX
  5
93
330
63
100
AcDbEntity
  8
LAYER_1
 62
   178
100
AcDbVertex
100
AcDb2dVertex
 10
51.69999694824219
 20
22.70001318359391
 30
0.0
  0
VERTEX
  5
94
330
63
100
AcDbEntity
  8
LAYER_1
 62
   178
100
AcDbVertex
100
AcDb2dVertex
 10
51.49999618530273
 20
22.70001318359391
 30
0.0
  0
VERTEX
  5
95
330
63
100
AcDbEntity
  8
LAYER_1
 62
   178
100
AcDbVertex
100
AcDb2dVertex
 10
51.49999618530273
 20
20.10001470947282
 30
0.0
  0
VERTEX
  5
96
330
63
100
AcDbEntity
  8
LAYER_1
 62
   178
100
AcDbVertex
100
AcDb2dVertex
 10
51.59999465942383
 20
20.10001470947282
 30
0.0
  0
VERTEX
  5
97
330
63
100
AcDbEntity
  8
LAYER_1
 62
   178
100
AcDbVertex
100
AcDb2dVertex
 10
51.79999542236328
 20
19.90001776123063
 30
0.0
  0
VERTEX
  5
98
330
63
100
AcDbEntity
  8
LAYER_1
 62
   178
100
AcDbVertex
100
AcDb2dVertex
 10
51.99999618530273
 20
19.70002081298844
 30
0.0
  0
VERTEX
  5
99
330
63
100
AcDbEntity
  8
LAYER_1
 62
   178
100
AcDbVertex
100
AcDb2dVertex
 10
52.49999618530273
 20
19.30001928710954
 30
0.0
  0
VERTEX
  5
9A
330
63
100
AcDbEntity
  8
LAYER_1
 62
   178
100
AcDbVertex
100
AcDb2dVertex
 10
52.69999694824219
 20
19.10002233886735
 30
0.0
  0
VERTEX
  5
9B
330
63
100
AcDbEntity
  8
LAYER_1
 62
   178
100
AcDbVertex
100
AcDb2dVertex
 10
52.89999771118164
 20
19.10002233886735
 30
0.0
  0
VERTEX
  5
9C
330
63
100
AcDbEntity
  8
LAYER_1
 62
   178
100
AcDbVertex
100
AcDb2dVertex
 10
53.09999847412109
 20
18.90002539062516
 30
0.0
  0
VERTEX
  5
9D
330
63
100
AcDbEntity
  8
LAYER_1
 62
   178
100
AcDbVertex
100
AcDb2dVertex
 10
53.19999694824219
 20
18.90002539062516
 30
0.0
  0
VERTEX
  5
9E
330
63
100
AcDbEntity
  8
LAYER_1
 62
   178
100
AcDbVertex
100
AcDb2dVertex
 10
53.19999694824219
 20
18.40002539062516
 30
0.0
  0
VERTEX
  5
9F
330
63
100
AcDbEntity
  8
LAYER_1
 62
   178
100
AcDbVertex
100
AcDb2dVertex
 10
52.99999618530273
 20
18.40002539062516
 30
0.0
  0
VERTEX
  5
A0
330
63
100
AcDbEntity
  8
LAYER_1
 62
   178
100
AcDbVertex
100
AcDb2dVertex
 10
52.79999542236328
 20
18.20002844238297
 30
0.0
  0
VERTEX
  5
A1
330
63
100
AcDbEntity
  8
LAYER_1
 62
   178
100
AcDbVertex
100
AcDb2dVertex
 10
52.29999542236328
 20
18.20002844238297
 30
0.0
  0
VERTEX
  5
A2
330
63
100
AcDbEntity
  8
LAYER_1
 62
   178
100
AcDbVertex
100
AcDb2dVertex
 10
52.09999465942383
 20
18.40002539062516
 30
0.0
  0
VERTEX
  5
A3
330
63
100
AcDbEntity
  8
LAYER_1
 62
   178
100
AcDbVertex
100
AcDb2dVertex
 10
51.89999389648438
 20
18.60002233886735
 30
0.0
  0
VERTEX
  5
A4
330
63
100
AcDbEntity
  8
LAYER_1
 62
   178
100
AcDbVertex
100
AcDb2dVertex
 10
51.59999465942383
 20
18.80001928710954
 30
0.0
  0
VERTEX
  5
A5
330
63
100
AcDbEntity
  8
LAYER_1
 62
   178
100
AcDbVertex
100
AcDb2dVertex
 10
51.39999389648438
 20
18.80001928710954
 30
0.0
  0
VERTEX
  5
A6
330
63
100
AcDbEntity
  8
LAYER_1
 62
   178
100
AcDbVertex
100
AcDb2dVertex
 10
51.39999389648438
 20
17.80001928710954
 30
0.0
  0
VERTEX
  5
A7
330
63
100
AcDbEntity
  8
LAYER_1
 62
   178
100
AcDbVertex
100
AcDb2dVertex
 10
49.79999923706055
 20
17.80001928710954
 30
0.0
  0
VERTEX
  5
A8
330
63
100
AcDbEntity
  8
LAYER_1
 62
   178
100
AcDbVertex
100
AcDb2dVertex
 10
49.79999923706055
 20
18.80001928710954
 30
0.0
  0
VERTEX
  5
A9
330
63
100
AcDbEntity
  8
LAYER_1
 62
   178
100
AcDbVertex
100
AcDb2dVertex
 10
49.59999847412109
 20
18.80001928710954
 30
0.0
  0
VERTEX
  5
AA
330
63
100
AcDbEntity
  8
LAYER_1
 62
   178
100
AcDbVertex
100
AcDb2dVertex
 10
49.39999771118164
 20
18.60002233886735
 30
0.0
  0
VERTEX
  5
AB
330
63
100
AcDbEntity
  8
LAYER_1
 62
   178
100
AcDbVertex
100
AcDb2dVertex
 10
49.09999847412109
 20
18.40002539062516
 30
0.0
  0
VERTEX
  5
AC
330
63
100
AcDbEntity
  8
LAYER_1
 62
   178
100
AcDbVertex
100
AcDb2dVertex
 10
48.09999847412109
 20
18.40002539062516
 30
0.0
  0
VERTEX
  5
AD
330
63
100
AcDbEntity
  8
LAYER_1
 62
   178
100
AcDbVertex
100
AcDb2dVertex
 10
48.09999847412109
 20
19.10002233886735
 30
0.0
  0
VERTEX
  5
AE
330
63
100
AcDbEntity
  8
LAYER_1
 62
   178
100
AcDbVertex
100
AcDb2dVertex
 10
48.5
 20
19.10002233886735
 30
0.0
  0
VERTEX
  5
AF
330
63
100
AcDbEntity
  8
LAYER_1
 62
   178
100
AcDbVertex
100
AcDb2dVertex
 10
48.70000076293945
 20
19.30001928710954
 30
0.0
  0
VERTEX
  5
B0
330
63
100
AcDbEntity
  8
LAYER_1
 62
   178
100
AcDbVertex
100
AcDb2dVertex
 10
48.90000152587891
 20
19.30001928710954
 30
0.0
  0
VERTEX
  5
B1
330
63
100
AcDbEntity
  8
LAYER_1
 62
   178
100
AcDbVertex
100
AcDb2dVertex
 10
49.40000152587891
 20
19.70002081298844
 30
0.0
  0
VERTEX
  5
B2
330
63
100
AcDbEntity
  8
LAYER_1
 62
   178
100
AcDbVertex
100
AcDb2dVertex
 10
49.60000228881836
 20
19.70002081298844
 30
0.0
  0
VERTEX
  5
B3
330
63
100
AcDbEntity
  8
LAYER_1
 62
   178
100
AcDbVertex
100
AcDb2dVertex
 10
49.80000305175781
 20
19.90001776123063
 30
0.0
  0
VERTEX
  5
B4
330
63
100
AcDbEntity
  8
LAYER_1
 62
   178
100
AcDbVertex
100
AcDb2dVertex
 10
50.00000381469727
 20
19.90001776123063
 30
0.0
  0
VERTEX
  5
B5
330
63
100
AcDbEntity
  8
LAYER_1
 62
   178
100
AcDbVertex
100
AcDb2dVertex
 10
50.00000381469727
 20
22.60001470947282
 30
0.0
  0
VERTEX
  5
B6
330
63
100
AcDbEntity
  8
LAYER_1
 62
   178
100
AcDbVertex
100
AcDb2dVertex
 10
49.20000457763672
 20
22.60001470947282
 30
0.0
  0
VERTEX
  5
B7
330
63
100
AcDbEntity
  8
LAYER_1
 62
   178
100
AcDbVertex
100
AcDb2dVertex
 10
48.80000305175781
 20
22.40001776123063
 30
0.0
  0
VERTEX
  5
B8
330
63
100
AcDbEntity
  8
LAYER_1
 62
   178
100
AcDbVertex
100
AcDb2dVertex
 10
48.40000152587891
 20
22.20002081298844
 30
0.0
  0
VERTEX
  5
B9
330
63
100
AcDbEntity
  8
LAYER_1
 62
   178
100
AcDbVertex
100
AcDb2dVertex
 10
47.80000305175781
 20
22.20002081298844
 30
0.0
  0
VERTEX
  5
BA
330
63
100
AcDbEntity
  8
LAYER_1
 62
   178
100
AcDbVertex
100
AcDb2dVertex
 10
47.80000305175781
 20
21.20002081298844
 30
0.0
  0
VERTEX
  5
BB
330
63
100
AcDbEntity
  8
LAYER_1
 62
   178
100
AcDbVertex
100
AcDb2dVertex
 10
47.60000228881836
 20
20.60002233886735
 30
0.0
  0
VERTEX
  5
BC
330
63
100
AcDbEntity
  8
LAYER_1
 62
   178
100
AcDbVertex
100
AcDb2dVertex
 10
47.60000228881836
 20
20.20002081298844
 30
0.0
  0
VERTEX
  5
BD
330
63
100
AcDbEntity
  8
LAYER_1
 62
   178
100
AcDbVertex
100
AcDb2dVertex
 10
46.70000076293945
 20
20.20002081298844
 30
0.0
  0
VERTEX
  5
BE
330
63
100
AcDbEntity
  8
LAYER_1
 62
   178
100
AcDbVertex
100
AcDb2dVertex
 10
46.20000076293945
 20
20.60002233886735
 30
0.0
  0
VERTEX
  5
BF
330
63
100
AcDbEntity
  8
LAYER_1
 62
   178
100
AcDbVertex
100
AcDb2dVertex
 10
46.29999923706055
 20
20.60002233886735
 30
0.0
  0
VERTEX
  5
C0
330
63
100
AcDbEntity
  8
LAYER_1
 62
   178
100
AcDbVertex
100
AcDb2dVertex
 10
46.29999923706055
 20
19.19999792480485
 30
0.0
  0
VERTEX
  5
C1
330
63
100
AcDbEntity
  8
LAYER_1
 62
   178
100
AcDbVertex
100
AcDb2dVertex
 10
45.89999771118164
 20
19.19999792480485
 30
0.0
  0
VERTEX
  5
C2
330
63
100
AcDbEntity
  8
LAYER_1
 62
   178
100
AcDbVertex
100
AcDb2dVertex
 10
45.49999618530273
 20
19.00000097656266
 30
0.0
  0
VERTEX
  5
C3
330
63
100
AcDbEntity
  8
LAYER_1
 62
   178
100
AcDbVertex
100
AcDb2dVertex
 10
45.09999465942383
 20
18.80000402832047
 30
0.0
  0
VERTEX
  5
C4
330
63
100
AcDbEntity
  8
LAYER_1
 62
   178
100
AcDbVertex
100
AcDb2dVertex
 10
44.69999313354492
 20
18.80000402832047
 30
0.0
  0
VERTEX
  5
C5
330
63
100
AcDbEntity
  8
LAYER_1
 62
   178
100
AcDbVertex
100
AcDb2dVertex
 10
44.19999313354492
 20
19.10000708007829
 30
0.0
  0
VERTEX
  5
C6
330
63
100
AcDbEntity
  8
LAYER_1
 62
   178
100
AcDbVertex
100
AcDb2dVertex
 10
44.19999313354492
 20
19.10000708007829
 30
0.0
  0
VERTEX
  5
C7
330
63
100
AcDbEntity
  8
LAYER_1
 62
   178
100
AcDbVertex
100
AcDb2dVertex
 10
44.19999313354492
 20
20.00000860595719
 30
0.0
  0
VERTEX
  5
C8
330
63
100
AcDbEntity
  8
LAYER_1
 62
   178
100
AcDbVertex
100
AcDb2dVertex
 10
44.69999313354492
 20
20.00000860595719
 30
0.0
  0
VERTEX
  5
C9
330
63
100
AcDbEntity
  8
LAYER_1
 62
   178
100
AcDbVertex
100
AcDb2dVertex
 10
45.09999465942383
 20
20.20000555419938
 30
0.0
  0
VERTEX
  5
CA
330
63
100
AcDbEntity
  8
LAYER_1
 62
   178
100
AcDbVertex
100
AcDb2dVertex
 10
45.49999618530273
 20
20.40000250244157
 30
0.0
  0
VERTEX
  5
CB
330
63
100
AcDbEntity
  8
LAYER_1
 62
   178
100
AcDbVertex
100
AcDb2dVertex
 10
45.0
 20
20.40000250244157
 30
0.0
  0
VERTEX
  5
CC
330
63
100
AcDbEntity
  8
LAYER_1
 62
   178
100
AcDbVertex
100
AcDb2dVertex
 10
44.79999923706055
 20
20.59999945068375
 30
0.0
  0
VERTEX
  5
CD
330
63
100
AcDbEntity
  8
LAYER_1
 62
   178
100
AcDbVertex
100
AcDb2dVertex
 10
44.59999847412109
 20
20.59999945068375
 30
0.0
  0
VERTEX
  5
CE
330
63
100
AcDbEntity
  8
LAYER_1
 62
   178
100
AcDbVertex
100
AcDb2dVertex
 10
44.59999847412109
 20
21.29999639892594
 30
0.0
  0
VERTEX
  5
CF
330
63
100
AcDbEntity
  8
LAYER_1
 62
   178
100
AcDbVertex
100
AcDb2dVertex
 10
44.79999923706055
 20
21.49999334716813
 30
0.0
  0
VERTEX
  5
D0
330
63
100
AcDbEntity
  8
LAYER_1
 62
   178
100
AcDbVertex
100
AcDb2dVertex
 10
45.0
 20
21.69999029541032
 30
0.0
  0
VERTEX
  5
D1
330
63
100
AcDbEntity
  8
LAYER_1
 62
   178
100
AcDbVertex
100
AcDb2dVertex
 10
45.90000152587891
 20
21.69999029541032
 30
0.0
  0
VERTEX
  5
D2
330
63
100
AcDbEntity
  8
LAYER_1
 62
   178
100
AcDbVertex
100
AcDb2dVertex
 10
46.5
 20
21.3999872436525
 30
0.0
  0
VERTEX
  5
D3
330
63
100
AcDbEntity
  8
LAYER_1
 62
   178
100
AcDbVertex
100
AcDb2dVertex
 10
47.90000152587891
 20
21.3999872436525
 30
0.0
  0
VERTEX
  5
D4
330
63
100
AcDbEntity
  8
LAYER_1
 62
   178
100
AcDbVertex
100
AcDb2dVertex
 10
48.20000076293945
 20
21.59998419189469
 30
0.0
  0
VERTEX
  5
D5
330
63
100
AcDbEntity
  8
LAYER_1
 62
   178
100
AcDbVertex
100
AcDb2dVertex
 10
48.79999923706055
 20
21.79998114013688
 30
0.0
  0
VERTEX
  5
D6
330
63
100
AcDbEntity
  8
LAYER_1
 62
   178
100
AcDbVertex
100
AcDb2dVertex
 10
49.0
 20
21.99997808837907
 30
0.0
  0
VERTEX
  5
D7
330
63
100
AcDbEntity
  8
LAYER_1
 62
   178
100
AcDbVertex
100
AcDb2dVertex
 10
49.20000076293945
 20
21.99997808837907
 30
0.0
  0
VERTEX
  5
D8
330
63
100
AcDbEntity
  8
LAYER_1
 62
   178
100
AcDbVertex
100
AcDb2dVertex
 10
48.90000152587891
 20
22.19997503662125
 30
0.0
  0
VERTEX
  5
D9
330
63
100
AcDbEntity
  8
LAYER_1
 62
   178
100
AcDbVertex
100
AcDb2dVertex
 10
48.70000076293945
 20
22.19997503662125
 30
0.0
  0
VERTEX
  5
DA
330
63
100
AcDbEntity
  8
LAYER_1
 62
   178
100
AcDbVertex
100
AcDb2dVertex
 10
48.5
 20
22.39997198486344
 30
0.0
  0
VERTEX
  5
DB
330
63
100
AcDbEntity
  8
LAYER_1
 62
   178
100
AcDbVertex
100
AcDb2dVertex
 10
48.0
 20
22.39997198486344
 30
0.0
  0
VERTEX
  5
DC
330
63
100
AcDbEntity
  8
LAYER_1
 62
   178
100
AcDbVertex
100
AcDb2dVertex
 10
47.70000076293945
 20
22.59996893310563
 30
0.0
  0
VERTEX
  5
DD
330
63
100
AcDbEntity
  8
LAYER_1
 62
   178
100
AcDbVertex
100
AcDb2dVertex
 10
47.40000152587891
 20
22.79996588134782
 30
0.0
  0
VERTEX
  5
DE
330
63
100
AcDbEntity
  8
LAYER_1
 62
   178
100
AcDbVertex
100
AcDb2dVertex
 10
46.20000076293945
 20
22.79996588134782
 30
0.0
  0
VERTEX
  5
DF
330
63
100
AcDbEntity
  8
LAYER_1
 62
   178
100
AcDbVertex
100
AcDb2dVertex
 10
45.70000076293945
 20
22.59996893310563
 30
0.0
  0
VERTEX
  5
E0
330
63
100
AcDbEntity
  8
LAYER_1
 62
   178
100
AcDbVertex
100
AcDb2dVertex
 10
44.70000076293945
 20
22.59996893310563
 30
0.0
  0
VERTEX
  5
E1
330
63
100
AcDbEntity
  8
LAYER_1
 62
   178
100
AcDbVertex
100
AcDb2dVertex
 10
44.5
 20
22.79996588134782
 30
0.0
  0
VERTEX
  5
E2
330
63
100
AcDbEntity
  8
LAYER_1
 62
   178
100
AcDbVertex
100
AcDb2dVertex
 10
44.5
 20
23.59996893310563
 30
0.0
  0
VERTEX
  5
E3
330
63
100
AcDbEntity
  8
LAYER_1
 62
   178
100
AcDbVertex
100
AcDb2dVertex
 10
45.5
 20
23.59996893310563
 30
0.0
  0
VERTEX
  5
E4
330
63
100
AcDbEntity
  8
LAYER_1
 62
   178
100
AcDbVertex
100
AcDb2dVertex
 10
45.20000076293945
 20
23.79996588134782
 30
0.0
  0
VERTEX
  5
E5
330
63
100
AcDbEntity
  8
LAYER_1
 62
   178
100
AcDbVertex
100
AcDb2dVertex
 10
44.90000152587891
 20
23.99996282959
 30
0.0
  0
VERTEX
  5
E6
330
63
100
AcDbEntity
  8
LAYER_1
 62
   178
100
AcDbVertex
100
AcDb2dVertex
 10
44.5
 20
23.99996282959
 30
0.0
  0
VERTEX
  5
E7
330
63
100
AcDbEntity
  8
LAYER_1
 62
   178
100
AcDbVertex
100
AcDb2dVertex
 10
44.5
 20
24.69995977783219
 30
0.0
  0
VERTEX
  5
E8
330
63
100
AcDbEntity
  8
LAYER_1
 62
   178
100
AcDbVertex
100
AcDb2dVertex
 10
44.70000076293945
 20
24.69995977783219
 30
0.0
  0
VERTEX
  5
E9
330
63
100
AcDbEntity
  8
LAYER_1
 62
   178
100
AcDbVertex
100
AcDb2dVertex
 10
45.20000076293945
 20
24.99996282959
 30
0.0
  0
VERTEX
  5
EA
330
63
100
AcDbEntity
  8
LAYER_1
 62
   178
100
AcDbVertex
100
AcDb2dVertex
 10
45.5
 20
24.99996282959
 30
0.0
  0
VERTEX
  5
EB
330
63
100
AcDbEntity
  8
LAYER_1
 62
   178
100
AcDbVertex
100
AcDb2dVertex
 10
46.09999847412109
 20
24.5999613037111
 30
0.0
  0
VERTEX
  5
EC
330
63
100
AcDbEntity
  8
LAYER_1
 62
   178
100
AcDbVertex
100
AcDb2dVertex
 10
46.29999923706055
 20
24.39996435546891
 30
0.0
  0
VERTEX
  5
ED
330
63
100
AcDbEntity
  8
LAYER_1
 62
   178
100
AcDbVertex
100
AcDb2dVertex
 10
46.39999771118164
 20
24.39996435546891
 30
0.0
  0
VERTEX
  5
EE
330
63
100
AcDbEntity
  8
LAYER_1
 62
   178
100
AcDbVertex
100
AcDb2dVertex
 10
46.39999771118164
 20
25.39996435546891
 30
0.0
  0
VERTEX
  5
EF
330
63
100
AcDbEntity
  8
LAYER_1
 62
   178
100
AcDbVertex
100
AcDb2dVertex
 10
46.39999771118164
 20
25.39996435546891
 30
0.0
  0
VERTEX
  5
F0
330
63
100
AcDbEntity
  8
LAYER_1
 62
   178
100
AcDbVertex
100
AcDb2dVertex
 10
46.89999771118164
 20
25.69996740722672
 30
0.0
  0
VERTEX
  5
F1
330
63
100
AcDbEntity
  8
LAYER_1
 62
   178
100
AcDbVertex
100
AcDb2dVertex
 10
47.79999923706055
 20
25.69996740722672
 30
0.0
  0
VERTEX
  5
F2
330
63
100
AcDbEntity
  8
LAYER_1
 62
   178
100
AcDbVertex
100
AcDb2dVertex
 10
47.79999923706055
 20
23.59996893310563
 30
0.0
  0
VERTEX
  5
F3
330
63
100
AcDbEntity
  8
LAYER_1
 62
   178
100
AcDbVertex
100
AcDb2dVertex
 10
48.09999847412109
 20
23.59996893310563
 30
0.0
  0
VERTEX
  5
F4
330
63
100
AcDbEntity
  8
LAYER_1
 62
   178
100
AcDbVertex
100
AcDb2dVertex
 10
48.29999923706055
 20
23.39997198486344
 30
0.0
  0
VERTEX
  5
F5
330
63
100
AcDbEntity
  8
LAYER_1
 62
   178
100
AcDbVertex
100
AcDb2dVertex
 10
48.59999847412109
 20
23.39997198486344
 30
0.0
  0
VERTEX
  5
F6
330
63
100
AcDbEntity
  8
LAYER_1
 62
   178
100
AcDbVertex
100
AcDb2dVertex
 10
49.19999694824219
 20
22.99997045898454
 30
0.0
  0
VERTEX
  5
F7
330
63
100
AcDbEntity
  8
LAYER_1
 62
   178
100
AcDbVertex
100
AcDb2dVertex
 10
49.49999618530273
 20
22.79997351074235
 30
0.0
  0
VERTEX
  5
F8
330
63
100
AcDbEntity
  8
LAYER_1
 62
   178
100
AcDbVertex
100
AcDb2dVertex
 10
49.69999694824219
 20
22.59997656250016
 30
0.0
  0
VERTEX
  5
F9
330
63
100
AcDbEntity
  8
LAYER_1
 62
   178
100
AcDbVertex
100
AcDb2dVertex
 10
50.19999694824219
 20
22.59997656250016
 30
0.0
  0
VERTEX
  5
FA
330
63
100
AcDbEntity
  8
LAYER_1
 62
   178
100
AcDbVertex
100
AcDb2dVertex
 10
50.19999694824219
 20
24.69997503662125
 30
0.0
  0
VERTEX
  5
FB
330
63
100
AcDbEntity
  8
LAYER_1
 62
   178
100
AcDbVertex
100
AcDb2dVertex
 10
49.69999694824219
 20
24.69997503662125
 30
0.0
  0
VERTEX
  5
FC
330
63
100
AcDbEntity
  8
LAYER_1
 62
   178
100
AcDbVertex
100
AcDb2dVertex
 10
48.89999771118164
 20
25.49997808837907
 30
0.0
  0
VERTEX
  5
FD
330
63
100
AcDbEntity
  8
LAYER_1
 62
   178
100
AcDbVertex
100
AcDb2dVertex
 10
48.69999694824219
 20
25.69997503662125
 30
0.0
  0
VERTEX
  5
FE
330
63
100
AcDbEntity
  8
LAYER_1
 62
   178
100
AcDbVertex
100
AcDb2dVertex
 10
48.39999771118164
 20
25.69997503662125
 30
0.0
  0
VERTEX
  5
FF
330
63
100
AcDbEntity
  8
LAYER_1
 62
   178
100
AcDbVertex
100
AcDb2dVertex
 10
48.39999771118164
 20
26.29997351074235
 30
0.0
  0
VERTEX
  5
100
330
63
100
AcDbEntity
  8
LAYER_1
 62
   178
100
AcDbVertex
100
AcDb2dVertex
 10
49.49999618530273
 20
26.29997351074235
 30
0.0
  0
VERTEX
  5
101
330
63
100
AcDbEntity
  8
LAYER_1
 62
   178
100
AcDbVertex
100
AcDb2dVertex
 10
49.69999694824219
 20
26.09997656250016
 30
0.0
  0
VERTEX
  5
102
330
63
100
AcDbEntity
  8
LAYER_1
 62
   178
100
AcDbVertex
100
AcDb2dVertex
 10
49.89999771118164
 20
25.89997961425797
 30
0.0
  0
VERTEX
  5
103
330
63
100
AcDbEntity
  8
LAYER_1
 62
   178
100
AcDbVertex
100
AcDb2dVertex
 10
50.09999847412109
 20
25.69998266601579
 30
0.0
  0
VERTEX
  5
104
330
63
100
AcDbEntity
  8
LAYER_1
 62
   178
100
AcDbVertex
100
AcDb2dVertex
 10
50.19999694824219
 20
25.69998266601579
 30
0.0
  0
VERTEX
  5
105
330
63
100
AcDbEntity
  8
LAYER_1
 62
   178
100
AcDbVertex
100
AcDb2dVertex
 10
50.19999694824219
 20
29.39999487304704
 30
0.0
  0
VERTEX
  5
106
330
63
100
AcDbEntity
  8
LAYER_1
 62
   178
100
AcDbVertex
100
AcDb2dVertex
 10
51.19999694824219
 20
29.39999487304704
 30
0.0
  0
VERTEX
  5
107
330
63
100
AcDbEntity
  8
LAYER_1
 62
   178
100
AcDbVertex
100
AcDb2dVertex
 10
51.59999847412109
 20
29.09999182128922
 30
0.0
  0
VERTEX
  5
108
330
63
100
AcDbEntity
  8
LAYER_1
 62
   178
100
AcDbVertex
100
AcDb2dVertex
 10
51.59999847412109
 20
29.09999182128922
 30
0.0
  0
VERTEX
  5
109
330
63
100
AcDbEntity
  8
LAYER_1
 62
   178
100
AcDbVertex
100
AcDb2dVertex
 10
51.59999847412109
 20
28.89999487304704
 30
0.0
  0
VERTEX
  5
10A
330
63
100
AcDbEntity
  8
LAYER_1
 62
   178
100
AcDbVertex
100
AcDb2dVertex
 10
51.59999847412109
 20
28.89999487304704
 30
0.0
  0
VERTEX
  5
10B
330
63
100
AcDbEntity
  8
LAYER_1
 62
   178
100
AcDbVertex
100
AcDb2dVertex
 10
51.59999847412109
 20
27.59999182128922
 30
0.0
  0
VERTEX
  5
10C
330
63
100
AcDbEntity
  8
LAYER_1
 62
   178
100
AcDbVertex
100
AcDb2dVertex
 10
51.79999923706055
 20
27.59999182128922
 30
0.0
  0
VERTEX
  5
10D
330
63
100
AcDbEntity
  8
LAYER_1
 62
   178
100
AcDbVertex
100
AcDb2dVertex
 10
52.09999847412109
 20
27.79998876953141
 30
0.0
  0
VERTEX
  5
10E
330
63
100
AcDbEntity
  8
LAYER_1
 62
   178
100
AcDbVertex
100
AcDb2dVertex
 10
52.29999923706055
 20
27.9999857177736
 30
0.0
  0
VERTEX
  5
10F
330
63
100
AcDbEntity
  8
LAYER_1
 62
   178
100
AcDbVertex
100
AcDb2dVertex
 10
53.29999923706055
 20
27.9999857177736
 30
0.0
  0
VERTEX
  5
110
330
63
100
AcDbEntity
  8
LAYER_1
 62
   178
100
AcDbVertex
100
AcDb2dVertex
 10
53.29999923706055
 20
27.29998876953141
 30
0.0
  0
VERTEX
  5
111
330
63
100
AcDbEntity
  8
LAYER_1
 62
   178
100
AcDbVertex
100
AcDb2dVertex
 10
53.0
 20
27.29998876953141
 30
0.0
  0
VERTEX
  5
112
330
63
100
AcDbEntity
  8
LAYER_1
 62
   178
100
AcDbVertex
100
AcDb2dVertex
 10
52.79999923706055
 20
27.09999182128922
 30
0.0
  0
VERTEX
  5
113
330
63
100
AcDbEntity
  8
LAYER_1
 62
   178
100
AcDbVertex
100
AcDb2dVertex
 10
52.5
 20
27.09999182128922
 30
0.0
  0
VERTEX
  5
114
330
63
100
AcDbEntity
  8
LAYER_1
 62
   178
100
AcDbVertex
100
AcDb2dVertex
 10
52.0
 20
26.69999029541032
 30
0.0
  0
VERTEX
  5
115
330
63
100
AcDbEntity
  8
LAYER_1
 62
   178
100
AcDbVertex
100
AcDb2dVertex
 10
51.79999923706055
 20
26.69999029541032
 30
0.0
  0
VERTEX
  5
116
330
63
100
AcDbEntity
  8
LAYER_1
 62
   178
100
AcDbVertex
100
AcDb2dVertex
 10
51.59999847412109
 20
26.49999334716813
 30
0.0
  0
VERTEX
  5
117
330
63
100
AcDbEntity
  8
LAYER_1
 62
   178
100
AcDbVertex
100
AcDb2dVertex
 10
51.39999771118164
 20
26.49999334716813
 30
0.0
  0
VERTEX
  5
118
330
63
100
AcDbEntity
  8
LAYER_1
 62
   178
100
AcDbVertex
100
AcDb2dVertex
 10
51.39999771118164
 20
26.29999639892594
 30
0.0
  0
VERTEX
  5
119
330
63
100
AcDbEntity
  8
LAYER_1
 62
   178
100
AcDbVertex
100
AcDb2dVertex
 10
51.39999771118164
 20
26.29999639892594
 30
0.0
  0
VERTEX
  5
11A
330
63
100
AcDbEntity
  8
LAYER_1
 62
   178
100
AcDbVertex
100
AcDb2dVertex
 10
51.39999771118164
 20
24.39999487304704
 30
0.0
  0
VERTEX
  5
11B
330
63
100
AcDbEntity
  8
LAYER_1
 62
   178
100
AcDbVertex
100
AcDb2dVertex
 10
51.89999771118164
 20
24.39999487304704
 30
0.0
  0
VERTEX
  5
11C
330
63
100
AcDbEntity
  8
LAYER_1
 62
   178
100
AcDbVertex
100
AcDb2dVertex
 10
52.19999694824219
 20
24.59999182128922
 30
0.0
  0
VERTEX
  5
11D
330
63
100
AcDbEntity
  8
LAYER_1
 62
   178
100
AcDbVertex
100
AcDb2dVertex
 10
52.79999542236328
 20
24.89999487304704
 30
0.0
  0
VERTEX
  5
11E
330
63
100
AcDbEntity
  8
LAYER_1
 62
   178
100
AcDbVertex
100
AcDb2dVertex
 10
53.09999465942383
 20
25.09999182128922
 30
0.0
  0
VERTEX
  5
11F
330
63
100
AcDbEntity
  8
LAYER_1
 62
   178
100
AcDbVertex
100
AcDb2dVertex
 10
53.79999542236328
 20
25.09999182128922
 30
0.0
  0
VERTEX
  5
120
330
63
100
AcDbEntity
  8
LAYER_1
 62
   178
100
AcDbVertex
100
AcDb2dVertex
 10
53.79999542236328
 20
26.89999487304704
 30
0.0
  0
VERTEX
  5
121
330
63
100
AcDbEntity
  8
LAYER_1
 62
   178
100
AcDbVertex
100
AcDb2dVertex
 10
54.99999618530273
 20
26.89999487304704
 30
0.0
  0
VERTEX
  5
122
330
63
100
AcDbEntity
  8
LAYER_1
 62
   178
100
AcDbVertex
100
AcDb2dVertex
 10
55.19999694824219
 20
26.69999792480485
 30
0.0
  0
VERTEX
  5
123
330
63
100
AcDbEntity
  8
LAYER_1
 62
   178
100
AcDbVertex
100
AcDb2dVertex
 10
55.19999694824219
 20
26.69999792480485
 30
0.0
  0
VERTEX
  5
124
330
63
100
AcDbEntity
  8
LAYER_1
 62
   178
100
AcDbVertex
100
AcDb2dVertex
 10
55.19999694824219
 20
25.79999639892594
 30
0.0
  0
VERTEX
  5
125
330
63
100
AcDbEntity
  8
LAYER_1
 62
   178
100
AcDbVertex
100
AcDb2dVertex
 10
56.0
 20
25.79999639892594
 30
0.0
  0
VERTEX
  5
126
330
63
100
AcDbEntity
  8
LAYER_1
 62
   178
100
AcDbVertex
100
AcDb2dVertex
 10
56.59999847412109
 20
26.09999945068375
 30
0.0
  0
VERTEX
  5
127
330
63
100
AcDbEntity
  8
LAYER_1
 62
   178
100
AcDbVertex
100
AcDb2dVertex
 10
57.19999694824219
 20
26.09999945068375
 30
0.0
  0
VERTEX
  5
128
330
63
100
AcDbEntity
  8
LAYER_1
 62
   178
100
AcDbVertex
100
AcDb2dVertex
 10
57.39999771118164
 20
25.90000250244157
 30
0.0
  0
VERTEX
  5
129
330
63
100
AcDbEntity
  8
LAYER_1
 62
   178
100
AcDbVertex
100
AcDb2dVertex
 10
57.59999847412109
 20
25.90000250244157
 30
0.0
  0
VERTEX
  5
12A
330
63
100
AcDbEntity
  8
LAYER_1
 62
   178
100
AcDbVertex
100
AcDb2dVertex
 10
57.59999847412109
 20
25.40000250244157
 30
0.0
  0
VERTEX
  5
12B
330
63
100
AcDbEntity
  8
LAYER_1
 62
   178
100
AcDbVertex
100
AcDb2dVertex
 10
57.59999847412109
 20
25.19999792480485
 30
0.0
  0
SEQEND
  5
12C
330
63
100
AcDbEntity
  8
LAYER_1
 62
   178
  0
SPLINE
  5
12D
330
1F
100
AcDbEntity
  8
LAYER_1
 62
   178
100
AcDbSpline
210
0.0
220
0.0
230
1.0
 70
    11
 71
     3
 72
   398
 73
   394
 74
     0
 42
0.0000000001
 43
0.0000000001
 12
1.0
 22
0.0
 32
0.0
 13
1.0
 23
0.0
 33
0.0
 40
0.0
 40
0.0
 40
0.0
 40
0.0
 40
1.0
 40
1.0
 40
1.0
 40
2.0
 40
2.0
 40
2.0
 40
3.0
 40
3.0
 40
3.0
 40
4.0
 40
4.0
 40
4.0
 40
5.0
 40
5.0
 40
5.0
 40
6.0
 40
6.0
 40
6.0
 40
7.0
 40
7.0
 40
7.0
 40
8.0
 40
8.0
 40
8.0
 40
9.0
 40
9.0
 40
9.0
 40
10.0
 40
10.0
 40
10.0
 40
11.0
 40
11.0
 40
11.0
 40
12.0
 40
12.0
 40
12.0
 40
13.0
 40
13.0
 40
13.0
 40
14.0
 40
14.0
 40
14.0
 40
15.0
 40
15.0
 40
15.0
 40
16.0
 40
16.0
 40
16.0
 40
17.0
 40
17.0
 40
17.0
 40
18.0
 40
18.0
 40
18.0
 40
19.0
 40
19.0
 40
19.0
 40
20.0
 40
20.0
 40
20.0
 40
21.0
 40
21.0
 40
21.0
 40
22.0
 40
22.0
 40
22.0
 40
23.0
 40
23.0
 40
23.0
 40
24.0
 40
24.0
 40
24.0
 40
25.0
 40
25.0
 40
25.0
 40
26.0
 40
26.0
 40
26.0
 40
27.0
 40
27.0
 40
27.0
 40
28.0
 40
28.0
 40
28.0
 40
29.0
 40
29.0
 40
29.0
 40
30.0
 40
30.0
 40
30.0
 40
31.0
 40
31.0
 40
31.0
 40
32.0
 40
32.0
 40
32.0
 40
33.0
 40
33.0
 40
33.0
 40
34.0
 40
34.0
 40
34.0
 40
35.0
 40
35.0
 40
35.0
 40
36.0
 40
36.0
 40
36.0
 40
37.0
 40
37.0
 40
37.0
 40
38.0
 40
38.0
 40
38.0
 40
39.0
 40
39.0
 40
39.0
 40
40.0
 40
40.0
 40
40.0
 40
41.0
 40
41.0
 40
41.0
 40
42.0
 40
42.0
 40
42.0
 40
43.0
 40
43.0
 40
43.0
 40
44.0
 40
44.0
 40
44.0
 40
45.0
 40
45.0
 40
45.0
 40
46.0
 40
46.0
 40
46.0
 40
47.0
 40
47.0
 40
47.0
 40
48.0
 40
48.0
 40
48.0
 40
49.0
 40
49.0
 40
49.0
 40
50.0
 40
50.0
 40
50.0
 40
51.0
 40
51.0
 40
51.0
 40
52.0
 40
52.0
 40
52.0
 40
53.0
 40
53.0
 40
53.0
 40
54.0
 40
54.0
 40
54.0
 40
55.0
 40
55.0
 40
55.0
 40
56.0
 40
56.0
 40
56.0
 40
57.0
 40
57.0
 40
57.0
 40
58.0
 40
58.0
 40
58.0
 40
59.0
 40
59.0
 40
59.0
 40
60.0
 40
60.0
 40
60.0
 40
61.0
 40
61.0
 40
61.0
 40
62.0
 40
62.0
 40
62.0
 40
63.0
 40
63.0
 40
63.0
 40
64.0
 40
64.0
 40
64.0
 40
65.0
 40
65.0
 40
65.0
 40
66.0
 40
66.0
 40
66.0
 40
67.0
 40
67.0
 40
67.0
 40
68.0
 40
68.0
 40
68.0
 40
69.0
 40
69.0
 40
69.0
 40
70.0
 40
70.0
 40
70.0
 40
71.0
 40
71.0
 40
71.0
 40
72.0
 40
72.0
 40
72.0
 40
73.0
 40
73.0
 40
73.0
 40
74.0
 40
74.0
 40
74.0
 40
75.0
 40
75.0
 40
75.0
 40
76.0
 40
76.0
 40
76.0
 40
77.0
 40
77.0
 40
77.0
 40
78.0
 40
78.0
 40
78.0
 40
79.0
 40
79.0
 40
79.0
 40
80.0
 40
80.0
 40
80.0
 40
81.0
 40
81.0
 40
81.0
 40
82.0
 40
82.0
 40
82.0
 40
83.0
 40
83.0
 40
83.0
 40
84.0
 40
84.0
 40
84.0
 40
85.0
 40
85.0
 40
85.0
 40
86.0
 40
86.0
 40
86.0
 40
87.0
 40
87.0
 40
87.0
 40
88.0
 40
88.0
 40
88.0
 40
89.0
 40
89.0
 40
89.0
 40
90.0
 40
90.0
 40
90.0
 40
91.0
 40
91.0
 40
91.0
 40
92.0
 40
92.0
 40
92.0
 40
93.0
 40
93.0
 40
93.0
 40
94.0
 40
94.0
 40
94.0
 40
95.0
 40
95.0
 40
95.0
 40
96.0
 40
96.0
 40
96.0
 40
97.0
 40
97.0
 40
97.0
 40
98.0
 40
98.0
 40
98.0
 40
99.0
 40
99.0
 40
99.0
 40
100.0
 40
100.0
 40
100.0
 40
101.0
 40
101.0
 40
101.0
 40
102.0
 40
102.0
 40
102.0
 40
103.0
 40
103.0
 40
103.0
 40
104.0
 40
104.0
 40
104.0
 40
105.0
 40
105.0
 40
105.0
 40
106.0
 40
106.0
 40
106.0
 40
107.0
 40
107.0
 40
107.0
 40
108.0
 40
108.0
 40
108.0
 40
109.0
 40
109.0
 40
109.0
 40
110.0
 40
110.0
 40
110.0
 40
111.0
 40
111.0
 40
111.0
 40
112.0
 40
112.0
 40
112.0
 40
113.0
 40
113.0
 40
113.0
 40
114.0
 40
114.0
 40
114.0
 40
115.0
 40
115.0
 40
115.0
 40
116.0
 40
116.0
 40
116.0
 40
117.0
 40
117.0
 40
117.0
 40
118.0
 40
118.0
 40
118.0
 40
119.0
 40
119.0
 40
119.0
 40
120.0
 40
120.0
 40
120.0
 40
121.0
 40
121.0
 40
121.0
 40
122.0
 40
122.0
 40
122.0
 40
123.0
 40
123.0
 40
123.0
 40
124.0
 40
124.0
 40
124.0
 40
125.0
 40
125.0
 40
125.0
 40
126.0
 40
126.0
 40
126.0
 40
127.0
 40
127.0
 40
127.0
 40
128.0
 40
128.0
 40
128.0
 40
129.0
 40
129.0
 40
129.0
 40
130.0
 40
130.0
 40
130.0
 40
131.0
 40
131.0
 40
131.0
 40
131.0
 10
86.9000015258789
 20
46.39999487304704
 30
0.0
 10
86.91044616699219
 20
35.33591558837907
 30
0.0
 10
82.3939437866211
 20
24.749230407715
 30
0.0
 10
74.4000015258789
 20
17.09999182128922
 30
0.0
 10
62.10000228881836
 20
28.69999029541032
 30
0.0
 10
62.10000228881836
 20
28.69999029541032
 30
0.0
 10
62.30000305175781
 20
30.09999182128922
 30
0.0
 10
62.49024963378906
 20
30.95694067382829
 30
0.0
 10
62.62387466430664
 20
31.82548620605485
 30
0.0
 10
62.70000457763672
 20
32.69999029541032
 30
0.0
 10
63.7695198059082
 20
33.41347601318375
 30
0.0
 10
64.90869140625
 20
34.01657202148454
 30
0.0
 10
66.10000610351562
 20
34.49999334716813
 30
0.0
 10
66.10000610351562
 20
34.49999334716813
 30
0.0
 10
66.40000915527344
 20
34.59999182128922
 30
0.0
 10
70.50000762939453
 20
31.69999029541032
 30
0.0
 10
70.50000762939453
 20
31.69999029541032
 30
0.0
 10
71.70000457763672
 20
34.8999872436525
 30
0.0
 10
71.70000457763672
 20
34.8999872436525
 30
0.0
 10
67.80000305175781
 20
35.29998876953141
 30
0.0
 10
68.10000610351562
 20
35.3999872436525
 30
0.0
 10
68.10000610351562
 20
35.3999872436525
 30
0.0
 10
70.00000762939453
 20
36.4999857177736
 30
0.0
 10
71.50000762939453
 20
37.4999857177736
 30
0.0
 10
70.80000305175781
 20
38.19999029541032
 30
0.0
 10
70.0999984741211
 20
38.89999487304704
 30
0.0
 10
69.9000015258789
 20
39.09999182128922
 30
0.0
 10
67.60000610351562
 20
38.09999182128922
 30
0.0
 10
67.60000610351562
 20
38.09999182128922
 30
0.0
 10
65.40000915527344
 20
36.99999334716813
 30
0.0
 10
65.40000915527344
 20
36.99999334716813
 30
0.0
 10
65.00000762939453
 20
40.39999487304704
 30
0.0
 10
63.50000762939453
 20
39.89999487304704
 30
0.0
 10
63.50000762939453
 20
39.89999487304704
 30
0.0
 10
61.90000915527344
 20
39.49999334716813
 30
0.0
 10
64.50000762939453
 20
36.39999487304704
 30
0.0
 10
64.30001068115234
 20
36.29999639892594
 30
0.0
 10
64.30001068115234
 20
36.29999639892594
 30
0.0
 10
62.5000114440918
 20
35.29999639892594
 30
0.0
 10
62.5000114440918
 20
35.29999639892594
 30
0.0
 10
62.4495849609375
 20
35.9072122802736
 30
0.0
 10
62.34924697875977
 20
36.50924780273454
 30
0.0
 10
62.20001220703125
 20
37.09999945068375
 30
0.0
 10
61.44222640991211
 20
38.21938421630875
 30
0.0
 10
60.53366470336914
 20
39.22889807128922
 30
0.0
 10
59.5000114440918
 20
40.09999945068375
 30
0.0
 10
61.9000129699707
 20
43.00000097656266
 30
0.0
 10
61.80001068115234
 20
45.50000097656266
 30
0.0
 10
59.5000114440918
 20
47.90000250244157
 30
0.0
 10
59.5000114440918
 20
47.90000250244157
 30
0.0
 10
59.5000114440918
 20
48.40000250244157
 30
0.0
 10
62.80001068115234
 20
47.30000402832047
 30
0.0
 10
62.80001068115234
 20
47.30000402832047
 30
0.0
 10
62.80001068115234
 20
51.00000097656266
 30
0.0
 10
62.80001068115234
 20
51.00000097656266
 30
0.0
 10
58.10000991821289
 20
50.50000097656266
 30
0.0
 10
58.10000991821289
 20
51.09999945068375
 30
0.0
 10
58.10000991821289
 20
51.09999945068375
 30
0.0
 10
59.90000915527344
 20
54.50000097656266
 30
0.0
 10
61.10000991821289
 20
56.50000097656266
 30
0.0
 10
60.60000991821289
 20
57.59999945068375
 30
0.0
 10
60.10000991821289
 20
58.69999792480485
 30
0.0
 10
60.10000991821289
 20
58.90000250244157
 30
0.0
 10
57.60000991821289
 20
58.90000250244157
 30
0.0
 10
57.60000991821289
 20
58.90000250244157
 30
0.0
 10
55.5
 20
58.90000250244157
 30
0.0
 10
55.5
 20
58.90000250244157
 30
0.0
 10
55.5
 20
58.90000250244157
 30
0.0
 10
57.20000076293945
 20
65.60000326538102
 30
0.0
 10
57.20000076293945
 20
65.60000326538102
 30
0.0
 10
57.44862747192383
 20
66.8737764587404
 30
0.0
 10
57.92273712158203
 20
68.09291555786149
 30
0.0
 10
58.59999847412109
 20
69.19999792480485
 30
0.0
 10
59.09999847412109
 20
69.9999971618654
 30
0.0
 10
59.59999847412109
 20
70.29999639892594
 30
0.0
 10
60.0
 20
70.29999639892594
 30
0.0
 10
60.40000152587891
 20
70.29999639892594
 30
0.0
 10
60.59999847412109
 20
69.9999971618654
 30
0.0
 10
60.70000076293945
 20
69.29999639892594
 30
0.0
 10
60.87410736083984
 20
68.09866812133805
 30
0.0
 10
60.80610656738281
 20
66.87464620971696
 30
0.0
 10
60.5
 20
65.69999792480485
 30
0.0
 10
60.28231048583984
 20
64.55792715454118
 30
0.0
 10
59.8404655456543
 20
63.47031500244157
 30
0.0
 10
59.20000076293945
 20
62.49999716186539
 30
0.0
 10
59.20000076293945
 20
62.49999716186539
 30
0.0
 10
58.10000228881836
 20
62.8999986877443
 30
0.0
 10
58.10000228881836
 20
62.8999986877443
 30
0.0
 10
57.79886245727539
 20
62.85112097167985
 30
0.0
 10
57.5197868347168
 20
62.71158316040055
 30
0.0
 10
57.30000305175781
 20
62.49999716186539
 30
0.0
 10
57.09077072143555
 20
62.25045874023454
 30
0.0
 10
57.01615142822266
 20
61.91466619873063
 30
0.0
 10
57.10000228881836
 20
61.59999945068375
 30
0.0
 10
57.07213592529297
 20
61.27153112792985
 30
0.0
 10
57.18062591552734
 20
60.94605352783219
 30
0.0
 10
57.40000152587891
 20
60.69999792480485
 30
0.0
 10
57.40000152587891
 20
60.69999792480485
 30
0.0
 10
58.10000228881836
 20
60.39999487304704
 30
0.0
 10
58.10000228881836
 20
60.39999487304704
 30
0.0
 10
58.32095336914062
 20
60.29249670410172
 30
0.0
 10
58.57905197143555
 20
60.29249670410172
 30
0.0
 10
58.80000305175781
 20
60.39999487304704
 30
0.0
 10
58.80000305175781
 20
60.39999487304704
 30
0.0
 10
62.40000152587891
 20
60.39999487304704
 30
0.0
 10
62.40000152587891
 20
60.39999487304704
 30
0.0
 10
62.40000152587891
 20
60.39999487304704
 30
0.0
 10
63.40000152587891
 20
60.79999639892594
 30
0.0
 10
63.40000152587891
 20
60.79999639892594
 30
0.0
 10
63.40000152587891
 20
60.79999639892594
 30
0.0
 10
64.20000457763672
 20
61.49999334716813
 30
0.0
 10
64.20000457763672
 20
61.49999334716813
 30
0.0
 10
64.20000457763672
 20
61.49999334716813
 30
0.0
 10
64.9000015258789
 20
62.59999182128922
 30
0.0
 10
64.9000015258789
 20
62.59999182128922
 30
0.0
 10
64.9000015258789
 20
62.59999182128922
 30
0.0
 10
65.4000015258789
 20
63.69999029541032
 30
0.0
 10
65.4000015258789
 20
63.69999029541032
 30
0.0
 10
65.5464859008789
 20
62.95520880126969
 30
0.0
 10
65.8920669555664
 20
62.26404669189469
 30
0.0
 10
66.4000015258789
 20
61.69999029541032
 30
0.0
 10
66.97627258300781
 20
60.97805883789079
 30
0.0
 10
67.8816146850586
 20
60.60083105468766
 30
0.0
 10
68.80000305175781
 20
60.69999029541032
 30
0.0
 10
68.80000305175781
 20
60.69999029541032
 30
0.0
 10
69.80000305175781
 20
60.69999029541032
 30
0.0
 10
69.80000305175781
 20
60.69999029541032
 30
0.0
 10
69.80000305175781
 20
60.69999029541032
 30
0.0
 10
70.9000015258789
 20
61.09999182128922
 30
0.0
 10
70.9000015258789
 20
61.09999182128922
 30
0.0
 10
71.39164733886719
 20
61.30552008056657
 30
0.0
 10
71.83456420898438
 20
61.61216070556657
 30
0.0
 10
72.20000457763672
 20
61.99999334716813
 30
0.0
 10
72.63257598876953
 20
62.50810339355485
 30
0.0
 10
73.03334045410156
 20
63.0424547424318
 30
0.0
 10
73.4000015258789
 20
63.59999182128922
 30
0.0
 10
73.4000015258789
 20
63.59999182128922
 30
0.0
 10
74.20000457763672
 20
65.19999029541032
 30
0.0
 10
74.20000457763672
 20
65.19999029541032
 30
0.0
 10
74.20000457763672
 20
65.19999029541032
 30
0.0
 10
74.20000457763672
 20
65.19999029541032
 30
0.0
 10
74.20000457763672
 20
65.19999029541032
 30
0.0
 10
75.20000457763672
 20
67.86665441894547
 30
0.0
 10
75.9000015258789
 20
69.86665441894547
 30
0.0
 10
76.30000305175781
 20
71.19999029541032
 30
0.0
 10
76.70000457763672
 20
70.89999105834977
 30
0.0
 10
77.0
 20
70.59999182128922
 30
0.0
 10
77.0
 20
70.29998876953141
 30
0.0
 10
77.107177734375
 20
70.11435034179704
 30
0.0
 10
77.107177734375
 20
69.88562872314469
 30
0.0
 10
77.0
 20
69.69999029541032
 30
0.0
 10
76.51551055908203
 20
68.29940512084977
 30
0.0
 10
76.14759063720703
 20
66.86117651367204
 30
0.0
 10
75.9000015258789
 20
65.39999105834977
 30
0.0
 10
75.72337341308594
 20
64.64629080200211
 30
0.0
 10
75.689453125
 20
63.86617758178727
 30
0.0
 10
75.80000305175781
 20
63.09999182128922
 30
0.0
 10
75.87711334228516
 20
62.49125006103532
 30
0.0
 10
76.1592788696289
 20
61.92692663574235
 30
0.0
 10
76.60000610351562
 20
61.49999334716813
 30
0.0
 10
76.96926879882812
 20
61.12316229248063
 30
0.0
 10
77.47246551513672
 20
60.90750982666032
 30
0.0
 10
78.00000762939453
 20
60.89999487304704
 30
0.0
 10
78.00000762939453
 20
60.89999487304704
 30
0.0
 10
78.60000610351562
 20
60.89999487304704
 30
0.0
 10
78.60000610351562
 20
60.89999487304704
 30
0.0
 10
78.70000457763672
 20
60.79999639892594
 30
0.0
 10
78.70000457763672
 20
60.69999792480485
 30
0.0
 10
78.90000915527344
 20
60.69999792480485
 30
0.0
 10
78.90000915527344
 20
60.69999792480485
 30
0.0
 10
78.90000915527344
 20
57.39999487304704
 30
0.0
 10
78.90000915527344
 20
57.39999487304704
 30
0.0
 10
78.90000915527344
 20
57.39999487304704
 30
0.0
 10
76.80001068115234
 20
59.99999334716813
 30
0.0
 10
76.80001068115234
 20
59.99999334716813
 30
0.0
 10
76.80001068115234
 20
59.99999334716813
 30
0.0
 10
76.30001068115234
 20
59.99999334716813
 30
0.0
 10
76.30001068115234
 20
59.99999334716813
 30
0.0
 10
76.17411041259766
 20
59.90556433105485
 30
0.0
 10
76.10001373291016
 20
59.75737097167985
 30
0.0
 10
76.10001373291016
 20
59.59999182128922
 30
0.0
 10
76.10001373291016
 20
59.59999182128922
 30
0.0
 10
76.40001678466797
 20
56.29998876953141
 30
0.0
 10
76.40001678466797
 20
56.29998876953141
 30
0.0
 10
76.40001678466797
 20
56.29998876953141
 30
0.0
 10
74.10001373291016
 20
58.59999182128922
 30
0.0
 10
74.10001373291016
 20
58.59999182128922
 30
0.0
 10
74.10001373291016
 20
58.59999182128922
 30
0.0
 10
74.10001373291016
 20
58.59999182128922
 30
0.0
 10
74.10001373291016
 20
58.59999182128922
 30
0.0
 10
74.10001373291016
 20
58.59999182128922
 30
0.0
 10
74.10001373291016
 20
58.99999334716813
 30
0.0
 10
74.10001373291016
 20
58.99999334716813
 30
0.0
 10
74.10001373291016
 20
59.15737249755875
 30
0.0
 10
74.02591705322266
 20
59.30556585693375
 30
0.0
 10
73.90001678466797
 20
59.39999487304704
 30
0.0
 10
73.59151458740234
 20
59.69206335449235
 30
0.0
 10
73.1085205078125
 20
59.69206335449235
 30
0.0
 10
72.80001831054688
 20
59.39999487304704
 30
0.0
 10
72.59078979492188
 20
59.15045263671891
 30
0.0
 10
72.51616668701172
 20
58.814660095215
 30
0.0
 10
72.60002136230469
 20
58.49999334716813
 30
0.0
 10
72.60002136230469
 20
58.49999334716813
 30
0.0
 10
72.80001831054688
 20
58.29999639892594
 30
0.0
 10
72.80001831054688
 20
58.29999639892594
 30
0.0
 10
73.00914001464844
 20
58.0904398193361
 30
0.0
 10
73.31688690185547
 20
58.01350500488297
 30
0.0
 10
73.60002136230469
 20
58.09999945068375
 30
0.0
 10
73.60002136230469
 20
58.09999945068375
 30
0.0
 10
73.60002136230469
 20
58.09999945068375
 30
0.0
 10
73.60002136230469
 20
58.09999945068375
 30
0.0
 10
73.60002136230469
 20
58.09999945068375
 30
0.0
 10
75.9000015258789
 20
56.19999792480485
 30
0.0
 10
75.9000015258789
 20
56.19999792480485
 30
0.0
 10
75.9000015258789
 20
56.19999792480485
 30
0.0
 10
72.5999984741211
 20
56.50000097656266
 30
0.0
 10
72.5999984741211
 20
56.50000097656266
 30
0.0
 10
72.5999984741211
 20
56.50000097656266
 30
0.0
 10
72.19999694824219
 20
56.30000402832047
 30
0.0
 10
72.19999694824219
 20
56.30000402832047
 30
0.0
 10
72.19999694824219
 20
56.30000402832047
 30
0.0
 10
72.19999694824219
 20
56.30000402832047
 30
0.0
 10
72.19999694824219
 20
56.30000402832047
 30
0.0
 10
72.10901641845703
 20
56.13093664550797
 30
0.0
 10
72.15098571777344
 20
55.92107489013688
 30
0.0
 10
72.29999542236328
 20
55.80000402832047
 30
0.0
 10
72.29999542236328
 20
55.80000402832047
 30
0.0
 10
74.89999389648438
 20
53.70000555419938
 30
0.0
 10
74.89999389648438
 20
53.70000555419938
 30
0.0
 10
74.89999389648438
 20
53.70000555419938
 30
0.0
 10
71.5999984741211
 20
53.70000555419938
 30
0.0
 10
71.5999984741211
 20
53.70000555419938
 30
0.0
 10
71.47457885742188
 20
53.96781256103532
 30
0.0
 10
71.19440460205078
 20
54.1279154052736
 30
0.0
 10
70.9000015258789
 20
54.10000708007829
 30
0.0
 10
70.49445343017578
 20
54.10318853759782
 30
0.0
 10
70.15068054199219
 20
53.80239202880875
 30
0.0
 10
70.0999984741211
 20
53.4000101318361
 30
0.0
 10
70.0999984741211
 20
52.95818426513688
 30
0.0
 10
70.45816802978516
 20
52.60000708007829
 30
0.0
 10
70.89999389648438
 20
52.60000708007829
 30
0.0
 10
70.89999389648438
 20
52.60000708007829
 30
0.0
 10
70.9000015258789
 20
52.60000708007829
 30
0.0
 10
70.9000015258789
 20
52.60000708007829
 30
0.0
 10
71.1883773803711
 20
52.59742834472672
 30
0.0
 10
71.45581817626953
 20
52.75025274658219
 30
0.0
 10
71.5999984741211
 20
53.00000860595719
 30
0.0
 10
71.5999984741211
 20
53.00000860595719
 30
0.0
 10
74.9000015258789
 20
53.00000860595719
 30
0.0
 10
74.9000015258789
 20
53.00000860595719
 30
0.0
 10
74.9000015258789
 20
53.00000860595719
 30
0.0
 10
72.30000305175781
 20
50.9000101318361
 30
0.0
 10
72.30000305175781
 20
50.9000101318361
 30
0.0
 10
72.20000457763672
 20
50.800011657715
 30
0.0
 10
72.10000610351562
 20
50.60000708007829
 30
0.0
 10
72.20000457763672
 20
50.50000860595719
 30
0.0
 10
72.20000457763672
 20
50.50000860595719
 30
0.0
 10
72.20000457763672
 20
50.50000860595719
 30
0.0
 10
72.20000457763672
 20
50.50000860595719
 30
0.0
 10
72.30000305175781
 20
50.300011657715
 30
0.0
 10
72.4000015258789
 20
50.20000555419938
 30
0.0
 10
72.60000610351562
 20
50.20000555419938
 30
0.0
 10
72.60000610351562
 20
50.20000555419938
 30
0.0
 10
75.90000915527344
 20
50.60000708007829
 30
0.0
 10
75.90000915527344
 20
50.60000708007829
 30
0.0
 10
75.90000915527344
 20
50.60000708007829
 30
0.0
 10
73.5999984741211
 20
48.19999792480485
 30
0.0
 10
73.5999984741211
 20
48.19999792480485
 30
0.0
 10
73.5999984741211
 20
48.19999792480485
 30
0.0
 10
73.5999984741211
 20
48.19999792480485
 30
0.0
 10
73.5999984741211
 20
48.19999792480485
 30
0.0
 10
73.33480072021484
 20
48.31329443359391
 30
0.0
 10
73.02914428710938
 20
48.27508642578141
 30
0.0
 10
72.79999542236328
 20
48.09999945068375
 30
0.0
 10
72.49442291259766
 20
47.75836279296891
 30
0.0
 10
72.49442291259766
 20
47.24163916015641
 30
0.0
 10
72.79999542236328
 20
46.90000250244157
 30
0.0
 10
73.1084976196289
 20
46.60793402099625
 30
0.0
 10
73.59149169921875
 20
46.60793402099625
 30
0.0
 10
73.89999389648438
 20
46.90000250244157
 30
0.0
 10
74.09209442138672
 20
47.11864569091813
 30
0.0
 10
74.1666030883789
 20
47.41668798828141
 30
0.0
 10
74.09999084472656
 20
47.70000555419938
 30
0.0
 10
74.09999084472656
 20
47.70000555419938
 30
0.0
 10
76.39999389648438
 20
50.10000708007829
 30
0.0
 10
76.39999389648438
 20
50.10000708007829
 30
0.0
 10
76.39999389648438
 20
50.10000708007829
 30
0.0
 10
76.09999084472656
 20
46.70000555419938
 30
0.0
 10
76.09999084472656
 20
46.70000555419938
 30
0.0
 10
76.09999084472656
 20
46.60000708007829
 30
0.0
 10
76.19998931884766
 20
46.40000250244157
 30
0.0
 10
76.29998779296875
 20
46.40000250244157
 30
0.0
 10
76.29998779296875
 20
46.40000250244157
 30
0.0
 10
76.29998779296875
 20
46.40000250244157
 30
0.0
 10
76.29998779296875
 20
46.40000250244157
 30
0.0
 10
76.49998474121094
 20
46.30000402832047
 30
0.0
 10
76.69998931884766
 20
46.30000402832047
 30
0.0
 10
76.79998779296875
 20
46.50000097656266
 30
0.0
 10
76.79998779296875
 20
46.50000097656266
 30
0.0
 10
78.89998626708984
 20
49.00000097656266
 30
0.0
 10
78.89998626708984
 20
49.00000097656266
 30
0.0
 10
78.89998626708984
 20
49.00000097656266
 30
0.0
 10
78.89998626708984
 20
45.80000402832047
 30
0.0
 10
78.89998626708984
 20
45.80000402832047
 30
0.0
 10
78.59998321533203
 20
45.60000708007829
 30
0.0
 10
78.39998626708984
 20
45.40000250244157
 30
0.0
 10
78.39998626708984
 20
45.10000708007829
 30
0.0
 10
78.39998626708984
 20
44.65818121337907
 30
0.0
 10
78.7581558227539
 20
44.30000402832047
 30
0.0
 10
79.19998168945312
 20
44.30000402832047
 30
0.0
 10
79.19998168945312
 20
44.30000402832047
 30
0.0
 10
79.19998931884766
 20
44.30000402832047
 30
0.0
 10
79.19998931884766
 20
44.30000402832047
 30
0.0
 10
79.58191680908203
 20
44.24010565185563
 30
0.0
 10
79.94009399414062
 20
44.50116064453141
 30
0.0
 10
79.99999237060547
 20
44.88309576416032
 30
0.0
 10
80.01126098632812
 20
44.95495703125016
 30
0.0
 10
80.01126098632812
 20
45.02814581298844
 30
0.0
 10
79.99999237060547
 20
45.10000708007829
 30
0.0
 10
79.97079467773438
 20
45.37912847900407
 30
0.0
 10
79.82564544677734
 20
45.6331415405275
 30
0.0
 10
79.59999084472656
 20
45.80000402832047
 30
0.0
 10
79.59999084472656
 20
45.80000402832047
 30
0.0
 10
79.59999084472656
 20
49.00000097656266
 30
0.0
 10
79.59999084472656
 20
49.00000097656266
 30
0.0
 10
79.59999084472656
 20
49.00000097656266
 30
0.0
 10
81.69998931884766
 20
46.50000097656266
 30
0.0
 10
81.69998931884766
 20
46.50000097656266
 30
0.0
 10
81.67237854003906
 20
46.38954260253922
 30
0.0
 10
81.73953247070312
 20
46.27761175537125
 30
0.0
 10
81.84999084472656
 20
46.25000097656266
 30
0.0
 10
81.96044921875
 20
46.22239019775407
 30
0.0
 10
82.07238006591797
 20
46.28954412841813
 30
0.0
 10
82.09999084472656
 20
46.40000250244157
 30
0.0
 10
82.09999084472656
 20
46.40000250244157
 30
0.0
 10
82.09999084472656
 20
46.40000250244157
 30
0.0
 10
82.09999084472656
 20
46.40000250244157
 30
0.0
 10
82.26567840576172
 20
46.40000250244157
 30
0.0
 10
82.39999389648438
 20
46.53431036376969
 30
0.0
 10
82.39999389648438
 20
46.69999792480485
 30
0.0
 10
82.39999389648438
 20
46.69999792480485
 30
0.0
 10
82.39999389648438
 20
46.70000555419938
 30
0.0
 10
82.39999389648438
 20
46.70000555419938
 30
0.0
 10
82.39999389648438
 20
46.70000555419938
 30
0.0
 10
82.0
 20
50.09999945068375
 30
0.0
 10
82.0
 20
50.09999945068375
 30
0.0
 10
82.0
 20
50.09999945068375
 30
0.0
 10
84.30000305175781
 20
47.69999792480485
 30
0.0
 10
84.30000305175781
 20
47.69999792480485
 30
0.0
 10
84.30000305175781
 20
47.69999792480485
 30
0.0
 10
84.30000305175781
 20
47.69999792480485
 30
0.0
 10
84.30000305175781
 20
47.69999792480485
 30
0.0
 10
84.27808380126953
 20
47.41869451904313
 30
0.0
 10
84.34828186035156
 20
47.13789465332047
 30
0.0
 10
84.5
 20
46.89999487304704
 30
0.0
 10
84.80850219726562
 20
46.60792639160172
 30
0.0
 10
85.29149627685547
 20
46.60792639160172
 30
0.0
 10
85.5999984741211
 20
46.89999487304704
 30
0.0
 10
85.90557098388672
 20
47.24163153076188
 30
0.0
 10
85.90557098388672
 20
47.75835516357438
 30
0.0
 10
85.5999984741211
 20
48.09999182128922
 30
0.0
 10
85.41317749023438
 20
48.28188421630875
 30
0.0
 10
85.13027954101562
 20
48.32229711914079
 30
0.0
 10
84.9000015258789
 20
48.19999029541032
 30
0.0
 10
84.9000015258789
 20
48.19999029541032
 30
0.0
 10
84.80000305175781
 20
48.19999029541032
 30
0.0
 10
84.80000305175781
 20
48.19999029541032
 30
0.0
 10
84.80000305175781
 20
48.19999029541032
 30
0.0
 10
82.5
 20
50.59999182128922
 30
0.0
 10
82.5
 20
50.59999182128922
 30
0.0
 10
82.5
 20
50.59999182128922
 30
0.0
 10
85.80000305175781
 20
50.19999029541032
 30
0.0
 10
85.80000305175781
 20
50.19999029541032
 30
0.0
 10
86.0
 20
50.19999029541032
 30
0.0
 10
86.20000457763672
 20
50.29998876953141
 30
0.0
 10
86.20000457763672
 20
50.49999334716813
 30
0.0
 10
86.20000457763672
 20
50.49999334716813
 30
0.0
 10
86.20000457763672
 20
50.49999334716813
 30
0.0
 10
86.20000457763672
 20
50.49999334716813
 30
0.0
 10
86.31046295166016
 20
50.52760412597672
 30
0.0
 10
86.37761688232422
 20
50.63953497314469
 30
0.0
 10
86.35000610351562
 20
50.74999334716813
 30
0.0
 10
86.32239532470703
 20
50.86045172119157
 30
0.0
 10
86.21046447753906
 20
50.92760565185563
 30
0.0
 10
86.10000610351562
 20
50.89999487304704
 30
0.0
 10
86.10000610351562
 20
50.89999487304704
 30
0.0
 10
83.50000762939453
 20
52.99999334716813
 30
0.0
 10
83.50000762939453
 20
52.99999334716813
 30
0.0
 10
83.50000762939453
 20
52.99999334716813
 30
0.0
 10
86.40000915527344
 20
52.99999334716813
 30
0.0
 10
86.40000915527344
 20
52.99999334716813
 30
0.0
 10
86.71554565429688
 20
50.81381323242204
 30
0.0
 10
86.8825912475586
 20
48.60875799560563
 30
0.0
 10
86.9000015258789
 20
46.39999487304704
 30
0.0
  0
POLYLINE
  5
12E
330
1F
100
AcDbEntity
  8
LAYER_1
 62
   178
100
AcDb2dPolyline
 66
     1
 10
0.0
 20
0.0
 30
0.0
  0
VERTEX
  5
12F
330
12E
100
AcDbEntity
  8
LAYER_1
 62
   178
100
AcDbVertex
100
AcDb2dVertex
 10
78.30000305175781
 20
52.99999334716813
 30
0.0
  0
VERTEX
  5
130
330
12E
100
AcDbEntity
  8
LAYER_1
 62
   178
100
AcDbVertex
100
AcDb2dVertex
 10
76.70000457763672
 20
51.39999487304704
 30
0.0
  0
VERTEX
  5
131
330
12E
100
AcDbEntity
  8
LAYER_1
 62
   178
100
AcDbVertex
100
AcDb2dVertex
 10
73.70000457763672
 20
51.09999182128922
 30
0.0
  0
VERTEX
  5
132
330
12E
100
AcDbEntity
  8
LAYER_1
 62
   178
100
AcDbVertex
100
AcDb2dVertex
 10
76.10000610351562
 20
52.99999334716813
 30
0.0
  0
VERTEX
  5
133
330
12E
100
AcDbEntity
  8
LAYER_1
 62
   178
100
AcDbVertex
100
AcDb2dVertex
 10
78.30000305175781
 20
52.99999334716813
 30
0.0
  0
SEQEND
  5
134
330
12E
100
AcDbEntity
  8
LAYER_1
 62
   178
  0
POLYLINE
  5
135
330
1F
100
AcDbEntity
  8
LAYER_1
 62
   178
100
AcDb2dPolyline
 66
     1
 10
0.0
 20
0.0
 30
0.0
  0
VERTEX
  5
136
330
135
100
AcDbEntity
  8
LAYER_1
 62
   178
100
AcDbVertex
100
AcDb2dVertex
 10
73.70000457763672
 20
55.69999029541032
 30
0.0
  0
VERTEX
  5
137
330
135
100
AcDbEntity
  8
LAYER_1
 62
   178
100
AcDbVertex
100
AcDb2dVertex
 10
76.70000457763672
 20
55.29998876953141
 30
0.0
  0
VERTEX
  5
138
330
135
100
AcDbEntity
  8
LAYER_1
 62
   178
100
AcDbVertex
100
AcDb2dVertex
 10
78.30000305175781
 20
53.69999029541032
 30
0.0
  0
VERTEX
  5
139
330
135
100
AcDbEntity
  8
LAYER_1
 62
   178
100
AcDbVertex
100
AcDb2dVertex
 10
76.0999984741211
 20
53.69999029541032
 30
0.0
  0
VERTEX
  5
13A
330
135
100
AcDbEntity
  8
LAYER_1
 62
   178
100
AcDbVertex
100
AcDb2dVertex
 10
73.70000457763672
 20
55.69999029541032
 30
0.0
  0
SEQEND
  5
13B
330
135
100
AcDbEntity
  8
LAYER_1
 62
   178
  0
POLYLINE
  5
13C
330
1F
100
AcDbEntity
  8
LAYER_1
 62
   178
100
AcDb2dPolyline
 66
     1
 10
0.0
 20
0.0
 30
0.0
  0
VERTEX
  5
13D
330
13C
100
AcDbEntity
  8
LAYER_1
 62
   178
100
AcDbVertex
100
AcDb2dVertex
 10
77.20000457763672
 20
50.8999872436525
 30
0.0
  0
VERTEX
  5
13E
330
13C
100
AcDbEntity
  8
LAYER_1
 62
   178
100
AcDbVertex
100
AcDb2dVertex
 10
78.9000015258789
 20
52.4999857177736
 30
0.0
  0
VERTEX
  5
13F
330
13C
100
AcDbEntity
  8
LAYER_1
 62
   178
100
AcDbVertex
100
AcDb2dVertex
 10
78.9000015258789
 20
50.19999792480485
 30
0.0
  0
VERTEX
  5
140
330
13C
100
AcDbEntity
  8
LAYER_1
 62
   178
100
AcDbVertex
100
AcDb2dVertex
 10
76.9000015258789
 20
47.79999639892594
 30
0.0
  0
VERTEX
  5
141
330
13C
100
AcDbEntity
  8
LAYER_1
 62
   178
100
AcDbVertex
100
AcDb2dVertex
 10
77.20000457763672
 20
50.8999872436525
 30
0.0
  0
SEQEND
  5
142
330
13C
100
AcDbEntity
  8
LAYER_1
 62
   178
  0
POLYLINE
  5
143
330
1F
100
AcDbEntity
  8
LAYER_1
 62
   178
100
AcDb2dPolyline
 66
     1
 10
0.0
 20
0.0
 30
0.0
  0
VERTEX
  5
144
330
143
100
AcDbEntity
  8
LAYER_1
 62
   178
100
AcDbVertex
100
AcDb2dVertex
 10
77.20000457763672
 20
55.8999872436525
 30
0.0
  0
VERTEX
  5
145
330
143
100
AcDbEntity
  8
LAYER_1
 62
   178
100
AcDbVertex
100
AcDb2dVertex
 10
76.9000015258789
 20
58.8999872436525
 30
0.0
  0
VERTEX
  5
146
330
143
100
AcDbEntity
  8
LAYER_1
 62
   178
100
AcDbVertex
100
AcDb2dVertex
 10
78.9000015258789
 20
56.4999857177736
 30
0.0
  0
VERTEX
  5
147
330
143
100
AcDbEntity
  8
LAYER_1
 62
   178
100
AcDbVertex
100
AcDb2dVertex
 10
78.9000015258789
 20
54.19999792480485
 30
0.0
  0
VERTEX
  5
148
330
143
100
AcDbEntity
  8
LAYER_1
 62
   178
100
AcDbVertex
100
AcDb2dVertex
 10
77.20000457763672
 20
55.8999872436525
 30
0.0
  0
SEQEND
  5
149
330
143
100
AcDbEntity
  8
LAYER_1
 62
   178
  0
POLYLINE
  5
14A
330
1F
100
AcDbEntity
  8
LAYER_1
 62
   178
100
AcDb2dPolyline
 66
     1
 10
0.0
 20
0.0
 30
0.0
  0
VERTEX
  5
14B
330
14A
100
AcDbEntity
  8
LAYER_1
 62
   178
100
AcDbVertex
100
AcDb2dVertex
 10
80.10000610351562
 20
53.69999029541032
 30
0.0
  0
VERTEX
  5
14C
330
14A
100
AcDbEntity
  8
LAYER_1
 62
   178
100
AcDbVertex
100
AcDb2dVertex
 10
81.70000457763672
 20
55.29998876953141
 30
0.0
  0
VERTEX
  5
14D
330
14A
100
AcDbEntity
  8
LAYER_1
 62
   178
100
AcDbVertex
100
AcDb2dVertex
 10
84.80000305175781
 20
55.69999029541032
 30
0.0
  0
VERTEX
  5
14E
330
14A
100
AcDbEntity
  8
LAYER_1
 62
   178
100
AcDbVertex
100
AcDb2dVertex
 10
82.4000015258789
 20
53.69999029541032
 30
0.0
  0
VERTEX
  5
14F
330
14A
100
AcDbEntity
  8
LAYER_1
 62
   178
100
AcDbVertex
100
AcDb2dVertex
 10
80.10000610351562
 20
53.69999029541032
 30
0.0
  0
SEQEND
  5
150
330
14A
100
AcDbEntity
  8
LAYER_1
 62
   178
  0
POLYLINE
  5
151
330
1F
100
AcDbEntity
  8
LAYER_1
 62
   178
100
AcDb2dPolyline
 66
     1
 10
0.0
 20
0.0
 30
0.0
  0
VERTEX
  5
152
330
151
100
AcDbEntity
  8
LAYER_1
 62
   178
100
AcDbVertex
100
AcDb2dVertex
 10
84.80000305175781
 20
51.09999182128922
 30
0.0
  0
VERTEX
  5
153
330
151
100
AcDbEntity
  8
LAYER_1
 62
   178
100
AcDbVertex
100
AcDb2dVertex
 10
81.70000457763672
 20
51.39999487304704
 30
0.0
  0
VERTEX
  5
154
330
151
100
AcDbEntity
  8
LAYER_1
 62
   178
100
AcDbVertex
100
AcDb2dVertex
 10
80.10000610351562
 20
52.99999334716813
 30
0.0
  0
VERTEX
  5
155
330
151
100
AcDbEntity
  8
LAYER_1
 62
   178
100
AcDbVertex
100
AcDb2dVertex
 10
82.40000915527344
 20
52.99999334716813
 30
0.0
  0
VERTEX
  5
156
330
151
100
AcDbEntity
  8
LAYER_1
 62
   178
100
AcDbVertex
100
AcDb2dVertex
 10
84.80000305175781
 20
51.09999182128922
 30
0.0
  0
SEQEND
  5
157
330
151
100
AcDbEntity
  8
LAYER_1
 62
   178
  0
POLYLINE
  5
158
330
1F
100
AcDbEntity
  8
LAYER_1
 62
   178
100
AcDb2dPolyline
 66
     1
 10
0.0
 20
0.0
 30
0.0
  0
VERTEX
  5
159
330
158
100
AcDbEntity
  8
LAYER_1
 62
   178
100
AcDbVertex
100
AcDb2dVertex
 10
81.20000457763672
 20
55.89999487304704
 30
0.0
  0
VERTEX
  5
15A
330
158
100
AcDbEntity
  8
LAYER_1
 62
   178
100
AcDbVertex
100
AcDb2dVertex
 10
79.5999984741211
 20
54.19999792480485
 30
0.0
  0
VERTEX
  5
15B
330
158
100
AcDbEntity
  8
LAYER_1
 62
   178
100
AcDbVertex
100
AcDb2dVertex
 10
79.5999984741211
 20
56.50000097656266
 30
0.0
  0
VERTEX
  5
15C
330
158
100
AcDbEntity
  8
LAYER_1
 62
   178
100
AcDbVertex
100
AcDb2dVertex
 10
81.5
 20
58.90000250244157
 30
0.0
  0
VERTEX
  5
15D
330
158
100
AcDbEntity
  8
LAYER_1
 62
   178
100
AcDbVertex
100
AcDb2dVertex
 10
81.20000457763672
 20
55.89999487304704
 30
0.0
  0
SEQEND
  5
15E
330
158
100
AcDbEntity
  8
LAYER_1
 62
   178
  0
POLYLINE
  5
15F
330
1F
100
AcDbEntity
  8
LAYER_1
 62
   178
100
AcDb2dPolyline
 66
     1
 10
0.0
 20
0.0
 30
0.0
  0
VERTEX
  5
160
330
15F
100
AcDbEntity
  8
LAYER_1
 62
   178
100
AcDbVertex
100
AcDb2dVertex
 10
81.20000457763672
 20
50.89999487304704
 30
0.0
  0
VERTEX
  5
161
330
15F
100
AcDbEntity
  8
LAYER_1
 62
   178
100
AcDbVertex
100
AcDb2dVertex
 10
81.50000762939453
 20
47.79999639892594
 30
0.0
  0
VERTEX
  5
162
330
15F
100
AcDbEntity
  8
LAYER_1
 62
   178
100
AcDbVertex
100
AcDb2dVertex
 10
79.5999984741211
 20
50.19999792480485
 30
0.0
  0
VERTEX
  5
163
330
15F
100
AcDbEntity
  8
LAYER_1
 62
   178
100
AcDbVertex
100
AcDb2dVertex
 10
79.5999984741211
 20
52.50000097656266
 30
0.0
  0
VERTEX
  5
164
330
15F
100
AcDbEntity
  8
LAYER_1
 62
   178
100
AcDbVertex
100
AcDb2dVertex
 10
81.20000457763672
 20
50.89999487304704
 30
0.0
  0
SEQEND
  5
165
330
15F
100
AcDbEntity
  8
LAYER_1
 62
   178
  0
SPLINE
  5
166
330
1F
100
AcDbEntity
  8
LAYER_1
 62
   178
100
AcDbSpline
210
0.0
220
0.0
230
1.0
 70
    11
 71
     3
 72
    14
 73
    10
 74
     0
 42
0.0000000001
 43
0.0000000001
 12
1.0
 22
0.0
 32
0.0
 13
1.0
 23
0.0
 33
0.0
 40
0.0
 40
0.0
 40
0.0
 40
0.0
 40
1.0
 40
1.0
 40
1.0
 40
2.0
 40
2.0
 40
2.0
 40
3.0
 40
3.0
 40
3.0
 40
3.0
 10
86.30000305175781
 20
53.69999792480485
 30
0.0
 10
86.30000305175781
 20
53.69999792480485
 30
0.0
 10
83.5
 20
53.69999792480485
 30
0.0
 10
83.5
 20
53.69999792480485
 30
0.0
 10
83.5
 20
53.69999792480485
 30
0.0
 10
85.9000015258789
 20
55.59999945068375
 30
0.0
 10
85.9000015258789
 20
55.59999945068375
 30
0.0
 10
85.99522399902344
 20
54.95923712158219
 30
0.0
 10
86.12879943847656
 20
54.32476141357438
 30
0.0
 10
86.30000305175781
 20
53.69999792480485
 30
0.0
  0
POLYLINE
  5
167
330
1F
100
AcDbEntity
  8
LAYER_1
 62
   178
100
AcDb2dPolyline
 66
     1
 10
0.0
 20
0.0
 30
0.0
  0
VERTEX
  5
168
330
167
100
AcDbEntity
  8
LAYER_1
 62
   178
100
AcDbVertex
100
AcDb2dVertex
 10
84.9000015258789
 20
58.50000097656266
 30
0.0
  0
VERTEX
  5
169
330
167
100
AcDbEntity
  8
LAYER_1
 62
   178
100
AcDbVertex
100
AcDb2dVertex
 10
85.0999984741211
 20
58.50000097656266
 30
0.0
  0
VERTEX
  5
16A
330
167
100
AcDbEntity
  8
LAYER_1
 62
   178
100
AcDbVertex
100
AcDb2dVertex
 10
85.69999694824219
 20
56.50000097656266
 30
0.0
  0
VERTEX
  5
16B
330
167
100
AcDbEntity
  8
LAYER_1
 62
   178
100
AcDbVertex
100
AcDb2dVertex
 10
82.5
 20
56.19999792480485
 30
0.0
  0
VERTEX
  5
16C
330
167
100
AcDbEntity
  8
LAYER_1
 62
   178
100
AcDbVertex
100
AcDb2dVertex
 10
84.80000305175781
 20
58.50000097656266
 30
0.0
  0
VERTEX
  5
16D
330
167
100
AcDbEntity
  8
LAYER_1
 62
   178
100
AcDbVertex
100
AcDb2dVertex
 10
84.9000015258789
 20
58.50000097656266
 30
0.0
  0
SEQEND
  5
16E
330
167
100
AcDbEntity
  8
LAYER_1
 62
   178
  0
SPLINE
  5
16F
330
1F
100
AcDbEntity
  8
LAYER_1
 62
   178
100
AcDbSpline
210
0.0
220
0.0
230
1.0
 70
    11
 71
     3
 72
    53
 73
    49
 74
     0
 42
0.0000000001
 43
0.0000000001
 12
1.0
 22
0.0
 32
0.0
 13
1.0
 23
0.0
 33
0.0
 40
0.0
 40
0.0
 40
0.0
 40
0.0
 40
1.0
 40
1.0
 40
1.0
 40
2.0
 40
2.0
 40
2.0
 40
3.0
 40
3.0
 40
3.0
 40
4.0
 40
4.0
 40
4.0
 40
5.0
 40
5.0
 40
5.0
 40
6.0
 40
6.0
 40
6.0
 40
7.0
 40
7.0
 40
7.0
 40
8.0
 40
8.0
 40
8.0
 40
9.0
 40
9.0
 40
9.0
 40
10.0
 40
10.0
 40
10.0
 40
11.0
 40
11.0
 40
11.0
 40
12.0
 40
12.0
 40
12.0
 40
13.0
 40
13.0
 40
13.0
 40
14.0
 40
14.0
 40
14.0
 40
15.0
 40
15.0
 40
15.0
 40
16.0
 40
16.0
 40
16.0
 40
16.0
 10
84.5999984741211
 20
59.80000402832047
 30
0.0
 10
84.5999984741211
 20
59.80000402832047
 30
0.0
 10
84.5
 20
59.80000402832047
 30
0.0
 10
84.5
 20
59.80000402832047
 30
0.0
 10
84.33212280273438
 20
59.56935980224625
 30
0.0
 10
84.26041412353516
 20
59.28251745605485
 30
0.0
 10
84.30000305175781
 20
59.00000097656266
 30
0.0
 10
84.30000305175781
 20
59.00000097656266
 30
0.0
 10
82.0
 20
56.69999792480485
 30
0.0
 10
82.0
 20
56.69999792480485
 30
0.0
 10
82.0
 20
56.69999792480485
 30
0.0
 10
82.4000015258789
 20
60.00000097656266
 30
0.0
 10
82.4000015258789
 20
60.00000097656266
 30
0.0
 10
82.4000015258789
 20
60.19999792480485
 30
0.0
 10
82.30000305175781
 20
60.30000402832047
 30
0.0
 10
82.0999984741211
 20
60.40000250244157
 30
0.0
 10
82.0999984741211
 20
60.40000250244157
 30
0.0
 10
82.0
 20
60.40000250244157
 30
0.0
 10
82.0
 20
60.40000250244157
 30
0.0
 10
81.9000015258789
 20
60.40000250244157
 30
0.0
 10
81.69999694824219
 20
60.40000250244157
 30
0.0
 10
81.69999694824219
 20
60.30000402832047
 30
0.0
 10
81.69999694824219
 20
60.30000402832047
 30
0.0
 10
81.5999984741211
 20
60.30000402832047
 30
0.0
 10
81.5999984741211
 20
60.30000402832047
 30
0.0
 10
81.5999984741211
 20
60.30000402832047
 30
0.0
 10
79.5999984741211
 20
57.80000402832047
 30
0.0
 10
79.5999984741211
 20
57.80000402832047
 30
0.0
 10
79.5999984741211
 20
57.80000402832047
 30
0.0
 10
79.5999984741211
 20
61.00000097656266
 30
0.0
 10
79.5999984741211
 20
61.00000097656266
 30
0.0
 10
79.8497543334961
 20
61.14418127441422
 30
0.0
 10
80.00257873535156
 20
61.41162207031266
 30
0.0
 10
80.0
 20
61.69999792480485
 30
0.0
 10
80.0
 20
61.69999792480485
 30
0.0
 10
79.5999984741211
 20
61.69999792480485
 30
0.0
 10
79.5999984741211
 20
61.69999792480485
 30
0.0
 10
79.5999984741211
 20
61.79999639892594
 30
0.0
 10
79.69999694824219
 20
61.79999639892594
 30
0.0
 10
79.79999542236328
 20
61.89999487304704
 30
0.0
 10
80.22300720214844
 20
62.37174322509782
 30
0.0
 10
80.56131744384766
 20
62.91304113769547
 30
0.0
 10
80.79999542236328
 20
63.49999334716813
 30
0.0
 10
81.18499755859375
 20
64.3117189636232
 30
0.0
 10
81.51897430419922
 20
65.14667608642594
 30
0.0
 10
81.79999542236328
 20
65.99999334716813
 30
0.0
 10
82.92965698242188
 20
64.02772619628922
 30
0.0
 10
83.86729431152344
 20
61.95153143310563
 30
0.0
 10
84.5999984741211
 20
59.80000402832047
 30
0.0
  0
SPLINE
  5
170
330
1F
100
AcDbEntity
  8
LAYER_1
 62
   178
100
AcDbSpline
210
0.0
220
0.0
230
1.0
 70
    11
 71
     3
 72
    26
 73
    22
 74
     0
 42
0.0000000001
 43
0.0000000001
 12
1.0
 22
0.0
 32
0.0
 13
1.0
 23
0.0
 33
0.0
 40
0.0
 40
0.0
 40
0.0
 40
0.0
 40
1.0
 40
1.0
 40
1.0
 40
2.0
 40
2.0
 40
2.0
 40
3.0
 40
3.0
 40
3.0
 40
4.0
 40
4.0
 40
4.0
 40
5.0
 40
5.0
 40
5.0
 40
6.0
 40
6.0
 40
6.0
 40
7.0
 40
7.0
 40
7.0
 40
7.0
 10
79.30000305175781
 20
69.9999971618654
 30
0.0
 10
79.99175262451172
 20
69.12893774414079
 30
0.0
 10
80.5947494506836
 20
68.19094564819352
 30
0.0
 10
81.0999984741211
 20
67.19999792480485
 30
0.0
 10
80.75768280029297
 20
66.30785467529313
 30
0.0
 10
80.3568115234375
 20
65.43929769897477
 30
0.0
 10
79.9000015258789
 20
64.59999945068375
 30
0.0
 10
79.9000015258789
 20
64.59999945068375
 30
0.0
 10
79.0
 20
62.99999716186539
 30
0.0
 10
79.0
 20
62.99999716186539
 30
0.0
 10
78.69999694824219
 20
62.79999639892594
 30
0.0
 10
78.5999984741211
 20
62.59999563598649
 30
0.0
 10
78.4000015258789
 20
62.59999563598649
 30
0.0
 10
78.20000457763672
 20
62.59999563598649
 30
0.0
 10
78.0
 20
62.79999639892594
 30
0.0
 10
78.0
 20
63.19999411010758
 30
0.0
 10
78.0
 20
63.59999182128922
 30
0.0
 10
78.30000305175781
 20
66.09999563598649
 30
0.0
 10
79.19999694824219
 20
69.39999487304704
 30
0.0
 10
79.28031158447266
 20
69.58927252197282
 30
0.0
 10
79.31458282470703
 20
69.79490377807633
 30
0.0
 10
79.30000305175781
 20
69.9999971618654
 30
0.0
  0
ENDSEC
  0
SECTION
  2
OBJECTS
  0
DICTIONARY
  5
C
330
0
100
AcDbDictionary
  3
ACAD_GROUP
350
D
  3
ACAD_LAYOUT
350
1A
  3
ACAD_MATERIAL
350
3B
  3
ACAD_MLEADERSTYLE
350
193
  3
ACAD_MLINESTYLE
350
17
  3
ACAD_PLOTSETTINGS
350
19
  3
ACAD_VISUALSTYLE
350
2A
  3
ACDBHEADERROUNDTRIPXREC
350
171
  3
ACDBVARIABLEDICTIONARY
350
191
  0
DICTIONARY
  5
D
102
{ACAD_REACTORS
330
C
102
}
330
C
100
AcDbDictionary
  0
DICTIONARY
  5
1A
102
{ACAD_REACTORS
330
C
102
}
330
C
100
AcDbDictionary
  0
DICTIONARY
  5
3B
102
{ACAD_REACTORS
330
C
102
}
330
C
100
AcDbDictionary
  3
BYBLOCK
350
3D
  3
BYLAYER
350
3C
  3
GLOBAL
350
3E
  0
DICTIONARY
  5
193
102
{ACAD_REACTORS
330
C
102
}
330
C
100
AcDbDictionary
  0
DICTIONARY
  5
17
102
{ACAD_REACTORS
330
C
102
}
330
C
100
AcDbDictionary
  3
STANDARD
350
18
  0
DICTIONARY
  5
19
102
{ACAD_REACTORS
330
C
102
}
330
C
100
AcDbDictionary
  0
DICTIONARY
  5
2A
102
{ACAD_REACTORS
330
C
102
}
330
C
100
AcDbDictionary
  3
2DWIREFRAME
350
2F
  3
3D_HIDDEN
350
31
  3
3DWIREFRAME
350
30
  3
BASIC
350
32
  3
BRIGHTEN
350
36
  3
COLORCHANGE
350
3A
  3
CONCEPTUAL
350
34
  3
DIM
350
35
  3
FACEPATTERN
350
39
  3
FLAT
350
2B
  3
FLATWITHEDGES
350
2C
  3
GOURAUD
350
2D
  3
GOURAUDWITHEDGES
350
2E
  3
LINEPATTERN
350
38
  3
REALISTIC
350
33
  3
THICKEN
350
37
  0
DICTIONARY
  5
171
102
{ACAD_REACTORS
330
C
102
}
330
C
100
AcDbDictionary
  3
CEPSNTYPE
350
17A
  3
DIMSTYLEDATA
350
190
  3
FINGERPRINTGUID
350
17B
  3
HYPERLINKBASE
350
174
  3
INSUNITS
350
179
  3
LAYOUTDICT
350
176
  3
LWETCUNION
350
178
  3
PLOTSETDICT
350
177
  3
PSVPSCALE
350
17D
  3
PUCSBASE
350
180
  3
PUCSORGBACK
350
186
  3
PUCSORGBOTTOM
350
182
  3
PUCSORGFRONT
350
185
  3
PUCSORGLEFT
350
183
  3
PUCSORGRIGHT
350
184
  3
PUCSORGTOP
350
181
  3
PUCSORTHOREF
350
17E
  3
PUCSORTHOVIEW
350
17F
  3
STYLESHEET
350
175
  3
TSTACKALIGN
350
172
  3
TSTACKSIZE
350
173
  3
UCSBASE
350
189
  3
UCSORGBACK
350
18F
  3
UCSORGBOTTOM
350
18B
  3
UCSORGFRONT
350
18E
  3
UCSORGLEFT
350
18C
  3
UCSORGRIGHT
350
18D
  3
UCSORGTOP
350
18A
  3
UCSORTHOREF
350
187
  3
UCSORTHOVIEW
350
188
  3
VERSIONGUID
350
17C
  0
DICTIONARY
  5
191
102
{ACAD_REACTORS
330
C
102
}
330
C
100
AcDbDictionary
  3
DIMASSOC
350
194
  3
HIDETEXT
350
195
  0
MATERIAL
  5
3D
102
{ACAD_REACTORS
330
3B
102
}
102
{ACAD_XDICTIONARY
360
198
102
}
330
3B
100
AcDbMaterial
  1
ByBlock
  0
MATERIAL
  5
3C
102
{ACAD_REACTORS
330
3B
102
}
102
{ACAD_XDICTIONARY
360
196
102
}
330
3B
100
AcDbMaterial
  1
ByLayer
  0
MATERIAL
  5
3E
102
{ACAD_REACTORS
330
3B
102
}
102
{ACAD_XDICTIONARY
360
19A
102
}
330
3B
100
AcDbMaterial
  1
Global
  0
MLINESTYLE
  5
18
102
{ACAD_REACTORS
330
17
102
}
330
17
100
AcDbMlineStyle
  2
Standard
 70
     0
  3

 62
   256
 51
90.0
 52
90.0
 71
     2
 49
0.5
 62
   256
  6
BYLAYER
 49
-0.5
 62
   256
  6
BYLAYER
  0
ACAD_PROXY_OBJECT
  5
2F
102
{ACAD_REACTORS
330
2A
102
}
330
2A
100
AcDbProxyObject
 90
      499
 91
      501
 93
      436
310
42CC9915DA5C99599C985B595049028333333333333E3BF0000000000000FB0107901411070040501600405405064090741402480A0340
1001
ACAD
1000
AcDbSavedByObjectVersion
1070
     0
  0
ACAD_PROXY_OBJECT
  5
31
102
{ACAD_REACTORS
330
2A
102
}
330
2A
100
AcDbProxyObject
 90
      499
 91
      501
 93
      500
310
424CD108121A5919195B90640502408333333333333E3BF0000000000000FB01079024090700405020000000000001110200405405064090740C02480A0340
1001
ACAD
1000
AcDbSavedByObjectVersion
1070
     0
  0
ACAD_PROXY_OBJECT
  5
30
102
{ACAD_REACTORS
330
2A
102
}
330
2A
100
AcDbProxyObject
 90
      499
 91
      501
 93
      436
310
42CCD915DA5C99599C985B595059028333333333333E3BF0000000000000FB0107901411070040501600405405064090741402480A0340
1001
ACAD
1000
AcDbSavedByObjectVersion
1070
     0
  0
ACAD_PROXY_OBJECT
  5
32
102
{ACAD_REACTORS
330
2A
102
}
330
2A
100
AcDbProxyObject
 90
      499
 91
      501
 93
      388
310
4150985CDA58D07406404333333333333E3BF0000000000000FB0107A41107004050150841D405064090741402480A0350
1001
ACAD
1000
AcDbSavedByObjectVersion
1070
     0
  0
ACAD_PROXY_OBJECT
  5
36
102
{ACAD_REACTORS
330
2A
102
}
330
2A
100
AcDbProxyObject
 90
      499
 91
      501
 93
      428
310
42109C9A59DA1D195B90C409028333333333333E3BF0000000000000FB010790141107004050150841D405064090741402480A029950
1001
ACAD
1000
AcDbSavedByObjectVersion
1070
     0
  0
ACAD_PROXY_OBJECT
  5
3A
102
{ACAD_REACTORS
330
2A
102
}
330
2A
100
AcDbProxyObject
 90
      499
 91
      501
 93
      452
310
42D0DBDB1BDC90DA185B99D95104090240C333333333333E3BF0000000000000FB0108901411070040501508421405064090741402480A0350
1001
ACAD
1000
AcDbSavedByObjectVersion
1070
     0
  0
ACAD_PROXY_OBJECT
  5
34
102
{ACAD_REACTORS
330
2A
102
}
330
2A
100
AcDbProxyObject
 90
      499
 91
      501
 93
      500
310
4290DBDB98D95C1D1D585B10940D028333333333333E3BF0000000000000FB0107902409070040501000000000000111010841D405064090740C02480A0340
1001
ACAD
1000
AcDbSavedByObjectVersion
1070
     0
  0
ACAD_PROXY_OBJECT
  5
35
102
{ACAD_REACTORS
330
2A
102
}
330
2A
100
AcDbProxyObject
 90
      499
 91
      501
 93
      412
310
40D11A5B50B409028333333333333E3BF0000000000000FB010790141107004050150841D405064090741402480A02677FFFFFD0
1001
ACAD
1000
AcDbSavedByObjectVersion
1070
     0
  0
ACAD_PROXY_OBJECT
  5
39
102
{ACAD_REACTORS
330
2A
102
}
330
2A
100
AcDbProxyObject
 90
      499
 91
      501
 93
      444
310
42D19858D95C185D1D195C9B90F409028333333333333E3BF0000000000000FB010790141107004050150841D405064090741402480A0350
1001
ACAD
1000
AcDbSavedByObjectVersion
1070
     0
  0
ACAD_PROXY_OBJECT
  5
2B
102
{ACAD_REACTORS
330
2A
102
}
330
2A
100
AcDbProxyObject
 90
      499
 91
      501
 93
      388
310
41119B185D240901404333333333333E3BF0000000000000F9010740A41107004050150841D405064090741402480A1B50
1001
ACAD
1000
AcDbSavedByObjectVersion
1070
     0
  0
ACAD_PROXY_OBJECT
  5
2C
102
{ACAD_REACTORS
330
2A
102
}
330
2A
100
AcDbProxyObject
 90
      499
 91
      501
 93
      476
310
43519B185D15DA5D1A115919D95CD0140901404333333333333E3BF0000000000000F9010740901411070040501600405405064090741402480A1B50
1001
ACAD
1000
AcDbSavedByObjectVersion
1070
     0
  0
ACAD_PROXY_OBJECT
  5
2D
102
{ACAD_REACTORS
330
2A
102
}
330
2A
100
AcDbProxyObject
 90
      499
 91
      501
 93
      412
310
41D1DBDD5C985D5910240902404333333333333E3BF0000000000000F9010740A411070040501641D405064090741402480A1B50
1001
ACAD
1000
AcDbSavedByObjectVersion
1070
     0
  0
ACAD_PROXY_OBJECT
  5
2E
102
{ACAD_REACTORS
330
2A
102
}
330
2A
100
AcDbProxyObject
 90
      499
 91
      501
 93
      500
310
4411DBDD5C985D5915DA5D1A115919D95CD0340902404333333333333E3BF0000000000000F9010740901411070040501600405405064090741402480A1B50
1001
ACAD
1000
AcDbSavedByObjectVersion
1070
     0
  0
ACAD_PROXY_OBJECT
  5
38
102
{ACAD_REACTORS
330
2A
102
}
330
2A
100
AcDbProxyObject
 90
      499
 91
      501
 93
      444
310
42D31A5B995C185D1D195C9B90E409028333333333333E3BF0000000000000FB010790141107004050750841D405064090741402483A0350
1001
ACAD
1000
AcDbSavedByObjectVersion
1070
     0
  0
ACAD_PROXY_OBJECT
  5
33
102
{ACAD_REACTORS
330
2A
102
}
330
2A
100
AcDbProxyObject
 90
      499
 91
      501
 93
      420
310
425499585B1A5CDD1A58D08409028333333333333E3BF0000000000000FB01079019070040501508421405064090741402480A1B40
1001
ACAD
1000
AcDbSavedByObjectVersion
1070
     0
  0
ACAD_PROXY_OBJECT
  5
37
102
{ACAD_REACTORS
330
2A
102
}
330
2A
100
AcDbProxyObject
 90
      499
 91
      501
 93
      412
310
41D51A1A58DAD95B90D409028333333333333E3BF0000000000000FB010790141107004050150C41D405064090741402480A0350
1001
ACAD
1000
AcDbSavedByObjectVersion
1070
     0
  0
XRECORD
  5
17A
102
{ACAD_REACTORS
330
171
102
}
330
171
100
AcDbXrecord
 90
        0
  0
XRECORD
  5
190
102
{ACAD_REACTORS
330
171
102
}
330
171
100
AcDbXrecord
1000
DSTYLE
1002
{
1070
   340
340
11
1002
}
  0
XRECORD
  5
17B
102
{ACAD_REACTORS
330
171
102
}
330
171
100
AcDbXrecord
  1
{70AB0441-F841-4145-8F32-8707B1DEA7A3}
  0
XRECORD
  5
174
102
{ACAD_REACTORS
330
171
102
}
330
171
100
AcDbXrecord
  1

  0
XRECORD
  5
179
102
{ACAD_REACTORS
330
171
102
}
330
171
100
AcDbXrecord
 90
        0
  0
XRECORD
  5
176
102
{ACAD_REACTORS
330
171
102
}
330
171
100
AcDbXrecord
340
1A
  0
XRECORD
  5
178
102
{ACAD_REACTORS
330
171
102
}
330
171
100
AcDbXrecord
 90
    10269
  0
XRECORD
  5
177
102
{ACAD_REACTORS
330
171
102
}
330
171
100
AcDbXrecord
340
19
  0
XRECORD
  5
17D
102
{ACAD_REACTORS
330
171
102
}
330
171
100
AcDbXrecord
 40
0.0
  0
XRECORD
  5
180
102
{ACAD_REACTORS
330
171
102
}
330
171
100
AcDbXrecord
340
0
  0
XRECORD
  5
186
102
{ACAD_REACTORS
330
171
102
}
330
171
100
AcDbXrecord
 10
0.0
 20
0.0
 30
0.0
  0
XRECORD
  5
182
102
{ACAD_REACTORS
330
171
102
}
330
171
100
AcDbXrecord
 10
0.0
 20
0.0
 30
0.0
  0
XRECORD
  5
185
102
{ACAD_REACTORS
330
171
102
}
330
171
100
AcDbXrecord
 10
0.0
 20
0.0
 30
0.0
  0
XRECORD
  5
183
102
{ACAD_REACTORS
330
171
102
}
330
171
100
AcDbXrecord
 10
0.0
 20
0.0
 30
0.0
  0
XRECORD
  5
184
102
{ACAD_REACTORS
330
171
102
}
330
171
100
AcDbXrecord
 10
0.0
 20
0.0
 30
0.0
  0
XRECORD
  5
181
102
{ACAD_REACTORS
330
171
102
}
330
171
100
AcDbXrecord
 10
0.0
 20
0.0
 30
0.0
  0
XRECORD
  5
17E
102
{ACAD_REACTORS
330
171
102
}
330
171
100
AcDbXrecord
340
0
  0
XRECORD
  5
17F
102
{ACAD_REACTORS
330
171
102
}
330
171
100
AcDbXrecord
 70
     0
  0
XRECORD
  5
175
102
{ACAD_REACTORS
330
171
102
}
330
171
100
AcDbXrecord
  1

  0
XRECORD
  5
172
102
{ACAD_REACTORS
330
171
102
}
330
171
100
AcDbXrecord
 90
        1
  0
XRECORD
  5
173
102
{ACAD_REACTORS
330
171
102
}
330
171
100
AcDbXrecord
 90
       70
  0
XRECORD
  5
189
102
{ACAD_REACTORS
330
171
102
}
330
171
100
AcDbXrecord
340
0
  0
XRECORD
  5
18F
102
{ACAD_REACTORS
330
171
102
}
330
171
100
AcDbXrecord
 10
0.0
 20
0.0
 30
0.0
  0
XRECORD
  5
18B
102
{ACAD_REACTORS
330
171
102
}
330
171
100
AcDbXrecord
 10
0.0
 20
0.0
 30
0.0
  0
XRECORD
  5
18E
102
{ACAD_REACTORS
330
171
102
}
330
171
100
AcDbXrecord
 10
0.0
 20
0.0
 30
0.0
  0
XRECORD
  5
18C
102
{ACAD_REACTORS
330
171
102
}
330
171
100
AcDbXrecord
 10
0.0
 20
0.0
 30
0.0
  0
XRECORD
  5
18D
102
{ACAD_REACTORS
330
171
102
}
330
171
100
AcDbXrecord
 10
0.0
 20
0.0
 30
0.0
  0
XRECORD
  5
18A
102
{ACAD_REACTORS
330
171
102
}
330
171
100
AcDbXrecord
 10
0.0
 20
0.0
 30
0.0
  0
XRECORD
  5
187
102
{ACAD_REACTORS
330
171
102
}
330
171
100
AcDbXrecord
340
0
  0
XRECORD
  5
188
102
{ACAD_REACTORS
330
171
102
}
330
171
100
AcDbXrecord
 70
     0
  0
XRECORD
  5
17C
102
{ACAD_REACTORS
330
171
102
}
330
171
100
AcDbXrecord
  1
{FAEB1C32-E019-11D5-929B-00C0DF256EC4}
  0
DICTIONARYVAR
  5
194
102
{ACAD_REACTORS
330
191
102
}
330
191
100
DictionaryVariables
280
     0
  1
2
  0
DICTIONARYVAR
  5
195
102
{ACAD_REACTORS
330
191
102
}
330
191
100
DictionaryVariables
280
     0
  1
1
  0
DICTIONARY
  5
198
330
3D
100
AcDbDictionary
280
     1
  3
ACAD_XREC_ROUNDTRIP
360
199
  0
DICTIONARY
  5
196
330
3C
100
AcDbDictionary
280
     1
  3
ACAD_XREC_ROUNDTRIP
360
197
  0
DICTIONARY
  5
19A
330
3E
100
AcDbDictionary
280
     1
  3
ACAD_XREC_ROUNDTRIP
360
19B
  0
XRECORD
  5
199
102
{ACAD_REACTORS
330
198
102
}
330
198
100
AcDbXrecord
102
MATERIAL
148
0.0
149
0.0
149
0.0
 93
        0
 94
      127
282
     0
 72
     1
 77
     1
171
     1
175
     1
179
     1
273
     0
  0
XRECORD
  5
197
102
{ACAD_REACTORS
330
196
102
}
330
196
100
AcDbXrecord
102
MATERIAL
148
0.0
149
0.0
149
0.0
 93
        0
 94
      127
282
     0
 72
     1
 77
     1
171
     1
175
     1
179
     1
273
     0
  0
XRECORD
  5
19B
102
{ACAD_REACTORS
330
19A
102
}
330
19A
100
AcDbXrecord
102
MATERIAL
148
0.0
149
0.0
149
0.0
 93
        0
 94
      127
282
     0
 72
     1
 77
     1
171
     1
175
     1
179
     1
273
     0
  0
ENDSEC
  0
EOF
