  0
SECTION
  2
HEADER
  9
$ACADVER
  1
AC1024
  9
$ACADMAINTVER
 70
     6
  9
$DWGCODEPAGE
  3
ANSI_1252
  9
$INSBASE
 10
0.0
 20
0.0
 30
0.0
  9
$EXTMIN
 10
1.000000000000000E+20
 20
1.000000000000000E+20
 30
1.000000000000000E+20
  9
$EXTMAX
 10
-1.000000000000000E+20
 20
-1.000000000000000E+20
 30
-1.000000000000000E+20
  9
$LIMMIN
 10
0.0
 20
0.0
  9
$LIMMAX
 10
12.0
 20
9.0
  9
$ORTHOMODE
 70
     0
  9
$REGENMODE
 70
     1
  9
$FILLMODE
 70
     1
  9
$QTEXTMODE
 70
     0
  9
$MIRRTEXT
 70
     1
  9
$LTSCALE
 40
1.0
  9
$ATTMODE
 70
     1
  9
$TEXTSIZE
 40
0.2
  9
$TRACEWID
 40
0.05
  9
$TEXTSTYLE
  7
Standard
  9
$CLAYER
  8
0
  9
$CELTYPE
  6
ByLayer
  9
$CECOLOR
 62
   256
  9
$CELTSCALE
 40
1.0
  9
$DISPSILH
 70
     0
  9
$DIMSCALE
 40
1.0
  9
$DIMASZ
 40
0.18
  9
$DIMEXO
 40
0.0625
  9
$DIMDLI
 40
0.38
  9
$DIMRND
 40
0.0
  9
$DIMDLE
 40
0.0
  9
$DIMEXE
 40
0.18
  9
$DIMTP
 40
0.0
  9
$DIMTM
 40
0.0
  9
$DIMTXT
 40
0.18
  9
$DIMCEN
 40
0.09
  9
$DIMTSZ
 40
0.0
  9
$DIMTOL
 70
     0
  9
$DIMLIM
 70
     0
  9
$DIMTIH
 70
     1
  9
$DIMTOH
 70
     1
  9
$DIMSE1
 70
     0
  9
$DIMSE2
 70
     0
  9
$DIMTAD
 70
     0
  9
$DIMZIN
 70
     0
  9
$DIMBLK
  1

  9
$DIMASO
 70
     1
  9
$DIMSHO
 70
     1
  9
$DIMPOST
  1

  9
$DIMAPOST
  1

  9
$DIMALT
 70
     0
  9
$DIMALTD
 70
     2
  9
$DIMALTF
 40
25.4
  9
$DIMLFAC
 40
1.0
  9
$DIMTOFL
 70
     0
  9
$DIMTVP
 40
0.0
  9
$DIMTIX
 70
     0
  9
$DIMSOXD
 70
     0
  9
$DIMSAH
 70
     0
  9
$DIMBLK1
  1

  9
$DIMBLK2
  1

  9
$DIMSTYLE
  2
Standard
  9
$DIMCLRD
 70
     0
  9
$DIMCLRE
 70
     0
  9
$DIMCLRT
 70
     0
  9
$DIMTFAC
 40
1.0
  9
$DIMGAP
 40
0.09
  9
$DIMJUST
 70
     0
  9
$DIMSD1
 70
     0
  9
$DIMSD2
 70
     0
  9
$DIMTOLJ
 70
     1
  9
$DIMTZIN
 70
     0
  9
$DIMALTZ
 70
     0
  9
$DIMALTTZ
 70
     0
  9
$DIMUPT
 70
     0
  9
$DIMDEC
 70
     4
  9
$DIMTDEC
 70
     4
  9
$DIMALTU
 70
     2
  9
$DIMALTTD
 70
     2
  9
$DIMTXSTY
  7
Standard
  9
$DIMAUNIT
 70
     0
  9
$DIMADEC
 70
     0
  9
$DIMALTRND
 40
0.0
  9
$DIMAZIN
 70
     0
  9
$DIMDSEP
 70
    46
  9
$DIMATFIT
 70
     3
  9
$DIMFRAC
 70
     0
  9
$DIMLDRBLK
  1

  9
$DIMLUNIT
 70
     2
  9
$DIMLWD
 70
    -2
  9
$DIMLWE
 70
    -2
  9
$DIMTMOVE
 70
     0
  9
$DIMFXL
 40
1.0
  9
$DIMFXLON
 70
     0
  9
$DIMJOGANG
 40
0.7853981633974483
  9
$DIMTFILL
 70
     0
  9
$DIMTFILLCLR
 70
     0
  9
$DIMARCSYM
 70
     0
  9
$DIMLTYPE
  6

  9
$DIMLTEX1
  6

  9
$DIMLTEX2
  6

  9
$DIMTXTDIRECTION
 70
     0
  9
$LUNITS
 70
     2
  9
$LUPREC
 70
     4
  9
$SKETCHINC
 40
0.1
  9
$FILLETRAD
 40
0.5
  9
$AUNITS
 70
     0
  9
$AUPREC
 70
     0
  9
$MENU
  1
.
  9
$ELEVATION
 40
0.0
  9
$PELEVATION
 40
0.0
  9
$THICKNESS
 40
0.0
  9
$LIMCHECK
 70
     0
  9
$CHAMFERA
 40
0.5
  9
$CHAMFERB
 40
0.5
  9
$CHAMFERC
 40
1.0
  9
$CHAMFERD
 40
0.0
  9
$SKPOLY
 70
     0
  9
$TDCREATE
 40
2459192.939765879
  9
$TDUCREATE
 40
2459192.773099213
  9
$TDUPDATE
 40
2459192.939765926
  9
$TDUUPDATE
 40
2459192.773099259
  9
$TDINDWG
 40
0.0000000116
  9
$TDUSRTIMER
 40
0.0000000116
  9
$USRTIMER
 70
     1
  9
$ANGBASE
 50
0.0
  9
$ANGDIR
 70
     0
  9
$PDMODE
 70
     0
  9
$PDSIZE
 40
0.0
  9
$PLINEWID
 40
0.0
  9
$SPLFRAME
 70
     0
  9
$SPLINETYPE
 70
     6
  9
$SPLINESEGS
 70
     8
  9
$HANDSEED
  5
173
  9
$SURFTAB1
 70
     6
  9
$SURFTAB2
 70
     6
  9
$SURFTYPE
 70
     6
  9
$SURFU
 70
     6
  9
$SURFV
 70
     6
  9
$UCSBASE
  2

  9
$UCSNAME
  2

  9
$UCSORG
 10
0.0
 20
0.0
 30
0.0
  9
$UCSXDIR
 10
1.0
 20
0.0
 30
0.0
  9
$UCSYDIR
 10
0.0
 20
1.0
 30
0.0
  9
$UCSORTHOREF
  2

  9
$UCSORTHOVIEW
 70
     0
  9
$UCSORGTOP
 10
0.0
 20
0.0
 30
0.0
  9
$UCSORGBOTTOM
 10
0.0
 20
0.0
 30
0.0
  9
$UCSORGLEFT
 10
0.0
 20
0.0
 30
0.0
  9
$UCSORGRIGHT
 10
0.0
 20
0.0
 30
0.0
  9
$UCSORGFRONT
 10
0.0
 20
0.0
 30
0.0
  9
$UCSORGBACK
 10
0.0
 20
0.0
 30
0.0
  9
$PUCSBASE
  2

  9
$PUCSNAME
  2

  9
$PUCSORG
 10
0.0
 20
0.0
 30
0.0
  9
$PUCSXDIR
 10
1.0
 20
0.0
 30
0.0
  9
$PUCSYDIR
 10
0.0
 20
1.0
 30
0.0
  9
$PUCSORTHOREF
  2

  9
$PUCSORTHOVIEW
 70
     0
  9
$PUCSORGTOP
 10
0.0
 20
0.0
 30
0.0
  9
$PUCSORGBOTTOM
 10
0.0
 20
0.0
 30
0.0
  9
$PUCSORGLEFT
 10
0.0
 20
0.0
 30
0.0
  9
$PUCSORGRIGHT
 10
0.0
 20
0.0
 30
0.0
  9
$PUCSORGFRONT
 10
0.0
 20
0.0
 30
0.0
  9
$PUCSORGBACK
 10
0.0
 20
0.0
 30
0.0
  9
$USERI1
 70
     0
  9
$USERI2
 70
     0
  9
$USERI3
 70
     0
  9
$USERI4
 70
     0
  9
$USERI5
 70
     0
  9
$USERR1
 40
0.0
  9
$USERR2
 40
0.0
  9
$USERR3
 40
0.0
  9
$USERR4
 40
0.0
  9
$USERR5
 40
0.0
  9
$WORLDVIEW
 70
     1
  9
$SHADEDGE
 70
     3
  9
$SHADEDIF
 70
    70
  9
$TILEMODE
 70
     1
  9
$MAXACTVP
 70
    64
  9
$PINSBASE
 10
0.0
 20
0.0
 30
0.0
  9
$PLIMCHECK
 70
     0
  9
$PEXTMIN
 10
1.000000000000000E+20
 20
1.000000000000000E+20
 30
1.000000000000000E+20
  9
$PEXTMAX
 10
-1.000000000000000E+20
 20
-1.000000000000000E+20
 30
-1.000000000000000E+20
  9
$PLIMMIN
 10
0.0
 20
0.0
  9
$PLIMMAX
 10
12.0
 20
9.0
  9
$UNITMODE
 70
     0
  9
$VISRETAIN
 70
     1
  9
$PLINEGEN
 70
     0
  9
$PSLTSCALE
 70
     1
  9
$TREEDEPTH
 70
  3020
  9
$CMLSTYLE
  2
Standard
  9
$CMLJUST
 70
     0
  9
$CMLSCALE
 40
1.0
  9
$PROXYGRAPHICS
 70
     1
  9
$MEASUREMENT
 70
     0
  9
$CELWEIGHT
370
    -1
  9
$ENDCAPS
280
     0
  9
$JOINSTYLE
280
     0
  9
$LWDISPLAY
290
     1
  9
$INSUNITS
 70
     4
  9
$HYPERLINKBASE
  1

  9
$STYLESHEET
  1

  9
$XEDIT
290
     1
  9
$CEPSNTYPE
380
     0
  9
$PSTYLEMODE
290
     1
  9
$FINGERPRINTGUID
  2
{BCC65D6B-EAA3-400A-93E7-2C5EF727FCE7}
  9
$VERSIONGUID
  2
{FAEB1C32-E019-11D5-929B-00C0DF256EC4}
  9
$EXTNAMES
290
     1
  9
$PSVPSCALE
 40
0.0
  9
$OLESTARTUP
290
     0
  9
$SORTENTS
280
   127
  9
$INDEXCTL
280
     0
  9
$HIDETEXT
280
     1
  9
$XCLIPFRAME
280
     2
  9
$HALOGAP
280
     0
  9
$OBSCOLOR
 70
   257
  9
$OBSLTYPE
280
     0
  9
$INTERSECTIONDISPLAY
280
     0
  9
$INTERSECTIONCOLOR
 70
   257
  9
$DIMASSOC
280
     2
  9
$PROJECTNAME
  1

  9
$CAMERADISPLAY
290
     0
  9
$LENSLENGTH
 40
50.0
  9
$CAMERAHEIGHT
 40
0.0
  9
$STEPSPERSEC
 40
2.0
  9
$STEPSIZE
 40
6.0
  9
$3DDWFPREC
 40
2.0
  9
$PSOLWIDTH
 40
0.25
  9
$PSOLHEIGHT
 40
4.0
  9
$LOFTANG1
 40
1.570796326794897
  9
$LOFTANG2
 40
1.570796326794897
  9
$LOFTMAG1
 40
0.0
  9
$LOFTMAG2
 40
0.0
  9
$LOFTPARAM
 70
     7
  9
$LOFTNORMALS
280
     1
  9
$LATITUDE
 40
37.795
  9
$LONGITUDE
 40
-122.394
  9
$NORTHDIRECTION
 40
0.0
  9
$TIMEZONE
 70
 -8000
  9
$LIGHTGLYPHDISPLAY
280
     1
  9
$TILEMODELIGHTSYNCH
280
     1
  9
$CMATERIAL
347
3C
  9
$SOLIDHIST
280
     1
  9
$SHOWHIST
280
     1
  9
$DWFFRAME
280
     2
  9
$DGNFRAME
280
     2
  9
$REALWORLDSCALE
290
     1
  9
$INTERFERECOLOR
 62
   256
  9
$CSHADOW
280
     0
  9
$SHADOWPLANELOCATION
 40
0.0
  0
ENDSEC
  0
SECTION
  2
CLASSES
  0
CLASS
  1
ACDBDICTIONARYWDFLT
  2
AcDbDictionaryWithDefault
  3
ObjectDBX Classes
 90
        0
 91
        4
280
     0
281
     0
  0
CLASS
  1
VISUALSTYLE
  2
AcDbVisualStyle
  3
ObjectDBX Classes
 90
     4095
 91
        4
280
     0
281
     0
  0
CLASS
  1
MATERIAL
  2
AcDbMaterial
  3
ObjectDBX Classes
 90
     1153
 91
        4
280
     0
281
     0
  0
CLASS
  1
SUN
  2
AcDbSun
  3
SCENEOE
 90
     1024
 91
        4
280
     0
281
     0
  0
ENDSEC
  0
SECTION
  2
TABLES
  0
TABLE
  2
VPORT
  5
8
330
0
100
AcDbSymbolTable
 70
     1
  0
VPORT
  5
29
330
8
100
AcDbSymbolTableRecord
100
AcDbViewportTableRecord
  2
*Active
 70
     0
 10
0.0
 20
0.0
 11
1.0
 21
1.0
 12
0.0
 22
0.0
 13
0.0
 23
0.0
 14
0.5
 24
0.5
 15
0.5
 25
0.5
 16
0.0
 26
0.0
 36
1.0
 17
16.31597221814323
 27
22.2073613747072
 37
0.0
 40
44.41472274941439
 41
0.7347100784664182
 42
50.0
 43
0.0
 44
0.0
 50
0.0
 51
0.0
 71
     0
 72
   100
 73
     1
 74
     3
 75
     0
 76
     0
 77
     0
 78
     0
281
     0
 65
     1
110
0.0
120
0.0
130
0.0
111
1.0
121
0.0
131
0.0
112
0.0
122
1.0
132
0.0
 79
     0
146
0.0
 60
     3
 61
     5
292
     1
282
     1
141
0.0
142
0.0
 63
   250
361
3F
  0
ENDTAB
  0
TABLE
  2
LTYPE
  5
5
330
0
100
AcDbSymbolTable
 70
     1
  0
LTYPE
  5
14
330
5
100
AcDbSymbolTableRecord
100
AcDbLinetypeTableRecord
  2
ByBlock
 70
     0
  3

 72
    65
 73
     0
 40
0.0
  0
LTYPE
  5
15
330
5
100
AcDbSymbolTableRecord
100
AcDbLinetypeTableRecord
  2
ByLayer
 70
     0
  3

 72
    65
 73
     0
 40
0.0
  0
LTYPE
  5
16
330
5
100
AcDbSymbolTableRecord
100
AcDbLinetypeTableRecord
  2
Continuous
 70
     0
  3
Solid line
 72
    65
 73
     0
 40
0.0
  0
ENDTAB
  0
TABLE
  2
LAYER
  5
2
330
0
100
AcDbSymbolTable
 70
     2
  0
LAYER
  5
10
330
2
100
AcDbSymbolTableRecord
100
AcDbLayerTableRecord
  2
0
 70
     0
 62
     7
  6
Continuous
370
    -3
390
F
347
3E
  0
LAYER
  5
40
330
2
100
AcDbSymbolTableRecord
100
AcDbLayerTableRecord
  2
Layer 1
 70
     0
 62
     7
  6
Continuous
370
    -3
390
F
347
3E
  0
ENDTAB
  0
TABLE
  2
STYLE
  5
3
330
0
100
AcDbSymbolTable
 70
     1
  0
STYLE
  5
11
330
3
100
AcDbSymbolTableRecord
100
AcDbTextStyleTableRecord
  2
Standard
 70
     0
 40
0.0
 41
1.0
 50
0.0
 71
     0
 42
0.2
  3
txt
  4

  0
ENDTAB
  0
TABLE
  2
VIEW
  5
6
330
0
100
AcDbSymbolTable
 70
     0
  0
ENDTAB
  0
TABLE
  2
UCS
  5
7
330
0
100
AcDbSymbolTable
 70
     0
  0
ENDTAB
  0
TABLE
  2
APPID
  5
9
330
0
100
AcDbSymbolTable
 70
     1
  0
APPID
  5
12
330
9
100
AcDbSymbolTableRecord
100
AcDbRegAppTableRecord
  2
ACAD
 70
     0
  0
ENDTAB
  0
TABLE
  2
DIMSTYLE
  5
A
330
0
100
AcDbSymbolTable
 70
     1
100
AcDbDimStyleTable
  0
DIMSTYLE
105
27
330
A
100
AcDbSymbolTableRecord
100
AcDbDimStyleTableRecord
  2
Standard
 70
     0
178
     0
340
11
  0
ENDTAB
  0
TABLE
  2
BLOCK_RECORD
  5
1
330
0
100
AcDbSymbolTable
 70
     4
  0
BLOCK_RECORD
  5
1F
330
1
100
AcDbSymbolTableRecord
100
AcDbBlockTableRecord
  2
*Model_Space
340
22
 70
     0
280
     1
281
     0
  0
BLOCK_RECORD
  5
1B
330
1
100
AcDbSymbolTableRecord
100
AcDbBlockTableRecord
  2
*Paper_Space
340
1E
 70
     0
280
     1
281
     0
  0
BLOCK_RECORD
  5
23
330
1
100
AcDbSymbolTableRecord
100
AcDbBlockTableRecord
  2
*Paper_Space0
340
26
 70
     0
280
     1
281
     0
  0
BLOCK_RECORD
  5
41
330
1
100
AcDbSymbolTableRecord
100
AcDbBlockTableRecord
  2
block 2
340
0
102
{BLKREFS
331
42
102
}
 70
     0
280
     1
281
     0
  0
BLOCK_RECORD
  5
45
330
1
100
AcDbSymbolTableRecord
100
AcDbBlockTableRecord
  2
block 3
340
0
102
{BLKREFS
331
46
102
}
 70
     0
280
     1
281
     0
  0
BLOCK_RECORD
  5
49
330
1
100
AcDbSymbolTableRecord
100
AcDbBlockTableRecord
  2
block 4
340
0
102
{BLKREFS
331
4A
102
}
 70
     0
280
     1
281
     0
  0
ENDTAB
  0
ENDSEC
  0
SECTION
  2
BLOCKS
  0
BLOCK
  5
20
330
1F
100
AcDbEntity
  8
0
100
AcDbBlockBegin
  2
*Model_Space
 70
     0
 10
0.0
 20
0.0
 30
0.0
  3
*Model_Space
  1

  0
ENDBLK
  5
21
330
1F
100
AcDbEntity
  8
0
100
AcDbBlockEnd
  0
BLOCK
  5
1C
330
1B
100
AcDbEntity
 67
     1
  8
0
100
AcDbBlockBegin
  2
*Paper_Space
 70
     0
 10
0.0
 20
0.0
 30
0.0
  3
*Paper_Space
  1

  0
ENDBLK
  5
1D
330
1B
100
AcDbEntity
 67
     1
  8
0
100
AcDbBlockEnd
  0
BLOCK
  5
24
330
23
100
AcDbEntity
  8
0
100
AcDbBlockBegin
  2
*Paper_Space0
 70
     0
 10
0.0
 20
0.0
 30
0.0
  3
*Paper_Space0
  1

  0
ENDBLK
  5
25
330
23
100
AcDbEntity
  8
0
100
AcDbBlockEnd
  0
BLOCK
  5
43
330
41
100
AcDbEntity
  8
0
100
AcDbBlockBegin
  2
block 2
 70
     0
 10
0.0
 20
0.0
 30
0.0
  3
block 2
  1

  0
ENDBLK
  5
44
330
41
100
AcDbEntity
  8
0
100
AcDbBlockEnd
  0
BLOCK
  5
47
330
45
100
AcDbEntity
  8
0
100
AcDbBlockBegin
  2
block 3
 70
     0
 10
0.0
 20
0.0
 30
0.0
  3
block 3
  1

  0
INSERT
  5
4A
330
45
100
AcDbEntity
  8
Layer 1
100
AcDbBlockReference
  2
block 4
 10
0.0
 20
0.0
 30
0.0
  0
ENDBLK
  5
48
330
45
100
AcDbEntity
  8
0
100
AcDbBlockEnd
  0
BLOCK
  5
4B
330
49
100
AcDbEntity
  8
0
100
AcDbBlockBegin
  2
block 4
 70
     0
 10
0.0
 20
0.0
 30
0.0
  3
block 4
  1

  0
SPLINE
  5
4D
330
49
100
AcDbEntity
  8
Layer 1
370
     0
100
AcDbSpline
210
0.0
220
0.0
230
1.0
 70
    11
 71
     3
 72
    86
 73
    82
 74
     0
 42
0.0000000001
 43
0.0000000001
 12
1.0
 22
0.0
 32
0.0
 13
1.0
 23
0.0
 33
0.0
 40
0.0
 40
0.0
 40
0.0
 40
0.0
 40
1.0
 40
1.0
 40
1.0
 40
2.0
 40
2.0
 40
2.0
 40
3.0
 40
3.0
 40
3.0
 40
4.0
 40
4.0
 40
4.0
 40
5.0
 40
5.0
 40
5.0
 40
6.0
 40
6.0
 40
6.0
 40
7.0
 40
7.0
 40
7.0
 40
8.0
 40
8.0
 40
8.0
 40
9.0
 40
9.0
 40
9.0
 40
10.0
 40
10.0
 40
10.0
 40
11.0
 40
11.0
 40
11.0
 40
12.0
 40
12.0
 40
12.0
 40
13.0
 40
13.0
 40
13.0
 40
14.0
 40
14.0
 40
14.0
 40
15.0
 40
15.0
 40
15.0
 40
16.0
 40
16.0
 40
16.0
 40
17.0
 40
17.0
 40
17.0
 40
18.0
 40
18.0
 40
18.0
 40
19.0
 40
19.0
 40
19.0
 40
20.0
 40
20.0
 40
20.0
 40
21.0
 40
21.0
 40
21.0
 40
22.0
 40
22.0
 40
22.0
 40
23.0
 40
23.0
 40
23.0
 40
24.0
 40
24.0
 40
24.0
 40
25.0
 40
25.0
 40
25.0
 40
26.0
 40
26.0
 40
26.0
 40
27.0
 40
27.0
 40
27.0
 40
27.0
 10
25.50583440354922
 20
29.77443649819216
 30
0.0
 10
25.50583440354922
 20
29.77443649819216
 30
0.0
 10
25.78805770229322
 20
29.88026956235095
 30
0.0
 10
25.78805770229322
 20
29.88026956235095
 30
0.0
 10
25.78805770229322
 20
29.88026956235095
 30
0.0
 10
25.78805770229322
 20
29.88026956235095
 30
0.0
 10
25.78805770229322
 20
29.88026956235095
 30
0.0
 10
26.65812195005476
 20
30.27206708363226
 30
0.0
 10
27.44767323973368
 20
30.82236052908185
 30
0.0
 10
28.1163904967483
 20
31.50304680142687
 30
0.0
 10
29.63333601740585
 20
33.30221360221778
 30
0.0
 10
27.83416719800429
 20
35.31304653132629
 30
0.0
 10
27.83416719800429
 20
37.2180470691462
 30
0.0
 10
27.83416719800429
 20
39.12304760696613
 30
0.0
 10
28.68083440275547
 20
40.53415804485424
 30
0.0
 10
27.9752788473763
 20
42.19221386914337
 30
0.0
 10
27.55194659074114
 20
43.25054720221212
 30
0.0
 10
26.52889049714518
 20
43.74443612462105
 30
0.0
 10
25.36472275417721
 20
43.7797138687465
 30
0.0
 10
24.38224342584346
 20
43.81988850994828
 30
0.0
 10
23.41062422273079
 20
43.56161072754617
 30
0.0
 10
22.57777777213333
 20
43.03888090567699
 30
0.0
 10
21.83694497728138
 20
42.58026989561106
 30
0.0
 10
18.23861137569954
 20
38.91138080577833
 30
0.0
 10
18.16805555101354
 20
38.91138080577833
 30
0.0
 10
18.12865900010312
 20
39.12986243647288
 30
0.0
 10
18.0168118219898
 20
39.32870264924513
 30
0.0
 10
17.85055501279675
 20
39.47582538465571
 30
0.0
 10
17.68080196998233
 20
39.61300679911963
 30
0.0
 10
17.46908604926907
 20
39.68773004546343
 30
0.0
 10
17.25083252157637
 20
39.6874921858435
 30
0.0
 10
17.25083252157637
 20
39.6874921858435
 30
0.0
 10
16.22777777372083
 20
39.6874921858435
 30
0.0
 10
16.22777777372083
 20
39.6874921858435
 30
0.0
 10
16.0656335472633
 20
39.6788643075506
 30
0.0
 10
15.90811597638321
 20
39.63039712974781
 30
0.0
 10
15.76916693187246
 20
39.54638120934171
 30
0.0
 10
15.55750080355488
 20
39.44054780874781
 30
0.0
 10
15.34583332949687
 20
39.22888134399513
 30
0.0
 10
15.34583332949687
 20
39.08777003105823
 30
0.0
 10
14.22215891588484
 20
40.73136621092738
 30
0.0
 10
12.86770885993547
 20
42.20462681059611
 30
0.0
 10
11.32416612553946
 20
43.46221425572624
 30
0.0
 10
10.52584397264761
 20
44.0279764826962
 30
0.0
 10
9.584604859605056
 20
44.35802130347702
 30
0.0
 10
8.607777641051792
 20
44.41471427230987
 30
0.0
 10
7.40833333148125
 20
44.44999205060451
 30
0.0
 10
6.385277910755501
 20
44.02665870844045
 30
0.0
 10
5.856111244221126
 20
43.00360316155154
 30
0.0
 10
5.044722288248063
 20
41.41610316194841
 30
0.0
 10
5.750278180062335
 20
39.6522142735005
 30
0.0
 10
5.644444443033334
 20
38.02943636155437
 30
0.0
 10
5.538610706004332
 20
36.40665844960824
 30
0.0
 10
3.563055689238834
 20
34.25471454399796
 30
0.0
 10
4.938888887654167
 20
32.34971400617804
 30
0.0
 10
5.715000267719335
 20
31.46776956195408
 30
0.0
 10
6.526388887257292
 20
30.65638094241612
 30
0.0
 10
7.655278045012044
 20
30.30360316472654
 30
0.0
 10
7.655278045012044
 20
30.30360316472654
 30
0.0
 10
7.690555957355044
 20
30.30360316472654
 30
0.0
 10
7.690555957355044
 20
30.30360316472654
 30
0.0
 10
7.690555957355044
 20
30.30360316472654
 30
0.0
 10
7.796389021513835
 20
30.23304734004054
 30
0.0
 10
7.796389021513835
 20
30.23304734004054
 30
0.0
 10
2.954694553802172
 20
27.25660461168241
 30
0.0
 10
0.0034423570217651
 20
21.98174086127179
 30
0.0
 10
0.0
 20
16.29832646704242
 30
0.0
 10
-0.0066673657943693
 20
12.92280307022869
 30
0.0
 10
1.041735475332709
 20
9.629585157742264
 30
0.0
 10
2.998611110361459
 20
6.879160879322883
 30
0.0
 10
2.998611110361459
 20
6.879160879322883
 30
0.0
 10
3.421944376301937
 20
6.31471428183487
 30
0.0
 10
3.421944376301937
 20
6.31471428183487
 30
0.0
 10
8.963561129978213
 20
-0.7785381527118033
 30
0.0
 10
19.20614894810645
 20
-2.03639096103178
 30
0.0
 10
26.29940407413397
 20
3.505225456209389
 30
0.0
 10
33.3926592001615
 20
9.046841873450559
 30
0.0
 10
34.65050931700063
 20
19.28943103731922
 30
0.0
 10
29.10889289975945
 20
26.38268481760632
 30
0.0
 10
28.08750283280831
 20
27.69006221926719
 30
0.0
 10
26.87248225070104
 20
28.83382584592759
 30
0.0
 10
25.50583440354922
 20
29.77443649819216
 30
0.0
  0
POLYLINE
  5
4E
330
49
100
AcDbEntity
  8
Layer 1
370
     0
100
AcDb2dPolyline
 66
     1
 10
0.0
 20
0.0
 30
0.0
  0
VERTEX
  5
4F
330
4E
100
AcDbEntity
  8
Layer 1
370
     0
100
AcDbVertex
100
AcDb2dVertex
 10
28.18694497569388
 20
18.6266592614975
 30
0.0
  0
VERTEX
  5
50
330
4E
100
AcDbEntity
  8
Layer 1
370
     0
100
AcDbVertex
100
AcDb2dVertex
 10
28.99833494097226
 20
18.6266592614975
 30
0.0
  0
VERTEX
  5
51
330
4E
100
AcDbEntity
  8
Layer 1
370
     0
100
AcDbVertex
100
AcDb2dVertex
 10
29.84499945424258
 20
17.95638094559112
 30
0.0
  0
VERTEX
  5
52
330
4E
100
AcDbEntity
  8
Layer 1
370
     0
100
AcDbVertex
100
AcDb2dVertex
 10
28.78666612117383
 20
18.06221535549033
 30
0.0
  0
VERTEX
  5
53
330
4E
100
AcDbEntity
  8
Layer 1
370
     0
100
AcDbVertex
100
AcDb2dVertex
 10
28.18694497569388
 20
18.6266592614975
 30
0.0
  0
SEQEND
  5
54
330
4E
100
AcDbEntity
  8
Layer 1
370
     0
  0
POLYLINE
  5
55
330
49
100
AcDbEntity
  8
Layer 1
370
     0
100
AcDb2dPolyline
 66
     1
 10
0.0
 20
0.0
 30
0.0
  0
VERTEX
  5
56
330
55
100
AcDbEntity
  8
Layer 1
370
     0
100
AcDbVertex
100
AcDb2dVertex
 10
28.71611164222825
 20
16.82749313357679
 30
0.0
  0
VERTEX
  5
57
330
55
100
AcDbEntity
  8
Layer 1
370
     0
100
AcDbVertex
100
AcDb2dVertex
 10
28.01055608684909
 20
17.63888309885517
 30
0.0
  0
VERTEX
  5
58
330
55
100
AcDbEntity
  8
Layer 1
370
     0
100
AcDbVertex
100
AcDb2dVertex
 10
28.01055608684909
 20
18.45027037265271
 30
0.0
  0
VERTEX
  5
59
330
55
100
AcDbEntity
  8
Layer 1
370
     0
100
AcDbVertex
100
AcDb2dVertex
 10
28.57499999285625
 20
17.88582646664554
 30
0.0
  0
VERTEX
  5
5A
330
55
100
AcDbEntity
  8
Layer 1
370
     0
100
AcDbVertex
100
AcDb2dVertex
 10
28.71611164222825
 20
16.82749313357679
 30
0.0
  0
SEQEND
  5
5B
330
55
100
AcDbEntity
  8
Layer 1
370
     0
  0
POLYLINE
  5
5C
330
49
100
AcDbEntity
  8
Layer 1
370
     0
100
AcDb2dPolyline
 66
     1
 10
0.0
 20
0.0
 30
0.0
  0
VERTEX
  5
5D
330
5C
100
AcDbEntity
  8
Layer 1
370
     0
100
AcDbVertex
100
AcDb2dVertex
 10
28.01055608684909
 20
19.0852714490863
 30
0.0
  0
VERTEX
  5
5E
330
5C
100
AcDbEntity
  8
Layer 1
370
     0
100
AcDbVertex
100
AcDb2dVertex
 10
28.01055608684909
 20
19.89665872288383
 30
0.0
  0
VERTEX
  5
5F
330
5C
100
AcDbEntity
  8
Layer 1
370
     0
100
AcDbVertex
100
AcDb2dVertex
 10
28.71611164222825
 20
20.743325927635
 30
0.0
  0
VERTEX
  5
60
330
5C
100
AcDbEntity
  8
Layer 1
370
     0
100
AcDbVertex
100
AcDb2dVertex
 10
28.57499999285625
 20
19.64971535509346
 30
0.0
  0
VERTEX
  5
61
330
5C
100
AcDbEntity
  8
Layer 1
370
     0
100
AcDbVertex
100
AcDb2dVertex
 10
28.01055608684909
 20
19.0852714490863
 30
0.0
  0
SEQEND
  5
62
330
5C
100
AcDbEntity
  8
Layer 1
370
     0
  0
POLYLINE
  5
63
330
49
100
AcDbEntity
  8
Layer 1
370
     0
100
AcDb2dPolyline
 66
     1
 10
0.0
 20
0.0
 30
0.0
  0
VERTEX
  5
64
330
63
100
AcDbEntity
  8
Layer 1
370
     0
100
AcDbVertex
100
AcDb2dVertex
 10
28.18694497569388
 20
18.9088825602415
 30
0.0
  0
VERTEX
  5
65
330
63
100
AcDbEntity
  8
Layer 1
370
     0
100
AcDbVertex
100
AcDb2dVertex
 10
28.78666612117383
 20
19.47332646624867
 30
0.0
  0
VERTEX
  5
66
330
63
100
AcDbEntity
  8
Layer 1
370
     0
100
AcDbVertex
100
AcDb2dVertex
 10
29.84499945424258
 20
19.57916087614788
 30
0.0
  0
VERTEX
  5
67
330
63
100
AcDbEntity
  8
Layer 1
370
     0
100
AcDbVertex
100
AcDb2dVertex
 10
28.99833224949141
 20
18.9088825602415
 30
0.0
  0
VERTEX
  5
68
330
63
100
AcDbEntity
  8
Layer 1
370
     0
100
AcDbVertex
100
AcDb2dVertex
 10
28.18694497569388
 20
18.9088825602415
 30
0.0
  0
SEQEND
  5
69
330
63
100
AcDbEntity
  8
Layer 1
370
     0
  0
SPLINE
  5
6A
330
49
100
AcDbEntity
  8
Layer 1
370
     0
100
AcDbSpline
210
0.0
220
0.0
230
1.0
 70
    11
 71
     3
 72
    17
 73
    13
 74
     0
 42
0.0000000001
 43
0.0000000001
 12
1.0
 22
0.0
 32
0.0
 13
1.0
 23
0.0
 33
0.0
 40
0.0
 40
0.0
 40
0.0
 40
0.0
 40
1.0
 40
1.0
 40
1.0
 40
2.0
 40
2.0
 40
2.0
 40
3.0
 40
3.0
 40
3.0
 40
4.0
 40
4.0
 40
4.0
 40
4.0
 10
29.88027938519622
 20
20.56693703879021
 30
0.0
 10
29.88027938519622
 20
20.56693703879021
 30
0.0
 10
29.98611110361459
 20
20.56693703879021
 30
0.0
 10
29.98611110361459
 20
20.56693703879021
 30
0.0
 10
30.05666558256016
 20
20.35527091047263
 30
0.0
 10
30.0919455135138
 20
20.10832485120141
 30
0.0
 10
30.16249999245938
 20
19.86138148341104
 30
0.0
 10
30.16249999245938
 20
19.86138148341104
 30
0.0
 10
29.06888941991784
 20
19.75554707351183
 30
0.0
 10
29.06888941991784
 20
19.75554707351183
 30
0.0
 10
29.06888941991784
 20
19.75554707351183
 30
0.0
 10
29.88027938519622
 20
20.56693703879021
 30
0.0
 10
29.88027938519622
 20
20.56693703879021
 30
0.0
  0
SPLINE
  5
6B
330
49
100
AcDbEntity
  8
Layer 1
370
     0
100
AcDbSpline
210
0.0
220
0.0
230
1.0
 70
    11
 71
     3
 72
    14
 73
    10
 74
     0
 42
0.0000000001
 43
0.0000000001
 12
1.0
 22
0.0
 32
0.0
 13
1.0
 23
0.0
 33
0.0
 40
0.0
 40
0.0
 40
0.0
 40
0.0
 40
1.0
 40
1.0
 40
1.0
 40
2.0
 40
2.0
 40
2.0
 40
3.0
 40
3.0
 40
3.0
 40
3.0
 10
30.2330571628858
 20
19.57915818466704
 30
0.0
 10
30.29345399311159
 20
19.35875550951733
 30
0.0
 10
30.34057643979577
 20
19.13492657924831
 30
0.0
 10
30.3741688122578
 20
18.90887986876066
 30
0.0
 10
30.3741688122578
 20
18.90887986876066
 30
0.0
 10
29.42166719760742
 20
18.90887986876066
 30
0.0
 10
29.42166719760742
 20
18.90887986876066
 30
0.0
 10
29.42166719760742
 20
18.90887986876066
 30
0.0
 10
30.2330571628858
 20
19.57915818466704
 30
0.0
 10
30.2330571628858
 20
19.57915818466704
 30
0.0
  0
SPLINE
  5
6C
330
49
100
AcDbEntity
  8
Layer 1
370
     0
100
AcDbSpline
210
0.0
220
0.0
230
1.0
 70
    11
 71
     3
 72
    14
 73
    10
 74
     0
 42
0.0000000001
 43
0.0000000001
 12
1.0
 22
0.0
 32
0.0
 13
1.0
 23
0.0
 33
0.0
 40
0.0
 40
0.0
 40
0.0
 40
0.0
 40
1.0
 40
1.0
 40
1.0
 40
2.0
 40
2.0
 40
2.0
 40
3.0
 40
3.0
 40
3.0
 40
3.0
 10
24.83555608764284
 20
42.6861031279874
 30
0.0
 10
26.17611271945559
 20
43.10943647803666
 30
0.0
 10
26.66999945503633
 20
42.05110322907669
 30
0.0
 10
26.10555554902917
 20
40.78110309482015
 30
0.0
 10
24.54103810438585
 20
39.43192665915704
 30
0.0
 10
22.56124400528498
 20
38.65993189904866
 30
0.0
 10
20.49638834546862
 20
38.59388094043175
 30
0.0
 10
21.27489918070965
 20
40.52676353765987
 30
0.0
 10
22.86042363337045
 20
42.02205340341561
 30
0.0
 10
24.83555608764284
 20
42.6861031279874
 30
0.0
  0
SPLINE
  5
6D
330
49
100
AcDbEntity
  8
Layer 1
370
     0
100
AcDbSpline
210
0.0
220
0.0
230
1.0
 70
    11
 71
     3
 72
    26
 73
    22
 74
     0
 42
0.0000000001
 43
0.0000000001
 12
1.0
 22
0.0
 32
0.0
 13
1.0
 23
0.0
 33
0.0
 40
0.0
 40
0.0
 40
0.0
 40
0.0
 40
1.0
 40
1.0
 40
1.0
 40
2.0
 40
2.0
 40
2.0
 40
3.0
 40
3.0
 40
3.0
 40
4.0
 40
4.0
 40
4.0
 40
5.0
 40
5.0
 40
5.0
 40
6.0
 40
6.0
 40
6.0
 40
7.0
 40
7.0
 40
7.0
 40
7.0
 10
21.48416719959179
 20
31.99693622848845
 30
0.0
 10
21.48416719959179
 20
31.99693622848845
 30
0.0
 10
21.5547230242778
 20
31.89110316432966
 30
0.0
 10
21.5547230242778
 20
31.89110316432966
 30
0.0
 10
21.52892652609156
 20
31.86216839947484
 30
0.0
 10
21.51616890687275
 20
31.82389554181839
 30
0.0
 10
21.51944578480501
 20
31.78527010017087
 30
0.0
 10
20.82434259529847
 20
32.01063182878275
 30
0.0
 10
20.11779926644815
 20
32.19904221683446
 30
0.0
 10
19.40277911866751
 20
32.34971400617804
 30
0.0
 10
19.29694605450872
 20
32.49082565555004
 30
0.0
 10
19.22639022982272
 20
32.66721454439483
 30
0.0
 10
19.12055716566393
 20
32.84360343323962
 30
0.0
 10
19.12055716566393
 20
32.84360343323962
 30
0.0
 10
19.08527992619114
 20
32.84360343323962
 30
0.0
 10
19.08527992619114
 20
32.84360343323962
 30
0.0
 10
18.78255965505032
 20
33.47601328648695
 30
0.0
 10
18.54611440830699
 20
34.13805970822017
 30
0.0
 10
18.37972437081197
 20
34.81915912287533
 30
0.0
 10
18.37972437081197
 20
34.81915912287533
 30
0.0
 10
21.48416719959179
 20
31.99693622848845
 30
0.0
 10
21.48416719959179
 20
31.99693622848845
 30
0.0
  0
SPLINE
  5
6E
330
49
100
AcDbEntity
  8
Layer 1
370
     0
100
AcDbSpline
210
0.0
220
0.0
230
1.0
 70
    11
 71
     3
 72
    29
 73
    25
 74
     0
 42
0.0000000001
 43
0.0000000001
 12
1.0
 22
0.0
 32
0.0
 13
1.0
 23
0.0
 33
0.0
 40
0.0
 40
0.0
 40
0.0
 40
0.0
 40
1.0
 40
1.0
 40
1.0
 40
2.0
 40
2.0
 40
2.0
 40
3.0
 40
3.0
 40
3.0
 40
4.0
 40
4.0
 40
4.0
 40
5.0
 40
5.0
 40
5.0
 40
6.0
 40
6.0
 40
6.0
 40
7.0
 40
7.0
 40
7.0
 40
8.0
 40
8.0
 40
8.0
 40
8.0
 10
16.22777777372083
 20
38.31165898742817
 30
0.0
 10
16.38176143024769
 20
38.45208296344354
 30
0.0
 10
16.58387280155539
 20
38.52787439124883
 30
0.0
 10
16.792221679728
 20
38.52332578861596
 30
0.0
 10
16.99314476224138
 20
38.50953598649199
 30
0.0
 10
17.18175970283754
 20
38.42151581545449
 30
0.0
 10
17.32138834626237
 20
38.27638107508516
 30
0.0
 10
17.46181232227775
 20
38.1223967456881
 30
0.0
 10
17.53760307721282
 20
37.92028537438039
 30
0.0
 10
17.53305447457995
 20
37.71193649620779
 30
0.0
 10
17.52666086182588
 20
37.50917715088596
 30
0.0
 10
17.43740328246858
 20
37.31790908304404
 30
0.0
 10
17.28610976104916
 20
37.18276982967341
 30
0.0
 10
17.12866351441155
 20
37.04810696841286
 30
0.0
 10
16.92883451886282
 20
36.97317143151719
 30
0.0
 10
16.721665855042
 20
36.97110302848562
 30
0.0
 10
16.51890583684996
 20
36.97749596836948
 30
0.0
 10
16.32763844187824
 20
37.06675422059699
 30
0.0
 10
16.19249918850762
 20
37.21804774201642
 30
0.0
 10
16.03654402225972
 20
37.36206282635304
 30
0.0
 10
15.95802679722577
 20
37.57144186882016
 30
0.0
 10
15.98083306019004
 20
37.78249232089379
 30
0.0
 10
15.97235085829804
 20
37.988513068133
 30
0.0
 10
16.06443045532431
 20
38.18582552908899
 30
0.0
 10
16.22777777372083
 20
38.31165898742817
 30
0.0
  0
SPLINE
  5
6F
330
49
100
AcDbEntity
  8
Layer 1
370
     0
100
AcDbSpline
210
0.0
220
0.0
230
1.0
 70
    11
 71
     3
 72
    14
 73
    10
 74
     0
 42
0.0000000001
 43
0.0000000001
 12
1.0
 22
0.0
 32
0.0
 13
1.0
 23
0.0
 33
0.0
 40
0.0
 40
0.0
 40
0.0
 40
0.0
 40
1.0
 40
1.0
 40
1.0
 40
2.0
 40
2.0
 40
2.0
 40
3.0
 40
3.0
 40
3.0
 40
3.0
 10
7.655278045012044
 20
41.48665898663442
 30
0.0
 10
7.16138929082067
 20
42.79193669679885
 30
0.0
 10
7.761111109170834
 20
43.77971454161671
 30
0.0
 10
9.031111243427375
 20
43.25054787508233
 30
0.0
 10
10.96478345384925
 20
42.47643121876053
 30
0.0
 10
12.44359741959486
 20
40.86789729633144
 30
0.0
 10
13.05277777451458
 20
38.87610322987044
 30
0.0
 10
11.00312629000774
 20
39.08634220046844
 30
0.0
 10
9.092600142007178
 20
40.01038779741981
 30
0.0
 10
7.655278045012044
 20
41.48665898663442
 30
0.0
  0
SPLINE
  5
70
330
49
100
AcDbEntity
  8
Layer 1
370
     0
100
AcDbSpline
210
0.0
220
0.0
230
1.0
 70
    11
 71
     3
 72
    29
 73
    25
 74
     0
 42
0.0000000001
 43
0.0000000001
 12
1.0
 22
0.0
 32
0.0
 13
1.0
 23
0.0
 33
0.0
 40
0.0
 40
0.0
 40
0.0
 40
0.0
 40
1.0
 40
1.0
 40
1.0
 40
2.0
 40
2.0
 40
2.0
 40
3.0
 40
3.0
 40
3.0
 40
4.0
 40
4.0
 40
4.0
 40
5.0
 40
5.0
 40
5.0
 40
6.0
 40
6.0
 40
6.0
 40
7.0
 40
7.0
 40
7.0
 40
8.0
 40
8.0
 40
8.0
 40
8.0
 10
15.02833279128008
 20
34.92499218703412
 30
0.0
 10
14.80784264300282
 20
34.19559684004511
 30
0.0
 10
14.47455118665168
 20
33.50520508776274
 30
0.0
 10
14.04055528289733
 20
32.87888067271241
 30
0.0
 10
14.04055528289733
 20
32.87888067271241
 30
0.0
 10
14.04055528289733
 20
32.87888067271241
 30
0.0
 10
14.04055528289733
 20
32.87888067271241
 30
0.0
 10
14.04055528289733
 20
32.84360343323962
 30
0.0
 10
14.00527804342454
 20
32.84360343323962
 30
0.0
 10
14.00527804342454
 20
32.80832484802641
 30
0.0
 10
14.00527804342454
 20
32.80832484802641
 30
0.0
 10
13.72305609042096
 20
32.45554707033683
 30
0.0
 10
13.72305609042096
 20
32.45554707033683
 30
0.0
 10
12.98277235766197
 20
32.3452286533451
 30
0.0
 10
12.2516921436622
 20
32.1801453298017
 30
0.0
 10
11.53583359959746
 20
31.96165764327524
 30
0.0
 10
11.53583359959746
 20
31.96165764327524
 30
0.0
 10
11.53583359959746
 20
32.03221346796124
 30
0.0
 10
11.53583359959746
 20
32.03221346796124
 30
0.0
 10
11.53583359959746
 20
32.03221346796124
 30
0.0
 10
11.74749972791504
 20
32.34971400617804
 30
0.0
 10
11.74749972791504
 20
32.34971400617804
 30
0.0
 10
11.74749972791504
 20
32.34971400617804
 30
0.0
 10
15.02833279128008
 20
34.92499218703412
 30
0.0
 10
15.02833279128008
 20
34.92499218703412
 30
0.0
  0
SPLINE
  5
71
330
49
100
AcDbEntity
  8
Layer 1
370
     0
100
AcDbSpline
210
0.0
220
0.0
230
1.0
 70
    11
 71
     3
 72
   239
 73
   235
 74
     0
 42
0.0000000001
 43
0.0000000001
 12
1.0
 22
0.0
 32
0.0
 13
1.0
 23
0.0
 33
0.0
 40
0.0
 40
0.0
 40
0.0
 40
0.0
 40
1.0
 40
1.0
 40
1.0
 40
2.0
 40
2.0
 40
2.0
 40
3.0
 40
3.0
 40
3.0
 40
4.0
 40
4.0
 40
4.0
 40
5.0
 40
5.0
 40
5.0
 40
6.0
 40
6.0
 40
6.0
 40
7.0
 40
7.0
 40
7.0
 40
8.0
 40
8.0
 40
8.0
 40
9.0
 40
9.0
 40
9.0
 40
10.0
 40
10.0
 40
10.0
 40
11.0
 40
11.0
 40
11.0
 40
12.0
 40
12.0
 40
12.0
 40
13.0
 40
13.0
 40
13.0
 40
14.0
 40
14.0
 40
14.0
 40
15.0
 40
15.0
 40
15.0
 40
16.0
 40
16.0
 40
16.0
 40
17.0
 40
17.0
 40
17.0
 40
18.0
 40
18.0
 40
18.0
 40
19.0
 40
19.0
 40
19.0
 40
20.0
 40
20.0
 40
20.0
 40
21.0
 40
21.0
 40
21.0
 40
22.0
 40
22.0
 40
22.0
 40
23.0
 40
23.0
 40
23.0
 40
24.0
 40
24.0
 40
24.0
 40
25.0
 40
25.0
 40
25.0
 40
26.0
 40
26.0
 40
26.0
 40
27.0
 40
27.0
 40
27.0
 40
28.0
 40
28.0
 40
28.0
 40
29.0
 40
29.0
 40
29.0
 40
30.0
 40
30.0
 40
30.0
 40
31.0
 40
31.0
 40
31.0
 40
32.0
 40
32.0
 40
32.0
 40
33.0
 40
33.0
 40
33.0
 40
34.0
 40
34.0
 40
34.0
 40
35.0
 40
35.0
 40
35.0
 40
36.0
 40
36.0
 40
36.0
 40
37.0
 40
37.0
 40
37.0
 40
38.0
 40
38.0
 40
38.0
 40
39.0
 40
39.0
 40
39.0
 40
40.0
 40
40.0
 40
40.0
 40
41.0
 40
41.0
 40
41.0
 40
42.0
 40
42.0
 40
42.0
 40
43.0
 40
43.0
 40
43.0
 40
44.0
 40
44.0
 40
44.0
 40
45.0
 40
45.0
 40
45.0
 40
46.0
 40
46.0
 40
46.0
 40
47.0
 40
47.0
 40
47.0
 40
48.0
 40
48.0
 40
48.0
 40
49.0
 40
49.0
 40
49.0
 40
50.0
 40
50.0
 40
50.0
 40
51.0
 40
51.0
 40
51.0
 40
52.0
 40
52.0
 40
52.0
 40
53.0
 40
53.0
 40
53.0
 40
54.0
 40
54.0
 40
54.0
 40
55.0
 40
55.0
 40
55.0
 40
56.0
 40
56.0
 40
56.0
 40
57.0
 40
57.0
 40
57.0
 40
58.0
 40
58.0
 40
58.0
 40
59.0
 40
59.0
 40
59.0
 40
60.0
 40
60.0
 40
60.0
 40
61.0
 40
61.0
 40
61.0
 40
62.0
 40
62.0
 40
62.0
 40
63.0
 40
63.0
 40
63.0
 40
64.0
 40
64.0
 40
64.0
 40
65.0
 40
65.0
 40
65.0
 40
66.0
 40
66.0
 40
66.0
 40
67.0
 40
67.0
 40
67.0
 40
68.0
 40
68.0
 40
68.0
 40
69.0
 40
69.0
 40
69.0
 40
70.0
 40
70.0
 40
70.0
 40
71.0
 40
71.0
 40
71.0
 40
72.0
 40
72.0
 40
72.0
 40
73.0
 40
73.0
 40
73.0
 40
74.0
 40
74.0
 40
74.0
 40
75.0
 40
75.0
 40
75.0
 40
76.0
 40
76.0
 40
76.0
 40
77.0
 40
77.0
 40
77.0
 40
78.0
 40
78.0
 40
78.0
 40
78.0
 10
16.33361083787963
 20
30.62110370294333
 30
0.0
 10
20.80229129271203
 20
30.61833147767005
 30
0.0
 10
25.00963030295848
 20
28.51466197254682
 30
0.0
 10
27.69305554863229
 20
24.94138067469679
 30
0.0
 10
27.50984106435735
 20
25.04661623010735
 30
0.0
 10
27.30434919310474
 20
25.10705612402671
 30
0.0
 10
27.09333440315234
 20
25.11776956354158
 30
0.0
 10
26.68602722348529
 20
25.10792008937887
 30
0.0
 10
26.29172527927505
 20
24.97237980536191
 30
0.0
 10
25.96444659113801
 20
24.72971454637921
 30
0.0
 10
25.59889235386368
 20
24.47212368035474
 30
0.0
 10
25.29719619118547
 20
24.13422440879208
 30
0.0
 10
25.08250214691406
 20
23.74193703799646
 30
0.0
 10
24.96488443386295
 20
23.52917009401211
 30
0.0
 10
24.87027619058012
 20
23.3044758526505
 30
0.0
 10
24.80027884817005
 20
23.07165872209008
 30
0.0
 10
24.33813005474718
 20
22.34588476258185
 30
0.0
 10
23.70916866133616
 20
21.74111170755048
 30
0.0
 10
22.96583548077655
 20
21.30776983364216
 30
0.0
 10
23.00111272024934
 20
21.30776983364216
 30
0.0
 10
23.00111272024934
 20
21.37832431258774
 30
0.0
 10
23.03638995972213
 20
21.41360424354138
 30
0.0
 10
23.03638995972213
 20
21.41360424354138
 30
0.0
 10
24.62388995932526
 20
24.76499313159242
 30
0.0
 10
24.62388995932526
 20
24.76499313159242
 30
0.0
 10
24.62388995932526
 20
24.76499313159242
 30
0.0
 10
24.62388995932526
 20
24.76499313159242
 30
0.0
 10
24.62388995932526
 20
24.76499313159242
 30
0.0
 10
24.62388995932526
 20
24.78447676145002
 30
0.0
 10
24.60809634971006
 20
24.80027037106521
 30
0.0
 10
24.58861271985247
 20
24.80027037106521
 30
0.0
 10
24.58861271985247
 20
24.80027037106521
 30
0.0
 10
23.77722275457409
 20
24.80027037106521
 30
0.0
 10
23.77722275457409
 20
24.80027037106521
 30
0.0
 10
23.73825549485889
 20
24.80027037106521
 30
0.0
 10
23.70666827562851
 20
24.76868046035398
 30
0.0
 10
23.70666827562851
 20
24.72971454637921
 30
0.0
 10
23.70666827562851
 20
24.72971454637921
 30
0.0
 10
23.6008338657293
 20
24.55332565753442
 30
0.0
 10
23.6008338657293
 20
24.55332565753442
 30
0.0
 10
23.53027938678372
 20
24.906103435224
 30
0.0
 10
23.2833333275125
 20
25.047215084596
 30
0.0
 10
22.89527831035013
 20
25.08249232406879
 30
0.0
 10
22.56933055949235
 20
25.0749952041671
 30
0.0
 10
22.25183944145853
 20
24.97730521531349
 30
0.0
 10
21.97805662665338
 20
24.80027037106521
 30
0.0
 10
21.69477423019575
 20
24.63365290343854
 30
0.0
 10
21.45341703090509
 20
24.40436430426965
 30
0.0
 10
21.27250107127422
 20
24.12999205515883
 30
0.0
 10
21.06201381156799
 20
23.87714223264785
 30
0.0
 10
20.89510028104806
 20
23.59100686649149
 30
0.0
 10
20.77861164421263
 20
23.28332485040766
 30
0.0
 10
20.74333440473984
 20
23.24804761093487
 30
0.0
 10
20.74333440473984
 20
23.21276902572166
 30
0.0
 10
20.74333440473984
 20
23.14221320103566
 30
0.0
 10
20.74333440473984
 20
23.14221320103566
 30
0.0
 10
20.17889049873268
 20
22.4013804061837
 30
0.0
 10
20.17889049873268
 20
22.4013804061837
 30
0.0
 10
20.03142695455974
 20
22.20971736352735
 30
0.0
 10
19.86605160534436
 20
22.03252910487075
 30
0.0
 10
19.68500107167109
 20
21.87221373964933
 30
0.0
 10
19.68500107167109
 20
21.87221373964933
 30
0.0
 10
19.47333494335351
 20
21.76637932975011
 30
0.0
 10
19.47333494335351
 20
21.76637932975011
 30
0.0
 10
19.36750187919472
 20
21.76637932975011
 30
0.0
 10
19.29694605450872
 20
21.83693380869569
 30
0.0
 10
19.33222329398151
 20
21.9427682185949
 30
0.0
 10
19.36750053345429
 20
22.04860262849412
 30
0.0
 10
19.6497238321983
 20
23.00110155166366
 30
0.0
 10
20.24944497767826
 20
24.1652679488912
 30
0.0
 10
20.30965205850427
 20
24.24800945311584
 30
0.0
 10
20.34623466618826
 20
24.34556217644622
 30
0.0
 10
20.35527804183704
 20
24.44748990189478
 30
0.0
 10
20.34821828757313
 20
24.54492958302954
 30
0.0
 10
20.32434754393353
 20
24.64041255758792
 30
0.0
 10
20.28472221715104
 20
24.72971185489836
 30
0.0
 10
20.23551118132893
 20
24.82815545838937
 30
0.0
 10
20.16281562936888
 20
24.91296805712644
 30
0.0
 10
20.07305608883346
 20
24.97665656842915
 30
0.0
 10
20.07305608883346
 20
24.97665656842915
 30
0.0
 10
19.82611137530267
 20
25.18832269674673
 30
0.0
 10
19.82611137530267
 20
25.18832269674673
 30
0.0
 10
19.82611137530267
 20
25.18832269674673
 30
0.0
 10
19.50861083708588
 20
25.36471158559153
 30
0.0
 10
19.50861083708588
 20
25.36471158559153
 30
0.0
 10
19.50861083708588
 20
25.36471158559153
 30
0.0
 10
19.43805501239987
 20
25.43526741027753
 30
0.0
 10
19.43805501239987
 20
25.43526741027753
 30
0.0
 10
19.43805501239987
 20
25.43526741027753
 30
0.0
 10
19.43805501239987
 20
25.54110047443632
 30
0.0
 10
19.43805501239987
 20
25.54110047443632
 30
0.0
 10
19.45202110651937
 20
25.64076466449183
 30
0.0
 10
19.42672387803042
 20
25.7419562699285
 30
0.0
 10
19.36749918771387
 20
25.8233224274399
 30
0.0
 10
19.30490207189497
 20
25.8934058972371
 30
0.0
 10
19.21447504410928
 20
25.93215918422489
 30
0.0
 10
19.12055447418308
 20
25.92915549159869
 30
0.0
 10
19.00562958772025
 20
25.93190349354434
 30
0.0
 10
18.89334504396916
 20
25.89447576087412
 30
0.0
 10
18.80305393596628
 20
25.8233224274399
 30
0.0
 10
18.73164625759194
 20
25.71974213275076
 30
0.0
 10
18.69462224704889
 20
25.59632696995338
 30
0.0
 10
18.6972208718075
 20
25.47054464975031
 30
0.0
 10
18.69665969805072
 20
25.3493943680864
 30
0.0
 10
18.74803064725323
 20
25.23381006881585
 30
0.0
 10
18.8383325211795
 20
25.15304411153352
 30
0.0
 10
18.51825623579131
 20
24.44146636775729
 30
0.0
 10
18.14071010559937
 20
23.75716409089318
 30
0.0
 10
17.70944336342475
 20
23.10693327008202
 30
0.0
 10
17.70944336342475
 20
23.10693327008202
 30
0.0
 10
17.70944336342475
 20
23.10693327008202
 30
0.0
 10
17.70944336342475
 20
23.10693327008202
 30
0.0
 10
17.32138834626237
 20
22.57776660354764
 30
0.0
 10
16.96861056857279
 20
22.36610047523007
 30
0.0
 10
16.68638726982878
 20
22.40137771470285
 30
0.0
 10
17.03178635277398
 20
22.86072871378439
 30
0.0
 10
17.2287125862283
 20
23.41458298839568
 30
0.0
 10
17.25083117583595
 20
23.98887771430598
 30
0.0
 10
17.28663325407407
 20
24.31478240147019
 30
0.0
 10
17.19847514464312
 20
24.64222392419853
 30
0.0
 10
17.00388646230515
 20
24.90609939800273
 30
0.0
 10
16.78215015839534
 20
25.15642595721884
 30
0.0
 10
16.45514869278563
 20
25.28722654346273
 30
0.0
 10
16.1219420180812
 20
25.25887717569231
 30
0.0
 10
15.72657963041691
 20
25.27860707604749
 30
0.0
 10
15.33763911605559
 20
25.15314235058447
 30
0.0
 10
15.02833144553966
 20
24.90609939800273
 30
0.0
 10
14.6462111436468
 20
24.6522792966461
 30
0.0
 10
14.34113582676411
 20
24.29839128310677
 30
0.0
 10
14.1463870013157
 20
23.88304330440677
 30
0.0
 10
14.01734798928673
 20
23.70153925621063
 30
0.0
 10
13.9217721586391
 20
23.49844011143176
 30
0.0
 10
13.86416504831212
 20
23.28332081318639
 30
0.0
 10
13.72904059808616
 20
23.09230372593353
 30
0.0
 10
13.57542971165674
 20
22.91506029191954
 30
0.0
 10
13.40555555220417
 20
22.75415818387329
 30
0.0
 10
13.22320907050266
 20
22.56432265671263
 30
0.0
 10
13.00809380947855
 20
22.4089623077321
 30
0.0
 10
12.770555821511
 20
22.29554734202491
 30
0.0
 10
12.770555821511
 20
22.29554734202491
 30
0.0
 10
12.24138915497663
 20
22.08388121370733
 30
0.0
 10
12.24138915497663
 20
22.08388121370733
 30
0.0
 10
12.24138915497663
 20
22.08388121370733
 30
0.0
 10
11.85333279207383
 20
22.08388121370733
 30
0.0
 10
11.85333279207383
 20
22.08388121370733
 30
0.0
 10
11.7028547893513
 20
22.07533979923668
 30
0.0
 10
11.55778666313296
 20
22.14127973426861
 30
0.0
 10
11.46527777491146
 20
22.26027010255212
 30
0.0
 10
11.39315012541031
 20
22.41479340098897
 30
0.0
 10
11.35696720263222
 20
22.58364883494063
 30
0.0
 10
11.35944471075267
 20
22.75415952961371
 30
0.0
 10
11.36597558902998
 20
22.88602997949462
 30
0.0
 10
11.38969426400167
 20
23.01648471044955
 30
0.0
 10
11.43000053543867
 20
23.14221454677608
 30
0.0
 10
11.754258036324
 20
23.15554679715591
 30
0.0
 10
12.0749708569327
 20
23.21493835928503
 30
0.0
 10
12.38250080434863
 20
23.31860343562087
 30
0.0
 10
12.72037988980493
 20
23.43226063460437
 30
0.0
 10
13.03220140343276
 20
23.61215786873433
 30
0.0
 10
13.29972248804538
 20
23.84777010215525
 30
0.0
 10
13.55265843794349
 20
24.04334655796437
 30
0.0
 10
13.70733784226951
 20
24.33981721057648
 30
0.0
 10
13.72305609042096
 20
24.65915872169321
 30
0.0
 10
13.74006624937938
 20
24.85908191907161
 30
0.0
 10
13.66158535933688
 20
25.05528414417786
 30
0.0
 10
13.51138996210338
 20
25.18832538822758
 30
0.0
 10
13.30863936409431
 20
25.30813127520799
 30
0.0
 10
13.07657046520959
 20
25.36920097564574
 30
0.0
 10
12.841111646197
 20
25.36471427707237
 30
0.0
 10
12.43115201215439
 20
25.37049423219313
 30
0.0
 10
12.03198252483082
 20
25.23327984708882
 30
0.0
 10
11.71222248844225
 20
24.97665925991
 30
0.0
 10
11.51305694292252
 20
24.85223882901595
 30
0.0
 10
11.33452159810157
 20
24.69750828655382
 30
0.0
 10
11.18305582190788
 20
24.51804841806162
 30
0.0
 10
11.18305582190788
 20
24.51804841806162
 30
0.0
 10
11.60638942428346
 20
25.22360397344079
 30
0.0
 10
11.60638942428346
 20
25.22360397344079
 30
0.0
 10
11.60638942428346
 20
25.22360397344079
 30
0.0
 10
10.68916639484629
 20
25.22360397344079
 30
0.0
 10
10.68916639484629
 20
25.22360397344079
 30
0.0
 10
10.46117643518649
 20
24.94973233976767
 30
0.0
 10
10.260326022656
 20
24.65436384856276
 30
0.0
 10
10.08944390362591
 20
24.34165952921683
 30
0.0
 10
9.749388755904125
 20
23.84449726144426
 30
0.0
 10
9.359296960610141
 20
23.38348023571791
 30
0.0
 10
8.925277506398373
 20
22.96582565793129
 30
0.0
 10
8.658709878876108
 20
22.70890362489751
 30
0.0
 10
8.307386846584789
 20
22.55833680330701
 30
0.0
 10
7.937499998015626
 20
22.54249205555571
 30
0.0
 10
7.726448873071779
 20
22.54763547545595
 30
0.0
 10
7.535910869409832
 20
22.67012476884167
 30
0.0
 10
7.443611243824251
 20
22.8599925937725
 30
0.0
 10
7.316549124478033
 20
23.13610084803019
 30
0.0
 10
7.25612941666504
 20
23.43819804135473
 30
0.0
 10
7.267222354979459
 20
23.74193703799646
 30
0.0
 10
7.327088290608007
 20
24.50676438460701
 30
0.0
 10
7.543209492598994
 20
25.25118088620788
 30
0.0
 10
7.902222085672625
 20
25.92915952881996
 30
0.0
 10
7.902222085672625
 20
25.92915952881996
 30
0.0
 10
8.678333465737794
 20
25.85860370413396
 30
0.0
 10
8.678333465737794
 20
25.85860370413396
 30
0.0
 10
9.188840095554013
 20
25.86289257886501
 30
0.0
 10
9.69740818628957
 20
25.92202845031358
 30
0.0
 10
10.19527831352513
 20
26.03499259297875
 30
0.0
 10
10.61409224668696
 20
26.13259376296439
 30
0.0
 10
11.01762933455638
 20
26.28688828552917
 30
0.0
 10
11.39472329596588
 20
26.49360343482712
 30
0.0
 10
11.68500085114708
 20
26.69152417045473
 30
0.0
 10
11.94622656205657
 20
26.9290016001032
 30
0.0
 10
12.17083467603105
 20
27.19915899020629
 30
0.0
 10
12.34642554080445
 20
27.4205009921719
 30
0.0
 10
12.44545857860115
 20
27.69284117324259
 30
0.0
 10
12.45305662903463
 20
27.97527037027146
 30
0.0
 10
12.45954309787795
 20
28.19454531494592
 30
0.0
 10
12.38407666638505
 20
28.40836731942262
 30
0.0
 10
12.24139050071705
 20
28.57499286149184
 30
0.0
 10
12.14575411175035
 20
28.73836978617769
 30
0.0
 10
11.99600146311632
 20
28.86316433290959
 30
0.0
 10
11.81805689834147
 20
28.92777063918142
 30
0.0
 10
11.65011925935893
 20
28.9967613677544
 30
0.0
 10
11.47044541813933
 20
29.03269667429448
 30
0.0
 10
11.28889023180709
 20
29.03360370334021
 30
0.0
 10
10.50375633506971
 20
29.03036181465897
 30
0.0
 10
9.734726913985455
 20
28.81063873842335
 30
0.0
 10
9.066390501510801
 20
28.39860397264704
 30
0.0
 10
8.331031505833163
 20
27.95694407717844
 30
0.0
 10
7.694558189375799
 20
27.3685069651531
 30
0.0
 10
7.196668548904094
 20
26.66999232367192
 30
0.0
 10
7.040474513730944
 20
26.72319347985097
 30
0.0
 10
6.896528062155941
 20
26.80716229934224
 30
0.0
 10
6.773334946528509
 20
26.91693703720271
 30
0.0
 10
9.397390161919994
 20
29.28328969011454
 30
0.0
 10
12.80021055749263
 20
30.60172638657923
 30
0.0
 10
16.33361083787963
 20
30.62110370294333
 30
0.0
  0
SPLINE
  5
72
330
49
100
AcDbEntity
  8
Layer 1
370
     0
100
AcDbSpline
210
0.0
220
0.0
230
1.0
 70
    11
 71
     3
 72
    20
 73
    16
 74
     0
 42
0.0000000001
 43
0.0000000001
 12
1.0
 22
0.0
 32
0.0
 13
1.0
 23
0.0
 33
0.0
 40
0.0
 40
0.0
 40
0.0
 40
0.0
 40
1.0
 40
1.0
 40
1.0
 40
2.0
 40
2.0
 40
2.0
 40
3.0
 40
3.0
 40
3.0
 40
4.0
 40
4.0
 40
4.0
 40
5.0
 40
5.0
 40
5.0
 40
5.0
 10
27.12861164262513
 20
24.09471481568604
 30
0.0
 10
26.81217962230493
 20
23.63889369373647
 30
0.0
 10
26.33190101389093
 20
23.32292191664125
 30
0.0
 10
25.78805501081237
 20
23.21277037146208
 30
0.0
 10
25.9300790721918
 20
23.60291801498366
 30
0.0
 10
26.14564246477707
 20
23.96219033595911
 30
0.0
 10
26.42305608724596
 20
24.27110370453083
 30
0.0
 10
26.607524801596
 20
24.50088753617572
 30
0.0
 10
26.87226693223322
 20
24.65216894593134
 30
0.0
 10
27.16388888209792
 20
24.69443596116599
 30
0.0
 10
27.19916612157071
 20
24.69443596116599
 30
0.0
 10
27.2344433610435
 20
24.69443596116599
 30
0.0
 10
27.2344433610435
 20
24.65915872169321
 30
0.0
 10
27.2344433610435
 20
24.62388148222042
 30
0.0
 10
27.30500053146992
 20
24.37693676868962
 30
0.0
 10
27.12861164262513
 20
24.09471481568604
 30
0.0
  0
SPLINE
  5
73
330
49
100
AcDbEntity
  8
Layer 1
370
     0
100
AcDbSpline
210
0.0
220
0.0
230
1.0
 70
    11
 71
     3
 72
   191
 73
   187
 74
     0
 42
0.0000000001
 43
0.0000000001
 12
1.0
 22
0.0
 32
0.0
 13
1.0
 23
0.0
 33
0.0
 40
0.0
 40
0.0
 40
0.0
 40
0.0
 40
1.0
 40
1.0
 40
1.0
 40
2.0
 40
2.0
 40
2.0
 40
3.0
 40
3.0
 40
3.0
 40
4.0
 40
4.0
 40
4.0
 40
5.0
 40
5.0
 40
5.0
 40
6.0
 40
6.0
 40
6.0
 40
7.0
 40
7.0
 40
7.0
 40
8.0
 40
8.0
 40
8.0
 40
9.0
 40
9.0
 40
9.0
 40
10.0
 40
10.0
 40
10.0
 40
11.0
 40
11.0
 40
11.0
 40
12.0
 40
12.0
 40
12.0
 40
13.0
 40
13.0
 40
13.0
 40
14.0
 40
14.0
 40
14.0
 40
15.0
 40
15.0
 40
15.0
 40
16.0
 40
16.0
 40
16.0
 40
17.0
 40
17.0
 40
17.0
 40
18.0
 40
18.0
 40
18.0
 40
19.0
 40
19.0
 40
19.0
 40
20.0
 40
20.0
 40
20.0
 40
21.0
 40
21.0
 40
21.0
 40
22.0
 40
22.0
 40
22.0
 40
23.0
 40
23.0
 40
23.0
 40
24.0
 40
24.0
 40
24.0
 40
25.0
 40
25.0
 40
25.0
 40
26.0
 40
26.0
 40
26.0
 40
27.0
 40
27.0
 40
27.0
 40
28.0
 40
28.0
 40
28.0
 40
29.0
 40
29.0
 40
29.0
 40
30.0
 40
30.0
 40
30.0
 40
31.0
 40
31.0
 40
31.0
 40
32.0
 40
32.0
 40
32.0
 40
33.0
 40
33.0
 40
33.0
 40
34.0
 40
34.0
 40
34.0
 40
35.0
 40
35.0
 40
35.0
 40
36.0
 40
36.0
 40
36.0
 40
37.0
 40
37.0
 40
37.0
 40
38.0
 40
38.0
 40
38.0
 40
39.0
 40
39.0
 40
39.0
 40
40.0
 40
40.0
 40
40.0
 40
41.0
 40
41.0
 40
41.0
 40
42.0
 40
42.0
 40
42.0
 40
43.0
 40
43.0
 40
43.0
 40
44.0
 40
44.0
 40
44.0
 40
45.0
 40
45.0
 40
45.0
 40
46.0
 40
46.0
 40
46.0
 40
47.0
 40
47.0
 40
47.0
 40
48.0
 40
48.0
 40
48.0
 40
49.0
 40
49.0
 40
49.0
 40
50.0
 40
50.0
 40
50.0
 40
51.0
 40
51.0
 40
51.0
 40
52.0
 40
52.0
 40
52.0
 40
53.0
 40
53.0
 40
53.0
 40
54.0
 40
54.0
 40
54.0
 40
55.0
 40
55.0
 40
55.0
 40
56.0
 40
56.0
 40
56.0
 40
57.0
 40
57.0
 40
57.0
 40
58.0
 40
58.0
 40
58.0
 40
59.0
 40
59.0
 40
59.0
 40
60.0
 40
60.0
 40
60.0
 40
61.0
 40
61.0
 40
61.0
 40
62.0
 40
62.0
 40
62.0
 40
62.0
 10
13.47611137689017
 20
15.48693650176404
 30
0.0
 10
13.26444524857259
 20
14.2522142798505
 30
0.0
 10
13.15861083867337
 20
14.32276875879607
 30
0.0
 10
13.15861083867337
 20
14.32276875879607
 30
0.0
 10
12.41777804382142
 20
14.81665818585766
 30
0.0
 10
11.57111083907025
 20
15.23999044249282
 30
0.0
 10
11.42999918969825
 20
14.81665818585766
 30
0.0
 10
11.28888754032624
 20
14.3933259292225
 30
0.0
 10
11.25361030085345
 20
14.3933259292225
 30
0.0
 10
12.13555474507741
 20
13.89943650216091
 30
0.0
 10
12.13555474507741
 20
13.89943650216091
 30
0.0
 10
13.01749918930137
 20
13.47610424552575
 30
0.0
 10
13.01749918930137
 20
13.47610424552575
 30
0.0
 10
11.81805420686062
 20
12.8763831000458
 30
0.0
 10
12.2413878092362
 20
12.417770912457
 30
0.0
 10
12.2413878092362
 20
12.417770912457
 30
0.0
 10
12.2413878092362
 20
12.417770912457
 30
0.0
 10
13.40555420646374
 20
13.29971535668096
 30
0.0
 10
13.51138727062253
 20
13.22916087773538
 30
0.0
 10
13.51138727062253
 20
13.22916087773538
 30
0.0
 10
14.18166558652891
 20
12.94693757899138
 30
0.0
 10
14.18166558652891
 20
12.94693757899138
 30
0.0
 10
14.18166558652891
 20
12.94693757899138
 30
0.0
 10
13.96999945821133
 20
12.17082754466663
 30
0.0
 10
13.96999945821133
 20
12.17082754466663
 30
0.0
 10
14.00527669768412
 20
11.28888310044267
 30
0.0
 10
14.07583252237012
 20
10.51277306611793
 30
0.0
 10
14.07583252237012
 20
10.51277306611793
 30
0.0
 10
13.24965017835195
 20
9.905679954595712
 30
0.0
 10
12.58371187531273
 20
9.10655506754099
 30
0.0
 10
12.13555474507741
 20
8.184440271662849
 30
0.0
 10
12.13555474507741
 20
8.184440271662849
 30
0.0
 10
10.65388780963308
 20
10.68916195496272
 30
0.0
 10
10.65388780963308
 20
10.68916195496272
 30
0.0
 10
10.59307783709715
 20
10.76526895889742
 30
0.0
 10
10.6054774893632
 20
10.87626024610111
 30
0.0
 10
10.68158382042768
 20
10.93707156437747
 30
0.0
 10
10.72337982651397
 20
10.97046745873761
 30
0.0
 10
10.77807340882316
 20
10.98308781243318
 30
0.0
 10
10.83027669847787
 20
10.97138525370673
 30
0.0
 10
10.83027669847787
 20
10.97138525370673
 30
0.0
 10
11.67694390322904
 20
10.97138525370673
 30
0.0
 10
11.67694390322904
 20
10.97138525370673
 30
0.0
 10
11.85333279207383
 20
10.97138525370673
 30
0.0
 10
11.92388861675983
 20
11.07721966360594
 30
0.0
 10
11.85333279207383
 20
11.2183286214971
 30
0.0
 10
11.85333279207383
 20
11.2183286214971
 30
0.0
 10
9.983610839467124
 20
14.35805138123056
 30
0.0
 10
9.983610839467124
 20
14.35805138123056
 30
0.0
 10
9.922800866931192
 20
14.43415838516525
 30
0.0
 10
9.935200519197243
 20
14.54514967236895
 30
0.0
 10
10.01130685026173
 20
14.60596099064531
 30
0.0
 10
10.05310285634801
 20
14.63935688500545
 30
0.0
 10
10.1077964386572
 20
14.65197723870102
 30
0.0
 10
10.15999972831192
 20
14.64027467997456
 30
0.0
 10
10.15999972831192
 20
14.64027467997456
 30
0.0
 10
10.83027737134808
 20
14.64027467997456
 30
0.0
 10
10.83027737134808
 20
14.64027467997456
 30
0.0
 10
11.00666626019287
 20
14.64027467997456
 30
0.0
 10
11.07722208487887
 20
14.74610908987378
 30
0.0
 10
11.00666626019287
 20
14.92249797871857
 30
0.0
 10
11.00666626019287
 20
14.92249797871857
 30
0.0
 10
8.431388752206999
 20
19.19110316750466
 30
0.0
 10
8.431388752206999
 20
19.19110316750466
 30
0.0
 10
8.646857270092383
 20
19.40306805019636
 30
0.0
 10
8.836337521781124
 20
19.63991836480728
 30
0.0
 10
8.995833331084375
 20
19.89665872288383
 30
0.0
 10
8.995833331084375
 20
19.89665872288383
 30
0.0
 10
9.666110974120542
 20
21.16665818427016
 30
0.0
 10
9.666110974120542
 20
21.16665818427016
 30
0.0
 10
9.877777775308333
 20
21.66054761133175
 30
0.0
 10
10.08944457649613
 20
22.11915845318012
 30
0.0
 10
10.26583346534092
 20
22.57776929502849
 30
0.0
 10
10.26583346534092
 20
22.57776929502849
 30
0.0
 10
10.47750026652871
 20
23.10693596156287
 30
0.0
 10
10.47750026652871
 20
23.10693596156287
 30
0.0
 10
10.47750026652871
 20
23.10693596156287
 30
0.0
 10
10.47750026652871
 20
22.85999124803207
 30
0.0
 10
10.47750026652871
 20
22.85999124803207
 30
0.0
 10
10.44109260509982
 20
22.50081447462673
 30
0.0
 10
10.52819699977884
 20
22.13995552569147
 30
0.0
 10
10.7244449800595
 20
21.83693650017654
 30
0.0
 10
10.93883959708659
 20
21.56915837914295
 30
0.0
 10
11.26335884448437
 20
21.41338892507355
 30
0.0
 10
11.60638942428346
 20
21.41360424354138
 30
0.0
 10
11.60638942428346
 20
21.41360424354138
 30
0.0
 10
12.02972302665905
 20
21.41360424354138
 30
0.0
 10
12.02972302665905
 20
21.41360424354138
 30
0.0
 10
12.02972302665905
 20
21.41360424354138
 30
0.0
 10
12.48833386850742
 20
21.51943865344059
 30
0.0
 10
12.48833386850742
 20
21.51943865344059
 30
0.0
 10
12.48833386850742
 20
21.51943865344059
 30
0.0
 10
13.05277777451458
 20
21.83693650017654
 30
0.0
 10
13.05277777451458
 20
21.83693650017654
 30
0.0
 10
13.05277777451458
 20
21.83693650017654
 30
0.0
 10
13.65250026573496
 20
22.4013804061837
 30
0.0
 10
13.65250026573496
 20
22.4013804061837
 30
0.0
 10
13.65250026573496
 20
22.4013804061837
 30
0.0
 10
13.79361191510696
 20
22.57776929502849
 30
0.0
 10
13.79361191510696
 20
22.57776929502849
 30
0.0
 10
13.76670114384972
 20
22.26361023028431
 30
0.0
 10
13.85442054190247
 20
21.95032993403694
 30
0.0
 10
14.04055662863776
 20
21.69582485080453
 30
0.0
 10
14.24385090577809
 20
21.44114347557659
 30
0.0
 10
14.56323682632881
 20
21.30806589653543
 30
0.0
 10
14.88722383338893
 20
21.34304707311495
 30
0.0
 10
15.4163904999233
 20
21.30776983364216
 30
0.0
 10
15.87500134177168
 20
21.55471320143253
 30
0.0
 10
16.36889076883326
 20
22.04860262849412
 30
0.0
 10
16.36889076883326
 20
22.04860262849412
 30
0.0
 10
16.72166854652285
 20
21.97804680380812
 30
0.0
 10
16.72166854652285
 20
21.97804680380812
 30
0.0
 10
16.72166854652285
 20
21.97804680380812
 30
0.0
 10
17.03916908473964
 20
21.97804680380812
 30
0.0
 10
17.03916908473964
 20
21.97804680380812
 30
0.0
 10
17.03916908473964
 20
21.97804680380812
 30
0.0
 10
17.32139103774322
 20
22.11915845318012
 30
0.0
 10
17.32139103774322
 20
22.11915845318012
 30
0.0
 10
17.32139103774322
 20
22.11915845318012
 30
0.0
 10
17.56833575127401
 20
22.3308245814977
 30
0.0
 10
17.56833575127401
 20
22.3308245814977
 30
0.0
 10
17.56833575127401
 20
22.3308245814977
 30
0.0
 10
17.81528046480481
 20
22.61304653450128
 30
0.0
 10
17.81528046480481
 20
22.61304653450128
 30
0.0
 10
17.81528046480481
 20
22.61304653450128
 30
0.0
 10
18.02694659312239
 20
22.85999124803207
 30
0.0
 10
18.02694659312239
 20
22.85999124803207
 30
0.0
 10
18.07273675678688
 20
22.96159465003847
 30
0.0
 10
18.13207179781819
 20
23.05653125398473
 30
0.0
 10
18.20333548196718
 20
23.14221320103566
 30
0.0
 10
18.20333548196718
 20
23.14221320103566
 30
0.0
 10
18.20333548196718
 20
23.14221320103566
 30
0.0
 10
18.20333548196718
 20
23.14221320103566
 30
0.0
 10
18.66194632381555
 20
23.91832458110083
 30
0.0
 10
19.01472410150513
 20
24.48276848710799
 30
0.0
 10
19.22639157556314
 20
24.90610208948357
 30
0.0
 10
19.43805904962115
 20
25.32943569185916
 30
0.0
 10
19.47333628909393
 20
24.69443596116599
 30
0.0
 10
19.47333628909393
 20
24.58860155126678
 30
0.0
 10
19.46627115186832
 20
24.51358863429673
 30
0.0
 10
19.44213664310564
 20
24.44118510800869
 30
0.0
 10
19.40278046440793
 20
24.3769354229492
 30
0.0
 10
19.1169949907618
 20
23.89119849137575
 30
0.0
 10
18.86930742851699
 20
23.38402929781087
 30
0.0
 10
18.66194766955598
 20
22.85999124803207
 30
0.0
 10
18.55400313867205
 20
22.58845447399446
 30
0.0
 10
18.48281750746765
 20
22.30371329491729
 30
0.0
 10
18.4502815412384
 20
22.01332404328091
 30
0.0
 10
18.4502815412384
 20
21.90749097912212
 30
0.0
 10
18.48555878071118
 20
21.83693650017654
 30
0.0
 10
18.48555878071118
 20
21.76637932975011
 30
0.0
 10
17.74472598585923
 20
21.69582485080453
 30
0.0
 10
18.09750376354881
 20
20.84915764605337
 30
0.0
 10
18.23861406718039
 20
20.74332323615415
 30
0.0
 10
17.00389184526685
 20
20.84915764605337
 30
0.0
 10
16.05139157635689
 20
20.99026660394452
 30
0.0
 10
15.8044468628261
 20
20.56693434730936
 30
0.0
 10
15.5575021492953
 20
20.1436020906742
 30
0.0
 10
15.5575021492953
 20
20.21415656961978
 30
0.0
 10
15.91027992698489
 20
19.40276660434139
 30
0.0
 10
16.26305770467447
 20
18.59137663906301
 30
0.0
 10
16.51000241820526
 20
18.09748990348228
 30
0.0
 10
16.47472383299205
 20
17.95637825411027
 30
0.0
 10
14.78139076923014
 20
18.27387879232707
 30
0.0
 10
14.74611218401692
 20
17.63887771589348
 30
0.0
 10
14.74611218401692
 20
17.63887771589348
 30
0.0
 10
14.71083494454413
 20
17.00387663945989
 30
0.0
 10
16.05139023061647
 20
17.25082269873111
 30
0.0
 10
16.01611164540325
 20
17.07443380988632
 30
0.0
 10
15.38067051185104
 20
16.67293753736977
 30
0.0
 10
14.90625933168536
 20
16.06119623842332
 30
0.0
 10
14.67555635933092
 20
15.34582216091119
 30
0.0
 10
15.55750080355488
 20
14.35804330678801
 30
0.0
 10
15.55750080355488
 20
14.35804330678801
 30
0.0
 10
15.0283341370205
 20
14.18165441794322
 30
0.0
 10
14.79106125991647
 20
13.95410855262332
 30
0.0
 10
14.58894315990664
 20
13.69254506086742
 30
0.0
 10
14.42861164580013
 20
13.40554438361848
 30
0.0
 10
14.42861164580013
 20
13.40554438361848
 30
0.0
 10
13.79361191510696
 20
13.82887664025364
 30
0.0
 10
13.79361191510696
 20
13.82887664025364
 30
0.0
 10
13.79361191510696
 20
13.82887664025364
 30
0.0
 10
13.68777885094817
 20
13.89943111919922
 30
0.0
 10
14.56972329517213
 20
15.1694332720664
 30
0.0
 10
14.56972329517213
 20
15.1694332720664
 30
0.0
 10
13.47611137689017
 20
15.48693650176404
 30
0.0
 10
13.47611137689017
 20
15.48693650176404
 30
0.0
  0
SPLINE
  5
74
330
49
100
AcDbEntity
  8
Layer 1
370
     0
100
AcDbSpline
210
0.0
220
0.0
230
1.0
 70
    11
 71
     3
 72
    23
 73
    19
 74
     0
 42
0.0000000001
 43
0.0000000001
 12
1.0
 22
0.0
 32
0.0
 13
1.0
 23
0.0
 33
0.0
 40
0.0
 40
0.0
 40
0.0
 40
0.0
 40
1.0
 40
1.0
 40
1.0
 40
2.0
 40
2.0
 40
2.0
 40
3.0
 40
3.0
 40
3.0
 40
4.0
 40
4.0
 40
4.0
 40
5.0
 40
5.0
 40
5.0
 40
6.0
 40
6.0
 40
6.0
 40
6.0
 10
9.383889021116959
 20
10.23054707589308
 30
0.0
 10
8.974738177069128
 20
10.23054707589308
 30
0.0
 10
8.643055553394792
 20
10.5622290266972
 30
0.0
 10
8.643055553394792
 20
10.97137987074503
 30
0.0
 10
8.64256839536133
 20
11.36104708493527
 30
0.0
 10
8.958061088865628
 20
11.67733107380883
 30
0.0
 10
9.347728303055863
 20
11.67781823184229
 30
0.0
 10
9.359787482994662
 20
11.67783168924653
 30
0.0
 10
9.371844644322824
 20
11.67753831783412
 30
0.0
 10
9.383889021116959
 20
11.6769354261242
 30
0.0
 10
9.783298050235993
 20
11.7656870070821
 30
0.0
 10
10.17903051651686
 20
11.51385052711034
 30
0.0
 10
10.26778209747476
 20
11.11444015225088
 30
0.0
 10
10.35653367843266
 20
10.71502977739142
 30
0.0
 10
10.10469585272048
 20
10.31929865685098
 30
0.0
 10
9.705286823601442
 20
10.23054707589308
 30
0.0
 10
9.599445012129896
 20
10.20702891624455
 30
0.0
 10
9.489730832588505
 20
10.20702891624455
 30
0.0
 10
9.383889021116959
 20
10.23054707589308
 30
0.0
  0
SPLINE
  5
75
330
49
100
AcDbEntity
  8
Layer 1
370
     0
100
AcDbSpline
210
0.0
220
0.0
230
1.0
 70
    11
 71
     3
 72
    23
 73
    19
 74
     0
 42
0.0000000001
 43
0.0000000001
 12
1.0
 22
0.0
 32
0.0
 13
1.0
 23
0.0
 33
0.0
 40
0.0
 40
0.0
 40
0.0
 40
0.0
 40
1.0
 40
1.0
 40
1.0
 40
2.0
 40
2.0
 40
2.0
 40
3.0
 40
3.0
 40
3.0
 40
4.0
 40
4.0
 40
4.0
 40
5.0
 40
5.0
 40
5.0
 40
6.0
 40
6.0
 40
6.0
 40
6.0
 10
9.701388886463542
 20
9.348602631669118
 30
0.0
 10
9.702276402273121
 20
9.134288086197252
 30
0.0
 10
9.529258593190264
 20
8.959831680601217
 30
0.0
 10
9.314943374848186
 20
8.958943491921426
 30
0.0
 10
9.30262850422884
 20
8.958892353785318
 30
0.0
 10
9.290319016571193
 20
8.95942795847404
 30
0.0
 10
9.278055284087957
 20
8.960547614506746
 30
0.0
 10
9.063738720005455
 20
8.96090558145951
 30
0.0
 10
8.890291619727366
 20
9.134936733081584
 30
0.0
 10
8.890650259550341
 20
9.349253970034297
 30
0.0
 10
8.891008226503105
 20
9.563062517106768
 30
0.0
 10
9.064246064145275
 20
9.736299681878727
 30
0.0
 10
9.278055284087957
 20
9.73665764883149
 30
0.0
 10
9.491485005231093
 20
9.756143970169935
 30
0.0
 10
9.680299788280202
 20
9.598921116442693
 30
0.0
 10
9.699784763878222
 20
9.385489376688922
 30
0.0
 10
9.700904419910929
 20
9.373226989946112
 30
0.0
 10
9.701440024599652
 20
9.360916156548038
 30
0.0
 10
9.701388886463542
 20
9.348602631669118
 30
0.0
  0
SPLINE
  5
76
330
49
100
AcDbEntity
  8
Layer 1
370
     0
100
AcDbSpline
210
0.0
220
0.0
230
1.0
 70
    11
 71
     3
 72
    20
 73
    16
 74
     0
 42
0.0000000001
 43
0.0000000001
 12
1.0
 22
0.0
 32
0.0
 13
1.0
 23
0.0
 33
0.0
 40
0.0
 40
0.0
 40
0.0
 40
0.0
 40
1.0
 40
1.0
 40
1.0
 40
2.0
 40
2.0
 40
2.0
 40
3.0
 40
3.0
 40
3.0
 40
4.0
 40
4.0
 40
4.0
 40
5.0
 40
5.0
 40
5.0
 40
5.0
 10
7.972777910358626
 20
14.0758253910057
 30
0.0
 10
7.563627066310795
 20
14.0758253910057
 30
0.0
 10
7.231944442636459
 20
14.40750734180983
 30
0.0
 10
7.231944442636459
 20
14.81665818585766
 30
0.0
 10
7.231944442636459
 20
15.22580902990549
 30
0.0
 10
7.563627066310795
 20
15.55749098070962
 30
0.0
 10
7.972777910358626
 20
15.55749098070962
 30
0.0
 10
8.381464473960204
 20
15.57697461056721
 30
0.0
 10
8.728565245671456
 20
15.26146307669698
 30
0.0
 10
8.748049548399264
 20
14.85277785883583
 30
0.0
 10
8.748622833819857
 20
14.84074693944593
 30
0.0
 10
8.748902747828033
 20
14.8287025626518
 30
0.0
 10
8.748889290423794
 20
14.81665818585766
 30
0.0
 10
8.730015280978236
 20
14.40186061499104
 30
0.0
 10
8.388004772420482
 20
14.07539475407005
 30
0.0
 10
7.972777910358626
 20
14.0758253910057
 30
0.0
  0
SPLINE
  5
77
330
49
100
AcDbEntity
  8
Layer 1
370
     0
100
AcDbSpline
210
0.0
220
0.0
230
1.0
 70
    11
 71
     3
 72
    23
 73
    19
 74
     0
 42
0.0000000001
 43
0.0000000001
 12
1.0
 22
0.0
 32
0.0
 13
1.0
 23
0.0
 33
0.0
 40
0.0
 40
0.0
 40
0.0
 40
0.0
 40
1.0
 40
1.0
 40
1.0
 40
2.0
 40
2.0
 40
2.0
 40
3.0
 40
3.0
 40
3.0
 40
4.0
 40
4.0
 40
4.0
 40
5.0
 40
5.0
 40
5.0
 40
6.0
 40
6.0
 40
6.0
 40
6.0
 10
8.431388752206999
 20
7.337770375430832
 30
0.0
 10
8.43227626801658
 20
7.123455829958966
 30
0.0
 10
8.25925845893372
 20
6.948999424362932
 30
0.0
 10
8.044943240591643
 20
6.94811123568314
 30
0.0
 10
8.032628369972299
 20
6.948060097547032
 30
0.0
 10
8.02031888231465
 20
6.948595702235754
 30
0.0
 10
8.008055149831415
 20
6.949715358268461
 30
0.0
 10
7.793738585748913
 20
6.950073325221224
 30
0.0
 10
7.620291485470823
 20
7.124104476843298
 30
0.0
 10
7.620650125293799
 20
7.338421713796012
 30
0.0
 10
7.621008092246563
 20
7.552230260868482
 30
0.0
 10
7.794245929888732
 20
7.72546742564044
 30
0.0
 10
8.008055149831415
 20
7.725825392593205
 30
0.0
 10
8.22148487097455
 20
7.745311713931649
 30
0.0
 10
8.41029965402366
 20
7.588088860204407
 30
0.0
 10
8.42978462962168
 20
7.374657120450636
 30
0.0
 10
8.430904285654387
 20
7.362394733707825
 30
0.0
 10
8.431439890343109
 20
7.350083900309753
 30
0.0
 10
8.431388752206999
 20
7.337770375430832
 30
0.0
  0
SPLINE
  5
78
330
49
100
AcDbEntity
  8
Layer 1
370
     0
100
AcDbSpline
210
0.0
220
0.0
230
1.0
 70
    11
 71
     3
 72
    17
 73
    13
 74
     0
 42
0.0000000001
 43
0.0000000001
 12
1.0
 22
0.0
 32
0.0
 13
1.0
 23
0.0
 33
0.0
 40
0.0
 40
0.0
 40
0.0
 40
0.0
 40
1.0
 40
1.0
 40
1.0
 40
2.0
 40
2.0
 40
2.0
 40
3.0
 40
3.0
 40
3.0
 40
4.0
 40
4.0
 40
4.0
 40
4.0
 10
4.444999797027687
 20
8.360826469026794
 30
0.0
 10
4.444999797027687
 20
8.360826469026794
 30
0.0
 10
4.79777757471727
 20
8.431380947972372
 30
0.0
 10
4.79777757471727
 20
8.431380947972372
 30
0.0
 10
5.206885355071536
 20
8.437329120646123
 30
0.0
 10
5.543354777433776
 20
8.110505292772372
 30
0.0
 10
5.549303286542633
 20
7.701397512418104
 30
0.0
 10
5.552253149551879
 20
7.498537909434694
 30
0.0
 10
5.471879812038233
 20
7.303346335386812
 30
0.0
 10
5.326944241251645
 20
7.16138148658604
 30
0.0
 10
5.009444375905062
 20
7.549436503748413
 30
0.0
 10
4.727222086466375
 20
7.937491520910784
 30
0.0
 10
4.444999797027687
 20
8.360826469026794
 30
0.0
  0
SPLINE
  5
79
330
49
100
AcDbEntity
  8
Layer 1
370
     0
100
AcDbSpline
210
0.0
220
0.0
230
1.0
 70
    11
 71
     3
 72
    23
 73
    19
 74
     0
 42
0.0000000001
 43
0.0000000001
 12
1.0
 22
0.0
 32
0.0
 13
1.0
 23
0.0
 33
0.0
 40
0.0
 40
0.0
 40
0.0
 40
0.0
 40
1.0
 40
1.0
 40
1.0
 40
2.0
 40
2.0
 40
2.0
 40
3.0
 40
3.0
 40
3.0
 40
4.0
 40
4.0
 40
4.0
 40
5.0
 40
5.0
 40
5.0
 40
6.0
 40
6.0
 40
6.0
 40
6.0
 10
5.891388483693914
 20
9.595548690940335
 30
0.0
 10
5.890500967884336
 20
9.809863236412202
 30
0.0
 10
6.063518776967194
 20
9.984319642008236
 30
0.0
 10
6.277833995309272
 20
9.985207830688028
 30
0.0
 10
6.290148865928616
 20
9.985258968824136
 30
0.0
 10
6.302458353586265
 20
9.984723364135414
 30
0.0
 10
6.3147220860695
 20
9.983603708102708
 30
0.0
 10
6.529038650152001
 20
9.983245741149943
 30
0.0
 10
6.702485750430092
 20
9.809214589527869
 30
0.0
 10
6.702127110607115
 20
9.594897352575154
 30
0.0
 10
6.701769143654351
 20
9.381088805502685
 30
0.0
 10
6.528531306012182
 20
9.207851640730727
 30
0.0
 10
6.3147220860695
 20
9.207493673777963
 30
0.0
 10
6.101292364926365
 20
9.188007352439518
 30
0.0
 10
5.912478254747467
 20
9.345232897647609
 30
0.0
 10
5.892993279149446
 20
9.558661945920532
 30
0.0
 10
5.89187362311674
 20
9.570924332663342
 30
0.0
 10
5.891338018428018
 20
9.583235166061415
 30
0.0
 10
5.891388483693914
 20
9.595548690940335
 30
0.0
  0
SPLINE
  5
7A
330
49
100
AcDbEntity
  8
Layer 1
370
     0
100
AcDbSpline
210
0.0
220
0.0
230
1.0
 70
    11
 71
     3
 72
    23
 73
    19
 74
     0
 42
0.0000000001
 43
0.0000000001
 12
1.0
 22
0.0
 32
0.0
 13
1.0
 23
0.0
 33
0.0
 40
0.0
 40
0.0
 40
0.0
 40
0.0
 40
1.0
 40
1.0
 40
1.0
 40
2.0
 40
2.0
 40
2.0
 40
3.0
 40
3.0
 40
3.0
 40
4.0
 40
4.0
 40
4.0
 40
5.0
 40
5.0
 40
5.0
 40
6.0
 40
6.0
 40
6.0
 40
6.0
 10
6.455833062571291
 20
11.21832593001625
 30
0.0
 10
6.046682218523459
 20
11.21832593001625
 30
0.0
 10
5.715000267719335
 20
11.55000788082037
 30
0.0
 10
5.715000267719335
 20
11.9591587248682
 30
0.0
 10
5.714513109685874
 20
12.34882593905844
 30
0.0
 10
6.030005803190171
 20
12.66510992793201
 30
0.0
 10
6.419673017380407
 20
12.66559708596547
 30
0.0
 10
6.431732197319205
 20
12.66561054336971
 30
0.0
 10
6.443789358647368
 20
12.66531717195729
 30
0.0
 10
6.455833735441503
 20
12.66471428024737
 30
0.0
 10
6.855242764560536
 20
12.75346586120527
 30
0.0
 10
7.250975230841404
 20
12.50162938123351
 30
0.0
 10
7.339726811799305
 20
12.10221900637405
 30
0.0
 10
7.428478392757206
 20
11.70280863151459
 30
0.0
 10
7.17664056704502
 20
11.30707751097415
 30
0.0
 10
6.777231537925986
 20
11.21832593001625
 30
0.0
 10
6.67138972645444
 20
11.19480777036772
 30
0.0
 10
6.561675546913048
 20
11.19480777036772
 30
0.0
 10
6.455833062571291
 20
11.21832593001625
 30
0.0
  0
SPLINE
  5
7B
330
49
100
AcDbEntity
  8
Layer 1
370
     0
100
AcDbSpline
210
0.0
220
0.0
230
1.0
 70
    11
 71
     3
 72
    23
 73
    19
 74
     0
 42
0.0000000001
 43
0.0000000001
 12
1.0
 22
0.0
 32
0.0
 13
1.0
 23
0.0
 33
0.0
 40
0.0
 40
0.0
 40
0.0
 40
0.0
 40
1.0
 40
1.0
 40
1.0
 40
2.0
 40
2.0
 40
2.0
 40
3.0
 40
3.0
 40
3.0
 40
4.0
 40
4.0
 40
4.0
 40
5.0
 40
5.0
 40
5.0
 40
6.0
 40
6.0
 40
6.0
 40
6.0
 10
6.244166261383498
 20
15.09888148460167
 30
0.0
 10
6.029849697300996
 20
15.0985235176489
 30
0.0
 10
5.855819891419346
 20
15.27197061792699
 30
0.0
 10
5.85546125159637
 20
15.48628516339886
 30
0.0
 10
5.855101938903181
 20
15.70060240035157
 30
0.0
 10
6.028549039181271
 20
15.87463355197365
 30
0.0
 10
6.242866276133986
 20
15.87499151892641
 30
0.0
 10
6.24329960455049
 20
15.87499151892641
 30
0.0
 10
6.243732932966994
 20
15.87499151892641
 30
0.0
 10
6.244166261383498
 20
15.87499151892641
 30
0.0
 10
6.458482825466
 20
15.87534948587918
 30
0.0
 10
6.63251263134765
 20
15.70190238560108
 30
0.0
 10
6.632871271170626
 20
15.48758784012922
 30
0.0
 10
6.633230583863814
 20
15.2732706031765
 30
0.0
 10
6.459783483585724
 20
15.09923945155443
 30
0.0
 10
6.24546624663301
 20
15.09888148460167
 30
0.0
 10
6.245032918216507
 20
15.09888148460167
 30
0.0
 10
6.244599589800003
 20
15.09888148460167
 30
0.0
 10
6.244166261383498
 20
15.09888148460167
 30
0.0
  0
SPLINE
  5
7C
330
49
100
AcDbEntity
  8
Layer 1
370
     0
100
AcDbSpline
210
0.0
220
0.0
230
1.0
 70
    11
 71
     3
 72
    20
 73
    16
 74
     0
 42
0.0000000001
 43
0.0000000001
 12
1.0
 22
0.0
 32
0.0
 13
1.0
 23
0.0
 33
0.0
 40
0.0
 40
0.0
 40
0.0
 40
0.0
 40
1.0
 40
1.0
 40
1.0
 40
2.0
 40
2.0
 40
2.0
 40
3.0
 40
3.0
 40
3.0
 40
4.0
 40
4.0
 40
4.0
 40
5.0
 40
5.0
 40
5.0
 40
5.0
 10
7.902221412802413
 20
17.81526929621912
 30
0.0
 10
8.116537976884915
 20
17.81562726317188
 30
0.0
 10
8.290567782766566
 20
17.64218016289379
 30
0.0
 10
8.290926422589541
 20
17.42786561742193
 30
0.0
 10
8.29128573528273
 20
17.21354838046921
 30
0.0
 10
8.11783863500464
 20
17.03951722884714
 30
0.0
 10
7.903521398051925
 20
17.03915926189437
 30
0.0
 10
7.90308806963542
 20
17.03915926189437
 30
0.0
 10
7.902654741218917
 20
17.03915926189437
 30
0.0
 10
7.902221412802413
 20
17.03915926189437
 30
0.0
 10
7.687904848719911
 20
17.03951722884714
 30
0.0
 10
7.514457748441821
 20
17.21354838046921
 30
0.0
 10
7.514816388264797
 20
17.42786561742193
 30
0.0
 10
7.515174355217561
 20
17.6416741644944
 30
0.0
 10
7.68841219285973
 20
17.81491132926636
 30
0.0
 10
7.902221412802413
 20
17.81526929621912
 30
0.0
  0
SPLINE
  5
7D
330
49
100
AcDbEntity
  8
Layer 1
370
     0
100
AcDbSpline
210
0.0
220
0.0
230
1.0
 70
    11
 71
     3
 72
    20
 73
    16
 74
     0
 42
0.0000000001
 43
0.0000000001
 12
1.0
 22
0.0
 32
0.0
 13
1.0
 23
0.0
 33
0.0
 40
0.0
 40
0.0
 40
0.0
 40
0.0
 40
1.0
 40
1.0
 40
1.0
 40
2.0
 40
2.0
 40
2.0
 40
3.0
 40
3.0
 40
3.0
 40
4.0
 40
4.0
 40
4.0
 40
5.0
 40
5.0
 40
5.0
 40
5.0
 10
9.348610435903748
 20
13.44082431457212
 30
0.0
 10
9.56292767285646
 20
13.44082431457212
 30
0.0
 10
9.736666125936331
 20
13.26708653436246
 30
0.0
 10
9.736666125936331
 20
13.05276929740974
 30
0.0
 10
9.73743319797797
 20
12.83208132529017
 30
0.0
 10
9.568533354592324
 20
12.6478252379271
 30
0.0
 10
9.348610435903748
 20
12.62943704077458
 30
0.0
 10
9.114810241963648
 20
12.62943704077458
 30
0.0
 10
8.925277506398373
 20
12.81896843059943
 30
0.0
 10
8.925276833528162
 20
13.05276929740974
 30
0.0
 10
8.924389317718584
 20
13.26708384288161
 30
0.0
 10
9.097407126801441
 20
13.44154024847764
 30
0.0
 10
9.311722345143519
 20
13.44242843715744
 30
0.0
 10
9.324037215762862
 20
13.44247957529354
 30
0.0
 10
9.336347376290723
 20
13.44194397060482
 30
0.0
 10
9.348610435903748
 20
13.44082431457212
 30
0.0
  0
SPLINE
  5
7E
330
49
100
AcDbEntity
  8
Layer 1
370
     0
100
AcDbSpline
210
0.0
220
0.0
230
1.0
 70
    11
 71
     3
 72
    20
 73
    16
 74
     0
 42
0.0000000001
 43
0.0000000001
 12
1.0
 22
0.0
 32
0.0
 13
1.0
 23
0.0
 33
0.0
 40
0.0
 40
0.0
 40
0.0
 40
0.0
 40
1.0
 40
1.0
 40
1.0
 40
2.0
 40
2.0
 40
2.0
 40
3.0
 40
3.0
 40
3.0
 40
4.0
 40
4.0
 40
4.0
 40
5.0
 40
5.0
 40
5.0
 40
5.0
 10
9.136943634715955
 20
15.7691571090272
 30
0.0
 10
9.136803677711866
 20
16.00295797583751
 30
0.0
 10
9.32622337108153
 20
16.19260240785797
 30
0.0
 10
9.560023565021629
 20
16.19274236486206
 30
0.0
 10
9.79382443183194
 20
16.19288232186614
 30
0.0
 10
9.983470209592824
 20
16.0034639742369
 30
0.0
 10
9.983610166596913
 20
15.76966310742659
 30
0.0
 10
9.983610166596913
 20
15.76949354413318
 30
0.0
 10
9.983610166596913
 20
15.76932667232061
 30
0.0
 10
9.983610166596913
 20
15.7691571090272
 30
0.0
 10
9.983470209592824
 20
15.53535624221688
 30
0.0
 10
9.79382443183194
 20
15.34593789458764
 30
0.0
 10
9.560023565021629
 20
15.34607785159173
 30
0.0
 10
9.326421194923848
 20
15.34621780859582
 30
0.0
 10
9.137083591720042
 20
15.53555541179963
 30
0.0
 10
9.136943634715955
 20
15.7691571090272
 30
0.0
  0
SPLINE
  5
7F
330
49
100
AcDbEntity
  8
Layer 1
370
     0
100
AcDbSpline
210
0.0
220
0.0
230
1.0
 70
    11
 71
     3
 72
    23
 73
    19
 74
     0
 42
0.0000000001
 43
0.0000000001
 12
1.0
 22
0.0
 32
0.0
 13
1.0
 23
0.0
 33
0.0
 40
0.0
 40
0.0
 40
0.0
 40
0.0
 40
1.0
 40
1.0
 40
1.0
 40
2.0
 40
2.0
 40
2.0
 40
3.0
 40
3.0
 40
3.0
 40
4.0
 40
4.0
 40
4.0
 40
5.0
 40
5.0
 40
5.0
 40
6.0
 40
6.0
 40
6.0
 40
6.0
 10
10.61861057016029
 20
8.537212666390737
 30
0.0
 10
11.02729713376187
 20
8.556696296248333
 30
0.0
 10
11.37439857834333
 20
8.2411847623781
 30
0.0
 10
11.39388220820093
 20
7.832499544516948
 30
0.0
 10
11.39445549362152
 20
7.820468625127052
 30
0.0
 10
11.3947354076297
 20
7.808424248332917
 30
0.0
 10
11.39472195022546
 20
7.796379871538782
 30
0.0
 10
11.3758479407799
 20
7.381582300672158
 30
0.0
 10
11.03383743222215
 20
7.055116439751171
 30
0.0
 10
10.61861057016029
 20
7.055547076686826
 30
0.0
 10
10.20945972611246
 20
7.055547076686826
 30
0.0
 10
9.877777102438122
 20
7.38722902749095
 30
0.0
 10
9.877777102438122
 20
7.796379871538782
 30
0.0
 10
9.877775756697698
 20
8.205530715586614
 30
0.0
 10
10.20945703463161
 20
8.537215357871585
 30
0.0
 10
10.61860787867944
 20
8.537215357871585
 30
0.0
 10
10.61860922441987
 20
8.537215357871585
 30
0.0
 10
10.61860989729008
 20
8.537215357871585
 30
0.0
 10
10.61861057016029
 20
8.537212666390737
 30
0.0
  0
SPLINE
  5
80
330
49
100
AcDbEntity
  8
Layer 1
370
     0
100
AcDbSpline
210
0.0
220
0.0
230
1.0
 70
    11
 71
     3
 72
    38
 73
    34
 74
     0
 42
0.0000000001
 43
0.0000000001
 12
1.0
 22
0.0
 32
0.0
 13
1.0
 23
0.0
 33
0.0
 40
0.0
 40
0.0
 40
0.0
 40
0.0
 40
1.0
 40
1.0
 40
1.0
 40
2.0
 40
2.0
 40
2.0
 40
3.0
 40
3.0
 40
3.0
 40
4.0
 40
4.0
 40
4.0
 40
5.0
 40
5.0
 40
5.0
 40
6.0
 40
6.0
 40
6.0
 40
7.0
 40
7.0
 40
7.0
 40
8.0
 40
8.0
 40
8.0
 40
9.0
 40
9.0
 40
9.0
 40
10.0
 40
10.0
 40
10.0
 40
11.0
 40
11.0
 40
11.0
 40
11.0
 10
15.80444417134525
 20
22.33082592723812
 30
0.0
 10
15.49870405869314
 20
21.90749232486254
 30
0.0
 10
15.21648075994914
 20
21.69582485080453
 30
0.0
 10
14.95777696659408
 20
21.69582485080453
 30
0.0
 10
14.84590825663398
 20
21.72196182131802
 30
0.0
 10
14.75377213850991
 20
21.80093525235568
 30
0.0
 10
14.71083225306329
 20
21.90749097912212
 30
0.0
 10
14.6644688039782
 20
22.05596248287257
 30
0.0
 10
14.64068418772573
 20
22.21055979703273
 30
0.0
 10
14.64027642837729
 20
22.36610182097049
 30
0.0
 10
14.65788005886266
 20
22.7687998396856
 30
0.0
 10
14.75373849499931
 20
23.16421471122642
 30
0.0
 10
14.92249838138087
 20
23.53026821819803
 30
0.0
 10
15.09977949612672
 20
23.87785412933211
 30
0.0
 10
15.32545209077652
 20
24.19854676383445
 30
0.0
 10
15.59277669728725
 20
24.48276848710799
 30
0.0
 10
15.74328161481825
 20
24.66920601969823
 30
0.0
 10
15.95642132890003
 20
24.7945832720337
 30
0.0
 10
16.19249918850762
 20
24.83554626479757
 30
0.0
 10
16.43944390203842
 20
24.83554626479757
 30
0.0
 10
16.5452769661972
 20
24.62388013647999
 30
0.0
 10
16.50999972672442
 20
24.2358237735772
 30
0.0
 10
16.50899715010859
 20
23.85757516688397
 30
0.0
 10
16.4246838210688
 20
23.48419141182324
 30
0.0
 10
16.26305501319362
 20
23.14221320103566
 30
0.0
 10
16.12962081294011
 20
23.1260616244677
 30
0.0
 10
16.01178508994033
 20
23.04750537296146
 30
0.0
 10
15.94555447497683
 20
22.93054707271808
 30
0.0
 10
15.83829761744953
 20
22.82922223897944
 30
0.0
 10
15.77498187624424
 20
22.68992599343931
 30
0.0
 10
15.76916558613204
 20
22.54249205555571
 30
0.0
 10
15.76402082049137
 20
22.47013966740376
 30
0.0
 10
15.77611095245992
 20
22.39759887559247
 30
0.0
 10
15.80444417134525
 20
22.33082592723812
 30
0.0
  0
POLYLINE
  5
81
330
49
100
AcDbEntity
  8
Layer 1
370
     0
100
AcDb2dPolyline
 66
     1
 10
0.0
 20
0.0
 30
0.0
  0
VERTEX
  5
82
330
81
100
AcDbEntity
  8
Layer 1
370
     0
100
AcDbVertex
100
AcDb2dVertex
 10
19.82611002956224
 20
8.537215357871585
 30
0.0
  0
VERTEX
  5
83
330
81
100
AcDbEntity
  8
Layer 1
370
     0
100
AcDbVertex
100
AcDb2dVertex
 10
20.21416504672462
 20
8.537215357871585
 30
0.0
  0
VERTEX
  5
84
330
81
100
AcDbEntity
  8
Layer 1
370
     0
100
AcDbVertex
100
AcDb2dVertex
 10
20.21416504672462
 20
8.325549229554005
 30
0.0
  0
VERTEX
  5
85
330
81
100
AcDbEntity
  8
Layer 1
370
     0
100
AcDbVertex
100
AcDb2dVertex
 10
20.17888780725183
 20
8.325549229554005
 30
0.0
  0
VERTEX
  5
86
330
81
100
AcDbEntity
  8
Layer 1
370
     0
100
AcDbVertex
100
AcDb2dVertex
 10
20.00249891840704
 20
8.21971481965479
 30
0.0
  0
VERTEX
  5
87
330
81
100
AcDbEntity
  8
Layer 1
370
     0
100
AcDbVertex
100
AcDb2dVertex
 10
19.82611002956224
 20
8.21971481965479
 30
0.0
  0
VERTEX
  5
88
330
81
100
AcDbEntity
  8
Layer 1
370
     0
100
AcDbVertex
100
AcDb2dVertex
 10
19.43805501239987
 20
8.396103708499583
 30
0.0
  0
VERTEX
  5
89
330
81
100
AcDbEntity
  8
Layer 1
370
     0
100
AcDbVertex
100
AcDb2dVertex
 10
18.9794441705515
 20
8.396103708499583
 30
0.0
  0
VERTEX
  5
8A
330
81
100
AcDbEntity
  8
Layer 1
370
     0
100
AcDbVertex
100
AcDb2dVertex
 10
18.76777804223392
 20
8.290269298600368
 30
0.0
  0
VERTEX
  5
8B
330
81
100
AcDbEntity
  8
Layer 1
370
     0
100
AcDbVertex
100
AcDb2dVertex
 10
18.66194497807513
 20
8.21971481965479
 30
0.0
  0
VERTEX
  5
8C
330
81
100
AcDbEntity
  8
Layer 1
370
     0
100
AcDbVertex
100
AcDb2dVertex
 10
18.69722221754792
 20
8.21971481965479
 30
0.0
  0
VERTEX
  5
8D
330
81
100
AcDbEntity
  8
Layer 1
370
     0
100
AcDbVertex
100
AcDb2dVertex
 10
18.80305528170671
 20
8.149160340709214
 30
0.0
  0
VERTEX
  5
8E
330
81
100
AcDbEntity
  8
Layer 1
370
     0
100
AcDbVertex
100
AcDb2dVertex
 10
18.9088883458655
 20
8.078605861763636
 30
0.0
  0
VERTEX
  5
8F
330
81
100
AcDbEntity
  8
Layer 1
370
     0
100
AcDbVertex
100
AcDb2dVertex
 10
19.01472141002429
 20
8.008051382818058
 30
0.0
  0
VERTEX
  5
90
330
81
100
AcDbEntity
  8
Layer 1
370
     0
100
AcDbVertex
100
AcDb2dVertex
 10
19.40277777292708
 20
8.008051382818058
 30
0.0
  0
VERTEX
  5
91
330
81
100
AcDbEntity
  8
Layer 1
370
     0
100
AcDbVertex
100
AcDb2dVertex
 10
19.61444390124467
 20
8.078605861763636
 30
0.0
  0
VERTEX
  5
92
330
81
100
AcDbEntity
  8
Layer 1
370
     0
100
AcDbVertex
100
AcDb2dVertex
 10
19.93194443946146
 20
8.078605861763636
 30
0.0
  0
VERTEX
  5
93
330
81
100
AcDbEntity
  8
Layer 1
370
     0
100
AcDbVertex
100
AcDb2dVertex
 10
20.00250026414746
 20
8.008051382818058
 30
0.0
  0
VERTEX
  5
94
330
81
100
AcDbEntity
  8
Layer 1
370
     0
100
AcDbVertex
100
AcDb2dVertex
 10
20.00250026414746
 20
7.690550844601264
 30
0.0
  0
VERTEX
  5
95
330
81
100
AcDbEntity
  8
Layer 1
370
     0
100
AcDbVertex
100
AcDb2dVertex
 10
19.68499972593067
 20
7.690550844601264
 30
0.0
  0
VERTEX
  5
96
330
81
100
AcDbEntity
  8
Layer 1
370
     0
100
AcDbVertex
100
AcDb2dVertex
 10
19.82611137530267
 20
7.619996365655686
 30
0.0
  0
VERTEX
  5
97
330
81
100
AcDbEntity
  8
Layer 1
370
     0
100
AcDbVertex
100
AcDb2dVertex
 10
19.96722302467467
 20
7.514161955756472
 30
0.0
  0
VERTEX
  5
98
330
81
100
AcDbEntity
  8
Layer 1
370
     0
100
AcDbVertex
100
AcDb2dVertex
 10
20.10833467404667
 20
7.514161955756472
 30
0.0
  0
VERTEX
  5
99
330
81
100
AcDbEntity
  8
Layer 1
370
     0
100
AcDbVertex
100
AcDb2dVertex
 10
20.10833467404667
 20
7.231938657012466
 30
0.0
  0
VERTEX
  5
9A
330
81
100
AcDbEntity
  8
Layer 1
370
     0
100
AcDbVertex
100
AcDb2dVertex
 10
20.07305743457389
 20
7.231938657012466
 30
0.0
  0
VERTEX
  5
9B
330
81
100
AcDbEntity
  8
Layer 1
370
     0
100
AcDbVertex
100
AcDb2dVertex
 10
19.8966685457291
 20
7.161384178066888
 30
0.0
  0
VERTEX
  5
9C
330
81
100
AcDbEntity
  8
Layer 1
370
     0
100
AcDbVertex
100
AcDb2dVertex
 10
19.75555555061667
 20
7.161384178066888
 30
0.0
  0
VERTEX
  5
9D
330
81
100
AcDbEntity
  8
Layer 1
370
     0
100
AcDbVertex
100
AcDb2dVertex
 10
19.61444390124467
 20
7.231938657012466
 30
0.0
  0
VERTEX
  5
9E
330
81
100
AcDbEntity
  8
Layer 1
370
     0
100
AcDbVertex
100
AcDb2dVertex
 10
19.50861083708588
 20
7.33777306691168
 30
0.0
  0
VERTEX
  5
9F
330
81
100
AcDbEntity
  8
Layer 1
370
     0
100
AcDbVertex
100
AcDb2dVertex
 10
19.33222194824108
 20
7.33777306691168
 30
0.0
  0
VERTEX
  5
A0
330
81
100
AcDbEntity
  8
Layer 1
370
     0
100
AcDbVertex
100
AcDb2dVertex
 10
19.33222194824108
 20
7.020272528694885
 30
0.0
  0
VERTEX
  5
A1
330
81
100
AcDbEntity
  8
Layer 1
370
     0
100
AcDbVertex
100
AcDb2dVertex
 10
19.33222194824108
 20
7.020272528694885
 30
0.0
  0
VERTEX
  5
A2
330
81
100
AcDbEntity
  8
Layer 1
370
     0
100
AcDbVertex
100
AcDb2dVertex
 10
19.15583305939629
 20
6.914438118795672
 30
0.0
  0
VERTEX
  5
A3
330
81
100
AcDbEntity
  8
Layer 1
370
     0
100
AcDbVertex
100
AcDb2dVertex
 10
18.9794441705515
 20
6.914438118795672
 30
0.0
  0
VERTEX
  5
A4
330
81
100
AcDbEntity
  8
Layer 1
370
     0
100
AcDbVertex
100
AcDb2dVertex
 10
18.87361110639271
 20
6.984992597741249
 30
0.0
  0
VERTEX
  5
A5
330
81
100
AcDbEntity
  8
Layer 1
370
     0
100
AcDbVertex
100
AcDb2dVertex
 10
18.83833386691992
 20
6.984992597741249
 30
0.0
  0
VERTEX
  5
A6
330
81
100
AcDbEntity
  8
Layer 1
370
     0
100
AcDbVertex
100
AcDb2dVertex
 10
18.83833386691992
 20
7.655270913647627
 30
0.0
  0
VERTEX
  5
A7
330
81
100
AcDbEntity
  8
Layer 1
370
     0
100
AcDbVertex
100
AcDb2dVertex
 10
18.66194497807513
 20
7.655270913647627
 30
0.0
  0
VERTEX
  5
A8
330
81
100
AcDbEntity
  8
Layer 1
370
     0
100
AcDbVertex
100
AcDb2dVertex
 10
18.52083332870313
 20
7.725825392593205
 30
0.0
  0
VERTEX
  5
A9
330
81
100
AcDbEntity
  8
Layer 1
370
     0
100
AcDbVertex
100
AcDb2dVertex
 10
18.41500026454434
 20
7.831659802492418
 30
0.0
  0
VERTEX
  5
AA
330
81
100
AcDbEntity
  8
Layer 1
370
     0
100
AcDbVertex
100
AcDb2dVertex
 10
18.16805555101354
 20
7.831659802492418
 30
0.0
  0
VERTEX
  5
AB
330
81
100
AcDbEntity
  8
Layer 1
370
     0
100
AcDbVertex
100
AcDb2dVertex
 10
18.16805555101354
 20
6.949715358268461
 30
0.0
  0
VERTEX
  5
AC
330
81
100
AcDbEntity
  8
Layer 1
370
     0
100
AcDbVertex
100
AcDb2dVertex
 10
18.30916720038555
 20
6.949715358268461
 30
0.0
  0
VERTEX
  5
AD
330
81
100
AcDbEntity
  8
Layer 1
370
     0
100
AcDbVertex
100
AcDb2dVertex
 10
18.37972302507155
 20
6.879160879322883
 30
0.0
  0
VERTEX
  5
AE
330
81
100
AcDbEntity
  8
Layer 1
370
     0
100
AcDbVertex
100
AcDb2dVertex
 10
18.52083467444355
 20
6.73804922995088
 30
0.0
  0
VERTEX
  5
AF
330
81
100
AcDbEntity
  8
Layer 1
370
     0
100
AcDbVertex
100
AcDb2dVertex
 10
18.62666773860234
 20
6.667494751005302
 30
0.0
  0
VERTEX
  5
B0
330
81
100
AcDbEntity
  8
Layer 1
370
     0
100
AcDbVertex
100
AcDb2dVertex
 10
18.69722356328834
 20
6.596940272059725
 30
0.0
  0
VERTEX
  5
B1
330
81
100
AcDbEntity
  8
Layer 1
370
     0
100
AcDbVertex
100
AcDb2dVertex
 10
18.69722221754792
 20
6.596940272059725
 30
0.0
  0
VERTEX
  5
B2
330
81
100
AcDbEntity
  8
Layer 1
370
     0
100
AcDbVertex
100
AcDb2dVertex
 10
18.62666639286192
 20
6.385274143742144
 30
0.0
  0
VERTEX
  5
B3
330
81
100
AcDbEntity
  8
Layer 1
370
     0
100
AcDbVertex
100
AcDb2dVertex
 10
18.34444443985834
 20
6.385274143742144
 30
0.0
  0
VERTEX
  5
B4
330
81
100
AcDbEntity
  8
Layer 1
370
     0
100
AcDbVertex
100
AcDb2dVertex
 10
18.27388861517233
 20
6.455828622687721
 30
0.0
  0
VERTEX
  5
B5
330
81
100
AcDbEntity
  8
Layer 1
370
     0
100
AcDbVertex
100
AcDb2dVertex
 10
18.16805555101354
 20
6.526383101633299
 30
0.0
  0
VERTEX
  5
B6
330
81
100
AcDbEntity
  8
Layer 1
370
     0
100
AcDbVertex
100
AcDb2dVertex
 10
18.09749972632754
 20
6.596937580578877
 30
0.0
  0
VERTEX
  5
B7
330
81
100
AcDbEntity
  8
Layer 1
370
     0
100
AcDbVertex
100
AcDb2dVertex
 10
18.02694390164154
 20
6.596937580578877
 30
0.0
  0
VERTEX
  5
B8
330
81
100
AcDbEntity
  8
Layer 1
370
     0
100
AcDbVertex
100
AcDb2dVertex
 10
18.02694390164154
 20
6.244159802889294
 30
0.0
  0
VERTEX
  5
B9
330
81
100
AcDbEntity
  8
Layer 1
370
     0
100
AcDbVertex
100
AcDb2dVertex
 10
17.49777723510716
 20
6.244159802889294
 30
0.0
  0
VERTEX
  5
BA
330
81
100
AcDbEntity
  8
Layer 1
370
     0
100
AcDbVertex
100
AcDb2dVertex
 10
17.49777723510716
 20
6.632214820051665
 30
0.0
  0
VERTEX
  5
BB
330
81
100
AcDbEntity
  8
Layer 1
370
     0
100
AcDbVertex
100
AcDb2dVertex
 10
17.42722141042116
 20
6.632214820051665
 30
0.0
  0
VERTEX
  5
BC
330
81
100
AcDbEntity
  8
Layer 1
370
     0
100
AcDbVertex
100
AcDb2dVertex
 10
17.32138834626237
 20
6.561660341106088
 30
0.0
  0
VERTEX
  5
BD
330
81
100
AcDbEntity
  8
Layer 1
370
     0
100
AcDbVertex
100
AcDb2dVertex
 10
17.28611110678958
 20
6.561660341106088
 30
0.0
  0
VERTEX
  5
BE
330
81
100
AcDbEntity
  8
Layer 1
370
     0
100
AcDbVertex
100
AcDb2dVertex
 10
17.21555528210358
 20
6.49110586216051
 30
0.0
  0
VERTEX
  5
BF
330
81
100
AcDbEntity
  8
Layer 1
370
     0
100
AcDbVertex
100
AcDb2dVertex
 10
17.03916639325879
 20
6.49110586216051
 30
0.0
  0
VERTEX
  5
C0
330
81
100
AcDbEntity
  8
Layer 1
370
     0
100
AcDbVertex
100
AcDb2dVertex
 10
16.96861056857279
 20
6.561660341106088
 30
0.0
  0
VERTEX
  5
C1
330
81
100
AcDbEntity
  8
Layer 1
370
     0
100
AcDbVertex
100
AcDb2dVertex
 10
16.89805474388679
 20
6.561660341106088
 30
0.0
  0
VERTEX
  5
C2
330
81
100
AcDbEntity
  8
Layer 1
370
     0
100
AcDbVertex
100
AcDb2dVertex
 10
16.89805474388679
 20
5.961936504145288
 30
0.0
  0
VERTEX
  5
C3
330
81
100
AcDbEntity
  8
Layer 1
370
     0
100
AcDbVertex
100
AcDb2dVertex
 10
16.9333333291
 20
5.961936504145288
 30
0.0
  0
VERTEX
  5
C4
330
81
100
AcDbEntity
  8
Layer 1
370
     0
100
AcDbVertex
100
AcDb2dVertex
 10
17.003889153786
 20
6.032490983090865
 30
0.0
  0
VERTEX
  5
C5
330
81
100
AcDbEntity
  8
Layer 1
370
     0
100
AcDbVertex
100
AcDb2dVertex
 10
17.07444497847201
 20
6.032490983090865
 30
0.0
  0
VERTEX
  5
C6
330
81
100
AcDbEntity
  8
Layer 1
370
     0
100
AcDbVertex
100
AcDb2dVertex
 10
17.18027804263079
 20
6.103045462036443
 30
0.0
  0
VERTEX
  5
C7
330
81
100
AcDbEntity
  8
Layer 1
370
     0
100
AcDbVertex
100
AcDb2dVertex
 10
17.35666693147559
 20
6.208879871935657
 30
0.0
  0
VERTEX
  5
C8
330
81
100
AcDbEntity
  8
Layer 1
370
     0
100
AcDbVertex
100
AcDb2dVertex
 10
17.42722275616159
 20
6.279434350881234
 30
0.0
  0
VERTEX
  5
C9
330
81
100
AcDbEntity
  8
Layer 1
370
     0
100
AcDbVertex
100
AcDb2dVertex
 10
17.56833440553359
 20
6.279434350881234
 30
0.0
  0
VERTEX
  5
CA
330
81
100
AcDbEntity
  8
Layer 1
370
     0
100
AcDbVertex
100
AcDb2dVertex
 10
17.56833440553359
 20
7.373047614903621
 30
0.0
  0
VERTEX
  5
CB
330
81
100
AcDbEntity
  8
Layer 1
370
     0
100
AcDbVertex
100
AcDb2dVertex
 10
17.5330571660608
 20
7.373047614903621
 30
0.0
  0
VERTEX
  5
CC
330
81
100
AcDbEntity
  8
Layer 1
370
     0
100
AcDbVertex
100
AcDb2dVertex
 10
17.42722410190201
 20
7.302493135958043
 30
0.0
  0
VERTEX
  5
CD
330
81
100
AcDbEntity
  8
Layer 1
370
     0
100
AcDbVertex
100
AcDb2dVertex
 10
17.28611245253001
 20
7.302493135958043
 30
0.0
  0
VERTEX
  5
CE
330
81
100
AcDbEntity
  8
Layer 1
370
     0
100
AcDbVertex
100
AcDb2dVertex
 10
17.18027938837122
 20
7.231938657012466
 30
0.0
  0
VERTEX
  5
CF
330
81
100
AcDbEntity
  8
Layer 1
370
     0
100
AcDbVertex
100
AcDb2dVertex
 10
17.03916773899921
 20
7.161384178066888
 30
0.0
  0
VERTEX
  5
D0
330
81
100
AcDbEntity
  8
Layer 1
370
     0
100
AcDbVertex
100
AcDb2dVertex
 10
16.82750161068163
 20
7.161384178066888
 30
0.0
  0
VERTEX
  5
D1
330
81
100
AcDbEntity
  8
Layer 1
370
     0
100
AcDbVertex
100
AcDb2dVertex
 10
16.82750161068163
 20
6.420551383214933
 30
0.0
  0
VERTEX
  5
D2
330
81
100
AcDbEntity
  8
Layer 1
370
     0
100
AcDbVertex
100
AcDb2dVertex
 10
16.47472383299205
 20
6.420551383214933
 30
0.0
  0
VERTEX
  5
D3
330
81
100
AcDbEntity
  8
Layer 1
370
     0
100
AcDbVertex
100
AcDb2dVertex
 10
16.22777777372083
 20
6.31471428183487
 30
0.0
  0
VERTEX
  5
D4
330
81
100
AcDbEntity
  8
Layer 1
370
     0
100
AcDbVertex
100
AcDb2dVertex
 10
16.22777777372083
 20
6.31471428183487
 30
0.0
  0
VERTEX
  5
D5
330
81
100
AcDbEntity
  8
Layer 1
370
     0
100
AcDbVertex
100
AcDb2dVertex
 10
16.29833359840683
 20
6.526380410152451
 30
0.0
  0
VERTEX
  5
D6
330
81
100
AcDbEntity
  8
Layer 1
370
     0
100
AcDbVertex
100
AcDb2dVertex
 10
16.29833359840683
 20
6.632214820051665
 30
0.0
  0
VERTEX
  5
D7
330
81
100
AcDbEntity
  8
Layer 1
370
     0
100
AcDbVertex
100
AcDb2dVertex
 10
16.12194470956204
 20
6.632214820051665
 30
0.0
  0
VERTEX
  5
D8
330
81
100
AcDbEntity
  8
Layer 1
370
     0
100
AcDbVertex
100
AcDb2dVertex
 10
15.98083306019004
 20
6.561660341106088
 30
0.0
  0
VERTEX
  5
D9
330
81
100
AcDbEntity
  8
Layer 1
370
     0
100
AcDbVertex
100
AcDb2dVertex
 10
15.83972141081804
 20
6.49110586216051
 30
0.0
  0
VERTEX
  5
DA
330
81
100
AcDbEntity
  8
Layer 1
370
     0
100
AcDbVertex
100
AcDb2dVertex
 10
15.73388834665925
 20
6.49110586216051
 30
0.0
  0
VERTEX
  5
DB
330
81
100
AcDbEntity
  8
Layer 1
370
     0
100
AcDbVertex
100
AcDb2dVertex
 10
15.55749945781446
 20
6.596940272059725
 30
0.0
  0
VERTEX
  5
DC
330
81
100
AcDbEntity
  8
Layer 1
370
     0
100
AcDbVertex
100
AcDb2dVertex
 10
15.52222221834167
 20
6.596940272059725
 30
0.0
  0
VERTEX
  5
DD
330
81
100
AcDbEntity
  8
Layer 1
370
     0
100
AcDbVertex
100
AcDb2dVertex
 10
15.52222221834167
 20
6.808606400377305
 30
0.0
  0
VERTEX
  5
DE
330
81
100
AcDbEntity
  8
Layer 1
370
     0
100
AcDbVertex
100
AcDb2dVertex
 10
15.66333386771367
 20
6.808606400377305
 30
0.0
  0
VERTEX
  5
DF
330
81
100
AcDbEntity
  8
Layer 1
370
     0
100
AcDbVertex
100
AcDb2dVertex
 10
15.80444551708567
 20
6.879160879322883
 30
0.0
  0
VERTEX
  5
E0
330
81
100
AcDbEntity
  8
Layer 1
370
     0
100
AcDbVertex
100
AcDb2dVertex
 10
15.94555716645768
 20
6.949715358268461
 30
0.0
  0
VERTEX
  5
E1
330
81
100
AcDbEntity
  8
Layer 1
370
     0
100
AcDbVertex
100
AcDb2dVertex
 10
15.94555716645768
 20
6.949715358268461
 30
0.0
  0
VERTEX
  5
E2
330
81
100
AcDbEntity
  8
Layer 1
370
     0
100
AcDbVertex
100
AcDb2dVertex
 10
15.83972410229889
 20
7.020269837214038
 30
0.0
  0
VERTEX
  5
E3
330
81
100
AcDbEntity
  8
Layer 1
370
     0
100
AcDbVertex
100
AcDb2dVertex
 10
15.66333521345409
 20
7.020269837214038
 30
0.0
  0
VERTEX
  5
E4
330
81
100
AcDbEntity
  8
Layer 1
370
     0
100
AcDbVertex
100
AcDb2dVertex
 10
15.66333521345409
 20
7.725825392593205
 30
0.0
  0
VERTEX
  5
E5
330
81
100
AcDbEntity
  8
Layer 1
370
     0
100
AcDbVertex
100
AcDb2dVertex
 10
15.76916827761288
 20
7.796379871538782
 30
0.0
  0
VERTEX
  5
E6
330
81
100
AcDbEntity
  8
Layer 1
370
     0
100
AcDbVertex
100
AcDb2dVertex
 10
16.08666881582968
 20
7.796379871538782
 30
0.0
  0
VERTEX
  5
E7
330
81
100
AcDbEntity
  8
Layer 1
370
     0
100
AcDbVertex
100
AcDb2dVertex
 10
16.26305770467447
 20
7.725825392593205
 30
0.0
  0
VERTEX
  5
E8
330
81
100
AcDbEntity
  8
Layer 1
370
     0
100
AcDbVertex
100
AcDb2dVertex
 10
16.36889076883326
 20
7.655270913647627
 30
0.0
  0
VERTEX
  5
E9
330
81
100
AcDbEntity
  8
Layer 1
370
     0
100
AcDbVertex
100
AcDb2dVertex
 10
16.72166854652285
 20
7.655270913647627
 30
0.0
  0
VERTEX
  5
EA
330
81
100
AcDbEntity
  8
Layer 1
370
     0
100
AcDbVertex
100
AcDb2dVertex
 10
16.79222437120885
 20
7.725825392593205
 30
0.0
  0
VERTEX
  5
EB
330
81
100
AcDbEntity
  8
Layer 1
370
     0
100
AcDbVertex
100
AcDb2dVertex
 10
16.89805743536764
 20
7.725825392593205
 30
0.0
  0
VERTEX
  5
EC
330
81
100
AcDbEntity
  8
Layer 1
370
     0
100
AcDbVertex
100
AcDb2dVertex
 10
17.07444632421243
 20
7.831659802492418
 30
0.0
  0
VERTEX
  5
ED
330
81
100
AcDbEntity
  8
Layer 1
370
     0
100
AcDbVertex
100
AcDb2dVertex
 10
17.28611245253001
 20
7.831659802492418
 30
0.0
  0
VERTEX
  5
EE
330
81
100
AcDbEntity
  8
Layer 1
370
     0
100
AcDbVertex
100
AcDb2dVertex
 10
17.21555662784401
 20
7.902214281437996
 30
0.0
  0
VERTEX
  5
EF
330
81
100
AcDbEntity
  8
Layer 1
370
     0
100
AcDbVertex
100
AcDb2dVertex
 10
17.14500080315801
 20
7.902214281437996
 30
0.0
  0
VERTEX
  5
F0
330
81
100
AcDbEntity
  8
Layer 1
370
     0
100
AcDbVertex
100
AcDb2dVertex
 10
17.07444497847201
 20
7.972768760383573
 30
0.0
  0
VERTEX
  5
F1
330
81
100
AcDbEntity
  8
Layer 1
370
     0
100
AcDbVertex
100
AcDb2dVertex
 10
16.82750026494121
 20
7.972768760383573
 30
0.0
  0
VERTEX
  5
F2
330
81
100
AcDbEntity
  8
Layer 1
370
     0
100
AcDbVertex
100
AcDb2dVertex
 10
16.68638861556921
 20
8.078603170282788
 30
0.0
  0
VERTEX
  5
F3
330
81
100
AcDbEntity
  8
Layer 1
370
     0
100
AcDbVertex
100
AcDb2dVertex
 10
16.58055555141042
 20
8.149157649228366
 30
0.0
  0
VERTEX
  5
F4
330
81
100
AcDbEntity
  8
Layer 1
370
     0
100
AcDbVertex
100
AcDb2dVertex
 10
16.26305501319362
 20
8.149157649228366
 30
0.0
  0
VERTEX
  5
F5
330
81
100
AcDbEntity
  8
Layer 1
370
     0
100
AcDbVertex
100
AcDb2dVertex
 10
16.05138888487604
 20
8.078603170282788
 30
0.0
  0
VERTEX
  5
F6
330
81
100
AcDbEntity
  8
Layer 1
370
     0
100
AcDbVertex
100
AcDb2dVertex
 10
15.73388834665925
 20
8.078603170282788
 30
0.0
  0
VERTEX
  5
F7
330
81
100
AcDbEntity
  8
Layer 1
370
     0
100
AcDbVertex
100
AcDb2dVertex
 10
15.66333252197325
 20
8.149157649228366
 30
0.0
  0
VERTEX
  5
F8
330
81
100
AcDbEntity
  8
Layer 1
370
     0
100
AcDbVertex
100
AcDb2dVertex
 10
15.59277669728725
 20
8.254992059127579
 30
0.0
  0
VERTEX
  5
F9
330
81
100
AcDbEntity
  8
Layer 1
370
     0
100
AcDbVertex
100
AcDb2dVertex
 10
15.59277669728725
 20
8.431380947972372
 30
0.0
  0
VERTEX
  5
FA
330
81
100
AcDbEntity
  8
Layer 1
370
     0
100
AcDbVertex
100
AcDb2dVertex
 10
15.91027723550404
 20
8.431380947972372
 30
0.0
  0
VERTEX
  5
FB
330
81
100
AcDbEntity
  8
Layer 1
370
     0
100
AcDbVertex
100
AcDb2dVertex
 10
15.80444417134525
 20
8.501935426917948
 30
0.0
  0
VERTEX
  5
FC
330
81
100
AcDbEntity
  8
Layer 1
370
     0
100
AcDbVertex
100
AcDb2dVertex
 10
15.69861110718646
 20
8.572489905863526
 30
0.0
  0
VERTEX
  5
FD
330
81
100
AcDbEntity
  8
Layer 1
370
     0
100
AcDbVertex
100
AcDb2dVertex
 10
15.59277804302767
 20
8.572489905863526
 30
0.0
  0
VERTEX
  5
FE
330
81
100
AcDbEntity
  8
Layer 1
370
     0
100
AcDbVertex
100
AcDb2dVertex
 10
15.59277804302767
 20
8.784156034181107
 30
0.0
  0
VERTEX
  5
FF
330
81
100
AcDbEntity
  8
Layer 1
370
     0
100
AcDbVertex
100
AcDb2dVertex
 10
15.66333386771367
 20
8.784156034181107
 30
0.0
  0
VERTEX
  5
100
330
81
100
AcDbEntity
  8
Layer 1
370
     0
100
AcDbVertex
100
AcDb2dVertex
 10
15.80444551708567
 20
8.854710513126683
 30
0.0
  0
VERTEX
  5
101
330
81
100
AcDbEntity
  8
Layer 1
370
     0
100
AcDbVertex
100
AcDb2dVertex
 10
15.91027858124446
 20
8.854710513126683
 30
0.0
  0
VERTEX
  5
102
330
81
100
AcDbEntity
  8
Layer 1
370
     0
100
AcDbVertex
100
AcDb2dVertex
 10
16.12194470956204
 20
8.713598863754681
 30
0.0
  0
VERTEX
  5
103
330
81
100
AcDbEntity
  8
Layer 1
370
     0
100
AcDbVertex
100
AcDb2dVertex
 10
16.26305635893405
 20
8.713598863754681
 30
0.0
  0
VERTEX
  5
104
330
81
100
AcDbEntity
  8
Layer 1
370
     0
100
AcDbVertex
100
AcDb2dVertex
 10
16.26305635893405
 20
9.031099401971476
 30
0.0
  0
VERTEX
  5
105
330
81
100
AcDbEntity
  8
Layer 1
370
     0
100
AcDbVertex
100
AcDb2dVertex
 10
16.26305635893405
 20
9.031099401971476
 30
0.0
  0
VERTEX
  5
106
330
81
100
AcDbEntity
  8
Layer 1
370
     0
100
AcDbVertex
100
AcDb2dVertex
 10
16.40416800830605
 20
9.13693381187069
 30
0.0
  0
VERTEX
  5
107
330
81
100
AcDbEntity
  8
Layer 1
370
     0
100
AcDbVertex
100
AcDb2dVertex
 10
16.75694578599563
 20
9.13693381187069
 30
0.0
  0
VERTEX
  5
108
330
81
100
AcDbEntity
  8
Layer 1
370
     0
100
AcDbVertex
100
AcDb2dVertex
 10
16.75694578599563
 20
8.396101017018735
 30
0.0
  0
VERTEX
  5
109
330
81
100
AcDbEntity
  8
Layer 1
370
     0
100
AcDbVertex
100
AcDb2dVertex
 10
16.79222302546842
 20
8.396101017018735
 30
0.0
  0
VERTEX
  5
10A
330
81
100
AcDbEntity
  8
Layer 1
370
     0
100
AcDbVertex
100
AcDb2dVertex
 10
16.79222302546842
 20
8.325546538073157
 30
0.0
  0
VERTEX
  5
10B
330
81
100
AcDbEntity
  8
Layer 1
370
     0
100
AcDbVertex
100
AcDb2dVertex
 10
16.89805608962721
 20
8.325546538073157
 30
0.0
  0
VERTEX
  5
10C
330
81
100
AcDbEntity
  8
Layer 1
370
     0
100
AcDbVertex
100
AcDb2dVertex
 10
16.96861191431321
 20
8.254992059127579
 30
0.0
  0
VERTEX
  5
10D
330
81
100
AcDbEntity
  8
Layer 1
370
     0
100
AcDbVertex
100
AcDb2dVertex
 10
17.18027804263079
 20
8.113880409755577
 30
0.0
  0
VERTEX
  5
10E
330
81
100
AcDbEntity
  8
Layer 1
370
     0
100
AcDbVertex
100
AcDb2dVertex
 10
17.28611110678958
 20
8.04332593081
 30
0.0
  0
VERTEX
  5
10F
330
81
100
AcDbEntity
  8
Layer 1
370
     0
100
AcDbVertex
100
AcDb2dVertex
 10
17.39194417094837
 20
7.972771451864421
 30
0.0
  0
VERTEX
  5
110
330
81
100
AcDbEntity
  8
Layer 1
370
     0
100
AcDbVertex
100
AcDb2dVertex
 10
17.53305582032038
 20
7.972771451864421
 30
0.0
  0
VERTEX
  5
111
330
81
100
AcDbEntity
  8
Layer 1
370
     0
100
AcDbVertex
100
AcDb2dVertex
 10
17.53305582032038
 20
8.713604246716377
 30
0.0
  0
VERTEX
  5
112
330
81
100
AcDbEntity
  8
Layer 1
370
     0
100
AcDbVertex
100
AcDb2dVertex
 10
17.63888888447917
 20
8.713604246716377
 30
0.0
  0
VERTEX
  5
113
330
81
100
AcDbEntity
  8
Layer 1
370
     0
100
AcDbVertex
100
AcDb2dVertex
 10
17.56833305979317
 20
8.784158725661955
 30
0.0
  0
VERTEX
  5
114
330
81
100
AcDbEntity
  8
Layer 1
370
     0
100
AcDbVertex
100
AcDb2dVertex
 10
17.25083252157637
 20
9.06638202440596
 30
0.0
  0
VERTEX
  5
115
330
81
100
AcDbEntity
  8
Layer 1
370
     0
100
AcDbVertex
100
AcDb2dVertex
 10
17.18027669689037
 20
9.06638202440596
 30
0.0
  0
VERTEX
  5
116
330
81
100
AcDbEntity
  8
Layer 1
370
     0
100
AcDbVertex
100
AcDb2dVertex
 10
17.18027669689037
 20
9.136936503351537
 30
0.0
  0
VERTEX
  5
117
330
81
100
AcDbEntity
  8
Layer 1
370
     0
100
AcDbVertex
100
AcDb2dVertex
 10
17.14499945741758
 20
9.136936503351537
 30
0.0
  0
VERTEX
  5
118
330
81
100
AcDbEntity
  8
Layer 1
370
     0
100
AcDbVertex
100
AcDb2dVertex
 10
17.14499945741758
 20
9.383879871141907
 30
0.0
  0
VERTEX
  5
119
330
81
100
AcDbEntity
  8
Layer 1
370
     0
100
AcDbVertex
100
AcDb2dVertex
 10
17.46249999563437
 20
9.383879871141907
 30
0.0
  0
VERTEX
  5
11A
330
81
100
AcDbEntity
  8
Layer 1
370
     0
100
AcDbVertex
100
AcDb2dVertex
 10
17.56833305979317
 20
9.31332539219633
 30
0.0
  0
VERTEX
  5
11B
330
81
100
AcDbEntity
  8
Layer 1
370
     0
100
AcDbVertex
100
AcDb2dVertex
 10
17.63888888447917
 20
9.242770913250752
 30
0.0
  0
VERTEX
  5
11C
330
81
100
AcDbEntity
  8
Layer 1
370
     0
100
AcDbVertex
100
AcDb2dVertex
 10
17.74472194863796
 20
9.242770913250752
 30
0.0
  0
VERTEX
  5
11D
330
81
100
AcDbEntity
  8
Layer 1
370
     0
100
AcDbVertex
100
AcDb2dVertex
 10
17.74472194863796
 20
10.26582431536587
 30
0.0
  0
VERTEX
  5
11E
330
81
100
AcDbEntity
  8
Layer 1
370
     0
100
AcDbVertex
100
AcDb2dVertex
 10
17.74472194863796
 20
10.26582431536587
 30
0.0
  0
VERTEX
  5
11F
330
81
100
AcDbEntity
  8
Layer 1
370
     0
100
AcDbVertex
100
AcDb2dVertex
 10
17.74472194863796
 20
10.33637879431144
 30
0.0
  0
VERTEX
  5
120
330
81
100
AcDbEntity
  8
Layer 1
370
     0
100
AcDbVertex
100
AcDb2dVertex
 10
18.09749972632754
 20
10.33637879431144
 30
0.0
  0
VERTEX
  5
121
330
81
100
AcDbEntity
  8
Layer 1
370
     0
100
AcDbVertex
100
AcDb2dVertex
 10
18.27388861517233
 20
10.23054438441223
 30
0.0
  0
VERTEX
  5
122
330
81
100
AcDbEntity
  8
Layer 1
370
     0
100
AcDbVertex
100
AcDb2dVertex
 10
18.27388861517233
 20
10.23054438441223
 30
0.0
  0
VERTEX
  5
123
330
81
100
AcDbEntity
  8
Layer 1
370
     0
100
AcDbVertex
100
AcDb2dVertex
 10
18.27388861517233
 20
9.701377717877854
 30
0.0
  0
VERTEX
  5
124
330
81
100
AcDbEntity
  8
Layer 1
370
     0
100
AcDbVertex
100
AcDb2dVertex
 10
18.41500026454434
 20
9.701377717877854
 30
0.0
  0
VERTEX
  5
125
330
81
100
AcDbEntity
  8
Layer 1
370
     0
100
AcDbVertex
100
AcDb2dVertex
 10
18.52083332870313
 20
9.771932196823432
 30
0.0
  0
VERTEX
  5
126
330
81
100
AcDbEntity
  8
Layer 1
370
     0
100
AcDbVertex
100
AcDb2dVertex
 10
18.59138915338913
 20
9.842486675769008
 30
0.0
  0
VERTEX
  5
127
330
81
100
AcDbEntity
  8
Layer 1
370
     0
100
AcDbVertex
100
AcDb2dVertex
 10
18.73250080276113
 20
9.842486675769008
 30
0.0
  0
VERTEX
  5
128
330
81
100
AcDbEntity
  8
Layer 1
370
     0
100
AcDbVertex
100
AcDb2dVertex
 10
18.83833386691992
 20
9.771932196823432
 30
0.0
  0
VERTEX
  5
129
330
81
100
AcDbEntity
  8
Layer 1
370
     0
100
AcDbVertex
100
AcDb2dVertex
 10
18.87361110639271
 20
9.771932196823432
 30
0.0
  0
VERTEX
  5
12A
330
81
100
AcDbEntity
  8
Layer 1
370
     0
100
AcDbVertex
100
AcDb2dVertex
 10
18.87361110639271
 20
9.56026606850585
 30
0.0
  0
VERTEX
  5
12B
330
81
100
AcDbEntity
  8
Layer 1
370
     0
100
AcDbVertex
100
AcDb2dVertex
 10
18.69722221754792
 20
9.56026606850585
 30
0.0
  0
VERTEX
  5
12C
330
81
100
AcDbEntity
  8
Layer 1
370
     0
100
AcDbVertex
100
AcDb2dVertex
 10
18.62666639286192
 20
9.489711589560272
 30
0.0
  0
VERTEX
  5
12D
330
81
100
AcDbEntity
  8
Layer 1
370
     0
100
AcDbVertex
100
AcDb2dVertex
 10
18.45027750401712
 20
9.34859994018827
 30
0.0
  0
VERTEX
  5
12E
330
81
100
AcDbEntity
  8
Layer 1
370
     0
100
AcDbVertex
100
AcDb2dVertex
 10
18.23861137569954
 20
9.34859994018827
 30
0.0
  0
VERTEX
  5
12F
330
81
100
AcDbEntity
  8
Layer 1
370
     0
100
AcDbVertex
100
AcDb2dVertex
 10
18.23861137569954
 20
8.678321624281892
 30
0.0
  0
VERTEX
  5
130
330
81
100
AcDbEntity
  8
Layer 1
370
     0
100
AcDbVertex
100
AcDb2dVertex
 10
18.52083332870313
 20
8.678321624281892
 30
0.0
  0
VERTEX
  5
131
330
81
100
AcDbEntity
  8
Layer 1
370
     0
100
AcDbVertex
100
AcDb2dVertex
 10
18.7324994570207
 20
8.819433273653896
 30
0.0
  0
VERTEX
  5
132
330
81
100
AcDbEntity
  8
Layer 1
370
     0
100
AcDbVertex
100
AcDb2dVertex
 10
18.94416558533829
 20
8.819433273653896
 30
0.0
  0
VERTEX
  5
133
330
81
100
AcDbEntity
  8
Layer 1
370
     0
100
AcDbVertex
100
AcDb2dVertex
 10
19.01472141002429
 20
8.889987752599472
 30
0.0
  0
VERTEX
  5
134
330
81
100
AcDbEntity
  8
Layer 1
370
     0
100
AcDbVertex
100
AcDb2dVertex
 10
19.0499999952375
 20
8.889987752599472
 30
0.0
  0
VERTEX
  5
135
330
81
100
AcDbEntity
  8
Layer 1
370
     0
100
AcDbVertex
100
AcDb2dVertex
 10
19.0499999952375
 20
9.172211051343478
 30
0.0
  0
VERTEX
  5
136
330
81
100
AcDbEntity
  8
Layer 1
370
     0
100
AcDbVertex
100
AcDb2dVertex
 10
19.1205558199235
 20
9.38387717966106
 30
0.0
  0
VERTEX
  5
137
330
81
100
AcDbEntity
  8
Layer 1
370
     0
100
AcDbVertex
100
AcDb2dVertex
 10
19.1205558199235
 20
9.48971428104112
 30
0.0
  0
VERTEX
  5
138
330
81
100
AcDbEntity
  8
Layer 1
370
     0
100
AcDbVertex
100
AcDb2dVertex
 10
19.4380563581403
 20
9.48971428104112
 30
0.0
  0
VERTEX
  5
139
330
81
100
AcDbEntity
  8
Layer 1
370
     0
100
AcDbVertex
100
AcDb2dVertex
 10
19.5086121828263
 20
9.419159802095544
 30
0.0
  0
VERTEX
  5
13A
330
81
100
AcDbEntity
  8
Layer 1
370
     0
100
AcDbVertex
100
AcDb2dVertex
 10
19.5791680075123
 20
9.348605323149966
 30
0.0
  0
VERTEX
  5
13B
330
81
100
AcDbEntity
  8
Layer 1
370
     0
100
AcDbVertex
100
AcDb2dVertex
 10
19.61444524698509
 20
9.348605323149966
 30
0.0
  0
VERTEX
  5
13C
330
81
100
AcDbEntity
  8
Layer 1
370
     0
100
AcDbVertex
100
AcDb2dVertex
 10
19.61444524698509
 20
9.031104784933172
 30
0.0
  0
VERTEX
  5
13D
330
81
100
AcDbEntity
  8
Layer 1
370
     0
100
AcDbVertex
100
AcDb2dVertex
 10
19.68500107167109
 20
9.031104784933172
 30
0.0
  0
VERTEX
  5
13E
330
81
100
AcDbEntity
  8
Layer 1
370
     0
100
AcDbVertex
100
AcDb2dVertex
 10
19.93194578520188
 20
9.136939194832385
 30
0.0
  0
VERTEX
  5
13F
330
81
100
AcDbEntity
  8
Layer 1
370
     0
100
AcDbVertex
100
AcDb2dVertex
 10
20.03777884936067
 20
9.136939194832385
 30
0.0
  0
VERTEX
  5
140
330
81
100
AcDbEntity
  8
Layer 1
370
     0
100
AcDbVertex
100
AcDb2dVertex
 10
20.10833467404667
 20
9.066384715886809
 30
0.0
  0
VERTEX
  5
141
330
81
100
AcDbEntity
  8
Layer 1
370
     0
100
AcDbVertex
100
AcDb2dVertex
 10
20.21416773820546
 20
8.99583023694123
 30
0.0
  0
VERTEX
  5
142
330
81
100
AcDbEntity
  8
Layer 1
370
     0
100
AcDbVertex
100
AcDb2dVertex
 10
20.24944497767826
 20
8.99583023694123
 30
0.0
  0
VERTEX
  5
143
330
81
100
AcDbEntity
  8
Layer 1
370
     0
100
AcDbVertex
100
AcDb2dVertex
 10
20.24944497767826
 20
8.819441348096438
 30
0.0
  0
VERTEX
  5
144
330
81
100
AcDbEntity
  8
Layer 1
370
     0
100
AcDbVertex
100
AcDb2dVertex
 10
20.14361191351946
 20
8.819441348096438
 30
0.0
  0
VERTEX
  5
145
330
81
100
AcDbEntity
  8
Layer 1
370
     0
100
AcDbVertex
100
AcDb2dVertex
 10
20.03777884936067
 20
8.748886869150862
 30
0.0
  0
VERTEX
  5
146
330
81
100
AcDbEntity
  8
Layer 1
370
     0
100
AcDbVertex
100
AcDb2dVertex
 10
19.79083413582988
 20
8.748886869150862
 30
0.0
  0
VERTEX
  5
147
330
81
100
AcDbEntity
  8
Layer 1
370
     0
100
AcDbVertex
100
AcDb2dVertex
 10
19.82611002956224
 20
8.537215357871585
 30
0.0
  0
SEQEND
  5
148
330
81
100
AcDbEntity
  8
Layer 1
370
     0
  0
SPLINE
  5
149
330
49
100
AcDbEntity
  8
Layer 1
370
     0
100
AcDbSpline
210
0.0
220
0.0
230
1.0
 70
    11
 71
     3
 72
    29
 73
    25
 74
     0
 42
0.0000000001
 43
0.0000000001
 12
1.0
 22
0.0
 32
0.0
 13
1.0
 23
0.0
 33
0.0
 40
0.0
 40
0.0
 40
0.0
 40
0.0
 40
1.0
 40
1.0
 40
1.0
 40
2.0
 40
2.0
 40
2.0
 40
3.0
 40
3.0
 40
3.0
 40
4.0
 40
4.0
 40
4.0
 40
5.0
 40
5.0
 40
5.0
 40
6.0
 40
6.0
 40
6.0
 40
7.0
 40
7.0
 40
7.0
 40
8.0
 40
8.0
 40
8.0
 40
8.0
 10
17.32138834626237
 20
15.31054761291925
 30
0.0
 10
17.46504613651644
 20
14.90294167887808
 30
0.0
 10
17.84211049163661
 20
14.62363594537315
 30
0.0
 10
18.27388861517233
 20
14.60499205754008
 30
0.0
 10
18.55334507160475
 20
14.60964293644517
 30
0.0
 10
18.82911285353518
 20
14.66959028936936
 30
0.0
 10
19.08527723471029
 20
14.78138094638487
 30
0.0
 10
19.29694336302787
 20
15.20471320302003
 30
0.0
 10
19.29694336302787
 20
15.20471320302003
 30
0.0
 10
19.43805501239987
 20
15.27527037344646
 30
0.0
 10
19.53998273784843
 20
15.26622699779768
 30
0.0
 10
19.63753546117881
 20
15.22964439011368
 30
0.0
 10
19.72027696540345
 20
15.16943596354724
 30
0.0
 10
19.50250790426337
 20
14.56648504104987
 30
0.0
 10
18.91382721322131
 20
14.17881759712959
 30
0.0
 10
18.27388861517233
 20
14.21693704037771
 30
0.0
 10
18.27388861517233
 20
14.21693704037771
 30
0.0
 10
17.56833305979317
 20
14.21693704037771
 30
0.0
 10
17.56833305979317
 20
14.21693704037771
 30
0.0
 10
17.26667054062555
 20
14.50725093055035
 30
0.0
 10
17.04753286147434
 20
14.8724794986421
 30
0.0
 10
16.9333333291
 20
15.27527037344646
 30
0.0
 10
17.03941266375637
 20
15.37435454937926
 30
0.0
 10
17.19918031262526
 20
15.38887778003427
 30
0.0
 10
17.32138834626237
 20
15.31054761291925
 30
0.0
  0
SPLINE
  5
14A
330
49
100
AcDbEntity
  8
Layer 1
370
     0
100
AcDbSpline
210
0.0
220
0.0
230
1.0
 70
    11
 71
     3
 72
    20
 73
    16
 74
     0
 42
0.0000000001
 43
0.0000000001
 12
1.0
 22
0.0
 32
0.0
 13
1.0
 23
0.0
 33
0.0
 40
0.0
 40
0.0
 40
0.0
 40
0.0
 40
1.0
 40
1.0
 40
1.0
 40
2.0
 40
2.0
 40
2.0
 40
3.0
 40
3.0
 40
3.0
 40
4.0
 40
4.0
 40
4.0
 40
5.0
 40
5.0
 40
5.0
 40
5.0
 10
17.07444497847201
 20
16.54526983483279
 30
0.0
 10
17.15019536119436
 20
16.76645842239007
 30
0.0
 10
17.39091333378365
 20
16.8843587409302
 30
0.0
 10
17.61210192134093
 20
16.80860970394827
 30
0.0
 10
17.74814012931473
 20
16.76202017047196
 30
0.0
 10
17.85122653726829
 20
16.64956202620618
 30
0.0
 10
17.88583359800996
 20
16.50999259536
 30
0.0
 10
17.87493982927828
 20
16.36557580750684
 30
0.0
 10
17.79646835941875
 20
16.23478867866719
 30
0.0
 10
17.67416746969238
 20
16.15721481767041
 30
0.0
 10
17.67416746969238
 20
16.15721481767041
 30
0.0
 10
17.2508338673168
 20
16.15721481767041
 30
0.0
 10
17.2508338673168
 20
16.15721481767041
 30
0.0
 10
17.14023553631688
 20
16.25611866438641
 30
0.0
 10
17.07623885045709
 20
16.39691002753752
 30
0.0
 10
17.07444497847201
 20
16.54526983483279
 30
0.0
  0
SPLINE
  5
14B
330
49
100
AcDbEntity
  8
Layer 1
370
     0
100
AcDbSpline
210
0.0
220
0.0
230
1.0
 70
    11
 71
     3
 72
    23
 73
    19
 74
     0
 42
0.0000000001
 43
0.0000000001
 12
1.0
 22
0.0
 32
0.0
 13
1.0
 23
0.0
 33
0.0
 40
0.0
 40
0.0
 40
0.0
 40
0.0
 40
1.0
 40
1.0
 40
1.0
 40
2.0
 40
2.0
 40
2.0
 40
3.0
 40
3.0
 40
3.0
 40
4.0
 40
4.0
 40
4.0
 40
5.0
 40
5.0
 40
5.0
 40
6.0
 40
6.0
 40
6.0
 40
6.0
 10
19.40277777292708
 20
16.79221320262316
 30
0.0
 10
19.59652267601924
 20
16.81278419074329
 30
0.0
 10
19.7702604562289
 20
16.67240193268105
 30
0.0
 10
19.79083279008946
 20
16.47865568384847
 30
0.0
 10
19.79346236687781
 20
16.45389406004823
 30
0.0
 10
19.79346236687781
 20
16.42892250074187
 30
0.0
 10
19.79083279008946
 20
16.40415818546078
 30
0.0
 10
19.77993902135778
 20
16.25974139760762
 30
0.0
 10
19.70146755149824
 20
16.12895426876798
 30
0.0
 10
19.57916666177188
 20
16.0513804077712
 30
0.0
 10
19.57916666177188
 20
16.0513804077712
 30
0.0
 10
19.15583305939629
 20
16.0513804077712
 30
0.0
 10
19.15583305939629
 20
16.0513804077712
 30
0.0
 10
19.05150049581018
 20
16.15476826157972
 30
0.0
 10
18.98873650817871
 20
16.29284930351704
 30
0.0
 10
18.9794441705515
 20
16.43943542493357
 30
0.0
 10
19.01422886902913
 20
16.64534716719845
 30
0.0
 10
19.19396999726992
 20
16.79513076786223
 30
0.0
 10
19.40277777292708
 20
16.79221320262316
 30
0.0
  0
SPLINE
  5
14C
330
49
100
AcDbEntity
  8
Layer 1
370
     0
100
AcDbSpline
210
0.0
220
0.0
230
1.0
 70
    11
 71
     3
 72
    26
 73
    22
 74
     0
 42
0.0000000001
 43
0.0000000001
 12
1.0
 22
0.0
 32
0.0
 13
1.0
 23
0.0
 33
0.0
 40
0.0
 40
0.0
 40
0.0
 40
0.0
 40
1.0
 40
1.0
 40
1.0
 40
2.0
 40
2.0
 40
2.0
 40
3.0
 40
3.0
 40
3.0
 40
4.0
 40
4.0
 40
4.0
 40
5.0
 40
5.0
 40
5.0
 40
6.0
 40
6.0
 40
6.0
 40
7.0
 40
7.0
 40
7.0
 40
7.0
 10
19.08527723471029
 20
21.20193542374295
 30
0.0
 10
19.04774049706573
 20
21.06744212577581
 30
0.0
 10
18.97461699965088
 20
20.94556918150425
 30
0.0
 10
18.87361110639271
 20
20.84915764605337
 30
0.0
 10
18.87361110639271
 20
20.84915764605337
 30
0.0
 10
18.45027750401712
 20
20.84915764605337
 30
0.0
 10
18.45027750401712
 20
20.84915764605337
 30
0.0
 10
18.34594494043101
 20
20.95254549986188
 30
0.0
 10
18.28318095279954
 20
21.09062654179921
 30
0.0
 10
18.27388861517233
 20
21.23721266321574
 30
0.0
 10
18.27388861517233
 20
21.41360155206053
 30
0.0
 10
18.41500026454434
 20
21.51943596195974
 30
0.0
 10
18.59138915338913
 20
21.55471320143253
 30
0.0
 10
18.59138915338913
 20
21.55471320143253
 30
0.0
 10
18.66194497807513
 20
21.48415872248696
 30
0.0
 10
18.66194497807513
 20
21.48415872248696
 30
0.0
 10
18.75074231420744
 20
21.35642642440962
 30
0.0
 10
18.89453198702306
 20
21.27799667250323
 30
0.0
 10
19.0499999952375
 20
21.27249259416937
 30
0.0
 10
19.0499999952375
 20
21.27249259416937
 30
0.0
 10
19.08527723471029
 20
21.20193542374295
 30
0.0
 10
19.08527723471029
 20
21.20193542374295
 30
0.0
  0
SPLINE
  5
14D
330
49
100
AcDbEntity
  8
Layer 1
370
     0
100
AcDbSpline
210
0.0
220
0.0
230
1.0
 70
    11
 71
     3
 72
    14
 73
    10
 74
     0
 42
0.0000000001
 43
0.0000000001
 12
1.0
 22
0.0
 32
0.0
 13
1.0
 23
0.0
 33
0.0
 40
0.0
 40
0.0
 40
0.0
 40
0.0
 40
1.0
 40
1.0
 40
1.0
 40
2.0
 40
2.0
 40
2.0
 40
3.0
 40
3.0
 40
3.0
 40
3.0
 10
21.41361002916537
 20
20.1436020906742
 30
0.0
 10
21.41361002916537
 20
20.17887933014699
 30
0.0
 10
21.37833278969258
 20
20.17887933014699
 30
0.0
 10
21.37833278969258
 20
20.21415656961978
 30
0.0
 10
21.37833278969258
 20
20.21415656961978
 30
0.0
 10
21.44888861437858
 20
20.21415656961978
 30
0.0
 10
21.44888861437858
 20
20.21415656961978
 30
0.0
 10
21.44888861437858
 20
20.17888202162784
 30
0.0
 10
21.41361137490579
 20
20.17888202162784
 30
0.0
 10
21.41361002916537
 20
20.1436020906742
 30
0.0
  0
SPLINE
  5
14E
330
49
100
AcDbEntity
  8
Layer 1
370
     0
100
AcDbSpline
210
0.0
220
0.0
230
1.0
 70
    11
 71
     3
 72
    47
 73
    43
 74
     0
 42
0.0000000001
 43
0.0000000001
 12
1.0
 22
0.0
 32
0.0
 13
1.0
 23
0.0
 33
0.0
 40
0.0
 40
0.0
 40
0.0
 40
0.0
 40
1.0
 40
1.0
 40
1.0
 40
2.0
 40
2.0
 40
2.0
 40
3.0
 40
3.0
 40
3.0
 40
4.0
 40
4.0
 40
4.0
 40
5.0
 40
5.0
 40
5.0
 40
6.0
 40
6.0
 40
6.0
 40
7.0
 40
7.0
 40
7.0
 40
8.0
 40
8.0
 40
8.0
 40
9.0
 40
9.0
 40
9.0
 40
10.0
 40
10.0
 40
10.0
 40
11.0
 40
11.0
 40
11.0
 40
12.0
 40
12.0
 40
12.0
 40
13.0
 40
13.0
 40
13.0
 40
14.0
 40
14.0
 40
14.0
 40
14.0
 10
21.34305420447937
 20
20.74332323615415
 30
0.0
 10
21.34305420447937
 20
20.74332323615415
 30
0.0
 10
20.81388753794499
 20
20.67276875720857
 30
0.0
 10
20.81388753794499
 20
20.67276875720857
 30
0.0
 10
20.81388753794499
 20
20.67276875720857
 30
0.0
 10
20.28472221715104
 20
20.67276875720857
 30
0.0
 10
20.28472221715104
 20
20.67276875720857
 30
0.0
 10
19.08527723471029
 20
20.74332323615415
 30
0.0
 10
19.08527723471029
 20
20.74332323615415
 30
0.0
 10
19.22638888408229
 20
20.84915764605337
 30
0.0
 10
19.31043441077772
 20
20.97511087529027
 30
0.0
 10
19.3591650172685
 20
21.12129865754132
 30
0.0
 10
19.36750053345429
 20
21.27248990268853
 30
0.0
 10
19.36750053345429
 20
21.27248990268853
 30
0.0
 10
19.54388942229909
 20
21.27248990268853
 30
0.0
 10
19.54388942229909
 20
21.27248990268853
 30
0.0
 10
19.54388942229909
 20
21.27248990268853
 30
0.0
 10
19.93194443946146
 20
21.48415603100611
 30
0.0
 10
19.93194443946146
 20
21.48415603100611
 30
0.0
 10
20.13930016120121
 20
21.66797071551012
 30
0.0
 10
20.31770227772019
 20
21.88205379362907
 30
0.0
 10
20.46111110599583
 20
22.11915845318012
 30
0.0
 10
20.46111110599583
 20
22.11915845318012
 30
0.0
 10
20.60222275536784
 20
22.29554734202491
 30
0.0
 10
20.60222275536784
 20
22.29554734202491
 30
0.0
 10
20.59140165661905
 20
22.05413496737688
 30
0.0
 10
20.66638496729977
 20
21.81668579827731
 30
0.0
 10
20.81388888368542
 20
21.62527037185896
 30
0.0
 10
20.97435497183432
 20
21.43848967546061
 30
0.0
 10
21.20318467351865
 20
21.32407482461845
 30
0.0
 10
21.44888861437858
 20
21.30776983364216
 30
0.0
 10
21.71912002020499
 20
21.32276407344554
 30
0.0
 10
21.97800817999812
 20
21.42138800615336
 30
0.0
 10
22.18972140923054
 20
21.58999313238617
 30
0.0
 10
22.18972140923054
 20
21.58999313238617
 30
0.0
 10
22.08388834507175
 20
21.41360424354138
 30
0.0
 10
22.08388834507175
 20
21.41360424354138
 30
0.0
 10
22.08388834507175
 20
21.41360424354138
 30
0.0
 10
21.80166639206817
 20
20.84916033753422
 30
0.0
 10
21.80166639206817
 20
20.84916033753422
 30
0.0
 10
21.80166639206817
 20
20.84916033753422
 30
0.0
 10
21.34305420447937
 20
20.74332323615415
 30
0.0
 10
21.34305420447937
 20
20.74332323615415
 30
0.0
  0
SPLINE
  5
14F
330
49
100
AcDbEntity
  8
Layer 1
370
     0
100
AcDbSpline
210
0.0
220
0.0
230
1.0
 70
    11
 71
     3
 72
    32
 73
    28
 74
     0
 42
0.0000000001
 43
0.0000000001
 12
1.0
 22
0.0
 32
0.0
 13
1.0
 23
0.0
 33
0.0
 40
0.0
 40
0.0
 40
0.0
 40
0.0
 40
1.0
 40
1.0
 40
1.0
 40
2.0
 40
2.0
 40
2.0
 40
3.0
 40
3.0
 40
3.0
 40
4.0
 40
4.0
 40
4.0
 40
5.0
 40
5.0
 40
5.0
 40
6.0
 40
6.0
 40
6.0
 40
7.0
 40
7.0
 40
7.0
 40
8.0
 40
8.0
 40
8.0
 40
9.0
 40
9.0
 40
9.0
 40
9.0
 10
21.73110922164174
 20
21.97804545806769
 30
0.0
 10
21.65569931124664
 20
21.97183890323255
 30
0.0
 10
21.58473168999092
 20
22.01441947598598
 30
0.0
 10
21.55472033279695
 20
22.08387852222648
 30
0.0
 10
21.51082497164934
 20
22.17165309563661
 30
0.0
 10
21.48673890954192
 20
22.26799599832588
 30
0.0
 10
21.48416450811095
 20
22.36610047523007
 30
0.0
 10
21.49374214270803
 20
22.70938943719055
 30
0.0
 10
21.57801240805426
 20
23.04646915283504
 30
0.0
 10
21.73110922164174
 20
23.35387798361281
 30
0.0
 10
21.86282221989305
 20
23.71232536570839
 30
0.0
 10
22.05360649405257
 20
24.04619818192267
 30
0.0
 10
22.2955531276489
 20
24.34165549199556
 30
0.0
 10
22.43567834929017
 20
24.56830778567398
 30
0.0
 10
22.66744445657951
 20
24.72281897244701
 30
0.0
 10
22.93055554982292
 20
24.764991785852
 30
0.0
 10
23.07362390577131
 20
24.76611413336555
 30
0.0
 10
23.19489934129465
 20
24.65999980945816
 30
0.0
 10
23.21277884856692
 20
24.5180470723212
 30
0.0
 10
23.29404003832525
 20
24.3292329621423
 30
0.0
 10
23.31855673736833
 20
24.12084236601656
 30
0.0
 10
23.2833333275125
 20
23.91832458110083
 30
0.0
 10
23.2833333275125
 20
23.91832458110083
 30
0.0
 10
22.93055554982292
 20
23.21276902572166
 30
0.0
 10
22.93055554982292
 20
23.21276902572166
 30
0.0
 10
22.43666612276133
 20
22.36610316671091
 30
0.0
 10
22.04861110559896
 20
21.97804814954854
 30
0.0
 10
21.73110922164174
 20
21.97804545806769
 30
0.0
  0
SPLINE
  5
150
330
49
100
AcDbEntity
  8
Layer 1
370
     0
100
AcDbSpline
210
0.0
220
0.0
230
1.0
 70
    11
 71
     3
 72
    20
 73
    16
 74
     0
 42
0.0000000001
 43
0.0000000001
 12
1.0
 22
0.0
 32
0.0
 13
1.0
 23
0.0
 33
0.0
 40
0.0
 40
0.0
 40
0.0
 40
0.0
 40
1.0
 40
1.0
 40
1.0
 40
2.0
 40
2.0
 40
2.0
 40
3.0
 40
3.0
 40
3.0
 40
4.0
 40
4.0
 40
4.0
 40
5.0
 40
5.0
 40
5.0
 40
5.0
 10
11.53583359959746
 20
23.45971373925245
 30
0.0
 10
11.66110857566071
 20
23.85761823057754
 30
0.0
 10
11.87869461610314
 20
24.22026163131492
 30
0.0
 10
12.17083333029063
 20
24.5180470723212
 30
0.0
 10
12.34359006573124
 20
24.76693638076457
 30
0.0
 10
12.61185669053871
 20
24.9330061320387
 30
0.0
 10
12.91166612514258
 20
24.97665791416958
 30
0.0
 10
12.94694336461537
 20
24.97665791416958
 30
0.0
 10
12.98222194982858
 20
24.97665791416958
 30
0.0
 10
12.98222194982858
 20
24.94138067469679
 30
0.0
 10
12.98222194982858
 20
24.906103435224
 30
0.0
 10
13.01749918930137
 20
24.65915872169321
 30
0.0
 10
12.87638888566979
 20
24.37693676868962
 30
0.0
 10
12.56126896226292
 20
23.91300756068589
 30
0.0
 10
12.08240741851531
 20
23.58536417689397
 30
0.0
 10
11.53583359959746
 20
23.45971373925245
 30
0.0
  0
SPLINE
  5
151
330
49
100
AcDbEntity
  8
Layer 1
370
     0
100
AcDbSpline
210
0.0
220
0.0
230
1.0
 70
    11
 71
     3
 72
    32
 73
    28
 74
     0
 42
0.0000000001
 43
0.0000000001
 12
1.0
 22
0.0
 32
0.0
 13
1.0
 23
0.0
 33
0.0
 40
0.0
 40
0.0
 40
0.0
 40
0.0
 40
1.0
 40
1.0
 40
1.0
 40
2.0
 40
2.0
 40
2.0
 40
3.0
 40
3.0
 40
3.0
 40
4.0
 40
4.0
 40
4.0
 40
5.0
 40
5.0
 40
5.0
 40
6.0
 40
6.0
 40
6.0
 40
7.0
 40
7.0
 40
7.0
 40
8.0
 40
8.0
 40
8.0
 40
9.0
 40
9.0
 40
9.0
 40
9.0
 10
8.18444471154642
 20
26.42304761014112
 30
0.0
 10
8.57521812436512
 20
27.02990117986788
 30
0.0
 10
9.07808027570323
 20
27.55670876343912
 30
0.0
 10
9.666111646990753
 20
27.97527037027146
 30
0.0
 10
10.12169591862572
 20
28.35632753722942
 30
0.0
 10
10.69499075940104
 20
28.56819687235101
 30
0.0
 10
11.28888888606667
 20
28.57499151575141
 30
0.0
 10
11.37441741870927
 20
28.58613424646152
 30
0.0
 10
11.45815207936677
 20
28.54426691613276
 30
0.0
 10
11.50055501438425
 20
28.46915845159262
 30
0.0
 10
11.56411164312541
 20
28.40207059997908
 30
0.0
 10
11.60164030632743
 20
28.31450461633465
 30
0.0
 10
11.60638807854304
 20
28.22221373806183
 30
0.0
 10
11.57100048835549
 20
27.99516983392005
 30
0.0
 10
11.48674502615392
 20
27.77851370011055
 30
0.0
 10
11.35944336501225
 20
27.58721400736866
 30
0.0
 10
11.18295825572714
 20
27.35306459378856
 30
0.0
 10
10.96828776191315
 20
27.15031937874118
 30
0.0
 10
10.72444363431908
 20
26.98749151614829
 30
0.0
 10
10.43409206341456
 20
26.79185719350093
 30
0.0
 10
10.11172263634401
 20
26.64858159352726
 30
0.0
 10
9.77194336540912
 20
26.5641579137727
 30
0.0
 10
9.395511508288195
 20
26.44758718677141
 30
0.0
 10
9.001157753071638
 20
26.39978648691357
 30
0.0
 10
8.607776968181579
 20
26.4230462644007
 30
0.0
 10
8.607776968181579
 20
26.4230462644007
 30
0.0
 10
8.18444471154642
 20
26.42304761014112
 30
0.0
 10
8.18444471154642
 20
26.42304761014112
 30
0.0
  0
SPLINE
  5
152
330
49
100
AcDbEntity
  8
Layer 1
370
     0
100
AcDbSpline
210
0.0
220
0.0
230
1.0
 70
    11
 71
     3
 72
    89
 73
    85
 74
     0
 42
0.0000000001
 43
0.0000000001
 12
1.0
 22
0.0
 32
0.0
 13
1.0
 23
0.0
 33
0.0
 40
0.0
 40
0.0
 40
0.0
 40
0.0
 40
1.0
 40
1.0
 40
1.0
 40
2.0
 40
2.0
 40
2.0
 40
3.0
 40
3.0
 40
3.0
 40
4.0
 40
4.0
 40
4.0
 40
5.0
 40
5.0
 40
5.0
 40
6.0
 40
6.0
 40
6.0
 40
7.0
 40
7.0
 40
7.0
 40
8.0
 40
8.0
 40
8.0
 40
9.0
 40
9.0
 40
9.0
 40
10.0
 40
10.0
 40
10.0
 40
11.0
 40
11.0
 40
11.0
 40
12.0
 40
12.0
 40
12.0
 40
13.0
 40
13.0
 40
13.0
 40
14.0
 40
14.0
 40
14.0
 40
15.0
 40
15.0
 40
15.0
 40
16.0
 40
16.0
 40
16.0
 40
17.0
 40
17.0
 40
17.0
 40
18.0
 40
18.0
 40
18.0
 40
19.0
 40
19.0
 40
19.0
 40
20.0
 40
20.0
 40
20.0
 40
21.0
 40
21.0
 40
21.0
 40
22.0
 40
22.0
 40
22.0
 40
23.0
 40
23.0
 40
23.0
 40
24.0
 40
24.0
 40
24.0
 40
25.0
 40
25.0
 40
25.0
 40
26.0
 40
26.0
 40
26.0
 40
27.0
 40
27.0
 40
27.0
 40
28.0
 40
28.0
 40
28.0
 40
28.0
 10
2.010833265543604
 20
16.29832646704242
 30
0.0
 10
2.010027503464778
 20
20.10378970597278
 30
0.0
 10
3.534879585547996
 20
23.75072606870512
 30
0.0
 10
6.24416693425371
 20
26.42304761014112
 30
0.0
 10
6.24416693425371
 20
26.42304761014112
 30
0.0
 10
6.843889425474087
 20
26.17610289661033
 30
0.0
 10
6.843889425474087
 20
26.17610289661033
 30
0.0
 10
6.409095497648351
 20
25.50105123942028
 30
0.0
 10
6.165276266252125
 20
24.72082996810045
 30
0.0
 10
6.13833387009492
 20
23.91832458110083
 30
0.0
 10
6.096926110120937
 20
23.36146661386333
 30
0.0
 10
6.232759765550304
 20
22.80578482375635
 30
0.0
 10
6.526389560127503
 20
22.3308245814977
 30
0.0
 10
6.789099622724587
 20
21.97099377824632
 30
0.0
 10
7.209787499426733
 20
21.76064916702504
 30
0.0
 10
7.655278717882255
 20
21.76637932975011
 30
0.0
 10
8.208618246781397
 20
21.8126243536779
 30
0.0
 10
8.72460405873363
 20
22.06432491386684
 30
0.0
 10
9.10166774098359
 20
22.47193488512928
 30
0.0
 10
9.10166774098359
 20
22.47193488512928
 30
0.0
 10
8.46666666455
 20
21.30776983364216
 30
0.0
 10
8.46666666455
 20
21.30776983364216
 30
0.0
 10
8.254999863362208
 20
20.99026929542537
 30
0.0
 10
8.043333062174415
 20
20.743325927635
 30
0.0
 10
7.902222085672625
 20
20.56693703879021
 30
0.0
 10
7.902222085672625
 20
20.56693703879021
 30
0.0
 10
7.443611243824251
 20
20.17888202162784
 30
0.0
 10
7.443611243824251
 20
20.17888202162784
 30
0.0
 10
7.443611243824251
 20
20.17888202162784
 30
0.0
 10
7.055555553791667
 20
20.00249313278304
 30
0.0
 10
7.055555553791667
 20
20.00249313278304
 30
0.0
 10
7.055555553791667
 20
20.00249313278304
 30
0.0
 10
6.702777776102083
 20
20.00249313278304
 30
0.0
 10
6.702777776102083
 20
20.00249313278304
 30
0.0
 10
6.702777776102083
 20
20.00249313278304
 30
0.0
 10
6.596944711943293
 20
20.07304761172862
 30
0.0
 10
6.596944711943293
 20
20.07304761172862
 30
0.0
 10
6.596944711943293
 20
20.07304761172862
 30
0.0
 10
6.526388887257292
 20
20.07304761172862
 30
0.0
 10
6.526388887257292
 20
20.07304761172862
 30
0.0
 10
6.526388887257292
 20
20.07304761172862
 30
0.0
 10
6.420555823098502
 20
20.00249313278304
 30
0.0
 10
6.420555823098502
 20
20.00249313278304
 30
0.0
 10
6.420555823098502
 20
19.93193865383747
 30
0.0
 10
6.385277910755501
 20
19.86138148341104
 30
0.0
 10
6.385277910755501
 20
19.79082700446546
 30
0.0
 10
6.404696945072749
 20
19.52558425839055
 30
0.0
 10
6.517138267583227
 20
19.27571525091857
 30
0.0
 10
6.702777776102083
 20
19.0852714490863
 30
0.0
 10
6.840604473099284
 20
18.93407212949655
 30
0.0
 10
7.008939778377092
 20
18.81383291409963
 30
0.0
 10
7.196666530293458
 20
18.73249367139671
 30
0.0
 10
7.196666530293458
 20
18.73249367139671
 30
0.0
 10
4.938888887654167
 20
14.92249259575688
 30
0.0
 10
4.938888887654167
 20
14.92249259575688
 30
0.0
 10
4.833055487060271
 20
14.74610370691208
 30
0.0
 10
4.903610975311167
 20
14.64026929701287
 30
0.0
 10
5.079999864155958
 20
14.64026929701287
 30
0.0
 10
5.079999864155958
 20
14.64026929701287
 30
0.0
 10
5.785555419535124
 20
14.64026929701287
 30
0.0
 10
5.785555419535124
 20
14.64026929701287
 30
0.0
 10
5.882972223082684
 20
14.64026929701287
 30
0.0
 10
5.961944308379916
 20
14.56129855745606
 30
0.0
 10
5.961944981250128
 20
14.46388040816808
 30
0.0
 10
5.961944981250128
 20
14.42571520974554
 30
0.0
 10
5.949566187960648
 20
14.38857815700689
 30
0.0
 10
5.926666396036915
 20
14.35804599826886
 30
0.0
 10
5.926666396036915
 20
14.35804599826886
 30
0.0
 10
4.056944106995102
 20
11.2183232385354
 30
0.0
 10
4.056944106995102
 20
11.2183232385354
 30
0.0
 10
3.986388618744207
 20
11.0772115891634
 30
0.0
 10
4.056944106995102
 20
10.97137987074503
 30
0.0
 10
4.233332995839894
 20
10.97137987074503
 30
0.0
 10
4.233332995839894
 20
10.97137987074503
 30
0.0
 10
5.079999864155958
 20
10.97137987074503
 30
0.0
 10
5.079999864155958
 20
10.97137987074503
 30
0.0
 10
5.29166666534375
 20
10.97137987074503
 30
0.0
 10
5.362222153594645
 20
10.83026822137303
 30
0.0
 10
5.256388753000749
 20
10.68915657200103
 30
0.0
 10
5.256388753000749
 20
10.68915657200103
 30
0.0
 10
4.162777507588999
 20
8.819433273653896
 30
0.0
 10
4.162777507588999
 20
8.819433273653896
 30
0.0
 10
2.74975090355476
 20
11.05743727937423
 30
0.0
 10
2.003322688237675
 20
13.65158341384397
 30
0.0
 10
2.010833265543604
 20
16.29832646704242
 30
0.0
  0
SPLINE
  5
153
330
49
100
AcDbEntity
  8
Layer 1
370
     0
100
AcDbSpline
210
0.0
220
0.0
230
1.0
 70
    11
 71
     3
 72
    23
 73
    19
 74
     0
 42
0.0000000001
 43
0.0000000001
 12
1.0
 22
0.0
 32
0.0
 13
1.0
 23
0.0
 33
0.0
 40
0.0
 40
0.0
 40
0.0
 40
0.0
 40
1.0
 40
1.0
 40
1.0
 40
2.0
 40
2.0
 40
2.0
 40
3.0
 40
3.0
 40
3.0
 40
4.0
 40
4.0
 40
4.0
 40
5.0
 40
5.0
 40
5.0
 40
6.0
 40
6.0
 40
6.0
 40
6.0
 10
6.349999998412501
 20
6.067770914044502
 30
0.0
 10
6.349999998412501
 20
6.067770914044502
 30
0.0
 10
6.103055284881707
 20
6.31471428183487
 30
0.0
 10
6.103055284881707
 20
6.31471428183487
 30
0.0
 10
6.103055284881707
 20
6.31471428183487
 30
0.0
 10
11.81805555260104
 20
6.31471428183487
 30
0.0
 10
11.81805555260104
 20
6.31471428183487
 30
0.0
 10
11.95916720197305
 20
4.480270914441377
 30
0.0
 10
13.51138861636296
 20
2.892770914838251
 30
0.0
 10
15.20472168012487
 20
2.046103710087082
 30
0.0
 10
13.25688891609225
 20
2.208601866276112
 30
0.0
 10
11.36148889045661
 20
2.760425418587701
 30
0.0
 10
9.63083306177754
 20
3.668880949162996
 30
0.0
 10
9.63083306177754
 20
3.668880949162996
 30
0.0
 10
9.63083306177754
 20
6.067770914044502
 30
0.0
 10
9.63083306177754
 20
6.067770914044502
 30
0.0
 10
9.63083306177754
 20
6.067770914044502
 30
0.0
 10
6.349999998412501
 20
6.067770914044502
 30
0.0
 10
6.349999998412501
 20
6.067770914044502
 30
0.0
  0
SPLINE
  5
154
330
49
100
AcDbEntity
  8
Layer 1
370
     0
100
AcDbSpline
210
0.0
220
0.0
230
1.0
 70
    11
 71
     3
 72
   407
 73
   403
 74
     0
 42
0.0000000001
 43
0.0000000001
 12
1.0
 22
0.0
 32
0.0
 13
1.0
 23
0.0
 33
0.0
 40
0.0
 40
0.0
 40
0.0
 40
0.0
 40
1.0
 40
1.0
 40
1.0
 40
2.0
 40
2.0
 40
2.0
 40
3.0
 40
3.0
 40
3.0
 40
4.0
 40
4.0
 40
4.0
 40
5.0
 40
5.0
 40
5.0
 40
6.0
 40
6.0
 40
6.0
 40
7.0
 40
7.0
 40
7.0
 40
8.0
 40
8.0
 40
8.0
 40
9.0
 40
9.0
 40
9.0
 40
10.0
 40
10.0
 40
10.0
 40
11.0
 40
11.0
 40
11.0
 40
12.0
 40
12.0
 40
12.0
 40
13.0
 40
13.0
 40
13.0
 40
14.0
 40
14.0
 40
14.0
 40
15.0
 40
15.0
 40
15.0
 40
16.0
 40
16.0
 40
16.0
 40
17.0
 40
17.0
 40
17.0
 40
18.0
 40
18.0
 40
18.0
 40
19.0
 40
19.0
 40
19.0
 40
20.0
 40
20.0
 40
20.0
 40
21.0
 40
21.0
 40
21.0
 40
22.0
 40
22.0
 40
22.0
 40
23.0
 40
23.0
 40
23.0
 40
24.0
 40
24.0
 40
24.0
 40
25.0
 40
25.0
 40
25.0
 40
26.0
 40
26.0
 40
26.0
 40
27.0
 40
27.0
 40
27.0
 40
28.0
 40
28.0
 40
28.0
 40
29.0
 40
29.0
 40
29.0
 40
30.0
 40
30.0
 40
30.0
 40
31.0
 40
31.0
 40
31.0
 40
32.0
 40
32.0
 40
32.0
 40
33.0
 40
33.0
 40
33.0
 40
34.0
 40
34.0
 40
34.0
 40
35.0
 40
35.0
 40
35.0
 40
36.0
 40
36.0
 40
36.0
 40
37.0
 40
37.0
 40
37.0
 40
38.0
 40
38.0
 40
38.0
 40
39.0
 40
39.0
 40
39.0
 40
40.0
 40
40.0
 40
40.0
 40
41.0
 40
41.0
 40
41.0
 40
42.0
 40
42.0
 40
42.0
 40
43.0
 40
43.0
 40
43.0
 40
44.0
 40
44.0
 40
44.0
 40
45.0
 40
45.0
 40
45.0
 40
46.0
 40
46.0
 40
46.0
 40
47.0
 40
47.0
 40
47.0
 40
48.0
 40
48.0
 40
48.0
 40
49.0
 40
49.0
 40
49.0
 40
50.0
 40
50.0
 40
50.0
 40
51.0
 40
51.0
 40
51.0
 40
52.0
 40
52.0
 40
52.0
 40
53.0
 40
53.0
 40
53.0
 40
54.0
 40
54.0
 40
54.0
 40
55.0
 40
55.0
 40
55.0
 40
56.0
 40
56.0
 40
56.0
 40
57.0
 40
57.0
 40
57.0
 40
58.0
 40
58.0
 40
58.0
 40
59.0
 40
59.0
 40
59.0
 40
60.0
 40
60.0
 40
60.0
 40
61.0
 40
61.0
 40
61.0
 40
62.0
 40
62.0
 40
62.0
 40
63.0
 40
63.0
 40
63.0
 40
64.0
 40
64.0
 40
64.0
 40
65.0
 40
65.0
 40
65.0
 40
66.0
 40
66.0
 40
66.0
 40
67.0
 40
67.0
 40
67.0
 40
68.0
 40
68.0
 40
68.0
 40
69.0
 40
69.0
 40
69.0
 40
70.0
 40
70.0
 40
70.0
 40
71.0
 40
71.0
 40
71.0
 40
72.0
 40
72.0
 40
72.0
 40
73.0
 40
73.0
 40
73.0
 40
74.0
 40
74.0
 40
74.0
 40
75.0
 40
75.0
 40
75.0
 40
76.0
 40
76.0
 40
76.0
 40
77.0
 40
77.0
 40
77.0
 40
78.0
 40
78.0
 40
78.0
 40
79.0
 40
79.0
 40
79.0
 40
80.0
 40
80.0
 40
80.0
 40
81.0
 40
81.0
 40
81.0
 40
82.0
 40
82.0
 40
82.0
 40
83.0
 40
83.0
 40
83.0
 40
84.0
 40
84.0
 40
84.0
 40
85.0
 40
85.0
 40
85.0
 40
86.0
 40
86.0
 40
86.0
 40
87.0
 40
87.0
 40
87.0
 40
88.0
 40
88.0
 40
88.0
 40
89.0
 40
89.0
 40
89.0
 40
90.0
 40
90.0
 40
90.0
 40
91.0
 40
91.0
 40
91.0
 40
92.0
 40
92.0
 40
92.0
 40
93.0
 40
93.0
 40
93.0
 40
94.0
 40
94.0
 40
94.0
 40
95.0
 40
95.0
 40
95.0
 40
96.0
 40
96.0
 40
96.0
 40
97.0
 40
97.0
 40
97.0
 40
98.0
 40
98.0
 40
98.0
 40
99.0
 40
99.0
 40
99.0
 40
100.0
 40
100.0
 40
100.0
 40
101.0
 40
101.0
 40
101.0
 40
102.0
 40
102.0
 40
102.0
 40
103.0
 40
103.0
 40
103.0
 40
104.0
 40
104.0
 40
104.0
 40
105.0
 40
105.0
 40
105.0
 40
106.0
 40
106.0
 40
106.0
 40
107.0
 40
107.0
 40
107.0
 40
108.0
 40
108.0
 40
108.0
 40
109.0
 40
109.0
 40
109.0
 40
110.0
 40
110.0
 40
110.0
 40
111.0
 40
111.0
 40
111.0
 40
112.0
 40
112.0
 40
112.0
 40
113.0
 40
113.0
 40
113.0
 40
114.0
 40
114.0
 40
114.0
 40
115.0
 40
115.0
 40
115.0
 40
116.0
 40
116.0
 40
116.0
 40
117.0
 40
117.0
 40
117.0
 40
118.0
 40
118.0
 40
118.0
 40
119.0
 40
119.0
 40
119.0
 40
120.0
 40
120.0
 40
120.0
 40
121.0
 40
121.0
 40
121.0
 40
122.0
 40
122.0
 40
122.0
 40
123.0
 40
123.0
 40
123.0
 40
124.0
 40
124.0
 40
124.0
 40
125.0
 40
125.0
 40
125.0
 40
126.0
 40
126.0
 40
126.0
 40
127.0
 40
127.0
 40
127.0
 40
128.0
 40
128.0
 40
128.0
 40
129.0
 40
129.0
 40
129.0
 40
130.0
 40
130.0
 40
130.0
 40
131.0
 40
131.0
 40
131.0
 40
132.0
 40
132.0
 40
132.0
 40
133.0
 40
133.0
 40
133.0
 40
134.0
 40
134.0
 40
134.0
 40
134.0
 10
26.17611002797474
 20
5.961936504145288
 30
0.0
 10
21.83694363154095
 20
10.05415818704829
 30
0.0
 10
21.83694363154095
 20
10.08943542652107
 30
0.0
 10
21.94277669569975
 20
10.54804761410987
 30
0.0
 10
22.04860975985854
 20
11.00665980169867
 30
0.0
 10
22.04860975985854
 20
11.50054653727941
 30
0.0
 10
22.04860975985854
 20
11.50054653727941
 30
0.0
 10
22.43220095603474
 20
11.75356457734338
 30
0.0
 10
22.84731343016057
 20
11.95519148209847
 30
0.0
 10
23.2833333275125
 20
12.10027037424021
 30
0.0
 10
23.2833333275125
 20
12.10027037424021
 30
0.0
 10
23.38916773741171
 20
12.17082485318578
 30
0.0
 10
24.80027884817005
 20
11.14777145107067
 30
0.0
 10
24.80027884817005
 20
11.14777145107067
 30
0.0
 10
25.22361110480521
 20
12.276659263085
 30
0.0
 10
25.22361110480521
 20
12.276659263085
 30
0.0
 10
23.84777723351966
 20
12.38249367298421
 30
0.0
 10
23.95361164341888
 20
12.45304815192979
 30
0.0
 10
23.95361164341888
 20
12.45304815192979
 30
0.0
 10
24.62388995932526
 20
12.80582592961937
 30
0.0
 10
25.18833386533242
 20
13.19388094678175
 30
0.0
 10
24.90611056658841
 20
13.44082700605296
 30
0.0
 10
24.62388726784441
 20
13.68777306532418
 30
0.0
 10
24.58861002837162
 20
13.75832754426976
 30
0.0
 10
23.77722275457409
 20
13.40554976658017
 30
0.0
 10
23.77722275457409
 20
13.40554976658017
 30
0.0
 10
23.03638995972213
 20
12.98221750994501
 30
0.0
 10
23.03638995972213
 20
12.98221750994501
 30
0.0
 10
22.89527831035013
 20
14.18166249238577
 30
0.0
 10
22.33083440434297
 20
14.04055084301376
 30
0.0
 10
22.33083440434297
 20
14.04055084301376
 30
0.0
 10
21.7663904983358
 20
13.86416195416897
 30
0.0
 10
22.68361218203255
 20
12.80582862110022
 30
0.0
 10
22.61305770308697
 20
12.77055138162743
 30
0.0
 10
22.61305770308697
 20
12.77055138162743
 30
0.0
 10
22.01333521186659
 20
12.41777360393785
 30
0.0
 10
22.01333521186659
 20
12.41777360393785
 30
0.0
 10
21.98045069886755
 20
12.62074894059772
 30
0.0
 10
21.93329595441319
 20
12.82115122156704
 30
0.0
 10
21.87222221675417
 20
13.01749205793695
 30
0.0
 10
21.63517407830092
 20
13.42439551547683
 30
0.0
 10
21.32408061024244
 20
13.78335024171223
 30
0.0
 10
20.95500053305742
 20
14.0758253910057
 30
0.0
 10
21.76638915259538
 20
15.09888148460167
 30
0.0
 10
21.73111191312259
 20
16.01610316829841
 30
0.0
 10
20.95500053305742
 20
16.82749313357679
 30
0.0
 10
20.95500053305742
 20
16.82749313357679
 30
0.0
 10
20.91972329358463
 20
17.03915926189437
 30
0.0
 10
22.08388969081217
 20
16.651104244732
 30
0.0
 10
22.11916693028496
 20
17.28610532116559
 30
0.0
 10
22.11916693028496
 20
17.28610532116559
 30
0.0
 10
22.11916693028496
 20
17.95638094559112
 30
0.0
 10
20.49638969120905
 20
17.77999205674633
 30
0.0
 10
20.46111110599583
 20
17.95638094559112
 30
0.0
 10
20.46111110599583
 20
17.95638094559112
 30
0.0
 10
20.46111110599583
 20
17.95638094559112
 30
0.0
 10
20.91972194784421
 20
18.7677709108695
 30
0.0
 10
20.91972194784421
 20
18.7677709108695
 30
0.0
 10
20.91972194784421
 20
18.7677709108695
 30
0.0
 10
20.954999187317
 20
18.7677709108695
 30
0.0
 10
20.954999187317
 20
18.7677709108695
 30
0.0
 10
21.13535531893152
 20
18.81392173296761
 30
0.0
 10
21.30375320113904
 20
18.89812201981179
 30
0.0
 10
21.44888861437858
 20
19.01471427865987
 30
0.0
 10
21.65913498654892
 20
19.15364044558342
 30
0.0
 10
21.83912911398941
 20
19.33363322728349
 30
0.0
 10
21.97805528091296
 20
19.54388094519425
 30
0.0
 10
22.20933153868798
 20
19.8601137959317
 30
0.0
 10
22.42138120302638
 20
20.18996823124014
 30
0.0
 10
22.61305501160612
 20
20.53165979931742
 30
0.0
 10
23.10295835553204
 20
20.75430716949423
 30
0.0
 10
23.5552240312816
 20
21.05185037722421
 30
0.0
 10
23.95361164341888
 20
21.41360424354138
 30
0.0
 10
24.24648244039698
 20
21.67566027629243
 30
0.0
 10
24.50702855239239
 20
21.97173528121991
 30
0.0
 10
24.72972167774362
 20
22.29554868776534
 30
0.0
 10
24.76513618273965
 20
22.03007582007793
 30
0.0
 10
24.86174957925413
 20
21.77646161700616
 30
0.0
 10
25.01194497648763
 20
21.55471589291338
 30
0.0
 10
25.21862379079414
 20
21.28102727993791
 30
0.0
 10
25.55247507516163
 20
21.13413432970473
 30
0.0
 10
25.89388942071159
 20
21.16666087575101
 30
0.0
 10
25.89388942071159
 20
21.16666087575101
 30
0.0
 10
26.28194443787396
 20
21.16666087575101
 30
0.0
 10
26.28194443787396
 20
21.16666087575101
 30
0.0
 10
26.28194443787396
 20
21.16666087575101
 30
0.0
 10
26.74055662546276
 20
21.27249528565022
 30
0.0
 10
26.74055662546276
 20
21.27249528565022
 30
0.0
 10
26.93866307326886
 20
21.34517334298475
 30
0.0
 10
27.12799529351097
 20
21.43983810736539
 30
0.0
 10
27.30500053146992
 20
21.55471858439423
 30
0.0
 10
27.52277632131213
 20
21.7229280629424
 30
0.0
 10
27.72363346254473
 20
21.91196960325294
 30
0.0
 10
27.90472167694987
 20
22.11916249040139
 30
0.0
 10
28.14120325868464
 20
22.39445791744303
 30
0.0
 10
28.35364722496725
 20
22.68951957983128
 30
0.0
 10
28.53972275338346
 20
23.00110693462535
 30
0.0
 10
28.57499999285625
 20
23.00110693462535
 30
0.0
 10
28.57499999285625
 20
23.03638417409814
 30
0.0
 10
28.53972275338346
 20
23.03638417409814
 30
0.0
 10
28.53972275338346
 20
23.03638417409814
 30
0.0
 10
28.36333386453867
 20
23.28332888762893
 30
0.0
 10
28.36333386453867
 20
23.28332888762893
 30
0.0
 10
28.32805662506588
 20
23.31860612710172
 30
0.0
 10
28.32805662506588
 20
23.31860612710172
 30
0.0
 10
28.29277938559309
 20
23.28332888762893
 30
0.0
 10
28.12113019452137
 20
22.98380609573536
 30
0.0
 10
27.90727050931279
 20
22.71054139099343
 30
0.0
 10
27.6577783091595
 20
22.47194026809098
 30
0.0
 10
27.47266633088683
 20
22.28531164036053
 30
0.0
 10
27.25814184990883
 20
22.13037654535396
 30
0.0
 10
27.02277723272591
 20
22.0133294262426
 30
0.0
 10
27.02277723272591
 20
22.0133294262426
 30
0.0
 10
26.49361056619154
 20
21.8016619521846
 30
0.0
 10
26.49361056619154
 20
21.8016619521846
 30
0.0
 10
26.49361056619154
 20
21.8016619521846
 30
0.0
 10
26.10555554902917
 20
21.8016619521846
 30
0.0
 10
26.10555554902917
 20
21.8016619521846
 30
0.0
 10
25.95473572823897
 20
21.78924884251431
 30
0.0
 10
25.81280048572752
 20
21.8744113337616
 30
0.0
 10
25.75277777133958
 20
22.01332808050218
 30
0.0
 10
25.64535538774014
 20
22.15438051729553
 30
0.0
 10
25.5949789407109
 20
22.33070481059997
 30
0.0
 10
25.61166612196758
 20
22.50721750756376
 30
0.0
 10
25.64694336144037
 20
22.61305057172255
 30
0.0
 10
25.64694336144037
 20
22.71888363588134
 30
0.0
 10
25.68222060091316
 20
22.85999528525335
 30
0.0
 10
26.00647944753891
 20
22.87332753563318
 30
0.0
 10
26.32719092240719
 20
22.93271909776229
 30
0.0
 10
26.63471952408269
 20
23.03638417409814
 30
0.0
 10
26.97777298146899
 20
23.15579710487476
 30
0.0
 10
27.2907464488997
 20
23.34839678286616
 30
0.0
 10
27.55194120777944
 20
23.6008280801053
 30
0.0
 10
27.80211704406808
 20
23.80339565741672
 30
0.0
 10
27.96603630214478
 20
24.09340675599399
 30
0.0
 10
28.01055339536824
 20
24.41221669964326
 30
0.0
 10
28.01055339536824
 20
24.48277252432926
 30
0.0
 10
27.97527615589545
 20
24.55332834901526
 30
0.0
 10
27.97527615589545
 20
24.62388282796084
 30
0.0
 10
28.74509889095961
 20
23.53731451505771
 30
0.0
 10
29.36232542787399
 20
22.35033781764462
 30
0.0
 10
29.80971952328894
 20
21.09610639680543
 30
0.0
 10
29.80971952328894
 20
21.09610639680543
 30
0.0
 10
29.77444228381616
 20
21.09610639680543
 30
0.0
 10
29.77444228381616
 20
21.09610639680543
 30
0.0
 10
29.70051537936822
 20
21.02233290676582
 30
0.0
 10
29.67337448649849
 20
20.91376664380604
 30
0.0
 10
29.70388780487058
 20
20.81388309806142
 30
0.0
 10
29.70388780487058
 20
20.81388309806142
 30
0.0
 10
28.8924978395922
 20
20.00249313278304
 30
0.0
 10
28.8924978395922
 20
20.00249313278304
 30
0.0
 10
28.8924978395922
 20
20.00249313278304
 30
0.0
 10
28.99833224949141
 20
21.16666087575101
 30
0.0
 10
28.99833224949141
 20
21.16666087575101
 30
0.0
 10
28.99833224949141
 20
21.23721535469658
 30
0.0
 10
28.96305501001862
 20
21.30777252512301
 30
0.0
 10
28.92777777054583
 20
21.30777252512301
 30
0.0
 10
28.92777777054583
 20
21.30777252512301
 30
0.0
 10
28.75138888170104
 20
21.30777252512301
 30
0.0
 10
28.75138888170104
 20
21.30777252512301
 30
0.0
 10
28.75138888170104
 20
21.30777252512301
 30
0.0
 10
28.01055608684909
 20
20.39055084142626
 30
0.0
 10
28.01055608684909
 20
20.39055084142626
 30
0.0
 10
28.01055608684909
 20
20.39055084142626
 30
0.0
 10
28.01055608684909
 20
21.44888148301417
 30
0.0
 10
28.01055608684909
 20
21.44888148301417
 30
0.0
 10
28.11237211584246
 20
21.48989157669288
 30
0.0
 10
28.18117174927524
 20
21.58621429327578
 30
0.0
 10
28.18694497569388
 20
21.69582485080453
 30
0.0
 10
28.18694497569388
 20
21.71530848066213
 30
0.0
 10
28.17115136607869
 20
21.73110209027733
 30
0.0
 10
28.15166773622109
 20
21.73110209027733
 30
0.0
 10
28.15166773622109
 20
21.73110209027733
 30
0.0
 10
28.08111325727551
 20
21.73110209027733
 30
0.0
 10
28.08111325727551
 20
21.73110209027733
 30
0.0
 10
28.08111325727551
 20
21.73110209027733
 30
0.0
 10
27.62250106968672
 20
21.8016565692229
 30
0.0
 10
27.62250106968672
 20
21.8016565692229
 30
0.0
 10
27.62250106968672
 20
21.8016565692229
 30
0.0
 10
27.62250106968672
 20
21.69582215932369
 30
0.0
 10
27.62250106968672
 20
21.69582215932369
 30
0.0
 10
27.62159134916014
 20
21.5940895662366
 30
0.0
 10
27.67550440202345
 20
21.49974239659602
 30
0.0
 10
27.76361271905872
 20
21.44887879153332
 30
0.0
 10
27.76361271905872
 20
21.44887879153332
 30
0.0
 10
27.76361271905872
 20
20.28471104856536
 30
0.0
 10
27.76361271905872
 20
20.28471104856536
 30
0.0
 10
27.76361271905872
 20
20.28471104856536
 30
0.0
 10
27.02277992420676
 20
21.2019327322621
 30
0.0
 10
27.02277992420676
 20
21.2019327322621
 30
0.0
 10
26.98750268473398
 20
21.23720997173489
 30
0.0
 10
26.91694551430755
 20
21.27248721120768
 30
0.0
 10
26.88166827483476
 20
21.23720997173489
 30
0.0
 10
26.88166827483476
 20
21.23720997173489
 30
0.0
 10
26.88166827483476
 20
21.23720997173489
 30
0.0
 10
26.88166827483476
 20
21.23720997173489
 30
0.0
 10
26.81111379588918
 20
21.23720997173489
 30
0.0
 10
26.77583386493555
 20
21.16665549278931
 30
0.0
 10
26.77583386493555
 20
21.09609832236289
 30
0.0
 10
26.77583386493555
 20
21.09609832236289
 30
0.0
 10
26.91694551430755
 20
19.93193057939492
 30
0.0
 10
26.91694551430755
 20
19.93193057939492
 30
0.0
 10
26.91694551430755
 20
19.93193057939492
 30
0.0
 10
26.10555554902917
 20
20.743325927635
 30
0.0
 10
26.10555554902917
 20
20.743325927635
 30
0.0
 10
26.10555554902917
 20
20.743325927635
 30
0.0
 10
26.07027830955638
 20
20.743325927635
 30
0.0
 10
26.07027830955638
 20
20.743325927635
 30
0.0
 10
26.09879454913937
 20
20.79749197969801
 30
0.0
 10
26.11104616995878
 20
20.85874739231426
 30
0.0
 10
26.10555554902917
 20
20.91971481647979
 30
0.0
 10
26.10555554902917
 20
20.91971481647979
 30
0.0
 10
26.03500107008359
 20
21.02554922637901
 30
0.0
 10
26.03500107008359
 20
21.02554922637901
 30
0.0
 10
25.91447924919765
 20
21.13334841729715
 30
0.0
 10
25.73219063433437
 20
21.13334841729715
 30
0.0
 10
25.61166881344843
 20
21.02554922637901
 30
0.0
 10
25.54990201947109
 20
20.94471059911379
 30
0.0
 10
25.53642308338505
 20
20.83688180190632
 30
0.0
 10
25.57639157397564
 20
20.743325927635
 30
0.0
 10
25.57639157397564
 20
20.70804868816221
 30
0.0
 10
25.61166881344843
 20
20.67277144868942
 30
0.0
 10
25.61166881344843
 20
20.63749151773579
 30
0.0
 10
25.68880127158615
 20
20.56972272146773
 30
0.0
 10
25.79394397090747
 20
20.54343771950762
 30
0.0
 10
25.89389211219244
 20
20.56693703879021
 30
0.0
 10
25.89389211219244
 20
20.56693703879021
 30
0.0
 10
25.89389211219244
 20
20.56693703879021
 30
0.0
 10
25.89389211219244
 20
20.56693703879021
 30
0.0
 10
25.89389211219244
 20
20.56693703879021
 30
0.0
 10
26.7405593169436
 20
19.75554707351183
 30
0.0
 10
26.7405593169436
 20
19.75554707351183
 30
0.0
 10
26.7405593169436
 20
19.75554707351183
 30
0.0
 10
25.54111433450285
 20
19.89665872288383
 30
0.0
 10
25.54111433450285
 20
19.89665872288383
 30
0.0
 10
25.48266344493006
 20
19.89665872288383
 30
0.0
 10
25.43527992460364
 20
19.84927789403825
 30
0.0
 10
25.43527992460364
 20
19.79082700446546
 30
0.0
 10
25.43527992460364
 20
19.79082700446546
 30
0.0
 10
25.43527992460364
 20
19.79082431298461
 30
0.0
 10
25.43527992460364
 20
19.79082431298461
 30
0.0
 10
25.43527992460364
 20
19.79082431298461
 30
0.0
 10
25.43527992460364
 20
19.79082431298461
 30
0.0
 10
25.43527992460364
 20
19.79082431298461
 30
0.0
 10
25.40000268513085
 20
19.72026983403904
 30
0.0
 10
25.40000268513085
 20
19.6849899030854
 30
0.0
 10
25.47055716407642
 20
19.64971266361261
 30
0.0
 10
25.47055716407642
 20
19.64971266361261
 30
0.0
 10
26.38777884777317
 20
18.90887986876066
 30
0.0
 10
26.38777884777317
 20
18.90887986876066
 30
0.0
 10
26.38777884777317
 20
18.90887986876066
 30
0.0
 10
25.22361110480521
 20
18.90887986876066
 30
0.0
 10
25.22361110480521
 20
18.90887986876066
 30
0.0
 10
25.16474572718185
 20
18.98848579779756
 30
0.0
 10
25.07513556383348
 20
19.03969122092793
 30
0.0
 10
24.97666773701484
 20
19.04999151813266
 30
0.0
 10
24.82080138963492
 20
19.04977350818399
 30
0.0
 10
24.69462476748764
 20
18.92323891908395
 30
0.0
 10
24.69484277743632
 20
18.76737257170402
 30
0.0
 10
24.69506078738499
 20
18.6118157446216
 30
0.0
 10
24.82111090993242
 20
18.48576562207417
 30
0.0
 10
24.97666773701484
 20
18.4855476121255
 30
0.0
 10
25.07513556383348
 20
18.49584790933022
 30
0.0
 10
25.16474572718185
 20
18.5470533324606
 30
0.0
 10
25.22361110480521
 20
18.6266592614975
 30
0.0
 10
25.22361110480521
 20
18.6266592614975
 30
0.0
 10
26.38777884777317
 20
18.6266592614975
 30
0.0
 10
26.38777884777317
 20
18.6266592614975
 30
0.0
 10
26.38777884777317
 20
18.6266592614975
 30
0.0
 10
25.47055716407642
 20
17.88582646664554
 30
0.0
 10
25.47055716407642
 20
17.88582646664554
 30
0.0
 10
25.40000268513085
 20
17.85054922717276
 30
0.0
 10
25.40000268513085
 20
17.81527198769997
 30
0.0
 10
25.43527992460364
 20
17.74471481727354
 30
0.0
 10
25.43527992460364
 20
17.74471481727354
 30
0.0
 10
25.43527992460364
 20
17.74471481727354
 30
0.0
 10
25.43527992460364
 20
17.74471481727354
 30
0.0
 10
25.43527992460364
 20
17.67416033832796
 30
0.0
 10
25.50583440354922
 20
17.63888040737433
 30
0.0
 10
25.54111433450285
 20
17.67416033832796
 30
0.0
 10
25.54111433450285
 20
17.67416033832796
 30
0.0
 10
26.7405593169436
 20
17.77999474822718
 30
0.0
 10
26.7405593169436
 20
17.77999474822718
 30
0.0
 10
26.7405593169436
 20
17.77999474822718
 30
0.0
 10
25.89389211219244
 20
16.9686047829488
 30
0.0
 10
25.89389211219244
 20
16.9686047829488
 30
0.0
 10
25.89389211219244
 20
16.9686047829488
 30
0.0
 10
25.89389211219244
 20
16.9686047829488
 30
0.0
 10
25.89389211219244
 20
16.9686047829488
 30
0.0
 10
25.79394397090747
 20
16.99210410223139
 30
0.0
 10
25.68880127158615
 20
16.96581910027127
 30
0.0
 10
25.61166881344843
 20
16.89805030400322
 30
0.0
 10
25.50863354363098
 20
16.7892175844395
 30
0.0
 10
25.50863354363098
 20
16.61882800640457
 30
0.0
 10
25.61166881344843
 20
16.50999528684085
 30
0.0
 10
25.73219063433437
 20
16.4021960959227
 30
0.0
 10
25.91447924919765
 20
16.4021960959227
 30
0.0
 10
26.03500107008359
 20
16.50999528684085
 30
0.0
 10
26.09676786406093
 20
16.59083391410606
 30
0.0
 10
26.11024680014697
 20
16.69866271131354
 30
0.0
 10
26.07027830955638
 20
16.79221858558485
 30
0.0
 10
26.07027830955638
 20
16.79221858558485
 30
0.0
 10
26.91694551430755
 20
17.60360316790154
 30
0.0
 10
26.91694551430755
 20
17.60360316790154
 30
0.0
 10
26.91694551430755
 20
17.60360316790154
 30
0.0
 10
26.77583386493555
 20
16.43943542493357
 30
0.0
 10
26.77583386493555
 20
16.43943542493357
 30
0.0
 10
26.77583386493555
 20
16.368880945988
 30
0.0
 10
26.81111110440833
 20
16.33360101503436
 30
0.0
 10
26.88166827483476
 20
16.29832377556157
 30
0.0
 10
26.88166827483476
 20
16.29832377556157
 30
0.0
 10
26.88166827483476
 20
16.29832377556157
 30
0.0
 10
26.88166827483476
 20
16.29832377556157
 30
0.0
 10
26.91694551430755
 20
16.26304653608878
 30
0.0
 10
26.98750268473398
 20
16.29832377556157
 30
0.0
 10
27.02277992420676
 20
16.33360101503436
 30
0.0
 10
27.02277992420676
 20
16.33360101503436
 30
0.0
 10
27.76361002757787
 20
17.25082539021195
 30
0.0
 10
27.76361002757787
 20
17.25082539021195
 30
0.0
 10
27.76361002757787
 20
17.25082539021195
 30
0.0
 10
27.76361002757787
 20
16.08665764724399
 30
0.0
 10
27.76361002757787
 20
16.08665764724399
 30
0.0
 10
27.6755017105426
 20
16.03579404218129
 30
0.0
 10
27.62158865767929
 20
15.94144687254071
 30
0.0
 10
27.62249837820587
 20
15.83971427945362
 30
0.0
 10
27.62249837820587
 20
15.6838479320737
 30
0.0
 10
27.7488526380891
 20
15.55749098070962
 30
0.0
 10
27.90471898546902
 20
15.55749098070962
 30
0.0
 10
27.90471898546902
 20
15.55749098070962
 30
0.0
 10
27.90472167694987
 20
15.55749098070962
 30
0.0
 10
27.90472167694987
 20
15.55749098070962
 30
0.0
 10
28.05355787635521
 20
15.57328459032481
 30
0.0
 10
28.17115136607869
 20
15.69087808004828
 30
0.0
 10
28.18694497569388
 20
15.83971427945362
 30
0.0
 10
28.18117174927524
 20
15.94932483698237
 30
0.0
 10
28.11237211584246
 20
16.04564755356528
 30
0.0
 10
28.01055608684909
 20
16.08665764724399
 30
0.0
 10
28.01055608684909
 20
16.08665764724399
 30
0.0
 10
28.01055608684909
 20
17.25082539021195
 30
0.0
 10
28.01055608684909
 20
17.25082539021195
 30
0.0
 10
28.01055608684909
 20
17.25082539021195
 30
0.0
 10
28.75138888170104
 20
16.33360370651521
 30
0.0
 10
28.75138888170104
 20
16.33360370651521
 30
0.0
 10
28.7940999912756
 20
16.28103639407582
 30
0.0
 10
28.86813455495745
 20
16.26623055793179
 30
0.0
 10
28.92777777054583
 20
16.29832646704242
 30
0.0
 10
28.92777777054583
 20
16.29832646704242
 30
0.0
 10
28.92777777054583
 20
16.29832646704242
 30
0.0
 10
28.92777777054583
 20
16.29832646704242
 30
0.0
 10
28.97219258749708
 20
16.33163892549628
 30
0.0
 10
28.99833224949141
 20
16.38391824948494
 30
0.0
 10
28.99833224949141
 20
16.43943811641442
 30
0.0
 10
28.99833224949141
 20
16.43943811641442
 30
0.0
 10
28.89250053107305
 20
17.60360316790154
 30
0.0
 10
28.89250053107305
 20
17.60360316790154
 30
0.0
 10
28.89250053107305
 20
17.60360316790154
 30
0.0
 10
29.70389049635143
 20
16.79221320262316
 30
0.0
 10
29.70389049635143
 20
16.79221320262316
 30
0.0
 10
29.70389049635143
 20
16.79221320262316
 30
0.0
 10
29.70389049635143
 20
16.79221320262316
 30
0.0
 10
29.70389049635143
 20
16.79221320262316
 30
0.0
 10
29.65373205927087
 20
16.64463661625462
 30
0.0
 10
29.73270279882768
 20
16.48434278287997
 30
0.0
 10
29.88027938519622
 20
16.43418165431857
 30
0.0
 10
30.02785597156476
 20
16.38402321723801
 30
0.0
 10
30.1881498049394
 20
16.46299664827567
 30
0.0
 10
30.23831093350081
 20
16.61057054316336
 30
0.0
 10
30.28846937058137
 20
16.7581471295319
 30
0.0
 10
30.20949593954371
 20
16.91844365438739
 30
0.0
 10
30.06192204465601
 20
16.96860209146795
 30
0.0
 10
30.00302706074333
 20
16.98861863453342
 30
0.0
 10
29.93917167762806
 20
16.98861863453342
 30
0.0
 10
29.88027938519622
 20
16.96860209146795
 30
0.0
 10
29.88027938519622
 20
16.96860209146795
 30
0.0
 10
29.88027938519622
 20
16.96860209146795
 30
0.0
 10
29.88027938519622
 20
16.96860209146795
 30
0.0
 10
29.88027938519622
 20
16.96860209146795
 30
0.0
 10
29.06888941991784
 20
17.77999205674633
 30
0.0
 10
29.06888941991784
 20
17.77999205674633
 30
0.0
 10
29.06888941991784
 20
17.77999205674633
 30
0.0
 10
30.2330571628858
 20
17.67415764684712
 30
0.0
 10
30.2330571628858
 20
17.67415764684712
 30
0.0
 10
30.30361164183138
 20
17.63888040737433
 30
0.0
 10
30.33889157278502
 20
17.67415764684712
 30
0.0
 10
30.3741688122578
 20
17.74471212579269
 30
0.0
 10
30.3741688122578
 20
17.74471212579269
 30
0.0
 10
30.3741688122578
 20
17.74471212579269
 30
0.0
 10
30.3741688122578
 20
17.74471212579269
 30
0.0
 10
30.3741688122578
 20
17.81526660473827
 30
0.0
 10
30.3741688122578
 20
17.85054653569191
 30
0.0
 10
30.33889157278502
 20
17.8858237751647
 30
0.0
 10
30.33889157278502
 20
17.8858237751647
 30
0.0
 10
29.42166988908827
 20
18.62665657001665
 30
0.0
 10
29.42166988908827
 20
18.62665657001665
 30
0.0
 10
29.42166988908827
 20
18.62665657001665
 30
0.0
 10
30.44472598268423
 20
18.62665657001665
 30
0.0
 10
30.44472598268423
 20
18.62665657001665
 30
0.0
 10
30.55875326028431
 20
17.85571956188148
 30
0.0
 10
30.6176993823331
 20
17.07763936357611
 30
0.0
 10
30.62111487152902
 20
16.29832377556157
 30
0.0
 10
30.62810464729089
 20
12.38734102999119
 30
0.0
 10
29.01966492669148
 20
8.64708429756173
 30
0.0
 10
26.17611002797474
 20
5.961936504145288
 30
0.0
  0
POLYLINE
  5
155
330
49
100
AcDbEntity
  8
Layer 1
370
     0
100
AcDb2dPolyline
 66
     1
 10
0.0
 20
0.0
 30
0.0
  0
VERTEX
  5
156
330
155
100
AcDbEntity
  8
Layer 1
370
     0
100
AcDbVertex
100
AcDb2dVertex
 10
27.58722113873308
 20
18.6266592614975
 30
0.0
  0
VERTEX
  5
157
330
155
100
AcDbEntity
  8
Layer 1
370
     0
100
AcDbVertex
100
AcDb2dVertex
 10
27.02277723272591
 20
18.06221535549033
 30
0.0
  0
VERTEX
  5
158
330
155
100
AcDbEntity
  8
Layer 1
370
     0
100
AcDbVertex
100
AcDb2dVertex
 10
25.92916666018438
 20
17.95638094559112
 30
0.0
  0
VERTEX
  5
159
330
155
100
AcDbEntity
  8
Layer 1
370
     0
100
AcDbVertex
100
AcDb2dVertex
 10
26.77583386493555
 20
18.6266592614975
 30
0.0
  0
VERTEX
  5
15A
330
155
100
AcDbEntity
  8
Layer 1
370
     0
100
AcDbVertex
100
AcDb2dVertex
 10
27.58722113873308
 20
18.6266592614975
 30
0.0
  0
SEQEND
  5
15B
330
155
100
AcDbEntity
  8
Layer 1
370
     0
  0
POLYLINE
  5
15C
330
49
100
AcDbEntity
  8
Layer 1
370
     0
100
AcDb2dPolyline
 66
     1
 10
0.0
 20
0.0
 30
0.0
  0
VERTEX
  5
15D
330
15C
100
AcDbEntity
  8
Layer 1
370
     0
100
AcDbVertex
100
AcDb2dVertex
 10
25.92916666018438
 20
19.57915818466704
 30
0.0
  0
VERTEX
  5
15E
330
15C
100
AcDbEntity
  8
Layer 1
370
     0
100
AcDbVertex
100
AcDb2dVertex
 10
27.02277723272591
 20
19.47332377476782
 30
0.0
  0
VERTEX
  5
15F
330
15C
100
AcDbEntity
  8
Layer 1
370
     0
100
AcDbVertex
100
AcDb2dVertex
 10
27.58722113873308
 20
18.90887986876066
 30
0.0
  0
VERTEX
  5
160
330
15C
100
AcDbEntity
  8
Layer 1
370
     0
100
AcDbVertex
100
AcDb2dVertex
 10
26.77583386493555
 20
18.90887986876066
 30
0.0
  0
VERTEX
  5
161
330
15C
100
AcDbEntity
  8
Layer 1
370
     0
100
AcDbVertex
100
AcDb2dVertex
 10
25.92916666018438
 20
19.57915818466704
 30
0.0
  0
SEQEND
  5
162
330
15C
100
AcDbEntity
  8
Layer 1
370
     0
  0
POLYLINE
  5
163
330
49
100
AcDbEntity
  8
Layer 1
370
     0
100
AcDb2dPolyline
 66
     1
 10
0.0
 20
0.0
 30
0.0
  0
VERTEX
  5
164
330
163
100
AcDbEntity
  8
Layer 1
370
     0
100
AcDbVertex
100
AcDb2dVertex
 10
27.19916612157071
 20
17.8858237751647
 30
0.0
  0
VERTEX
  5
165
330
163
100
AcDbEntity
  8
Layer 1
370
     0
100
AcDbVertex
100
AcDb2dVertex
 10
27.76361002757787
 20
18.45026768117186
 30
0.0
  0
VERTEX
  5
166
330
163
100
AcDbEntity
  8
Layer 1
370
     0
100
AcDbVertex
100
AcDb2dVertex
 10
27.76361002757787
 20
17.63887771589348
 30
0.0
  0
VERTEX
  5
167
330
163
100
AcDbEntity
  8
Layer 1
370
     0
100
AcDbVertex
100
AcDb2dVertex
 10
27.09333171167149
 20
16.8274877506151
 30
0.0
  0
VERTEX
  5
168
330
163
100
AcDbEntity
  8
Layer 1
370
     0
100
AcDbVertex
100
AcDb2dVertex
 10
27.19916612157071
 20
17.8858237751647
 30
0.0
  0
SEQEND
  5
169
330
163
100
AcDbEntity
  8
Layer 1
370
     0
  0
POLYLINE
  5
16A
330
49
100
AcDbEntity
  8
Layer 1
370
     0
100
AcDb2dPolyline
 66
     1
 10
0.0
 20
0.0
 30
0.0
  0
VERTEX
  5
16B
330
16A
100
AcDbEntity
  8
Layer 1
370
     0
100
AcDbVertex
100
AcDb2dVertex
 10
27.19916612157071
 20
19.64971266361261
 30
0.0
  0
VERTEX
  5
16C
330
16A
100
AcDbEntity
  8
Layer 1
370
     0
100
AcDbVertex
100
AcDb2dVertex
 10
27.09333171167149
 20
20.74332323615415
 30
0.0
  0
VERTEX
  5
16D
330
16A
100
AcDbEntity
  8
Layer 1
370
     0
100
AcDbVertex
100
AcDb2dVertex
 10
27.76361002757787
 20
19.89665603140298
 30
0.0
  0
VERTEX
  5
16E
330
16A
100
AcDbEntity
  8
Layer 1
370
     0
100
AcDbVertex
100
AcDb2dVertex
 10
27.76361002757787
 20
19.0852660661246
 30
0.0
  0
VERTEX
  5
16F
330
16A
100
AcDbEntity
  8
Layer 1
370
     0
100
AcDbVertex
100
AcDb2dVertex
 10
27.19916612157071
 20
19.64971266361261
 30
0.0
  0
SEQEND
  5
170
330
16A
100
AcDbEntity
  8
Layer 1
370
     0
  0
ENDBLK
  5
4C
330
49
100
AcDbEntity
  8
0
100
AcDbBlockEnd
  0
ENDSEC
  0
SECTION
  2
ENTITIES
  0
INSERT
  5
42
330
1F
100
AcDbEntity
  8
Layer 1
100
AcDbBlockReference
  2
block 2
 10
0.0
 20
0.0
 30
0.0
  0
INSERT
  5
46
330
1F
100
AcDbEntity
  8
Layer 1
100
AcDbBlockReference
  2
block 3
 10
0.0
 20
0.0
 30
0.0
  0
ENDSEC
  0
SECTION
  2
OBJECTS
  0
DICTIONARY
  5
C
330
0
100
AcDbDictionary
281
     1
  3
ACAD_GROUP
350
D
  3
ACAD_LAYOUT
350
1A
  3
ACAD_MATERIAL
350
3B
  3
ACAD_MLEADERSTYLE
350
172
  3
ACAD_MLINESTYLE
350
17
  3
ACAD_PLOTSETTINGS
350
19
  3
ACAD_PLOTSTYLENAME
350
E
  3
ACAD_TABLESTYLE
350
171
  3
ACAD_VISUALSTYLE
350
2A
  0
SUN
  5
3F
330
29
100
AcDbSun
 90
        1
290
     0
 63
     7
421
 16777215
 40
1.0
291
     1
 91
  2455826
 92
 54000000
292
     0
 70
     2
 71
   256
280
     1
  0
DICTIONARY
  5
D
102
{ACAD_REACTORS
330
C
102
}
330
C
100
AcDbDictionary
281
     1
  0
DICTIONARY
  5
1A
102
{ACAD_REACTORS
330
C
102
}
330
C
100
AcDbDictionary
281
     1
  3
Layout1
350
1E
  3
Layout2
350
26
  3
Model
350
22
  0
DICTIONARY
  5
3B
102
{ACAD_REACTORS
330
C
102
}
330
C
100
AcDbDictionary
281
     1
  3
ByBlock
350
3D
  3
ByLayer
350
3C
  3
Global
350
3E
  0
DICTIONARY
  5
172
102
{ACAD_REACTORS
330
C
102
}
330
C
100
AcDbDictionary
281
     1
  0
DICTIONARY
  5
17
102
{ACAD_REACTORS
330
C
102
}
330
C
100
AcDbDictionary
281
     1
  3
Standard
350
18
  0
DICTIONARY
  5
19
102
{ACAD_REACTORS
330
C
102
}
330
C
100
AcDbDictionary
281
     1
  0
ACDBDICTIONARYWDFLT
  5
E
102
{ACAD_REACTORS
330
C
102
}
330
C
100
AcDbDictionary
281
     1
  3
Normal
350
F
100
AcDbDictionaryWithDefault
340
F
  0
DICTIONARY
  5
171
102
{ACAD_REACTORS
330
C
102
}
330
C
100
AcDbDictionary
281
     1
  0
DICTIONARY
  5
2A
102
{ACAD_REACTORS
330
C
102
}
330
C
100
AcDbDictionary
281
     1
  3
2dWireframe
350
2F
  3
3D Hidden
350
31
  3
3dWireframe
350
30
  3
Basic
350
32
  3
Brighten
350
36
  3
ColorChange
350
3A
  3
Conceptual
350
34
  3
Dim
350
35
  3
Facepattern
350
39
  3
Flat
350
2B
  3
FlatWithEdges
350
2C
  3
Gouraud
350
2D
  3
GouraudWithEdges
350
2E
  3
Linepattern
350
38
  3
Realistic
350
33
  3
Thicken
350
37
  0
LAYOUT
  5
1E
102
{ACAD_REACTORS
330
1A
102
}
330
1A
100
AcDbPlotSettings
  1

  2
none_device
  4

  6

 40
0.0
 41
0.0
 42
0.0
 43
0.0
 44
0.0
 45
0.0
 46
0.0
 47
0.0
 48
0.0
 49
0.0
140
0.0
141
0.0
142
1.0
143
1.0
 70
   688
 72
     0
 73
     0
 74
     5
  7

 75
    16
 76
     0
 77
     2
 78
   300
147
1.0
148
0.0
149
0.0
100
AcDbLayout
  1
Layout1
 70
     1
 71
     1
 10
0.0
 20
0.0
 11
12.0
 21
9.0
 12
0.0
 22
0.0
 32
0.0
 14
1.000000000000000E+20
 24
1.000000000000000E+20
 34
1.000000000000000E+20
 15
-1.000000000000000E+20
 25
-1.000000000000000E+20
 35
-1.000000000000000E+20
146
0.0
 13
0.0
 23
0.0
 33
0.0
 16
1.0
 26
0.0
 36
0.0
 17
0.0
 27
1.0
 37
0.0
 76
     0
330
1B
  0
LAYOUT
  5
26
102
{ACAD_REACTORS
330
1A
102
}
330
1A
100
AcDbPlotSettings
  1

  2
none_device
  4

  6

 40
0.0
 41
0.0
 42
0.0
 43
0.0
 44
0.0
 45
0.0
 46
0.0
 47
0.0
 48
0.0
 49
0.0
140
0.0
141
0.0
142
1.0
143
1.0
 70
   688
 72
     0
 73
     0
 74
     5
  7

 75
    16
 76
     0
 77
     2
 78
   300
147
1.0
148
0.0
149
0.0
100
AcDbLayout
  1
Layout2
 70
     1
 71
     2
 10
0.0
 20
0.0
 11
0.0
 21
0.0
 12
0.0
 22
0.0
 32
0.0
 14
0.0
 24
0.0
 34
0.0
 15
0.0
 25
0.0
 35
0.0
146
0.0
 13
0.0
 23
0.0
 33
0.0
 16
1.0
 26
0.0
 36
0.0
 17
0.0
 27
1.0
 37
0.0
 76
     0
330
23
  0
LAYOUT
  5
22
102
{ACAD_REACTORS
330
1A
102
}
330
1A
100
AcDbPlotSettings
  1

  2
none_device
  4

  6

 40
0.0
 41
0.0
 42
0.0
 43
0.0
 44
0.0
 45
0.0
 46
0.0
 47
0.0
 48
0.0
 49
0.0
140
0.0
141
0.0
142
1.0
143
1.0
 70
  1712
 72
     0
 73
     0
 74
     0
  7

 75
     0
 76
     0
 77
     2
 78
   300
147
1.0
148
0.0
149
0.0
100
AcDbLayout
  1
Model
 70
     1
 71
     0
 10
0.0
 20
0.0
 11
12.0
 21
9.0
 12
0.0
 22
0.0
 32
0.0
 14
1.000000000000000E+20
 24
1.000000000000000E+20
 34
1.000000000000000E+20
 15
-1.000000000000000E+20
 25
-1.000000000000000E+20
 35
-1.000000000000000E+20
146
0.0
 13
0.0
 23
0.0
 33
0.0
 16
1.0
 26
0.0
 36
0.0
 17
0.0
 27
1.0
 37
0.0
 76
     0
330
1F
331
29
  0
MATERIAL
  5
3D
102
{ACAD_REACTORS
330
3B
102
}
330
3B
100
AcDbMaterial
  1
ByBlock
 72
     1
 94
      127
  0
MATERIAL
  5
3C
102
{ACAD_REACTORS
330
3B
102
}
330
3B
100
AcDbMaterial
  1
ByLayer
 72
     1
 94
      127
  0
MATERIAL
  5
3E
102
{ACAD_REACTORS
330
3B
102
}
330
3B
100
AcDbMaterial
  1
Global
 72
     1
 94
      127
  0
MLINESTYLE
  5
18
102
{ACAD_REACTORS
330
17
102
}
330
17
100
AcDbMlineStyle
  2
Standard
 70
     0
  3

 62
   256
 51
90.0
 52
90.0
 71
     2
 49
0.5
 62
   256
  6
BYLAYER
 49
-0.5
 62
   256
  6
BYLAYER
  0
ACDBPLACEHOLDER
  5
F
102
{ACAD_REACTORS
330
E
102
}
330
E
  0
VISUALSTYLE
  5
2F
102
{ACAD_REACTORS
330
2A
102
}
330
2A
100
AcDbVisualStyle
  2
2dWireframe
 70
     4
177
     2
291
     0
 71
     0
176
     1
 72
     2
176
     1
 73
     0
176
     1
 90
        0
176
     1
 40
-0.6
176
     1
 41
-30.0
176
     1
 62
     5
 63
     7
421
 16777215
176
     1
 74
     1
176
     1
 91
        4
176
     1
 64
     7
176
     1
 65
   257
176
     1
 75
     1
176
     1
175
     1
176
     1
 42
1.0
176
     1
 92
        0
176
     1
 66
   257
176
     1
 43
1.0
176
     1
 76
     1
176
     1
 77
     6
176
     1
 78
     2
176
     1
 67
     7
176
     1
 79
     5
176
     1
170
     0
176
     1
171
     0
176
     1
290
     0
176
     1
 93
        1
176
     1
 44
0.0
176
     1
173
     0
176
     1
  0
VISUALSTYLE
  5
31
102
{ACAD_REACTORS
330
2A
102
}
330
2A
100
AcDbVisualStyle
  2
3D Hidden
 70
     6
177
     2
291
     0
 71
     1
176
     1
 72
     2
176
     1
 73
     2
176
     1
 90
        0
176
     1
 40
-0.6
176
     1
 41
-30.0
176
     1
 62
     5
 63
     7
421
 16777215
176
     1
 74
     2
176
     1
 91
        2
176
     1
 64
     7
176
     1
 65
   257
176
     1
 75
     2
176
     1
175
     1
176
     1
 42
40.0
176
     1
 92
        0
176
     1
 66
   257
176
     1
 43
1.0
176
     1
 76
     1
176
     1
 77
     6
176
     1
 78
     2
176
     1
 67
     7
176
     1
 79
     3
176
     1
170
     0
176
     1
171
     0
176
     1
290
     0
176
     1
 93
        1
176
     1
 44
0.0
176
     1
173
     0
176
     1
  0
VISUALSTYLE
  5
30
102
{ACAD_REACTORS
330
2A
102
}
330
2A
100
AcDbVisualStyle
  2
3dWireframe
 70
     5
177
     2
291
     0
 71
     0
176
     1
 72
     2
176
     1
 73
     0
176
     1
 90
        0
176
     1
 40
-0.6
176
     1
 41
-30.0
176
     1
 62
     5
 63
     7
421
 16777215
176
     1
 74
     1
176
     1
 91
        4
176
     1
 64
     7
176
     1
 65
   257
176
     1
 75
     1
176
     1
175
     1
176
     1
 42
1.0
176
     1
 92
        0
176
     1
 66
   257
176
     1
 43
1.0
176
     1
 76
     1
176
     1
 77
     6
176
     1
 78
     2
176
     1
 67
     7
176
     1
 79
     5
176
     1
170
     0
176
     1
171
     0
176
     1
290
     0
176
     1
 93
        1
176
     1
 44
0.0
176
     1
173
     0
176
     1
  0
VISUALSTYLE
  5
32
102
{ACAD_REACTORS
330
2A
102
}
330
2A
100
AcDbVisualStyle
  2
Basic
 70
     7
177
     2
291
     1
 71
     1
176
     1
 72
     0
176
     1
 73
     1
176
     1
 90
        0
176
     1
 40
-0.6
176
     1
 41
-30.0
176
     1
 62
     5
 63
     7
421
 16777215
176
     1
 74
     0
176
     1
 91
        4
176
     1
 64
     7
176
     1
 65
   257
176
     1
 75
     1
176
     1
175
     1
176
     1
 42
1.0
176
     1
 92
        8
176
     1
 66
     7
176
     1
 43
1.0
176
     1
 76
     1
176
     1
 77
     6
176
     1
 78
     2
176
     1
 67
     7
176
     1
 79
     5
176
     1
170
     0
176
     1
171
     0
176
     1
290
     0
176
     1
 93
        1
176
     1
 44
0.0
176
     1
173
     0
176
     1
  0
VISUALSTYLE
  5
36
102
{ACAD_REACTORS
330
2A
102
}
330
2A
100
AcDbVisualStyle
  2
Brighten
 70
    12
177
     2
291
     1
 71
     2
176
     1
 72
     2
176
     1
 73
     0
176
     1
 90
        0
176
     1
 40
-0.6
176
     1
 41
-30.0
176
     1
 62
     5
 63
     7
421
 16777215
176
     1
 74
     1
176
     1
 91
        4
176
     1
 64
     7
176
     1
 65
   257
176
     1
 75
     1
176
     1
175
     1
176
     1
 42
1.0
176
     1
 92
        8
176
     1
 66
     7
176
     1
 43
1.0
176
     1
 76
     1
176
     1
 77
     6
176
     1
 78
     2
176
     1
 67
     7
176
     1
 79
     5
176
     1
170
     0
176
     1
171
     0
176
     1
290
     0
176
     1
 93
        1
176
     1
 44
50.0
176
     1
173
     0
176
     1
  0
VISUALSTYLE
  5
3A
102
{ACAD_REACTORS
330
2A
102
}
330
2A
100
AcDbVisualStyle
  2
ColorChange
 70
    16
177
     2
291
     1
 71
     2
176
     1
 72
     2
176
     1
 73
     3
176
     1
 90
        0
176
     1
 40
-0.6
176
     1
 41
-30.0
176
     1
 62
     5
 63
     8
421
  8421504
176
     1
 74
     1
176
     1
 91
        4
176
     1
 64
     7
176
     1
 65
   257
176
     1
 75
     1
176
     1
175
     1
176
     1
 42
1.0
176
     1
 92
        8
176
     1
 66
     8
424
  8421504
176
     1
 43
1.0
176
     1
 76
     1
176
     1
 77
     6
176
     1
 78
     2
176
     1
 67
     7
176
     1
 79
     5
176
     1
170
     0
176
     1
171
     0
176
     1
290
     0
176
     1
 93
        1
176
     1
 44
0.0
176
     1
173
     0
176
     1
  0
VISUALSTYLE
  5
34
102
{ACAD_REACTORS
330
2A
102
}
330
2A
100
AcDbVisualStyle
  2
Conceptual
 70
     9
177
     2
291
     0
 71
     3
176
     1
 72
     2
176
     1
 73
     0
176
     1
 90
        0
176
     1
 40
-0.6
176
     1
 41
-30.0
176
     1
 62
     5
 63
     7
421
 16777215
176
     1
 74
     2
176
     1
 91
        2
176
     1
 64
     7
176
     1
 65
   257
176
     1
 75
     1
176
     1
175
     1
176
     1
 42
40.0
176
     1
 92
        8
176
     1
 66
     7
176
     1
 43
1.0
176
     1
 76
     1
176
     1
 77
     6
176
     1
 78
     2
176
     1
 67
     7
176
     1
 79
     3
176
     1
170
     0
176
     1
171
     0
176
     1
290
     0
176
     1
 93
        1
176
     1
 44
0.0
176
     1
173
     0
176
     1
  0
VISUALSTYLE
  5
35
102
{ACAD_REACTORS
330
2A
102
}
330
2A
100
AcDbVisualStyle
  2
Dim
 70
    11
177
     2
291
     1
 71
     2
176
     1
 72
     2
176
     1
 73
     0
176
     1
 90
        0
176
     1
 40
-0.6
176
     1
 41
-30.0
176
     1
 62
     5
 63
     7
421
 16777215
176
     1
 74
     1
176
     1
 91
        4
176
     1
 64
     7
176
     1
 65
   257
176
     1
 75
     1
176
     1
175
     1
176
     1
 42
1.0
176
     1
 92
        8
176
     1
 66
     7
176
     1
 43
1.0
176
     1
 76
     1
176
     1
 77
     6
176
     1
 78
     2
176
     1
 67
     7
176
     1
 79
     5
176
     1
170
     0
176
     1
171
     0
176
     1
290
     0
176
     1
 93
        1
176
     1
 44
-50.0
176
     1
173
     0
176
     1
  0
VISUALSTYLE
  5
39
102
{ACAD_REACTORS
330
2A
102
}
330
2A
100
AcDbVisualStyle
  2
Facepattern
 70
    15
177
     2
291
     1
 71
     2
176
     1
 72
     2
176
     1
 73
     0
176
     1
 90
        0
176
     1
 40
-0.6
176
     1
 41
-30.0
176
     1
 62
     5
 63
     7
421
 16777215
176
     1
 74
     1
176
     1
 91
        4
176
     1
 64
     7
176
     1
 65
   257
176
     1
 75
     1
176
     1
175
     1
176
     1
 42
1.0
176
     1
 92
        8
176
     1
 66
     7
176
     1
 43
1.0
176
     1
 76
     1
176
     1
 77
     6
176
     1
 78
     2
176
     1
 67
     7
176
     1
 79
     5
176
     1
170
     0
176
     1
171
     0
176
     1
290
     0
176
     1
 93
        1
176
     1
 44
0.0
176
     1
173
     0
176
     1
  0
VISUALSTYLE
  5
2B
102
{ACAD_REACTORS
330
2A
102
}
330
2A
100
AcDbVisualStyle
  2
Flat
 70
     0
177
     2
291
     1
 71
     2
176
     1
 72
     1
176
     1
 73
     1
176
     1
 90
        2
176
     1
 40
-0.6
176
     1
 41
30.0
176
     1
 62
     5
 63
     7
421
 16777215
176
     1
 74
     0
176
     1
 91
        4
176
     1
 64
     7
176
     1
 65
   257
176
     1
 75
     1
176
     1
175
     1
176
     1
 42
1.0
176
     1
 92
        8
176
     1
 66
     7
176
     1
 43
1.0
176
     1
 76
     1
176
     1
 77
     6
176
     1
 78
     2
176
     1
 67
     7
176
     1
 79
     5
176
     1
170
     0
176
     1
171
     0
176
     1
290
     0
176
     1
 93
       13
176
     1
 44
0.0
176
     1
173
     0
176
     1
  0
VISUALSTYLE
  5
2C
102
{ACAD_REACTORS
330
2A
102
}
330
2A
100
AcDbVisualStyle
  2
FlatWithEdges
 70
     1
177
     2
291
     1
 71
     2
176
     1
 72
     1
176
     1
 73
     1
176
     1
 90
        2
176
     1
 40
-0.6
176
     1
 41
30.0
176
     1
 62
     5
 63
     7
421
 16777215
176
     1
 74
     1
176
     1
 91
        4
176
     1
 64
     7
176
     1
 65
   257
176
     1
 75
     1
176
     1
175
     1
176
     1
 42
1.0
176
     1
 92
        0
176
     1
 66
   257
176
     1
 43
1.0
176
     1
 76
     1
176
     1
 77
     6
176
     1
 78
     2
176
     1
 67
     7
176
     1
 79
     5
176
     1
170
     0
176
     1
171
     0
176
     1
290
     0
176
     1
 93
       13
176
     1
 44
0.0
176
     1
173
     0
176
     1
  0
VISUALSTYLE
  5
2D
102
{ACAD_REACTORS
330
2A
102
}
330
2A
100
AcDbVisualStyle
  2
Gouraud
 70
     2
177
     2
291
     1
 71
     2
176
     1
 72
     2
176
     1
 73
     1
176
     1
 90
        2
176
     1
 40
-0.6
176
     1
 41
30.0
176
     1
 62
     5
 63
     7
421
 16777215
176
     1
 74
     0
176
     1
 91
        4
176
     1
 64
     7
176
     1
 65
   257
176
     1
 75
     1
176
     1
175
     1
176
     1
 42
1.0
176
     1
 92
        0
176
     1
 66
     7
176
     1
 43
1.0
176
     1
 76
     1
176
     1
 77
     6
176
     1
 78
     2
176
     1
 67
     7
176
     1
 79
     5
176
     1
170
     0
176
     1
171
     0
176
     1
290
     0
176
     1
 93
       13
176
     1
 44
0.0
176
     1
173
     0
176
     1
  0
VISUALSTYLE
  5
2E
102
{ACAD_REACTORS
330
2A
102
}
330
2A
100
AcDbVisualStyle
  2
GouraudWithEdges
 70
     3
177
     2
291
     1
 71
     2
176
     1
 72
     2
176
     1
 73
     1
176
     1
 90
        2
176
     1
 40
-0.6
176
     1
 41
30.0
176
     1
 62
     5
 63
     7
421
 16777215
176
     1
 74
     1
176
     1
 91
        4
176
     1
 64
     7
176
     1
 65
   257
176
     1
 75
     1
176
     1
175
     1
176
     1
 42
1.0
176
     1
 92
        0
176
     1
 66
   257
176
     1
 43
1.0
176
     1
 76
     1
176
     1
 77
     6
176
     1
 78
     2
176
     1
 67
     7
176
     1
 79
     5
176
     1
170
     0
176
     1
171
     0
176
     1
290
     0
176
     1
 93
       13
176
     1
 44
0.0
176
     1
173
     0
176
     1
  0
VISUALSTYLE
  5
38
102
{ACAD_REACTORS
330
2A
102
}
330
2A
100
AcDbVisualStyle
  2
Linepattern
 70
    14
177
     2
291
     1
 71
     2
176
     1
 72
     2
176
     1
 73
     0
176
     1
 90
        0
176
     1
 40
-0.6
176
     1
 41
-30.0
176
     1
 62
     5
 63
     7
421
 16777215
176
     1
 74
     1
176
     1
 91
        4
176
     1
 64
     7
176
     1
 65
   257
176
     1
 75
     7
176
     1
175
     7
176
     1
 42
1.0
176
     1
 92
        8
176
     1
 66
     7
176
     1
 43
1.0
176
     1
 76
     1
176
     1
 77
     6
176
     1
 78
     2
176
     1
 67
     7
176
     1
 79
     5
176
     1
170
     0
176
     1
171
     0
176
     1
290
     0
176
     1
 93
        1
176
     1
 44
0.0
176
     1
173
     0
176
     1
  0
VISUALSTYLE
  5
33
102
{ACAD_REACTORS
330
2A
102
}
330
2A
100
AcDbVisualStyle
  2
Realistic
 70
     8
177
     2
291
     0
 71
     2
176
     1
 72
     2
176
     1
 73
     0
176
     1
 90
        0
176
     1
 40
-0.6
176
     1
 41
-30.0
176
     1
 62
     5
 63
     7
421
 16777215
176
     1
 74
     1
176
     1
 91
        0
176
     1
 64
     7
176
     1
 65
   257
176
     1
 75
     1
176
     1
175
     1
176
     1
 42
1.0
176
     1
 92
        8
176
     1
 66
     8
424
  7895160
176
     1
 43
1.0
176
     1
 76
     1
176
     1
 77
     6
176
     1
 78
     2
176
     1
 67
     7
176
     1
 79
     5
176
     1
170
     0
176
     1
171
     0
176
     1
290
     0
176
     1
 93
       13
176
     1
 44
0.0
176
     1
173
     0
176
     1
  0
VISUALSTYLE
  5
37
102
{ACAD_REACTORS
330
2A
102
}
330
2A
100
AcDbVisualStyle
  2
Thicken
 70
    13
177
     2
291
     1
 71
     2
176
     1
 72
     2
176
     1
 73
     0
176
     1
 90
        0
176
     1
 40
-0.6
176
     1
 41
-30.0
176
     1
 62
     5
 63
     7
421
 16777215
176
     1
 74
     1
176
     1
 91
        4
176
     1
 64
     7
176
     1
 65
   257
176
     1
 75
     1
176
     1
175
     1
176
     1
 42
1.0
176
     1
 92
       12
176
     1
 66
     7
176
     1
 43
1.0
176
     1
 76
     1
176
     1
 77
     6
176
     1
 78
     2
176
     1
 67
     7
176
     1
 79
     5
176
     1
170
     0
176
     1
171
     0
176
     1
290
     0
176
     1
 93
        1
176
     1
 44
0.0
176
     1
173
     0
176
     1
  0
ENDSEC
  0
EOF
