  0
SECTION
  2
HEADER
  9
$ACADVER
  1
AC1014
  9
$ACADMAINTVER
 70
     9
  9
$DWGCODEPAGE
  3
ANSI_1252
  9
$INSBASE
 10
0.0
 20
0.0
 30
0.0
  9
$EXTMIN
 10
1.000000000000000E+20
 20
1.000000000000000E+20
 30
1.000000000000000E+20
  9
$EXTMAX
 10
-1.000000000000000E+20
 20
-1.000000000000000E+20
 30
-1.000000000000000E+20
  9
$LIMMIN
 10
0.0
 20
0.0
  9
$LIMMAX
 10
12.0
 20
9.0
  9
$ORTHOMODE
 70
     0
  9
$REGENMODE
 70
     1
  9
$FILLMODE
 70
     1
  9
$QTEXTMODE
 70
     0
  9
$MIRRTEXT
 70
     1
  9
$DRAGMODE
 70
     2
  9
$LTSCALE
 40
1.0
  9
$OSMODE
 70
    37
  9
$ATTMODE
 70
     1
  9
$TEXTSIZE
 40
0.2
  9
$TRACEWID
 40
0.05
  9
$TEXTSTYLE
  7
STANDARD
  9
$CLAYER
  8
0
  9
$CELTYPE
  6
BYLAYER
  9
$CECOLOR
 62
   256
  9
$CELTSCALE
 40
1.0
  9
$DELOBJ
 70
     1
  9
$DISPSILH
 70
     0
  9
$DIMSCALE
 40
1.0
  9
$DIMASZ
 40
0.18
  9
$DIMEXO
 40
0.0625
  9
$DIMDLI
 40
0.38
  9
$DIMRND
 40
0.0
  9
$DIMDLE
 40
0.0
  9
$DIMEXE
 40
0.18
  9
$DIMTP
 40
0.0
  9
$DIMTM
 40
0.0
  9
$DIMTXT
 40
0.18
  9
$DIMCEN
 40
0.09
  9
$DIMTSZ
 40
0.0
  9
$DIMTOL
 70
     0
  9
$DIMLIM
 70
     0
  9
$DIMTIH
 70
     1
  9
$DIMTOH
 70
     1
  9
$DIMSE1
 70
     0
  9
$DIMSE2
 70
     0
  9
$DIMTAD
 70
     0
  9
$DIMZIN
 70
     0
  9
$DIMBLK
  1

  9
$DIMASO
 70
     1
  9
$DIMSHO
 70
     1
  9
$DIMPOST
  1

  9
$DIMAPOST
  1

  9
$DIMALT
 70
     0
  9
$DIMALTD
 70
     2
  9
$DIMALTF
 40
25.4
  9
$DIMLFAC
 40
1.0
  9
$DIMTOFL
 70
     0
  9
$DIMTVP
 40
0.0
  9
$DIMTIX
 70
     0
  9
$DIMSOXD
 70
     0
  9
$DIMSAH
 70
     0
  9
$DIMBLK1
  1

  9
$DIMBLK2
  1

  9
$DIMSTYLE
  2
STANDARD
  9
$DIMCLRD
 70
     0
  9
$DIMCLRE
 70
     0
  9
$DIMCLRT
 70
     0
  9
$DIMTFAC
 40
1.0
  9
$DIMGAP
 40
0.09
  9
$DIMJUST
 70
     0
  9
$DIMSD1
 70
     0
  9
$DIMSD2
 70
     0
  9
$DIMTOLJ
 70
     1
  9
$DIMTZIN
 70
     0
  9
$DIMALTZ
 70
     0
  9
$DIMALTTZ
 70
     0
  9
$DIMFIT
 70
     3
  9
$DIMUPT
 70
     0
  9
$DIMUNIT
 70
     2
  9
$DIMDEC
 70
     4
  9
$DIMTDEC
 70
     4
  9
$DIMALTU
 70
     2
  9
$DIMALTTD
 70
     2
  9
$DIMTXSTY
  7
STANDARD
  9
$DIMAUNIT
 70
     0
  9
$LUNITS
 70
     2
  9
$LUPREC
 70
     4
  9
$SKETCHINC
 40
0.1
  9
$FILLETRAD
 40
0.5
  9
$AUNITS
 70
     0
  9
$AUPREC
 70
     0
  9
$MENU
  1
.
  9
$ELEVATION
 40
0.0
  9
$PELEVATION
 40
0.0
  9
$THICKNESS
 40
0.0
  9
$LIMCHECK
 70
     0
  9
$CHAMFERA
 40
0.5
  9
$CHAMFERB
 40
0.5
  9
$CHAMFERC
 40
1.0
  9
$CHAMFERD
 40
0.0
  9
$SKPOLY
 70
     0
  9
$TDCREATE
 40
2459455.470457581
  9
$TDUPDATE
 40
2459455.470457674
  9
$TDINDWG
 40
0.0000000116
  9
$TDUSRTIMER
 40
0.0000000116
  9
$USRTIMER
 70
     1
  9
$ANGBASE
 50
0.0
  9
$ANGDIR
 70
     0
  9
$PDMODE
 70
     0
  9
$PDSIZE
 40
0.0
  9
$PLINEWID
 40
0.0
  9
$COORDS
 70
     1
  9
$SPLFRAME
 70
     0
  9
$SPLINETYPE
 70
     6
  9
$SPLINESEGS
 70
     8
  9
$ATTDIA
 70
     0
  9
$ATTREQ
 70
     1
  9
$HANDLING
 70
     1
  9
$HANDSEED
  5
1DF
  9
$SURFTAB1
 70
     6
  9
$SURFTAB2
 70
     6
  9
$SURFTYPE
 70
     6
  9
$SURFU
 70
     6
  9
$SURFV
 70
     6
  9
$UCSNAME
  2

  9
$UCSORG
 10
0.0
 20
0.0
 30
0.0
  9
$UCSXDIR
 10
1.0
 20
0.0
 30
0.0
  9
$UCSYDIR
 10
0.0
 20
1.0
 30
0.0
  9
$PUCSNAME
  2

  9
$PUCSORG
 10
0.0
 20
0.0
 30
0.0
  9
$PUCSXDIR
 10
1.0
 20
0.0
 30
0.0
  9
$PUCSYDIR
 10
0.0
 20
1.0
 30
0.0
  9
$USERI1
 70
     0
  9
$USERI2
 70
     0
  9
$USERI3
 70
     0
  9
$USERI4
 70
     0
  9
$USERI5
 70
     0
  9
$USERR1
 40
0.0
  9
$USERR2
 40
0.0
  9
$USERR3
 40
0.0
  9
$USERR4
 40
0.0
  9
$USERR5
 40
0.0
  9
$WORLDVIEW
 70
     1
  9
$SHADEDGE
 70
     3
  9
$SHADEDIF
 70
    70
  9
$TILEMODE
 70
     1
  9
$MAXACTVP
 70
    64
  9
$PINSBASE
 10
0.0
 20
0.0
 30
0.0
  9
$PLIMCHECK
 70
     0
  9
$PEXTMIN
 10
1.000000000000000E+20
 20
1.000000000000000E+20
 30
1.000000000000000E+20
  9
$PEXTMAX
 10
-1.000000000000000E+20
 20
-1.000000000000000E+20
 30
-1.000000000000000E+20
  9
$PLIMMIN
 10
0.0
 20
0.0
  9
$PLIMMAX
 10
12.0
 20
9.0
  9
$UNITMODE
 70
     0
  9
$VISRETAIN
 70
     1
  9
$PLINEGEN
 70
     0
  9
$PSLTSCALE
 70
     1
  9
$TREEDEPTH
 70
  3020
  9
$PICKSTYLE
 70
     1
  9
$CMLSTYLE
  2
STANDARD
  9
$CMLJUST
 70
     0
  9
$CMLSCALE
 40
1.0
  9
$PROXYGRAPHICS
 70
     1
  9
$MEASUREMENT
 70
     0
  0
ENDSEC
  0
SECTION
  2
CLASSES
  0
CLASS
  1
ACDBDICTIONARYWDFLT
  2
AcDbDictionaryWithDefault
  3
ObjectDBX Classes
 90
        0
280
     0
281
     0
  0
CLASS
  1
VISUALSTYLE
  2
AcDbVisualStyle
  3
ObjectDBX Classes
 90
     4095
280
     0
281
     0
  0
CLASS
  1
MATERIAL
  2
AcDbMaterial
  3
ObjectDBX Classes
 90
     1153
280
     0
281
     0
  0
CLASS
  1
SUN
  2
AcDbSun
  3
SCENEOE
 90
     1024
280
     0
281
     0
  0
CLASS
  1
DICTIONARYVAR
  2
AcDbDictionaryVar
  3
ObjectDBX Classes
 90
        0
280
     0
281
     0
  0
CLASS
  1
XRECORD
  2
AcDbXrecord
  3
AutoCAD 2000
 90
        0
280
     0
281
     0
  0
CLASS
  1
LWPOLYLINE
  2
AcDbPolyline
  3
AutoCAD 2000
 90
        0
280
     0
281
     1
  0
CLASS
  1
HATCH
  2
AcDbHatch
  3
AutoCAD 2000
 90
        0
280
     0
281
     1
  0
CLASS
  1
ACDBPLACEHOLDER
  2
AcDbPlaceHolder
  3
ObjectDBX Classes
 90
        0
280
     0
281
     0
  0
CLASS
  1
LAYOUT
  2
AcDbLayout
  3
ObjectDBX Classes
 90
        0
280
     0
281
     0
  0
ENDSEC
  0
SECTION
  2
TABLES
  0
TABLE
  2
VPORT
  5
8
330
0
100
AcDbSymbolTable
 70
     1
  0
VPORT
  5
29
330
8
100
AcDbSymbolTableRecord
100
AcDbViewportTableRecord
  2
*ACTIVE
 70
     0
 10
0.0
 20
0.0
 11
1.0
 21
1.0
 12
0.0
 22
0.0
 13
0.0
 23
0.0
 14
0.5
 24
0.5
 15
0.5
 25
0.5
 16
0.0
 26
0.0
 36
1.0
 17
46.40000152587891
 27
63.09999847412109
 37
0.0
 40
126.1999969482422
 41
0.7353407709654497
 42
50.0
 43
0.0
 44
0.0
 50
0.0
 51
0.0
 71
     0
 72
   100
 73
     1
 74
     3
 75
     0
 76
     0
 77
     0
 78
     0
  0
ENDTAB
  0
TABLE
  2
LTYPE
  5
5
330
0
100
AcDbSymbolTable
 70
     1
  0
LTYPE
  5
14
330
5
100
AcDbSymbolTableRecord
100
AcDbLinetypeTableRecord
  2
BYBLOCK
 70
     0
  3

 72
    65
 73
     0
 40
0.0
  0
LTYPE
  5
15
330
5
100
AcDbSymbolTableRecord
100
AcDbLinetypeTableRecord
  2
BYLAYER
 70
     0
  3

 72
    65
 73
     0
 40
0.0
  0
LTYPE
  5
16
330
5
100
AcDbSymbolTableRecord
100
AcDbLinetypeTableRecord
  2
CONTINUOUS
 70
     0
  3
Solid line
 72
    65
 73
     0
 40
0.0
  0
ENDTAB
  0
TABLE
  2
LAYER
  5
2
330
0
100
AcDbSymbolTable
 70
     2
  0
LAYER
  5
10
330
2
100
AcDbSymbolTableRecord
100
AcDbLayerTableRecord
  2
0
 70
     0
 62
     7
  6
CONTINUOUS
  0
LAYER
  5
40
330
2
100
AcDbSymbolTableRecord
100
AcDbLayerTableRecord
  2
LAYER_1
 70
     0
 62
     7
  6
CONTINUOUS
  0
ENDTAB
  0
TABLE
  2
STYLE
  5
3
330
0
100
AcDbSymbolTable
 70
     1
  0
STYLE
  5
11
330
3
100
AcDbSymbolTableRecord
100
AcDbTextStyleTableRecord
  2
STANDARD
 70
     0
 40
0.0
 41
1.0
 50
0.0
 71
     0
 42
0.2
  3
txt
  4

  0
ENDTAB
  0
TABLE
  2
VIEW
  5
6
330
0
100
AcDbSymbolTable
 70
     0
  0
ENDTAB
  0
TABLE
  2
UCS
  5
7
330
0
100
AcDbSymbolTable
 70
     0
  0
ENDTAB
  0
TABLE
  2
APPID
  5
9
330
0
100
AcDbSymbolTable
 70
     1
  0
APPID
  5
12
330
9
100
AcDbSymbolTableRecord
100
AcDbRegAppTableRecord
  2
ACAD
 70
     0
  0
ENDTAB
  0
TABLE
  2
DIMSTYLE
  5
A
330
0
100
AcDbSymbolTable
 70
     1
  0
DIMSTYLE
105
27
330
A
100
AcDbSymbolTableRecord
100
AcDbDimStyleTableRecord
  2
STANDARD
 70
     0
  3

  4

  5

  6

  7

 40
1.0
 41
0.18
 42
0.0625
 43
0.38
 44
0.18
 45
0.0
 46
0.0
 47
0.0
 48
0.0
140
0.18
141
0.09
142
0.0
143
25.4
144
1.0
145
0.0
146
1.0
147
0.09
 71
     0
 72
     0
 73
     1
 74
     1
 75
     0
 76
     0
 77
     0
 78
     0
170
     0
171
     2
172
     0
173
     0
174
     0
175
     0
176
     0
177
     0
178
     0
270
     2
271
     4
272
     4
273
     2
274
     2
340
11
275
     0
280
     0
281
     0
282
     0
283
     1
284
     0
285
     0
286
     0
287
     3
288
     0
  0
ENDTAB
  0
TABLE
  2
BLOCK_RECORD
  5
1
330
0
100
AcDbSymbolTable
 70
     2
  0
BLOCK_RECORD
  5
1F
330
1
100
AcDbSymbolTableRecord
100
AcDbBlockTableRecord
  2
*MODEL_SPACE
  0
BLOCK_RECORD
  5
1B
330
1
100
AcDbSymbolTableRecord
100
AcDbBlockTableRecord
  2
*PAPER_SPACE
  0
BLOCK_RECORD
  5
41
330
1
100
AcDbSymbolTableRecord
100
AcDbBlockTableRecord
  2
BLOCK_2
  0
ENDTAB
  0
ENDSEC
  0
SECTION
  2
BLOCKS
  0
BLOCK
  5
20
330
1F
100
AcDbEntity
  8
0
100
AcDbBlockBegin
  2
*MODEL_SPACE
 70
     0
 10
0.0
 20
0.0
 30
0.0
  3
*MODEL_SPACE
  1

  0
ENDBLK
  5
21
330
1F
100
AcDbEntity
  8
0
100
AcDbBlockEnd
  0
BLOCK
  5
1C
330
1B
100
AcDbEntity
 67
     1
  8
0
100
AcDbBlockBegin
  2
*PAPER_SPACE
 70
     0
 10
0.0
 20
0.0
 30
0.0
  3
*PAPER_SPACE
  1

  0
ENDBLK
  5
1D
330
1B
100
AcDbEntity
 67
     1
  8
0
100
AcDbBlockEnd
  0
BLOCK
  5
43
330
41
100
AcDbEntity
  8
0
100
AcDbBlockBegin
  2
BLOCK_2
 70
     0
 10
0.0
 20
0.0
 30
0.0
  3
BLOCK_2
  1

  0
ENDBLK
  5
44
330
41
100
AcDbEntity
  8
0
100
AcDbBlockEnd
  0
ENDSEC
  0
SECTION
  2
ENTITIES
  0
INSERT
  5
42
330
1F
100
AcDbEntity
  8
LAYER_1
100
AcDbBlockReference
  2
BLOCK_2
 10
0.0
 20
0.0
 30
0.0
  0
SPLINE
  5
45
330
1F
100
AcDbEntity
  8
LAYER_1
 62
   178
100
AcDbSpline
210
0.0
220
0.0
230
1.0
 70
    11
 71
     3
 72
   116
 73
   112
 74
     0
 42
0.0000000001
 43
0.0000000001
 12
1.0
 22
0.0
 32
0.0
 13
1.0
 23
0.0
 33
0.0
 40
0.0
 40
0.0
 40
0.0
 40
0.0
 40
1.0
 40
1.0
 40
1.0
 40
2.0
 40
2.0
 40
2.0
 40
3.0
 40
3.0
 40
3.0
 40
4.0
 40
4.0
 40
4.0
 40
5.0
 40
5.0
 40
5.0
 40
6.0
 40
6.0
 40
6.0
 40
7.0
 40
7.0
 40
7.0
 40
8.0
 40
8.0
 40
8.0
 40
9.0
 40
9.0
 40
9.0
 40
10.0
 40
10.0
 40
10.0
 40
11.0
 40
11.0
 40
11.0
 40
12.0
 40
12.0
 40
12.0
 40
13.0
 40
13.0
 40
13.0
 40
14.0
 40
14.0
 40
14.0
 40
15.0
 40
15.0
 40
15.0
 40
16.0
 40
16.0
 40
16.0
 40
17.0
 40
17.0
 40
17.0
 40
18.0
 40
18.0
 40
18.0
 40
19.0
 40
19.0
 40
19.0
 40
20.0
 40
20.0
 40
20.0
 40
21.0
 40
21.0
 40
21.0
 40
22.0
 40
22.0
 40
22.0
 40
23.0
 40
23.0
 40
23.0
 40
24.0
 40
24.0
 40
24.0
 40
25.0
 40
25.0
 40
25.0
 40
26.0
 40
26.0
 40
26.0
 40
27.0
 40
27.0
 40
27.0
 40
28.0
 40
28.0
 40
28.0
 40
29.0
 40
29.0
 40
29.0
 40
30.0
 40
30.0
 40
30.0
 40
31.0
 40
31.0
 40
31.0
 40
32.0
 40
32.0
 40
32.0
 40
33.0
 40
33.0
 40
33.0
 40
34.0
 40
34.0
 40
34.0
 40
35.0
 40
35.0
 40
35.0
 40
36.0
 40
36.0
 40
36.0
 40
37.0
 40
37.0
 40
37.0
 40
37.0
 10
72.5
 20
84.59999945068375
 30
0.0
 10
72.5
 20
84.59999945068375
 30
0.0
 10
73.30000305175781
 20
84.8999986877443
 30
0.0
 10
73.30000305175781
 20
84.8999986877443
 30
0.0
 10
73.30000305175781
 20
84.8999986877443
 30
0.0
 10
73.30000305175781
 20
84.8999986877443
 30
0.0
 10
73.30000305175781
 20
84.8999986877443
 30
0.0
 10
75.76178741455078
 20
85.97454550170914
 30
0.0
 10
78.00041961669922
 20
87.50088598632829
 30
0.0
 10
79.9000015258789
 20
89.3999986877443
 30
0.0
 10
84.0999984741211
 20
94.59999945068375
 30
0.0
 10
79.0999984741211
 20
100.1999979248048
 30
0.0
 10
79.0999984741211
 20
105.5999994506838
 30
0.0
 10
79.0999984741211
 20
111.0000009765627
 30
0.0
 10
81.5
 20
115.0999994506838
 30
0.0
 10
79.5
 20
119.6999998321535
 30
0.0
 10
77.5
 20
124.3000002136232
 30
0.0
 10
75.4000015258789
 20
124.0999980201723
 30
0.0
 10
72.0
 20
124.2999979486467
 30
0.0
 10
69.22042846679688
 20
124.3665007581712
 30
0.0
 10
66.47965240478516
 20
123.6379416217806
 30
0.0
 10
64.0999984741211
 20
122.1999979248048
 30
0.0
 10
62.09999847412109
 20
120.7999978294374
 30
0.0
 10
51.79999923706055
 20
110.4999981155397
 30
0.0
 10
51.69999694824219
 20
110.4999981155397
 30
0.0
 10
51.52428817749023
 20
111.1169929733278
 30
0.0
 10
51.1776008605957
 20
111.6716881027223
 30
0.0
 10
50.69999694824219
 20
112.0999984970094
 30
0.0
 10
50.22500991821289
 20
112.4153108825685
 30
0.0
 10
49.67000579833984
 20
112.5887489547731
 30
0.0
 10
49.09999847412109
 20
112.5999984970094
 30
0.0
 10
49.09999847412109
 20
112.5999984970094
 30
0.0
 10
46.09999847412109
 20
112.5999984970094
 30
0.0
 10
46.09999847412109
 20
112.5999984970094
 30
0.0
 10
45.65002822875977
 20
112.5955372085573
 30
0.0
 10
45.2064208984375
 20
112.493165992737
 30
0.0
 10
44.79999923706055
 20
112.2999983062746
 30
0.0
 10
44.20000076293945
 20
111.8999986877443
 30
0.0
 10
43.70000076293945
 20
111.2999983062746
 30
0.0
 10
43.70000076293945
 20
110.9999981155397
 30
0.0
 10
40.40000152587891
 20
115.3999986877443
 30
0.0
 10
36.5
 20
120.0999984970094
 30
0.0
 10
32.20000076293945
 20
123.39999773407
 30
0.0
 10
29.94470024108887
 20
125.018508457184
 30
0.0
 10
27.27220344543457
 20
125.9556179871561
 30
0.0
 10
24.5
 20
126.0999979233147
 30
0.0
 10
21.20000076293945
 20
126.0999979233147
 30
0.0
 10
18.20000076293945
 20
124.9999978771211
 30
0.0
 10
16.79999923706055
 20
121.9999981155397
 30
0.0
 10
15.39999771118164
 20
118.9999981155397
 30
0.0
 10
16.5
 20
112.4999981155397
 30
0.0
 10
16.09999847412109
 20
107.9999971618654
 30
0.0
 10
15.69999694824219
 20
103.4999971618654
 30
0.0
 10
10.29999828338623
 20
97.29999639892594
 30
0.0
 10
14.19999885559082
 20
91.89999487304704
 30
0.0
 10
16.14743423461914
 20
89.23529150390641
 30
0.0
 10
18.82042121887207
 20
87.18715765380875
 30
0.0
 10
21.89999771118164
 20
85.99999334716813
 30
0.0
 10
21.89999771118164
 20
85.99999334716813
 30
0.0
 10
22.29999732971191
 20
85.99999334716813
 30
0.0
 10
22.29999732971191
 20
85.99999334716813
 30
0.0
 10
0.484730064868927
 20
72.6598634948732
 30
0.0
 10
-6.385725498199463
 20
44.16078283691422
 30
0.0
 10
6.954404830932617
 20
22.34551336669938
 30
0.0
 10
15.35642528533936
 20
8.60559179687516
 30
0.0
 10
30.29475021362305
 20
0.2189264526368788
 30
0.0
 10
46.39999771118164
 20
0.1999902954103163
 30
0.0
 10
59.86622619628906
 20
0.1602716674806288
 30
0.0
 10
72.66754913330078
 20
6.048874877929848
 30
0.0
 10
81.39999389648438
 20
16.29998876953141
 30
0.0
 10
82.48356628417969
 20
17.46314337158219
 30
0.0
 10
83.48592376708984
 20
18.69939520263688
 30
0.0
 10
84.39999389648438
 20
19.9999857177736
 30
0.0
 10
84.39999389648438
 20
19.9999857177736
 30
0.0
 10
84.69999694824219
 20
20.4999857177736
 30
0.0
 10
84.69999694824219
 20
20.4999857177736
 30
0.0
 10
84.69999694824219
 20
20.4999857177736
 30
0.0
 10
84.69999694824219
 20
20.4999857177736
 30
0.0
 10
84.69999694824219
 20
20.4999857177736
 30
0.0
 10
84.69999694824219
 20
20.4999857177736
 30
0.0
 10
85.19999694824219
 20
21.29998876953141
 30
0.0
 10
85.19999694824219
 20
21.29998876953141
 30
0.0
 10
85.36692810058594
 20
21.4754266967775
 30
0.0
 10
85.50225830078125
 20
21.67842199707047
 30
0.0
 10
85.5999984741211
 20
21.8999872436525
 30
0.0
 10
86.15860748291016
 20
22.73149206542985
 30
0.0
 10
86.65977478027344
 20
23.6001825561525
 30
0.0
 10
87.0999984741211
 20
24.4999857177736
 30
0.0
 10
87.0999984741211
 20
24.4999857177736
 30
0.0
 10
87.19999694824219
 20
24.4999857177736
 30
0.0
 10
87.19999694824219
 20
24.4999857177736
 30
0.0
 10
87.19999694824219
 20
24.4999857177736
 30
0.0
 10
87.89999389648438
 20
25.8999872436525
 30
0.0
 10
87.89999389648438
 20
25.8999872436525
 30
0.0
 10
87.89999389648438
 20
25.8999872436525
 30
0.0
 10
88.39999389648438
 20
26.79998876953141
 30
0.0
 10
88.39999389648438
 20
26.79998876953141
 30
0.0
 10
88.89999389648438
 20
27.9999857177736
 30
0.0
 10
89.39999389648438
 20
29.19999029541032
 30
0.0
 10
89.79999542236328
 20
30.3999872436525
 30
0.0
 10
89.79999542236328
 20
30.3999872436525
 30
0.0
 10
89.99999237060547
 20
30.69999029541032
 30
0.0
 10
89.99999237060547
 20
30.69999029541032
 30
0.0
 10
89.99999237060547
 20
30.69999029541032
 30
0.0
 10
90.29999542236328
 20
31.79998876953141
 30
0.0
 10
90.29999542236328
 20
31.79998876953141
 30
0.0
 10
91.91280364990234
 20
36.49769689941422
 30
0.0
 10
92.72412109375
 20
41.4331903686525
 30
0.0
 10
92.69999694824219
 20
46.3999872436525
 30
0.0
 10
92.72103118896484
 20
61.69597723388688
 30
0.0
 10
85.15375518798828
 20
76.00637915039079
 30
0.0
 10
72.5
 20
84.59999945068375
 30
0.0
  0
SPLINE
  5
46
330
1F
100
AcDbEntity
  8
LAYER_1
 62
   178
100
AcDbSpline
210
0.0
220
0.0
230
1.0
 70
    11
 71
     3
 72
    14
 73
    10
 74
     0
 42
0.0000000001
 43
0.0000000001
 12
1.0
 22
0.0
 32
0.0
 13
1.0
 23
0.0
 33
0.0
 40
0.0
 40
0.0
 40
0.0
 40
0.0
 40
1.0
 40
1.0
 40
1.0
 40
2.0
 40
2.0
 40
2.0
 40
3.0
 40
3.0
 40
3.0
 40
3.0
 10
70.5999984741211
 20
121.0999980201723
 30
0.0
 10
74.29999542236328
 20
122.299998067856
 30
0.0
 10
75.79999542236328
 20
119.39999773407
 30
0.0
 10
74.0999984741211
 20
115.7999983062746
 30
0.0
 10
69.69160461425781
 20
111.996752761841
 30
0.0
 10
64.11846923828125
 20
109.8098249664308
 30
0.0
 10
58.29999923706055
 20
109.5999994506838
 30
0.0
 10
60.42343139648438
 20
115.1140842666628
 30
0.0
 10
64.95577239990234
 20
119.3516350021364
 30
0.0
 10
70.5999984741211
 20
121.0999980201723
 30
0.0
  0
SPLINE
  5
47
330
1F
100
AcDbEntity
  8
LAYER_1
 62
   178
100
AcDbSpline
210
0.0
220
0.0
230
1.0
 70
    11
 71
     3
 72
    23
 73
    19
 74
     0
 42
0.0000000001
 43
0.0000000001
 12
1.0
 22
0.0
 32
0.0
 13
1.0
 23
0.0
 33
0.0
 40
0.0
 40
0.0
 40
0.0
 40
0.0
 40
1.0
 40
1.0
 40
1.0
 40
2.0
 40
2.0
 40
2.0
 40
3.0
 40
3.0
 40
3.0
 40
4.0
 40
4.0
 40
4.0
 40
5.0
 40
5.0
 40
5.0
 40
6.0
 40
6.0
 40
6.0
 40
6.0
 10
61.09999847412109
 20
90.8999986877443
 30
0.0
 10
61.09999847412109
 20
90.8999986877443
 30
0.0
 10
61.09999847412109
 20
90.19999792480485
 30
0.0
 10
61.09999847412109
 20
90.19999792480485
 30
0.0
 10
59.10952758789062
 20
90.88508703613297
 30
0.0
 10
57.07047271728516
 20
91.4199190368654
 30
0.0
 10
55.0
 20
91.79999639892594
 30
0.0
 10
54.77145385742188
 20
92.2874384155275
 30
0.0
 10
54.5039176940918
 20
92.75562765502946
 30
0.0
 10
54.20000076293945
 20
93.19999792480485
 30
0.0
 10
54.20000076293945
 20
93.19999792480485
 30
0.0
 10
54.20000076293945
 20
93.3999986877443
 30
0.0
 10
54.20000076293945
 20
93.3999986877443
 30
0.0
 10
53.23515319824219
 20
95.15633871459977
 30
0.0
 10
52.52791595458984
 20
97.0423097839357
 30
0.0
 10
52.10000228881836
 20
98.99999906921403
 30
0.0
 10
52.10000228881836
 20
98.99999906921403
 30
0.0
 10
61.09999847412109
 20
90.8999986877443
 30
0.0
 10
61.09999847412109
 20
90.8999986877443
 30
0.0
  0
SPLINE
  5
48
330
1F
100
AcDbEntity
  8
LAYER_1
 62
   178
100
AcDbSpline
210
0.0
220
0.0
230
1.0
 70
    11
 71
     3
 72
    29
 73
    25
 74
     0
 42
0.0000000001
 43
0.0000000001
 12
1.0
 22
0.0
 32
0.0
 13
1.0
 23
0.0
 33
0.0
 40
0.0
 40
0.0
 40
0.0
 40
0.0
 40
1.0
 40
1.0
 40
1.0
 40
2.0
 40
2.0
 40
2.0
 40
3.0
 40
3.0
 40
3.0
 40
4.0
 40
4.0
 40
4.0
 40
5.0
 40
5.0
 40
5.0
 40
6.0
 40
6.0
 40
6.0
 40
7.0
 40
7.0
 40
7.0
 40
8.0
 40
8.0
 40
8.0
 40
8.0
 10
46.09999847412109
 20
108.7999983062746
 30
0.0
 10
46.5364875793457
 20
109.1980505218507
 30
0.0
 10
47.10940170288086
 20
109.4128923645021
 30
0.0
 10
47.69999694824219
 20
109.3999986877443
 30
0.0
 10
48.26290512084961
 20
109.3363085021974
 30
0.0
 10
48.78960800170898
 20
109.0905142059328
 30
0.0
 10
49.19999694824219
 20
108.6999979248048
 30
0.0
 10
49.62923812866211
 20
108.2832498779298
 30
0.0
 10
49.84936904907227
 20
107.6962270965578
 30
0.0
 10
49.79999542236328
 20
107.0999975433351
 30
0.0
 10
49.77587509155273
 20
106.4976816406252
 30
0.0
 10
49.52598190307617
 20
105.9264974823
 30
0.0
 10
49.09999465942383
 20
105.4999971618654
 30
0.0
 10
48.68154907226562
 20
105.080004714966
 30
0.0
 10
48.08312606811523
 20
104.8929987182619
 30
0.0
 10
47.49999618530273
 20
104.9999971618654
 30
0.0
 10
46.91929244995117
 20
104.9918203582765
 30
0.0
 10
46.36673736572266
 20
105.2496786346437
 30
0.0
 10
45.99999618530273
 20
105.6999979248048
 30
0.0
 10
45.61700439453125
 20
106.1058130493166
 30
0.0
 10
45.40253067016602
 20
106.6419992675783
 30
0.0
 10
45.39999771118164
 20
107.1999979248048
 30
0.0
 10
45.42411804199219
 20
107.8023138275148
 30
0.0
 10
45.67401123046875
 20
108.37349798584
 30
0.0
 10
46.09999847412109
 20
108.7999983062746
 30
0.0
  0
SPLINE
  5
49
330
1F
100
AcDbEntity
  8
LAYER_1
 62
   178
100
AcDbSpline
210
0.0
220
0.0
230
1.0
 70
    11
 71
     3
 72
   113
 73
   109
 74
     0
 42
0.0000000001
 43
0.0000000001
 12
1.0
 22
0.0
 32
0.0
 13
1.0
 23
0.0
 33
0.0
 40
0.0
 40
0.0
 40
0.0
 40
0.0
 40
1.0
 40
1.0
 40
1.0
 40
2.0
 40
2.0
 40
2.0
 40
3.0
 40
3.0
 40
3.0
 40
4.0
 40
4.0
 40
4.0
 40
5.0
 40
5.0
 40
5.0
 40
6.0
 40
6.0
 40
6.0
 40
7.0
 40
7.0
 40
7.0
 40
8.0
 40
8.0
 40
8.0
 40
9.0
 40
9.0
 40
9.0
 40
10.0
 40
10.0
 40
10.0
 40
11.0
 40
11.0
 40
11.0
 40
12.0
 40
12.0
 40
12.0
 40
13.0
 40
13.0
 40
13.0
 40
14.0
 40
14.0
 40
14.0
 40
15.0
 40
15.0
 40
15.0
 40
16.0
 40
16.0
 40
16.0
 40
17.0
 40
17.0
 40
17.0
 40
18.0
 40
18.0
 40
18.0
 40
19.0
 40
19.0
 40
19.0
 40
20.0
 40
20.0
 40
20.0
 40
21.0
 40
21.0
 40
21.0
 40
22.0
 40
22.0
 40
22.0
 40
23.0
 40
23.0
 40
23.0
 40
24.0
 40
24.0
 40
24.0
 40
25.0
 40
25.0
 40
25.0
 40
26.0
 40
26.0
 40
26.0
 40
27.0
 40
27.0
 40
27.0
 40
28.0
 40
28.0
 40
28.0
 40
29.0
 40
29.0
 40
29.0
 40
30.0
 40
30.0
 40
30.0
 40
31.0
 40
31.0
 40
31.0
 40
32.0
 40
32.0
 40
32.0
 40
33.0
 40
33.0
 40
33.0
 40
34.0
 40
34.0
 40
34.0
 40
35.0
 40
35.0
 40
35.0
 40
36.0
 40
36.0
 40
36.0
 40
36.0
 10
46.39999771118164
 20
86.8999986877443
 30
0.0
 10
46.39999771118164
 20
86.8999986877443
 30
0.0
 10
47.69999694824219
 20
86.8999986877443
 30
0.0
 10
47.69999694824219
 20
86.8999986877443
 30
0.0
 10
46.72811508178711
 20
86.513390563965
 30
0.0
 10
45.84391784667969
 20
85.93525793457047
 30
0.0
 10
45.09999847412109
 20
85.19999792480485
 30
0.0
 10
44.32261657714844
 20
84.28680136108414
 30
0.0
 10
43.80459594726562
 20
83.18168737792985
 30
0.0
 10
43.59999847412109
 20
81.9999971618654
 30
0.0
 10
43.42825698852539
 20
80.97832586669938
 30
0.0
 10
43.68110275268555
 20
79.93082525634782
 30
0.0
 10
44.29999923706055
 20
79.09999563598649
 30
0.0
 10
44.96066665649414
 20
78.30658819580094
 30
0.0
 10
45.97297668457031
 20
77.89416601562516
 30
0.0
 10
47.0
 20
77.9999971618654
 30
0.0
 10
47.9736213684082
 20
78.02911093139664
 30
0.0
 10
48.90110778808594
 20
78.42150976562516
 30
0.0
 10
49.59999847412109
 20
79.09999563598649
 30
0.0
 10
49.87163543701172
 20
79.35982229614274
 30
0.0
 10
50.01751327514648
 20
79.72450735473649
 30
0.0
 10
50.0
 20
80.09999563598649
 30
0.0
 10
49.90000152587891
 20
80.39999487304704
 30
0.0
 10
49.79999923706055
 20
80.39999487304704
 30
0.0
 10
49.70000076293945
 20
80.29999639892594
 30
0.0
 10
49.23266983032227
 20
79.87498190307633
 30
0.0
 10
48.63110733032227
 20
79.62727835083024
 30
0.0
 10
48.0
 20
79.59999563598649
 30
0.0
 10
47.33473968505859
 20
79.44186117553727
 30
0.0
 10
46.6373291015625
 20
79.67433264160172
 30
0.0
 10
46.20000076293945
 20
80.19999411010758
 30
0.0
 10
45.89877319335938
 20
80.59974005126969
 30
0.0
 10
45.78902435302734
 20
81.11192037963883
 30
0.0
 10
45.90000152587891
 20
81.59999563598649
 30
0.0
 10
46.04433059692383
 20
82.17829992675797
 30
0.0
 10
46.3576545715332
 20
82.70050527954118
 30
0.0
 10
46.80000305175781
 20
83.09999563598649
 30
0.0
 10
47.66347503662109
 20
84.04702474975602
 30
0.0
 10
48.77036666870117
 20
84.73883154296891
 30
0.0
 10
50.00000381469727
 20
85.09999563598649
 30
0.0
 10
51.22487640380859
 20
85.51117803955094
 30
0.0
 10
52.53873443603516
 20
85.58033087158219
 30
0.0
 10
53.80000305175781
 20
85.29999639892594
 30
0.0
 10
55.00588607788086
 20
85.12976934814469
 30
0.0
 10
56.10818481445312
 20
84.52528097534196
 30
0.0
 10
56.90000152587891
 20
83.59999563598649
 30
0.0
 10
57.5
 20
82.79999639892594
 30
0.0
 10
58.20000076293945
 20
81.69999411010758
 30
0.0
 10
59.10000228881836
 20
80.19999411010758
 30
0.0
 10
56.2481689453125
 20
80.18138601684586
 30
0.0
 10
53.44015502929688
 20
79.49650289917008
 30
0.0
 10
50.90000152587891
 20
78.19999411010758
 30
0.0
 10
48.90000152587891
 20
77.29999258422868
 30
0.0
 10
47.10000228881836
 20
76.49999334716813
 30
0.0
 10
45.40000152587891
 20
75.89999487304704
 30
0.0
 10
43.82976531982422
 20
75.30930426025407
 30
0.0
 10
42.2271728515625
 20
74.80849554443375
 30
0.0
 10
40.60000228881836
 20
74.39999487304704
 30
0.0
 10
39.59024429321289
 20
74.11057760620133
 30
0.0
 10
38.5495491027832
 20
73.9427232971193
 30
0.0
 10
37.50000381469727
 20
73.89999487304704
 30
0.0
 10
37.50000381469727
 20
73.89999487304704
 30
0.0
 10
38.00000381469727
 20
76.09999563598649
 30
0.0
 10
38.00000381469727
 20
76.09999563598649
 30
0.0
 10
38.00000381469727
 20
76.09999563598649
 30
0.0
 10
34.90000534057617
 20
75.19999411010758
 30
0.0
 10
34.90000534057617
 20
75.19999411010758
 30
0.0
 10
34.90000534057617
 20
75.19999411010758
 30
0.0
 10
34.30000686645508
 20
75.79999258422868
 30
0.0
 10
34.30000686645508
 20
75.79999258422868
 30
0.0
 10
34.30000686645508
 20
75.79999258422868
 30
0.0
 10
34.30000686645508
 20
75.79999258422868
 30
0.0
 10
34.30000686645508
 20
75.79999258422868
 30
0.0
 10
34.54727554321289
 20
76.14845755004899
 30
0.0
 10
34.85154342651367
 20
76.45272543334977
 30
0.0
 10
35.20000839233398
 20
76.69999411010758
 30
0.0
 10
35.20000839233398
 20
76.69999411010758
 30
0.0
 10
36.20000839233398
 20
76.99999334716813
 30
0.0
 10
36.20000839233398
 20
76.99999334716813
 30
0.0
 10
36.30000686645508
 20
77.09999182128922
 30
0.0
 10
36.40000915527344
 20
77.19999411010758
 30
0.0
 10
36.40000915527344
 20
77.29999258422868
 30
0.0
 10
36.40000915527344
 20
77.39999105834977
 30
0.0
 10
36.30001068115234
 20
77.59999182128922
 30
0.0
 10
36.30001068115234
 20
77.69999411010758
 30
0.0
 10
36.30001068115234
 20
77.79999639892594
 30
0.0
 10
35.60000991821289
 20
77.99999334716813
 30
0.0
 10
35.0000114440918
 20
77.79999258422868
 30
0.0
 10
34.34638214111328
 20
77.58939077758805
 30
0.0
 10
33.75994873046875
 20
77.2099352111818
 30
0.0
 10
33.30001068115234
 20
76.69999411010758
 30
0.0
 10
33.30001068115234
 20
76.69999411010758
 30
0.0
 10
33.30001068115234
 20
76.69999411010758
 30
0.0
 10
33.30001068115234
 20
76.69999411010758
 30
0.0
 10
33.30001068115234
 20
76.69999411010758
 30
0.0
 10
32.70001220703125
 20
77.19999411010758
 30
0.0
 10
32.70001220703125
 20
77.19999411010758
 30
0.0
 10
32.70001220703125
 20
77.19999411010758
 30
0.0
 10
32.5000114440918
 20
76.39999487304704
 30
0.0
 10
32.5000114440918
 20
76.39999487304704
 30
0.0
 10
32.5000114440918
 20
76.39999487304704
 30
0.0
 10
30.60001182556152
 20
79.39999487304704
 30
0.0
 10
30.60001182556152
 20
79.39999487304704
 30
0.0
 10
30.60001182556152
 20
79.39999487304704
 30
0.0
 10
32.10001373291016
 20
84.19999411010758
 30
0.0
 10
32.10001373291016
 20
84.19999411010758
 30
0.0
 10
36.66085815429688
 20
85.96900274658219
 30
0.0
 10
41.50812530517578
 20
86.88422491455094
 30
0.0
 10
46.39999771118164
 20
86.8999986877443
 30
0.0
  0
POLYLINE
  5
4A
330
1F
100
AcDbEntity
  8
LAYER_1
 62
   178
100
AcDb2dPolyline
 66
     1
 10
0.0
 20
0.0
 30
0.0
  0
VERTEX
  5
4B
330
4A
100
AcDbEntity
  8
LAYER_1
 62
   178
100
AcDbVertex
100
AcDb2dVertex
 10
39.29999923706055
 20
58.39999487304704
 30
0.0
  0
VERTEX
  5
4C
330
4A
100
AcDbEntity
  8
LAYER_1
 62
   178
100
AcDbVertex
100
AcDb2dVertex
 10
37.09999847412109
 20
58.39999487304704
 30
0.0
  0
VERTEX
  5
4D
330
4A
100
AcDbEntity
  8
LAYER_1
 62
   178
100
AcDbVertex
100
AcDb2dVertex
 10
35.90000152587891
 20
57.19999792480485
 30
0.0
  0
VERTEX
  5
4E
330
4A
100
AcDbEntity
  8
LAYER_1
 62
   178
100
AcDbVertex
100
AcDb2dVertex
 10
35.20000076293945
 20
59.09999945068375
 30
0.0
  0
VERTEX
  5
4F
330
4A
100
AcDbEntity
  8
LAYER_1
 62
   178
100
AcDbVertex
100
AcDb2dVertex
 10
33.40000152587891
 20
59.90000250244157
 30
0.0
  0
VERTEX
  5
50
330
4A
100
AcDbEntity
  8
LAYER_1
 62
   178
100
AcDbVertex
100
AcDb2dVertex
 10
35.10000228881836
 20
61.00000097656266
 30
0.0
  0
VERTEX
  5
51
330
4A
100
AcDbEntity
  8
LAYER_1
 62
   178
100
AcDbVertex
100
AcDb2dVertex
 10
35.30000305175781
 20
62.80000021362321
 30
0.0
  0
VERTEX
  5
52
330
4A
100
AcDbEntity
  8
LAYER_1
 62
   178
100
AcDbVertex
100
AcDb2dVertex
 10
36.90000152587891
 20
61.59999945068375
 30
0.0
  0
VERTEX
  5
53
330
4A
100
AcDbEntity
  8
LAYER_1
 62
   178
100
AcDbVertex
100
AcDb2dVertex
 10
38.80000305175781
 20
62.19999792480485
 30
0.0
  0
VERTEX
  5
54
330
4A
100
AcDbEntity
  8
LAYER_1
 62
   178
100
AcDbVertex
100
AcDb2dVertex
 10
38.20000457763672
 20
60.00000097656266
 30
0.0
  0
VERTEX
  5
55
330
4A
100
AcDbEntity
  8
LAYER_1
 62
   178
100
AcDbVertex
100
AcDb2dVertex
 10
39.29999923706055
 20
58.39999487304704
 30
0.0
  0
SEQEND
  5
56
330
4A
100
AcDbEntity
  8
LAYER_1
 62
   178
  0
POLYLINE
  5
57
330
1F
100
AcDbEntity
  8
LAYER_1
 62
   178
100
AcDb2dPolyline
 66
     1
 10
0.0
 20
0.0
 30
0.0
  0
VERTEX
  5
58
330
57
100
AcDbEntity
  8
LAYER_1
 62
   178
100
AcDbVertex
100
AcDb2dVertex
 10
49.79999923706055
 20
55.39999487304704
 30
0.0
  0
VERTEX
  5
59
330
57
100
AcDbEntity
  8
LAYER_1
 62
   178
100
AcDbVertex
100
AcDb2dVertex
 10
48.59999847412109
 20
55.39999487304704
 30
0.0
  0
VERTEX
  5
5A
330
57
100
AcDbEntity
  8
LAYER_1
 62
   178
100
AcDbVertex
100
AcDb2dVertex
 10
47.89999771118164
 20
54.59999182128922
 30
0.0
  0
VERTEX
  5
5B
330
57
100
AcDbEntity
  8
LAYER_1
 62
   178
100
AcDbVertex
100
AcDb2dVertex
 10
47.49999618530273
 20
55.69999029541032
 30
0.0
  0
VERTEX
  5
5C
330
57
100
AcDbEntity
  8
LAYER_1
 62
   178
100
AcDbVertex
100
AcDb2dVertex
 10
46.40000152587891
 20
56.19999792480485
 30
0.0
  0
VERTEX
  5
5D
330
57
100
AcDbEntity
  8
LAYER_1
 62
   178
100
AcDbVertex
100
AcDb2dVertex
 10
47.40000152587891
 20
56.79999639892594
 30
0.0
  0
VERTEX
  5
5E
330
57
100
AcDbEntity
  8
LAYER_1
 62
   178
100
AcDbVertex
100
AcDb2dVertex
 10
47.60000228881836
 20
57.89999487304704
 30
0.0
  0
VERTEX
  5
5F
330
57
100
AcDbEntity
  8
LAYER_1
 62
   178
100
AcDbVertex
100
AcDb2dVertex
 10
48.50000381469727
 20
57.19999792480485
 30
0.0
  0
VERTEX
  5
60
330
57
100
AcDbEntity
  8
LAYER_1
 62
   178
100
AcDbVertex
100
AcDb2dVertex
 10
49.60000228881836
 20
57.50000097656266
 30
0.0
  0
VERTEX
  5
61
330
57
100
AcDbEntity
  8
LAYER_1
 62
   178
100
AcDbVertex
100
AcDb2dVertex
 10
49.20000076293945
 20
56.30000402832047
 30
0.0
  0
VERTEX
  5
62
330
57
100
AcDbEntity
  8
LAYER_1
 62
   178
100
AcDbVertex
100
AcDb2dVertex
 10
49.79999923706055
 20
55.39999487304704
 30
0.0
  0
SEQEND
  5
63
330
57
100
AcDbEntity
  8
LAYER_1
 62
   178
  0
POLYLINE
  5
64
330
1F
100
AcDbEntity
  8
LAYER_1
 62
   178
100
AcDb2dPolyline
 66
     1
 10
0.0
 20
0.0
 30
0.0
  0
VERTEX
  5
65
330
64
100
AcDbEntity
  8
LAYER_1
 62
   178
100
AcDbVertex
100
AcDb2dVertex
 10
54.59999847412109
 20
39.09999182128922
 30
0.0
  0
VERTEX
  5
66
330
64
100
AcDbEntity
  8
LAYER_1
 62
   178
100
AcDbVertex
100
AcDb2dVertex
 10
51.70000076293945
 20
39.09999182128922
 30
0.0
  0
VERTEX
  5
67
330
64
100
AcDbEntity
  8
LAYER_1
 62
   178
100
AcDbVertex
100
AcDb2dVertex
 10
50.10000228881836
 20
37.29998876953141
 30
0.0
  0
VERTEX
  5
68
330
64
100
AcDbEntity
  8
LAYER_1
 62
   178
100
AcDbVertex
100
AcDb2dVertex
 10
49.20000076293945
 20
39.8999872436525
 30
0.0
  0
VERTEX
  5
69
330
64
100
AcDbEntity
  8
LAYER_1
 62
   178
100
AcDbVertex
100
AcDb2dVertex
 10
46.70000076293945
 20
41.19999792480485
 30
0.0
  0
VERTEX
  5
6A
330
64
100
AcDbEntity
  8
LAYER_1
 62
   178
100
AcDbVertex
100
AcDb2dVertex
 10
49.0
 20
42.59999945068375
 30
0.0
  0
VERTEX
  5
6B
330
64
100
AcDbEntity
  8
LAYER_1
 62
   178
100
AcDbVertex
100
AcDb2dVertex
 10
49.29999923706055
 20
45.09999945068375
 30
0.0
  0
VERTEX
  5
6C
330
64
100
AcDbEntity
  8
LAYER_1
 62
   178
100
AcDbVertex
100
AcDb2dVertex
 10
51.5
 20
43.50000097656266
 30
0.0
  0
VERTEX
  5
6D
330
64
100
AcDbEntity
  8
LAYER_1
 62
   178
100
AcDbVertex
100
AcDb2dVertex
 10
54.0
 20
44.19999792480485
 30
0.0
  0
VERTEX
  5
6E
330
64
100
AcDbEntity
  8
LAYER_1
 62
   178
100
AcDbVertex
100
AcDb2dVertex
 10
53.20000076293945
 20
41.29999639892594
 30
0.0
  0
VERTEX
  5
6F
330
64
100
AcDbEntity
  8
LAYER_1
 62
   178
100
AcDbVertex
100
AcDb2dVertex
 10
54.59999847412109
 20
39.09999182128922
 30
0.0
  0
SEQEND
  5
70
330
64
100
AcDbEntity
  8
LAYER_1
 62
   178
  0
POLYLINE
  5
71
330
1F
100
AcDbEntity
  8
LAYER_1
 62
   178
100
AcDb2dPolyline
 66
     1
 10
0.0
 20
0.0
 30
0.0
  0
VERTEX
  5
72
330
71
100
AcDbEntity
  8
LAYER_1
 62
   178
100
AcDbVertex
100
AcDb2dVertex
 10
62.89999771118164
 20
41.49999334716813
 30
0.0
  0
VERTEX
  5
73
330
71
100
AcDbEntity
  8
LAYER_1
 62
   178
100
AcDbVertex
100
AcDb2dVertex
 10
62.0
 20
41.49999334716813
 30
0.0
  0
VERTEX
  5
74
330
71
100
AcDbEntity
  8
LAYER_1
 62
   178
100
AcDbVertex
100
AcDb2dVertex
 10
61.40000152587891
 20
40.89999487304704
 30
0.0
  0
VERTEX
  5
75
330
71
100
AcDbEntity
  8
LAYER_1
 62
   178
100
AcDbVertex
100
AcDb2dVertex
 10
61.10000228881836
 20
41.69999792480485
 30
0.0
  0
VERTEX
  5
76
330
71
100
AcDbEntity
  8
LAYER_1
 62
   178
100
AcDbVertex
100
AcDb2dVertex
 10
60.30000305175781
 20
42.09999945068375
 30
0.0
  0
VERTEX
  5
77
330
71
100
AcDbEntity
  8
LAYER_1
 62
   178
100
AcDbVertex
100
AcDb2dVertex
 10
61.10000228881836
 20
42.59999945068375
 30
0.0
  0
VERTEX
  5
78
330
71
100
AcDbEntity
  8
LAYER_1
 62
   178
100
AcDbVertex
100
AcDb2dVertex
 10
61.10000228881836
 20
43.40000250244157
 30
0.0
  0
VERTEX
  5
79
330
71
100
AcDbEntity
  8
LAYER_1
 62
   178
100
AcDbVertex
100
AcDb2dVertex
 10
61.80000305175781
 20
42.90000250244157
 30
0.0
  0
VERTEX
  5
7A
330
71
100
AcDbEntity
  8
LAYER_1
 62
   178
100
AcDbVertex
100
AcDb2dVertex
 10
62.60000228881836
 20
43.09999945068375
 30
0.0
  0
VERTEX
  5
7B
330
71
100
AcDbEntity
  8
LAYER_1
 62
   178
100
AcDbVertex
100
AcDb2dVertex
 10
62.30000305175781
 20
42.19999792480485
 30
0.0
  0
VERTEX
  5
7C
330
71
100
AcDbEntity
  8
LAYER_1
 62
   178
100
AcDbVertex
100
AcDb2dVertex
 10
62.89999771118164
 20
41.49999334716813
 30
0.0
  0
SEQEND
  5
7D
330
71
100
AcDbEntity
  8
LAYER_1
 62
   178
  0
POLYLINE
  5
7E
330
1F
100
AcDbEntity
  8
LAYER_1
 62
   178
100
AcDb2dPolyline
 66
     1
 10
0.0
 20
0.0
 30
0.0
  0
VERTEX
  5
7F
330
7E
100
AcDbEntity
  8
LAYER_1
 62
   178
100
AcDbVertex
100
AcDb2dVertex
 10
60.79999923706055
 20
36.69999029541032
 30
0.0
  0
VERTEX
  5
80
330
7E
100
AcDbEntity
  8
LAYER_1
 62
   178
100
AcDbVertex
100
AcDb2dVertex
 10
57.59999847412109
 20
41.49999334716813
 30
0.0
  0
VERTEX
  5
81
330
7E
100
AcDbEntity
  8
LAYER_1
 62
   178
100
AcDbVertex
100
AcDb2dVertex
 10
59.69999694824219
 20
40.59999182128922
 30
0.0
  0
VERTEX
  5
82
330
7E
100
AcDbEntity
  8
LAYER_1
 62
   178
100
AcDbVertex
100
AcDb2dVertex
 10
60.79999923706055
 20
36.69999029541032
 30
0.0
  0
SEQEND
  5
83
330
7E
100
AcDbEntity
  8
LAYER_1
 62
   178
  0
POLYLINE
  5
84
330
1F
100
AcDbEntity
  8
LAYER_1
 62
   178
100
AcDb2dPolyline
 66
     1
 10
0.0
 20
0.0
 30
0.0
  0
VERTEX
  5
85
330
84
100
AcDbEntity
  8
LAYER_1
 62
   178
100
AcDbVertex
100
AcDb2dVertex
 10
60.79999923706055
 20
34.69999029541032
 30
0.0
  0
VERTEX
  5
86
330
84
100
AcDbEntity
  8
LAYER_1
 62
   178
100
AcDbVertex
100
AcDb2dVertex
 10
60.39999771118164
 20
31.29998876953141
 30
0.0
  0
VERTEX
  5
87
330
84
100
AcDbEntity
  8
LAYER_1
 62
   178
100
AcDbVertex
100
AcDb2dVertex
 10
54.59999847412109
 20
27.4999857177736
 30
0.0
  0
VERTEX
  5
88
330
84
100
AcDbEntity
  8
LAYER_1
 62
   178
100
AcDbVertex
100
AcDb2dVertex
 10
57.59999847412109
 20
26.19998266601579
 30
0.0
  0
VERTEX
  5
89
330
84
100
AcDbEntity
  8
LAYER_1
 62
   178
100
AcDbVertex
100
AcDb2dVertex
 10
55.59999847412109
 20
25.4999857177736
 30
0.0
  0
VERTEX
  5
8A
330
84
100
AcDbEntity
  8
LAYER_1
 62
   178
100
AcDbVertex
100
AcDb2dVertex
 10
52.79999923706055
 20
27.69998266601579
 30
0.0
  0
VERTEX
  5
8B
330
84
100
AcDbEntity
  8
LAYER_1
 62
   178
100
AcDbVertex
100
AcDb2dVertex
 10
52.39999771118164
 20
23.9999857177736
 30
0.0
  0
VERTEX
  5
8C
330
84
100
AcDbEntity
  8
LAYER_1
 62
   178
100
AcDbVertex
100
AcDb2dVertex
 10
50.39999771118164
 20
22.9999857177736
 30
0.0
  0
VERTEX
  5
8D
330
84
100
AcDbEntity
  8
LAYER_1
 62
   178
100
AcDbVertex
100
AcDb2dVertex
 10
53.89999771118164
 20
33.4999857177736
 30
0.0
  0
VERTEX
  5
8E
330
84
100
AcDbEntity
  8
LAYER_1
 62
   178
100
AcDbVertex
100
AcDb2dVertex
 10
51.49999618530273
 20
32.9999857177736
 30
0.0
  0
VERTEX
  5
8F
330
84
100
AcDbEntity
  8
LAYER_1
 62
   178
100
AcDbVertex
100
AcDb2dVertex
 10
53.49999618530273
 20
35.3999872436525
 30
0.0
  0
VERTEX
  5
90
330
84
100
AcDbEntity
  8
LAYER_1
 62
   178
100
AcDbVertex
100
AcDb2dVertex
 10
60.79999923706055
 20
34.69999029541032
 30
0.0
  0
SEQEND
  5
91
330
84
100
AcDbEntity
  8
LAYER_1
 62
   178
  0
POLYLINE
  5
92
330
1F
100
AcDbEntity
  8
LAYER_1
 62
   178
100
AcDb2dPolyline
 66
     1
 10
0.0
 20
0.0
 30
0.0
  0
VERTEX
  5
93
330
92
100
AcDbEntity
  8
LAYER_1
 62
   178
100
AcDbVertex
100
AcDb2dVertex
 10
53.20000076293945
 20
22.59999182128922
 30
0.0
  0
VERTEX
  5
94
330
92
100
AcDbEntity
  8
LAYER_1
 62
   178
100
AcDbVertex
100
AcDb2dVertex
 10
54.20000076293945
 20
23.19999029541032
 30
0.0
  0
VERTEX
  5
95
330
92
100
AcDbEntity
  8
LAYER_1
 62
   178
100
AcDbVertex
100
AcDb2dVertex
 10
54.40000152587891
 20
24.29998876953141
 30
0.0
  0
VERTEX
  5
96
330
92
100
AcDbEntity
  8
LAYER_1
 62
   178
100
AcDbVertex
100
AcDb2dVertex
 10
55.30000305175781
 20
23.59999182128922
 30
0.0
  0
VERTEX
  5
97
330
92
100
AcDbEntity
  8
LAYER_1
 62
   178
100
AcDbVertex
100
AcDb2dVertex
 10
56.40000152587891
 20
23.89999487304704
 30
0.0
  0
VERTEX
  5
98
330
92
100
AcDbEntity
  8
LAYER_1
 62
   178
100
AcDbVertex
100
AcDb2dVertex
 10
56.0
 20
22.69999792480485
 30
0.0
  0
VERTEX
  5
99
330
92
100
AcDbEntity
  8
LAYER_1
 62
   178
100
AcDbVertex
100
AcDb2dVertex
 10
56.59999847412109
 20
21.69999792480485
 30
0.0
  0
VERTEX
  5
9A
330
92
100
AcDbEntity
  8
LAYER_1
 62
   178
100
AcDbVertex
100
AcDb2dVertex
 10
55.40000152587891
 20
21.69999792480485
 30
0.0
  0
VERTEX
  5
9B
330
92
100
AcDbEntity
  8
LAYER_1
 62
   178
100
AcDbVertex
100
AcDb2dVertex
 10
54.70000076293945
 20
20.89999487304704
 30
0.0
  0
VERTEX
  5
9C
330
92
100
AcDbEntity
  8
LAYER_1
 62
   178
100
AcDbVertex
100
AcDb2dVertex
 10
54.29999923706055
 20
21.99999334716813
 30
0.0
  0
VERTEX
  5
9D
330
92
100
AcDbEntity
  8
LAYER_1
 62
   178
100
AcDbVertex
100
AcDb2dVertex
 10
53.20000076293945
 20
22.59999182128922
 30
0.0
  0
SEQEND
  5
9E
330
92
100
AcDbEntity
  8
LAYER_1
 62
   178
  0
POLYLINE
  5
9F
330
1F
100
AcDbEntity
  8
LAYER_1
 62
   178
100
AcDb2dPolyline
 66
     1
 10
0.0
 20
0.0
 30
0.0
  0
VERTEX
  5
A0
330
9F
100
AcDbEntity
  8
LAYER_1
 62
   178
100
AcDbVertex
100
AcDb2dVertex
 10
53.79999923706055
 20
17.69999029541032
 30
0.0
  0
VERTEX
  5
A1
330
9F
100
AcDbEntity
  8
LAYER_1
 62
   178
100
AcDbVertex
100
AcDb2dVertex
 10
51.29999923706055
 20
21.69999029541032
 30
0.0
  0
VERTEX
  5
A2
330
9F
100
AcDbEntity
  8
LAYER_1
 62
   178
100
AcDbVertex
100
AcDb2dVertex
 10
53.0
 20
20.8999872436525
 30
0.0
  0
VERTEX
  5
A3
330
9F
100
AcDbEntity
  8
LAYER_1
 62
   178
100
AcDbVertex
100
AcDb2dVertex
 10
53.79999923706055
 20
17.69999029541032
 30
0.0
  0
SEQEND
  5
A4
330
9F
100
AcDbEntity
  8
LAYER_1
 62
   178
  0
POLYLINE
  5
A5
330
1F
100
AcDbEntity
  8
LAYER_1
 62
   178
100
AcDb2dPolyline
 66
     1
 10
0.0
 20
0.0
 30
0.0
  0
VERTEX
  5
A6
330
A5
100
AcDbEntity
  8
LAYER_1
 62
   178
100
AcDbVertex
100
AcDb2dVertex
 10
46.70000076293945
 20
19.69999029541032
 30
0.0
  0
VERTEX
  5
A7
330
A5
100
AcDbEntity
  8
LAYER_1
 62
   178
100
AcDbVertex
100
AcDb2dVertex
 10
43.10000228881836
 20
19.8999872436525
 30
0.0
  0
VERTEX
  5
A8
330
A5
100
AcDbEntity
  8
LAYER_1
 62
   178
100
AcDbVertex
100
AcDb2dVertex
 10
41.10000228881836
 20
17.69999029541032
 30
0.0
  0
VERTEX
  5
A9
330
A5
100
AcDbEntity
  8
LAYER_1
 62
   178
100
AcDbVertex
100
AcDb2dVertex
 10
40.0
 20
20.79999639892594
 30
0.0
  0
VERTEX
  5
AA
330
A5
100
AcDbEntity
  8
LAYER_1
 62
   178
100
AcDbVertex
100
AcDb2dVertex
 10
36.90000152587891
 20
22.19999792480485
 30
0.0
  0
VERTEX
  5
AB
330
A5
100
AcDbEntity
  8
LAYER_1
 62
   178
100
AcDbVertex
100
AcDb2dVertex
 10
39.80000305175781
 20
24.00000097656266
 30
0.0
  0
VERTEX
  5
AC
330
A5
100
AcDbEntity
  8
LAYER_1
 62
   178
100
AcDbVertex
100
AcDb2dVertex
 10
40.20000457763672
 20
27.09999945068375
 30
0.0
  0
VERTEX
  5
AD
330
A5
100
AcDbEntity
  8
LAYER_1
 62
   178
100
AcDbVertex
100
AcDb2dVertex
 10
42.80000305175781
 20
25.09999945068375
 30
0.0
  0
VERTEX
  5
AE
330
A5
100
AcDbEntity
  8
LAYER_1
 62
   178
100
AcDbVertex
100
AcDb2dVertex
 10
45.90000152587891
 20
26.00000097656266
 30
0.0
  0
VERTEX
  5
AF
330
A5
100
AcDbEntity
  8
LAYER_1
 62
   178
100
AcDbVertex
100
AcDb2dVertex
 10
44.90000152587891
 20
22.40000250244157
 30
0.0
  0
VERTEX
  5
B0
330
A5
100
AcDbEntity
  8
LAYER_1
 62
   178
100
AcDbVertex
100
AcDb2dVertex
 10
46.70000076293945
 20
19.69999029541032
 30
0.0
  0
SEQEND
  5
B1
330
A5
100
AcDbEntity
  8
LAYER_1
 62
   178
  0
POLYLINE
  5
B2
330
1F
100
AcDbEntity
  8
LAYER_1
 62
   178
100
AcDb2dPolyline
 66
     1
 10
0.0
 20
0.0
 30
0.0
  0
VERTEX
  5
B3
330
B2
100
AcDbEntity
  8
LAYER_1
 62
   178
100
AcDbVertex
100
AcDb2dVertex
 10
43.59999847412109
 20
30.79999639892594
 30
0.0
  0
VERTEX
  5
B4
330
B2
100
AcDbEntity
  8
LAYER_1
 62
   178
100
AcDbVertex
100
AcDb2dVertex
 10
35.39999771118164
 20
37.69999792480485
 30
0.0
  0
VERTEX
  5
B5
330
B2
100
AcDbEntity
  8
LAYER_1
 62
   178
100
AcDbVertex
100
AcDb2dVertex
 10
35.09999847412109
 20
34.59999945068375
 30
0.0
  0
VERTEX
  5
B6
330
B2
100
AcDbEntity
  8
LAYER_1
 62
   178
100
AcDbVertex
100
AcDb2dVertex
 10
34.19999694824219
 20
35.90000250244157
 30
0.0
  0
VERTEX
  5
B7
330
B2
100
AcDbEntity
  8
LAYER_1
 62
   178
100
AcDbVertex
100
AcDb2dVertex
 10
35.49999618530273
 20
39.59999945068375
 30
0.0
  0
VERTEX
  5
B8
330
B2
100
AcDbEntity
  8
LAYER_1
 62
   178
100
AcDbVertex
100
AcDb2dVertex
 10
33.49999618530273
 20
39.29999639892594
 30
0.0
  0
VERTEX
  5
B9
330
B2
100
AcDbEntity
  8
LAYER_1
 62
   178
100
AcDbVertex
100
AcDb2dVertex
 10
36.09999465942383
 20
42.69999792480485
 30
0.0
  0
VERTEX
  5
BA
330
B2
100
AcDbEntity
  8
LAYER_1
 62
   178
100
AcDbVertex
100
AcDb2dVertex
 10
40.89999389648438
 20
42.29999639892594
 30
0.0
  0
VERTEX
  5
BB
330
B2
100
AcDbEntity
  8
LAYER_1
 62
   178
100
AcDbVertex
100
AcDb2dVertex
 10
38.0
 20
40.39999487304704
 30
0.0
  0
VERTEX
  5
BC
330
B2
100
AcDbEntity
  8
LAYER_1
 62
   178
100
AcDbVertex
100
AcDb2dVertex
 10
46.0
 20
37.09999182128922
 30
0.0
  0
VERTEX
  5
BD
330
B2
100
AcDbEntity
  8
LAYER_1
 62
   178
100
AcDbVertex
100
AcDb2dVertex
 10
47.29999923706055
 20
31.69999029541032
 30
0.0
  0
VERTEX
  5
BE
330
B2
100
AcDbEntity
  8
LAYER_1
 62
   178
100
AcDbVertex
100
AcDb2dVertex
 10
43.59999847412109
 20
30.79999639892594
 30
0.0
  0
SEQEND
  5
BF
330
B2
100
AcDbEntity
  8
LAYER_1
 62
   178
  0
POLYLINE
  5
C0
330
1F
100
AcDbEntity
  8
LAYER_1
 62
   178
100
AcDb2dPolyline
 66
     1
 10
0.0
 20
0.0
 30
0.0
  0
VERTEX
  5
C1
330
C0
100
AcDbEntity
  8
LAYER_1
 62
   178
100
AcDbVertex
100
AcDb2dVertex
 10
30.29999923706055
 20
29.99999334716813
 30
0.0
  0
VERTEX
  5
C2
330
C0
100
AcDbEntity
  8
LAYER_1
 62
   178
100
AcDbVertex
100
AcDb2dVertex
 10
32.39999771118164
 20
32.79999639892594
 30
0.0
  0
VERTEX
  5
C3
330
C0
100
AcDbEntity
  8
LAYER_1
 62
   178
100
AcDbVertex
100
AcDb2dVertex
 10
35.09999847412109
 20
32.49999334716813
 30
0.0
  0
VERTEX
  5
C4
330
C0
100
AcDbEntity
  8
LAYER_1
 62
   178
100
AcDbVertex
100
AcDb2dVertex
 10
34.89999771118164
 20
26.89999487304704
 30
0.0
  0
VERTEX
  5
C5
330
C0
100
AcDbEntity
  8
LAYER_1
 62
   178
100
AcDbVertex
100
AcDb2dVertex
 10
33.49999618530273
 20
26.19999792480485
 30
0.0
  0
VERTEX
  5
C6
330
C0
100
AcDbEntity
  8
LAYER_1
 62
   178
100
AcDbVertex
100
AcDb2dVertex
 10
32.49999618530273
 20
27.79999639892594
 30
0.0
  0
VERTEX
  5
C7
330
C0
100
AcDbEntity
  8
LAYER_1
 62
   178
100
AcDbVertex
100
AcDb2dVertex
 10
33.39999771118164
 20
30.59999945068375
 30
0.0
  0
VERTEX
  5
C8
330
C0
100
AcDbEntity
  8
LAYER_1
 62
   178
100
AcDbVertex
100
AcDb2dVertex
 10
30.29999923706055
 20
29.99999334716813
 30
0.0
  0
SEQEND
  5
C9
330
C0
100
AcDbEntity
  8
LAYER_1
 62
   178
  0
SPLINE
  5
CA
330
1F
100
AcDbEntity
  8
LAYER_1
 62
   178
100
AcDbSpline
210
0.0
220
0.0
230
1.0
 70
    11
 71
     3
 72
    89
 73
    85
 74
     0
 42
0.0000000001
 43
0.0000000001
 12
1.0
 22
0.0
 32
0.0
 13
1.0
 23
0.0
 33
0.0
 40
0.0
 40
0.0
 40
0.0
 40
0.0
 40
1.0
 40
1.0
 40
1.0
 40
2.0
 40
2.0
 40
2.0
 40
3.0
 40
3.0
 40
3.0
 40
4.0
 40
4.0
 40
4.0
 40
5.0
 40
5.0
 40
5.0
 40
6.0
 40
6.0
 40
6.0
 40
7.0
 40
7.0
 40
7.0
 40
8.0
 40
8.0
 40
8.0
 40
9.0
 40
9.0
 40
9.0
 40
10.0
 40
10.0
 40
10.0
 40
11.0
 40
11.0
 40
11.0
 40
12.0
 40
12.0
 40
12.0
 40
13.0
 40
13.0
 40
13.0
 40
14.0
 40
14.0
 40
14.0
 40
15.0
 40
15.0
 40
15.0
 40
16.0
 40
16.0
 40
16.0
 40
17.0
 40
17.0
 40
17.0
 40
18.0
 40
18.0
 40
18.0
 40
19.0
 40
19.0
 40
19.0
 40
20.0
 40
20.0
 40
20.0
 40
21.0
 40
21.0
 40
21.0
 40
22.0
 40
22.0
 40
22.0
 40
23.0
 40
23.0
 40
23.0
 40
24.0
 40
24.0
 40
24.0
 40
25.0
 40
25.0
 40
25.0
 40
26.0
 40
26.0
 40
26.0
 40
27.0
 40
27.0
 40
27.0
 40
28.0
 40
28.0
 40
28.0
 40
28.0
 10
24.69999885559082
 20
36.89999487304704
 30
0.0
 10
24.69999885559082
 20
36.89999487304704
 30
0.0
 10
27.19999885559082
 20
37.59999182128922
 30
0.0
 10
27.19999885559082
 20
37.59999182128922
 30
0.0
 10
27.19999885559082
 20
37.59999182128922
 30
0.0
 10
26.29999923706055
 20
38.59999182128922
 30
0.0
 10
26.29999923706055
 20
38.59999182128922
 30
0.0
 10
26.29999923706055
 20
38.59999182128922
 30
0.0
 10
23.69999885559082
 20
37.89999487304704
 30
0.0
 10
23.69999885559082
 20
37.89999487304704
 30
0.0
 10
23.69999885559082
 20
37.89999487304704
 30
0.0
 10
22.59999847412109
 20
38.99999334716813
 30
0.0
 10
22.59999847412109
 20
38.99999334716813
 30
0.0
 10
22.59999847412109
 20
38.99999334716813
 30
0.0
 10
27.10000038146973
 20
40.19999792480485
 30
0.0
 10
27.10000038146973
 20
40.19999792480485
 30
0.0
 10
27.10000038146973
 20
40.19999792480485
 30
0.0
 10
26.10000038146973
 20
41.09999945068375
 30
0.0
 10
26.10000038146973
 20
41.09999945068375
 30
0.0
 10
26.10000038146973
 20
41.09999945068375
 30
0.0
 10
22.30000114440918
 20
40.09999945068375
 30
0.0
 10
22.30000114440918
 20
40.09999945068375
 30
0.0
 10
22.30000114440918
 20
40.09999945068375
 30
0.0
 10
23.00000190734863
 20
42.50000097656266
 30
0.0
 10
23.00000190734863
 20
42.50000097656266
 30
0.0
 10
23.00000190734863
 20
42.50000097656266
 30
0.0
 10
21.70000267028809
 20
42.09999945068375
 30
0.0
 10
21.70000267028809
 20
42.09999945068375
 30
0.0
 10
21.58980369567871
 20
41.65988256835954
 30
0.0
 10
21.4562816619873
 20
41.2259378662111
 30
0.0
 10
21.30000305175781
 20
40.79999639892594
 30
0.0
 10
21.30000305175781
 20
40.79999639892594
 30
0.0
 10
20.50000381469727
 20
41.59999945068375
 30
0.0
 10
20.50000381469727
 20
41.59999945068375
 30
0.0
 10
20.50000381469727
 20
41.59999945068375
 30
0.0
 10
21.00000381469727
 20
43.69999792480485
 30
0.0
 10
21.00000381469727
 20
43.69999792480485
 30
0.0
 10
21.00000381469727
 20
43.69999792480485
 30
0.0
 10
21.60000419616699
 20
45.69999792480485
 30
0.0
 10
21.60000419616699
 20
45.69999792480485
 30
0.0
 10
21.60000419616699
 20
45.69999792480485
 30
0.0
 10
22.70000457763672
 20
46.00000097656266
 30
0.0
 10
22.70000457763672
 20
46.00000097656266
 30
0.0
 10
22.70000457763672
 20
46.00000097656266
 30
0.0
 10
22.40000534057617
 20
44.69999792480485
 30
0.0
 10
22.40000534057617
 20
44.69999792480485
 30
0.0
 10
22.40000534057617
 20
44.69999792480485
 30
0.0
 10
23.30000495910645
 20
43.69999792480485
 30
0.0
 10
23.30000495910645
 20
43.69999792480485
 30
0.0
 10
23.30000495910645
 20
43.69999792480485
 30
0.0
 10
23.90000534057617
 20
46.19999792480485
 30
0.0
 10
23.90000534057617
 20
46.19999792480485
 30
0.0
 10
23.90000534057617
 20
46.19999792480485
 30
0.0
 10
26.70000457763672
 20
43.39999487304704
 30
0.0
 10
26.70000457763672
 20
43.39999487304704
 30
0.0
 10
26.70000457763672
 20
43.39999487304704
 30
0.0
 10
28.00000381469727
 20
43.69999792480485
 30
0.0
 10
28.00000381469727
 20
43.69999792480485
 30
0.0
 10
28.00000381469727
 20
43.69999792480485
 30
0.0
 10
25.5
 20
46.19999792480485
 30
0.0
 10
25.5
 20
46.19999792480485
 30
0.0
 10
25.5
 20
46.19999792480485
 30
0.0
 10
30.60000038146973
 20
43.89999487304704
 30
0.0
 10
30.60000038146973
 20
43.89999487304704
 30
0.0
 10
30.60000038146973
 20
43.89999487304704
 30
0.0
 10
31.80000114440918
 20
38.69999792480485
 30
0.0
 10
31.80000114440918
 20
38.69999792480485
 30
0.0
 10
31.80000114440918
 20
38.69999792480485
 30
0.0
 10
28.60000038146973
 20
41.29999639892594
 30
0.0
 10
28.60000038146973
 20
41.29999639892594
 30
0.0
 10
28.60000038146973
 20
41.29999639892594
 30
0.0
 10
28.60000038146973
 20
37.19999792480485
 30
0.0
 10
28.60000038146973
 20
37.19999792480485
 30
0.0
 10
28.60000038146973
 20
37.19999792480485
 30
0.0
 10
25.30000114440918
 20
35.29999639892594
 30
0.0
 10
25.30000114440918
 20
35.29999639892594
 30
0.0
 10
25.30000114440918
 20
35.29999639892594
 30
0.0
 10
25.40000152587891
 20
35.29999639892594
 30
0.0
 10
25.40000152587891
 20
35.29999639892594
 30
0.0
 10
25.40000152587891
 20
35.29999639892594
 30
0.0
 10
25.80000114440918
 20
35.69999792480485
 30
0.0
 10
25.80000114440918
 20
35.69999792480485
 30
0.0
 10
25.80000114440918
 20
35.69999792480485
 30
0.0
 10
24.69999885559082
 20
36.89999487304704
 30
0.0
 10
24.69999885559082
 20
36.89999487304704
 30
0.0
  0
SPLINE
  5
CB
330
1F
100
AcDbEntity
  8
LAYER_1
 62
   178
100
AcDbSpline
210
0.0
220
0.0
230
1.0
 70
    11
 71
     3
 72
    20
 73
    16
 74
     0
 42
0.0000000001
 43
0.0000000001
 12
1.0
 22
0.0
 32
0.0
 13
1.0
 23
0.0
 33
0.0
 40
0.0
 40
0.0
 40
0.0
 40
0.0
 40
1.0
 40
1.0
 40
1.0
 40
2.0
 40
2.0
 40
2.0
 40
3.0
 40
3.0
 40
3.0
 40
4.0
 40
4.0
 40
4.0
 40
5.0
 40
5.0
 40
5.0
 40
5.0
 10
19.69999885559082
 20
41.69999792480485
 30
0.0
 10
18.89999961853027
 20
42.59999945068375
 30
0.0
 10
17.99999809265137
 20
43.39999487304704
 30
0.0
 10
17.09999847412109
 20
44.29999639892594
 30
0.0
 10
17.26787948608398
 20
44.53064062500016
 30
0.0
 10
17.33959007263184
 20
44.81748297119157
 30
0.0
 10
17.29999923706055
 20
45.09999945068375
 30
0.0
 10
17.29999923706055
 20
45.09999945068375
 30
0.0
 10
20.89999961853027
 20
46.00000097656266
 30
0.0
 10
20.89999961853027
 20
46.00000097656266
 30
0.0
 10
20.89999961853027
 20
46.00000097656266
 30
0.0
 10
19.0
 20
44.19999792480485
 30
0.0
 10
19.0
 20
44.19999792480485
 30
0.0
 10
19.0
 20
44.19999792480485
 30
0.0
 10
19.69999885559082
 20
41.69999792480485
 30
0.0
 10
19.69999885559082
 20
41.69999792480485
 30
0.0
  0
SPLINE
  5
CC
330
1F
100
AcDbEntity
  8
LAYER_1
 62
   178
100
AcDbSpline
210
0.0
220
0.0
230
1.0
 70
    11
 71
     3
 72
    20
 73
    16
 74
     0
 42
0.0000000001
 43
0.0000000001
 12
1.0
 22
0.0
 32
0.0
 13
1.0
 23
0.0
 33
0.0
 40
0.0
 40
0.0
 40
0.0
 40
0.0
 40
1.0
 40
1.0
 40
1.0
 40
2.0
 40
2.0
 40
2.0
 40
3.0
 40
3.0
 40
3.0
 40
4.0
 40
4.0
 40
4.0
 40
5.0
 40
5.0
 40
5.0
 40
5.0
 10
11.59999847412109
 20
48.50000097656266
 30
0.0
 10
11.59999847412109
 20
48.50000097656266
 30
0.0
 10
14.19999885559082
 20
45.90000250244157
 30
0.0
 10
14.19999885559082
 20
45.90000250244157
 30
0.0
 10
14.03211784362793
 20
45.66935827636735
 30
0.0
 10
13.96040725708008
 20
45.38251593017594
 30
0.0
 10
13.99999904632568
 20
45.09999945068375
 30
0.0
 10
13.99999904632568
 20
45.09999945068375
 30
0.0
 10
10.39999961853027
 20
44.09999945068375
 30
0.0
 10
10.39999961853027
 20
44.09999945068375
 30
0.0
 10
10.39999961853027
 20
44.09999945068375
 30
0.0
 10
12.29999923706055
 20
46.00000097656266
 30
0.0
 10
12.29999923706055
 20
46.00000097656266
 30
0.0
 10
12.29999923706055
 20
46.00000097656266
 30
0.0
 10
11.59999847412109
 20
48.50000097656266
 30
0.0
 10
11.59999847412109
 20
48.50000097656266
 30
0.0
  0
POLYLINE
  5
CD
330
1F
100
AcDbEntity
  8
LAYER_1
 62
   178
100
AcDb2dPolyline
 66
     1
 10
0.0
 20
0.0
 30
0.0
  0
VERTEX
  5
CE
330
CD
100
AcDbEntity
  8
LAYER_1
 62
   178
100
AcDbVertex
100
AcDb2dVertex
 10
18.39999771118164
 20
51.69999792480485
 30
0.0
  0
VERTEX
  5
CF
330
CD
100
AcDbEntity
  8
LAYER_1
 62
   178
100
AcDbVertex
100
AcDb2dVertex
 10
19.39999771118164
 20
50.69999792480485
 30
0.0
  0
VERTEX
  5
D0
330
CD
100
AcDbEntity
  8
LAYER_1
 62
   178
100
AcDbVertex
100
AcDb2dVertex
 10
20.69999694824219
 20
51.00000097656266
 30
0.0
  0
VERTEX
  5
D1
330
CD
100
AcDbEntity
  8
LAYER_1
 62
   178
100
AcDbVertex
100
AcDb2dVertex
 10
18.89999771118164
 20
52.80000402832047
 30
0.0
  0
VERTEX
  5
D2
330
CD
100
AcDbEntity
  8
LAYER_1
 62
   178
100
AcDbVertex
100
AcDb2dVertex
 10
22.69999694824219
 20
53.80000402832047
 30
0.0
  0
VERTEX
  5
D3
330
CD
100
AcDbEntity
  8
LAYER_1
 62
   178
100
AcDbVertex
100
AcDb2dVertex
 10
22.89999771118164
 20
54.80000402832047
 30
0.0
  0
VERTEX
  5
D4
330
CD
100
AcDbEntity
  8
LAYER_1
 62
   178
100
AcDbVertex
100
AcDb2dVertex
 10
24.69999694824219
 20
54.00000097656266
 30
0.0
  0
VERTEX
  5
D5
330
CD
100
AcDbEntity
  8
LAYER_1
 62
   178
100
AcDbVertex
100
AcDb2dVertex
 10
25.19999694824219
 20
52.40000250244157
 30
0.0
  0
VERTEX
  5
D6
330
CD
100
AcDbEntity
  8
LAYER_1
 62
   178
100
AcDbVertex
100
AcDb2dVertex
 10
24.39999771118164
 20
52.20000555419938
 30
0.0
  0
VERTEX
  5
D7
330
CD
100
AcDbEntity
  8
LAYER_1
 62
   178
100
AcDbVertex
100
AcDb2dVertex
 10
23.29999732971191
 20
48.40000250244157
 30
0.0
  0
VERTEX
  5
D8
330
CD
100
AcDbEntity
  8
LAYER_1
 62
   178
100
AcDbVertex
100
AcDb2dVertex
 10
21.59999656677246
 20
50.09999945068375
 30
0.0
  0
VERTEX
  5
D9
330
CD
100
AcDbEntity
  8
LAYER_1
 62
   178
100
AcDbVertex
100
AcDb2dVertex
 10
21.19999694824219
 20
48.79999639892594
 30
0.0
  0
VERTEX
  5
DA
330
CD
100
AcDbEntity
  8
LAYER_1
 62
   178
100
AcDbVertex
100
AcDb2dVertex
 10
22.19999694824219
 20
47.89999487304704
 30
0.0
  0
VERTEX
  5
DB
330
CD
100
AcDbEntity
  8
LAYER_1
 62
   178
100
AcDbVertex
100
AcDb2dVertex
 10
21.09999656677246
 20
47.49999334716813
 30
0.0
  0
VERTEX
  5
DC
330
CD
100
AcDbEntity
  8
LAYER_1
 62
   178
100
AcDbVertex
100
AcDb2dVertex
 10
19.59999656677246
 20
48.99999334716813
 30
0.0
  0
VERTEX
  5
DD
330
CD
100
AcDbEntity
  8
LAYER_1
 62
   178
100
AcDbVertex
100
AcDb2dVertex
 10
18.09999656677246
 20
50.49999334716813
 30
0.0
  0
VERTEX
  5
DE
330
CD
100
AcDbEntity
  8
LAYER_1
 62
   178
100
AcDbVertex
100
AcDb2dVertex
 10
18.39999771118164
 20
51.69999792480485
 30
0.0
  0
SEQEND
  5
DF
330
CD
100
AcDbEntity
  8
LAYER_1
 62
   178
  0
SPLINE
  5
E0
330
1F
100
AcDbEntity
  8
LAYER_1
 62
   178
100
AcDbSpline
210
0.0
220
0.0
230
1.0
 70
    11
 71
     3
 72
    17
 73
    13
 74
     0
 42
0.0000000001
 43
0.0000000001
 12
1.0
 22
0.0
 32
0.0
 13
1.0
 23
0.0
 33
0.0
 40
0.0
 40
0.0
 40
0.0
 40
0.0
 40
1.0
 40
1.0
 40
1.0
 40
2.0
 40
2.0
 40
2.0
 40
3.0
 40
3.0
 40
3.0
 40
4.0
 40
4.0
 40
4.0
 40
4.0
 10
18.29999732971191
 20
56.29999639892594
 30
0.0
 10
18.29999732971191
 20
56.39999487304704
 30
0.0
 10
18.49999809265137
 20
56.49999334716813
 30
0.0
 10
18.69999694824219
 20
56.49999334716813
 30
0.0
 10
18.89999580383301
 20
56.49999334716813
 30
0.0
 10
18.99999618530273
 20
56.29999639892594
 30
0.0
 10
18.89999771118164
 20
56.09999182128922
 30
0.0
 10
18.79999923706055
 20
55.8999872436525
 30
0.0
 10
18.69999694824219
 20
55.79998876953141
 30
0.0
 10
18.49999809265137
 20
55.89999487304704
 30
0.0
 10
18.29999923706055
 20
56.00000097656266
 30
0.0
 10
18.20000076293945
 20
56.09999945068375
 30
0.0
 10
18.29999732971191
 20
56.29999639892594
 30
0.0
  0
POLYLINE
  5
E1
330
1F
100
AcDbEntity
  8
LAYER_1
 62
   178
100
AcDb2dPolyline
 66
     1
 10
0.0
 20
0.0
 30
0.0
  0
VERTEX
  5
E2
330
E1
100
AcDbEntity
  8
LAYER_1
 62
   178
100
AcDbVertex
100
AcDb2dVertex
 10
27.89999771118164
 20
54.69999792480485
 30
0.0
  0
VERTEX
  5
E3
330
E1
100
AcDbEntity
  8
LAYER_1
 62
   178
100
AcDbVertex
100
AcDb2dVertex
 10
26.89999771118164
 20
54.69999792480485
 30
0.0
  0
VERTEX
  5
E4
330
E1
100
AcDbEntity
  8
LAYER_1
 62
   178
100
AcDbVertex
100
AcDb2dVertex
 10
26.29999732971191
 20
54.00000097656266
 30
0.0
  0
VERTEX
  5
E5
330
E1
100
AcDbEntity
  8
LAYER_1
 62
   178
100
AcDbVertex
100
AcDb2dVertex
 10
25.99999809265137
 20
55.00000097656266
 30
0.0
  0
VERTEX
  5
E6
330
E1
100
AcDbEntity
  8
LAYER_1
 62
   178
100
AcDbVertex
100
AcDb2dVertex
 10
25.09999847412109
 20
55.40000250244157
 30
0.0
  0
VERTEX
  5
E7
330
E1
100
AcDbEntity
  8
LAYER_1
 62
   178
100
AcDbVertex
100
AcDb2dVertex
 10
25.99999809265137
 20
55.90000250244157
 30
0.0
  0
VERTEX
  5
E8
330
E1
100
AcDbEntity
  8
LAYER_1
 62
   178
100
AcDbVertex
100
AcDb2dVertex
 10
25.99999809265137
 20
56.80000402832047
 30
0.0
  0
VERTEX
  5
E9
330
E1
100
AcDbEntity
  8
LAYER_1
 62
   178
100
AcDbVertex
100
AcDb2dVertex
 10
26.69999885559082
 20
56.20000555419938
 30
0.0
  0
VERTEX
  5
EA
330
E1
100
AcDbEntity
  8
LAYER_1
 62
   178
100
AcDbVertex
100
AcDb2dVertex
 10
27.59999847412109
 20
56.40000250244157
 30
0.0
  0
VERTEX
  5
EB
330
E1
100
AcDbEntity
  8
LAYER_1
 62
   178
100
AcDbVertex
100
AcDb2dVertex
 10
27.29999923706055
 20
55.40000250244157
 30
0.0
  0
VERTEX
  5
EC
330
E1
100
AcDbEntity
  8
LAYER_1
 62
   178
100
AcDbVertex
100
AcDb2dVertex
 10
27.89999771118164
 20
54.69999792480485
 30
0.0
  0
SEQEND
  5
ED
330
E1
100
AcDbEntity
  8
LAYER_1
 62
   178
  0
POLYLINE
  5
EE
330
1F
100
AcDbEntity
  8
LAYER_1
 62
   178
100
AcDb2dPolyline
 66
     1
 10
0.0
 20
0.0
 30
0.0
  0
VERTEX
  5
EF
330
EE
100
AcDbEntity
  8
LAYER_1
 62
   178
100
AcDbVertex
100
AcDb2dVertex
 10
28.89999771118164
 20
77.8999986877443
 30
0.0
  0
VERTEX
  5
F0
330
EE
100
AcDbEntity
  8
LAYER_1
 62
   178
100
AcDbVertex
100
AcDb2dVertex
 10
27.20000076293945
 20
77.8999986877443
 30
0.0
  0
VERTEX
  5
F1
330
EE
100
AcDbEntity
  8
LAYER_1
 62
   178
100
AcDbVertex
100
AcDb2dVertex
 10
26.20000076293945
 20
76.8999986877443
 30
0.0
  0
VERTEX
  5
F2
330
EE
100
AcDbEntity
  8
LAYER_1
 62
   178
100
AcDbVertex
100
AcDb2dVertex
 10
25.70000076293945
 20
78.3999986877443
 30
0.0
  0
VERTEX
  5
F3
330
EE
100
AcDbEntity
  8
LAYER_1
 62
   178
100
AcDbVertex
100
AcDb2dVertex
 10
24.20000076293945
 20
79.19999792480485
 30
0.0
  0
VERTEX
  5
F4
330
EE
100
AcDbEntity
  8
LAYER_1
 62
   178
100
AcDbVertex
100
AcDb2dVertex
 10
25.60000038146973
 20
79.9999971618654
 30
0.0
  0
VERTEX
  5
F5
330
EE
100
AcDbEntity
  8
LAYER_1
 62
   178
100
AcDbVertex
100
AcDb2dVertex
 10
25.60000038146973
 20
81.19999792480485
 30
0.0
  0
VERTEX
  5
F6
330
EE
100
AcDbEntity
  8
LAYER_1
 62
   178
100
AcDbVertex
100
AcDb2dVertex
 10
25.80000114440918
 20
81.19999792480485
 30
0.0
  0
VERTEX
  5
F7
330
EE
100
AcDbEntity
  8
LAYER_1
 62
   178
100
AcDbVertex
100
AcDb2dVertex
 10
26.90000152587891
 20
80.3999986877443
 30
0.0
  0
VERTEX
  5
F8
330
EE
100
AcDbEntity
  8
LAYER_1
 62
   178
100
AcDbVertex
100
AcDb2dVertex
 10
28.40000152587891
 20
80.8999986877443
 30
0.0
  0
VERTEX
  5
F9
330
EE
100
AcDbEntity
  8
LAYER_1
 62
   178
100
AcDbVertex
100
AcDb2dVertex
 10
28.0
 20
79.19999792480485
 30
0.0
  0
VERTEX
  5
FA
330
EE
100
AcDbEntity
  8
LAYER_1
 62
   178
100
AcDbVertex
100
AcDb2dVertex
 10
28.89999771118164
 20
77.8999986877443
 30
0.0
  0
SEQEND
  5
FB
330
EE
100
AcDbEntity
  8
LAYER_1
 62
   178
  0
POLYLINE
  5
FC
330
1F
100
AcDbEntity
  8
LAYER_1
 62
   178
100
AcDb2dPolyline
 66
     1
 10
0.0
 20
0.0
 30
0.0
  0
VERTEX
  5
FD
330
FC
100
AcDbEntity
  8
LAYER_1
 62
   178
100
AcDbVertex
100
AcDb2dVertex
 10
26.39999771118164
 20
68.00000097656266
 30
0.0
  0
VERTEX
  5
FE
330
FC
100
AcDbEntity
  8
LAYER_1
 62
   178
100
AcDbVertex
100
AcDb2dVertex
 10
26.39999771118164
 20
69.3999986877443
 30
0.0
  0
VERTEX
  5
FF
330
FC
100
AcDbEntity
  8
LAYER_1
 62
   178
100
AcDbVertex
100
AcDb2dVertex
 10
27.59999847412109
 20
68.4999971618654
 30
0.0
  0
VERTEX
  5
100
330
FC
100
AcDbEntity
  8
LAYER_1
 62
   178
100
AcDbVertex
100
AcDb2dVertex
 10
28.99999809265137
 20
68.8999986877443
 30
0.0
  0
VERTEX
  5
101
330
FC
100
AcDbEntity
  8
LAYER_1
 62
   178
100
AcDbVertex
100
AcDb2dVertex
 10
28.49999809265137
 20
67.3000002136232
 30
0.0
  0
VERTEX
  5
102
330
FC
100
AcDbEntity
  8
LAYER_1
 62
   178
100
AcDbVertex
100
AcDb2dVertex
 10
29.29999732971191
 20
66.09999945068375
 30
0.0
  0
VERTEX
  5
103
330
FC
100
AcDbEntity
  8
LAYER_1
 62
   178
100
AcDbVertex
100
AcDb2dVertex
 10
27.79999923706055
 20
66.09999945068375
 30
0.0
  0
VERTEX
  5
104
330
FC
100
AcDbEntity
  8
LAYER_1
 62
   178
100
AcDbVertex
100
AcDb2dVertex
 10
26.89999961853027
 20
65.09999945068375
 30
0.0
  0
VERTEX
  5
105
330
FC
100
AcDbEntity
  8
LAYER_1
 62
   178
100
AcDbVertex
100
AcDb2dVertex
 10
26.5
 20
66.50000097656266
 30
0.0
  0
VERTEX
  5
106
330
FC
100
AcDbEntity
  8
LAYER_1
 62
   178
100
AcDbVertex
100
AcDb2dVertex
 10
25.10000038146973
 20
67.19999792480485
 30
0.0
  0
VERTEX
  5
107
330
FC
100
AcDbEntity
  8
LAYER_1
 62
   178
100
AcDbVertex
100
AcDb2dVertex
 10
26.39999771118164
 20
68.00000097656266
 30
0.0
  0
SEQEND
  5
108
330
FC
100
AcDbEntity
  8
LAYER_1
 62
   178
  0
SPLINE
  5
109
330
1F
100
AcDbEntity
  8
LAYER_1
 62
   178
100
AcDbSpline
210
0.0
220
0.0
230
1.0
 70
    11
 71
     3
 72
    32
 73
    28
 74
     0
 42
0.0000000001
 43
0.0000000001
 12
1.0
 22
0.0
 32
0.0
 13
1.0
 23
0.0
 33
0.0
 40
0.0
 40
0.0
 40
0.0
 40
0.0
 40
1.0
 40
1.0
 40
1.0
 40
2.0
 40
2.0
 40
2.0
 40
3.0
 40
3.0
 40
3.0
 40
4.0
 40
4.0
 40
4.0
 40
5.0
 40
5.0
 40
5.0
 40
6.0
 40
6.0
 40
6.0
 40
7.0
 40
7.0
 40
7.0
 40
8.0
 40
8.0
 40
8.0
 40
9.0
 40
9.0
 40
9.0
 40
9.0
 10
28.09999847412109
 20
70.70000173950211
 30
0.0
 10
28.09999847412109
 20
70.70000173950211
 30
0.0
 10
25.89999771118164
 20
72.70000173950211
 30
0.0
 10
25.89999771118164
 20
72.70000173950211
 30
0.0
 10
25.89999771118164
 20
72.70000173950211
 30
0.0
 10
28.19999694824219
 20
75.8000002136232
 30
0.0
 10
28.19999694824219
 20
75.8000002136232
 30
0.0
 10
28.19999694824219
 20
75.8000002136232
 30
0.0
 10
32.39999771118164
 20
75.50000097656266
 30
0.0
 10
32.39999771118164
 20
75.50000097656266
 30
0.0
 10
32.39999771118164
 20
75.50000097656266
 30
0.0
 10
32.39999771118164
 20
75.19999792480485
 30
0.0
 10
32.39999771118164
 20
75.19999792480485
 30
0.0
 10
32.28473663330078
 20
74.80962850952164
 30
0.0
 10
32.21757125854492
 20
74.40664770507829
 30
0.0
 10
32.19999694824219
 20
73.9999971618654
 30
0.0
 10
32.19999694824219
 20
73.9999971618654
 30
0.0
 10
32.19999694824219
 20
73.79999639892594
 30
0.0
 10
32.19999694824219
 20
73.79999639892594
 30
0.0
 10
32.19999694824219
 20
73.79999639892594
 30
0.0
 10
30.0
 20
72.4999971618654
 30
0.0
 10
30.0
 20
72.4999971618654
 30
0.0
 10
30.0
 20
72.4999971618654
 30
0.0
 10
31.5
 20
71.69999792480485
 30
0.0
 10
31.5
 20
71.69999792480485
 30
0.0
 10
31.5
 20
71.69999792480485
 30
0.0
 10
28.09999847412109
 20
70.70000173950211
 30
0.0
 10
28.09999847412109
 20
70.70000173950211
 30
0.0
  0
POLYLINE
  5
10A
330
1F
100
AcDbEntity
  8
LAYER_1
 62
   178
100
AcDb2dPolyline
 66
     1
 10
0.0
 20
0.0
 30
0.0
  0
VERTEX
  5
10B
330
10A
100
AcDbEntity
  8
LAYER_1
 62
   178
100
AcDbVertex
100
AcDb2dVertex
 10
31.99999809265137
 20
71.50000097656266
 30
0.0
  0
VERTEX
  5
10C
330
10A
100
AcDbEntity
  8
LAYER_1
 62
   178
100
AcDbVertex
100
AcDb2dVertex
 10
32.89999771118164
 20
71.20000173950211
 30
0.0
  0
VERTEX
  5
10D
330
10A
100
AcDbEntity
  8
LAYER_1
 62
   178
100
AcDbVertex
100
AcDb2dVertex
 10
33.29999923706055
 20
68.90000250244157
 30
0.0
  0
VERTEX
  5
10E
330
10A
100
AcDbEntity
  8
LAYER_1
 62
   178
100
AcDbVertex
100
AcDb2dVertex
 10
32.5
 20
69.50000097656266
 30
0.0
  0
VERTEX
  5
10F
330
10A
100
AcDbEntity
  8
LAYER_1
 62
   178
100
AcDbVertex
100
AcDb2dVertex
 10
32.20000076293945
 20
65.59999945068375
 30
0.0
  0
VERTEX
  5
110
330
10A
100
AcDbEntity
  8
LAYER_1
 62
   178
100
AcDbVertex
100
AcDb2dVertex
 10
30.60000038146973
 20
67.69999792480485
 30
0.0
  0
VERTEX
  5
111
330
10A
100
AcDbEntity
  8
LAYER_1
 62
   178
100
AcDbVertex
100
AcDb2dVertex
 10
31.99999809265137
 20
71.50000097656266
 30
0.0
  0
SEQEND
  5
112
330
10A
100
AcDbEntity
  8
LAYER_1
 62
   178
  0
POLYLINE
  5
113
330
1F
100
AcDbEntity
  8
LAYER_1
 62
   178
100
AcDb2dPolyline
 66
     1
 10
0.0
 20
0.0
 30
0.0
  0
VERTEX
  5
114
330
113
100
AcDbEntity
  8
LAYER_1
 62
   178
100
AcDbVertex
100
AcDb2dVertex
 10
32.69999694824219
 20
56.90000250244157
 30
0.0
  0
VERTEX
  5
115
330
113
100
AcDbEntity
  8
LAYER_1
 62
   178
100
AcDbVertex
100
AcDb2dVertex
 10
33.59999847412109
 20
53.59999945068375
 30
0.0
  0
VERTEX
  5
116
330
113
100
AcDbEntity
  8
LAYER_1
 62
   178
100
AcDbVertex
100
AcDb2dVertex
 10
30.19999885559082
 20
56.29999639892594
 30
0.0
  0
VERTEX
  5
117
330
113
100
AcDbEntity
  8
LAYER_1
 62
   178
100
AcDbVertex
100
AcDb2dVertex
 10
30.19999885559082
 20
56.29999639892594
 30
0.0
  0
VERTEX
  5
118
330
113
100
AcDbEntity
  8
LAYER_1
 62
   178
100
AcDbVertex
100
AcDb2dVertex
 10
29.89999961853027
 20
54.59999945068375
 30
0.0
  0
VERTEX
  5
119
330
113
100
AcDbEntity
  8
LAYER_1
 62
   178
100
AcDbVertex
100
AcDb2dVertex
 10
29.0
 20
55.89999487304704
 30
0.0
  0
VERTEX
  5
11A
330
113
100
AcDbEntity
  8
LAYER_1
 62
   178
100
AcDbVertex
100
AcDb2dVertex
 10
29.79999923706055
 20
57.99999334716813
 30
0.0
  0
VERTEX
  5
11B
330
113
100
AcDbEntity
  8
LAYER_1
 62
   178
100
AcDbVertex
100
AcDb2dVertex
 10
32.69999694824219
 20
56.90000250244157
 30
0.0
  0
SEQEND
  5
11C
330
113
100
AcDbEntity
  8
LAYER_1
 62
   178
  0
POLYLINE
  5
11D
330
1F
100
AcDbEntity
  8
LAYER_1
 62
   178
100
AcDb2dPolyline
 66
     1
 10
0.0
 20
0.0
 30
0.0
  0
VERTEX
  5
11E
330
11D
100
AcDbEntity
  8
LAYER_1
 62
   178
100
AcDbVertex
100
AcDb2dVertex
 10
36.79999542236328
 20
45.50000097656266
 30
0.0
  0
VERTEX
  5
11F
330
11D
100
AcDbEntity
  8
LAYER_1
 62
   178
100
AcDbVertex
100
AcDb2dVertex
 10
34.59999847412109
 20
45.50000097656266
 30
0.0
  0
VERTEX
  5
120
330
11D
100
AcDbEntity
  8
LAYER_1
 62
   178
100
AcDbVertex
100
AcDb2dVertex
 10
33.39999771118164
 20
44.19999792480485
 30
0.0
  0
VERTEX
  5
121
330
11D
100
AcDbEntity
  8
LAYER_1
 62
   178
100
AcDbVertex
100
AcDb2dVertex
 10
32.70000076293945
 20
46.19999792480485
 30
0.0
  0
VERTEX
  5
122
330
11D
100
AcDbEntity
  8
LAYER_1
 62
   178
100
AcDbVertex
100
AcDb2dVertex
 10
30.90000152587891
 20
47.00000097656266
 30
0.0
  0
VERTEX
  5
123
330
11D
100
AcDbEntity
  8
LAYER_1
 62
   178
100
AcDbVertex
100
AcDb2dVertex
 10
32.60000228881836
 20
48.09999945068375
 30
0.0
  0
VERTEX
  5
124
330
11D
100
AcDbEntity
  8
LAYER_1
 62
   178
100
AcDbVertex
100
AcDb2dVertex
 10
32.80000305175781
 20
49.90000250244157
 30
0.0
  0
VERTEX
  5
125
330
11D
100
AcDbEntity
  8
LAYER_1
 62
   178
100
AcDbVertex
100
AcDb2dVertex
 10
34.40000152587891
 20
48.70000555419938
 30
0.0
  0
VERTEX
  5
126
330
11D
100
AcDbEntity
  8
LAYER_1
 62
   178
100
AcDbVertex
100
AcDb2dVertex
 10
36.30000305175781
 20
49.30000402832047
 30
0.0
  0
VERTEX
  5
127
330
11D
100
AcDbEntity
  8
LAYER_1
 62
   178
100
AcDbVertex
100
AcDb2dVertex
 10
35.70000457763672
 20
47.10000708007829
 30
0.0
  0
VERTEX
  5
128
330
11D
100
AcDbEntity
  8
LAYER_1
 62
   178
100
AcDbVertex
100
AcDb2dVertex
 10
36.79999542236328
 20
45.50000097656266
 30
0.0
  0
SEQEND
  5
129
330
11D
100
AcDbEntity
  8
LAYER_1
 62
   178
  0
POLYLINE
  5
12A
330
1F
100
AcDbEntity
  8
LAYER_1
 62
   178
100
AcDb2dPolyline
 66
     1
 10
0.0
 20
0.0
 30
0.0
  0
VERTEX
  5
12B
330
12A
100
AcDbEntity
  8
LAYER_1
 62
   178
100
AcDbVertex
100
AcDb2dVertex
 10
30.0
 20
53.09999945068375
 30
0.0
  0
VERTEX
  5
12C
330
12A
100
AcDbEntity
  8
LAYER_1
 62
   178
100
AcDbVertex
100
AcDb2dVertex
 10
29.79999923706055
 20
49.90000250244157
 30
0.0
  0
VERTEX
  5
12D
330
12A
100
AcDbEntity
  8
LAYER_1
 62
   178
100
AcDbVertex
100
AcDb2dVertex
 10
28.79999923706055
 20
49.20000555419938
 30
0.0
  0
VERTEX
  5
12E
330
12A
100
AcDbEntity
  8
LAYER_1
 62
   178
100
AcDbVertex
100
AcDb2dVertex
 10
27.19999885559082
 20
48.80000402832047
 30
0.0
  0
VERTEX
  5
12F
330
12A
100
AcDbEntity
  8
LAYER_1
 62
   178
100
AcDbVertex
100
AcDb2dVertex
 10
27.89999961853027
 20
51.40000250244157
 30
0.0
  0
VERTEX
  5
130
330
12A
100
AcDbEntity
  8
LAYER_1
 62
   178
100
AcDbVertex
100
AcDb2dVertex
 10
26.60000038146973
 20
51.00000097656266
 30
0.0
  0
VERTEX
  5
131
330
12A
100
AcDbEntity
  8
LAYER_1
 62
   178
100
AcDbVertex
100
AcDb2dVertex
 10
25.89999961853027
 20
48.50000097656266
 30
0.0
  0
VERTEX
  5
132
330
12A
100
AcDbEntity
  8
LAYER_1
 62
   178
100
AcDbVertex
100
AcDb2dVertex
 10
24.39999961853027
 20
48.09999945068375
 30
0.0
  0
VERTEX
  5
133
330
12A
100
AcDbEntity
  8
LAYER_1
 62
   178
100
AcDbVertex
100
AcDb2dVertex
 10
25.39999961853027
 20
51.69999792480485
 30
0.0
  0
VERTEX
  5
134
330
12A
100
AcDbEntity
  8
LAYER_1
 62
   178
100
AcDbVertex
100
AcDb2dVertex
 10
25.60000038146973
 20
51.00000097656266
 30
0.0
  0
VERTEX
  5
135
330
12A
100
AcDbEntity
  8
LAYER_1
 62
   178
100
AcDbVertex
100
AcDb2dVertex
 10
27.60000038146973
 20
53.40000250244157
 30
0.0
  0
VERTEX
  5
136
330
12A
100
AcDbEntity
  8
LAYER_1
 62
   178
100
AcDbVertex
100
AcDb2dVertex
 10
30.0
 20
53.09999945068375
 30
0.0
  0
SEQEND
  5
137
330
12A
100
AcDbEntity
  8
LAYER_1
 62
   178
  0
POLYLINE
  5
138
330
1F
100
AcDbEntity
  8
LAYER_1
 62
   178
100
AcDb2dPolyline
 66
     1
 10
0.0
 20
0.0
 30
0.0
  0
VERTEX
  5
139
330
138
100
AcDbEntity
  8
LAYER_1
 62
   178
100
AcDbVertex
100
AcDb2dVertex
 10
25.70000076293945
 20
47.19999792480485
 30
0.0
  0
VERTEX
  5
13A
330
138
100
AcDbEntity
  8
LAYER_1
 62
   178
100
AcDbVertex
100
AcDb2dVertex
 10
24.90000152587891
 20
46.79999639892594
 30
0.0
  0
VERTEX
  5
13B
330
138
100
AcDbEntity
  8
LAYER_1
 62
   178
100
AcDbVertex
100
AcDb2dVertex
 10
24.70000076293945
 20
46.99999334716813
 30
0.0
  0
VERTEX
  5
13C
330
138
100
AcDbEntity
  8
LAYER_1
 62
   178
100
AcDbVertex
100
AcDb2dVertex
 10
25.70000076293945
 20
47.19999792480485
 30
0.0
  0
SEQEND
  5
13D
330
138
100
AcDbEntity
  8
LAYER_1
 62
   178
  0
SPLINE
  5
13E
330
1F
100
AcDbEntity
  8
LAYER_1
 62
   178
100
AcDbSpline
210
0.0
220
0.0
230
1.0
 70
    11
 71
     3
 72
    26
 73
    22
 74
     0
 42
0.0000000001
 43
0.0000000001
 12
1.0
 22
0.0
 32
0.0
 13
1.0
 23
0.0
 33
0.0
 40
0.0
 40
0.0
 40
0.0
 40
0.0
 40
1.0
 40
1.0
 40
1.0
 40
2.0
 40
2.0
 40
2.0
 40
3.0
 40
3.0
 40
3.0
 40
4.0
 40
4.0
 40
4.0
 40
5.0
 40
5.0
 40
5.0
 40
6.0
 40
6.0
 40
6.0
 40
7.0
 40
7.0
 40
7.0
 40
7.0
 10
18.10000038146973
 20
47.59999945068375
 30
0.0
 10
18.10000038146973
 20
47.59999945068375
 30
0.0
 10
20.70000076293945
 20
46.90000250244157
 30
0.0
 10
20.70000076293945
 20
46.90000250244157
 30
0.0
 10
20.70000076293945
 20
46.90000250244157
 30
0.0
 10
17.10000038146973
 20
45.90000250244157
 30
0.0
 10
17.10000038146973
 20
45.90000250244157
 30
0.0
 10
17.10000038146973
 20
45.90000250244157
 30
0.0
 10
16.80000114440918
 20
46.30000402832047
 30
0.0
 10
16.80000114440918
 20
46.30000402832047
 30
0.0
 10
16.80000114440918
 20
46.35523321533219
 30
0.0
 10
16.75522804260254
 20
46.40000250244157
 30
0.0
 10
16.70000076293945
 20
46.40000250244157
 30
0.0
 10
16.70000076293945
 20
46.40000250244157
 30
0.0
 10
16.5
 20
46.40000250244157
 30
0.0
 10
16.5
 20
46.40000250244157
 30
0.0
 10
16.79999923706055
 20
47.59999945068375
 30
0.0
 10
17.10000038146973
 20
48.80000402832047
 30
0.0
 10
17.5
 20
50.00000097656266
 30
0.0
 10
17.5
 20
50.00000097656266
 30
0.0
 10
18.10000038146973
 20
47.59999945068375
 30
0.0
 10
18.10000038146973
 20
47.59999945068375
 30
0.0
  0
SPLINE
  5
13F
330
1F
100
AcDbEntity
  8
LAYER_1
 62
   178
100
AcDbSpline
210
0.0
220
0.0
230
1.0
 70
    11
 71
     3
 72
    20
 73
    16
 74
     0
 42
0.0000000001
 43
0.0000000001
 12
1.0
 22
0.0
 32
0.0
 13
1.0
 23
0.0
 33
0.0
 40
0.0
 40
0.0
 40
0.0
 40
0.0
 40
1.0
 40
1.0
 40
1.0
 40
2.0
 40
2.0
 40
2.0
 40
3.0
 40
3.0
 40
3.0
 40
4.0
 40
4.0
 40
4.0
 40
5.0
 40
5.0
 40
5.0
 40
5.0
 10
15.60000038146973
 20
46.79999639892594
 30
0.0
 10
15.60000038146973
 20
46.79999639892594
 30
0.0
 10
14.80000019073486
 20
46.79999639892594
 30
0.0
 10
14.80000019073486
 20
46.79999639892594
 30
0.0
 10
14.80000019073486
 20
46.79999639892594
 30
0.0
 10
12.20000076293945
 20
49.29999639892594
 30
0.0
 10
12.20000076293945
 20
49.29999639892594
 30
0.0
 10
12.20000076293945
 20
49.29999639892594
 30
0.0
 10
14.70000076293945
 20
48.69999792480485
 30
0.0
 10
14.70000076293945
 20
48.69999792480485
 30
0.0
 10
14.70000076293945
 20
48.69999792480485
 30
0.0
 10
16.60000038146973
 20
50.50000097656266
 30
0.0
 10
16.60000038146973
 20
50.50000097656266
 30
0.0
 10
16.29999923706055
 20
49.19999792480485
 30
0.0
 10
16.0
 20
48.00000097656266
 30
0.0
 10
15.60000038146973
 20
46.79999639892594
 30
0.0
  0
SPLINE
  5
140
330
1F
100
AcDbEntity
  8
LAYER_1
 62
   178
100
AcDbSpline
210
0.0
220
0.0
230
1.0
 70
    11
 71
     3
 72
    26
 73
    22
 74
     0
 42
0.0000000001
 43
0.0000000001
 12
1.0
 22
0.0
 32
0.0
 13
1.0
 23
0.0
 33
0.0
 40
0.0
 40
0.0
 40
0.0
 40
0.0
 40
1.0
 40
1.0
 40
1.0
 40
2.0
 40
2.0
 40
2.0
 40
3.0
 40
3.0
 40
3.0
 40
4.0
 40
4.0
 40
4.0
 40
5.0
 40
5.0
 40
5.0
 40
6.0
 40
6.0
 40
6.0
 40
7.0
 40
7.0
 40
7.0
 40
7.0
 10
14.19999980926514
 20
44.19999792480485
 30
0.0
 10
14.19999980926514
 20
44.19999792480485
 30
0.0
 10
14.5
 20
43.89999487304704
 30
0.0
 10
14.5
 20
43.89999487304704
 30
0.0
 10
14.50000095367432
 20
43.84476568603532
 30
0.0
 10
14.54477214813232
 20
43.79999639892594
 30
0.0
 10
14.60000038146973
 20
43.79999639892594
 30
0.0
 10
14.60000038146973
 20
43.79999639892594
 30
0.0
 10
14.80000019073486
 20
43.79999639892594
 30
0.0
 10
14.80000019073486
 20
43.79999639892594
 30
0.0
 10
14.80000019073486
 20
43.79999639892594
 30
0.0
 10
13.90000057220459
 20
40.29999639892594
 30
0.0
 10
13.90000057220459
 20
40.29999639892594
 30
0.0
 10
13.90000057220459
 20
40.29999639892594
 30
0.0
 10
13.20000076293945
 20
42.79999639892594
 30
0.0
 10
13.20000076293945
 20
42.79999639892594
 30
0.0
 10
13.20000076293945
 20
42.79999639892594
 30
0.0
 10
10.60000038146973
 20
43.49999334716813
 30
0.0
 10
10.60000038146973
 20
43.49999334716813
 30
0.0
 10
10.60000038146973
 20
43.49999334716813
 30
0.0
 10
14.19999980926514
 20
44.19999792480485
 30
0.0
 10
14.19999980926514
 20
44.19999792480485
 30
0.0
  0
SPLINE
  5
141
330
1F
100
AcDbEntity
  8
LAYER_1
 62
   178
100
AcDbSpline
210
0.0
220
0.0
230
1.0
 70
    11
 71
     3
 72
    20
 73
    16
 74
     0
 42
0.0000000001
 43
0.0000000001
 12
1.0
 22
0.0
 32
0.0
 13
1.0
 23
0.0
 33
0.0
 40
0.0
 40
0.0
 40
0.0
 40
0.0
 40
1.0
 40
1.0
 40
1.0
 40
2.0
 40
2.0
 40
2.0
 40
3.0
 40
3.0
 40
3.0
 40
4.0
 40
4.0
 40
4.0
 40
5.0
 40
5.0
 40
5.0
 40
5.0
 10
15.69999980926514
 20
43.39999487304704
 30
0.0
 10
15.69999980926514
 20
43.39999487304704
 30
0.0
 10
16.5
 20
43.39999487304704
 30
0.0
 10
16.5
 20
43.39999487304704
 30
0.0
 10
16.5
 20
43.39999487304704
 30
0.0
 10
19.10000038146973
 20
40.79999639892594
 30
0.0
 10
19.10000038146973
 20
40.79999639892594
 30
0.0
 10
19.10000038146973
 20
40.79999639892594
 30
0.0
 10
16.60000038146973
 20
41.49999334716813
 30
0.0
 10
16.60000038146973
 20
41.49999334716813
 30
0.0
 10
16.60000038146973
 20
41.49999334716813
 30
0.0
 10
14.70000076293945
 20
39.59999182128922
 30
0.0
 10
14.70000076293945
 20
39.59999182128922
 30
0.0
 10
15.0
 20
41.00000097656266
 30
0.0
 10
15.39999961853027
 20
42.19999792480485
 30
0.0
 10
15.69999980926514
 20
43.39999487304704
 30
0.0
  0
POLYLINE
  5
142
330
1F
100
AcDbEntity
  8
LAYER_1
 62
   178
100
AcDb2dPolyline
 66
     1
 10
0.0
 20
0.0
 30
0.0
  0
VERTEX
  5
143
330
142
100
AcDbEntity
  8
LAYER_1
 62
   178
100
AcDbVertex
100
AcDb2dVertex
 10
30.39999961853027
 20
35.99999334716813
 30
0.0
  0
VERTEX
  5
144
330
142
100
AcDbEntity
  8
LAYER_1
 62
   178
100
AcDbVertex
100
AcDb2dVertex
 10
30.39999961853027
 20
37.09999945068375
 30
0.0
  0
VERTEX
  5
145
330
142
100
AcDbEntity
  8
LAYER_1
 62
   178
100
AcDbVertex
100
AcDb2dVertex
 10
31.29999923706055
 20
36.40000250244157
 30
0.0
  0
VERTEX
  5
146
330
142
100
AcDbEntity
  8
LAYER_1
 62
   178
100
AcDbVertex
100
AcDb2dVertex
 10
32.39999771118164
 20
36.70000555419938
 30
0.0
  0
VERTEX
  5
147
330
142
100
AcDbEntity
  8
LAYER_1
 62
   178
100
AcDbVertex
100
AcDb2dVertex
 10
32.09999847412109
 20
35.40000250244157
 30
0.0
  0
VERTEX
  5
148
330
142
100
AcDbEntity
  8
LAYER_1
 62
   178
100
AcDbVertex
100
AcDb2dVertex
 10
32.69999694824219
 20
34.50000097656266
 30
0.0
  0
VERTEX
  5
149
330
142
100
AcDbEntity
  8
LAYER_1
 62
   178
100
AcDbVertex
100
AcDb2dVertex
 10
31.5
 20
34.50000097656266
 30
0.0
  0
VERTEX
  5
14A
330
142
100
AcDbEntity
  8
LAYER_1
 62
   178
100
AcDbVertex
100
AcDb2dVertex
 10
30.79999923706055
 20
33.69999792480485
 30
0.0
  0
VERTEX
  5
14B
330
142
100
AcDbEntity
  8
LAYER_1
 62
   178
100
AcDbVertex
100
AcDb2dVertex
 10
30.39999961853027
 20
34.79999639892594
 30
0.0
  0
VERTEX
  5
14C
330
142
100
AcDbEntity
  8
LAYER_1
 62
   178
100
AcDbVertex
100
AcDb2dVertex
 10
29.39999961853027
 20
35.29999639892594
 30
0.0
  0
VERTEX
  5
14D
330
142
100
AcDbEntity
  8
LAYER_1
 62
   178
100
AcDbVertex
100
AcDb2dVertex
 10
30.39999961853027
 20
35.99999334716813
 30
0.0
  0
SEQEND
  5
14E
330
142
100
AcDbEntity
  8
LAYER_1
 62
   178
  0
POLYLINE
  5
14F
330
1F
100
AcDbEntity
  8
LAYER_1
 62
   178
100
AcDb2dPolyline
 66
     1
 10
0.0
 20
0.0
 30
0.0
  0
VERTEX
  5
150
330
14F
100
AcDbEntity
  8
LAYER_1
 62
   178
100
AcDbVertex
100
AcDb2dVertex
 10
31.39999961853027
 20
26.59999182128922
 30
0.0
  0
VERTEX
  5
151
330
14F
100
AcDbEntity
  8
LAYER_1
 62
   178
100
AcDbVertex
100
AcDb2dVertex
 10
30.20000076293945
 20
26.59999182128922
 30
0.0
  0
VERTEX
  5
152
330
14F
100
AcDbEntity
  8
LAYER_1
 62
   178
100
AcDbVertex
100
AcDb2dVertex
 10
29.60000038146973
 20
25.89999487304704
 30
0.0
  0
VERTEX
  5
153
330
14F
100
AcDbEntity
  8
LAYER_1
 62
   178
100
AcDbVertex
100
AcDb2dVertex
 10
29.20000076293945
 20
26.89999487304704
 30
0.0
  0
VERTEX
  5
154
330
14F
100
AcDbEntity
  8
LAYER_1
 62
   178
100
AcDbVertex
100
AcDb2dVertex
 10
28.20000076293945
 20
27.39999487304704
 30
0.0
  0
VERTEX
  5
155
330
14F
100
AcDbEntity
  8
LAYER_1
 62
   178
100
AcDbVertex
100
AcDb2dVertex
 10
29.20000076293945
 20
27.89999487304704
 30
0.0
  0
VERTEX
  5
156
330
14F
100
AcDbEntity
  8
LAYER_1
 62
   178
100
AcDbVertex
100
AcDb2dVertex
 10
29.20000076293945
 20
28.89999487304704
 30
0.0
  0
VERTEX
  5
157
330
14F
100
AcDbEntity
  8
LAYER_1
 62
   178
100
AcDbVertex
100
AcDb2dVertex
 10
30.0
 20
28.29999639892594
 30
0.0
  0
VERTEX
  5
158
330
14F
100
AcDbEntity
  8
LAYER_1
 62
   178
100
AcDbVertex
100
AcDb2dVertex
 10
31.0
 20
28.59999945068375
 30
0.0
  0
VERTEX
  5
159
330
14F
100
AcDbEntity
  8
LAYER_1
 62
   178
100
AcDbVertex
100
AcDb2dVertex
 10
30.70000076293945
 20
27.40000250244157
 30
0.0
  0
VERTEX
  5
15A
330
14F
100
AcDbEntity
  8
LAYER_1
 62
   178
100
AcDbVertex
100
AcDb2dVertex
 10
31.39999961853027
 20
26.59999182128922
 30
0.0
  0
SEQEND
  5
15B
330
14F
100
AcDbEntity
  8
LAYER_1
 62
   178
  0
POLYLINE
  5
15C
330
1F
100
AcDbEntity
  8
LAYER_1
 62
   178
100
AcDb2dPolyline
 66
     1
 10
0.0
 20
0.0
 30
0.0
  0
VERTEX
  5
15D
330
15C
100
AcDbEntity
  8
LAYER_1
 62
   178
100
AcDbVertex
100
AcDb2dVertex
 10
30.89999961853027
 20
25.09999182128922
 30
0.0
  0
VERTEX
  5
15E
330
15C
100
AcDbEntity
  8
LAYER_1
 62
   178
100
AcDbVertex
100
AcDb2dVertex
 10
32.0
 20
25.09999182128922
 30
0.0
  0
VERTEX
  5
15F
330
15C
100
AcDbEntity
  8
LAYER_1
 62
   178
100
AcDbVertex
100
AcDb2dVertex
 10
29.79999923706055
 20
23.79998876953141
 30
0.0
  0
VERTEX
  5
160
330
15C
100
AcDbEntity
  8
LAYER_1
 62
   178
100
AcDbVertex
100
AcDb2dVertex
 10
30.89999961853027
 20
25.09999182128922
 30
0.0
  0
SEQEND
  5
161
330
15C
100
AcDbEntity
  8
LAYER_1
 62
   178
  0
POLYLINE
  5
162
330
1F
100
AcDbEntity
  8
LAYER_1
 62
   178
100
AcDb2dPolyline
 66
     1
 10
0.0
 20
0.0
 30
0.0
  0
VERTEX
  5
163
330
162
100
AcDbEntity
  8
LAYER_1
 62
   178
100
AcDbVertex
100
AcDb2dVertex
 10
46.5
 20
53.00000097656266
 30
0.0
  0
VERTEX
  5
164
330
162
100
AcDbEntity
  8
LAYER_1
 62
   178
100
AcDbVertex
100
AcDb2dVertex
 10
45.5
 20
53.50000097656266
 30
0.0
  0
VERTEX
  5
165
330
162
100
AcDbEntity
  8
LAYER_1
 62
   178
100
AcDbVertex
100
AcDb2dVertex
 10
45.20000076293945
 20
45.09999945068375
 30
0.0
  0
VERTEX
  5
166
330
162
100
AcDbEntity
  8
LAYER_1
 62
   178
100
AcDbVertex
100
AcDb2dVertex
 10
42.10000228881836
 20
43.00000097656266
 30
0.0
  0
VERTEX
  5
167
330
162
100
AcDbEntity
  8
LAYER_1
 62
   178
100
AcDbVertex
100
AcDb2dVertex
 10
38.90000152587891
 20
47.80000402832047
 30
0.0
  0
VERTEX
  5
168
330
162
100
AcDbEntity
  8
LAYER_1
 62
   178
100
AcDbVertex
100
AcDb2dVertex
 10
41.10000228881836
 20
53.70000555419938
 30
0.0
  0
VERTEX
  5
169
330
162
100
AcDbEntity
  8
LAYER_1
 62
   178
100
AcDbVertex
100
AcDb2dVertex
 10
36.40000152587891
 20
52.70000555419938
 30
0.0
  0
VERTEX
  5
16A
330
162
100
AcDbEntity
  8
LAYER_1
 62
   178
100
AcDbVertex
100
AcDb2dVertex
 10
38.60000228881836
 20
55.50000860595719
 30
0.0
  0
VERTEX
  5
16B
330
162
100
AcDbEntity
  8
LAYER_1
 62
   178
100
AcDbVertex
100
AcDb2dVertex
 10
44.50000381469727
 20
55.00000860595719
 30
0.0
  0
VERTEX
  5
16C
330
162
100
AcDbEntity
  8
LAYER_1
 62
   178
100
AcDbVertex
100
AcDb2dVertex
 10
46.10000228881836
 20
54.50000860595719
 30
0.0
  0
VERTEX
  5
16D
330
162
100
AcDbEntity
  8
LAYER_1
 62
   178
100
AcDbVertex
100
AcDb2dVertex
 10
46.5
 20
53.00000097656266
 30
0.0
  0
SEQEND
  5
16E
330
162
100
AcDbEntity
  8
LAYER_1
 62
   178
  0
SPLINE
  5
16F
330
1F
100
AcDbEntity
  8
LAYER_1
 62
   178
100
AcDbSpline
210
0.0
220
0.0
230
1.0
 70
    11
 71
     3
 72
    32
 73
    28
 74
     0
 42
0.0000000001
 43
0.0000000001
 12
1.0
 22
0.0
 32
0.0
 13
1.0
 23
0.0
 33
0.0
 40
0.0
 40
0.0
 40
0.0
 40
0.0
 40
1.0
 40
1.0
 40
1.0
 40
2.0
 40
2.0
 40
2.0
 40
3.0
 40
3.0
 40
3.0
 40
4.0
 40
4.0
 40
4.0
 40
5.0
 40
5.0
 40
5.0
 40
6.0
 40
6.0
 40
6.0
 40
7.0
 40
7.0
 40
7.0
 40
8.0
 40
8.0
 40
8.0
 40
9.0
 40
9.0
 40
9.0
 40
9.0
 10
40.0
 20
93.29999639892594
 30
0.0
 10
40.0
 20
93.29999639892594
 30
0.0
 10
40.0
 20
93.29999639892594
 30
0.0
 10
40.0
 20
93.29999639892594
 30
0.0
 10
39.94477081298828
 20
93.29999639892594
 30
0.0
 10
39.90000152587891
 20
93.25522711181657
 30
0.0
 10
39.90000152587891
 20
93.19999792480485
 30
0.0
 10
39.90000152587891
 20
93.19999792480485
 30
0.0
 10
39.80000305175781
 20
93.19999792480485
 30
0.0
 10
39.80000305175781
 20
93.19999792480485
 30
0.0
 10
39.80000305175781
 20
93.19999792480485
 30
0.0
 10
39.10000228881836
 20
92.19999792480485
 30
0.0
 10
39.10000228881836
 20
92.19999792480485
 30
0.0
 10
36.97610473632812
 20
91.80630209350602
 30
0.0
 10
34.87343215942383
 20
91.30566503906266
 30
0.0
 10
32.80000305175781
 20
90.69999792480485
 30
0.0
 10
32.80000305175781
 20
90.69999792480485
 30
0.0
 10
32.80000305175781
 20
90.9999971618654
 30
0.0
 10
32.80000305175781
 20
90.9999971618654
 30
0.0
 10
32.80000305175781
 20
90.9999971618654
 30
0.0
 10
33.40000152587891
 20
91.8999986877443
 30
0.0
 10
33.40000152587891
 20
91.8999986877443
 30
0.0
 10
33.40000152587891
 20
91.8999986877443
 30
0.0
 10
42.70000076293945
 20
99.19999792480485
 30
0.0
 10
42.70000076293945
 20
99.19999792480485
 30
0.0
 10
42.06779098510742
 20
97.12147619628922
 30
0.0
 10
41.15969848632812
 20
95.13712408447282
 30
0.0
 10
40.0
 20
93.29999639892594
 30
0.0
  0
SPLINE
  5
170
330
1F
100
AcDbEntity
  8
LAYER_1
 62
   178
100
AcDbSpline
210
0.0
220
0.0
230
1.0
 70
    11
 71
     3
 72
    14
 73
    10
 74
     0
 42
0.0000000001
 43
0.0000000001
 12
1.0
 22
0.0
 32
0.0
 13
1.0
 23
0.0
 33
0.0
 40
0.0
 40
0.0
 40
0.0
 40
0.0
 40
1.0
 40
1.0
 40
1.0
 40
2.0
 40
2.0
 40
2.0
 40
3.0
 40
3.0
 40
3.0
 40
3.0
 10
21.79999923706055
 20
117.6999979248048
 30
0.0
 10
20.39999961853027
 20
121.39999773407
 30
0.0
 10
22.09999847412109
 20
124.1999979248048
 30
0.0
 10
25.79999923706055
 20
122.7999978294374
 30
0.0
 10
31.21642875671387
 20
120.5126300086977
 30
0.0
 10
35.37505340576172
 20
115.9892130126955
 30
0.0
 10
37.20000076293945
 20
110.39999773407
 30
0.0
 10
31.38358688354492
 20
111.0030679931642
 30
0.0
 10
25.94893455505371
 20
113.5792350997926
 30
0.0
 10
21.79999923706055
 20
117.6999979248048
 30
0.0
  0
SPLINE
  5
171
330
1F
100
AcDbEntity
  8
LAYER_1
 62
   178
100
AcDbSpline
210
0.0
220
0.0
230
1.0
 70
    11
 71
     3
 72
   155
 73
   151
 74
     0
 42
0.0000000001
 43
0.0000000001
 12
1.0
 22
0.0
 32
0.0
 13
1.0
 23
0.0
 33
0.0
 40
0.0
 40
0.0
 40
0.0
 40
0.0
 40
1.0
 40
1.0
 40
1.0
 40
2.0
 40
2.0
 40
2.0
 40
3.0
 40
3.0
 40
3.0
 40
4.0
 40
4.0
 40
4.0
 40
5.0
 40
5.0
 40
5.0
 40
6.0
 40
6.0
 40
6.0
 40
7.0
 40
7.0
 40
7.0
 40
8.0
 40
8.0
 40
8.0
 40
9.0
 40
9.0
 40
9.0
 40
10.0
 40
10.0
 40
10.0
 40
11.0
 40
11.0
 40
11.0
 40
12.0
 40
12.0
 40
12.0
 40
13.0
 40
13.0
 40
13.0
 40
14.0
 40
14.0
 40
14.0
 40
15.0
 40
15.0
 40
15.0
 40
16.0
 40
16.0
 40
16.0
 40
17.0
 40
17.0
 40
17.0
 40
18.0
 40
18.0
 40
18.0
 40
19.0
 40
19.0
 40
19.0
 40
20.0
 40
20.0
 40
20.0
 40
21.0
 40
21.0
 40
21.0
 40
22.0
 40
22.0
 40
22.0
 40
23.0
 40
23.0
 40
23.0
 40
24.0
 40
24.0
 40
24.0
 40
25.0
 40
25.0
 40
25.0
 40
26.0
 40
26.0
 40
26.0
 40
27.0
 40
27.0
 40
27.0
 40
28.0
 40
28.0
 40
28.0
 40
29.0
 40
29.0
 40
29.0
 40
30.0
 40
30.0
 40
30.0
 40
31.0
 40
31.0
 40
31.0
 40
32.0
 40
32.0
 40
32.0
 40
33.0
 40
33.0
 40
33.0
 40
34.0
 40
34.0
 40
34.0
 40
35.0
 40
35.0
 40
35.0
 40
36.0
 40
36.0
 40
36.0
 40
37.0
 40
37.0
 40
37.0
 40
38.0
 40
38.0
 40
38.0
 40
39.0
 40
39.0
 40
39.0
 40
40.0
 40
40.0
 40
40.0
 40
41.0
 40
41.0
 40
41.0
 40
42.0
 40
42.0
 40
42.0
 40
43.0
 40
43.0
 40
43.0
 40
44.0
 40
44.0
 40
44.0
 40
45.0
 40
45.0
 40
45.0
 40
46.0
 40
46.0
 40
46.0
 40
47.0
 40
47.0
 40
47.0
 40
48.0
 40
48.0
 40
48.0
 40
49.0
 40
49.0
 40
49.0
 40
50.0
 40
50.0
 40
50.0
 40
50.0
 10
21.0
 20
77.8999986877443
 30
0.0
 10
21.0
 20
77.8999986877443
 30
0.0
 10
23.89999961853027
 20
76.8000002136232
 30
0.0
 10
23.89999961853027
 20
76.8000002136232
 30
0.0
 10
23.89999961853027
 20
76.8000002136232
 30
0.0
 10
24.5
 20
74.70000173950211
 30
0.0
 10
24.5
 20
74.70000173950211
 30
0.0
 10
24.5
 20
74.70000173950211
 30
0.0
 10
24.5
 20
69.40000250244157
 30
0.0
 10
24.5
 20
69.40000250244157
 30
0.0
 10
24.5
 20
69.40000250244157
 30
0.0
 10
20.79999923706055
 20
66.90000250244157
 30
0.0
 10
20.79999923706055
 20
66.90000250244157
 30
0.0
 10
20.79999923706055
 20
66.90000250244157
 30
0.0
 10
24.79999923706055
 20
65.19999792480485
 30
0.0
 10
24.79999923706055
 20
65.19999792480485
 30
0.0
 10
24.79999923706055
 20
65.19999792480485
 30
0.0
 10
26.09999847412109
 20
61.09999945068375
 30
0.0
 10
26.09999847412109
 20
61.09999945068375
 30
0.0
 10
26.09999847412109
 20
61.09999945068375
 30
0.0
 10
28.59999847412109
 20
64.3000002136232
 30
0.0
 10
28.59999847412109
 20
64.3000002136232
 30
0.0
 10
28.59999847412109
 20
64.3000002136232
 30
0.0
 10
32.09999847412109
 20
64.00000097656266
 30
0.0
 10
32.09999847412109
 20
64.00000097656266
 30
0.0
 10
32.09999847412109
 20
64.00000097656266
 30
0.0
 10
32.09999847412109
 20
63.09999945068375
 30
0.0
 10
32.09999847412109
 20
63.09999945068375
 30
0.0
 10
32.09999847412109
 20
63.09999945068375
 30
0.0
 10
26.69999885559082
 20
59.59999945068375
 30
0.0
 10
26.69999885559082
 20
59.59999945068375
 30
0.0
 10
26.69999885559082
 20
59.59999945068375
 30
0.0
 10
28.49999809265137
 20
58.50000097656266
 30
0.0
 10
28.49999809265137
 20
58.50000097656266
 30
0.0
 10
28.49999809265137
 20
58.50000097656266
 30
0.0
 10
27.29999732971191
 20
58.19999792480485
 30
0.0
 10
27.29999732971191
 20
58.19999792480485
 30
0.0
 10
27.29999732971191
 20
58.19999792480485
 30
0.0
 10
24.79999732971191
 20
60.19999792480485
 30
0.0
 10
24.79999732971191
 20
60.19999792480485
 30
0.0
 10
24.79999732971191
 20
60.19999792480485
 30
0.0
 10
24.49999809265137
 20
57.09999945068375
 30
0.0
 10
24.49999809265137
 20
57.09999945068375
 30
0.0
 10
24.49999809265137
 20
57.09999945068375
 30
0.0
 10
21.99999809265137
 20
55.40000250244157
 30
0.0
 10
21.99999809265137
 20
55.40000250244157
 30
0.0
 10
21.99999809265137
 20
55.40000250244157
 30
0.0
 10
22.69999885559082
 20
55.00000097656266
 30
0.0
 10
22.69999885559082
 20
55.00000097656266
 30
0.0
 10
22.69999885559082
 20
55.00000097656266
 30
0.0
 10
18.69999885559082
 20
53.90000250244157
 30
0.0
 10
18.69999885559082
 20
53.90000250244157
 30
0.0
 10
18.69999885559082
 20
53.90000250244157
 30
0.0
 10
19.09999847412109
 20
55.40000250244157
 30
0.0
 10
19.09999847412109
 20
55.40000250244157
 30
0.0
 10
19.09999847412109
 20
55.40000250244157
 30
0.0
 10
21.59999847412109
 20
56.09999945068375
 30
0.0
 10
21.59999847412109
 20
56.09999945068375
 30
0.0
 10
21.59999847412109
 20
56.09999945068375
 30
0.0
 10
21.99999809265137
 20
57.40000250244157
 30
0.0
 10
21.99999809265137
 20
57.40000250244157
 30
0.0
 10
21.99999809265137
 20
57.40000250244157
 30
0.0
 10
19.39999771118164
 20
56.70000555419938
 30
0.0
 10
19.39999771118164
 20
56.70000555419938
 30
0.0
 10
19.39999771118164
 20
56.70000555419938
 30
0.0
 10
19.79999732971191
 20
58.20000555419938
 30
0.0
 10
19.79999732971191
 20
58.20000555419938
 30
0.0
 10
19.79999732971191
 20
58.20000555419938
 30
0.0
 10
18.69999694824219
 20
58.50000860595719
 30
0.0
 10
18.69999694824219
 20
58.50000860595719
 30
0.0
 10
18.69999694824219
 20
58.50000860595719
 30
0.0
 10
18.29999732971191
 20
57.00000860595719
 30
0.0
 10
18.29999732971191
 20
57.00000860595719
 30
0.0
 10
18.29999732971191
 20
57.00000860595719
 30
0.0
 10
16.39999771118164
 20
58.800011657715
 30
0.0
 10
16.39999771118164
 20
58.800011657715
 30
0.0
 10
16.39999771118164
 20
58.800011657715
 30
0.0
 10
16.0
 20
57.59999945068375
 30
0.0
 10
16.0
 20
57.59999945068375
 30
0.0
 10
16.0
 20
57.59999945068375
 30
0.0
 10
17.89999961853027
 20
55.69999792480485
 30
0.0
 10
17.89999961853027
 20
55.69999792480485
 30
0.0
 10
17.89999961853027
 20
55.69999792480485
 30
0.0
 10
17.5
 20
54.19999792480485
 30
0.0
 10
17.5
 20
54.19999792480485
 30
0.0
 10
17.5
 20
54.19999792480485
 30
0.0
 10
14.19999980926514
 20
57.39999487304704
 30
0.0
 10
14.19999980926514
 20
57.39999487304704
 30
0.0
 10
14.19999980926514
 20
57.39999487304704
 30
0.0
 10
13.89999961853027
 20
56.19999792480485
 30
0.0
 10
13.89999961853027
 20
56.19999792480485
 30
0.0
 10
13.89999961853027
 20
56.19999792480485
 30
0.0
 10
16.69999885559082
 20
53.39999487304704
 30
0.0
 10
16.69999885559082
 20
53.39999487304704
 30
0.0
 10
16.69999885559082
 20
53.39999487304704
 30
0.0
 10
14.29999923706055
 20
52.69999792480485
 30
0.0
 10
14.29999923706055
 20
52.69999792480485
 30
0.0
 10
14.29999923706055
 20
52.69999792480485
 30
0.0
 10
15.19999885559082
 20
51.79999639892594
 30
0.0
 10
15.19999885559082
 20
51.79999639892594
 30
0.0
 10
15.19999885559082
 20
51.79999639892594
 30
0.0
 10
16.49999809265137
 20
52.19999792480485
 30
0.0
 10
16.49999809265137
 20
52.19999792480485
 30
0.0
 10
16.49999809265137
 20
52.19999792480485
 30
0.0
 10
16.19999885559082
 20
51.00000097656266
 30
0.0
 10
16.19999885559082
 20
51.00000097656266
 30
0.0
 10
16.19999885559082
 20
51.00000097656266
 30
0.0
 10
14.19999885559082
 20
50.50000097656266
 30
0.0
 10
14.19999885559082
 20
50.50000097656266
 30
0.0
 10
14.19999885559082
 20
50.50000097656266
 30
0.0
 10
12.19999885559082
 20
49.90000250244157
 30
0.0
 10
12.19999885559082
 20
49.90000250244157
 30
0.0
 10
12.19999885559082
 20
49.90000250244157
 30
0.0
 10
11.29999923706055
 20
50.70000555419938
 30
0.0
 10
11.29999923706055
 20
50.70000555419938
 30
0.0
 10
11.29999923706055
 20
50.70000555419938
 30
0.0
 10
12.69999885559082
 20
51.10000708007829
 30
0.0
 10
12.69999885559082
 20
51.10000708007829
 30
0.0
 10
12.69999885559082
 20
51.10000708007829
 30
0.0
 10
12.99999904632568
 20
52.4000101318361
 30
0.0
 10
12.99999904632568
 20
52.4000101318361
 30
0.0
 10
12.99999904632568
 20
52.4000101318361
 30
0.0
 10
10.59999847412109
 20
51.70001318359391
 30
0.0
 10
10.59999847412109
 20
51.70001318359391
 30
0.0
 10
10.59999847412109
 20
51.70001318359391
 30
0.0
 10
11.59999847412109
 20
55.50001623535172
 30
0.0
 10
11.59999847412109
 20
55.50001623535172
 30
0.0
 10
11.59999847412109
 20
55.50001623535172
 30
0.0
 10
10.69999885559082
 20
56.50001623535172
 30
0.0
 10
10.69999885559082
 20
56.50001623535172
 30
0.0
 10
10.69999885559082
 20
56.50001623535172
 30
0.0
 10
9.5
 20
52.00000097656266
 30
0.0
 10
9.5
 20
52.00000097656266
 30
0.0
 10
9.5
 20
52.00000097656266
 30
0.0
 10
8.399999618530273
 20
53.09999945068375
 30
0.0
 10
8.399999618530273
 20
53.09999945068375
 30
0.0
 10
8.399999618530273
 20
53.09999945068375
 30
0.0
 10
9.09999942779541
 20
55.69999792480485
 30
0.0
 10
9.09999942779541
 20
55.69999792480485
 30
0.0
 10
9.09999942779541
 20
55.69999792480485
 30
0.0
 10
8.09999942779541
 20
56.59999945068375
 30
0.0
 10
8.09999942779541
 20
56.59999945068375
 30
0.0
 10
8.09999942779541
 20
56.59999945068375
 30
0.0
 10
7.499999523162842
 20
54.00000097656266
 30
0.0
 10
7.499999523162842
 20
54.00000097656266
 30
0.0
 10
7.499999523162842
 20
54.00000097656266
 30
0.0
 10
6.699999332427979
 20
54.80000402832047
 30
0.0
 10
6.699999332427979
 20
54.80000402832047
 30
0.0
 10
8.664820671081543
 20
63.91679479980485
 30
0.0
 10
13.71584129333496
 20
72.07613088989274
 30
0.0
 10
21.0
 20
77.8999986877443
 30
0.0
  0
SPLINE
  5
172
330
1F
100
AcDbEntity
  8
LAYER_1
 62
   178
100
AcDbSpline
210
0.0
220
0.0
230
1.0
 70
    11
 71
     3
 72
    17
 73
    13
 74
     0
 42
0.0000000001
 43
0.0000000001
 12
1.0
 22
0.0
 32
0.0
 13
1.0
 23
0.0
 33
0.0
 40
0.0
 40
0.0
 40
0.0
 40
0.0
 40
1.0
 40
1.0
 40
1.0
 40
2.0
 40
2.0
 40
2.0
 40
3.0
 40
3.0
 40
3.0
 40
4.0
 40
4.0
 40
4.0
 40
4.0
 10
6.300000190734863
 20
52.00000097656266
 30
0.0
 10
6.300000190734863
 20
52.00000097656266
 30
0.0
 10
7.600000381469727
 20
52.30000402832047
 30
0.0
 10
7.600000381469727
 20
52.30000402832047
 30
0.0
 10
7.600000381469727
 20
52.30000402832047
 30
0.0
 10
8.699999809265137
 20
51.19999792480485
 30
0.0
 10
8.699999809265137
 20
51.19999792480485
 30
0.0
 10
8.699999809265137
 20
51.19999792480485
 30
0.0
 10
6.099999904632568
 20
50.50000097656266
 30
0.0
 10
6.099999904632568
 20
50.50000097656266
 30
0.0
 10
6.117253303527832
 20
51.0053568115236
 30
0.0
 10
6.184243679046631
 20
51.50778295898454
 30
0.0
 10
6.300000190734863
 20
52.00000097656266
 30
0.0
  0
SPLINE
  5
173
330
1F
100
AcDbEntity
  8
LAYER_1
 62
   178
100
AcDbSpline
210
0.0
220
0.0
230
1.0
 70
    11
 71
     3
 72
    44
 73
    40
 74
     0
 42
0.0000000001
 43
0.0000000001
 12
1.0
 22
0.0
 32
0.0
 13
1.0
 23
0.0
 33
0.0
 40
0.0
 40
0.0
 40
0.0
 40
0.0
 40
1.0
 40
1.0
 40
1.0
 40
2.0
 40
2.0
 40
2.0
 40
3.0
 40
3.0
 40
3.0
 40
4.0
 40
4.0
 40
4.0
 40
5.0
 40
5.0
 40
5.0
 40
6.0
 40
6.0
 40
6.0
 40
7.0
 40
7.0
 40
7.0
 40
8.0
 40
8.0
 40
8.0
 40
9.0
 40
9.0
 40
9.0
 40
10.0
 40
10.0
 40
10.0
 40
11.0
 40
11.0
 40
11.0
 40
12.0
 40
12.0
 40
12.0
 40
13.0
 40
13.0
 40
13.0
 40
13.0
 10
5.900000095367432
 20
46.40000250244157
 30
0.0
 10
5.88336706161499
 20
47.36774542236344
 30
0.0
 10
5.916745185852051
 20
48.33570196533219
 30
0.0
 10
6.0
 20
49.29999639892594
 30
0.0
 10
6.0
 20
49.29999639892594
 30
0.0
 10
9.0
 20
50.09999945068375
 30
0.0
 10
9.0
 20
50.09999945068375
 30
0.0
 10
9.0
 20
50.09999945068375
 30
0.0
 10
8.300000190734863
 20
47.69999792480485
 30
0.0
 10
8.300000190734863
 20
47.69999792480485
 30
0.0
 10
8.300000190734863
 20
47.69999792480485
 30
0.0
 10
9.600000381469727
 20
48.00000097656266
 30
0.0
 10
9.600000381469727
 20
48.00000097656266
 30
0.0
 10
9.704632759094238
 20
48.47439672851579
 30
0.0
 10
9.838214874267578
 20
48.94194128417985
 30
0.0
 10
10.0
 20
49.40000250244157
 30
0.0
 10
10.0
 20
49.40000250244157
 30
0.0
 10
10.80000019073486
 20
48.59999945068375
 30
0.0
 10
10.80000019073486
 20
48.59999945068375
 30
0.0
 10
10.80000019073486
 20
48.59999945068375
 30
0.0
 10
9.699999809265137
 20
44.50000097656266
 30
0.0
 10
9.699999809265137
 20
44.50000097656266
 30
0.0
 10
9.699999809265137
 20
44.50000097656266
 30
0.0
 10
8.600000381469727
 20
44.19999792480485
 30
0.0
 10
8.600000381469727
 20
44.19999792480485
 30
0.0
 10
8.706633567810059
 20
44.6410989990236
 30
0.0
 10
8.840217590332031
 20
45.07524969482438
 30
0.0
 10
9.0
 20
45.50000097656266
 30
0.0
 10
9.0
 20
45.50000097656266
 30
0.0
 10
8.0
 20
46.50000097656266
 30
0.0
 10
8.0
 20
46.50000097656266
 30
0.0
 10
8.0
 20
46.50000097656266
 30
0.0
 10
7.400000095367432
 20
44.00000097656266
 30
0.0
 10
7.400000095367432
 20
44.00000097656266
 30
0.0
 10
7.400000095367432
 20
44.00000097656266
 30
0.0
 10
5.900000095367432
 20
45.50000097656266
 30
0.0
 10
5.900000095367432
 20
45.50000097656266
 30
0.0
 10
5.900000095367432
 20
45.50000097656266
 30
0.0
 10
5.900000095367432
 20
46.40000250244157
 30
0.0
 10
5.900000095367432
 20
46.40000250244157
 30
0.0
  0
SPLINE
  5
174
330
1F
100
AcDbEntity
  8
LAYER_1
 62
   178
100
AcDbSpline
210
0.0
220
0.0
230
1.0
 70
    11
 71
     3
 72
    14
 73
    10
 74
     0
 42
0.0000000001
 43
0.0000000001
 12
1.0
 22
0.0
 32
0.0
 13
1.0
 23
0.0
 33
0.0
 40
0.0
 40
0.0
 40
0.0
 40
0.0
 40
1.0
 40
1.0
 40
1.0
 40
2.0
 40
2.0
 40
2.0
 40
3.0
 40
3.0
 40
3.0
 40
3.0
 10
5.900000095367432
 20
43.80000402832047
 30
0.0
 10
5.900000095367432
 20
43.80000402832047
 30
0.0
 10
6.599999904632568
 20
43.20000555419938
 30
0.0
 10
6.599999904632568
 20
43.20000555419938
 30
0.0
 10
6.599999904632568
 20
43.20000555419938
 30
0.0
 10
6.0
 20
43.20000555419938
 30
0.0
 10
6.0
 20
43.20000555419938
 30
0.0
 10
6.003008842468262
 20
43.40438940429704
 30
0.0
 10
5.969133377075195
 20
43.60763647460954
 30
0.0
 10
5.900000095367432
 20
43.80000402832047
 30
0.0
  0
SPLINE
  5
175
330
1F
100
AcDbEntity
  8
LAYER_1
 62
   178
100
AcDbSpline
210
0.0
220
0.0
230
1.0
 70
    11
 71
     3
 72
    14
 73
    10
 74
     0
 42
0.0000000001
 43
0.0000000001
 12
1.0
 22
0.0
 32
0.0
 13
1.0
 23
0.0
 33
0.0
 40
0.0
 40
0.0
 40
0.0
 40
0.0
 40
1.0
 40
1.0
 40
1.0
 40
2.0
 40
2.0
 40
2.0
 40
3.0
 40
3.0
 40
3.0
 40
3.0
 10
6.099999904632568
 20
41.90000250244157
 30
0.0
 10
6.099999904632568
 20
41.90000250244157
 30
0.0
 10
6.900000095367432
 20
42.09999945068375
 30
0.0
 10
6.900000095367432
 20
42.09999945068375
 30
0.0
 10
6.900000095367432
 20
42.09999945068375
 30
0.0
 10
6.300000190734863
 20
40.19999792480485
 30
0.0
 10
6.300000190734863
 20
40.19999792480485
 30
0.0
 10
6.277190685272217
 20
40.77096655273454
 30
0.0
 10
6.210325241088867
 20
41.33931829834
 30
0.0
 10
6.099999904632568
 20
41.90000250244157
 30
0.0
  0
SPLINE
  5
176
330
1F
100
AcDbEntity
  8
LAYER_1
 62
   178
100
AcDbSpline
210
0.0
220
0.0
230
1.0
 70
    11
 71
     3
 72
   194
 73
   190
 74
     0
 42
0.0000000001
 43
0.0000000001
 12
1.0
 22
0.0
 32
0.0
 13
1.0
 23
0.0
 33
0.0
 40
0.0
 40
0.0
 40
0.0
 40
0.0
 40
1.0
 40
1.0
 40
1.0
 40
2.0
 40
2.0
 40
2.0
 40
3.0
 40
3.0
 40
3.0
 40
4.0
 40
4.0
 40
4.0
 40
5.0
 40
5.0
 40
5.0
 40
6.0
 40
6.0
 40
6.0
 40
7.0
 40
7.0
 40
7.0
 40
8.0
 40
8.0
 40
8.0
 40
9.0
 40
9.0
 40
9.0
 40
10.0
 40
10.0
 40
10.0
 40
11.0
 40
11.0
 40
11.0
 40
12.0
 40
12.0
 40
12.0
 40
13.0
 40
13.0
 40
13.0
 40
14.0
 40
14.0
 40
14.0
 40
15.0
 40
15.0
 40
15.0
 40
16.0
 40
16.0
 40
16.0
 40
17.0
 40
17.0
 40
17.0
 40
18.0
 40
18.0
 40
18.0
 40
19.0
 40
19.0
 40
19.0
 40
20.0
 40
20.0
 40
20.0
 40
21.0
 40
21.0
 40
21.0
 40
22.0
 40
22.0
 40
22.0
 40
23.0
 40
23.0
 40
23.0
 40
24.0
 40
24.0
 40
24.0
 40
25.0
 40
25.0
 40
25.0
 40
26.0
 40
26.0
 40
26.0
 40
27.0
 40
27.0
 40
27.0
 40
28.0
 40
28.0
 40
28.0
 40
29.0
 40
29.0
 40
29.0
 40
30.0
 40
30.0
 40
30.0
 40
31.0
 40
31.0
 40
31.0
 40
32.0
 40
32.0
 40
32.0
 40
33.0
 40
33.0
 40
33.0
 40
34.0
 40
34.0
 40
34.0
 40
35.0
 40
35.0
 40
35.0
 40
36.0
 40
36.0
 40
36.0
 40
37.0
 40
37.0
 40
37.0
 40
38.0
 40
38.0
 40
38.0
 40
39.0
 40
39.0
 40
39.0
 40
40.0
 40
40.0
 40
40.0
 40
41.0
 40
41.0
 40
41.0
 40
42.0
 40
42.0
 40
42.0
 40
43.0
 40
43.0
 40
43.0
 40
44.0
 40
44.0
 40
44.0
 40
45.0
 40
45.0
 40
45.0
 40
46.0
 40
46.0
 40
46.0
 40
47.0
 40
47.0
 40
47.0
 40
48.0
 40
48.0
 40
48.0
 40
49.0
 40
49.0
 40
49.0
 40
50.0
 40
50.0
 40
50.0
 40
51.0
 40
51.0
 40
51.0
 40
52.0
 40
52.0
 40
52.0
 40
53.0
 40
53.0
 40
53.0
 40
54.0
 40
54.0
 40
54.0
 40
55.0
 40
55.0
 40
55.0
 40
56.0
 40
56.0
 40
56.0
 40
57.0
 40
57.0
 40
57.0
 40
58.0
 40
58.0
 40
58.0
 40
59.0
 40
59.0
 40
59.0
 40
60.0
 40
60.0
 40
60.0
 40
61.0
 40
61.0
 40
61.0
 40
62.0
 40
62.0
 40
62.0
 40
63.0
 40
63.0
 40
63.0
 40
63.0
 10
30.89999961853027
 20
11.50000097656266
 30
0.0
 10
30.89999961853027
 20
11.50000097656266
 30
0.0
 10
28.60000038146973
 20
10.00000097656266
 30
0.0
 10
28.60000038146973
 20
10.00000097656266
 30
0.0
 10
17.43259429931641
 20
15.53054144287125
 30
0.0
 10
9.37757682800293
 20
25.82919409179704
 30
0.0
 10
6.700000762939453
 20
38.00000097656266
 30
0.0
 10
6.700000762939453
 20
38.00000097656266
 30
0.0
 10
7.0
 20
38.00000097656266
 30
0.0
 10
7.0
 20
38.00000097656266
 30
0.0
 10
7.0
 20
38.00000097656266
 30
0.0
 10
8.0
 20
41.80000402832047
 30
0.0
 10
8.0
 20
41.80000402832047
 30
0.0
 10
8.0
 20
41.80000402832047
 30
0.0
 10
9.800000190734863
 20
40.10000708007829
 30
0.0
 10
9.800000190734863
 20
40.10000708007829
 30
0.0
 10
9.800000190734863
 20
40.10000708007829
 30
0.0
 10
10.10000038146973
 20
41.30000402832047
 30
0.0
 10
10.10000038146973
 20
41.30000402832047
 30
0.0
 10
10.10000038146973
 20
41.30000402832047
 30
0.0
 10
9.100000381469727
 20
42.30000402832047
 30
0.0
 10
9.100000381469727
 20
42.30000402832047
 30
0.0
 10
9.100000381469727
 20
42.30000402832047
 30
0.0
 10
10.20000076293945
 20
42.60000708007829
 30
0.0
 10
10.20000076293945
 20
42.60000708007829
 30
0.0
 10
10.20000076293945
 20
42.60000708007829
 30
0.0
 10
11.70000076293945
 20
41.10000708007829
 30
0.0
 10
11.70000076293945
 20
41.10000708007829
 30
0.0
 10
11.70000076293945
 20
41.10000708007829
 30
0.0
 10
13.20000076293945
 20
39.70000555419938
 30
0.0
 10
13.20000076293945
 20
39.70000555419938
 30
0.0
 10
13.20000076293945
 20
39.70000555419938
 30
0.0
 10
12.90000057220459
 20
38.50000860595719
 30
0.0
 10
12.90000057220459
 20
38.50000860595719
 30
0.0
 10
12.90000057220459
 20
38.50000860595719
 30
0.0
 10
11.90000057220459
 20
39.50000860595719
 30
0.0
 10
11.90000057220459
 20
39.50000860595719
 30
0.0
 10
11.90000057220459
 20
39.50000860595719
 30
0.0
 10
10.70000076293945
 20
39.20000555419938
 30
0.0
 10
10.70000076293945
 20
39.20000555419938
 30
0.0
 10
10.70000076293945
 20
39.20000555419938
 30
0.0
 10
12.40000057220459
 20
37.40000250244157
 30
0.0
 10
12.40000057220459
 20
37.40000250244157
 30
0.0
 10
12.40000057220459
 20
37.40000250244157
 30
0.0
 10
8.600000381469727
 20
36.40000250244157
 30
0.0
 10
8.600000381469727
 20
36.40000250244157
 30
0.0
 10
8.600000381469727
 20
36.40000250244157
 30
0.0
 10
8.300000190734863
 20
35.09999945068375
 30
0.0
 10
8.300000190734863
 20
35.09999945068375
 30
0.0
 10
8.300000190734863
 20
35.09999945068375
 30
0.0
 10
12.70000076293945
 20
36.29999639892594
 30
0.0
 10
12.70000076293945
 20
36.29999639892594
 30
0.0
 10
12.70000076293945
 20
36.29999639892594
 30
0.0
 10
12.30000114440918
 20
34.79999639892594
 30
0.0
 10
12.30000114440918
 20
34.79999639892594
 30
0.0
 10
12.30000114440918
 20
34.79999639892594
 30
0.0
 10
9.80000114440918
 20
34.09999945068375
 30
0.0
 10
9.80000114440918
 20
34.09999945068375
 30
0.0
 10
9.80000114440918
 20
34.09999945068375
 30
0.0
 10
9.400001525878906
 20
32.79999639892594
 30
0.0
 10
9.400001525878906
 20
32.79999639892594
 30
0.0
 10
9.400001525878906
 20
32.79999639892594
 30
0.0
 10
12.00000190734863
 20
33.49999334716813
 30
0.0
 10
12.00000190734863
 20
33.49999334716813
 30
0.0
 10
12.00000190734863
 20
33.49999334716813
 30
0.0
 10
11.60000228881836
 20
31.89999487304704
 30
0.0
 10
11.60000228881836
 20
31.89999487304704
 30
0.0
 10
11.60000228881836
 20
31.89999487304704
 30
0.0
 10
12.70000267028809
 20
31.89999487304704
 30
0.0
 10
12.70000267028809
 20
31.89999487304704
 30
0.0
 10
12.70000267028809
 20
31.89999487304704
 30
0.0
 10
13.10000228881836
 20
33.39999487304704
 30
0.0
 10
13.10000228881836
 20
33.39999487304704
 30
0.0
 10
13.10000228881836
 20
33.39999487304704
 30
0.0
 10
15.0
 20
31.39999487304704
 30
0.0
 10
15.0
 20
31.39999487304704
 30
0.0
 10
15.0
 20
31.39999487304704
 30
0.0
 10
15.30000019073486
 20
32.59999182128922
 30
0.0
 10
15.30000019073486
 20
32.59999182128922
 30
0.0
 10
15.30000019073486
 20
32.59999182128922
 30
0.0
 10
13.40000057220459
 20
34.49999334716813
 30
0.0
 10
13.40000057220459
 20
34.49999334716813
 30
0.0
 10
13.40000057220459
 20
34.49999334716813
 30
0.0
 10
13.80000019073486
 20
35.99999334716813
 30
0.0
 10
13.80000019073486
 20
35.99999334716813
 30
0.0
 10
13.80000019073486
 20
35.99999334716813
 30
0.0
 10
17.10000038146973
 20
32.69999029541032
 30
0.0
 10
17.10000038146973
 20
32.69999029541032
 30
0.0
 10
17.10000038146973
 20
32.69999029541032
 30
0.0
 10
17.39999961853027
 20
33.99999334716813
 30
0.0
 10
17.39999961853027
 20
33.99999334716813
 30
0.0
 10
17.39999961853027
 20
33.99999334716813
 30
0.0
 10
14.59999942779541
 20
36.79999639892594
 30
0.0
 10
14.59999942779541
 20
36.79999639892594
 30
0.0
 10
14.59999942779541
 20
36.79999639892594
 30
0.0
 10
17.09999847412109
 20
37.49999334716813
 30
0.0
 10
17.09999847412109
 20
37.49999334716813
 30
0.0
 10
17.09999847412109
 20
37.49999334716813
 30
0.0
 10
16.09999847412109
 20
38.39999487304704
 30
0.0
 10
16.09999847412109
 20
38.39999487304704
 30
0.0
 10
16.09999847412109
 20
38.39999487304704
 30
0.0
 10
14.79999828338623
 20
37.99999334716813
 30
0.0
 10
14.79999828338623
 20
37.99999334716813
 30
0.0
 10
14.79999828338623
 20
37.99999334716813
 30
0.0
 10
15.09999847412109
 20
39.19999029541032
 30
0.0
 10
15.09999847412109
 20
39.19999029541032
 30
0.0
 10
15.09999847412109
 20
39.19999029541032
 30
0.0
 10
17.09999847412109
 20
39.69999029541032
 30
0.0
 10
17.09999847412109
 20
39.69999029541032
 30
0.0
 10
17.09999847412109
 20
39.69999029541032
 30
0.0
 10
19.09999847412109
 20
40.29998876953141
 30
0.0
 10
19.09999847412109
 20
40.29998876953141
 30
0.0
 10
19.09999847412109
 20
40.29998876953141
 30
0.0
 10
19.99999809265137
 20
39.3999872436525
 30
0.0
 10
19.99999809265137
 20
39.3999872436525
 30
0.0
 10
19.99999809265137
 20
39.3999872436525
 30
0.0
 10
18.59999847412109
 20
39.09998419189469
 30
0.0
 10
18.59999847412109
 20
39.09998419189469
 30
0.0
 10
18.59999847412109
 20
39.09998419189469
 30
0.0
 10
18.29999923706055
 20
37.79998114013688
 30
0.0
 10
18.29999923706055
 20
37.79998114013688
 30
0.0
 10
18.29999923706055
 20
37.79998114013688
 30
0.0
 10
20.69999885559082
 20
38.49997808837907
 30
0.0
 10
20.69999885559082
 20
38.49997808837907
 30
0.0
 10
20.69999885559082
 20
38.49997808837907
 30
0.0
 10
19.69999885559082
 20
34.59997656250016
 30
0.0
 10
19.69999885559082
 20
34.59997656250016
 30
0.0
 10
19.69999885559082
 20
34.59997656250016
 30
0.0
 10
20.59999847412109
 20
33.69997503662125
 30
0.0
 10
20.59999847412109
 20
33.69997503662125
 30
0.0
 10
20.59999847412109
 20
33.69997503662125
 30
0.0
 10
21.79999923706055
 20
38.19999792480485
 30
0.0
 10
21.79999923706055
 20
38.19999792480485
 30
0.0
 10
21.79999923706055
 20
38.19999792480485
 30
0.0
 10
22.89999961853027
 20
37.09999945068375
 30
0.0
 10
22.89999961853027
 20
37.09999945068375
 30
0.0
 10
22.89999961853027
 20
37.09999945068375
 30
0.0
 10
22.19999885559082
 20
34.50000097656266
 30
0.0
 10
22.19999885559082
 20
34.50000097656266
 30
0.0
 10
22.19999885559082
 20
34.50000097656266
 30
0.0
 10
23.19999885559082
 20
33.59999945068375
 30
0.0
 10
23.19999885559082
 20
33.59999945068375
 30
0.0
 10
23.19999885559082
 20
33.59999945068375
 30
0.0
 10
23.89999961853027
 20
36.09999945068375
 30
0.0
 10
23.89999961853027
 20
36.09999945068375
 30
0.0
 10
23.89999961853027
 20
36.09999945068375
 30
0.0
 10
25.0
 20
35.00000097656266
 30
0.0
 10
25.0
 20
35.00000097656266
 30
0.0
 10
25.0
 20
35.00000097656266
 30
0.0
 10
25.20000076293945
 20
35.19999792480485
 30
0.0
 10
25.20000076293945
 20
35.19999792480485
 30
0.0
 10
25.20000076293945
 20
35.19999792480485
 30
0.0
 10
28.80000114440918
 20
33.39999487304704
 30
0.0
 10
28.80000114440918
 20
33.39999487304704
 30
0.0
 10
28.80000114440918
 20
33.39999487304704
 30
0.0
 10
29.60000038146973
 20
30.69999792480485
 30
0.0
 10
29.60000038146973
 20
30.69999792480485
 30
0.0
 10
29.60000038146973
 20
30.69999792480485
 30
0.0
 10
28.0
 20
31.89999487304704
 30
0.0
 10
28.0
 20
31.89999487304704
 30
0.0
 10
28.0
 20
31.89999487304704
 30
0.0
 10
27.70000076293945
 20
28.99999334716813
 30
0.0
 10
27.70000076293945
 20
28.99999334716813
 30
0.0
 10
27.70000076293945
 20
28.99999334716813
 30
0.0
 10
25.20000076293945
 20
26.99999334716813
 30
0.0
 10
25.20000076293945
 20
26.99999334716813
 30
0.0
 10
25.20000076293945
 20
26.99999334716813
 30
0.0
 10
28.0
 20
25.79999639892594
 30
0.0
 10
28.0
 20
25.79999639892594
 30
0.0
 10
28.0
 20
25.79999639892594
 30
0.0
 10
28.70000076293945
 20
23.39999487304704
 30
0.0
 10
28.70000076293945
 20
23.39999487304704
 30
0.0
 10
28.70000076293945
 20
23.39999487304704
 30
0.0
 10
26.0
 20
21.29999639892594
 30
0.0
 10
26.0
 20
21.29999639892594
 30
0.0
 10
26.0
 20
21.29999639892594
 30
0.0
 10
35.79999923706055
 20
17.19999792480485
 30
0.0
 10
35.79999923706055
 20
17.19999792480485
 30
0.0
 10
35.79999923706055
 20
17.19999792480485
 30
0.0
 10
36.79999923706055
 20
13.89999487304704
 30
0.0
 10
36.79999923706055
 20
13.89999487304704
 30
0.0
 10
36.79999923706055
 20
13.89999487304704
 30
0.0
 10
34.29999923706055
 20
13.09999182128922
 30
0.0
 10
34.29999923706055
 20
13.09999182128922
 30
0.0
 10
34.29999923706055
 20
13.09999182128922
 30
0.0
 10
31.29999923706055
 20
15.59999182128922
 30
0.0
 10
31.29999923706055
 20
15.59999182128922
 30
0.0
 10
31.29999923706055
 20
15.59999182128922
 30
0.0
 10
30.89999961853027
 20
11.50000097656266
 30
0.0
 10
30.89999961853027
 20
11.50000097656266
 30
0.0
  0
POLYLINE
  5
177
330
1F
100
AcDbEntity
  8
LAYER_1
 62
   178
100
AcDb2dPolyline
 66
     1
 10
0.0
 20
0.0
 30
0.0
  0
VERTEX
  5
178
330
177
100
AcDbEntity
  8
LAYER_1
 62
   178
100
AcDbVertex
100
AcDb2dVertex
 10
34.09999847412109
 20
8.800004028320473
 30
0.0
  0
VERTEX
  5
179
330
177
100
AcDbEntity
  8
LAYER_1
 62
   178
100
AcDbVertex
100
AcDb2dVertex
 10
33.29999923706055
 20
8.00000097656266
 30
0.0
  0
VERTEX
  5
17A
330
177
100
AcDbEntity
  8
LAYER_1
 62
   178
100
AcDbVertex
100
AcDb2dVertex
 10
33.29999923706055
 20
8.00000097656266
 30
0.0
  0
VERTEX
  5
17B
330
177
100
AcDbEntity
  8
LAYER_1
 62
   178
100
AcDbVertex
100
AcDb2dVertex
 10
32.89999771118164
 20
9.199997924804848
 30
0.0
  0
VERTEX
  5
17C
330
177
100
AcDbEntity
  8
LAYER_1
 62
   178
100
AcDbVertex
100
AcDb2dVertex
 10
31.79999732971191
 20
9.699997924804848
 30
0.0
  0
VERTEX
  5
17D
330
177
100
AcDbEntity
  8
LAYER_1
 62
   178
100
AcDbVertex
100
AcDb2dVertex
 10
32.79999542236328
 20
10.39999487304704
 30
0.0
  0
VERTEX
  5
17E
330
177
100
AcDbEntity
  8
LAYER_1
 62
   178
100
AcDbVertex
100
AcDb2dVertex
 10
32.99999618530273
 20
11.49999334716813
 30
0.0
  0
VERTEX
  5
17F
330
177
100
AcDbEntity
  8
LAYER_1
 62
   178
100
AcDbVertex
100
AcDb2dVertex
 10
33.99999618530273
 20
10.79999639892594
 30
0.0
  0
VERTEX
  5
180
330
177
100
AcDbEntity
  8
LAYER_1
 62
   178
100
AcDbVertex
100
AcDb2dVertex
 10
35.19999694824219
 20
11.09999945068375
 30
0.0
  0
VERTEX
  5
181
330
177
100
AcDbEntity
  8
LAYER_1
 62
   178
100
AcDbVertex
100
AcDb2dVertex
 10
34.79999542236328
 20
9.799996398925941
 30
0.0
  0
VERTEX
  5
182
330
177
100
AcDbEntity
  8
LAYER_1
 62
   178
100
AcDbVertex
100
AcDb2dVertex
 10
35.39999389648438
 20
8.699997924804848
 30
0.0
  0
VERTEX
  5
183
330
177
100
AcDbEntity
  8
LAYER_1
 62
   178
100
AcDbVertex
100
AcDb2dVertex
 10
34.09999847412109
 20
8.800004028320473
 30
0.0
  0
SEQEND
  5
184
330
177
100
AcDbEntity
  8
LAYER_1
 62
   178
  0
POLYLINE
  5
185
330
1F
100
AcDbEntity
  8
LAYER_1
 62
   178
100
AcDb2dPolyline
 66
     1
 10
0.0
 20
0.0
 30
0.0
  0
VERTEX
  5
186
330
185
100
AcDbEntity
  8
LAYER_1
 62
   178
100
AcDbVertex
100
AcDb2dVertex
 10
37.29999923706055
 20
11.70000555419938
 30
0.0
  0
VERTEX
  5
187
330
185
100
AcDbEntity
  8
LAYER_1
 62
   178
100
AcDbVertex
100
AcDb2dVertex
 10
38.39999771118164
 20
7.800004028320473
 30
0.0
  0
VERTEX
  5
188
330
185
100
AcDbEntity
  8
LAYER_1
 62
   178
100
AcDbVertex
100
AcDb2dVertex
 10
36.59999847412109
 20
10.40000250244157
 30
0.0
  0
VERTEX
  5
189
330
185
100
AcDbEntity
  8
LAYER_1
 62
   178
100
AcDbVertex
100
AcDb2dVertex
 10
37.29999923706055
 20
11.70000555419938
 30
0.0
  0
SEQEND
  5
18A
330
185
100
AcDbEntity
  8
LAYER_1
 62
   178
  0
SPLINE
  5
18B
330
1F
100
AcDbEntity
  8
LAYER_1
 62
   178
100
AcDbSpline
210
0.0
220
0.0
230
1.0
 70
    11
 71
     3
 72
    92
 73
    88
 74
     0
 42
0.0000000001
 43
0.0000000001
 12
1.0
 22
0.0
 32
0.0
 13
1.0
 23
0.0
 33
0.0
 40
0.0
 40
0.0
 40
0.0
 40
0.0
 40
1.0
 40
1.0
 40
1.0
 40
2.0
 40
2.0
 40
2.0
 40
3.0
 40
3.0
 40
3.0
 40
4.0
 40
4.0
 40
4.0
 40
5.0
 40
5.0
 40
5.0
 40
6.0
 40
6.0
 40
6.0
 40
7.0
 40
7.0
 40
7.0
 40
8.0
 40
8.0
 40
8.0
 40
9.0
 40
9.0
 40
9.0
 40
10.0
 40
10.0
 40
10.0
 40
11.0
 40
11.0
 40
11.0
 40
12.0
 40
12.0
 40
12.0
 40
13.0
 40
13.0
 40
13.0
 40
14.0
 40
14.0
 40
14.0
 40
15.0
 40
15.0
 40
15.0
 40
16.0
 40
16.0
 40
16.0
 40
17.0
 40
17.0
 40
17.0
 40
18.0
 40
18.0
 40
18.0
 40
19.0
 40
19.0
 40
19.0
 40
20.0
 40
20.0
 40
20.0
 40
21.0
 40
21.0
 40
21.0
 40
22.0
 40
22.0
 40
22.0
 40
23.0
 40
23.0
 40
23.0
 40
24.0
 40
24.0
 40
24.0
 40
25.0
 40
25.0
 40
25.0
 40
26.0
 40
26.0
 40
26.0
 40
27.0
 40
27.0
 40
27.0
 40
28.0
 40
28.0
 40
28.0
 40
29.0
 40
29.0
 40
29.0
 40
29.0
 10
76.89999389648438
 20
20.70000555419938
 30
0.0
 10
76.89999389648438
 20
20.70000555419938
 30
0.0
 10
77.79999542236328
 20
20.70000555419938
 30
0.0
 10
77.79999542236328
 20
20.70000555419938
 30
0.0
 10
77.79999542236328
 20
20.70000555419938
 30
0.0
 10
76.99999237060547
 20
19.80000402832047
 30
0.0
 10
76.99999237060547
 20
19.80000402832047
 30
0.0
 10
76.99999237060547
 20
19.80000402832047
 30
0.0
 10
76.0
 20
19.80000402832047
 30
0.0
 10
76.0
 20
19.80000402832047
 30
0.0
 10
75.59761810302734
 20
19.74932196044938
 30
0.0
 10
75.29682159423828
 20
19.40554907226579
 30
0.0
 10
75.30000305175781
 20
19.00000097656266
 30
0.0
 10
75.20000457763672
 20
18.69999792480485
 30
0.0
 10
75.4000015258789
 20
18.50000097656266
 30
0.0
 10
75.70000457763672
 20
18.40000250244157
 30
0.0
 10
75.70000457763672
 20
18.40000250244157
 30
0.0
 10
74.70000457763672
 20
17.30000402832047
 30
0.0
 10
74.70000457763672
 20
17.30000402832047
 30
0.0
 10
74.50000762939453
 20
17.30000402832047
 30
0.0
 10
74.4000015258789
 20
17.20000555419938
 30
0.0
 10
74.30000305175781
 20
17.00000097656266
 30
0.0
 10
66.79283905029297
 20
9.807633422851723
 30
0.0
 10
56.79652404785156
 20
5.794777893066566
 30
0.0
 10
46.40000152587891
 20
5.800004028320473
 30
0.0
 10
43.37371826171875
 20
5.825043701172035
 30
0.0
 10
40.35796737670898
 20
6.160126708984535
 30
0.0
 10
37.40000152587891
 20
6.800004028320473
 30
0.0
 10
37.40000152587891
 20
6.800004028320473
 30
0.0
 10
38.90000152587891
 20
6.800004028320473
 30
0.0
 10
38.90000152587891
 20
6.800004028320473
 30
0.0
 10
38.90000152587891
 20
6.800004028320473
 30
0.0
 10
45.5
 20
15.00000097656266
 30
0.0
 10
45.5
 20
15.00000097656266
 30
0.0
 10
45.5
 20
15.00000097656266
 30
0.0
 10
55.90000152587891
 20
14.19999792480485
 30
0.0
 10
55.90000152587891
 20
14.19999792480485
 30
0.0
 10
55.90000152587891
 20
14.19999792480485
 30
0.0
 10
54.10000228881836
 20
17.19999792480485
 30
0.0
 10
54.10000228881836
 20
17.19999792480485
 30
0.0
 10
54.10000228881836
 20
17.19999792480485
 30
0.0
 10
56.10000228881836
 20
20.19999792480485
 30
0.0
 10
56.10000228881836
 20
20.19999792480485
 30
0.0
 10
56.10000228881836
 20
20.19999792480485
 30
0.0
 10
59.70000076293945
 20
19.89999487304704
 30
0.0
 10
59.70000076293945
 20
19.89999487304704
 30
0.0
 10
59.70000076293945
 20
19.89999487304704
 30
0.0
 10
57.79999923706055
 20
23.09999182128922
 30
0.0
 10
57.79999923706055
 20
23.09999182128922
 30
0.0
 10
57.79999923706055
 20
23.09999182128922
 30
0.0
 10
58.89999771118164
 20
25.79998876953141
 30
0.0
 10
58.89999771118164
 20
25.79998876953141
 30
0.0
 10
58.89999771118164
 20
25.79998876953141
 30
0.0
 10
61.49999618530273
 20
24.4999857177736
 30
0.0
 10
61.49999618530273
 20
24.4999857177736
 30
0.0
 10
61.49999618530273
 20
24.4999857177736
 30
0.0
 10
63.29999542236328
 20
17.4999857177736
 30
0.0
 10
63.29999542236328
 20
17.4999857177736
 30
0.0
 10
63.29999542236328
 20
17.4999857177736
 30
0.0
 10
68.0999984741211
 20
23.09998419189469
 30
0.0
 10
68.0999984741211
 20
23.09998419189469
 30
0.0
 10
68.0999984741211
 20
23.09998419189469
 30
0.0
 10
74.0999984741211
 20
22.79998114013688
 30
0.0
 10
74.0999984741211
 20
22.79998114013688
 30
0.0
 10
74.0999984741211
 20
22.69998266601579
 30
0.0
 10
74.19999694824219
 20
22.59998419189469
 30
0.0
 10
74.19999694824219
 20
22.49997808837907
 30
0.0
 10
74.36386108398438
 20
22.14982702636735
 30
0.0
 10
74.78054809570312
 20
21.99880316162125
 30
0.0
 10
75.13070678710938
 20
22.16266729736344
 30
0.0
 10
75.15448760986328
 20
22.17379095459
 30
0.0
 10
75.17761993408203
 20
22.18624975585954
 30
0.0
 10
75.19999694824219
 20
22.19997503662125
 30
0.0
 10
76.09681701660156
 20
22.82470800781266
 30
0.0
 10
77.03199005126953
 20
23.39249517822282
 30
0.0
 10
78.0
 20
23.89997198486344
 30
0.0
 10
78.0
 20
23.89997198486344
 30
0.0
 10
79.19999694824219
 20
23.59996893310563
 30
0.0
 10
79.19999694824219
 20
23.59996893310563
 30
0.0
 10
79.19999694824219
 20
23.59996893310563
 30
0.0
 10
76.5999984741211
 20
21.99997045898454
 30
0.0
 10
76.5999984741211
 20
21.99997045898454
 30
0.0
 10
76.26737213134766
 20
21.80294897460954
 30
0.0
 10
76.15744018554688
 20
21.37358190917985
 30
0.0
 10
76.35446166992188
 20
21.04095556640641
 30
0.0
 10
76.47022247314453
 20
20.84552099609391
 30
0.0
 10
76.6736068725586
 20
20.71840765380875
 30
0.0
 10
76.89999389648438
 20
20.70000555419938
 30
0.0
  0
POLYLINE
  5
18C
330
1F
100
AcDbEntity
  8
LAYER_1
 62
   178
100
AcDb2dPolyline
 66
     1
 10
0.0
 20
0.0
 30
0.0
  0
VERTEX
  5
18D
330
18C
100
AcDbEntity
  8
LAYER_1
 62
   178
100
AcDbVertex
100
AcDb2dVertex
 10
68.69999694824219
 20
26.50000860595719
 30
0.0
  0
VERTEX
  5
18E
330
18C
100
AcDbEntity
  8
LAYER_1
 62
   178
100
AcDbVertex
100
AcDb2dVertex
 10
66.30000305175781
 20
26.50000860595719
 30
0.0
  0
VERTEX
  5
18F
330
18C
100
AcDbEntity
  8
LAYER_1
 62
   178
100
AcDbVertex
100
AcDb2dVertex
 10
65.0
 20
25.09999945068375
 30
0.0
  0
VERTEX
  5
190
330
18C
100
AcDbEntity
  8
LAYER_1
 62
   178
100
AcDbVertex
100
AcDb2dVertex
 10
64.19999694824219
 20
27.29999639892594
 30
0.0
  0
VERTEX
  5
191
330
18C
100
AcDbEntity
  8
LAYER_1
 62
   178
100
AcDbVertex
100
AcDb2dVertex
 10
62.19999694824219
 20
28.19999792480485
 30
0.0
  0
VERTEX
  5
192
330
18C
100
AcDbEntity
  8
LAYER_1
 62
   178
100
AcDbVertex
100
AcDb2dVertex
 10
64.0999984741211
 20
29.39999487304704
 30
0.0
  0
VERTEX
  5
193
330
18C
100
AcDbEntity
  8
LAYER_1
 62
   178
100
AcDbVertex
100
AcDb2dVertex
 10
64.29999542236328
 20
31.49999334716813
 30
0.0
  0
VERTEX
  5
194
330
18C
100
AcDbEntity
  8
LAYER_1
 62
   178
100
AcDbVertex
100
AcDb2dVertex
 10
66.0999984741211
 20
30.09999182128922
 30
0.0
  0
VERTEX
  5
195
330
18C
100
AcDbEntity
  8
LAYER_1
 62
   178
100
AcDbVertex
100
AcDb2dVertex
 10
68.19999694824219
 20
30.69999029541032
 30
0.0
  0
VERTEX
  5
196
330
18C
100
AcDbEntity
  8
LAYER_1
 62
   178
100
AcDbVertex
100
AcDb2dVertex
 10
67.5
 20
28.29998876953141
 30
0.0
  0
VERTEX
  5
197
330
18C
100
AcDbEntity
  8
LAYER_1
 62
   178
100
AcDbVertex
100
AcDb2dVertex
 10
68.69999694824219
 20
26.50000860595719
 30
0.0
  0
SEQEND
  5
198
330
18C
100
AcDbEntity
  8
LAYER_1
 62
   178
  0
SPLINE
  5
199
330
1F
100
AcDbEntity
  8
LAYER_1
 62
   178
100
AcDbSpline
210
0.0
220
0.0
230
1.0
 70
    11
 71
     3
 72
    23
 73
    19
 74
     0
 42
0.0000000001
 43
0.0000000001
 12
1.0
 22
0.0
 32
0.0
 13
1.0
 23
0.0
 33
0.0
 40
0.0
 40
0.0
 40
0.0
 40
0.0
 40
1.0
 40
1.0
 40
1.0
 40
2.0
 40
2.0
 40
2.0
 40
3.0
 40
3.0
 40
3.0
 40
4.0
 40
4.0
 40
4.0
 40
5.0
 40
5.0
 40
5.0
 40
6.0
 40
6.0
 40
6.0
 40
6.0
 10
73.5999984741211
 20
25.70000555419938
 30
0.0
 10
73.5999984741211
 20
25.90000250244157
 30
0.0
 10
73.79999542236328
 20
26.00000860595719
 30
0.0
 10
74.0
 20
25.90000250244157
 30
0.0
 10
74.20000457763672
 20
25.79999639892594
 30
0.0
 10
74.30000305175781
 20
25.70000555419938
 30
0.0
 10
74.30000305175781
 20
25.50000097656266
 30
0.0
 10
74.20989227294922
 20
25.31432440185563
 30
0.0
 10
73.9933090209961
 20
25.22769262695329
 30
0.0
 10
73.80000305175781
 20
25.30000402832047
 30
0.0
 10
73.7447738647461
 20
25.30000402832047
 30
0.0
 10
73.70000457763672
 20
25.34477331542985
 30
0.0
 10
73.70000457763672
 20
25.40000250244157
 30
0.0
 10
73.70000457763672
 20
25.40000250244157
 30
0.0
 10
73.60000610351562
 20
25.40000250244157
 30
0.0
 10
73.60000610351562
 20
25.40000250244157
 30
0.0
 10
73.60000610351562
 20
25.40000250244157
 30
0.0
 10
73.5999984741211
 20
25.70000555419938
 30
0.0
 10
73.5999984741211
 20
25.70000555419938
 30
0.0
  0
POLYLINE
  5
19A
330
1F
100
AcDbEntity
  8
LAYER_1
 62
   178
100
AcDb2dPolyline
 66
     1
 10
0.0
 20
0.0
 30
0.0
  0
VERTEX
  5
19B
330
19A
100
AcDbEntity
  8
LAYER_1
 62
   178
100
AcDbVertex
100
AcDb2dVertex
 10
74.29999542236328
 20
24.40000250244157
 30
0.0
  0
VERTEX
  5
19C
330
19A
100
AcDbEntity
  8
LAYER_1
 62
   178
100
AcDbVertex
100
AcDb2dVertex
 10
74.69999694824219
 20
24.70000555419938
 30
0.0
  0
VERTEX
  5
19D
330
19A
100
AcDbEntity
  8
LAYER_1
 62
   178
100
AcDbVertex
100
AcDb2dVertex
 10
76.0
 20
24.40000250244157
 30
0.0
  0
VERTEX
  5
19E
330
19A
100
AcDbEntity
  8
LAYER_1
 62
   178
100
AcDbVertex
100
AcDb2dVertex
 10
74.80000305175781
 20
23.59999945068375
 30
0.0
  0
VERTEX
  5
19F
330
19A
100
AcDbEntity
  8
LAYER_1
 62
   178
100
AcDbVertex
100
AcDb2dVertex
 10
74.29999542236328
 20
24.40000250244157
 30
0.0
  0
SEQEND
  5
1A0
330
19A
100
AcDbEntity
  8
LAYER_1
 62
   178
  0
SPLINE
  5
1A1
330
1F
100
AcDbEntity
  8
LAYER_1
 62
   178
100
AcDbSpline
210
0.0
220
0.0
230
1.0
 70
    11
 71
     3
 72
    20
 73
    16
 74
     0
 42
0.0000000001
 43
0.0000000001
 12
1.0
 22
0.0
 32
0.0
 13
1.0
 23
0.0
 33
0.0
 40
0.0
 40
0.0
 40
0.0
 40
0.0
 40
1.0
 40
1.0
 40
1.0
 40
2.0
 40
2.0
 40
2.0
 40
3.0
 40
3.0
 40
3.0
 40
4.0
 40
4.0
 40
4.0
 40
5.0
 40
5.0
 40
5.0
 40
5.0
 10
76.79999542236328
 20
24.90000250244157
 30
0.0
 10
76.79999542236328
 20
25.09999945068375
 30
0.0
 10
76.99999237060547
 20
25.20000555419938
 30
0.0
 10
77.19999694824219
 20
25.20000555419938
 30
0.0
 10
77.36427307128906
 20
25.12983801269547
 30
0.0
 10
77.47863006591797
 20
24.97735693359391
 30
0.0
 10
77.5
 20
24.80000402832047
 30
0.0
 10
77.41493225097656
 20
24.6031122436525
 30
0.0
 10
77.21376037597656
 20
24.4824075927736
 30
0.0
 10
77.0
 20
24.50000097656266
 30
0.0
 10
76.84014892578125
 20
24.54357244873063
 30
0.0
 10
76.74588012695312
 20
24.7084818115236
 30
0.0
 10
76.7894515991211
 20
24.86833288574235
 30
0.0
 10
76.79237365722656
 20
24.87907507324235
 30
0.0
 10
76.7958984375
 20
24.88964178466813
 30
0.0
 10
76.79999542236328
 20
24.90000250244157
 30
0.0
  0
SPLINE
  5
1A2
330
1F
100
AcDbEntity
  8
LAYER_1
 62
   178
100
AcDbSpline
210
0.0
220
0.0
230
1.0
 70
    11
 71
     3
 72
    20
 73
    16
 74
     0
 42
0.0000000001
 43
0.0000000001
 12
1.0
 22
0.0
 32
0.0
 13
1.0
 23
0.0
 33
0.0
 40
0.0
 40
0.0
 40
0.0
 40
0.0
 40
1.0
 40
1.0
 40
1.0
 40
2.0
 40
2.0
 40
2.0
 40
3.0
 40
3.0
 40
3.0
 40
4.0
 40
4.0
 40
4.0
 40
5.0
 40
5.0
 40
5.0
 40
5.0
 10
80.0999984741211
 20
23.80000402832047
 30
0.0
 10
80.0
 20
23.90000250244157
 30
0.0
 10
80.0
 20
24.00000097656266
 30
0.0
 10
80.0
 20
24.20000555419938
 30
0.0
 10
80.04357147216797
 20
24.35985662841813
 30
0.0
 10
80.2084732055664
 20
24.45412542724625
 30
0.0
 10
80.36833190917969
 20
24.41056158447282
 30
0.0
 10
80.37907409667969
 20
24.40763189697282
 30
0.0
 10
80.3896484375
 20
24.40410711669938
 30
0.0
 10
80.4000015258789
 20
24.40000250244157
 30
0.0
 10
80.4000015258789
 20
24.40000250244157
 30
0.0
 10
80.5
 20
24.40000250244157
 30
0.0
 10
80.5
 20
24.40000250244157
 30
0.0
 10
80.5
 20
24.40000250244157
 30
0.0
 10
80.0999984741211
 20
23.80000402832047
 30
0.0
 10
80.0999984741211
 20
23.80000402832047
 30
0.0
  0
POLYLINE
  5
1A3
330
1F
100
AcDbEntity
  8
LAYER_1
 62
   178
100
AcDb2dPolyline
 66
     1
 10
0.0
 20
0.0
 30
0.0
  0
VERTEX
  5
1A4
330
1A3
100
AcDbEntity
  8
LAYER_1
 62
   178
100
AcDbVertex
100
AcDb2dVertex
 10
81.0
 20
25.30000402832047
 30
0.0
  0
VERTEX
  5
1A5
330
1A3
100
AcDbEntity
  8
LAYER_1
 62
   178
100
AcDbVertex
100
AcDb2dVertex
 10
80.5
 20
26.10000708007829
 30
0.0
  0
VERTEX
  5
1A6
330
1A3
100
AcDbEntity
  8
LAYER_1
 62
   178
100
AcDbVertex
100
AcDb2dVertex
 10
81.30000305175781
 20
25.70000555419938
 30
0.0
  0
VERTEX
  5
1A7
330
1A3
100
AcDbEntity
  8
LAYER_1
 62
   178
100
AcDbVertex
100
AcDb2dVertex
 10
81.0
 20
25.30000402832047
 30
0.0
  0
SEQEND
  5
1A8
330
1A3
100
AcDbEntity
  8
LAYER_1
 62
   178
  0
SPLINE
  5
1A9
330
1F
100
AcDbEntity
  8
LAYER_1
 62
   178
100
AcDbSpline
210
0.0
220
0.0
230
1.0
 70
    11
 71
     3
 72
   155
 73
   151
 74
     0
 42
0.0000000001
 43
0.0000000001
 12
1.0
 22
0.0
 32
0.0
 13
1.0
 23
0.0
 33
0.0
 40
0.0
 40
0.0
 40
0.0
 40
0.0
 40
1.0
 40
1.0
 40
1.0
 40
2.0
 40
2.0
 40
2.0
 40
3.0
 40
3.0
 40
3.0
 40
4.0
 40
4.0
 40
4.0
 40
5.0
 40
5.0
 40
5.0
 40
6.0
 40
6.0
 40
6.0
 40
7.0
 40
7.0
 40
7.0
 40
8.0
 40
8.0
 40
8.0
 40
9.0
 40
9.0
 40
9.0
 40
10.0
 40
10.0
 40
10.0
 40
11.0
 40
11.0
 40
11.0
 40
12.0
 40
12.0
 40
12.0
 40
13.0
 40
13.0
 40
13.0
 40
14.0
 40
14.0
 40
14.0
 40
15.0
 40
15.0
 40
15.0
 40
16.0
 40
16.0
 40
16.0
 40
17.0
 40
17.0
 40
17.0
 40
18.0
 40
18.0
 40
18.0
 40
19.0
 40
19.0
 40
19.0
 40
20.0
 40
20.0
 40
20.0
 40
21.0
 40
21.0
 40
21.0
 40
22.0
 40
22.0
 40
22.0
 40
23.0
 40
23.0
 40
23.0
 40
24.0
 40
24.0
 40
24.0
 40
25.0
 40
25.0
 40
25.0
 40
26.0
 40
26.0
 40
26.0
 40
27.0
 40
27.0
 40
27.0
 40
28.0
 40
28.0
 40
28.0
 40
29.0
 40
29.0
 40
29.0
 40
30.0
 40
30.0
 40
30.0
 40
31.0
 40
31.0
 40
31.0
 40
32.0
 40
32.0
 40
32.0
 40
33.0
 40
33.0
 40
33.0
 40
34.0
 40
34.0
 40
34.0
 40
35.0
 40
35.0
 40
35.0
 40
36.0
 40
36.0
 40
36.0
 40
37.0
 40
37.0
 40
37.0
 40
38.0
 40
38.0
 40
38.0
 40
39.0
 40
39.0
 40
39.0
 40
40.0
 40
40.0
 40
40.0
 40
41.0
 40
41.0
 40
41.0
 40
42.0
 40
42.0
 40
42.0
 40
43.0
 40
43.0
 40
43.0
 40
44.0
 40
44.0
 40
44.0
 40
45.0
 40
45.0
 40
45.0
 40
46.0
 40
46.0
 40
46.0
 40
47.0
 40
47.0
 40
47.0
 40
48.0
 40
48.0
 40
48.0
 40
49.0
 40
49.0
 40
49.0
 40
50.0
 40
50.0
 40
50.0
 40
50.0
 10
78.80000305175781
 20
28.60000708007829
 30
0.0
 10
78.20000457763672
 20
29.00000860595719
 30
0.0
 10
77.5
 20
28.20000555419938
 30
0.0
 10
77.9000015258789
 20
27.60000708007829
 30
0.0
 10
77.9000015258789
 20
27.60000708007829
 30
0.0
 10
79.5
 20
25.00000860595719
 30
0.0
 10
79.5
 20
25.00000860595719
 30
0.0
 10
79.5
 20
25.00000860595719
 30
0.0
 10
78.30000305175781
 20
25.300011657715
 30
0.0
 10
78.30000305175781
 20
25.300011657715
 30
0.0
 10
78.30000305175781
 20
25.300011657715
 30
0.0
 10
76.60000610351562
 20
28.00000860595719
 30
0.0
 10
76.60000610351562
 20
28.00000860595719
 30
0.0
 10
76.44802856445312
 20
28.35548498535172
 30
0.0
 10
76.03665924072266
 20
28.52044775390641
 30
0.0
 10
75.68118286132812
 20
28.36847021484391
 30
0.0
 10
75.3257064819336
 20
28.21649267578141
 30
0.0
 10
75.1607437133789
 20
27.80512335205094
 30
0.0
 10
75.3127212524414
 20
27.44965460205094
 30
0.0
 10
75.33551025390625
 20
27.3963480224611
 30
0.0
 10
75.36483001708984
 20
27.34608557128922
 30
0.0
 10
75.40000915527344
 20
27.300011657715
 30
0.0
 10
75.40000915527344
 20
27.300011657715
 30
0.0
 10
76.30001068115234
 20
25.800011657715
 30
0.0
 10
76.30001068115234
 20
25.800011657715
 30
0.0
 10
76.30001068115234
 20
25.800011657715
 30
0.0
 10
75.10001373291016
 20
26.10001470947282
 30
0.0
 10
75.10001373291016
 20
26.10001470947282
 30
0.0
 10
74.7310791015625
 20
26.61025335693375
 30
0.0
 10
74.39698791503906
 20
27.14479925537125
 30
0.0
 10
74.10001373291016
 20
27.70001318359391
 30
0.0
 10
73.80001068115234
 20
28.00001623535172
 30
0.0
 10
73.40001678466797
 20
28.20001318359391
 30
0.0
 10
73.10001373291016
 20
28.00001623535172
 30
0.0
 10
72.74986267089844
 20
27.83615209960954
 30
0.0
 10
72.59883880615234
 20
27.41946508789079
 30
0.0
 10
72.76270294189453
 20
27.06930639648454
 30
0.0
 10
72.7738265991211
 20
27.04552557373063
 30
0.0
 10
72.78628540039062
 20
27.02239324951188
 30
0.0
 10
72.80001068115234
 20
27.00001623535172
 30
0.0
 10
72.80001068115234
 20
27.00001623535172
 30
0.0
 10
73.10001373291016
 20
26.50001623535172
 30
0.0
 10
73.10001373291016
 20
26.50001623535172
 30
0.0
 10
73.10001373291016
 20
26.50001623535172
 30
0.0
 10
72.90001678466797
 20
26.50001623535172
 30
0.0
 10
72.90001678466797
 20
26.50001623535172
 30
0.0
 10
72.90001678466797
 20
26.50001623535172
 30
0.0
 10
71.30001831054688
 20
28.90001776123063
 30
0.0
 10
71.30001831054688
 20
28.90001776123063
 30
0.0
 10
71.30001831054688
 20
28.90001776123063
 30
0.0
 10
73.90001678466797
 20
35.80001928710954
 30
0.0
 10
73.90001678466797
 20
35.80001928710954
 30
0.0
 10
73.90001678466797
 20
35.80001928710954
 30
0.0
 10
66.70001983642578
 20
34.30001928710954
 30
0.0
 10
66.70001983642578
 20
34.30001928710954
 30
0.0
 10
66.70001983642578
 20
34.30001928710954
 30
0.0
 10
61.60002136230469
 20
38.40001776123063
 30
0.0
 10
61.60002136230469
 20
38.40001776123063
 30
0.0
 10
61.60002136230469
 20
38.40001776123063
 30
0.0
 10
62.70001983642578
 20
39.90001776123063
 30
0.0
 10
62.70001983642578
 20
39.90001776123063
 30
0.0
 10
62.70001983642578
 20
39.90001776123063
 30
0.0
 10
65.80001831054688
 20
39.70002081298844
 30
0.0
 10
65.80001831054688
 20
39.70002081298844
 30
0.0
 10
65.80001831054688
 20
39.70002081298844
 30
0.0
 10
64.20001983642578
 20
42.40001776123063
 30
0.0
 10
64.20001983642578
 20
42.40001776123063
 30
0.0
 10
64.20001983642578
 20
42.40001776123063
 30
0.0
 10
65.30001831054688
 20
45.20002081298844
 30
0.0
 10
65.30001831054688
 20
45.20002081298844
 30
0.0
 10
65.75250244140625
 20
45.04258062744157
 30
0.0
 10
66.2227554321289
 20
44.94181158447282
 30
0.0
 10
66.70001983642578
 20
44.90001776123063
 30
0.0
 10
66.70001983642578
 20
44.90001776123063
 30
0.0
 10
68.60002136230469
 20
45.10001470947282
 30
0.0
 10
68.60002136230469
 20
45.10001470947282
 30
0.0
 10
68.07364654541016
 20
44.54872991943375
 30
0.0
 10
67.72522735595703
 20
43.85188391113297
 30
0.0
 10
67.60002136230469
 20
43.10001470947282
 30
0.0
 10
67.39682006835938
 20
42.31218054199235
 30
0.0
 10
67.6249771118164
 20
41.47560980224625
 30
0.0
 10
68.20001983642578
 20
40.90001776123063
 30
0.0
 10
69.0000228881836
 20
39.90001776123063
 30
0.0
 10
70.20001983642578
 20
39.60001470947282
 30
0.0
 10
71.80001831054688
 20
39.70002081298844
 30
0.0
 10
71.87124633789062
 20
39.4065790405275
 30
0.0
 10
72.00800323486328
 20
39.13307287597672
 30
0.0
 10
72.20001983642578
 20
38.90001776123063
 30
0.0
 10
72.31268310546875
 20
38.68691351318375
 30
0.0
 10
72.4869155883789
 20
38.5126810302736
 30
0.0
 10
72.70001983642578
 20
38.40001776123063
 30
0.0
 10
72.70001983642578
 20
38.40001776123063
 30
0.0
 10
73.40001678466797
 20
38.20002081298844
 30
0.0
 10
73.40001678466797
 20
38.20002081298844
 30
0.0
 10
73.40001678466797
 20
38.20002081298844
 30
0.0
 10
71.70001983642578
 20
37.50002386474625
 30
0.0
 10
71.70001983642578
 20
37.50002386474625
 30
0.0
 10
71.64479064941406
 20
37.50002386474625
 30
0.0
 10
71.60002136230469
 20
37.45525457763688
 30
0.0
 10
71.60002136230469
 20
37.40002539062516
 30
0.0
 10
71.60002136230469
 20
37.40002539062516
 30
0.0
 10
71.60002136230469
 20
37.20002844238297
 30
0.0
 10
71.60002136230469
 20
37.20002844238297
 30
0.0
 10
71.60002136230469
 20
37.20002844238297
 30
0.0
 10
72.80001831054688
 20
35.80002691650407
 30
0.0
 10
72.80001831054688
 20
35.80002691650407
 30
0.0
 10
72.80001831054688
 20
35.80002691650407
 30
0.0
 10
73.10002136230469
 20
35.80002691650407
 30
0.0
 10
73.10002136230469
 20
35.80002691650407
 30
0.0
 10
73.10002136230469
 20
35.80002691650407
 30
0.0
 10
78.70001983642578
 20
38.40002539062516
 30
0.0
 10
78.70001983642578
 20
38.40002539062516
 30
0.0
 10
78.70001983642578
 20
38.40002539062516
 30
0.0
 10
81.10002136230469
 20
38.70002844238297
 30
0.0
 10
81.10002136230469
 20
38.70002844238297
 30
0.0
 10
81.56285858154297
 20
38.69484808349625
 30
0.0
 10
82.01432800292969
 20
38.55593206787125
 30
0.0
 10
82.4000244140625
 20
38.30002691650407
 30
0.0
 10
82.70002746582031
 20
37.80002691650407
 30
0.0
 10
81.9000244140625
 20
37.10002996826188
 30
0.0
 10
79.9000244140625
 20
36.20002844238297
 30
0.0
 10
79.9000244140625
 20
36.20002844238297
 30
0.0
 10
77.8000259399414
 20
35.10002996826188
 30
0.0
 10
77.8000259399414
 20
35.10002996826188
 30
0.0
 10
77.42488861083984
 20
34.89028265380875
 30
0.0
 10
77.08699798583984
 20
34.61997320556657
 30
0.0
 10
76.8000259399414
 20
34.30002691650407
 30
0.0
 10
76.4063720703125
 20
33.91836645507829
 30
0.0
 10
76.12898254394531
 20
33.43293859863297
 30
0.0
 10
76.0000228881836
 20
32.90002539062516
 30
0.0
 10
75.95819854736328
 20
32.43105413818375
 30
0.0
 10
76.10179901123047
 20
31.96436407470719
 30
0.0
 10
76.4000244140625
 20
31.60002233886735
 30
0.0
 10
76.60749816894531
 20
31.34218695068375
 30
0.0
 10
76.8421859741211
 20
31.10749914550797
 30
0.0
 10
77.10002136230469
 20
30.90002539062516
 30
0.0
 10
77.10002136230469
 20
30.90002539062516
 30
0.0
 10
78.0000228881836
 20
30.60002233886735
 30
0.0
 10
78.0000228881836
 20
30.60002233886735
 30
0.0
 10
77.97211456298828
 20
30.30561926269547
 30
0.0
 10
78.13221740722656
 20
30.02544500732438
 30
0.0
 10
78.4000244140625
 20
29.90002539062516
 30
0.0
 10
78.4000244140625
 20
29.90002539062516
 30
0.0
 10
81.20002746582031
 20
28.40002539062516
 30
0.0
 10
81.20002746582031
 20
28.40002539062516
 30
0.0
 10
81.28761291503906
 20
27.98620703125016
 30
0.0
 10
81.42180633544922
 20
27.58363439941422
 30
0.0
 10
81.60002899169922
 20
27.20002844238297
 30
0.0
 10
81.60002899169922
 20
27.20002844238297
 30
0.0
 10
78.80000305175781
 20
28.60000708007829
 30
0.0
 10
78.80000305175781
 20
28.60000708007829
 30
0.0
  0
SPLINE
  5
1AA
330
1F
100
AcDbEntity
  8
LAYER_1
 62
   178
100
AcDbSpline
210
0.0
220
0.0
230
1.0
 70
    11
 71
     3
 72
    35
 73
    31
 74
     0
 42
0.0000000001
 43
0.0000000001
 12
1.0
 22
0.0
 32
0.0
 13
1.0
 23
0.0
 33
0.0
 40
0.0
 40
0.0
 40
0.0
 40
0.0
 40
1.0
 40
1.0
 40
1.0
 40
2.0
 40
2.0
 40
2.0
 40
3.0
 40
3.0
 40
3.0
 40
4.0
 40
4.0
 40
4.0
 40
5.0
 40
5.0
 40
5.0
 40
6.0
 40
6.0
 40
6.0
 40
7.0
 40
7.0
 40
7.0
 40
8.0
 40
8.0
 40
8.0
 40
9.0
 40
9.0
 40
9.0
 40
10.0
 40
10.0
 40
10.0
 40
10.0
 10
64.9000015258789
 20
48.29999639892594
 30
0.0
 10
64.68624114990234
 20
48.28240301513688
 30
0.0
 10
64.48506927490234
 20
48.40310766601579
 30
0.0
 10
64.4000015258789
 20
48.59999945068375
 30
0.0
 10
64.12049102783203
 20
48.93406011962907
 30
0.0
 10
64.0439453125
 20
49.39334204101579
 30
0.0
 10
64.20000457763672
 20
49.79999639892594
 30
0.0
 10
64.38064575195312
 20
50.27697088623063
 30
0.0
 10
64.69268798828125
 20
50.69303228759782
 30
0.0
 10
65.10000610351562
 20
50.99999334716813
 30
0.0
 10
65.10000610351562
 20
50.99999334716813
 30
0.0
 10
69.00000762939453
 20
51.99999334716813
 30
0.0
 10
69.00000762939453
 20
51.99999334716813
 30
0.0
 10
69.00000762939453
 20
51.99999334716813
 30
0.0
 10
68.20000457763672
 20
51.19999029541032
 30
0.0
 10
68.20000457763672
 20
51.19999029541032
 30
0.0
 10
68.0174331665039
 20
50.86374761962907
 30
0.0
 10
67.78096771240234
 20
50.55970861816422
 30
0.0
 10
67.50000762939453
 20
50.29998876953141
 30
0.0
 10
67.50000762939453
 20
50.29998876953141
 30
0.0
 10
66.80001068115234
 20
49.4999857177736
 30
0.0
 10
66.80001068115234
 20
49.4999857177736
 30
0.0
 10
66.80001068115234
 20
49.4999857177736
 30
0.0
 10
66.10001373291016
 20
48.79998876953141
 30
0.0
 10
66.10001373291016
 20
48.79998876953141
 30
0.0
 10
66.10001373291016
 20
48.79998876953141
 30
0.0
 10
65.50001525878906
 20
48.3999872436525
 30
0.0
 10
65.50001525878906
 20
48.3999872436525
 30
0.0
 10
65.50001525878906
 20
48.3999872436525
 30
0.0
 10
64.9000015258789
 20
48.29999639892594
 30
0.0
 10
64.9000015258789
 20
48.29999639892594
 30
0.0
  0
SPLINE
  5
1AB
330
1F
100
AcDbEntity
  8
LAYER_1
 62
   178
100
AcDbSpline
210
0.0
220
0.0
230
1.0
 70
    11
 71
     3
 72
    38
 73
    34
 74
     0
 42
0.0000000001
 43
0.0000000001
 12
1.0
 22
0.0
 32
0.0
 13
1.0
 23
0.0
 33
0.0
 40
0.0
 40
0.0
 40
0.0
 40
0.0
 40
1.0
 40
1.0
 40
1.0
 40
2.0
 40
2.0
 40
2.0
 40
3.0
 40
3.0
 40
3.0
 40
4.0
 40
4.0
 40
4.0
 40
5.0
 40
5.0
 40
5.0
 40
6.0
 40
6.0
 40
6.0
 40
7.0
 40
7.0
 40
7.0
 40
8.0
 40
8.0
 40
8.0
 40
9.0
 40
9.0
 40
9.0
 40
10.0
 40
10.0
 40
10.0
 40
11.0
 40
11.0
 40
11.0
 40
11.0
 10
69.0
 20
42.39999487304704
 30
0.0
 10
69.12342834472656
 20
42.79812719726579
 30
0.0
 10
69.36815643310547
 20
43.14775183105485
 30
0.0
 10
69.69999694824219
 20
43.39999487304704
 30
0.0
 10
70.35584259033203
 20
44.21437933349625
 30
0.0
 10
71.21964263916016
 20
44.83631994628922
 30
0.0
 10
72.19999694824219
 20
45.19999792480485
 30
0.0
 10
73.04637908935547
 20
45.62226202392594
 30
0.0
 10
73.96018981933594
 20
45.89302160644547
 30
0.0
 10
74.89999389648438
 20
46.00000097656266
 30
0.0
 10
75.69999694824219
 20
46.00000097656266
 30
0.0
 10
76.29999542236328
 20
45.90000250244157
 30
0.0
 10
76.49999237060547
 20
45.59999945068375
 30
0.0
 10
76.69998931884766
 20
45.29999639892594
 30
0.0
 10
76.69998931884766
 20
44.59999945068375
 30
0.0
 10
75.89999389648438
 20
43.79999639892594
 30
0.0
 10
75.240234375
 20
43.10138800048844
 30
0.0
 10
74.46142578125
 20
42.52575781250016
 30
0.0
 10
73.59999084472656
 20
42.09999945068375
 30
0.0
 10
73.35950469970703
 20
42.32692816162125
 30
0.0
 10
73.01395416259766
 20
42.40371801757829
 30
0.0
 10
72.69998931884766
 20
42.29999639892594
 30
0.0
 10
72.31168365478516
 20
42.27943518066422
 30
0.0
 10
71.94941711425781
 20
42.09830572509782
 30
0.0
 10
71.69998931884766
 20
41.79999639892594
 30
0.0
 10
71.59999084472656
 20
41.59999945068375
 30
0.0
 10
71.49999237060547
 20
41.49999334716813
 30
0.0
 10
71.49999237060547
 20
41.29999639892594
 30
0.0
 10
71.49999237060547
 20
41.09999945068375
 30
0.0
 10
69.39999389648438
 20
41.09999945068375
 30
0.0
 10
68.99999237060547
 20
41.59999945068375
 30
0.0
 10
68.83293151855469
 20
41.84024145507829
 30
0.0
 10
68.83344268798828
 20
42.15940191650407
 30
0.0
 10
69.0
 20
42.39999487304704
 30
0.0
  0
SPLINE
  5
1AC
330
1F
100
AcDbEntity
  8
LAYER_1
 62
   178
100
AcDbSpline
210
0.0
220
0.0
230
1.0
 70
    11
 71
     3
 72
    20
 73
    16
 74
     0
 42
0.0000000001
 43
0.0000000001
 12
1.0
 22
0.0
 32
0.0
 13
1.0
 23
0.0
 33
0.0
 40
0.0
 40
0.0
 40
0.0
 40
0.0
 40
1.0
 40
1.0
 40
1.0
 40
2.0
 40
2.0
 40
2.0
 40
3.0
 40
3.0
 40
3.0
 40
4.0
 40
4.0
 40
4.0
 40
5.0
 40
5.0
 40
5.0
 40
5.0
 10
80.30000305175781
 20
32.59999182128922
 30
0.0
 10
80.23894500732422
 20
32.7540140380861
 30
0.0
 10
80.3143081665039
 20
32.92837622070329
 30
0.0
 10
80.46833038330078
 20
32.98943426513688
 30
0.0
 10
80.47868347167969
 20
32.99353887939469
 30
0.0
 10
80.4892578125
 20
32.99706365966813
 30
0.0
 10
80.5
 20
32.99999334716813
 30
0.0
 10
80.69330596923828
 20
33.07230474853532
 30
0.0
 10
80.9098892211914
 20
32.98567297363297
 30
0.0
 10
81.0
 20
32.79999639892594
 30
0.0
 10
81.0
 20
32.59999945068375
 30
0.0
 10
80.9000015258789
 20
32.39999487304704
 30
0.0
 10
80.69999694824219
 20
32.39999487304704
 30
0.0
 10
80.49999237060547
 20
32.39999487304704
 30
0.0
 10
80.4000015258789
 20
32.39999487304704
 30
0.0
 10
80.30000305175781
 20
32.59999182128922
 30
0.0
  0
SPLINE
  5
1AD
330
1F
100
AcDbEntity
  8
LAYER_1
 62
   178
100
AcDbSpline
210
0.0
220
0.0
230
1.0
 70
    11
 71
     3
 72
    14
 73
    10
 74
     0
 42
0.0000000001
 43
0.0000000001
 12
1.0
 22
0.0
 32
0.0
 13
1.0
 23
0.0
 33
0.0
 40
0.0
 40
0.0
 40
0.0
 40
0.0
 40
1.0
 40
1.0
 40
1.0
 40
2.0
 40
2.0
 40
2.0
 40
3.0
 40
3.0
 40
3.0
 40
3.0
 10
80.60000610351562
 20
30.29998876953141
 30
0.0
 10
80.60000610351562
 20
30.29998876953141
 30
0.0
 10
80.10000610351562
 20
30.59999182128922
 30
0.0
 10
80.10000610351562
 20
30.59999182128922
 30
0.0
 10
80.10000610351562
 20
30.59999182128922
 30
0.0
 10
80.50000762939453
 20
30.59999182128922
 30
0.0
 10
80.50000762939453
 20
30.59999182128922
 30
0.0
 10
80.5
 20
30.59999945068375
 30
0.0
 10
80.5999984741211
 20
30.39999487304704
 30
0.0
 10
80.60000610351562
 20
30.29998876953141
 30
0.0
  0
SPLINE
  5
1AE
330
1F
100
AcDbEntity
  8
LAYER_1
 62
   178
100
AcDbSpline
210
0.0
220
0.0
230
1.0
 70
    11
 71
     3
 72
    23
 73
    19
 74
     0
 42
0.0000000001
 43
0.0000000001
 12
1.0
 22
0.0
 32
0.0
 13
1.0
 23
0.0
 33
0.0
 40
0.0
 40
0.0
 40
0.0
 40
0.0
 40
1.0
 40
1.0
 40
1.0
 40
2.0
 40
2.0
 40
2.0
 40
3.0
 40
3.0
 40
3.0
 40
4.0
 40
4.0
 40
4.0
 40
5.0
 40
5.0
 40
5.0
 40
6.0
 40
6.0
 40
6.0
 40
6.0
 10
79.90000915527344
 20
31.69999029541032
 30
0.0
 10
79.90000915527344
 20
31.69999029541032
 30
0.0
 10
79.70001220703125
 20
31.69999029541032
 30
0.0
 10
79.70001220703125
 20
31.69999029541032
 30
0.0
 10
78.70001220703125
 20
31.63332464599625
 30
0.0
 10
78.10001373291016
 20
31.73332312011735
 30
0.0
 10
77.90000915527344
 20
31.99999334716813
 30
0.0
 10
77.80001068115234
 20
32.09999182128922
 30
0.0
 10
77.80001068115234
 20
32.29999639892594
 30
0.0
 10
78.00000762939453
 20
32.59999182128922
 30
0.0
 10
78.00000762939453
 20
32.59999182128922
 30
0.0
 10
78.30001068115234
 20
32.79998876953141
 30
0.0
 10
78.30001068115234
 20
32.79998876953141
 30
0.0
 10
78.30001068115234
 20
32.59999182128922
 30
0.0
 10
78.40000915527344
 20
32.4999857177736
 30
0.0
 10
78.50000762939453
 20
32.4999857177736
 30
0.0
 10
78.50000762939453
 20
32.4999857177736
 30
0.0
 10
79.90000915527344
 20
31.69999029541032
 30
0.0
 10
79.90000915527344
 20
31.69999029541032
 30
0.0
  0
SPLINE
  5
1AF
330
1F
100
AcDbEntity
  8
LAYER_1
 62
   178
100
AcDbSpline
210
0.0
220
0.0
230
1.0
 70
    11
 71
     3
 72
    17
 73
    13
 74
     0
 42
0.0000000001
 43
0.0000000001
 12
1.0
 22
0.0
 32
0.0
 13
1.0
 23
0.0
 33
0.0
 40
0.0
 40
0.0
 40
0.0
 40
0.0
 40
1.0
 40
1.0
 40
1.0
 40
2.0
 40
2.0
 40
2.0
 40
3.0
 40
3.0
 40
3.0
 40
4.0
 40
4.0
 40
4.0
 40
4.0
 10
81.69999694824219
 20
29.19999792480485
 30
0.0
 10
81.69999694824219
 20
29.19999792480485
 30
0.0
 10
81.19999694824219
 20
29.39999487304704
 30
0.0
 10
81.19999694824219
 20
29.39999487304704
 30
0.0
 10
81.18240356445312
 20
29.6137552490236
 30
0.0
 10
81.30310821533203
 20
29.8149271240236
 30
0.0
 10
81.5
 20
29.89999487304704
 30
0.0
 10
81.69999694824219
 20
29.89999487304704
 30
0.0
 10
81.9000015258789
 20
29.79999639892594
 30
0.0
 10
81.9000015258789
 20
29.59999182128922
 30
0.0
 10
81.9000015258789
 20
29.3999872436525
 30
0.0
 10
81.9000015258789
 20
29.29999639892594
 30
0.0
 10
81.69999694824219
 20
29.19999792480485
 30
0.0
  0
SPLINE
  5
1B0
330
1F
100
AcDbEntity
  8
LAYER_1
 62
   178
100
AcDbSpline
210
0.0
220
0.0
230
1.0
 70
    11
 71
     3
 72
    14
 73
    10
 74
     0
 42
0.0000000001
 43
0.0000000001
 12
1.0
 22
0.0
 32
0.0
 13
1.0
 23
0.0
 33
0.0
 40
0.0
 40
0.0
 40
0.0
 40
0.0
 40
1.0
 40
1.0
 40
1.0
 40
2.0
 40
2.0
 40
2.0
 40
3.0
 40
3.0
 40
3.0
 40
3.0
 10
82.0
 20
30.69999792480485
 30
0.0
 10
81.92687225341797
 20
30.78202154541032
 30
0.0
 10
81.89070892333984
 20
30.89051153564469
 30
0.0
 10
81.9000015258789
 20
31.00000097656266
 30
0.0
 10
81.9000015258789
 20
31.00000097656266
 30
0.0
 10
82.20000457763672
 20
31.00000097656266
 30
0.0
 10
82.20000457763672
 20
31.00000097656266
 30
0.0
 10
82.11137390136719
 20
30.91652014160172
 30
0.0
 10
82.04296875
 20
30.81391241455094
 30
0.0
 10
82.0
 20
30.69999792480485
 30
0.0
  0
SPLINE
  5
1B1
330
1F
100
AcDbEntity
  8
LAYER_1
 62
   178
100
AcDbSpline
210
0.0
220
0.0
230
1.0
 70
    11
 71
     3
 72
   509
 73
   505
 74
     0
 42
0.0000000001
 43
0.0000000001
 12
1.0
 22
0.0
 32
0.0
 13
1.0
 23
0.0
 33
0.0
 40
0.0
 40
0.0
 40
0.0
 40
0.0
 40
1.0
 40
1.0
 40
1.0
 40
2.0
 40
2.0
 40
2.0
 40
3.0
 40
3.0
 40
3.0
 40
4.0
 40
4.0
 40
4.0
 40
5.0
 40
5.0
 40
5.0
 40
6.0
 40
6.0
 40
6.0
 40
7.0
 40
7.0
 40
7.0
 40
8.0
 40
8.0
 40
8.0
 40
9.0
 40
9.0
 40
9.0
 40
10.0
 40
10.0
 40
10.0
 40
11.0
 40
11.0
 40
11.0
 40
12.0
 40
12.0
 40
12.0
 40
13.0
 40
13.0
 40
13.0
 40
14.0
 40
14.0
 40
14.0
 40
15.0
 40
15.0
 40
15.0
 40
16.0
 40
16.0
 40
16.0
 40
17.0
 40
17.0
 40
17.0
 40
18.0
 40
18.0
 40
18.0
 40
19.0
 40
19.0
 40
19.0
 40
20.0
 40
20.0
 40
20.0
 40
21.0
 40
21.0
 40
21.0
 40
22.0
 40
22.0
 40
22.0
 40
23.0
 40
23.0
 40
23.0
 40
24.0
 40
24.0
 40
24.0
 40
25.0
 40
25.0
 40
25.0
 40
26.0
 40
26.0
 40
26.0
 40
27.0
 40
27.0
 40
27.0
 40
28.0
 40
28.0
 40
28.0
 40
29.0
 40
29.0
 40
29.0
 40
30.0
 40
30.0
 40
30.0
 40
31.0
 40
31.0
 40
31.0
 40
32.0
 40
32.0
 40
32.0
 40
33.0
 40
33.0
 40
33.0
 40
34.0
 40
34.0
 40
34.0
 40
35.0
 40
35.0
 40
35.0
 40
36.0
 40
36.0
 40
36.0
 40
37.0
 40
37.0
 40
37.0
 40
38.0
 40
38.0
 40
38.0
 40
39.0
 40
39.0
 40
39.0
 40
40.0
 40
40.0
 40
40.0
 40
41.0
 40
41.0
 40
41.0
 40
42.0
 40
42.0
 40
42.0
 40
43.0
 40
43.0
 40
43.0
 40
44.0
 40
44.0
 40
44.0
 40
45.0
 40
45.0
 40
45.0
 40
46.0
 40
46.0
 40
46.0
 40
47.0
 40
47.0
 40
47.0
 40
48.0
 40
48.0
 40
48.0
 40
49.0
 40
49.0
 40
49.0
 40
50.0
 40
50.0
 40
50.0
 40
51.0
 40
51.0
 40
51.0
 40
52.0
 40
52.0
 40
52.0
 40
53.0
 40
53.0
 40
53.0
 40
54.0
 40
54.0
 40
54.0
 40
55.0
 40
55.0
 40
55.0
 40
56.0
 40
56.0
 40
56.0
 40
57.0
 40
57.0
 40
57.0
 40
58.0
 40
58.0
 40
58.0
 40
59.0
 40
59.0
 40
59.0
 40
60.0
 40
60.0
 40
60.0
 40
61.0
 40
61.0
 40
61.0
 40
62.0
 40
62.0
 40
62.0
 40
63.0
 40
63.0
 40
63.0
 40
64.0
 40
64.0
 40
64.0
 40
65.0
 40
65.0
 40
65.0
 40
66.0
 40
66.0
 40
66.0
 40
67.0
 40
67.0
 40
67.0
 40
68.0
 40
68.0
 40
68.0
 40
69.0
 40
69.0
 40
69.0
 40
70.0
 40
70.0
 40
70.0
 40
71.0
 40
71.0
 40
71.0
 40
72.0
 40
72.0
 40
72.0
 40
73.0
 40
73.0
 40
73.0
 40
74.0
 40
74.0
 40
74.0
 40
75.0
 40
75.0
 40
75.0
 40
76.0
 40
76.0
 40
76.0
 40
77.0
 40
77.0
 40
77.0
 40
78.0
 40
78.0
 40
78.0
 40
79.0
 40
79.0
 40
79.0
 40
80.0
 40
80.0
 40
80.0
 40
81.0
 40
81.0
 40
81.0
 40
82.0
 40
82.0
 40
82.0
 40
83.0
 40
83.0
 40
83.0
 40
84.0
 40
84.0
 40
84.0
 40
85.0
 40
85.0
 40
85.0
 40
86.0
 40
86.0
 40
86.0
 40
87.0
 40
87.0
 40
87.0
 40
88.0
 40
88.0
 40
88.0
 40
89.0
 40
89.0
 40
89.0
 40
90.0
 40
90.0
 40
90.0
 40
91.0
 40
91.0
 40
91.0
 40
92.0
 40
92.0
 40
92.0
 40
93.0
 40
93.0
 40
93.0
 40
94.0
 40
94.0
 40
94.0
 40
95.0
 40
95.0
 40
95.0
 40
96.0
 40
96.0
 40
96.0
 40
97.0
 40
97.0
 40
97.0
 40
98.0
 40
98.0
 40
98.0
 40
99.0
 40
99.0
 40
99.0
 40
100.0
 40
100.0
 40
100.0
 40
101.0
 40
101.0
 40
101.0
 40
102.0
 40
102.0
 40
102.0
 40
103.0
 40
103.0
 40
103.0
 40
104.0
 40
104.0
 40
104.0
 40
105.0
 40
105.0
 40
105.0
 40
106.0
 40
106.0
 40
106.0
 40
107.0
 40
107.0
 40
107.0
 40
108.0
 40
108.0
 40
108.0
 40
109.0
 40
109.0
 40
109.0
 40
110.0
 40
110.0
 40
110.0
 40
111.0
 40
111.0
 40
111.0
 40
112.0
 40
112.0
 40
112.0
 40
113.0
 40
113.0
 40
113.0
 40
114.0
 40
114.0
 40
114.0
 40
115.0
 40
115.0
 40
115.0
 40
116.0
 40
116.0
 40
116.0
 40
117.0
 40
117.0
 40
117.0
 40
118.0
 40
118.0
 40
118.0
 40
119.0
 40
119.0
 40
119.0
 40
120.0
 40
120.0
 40
120.0
 40
121.0
 40
121.0
 40
121.0
 40
122.0
 40
122.0
 40
122.0
 40
123.0
 40
123.0
 40
123.0
 40
124.0
 40
124.0
 40
124.0
 40
125.0
 40
125.0
 40
125.0
 40
126.0
 40
126.0
 40
126.0
 40
127.0
 40
127.0
 40
127.0
 40
128.0
 40
128.0
 40
128.0
 40
129.0
 40
129.0
 40
129.0
 40
130.0
 40
130.0
 40
130.0
 40
131.0
 40
131.0
 40
131.0
 40
132.0
 40
132.0
 40
132.0
 40
133.0
 40
133.0
 40
133.0
 40
134.0
 40
134.0
 40
134.0
 40
135.0
 40
135.0
 40
135.0
 40
136.0
 40
136.0
 40
136.0
 40
137.0
 40
137.0
 40
137.0
 40
138.0
 40
138.0
 40
138.0
 40
139.0
 40
139.0
 40
139.0
 40
140.0
 40
140.0
 40
140.0
 40
141.0
 40
141.0
 40
141.0
 40
142.0
 40
142.0
 40
142.0
 40
143.0
 40
143.0
 40
143.0
 40
144.0
 40
144.0
 40
144.0
 40
145.0
 40
145.0
 40
145.0
 40
146.0
 40
146.0
 40
146.0
 40
147.0
 40
147.0
 40
147.0
 40
148.0
 40
148.0
 40
148.0
 40
149.0
 40
149.0
 40
149.0
 40
150.0
 40
150.0
 40
150.0
 40
151.0
 40
151.0
 40
151.0
 40
152.0
 40
152.0
 40
152.0
 40
153.0
 40
153.0
 40
153.0
 40
154.0
 40
154.0
 40
154.0
 40
155.0
 40
155.0
 40
155.0
 40
156.0
 40
156.0
 40
156.0
 40
157.0
 40
157.0
 40
157.0
 40
158.0
 40
158.0
 40
158.0
 40
159.0
 40
159.0
 40
159.0
 40
160.0
 40
160.0
 40
160.0
 40
161.0
 40
161.0
 40
161.0
 40
162.0
 40
162.0
 40
162.0
 40
163.0
 40
163.0
 40
163.0
 40
164.0
 40
164.0
 40
164.0
 40
165.0
 40
165.0
 40
165.0
 40
166.0
 40
166.0
 40
166.0
 40
167.0
 40
167.0
 40
167.0
 40
168.0
 40
168.0
 40
168.0
 40
168.0
 10
82.69999694824219
 20
28.29999639892594
 30
0.0
 10
82.69999694824219
 20
28.29999639892594
 30
0.0
 10
82.5
 20
28.79999639892594
 30
0.0
 10
82.5
 20
28.79999639892594
 30
0.0
 10
83.09210205078125
 20
29.69849493408219
 30
0.0
 10
83.62651062011719
 20
30.63371374511735
 30
0.0
 10
84.0999984741211
 20
31.59999945068375
 30
0.0
 10
84.26126098632812
 20
31.96164038085954
 30
0.0
 10
84.13369750976562
 20
32.38684179687516
 30
0.0
 10
83.79999542236328
 20
32.59999945068375
 30
0.0
 10
83.47044372558594
 20
32.80213262939469
 30
0.0
 10
83.03943634033203
 20
32.6988382568361
 30
0.0
 10
82.8373031616211
 20
32.36928656005875
 30
0.0
 10
82.82357788085938
 20
32.3469095458986
 30
0.0
 10
82.81112670898438
 20
32.32377722167985
 30
0.0
 10
82.79999542236328
 20
32.29999639892594
 30
0.0
 10
82.79999542236328
 20
32.29999639892594
 30
0.0
 10
82.79999542236328
 20
32.29999639892594
 30
0.0
 10
82.79999542236328
 20
32.29999639892594
 30
0.0
 10
82.79999542236328
 20
32.29999639892594
 30
0.0
 10
81.5999984741211
 20
31.99999334716813
 30
0.0
 10
81.5999984741211
 20
31.99999334716813
 30
0.0
 10
81.5999984741211
 20
31.99999334716813
 30
0.0
 10
82.5
 20
33.59999182128922
 30
0.0
 10
82.5
 20
33.59999182128922
 30
0.0
 10
82.68196868896484
 20
33.93812658691422
 30
0.0
 10
82.5980224609375
 20
34.35785009765641
 30
0.0
 10
82.30000305175781
 20
34.59999182128922
 30
0.0
 10
82.30000305175781
 20
34.59999182128922
 30
0.0
 10
82.4000015258789
 20
34.59999182128922
 30
0.0
 10
82.4000015258789
 20
34.59999182128922
 30
0.0
 10
82.87113952636719
 20
34.84133245849625
 30
0.0
 10
83.30826568603516
 20
35.14396002197282
 30
0.0
 10
83.70000457763672
 20
35.49999334716813
 30
0.0
 10
84.00971221923828
 20
35.86383154296891
 30
0.0
 10
84.18608093261719
 20
36.32239630126969
 30
0.0
 10
84.20000457763672
 20
36.79999639892594
 30
0.0
 10
84.26979064941406
 20
37.30217077636735
 30
0.0
 10
84.12455749511719
 20
37.81048681640641
 30
0.0
 10
83.80000305175781
 20
38.19999792480485
 30
0.0
 10
83.80000305175781
 20
38.19999792480485
 30
0.0
 10
83.30000305175781
 20
38.69999792480485
 30
0.0
 10
83.30000305175781
 20
38.69999792480485
 30
0.0
 10
83.30000305175781
 20
38.69999792480485
 30
0.0
 10
82.60000610351562
 20
39.09999945068375
 30
0.0
 10
82.60000610351562
 20
39.09999945068375
 30
0.0
 10
82.25220489501953
 20
39.25945379638688
 30
0.0
 10
81.88060760498047
 20
39.36079504394547
 30
0.0
 10
81.50000762939453
 20
39.40000250244157
 30
0.0
 10
81.50000762939453
 20
39.40000250244157
 30
0.0
 10
82.20000457763672
 20
39.70000555419938
 30
0.0
 10
82.20000457763672
 20
39.70000555419938
 30
0.0
 10
82.20000457763672
 20
39.70000555419938
 30
0.0
 10
82.30000305175781
 20
39.70000555419938
 30
0.0
 10
82.30000305175781
 20
39.70000555419938
 30
0.0
 10
82.30000305175781
 20
39.70000555419938
 30
0.0
 10
81.0
 20
41.59999945068375
 30
0.0
 10
81.0
 20
41.59999945068375
 30
0.0
 10
81.0
 20
41.59999945068375
 30
0.0
 10
80.80000305175781
 20
41.59999945068375
 30
0.0
 10
80.80000305175781
 20
41.59999945068375
 30
0.0
 10
80.80000305175781
 20
41.59999945068375
 30
0.0
 10
76.30000305175781
 20
39.59999945068375
 30
0.0
 10
76.30000305175781
 20
39.59999945068375
 30
0.0
 10
74.5
 20
39.09999945068375
 30
0.0
 10
73.4000015258789
 20
39.29999639892594
 30
0.0
 10
73.0
 20
40.00000097656266
 30
0.0
 10
74.4101791381836
 20
40.32818701171891
 30
0.0
 10
75.69522094726562
 20
41.05753424072282
 30
0.0
 10
76.69999694824219
 20
42.09999945068375
 30
0.0
 10
77.34440612792969
 20
42.71206762695329
 30
0.0
 10
77.76661682128906
 20
43.52130987548844
 30
0.0
 10
77.89999389648438
 20
44.40000250244157
 30
0.0
 10
78.01040649414062
 20
45.23183538818375
 30
0.0
 10
77.75509643554688
 20
46.07071783447282
 30
0.0
 10
77.19999694824219
 20
46.70000555419938
 30
0.0
 10
76.5671157836914
 20
47.37128546142594
 30
0.0
 10
75.71675109863281
 20
47.79646398925797
 30
0.0
 10
74.79999542236328
 20
47.90000250244157
 30
0.0
 10
73.74961853027344
 20
48.00919439697282
 30
0.0
 10
72.68824768066406
 20
47.87223913574235
 30
0.0
 10
71.69999694824219
 20
47.50000097656266
 30
0.0
 10
71.69999694824219
 20
47.50000097656266
 30
0.0
 10
70.19999694824219
 20
46.69999792480485
 30
0.0
 10
70.19999694824219
 20
46.69999792480485
 30
0.0
 10
69.09326171875
 20
46.39627935791032
 30
0.0
 10
67.94700622558594
 20
46.26142980957047
 30
0.0
 10
66.79999542236328
 20
46.29999639892594
 30
0.0
 10
66.79999542236328
 20
46.29999639892594
 30
0.0
 10
68.19999694824219
 20
47.69999792480485
 30
0.0
 10
68.19999694824219
 20
47.69999792480485
 30
0.0
 10
68.66305541992188
 20
48.2084818115236
 30
0.0
 10
69.09707641601562
 20
48.7426614990236
 30
0.0
 10
69.5
 20
49.29999639892594
 30
0.0
 10
69.87998962402344
 20
49.81350042724625
 30
0.0
 10
70.3160171508789
 20
50.28305914306657
 30
0.0
 10
70.80000305175781
 20
50.69999792480485
 30
0.0
 10
71.18034362792969
 20
51.06031896972672
 30
0.0
 10
71.6767807006836
 20
51.27307989501969
 30
0.0
 10
72.20000457763672
 20
51.29999639892594
 30
0.0
 10
72.33585357666016
 20
51.58033087158219
 30
0.0
 10
72.40433502197266
 20
51.8885126342775
 30
0.0
 10
72.4000015258789
 20
52.19999792480485
 30
0.0
 10
72.50785827636719
 20
52.53332617187516
 30
0.0
 10
72.38627624511719
 20
52.89804937744157
 30
0.0
 10
72.0999984741211
 20
53.09999945068375
 30
0.0
 10
71.72431945800781
 20
53.64970495605485
 30
0.0
 10
71.01346588134766
 20
53.85878088378922
 30
0.0
 10
70.4000015258789
 20
53.59999945068375
 30
0.0
 10
70.4000015258789
 20
53.59999945068375
 30
0.0
 10
66.4000015258789
 20
52.40000250244157
 30
0.0
 10
66.4000015258789
 20
52.40000250244157
 30
0.0
 10
66.4000015258789
 20
52.40000250244157
 30
0.0
 10
65.80000305175781
 20
52.40000250244157
 30
0.0
 10
65.80000305175781
 20
52.40000250244157
 30
0.0
 10
65.80000305175781
 20
52.40000250244157
 30
0.0
 10
65.10000610351562
 20
52.20000555419938
 30
0.0
 10
65.10000610351562
 20
52.20000555419938
 30
0.0
 10
64.8476333618164
 20
52.26946356201188
 30
0.0
 10
64.57759857177734
 20
52.19230749511735
 30
0.0
 10
64.40000915527344
 20
52.00000860595719
 30
0.0
 10
62.90000915527344
 20
51.60000708007829
 30
0.0
 10
62.00000762939453
 20
51.70000555419938
 30
0.0
 10
61.70000839233398
 20
52.00000860595719
 30
0.0
 10
61.51811981201172
 20
52.18682958984391
 30
0.0
 10
61.47770309448242
 20
52.46972753906266
 30
0.0
 10
61.60000991821289
 20
52.70000555419938
 30
0.0
 10
61.72819900512695
 20
53.01982214355485
 30
0.0
 10
61.89618682861328
 20
53.32220556640641
 30
0.0
 10
62.10000991821289
 20
53.60000708007829
 30
0.0
 10
62.39017105102539
 20
53.94899847412125
 30
0.0
 10
62.65739822387695
 20
54.31643774414079
 30
0.0
 10
62.90000915527344
 20
54.70000555419938
 30
0.0
 10
63.10730361938477
 20
55.04681494140641
 30
0.0
 10
63.27502059936523
 20
55.41578771972672
 30
0.0
 10
63.40000915527344
 20
55.80000402832047
 30
0.0
 10
64.02167510986328
 20
55.11379339599625
 30
0.0
 10
64.87804412841797
 20
54.68560888671891
 30
0.0
 10
65.80001068115234
 20
54.60000708007829
 30
0.0
 10
66.50372314453125
 20
54.55494024658219
 30
0.0
 10
67.19374084472656
 20
54.80915167236344
 30
0.0
 10
67.70001220703125
 20
55.30000402832047
 30
0.0
 10
68.01907348632812
 20
55.61796667480485
 30
0.0
 10
68.19890594482422
 20
56.04955389404313
 30
0.0
 10
68.20001220703125
 20
56.50000097656266
 30
0.0
 10
68.26667022705078
 20
56.97126104736344
 30
0.0
 10
68.12006378173828
 20
57.44773199462907
 30
0.0
 10
67.80001068115234
 20
57.80000402832047
 30
0.0
 10
67.14959716796875
 20
58.61642553710954
 30
0.0
 10
66.14186096191406
 20
59.06430914306657
 30
0.0
 10
65.10001373291016
 20
59.00000097656266
 30
0.0
 10
65.10001373291016
 20
59.00000097656266
 30
0.0
 10
71.80001068115234
 20
62.00000097656266
 30
0.0
 10
71.80001068115234
 20
62.00000097656266
 30
0.0
 10
71.80001068115234
 20
62.00000097656266
 30
0.0
 10
71.90000915527344
 20
62.00000097656266
 30
0.0
 10
71.90000915527344
 20
62.00000097656266
 30
0.0
 10
71.90000915527344
 20
62.09999945068375
 30
0.0
 10
71.90000915527344
 20
62.09999945068375
 30
0.0
 10
71.80001068115234
 20
62.20000173950211
 30
0.0
 10
71.80001068115234
 20
62.20000173950211
 30
0.0
 10
70.60001373291016
 20
63.60000326538102
 30
0.0
 10
70.60001373291016
 20
63.60000326538102
 30
0.0
 10
70.60001373291016
 20
63.70000173950211
 30
0.0
 10
70.50001525878906
 20
63.70000173950211
 30
0.0
 10
70.40001678466797
 20
63.70000173950211
 30
0.0
 10
70.40001678466797
 20
63.70000173950211
 30
0.0
 10
60.20000076293945
 20
59.19999792480485
 30
0.0
 10
60.20000076293945
 20
59.19999792480485
 30
0.0
 10
59.55341720581055
 20
58.98080541992204
 30
0.0
 10
58.88114929199219
 20
58.84635260009782
 30
0.0
 10
58.20000076293945
 20
58.79999639892594
 30
0.0
 10
57.59882354736328
 20
58.72617437744157
 30
0.0
 10
56.98930358886719
 20
58.76004125976579
 30
0.0
 10
56.40000152587891
 20
58.89999487304704
 30
0.0
 10
56.00901412963867
 20
59.00692846679704
 30
0.0
 10
55.63765335083008
 20
59.17572882080094
 30
0.0
 10
55.30000305175781
 20
59.39999487304704
 30
0.0
 10
55.02691268920898
 20
59.54831030273454
 30
0.0
 10
54.7883415222168
 20
59.75280096435563
 30
0.0
 10
54.60000228881836
 20
59.99999334716813
 30
0.0
 10
54.30000305175781
 20
60.29999639892594
 30
0.0
 10
54.30000305175781
 20
60.59999182128922
 30
0.0
 10
54.40000152587891
 20
61.09999182128922
 30
0.0
 10
54.55547332763672
 20
61.54060461425797
 30
0.0
 10
54.79299545288086
 20
61.94777777099625
 30
0.0
 10
55.10000228881836
 20
62.29999258422868
 30
0.0
 10
55.75302886962891
 20
62.95571234130875
 30
0.0
 10
56.53665161132812
 20
63.4667711486818
 30
0.0
 10
57.40000152587891
 20
63.79999258422868
 30
0.0
 10
58.18124389648438
 20
64.17532827758805
 30
0.0
 10
59.03350448608398
 20
64.37987234497086
 30
0.0
 10
59.90000152587891
 20
64.39999105834977
 30
0.0
 10
60.46663665771484
 20
64.53320410156266
 30
0.0
 10
61.06271743774414
 20
64.38418295288102
 30
0.0
 10
61.5
 20
63.99998953247086
 30
0.0
 10
61.69057083129883
 20
63.80556585693375
 30
0.0
 10
61.69057083129883
 20
63.49441244506852
 30
0.0
 10
61.5
 20
63.29998876953141
 30
0.0
 10
61.01803970336914
 20
62.68236257934586
 30
0.0
 10
60.28327941894531
 20
62.31498434448258
 30
0.0
 10
59.5
 20
62.29998876953141
 30
0.0
 10
59.40000152587891
 20
62.19999029541032
 30
0.0
 10
59.40000152587891
 20
61.9999857177736
 30
0.0
 10
59.59999847412109
 20
61.79998876953141
 30
0.0
 10
59.79999542236328
 20
61.59999182128922
 30
0.0
 10
60.19999694824219
 20
61.3999872436525
 30
0.0
 10
60.79999923706055
 20
61.3999872436525
 30
0.0
 10
61.30363464355469
 20
61.38412573242204
 30
0.0
 10
61.78532028198242
 20
61.60643865966813
 30
0.0
 10
62.09999847412109
 20
61.9999857177736
 30
0.0
 10
62.90081024169922
 20
62.67808248901383
 30
0.0
 10
63.00029373168945
 20
63.87697698974625
 30
0.0
 10
62.32219696044922
 20
64.67778875732438
 30
0.0
 10
62.25439453125
 20
64.75786306762711
 30
0.0
 10
62.18007278442383
 20
64.83218481445329
 30
0.0
 10
62.09999847412109
 20
64.8999872436525
 30
0.0
 10
61.47195434570312
 20
65.5947122802736
 30
0.0
 10
60.62499618530273
 20
66.05348303222672
 30
0.0
 10
59.70000076293945
 20
66.19999792480485
 30
0.0
 10
58.64951324462891
 20
66.32080175781266
 30
0.0
 10
57.58541870117188
 20
66.18349554443375
 30
0.0
 10
56.60000228881836
 20
65.79999639892594
 30
0.0
 10
55.98566818237305
 20
65.6002931823732
 30
0.0
 10
55.41051864624023
 20
65.29580023193375
 30
0.0
 10
54.90000152587891
 20
64.89999487304704
 30
0.0
 10
54.90000152587891
 20
64.89999487304704
 30
0.0
 10
52.40000152587891
 20
64.39999487304704
 30
0.0
 10
52.40000152587891
 20
64.39999487304704
 30
0.0
 10
51.5
 20
64.39999487304704
 30
0.0
 10
51.0
 20
64.39999487304704
 30
0.0
 10
50.90000152587891
 20
64.59999563598649
 30
0.0
 10
50.80000305175781
 20
64.79999639892594
 30
0.0
 10
50.80000305175781
 20
64.9999971618654
 30
0.0
 10
51.0
 20
65.19999411010758
 30
0.0
 10
51.0
 20
65.19999411010758
 30
0.0
 10
52.59999847412109
 20
66.29999258422868
 30
0.0
 10
52.59999847412109
 20
66.29999258422868
 30
0.0
 10
52.59999847412109
 20
66.29999258422868
 30
0.0
 10
57.59999847412109
 20
68.69999411010758
 30
0.0
 10
57.59999847412109
 20
68.69999411010758
 30
0.0
 10
57.69999694824219
 20
68.69999411010758
 30
0.0
 10
57.69999694824219
 20
68.69999411010758
 30
0.0
 10
57.69999694824219
 20
68.79999258422868
 30
0.0
 10
57.69999694824219
 20
68.79999258422868
 30
0.0
 10
57.69999694824219
 20
68.79999258422868
 30
0.0
 10
57.69999694824219
 20
68.79999258422868
 30
0.0
 10
57.69999694824219
 20
68.79999258422868
 30
0.0
 10
56.49999618530273
 20
70.29999258422868
 30
0.0
 10
56.49999618530273
 20
70.29999258422868
 30
0.0
 10
56.49999618530273
 20
70.29999258422868
 30
0.0
 10
55.89999771118164
 20
70.29999258422868
 30
0.0
 10
55.89999771118164
 20
70.29999258422868
 30
0.0
 10
56.31807327270508
 20
71.01500799560563
 30
0.0
 10
56.19425201416016
 20
71.92302420043961
 30
0.0
 10
55.59999847412109
 20
72.49999334716813
 30
0.0
 10
55.16634750366211
 20
73.08730032348649
 30
0.0
 10
54.52045822143555
 20
73.4820070495607
 30
0.0
 10
53.79999923706055
 20
73.59999182128922
 30
0.0
 10
53.0462760925293
 20
73.79922583007829
 30
0.0
 10
52.25372314453125
 20
73.79922583007829
 30
0.0
 10
51.5
 20
73.59999182128922
 30
0.0
 10
50.69636535644531
 20
73.40473272705094
 30
0.0
 10
49.9227294921875
 20
73.1020021667482
 30
0.0
 10
49.20000076293945
 20
72.69999029541032
 30
0.0
 10
48.49925994873047
 20
72.3744859924318
 30
0.0
 10
47.85724639892578
 20
71.93521597290055
 30
0.0
 10
47.29999923706055
 20
71.39999105834977
 30
0.0
 10
46.74380493164062
 20
70.8168916931154
 30
0.0
 10
46.36265182495117
 20
70.08923437500016
 30
0.0
 10
46.20000076293945
 20
69.29999258422868
 30
0.0
 10
46.03229522705078
 20
68.67065527343766
 30
0.0
 10
46.18153762817383
 20
67.99907019042985
 30
0.0
 10
46.60000228881836
 20
67.49999334716813
 30
0.0
 10
47.20000076293945
 20
66.79999258422868
 30
0.0
 10
48.30000305175781
 20
66.59999182128922
 30
0.0
 10
49.80000305175781
 20
66.99999334716813
 30
0.0
 10
49.80000305175781
 20
66.99999334716813
 30
0.0
 10
49.80000305175781
 20
66.99999334716813
 30
0.0
 10
49.80000305175781
 20
66.99999334716813
 30
0.0
 10
49.40948867797852
 20
66.58960440063493
 30
0.0
 10
49.16369247436523
 20
66.06290151977555
 30
0.0
 10
49.10000228881836
 20
65.49999334716813
 30
0.0
 10
49.0009765625
 20
64.9961786499025
 30
0.0
 10
49.14975738525391
 20
64.47544195556657
 30
0.0
 10
49.50000381469727
 20
64.09999182128922
 30
0.0
 10
49.64607238769531
 20
63.85249044799821
 30
0.0
 10
49.85250091552734
 20
63.64606192016618
 30
0.0
 10
50.10000228881836
 20
63.49999334716813
 30
0.0
 10
50.38665771484375
 20
63.28347494506852
 30
0.0
 10
50.74150085449219
 20
63.17702200317399
 30
0.0
 10
51.10000228881836
 20
63.19999411010758
 30
0.0
 10
51.66831588745117
 20
63.13967993164079
 30
0.0
 10
52.24267959594727
 20
63.17346670532243
 30
0.0
 10
52.80000305175781
 20
63.29999258422868
 30
0.0
 10
52.80000305175781
 20
63.29999258422868
 30
0.0
 10
53.40000152587891
 20
63.49999334716813
 30
0.0
 10
53.40000152587891
 20
63.49999334716813
 30
0.0
 10
52.99302291870117
 20
62.93534185791032
 30
0.0
 10
52.71948623657227
 20
62.28569509887711
 30
0.0
 10
52.60000228881836
 20
61.59999182128922
 30
0.0
 10
52.41658401489258
 20
60.7502298583986
 30
0.0
 10
52.63827514648438
 20
59.86347296142594
 30
0.0
 10
53.20000076293945
 20
59.19999029541032
 30
0.0
 10
53.20000076293945
 20
59.19999029541032
 30
0.0
 10
53.79999923706055
 20
58.59999182128922
 30
0.0
 10
53.79999923706055
 20
58.59999182128922
 30
0.0
 10
53.79999923706055
 20
58.59999182128922
 30
0.0
 10
54.70000076293945
 20
57.99999334716813
 30
0.0
 10
54.70000076293945
 20
57.99999334716813
 30
0.0
 10
54.70000076293945
 20
57.99999334716813
 30
0.0
 10
56.10000228881836
 20
57.59999182128922
 30
0.0
 10
56.10000228881836
 20
57.59999182128922
 30
0.0
 10
56.10000228881836
 20
57.59999182128922
 30
0.0
 10
56.70000076293945
 20
57.59999182128922
 30
0.0
 10
56.70000076293945
 20
57.59999182128922
 30
0.0
 10
56.70000076293945
 20
57.59999182128922
 30
0.0
 10
55.5
 20
57.09999182128922
 30
0.0
 10
55.5
 20
57.09999182128922
 30
0.0
 10
55.5
 20
56.99999334716813
 30
0.0
 10
55.5
 20
56.99999334716813
 30
0.0
 10
55.40000152587891
 20
56.99999334716813
 30
0.0
 10
55.40000152587891
 20
56.99999334716813
 30
0.0
 10
55.40000152587891
 20
56.79999639892594
 30
0.0
 10
55.40000152587891
 20
56.79999639892594
 30
0.0
 10
55.40000152587891
 20
56.79999639892594
 30
0.0
 10
56.60000228881836
 20
55.39999487304704
 30
0.0
 10
56.60000228881836
 20
55.39999487304704
 30
0.0
 10
56.60000228881836
 20
55.29999639892594
 30
0.0
 10
56.70000076293945
 20
55.29999639892594
 30
0.0
 10
56.80000305175781
 20
55.29999639892594
 30
0.0
 10
56.80000305175781
 20
55.29999639892594
 30
0.0
 10
61.50000381469727
 20
57.39999487304704
 30
0.0
 10
61.50000381469727
 20
57.39999487304704
 30
0.0
 10
61.50000381469727
 20
57.39999487304704
 30
0.0
 10
61.60000228881836
 20
57.39999487304704
 30
0.0
 10
61.60000228881836
 20
57.39999487304704
 30
0.0
 10
61.80000305175781
 20
57.19999792480485
 30
0.0
 10
61.80000305175781
 20
56.89999487304704
 30
0.0
 10
61.70000076293945
 20
56.49999334716813
 30
0.0
 10
61.70000076293945
 20
56.49999334716813
 30
0.0
 10
61.0
 20
55.29999639892594
 30
0.0
 10
61.0
 20
55.29999639892594
 30
0.0
 10
61.0
 20
55.29999639892594
 30
0.0
 10
60.09999847412109
 20
54.09999945068375
 30
0.0
 10
60.09999847412109
 20
54.09999945068375
 30
0.0
 10
59.79964828491211
 20
53.68303778076188
 30
0.0
 10
59.59479904174805
 20
53.20505621337907
 30
0.0
 10
59.5
 20
52.69999792480485
 30
0.0
 10
59.47335052490234
 20
52.21514227294938
 30
0.0
 10
59.65531539916992
 20
51.7420282592775
 30
0.0
 10
60.0
 20
51.39999487304704
 30
0.0
 10
60.0
 20
51.39999487304704
 30
0.0
 10
60.70000076293945
 20
50.69999792480485
 30
0.0
 10
60.70000076293945
 20
50.69999792480485
 30
0.0
 10
61.01306915283203
 20
50.55592443847672
 30
0.0
 10
61.3556022644043
 20
50.48742010498063
 30
0.0
 10
61.70000076293945
 20
50.50000097656266
 30
0.0
 10
62.26831436157227
 20
50.43969061279313
 30
0.0
 10
62.84267807006836
 20
50.4734735717775
 30
0.0
 10
63.40000152587891
 20
50.59999945068375
 30
0.0
 10
63.40000152587891
 20
50.59999945068375
 30
0.0
 10
63.40000152587891
 20
50.59999945068375
 30
0.0
 10
63.40000152587891
 20
50.59999945068375
 30
0.0
 10
63.27409744262695
 20
50.50557043457047
 30
0.0
 10
63.20000076293945
 20
50.35737707519547
 30
0.0
 10
63.20000076293945
 20
50.19999792480485
 30
0.0
 10
62.91641998291016
 20
49.67953588867204
 30
0.0
 10
62.77824783325195
 20
49.09230902099625
 30
0.0
 10
62.79999923706055
 20
48.50000097656266
 30
0.0
 10
62.78161239624023
 20
47.87843420410172
 30
0.0
 10
62.99553298950195
 20
47.27233221435563
 30
0.0
 10
63.39999771118164
 20
46.80000402832047
 30
0.0
 10
63.39999771118164
 20
46.80000402832047
 30
0.0
 10
64.29999542236328
 20
45.90000250244157
 30
0.0
 10
64.29999542236328
 20
45.90000250244157
 30
0.0
 10
64.29999542236328
 20
45.90000250244157
 30
0.0
 10
64.99999237060547
 20
45.50000097656266
 30
0.0
 10
64.99999237060547
 20
45.50000097656266
 30
0.0
 10
64.99999237060547
 20
45.50000097656266
 30
0.0
 10
62.09999084472656
 20
44.69999792480485
 30
0.0
 10
62.09999084472656
 20
44.69999792480485
 30
0.0
 10
62.09999084472656
 20
44.69999792480485
 30
0.0
 10
59.69998931884766
 20
46.59999945068375
 30
0.0
 10
59.69998931884766
 20
46.59999945068375
 30
0.0
 10
59.69998931884766
 20
46.59999945068375
 30
0.0
 10
59.39999008178711
 20
43.50000097656266
 30
0.0
 10
59.39999008178711
 20
43.50000097656266
 30
0.0
 10
59.39999008178711
 20
43.50000097656266
 30
0.0
 10
57.29999160766602
 20
42.40000250244157
 30
0.0
 10
57.29999160766602
 20
42.40000250244157
 30
0.0
 10
57.29999160766602
 20
42.40000250244157
 30
0.0
 10
60.19999313354492
 20
50.00000097656266
 30
0.0
 10
60.19999313354492
 20
50.00000097656266
 30
0.0
 10
60.19999313354492
 20
50.00000097656266
 30
0.0
 10
52.19999313354492
 20
48.00000097656266
 30
0.0
 10
52.19999313354492
 20
48.00000097656266
 30
0.0
 10
52.19999313354492
 20
48.00000097656266
 30
0.0
 10
47.59999465942383
 20
51.69999792480485
 30
0.0
 10
47.59999465942383
 20
51.69999792480485
 30
0.0
 10
47.59999465942383
 20
51.69999792480485
 30
0.0
 10
49.49999618530273
 20
53.59999945068375
 30
0.0
 10
49.49999618530273
 20
53.59999945068375
 30
0.0
 10
49.49999618530273
 20
53.59999945068375
 30
0.0
 10
52.89999771118164
 20
53.59999945068375
 30
0.0
 10
52.89999771118164
 20
53.59999945068375
 30
0.0
 10
52.89999771118164
 20
53.59999945068375
 30
0.0
 10
51.09999847412109
 20
56.59999945068375
 30
0.0
 10
51.09999847412109
 20
56.59999945068375
 30
0.0
 10
51.09999847412109
 20
56.59999945068375
 30
0.0
 10
52.29999923706055
 20
60.40000250244157
 30
0.0
 10
52.29999923706055
 20
60.40000250244157
 30
0.0
 10
52.29999923706055
 20
60.40000250244157
 30
0.0
 10
48.70000076293945
 20
59.19999792480485
 30
0.0
 10
48.70000076293945
 20
59.19999792480485
 30
0.0
 10
48.70000076293945
 20
59.19999792480485
 30
0.0
 10
45.90000152587891
 20
61.79999639892594
 30
0.0
 10
45.90000152587891
 20
61.79999639892594
 30
0.0
 10
45.90000152587891
 20
61.79999639892594
 30
0.0
 10
45.5
 20
57.79999639892594
 30
0.0
 10
45.5
 20
57.79999639892594
 30
0.0
 10
45.5
 20
57.79999639892594
 30
0.0
 10
44.0
 20
57.09999945068375
 30
0.0
 10
44.0
 20
57.09999945068375
 30
0.0
 10
44.0
 20
57.09999945068375
 30
0.0
 10
41.5
 20
60.90000250244157
 30
0.0
 10
41.5
 20
60.90000250244157
 30
0.0
 10
41.5
 20
60.90000250244157
 30
0.0
 10
43.59999847412109
 20
67.00000097656266
 30
0.0
 10
43.59999847412109
 20
67.00000097656266
 30
0.0
 10
43.59999847412109
 20
67.00000097656266
 30
0.0
 10
37.29999923706055
 20
65.3000002136232
 30
0.0
 10
37.29999923706055
 20
65.3000002136232
 30
0.0
 10
37.29999923706055
 20
65.3000002136232
 30
0.0
 10
33.89999771118164
 20
68.50000097656266
 30
0.0
 10
33.89999771118164
 20
68.50000097656266
 30
0.0
 10
33.89999771118164
 20
68.50000097656266
 30
0.0
 10
35.29999923706055
 20
70.19999792480485
 30
0.0
 10
35.29999923706055
 20
70.19999792480485
 30
0.0
 10
35.29999923706055
 20
70.19999792480485
 30
0.0
 10
35.5
 20
70.19999792480485
 30
0.0
 10
35.5
 20
70.19999792480485
 30
0.0
 10
36.47690582275391
 20
70.1192140808107
 30
0.0
 10
37.46031951904297
 20
70.2209444274904
 30
0.0
 10
38.40000152587891
 20
70.4999971618654
 30
0.0
 10
38.40000152587891
 20
70.4999971618654
 30
0.0
 10
38.70000076293945
 20
70.4999971618654
 30
0.0
 10
38.70000076293945
 20
70.4999971618654
 30
0.0
 10
38.70000076293945
 20
70.4999971618654
 30
0.0
 10
40.0
 20
70.79999639892594
 30
0.0
 10
40.0
 20
70.79999639892594
 30
0.0
 10
41.90000152587891
 20
71.39999487304704
 30
0.0
 10
44.40000152587891
 20
72.4999971618654
 30
0.0
 10
47.59999847412109
 20
73.89999487304704
 30
0.0
 10
47.59999847412109
 20
73.89999487304704
 30
0.0
 10
50.29999923706055
 20
75.19999792480485
 30
0.0
 10
50.29999923706055
 20
75.19999792480485
 30
0.0
 10
50.29999923706055
 20
75.19999792480485
 30
0.0
 10
53.20000076293945
 20
76.59999945068375
 30
0.0
 10
53.20000076293945
 20
76.59999945068375
 30
0.0
 10
53.20000076293945
 20
76.59999945068375
 30
0.0
 10
55.5
 20
77.59999945068375
 30
0.0
 10
55.5
 20
77.59999945068375
 30
0.0
 10
55.5
 20
77.59999945068375
 30
0.0
 10
58.0
 20
78.3999986877443
 30
0.0
 10
58.0
 20
78.3999986877443
 30
0.0
 10
58.0
 20
78.3999986877443
 30
0.0
 10
60.0
 20
78.59999945068375
 30
0.0
 10
60.0
 20
78.59999945068375
 30
0.0
 10
60.0
 20
78.59999945068375
 30
0.0
 10
61.0
 20
77.19999792480485
 30
0.0
 10
61.0
 20
77.19999792480485
 30
0.0
 10
61.16635513305664
 20
76.91011526489274
 30
0.0
 10
61.46653366088867
 20
76.72250082397477
 30
0.0
 10
61.79999923706055
 20
76.69999792480485
 30
0.0
 10
62.14689254760742
 20
76.76295568847672
 30
0.0
 10
62.46327972412109
 20
76.93872549438493
 30
0.0
 10
62.70000076293945
 20
77.19999792480485
 30
0.0
 10
62.90000152587891
 20
77.29999639892594
 30
0.0
 10
62.90000152587891
 20
77.4999971618654
 30
0.0
 10
62.90000152587891
 20
77.79999639892594
 30
0.0
 10
62.8962287902832
 20
78.04688360595719
 30
0.0
 10
62.82722854614258
 20
78.28838446044938
 30
0.0
 10
62.70000076293945
 20
78.4999971618654
 30
0.0
 10
62.16575241088867
 20
79.10921957397477
 30
0.0
 10
61.47365188598633
 20
79.55908682250993
 30
0.0
 10
60.70000076293945
 20
79.79999639892594
 30
0.0
 10
60.70000076293945
 20
79.79999639892594
 30
0.0
 10
59.90000152587891
 20
81.19999792480485
 30
0.0
 10
59.90000152587891
 20
81.19999792480485
 30
0.0
 10
59.90000152587891
 20
81.19999792480485
 30
0.0
 10
59.0
 20
82.79999639892594
 30
0.0
 10
59.0
 20
82.79999639892594
 30
0.0
 10
58.6985969543457
 20
83.25697805786149
 30
0.0
 10
58.36438369750977
 20
83.69145681762711
 30
0.0
 10
58.0
 20
84.09999563598649
 30
0.0
 10
57.51781463623047
 20
84.68213369750993
 30
0.0
 10
56.98213958740234
 20
85.21780874633805
 30
0.0
 10
56.40000152587891
 20
85.69999411010758
 30
0.0
 10
78.16016387939453
 20
80.06480123901383
 30
0.0
 10
91.2320327758789
 20
57.85647680664079
 30
0.0
 10
85.59683990478516
 20
36.09631445312516
 30
0.0
 10
84.89998626708984
 20
33.40544226074235
 30
0.0
 10
83.92930603027344
 20
30.79303076171891
 30
0.0
 10
82.69999694824219
 20
28.29999639892594
 30
0.0
  0
SPLINE
  5
1B2
330
1F
100
AcDbEntity
  8
LAYER_1
 62
   178
100
AcDbSpline
210
0.0
220
0.0
230
1.0
 70
    11
 71
     3
 72
    26
 73
    22
 74
     0
 42
0.0000000001
 43
0.0000000001
 12
1.0
 22
0.0
 32
0.0
 13
1.0
 23
0.0
 33
0.0
 40
0.0
 40
0.0
 40
0.0
 40
0.0
 40
1.0
 40
1.0
 40
1.0
 40
2.0
 40
2.0
 40
2.0
 40
3.0
 40
3.0
 40
3.0
 40
4.0
 40
4.0
 40
4.0
 40
5.0
 40
5.0
 40
5.0
 40
6.0
 40
6.0
 40
6.0
 40
7.0
 40
7.0
 40
7.0
 40
7.0
 10
62.40000152587891
 20
57.79999639892594
 30
0.0
 10
62.40000152587891
 20
57.79999639892594
 30
0.0
 10
62.80000305175781
 20
57.79999639892594
 30
0.0
 10
62.80000305175781
 20
57.79999639892594
 30
0.0
 10
64.73333740234375
 20
57.99999334716813
 30
0.0
 10
65.93334197998047
 20
57.79999639892594
 30
0.0
 10
66.4000015258789
 20
57.19999792480485
 30
0.0
 10
66.56568908691406
 20
57.05387976074235
 30
0.0
 10
66.58154296875
 20
56.8011102905275
 30
0.0
 10
66.4354248046875
 20
56.63542272949235
 30
0.0
 10
66.42436981201172
 20
56.6228876342775
 30
0.0
 10
66.41253662109375
 20
56.61105444335954
 30
0.0
 10
66.4000015258789
 20
56.59999945068375
 30
0.0
 10
65.93869018554688
 20
56.26501562500016
 30
0.0
 10
65.35133361816406
 20
56.15488531494157
 30
0.0
 10
64.80000305175781
 20
56.29999639892594
 30
0.0
 10
64.01815032958984
 20
56.42362310791032
 30
0.0
 10
63.28879547119141
 20
56.77093603515641
 30
0.0
 10
62.70000457763672
 20
57.29999639892594
 30
0.0
 10
62.70000457763672
 20
57.29999639892594
 30
0.0
 10
62.40000152587891
 20
57.79999639892594
 30
0.0
 10
62.40000152587891
 20
57.79999639892594
 30
0.0
  0
SPLINE
  5
1B3
330
1F
100
AcDbEntity
  8
LAYER_1
 62
   178
100
AcDbSpline
210
0.0
220
0.0
230
1.0
 70
    11
 71
     3
 72
    29
 73
    25
 74
     0
 42
0.0000000001
 43
0.0000000001
 12
1.0
 22
0.0
 32
0.0
 13
1.0
 23
0.0
 33
0.0
 40
0.0
 40
0.0
 40
0.0
 40
0.0
 40
1.0
 40
1.0
 40
1.0
 40
2.0
 40
2.0
 40
2.0
 40
3.0
 40
3.0
 40
3.0
 40
4.0
 40
4.0
 40
4.0
 40
5.0
 40
5.0
 40
5.0
 40
6.0
 40
6.0
 40
6.0
 40
7.0
 40
7.0
 40
7.0
 40
8.0
 40
8.0
 40
8.0
 40
8.0
 10
48.20000076293945
 20
68.29999639892594
 30
0.0
 10
48.10000228881836
 20
68.39999487304704
 30
0.0
 10
48.10000228881836
 20
68.59999563598649
 30
0.0
 10
48.10000228881836
 20
68.89999487304704
 30
0.0
 10
48.10000228881836
 20
68.89999487304704
 30
0.0
 10
48.50000381469727
 20
69.59999563598649
 30
0.0
 10
48.50000381469727
 20
69.59999563598649
 30
0.0
 10
49.82236862182617
 20
70.86431982421891
 30
0.0
 10
51.49512481689453
 20
71.70069982910172
 30
0.0
 10
53.30000305175781
 20
71.9999971618654
 30
0.0
 10
53.91609954833984
 20
72.14090063476579
 30
0.0
 10
54.56290817260742
 20
72.03309729003922
 30
0.0
 10
55.10000228881836
 20
71.69999792480485
 30
0.0
 10
55.20026016235352
 20
71.37420370483414
 30
0.0
 10
55.20026016235352
 20
71.02579214477555
 30
0.0
 10
55.10000228881836
 20
70.69999792480485
 30
0.0
 10
54.86617660522461
 20
70.25439550781266
 30
0.0
 10
54.56230926513672
 20
69.84923651123063
 30
0.0
 10
54.20000076293945
 20
69.4999971618654
 30
0.0
 10
54.20000076293945
 20
69.4999971618654
 30
0.0
 10
52.40000152587891
 20
68.59999563598649
 30
0.0
 10
52.40000152587891
 20
68.59999563598649
 30
0.0
 10
50.13333129882812
 20
67.93333151245133
 30
0.0
 10
48.73333358764648
 20
67.83332922363297
 30
0.0
 10
48.20000076293945
 20
68.29999639892594
 30
0.0
  0
ENDSEC
  0
SECTION
  2
OBJECTS
  0
DICTIONARY
  5
C
330
0
100
AcDbDictionary
  3
ACAD_GROUP
350
D
  3
ACAD_LAYOUT
350
1A
  3
ACAD_MATERIAL
350
3B
  3
ACAD_MLEADERSTYLE
350
1D6
  3
ACAD_MLINESTYLE
350
17
  3
ACAD_PLOTSETTINGS
350
19
  3
ACAD_VISUALSTYLE
350
2A
  3
ACDBHEADERROUNDTRIPXREC
350
1B4
  3
ACDBVARIABLEDICTIONARY
350
1D4
  0
DICTIONARY
  5
D
102
{ACAD_REACTORS
330
C
102
}
330
C
100
AcDbDictionary
  0
DICTIONARY
  5
1A
102
{ACAD_REACTORS
330
C
102
}
330
C
100
AcDbDictionary
  0
DICTIONARY
  5
3B
102
{ACAD_REACTORS
330
C
102
}
330
C
100
AcDbDictionary
  3
BYBLOCK
350
3D
  3
BYLAYER
350
3C
  3
GLOBAL
350
3E
  0
DICTIONARY
  5
1D6
102
{ACAD_REACTORS
330
C
102
}
330
C
100
AcDbDictionary
  0
DICTIONARY
  5
17
102
{ACAD_REACTORS
330
C
102
}
330
C
100
AcDbDictionary
  3
STANDARD
350
18
  0
DICTIONARY
  5
19
102
{ACAD_REACTORS
330
C
102
}
330
C
100
AcDbDictionary
  0
DICTIONARY
  5
2A
102
{ACAD_REACTORS
330
C
102
}
330
C
100
AcDbDictionary
  3
2DWIREFRAME
350
2F
  3
3D_HIDDEN
350
31
  3
3DWIREFRAME
350
30
  3
BASIC
350
32
  3
BRIGHTEN
350
36
  3
COLORCHANGE
350
3A
  3
CONCEPTUAL
350
34
  3
DIM
350
35
  3
FACEPATTERN
350
39
  3
FLAT
350
2B
  3
FLATWITHEDGES
350
2C
  3
GOURAUD
350
2D
  3
GOURAUDWITHEDGES
350
2E
  3
LINEPATTERN
350
38
  3
REALISTIC
350
33
  3
THICKEN
350
37
  0
DICTIONARY
  5
1B4
102
{ACAD_REACTORS
330
C
102
}
330
C
100
AcDbDictionary
  3
CEPSNTYPE
350
1BD
  3
DIMSTYLEDATA
350
1D3
  3
FINGERPRINTGUID
350
1BE
  3
HYPERLINKBASE
350
1B7
  3
INSUNITS
350
1BC
  3
LAYOUTDICT
350
1B9
  3
LWETCUNION
350
1BB
  3
PLOTSETDICT
350
1BA
  3
PSVPSCALE
350
1C0
  3
PUCSBASE
350
1C3
  3
PUCSORGBACK
350
1C9
  3
PUCSORGBOTTOM
350
1C5
  3
PUCSORGFRONT
350
1C8
  3
PUCSORGLEFT
350
1C6
  3
PUCSORGRIGHT
350
1C7
  3
PUCSORGTOP
350
1C4
  3
PUCSORTHOREF
350
1C1
  3
PUCSORTHOVIEW
350
1C2
  3
STYLESHEET
350
1B8
  3
TSTACKALIGN
350
1B5
  3
TSTACKSIZE
350
1B6
  3
UCSBASE
350
1CC
  3
UCSORGBACK
350
1D2
  3
UCSORGBOTTOM
350
1CE
  3
UCSORGFRONT
350
1D1
  3
UCSORGLEFT
350
1CF
  3
UCSORGRIGHT
350
1D0
  3
UCSORGTOP
350
1CD
  3
UCSORTHOREF
350
1CA
  3
UCSORTHOVIEW
350
1CB
  3
VERSIONGUID
350
1BF
  0
DICTIONARY
  5
1D4
102
{ACAD_REACTORS
330
C
102
}
330
C
100
AcDbDictionary
  3
DIMASSOC
350
1D7
  3
HIDETEXT
350
1D8
  0
MATERIAL
  5
3D
102
{ACAD_REACTORS
330
3B
102
}
102
{ACAD_XDICTIONARY
360
1DB
102
}
330
3B
100
AcDbMaterial
  1
ByBlock
  0
MATERIAL
  5
3C
102
{ACAD_REACTORS
330
3B
102
}
102
{ACAD_XDICTIONARY
360
1D9
102
}
330
3B
100
AcDbMaterial
  1
ByLayer
  0
MATERIAL
  5
3E
102
{ACAD_REACTORS
330
3B
102
}
102
{ACAD_XDICTIONARY
360
1DD
102
}
330
3B
100
AcDbMaterial
  1
Global
  0
MLINESTYLE
  5
18
102
{ACAD_REACTORS
330
17
102
}
330
17
100
AcDbMlineStyle
  2
Standard
 70
     0
  3

 62
   256
 51
90.0
 52
90.0
 71
     2
 49
0.5
 62
   256
  6
BYLAYER
 49
-0.5
 62
   256
  6
BYLAYER
  0
ACAD_PROXY_OBJECT
  5
2F
102
{ACAD_REACTORS
330
2A
102
}
330
2A
100
AcDbProxyObject
 90
      499
 91
      501
 93
      436
310
42CC9915DA5C99599C985B595049028333333333333E3BF0000000000000FB0107901411070040501600405405064090741402480A0340
1001
ACAD
1000
AcDbSavedByObjectVersion
1070
     0
  0
ACAD_PROXY_OBJECT
  5
31
102
{ACAD_REACTORS
330
2A
102
}
330
2A
100
AcDbProxyObject
 90
      499
 91
      501
 93
      500
310
424CD108121A5919195B90640502408333333333333E3BF0000000000000FB01079024090700405020000000000001110200405405064090740C02480A0340
1001
ACAD
1000
AcDbSavedByObjectVersion
1070
     0
  0
ACAD_PROXY_OBJECT
  5
30
102
{ACAD_REACTORS
330
2A
102
}
330
2A
100
AcDbProxyObject
 90
      499
 91
      501
 93
      436
310
42CCD915DA5C99599C985B595059028333333333333E3BF0000000000000FB0107901411070040501600405405064090741402480A0340
1001
ACAD
1000
AcDbSavedByObjectVersion
1070
     0
  0
ACAD_PROXY_OBJECT
  5
32
102
{ACAD_REACTORS
330
2A
102
}
330
2A
100
AcDbProxyObject
 90
      499
 91
      501
 93
      388
310
4150985CDA58D07406404333333333333E3BF0000000000000FB0107A41107004050150841D405064090741402480A0350
1001
ACAD
1000
AcDbSavedByObjectVersion
1070
     0
  0
ACAD_PROXY_OBJECT
  5
36
102
{ACAD_REACTORS
330
2A
102
}
330
2A
100
AcDbProxyObject
 90
      499
 91
      501
 93
      428
310
42109C9A59DA1D195B90C409028333333333333E3BF0000000000000FB010790141107004050150841D405064090741402480A029950
1001
ACAD
1000
AcDbSavedByObjectVersion
1070
     0
  0
ACAD_PROXY_OBJECT
  5
3A
102
{ACAD_REACTORS
330
2A
102
}
330
2A
100
AcDbProxyObject
 90
      499
 91
      501
 93
      452
310
42D0DBDB1BDC90DA185B99D95104090240C333333333333E3BF0000000000000FB0108901411070040501508421405064090741402480A0350
1001
ACAD
1000
AcDbSavedByObjectVersion
1070
     0
  0
ACAD_PROXY_OBJECT
  5
34
102
{ACAD_REACTORS
330
2A
102
}
330
2A
100
AcDbProxyObject
 90
      499
 91
      501
 93
      500
310
4290DBDB98D95C1D1D585B10940D028333333333333E3BF0000000000000FB0107902409070040501000000000000111010841D405064090740C02480A0340
1001
ACAD
1000
AcDbSavedByObjectVersion
1070
     0
  0
ACAD_PROXY_OBJECT
  5
35
102
{ACAD_REACTORS
330
2A
102
}
330
2A
100
AcDbProxyObject
 90
      499
 91
      501
 93
      412
310
40D11A5B50B409028333333333333E3BF0000000000000FB010790141107004050150841D405064090741402480A02677FFFFFD0
1001
ACAD
1000
AcDbSavedByObjectVersion
1070
     0
  0
ACAD_PROXY_OBJECT
  5
39
102
{ACAD_REACTORS
330
2A
102
}
330
2A
100
AcDbProxyObject
 90
      499
 91
      501
 93
      444
310
42D19858D95C185D1D195C9B90F409028333333333333E3BF0000000000000FB010790141107004050150841D405064090741402480A0350
1001
ACAD
1000
AcDbSavedByObjectVersion
1070
     0
  0
ACAD_PROXY_OBJECT
  5
2B
102
{ACAD_REACTORS
330
2A
102
}
330
2A
100
AcDbProxyObject
 90
      499
 91
      501
 93
      388
310
41119B185D240901404333333333333E3BF0000000000000F9010740A41107004050150841D405064090741402480A1B50
1001
ACAD
1000
AcDbSavedByObjectVersion
1070
     0
  0
ACAD_PROXY_OBJECT
  5
2C
102
{ACAD_REACTORS
330
2A
102
}
330
2A
100
AcDbProxyObject
 90
      499
 91
      501
 93
      476
310
43519B185D15DA5D1A115919D95CD0140901404333333333333E3BF0000000000000F9010740901411070040501600405405064090741402480A1B50
1001
ACAD
1000
AcDbSavedByObjectVersion
1070
     0
  0
ACAD_PROXY_OBJECT
  5
2D
102
{ACAD_REACTORS
330
2A
102
}
330
2A
100
AcDbProxyObject
 90
      499
 91
      501
 93
      412
310
41D1DBDD5C985D5910240902404333333333333E3BF0000000000000F9010740A411070040501641D405064090741402480A1B50
1001
ACAD
1000
AcDbSavedByObjectVersion
1070
     0
  0
ACAD_PROXY_OBJECT
  5
2E
102
{ACAD_REACTORS
330
2A
102
}
330
2A
100
AcDbProxyObject
 90
      499
 91
      501
 93
      500
310
4411DBDD5C985D5915DA5D1A115919D95CD0340902404333333333333E3BF0000000000000F9010740901411070040501600405405064090741402480A1B50
1001
ACAD
1000
AcDbSavedByObjectVersion
1070
     0
  0
ACAD_PROXY_OBJECT
  5
38
102
{ACAD_REACTORS
330
2A
102
}
330
2A
100
AcDbProxyObject
 90
      499
 91
      501
 93
      444
310
42D31A5B995C185D1D195C9B90E409028333333333333E3BF0000000000000FB010790141107004050750841D405064090741402483A0350
1001
ACAD
1000
AcDbSavedByObjectVersion
1070
     0
  0
ACAD_PROXY_OBJECT
  5
33
102
{ACAD_REACTORS
330
2A
102
}
330
2A
100
AcDbProxyObject
 90
      499
 91
      501
 93
      420
310
425499585B1A5CDD1A58D08409028333333333333E3BF0000000000000FB01079019070040501508421405064090741402480A1B40
1001
ACAD
1000
AcDbSavedByObjectVersion
1070
     0
  0
ACAD_PROXY_OBJECT
  5
37
102
{ACAD_REACTORS
330
2A
102
}
330
2A
100
AcDbProxyObject
 90
      499
 91
      501
 93
      412
310
41D51A1A58DAD95B90D409028333333333333E3BF0000000000000FB010790141107004050150C41D405064090741402480A0350
1001
ACAD
1000
AcDbSavedByObjectVersion
1070
     0
  0
XRECORD
  5
1BD
102
{ACAD_REACTORS
330
1B4
102
}
330
1B4
100
AcDbXrecord
 90
        0
  0
XRECORD
  5
1D3
102
{ACAD_REACTORS
330
1B4
102
}
330
1B4
100
AcDbXrecord
1000
DSTYLE
1002
{
1070
   340
340
11
1002
}
  0
XRECORD
  5
1BE
102
{ACAD_REACTORS
330
1B4
102
}
330
1B4
100
AcDbXrecord
  1
{C9EE0513-6435-49D7-BDD8-6C7788D66A2D}
  0
XRECORD
  5
1B7
102
{ACAD_REACTORS
330
1B4
102
}
330
1B4
100
AcDbXrecord
  1

  0
XRECORD
  5
1BC
102
{ACAD_REACTORS
330
1B4
102
}
330
1B4
100
AcDbXrecord
 90
        0
  0
XRECORD
  5
1B9
102
{ACAD_REACTORS
330
1B4
102
}
330
1B4
100
AcDbXrecord
340
1A
  0
XRECORD
  5
1BB
102
{ACAD_REACTORS
330
1B4
102
}
330
1B4
100
AcDbXrecord
 90
    10269
  0
XRECORD
  5
1BA
102
{ACAD_REACTORS
330
1B4
102
}
330
1B4
100
AcDbXrecord
340
19
  0
XRECORD
  5
1C0
102
{ACAD_REACTORS
330
1B4
102
}
330
1B4
100
AcDbXrecord
 40
0.0
  0
XRECORD
  5
1C3
102
{ACAD_REACTORS
330
1B4
102
}
330
1B4
100
AcDbXrecord
340
0
  0
XRECORD
  5
1C9
102
{ACAD_REACTORS
330
1B4
102
}
330
1B4
100
AcDbXrecord
 10
0.0
 20
0.0
 30
0.0
  0
XRECORD
  5
1C5
102
{ACAD_REACTORS
330
1B4
102
}
330
1B4
100
AcDbXrecord
 10
0.0
 20
0.0
 30
0.0
  0
XRECORD
  5
1C8
102
{ACAD_REACTORS
330
1B4
102
}
330
1B4
100
AcDbXrecord
 10
0.0
 20
0.0
 30
0.0
  0
XRECORD
  5
1C6
102
{ACAD_REACTORS
330
1B4
102
}
330
1B4
100
AcDbXrecord
 10
0.0
 20
0.0
 30
0.0
  0
XRECORD
  5
1C7
102
{ACAD_REACTORS
330
1B4
102
}
330
1B4
100
AcDbXrecord
 10
0.0
 20
0.0
 30
0.0
  0
XRECORD
  5
1C4
102
{ACAD_REACTORS
330
1B4
102
}
330
1B4
100
AcDbXrecord
 10
0.0
 20
0.0
 30
0.0
  0
XRECORD
  5
1C1
102
{ACAD_REACTORS
330
1B4
102
}
330
1B4
100
AcDbXrecord
340
0
  0
XRECORD
  5
1C2
102
{ACAD_REACTORS
330
1B4
102
}
330
1B4
100
AcDbXrecord
 70
     0
  0
XRECORD
  5
1B8
102
{ACAD_REACTORS
330
1B4
102
}
330
1B4
100
AcDbXrecord
  1

  0
XRECORD
  5
1B5
102
{ACAD_REACTORS
330
1B4
102
}
330
1B4
100
AcDbXrecord
 90
        1
  0
XRECORD
  5
1B6
102
{ACAD_REACTORS
330
1B4
102
}
330
1B4
100
AcDbXrecord
 90
       70
  0
XRECORD
  5
1CC
102
{ACAD_REACTORS
330
1B4
102
}
330
1B4
100
AcDbXrecord
340
0
  0
XRECORD
  5
1D2
102
{ACAD_REACTORS
330
1B4
102
}
330
1B4
100
AcDbXrecord
 10
0.0
 20
0.0
 30
0.0
  0
XRECORD
  5
1CE
102
{ACAD_REACTORS
330
1B4
102
}
330
1B4
100
AcDbXrecord
 10
0.0
 20
0.0
 30
0.0
  0
XRECORD
  5
1D1
102
{ACAD_REACTORS
330
1B4
102
}
330
1B4
100
AcDbXrecord
 10
0.0
 20
0.0
 30
0.0
  0
XRECORD
  5
1CF
102
{ACAD_REACTORS
330
1B4
102
}
330
1B4
100
AcDbXrecord
 10
0.0
 20
0.0
 30
0.0
  0
XRECORD
  5
1D0
102
{ACAD_REACTORS
330
1B4
102
}
330
1B4
100
AcDbXrecord
 10
0.0
 20
0.0
 30
0.0
  0
XRECORD
  5
1CD
102
{ACAD_REACTORS
330
1B4
102
}
330
1B4
100
AcDbXrecord
 10
0.0
 20
0.0
 30
0.0
  0
XRECORD
  5
1CA
102
{ACAD_REACTORS
330
1B4
102
}
330
1B4
100
AcDbXrecord
340
0
  0
XRECORD
  5
1CB
102
{ACAD_REACTORS
330
1B4
102
}
330
1B4
100
AcDbXrecord
 70
     0
  0
XRECORD
  5
1BF
102
{ACAD_REACTORS
330
1B4
102
}
330
1B4
100
AcDbXrecord
  1
{FAEB1C32-E019-11D5-929B-00C0DF256EC4}
  0
DICTIONARYVAR
  5
1D7
102
{ACAD_REACTORS
330
1D4
102
}
330
1D4
100
DictionaryVariables
280
     0
  1
2
  0
DICTIONARYVAR
  5
1D8
102
{ACAD_REACTORS
330
1D4
102
}
330
1D4
100
DictionaryVariables
280
     0
  1
1
  0
DICTIONARY
  5
1DB
330
3D
100
AcDbDictionary
280
     1
  3
ACAD_XREC_ROUNDTRIP
360
1DC
  0
DICTIONARY
  5
1D9
330
3C
100
AcDbDictionary
280
     1
  3
ACAD_XREC_ROUNDTRIP
360
1DA
  0
DICTIONARY
  5
1DD
330
3E
100
AcDbDictionary
280
     1
  3
ACAD_XREC_ROUNDTRIP
360
1DE
  0
XRECORD
  5
1DC
102
{ACAD_REACTORS
330
1DB
102
}
330
1DB
100
AcDbXrecord
102
MATERIAL
148
0.0
149
0.0
149
0.0
 93
        0
 94
      127
282
     0
 72
     1
 77
     1
171
     1
175
     1
179
     1
273
     0
  0
XRECORD
  5
1DA
102
{ACAD_REACTORS
330
1D9
102
}
330
1D9
100
AcDbXrecord
102
MATERIAL
148
0.0
149
0.0
149
0.0
 93
        0
 94
      127
282
     0
 72
     1
 77
     1
171
     1
175
     1
179
     1
273
     0
  0
XRECORD
  5
1DE
102
{ACAD_REACTORS
330
1DD
102
}
330
1DD
100
AcDbXrecord
102
MATERIAL
148
0.0
149
0.0
149
0.0
 93
        0
 94
      127
282
     0
 72
     1
 77
     1
171
     1
175
     1
179
     1
273
     0
  0
ENDSEC
  0
EOF
