  0
SECTION
  2
HEADER
  9
$ACADVER
  1
AC1024
  9
$ACADMAINTVER
 70
     6
  9
$DWGCODEPAGE
  3
ANSI_1252
  9
$INSBASE
 10
0.0
 20
0.0
 30
0.0
  9
$EXTMIN
 10
1.000000000000000E+20
 20
1.000000000000000E+20
 30
1.000000000000000E+20
  9
$EXTMAX
 10
-1.000000000000000E+20
 20
-1.000000000000000E+20
 30
-1.000000000000000E+20
  9
$LIMMIN
 10
0.0
 20
0.0
  9
$LIMMAX
 10
12.0
 20
9.0
  9
$ORTHOMODE
 70
     0
  9
$REGENMODE
 70
     1
  9
$FILLMODE
 70
     1
  9
$QTEXTMODE
 70
     0
  9
$MIRRTEXT
 70
     1
  9
$LTSCALE
 40
1.0
  9
$ATTMODE
 70
     1
  9
$TEXTSIZE
 40
0.2
  9
$TRACEWID
 40
0.05
  9
$TEXTSTYLE
  7
Standard
  9
$CLAYER
  8
0
  9
$CELTYPE
  6
ByLayer
  9
$CECOLOR
 62
   256
  9
$CELTSCALE
 40
1.0
  9
$DISPSILH
 70
     0
  9
$DIMSCALE
 40
1.0
  9
$DIMASZ
 40
0.18
  9
$DIMEXO
 40
0.0625
  9
$DIMDLI
 40
0.38
  9
$DIMRND
 40
0.0
  9
$DIMDLE
 40
0.0
  9
$DIMEXE
 40
0.18
  9
$DIMTP
 40
0.0
  9
$DIMTM
 40
0.0
  9
$DIMTXT
 40
0.18
  9
$DIMCEN
 40
0.09
  9
$DIMTSZ
 40
0.0
  9
$DIMTOL
 70
     0
  9
$DIMLIM
 70
     0
  9
$DIMTIH
 70
     1
  9
$DIMTOH
 70
     1
  9
$DIMSE1
 70
     0
  9
$DIMSE2
 70
     0
  9
$DIMTAD
 70
     0
  9
$DIMZIN
 70
     0
  9
$DIMBLK
  1

  9
$DIMASO
 70
     1
  9
$DIMSHO
 70
     1
  9
$DIMPOST
  1

  9
$DIMAPOST
  1

  9
$DIMALT
 70
     0
  9
$DIMALTD
 70
     2
  9
$DIMALTF
 40
25.4
  9
$DIMLFAC
 40
1.0
  9
$DIMTOFL
 70
     0
  9
$DIMTVP
 40
0.0
  9
$DIMTIX
 70
     0
  9
$DIMSOXD
 70
     0
  9
$DIMSAH
 70
     0
  9
$DIMBLK1
  1

  9
$DIMBLK2
  1

  9
$DIMSTYLE
  2
Standard
  9
$DIMCLRD
 70
     0
  9
$DIMCLRE
 70
     0
  9
$DIMCLRT
 70
     0
  9
$DIMTFAC
 40
1.0
  9
$DIMGAP
 40
0.09
  9
$DIMJUST
 70
     0
  9
$DIMSD1
 70
     0
  9
$DIMSD2
 70
     0
  9
$DIMTOLJ
 70
     1
  9
$DIMTZIN
 70
     0
  9
$DIMALTZ
 70
     0
  9
$DIMALTTZ
 70
     0
  9
$DIMUPT
 70
     0
  9
$DIMDEC
 70
     4
  9
$DIMTDEC
 70
     4
  9
$DIMALTU
 70
     2
  9
$DIMALTTD
 70
     2
  9
$DIMTXSTY
  7
Standard
  9
$DIMAUNIT
 70
     0
  9
$DIMADEC
 70
     0
  9
$DIMALTRND
 40
0.0
  9
$DIMAZIN
 70
     0
  9
$DIMDSEP
 70
    46
  9
$DIMATFIT
 70
     3
  9
$DIMFRAC
 70
     0
  9
$DIMLDRBLK
  1

  9
$DIMLUNIT
 70
     2
  9
$DIMLWD
 70
    -2
  9
$DIMLWE
 70
    -2
  9
$DIMTMOVE
 70
     0
  9
$DIMFXL
 40
1.0
  9
$DIMFXLON
 70
     0
  9
$DIMJOGANG
 40
0.7853981633974483
  9
$DIMTFILL
 70
     0
  9
$DIMTFILLCLR
 70
     0
  9
$DIMARCSYM
 70
     0
  9
$DIMLTYPE
  6

  9
$DIMLTEX1
  6

  9
$DIMLTEX2
  6

  9
$DIMTXTDIRECTION
 70
     0
  9
$LUNITS
 70
     2
  9
$LUPREC
 70
     4
  9
$SKETCHINC
 40
0.1
  9
$FILLETRAD
 40
0.5
  9
$AUNITS
 70
     0
  9
$AUPREC
 70
     0
  9
$MENU
  1
.
  9
$ELEVATION
 40
0.0
  9
$PELEVATION
 40
0.0
  9
$THICKNESS
 40
0.0
  9
$LIMCHECK
 70
     0
  9
$CHAMFERA
 40
0.5
  9
$CHAMFERB
 40
0.5
  9
$CHAMFERC
 40
1.0
  9
$CHAMFERD
 40
0.0
  9
$SKPOLY
 70
     0
  9
$TDCREATE
 40
2459192.938610833
  9
$TDUCREATE
 40
2459192.771944167
  9
$TDUPDATE
 40
2459192.938610891
  9
$TDUUPDATE
 40
2459192.771944224
  9
$TDINDWG
 40
0.0000000116
  9
$TDUSRTIMER
 40
0.0000000116
  9
$USRTIMER
 70
     1
  9
$ANGBASE
 50
0.0
  9
$ANGDIR
 70
     0
  9
$PDMODE
 70
     0
  9
$PDSIZE
 40
0.0
  9
$PLINEWID
 40
0.0
  9
$SPLFRAME
 70
     0
  9
$SPLINETYPE
 70
     6
  9
$SPLINESEGS
 70
     8
  9
$HANDSEED
  5
1F2
  9
$SURFTAB1
 70
     6
  9
$SURFTAB2
 70
     6
  9
$SURFTYPE
 70
     6
  9
$SURFU
 70
     6
  9
$SURFV
 70
     6
  9
$UCSBASE
  2

  9
$UCSNAME
  2

  9
$UCSORG
 10
0.0
 20
0.0
 30
0.0
  9
$UCSXDIR
 10
1.0
 20
0.0
 30
0.0
  9
$UCSYDIR
 10
0.0
 20
1.0
 30
0.0
  9
$UCSORTHOREF
  2

  9
$UCSORTHOVIEW
 70
     0
  9
$UCSORGTOP
 10
0.0
 20
0.0
 30
0.0
  9
$UCSORGBOTTOM
 10
0.0
 20
0.0
 30
0.0
  9
$UCSORGLEFT
 10
0.0
 20
0.0
 30
0.0
  9
$UCSORGRIGHT
 10
0.0
 20
0.0
 30
0.0
  9
$UCSORGFRONT
 10
0.0
 20
0.0
 30
0.0
  9
$UCSORGBACK
 10
0.0
 20
0.0
 30
0.0
  9
$PUCSBASE
  2

  9
$PUCSNAME
  2

  9
$PUCSORG
 10
0.0
 20
0.0
 30
0.0
  9
$PUCSXDIR
 10
1.0
 20
0.0
 30
0.0
  9
$PUCSYDIR
 10
0.0
 20
1.0
 30
0.0
  9
$PUCSORTHOREF
  2

  9
$PUCSORTHOVIEW
 70
     0
  9
$PUCSORGTOP
 10
0.0
 20
0.0
 30
0.0
  9
$PUCSORGBOTTOM
 10
0.0
 20
0.0
 30
0.0
  9
$PUCSORGLEFT
 10
0.0
 20
0.0
 30
0.0
  9
$PUCSORGRIGHT
 10
0.0
 20
0.0
 30
0.0
  9
$PUCSORGFRONT
 10
0.0
 20
0.0
 30
0.0
  9
$PUCSORGBACK
 10
0.0
 20
0.0
 30
0.0
  9
$USERI1
 70
     0
  9
$USERI2
 70
     0
  9
$USERI3
 70
     0
  9
$USERI4
 70
     0
  9
$USERI5
 70
     0
  9
$USERR1
 40
0.0
  9
$USERR2
 40
0.0
  9
$USERR3
 40
0.0
  9
$USERR4
 40
0.0
  9
$USERR5
 40
0.0
  9
$WORLDVIEW
 70
     1
  9
$SHADEDGE
 70
     3
  9
$SHADEDIF
 70
    70
  9
$TILEMODE
 70
     1
  9
$MAXACTVP
 70
    64
  9
$PINSBASE
 10
0.0
 20
0.0
 30
0.0
  9
$PLIMCHECK
 70
     0
  9
$PEXTMIN
 10
1.000000000000000E+20
 20
1.000000000000000E+20
 30
1.000000000000000E+20
  9
$PEXTMAX
 10
-1.000000000000000E+20
 20
-1.000000000000000E+20
 30
-1.000000000000000E+20
  9
$PLIMMIN
 10
0.0
 20
0.0
  9
$PLIMMAX
 10
12.0
 20
9.0
  9
$UNITMODE
 70
     0
  9
$VISRETAIN
 70
     1
  9
$PLINEGEN
 70
     0
  9
$PSLTSCALE
 70
     1
  9
$TREEDEPTH
 70
  3020
  9
$CMLSTYLE
  2
Standard
  9
$CMLJUST
 70
     0
  9
$CMLSCALE
 40
1.0
  9
$PROXYGRAPHICS
 70
     1
  9
$MEASUREMENT
 70
     0
  9
$CELWEIGHT
370
    -1
  9
$ENDCAPS
280
     0
  9
$JOINSTYLE
280
     0
  9
$LWDISPLAY
290
     1
  9
$INSUNITS
 70
     4
  9
$HYPERLINKBASE
  1

  9
$STYLESHEET
  1

  9
$XEDIT
290
     1
  9
$CEPSNTYPE
380
     0
  9
$PSTYLEMODE
290
     1
  9
$FINGERPRINTGUID
  2
{B8897A24-6241-44EC-97D0-7C60690353E3}
  9
$VERSIONGUID
  2
{FAEB1C32-E019-11D5-929B-00C0DF256EC4}
  9
$EXTNAMES
290
     1
  9
$PSVPSCALE
 40
0.0
  9
$OLESTARTUP
290
     0
  9
$SORTENTS
280
   127
  9
$INDEXCTL
280
     0
  9
$HIDETEXT
280
     1
  9
$XCLIPFRAME
280
     2
  9
$HALOGAP
280
     0
  9
$OBSCOLOR
 70
   257
  9
$OBSLTYPE
280
     0
  9
$INTERSECTIONDISPLAY
280
     0
  9
$INTERSECTIONCOLOR
 70
   257
  9
$DIMASSOC
280
     2
  9
$PROJECTNAME
  1

  9
$CAMERADISPLAY
290
     0
  9
$LENSLENGTH
 40
50.0
  9
$CAMERAHEIGHT
 40
0.0
  9
$STEPSPERSEC
 40
2.0
  9
$STEPSIZE
 40
6.0
  9
$3DDWFPREC
 40
2.0
  9
$PSOLWIDTH
 40
0.25
  9
$PSOLHEIGHT
 40
4.0
  9
$LOFTANG1
 40
1.570796326794897
  9
$LOFTANG2
 40
1.570796326794897
  9
$LOFTMAG1
 40
0.0
  9
$LOFTMAG2
 40
0.0
  9
$LOFTPARAM
 70
     7
  9
$LOFTNORMALS
280
     1
  9
$LATITUDE
 40
37.795
  9
$LONGITUDE
 40
-122.394
  9
$NORTHDIRECTION
 40
0.0
  9
$TIMEZONE
 70
 -8000
  9
$LIGHTGLYPHDISPLAY
280
     1
  9
$TILEMODELIGHTSYNCH
280
     1
  9
$CMATERIAL
347
3C
  9
$SOLIDHIST
280
     1
  9
$SHOWHIST
280
     1
  9
$DWFFRAME
280
     2
  9
$DGNFRAME
280
     2
  9
$REALWORLDSCALE
290
     1
  9
$INTERFERECOLOR
 62
   256
  9
$CSHADOW
280
     0
  9
$SHADOWPLANELOCATION
 40
0.0
  0
ENDSEC
  0
SECTION
  2
CLASSES
  0
CLASS
  1
ACDBDICTIONARYWDFLT
  2
AcDbDictionaryWithDefault
  3
ObjectDBX Classes
 90
        0
 91
        4
280
     0
281
     0
  0
CLASS
  1
VISUALSTYLE
  2
AcDbVisualStyle
  3
ObjectDBX Classes
 90
     4095
 91
        4
280
     0
281
     0
  0
CLASS
  1
MATERIAL
  2
AcDbMaterial
  3
ObjectDBX Classes
 90
     1153
 91
        4
280
     0
281
     0
  0
CLASS
  1
SUN
  2
AcDbSun
  3
SCENEOE
 90
     1024
 91
        4
280
     0
281
     0
  0
ENDSEC
  0
SECTION
  2
TABLES
  0
TABLE
  2
VPORT
  5
8
330
0
100
AcDbSymbolTable
 70
     1
  0
VPORT
  5
29
330
8
100
AcDbSymbolTableRecord
100
AcDbViewportTableRecord
  2
*Active
 70
     0
 10
0.0
 20
0.0
 11
1.0
 21
1.0
 12
0.0
 22
0.0
 13
0.0
 23
0.0
 14
0.5
 24
0.5
 15
0.5
 25
0.5
 16
0.0
 26
0.0
 36
1.0
 17
16.31597221814323
 27
22.2073613747072
 37
0.0
 40
44.41472274941439
 41
0.7347100784664182
 42
50.0
 43
0.0
 44
0.0
 50
0.0
 51
0.0
 71
     0
 72
   100
 73
     1
 74
     3
 75
     0
 76
     0
 77
     0
 78
     0
281
     0
 65
     1
110
0.0
120
0.0
130
0.0
111
1.0
121
0.0
131
0.0
112
0.0
122
1.0
132
0.0
 79
     0
146
0.0
 60
     3
 61
     5
292
     1
282
     1
141
0.0
142
0.0
 63
   250
361
3F
  0
ENDTAB
  0
TABLE
  2
LTYPE
  5
5
330
0
100
AcDbSymbolTable
 70
     1
  0
LTYPE
  5
14
330
5
100
AcDbSymbolTableRecord
100
AcDbLinetypeTableRecord
  2
ByBlock
 70
     0
  3

 72
    65
 73
     0
 40
0.0
  0
LTYPE
  5
15
330
5
100
AcDbSymbolTableRecord
100
AcDbLinetypeTableRecord
  2
ByLayer
 70
     0
  3

 72
    65
 73
     0
 40
0.0
  0
LTYPE
  5
16
330
5
100
AcDbSymbolTableRecord
100
AcDbLinetypeTableRecord
  2
Continuous
 70
     0
  3
Solid line
 72
    65
 73
     0
 40
0.0
  0
ENDTAB
  0
TABLE
  2
LAYER
  5
2
330
0
100
AcDbSymbolTable
 70
     2
  0
LAYER
  5
10
330
2
100
AcDbSymbolTableRecord
100
AcDbLayerTableRecord
  2
0
 70
     0
 62
     7
  6
Continuous
370
    -3
390
F
347
3E
  0
LAYER
  5
40
330
2
100
AcDbSymbolTableRecord
100
AcDbLayerTableRecord
  2
Layer 1
 70
     0
 62
     7
  6
Continuous
370
    -3
390
F
347
3E
  0
ENDTAB
  0
TABLE
  2
STYLE
  5
3
330
0
100
AcDbSymbolTable
 70
     1
  0
STYLE
  5
11
330
3
100
AcDbSymbolTableRecord
100
AcDbTextStyleTableRecord
  2
Standard
 70
     0
 40
0.0
 41
1.0
 50
0.0
 71
     0
 42
0.2
  3
txt
  4

  0
ENDTAB
  0
TABLE
  2
VIEW
  5
6
330
0
100
AcDbSymbolTable
 70
     0
  0
ENDTAB
  0
TABLE
  2
UCS
  5
7
330
0
100
AcDbSymbolTable
 70
     0
  0
ENDTAB
  0
TABLE
  2
APPID
  5
9
330
0
100
AcDbSymbolTable
 70
     1
  0
APPID
  5
12
330
9
100
AcDbSymbolTableRecord
100
AcDbRegAppTableRecord
  2
ACAD
 70
     0
  0
ENDTAB
  0
TABLE
  2
DIMSTYLE
  5
A
330
0
100
AcDbSymbolTable
 70
     1
100
AcDbDimStyleTable
  0
DIMSTYLE
105
27
330
A
100
AcDbSymbolTableRecord
100
AcDbDimStyleTableRecord
  2
Standard
 70
     0
178
     0
340
11
  0
ENDTAB
  0
TABLE
  2
BLOCK_RECORD
  5
1
330
0
100
AcDbSymbolTable
 70
     4
  0
BLOCK_RECORD
  5
1F
330
1
100
AcDbSymbolTableRecord
100
AcDbBlockTableRecord
  2
*Model_Space
340
22
 70
     0
280
     1
281
     0
  0
BLOCK_RECORD
  5
1B
330
1
100
AcDbSymbolTableRecord
100
AcDbBlockTableRecord
  2
*Paper_Space
340
1E
 70
     0
280
     1
281
     0
  0
BLOCK_RECORD
  5
23
330
1
100
AcDbSymbolTableRecord
100
AcDbBlockTableRecord
  2
*Paper_Space0
340
26
 70
     0
280
     1
281
     0
  0
BLOCK_RECORD
  5
41
330
1
100
AcDbSymbolTableRecord
100
AcDbBlockTableRecord
  2
block 2
340
0
102
{BLKREFS
331
42
102
}
 70
     0
280
     1
281
     0
  0
BLOCK_RECORD
  5
45
330
1
100
AcDbSymbolTableRecord
100
AcDbBlockTableRecord
  2
block 3
340
0
102
{BLKREFS
331
46
102
}
 70
     0
280
     1
281
     0
  0
BLOCK_RECORD
  5
49
330
1
100
AcDbSymbolTableRecord
100
AcDbBlockTableRecord
  2
block 4
340
0
102
{BLKREFS
331
4A
102
}
 70
     0
280
     1
281
     0
  0
ENDTAB
  0
ENDSEC
  0
SECTION
  2
BLOCKS
  0
BLOCK
  5
20
330
1F
100
AcDbEntity
  8
0
100
AcDbBlockBegin
  2
*Model_Space
 70
     0
 10
0.0
 20
0.0
 30
0.0
  3
*Model_Space
  1

  0
ENDBLK
  5
21
330
1F
100
AcDbEntity
  8
0
100
AcDbBlockEnd
  0
BLOCK
  5
1C
330
1B
100
AcDbEntity
 67
     1
  8
0
100
AcDbBlockBegin
  2
*Paper_Space
 70
     0
 10
0.0
 20
0.0
 30
0.0
  3
*Paper_Space
  1

  0
ENDBLK
  5
1D
330
1B
100
AcDbEntity
 67
     1
  8
0
100
AcDbBlockEnd
  0
BLOCK
  5
24
330
23
100
AcDbEntity
  8
0
100
AcDbBlockBegin
  2
*Paper_Space0
 70
     0
 10
0.0
 20
0.0
 30
0.0
  3
*Paper_Space0
  1

  0
ENDBLK
  5
25
330
23
100
AcDbEntity
  8
0
100
AcDbBlockEnd
  0
BLOCK
  5
43
330
41
100
AcDbEntity
  8
0
100
AcDbBlockBegin
  2
block 2
 70
     0
 10
0.0
 20
0.0
 30
0.0
  3
block 2
  1

  0
ENDBLK
  5
44
330
41
100
AcDbEntity
  8
0
100
AcDbBlockEnd
  0
BLOCK
  5
47
330
45
100
AcDbEntity
  8
0
100
AcDbBlockBegin
  2
block 3
 70
     0
 10
0.0
 20
0.0
 30
0.0
  3
block 3
  1

  0
INSERT
  5
4A
330
45
100
AcDbEntity
  8
Layer 1
100
AcDbBlockReference
  2
block 4
 10
0.0
 20
0.0
 30
0.0
  0
ENDBLK
  5
48
330
45
100
AcDbEntity
  8
0
100
AcDbBlockEnd
  0
BLOCK
  5
4B
330
49
100
AcDbEntity
  8
0
100
AcDbBlockBegin
  2
block 4
 70
     0
 10
0.0
 20
0.0
 30
0.0
  3
block 4
  1

  0
SPLINE
  5
4D
330
49
100
AcDbEntity
  8
Layer 1
370
     0
100
AcDbSpline
210
0.0
220
0.0
230
1.0
 70
    11
 71
     3
 72
   119
 73
   115
 74
     0
 42
0.0000000001
 43
0.0000000001
 12
1.0
 22
0.0
 32
0.0
 13
1.0
 23
0.0
 33
0.0
 40
0.0
 40
0.0
 40
0.0
 40
0.0
 40
1.0
 40
1.0
 40
1.0
 40
2.0
 40
2.0
 40
2.0
 40
3.0
 40
3.0
 40
3.0
 40
4.0
 40
4.0
 40
4.0
 40
5.0
 40
5.0
 40
5.0
 40
6.0
 40
6.0
 40
6.0
 40
7.0
 40
7.0
 40
7.0
 40
8.0
 40
8.0
 40
8.0
 40
9.0
 40
9.0
 40
9.0
 40
10.0
 40
10.0
 40
10.0
 40
11.0
 40
11.0
 40
11.0
 40
12.0
 40
12.0
 40
12.0
 40
13.0
 40
13.0
 40
13.0
 40
14.0
 40
14.0
 40
14.0
 40
15.0
 40
15.0
 40
15.0
 40
16.0
 40
16.0
 40
16.0
 40
17.0
 40
17.0
 40
17.0
 40
18.0
 40
18.0
 40
18.0
 40
19.0
 40
19.0
 40
19.0
 40
20.0
 40
20.0
 40
20.0
 40
21.0
 40
21.0
 40
21.0
 40
22.0
 40
22.0
 40
22.0
 40
23.0
 40
23.0
 40
23.0
 40
24.0
 40
24.0
 40
24.0
 40
25.0
 40
25.0
 40
25.0
 40
26.0
 40
26.0
 40
26.0
 40
27.0
 40
27.0
 40
27.0
 40
28.0
 40
28.0
 40
28.0
 40
29.0
 40
29.0
 40
29.0
 40
30.0
 40
30.0
 40
30.0
 40
31.0
 40
31.0
 40
31.0
 40
32.0
 40
32.0
 40
32.0
 40
33.0
 40
33.0
 40
33.0
 40
34.0
 40
34.0
 40
34.0
 40
35.0
 40
35.0
 40
35.0
 40
36.0
 40
36.0
 40
36.0
 40
37.0
 40
37.0
 40
37.0
 40
38.0
 40
38.0
 40
38.0
 40
38.0
 10
25.50583440354922
 20
29.77443649819216
 30
0.0
 10
25.50583440354922
 20
29.77443649819216
 30
0.0
 10
25.78805770229322
 20
29.88026956235095
 30
0.0
 10
25.78805770229322
 20
29.88026956235095
 30
0.0
 10
25.78805770229322
 20
29.88026956235095
 30
0.0
 10
25.78805770229322
 20
29.88026956235095
 30
0.0
 10
25.78805770229322
 20
29.88026956235095
 30
0.0
 10
26.65812195005476
 20
30.27206708363226
 30
0.0
 10
27.44767323973368
 20
30.82236052908185
 30
0.0
 10
28.1163904967483
 20
31.50304680142687
 30
0.0
 10
29.63333601740585
 20
33.30221360221778
 30
0.0
 10
27.83416719800429
 20
35.31304653132629
 30
0.0
 10
27.83416719800429
 20
37.2180470691462
 30
0.0
 10
27.83416719800429
 20
39.12304760696613
 30
0.0
 10
28.68083440275547
 20
40.53415804485424
 30
0.0
 10
27.9752788473763
 20
42.19221386914337
 30
0.0
 10
27.55194659074114
 20
43.25054720221212
 30
0.0
 10
26.52889049714518
 20
43.74443612462105
 30
0.0
 10
25.36472275417721
 20
43.7797138687465
 30
0.0
 10
24.38224342584346
 20
43.81988850994828
 30
0.0
 10
23.41062422273079
 20
43.56161072754617
 30
0.0
 10
22.57777777213333
 20
43.03888090567699
 30
0.0
 10
21.83694497728138
 20
42.58026989561106
 30
0.0
 10
18.23861137569954
 20
38.91138080577833
 30
0.0
 10
18.16805555101354
 20
38.91138080577833
 30
0.0
 10
18.12865900010312
 20
39.12986243647288
 30
0.0
 10
18.0168118219898
 20
39.32870264924513
 30
0.0
 10
17.85055501279675
 20
39.47582538465571
 30
0.0
 10
17.68080196998233
 20
39.61300679911963
 30
0.0
 10
17.46908604926907
 20
39.68773004546343
 30
0.0
 10
17.25083252157637
 20
39.6874921858435
 30
0.0
 10
17.25083252157637
 20
39.6874921858435
 30
0.0
 10
16.22777777372083
 20
39.6874921858435
 30
0.0
 10
16.22777777372083
 20
39.6874921858435
 30
0.0
 10
16.0656335472633
 20
39.6788643075506
 30
0.0
 10
15.90811597638321
 20
39.63039712974781
 30
0.0
 10
15.76916693187246
 20
39.54638120934171
 30
0.0
 10
15.55750080355488
 20
39.44054780874781
 30
0.0
 10
15.34583332949687
 20
39.22888134399513
 30
0.0
 10
15.34583332949687
 20
39.08777003105823
 30
0.0
 10
14.22215891588484
 20
40.73136621092738
 30
0.0
 10
12.86770885993547
 20
42.20462681059611
 30
0.0
 10
11.32416612553946
 20
43.46221425572624
 30
0.0
 10
10.52584397264761
 20
44.0279764826962
 30
0.0
 10
9.584604859605056
 20
44.35802130347702
 30
0.0
 10
8.607777641051792
 20
44.41471427230987
 30
0.0
 10
7.443611243824251
 20
44.44999205060451
 30
0.0
 10
6.385277237885289
 20
44.02665870844045
 30
0.0
 10
5.856110571350914
 20
43.00360316155154
 30
0.0
 10
5.044721615377851
 20
41.41610316194841
 30
0.0
 10
5.750277507192123
 20
39.6522142735005
 30
0.0
 10
5.644443770163122
 20
38.02943636155437
 30
0.0
 10
5.53861003313412
 20
36.40665844960824
 30
0.0
 10
3.563055016368622
 20
34.25471454399796
 30
0.0
 10
4.938888214783955
 20
32.34971400617804
 30
0.0
 10
5.714999594849123
 20
31.46776956195408
 30
0.0
 10
6.52638821438708
 20
30.65638094241612
 30
0.0
 10
7.690555284484832
 20
30.30360316472654
 30
0.0
 10
7.690555284484832
 20
30.30360316472654
 30
0.0
 10
7.690555284484832
 20
30.30360316472654
 30
0.0
 10
7.690555284484832
 20
30.30360316472654
 30
0.0
 10
7.690555284484832
 20
30.30360316472654
 30
0.0
 10
7.796388348643623
 20
30.23304734004054
 30
0.0
 10
7.796388348643623
 20
30.23304734004054
 30
0.0
 10
0.0881395108777473
 20
25.54713208301635
 30
0.0
 10
-2.361945353023473
 20
15.49967528061692
 30
0.0
 10
2.323970408653372
 20
7.791427546778735
 30
0.0
 10
7.009886506765324
 20
0.0831771214597037
 30
0.0
 10
17.05734196342433
 20
-2.366904809147937
 30
0.0
 10
24.76559104300294
 20
2.319009102135826
 30
0.0
 10
26.23790104527972
 20
3.214039526242038
 30
0.0
 10
27.55932124826425
 20
4.336392422757783
 30
0.0
 10
28.68083440275547
 20
5.644438657409341
 30
0.0
 10
29.03361218044505
 20
6.067770914044502
 30
0.0
 10
29.38638995813463
 20
6.526383101633299
 30
0.0
 10
29.70389049635143
 20
6.984995289222097
 30
0.0
 10
29.70389049635143
 20
6.984995289222097
 30
0.0
 10
29.80972490625064
 20
7.126106938594099
 30
0.0
 10
29.80972490625064
 20
7.126106938594099
 30
0.0
 10
29.80972490625064
 20
7.126106938594099
 30
0.0
 10
29.80972490625064
 20
7.126106938594099
 30
0.0
 10
29.80972490625064
 20
7.126106938594099
 30
0.0
 10
29.80972490625064
 20
7.126106938594099
 30
0.0
 10
30.02139103456822
 20
7.408330237338105
 30
0.0
 10
30.02139103456822
 20
7.408330237338105
 30
0.0
 10
30.02139103456822
 20
7.408330237338105
 30
0.0
 10
30.16250268394023
 20
7.619996365655686
 30
0.0
 10
30.16250268394023
 20
7.619996365655686
 30
0.0
 10
30.16250268394023
 20
7.619996365655686
 30
0.0
 10
30.6916693504746
 20
8.537218049352433
 30
0.0
 10
30.6916693504746
 20
8.537218049352433
 30
0.0
 10
30.6916693504746
 20
8.537218049352433
 30
0.0
 10
30.6916693504746
 20
8.537218049352433
 30
0.0
 10
30.6916693504746
 20
8.537218049352433
 30
0.0
 10
30.6916693504746
 20
8.537218049352433
 30
0.0
 10
30.97389264921861
 20
9.066384715886809
 30
0.0
 10
30.97389264921861
 20
9.066384715886809
 30
0.0
 10
30.97389264921861
 20
9.066384715886809
 30
0.0
 10
31.11500429859061
 20
9.383885254103603
 30
0.0
 10
31.11500429859061
 20
9.383885254103603
 30
0.0
 10
31.31258321615054
 20
9.78605170535126
 30
0.0
 10
31.48920895530994
 20
10.19817663573597
 30
0.0
 10
31.64417096512498
 20
10.61860747601714
 30
0.0
 10
31.64417096512498
 20
10.65388471548993
 30
0.0
 10
31.67944820459777
 20
10.68916195496272
 30
0.0
 10
31.67944820459777
 20
10.75971912538915
 30
0.0
 10
31.67944820459777
 20
10.75971912538915
 30
0.0
 10
31.82055985396978
 20
11.11249690307873
 30
0.0
 10
31.82055985396978
 20
11.11249690307873
 30
0.0
 10
32.36096883600563
 20
12.77581053520414
 30
0.0
 10
32.63481624635111
 20
14.51415188744425
 30
0.0
 10
32.63194981924816
 20
16.26305191905048
 30
0.0
 10
32.65109432251892
 20
21.67161228909726
 30
0.0
 10
29.98016023945998
 20
26.73580306762316
 30
0.0
 10
25.50583440354922
 20
29.77443649819216
 30
0.0
  0
SPLINE
  5
4E
330
49
100
AcDbEntity
  8
Layer 1
370
     0
100
AcDbSpline
210
0.0
220
0.0
230
1.0
 70
    11
 71
     3
 72
   104
 73
   100
 74
     0
 42
0.0000000001
 43
0.0000000001
 12
1.0
 22
0.0
 32
0.0
 13
1.0
 23
0.0
 33
0.0
 40
0.0
 40
0.0
 40
0.0
 40
0.0
 40
1.0
 40
1.0
 40
1.0
 40
2.0
 40
2.0
 40
2.0
 40
3.0
 40
3.0
 40
3.0
 40
4.0
 40
4.0
 40
4.0
 40
5.0
 40
5.0
 40
5.0
 40
6.0
 40
6.0
 40
6.0
 40
7.0
 40
7.0
 40
7.0
 40
8.0
 40
8.0
 40
8.0
 40
9.0
 40
9.0
 40
9.0
 40
10.0
 40
10.0
 40
10.0
 40
11.0
 40
11.0
 40
11.0
 40
12.0
 40
12.0
 40
12.0
 40
13.0
 40
13.0
 40
13.0
 40
14.0
 40
14.0
 40
14.0
 40
15.0
 40
15.0
 40
15.0
 40
16.0
 40
16.0
 40
16.0
 40
17.0
 40
17.0
 40
17.0
 40
18.0
 40
18.0
 40
18.0
 40
19.0
 40
19.0
 40
19.0
 40
20.0
 40
20.0
 40
20.0
 40
21.0
 40
21.0
 40
21.0
 40
22.0
 40
22.0
 40
22.0
 40
23.0
 40
23.0
 40
23.0
 40
24.0
 40
24.0
 40
24.0
 40
25.0
 40
25.0
 40
25.0
 40
26.0
 40
26.0
 40
26.0
 40
27.0
 40
27.0
 40
27.0
 40
28.0
 40
28.0
 40
28.0
 40
29.0
 40
29.0
 40
29.0
 40
30.0
 40
30.0
 40
30.0
 40
31.0
 40
31.0
 40
31.0
 40
32.0
 40
32.0
 40
32.0
 40
33.0
 40
33.0
 40
33.0
 40
33.0
 10
26.98749999325313
 20
9.807214819257915
 30
0.0
 10
26.92969236760297
 20
9.930740332770057
 30
0.0
 10
26.78269444961672
 20
9.984018196153276
 30
0.0
 10
26.65916624462373
 20
9.926210570503123
 30
0.0
 10
26.65077689882098
 20
9.922286391426956
 30
0.0
 10
26.64261632889029
 20
9.917891203202414
 30
0.0
 10
26.63472221556354
 20
9.91304922915713
 30
0.0
 10
26.5111967020514
 20
9.855241603506977
 30
0.0
 10
26.45791883866818
 20
9.708243685520722
 30
0.0
 10
26.51572646431833
 20
9.584715480527732
 30
0.0
 10
26.5196506433945
 20
9.57632613472498
 30
0.0
 10
26.52404583161904
 20
9.568165564794295
 30
0.0
 10
26.52888780566433
 20
9.560271451467546
 30
0.0
 10
26.63409240904515
 20
9.375931928198202
 30
0.0
 10
26.75196850425765
 20
9.19911778537945
 30
0.0
 10
26.88166558335391
 20
9.031104784933172
 30
0.0
 10
26.88166558335391
 20
9.031104784933172
 30
0.0
 10
26.42305339576512
 20
9.136939194832385
 30
0.0
 10
26.42305339576512
 20
9.136939194832385
 30
0.0
 10
26.42305339576512
 20
9.136939194832385
 30
0.0
 10
26.07027561807553
 20
9.736660340312339
 30
0.0
 10
26.07027561807553
 20
9.736660340312339
 30
0.0
 10
25.98485339892642
 20
9.841794965191111
 30
0.0
 10
25.83678427156272
 20
9.87140932896002
 30
0.0
 10
25.71749784038595
 20
9.807214819257915
 30
0.0
 10
25.60175608948579
 20
9.735072366612107
 30
0.0
 10
25.56641156299181
 20
9.582764156913042
 30
0.0
 10
25.63855401563762
 20
9.467022406012886
 30
0.0
 10
25.64122127315784
 20
9.462742951464802
 30
0.0
 10
25.64401772175876
 20
9.458544241342153
 30
0.0
 10
25.64694336144037
 20
9.454437041568331
 30
0.0
 10
25.64694336144037
 20
9.454437041568331
 30
0.0
 10
25.71749784038595
 20
9.31332539219633
 30
0.0
 10
25.71749784038595
 20
9.31332539219633
 30
0.0
 10
25.71749784038595
 20
9.31332539219633
 30
0.0
 10
25.64694336144037
 20
9.31332539219633
 30
0.0
 10
25.64694336144037
 20
9.31332539219633
 30
0.0
 10
25.64694336144037
 20
9.31332539219633
 30
0.0
 10
25.117776694906
 20
10.1599925969475
 30
0.0
 10
25.117776694906
 20
10.1599925969475
 30
0.0
 10
25.117776694906
 20
10.1599925969475
 30
0.0
 10
25.78805501081237
 20
11.9591587248682
 30
0.0
 10
25.78805501081237
 20
11.9591587248682
 30
0.0
 10
25.78805501081237
 20
11.9591587248682
 30
0.0
 10
25.92916666018438
 20
11.85332431496899
 30
0.0
 10
25.92916666018438
 20
11.85332431496899
 30
0.0
 10
26.06723155323661
 20
11.76156904138489
 30
0.0
 10
26.22381114304122
 20
11.70134446593336
 30
0.0
 10
26.38777884777317
 20
11.6769354261242
 30
0.0
 10
26.65332842266474
 20
11.61381212579954
 30
0.0
 10
26.92671020682355
 20
11.59003827547047
 30
0.0
 10
27.19916881305155
 20
11.60638094717862
 30
0.0
 10
27.19916881305155
 20
11.60638094717862
 30
0.0
 10
27.5166666597875
 20
11.60638094717862
 30
0.0
 10
27.5166666597875
 20
11.60638094717862
 30
0.0
 10
27.50682122284606
 20
11.50252208422173
 30
0.0
 10
27.56330194843822
 20
11.40368283304608
 30
0.0
 10
27.6577783091595
 20
11.35943757938825
 30
0.0
 10
27.6577783091595
 20
11.35943757938825
 30
0.0
 10
28.25749945463946
 20
11.04193704117146
 30
0.0
 10
28.25749945463946
 20
11.04193704117146
 30
0.0
 10
28.29277669411224
 20
10.90082539179945
 30
0.0
 10
28.36333386453867
 20
10.75971374242745
 30
0.0
 10
28.39861110401146
 20
10.6186047845363
 30
0.0
 10
28.39861110401146
 20
10.6186047845363
 30
0.0
 10
27.83416719800429
 20
10.9008280832803
 30
0.0
 10
27.83416719800429
 20
10.9008280832803
 30
0.0
 10
27.71790868278135
 20
10.97213617686328
 30
0.0
 10
27.56585885524368
 20
10.93569621766422
 30
0.0
 10
27.4945507616607
 20
10.81943770244128
 30
0.0
 10
27.48970878761542
 20
10.81154358911453
 30
0.0
 10
27.48531629087173
 20
10.80338301918384
 30
0.0
 10
27.48138942031471
 20
10.79499367338109
 30
0.0
 10
27.43788970685174
 20
10.66686303613827
 30
0.0
 10
27.48037473203507
 20
10.52524269688603
 30
0.0
 10
27.58722383021393
 20
10.4422158956915
 30
0.0
 10
27.58722383021393
 20
10.4422158956915
 30
0.0
 10
28.61027992380989
 20
9.91304922915713
 30
0.0
 10
28.61027992380989
 20
9.91304922915713
 30
0.0
 10
28.61027992380989
 20
9.91304922915713
 30
0.0
 10
28.7161143337091
 20
9.489716972521968
 30
0.0
 10
28.7161143337091
 20
9.489716972521968
 30
0.0
 10
28.7161143337091
 20
9.489716972521968
 30
0.0
 10
27.76361541053956
 20
10.01888363905634
 30
0.0
 10
27.76361541053956
 20
10.01888363905634
 30
0.0
 10
27.64095924534128
 20
10.07851608872134
 30
0.0
 10
27.49318618087085
 20
10.02742370778658
 30
0.0
 10
27.43355373120585
 20
9.90476754258829
 30
0.0
 10
27.39640322106295
 20
9.828351018356093
 30
0.0
 10
27.40114830179772
 20
9.73819986735731
 30
0.0
 10
27.44611487232277
 20
9.666105861366761
 30
0.0
 10
27.44611487232277
 20
9.666105861366761
 30
0.0
 10
28.01055877832994
 20
8.713606938197225
 30
0.0
 10
28.01055877832994
 20
8.713606938197225
 30
0.0
 10
28.01055877832994
 20
8.713606938197225
 30
0.0
 10
27.55194659074114
 20
8.819441348096438
 30
0.0
 10
27.55194659074114
 20
8.819441348096438
 30
0.0
 10
27.55194659074114
 20
8.819441348096438
 30
0.0
 10
26.98749999325313
 20
9.807214819257915
 30
0.0
 10
26.98749999325313
 20
9.807214819257915
 30
0.0
  0
SPLINE
  5
4F
330
49
100
AcDbEntity
  8
Layer 1
370
     0
100
AcDbSpline
210
0.0
220
0.0
230
1.0
 70
    11
 71
     3
 72
    17
 73
    13
 74
     0
 42
0.0000000001
 43
0.0000000001
 12
1.0
 22
0.0
 32
0.0
 13
1.0
 23
0.0
 33
0.0
 40
0.0
 40
0.0
 40
0.0
 40
0.0
 40
1.0
 40
1.0
 40
1.0
 40
2.0
 40
2.0
 40
2.0
 40
3.0
 40
3.0
 40
3.0
 40
4.0
 40
4.0
 40
4.0
 40
4.0
 10
27.26972329199713
 20
8.678327007243588
 30
0.0
 10
27.26972329199713
 20
8.60777252829801
 30
0.0
 10
27.19916881305155
 20
8.572492597344374
 30
0.0
 10
27.12861164262513
 20
8.572492597344374
 30
0.0
 10
27.05915259638463
 20
8.602502608797918
 30
0.0
 10
27.01657067789077
 20
8.673471575794064
 30
0.0
 10
27.02277723272591
 20
8.748881486189166
 30
0.0
 10
27.05805447219871
 20
8.784158725661955
 30
0.0
 10
27.12861164262513
 20
8.85471589608838
 30
0.0
 10
27.19916612157071
 20
8.819435965134742
 30
0.0
 10
27.26972060051628
 20
8.784156034181107
 30
0.0
 10
27.30500053146992
 20
8.748881486189166
 30
0.0
 10
27.26972329199713
 20
8.678327007243588
 30
0.0
  0
POLYLINE
  5
50
330
49
100
AcDbEntity
  8
Layer 1
370
     0
100
AcDb2dPolyline
 66
     1
 10
0.0
 20
0.0
 30
0.0
  0
VERTEX
  5
51
330
50
100
AcDbEntity
  8
Layer 1
370
     0
100
AcDbVertex
100
AcDb2dVertex
 10
26.74055662546276
 20
8.537215357871585
 30
0.0
  0
VERTEX
  5
52
330
50
100
AcDbEntity
  8
Layer 1
370
     0
100
AcDbVertex
100
AcDb2dVertex
 10
26.3172243688276
 20
8.290271990081216
 30
0.0
  0
VERTEX
  5
53
330
50
100
AcDbEntity
  8
Layer 1
370
     0
100
AcDbVertex
100
AcDb2dVertex
 10
26.1408354799828
 20
8.537215357871585
 30
0.0
  0
VERTEX
  5
54
330
50
100
AcDbEntity
  8
Layer 1
370
     0
100
AcDbVertex
100
AcDb2dVertex
 10
26.3172243688276
 20
8.6430497677708
 30
0.0
  0
VERTEX
  5
55
330
50
100
AcDbEntity
  8
Layer 1
370
     0
100
AcDbVertex
100
AcDb2dVertex
 10
26.74055662546276
 20
8.537215357871585
 30
0.0
  0
SEQEND
  5
56
330
50
100
AcDbEntity
  8
Layer 1
370
     0
  0
SPLINE
  5
57
330
49
100
AcDbEntity
  8
Layer 1
370
     0
100
AcDbSpline
210
0.0
220
0.0
230
1.0
 70
    11
 71
     3
 72
    20
 73
    16
 74
     0
 42
0.0000000001
 43
0.0000000001
 12
1.0
 22
0.0
 32
0.0
 13
1.0
 23
0.0
 33
0.0
 40
0.0
 40
0.0
 40
0.0
 40
0.0
 40
1.0
 40
1.0
 40
1.0
 40
2.0
 40
2.0
 40
2.0
 40
3.0
 40
3.0
 40
3.0
 40
4.0
 40
4.0
 40
4.0
 40
5.0
 40
5.0
 40
5.0
 40
5.0
 10
26.1408354799828
 20
8.960547614506746
 30
0.0
 10
26.1408354799828
 20
8.889993135561168
 30
0.0
 10
26.07028100103723
 20
8.854713204607531
 30
0.0
 10
25.9997238306108
 20
8.854713204607531
 30
0.0
 10
25.9997238306108
 20
8.854713204607531
 30
0.0
 10
25.92916935166522
 20
8.854713204607531
 30
0.0
 10
25.92916935166522
 20
8.854713204607531
 30
0.0
 10
25.92916935166522
 20
8.854713204607531
 30
0.0
 10
25.92916935166522
 20
8.925267683553109
 30
0.0
 10
25.92916935166522
 20
8.925267683553109
 30
0.0
 10
25.95917936311877
 20
8.994726729793612
 30
0.0
 10
26.03014833011492
 20
9.03730864828747
 30
0.0
 10
26.10555824051001
 20
9.031102093452324
 30
0.0
 10
26.10555554902917
 20
9.06638202440596
 30
0.0
 10
26.17611002797474
 20
8.995824853979535
 30
0.0
 10
26.1408354799828
 20
8.960547614506746
 30
0.0
  0
POLYLINE
  5
58
330
49
100
AcDbEntity
  8
Layer 1
370
     0
100
AcDb2dPolyline
 66
     1
 10
0.0
 20
0.0
 30
0.0
  0
VERTEX
  5
59
330
58
100
AcDbEntity
  8
Layer 1
370
     0
100
AcDbVertex
100
AcDb2dVertex
 10
24.20055770269009
 20
9.31332539219633
 30
0.0
  0
VERTEX
  5
5A
330
58
100
AcDbEntity
  8
Layer 1
370
     0
100
AcDbVertex
100
AcDb2dVertex
 10
23.35388780645808
 20
9.31332539219633
 30
0.0
  0
VERTEX
  5
5B
330
58
100
AcDbEntity
  8
Layer 1
370
     0
100
AcDbVertex
100
AcDb2dVertex
 10
22.85999837939649
 20
8.784158725661955
 30
0.0
  0
VERTEX
  5
5C
330
58
100
AcDbEntity
  8
Layer 1
370
     0
100
AcDbVertex
100
AcDb2dVertex
 10
22.61305501160612
 20
9.52499152051391
 30
0.0
  0
VERTEX
  5
5D
330
58
100
AcDbEntity
  8
Layer 1
370
     0
100
AcDbVertex
100
AcDb2dVertex
 10
21.87222221675417
 20
9.877769298203493
 30
0.0
  0
VERTEX
  5
5E
330
58
100
AcDbEntity
  8
Layer 1
370
     0
100
AcDbVertex
100
AcDb2dVertex
 10
22.57777777213333
 20
10.26582431536587
 30
0.0
  0
VERTEX
  5
5F
330
58
100
AcDbEntity
  8
Layer 1
370
     0
100
AcDbVertex
100
AcDb2dVertex
 10
22.64833225107891
 20
11.00665711021782
 30
0.0
  0
VERTEX
  5
60
330
58
100
AcDbEntity
  8
Layer 1
370
     0
100
AcDbVertex
100
AcDb2dVertex
 10
23.2833333275125
 20
10.58332485358266
 30
0.0
  0
VERTEX
  5
61
330
58
100
AcDbEntity
  8
Layer 1
370
     0
100
AcDbVertex
100
AcDb2dVertex
 10
24.02416612236446
 20
10.79499098190024
 30
0.0
  0
VERTEX
  5
62
330
58
100
AcDbEntity
  8
Layer 1
370
     0
100
AcDbVertex
100
AcDb2dVertex
 10
23.77722275457409
 20
9.94832377714907
 30
0.0
  0
VERTEX
  5
63
330
58
100
AcDbEntity
  8
Layer 1
370
     0
100
AcDbVertex
100
AcDb2dVertex
 10
24.20055770269009
 20
9.31332539219633
 30
0.0
  0
SEQEND
  5
64
330
58
100
AcDbEntity
  8
Layer 1
370
     0
  0
SPLINE
  5
65
330
49
100
AcDbEntity
  8
Layer 1
370
     0
100
AcDbSpline
210
0.0
220
0.0
230
1.0
 70
    11
 71
     3
 72
    65
 73
    61
 74
     0
 42
0.0000000001
 43
0.0000000001
 12
1.0
 22
0.0
 32
0.0
 13
1.0
 23
0.0
 33
0.0
 40
0.0
 40
0.0
 40
0.0
 40
0.0
 40
1.0
 40
1.0
 40
1.0
 40
2.0
 40
2.0
 40
2.0
 40
3.0
 40
3.0
 40
3.0
 40
4.0
 40
4.0
 40
4.0
 40
5.0
 40
5.0
 40
5.0
 40
6.0
 40
6.0
 40
6.0
 40
7.0
 40
7.0
 40
7.0
 40
8.0
 40
8.0
 40
8.0
 40
9.0
 40
9.0
 40
9.0
 40
10.0
 40
10.0
 40
10.0
 40
11.0
 40
11.0
 40
11.0
 40
12.0
 40
12.0
 40
12.0
 40
13.0
 40
13.0
 40
13.0
 40
14.0
 40
14.0
 40
14.0
 40
15.0
 40
15.0
 40
15.0
 40
16.0
 40
16.0
 40
16.0
 40
17.0
 40
17.0
 40
17.0
 40
18.0
 40
18.0
 40
18.0
 40
19.0
 40
19.0
 40
19.0
 40
20.0
 40
20.0
 40
20.0
 40
20.0
 10
23.49500214731093
 20
12.06499313476742
 30
0.0
 10
23.49500214731093
 20
12.06499313476742
 30
0.0
 10
21.66055743417701
 20
13.54665872447133
 30
0.0
 10
21.66055743417701
 20
13.54665872447133
 30
0.0
 10
21.66055743417701
 20
13.54665872447133
 30
0.0
 10
22.0838910365526
 20
14.04054815153292
 30
0.0
 10
22.0838910365526
 20
14.04054815153292
 30
0.0
 10
22.0838910365526
 20
14.04054815153292
 30
0.0
 10
23.17750160909414
 20
13.96999367258734
 30
0.0
 10
23.17750160909414
 20
13.96999367258734
 30
0.0
 10
23.17750160909414
 20
13.96999367258734
 30
0.0
 10
22.61305770308697
 20
14.95777252671051
 30
0.0
 10
22.61305770308697
 20
14.95777252671051
 30
0.0
 10
22.61305770308697
 20
14.95777252671051
 30
0.0
 10
22.75416935245897
 20
15.34582754387288
 30
0.0
 10
22.75416935245897
 20
15.34582754387288
 30
0.0
 10
22.75416935245897
 20
15.34582754387288
 30
0.0
 10
22.96583548077655
 20
15.16943865502809
 30
0.0
 10
22.96583548077655
 20
15.16943865502809
 30
0.0
 10
22.96583548077655
 20
15.16943865502809
 30
0.0
 10
23.45972490783814
 20
14.9930497661833
 30
0.0
 10
23.45972490783814
 20
14.9930497661833
 30
0.0
 10
23.45972490783814
 20
14.9930497661833
 30
0.0
 10
23.31861325846614
 20
14.9930497661833
 30
0.0
 10
23.31861325846614
 20
14.9930497661833
 30
0.0
 10
23.31861325846614
 20
14.95777252671051
 30
0.0
 10
23.28333601899335
 20
14.95777252671051
 30
0.0
 10
23.28333601899335
 20
14.92249528723772
 30
0.0
 10
23.28333601899335
 20
14.92249528723772
 30
0.0
 10
23.28333601899335
 20
14.92249528723772
 30
0.0
 10
23.28333601899335
 20
14.92249528723772
 30
0.0
 10
23.28333601899335
 20
14.92249528723772
 30
0.0
 10
23.91833709542694
 20
14.18166249238577
 30
0.0
 10
23.91833709542694
 20
14.18166249238577
 30
0.0
 10
23.91833709542694
 20
14.18166249238577
 30
0.0
 10
24.02417150532615
 20
14.18166249238577
 30
0.0
 10
24.02417150532615
 20
14.18166249238577
 30
0.0
 10
24.02417150532615
 20
14.18166249238577
 30
0.0
 10
26.17611541093644
 20
14.78138363786572
 30
0.0
 10
26.17611541093644
 20
14.78138363786572
 30
0.0
 10
26.17611541093644
 20
14.78138363786572
 30
0.0
 10
26.24666988988202
 20
14.71082915892014
 30
0.0
 10
26.24666988988202
 20
14.71082915892014
 30
0.0
 10
26.32722591165821
 20
14.59718407160046
 30
0.0
 10
26.34068869885916
 20
14.44908264646659
 30
0.0
 10
26.28194712935481
 20
14.32277414175777
 30
0.0
 10
26.19945862432986
 20
14.16557551135816
 30
0.0
 10
26.09225963364078
 20
14.02264442093301
 30
0.0
 10
25.96444659113801
 20
13.89944188512261
 30
0.0
 10
25.96444659113801
 20
13.89944188512261
 30
0.0
 10
25.54111433450285
 20
13.44082969753381
 30
0.0
 10
25.54111433450285
 20
13.44082969753381
 30
0.0
 10
25.39928675122532
 20
13.3020515620569
 30
0.0
 10
25.32245304746171
 20
13.10996864838828
 30
0.0
 10
25.32944820618527
 20
12.91166303099944
 30
0.0
 10
25.33588622837333
 20
12.80274418404858
 30
0.0
 10
25.35970314239597
 20
12.6955559592829
 30
0.0
 10
25.40000268513085
 20
12.59416249278264
 30
0.0
 10
25.40000268513085
 20
12.59416249278264
 30
0.0
 10
23.49500214731093
 20
12.06499313476742
 30
0.0
 10
23.49500214731093
 20
12.06499313476742
 30
0.0
  0
POLYLINE
  5
66
330
49
100
AcDbEntity
  8
Layer 1
370
     0
100
AcDb2dPolyline
 66
     1
 10
0.0
 20
0.0
 30
0.0
  0
VERTEX
  5
67
330
66
100
AcDbEntity
  8
Layer 1
370
     0
100
AcDbVertex
100
AcDb2dVertex
 10
20.28472490863189
 20
9.172216434305174
 30
0.0
  0
VERTEX
  5
68
330
66
100
AcDbEntity
  8
Layer 1
370
     0
100
AcDbVertex
100
AcDb2dVertex
 10
19.57916935325272
 20
8.925273066514805
 30
0.0
  0
VERTEX
  5
69
330
66
100
AcDbEntity
  8
Layer 1
370
     0
100
AcDbVertex
100
AcDb2dVertex
 10
18.59139184486997
 20
9.736663031793187
 30
0.0
  0
VERTEX
  5
6A
330
66
100
AcDbEntity
  8
Layer 1
370
     0
100
AcDbVertex
100
AcDb2dVertex
 10
18.45028019549797
 20
8.431386330934068
 30
0.0
  0
VERTEX
  5
6B
330
66
100
AcDbEntity
  8
Layer 1
370
     0
100
AcDbVertex
100
AcDb2dVertex
 10
17.7447246401188
 20
8.078608553244484
 30
0.0
  0
VERTEX
  5
6C
330
66
100
AcDbEntity
  8
Layer 1
370
     0
100
AcDbVertex
100
AcDb2dVertex
 10
18.94416962255956
 20
11.74749797951232
 30
0.0
  0
VERTEX
  5
6D
330
66
100
AcDbEntity
  8
Layer 1
370
     0
100
AcDbVertex
100
AcDb2dVertex
 10
18.1327810030216
 20
11.57110909066753
 30
0.0
  0
VERTEX
  5
6E
330
66
100
AcDbEntity
  8
Layer 1
370
     0
100
AcDbVertex
100
AcDb2dVertex
 10
18.83833655840077
 20
12.4177762954187
 30
0.0
  0
VERTEX
  5
6F
330
66
100
AcDbEntity
  8
Layer 1
370
     0
100
AcDbVertex
100
AcDb2dVertex
 10
21.37833682691385
 20
12.20611016710112
 30
0.0
  0
VERTEX
  5
70
330
66
100
AcDbEntity
  8
Layer 1
370
     0
100
AcDbVertex
100
AcDb2dVertex
 10
21.27250376275506
 20
11.00666518466037
 30
0.0
  0
VERTEX
  5
71
330
66
100
AcDbEntity
  8
Layer 1
370
     0
100
AcDbVertex
100
AcDb2dVertex
 10
19.22639292130356
 20
9.666108552847609
 30
0.0
  0
VERTEX
  5
72
330
66
100
AcDbEntity
  8
Layer 1
370
     0
100
AcDbVertex
100
AcDb2dVertex
 10
20.28472490863189
 20
9.172216434305174
 30
0.0
  0
SEQEND
  5
73
330
66
100
AcDbEntity
  8
Layer 1
370
     0
  0
POLYLINE
  5
74
330
49
100
AcDbEntity
  8
Layer 1
370
     0
100
AcDb2dPolyline
 66
     1
 10
0.0
 20
0.0
 30
0.0
  0
VERTEX
  5
75
330
74
100
AcDbEntity
  8
Layer 1
370
     0
100
AcDbVertex
100
AcDb2dVertex
 10
18.73250214850155
 20
7.902216972918844
 30
0.0
  0
VERTEX
  5
76
330
74
100
AcDbEntity
  8
Layer 1
370
     0
100
AcDbVertex
100
AcDb2dVertex
 10
19.08527992619114
 20
8.149160340709214
 30
0.0
  0
VERTEX
  5
77
330
74
100
AcDbEntity
  8
Layer 1
370
     0
100
AcDbVertex
100
AcDb2dVertex
 10
19.08527992619114
 20
8.501938118398796
 30
0.0
  0
VERTEX
  5
78
330
74
100
AcDbEntity
  8
Layer 1
370
     0
100
AcDbVertex
100
AcDb2dVertex
 10
19.40278046440793
 20
8.254994750608427
 30
0.0
  0
VERTEX
  5
79
330
74
100
AcDbEntity
  8
Layer 1
370
     0
100
AcDbVertex
100
AcDb2dVertex
 10
19.7908354815703
 20
8.360829160507642
 30
0.0
  0
VERTEX
  5
7A
330
74
100
AcDbEntity
  8
Layer 1
370
     0
100
AcDbVertex
100
AcDb2dVertex
 10
19.68500241741151
 20
7.93749690387248
 30
0.0
  0
VERTEX
  5
7B
330
74
100
AcDbEntity
  8
Layer 1
370
     0
100
AcDbVertex
100
AcDb2dVertex
 10
19.8966685457291
 20
7.619996365655686
 30
0.0
  0
VERTEX
  5
7C
330
74
100
AcDbEntity
  8
Layer 1
370
     0
100
AcDbVertex
100
AcDb2dVertex
 10
19.50861083708588
 20
7.619996365655686
 30
0.0
  0
VERTEX
  5
7D
330
74
100
AcDbEntity
  8
Layer 1
370
     0
100
AcDbVertex
100
AcDb2dVertex
 10
19.22638888408229
 20
7.33777306691168
 30
0.0
  0
VERTEX
  5
7E
330
74
100
AcDbEntity
  8
Layer 1
370
     0
100
AcDbVertex
100
AcDb2dVertex
 10
19.08527723471029
 20
7.761105323546841
 30
0.0
  0
VERTEX
  5
7F
330
74
100
AcDbEntity
  8
Layer 1
370
     0
100
AcDbVertex
100
AcDb2dVertex
 10
18.73250214850155
 20
7.902216972918844
 30
0.0
  0
SEQEND
  5
80
330
74
100
AcDbEntity
  8
Layer 1
370
     0
  0
POLYLINE
  5
81
330
49
100
AcDbEntity
  8
Layer 1
370
     0
100
AcDb2dPolyline
 66
     1
 10
0.0
 20
0.0
 30
0.0
  0
VERTEX
  5
82
330
81
100
AcDbEntity
  8
Layer 1
370
     0
100
AcDbVertex
100
AcDb2dVertex
 10
18.90889103734635
 20
6.173605323943716
 30
0.0
  0
VERTEX
  5
83
330
81
100
AcDbEntity
  8
Layer 1
370
     0
100
AcDbVertex
100
AcDb2dVertex
 10
18.02694659312239
 20
7.58471643470205
 30
0.0
  0
VERTEX
  5
84
330
81
100
AcDbEntity
  8
Layer 1
370
     0
100
AcDbVertex
100
AcDb2dVertex
 10
18.62666908434277
 20
7.302493135958043
 30
0.0
  0
VERTEX
  5
85
330
81
100
AcDbEntity
  8
Layer 1
370
     0
100
AcDbVertex
100
AcDb2dVertex
 10
18.90889103734635
 20
6.173605323943716
 30
0.0
  0
SEQEND
  5
86
330
81
100
AcDbEntity
  8
Layer 1
370
     0
  0
POLYLINE
  5
87
330
49
100
AcDbEntity
  8
Layer 1
370
     0
100
AcDb2dPolyline
 66
     1
 10
0.0
 20
0.0
 30
0.0
  0
VERTEX
  5
88
330
87
100
AcDbEntity
  8
Layer 1
370
     0
100
AcDbVertex
100
AcDb2dVertex
 10
11.67694390322904
 20
2.786936504939038
 30
0.0
  0
VERTEX
  5
89
330
87
100
AcDbEntity
  8
Layer 1
370
     0
100
AcDbVertex
100
AcDb2dVertex
 10
11.57111083907025
 20
3.17499152210141
 30
0.0
  0
VERTEX
  5
8A
330
87
100
AcDbEntity
  8
Layer 1
370
     0
100
AcDbVertex
100
AcDb2dVertex
 10
11.14777723669466
 20
3.351380410946201
 30
0.0
  0
VERTEX
  5
8B
330
87
100
AcDbEntity
  8
Layer 1
370
     0
100
AcDbVertex
100
AcDb2dVertex
 10
11.53583225385704
 20
3.59832377873657
 30
0.0
  0
VERTEX
  5
8C
330
87
100
AcDbEntity
  8
Layer 1
370
     0
100
AcDbVertex
100
AcDb2dVertex
 10
11.53583225385704
 20
4.021656035371731
 30
0.0
  0
VERTEX
  5
8D
330
87
100
AcDbEntity
  8
Layer 1
370
     0
100
AcDbVertex
100
AcDb2dVertex
 10
11.88861003154662
 20
3.739432736627725
 30
0.0
  0
VERTEX
  5
8E
330
87
100
AcDbEntity
  8
Layer 1
370
     0
100
AcDbVertex
100
AcDb2dVertex
 10
12.3119436339222
 20
3.880544385999728
 30
0.0
  0
VERTEX
  5
8F
330
87
100
AcDbEntity
  8
Layer 1
370
     0
100
AcDbVertex
100
AcDb2dVertex
 10
12.1708319845502
 20
3.386654958938142
 30
0.0
  0
VERTEX
  5
90
330
87
100
AcDbEntity
  8
Layer 1
370
     0
100
AcDbVertex
100
AcDb2dVertex
 10
12.417776698081
 20
3.033877181248559
 30
0.0
  0
VERTEX
  5
91
330
87
100
AcDbEntity
  8
Layer 1
370
     0
100
AcDbVertex
100
AcDb2dVertex
 10
11.99444444144583
 20
3.033877181248559
 30
0.0
  0
VERTEX
  5
92
330
87
100
AcDbEntity
  8
Layer 1
370
     0
100
AcDbVertex
100
AcDb2dVertex
 10
11.71222248844225
 20
2.751653882504553
 30
0.0
  0
VERTEX
  5
93
330
87
100
AcDbEntity
  8
Layer 1
370
     0
100
AcDbVertex
100
AcDb2dVertex
 10
11.67694390322904
 20
2.786936504939038
 30
0.0
  0
SEQEND
  5
94
330
87
100
AcDbEntity
  8
Layer 1
370
     0
  0
POLYLINE
  5
95
330
49
100
AcDbEntity
  8
Layer 1
370
     0
100
AcDb2dPolyline
 66
     1
 10
0.0
 20
0.0
 30
0.0
  0
VERTEX
  5
96
330
95
100
AcDbEntity
  8
Layer 1
370
     0
100
AcDbVertex
100
AcDb2dVertex
 10
12.98222194982858
 20
7.796379871538782
 30
0.0
  0
VERTEX
  5
97
330
95
100
AcDbEntity
  8
Layer 1
370
     0
100
AcDbVertex
100
AcDb2dVertex
 10
14.00527804342454
 20
8.431380947972372
 30
0.0
  0
VERTEX
  5
98
330
95
100
AcDbEntity
  8
Layer 1
370
     0
100
AcDbVertex
100
AcDb2dVertex
 10
14.11111110758333
 20
9.48971428104112
 30
0.0
  0
VERTEX
  5
99
330
95
100
AcDbEntity
  8
Layer 1
370
     0
100
AcDbVertex
100
AcDb2dVertex
 10
15.02833279128008
 20
8.784158725661955
 30
0.0
  0
VERTEX
  5
9A
330
95
100
AcDbEntity
  8
Layer 1
370
     0
100
AcDbVertex
100
AcDb2dVertex
 10
16.15722194903483
 20
9.10165926387875
 30
0.0
  0
VERTEX
  5
9B
330
95
100
AcDbEntity
  8
Layer 1
370
     0
100
AcDbVertex
100
AcDb2dVertex
 10
15.80444417134525
 20
7.866937041965207
 30
0.0
  0
VERTEX
  5
9C
330
95
100
AcDbEntity
  8
Layer 1
370
     0
100
AcDbVertex
100
AcDb2dVertex
 10
16.43944390203842
 20
6.914438118795672
 30
0.0
  0
VERTEX
  5
9D
330
95
100
AcDbEntity
  8
Layer 1
370
     0
100
AcDbVertex
100
AcDb2dVertex
 10
15.16944444065208
 20
6.914438118795672
 30
0.0
  0
VERTEX
  5
9E
330
95
100
AcDbEntity
  8
Layer 1
370
     0
100
AcDbVertex
100
AcDb2dVertex
 10
14.42861164580013
 20
6.138328084470927
 30
0.0
  0
VERTEX
  5
9F
330
95
100
AcDbEntity
  8
Layer 1
370
     0
100
AcDbVertex
100
AcDb2dVertex
 10
14.04055662863776
 20
7.267215896485255
 30
0.0
  0
VERTEX
  5
A0
330
95
100
AcDbEntity
  8
Layer 1
370
     0
100
AcDbVertex
100
AcDb2dVertex
 10
12.98222194982858
 20
7.796379871538782
 30
0.0
  0
SEQEND
  5
A1
330
95
100
AcDbEntity
  8
Layer 1
370
     0
  0
POLYLINE
  5
A2
330
49
100
AcDbEntity
  8
Layer 1
370
     0
100
AcDb2dPolyline
 66
     1
 10
0.0
 20
0.0
 30
0.0
  0
VERTEX
  5
A3
330
A2
100
AcDbEntity
  8
Layer 1
370
     0
100
AcDbVertex
100
AcDb2dVertex
 10
13.51138861636296
 20
2.681102095039823
 30
0.0
  0
VERTEX
  5
A4
330
A2
100
AcDbEntity
  8
Layer 1
370
     0
100
AcDbVertex
100
AcDb2dVertex
 10
12.84111030045658
 20
3.59832377873657
 30
0.0
  0
VERTEX
  5
A5
330
A2
100
AcDbEntity
  8
Layer 1
370
     0
100
AcDbVertex
100
AcDb2dVertex
 10
13.12333225346016
 20
4.092213205798156
 30
0.0
  0
VERTEX
  5
A6
330
A2
100
AcDbEntity
  8
Layer 1
370
     0
100
AcDbVertex
100
AcDb2dVertex
 10
13.51138861636296
 20
2.681102095039823
 30
0.0
  0
SEQEND
  5
A7
330
A2
100
AcDbEntity
  8
Layer 1
370
     0
  0
POLYLINE
  5
A8
330
49
100
AcDbEntity
  8
Layer 1
370
     0
100
AcDb2dPolyline
 66
     1
 10
0.0
 20
0.0
 30
0.0
  0
VERTEX
  5
A9
330
A8
100
AcDbEntity
  8
Layer 1
370
     0
100
AcDbVertex
100
AcDb2dVertex
 10
15.34583332949687
 20
10.79499098190024
 30
0.0
  0
VERTEX
  5
AA
330
A8
100
AcDbEntity
  8
Layer 1
370
     0
100
AcDbVertex
100
AcDb2dVertex
 10
12.45305528329421
 20
13.26443542572732
 30
0.0
  0
VERTEX
  5
AB
330
A8
100
AcDbEntity
  8
Layer 1
370
     0
100
AcDbVertex
100
AcDb2dVertex
 10
12.34722221913542
 20
12.17082485318578
 30
0.0
  0
VERTEX
  5
AC
330
A8
100
AcDbEntity
  8
Layer 1
370
     0
100
AcDbVertex
100
AcDb2dVertex
 10
12.02972168091862
 20
12.59415710982095
 30
0.0
  0
VERTEX
  5
AD
330
A8
100
AcDbEntity
  8
Layer 1
370
     0
100
AcDbVertex
100
AcDb2dVertex
 10
12.45305528329421
 20
13.89943381068007
 30
0.0
  0
VERTEX
  5
AE
330
A8
100
AcDbEntity
  8
Layer 1
370
     0
100
AcDbVertex
100
AcDb2dVertex
 10
11.74749972791504
 20
13.82887933173449
 30
0.0
  0
VERTEX
  5
AF
330
A8
100
AcDbEntity
  8
Layer 1
370
     0
100
AcDbVertex
100
AcDb2dVertex
 10
12.66472141161179
 20
15.02832431417524
 30
0.0
  0
VERTEX
  5
B0
330
A8
100
AcDbEntity
  8
Layer 1
370
     0
100
AcDbVertex
100
AcDb2dVertex
 10
14.39333306058692
 20
14.85193542533045
 30
0.0
  0
VERTEX
  5
B1
330
A8
100
AcDbEntity
  8
Layer 1
370
     0
100
AcDbVertex
100
AcDb2dVertex
 10
13.37027696699096
 20
14.18165710942407
 30
0.0
  0
VERTEX
  5
B2
330
A8
100
AcDbEntity
  8
Layer 1
370
     0
100
AcDbVertex
100
AcDb2dVertex
 10
16.15722194903483
 20
13.05276929740974
 30
0.0
  0
VERTEX
  5
B3
330
A8
100
AcDbEntity
  8
Layer 1
370
     0
100
AcDbVertex
100
AcDb2dVertex
 10
16.61583279088321
 20
11.14776875958982
 30
0.0
  0
VERTEX
  5
B4
330
A8
100
AcDbEntity
  8
Layer 1
370
     0
100
AcDbVertex
100
AcDb2dVertex
 10
15.34583332949687
 20
10.79499098190024
 30
0.0
  0
SEQEND
  5
B5
330
A8
100
AcDbEntity
  8
Layer 1
370
     0
  0
POLYLINE
  5
B6
330
49
100
AcDbEntity
  8
Layer 1
370
     0
100
AcDb2dPolyline
 66
     1
 10
0.0
 20
0.0
 30
0.0
  0
VERTEX
  5
B7
330
B6
100
AcDbEntity
  8
Layer 1
370
     0
100
AcDbVertex
100
AcDb2dVertex
 10
10.6186112430305
 20
10.51276768315623
 30
0.0
  0
VERTEX
  5
B8
330
B6
100
AcDbEntity
  8
Layer 1
370
     0
100
AcDbVertex
100
AcDb2dVertex
 10
11.39472195022546
 20
11.50054653727941
 30
0.0
  0
VERTEX
  5
B9
330
B6
100
AcDbEntity
  8
Layer 1
370
     0
100
AcDbVertex
100
AcDb2dVertex
 10
12.34722221913542
 20
11.42999205833383
 30
0.0
  0
VERTEX
  5
BA
330
B6
100
AcDbEntity
  8
Layer 1
370
     0
100
AcDbVertex
100
AcDb2dVertex
 10
12.24138915497663
 20
9.454437041568331
 30
0.0
  0
VERTEX
  5
BB
330
B6
100
AcDbEntity
  8
Layer 1
370
     0
100
AcDbVertex
100
AcDb2dVertex
 10
11.78277831312825
 20
9.172213742824326
 30
0.0
  0
VERTEX
  5
BC
330
B6
100
AcDbEntity
  8
Layer 1
370
     0
100
AcDbVertex
100
AcDb2dVertex
 10
11.39472329596588
 20
9.73665764883149
 30
0.0
  0
VERTEX
  5
BD
330
B6
100
AcDbEntity
  8
Layer 1
370
     0
100
AcDbVertex
100
AcDb2dVertex
 10
11.74750107365547
 20
10.72443650295466
 30
0.0
  0
VERTEX
  5
BE
330
B6
100
AcDbEntity
  8
Layer 1
370
     0
100
AcDbVertex
100
AcDb2dVertex
 10
10.6186112430305
 20
10.51276768315623
 30
0.0
  0
SEQEND
  5
BF
330
B6
100
AcDbEntity
  8
Layer 1
370
     0
  0
SPLINE
  5
C0
330
49
100
AcDbEntity
  8
Layer 1
370
     0
100
AcDbSpline
210
0.0
220
0.0
230
1.0
 70
    11
 71
     3
 72
    86
 73
    82
 74
     0
 42
0.0000000001
 43
0.0000000001
 12
1.0
 22
0.0
 32
0.0
 13
1.0
 23
0.0
 33
0.0
 40
0.0
 40
0.0
 40
0.0
 40
0.0
 40
1.0
 40
1.0
 40
1.0
 40
2.0
 40
2.0
 40
2.0
 40
3.0
 40
3.0
 40
3.0
 40
4.0
 40
4.0
 40
4.0
 40
5.0
 40
5.0
 40
5.0
 40
6.0
 40
6.0
 40
6.0
 40
7.0
 40
7.0
 40
7.0
 40
8.0
 40
8.0
 40
8.0
 40
9.0
 40
9.0
 40
9.0
 40
10.0
 40
10.0
 40
10.0
 40
11.0
 40
11.0
 40
11.0
 40
12.0
 40
12.0
 40
12.0
 40
13.0
 40
13.0
 40
13.0
 40
14.0
 40
14.0
 40
14.0
 40
15.0
 40
15.0
 40
15.0
 40
16.0
 40
16.0
 40
16.0
 40
17.0
 40
17.0
 40
17.0
 40
18.0
 40
18.0
 40
18.0
 40
19.0
 40
19.0
 40
19.0
 40
20.0
 40
20.0
 40
20.0
 40
21.0
 40
21.0
 40
21.0
 40
22.0
 40
22.0
 40
22.0
 40
23.0
 40
23.0
 40
23.0
 40
24.0
 40
24.0
 40
24.0
 40
25.0
 40
25.0
 40
25.0
 40
26.0
 40
26.0
 40
26.0
 40
27.0
 40
27.0
 40
27.0
 40
27.0
 10
8.643055553394792
 20
12.98221212698332
 30
0.0
 10
8.643055553394792
 20
12.98221212698332
 30
0.0
 10
9.560277909961751
 20
13.22915549477369
 30
0.0
 10
9.560277909961751
 20
13.22915549477369
 30
0.0
 10
9.560277909961751
 20
13.22915549477369
 30
0.0
 10
9.207500132272168
 20
13.54665603299048
 30
0.0
 10
9.207500132272168
 20
13.54665603299048
 30
0.0
 10
9.207500132272168
 20
13.54665603299048
 30
0.0
 10
8.32555568804821
 20
13.29971266520011
 30
0.0
 10
8.32555568804821
 20
13.29971266520011
 30
0.0
 10
8.32555568804821
 20
13.29971266520011
 30
0.0
 10
7.937499998015626
 20
13.68776768236248
 30
0.0
 10
7.937499998015626
 20
13.68776768236248
 30
0.0
 10
7.937499998015626
 20
13.68776768236248
 30
0.0
 10
9.48972208527575
 20
14.11109993899765
 30
0.0
 10
9.48972208527575
 20
14.11109993899765
 30
0.0
 10
9.48972208527575
 20
14.11109993899765
 30
0.0
 10
9.172222219929168
 20
14.42860316869529
 30
0.0
 10
9.172222219929168
 20
14.42860316869529
 30
0.0
 10
9.172222219929168
 20
14.42860316869529
 30
0.0
 10
7.831666933856835
 20
14.0758253910057
 30
0.0
 10
7.831666933856835
 20
14.0758253910057
 30
0.0
 10
7.831666933856835
 20
14.0758253910057
 30
0.0
 10
8.043333735044628
 20
14.92249259575688
 30
0.0
 10
8.043333735044628
 20
14.92249259575688
 30
0.0
 10
8.043333735044628
 20
14.92249259575688
 30
0.0
 10
7.584722893196254
 20
14.81665818585766
 30
0.0
 10
7.584722893196254
 20
14.81665818585766
 30
0.0
 10
7.584722893196254
 20
14.81665818585766
 30
0.0
 10
7.514167068510252
 20
14.53443488711365
 30
0.0
 10
7.478889829037464
 20
14.32276875879607
 30
0.0
 10
7.478889829037464
 20
14.32276875879607
 30
0.0
 10
7.196667876033882
 20
14.64026929701287
 30
0.0
 10
7.196667876033882
 20
14.64026929701287
 30
0.0
 10
7.196667876033882
 20
14.64026929701287
 30
0.0
 10
7.549445653723465
 20
16.0513804077712
 30
0.0
 10
7.549445653723465
 20
16.0513804077712
 30
0.0
 10
7.549445653723465
 20
16.0513804077712
 30
0.0
 10
7.97277925609905
 20
16.19249205714321
 30
0.0
 10
7.97277925609905
 20
16.19249205714321
 30
0.0
 10
7.902223431413049
 20
15.98082592882562
 30
0.0
 10
7.831668279597259
 20
15.69860263008162
 30
0.0
 10
7.831668279597259
 20
15.69860263008162
 30
0.0
 10
7.831668279597259
 20
15.69860263008162
 30
0.0
 10
8.149168144943841
 20
15.38110209186482
 30
0.0
 10
8.149168144943841
 20
15.38110209186482
 30
0.0
 10
8.149168144943841
 20
15.38110209186482
 30
0.0
 10
8.396112858474634
 20
16.22776929661599
 30
0.0
 10
8.396112858474634
 20
16.22776929661599
 30
0.0
 10
8.396112858474634
 20
16.22776929661599
 30
0.0
 10
9.383890366857383
 20
15.23999044249282
 30
0.0
 10
9.383890366857383
 20
15.23999044249282
 30
0.0
 10
9.383890366857383
 20
15.23999044249282
 30
0.0
 10
9.842501208705757
 20
15.38110209186482
 30
0.0
 10
9.842501208705757
 20
15.38110209186482
 30
0.0
 10
9.842501208705757
 20
15.38110209186482
 30
0.0
 10
8.9605567644818
 20
16.22776929661599
 30
0.0
 10
8.9605567644818
 20
16.22776929661599
 30
0.0
 10
8.9605567644818
 20
16.22776929661599
 30
0.0
 10
10.72444565292971
 20
15.41637933133761
 30
0.0
 10
10.72444565292971
 20
15.41637933133761
 30
0.0
 10
10.72444565292971
 20
15.41637933133761
 30
0.0
 10
11.1477792553053
 20
13.61721320341691
 30
0.0
 10
11.1477792553053
 20
13.61721320341691
 30
0.0
 10
11.1477792553053
 20
13.61721320341691
 30
0.0
 10
10.01889009755055
 20
14.53443488711365
 30
0.0
 10
10.01889009755055
 20
14.53443488711365
 30
0.0
 10
10.01889009755055
 20
14.53443488711365
 30
0.0
 10
10.01889009755055
 20
13.08804653688253
 30
0.0
 10
10.01889009755055
 20
13.08804653688253
 30
0.0
 10
10.01889009755055
 20
13.08804653688253
 30
0.0
 10
8.890000939795797
 20
12.41776822097615
 30
0.0
 10
8.890000939795797
 20
12.41776822097615
 30
0.0
 10
8.890000939795797
 20
12.41776822097615
 30
0.0
 10
8.925278852138797
 20
12.41776822097615
 30
0.0
 10
8.925278852138797
 20
12.41776822097615
 30
0.0
 10
8.925278852138797
 20
12.41776822097615
 30
0.0
 10
9.066389828640588
 20
12.55887987034816
 30
0.0
 10
9.066389828640588
 20
12.55887987034816
 30
0.0
 10
9.066389828640588
 20
12.55887987034816
 30
0.0
 10
8.643055553394792
 20
12.98221212698332
 30
0.0
 10
8.643055553394792
 20
12.98221212698332
 30
0.0
  0
SPLINE
  5
C1
330
49
100
AcDbEntity
  8
Layer 1
370
     0
100
AcDbSpline
210
0.0
220
0.0
230
1.0
 70
    11
 71
     3
 72
    20
 73
    16
 74
     0
 42
0.0000000001
 43
0.0000000001
 12
1.0
 22
0.0
 32
0.0
 13
1.0
 23
0.0
 33
0.0
 40
0.0
 40
0.0
 40
0.0
 40
0.0
 40
1.0
 40
1.0
 40
1.0
 40
2.0
 40
2.0
 40
2.0
 40
3.0
 40
3.0
 40
3.0
 40
4.0
 40
4.0
 40
4.0
 40
5.0
 40
5.0
 40
5.0
 40
5.0
 10
6.914444577289876
 20
14.64026660553202
 30
0.0
 10
6.596944711943293
 20
14.95776714374882
 30
0.0
 10
6.3147220860695
 20
15.27526768196561
 30
0.0
 10
5.997222220722917
 20
15.55748828922877
 30
0.0
 10
6.03684754750541
 20
15.64678624079878
 30
0.0
 10
6.060718291145004
 20
15.74227190683801
 30
0.0
 10
6.067778045408918
 20
15.83971158797277
 30
0.0
 10
6.067778045408918
 20
15.83971158797277
 30
0.0
 10
7.33777817966546
 20
16.19248936566236
 30
0.0
 10
7.33777817966546
 20
16.19248936566236
 30
0.0
 10
7.33777817966546
 20
16.19248936566236
 30
0.0
 10
6.667500536629295
 20
15.52221104975598
 30
0.0
 10
6.667500536629295
 20
15.52221104975598
 30
0.0
 10
6.667500536629295
 20
15.52221104975598
 30
0.0
 10
6.914444577289876
 20
14.64026660553202
 30
0.0
 10
6.914444577289876
 20
14.64026660553202
 30
0.0
  0
SPLINE
  5
C2
330
49
100
AcDbEntity
  8
Layer 1
370
     0
100
AcDbSpline
210
0.0
220
0.0
230
1.0
 70
    11
 71
     3
 72
    44
 73
    40
 74
     0
 42
0.0000000001
 43
0.0000000001
 12
1.0
 22
0.0
 32
0.0
 13
1.0
 23
0.0
 33
0.0
 40
0.0
 40
0.0
 40
0.0
 40
0.0
 40
1.0
 40
1.0
 40
1.0
 40
2.0
 40
2.0
 40
2.0
 40
3.0
 40
3.0
 40
3.0
 40
4.0
 40
4.0
 40
4.0
 40
5.0
 40
5.0
 40
5.0
 40
6.0
 40
6.0
 40
6.0
 40
7.0
 40
7.0
 40
7.0
 40
8.0
 40
8.0
 40
8.0
 40
9.0
 40
9.0
 40
9.0
 40
10.0
 40
10.0
 40
10.0
 40
11.0
 40
11.0
 40
11.0
 40
12.0
 40
12.0
 40
12.0
 40
13.0
 40
13.0
 40
13.0
 40
13.0
 10
2.786944477391219
 20
16.33360370651521
 30
0.0
 10
2.786944477391219
 20
16.33360370651521
 30
0.0
 10
2.539999932077979
 20
15.48693650176404
 30
0.0
 10
2.539999932077979
 20
15.48693650176404
 30
0.0
 10
2.539999932077979
 20
15.48693650176404
 30
0.0
 10
2.010833265543604
 20
16.01610316829841
 30
0.0
 10
2.010833265543604
 20
16.01610316829841
 30
0.0
 10
2.010833265543604
 20
16.01610316829841
 30
0.0
 10
2.010833265543604
 20
16.29832646704242
 30
0.0
 10
2.010833265543604
 20
16.29832646704242
 30
0.0
 10
2.010833265543604
 20
16.651104244732
 30
0.0
 10
2.046111009669052
 20
17.00388202242159
 30
0.0
 10
2.046111009669052
 20
17.32138256063838
 30
0.0
 10
2.046111009669052
 20
17.32138256063838
 30
0.0
 10
3.104444174520249
 20
17.63888309885517
 30
0.0
 10
3.104444174520249
 20
17.63888309885517
 30
0.0
 10
3.104444174520249
 20
17.63888309885517
 30
0.0
 10
2.892777373332456
 20
16.75693865463122
 30
0.0
 10
2.892777373332456
 20
16.75693865463122
 30
0.0
 10
2.892777373332456
 20
16.75693865463122
 30
0.0
 10
3.351388888051042
 20
16.89804761252237
 30
0.0
 10
3.351388888051042
 20
16.89804761252237
 30
0.0
 10
3.351388888051042
 20
16.89804761252237
 30
0.0
 10
3.457222288644938
 20
17.35665980011117
 30
0.0
 10
3.457222288644938
 20
17.35665980011117
 30
0.0
 10
3.457222288644938
 20
17.35665980011117
 30
0.0
 10
3.774722153991521
 20
17.07443650136716
 30
0.0
 10
3.774722153991521
 20
17.07443650136716
 30
0.0
 10
3.774722153991521
 20
17.07443650136716
 30
0.0
 10
3.386666800394043
 20
15.62804815113604
 30
0.0
 10
3.386666800394043
 20
15.62804815113604
 30
0.0
 10
3.386666800394043
 20
15.62804815113604
 30
0.0
 10
2.963333534453564
 20
15.52221374123683
 30
0.0
 10
2.963333534453564
 20
15.52221374123683
 30
0.0
 10
3.020407395137571
 20
15.68381025134183
 30
0.0
 10
3.067532869737708
 20
15.84874688917901
 30
0.0
 10
3.104444510955354
 20
16.01610316829841
 30
0.0
 10
3.104444510955354
 20
16.01610316829841
 30
0.0
 10
2.786944477391219
 20
16.33360370651521
 30
0.0
 10
2.786944477391219
 20
16.33360370651521
 30
0.0
  0
SPLINE
  5
C3
330
49
100
AcDbEntity
  8
Layer 1
370
     0
100
AcDbSpline
210
0.0
220
0.0
230
1.0
 70
    11
 71
     3
 72
    14
 73
    10
 74
     0
 42
0.0000000001
 43
0.0000000001
 12
1.0
 22
0.0
 32
0.0
 13
1.0
 23
0.0
 33
0.0
 40
0.0
 40
0.0
 40
0.0
 40
0.0
 40
1.0
 40
1.0
 40
1.0
 40
2.0
 40
2.0
 40
2.0
 40
3.0
 40
3.0
 40
3.0
 40
3.0
 10
2.1166666661375
 20
14.74610370691208
 30
0.0
 10
2.1166666661375
 20
14.74610370691208
 30
0.0
 10
2.363611043233187
 20
14.81665818585766
 30
0.0
 10
2.363611043233187
 20
14.81665818585766
 30
0.0
 10
2.363611043233187
 20
14.81665818585766
 30
0.0
 10
2.187222154388396
 20
14.11110263047849
 30
0.0
 10
2.187222154388396
 20
14.11110263047849
 30
0.0
 10
2.146289272566506
 20
14.32047023415201
 30
0.0
 10
2.12269070492765
 20
14.53285767933681
 30
0.0
 10
2.1166666661375
 20
14.74610370691208
 30
0.0
  0
POLYLINE
  5
C4
330
49
100
AcDbEntity
  8
Layer 1
370
     0
100
AcDb2dPolyline
 66
     1
 10
0.0
 20
0.0
 30
0.0
  0
VERTEX
  5
C5
330
C4
100
AcDbEntity
  8
Layer 1
370
     0
100
AcDbVertex
100
AcDb2dVertex
 10
2.222500066731396
 20
18.80304815034229
 30
0.0
  0
VERTEX
  5
C6
330
C4
100
AcDbEntity
  8
Layer 1
370
     0
100
AcDbVertex
100
AcDb2dVertex
 10
2.293055554982292
 20
18.73249367139671
 30
0.0
  0
VERTEX
  5
C7
330
C4
100
AcDbEntity
  8
Layer 1
370
     0
100
AcDbVertex
100
AcDb2dVertex
 10
2.222500066731396
 20
18.73249367139671
 30
0.0
  0
VERTEX
  5
C8
330
C4
100
AcDbEntity
  8
Layer 1
370
     0
100
AcDbVertex
100
AcDb2dVertex
 10
2.222500066731396
 20
18.80304815034229
 30
0.0
  0
SEQEND
  5
C9
330
C4
100
AcDbEntity
  8
Layer 1
370
     0
  0
SPLINE
  5
CA
330
49
100
AcDbEntity
  8
Layer 1
370
     0
100
AcDbSpline
210
0.0
220
0.0
230
1.0
 70
    11
 71
     3
 72
    17
 73
    13
 74
     0
 42
0.0000000001
 43
0.0000000001
 12
1.0
 22
0.0
 32
0.0
 13
1.0
 23
0.0
 33
0.0
 40
0.0
 40
0.0
 40
0.0
 40
0.0
 40
1.0
 40
1.0
 40
1.0
 40
2.0
 40
2.0
 40
2.0
 40
3.0
 40
3.0
 40
3.0
 40
4.0
 40
4.0
 40
4.0
 40
4.0
 10
2.151944578480501
 20
18.27388148380792
 30
0.0
 10
2.151944578480501
 20
18.27388148380792
 30
0.0
 10
2.610555756763981
 20
18.41499313317992
 30
0.0
 10
2.610555756763981
 20
18.41499313317992
 30
0.0
 10
2.610555756763981
 20
18.41499313317992
 30
0.0
 10
2.998611446796565
 20
18.02693811601755
 30
0.0
 10
2.998611446796565
 20
18.02693811601755
 30
0.0
 10
2.998611446796565
 20
18.02693811601755
 30
0.0
 10
2.081389258447158
 20
17.77999474822718
 30
0.0
 10
2.081389258447158
 20
17.77999474822718
 30
0.0
 10
2.1166666661375
 20
17.92110370611833
 30
0.0
 10
2.1166666661375
 20
18.09749259496312
 30
0.0
 10
2.151944578480501
 20
18.27388148380792
 30
0.0
  0
SPLINE
  5
CB
330
49
100
AcDbEntity
  8
Layer 1
370
     0
100
AcDbSpline
210
0.0
220
0.0
230
1.0
 70
    11
 71
     3
 72
    14
 73
    10
 74
     0
 42
0.0000000001
 43
0.0000000001
 12
1.0
 22
0.0
 32
0.0
 13
1.0
 23
0.0
 33
0.0
 40
0.0
 40
0.0
 40
0.0
 40
0.0
 40
1.0
 40
1.0
 40
1.0
 40
2.0
 40
2.0
 40
2.0
 40
3.0
 40
3.0
 40
3.0
 40
3.0
 10
2.046111177886605
 20
15.41638202281846
 30
0.0
 10
2.046111177886605
 20
15.41638202281846
 30
0.0
 10
2.257777810856844
 20
15.20471589450088
 30
0.0
 10
2.257777810856844
 20
15.20471589450088
 30
0.0
 10
2.257777810856844
 20
15.20471589450088
 30
0.0
 10
2.081388922012053
 20
15.1341614155553
 30
0.0
 10
2.081388922012053
 20
15.1341614155553
 30
0.0
 10
2.052345656835547
 20
15.22525996781253
 30
0.0
 10
2.04038555703546
 20
15.3209394204728
 30
0.0
 10
2.046111177886605
 20
15.41638202281846
 30
0.0
  0
SPLINE
  5
CC
330
49
100
AcDbEntity
  8
Layer 1
370
     0
100
AcDbSpline
210
0.0
220
0.0
230
1.0
 70
    11
 71
     3
 72
    20
 73
    16
 74
     0
 42
0.0000000001
 43
0.0000000001
 12
1.0
 22
0.0
 32
0.0
 13
1.0
 23
0.0
 33
0.0
 40
0.0
 40
0.0
 40
0.0
 40
0.0
 40
1.0
 40
1.0
 40
1.0
 40
2.0
 40
2.0
 40
2.0
 40
3.0
 40
3.0
 40
3.0
 40
4.0
 40
4.0
 40
4.0
 40
5.0
 40
5.0
 40
5.0
 40
5.0
 10
4.268611244618001
 20
16.15721481767041
 30
0.0
 10
4.268611244618001
 20
16.15721481767041
 30
0.0
 10
4.021666867522314
 20
17.03915926189437
 30
0.0
 10
4.021666867522314
 20
17.03915926189437
 30
0.0
 10
4.344788563489846
 20
16.75130807669751
 30
0.0
 10
4.651037702457304
 20
16.44505792842473
 30
0.0
 10
4.938888887654167
 20
16.12193757819763
 30
0.0
 10
4.894993190071452
 20
16.0341630047875
 30
0.0
 10
4.870907464399135
 20
15.93781875635781
 30
0.0
 10
4.868333399403271
 20
15.83971427945362
 30
0.0
 10
4.868333399403271
 20
15.83971427945362
 30
0.0
 10
3.63361117748973
 20
15.52221374123683
 30
0.0
 10
3.63361117748973
 20
15.52221374123683
 30
0.0
 10
3.63361117748973
 20
15.52221374123683
 30
0.0
 10
4.268611244618001
 20
16.15721481767041
 30
0.0
 10
4.268611244618001
 20
16.15721481767041
 30
0.0
  0
POLYLINE
  5
CD
330
49
100
AcDbEntity
  8
Layer 1
370
     0
100
AcDb2dPolyline
 66
     1
 10
0.0
 20
0.0
 30
0.0
  0
VERTEX
  5
CE
330
CD
100
AcDbEntity
  8
Layer 1
370
     0
100
AcDbVertex
100
AcDb2dVertex
 10
6.420555823098502
 20
18.1680470739087
 30
0.0
  0
VERTEX
  5
CF
330
CD
100
AcDbEntity
  8
Layer 1
370
     0
100
AcDbVertex
100
AcDb2dVertex
 10
6.773333600788085
 20
17.81526929621912
 30
0.0
  0
VERTEX
  5
D0
330
CD
100
AcDbEntity
  8
Layer 1
370
     0
100
AcDbVertex
100
AcDb2dVertex
 10
7.231944442636459
 20
17.95638094559112
 30
0.0
  0
VERTEX
  5
D1
330
CD
100
AcDbEntity
  8
Layer 1
370
     0
100
AcDbVertex
100
AcDb2dVertex
 10
6.596944711943293
 20
18.55610209107108
 30
0.0
  0
VERTEX
  5
D2
330
CD
100
AcDbEntity
  8
Layer 1
370
     0
100
AcDbVertex
100
AcDb2dVertex
 10
7.937499998015626
 20
18.94415710823345
 30
0.0
  0
VERTEX
  5
D3
330
CD
100
AcDbEntity
  8
Layer 1
370
     0
100
AcDbVertex
100
AcDb2dVertex
 10
8.043333062174415
 20
19.29693488592303
 30
0.0
  0
VERTEX
  5
D4
330
CD
100
AcDbEntity
  8
Layer 1
370
     0
100
AcDbVertex
100
AcDb2dVertex
 10
8.67833279286758
 20
18.97943434770623
 30
0.0
  0
VERTEX
  5
D5
330
CD
100
AcDbEntity
  8
Layer 1
370
     0
100
AcDbVertex
100
AcDb2dVertex
 10
8.854721681712373
 20
18.41499044169907
 30
0.0
  0
VERTEX
  5
D6
330
CD
100
AcDbEntity
  8
Layer 1
370
     0
100
AcDbVertex
100
AcDb2dVertex
 10
8.53722181636579
 20
18.34443596275349
 30
0.0
  0
VERTEX
  5
D7
330
CD
100
AcDbEntity
  8
Layer 1
370
     0
100
AcDbVertex
100
AcDb2dVertex
 10
8.184444038676206
 20
17.00387933094074
 30
0.0
  0
VERTEX
  5
D8
330
CD
100
AcDbEntity
  8
Layer 1
370
     0
100
AcDbVertex
100
AcDb2dVertex
 10
7.549444307983041
 20
17.63888040737433
 30
0.0
  0
VERTEX
  5
D9
330
CD
100
AcDbEntity
  8
Layer 1
370
     0
100
AcDbVertex
100
AcDb2dVertex
 10
7.443611243824251
 20
17.18026821978553
 30
0.0
  0
VERTEX
  5
DA
330
CD
100
AcDbEntity
  8
Layer 1
370
     0
100
AcDbVertex
100
AcDb2dVertex
 10
7.796389021513835
 20
16.82749044209595
 30
0.0
  0
VERTEX
  5
DB
330
CD
100
AcDbEntity
  8
Layer 1
370
     0
100
AcDbVertex
100
AcDb2dVertex
 10
7.373055419138249
 20
16.72165603219673
 30
0.0
  0
VERTEX
  5
DC
330
CD
100
AcDbEntity
  8
Layer 1
370
     0
100
AcDbVertex
100
AcDb2dVertex
 10
6.843888752603875
 20
17.25082539021195
 30
0.0
  0
VERTEX
  5
DD
330
CD
100
AcDbEntity
  8
Layer 1
370
     0
100
AcDbVertex
100
AcDb2dVertex
 10
6.3147220860695
 20
17.77999205674633
 30
0.0
  0
VERTEX
  5
DE
330
CD
100
AcDbEntity
  8
Layer 1
370
     0
100
AcDbVertex
100
AcDb2dVertex
 10
6.420555823098502
 20
18.1680470739087
 30
0.0
  0
SEQEND
  5
DF
330
CD
100
AcDbEntity
  8
Layer 1
370
     0
  0
SPLINE
  5
E0
330
49
100
AcDbEntity
  8
Layer 1
370
     0
100
AcDbSpline
210
0.0
220
0.0
230
1.0
 70
    11
 71
     3
 72
    20
 73
    16
 74
     0
 42
0.0000000001
 43
0.0000000001
 12
1.0
 22
0.0
 32
0.0
 13
1.0
 23
0.0
 33
0.0
 40
0.0
 40
0.0
 40
0.0
 40
0.0
 40
1.0
 40
1.0
 40
1.0
 40
2.0
 40
2.0
 40
2.0
 40
3.0
 40
3.0
 40
3.0
 40
4.0
 40
4.0
 40
4.0
 40
5.0
 40
5.0
 40
5.0
 40
5.0
 10
6.385277910755501
 20
19.79082431298461
 30
0.0
 10
6.420555823098502
 20
19.86137879193019
 30
0.0
 10
6.491110974914291
 20
19.89665872288383
 30
0.0
 10
6.526388887257292
 20
19.86137879193019
 30
0.0
 10
6.58483910395987
 20
19.86137879193019
 30
0.0
 10
6.632221951416082
 20
19.81399527160377
 30
0.0
 10
6.632221951416082
 20
19.75554438203098
 30
0.0
 10
6.632221951416082
 20
19.75554438203098
 30
0.0
 10
6.632221951416082
 20
19.75554438203098
 30
0.0
 10
6.632221951416082
 20
19.75554438203098
 30
0.0
 10
6.607467729188181
 20
19.69759141641504
 30
0.0
 10
6.553676465833234
 20
19.6572488099866
 30
0.0
 10
6.491110974914291
 20
19.64970997213177
 30
0.0
 10
6.420555823098502
 20
19.68499259456625
 30
0.0
 10
6.385277910755501
 20
19.72026983403904
 30
0.0
 10
6.385277910755501
 20
19.79082431298461
 30
0.0
  0
POLYLINE
  5
E1
330
49
100
AcDbEntity
  8
Layer 1
370
     0
100
AcDb2dPolyline
 66
     1
 10
0.0
 20
0.0
 30
0.0
  0
VERTEX
  5
E2
330
E1
100
AcDbEntity
  8
Layer 1
370
     0
100
AcDbVertex
100
AcDb2dVertex
 10
9.807221950622333
 20
19.26165764645024
 30
0.0
  0
VERTEX
  5
E3
330
E1
100
AcDbEntity
  8
Layer 1
370
     0
100
AcDbVertex
100
AcDb2dVertex
 10
9.45444417293275
 20
19.26165764645024
 30
0.0
  0
VERTEX
  5
E4
330
E1
100
AcDbEntity
  8
Layer 1
370
     0
100
AcDbVertex
100
AcDb2dVertex
 10
9.242777371744957
 20
19.04999151813266
 30
0.0
  0
VERTEX
  5
E5
330
E1
100
AcDbEntity
  8
Layer 1
370
     0
100
AcDbVertex
100
AcDb2dVertex
 10
9.136944307586166
 20
19.36749205634946
 30
0.0
  0
VERTEX
  5
E6
330
E1
100
AcDbEntity
  8
Layer 1
370
     0
100
AcDbVertex
100
AcDb2dVertex
 10
8.819444442239584
 20
19.50860370572146
 30
0.0
  0
VERTEX
  5
E7
330
E1
100
AcDbEntity
  8
Layer 1
370
     0
100
AcDbVertex
100
AcDb2dVertex
 10
9.101666395243166
 20
19.68499259456625
 30
0.0
  0
VERTEX
  5
E8
330
E1
100
AcDbEntity
  8
Layer 1
370
     0
100
AcDbVertex
100
AcDb2dVertex
 10
9.101666395243166
 20
20.00249313278304
 30
0.0
  0
VERTEX
  5
E9
330
E1
100
AcDbEntity
  8
Layer 1
370
     0
100
AcDbVertex
100
AcDb2dVertex
 10
9.383888348246748
 20
19.79082700446546
 30
0.0
  0
VERTEX
  5
EA
330
E1
100
AcDbEntity
  8
Layer 1
370
     0
100
AcDbVertex
100
AcDb2dVertex
 10
9.70138821359333
 20
19.89666141436468
 30
0.0
  0
VERTEX
  5
EB
330
E1
100
AcDbEntity
  8
Layer 1
370
     0
100
AcDbVertex
100
AcDb2dVertex
 10
9.59555514943454
 20
19.54388363667509
 30
0.0
  0
VERTEX
  5
EC
330
E1
100
AcDbEntity
  8
Layer 1
370
     0
100
AcDbVertex
100
AcDb2dVertex
 10
9.807221950622333
 20
19.26165764645024
 30
0.0
  0
SEQEND
  5
ED
330
E1
100
AcDbEntity
  8
Layer 1
370
     0
  0
POLYLINE
  5
EE
330
49
100
AcDbEntity
  8
Layer 1
370
     0
100
AcDb2dPolyline
 66
     1
 10
0.0
 20
0.0
 30
0.0
  0
VERTEX
  5
EF
330
EE
100
AcDbEntity
  8
Layer 1
370
     0
100
AcDbVertex
100
AcDb2dVertex
 10
8.960555418741375
 20
28.18693649858904
 30
0.0
  0
VERTEX
  5
F0
330
EE
100
AcDbEntity
  8
Layer 1
370
     0
100
AcDbVertex
100
AcDb2dVertex
 10
9.031111243427375
 20
28.61027010096462
 30
0.0
  0
VERTEX
  5
F1
330
EE
100
AcDbEntity
  8
Layer 1
370
     0
100
AcDbVertex
100
AcDb2dVertex
 10
9.101667068113377
 20
28.61027010096462
 30
0.0
  0
VERTEX
  5
F2
330
EE
100
AcDbEntity
  8
Layer 1
370
     0
100
AcDbVertex
100
AcDb2dVertex
 10
9.489722758145962
 20
28.32804814796104
 30
0.0
  0
VERTEX
  5
F3
330
EE
100
AcDbEntity
  8
Layer 1
370
     0
100
AcDbVertex
100
AcDb2dVertex
 10
10.01888942468034
 20
28.46915979733305
 30
0.0
  0
VERTEX
  5
F4
330
EE
100
AcDbEntity
  8
Layer 1
370
     0
100
AcDbVertex
100
AcDb2dVertex
 10
9.842500535835544
 20
27.86943730611267
 30
0.0
  0
VERTEX
  5
F5
330
EE
100
AcDbEntity
  8
Layer 1
370
     0
100
AcDbVertex
100
AcDb2dVertex
 10
10.12472248883913
 20
27.41082646426429
 30
0.0
  0
VERTEX
  5
F6
330
EE
100
AcDbEntity
  8
Layer 1
370
     0
100
AcDbVertex
100
AcDb2dVertex
 10
9.52499999761875
 20
27.41082646426429
 30
0.0
  0
VERTEX
  5
F7
330
EE
100
AcDbEntity
  8
Layer 1
370
     0
100
AcDbVertex
100
AcDb2dVertex
 10
9.172222219929168
 20
27.02277144710192
 30
0.0
  0
VERTEX
  5
F8
330
EE
100
AcDbEntity
  8
Layer 1
370
     0
100
AcDbVertex
100
AcDb2dVertex
 10
8.995833331084375
 20
27.5519381136363
 30
0.0
  0
VERTEX
  5
F9
330
EE
100
AcDbEntity
  8
Layer 1
370
     0
100
AcDbVertex
100
AcDb2dVertex
 10
8.46666666455
 20
27.86943596037224
 30
0.0
  0
VERTEX
  5
FA
330
EE
100
AcDbEntity
  8
Layer 1
370
     0
100
AcDbVertex
100
AcDb2dVertex
 10
8.960555418741375
 20
28.18693649858904
 30
0.0
  0
SEQEND
  5
FB
330
EE
100
AcDbEntity
  8
Layer 1
370
     0
  0
POLYLINE
  5
FC
330
49
100
AcDbEntity
  8
Layer 1
370
     0
100
AcDb2dPolyline
 66
     1
 10
0.0
 20
0.0
 30
0.0
  0
VERTEX
  5
FD
330
FC
100
AcDbEntity
  8
Layer 1
370
     0
100
AcDbVertex
100
AcDb2dVertex
 10
9.242777371744957
 20
23.95360316631404
 30
0.0
  0
VERTEX
  5
FE
330
FC
100
AcDbEntity
  8
Layer 1
370
     0
100
AcDbVertex
100
AcDb2dVertex
 10
9.313333196430959
 20
24.41221400816241
 30
0.0
  0
VERTEX
  5
FF
330
FC
100
AcDbEntity
  8
Layer 1
370
     0
100
AcDbVertex
100
AcDb2dVertex
 10
9.736666798806542
 20
24.09471346994562
 30
0.0
  0
VERTEX
  5
100
330
FC
100
AcDbEntity
  8
Layer 1
370
     0
100
AcDbVertex
100
AcDb2dVertex
 10
10.19527764065492
 20
24.23582511931762
 30
0.0
  0
VERTEX
  5
101
330
FC
100
AcDbEntity
  8
Layer 1
370
     0
100
AcDbVertex
100
AcDb2dVertex
 10
10.05416666415313
 20
23.70665845278324
 30
0.0
  0
VERTEX
  5
102
330
FC
100
AcDbEntity
  8
Layer 1
370
     0
100
AcDbVertex
100
AcDb2dVertex
 10
10.33638861715671
 20
23.28332485040766
 30
0.0
  0
VERTEX
  5
103
330
FC
100
AcDbEntity
  8
Layer 1
370
     0
100
AcDbVertex
100
AcDb2dVertex
 10
9.771944711149544
 20
23.28332485040766
 30
0.0
  0
VERTEX
  5
104
330
FC
100
AcDbEntity
  8
Layer 1
370
     0
100
AcDbVertex
100
AcDb2dVertex
 10
9.45444484580296
 20
22.96582431219086
 30
0.0
  0
VERTEX
  5
105
330
FC
100
AcDbEntity
  8
Layer 1
370
     0
100
AcDbVertex
100
AcDb2dVertex
 10
9.27805595695817
 20
23.45971373925245
 30
0.0
  0
VERTEX
  5
106
330
FC
100
AcDbEntity
  8
Layer 1
370
     0
100
AcDbVertex
100
AcDb2dVertex
 10
8.784167202766795
 20
23.67137986757003
 30
0.0
  0
VERTEX
  5
107
330
FC
100
AcDbEntity
  8
Layer 1
370
     0
100
AcDbVertex
100
AcDb2dVertex
 10
9.242777371744957
 20
23.95360316631404
 30
0.0
  0
SEQEND
  5
108
330
FC
100
AcDbEntity
  8
Layer 1
370
     0
  0
POLYLINE
  5
109
330
49
100
AcDbEntity
  8
Layer 1
370
     0
100
AcDb2dPolyline
 66
     1
 10
0.0
 20
0.0
 30
0.0
  0
VERTEX
  5
10A
330
109
100
AcDbEntity
  8
Layer 1
370
     0
100
AcDbVertex
100
AcDb2dVertex
 10
9.877777775308333
 20
24.87082485001078
 30
0.0
  0
VERTEX
  5
10B
330
109
100
AcDbEntity
  8
Layer 1
370
     0
100
AcDbVertex
100
AcDb2dVertex
 10
9.101666395243166
 20
25.57638040538995
 30
0.0
  0
VERTEX
  5
10C
330
109
100
AcDbEntity
  8
Layer 1
370
     0
100
AcDbVertex
100
AcDb2dVertex
 10
9.913055014781122
 20
26.66999097793149
 30
0.0
  0
VERTEX
  5
10D
330
109
100
AcDbEntity
  8
Layer 1
370
     0
100
AcDbVertex
100
AcDb2dVertex
 10
11.39472195022546
 20
26.5641579137727
 30
0.0
  0
VERTEX
  5
10E
330
109
100
AcDbEntity
  8
Layer 1
370
     0
100
AcDbVertex
100
AcDb2dVertex
 10
11.39472195022546
 20
25.99971400776554
 30
0.0
  0
VERTEX
  5
10F
330
109
100
AcDbEntity
  8
Layer 1
370
     0
100
AcDbVertex
100
AcDb2dVertex
 10
10.5833333306875
 20
25.54110316591716
 30
0.0
  0
VERTEX
  5
110
330
109
100
AcDbEntity
  8
Layer 1
370
     0
100
AcDbVertex
100
AcDb2dVertex
 10
11.07722208487887
 20
25.22360262770037
 30
0.0
  0
VERTEX
  5
111
330
109
100
AcDbEntity
  8
Layer 1
370
     0
100
AcDbVertex
100
AcDb2dVertex
 10
9.877777775308333
 20
24.87082485001078
 30
0.0
  0
SEQEND
  5
112
330
109
100
AcDbEntity
  8
Layer 1
370
     0
  0
POLYLINE
  5
113
330
49
100
AcDbEntity
  8
Layer 1
370
     0
100
AcDb2dPolyline
 66
     1
 10
0.0
 20
0.0
 30
0.0
  0
VERTEX
  5
114
330
113
100
AcDbEntity
  8
Layer 1
370
     0
100
AcDbVertex
100
AcDb2dVertex
 10
11.25361097372367
 20
25.15304680301437
 30
0.0
  0
VERTEX
  5
115
330
113
100
AcDbEntity
  8
Layer 1
370
     0
100
AcDbVertex
100
AcDb2dVertex
 10
11.53583359959746
 20
25.04721373885558
 30
0.0
  0
VERTEX
  5
116
330
113
100
AcDbEntity
  8
Layer 1
370
     0
100
AcDbVertex
100
AcDb2dVertex
 10
11.67694524896946
 20
24.23582511931762
 30
0.0
  0
VERTEX
  5
117
330
113
100
AcDbEntity
  8
Layer 1
370
     0
100
AcDbVertex
100
AcDb2dVertex
 10
11.43000053543867
 20
24.4474912476352
 30
0.0
  0
VERTEX
  5
118
330
113
100
AcDbEntity
  8
Layer 1
370
     0
100
AcDbVertex
100
AcDb2dVertex
 10
11.32416747127988
 20
23.07165737634966
 30
0.0
  0
VERTEX
  5
119
330
113
100
AcDbEntity
  8
Layer 1
370
     0
100
AcDbVertex
100
AcDb2dVertex
 10
10.7597228924025
 20
23.81249017120161
 30
0.0
  0
VERTEX
  5
11A
330
113
100
AcDbEntity
  8
Layer 1
370
     0
100
AcDbVertex
100
AcDb2dVertex
 10
11.25361097372367
 20
25.15304680301437
 30
0.0
  0
SEQEND
  5
11B
330
113
100
AcDbEntity
  8
Layer 1
370
     0
  0
POLYLINE
  5
11C
330
49
100
AcDbEntity
  8
Layer 1
370
     0
100
AcDb2dPolyline
 66
     1
 10
0.0
 20
0.0
 30
0.0
  0
VERTEX
  5
11D
330
11C
100
AcDbEntity
  8
Layer 1
370
     0
100
AcDbVertex
100
AcDb2dVertex
 10
12.629444172139
 20
25.36471293133195
 30
0.0
  0
VERTEX
  5
11E
330
11C
100
AcDbEntity
  8
Layer 1
370
     0
100
AcDbVertex
100
AcDb2dVertex
 10
12.27666639444942
 20
25.36471293133195
 30
0.0
  0
VERTEX
  5
11F
330
11C
100
AcDbEntity
  8
Layer 1
370
     0
100
AcDbVertex
100
AcDb2dVertex
 10
12.06500026613184
 20
25.15304680301437
 30
0.0
  0
VERTEX
  5
120
330
11C
100
AcDbEntity
  8
Layer 1
370
     0
100
AcDbVertex
100
AcDb2dVertex
 10
11.95916720197305
 20
25.47054734123116
 30
0.0
  0
VERTEX
  5
121
330
11C
100
AcDbEntity
  8
Layer 1
370
     0
100
AcDbVertex
100
AcDb2dVertex
 10
11.64166666375625
 20
25.61165899060316
 30
0.0
  0
VERTEX
  5
122
330
11C
100
AcDbEntity
  8
Layer 1
370
     0
100
AcDbVertex
100
AcDb2dVertex
 10
11.92388861675983
 20
25.78804787944796
 30
0.0
  0
VERTEX
  5
123
330
11C
100
AcDbEntity
  8
Layer 1
370
     0
100
AcDbVertex
100
AcDb2dVertex
 10
11.92388861675983
 20
26.10554841766475
 30
0.0
  0
VERTEX
  5
124
330
11C
100
AcDbEntity
  8
Layer 1
370
     0
100
AcDbVertex
100
AcDb2dVertex
 10
12.20611056976341
 20
25.89388228934717
 30
0.0
  0
VERTEX
  5
125
330
11C
100
AcDbEntity
  8
Layer 1
370
     0
100
AcDbVertex
100
AcDb2dVertex
 10
12.52361110798021
 20
25.99971535350596
 30
0.0
  0
VERTEX
  5
126
330
11C
100
AcDbEntity
  8
Layer 1
370
     0
100
AcDbVertex
100
AcDb2dVertex
 10
12.41777804382142
 20
25.61166033634359
 30
0.0
  0
VERTEX
  5
127
330
11C
100
AcDbEntity
  8
Layer 1
370
     0
100
AcDbVertex
100
AcDb2dVertex
 10
12.629444172139
 20
25.36471293133195
 30
0.0
  0
SEQEND
  5
128
330
11C
100
AcDbEntity
  8
Layer 1
370
     0
  0
SPLINE
  5
129
330
49
100
AcDbEntity
  8
Layer 1
370
     0
100
AcDbSpline
210
0.0
220
0.0
230
1.0
 70
    11
 71
     3
 72
   110
 73
   106
 74
     0
 42
0.0000000001
 43
0.0000000001
 12
1.0
 22
0.0
 32
0.0
 13
1.0
 23
0.0
 33
0.0
 40
0.0
 40
0.0
 40
0.0
 40
0.0
 40
1.0
 40
1.0
 40
1.0
 40
2.0
 40
2.0
 40
2.0
 40
3.0
 40
3.0
 40
3.0
 40
4.0
 40
4.0
 40
4.0
 40
5.0
 40
5.0
 40
5.0
 40
6.0
 40
6.0
 40
6.0
 40
7.0
 40
7.0
 40
7.0
 40
8.0
 40
8.0
 40
8.0
 40
9.0
 40
9.0
 40
9.0
 40
10.0
 40
10.0
 40
10.0
 40
11.0
 40
11.0
 40
11.0
 40
12.0
 40
12.0
 40
12.0
 40
13.0
 40
13.0
 40
13.0
 40
14.0
 40
14.0
 40
14.0
 40
15.0
 40
15.0
 40
15.0
 40
16.0
 40
16.0
 40
16.0
 40
17.0
 40
17.0
 40
17.0
 40
18.0
 40
18.0
 40
18.0
 40
19.0
 40
19.0
 40
19.0
 40
20.0
 40
20.0
 40
20.0
 40
21.0
 40
21.0
 40
21.0
 40
22.0
 40
22.0
 40
22.0
 40
23.0
 40
23.0
 40
23.0
 40
24.0
 40
24.0
 40
24.0
 40
25.0
 40
25.0
 40
25.0
 40
26.0
 40
26.0
 40
26.0
 40
27.0
 40
27.0
 40
27.0
 40
28.0
 40
28.0
 40
28.0
 40
29.0
 40
29.0
 40
29.0
 40
30.0
 40
30.0
 40
30.0
 40
31.0
 40
31.0
 40
31.0
 40
32.0
 40
32.0
 40
32.0
 40
33.0
 40
33.0
 40
33.0
 40
34.0
 40
34.0
 40
34.0
 40
35.0
 40
35.0
 40
35.0
 40
35.0
 10
13.08805501398737
 20
25.64693488433553
 30
0.0
 10
13.08805501398737
 20
25.64693488433553
 30
0.0
 10
13.15861083867337
 20
25.92915683733911
 30
0.0
 10
13.15861083867337
 20
25.92915683733911
 30
0.0
 10
13.15861083867337
 20
25.92915683733911
 30
0.0
 10
13.15861083867337
 20
25.92915683733911
 30
0.0
 10
13.15861083867337
 20
25.92915683733911
 30
0.0
 10
13.18298623497194
 20
25.81750882880854
 30
0.0
 10
13.24532362288903
 20
25.71776927728929
 30
0.0
 10
13.33499972751817
 20
25.64693488433553
 30
0.0
 10
13.58171297369604
 20
25.3574486245236
 30
0.0
 10
13.94242523692509
 20
25.18997392024689
 30
0.0
 10
14.32277723590092
 20
25.18832404248716
 30
0.0
 10
14.82106319692747
 20
25.15373043914972
 30
0.0
 10
15.32164633685766
 20
25.20140598514814
 30
0.0
 10
15.80444417134525
 20
25.32943569185916
 30
0.0
 10
16.3767001005133
 20
25.43722815407519
 30
0.0
 10
16.94211966832781
 20
25.57858338246392
 30
0.0
 10
17.49777723510716
 20
25.75276929423474
 30
0.0
 10
18.06222114111433
 20
25.92915818307954
 30
0.0
 10
18.6619436323347
 20
26.10554707192433
 30
0.0
 10
19.33222194824108
 20
26.24665872129633
 30
0.0
 10
19.89750021331108
 20
26.40514926250291
 30
0.0
 10
20.47613091486727
 20
26.51142911248244
 30
0.0
 10
21.06083359721621
 20
26.56415925951313
 30
0.0
 10
20.6427914461875
 20
26.48127779828439
 30
0.0
 10
20.23884188887814
 20
26.33870736629285
 30
0.0
 10
19.86138861477546
 20
26.14082565713754
 30
0.0
 10
19.4493000193822
 20
25.94779534221048
 30
0.0
 10
19.05902722200119
 20
25.71126665956087
 30
0.0
 10
18.69722221754792
 20
25.43527010175837
 30
0.0
 10
18.69722221754792
 20
25.43527010175837
 30
0.0
 10
17.63888888447917
 20
24.69443730690642
 30
0.0
 10
17.63888888447917
 20
24.69443730690642
 30
0.0
 10
17.30413595402765
 20
24.42570236443142
 30
0.0
 10
16.93667076535134
 20
24.20048059282363
 30
0.0
 10
16.54527831193763
 20
24.02415899100004
 30
0.0
 10
16.23206530271146
 20
23.84367232256439
 30
0.0
 10
15.88258593480092
 20
23.7352123730981
 30
0.0
 10
15.52222221834167
 20
23.70665845278324
 30
0.0
 10
15.45166639365567
 20
23.67138121331046
 30
0.0
 10
15.45166639365567
 20
23.67138121331046
 30
0.0
 10
15.45166639365567
 20
23.60082538862445
 30
0.0
 10
15.45166639365567
 20
23.60082538862445
 30
0.0
 10
15.45166639365567
 20
23.60082538862445
 30
0.0
 10
15.45166639365567
 20
23.60082538862445
 30
0.0
 10
15.45166639365567
 20
23.56554814915167
 30
0.0
 10
15.45166639365567
 20
23.53026956393845
 30
0.0
 10
15.48694363312845
 20
23.53026956393845
 30
0.0
 10
15.48694363312845
 20
23.53026956393845
 30
0.0
 10
16.05138753913562
 20
23.42443649977966
 30
0.0
 10
16.05138753913562
 20
23.42443649977966
 30
0.0
 10
16.64814267272124
 20
23.34977347531984
 30
0.0
 10
17.24916111196985
 20
23.31441952864289
 30
0.0
 10
17.85055366705632
 20
23.31860343562087
 30
0.0
 10
17.85055366705632
 20
23.31860343562087
 30
0.0
 10
19.68499838019024
 20
23.45971508499288
 30
0.0
 10
19.68499838019024
 20
23.45971508499288
 30
0.0
 10
19.68499838019024
 20
23.45971508499288
 30
0.0
 10
21.55472033279695
 20
23.63610397383767
 30
0.0
 10
21.55472033279695
 20
23.63610397383767
 30
0.0
 10
21.55472033279695
 20
23.63610397383767
 30
0.0
 10
23.21277615708608
 20
23.74193703799646
 30
0.0
 10
23.21277615708608
 20
23.74193703799646
 30
0.0
 10
22.10697317630377
 20
23.63500988687302
 30
0.0
 10
21.01761379776141
 20
23.39819321577269
 30
0.0
 10
19.96722033319383
 20
23.03638148261729
 30
0.0
 10
19.05950495985169
 20
22.75814964997065
 30
0.0
 10
18.2105419219373
 20
22.3157334483838
 30
0.0
 10
17.46249864989395
 20
21.73110478175817
 30
0.0
 10
17.22921051018516
 20
21.54452325494257
 30
0.0
 10
17.04713048508758
 20
21.30174899098552
 30
0.0
 10
16.93333198335958
 20
21.02554922637901
 30
0.0
 10
16.93333198335958
 20
21.02554922637901
 30
0.0
 10
16.93333198335958
 20
21.02554922637901
 30
0.0
 10
16.93333198335958
 20
21.02554922637901
 30
0.0
 10
16.93333198335958
 20
21.02554922637901
 30
0.0
 10
16.15722060329441
 20
21.76638202123096
 30
0.0
 10
16.15722060329441
 20
21.76638202123096
 30
0.0
 10
16.15722060329441
 20
21.76638202123096
 30
0.0
 10
15.98083171444962
 20
20.39054814994542
 30
0.0
 10
15.98083171444962
 20
20.39054814994542
 30
0.0
 10
15.98083171444962
 20
20.39054814994542
 30
0.0
 10
15.48694228738803
 20
20.14360478215505
 30
0.0
 10
15.48694228738803
 20
20.14360478215505
 30
0.0
 10
15.48694228738803
 20
20.14360478215505
 30
0.0
 10
14.56972060369128
 20
21.44888148301417
 30
0.0
 10
14.56972060369128
 20
21.44888148301417
 30
0.0
 10
14.56972060369128
 20
21.44888148301417
 30
0.0
 10
15.34583198375645
 20
23.60082538862445
 30
0.0
 10
15.34583198375645
 20
23.60082538862445
 30
0.0
 10
15.34583198375645
 20
23.60082538862445
 30
0.0
 10
13.08805366824695
 20
23.03638148261729
 30
0.0
 10
13.08805366824695
 20
23.03638148261729
 30
0.0
 10
13.08805366824695
 20
23.03638148261729
 30
0.0
 10
11.8886086858062
 20
24.16527064037204
 30
0.0
 10
11.8886086858062
 20
24.16527064037204
 30
0.0
 10
11.8886086858062
 20
24.16527064037204
 30
0.0
 10
12.52360841649936
 20
24.87082619575121
 30
0.0
 10
12.52360841649936
 20
24.87082619575121
 30
0.0
 10
12.52360841649936
 20
24.87082619575121
 30
0.0
 10
13.6172189890409
 20
24.80027037106521
 30
0.0
 10
13.6172189890409
 20
24.80027037106521
 30
0.0
 10
13.6172189890409
 20
24.80027037106521
 30
0.0
 10
13.08805501398737
 20
25.64693488433553
 30
0.0
 10
13.08805501398737
 20
25.64693488433553
 30
0.0
  0
SPLINE
  5
12A
330
49
100
AcDbEntity
  8
Layer 1
370
     0
100
AcDbSpline
210
0.0
220
0.0
230
1.0
 70
    11
 71
     3
 72
   104
 73
   100
 74
     0
 42
0.0000000001
 43
0.0000000001
 12
1.0
 22
0.0
 32
0.0
 13
1.0
 23
0.0
 33
0.0
 40
0.0
 40
0.0
 40
0.0
 40
0.0
 40
1.0
 40
1.0
 40
1.0
 40
2.0
 40
2.0
 40
2.0
 40
3.0
 40
3.0
 40
3.0
 40
4.0
 40
4.0
 40
4.0
 40
5.0
 40
5.0
 40
5.0
 40
6.0
 40
6.0
 40
6.0
 40
7.0
 40
7.0
 40
7.0
 40
8.0
 40
8.0
 40
8.0
 40
9.0
 40
9.0
 40
9.0
 40
10.0
 40
10.0
 40
10.0
 40
11.0
 40
11.0
 40
11.0
 40
12.0
 40
12.0
 40
12.0
 40
13.0
 40
13.0
 40
13.0
 40
14.0
 40
14.0
 40
14.0
 40
15.0
 40
15.0
 40
15.0
 40
16.0
 40
16.0
 40
16.0
 40
17.0
 40
17.0
 40
17.0
 40
18.0
 40
18.0
 40
18.0
 40
19.0
 40
19.0
 40
19.0
 40
20.0
 40
20.0
 40
20.0
 40
21.0
 40
21.0
 40
21.0
 40
22.0
 40
22.0
 40
22.0
 40
23.0
 40
23.0
 40
23.0
 40
24.0
 40
24.0
 40
24.0
 40
25.0
 40
25.0
 40
25.0
 40
26.0
 40
26.0
 40
26.0
 40
27.0
 40
27.0
 40
27.0
 40
28.0
 40
28.0
 40
28.0
 40
29.0
 40
29.0
 40
29.0
 40
30.0
 40
30.0
 40
30.0
 40
31.0
 40
31.0
 40
31.0
 40
32.0
 40
32.0
 40
32.0
 40
33.0
 40
33.0
 40
33.0
 40
33.0
 10
22.71888942150534
 20
16.68638148420479
 30
0.0
 10
22.54373188514844
 20
16.53576621595903
 30
0.0
 10
22.44107880561138
 20
16.31762707620236
 30
0.0
 10
22.43666746850176
 20
16.08666033872484
 30
0.0
 10
22.43666746850176
 20
16.08666033872484
 30
0.0
 10
22.43666746850176
 20
15.87499421040726
 30
0.0
 10
22.43666746850176
 20
15.87499421040726
 30
0.0
 10
22.43666746850176
 20
15.87499421040726
 30
0.0
 10
21.87222356249459
 20
15.69860532156247
 30
0.0
 10
21.87222356249459
 20
15.69860532156247
 30
0.0
 10
21.87222356249459
 20
15.69860532156247
 30
0.0
 10
20.99027911827063
 20
16.36888363746884
 30
0.0
 10
20.99027911827063
 20
16.36888363746884
 30
0.0
 10
20.99027911827063
 20
16.36888363746884
 30
0.0
 10
20.91972329358463
 20
15.31055030440009
 30
0.0
 10
20.91972329358463
 20
15.31055030440009
 30
0.0
 10
20.91972329358463
 20
15.31055030440009
 30
0.0
 10
20.14361191351946
 20
14.88721804776493
 30
0.0
 10
20.14361191351946
 20
14.88721804776493
 30
0.0
 10
20.14361191351946
 20
14.88721804776493
 30
0.0
 10
21.20194524658821
 20
17.5683286199096
 30
0.0
 10
21.20194524658821
 20
17.5683286199096
 30
0.0
 10
21.20194524658821
 20
17.5683286199096
 30
0.0
 10
18.34444443985834
 20
16.86277306453043
 30
0.0
 10
18.34444443985834
 20
16.86277306453043
 30
0.0
 10
18.34444443985834
 20
16.86277306453043
 30
0.0
 10
16.75694444025521
 20
18.20332969634319
 30
0.0
 10
16.75694444025521
 20
18.20332969634319
 30
0.0
 10
16.75694444025521
 20
18.20332969634319
 30
0.0
 10
17.42722275616159
 20
18.87360801224957
 30
0.0
 10
17.42722275616159
 20
18.87360801224957
 30
0.0
 10
17.42722275616159
 20
18.87360801224957
 30
0.0
 10
18.59138915338913
 20
18.80305353330399
 30
0.0
 10
18.59138915338913
 20
18.80305353330399
 30
0.0
 10
18.59138915338913
 20
18.80305353330399
 30
0.0
 10
17.95638942269596
 20
19.89666410584553
 30
0.0
 10
17.95638942269596
 20
19.89666410584553
 30
0.0
 10
17.95638942269596
 20
19.89666410584553
 30
0.0
 10
18.02694524738196
 20
20.00249851574474
 30
0.0
 10
18.02694524738196
 20
20.00249851574474
 30
0.0
 10
18.02694524738196
 20
20.00249851574474
 30
0.0
 10
18.02694524738196
 20
20.00249851574474
 30
0.0
 10
18.02694524738196
 20
20.00249851574474
 30
0.0
 10
18.02694524738196
 20
20.00249851574474
 30
0.0
 10
18.16805689675397
 20
20.46111070333354
 30
0.0
 10
18.16805689675397
 20
20.46111070333354
 30
0.0
 10
18.16805689675397
 20
20.46111070333354
 30
0.0
 10
18.34444578559876
 20
20.63749959217833
 30
0.0
 10
18.34444578559876
 20
20.63749959217833
 30
0.0
 10
18.34444578559876
 20
20.63749959217833
 30
0.0
 10
19.01472410150513
 20
21.13138901923991
 30
0.0
 10
19.01472410150513
 20
21.13138901923991
 30
0.0
 10
18.89007354899859
 20
20.97803651497188
 30
0.0
 10
18.80524345563601
 20
20.79626197295054
 30
0.0
 10
18.76777938797434
 20
20.60222235270554
 30
0.0
 10
18.72882693140381
 20
20.3087701958643
 30
0.0
 10
18.81889599223674
 20
20.01283111071964
 30
0.0
 10
19.01472410150513
 20
19.79083238742716
 30
0.0
 10
19.33222463972193
 20
19.43805460973758
 30
0.0
 10
19.82611272104309
 20
19.29694296036557
 30
0.0
 10
20.56694686163547
 20
19.33222019983836
 30
0.0
 10
20.56694686163547
 20
19.33222019983836
 30
0.0
 10
20.53166962216268
 20
19.33222019983836
 30
0.0
 10
20.53166962216268
 20
19.33222019983836
 30
0.0
 10
20.35651208580578
 20
19.1816049315926
 30
0.0
 10
20.25385900626873
 20
18.96346579183593
 30
0.0
 10
20.2494476691591
 20
18.73249905435841
 30
0.0
 10
20.23920658453303
 20
18.49558952716883
 30
0.0
 10
20.32878579585164
 20
18.26524452176716
 30
0.0
 10
20.49639238268989
 20
18.09749797792482
 30
0.0
 10
20.58362327696876
 20
17.97456728168005
 30
0.0
 10
20.69096222466192
 20
17.86722833398689
 30
0.0
 10
20.81389292090669
 20
17.77999743970803
 30
0.0
 10
20.95195781395892
 20
17.68824216612392
 30
0.0
 10
21.10853605802311
 20
17.6280175906724
 30
0.0
 10
21.27250376275506
 20
17.60360855086324
 30
0.0
 10
21.53770479087683
 20
17.53835359770708
 30
0.0
 10
21.81140955273739
 20
17.51455552405037
 30
0.0
 10
22.08389238229302
 20
17.53305407191766
 30
0.0
 10
22.08389238229302
 20
17.53305407191766
 30
0.0
 10
23.38917042889256
 20
17.67416572128966
 30
0.0
 10
23.38917042889256
 20
17.67416572128966
 30
0.0
 10
23.38917042889256
 20
17.67416572128966
 30
0.0
 10
23.38917042889256
 20
17.67416572128966
 30
0.0
 10
23.38917042889256
 20
17.67416572128966
 30
0.0
 10
24.13933727932487
 20
17.74276887662054
 30
0.0
 10
24.882643545076
 20
17.87255208310394
 30
0.0
 10
25.61167150492928
 20
18.06222073845203
 30
0.0
 10
25.64694874440207
 20
17.81527737066166
 30
0.0
 10
25.61167150492928
 20
17.67416572128966
 30
0.0
 10
25.5411170259837
 20
17.60360855086324
 30
0.0
 10
25.5411170259837
 20
17.60360855086324
 30
0.0
 10
25.32945089766612
 20
17.49777414096402
 30
0.0
 10
25.32945089766612
 20
17.49777414096402
 30
0.0
 10
24.71926258316887
 20
17.3893801327785
 30
0.0
 10
24.11790501733343
 20
17.23609222405081
 30
0.0
 10
23.53028476974541
 20
17.03916195337522
 30
0.0
 10
23.24555570233206
 20
16.95755625406837
 30
0.0
 10
22.97276335247892
 20
16.8389507675461
 30
0.0
 10
22.71888942150534
 20
16.68638148420479
 30
0.0
  0
POLYLINE
  5
12B
330
49
100
AcDbEntity
  8
Layer 1
370
     0
100
AcDb2dPolyline
 66
     1
 10
0.0
 20
0.0
 30
0.0
  0
VERTEX
  5
12C
330
12B
100
AcDbEntity
  8
Layer 1
370
     0
100
AcDbVertex
100
AcDb2dVertex
 10
12.80583306098379
 20
18.55610209107108
 30
0.0
  0
VERTEX
  5
12D
330
12B
100
AcDbEntity
  8
Layer 1
370
     0
100
AcDbVertex
100
AcDb2dVertex
 10
13.54666585583575
 20
19.50860101424061
 30
0.0
  0
VERTEX
  5
12E
330
12B
100
AcDbEntity
  8
Layer 1
370
     0
100
AcDbVertex
100
AcDb2dVertex
 10
15.66333252197325
 20
19.36748936486861
 30
0.0
  0
VERTEX
  5
12F
330
12B
100
AcDbEntity
  8
Layer 1
370
     0
100
AcDbVertex
100
AcDb2dVertex
 10
16.19249918850762
 20
19.15582323655103
 30
0.0
  0
VERTEX
  5
130
330
12B
100
AcDbEntity
  8
Layer 1
370
     0
100
AcDbVertex
100
AcDb2dVertex
 10
16.33361083787963
 20
18.62665657001665
 30
0.0
  0
VERTEX
  5
131
330
12B
100
AcDbEntity
  8
Layer 1
370
     0
100
AcDbVertex
100
AcDb2dVertex
 10
16.01611029966283
 20
18.80304545886144
 30
0.0
  0
VERTEX
  5
132
330
12B
100
AcDbEntity
  8
Layer 1
370
     0
100
AcDbVertex
100
AcDb2dVertex
 10
15.87499999603125
 20
15.83971427945362
 30
0.0
  0
VERTEX
  5
133
330
12B
100
AcDbEntity
  8
Layer 1
370
     0
100
AcDbVertex
100
AcDb2dVertex
 10
14.78138942348971
 20
15.13415872407445
 30
0.0
  0
VERTEX
  5
134
330
12B
100
AcDbEntity
  8
Layer 1
370
     0
100
AcDbVertex
100
AcDb2dVertex
 10
13.68777885094817
 20
16.82749313357679
 30
0.0
  0
VERTEX
  5
135
330
12B
100
AcDbEntity
  8
Layer 1
370
     0
100
AcDbVertex
100
AcDb2dVertex
 10
14.42861164580013
 20
18.9088825602415
 30
0.0
  0
VERTEX
  5
136
330
12B
100
AcDbEntity
  8
Layer 1
370
     0
100
AcDbVertex
100
AcDb2dVertex
 10
12.80583306098379
 20
18.55610209107108
 30
0.0
  0
SEQEND
  5
137
330
12B
100
AcDbEntity
  8
Layer 1
370
     0
  0
POLYLINE
  5
138
330
49
100
AcDbEntity
  8
Layer 1
370
     0
100
AcDb2dPolyline
 66
     1
 10
0.0
 20
0.0
 30
0.0
  0
VERTEX
  5
139
330
138
100
AcDbEntity
  8
Layer 1
370
     0
100
AcDbVertex
100
AcDb2dVertex
 10
13.79361056936654
 20
20.56693434730936
 30
0.0
  0
VERTEX
  5
13A
330
138
100
AcDbEntity
  8
Layer 1
370
     0
100
AcDbVertex
100
AcDb2dVertex
 10
13.05277777451458
 20
20.56693434730936
 30
0.0
  0
VERTEX
  5
13B
330
138
100
AcDbEntity
  8
Layer 1
370
     0
100
AcDbVertex
100
AcDb2dVertex
 10
12.59416693266621
 20
20.07304492024777
 30
0.0
  0
VERTEX
  5
13C
330
138
100
AcDbEntity
  8
Layer 1
370
     0
100
AcDbVertex
100
AcDb2dVertex
 10
12.38249945860821
 20
20.77860316710779
 30
0.0
  0
VERTEX
  5
13D
330
138
100
AcDbEntity
  8
Layer 1
370
     0
100
AcDbVertex
100
AcDb2dVertex
 10
11.74749972791504
 20
21.09610370532458
 30
0.0
  0
VERTEX
  5
13E
330
138
100
AcDbEntity
  8
Layer 1
370
     0
100
AcDbVertex
100
AcDb2dVertex
 10
12.34722221913542
 20
21.44888148301417
 30
0.0
  0
VERTEX
  5
13F
330
138
100
AcDbEntity
  8
Layer 1
370
     0
100
AcDbVertex
100
AcDb2dVertex
 10
12.41777804382142
 20
22.11915979892055
 30
0.0
  0
VERTEX
  5
140
330
138
100
AcDbEntity
  8
Layer 1
370
     0
100
AcDbVertex
100
AcDb2dVertex
 10
12.98222194982858
 20
21.69582754228538
 30
0.0
  0
VERTEX
  5
141
330
138
100
AcDbEntity
  8
Layer 1
370
     0
100
AcDbVertex
100
AcDb2dVertex
 10
13.65250026573496
 20
21.87221643113017
 30
0.0
  0
VERTEX
  5
142
330
138
100
AcDbEntity
  8
Layer 1
370
     0
100
AcDbVertex
100
AcDb2dVertex
 10
13.40555555220417
 20
21.13138094479737
 30
0.0
  0
VERTEX
  5
143
330
138
100
AcDbEntity
  8
Layer 1
370
     0
100
AcDbVertex
100
AcDb2dVertex
 10
13.79361056936654
 20
20.56693434730936
 30
0.0
  0
SEQEND
  5
144
330
138
100
AcDbEntity
  8
Layer 1
370
     0
  0
POLYLINE
  5
145
330
49
100
AcDbEntity
  8
Layer 1
370
     0
100
AcDb2dPolyline
 66
     1
 10
0.0
 20
0.0
 30
0.0
  0
VERTEX
  5
146
330
145
100
AcDbEntity
  8
Layer 1
370
     0
100
AcDbVertex
100
AcDb2dVertex
 10
12.77055447577058
 20
17.32137986915753
 30
0.0
  0
VERTEX
  5
147
330
145
100
AcDbEntity
  8
Layer 1
370
     0
100
AcDbVertex
100
AcDb2dVertex
 10
12.52360976223978
 20
16.58054707430558
 30
0.0
  0
VERTEX
  5
148
330
145
100
AcDbEntity
  8
Layer 1
370
     0
100
AcDbVertex
100
AcDb2dVertex
 10
12.91166477940216
 20
16.01610316829841
 30
0.0
  0
VERTEX
  5
149
330
145
100
AcDbEntity
  8
Layer 1
370
     0
100
AcDbVertex
100
AcDb2dVertex
 10
12.17083333029063
 20
16.01610316829841
 30
0.0
  0
VERTEX
  5
14A
330
145
100
AcDbEntity
  8
Layer 1
370
     0
100
AcDbVertex
100
AcDb2dVertex
 10
11.71222248844225
 20
15.52221374123683
 30
0.0
  0
VERTEX
  5
14B
330
145
100
AcDbEntity
  8
Layer 1
370
     0
100
AcDbVertex
100
AcDb2dVertex
 10
11.50055636012467
 20
16.19249205714321
 30
0.0
  0
VERTEX
  5
14C
330
145
100
AcDbEntity
  8
Layer 1
370
     0
100
AcDbVertex
100
AcDb2dVertex
 10
10.86555528369108
 20
16.54526983483279
 30
0.0
  0
VERTEX
  5
14D
330
145
100
AcDbEntity
  8
Layer 1
370
     0
100
AcDbVertex
100
AcDb2dVertex
 10
11.46527777491146
 20
16.89804761252237
 30
0.0
  0
VERTEX
  5
14E
330
145
100
AcDbEntity
  8
Layer 1
370
     0
100
AcDbVertex
100
AcDb2dVertex
 10
11.53583359959746
 20
17.56832592842875
 30
0.0
  0
VERTEX
  5
14F
330
145
100
AcDbEntity
  8
Layer 1
370
     0
100
AcDbVertex
100
AcDb2dVertex
 10
12.10027750560462
 20
17.14499367179359
 30
0.0
  0
VERTEX
  5
150
330
145
100
AcDbEntity
  8
Layer 1
370
     0
100
AcDbVertex
100
AcDb2dVertex
 10
12.77055447577058
 20
17.32137986915753
 30
0.0
  0
SEQEND
  5
151
330
145
100
AcDbEntity
  8
Layer 1
370
     0
  0
POLYLINE
  5
152
330
49
100
AcDbEntity
  8
Layer 1
370
     0
100
AcDb2dPolyline
 66
     1
 10
0.0
 20
0.0
 30
0.0
  0
VERTEX
  5
153
330
152
100
AcDbEntity
  8
Layer 1
370
     0
100
AcDbVertex
100
AcDb2dVertex
 10
16.3336094921392
 20
19.79082431298461
 30
0.0
  0
VERTEX
  5
154
330
152
100
AcDbEntity
  8
Layer 1
370
     0
100
AcDbVertex
100
AcDb2dVertex
 10
16.68638726982878
 20
20.0024904413022
 30
0.0
  0
VERTEX
  5
155
330
152
100
AcDbEntity
  8
Layer 1
370
     0
100
AcDbVertex
100
AcDb2dVertex
 10
16.68638726982878
 20
20.35526821899178
 30
0.0
  0
VERTEX
  5
156
330
152
100
AcDbEntity
  8
Layer 1
370
     0
100
AcDbVertex
100
AcDb2dVertex
 10
17.00388780804558
 20
20.1436020906742
 30
0.0
  0
VERTEX
  5
157
330
152
100
AcDbEntity
  8
Layer 1
370
     0
100
AcDbVertex
100
AcDb2dVertex
 10
17.28611110678958
 20
20.1436020906742
 30
0.0
  0
VERTEX
  5
158
330
152
100
AcDbEntity
  8
Layer 1
370
     0
100
AcDbVertex
100
AcDb2dVertex
 10
17.39194417094837
 20
20.07304761172862
 30
0.0
  0
VERTEX
  5
159
330
152
100
AcDbEntity
  8
Layer 1
370
     0
100
AcDbVertex
100
AcDb2dVertex
 10
17.39194417094837
 20
20.07304761172862
 30
0.0
  0
VERTEX
  5
15A
330
152
100
AcDbEntity
  8
Layer 1
370
     0
100
AcDbVertex
100
AcDb2dVertex
 10
17.32138834626237
 20
19.75554707351183
 30
0.0
  0
VERTEX
  5
15B
330
152
100
AcDbEntity
  8
Layer 1
370
     0
100
AcDbVertex
100
AcDb2dVertex
 10
17.53305447457995
 20
19.43804653529503
 30
0.0
  0
VERTEX
  5
15C
330
152
100
AcDbEntity
  8
Layer 1
370
     0
100
AcDbVertex
100
AcDb2dVertex
 10
17.07444497847201
 20
19.43804653529503
 30
0.0
  0
VERTEX
  5
15D
330
152
100
AcDbEntity
  8
Layer 1
370
     0
100
AcDbVertex
100
AcDb2dVertex
 10
16.82750026494121
 20
19.19110316750466
 30
0.0
  0
VERTEX
  5
15E
330
152
100
AcDbEntity
  8
Layer 1
370
     0
100
AcDbVertex
100
AcDb2dVertex
 10
16.72166720078242
 20
19.57915818466704
 30
0.0
  0
VERTEX
  5
15F
330
152
100
AcDbEntity
  8
Layer 1
370
     0
100
AcDbVertex
100
AcDb2dVertex
 10
16.3336094921392
 20
19.79082431298461
 30
0.0
  0
SEQEND
  5
160
330
152
100
AcDbEntity
  8
Layer 1
370
     0
  0
SPLINE
  5
161
330
49
100
AcDbEntity
  8
Layer 1
370
     0
100
AcDbSpline
210
0.0
220
0.0
230
1.0
 70
    11
 71
     3
 72
    32
 73
    28
 74
     0
 42
0.0000000001
 43
0.0000000001
 12
1.0
 22
0.0
 32
0.0
 13
1.0
 23
0.0
 33
0.0
 40
0.0
 40
0.0
 40
0.0
 40
0.0
 40
1.0
 40
1.0
 40
1.0
 40
2.0
 40
2.0
 40
2.0
 40
3.0
 40
3.0
 40
3.0
 40
4.0
 40
4.0
 40
4.0
 40
5.0
 40
5.0
 40
5.0
 40
6.0
 40
6.0
 40
6.0
 40
7.0
 40
7.0
 40
7.0
 40
8.0
 40
8.0
 40
8.0
 40
9.0
 40
9.0
 40
9.0
 40
9.0
 10
19.75555420487624
 20
20.03776768077498
 30
0.0
 10
19.71059705453416
 20
20.11182108482277
 30
0.0
 10
19.69785289271958
 20
20.20103021752481
 30
0.0
 10
19.72027696540345
 20
20.28471104856536
 30
0.0
 10
19.72821548816419
 20
20.40235029346324
 30
0.0
 10
19.79440034795328
 20
20.50824929890281
 30
0.0
 10
19.89666585424825
 20
20.56693434730936
 30
0.0
 10
20.17277141702509
 20
20.78149112605753
 30
0.0
 10
20.48277887256146
 20
20.94841945972213
 30
0.0
 10
20.81388888368542
 20
21.06082646585179
 30
0.0
 10
21.21458040342845
 20
21.1904131942333
 30
0.0
 10
21.62890158218501
 20
21.2732758150961
 30
0.0
 10
22.04861110559896
 20
21.30776983364216
 30
0.0
 10
22.35812602014018
 20
21.33837197088224
 30
0.0
 10
22.66602873765353
 20
21.23573773171112
 30
0.0
 10
22.89527831035013
 20
21.02554653489816
 30
0.0
 10
23.00020030824192
 20
20.90812529994894
 30
0.0
 10
23.01459703929708
 20
20.73538336765299
 30
0.0
 10
22.93055554982292
 20
20.60221427826299
 30
0.0
 10
22.83387755776809
 20
20.42444735122411
 30
0.0
 10
22.70181197552572
 20
20.26837106833805
 30
0.0
 10
22.54250053266055
 20
20.1436020906742
 30
0.0
 10
22.54250053266055
 20
20.1436020906742
 30
0.0
 10
21.73111191312259
 20
19.89665872288383
 30
0.0
 10
21.73111191312259
 20
19.89665872288383
 30
0.0
 10
20.63749999484063
 20
19.72026983403904
 30
0.0
 10
20.00250026414746
 20
19.79082431298461
 30
0.0
 10
19.75555420487624
 20
20.03776768077498
 30
0.0
  0
POLYLINE
  5
162
330
49
100
AcDbEntity
  8
Layer 1
370
     0
100
AcDb2dPolyline
 66
     1
 10
0.0
 20
0.0
 30
0.0
  0
VERTEX
  5
163
330
162
100
AcDbEntity
  8
Layer 1
370
     0
100
AcDbVertex
100
AcDb2dVertex
 10
11.50055501438425
 20
20.03776768077498
 30
0.0
  0
VERTEX
  5
164
330
162
100
AcDbEntity
  8
Layer 1
370
     0
100
AcDbVertex
100
AcDb2dVertex
 10
11.78277696738783
 20
18.87359993780702
 30
0.0
  0
VERTEX
  5
165
330
162
100
AcDbEntity
  8
Layer 1
370
     0
100
AcDbVertex
100
AcDb2dVertex
 10
10.61861057016029
 20
19.79082162150377
 30
0.0
  0
VERTEX
  5
166
330
162
100
AcDbEntity
  8
Layer 1
370
     0
100
AcDbVertex
100
AcDb2dVertex
 10
10.61861057016029
 20
19.79082162150377
 30
0.0
  0
VERTEX
  5
167
330
162
100
AcDbEntity
  8
Layer 1
370
     0
100
AcDbVertex
100
AcDb2dVertex
 10
10.5127775060015
 20
19.19110047602382
 30
0.0
  0
VERTEX
  5
168
330
162
100
AcDbEntity
  8
Layer 1
370
     0
100
AcDbVertex
100
AcDb2dVertex
 10
10.15999972831192
 20
19.6849899030854
 30
0.0
  0
VERTEX
  5
169
330
162
100
AcDbEntity
  8
Layer 1
370
     0
100
AcDbVertex
100
AcDb2dVertex
 10
10.4774995936585
 20
20.42582269793736
 30
0.0
  0
VERTEX
  5
16A
330
162
100
AcDbEntity
  8
Layer 1
370
     0
100
AcDbVertex
100
AcDb2dVertex
 10
11.50055501438425
 20
20.03776768077498
 30
0.0
  0
SEQEND
  5
16B
330
162
100
AcDbEntity
  8
Layer 1
370
     0
  0
POLYLINE
  5
16C
330
49
100
AcDbEntity
  8
Layer 1
370
     0
100
AcDb2dPolyline
 66
     1
 10
0.0
 20
0.0
 30
0.0
  0
VERTEX
  5
16D
330
16C
100
AcDbEntity
  8
Layer 1
370
     0
100
AcDbVertex
100
AcDb2dVertex
 10
10.5127775060015
 20
18.69721104896223
 30
0.0
  0
VERTEX
  5
16E
330
16C
100
AcDbEntity
  8
Layer 1
370
     0
100
AcDbVertex
100
AcDb2dVertex
 10
10.4422216813155
 20
17.53304330599427
 30
0.0
  0
VERTEX
  5
16F
330
16C
100
AcDbEntity
  8
Layer 1
370
     0
100
AcDbVertex
100
AcDb2dVertex
 10
10.08944390362591
 20
17.32137717767668
 30
0.0
  0
VERTEX
  5
170
330
16C
100
AcDbEntity
  8
Layer 1
370
     0
100
AcDbVertex
100
AcDb2dVertex
 10
9.560277237091539
 20
17.18026552830468
 30
0.0
  0
VERTEX
  5
171
330
16C
100
AcDbEntity
  8
Layer 1
370
     0
100
AcDbVertex
100
AcDb2dVertex
 10
9.771944038279331
 20
18.06220997252864
 30
0.0
  0
VERTEX
  5
172
330
16C
100
AcDbEntity
  8
Layer 1
370
     0
100
AcDbVertex
100
AcDb2dVertex
 10
9.348610435903748
 20
17.95637556262943
 30
0.0
  0
VERTEX
  5
173
330
16C
100
AcDbEntity
  8
Layer 1
370
     0
100
AcDbVertex
100
AcDb2dVertex
 10
9.101665722372953
 20
17.03915387893268
 30
0.0
  0
VERTEX
  5
174
330
16C
100
AcDbEntity
  8
Layer 1
370
     0
100
AcDbVertex
100
AcDb2dVertex
 10
8.572499055838579
 20
16.89804222956068
 30
0.0
  0
VERTEX
  5
175
330
16C
100
AcDbEntity
  8
Layer 1
370
     0
100
AcDbVertex
100
AcDb2dVertex
 10
8.925276833528162
 20
18.16804169094701
 30
0.0
  0
VERTEX
  5
176
330
16C
100
AcDbEntity
  8
Layer 1
370
     0
100
AcDbVertex
100
AcDb2dVertex
 10
8.995832658214164
 20
17.95637556262943
 30
0.0
  0
VERTEX
  5
177
330
16C
100
AcDbEntity
  8
Layer 1
370
     0
100
AcDbVertex
100
AcDb2dVertex
 10
9.66611030125033
 20
18.8030427673806
 30
0.0
  0
VERTEX
  5
178
330
16C
100
AcDbEntity
  8
Layer 1
370
     0
100
AcDbVertex
100
AcDb2dVertex
 10
10.5127775060015
 20
18.69721104896223
 30
0.0
  0
SEQEND
  5
179
330
16C
100
AcDbEntity
  8
Layer 1
370
     0
  0
POLYLINE
  5
17A
330
49
100
AcDbEntity
  8
Layer 1
370
     0
100
AcDb2dPolyline
 66
     1
 10
0.0
 20
0.0
 30
0.0
  0
VERTEX
  5
17B
330
17A
100
AcDbEntity
  8
Layer 1
370
     0
100
AcDbVertex
100
AcDb2dVertex
 10
8.67833279286758
 20
16.50998990387915
 30
0.0
  0
VERTEX
  5
17C
330
17A
100
AcDbEntity
  8
Layer 1
370
     0
100
AcDbVertex
100
AcDb2dVertex
 10
8.995832658214164
 20
16.61582431377836
 30
0.0
  0
VERTEX
  5
17D
330
17A
100
AcDbEntity
  8
Layer 1
370
     0
100
AcDbVertex
100
AcDb2dVertex
 10
8.74888794468337
 20
16.43943542493357
 30
0.0
  0
VERTEX
  5
17E
330
17A
100
AcDbEntity
  8
Layer 1
370
     0
100
AcDbVertex
100
AcDb2dVertex
 10
8.67833279286758
 20
16.50998990387915
 30
0.0
  0
SEQEND
  5
17F
330
17A
100
AcDbEntity
  8
Layer 1
370
     0
  0
POLYLINE
  5
180
330
49
100
AcDbEntity
  8
Layer 1
370
     0
100
AcDb2dPolyline
 66
     1
 10
0.0
 20
0.0
 30
0.0
  0
VERTEX
  5
181
330
180
100
AcDbEntity
  8
Layer 1
370
     0
100
AcDbVertex
100
AcDb2dVertex
 10
6.349999998412501
 20
16.72165872367758
 30
0.0
  0
VERTEX
  5
182
330
180
100
AcDbEntity
  8
Layer 1
370
     0
100
AcDbVertex
100
AcDb2dVertex
 10
7.231944442636459
 20
16.50999259536
 30
0.0
  0
VERTEX
  5
183
330
180
100
AcDbEntity
  8
Layer 1
370
     0
100
AcDbVertex
100
AcDb2dVertex
 10
5.997222220722917
 20
16.15721481767041
 30
0.0
  0
VERTEX
  5
184
330
180
100
AcDbEntity
  8
Layer 1
370
     0
100
AcDbVertex
100
AcDb2dVertex
 10
5.891389156564126
 20
16.26304922756963
 30
0.0
  0
VERTEX
  5
185
330
180
100
AcDbEntity
  8
Layer 1
370
     0
100
AcDbVertex
100
AcDb2dVertex
 10
5.785556092405336
 20
16.26304922756963
 30
0.0
  0
VERTEX
  5
186
330
180
100
AcDbEntity
  8
Layer 1
370
     0
100
AcDbVertex
100
AcDb2dVertex
 10
6.103055957751919
 20
17.49777144948317
 30
0.0
  0
VERTEX
  5
187
330
180
100
AcDbEntity
  8
Layer 1
370
     0
100
AcDbVertex
100
AcDb2dVertex
 10
6.349999998412501
 20
16.72165872367758
 30
0.0
  0
SEQEND
  5
188
330
180
100
AcDbEntity
  8
Layer 1
370
     0
  0
POLYLINE
  5
189
330
49
100
AcDbEntity
  8
Layer 1
370
     0
100
AcDb2dPolyline
 66
     1
 10
0.0
 20
0.0
 30
0.0
  0
VERTEX
  5
18A
330
189
100
AcDbEntity
  8
Layer 1
370
     0
100
AcDbVertex
100
AcDb2dVertex
 10
5.468055554188542
 20
16.43943542493357
 30
0.0
  0
VERTEX
  5
18B
330
189
100
AcDbEntity
  8
Layer 1
370
     0
100
AcDbVertex
100
AcDb2dVertex
 10
5.185833264749854
 20
16.43943542493357
 30
0.0
  0
VERTEX
  5
18C
330
189
100
AcDbEntity
  8
Layer 1
370
     0
100
AcDbVertex
100
AcDb2dVertex
 10
4.268611244618001
 20
17.35665710863032
 30
0.0
  0
VERTEX
  5
18D
330
189
100
AcDbEntity
  8
Layer 1
370
     0
100
AcDbVertex
100
AcDb2dVertex
 10
5.150555688841959
 20
17.10971374083995
 30
0.0
  0
VERTEX
  5
18E
330
189
100
AcDbEntity
  8
Layer 1
370
     0
100
AcDbVertex
100
AcDb2dVertex
 10
5.785555419535124
 20
17.77999205674633
 30
0.0
  0
VERTEX
  5
18F
330
189
100
AcDbEntity
  8
Layer 1
370
     0
100
AcDbVertex
100
AcDb2dVertex
 10
5.468055554188542
 20
16.43943542493357
 30
0.0
  0
SEQEND
  5
190
330
189
100
AcDbEntity
  8
Layer 1
370
     0
  0
SPLINE
  5
191
330
49
100
AcDbEntity
  8
Layer 1
370
     0
100
AcDbSpline
210
0.0
220
0.0
230
1.0
 70
    11
 71
     3
 72
    23
 73
    19
 74
     0
 42
0.0000000001
 43
0.0000000001
 12
1.0
 22
0.0
 32
0.0
 13
1.0
 23
0.0
 33
0.0
 40
0.0
 40
0.0
 40
0.0
 40
0.0
 40
1.0
 40
1.0
 40
1.0
 40
2.0
 40
2.0
 40
2.0
 40
3.0
 40
3.0
 40
3.0
 40
4.0
 40
4.0
 40
4.0
 40
5.0
 40
5.0
 40
5.0
 40
6.0
 40
6.0
 40
6.0
 40
6.0
 10
4.974166799997167
 20
15.55749098070962
 30
0.0
 10
4.983792544814403
 20
15.50470296684071
 30
0.0
 10
5.008267189469233
 20
15.45575300466083
 30
0.0
 10
5.044722288248063
 20
15.41637933133761
 30
0.0
 10
5.044722288248063
 20
15.41637933133761
 30
0.0
 10
5.150555688841959
 20
15.41637933133761
 30
0.0
 10
5.150555688841959
 20
15.41637933133761
 30
0.0
 10
5.150555688841959
 20
15.41637933133761
 30
0.0
 10
4.833055487060271
 20
14.0758253910057
 30
0.0
 10
4.833055487060271
 20
14.0758253910057
 30
0.0
 10
4.833055487060271
 20
14.0758253910057
 30
0.0
 10
4.621388685872478
 20
14.99304707470245
 30
0.0
 10
4.621388685872478
 20
14.99304707470245
 30
0.0
 10
4.621388685872478
 20
14.99304707470245
 30
0.0
 10
3.704166665740625
 20
15.20471320302003
 30
0.0
 10
3.704166665740625
 20
15.20471320302003
 30
0.0
 10
3.704166665740625
 20
15.20471320302003
 30
0.0
 10
4.974166799997167
 20
15.55749098070962
 30
0.0
 10
4.974166799997167
 20
15.55749098070962
 30
0.0
  0
POLYLINE
  5
192
330
49
100
AcDbEntity
  8
Layer 1
370
     0
100
AcDb2dPolyline
 66
     1
 10
0.0
 20
0.0
 30
0.0
  0
VERTEX
  5
193
330
192
100
AcDbEntity
  8
Layer 1
370
     0
100
AcDbVertex
100
AcDb2dVertex
 10
5.468055554188542
 20
15.23999044249282
 30
0.0
  0
VERTEX
  5
194
330
192
100
AcDbEntity
  8
Layer 1
370
     0
100
AcDbVertex
100
AcDb2dVertex
 10
5.679722355376335
 20
15.3105449214384
 30
0.0
  0
VERTEX
  5
195
330
192
100
AcDbEntity
  8
Layer 1
370
     0
100
AcDbVertex
100
AcDb2dVertex
 10
5.750278180062335
 20
15.3105449214384
 30
0.0
  0
VERTEX
  5
196
330
192
100
AcDbEntity
  8
Layer 1
370
     0
100
AcDbVertex
100
AcDb2dVertex
 10
6.667499863759083
 20
14.42860316869529
 30
0.0
  0
VERTEX
  5
197
330
192
100
AcDbEntity
  8
Layer 1
370
     0
100
AcDbVertex
100
AcDb2dVertex
 10
5.785555419535124
 20
14.67554653648566
 30
0.0
  0
VERTEX
  5
198
330
192
100
AcDbEntity
  8
Layer 1
370
     0
100
AcDbVertex
100
AcDb2dVertex
 10
5.150555352406854
 20
14.00526822057928
 30
0.0
  0
VERTEX
  5
199
330
192
100
AcDbEntity
  8
Layer 1
370
     0
100
AcDbVertex
100
AcDb2dVertex
 10
5.468055554188542
 20
15.23999044249282
 30
0.0
  0
SEQEND
  5
19A
330
192
100
AcDbEntity
  8
Layer 1
370
     0
  0
POLYLINE
  5
19B
330
49
100
AcDbEntity
  8
Layer 1
370
     0
100
AcDb2dPolyline
 66
     1
 10
0.0
 20
0.0
 30
0.0
  0
VERTEX
  5
19C
330
19B
100
AcDbEntity
  8
Layer 1
370
     0
100
AcDbVertex
100
AcDb2dVertex
 10
10.6538891553735
 20
12.62943434929374
 30
0.0
  0
VERTEX
  5
19D
330
19B
100
AcDbEntity
  8
Layer 1
370
     0
100
AcDbVertex
100
AcDb2dVertex
 10
10.7244449800595
 20
13.01748936645611
 30
0.0
  0
VERTEX
  5
19E
330
19B
100
AcDbEntity
  8
Layer 1
370
     0
100
AcDbVertex
100
AcDb2dVertex
 10
11.04194484540609
 20
12.77054599866574
 30
0.0
  0
VERTEX
  5
19F
330
19B
100
AcDbEntity
  8
Layer 1
370
     0
100
AcDbVertex
100
AcDb2dVertex
 10
11.43000053543867
 20
12.87638040856495
 30
0.0
  0
VERTEX
  5
1A0
330
19B
100
AcDbEntity
  8
Layer 1
370
     0
100
AcDbVertex
100
AcDb2dVertex
 10
11.28888888606667
 20
12.45304815192979
 30
0.0
  0
VERTEX
  5
1A1
330
19B
100
AcDbEntity
  8
Layer 1
370
     0
100
AcDbVertex
100
AcDb2dVertex
 10
11.50055501438425
 20
12.135547613713
 30
0.0
  0
VERTEX
  5
1A2
330
19B
100
AcDbEntity
  8
Layer 1
370
     0
100
AcDbVertex
100
AcDb2dVertex
 10
11.07722208487887
 20
12.135547613713
 30
0.0
  0
VERTEX
  5
1A3
330
19B
100
AcDbEntity
  8
Layer 1
370
     0
100
AcDbVertex
100
AcDb2dVertex
 10
10.83027737134808
 20
11.85332431496899
 30
0.0
  0
VERTEX
  5
1A4
330
19B
100
AcDbEntity
  8
Layer 1
370
     0
100
AcDbVertex
100
AcDb2dVertex
 10
10.68916639484629
 20
12.24137933213136
 30
0.0
  0
VERTEX
  5
1A5
330
19B
100
AcDbEntity
  8
Layer 1
370
     0
100
AcDbVertex
100
AcDb2dVertex
 10
10.30111070481371
 20
12.41776822097615
 30
0.0
  0
VERTEX
  5
1A6
330
19B
100
AcDbEntity
  8
Layer 1
370
     0
100
AcDbVertex
100
AcDb2dVertex
 10
10.6538891553735
 20
12.62943434929374
 30
0.0
  0
SEQEND
  5
1A7
330
19B
100
AcDbEntity
  8
Layer 1
370
     0
  0
POLYLINE
  5
1A8
330
49
100
AcDbEntity
  8
Layer 1
370
     0
100
AcDb2dPolyline
 66
     1
 10
0.0
 20
0.0
 30
0.0
  0
VERTEX
  5
1A9
330
1A8
100
AcDbEntity
  8
Layer 1
370
     0
100
AcDbVertex
100
AcDb2dVertex
 10
11.00666693306309
 20
9.313322700715482
 30
0.0
  0
VERTEX
  5
1AA
330
1A8
100
AcDbEntity
  8
Layer 1
370
     0
100
AcDbVertex
100
AcDb2dVertex
 10
10.6186112430305
 20
9.313322700715482
 30
0.0
  0
VERTEX
  5
1AB
330
1A8
100
AcDbEntity
  8
Layer 1
370
     0
100
AcDbVertex
100
AcDb2dVertex
 10
10.37166652949971
 20
9.031099401971476
 30
0.0
  0
VERTEX
  5
1AC
330
1A8
100
AcDbEntity
  8
Layer 1
370
     0
100
AcDbVertex
100
AcDb2dVertex
 10
10.26583346534092
 20
9.419154419133848
 30
0.0
  0
VERTEX
  5
1AD
330
1A8
100
AcDbEntity
  8
Layer 1
370
     0
100
AcDbVertex
100
AcDb2dVertex
 10
9.913055687651335
 20
9.56026606850585
 30
0.0
  0
VERTEX
  5
1AE
330
1A8
100
AcDbEntity
  8
Layer 1
370
     0
100
AcDbVertex
100
AcDb2dVertex
 10
10.23055555299792
 20
9.771932196823432
 30
0.0
  0
VERTEX
  5
1AF
330
1A8
100
AcDbEntity
  8
Layer 1
370
     0
100
AcDbVertex
100
AcDb2dVertex
 10
10.23055555299792
 20
10.12470997451302
 30
0.0
  0
VERTEX
  5
1B0
330
1A8
100
AcDbEntity
  8
Layer 1
370
     0
100
AcDbVertex
100
AcDb2dVertex
 10
10.5480554183445
 20
9.877766606722645
 30
0.0
  0
VERTEX
  5
1B1
330
1A8
100
AcDbEntity
  8
Layer 1
370
     0
100
AcDbVertex
100
AcDb2dVertex
 10
10.90083319603408
 20
9.98360101662186
 30
0.0
  0
VERTEX
  5
1B2
330
1A8
100
AcDbEntity
  8
Layer 1
370
     0
100
AcDbVertex
100
AcDb2dVertex
 10
10.79500013187529
 20
9.595545999459487
 30
0.0
  0
VERTEX
  5
1B3
330
1A8
100
AcDbEntity
  8
Layer 1
370
     0
100
AcDbVertex
100
AcDb2dVertex
 10
11.00666693306309
 20
9.313322700715482
 30
0.0
  0
SEQEND
  5
1B4
330
1A8
100
AcDbEntity
  8
Layer 1
370
     0
  0
POLYLINE
  5
1B5
330
49
100
AcDbEntity
  8
Layer 1
370
     0
100
AcDb2dPolyline
 66
     1
 10
0.0
 20
0.0
 30
0.0
  0
VERTEX
  5
1B6
330
1B5
100
AcDbEntity
  8
Layer 1
370
     0
100
AcDbVertex
100
AcDb2dVertex
 10
10.83027804421829
 20
8.819433273653896
 30
0.0
  0
VERTEX
  5
1B7
330
1B5
100
AcDbEntity
  8
Layer 1
370
     0
100
AcDbVertex
100
AcDb2dVertex
 10
11.25361164659388
 20
8.819433273653896
 30
0.0
  0
VERTEX
  5
1B8
330
1B5
100
AcDbEntity
  8
Layer 1
370
     0
100
AcDbVertex
100
AcDb2dVertex
 10
10.47750026652871
 20
8.360821086065098
 30
0.0
  0
VERTEX
  5
1B9
330
1B5
100
AcDbEntity
  8
Layer 1
370
     0
100
AcDbVertex
100
AcDb2dVertex
 10
10.83027804421829
 20
8.819433273653896
 30
0.0
  0
SEQEND
  5
1BA
330
1B5
100
AcDbEntity
  8
Layer 1
370
     0
  0
POLYLINE
  5
1BB
330
49
100
AcDbEntity
  8
Layer 1
370
     0
100
AcDb2dPolyline
 66
     1
 10
0.0
 20
0.0
 30
0.0
  0
VERTEX
  5
1BC
330
1BB
100
AcDbEntity
  8
Layer 1
370
     0
100
AcDbVertex
100
AcDb2dVertex
 10
16.43944390203842
 20
14.46387771668723
 30
0.0
  0
VERTEX
  5
1BD
330
1BB
100
AcDbEntity
  8
Layer 1
370
     0
100
AcDbVertex
100
AcDb2dVertex
 10
17.25083252157637
 20
14.95776714374882
 30
0.0
  0
VERTEX
  5
1BE
330
1BB
100
AcDbEntity
  8
Layer 1
370
     0
100
AcDbVertex
100
AcDb2dVertex
 10
17.35666558573516
 20
15.83971158797277
 30
0.0
  0
VERTEX
  5
1BF
330
1BB
100
AcDbEntity
  8
Layer 1
370
     0
100
AcDbVertex
100
AcDb2dVertex
 10
18.09749838058712
 20
15.27526768196561
 30
0.0
  0
VERTEX
  5
1C0
330
1BB
100
AcDbEntity
  8
Layer 1
370
     0
100
AcDbVertex
100
AcDb2dVertex
 10
19.01472006428386
 20
15.52221104975598
 30
0.0
  0
VERTEX
  5
1C1
330
1BB
100
AcDbEntity
  8
Layer 1
370
     0
100
AcDbVertex
100
AcDb2dVertex
 10
18.69722221754792
 20
14.49915764764087
 30
0.0
  0
VERTEX
  5
1C2
330
1BB
100
AcDbEntity
  8
Layer 1
370
     0
100
AcDbVertex
100
AcDb2dVertex
 10
19.22638888408229
 20
13.72304761331612
 30
0.0
  0
VERTEX
  5
1C3
330
1BB
100
AcDbEntity
  8
Layer 1
370
     0
100
AcDbVertex
100
AcDb2dVertex
 10
18.20333279048633
 20
13.7936020922617
 30
0.0
  0
VERTEX
  5
1C4
330
1BB
100
AcDbEntity
  8
Layer 1
370
     0
100
AcDbVertex
100
AcDb2dVertex
 10
17.60361029926596
 20
13.15860101582811
 30
0.0
  0
VERTEX
  5
1C5
330
1BB
100
AcDbEntity
  8
Layer 1
370
     0
100
AcDbVertex
100
AcDb2dVertex
 10
17.28611110678958
 20
14.0758253910057
 30
0.0
  0
VERTEX
  5
1C6
330
1BB
100
AcDbEntity
  8
Layer 1
370
     0
100
AcDbVertex
100
AcDb2dVertex
 10
16.43944390203842
 20
14.46387771668723
 30
0.0
  0
SEQEND
  5
1C7
330
1BB
100
AcDbEntity
  8
Layer 1
370
     0
  0
POLYLINE
  5
1C8
330
49
100
AcDbEntity
  8
Layer 1
370
     0
100
AcDb2dPolyline
 66
     1
 10
0.0
 20
0.0
 30
0.0
  0
VERTEX
  5
1C9
330
1C8
100
AcDbEntity
  8
Layer 1
370
     0
100
AcDbVertex
100
AcDb2dVertex
 10
20.28472221715104
 20
14.60498936605923
 30
0.0
  0
VERTEX
  5
1CA
330
1C8
100
AcDbEntity
  8
Layer 1
370
     0
100
AcDbVertex
100
AcDb2dVertex
 10
21.025555012003
 20
14.25221158836965
 30
0.0
  0
VERTEX
  5
1CB
330
1C8
100
AcDbEntity
  8
Layer 1
370
     0
100
AcDbVertex
100
AcDb2dVertex
 10
21.41361002916537
 20
12.8763777170841
 30
0.0
  0
VERTEX
  5
1CC
330
1C8
100
AcDbEntity
  8
Layer 1
370
     0
100
AcDbVertex
100
AcDb2dVertex
 10
20.28472221715104
 20
14.60498936605923
 30
0.0
  0
SEQEND
  5
1CD
330
1C8
100
AcDbEntity
  8
Layer 1
370
     0
  0
POLYLINE
  5
1CE
330
49
100
AcDbEntity
  8
Layer 1
370
     0
100
AcDb2dPolyline
 66
     1
 10
0.0
 20
0.0
 30
0.0
  0
VERTEX
  5
1CF
330
1CE
100
AcDbEntity
  8
Layer 1
370
     0
100
AcDbVertex
100
AcDb2dVertex
 10
21.237222486061
 20
14.81665549437681
 30
0.0
  0
VERTEX
  5
1D0
330
1CE
100
AcDbEntity
  8
Layer 1
370
     0
100
AcDbVertex
100
AcDb2dVertex
 10
21.48416719959179
 20
14.95776714374882
 30
0.0
  0
VERTEX
  5
1D1
330
1CE
100
AcDbEntity
  8
Layer 1
370
     0
100
AcDbVertex
100
AcDb2dVertex
 10
21.48416719959179
 20
15.23999044249282
 30
0.0
  0
VERTEX
  5
1D2
330
1CE
100
AcDbEntity
  8
Layer 1
370
     0
100
AcDbVertex
100
AcDb2dVertex
 10
21.73111191312259
 20
15.06360155364803
 30
0.0
  0
VERTEX
  5
1D3
330
1CE
100
AcDbEntity
  8
Layer 1
370
     0
100
AcDbVertex
100
AcDb2dVertex
 10
22.01333386612617
 20
15.13415603259361
 30
0.0
  0
VERTEX
  5
1D4
330
1CE
100
AcDbEntity
  8
Layer 1
370
     0
100
AcDbVertex
100
AcDb2dVertex
 10
21.94277804144017
 20
14.81665549437681
 30
0.0
  0
VERTEX
  5
1D5
330
1CE
100
AcDbEntity
  8
Layer 1
370
     0
100
AcDbVertex
100
AcDb2dVertex
 10
22.08388969081217
 20
14.56971212658644
 30
0.0
  0
VERTEX
  5
1D6
330
1CE
100
AcDbEntity
  8
Layer 1
370
     0
100
AcDbVertex
100
AcDb2dVertex
 10
21.76638915259538
 20
14.56971212658644
 30
0.0
  0
VERTEX
  5
1D7
330
1CE
100
AcDbEntity
  8
Layer 1
370
     0
100
AcDbVertex
100
AcDb2dVertex
 10
21.59000026375059
 20
14.39332323774165
 30
0.0
  0
VERTEX
  5
1D8
330
1CE
100
AcDbEntity
  8
Layer 1
370
     0
100
AcDbVertex
100
AcDb2dVertex
 10
21.48416719959179
 20
14.67554653648566
 30
0.0
  0
VERTEX
  5
1D9
330
1CE
100
AcDbEntity
  8
Layer 1
370
     0
100
AcDbVertex
100
AcDb2dVertex
 10
21.237222486061
 20
14.81665549437681
 30
0.0
  0
SEQEND
  5
1DA
330
1CE
100
AcDbEntity
  8
Layer 1
370
     0
  0
SPLINE
  5
1DB
330
49
100
AcDbEntity
  8
Layer 1
370
     0
100
AcDbSpline
210
0.0
220
0.0
230
1.0
 70
    11
 71
     3
 72
    83
 73
    79
 74
     0
 42
0.0000000001
 43
0.0000000001
 12
1.0
 22
0.0
 32
0.0
 13
1.0
 23
0.0
 33
0.0
 40
0.0
 40
0.0
 40
0.0
 40
0.0
 40
1.0
 40
1.0
 40
1.0
 40
2.0
 40
2.0
 40
2.0
 40
3.0
 40
3.0
 40
3.0
 40
4.0
 40
4.0
 40
4.0
 40
5.0
 40
5.0
 40
5.0
 40
6.0
 40
6.0
 40
6.0
 40
7.0
 40
7.0
 40
7.0
 40
8.0
 40
8.0
 40
8.0
 40
9.0
 40
9.0
 40
9.0
 40
10.0
 40
10.0
 40
10.0
 40
11.0
 40
11.0
 40
11.0
 40
12.0
 40
12.0
 40
12.0
 40
13.0
 40
13.0
 40
13.0
 40
14.0
 40
14.0
 40
14.0
 40
15.0
 40
15.0
 40
15.0
 40
16.0
 40
16.0
 40
16.0
 40
17.0
 40
17.0
 40
17.0
 40
18.0
 40
18.0
 40
18.0
 40
19.0
 40
19.0
 40
19.0
 40
20.0
 40
20.0
 40
20.0
 40
21.0
 40
21.0
 40
21.0
 40
22.0
 40
22.0
 40
22.0
 40
23.0
 40
23.0
 40
23.0
 40
24.0
 40
24.0
 40
24.0
 40
25.0
 40
25.0
 40
25.0
 40
26.0
 40
26.0
 40
26.0
 40
26.0
 10
26.84638834388112
 20
13.3349899046729
 30
0.0
 10
26.93901834874078
 20
13.47667214798465
 30
0.0
 10
27.0103345167663
 20
13.63119275494065
 30
0.0
 10
27.05805447219871
 20
13.7936020922617
 30
0.0
 10
27.39084262163129
 20
13.46707971024291
 30
0.0
 10
27.80500500301783
 20
13.23563658065531
 30
0.0
 10
28.25749945463946
 20
13.12332377635532
 30
0.0
 10
28.54612309483965
 20
13.03332603976486
 30
0.0
 10
28.86033195197952
 20
13.08569418262151
 30
0.0
 10
29.10416665939062
 20
13.26443542572732
 30
0.0
 10
29.2371042814277
 20
13.39470309876333
 30
0.0
 10
29.31318167907307
 20
13.57221971808337
 30
0.0
 10
29.31583278770821
 20
13.75832485278891
 30
0.0
 10
29.32046751772821
 20
13.98386825635801
 30
0.0
 10
29.23099461990308
 20
14.2011595796476
 30
0.0
 10
29.06888941991784
 20
14.35804599826886
 30
0.0
 10
28.72921915395729
 20
14.74441883990133
 30
0.0
 10
28.26949000181664
 20
15.00534714217713
 30
0.0
 10
27.76361271905872
 20
15.09887879312082
 30
0.0
 10
27.76361271905872
 20
15.09887879312082
 30
0.0
 10
30.62111218004818
 20
15.83971427945362
 30
0.0
 10
30.62111218004818
 20
15.83971427945362
 30
0.0
 10
30.55723526508612
 20
13.77667267772871
 30
0.0
 10
30.03929207368728
 20
11.75308818523331
 30
0.0
 10
29.10416665939062
 20
9.913046537676282
 30
0.0
 10
29.09590650466857
 20
9.97248789220108
 30
0.0
 10
29.08412858447837
 20
10.03138825907546
 30
0.0
 10
29.06888941991784
 20
10.08943542652107
 30
0.0
 10
29.06888941991784
 20
10.08943542652107
 30
0.0
 10
29.59805608645221
 20
11.07721428064425
 30
0.0
 10
29.59805608645221
 20
11.07721428064425
 30
0.0
 10
29.66225059615432
 20
11.19650071182102
 30
0.0
 10
29.63263623238541
 20
11.34456983918472
 30
0.0
 10
29.52750160750664
 20
11.42999205833383
 30
0.0
 10
29.41124309228369
 20
11.5013001519168
 30
0.0
 10
29.25919326474602
 20
11.46486019271775
 30
0.0
 10
29.18788517116305
 20
11.3486016774948
 30
0.0
 10
29.18304319711776
 20
11.34070756416805
 30
0.0
 10
29.17865070037407
 20
11.33254699423737
 30
0.0
 10
29.17472382981705
 20
11.32415764843462
 30
0.0
 10
29.17472382981705
 20
11.32415764843462
 30
0.0
 10
28.85722329160026
 20
10.79499098190024
 30
0.0
 10
28.85722329160026
 20
10.79499098190024
 30
0.0
 10
28.85722329160026
 20
10.79499098190024
 30
0.0
 10
28.75138888170104
 20
11.2183232385354
 30
0.0
 10
28.75138888170104
 20
11.2183232385354
 30
0.0
 10
28.75138888170104
 20
11.2183232385354
 30
0.0
 10
29.06888941991784
 20
11.81804438401535
 30
0.0
 10
29.06888941991784
 20
11.81804438401535
 30
0.0
 10
29.137080778679
 20
11.94468663234931
 30
0.0
 10
29.08969725835258
 20
12.10263080294377
 30
0.0
 10
28.96305501001862
 20
12.17082216170494
 30
0.0
 10
28.83641276168467
 20
12.2390135204661
 30
0.0
 10
28.6784685910902
 20
12.19163000013968
 30
0.0
 10
28.61027723232904
 20
12.06498775180572
 30
0.0
 10
28.61027723232904
 20
12.06498775180572
 30
0.0
 10
28.61027723232904
 20
12.06498775180572
 30
0.0
 10
28.61027723232904
 20
12.06498775180572
 30
0.0
 10
28.61027723232904
 20
12.06498775180572
 30
0.0
 10
28.61027723232904
 20
12.1355422307513
 30
0.0
 10
28.61027723232904
 20
12.1355422307513
 30
0.0
 10
28.61027723232904
 20
12.1355422307513
 30
0.0
 10
28.46916558295704
 20
12.1355422307513
 30
0.0
 10
28.46916558295704
 20
12.1355422307513
 30
0.0
 10
28.46916558295704
 20
12.1355422307513
 30
0.0
 10
27.97527615589545
 20
12.06498775180572
 30
0.0
 10
27.97527615589545
 20
12.06498775180572
 30
0.0
 10
27.09333171167149
 20
11.99443327286015
 30
0.0
 10
26.56416504513712
 20
12.06498775180572
 30
0.0
 10
26.38777615629233
 20
12.24137664065051
 30
0.0
 10
26.31148613165998
 20
12.32972988244293
 30
0.0
 10
26.29746351644267
 20
12.45593341939869
 30
0.0
 10
26.35249891681954
 20
12.55887717886731
 30
0.0
 10
26.38833329282783
 20
12.69409448518252
 30
0.0
 10
26.46171920962535
 20
12.81640344935143
 30
0.0
 10
26.56416504513712
 20
12.91165495655689
 30
0.0
 10
26.56416504513712
 20
12.91165495655689
 30
0.0
 10
26.84638834388112
 20
13.3349899046729
 30
0.0
 10
26.84638834388112
 20
13.3349899046729
 30
0.0
  0
SPLINE
  5
1DC
330
49
100
AcDbEntity
  8
Layer 1
370
     0
100
AcDbSpline
210
0.0
220
0.0
230
1.0
 70
    11
 71
     3
 72
    23
 73
    19
 74
     0
 42
0.0000000001
 43
0.0000000001
 12
1.0
 22
0.0
 32
0.0
 13
1.0
 23
0.0
 33
0.0
 40
0.0
 40
0.0
 40
0.0
 40
0.0
 40
1.0
 40
1.0
 40
1.0
 40
2.0
 40
2.0
 40
2.0
 40
3.0
 40
3.0
 40
3.0
 40
4.0
 40
4.0
 40
4.0
 40
5.0
 40
5.0
 40
5.0
 40
6.0
 40
6.0
 40
6.0
 40
6.0
 10
26.52888780566433
 20
14.74610101543123
 30
0.0
 10
26.52888780566433
 20
14.74610101543123
 30
0.0
 10
26.70527669450912
 20
14.81665549437681
 30
0.0
 10
26.70527669450912
 20
14.81665549437681
 30
0.0
 10
27.62249837820587
 20
14.74610101543123
 30
0.0
 10
28.18694228421303
 20
14.60498936605923
 30
0.0
 10
28.43388834348425
 20
14.28748882784244
 30
0.0
 10
28.68083440275547
 20
13.96998828962564
 30
0.0
 10
28.53972275338346
 20
14.07582269952486
 30
0.0
 10
28.43388834348425
 20
14.00526552909843
 30
0.0
 10
28.32805393358504
 20
13.93470835867201
 30
0.0
 10
28.08111056579466
 20
13.89943111919922
 30
0.0
 10
27.72833278810508
 20
14.00526552909843
 30
0.0
 10
27.34996441051413
 20
14.1159123067536
 30
0.0
 10
27.00065326015658
 20
14.30863848434485
 30
0.0
 10
26.70527669450912
 20
14.5697094351056
 30
0.0
 10
26.70527669450912
 20
14.5697094351056
 30
0.0
 10
26.52888780566433
 20
14.74610101543123
 30
0.0
 10
26.52888780566433
 20
14.74610101543123
 30
0.0
  0
POLYLINE
  5
1DD
330
49
100
AcDbEntity
  8
Layer 1
370
     0
100
AcDb2dPolyline
 66
     1
 10
0.0
 20
0.0
 30
0.0
  0
VERTEX
  5
1DE
330
1DD
100
AcDbEntity
  8
Layer 1
370
     0
100
AcDbVertex
100
AcDb2dVertex
 10
28.53972006190261
 20
8.854713204607531
 30
0.0
  0
VERTEX
  5
1DF
330
1DD
100
AcDbEntity
  8
Layer 1
370
     0
100
AcDbVertex
100
AcDb2dVertex
 10
28.36333117305782
 20
9.136936503351537
 30
0.0
  0
VERTEX
  5
1E0
330
1DD
100
AcDbEntity
  8
Layer 1
370
     0
100
AcDbVertex
100
AcDb2dVertex
 10
28.61027454084819
 20
8.995824853979535
 30
0.0
  0
VERTEX
  5
1E1
330
1DD
100
AcDbEntity
  8
Layer 1
370
     0
100
AcDbVertex
100
AcDb2dVertex
 10
28.53972006190261
 20
8.854713204607531
 30
0.0
  0
SEQEND
  5
1E2
330
1DD
100
AcDbEntity
  8
Layer 1
370
     0
  0
SPLINE
  5
1E3
330
49
100
AcDbEntity
  8
Layer 1
370
     0
100
AcDbSpline
210
0.0
220
0.0
230
1.0
 70
    11
 71
     3
 72
    17
 73
    13
 74
     0
 42
0.0000000001
 43
0.0000000001
 12
1.0
 22
0.0
 32
0.0
 13
1.0
 23
0.0
 33
0.0
 40
0.0
 40
0.0
 40
0.0
 40
0.0
 40
1.0
 40
1.0
 40
1.0
 40
2.0
 40
2.0
 40
2.0
 40
3.0
 40
3.0
 40
3.0
 40
4.0
 40
4.0
 40
4.0
 40
4.0
 10
28.7513861902202
 20
10.26582431536587
 30
0.0
 10
28.71610895074741
 20
10.23054707589308
 30
0.0
 10
28.64555178032098
 20
10.26582431536587
 30
0.0
 10
28.61027454084819
 20
10.33637879431144
 30
0.0
 10
28.5749973013754
 20
10.40693327325702
 30
0.0
 10
28.61027454084819
 20
10.47749044368345
 30
0.0
 10
28.68082901979377
 20
10.47749044368345
 30
0.0
 10
28.74902307003578
 20
10.50300029915938
 30
0.0
 10
28.82542882834459
 20
10.47243853413203
 30
0.0
 10
28.85721790863856
 20
10.40693596473787
 30
0.0
 10
28.85722329160026
 20
10.33638148579229
 30
0.0
 10
28.82194336064662
 20
10.26582431536587
 30
0.0
 10
28.7513861902202
 20
10.26582431536587
 30
0.0
  0
SPLINE
  5
1E4
330
49
100
AcDbEntity
  8
Layer 1
370
     0
100
AcDbSpline
210
0.0
220
0.0
230
1.0
 70
    11
 71
     3
 72
    17
 73
    13
 74
     0
 42
0.0000000001
 43
0.0000000001
 12
1.0
 22
0.0
 32
0.0
 13
1.0
 23
0.0
 33
0.0
 40
0.0
 40
0.0
 40
0.0
 40
0.0
 40
1.0
 40
1.0
 40
1.0
 40
2.0
 40
2.0
 40
2.0
 40
3.0
 40
3.0
 40
3.0
 40
4.0
 40
4.0
 40
4.0
 40
4.0
 10
28.36333386453867
 20
11.60638094717862
 30
0.0
 10
28.43388834348425
 20
11.60638094717862
 30
0.0
 10
28.50444551391067
 20
11.57110370770583
 30
0.0
 10
28.50444551391067
 20
11.50054653727941
 30
0.0
 10
28.50444551391067
 20
11.42998936685298
 30
0.0
 10
28.50444551391067
 20
11.39471212738019
 30
0.0
 10
28.4338910349651
 20
11.3594348879074
 30
0.0
 10
28.4338910349651
 20
11.3594348879074
 30
0.0
 10
28.29277938559309
 20
11.42998936685298
 30
0.0
 10
28.29277938559309
 20
11.42998936685298
 30
0.0
 10
28.26726953011716
 20
11.49818341709499
 30
0.0
 10
28.29783129514451
 20
11.57459186688465
 30
0.0
 10
28.36333386453867
 20
11.60638094717862
 30
0.0
  0
SPLINE
  5
1E5
330
49
100
AcDbEntity
  8
Layer 1
370
     0
100
AcDbSpline
210
0.0
220
0.0
230
1.0
 70
    11
 71
     3
 72
    17
 73
    13
 74
     0
 42
0.0000000001
 43
0.0000000001
 12
1.0
 22
0.0
 32
0.0
 13
1.0
 23
0.0
 33
0.0
 40
0.0
 40
0.0
 40
0.0
 40
0.0
 40
1.0
 40
1.0
 40
1.0
 40
2.0
 40
2.0
 40
2.0
 40
3.0
 40
3.0
 40
3.0
 40
4.0
 40
4.0
 40
4.0
 40
4.0
 10
28.18694497569388
 20
8.46665818744516
 30
0.0
 10
28.18694497569388
 20
8.537212666390737
 30
0.0
 10
28.25749945463946
 20
8.572492597344374
 30
0.0
 10
28.32805662506588
 20
8.572492597344374
 30
0.0
 10
28.32805662506588
 20
8.572492597344374
 30
0.0
 10
28.32805662506588
 20
8.572492597344374
 30
0.0
 10
28.32805662506588
 20
8.572492597344374
 30
0.0
 10
28.32805662506588
 20
8.572492597344374
 30
0.0
 10
28.18694497569388
 20
8.396103708499583
 30
0.0
 10
28.18694497569388
 20
8.396103708499583
 30
0.0
 10
28.18694497569388
 20
8.396103708499583
 30
0.0
 10
28.15166773622109
 20
8.431380947972372
 30
0.0
 10
28.18694497569388
 20
8.46665818744516
 30
0.0
  0
SPLINE
  5
1E6
330
49
100
AcDbEntity
  8
Layer 1
370
     0
100
AcDbSpline
210
0.0
220
0.0
230
1.0
 70
    11
 71
     3
 72
   197
 73
   193
 74
     0
 42
0.0000000001
 43
0.0000000001
 12
1.0
 22
0.0
 32
0.0
 13
1.0
 23
0.0
 33
0.0
 40
0.0
 40
0.0
 40
0.0
 40
0.0
 40
1.0
 40
1.0
 40
1.0
 40
2.0
 40
2.0
 40
2.0
 40
3.0
 40
3.0
 40
3.0
 40
4.0
 40
4.0
 40
4.0
 40
5.0
 40
5.0
 40
5.0
 40
6.0
 40
6.0
 40
6.0
 40
7.0
 40
7.0
 40
7.0
 40
8.0
 40
8.0
 40
8.0
 40
9.0
 40
9.0
 40
9.0
 40
10.0
 40
10.0
 40
10.0
 40
11.0
 40
11.0
 40
11.0
 40
12.0
 40
12.0
 40
12.0
 40
13.0
 40
13.0
 40
13.0
 40
14.0
 40
14.0
 40
14.0
 40
15.0
 40
15.0
 40
15.0
 40
16.0
 40
16.0
 40
16.0
 40
17.0
 40
17.0
 40
17.0
 40
18.0
 40
18.0
 40
18.0
 40
19.0
 40
19.0
 40
19.0
 40
20.0
 40
20.0
 40
20.0
 40
21.0
 40
21.0
 40
21.0
 40
22.0
 40
22.0
 40
22.0
 40
23.0
 40
23.0
 40
23.0
 40
24.0
 40
24.0
 40
24.0
 40
25.0
 40
25.0
 40
25.0
 40
26.0
 40
26.0
 40
26.0
 40
27.0
 40
27.0
 40
27.0
 40
28.0
 40
28.0
 40
28.0
 40
29.0
 40
29.0
 40
29.0
 40
30.0
 40
30.0
 40
30.0
 40
31.0
 40
31.0
 40
31.0
 40
32.0
 40
32.0
 40
32.0
 40
33.0
 40
33.0
 40
33.0
 40
34.0
 40
34.0
 40
34.0
 40
35.0
 40
35.0
 40
35.0
 40
36.0
 40
36.0
 40
36.0
 40
37.0
 40
37.0
 40
37.0
 40
38.0
 40
38.0
 40
38.0
 40
39.0
 40
39.0
 40
39.0
 40
40.0
 40
40.0
 40
40.0
 40
41.0
 40
41.0
 40
41.0
 40
42.0
 40
42.0
 40
42.0
 40
43.0
 40
43.0
 40
43.0
 40
44.0
 40
44.0
 40
44.0
 40
45.0
 40
45.0
 40
45.0
 40
46.0
 40
46.0
 40
46.0
 40
47.0
 40
47.0
 40
47.0
 40
48.0
 40
48.0
 40
48.0
 40
49.0
 40
49.0
 40
49.0
 40
50.0
 40
50.0
 40
50.0
 40
51.0
 40
51.0
 40
51.0
 40
52.0
 40
52.0
 40
52.0
 40
53.0
 40
53.0
 40
53.0
 40
54.0
 40
54.0
 40
54.0
 40
55.0
 40
55.0
 40
55.0
 40
56.0
 40
56.0
 40
56.0
 40
57.0
 40
57.0
 40
57.0
 40
58.0
 40
58.0
 40
58.0
 40
59.0
 40
59.0
 40
59.0
 40
60.0
 40
60.0
 40
60.0
 40
61.0
 40
61.0
 40
61.0
 40
62.0
 40
62.0
 40
62.0
 40
63.0
 40
63.0
 40
63.0
 40
64.0
 40
64.0
 40
64.0
 40
64.0
 10
30.62111218004818
 20
16.29832646704242
 30
0.0
 10
30.62111218004818
 20
16.29832646704242
 30
0.0
 10
30.62111218004818
 20
16.29832646704242
 30
0.0
 10
30.62111218004818
 20
16.29832646704242
 30
0.0
 10
30.62111218004818
 20
16.29832646704242
 30
0.0
 10
30.26833440235859
 20
16.72165872367758
 30
0.0
 10
30.26833440235859
 20
16.72165872367758
 30
0.0
 10
30.26833440235859
 20
16.72165872367758
 30
0.0
 10
30.12722275298659
 20
16.72165872367758
 30
0.0
 10
30.12722275298659
 20
16.72165872367758
 30
0.0
 10
30.12722275298659
 20
16.72165872367758
 30
0.0
 10
25.57638888249479
 20
15.52221374123683
 30
0.0
 10
25.57638888249479
 20
15.52221374123683
 30
0.0
 10
25.57638888249479
 20
15.52221374123683
 30
0.0
 10
24.37694390005404
 20
15.45165926229125
 30
0.0
 10
24.37694390005404
 20
15.45165926229125
 30
0.0
 10
24.37694390005404
 20
15.45165926229125
 30
0.0
 10
23.6008338657293
 20
15.45165926229125
 30
0.0
 10
23.6008338657293
 20
15.45165926229125
 30
0.0
 10
23.6008338657293
 20
15.45165926229125
 30
0.0
 10
23.2833333275125
 20
15.55749367219046
 30
0.0
 10
23.2833333275125
 20
15.55749367219046
 30
0.0
 10
23.21277884856692
 20
15.66332808208968
 30
0.0
 10
23.24805608803971
 20
15.73388256103526
 30
0.0
 10
23.31861056698529
 20
15.83971697093447
 30
0.0
 10
23.38916504593087
 20
15.94555138083368
 30
0.0
 10
24.41222113952683
 20
16.33360639799606
 30
0.0
 10
25.82333225028516
 20
16.61582700525921
 30
0.0
 10
25.82333225028516
 20
16.61582700525921
 30
0.0
 10
26.10555554902917
 20
16.75693865463122
 30
0.0
 10
26.10555554902917
 20
16.75693865463122
 30
0.0
 10
26.18344700476599
 20
16.8237869644493
 30
0.0
 10
26.24397033459162
 20
16.90852016450136
 30
0.0
 10
26.28194443787396
 20
17.00388202242159
 30
0.0
 10
26.31305257351343
 20
17.13073958922337
 30
0.0
 10
26.32494353589923
 20
17.26154824990979
 30
0.0
 10
26.31722167734675
 20
17.39193703958396
 30
0.0
 10
26.31722167734675
 20
17.53304868895596
 30
0.0
 10
26.28194443787396
 20
17.63888040737433
 30
0.0
 10
26.28194443787396
 20
17.74471481727354
 30
0.0
 10
26.28194443787396
 20
17.85054922717276
 30
0.0
 10
26.24666719840117
 20
17.99165818506391
 30
0.0
 10
26.21138995892838
 20
18.1680470739087
 30
0.0
 10
26.1875030664037
 20
18.21119420338061
 30
0.0
 10
26.17534026445226
 20
18.25984810266722
 30
0.0
 10
26.17611271945559
 20
18.30915872328071
 30
0.0
 10
26.17611271945559
 20
18.30915872328071
 30
0.0
 10
26.28194712935481
 20
18.30915872328071
 30
0.0
 10
26.28194712935481
 20
18.30915872328071
 30
0.0
 10
26.36359589235523
 20
18.38153264327943
 30
0.0
 10
26.41414997712042
 20
18.48263812132897
 30
0.0
 10
26.42305877872681
 20
18.59138202202471
 30
0.0
 10
26.4206902755807
 20
18.70548196960767
 30
0.0
 10
26.38378738167581
 20
18.81618257687981
 30
0.0
 10
26.3172243688276
 20
18.9088825602415
 30
0.0
 10
26.23645841154527
 20
18.99918443416777
 30
0.0
 10
26.12087276653429
 20
19.05055672911071
 30
0.0
 10
25.9997238306108
 20
19.04999420961351
 30
0.0
 10
25.85464762994991
 20
19.07350698630034
 30
0.0
 10
25.70775467971673
 20
19.02009185739388
 30
0.0
 10
25.61166881344843
 20
18.9088825602415
 30
0.0
 10
25.5286473952156
 20
18.811243709524
 30
0.0
 10
25.49026956980609
 20
18.68332031630647
 30
0.0
 10
25.50583440354922
 20
18.55610478255192
 30
0.0
 10
24.75347668770676
 20
18.34840858848492
 30
0.0
 10
23.98714480330226
 20
18.19514221160402
 30
0.0
 10
23.21277884856692
 20
18.09749259496312
 30
0.0
 10
22.76982031358923
 20
18.02531784454714
 30
0.0
 10
22.32031205996829
 20
18.00165972789453
 30
0.0
 10
21.87222356249459
 20
18.02693811601755
 30
0.0
 10
21.44888996011901
 20
18.02693811601755
 30
0.0
 10
21.20194524658821
 20
18.09749259496312
 30
0.0
 10
21.13139076764264
 20
18.20332700486234
 30
0.0
 10
21.06083628869706
 20
18.30916141476155
 30
0.0
 10
21.06083494295664
 20
18.34443865423434
 30
0.0
 10
21.16666800711543
 20
18.45027037265271
 30
0.0
 10
21.39151970010663
 20
18.60953606034347
 30
0.0
 10
21.64212886481177
 20
18.7288763211372
 30
0.0
 10
21.90750080196738
 20
18.80304815034229
 30
0.0
 10
22.26027857965696
 20
18.9441597997143
 30
0.0
 10
23.00111272024934
 20
19.15582592803187
 30
0.0
 10
24.20055770269009
 20
19.47332646624867
 30
0.0
 10
24.20055770269009
 20
19.47332646624867
 30
0.0
 10
24.23583494216289
 20
19.47332646624867
 30
0.0
 10
24.23583494216289
 20
19.47332646624867
 30
0.0
 10
24.23583494216289
 20
19.47332646624867
 30
0.0
 10
24.23583494216289
 20
19.54388094519425
 30
0.0
 10
24.23583494216289
 20
19.54388094519425
 30
0.0
 10
24.23583494216289
 20
19.54388094519425
 30
0.0
 10
23.6008338657293
 20
20.24943650057341
 30
0.0
 10
23.6008338657293
 20
20.24943650057341
 30
0.0
 10
23.56555662625651
 20
20.31999097951899
 30
0.0
 10
23.53027938678372
 20
20.31999097951899
 30
0.0
 10
23.49499945583008
 20
20.31999097951899
 30
0.0
 10
23.49499945583008
 20
20.31999097951899
 30
0.0
 10
23.31861056698529
 20
20.24943650057341
 30
0.0
 10
23.31861056698529
 20
20.24943650057341
 30
0.0
 10
23.48800968006821
 20
20.59260569163617
 30
0.0
 10
23.41675810758304
 20
21.00586373545782
 30
0.0
 10
23.1422216781405
 20
21.27249259416937
 30
0.0
 10
22.90015258216559
 20
21.53153416837084
 30
0.0
 10
22.59689266911478
 20
21.72561954379025
 30
0.0
 10
22.26027723391654
 20
21.83693650017654
 30
0.0
 10
21.89793662477454
 20
21.96428391649263
 30
0.0
 10
21.51530494152059
 20
22.02406978056595
 30
0.0
 10
21.13138807616179
 20
22.01332538902133
 30
0.0
 10
21.13138807616179
 20
22.01332538902133
 30
0.0
 10
20.56694417015462
 20
21.90749232486254
 30
0.0
 10
20.56694417015462
 20
21.90749232486254
 30
0.0
 10
21.18873680432738
 20
22.21543003162692
 30
0.0
 10
21.8384252917477
 20
22.46349305544999
 30
0.0
 10
22.50722194744733
 20
22.6483251197145
 30
0.0
 10
23.18025230252064
 20
22.85859033225077
 30
0.0
 10
23.88388883205529
 20
22.95399794534541
 30
0.0
 10
24.58861002837162
 20
22.93054707271808
 30
0.0
 10
25.22361110480521
 20
22.93054707271808
 30
0.0
 10
25.64694336144037
 20
22.78943542334607
 30
0.0
 10
25.89388672923074
 20
22.50721347034249
 30
0.0
 10
26.14083009702111
 20
22.22499151733891
 30
0.0
 10
25.96444120817632
 20
22.47193623086971
 30
0.0
 10
25.99972113912995
 20
22.54249070981528
 30
0.0
 10
26.0547161672941
 20
22.73139633034301
 30
0.0
 10
26.00036440305259
 20
22.93521813772952
 30
0.0
 10
25.85860948975795
 20
23.07165737634966
 30
0.0
 10
25.59537727987638
 20
23.37242228665451
 30
0.0
 10
25.2705316904258
 20
23.6130500946354
 30
0.0
 10
24.90611056658841
 20
23.77721293172882
 30
0.0
 10
24.56071282938364
 20
23.94746928146179
 30
0.0
 10
24.19228139908295
 20
24.06631834700078
 30
0.0
 10
23.81249999404688
 20
24.12999070941841
 30
0.0
 10
23.81249999404688
 20
24.12999070941841
 30
0.0
 10
22.54250053266055
 20
24.30638094400362
 30
0.0
 10
22.54250053266055
 20
24.30638094400362
 30
0.0
 10
22.08388969081217
 20
24.27110370453083
 30
0.0
 10
21.6252788489638
 20
24.27110370453083
 30
0.0
 10
21.237222486061
 20
24.20054787984483
 30
0.0
 10
21.237222486061
 20
24.20054787984483
 30
0.0
 10
19.86138861477546
 20
24.09471481568604
 30
0.0
 10
19.86138861477546
 20
24.09471481568604
 30
0.0
 10
19.41676270741252
 20
24.03957983051781
 30
0.0
 10
18.96878994361528
 20
24.01600245829063
 30
0.0
 10
18.52083332870313
 20
24.02415899100004
 30
0.0
 10
18.87752855676676
 20
24.23576052377727
 30
0.0
 10
19.21934393296304
 20
24.47149521957676
 30
0.0
 10
19.54388942229909
 20
24.72971454637921
 30
0.0
 10
19.54388942229909
 20
24.72971454637921
 30
0.0
 10
20.49638969120905
 20
25.43527010175837
 30
0.0
 10
20.49638969120905
 20
25.43527010175837
 30
0.0
 10
20.7585130109813
 20
25.66001278977524
 30
0.0
 10
21.05668064226798
 20
25.83891283025108
 30
0.0
 10
21.378334135433
 20
25.96443676829275
 30
0.0
 10
21.6583181221116
 20
26.12287886284407
 30
0.0
 10
21.97386868245412
 20
26.2078354558065
 30
0.0
 10
22.29555581912975
 20
26.21138148182354
 30
0.0
 10
22.35781649984268
 20
26.10024754613491
 30
0.0
 10
22.42858360577523
 20
25.99409688723607
 30
0.0
 10
22.50722194744733
 20
25.89388094360675
 30
0.0
 10
22.60339797832403
 20
25.76837046296932
 30
0.0
 10
22.74084652226211
 20
25.68090271837584
 30
0.0
 10
22.89527831035013
 20
25.64693623007595
 30
0.0
 10
23.03268109911379
 20
25.63923186614898
 30
0.0
 10
23.16886733853423
 20
25.67637430184933
 30
0.0
 10
23.2833333275125
 20
25.75276929423474
 30
0.0
 10
23.35726023196043
 20
25.82654143853393
 30
0.0
 10
23.38440112483017
 20
25.93510904723414
 30
0.0
 10
23.35388780645808
 20
26.03499124723833
 30
0.0
 10
23.34497631337084
 20
26.14373514793407
 30
0.0
 10
23.2944249200865
 20
26.24483928024318
 30
0.0
 10
23.21277615708608
 20
26.31721320024191
 30
0.0
 10
22.97026565825212
 20
26.61632554130618
 30
0.0
 10
22.65419967932723
 20
26.8472976617454
 30
0.0
 10
22.29555447338933
 20
26.98749151614829
 30
0.0
 10
22.29555447338933
 20
26.98749151614829
 30
0.0
 10
21.94277669569975
 20
27.58721400736866
 30
0.0
 10
21.94277669569975
 20
27.58721400736866
 30
0.0
 10
21.94277669569975
 20
27.58721400736866
 30
0.0
 10
21.51944443906459
 20
28.32804814796104
 30
0.0
 10
21.51944443906459
 20
28.32804814796104
 30
0.0
 10
21.51944443906459
 20
28.32804814796104
 30
0.0
 10
21.06083359721621
 20
28.92777063918142
 30
0.0
 10
21.06083359721621
 20
28.92777063918142
 30
0.0
 10
20.62238194691825
 20
29.41563249488424
 30
0.0
 10
20.11059686369929
 20
29.83220240588917
 30
0.0
 10
19.54388942229909
 20
30.16249286109496
 30
0.0
 10
19.54388942229909
 20
30.16249286109496
 30
0.0
 10
19.33222329398151
 20
30.30360451046696
 30
0.0
 10
19.33222329398151
 20
30.30360451046696
 30
0.0
 10
19.33222329398151
 20
30.30360451046696
 30
0.0
 10
19.33222329398151
 20
30.30360451046696
 30
0.0
 10
19.33222329398151
 20
30.30360451046696
 30
0.0
 10
25.92313774308519
 20
28.87508490158472
 30
0.0
 10
30.62464878588225
 20
23.04227313419324
 30
0.0
 10
30.62111218004818
 20
16.29832646704242
 30
0.0
  0
SPLINE
  5
1E7
330
49
100
AcDbEntity
  8
Layer 1
370
     0
100
AcDbSpline
210
0.0
220
0.0
230
1.0
 70
    11
 71
     3
 72
    14
 73
    10
 74
     0
 42
0.0000000001
 43
0.0000000001
 12
1.0
 22
0.0
 32
0.0
 13
1.0
 23
0.0
 33
0.0
 40
0.0
 40
0.0
 40
0.0
 40
0.0
 40
1.0
 40
1.0
 40
1.0
 40
2.0
 40
2.0
 40
2.0
 40
3.0
 40
3.0
 40
3.0
 40
3.0
 10
24.83555608764284
 20
42.6861031279874
 30
0.0
 10
26.17611271945559
 20
43.10943647803666
 30
0.0
 10
26.66999945503633
 20
42.05110322907669
 30
0.0
 10
26.10555554902917
 20
40.78110309482015
 30
0.0
 10
24.54103810438585
 20
39.43192665915704
 30
0.0
 10
22.56124400528498
 20
38.65993189904866
 30
0.0
 10
20.49638834546862
 20
38.59388094043175
 30
0.0
 10
21.27489918070965
 20
40.52676353765987
 30
0.0
 10
22.86042363337045
 20
42.02205340341561
 30
0.0
 10
24.83555608764284
 20
42.6861031279874
 30
0.0
  0
SPLINE
  5
1E8
330
49
100
AcDbEntity
  8
Layer 1
370
     0
100
AcDbSpline
210
0.0
220
0.0
230
1.0
 70
    11
 71
     3
 72
    26
 73
    22
 74
     0
 42
0.0000000001
 43
0.0000000001
 12
1.0
 22
0.0
 32
0.0
 13
1.0
 23
0.0
 33
0.0
 40
0.0
 40
0.0
 40
0.0
 40
0.0
 40
1.0
 40
1.0
 40
1.0
 40
2.0
 40
2.0
 40
2.0
 40
3.0
 40
3.0
 40
3.0
 40
4.0
 40
4.0
 40
4.0
 40
5.0
 40
5.0
 40
5.0
 40
6.0
 40
6.0
 40
6.0
 40
7.0
 40
7.0
 40
7.0
 40
7.0
 10
21.48416719959179
 20
31.99693622848845
 30
0.0
 10
21.48416719959179
 20
31.99693622848845
 30
0.0
 10
21.5547230242778
 20
31.89110316432966
 30
0.0
 10
21.5547230242778
 20
31.89110316432966
 30
0.0
 10
21.52892652609156
 20
31.86216839947484
 30
0.0
 10
21.51616890687275
 20
31.82389554181839
 30
0.0
 10
21.51944578480501
 20
31.78527010017087
 30
0.0
 10
20.82434259529847
 20
32.01063182878275
 30
0.0
 10
20.11779926644815
 20
32.19904221683446
 30
0.0
 10
19.40277911866751
 20
32.34971400617804
 30
0.0
 10
19.28825930007228
 20
32.50178671130291
 30
0.0
 10
19.19343304684078
 20
32.66773400019846
 30
0.0
 10
19.12055716566393
 20
32.84360343323962
 30
0.0
 10
19.12055716566393
 20
32.84360343323962
 30
0.0
 10
19.08527992619114
 20
32.84360343323962
 30
0.0
 10
19.08527992619114
 20
32.84360343323962
 30
0.0
 10
18.78255965505032
 20
33.47601328648695
 30
0.0
 10
18.54611440830699
 20
34.13805970822017
 30
0.0
 10
18.37972437081197
 20
34.81915912287533
 30
0.0
 10
18.37972437081197
 20
34.81915912287533
 30
0.0
 10
21.48416719959179
 20
31.99693622848845
 30
0.0
 10
21.48416719959179
 20
31.99693622848845
 30
0.0
  0
SPLINE
  5
1E9
330
49
100
AcDbEntity
  8
Layer 1
370
     0
100
AcDbSpline
210
0.0
220
0.0
230
1.0
 70
    11
 71
     3
 72
    29
 73
    25
 74
     0
 42
0.0000000001
 43
0.0000000001
 12
1.0
 22
0.0
 32
0.0
 13
1.0
 23
0.0
 33
0.0
 40
0.0
 40
0.0
 40
0.0
 40
0.0
 40
1.0
 40
1.0
 40
1.0
 40
2.0
 40
2.0
 40
2.0
 40
3.0
 40
3.0
 40
3.0
 40
4.0
 40
4.0
 40
4.0
 40
5.0
 40
5.0
 40
5.0
 40
6.0
 40
6.0
 40
6.0
 40
7.0
 40
7.0
 40
7.0
 40
8.0
 40
8.0
 40
8.0
 40
8.0
 10
16.22777777372083
 20
38.31165898742817
 30
0.0
 10
16.38176143024769
 20
38.45208296344354
 30
0.0
 10
16.58387280155539
 20
38.52787439124883
 30
0.0
 10
16.792221679728
 20
38.52332578861596
 30
0.0
 10
16.99314476224138
 20
38.50953598649199
 30
0.0
 10
17.18175970283754
 20
38.42151581545449
 30
0.0
 10
17.32138834626237
 20
38.27638107508516
 30
0.0
 10
17.46181232227775
 20
38.1223967456881
 30
0.0
 10
17.53760307721282
 20
37.92028537438039
 30
0.0
 10
17.53305447457995
 20
37.71193649620779
 30
0.0
 10
17.52666086182588
 20
37.50917715088596
 30
0.0
 10
17.43740328246858
 20
37.31790908304404
 30
0.0
 10
17.28610976104916
 20
37.18276982967341
 30
0.0
 10
17.12866351441155
 20
37.04810696841286
 30
0.0
 10
16.92883451886282
 20
36.97317143151719
 30
0.0
 10
16.721665855042
 20
36.97110302848562
 30
0.0
 10
16.51890583684996
 20
36.97749596836948
 30
0.0
 10
16.32763844187824
 20
37.06675422059699
 30
0.0
 10
16.19249918850762
 20
37.21804774201642
 30
0.0
 10
16.03654402225972
 20
37.36206282635304
 30
0.0
 10
15.95802679722577
 20
37.57144186882016
 30
0.0
 10
15.98083306019004
 20
37.78249232089379
 30
0.0
 10
15.98722667294411
 20
37.98525166621562
 30
0.0
 10
16.07648425230141
 20
38.17651973405754
 30
0.0
 10
16.22777777372083
 20
38.31165898742817
 30
0.0
  0
SPLINE
  5
1EA
330
49
100
AcDbEntity
  8
Layer 1
370
     0
100
AcDbSpline
210
0.0
220
0.0
230
1.0
 70
    11
 71
     3
 72
   107
 73
   103
 74
     0
 42
0.0000000001
 43
0.0000000001
 12
1.0
 22
0.0
 32
0.0
 13
1.0
 23
0.0
 33
0.0
 40
0.0
 40
0.0
 40
0.0
 40
0.0
 40
1.0
 40
1.0
 40
1.0
 40
2.0
 40
2.0
 40
2.0
 40
3.0
 40
3.0
 40
3.0
 40
4.0
 40
4.0
 40
4.0
 40
5.0
 40
5.0
 40
5.0
 40
6.0
 40
6.0
 40
6.0
 40
7.0
 40
7.0
 40
7.0
 40
8.0
 40
8.0
 40
8.0
 40
9.0
 40
9.0
 40
9.0
 40
10.0
 40
10.0
 40
10.0
 40
11.0
 40
11.0
 40
11.0
 40
12.0
 40
12.0
 40
12.0
 40
13.0
 40
13.0
 40
13.0
 40
14.0
 40
14.0
 40
14.0
 40
15.0
 40
15.0
 40
15.0
 40
16.0
 40
16.0
 40
16.0
 40
17.0
 40
17.0
 40
17.0
 40
18.0
 40
18.0
 40
18.0
 40
19.0
 40
19.0
 40
19.0
 40
20.0
 40
20.0
 40
20.0
 40
21.0
 40
21.0
 40
21.0
 40
22.0
 40
22.0
 40
22.0
 40
23.0
 40
23.0
 40
23.0
 40
24.0
 40
24.0
 40
24.0
 40
25.0
 40
25.0
 40
25.0
 40
26.0
 40
26.0
 40
26.0
 40
27.0
 40
27.0
 40
27.0
 40
28.0
 40
28.0
 40
28.0
 40
29.0
 40
29.0
 40
29.0
 40
30.0
 40
30.0
 40
30.0
 40
31.0
 40
31.0
 40
31.0
 40
32.0
 40
32.0
 40
32.0
 40
33.0
 40
33.0
 40
33.0
 40
34.0
 40
34.0
 40
34.0
 40
34.0
 10
16.05138888487604
 20
30.58582646347054
 30
0.0
 10
16.05138888487604
 20
30.58582646347054
 30
0.0
 10
16.05138888487604
 20
30.58582646347054
 30
0.0
 10
16.05138888487604
 20
30.58582646347054
 30
0.0
 10
15.7715596583462
 20
30.48746764162624
 30
0.0
 10
15.50947401930582
 20
30.34451232787346
 30
0.0
 10
15.27527750481087
 20
30.16249286109496
 30
0.0
 10
14.93724500494625
 20
29.86688348235417
 30
0.0
 10
14.73357122900636
 20
29.44680522606406
 30
0.0
 10
14.71083359880371
 20
28.99832646386742
 30
0.0
 10
14.66469488836942
 20
28.56161889315886
 30
0.0
 10
14.80569349554581
 20
28.12580489409179
 30
0.0
 10
15.09888861596608
 20
27.79888148142667
 30
0.0
 10
15.41137088814206
 20
27.43361926982432
 30
0.0
 10
15.8547371824682
 20
27.20560374109647
 30
0.0
 10
16.33361083787963
 20
27.1638817507335
 30
0.0
 10
16.73226625236126
 20
27.10801468277465
 30
0.0
 10
17.13703536558879
 20
27.20920628821132
 30
0.0
 10
17.46249999563437
 20
27.44610370373708
 30
0.0
 10
17.56729414818589
 20
27.54565081437572
 30
0.0
 10
17.60807815747339
 20
27.69519218176319
 30
0.0
 10
17.56833305979317
 20
27.83415872089946
 30
0.0
 10
17.56833305979317
 20
27.92823270523398
 30
0.0
 10
17.53305582032038
 20
27.96351129044719
 30
0.0
 10
17.46249999563437
 20
27.93999178505825
 30
0.0
 10
17.25497201912037
 20
27.77211605013521
 30
0.0
 10
16.98258069991356
 20
27.70726078188495
 30
0.0
 10
16.72166720078242
 20
27.76360289621345
 30
0.0
 10
16.41171088338215
 20
27.75211700169525
 30
0.0
 10
16.11327948697238
 20
27.88187060188932
 30
0.0
 10
15.91027858124446
 20
28.11638067390304
 30
0.0
 10
15.76717658178547
 20
28.26702016547643
 30
0.0
 10
15.70202390490154
 20
28.4755076549127
 30
0.0
 10
15.73388969239967
 20
28.6808245799102
 30
0.0
 10
15.78263913925638
 20
28.90411925123092
 30
0.0
 10
15.90731526083098
 20
29.10359970000986
 30
0.0
 10
16.08666747008926
 20
29.24526848591736
 30
0.0
 10
16.48084695192091
 20
29.56880197845462
 30
0.0
 10
16.95717850367154
 20
29.77643357698127
 30
0.0
 10
17.4625013413748
 20
29.84499097713774
 30
0.0
 10
18.03285439358342
 20
29.9267770056614
 30
0.0
 10
18.61458164385506
 20
29.86617966011245
 30
0.0
 10
19.15583440513672
 20
29.66860208829295
 30
0.0
 10
19.70160077980021
 20
29.5172789605842
 30
0.0
 10
20.19176923458965
 20
29.21092384455836
 30
0.0
 10
20.56694551589505
 20
28.78665764406899
 30
0.0
 10
20.95398180755651
 20
28.29345858184488
 30
0.0
 10
21.30755088061536
 20
27.77489096688934
 30
0.0
 10
21.6252788489638
 20
27.23443488393865
 30
0.0
 10
20.4313433278186
 20
27.40518781188804
 30
0.0
 10
19.21439026246257
 20
27.30879511680309
 30
0.0
 10
18.06222383259518
 20
26.95221293093507
 30
0.0
 10
17.4625013413748
 20
26.77582404209028
 30
0.0
 10
16.89805743536764
 20
26.66999097793149
 30
0.0
 10
16.40416800830605
 20
26.5641579137727
 30
0.0
 10
16.40416800830605
 20
26.5641579137727
 30
0.0
 10
15.2752788505513
 20
26.4230462644007
 30
0.0
 10
15.2752788505513
 20
26.4230462644007
 30
0.0
 10
15.01451069138594
 20
26.40812738606106
 30
0.0
 10
14.75297007721725
 20
26.43190392787098
 30
0.0
 10
14.49916747048613
 20
26.4936020890867
 30
0.0
 10
14.32453073567329
 20
26.51930842266453
 30
0.0
 10
14.15668864426085
 20
26.57925173836745
 30
0.0
 10
14.00527804342454
 20
26.66999097793149
 30
0.0
 10
14.00527804342454
 20
26.66999097793149
 30
0.0
 10
13.72305609042096
 20
26.91693569146229
 30
0.0
 10
13.72305609042096
 20
26.91693569146229
 30
0.0
 10
13.68660132807724
 20
26.9563093647855
 30
0.0
 10
13.6621263469873
 20
27.00525932696538
 30
0.0
 10
13.65250026573496
 20
27.05804734083429
 30
0.0
 10
13.65250026573496
 20
27.05804734083429
 30
0.0
 10
13.65250026573496
 20
27.16388040499308
 30
0.0
 10
13.65250026573496
 20
27.16388040499308
 30
0.0
 10
13.61722302626217
 20
27.19915764446587
 30
0.0
 10
13.58194444104896
 20
27.19915764446587
 30
0.0
 10
13.51138861636296
 20
27.16388040499308
 30
0.0
 10
13.51138861636296
 20
27.16388040499308
 30
0.0
 10
13.33499972751817
 20
27.05804734083429
 30
0.0
 10
13.33499972751817
 20
27.05804734083429
 30
0.0
 10
13.2412837101364
 20
26.95600119022842
 30
0.0
 10
13.16927314005214
 20
26.83598133052061
 30
0.0
 10
13.12333359920058
 20
26.7052695631447
 30
0.0
 10
13.12333359920058
 20
26.7052695631447
 30
0.0
 10
13.12333359920058
 20
26.7052695631447
 30
0.0
 10
13.12333359920058
 20
26.7052695631447
 30
0.0
 10
13.12333359920058
 20
26.7052695631447
 30
0.0
 10
12.27666639444942
 20
26.49360343482712
 30
0.0
 10
12.27666639444942
 20
26.49360343482712
 30
0.0
 10
12.27666639444942
 20
26.49360343482712
 30
0.0
 10
11.46527777491146
 20
27.23443622967908
 30
0.0
 10
11.46527777491146
 20
27.23443622967908
 30
0.0
 10
11.46527777491146
 20
27.23443622967908
 30
0.0
 10
11.46527777491146
 20
26.9522142766755
 30
0.0
 10
11.46527777491146
 20
26.9522142766755
 30
0.0
 10
11.46527777491146
 20
26.9522142766755
 30
0.0
 10
10.75972221953229
 20
28.01054760974425
 30
0.0
 10
10.75972221953229
 20
28.01054760974425
 30
0.0
 10
10.75972221953229
 20
28.01054760974425
 30
0.0
 10
11.28888888606667
 20
29.66860343403337
 30
0.0
 10
11.28888888606667
 20
29.66860343403337
 30
0.0
 10
12.80807102730878
 20
30.25909683742647
 30
0.0
 10
14.42155996597876
 20
30.56984310445558
 30
0.0
 10
16.05138888487604
 20
30.58582646347054
 30
0.0
  0
SPLINE
  5
1EB
330
49
100
AcDbEntity
  8
Layer 1
370
     0
100
AcDbSpline
210
0.0
220
0.0
230
1.0
 70
    11
 71
     3
 72
    29
 73
    25
 74
     0
 42
0.0000000001
 43
0.0000000001
 12
1.0
 22
0.0
 32
0.0
 13
1.0
 23
0.0
 33
0.0
 40
0.0
 40
0.0
 40
0.0
 40
0.0
 40
1.0
 40
1.0
 40
1.0
 40
2.0
 40
2.0
 40
2.0
 40
3.0
 40
3.0
 40
3.0
 40
4.0
 40
4.0
 40
4.0
 40
5.0
 40
5.0
 40
5.0
 40
6.0
 40
6.0
 40
6.0
 40
7.0
 40
7.0
 40
7.0
 40
8.0
 40
8.0
 40
8.0
 40
8.0
 10
14.04055528289733
 20
32.87888201845283
 30
0.0
 10
14.04055528289733
 20
32.87888201845283
 30
0.0
 10
14.04055528289733
 20
32.87888201845283
 30
0.0
 10
14.04055528289733
 20
32.87888201845283
 30
0.0
 10
14.04055528289733
 20
32.84360477898004
 30
0.0
 10
14.00527804342454
 20
32.84360477898004
 30
0.0
 10
14.00527804342454
 20
32.80832619376684
 30
0.0
 10
14.00527804342454
 20
32.80832619376684
 30
0.0
 10
13.72305609042096
 20
32.45554841607725
 30
0.0
 10
13.72305609042096
 20
32.45554841607725
 30
0.0
 10
12.98277235766197
 20
32.34522999908552
 30
0.0
 10
12.2516921436622
 20
32.18014667554213
 30
0.0
 10
11.53583359959746
 20
31.96165898901566
 30
0.0
 10
11.53583359959746
 20
31.96165898901566
 30
0.0
 10
11.53583359959746
 20
32.03221481370166
 30
0.0
 10
11.53583359959746
 20
32.03221481370166
 30
0.0
 10
11.53583359959746
 20
32.03221481370166
 30
0.0
 10
11.74749972791504
 20
32.34971535191846
 30
0.0
 10
11.74749972791504
 20
32.34971535191846
 30
0.0
 10
11.74749972791504
 20
32.34971535191846
 30
0.0
 10
15.06361003075287
 20
34.96027077224733
 30
0.0
 10
15.06361003075287
 20
34.96027077224733
 30
0.0
 10
14.83564564016113
 20
34.21640535135006
 30
0.0
 10
14.49027212628398
 20
33.51374919371425
 30
0.0
 10
14.04055528289733
 20
32.87888201845283
 30
0.0
  0
SPLINE
  5
1EC
330
49
100
AcDbEntity
  8
Layer 1
370
     0
100
AcDbSpline
210
0.0
220
0.0
230
1.0
 70
    11
 71
     3
 72
    14
 73
    10
 74
     0
 42
0.0000000001
 43
0.0000000001
 12
1.0
 22
0.0
 32
0.0
 13
1.0
 23
0.0
 33
0.0
 40
0.0
 40
0.0
 40
0.0
 40
0.0
 40
1.0
 40
1.0
 40
1.0
 40
2.0
 40
2.0
 40
2.0
 40
3.0
 40
3.0
 40
3.0
 40
3.0
 10
7.655278045012044
 20
41.48665865019931
 30
0.0
 10
7.16138929082067
 20
42.79193636036375
 30
0.0
 10
7.761111109170834
 20
43.7797142051816
 30
0.0
 10
9.031111243427375
 20
43.25054753864723
 30
0.0
 10
10.96478345384925
 20
42.47643105054298
 30
0.0
 10
12.44359741959486
 20
40.86789729633144
 30
0.0
 10
13.05277777451458
 20
38.87610322987044
 30
0.0
 10
11.00312629000774
 20
39.08634220046844
 30
0.0
 10
9.092600142007178
 20
40.01038779741981
 30
0.0
 10
7.655278045012044
 20
41.48665865019931
 30
0.0
  0
SPLINE
  5
1ED
330
49
100
AcDbEntity
  8
Layer 1
370
     0
100
AcDbSpline
210
0.0
220
0.0
230
1.0
 70
    11
 71
     3
 72
   155
 73
   151
 74
     0
 42
0.0000000001
 43
0.0000000001
 12
1.0
 22
0.0
 32
0.0
 13
1.0
 23
0.0
 33
0.0
 40
0.0
 40
0.0
 40
0.0
 40
0.0
 40
1.0
 40
1.0
 40
1.0
 40
2.0
 40
2.0
 40
2.0
 40
3.0
 40
3.0
 40
3.0
 40
4.0
 40
4.0
 40
4.0
 40
5.0
 40
5.0
 40
5.0
 40
6.0
 40
6.0
 40
6.0
 40
7.0
 40
7.0
 40
7.0
 40
8.0
 40
8.0
 40
8.0
 40
9.0
 40
9.0
 40
9.0
 40
10.0
 40
10.0
 40
10.0
 40
11.0
 40
11.0
 40
11.0
 40
12.0
 40
12.0
 40
12.0
 40
13.0
 40
13.0
 40
13.0
 40
14.0
 40
14.0
 40
14.0
 40
15.0
 40
15.0
 40
15.0
 40
16.0
 40
16.0
 40
16.0
 40
17.0
 40
17.0
 40
17.0
 40
18.0
 40
18.0
 40
18.0
 40
19.0
 40
19.0
 40
19.0
 40
20.0
 40
20.0
 40
20.0
 40
21.0
 40
21.0
 40
21.0
 40
22.0
 40
22.0
 40
22.0
 40
23.0
 40
23.0
 40
23.0
 40
24.0
 40
24.0
 40
24.0
 40
25.0
 40
25.0
 40
25.0
 40
26.0
 40
26.0
 40
26.0
 40
27.0
 40
27.0
 40
27.0
 40
28.0
 40
28.0
 40
28.0
 40
29.0
 40
29.0
 40
29.0
 40
30.0
 40
30.0
 40
30.0
 40
31.0
 40
31.0
 40
31.0
 40
32.0
 40
32.0
 40
32.0
 40
33.0
 40
33.0
 40
33.0
 40
34.0
 40
34.0
 40
34.0
 40
35.0
 40
35.0
 40
35.0
 40
36.0
 40
36.0
 40
36.0
 40
37.0
 40
37.0
 40
37.0
 40
38.0
 40
38.0
 40
38.0
 40
39.0
 40
39.0
 40
39.0
 40
40.0
 40
40.0
 40
40.0
 40
41.0
 40
41.0
 40
41.0
 40
42.0
 40
42.0
 40
42.0
 40
43.0
 40
43.0
 40
43.0
 40
44.0
 40
44.0
 40
44.0
 40
45.0
 40
45.0
 40
45.0
 40
46.0
 40
46.0
 40
46.0
 40
47.0
 40
47.0
 40
47.0
 40
48.0
 40
48.0
 40
48.0
 40
49.0
 40
49.0
 40
49.0
 40
50.0
 40
50.0
 40
50.0
 40
50.0
 10
7.33777817966546
 20
27.44610370373708
 30
0.0
 10
7.33777817966546
 20
27.44610370373708
 30
0.0
 10
8.36083360039121
 20
27.0227701013615
 30
0.0
 10
8.36083360039121
 20
27.0227701013615
 30
0.0
 10
8.36083360039121
 20
27.0227701013615
 30
0.0
 10
8.572500401579003
 20
26.28193730650954
 30
0.0
 10
8.572500401579003
 20
26.28193730650954
 30
0.0
 10
8.572500401579003
 20
26.28193730650954
 30
0.0
 10
8.572500401579003
 20
24.41221535390284
 30
0.0
 10
8.572500401579003
 20
24.41221535390284
 30
0.0
 10
8.572500401579003
 20
24.41221535390284
 30
0.0
 10
7.267222354979459
 20
23.56554814915167
 30
0.0
 10
7.267222354979459
 20
23.56554814915167
 30
0.0
 10
7.267222354979459
 20
23.56554814915167
 30
0.0
 10
8.678333465737794
 20
22.96582565793129
 30
0.0
 10
8.678333465737794
 20
22.96582565793129
 30
0.0
 10
8.678333465737794
 20
22.96582565793129
 30
0.0
 10
9.172222219929168
 20
21.48415872248696
 30
0.0
 10
9.172222219929168
 20
21.48415872248696
 30
0.0
 10
9.172222219929168
 20
21.48415872248696
 30
0.0
 10
10.05416666415313
 20
22.6483251197145
 30
0.0
 10
10.05416666415313
 20
22.6483251197145
 30
0.0
 10
10.05416666415313
 20
22.6483251197145
 30
0.0
 10
11.28888888606667
 20
22.54249205555571
 30
0.0
 10
11.28888888606667
 20
22.54249205555571
 30
0.0
 10
11.28888888606667
 20
22.54249205555571
 30
0.0
 10
11.28888888606667
 20
22.22499151733891
 30
0.0
 10
11.28888888606667
 20
22.22499151733891
 30
0.0
 10
11.28888888606667
 20
22.22499151733891
 30
0.0
 10
9.383889021116959
 20
20.95499205595258
 30
0.0
 10
9.383889021116959
 20
20.95499205595258
 30
0.0
 10
9.383889021116959
 20
20.95499205595258
 30
0.0
 10
10.01888875181012
 20
20.60221427826299
 30
0.0
 10
10.01888875181012
 20
20.60221427826299
 30
0.0
 10
10.01888875181012
 20
20.60221427826299
 30
0.0
 10
9.560277909961751
 20
20.46110262889099
 30
0.0
 10
9.560277909961751
 20
20.46110262889099
 30
0.0
 10
9.560277909961751
 20
20.46110262889099
 30
0.0
 10
8.678333465737794
 20
21.20193542374295
 30
0.0
 10
8.678333465737794
 20
21.20193542374295
 30
0.0
 10
8.678333465737794
 20
21.20193542374295
 30
0.0
 10
8.537222489236003
 20
20.07304761172862
 30
0.0
 10
8.537222489236003
 20
20.07304761172862
 30
0.0
 10
8.537222489236003
 20
20.07304761172862
 30
0.0
 10
7.655278045012044
 20
19.47332646624867
 30
0.0
 10
7.655278045012044
 20
19.47332646624867
 30
0.0
 10
7.655278045012044
 20
19.47332646624867
 30
0.0
 10
7.937499998015626
 20
19.33221481687666
 30
0.0
 10
7.937499998015626
 20
19.33221481687666
 30
0.0
 10
7.937499998015626
 20
19.33221481687666
 30
0.0
 10
6.491110974914291
 20
18.9441597997143
 30
0.0
 10
6.491110974914291
 20
18.9441597997143
 30
0.0
 10
6.491110974914291
 20
18.9441597997143
 30
0.0
 10
6.632221951416082
 20
19.47332646624867
 30
0.0
 10
6.632221951416082
 20
19.47332646624867
 30
0.0
 10
6.632221951416082
 20
19.47332646624867
 30
0.0
 10
7.549444307983041
 20
19.72026983403904
 30
0.0
 10
7.549444307983041
 20
19.72026983403904
 30
0.0
 10
7.549444307983041
 20
19.72026983403904
 30
0.0
 10
7.655277372141832
 20
20.17888202162784
 30
0.0
 10
7.655277372141832
 20
20.17888202162784
 30
0.0
 10
7.655277372141832
 20
20.17888202162784
 30
0.0
 10
6.773332927917873
 20
19.93193865383747
 30
0.0
 10
6.773332927917873
 20
19.93193865383747
 30
0.0
 10
6.773332927917873
 20
19.93193865383747
 30
0.0
 10
6.914443904419664
 20
20.49638255984463
 30
0.0
 10
6.914443904419664
 20
20.49638255984463
 30
0.0
 10
6.914443904419664
 20
20.49638255984463
 30
0.0
 10
6.52638821438708
 20
20.60221696974384
 30
0.0
 10
6.52638821438708
 20
20.60221696974384
 30
0.0
 10
6.52638821438708
 20
20.60221696974384
 30
0.0
 10
6.385277237885289
 20
20.03777306373668
 30
0.0
 10
6.385277237885289
 20
20.03777306373668
 30
0.0
 10
6.385277237885289
 20
20.03777306373668
 30
0.0
 10
5.714999594849123
 20
20.70805137964306
 30
0.0
 10
5.714999594849123
 20
20.70805137964306
 30
0.0
 10
5.714999594849123
 20
20.70805137964306
 30
0.0
 10
5.573888618347332
 20
20.24943919205426
 30
0.0
 10
5.573888618347332
 20
20.24943919205426
 30
0.0
 10
5.573888618347332
 20
20.24943919205426
 30
0.0
 10
6.244166261383498
 20
19.57916087614788
 30
0.0
 10
6.244166261383498
 20
19.57916087614788
 30
0.0
 10
6.244166261383498
 20
19.57916087614788
 30
0.0
 10
6.103055284881707
 20
19.04999420961351
 30
0.0
 10
6.103055284881707
 20
19.04999420961351
 30
0.0
 10
6.103055284881707
 20
19.04999420961351
 30
0.0
 10
4.974166463562062
 20
20.21416195258147
 30
0.0
 10
4.974166463562062
 20
20.21416195258147
 30
0.0
 10
4.974166463562062
 20
20.21416195258147
 30
0.0
 10
4.833055487060271
 20
19.75554976499268
 30
0.0
 10
4.833055487060271
 20
19.75554976499268
 30
0.0
 10
4.833055487060271
 20
19.75554976499268
 30
0.0
 10
5.820833331878125
 20
18.7677709108695
 30
0.0
 10
5.820833331878125
 20
18.7677709108695
 30
0.0
 10
5.820833331878125
 20
18.7677709108695
 30
0.0
 10
4.974166799997167
 20
18.55610478255192
 30
0.0
 10
4.974166799997167
 20
18.55610478255192
 30
0.0
 10
4.974166799997167
 20
18.55610478255192
 30
0.0
 10
5.326944577686751
 20
18.20332700486234
 30
0.0
 10
5.326944577686751
 20
18.20332700486234
 30
0.0
 10
5.326944577686751
 20
18.20332700486234
 30
0.0
 10
5.785555419535124
 20
18.34443865423434
 30
0.0
 10
5.785555419535124
 20
18.34443865423434
 30
0.0
 10
5.785555419535124
 20
18.34443865423434
 30
0.0
 10
5.679722355376335
 20
17.95638094559112
 30
0.0
 10
5.679722355376335
 20
17.95638094559112
 30
0.0
 10
5.679722355376335
 20
17.95638094559112
 30
0.0
 10
4.974166799997167
 20
17.74471481727354
 30
0.0
 10
4.974166799997167
 20
17.74471481727354
 30
0.0
 10
4.974166799997167
 20
17.74471481727354
 30
0.0
 10
4.233333332275
 20
17.53304868895596
 30
0.0
 10
4.233333332275
 20
17.53304868895596
 30
0.0
 10
4.233333332275
 20
17.53304868895596
 30
0.0
 10
3.951111042836312
 20
17.85054922717276
 30
0.0
 10
3.951111042836312
 20
17.85054922717276
 30
0.0
 10
3.951111042836312
 20
17.85054922717276
 30
0.0
 10
4.409722221119792
 20
17.95638363707197
 30
0.0
 10
4.409722221119792
 20
17.95638363707197
 30
0.0
 10
4.409722221119792
 20
17.95638363707197
 30
0.0
 10
4.550833197621583
 20
18.41499582466077
 30
0.0
 10
4.550833197621583
 20
18.41499582466077
 30
0.0
 10
4.550833197621583
 20
18.41499582466077
 30
0.0
 10
3.668888753397625
 20
18.20332969634319
 30
0.0
 10
3.668888753397625
 20
18.20332969634319
 30
0.0
 10
3.668888753397625
 20
18.20332969634319
 30
0.0
 10
4.056944443430209
 20
19.54388632815594
 30
0.0
 10
4.056944443430209
 20
19.54388632815594
 30
0.0
 10
4.056944443430209
 20
19.54388632815594
 30
0.0
 10
3.704166665740625
 20
19.86138686637274
 30
0.0
 10
3.704166665740625
 20
19.86138686637274
 30
0.0
 10
3.704166665740625
 20
19.86138686637274
 30
0.0
 10
3.316110975708041
 20
18.30915872328071
 30
0.0
 10
3.316110975708041
 20
18.30915872328071
 30
0.0
 10
3.316110975708041
 20
18.30915872328071
 30
0.0
 10
2.892777709767562
 20
18.69721374044308
 30
0.0
 10
2.892777709767562
 20
18.69721374044308
 30
0.0
 10
2.892777709767562
 20
18.69721374044308
 30
0.0
 10
3.139722086863249
 20
19.57915818466704
 30
0.0
 10
3.139722086863249
 20
19.57915818466704
 30
0.0
 10
3.139722086863249
 20
19.57915818466704
 30
0.0
 10
2.822222053299114
 20
19.93193596235662
 30
0.0
 10
2.822222053299114
 20
19.93193596235662
 30
0.0
 10
2.822222053299114
 20
19.93193596235662
 30
0.0
 10
2.57527784442098
 20
19.01471427865987
 30
0.0
 10
2.57527784442098
 20
19.01471427865987
 30
0.0
 10
2.57527784442098
 20
19.01471427865987
 30
0.0
 10
2.328333467325292
 20
19.26165764645024
 30
0.0
 10
2.328333467325292
 20
19.26165764645024
 30
0.0
 10
3.020811790134961
 20
22.4793041596907
 30
0.0
 10
4.787426139376433
 20
25.36560381149259
 30
0.0
 10
7.33777817966546
 20
27.44610370373708
 30
0.0
  0
SPLINE
  5
1EE
330
49
100
AcDbEntity
  8
Layer 1
370
     0
100
AcDbSpline
210
0.0
220
0.0
230
1.0
 70
    11
 71
     3
 72
   197
 73
   193
 74
     0
 42
0.0000000001
 43
0.0000000001
 12
1.0
 22
0.0
 32
0.0
 13
1.0
 23
0.0
 33
0.0
 40
0.0
 40
0.0
 40
0.0
 40
0.0
 40
1.0
 40
1.0
 40
1.0
 40
2.0
 40
2.0
 40
2.0
 40
3.0
 40
3.0
 40
3.0
 40
4.0
 40
4.0
 40
4.0
 40
5.0
 40
5.0
 40
5.0
 40
6.0
 40
6.0
 40
6.0
 40
7.0
 40
7.0
 40
7.0
 40
8.0
 40
8.0
 40
8.0
 40
9.0
 40
9.0
 40
9.0
 40
10.0
 40
10.0
 40
10.0
 40
11.0
 40
11.0
 40
11.0
 40
12.0
 40
12.0
 40
12.0
 40
13.0
 40
13.0
 40
13.0
 40
14.0
 40
14.0
 40
14.0
 40
15.0
 40
15.0
 40
15.0
 40
16.0
 40
16.0
 40
16.0
 40
17.0
 40
17.0
 40
17.0
 40
18.0
 40
18.0
 40
18.0
 40
19.0
 40
19.0
 40
19.0
 40
20.0
 40
20.0
 40
20.0
 40
21.0
 40
21.0
 40
21.0
 40
22.0
 40
22.0
 40
22.0
 40
23.0
 40
23.0
 40
23.0
 40
24.0
 40
24.0
 40
24.0
 40
25.0
 40
25.0
 40
25.0
 40
26.0
 40
26.0
 40
26.0
 40
27.0
 40
27.0
 40
27.0
 40
28.0
 40
28.0
 40
28.0
 40
29.0
 40
29.0
 40
29.0
 40
30.0
 40
30.0
 40
30.0
 40
31.0
 40
31.0
 40
31.0
 40
32.0
 40
32.0
 40
32.0
 40
33.0
 40
33.0
 40
33.0
 40
34.0
 40
34.0
 40
34.0
 40
35.0
 40
35.0
 40
35.0
 40
36.0
 40
36.0
 40
36.0
 40
37.0
 40
37.0
 40
37.0
 40
38.0
 40
38.0
 40
38.0
 40
39.0
 40
39.0
 40
39.0
 40
40.0
 40
40.0
 40
40.0
 40
41.0
 40
41.0
 40
41.0
 40
42.0
 40
42.0
 40
42.0
 40
43.0
 40
43.0
 40
43.0
 40
44.0
 40
44.0
 40
44.0
 40
45.0
 40
45.0
 40
45.0
 40
46.0
 40
46.0
 40
46.0
 40
47.0
 40
47.0
 40
47.0
 40
48.0
 40
48.0
 40
48.0
 40
49.0
 40
49.0
 40
49.0
 40
50.0
 40
50.0
 40
50.0
 40
51.0
 40
51.0
 40
51.0
 40
52.0
 40
52.0
 40
52.0
 40
53.0
 40
53.0
 40
53.0
 40
54.0
 40
54.0
 40
54.0
 40
55.0
 40
55.0
 40
55.0
 40
56.0
 40
56.0
 40
56.0
 40
57.0
 40
57.0
 40
57.0
 40
58.0
 40
58.0
 40
58.0
 40
59.0
 40
59.0
 40
59.0
 40
60.0
 40
60.0
 40
60.0
 40
61.0
 40
61.0
 40
61.0
 40
62.0
 40
62.0
 40
62.0
 40
63.0
 40
63.0
 40
63.0
 40
64.0
 40
64.0
 40
64.0
 40
64.0
 10
2.32833329910774
 20
13.33499259615375
 30
0.0
 10
2.32833329910774
 20
13.33499259615375
 30
0.0
 10
2.398888787358635
 20
13.33499259615375
 30
0.0
 10
2.398888787358635
 20
13.33499259615375
 30
0.0
 10
2.398888787358635
 20
13.33499259615375
 30
0.0
 10
2.751666565048218
 20
14.6755492279665
 30
0.0
 10
2.751666565048218
 20
14.6755492279665
 30
0.0
 10
2.751666565048218
 20
14.6755492279665
 30
0.0
 10
3.386666800394043
 20
14.0758253910057
 30
0.0
 10
3.386666800394043
 20
14.0758253910057
 30
0.0
 10
3.386666800394043
 20
14.0758253910057
 30
0.0
 10
3.492500200987939
 20
14.5344375785945
 30
0.0
 10
3.492500200987939
 20
14.5344375785945
 30
0.0
 10
3.492500200987939
 20
14.5344375785945
 30
0.0
 10
3.139722423298355
 20
14.88721535628409
 30
0.0
 10
3.139722423298355
 20
14.88721535628409
 30
0.0
 10
3.139722423298355
 20
14.88721535628409
 30
0.0
 10
3.563055689238834
 20
14.9930497661833
 30
0.0
 10
3.563055689238834
 20
14.9930497661833
 30
0.0
 10
3.563055689238834
 20
14.9930497661833
 30
0.0
 10
4.09222235577321
 20
14.46388309964892
 30
0.0
 10
4.09222235577321
 20
14.46388309964892
 30
0.0
 10
4.09222235577321
 20
14.46388309964892
 30
0.0
 10
4.621389022307584
 20
13.93471643311455
 30
0.0
 10
4.621389022307584
 20
13.93471643311455
 30
0.0
 10
4.621389022307584
 20
13.93471643311455
 30
0.0
 10
4.515555621713688
 20
13.54666141595218
 30
0.0
 10
4.515555621713688
 20
13.54666141595218
 30
0.0
 10
4.515555621713688
 20
13.54666141595218
 30
0.0
 10
4.162777844024105
 20
13.86416195416897
 30
0.0
 10
4.162777844024105
 20
13.86416195416897
 30
0.0
 10
4.162777844024105
 20
13.86416195416897
 30
0.0
 10
3.704166665740625
 20
13.75832754426976
 30
0.0
 10
3.704166665740625
 20
13.75832754426976
 30
0.0
 10
3.704166665740625
 20
13.75832754426976
 30
0.0
 10
4.339166732868897
 20
13.12332646783617
 30
0.0
 10
4.339166732868897
 20
13.12332646783617
 30
0.0
 10
4.339166732868897
 20
13.12332646783617
 30
0.0
 10
2.998611110361459
 20
12.77054869014659
 30
0.0
 10
2.998611110361459
 20
12.77054869014659
 30
0.0
 10
2.998611110361459
 20
12.77054869014659
 30
0.0
 10
2.857500133859668
 20
12.31193650255779
 30
0.0
 10
2.857500133859668
 20
12.31193650255779
 30
0.0
 10
2.857500133859668
 20
12.31193650255779
 30
0.0
 10
4.445000133462792
 20
12.73526875919295
 30
0.0
 10
4.445000133462792
 20
12.73526875919295
 30
0.0
 10
4.445000133462792
 20
12.73526875919295
 30
0.0
 10
4.303889156961001
 20
12.20610209265857
 30
0.0
 10
4.303889156961001
 20
12.20610209265857
 30
0.0
 10
4.303889156961001
 20
12.20610209265857
 30
0.0
 10
3.386666800394043
 20
11.9591587248682
 30
0.0
 10
3.386666800394043
 20
11.9591587248682
 30
0.0
 10
3.386666800394043
 20
11.9591587248682
 30
0.0
 10
3.280833399800146
 20
11.53582646823304
 30
0.0
 10
3.280833399800146
 20
11.53582646823304
 30
0.0
 10
3.280833399800146
 20
11.53582646823304
 30
0.0
 10
4.198055419931999
 20
11.78276983602341
 30
0.0
 10
4.198055419931999
 20
11.78276983602341
 30
0.0
 10
4.198055419931999
 20
11.78276983602341
 30
0.0
 10
4.021666531087208
 20
11.21832593001625
 30
0.0
 10
4.021666531087208
 20
11.21832593001625
 30
0.0
 10
4.021666531087208
 20
11.21832593001625
 30
0.0
 10
4.233333332275
 20
11.14777145107067
 30
0.0
 10
4.233333332275
 20
11.14777145107067
 30
0.0
 10
4.233333332275
 20
11.14777145107067
 30
0.0
 10
4.409722221119792
 20
11.14777145107067
 30
0.0
 10
4.409722221119792
 20
11.14777145107067
 30
0.0
 10
4.409722221119792
 20
11.14777145107067
 30
0.0
 10
4.550833197621583
 20
11.71221535707783
 30
0.0
 10
4.550833197621583
 20
11.71221535707783
 30
0.0
 10
4.550833197621583
 20
11.71221535707783
 30
0.0
 10
5.221110840657749
 20
11.04193704117146
 30
0.0
 10
5.221110840657749
 20
11.04193704117146
 30
0.0
 10
5.221110840657749
 20
11.04193704117146
 30
0.0
 10
5.36222181715954
 20
11.50054922876025
 30
0.0
 10
5.36222181715954
 20
11.50054922876025
 30
0.0
 10
5.36222181715954
 20
11.50054922876025
 30
0.0
 10
4.691944174123374
 20
12.13555030519384
 30
0.0
 10
4.691944174123374
 20
12.13555030519384
 30
0.0
 10
4.691944174123374
 20
12.13555030519384
 30
0.0
 10
4.833055150625165
 20
12.66471697172822
 30
0.0
 10
4.833055150625165
 20
12.66471697172822
 30
0.0
 10
4.833055150625165
 20
12.66471697172822
 30
0.0
 10
5.961944308379916
 20
11.53582915971389
 30
0.0
 10
5.961944308379916
 20
11.53582915971389
 30
0.0
 10
5.961944308379916
 20
11.53582915971389
 30
0.0
 10
6.103055284881707
 20
11.99444134730269
 30
0.0
 10
6.103055284881707
 20
11.99444134730269
 30
0.0
 10
6.103055284881707
 20
11.99444134730269
 30
0.0
 10
5.115277440063853
 20
12.94694027047223
 30
0.0
 10
5.115277440063853
 20
12.94694027047223
 30
0.0
 10
5.115277440063853
 20
12.94694027047223
 30
0.0
 10
5.961944308379916
 20
13.19388363826259
 30
0.0
 10
5.961944308379916
 20
13.19388363826259
 30
0.0
 10
5.961944308379916
 20
13.19388363826259
 30
0.0
 10
5.644444443033334
 20
13.51138417647939
 30
0.0
 10
5.644444443033334
 20
13.51138417647939
 30
0.0
 10
5.644444443033334
 20
13.51138417647939
 30
0.0
 10
5.150555688841959
 20
13.40554976658017
 30
0.0
 10
5.150555688841959
 20
13.40554976658017
 30
0.0
 10
5.150555688841959
 20
13.40554976658017
 30
0.0
 10
5.256389089435856
 20
13.79360478374255
 30
0.0
 10
5.256389089435856
 20
13.79360478374255
 30
0.0
 10
5.256389089435856
 20
13.79360478374255
 30
0.0
 10
5.997222220722917
 20
14.00527091206013
 30
0.0
 10
5.997222220722917
 20
14.00527091206013
 30
0.0
 10
5.997222220722917
 20
14.00527091206013
 30
0.0
 10
6.702777776102083
 20
14.18165980090492
 30
0.0
 10
6.702777776102083
 20
14.18165980090492
 30
0.0
 10
6.702777776102083
 20
14.18165980090492
 30
0.0
 10
6.984999729105666
 20
13.89943650216091
 30
0.0
 10
6.984999729105666
 20
13.89943650216091
 30
0.0
 10
6.984999729105666
 20
13.89943650216091
 30
0.0
 10
6.526388887257292
 20
13.75832485278891
 30
0.0
 10
6.526388887257292
 20
13.75832485278891
 30
0.0
 10
6.526388887257292
 20
13.75832485278891
 30
0.0
 10
6.385277910755501
 20
13.29971266520011
 30
0.0
 10
6.385277910755501
 20
13.29971266520011
 30
0.0
 10
6.385277910755501
 20
13.29971266520011
 30
0.0
 10
7.267222354979459
 20
13.54665603299048
 30
0.0
 10
7.267222354979459
 20
13.54665603299048
 30
0.0
 10
7.267222354979459
 20
13.54665603299048
 30
0.0
 10
6.914444577289876
 20
12.20609940117773
 30
0.0
 10
6.914444577289876
 20
12.20609940117773
 30
0.0
 10
6.914444577289876
 20
12.20609940117773
 30
0.0
 10
7.231944442636459
 20
11.88859886296093
 30
0.0
 10
7.231944442636459
 20
11.88859886296093
 30
0.0
 10
7.231944442636459
 20
11.88859886296093
 30
0.0
 10
7.655278045012044
 20
13.44082162309127
 30
0.0
 10
7.655278045012044
 20
13.44082162309127
 30
0.0
 10
7.655278045012044
 20
13.44082162309127
 30
0.0
 10
8.043333062174415
 20
13.01749205793695
 30
0.0
 10
8.043333062174415
 20
13.01749205793695
 30
0.0
 10
8.043333062174415
 20
13.01749205793695
 30
0.0
 10
7.796388348643623
 20
12.10027037424021
 30
0.0
 10
7.796388348643623
 20
12.10027037424021
 30
0.0
 10
7.796388348643623
 20
12.10027037424021
 30
0.0
 10
8.113888213990204
 20
11.78276983602341
 30
0.0
 10
8.113888213990204
 20
11.78276983602341
 30
0.0
 10
8.113888213990204
 20
11.78276983602341
 30
0.0
 10
8.360832927520999
 20
12.69999151972016
 30
0.0
 10
8.360832927520999
 20
12.69999151972016
 30
0.0
 10
8.360832927520999
 20
12.69999151972016
 30
0.0
 10
8.784166529896583
 20
12.276659263085
 30
0.0
 10
8.784166529896583
 20
12.276659263085
 30
0.0
 10
8.784166529896583
 20
12.276659263085
 30
0.0
 10
8.854722354582584
 20
12.34721374203058
 30
0.0
 10
8.854722354582584
 20
12.34721374203058
 30
0.0
 10
8.854722354582584
 20
12.34721374203058
 30
0.0
 10
10.12472248883913
 20
11.71221266559699
 30
0.0
 10
10.12472248883913
 20
11.71221266559699
 30
0.0
 10
10.12472248883913
 20
11.71221266559699
 30
0.0
 10
10.37166720236992
 20
10.75971374242745
 30
0.0
 10
10.37166720236992
 20
10.75971374242745
 30
0.0
 10
10.37166720236992
 20
10.75971374242745
 30
0.0
 10
9.842500535835544
 20
11.18304599906261
 30
0.0
 10
9.842500535835544
 20
11.18304599906261
 30
0.0
 10
9.842500535835544
 20
11.18304599906261
 30
0.0
 10
9.736667471676755
 20
10.15998990546665
 30
0.0
 10
9.736667471676755
 20
10.15998990546665
 30
0.0
 10
9.736667471676755
 20
10.15998990546665
 30
0.0
 10
8.819444442239584
 20
9.48971428104112
 30
0.0
 10
8.819444442239584
 20
9.48971428104112
 30
0.0
 10
8.819444442239584
 20
9.48971428104112
 30
0.0
 10
9.807221950622333
 20
9.031102093452324
 30
0.0
 10
9.807221950622333
 20
9.031102093452324
 30
0.0
 10
9.807221950622333
 20
9.031102093452324
 30
0.0
 10
10.05416666415313
 20
8.219712128173942
 30
0.0
 10
10.05416666415313
 20
8.219712128173942
 30
0.0
 10
10.05416666415313
 20
8.219712128173942
 30
0.0
 10
9.136944307586166
 20
7.478879333321987
 30
0.0
 10
9.136944307586166
 20
7.478879333321987
 30
0.0
 10
9.136944307586166
 20
7.478879333321987
 30
0.0
 10
12.59416693266621
 20
6.032490983090865
 30
0.0
 10
12.59416693266621
 20
6.032490983090865
 30
0.0
 10
12.59416693266621
 20
6.032490983090865
 30
0.0
 10
12.94694471035579
 20
4.833046000650112
 30
0.0
 10
12.94694471035579
 20
4.833046000650112
 30
0.0
 10
12.94694471035579
 20
4.833046000650112
 30
0.0
 10
12.02972302665905
 20
4.550822701906107
 30
0.0
 10
12.02972302665905
 20
4.550822701906107
 30
0.0
 10
12.02972302665905
 20
4.550822701906107
 30
0.0
 10
11.0066676059333
 20
5.432767146130065
 30
0.0
 10
11.0066676059333
 20
5.432767146130065
 30
0.0
 10
11.0066676059333
 20
5.432767146130065
 30
0.0
 10
10.86555662943151
 20
3.986378795898943
 30
0.0
 10
10.86555662943151
 20
3.986378795898943
 30
0.0
 10
10.86555662943151
 20
3.986378795898943
 30
0.0
 10
10.01889009755055
 20
3.457212129364568
 30
0.0
 10
10.01889009755055
 20
3.457212129364568
 30
0.0
 10
6.07937900073337
 20
5.400081802713757
 30
0.0
 10
3.24594272426413
 20
9.039356865212683
 30
0.0
 10
2.32833329910774
 20
13.33499259615375
 30
0.0
  0
SPLINE
  5
1EF
330
49
100
AcDbEntity
  8
Layer 1
370
     0
100
AcDbSpline
210
0.0
220
0.0
230
1.0
 70
    11
 71
     3
 72
    86
 73
    82
 74
     0
 42
0.0000000001
 43
0.0000000001
 12
1.0
 22
0.0
 32
0.0
 13
1.0
 23
0.0
 33
0.0
 40
0.0
 40
0.0
 40
0.0
 40
0.0
 40
1.0
 40
1.0
 40
1.0
 40
2.0
 40
2.0
 40
2.0
 40
3.0
 40
3.0
 40
3.0
 40
4.0
 40
4.0
 40
4.0
 40
5.0
 40
5.0
 40
5.0
 40
6.0
 40
6.0
 40
6.0
 40
7.0
 40
7.0
 40
7.0
 40
8.0
 40
8.0
 40
8.0
 40
9.0
 40
9.0
 40
9.0
 40
10.0
 40
10.0
 40
10.0
 40
11.0
 40
11.0
 40
11.0
 40
12.0
 40
12.0
 40
12.0
 40
13.0
 40
13.0
 40
13.0
 40
14.0
 40
14.0
 40
14.0
 40
15.0
 40
15.0
 40
15.0
 40
16.0
 40
16.0
 40
16.0
 40
17.0
 40
17.0
 40
17.0
 40
18.0
 40
18.0
 40
18.0
 40
19.0
 40
19.0
 40
19.0
 40
20.0
 40
20.0
 40
20.0
 40
21.0
 40
21.0
 40
21.0
 40
22.0
 40
22.0
 40
22.0
 40
23.0
 40
23.0
 40
23.0
 40
24.0
 40
24.0
 40
24.0
 40
25.0
 40
25.0
 40
25.0
 40
26.0
 40
26.0
 40
26.0
 40
27.0
 40
27.0
 40
27.0
 40
27.0
 10
13.15861083867337
 20
2.363604248303877
 30
0.0
 10
13.15861083867337
 20
2.363604248303877
 30
0.0
 10
13.68777750520775
 20
2.363604248303877
 30
0.0
 10
13.68777750520775
 20
2.363604248303877
 30
0.0
 10
13.68777750520775
 20
2.363604248303877
 30
0.0
 10
16.01611029966283
 20
5.256380948766121
 30
0.0
 10
16.01611029966283
 20
5.256380948766121
 30
0.0
 10
16.01611029966283
 20
5.256380948766121
 30
0.0
 10
19.68499838019024
 20
5.009437580975752
 30
0.0
 10
19.68499838019024
 20
5.009437580975752
 30
0.0
 10
19.68499838019024
 20
5.009437580975752
 30
0.0
 10
19.0499999952375
 20
5.997213743618076
 30
0.0
 10
19.0499999952375
 20
5.997213743618076
 30
0.0
 10
19.0499999952375
 20
5.997213743618076
 30
0.0
 10
19.72027831114388
 20
7.055547076686826
 30
0.0
 10
19.72027831114388
 20
7.055547076686826
 30
0.0
 10
19.72027831114388
 20
7.055547076686826
 30
0.0
 10
20.99027777253021
 20
6.949712666787613
 30
0.0
 10
20.99027777253021
 20
6.949712666787613
 30
0.0
 10
20.99027777253021
 20
6.949712666787613
 30
0.0
 10
20.31999945662383
 20
8.078603170282788
 30
0.0
 10
20.31999945662383
 20
8.078603170282788
 30
0.0
 10
20.31999945662383
 20
8.078603170282788
 30
0.0
 10
20.74333305899941
 20
9.031102093452324
 30
0.0
 10
20.74333305899941
 20
9.031102093452324
 30
0.0
 10
20.74333305899941
 20
9.031102093452324
 30
0.0
 10
21.62527750322337
 20
8.607769836817162
 30
0.0
 10
21.62527750322337
 20
8.607769836817162
 30
0.0
 10
21.62527750322337
 20
8.607769836817162
 30
0.0
 10
22.29555581912975
 20
6.103048153517291
 30
0.0
 10
22.29555581912975
 20
6.103048153517291
 30
0.0
 10
22.29555581912975
 20
6.103048153517291
 30
0.0
 10
23.95361164341888
 20
8.113880409755577
 30
0.0
 10
23.95361164341888
 20
8.113880409755577
 30
0.0
 10
23.95361164341888
 20
8.113880409755577
 30
0.0
 10
26.10555554902917
 20
7.972768760383573
 30
0.0
 10
26.10555554902917
 20
7.972768760383573
 30
0.0
 10
26.10227732535649
 20
7.934143318736058
 30
0.0
 10
26.1150349445753
 20
7.89587046107961
 30
0.0
 10
26.14083278850196
 20
7.866934350484359
 30
0.0
 10
26.22625500765107
 20
7.761799725605586
 30
0.0
 10
26.37432413501476
 20
7.732185361836677
 30
0.0
 10
26.49361056619154
 20
7.796379871538782
 30
0.0
 10
26.49361056619154
 20
7.796379871538782
 30
0.0
 10
27.44610948936107
 20
8.396101017018735
 30
0.0
 10
27.44610948936107
 20
8.396101017018735
 30
0.0
 10
27.44610948936107
 20
8.396101017018735
 30
0.0
 10
27.86944174599624
 20
8.29026660711952
 30
0.0
 10
27.86944174599624
 20
8.29026660711952
 30
0.0
 10
27.86944174599624
 20
8.29026660711952
 30
0.0
 10
26.95222006229949
 20
7.690545461639568
 30
0.0
 10
26.95222006229949
 20
7.690545461639568
 30
0.0
 10
26.74055393398191
 20
7.584711051740354
 30
0.0
 10
26.84638565240028
 20
7.23193327405077
 30
0.0
 10
27.09333171167149
 20
7.23193327405077
 30
0.0
 10
27.09333171167149
 20
7.23193327405077
 30
0.0
 10
27.3755550104155
 20
7.23193327405077
 30
0.0
 10
27.3755550104155
 20
7.23193327405077
 30
0.0
 10
27.30156081894637
 20
7.099593160761915
 30
0.0
 10
27.20620165250699
 20
6.980392856972271
 30
0.0
 10
27.09333171167149
 20
6.879155496361187
 30
0.0
 10
27.09333171167149
 20
6.879155496361187
 30
0.0
 10
26.74055393398191
 20
6.879155496361187
 30
0.0
 10
26.74055393398191
 20
6.879155496361187
 30
0.0
 10
26.60417121645958
 20
6.879155496361187
 30
0.0
 10
26.49361056619154
 20
6.768594846093146
 30
0.0
 10
26.49361056619154
 20
6.632212128570818
 30
0.0
 10
26.49938379261018
 20
6.522601571042068
 30
0.0
 10
26.56818342604296
 20
6.426278854459161
 30
0.0
 10
26.66999945503633
 20
6.385268760780448
 30
0.0
 10
26.66999945503633
 20
6.385268760780448
 30
0.0
 10
26.28194443787396
 20
6.032490983090865
 30
0.0
 10
26.28194443787396
 20
6.032490983090865
 30
0.0
 10
26.28194443787396
 20
6.032490983090865
 30
0.0
 10
26.17611002797474
 20
5.891379333718862
 30
0.0
 10
26.17611002797474
 20
5.891379333718862
 30
0.0
 10
23.52020248248936
 20
3.370070053953682
 30
0.0
 10
19.99568408890028
 20
1.967843521474106
 30
0.0
 10
16.3336094921392
 20
1.975546539660657
 30
0.0
 10
15.26362339273968
 20
1.978394126397683
 30
0.0
 10
14.19778486532669
 20
2.108664490914541
 30
0.0
 10
13.15861083867337
 20
2.363604248303877
 30
0.0
  0
ENDBLK
  5
4C
330
49
100
AcDbEntity
  8
0
100
AcDbBlockEnd
  0
ENDSEC
  0
SECTION
  2
ENTITIES
  0
INSERT
  5
42
330
1F
100
AcDbEntity
  8
Layer 1
100
AcDbBlockReference
  2
block 2
 10
0.0
 20
0.0
 30
0.0
  0
INSERT
  5
46
330
1F
100
AcDbEntity
  8
Layer 1
100
AcDbBlockReference
  2
block 3
 10
0.0
 20
0.0
 30
0.0
  0
ENDSEC
  0
SECTION
  2
OBJECTS
  0
DICTIONARY
  5
C
330
0
100
AcDbDictionary
281
     1
  3
ACAD_GROUP
350
D
  3
ACAD_LAYOUT
350
1A
  3
ACAD_MATERIAL
350
3B
  3
ACAD_MLEADERSTYLE
350
1F1
  3
ACAD_MLINESTYLE
350
17
  3
ACAD_PLOTSETTINGS
350
19
  3
ACAD_PLOTSTYLENAME
350
E
  3
ACAD_TABLESTYLE
350
1F0
  3
ACAD_VISUALSTYLE
350
2A
  0
SUN
  5
3F
330
29
100
AcDbSun
 90
        1
290
     0
 63
     7
421
 16777215
 40
1.0
291
     1
 91
  2455826
 92
 54000000
292
     0
 70
     2
 71
   256
280
     1
  0
DICTIONARY
  5
D
102
{ACAD_REACTORS
330
C
102
}
330
C
100
AcDbDictionary
281
     1
  0
DICTIONARY
  5
1A
102
{ACAD_REACTORS
330
C
102
}
330
C
100
AcDbDictionary
281
     1
  3
Layout1
350
1E
  3
Layout2
350
26
  3
Model
350
22
  0
DICTIONARY
  5
3B
102
{ACAD_REACTORS
330
C
102
}
330
C
100
AcDbDictionary
281
     1
  3
ByBlock
350
3D
  3
ByLayer
350
3C
  3
Global
350
3E
  0
DICTIONARY
  5
1F1
102
{ACAD_REACTORS
330
C
102
}
330
C
100
AcDbDictionary
281
     1
  0
DICTIONARY
  5
17
102
{ACAD_REACTORS
330
C
102
}
330
C
100
AcDbDictionary
281
     1
  3
Standard
350
18
  0
DICTIONARY
  5
19
102
{ACAD_REACTORS
330
C
102
}
330
C
100
AcDbDictionary
281
     1
  0
ACDBDICTIONARYWDFLT
  5
E
102
{ACAD_REACTORS
330
C
102
}
330
C
100
AcDbDictionary
281
     1
  3
Normal
350
F
100
AcDbDictionaryWithDefault
340
F
  0
DICTIONARY
  5
1F0
102
{ACAD_REACTORS
330
C
102
}
330
C
100
AcDbDictionary
281
     1
  0
DICTIONARY
  5
2A
102
{ACAD_REACTORS
330
C
102
}
330
C
100
AcDbDictionary
281
     1
  3
2dWireframe
350
2F
  3
3D Hidden
350
31
  3
3dWireframe
350
30
  3
Basic
350
32
  3
Brighten
350
36
  3
ColorChange
350
3A
  3
Conceptual
350
34
  3
Dim
350
35
  3
Facepattern
350
39
  3
Flat
350
2B
  3
FlatWithEdges
350
2C
  3
Gouraud
350
2D
  3
GouraudWithEdges
350
2E
  3
Linepattern
350
38
  3
Realistic
350
33
  3
Thicken
350
37
  0
LAYOUT
  5
1E
102
{ACAD_REACTORS
330
1A
102
}
330
1A
100
AcDbPlotSettings
  1

  2
none_device
  4

  6

 40
0.0
 41
0.0
 42
0.0
 43
0.0
 44
0.0
 45
0.0
 46
0.0
 47
0.0
 48
0.0
 49
0.0
140
0.0
141
0.0
142
1.0
143
1.0
 70
   688
 72
     0
 73
     0
 74
     5
  7

 75
    16
 76
     0
 77
     2
 78
   300
147
1.0
148
0.0
149
0.0
100
AcDbLayout
  1
Layout1
 70
     1
 71
     1
 10
0.0
 20
0.0
 11
12.0
 21
9.0
 12
0.0
 22
0.0
 32
0.0
 14
1.000000000000000E+20
 24
1.000000000000000E+20
 34
1.000000000000000E+20
 15
-1.000000000000000E+20
 25
-1.000000000000000E+20
 35
-1.000000000000000E+20
146
0.0
 13
0.0
 23
0.0
 33
0.0
 16
1.0
 26
0.0
 36
0.0
 17
0.0
 27
1.0
 37
0.0
 76
     0
330
1B
  0
LAYOUT
  5
26
102
{ACAD_REACTORS
330
1A
102
}
330
1A
100
AcDbPlotSettings
  1

  2
none_device
  4

  6

 40
0.0
 41
0.0
 42
0.0
 43
0.0
 44
0.0
 45
0.0
 46
0.0
 47
0.0
 48
0.0
 49
0.0
140
0.0
141
0.0
142
1.0
143
1.0
 70
   688
 72
     0
 73
     0
 74
     5
  7

 75
    16
 76
     0
 77
     2
 78
   300
147
1.0
148
0.0
149
0.0
100
AcDbLayout
  1
Layout2
 70
     1
 71
     2
 10
0.0
 20
0.0
 11
0.0
 21
0.0
 12
0.0
 22
0.0
 32
0.0
 14
0.0
 24
0.0
 34
0.0
 15
0.0
 25
0.0
 35
0.0
146
0.0
 13
0.0
 23
0.0
 33
0.0
 16
1.0
 26
0.0
 36
0.0
 17
0.0
 27
1.0
 37
0.0
 76
     0
330
23
  0
LAYOUT
  5
22
102
{ACAD_REACTORS
330
1A
102
}
330
1A
100
AcDbPlotSettings
  1

  2
none_device
  4

  6

 40
0.0
 41
0.0
 42
0.0
 43
0.0
 44
0.0
 45
0.0
 46
0.0
 47
0.0
 48
0.0
 49
0.0
140
0.0
141
0.0
142
1.0
143
1.0
 70
  1712
 72
     0
 73
     0
 74
     0
  7

 75
     0
 76
     0
 77
     2
 78
   300
147
1.0
148
0.0
149
0.0
100
AcDbLayout
  1
Model
 70
     1
 71
     0
 10
0.0
 20
0.0
 11
12.0
 21
9.0
 12
0.0
 22
0.0
 32
0.0
 14
1.000000000000000E+20
 24
1.000000000000000E+20
 34
1.000000000000000E+20
 15
-1.000000000000000E+20
 25
-1.000000000000000E+20
 35
-1.000000000000000E+20
146
0.0
 13
0.0
 23
0.0
 33
0.0
 16
1.0
 26
0.0
 36
0.0
 17
0.0
 27
1.0
 37
0.0
 76
     0
330
1F
331
29
  0
MATERIAL
  5
3D
102
{ACAD_REACTORS
330
3B
102
}
330
3B
100
AcDbMaterial
  1
ByBlock
 72
     1
 94
      127
  0
MATERIAL
  5
3C
102
{ACAD_REACTORS
330
3B
102
}
330
3B
100
AcDbMaterial
  1
ByLayer
 72
     1
 94
      127
  0
MATERIAL
  5
3E
102
{ACAD_REACTORS
330
3B
102
}
330
3B
100
AcDbMaterial
  1
Global
 72
     1
 94
      127
  0
MLINESTYLE
  5
18
102
{ACAD_REACTORS
330
17
102
}
330
17
100
AcDbMlineStyle
  2
Standard
 70
     0
  3

 62
   256
 51
90.0
 52
90.0
 71
     2
 49
0.5
 62
   256
  6
BYLAYER
 49
-0.5
 62
   256
  6
BYLAYER
  0
ACDBPLACEHOLDER
  5
F
102
{ACAD_REACTORS
330
E
102
}
330
E
  0
VISUALSTYLE
  5
2F
102
{ACAD_REACTORS
330
2A
102
}
330
2A
100
AcDbVisualStyle
  2
2dWireframe
 70
     4
177
     2
291
     0
 71
     0
176
     1
 72
     2
176
     1
 73
     0
176
     1
 90
        0
176
     1
 40
-0.6
176
     1
 41
-30.0
176
     1
 62
     5
 63
     7
421
 16777215
176
     1
 74
     1
176
     1
 91
        4
176
     1
 64
     7
176
     1
 65
   257
176
     1
 75
     1
176
     1
175
     1
176
     1
 42
1.0
176
     1
 92
        0
176
     1
 66
   257
176
     1
 43
1.0
176
     1
 76
     1
176
     1
 77
     6
176
     1
 78
     2
176
     1
 67
     7
176
     1
 79
     5
176
     1
170
     0
176
     1
171
     0
176
     1
290
     0
176
     1
 93
        1
176
     1
 44
0.0
176
     1
173
     0
176
     1
  0
VISUALSTYLE
  5
31
102
{ACAD_REACTORS
330
2A
102
}
330
2A
100
AcDbVisualStyle
  2
3D Hidden
 70
     6
177
     2
291
     0
 71
     1
176
     1
 72
     2
176
     1
 73
     2
176
     1
 90
        0
176
     1
 40
-0.6
176
     1
 41
-30.0
176
     1
 62
     5
 63
     7
421
 16777215
176
     1
 74
     2
176
     1
 91
        2
176
     1
 64
     7
176
     1
 65
   257
176
     1
 75
     2
176
     1
175
     1
176
     1
 42
40.0
176
     1
 92
        0
176
     1
 66
   257
176
     1
 43
1.0
176
     1
 76
     1
176
     1
 77
     6
176
     1
 78
     2
176
     1
 67
     7
176
     1
 79
     3
176
     1
170
     0
176
     1
171
     0
176
     1
290
     0
176
     1
 93
        1
176
     1
 44
0.0
176
     1
173
     0
176
     1
  0
VISUALSTYLE
  5
30
102
{ACAD_REACTORS
330
2A
102
}
330
2A
100
AcDbVisualStyle
  2
3dWireframe
 70
     5
177
     2
291
     0
 71
     0
176
     1
 72
     2
176
     1
 73
     0
176
     1
 90
        0
176
     1
 40
-0.6
176
     1
 41
-30.0
176
     1
 62
     5
 63
     7
421
 16777215
176
     1
 74
     1
176
     1
 91
        4
176
     1
 64
     7
176
     1
 65
   257
176
     1
 75
     1
176
     1
175
     1
176
     1
 42
1.0
176
     1
 92
        0
176
     1
 66
   257
176
     1
 43
1.0
176
     1
 76
     1
176
     1
 77
     6
176
     1
 78
     2
176
     1
 67
     7
176
     1
 79
     5
176
     1
170
     0
176
     1
171
     0
176
     1
290
     0
176
     1
 93
        1
176
     1
 44
0.0
176
     1
173
     0
176
     1
  0
VISUALSTYLE
  5
32
102
{ACAD_REACTORS
330
2A
102
}
330
2A
100
AcDbVisualStyle
  2
Basic
 70
     7
177
     2
291
     1
 71
     1
176
     1
 72
     0
176
     1
 73
     1
176
     1
 90
        0
176
     1
 40
-0.6
176
     1
 41
-30.0
176
     1
 62
     5
 63
     7
421
 16777215
176
     1
 74
     0
176
     1
 91
        4
176
     1
 64
     7
176
     1
 65
   257
176
     1
 75
     1
176
     1
175
     1
176
     1
 42
1.0
176
     1
 92
        8
176
     1
 66
     7
176
     1
 43
1.0
176
     1
 76
     1
176
     1
 77
     6
176
     1
 78
     2
176
     1
 67
     7
176
     1
 79
     5
176
     1
170
     0
176
     1
171
     0
176
     1
290
     0
176
     1
 93
        1
176
     1
 44
0.0
176
     1
173
     0
176
     1
  0
VISUALSTYLE
  5
36
102
{ACAD_REACTORS
330
2A
102
}
330
2A
100
AcDbVisualStyle
  2
Brighten
 70
    12
177
     2
291
     1
 71
     2
176
     1
 72
     2
176
     1
 73
     0
176
     1
 90
        0
176
     1
 40
-0.6
176
     1
 41
-30.0
176
     1
 62
     5
 63
     7
421
 16777215
176
     1
 74
     1
176
     1
 91
        4
176
     1
 64
     7
176
     1
 65
   257
176
     1
 75
     1
176
     1
175
     1
176
     1
 42
1.0
176
     1
 92
        8
176
     1
 66
     7
176
     1
 43
1.0
176
     1
 76
     1
176
     1
 77
     6
176
     1
 78
     2
176
     1
 67
     7
176
     1
 79
     5
176
     1
170
     0
176
     1
171
     0
176
     1
290
     0
176
     1
 93
        1
176
     1
 44
50.0
176
     1
173
     0
176
     1
  0
VISUALSTYLE
  5
3A
102
{ACAD_REACTORS
330
2A
102
}
330
2A
100
AcDbVisualStyle
  2
ColorChange
 70
    16
177
     2
291
     1
 71
     2
176
     1
 72
     2
176
     1
 73
     3
176
     1
 90
        0
176
     1
 40
-0.6
176
     1
 41
-30.0
176
     1
 62
     5
 63
     8
421
  8421504
176
     1
 74
     1
176
     1
 91
        4
176
     1
 64
     7
176
     1
 65
   257
176
     1
 75
     1
176
     1
175
     1
176
     1
 42
1.0
176
     1
 92
        8
176
     1
 66
     8
424
  8421504
176
     1
 43
1.0
176
     1
 76
     1
176
     1
 77
     6
176
     1
 78
     2
176
     1
 67
     7
176
     1
 79
     5
176
     1
170
     0
176
     1
171
     0
176
     1
290
     0
176
     1
 93
        1
176
     1
 44
0.0
176
     1
173
     0
176
     1
  0
VISUALSTYLE
  5
34
102
{ACAD_REACTORS
330
2A
102
}
330
2A
100
AcDbVisualStyle
  2
Conceptual
 70
     9
177
     2
291
     0
 71
     3
176
     1
 72
     2
176
     1
 73
     0
176
     1
 90
        0
176
     1
 40
-0.6
176
     1
 41
-30.0
176
     1
 62
     5
 63
     7
421
 16777215
176
     1
 74
     2
176
     1
 91
        2
176
     1
 64
     7
176
     1
 65
   257
176
     1
 75
     1
176
     1
175
     1
176
     1
 42
40.0
176
     1
 92
        8
176
     1
 66
     7
176
     1
 43
1.0
176
     1
 76
     1
176
     1
 77
     6
176
     1
 78
     2
176
     1
 67
     7
176
     1
 79
     3
176
     1
170
     0
176
     1
171
     0
176
     1
290
     0
176
     1
 93
        1
176
     1
 44
0.0
176
     1
173
     0
176
     1
  0
VISUALSTYLE
  5
35
102
{ACAD_REACTORS
330
2A
102
}
330
2A
100
AcDbVisualStyle
  2
Dim
 70
    11
177
     2
291
     1
 71
     2
176
     1
 72
     2
176
     1
 73
     0
176
     1
 90
        0
176
     1
 40
-0.6
176
     1
 41
-30.0
176
     1
 62
     5
 63
     7
421
 16777215
176
     1
 74
     1
176
     1
 91
        4
176
     1
 64
     7
176
     1
 65
   257
176
     1
 75
     1
176
     1
175
     1
176
     1
 42
1.0
176
     1
 92
        8
176
     1
 66
     7
176
     1
 43
1.0
176
     1
 76
     1
176
     1
 77
     6
176
     1
 78
     2
176
     1
 67
     7
176
     1
 79
     5
176
     1
170
     0
176
     1
171
     0
176
     1
290
     0
176
     1
 93
        1
176
     1
 44
-50.0
176
     1
173
     0
176
     1
  0
VISUALSTYLE
  5
39
102
{ACAD_REACTORS
330
2A
102
}
330
2A
100
AcDbVisualStyle
  2
Facepattern
 70
    15
177
     2
291
     1
 71
     2
176
     1
 72
     2
176
     1
 73
     0
176
     1
 90
        0
176
     1
 40
-0.6
176
     1
 41
-30.0
176
     1
 62
     5
 63
     7
421
 16777215
176
     1
 74
     1
176
     1
 91
        4
176
     1
 64
     7
176
     1
 65
   257
176
     1
 75
     1
176
     1
175
     1
176
     1
 42
1.0
176
     1
 92
        8
176
     1
 66
     7
176
     1
 43
1.0
176
     1
 76
     1
176
     1
 77
     6
176
     1
 78
     2
176
     1
 67
     7
176
     1
 79
     5
176
     1
170
     0
176
     1
171
     0
176
     1
290
     0
176
     1
 93
        1
176
     1
 44
0.0
176
     1
173
     0
176
     1
  0
VISUALSTYLE
  5
2B
102
{ACAD_REACTORS
330
2A
102
}
330
2A
100
AcDbVisualStyle
  2
Flat
 70
     0
177
     2
291
     1
 71
     2
176
     1
 72
     1
176
     1
 73
     1
176
     1
 90
        2
176
     1
 40
-0.6
176
     1
 41
30.0
176
     1
 62
     5
 63
     7
421
 16777215
176
     1
 74
     0
176
     1
 91
        4
176
     1
 64
     7
176
     1
 65
   257
176
     1
 75
     1
176
     1
175
     1
176
     1
 42
1.0
176
     1
 92
        8
176
     1
 66
     7
176
     1
 43
1.0
176
     1
 76
     1
176
     1
 77
     6
176
     1
 78
     2
176
     1
 67
     7
176
     1
 79
     5
176
     1
170
     0
176
     1
171
     0
176
     1
290
     0
176
     1
 93
       13
176
     1
 44
0.0
176
     1
173
     0
176
     1
  0
VISUALSTYLE
  5
2C
102
{ACAD_REACTORS
330
2A
102
}
330
2A
100
AcDbVisualStyle
  2
FlatWithEdges
 70
     1
177
     2
291
     1
 71
     2
176
     1
 72
     1
176
     1
 73
     1
176
     1
 90
        2
176
     1
 40
-0.6
176
     1
 41
30.0
176
     1
 62
     5
 63
     7
421
 16777215
176
     1
 74
     1
176
     1
 91
        4
176
     1
 64
     7
176
     1
 65
   257
176
     1
 75
     1
176
     1
175
     1
176
     1
 42
1.0
176
     1
 92
        0
176
     1
 66
   257
176
     1
 43
1.0
176
     1
 76
     1
176
     1
 77
     6
176
     1
 78
     2
176
     1
 67
     7
176
     1
 79
     5
176
     1
170
     0
176
     1
171
     0
176
     1
290
     0
176
     1
 93
       13
176
     1
 44
0.0
176
     1
173
     0
176
     1
  0
VISUALSTYLE
  5
2D
102
{ACAD_REACTORS
330
2A
102
}
330
2A
100
AcDbVisualStyle
  2
Gouraud
 70
     2
177
     2
291
     1
 71
     2
176
     1
 72
     2
176
     1
 73
     1
176
     1
 90
        2
176
     1
 40
-0.6
176
     1
 41
30.0
176
     1
 62
     5
 63
     7
421
 16777215
176
     1
 74
     0
176
     1
 91
        4
176
     1
 64
     7
176
     1
 65
   257
176
     1
 75
     1
176
     1
175
     1
176
     1
 42
1.0
176
     1
 92
        0
176
     1
 66
     7
176
     1
 43
1.0
176
     1
 76
     1
176
     1
 77
     6
176
     1
 78
     2
176
     1
 67
     7
176
     1
 79
     5
176
     1
170
     0
176
     1
171
     0
176
     1
290
     0
176
     1
 93
       13
176
     1
 44
0.0
176
     1
173
     0
176
     1
  0
VISUALSTYLE
  5
2E
102
{ACAD_REACTORS
330
2A
102
}
330
2A
100
AcDbVisualStyle
  2
GouraudWithEdges
 70
     3
177
     2
291
     1
 71
     2
176
     1
 72
     2
176
     1
 73
     1
176
     1
 90
        2
176
     1
 40
-0.6
176
     1
 41
30.0
176
     1
 62
     5
 63
     7
421
 16777215
176
     1
 74
     1
176
     1
 91
        4
176
     1
 64
     7
176
     1
 65
   257
176
     1
 75
     1
176
     1
175
     1
176
     1
 42
1.0
176
     1
 92
        0
176
     1
 66
   257
176
     1
 43
1.0
176
     1
 76
     1
176
     1
 77
     6
176
     1
 78
     2
176
     1
 67
     7
176
     1
 79
     5
176
     1
170
     0
176
     1
171
     0
176
     1
290
     0
176
     1
 93
       13
176
     1
 44
0.0
176
     1
173
     0
176
     1
  0
VISUALSTYLE
  5
38
102
{ACAD_REACTORS
330
2A
102
}
330
2A
100
AcDbVisualStyle
  2
Linepattern
 70
    14
177
     2
291
     1
 71
     2
176
     1
 72
     2
176
     1
 73
     0
176
     1
 90
        0
176
     1
 40
-0.6
176
     1
 41
-30.0
176
     1
 62
     5
 63
     7
421
 16777215
176
     1
 74
     1
176
     1
 91
        4
176
     1
 64
     7
176
     1
 65
   257
176
     1
 75
     7
176
     1
175
     7
176
     1
 42
1.0
176
     1
 92
        8
176
     1
 66
     7
176
     1
 43
1.0
176
     1
 76
     1
176
     1
 77
     6
176
     1
 78
     2
176
     1
 67
     7
176
     1
 79
     5
176
     1
170
     0
176
     1
171
     0
176
     1
290
     0
176
     1
 93
        1
176
     1
 44
0.0
176
     1
173
     0
176
     1
  0
VISUALSTYLE
  5
33
102
{ACAD_REACTORS
330
2A
102
}
330
2A
100
AcDbVisualStyle
  2
Realistic
 70
     8
177
     2
291
     0
 71
     2
176
     1
 72
     2
176
     1
 73
     0
176
     1
 90
        0
176
     1
 40
-0.6
176
     1
 41
-30.0
176
     1
 62
     5
 63
     7
421
 16777215
176
     1
 74
     1
176
     1
 91
        0
176
     1
 64
     7
176
     1
 65
   257
176
     1
 75
     1
176
     1
175
     1
176
     1
 42
1.0
176
     1
 92
        8
176
     1
 66
     8
424
  7895160
176
     1
 43
1.0
176
     1
 76
     1
176
     1
 77
     6
176
     1
 78
     2
176
     1
 67
     7
176
     1
 79
     5
176
     1
170
     0
176
     1
171
     0
176
     1
290
     0
176
     1
 93
       13
176
     1
 44
0.0
176
     1
173
     0
176
     1
  0
VISUALSTYLE
  5
37
102
{ACAD_REACTORS
330
2A
102
}
330
2A
100
AcDbVisualStyle
  2
Thicken
 70
    13
177
     2
291
     1
 71
     2
176
     1
 72
     2
176
     1
 73
     0
176
     1
 90
        0
176
     1
 40
-0.6
176
     1
 41
-30.0
176
     1
 62
     5
 63
     7
421
 16777215
176
     1
 74
     1
176
     1
 91
        4
176
     1
 64
     7
176
     1
 65
   257
176
     1
 75
     1
176
     1
175
     1
176
     1
 42
1.0
176
     1
 92
       12
176
     1
 66
     7
176
     1
 43
1.0
176
     1
 76
     1
176
     1
 77
     6
176
     1
 78
     2
176
     1
 67
     7
176
     1
 79
     5
176
     1
170
     0
176
     1
171
     0
176
     1
290
     0
176
     1
 93
        1
176
     1
 44
0.0
176
     1
173
     0
176
     1
  0
ENDSEC
  0
EOF
