<?xml version="1.0" encoding="UTF-8" standalone="no"?>
<!-- Created with Inkscape (http://www.inkscape.org/) -->

<svg
   width="68.195557mm"
   height="80.040436mm"
   viewBox="0 0 68.195557 80.040436"
   version="1.1"
   id="svg291"
   xmlns="http://www.w3.org/2000/svg"
   xmlns:svg="http://www.w3.org/2000/svg">
  <defs
     id="defs288" />
  <g
     id="layer1"
     transform="translate(-165.41683,-24.006207)">
    <g
       transform="matrix(0.70555643,0,0,0.70555643,192.66471,41.696623)"
       id="g196"
       style="clip-rule:evenodd;fill-rule:evenodd;stroke-linejoin:round;stroke-miterlimit:2">
      <path
         d="m 0,63.297 c -0.67,0.067 -1.131,-0.311 -1.591,-0.521 -0.459,-0.211 -0.916,-0.256 -1.578,0.478 -0.417,0.462 -0.579,1.313 -0.577,2.106 0.002,0.794 0.167,1.531 0.404,1.765 0.956,0.935 1.076,0.839 1.19,0.359 0.112,-0.479 0.217,-1.343 1.14,-1.945 0.324,-0.213 0.481,-0.016 0.667,0.213 0.186,0.229 0.402,0.491 0.84,0.41 0.264,-0.048 0.501,-0.274 0.756,-0.437 0.256,-0.162 0.531,-0.261 0.87,-0.057 l 0.689,0.416 0.688,0.417 c 1.375,0.833 2.037,0.32 1.977,-0.608 C 5.414,64.965 4.631,63.622 3.116,62.797 2.354,62.383 1.763,62.489 1.268,62.709 0.772,62.927 0.374,63.259 0,63.297 m -5.505,-5.606 c -0.939,-0.038 -1.3,0.125 -1.553,0.338 -0.254,0.214 -0.4,0.478 -0.912,0.645 -0.213,0.07 -0.381,-0.007 -0.59,-0.085 -0.209,-0.079 -0.459,-0.16 -0.836,-0.098 -0.132,0.022 -0.319,0.121 -0.522,0.237 -0.205,0.115 -0.425,0.247 -0.624,0.333 -0.347,0.145 -0.576,0.163 -0.798,0.162 -0.222,-10e-4 -0.437,-0.019 -0.758,0.053 -0.204,0.048 -0.399,0.151 -0.548,0.294 -0.148,0.144 -0.25,0.33 -0.27,0.545 -0.034,0.373 -0.141,0.533 -0.292,0.665 -0.151,0.133 -0.348,0.238 -0.563,0.501 -0.124,0.151 -0.194,0.37 -0.149,0.556 0.044,0.186 0.203,0.339 0.536,0.358 0.294,0.016 0.592,-0.099 0.894,-0.232 0.302,-0.132 0.608,-0.281 0.915,-0.333 0.777,-0.131 1.058,-0.045 1.253,0.056 0.196,0.1 0.304,0.216 0.738,0.144 0.5,-0.084 0.78,-0.266 1.059,-0.482 0.278,-0.216 0.555,-0.465 1.05,-0.679 0.213,-0.092 0.556,0.026 0.933,0.047 0.376,0.021 0.787,-0.056 1.134,-0.537 0.091,-0.126 0.148,-0.364 0.183,-0.625 0.035,-0.262 0.048,-0.547 0.054,-0.767 0.005,-0.261 0.056,-0.53 0.039,-0.736 -0.018,-0.206 -0.104,-0.35 -0.373,-0.36 m 1.178,3.23 c 0.087,0.339 0.237,0.386 0.438,0.316 0.2,-0.07 0.451,-0.257 0.736,-0.386 0.204,-0.091 0.404,-0.161 0.593,-0.18 0.19,-0.02 0.367,0.011 0.526,0.121 0.377,0.261 0.683,0.546 1.02,0.702 0.338,0.156 0.705,0.182 1.202,-0.073 0.138,-0.073 0.2,-0.288 0.263,-0.5 0.063,-0.214 0.128,-0.425 0.27,-0.489 0.369,-0.17 1.044,0.33 1.692,0.746 0.647,0.415 1.266,0.745 1.521,0.238 C 4.182,60.924 3.668,60.319 2.997,59.765 2.326,59.212 1.499,58.709 1.12,58.422 0.931,58.276 0.785,58.145 0.592,58.051 0.4,57.958 0.162,57.902 -0.209,57.911 c -0.299,0.005 -0.447,0.002 -0.576,0.066 -0.128,0.063 -0.237,0.192 -0.458,0.461 -0.786,0.959 -1.138,0.415 -1.457,-0.042 -0.319,-0.457 -0.604,-0.827 -1.255,0.483 -0.137,0.271 -0.251,0.704 -0.319,1.107 -0.069,0.404 -0.093,0.779 -0.053,0.935 M 24.981,47.573 c -0.411,0.641 -0.888,1.331 -1.349,2.026 -0.462,0.695 -0.908,1.393 -1.261,2.049 -0.199,0.377 -0.433,0.758 -0.67,1.139 -0.237,0.38 -0.476,0.759 -0.686,1.13 -0.331,0.575 -0.74,1.271 -1.146,1.963 -0.407,0.692 -0.81,1.38 -1.13,1.939 -1.144,1.987 -1.12,3.238 -0.421,3.228 0.699,-0.01 2.073,-1.282 3.628,-4.34 0.387,-0.761 0.902,-1.722 1.452,-2.649 0.551,-0.928 1.139,-1.821 1.675,-2.448 0.473,-0.62 1.056,-1.276 1.621,-1.946 0.565,-0.67 1.113,-1.354 1.516,-2.031 0.275,-0.462 0.474,-1.23 0.591,-2.009 0.117,-0.78 0.152,-1.571 0.098,-2.082 -0.156,-1.527 -0.997,-0.757 -1.868,0.514 -0.871,1.271 -1.773,3.042 -2.05,3.517 m 5.29,-4.891 c -0.245,0.132 -0.304,0.672 -0.297,1.221 0.007,0.55 0.079,1.109 0.098,1.278 0.121,1.043 0.518,2.135 1.021,3.187 0.504,1.052 1.113,2.065 1.659,2.952 l 0.751,1.417 0.751,1.416 c 0.29,0.675 0.853,1.897 1.363,2.991 0.51,1.094 0.967,2.059 1.045,2.217 0.689,1.419 1.3,1.789 1.655,1.452 0.354,-0.338 0.452,-1.384 0.113,-2.795 C 38.174,56.962 37.668,55.869 37.084,54.764 36.5,53.659 35.838,52.541 35.271,51.433 34.743,50.406 34.363,49.401 33.964,48.389 33.566,47.378 33.15,46.359 32.553,45.305 32.445,45.05 32.098,44.273 31.667,43.621 31.235,42.968 30.718,42.44 30.271,42.682 M -3.702,56.771 c 0.721,-0.317 1.13,-0.118 1.427,0.118 0.296,0.236 0.481,0.509 0.752,0.339 1.305,-0.817 1.747,-0.65 2.152,-0.318 0.406,0.333 0.776,0.831 1.938,0.678 0.175,-0.021 0.292,-0.32 0.277,-0.681 C 2.83,56.547 2.683,56.123 2.331,55.852 2.215,55.763 1.809,55.671 1.373,55.563 0.937,55.456 0.471,55.333 0.237,55.185 -0.807,54.54 -1.301,54.772 -1.718,55.013 c -0.418,0.241 -0.76,0.492 -1.5,-0.112 -0.148,-0.122 -0.224,-0.356 -0.34,-0.548 -0.115,-0.192 -0.268,-0.34 -0.569,-0.286 -0.178,0.03 -0.447,0.172 -0.72,0.366 -0.272,0.195 -0.548,0.441 -0.739,0.677 -0.325,0.409 -0.084,0.926 0.353,1.29 0.437,0.364 1.07,0.575 1.531,0.371 m -6.054,-4.214 c 0.153,0.034 0.232,0.192 0.311,0.352 0.079,0.161 0.157,0.325 0.307,0.373 0.374,0.127 0.555,-0.048 0.708,-0.164 0.154,-0.116 0.28,-0.174 0.546,0.186 0.264,0.355 0.354,0.655 0.548,0.785 0.193,0.13 0.491,0.091 1.169,-0.231 0.323,-0.154 0.782,-0.484 1.084,-0.853 0.302,-0.368 0.447,-0.773 0.143,-1.077 -0.116,-0.118 -0.224,-0.209 -0.364,-0.268 -0.14,-0.059 -0.314,-0.087 -0.562,-0.082 -0.406,0.009 -0.68,0.078 -0.887,0.139 -0.206,0.061 -0.345,0.114 -0.479,0.087 C -7.373,51.78 -7.51,51.671 -7.714,51.402 -7.918,51.133 -8.19,50.705 -8.6,50.041 c -0.255,-0.414 -0.634,-0.409 -1.01,-0.244 -0.376,0.165 -0.749,0.489 -0.992,0.711 -0.161,0.148 -0.597,0.695 -0.878,1.268 -0.281,0.572 -0.408,1.17 0.05,1.42 0.199,0.108 0.429,-0.096 0.703,-0.305 0.275,-0.209 0.594,-0.423 0.971,-0.334 m -4.187,17.895 c 0.037,0.398 0.22,0.664 0.47,0.807 0.251,0.143 0.568,0.163 0.875,0.069 0.25,-0.078 0.371,-0.199 0.442,-0.239 0.071,-0.041 0.091,0 0.139,0.245 0.035,0.177 0.073,0.373 0.123,0.551 0.051,0.178 0.114,0.338 0.2,0.443 0.372,0.438 0.789,0.258 1.179,-0.016 0.39,-0.274 0.753,-0.642 1.017,-0.581 0.25,0.057 0.508,0.455 0.866,0.357 0.357,-0.099 0.813,-0.693 1.459,-2.62 0.199,-0.599 0.55,-1.546 0.55,-2.117 0,-0.571 -0.351,-0.764 -1.557,0.144 -0.678,0.514 -1.118,0.702 -1.558,0.671 -0.441,-0.031 -0.882,-0.281 -1.563,-0.644 -0.729,-0.39 -1.555,-0.788 -2.372,-0.742 -0.818,0.047 -1.626,0.54 -2.321,1.935 -0.169,0.339 -0.277,0.629 -0.335,0.891 -0.058,0.261 -0.066,0.494 -0.036,0.717 0.043,0.32 0.347,0.388 0.728,0.345 0.381,-0.044 0.838,-0.2 1.188,-0.329 0.269,-0.1 0.385,-0.173 0.438,-0.171 0.054,0.002 0.046,0.08 0.068,0.284 m 24.125,2.274 c 0.272,0.086 0.958,-0.562 1.664,-1.089 0.707,-0.527 1.433,-0.932 1.786,-0.362 0.077,0.128 0.103,0.302 0.166,0.45 0.064,0.147 0.164,0.27 0.393,0.297 0.167,0.018 0.387,-0.082 0.617,-0.207 0.23,-0.124 0.47,-0.272 0.68,-0.347 0.627,-0.226 0.715,0.09 0.807,0.472 0.092,0.382 0.189,0.832 0.835,0.872 0.239,0.013 0.522,-0.027 0.816,-0.059 0.294,-0.033 0.599,-0.057 0.884,-0.011 0.379,0.062 0.587,0.192 0.805,0.309 0.219,0.117 0.449,0.22 0.874,0.228 1.338,0.027 2.624,-0.496 3.446,-1.139 0.822,-0.644 1.18,-1.408 0.66,-1.865 -0.347,-0.31 -0.604,-0.194 -0.955,0.076 -0.352,0.27 -0.799,0.695 -1.526,1.004 -0.32,0.134 -0.595,0.215 -0.842,0.249 -0.247,0.034 -0.465,0.023 -0.67,-0.029 -0.412,-0.102 -0.98,-0.5 -1.576,-0.936 -0.595,-0.437 -1.217,-0.913 -1.734,-1.171 -2.12,-1.048 -4.334,-0.367 -5.803,0.643 -1.468,1.01 -2.191,2.349 -1.327,2.615 m -23.189,-6.972 c 0.134,-0.04 0.253,-0.108 0.367,-0.181 0.115,-0.073 0.225,-0.152 0.344,-0.217 0.419,-0.239 0.583,-0.042 0.775,0.17 0.19,0.213 0.408,0.44 0.936,0.26 0.592,-0.202 0.725,-0.245 0.872,-0.199 0.146,0.045 0.306,0.18 0.952,0.333 0.355,0.086 0.524,-0.091 0.678,-0.287 0.153,-0.195 0.293,-0.409 0.592,-0.396 0.361,0.017 0.546,0.272 0.722,0.416 0.176,0.144 0.341,0.176 0.661,-0.254 0.466,-0.626 0.697,-1.13 0.768,-1.561 0.07,-0.431 -0.02,-0.788 -0.198,-1.122 -0.298,-0.561 -0.793,-0.514 -1.363,-0.266 -0.571,0.248 -1.217,0.697 -1.817,0.938 -0.368,0.148 -0.614,0.194 -0.86,0.177 -0.247,-0.018 -0.496,-0.099 -0.873,-0.204 -0.422,-0.121 -0.707,-0.177 -1.009,-0.196 -0.301,-0.02 -0.619,-0.002 -1.105,0.025 -0.498,0.029 -1.302,0.065 -1.989,0.213 -0.688,0.148 -1.259,0.407 -1.294,0.883 -0.03,0.417 0.142,0.551 0.41,0.592 0.269,0.041 0.634,-0.011 0.989,0.032 0.433,0.054 0.488,0.354 0.588,0.597 0.099,0.243 0.243,0.427 0.854,0.247 m 38.806,6.117 c 0.127,0.271 0.534,0.283 1.005,0.235 0.471,-0.048 1.005,-0.157 1.384,-0.127 0.458,0.04 0.719,0.177 0.935,0.299 0.216,0.123 0.387,0.23 0.664,0.211 0.304,-0.021 0.482,-0.22 0.697,-0.366 0.217,-0.146 0.471,-0.239 0.928,-0.048 1.857,0.766 2.548,0.472 2.987,0.086 0.438,-0.385 0.624,-0.863 1.469,-0.462 0.406,0.191 1.141,0.145 1.744,-0.065 0.604,-0.209 1.076,-0.583 0.958,-1.048 -0.081,-0.306 -0.314,-0.4 -0.602,-0.402 -0.289,-0.002 -0.634,0.088 -0.937,0.15 -0.383,0.075 -0.859,0.023 -1.328,-0.097 -0.47,-0.12 -0.932,-0.307 -1.288,-0.5 -0.271,-0.148 -0.713,-0.331 -1.167,-0.479 -0.456,-0.149 -0.924,-0.263 -1.249,-0.274 -0.654,-0.021 -1.207,0.072 -1.736,0.236 -0.529,0.165 -1.033,0.401 -1.59,0.667 -0.433,0.207 -1.316,0.358 -2.008,0.629 -0.692,0.272 -1.194,0.664 -0.866,1.355 M -8.492,48.573 c 0.226,-0.129 0.357,-0.259 0.48,-0.311 0.124,-0.051 0.241,-0.025 0.44,0.161 0.221,0.207 0.163,0.551 0.116,0.884 -0.047,0.333 -0.083,0.656 0.181,0.82 0.293,0.186 0.474,0.045 0.647,-0.238 0.173,-0.282 0.337,-0.705 0.596,-1.084 0.457,-0.662 1.038,-0.511 1.596,-0.217 0.559,0.294 1.094,0.732 1.46,0.646 0.342,-0.077 0.548,-0.142 0.699,-0.189 0.152,-0.047 0.248,-0.077 0.372,-0.084 0.156,-0.011 0.316,-0.01 0.516,0.064 0.2,0.073 0.439,0.218 0.754,0.495 0.221,0.196 0.531,0.173 0.711,0.007 0.181,-0.166 0.234,-0.475 -0.059,-0.852 -0.135,-0.177 -0.365,-0.343 -0.616,-0.549 -0.25,-0.205 -0.52,-0.45 -0.735,-0.784 -0.218,-0.333 -0.502,-0.861 -0.875,-1.235 -0.374,-0.374 -0.837,-0.595 -1.413,-0.313 -0.253,0.124 -0.466,0.357 -0.755,0.539 -0.29,0.183 -0.654,0.316 -1.209,0.241 -0.126,-0.019 -0.508,-0.19 -0.945,-0.3 -0.436,-0.111 -0.927,-0.163 -1.272,0.058 -0.242,0.153 -0.495,0.382 -0.729,0.625 -0.233,0.243 -0.447,0.501 -0.611,0.714 -0.296,0.378 -0.403,0.759 -0.302,0.967 0.102,0.208 0.412,0.244 0.953,-0.065 m -0.318,-3.09 c 0.265,0.075 0.445,-0.177 0.646,-0.451 0.202,-0.275 0.426,-0.573 0.775,-0.592 0.194,-0.011 0.315,0.006 0.407,0.049 0.091,0.042 0.153,0.109 0.229,0.198 0.255,0.29 0.524,0.56 0.842,0.616 0.319,0.056 0.686,-0.103 1.138,-0.67 0.419,-0.521 1.059,-0.395 1.655,-0.111 0.597,0.283 1.151,0.724 1.402,0.832 0.204,0.091 0.427,0.24 0.65,0.341 0.223,0.102 0.445,0.156 0.647,0.056 0.384,-0.193 0.427,-0.419 0.341,-0.674 -0.086,-0.256 -0.301,-0.541 -0.433,-0.852 -0.143,-0.339 -0.466,-0.888 -0.843,-1.401 -0.378,-0.512 -0.812,-0.986 -1.175,-1.174 -0.369,-0.191 -0.685,-0.226 -0.968,-0.162 -0.283,0.065 -0.534,0.229 -0.77,0.436 -0.385,0.336 -0.603,0.529 -0.806,0.599 -0.203,0.07 -0.392,0.016 -0.718,-0.142 -0.282,-0.137 -0.652,-0.186 -1,-0.155 -0.349,0.031 -0.676,0.141 -0.872,0.321 -0.137,0.127 -0.681,0.787 -1.062,1.452 -0.38,0.665 -0.598,1.336 -0.085,1.484 M 6.522,72.075 C 6.951,71.616 6.798,71.321 6.451,71.082 6.103,70.841 5.56,70.656 5.204,70.414 4.79,70.135 4.585,69.839 4.408,69.52 4.231,69.201 4.082,68.858 3.778,68.484 3.407,68.027 2.925,68.067 2.477,68.229 2.029,68.39 1.615,68.675 1.378,68.71 0.813,68.794 0.493,68.38 0.23,68.009 c -0.262,-0.37 -0.466,-0.696 -0.8,-0.439 -0.321,0.248 -0.211,0.721 0.012,1.177 0.225,0.455 0.564,0.893 0.704,1.071 0.354,0.451 0.519,0.984 0.666,1.396 0.147,0.413 0.278,0.703 0.566,0.668 0.245,-0.032 0.36,-0.199 0.506,-0.293 0.145,-0.094 0.32,-0.116 0.683,0.142 0.826,0.584 1.205,0.716 1.493,0.678 0.287,-0.038 0.482,-0.248 0.94,-0.35 0.239,-0.054 0.528,0.05 0.804,0.117 0.275,0.067 0.536,0.098 0.718,-0.101 m -12.705,0.076 c 0.121,0.137 0.359,0.096 0.606,0.046 0.247,-0.05 0.502,-0.111 0.659,-0.014 0.177,0.107 0.256,0.33 0.34,0.543 0.085,0.214 0.173,0.416 0.37,0.484 0.379,0.126 0.643,-0.052 0.873,-0.265 0.23,-0.214 0.426,-0.464 0.671,-0.482 0.329,-0.025 0.619,0.136 0.898,0.26 0.28,0.124 0.547,0.21 0.83,0.035 0.326,-0.204 0.343,-0.599 0.219,-1.045 -0.125,-0.445 -0.391,-0.941 -0.634,-1.347 -0.317,-0.535 -0.561,-0.845 -0.833,-0.962 -0.273,-0.116 -0.574,-0.038 -1.007,0.204 -0.608,0.341 -0.959,-0.103 -1.246,-0.538 -0.287,-0.434 -0.508,-0.857 -0.858,-0.473 -0.175,0.191 -0.525,0.934 -0.767,1.702 -0.242,0.769 -0.377,1.561 -0.121,1.852 M -11.35,57.62 c 0.141,0.014 0.301,0.167 0.475,0.295 0.175,0.128 0.365,0.23 0.564,0.141 0.156,-0.07 0.327,-0.219 0.496,-0.372 0.169,-0.152 0.336,-0.308 0.483,-0.391 0.534,-0.307 0.837,-0.283 1.124,-0.241 0.287,0.042 0.556,0.101 1.019,-0.136 0.371,-0.191 0.462,-0.317 0.408,-0.5 -0.054,-0.184 -0.255,-0.424 -0.468,-0.844 -0.124,-0.244 -0.191,-0.441 -0.266,-0.582 -0.075,-0.141 -0.159,-0.227 -0.315,-0.251 -0.374,-0.054 -0.609,-0.02 -0.806,0.037 -0.197,0.057 -0.356,0.138 -0.577,0.178 -0.272,0.051 -0.621,-0.11 -0.962,-0.28 -0.34,-0.17 -0.671,-0.349 -0.906,-0.333 -0.449,0.033 -1.007,0.734 -1.427,1.54 -0.42,0.806 -0.7,1.715 -0.596,2.164 0.126,0.548 0.46,0.433 0.815,0.185 0.354,-0.248 0.73,-0.628 0.939,-0.61 m 8.573,-3.993 c 0.221,-0.046 0.342,-0.254 0.46,-0.474 0.118,-0.219 0.232,-0.448 0.439,-0.537 0.205,-0.091 0.717,0.357 1.288,0.776 0.57,0.419 1.198,0.807 1.634,0.594 0.619,-0.3 0.437,-0.636 -0.023,-1.077 -0.461,-0.441 -1.201,-0.987 -1.699,-1.707 -0.151,-0.218 -0.331,-0.524 -0.566,-0.757 -0.235,-0.233 -0.524,-0.393 -0.892,-0.318 -0.21,0.04 -0.308,0.141 -0.393,0.248 -0.085,0.107 -0.156,0.22 -0.312,0.284 -0.159,0.065 -0.303,0.01 -0.437,-0.08 -0.135,-0.089 -0.26,-0.213 -0.381,-0.285 -0.21,-0.129 -0.563,-0.317 -0.918,-0.446 -0.355,-0.128 -0.713,-0.197 -0.933,-0.087 -0.068,0.033 -0.131,0.073 -0.188,0.119 -0.057,0.047 -0.109,0.099 -0.152,0.156 -0.145,0.19 -0.164,0.376 -0.037,0.521 0.126,0.145 0.398,0.25 0.834,0.28 0.183,0.013 0.345,0.071 0.494,0.153 0.15,0.083 0.289,0.191 0.426,0.304 0.608,0.505 0.688,1.14 0.745,1.624 0.057,0.483 0.092,0.813 0.611,0.709 M 23.63,35.479 c -0.247,0.099 -0.515,0.235 -0.732,0.424 -0.217,0.19 -0.384,0.433 -0.43,0.748 -0.046,0.319 -0.031,0.697 0.075,1.003 0.107,0.306 0.305,0.539 0.624,0.572 0.337,0.037 0.525,-0.148 0.713,-0.357 0.188,-0.208 0.375,-0.439 0.708,-0.493 0.474,-0.08 0.773,0.011 1.016,0.156 0.244,0.145 0.432,0.344 0.685,0.478 0.328,0.178 0.651,0.198 0.917,0.094 0.266,-0.104 0.474,-0.333 0.574,-0.653 0.116,-0.365 0.137,-0.677 0.097,-0.954 -0.04,-0.277 -0.14,-0.518 -0.27,-0.744 -0.25,-0.433 -0.57,-0.461 -0.915,-0.376 -0.345,0.086 -0.715,0.284 -1.065,0.306 -0.269,0.013 -0.581,-0.112 -0.919,-0.203 -0.339,-0.091 -0.704,-0.149 -1.078,-10e-4 m -28.167,3.402 c -0.543,0.205 -0.804,0.315 -1.053,0.45 -0.249,0.135 -0.486,0.295 -0.981,0.599 -0.74,0.451 -0.91,0.824 -0.815,1.059 0.095,0.236 0.457,0.335 0.783,0.242 0.191,-0.057 0.26,-0.128 0.341,-0.189 0.081,-0.06 0.176,-0.11 0.418,-0.123 0.24,-0.014 0.347,0.028 0.45,0.078 0.104,0.05 0.204,0.107 0.427,0.126 0.248,0.022 0.531,-0.081 0.792,-0.214 0.26,-0.133 0.497,-0.297 0.65,-0.399 0.302,-0.199 0.692,-0.255 1.031,-0.287 0.339,-0.033 0.627,-0.041 0.723,-0.143 0.119,-0.126 0.135,-0.333 0.022,-0.543 -0.113,-0.211 -0.355,-0.425 -0.753,-0.564 -0.242,-0.086 -0.61,-0.161 -0.987,-0.189 -0.377,-0.028 -0.765,-0.008 -1.048,0.097 m 1.706,-1.273 c 0.509,-0.315 0.272,-0.589 -0.081,-1.092 -0.353,-0.503 -0.822,-1.234 -0.779,-2.462 0.01,-0.303 0.018,-0.778 -0.067,-1.153 -0.086,-0.376 -0.264,-0.653 -0.628,-0.562 -0.263,0.065 -0.413,0.369 -0.5,0.734 -0.086,0.366 -0.111,0.793 -0.124,1.105 -0.016,0.37 -0.024,0.752 -0.065,1.12 -0.04,0.368 -0.112,0.721 -0.258,1.035 -0.1,0.218 -0.335,0.491 -0.54,0.773 -0.204,0.282 -0.377,0.574 -0.353,0.829 0.021,0.216 0.12,0.363 0.255,0.43 0.135,0.066 0.307,0.051 0.477,-0.059 0.099,-0.062 0.177,-0.157 0.271,-0.266 0.093,-0.109 0.202,-0.231 0.364,-0.347 0.454,-0.325 0.814,-0.253 1.133,-0.147 0.32,0.105 0.6,0.247 0.895,0.062 m 32.462,17.357 c 0.621,0 1.117,0.051 1.604,0.07 0.488,0.019 0.968,0.005 1.56,-0.124 0.77,-0.172 0.369,-0.425 -0.398,-0.634 -0.767,-0.21 -1.899,-0.376 -2.594,-0.376 -1.071,0 -2.181,-0.078 -3.131,-0.113 -0.949,-0.035 -1.739,-0.027 -2.17,0.145 -0.627,0.247 -0.666,0.464 -0.391,0.638 0.276,0.175 0.865,0.308 1.494,0.389 0.856,0.11 1.854,0.111 2.643,0.085 0.788,-0.026 1.367,-0.08 1.383,-0.08 M 23.458,38.962 c -0.576,0.231 -0.691,0.542 -0.664,0.932 0.027,0.39 0.196,0.861 0.191,1.412 -0.006,0.545 0.319,0.676 0.786,0.66 0.466,-0.015 1.076,-0.176 1.641,-0.214 0.525,0.003 0.919,0.091 1.254,0.141 0.334,0.05 0.61,0.06 0.898,-0.093 0.361,-0.19 0.404,-0.373 0.365,-0.608 -0.039,-0.236 -0.16,-0.523 -0.128,-0.924 0.006,-0.091 0.066,-0.33 0.091,-0.562 0.024,-0.232 0.011,-0.456 -0.128,-0.518 -0.49,-0.221 -0.847,-0.264 -1.197,-0.26 -0.351,0.003 -0.695,0.053 -1.161,0.018 -0.433,-0.032 -0.733,-0.104 -1.018,-0.129 -0.285,-0.026 -0.555,-0.005 -0.93,0.145 m 2.879,-6.144 c -0.064,-1.395 0.194,-2.066 0.405,-2.733 0.21,-0.667 0.373,-1.331 0.117,-2.713 -0.08,-0.449 -0.114,-0.811 -0.119,-1.153 -0.004,-0.341 0.02,-0.661 0.055,-1.024 0.038,-0.406 -0.119,-0.677 -0.332,-0.723 -0.213,-0.047 -0.484,0.132 -0.674,0.626 -0.269,0.691 -0.279,0.987 -0.23,1.32 0.048,0.332 0.154,0.702 0.116,1.54 -0.043,0.949 -0.262,1.284 -0.395,1.827 -0.133,0.543 -0.18,1.294 0.121,3.076 0.116,0.683 0.354,0.774 0.561,0.644 0.207,-0.131 0.384,-0.483 0.375,-0.687 m -1.254,27.678 c 0.095,-1.526 -0.348,-2.248 -0.815,-2.336 -0.467,-0.088 -0.957,0.458 -0.96,1.466 -0.003,1.481 0.409,2.229 0.837,2.342 0.429,0.113 0.874,-0.41 0.938,-1.472 m 13.174,6.752 c 0.523,-0.196 0.634,-0.939 0.576,-1.797 -0.059,-0.859 -0.288,-1.831 -0.446,-2.487 -0.059,-0.237 -0.127,-0.442 -0.229,-0.498 -0.102,-0.055 -0.24,0.041 -0.439,0.406 -0.139,0.264 -0.138,0.586 -0.103,0.928 0.035,0.342 0.103,0.704 0.098,1.045 -0.011,0.594 -0.11,1.119 -0.089,1.534 0.021,0.415 0.162,0.718 0.632,0.869 M 27.742,60.496 c 0.094,-1.526 -0.348,-2.248 -0.815,-2.336 -0.466,-0.088 -0.955,0.458 -0.955,1.466 -0.006,1.481 0.404,2.229 0.832,2.342 0.428,0.113 0.873,-0.41 0.938,-1.472 m -2.475,4.887 c 0.094,-1.53 -0.348,-2.251 -0.813,-2.339 -0.466,-0.088 -0.955,0.457 -0.958,1.462 -0.005,1.481 0.405,2.23 0.833,2.344 0.428,0.113 0.873,-0.408 0.938,-1.467 m 2.663,0 c 0.094,-1.53 -0.348,-2.251 -0.815,-2.339 -0.467,-0.088 -0.958,0.457 -0.961,1.462 -0.002,1.481 0.408,2.23 0.836,2.344 0.428,0.113 0.873,-0.408 0.94,-1.467 m 4.203,-4.887 c 0.095,-1.526 -0.348,-2.248 -0.815,-2.336 -0.467,-0.088 -0.958,0.458 -0.961,1.466 -0.002,1.481 0.408,2.229 0.836,2.342 0.428,0.113 0.873,-0.41 0.94,-1.472 m 2.659,0 c 0.094,-1.526 -0.349,-2.248 -0.815,-2.336 -0.467,-0.088 -0.958,0.458 -0.961,1.466 -0.003,1.481 0.409,2.229 0.838,2.342 0.428,0.113 0.873,-0.41 0.938,-1.472 m -2.476,4.887 c 0.095,-1.53 -0.348,-2.251 -0.815,-2.339 -0.467,-0.088 -0.958,0.457 -0.96,1.462 -0.003,1.481 0.408,2.23 0.837,2.344 0.429,0.113 0.874,-0.408 0.938,-1.467 m 2.664,0 c 0.094,-1.53 -0.348,-2.251 -0.815,-2.339 -0.467,-0.088 -0.958,0.457 -0.961,1.462 -0.002,1.481 0.408,2.23 0.836,2.344 0.428,0.113 0.873,-0.408 0.94,-1.467 m -16.898,2.354 c -0.522,-0.196 -0.633,-0.939 -0.574,-1.797 0.059,-0.858 0.289,-1.831 0.45,-2.487 0.057,-0.237 0.124,-0.442 0.227,-0.497 0.102,-0.055 0.239,0.04 0.435,0.405 0.143,0.264 0.142,0.586 0.107,0.929 -0.036,0.341 -0.104,0.703 -0.096,1.044 0.011,0.594 0.11,1.12 0.089,1.534 -0.022,0.415 -0.164,0.719 -0.638,0.869 M 7.75,68.356 C 7.228,68.089 7.116,67.072 7.175,65.897 7.234,64.721 7.464,63.388 7.626,62.491 7.682,62.166 7.75,61.883 7.852,61.808 c 0.102,-0.075 0.239,0.056 0.436,0.559 0.142,0.36 0.141,0.803 0.106,1.271 -0.035,0.47 -0.103,0.965 -0.096,1.433 0.011,0.811 0.111,1.531 0.089,2.098 -0.021,0.567 -0.164,0.982 -0.637,1.187 m 8.066,-6.806 c 0.356,-0.065 0.387,-0.375 0.366,-0.782 -0.021,-0.407 -0.094,-0.911 0.054,-1.368 0.315,-0.968 0.742,-1.813 1.207,-2.639 0.466,-0.826 0.97,-1.632 1.441,-2.522 0.85,-1.607 1.636,-2.899 2.451,-4.142 0.815,-1.244 1.661,-2.44 2.629,-3.857 0.199,-0.29 0.626,-0.925 0.968,-1.539 0.342,-0.613 0.601,-1.205 0.464,-1.406 -0.205,-0.304 -0.368,-0.336 -0.691,-0.246 -0.324,0.09 -0.808,0.302 -1.656,0.488 -1.337,0.293 -2.818,0.166 -4.216,0.002 -1.396,-0.165 -2.709,-0.368 -3.71,-0.228 -0.351,0.046 -0.688,0.137 -1.012,0.266 -0.325,0.129 -0.635,0.296 -0.931,0.492 -0.31,0.204 -0.604,0.443 -0.882,0.709 -0.277,0.267 -0.536,0.56 -0.776,0.871 -0.751,0.97 -2.563,3.635 -4.174,6.156 -1.611,2.52 -3.021,4.896 -2.967,5.289 0.237,1.72 2.401,2.888 4.854,3.599 2.453,0.71 5.193,0.964 6.581,0.857 m 25.662,-25.75 0.46,1.552 0.461,1.551 c 0.009,0.033 0.031,0.059 0.059,0.073 0.027,0.015 0.061,0.02 0.093,0.01 l 1.744,-0.52 1.745,-0.521 c 0.057,-0.017 0.108,0.008 0.136,0.049 0.028,0.041 0.032,0.098 -0.006,0.145 l -2.442,3.044 c -0.016,0.019 -0.025,0.042 -0.027,0.066 -0.002,0.023 0.003,0.048 0.014,0.069 l 0.781,1.45 0.78,1.45 c 0.025,0.048 0.016,0.099 -0.011,0.134 -0.029,0.036 -0.076,0.056 -0.128,0.043 L 43.793,44.042 42.45,43.689 c -0.035,-0.009 -0.07,-0.003 -0.097,0.015 -0.028,0.018 -0.049,0.047 -0.055,0.082 l -0.322,1.867 -0.322,1.868 c -0.011,0.065 -0.063,0.099 -0.116,0.101 -0.053,0.002 -0.107,-0.028 -0.123,-0.092 l -0.96,-3.742 c -0.009,-0.035 -0.033,-0.063 -0.062,-0.078 -0.03,-0.016 -0.066,-0.018 -0.101,-0.005 l -1.672,0.646 -1.673,0.647 c -0.056,0.022 -0.11,0.001 -0.14,-0.037 -0.031,-0.039 -0.039,-0.096 -0.006,-0.145 l 2.032,-3.024 c 0.021,-0.032 0.026,-0.069 0.016,-0.102 -0.009,-0.034 -0.033,-0.063 -0.067,-0.078 l -2.064,-0.929 -2.063,-0.928 c -0.058,-0.026 -0.079,-0.083 -0.07,-0.134 0.01,-0.051 0.05,-0.096 0.114,-0.1 l 2.597,-0.138 2.598,-0.137 c 0.024,-0.002 0.047,-0.01 0.066,-0.024 0.019,-0.014 0.034,-0.033 0.042,-0.056 l 1.244,-3.374 c 0.02,-0.055 0.07,-0.081 0.119,-0.08 0.049,0.002 0.096,0.031 0.113,0.088 m -58.263,16.887 -1.416,0.832 -1.417,0.831 c -0.026,0.015 -0.043,0.04 -0.05,0.067 -0.007,0.027 -0.004,0.057 0.012,0.084 l 0.937,1.591 0.938,1.591 c 0.027,0.047 0.016,0.096 -0.013,0.13 -0.03,0.032 -0.079,0.048 -0.128,0.026 l -1.796,-0.831 -1.796,-0.83 c -0.02,-0.009 -0.042,-0.012 -0.062,-0.009 -0.021,0.003 -0.041,0.013 -0.058,0.027 l -1.235,1.12 -1.235,1.119 c -0.036,0.032 -0.083,0.035 -0.12,0.018 -0.037,-0.017 -0.065,-0.053 -0.064,-0.102 l 0.042,-2.82 c 10e-4,-0.032 -0.012,-0.061 -0.034,-0.082 -0.021,-0.02 -0.051,-0.031 -0.083,-0.029 l -1.928,0.141 -1.927,0.14 c -0.059,0.005 -0.1,-0.033 -0.114,-0.078 -0.013,-0.046 0.001,-0.1 0.054,-0.128 l 3.468,-1.864 c 0.029,-0.015 0.048,-0.042 0.055,-0.071 0.007,-0.03 0.002,-0.062 -0.017,-0.089 l -1.046,-1.489 -1.045,-1.489 c -0.031,-0.044 -0.025,-0.095 0.002,-0.13 0.027,-0.035 0.074,-0.055 0.125,-0.037 l 1.739,0.631 1.74,0.631 c 0.032,0.011 0.065,0.007 0.092,-0.008 0.027,-0.015 0.047,-0.042 0.053,-0.075 l 0.414,-2.257 0.413,-2.257 c 0.01,-0.056 0.055,-0.087 0.101,-0.09 0.047,-0.002 0.095,0.023 0.112,0.078 l 0.765,2.515 0.766,2.515 c 0.007,0.021 0.019,0.039 0.035,0.053 0.017,0.013 0.037,0.022 0.058,0.024 l 1.81,0.199 1.809,0.198 c 0.053,0.006 0.086,0.043 0.096,0.086 0.009,0.043 -0.007,0.091 -0.052,0.118 M 9.821,5.645 c 0.746,0 1.421,0.302 1.91,0.79 0.489,0.489 0.792,1.163 0.792,1.908 0,0.747 -0.303,1.423 -0.792,1.912 -0.489,0.489 -1.164,0.792 -1.91,0.792 -0.747,0 -1.424,-0.303 -1.914,-0.792 C 7.417,9.766 7.115,9.09 7.115,8.343 7.115,7.598 7.417,6.924 7.907,6.435 8.397,5.947 9.074,5.645 9.821,5.645 M 43.3,50.869 c 0.745,0 1.421,0.302 1.91,0.791 0.489,0.49 0.791,1.165 0.791,1.913 0,0.744 -0.302,1.419 -0.791,1.907 -0.489,0.489 -1.165,0.791 -1.91,0.791 -0.748,0 -1.425,-0.302 -1.914,-0.791 -0.49,-0.488 -0.793,-1.163 -0.793,-1.907 0,-0.748 0.303,-1.423 0.793,-1.913 0.489,-0.489 1.166,-0.791 1.914,-0.791 M -24.921,36.86 c 0.745,0 1.42,0.303 1.909,0.791 0.489,0.49 0.792,1.166 0.792,1.913 0,0.747 -0.303,1.423 -0.792,1.912 -0.489,0.489 -1.164,0.792 -1.909,0.792 -0.748,0 -1.425,-0.303 -1.915,-0.792 -0.49,-0.489 -0.792,-1.165 -0.792,-1.912 0,-0.747 0.302,-1.423 0.792,-1.913 0.49,-0.488 1.167,-0.791 1.915,-0.791 M 5.156,31.952 c 0.742,0 1.414,0.302 1.9,0.788 0.485,0.486 0.785,1.158 0.785,1.9 0,0.739 -0.3,1.41 -0.785,1.896 -0.486,0.486 -1.158,0.786 -1.9,0.786 -0.743,0 -1.414,-0.3 -1.9,-0.786 C 2.771,36.05 2.47,35.379 2.47,34.64 c 0,-0.742 0.301,-1.414 0.786,-1.9 0.486,-0.486 1.157,-0.788 1.9,-0.788 m 1.049,10.757 c 0.584,0 1.113,0.236 1.496,0.619 0.382,0.383 0.619,0.913 0.619,1.499 0,0.583 -0.237,1.111 -0.619,1.493 -0.383,0.383 -0.912,0.619 -1.496,0.619 -0.584,0 -1.113,-0.236 -1.495,-0.619 -0.383,-0.382 -0.62,-0.91 -0.62,-1.493 0,-0.586 0.237,-1.116 0.62,-1.499 0.382,-0.383 0.911,-0.619 1.495,-0.619 M -9.664,9.867 l 0.93,3.134 c 0.009,0.03 0.029,0.054 0.055,0.068 0.026,0.014 0.057,0.019 0.087,0.009 l 1.763,-0.525 1.762,-0.525 c 0.054,-0.016 0.102,0.008 0.128,0.046 0.026,0.038 0.03,0.092 -0.005,0.136 l -1.234,1.534 -1.233,1.533 c -0.014,0.018 -0.023,0.04 -0.025,0.062 -0.001,0.021 0.002,0.044 0.014,0.064 l 1.576,2.926 c 0.024,0.044 0.016,0.092 -0.01,0.125 -0.027,0.034 -0.071,0.053 -0.12,0.04 l -1.359,-0.359 -1.358,-0.358 c -0.033,-0.009 -0.066,-0.002 -0.092,0.014 -0.026,0.017 -0.045,0.044 -0.051,0.077 l -0.323,1.888 -0.324,1.889 c -0.01,0.061 -0.059,0.093 -0.108,0.095 -0.05,0.002 -0.1,-0.026 -0.116,-0.086 l -0.97,-3.784 c -0.009,-0.033 -0.031,-0.059 -0.058,-0.073 -0.029,-0.015 -0.062,-0.018 -0.095,-0.006 l -1.688,0.653 -1.689,0.653 c -0.052,0.021 -0.102,10e-4 -0.131,-0.035 -0.029,-0.036 -0.037,-0.089 -0.006,-0.136 l 1.024,-1.526 1.023,-1.526 c 0.02,-0.03 0.024,-0.064 0.015,-0.096 -0.009,-0.031 -0.031,-0.058 -0.063,-0.072 l -2.079,-0.937 -2.08,-0.937 c -0.055,-0.024 -0.075,-0.077 -0.065,-0.125 0.008,-0.048 0.046,-0.091 0.106,-0.094 l 2.613,-0.136 2.614,-0.136 c 0.022,-0.002 0.044,-0.009 0.062,-0.023 0.017,-0.013 0.031,-0.031 0.039,-0.052 L -9.881,9.86 c 0.019,-0.051 0.066,-0.076 0.111,-0.075 0.046,0.002 0.091,0.03 0.106,0.082 m 1.441,68.395 c 0.178,0.374 0.82,-0.396 1.942,-0.986 1.122,-0.59 2.724,-1 4.823,0.094 2.316,1.207 2.884,0.763 3.424,0.388 C 2.505,77.382 3.017,77.074 5.22,78.553 5.742,78.9 6.896,78.702 7.879,78.257 8.862,77.812 9.673,77.12 9.509,76.478 9.399,76.05 9.076,75.92 8.675,75.918 8.274,75.915 7.795,76.04 7.373,76.123 6.843,76.228 5.771,75.925 4.602,75.573 3.432,75.221 2.167,74.819 1.249,74.725 0.11,74.61 -2.615,74.741 -4.877,75.278 c -2.263,0.537 -4.061,1.479 -3.346,2.984 m 44.582,-57.883 0.718,2.767 0.717,2.768 c 0.002,0.007 0.006,0.013 0.011,0.019 0.005,0.006 0.011,0.01 0.018,0.012 l 2.35,0.853 2.351,0.853 c 0.02,0.008 0.03,0.026 0.03,0.044 0,0.018 -0.01,0.036 -0.03,0.043 l -2.351,0.853 -2.35,0.853 c -0.007,0.003 -0.013,0.007 -0.018,0.013 -0.005,0.005 -0.009,0.012 -0.011,0.019 l -0.717,2.767 -0.718,2.767 c -0.005,0.024 -0.025,0.035 -0.044,0.035 -0.02,0 -0.039,-0.011 -0.045,-0.035 l -1.44,-5.534 c -0.002,-0.007 -0.005,-0.014 -0.01,-0.019 -0.005,-0.006 -0.011,-0.01 -0.019,-0.013 l -2.347,-0.853 -2.348,-0.853 c -0.021,-0.007 -0.031,-0.025 -0.031,-0.043 0,-0.018 0.01,-0.036 0.031,-0.044 l 2.348,-0.853 2.347,-0.853 c 0.008,-0.002 0.014,-0.006 0.019,-0.012 0.005,-0.006 0.008,-0.012 0.01,-0.019 l 0.72,-2.768 0.72,-2.767 c 0.006,-0.023 0.025,-0.035 0.045,-0.035 0.019,0 0.039,0.012 0.044,0.035 m -19.981,6.72 0.592,2.276 0.593,2.275 c 0.006,0.022 0.017,0.043 0.032,0.059 0.015,0.017 0.034,0.029 0.056,0.037 l 3.922,1.424 c 0.061,0.022 0.092,0.077 0.092,0.132 0,0.055 -0.031,0.109 -0.092,0.132 l -3.922,1.428 c -0.022,0.008 -0.041,0.021 -0.056,0.038 -0.015,0.016 -0.026,0.036 -0.032,0.059 l -0.593,2.275 -0.592,2.275 c -0.019,0.07 -0.077,0.105 -0.136,0.105 -0.059,0 -0.117,-0.035 -0.136,-0.105 l -1.18,-4.55 C 14.92,34.936 14.909,34.916 14.894,34.9 14.878,34.883 14.859,34.87 14.838,34.862 l -3.922,-1.428 c -0.062,-0.023 -0.092,-0.077 -0.092,-0.132 0,-0.055 0.03,-0.11 0.092,-0.132 l 3.922,-1.424 c 0.021,-0.008 0.04,-0.02 0.056,-0.037 0.015,-0.016 0.026,-0.037 0.032,-0.059 l 0.59,-2.275 0.59,-2.276 c 0.019,-0.07 0.077,-0.105 0.136,-0.105 0.059,0 0.117,0.035 0.136,0.105 m -29.966,14.615 c 0.665,0 1.266,0.269 1.701,0.703 0.435,0.434 0.704,1.033 0.704,1.695 0,0.664 -0.269,1.265 -0.704,1.699 -0.435,0.435 -1.036,0.704 -1.701,0.704 -0.662,0 -1.262,-0.269 -1.697,-0.704 -0.434,-0.434 -0.703,-1.035 -0.703,-1.699 0,-0.662 0.269,-1.261 0.703,-1.695 0.435,-0.434 1.035,-0.703 1.697,-0.703 M -3.121,3.365 c 0.748,0 1.425,0.303 1.914,0.792 0.49,0.489 0.793,1.165 0.793,1.912 0,0.745 -0.303,1.419 -0.793,1.908 -0.489,0.488 -1.166,0.791 -1.914,0.791 -0.745,0 -1.422,-0.303 -1.913,-0.791 -0.49,-0.489 -0.794,-1.163 -0.794,-1.908 0,-0.747 0.304,-1.423 0.794,-1.912 0.491,-0.489 1.168,-0.792 1.913,-0.792 M -9.407,24.76 c -0.22,-0.352 -0.573,-0.23 -1.049,-0.122 -0.476,0.108 -1.076,0.202 -1.792,-0.206 -0.189,-0.108 -0.284,-0.308 -0.338,-0.535 -0.055,-0.228 -0.068,-0.484 -0.093,-0.702 -0.008,-0.077 0.134,-0.164 0.262,-0.243 0.127,-0.079 0.242,-0.152 0.18,-0.202 -0.229,-0.194 -0.357,-0.226 -0.445,-0.248 -0.088,-0.023 -0.136,-0.035 -0.207,-0.188 -0.021,-0.051 0.011,-0.142 0.035,-0.252 0.023,-0.11 0.038,-0.237 -0.019,-0.361 -0.242,-0.524 -0.595,-0.607 -1.01,-0.619 -0.414,-0.011 -0.889,0.049 -1.373,-0.187 -0.041,-0.285 -0.175,-0.494 -0.351,-0.583 -0.177,-0.088 -0.395,-0.054 -0.602,0.148 -0.226,0.223 -0.206,0.455 -0.067,0.615 0.138,0.16 0.395,0.247 0.643,0.18 -0.108,0.172 -0.222,0.489 -0.226,0.844 -0.004,0.355 0.102,0.747 0.436,1.07 -0.014,0.285 -0.042,0.523 -0.08,0.649 -0.039,0.126 -0.087,0.141 -0.141,-0.021 -0.234,-0.722 -0.604,-1.204 -1.069,-1.549 -0.466,-0.345 -1.027,-0.555 -1.643,-0.735 -0.31,-0.091 -0.318,-0.399 -0.3,-0.746 0.017,-0.346 0.06,-0.732 -0.147,-0.979 -0.253,-0.307 -0.479,-0.166 -0.746,0.075 -0.267,0.24 -0.575,0.58 -0.992,0.672 -0.452,0.094 -0.857,0.122 -1.112,0.226 -0.255,0.104 -0.36,0.285 -0.212,0.682 0.105,0.282 0.669,0.3 1.149,0.333 0.48,0.034 0.877,0.084 0.649,0.431 -0.525,0.795 -0.485,1.342 -0.433,1.685 0.05,0.344 0.112,0.484 -0.369,0.465 -0.931,-0.035 -1.667,0.266 -2.187,0.709 -0.519,0.444 -0.821,1.03 -0.886,1.564 -0.143,1.17 0.312,1.816 0.921,2.087 0.61,0.271 1.374,0.166 1.85,-0.168 0.372,-0.26 0.44,-0.816 0.269,-1.208 -0.172,-0.392 -0.583,-0.619 -1.173,-0.221 -0.092,0.059 -0.175,0.161 -0.241,0.23 -0.067,0.068 -0.117,0.103 -0.141,0.028 -0.15,-0.5 0.195,-0.962 0.664,-1.181 0.468,-0.218 1.058,-0.192 1.397,0.283 0.735,1.043 0.19,2.036 -0.069,2.964 -0.259,0.929 -0.232,1.793 1.646,2.578 0.63,0.261 0.93,0.48 1.013,0.665 0.083,0.185 -0.049,0.335 -0.286,0.459 -0.482,0.253 -1.288,0.332 -1.982,0.456 -0.695,0.124 -1.277,0.294 -1.312,0.726 -0.027,0.318 1.342,0.427 3.206,0.342 1.865,-0.085 4.226,-0.363 6.185,-0.82 0.726,-0.17 2.033,-0.399 3.403,-0.813 1.37,-0.414 2.804,-1.012 3.786,-1.918 0.194,-0.177 0.365,-0.356 0.516,-0.535 0.15,-0.179 0.281,-0.357 0.394,-0.535 0.011,0.051 0.028,0.1 0.053,0.145 0.025,0.046 0.057,0.089 0.098,0.129 0.242,0.245 0.48,0.021 0.7,-0.325 0.22,-0.345 0.422,-0.811 0.591,-1.051 0.186,-0.26 0.431,-0.685 0.65,-0.967 0.22,-0.283 0.413,-0.422 0.496,-0.113 0.205,0.768 0.124,0.904 -0.029,0.937 -0.153,0.033 -0.379,-0.037 -0.466,0.321 -0.045,0.193 -0.002,0.297 0.052,0.406 0.055,0.11 0.121,0.225 0.121,0.443 0,0.293 -0.056,0.59 -0.039,0.77 0.017,0.18 0.106,0.243 0.394,0.069 0.831,-0.503 0.753,-1.359 0.82,-2.261 0.068,-0.901 0.28,-1.849 1.693,-2.534 0.49,-0.24 1.05,-0.246 1.627,-0.203 0.578,0.043 1.174,0.135 1.737,0.095 C 4.857,25.894 5.441,25.6 6.019,25.379 6.597,25.158 7.168,25.01 7.4,25.287 7.618,25.553 7.276,25.666 6.872,25.901 6.467,26.136 6,26.493 5.968,27.249 5.955,27.52 6.422,27.175 6.903,26.829 7.384,26.483 7.879,26.136 7.922,26.405 7.941,26.534 7.77,26.652 7.595,26.808 7.42,26.964 7.241,27.157 7.244,27.437 c 0,0.065 -0.013,0.168 -0.01,0.25 0.003,0.082 0.02,0.142 0.08,0.121 0.487,-0.178 1.141,-0.702 1.697,-1.326 0.556,-0.625 1.015,-1.351 1.112,-1.932 0.054,-0.081 0.298,-0.521 0.551,-0.859 0.253,-0.338 0.514,-0.573 0.6,-0.243 0.208,0.771 0.128,0.907 -0.024,0.94 -0.153,0.033 -0.379,-0.037 -0.465,0.324 -0.049,0.19 -0.006,0.294 0.049,0.404 0.054,0.11 0.12,0.227 0.118,0.445 0,0.293 -0.056,0.59 -0.038,0.77 0.018,0.18 0.107,0.243 0.398,0.069 0.832,-0.503 0.752,-1.359 0.819,-2.262 0.066,-0.902 0.279,-1.851 1.694,-2.539 0.488,-0.237 1.046,-0.242 1.624,-0.198 0.577,0.043 1.175,0.136 1.74,0.096 0.255,-0.019 0.839,-0.315 1.416,-0.535 0.578,-0.222 1.148,-0.368 1.377,-0.089 0.221,0.266 -0.12,0.378 -0.524,0.612 -0.404,0.234 -0.873,0.59 -0.908,1.345 -0.01,0.272 0.458,-0.074 0.939,-0.42 0.481,-0.346 0.974,-0.693 1.015,-0.424 0.018,0.129 -0.152,0.248 -0.327,0.406 -0.175,0.157 -0.354,0.352 -0.351,0.632 0,0.062 -0.011,0.165 -0.007,0.248 0.004,0.082 0.023,0.144 0.082,0.123 0.471,-0.173 1.102,-0.673 1.647,-1.275 0.546,-0.602 1.006,-1.306 1.136,-1.886 0.08,-0.145 0.364,-0.655 0.65,-1.044 0.287,-0.389 0.576,-0.658 0.668,-0.322 0.205,0.769 0.123,0.905 -0.03,0.938 -0.153,0.033 -0.379,-0.037 -0.465,0.32 -0.049,0.193 -0.006,0.298 0.05,0.409 0.055,0.11 0.122,0.225 0.122,0.441 -0.003,0.293 -0.059,0.59 -0.042,0.77 0.016,0.179 0.107,0.243 0.397,0.068 0.832,-0.502 0.754,-1.357 0.821,-2.258 0.067,-0.902 0.28,-1.849 1.692,-2.537 0.49,-0.237 1.05,-0.242 1.628,-0.199 0.577,0.043 1.174,0.135 1.736,0.092 0.256,-0.016 0.839,-0.311 1.417,-0.532 0.577,-0.221 1.147,-0.369 1.376,-0.092 0.22,0.266 -0.12,0.379 -0.524,0.614 -0.405,0.235 -0.873,0.593 -0.908,1.348 -0.01,0.272 0.458,-0.074 0.939,-0.42 0.481,-0.346 0.975,-0.693 1.015,-0.424 0.019,0.129 -0.151,0.247 -0.325,0.403 -0.174,0.156 -0.353,0.35 -0.353,0.629 0.002,0.065 -0.008,0.168 -0.005,0.25 0.003,0.082 0.021,0.143 0.08,0.121 0.53,-0.193 1.261,-0.8 1.846,-1.5 0.585,-0.7 1.025,-1.494 0.974,-2.064 -0.035,-0.365 -0.382,-0.395 -0.779,-0.403 -0.398,-0.008 -0.846,0.005 -1.083,-0.274 -0.261,-0.307 -0.342,-0.644 -0.383,-1.001 -0.041,-0.358 -0.042,-0.735 -0.144,-1.123 -0.065,-0.247 -0.306,-0.557 -0.533,-0.854 -0.226,-0.297 -0.439,-0.581 -0.447,-0.774 -0.003,-0.108 0.209,-0.171 0.445,-0.269 0.236,-0.097 0.497,-0.229 0.594,-0.473 0.059,-0.151 0.158,-0.153 0.226,-0.18 C 33.406,9.867 33.441,9.816 33.371,9.568 33.333,9.423 33.243,9.356 33.125,9.314 33.006,9.272 32.86,9.254 32.709,9.209 32.333,9.095 31.91,9.077 31.528,9.009 31.146,8.941 30.804,8.824 30.589,8.515 30.414,8.26 30.685,7.982 30.955,7.703 31.225,7.425 31.496,7.147 31.321,6.892 31.162,6.663 31.027,6.819 30.879,6.957 30.731,7.094 30.57,7.214 30.357,6.913 30.153,6.62 30.282,6.194 30.461,5.728 30.64,5.261 30.869,4.755 30.863,4.3 30.861,4.129 30.721,3.943 30.548,3.88 30.376,3.817 30.172,3.876 30.04,4.193 29.946,4.414 29.905,4.779 29.809,5.01 29.713,5.241 29.561,5.338 29.244,5.021 28.996,4.774 28.763,4.405 28.575,4.182 28.386,3.959 28.243,3.881 28.172,4.214 28.06,4.731 28.318,5.172 28.566,5.558 28.814,5.945 29.052,6.279 28.899,6.58 28.724,6.926 28.466,6.599 28.18,6.137 27.894,5.675 27.581,5.08 27.295,4.892 26.911,4.634 26.857,5.14 27.071,5.811 c 0.215,0.671 0.698,1.505 1.387,1.903 0.277,0.159 0.473,0.286 0.595,0.454 0.122,0.167 0.169,0.374 0.147,0.691 -0.011,0.188 -0.287,0.27 -0.538,0.345 -0.251,0.075 -0.476,0.144 -0.382,0.305 0.135,0.24 0.459,0.244 0.783,0.247 0.324,0.003 0.648,0.006 0.783,0.243 0.207,0.365 0.256,0.653 0.267,0.939 0.011,0.286 -0.016,0.571 0.04,0.931 0.051,0.331 0.021,0.588 -0.065,0.786 -0.086,0.198 -0.228,0.338 -0.403,0.434 -0.043,0.025 -0.311,-0.085 -0.694,-0.199 -0.384,-0.114 -0.883,-0.231 -1.389,-0.22 -0.517,0.011 -0.999,0.093 -1.373,0.167 -0.375,0.074 -0.64,0.14 -0.72,0.118 -0.137,-0.035 -0.257,-0.241 -0.378,-0.435 -0.12,-0.194 -0.241,-0.374 -0.381,-0.355 -0.361,0.051 -0.435,0.397 -0.417,0.812 0.019,0.415 0.129,0.9 0.137,1.231 0.003,0.201 -0.056,0.313 -0.114,0.455 -0.057,0.143 -0.112,0.316 -0.101,0.641 0.011,0.333 0.07,0.55 0.098,0.717 0.027,0.166 0.023,0.283 -0.093,0.418 -0.309,0.349 -0.522,0.423 -0.707,0.548 -0.185,0.125 -0.342,0.301 -0.541,0.854 -0.059,0.17 -0.101,0.306 -0.156,0.437 -0.054,0.132 -0.122,0.26 -0.232,0.413 -0.089,0.124 -0.222,0.24 -0.357,0.359 -0.135,0.119 -0.272,0.24 -0.37,0.372 -0.193,-0.003 -0.396,-0.004 -0.58,-0.039 -0.184,-0.034 -0.348,-0.101 -0.463,-0.235 -0.259,-0.307 -0.339,-0.643 -0.38,-0.999 -0.041,-0.357 -0.043,-0.735 -0.142,-1.124 -0.065,-0.248 -0.306,-0.557 -0.532,-0.853 -0.227,-0.296 -0.44,-0.58 -0.448,-0.776 -0.005,-0.108 0.206,-0.171 0.443,-0.268 0.237,-0.097 0.499,-0.227 0.596,-0.469 0.059,-0.153 0.157,-0.157 0.224,-0.185 0.067,-0.027 0.101,-0.078 0.034,-0.325 -0.038,-0.143 -0.129,-0.21 -0.248,-0.252 -0.119,-0.043 -0.266,-0.06 -0.414,-0.103 -0.377,-0.116 -0.799,-0.136 -1.181,-0.205 -0.382,-0.068 -0.724,-0.185 -0.939,-0.494 -0.178,-0.253 0.091,-0.531 0.361,-0.809 0.27,-0.278 0.541,-0.556 0.365,-0.809 -0.156,-0.231 -0.29,-0.076 -0.438,0.061 -0.148,0.138 -0.31,0.259 -0.519,-0.04 -0.205,-0.293 -0.076,-0.72 0.102,-1.187 0.179,-0.467 0.406,-0.973 0.398,-1.425 0,-0.175 -0.138,-0.361 -0.311,-0.425 -0.172,-0.064 -0.378,-0.005 -0.513,0.312 -0.091,0.22 -0.13,0.587 -0.226,0.82 -0.095,0.232 -0.247,0.33 -0.565,0.013 C 16.274,9.359 16.041,8.989 15.852,8.766 15.663,8.542 15.518,8.464 15.445,8.8 c -0.11,0.513 0.148,0.953 0.396,1.34 0.249,0.387 0.487,0.721 0.336,1.025 -0.175,0.347 -0.433,0.019 -0.719,-0.443 -0.286,-0.463 -0.599,-1.059 -0.885,-1.25 -0.385,-0.258 -0.44,0.248 -0.226,0.919 0.215,0.671 0.697,1.505 1.389,1.903 0.277,0.161 0.472,0.289 0.593,0.456 0.121,0.168 0.169,0.375 0.15,0.694 -0.014,0.188 -0.291,0.269 -0.542,0.344 -0.251,0.074 -0.476,0.143 -0.384,0.307 0.135,0.236 0.46,0.239 0.785,0.243 0.326,0.003 0.652,0.007 0.786,0.246 0.208,0.363 0.256,0.649 0.267,0.935 0.01,0.285 -0.016,0.57 0.04,0.93 0.048,0.333 0.019,0.592 -0.067,0.79 -0.085,0.198 -0.226,0.336 -0.401,0.431 -0.043,0.023 -0.311,-0.085 -0.695,-0.198 -0.384,-0.113 -0.885,-0.23 -1.393,-0.222 -0.514,0.011 -0.996,0.093 -1.369,0.167 -0.374,0.074 -0.638,0.14 -0.719,0.118 -0.14,-0.035 -0.26,-0.242 -0.38,-0.435 -0.119,-0.193 -0.239,-0.371 -0.379,-0.35 -0.361,0.048 -0.435,0.393 -0.417,0.807 0.017,0.415 0.126,0.9 0.132,1.231 0.005,0.204 -0.053,0.316 -0.109,0.458 -0.057,0.142 -0.112,0.316 -0.101,0.644 0.01,0.33 0.07,0.547 0.097,0.713 0.027,0.167 0.021,0.284 -0.097,0.416 -0.307,0.349 -0.519,0.423 -0.704,0.548 -0.185,0.125 -0.343,0.301 -0.539,0.855 -0.06,0.169 -0.101,0.305 -0.156,0.436 -0.054,0.132 -0.121,0.26 -0.232,0.413 -0.069,0.097 -0.167,0.191 -0.27,0.285 C 9.528,23.65 9.418,23.744 9.321,23.84 9.127,23.835 8.923,23.834 8.738,23.8 8.553,23.767 8.387,23.701 8.271,23.567 8.011,23.26 7.93,22.923 7.89,22.565 7.849,22.208 7.849,21.83 7.75,21.443 7.685,21.193 7.443,20.883 7.215,20.587 6.988,20.29 6.775,20.008 6.77,19.815 6.765,19.707 6.976,19.644 7.213,19.546 7.45,19.449 7.712,19.317 7.809,19.072 7.868,18.92 7.966,18.917 8.033,18.89 8.1,18.863 8.134,18.812 8.067,18.562 8.027,18.42 7.936,18.354 7.817,18.312 7.699,18.27 7.553,18.253 7.405,18.207 7.028,18.091 6.604,18.073 6.222,18.005 5.839,17.938 5.498,17.823 5.285,17.514 5.107,17.258 5.376,16.98 5.646,16.702 5.916,16.424 6.187,16.146 6.011,15.89 5.853,15.662 5.718,15.818 5.571,15.955 5.423,16.093 5.263,16.213 5.054,15.912 4.849,15.619 4.978,15.192 5.156,14.724 5.334,14.257 5.562,13.751 5.554,13.299 5.551,13.125 5.413,12.938 5.241,12.875 5.07,12.811 4.865,12.872 4.73,13.192 4.636,13.409 4.597,13.775 4.502,14.007 4.406,14.238 4.254,14.337 3.934,14.02 3.689,13.772 3.458,13.404 3.27,13.181 3.081,12.958 2.936,12.88 2.863,13.213 c -0.11,0.516 0.148,0.957 0.396,1.344 0.247,0.387 0.484,0.72 0.331,1.021 -0.175,0.347 -0.433,0.019 -0.719,-0.443 -0.286,-0.463 -0.6,-1.059 -0.885,-1.25 -0.385,-0.255 -0.439,0.253 -0.224,0.924 0.215,0.671 0.697,1.506 1.386,1.904 0.278,0.158 0.474,0.286 0.597,0.453 0.122,0.168 0.171,0.375 0.151,0.692 -0.013,0.188 -0.29,0.269 -0.541,0.343 -0.251,0.075 -0.476,0.143 -0.384,0.307 0.134,0.239 0.459,0.244 0.783,0.247 0.324,0.003 0.648,0.006 0.783,0.242 0.207,0.366 0.257,0.654 0.268,0.94 0.012,0.286 -0.015,0.571 0.039,0.931 0.051,0.33 0.021,0.587 -0.064,0.785 C 4.694,21.852 4.553,21.991 4.381,22.088 4.338,22.109 4.069,22 3.684,21.887 3.299,21.774 2.799,21.658 2.293,21.669 1.776,21.68 1.294,21.76 0.921,21.834 c -0.373,0.073 -0.638,0.139 -0.722,0.12 -0.137,-0.035 -0.255,-0.242 -0.375,-0.436 -0.12,-0.193 -0.241,-0.373 -0.384,-0.354 -0.357,0.05 -0.431,0.396 -0.414,0.811 0.017,0.414 0.127,0.898 0.135,1.226 0.005,0.204 -0.054,0.317 -0.112,0.46 -0.058,0.143 -0.114,0.317 -0.104,0.642 0.014,0.333 0.073,0.55 0.1,0.716 0.027,0.167 0.021,0.284 -0.094,0.418 -0.307,0.35 -0.519,0.423 -0.704,0.548 -0.185,0.125 -0.343,0.301 -0.539,0.855 -0.06,0.167 -0.103,0.303 -0.158,0.435 -0.055,0.132 -0.122,0.261 -0.23,0.415 -0.078,0.107 -0.191,0.211 -0.309,0.315 -0.118,0.104 -0.242,0.209 -0.342,0.319 0.035,-1.124 -0.599,-2.049 -1.413,-2.465 -0.815,-0.415 -1.811,-0.32 -2.499,0.6 -0.431,0.575 -0.272,1.206 0.092,1.571 0.364,0.365 0.933,0.463 1.323,-0.029 0.092,-0.113 0.116,-0.256 0.076,-0.377 -0.04,-0.12 -0.143,-0.217 -0.308,-0.236 -0.15,-0.016 -0.273,0.115 -0.364,0.216 -0.092,0.102 -0.152,0.174 -0.179,0.043 -0.084,-0.374 0.162,-0.682 0.488,-0.777 0.327,-0.095 0.737,0.021 0.981,0.497 0.151,0.296 0.183,0.641 0.059,1.02 -0.123,0.379 -0.403,0.791 -0.877,1.222 -0.487,0.446 -1.061,0.837 -1.681,1.146 -0.621,0.311 -1.286,0.539 -1.957,0.66 -0.202,0.037 -0.277,-0.246 -0.238,-0.565 0.039,-0.32 0.193,-0.674 0.448,-0.779 0.773,-0.323 1.318,-0.565 1.535,-0.898 0.216,-0.333 0.101,-0.758 -0.447,-1.446 -0.229,-0.287 -0.162,-0.478 -0.094,-0.686 0.069,-0.209 0.139,-0.434 -0.084,-0.792 l -0.468,-0.744 z m 21.639,-44.838 c -0.322,-0.322 -0.707,-0.583 -1.134,-0.763 -0.428,-0.18 -0.897,-0.279 -1.39,-0.279 -0.492,0 -0.961,0.099 -1.389,0.279 -0.427,0.18 -0.812,0.441 -1.134,0.763 -0.323,0.323 -0.584,0.708 -0.765,1.134 -0.18,0.427 -0.279,0.896 -0.279,1.387 0,0.493 0.099,0.961 0.279,1.388 0.181,0.427 0.442,0.811 0.765,1.134 0.322,0.322 0.707,0.583 1.134,0.763 0.428,0.18 0.897,0.279 1.389,0.279 0.493,0 0.962,-0.099 1.39,-0.279 0.427,-0.18 0.812,-0.441 1.134,-0.763 0.323,-0.323 0.584,-0.707 0.765,-1.134 0.18,-0.427 0.279,-0.895 0.279,-1.388 0,-0.491 -0.099,-0.96 -0.279,-1.387 -0.181,-0.426 -0.442,-0.811 -0.765,-1.134 m 5.618,12.747 c 0.011,0.013 0.022,0.021 0.034,0.026 0.012,0.006 0.026,0.009 0.043,0.012 5,0.86 9.738,2.49 14.084,4.764 4.346,2.274 8.301,5.191 11.736,8.625 4.356,4.349 7.881,9.53 10.317,15.283 2.436,5.753 3.782,12.079 3.782,18.717 0,6.639 -1.346,12.963 -3.782,18.716 -2.436,5.752 -5.961,10.933 -10.317,15.284 -4.354,4.352 -9.54,7.873 -15.3,10.306 -5.76,2.433 -12.093,3.778 -18.739,3.778 -6.645,0 -12.977,-1.345 -18.736,-3.778 -5.759,-2.433 -10.945,-5.954 -15.302,-10.306 -4.356,-4.351 -7.881,-9.532 -10.316,-15.284 -2.437,-5.753 -3.783,-12.077 -3.783,-18.716 0,-6.638 1.346,-12.964 3.783,-18.717 2.435,-5.753 5.96,-10.934 10.316,-15.283 3.43,-3.425 7.373,-6.337 11.706,-8.609 4.333,-2.271 9.055,-3.902 14.041,-4.767 0.029,-0.006 0.058,-0.008 0.083,-0.014 0.026,-0.007 0.05,-0.018 0.069,-0.041 0.012,-0.014 0.018,-0.044 0.021,-0.071 0.003,-0.026 0.003,-0.05 0.003,-0.05 v -4.59 c 0,-0.362 0.157,-0.699 0.426,-0.981 0.269,-0.281 0.65,-0.507 1.098,-0.647 0.077,-0.024 0.135,-0.08 0.164,-0.147 0.029,-0.067 0.029,-0.146 -0.01,-0.217 -0.287,-0.522 -0.511,-1.083 -0.664,-1.672 -0.152,-0.59 -0.233,-1.209 -0.233,-1.847 0,-1.01 0.204,-1.974 0.575,-2.851 0.37,-0.876 0.907,-1.667 1.572,-2.33 0.665,-0.661 1.454,-1.198 2.331,-1.569 0.877,-0.371 1.842,-0.576 2.856,-0.576 1.012,0 1.977,0.205 2.854,0.576 0.877,0.371 1.667,0.908 2.329,1.569 0.665,0.663 1.203,1.454 1.575,2.33 0.372,0.877 0.577,1.841 0.577,2.851 0,0.634 -0.08,1.249 -0.231,1.834 -0.151,0.586 -0.374,1.144 -0.658,1.663 -0.042,0.077 -0.042,0.162 -0.011,0.234 0.03,0.073 0.092,0.133 0.176,0.159 0.443,0.142 0.82,0.367 1.085,0.648 0.265,0.279 0.42,0.614 0.42,0.973 v 4.59 c 0,0 10e-4,0.024 0.004,0.052 0.004,0.028 0.01,0.059 0.022,0.073"
         style="fill:none;stroke:#ff0000;stroke-width:0.38px"
         id="path194" />
    </g>
  </g>
</svg>
