<?xml version="1.0" encoding="UTF-8" standalone="no"?>
<!-- Created with Inkscape (http://www.inkscape.org/) -->

<svg
   width="64.214104mm"
   height="80.040504mm"
   viewBox="0 0 64.214104 80.040505"
   version="1.1"
   id="svg327"
   inkscape:version="1.1.1 (c3084ef, 2021-09-22)"
   sodipodi:docname="10.svg"
   xmlns:inkscape="http://www.inkscape.org/namespaces/inkscape"
   xmlns:sodipodi="http://sodipodi.sourceforge.net/DTD/sodipodi-0.dtd"
   xmlns="http://www.w3.org/2000/svg"
   xmlns:svg="http://www.w3.org/2000/svg">
  <sodipodi:namedview
     id="namedview329"
     pagecolor="#ffffff"
     bordercolor="#666666"
     borderopacity="1.0"
     inkscape:pageshadow="2"
     inkscape:pageopacity="0.0"
     inkscape:pagecheckerboard="0"
     inkscape:document-units="mm"
     showgrid="false"
     fit-margin-top="0"
     fit-margin-left="0"
     fit-margin-right="0"
     fit-margin-bottom="0"
     inkscape:zoom="0.64052329"
     inkscape:cx="-99.137691"
     inkscape:cy="163.14785"
     inkscape:window-width="1312"
     inkscape:window-height="963"
     inkscape:window-x="603"
     inkscape:window-y="25"
     inkscape:window-maximized="0"
     inkscape:current-layer="layer1" />
  <defs
     id="defs324" />
  <g
     inkscape:label="Layer 1"
     inkscape:groupmode="layer"
     id="layer1"
     transform="translate(-8.0966685,-105.42955)">
    <g
       transform="matrix(0.70555643,0,0,0.70555643,65.498623,125.12805)"
       id="g142"
       style="clip-rule:evenodd;fill-rule:evenodd;stroke-linejoin:round;stroke-miterlimit:2">
      <path
         d="m 0,57.297 c -0.017,0.034 -0.046,0.06 -0.08,0.071 -0.034,0.012 -0.073,0.011 -0.108,-0.005 -0.552,-0.253 -1.109,-0.457 -1.662,-0.612 -0.553,-0.155 -1.102,-0.262 -1.637,-0.318 -0.024,-0.003 -0.038,-0.01 -0.04,-0.016 -0.002,-0.007 0.007,-0.014 0.029,-0.016 0.182,-0.021 0.381,-0.031 0.58,-0.028 0.199,0.003 0.397,0.019 0.577,0.045 0.375,0.062 0.716,-0.014 0.978,-0.197 0.261,-0.183 0.444,-0.476 0.502,-0.851 0.06,-0.378 -0.039,-0.744 -0.248,-1.032 -0.209,-0.287 -0.528,-0.495 -0.907,-0.557 -0.482,-0.073 -0.99,-0.117 -1.507,-0.127 -0.518,-0.01 -1.045,0.012 -1.565,0.069 -0.015,0.002 -0.023,-0.007 -0.026,-0.018 -0.002,-0.01 0.002,-0.021 0.016,-0.025 0.64,-0.185 1.371,-0.335 2.11,-0.483 0.738,-0.147 1.483,-0.293 2.149,-0.468 0.215,-0.059 0.403,-0.179 0.544,-0.339 0.142,-0.161 0.237,-0.363 0.268,-0.583 0.03,-0.221 -0.008,-0.44 -0.1,-0.632 -0.094,-0.192 -0.243,-0.358 -0.436,-0.471 -0.395,-0.232 -0.696,-0.467 -0.903,-0.703 -0.207,-0.236 -0.321,-0.475 -0.34,-0.715 -0.061,-0.719 0.566,-1.623 1.447,-2.545 0.881,-0.922 2.016,-1.862 2.971,-2.657 0.202,-0.165 0.397,-0.326 0.585,-0.483 0.188,-0.158 0.37,-0.311 0.545,-0.461 0.013,-0.012 0.029,-0.012 0.041,-0.005 0.013,0.007 0.022,0.02 0.021,0.037 -0.191,2.513 -0.619,4.96 -1.262,7.32 C 1.9,52.854 1.045,55.128 0,57.297 m -1.507,2.817 C -1.642,60.015 -1.777,59.919 -1.914,59.827 -2.05,59.736 -2.188,59.65 -2.325,59.568 -2.367,59.543 -2.379,59.506 -2.37,59.48 c 0.009,-0.028 0.039,-0.044 0.084,-0.03 0.155,0.049 0.338,0.078 0.522,0.114 0.184,0.034 0.368,0.074 0.527,0.144 -0.022,0.042 -0.079,0.122 -0.136,0.203 -0.056,0.081 -0.112,0.162 -0.134,0.203 m -7.66,-4.877 c -0.041,-0.008 -0.057,-0.024 -0.051,-0.039 0.005,-0.013 0.031,-0.026 0.074,-0.029 1.942,-0.129 3.582,0.938 4.626,2.327 1.044,1.39 1.494,3.103 1.058,4.267 -0.015,0.038 -0.025,0.058 -0.036,0.059 -0.011,10e-4 -0.022,-0.017 -0.038,-0.058 -0.068,-0.174 -0.237,-0.817 -0.556,-1.61 -0.32,-0.793 -0.79,-1.737 -1.46,-2.514 -0.626,-0.727 -1.415,-1.303 -2.105,-1.709 -0.691,-0.407 -1.282,-0.645 -1.512,-0.694 m 3.104,11.056 c 0.193,-0.31 0.367,-0.625 0.522,-0.941 0.155,-0.316 0.291,-0.634 0.406,-0.95 0.007,-0.019 0.024,-0.03 0.041,-0.03 0.017,-0.001 0.035,0.009 0.043,0.028 0.038,0.087 0.075,0.174 0.112,0.262 0.035,0.087 0.069,0.175 0.102,0.263 -0.191,0.238 -0.385,0.475 -0.582,0.708 -0.197,0.234 -0.396,0.465 -0.599,0.694 -0.011,0.013 -0.027,0.012 -0.038,0.004 -0.011,-0.008 -0.016,-0.023 -0.007,-0.038 m -2.85,1.461 c 0.127,0.106 0.269,0.184 0.417,0.236 0.149,0.052 0.304,0.078 0.455,0.078 0.062,0 0.124,-0.004 0.184,-0.012 0.061,-0.009 0.12,-0.021 0.178,-0.036 0.019,-0.005 0.036,-0.002 0.046,0.005 0.009,0.006 0.011,0.017 0.001,0.028 -1.392,1.397 -2.885,2.691 -4.469,3.872 -1.584,1.18 -3.259,2.245 -5.014,3.184 -0.022,0.012 -0.046,0.007 -0.062,-0.005 -0.017,-0.014 -0.026,-0.036 -0.019,-0.059 0.131,-0.428 0.073,-1.037 -0.061,-1.643 -0.134,-0.605 -0.345,-1.207 -0.521,-1.615 -0.007,-0.016 -0.001,-0.032 0.01,-0.042 0.012,-0.009 0.029,-0.01 0.043,0 0.207,0.15 0.452,0.24 0.704,0.259 0.253,0.021 0.516,-0.028 0.758,-0.157 0.337,-0.179 0.57,-0.479 0.674,-0.817 0.105,-0.338 0.08,-0.716 -0.1,-1.052 -0.194,-0.368 -0.422,-0.713 -0.676,-1.035 -0.255,-0.323 -0.535,-0.623 -0.833,-0.9 -0.018,-0.017 -0.023,-0.04 -0.016,-0.059 0.006,-0.021 0.023,-0.038 0.048,-0.041 0.172,-0.031 0.338,-0.092 0.489,-0.184 0.151,-0.091 0.286,-0.213 0.397,-0.363 0.227,-0.309 0.307,-0.68 0.252,-1.031 -0.055,-0.349 -0.243,-0.679 -0.555,-0.906 -0.528,-0.385 -1.142,-0.74 -1.801,-1.052 -0.66,-0.311 -1.366,-0.578 -2.077,-0.784 -0.018,-0.005 -0.026,-0.021 -0.024,-0.036 10e-4,-0.015 0.012,-0.028 0.032,-0.029 0.275,-0.008 0.548,0.002 0.833,0.032 0.286,0.029 0.584,0.08 0.911,0.154 0.375,0.082 0.676,0.114 0.913,0.032 0.238,-0.081 0.412,-0.272 0.533,-0.633 0.119,-0.365 0.08,-0.742 -0.078,-1.059 -0.159,-0.317 -0.438,-0.574 -0.8,-0.695 -0.35,-0.117 -0.768,-0.215 -1.228,-0.306 -0.46,-0.092 -0.961,-0.176 -1.477,-0.265 -0.042,-0.007 -0.057,-0.04 -0.052,-0.07 0.005,-0.029 0.031,-0.056 0.074,-0.055 0.178,0.009 0.357,0.019 0.537,0.032 0.181,0.012 0.362,0.028 0.545,0.046 0.21,0.019 0.414,-0.008 0.601,-0.076 0.187,-0.066 0.357,-0.172 0.497,-0.31 0.285,0.145 0.592,0.179 0.88,0.111 0.288,-0.067 0.559,-0.235 0.772,-0.492 0.134,-0.167 0.278,-0.35 0.429,-0.532 0.151,-0.183 0.311,-0.364 0.476,-0.527 0.029,-0.029 0.068,-0.028 0.095,-0.012 0.027,0.015 0.041,0.047 0.021,0.077 -0.133,0.201 -0.287,0.395 -0.443,0.583 -0.156,0.187 -0.315,0.368 -0.457,0.544 -0.243,0.295 -0.342,0.66 -0.307,1.013 0.035,0.352 0.205,0.691 0.501,0.934 0.295,0.242 0.661,0.342 1.013,0.307 0.353,-0.035 0.693,-0.205 0.936,-0.5 0.308,-0.375 0.659,-0.868 1.013,-1.42 0.353,-0.553 0.71,-1.164 1.029,-1.777 0.014,-0.024 0.073,-0.053 0.121,-0.049 0.047,0.004 0.084,0.04 0.05,0.147 -0.132,0.428 -0.281,0.914 -0.489,1.405 -0.207,0.492 -0.473,0.989 -0.839,1.436 -0.243,0.295 -0.437,0.64 -0.496,0.971 -0.058,0.332 0.017,0.65 0.313,0.892 0.295,0.243 0.692,0.291 1.075,0.204 0.383,-0.086 0.753,-0.307 0.993,-0.602 0.347,-0.424 0.647,-0.894 0.922,-1.386 0.275,-0.492 0.524,-1.005 0.769,-1.514 0.02,-0.041 0.06,-0.052 0.095,-0.043 0.034,0.01 0.063,0.041 0.06,0.086 -0.039,0.523 -0.194,1.137 -0.472,1.784 -0.278,0.646 -0.68,1.325 -1.212,1.978 -0.243,0.298 -0.341,0.665 -0.304,1.018 0.037,0.351 0.208,0.689 0.503,0.929 0.296,0.243 0.661,0.342 1.014,0.307 0.353,-0.036 0.692,-0.207 0.936,-0.505 0.534,-0.657 0.982,-1.35 1.337,-2.051 0.356,-0.701 0.619,-1.411 0.783,-2.102 0.007,-0.031 0.033,-0.045 0.058,-0.043 0.025,0.002 0.048,0.019 0.05,0.051 0.034,0.532 -0.081,1.208 -0.36,1.937 -0.278,0.731 -0.719,1.515 -1.333,2.263 -0.24,0.296 -0.34,0.661 -0.304,1.013 0.035,0.352 0.205,0.692 0.503,0.934 m -10.91,8.601 c 0.006,-0.031 0.011,-0.062 0.016,-0.094 0.004,-0.032 0.008,-0.066 0.01,-0.1 0.009,-0.138 0.015,-0.276 0.019,-0.415 0.004,-0.137 0.005,-0.276 0.005,-0.414 -0.001,-0.02 0.012,-0.034 0.027,-0.038 0.016,-0.005 0.034,0 0.044,0.018 0.086,0.145 0.197,0.273 0.327,0.378 0.131,0.104 0.281,0.185 0.442,0.238 0.021,0.007 0.033,0.025 0.034,0.045 0.001,0.019 -0.009,0.04 -0.03,0.05 -0.135,0.064 -0.272,0.127 -0.408,0.188 -0.137,0.062 -0.274,0.123 -0.411,0.184 -0.015,0.006 -0.036,0.004 -0.051,-0.004 -0.016,-0.009 -0.027,-0.023 -0.024,-0.036 m -5.506,-14.865 -0.007,-0.026 -0.008,-0.025 0.029,0.008 0.029,0.009 c 0.828,-0.17 2.489,1.454 3.792,3.585 1.304,2.131 2.251,4.769 1.655,6.625 -0.011,0.03 -0.018,0.044 -0.024,0.04 -0.007,-0.003 -0.013,-0.023 -0.021,-0.058 -0.048,-0.228 -0.29,-1.012 -0.685,-2.039 -0.395,-1.028 -0.943,-2.297 -1.602,-3.495 -0.678,-1.229 -1.467,-2.385 -2.087,-3.234 -0.62,-0.849 -1.071,-1.39 -1.071,-1.39 m -10.522,18.306 c -1.193,0 -2.374,-0.053 -3.541,-0.156 -1.166,-0.104 -2.319,-0.257 -3.455,-0.458 -0.034,-0.006 -0.03,-0.019 -0.005,-0.031 0.026,-0.013 0.074,-0.027 0.128,-0.034 0.792,-0.099 1.527,-0.435 2.116,-0.944 0.589,-0.51 1.033,-1.192 1.242,-1.987 0.014,-0.052 0.053,-0.087 0.099,-0.1 0.046,-0.013 0.098,-0.003 0.136,0.035 0.184,0.183 0.386,0.347 0.603,0.49 0.217,0.144 0.451,0.267 0.7,0.367 0.497,0.198 1.016,0.295 1.534,0.289 0.518,-0.005 1.034,-0.114 1.525,-0.323 0.489,-0.207 0.923,-0.503 1.284,-0.871 0.36,-0.367 0.649,-0.805 0.848,-1.297 0.201,-0.494 0.298,-1.012 0.293,-1.529 -0.006,-0.517 -0.114,-1.033 -0.321,-1.521 -0.168,-0.39 -0.391,-0.738 -0.655,-1.041 -0.265,-0.303 -0.571,-0.562 -0.906,-0.771 -0.021,-0.013 -0.03,-0.034 -0.029,-0.055 0.001,-0.021 0.012,-0.042 0.034,-0.053 0.421,-0.218 0.794,-0.505 1.107,-0.849 0.314,-0.344 0.567,-0.743 0.748,-1.186 0.097,-0.245 0.169,-0.494 0.216,-0.745 0.047,-0.253 0.068,-0.507 0.067,-0.762 -0.001,-0.055 0.015,-0.108 0.044,-0.151 0.029,-0.043 0.072,-0.077 0.124,-0.095 0.428,-0.154 0.832,-0.555 1.172,-1.038 0.34,-0.484 0.615,-1.049 0.786,-1.529 0.011,-0.032 0.041,-0.043 0.067,-0.037 0.026,0.007 0.049,0.029 0.045,0.065 -0.064,0.568 -0.214,1.17 -0.474,1.74 -0.261,0.569 -0.631,1.107 -1.136,1.548 -0.287,0.251 -0.446,0.594 -0.47,0.947 -0.023,0.354 0.089,0.716 0.343,1.006 0.251,0.286 0.595,0.445 0.948,0.47 0.354,0.023 0.717,-0.087 1.007,-0.338 0.502,-0.441 0.917,-0.928 1.257,-1.442 0.34,-0.512 0.604,-1.05 0.805,-1.594 0.008,-0.023 0.029,-0.03 0.047,-0.025 0.018,0.005 0.033,0.021 0.028,0.045 -0.137,0.702 -0.372,1.472 -0.705,2.182 -0.333,0.711 -0.764,1.361 -1.294,1.827 -0.287,0.251 -0.446,0.596 -0.469,0.949 -0.024,0.355 0.088,0.717 0.342,1.004 0.251,0.286 0.595,0.445 0.948,0.469 0.352,0.023 0.714,-0.089 1.001,-0.342 0.218,-0.189 0.423,-0.393 0.616,-0.611 0.194,-0.218 0.374,-0.45 0.541,-0.693 0.019,-0.027 0.041,-0.03 0.055,-0.017 0.014,0.011 0.018,0.04 0.002,0.072 -0.134,0.277 -0.297,0.534 -0.478,0.767 -0.18,0.233 -0.379,0.442 -0.587,0.625 -0.29,0.253 -0.448,0.598 -0.472,0.952 -0.023,0.352 0.089,0.714 0.34,1.001 0.254,0.29 0.599,0.448 0.952,0.471 0.354,0.024 0.716,-0.088 1.003,-0.339 0.189,-0.167 0.368,-0.346 0.536,-0.536 0.168,-0.19 0.326,-0.39 0.474,-0.598 0.016,-0.023 0.036,-0.024 0.048,-0.012 0.013,0.011 0.018,0.034 0.007,0.059 -0.153,0.328 -0.335,0.647 -0.538,0.958 -0.204,0.31 -0.43,0.612 -0.671,0.907 -0.24,0.295 -0.34,0.66 -0.305,1.012 0.035,0.353 0.203,0.692 0.498,0.935 0.13,0.105 0.272,0.184 0.421,0.235 0.148,0.053 0.303,0.08 0.457,0.08 0.202,0 0.402,-0.044 0.586,-0.131 0.183,-0.086 0.35,-0.214 0.486,-0.382 0.194,-0.234 0.382,-0.485 0.561,-0.747 0.179,-0.264 0.351,-0.54 0.514,-0.825 0.009,-0.016 0.025,-0.021 0.039,-0.018 0.015,0.004 0.027,0.016 0.027,0.033 0.004,0.148 0.007,0.294 0.006,0.44 -0.001,0.146 -0.006,0.29 -0.015,0.432 -0.015,0.244 0.034,0.477 0.133,0.682 0.099,0.205 0.248,0.383 0.433,0.518 0.023,0.017 0.031,0.042 0.027,0.067 -0.004,0.024 -0.02,0.048 -0.046,0.057 -2.155,0.8 -4.397,1.42 -6.709,1.839 -2.311,0.419 -4.692,0.638 -7.125,0.638 m -7.819,-3.172 c -0.095,-0.225 -0.09,-0.472 -0.005,-0.683 0.085,-0.211 0.25,-0.39 0.479,-0.481 0.227,-0.099 0.471,-0.097 0.683,-0.012 0.212,0.084 0.391,0.249 0.488,0.476 0.097,0.226 0.092,0.47 0.007,0.683 -0.086,0.211 -0.253,0.392 -0.482,0.492 -0.224,0.094 -0.466,0.087 -0.678,10e-4 -0.212,-0.087 -0.393,-0.252 -0.492,-0.476 m -1.173,-5.083 c -0.012,0.006 -0.025,0.004 -0.034,-0.003 -0.009,-0.007 -0.015,-0.018 -0.014,-0.032 0.022,-0.248 0.021,-0.499 -0.002,-0.746 -0.023,-0.248 -0.068,-0.492 -0.137,-0.73 -0.007,-0.021 -0.007,-0.044 -0.002,-0.064 0.005,-0.022 0.015,-0.041 0.031,-0.058 0.174,-0.179 0.355,-0.362 0.541,-0.545 0.186,-0.181 0.376,-0.364 0.566,-0.545 0.043,-0.042 0.101,-0.042 0.142,-0.015 0.042,0.026 0.067,0.078 0.047,0.135 -0.142,0.408 -0.27,0.814 -0.381,1.219 -0.111,0.406 -0.207,0.809 -0.286,1.21 -0.079,0.025 -0.159,0.052 -0.238,0.08 -0.079,0.03 -0.157,0.061 -0.233,0.094 m -0.472,7.118 c -2.748,-0.67 -5.387,-1.627 -7.88,-2.837 -2.494,-1.21 -4.843,-2.673 -7.013,-4.356 -0.01,-0.009 -0.017,-0.022 -0.018,-0.033 -10e-4,-0.013 0.003,-0.027 0.013,-0.036 0.343,-0.365 1.093,-1.192 1.86,-1.911 0.767,-0.718 1.549,-1.328 1.959,-1.257 0.105,0.016 0.302,0.099 0.587,0.428 0.284,0.33 0.656,0.907 1.108,1.911 0.164,0.362 0.484,0.58 0.828,0.637 0.345,0.058 0.714,-0.046 0.979,-0.325 0.011,-0.012 0.026,-0.014 0.038,-0.009 0.013,0.005 0.021,0.017 0.021,0.033 -0.083,1.479 0.625,2.738 1.694,3.482 1.068,0.745 2.495,0.975 3.849,0.396 0.026,-0.01 0.052,-0.006 0.071,0.007 0.019,0.015 0.032,0.038 0.03,0.066 -0.064,0.756 0.091,1.495 0.423,2.139 0.333,0.645 0.842,1.197 1.485,1.58 0.023,0.014 0.027,0.038 0.02,0.058 -0.008,0.019 -0.028,0.034 -0.054,0.027 M -65.631,64.002 c -0.033,-0.013 -0.046,-0.042 -0.042,-0.069 0.003,-0.028 0.023,-0.053 0.057,-0.057 1.347,-0.137 2.79,-0.302 4.29,-0.487 1.501,-0.185 3.06,-0.39 4.638,-0.609 -0.325,0.169 -0.64,0.362 -0.941,0.575 -0.3,0.213 -0.586,0.448 -0.853,0.703 -0.391,0.371 -0.741,0.782 -1.046,1.221 -0.306,0.439 -0.567,0.906 -0.78,1.389 -0.089,0.202 -0.17,0.408 -0.242,0.616 -0.072,0.208 -0.136,0.418 -0.192,0.629 -0.005,0.02 -0.02,0.03 -0.036,0.031 -0.015,10e-4 -0.032,-0.006 -0.04,-0.024 -0.497,-1.041 -1.209,-1.829 -2.043,-2.451 -0.834,-0.623 -1.788,-1.082 -2.77,-1.467 m 2.927,5.364 c -0.499,-0.458 -0.978,-0.92 -1.446,-1.393 -0.467,-0.474 -0.923,-0.96 -1.375,-1.465 -0.006,-0.007 0.007,-0.012 0.022,-0.015 0.015,-0.003 0.031,-0.004 0.031,-0.004 l 0.067,0.033 0.068,0.032 c 0.722,0.335 1.274,0.677 1.706,1.11 0.433,0.434 0.747,0.958 0.995,1.658 0.007,0.02 -0.002,0.038 -0.017,0.048 -0.014,0.01 -0.035,0.011 -0.051,-0.004 m -3.397,-6.777 c 0.744,-0.283 1.479,-0.653 1.986,-1.133 0.507,-0.48 0.784,-1.071 0.613,-1.798 -0.003,-0.011 0.001,-0.019 0.008,-0.022 0.008,-0.003 0.018,-0.001 0.027,0.008 0.379,0.372 0.8,0.708 1.252,0.998 0.451,0.29 0.935,0.535 1.438,0.726 0.101,0.038 0.202,0.075 0.303,0.109 0.102,0.034 0.204,0.065 0.307,0.095 0.023,0.007 0.034,0.021 0.032,0.035 -0.001,0.012 -0.014,0.025 -0.039,0.029 -1.041,0.171 -2.061,0.343 -3.049,0.515 -0.986,0.173 -1.941,0.348 -2.853,0.524 -0.027,0.005 -0.045,-0.012 -0.051,-0.032 -0.006,-0.02 10e-4,-0.044 0.026,-0.054 m -3.309,-1.195 c -1.964,-3.073 -3.515,-6.43 -4.577,-9.996 -1.061,-3.567 -1.633,-7.341 -1.636,-11.247 0.351,0.356 0.798,0.797 1.371,1.355 0.572,0.557 1.269,1.229 2.119,2.049 0.997,0.96 2.115,2.038 3.04,2.949 0.926,0.911 1.657,1.654 1.881,1.943 1.129,1.459 0.868,2.276 0.437,2.924 -0.432,0.649 -1.034,1.128 -0.586,1.914 0.11,0.199 0.277,0.352 0.472,0.448 0.196,0.095 0.419,0.134 0.643,0.104 0.257,-0.039 0.965,-0.138 1.851,-0.225 0.887,-0.086 1.951,-0.159 2.92,-0.145 0.637,0.008 1.233,0.055 1.711,0.161 0.479,0.106 0.839,0.272 1.005,0.517 0.018,0.026 0.01,0.057 -0.01,0.08 -0.019,0.022 -0.05,0.036 -0.078,0.026 -0.151,-0.056 -0.304,-0.113 -0.457,-0.166 -0.154,-0.053 -0.307,-0.101 -0.459,-0.138 -0.444,-0.113 -0.822,0.024 -1.068,0.296 -0.245,0.274 -0.357,0.684 -0.268,1.117 0.099,0.488 0.147,0.865 0.165,1.152 0.017,0.288 0.005,0.486 -0.016,0.619 -0.003,0.021 -0.023,0.049 -0.045,0.071 -0.022,0.022 -0.046,0.038 -0.06,0.038 0,0 -0.25,-0.053 -0.57,-0.127 -0.32,-0.073 -0.711,-0.165 -0.993,-0.242 -0.612,-0.171 -1.264,-0.351 -1.909,-0.488 -0.645,-0.137 -1.283,-0.23 -1.868,-0.224 -0.224,0.003 -0.436,0.074 -0.614,0.195 -0.177,0.121 -0.319,0.294 -0.402,0.501 -0.083,0.207 -0.101,0.428 -0.058,0.638 0.043,0.209 0.146,0.407 0.306,0.564 1.028,1.01 1.45,1.516 1.322,1.866 -0.129,0.35 -0.808,0.542 -1.984,0.92 -0.26,0.079 -0.526,0.164 -0.793,0.255 -0.266,0.091 -0.533,0.188 -0.792,0.296 m 2.395,-45.59 c 0.339,2.424 0.928,4.783 1.754,7.046 0.827,2.263 1.89,4.429 3.176,6.468 l 0.007,0.023 c 0.003,0.008 0.006,0.016 0.008,0.024 0.005,0.093 0.009,0.189 0.013,0.286 0.005,0.097 0.01,0.196 0.016,0.292 10e-4,0.024 -0.011,0.036 -0.026,0.037 -0.016,0.001 -0.035,-0.009 -0.049,-0.033 -0.136,-0.222 -0.27,-0.46 -0.4,-0.705 -0.13,-0.246 -0.258,-0.5 -0.383,-0.757 -0.164,-0.345 -0.452,-0.59 -0.786,-0.709 -0.334,-0.118 -0.714,-0.108 -1.059,0.058 -0.345,0.165 -0.591,0.455 -0.709,0.788 -0.118,0.334 -0.108,0.712 0.057,1.054 0.347,0.73 0.719,1.402 1.116,2.014 0.398,0.612 0.82,1.164 1.265,1.655 0.014,0.015 0.011,0.033 0,0.045 -0.01,0.011 -0.027,0.017 -0.044,0.005 -0.346,-0.253 -0.684,-0.529 -1.01,-0.824 -0.326,-0.295 -0.639,-0.61 -0.934,-0.942 -0.254,-0.284 -0.601,-0.438 -0.955,-0.458 -0.354,-0.02 -0.716,0.097 -1,0.353 -0.285,0.253 -0.439,0.6 -0.459,0.954 -0.019,0.353 0.097,0.715 0.354,0.999 0.046,0.055 0.094,0.108 0.143,0.162 0.048,0.053 0.097,0.104 0.148,0.157 0.013,0.014 0.014,0.033 0.007,0.048 -0.007,0.014 -0.023,0.024 -0.042,0.021 -0.257,-0.039 -0.521,-0.003 -0.759,0.102 -0.237,0.103 -0.448,0.276 -0.601,0.508 -0.21,0.317 -0.271,0.691 -0.2,1.038 0.072,0.347 0.277,0.667 0.597,0.876 0.013,0.009 0.487,0.298 1.177,0.686 0.69,0.39 1.596,0.88 2.475,1.289 0.02,0.01 0.029,0.031 0.027,0.049 -0.002,0.019 -0.015,0.036 -0.037,0.041 -0.984,0.192 -2.152,0.137 -3.363,-0.029 -1.211,-0.165 -2.463,-0.442 -3.614,-0.695 -0.862,-0.191 -1.671,-0.37 -2.41,-0.494 -0.74,-0.123 -1.409,-0.19 -1.992,-0.157 0.303,-4.003 1.205,-7.84 2.616,-11.425 1.411,-3.584 3.33,-6.916 5.666,-9.908 0.032,-0.041 0.081,-0.053 0.124,-0.041 0.042,0.012 0.079,0.047 0.086,0.099 m 7.464,-7.536 c 0.061,-0.046 0.135,-0.046 0.193,-0.015 0.058,0.031 0.1,0.093 0.097,0.169 -0.008,0.188 -0.013,0.378 -0.016,0.567 -0.004,0.19 -0.005,0.38 -0.005,0.57 0,3.671 0.776,7.275 2.227,10.587 1.451,3.31 3.577,6.328 6.277,8.824 0.039,0.037 0.079,0.074 0.119,0.11 0.04,0.037 0.081,0.073 0.122,0.11 0.014,0.011 0.022,0.032 0.023,0.049 0.002,0.018 -0.004,0.034 -0.017,0.036 -0.308,0.049 -0.587,0.126 -0.833,0.245 -0.246,0.117 -0.459,0.275 -0.634,0.487 -0.216,0.262 -0.345,0.572 -0.39,0.929 -0.044,0.356 -0.002,0.759 0.125,1.206 0.018,0.065 0.035,0.128 0.05,0.19 0.016,0.063 0.03,0.124 0.043,0.185 0.008,0.04 -0.004,0.068 -0.024,0.079 -0.021,0.011 -0.051,0.005 -0.078,-0.024 -0.039,-0.04 -0.081,-0.078 -0.125,-0.113 -0.045,-0.035 -0.092,-0.067 -0.143,-0.097 -0.328,-0.195 -0.705,-0.24 -1.049,-0.153 -0.344,0.087 -0.654,0.305 -0.85,0.633 -0.134,0.223 -0.263,0.44 -0.386,0.656 -0.123,0.217 -0.241,0.431 -0.356,0.645 -0.013,0.023 -0.035,0.036 -0.058,0.037 -0.024,10e-4 -0.048,-0.01 -0.063,-0.031 -0.232,-0.317 -0.066,-0.742 0.229,-1.128 0.294,-0.387 0.719,-0.735 1.004,-0.896 0.334,-0.184 0.56,-0.488 0.656,-0.829 0.096,-0.34 0.062,-0.718 -0.126,-1.052 -0.188,-0.334 -0.493,-0.559 -0.835,-0.655 -0.341,-0.097 -0.72,-0.062 -1.054,0.126 -0.424,0.237 -0.803,0.531 -1.142,0.868 -0.339,0.337 -0.638,0.717 -0.902,1.126 -0.014,0.022 -0.037,0.032 -0.06,0.031 -0.022,-10e-4 -0.045,-0.013 -0.059,-0.036 -0.264,-0.434 -0.002,-1.055 0.416,-1.618 0.417,-0.561 0.989,-1.065 1.344,-1.265 0.334,-0.185 0.561,-0.488 0.657,-0.829 0.096,-0.341 0.061,-0.718 -0.127,-1.052 -0.185,-0.333 -0.489,-0.56 -0.829,-0.657 -0.341,-0.096 -0.72,-0.063 -1.054,0.122 -0.419,0.234 -0.794,0.514 -1.132,0.829 -0.337,0.314 -0.637,0.664 -0.902,1.035 -0.015,0.02 -0.038,0.024 -0.058,0.017 -0.019,-0.006 -0.035,-0.024 -0.034,-0.05 0.009,-0.22 0.027,-0.432 0.051,-0.635 0.025,-0.203 0.056,-0.398 0.092,-0.583 0.081,-0.376 0.002,-0.746 -0.19,-1.044 -0.193,-0.297 -0.499,-0.521 -0.875,-0.601 -0.238,-0.05 -0.474,-0.034 -0.689,0.032 -0.216,0.067 -0.413,0.186 -0.573,0.344 -0.013,0.013 -0.031,0.018 -0.047,0.016 -0.017,-0.002 -0.032,-0.012 -0.04,-0.029 -0.98,-1.91 -1.769,-3.916 -2.351,-5.992 -0.582,-2.077 -0.958,-4.224 -1.113,-6.418 -0.002,-0.039 0.003,-0.077 0.016,-0.113 0.012,-0.035 0.032,-0.068 0.058,-0.097 0.827,-0.887 1.694,-1.738 2.597,-2.548 0.905,-0.808 1.846,-1.577 2.823,-2.3 m 0.65,-30.345 c 0.772,-1.507 2.756,-2.448 5.2,-1.735 2.443,0.713 5.345,3.08 7.951,8.191 0.044,0.085 0.035,0.18 -0.008,0.254 -0.044,0.073 -0.123,0.127 -0.219,0.13 -5.748,0.195 -9.334,-0.82 -11.305,-2.231 -1.971,-1.411 -2.329,-3.218 -1.619,-4.609 m 16.445,14.266 c 0.119,0.4 0.15,0.869 0.147,1.345 -0.003,0.477 -0.04,0.963 -0.059,1.398 -0.005,0.124 -0.053,0.237 -0.132,0.325 -0.077,0.087 -0.185,0.147 -0.308,0.166 -1.354,0.205 -2.692,0.471 -4.013,0.797 -1.32,0.325 -2.623,0.711 -3.904,1.155 -0.11,0.039 -0.169,0.051 -0.174,0.039 -0.006,-0.013 0.042,-0.049 0.143,-0.106 1.625,-0.93 3.162,-1.936 4.494,-2.868 1.332,-0.932 2.458,-1.79 3.26,-2.423 0.096,-0.076 0.215,-0.092 0.319,-0.059 0.103,0.033 0.192,0.113 0.227,0.231 m 3.253,40.747 c 0,-0.372 0.106,-0.8 0.188,-1.217 0.082,-0.418 0.14,-0.826 0.044,-1.16 -0.14,-0.488 -0.387,-0.81 -0.709,-1.017 -0.322,-0.208 -0.718,-0.301 -1.153,-0.329 -0.029,-0.001 -0.052,-0.018 -0.064,-0.04 -0.013,-0.022 -0.014,-0.05 0,-0.076 0.123,-0.223 0.228,-0.448 0.316,-0.676 0.089,-0.228 0.162,-0.459 0.22,-0.692 0.017,-0.068 0.062,-0.12 0.119,-0.149 0.057,-0.029 0.126,-0.036 0.191,-0.012 0.345,0.129 0.727,0.247 1.097,0.363 0.37,0.117 0.727,0.233 1.023,0.36 0.042,0.018 0.076,0.048 0.099,0.085 0.023,0.036 0.037,0.08 0.036,0.126 -0.004,0.794 -0.003,1.59 0,2.386 0.003,0.795 0.007,1.591 0.007,2.385 -0.235,-0.05 -0.47,-0.102 -0.705,-0.159 -0.235,-0.055 -0.471,-0.115 -0.709,-0.178 m 1.331,6.95 c -0.093,-0.486 -0.208,-0.979 -0.327,-1.471 -0.118,-0.493 -0.239,-0.986 -0.347,-1.474 -0.062,-0.278 -0.125,-0.553 -0.185,-0.825 -0.061,-0.271 -0.118,-0.54 -0.17,-0.804 -10e-4,-0.004 0.001,-0.009 0.004,-0.012 0.003,-0.003 0.008,-0.005 0.013,-0.004 0.18,0.043 0.359,0.084 0.537,0.122 0.178,0.038 0.356,0.074 0.533,0.107 0.007,0.001 0.013,0.004 0.018,0.009 0.004,0.006 0.007,0.013 0.007,0.02 v 4.323 c 0,0.025 -0.019,0.04 -0.038,0.042 -0.019,0.002 -0.04,-0.009 -0.045,-0.033 m -1.552,14.784 c -0.023,-0.028 -0.041,-0.061 -0.053,-0.095 -0.012,-0.034 -0.019,-0.07 -0.019,-0.106 v -10.28 c 0,-0.043 0.019,-0.082 0.05,-0.109 0.03,-0.025 0.071,-0.039 0.114,-0.032 0.165,0.025 0.375,0.048 0.566,0.043 0.19,-0.004 0.36,-0.035 0.447,-0.117 0.106,-0.104 0.207,-0.249 0.292,-0.409 0.085,-0.161 0.154,-0.336 0.198,-0.502 0.004,-0.012 0.014,-0.017 0.022,-0.016 0.01,0.001 0.018,0.008 0.018,0.02 v 13.245 c 0,0.055 -0.035,0.095 -0.078,0.112 -0.044,0.017 -0.096,0.008 -0.133,-0.034 -0.228,-0.267 -0.462,-0.545 -0.7,-0.832 -0.238,-0.287 -0.479,-0.584 -0.724,-0.888 m -0.732,12.657 c -10e-4,-0.019 -0.023,-0.142 -0.023,-0.303 0,-0.162 0.022,-0.362 0.108,-0.538 0.009,-0.017 0.026,-0.029 0.041,-0.032 0.015,-0.003 0.029,0.002 0.031,0.02 0.025,0.191 0.057,0.458 0.1,0.715 0.042,0.256 0.094,0.504 0.16,0.659 0.164,0.387 0.385,0.739 0.655,1.049 0.27,0.308 0.587,0.574 0.943,0.787 0.013,0.008 0.019,0.02 0.019,0.033 -10e-4,0.013 -0.007,0.025 -0.021,0.032 -0.127,0.066 -0.25,0.136 -0.369,0.211 -0.118,0.075 -0.233,0.156 -0.343,0.243 -0.335,-0.474 -0.643,-0.852 -0.875,-1.282 -0.233,-0.43 -0.391,-0.911 -0.426,-1.594 m 2.084,-5.737 c 0,0.147 -0.024,0.383 -0.056,0.625 -0.034,0.241 -0.076,0.489 -0.114,0.66 -0.017,0.025 -0.033,0.048 -0.049,0.07 -0.016,0.024 -0.031,0.047 -0.048,0.072 -0.183,0.125 -0.354,0.265 -0.511,0.419 -0.157,0.153 -0.301,0.319 -0.43,0.499 -0.006,0.008 -0.034,0.007 -0.061,0.003 -0.027,-0.005 -0.052,-0.013 -0.052,-0.021 0.002,-0.292 0.333,-0.949 0.663,-1.496 0.33,-0.546 0.659,-0.981 0.658,-0.831 m -2.036,0.4 c -0.007,0.011 -0.018,0.017 -0.03,0.018 -0.011,0 -0.022,-0.004 -0.03,-0.014 -0.088,-0.109 -0.184,-0.215 -0.285,-0.314 -0.101,-0.1 -0.207,-0.195 -0.318,-0.282 -0.014,-0.011 -0.02,-0.028 -0.018,-0.043 0.002,-0.016 0.011,-0.031 0.027,-0.037 0.258,-0.12 0.512,-0.232 0.763,-0.339 0.25,-0.109 0.497,-0.21 0.737,-0.308 0.009,-0.004 0.018,-0.002 0.023,0.002 0.005,0.005 0.006,0.012 0.002,0.019 -0.146,0.212 -0.292,0.427 -0.438,0.644 -0.145,0.217 -0.29,0.435 -0.433,0.654 m -1.573,6.324 c 0.011,-0.026 0.035,-0.038 0.057,-0.037 0.023,0.001 0.046,0.016 0.054,0.042 0.17,0.565 0.391,1.128 0.666,1.673 0.275,0.546 0.603,1.073 0.988,1.563 -0.071,0.144 -0.13,0.282 -0.18,0.422 -0.05,0.138 -0.092,0.28 -0.126,0.433 -0.006,0.025 -0.023,0.04 -0.044,0.046 -0.02,0.006 -0.044,10e-4 -0.061,-0.017 -0.316,-0.335 -0.667,-0.6 -1.053,-0.799 -0.387,-0.2 -0.808,-0.333 -1.264,-0.405 0.108,-0.48 0.245,-0.965 0.406,-1.453 0.162,-0.488 0.348,-0.978 0.557,-1.468 M -42.673,32.12 c 0.003,-0.035 0.029,-0.056 0.058,-0.059 0.028,-0.004 0.059,0.009 0.07,0.044 0.712,2.303 0.954,4.121 1.025,5.717 0.072,1.597 -0.026,2.972 0.009,4.392 0.034,1.287 0.201,2.613 0.29,4.123 0.09,1.511 0.103,3.205 -0.172,5.228 -0.012,0.091 -0.08,0.149 -0.155,0.164 -0.077,0.014 -0.16,-0.015 -0.204,-0.096 -0.524,-0.963 -0.733,-2.29 -0.826,-3.634 -0.093,-1.343 -0.07,-2.703 -0.131,-3.732 -0.104,-1.745 -0.187,-3.439 -0.198,-5.367 -0.01,-1.929 0.05,-4.093 0.234,-6.78 m -0.992,-8.594 c -0.21,-0.389 -0.422,-0.787 -0.621,-1.181 -0.199,-0.396 -0.384,-0.789 -0.539,-1.169 l -0.287,-0.71 -0.288,-0.71 c -0.022,-0.056 -0.072,-0.085 -0.123,-0.087 -0.051,-0.002 -0.102,0.024 -0.129,0.076 l -0.686,1.37 c -0.584,1.168 -1.109,2.214 -1.517,3.182 -0.408,0.968 -0.699,1.857 -0.819,2.711 0,0.005 -0.002,0.015 -0.003,0.022 -10e-4,0.008 -0.002,0.013 -10e-4,0.008 -0.012,0.054 -0.027,0.079 -0.039,0.085 -0.012,0.006 -0.022,-0.006 -0.027,-0.026 -10e-4,-0.006 -0.003,-0.012 -0.005,-0.019 -10e-4,-0.006 -0.002,-0.012 -0.004,-0.018 -0.247,-1.043 -0.107,-2.336 0.415,-3.873 0.522,-1.536 1.426,-3.316 2.71,-5.329 0.033,-0.053 0.088,-0.079 0.143,-0.078 0.055,10e-4 0.109,0.028 0.14,0.081 l 0.102,0.172 0.101,0.171 c 0.1,0.168 0.115,0.196 0.133,0.226 0.018,0.029 0.038,0.062 0.146,0.241 0.984,1.658 1.853,3.208 2.405,4.64 0.553,1.431 0.79,2.745 0.51,3.93 -0.008,0.032 -0.033,0.048 -0.059,0.048 -0.025,0 -0.051,-0.015 -0.057,-0.048 -0.144,-0.629 -0.387,-1.266 -0.673,-1.892 -0.286,-0.626 -0.615,-1.24 -0.928,-1.823 m -0.304,5.913 c -0.439,0.033 -0.867,0.046 -1.295,0.042 -0.428,-0.005 -0.856,-0.026 -1.295,-0.059 -0.124,-0.121 -0.214,-0.239 -0.281,-0.351 -0.067,-0.111 -0.111,-0.214 -0.144,-0.305 -0.204,-0.574 -0.128,-1.348 0.129,-2.25 0.256,-0.904 0.692,-1.935 1.206,-3.027 0.008,-0.017 0.024,-0.026 0.041,-0.026 0.017,-0.001 0.034,0.008 0.043,0.024 0.072,0.14 0.145,0.278 0.218,0.415 0.073,0.137 0.146,0.274 0.219,0.413 0.69,1.288 1.188,2.298 1.41,3.123 0.221,0.823 0.166,1.461 -0.251,2.001 m -1.607,35.905 c -0.096,-0.224 -0.091,-0.468 -0.006,-0.68 0.086,-0.213 0.252,-0.393 0.476,-0.49 0.229,-0.097 0.475,-0.092 0.687,-0.007 0.211,0.086 0.39,0.253 0.483,0.482 0.097,0.226 0.093,0.468 0.009,0.679 -0.085,0.21 -0.249,0.388 -0.472,0.485 -0.23,0.096 -0.476,0.092 -0.688,0.007 -0.213,-0.085 -0.392,-0.251 -0.489,-0.476 m -4.126,1.807 c 0.383,-0.357 0.78,-0.704 1.186,-1.041 0.406,-0.336 0.823,-0.662 1.245,-0.976 0.015,-0.012 0.033,-0.013 0.048,-0.007 0.015,0.007 0.028,0.021 0.031,0.039 0.091,0.546 0.293,1.058 0.587,1.508 0.295,0.45 0.683,0.841 1.147,1.145 0.032,0.021 0.05,0.053 0.054,0.086 0.003,0.035 -0.008,0.07 -0.035,0.095 -0.066,0.064 -0.132,0.127 -0.197,0.19 -0.066,0.063 -0.131,0.127 -0.196,0.19 -0.021,0.021 -0.047,0.03 -0.074,0.029 -0.027,-0.001 -0.053,-0.011 -0.073,-0.033 -0.472,-0.495 -1.055,-0.85 -1.688,-1.045 -0.633,-0.196 -1.316,-0.233 -1.99,-0.096 -0.025,0.004 -0.045,-0.008 -0.054,-0.026 -0.01,-0.017 -0.009,-0.041 0.009,-0.058 m -0.027,4.277 c 0.227,-0.097 0.471,-0.092 0.683,-0.008 0.212,0.085 0.392,0.251 0.488,0.477 0.097,0.229 0.093,0.473 0.008,0.684 -0.085,0.211 -0.251,0.389 -0.477,0.486 -0.229,0.096 -0.474,0.091 -0.685,0.007 -0.211,-0.085 -0.39,-0.251 -0.486,-0.476 -0.096,-0.23 -0.093,-0.474 -0.008,-0.685 0.085,-0.211 0.251,-0.388 0.477,-0.485 m -2.927,-4.592 c 0.175,-0.372 0.352,-0.738 0.537,-1.098 0.184,-0.359 0.375,-0.712 0.574,-1.058 0.21,-0.362 0.428,-0.715 0.66,-1.057 0.232,-0.341 0.479,-0.67 0.747,-0.981 0.139,-0.161 0.284,-0.319 0.436,-0.469 0.152,-0.15 0.311,-0.296 0.481,-0.435 0.03,-0.024 0.063,-0.045 0.099,-0.06 0.036,-0.016 0.073,-0.027 0.112,-0.033 0.62,-0.098 1.234,-0.196 1.838,-0.292 0.604,-0.098 1.199,-0.195 1.782,-0.291 0.02,-0.004 0.034,0.007 0.039,0.022 0.005,0.015 10e-4,0.032 -0.016,0.043 -0.099,0.062 -0.196,0.126 -0.289,0.195 -0.094,0.07 -0.184,0.144 -0.273,0.223 -0.007,0.007 -0.015,0.013 -0.023,0.019 -0.008,0.006 -0.016,0.011 -0.025,0.017 -1.19,0.737 -2.367,1.555 -3.481,2.443 -1.114,0.888 -2.166,1.848 -3.106,2.873 -0.084,-0.056 -0.065,-0.043 -0.046,-0.031 0.019,0.013 0.038,0.026 -0.046,-0.03 m -0.676,-4.534 c 0.349,-0.052 0.697,-0.104 1.044,-0.155 0.348,-0.052 0.694,-0.104 1.039,-0.157 0.038,-0.006 0.067,0.015 0.079,0.043 0.012,0.029 0.008,0.065 -0.021,0.089 -0.312,0.268 -0.594,0.565 -0.849,0.881 -0.254,0.316 -0.481,0.653 -0.681,1 -0.235,0.409 -0.435,0.834 -0.601,1.271 -0.165,0.436 -0.297,0.883 -0.394,1.336 -0.021,0.101 -0.04,0.203 -0.058,0.304 -0.018,0.102 -0.034,0.203 -0.048,0.306 -0.008,0.059 -0.05,0.099 -0.1,0.113 -0.05,0.014 -0.107,0.001 -0.145,-0.045 -0.266,-0.315 -0.558,-0.594 -0.881,-0.808 -0.324,-0.216 -0.679,-0.369 -1.071,-0.436 -0.625,-0.107 -1.218,0.009 -1.812,0.298 -0.594,0.289 -1.19,0.75 -1.82,1.332 -0.028,0.025 -0.041,0.021 -0.045,0.008 -0.004,-0.014 10e-4,-0.036 0.009,-0.05 0.05,-0.074 0.101,-0.148 0.151,-0.222 0.051,-0.074 0.102,-0.147 0.154,-0.219 0.277,-0.394 0.567,-0.771 0.872,-1.129 0.305,-0.36 0.625,-0.701 0.964,-1.021 0.338,-0.321 0.694,-0.623 1.067,-0.906 0.373,-0.284 0.764,-0.55 1.172,-0.799 0.286,-0.177 0.58,-0.344 0.882,-0.506 0.302,-0.162 0.612,-0.32 0.929,-0.477 0.026,-0.013 0.053,-0.024 0.08,-0.033 0.028,-0.007 0.056,-0.014 0.084,-0.018 m 0.897,-5.641 c 0.219,-0.203 0.394,-0.435 0.526,-0.695 0.131,-0.261 0.218,-0.549 0.261,-0.865 0.006,-0.047 0.033,-0.087 0.069,-0.111 0.037,-0.023 0.082,-0.03 0.128,-0.014 0.145,0.053 0.297,0.11 0.453,0.17 0.157,0.059 0.317,0.122 0.481,0.184 0.039,0.016 0.072,0.042 0.095,0.075 0.023,0.034 0.036,0.074 0.035,0.117 -0.006,0.544 -0.03,1.165 0.036,1.745 0.067,0.58 0.225,1.119 0.584,1.5 0.355,0.378 1.075,0.558 1.741,0.643 0.665,0.085 1.275,0.075 1.412,0.067 0.028,-10e-4 0.041,0.009 0.039,0.021 -10e-4,0.013 -0.016,0.027 -0.045,0.031 -0.528,0.082 -1.062,0.165 -1.599,0.248 -0.538,0.083 -1.079,0.166 -1.623,0.25 -0.014,0.002 -0.029,0.003 -0.044,0.003 -0.015,10e-4 -0.03,0 -0.044,-0.002 -0.281,-0.032 -0.559,-0.065 -0.833,-0.101 -0.275,-0.037 -0.547,-0.077 -0.816,-0.125 -0.474,-0.08 -0.939,-0.18 -1.394,-0.3 -0.456,-0.121 -0.901,-0.264 -1.337,-0.431 -0.435,-0.167 -0.86,-0.358 -1.277,-0.572 -0.416,-0.215 -0.825,-0.453 -1.226,-0.714 -0.209,-0.134 -0.416,-0.277 -0.623,-0.425 -0.206,-0.147 -0.411,-0.299 -0.617,-0.457 -0.014,-0.01 -0.016,-0.028 -0.009,-0.041 0.007,-0.012 0.021,-0.021 0.039,-0.016 1.138,0.338 2.231,0.572 3.192,0.582 0.961,0.01 1.789,-0.205 2.396,-0.767 m -11.02,-5.477 c 0.444,-0.256 0.894,-0.491 1.351,-0.701 0.457,-0.21 0.921,-0.397 1.395,-0.556 0.473,-0.159 0.954,-0.292 1.444,-0.401 0.49,-0.108 0.989,-0.192 1.496,-0.252 0.07,-0.009 0.14,-0.017 0.21,-0.024 0.07,-0.007 0.141,-0.014 0.211,-0.02 0.023,-0.002 0.046,0 0.069,0.004 0.022,0.004 0.044,0.013 0.064,0.024 0.983,0.559 1.963,1.113 2.932,1.661 0.97,0.548 1.93,1.089 2.873,1.618 0.025,0.015 0.056,0.119 0.043,0.206 -0.013,0.086 -0.07,0.154 -0.22,0.093 -0.62,-0.251 -1.011,-0.402 -1.306,-0.44 -0.295,-0.038 -0.493,0.038 -0.723,0.244 -0.166,0.149 -0.282,0.34 -0.342,0.546 -0.059,0.207 -0.062,0.43 0,0.645 0.088,0.34 0.122,0.612 0.12,0.816 -0.002,0.202 -0.04,0.335 -0.099,0.392 -0.099,0.089 -0.291,0.175 -0.663,0.192 -0.372,0.016 -0.924,-0.038 -1.745,-0.228 -0.035,-0.008 -0.065,-0.029 -0.085,-0.058 -0.02,-0.029 -0.03,-0.064 -0.027,-0.101 0.047,-0.505 -0.017,-0.933 -0.138,-1.287 -0.122,-0.355 -0.301,-0.637 -0.484,-0.851 -0.501,-0.597 -1.247,-1.008 -2.297,-1.239 -1.051,-0.231 -2.406,-0.281 -4.124,-0.159 -0.031,0.002 -0.039,-0.019 -0.029,-0.044 0.009,-0.027 0.036,-0.058 0.074,-0.08 m 4.177,-3.098 c 0.034,0.021 0.046,0.056 0.039,0.088 -0.007,0.031 -0.032,0.06 -0.072,0.063 -0.311,0.035 -0.62,0.084 -0.926,0.152 -0.306,0.067 -0.61,0.151 -0.907,0.253 -0.54,0.181 -1.059,0.418 -1.55,0.7 -0.491,0.282 -0.953,0.61 -1.377,0.976 -0.02,0.017 -0.05,0.009 -0.074,-0.012 -0.024,-0.022 -0.044,-0.057 -0.045,-0.093 -0.009,-0.447 -0.097,-0.931 -0.296,-1.451 -0.2,-0.52 -0.513,-1.075 -0.97,-1.666 -0.257,-0.331 -0.849,-0.945 -1.723,-1.813 -0.874,-0.866 -2.029,-1.985 -3.413,-3.322 -0.087,-0.084 -0.175,-0.168 -0.262,-0.253 -0.088,-0.084 -0.177,-0.169 -0.266,-0.255 -0.058,-0.055 -0.07,-0.096 -0.056,-0.117 0.014,-0.02 0.054,-0.019 0.102,0.008 1.797,1.03 3.718,2.131 5.704,3.266 1.986,1.137 4.037,2.307 6.092,3.476 m -2.202,-7.47 c 0.021,0.562 0.088,1.125 0.202,1.679 0.114,0.555 0.274,1.101 0.478,1.63 0.082,0.213 0.171,0.423 0.267,0.63 0.096,0.206 0.199,0.409 0.308,0.609 0.036,0.064 0.018,0.131 -0.024,0.173 -0.043,0.042 -0.109,0.059 -0.173,0.023 -1.779,-0.973 -3.542,-1.917 -5.239,-2.792 -1.697,-0.874 -3.329,-1.679 -4.844,-2.378 -0.017,-0.008 -0.021,-0.024 -0.016,-0.038 0.004,-0.013 0.018,-0.023 0.036,-0.019 1.552,0.331 3.202,0.634 4.758,0.658 1.557,0.026 3.02,-0.227 4.201,-1.007 0.011,-0.008 0.024,-0.007 0.034,-0.002 0.01,0.006 0.016,0.017 0.016,0.031 -0.006,0.133 -0.009,0.267 -0.01,0.401 -0.001,0.134 10e-4,0.269 0.006,0.402 m 12.464,-20.162 c -0.506,1.046 -0.883,2.017 -1.136,2.92 -0.253,0.903 -0.382,1.739 -0.389,2.514 -0.001,0.035 -0.022,0.061 -0.049,0.072 -0.028,0.01 -0.061,0.006 -0.085,-0.02 -2.04,-2.226 -3.637,-4.805 -4.723,-7.586 -1.087,-2.782 -1.665,-5.764 -1.665,-8.795 0,-0.528 0.015,-1.05 0.042,-1.567 0.026,-0.517 0.066,-1.029 0.119,-1.534 0.854,-0.533 1.729,-1.036 2.623,-1.506 0.895,-0.468 1.81,-0.905 2.742,-1.305 0.049,-0.021 0.099,-0.008 0.133,0.022 0.034,0.031 0.051,0.08 0.035,0.131 -0.287,0.926 -0.504,1.87 -0.649,2.831 -0.145,0.96 -0.218,1.937 -0.218,2.928 0,1.907 0.278,3.783 0.819,5.58 0.54,1.796 1.341,3.512 2.388,5.101 0.021,0.032 0.032,0.069 0.035,0.105 0.002,0.037 -0.005,0.075 -0.022,0.109 M -59,39.133 c 0.177,0.182 0.768,1.28 1.548,2.039 0.78,0.758 1.749,1.176 2.682,-0.004 0.016,-0.018 0.037,-0.015 0.054,0 0.017,0.016 0.03,0.041 0.027,0.065 -0.043,0.343 -0.733,1.138 -1.61,1.19 -0.877,0.053 -1.942,-0.637 -2.735,-3.262 -0.002,-0.009 0.002,-0.02 0.01,-0.027 0.007,-0.006 0.017,-0.009 0.024,-10e-4 m 2.943,4.978 c 0.235,-0.02 0.465,-0.077 0.693,-0.169 0.227,-0.093 0.451,-0.22 0.672,-0.382 0.068,-0.051 0.15,-0.067 0.227,-0.052 0.076,0.015 0.147,0.06 0.192,0.132 0.057,0.091 0.114,0.183 0.172,0.277 0.059,0.094 0.117,0.189 0.175,0.283 0.47,0.761 0.996,1.676 1.584,2.54 0.588,0.865 1.238,1.68 1.956,2.243 v 1.685 c 0,0.079 -0.042,0.144 -0.102,0.179 -0.059,0.035 -0.136,0.04 -0.204,10e-4 -1.155,-0.664 -2.346,-1.346 -3.556,-2.034 -1.21,-0.688 -2.441,-1.383 -3.675,-2.071 -0.049,-0.085 -0.098,-0.17 -0.147,-0.255 -0.049,-0.085 -0.097,-0.17 -0.144,-0.254 -0.255,-0.456 -0.493,-0.916 -0.713,-1.381 -0.22,-0.465 -0.423,-0.936 -0.606,-1.414 -0.177,-0.462 -0.337,-0.93 -0.481,-1.406 -0.143,-0.475 -0.271,-0.957 -0.383,-1.447 -0.001,-10e-4 -0.001,-0.008 0,-0.014 10e-4,-0.006 0.004,-0.013 0.01,-0.017 0.006,-0.004 0.014,-0.004 0.021,-0.003 0.008,0 0.013,0.003 0.014,0.004 0.149,0.178 0.296,0.359 0.44,0.538 0.144,0.179 0.285,0.355 0.42,0.524 0.428,0.533 0.902,1.191 1.461,1.699 0.559,0.506 1.203,0.864 1.974,0.794 m -1.505,16.72 c -0.474,-0.081 -0.939,-0.18 -1.395,-0.301 -0.455,-0.121 -0.9,-0.262 -1.336,-0.43 -0.245,-0.094 -0.486,-0.197 -0.724,-0.306 -0.239,-0.11 -0.474,-0.227 -0.707,-0.352 -0.029,-0.015 -0.041,-0.032 -0.038,-0.043 0.004,-0.012 0.021,-0.018 0.052,-0.012 0.119,0.022 0.236,0.04 0.349,0.052 0.114,0.011 0.223,0.016 0.328,0.013 0.748,0.063 1.292,-0.184 1.664,-0.606 0.372,-0.422 0.574,-1.019 0.638,-1.655 0.002,-0.026 0.02,-0.042 0.04,-0.046 0.019,-0.005 0.042,0.002 0.055,0.023 0.159,0.263 0.337,0.515 0.53,0.756 0.192,0.241 0.4,0.473 0.622,0.691 0.38,0.372 0.8,0.707 1.252,0.997 0.452,0.291 0.935,0.537 1.439,0.727 0.116,0.045 0.234,0.086 0.353,0.125 0.118,0.038 0.237,0.074 0.357,0.106 0.028,0.008 0.041,0.033 0.04,0.056 -0.002,0.024 -0.018,0.046 -0.047,0.051 -0.352,0.054 -0.704,0.107 -1.055,0.162 -0.352,0.055 -0.702,0.108 -1.052,0.163 -0.026,0.004 -0.052,0.006 -0.078,0.007 -0.026,0 -0.052,-10e-4 -0.078,-0.004 -0.205,-0.025 -0.408,-0.052 -0.609,-0.08 -0.202,-0.028 -0.401,-0.06 -0.6,-0.094 M -39.223,0.573 c 0.035,-0.003 0.06,0.013 0.07,0.034 0.009,0.021 0.003,0.047 -0.025,0.068 -1.383,0.993 -2.525,2.3 -3.322,3.816 -0.797,1.516 -1.248,3.24 -1.248,5.068 0,1.94 0.514,3.806 1.445,5.432 0.932,1.627 2.281,3.014 3.949,3.997 0.019,0.011 0.033,0.028 0.041,0.046 0.009,0.019 0.012,0.04 0.009,0.062 -0.115,0.661 -0.164,1.285 -0.148,1.877 0.017,0.591 0.099,1.15 0.248,1.681 0.15,0.53 0.367,1.024 0.649,1.483 0.283,0.459 0.632,0.881 1.046,1.266 0.009,0.008 0.011,0.019 0.009,0.029 -0.003,0.01 -0.01,0.018 -0.022,0.021 -0.171,0.049 -0.326,0.12 -0.462,0.213 -0.138,0.093 -0.258,0.209 -0.362,0.349 -0.026,0.034 -0.062,0.058 -0.102,0.071 -0.041,0.012 -0.085,0.013 -0.126,0 -0.442,-0.129 -0.88,-0.276 -1.31,-0.44 -0.431,-0.164 -0.856,-0.345 -1.273,-0.542 -0.037,-0.017 -0.068,-0.043 -0.092,-0.075 -0.023,-0.032 -0.039,-0.069 -0.046,-0.109 -0.211,-1.265 -0.696,-2.533 -1.278,-3.738 -0.581,-1.206 -1.26,-2.349 -1.86,-3.361 -0.235,-0.393 -0.463,-0.776 -0.672,-1.139 -0.21,-0.364 -0.402,-0.711 -0.565,-1.033 l -0.244,-0.488 -0.244,-0.487 c -0.032,-0.064 -0.092,-0.099 -0.154,-0.103 -0.062,-0.003 -0.126,0.023 -0.167,0.081 l -0.308,0.452 -0.308,0.451 c -0.291,0.425 -0.568,0.84 -0.83,1.245 -0.262,0.406 -0.51,0.804 -0.743,1.193 -0.017,0.028 -0.044,0.04 -0.072,0.04 -0.028,-0.001 -0.055,-0.015 -0.071,-0.043 -0.722,-1.286 -1.273,-2.65 -1.644,-4.064 -0.371,-1.415 -0.561,-2.88 -0.561,-4.367 0,-1.215 0.123,-2.408 0.369,-3.572 0.246,-1.164 0.614,-2.299 1.105,-3.399 0.014,-0.032 0.035,-0.061 0.06,-0.084 0.026,-0.023 0.056,-0.041 0.09,-0.053 1.459,-0.486 2.957,-0.888 4.487,-1.203 1.53,-0.314 3.093,-0.541 4.682,-0.675 m 6.442,0.248 c 2.416,0 4.606,0.981 6.192,2.563 1.585,1.582 2.567,3.767 2.567,6.175 0,1.424 -0.351,2.802 -0.991,4.029 -0.639,1.227 -1.568,2.301 -2.721,3.113 -0.048,0.033 -0.105,0.04 -0.155,0.025 -0.05,-0.016 -0.095,-0.053 -0.117,-0.107 -0.552,-1.343 -1.238,-2.565 -1.946,-3.77 -0.709,-1.206 -1.44,-2.394 -2.083,-3.665 l -0.388,-0.768 c -0.055,-0.11 -0.16,-0.171 -0.268,-0.178 -0.108,-0.006 -0.219,0.039 -0.289,0.141 l -0.243,0.355 -0.242,0.356 c -0.987,1.439 -1.824,2.781 -2.513,4.032 -0.689,1.252 -1.232,2.414 -1.632,3.494 -0.016,0.045 -0.051,0.076 -0.092,0.088 -0.04,0.013 -0.086,0.008 -0.125,-0.019 -1.152,-0.811 -2.079,-1.879 -2.718,-3.101 -0.638,-1.222 -0.989,-2.598 -0.989,-4.025 0,-2.408 0.982,-4.593 2.567,-6.175 1.585,-1.582 3.773,-2.563 6.186,-2.563 m -5.163,-15.241 c 0.284,-0.287 0.617,-0.51 0.981,-0.659 0.364,-0.15 0.758,-0.229 1.167,-0.229 0.406,0 0.801,0.079 1.166,0.229 0.365,0.149 0.701,0.372 0.988,0.659 0.287,0.283 0.509,0.616 0.66,0.98 0.15,0.363 0.229,0.758 0.229,1.166 0,0.405 -0.079,0.798 -0.229,1.161 -0.151,0.362 -0.373,0.695 -0.66,0.978 -0.287,0.287 -0.623,0.511 -0.988,0.662 -0.365,0.153 -0.76,0.233 -1.166,0.233 -0.409,0 -0.803,-0.08 -1.167,-0.233 -0.364,-0.151 -0.697,-0.375 -0.981,-0.662 -0.287,-0.286 -0.511,-0.62 -0.662,-0.982 -0.152,-0.363 -0.232,-0.755 -0.232,-1.157 0,-0.406 0.08,-0.799 0.232,-1.162 0.151,-0.364 0.375,-0.698 0.662,-0.984 m 8.775,6.731 c 0.022,-0.113 0.101,-0.192 0.196,-0.226 0.095,-0.034 0.207,-0.022 0.297,0.049 0.748,0.596 1.803,1.406 3.059,2.295 1.256,0.889 2.713,1.857 4.264,2.767 0.035,0.021 0.064,0.043 0.079,0.059 0.015,0.017 0.016,0.025 -0.006,0.018 -1.269,-0.428 -2.558,-0.801 -3.866,-1.117 -1.306,-0.314 -2.631,-0.571 -3.97,-0.767 -0.025,-0.004 -0.046,-0.016 -0.062,-0.033 -0.015,-0.018 -0.024,-0.04 -0.025,-0.066 -0.005,-0.354 -0.036,-0.892 -0.047,-1.445 -0.01,-0.553 0,-1.12 0.081,-1.534 M -12.69,-21.89 c 0.713,1.401 0.348,3.222 -1.651,4.637 -2,1.414 -5.634,2.422 -11.459,2.196 -0.053,-10e-4 -0.096,-0.031 -0.12,-0.072 -0.024,-0.04 -0.029,-0.093 -0.006,-0.139 2.617,-5.195 5.539,-7.607 8.001,-8.341 2.461,-0.736 4.461,0.207 5.235,1.719 m -0.726,29.477 c -0.004,-0.048 0.02,-0.087 0.054,-0.107 0.035,-0.022 0.081,-0.024 0.12,0.004 0.821,0.566 1.619,1.163 2.394,1.79 0.775,0.627 1.526,1.283 2.251,1.966 0.015,0.014 0.027,0.032 0.034,0.05 0.008,0.02 0.011,0.04 0.01,0.061 -0.343,4.727 -2.029,9.116 -4.741,12.739 -2.712,3.623 -6.451,6.481 -10.901,8.147 -0.053,0.02 -0.108,0.011 -0.15,-0.018 -0.042,-0.028 -0.071,-0.075 -0.072,-0.132 -0.013,-0.604 -0.062,-1.552 -0.134,-2.467 -0.074,-0.915 -0.171,-1.798 -0.282,-2.275 -0.003,-0.016 -0.001,-0.031 0.006,-0.044 0.007,-0.013 0.018,-0.024 0.033,-0.03 3.497,-1.57 6.367,-4.075 8.363,-7.148 1.995,-3.074 3.117,-6.718 3.117,-10.564 0,-0.329 -0.009,-0.659 -0.026,-0.988 -0.017,-0.329 -0.042,-0.657 -0.076,-0.984 m 7.048,5.921 c 0.85,0.937 1.658,1.915 2.417,2.931 0.759,1.014 1.47,2.067 2.129,3.153 0.051,0.084 0.085,0.178 0.099,0.274 0.014,0.096 0.008,0.195 -0.017,0.29 -0.631,2.342 -1.69,4.731 -3.005,6.969 -1.316,2.238 -2.888,4.327 -4.546,6.069 -0.011,0.012 -0.028,0.016 -0.043,0.014 -0.016,-0.002 -0.029,-0.011 -0.032,-0.023 -0.034,-0.206 -0.115,-0.404 -0.237,-0.576 -0.121,-0.172 -0.283,-0.319 -0.481,-0.423 -0.336,-0.179 -0.715,-0.205 -1.054,-0.103 -0.339,0.103 -0.638,0.335 -0.818,0.671 -0.158,0.294 -0.327,0.571 -0.503,0.829 -0.177,0.259 -0.361,0.499 -0.55,0.721 -0.013,0.014 -0.031,0.014 -0.044,0.007 -0.013,-0.008 -0.021,-0.025 -0.015,-0.042 0.211,-0.667 0.374,-1.326 0.485,-1.969 0.111,-0.645 0.17,-1.274 0.174,-1.883 0.002,-0.359 -0.126,-0.7 -0.345,-0.96 -0.219,-0.26 -0.527,-0.439 -0.884,-0.478 -0.42,-0.046 -0.805,0.094 -1.086,0.348 -0.281,0.254 -0.457,0.621 -0.457,1.028 0,0.217 -0.009,0.436 -0.027,0.657 -0.017,0.221 -0.042,0.443 -0.074,0.668 -0.003,0.019 -0.016,0.032 -0.032,0.036 -0.016,0.004 -0.035,0 -0.047,-0.015 -0.214,-0.255 -0.503,-0.418 -0.815,-0.476 -0.311,-0.058 -0.644,-0.009 -0.943,0.161 -0.329,0.19 -0.551,0.497 -0.644,0.839 -0.092,0.342 -0.055,0.719 0.136,1.053 0.135,0.232 0.232,0.491 0.299,0.764 0.066,0.273 0.101,0.56 0.112,0.848 0,0.014 -0.009,0.023 -0.02,0.026 -0.012,0.002 -0.024,-0.003 -0.029,-0.015 -0.077,-0.189 -0.165,-0.376 -0.265,-0.567 -0.1,-0.191 -0.211,-0.384 -0.335,-0.582 -0.201,-0.325 -0.516,-0.536 -0.862,-0.615 -0.346,-0.079 -0.723,-0.027 -1.048,0.175 -0.324,0.204 -0.535,0.519 -0.615,0.865 -0.08,0.345 -0.029,0.721 0.173,1.043 0.291,0.464 0.472,0.895 0.575,1.301 0.103,0.405 0.128,0.784 0.107,1.144 -0.002,0.029 -0.014,0.04 -0.028,0.035 -0.014,-0.005 -0.03,-0.025 -0.039,-0.058 -0.124,-0.455 -0.269,-0.904 -0.435,-1.333 -0.166,-0.43 -0.353,-0.841 -0.561,-1.222 -0.182,-0.333 -0.484,-0.563 -0.823,-0.665 -0.34,-0.102 -0.718,-0.073 -1.055,0.108 -0.334,0.182 -0.565,0.485 -0.666,0.825 -0.102,0.339 -0.074,0.717 0.108,1.05 0.247,0.455 0.453,0.968 0.621,1.5 0.168,0.532 0.299,1.084 0.394,1.619 0.005,0.028 -0.013,0.046 -0.034,0.051 -0.021,0.005 -0.046,-0.004 -0.053,-0.031 -0.243,-0.83 -0.561,-1.644 -0.959,-2.375 -0.398,-0.729 -0.876,-1.375 -1.437,-1.866 -0.064,-0.054 -0.166,-0.121 -0.275,-0.186 -0.11,-0.064 -0.225,-0.125 -0.315,-0.164 -0.012,-0.006 -0.017,-0.018 -0.015,-0.031 10e-4,-0.012 0.007,-0.024 0.019,-0.029 0.028,-0.013 0.058,-0.024 0.098,-0.038 0.04,-0.014 0.089,-0.031 0.156,-0.054 2.621,-0.822 5.107,-2.062 7.353,-3.648 2.245,-1.585 4.25,-3.515 5.906,-5.719 1.327,-1.764 2.414,-3.657 3.251,-5.645 0.836,-1.988 1.423,-4.072 1.749,-6.218 0.007,-0.049 0.042,-0.085 0.084,-0.097 0.041,-0.013 0.089,-0.004 0.123,0.034 m 2.348,35.96 c 0,0.005 10e-4,0.011 0.002,0.016 0,0.004 10e-4,0.009 0.002,0.014 C -4.107,49.399 -4.2,49.302 -4.295,49.206 -4.391,49.11 -4.488,49.017 -4.588,48.925 -4.952,48.597 -5.35,48.298 -5.778,48.038 -6.206,47.779 -6.662,47.561 -7.142,47.391 -7.375,47.307 -7.615,47.238 -7.857,47.185 -8.1,47.13 -8.346,47.091 -8.593,47.066 c -0.038,-0.004 -0.062,-0.032 -0.068,-0.063 -0.005,-0.03 0.008,-0.064 0.043,-0.081 1.757,-0.821 3.485,-1.632 5.153,-2.421 1.667,-0.789 3.275,-1.556 4.793,-2.288 0.012,-0.006 0.025,-10e-4 0.03,0.009 0.006,0.01 0.006,0.022 -0.005,0.032 -1.006,0.827 -2.406,1.934 -3.526,3.182 -1.12,1.248 -1.96,2.637 -1.847,4.032 m -7.846,4.719 c -0.007,0.025 -0.027,0.041 -0.048,0.046 -0.022,0.003 -0.046,-0.003 -0.063,-0.024 -0.218,-0.273 -0.457,-0.531 -0.715,-0.772 -0.257,-0.242 -0.534,-0.465 -0.826,-0.669 -0.448,-0.313 -0.935,-0.575 -1.445,-0.784 -0.51,-0.21 -1.044,-0.365 -1.587,-0.461 -0.248,-0.045 -0.497,-0.078 -0.747,-0.099 -0.25,-0.021 -0.5,-0.03 -0.75,-0.029 -0.022,0 -0.037,-0.015 -0.041,-0.032 -0.004,-0.017 0.003,-0.037 0.023,-0.045 1.128,-0.525 2.267,-1.054 3.408,-1.583 1.141,-0.531 2.284,-1.062 3.422,-1.592 0.019,-0.009 0.04,-0.016 0.06,-0.021 0.021,-0.004 0.042,-0.007 0.064,-0.006 0.17,10e-4 0.34,0.005 0.507,0.011 0.168,0.006 0.334,0.016 0.499,0.029 0.438,0.035 0.866,0.091 1.285,0.176 0.419,0.085 0.829,0.197 1.232,0.341 0.403,0.142 0.802,0.308 1.197,0.494 0.395,0.187 0.787,0.394 1.178,0.618 0.246,0.141 0.492,0.287 0.74,0.438 0.247,0.149 0.497,0.303 0.751,0.456 -0.493,-0.027 -1.712,0.099 -2.906,0.258 -1.194,0.158 -2.364,0.348 -2.76,0.451 -0.741,0.198 -1.282,0.619 -1.677,1.13 -0.395,0.51 -0.644,1.111 -0.801,1.669 m -8.584,-9.36 c 0.108,-0.038 0.219,-0.017 0.303,0.042 0.084,0.059 0.143,0.156 0.147,0.27 0.001,0.054 0.003,0.109 0.004,0.164 0.002,0.056 0.002,0.109 0.003,0.164 0.004,0.439 -0.016,0.871 -0.064,1.296 -0.047,0.425 -0.123,0.843 -0.231,1.258 -0.109,0.428 -0.246,0.855 -0.404,1.28 -0.159,0.426 -0.339,0.849 -0.538,1.273 -0.038,0.036 -0.074,0.073 -0.11,0.108 -0.036,0.035 -0.072,0.071 -0.11,0.107 -0.82,0.373 -1.63,0.743 -2.425,1.109 -0.796,0.365 -1.577,0.725 -2.341,1.079 -0.016,0.008 -0.034,0.006 -0.048,-0.003 -0.013,-0.009 -0.022,-0.025 -0.022,-0.042 v -4.718 c 0,-0.064 0.037,-0.114 0.087,-0.138 0.05,-0.023 0.112,-0.02 0.162,0.021 0.216,0.174 0.441,0.329 0.682,0.433 0.241,0.104 0.499,0.158 0.781,0.127 0.193,-0.019 0.364,-0.089 0.522,-0.187 0.157,-0.099 0.302,-0.227 0.444,-0.364 0.521,-0.505 0.956,-1.024 1.376,-1.529 0.42,-0.505 0.826,-0.996 1.289,-1.447 0.071,-0.069 0.149,-0.129 0.232,-0.18 0.082,-0.049 0.17,-0.091 0.261,-0.123 m -0.014,-3.044 c -0.006,-0.028 -0.006,-0.047 0.002,-0.054 0.007,-0.007 0.023,-0.003 0.046,0.015 0.316,0.24 1.173,1.221 2.479,1.451 1.307,0.231 3.063,-0.288 5.18,-3.049 0.01,-0.014 0.019,-0.021 0.024,-0.02 0.005,0.001 0.005,0.009 -10e-4,0.023 -1.412,3.083 -3.238,3.957 -4.764,3.827 -1.526,-0.13 -2.753,-1.263 -2.966,-2.193 m 10.27,-1.471 c -0.104,0.476 -0.209,0.944 -0.324,1.402 -0.114,0.458 -0.238,0.906 -0.38,1.346 -0.142,0.44 -0.304,0.873 -0.484,1.302 -0.18,0.43 -0.378,0.856 -0.593,1.283 -0.091,0.185 -0.185,0.37 -0.281,0.555 -0.097,0.185 -0.194,0.371 -0.293,0.558 -0.015,0.03 -0.036,0.057 -0.06,0.08 -0.025,0.022 -0.053,0.041 -0.084,0.055 -1.135,0.492 -2.272,0.991 -3.402,1.492 -1.131,0.5 -2.255,1.003 -3.365,1.504 -0.022,0.01 -0.044,0.003 -0.058,-0.011 -0.013,-0.015 -0.018,-0.037 -0.007,-0.059 0.116,-0.232 0.222,-0.47 0.315,-0.715 0.092,-0.245 0.172,-0.495 0.238,-0.752 0.124,-0.468 0.189,-0.952 0.199,-1.437 0.01,-0.484 -0.035,-0.969 -0.131,-1.436 -0.004,-0.019 0.004,-0.035 0.016,-0.043 0.013,-0.009 0.03,-0.011 0.046,-10e-4 0.481,0.287 0.978,0.475 1.464,0.567 0.486,0.091 0.961,0.086 1.397,-0.015 0.541,-0.124 1.011,-0.471 1.485,-0.986 0.474,-0.516 0.95,-1.198 1.502,-1.992 0.393,-0.565 0.832,-1.191 1.326,-1.835 0.495,-0.645 1.045,-1.306 1.662,-1.939 0.011,-0.012 0.027,-0.013 0.038,-0.006 0.012,0.006 0.02,0.02 0.016,0.036 -0.043,0.176 -0.084,0.35 -0.124,0.525 -0.04,0.175 -0.08,0.349 -0.118,0.522 m 2.12,1.042 c 0.285,0.306 0.627,0.538 1.025,0.693 0.397,0.155 0.85,0.233 1.356,0.233 0.411,0 1.161,-0.057 2.095,-0.146 0.935,-0.088 2.055,-0.206 3.206,-0.328 0.036,-0.005 0.056,0.002 0.058,0.013 0.001,0.012 -0.014,0.029 -0.048,0.041 -1.621,0.608 -3.324,1.277 -5.076,1.988 -1.751,0.711 -3.551,1.464 -5.367,2.24 -0.031,0.014 -0.061,0.002 -0.078,-0.02 -0.017,-0.021 -0.021,-0.053 -10e-4,-0.081 0.278,-0.376 0.529,-0.776 0.747,-1.197 0.219,-0.42 0.404,-0.859 0.55,-1.312 0.163,-0.499 0.277,-1.008 0.353,-1.519 0.076,-0.51 0.113,-1.02 0.12,-1.523 0.003,-0.327 -0.003,-0.653 -0.019,-0.977 -0.016,-0.324 -0.042,-0.647 -0.079,-0.971 0.029,-0.026 0.057,-0.052 0.085,-0.079 0.028,-0.027 0.057,-0.053 0.086,-0.079 0.022,-0.018 0.05,-0.02 0.073,-0.01 0.022,0.01 0.039,0.033 0.038,0.062 -0.008,0.518 0.022,1.059 0.149,1.57 0.128,0.513 0.351,0.996 0.727,1.402 m -14.055,2.9 c 0.015,-0.016 0.025,-0.022 0.029,-0.02 0.005,10e-4 0.005,0.012 0,0.033 -0.14,0.65 -0.781,1.911 -1.606,2.629 -0.825,0.716 -1.834,0.89 -2.711,-0.632 -0.007,-0.013 0.004,-0.03 0.019,-0.04 0.015,-0.012 0.034,-0.017 0.043,-0.004 0.92,1.186 1.894,0.783 2.678,0.039 0.785,-0.744 1.382,-1.829 1.548,-2.005 m -2.563,-3.68 c 0.007,0.029 -0.008,0.05 -0.029,0.058 -0.02,0.009 -0.046,0.004 -0.06,-0.022 -0.203,-0.356 -0.418,-0.707 -0.637,-1.044 -0.219,-0.339 -0.443,-0.666 -0.664,-0.976 -0.03,-0.044 -0.064,-0.085 -0.098,-0.125 -0.034,-0.039 -0.07,-0.076 -0.106,-0.112 v -0.927 c 0.363,0.33 0.678,0.802 0.944,1.349 0.265,0.546 0.483,1.168 0.65,1.799 m -3.657,-15.302 c -0.026,0.002 -0.048,-0.013 -0.059,-0.034 -0.01,-0.02 -0.01,-0.046 0.007,-0.068 0.718,-0.907 1.128,-1.877 1.303,-2.879 0.177,-1.001 0.119,-2.033 -0.093,-3.067 -0.013,-0.063 -0.005,-0.126 0.019,-0.183 0.025,-0.056 0.066,-0.104 0.121,-0.139 1.621,-0.993 2.934,-2.377 3.841,-3.989 0.906,-1.612 1.408,-3.451 1.408,-5.354 0,-1.429 -0.277,-2.794 -0.779,-4.046 -0.502,-1.252 -1.23,-2.393 -2.133,-3.37 -0.023,-0.026 -0.022,-0.058 -0.008,-0.081 0.014,-0.025 0.043,-0.039 0.076,-0.031 1.521,0.448 3.004,0.983 4.444,1.601 1.44,0.618 2.837,1.318 4.184,2.095 0.02,0.011 0.038,0.027 0.052,0.046 0.013,0.018 0.023,0.04 0.028,0.062 0.136,0.612 0.238,1.231 0.306,1.853 0.069,0.621 0.103,1.246 0.103,1.871 0,3.48 -1.045,6.813 -2.903,9.6 -1.859,2.787 -4.53,5.029 -7.782,6.325 -0.284,-0.121 -0.599,-0.185 -0.953,-0.213 -0.354,-0.03 -0.746,-0.022 -1.182,10e-4 m -7.938,32.549 c -0.008,-0.014 -0.008,-0.026 -0.004,-0.031 0.006,-0.005 0.017,-0.004 0.032,0.005 0.32,0.202 1.59,0.817 3.202,1.071 1.613,0.254 3.566,0.148 5.253,-1.092 0.02,-0.015 0.031,-0.021 0.034,-0.018 0.003,0.004 -0.001,0.017 -0.01,0.039 -0.525,1.315 -2.305,1.941 -4.128,1.929 -1.823,-0.013 -3.688,-0.664 -4.379,-1.903 m 0.657,9.795 c -0.097,-0.226 -0.093,-0.47 -0.007,-0.681 0.086,-0.212 0.253,-0.392 0.482,-0.488 0.226,-0.093 0.469,-0.088 0.68,-0.004 0.212,0.085 0.391,0.25 0.491,0.473 0.096,0.226 0.092,0.472 0.006,0.684 -0.085,0.213 -0.252,0.391 -0.481,0.485 -0.227,0.097 -0.471,0.093 -0.683,0.008 -0.212,-0.085 -0.391,-0.25 -0.488,-0.477 m -0.26,6.151 c 0.224,-0.097 0.469,-0.091 0.681,-0.005 0.212,0.086 0.394,0.253 0.49,0.479 0.097,0.227 0.093,0.469 0.008,0.679 -0.085,0.211 -0.251,0.389 -0.477,0.485 -0.229,0.099 -0.474,0.097 -0.685,0.012 -0.211,-0.085 -0.389,-0.252 -0.486,-0.48 -0.099,-0.224 -0.097,-0.467 -0.012,-0.678 0.085,-0.212 0.252,-0.393 0.481,-0.492 m 4.834,-48.565 -3.148,-0.01 c -0.017,0 -0.035,-0.004 -0.051,-0.012 -0.016,-0.008 -0.03,-0.02 -0.041,-0.033 -0.645,-0.852 -0.544,-2.257 -0.182,-3.661 0.362,-1.404 0.986,-2.808 1.387,-3.658 0.019,-0.039 0.055,-0.059 0.092,-0.059 0.037,0 0.075,0.018 0.094,0.056 l 0.083,0.159 0.083,0.158 c 0.105,0.201 0.144,0.277 0.184,0.352 0.04,0.075 0.081,0.15 0.189,0.348 0.398,0.742 1.009,1.872 1.391,3.039 0.383,1.167 0.538,2.371 0.025,3.261 -0.01,0.018 -0.026,0.034 -0.045,0.045 -0.018,0.009 -0.04,0.015 -0.061,0.015 m 2.112,-2.46 c -0.007,0.019 -0.024,0.027 -0.039,0.025 -0.017,-0.002 -0.031,-0.013 -0.034,-0.033 -0.11,-0.783 -0.385,-1.585 -0.73,-2.375 -0.345,-0.791 -0.76,-1.568 -1.15,-2.3 -0.238,-0.442 -0.479,-0.891 -0.705,-1.337 -0.226,-0.446 -0.436,-0.889 -0.61,-1.317 l -0.251,-0.622 -0.252,-0.623 c -0.036,-0.091 -0.117,-0.137 -0.2,-0.141 -0.083,-0.003 -0.167,0.038 -0.21,0.125 l -0.3,0.6 -0.3,0.601 c -0.7,1.396 -1.331,2.698 -1.808,3.899 -0.478,1.2 -0.803,2.301 -0.892,3.293 -0.001,0.019 -0.015,0.03 -0.03,0.031 -0.014,0.002 -0.03,-0.004 -0.036,-0.021 -0.626,-1.688 -0.191,-3.802 0.625,-5.84 0.816,-2.038 2.011,-3.999 2.905,-5.381 0.024,-0.038 0.065,-0.056 0.107,-0.055 0.04,10e-4 0.08,0.022 0.104,0.062 l 0.13,0.225 0.132,0.225 c 0.124,0.215 0.16,0.277 0.199,0.341 0.039,0.065 0.08,0.132 0.215,0.359 1.157,1.941 2.19,3.795 2.808,5.519 0.618,1.724 0.822,3.318 0.322,4.74 m -0.317,5.868 c 0.002,-0.013 0.012,-0.021 0.022,-0.023 0.011,-0.001 0.022,0.004 0.025,0.017 0.514,2.145 0.723,6.531 0.701,10.933 -0.021,4.403 -0.273,8.823 -0.682,11.04 -0.005,0.028 -0.027,0.042 -0.05,0.043 -0.023,0.001 -0.046,-0.011 -0.054,-0.038 -0.552,-1.82 -0.684,-3.361 -0.681,-4.761 0.002,-1.4 0.14,-2.659 0.126,-3.916 -0.027,-1.908 -0.036,-3.756 0.042,-5.867 0.076,-2.109 0.238,-4.479 0.551,-7.428 m 9.43,28.419 c 0.012,0.079 -0.012,0.153 -0.058,0.206 -0.047,0.055 -0.116,0.089 -0.195,0.088 -0.402,-0.005 -0.813,-0.036 -1.248,-0.081 -0.435,-0.045 -0.894,-0.103 -1.393,-0.167 -0.516,-0.066 -1.061,-0.136 -1.65,-0.2 -0.589,-0.063 -1.221,-0.12 -1.911,-0.159 V 55.15 c 0.847,-0.398 1.714,-0.803 2.599,-1.216 0.884,-0.413 1.784,-0.832 2.696,-1.257 0.22,-0.01 0.439,-0.02 0.656,-0.026 0.217,-0.007 0.433,-0.012 0.648,-0.013 0.496,-0.004 0.985,0.01 1.468,0.045 0.483,0.035 0.96,0.092 1.43,0.176 0.471,0.083 0.935,0.194 1.393,0.333 0.458,0.139 0.91,0.306 1.356,0.502 0.274,0.119 0.546,0.249 0.816,0.386 0.271,0.139 0.541,0.285 0.813,0.439 0.029,0.016 0.036,0.037 0.025,0.052 -0.01,0.017 -0.037,0.028 -0.074,0.024 -0.076,-0.008 -0.151,-0.016 -0.228,-0.023 -0.077,-0.007 -0.155,-0.015 -0.234,-0.023 -0.82,-0.083 -1.697,-0.173 -2.494,-0.221 -0.797,-0.049 -1.516,-0.055 -2.018,0.028 -0.892,0.148 -1.455,0.472 -1.811,0.831 -0.355,0.359 -0.503,0.752 -0.564,1.039 -0.03,0.134 -0.045,0.268 -0.048,0.403 -0.003,0.135 0.006,0.269 0.026,0.4 M -0.083,22.774 c 1.201,2.453 2.155,5.046 2.831,7.749 0.675,2.702 1.071,5.512 1.156,8.398 0.002,0.066 -0.023,0.127 -0.064,0.173 -0.041,0.047 -0.099,0.077 -0.165,0.082 -0.424,0.034 -0.967,0.085 -1.67,0.155 -0.702,0.07 -1.565,0.161 -2.629,0.275 -1.024,0.107 -2.116,0.222 -3.04,0.311 -0.923,0.09 -1.679,0.151 -2.029,0.151 -0.185,0 -0.34,-0.019 -0.465,-0.056 -0.125,-0.037 -0.22,-0.092 -0.286,-0.164 -0.194,-0.207 -0.267,-0.616 -0.284,-1.075 -0.016,-0.46 0.024,-0.969 0.057,-1.374 0.038,-0.456 0.092,-1.097 -0.033,-1.613 -0.125,-0.516 -0.428,-0.908 -1.106,-0.864 -0.012,0 -0.022,-0.006 -0.026,-0.016 -0.005,-0.008 -0.004,-0.02 0.004,-0.029 1.674,-1.735 3.152,-3.627 4.417,-5.651 1.265,-2.024 2.316,-4.18 3.137,-6.442 0.016,-0.044 0.055,-0.067 0.094,-0.07 0.04,-0.002 0.08,0.018 0.101,0.06 M -3.811,8.141 c -1.477,-1.476 -3.04,-2.836 -4.676,-4.077 -1.637,-1.242 -3.347,-2.365 -5.12,-3.365 -0.03,-0.016 -0.036,-0.047 -0.026,-0.07 0.009,-0.024 0.034,-0.042 0.066,-0.034 1.808,0.43 3.513,0.498 4.957,0.001 1.444,-0.496 2.628,-1.558 3.391,-3.388 0.409,-0.976 0.209,-1.892 -0.359,-3.239 -0.568,-1.348 -1.505,-3.127 -2.568,-5.83 -0.452,-1.158 -0.32,-2.605 0.034,-4.089 0.355,-1.483 0.93,-3.005 1.364,-4.312 1.686,-5.121 -2.73,-7.582 -8.279,-7.248 -5.549,0.334 -12.23,3.464 -15.073,9.524 -0.01,0.02 -0.042,0.034 -0.076,0.037 -0.034,0.004 -0.071,-0.002 -0.089,-0.02 -0.746,-0.723 -1.608,-1.283 -2.545,-1.661 -0.936,-0.379 -1.945,-0.577 -2.986,-0.577 -1.006,0 -1.985,0.187 -2.896,0.543 -0.912,0.357 -1.757,0.884 -2.496,1.565 -0.046,0.042 -0.105,0.056 -0.16,0.045 -0.055,-0.01 -0.105,-0.045 -0.132,-0.103 -2.832,-6.067 -9.516,-9.202 -15.07,-9.541 -5.554,-0.339 -9.978,2.118 -8.288,7.237 0.434,1.311 1.009,2.833 1.363,4.318 0.355,1.484 0.487,2.931 0.035,4.089 -1.066,2.704 -2.002,4.481 -2.571,5.828 -0.568,1.346 -0.768,2.261 -0.362,3.241 0.809,1.938 2.087,3.015 3.648,3.471 1.56,0.457 3.402,0.291 5.337,-0.252 0.018,-0.004 0.033,0.005 0.038,0.019 0.006,0.013 0.002,0.029 -0.014,0.039 -1.911,1.032 -3.754,2.205 -5.512,3.515 -1.76,1.309 -3.436,2.756 -5.016,4.334 -4.279,4.269 -7.598,9.244 -9.847,14.66 -2.249,5.416 -3.428,11.274 -3.428,17.311 0,6.04 1.179,11.901 3.428,17.318 2.249,5.416 5.568,10.39 9.847,14.66 4.28,4.269 9.264,7.581 14.691,9.824 5.427,2.244 11.298,3.42 17.35,3.42 6.053,0 11.923,-1.176 17.35,-3.42 5.427,-2.243 10.411,-5.555 14.69,-9.824 4.28,-4.27 7.6,-9.244 9.848,-14.66 C 8.286,52.013 9.465,46.152 9.465,40.112 9.465,34.075 8.286,28.217 6.037,22.801 3.789,17.385 0.469,12.41 -3.811,8.141"
         style="fill:none;fill-rule:nonzero;stroke:#ff0000;stroke-width:0.38px"
         id="path140" />
    </g>
  </g>
</svg>
