<?xml version="1.0" encoding="UTF-8" standalone="no"?>
<!-- Created with Inkscape (http://www.inkscape.org/) -->

<svg
   width="62.762066mm"
   height="80.040657mm"
   viewBox="0 0 62.762066 80.040658"
   version="1.1"
   id="svg327"
   inkscape:version="1.1.1 (c3084ef, 2021-09-22)"
   sodipodi:docname="11.svg"
   xmlns:inkscape="http://www.inkscape.org/namespaces/inkscape"
   xmlns:sodipodi="http://sodipodi.sourceforge.net/DTD/sodipodi-0.dtd"
   xmlns="http://www.w3.org/2000/svg"
   xmlns:svg="http://www.w3.org/2000/svg">
  <sodipodi:namedview
     id="namedview329"
     pagecolor="#ffffff"
     bordercolor="#666666"
     borderopacity="1.0"
     inkscape:pageshadow="2"
     inkscape:pageopacity="0.0"
     inkscape:pagecheckerboard="0"
     inkscape:document-units="mm"
     showgrid="false"
     fit-margin-top="0"
     fit-margin-left="0"
     fit-margin-right="0"
     fit-margin-bottom="0"
     inkscape:zoom="0.64052329"
     inkscape:cx="-258.38249"
     inkscape:cy="133.48461"
     inkscape:window-width="1312"
     inkscape:window-height="963"
     inkscape:window-x="603"
     inkscape:window-y="25"
     inkscape:window-maximized="0"
     inkscape:current-layer="layer1" />
  <defs
     id="defs324" />
  <g
     inkscape:label="Layer 1"
     inkscape:groupmode="layer"
     id="layer1"
     transform="translate(-50.242753,-113.32577)">
    <g
       transform="matrix(0.70555643,0,0,0.70555643,103.72393,167.67712)"
       id="g134"
       style="clip-rule:evenodd;fill-rule:evenodd;stroke-linejoin:round;stroke-miterlimit:2">
      <path
         d="m 0,-41.013 c -1.205,-1.236 -2.47,-2.392 -3.787,-3.464 -1.317,-1.073 -2.685,-2.062 -4.097,-2.967 -0.058,-0.037 -0.07,-0.1 -0.05,-0.151 0.021,-0.05 0.073,-0.088 0.141,-0.075 1.723,0.334 3.336,0.318 4.702,-0.225 1.366,-0.542 2.487,-1.611 3.221,-3.382 0.419,-1.004 0.216,-1.942 -0.365,-3.323 -0.581,-1.38 -1.539,-3.202 -2.629,-5.974 -0.467,-1.187 -0.333,-2.669 0.029,-4.192 0.362,-1.521 0.953,-3.082 1.398,-4.425 1.749,-5.31 -2.907,-7.828 -8.688,-7.412 -5.781,0.415 -12.689,3.765 -15.446,10.189 -0.765,-0.73 -1.645,-1.295 -2.599,-1.679 -0.954,-0.383 -1.981,-0.584 -3.04,-0.584 -1.044,0 -2.06,0.195 -3.002,0.568 -0.943,0.374 -1.815,0.925 -2.574,1.638 -2.709,-6.492 -9.638,-9.885 -15.45,-10.323 -5.812,-0.439 -10.506,2.078 -8.745,7.405 0.444,1.343 1.034,2.903 1.396,4.426 0.362,1.521 0.497,3.005 0.029,4.192 -1.089,2.771 -2.048,4.593 -2.629,5.974 -0.582,1.38 -0.787,2.319 -0.371,3.322 0.747,1.798 1.892,2.872 3.289,3.406 1.399,0.535 3.049,0.531 4.807,0.168 0.064,-0.012 0.113,0.023 0.132,0.071 0.019,0.047 0.009,0.107 -0.047,0.142 -1.487,0.929 -2.926,1.951 -4.308,3.065 -1.381,1.113 -2.707,2.317 -3.968,3.61 -4.179,4.272 -7.418,9.247 -9.614,14.663 -2.194,5.417 -3.345,11.275 -3.345,17.315 0,6.04 1.151,11.899 3.345,17.318 2.196,5.419 5.435,10.396 9.614,14.672 4.18,4.277 9.052,7.594 14.359,9.841 5.307,2.247 11.048,3.424 16.963,3.424 5.922,0 11.665,-1.177 16.973,-3.424 C -9.049,30.549 -4.178,27.232 0,22.955 4.181,18.682 7.422,13.706 9.617,8.287 c 2.196,-5.418 3.347,-11.279 3.347,-17.322 0,-6.04 -1.151,-11.899 -3.347,-17.317 C 7.422,-31.769 4.181,-36.743 0,-41.013 m -29.008,-17.332 c -0.291,0.294 -0.633,0.521 -1.006,0.676 -0.372,0.154 -0.777,0.234 -1.196,0.234 -0.419,0 -0.823,-0.08 -1.197,-0.235 -0.374,-0.155 -0.716,-0.384 -1.011,-0.681 -0.294,-0.294 -0.521,-0.636 -0.676,-1.008 -0.154,-0.372 -0.235,-0.773 -0.235,-1.186 0,-0.415 0.081,-0.819 0.235,-1.191 0.156,-0.373 0.385,-0.714 0.682,-1.008 0.292,-0.294 0.633,-0.522 1.006,-0.676 0.373,-0.155 0.777,-0.236 1.196,-0.236 0.419,0 0.824,0.081 1.196,0.236 0.373,0.154 0.715,0.382 1.006,0.676 h 0.006 c 0.294,0.294 0.523,0.635 0.677,1.008 0.154,0.372 0.234,0.776 0.234,1.191 0,0.413 -0.08,0.816 -0.235,1.189 -0.155,0.373 -0.384,0.717 -0.682,1.011 M 6.493,-1.028 4.506,-1.909 2.52,-2.792 4.869,-7.078 7.218,-11.365 c 0.096,1.734 0.087,3.465 -0.033,5.19 -0.12,1.725 -0.349,3.442 -0.692,5.147 m -10.772,20.194 -2.367,-5.101 -2.367,-5.1 2.839,-2.508 2.84,-2.508 2.541,3.718 2.542,3.717 c -0.841,1.42 -1.766,2.782 -2.772,4.08 -1.006,1.298 -2.093,2.534 -3.256,3.702 m -2.684,2.466 c -0.541,0.061 -1.089,0.111 -1.642,0.147 -0.554,0.036 -1.115,0.059 -1.681,0.067 0.051,-0.034 0.154,-0.12 0.258,-0.207 0.102,-0.086 0.206,-0.172 0.257,-0.206 0.549,0.255 1.042,0.142 1.367,-0.128 0.324,-0.269 0.481,-0.695 0.36,-1.065 0.209,-0.161 0.349,-0.265 0.475,-0.365 0.126,-0.102 0.238,-0.2 0.39,-0.353 l 0.38,0.822 0.379,0.824 c -0.09,0.079 -0.181,0.156 -0.271,0.233 -0.091,0.077 -0.182,0.153 -0.272,0.231 m -29.37,8.515 c 0.093,-0.034 0.178,-0.076 0.257,-0.125 0.078,-0.049 0.15,-0.103 0.219,-0.163 0.059,-0.059 0.11,-0.126 0.154,-0.196 0.045,-0.072 0.083,-0.146 0.117,-0.223 0.541,-0.051 1.077,-0.105 1.611,-0.165 0.535,-0.059 1.067,-0.123 1.599,-0.19 0.025,0.053 0.055,0.099 0.086,0.143 0.031,0.044 0.064,0.085 0.095,0.128 0.11,0.102 0.242,0.185 0.385,0.242 0.144,0.059 0.3,0.091 0.458,0.091 0.162,0 0.319,-0.032 0.46,-0.091 0.142,-0.057 0.268,-0.14 0.368,-0.242 0.085,-0.082 0.156,-0.176 0.212,-0.276 0.054,-0.101 0.093,-0.208 0.11,-0.319 0.456,-0.073 0.908,-0.152 1.357,-0.236 0.449,-0.084 0.893,-0.173 1.332,-0.267 0.026,0.035 0.051,0.069 0.076,0.1 0.026,0.032 0.051,0.062 0.077,0.087 0.107,0.11 0.233,0.198 0.374,0.258 0.141,0.06 0.297,0.093 0.464,0.093 0.164,0 0.317,-0.033 0.456,-0.093 0.139,-0.06 0.265,-0.148 0.376,-0.258 0.093,-0.085 0.169,-0.185 0.224,-0.298 0.056,-0.113 0.093,-0.239 0.11,-0.375 0.49,-0.118 0.976,-0.241 1.457,-0.368 0.48,-0.127 0.955,-0.257 1.419,-0.39 0.008,0.018 0.021,0.031 0.034,0.043 0.012,0.013 0.025,0.026 0.034,0.042 0.11,0.108 0.236,0.192 0.376,0.247 0.14,0.057 0.295,0.087 0.462,0.087 0.164,0 0.321,-0.03 0.463,-0.087 0.14,-0.055 0.266,-0.139 0.369,-0.247 0.101,-0.092 0.18,-0.206 0.237,-0.332 0.056,-0.126 0.088,-0.264 0.097,-0.408 0.39,-0.125 0.772,-0.252 1.144,-0.382 0.372,-0.129 0.735,-0.261 1.086,-0.393 0.009,0.008 0.022,0.017 0.034,0.027 0.013,0.011 0.026,0.023 0.034,0.041 0.105,0.099 0.232,0.184 0.374,0.243 0.141,0.061 0.297,0.096 0.459,0.096 0.158,0 0.315,-0.035 0.46,-0.096 0.143,-0.059 0.275,-0.144 0.382,-0.243 0.103,-0.11 0.188,-0.24 0.248,-0.384 0.058,-0.142 0.092,-0.298 0.092,-0.459 v -0.034 c 0.388,-0.167 0.772,-0.335 1.146,-0.504 0.373,-0.169 0.737,-0.339 1.085,-0.508 0.107,0.093 0.229,0.169 0.362,0.223 0.133,0.053 0.277,0.082 0.431,0.082 0.161,0 0.316,-0.033 0.46,-0.093 0.142,-0.059 0.272,-0.144 0.383,-0.246 0.034,-0.034 0.062,-0.07 0.088,-0.109 0.027,-0.039 0.051,-0.08 0.077,-0.123 0.452,0.017 0.902,0.026 1.348,0.026 0.445,0 0.887,-0.009 1.323,-0.026 -5.044,3.58 -9.497,5.28 -13.83,6.067 -4.332,0.787 -8.546,0.659 -13.111,0.583 M -64.379,11.413 c -0.798,-1.352 -1.515,-2.747 -2.148,-4.18 -0.633,-1.433 -1.18,-2.903 -1.639,-4.404 0.125,0.082 0.248,0.163 0.371,0.242 0.123,0.08 0.246,0.159 0.371,0.238 0.124,0.079 0.247,0.158 0.371,0.239 0.123,0.08 0.246,0.16 0.37,0.242 -0.005,0.187 -0.011,0.374 -0.017,0.56 -0.007,0.187 -0.014,0.373 -0.022,0.56 -0.023,0.689 -0.081,0.969 0.043,1.085 0.124,0.116 0.429,0.071 1.134,0.114 0.204,0.011 0.408,0.023 0.611,0.033 0.203,0.012 0.406,0.023 0.607,0.034 -0.116,0.199 -0.233,0.395 -0.349,0.591 -0.116,0.197 -0.232,0.394 -0.348,0.591 -0.393,0.668 -0.633,0.926 -0.613,1.111 0.019,0.186 0.296,0.297 0.936,0.67 0.637,0.376 0.869,0.565 1.04,0.492 0.172,-0.073 0.282,-0.407 0.675,-1.074 0.116,-0.198 0.232,-0.395 0.348,-0.593 0.117,-0.199 0.233,-0.396 0.349,-0.594 0.104,0.158 0.209,0.315 0.313,0.471 0.105,0.158 0.21,0.315 0.315,0.473 0.374,0.563 0.481,0.825 0.645,0.871 0.164,0.045 0.385,-0.128 0.986,-0.435 0.167,-0.085 0.334,-0.17 0.501,-0.256 0.168,-0.085 0.336,-0.171 0.506,-0.259 0.159,0.085 0.318,0.17 0.478,0.254 0.16,0.085 0.32,0.17 0.479,0.255 0.583,0.308 0.796,0.474 0.958,0.428 0.161,-0.048 0.27,-0.309 0.644,-0.858 0.108,-0.158 0.215,-0.315 0.321,-0.472 0.108,-0.156 0.213,-0.311 0.319,-0.466 0.113,0.197 0.226,0.396 0.34,0.596 0.112,0.2 0.225,0.399 0.338,0.596 0.236,0.413 0.34,0.75 0.478,0.932 0.137,0.181 0.307,0.208 0.672,0.002 0.076,-0.045 0.154,-0.091 0.233,-0.135 0.078,-0.045 0.158,-0.089 0.237,-0.131 -0.776,1.685 -1.55,3.371 -2.324,5.059 -0.774,1.687 -1.548,3.375 -2.324,5.063 -1.2,-1.187 -2.321,-2.447 -3.357,-3.773 -1.036,-1.327 -1.987,-2.719 -2.848,-4.172 m -5.553,-20.448 c 0,-3.567 0.459,-7.063 1.349,-10.416 0.89,-3.354 2.21,-6.566 3.934,-9.565 0.052,-0.091 0.135,-0.154 0.229,-0.184 0.094,-0.031 0.198,-0.027 0.294,0.016 l 3.958,1.782 3.958,1.783 c 0.098,0.044 0.164,0.127 0.19,0.22 0.028,0.094 0.015,0.199 -0.044,0.288 l -1.964,2.923 -1.963,2.923 c -0.173,0.258 -0.252,0.556 -0.239,0.85 0.012,0.294 0.117,0.584 0.312,0.824 0.193,0.243 0.453,0.409 0.738,0.485 0.284,0.076 0.593,0.064 0.881,-0.05 l 6.424,-2.478 c 0.034,-0.014 0.07,-0.011 0.101,0.004 0.03,0.014 0.054,0.041 0.065,0.076 l 0.595,1.951 0.594,1.951 c 0.207,0.671 0.412,1.342 0.617,2.015 0.206,0.672 0.411,1.345 0.617,2.018 0.049,0.155 0.12,0.296 0.212,0.421 0.091,0.125 0.201,0.235 0.326,0.326 0.125,0.087 0.265,0.155 0.414,0.199 0.149,0.044 0.308,0.063 0.469,0.055 0.326,-0.014 0.624,-0.139 0.858,-0.339 0.234,-0.2 0.402,-0.476 0.467,-0.792 l 0.852,-4.134 0.851,-4.134 c 0.009,-0.041 0.031,-0.075 0.062,-0.099 0.031,-0.024 0.07,-0.037 0.111,-0.035 l 2.177,0.12 2.176,0.12 c 0.037,0.002 0.066,0.021 0.082,0.048 0.017,0.028 0.021,0.063 0.006,0.096 -0.682,1.492 -1.366,2.984 -2.049,4.475 -0.684,1.49 -1.369,2.98 -2.055,4.47 -0.694,1.513 -1.388,3.027 -2.083,4.54 -0.694,1.515 -1.39,3.029 -2.083,4.541 h -0.492 c -0.165,-10e-4 -0.329,-0.002 -0.494,-0.005 -0.164,0 -0.328,-0.001 -0.492,-0.002 -0.164,-0.002 -0.328,-0.003 -0.493,-0.003 0.085,-0.17 0.17,-0.34 0.255,-0.509 l 0.255,-0.51 c 0.3,-0.598 0.475,-0.822 0.433,-0.986 -0.041,-0.164 -0.297,-0.269 -0.858,-0.631 -0.155,-0.099 -0.31,-0.199 -0.467,-0.3 -0.155,-0.099 -0.311,-0.2 -0.467,-0.3 -0.005,-0.183 -0.012,-0.368 -0.019,-0.553 -0.008,-0.186 -0.015,-0.37 -0.021,-0.554 -0.025,-0.668 0.016,-0.942 -0.104,-1.063 -0.12,-0.12 -0.401,-0.085 -1.072,-0.136 -0.188,-0.015 -0.375,-0.029 -0.565,-0.042 -0.188,-0.015 -0.379,-0.029 -0.568,-0.043 0.122,-0.206 0.245,-0.414 0.368,-0.623 0.123,-0.208 0.246,-0.417 0.368,-0.627 0.379,-0.642 0.603,-0.886 0.574,-1.062 -0.028,-0.175 -0.308,-0.281 -0.936,-0.645 -0.629,-0.368 -0.859,-0.561 -1.027,-0.5 -0.169,0.059 -0.276,0.372 -0.655,1.014 -0.122,0.209 -0.245,0.418 -0.368,0.627 -0.123,0.21 -0.246,0.419 -0.368,0.628 L -56.02,-9.04 c -0.105,-0.159 -0.209,-0.318 -0.314,-0.476 -0.371,-0.562 -0.479,-0.824 -0.644,-0.868 -0.165,-0.045 -0.386,0.128 -0.987,0.433 -0.167,0.087 -0.332,0.173 -0.498,0.259 -0.165,0.086 -0.331,0.17 -0.498,0.255 -0.161,-0.085 -0.322,-0.169 -0.483,-0.254 -0.16,-0.085 -0.321,-0.17 -0.479,-0.255 -0.583,-0.305 -0.797,-0.471 -0.958,-0.424 -0.162,0.047 -0.27,0.308 -0.644,0.86 -0.108,0.155 -0.214,0.311 -0.32,0.467 -0.106,0.156 -0.213,0.313 -0.32,0.471 -0.122,-0.209 -0.242,-0.42 -0.362,-0.63 -0.12,-0.212 -0.241,-0.424 -0.363,-0.636 -0.368,-0.648 -0.468,-0.963 -0.635,-1.027 -0.167,-0.063 -0.401,0.125 -1.035,0.484 -0.631,0.359 -0.911,0.463 -0.941,0.638 -0.031,0.175 0.188,0.422 0.556,1.07 0.122,0.212 0.242,0.423 0.362,0.634 0.12,0.21 0.238,0.421 0.357,0.632 -0.189,0.012 -0.378,0.023 -0.566,0.035 -0.188,0.01 -0.376,0.022 -0.566,0.034 -0.668,0.042 -0.95,0.004 -1.073,0.12 -0.123,0.117 -0.088,0.389 -0.121,1.05 -0.009,0.186 -0.023,0.375 -0.035,0.563 -0.012,0.189 -0.022,0.378 -0.022,0.568 -0.162,0.096 -0.321,0.197 -0.481,0.297 -0.16,0.102 -0.32,0.204 -0.481,0.302 -0.561,0.354 -0.816,0.455 -0.857,0.619 -0.042,0.164 0.129,0.391 0.421,0.993 0.082,0.169 0.164,0.34 0.247,0.512 0.082,0.171 0.166,0.342 0.251,0.512 -0.15,-0.003 -0.299,-0.005 -0.448,-0.006 -0.148,-0.002 -0.296,-0.003 -0.447,-0.006 -0.147,0 -0.294,-10e-4 -0.442,-0.003 -0.148,-0.001 -0.297,-0.003 -0.446,-0.003 -0.105,-0.588 -0.197,-1.18 -0.276,-1.776 -0.079,-0.596 -0.146,-1.195 -0.2,-1.797 -0.054,-0.602 -0.095,-1.206 -0.122,-1.812 -0.028,-0.607 -0.042,-1.216 -0.042,-1.83 m 59.623,29.863 c -0.207,0.128 -0.475,0.315 -0.752,0.503 -0.275,0.187 -0.558,0.374 -0.793,0.498 -0.901,0 -1.982,-0.082 -3.044,-0.199 -1.064,-0.118 -2.108,-0.27 -2.935,-0.412 1.637,-0.669 3.223,-1.434 4.736,-2.305 1.514,-0.871 2.955,-1.848 4.3,-2.943 l 0.637,1.346 0.637,1.347 c -0.159,0.161 -0.277,0.285 -0.411,0.414 -0.133,0.128 -0.283,0.262 -0.506,0.439 -0.1,-0.093 -0.217,-0.165 -0.347,-0.214 -0.131,-0.048 -0.274,-0.074 -0.424,-0.074 -0.164,0 -0.321,0.03 -0.463,0.087 -0.14,0.057 -0.266,0.142 -0.369,0.252 -0.107,0.11 -0.195,0.236 -0.256,0.377 -0.06,0.141 -0.095,0.296 -0.095,0.466 0,0.073 0.008,0.144 0.024,0.213 0.015,0.069 0.036,0.137 0.061,0.205 m -0.141,-5.7 c -1.54,1.187 -3.209,2.227 -4.97,3.131 -1.762,0.905 -3.615,1.675 -5.526,2.326 -1.333,-0.311 -2.675,-0.686 -4.013,-1.116 -1.339,-0.429 -2.673,-0.914 -3.992,-1.446 l 0.17,-1.766 0.17,-1.768 c 2.494,2.372 3.569,3.708 4.009,3.592 0.44,-0.117 0.245,-1.686 0.197,-5.124 2.895,2.002 4.192,3.177 4.616,2.987 0.424,-0.189 -0.024,-1.746 -0.619,-5.21 l 0.056,-0.034 c 3.026,1.62 4.442,2.651 4.862,2.454 0.42,-0.197 -0.155,-1.622 -1.109,-4.913 2.344,1.255 3.654,2.268 4.191,2.325 0.537,0.057 0.302,-0.844 -0.443,-3.417 0.555,1.204 1.11,2.41 1.663,3.617 0.555,1.206 1.108,2.414 1.661,3.621 -0.154,0.124 -0.309,0.252 -0.464,0.377 -0.155,0.125 -0.31,0.248 -0.459,0.364 m -25.986,-0.791 c -0.531,-0.32 -1.059,-0.648 -1.578,-0.983 -0.518,-0.334 -1.028,-0.675 -1.523,-1.019 0.107,-0.06 0.212,-0.122 0.312,-0.193 0.101,-0.07 0.197,-0.149 0.287,-0.243 0.179,-0.178 0.328,-0.385 0.438,-0.611 0.11,-0.227 0.183,-0.475 0.208,-0.735 0.06,0.142 0.132,0.276 0.214,0.4 0.082,0.124 0.174,0.236 0.273,0.336 0.203,0.203 0.45,0.369 0.723,0.483 0.273,0.114 0.573,0.178 0.885,0.178 0.305,0 0.601,-0.064 0.872,-0.178 0.27,-0.114 0.514,-0.28 0.719,-0.483 0.192,-0.193 0.352,-0.419 0.465,-0.671 0.115,-0.253 0.183,-0.531 0.191,-0.828 0.043,0.076 0.093,0.148 0.146,0.217 0.055,0.067 0.115,0.13 0.177,0.19 0.209,0.201 0.453,0.365 0.723,0.478 0.269,0.115 0.565,0.178 0.879,0.178 0.311,0 0.607,-0.063 0.876,-0.178 0.267,-0.113 0.508,-0.277 0.71,-0.478 0.206,-0.203 0.372,-0.443 0.485,-0.711 0.114,-0.268 0.177,-0.561 0.177,-0.872 V 8.427 c 0.025,0.034 0.05,0.07 0.078,0.102 0.027,0.032 0.057,0.062 0.092,0.085 0.2,0.203 0.441,0.367 0.709,0.48 0.268,0.114 0.564,0.175 0.876,0.175 0.314,0 0.609,-0.061 0.877,-0.175 0.269,-0.113 0.509,-0.277 0.713,-0.48 0.209,-0.204 0.373,-0.444 0.486,-0.711 0.111,-0.267 0.171,-0.559 0.171,-0.867 0,-0.079 0,-0.153 -0.004,-0.223 -0.004,-0.069 -0.013,-0.137 -0.031,-0.201 0.009,0.009 0.018,0.016 0.029,0.024 0.01,0.01 0.023,0.021 0.04,0.039 0.201,0.206 0.441,0.371 0.71,0.485 0.267,0.113 0.563,0.176 0.875,0.176 0.314,0 0.61,-0.063 0.878,-0.176 0.268,-0.114 0.508,-0.279 0.713,-0.485 0.21,-0.21 0.374,-0.454 0.485,-0.722 0.112,-0.269 0.172,-0.563 0.172,-0.873 0,-0.128 -0.009,-0.255 -0.029,-0.379 -0.018,-0.125 -0.048,-0.246 -0.09,-0.362 0.17,0.11 0.36,0.193 0.561,0.25 0.201,0.055 0.412,0.084 0.621,0.084 0.315,0 0.615,-0.063 0.887,-0.175 0.271,-0.113 0.515,-0.276 0.716,-0.476 0.009,-0.009 0.016,-0.021 0.027,-0.034 0.011,-0.013 0.024,-0.025 0.041,-0.034 0.704,0.043 1.403,0.055 2.087,0.036 0.684,-0.019 1.355,-0.069 2.006,-0.154 l -0.043,0.05 -0.042,0.051 c -1.857,2.347 -4.184,4.257 -6.794,5.779 -2.61,1.523 -5.505,2.658 -8.497,3.456 -0.985,0.262 -1.981,0.492 -2.981,0.686 -0.999,0.194 -2,0.354 -2.998,0.479 m 4.111,2.211 c -0.113,-0.063 -0.224,-0.12 -0.335,-0.175 -0.112,-0.056 -0.226,-0.112 -0.345,-0.17 l 0.043,-0.185 0.042,-0.183 0.298,0.356 z M -50.48,0.606 c 0.073,0.003 0.148,0.005 0.224,0.005 0.075,0.001 0.152,0.001 0.229,0.001 h 0.453 c -0.037,0.082 -0.074,0.163 -0.111,0.242 -0.037,0.08 -0.074,0.159 -0.11,0.238 -0.037,0.083 -0.074,0.164 -0.111,0.244 -0.036,0.079 -0.073,0.158 -0.111,0.238 -0.036,-0.08 -0.074,-0.16 -0.113,-0.241 -0.039,-0.08 -0.079,-0.161 -0.118,-0.241 -0.04,-0.082 -0.079,-0.162 -0.118,-0.243 -0.039,-0.08 -0.077,-0.161 -0.114,-0.243 m 6.539,-27.397 1.327,1.868 1.326,1.868 c 0.037,0.052 0.036,0.113 0.01,0.161 -0.027,0.047 -0.078,0.081 -0.142,0.078 l -2.226,-0.122 -2.226,-0.121 c -0.352,-0.019 -0.683,0.091 -0.943,0.292 -0.261,0.201 -0.453,0.494 -0.524,0.839 l -0.391,1.893 -0.393,1.892 c -0.01,0.049 -0.049,0.074 -0.089,0.076 -0.04,0.002 -0.081,-0.02 -0.096,-0.067 l -0.585,-1.92 -0.586,-1.919 c -0.119,-0.394 -0.394,-0.694 -0.736,-0.86 -0.342,-0.165 -0.75,-0.195 -1.132,-0.045 l -1.713,0.66 -1.712,0.66 c -0.053,0.021 -0.104,0.001 -0.133,-0.036 -0.03,-0.036 -0.037,-0.09 -0.006,-0.138 l 2.37,-3.532 c 0.116,-0.173 0.191,-0.366 0.223,-0.567 0.032,-0.202 0.02,-0.409 -0.036,-0.61 -0.057,-0.2 -0.158,-0.384 -0.292,-0.539 -0.132,-0.155 -0.3,-0.281 -0.49,-0.365 l -2.407,-1.086 -2.408,-1.086 c -0.099,-0.044 -0.136,-0.14 -0.122,-0.226 0.014,-0.087 0.08,-0.166 0.187,-0.178 l 3.043,-0.319 3.043,-0.317 c 0.292,-0.028 0.56,-0.147 0.774,-0.33 0.213,-0.184 0.373,-0.431 0.45,-0.717 l 0.957,-3.638 0.958,-3.64 c 0.02,-0.08 0.088,-0.122 0.156,-0.125 0.068,-0.003 0.138,0.034 0.165,0.112 l 1.056,3.004 1.055,3.004 c 0.114,0.319 0.333,0.577 0.607,0.742 0.275,0.165 0.604,0.239 0.938,0.191 l 1.898,-0.271 1.897,-0.271 c 0.044,-0.006 0.079,0.015 0.098,0.047 0.018,0.032 0.019,0.074 -0.009,0.108 l -1.546,1.921 -1.545,1.921 c -0.198,0.246 -0.302,0.543 -0.312,0.843 -0.009,0.301 0.077,0.605 0.262,0.865 m 7.76,-6.775 c 0.108,-0.133 0.188,-0.28 0.24,-0.434 0.05,-0.156 0.075,-0.318 0.072,-0.482 l 0.555,-0.237 0.554,-0.237 0.72,-0.303 0.72,-0.302 c 0.077,-0.032 0.154,-0.009 0.203,0.042 0.049,0.051 0.07,0.128 0.035,0.204 -0.857,1.869 -1.716,3.737 -2.574,5.604 -0.859,1.867 -1.717,3.733 -2.573,5.599 -0.03,0.064 -0.087,0.099 -0.148,0.105 -0.06,0.006 -0.123,-0.019 -0.163,-0.075 l -1.231,-1.74 -1.233,-1.738 2.412,-3.003 z m 9.199,10.15 c -0.214,0.322 -0.456,0.648 -0.725,0.975 -0.27,0.328 -0.565,0.658 -0.888,0.988 -0.025,-0.084 -0.063,-0.165 -0.11,-0.24 -0.048,-0.074 -0.105,-0.141 -0.167,-0.201 -0.107,-0.107 -0.233,-0.195 -0.374,-0.256 -0.141,-0.061 -0.297,-0.094 -0.464,-0.094 -0.133,0 -0.265,0.025 -0.388,0.069 -0.124,0.045 -0.24,0.108 -0.341,0.184 0.007,-0.042 0.016,-0.085 0.022,-0.126 0.007,-0.042 0.011,-0.085 0.011,-0.127 0,-0.159 -0.033,-0.315 -0.095,-0.457 -0.061,-0.143 -0.148,-0.273 -0.256,-0.38 -0.11,-0.105 -0.236,-0.192 -0.376,-0.251 -0.139,-0.061 -0.292,-0.095 -0.456,-0.095 -0.133,0 -0.264,0.021 -0.385,0.061 -0.122,0.041 -0.235,0.101 -0.334,0.177 0.031,-0.068 0.055,-0.14 0.072,-0.216 0.015,-0.076 0.024,-0.155 0.024,-0.237 0,-0.161 -0.032,-0.316 -0.094,-0.457 -0.06,-0.141 -0.149,-0.267 -0.262,-0.368 -0.1,-0.11 -0.226,-0.199 -0.367,-0.261 -0.14,-0.061 -0.295,-0.096 -0.455,-0.096 -0.085,0 -0.162,0.009 -0.238,0.024 -0.075,0.015 -0.149,0.036 -0.226,0.061 0.026,-0.059 0.047,-0.123 0.062,-0.187 0.015,-0.066 0.023,-0.132 0.023,-0.197 0,-0.169 -0.032,-0.326 -0.092,-0.466 -0.061,-0.141 -0.148,-0.267 -0.259,-0.376 -0.051,-0.049 -0.11,-0.094 -0.173,-0.136 -0.063,-0.041 -0.13,-0.08 -0.194,-0.113 l 1.519,-3.312 1.52,-3.31 c 0.022,-0.049 0.068,-0.073 0.114,-0.073 0.046,0 0.092,0.024 0.114,0.073 l 4.25,9.232 c 0.015,0.03 0.021,0.064 0.018,0.096 -0.002,0.032 -0.012,0.063 -0.03,0.092 m 2,5.667 c -0.023,-0.026 -0.047,-0.047 -0.07,-0.066 -0.022,-0.019 -0.044,-0.036 -0.06,-0.052 0.115,-0.035 0.224,-0.08 0.326,-0.14 0.1,-0.061 0.194,-0.135 0.279,-0.229 l 1.265,2.769 1.265,2.767 c -0.724,0.043 -1.478,0.022 -2.253,-0.054 -0.775,-0.075 -1.571,-0.205 -2.377,-0.381 -0.017,-0.11 -0.05,-0.21 -0.095,-0.305 -0.045,-0.094 -0.104,-0.184 -0.171,-0.271 0.348,0.036 0.669,-0.085 0.903,-0.3 0.235,-0.215 0.382,-0.523 0.382,-0.859 0,-0.167 -0.034,-0.331 -0.1,-0.482 -0.066,-0.149 -0.164,-0.285 -0.291,-0.395 0.187,0.025 0.368,0.004 0.537,-0.055 0.168,-0.059 0.324,-0.154 0.46,-0.279 0.11,-0.11 0.195,-0.236 0.253,-0.377 0.056,-0.142 0.086,-0.299 0.086,-0.471 0,-0.158 -0.03,-0.309 -0.086,-0.446 -0.058,-0.138 -0.143,-0.264 -0.253,-0.374 m 5.559,18.434 c -0.195,-0.161 -0.415,-0.288 -0.653,-0.375 -0.239,-0.087 -0.496,-0.134 -0.769,-0.134 -0.302,0 -0.598,0.064 -0.868,0.179 -0.27,0.114 -0.516,0.279 -0.717,0.484 -0.127,0.132 -0.242,0.279 -0.337,0.437 -0.095,0.157 -0.171,0.325 -0.223,0.501 -1.149,-0.218 -2.305,-0.505 -3.457,-0.852 -1.153,-0.348 -2.3,-0.756 -3.433,-1.217 -0.838,-0.354 -1.661,-0.733 -2.467,-1.142 -0.806,-0.408 -1.594,-0.847 -2.361,-1.318 0.008,-0.018 0.013,-0.034 0.015,-0.054 0.002,-0.019 0.002,-0.04 0.002,-0.065 0,-0.074 -0.009,-0.145 -0.024,-0.213 -0.014,-0.07 -0.036,-0.138 -0.061,-0.205 0.076,0.033 0.157,0.063 0.241,0.085 0.084,0.02 0.172,0.033 0.263,0.033 0.161,0 0.318,-0.033 0.46,-0.095 0.142,-0.06 0.27,-0.148 0.372,-0.256 0.107,-0.101 0.195,-0.227 0.255,-0.369 0.062,-0.141 0.096,-0.298 0.096,-0.462 0,-0.091 -0.009,-0.178 -0.028,-0.263 -0.019,-0.084 -0.049,-0.164 -0.091,-0.24 0.051,0.017 0.102,0.03 0.152,0.038 0.051,0.008 0.103,0.013 0.154,0.013 0.167,0 0.324,-0.034 0.465,-0.095 0.143,-0.06 0.27,-0.148 0.378,-0.256 0.085,-0.085 0.157,-0.185 0.214,-0.296 0.058,-0.113 0.1,-0.236 0.125,-0.366 0.074,0.043 0.158,0.078 0.249,0.103 0.091,0.025 0.191,0.039 0.295,0.039 0.158,0 0.315,-0.035 0.455,-0.096 0.141,-0.059 0.267,-0.144 0.366,-0.243 0.026,-0.025 0.046,-0.052 0.066,-0.077 0.018,-0.025 0.036,-0.051 0.053,-0.076 0.025,0.271 0.102,0.529 0.216,0.762 0.115,0.233 0.268,0.443 0.446,0.618 0.201,0.201 0.446,0.365 0.717,0.478 0.27,0.114 0.565,0.178 0.869,0.178 0.313,0 0.614,-0.064 0.886,-0.178 0.273,-0.113 0.517,-0.277 0.721,-0.478 0.127,-0.124 0.24,-0.272 0.335,-0.432 0.094,-0.16 0.169,-0.334 0.22,-0.513 0.034,0.072 0.072,0.136 0.114,0.196 0.043,0.059 0.09,0.113 0.141,0.161 0.098,0.101 0.226,0.186 0.368,0.246 0.142,0.059 0.3,0.093 0.458,0.093 0.17,0 0.326,-0.034 0.468,-0.093 0.141,-0.06 0.268,-0.145 0.381,-0.246 0.099,-0.099 0.183,-0.222 0.242,-0.358 0.058,-0.135 0.092,-0.284 0.092,-0.434 h 0.035 c 0.05,0.167 0.126,0.328 0.219,0.478 0.094,0.151 0.207,0.291 0.335,0.415 0.203,0.201 0.445,0.366 0.712,0.479 0.269,0.114 0.565,0.178 0.879,0.178 0.312,0 0.607,-0.064 0.875,-0.178 0.269,-0.113 0.509,-0.278 0.71,-0.479 0.17,-0.167 0.313,-0.364 0.423,-0.582 0.109,-0.217 0.186,-0.453 0.223,-0.696 l 0.851,1.841 0.853,1.841 h -0.136 c -0.314,0 -0.61,0.063 -0.879,0.178 -0.267,0.115 -0.509,0.28 -0.712,0.484 -0.21,0.2 -0.378,0.443 -0.494,0.713 -0.116,0.269 -0.18,0.564 -0.18,0.87 0,0.243 0.042,0.477 0.117,0.698 0.074,0.221 0.18,0.427 0.308,0.613 m -6.941,4.819 c -0.008,-0.009 -0.017,-0.017 -0.028,-0.028 -0.01,-0.01 -0.023,-0.023 -0.04,-0.041 -0.204,-0.203 -0.444,-0.368 -0.713,-0.483 -0.268,-0.114 -0.563,-0.178 -0.877,-0.178 -0.312,0 -0.608,0.064 -0.876,0.178 -0.268,0.115 -0.509,0.28 -0.709,0.483 -0.202,0.21 -0.368,0.453 -0.483,0.722 -0.115,0.269 -0.181,0.565 -0.181,0.879 V 7.2 c -0.025,-0.025 -0.05,-0.054 -0.078,-0.084 -0.027,-0.03 -0.057,-0.063 -0.09,-0.097 -0.202,-0.204 -0.443,-0.369 -0.71,-0.483 -0.269,-0.115 -0.565,-0.179 -0.876,-0.179 -0.314,0 -0.61,0.064 -0.879,0.179 -0.27,0.114 -0.514,0.279 -0.723,0.483 -0.195,0.193 -0.352,0.423 -0.465,0.679 -0.112,0.256 -0.18,0.537 -0.197,0.831 -0.043,-0.076 -0.093,-0.148 -0.147,-0.219 -0.053,-0.069 -0.111,-0.137 -0.17,-0.205 -0.207,-0.201 -0.452,-0.363 -0.721,-0.476 -0.271,-0.113 -0.565,-0.174 -0.87,-0.174 -0.312,0 -0.612,0.061 -0.885,0.174 -0.273,0.113 -0.52,0.275 -0.723,0.476 -0.175,0.178 -0.321,0.386 -0.429,0.616 -0.109,0.231 -0.18,0.484 -0.205,0.752 -0.062,-0.144 -0.136,-0.278 -0.219,-0.402 -0.084,-0.124 -0.177,-0.236 -0.28,-0.339 V 8.716 c -0.208,-0.204 -0.454,-0.368 -0.724,-0.481 -0.271,-0.113 -0.567,-0.176 -0.877,-0.176 -0.312,0 -0.607,0.063 -0.876,0.176 -0.27,0.113 -0.512,0.277 -0.715,0.481 v 0.016 c -0.134,0.128 -0.251,0.275 -0.348,0.438 -0.096,0.164 -0.173,0.342 -0.224,0.535 -0.06,-0.175 -0.134,-0.342 -0.227,-0.497 -0.092,-0.155 -0.2,-0.297 -0.328,-0.425 -0.186,-0.187 -0.402,-0.339 -0.639,-0.451 -0.236,-0.113 -0.493,-0.185 -0.765,-0.21 -0.2,-0.193 -0.399,-0.389 -0.596,-0.588 -0.196,-0.199 -0.391,-0.401 -0.587,-0.606 0.957,-0.101 1.929,-0.282 2.899,-0.534 0.969,-0.252 1.935,-0.574 2.882,-0.959 1.425,-0.598 2.803,-1.348 4.044,-2.223 1.243,-0.876 2.349,-1.879 3.236,-2.985 0.37,0.179 0.741,0.357 1.116,0.531 0.375,0.172 0.754,0.34 1.143,0.499 0.888,0.371 1.788,0.704 2.695,1.001 0.906,0.298 1.819,0.559 2.733,0.786 -0.122,0.056 -0.236,0.123 -0.343,0.198 -0.108,0.076 -0.208,0.161 -0.302,0.254 -0.209,0.204 -0.374,0.444 -0.486,0.711 -0.112,0.267 -0.17,0.561 -0.17,0.873 0,0.073 0,0.143 0.003,0.214 0.004,0.07 0.013,0.139 0.03,0.21 m -11.588,-18.457 c -0.145,-0.151 -0.31,-0.275 -0.49,-0.374 -0.18,-0.1 -0.373,-0.175 -0.575,-0.226 0.658,-0.139 1.328,-0.325 2.003,-0.555 0.675,-0.23 1.355,-0.503 2.029,-0.814 0.625,0.422 1.282,0.813 1.959,1.173 0.676,0.36 1.375,0.688 2.083,0.982 0.285,0.127 0.577,0.244 0.871,0.354 0.293,0.108 0.589,0.209 0.884,0.301 -0.078,0.035 -0.152,0.073 -0.223,0.12 -0.07,0.046 -0.137,0.101 -0.196,0.169 -0.111,0.102 -0.201,0.228 -0.262,0.369 -0.062,0.14 -0.096,0.295 -0.096,0.457 0,0.125 0.018,0.242 0.052,0.351 0.033,0.11 0.085,0.211 0.152,0.305 -0.059,-0.018 -0.117,-0.03 -0.176,-0.038 -0.058,-0.009 -0.118,-0.013 -0.18,-0.013 -0.17,0 -0.325,0.033 -0.467,0.093 -0.141,0.059 -0.267,0.144 -0.377,0.246 -0.099,0.107 -0.184,0.237 -0.244,0.381 -0.06,0.142 -0.096,0.298 -0.096,0.456 0,0.11 0.015,0.217 0.041,0.318 0.028,0.102 0.068,0.199 0.118,0.293 -0.043,-0.017 -0.09,-0.03 -0.138,-0.039 -0.049,-0.008 -0.097,-0.013 -0.139,-0.013 -0.125,0 -0.242,0.022 -0.354,0.057 -0.112,0.036 -0.218,0.085 -0.32,0.142 -0.051,-0.184 -0.126,-0.361 -0.222,-0.526 -0.098,-0.164 -0.216,-0.317 -0.355,-0.453 -0.201,-0.2 -0.44,-0.363 -0.708,-0.475 -0.268,-0.113 -0.563,-0.175 -0.878,-0.175 -0.303,0 -0.594,0.058 -0.86,0.166 -0.266,0.108 -0.507,0.266 -0.707,0.468 -0.009,-0.151 -0.047,-0.296 -0.109,-0.429 -0.061,-0.134 -0.146,-0.256 -0.249,-0.358 -0.11,-0.101 -0.236,-0.186 -0.375,-0.246 -0.138,-0.059 -0.29,-0.092 -0.451,-0.092 -0.085,0 -0.166,0.007 -0.242,0.023 -0.076,0.015 -0.148,0.035 -0.217,0.061 0.052,-0.135 0.094,-0.279 0.124,-0.425 0.029,-0.148 0.046,-0.299 0.046,-0.451 0.003,-0.309 -0.06,-0.603 -0.175,-0.871 -0.115,-0.267 -0.28,-0.509 -0.481,-0.712 m 2.479,-11.107 c 0.077,0.031 0.161,0.06 0.25,0.08 0.088,0.021 0.181,0.033 0.271,0.033 0.079,0 0.157,-0.008 0.232,-0.023 0.075,-0.015 0.148,-0.036 0.215,-0.062 -0.025,0.06 -0.042,0.123 -0.053,0.189 -0.01,0.065 -0.014,0.134 -0.014,0.201 0,0.167 0.032,0.324 0.09,0.466 0.058,0.142 0.141,0.269 0.244,0.377 0.11,0.101 0.236,0.185 0.378,0.243 0.141,0.059 0.297,0.091 0.47,0.091 0.134,0 0.259,-0.02 0.377,-0.059 0.117,-0.039 0.227,-0.096 0.325,-0.174 -0.025,0.069 -0.044,0.139 -0.058,0.214 -0.014,0.075 -0.021,0.155 -0.021,0.24 0,0.158 0.029,0.313 0.085,0.455 0.057,0.141 0.142,0.268 0.255,0.37 0.108,0.11 0.234,0.199 0.374,0.26 0.141,0.062 0.297,0.096 0.464,0.096 0.136,0 0.268,-0.025 0.391,-0.07 0.123,-0.044 0.237,-0.108 0.34,-0.185 -0.009,0.043 -0.018,0.085 -0.024,0.128 -0.007,0.042 -0.011,0.085 -0.011,0.127 0,0.158 0.035,0.313 0.095,0.454 0.061,0.143 0.149,0.273 0.256,0.383 0.051,0.051 0.106,0.098 0.168,0.137 0.062,0.04 0.13,0.072 0.206,0.095 -0.575,0.483 -1.184,0.953 -1.819,1.397 -0.635,0.445 -1.297,0.865 -1.98,1.249 -0.144,0.085 -0.287,0.166 -0.43,0.243 -0.143,0.078 -0.286,0.154 -0.43,0.227 -0.532,-0.385 -1.03,-0.796 -1.491,-1.231 -0.461,-0.434 -0.884,-0.892 -1.266,-1.371 0.351,-0.761 0.702,-1.52 1.054,-2.283 0.351,-0.763 0.704,-1.528 1.057,-2.297 m 6.335,14.188 c 0.051,0.017 0.111,0.03 0.172,0.039 0.062,0.007 0.125,0.012 0.185,0.012 0.161,0 0.317,-0.033 0.46,-0.09 0.142,-0.058 0.273,-0.142 0.384,-0.244 0.098,-0.11 0.183,-0.242 0.244,-0.385 0.059,-0.143 0.095,-0.299 0.095,-0.457 0,-0.136 -0.023,-0.266 -0.064,-0.385 -0.041,-0.12 -0.1,-0.229 -0.174,-0.322 1.141,0.302 2.286,0.511 3.399,0.619 1.113,0.106 2.195,0.11 3.208,0.003 l 0.541,1.171 0.54,1.17 c -0.178,-0.119 -0.373,-0.212 -0.581,-0.276 -0.208,-0.063 -0.426,-0.098 -0.653,-0.098 -0.314,0 -0.61,0.065 -0.879,0.178 -0.267,0.114 -0.509,0.278 -0.712,0.479 -0.243,0.246 -0.424,0.536 -0.536,0.851 -0.112,0.315 -0.154,0.656 -0.121,1.003 -0.025,-0.084 -0.063,-0.165 -0.109,-0.238 -0.046,-0.074 -0.1,-0.141 -0.157,-0.196 -0.113,-0.111 -0.24,-0.202 -0.381,-0.264 -0.142,-0.064 -0.298,-0.099 -0.468,-0.099 -0.158,0 -0.316,0.035 -0.458,0.099 -0.142,0.062 -0.27,0.153 -0.368,0.264 -0.043,0.033 -0.076,0.07 -0.109,0.111 -0.032,0.041 -0.061,0.086 -0.095,0.137 -0.042,-0.226 -0.118,-0.441 -0.22,-0.639 -0.103,-0.198 -0.233,-0.379 -0.386,-0.537 -0.204,-0.204 -0.448,-0.368 -0.721,-0.481 -0.272,-0.113 -0.573,-0.175 -0.886,-0.175 -0.304,0 -0.599,0.062 -0.869,0.175 -0.271,0.113 -0.516,0.277 -0.717,0.481 -0.102,0.107 -0.196,0.221 -0.278,0.341 -0.082,0.12 -0.152,0.247 -0.209,0.383 -0.019,-0.063 -0.046,-0.124 -0.079,-0.181 -0.033,-0.057 -0.071,-0.111 -0.113,-0.158 -0.009,-0.085 -0.025,-0.17 -0.051,-0.252 -0.025,-0.082 -0.059,-0.161 -0.102,-0.235 0.043,0.008 0.09,0.017 0.138,0.024 0.049,0.006 0.1,0.01 0.151,0.01 0.161,0 0.318,-0.034 0.46,-0.095 0.141,-0.062 0.267,-0.152 0.366,-0.261 0.11,-0.1 0.2,-0.227 0.262,-0.369 0.061,-0.142 0.095,-0.299 0.095,-0.457 0,-0.127 -0.021,-0.244 -0.057,-0.354 -0.036,-0.108 -0.087,-0.209 -0.147,-0.302 m 13.14,10.846 c 0.033,-0.034 0.067,-0.072 0.102,-0.11 0.034,-0.038 0.068,-0.076 0.101,-0.11 l 0.646,1.39 c -0.549,0.079 -1.111,0.128 -1.684,0.152 -0.572,0.024 -1.155,0.024 -1.747,0.006 -0.017,-0.219 -0.064,-0.43 -0.135,-0.628 -0.071,-0.198 -0.168,-0.383 -0.284,-0.553 0.437,0.365 0.985,0.527 1.526,0.499 0.54,-0.029 1.073,-0.247 1.475,-0.646 m -6.772,-21.641 c 0.109,0.028 0.219,0.035 0.328,0.021 0.107,-0.013 0.213,-0.05 0.313,-0.106 l 0.741,-0.43 0.742,-0.43 -0.289,1.078 -0.289,1.077 c -0.028,0.11 -0.035,0.223 -0.02,0.333 0.015,0.11 0.052,0.215 0.111,0.312 0.057,0.099 0.132,0.182 0.219,0.248 0.088,0.066 0.188,0.113 0.296,0.142 0.107,0.028 0.22,0.035 0.329,0.021 0.11,-0.014 0.218,-0.05 0.316,-0.106 0.1,-0.057 0.185,-0.131 0.251,-0.219 0.068,-0.088 0.118,-0.188 0.146,-0.296 l 0.51,-1.894 0.508,-1.894 0.79,-0.455 0.79,-0.456 -0.548,2.042 -0.55,2.041 c -0.028,0.11 -0.035,0.222 -0.022,0.331 0.015,0.108 0.05,0.215 0.107,0.314 0.059,0.099 0.135,0.183 0.221,0.251 0.087,0.066 0.187,0.114 0.294,0.139 0.227,0.063 0.457,0.027 0.647,-0.081 0.189,-0.108 0.338,-0.289 0.4,-0.518 l 0.768,-2.859 0.766,-2.858 0.29,-0.164 c 0.034,0.039 0.067,0.079 0.102,0.118 0.034,0.039 0.07,0.077 0.107,0.113 0.328,0.331 0.699,0.606 1.1,0.818 0.401,0.214 0.833,0.367 1.283,0.455 v 0.344 l -2.097,2.093 -2.098,2.092 c -0.079,0.082 -0.142,0.177 -0.184,0.279 -0.043,0.103 -0.065,0.213 -0.065,0.326 0,0.114 0.022,0.224 0.065,0.326 0.042,0.101 0.105,0.195 0.184,0.274 0.085,0.085 0.182,0.148 0.284,0.19 0.103,0.043 0.211,0.064 0.322,0.064 0.111,0 0.219,-0.021 0.322,-0.064 0.102,-0.042 0.199,-0.105 0.284,-0.19 l 2.983,-2.981 v 1.85 l -1.37,1.365 -1.37,1.366 c -0.079,0.082 -0.142,0.176 -0.184,0.279 -0.042,0.102 -0.065,0.213 -0.065,0.326 0,0.113 0.023,0.224 0.065,0.325 0.042,0.102 0.105,0.196 0.184,0.275 0.085,0.085 0.183,0.146 0.286,0.187 0.104,0.041 0.212,0.062 0.32,0.062 0.11,0 0.219,-0.021 0.322,-0.062 0.102,-0.041 0.199,-0.102 0.284,-0.187 l 1.528,-1.528 v 1.674 c 0,0.235 0.096,0.447 0.251,0.601 0.156,0.153 0.369,0.248 0.604,0.248 0.235,0 0.449,-0.095 0.603,-0.248 0.156,-0.154 0.252,-0.366 0.252,-0.601 v -1.764 l 1.618,1.618 c 0.069,0.067 0.145,0.121 0.228,0.162 0.083,0.04 0.172,0.066 0.266,0.081 l 0.699,5.171 0.699,5.172 -3.776,0.969 -3.777,0.97 z m 13.712,-9.472 c 0.275,0.274 0.489,0.593 0.633,0.939 0.146,0.346 0.222,0.721 0.222,1.108 0,0.391 -0.076,0.767 -0.222,1.116 -0.144,0.349 -0.358,0.668 -0.633,0.942 -0.274,0.275 -0.594,0.487 -0.942,0.63 -0.349,0.144 -0.725,0.219 -1.112,0.219 h -0.057 c -0.006,0 -0.011,10e-4 -0.015,0.003 -0.004,10e-4 -0.008,0.002 -0.013,0.002 v -0.005 c -0.377,-0.012 -0.741,-0.094 -1.077,-0.239 -0.336,-0.146 -0.645,-0.355 -0.911,-0.621 -0.271,-0.274 -0.481,-0.592 -0.623,-0.939 -0.141,-0.345 -0.214,-0.72 -0.214,-1.108 0,-0.387 0.075,-0.762 0.218,-1.108 0.144,-0.346 0.356,-0.665 0.63,-0.939 0.276,-0.274 0.595,-0.486 0.944,-0.63 0.349,-0.143 0.727,-0.218 1.118,-0.218 0.387,0 0.763,0.075 1.112,0.218 0.348,0.144 0.668,0.356 0.942,0.63 m -17.086,10.201 v -0.039 c 0,-0.21 -0.054,-0.414 -0.156,-0.592 -0.102,-0.177 -0.251,-0.327 -0.437,-0.426 0.092,-0.11 0.183,-0.219 0.273,-0.329 0.089,-0.109 0.176,-0.219 0.259,-0.329 0.018,-0.023 0.045,-0.033 0.071,-0.03 0.026,0.003 0.05,0.019 0.063,0.046 l 0.323,0.723 0.324,0.722 c -0.134,0 -0.263,0.021 -0.386,0.064 -0.121,0.042 -0.234,0.105 -0.334,0.19 m -0.447,0.894 v 0.034 c 0,0.158 0.03,0.312 0.088,0.453 0.059,0.141 0.145,0.268 0.258,0.372 0.025,0.026 0.047,0.047 0.068,0.067 0.021,0.018 0.042,0.036 0.068,0.052 -0.102,0.032 -0.202,0.073 -0.293,0.124 -0.093,0.053 -0.18,0.116 -0.256,0.193 -0.108,0.11 -0.196,0.236 -0.256,0.374 -0.062,0.137 -0.095,0.288 -0.095,0.446 0,0.172 0.038,0.338 0.105,0.487 0.067,0.151 0.164,0.284 0.28,0.395 h -0.147 c -0.162,0 -0.318,0.028 -0.458,0.084 -0.141,0.055 -0.267,0.139 -0.369,0.25 -0.11,0.107 -0.2,0.234 -0.261,0.377 -0.062,0.141 -0.096,0.299 -0.096,0.466 0,0.143 0.026,0.278 0.072,0.404 0.046,0.125 0.112,0.243 0.195,0.353 -0.167,-0.017 -0.334,0.004 -0.492,0.061 -0.157,0.057 -0.304,0.148 -0.431,0.272 -0.009,0.009 -0.017,0.018 -0.028,0.028 l -0.041,0.041 c -0.271,-0.094 -0.542,-0.19 -0.811,-0.29 -0.271,-0.101 -0.541,-0.205 -0.813,-0.316 -0.507,-0.209 -1.012,-0.441 -1.508,-0.692 -0.495,-0.251 -0.98,-0.521 -1.447,-0.806 l 0.136,-0.068 c 0.869,-0.497 1.718,-1.048 2.523,-1.634 0.805,-0.586 1.567,-1.208 2.26,-1.85 0.026,0.043 0.054,0.082 0.084,0.118 0.031,0.035 0.064,0.069 0.098,0.103 0.11,0.108 0.236,0.195 0.376,0.256 0.138,0.061 0.292,0.095 0.456,0.095 0.141,0 0.275,-0.026 0.399,-0.07 0.124,-0.044 0.238,-0.106 0.336,-0.179 m -11.763,1.244 c 0.274,0.303 0.565,0.598 0.868,0.885 0.303,0.287 0.621,0.565 0.949,0.834 -0.515,0.21 -1.026,0.393 -1.53,0.548 -0.503,0.156 -1,0.284 -1.488,0.379 l 0.601,-1.323 z m -1.183,8.669 c 0.252,0 0.495,-0.042 0.723,-0.12 0.226,-0.078 0.437,-0.191 0.624,-0.332 v 0.18 c 0,0.161 0.03,0.319 0.087,0.46 0.057,0.143 0.142,0.27 0.252,0.371 0.108,0.108 0.234,0.196 0.375,0.256 0.142,0.062 0.299,0.095 0.469,0.095 0.102,0 0.198,-0.013 0.29,-0.038 0.092,-0.025 0.18,-0.064 0.265,-0.114 -0.017,0.085 -0.034,0.173 -0.047,0.261 -0.013,0.089 -0.021,0.177 -0.021,0.259 0,0.314 0.064,0.613 0.178,0.885 0.115,0.271 0.28,0.515 0.485,0.715 0.209,0.201 0.454,0.366 0.724,0.481 0.271,0.115 0.567,0.181 0.877,0.181 0.043,0 0.081,0 0.119,-0.002 0.038,-0.002 0.076,-0.007 0.119,-0.015 0.009,0.017 0.017,0.038 0.026,0.059 0.009,0.021 0.016,0.043 0.025,0.059 -0.051,-0.016 -0.101,-0.025 -0.153,-0.029 -0.051,-0.005 -0.102,-0.005 -0.152,-0.005 -0.159,0 -0.315,0.033 -0.458,0.091 -0.144,0.058 -0.276,0.142 -0.386,0.243 -0.102,0.111 -0.187,0.237 -0.246,0.376 -0.06,0.14 -0.094,0.294 -0.094,0.461 0,0.076 0.009,0.15 0.023,0.221 0.016,0.07 0.037,0.139 0.062,0.203 -0.076,-0.031 -0.159,-0.059 -0.245,-0.079 -0.086,-0.021 -0.174,-0.033 -0.259,-0.033 -0.113,0 -0.215,0.016 -0.31,0.043 -0.094,0.027 -0.182,0.064 -0.267,0.103 -1.141,-0.797 -2.208,-1.665 -3.175,-2.591 -0.966,-0.924 -1.832,-1.907 -2.571,-2.933 l 0.271,-0.58 0.273,-0.579 c 0.05,0.152 0.123,0.296 0.21,0.429 0.087,0.133 0.188,0.254 0.298,0.362 0.213,0.201 0.458,0.365 0.728,0.478 0.271,0.114 0.566,0.178 0.881,0.178 m 1.935,6.497 c -0.158,0 -0.309,0.036 -0.448,0.096 -0.138,0.06 -0.264,0.144 -0.372,0.244 -0.113,0.11 -0.2,0.236 -0.258,0.376 -0.057,0.139 -0.088,0.294 -0.088,0.461 0,0.042 0,0.089 0.004,0.135 0.005,0.047 0.014,0.093 0.031,0.136 -0.094,-0.051 -0.195,-0.094 -0.299,-0.123 -0.105,-0.03 -0.214,-0.047 -0.324,-0.047 -0.159,0 -0.316,0.034 -0.46,0.094 -0.145,0.059 -0.276,0.144 -0.384,0.245 -0.102,0.11 -0.187,0.238 -0.246,0.379 -0.06,0.142 -0.093,0.297 -0.093,0.464 0,0.025 0,0.056 0.002,0.085 0.002,0.029 0.006,0.059 0.015,0.085 -0.099,-0.069 -0.209,-0.123 -0.327,-0.161 -0.117,-0.038 -0.24,-0.06 -0.364,-0.06 -0.17,0 -0.326,0.034 -0.467,0.093 -0.14,0.058 -0.266,0.141 -0.377,0.241 -0.11,0.11 -0.195,0.24 -0.253,0.384 -0.056,0.143 -0.086,0.3 -0.086,0.464 v 0.147 c -0.102,-0.091 -0.219,-0.161 -0.35,-0.209 -0.13,-0.049 -0.273,-0.074 -0.426,-0.074 -0.161,0 -0.318,0.034 -0.462,0.093 -0.143,0.058 -0.274,0.142 -0.382,0.241 -0.101,0.11 -0.186,0.236 -0.246,0.375 -0.059,0.139 -0.093,0.289 -0.093,0.45 -0.008,-0.016 -0.021,-0.029 -0.034,-0.042 -0.012,-0.013 -0.025,-0.025 -0.034,-0.042 -0.11,-0.102 -0.238,-0.185 -0.38,-0.243 -0.14,-0.059 -0.297,-0.091 -0.464,-0.091 -0.161,0 -0.314,0.032 -0.454,0.091 -0.14,0.058 -0.267,0.141 -0.378,0.243 -0.09,0.09 -0.166,0.196 -0.222,0.314 -0.057,0.117 -0.095,0.246 -0.112,0.381 -0.016,-0.025 -0.038,-0.05 -0.061,-0.076 -0.024,-0.025 -0.049,-0.05 -0.074,-0.077 -0.108,-0.101 -0.236,-0.187 -0.375,-0.248 -0.141,-0.061 -0.293,-0.097 -0.453,-0.097 h -0.083 l 2.247,-4.888 2.247,-4.889 c 0.733,0.934 1.561,1.821 2.464,2.663 0.905,0.842 1.883,1.638 2.919,2.387 m -9.794,7.092 c 0.16,0 0.312,-0.034 0.453,-0.095 0.139,-0.062 0.267,-0.148 0.375,-0.256 0.092,-0.094 0.17,-0.201 0.226,-0.318 0.058,-0.117 0.096,-0.244 0.113,-0.378 0.014,0.026 0.036,0.052 0.059,0.077 0.024,0.025 0.049,0.051 0.071,0.076 0.111,0.108 0.238,0.196 0.378,0.259 0.14,0.061 0.293,0.098 0.454,0.098 0.167,0 0.324,-0.037 0.464,-0.098 0.142,-0.063 0.27,-0.151 0.38,-0.259 0.102,-0.101 0.187,-0.223 0.246,-0.36 0.06,-0.136 0.094,-0.287 0.094,-0.448 0.017,0.007 0.029,0.02 0.04,0.033 0.011,0.013 0.02,0.026 0.027,0.034 0.108,0.11 0.239,0.198 0.382,0.258 0.144,0.06 0.301,0.093 0.462,0.093 0.161,0 0.318,-0.033 0.458,-0.093 0.141,-0.06 0.267,-0.148 0.368,-0.258 0.109,-0.102 0.198,-0.228 0.26,-0.368 0.062,-0.141 0.098,-0.296 0.098,-0.457 0,-0.026 0,-0.056 -0.003,-0.085 -0.002,-0.03 -0.006,-0.06 -0.015,-0.085 0.11,0.094 0.233,0.168 0.364,0.22 0.133,0.051 0.276,0.08 0.429,0.08 0.161,0 0.315,-0.033 0.453,-0.093 0.14,-0.06 0.266,-0.148 0.373,-0.258 0.111,-0.099 0.199,-0.225 0.259,-0.365 0.06,-0.141 0.093,-0.297 0.093,-0.455 0,-0.033 -0.003,-0.064 -0.006,-0.093 -0.003,-0.03 -0.006,-0.06 -0.006,-0.094 0.091,0.076 0.201,0.136 0.32,0.176 0.119,0.041 0.247,0.062 0.371,0.062 0.161,0 0.317,-0.034 0.459,-0.096 0.141,-0.063 0.268,-0.153 0.373,-0.266 0.108,-0.098 0.195,-0.224 0.256,-0.365 0.061,-0.141 0.095,-0.297 0.095,-0.455 0,-0.051 -0.005,-0.098 -0.011,-0.144 -0.006,-0.046 -0.014,-0.091 -0.023,-0.138 0.094,0.056 0.189,0.101 0.292,0.132 0.102,0.032 0.212,0.048 0.331,0.048 0.164,0 0.316,-0.034 0.456,-0.094 0.14,-0.061 0.266,-0.149 0.376,-0.256 0.107,-0.111 0.195,-0.238 0.256,-0.378 0.06,-0.14 0.095,-0.292 0.095,-0.453 0,-0.066 -0.008,-0.132 -0.021,-0.197 -0.014,-0.065 -0.03,-0.129 -0.047,-0.188 0.026,0.017 0.055,0.034 0.087,0.049 0.031,0.014 0.066,0.027 0.1,0.036 0.322,0.209 0.648,0.411 0.977,0.607 0.329,0.198 0.661,0.388 0.998,0.575 -0.175,0.208 -0.362,0.414 -0.559,0.615 -0.197,0.2 -0.405,0.397 -0.623,0.589 -0.725,0.668 -1.545,1.28 -2.425,1.826 -0.88,0.547 -1.821,1.027 -2.789,1.431 -1.082,0.444 -2.197,0.796 -3.303,1.043 -1.104,0.248 -2.2,0.391 -3.242,0.416 -0.073,-0.096 -0.149,-0.192 -0.227,-0.288 -0.077,-0.096 -0.155,-0.192 -0.231,-0.289 -0.077,-0.098 -0.153,-0.196 -0.229,-0.293 -0.075,-0.096 -0.148,-0.193 -0.218,-0.289 0.101,0.085 0.218,0.153 0.346,0.199 0.129,0.047 0.268,0.073 0.411,0.073 m -2.263,2.369 v 0.034 c 0.13,0.022 0.263,0.044 0.398,0.063 0.135,0.019 0.273,0.036 0.411,0.049 0.136,0.015 0.273,0.028 0.412,0.038 0.138,0.011 0.279,0.019 0.42,0.025 0.252,0.286 0.514,0.574 0.783,0.861 0.267,0.287 0.542,0.572 0.819,0.853 -0.005,0.006 -0.011,0.01 -0.017,0.016 l -0.016,0.017 c -0.103,0.102 -0.195,0.216 -0.276,0.337 -0.082,0.122 -0.152,0.252 -0.212,0.388 -0.016,-0.131 -0.043,-0.256 -0.08,-0.377 -0.036,-0.122 -0.081,-0.238 -0.134,-0.348 -0.054,-0.112 -0.119,-0.219 -0.19,-0.317 -0.072,-0.1 -0.153,-0.192 -0.241,-0.277 -0.102,-0.104 -0.214,-0.197 -0.334,-0.278 -0.12,-0.08 -0.249,-0.149 -0.385,-0.202 -0.133,-0.057 -0.274,-0.099 -0.42,-0.127 -0.146,-0.029 -0.296,-0.042 -0.446,-0.042 -0.153,0 -0.303,0.01 -0.45,0.037 -0.148,0.026 -0.291,0.067 -0.433,0.126 0.033,-0.073 0.067,-0.147 0.099,-0.22 0.032,-0.072 0.065,-0.144 0.099,-0.215 0.031,-0.074 0.064,-0.147 0.096,-0.22 0.032,-0.075 0.066,-0.148 0.097,-0.221 m -5.367,-6.243 h 1.715 c 0.139,0.26 0.279,0.52 0.419,0.78 0.14,0.259 0.281,0.518 0.419,0.775 l 0.416,0.78 c 0.14,0.259 0.281,0.518 0.422,0.775 -0.295,0.006 -0.589,0.012 -0.884,0.017 -0.294,0.005 -0.588,0.008 -0.882,0.011 -0.295,0.006 -0.589,0.012 -0.883,0.017 -0.295,0.005 -0.589,0.009 -0.884,0.012 -0.07,-0.122 -0.142,-0.245 -0.212,-0.368 -0.071,-0.125 -0.141,-0.249 -0.213,-0.374 -0.07,-0.124 -0.141,-0.248 -0.212,-0.372 -0.07,-0.124 -0.141,-0.247 -0.212,-0.368 0.116,-0.122 0.224,-0.248 0.323,-0.378 0.098,-0.13 0.189,-0.263 0.271,-0.402 0.082,-0.142 0.156,-0.287 0.222,-0.438 0.065,-0.151 0.124,-0.306 0.175,-0.467 m -0.957,-4.015 c 0.147,-0.252 0.295,-0.502 0.444,-0.752 0.149,-0.25 0.298,-0.501 0.445,-0.752 0.291,0.008 0.583,0.017 0.874,0.026 0.292,0.007 0.583,0.016 0.875,0.025 0.291,0.008 0.584,0.017 0.877,0.025 0.293,0.008 0.586,0.017 0.878,0.026 -0.144,0.254 -0.287,0.509 -0.43,0.765 -0.142,0.256 -0.284,0.512 -0.424,0.767 -0.142,0.255 -0.284,0.511 -0.426,0.767 -0.143,0.255 -0.285,0.511 -0.43,0.765 -0.144,-0.003 -0.288,-0.004 -0.432,-0.005 -0.144,-0.002 -0.287,-0.003 -0.428,-0.006 -0.145,0 -0.289,-0.002 -0.433,-0.003 -0.144,-0.001 -0.289,-0.002 -0.433,-0.002 -0.051,-0.159 -0.108,-0.31 -0.171,-0.456 -0.063,-0.145 -0.132,-0.286 -0.208,-0.421 -0.079,-0.136 -0.166,-0.267 -0.262,-0.395 -0.096,-0.128 -0.2,-0.253 -0.316,-0.374 m 3.889,9.54 c -0.065,0.138 -0.129,0.278 -0.192,0.419 -0.064,0.141 -0.128,0.282 -0.193,0.423 -0.065,0.141 -0.13,0.281 -0.195,0.422 -0.065,0.139 -0.131,0.279 -0.195,0.421 -0.074,-0.133 -0.149,-0.265 -0.224,-0.396 -0.075,-0.132 -0.15,-0.263 -0.223,-0.396 -0.077,-0.133 -0.154,-0.264 -0.229,-0.396 -0.076,-0.132 -0.151,-0.263 -0.225,-0.395 0.139,-0.009 0.28,-0.018 0.419,-0.026 0.14,-0.009 0.281,-0.017 0.419,-0.025 0.139,-0.009 0.279,-0.018 0.419,-0.026 0.14,-0.008 0.281,-0.017 0.419,-0.025 m 0.781,4.359 c 0.051,0.176 0.126,0.339 0.218,0.489 0.092,0.149 0.201,0.283 0.321,0.399 0.203,0.212 0.448,0.378 0.72,0.49 0.273,0.113 0.573,0.172 0.887,0.172 0.303,0 0.599,-0.059 0.869,-0.172 0.271,-0.112 0.515,-0.278 0.716,-0.49 0.103,-0.101 0.194,-0.211 0.275,-0.33 0.081,-0.119 0.153,-0.249 0.212,-0.393 0.033,0.259 0.108,0.502 0.216,0.726 0.109,0.224 0.254,0.427 0.43,0.608 0.2,0.201 0.445,0.364 0.716,0.476 0.27,0.113 0.566,0.177 0.869,0.18 0.313,0 0.609,-0.064 0.88,-0.177 0.27,-0.114 0.515,-0.278 0.727,-0.479 0.026,-0.034 0.056,-0.068 0.085,-0.102 0.029,-0.033 0.06,-0.067 0.085,-0.102 0.617,0.495 1.254,0.979 1.905,1.451 0.653,0.47 1.319,0.93 1.995,1.377 -2.297,0.161 -4.549,0.148 -6.669,-0.01 -2.121,-0.158 -4.109,-0.462 -5.881,-0.884 -0.161,-0.039 -0.322,-0.08 -0.479,-0.122 -0.158,-0.041 -0.313,-0.084 -0.467,-0.126 0.23,-0.498 0.457,-0.995 0.685,-1.492 0.228,-0.497 0.456,-0.993 0.685,-1.489 M -51.426,4.65 c 0.009,-0.136 0.016,-0.27 0.023,-0.404 0.007,-0.135 0.014,-0.269 0.022,-0.405 0.077,-0.051 0.153,-0.1 0.231,-0.149 0.077,-0.049 0.155,-0.097 0.234,-0.145 -0.085,0.184 -0.17,0.368 -0.255,0.551 -0.085,0.184 -0.17,0.368 -0.255,0.552 m 38.055,-5.073 3.362,1.021 3.363,1.021 -1.526,2.94 -1.525,2.941 -1.837,-3.961 z m 5.943,-14.68 c 0.063,-0.076 0.113,-0.161 0.147,-0.251 0.033,-0.091 0.052,-0.187 0.052,-0.286 0,-0.113 -0.023,-0.224 -0.065,-0.326 -0.043,-0.103 -0.105,-0.197 -0.185,-0.279 l -2.824,-2.816 v -1.77 l 2.994,2.986 c 0.08,0.082 0.171,0.145 0.273,0.188 0.101,0.043 0.212,0.066 0.328,0.066 0.113,0 0.224,-0.023 0.325,-0.065 0.102,-0.043 0.196,-0.104 0.275,-0.183 0.079,-0.082 0.141,-0.177 0.183,-0.279 0.043,-0.103 0.066,-0.213 0.066,-0.327 0,-0.113 -0.022,-0.223 -0.063,-0.326 -0.042,-0.102 -0.104,-0.197 -0.186,-0.279 l -2.098,-2.092 -2.097,-2.093 v -0.322 c 0.461,-0.082 0.905,-0.231 1.318,-0.445 0.413,-0.215 0.797,-0.493 1.138,-0.832 0.032,-0.032 0.062,-0.066 0.091,-0.1 0.03,-0.035 0.06,-0.07 0.091,-0.104 l 0.133,0.076 0.133,0.077 0.767,2.863 0.767,2.864 c 0.053,0.187 0.167,0.344 0.313,0.455 0.147,0.11 0.326,0.173 0.514,0.173 0.277,0 0.519,-0.132 0.674,-0.334 0.154,-0.2 0.22,-0.468 0.146,-0.74 l -0.546,-2.039 -0.547,-2.038 0.836,0.48 0.835,0.481 0.495,1.85 0.496,1.848 c 0.099,0.365 0.394,0.577 0.712,0.617 0.32,0.04 0.661,-0.09 0.85,-0.413 0.057,-0.099 0.092,-0.205 0.107,-0.314 0.013,-0.109 0.006,-0.22 -0.022,-0.33 l -0.277,-1.03 -0.278,-1.029 0.7,0.404 0.699,0.405 c 0.198,0.116 0.429,0.139 0.639,0.084 0.211,-0.056 0.402,-0.192 0.521,-0.396 0.116,-0.2 0.141,-0.43 0.084,-0.641 -0.056,-0.21 -0.191,-0.402 -0.396,-0.523 l -0.757,-0.435 -0.759,-0.436 1.126,-0.303 1.127,-0.302 c 0.11,-0.029 0.211,-0.078 0.298,-0.145 0.087,-0.067 0.16,-0.152 0.216,-0.251 0.057,-0.099 0.094,-0.205 0.109,-0.313 0.015,-0.11 0.008,-0.221 -0.024,-0.331 C 1.998,-24.812 1.95,-24.912 1.885,-25 c -0.067,-0.087 -0.15,-0.162 -0.249,-0.219 -0.099,-0.057 -0.205,-0.094 -0.314,-0.108 -0.109,-0.015 -0.22,-0.008 -0.331,0.023 l -1.951,0.52 -1.95,0.52 -0.776,-0.443 -0.775,-0.445 2.047,-0.545 2.046,-0.545 c 0.226,-0.063 0.406,-0.211 0.514,-0.401 0.109,-0.189 0.146,-0.42 0.086,-0.645 -0.062,-0.227 -0.211,-0.407 -0.4,-0.515 -0.19,-0.107 -0.421,-0.145 -0.647,-0.085 l -2.865,0.766 -2.864,0.766 -0.122,-0.07 -0.122,-0.071 c 0.094,-0.251 0.166,-0.512 0.215,-0.779 0.049,-0.266 0.074,-0.539 0.074,-0.816 0,-0.254 -0.022,-0.505 -0.065,-0.75 -0.042,-0.246 -0.105,-0.488 -0.184,-0.726 l 0.11,-0.062 0.111,-0.062 2.867,0.766 2.867,0.767 c 0.037,0.01 0.074,0.019 0.111,0.025 0.036,0.006 0.074,0.009 0.111,0.009 0.186,0 0.366,-0.065 0.512,-0.175 0.147,-0.111 0.26,-0.27 0.314,-0.459 0.028,-0.11 0.035,-0.222 0.02,-0.331 -0.014,-0.109 -0.051,-0.215 -0.111,-0.314 -0.057,-0.098 -0.13,-0.182 -0.217,-0.249 -0.087,-0.066 -0.187,-0.116 -0.298,-0.146 l -2.046,-0.546 -2.047,-0.546 0.849,-0.489 0.85,-0.489 1.794,0.48 1.795,0.481 c 1.749,2.686 3.161,5.567 4.213,8.588 1.051,3.022 1.742,6.183 2.047,9.428 l -4.112,3.204 -4.113,3.203 -3.153,-4.308 z m 3.742,-18.185 -0.8,0.463 -0.801,0.463 1.092,-4.082 c 0.031,-0.11 0.039,-0.222 0.023,-0.331 -0.015,-0.109 -0.051,-0.215 -0.107,-0.313 -0.06,-0.1 -0.135,-0.185 -0.223,-0.251 -0.088,-0.068 -0.188,-0.117 -0.299,-0.146 -0.11,-0.028 -0.223,-0.035 -0.334,-0.021 -0.11,0.014 -0.218,0.05 -0.316,0.106 -0.097,0.06 -0.181,0.135 -0.247,0.222 -0.067,0.087 -0.115,0.186 -0.144,0.293 l -0.77,2.861 -0.77,2.862 -0.099,0.059 -0.099,0.06 c -0.043,-0.054 -0.087,-0.106 -0.132,-0.155 -0.045,-0.049 -0.092,-0.097 -0.14,-0.145 -0.334,-0.334 -0.709,-0.608 -1.114,-0.82 -0.404,-0.212 -0.839,-0.363 -1.292,-0.447 v -0.238 l 2.098,-2.095 2.097,-2.094 c 0.083,-0.08 0.144,-0.173 0.186,-0.275 0.042,-0.101 0.064,-0.212 0.064,-0.325 0,-0.113 -0.022,-0.224 -0.064,-0.326 -0.042,-0.103 -0.103,-0.197 -0.186,-0.279 -0.167,-0.165 -0.385,-0.247 -0.603,-0.247 -0.218,0 -0.436,0.082 -0.603,0.247 l -1.495,1.493 -1.494,1.493 v -1.901 l 1.39,-1.385 1.389,-1.385 c 0.018,-0.018 0.034,-0.036 0.048,-0.055 0.015,-0.019 0.029,-0.039 0.043,-0.058 0.583,0.471 1.156,0.963 1.714,1.471 0.559,0.509 1.106,1.036 1.638,1.582 0.178,0.184 0.353,0.37 0.527,0.555 0.173,0.186 0.345,0.372 0.514,0.559 l -0.345,1.293 z m -6.572,-6.278 v -1.579 c 0,-0.222 -0.081,-0.432 -0.217,-0.594 -0.135,-0.16 -0.327,-0.27 -0.547,-0.293 -0.255,-0.026 -0.492,0.06 -0.665,0.215 -0.171,0.156 -0.281,0.379 -0.281,0.628 l 0.003,0.815 0.003,0.814 -0.747,-0.746 -0.747,-0.747 c -0.188,-0.184 -0.409,-0.305 -0.636,-0.33 -0.226,-0.026 -0.457,0.045 -0.661,0.245 -0.079,0.082 -0.142,0.177 -0.184,0.279 -0.042,0.103 -0.065,0.213 -0.065,0.326 0,0.114 0.023,0.224 0.065,0.327 0.042,0.102 0.105,0.197 0.184,0.279 l 1.396,1.388 1.395,1.388 v 1.9 l -2.995,-2.991 c -0.167,-0.165 -0.386,-0.247 -0.606,-0.247 -0.219,0 -0.438,0.082 -0.605,0.247 -0.161,0.167 -0.242,0.385 -0.242,0.604 0,0.219 0.081,0.437 0.242,0.601 l 2.103,2.097 2.103,2.098 v 0.232 c -0.456,0.082 -0.892,0.232 -1.299,0.445 -0.406,0.213 -0.781,0.488 -1.113,0.822 -0.045,0.045 -0.089,0.092 -0.132,0.139 -0.043,0.047 -0.086,0.095 -0.128,0.143 l -0.119,-0.067 -0.119,-0.069 -0.758,-2.833 -0.759,-2.833 c -0.065,-0.24 -0.204,-0.439 -0.39,-0.561 -0.186,-0.123 -0.419,-0.168 -0.674,-0.1 -0.227,0.062 -0.406,0.21 -0.515,0.4 -0.108,0.189 -0.144,0.42 -0.086,0.646 l 0.55,2.038 0.549,2.039 -0.795,-0.458 -0.796,-0.458 -1.03,-3.834 c -0.028,-0.11 -0.078,-0.212 -0.146,-0.3 -0.068,-0.088 -0.154,-0.164 -0.257,-0.22 -0.098,-0.057 -0.205,-0.092 -0.313,-0.106 -0.107,-0.014 -0.219,-0.007 -0.326,0.021 -0.229,0.062 -0.41,0.208 -0.52,0.395 -0.108,0.188 -0.145,0.416 -0.086,0.646 l 0.295,1.099 0.294,1.1 -0.736,-0.427 -0.735,-0.426 h -0.006 c -0.204,-0.117 -0.436,-0.139 -0.647,-0.082 -0.21,0.057 -0.398,0.195 -0.513,0.398 -0.055,0.099 -0.09,0.205 -0.104,0.313 -0.015,0.11 -0.007,0.221 0.023,0.331 0.029,0.108 0.079,0.208 0.146,0.295 0.067,0.087 0.152,0.161 0.251,0.214 l 0.711,0.41 0.71,0.411 -1.062,0.283 -1.061,0.282 c -0.227,0.063 -0.406,0.211 -0.514,0.4 -0.108,0.19 -0.145,0.42 -0.086,0.646 0.063,0.226 0.211,0.406 0.401,0.515 0.189,0.107 0.42,0.144 0.646,0.085 l 1.883,-0.503 1.882,-0.504 0.821,0.472 0.82,0.472 -4.092,1.092 c -0.111,0.031 -0.211,0.082 -0.298,0.149 -0.087,0.069 -0.16,0.154 -0.217,0.252 -0.06,0.097 -0.097,0.202 -0.11,0.312 -0.015,0.108 -0.006,0.219 0.025,0.327 0.051,0.192 0.161,0.35 0.307,0.461 0.144,0.11 0.324,0.173 0.513,0.173 0.037,0 0.074,-0.001 0.111,-0.006 0.037,-0.004 0.074,-0.011 0.11,-0.023 l 2.87,-0.768 2.871,-0.77 0.121,0.071 0.122,0.071 c -0.085,0.24 -0.15,0.486 -0.194,0.736 -0.044,0.25 -0.066,0.505 -0.066,0.762 0,0.266 0.024,0.529 0.07,0.786 0.046,0.258 0.114,0.509 0.201,0.752 l -0.139,0.079 -0.138,0.079 -2.87,-0.765 -2.871,-0.767 c -0.226,-0.06 -0.457,-0.022 -0.645,0.086 -0.189,0.108 -0.337,0.287 -0.396,0.514 -0.062,0.226 -0.026,0.457 0.083,0.646 0.11,0.19 0.291,0.338 0.517,0.399 l 2.047,0.546 2.046,0.546 -0.784,0.452 -0.784,0.453 -3.816,-1.018 c -0.228,-0.06 -0.46,-0.022 -0.648,0.086 -0.19,0.107 -0.336,0.287 -0.399,0.514 -0.028,0.107 -0.035,0.218 -0.021,0.328 0.014,0.11 0.05,0.217 0.106,0.316 0.057,0.099 0.132,0.184 0.219,0.251 0.088,0.067 0.188,0.116 0.296,0.145 l 1.087,0.291 1.087,0.292 -0.747,0.429 -0.748,0.43 c -0.076,0.045 -0.144,0.099 -0.202,0.16 -0.058,0.062 -0.106,0.131 -0.143,0.207 l -3.109,-6.697 -3.107,-6.696 c -0.042,-0.091 -0.018,-0.183 0.04,-0.244 0.058,-0.059 0.149,-0.086 0.24,-0.048 0.23,0.097 0.458,0.195 0.688,0.293 0.228,0.096 0.457,0.194 0.685,0.291 1.158,0.494 1.652,0.805 1.829,0.679 0.178,-0.126 0.039,-0.688 -0.068,-1.941 l -0.173,-1.86 -0.173,-1.861 c 0.411,-0.467 0.82,-0.931 1.228,-1.396 0.409,-0.465 0.816,-0.931 1.223,-1.397 0.838,-0.947 1.291,-1.321 1.224,-1.527 -0.065,-0.206 -0.648,-0.246 -1.88,-0.525 l -1.823,-0.422 -1.822,-0.421 -0.858,-1.426 -0.857,-1.425 c 0,0 0.006,-0.01 0.014,-0.018 0.007,-0.01 0.019,-0.019 0.03,-0.019 3.868,0.134 7.638,0.847 11.213,2.099 3.574,1.252 6.955,3.043 10.045,5.335 l -0.761,0.757 z m -22.35,-8.913 -0.858,1.426 -0.857,1.426 c -0.609,0.141 -1.216,0.281 -1.823,0.421 -0.608,0.139 -1.214,0.28 -1.824,0.422 -1.233,0.279 -1.818,0.319 -1.884,0.525 -0.067,0.206 0.384,0.58 1.222,1.527 l 1.226,1.397 1.225,1.396 -0.17,1.861 -0.169,1.86 -0.023,0.274 -0.022,0.275 c -0.136,-0.082 -0.285,-0.14 -0.441,-0.172 -0.155,-0.032 -0.318,-0.037 -0.482,-0.015 l -3.221,0.464 -3.222,0.464 -1.72,-4.895 -1.721,-4.894 c -0.015,-0.039 0.024,-0.125 0.083,-0.207 0.059,-0.083 0.137,-0.163 0.201,-0.193 2.253,-1.033 4.603,-1.839 7.022,-2.41 2.419,-0.57 4.907,-0.904 7.436,-0.989 0.008,0 0.013,0.009 0.017,0.019 0.003,0.008 0.005,0.018 0.005,0.018 m -20.465,15.201 -4.456,0.469 -4.456,0.468 c -0.109,0.011 -0.2,-0.045 -0.246,-0.126 -0.047,-0.081 -0.05,-0.187 0.014,-0.275 0.548,-0.744 1.122,-1.47 1.723,-2.178 0.599,-0.708 1.226,-1.398 1.879,-2.067 1.183,-1.207 2.428,-2.326 3.728,-3.354 1.3,-1.028 2.656,-1.966 4.059,-2.809 0.076,-0.046 0.162,-0.033 0.223,0.013 0.06,0.046 0.096,0.125 0.074,0.212 l -1.272,4.823 z m -4.943,28.665 c -0.152,-0.04 -0.309,-0.069 -0.468,-0.089 -0.16,-0.02 -0.321,-0.03 -0.483,-0.03 -0.161,0 -0.322,0.009 -0.481,0.027 -0.159,0.017 -0.317,0.044 -0.47,0.081 -0.07,-0.124 -0.141,-0.249 -0.213,-0.373 -0.071,-0.124 -0.143,-0.249 -0.217,-0.373 -0.071,-0.125 -0.141,-0.249 -0.212,-0.373 -0.071,-0.125 -0.141,-0.249 -0.212,-0.374 0.156,-0.249 0.31,-0.498 0.463,-0.747 0.155,-0.249 0.309,-0.498 0.465,-0.746 0.153,-0.249 0.307,-0.498 0.462,-0.747 0.155,-0.248 0.311,-0.497 0.467,-0.746 0.146,0.249 0.295,0.498 0.444,0.746 0.149,0.248 0.297,0.495 0.445,0.741 0.149,0.249 0.299,0.498 0.449,0.747 0.149,0.248 0.298,0.495 0.445,0.741 -0.074,0.127 -0.147,0.254 -0.221,0.381 -0.074,0.126 -0.147,0.252 -0.221,0.377 -0.073,0.127 -0.147,0.253 -0.221,0.38 -0.073,0.126 -0.146,0.252 -0.221,0.377 m 0.793,9.529 c -0.153,0.249 -0.307,0.499 -0.462,0.749 -0.154,0.25 -0.308,0.5 -0.461,0.749 -0.155,0.249 -0.309,0.498 -0.463,0.747 -0.154,0.248 -0.306,0.497 -0.459,0.746 -0.151,-0.249 -0.3,-0.496 -0.45,-0.744 -0.149,-0.247 -0.297,-0.494 -0.445,-0.743 -0.15,-0.246 -0.299,-0.494 -0.447,-0.742 -0.149,-0.248 -0.297,-0.497 -0.447,-0.746 0.074,-0.127 0.147,-0.253 0.22,-0.379 0.073,-0.126 0.145,-0.252 0.216,-0.378 0.073,-0.127 0.147,-0.254 0.221,-0.382 0.073,-0.127 0.146,-0.254 0.221,-0.382 0.158,0.043 0.316,0.072 0.475,0.093 0.158,0.019 0.316,0.029 0.476,0.032 0.161,0 0.321,-0.01 0.48,-0.028 0.159,-0.019 0.318,-0.045 0.476,-0.08 0.071,0.124 0.141,0.249 0.213,0.373 0.07,0.124 0.141,0.249 0.212,0.374 0.071,0.125 0.141,0.248 0.211,0.37 0.072,0.123 0.142,0.246 0.213,0.371 m -5.74,-6.701 h -1.716 c -0.141,-0.26 -0.281,-0.519 -0.421,-0.778 -0.139,-0.259 -0.278,-0.517 -0.417,-0.777 -0.141,-0.261 -0.281,-0.52 -0.421,-0.778 -0.14,-0.259 -0.28,-0.518 -0.422,-0.778 0.295,-0.006 0.589,-0.01 0.883,-0.013 0.294,-0.005 0.589,-0.009 0.883,-0.015 0.295,-0.006 0.589,-0.01 0.883,-0.014 0.295,-0.005 0.589,-0.009 0.884,-0.014 0.07,0.125 0.141,0.249 0.212,0.373 0.071,0.123 0.141,0.246 0.213,0.368 0.07,0.124 0.141,0.249 0.212,0.373 0.07,0.124 0.141,0.249 0.211,0.373 -0.11,0.113 -0.215,0.236 -0.316,0.367 -0.1,0.131 -0.192,0.27 -0.277,0.413 -0.082,0.145 -0.157,0.293 -0.224,0.443 -0.065,0.151 -0.122,0.304 -0.167,0.457 m 0.951,4.02 c -0.074,0.124 -0.147,0.25 -0.221,0.376 -0.074,0.126 -0.147,0.252 -0.221,0.376 -0.073,0.125 -0.147,0.25 -0.221,0.376 -0.073,0.126 -0.146,0.252 -0.221,0.376 -0.291,-0.008 -0.583,-0.017 -0.875,-0.025 -0.292,-0.008 -0.584,-0.017 -0.879,-0.026 -0.292,-0.008 -0.583,-0.016 -0.875,-0.026 -0.293,-0.009 -0.586,-0.019 -0.88,-0.03 0.144,-0.254 0.287,-0.509 0.429,-0.763 0.143,-0.255 0.284,-0.51 0.426,-0.764 0.141,-0.255 0.284,-0.509 0.427,-0.764 0.143,-0.255 0.286,-0.511 0.428,-0.768 0.144,0.002 0.288,0.004 0.432,0.005 h 0.434 c 0.144,0.003 0.288,0.005 0.433,0.005 0.144,0.001 0.289,0.001 0.433,0.001 0.042,0.153 0.096,0.303 0.159,0.452 0.065,0.147 0.138,0.292 0.22,0.43 0.082,0.138 0.171,0.273 0.267,0.402 0.095,0.128 0.197,0.251 0.305,0.367 M -67.521,0.55 c -0.07,0.138 -0.14,0.277 -0.209,0.416 -0.069,0.138 -0.139,0.277 -0.209,0.416 -0.068,0.135 -0.138,0.272 -0.207,0.41 -0.069,0.137 -0.139,0.276 -0.207,0.415 -0.039,-0.139 -0.078,-0.278 -0.116,-0.415 -0.038,-0.138 -0.076,-0.275 -0.116,-0.41 -0.037,-0.139 -0.072,-0.28 -0.106,-0.419 -0.035,-0.14 -0.069,-0.28 -0.103,-0.418 0.105,0 0.211,0.001 0.317,0.003 0.106,0.001 0.212,0.002 0.317,0.002 z m 12.761,17.422 c 0.445,2.11 0.763,2.511 1.26,1.961 0.498,-0.55 1.174,-2.051 2.335,-3.748 0.659,3.151 0.836,4.481 1.308,4.359 0.47,-0.123 1.236,-1.698 3.074,-4.359 1.254,3.343 1.641,5.015 2.13,5.063 0.488,0.049 1.077,-1.529 2.732,-4.684 1.357,3.094 1.817,4.576 2.264,4.506 0.448,-0.07 0.884,-1.695 2.191,-4.816 1.421,2.154 2.159,3.863 2.686,4.385 0.527,0.523 0.844,-0.141 1.425,-2.734 0.588,0.291 1.177,0.557 1.767,0.816 0.591,0.261 1.182,0.515 1.776,0.784 0.236,0.416 0.398,0.581 0.507,0.593 0.109,0.013 0.164,-0.127 0.184,-0.322 0.847,0.328 1.7,0.64 2.556,0.932 0.855,0.293 1.712,0.567 2.568,0.821 -4.518,1.228 -9.576,1.95 -14.697,2.204 -5.121,0.255 -10.306,0.041 -15.076,-0.603 -0.418,-0.308 -0.834,-0.626 -1.242,-0.954 -0.409,-0.326 -0.812,-0.661 -1.209,-1.002 l 0.731,-1.601 z m 33.899,4.361 c 1.024,0.225 2.042,0.424 3.052,0.591 1.011,0.167 2.014,0.302 3.011,0.404 -0.261,0.11 -0.522,0.222 -0.789,0.338 -0.266,0.115 -0.536,0.233 -0.813,0.351 l -0.017,-0.016 -0.018,-0.018 c -0.107,-0.109 -0.239,-0.197 -0.382,-0.258 -0.145,-0.059 -0.302,-0.092 -0.46,-0.092 -0.162,0 -0.318,0.033 -0.459,0.092 -0.142,0.061 -0.269,0.149 -0.374,0.258 -0.108,0.1 -0.196,0.227 -0.256,0.369 -0.061,0.142 -0.095,0.299 -0.095,0.457 v 0.017 c -0.346,0.128 -0.7,0.253 -1.062,0.377 -0.362,0.124 -0.73,0.245 -1.1,0.364 -0.018,-0.025 -0.034,-0.051 -0.054,-0.074 -0.018,-0.024 -0.04,-0.045 -0.065,-0.062 -0.103,-0.11 -0.229,-0.198 -0.369,-0.257 -0.142,-0.061 -0.299,-0.093 -0.463,-0.093 -0.167,0 -0.322,0.032 -0.462,0.093 -0.14,0.059 -0.266,0.147 -0.376,0.257 -0.103,0.099 -0.186,0.221 -0.244,0.356 -0.058,0.135 -0.09,0.283 -0.09,0.436 -0.459,0.127 -0.92,0.253 -1.385,0.376 -0.466,0.124 -0.933,0.245 -1.406,0.365 -0.025,-0.035 -0.051,-0.068 -0.077,-0.1 -0.026,-0.032 -0.051,-0.062 -0.076,-0.087 -0.111,-0.099 -0.237,-0.183 -0.376,-0.241 -0.139,-0.059 -0.292,-0.093 -0.456,-0.093 -0.167,0 -0.323,0.034 -0.464,0.093 -0.141,0.058 -0.267,0.142 -0.374,0.241 -0.085,0.094 -0.159,0.193 -0.217,0.303 -0.06,0.108 -0.103,0.225 -0.129,0.353 -0.418,0.096 -0.848,0.181 -1.284,0.261 -0.437,0.08 -0.881,0.154 -1.331,0.231 -0.034,-0.042 -0.064,-0.084 -0.096,-0.125 -0.031,-0.041 -0.065,-0.079 -0.107,-0.113 -0.1,-0.11 -0.226,-0.199 -0.368,-0.261 -0.141,-0.061 -0.298,-0.095 -0.46,-0.095 -0.158,0 -0.314,0.034 -0.458,0.095 -0.143,0.062 -0.275,0.151 -0.385,0.261 -0.074,0.076 -0.136,0.166 -0.187,0.263 -0.051,0.097 -0.091,0.201 -0.119,0.308 -0.504,0.069 -1.018,0.127 -1.536,0.183 -0.519,0.055 -1.042,0.106 -1.566,0.157 -0.025,-0.077 -0.064,-0.148 -0.108,-0.216 -0.045,-0.068 -0.096,-0.132 -0.146,-0.191 -0.111,-0.107 -0.243,-0.195 -0.386,-0.256 -0.144,-0.061 -0.3,-0.094 -0.458,-0.094 -0.161,0 -0.319,0.033 -0.461,0.094 -0.142,0.061 -0.27,0.149 -0.371,0.256 -0.085,0.076 -0.154,0.161 -0.205,0.254 -0.053,0.092 -0.09,0.192 -0.113,0.3 -0.744,0.043 -1.496,0.072 -2.253,0.089 -0.759,0.015 -1.525,0.018 -2.298,0.007 -1.447,-0.441 -2.865,-0.97 -4.248,-1.583 -1.383,-0.613 -2.732,-1.309 -4.039,-2.087 4.921,0.447 10.183,0.461 15.313,0.002 5.129,-0.46 10.124,-1.393 14.515,-2.84 m -18.376,7.322 c 0.252,-0.008 0.502,-0.017 0.752,-0.026 0.25,-0.01 0.499,-0.022 0.748,-0.036 0.046,0.082 0.102,0.159 0.168,0.228 0.065,0.069 0.14,0.131 0.222,0.185 -0.316,-0.051 -0.633,-0.106 -0.949,-0.165 -0.315,-0.058 -0.63,-0.121 -0.941,-0.186 M 1.687,2.122 6.007,1.104 C 5.652,2.481 5.226,3.834 4.728,5.158 4.23,6.482 3.663,7.777 3.028,9.038 L 2.358,5.58 Z m -9.216,-72.976 c 0.736,1.445 0.355,3.326 -1.727,4.78 -2.082,1.455 -5.865,2.481 -11.933,2.215 2.686,-5.434 5.703,-7.964 8.248,-8.744 2.545,-0.78 4.617,0.189 5.412,1.749 m -11.142,18.436 c -0.934,-0.283 -1.88,-0.534 -2.834,-0.754 -0.954,-0.22 -1.918,-0.408 -2.89,-0.566 -0.017,-0.003 -0.033,-0.012 -0.043,-0.025 -0.011,-0.014 -0.018,-0.03 -0.018,-0.049 -0.004,-0.572 -0.051,-1.005 -0.032,-1.417 0.019,-0.412 0.104,-0.804 0.364,-1.294 0.012,-0.022 0.032,-0.037 0.055,-0.042 0.022,-0.005 0.047,-0.001 0.067,0.015 0.59,0.471 1.382,1.084 2.32,1.771 0.94,0.687 2.026,1.448 3.206,2.211 0.107,0.07 0.128,0.128 0.088,0.159 -0.04,0.031 -0.142,0.034 -0.283,-0.009 m -36.225,-18.628 c 0.798,-1.564 2.872,-2.533 5.417,-1.753 2.545,0.78 5.563,3.311 8.249,8.748 -6.069,0.263 -9.853,-0.765 -11.937,-2.219 -2.083,-1.454 -2.465,-3.334 -1.729,-4.776 m 16.628,14.595 c 0.219,0.458 0.303,0.776 0.328,1.11 0.025,0.333 -0.007,0.682 -0.019,1.202 -0.003,0.104 -0.042,0.198 -0.105,0.272 -0.064,0.073 -0.153,0.125 -0.255,0.141 -0.973,0.157 -1.938,0.347 -2.894,0.569 -0.956,0.222 -1.903,0.476 -2.84,0.762 -0.071,0.023 -0.13,-0.015 -0.153,-0.068 -0.024,-0.054 -0.015,-0.122 0.048,-0.163 1.122,-0.72 2.166,-1.442 3.085,-2.105 0.918,-0.663 1.712,-1.268 2.333,-1.758 0.056,-0.045 0.164,-0.058 0.262,-0.048 0.099,0.008 0.189,0.041 0.21,0.086"
         style="fill:none;stroke:#ff0000;stroke-width:0.38px"
         id="path132" />
    </g>
  </g>
</svg>
