<?xml version="1.0" encoding="UTF-8" standalone="no"?>
<!-- Created with Inkscape (http://www.inkscape.org/) -->

<svg
   width="63.282768mm"
   height="80.041374mm"
   viewBox="0 0 63.282768 80.041375"
   version="1.1"
   id="svg327"
   inkscape:version="1.1.1 (c3084ef, 2021-09-22)"
   sodipodi:docname="12.svg"
   xmlns:inkscape="http://www.inkscape.org/namespaces/inkscape"
   xmlns:sodipodi="http://sodipodi.sourceforge.net/DTD/sodipodi-0.dtd"
   xmlns="http://www.w3.org/2000/svg"
   xmlns:svg="http://www.w3.org/2000/svg">
  <sodipodi:namedview
     id="namedview329"
     pagecolor="#ffffff"
     bordercolor="#666666"
     borderopacity="1.0"
     inkscape:pageshadow="2"
     inkscape:pageopacity="0.0"
     inkscape:pagecheckerboard="0"
     inkscape:document-units="mm"
     showgrid="false"
     fit-margin-top="0"
     fit-margin-left="0"
     fit-margin-right="0"
     fit-margin-bottom="0"
     inkscape:zoom="0.64052329"
     inkscape:cx="-167.83152"
     inkscape:cy="125.67849"
     inkscape:window-width="1312"
     inkscape:window-height="963"
     inkscape:window-x="603"
     inkscape:window-y="25"
     inkscape:window-maximized="0"
     inkscape:current-layer="layer1" />
  <defs
     id="defs324" />
  <g
     inkscape:label="Layer 1"
     inkscape:groupmode="layer"
     id="layer1"
     transform="translate(-26.449768,-115.43859)">
    <g
       transform="matrix(0.70555643,0,0,0.70555643,89.431263,144.1839)"
       id="g138"
       style="clip-rule:evenodd;fill-rule:evenodd;stroke-linejoin:round;stroke-miterlimit:2">
      <path
         d="m 0,31.625 c 0.077,-0.779 0.137,-1.562 0.177,-2.346 0.04,-0.784 0.06,-1.571 0.06,-2.361 0,-3.012 -0.285,-5.981 -0.848,-8.89 C -1.176,15.12 -2.02,12.271 -3.137,9.504 -4.262,6.725 -5.639,4.09 -7.257,1.616 c -1.618,-2.472 -3.476,-4.783 -5.564,-6.913 -1.017,-1.043 -2.076,-2.03 -3.176,-2.959 -1.099,-0.93 -2.238,-1.802 -3.416,-2.614 -0.033,-0.024 -0.043,-0.061 -0.035,-0.093 0.009,-0.032 0.035,-0.059 0.075,-0.064 1.288,-0.149 2.583,-0.632 3.691,-1.405 1.109,-0.773 2.032,-1.836 2.574,-3.141 0.409,-0.981 0.209,-1.898 -0.36,-3.246 -0.568,-1.349 -1.505,-3.129 -2.566,-5.836 -0.456,-1.16 -0.325,-2.61 0.029,-4.096 0.354,-1.487 0.931,-3.012 1.364,-4.324 1.68,-5.098 -2.683,-7.562 -8.196,-7.26 -5.513,0.302 -12.175,3.369 -15.094,9.334 -0.075,0.152 -0.211,0.253 -0.361,0.288 -0.149,0.034 -0.314,0.005 -0.447,-0.102 -0.705,-0.569 -1.494,-1.008 -2.336,-1.305 -0.843,-0.297 -1.738,-0.452 -2.657,-0.452 -0.962,0 -1.899,0.169 -2.775,0.494 -0.876,0.325 -1.692,0.805 -2.414,1.427 -0.065,0.056 -0.148,0.071 -0.224,0.052 -0.076,-0.018 -0.143,-0.07 -0.178,-0.149 -2.763,-6.182 -9.488,-9.392 -15.097,-9.766 -5.609,-0.374 -10.101,2.087 -8.399,7.245 0.433,1.313 1.01,2.837 1.365,4.325 0.354,1.486 0.487,2.935 0.034,4.095 -1.065,2.707 -2.003,4.488 -2.572,5.836 -0.57,1.349 -0.772,2.266 -0.365,3.246 0.615,1.477 1.502,2.454 2.579,3.038 1.077,0.583 2.344,0.774 3.718,0.679 0.065,-0.005 0.111,0.034 0.126,0.084 0.017,0.049 0.003,0.108 -0.051,0.142 -1.452,0.922 -2.848,1.928 -4.188,3.014 -1.339,1.088 -2.621,2.258 -3.844,3.507 -2.087,2.133 -3.946,4.446 -5.563,6.919 -1.618,2.474 -2.995,5.109 -4.121,7.888 -1.12,2.767 -1.963,5.616 -2.527,8.524 -0.563,2.909 -0.847,5.878 -0.847,8.89 0,3.008 0.284,5.978 0.847,8.887 0.564,2.909 1.407,5.758 2.527,8.526 1.126,2.779 2.503,5.413 4.121,7.886 1.617,2.471 3.476,4.783 5.563,6.915 2.088,2.139 4.352,4.042 6.774,5.699 2.422,1.657 5.002,3.068 7.722,4.224 2.716,1.146 5.512,2.01 8.369,2.589 2.855,0.578 5.771,0.869 8.728,0.869 2.959,0 5.876,-0.291 8.734,-0.87 2.857,-0.579 5.654,-1.445 8.373,-2.594 2.721,-1.152 5.301,-2.562 7.723,-4.219 2.422,-1.656 4.685,-3.559 6.773,-5.698 2.088,-2.132 3.946,-4.444 5.564,-6.915 1.618,-2.473 2.995,-5.107 4.12,-7.886 0.673,-1.662 1.243,-3.353 1.714,-5.068 0.471,-1.716 0.842,-3.456 1.112,-5.218 0.062,-0.403 0.119,-0.806 0.17,-1.208 C -0.089,32.434 -0.042,32.03 0,31.625 M -9.645,6.955 -12.106,6.439 -14.568,5.924 -15.215,2.033 -15.86,-1.858 c -0.007,-0.038 0.013,-0.068 0.041,-0.081 0.028,-0.015 0.064,-0.012 0.09,0.014 1.286,1.34 2.474,2.757 3.561,4.245 1.087,1.489 2.072,3.049 2.951,4.676 0.006,0.011 0.004,0.023 -0.002,0.031 -0.007,0.008 -0.017,0.014 -0.029,0.011 L -9.446,6.996 Z m -7.346,-10.136 -0.559,4.614 -0.558,4.612 -0.941,0.229 -0.94,0.23 c 0.069,-0.87 -0.025,-2.076 -0.396,-3.36 -0.37,-1.285 -1.017,-2.648 -2.054,-3.833 -1.49,-1.701 -3.221,-2.96 -5.092,-3.819 -1.87,-0.858 -3.88,-1.314 -5.926,-1.409 -0.009,0 -0.014,-0.007 -0.014,-0.014 0,-0.007 0.005,-0.013 0.014,-0.013 2.31,-0.038 4.801,0.187 7.064,0.78 2.265,0.593 4.302,1.553 5.702,2.983 0.376,0.39 0.974,0.954 1.552,1.156 0.578,0.201 1.136,0.038 1.429,-1.029 0.106,-0.39 0.057,-0.812 -0.113,-1.245 -0.17,-0.432 -0.46,-0.876 -0.835,-1.307 -0.014,-0.016 -0.01,-0.035 0.001,-0.045 0.011,-0.012 0.029,-0.016 0.045,-0.002 0.275,0.236 0.548,0.477 0.818,0.723 0.27,0.245 0.538,0.495 0.803,0.749 m -13.435,19.038 0.609,2.758 0.608,2.759 c 0.003,0.016 0.002,0.031 -0.004,0.046 -0.006,0.014 -0.016,0.026 -0.029,0.035 -0.376,0.245 -0.738,0.506 -1.084,0.78 -0.345,0.274 -0.673,0.562 -0.979,0.86 -2.665,2.389 -4.347,5.587 -5.061,9.009 -0.714,3.423 -0.459,7.071 0.751,10.362 0.041,0.11 0.052,0.186 0.039,0.204 -0.013,0.018 -0.049,-0.024 -0.104,-0.146 -0.429,-0.97 -0.83,-2.061 -1.146,-3.28 -0.318,-1.22 -0.55,-2.567 -0.646,-4.051 -0.205,-3.22 0.369,-6.025 1.434,-8.491 1.064,-2.466 2.62,-4.591 4.379,-6.453 0.675,-0.715 0.558,-0.962 0.159,-0.962 -0.399,0.001 -1.083,0.25 -1.542,0.525 -0.942,0.576 -1.88,1.276 -2.726,2.081 -0.845,0.805 -1.599,1.715 -2.174,2.71 l -3.003,-0.624 -3.003,-0.625 -1.184,-4.756 c 1.714,-0.548 3.023,-1.674 3.889,-3.11 0.867,-1.435 1.291,-3.181 1.235,-4.972 0,-0.018 0.01,-0.032 0.023,-0.038 0.013,-0.007 0.03,-0.007 0.045,0.004 0.427,0.336 0.902,0.62 1.424,0.833 0.524,0.214 1.094,0.359 1.713,0.415 1.445,0.128 2.728,-0.056 3.837,-0.475 1.11,-0.419 2.044,-1.071 2.792,-1.876 0.021,-0.023 0.05,-0.025 0.072,-0.015 0.022,0.012 0.039,0.035 0.033,0.066 l -0.294,1.689 -0.295,1.689 -3.21,0.779 -3.211,0.779 c -0.058,0.014 -0.086,0.063 -0.085,0.111 0.001,0.048 0.032,0.095 0.091,0.107 l 3.323,0.637 z m 6.483,11.845 0.457,2.085 0.457,2.086 c 0.002,0.008 -0.002,0.015 -0.008,0.019 -0.006,0.004 -0.014,0.004 -0.021,0 -1.793,-1.252 -4.048,-1.567 -6.104,-1.062 -2.055,0.506 -3.909,1.83 -4.901,3.858 -0.018,0.036 -0.053,0.045 -0.083,0.037 -0.031,-0.009 -0.055,-0.037 -0.05,-0.077 0.366,-3.211 1.32,-5.63 2.929,-7.68 1.61,-2.051 3.875,-3.733 6.865,-5.47 0.423,-0.246 0.691,-0.436 0.869,-0.589 0.178,-0.154 0.264,-0.273 0.325,-0.378 l -0.448,2.561 -0.448,2.56 -4.108,1.002 c -0.062,0.015 -0.093,0.068 -0.092,0.119 10e-4,0.052 0.034,0.104 0.098,0.116 l 2.131,0.407 z m -27.141,-10.04 c 0.458,0.399 0.948,0.711 1.531,0.93 0.583,0.22 1.259,0.345 2.087,0.37 0.24,0.008 0.476,-0.005 0.705,-0.029 0.23,-0.025 0.453,-0.062 0.672,-0.104 l -0.495,2.316 -0.495,2.314 -1.972,0.479 -1.972,0.477 c -0.008,0.003 -0.016,-10e-4 -0.02,-0.007 -0.004,-0.005 -0.005,-0.012 -10e-4,-0.02 0.581,-0.954 0.873,-2.13 0.864,-3.316 -0.008,-1.185 -0.317,-2.381 -0.94,-3.374 -0.008,-0.012 -0.004,-0.026 0.004,-0.034 0.008,-0.009 0.021,-0.012 0.032,-0.002 m 2.805,-1.274 c -0.482,-0.091 -0.977,-0.276 -1.444,-0.58 -0.467,-0.306 -0.907,-0.733 -1.277,-1.31 -0.317,-0.61 -0.462,-1.09 -0.492,-1.525 -0.029,-0.436 0.056,-0.827 0.2,-1.26 0.064,-0.192 -10e-4,-0.378 -0.129,-0.494 -0.127,-0.116 -0.316,-0.162 -0.5,-0.075 l -0.082,0.038 c -0.027,0.013 -0.055,0.027 -0.081,0.04 -0.127,0.089 -0.243,0.183 -0.351,0.284 -0.107,0.099 -0.206,0.206 -0.294,0.317 -0.019,0.025 -0.047,0.029 -0.071,0.02 -0.022,-0.009 -0.04,-0.031 -0.038,-0.062 0.018,-0.197 -0.007,-0.407 -0.082,-0.626 -0.075,-0.218 -0.202,-0.447 -0.387,-0.678 -0.799,-0.998 -2.067,-1.55 -3.404,-1.777 -1.337,-0.226 -2.743,-0.127 -3.819,0.18 -0.306,0.087 -0.635,0.192 -0.968,0.322 -0.334,0.129 -0.671,0.282 -0.991,0.464 -0.063,0.035 -0.115,0.022 -0.141,-0.014 -0.024,-0.035 -0.023,-0.093 0.023,-0.149 0.159,-0.197 0.331,-0.392 0.514,-0.576 0.185,-0.186 0.382,-0.364 0.595,-0.529 1.858,-1.438 3.812,-1.434 5.616,-1.075 1.804,0.359 3.457,1.073 4.716,1.054 0.929,-0.014 1.775,-0.397 2.214,-0.994 0.437,-0.597 0.469,-1.409 -0.235,-2.282 -0.915,-1.147 -2.239,-1.817 -3.643,-2.114 -1.403,-0.296 -2.889,-0.217 -4.126,0.133 -0.149,0.042 -0.241,0.049 -0.282,0.038 -0.041,-0.012 -0.032,-0.042 0.02,-0.074 0.521,-0.322 1.047,-0.592 1.572,-0.801 0.525,-0.208 1.049,-0.356 1.565,-0.436 2.044,-0.321 4.329,-0.133 6.349,0.646 2.019,0.778 3.772,2.149 4.752,4.194 0.259,0.538 0.448,1.081 0.574,1.608 0.127,0.528 0.191,1.04 0.205,1.518 0.045,1.652 -0.546,3.475 -1.612,4.795 -1.066,1.321 -2.608,2.139 -4.466,1.78 m -10.453,5.171 c -0.067,0.143 -0.12,0.293 -0.16,0.447 -0.04,0.153 -0.067,0.312 -0.084,0.475 -0.177,-0.099 -0.38,-0.183 -0.613,-0.245 -0.231,-0.061 -0.493,-0.1 -0.786,-0.108 -0.955,-0.028 -1.859,0.351 -2.656,1.002 -0.796,0.652 -1.486,1.578 -2.011,2.642 -0.025,0.052 -0.077,0.069 -0.122,0.059 -0.046,-0.01 -0.085,-0.047 -0.087,-0.104 -0.014,-0.411 -0.015,-0.783 -0.002,-1.123 0.012,-0.339 0.037,-0.647 0.075,-0.931 0.046,-0.345 0.128,-0.682 0.244,-1.007 0.116,-0.325 0.264,-0.639 0.441,-0.937 1.848,-3.122 5.028,-4.334 7.748,-4.161 2.72,0.174 4.979,1.734 4.987,4.157 0.005,1.458 -0.556,2.394 -1.324,2.903 -0.769,0.508 -1.743,0.588 -2.564,0.334 -0.556,-0.177 -1.039,-0.533 -1.348,-0.97 -0.309,-0.436 -0.444,-0.953 -0.306,-1.45 0.135,-0.475 0.484,-0.911 0.931,-1.195 0.447,-0.284 0.992,-0.414 1.518,-0.279 0.237,0.062 0.438,-0.054 0.534,-0.225 0.095,-0.171 0.085,-0.398 -0.101,-0.557 -0.493,-0.423 -1.33,-0.605 -2.164,-0.432 -0.834,0.173 -1.666,0.704 -2.15,1.705 M -62.248,-9.99 c 0.489,-0.257 0.849,-0.434 1.213,-0.602 0.364,-0.167 0.734,-0.323 1.246,-0.539 2.185,-0.923 4.425,-1.642 6.71,-2.156 2.284,-0.513 4.614,-0.82 6.977,-0.92 0.015,-10e-4 0.025,0.009 0.027,0.02 0.003,0.011 -0.002,0.024 -0.016,0.03 -0.272,0.105 -0.542,0.238 -0.805,0.401 -0.262,0.163 -0.518,0.356 -0.764,0.581 -0.824,0.903 -1.033,1.983 -0.809,2.926 0.225,0.943 0.884,1.749 1.794,2.103 0.199,0.077 0.388,0.008 0.503,-0.126 0.114,-0.135 0.154,-0.335 0.056,-0.525 -0.406,-0.774 -0.401,-1.58 -0.05,-2.18 0.352,-0.599 1.049,-0.993 2.023,-0.944 0.8,0.039 1.45,0.441 1.808,1.131 0.358,0.689 0.425,1.667 0.057,2.858 -0.28,0.921 -1.299,2.058 -2.559,3.124 -1.26,1.067 -2.76,2.063 -4.001,2.704 -0.032,0.016 -0.066,0.006 -0.087,-0.015 -0.02,-0.023 -0.029,-0.057 -0.013,-0.09 1.732,-3.37 0.866,-6.194 -1.064,-7.736 -1.929,-1.542 -4.921,-1.803 -7.441,-0.048 -1.828,1.276 -2.563,3.406 -2.227,5.226 0.336,1.821 1.742,3.331 4.195,3.371 1.192,0.02 2.245,-0.496 2.859,-1.236 0.614,-0.741 0.79,-1.707 0.228,-2.585 -0.115,-0.179 -0.315,-0.235 -0.491,-0.192 -0.176,0.043 -0.328,0.184 -0.349,0.396 -0.058,0.62 -0.389,1.116 -0.89,1.411 -0.501,0.297 -1.172,0.396 -1.91,0.222 -1.415,-0.337 -1.944,-1.774 -1.588,-3.11 0.356,-1.336 1.596,-2.57 3.718,-2.497 1.001,0.036 1.798,0.424 2.382,0.972 0.584,0.548 0.955,1.257 1.102,1.934 0.561,2.604 -0.548,3.887 -2.385,4.839 -1.837,0.953 -4.401,1.578 -6.752,2.868 -1.833,1.005 -3.416,2.745 -4.695,4.684 -1.279,1.939 -2.254,4.077 -2.868,5.88 -0.014,0.04 -0.051,0.054 -0.083,0.047 -0.032,-0.008 -0.061,-0.035 -0.058,-0.078 0.118,-1.546 0.338,-2.957 0.859,-4.366 0.519,-1.409 1.34,-2.815 2.664,-4.35 1.177,-1.364 1.964,-3.711 2.224,-6.21 0.26,-2.498 -0.007,-5.149 -0.935,-7.121 l 0.097,-0.05 z m 22.811,1.281 c 0.237,-1.234 -0.042,-2.395 -0.642,-3.346 -0.602,-0.951 -1.526,-1.694 -2.582,-2.093 -0.016,-0.006 -0.022,-0.021 -0.019,-0.035 0.002,-0.012 0.013,-0.023 0.03,-0.022 2.129,0.095 4.233,0.358 6.3,0.789 2.068,0.431 4.1,1.028 6.086,1.791 0.039,0.015 0.054,0.052 0.047,0.085 -0.006,0.033 -0.032,0.062 -0.074,0.063 -1.642,0.022 -3.173,0.141 -4.658,0.548 -1.487,0.408 -2.927,1.105 -4.387,2.281 -0.022,0.019 -0.051,0.018 -0.072,0.005 -0.021,-0.012 -0.034,-0.037 -0.029,-0.066 M -66.149,18.49 c 0.007,-0.25 0.035,-0.931 0.327,-1.828 0.291,-0.897 0.847,-2.008 1.912,-3.116 0.002,-0.002 0.899,-0.902 2.393,-1.416 1.495,-0.514 3.584,-0.642 5.971,0.902 0.277,0.179 0.723,0.197 1.151,0.126 0.428,-0.072 0.839,-0.234 1.045,-0.418 0.022,-0.019 0.05,-0.018 0.07,-0.007 0.019,0.013 0.031,0.038 0.022,0.065 -0.169,0.505 -0.213,1.045 -0.148,1.575 0.064,0.529 0.237,1.049 0.504,1.512 0.01,0.018 0.006,0.037 -0.005,0.049 -0.012,0.011 -0.031,0.015 -0.049,0.005 -2.443,-1.394 -4.95,-1.433 -7.223,-0.613 -2.273,0.821 -4.312,2.502 -5.823,4.547 -0.034,0.046 -0.082,0.054 -0.122,0.036 -0.04,-0.017 -0.071,-0.061 -0.071,-0.118 -0.001,-0.255 0.009,-0.546 0.021,-0.791 0.011,-0.245 0.023,-0.442 0.025,-0.51 M -31.516,7.543 c -1.47,1.964 -3.608,2.458 -5.475,1.922 -1.867,-0.535 -3.465,-2.102 -3.855,-4.259 -0.279,-1.55 0.382,-2.983 1.411,-3.844 1.03,-0.859 2.428,-1.145 3.622,-0.399 1.5,0.962 1.611,2.382 0.991,3.246 -0.62,0.864 -1.972,1.173 -3.393,-0.088 -0.073,-0.064 -0.164,-0.061 -0.231,-0.019 -0.067,0.043 -0.109,0.125 -0.082,0.218 0.065,0.233 0.17,0.47 0.295,0.685 0.124,0.214 0.268,0.406 0.413,0.549 0.276,0.276 0.631,0.503 1.018,0.666 0.389,0.163 0.813,0.261 1.227,0.284 0.694,0.033 1.413,-0.123 2.03,-0.483 0.616,-0.36 1.131,-0.923 1.416,-1.705 0.586,-1.616 0.057,-3.14 -1.053,-4.23 -1.11,-1.09 -2.799,-1.745 -4.533,-1.62 -1.402,0.097 -2.696,0.642 -3.635,1.542 -0.938,0.9 -1.521,2.157 -1.499,3.679 0,0.018 -0.009,0.033 -0.022,0.04 -0.013,0.006 -0.029,0.004 -0.043,-0.008 -0.941,-0.952 -2.124,-1.761 -3.554,-2.346 -1.43,-0.584 -3.109,-0.944 -5.046,-1.001 -0.025,-0.001 -0.04,-0.018 -0.044,-0.037 -0.003,-0.02 0.006,-0.04 0.03,-0.048 2.457,-0.778 5.289,-1.586 7.954,-2.149 2.665,-0.563 5.162,-0.882 6.948,-0.684 3.098,0.343 5.012,2.017 5.833,4.029 0.821,2.013 0.55,4.364 -0.723,6.06 m -9.078,-13.401 c 1.291,-0.818 2.59,-1.525 3.939,-2.067 1.347,-0.543 2.745,-0.922 4.233,-1.085 1.297,-0.143 2.515,-0.08 3.567,10e-4 1.051,0.081 1.937,0.179 2.57,0.105 0.187,-0.024 0.306,-0.12 0.377,-0.241 0.071,-0.12 0.095,-0.263 0.093,-0.379 0,-0.013 0.007,-0.024 0.017,-0.03 0.01,-0.006 0.024,-0.007 0.035,-10e-4 0.736,0.394 1.458,0.81 2.167,1.248 0.708,0.44 1.404,0.902 2.083,1.385 0.026,0.018 0.026,0.047 0.013,0.068 -0.013,0.02 -0.038,0.032 -0.066,0.017 -0.259,-0.138 -0.522,-0.265 -0.784,-0.377 -0.261,-0.113 -0.522,-0.214 -0.781,-0.299 -2.367,-0.783 -5.401,-0.919 -8.513,-0.574 -3.111,0.344 -6.3,1.168 -8.978,2.304 -0.05,0.02 -0.043,0.002 -0.024,-0.022 0.02,-0.024 0.052,-0.053 0.052,-0.053 m 20.002,-28.841 c 0.715,1.403 0.35,3.229 -1.655,4.646 -2.006,1.417 -5.65,2.426 -11.497,2.197 -0.046,-0.002 -0.084,-0.029 -0.106,-0.065 -0.02,-0.036 -0.025,-0.081 -0.004,-0.123 2.62,-5.216 5.547,-7.638 8.014,-8.377 2.467,-0.738 4.473,0.205 5.248,1.722 m -15.994,14.069 c 0.355,0.32 0.746,0.771 1.184,1.283 0.438,0.514 0.923,1.09 1.465,1.664 0.048,0.051 0.048,0.118 0.02,0.166 -0.028,0.049 -0.087,0.081 -0.154,0.066 -0.49,-0.118 -0.979,-0.227 -1.471,-0.328 -0.492,-0.101 -0.985,-0.194 -1.481,-0.279 -0.059,-0.009 -0.109,-0.04 -0.144,-0.083 -0.035,-0.042 -0.056,-0.096 -0.054,-0.155 0.015,-0.475 0,-0.838 0.033,-1.184 0.032,-0.347 0.111,-0.678 0.312,-1.089 0.018,-0.035 0.074,-0.064 0.136,-0.077 0.06,-0.013 0.124,-0.011 0.154,0.016 m -7.146,-7.036 c 0.845,0 1.609,0.334 2.161,0.881 0.551,0.547 0.891,1.306 0.891,2.157 0,0.403 -0.079,0.796 -0.23,1.16 -0.152,0.364 -0.375,0.699 -0.666,0.989 -0.284,0.288 -0.619,0.51 -0.985,0.661 -0.366,0.15 -0.762,0.229 -1.171,0.229 -0.411,0 -0.805,-0.079 -1.17,-0.23 -0.365,-0.152 -0.698,-0.375 -0.983,-0.665 -0.287,-0.287 -0.511,-0.621 -0.663,-0.985 -0.152,-0.363 -0.232,-0.756 -0.232,-1.159 0,-0.84 0.342,-1.6 0.893,-2.148 0.552,-0.55 1.314,-0.89 2.155,-0.89 m -6.921,6.979 c 0.232,0.458 0.318,0.738 0.343,1.04 0.027,0.3 -0.007,0.625 -0.014,1.172 -0.001,0.055 -0.022,0.105 -0.056,0.143 -0.033,0.038 -0.08,0.065 -0.134,0.072 -0.849,0.118 -1.694,0.262 -2.534,0.43 -0.84,0.168 -1.676,0.36 -2.506,0.578 -0.043,0.011 -0.078,-0.012 -0.092,-0.044 -0.014,-0.032 -0.008,-0.073 0.029,-0.099 0.942,-0.621 1.814,-1.234 2.584,-1.796 0.77,-0.563 1.439,-1.077 1.974,-1.497 0.05,-0.041 0.142,-0.057 0.227,-0.056 0.084,0.002 0.16,0.021 0.179,0.057 m -16.221,-14.2 c 0.773,-1.509 2.76,-2.452 5.205,-1.74 2.445,0.713 5.351,3.081 7.961,8.193 0.045,0.089 0.036,0.187 -0.009,0.263 -0.046,0.076 -0.127,0.131 -0.226,0.135 -5.751,0.193 -9.339,-0.823 -11.312,-2.236 -1.973,-1.414 -2.329,-3.223 -1.619,-4.615 m -5.968,32.684 c 1.426,-1.454 2.941,-2.789 4.538,-4 1.597,-1.21 3.278,-2.295 5.035,-3.25 0.019,-0.01 0.04,-0.007 0.056,0.004 0.015,0.011 0.025,0.029 0.024,0.05 -0.188,1.824 -0.395,3.079 -0.977,4.211 -0.582,1.13 -1.54,2.138 -3.228,3.465 -1.308,1.03 -1.976,3.091 -2.224,5.553 -0.247,2.462 -0.073,5.324 0.302,7.957 0.006,0.045 -0.022,0.075 -0.057,0.084 -0.034,0.008 -0.073,-0.006 -0.089,-0.05 -0.675,-1.939 -1.542,-3.893 -2.85,-5.361 -1.308,-1.468 -3.057,-2.449 -5.497,-2.442 -0.006,0 -0.012,-0.004 -0.015,-0.01 -0.003,-0.005 -0.003,-0.012 0,-0.018 0.755,-1.176 1.508,-2.219 2.318,-3.22 0.81,-1.002 1.678,-1.963 2.664,-2.973 m -11.792,29.121 c 0,-0.662 0.006,-1.213 0.027,-1.759 0.02,-0.545 0.055,-1.086 0.116,-1.73 0.002,-0.018 0.012,-0.033 0.025,-0.042 0.014,-0.01 0.031,-0.014 0.049,-0.01 3.837,0.993 5.159,1.843 6.148,2.751 0.99,0.908 1.646,1.876 4.15,3.104 1.282,0.631 2.499,1.388 3.654,2.3 1.156,0.912 2.25,1.979 3.289,3.231 0.037,0.045 0.027,0.097 -0.006,0.129 -0.032,0.032 -0.085,0.043 -0.129,0.004 -2.461,-2.117 -5.264,-3.855 -8.196,-4.846 -2.931,-0.991 -5.993,-1.237 -8.972,-0.366 -0.015,0.004 -0.031,0.002 -0.042,-0.007 -0.013,-0.008 -0.022,-0.022 -0.023,-0.038 -0.029,-0.452 -0.052,-0.904 -0.066,-1.357 -0.016,-0.454 -0.024,-0.908 -0.024,-1.364 m 5.104,20.079 c -0.396,-0.716 -0.753,-1.415 -1.09,-2.127 -0.337,-0.712 -0.653,-1.436 -0.966,-2.201 -0.78,-1.935 -1.403,-3.817 -1.877,-5.734 -0.473,-1.917 -0.796,-3.871 -0.975,-5.944 -10e-4,-0.016 0.007,-0.032 0.02,-0.04 0.014,-0.008 0.03,-0.01 0.045,0 1.094,0.693 1.683,2.032 2.761,3.212 1.078,1.18 2.645,2.199 5.695,2.252 2.892,0.049 4.922,0.445 6.572,1.114 1.652,0.668 2.923,1.609 4.299,2.743 0.056,0.046 0.059,0.114 0.03,0.165 -0.027,0.049 -0.087,0.082 -0.155,0.057 -1.625,-0.578 -3.328,-0.913 -5.005,-0.89 -1.678,0.023 -3.329,0.405 -4.85,1.258 -1.344,0.751 -2.398,1.703 -3.144,2.772 -0.746,1.069 -1.184,2.256 -1.298,3.476 l -0.031,-0.056 z m 9.859,11.954 c -0.595,-0.483 -1.116,-0.935 -1.625,-1.405 -0.509,-0.47 -1.004,-0.958 -1.546,-1.513 -0.082,-0.084 -0.163,-0.168 -0.244,-0.253 -0.081,-0.084 -0.161,-0.168 -0.24,-0.252 -0.033,-0.034 -0.035,-0.08 -0.018,-0.117 0.017,-0.036 0.055,-0.062 0.102,-0.058 0.744,0.069 1.52,0.005 2.283,-0.178 0.762,-0.184 1.509,-0.488 2.191,-0.899 0.027,-0.015 0.054,-0.007 0.072,0.009 0.016,0.018 0.022,0.045 0.006,0.07 -0.547,0.802 -0.843,1.636 -0.949,2.45 -0.105,0.813 -0.02,1.605 0.196,2.322 0.002,0.006 -0.001,0.01 -0.005,0.012 -0.003,0.002 -0.007,0.002 -0.007,0.002 z M -70.66,48.727 c 0.112,-0.382 0.469,-0.675 0.907,-0.77 0.438,-0.094 0.957,0.011 1.397,0.424 0.298,0.276 0.504,0.707 0.572,1.203 0.068,0.496 -0.002,1.057 -0.257,1.593 -0.711,1.505 -2.433,2.224 -4.127,2.075 -1.694,-0.15 -3.361,-1.169 -3.965,-3.142 -0.711,-2.312 -0.071,-4.378 1.355,-5.801 1.426,-1.423 3.639,-2.204 6.079,-1.945 2.964,0.315 5.085,1.331 6.918,2.76 1.834,1.429 3.38,3.271 5.197,5.233 0.019,0.021 0.021,0.048 0.01,0.07 -0.011,0.02 -0.033,0.035 -0.062,0.032 -1.001,-0.132 -2.677,-0.329 -4.507,-0.175 -1.829,0.155 -3.81,0.663 -5.421,1.943 -0.034,0.027 -0.074,0.021 -0.1,0 -0.025,-0.022 -0.039,-0.06 -0.021,-0.098 0.366,-0.741 0.584,-1.598 0.554,-2.421 -0.031,-0.824 -0.312,-1.616 -0.947,-2.228 -0.837,-0.799 -1.88,-0.92 -2.665,-0.634 -0.786,0.286 -1.314,0.979 -1.12,1.809 0.011,0.048 0.057,0.081 0.102,0.095 0.046,0.015 0.091,0.009 0.101,-0.023 m 12.912,17.035 c -0.342,-0.124 -0.683,-0.252 -1.022,-0.384 -0.339,-0.132 -0.678,-0.269 -1.013,-0.412 -0.781,-0.33 -1.55,-0.685 -2.305,-1.063 -0.755,-0.378 -1.496,-0.779 -2.225,-1.203 -0.011,-0.007 -0.015,-0.019 -0.011,-0.03 0.003,-0.011 0.011,-0.021 0.026,-0.021 1.055,-0.032 1.911,-0.357 2.528,-0.899 0.619,-0.542 0.999,-1.3 1.102,-2.198 0.105,-0.867 -0.163,-1.663 -0.65,-2.252 -0.487,-0.589 -1.192,-0.972 -1.961,-1.013 -1.175,-0.063 -1.91,0.528 -2.174,1.198 -0.264,0.67 -0.055,1.418 0.659,1.663 0.373,0.061 0.287,-0.001 0.153,-0.187 -0.132,-0.187 -0.314,-0.497 -0.131,-0.934 0.096,-0.223 0.278,-0.428 0.507,-0.573 0.23,-0.145 0.508,-0.23 0.798,-0.217 0.183,0.011 0.367,0.06 0.549,0.155 0.181,0.095 0.358,0.238 0.524,0.436 0.478,0.575 0.438,1.326 0.096,1.948 -0.342,0.622 -0.986,1.116 -1.717,1.174 -0.84,0.066 -1.522,-0.262 -1.996,-0.857 -0.474,-0.596 -0.741,-1.461 -0.753,-2.469 -0.01,-1.18 0.495,-2.339 1.679,-3.189 1.183,-0.851 3.042,-1.394 5.738,-1.341 1.953,0.04 3.839,0.501 5.851,1.453 2.012,0.953 4.148,2.397 6.601,4.406 0.041,0.033 0.047,0.081 0.031,0.12 -0.017,0.038 -0.055,0.067 -0.106,0.061 -1.967,-0.258 -4.754,0.303 -6.998,1.471 -2.245,1.169 -3.946,2.948 -3.74,5.127 0,0.008 -0.006,0.017 -0.015,0.023 -0.007,0.006 -0.018,0.01 -0.025,0.007 m 3.693,1.094 c 1.995,-1.437 3.291,-3.04 4.755,-4.149 1.464,-1.109 3.096,-1.725 5.763,-1.188 0,0 0.021,0.036 0.014,0.078 -0.008,0.043 -0.046,0.092 -0.163,0.12 -0.94,0.223 -1.802,0.548 -2.617,0.986 -0.815,0.439 -1.583,0.991 -2.336,1.672 -0.752,0.683 -1.319,1.36 -1.648,1.927 -0.329,0.566 -0.42,1.021 -0.22,1.259 0.008,0.009 0.008,0.021 0.002,0.031 -0.005,0.009 -0.016,0.014 -0.028,0.012 -0.588,-0.09 -1.174,-0.195 -1.757,-0.312 -0.583,-0.117 -1.162,-0.248 -1.738,-0.393 -0.011,-0.003 -0.021,-0.01 -0.026,-0.02 -0.006,-0.009 -0.007,-0.019 -10e-4,-0.023 m 10.571,1.208 c -0.954,0.033 -1.869,0.032 -2.781,-0.009 -0.912,-0.04 -1.822,-0.12 -2.768,-0.242 -0.012,-0.002 -0.019,-0.011 -0.019,-0.021 0,-0.009 0.005,-0.019 0.017,-0.021 0.993,-0.22 2.135,-1.274 3.757,-2.375 1.622,-1.102 3.724,-2.251 6.641,-2.662 0.063,-0.008 0.105,0.032 0.116,0.078 0.011,0.048 -0.007,0.103 -0.067,0.124 -1.985,0.709 -3.249,1.691 -3.978,2.642 -0.731,0.951 -0.928,1.871 -0.782,2.454 10e-4,0.005 -0.003,0.012 -0.007,0.018 -0.005,0.006 -0.01,0.011 -0.01,0.011 l -0.06,0.002 z m 14.435,-3.098 c -1.988,0.843 -4.025,1.514 -6.1,2.015 -2.076,0.501 -4.188,0.832 -6.328,0.99 -0.014,10e-4 -0.026,-0.008 -0.031,-0.019 -0.005,-0.012 -0.003,-0.026 0.008,-0.036 0.488,-0.47 0.904,-0.989 1.312,-1.462 0.408,-0.472 0.807,-0.897 1.261,-1.179 2.316,-1.409 4.444,-1.681 6.668,-1.778 2.226,-0.096 4.548,-0.015 7.255,-0.717 0.048,-0.012 0.086,0.015 0.101,0.05 0.014,0.036 0.007,0.081 -0.035,0.106 -0.664,0.376 -1.337,0.735 -2.022,1.074 -0.685,0.338 -1.381,0.657 -2.089,0.956 m -12.902,-5.979 c -1.142,-0.754 -1.529,-2.175 -1.696,-3.671 -0.168,-1.495 -0.117,-3.065 -0.379,-4.118 -0.13,-0.513 -0.386,-0.829 -0.665,-1.216 -0.281,-0.387 -0.584,-0.846 -0.812,-1.649 -0.013,-0.043 -0.046,-0.071 -0.085,-0.08 -0.038,-0.009 -0.082,10e-4 -0.114,0.032 -0.741,0.728 -1.072,1.869 -1.092,3.177 -0.019,1.308 0.275,2.781 0.782,4.17 0.014,0.037 -0.005,0.069 -0.032,0.083 -0.028,0.014 -0.064,0.009 -0.085,-0.026 -0.56,-0.935 -1.041,-2.002 -1.463,-3.19 -0.422,-1.187 -0.785,-2.494 -1.113,-3.908 -0.266,-1.141 -0.707,-1.676 -1.181,-2.225 -0.472,-0.549 -0.978,-1.112 -1.374,-2.306 -0.035,-0.105 -0.125,-0.165 -0.219,-0.175 -0.094,-0.011 -0.193,0.03 -0.246,0.127 -0.633,1.166 -0.825,2.467 -0.695,3.82 0.13,1.354 0.582,2.761 1.236,4.141 0.027,0.055 0.002,0.108 -0.038,0.133 -0.041,0.026 -0.097,0.026 -0.136,-0.022 -1.307,-1.617 -2.586,-3.596 -3.179,-5.727 -0.592,-2.13 -0.496,-4.414 0.948,-6.638 0.528,-0.81 1.2,-1.45 1.938,-1.875 0.736,-0.425 1.539,-0.634 2.327,-0.578 0.569,0.038 1.124,0.201 1.598,0.485 0.475,0.284 0.869,0.689 1.115,1.214 0.243,0.514 0.336,1.056 0.322,1.56 -0.015,0.505 -0.138,0.972 -0.325,1.337 -0.133,0.257 -0.32,0.465 -0.558,0.625 -0.237,0.159 -0.526,0.27 -0.864,0.33 -0.299,0.053 -0.585,0.031 -0.832,-0.056 -0.248,-0.088 -0.456,-0.241 -0.601,-0.451 -0.127,-0.186 -0.187,-0.396 -0.182,-0.615 0.005,-0.218 0.075,-0.446 0.211,-0.668 l 0.119,-0.195 0.119,-0.196 c 0.018,-0.031 0.015,-0.066 -0.002,-0.091 -0.018,-0.025 -0.049,-0.042 -0.085,-0.037 -1.019,0.137 -1.424,0.954 -1.29,1.79 0.134,0.835 0.808,1.688 1.946,1.895 2.126,0.387 3.594,-0.793 4.156,-2.427 0.563,-1.635 0.221,-3.724 -1.269,-5.158 -0.501,-0.481 -1.077,-0.866 -1.727,-1.125 -0.65,-0.259 -1.373,-0.391 -2.167,-0.367 -1.388,0.044 -2.892,0.572 -4.155,1.55 -1.263,0.978 -2.283,2.406 -2.703,4.251 -0.087,0.39 -0.153,0.786 -0.2,1.189 -0.047,0.403 -0.074,0.811 -0.08,1.225 -0.001,0.07 -0.052,0.11 -0.107,0.116 -0.053,0.006 -0.111,-0.023 -0.127,-0.092 -0.101,-0.45 -0.176,-0.903 -0.199,-1.354 -0.023,-0.452 0.003,-0.902 0.105,-1.349 0.53,-2.365 2.01,-4.208 2.361,-6.02 0.35,-1.813 -0.427,-3.595 -4.412,-5.837 -0.069,-0.038 -0.144,-0.024 -0.195,0.017 -0.05,0.043 -0.078,0.114 -0.052,0.188 0.3,0.88 0.472,1.689 0.402,2.499 -0.069,0.81 -0.381,1.618 -1.047,2.496 -1.016,1.387 -1.251,2.935 -1.028,4.511 0.223,1.576 0.901,3.181 1.71,4.684 0.035,0.066 0.007,0.126 -0.041,0.157 -0.047,0.03 -0.114,0.029 -0.158,-0.03 -1.095,-1.48 -2.07,-3.007 -2.869,-4.592 -0.799,-1.585 -1.422,-3.229 -1.815,-4.942 -0.061,-0.262 -0.101,-0.527 -0.119,-0.795 -0.019,-0.267 -0.016,-0.537 0.009,-0.804 0.153,-1.705 0.795,-3.291 1.81,-4.605 1.016,-1.313 2.405,-2.352 4.055,-2.96 0.213,0.399 0.492,0.759 0.824,1.049 0.332,0.29 0.717,0.51 1.14,0.625 1.07,0.296 2.01,0.309 2.817,0.108 0.807,-0.199 1.481,-0.61 2.017,-1.163 l 2.411,0.461 2.412,0.462 0.742,3.361 0.742,3.362 c 0.018,0.078 0.083,0.116 0.147,0.115 0.064,-0.001 0.128,-0.042 0.142,-0.121 l 0.618,-3.395 0.618,-3.394 2.831,-0.503 2.832,-0.503 c -1.327,2.613 -1.823,5.554 -1.7,8.454 0.124,2.9 0.868,5.759 2.021,8.209 0.099,0.212 0.225,0.416 0.369,0.631 0.145,0.214 0.309,0.439 0.481,0.693 0.054,0.08 0.068,0.148 0.052,0.174 -0.017,0.027 -0.063,0.015 -0.128,-0.063 -0.865,-1.037 -1.626,-2.141 -2.24,-3.277 -0.613,-1.135 -1.08,-2.304 -1.355,-3.472 -0.18,-0.766 -0.393,-1.987 -0.606,-3.277 -0.213,-1.289 -0.425,-2.646 -0.605,-3.685 -0.092,-0.525 -0.373,-0.599 -0.679,-0.357 -0.304,0.242 -0.632,0.802 -0.814,1.545 -0.845,3.487 -0.121,6.941 1.583,10.005 1.703,3.064 4.386,5.735 7.459,7.657 0.044,0.028 0.052,0.076 0.037,0.114 -0.016,0.038 -0.055,0.066 -0.106,0.053 -0.963,-0.235 -1.915,-0.655 -2.866,-1.213 -0.951,-0.557 -1.902,-1.253 -2.866,-2.042 -1.099,-0.743 -1.536,-0.453 -1.417,0.29 0.119,0.745 0.797,1.942 1.931,3.014 1.977,1.878 4.058,2.926 6.239,3.559 2.181,0.632 4.461,0.849 6.84,1.067 0.056,0.005 0.083,0.024 0.079,0.042 -0.004,0.019 -0.037,0.037 -0.099,0.045 -1.41,0.182 -3.298,-0.016 -5.148,-0.337 -1.852,-0.322 -3.666,-0.768 -4.93,-1.089 -2.393,-0.605 -2.416,-0.188 -1.588,0.46 0.827,0.649 2.506,1.529 3.519,1.849 2.201,0.701 4.311,1.032 6.168,1.154 1.856,0.123 3.458,0.038 4.642,-0.091 0.036,-0.004 0.058,0.021 0.062,0.047 0.004,0.028 -0.01,0.058 -0.045,0.066 -1.287,0.275 -2.598,0.444 -3.919,0.491 -1.321,0.047 -2.653,-0.028 -3.982,-0.241 -0.828,-0.13 -1.599,-0.294 -2.37,-0.49 -0.769,-0.194 -1.539,-0.42 -2.36,-0.671 l -1.313,-0.406 -1.314,-0.406 c -0.545,-0.165 -1.333,-0.368 -1.81,-0.297 -0.478,0.072 -0.646,0.419 0.051,1.353 0.897,1.207 2.949,2.396 5.517,3.196 2.568,0.801 5.653,1.212 8.615,0.864 2.625,-0.305 4.769,-0.956 6.751,-1.932 1.984,-0.977 3.806,-2.281 5.788,-3.895 0.069,-0.056 0.149,-0.037 0.196,0.012 0.048,0.049 0.065,0.128 0.007,0.194 -4.296,4.99 -9.644,6.942 -14.629,7.458 -4.985,0.515 -9.608,-0.406 -12.454,-1.162 -0.09,-0.024 -0.293,-0.121 -0.473,-0.212 -0.181,-0.092 -0.34,-0.177 -0.34,-0.177 m 21.846,-12.611 c -0.672,-0.691 -1.088,-1.199 -1.579,-1.635 -0.49,-0.434 -1.053,-0.797 -2.022,-1.194 -2.22,-0.914 -2.899,0.553 -2.099,2.325 0.802,1.773 3.084,3.849 6.789,4.153 0.113,0.009 0.143,0.054 0.107,0.105 -0.035,0.051 -0.137,0.107 -0.289,0.141 -1.604,0.353 -2.798,0.419 -3.978,0.258 -1.178,-0.161 -2.341,-0.549 -3.882,-1.104 -2.632,-0.947 -4.405,-2.491 -5.465,-4.28 -1.061,-1.791 -1.41,-3.825 -1.194,-5.752 0.205,-1.793 0.886,-3.332 1.91,-4.471 1.025,-1.139 2.394,-1.877 3.975,-2.07 0.833,-0.1 1.718,0.02 2.522,0.312 0.805,0.292 1.53,0.756 2.041,1.345 0.752,0.856 0.958,2.135 0.695,3.21 -0.265,1.074 -0.999,1.944 -2.127,1.983 -0.396,0.014 -0.792,-0.092 -1.114,-0.271 -0.323,-0.179 -0.571,-0.434 -0.667,-0.718 -0.075,-0.221 -0.101,-0.433 -0.079,-0.629 0.022,-0.197 0.092,-0.379 0.211,-0.542 0.207,-0.375 0.493,-0.589 0.829,-0.688 0.334,-0.098 0.718,-0.082 1.123,0.005 0.063,0.014 0.117,-0.019 0.144,-0.067 0.026,-0.047 0.025,-0.109 -0.02,-0.155 -0.345,-0.342 -0.845,-0.533 -1.373,-0.549 -0.528,-0.016 -1.083,0.141 -1.538,0.492 -0.326,0.254 -0.572,0.627 -0.715,1.057 -0.145,0.429 -0.186,0.916 -0.103,1.396 0.097,0.556 0.337,1.046 0.698,1.445 0.361,0.399 0.842,0.708 1.42,0.898 0.542,0.177 1.112,0.222 1.671,0.142 0.56,-0.08 1.109,-0.286 1.61,-0.612 1.026,-0.666 1.7,-1.758 1.981,-2.95 0.28,-1.192 0.168,-2.485 -0.376,-3.553 -0.009,-0.015 -0.006,-0.032 0.003,-0.045 0.009,-0.011 0.024,-0.019 0.042,-0.015 l 7.226,1.386 2.27,10.284 c 0.004,0.019 0.002,0.039 -0.005,0.056 -0.007,0.018 -0.019,0.034 -0.036,0.045 -1.373,0.909 -2.948,1.573 -4.468,1.708 -1.519,0.137 -2.984,-0.253 -4.138,-1.446 m 14.458,-8.497 c -0.451,1.224 -0.745,2 -1.133,2.76 -0.388,0.758 -0.872,1.502 -1.704,2.66 -0.297,0.409 -0.65,0.82 -1.048,1.218 -0.399,0.397 -0.841,0.781 -1.317,1.138 -0.023,0.017 -0.05,0.016 -0.072,0.002 -0.02,-0.012 -0.034,-0.037 -0.029,-0.065 l 0.906,-4.987 0.906,-4.986 4.182,-0.746 c -0.097,0.506 -0.181,1.017 -0.285,1.522 -0.105,0.504 -0.23,1.003 -0.406,1.484 M -83.539,17.335 c -0.235,0.941 -0.397,1.714 -0.524,2.493 -0.126,0.779 -0.22,1.567 -0.323,2.538 -0.001,0.009 0.002,0.018 0.009,0.024 0.006,0.006 0.015,0.008 0.023,0.007 1.805,-0.34 3.91,-0.77 6.202,-0.639 2.291,0.13 4.768,0.821 7.318,2.723 0.29,0.218 0.577,0.48 0.858,0.781 0.281,0.301 0.557,0.638 0.826,1.007 0.069,0.094 0.156,0.21 0.248,0.332 0.09,0.121 0.185,0.249 0.269,0.368 0.026,0.036 0.07,0.044 0.105,0.031 0.035,-0.012 0.062,-0.043 0.053,-0.085 -0.094,-0.437 -0.174,-0.851 -0.255,-1.269 -0.082,-0.418 -0.165,-0.841 -0.266,-1.299 -0.328,-1.478 -0.852,-3.629 -1.969,-5.647 -1.117,-2.017 -2.827,-3.901 -5.527,-4.843 -0.737,-0.257 -1.511,-0.245 -2.224,-0.049 -0.713,0.194 -1.366,0.571 -1.863,1.044 -0.352,0.332 -0.604,0.709 -0.75,1.112 -0.147,0.403 -0.188,0.833 -0.119,1.268 0.078,0.473 0.263,0.925 0.523,1.307 0.261,0.382 0.597,0.693 0.976,0.887 0.291,0.146 0.595,0.219 0.904,0.215 0.309,-0.003 0.622,-0.082 0.933,-0.237 0.306,-0.152 0.482,-0.36 0.58,-0.567 0.098,-0.206 0.119,-0.411 0.116,-0.555 -0.003,-0.251 -0.071,-0.495 -0.188,-0.699 -0.116,-0.204 -0.279,-0.367 -0.47,-0.455 -0.061,-0.027 -0.107,-0.074 -0.133,-0.131 -0.027,-0.056 -0.035,-0.12 -0.022,-0.185 0.017,-0.063 0.053,-0.118 0.101,-0.157 0.049,-0.038 0.109,-0.06 0.176,-0.057 0.329,0.007 0.626,0.063 0.884,0.163 0.257,0.099 0.476,0.243 0.648,0.427 0.393,0.423 0.516,1.076 0.441,1.701 -0.074,0.626 -0.344,1.225 -0.74,1.543 -1.574,1.267 -3.222,1.156 -4.484,0.325 -1.262,-0.832 -2.137,-2.384 -2.163,-4 -0.001,-0.023 -0.009,-0.025 -0.016,-0.021 -0.008,0.004 -0.014,0.013 -0.014,0.013 l -0.072,0.293 z m 0.815,-2.835 c 0.401,-0.81 0.939,-1.441 1.646,-1.907 0.706,-0.466 1.583,-0.766 2.661,-0.912 0.987,-0.133 1.994,-0.03 2.973,0.295 0.979,0.323 1.93,0.868 2.807,1.616 0.677,0.579 1.305,1.28 1.881,2.054 0.575,0.775 1.099,1.622 1.566,2.493 0.029,0.054 0.086,0.064 0.129,0.046 0.045,-0.019 0.078,-0.066 0.06,-0.125 -0.841,-2.862 -2.058,-4.521 -3.163,-5.577 -1.106,-1.055 -2.101,-1.508 -2.497,-1.957 -0.999,-1.119 -1.235,-2.203 -1.548,-3.187 -0.313,-0.985 -0.706,-1.868 -2.02,-2.586 -0.016,-0.01 -0.036,-0.012 -0.053,-0.007 -0.018,0.004 -0.034,0.016 -0.044,0.031 -0.631,1.008 -1.219,2.046 -1.762,3.112 -0.544,1.065 -1.044,2.159 -1.498,3.278 -0.22,0.547 -0.429,1.098 -0.626,1.652 -0.197,0.554 -0.384,1.111 -0.558,1.67 -0.011,0.039 -0.001,0.042 0.014,0.034 0.015,-0.006 0.032,-0.023 0.032,-0.023 m 78.161,17.915 -4.696,-0.978 -1.177,-5.435 -1.176,-5.435 c -0.03,-0.135 -0.142,-0.201 -0.253,-0.199 -0.111,0.002 -0.221,0.072 -0.244,0.21 l -0.967,5.509 -0.967,5.51 -7.48,1.82 c -0.018,0.004 -0.035,0.003 -0.05,-0.004 -0.015,-0.006 -0.028,-0.017 -0.036,-0.033 -0.092,-0.16 -0.236,-0.361 -0.396,-0.555 -0.16,-0.193 -0.336,-0.38 -0.492,-0.51 -0.006,-0.005 -0.011,-0.012 -0.013,-0.019 -0.003,-0.007 -0.004,-0.016 -0.002,-0.024 l 0.424,-2.309 0.423,-2.311 2.246,-0.4 2.247,-0.401 c 0.089,-0.016 0.134,-0.087 0.136,-0.16 0.001,-0.072 -0.043,-0.144 -0.131,-0.163 l -2.279,-0.479 -2.28,-0.48 -0.84,-6.148 c 0.109,-0.472 -1.021,-0.251 -2.275,0.132 -1.254,0.383 -2.631,0.928 -3.016,1.105 -0.015,0.007 -0.03,0.004 -0.04,-0.005 -0.011,-0.008 -0.018,-0.022 -0.015,-0.039 l 0.438,-2.417 0.439,-2.417 3.53,-0.632 3.529,-0.63 c 0.094,-0.017 0.142,-0.092 0.144,-0.168 0.001,-0.077 -0.045,-0.154 -0.139,-0.173 l -3.576,-0.745 -3.577,-0.745 -1.344,-6.2 c 0.435,-1.287 0.561,-2.68 0.355,-4.027 -0.206,-1.347 -0.744,-2.647 -1.638,-3.746 -0.536,-0.66 -1.172,-1.196 -1.881,-1.624 -0.708,-0.427 -1.488,-0.745 -2.312,-0.967 -0.108,-0.029 -0.111,-0.043 -0.077,-0.048 0.033,-0.006 0.103,-0.001 0.144,0.006 0.356,0.066 0.716,0.147 1.08,0.244 0.365,0.097 0.734,0.209 1.105,0.339 2.596,0.917 4.663,2.5 6.333,4.335 1.67,1.835 2.945,3.922 3.96,5.848 l -1.172,0.285 -1.173,0.286 c -0.15,0.036 -0.222,0.162 -0.219,0.286 0.003,0.124 0.081,0.246 0.234,0.275 l 2.926,0.561 2.927,0.561 0.801,3.628 0.802,3.629 c 0.027,0.125 0.13,0.186 0.232,0.184 0.103,-0.002 0.203,-0.066 0.226,-0.191 l 0.668,-3.664 0.667,-3.664 2.868,-0.512 2.867,-0.513 c 0.014,-0.002 0.026,0 0.038,0.006 0.012,0.005 0.021,0.015 0.027,0.026 0.259,0.511 0.507,1.028 0.744,1.55 0.237,0.524 0.463,1.053 0.679,1.587 1.012,2.5 1.776,5.075 2.285,7.707 0.511,2.632 0.768,5.32 0.768,8.044 0,0.925 -0.03,1.847 -0.09,2.763 -0.06,0.916 -0.15,1.828 -0.269,2.734"
         style="fill:none;stroke:#ff0000;stroke-width:0.38px"
         id="path136" />
    </g>
  </g>
</svg>
