<?xml version="1.0" encoding="UTF-8" standalone="no"?>
<!DOCTYPE svg PUBLIC "-//W3C//DTD SVG 1.1//EN" "http://www.w3.org/Graphics/SVG/1.1/DTD/svg11.dtd">
<svg width="100%" height="100%" viewBox="0 0 1123 794" version="1.1" xmlns="http://www.w3.org/2000/svg" xmlns:xlink="http://www.w3.org/1999/xlink" xml:space="preserve" xmlns:serif="http://www.serif.com/" style="fill-rule:evenodd;clip-rule:evenodd;stroke-linejoin:round;stroke-miterlimit:2;">
    <g id="path136" transform="matrix(0.940742,0,0,0.940742,237.914,108.517)">
        <path d="M0,89.646C0.218,87.437 0.388,85.218 0.502,82.996C0.615,80.773 0.672,78.542 0.672,76.303C0.672,67.765 -0.136,59.349 -1.732,51.103C-3.334,42.86 -5.726,34.784 -8.892,26.94C-12.081,19.063 -15.985,11.594 -20.571,4.581C-25.157,-2.426 -30.424,-8.977 -36.343,-15.015C-39.226,-17.972 -42.228,-20.769 -45.346,-23.403C-48.461,-26.039 -51.69,-28.511 -55.029,-30.813C-55.123,-30.881 -55.151,-30.986 -55.128,-31.076C-55.103,-31.167 -55.029,-31.243 -54.916,-31.258C-51.265,-31.68 -47.594,-33.049 -44.453,-35.24C-41.309,-37.431 -38.693,-40.445 -37.157,-44.144C-35.997,-46.925 -36.564,-49.524 -38.177,-53.345C-39.787,-57.169 -42.443,-62.215 -45.451,-69.888C-46.743,-73.176 -46.372,-77.287 -45.369,-81.499C-44.365,-85.714 -42.729,-90.037 -41.502,-93.756C-36.74,-108.207 -49.107,-115.191 -64.735,-114.335C-80.362,-113.479 -99.247,-104.786 -107.521,-87.877C-107.734,-87.446 -108.119,-87.16 -108.544,-87.06C-108.967,-86.964 -109.434,-87.046 -109.811,-87.35C-111.81,-88.963 -114.046,-90.207 -116.433,-91.049C-118.823,-91.891 -121.36,-92.33 -123.965,-92.33C-126.692,-92.33 -129.348,-91.851 -131.831,-90.93C-134.314,-90.009 -136.627,-88.648 -138.674,-86.885C-138.858,-86.726 -139.093,-86.683 -139.309,-86.737C-139.524,-86.788 -139.714,-86.936 -139.813,-87.16C-147.645,-104.683 -166.708,-113.783 -182.608,-114.843C-198.507,-115.903 -211.241,-108.927 -206.416,-94.306C-205.189,-90.584 -203.553,-86.264 -202.547,-82.046C-201.543,-77.834 -201.166,-73.726 -202.45,-70.438C-205.469,-62.765 -208.128,-57.716 -209.741,-53.895C-211.357,-50.071 -211.929,-47.472 -210.776,-44.694C-209.032,-40.507 -206.518,-37.738 -203.465,-36.082C-200.412,-34.43 -196.821,-33.888 -192.926,-34.157C-192.742,-34.172 -192.611,-34.061 -192.569,-33.919C-192.521,-33.78 -192.56,-33.613 -192.713,-33.517C-196.829,-30.903 -200.786,-28.052 -204.585,-24.973C-208.38,-21.889 -212.014,-18.573 -215.481,-15.032C-221.397,-8.986 -226.667,-2.429 -231.25,4.581C-235.837,11.594 -239.74,19.063 -242.932,26.94C-246.107,34.784 -248.496,42.86 -250.095,51.103C-251.691,59.349 -252.496,67.765 -252.496,76.303C-252.496,84.83 -251.691,93.249 -250.095,101.494C-248.496,109.74 -246.107,117.816 -242.932,125.663C-239.74,133.54 -235.837,141.007 -231.25,148.017C-226.667,155.021 -221.397,161.575 -215.481,167.618C-209.563,173.682 -203.145,179.076 -196.279,183.773C-189.414,188.47 -182.1,192.47 -174.39,195.746C-166.691,198.995 -158.766,201.444 -150.667,203.085C-142.574,204.724 -134.308,205.549 -125.926,205.549C-117.539,205.549 -109.27,204.724 -101.169,203.083C-93.07,201.441 -85.141,198.986 -77.434,195.729C-69.721,192.464 -62.408,188.467 -55.542,183.77C-48.677,179.076 -42.262,173.682 -36.343,167.618C-30.424,161.575 -25.157,155.021 -20.571,148.017C-15.985,141.007 -12.081,133.54 -8.892,125.663C-6.985,120.951 -5.369,116.158 -4.034,111.297C-2.699,106.432 -1.647,101.5 -0.882,96.506C-0.706,95.363 -0.544,94.221 -0.4,93.081C-0.252,91.939 -0.119,90.794 0,89.646M-58.371,-98.359C-56.344,-94.382 -57.379,-89.206 -63.062,-85.19C-68.749,-81.173 -79.078,-78.313 -95.652,-78.962C-95.783,-78.968 -95.89,-79.044 -95.953,-79.146C-96.009,-79.248 -96.024,-79.376 -95.964,-79.495C-88.537,-94.28 -80.24,-101.146 -73.247,-103.241C-66.254,-105.333 -60.568,-102.66 -58.371,-98.359M-103.708,-58.479C-102.702,-57.572 -101.594,-56.293 -100.352,-54.842C-99.111,-53.385 -97.736,-51.752 -96.199,-50.125C-96.063,-49.98 -96.063,-49.791 -96.143,-49.654C-96.222,-49.516 -96.389,-49.425 -96.579,-49.467C-97.968,-49.802 -99.354,-50.111 -100.749,-50.397C-102.144,-50.683 -103.541,-50.947 -104.947,-51.188C-105.114,-51.214 -105.256,-51.301 -105.355,-51.423C-105.454,-51.542 -105.514,-51.695 -105.508,-51.863C-105.466,-53.209 -105.508,-54.238 -105.415,-55.219C-105.324,-56.203 -105.1,-57.141 -104.53,-58.306C-104.479,-58.405 -104.321,-58.487 -104.145,-58.524C-103.975,-58.561 -103.793,-58.555 -103.708,-58.479M-123.965,-78.423C-121.569,-78.423 -119.404,-77.477 -117.839,-75.926C-116.277,-74.375 -115.313,-72.224 -115.313,-69.812C-115.313,-68.669 -115.537,-67.555 -115.965,-66.523C-116.396,-65.492 -117.028,-64.542 -117.853,-63.72C-118.658,-62.904 -119.608,-62.274 -120.645,-61.846C-121.683,-61.421 -122.805,-61.197 -123.965,-61.197C-125.13,-61.197 -126.247,-61.421 -127.281,-61.849C-128.316,-62.28 -129.26,-62.912 -130.068,-63.734C-130.881,-64.548 -131.516,-65.494 -131.947,-66.526C-132.378,-67.555 -132.605,-68.669 -132.605,-69.812C-132.605,-72.193 -131.635,-74.347 -130.073,-75.9C-128.509,-77.46 -126.349,-78.423 -123.965,-78.423M-143.583,-58.64C-142.926,-57.342 -142.682,-56.548 -142.611,-55.692C-142.534,-54.842 -142.631,-53.921 -142.651,-52.37C-142.654,-52.214 -142.713,-52.072 -142.809,-51.965C-142.903,-51.857 -143.036,-51.78 -143.189,-51.761C-145.596,-51.426 -147.991,-51.018 -150.372,-50.542C-152.753,-50.066 -155.123,-49.521 -157.476,-48.903C-157.598,-48.872 -157.697,-48.937 -157.737,-49.028C-157.776,-49.119 -157.759,-49.235 -157.654,-49.309C-154.984,-51.069 -152.512,-52.807 -150.33,-54.4C-148.147,-55.996 -146.251,-57.453 -144.734,-58.643C-144.592,-58.759 -144.332,-58.805 -144.091,-58.802C-143.853,-58.796 -143.637,-58.742 -143.583,-58.64M-189.564,-98.892C-187.373,-103.17 -181.74,-105.843 -174.81,-103.825C-167.879,-101.803 -159.642,-95.091 -152.243,-80.6C-152.116,-80.348 -152.141,-80.07 -152.269,-79.855C-152.399,-79.639 -152.629,-79.483 -152.909,-79.472C-169.211,-78.925 -179.382,-81.805 -184.975,-85.81C-190.568,-89.819 -191.577,-94.946 -189.564,-98.892" style="fill:none;stroke:rgb(255,0,0);stroke-width:1.08px;"/>
    </g>
    <g id="path34" transform="matrix(0.855406,0,0,0.855406,-1077.96,-20.8286)">
        <path d="M1400.02,202.352C1390.25,243.432 1379.75,284.589 1372.51,321.678C1371.48,326.965 1368.78,328.222 1363.92,320.775C1337.2,279.772 1330.33,236.401 1326.41,192.859C1316.28,219.131 1294.16,283.259 1313.3,318.966C1315.82,323.661 1318.77,328.109 1317.44,328.504C1315.94,328.946 1307.34,321.695 1306.52,320.775C1281.01,292.203 1258.96,224.362 1290.93,178.169C1295.76,171.189 1301.07,168.426 1293.41,180.656C1275.98,208.505 1273,266.911 1302.23,303.824C1292.59,247.173 1308.74,209.638 1327.76,175.684C1332.57,167.106 1336.3,165.279 1336.35,175.684C1336.63,234.789 1345.17,256.816 1364.38,299.531C1372.63,259.967 1380.11,219.254 1390.59,179.751C1392.07,174.19 1394.84,165.288 1400.02,165.288M1400.02,202.352C1409.79,243.432 1420.29,284.589 1427.52,321.678C1428.55,326.965 1431.26,328.222 1436.11,320.775C1462.84,279.772 1469.71,236.401 1473.63,192.859C1483.75,219.131 1505.87,283.259 1486.73,318.966C1484.22,323.661 1481.26,328.109 1482.6,328.504C1484.09,328.946 1492.69,321.695 1493.51,320.775C1519.02,292.203 1541.08,224.362 1509.11,178.169C1504.28,171.189 1498.97,168.426 1506.62,180.656C1524.05,208.505 1527.04,266.911 1497.81,303.824C1507.45,247.173 1491.29,209.638 1472.27,175.684C1467.46,167.106 1463.73,165.279 1463.68,175.684C1463.41,234.789 1454.87,256.816 1435.66,299.531C1427.4,259.967 1419.93,219.254 1409.44,179.751C1407.97,174.19 1405.19,165.288 1400.02,165.288M1306.01,171.058C1309.68,171.218 1313.4,170.929 1317.08,170.606C1320.71,170.286 1321.66,170.63 1318.21,176.03C1302.16,201.157 1293.8,219.647 1290.41,238.405C1283.5,214.299 1303.85,170.964 1306.01,171.058ZM1494.03,171.058C1490.36,171.218 1486.63,170.929 1482.95,170.606C1479.32,170.286 1478.37,170.63 1481.82,176.03C1497.88,201.157 1506.23,219.647 1509.62,238.405C1516.54,214.299 1496.18,170.964 1494.03,171.058ZM1358.89,237.899C1352.71,217.334 1350.1,196.075 1349.85,174.846C1349.75,166.207 1351.79,170.281 1366.98,170.47C1381,170.644 1385.24,167.491 1380.81,177.558C1371.61,198.462 1363.94,217.56 1358.89,237.899ZM1441.15,237.899C1447.32,217.334 1449.94,196.075 1450.19,174.846C1450.29,166.207 1448.24,170.281 1433.05,170.47C1419.04,170.644 1414.79,167.491 1419.22,177.558C1428.42,198.462 1436.1,217.56 1441.15,237.899ZM1373.85,145.902C1376.46,148.69 1376.28,153.739 1373.45,157.18C1370.62,160.621 1366.21,161.149 1363.6,158.361C1361,155.572 1361.18,150.523 1364.01,147.083C1366.84,143.643 1371.25,143.114 1373.85,145.902ZM1426.18,145.902C1423.58,148.69 1423.76,153.739 1426.59,157.18C1429.42,160.621 1433.83,161.149 1436.43,158.361C1439.04,155.572 1438.86,150.523 1436.03,147.083C1433.2,143.643 1428.79,143.114 1426.18,145.902ZM1400.02,281.802C1404.46,281.802 1408.06,286.582 1408.06,292.48C1408.06,298.377 1404.46,303.157 1400.02,303.157C1395.57,303.157 1391.97,298.377 1391.97,292.48C1391.97,286.582 1395.57,281.802 1400.02,281.802ZM1321.73,285.729C1326.29,283.402 1332.36,286.157 1335.28,291.882C1338.2,297.606 1336.88,304.135 1332.32,306.461C1327.76,308.788 1321.7,306.033 1318.77,300.309C1315.85,294.584 1317.17,288.056 1321.73,285.729ZM1478.3,285.729C1473.74,283.402 1467.68,286.157 1464.76,291.882C1461.83,297.606 1463.16,304.135 1467.72,306.461C1472.28,308.788 1478.34,306.033 1481.26,300.309C1484.18,294.584 1482.86,288.056 1478.3,285.729ZM1367.67,336.78C1370.13,334.203 1375.27,335.114 1379.15,338.814C1383.04,342.515 1384.2,347.603 1381.75,350.179C1379.3,352.756 1374.16,351.845 1370.27,348.144C1366.39,344.444 1365.22,339.356 1367.67,336.78ZM1432.36,336.78C1429.91,334.203 1424.77,335.114 1420.88,338.814C1417,342.515 1415.83,347.603 1418.28,350.179C1420.74,352.756 1425.88,351.845 1429.76,348.144C1433.65,344.444 1434.81,339.356 1432.36,336.78ZM1335.13,146.567C1336.76,148.62 1334.55,153.083 1330.2,156.536C1325.85,159.989 1321,161.123 1319.37,159.07C1317.75,157.018 1319.95,152.554 1324.3,149.101C1328.65,145.648 1333.5,144.514 1335.13,146.567ZM1464.9,146.567C1463.28,148.62 1465.48,153.083 1469.83,156.536C1474.18,159.989 1479.03,161.123 1480.66,159.07C1482.29,157.018 1480.08,152.554 1475.73,149.101C1471.38,145.648 1466.53,144.514 1464.9,146.567ZM1324.18,337.297C1325.32,335.807 1330.55,337.876 1335.86,341.918C1341.18,345.959 1344.57,350.444 1343.43,351.934C1342.3,353.425 1337.07,351.356 1331.76,347.314C1326.44,343.272 1323.05,338.788 1324.18,337.297ZM1475.85,337.297C1474.72,335.807 1469.49,337.876 1464.17,341.918C1458.86,345.959 1455.47,350.444 1456.6,351.934C1457.73,353.425 1462.96,351.356 1468.28,347.314C1473.59,343.272 1476.98,338.788 1475.85,337.297Z" style="fill:none;fill-rule:nonzero;stroke:rgb(255,0,0);stroke-width:0.57px;stroke-linejoin:miter;stroke-miterlimit:4;"/>
    </g>
    <g id="path341" serif:id="path34" transform="matrix(0.726447,0,0,-0.726447,-897.416,336.562)">
        <path d="M1367.67,336.78C1370.13,334.203 1375.27,335.114 1379.15,338.814C1383.04,342.515 1384.2,347.603 1381.75,350.179C1379.3,352.756 1374.16,351.845 1370.27,348.144C1366.39,344.444 1365.22,339.356 1367.67,336.78ZM1432.36,336.78C1429.91,334.203 1424.77,335.114 1420.88,338.814C1417,342.515 1415.83,347.603 1418.28,350.179C1420.74,352.756 1425.88,351.845 1429.76,348.144C1433.65,344.444 1434.81,339.356 1432.36,336.78ZM1324.18,337.297C1325.32,335.807 1330.55,337.876 1335.86,341.918C1341.18,345.959 1344.57,350.444 1343.43,351.934C1342.3,353.425 1337.07,351.356 1331.76,347.314C1326.44,343.272 1323.05,338.788 1324.18,337.297ZM1475.85,337.297C1474.72,335.807 1469.49,337.876 1464.17,341.918C1458.86,345.959 1455.47,350.444 1456.6,351.934C1457.73,353.425 1462.96,351.356 1468.28,347.314C1473.59,343.272 1476.98,338.788 1475.85,337.297Z" style="fill:none;fill-rule:nonzero;stroke:rgb(255,0,0);stroke-width:0.57px;stroke-linejoin:miter;stroke-miterlimit:4;"/>
    </g>
</svg>
