<?xml version="1.0" encoding="UTF-8" standalone="no"?>
<!DOCTYPE svg PUBLIC "-//W3C//DTD SVG 1.1//EN" "http://www.w3.org/Graphics/SVG/1.1/DTD/svg11.dtd">
<svg width="100%" height="100%" viewBox="0 0 1123 794" version="1.1" xmlns="http://www.w3.org/2000/svg" xmlns:xlink="http://www.w3.org/1999/xlink" xml:space="preserve" xmlns:serif="http://www.serif.com/" style="fill-rule:evenodd;clip-rule:evenodd;stroke-linejoin:round;stroke-miterlimit:2;">
    <g id="path136" transform="matrix(0.940742,0,0,0.940742,237.914,108.517)">
        <path d="M0,89.646C0.218,87.437 0.388,85.218 0.502,82.996C0.615,80.773 0.672,78.542 0.672,76.303C0.672,67.765 -0.136,59.349 -1.732,51.103C-3.334,42.86 -5.726,34.784 -8.892,26.94C-12.081,19.063 -15.985,11.594 -20.571,4.581C-25.157,-2.426 -30.424,-8.977 -36.343,-15.015C-39.226,-17.972 -42.228,-20.769 -45.346,-23.403C-48.461,-26.039 -51.69,-28.511 -55.029,-30.813C-55.123,-30.881 -55.151,-30.986 -55.128,-31.076C-55.103,-31.167 -55.029,-31.243 -54.916,-31.258C-51.265,-31.68 -47.594,-33.049 -44.453,-35.24C-41.309,-37.431 -38.693,-40.445 -37.157,-44.144C-35.997,-46.925 -36.564,-49.524 -38.177,-53.345C-39.787,-57.169 -42.443,-62.215 -45.451,-69.888C-46.743,-73.176 -46.372,-77.287 -45.369,-81.499C-44.365,-85.714 -42.729,-90.037 -41.502,-93.756C-36.74,-108.207 -49.107,-115.191 -64.735,-114.335C-80.362,-113.479 -99.247,-104.786 -107.521,-87.877C-107.734,-87.446 -108.119,-87.16 -108.544,-87.06C-108.967,-86.964 -109.434,-87.046 -109.811,-87.35C-111.81,-88.963 -114.046,-90.207 -116.433,-91.049C-118.823,-91.891 -121.36,-92.33 -123.965,-92.33C-126.692,-92.33 -129.348,-91.851 -131.831,-90.93C-134.314,-90.009 -136.627,-88.648 -138.674,-86.885C-138.858,-86.726 -139.093,-86.683 -139.309,-86.737C-139.524,-86.788 -139.714,-86.936 -139.813,-87.16C-147.645,-104.683 -166.708,-113.783 -182.608,-114.843C-198.507,-115.903 -211.241,-108.927 -206.416,-94.306C-205.189,-90.584 -203.553,-86.264 -202.547,-82.046C-201.543,-77.834 -201.166,-73.726 -202.45,-70.438C-205.469,-62.765 -208.128,-57.716 -209.741,-53.895C-211.357,-50.071 -211.929,-47.472 -210.776,-44.694C-209.032,-40.507 -206.518,-37.738 -203.465,-36.082C-200.412,-34.43 -196.821,-33.888 -192.926,-34.157C-192.742,-34.172 -192.611,-34.061 -192.569,-33.919C-192.521,-33.78 -192.56,-33.613 -192.713,-33.517C-196.829,-30.903 -200.786,-28.052 -204.585,-24.973C-208.38,-21.889 -212.014,-18.573 -215.481,-15.032C-221.397,-8.986 -226.667,-2.429 -231.25,4.581C-235.837,11.594 -239.74,19.063 -242.932,26.94C-246.107,34.784 -248.496,42.86 -250.095,51.103C-251.691,59.349 -252.496,67.765 -252.496,76.303C-252.496,84.83 -251.691,93.249 -250.095,101.494C-248.496,109.74 -246.107,117.816 -242.932,125.663C-239.74,133.54 -235.837,141.007 -231.25,148.017C-226.667,155.021 -221.397,161.575 -215.481,167.618C-209.563,173.682 -203.145,179.076 -196.279,183.773C-189.414,188.47 -182.1,192.47 -174.39,195.746C-166.691,198.995 -158.766,201.444 -150.667,203.085C-142.574,204.724 -134.308,205.549 -125.926,205.549C-117.539,205.549 -109.27,204.724 -101.169,203.083C-93.07,201.441 -85.141,198.986 -77.434,195.729C-69.721,192.464 -62.408,188.467 -55.542,183.77C-48.677,179.076 -42.262,173.682 -36.343,167.618C-30.424,161.575 -25.157,155.021 -20.571,148.017C-15.985,141.007 -12.081,133.54 -8.892,125.663C-6.985,120.951 -5.369,116.158 -4.034,111.297C-2.699,106.432 -1.647,101.5 -0.882,96.506C-0.706,95.363 -0.544,94.221 -0.4,93.081C-0.252,91.939 -0.119,90.794 0,89.646M-58.371,-98.359C-56.344,-94.382 -57.379,-89.206 -63.062,-85.19C-68.749,-81.173 -79.078,-78.313 -95.652,-78.962C-95.783,-78.968 -95.89,-79.044 -95.953,-79.146C-96.009,-79.248 -96.024,-79.376 -95.964,-79.495C-88.537,-94.28 -80.24,-101.146 -73.247,-103.241C-66.254,-105.333 -60.568,-102.66 -58.371,-98.359M-103.708,-58.479C-102.702,-57.572 -101.594,-56.293 -100.352,-54.842C-99.111,-53.385 -97.736,-51.752 -96.199,-50.125C-96.063,-49.98 -96.063,-49.791 -96.143,-49.654C-96.222,-49.516 -96.389,-49.425 -96.579,-49.467C-97.968,-49.802 -99.354,-50.111 -100.749,-50.397C-102.144,-50.683 -103.541,-50.947 -104.947,-51.188C-105.114,-51.214 -105.256,-51.301 -105.355,-51.423C-105.454,-51.542 -105.514,-51.695 -105.508,-51.863C-105.466,-53.209 -105.508,-54.238 -105.415,-55.219C-105.324,-56.203 -105.1,-57.141 -104.53,-58.306C-104.479,-58.405 -104.321,-58.487 -104.145,-58.524C-103.975,-58.561 -103.793,-58.555 -103.708,-58.479M-123.965,-78.423C-121.569,-78.423 -119.404,-77.477 -117.839,-75.926C-116.277,-74.375 -115.313,-72.224 -115.313,-69.812C-115.313,-68.669 -115.537,-67.555 -115.965,-66.523C-116.396,-65.492 -117.028,-64.542 -117.853,-63.72C-118.658,-62.904 -119.608,-62.274 -120.645,-61.846C-121.683,-61.421 -122.805,-61.197 -123.965,-61.197C-125.13,-61.197 -126.247,-61.421 -127.281,-61.849C-128.316,-62.28 -129.26,-62.912 -130.068,-63.734C-130.881,-64.548 -131.516,-65.494 -131.947,-66.526C-132.378,-67.555 -132.605,-68.669 -132.605,-69.812C-132.605,-72.193 -131.635,-74.347 -130.073,-75.9C-128.509,-77.46 -126.349,-78.423 -123.965,-78.423M-143.583,-58.64C-142.926,-57.342 -142.682,-56.548 -142.611,-55.692C-142.534,-54.842 -142.631,-53.921 -142.651,-52.37C-142.654,-52.214 -142.713,-52.072 -142.809,-51.965C-142.903,-51.857 -143.036,-51.78 -143.189,-51.761C-145.596,-51.426 -147.991,-51.018 -150.372,-50.542C-152.753,-50.066 -155.123,-49.521 -157.476,-48.903C-157.598,-48.872 -157.697,-48.937 -157.737,-49.028C-157.776,-49.119 -157.759,-49.235 -157.654,-49.309C-154.984,-51.069 -152.512,-52.807 -150.33,-54.4C-148.147,-55.996 -146.251,-57.453 -144.734,-58.643C-144.592,-58.759 -144.332,-58.805 -144.091,-58.802C-143.853,-58.796 -143.637,-58.742 -143.583,-58.64M-189.564,-98.892C-187.373,-103.17 -181.74,-105.843 -174.81,-103.825C-167.879,-101.803 -159.642,-95.091 -152.243,-80.6C-152.116,-80.348 -152.141,-80.07 -152.269,-79.855C-152.399,-79.639 -152.629,-79.483 -152.909,-79.472C-169.211,-78.925 -179.382,-81.805 -184.975,-85.81C-190.568,-89.819 -191.577,-94.946 -189.564,-98.892" style="fill:none;stroke:rgb(255,0,0);stroke-width:1.08px;"/>
    </g>
    <g id="path38" transform="matrix(0.853612,0,0,0.853612,-4.31356,-339.504)">
        <path d="M145.49,599.758C122.74,599.758 120.016,638.318 97.127,638.63C74.578,638.936 69.14,606.824 57.208,606.824C45.295,606.824 47.735,638.256 37.691,638.178C23.61,638.068 22.323,610.907 21.645,592.3C25.109,604.73 27.665,619.61 33.397,619.646C42.104,619.7 37.561,585.164 58.708,585.294C82.069,585.437 78.969,619.135 96.224,619.646C106.749,619.957 117.09,587.328 145.49,587.328M145.49,599.758C168.241,599.758 170.964,638.318 193.853,638.63C216.403,638.936 221.841,606.824 233.772,606.824C245.685,606.824 243.246,638.256 253.289,638.178C267.371,638.068 268.657,610.907 269.335,592.3C265.871,604.73 263.315,619.61 257.584,619.646C248.877,619.7 253.419,585.164 232.272,585.294C208.911,585.437 212.012,619.135 194.757,619.646C184.232,619.957 173.89,587.328 145.49,587.328M145.49,557.722C122.739,557.722 123.174,533.082 106.167,532.411C88.148,531.699 78.858,556.307 66.926,556.307C55.013,556.307 66.489,532.056 56.449,532.185C48.018,532.293 32.551,547.591 27.521,564.955C33.697,555.463 41.911,544.578 47.635,544.842C51.368,545.013 44.295,569.669 58.708,572.187C74.217,574.896 85.772,542.16 103.027,541.649C113.552,541.338 117.09,572.187 145.49,572.187M145.49,557.722C168.241,557.722 167.806,533.082 184.813,532.411C202.833,531.699 212.123,556.307 224.054,556.307C235.967,556.307 224.491,532.056 234.532,532.185C242.962,532.293 258.429,547.591 263.46,564.955C257.283,555.463 249.069,544.578 243.346,544.842C239.612,545.013 246.685,569.669 232.272,572.187C216.763,574.896 205.208,542.16 187.953,541.649C177.428,541.338 173.89,572.187 145.49,572.187M145.49,681.457C122.739,681.457 121.364,653.427 98.257,652.983C80.228,652.636 85.412,679.138 73.48,679.138C61.567,679.138 56.994,651.271 40.177,650.497C31.756,650.109 36.618,674.039 46.277,686.43C45.608,677.998 41.912,666.508 47.635,666.769C51.366,666.939 67.816,691.836 78.822,692.306C99.745,693.201 81.928,662.43 102.802,662.673C119.654,662.868 122.739,689.821 145.49,689.821M145.49,681.457C168.241,681.457 169.616,653.427 192.724,652.983C210.753,652.636 205.569,679.138 217.5,679.138C229.414,679.138 233.986,651.271 250.803,650.497C259.224,650.109 254.363,674.039 244.703,686.43C245.372,677.998 249.068,666.508 243.346,666.769C239.615,666.939 223.164,691.836 212.158,692.306C191.236,693.201 209.053,662.43 188.179,662.673C171.326,662.868 168.241,689.821 145.49,689.821M145.49,496.967C127.712,496.967 122.859,522.213 109.474,521.421C90.79,520.316 104.396,501.547 96.08,501.547C86.201,501.547 75.101,520.524 67.097,520.397C58.668,520.263 65.773,509.132 79.952,499.905C77.314,504.199 76.347,507.333 78.596,507.588C82.308,508.008 96.128,492.968 110.462,490.038C123.71,487.33 105.203,506.479 116.587,506.713C122.815,506.84 130.65,490.038 145.49,490.038M145.49,496.967C163.269,496.967 168.121,522.213 181.506,521.421C200.19,520.316 186.584,501.547 194.9,501.547C204.779,501.547 215.879,520.524 223.884,520.397C232.312,520.263 225.208,509.132 211.028,499.905C213.666,504.199 214.633,507.333 212.384,507.588C208.672,508.008 194.852,492.968 180.519,490.038C167.271,487.33 185.778,506.479 174.393,506.713C168.166,506.84 160.33,490.038 145.49,490.038M145.49,708.749C135.508,708.749 137.581,728.999 129.136,728.909C121.403,728.826 106.586,713.656 98.27,713.656C88.391,713.656 107.595,728.542 99.64,727.658C95.692,727.219 73.944,720.615 70.008,708.974C78.623,715.294 87.649,717.986 89.896,718.239C93.607,718.658 72.557,701.156 87.183,700.916C100.657,700.696 111.984,719.844 123.367,720.076C129.594,720.202 127.26,701.82 145.49,701.82M145.49,708.749C155.472,708.749 153.399,728.999 161.844,728.909C169.578,728.826 184.394,713.656 192.71,713.656C202.589,713.656 183.385,728.542 191.34,727.658C195.289,727.219 217.036,720.615 220.973,708.974C212.357,715.294 203.332,717.986 201.084,718.239C197.373,718.658 218.423,701.156 203.797,700.916C190.323,700.696 178.996,719.844 167.613,720.076C161.386,720.202 163.721,701.82 145.49,701.82M145.49,624.087C151.856,624.087 157.016,631.068 157.016,639.68C157.016,648.293 151.856,655.274 145.49,655.274C139.124,655.274 133.964,648.293 133.964,639.68C133.964,631.068 139.124,624.087 145.49,624.087ZM60.041,627.371C64.507,625.97 70.217,631.496 72.794,639.714C75.371,647.931 73.84,655.727 69.373,657.128C64.907,658.529 59.198,653.003 56.621,644.786C54.043,636.568 55.574,628.772 60.041,627.371ZM230.939,627.371C226.473,625.97 220.764,631.496 218.187,639.714C215.609,647.931 217.14,655.727 221.607,657.128C226.073,658.529 231.783,653.003 234.36,644.786C236.937,636.568 235.406,628.772 230.939,627.371ZM145.49,513.247C152.229,513.247 157.694,519.116 157.694,526.355C157.694,533.594 152.229,539.463 145.49,539.463C138.751,539.463 133.287,533.594 133.287,526.355C133.287,519.116 138.751,513.247 145.49,513.247ZM100.906,557.961C106.987,558.612 111.172,566.083 110.254,574.646C109.336,583.21 103.663,589.622 97.582,588.97C91.501,588.318 87.316,580.848 88.234,572.285C89.152,563.721 94.825,557.309 100.906,557.961ZM190.074,557.961C183.993,558.612 179.808,566.083 180.726,574.646C181.644,583.21 187.318,589.622 193.398,588.97C199.479,588.318 203.665,580.848 202.746,572.285C201.828,563.721 196.155,557.309 190.074,557.961ZM38.619,566.199C41.534,567.121 42.103,573.548 39.888,580.558C37.673,587.567 33.514,592.501 30.598,591.58C27.683,590.658 27.114,584.23 29.329,577.221C31.544,570.212 35.703,565.277 38.619,566.199ZM252.361,566.199C249.446,567.121 248.877,573.548 251.092,580.558C253.307,587.567 257.466,592.501 260.382,591.58C263.297,590.658 263.866,584.23 261.651,577.221C259.436,570.212 255.278,565.277 252.361,566.199ZM87.573,519.575C89.271,521.191 87.375,525.942 83.336,530.186C79.298,534.431 74.648,536.562 72.949,534.947C71.251,533.33 73.148,528.58 77.186,524.335C81.225,520.091 85.875,517.96 87.573,519.575ZM203.408,519.575C201.71,521.191 203.606,525.942 207.644,530.186C211.683,534.431 216.333,536.562 218.031,534.947C219.729,533.33 217.833,528.58 213.794,524.335C209.756,520.091 205.106,517.96 203.408,519.575ZM105.485,682.121C108.569,680.35 113.639,683.389 116.809,688.91C119.979,694.431 120.047,700.341 116.963,702.112C113.878,703.884 108.808,700.844 105.638,695.323C102.469,689.803 102.4,683.892 105.485,682.121ZM185.496,682.121C182.411,680.35 177.341,683.389 174.171,688.91C171.002,694.431 170.933,700.341 174.018,702.112C177.102,703.884 182.172,700.844 185.342,695.323C188.512,689.803 188.58,683.892 185.496,682.121ZM54.739,684.493C56.082,683.583 59.896,686.865 63.258,691.824C66.619,696.783 68.256,701.541 66.913,702.451C65.57,703.362 61.756,700.079 58.394,695.121C55.033,690.161 53.397,685.403 54.739,684.493ZM236.241,684.493C234.898,683.583 231.084,686.865 227.722,691.824C224.361,696.783 222.724,701.541 224.067,702.451C225.41,703.362 229.224,700.079 232.586,695.121C235.947,690.161 237.584,685.403 236.241,684.493Z" style="fill:none;fill-rule:nonzero;stroke:rgb(255,0,0);stroke-width:0.57px;stroke-linejoin:miter;stroke-miterlimit:4;"/>
    </g>
</svg>
