<?xml version="1.0" encoding="UTF-8" standalone="no"?>
<!-- Created with Inkscape (http://www.inkscape.org/) -->

<svg
   width="67.569023mm"
   height="80.040436mm"
   viewBox="0 0 67.569023 80.040436"
   version="1.1"
   id="svg291"
   xmlns="http://www.w3.org/2000/svg"
   xmlns:svg="http://www.w3.org/2000/svg">
  <defs
     id="defs288" />
  <g
     id="layer1"
     transform="translate(-177.69004,-108.52771)">
    <g
       transform="matrix(0.70555643,0,0,0.70555643,235.2705,165.98823)"
       id="g192"
       style="clip-rule:evenodd;fill-rule:evenodd;stroke-linejoin:round;stroke-miterlimit:2">
      <path
         d="m 0,-49.437 c -3.361,-3.352 -7.134,-6.142 -11.207,-8.323 -4.072,-2.182 -8.444,-3.754 -13.001,-4.669 -0.07,-0.014 -0.13,-0.052 -0.173,-0.104 -0.042,-0.052 -0.068,-0.118 -0.068,-0.19 v -3.86 c 0,-0.417 -0.182,-0.804 -0.493,-1.126 -0.312,-0.323 -0.753,-0.581 -1.27,-0.738 -0.084,-0.026 -0.147,-0.086 -0.178,-0.158 -0.031,-0.073 -0.031,-0.159 0.011,-0.235 0.331,-0.599 0.59,-1.243 0.766,-1.92 0.176,-0.677 0.27,-1.387 0.27,-2.119 0,-1.154 -0.233,-2.255 -0.656,-3.257 -0.422,-1.002 -1.035,-1.905 -1.794,-2.661 -0.763,-0.755 -1.668,-1.369 -2.672,-1.793 -1.004,-0.425 -2.107,-0.66 -3.264,-0.66 -1.158,0 -2.261,0.235 -3.265,0.66 -1.004,0.424 -1.909,1.038 -2.672,1.793 -0.756,0.756 -1.369,1.659 -1.792,2.661 -0.424,1.002 -0.658,2.103 -0.658,3.257 0,0.741 0.096,1.461 0.277,2.146 0.181,0.684 0.448,1.335 0.79,1.939 0.035,0.064 0.038,0.136 0.013,0.197 -0.024,0.061 -0.075,0.112 -0.146,0.132 -0.535,0.153 -0.992,0.411 -1.316,0.736 -0.323,0.327 -0.512,0.721 -0.512,1.146 v 3.873 c 0,0.067 -0.024,0.13 -0.065,0.18 -0.041,0.05 -0.098,0.085 -0.165,0.098 -4.556,0.918 -8.928,2.49 -13.001,4.671 -4.072,2.181 -7.846,4.971 -11.206,8.324 -4.506,4.495 -7.999,9.731 -10.366,15.433 -2.367,5.701 -3.607,11.868 -3.607,18.222 0,6.358 1.24,12.525 3.607,18.225 2.367,5.701 5.86,10.936 10.366,15.431 4.503,4.494 9.748,7.979 15.461,10.34 5.712,2.362 11.892,3.599 18.262,3.599 6.371,0 12.55,-1.237 18.262,-3.599 C -9.751,25.853 -4.505,22.368 0,17.874 4.503,13.379 7.995,8.144 10.361,2.443 c 2.366,-5.7 3.606,-11.867 3.606,-18.225 0,-6.354 -1.24,-12.521 -3.606,-18.222 C 7.995,-39.706 4.503,-44.942 0,-49.437 m -72.391,27.396 -0.922,-1.011 -0.923,-1.011 c -0.02,-0.022 -0.021,-0.052 -0.01,-0.074 0.012,-0.023 0.037,-0.039 0.067,-0.035 l 1.519,0.199 1.519,0.2 c 0.227,0.03 0.447,-0.025 0.626,-0.143 0.18,-0.117 0.318,-0.298 0.379,-0.518 l 0.56,-1.968 0.559,-1.967 c 0.01,-0.032 0.037,-0.047 0.063,-0.047 0.027,0 0.054,0.015 0.063,0.047 l 0.419,1.456 0.419,1.457 c 0.036,0.135 0.104,0.255 0.193,0.356 0.09,0.101 0.202,0.183 0.327,0.238 0.129,0.054 0.265,0.079 0.4,0.073 0.135,-0.004 0.268,-0.04 0.391,-0.104 l 1.702,-0.893 1.702,-0.892 c 0.022,-0.011 0.044,-0.004 0.057,0.011 0.013,0.015 0.017,0.038 0.002,0.058 l -2.624,3.558 c -0.092,0.125 -0.15,0.269 -0.172,0.418 -0.021,0.149 -0.006,0.304 0.049,0.451 0.055,0.146 0.146,0.273 0.26,0.372 0.114,0.099 0.252,0.169 0.402,0.203 l 1.852,0.416 c 0.012,0.002 0.018,0.012 0.019,0.022 0,0.009 -0.005,0.02 -0.017,0.023 l -1.212,0.4 -1.212,0.399 c -0.248,0.083 -0.436,0.262 -0.54,0.482 -0.103,0.219 -0.121,0.479 -0.029,0.724 l 0.346,0.914 c 0.005,0.011 0,0.021 -0.007,0.028 -0.008,0.006 -0.019,0.007 -0.028,0.001 l -1.108,-0.754 c -0.187,-0.128 -0.406,-0.178 -0.617,-0.157 -0.21,0.022 -0.412,0.115 -0.565,0.274 l -1.208,1.248 c -0.012,0.011 -0.027,0.016 -0.041,0.013 -0.015,-0.003 -0.027,-0.012 -0.034,-0.027 l -0.161,-0.381 -0.161,-0.382 c -0.089,-0.214 -0.253,-0.378 -0.451,-0.472 -0.197,-0.094 -0.428,-0.119 -0.652,-0.054 l -1.307,0.371 -1.308,0.373 c -0.036,0.01 -0.069,-0.005 -0.089,-0.03 -0.019,-0.025 -0.024,-0.061 -0.004,-0.094 l 1.618,-2.676 c 0.104,-0.175 0.145,-0.373 0.126,-0.566 -0.019,-0.193 -0.099,-0.38 -0.237,-0.529 m -2.187,0.334 0.144,0.16 0.145,0.16 c 0.022,0.024 0.035,0.053 0.038,0.083 0.002,0.031 -0.004,0.061 -0.02,0.089 l -0.337,0.558 -0.336,0.559 c -0.015,0.024 -0.041,0.03 -0.063,0.022 -0.022,-0.007 -0.04,-0.028 -0.037,-0.056 0.031,-0.296 0.065,-0.59 0.102,-0.883 0.037,-0.293 0.077,-0.585 0.121,-0.877 0.002,-0.012 0.02,-0.012 0.038,-0.01 0.017,0.003 0.035,0.008 0.035,0.008 l 0.085,0.094 z m 80.876,2.499 0.372,1.348 c 0.006,0.021 -0.002,0.041 -0.017,0.053 -0.015,0.012 -0.036,0.015 -0.055,0.005 l -0.934,-0.505 -0.935,-0.504 c -0.266,-0.144 -0.566,-0.142 -0.817,-0.031 -0.25,0.111 -0.451,0.331 -0.518,0.625 l -0.502,2.12 c -0.003,0.011 -0.012,0.017 -0.021,0.017 -0.01,0 -0.019,-0.004 -0.023,-0.015 L 2.45,-17.291 2.052,-18.486 c -0.098,-0.288 -0.322,-0.492 -0.583,-0.579 -0.262,-0.088 -0.562,-0.061 -0.813,0.113 l -0.532,0.36 -0.531,0.36 c -0.018,0.011 -0.037,0.008 -0.051,-0.002 -0.014,-0.012 -0.021,-0.03 -0.013,-0.05 l 0.165,-0.428 0.165,-0.429 c 0.043,-0.119 0.063,-0.245 0.058,-0.369 -0.004,-0.124 -0.033,-0.246 -0.088,-0.359 -0.056,-0.113 -0.132,-0.213 -0.225,-0.294 -0.094,-0.081 -0.204,-0.144 -0.327,-0.184 l -2.09,-0.676 c -0.051,-0.017 -0.076,-0.06 -0.075,-0.104 0,-0.044 0.026,-0.087 0.077,-0.102 l 2.278,-0.684 c 0.135,-0.04 0.256,-0.108 0.356,-0.2 0.1,-0.091 0.18,-0.204 0.232,-0.332 0.055,-0.129 0.078,-0.266 0.07,-0.402 -0.007,-0.135 -0.045,-0.269 -0.113,-0.388 l -0.556,-1.014 c -0.011,-0.019 -0.006,-0.04 0.007,-0.053 0.013,-0.014 0.033,-0.02 0.053,-0.01 l 0.49,0.229 0.49,0.23 c 0.27,0.125 0.564,0.107 0.805,-0.016 0.241,-0.123 0.429,-0.351 0.488,-0.645 l 0.614,-3.114 c 0.009,-0.046 0.046,-0.071 0.084,-0.073 0.038,-0.001 0.077,0.02 0.09,0.066 l 0.455,1.6 0.454,1.601 c 0.079,0.272 0.271,0.478 0.506,0.587 0.235,0.109 0.514,0.119 0.768,0 l 0.985,-0.455 0.984,-0.455 c 0.02,-0.009 0.04,-0.005 0.054,0.007 0.014,0.012 0.022,0.031 0.015,0.052 -0.055,0.183 -0.185,0.526 -0.313,0.855 -0.128,0.33 -0.255,0.645 -0.304,0.773 -0.073,0.178 -0.087,0.369 -0.047,0.548 0.039,0.179 0.133,0.346 0.274,0.474 l 0.531,0.486 0.532,0.486 c 0.016,0.014 0.024,0.034 0.024,0.053 0,0.019 -0.008,0.039 -0.024,0.053 l -0.91,0.844 c -0.125,0.116 -0.214,0.263 -0.26,0.422 -0.046,0.159 -0.05,0.33 -0.003,0.496 m -4.117,22.2 c 0,0.899 -0.366,1.713 -0.957,2.302 -0.591,0.589 -1.408,0.953 -2.308,0.953 -0.901,0 -1.719,-0.364 -2.311,-0.953 -0.593,-0.589 -0.96,-1.403 -0.96,-2.302 0,-0.26 0.032,-0.514 0.091,-0.758 0.06,-0.244 0.147,-0.478 0.258,-0.698 h 5.838 c 0.11,0.22 0.197,0.454 0.257,0.698 0.06,0.244 0.092,0.498 0.092,0.758 m -10.647,0 c 0,0.899 -0.367,1.713 -0.96,2.302 -0.593,0.589 -1.411,0.953 -2.311,0.953 -0.901,0 -1.717,-0.364 -2.308,-0.953 -0.591,-0.589 -0.957,-1.403 -0.957,-2.302 0,-0.26 0.032,-0.514 0.091,-0.758 0.06,-0.244 0.147,-0.478 0.258,-0.698 h 5.838 c 0.11,0.22 0.197,0.454 0.257,0.698 0.06,0.244 0.092,0.498 0.092,0.758 m -29.197,13.431 c -0.07,0.322 -0.107,0.628 -0.106,0.933 10e-4,0.305 0.039,0.609 0.119,0.928 l -1.458,0.862 -1.47,-0.872 -1.471,-0.872 1.449,-0.905 1.449,-0.906 z m -0.354,-2.941 0.018,-1.596 0.017,-1.595 c 0,-0.021 0.011,-0.038 0.027,-0.047 0.016,-0.01 0.036,-0.011 0.054,-10e-4 l 1.441,0.764 1.44,0.765 c 0.022,0.011 0.04,0.029 0.053,0.049 0.012,0.02 0.019,0.044 0.019,0.069 l 0.009,0.736 0.007,0.737 c 0.001,0.036 -0.011,0.071 -0.031,0.099 -0.02,0.029 -0.05,0.051 -0.084,0.063 -0.252,0.088 -0.5,0.203 -0.733,0.341 -0.234,0.138 -0.454,0.299 -0.652,0.478 -0.029,0.026 -0.066,0.042 -0.103,0.047 -0.037,0.005 -0.075,-0.003 -0.11,-0.022 l -0.642,-0.368 -0.642,-0.366 c -0.028,-0.016 -0.05,-0.038 -0.065,-0.065 -0.015,-0.026 -0.023,-0.056 -0.023,-0.088 m 1.651,6.905 c 0.205,0.178 0.432,0.338 0.673,0.472 0.24,0.134 0.495,0.244 0.755,0.324 0.033,0.009 0.061,0.029 0.081,0.055 0.02,0.027 0.032,0.059 0.032,0.094 l 0.008,0.723 0.008,0.724 c 0,0.033 -0.008,0.064 -0.024,0.092 -0.016,0.027 -0.039,0.05 -0.067,0.066 l -1.362,0.763 -1.362,0.764 c -0.042,0.023 -0.089,0.021 -0.127,0 -0.037,-0.021 -0.064,-0.06 -0.066,-0.109 l -0.055,-1.544 -0.055,-1.543 c -0.002,-0.043 0.009,-0.084 0.029,-0.121 0.02,-0.036 0.049,-0.066 0.085,-0.088 l 0.594,-0.35 0.593,-0.349 c 0.042,-0.024 0.088,-0.033 0.134,-0.028 0.045,0.004 0.089,0.023 0.126,0.055 m -1.838,-10.481 -1.942,0.108 c -0.045,0.003 -0.085,0.022 -0.114,0.051 -0.03,0.03 -0.049,0.07 -0.052,0.114 l -0.054,0.988 -0.055,0.989 c -10e-4,0.019 -0.012,0.034 -0.026,0.042 -0.015,0.008 -0.033,0.009 -0.05,0 l -1.074,-0.603 -1.075,-0.602 c -0.035,-0.02 -0.074,-0.023 -0.109,-0.013 -0.036,0.009 -0.067,0.033 -0.087,0.067 l -0.503,0.897 -0.504,0.897 c -0.014,0.024 -0.016,0.052 -0.009,0.077 0.007,0.025 0.024,0.047 0.048,0.061 l 2.106,1.184 c 0.034,0.019 0.052,0.052 0.053,0.086 0.002,0.034 -0.014,0.068 -0.045,0.09 l -0.529,0.361 -0.528,0.361 c -0.032,0.022 -0.07,0.026 -0.104,0.017 -0.034,-0.01 -0.064,-0.033 -0.081,-0.069 -0.726,-1.534 -2.044,-2.827 -3.696,-3.847 -1.653,-1.019 -3.639,-1.765 -5.703,-2.206 -0.057,-0.013 -0.091,-0.057 -0.096,-0.105 -0.006,-0.048 0.016,-0.099 0.069,-0.123 0.508,-0.238 0.98,-0.54 1.404,-0.897 0.424,-0.357 0.802,-0.767 1.121,-1.22 0.031,-0.044 0.079,-0.066 0.127,-0.066 0.047,0 0.095,0.022 0.126,0.067 0.572,0.816 1.334,1.493 2.222,1.966 0.887,0.473 1.901,0.741 2.975,0.741 1.071,0 2.081,-0.267 2.967,-0.736 0.886,-0.47 1.647,-1.143 2.219,-1.956 0.035,-0.047 0.086,-0.072 0.138,-0.072 0.052,0 0.104,0.024 0.138,0.072 0.223,0.313 0.473,0.606 0.747,0.874 0.275,0.269 0.573,0.513 0.89,0.728 0.044,0.03 0.074,0.074 0.084,0.122 0.011,0.048 0.004,0.1 -0.024,0.146 l -0.411,0.659 -0.41,0.659 c -0.016,0.027 -0.039,0.049 -0.065,0.064 -0.026,0.016 -0.056,0.025 -0.088,0.027 m -24.22,-6.914 c 0,0.899 -0.366,1.713 -0.957,2.302 -0.591,0.589 -1.407,0.953 -2.308,0.953 -0.9,0 -1.717,-0.364 -2.308,-0.953 -0.591,-0.589 -0.957,-1.403 -0.957,-2.302 0,-0.26 0.032,-0.514 0.092,-0.758 0.06,-0.244 0.147,-0.478 0.258,-0.698 h 5.837 c 0.111,0.22 0.196,0.454 0.255,0.698 0.058,0.244 0.088,0.498 0.088,0.758 m -5.372,-17.513 c 0.141,0.006 0.268,0.03 0.381,0.072 0.114,0.043 0.213,0.102 0.299,0.179 0.279,0.257 0.276,0.616 0.135,0.95 -0.141,0.333 -0.42,0.641 -0.692,0.794 -0.227,0.122 -0.474,0.206 -0.738,0.251 -0.264,0.046 -0.546,0.051 -0.843,0.018 -0.265,-0.03 -0.52,-0.084 -0.767,-0.164 -0.246,-0.08 -0.483,-0.184 -0.712,-0.314 -0.049,-0.028 -0.079,-0.075 -0.088,-0.127 -0.01,-0.051 0.002,-0.106 0.037,-0.15 0.428,-0.527 0.89,-0.916 1.388,-1.167 0.499,-0.252 1.032,-0.365 1.6,-0.342 m -0.605,-1.741 0.306,-0.318 0.306,-0.319 c 0.026,-0.027 0.06,-0.043 0.096,-0.047 0.035,-0.003 0.072,0.005 0.103,0.026 l 0.526,0.358 0.525,0.357 c 0.01,0.008 0.013,0.019 0.009,0.028 -0.004,0.009 -0.013,0.016 -0.026,0.014 -0.297,-0.054 -0.605,-0.086 -0.914,-0.098 -0.309,-0.012 -0.618,-0.004 -0.916,0.023 -0.007,0 -0.01,-0.006 -0.013,-0.011 -0.002,-0.006 -0.002,-0.013 -0.002,-0.013 m -0.78,5.859 c 0.438,0.083 0.852,0.121 1.243,0.115 0.39,-0.005 0.757,-0.054 1.104,-0.146 0.643,-0.165 1.251,-0.474 1.73,-0.911 0.478,-0.438 0.827,-1.004 0.953,-1.683 0.06,-0.342 0.067,-0.661 0.024,-0.958 -0.044,-0.297 -0.139,-0.571 -0.282,-0.822 -0.003,-0.006 -0.003,-0.013 0.001,-0.018 0.004,-0.005 0.01,-0.007 0.017,-0.006 0.35,0.067 0.673,-0.07 0.875,-0.31 0.203,-0.24 0.285,-0.581 0.155,-0.921 l -1.036,-2.724 c -0.012,-0.03 -0.01,-0.061 0.003,-0.088 0.013,-0.026 0.036,-0.048 0.066,-0.058 l 2.322,-0.771 2.321,-0.771 c 0.199,-0.065 0.363,-0.191 0.474,-0.354 0.111,-0.163 0.169,-0.362 0.157,-0.57 -0.011,-0.251 -0.097,-0.436 -0.232,-0.573 -0.135,-0.137 -0.321,-0.226 -0.532,-0.284 -0.021,-0.006 -0.032,-0.013 -0.033,-0.018 -10e-4,-0.006 0.008,-0.011 0.028,-0.011 0.082,0 0.165,-0.004 0.25,-0.01 0.084,-0.006 0.169,-0.016 0.255,-0.028 0.23,-0.031 0.431,-0.289 0.537,-0.571 0.107,-0.281 0.119,-0.585 -0.028,-0.708 -0.429,-0.168 -0.593,-0.526 -0.564,-0.892 0.029,-0.365 0.251,-0.739 0.594,-0.938 0.3,-0.174 0.619,-0.264 0.946,-0.345 0.326,-0.081 0.659,-0.153 0.99,-0.291 0.134,-0.051 0.257,-0.107 0.369,-0.17 0.114,-0.063 0.217,-0.131 0.31,-0.206 0.033,-0.026 0.071,-0.024 0.099,-0.005 0.028,0.018 0.044,0.054 0.032,0.093 -0.275,0.863 -0.524,1.646 -0.744,2.349 -0.22,0.703 -0.412,1.327 -0.574,1.874 -0.413,1.404 -0.746,2.536 -1.001,3.394 -0.253,0.858 -0.428,1.441 -0.525,1.747 -0.023,0.075 -0.028,0.154 -0.013,0.228 0.015,0.074 0.05,0.143 0.105,0.199 0.112,0.11 0.271,0.197 0.48,0.259 0.208,0.062 0.465,0.1 0.77,0.114 0.345,0.016 0.642,0.003 0.892,-0.039 0.25,-0.042 0.452,-0.113 0.604,-0.213 0.038,-0.025 0.07,-0.057 0.095,-0.093 0.026,-0.036 0.045,-0.076 0.057,-0.12 0.033,-0.121 0.092,-0.337 0.177,-0.645 0.085,-0.308 0.195,-0.709 0.331,-1.203 0.184,-0.651 0.365,-1.266 0.543,-1.846 0.177,-0.579 0.352,-1.122 0.523,-1.629 0.221,-0.591 1.082,-2.145 1.489,-2.751 0.407,-0.608 0.784,-1.06 1.129,-1.354 0.344,-0.295 0.657,-0.432 0.935,-0.414 0.104,0.006 0.186,0.049 0.243,0.129 0.056,0.081 0.088,0.198 0.094,0.355 0.007,0.158 -0.036,0.431 -0.128,0.816 -0.091,0.384 -0.445,1.999 -0.667,2.738 -0.223,0.739 -0.454,1.518 -0.694,2.335 -0.238,0.816 -0.442,1.501 -0.609,2.053 -0.167,0.553 -0.297,0.976 -0.389,1.269 0.018,0.132 0.09,0.242 0.215,0.332 0.124,0.089 0.299,0.158 0.526,0.207 0.227,0.049 0.457,0.078 0.689,0.086 0.232,0.009 0.466,-0.004 0.702,-0.037 0.236,-0.034 0.429,-0.078 0.578,-0.133 0.149,-0.054 0.255,-0.118 0.316,-0.192 0.184,-0.422 0.363,-1.044 0.531,-1.679 0.169,-0.635 0.327,-1.282 0.468,-1.753 0.165,-0.554 0.402,-1.127 0.55,-1.762 0.159,-0.682 1.53,-3.354 1.915,-3.658 0.395,-0.312 0.644,-0.658 0.933,-0.845 0.289,-0.187 0.555,-0.281 0.8,-0.281 0.089,0 0.163,0.014 0.222,0.041 0.058,0.028 0.103,0.069 0.133,0.124 0.12,0.215 0.005,0.754 -0.159,1.299 -0.164,0.545 -0.377,1.094 -0.453,1.326 -0.322,1.044 -0.336,1.224 -0.592,2.244 -0.256,1.021 -0.461,2.053 -0.58,3.146 -0.058,0.483 -0.066,1.22 0.044,1.924 0.111,0.704 0.339,1.374 0.752,1.723 0.118,0.1 0.239,0.188 0.367,0.26 0.128,0.073 0.263,0.131 0.409,0.17 0.03,0.008 0.047,0.032 0.05,0.058 0.003,0.026 -0.008,0.054 -0.036,0.068 -0.053,0.029 -0.103,0.06 -0.153,0.095 -0.048,0.035 -0.096,0.073 -0.141,0.113 -0.171,0.147 -0.312,0.314 -0.423,0.501 -0.109,0.188 -0.189,0.396 -0.238,0.625 -0.043,0.205 -0.043,0.4 -10e-4,0.581 0.042,0.181 0.126,0.349 0.252,0.502 0.04,0.048 0.081,0.091 0.123,0.131 0.043,0.04 0.087,0.075 0.132,0.108 0.01,0.008 0.011,0.018 0.005,0.025 -0.006,0.008 -0.019,0.013 -0.034,0.013 -0.263,-0.014 -0.487,-0.006 -0.671,0.023 -0.183,0.028 -0.328,0.077 -0.434,0.147 -0.022,0.015 -0.04,0.034 -0.055,0.056 -0.014,0.022 -0.025,0.047 -0.033,0.072 -0.236,0.821 -0.449,1.564 -0.637,2.231 -0.189,0.668 -0.352,1.26 -0.491,1.778 -0.214,0.382 -0.443,0.711 -0.684,0.987 -0.241,0.275 -0.495,0.497 -0.762,0.665 -0.279,0.174 -0.544,0.307 -0.797,0.399 -0.254,0.09 -0.495,0.139 -0.728,0.146 -0.273,0.012 -0.455,-0.066 -0.553,-0.209 -0.097,-0.144 -0.109,-0.352 -0.042,-0.599 0.068,-0.279 0.206,-0.603 0.414,-0.972 0.208,-0.37 0.487,-0.784 0.836,-1.243 0.11,-0.147 0.196,-0.292 0.257,-0.435 0.06,-0.144 0.096,-0.285 0.105,-0.422 0.009,-0.138 -0.009,-0.274 -0.055,-0.409 -0.045,-0.134 -0.117,-0.267 -0.215,-0.399 -0.323,-0.445 -0.675,-0.762 -1.041,-1.053 -0.365,-0.29 -0.744,-0.555 -1.121,-0.899 -0.03,-0.027 -0.051,-0.063 -0.063,-0.102 -0.011,-0.038 -0.013,-0.08 -0.003,-0.12 0.029,-0.134 0.048,-0.263 0.054,-0.385 0.007,-0.121 0.003,-0.236 -0.013,-0.341 -0.037,-0.254 -0.126,-0.449 -0.266,-0.583 -0.141,-0.135 -0.334,-0.21 -0.579,-0.225 -0.248,-0.015 -0.475,0.026 -0.682,0.123 -0.207,0.097 -0.393,0.25 -0.562,0.458 -0.25,0.294 -0.374,0.619 -0.373,0.974 0.002,0.354 0.084,0.114 0.084,0.32 0,0.029 0.025,0.051 0.029,0.078 0.004,0.028 0.003,0.056 -0.005,0.083 -0.199,0.673 -0.548,1.606 -0.974,2.508 -0.428,0.902 -0.933,1.774 -1.446,2.322 -0.215,0.226 -0.41,0.399 -0.591,0.517 -0.179,0.118 -0.343,0.18 -0.493,0.187 -0.074,0.005 -0.056,-0.194 -0.029,-0.319 0.098,-0.483 0.263,-0.948 0.434,-1.41 0.171,-0.461 0.347,-0.918 0.466,-1.386 0.135,-0.364 0.203,-0.695 0.204,-0.993 0.002,-0.297 -0.062,-0.562 -0.191,-0.794 -0.129,-0.229 -0.322,-0.401 -0.581,-0.515 -0.26,-0.114 -0.586,-0.171 -0.981,-0.171 -0.395,0 -0.821,0.094 -1.275,0.281 -0.455,0.187 -0.939,0.467 -1.451,0.841 -0.025,0.017 -0.054,0.015 -0.075,0.001 -0.021,-0.014 -0.034,-0.04 -0.027,-0.069 0.236,-0.905 0.485,-1.797 0.746,-2.673 0.26,-0.876 0.532,-1.737 0.814,-2.578 0.006,-0.092 -0.042,-0.178 -0.143,-0.257 -0.101,-0.078 -0.255,-0.15 -0.464,-0.214 -0.208,-0.064 -0.419,-0.112 -0.634,-0.143 -0.215,-0.03 -0.432,-0.044 -0.653,-0.041 -0.223,0.003 -0.423,0.021 -0.602,0.056 -0.178,0.034 -0.335,0.085 -0.469,0.152 -0.463,1.512 -0.91,3.006 -1.341,4.482 -0.431,1.476 -0.846,2.934 -1.245,4.372 -0.548,0.979 -1.575,1.737 -2.703,2.074 -1.128,0.338 -2.357,0.255 -3.306,-0.446 -0.365,-0.269 -0.645,-0.642 -0.84,-1.119 -0.196,-0.476 -0.306,-1.056 -0.33,-1.739 -0.018,-0.495 0.016,-0.985 0.101,-1.473 0.084,-0.488 0.22,-0.972 0.409,-1.453 0.016,-0.042 0.051,-0.072 0.09,-0.083 0.04,-0.013 0.085,-0.008 0.123,0.016 0.382,0.245 0.77,0.447 1.165,0.607 0.395,0.159 0.797,0.278 1.205,0.355 m 0.227,-24.93 c 0,-0.899 0.366,-1.714 0.957,-2.305 0.591,-0.591 1.408,-0.956 2.308,-0.956 0.901,0 1.717,0.365 2.308,0.956 0.591,0.591 0.957,1.406 0.957,2.305 0,0.261 -0.03,0.515 -0.088,0.759 -0.059,0.243 -0.144,0.478 -0.255,0.698 h -5.837 c -0.111,-0.22 -0.198,-0.455 -0.258,-0.698 -0.06,-0.244 -0.092,-0.498 -0.092,-0.759 m 10.647,0 c 0,-0.899 0.366,-1.714 0.958,-2.305 0.592,-0.591 1.41,-0.956 2.313,-0.956 0.901,0 1.716,0.365 2.305,0.956 0.59,0.591 0.954,1.406 0.954,2.305 0,0.261 -0.03,0.515 -0.089,0.759 -0.058,0.243 -0.143,0.478 -0.254,0.698 h -5.838 c -0.11,-0.22 -0.197,-0.455 -0.257,-0.698 -0.06,-0.244 -0.092,-0.498 -0.092,-0.759 m 10.243,-7.52 c 1.243,-0.518 2.29,-1.163 3.139,-1.932 0.848,-0.768 1.499,-1.661 1.948,-2.675 0.011,-0.024 0.031,-0.04 0.053,-0.047 0.023,-0.007 0.048,-0.004 0.07,0.011 l 0.583,0.399 0.584,0.399 c 0.03,0.021 0.044,0.053 0.043,0.085 -0.001,0.032 -0.017,0.064 -0.048,0.082 l -0.326,0.192 -0.875,0.486 -0.876,0.486 c -0.035,0.02 -0.06,0.053 -0.07,0.089 -0.011,0.037 -0.007,0.078 0.013,0.114 l 0.493,0.875 0.491,0.876 c 0.02,0.035 0.051,0.059 0.087,0.068 0.035,0.01 0.074,0.007 0.109,-0.013 l 1.702,-0.958 0.42,-0.232 c 0.023,-0.013 0.048,-0.012 0.068,0 0.021,0.011 0.036,0.032 0.037,0.058 l 0.112,2.034 c 0.002,0.02 0.01,0.037 0.023,0.05 0.013,0.012 0.03,0.021 0.049,0.022 l 2.058,0.114 c 0.023,0.002 0.045,0.009 0.064,0.02 0.02,0.012 0.036,0.028 0.049,0.047 l 0.42,0.679 0.421,0.677 c 0.028,0.045 0.035,0.096 0.025,0.144 -0.01,0.047 -0.039,0.091 -0.082,0.12 -0.314,0.215 -0.61,0.456 -0.882,0.721 -0.273,0.266 -0.522,0.555 -0.744,0.864 -0.04,0.056 -0.099,0.083 -0.159,0.083 -0.06,-10e-4 -0.119,-0.028 -0.158,-0.083 -0.574,-0.807 -1.333,-1.474 -2.215,-1.939 -0.882,-0.465 -1.886,-0.729 -2.951,-0.729 -1.114,0 -2.164,0.29 -3.075,0.796 -0.911,0.508 -1.684,1.233 -2.248,2.105 -0.413,-0.637 -0.936,-1.194 -1.544,-1.645 -0.607,-0.452 -1.299,-0.797 -2.047,-1.008 -0.036,-0.011 -0.051,-0.041 -0.049,-0.071 0.003,-0.029 0.024,-0.057 0.06,-0.061 1.006,-0.129 1.947,-0.302 2.819,-0.518 0.873,-0.218 1.677,-0.479 2.409,-0.785 m 43.709,7.52 c 0,-0.899 0.367,-1.714 0.96,-2.305 0.592,-0.591 1.41,-0.956 2.311,-0.956 0.9,0 1.717,0.365 2.308,0.956 0.591,0.591 0.957,1.406 0.957,2.305 0,0.261 -0.032,0.515 -0.092,0.759 -0.06,0.243 -0.147,0.478 -0.257,0.698 h -5.838 c -0.111,-0.22 -0.198,-0.455 -0.258,-0.698 -0.059,-0.244 -0.091,-0.498 -0.091,-0.759 m 0.765,9.381 0.682,1.236 0.681,1.237 c 0.018,0.033 0.019,0.07 0.006,0.102 -0.013,0.031 -0.04,0.057 -0.076,0.068 l -2.107,0.631 -2.108,0.63 c -0.193,0.058 -0.357,0.176 -0.473,0.329 -0.117,0.153 -0.185,0.342 -0.188,0.54 0,0.202 0.064,0.393 0.176,0.55 0.113,0.155 0.274,0.276 0.467,0.338 l 0.305,0.1 0.306,0.101 c 0.019,0.007 0.032,0.021 0.038,0.038 0.006,0.016 0.005,0.036 -0.007,0.052 -0.295,0.446 -1.314,1.38 -1.478,1.571 -0.205,0.24 -0.433,0.454 -0.683,0.639 -0.251,0.186 -0.523,0.343 -0.818,0.472 -0.016,0.006 -0.032,0.002 -0.043,-0.008 -0.012,-0.01 -0.018,-0.026 -0.014,-0.043 0.375,-1.356 0.59,-1.995 0.919,-3.176 0.329,-1.181 0.635,-2.275 0.918,-3.284 -0.05,-0.143 -0.183,-0.261 -0.4,-0.354 -0.218,-0.094 -0.519,-0.163 -0.906,-0.208 -0.385,-0.043 -0.707,-0.045 -0.963,-0.004 -0.255,0.041 -0.445,0.123 -0.568,0.249 -0.156,0.596 -0.323,1.194 -0.503,1.794 -0.18,0.6 -0.373,1.201 -0.581,1.804 -0.098,0.296 -0.218,0.584 -0.359,0.863 -0.14,0.279 -0.303,0.55 -0.487,0.813 -0.187,0.26 -0.366,0.464 -0.538,0.61 -0.172,0.146 -0.337,0.235 -0.497,0.265 -0.126,0.025 -0.22,0.006 -0.285,-0.054 -0.064,-0.061 -0.098,-0.163 -0.101,-0.307 -0.003,-0.147 0.011,-0.309 0.041,-0.486 0.029,-0.176 0.075,-0.367 0.137,-0.572 0.242,-0.979 0.461,-1.841 0.657,-2.583 0.196,-0.742 0.369,-1.364 0.519,-1.866 -0.049,-0.144 -0.185,-0.261 -0.407,-0.353 -0.221,-0.091 -0.527,-0.155 -0.916,-0.192 -0.395,-0.036 -0.714,-0.035 -0.959,0.006 -0.245,0.04 -0.417,0.12 -0.518,0.239 -0.197,0.621 -0.392,1.254 -0.583,1.901 -0.192,0.646 -0.38,1.306 -0.564,1.979 -0.019,0.073 -0.044,0.144 -0.073,0.214 -0.029,0.07 -0.063,0.137 -0.103,0.201 -0.195,0.318 -0.4,0.595 -0.616,0.829 -0.216,0.236 -0.443,0.429 -0.682,0.579 -0.279,0.174 -0.544,0.306 -0.798,0.396 -0.253,0.089 -0.495,0.136 -0.728,0.143 -0.276,0.012 -0.456,-0.061 -0.552,-0.201 -0.096,-0.139 -0.106,-0.344 -0.042,-0.595 0.067,-0.281 0.205,-0.607 0.413,-0.977 0.209,-0.37 0.487,-0.785 0.837,-1.244 0.11,-0.15 0.195,-0.295 0.256,-0.437 0.06,-0.143 0.096,-0.282 0.105,-0.42 0.009,-0.135 -0.009,-0.27 -0.054,-0.407 -0.046,-0.136 -0.117,-0.272 -0.216,-0.407 -0.098,-0.131 -0.197,-0.254 -0.297,-0.367 -0.101,-0.113 -0.202,-0.217 -0.303,-0.312 -0.098,-0.092 -0.219,-0.196 -0.362,-0.313 -0.143,-0.117 -0.309,-0.247 -0.496,-0.391 -0.172,-0.134 -0.324,-0.255 -0.454,-0.36 -0.129,-0.104 -0.236,-0.193 -0.317,-0.267 -0.01,-0.008 -0.017,-0.02 -0.02,-0.032 -0.003,-0.012 -0.003,-0.025 0,-0.038 0.038,-0.154 0.063,-0.297 0.073,-0.432 0.011,-0.135 0.007,-0.262 -0.011,-0.382 -0.036,-0.257 -0.125,-0.453 -0.266,-0.588 -0.141,-0.136 -0.334,-0.211 -0.579,-0.226 -0.248,-0.015 -0.474,0.026 -0.681,0.125 -0.207,0.098 -0.394,0.255 -0.562,0.469 -0.254,0.298 -0.378,0.626 -0.373,0.985 0.005,0.36 -0.139,0.022 0.125,0.445 0.007,0.012 0.012,0.026 0.014,0.039 0.002,0.013 10e-4,0.028 -0.003,0.041 -0.153,0.524 -0.359,1.088 -0.619,1.688 -0.259,0.6 -0.571,1.238 -0.937,1.911 -0.195,0.322 -0.402,0.603 -0.621,0.842 -0.218,0.238 -0.448,0.434 -0.69,0.584 -0.279,0.174 -0.545,0.306 -0.8,0.396 -0.255,0.089 -0.498,0.136 -0.731,0.143 -0.135,0.006 -0.346,0.054 -0.315,-0.068 0.07,-0.281 0.208,-0.607 0.416,-0.977 0.209,-0.37 0.487,-0.785 0.84,-1.244 0.11,-0.15 0.195,-0.295 0.256,-0.437 0.061,-0.143 0.096,-0.282 0.105,-0.42 0.019,-0.281 -0.103,-0.563 -0.276,-0.82 -0.174,-0.257 -0.401,-0.489 -0.594,-0.673 -0.101,-0.092 -0.222,-0.196 -0.364,-0.313 -0.143,-0.117 -0.307,-0.247 -0.494,-0.391 -0.187,-0.143 -0.347,-0.27 -0.481,-0.38 -0.134,-0.109 -0.241,-0.201 -0.321,-0.274 0.043,-0.163 0.071,-0.314 0.083,-0.456 0.012,-0.143 0.009,-0.275 -0.01,-0.401 -0.036,-0.257 -0.125,-0.453 -0.266,-0.588 -0.141,-0.136 -0.334,-0.211 -0.579,-0.226 -0.248,-0.015 -0.475,0.026 -0.681,0.125 -0.207,0.098 -0.394,0.255 -0.562,0.469 -0.258,0.303 -0.382,0.636 -0.372,1.002 0.009,0.365 0.022,0.141 0.12,0.506 -0.193,0.673 -0.535,1.629 -0.982,2.535 -0.447,0.907 -1,1.763 -1.616,2.237 -0.392,0.297 -0.779,0.522 -1.192,0.669 -0.413,0.147 -0.851,0.215 -1.344,0.2 -0.692,-0.012 -1.222,-0.137 -1.589,-0.376 -0.368,-0.238 -0.266,0.098 -0.309,-0.366 0.523,0.079 1.016,0.1 1.478,0.065 0.462,-0.037 0.892,-0.13 1.29,-0.28 0.405,-0.153 0.747,-0.348 1.028,-0.589 0.281,-0.24 0.501,-0.524 0.663,-0.855 0.536,-0.902 0.394,-1.716 -0.117,-2.31 -0.511,-0.593 -1.389,-0.967 -2.327,-0.988 -0.677,-0.012 -1.303,0.08 -1.877,0.274 -0.575,0.194 -1.097,0.491 -1.566,0.889 -0.472,0.401 -0.839,0.862 -1.105,1.385 -0.265,0.524 -0.429,1.108 -0.493,1.754 -0.049,0.538 0.001,1.034 0.15,1.484 0.15,0.451 0.398,0.856 0.744,1.214 0.349,0.364 0.801,0.637 1.355,0.819 0.555,0.183 1.211,0.276 1.971,0.283 0.592,0.006 1.147,-0.058 1.667,-0.193 0.52,-0.134 1.004,-0.34 1.451,-0.615 0.953,-0.591 1.762,-1.594 2.404,-2.704 0.643,-1.11 1.119,-2.326 1.407,-3.342 0.193,0.159 0.414,0.374 0.54,0.613 0.127,0.239 0.161,0.504 -0.02,0.764 -0.168,0.273 -0.312,0.506 -0.431,0.702 -0.118,0.196 -0.212,0.354 -0.279,0.473 -0.067,0.119 -0.143,0.267 -0.225,0.444 -0.082,0.177 -0.17,0.382 -0.265,0.615 -0.098,0.235 -0.17,0.457 -0.218,0.664 -0.047,0.206 -0.07,0.397 -0.07,0.572 -0.006,0.315 0.064,0.679 0.19,1.008 0.126,0.329 0.306,0.622 0.521,0.797 0.028,0.022 0.058,0.044 0.088,0.065 0.03,0.022 0.062,0.043 0.093,0.062 0.012,0.008 0.015,0.019 0.011,0.029 -0.005,0.009 -0.018,0.017 -0.036,0.017 -0.149,0.004 -0.334,0.013 -0.503,0.048 -0.169,0.034 -0.322,0.094 -0.407,0.201 -0.057,0.156 -0.193,0.57 -0.407,1.241 -0.214,0.67 -0.507,1.597 -0.88,2.779 -0.012,0.04 -0.037,0.073 -0.069,0.097 -0.032,0.024 -0.071,0.038 -0.113,0.038 h -0.498 c -0.097,0.018 -0.182,0.091 -0.253,0.22 -0.071,0.129 -0.129,0.312 -0.175,0.551 -0.043,0.238 -0.053,0.431 -0.027,0.577 0.025,0.145 0.085,0.243 0.18,0.292 h 0.305 c 0.039,0 0.073,0.019 0.095,0.047 0.022,0.028 0.032,0.066 0.022,0.104 -0.077,0.32 -0.148,0.619 -0.211,0.897 -0.064,0.279 -0.12,0.537 -0.168,0.776 -0.037,0.174 -0.069,0.354 -0.098,0.539 -0.029,0.184 -0.055,0.372 -0.08,0.562 -0.006,0.006 -0.013,0.01 -0.021,0.015 -0.007,0.005 -0.012,0.009 -0.016,0.015 -0.272,0.545 -0.579,0.973 -0.922,1.284 -0.343,0.311 -0.721,0.505 -1.137,0.585 -0.063,0.012 -0.122,-0.009 -0.163,-0.049 -0.041,-0.04 -0.064,-0.098 -0.056,-0.162 0.1,-0.793 0.019,-1.627 -0.141,-2.452 -0.16,-0.825 -0.4,-1.641 -0.617,-2.397 -0.003,-0.009 -0.003,-0.018 -0.002,-0.027 0.002,-0.009 0.005,-0.017 0.01,-0.025 0.144,-0.219 0.242,-0.423 0.293,-0.615 0.051,-0.191 0.054,-0.37 0.01,-0.535 -0.077,-0.215 -0.217,-0.378 -0.419,-0.488 -0.202,-0.11 -0.467,-0.167 -0.795,-0.167 -0.422,0 -1.115,-0.111 -1.492,0.055 -0.377,0.166 -0.731,0.414 -1.059,0.741 -0.512,0.511 -1.012,1.106 -1.504,1.785 -0.49,0.68 -0.971,1.443 -1.443,2.291 -0.006,0.012 -0.012,0.023 -0.017,0.033 -0.006,0.009 -0.01,0.019 -0.013,0.028 -0.172,0.309 -0.314,0.57 -0.485,0.818 -0.171,0.248 -0.37,0.482 -0.655,0.736 -0.242,0.217 -0.465,0.378 -0.672,0.483 -0.207,0.105 -0.397,0.153 -0.571,0.148 -0.297,0 -0.02,-0.271 0.053,-0.78 0.074,-0.509 0.235,-1.063 0.287,-1.241 0.064,-0.226 0.142,-0.489 0.232,-0.79 0.091,-0.301 0.193,-0.639 0.307,-1.015 0.109,-0.363 0.211,-0.698 0.305,-1.004 0.092,-0.307 0.176,-0.584 0.249,-0.833 0.005,-0.018 0.007,-0.036 0.005,-0.053 -0.002,-0.017 -0.008,-0.034 -0.019,-0.049 -0.048,-0.072 -0.116,-0.136 -0.203,-0.194 -0.087,-0.057 -0.192,-0.108 -0.316,-0.151 -0.011,-0.004 -0.016,-0.013 -0.016,-0.023 10e-4,-0.008 0.007,-0.017 0.019,-0.019 0.179,-0.029 0.344,-0.078 0.495,-0.145 0.152,-0.068 0.291,-0.153 0.418,-0.258 0.168,-0.147 0.305,-0.313 0.408,-0.499 0.104,-0.187 0.174,-0.391 0.211,-0.615 0.04,-0.214 0.038,-0.413 -0.004,-0.595 -0.042,-0.182 -0.125,-0.347 -0.247,-0.494 -0.098,-0.122 -0.217,-0.218 -0.357,-0.291 -0.14,-0.072 -0.301,-0.121 -0.483,-0.146 -0.022,-0.004 -0.036,-0.019 -0.041,-0.036 -0.004,-0.017 0.002,-0.037 0.02,-0.049 0.283,-0.172 0.596,-0.486 0.799,-0.832 0.203,-0.345 0.295,-0.721 0.135,-1.02 -0.291,-0.15 -0.49,-0.635 -0.603,-1.158 -0.112,-0.523 -0.138,-1.085 -0.083,-1.388 0.147,-0.902 0.39,-1.76 0.655,-2.612 0.264,-0.851 0.549,-1.696 0.778,-2.571 0.167,-0.665 0.521,-1.651 0.654,-2.592 0.133,-0.94 0.043,-1.833 -0.679,-2.314 -0.018,-0.012 -0.022,-0.032 -0.017,-0.05 0.006,-0.017 0.021,-0.031 0.043,-0.031 H 0.684 c 0.027,0 0.051,0.013 0.067,0.032 0.017,0.02 0.024,0.046 0.019,0.073 l -0.526,2.674 c -0.009,0.046 -0.038,0.082 -0.077,0.102 -0.038,0.019 -0.084,0.022 -0.128,0.002 l -2.434,-1.132 c -0.181,-0.086 -0.378,-0.108 -0.564,-0.072 -0.187,0.036 -0.361,0.13 -0.496,0.273 -0.138,0.147 -0.22,0.329 -0.244,0.518 -0.024,0.189 0.011,0.385 0.109,0.559 m 1.685,10.978 1.208,-0.824 1.208,-0.825 c 0.044,-0.03 0.096,-0.035 0.141,-0.02 0.046,0.016 0.084,0.051 0.101,0.102 l 0.696,2.09 0.695,2.09 c 0.02,0.057 0.045,0.111 0.075,0.163 0.031,0.052 0.065,0.101 0.104,0.147 0.004,0.005 0.006,0.011 0.004,0.017 -10e-4,0.006 -0.005,0.011 -0.011,0.014 -0.198,0.082 -0.391,0.186 -0.578,0.312 -0.186,0.125 -0.383,0.258 -0.537,0.448 -0.923,1.14 -5.426,6.404 -5.696,5.974 -0.132,-0.21 -0.014,-0.613 0.109,-1.109 0.046,-0.187 0.11,-0.427 0.195,-0.719 0.084,-0.292 0.188,-0.636 0.314,-1.031 -0.062,-0.119 -0.189,-0.227 -0.381,-0.322 -0.192,-0.095 -0.45,-0.18 -0.771,-0.253 -0.322,-0.071 -0.601,-0.1 -0.838,-0.086 -0.237,0.014 -0.433,0.071 -0.59,0.171 -0.073,0.209 -0.153,0.415 -0.24,0.622 -0.087,0.208 -0.182,0.416 -0.286,0.627 -0.099,0.211 -0.204,0.427 -0.317,0.645 -0.112,0.218 -0.232,0.438 -0.357,0.658 -0.129,0.224 -0.258,0.415 -0.388,0.575 -0.132,0.161 -0.265,0.291 -0.403,0.392 -0.131,0.095 -0.255,0.144 -0.372,0.145 -0.116,0.002 -0.225,-0.044 -0.326,-0.139 -0.159,-0.15 -0.227,-0.405 -0.201,-0.766 0.025,-0.361 0.143,-0.828 0.354,-1.4 0.117,-0.321 0.265,-0.617 0.447,-0.887 0.181,-0.27 0.396,-0.514 0.644,-0.734 0.245,-0.215 0.499,-0.38 0.761,-0.495 0.263,-0.114 0.534,-0.179 0.813,-0.191 0.542,-0.031 1.046,0.024 1.513,0.165 0.467,0.139 0.898,0.364 1.293,0.673 0.085,0.025 0.188,-0.006 0.309,-0.09 0.121,-0.084 0.26,-0.222 0.42,-0.412 0.153,-0.192 0.258,-0.362 0.315,-0.508 0.057,-0.146 0.064,-0.268 0.021,-0.367 -0.263,-0.269 -0.575,-0.492 -0.938,-0.672 -0.363,-0.18 -0.777,-0.316 -1.242,-0.411 -0.463,-0.091 -0.908,-0.145 -1.337,-0.16 -0.427,-0.015 -0.838,0.008 -1.23,0.069 -0.561,0.079 -1.109,0.255 -1.645,0.528 -0.536,0.273 -1.06,0.644 -1.571,1.112 -0.405,0.364 -0.742,0.763 -1.013,1.195 -0.272,0.432 -0.479,0.898 -0.623,1.393 -0.156,0.315 -0.323,0.6 -0.501,0.853 -0.177,0.253 -0.366,0.475 -0.565,0.665 -0.202,0.192 -0.556,0.475 -0.859,0.577 -0.303,0.102 -0.556,0.022 -0.556,-0.51 0,-0.591 0.146,-1.157 0.323,-1.717 0.176,-0.559 0.385,-1.113 0.51,-1.679 0.077,-0.3 0.135,-0.639 0.124,-0.968 -0.01,-0.33 -0.088,-0.65 -0.286,-0.913 0.011,-0.021 0.014,-0.027 0.017,-0.032 0.003,-0.006 0.006,-0.013 0.016,-0.033 0.234,0 0.452,-0.009 0.653,-0.027 0.202,-0.017 0.388,-0.043 0.56,-0.077 0.169,-0.034 0.331,-0.08 0.486,-0.139 0.155,-0.06 0.302,-0.134 0.44,-0.222 0.134,-0.086 0.26,-0.176 0.376,-0.27 0.115,-0.094 0.221,-0.192 0.316,-0.293 0.101,-0.107 0.199,-0.234 0.294,-0.382 0.096,-0.147 0.19,-0.316 0.282,-0.506 0.092,-0.192 0.179,-0.381 0.26,-0.566 0.081,-0.185 0.156,-0.367 0.224,-0.547 0.065,-0.172 0.136,-0.371 0.214,-0.598 0.078,-0.227 0.011,0.01 0.105,-0.274 0.006,-0.017 0.015,-0.033 0.028,-0.047 0.013,-0.014 0.028,-0.025 0.046,-0.032 0.438,-0.176 0.844,-0.387 1.215,-0.632 0.372,-0.245 0.708,-0.524 1.009,-0.839 0.262,-0.271 0.632,-0.717 1.027,-1.241 0.396,-0.524 1.301,-1.443 1.661,-2.025 0.01,-0.017 0.025,-0.029 0.041,-0.034 0.017,-0.007 0.036,-0.007 0.055,-0.001 l 0.914,0.229 1.248,0.404 c 0.046,0.014 0.08,0.047 0.099,0.087 0.019,0.04 0.023,0.087 0.006,0.132 l -1.016,2.662 c -0.159,0.419 0.002,0.817 0.295,1.047 0.293,0.23 0.719,0.293 1.09,0.042 m -17.22,17.966 c 0,0.899 -0.366,1.713 -0.957,2.302 -0.59,0.589 -1.405,0.953 -2.302,0.953 -0.904,0 -1.721,-0.364 -2.314,-0.953 -0.592,-0.589 -0.957,-1.403 -0.957,-2.302 0,-0.26 0.031,-0.514 0.092,-0.758 0.059,-0.244 0.146,-0.478 0.257,-0.698 h 5.838 c 0.11,0.22 0.196,0.454 0.254,0.698 0.058,0.244 0.089,0.498 0.089,0.758 m -11.346,0 c 0,0.899 -0.365,1.713 -0.957,2.302 -0.591,0.589 -1.407,0.953 -2.308,0.953 -0.9,0 -1.718,-0.364 -2.311,-0.953 -0.592,-0.589 -0.96,-1.403 -0.96,-2.302 0,-0.26 0.032,-0.514 0.092,-0.758 0.06,-0.244 0.147,-0.478 0.257,-0.698 h 5.838 c 0.111,0.22 0.198,0.454 0.258,0.698 0.06,0.244 0.091,0.498 0.091,0.758 m -10.647,0 c 0,0.899 -0.367,1.713 -0.96,2.302 -0.592,0.589 -1.41,0.953 -2.311,0.953 -0.9,0 -1.716,-0.364 -2.308,-0.953 -0.591,-0.589 -0.957,-1.403 -0.957,-2.302 0,-0.26 0.032,-0.514 0.092,-0.758 0.06,-0.244 0.147,-0.478 0.257,-0.698 h 5.838 c 0.111,0.22 0.198,0.454 0.258,0.698 0.06,0.244 0.091,0.498 0.091,0.758 M -52.933,-10 c 0.197,0.167 0.393,0.369 0.501,0.595 0.108,0.225 0.127,0.474 -0.031,0.734 -0.287,0.465 -0.662,1.055 -0.963,1.667 -0.302,0.612 -0.532,1.246 -0.532,1.796 -0.01,0.42 0.081,0.778 0.262,1.069 0.181,0.291 0.452,0.516 0.801,0.67 0.03,0.013 0.039,0.042 0.033,0.067 -0.006,0.026 -0.027,0.048 -0.059,0.048 h -4.841 c 0,0 -0.01,-0.007 -0.015,-0.017 -0.005,-0.009 -0.003,-0.022 0.023,-0.03 1.204,-0.398 2.224,-1.472 3.025,-2.729 0.801,-1.257 1.384,-2.698 1.714,-3.829 0.004,-0.015 0.02,-0.03 0.037,-0.038 0.018,-0.009 0.036,-0.012 0.045,-0.003 m 12.239,3.458 c 0.14,-0.233 0.289,-0.472 0.445,-0.717 0.156,-0.245 0.32,-0.498 0.492,-0.758 0.26,-0.391 0.503,-0.73 0.727,-1.018 0.224,-0.289 0.43,-0.526 0.619,-0.713 0.009,-0.009 0.02,-0.01 0.03,-0.007 0.01,0.003 0.019,0.011 0.022,0.023 0.151,0.604 -0.052,0.722 0.049,1.317 0.102,0.595 0.178,1.184 0.226,1.765 0.005,0.066 -0.013,0.128 -0.046,0.18 -0.035,0.053 -0.084,0.096 -0.143,0.125 -0.093,0.046 -0.168,0.109 -0.227,0.188 -0.06,0.08 -0.103,0.176 -0.13,0.288 -0.034,0.139 -0.036,0.271 -0.006,0.397 0.03,0.127 0.09,0.247 0.182,0.363 0.018,0.022 0.024,0.049 0.02,0.074 -0.003,0.025 -0.017,0.049 -0.041,0.064 -0.15,0.099 -0.329,0.123 -0.504,0.093 -0.174,-0.031 -0.344,-0.115 -0.472,-0.232 -0.057,-0.055 -0.108,-0.11 -0.153,-0.166 -0.045,-0.057 -0.085,-0.115 -0.118,-0.174 -0.028,-0.053 -0.069,-0.099 -0.116,-0.133 -0.048,-0.035 -0.104,-0.057 -0.164,-0.062 -0.11,-0.009 -0.226,0.002 -0.346,0.036 -0.121,0.033 -0.246,0.087 -0.378,0.163 -0.161,0.087 -0.295,0.184 -0.4,0.291 -0.106,0.107 -0.184,0.222 -0.235,0.347 -0.012,0.028 -0.017,0.059 -0.016,0.089 0.001,0.031 0.008,0.061 0.02,0.09 0.107,0.249 0.249,0.466 0.424,0.651 0.175,0.185 0.384,0.338 0.624,0.459 0.041,0.02 0.081,0.04 0.122,0.059 0.041,0.019 0.083,0.037 0.124,0.055 0.021,0.009 0.019,0.022 0.011,0.032 -0.008,0.011 -0.021,0.019 -0.021,0.019 h -4.497 c -0.023,0 -0.037,-0.016 -0.04,-0.034 -0.003,-0.018 0.006,-0.038 0.027,-0.045 0.893,-0.282 1.889,-0.324 2.443,-0.966 0.554,-0.641 0.997,-1.398 1.446,-2.143 m 9.356,3.188 h -5.548 c -0.021,0 -0.034,-0.014 -0.037,-0.031 -0.002,-0.016 0.006,-0.034 0.025,-0.042 0.235,-0.088 0.118,-0.17 0.348,-0.149 0.563,0.05 4.449,-0.919 4.195,-0.769 -0.383,0.226 0.555,0.749 1.028,0.932 0.016,0.006 0.021,0.021 0.019,0.035 -0.003,0.013 -0.013,0.024 -0.03,0.024 m 3.713,-8.444 h -0.848 c -0.037,0 -0.069,-0.018 -0.089,-0.045 -0.02,-0.027 -0.027,-0.063 -0.018,-0.098 0.192,-0.666 0.378,-1.299 0.558,-1.898 0.18,-0.598 0.354,-1.163 0.522,-1.692 -0.012,-0.053 -0.037,-0.105 -0.073,-0.154 -0.036,-0.049 -0.084,-0.095 -0.144,-0.139 -0.012,-0.008 -0.015,-0.021 -0.012,-0.032 0.002,-0.011 0.012,-0.019 0.026,-0.02 0.988,-0.038 1.849,-0.395 2.601,-1.001 0.753,-0.606 1.397,-1.46 1.952,-2.491 0.359,-0.628 0.671,-1.24 0.933,-1.838 0.262,-0.597 0.475,-1.178 0.638,-1.745 0.005,-0.018 0.019,-0.03 0.035,-0.035 0.015,-0.005 0.033,-0.002 0.047,0.01 0.196,0.169 0.391,0.369 0.498,0.591 0.107,0.223 0.126,0.47 -0.031,0.735 -0.172,0.273 -0.316,0.506 -0.434,0.702 -0.119,0.196 -0.213,0.354 -0.283,0.473 -0.067,0.119 -0.143,0.267 -0.225,0.444 -0.081,0.177 -0.17,0.382 -0.265,0.615 -0.095,0.235 -0.167,0.457 -0.215,0.664 -0.048,0.206 -0.073,0.397 -0.073,0.572 -0.016,0.758 0.283,1.256 0.751,1.561 0.468,0.305 1.105,0.418 1.767,0.409 0.714,-0.015 1.372,-0.156 1.975,-0.423 0.603,-0.267 1.151,-0.659 1.646,-1.178 0.009,-0.01 0.022,-0.012 0.032,-0.008 0.011,0.004 0.019,0.014 0.02,0.028 0.034,0.527 0.22,0.922 0.557,1.186 0.337,0.263 0.825,0.395 1.467,0.395 0.612,0 1.178,-0.14 1.695,-0.42 0.518,-0.281 0.988,-0.702 1.408,-1.265 0.009,-0.011 0.022,-0.012 0.032,-0.007 0.009,0.005 0.016,0.016 0.011,0.029 -0.107,0.337 -0.212,0.656 -0.318,0.955 -0.106,0.299 -0.212,0.578 -0.318,0.835 -0.021,0.049 -0.053,0.09 -0.093,0.123 -0.041,0.032 -0.088,0.054 -0.141,0.065 -0.178,0.036 -0.341,0.069 -0.486,0.099 -0.145,0.03 -0.272,0.058 -0.381,0.082 -0.126,0.027 -0.268,0.061 -0.425,0.101 -0.157,0.039 -0.329,0.085 -0.512,0.137 -0.181,0.055 -0.347,0.114 -0.495,0.175 -0.149,0.061 -0.28,0.125 -0.394,0.193 -0.119,0.07 -0.237,0.145 -0.354,0.227 -0.117,0.081 -0.234,0.17 -0.35,0.268 -0.117,0.095 -0.221,0.199 -0.313,0.313 -0.091,0.114 -0.171,0.238 -0.238,0.372 -0.068,0.135 -0.123,0.277 -0.168,0.428 -0.045,0.151 -0.08,0.31 -0.108,0.478 -0.043,0.334 -0.017,0.635 0.077,0.902 0.094,0.268 0.257,0.502 0.486,0.701 0.007,0.006 0.015,0.011 0.022,0.017 0.007,0.006 0.015,0.011 0.023,0.017 0.009,0.007 0.008,0.017 0.001,0.027 -0.008,0.009 -0.021,0.017 -0.036,0.018 -0.467,0.033 -0.921,0.151 -1.36,0.356 -0.439,0.204 -0.863,0.494 -1.273,0.871 -0.024,0.022 -0.055,0.026 -0.08,0.016 -0.026,-0.009 -0.046,-0.032 -0.047,-0.063 -0.008,-0.183 -0.042,-0.346 -0.104,-0.487 -0.061,-0.143 -0.149,-0.263 -0.264,-0.362 -0.125,-0.113 -0.278,-0.199 -0.459,-0.256 -0.181,-0.057 -0.389,-0.087 -0.625,-0.087 -0.413,0 -0.86,0.11 -1.341,0.329 -0.482,0.219 -0.999,0.547 -1.553,0.985 -0.015,0.013 -0.034,0.011 -0.047,0.002 -0.014,-0.009 -0.021,-0.026 -0.016,-0.044 0.052,-0.164 0.098,-0.306 0.137,-0.426 0.039,-0.12 0.072,-0.219 0.1,-0.295 0.008,-0.022 0.011,-0.045 0.009,-0.068 -0.002,-0.022 -0.009,-0.044 -0.021,-0.063 -0.088,-0.131 -0.24,-0.237 -0.454,-0.318 -0.214,-0.082 -0.492,-0.138 -0.833,-0.169 -0.34,-0.031 -0.628,-0.032 -0.865,-0.003 -0.236,0.028 -0.42,0.087 -0.552,0.174 -0.02,0.013 -0.037,0.03 -0.05,0.049 -0.013,0.019 -0.024,0.041 -0.031,0.064 -0.183,0.578 -0.372,1.2 -0.568,1.865 -0.196,0.664 -0.398,1.37 -0.606,2.117 -0.01,0.034 -0.021,0.068 -0.035,0.101 -0.013,0.033 -0.028,0.066 -0.044,0.097 -0.388,0.718 -0.816,1.249 -1.288,1.594 -0.472,0.345 -0.987,0.505 -1.547,0.478 -0.178,-0.012 -0.316,-0.086 -0.413,-0.221 -0.096,-0.134 -0.151,-0.33 -0.164,-0.587 -0.012,-0.254 0.007,-0.54 0.054,-0.859 0.047,-0.319 0.124,-0.671 0.228,-1.056 0.03,-0.123 0.103,-0.389 0.219,-0.798 0.116,-0.409 0.276,-0.962 0.482,-1.658 0.008,-0.028 0.025,-0.052 0.048,-0.069 0.022,-0.017 0.049,-0.027 0.079,-0.027 h 1.25 c 0.036,0 0.073,-0.006 0.106,-0.018 0.034,-0.012 0.065,-0.031 0.092,-0.056 0.063,-0.061 0.118,-0.147 0.164,-0.259 0.045,-0.111 0.082,-0.247 0.109,-0.407 0.026,-0.157 0.032,-0.297 0.017,-0.422 -0.015,-0.125 -0.051,-0.234 -0.108,-0.328 -0.029,-0.049 -0.073,-0.086 -0.122,-0.112 -0.05,-0.025 -0.107,-0.038 -0.164,-0.038 z m 13.67,-1.193 c 0,-0.154 1.602,-1.032 1.556,-0.869 -0.047,0.163 -0.088,0.294 -0.122,0.391 -0.104,0.266 -1.218,0.869 -1.305,0.803 -0.086,-0.067 -0.129,-0.175 -0.129,-0.325 m -3.345,9.184 c 0.061,0.088 0.136,0.166 0.224,0.235 0.087,0.069 0.188,0.127 0.3,0.176 0.011,0.005 0.016,0.016 0.014,0.025 -0.002,0.009 -0.009,0.017 -0.022,0.017 h -3.108 c 0,0 -0.009,-0.005 -0.015,-0.011 -0.006,-0.007 -0.01,-0.014 0,-0.02 0.045,-0.023 0.083,-0.048 0.115,-0.075 0.033,-0.028 0.059,-0.057 0.079,-0.089 0.277,-1.215 0.517,-2.236 0.72,-3.063 0.202,-0.827 0.367,-1.461 0.493,-1.901 0.012,-0.04 0.03,-0.078 0.052,-0.113 0.022,-0.036 0.05,-0.068 0.081,-0.096 0.221,-0.194 0.426,-0.341 0.616,-0.441 0.19,-0.099 0.365,-0.151 0.525,-0.157 0.11,-0.006 0.202,0.008 0.275,0.041 0.073,0.034 0.126,0.088 0.16,0.161 0.034,0.074 0.05,0.159 0.049,0.256 -0.002,0.097 -0.022,0.206 -0.061,0.325 -0.117,0.484 -0.233,0.967 -0.351,1.451 -0.118,0.483 -0.238,0.966 -0.36,1.45 -0.086,0.394 -0.112,0.743 -0.077,1.048 0.036,0.304 0.132,0.564 0.291,0.781 m 5.042,-1.276 c 0.008,0.065 0.019,0.129 0.03,0.191 0.011,0.062 0.024,0.122 0.038,0.18 0.058,0.208 0.133,0.39 0.226,0.545 0.093,0.155 0.205,0.284 0.337,0.385 0.105,0.087 0.213,0.161 0.324,0.224 0.111,0.063 0.224,0.115 0.34,0.158 0.013,0.005 0.018,0.016 0.016,0.026 -0.002,0.011 -0.01,0.02 -0.024,0.02 h -3.612 c -0.011,0 -0.018,-0.007 -0.02,-0.015 -10e-4,-0.008 0.003,-0.018 0.014,-0.021 0.41,-0.132 0.806,-0.34 1.188,-0.623 0.383,-0.283 0.752,-0.642 1.107,-1.078 0.005,-0.007 0.013,-0.008 0.021,-0.007 0.007,0.002 0.014,0.007 0.015,0.015 m -9.25,-3.606 c -0.291,1.144 -0.538,2.135 -0.74,2.973 -0.202,0.839 -0.36,1.524 -0.473,2.056 0.016,0.044 0.04,0.083 0.071,0.12 0.03,0.037 0.068,0.071 0.113,0.102 0.022,0.015 0.025,0.036 0.022,0.054 -0.002,0.017 -0.01,0.03 -0.01,0.03 h -2.216 c 0,0 -0.01,-0.005 -0.018,-0.012 -0.007,-0.006 -0.011,-0.014 0.002,-0.02 0.067,-0.028 0.123,-0.059 0.167,-0.093 0.045,-0.033 0.078,-0.069 0.098,-0.107 0.221,-0.976 0.438,-1.876 0.651,-2.698 0.212,-0.822 0.419,-1.567 0.617,-2.234 0.243,-0.239 0.477,-0.421 0.701,-0.548 0.225,-0.127 0.439,-0.199 0.641,-0.217 0.095,-0.006 0.172,0.003 0.232,0.027 0.059,0.025 0.102,0.065 0.129,0.12 0.031,0.055 0.046,0.119 0.048,0.193 10e-4,0.074 -0.011,0.158 -0.035,0.254 m -6.096,4.577 c 0.025,-0.022 0.049,-0.044 0.073,-0.066 0.024,-0.022 0.048,-0.044 0.072,-0.067 0.021,-0.02 0.047,-0.032 0.067,-0.035 0.021,-0.003 0.035,0.004 0.03,0.021 -0.023,0.087 -0.046,0.174 -0.069,0.261 -0.023,0.087 -0.046,0.176 -0.069,0.265 0.003,0.064 0.025,0.123 0.067,0.177 0.042,0.054 0.103,0.102 0.183,0.144 0.015,0.008 0.019,0.022 0.017,0.035 -0.003,0.013 -0.014,0.023 -0.03,0.023 h -1.59 c -0.013,0 -0.021,-0.008 -0.022,-0.018 -0.001,-0.009 0.004,-0.02 0.016,-0.024 0.227,-0.073 0.445,-0.169 0.654,-0.288 0.209,-0.12 0.41,-0.262 0.601,-0.428 m -20.184,-0.686 c 0.005,0.19 0.032,0.365 0.079,0.525 0.046,0.159 0.112,0.303 0.196,0.43 0.057,0.081 0.124,0.153 0.201,0.217 0.077,0.064 0.164,0.121 0.26,0.169 0.026,0.014 0.035,0.039 0.03,0.062 -0.005,0.022 -0.023,0.041 -0.052,0.041 h -2.924 c -0.029,0 -0.046,-0.02 -0.049,-0.041 -0.003,-0.022 0.008,-0.046 0.035,-0.054 0.404,-0.124 0.785,-0.298 1.144,-0.523 0.36,-0.225 0.697,-0.5 1.014,-0.825 0.011,-0.011 0.027,-0.017 0.041,-0.017 0.014,0 0.025,0.005 0.025,0.016 m -12.057,-3.72 c -0.232,0.706 -0.422,1.328 -0.566,1.861 -0.144,0.534 -0.242,0.981 -0.291,1.339 -0.043,0.331 -0.04,0.627 0.011,0.891 0.051,0.264 0.151,0.495 0.301,0.694 0.052,0.073 0.116,0.138 0.19,0.195 0.075,0.058 0.16,0.108 0.255,0.152 0.012,0.005 0.008,0.013 0.002,0.02 -0.007,0.007 -0.017,0.012 -0.017,0.012 h -3.104 c 0,0 -0.005,-0.003 -0.009,-0.007 -0.004,-0.004 -0.007,-0.009 -10e-4,-0.012 0.045,-0.024 0.08,-0.049 0.107,-0.075 0.026,-0.026 0.042,-0.053 0.047,-0.083 0.122,-0.499 0.291,-1.161 0.506,-1.988 0.215,-0.827 0.477,-1.817 0.787,-2.971 0.003,-0.015 0.01,-0.03 0.018,-0.043 0.008,-0.014 0.018,-0.026 0.029,-0.037 0.253,-0.234 0.492,-0.412 0.717,-0.537 0.224,-0.124 0.435,-0.195 0.633,-0.213 0.226,-0.024 0.373,0.029 0.438,0.162 0.065,0.134 0.048,0.346 -0.053,0.64 m 50.978,5.164 c -0.01,0 -0.017,-0.007 -0.018,-0.015 -10e-4,-0.008 0.003,-0.017 0.013,-0.02 0.158,-0.053 0.306,-0.117 0.446,-0.195 0.14,-0.077 0.272,-0.168 0.395,-0.271 0.226,-0.192 0.439,-0.411 0.639,-0.658 0.201,-0.248 0.388,-0.525 0.565,-0.831 0.007,-0.012 0.019,-0.015 0.029,-0.012 0.01,0.003 0.019,0.013 0.018,0.027 -0.028,0.315 -0.023,0.597 0.012,0.848 0.036,0.25 0.103,0.469 0.201,0.656 0.039,0.076 0.084,0.143 0.134,0.203 0.05,0.061 0.106,0.115 0.166,0.162 0.023,0.018 0.029,0.044 0.022,0.066 -0.007,0.022 -0.027,0.04 -0.056,0.04 z m -28.599,-17.158 c 0.067,-0.306 0.157,-0.583 0.272,-0.83 0.113,-0.248 0.252,-0.467 0.414,-0.657 0.156,-0.195 0.315,-0.335 0.478,-0.419 0.162,-0.084 0.327,-0.113 0.496,-0.089 0.144,0.019 0.237,0.088 0.279,0.206 0.041,0.119 0.03,0.287 -0.034,0.504 -0.049,0.174 -0.129,0.337 -0.238,0.488 -0.11,0.152 -0.249,0.292 -0.418,0.424 -0.165,0.129 -0.352,0.225 -0.56,0.287 -0.208,0.063 -0.438,0.092 -0.689,0.086 m -10.192,-8.469 h 3.079 c 0.01,0 0.016,0.007 0.018,0.014 10e-4,0.008 -0.002,0.016 -0.011,0.02 -0.406,0.177 -0.811,0.429 -1.216,0.757 -0.405,0.326 -0.81,0.728 -1.216,1.205 -0.008,0.01 -0.02,0.012 -0.03,0.008 -0.009,-0.004 -0.016,-0.013 -0.015,-0.026 0.04,-0.342 0.034,-0.705 -0.051,-1.037 -0.086,-0.332 -0.252,-0.633 -0.533,-0.851 -0.02,-0.015 -0.027,-0.038 -0.028,-0.057 -10e-4,-0.018 0.003,-0.033 0.003,-0.033 m -4.917,0 h 2.048 c 0.024,0 0.039,0.017 0.043,0.035 0.004,0.019 -0.004,0.04 -0.027,0.05 -0.12,0.051 -0.239,0.108 -0.358,0.172 -0.119,0.063 -0.237,0.133 -0.356,0.208 -0.364,0.231 -0.7,0.491 -1.009,0.779 -0.309,0.288 -0.591,0.604 -0.846,0.946 -0.008,0.012 -0.02,0.013 -0.029,0.008 -0.01,-0.005 -0.016,-0.016 -0.011,-0.029 l 0.341,-0.958 0.341,-0.96 c -0.014,-0.034 -0.033,-0.064 -0.057,-0.093 -0.025,-0.03 -0.053,-0.056 -0.088,-0.081 -0.019,-0.014 -0.017,-0.033 -0.01,-0.049 0.007,-0.015 0.018,-0.028 0.018,-0.028 m 4.921,-6.352 c 0,-0.899 0.366,-1.714 0.957,-2.305 0.592,-0.591 1.408,-0.956 2.308,-0.956 0.901,0 1.719,0.365 2.311,0.956 0.593,0.591 0.96,1.406 0.96,2.305 0,0.261 -0.031,0.515 -0.091,0.759 -0.06,0.243 -0.147,0.478 -0.258,0.698 h -5.838 c -0.11,-0.22 -0.197,-0.455 -0.257,-0.698 -0.06,-0.244 -0.092,-0.498 -0.092,-0.759 m 12.721,-10.28 -0.007,0.663 -0.007,0.662 c -10e-4,0.033 -0.01,0.065 -0.027,0.092 -0.016,0.027 -0.04,0.05 -0.069,0.066 l -1.413,0.749 -1.412,0.75 c -0.026,0.013 -0.054,0.011 -0.076,-0.002 -0.022,-0.013 -0.038,-0.037 -0.038,-0.067 l -0.018,-1.599 -0.017,-1.6 c 0,-0.016 0.004,-0.03 0.011,-0.043 0.007,-0.014 0.019,-0.024 0.032,-0.032 l 1.32,-0.754 c 0.037,-0.021 0.079,-0.029 0.119,-0.024 0.04,0.005 0.079,0.023 0.111,0.051 0.21,0.189 0.433,0.349 0.672,0.486 0.238,0.136 0.491,0.249 0.758,0.342 0.011,0.004 0.026,0.026 0.039,0.047 0.014,0.022 0.024,0.042 0.024,0.042 z m -2.995,-7.996 0.056,-1.563 0.056,-1.564 c 0.001,-0.045 0.026,-0.081 0.061,-0.1 0.034,-0.02 0.079,-0.022 0.118,0 l 1.364,0.764 1.364,0.765 c 0.032,0.017 0.056,0.043 0.074,0.073 0.017,0.029 0.026,0.064 0.026,0.1 l -0.016,1.44 c 0,0.034 -0.011,0.066 -0.031,0.091 -0.019,0.026 -0.047,0.045 -0.079,0.056 -0.268,0.083 -0.529,0.197 -0.776,0.336 -0.247,0.139 -0.479,0.302 -0.69,0.486 -0.026,0.022 -0.057,0.035 -0.089,0.038 -0.032,0.004 -0.065,-0.003 -0.094,-0.02 l -0.624,-0.364 -0.624,-0.365 c -0.031,-0.018 -0.055,-0.043 -0.072,-0.073 -0.016,-0.031 -0.025,-0.065 -0.024,-0.1 m 7.16,6.968 1.184,0.692 c 0.02,0.011 0.035,0.027 0.045,0.046 0.011,0.019 0.017,0.041 0.016,0.064 l -0.055,1.6 -0.053,1.6 c -0.002,0.039 -0.024,0.071 -0.054,0.087 -0.03,0.017 -0.068,0.02 -0.103,10e-4 l -2.784,-1.562 c -0.021,-0.011 -0.037,-0.028 -0.049,-0.048 -0.011,-0.019 -0.018,-0.042 -0.017,-0.066 l 0.008,-0.757 0.008,-0.759 c 10e-4,-0.023 0.009,-0.045 0.022,-0.062 0.013,-0.018 0.032,-0.031 0.054,-0.039 0.296,-0.093 0.568,-0.21 0.825,-0.356 0.256,-0.146 0.496,-0.321 0.727,-0.532 0.005,-0.004 0.022,-0.004 0.038,-0.003 0.017,10e-4 0.032,0.003 0.032,0.003 l 0.078,0.045 z m -1.748,-7.345 0.007,-0.52 0.008,-0.519 c 10e-4,-0.062 0.019,-0.121 0.049,-0.172 0.032,-0.051 0.076,-0.094 0.131,-0.123 l 1.286,-0.684 1.287,-0.684 c 0.063,-0.034 0.132,-0.028 0.186,0.004 0.054,0.032 0.093,0.09 0.093,0.162 l 0.032,2.874 c 0,0.061 -0.016,0.119 -0.045,0.17 -0.029,0.051 -0.072,0.095 -0.124,0.125 l -0.553,0.317 -0.552,0.317 c -0.059,0.033 -0.126,0.048 -0.191,0.043 -0.065,-0.006 -0.128,-0.03 -0.18,-0.075 -0.204,-0.176 -0.43,-0.333 -0.669,-0.467 -0.239,-0.134 -0.49,-0.244 -0.745,-0.323 -0.007,-0.002 -0.014,-0.007 -0.019,-0.014 -0.005,-0.006 -0.007,-0.014 -0.007,-0.023 l 0.002,-0.204 z m -4.491,18.653 c 0,-0.899 0.368,-1.714 0.96,-2.305 0.593,-0.591 1.411,-0.956 2.311,-0.956 0.901,0 1.717,0.365 2.308,0.956 0.592,0.591 0.957,1.406 0.957,2.305 0,0.261 -0.031,0.515 -0.091,0.759 -0.06,0.243 -0.147,0.478 -0.258,0.698 h -5.838 c -0.11,-0.22 -0.197,-0.455 -0.257,-0.698 -0.06,-0.244 -0.092,-0.498 -0.092,-0.759 m 11.352,0 c 0,-0.899 0.365,-1.714 0.957,-2.305 0.593,-0.591 1.41,-0.956 2.314,-0.956 0.897,0 1.712,0.365 2.302,0.956 0.591,0.591 0.957,1.406 0.957,2.305 0,0.261 -0.031,0.515 -0.089,0.759 -0.058,0.243 -0.144,0.478 -0.254,0.698 h -5.838 c -0.111,-0.22 -0.198,-0.455 -0.257,-0.698 -0.061,-0.244 -0.092,-0.498 -0.092,-0.759 m 16.84,1.457 h -5.838 c -0.111,-0.22 -0.198,-0.455 -0.258,-0.698 -0.059,-0.244 -0.091,-0.498 -0.091,-0.759 0,-0.899 0.366,-1.714 0.957,-2.305 0.591,-0.591 1.407,-0.956 2.308,-0.956 0.9,0 1.718,0.365 2.311,0.956 0.593,0.591 0.96,1.406 0.96,2.305 0,0.261 -0.032,0.515 -0.092,0.759 -0.06,0.243 -0.147,0.478 -0.257,0.698 m -15.663,-13.457 c 0.787,1.663 2.27,3.004 4.141,4.005 1.872,1.001 4.13,1.661 6.468,1.961 0.019,0.003 0.031,0.017 0.032,0.032 0.002,0.015 -0.006,0.031 -0.025,0.038 -0.642,0.229 -1.236,0.557 -1.763,0.966 -0.527,0.409 -0.987,0.9 -1.362,1.454 -0.018,0.027 -0.046,0.04 -0.074,0.04 -0.028,0 -0.056,-0.013 -0.074,-0.039 -0.572,-0.841 -1.338,-1.539 -2.235,-2.026 -0.897,-0.487 -1.923,-0.764 -3.014,-0.764 -1.22,0 -2.36,0.345 -3.327,0.941 -0.967,0.597 -1.762,1.445 -2.293,2.451 -0.013,0.024 -0.036,0.036 -0.059,0.036 -0.023,0 -0.046,-0.012 -0.059,-0.036 -0.254,-0.479 -0.568,-0.922 -0.932,-1.319 -0.364,-0.397 -0.778,-0.748 -1.231,-1.042 -0.049,-0.032 -0.081,-0.08 -0.092,-0.133 -0.012,-0.052 -0.003,-0.108 0.028,-0.157 l 0.333,-0.509 0.332,-0.508 c 0.07,-0.107 0.139,-0.18 0.208,-0.226 0.07,-0.046 0.14,-0.066 0.213,-0.068 l 0.773,-0.027 0.772,-0.026 c 0.114,-0.003 0.218,-0.05 0.296,-0.124 0.078,-0.074 0.129,-0.176 0.138,-0.291 l 0.065,-0.843 0.066,-0.843 c 0.002,-0.027 0.018,-0.047 0.038,-0.059 0.021,-0.01 0.047,-0.011 0.07,0.002 l 0.981,0.575 0.98,0.575 c 0.07,0.042 0.151,0.051 0.225,0.032 0.074,-0.019 0.14,-0.066 0.182,-0.136 l 0.428,-0.72 0.428,-0.718 c 0.047,-0.078 0.057,-0.168 0.036,-0.25 -0.021,-0.082 -0.073,-0.156 -0.152,-0.202 l -0.957,-0.567 -0.957,-0.566 c -0.026,-0.016 -0.041,-0.044 -0.041,-0.071 -0.001,-0.028 0.012,-0.056 0.038,-0.073 l 0.622,-0.402 0.621,-0.402 c 0.023,-0.015 0.05,-0.019 0.075,-0.011 0.025,0.007 0.046,0.024 0.058,0.05 m -3.867,-0.556 -0.675,-0.404 -0.674,-0.404 c -0.031,-0.018 -0.054,-0.045 -0.067,-0.075 -0.013,-0.031 -0.017,-0.066 -0.01,-0.102 0.055,-0.254 0.086,-0.531 0.09,-0.807 0.004,-0.277 -0.021,-0.552 -0.078,-0.806 -0.009,-0.037 -0.005,-0.075 0.009,-0.108 0.015,-0.033 0.039,-0.061 0.073,-0.08 l 0.64,-0.358 0.641,-0.359 c 0.029,-0.016 0.061,-0.024 0.093,-0.023 0.032,10e-4 0.065,0.01 0.093,0.028 l 2.648,1.646 c 0.037,0.023 0.056,0.062 0.055,0.101 0,0.038 -0.019,0.077 -0.057,0.099 l -1.391,0.826 z m -9.351,-2.557 c -0.049,0.245 -0.073,0.488 -0.073,0.732 0,0.243 0.024,0.487 0.069,0.735 0.01,0.055 0.003,0.11 -0.019,0.159 -0.022,0.049 -0.058,0.09 -0.107,0.118 l -0.595,0.335 -0.596,0.335 c -0.041,0.023 -0.087,0.034 -0.133,0.033 -0.046,-10e-4 -0.092,-0.014 -0.132,-0.039 l -2.542,-1.586 c -0.052,-0.032 -0.078,-0.087 -0.078,-0.142 10e-4,-0.054 0.028,-0.108 0.081,-0.14 l 2.566,-1.518 c 0.045,-0.027 0.096,-0.04 0.147,-0.04 0.051,0 0.102,0.013 0.147,0.04 l 0.566,0.335 0.567,0.335 c 0.053,0.031 0.092,0.078 0.115,0.132 0.023,0.054 0.029,0.115 0.017,0.176 m -25.468,21.602 -1.639,0.856 -1.639,0.855 c -0.04,0.021 -0.084,0.021 -0.121,0.005 -0.037,-0.017 -0.068,-0.048 -0.08,-0.091 l -0.464,-1.622 c -0.01,-0.035 -0.001,-0.07 0.018,-0.096 0.02,-0.026 0.051,-0.044 0.088,-0.044 h 3.803 c 0.038,0 0.064,0.026 0.071,0.056 0.007,0.03 -0.003,0.064 -0.037,0.081 m 8.202,-0.07 c -0.019,0.035 -0.042,0.062 -0.065,0.084 -0.023,0.021 -0.044,0.037 -0.058,0.049 -0.202,0.223 -0.421,0.397 -0.666,0.55 -0.245,0.152 -0.516,0.284 -0.822,0.425 -0.585,0.264 -1.156,0.434 -1.734,0.58 -0.577,0.145 -1.161,0.265 -1.77,0.424 -0.193,0.051 -0.375,0.111 -0.547,0.18 -0.172,0.07 -0.334,0.149 -0.487,0.239 -0.009,0.006 -0.017,0.003 -0.022,-0.003 -0.005,-0.005 -0.007,-0.014 -10e-4,-0.022 l 0.768,-1.045 0.767,-1.045 c 0.006,-0.009 0.042,-0.059 0.09,-0.123 0.047,-0.063 0.106,-0.141 0.156,-0.208 0.037,-0.048 0.082,-0.086 0.135,-0.112 0.052,-0.026 0.11,-0.04 0.17,-0.04 h 4.023 c 0,0 0.027,-0.004 0.048,0.002 0.021,0.005 0.037,0.022 0.015,0.065 m -6.119,6.373 -2.404,-0.532 c -0.022,-0.005 -0.039,-0.021 -0.046,-0.04 -0.007,-0.019 -0.005,-0.042 0.009,-0.061 l 1.246,-1.684 c 0.004,-0.006 0.009,-0.006 0.014,-0.004 0.004,0.002 0.008,0.007 0.006,0.013 -0.096,0.526 -0.024,0.987 0.185,1.371 0.21,0.385 0.557,0.693 1.015,0.912 0.022,0.01 0.015,0.016 0.004,0.02 -0.012,0.004 -0.029,0.005 -0.029,0.005 m -4.783,18.228 c -0.049,0.18 -0.065,0.241 -0.081,0.301 -0.016,0.06 -0.032,0.12 -0.081,0.297 -0.022,0.076 -0.013,0.14 0.017,0.196 0.029,0.056 0.077,0.103 0.132,0.144 0.004,0.003 0.005,0.009 0.004,0.013 -0.002,0.005 -0.006,0.008 -0.012,0.008 h -2.326 c -0.022,0 -0.034,-0.015 -0.037,-0.031 -0.002,-0.017 0.007,-0.034 0.028,-0.04 0.467,-0.119 0.893,-0.281 1.291,-0.494 0.399,-0.215 0.771,-0.481 1.132,-0.811 0.009,-0.009 0.02,-0.006 0.028,-10e-4 0.008,0.004 0.014,0.012 0.014,0.012 l -0.055,0.203 z m 7.906,5.849 h 5.838 c 0.111,0.22 0.196,0.454 0.254,0.698 0.059,0.244 0.089,0.498 0.089,0.758 0,0.899 -0.364,1.713 -0.954,2.302 -0.589,0.589 -1.404,0.953 -2.305,0.953 -0.903,0 -1.721,-0.364 -2.313,-0.953 -0.592,-0.589 -0.958,-1.403 -0.958,-2.302 0,-0.26 0.032,-0.514 0.092,-0.758 0.06,-0.244 0.147,-0.478 0.257,-0.698 m 28.522,19.613 -0.017,1.607 -0.018,1.607 c 0,0.024 -0.013,0.044 -0.032,0.055 -0.018,0.011 -0.042,0.013 -0.064,0.001 l -2.822,-1.5 c -0.033,-0.018 -0.061,-0.044 -0.08,-0.076 -0.019,-0.031 -0.031,-0.068 -0.031,-0.106 l -0.011,-0.723 -0.01,-0.722 c 0,-0.033 0.009,-0.062 0.027,-0.087 0.018,-0.024 0.043,-0.043 0.074,-0.054 0.266,-0.088 0.519,-0.206 0.756,-0.348 0.239,-0.142 0.462,-0.309 0.67,-0.497 0.023,-0.021 0.051,-0.033 0.08,-0.036 0.029,-0.004 0.059,0.001 0.086,0.017 l 1.338,0.768 c 0.017,0.009 0.031,0.023 0.04,0.04 0.009,0.016 0.014,0.035 0.014,0.054 m -3.186,-7.803 -0.016,-1.412 c 0,-0.046 0.012,-0.09 0.034,-0.128 0.022,-0.039 0.055,-0.071 0.094,-0.094 l 1.375,-0.77 1.375,-0.771 c 0.028,-0.016 0.059,-0.014 0.084,0 0.025,0.014 0.042,0.04 0.043,0.072 l 0.053,1.565 0.053,1.566 c 0.002,0.053 -0.011,0.105 -0.036,0.15 -0.025,0.045 -0.062,0.084 -0.108,0.111 l -0.594,0.346 -0.593,0.348 c -0.033,0.018 -0.069,0.026 -0.104,0.022 -0.036,-0.004 -0.071,-0.019 -0.099,-0.044 -0.217,-0.19 -0.443,-0.348 -0.683,-0.483 -0.24,-0.134 -0.494,-0.243 -0.769,-0.334 -0.018,-0.006 -0.045,-0.042 -0.068,-0.076 -0.023,-0.035 -0.041,-0.068 -0.041,-0.068 m 2.871,4.738 c 0.049,-0.235 0.071,-0.483 0.07,-0.733 -10e-4,-0.249 -0.025,-0.5 -0.068,-0.739 -0.013,-0.069 -0.002,-0.139 0.026,-0.2 0.03,-0.061 0.077,-0.114 0.138,-0.15 l 1.094,-0.646 c 0.045,-0.026 0.095,-0.04 0.146,-0.04 0.051,10e-4 0.101,0.014 0.146,0.041 l 1.211,0.716 1.21,0.716 c 0.087,0.051 0.131,0.139 0.132,0.228 0,0.088 -0.041,0.178 -0.127,0.231 l -1.198,0.747 -1.199,0.748 c -0.04,0.025 -0.086,0.039 -0.133,0.039 -0.046,10e-4 -0.093,-0.01 -0.134,-0.033 l -0.604,-0.34 -0.603,-0.339 c -0.043,-0.025 -0.075,-0.062 -0.094,-0.105 -0.018,-0.043 -0.023,-0.093 -0.013,-0.141 m 3.988,-4.082 0.961,-0.566 0.961,-0.567 c 0.052,-0.031 0.087,-0.079 0.101,-0.134 0.013,-0.054 0.007,-0.113 -0.024,-0.165 l -0.473,-0.794 -0.472,-0.794 c -0.033,-0.055 -0.085,-0.092 -0.144,-0.107 -0.057,-0.015 -0.121,-0.008 -0.177,0.025 l -0.938,0.553 -0.939,0.554 c -0.055,0.032 -0.117,0.03 -0.167,0.004 -0.049,-0.026 -0.087,-0.075 -0.092,-0.139 l -0.064,-0.844 -0.066,-0.844 c -0.006,-0.072 -0.038,-0.136 -0.087,-0.183 -0.049,-0.046 -0.114,-0.076 -0.186,-0.078 L -28.456,9.896 -29.342,9.868 C -29.391,9.867 -29.437,9.854 -29.478,9.831 -29.519,9.808 -29.554,9.775 -29.581,9.734 L -29.975,9.132 -30.368,8.53 c -0.023,-0.035 -0.029,-0.076 -0.021,-0.114 0.009,-0.039 0.032,-0.074 0.068,-0.096 0.453,-0.292 0.868,-0.639 1.234,-1.034 0.366,-0.394 0.683,-0.836 0.941,-1.313 0.018,-0.034 0.05,-0.051 0.083,-0.051 0.032,0 0.065,0.017 0.083,0.051 0.535,0.997 1.328,1.833 2.291,2.421 0.962,0.587 2.093,0.925 3.305,0.925 1.072,0 2.083,-0.268 2.968,-0.739 0.887,-0.471 1.648,-1.146 2.223,-1.96 0.033,-0.047 0.082,-0.07 0.132,-0.07 0.05,0 0.1,0.024 0.132,0.07 0.292,0.416 0.634,0.795 1.017,1.129 0.384,0.334 0.808,0.624 1.263,0.86 0.033,0.017 0.046,0.05 0.042,0.08 -0.004,0.03 -0.026,0.058 -0.063,0.064 -2.084,0.374 -4.131,1.066 -5.853,2.082 -1.723,1.016 -3.12,2.355 -3.903,4.023 -0.026,0.056 -0.074,0.094 -0.127,0.109 -0.053,0.016 -0.113,0.01 -0.165,-0.024 l -0.526,-0.345 -0.525,-0.345 c -0.046,-0.03 -0.068,-0.079 -0.067,-0.127 10e-4,-0.048 0.025,-0.096 0.073,-0.124 M -4.35,-3.354 c -0.019,0 -0.029,-0.012 -0.032,-0.026 -0.002,-0.015 0.006,-0.045 0.023,-0.036 1.03,0.575 6.355,-5.519 5.965,-6.157 -0.016,-0.027 0.053,-0.029 0.08,-0.021 0.027,0.008 0.05,0.029 0.057,0.06 0.156,0.63 0.132,0.663 0.232,1.283 0.1,0.62 0.171,1.233 0.212,1.838 -0.328,0.067 -0.516,0.296 -0.568,0.566 -0.052,0.27 0.032,0.581 0.25,0.81 -0.062,0.058 -0.134,0.101 -0.217,0.13 C 1.568,-4.879 1.474,-4.865 1.366,-4.865 1.262,-4.871 1.164,-4.894 1.071,-4.935 0.977,-4.975 0.888,-5.033 0.803,-5.11 0.723,-5.187 0.656,-5.265 0.601,-5.346 0.545,-5.427 0.502,-5.511 0.472,-5.6 0.187,-5.7 -0.173,-5.621 -0.482,-5.446 -0.792,-5.27 -1.05,-5 -1.133,-4.718 c 0.104,0.272 0.246,0.508 0.427,0.707 0.181,0.2 0.4,0.364 0.657,0.492 0.044,0.022 0.087,0.042 0.13,0.063 0.044,0.02 0.087,0.039 0.13,0.058 0.018,0.007 0.019,0.019 0.016,0.028 -0.004,0.009 -0.012,0.016 -0.012,0.016 z m 9.289,-22.723 -0.395,-1.384 -0.395,-1.385 c -0.009,-0.033 -0.002,-0.067 0.018,-0.092 0.019,-0.026 0.049,-0.043 0.084,-0.043 h 1.293 c 0.035,0 0.068,0.011 0.095,0.03 0.027,0.02 0.047,0.047 0.058,0.08 0.117,0.353 0.23,0.71 0.338,1.07 0.109,0.359 0.213,0.721 0.311,1.085 0.008,0.026 0.005,0.053 -0.006,0.076 -0.011,0.024 -0.03,0.043 -0.055,0.055 l -0.611,0.282 -0.61,0.283 c -0.025,0.011 -0.053,0.01 -0.076,0 -0.023,-0.011 -0.041,-0.031 -0.049,-0.057 M -8.896,-40.991 c -0.068,-0.035 -0.094,-0.103 -0.083,-0.165 0.011,-0.062 0.058,-0.117 0.134,-0.124 1.14,-0.112 2.252,-0.317 3.283,-0.622 1.031,-0.304 1.982,-0.707 2.799,-1.215 0.045,-0.027 0.096,-0.037 0.145,-0.03 0.049,0.006 0.095,0.03 0.13,0.069 0.178,0.203 0.353,0.406 0.526,0.612 0.173,0.205 0.344,0.411 0.512,0.619 0.032,0.039 0.034,0.088 0.017,0.127 -0.018,0.039 -0.056,0.07 -0.106,0.073 -0.99,0.071 -1.92,0.37 -2.735,0.845 -0.815,0.474 -1.517,1.125 -2.049,1.901 -0.023,0.034 -0.059,0.053 -0.096,0.055 -0.038,0.003 -0.076,-0.01 -0.103,-0.042 l -0.115,-0.153 -0.114,-0.153 c -0.019,-0.021 -0.308,-0.346 -0.716,-0.728 -0.408,-0.382 -0.935,-0.821 -1.429,-1.069 m 0.94,-3.683 c -1.433,-0.207 -2.801,-0.786 -4.022,-1.603 -1.219,-0.817 -2.291,-1.871 -3.13,-3.027 -0.061,-0.083 -0.156,-0.107 -0.239,-0.085 -0.083,0.023 -0.153,0.092 -0.165,0.194 -0.076,0.694 -0.095,1.315 -0.009,1.929 0.085,0.615 0.276,1.222 0.62,1.886 0.03,0.06 0.02,0.125 -0.014,0.172 -0.035,0.048 -0.094,0.077 -0.16,0.064 -0.987,-0.186 -2.34,-0.707 -3.53,-1.477 -1.191,-0.77 -2.218,-1.79 -2.554,-2.975 -0.19,-0.658 -0.15,-1.395 0.13,-2.024 0.28,-0.629 0.801,-1.149 1.573,-1.372 0.251,-0.077 0.493,-0.104 0.715,-0.085 0.222,0.019 0.425,0.085 0.596,0.195 0.089,0.056 0.169,0.125 0.241,0.206 0.071,0.08 0.133,0.173 0.186,0.277 0.023,0.044 0.017,0.091 -0.006,0.129 -0.023,0.037 -0.064,0.062 -0.112,0.061 -0.269,-0.006 -0.545,0.023 -0.8,0.099 -0.255,0.075 -0.489,0.196 -0.673,0.372 -0.395,0.373 -0.504,0.95 -0.383,1.485 0.12,0.534 0.469,1.027 0.989,1.232 0.337,0.135 0.74,0.164 1.149,0.097 0.409,-0.066 0.824,-0.228 1.185,-0.476 0.445,-0.303 0.78,-0.716 0.988,-1.197 0.209,-0.482 0.29,-1.031 0.225,-1.606 -0.007,-0.076 -0.017,-0.151 -0.03,-0.226 -0.013,-0.074 -0.028,-0.148 -0.045,-0.22 -0.014,-0.055 0.008,-0.105 0.046,-0.135 0.038,-0.03 0.091,-0.04 0.141,-0.015 1.69,0.852 3.314,1.816 4.861,2.883 1.548,1.066 3.019,2.234 4.405,3.496 0.037,0.034 0.04,0.083 0.021,0.121 -0.019,0.037 -0.06,0.065 -0.11,0.055 -0.489,-0.087 -0.92,-0.235 -1.327,-0.429 -0.407,-0.195 -0.791,-0.436 -1.186,-0.712 -0.07,-0.049 -0.152,-0.044 -0.213,-0.006 -0.061,0.038 -0.101,0.109 -0.087,0.193 0.049,0.292 0.133,0.696 0.268,1.114 0.135,0.418 0.321,0.851 0.576,1.2 0.034,0.047 0.033,0.104 0.009,0.146 -0.024,0.043 -0.071,0.072 -0.129,0.064 M -22.66,-54.7 c -0.481,0.343 -0.899,0.753 -1.247,1.209 -0.349,0.456 -0.628,0.958 -0.83,1.484 l -0.578,-0.395 -0.58,-0.394 1.174,-0.658 1.173,-0.658 -0.567,-1.004 -0.567,-1.003 -1.172,0.661 -1.174,0.661 -0.104,-1.91 c 0.947,0.152 1.883,0.334 2.808,0.548 0.925,0.214 1.837,0.458 2.735,0.733 0.029,0.009 0.044,0.033 0.045,0.058 0.002,0.026 -0.012,0.051 -0.04,0.063 -0.186,0.079 -0.369,0.169 -0.549,0.27 -0.18,0.101 -0.356,0.213 -0.527,0.335 m -17.791,-0.279 -1.014,-0.598 -1.014,-0.597 c -0.04,-0.024 -0.086,-0.029 -0.128,-0.018 -0.042,0.01 -0.08,0.037 -0.103,0.077 l -0.497,0.837 -0.496,0.836 c -0.027,0.046 -0.033,0.098 -0.021,0.145 0.013,0.048 0.043,0.09 0.088,0.117 l 1.982,1.168 c 0.039,0.022 0.059,0.062 0.06,0.102 0,0.039 -0.018,0.08 -0.056,0.104 l -0.83,0.54 c -0.038,0.025 -0.082,0.029 -0.12,0.016 -0.039,-0.012 -0.072,-0.04 -0.09,-0.081 -0.291,-0.675 -0.727,-1.282 -1.261,-1.79 -0.533,-0.508 -1.163,-0.917 -1.84,-1.195 -0.031,-0.014 -0.046,-0.042 -0.045,-0.07 10e-4,-0.028 0.018,-0.055 0.05,-0.065 0.884,-0.267 1.781,-0.507 2.688,-0.716 0.907,-0.21 1.825,-0.389 2.752,-0.536 0.045,-0.007 0.088,0.008 0.119,0.036 0.03,0.028 0.049,0.07 0.045,0.115 l -0.114,1.492 c -0.003,0.038 -0.025,0.068 -0.055,0.083 -0.03,0.016 -0.067,0.017 -0.1,-0.002 m -8.263,5.958 c 0.555,-0.22 0.908,-0.76 1.001,-1.332 0.093,-0.571 -0.076,-1.174 -0.566,-1.52 -0.17,-0.12 -0.372,-0.209 -0.597,-0.265 -0.226,-0.056 -0.474,-0.08 -0.734,-0.07 -0.044,10e-4 -0.08,-0.021 -0.101,-0.052 -0.021,-0.031 -0.027,-0.073 -0.008,-0.112 0.164,-0.334 0.42,-0.543 0.726,-0.641 0.305,-0.099 0.661,-0.087 1.027,0.021 0.772,0.223 1.292,0.743 1.572,1.372 0.281,0.629 0.321,1.366 0.131,2.024 -0.352,1.246 -1.426,2.295 -2.657,3.069 -1.231,0.773 -2.619,1.271 -3.598,1.413 -0.034,0.005 -0.063,-0.011 -0.079,-0.036 -0.017,-0.025 -0.02,-0.059 -0.004,-0.09 0.393,-0.716 0.605,-1.365 0.697,-2.023 0.092,-0.658 0.063,-1.326 -0.025,-2.081 -0.009,-0.076 -0.062,-0.127 -0.124,-0.144 -0.063,-0.016 -0.134,0.002 -0.178,0.064 -0.827,1.168 -1.887,2.237 -3.1,3.07 -1.213,0.834 -2.578,1.433 -4.014,1.661 -0.075,0.012 -0.137,-0.026 -0.167,-0.082 -0.03,-0.056 -0.029,-0.129 0.022,-0.186 0.321,-0.362 0.563,-0.705 0.712,-1.076 0.149,-0.37 0.205,-0.768 0.152,-1.24 -0.01,-0.084 -0.064,-0.147 -0.133,-0.178 -0.069,-0.03 -0.152,-0.027 -0.221,0.021 -0.418,0.294 -0.82,0.552 -1.247,0.757 -0.426,0.206 -0.878,0.36 -1.395,0.447 -0.046,0.007 -0.084,-0.018 -0.101,-0.053 -0.017,-0.034 -0.015,-0.079 0.02,-0.111 1.407,-1.283 2.903,-2.469 4.477,-3.55 1.574,-1.08 3.226,-2.055 4.945,-2.913 0.031,-0.016 0.066,-0.009 0.09,0.01 0.024,0.019 0.038,0.051 0.028,0.085 -0.025,0.091 -0.046,0.182 -0.064,0.275 -0.017,0.093 -0.03,0.188 -0.04,0.284 -0.11,1.007 0.313,1.987 0.996,2.624 0.683,0.636 1.626,0.928 2.557,0.558 m -15.63,5.667 c 1.146,0.716 2.422,1.234 3.63,1.574 1.207,0.339 2.346,0.5 3.215,0.5 0.008,0 0.035,-10e-4 0.07,-0.002 0.035,-0.001 0.078,-0.002 0.12,-0.003 0.024,0 0.035,0.007 0.036,0.015 0,0.009 -0.011,0.02 -0.031,0.027 -0.023,0.009 -0.047,0.018 -0.07,0.028 -0.023,0.009 -0.047,0.018 -0.07,0.028 -0.586,0.24 -1.131,0.566 -1.616,0.963 -0.484,0.396 -0.91,0.864 -1.258,1.386 -0.011,0.018 -0.029,0.026 -0.047,0.026 -0.018,0 -0.036,-0.008 -0.048,-0.025 -0.57,-0.852 -1.339,-1.559 -2.241,-2.054 -0.901,-0.494 -1.935,-0.775 -3.035,-0.775 -0.061,0 -0.121,0.002 -0.179,0.004 -0.059,0.003 -0.117,0.006 -0.175,0.009 -0.02,10e-4 -0.038,-0.014 -0.047,-0.033 -0.01,-0.02 -0.011,-0.043 0.003,-0.059 0.012,-0.015 0.024,-0.03 0.036,-0.045 l 0.037,-0.045 c 0.214,-0.264 0.431,-0.525 0.653,-0.785 0.22,-0.258 0.444,-0.515 0.672,-0.767 0.008,-0.009 0.017,-0.019 0.025,-0.029 0.009,-0.009 0.017,-0.019 0.026,-0.028 0.008,-0.01 0.037,-0.014 0.064,-0.016 0.027,-0.003 0.051,-0.003 0.051,-0.003 l 0.039,0.024 0.038,0.023 z m -6.452,14.496 -0.872,3.072 c -0.007,0.024 -0.022,0.044 -0.042,0.057 -0.02,0.014 -0.045,0.02 -0.07,0.017 l -1.02,-0.137 -1.021,-0.135 c -0.045,-0.006 -0.082,-0.031 -0.105,-0.066 -0.023,-0.034 -0.032,-0.078 -0.021,-0.121 0.119,-0.458 0.246,-0.913 0.381,-1.366 0.134,-0.453 0.276,-0.902 0.426,-1.347 0.01,-0.029 0.028,-0.053 0.052,-0.07 0.024,-0.017 0.053,-0.027 0.084,-0.027 h 2.116 c 0.032,0 0.059,0.016 0.076,0.039 0.018,0.023 0.025,0.053 0.016,0.084 m -0.731,11.98 c 0.018,-0.005 0.036,-0.003 0.051,0.004 0.016,0.008 0.028,0.02 0.035,0.037 l 0.248,0.586 0.247,0.586 c 0,0 0.009,0.023 0.02,0.05 0.011,0.028 0.025,0.06 0.034,0.079 0.002,0.005 10e-4,0.011 0,0.016 -0.002,0.004 -0.005,0.008 -0.007,0.009 -0.253,0.131 -0.501,0.278 -0.743,0.443 -0.241,0.164 -0.477,0.347 -0.708,0.548 -0.01,0.009 -0.024,0.013 -0.036,0.011 -0.012,-0.002 -0.024,-0.009 -0.031,-0.021 -0.074,-0.135 -0.156,-0.327 -0.248,-0.577 -0.091,-0.25 -0.191,-0.559 -0.301,-0.926 -0.031,-0.086 -0.09,-0.144 -0.164,-0.182 -0.075,-0.038 -0.164,-0.055 -0.255,-0.061 -0.02,-0.001 -0.032,-0.015 -0.033,-0.03 -0.002,-0.015 0.005,-0.031 0.024,-0.037 l 0.934,-0.267 z m -0.315,13.524 h -1.479 c -0.013,0 -0.025,-0.004 -0.035,-0.011 -0.01,-0.008 -0.018,-0.018 -0.022,-0.03 -0.043,-0.137 -0.084,-0.274 -0.126,-0.411 -0.041,-0.137 -0.082,-0.274 -0.122,-0.411 -0.007,-0.019 0.002,-0.037 0.016,-0.047 0.014,-0.009 0.034,-0.01 0.05,0.003 0.26,0.202 0.534,0.377 0.822,0.522 0.288,0.146 0.591,0.263 0.91,0.351 0.022,0.006 0.018,0.014 0.01,0.022 -0.009,0.007 -0.024,0.012 -0.024,0.012 z m 6.153,12.673 c 1.084,0 2.104,-0.273 2.996,-0.753 0.892,-0.48 1.656,-1.167 2.23,-1.995 0.024,-0.035 0.061,-0.052 0.098,-0.052 0.037,0 0.074,0.017 0.098,0.052 0.256,0.367 0.548,0.708 0.873,1.015 0.325,0.307 0.681,0.58 1.065,0.812 0.033,0.02 0.044,0.055 0.037,0.085 -0.006,0.031 -0.031,0.057 -0.069,0.06 -1.257,0.105 -2.513,0.339 -3.676,0.727 -1.164,0.387 -2.236,0.929 -3.125,1.651 -0.051,0.042 -0.115,0.06 -0.176,0.056 -0.061,-0.005 -0.12,-0.034 -0.163,-0.084 -0.199,-0.234 -0.395,-0.471 -0.587,-0.71 -0.193,-0.239 -0.383,-0.48 -0.569,-0.724 -0.033,-0.043 -0.031,-0.097 -0.008,-0.138 0.023,-0.04 0.069,-0.069 0.123,-0.061 0.139,0.02 0.28,0.034 0.422,0.044 0.142,0.01 0.286,0.015 0.431,0.015 m 7.042,5.741 c 0.085,-0.544 0.033,-0.991 -0.136,-1.404 -0.17,-0.413 -0.455,-0.791 -0.837,-1.198 -0.028,-0.031 -0.031,-0.072 -0.015,-0.104 0.016,-0.033 0.05,-0.056 0.092,-0.05 1.493,0.199 2.917,0.804 4.178,1.662 1.262,0.859 2.361,1.971 3.204,3.183 0.032,0.045 0.083,0.06 0.128,0.049 0.045,-0.011 0.083,-0.047 0.09,-0.102 0.097,-0.773 0.134,-1.451 0.05,-2.117 -0.084,-0.666 -0.289,-1.318 -0.673,-2.04 -0.024,-0.044 -0.018,-0.093 0.006,-0.129 0.025,-0.036 0.068,-0.058 0.118,-0.05 0.986,0.158 2.357,0.661 3.568,1.432 1.212,0.77 2.264,1.809 2.611,3.039 0.19,0.658 0.151,1.395 -0.128,2.024 -0.279,0.629 -0.8,1.149 -1.575,1.372 -0.251,0.074 -0.493,0.1 -0.716,0.081 -0.222,-0.02 -0.424,-0.084 -0.595,-0.191 -0.088,-0.058 -0.167,-0.126 -0.238,-0.205 -0.07,-0.079 -0.132,-0.169 -0.185,-0.27 -0.023,-0.044 -0.019,-0.095 0.005,-0.133 0.023,-0.039 0.065,-0.066 0.116,-0.065 0.266,0.006 0.54,-0.025 0.794,-0.1 0.255,-0.076 0.488,-0.196 0.672,-0.371 0.392,-0.373 0.499,-0.95 0.38,-1.485 -0.12,-0.534 -0.466,-1.027 -0.981,-1.232 -0.34,-0.132 -0.744,-0.161 -1.154,-0.095 -0.409,0.066 -0.824,0.227 -1.186,0.474 -0.444,0.303 -0.779,0.716 -0.988,1.198 -0.208,0.482 -0.289,1.033 -0.225,1.611 0.032,0.29 0.098,0.572 0.194,0.84 0.096,0.269 0.222,0.524 0.374,0.763 0.019,0.029 0.012,0.061 -0.007,0.081 -0.019,0.021 -0.05,0.032 -0.081,0.017 -2.025,-0.98 -3.96,-2.119 -5.787,-3.402 -1.826,-1.283 -3.545,-2.709 -5.138,-4.261 -0.016,-0.016 -0.018,-0.038 -0.011,-0.056 0.007,-0.018 0.024,-0.033 0.046,-0.033 0.762,-0.027 1.41,0.096 2.016,0.33 0.606,0.233 1.17,0.579 1.764,0.999 0.035,0.024 0.095,0.026 0.147,0.014 0.052,-0.013 0.097,-0.041 0.103,-0.076 m 13.891,7.268 c 0.421,-0.3 0.795,-0.653 1.116,-1.044 0.321,-0.39 0.59,-0.819 0.8,-1.272 0.032,-0.071 0.093,-0.118 0.163,-0.137 0.069,-0.019 0.146,-0.009 0.211,0.034 l 0.414,0.272 0.413,0.272 c 0.035,0.023 0.053,0.061 0.052,0.098 -10e-4,0.037 -0.02,0.075 -0.057,0.096 l -0.974,0.571 -0.973,0.572 c -0.058,0.033 -0.097,0.087 -0.112,0.148 -0.015,0.06 -0.008,0.125 0.026,0.183 l 0.448,0.755 0.449,0.756 c 0.043,0.073 0.111,0.121 0.187,0.14 0.076,0.02 0.159,0.011 0.232,-0.032 l 0.921,-0.543 0.92,-0.542 c 0.049,-0.029 0.104,-0.027 0.148,-0.004 0.045,0.023 0.078,0.067 0.082,0.123 l 0.069,0.882 0.068,0.882 c 0.005,0.057 0.03,0.108 0.069,0.146 0.039,0.037 0.091,0.06 0.149,0.062 l 0.929,0.031 0.93,0.032 c 0.037,10e-4 0.074,0.011 0.105,0.029 0.032,0.018 0.059,0.044 0.08,0.075 l 0.308,0.472 c 0.015,0.023 0.013,0.049 10e-4,0.069 -0.012,0.02 -0.035,0.034 -0.062,0.032 -1.63,-0.153 -3.234,-0.401 -4.806,-0.737 -1.571,-0.336 -3.109,-0.762 -4.609,-1.271 -0.046,-0.016 -0.067,-0.058 -0.064,-0.098 0.004,-0.04 0.031,-0.078 0.08,-0.087 0.399,-0.065 0.794,-0.18 1.177,-0.341 0.384,-0.161 0.756,-0.369 1.11,-0.624 m 15.457,2.439 0.992,-0.052 0.992,-0.053 c 0.047,-0.002 0.089,-0.022 0.12,-0.053 0.031,-0.031 0.051,-0.073 0.054,-0.12 l 0.052,-0.933 0.051,-0.934 c 0.002,-0.042 0.027,-0.076 0.059,-0.094 0.033,-0.018 0.075,-0.021 0.112,0 l 1.051,0.587 1.052,0.587 c 0.023,0.012 0.049,0.015 0.072,0.008 0.024,-0.006 0.045,-0.022 0.057,-0.044 l 1.028,-1.814 c 0.016,-0.029 0.019,-0.062 0.011,-0.091 -0.008,-0.03 -0.029,-0.057 -0.057,-0.073 l -1.045,-0.585 -1.044,-0.586 c -0.035,-0.02 -0.054,-0.055 -0.055,-0.09 -0.002,-0.035 0.014,-0.072 0.047,-0.094 l 0.454,-0.309 0.453,-0.31 c 0.023,-0.015 0.049,-0.018 0.072,-0.011 0.024,0.008 0.044,0.025 0.054,0.051 0.196,0.494 0.463,0.962 0.792,1.39 0.33,0.427 0.723,0.813 1.173,1.142 0.395,0.288 0.811,0.519 1.24,0.692 0.429,0.173 0.871,0.289 1.319,0.345 0.023,0.003 0.036,0.021 0.039,0.039 0.002,0.018 -0.008,0.038 -0.03,0.045 -1.506,0.52 -3.053,0.956 -4.632,1.303 -1.58,0.346 -3.192,0.603 -4.83,0.762 -0.029,0.003 -0.054,-0.012 -0.068,-0.034 -0.014,-0.021 -0.016,-0.051 0,-0.076 l 0.169,-0.275 0.169,-0.274 c 0.008,-0.014 0.02,-0.025 0.033,-0.032 0.013,-0.008 0.028,-0.013 0.044,-0.014 m 14.143,-4.923 c 0.111,-1.007 -0.31,-1.987 -0.992,-2.624 -0.682,-0.637 -1.623,-0.931 -2.555,-0.564 -0.254,0.101 -0.464,0.252 -0.626,0.449 -0.162,0.196 -0.277,0.438 -0.341,0.72 -0.153,0.7 0.011,1.222 0.373,1.56 0.361,0.338 0.922,0.491 1.565,0.454 0.024,-10e-4 0.044,0.01 0.057,0.027 0.012,0.017 0.017,0.039 0.008,0.061 -0.156,0.37 -0.413,0.599 -0.727,0.709 -0.313,0.11 -0.683,0.1 -1.062,-0.009 -0.775,-0.223 -1.295,-0.743 -1.575,-1.372 -0.28,-0.629 -0.318,-1.366 -0.128,-2.024 0.352,-1.243 1.464,-2.303 2.727,-3.085 1.264,-0.781 2.678,-1.282 3.633,-1.406 0.011,-10e-4 0.021,0.004 0.026,0.013 0.005,0.008 0.005,0.02 0,0.03 -0.435,0.774 -0.664,1.464 -0.755,2.165 -0.092,0.702 -0.048,1.417 0.061,2.242 0.005,0.038 0.032,0.063 0.063,0.071 0.031,0.007 0.067,-0.003 0.089,-0.034 0.842,-1.23 1.947,-2.362 3.22,-3.235 1.273,-0.873 2.713,-1.489 4.222,-1.689 0.041,-0.005 0.074,0.017 0.09,0.048 0.016,0.031 0.015,0.071 -0.013,0.101 -0.392,0.42 -0.684,0.807 -0.854,1.231 -0.169,0.424 -0.216,0.885 -0.118,1.453 0.006,0.031 0.027,0.055 0.055,0.066 0.026,0.01 0.058,0.008 0.085,-0.01 0.607,-0.433 1.179,-0.794 1.794,-1.041 0.613,-0.247 1.27,-0.38 2.047,-0.358 0.026,0 0.045,0.017 0.053,0.037 0.008,0.021 0.005,0.046 -0.013,0.063 -1.569,1.526 -3.259,2.93 -5.053,4.196 -1.793,1.266 -3.691,2.394 -5.678,3.369 -0.051,0.025 -0.104,0.009 -0.135,-0.026 -0.033,-0.035 -0.044,-0.089 -0.016,-0.14 0.126,-0.221 0.229,-0.454 0.309,-0.696 0.08,-0.242 0.135,-0.494 0.164,-0.752 M -2.241,11.076 C -2.997,10.445 -3.89,9.933 -4.87,9.534 -5.851,9.135 -6.919,8.849 -8.027,8.668 -8.145,8.649 -8.22,8.564 -8.241,8.467 -8.263,8.37 -8.231,8.261 -8.133,8.193 c 0.319,-0.221 0.617,-0.471 0.891,-0.745 0.273,-0.274 0.521,-0.573 0.741,-0.893 0.022,-0.031 0.054,-0.047 0.087,-0.047 0.033,0 0.066,0.016 0.087,0.047 0.573,0.833 1.34,1.524 2.236,2.007 0.896,0.482 1.92,0.757 3.007,0.757 0.045,0 0.091,-0.001 0.137,-0.002 0.046,-10e-4 0.093,-0.003 0.138,-0.004 0.023,-0.001 0.042,0.016 0.052,0.039 0.01,0.022 0.01,0.05 -0.004,0.068 -0.215,0.28 -0.434,0.556 -0.656,0.83 -0.223,0.274 -0.449,0.545 -0.678,0.814 -0.019,0.022 -0.044,0.034 -0.071,0.036 -0.026,0.002 -0.053,-0.006 -0.075,-0.024 M 3.236,-3.382 C 3.511,-3.475 3.758,-3.591 3.978,-3.733 4.196,-3.875 6.167,-4.2 6.109,-4.003 6.051,-3.806 5.992,-3.609 5.93,-3.412 5.924,-3.395 5.914,-3.38 5.9,-3.37 5.886,-3.359 5.869,-3.354 5.851,-3.354 H 3.24 c -0.009,0 -0.014,-0.005 -0.015,-0.012 0,-0.006 0.003,-0.013 0.011,-0.016 M 5.101,-5.398 C 5.227,-6.203 5.156,-7.054 4.998,-7.898 4.841,-8.742 4.597,-9.577 4.376,-10.349 4.37,-10.373 4.369,-10.396 4.372,-10.42 c 0.004,-0.023 0.013,-0.046 0.025,-0.066 0.132,-0.21 0.221,-0.408 0.267,-0.593 0.046,-0.185 0.048,-0.357 0.004,-0.517 -0.057,-0.168 -0.153,-0.303 -0.288,-0.406 -0.135,-0.103 -0.309,-0.174 -0.521,-0.213 -0.005,-10e-4 -0.01,-0.006 -0.014,-0.012 -0.004,-0.005 -0.007,-0.011 -0.005,-0.015 0.016,-0.03 0.031,-0.063 0.044,-0.095 0.013,-0.034 0.026,-0.068 0.037,-0.103 l 0.484,-2.054 0.485,-2.052 c 0.004,-0.019 0.017,-0.033 0.032,-0.04 0.016,-0.007 0.035,-0.007 0.052,0.002 l 1.381,0.744 1.382,0.744 c 0.005,0.002 0.01,0.004 0.015,0.007 0.004,0.002 0.009,0.004 0.014,0.006 0.007,0.003 0.019,0.019 0.027,0.036 0.01,0.017 0.017,0.035 0.017,0.046 v 0.013 c -0.03,1.51 -0.14,3 -0.326,4.465 -0.186,1.464 -0.449,2.904 -0.786,4.318 -0.007,0.028 -0.017,0.055 -0.031,0.081 -0.014,0.025 -0.03,0.048 -0.05,0.069 C 6.41,-5.841 6.188,-5.672 5.954,-5.548 5.718,-5.424 5.469,-5.345 5.207,-5.312 5.187,-5.309 5.159,-5.323 5.137,-5.341 5.115,-5.359 5.099,-5.382 5.101,-5.398 m -41.716,-70.364 c 0.368,-0.367 0.807,-0.664 1.296,-0.868 0.488,-0.205 1.026,-0.319 1.59,-0.319 0.563,0 1.101,0.114 1.589,0.319 0.489,0.204 0.928,0.501 1.296,0.868 0.37,0.37 0.669,0.81 0.875,1.297 0.206,0.487 0.32,1.023 0.32,1.586 0,0.563 -0.114,1.098 -0.32,1.585 -0.206,0.487 -0.505,0.926 -0.875,1.296 -0.368,0.368 -0.807,0.665 -1.296,0.87 -0.488,0.205 -1.026,0.318 -1.589,0.318 -0.564,0 -1.102,-0.113 -1.59,-0.318 -0.489,-0.205 -0.928,-0.502 -1.296,-0.87 -0.37,-0.37 -0.669,-0.809 -0.875,-1.296 -0.206,-0.487 -0.32,-1.022 -0.32,-1.585 0,-0.563 0.114,-1.099 0.32,-1.586 0.206,-0.487 0.505,-0.927 0.875,-1.297 m -38.581,59.929 0.56,-0.158 0.56,-0.157 c 0,0 0.006,0.001 0.01,0.004 0.003,0.003 0.004,0.007 -0.005,0.014 -0.051,0.035 -0.086,0.076 -0.108,0.123 -0.022,0.048 -0.03,0.102 -0.025,0.164 0.037,0.386 0.123,0.774 0.261,1.163 0.137,0.389 0.325,0.78 0.565,1.172 0.005,0.01 0.008,0.021 0.007,0.032 -0.001,0.011 -0.004,0.022 -0.012,0.031 -0.355,0.425 -0.658,0.878 -0.91,1.356 -0.253,0.479 -0.455,0.982 -0.608,1.508 -0.004,0.013 -0.015,0.019 -0.025,0.018 -0.01,0 -0.019,-0.007 -0.021,-0.02 -0.098,-0.824 -0.175,-2.009 -0.229,-3.042 -0.053,-1.033 -0.085,-1.915 -0.092,-2.135 -0.001,-0.016 0.018,-0.035 0.036,-0.049 0.018,-0.014 0.036,-0.024 0.036,-0.024"
         style="fill:none;stroke:#ff0000;stroke-width:0.38px"
         id="path190" />
    </g>
  </g>
</svg>
