<?xml version="1.0" encoding="UTF-8" standalone="no"?>
<!-- Created with Inkscape (http://www.inkscape.org/) -->

<svg
   width="66.597473mm"
   height="80.041145mm"
   viewBox="0 0 66.597473 80.041146"
   version="1.1"
   id="svg291"
   xmlns="http://www.w3.org/2000/svg"
   xmlns:svg="http://www.w3.org/2000/svg">
  <defs
     id="defs288" />
  <g
     id="layer1"
     transform="translate(-258.81273,2.5415405)">
    <g
       transform="matrix(0.70555643,0,0,0.70555643,315.56839,55.429798)"
       id="g180"
       style="clip-rule:evenodd;fill-rule:evenodd;stroke-linejoin:round;stroke-miterlimit:2">
      <path
         d="m 0,-50.884 c -3.307,-3.385 -7.021,-6.203 -11.029,-8.406 -4.009,-2.203 -8.313,-3.791 -12.799,-4.718 -0.09,-0.018 -0.167,-0.066 -0.222,-0.133 -0.054,-0.067 -0.087,-0.153 -0.087,-0.244 v -3.202 c 0,-0.415 -0.184,-0.8 -0.498,-1.119 -0.314,-0.319 -0.759,-0.572 -1.28,-0.723 -0.073,-0.021 -0.126,-0.074 -0.151,-0.137 -0.027,-0.063 -0.024,-0.138 0.013,-0.205 0.329,-0.591 0.588,-1.226 0.764,-1.896 0.176,-0.669 0.268,-1.372 0.268,-2.096 0,-1.132 -0.229,-2.212 -0.645,-3.195 -0.416,-0.983 -1.019,-1.868 -1.764,-2.609 -0.742,-0.741 -1.628,-1.343 -2.613,-1.759 -0.985,-0.417 -2.07,-0.648 -3.209,-0.648 -1.133,0 -2.214,0.231 -3.198,0.648 -0.984,0.416 -1.87,1.018 -2.613,1.759 -0.745,0.741 -1.348,1.626 -1.766,2.609 -0.417,0.983 -0.649,2.063 -0.649,3.195 0,0.751 0.102,1.478 0.291,2.169 0.19,0.69 0.468,1.345 0.821,1.95 0.02,0.036 0.021,0.075 0.007,0.109 -0.015,0.033 -0.044,0.06 -0.084,0.07 -0.556,0.139 -1.035,0.393 -1.373,0.719 -0.339,0.326 -0.538,0.726 -0.538,1.159 v 3.288 c 0,0.067 -0.024,0.129 -0.064,0.177 -0.04,0.049 -0.096,0.084 -0.161,0.097 -4.502,0.921 -8.822,2.508 -12.847,4.714 -4.023,2.206 -7.752,5.031 -11.072,8.427 -4.434,4.534 -7.872,9.816 -10.202,15.566 -2.33,5.751 -3.551,11.971 -3.551,18.381 0,6.409 1.221,12.629 3.551,18.38 2.33,5.752 5.768,11.035 10.202,15.572 4.437,4.538 9.609,8.056 15.242,10.44 5.632,2.385 11.725,3.635 18.004,3.635 6.285,0 12.381,-1.25 18.014,-3.635 C -9.605,25.071 -4.435,21.553 0,17.015 4.437,12.478 7.877,7.195 10.207,1.443 c 2.331,-5.751 3.552,-11.971 3.552,-18.38 0,-6.413 -1.221,-12.633 -3.552,-18.383 C 7.877,-41.07 4.437,-46.35 0,-50.884 m -52.516,2.719 -0.71,-0.635 -0.711,-0.634 c -0.009,-0.009 -0.011,-0.021 -0.008,-0.032 0.004,-0.01 0.012,-0.019 0.026,-0.021 l 0.957,-0.098 0.957,-0.099 c 0.268,-0.027 0.517,-0.124 0.728,-0.277 0.21,-0.152 0.381,-0.359 0.492,-0.605 l 0.353,-0.789 0.353,-0.788 c 0.021,-0.048 0.066,-0.072 0.111,-0.072 0.045,0 0.09,0.024 0.112,0.072 l 0.352,0.788 0.354,0.789 c 0.111,0.246 0.282,0.453 0.492,0.605 0.211,0.153 0.46,0.25 0.727,0.277 l 0.86,0.089 0.859,0.088 c 0.051,0.005 0.086,0.04 0.1,0.081 0.012,0.041 0.004,0.089 -0.034,0.123 l -1.274,1.138 c -0.201,0.18 -0.348,0.406 -0.429,0.655 -0.081,0.248 -0.097,0.518 -0.04,0.785 l 0.191,0.889 0.189,0.889 c 0.007,0.031 -0.007,0.059 -0.028,0.075 -0.022,0.016 -0.052,0.02 -0.079,0.004 l -0.804,-0.46 -0.803,-0.46 c -0.231,-0.133 -0.49,-0.199 -0.748,-0.199 -0.258,0 -0.516,0.066 -0.748,0.199 l -0.83,0.474 -0.829,0.474 c -0.016,0.009 -0.034,0.007 -0.047,-0.002 -0.013,-0.01 -0.02,-0.026 -0.016,-0.044 l 0.197,-0.919 0.197,-0.92 c 0.058,-0.267 0.041,-0.537 -0.04,-0.785 -0.081,-0.249 -0.227,-0.475 -0.429,-0.655 m 8.701,6.044 -0.45,-2.087 -0.449,-2.086 c -0.014,-0.065 -0.01,-0.13 0.011,-0.191 0.019,-0.06 0.055,-0.116 0.104,-0.16 l 1.603,-1.426 1.602,-1.427 c 0.223,-0.198 0.377,-0.453 0.454,-0.729 0.075,-0.276 0.072,-0.573 -0.021,-0.855 -0.029,-0.094 -0.067,-0.183 -0.114,-0.266 -0.046,-0.084 -0.101,-0.163 -0.162,-0.236 -0.012,-0.013 -0.011,-0.03 -0.003,-0.043 0.008,-0.012 0.023,-0.019 0.04,-0.013 l 2.62,0.954 c 0.047,0.017 0.088,0.045 0.12,0.08 0.032,0.036 0.056,0.079 0.068,0.127 l 1.252,4.8 c 0.022,0.083 0.092,0.125 0.162,0.125 0.071,0 0.141,-0.042 0.163,-0.126 l 0.615,-2.37 0.616,-2.37 c 0.017,-0.066 0.051,-0.125 0.097,-0.172 0.045,-0.047 0.102,-0.083 0.168,-0.102 l 2.054,-0.608 2.055,-0.609 c 0.023,-0.007 0.045,-0.004 0.064,0.005 0.02,0.009 0.036,0.025 0.044,0.047 0.178,0.448 0.429,0.943 0.746,1.384 0.316,0.441 0.699,0.827 1.138,1.06 0.03,0.015 0.053,0.039 0.068,0.067 0.015,0.028 0.021,0.06 0.016,0.093 l -0.698,4.975 -0.698,4.974 -6.416,1.68 c -0.085,0.023 -0.126,0.095 -0.124,0.165 0.002,0.071 0.047,0.14 0.132,0.158 l 6.648,1.37 0.532,2.595 0.531,2.596 c -0.942,0.289 -1.866,0.629 -2.703,1.042 -0.836,0.411 -1.586,0.894 -2.179,1.466 -0.021,0.02 -0.047,0.023 -0.07,0.014 -0.021,-0.009 -0.039,-0.03 -0.04,-0.058 -0.008,-0.256 -0.014,-0.498 -0.095,-0.695 -0.082,-0.198 -0.238,-0.351 -0.542,-0.431 -0.261,-0.068 -0.444,-0.04 -0.607,0.063 -0.164,0.103 -0.309,0.28 -0.499,0.508 -0.137,0.181 -0.275,0.364 -0.436,0.515 -0.162,0.151 -0.344,0.27 -0.572,0.321 -0.033,0.008 -0.066,-0.001 -0.091,-0.02 -0.023,-0.02 -0.039,-0.05 -0.038,-0.084 0.014,-0.305 0.03,-0.592 -0.047,-0.828 -0.076,-0.236 -0.243,-0.421 -0.594,-0.522 -0.235,-0.066 -0.611,0.109 -1.068,0.297 -0.457,0.187 -0.997,0.387 -1.558,0.369 -0.174,-0.008 -0.352,-0.028 -0.531,-0.058 -0.18,-0.031 -0.362,-0.074 -0.543,-0.128 -0.021,-0.006 -0.032,-0.023 -0.034,-0.04 -0.001,-0.018 0.007,-0.036 0.026,-0.044 0.362,-0.163 1.052,-0.485 1.56,-0.879 0.508,-0.395 0.834,-0.862 0.468,-1.314 -0.025,-0.032 -0.039,-0.07 -0.04,-0.109 -10e-4,-0.039 0.011,-0.078 0.035,-0.11 0.357,-0.469 0.639,-1.316 0.699,-2.093 0.061,-0.776 -0.101,-1.481 -0.63,-1.665 -0.712,-0.231 -1.561,0.136 -2.508,0.23 -0.948,0.094 -1.993,-0.086 -3.099,-1.412 -0.478,-0.575 -0.936,-1.362 -1.337,-2.191 -0.4,-0.83 -0.743,-1.702 -0.99,-2.447 -0.006,-0.018 0.014,-0.048 0.044,-0.069 0.03,-0.02 0.071,-0.031 0.109,-0.007 0.275,0.167 0.601,0.373 0.926,0.537 0.325,0.165 0.649,0.287 0.924,0.287 0.477,0 0.896,-0.22 1.171,-0.559 0.274,-0.338 0.403,-0.794 0.301,-1.265 m 40.498,3.385 c -1.045,0.804 -1.601,1.805 -1.795,2.812 -0.194,1.008 -0.026,2.022 0.377,2.853 0.483,0.997 1.342,1.772 2.32,2.18 0.978,0.407 2.072,0.446 3.027,-0.031 0.935,-0.468 1.522,-1.329 1.68,-2.212 0.157,-0.882 -0.114,-1.785 -0.898,-2.337 -0.259,-0.171 -0.768,-0.366 -1.215,-0.395 -0.447,-0.03 -0.831,0.107 -0.84,0.599 -0.013,0.417 0.15,0.433 0.358,0.45 0.209,0.016 0.465,0.033 0.639,0.45 0.346,0.835 -0.174,1.325 -0.854,1.396 -0.679,0.071 -1.519,-0.277 -1.814,-1.12 -0.427,-1.242 0.538,-2.405 1.956,-2.589 1.418,-0.183 3.29,0.611 4.678,3.285 0.645,1.246 1.144,2.667 1.504,4.029 0.36,1.361 0.581,2.664 0.671,3.672 -0.956,-1.222 -2.284,-1.987 -3.728,-2.313 -1.444,-0.327 -3.005,-0.214 -4.426,0.32 -0.645,0.239 -1.241,0.552 -1.776,0.927 -0.535,0.376 -1.009,0.814 -1.41,1.306 -0.02,0.025 -0.049,0.031 -0.074,0.025 -0.026,-0.007 -0.047,-0.027 -0.053,-0.058 -0.051,-0.257 -0.131,-0.497 -0.241,-0.711 -0.111,-0.214 -0.251,-0.403 -0.423,-0.559 -0.274,-0.246 -0.692,-0.301 -1.177,-0.262 -0.484,0.039 -1.037,0.173 -1.581,0.304 -0.053,0.013 -0.108,0.026 -0.163,0.039 -0.056,0.014 -0.113,0.028 -0.171,0.042 -0.05,0.012 -0.095,-0.008 -0.122,-0.042 -0.028,-0.034 -0.036,-0.083 -0.015,-0.13 0.287,-0.62 0.471,-1.286 0.61,-1.966 0.138,-0.678 0.231,-1.369 0.336,-2.036 0.231,-1.416 0.052,-2.693 -0.351,-3.886 -0.404,-1.192 -1.032,-2.3 -1.701,-3.377 -0.008,-0.013 -0.005,-0.026 0.003,-0.036 0.007,-0.008 0.021,-0.013 0.036,-0.007 0.605,0.26 1.236,0.342 1.854,0.247 0.617,-0.097 1.224,-0.371 1.781,-0.821 0.603,-0.489 1.078,-1.186 1.264,-1.937 0.187,-0.752 0.084,-1.559 -0.466,-2.271 -0.198,-0.255 -0.439,-0.46 -0.712,-0.61 -0.273,-0.15 -0.576,-0.245 -0.898,-0.278 -0.306,-0.033 -0.85,0.032 -1.262,0.215 -0.413,0.183 -0.693,0.484 -0.474,0.926 0.186,0.378 0.451,0.343 0.759,0.285 0.309,-0.057 0.662,-0.138 1.026,0.147 0.093,0.069 0.162,0.15 0.208,0.242 0.047,0.092 0.071,0.196 0.074,0.31 0,0.195 -0.06,0.411 -0.165,0.615 -0.104,0.204 -0.253,0.396 -0.43,0.543 -0.258,0.213 -0.555,0.311 -0.855,0.294 -0.299,-0.016 -0.599,-0.147 -0.863,-0.39 -0.43,-0.402 -0.583,-0.894 -0.555,-1.379 0.029,-0.485 0.239,-0.962 0.536,-1.334 0.484,-0.6 1.277,-1.067 2.329,-1.123 1.051,-0.056 2.362,0.298 3.878,1.34 0.637,0.44 1.261,0.952 1.854,1.498 0.593,0.546 1.156,1.126 1.671,1.702 0.039,0.044 0.04,0.1 0.017,0.144 -0.023,0.044 -0.071,0.074 -0.129,0.067 -0.681,-0.084 -1.35,-0.064 -1.991,0.086 -0.641,0.149 -1.253,0.428 -1.818,0.86 M -61.675,7.683 c 0.011,-0.012 0.021,-0.043 0.027,-0.071 0.006,-0.028 0.01,-0.053 0.01,-0.053 l 0.263,-1.477 0.263,-1.476 c 0.009,-0.055 0.053,-0.085 0.098,-0.087 0.045,-0.002 0.091,0.024 0.106,0.078 l 0.401,1.51 0.402,1.509 c 0.005,0.023 0.017,0.043 0.033,0.06 0.014,0.017 0.034,0.03 0.056,0.038 l 1.136,0.412 1.137,0.412 c 0.046,0.017 0.068,0.058 0.068,0.099 0,0.041 -0.022,0.081 -0.068,0.098 l -1.13,0.408 -1.131,0.409 c 0,0 -0.016,0.006 -0.034,0.014 -0.018,0.008 -0.038,0.018 -0.045,0.026 -0.007,0.007 -0.013,0.025 -0.017,0.041 -0.004,0.015 -0.006,0.029 -0.006,0.029 l -0.333,1.287 -0.333,1.288 c -0.014,0.052 -0.057,0.078 -0.101,0.078 -0.044,0 -0.088,-0.026 -0.102,-0.078 l -0.331,-1.28 -0.331,-1.279 c -0.007,-0.029 -0.021,-0.056 -0.041,-0.077 -0.019,-0.022 -0.045,-0.039 -0.073,-0.049 l -1.126,-0.409 -1.127,-0.408 c -0.046,-0.017 -0.068,-0.057 -0.068,-0.098 0,-0.041 0.023,-0.082 0.069,-0.099 l 1.096,-0.397 1.095,-0.397 c 0,0 0.029,-0.007 0.059,-0.019 0.031,-0.011 0.065,-0.026 0.078,-0.042 m 2.914,-8.694 -0.334,-2.647 -0.333,-2.648 c -0.003,-0.022 -0.012,-0.042 -0.027,-0.057 -0.015,-0.016 -0.033,-0.027 -0.055,-0.031 l -2.088,-0.399 -2.087,-0.399 c -0.075,-0.014 -0.113,-0.075 -0.113,-0.137 0,-0.061 0.038,-0.122 0.113,-0.137 l 4.16,-0.798 c 0.027,-0.006 0.052,-0.02 0.071,-0.04 0.018,-0.02 0.03,-0.046 0.034,-0.074 l 0.289,-2.469 0.29,-2.469 c 0.008,-0.067 0.06,-0.102 0.113,-0.102 0.053,-0.001 0.107,0.032 0.117,0.098 l 0.378,2.505 0.377,2.505 c 0.002,0.01 0.006,0.019 0.012,0.026 0.007,0.007 0.016,0.011 0.026,0.013 l 4.12,0.762 c 0.067,0.013 0.101,0.067 0.102,0.121 0,0.055 -0.032,0.109 -0.098,0.124 l -2.022,0.427 -2.021,0.427 c -0.026,0.005 -0.047,0.018 -0.065,0.036 -0.016,0.018 -0.028,0.041 -0.032,0.067 l -0.814,5.298 c -0.005,0.032 -0.032,0.048 -0.057,0.048 -0.026,0 -0.052,-0.017 -0.056,-0.05 m 58.22,-23.255 c -0.547,0.18 -1.041,0.447 -1.48,0.799 -0.44,0.351 -0.825,0.786 -1.152,1.302 -0.315,0.504 -0.547,1.02 -0.698,1.568 -0.15,0.547 -0.221,1.127 -0.215,1.757 0.008,0.863 0.226,1.687 0.565,2.465 0.341,0.778 0.805,1.511 1.308,2.191 0.022,0.029 0.018,0.062 -10e-4,0.084 -0.017,0.022 -0.049,0.033 -0.082,0.018 -1.308,-0.589 -2.763,-0.89 -4.222,-0.887 -1.459,0.003 -2.921,0.311 -4.244,0.939 -0.026,0.012 -0.051,0.004 -0.066,-0.013 -0.016,-0.017 -0.02,-0.043 -0.003,-0.067 0.23,-0.328 0.473,-0.697 0.724,-1.091 0.251,-0.393 0.51,-0.811 0.775,-1.238 0.27,-0.435 0.547,-0.88 0.821,-1.309 0.275,-0.429 0.546,-0.843 0.808,-1.218 0.241,-0.344 0.469,-0.689 0.682,-1.027 0.215,-0.339 0.417,-0.671 0.604,-0.989 0.018,-0.03 0.05,-0.04 0.077,-0.033 0.028,0.007 0.053,0.031 0.055,0.067 0.023,0.326 0.071,0.67 0.153,1.029 0.081,0.359 0.196,0.734 0.352,1.121 0.053,0.135 0.152,0.242 0.274,0.307 0.122,0.065 0.266,0.089 0.41,0.059 0.142,-0.03 0.263,-0.109 0.349,-0.218 0.086,-0.109 0.135,-0.247 0.132,-0.394 -0.036,-1.083 -0.034,-2.011 0.178,-2.871 0.214,-0.861 0.639,-1.655 1.451,-2.471 0.606,-0.6 1.327,-1.076 2.083,-1.393 0.756,-0.317 1.546,-0.477 2.291,-0.443 1.454,0.063 2.576,0.633 3.336,1.432 0.76,0.799 1.158,1.827 1.164,2.805 0,0.239 -0.023,0.482 -0.071,0.723 -0.048,0.242 -0.122,0.482 -0.223,0.715 -0.014,0.031 -0.044,0.043 -0.071,0.038 -0.026,-0.004 -0.049,-0.025 -0.051,-0.059 -0.058,-1.41 -0.884,-2.556 -2.034,-3.238 -1.15,-0.682 -2.625,-0.902 -3.979,-0.46 m -19.78,35.418 c -0.036,0.032 -0.073,0.067 -0.109,0.102 -0.036,0.034 -0.072,0.069 -0.108,0.101 -0.543,-0.174 -0.863,-0.26 -1.16,-0.401 -0.297,-0.14 -0.571,-0.334 -1.021,-0.721 1.494,-0.181 2.773,-0.84 3.733,-1.819 0.96,-0.978 1.601,-2.277 1.825,-3.736 0.003,-0.02 0.015,-0.036 0.031,-0.044 0.015,-0.008 0.034,-0.009 0.053,0 0.244,0.118 0.61,0.237 0.931,0.248 0.323,0.01 0.598,-0.088 0.662,-0.405 0.12,-0.603 -0.002,-1.258 -0.243,-1.935 -0.24,-0.677 -0.599,-1.375 -0.954,-2.062 -0.201,-0.391 -0.405,-0.788 -0.582,-1.174 -0.176,-0.385 -0.326,-0.76 -0.417,-1.107 -0.005,-0.02 0.002,-0.039 0.015,-0.051 0.013,-0.013 0.032,-0.019 0.052,-0.014 0.089,0.024 0.182,0.044 0.296,0.062 0.112,0.018 0.244,0.032 0.409,0.045 l 0.124,0.01 0.124,0.009 c 0.064,0.004 0.124,-0.019 0.167,-0.059 0.044,-0.04 0.071,-0.098 0.071,-0.162 v -0.248 c 0,-0.734 -0.17,-1.559 -0.469,-2.369 -0.298,-0.81 -0.725,-1.604 -1.241,-2.275 -0.026,-0.034 -0.047,-0.071 -0.062,-0.111 -0.016,-0.039 -0.025,-0.081 -0.029,-0.124 l -0.106,-1.383 -0.106,-1.384 -0.064,-0.779 -0.063,-0.778 c -0.004,-0.041 -10e-4,-0.081 0.007,-0.12 0.008,-0.039 0.022,-0.077 0.039,-0.113 0.158,-0.33 0.237,-0.735 0.276,-1.204 0.04,-0.47 0.04,-1.004 0.04,-1.592 0,-0.567 -0.002,-1.195 0.035,-1.857 0.036,-0.661 0.111,-1.356 0.263,-2.057 0.013,-0.065 0.048,-0.122 0.095,-0.165 0.047,-0.043 0.108,-0.072 0.173,-0.081 0.277,-0.039 0.499,-0.094 0.697,-0.158 0.199,-0.065 0.373,-0.138 0.551,-0.213 0.124,-0.052 0.249,-0.103 0.388,-0.154 0.138,-0.05 0.29,-0.1 0.467,-0.146 0.014,-0.004 0.03,-0.006 0.047,-0.007 0.015,0 0.031,0.002 0.046,0.005 0.808,0.173 1.509,0.048 2.178,-0.242 0.67,-0.29 1.309,-0.745 1.993,-1.233 0.212,-0.15 0.434,-0.307 0.665,-0.467 0.232,-0.159 0.473,-0.32 0.728,-0.478 0.048,-0.03 0.102,-0.022 0.14,0.008 0.037,0.029 0.058,0.078 0.041,0.132 -0.379,1.177 -1.243,2.932 -2.131,4.467 -0.889,1.536 -1.801,2.852 -2.279,3.151 l -0.05,0.018 -0.052,0.018 c -0.054,0.019 -0.099,0.054 -0.129,0.099 -0.031,0.044 -0.049,0.098 -0.049,0.155 l 0.002,0.168 c 10e-4,0.051 -0.015,0.1 -0.043,0.141 -0.027,0.041 -0.067,0.073 -0.116,0.088 -0.626,0.202 -1.335,0.714 -1.931,1.322 -0.595,0.607 -1.079,1.311 -1.255,1.898 -0.383,1.264 0.07,1.5 0.745,1.332 0.674,-0.169 1.571,-0.744 2.074,-1.102 0.031,-0.021 0.065,-0.016 0.089,0.003 0.022,0.019 0.035,0.052 0.021,0.087 -0.086,0.221 -0.161,0.446 -0.225,0.674 -0.065,0.228 -0.119,0.459 -0.163,0.693 -0.386,2.091 0.1,4.493 1.386,6.396 1.285,1.902 3.37,3.305 6.18,3.398 1.39,0 2.629,-0.711 3.342,-1.718 0.712,-1.008 0.9,-2.312 0.191,-3.497 -0.228,-0.286 -0.496,-0.302 -0.714,-0.167 -0.218,0.135 -0.386,0.422 -0.416,0.743 -0.036,0.39 -0.212,0.692 -0.453,0.906 -0.241,0.213 -0.547,0.339 -0.845,0.378 -0.141,0.019 -0.455,0.033 -0.789,-0.109 -0.335,-0.143 -0.689,-0.443 -0.911,-1.055 -0.351,-1.239 0.088,-2.389 0.962,-2.967 0.873,-0.579 2.181,-0.586 3.563,0.458 1.231,0.93 1.373,2.306 0.944,3.657 -0.43,1.352 -1.429,2.678 -2.477,3.51 -1.965,1.569 -4.175,2.487 -6.677,3.749 -2.502,1.262 -5.295,2.867 -8.422,5.812 m -24.796,0.481 c 0,0 0.024,-0.004 0.052,-0.011 0.027,-0.007 0.057,-0.017 0.07,-0.03 0.009,-0.009 0.017,-0.028 0.024,-0.046 0.007,-0.018 0.012,-0.034 0.012,-0.034 l 0.405,-2.438 0.406,-2.437 c 0.006,-0.043 0.041,-0.063 0.075,-0.061 0.033,0.001 0.066,0.024 0.069,0.067 l 0.187,2.467 0.186,2.466 c 0,0.009 0.004,0.018 0.01,0.025 0.006,0.007 0.015,0.012 0.023,0.014 l 4.088,0.912 c 0.04,0.008 0.059,0.042 0.057,0.074 -10e-4,0.033 -0.023,0.064 -0.064,0.07 l -1.985,0.268 -1.986,0.268 c 0,0 -0.025,0.004 -0.053,0.011 -0.028,0.006 -0.061,0.016 -0.073,0.029 -0.007,0.007 -0.014,0.023 -0.02,0.038 -0.005,0.015 -0.009,0.027 -0.009,0.027 l -0.349,1.968 -0.35,1.967 c -0.008,0.042 -0.041,0.062 -0.074,0.061 -0.033,-0.001 -0.065,-0.023 -0.071,-0.065 l -0.474,-3.896 c -0.004,-0.034 -0.018,-0.064 -0.041,-0.088 -0.021,-0.023 -0.051,-0.04 -0.084,-0.047 l -1.834,-0.358 -1.833,-0.358 c -0.039,-0.008 -0.059,-0.04 -0.059,-0.072 0,-0.032 0.02,-0.064 0.059,-0.072 l 1.818,-0.36 z m 17.014,-28.054 c -0.209,0.429 -0.357,0.733 -0.44,0.97 -0.084,0.236 -0.103,0.404 -0.059,0.56 0.212,0.695 0.666,1.313 1.202,1.881 0.534,0.567 1.15,1.082 1.684,1.569 0.021,0.018 0.023,0.075 0.013,0.134 -0.009,0.059 -0.029,0.121 -0.056,0.149 -0.512,0.555 -0.887,1.017 -1.337,1.317 -0.449,0.301 -0.971,0.44 -1.778,0.351 -0.071,-0.009 -0.129,-0.05 -0.162,-0.106 -0.033,-0.057 -0.042,-0.127 -0.015,-0.194 0.177,-0.428 0.243,-0.783 0.2,-1.071 -0.042,-0.288 -0.193,-0.507 -0.454,-0.663 -0.334,-0.192 -0.861,-0.111 -1.429,0.04 -0.568,0.153 -1.176,0.376 -1.669,0.472 -0.057,0.011 -0.111,-0.007 -0.149,-0.042 -0.039,-0.035 -0.061,-0.087 -0.056,-0.144 0.097,-1.035 0.291,-1.676 0.655,-2.214 0.365,-0.538 0.9,-0.972 1.682,-1.593 0.288,-0.225 0.61,-0.479 0.969,-0.771 0.361,-0.292 0.759,-0.621 1.2,-0.998 0.046,-0.039 0.092,-0.048 0.121,-0.034 0.028,0.013 0.039,0.049 0.015,0.1 -0.023,0.048 -0.047,0.096 -0.069,0.144 -0.023,0.048 -0.045,0.096 -0.068,0.143 m 5.856,1.085 c 0.119,0.582 0.154,1.093 0.192,1.592 0.037,0.499 0.076,0.987 0.204,1.525 0.004,0.017 -0.005,0.03 -0.017,0.035 -0.013,0.006 -0.028,0.004 -0.038,-0.011 -0.424,-0.663 -0.737,-1.273 -0.854,-1.838 -0.118,-0.565 -0.04,-1.086 0.318,-1.573 0.018,-0.025 0.055,-0.022 0.088,-0.014 0.033,0.009 0.06,0.024 0.06,0.024 l 0.023,0.13 z m 2.454,15.894 c 0.053,-0.049 0.11,-0.111 0.176,-0.185 0.064,-0.073 0.138,-0.16 0.22,-0.26 0.007,-0.01 0.02,-0.014 0.032,-0.012 0.011,0.003 0.02,0.011 0.023,0.024 0.045,0.244 0.096,0.505 0.157,0.775 0.061,0.269 0.131,0.548 0.214,0.827 0.008,0.027 0.008,0.054 0.003,0.08 -0.006,0.026 -0.018,0.051 -0.036,0.072 -0.023,0.028 -0.048,0.057 -0.073,0.088 -0.026,0.031 -0.051,0.064 -0.079,0.098 -0.654,0.755 -1.276,1.216 -1.974,1.441 -0.698,0.225 -1.474,0.214 -2.436,0.027 -0.042,-0.008 -0.076,-0.034 -0.095,-0.068 -0.019,-0.035 -0.024,-0.077 -0.008,-0.117 0.143,-0.358 0.277,-0.905 0.29,-1.418 0.013,-0.512 -0.097,-0.99 -0.439,-1.21 -0.178,-0.114 -0.893,0.044 -1.69,0.228 -0.797,0.184 -1.676,0.393 -2.179,0.384 -0.495,-0.011 -1.026,-0.05 -1.583,-0.115 -0.555,-0.065 -1.136,-0.156 -1.729,-0.27 -0.032,-0.007 -0.057,-0.028 -0.069,-0.054 -0.013,-0.027 -0.013,-0.059 0.004,-0.087 0.094,-0.159 0.136,-0.341 0.131,-0.523 -0.005,-0.183 -0.059,-0.365 -0.157,-0.524 -0.013,-0.022 -0.013,-0.046 -0.003,-0.065 0.01,-0.019 0.029,-0.033 0.054,-0.034 0.869,-0.033 1.633,-0.242 2.36,-0.55 0.729,-0.307 1.422,-0.713 2.151,-1.139 0.198,-0.111 0.329,-0.295 0.376,-0.499 0.046,-0.203 0.008,-0.425 -0.13,-0.611 -0.129,-0.176 -0.379,-0.27 -0.672,-0.358 -0.292,-0.087 -0.626,-0.166 -0.924,-0.313 -0.054,-0.026 -0.077,-0.078 -0.074,-0.127 0.003,-0.05 0.034,-0.097 0.091,-0.114 1.264,-0.377 2.207,-1.137 2.832,-2.12 0.625,-0.983 0.932,-2.187 0.928,-3.452 0,-0.054 0.032,-0.094 0.073,-0.113 0.041,-0.019 0.091,-0.014 0.132,0.022 0.375,0.348 0.718,0.654 1.03,0.926 0.311,0.272 0.591,0.509 0.838,0.721 0.436,0.375 0.774,0.665 1.021,0.909 0.247,0.244 0.403,0.442 0.475,0.634 0.054,0.141 0.057,0.369 0.034,0.653 -0.023,0.283 -0.072,0.622 -0.124,0.986 -0.084,0.579 -0.18,1.251 -0.228,2.008 -0.046,0.758 -0.046,1.601 0.066,2.523 0.03,0.258 0.067,0.693 0.203,0.96 0.135,0.267 0.368,0.366 0.788,-0.048 m -17.531,4.896 -1.572,-0.572 -1.573,-0.574 c -0.072,-0.026 -0.108,-0.09 -0.108,-0.154 0,-0.065 0.036,-0.129 0.108,-0.155 l 1.604,-0.582 1.603,-0.582 c 0.018,-0.006 0.033,-0.017 0.045,-0.03 0.013,-0.013 0.022,-0.03 0.027,-0.047 l 0.474,-1.823 0.475,-1.823 c 0.021,-0.082 0.09,-0.123 0.159,-0.123 0.069,0 0.139,0.041 0.159,0.123 l 0.476,1.823 0.474,1.824 c 0.004,0.017 0.013,0.033 0.026,0.046 0.011,0.013 0.026,0.023 0.044,0.03 l 1.606,0.582 1.607,0.582 c 0.073,0.026 0.109,0.09 0.109,0.155 0,0.064 -0.036,0.128 -0.108,0.154 l -1.618,0.589 -1.618,0.588 c -0.01,0.004 -0.019,0.01 -0.027,0.019 -0.007,0.008 -0.013,0.018 -0.016,0.029 l -0.477,1.833 -0.478,1.835 c -0.021,0.082 -0.09,0.123 -0.159,0.123 -0.069,0 -0.138,-0.041 -0.159,-0.123 l -0.47,-1.8 -0.47,-1.799 -0.071,-0.074 z m 2.149,-26.665 c -0.542,0.305 -1.081,0.477 -1.63,0.53 -0.549,0.052 -1.106,-0.016 -1.687,-0.195 -0.02,-0.006 -0.031,-0.022 -0.034,-0.039 -0.003,-0.017 0.002,-0.036 0.016,-0.049 0.098,-0.088 0.175,-0.191 0.23,-0.303 0.054,-0.113 0.087,-0.236 0.093,-0.366 10e-4,-0.015 0.006,-0.029 0.015,-0.04 0.009,-0.011 0.022,-0.019 0.036,-0.022 0.689,-0.144 1.514,-0.498 2.056,-0.955 0.543,-0.458 0.802,-1.019 0.356,-1.577 -0.014,-0.019 -0.021,-0.042 -0.018,-0.063 0.002,-0.022 0.013,-0.043 0.032,-0.057 0.048,-0.034 0.095,-0.071 0.143,-0.108 0.046,-0.038 0.093,-0.078 0.14,-0.119 0.023,-0.02 0.052,-0.024 0.076,-0.016 0.025,0.009 0.045,0.031 0.048,0.061 0.061,0.495 0.162,1.002 0.286,1.504 0.123,0.501 0.269,0.998 0.417,1.473 0.009,0.028 0.005,0.058 -0.009,0.081 -0.015,0.024 -0.039,0.041 -0.07,0.045 -0.084,0.011 -0.163,0.039 -0.243,0.076 -0.08,0.037 -0.162,0.085 -0.253,0.139 m -6.716,10.435 -1.836,-0.452 -1.835,-0.452 c -0.069,-0.016 -0.102,-0.074 -0.101,-0.131 10e-4,-0.057 0.036,-0.114 0.104,-0.129 l 1.862,-0.401 1.86,-0.401 c 0.025,-0.006 0.047,-0.018 0.064,-0.036 0.016,-0.018 0.027,-0.041 0.03,-0.066 l 0.421,-3.093 0.42,-3.093 c 0.005,-0.04 0.036,-0.059 0.067,-0.059 0.031,10e-4 0.062,0.021 0.066,0.06 l 0.34,3.087 0.341,3.086 c 0,0 -0.002,0.019 -10e-4,0.041 10e-4,0.022 0.003,0.046 0.011,0.055 0.009,0.009 0.033,0.015 0.056,0.019 0.022,0.003 0.043,0.004 0.043,0.004 l 3.638,0.854 c 0.07,0.016 0.104,0.074 0.104,0.131 0,0.057 -0.035,0.115 -0.105,0.131 l -1.797,0.42 -1.798,0.42 c 0,0 -0.022,0.005 -0.047,0.015 -0.025,0.008 -0.053,0.021 -0.065,0.033 -0.011,0.01 -0.02,0.033 -0.028,0.053 -0.007,0.02 -0.013,0.037 -0.013,0.037 l -0.378,3.223 -0.378,3.222 c -0.006,0.043 -0.039,0.065 -0.073,0.065 -0.034,0 -0.067,-0.022 -0.073,-0.065 l -0.752,-6.412 c -0.005,-0.04 -0.022,-0.076 -0.048,-0.106 -0.025,-0.029 -0.06,-0.05 -0.099,-0.06 m 10.754,28.646 c -0.099,-0.217 -0.375,-0.43 -0.68,-0.646 -0.306,-0.216 -0.643,-0.436 -0.867,-0.664 -0.011,-0.012 -0.01,-0.027 -0.003,-0.038 0.007,-0.011 0.022,-0.018 0.038,-0.012 0.575,0.217 1.163,0.382 1.76,0.494 0.599,0.111 1.206,0.169 1.82,0.174 0.019,0 0.031,0.013 0.034,0.027 0.004,0.015 -0.002,0.032 -0.02,0.039 -0.31,0.133 -0.626,0.259 -0.946,0.375 -0.319,0.118 -0.644,0.226 -0.973,0.325 -0.031,0.009 -0.065,0.005 -0.094,-0.008 -0.03,-0.013 -0.055,-0.036 -0.069,-0.066 m 5.163,-2.368 c -0.055,-0.119 -0.129,-0.225 -0.214,-0.323 -0.085,-0.098 -0.182,-0.187 -0.282,-0.27 -0.028,-0.023 -0.033,-0.057 -0.022,-0.085 0.011,-0.027 0.038,-0.048 0.074,-0.046 0.29,0.019 0.581,0.02 0.874,0.003 0.292,-0.018 0.587,-0.052 0.884,-0.105 0.026,-0.004 0.047,0.01 0.056,0.029 0.008,0.019 0.004,0.043 -0.017,0.058 -0.192,0.132 -0.391,0.264 -0.593,0.396 -0.202,0.133 -0.409,0.267 -0.621,0.4 -0.016,0.01 -0.046,0.005 -0.074,-0.007 -0.028,-0.013 -0.056,-0.032 -0.065,-0.05 m -22.302,-52.619 0.467,1.754 0.469,1.754 c 0.009,0.034 0.026,0.063 0.048,0.088 0.022,0.025 0.051,0.044 0.083,0.056 l 2.684,0.974 c 0.026,0.009 0.04,0.033 0.04,0.057 0,0.024 -0.014,0.047 -0.04,0.057 l -1.359,0.493 -1.357,0.493 c -0.023,0.007 -0.041,0.021 -0.056,0.038 -0.014,0.017 -0.024,0.038 -0.028,0.061 l -0.501,2.886 -0.502,2.885 c -0.005,0.032 -0.03,0.047 -0.056,0.046 -0.025,-10e-4 -0.05,-0.017 -0.054,-0.049 l -0.326,-2.871 -0.327,-2.87 c -0.004,-0.031 -0.015,-0.059 -0.034,-0.083 -0.019,-0.024 -0.044,-0.042 -0.073,-0.053 l -1.291,-0.469 -1.292,-0.47 c -0.044,-0.016 -0.067,-0.055 -0.067,-0.094 0,-0.04 0.023,-0.079 0.067,-0.095 l 1.284,-0.469 1.285,-0.469 c 0.035,-0.012 0.066,-0.035 0.09,-0.063 0.024,-0.028 0.04,-0.062 0.047,-0.1 l 0.622,-3.48 c 0.008,-0.047 0.046,-0.073 0.085,-0.074 0.039,-0.002 0.079,0.02 0.092,0.067 m -5.87,17.568 c -0.009,-0.01 -0.031,-0.023 -0.05,-0.034 -0.02,-0.011 -0.036,-0.02 -0.036,-0.02 l -1.509,-0.55 -1.508,-0.549 c -0.098,-0.036 -0.146,-0.122 -0.146,-0.208 0,-0.087 0.049,-0.173 0.146,-0.208 l 1.544,-0.559 1.543,-0.56 c 0,0 0.006,-0.002 0.012,-0.005 0.006,-0.003 0.013,-0.007 0.015,-0.011 0.003,-0.003 0.005,-0.009 0.006,-0.015 0.002,-0.006 0.003,-0.012 0.003,-0.012 l 0.423,-2.379 0.424,-2.38 c 0.005,-0.028 0.028,-0.043 0.051,-0.044 0.023,-0.001 0.047,0.011 0.055,0.04 l 1.264,4.702 c 0.008,0.029 0.022,0.055 0.042,0.076 0.019,0.022 0.044,0.038 0.071,0.048 l 1.542,0.56 1.541,0.559 c 0.088,0.031 0.132,0.11 0.132,0.188 0,0.078 -0.044,0.156 -0.132,0.188 l -1.57,0.572 -1.571,0.572 -0.011,0.005 c -0.006,0.003 -0.012,0.007 -0.015,0.01 -0.004,0.005 -0.008,0.015 -0.012,0.026 -0.003,0.009 -0.004,0.018 -0.004,0.018 l -0.482,1.847 -0.48,1.847 c -0.021,0.077 -0.085,0.116 -0.15,0.116 -0.065,0 -0.13,-0.039 -0.15,-0.116 l -0.918,-3.524 c 0,0 -0.008,-0.039 -0.021,-0.084 -0.012,-0.045 -0.03,-0.095 -0.049,-0.116 m 3.174,18.511 0.016,-0.007 0.015,-0.006 0.408,-2.294 0.408,-2.295 c 0.009,-0.053 0.052,-0.081 0.095,-0.083 0.043,-0.002 0.088,0.022 0.101,0.074 l 0.617,2.3 0.618,2.298 1.665,0.604 1.665,0.603 c 0.061,0.022 0.093,0.077 0.093,0.132 0,0.055 -0.032,0.11 -0.093,0.133 l -1.665,0.603 -1.665,0.602 -0.516,1.984 -0.516,1.983 c -0.011,0.047 -0.051,0.071 -0.091,0.071 -0.04,0 -0.08,-0.024 -0.093,-0.071 l -0.516,-1.983 -0.515,-1.984 -3.366,-1.22 c -0.054,-0.02 -0.082,-0.069 -0.082,-0.118 0,-0.049 0.028,-0.097 0.082,-0.117 l 1.668,-0.605 z m 47.048,4.981 c -0.063,0.375 0.03,0.798 0.249,1.119 0.22,0.322 0.566,0.541 1.007,0.508 C -2.347,5.546 -2.043,5.388 -1.916,5.2 -1.789,5.012 -1.839,4.792 -2.224,4.645 -2.269,4.627 -2.313,4.614 -2.352,4.599 -2.391,4.584 -2.425,4.567 -2.452,4.543 -2.642,4.387 -2.661,4.071 -2.544,3.797 c 0.116,-0.274 0.368,-0.505 0.723,-0.49 0.432,0.036 0.724,0.221 0.918,0.431 0.194,0.21 0.29,0.445 0.332,0.583 0.099,0.318 0.103,0.653 0.027,0.954 -0.077,0.3 -0.234,0.568 -0.46,0.751 C -1.331,6.284 -1.845,6.374 -2.54,6.297 -3.234,6.22 -4.11,5.975 -5.162,5.564 -5.364,5.486 -5.587,5.407 -5.826,5.334 -6.065,5.261 -6.319,5.193 -6.583,5.138 -6.618,5.131 -6.638,5.103 -6.64,5.074 -6.642,5.044 -6.627,5.013 -6.593,5.001 -6.136,4.836 -5.651,4.655 -5.19,4.474 -4.729,4.293 -4.29,4.111 -3.924,3.943 m 1.773,-12.454 c -1.07,-0.639 -2.32,-0.911 -3.546,-0.83 -1.227,0.08 -2.43,0.512 -3.407,1.28 -0.944,0.743 -1.558,1.776 -1.792,2.882 -0.234,1.105 -0.087,2.283 0.491,3.315 0.016,0.029 0.005,0.059 -0.016,0.076 -0.021,0.016 -0.054,0.019 -0.077,-0.006 -0.544,-0.564 -0.903,-1.222 -1.074,-1.934 -0.17,-0.712 -0.152,-1.478 0.059,-2.256 0.313,-1.146 1.003,-2.129 1.914,-2.816 0.911,-0.686 2.042,-1.076 3.236,-1.037 0.441,0.015 0.915,-0.095 1.172,-0.287 0.257,-0.192 0.299,-0.467 -0.121,-0.781 -0.601,-0.457 -1.498,-0.564 -2.363,-0.504 -0.865,0.061 -1.699,0.291 -2.174,0.509 -0.381,0.178 -0.754,0.404 -1.106,0.674 -0.352,0.27 -0.684,0.584 -0.984,0.935 -0.269,0.316 -0.508,0.652 -0.717,1.003 -0.208,0.351 -0.387,0.717 -0.533,1.092 -0.007,0.017 -0.023,0.021 -0.037,0.018 -0.014,-0.004 -0.025,-0.017 -0.022,-0.035 0.189,-1.039 0.598,-1.966 1.202,-2.748 0.604,-0.783 1.404,-1.421 2.378,-1.881 1.003,-0.477 2.091,-0.708 3.167,-0.694 1.076,0.014 2.142,0.274 3.1,0.778 0.973,0.517 1.966,1.412 2.727,2.541 0.761,1.128 1.289,2.489 1.334,3.935 0.005,0.122 0.006,0.244 0.004,0.365 C 0.663,-4.796 0.658,-4.675 0.652,-4.555 0.65,-4.527 0.643,-4.511 0.633,-4.509 0.624,-4.507 0.613,-4.519 0.607,-4.545 0.418,-5.355 0.092,-6.131 -0.368,-6.813 -0.829,-7.494 -1.424,-8.08 -2.151,-8.511 M -12.9,-53.189 c -0.115,0.172 -0.262,0.341 -0.424,0.501 -0.162,0.16 -0.338,0.312 -0.508,0.448 -0.007,0.005 -0.016,0.006 -0.022,0.003 -0.008,-0.002 -0.014,-0.009 -0.016,-0.018 -0.079,-0.379 -0.182,-0.76 -0.319,-1.109 -0.139,-0.35 -0.313,-0.668 -0.537,-0.926 -0.012,-0.015 -0.01,-0.033 0,-0.046 0.01,-0.012 0.028,-0.019 0.045,-0.009 0.302,0.156 0.602,0.316 0.899,0.482 0.297,0.166 0.592,0.335 0.885,0.51 0.012,0.007 0.019,0.038 0.018,0.072 0,0.034 -0.007,0.071 -0.021,0.092 m -7.89,5.498 c 0.039,0.053 0.061,0.109 0.07,0.18 0.008,0.072 0.003,0.159 -0.012,0.274 -0.005,0.032 -0.016,0.063 -0.032,0.092 -0.016,0.029 -0.038,0.054 -0.063,0.074 -0.744,0.593 -1.116,1.108 -1.283,1.583 -0.167,0.474 -0.13,0.907 -0.056,1.338 0.075,0.426 -0.015,0.683 -0.207,0.901 -0.192,0.219 -0.487,0.398 -0.82,0.672 -0.223,0.183 -0.683,0.511 -1.092,0.856 -0.409,0.345 -0.768,0.707 -0.789,0.956 -0.009,0.126 0.012,0.249 0.058,0.361 0.047,0.112 0.119,0.212 0.212,0.293 0.039,0.117 0.098,0.282 0.207,0.436 0.11,0.154 0.271,0.296 0.514,0.369 0.315,0.393 0.84,0.489 1.377,0.427 0.537,-0.061 1.087,-0.28 1.453,-0.518 0.129,-0.084 0.271,-0.175 0.441,-0.273 0.169,-0.097 0.368,-0.201 0.611,-0.309 0.087,0.33 0.125,0.667 0.12,1.007 -0.005,0.341 -0.051,0.686 -0.132,1.034 l -3.348,-0.753 -3.346,-0.754 -0.769,-4.794 -0.768,-4.794 c -0.006,-0.037 0.007,-0.07 0.03,-0.093 0.022,-0.023 0.057,-0.035 0.093,-0.029 0.828,0.157 2.504,0.251 4.076,0.442 1.573,0.191 3.042,0.478 3.455,1.022 m -6.026,11.661 6.398,-1.23 c -0.252,0.732 -0.628,1.459 -1.044,2.15 -0.416,0.692 -0.872,1.35 -1.287,1.943 -0.129,0.19 -0.257,0.374 -0.378,0.552 -0.121,0.178 -0.234,0.349 -0.337,0.511 -0.694,0.156 -1.39,0.3 -2.087,0.449 -0.696,0.148 -1.392,0.301 -2.083,0.475 l 0.408,-2.425 z m -20.905,58.185 c 0.116,-0.17 0.239,-0.353 0.364,-0.55 0.126,-0.197 0.254,-0.409 0.381,-0.635 0.065,-0.113 0.126,-0.224 0.184,-0.333 0.059,-0.108 0.113,-0.215 0.165,-0.321 0.017,-0.033 0.046,-0.052 0.076,-0.056 0.031,-0.004 0.065,0.006 0.088,0.033 0.116,0.135 0.238,0.271 0.366,0.408 0.128,0.138 0.262,0.278 0.402,0.419 0.174,0.186 0.576,0.612 1.003,1.042 0.426,0.432 0.879,0.867 1.154,1.073 0.022,0.017 0.028,0.043 0.021,0.066 -0.006,0.023 -0.025,0.042 -0.053,0.044 -0.732,0.05 -1.409,-0.064 -2.075,-0.259 -0.665,-0.194 -1.318,-0.468 -2,-0.736 -0.028,-0.011 -0.054,-0.049 -0.07,-0.089 -0.016,-0.041 -0.021,-0.084 -0.006,-0.106 m 5.596,-2.575 c 0.265,0.231 0.552,0.45 0.853,0.649 0.299,0.199 0.613,0.377 0.93,0.526 0.009,0.006 0.503,0.239 1.081,0.393 0.578,0.153 1.241,0.225 1.587,-0.094 0.116,-0.108 0.189,-0.253 0.229,-0.424 0.04,-0.17 0.047,-0.366 0.031,-0.575 -0.004,-0.055 0.02,-0.104 0.06,-0.134 0.039,-0.031 0.091,-0.043 0.145,-0.025 0.234,0.077 0.467,0.147 0.699,0.21 0.232,0.062 0.462,0.118 0.692,0.166 0.039,0.008 0.063,0.038 0.069,0.071 0.005,0.032 -0.008,0.068 -0.042,0.089 -0.385,0.226 -0.774,0.461 -1.167,0.686 -0.394,0.226 -0.789,0.442 -1.185,0.633 -0.523,0.247 -1.145,0.515 -1.834,0.762 -0.689,0.247 -1.444,0.472 -2.235,0.631 -0.038,0.008 -0.074,-0.007 -0.098,-0.033 -0.022,-0.026 -0.033,-0.062 -0.02,-0.1 0.105,-0.312 0.148,-0.948 0.153,-1.602 0.006,-0.654 -0.026,-1.327 -0.072,-1.712 -0.007,-0.061 0.01,-0.102 0.035,-0.123 0.026,-0.02 0.06,-0.019 0.089,0.006 m 26.092,-74.486 c -0.553,-0.012 -0.781,0.239 -0.788,0.585 -0.006,0.347 0.209,0.789 0.544,1.162 0.558,0.625 0.751,1.073 0.717,1.502 -0.033,0.428 -0.291,0.836 -0.633,1.379 -0.155,0.245 -0.318,0.505 -0.474,0.79 -0.155,0.286 -0.304,0.596 -0.426,0.942 -0.011,0.033 -0.032,0.06 -0.059,0.079 -0.027,0.02 -0.059,0.031 -0.094,0.031 -0.149,0.002 -0.306,0.01 -0.463,0.023 -0.156,0.014 -0.312,0.033 -0.459,0.056 -0.042,0.007 -0.083,-10e-4 -0.119,-0.02 -0.035,-0.019 -0.066,-0.049 -0.085,-0.087 -0.153,-0.302 -0.333,-0.555 -0.522,-0.778 -0.187,-0.223 -0.383,-0.415 -0.568,-0.598 -0.357,-0.351 -0.689,-0.678 -0.914,-1.16 -0.224,-0.481 -0.339,-1.117 -0.264,-2.087 0.024,-0.321 0.046,-0.619 0.005,-0.857 -0.041,-0.236 -0.146,-0.412 -0.378,-0.487 -0.24,-0.078 -0.442,0.019 -0.616,0.186 -0.174,0.166 -0.317,0.402 -0.441,0.6 -0.265,0.434 -0.398,0.907 -0.396,1.422 0.003,0.515 0.139,1.074 0.412,1.68 0.01,0.023 0.006,0.048 -0.008,0.066 -0.013,0.017 -0.036,0.028 -0.06,0.024 -1.147,-0.193 -1.909,-0.58 -2.395,-1.006 -0.485,-0.425 -0.693,-0.889 -0.731,-1.237 -0.03,-0.289 0.099,-0.559 0.311,-0.824 0.212,-0.264 0.508,-0.524 0.812,-0.791 0.162,-0.141 0.327,-0.285 0.483,-0.434 0.157,-0.15 0.304,-0.305 0.43,-0.467 0.201,-0.252 0.401,-0.548 0.502,-0.83 0.101,-0.281 0.103,-0.547 -0.093,-0.736 -0.208,-0.198 -0.454,-0.177 -0.695,-0.067 -0.242,0.11 -0.48,0.31 -0.669,0.469 l -0.1,0.081 c -0.034,0.026 -0.067,0.052 -0.102,0.078 -0.015,0.01 -0.036,0.006 -0.053,-0.007 -0.016,-0.013 -0.029,-0.033 -0.028,-0.054 0.013,-0.18 0.016,-0.363 0.008,-0.541 -0.009,-0.177 -0.029,-0.349 -0.061,-0.505 -0.03,-0.132 -0.065,-0.252 -0.104,-0.36 -0.04,-0.108 -0.085,-0.204 -0.137,-0.288 1.744,0.375 3.502,0.921 5.036,1.47 1.534,0.55 2.845,1.104 3.691,1.495 0.048,0.022 0.066,0.048 0.06,0.067 -0.005,0.02 -0.033,0.035 -0.076,0.034 m -52.279,37.548 c 0.156,0.372 0.362,0.722 0.613,1.036 0.251,0.313 0.547,0.591 0.883,0.819 0.078,0.051 0.154,0.098 0.229,0.141 0.075,0.044 0.149,0.084 0.222,0.12 0.015,0.007 0.022,0.022 0.021,0.036 -0.002,0.014 -0.01,0.028 -0.027,0.034 -0.286,0.1 -0.519,0.203 -0.682,0.348 -0.163,0.146 -0.256,0.334 -0.261,0.606 -0.013,0.503 0.544,0.958 1.21,1.307 0.665,0.349 1.436,0.592 1.854,0.673 0.059,0.013 0.117,0.023 0.176,0.033 0.058,0.009 0.117,0.017 0.176,0.025 0.016,0.002 0.029,0.011 0.037,0.024 0.007,0.013 0.009,0.029 0.006,0.045 -0.073,0.241 -0.041,0.448 0.063,0.62 0.104,0.172 0.28,0.309 0.496,0.41 0.013,0.006 0.019,0.019 0.018,0.031 -0.001,0.012 -0.009,0.023 -0.024,0.026 -0.231,0.048 -0.464,0.087 -0.697,0.115 -0.233,0.028 -0.468,0.046 -0.702,0.051 -0.475,0.016 -0.941,-0.018 -1.394,-0.098 -0.453,-0.08 -0.895,-0.208 -1.322,-0.382 -0.577,-0.233 -1.024,-0.357 -1.378,-0.371 -0.354,-0.014 -0.614,0.08 -0.815,0.282 -0.178,0.177 -0.267,0.403 -0.265,0.686 0.002,0.283 0.094,0.623 0.279,1.027 0.013,0.027 0.011,0.058 -0.002,0.081 -0.012,0.025 -0.035,0.043 -0.066,0.047 -0.282,0.037 -0.571,0.053 -0.857,0.031 -0.285,-0.022 -0.566,-0.082 -0.833,-0.197 -0.021,-0.009 -0.039,-0.024 -0.05,-0.043 -0.012,-0.019 -0.018,-0.042 -0.016,-0.065 l 0.406,-7.878 c 10e-4,-0.027 0.01,-0.052 0.025,-0.072 0.015,-0.02 0.036,-0.036 0.061,-0.046 l 2.17,-0.784 c 0.027,-0.01 0.054,-0.006 0.076,0.007 0.022,0.014 0.038,0.037 0.042,0.065 0.031,0.214 0.07,0.416 0.122,0.615 0.054,0.198 0.12,0.394 0.206,0.595 m 74.825,1.159 c -0.991,-0.487 -2.118,-0.518 -3.162,-0.213 -1.043,0.306 -2.001,0.946 -2.65,1.801 -0.03,0.041 -0.077,0.06 -0.121,0.058 -0.045,-0.002 -0.088,-0.026 -0.112,-0.07 -0.234,-0.425 -0.536,-0.888 -0.829,-1.374 -0.293,-0.487 -0.576,-0.995 -0.769,-1.511 -0.349,-0.945 -0.201,-1.946 0.273,-2.715 0.473,-0.77 1.274,-1.309 2.233,-1.33 0.609,-0.012 1.178,0.359 1.47,0.851 0.293,0.492 0.311,1.106 -0.179,1.58 -0.165,0.159 -0.372,0.286 -0.586,0.368 -0.214,0.082 -0.435,0.118 -0.627,0.094 -0.117,-0.015 -0.22,-0.05 -0.308,-0.105 -0.087,-0.056 -0.161,-0.132 -0.221,-0.231 -0.352,-0.525 -0.698,-0.264 -0.683,0.223 0.016,0.488 0.395,1.202 1.494,1.583 1.179,0.41 2.469,0.285 3.546,-0.167 1.077,-0.452 1.943,-1.234 2.273,-2.14 0.009,-0.026 0.033,-0.037 0.055,-0.034 0.023,0.003 0.042,0.02 0.044,0.048 0.025,0.421 0.044,0.845 0.058,1.269 0.014,0.425 0.02,0.851 0.02,1.277 0,0.208 -0.002,0.415 -0.004,0.622 -0.004,0.207 -0.009,0.413 -0.017,0.619 -0.002,0.07 -0.045,0.123 -0.101,0.146 -0.055,0.023 -0.123,0.017 -0.176,-0.029 -0.14,-0.123 -0.288,-0.238 -0.441,-0.341 -0.154,-0.104 -0.314,-0.198 -0.48,-0.279 M -12.162,-44.24 c -0.113,0.249 -0.203,0.494 -0.273,0.736 -0.069,0.242 -0.118,0.48 -0.147,0.713 -0.006,0.049 -0.042,0.078 -0.081,0.085 -0.039,0.006 -0.082,-0.011 -0.104,-0.055 -0.237,-0.492 -0.344,-0.803 -0.387,-1.02 -0.043,-0.218 -0.021,-0.341 10e-4,-0.459 0.032,-0.171 0.055,-0.338 0.045,-0.543 -0.011,-0.205 -0.056,-0.449 -0.162,-0.772 -0.005,-0.018 -0.004,-0.038 0.002,-0.055 0.007,-0.017 0.02,-0.032 0.038,-0.041 0.652,-0.338 1.118,-0.943 1.473,-1.631 0.356,-0.689 0.6,-1.461 0.81,-2.136 0.012,-0.039 0.005,-0.08 -0.017,-0.112 -0.02,-0.031 -0.056,-0.054 -0.097,-0.058 -0.502,-0.051 -0.921,-0.047 -1.335,0.011 -0.413,0.059 -0.819,0.172 -1.298,0.339 -0.029,0.01 -0.053,-0.003 -0.066,-0.023 -0.011,-0.021 -0.011,-0.049 0.01,-0.069 0.112,-0.103 0.229,-0.206 0.339,-0.302 0.11,-0.096 0.215,-0.185 0.306,-0.262 0.361,-0.309 0.75,-0.638 1.115,-0.994 0.366,-0.355 0.711,-0.736 0.985,-1.147 0.018,-0.027 0.044,-0.044 0.073,-0.05 0.029,-0.006 0.06,-10e-4 0.086,0.017 1.04,0.697 2.052,1.445 3.034,2.243 0.98,0.796 1.929,1.643 2.846,2.537 0.058,0.056 0.059,0.132 0.026,0.188 -0.034,0.056 -0.101,0.093 -0.179,0.073 -1.334,-0.349 -2.794,-0.316 -4.07,0.135 -1.277,0.451 -2.371,1.323 -2.973,2.652 m -13.85,-13.018 c -0.033,0.456 -0.118,0.867 -0.229,1.253 -0.112,0.386 -0.248,0.746 -0.383,1.1 -0.166,0.432 -0.326,0.854 -0.428,1.289 -0.101,0.435 -0.143,0.883 -0.071,1.37 0.032,0.207 0.087,0.407 0.159,0.603 0.073,0.196 0.164,0.387 0.269,0.576 0.028,0.05 0.021,0.105 -0.005,0.146 -0.028,0.041 -0.076,0.068 -0.133,0.061 -0.39,-0.047 -0.852,-0.103 -1.259,-0.232 -0.407,-0.13 -0.76,-0.334 -0.929,-0.68 -0.097,-0.201 -0.131,-0.447 -0.105,-0.738 0.027,-0.29 0.116,-0.625 0.267,-1.003 0.092,-0.234 0.277,-0.737 0.345,-1.218 0.068,-0.482 0.018,-0.943 -0.358,-1.092 -0.274,-0.11 -0.502,-0.005 -0.692,0.197 -0.191,0.202 -0.342,0.501 -0.462,0.778 -0.028,0.063 -0.088,0.085 -0.142,0.075 -0.054,-0.01 -0.102,-0.053 -0.104,-0.122 -0.008,-0.173 -0.013,-0.347 -0.02,-0.521 -0.007,-0.174 -0.016,-0.348 -0.034,-0.522 -0.045,-0.456 -0.157,-0.734 -0.295,-0.898 -0.138,-0.164 -0.3,-0.215 -0.443,-0.218 -0.118,0 -0.279,0.031 -0.426,0.179 -0.149,0.148 -0.283,0.412 -0.35,0.877 -0.063,0.461 -0.05,1 0.028,1.567 0.077,0.568 0.216,1.164 0.405,1.741 0.01,0.03 0.001,0.057 -0.019,0.076 -0.018,0.018 -0.047,0.026 -0.075,0.016 l -1.926,-0.699 -1.926,-0.698 c -0.054,-0.02 -0.103,-0.053 -0.142,-0.096 -0.038,-0.042 -0.067,-0.093 -0.081,-0.15 l -0.554,-2.128 -0.555,-2.128 c -0.014,-0.058 -0.002,-0.117 0.031,-0.162 0.032,-0.046 0.083,-0.078 0.143,-0.082 0.539,-0.042 1.081,-0.075 1.624,-0.098 0.543,-0.022 1.088,-0.034 1.635,-0.034 1.277,0 2.546,0.06 3.804,0.178 1.257,0.118 2.502,0.293 3.731,0.525 -0.12,0.126 -0.189,0.303 -0.23,0.474 -0.042,0.171 -0.056,0.336 -0.065,0.438 m -12.571,3.264 -2.071,0.881 -2.073,0.881 c -0.039,0.017 -0.081,0.029 -0.124,0.035 -0.042,0.006 -0.085,0.007 -0.128,0.003 l -1.759,-0.184 -1.761,-0.184 c -0.078,-0.008 -0.152,-0.037 -0.214,-0.082 -0.062,-0.045 -0.112,-0.106 -0.145,-0.178 l -1.368,-3.046 c -0.013,-0.029 -0.012,-0.06 -0.002,-0.087 0.011,-0.027 0.033,-0.05 0.062,-0.062 1.714,-0.685 3.474,-1.25 5.269,-1.692 1.795,-0.442 3.627,-0.761 5.487,-0.953 0.044,-0.005 0.083,0.013 0.108,0.043 0.026,0.03 0.038,0.071 0.027,0.113 l -0.557,2.144 -0.558,2.143 c -0.013,0.05 -0.038,0.096 -0.07,0.135 -0.033,0.038 -0.075,0.069 -0.123,0.09 m -14.668,1.412 -0.875,0.09 -0.874,0.09 c -0.021,0.002 -0.037,-0.011 -0.043,-0.027 -0.006,-0.017 -0.002,-0.037 0.017,-0.049 0.381,-0.244 0.766,-0.484 1.155,-0.717 0.389,-0.233 0.781,-0.459 1.178,-0.677 0.017,-0.01 0.037,-0.005 0.049,0.007 0.013,0.011 0.019,0.03 0.01,0.048 l -0.26,0.583 -0.26,0.582 c -0.009,0.02 -0.023,0.036 -0.039,0.048 -0.017,0.012 -0.036,0.02 -0.058,0.022 m -5.365,3.022 c 0.339,0.383 0.975,0.953 1.626,1.513 0.651,0.561 1.317,1.112 1.716,1.459 0.029,0.026 0.051,0.059 0.063,0.096 0.013,0.037 0.015,0.077 0.006,0.116 l -0.461,2.127 -0.461,2.128 c -0.06,0.291 -0.032,0.586 0.069,0.853 0.103,0.267 0.28,0.506 0.52,0.683 0.24,0.174 0.521,0.27 0.807,0.286 0.286,0.016 0.575,-0.049 0.834,-0.196 l 1.892,-1.086 c 0.042,-0.024 0.087,-0.016 0.117,0.009 0.032,0.025 0.048,0.068 0.033,0.113 -0.294,0.856 -0.578,1.824 -0.926,2.748 -0.349,0.924 -0.764,1.804 -1.321,2.484 -0.577,0.711 -1.2,1.039 -1.879,1.164 -0.68,0.124 -1.416,0.045 -2.218,-0.06 -0.43,-0.054 -0.787,-0.099 -1.06,-0.124 -0.271,-0.025 -0.458,-0.029 -0.545,-0.002 -0.538,0.188 -0.676,0.914 -0.602,1.699 0.074,0.786 0.361,1.63 0.675,2.057 0.025,0.033 0.036,0.073 0.035,0.113 -0.002,0.039 -0.017,0.079 -0.044,0.111 -0.174,0.207 -0.201,0.416 -0.142,0.611 0.06,0.194 0.208,0.374 0.385,0.523 0.303,0.259 0.636,0.491 0.938,0.684 0.303,0.192 0.575,0.346 0.755,0.449 0.019,0.01 0.025,0.029 0.023,0.046 -0.003,0.017 -0.016,0.033 -0.035,0.039 -0.484,0.126 -0.927,0.168 -1.364,0.118 -0.437,-0.049 -0.866,-0.19 -1.321,-0.43 -0.243,-0.126 -0.433,-0.224 -0.614,-0.259 -0.182,-0.034 -0.357,-0.005 -0.57,0.121 -0.261,0.162 -0.369,0.364 -0.401,0.589 -0.033,0.226 0.007,0.474 0.04,0.729 0.002,0.012 -0.003,0.024 -0.012,0.033 -0.007,0.008 -0.019,0.012 -0.032,0.01 -0.183,-0.027 -0.336,-0.096 -0.473,-0.193 -0.136,-0.098 -0.256,-0.224 -0.377,-0.364 -0.093,-0.107 -0.182,-0.219 -0.274,-0.329 -0.092,-0.111 -0.184,-0.22 -0.285,-0.319 -0.008,-0.008 -0.014,-0.017 -0.018,-0.027 -0.004,-0.01 -0.005,-0.021 -0.004,-0.032 l 0.188,-3.894 0.189,-3.894 c 10e-4,-0.034 0.014,-0.065 0.034,-0.09 0.019,-0.026 0.047,-0.045 0.079,-0.054 l 1.604,-0.492 1.606,-0.492 c 0.064,-0.019 0.096,-0.074 0.096,-0.13 0,-0.055 -0.032,-0.11 -0.096,-0.13 l -1.617,-0.493 -1.618,-0.492 c -0.025,-0.008 -0.048,-0.022 -0.065,-0.041 -0.018,-0.019 -0.03,-0.043 -0.036,-0.069 l -0.531,-2.373 -0.53,-2.372 c -0.006,-0.029 -0.006,-0.058 0.001,-0.087 0.007,-0.028 0.021,-0.054 0.04,-0.076 0.315,-0.369 0.636,-0.734 0.963,-1.093 0.326,-0.36 0.66,-0.714 1.001,-1.063 0.511,-0.522 1.033,-1.028 1.567,-1.518 0.533,-0.49 1.075,-0.964 1.625,-1.421 0.042,-0.034 0.127,-0.056 0.21,-0.06 0.083,-0.004 0.164,0.009 0.195,0.044 m -10.159,11.688 1.603,0.337 1.602,0.337 c 0.041,0.008 0.077,0.029 0.104,0.058 0.028,0.029 0.047,0.067 0.054,0.108 l 1.18,7.528 c 0.002,0.012 -0.001,0.023 -0.008,0.032 -0.006,0.009 -0.016,0.015 -0.028,0.018 -0.229,0.058 -0.381,0.16 -0.482,0.295 -0.101,0.134 -0.149,0.301 -0.173,0.488 -0.057,0.423 -0.072,0.92 -0.029,1.411 0.044,0.49 0.146,0.975 0.323,1.374 0.131,0.313 0.3,0.602 0.506,0.861 0.206,0.259 0.449,0.488 0.726,0.682 0.003,0.003 0.006,0.013 0.007,0.024 0,0.011 -0.003,0.021 -0.011,0.024 -0.227,0.085 -0.386,0.179 -0.471,0.321 -0.085,0.143 -0.097,0.334 -0.029,0.614 0.069,0.331 0.565,0.686 1.136,0.981 0.572,0.295 1.218,0.529 1.587,0.617 0.022,0.005 0.037,0.018 0.046,0.034 0.009,0.017 0.012,0.037 0.006,0.058 -0.024,0.088 -0.034,0.172 -0.027,0.254 0.007,0.081 0.029,0.16 0.068,0.237 0.015,0.03 0.008,0.077 -0.012,0.116 -0.019,0.038 -0.052,0.07 -0.09,0.072 -0.027,0.001 -0.055,0.001 -0.083,0.002 -0.028,0 -0.056,0.001 -0.084,0.001 -0.345,0.008 -0.707,-0.01 -1.08,-0.052 -0.373,-0.043 -0.758,-0.111 -1.155,-0.201 -0.22,-0.051 -0.4,-0.09 -0.566,-0.099 -0.166,-0.009 -0.318,0.012 -0.48,0.081 -0.234,0.099 -0.395,0.237 -0.49,0.435 -0.096,0.197 -0.126,0.454 -0.099,0.79 0.003,0.067 0.008,0.129 0.016,0.188 0.007,0.058 0.017,0.112 0.027,0.164 0.004,0.019 -0.001,0.037 -0.012,0.051 -0.011,0.014 -0.028,0.022 -0.047,0.021 -0.058,-0.002 -0.114,-0.006 -0.169,-0.013 -0.055,-0.008 -0.109,-0.018 -0.163,-0.033 -0.472,-0.117 -0.906,-0.612 -1.324,-1.044 -0.417,-0.431 -0.818,-0.799 -1.224,-0.661 -0.298,0.102 -0.45,0.466 -0.525,0.888 -0.074,0.422 -0.07,0.9 -0.057,1.228 0.001,0.029 -0.013,0.055 -0.034,0.07 -0.021,0.015 -0.05,0.02 -0.077,0.011 l -1.063,-0.384 -1.062,-0.382 c -0.022,-0.009 -0.041,-0.022 -0.057,-0.039 -0.014,-0.018 -0.025,-0.039 -0.029,-0.062 l -0.514,-2.731 -0.514,-2.73 c -0.014,-0.077 -0.077,-0.112 -0.137,-0.109 -0.061,0.003 -0.121,0.044 -0.128,0.121 l -0.492,5.418 c -0.003,0.032 -0.015,0.062 -0.034,0.087 -0.019,0.025 -0.045,0.044 -0.075,0.055 l -0.552,0.199 -0.551,0.199 c -0.029,0.011 -0.06,0.005 -0.083,-0.012 -0.022,-0.017 -0.036,-0.044 -0.035,-0.076 0.201,-3.302 0.736,-6.463 1.624,-9.502 0.888,-3.038 2.129,-5.952 3.74,-8.76 m 0.397,-0.684 c 0.485,-0.825 1,-1.632 1.543,-2.422 0.542,-0.789 1.113,-1.562 1.711,-2.316 0.018,-0.022 0.045,-0.026 0.066,-0.017 0.022,0.009 0.038,0.031 0.036,0.058 l -0.202,1.853 -0.2,1.852 c -0.003,0.028 -0.014,0.054 -0.031,0.074 -0.017,0.021 -0.04,0.036 -0.066,0.044 l -1.429,0.437 z m -4.426,20.832 0.53,3.813 0.53,3.814 c 0.003,0.026 -0.01,0.048 -0.029,0.06 -0.019,0.011 -0.045,0.012 -0.065,-0.004 -0.354,-0.283 -0.665,-0.721 -0.985,-1.072 -0.319,-0.352 -0.646,-0.618 -1.031,-0.555 -0.006,10e-4 -0.019,-0.005 -0.03,-0.012 -0.011,-0.008 -0.021,-0.018 -0.022,-0.027 -0.106,-0.862 -0.186,-1.73 -0.239,-2.602 -0.053,-0.872 -0.08,-1.749 -0.08,-2.628 0,-0.214 0.003,-0.427 0.007,-0.641 0.004,-0.214 0.01,-0.428 0.015,-0.641 0,-0.026 0.014,-0.048 0.033,-0.061 0.019,-0.013 0.044,-0.017 0.068,-0.008 l 0.594,0.214 0.593,0.213 c 0.03,0.011 0.055,0.03 0.074,0.053 0.02,0.024 0.032,0.052 0.037,0.084 m 2.107,13.722 c -0.195,0.1 -0.405,0.155 -0.614,0.211 -0.208,0.055 -0.415,0.111 -0.603,0.213 -0.043,0.024 -0.091,0.025 -0.132,0.008 -0.041,-0.016 -0.075,-0.049 -0.09,-0.095 -0.058,-0.178 -0.115,-0.356 -0.171,-0.533 -0.055,-0.178 -0.109,-0.356 -0.161,-0.534 -0.012,-0.041 0.006,-0.077 0.035,-0.098 0.029,-0.02 0.07,-0.024 0.105,0.001 0.248,0.174 0.508,0.325 0.779,0.451 0.27,0.127 0.552,0.23 0.844,0.31 0.016,0.004 0.025,0.017 0.026,0.031 0.002,0.013 -0.004,0.028 -0.018,0.035 m -0.667,2.388 c 0.414,0.239 0.817,0.443 1.211,0.612 0.394,0.169 0.78,0.303 1.162,0.402 0.063,0.018 0.126,0.034 0.189,0.049 0.063,0.015 0.127,0.029 0.19,0.041 0.16,0.031 0.32,0.057 0.479,0.077 0.158,0.019 0.316,0.032 0.472,0.039 0.022,0.001 0.047,0.014 0.064,0.03 0.017,0.015 0.027,0.034 0.018,0.046 -0.147,0.243 -0.198,0.501 -0.158,0.739 0.041,0.237 0.173,0.455 0.392,0.617 0.022,0.018 0.044,0.034 0.067,0.05 0.023,0.015 0.046,0.029 0.07,0.042 0.013,0.007 0.013,0.022 0.005,0.036 -0.008,0.014 -0.025,0.028 -0.045,0.032 -0.455,0.104 -0.909,0.186 -1.366,0.244 -0.457,0.058 -0.916,0.092 -1.383,0.1 -0.015,0 -0.03,-0.005 -0.044,-0.012 -0.012,-0.008 -0.023,-0.02 -0.03,-0.034 -0.243,-0.505 -0.475,-1.016 -0.697,-1.53 -0.221,-0.515 -0.432,-1.034 -0.633,-1.556 -0.004,-0.01 -0.001,-0.019 0.006,-0.024 0.007,-0.005 0.019,-0.007 0.031,0 m 38.815,22.71 c 1.499,-0.771 2.526,-0.946 3.247,-0.833 0.722,0.113 1.139,0.516 1.422,0.899 0.486,0.658 0.4,1.536 -0.014,2.206 -0.413,0.671 -1.152,1.135 -1.969,0.963 -0.083,-0.018 -0.158,-0.042 -0.226,-0.072 -0.066,-0.03 -0.126,-0.064 -0.18,-0.103 -0.029,-0.021 -0.039,-0.055 -0.033,-0.086 0.006,-0.032 0.028,-0.06 0.063,-0.07 0.06,-0.018 0.12,-0.041 0.177,-0.068 0.058,-0.026 0.115,-0.057 0.168,-0.092 0.211,-0.136 0.373,-0.322 0.478,-0.536 0.104,-0.213 0.15,-0.455 0.13,-0.701 -0.022,-0.246 -0.112,-0.474 -0.263,-0.666 -0.149,-0.192 -0.356,-0.348 -0.608,-0.45 -0.894,-0.357 -1.675,0.087 -2.09,0.814 -0.415,0.727 -0.465,1.737 0.106,2.515 0.026,0.035 0.026,0.077 0.009,0.11 -0.016,0.034 -0.05,0.059 -0.093,0.06 -1.181,0.03 -2.358,0.01 -3.533,-0.061 -1.174,-0.072 -2.346,-0.196 -3.516,-0.372 -0.031,-0.005 -0.047,-0.028 -0.049,-0.053 -0.003,-0.024 0.01,-0.05 0.038,-0.06 1.198,-0.442 2.317,-0.989 3.42,-1.57 1.102,-0.581 2.187,-1.196 3.316,-1.774 m 5.642,-1.794 c 0.856,-0.543 2.327,-1.416 3.831,-2.136 1.504,-0.719 3.04,-1.285 4.028,-1.213 1.205,0.084 2.039,0.75 2.457,1.534 0.418,0.783 0.421,1.683 -0.035,2.235 -0.22,0.27 -0.58,0.536 -0.979,0.663 -0.4,0.127 -0.838,0.114 -1.214,-0.171 -0.265,-0.201 -0.475,-0.478 -0.568,-0.775 -0.092,-0.298 -0.066,-0.614 0.141,-0.893 0.192,-0.255 0.46,-0.367 0.704,-0.403 0.244,-0.037 0.465,10e-4 0.563,0.043 0.127,0.054 0.264,0.06 0.39,0.024 0.126,-0.035 0.241,-0.112 0.326,-0.222 0.084,-0.108 0.123,-0.239 0.119,-0.37 -0.003,-0.13 -0.05,-0.261 -0.137,-0.369 -0.159,-0.195 -0.368,-0.351 -0.61,-0.46 -0.242,-0.11 -0.516,-0.173 -0.808,-0.182 -1.572,-0.051 -2.506,1.058 -2.653,2.363 -0.147,1.306 0.493,2.808 2.07,3.543 -1.078,0.399 -2.175,0.752 -3.287,1.057 -1.113,0.305 -2.241,0.564 -3.382,0.774 0.444,-0.844 0.573,-1.796 0.407,-2.692 -0.166,-0.896 -0.627,-1.735 -1.363,-2.35 m 8.358,-6.248 c 1.322,-1.17 3.205,-2.881 5.205,-3.92 1.999,-1.039 4.115,-1.407 5.899,0.109 1.481,1.743 1.176,3.448 0.187,4.44 -0.989,0.993 -2.664,1.271 -3.925,0.162 -0.015,-0.014 -0.019,-0.034 -0.014,-0.051 0.005,-0.018 0.019,-0.033 0.041,-0.037 0.515,-0.103 0.949,-0.406 1.21,-0.815 0.261,-0.409 0.35,-0.923 0.175,-1.449 -0.101,-0.303 -0.287,-0.562 -0.534,-0.76 -0.247,-0.198 -0.556,-0.335 -0.908,-0.392 -0.57,-0.09 -1.17,0.098 -1.65,0.453 -0.481,0.356 -0.843,0.88 -0.939,1.462 -0.23,1.443 0.327,2.608 1.268,3.391 0.94,0.784 2.263,1.188 3.566,1.109 0.022,-0.001 0.038,0.012 0.044,0.028 0.007,0.017 0.003,0.037 -0.014,0.051 -0.73,0.555 -1.478,1.081 -2.24,1.581 -0.762,0.5 -1.54,0.973 -2.33,1.42 0.655,-1.641 0.237,-3.34 -0.765,-4.627 -1.002,-1.286 -2.59,-2.161 -4.276,-2.155 M -5.216,7.252 c 0.809,0.452 1.627,0.789 2.459,0.895 0.832,0.107 1.678,-0.016 2.541,-0.484 0.033,-0.018 0.067,-0.007 0.087,0.016 0.021,0.022 0.027,0.057 0.005,0.087 -0.575,0.805 -1.18,1.592 -1.815,2.36 -0.635,0.768 -1.301,1.516 -1.997,2.243 -0.022,0.024 -0.053,0.025 -0.077,0.013 C -4.037,12.369 -4.054,12.343 -4.048,12.31 -3.881,11.392 -3.933,10.449 -4.185,9.561 -4.436,8.674 -4.886,7.844 -5.518,7.154 -5.537,7.133 -5.523,7.125 -5.505,7.121 c 0.019,-0.003 0.043,0 0.043,0 l 0.123,0.065 z m 4.813,-5.428 c 0.949,-0.765 1.705,-1.638 2.267,-2.586 0.563,-0.949 0.933,-1.972 1.11,-3.037 0.309,-1.849 -0.165,-3.39 -0.537,-4.752 -0.374,-1.361 -0.644,-2.543 0.074,-3.675 0.502,-0.789 1.286,-1.282 2.046,-1.382 0.76,-0.1 1.497,0.191 1.902,0.968 0.147,0.282 0.207,0.564 0.182,0.824 -0.026,0.259 -0.137,0.496 -0.332,0.688 -0.478,0.466 -1.095,0.509 -1.511,0.346 -0.415,-0.164 -0.628,-0.535 -0.298,-0.898 0.096,-0.105 0.148,-0.235 0.157,-0.369 0.008,-0.133 -0.028,-0.27 -0.109,-0.387 -0.081,-0.114 -0.198,-0.192 -0.327,-0.228 -0.129,-0.036 -0.271,-0.03 -0.4,0.024 -0.36,0.15 -0.599,0.419 -0.736,0.744 -0.137,0.326 -0.171,0.708 -0.123,1.087 0.12,0.937 0.648,1.608 1.375,1.93 0.726,0.322 1.651,0.295 2.564,-0.165 0.024,-0.012 0.05,-0.008 0.068,0.005 0.018,0.013 0.03,0.036 0.025,0.062 C 6.526,-6.47 5.84,-4.026 4.941,-1.668 4.044,0.69 2.935,2.962 1.624,5.124 1.604,5.157 1.568,5.165 1.539,5.155 1.51,5.144 1.485,5.116 1.489,5.077 1.554,4.393 1.394,3.726 1.061,3.157 0.728,2.588 0.222,2.117 -0.403,1.824 M -36.076,-76.59 c 0.363,-0.36 0.795,-0.651 1.272,-0.853 0.478,-0.2 1.002,-0.312 1.552,-0.312 0.556,0 1.083,0.112 1.563,0.312 0.478,0.202 0.91,0.493 1.273,0.853 0.36,0.363 0.653,0.793 0.856,1.271 0.204,0.478 0.316,1.003 0.316,1.556 0,0.552 -0.112,1.077 -0.316,1.555 -0.203,0.478 -0.496,0.908 -0.856,1.272 -0.363,0.36 -0.795,0.651 -1.273,0.852 -0.48,0.201 -1.007,0.312 -1.563,0.312 -0.55,0 -1.074,-0.111 -1.552,-0.312 -0.477,-0.201 -0.909,-0.492 -1.272,-0.852 -0.361,-0.364 -0.654,-0.794 -0.86,-1.272 -0.204,-0.478 -0.318,-1.003 -0.318,-1.555 0,-0.553 0.114,-1.078 0.318,-1.556 0.206,-0.478 0.499,-0.908 0.86,-1.271"
         style="fill:none;stroke:#ff0000;stroke-width:0.38px"
         id="path178" />
    </g>
  </g>
</svg>
