<?xml version="1.0" encoding="UTF-8" standalone="no"?>
<!-- Created with Inkscape (http://www.inkscape.org/) -->

<svg
   width="65.362045mm"
   height="80.040436mm"
   viewBox="0 0 65.362045 80.040436"
   version="1.1"
   id="svg291"
   xmlns="http://www.w3.org/2000/svg"
   xmlns:svg="http://www.w3.org/2000/svg">
  <defs
     id="defs288" />
  <g
     id="layer1"
     transform="translate(-120.38483,-47.075237)">
    <g
       transform="matrix(0.70555643,0,0,0.70555643,142.39114,70.573088)"
       id="g172"
       style="clip-rule:evenodd;fill-rule:evenodd;stroke-linejoin:round;stroke-miterlimit:2">
      <path
         d="m 0,46.835 c -2.485,-0.706 -4.904,-1.481 -7.258,-2.313 -2.354,-0.831 -4.641,-1.717 -6.865,-2.646 2.99,-0.821 4.498,-3.345 4.504,-5.897 0.006,-2.553 -1.489,-5.134 -4.504,-6.069 l -0.042,-1.816 -0.042,-1.817 c 3.797,-0.652 7.551,-1.39 11.251,-2.214 3.701,-0.825 7.348,-1.735 10.93,-2.731 0.08,-0.022 0.157,0.004 0.207,0.057 0.049,0.052 0.073,0.13 0.047,0.209 l -1.227,3.758 -1.226,3.757 h -9.949 c -0.444,0 -0.843,0.133 -1.153,0.367 -0.31,0.232 -0.532,0.566 -0.622,0.967 -0.134,0.353 -0.134,0.751 -0.023,1.117 0.112,0.364 0.333,0.696 0.645,0.917 l 4.041,2.926 4.041,2.927 -1.377,4.251 z m 0.804,5.231 c 0,0.709 -0.311,1.375 -0.8,1.863 -0.488,0.488 -1.154,0.799 -1.864,0.799 -0.758,0 -1.426,-0.311 -1.904,-0.799 -0.477,-0.488 -0.766,-1.154 -0.766,-1.863 0,-0.753 0.289,-1.418 0.766,-1.893 0.478,-0.475 1.146,-0.761 1.904,-0.761 0.71,0 1.376,0.286 1.864,0.761 0.489,0.475 0.8,1.14 0.8,1.893 m -8.62,-2.745 c 0,0.751 -0.288,1.417 -0.766,1.894 -0.478,0.477 -1.143,0.767 -1.898,0.767 -0.709,-0.003 -1.353,-0.293 -1.819,-0.769 -0.466,-0.477 -0.755,-1.141 -0.755,-1.892 0,-0.709 0.289,-1.351 0.755,-1.817 0.466,-0.465 1.11,-0.753 1.819,-0.753 0.755,0 1.42,0.288 1.898,0.753 0.478,0.466 0.766,1.108 0.766,1.817 m 41.341,-10.803 -0.509,0.976 -0.51,0.976 c -0.025,0.046 -0.029,0.097 -0.018,0.145 0.013,0.047 0.041,0.09 0.085,0.119 l 1.98,1.322 -1.332,0.752 -1.332,0.751 c -0.311,-0.797 -0.578,-1.616 -0.768,-2.457 -0.189,-0.842 -0.302,-1.706 -0.302,-2.594 0,-0.929 0.113,-1.837 0.313,-2.713 0.2,-0.876 0.488,-1.718 0.842,-2.518 l 1.29,0.754 1.289,0.754 -0.99,0.659 -0.99,0.658 c -0.043,0.029 -0.072,0.072 -0.085,0.119 -0.011,0.047 -0.007,0.099 0.017,0.145 l 0.511,0.982 0.509,0.982 c 0.016,0.029 0.023,0.062 0.023,0.094 0,0.032 -0.008,0.065 -0.023,0.094 m 0.899,-0.249 1.441,-0.945 1.443,-0.946 0.842,0.489 0.843,0.489 c -0.07,0.28 -0.098,0.692 -0.096,1.105 0.003,0.413 0.039,0.826 0.096,1.109 l -0.843,0.444 -0.842,0.444 -1.442,-0.923 -1.44,-0.923 c -0.063,-0.04 -0.094,-0.105 -0.094,-0.171 -10e-4,-0.065 0.03,-0.131 0.092,-0.172 m 5.897,3.607 c 0.242,0.229 0.493,0.423 0.791,0.596 0.298,0.173 0.645,0.323 1.076,0.465 v 1.955 l -1.584,0.851 -1.583,0.85 c -0.068,0.036 -0.142,0.031 -0.201,-0.003 -0.057,-0.034 -0.099,-0.096 -0.1,-0.172 L 38.678,44.59 38.637,42.762 Z m 0,-6.734 -0.842,-0.532 -0.842,-0.53 0.118,-1.709 0.119,-1.708 c 0.006,-0.074 0.048,-0.133 0.105,-0.164 0.057,-0.032 0.129,-0.037 0.194,-0.003 l 1.553,0.818 1.553,0.816 -0.046,0.975 -0.045,0.975 c -0.444,0.117 -0.825,0.291 -1.137,0.481 -0.313,0.19 -0.557,0.397 -0.73,0.581 m -0.467,-7.219 -1.16,1.812 c -0.018,0.028 -0.043,0.051 -0.071,0.067 -0.028,0.016 -0.06,0.026 -0.094,0.027 l -1.141,0.038 -1.141,0.037 c -0.052,0.002 -0.1,0.023 -0.135,0.057 -0.035,0.034 -0.058,0.081 -0.062,0.133 l -0.084,1.193 -0.084,1.194 -1.287,-0.752 -1.286,-0.751 c 1.066,-1.372 2.398,-2.548 3.919,-3.423 1.52,-0.876 3.23,-1.452 5.051,-1.627 v 3.011 l -1.081,-0.544 -1.08,-0.544 c -0.047,-0.024 -0.098,-0.028 -0.146,-0.015 -0.047,0.013 -0.09,0.043 -0.118,0.087 m -6.902,-0.758 c 0.091,-0.221 0.18,-0.486 0.246,-0.763 0.067,-0.277 0.111,-0.565 0.111,-0.83 0,-1.144 -0.366,-2.205 -0.988,-3.07 -0.623,-0.864 -1.503,-1.531 -2.533,-1.888 -0.09,-0.031 -0.165,-0.089 -0.219,-0.162 -0.053,-0.074 -0.085,-0.163 -0.088,-0.258 l -0.082,-2.978 -0.082,-2.977 c -0.002,-0.083 0.022,-0.163 0.065,-0.23 0.044,-0.066 0.107,-0.12 0.184,-0.152 2.131,-0.872 4.219,-1.787 6.264,-2.733 C 37.874,10.178 39.875,9.2 41.832,8.2 l 0.622,14.892 c -1.821,0.133 -3.552,0.575 -5.149,1.271 -1.598,0.697 -3.063,1.649 -4.353,2.802 M 36.951,5.189 C 37.084,5.898 36.905,6.607 36.517,7.161 36.128,7.714 35.528,8.112 34.818,8.2 34.063,8.333 33.353,8.156 32.797,7.77 32.241,7.382 31.841,6.785 31.708,6.076 31.62,5.367 31.799,4.658 32.188,4.104 c 0.388,-0.555 0.988,-0.955 1.743,-1.045 0.71,-0.133 1.398,0.046 1.942,0.434 0.545,0.388 0.945,0.987 1.078,1.696 M 26.646,3.059 C 26.602,3.016 26.344,2.556 26.035,1.996 25.727,1.436 25.368,0.775 25.125,0.332 25.061,0.214 25.06,0.083 25.107,-0.028 c 0.048,-0.111 0.144,-0.201 0.273,-0.235 l 1.077,-0.288 1.076,-0.288 c 0,0.236 0.138,0.417 0.329,0.504 0.191,0.087 0.436,0.082 0.651,-0.057 l 1.542,-1.125 1.543,-1.124 c 0.059,-0.044 0.13,-0.066 0.2,-0.065 0.07,0 0.14,0.023 0.199,0.067 l 1.323,0.991 1.324,0.99 c -1.29,0.618 -2.623,1.239 -3.967,1.859 -1.345,0.62 -2.699,1.239 -4.031,1.858 m -2.483,26.054 h -8.705 l -1.401,-4.355 -1.402,-4.355 c -0.036,-0.114 -0.023,-0.232 0.028,-0.33 0.051,-0.098 0.139,-0.177 0.254,-0.213 2.26,-0.713 4.499,-1.446 6.707,-2.209 2.208,-0.762 4.386,-1.554 6.53,-2.385 0.094,-0.037 0.191,-0.021 0.266,0.029 0.075,0.051 0.126,0.135 0.127,0.236 l 0.038,2.374 0.039,2.374 c 0,0.045 -0.014,0.087 -0.04,0.121 -0.025,0.034 -0.061,0.06 -0.104,0.074 -1.072,0.334 -2.013,1.002 -2.686,1.89 -0.672,0.888 -1.077,1.995 -1.077,3.208 0,0.663 0.133,1.306 0.378,1.904 0.244,0.598 0.601,1.152 1.048,1.637 M 7.907,12.81 c 0.71,-0.133 1.42,0.044 1.975,0.431 0.556,0.386 0.955,0.984 1.046,1.693 0.133,0.709 -0.045,1.42 -0.434,1.986 -0.39,0.566 -0.989,0.989 -1.698,1.122 C 8.086,18.129 7.374,17.928 6.808,17.528 6.24,17.128 5.817,16.53 5.685,15.821 5.597,15.112 5.798,14.425 6.198,13.883 c 0.401,-0.542 1,-0.941 1.709,-1.073 M 7.194,9.883 c 1.465,-1.016 2.708,-2.389 3.585,-3.984 0.877,-1.595 1.387,-3.413 1.387,-5.32 0,-0.791 -0.088,-1.546 -0.248,-2.274 -0.16,-0.728 -0.394,-1.428 -0.685,-2.109 -0.039,-0.093 -0.018,-0.189 0.038,-0.256 0.055,-0.067 0.145,-0.105 0.244,-0.084 0.8,0.171 1.681,0.05 2.457,-0.255 0.774,-0.306 1.443,-0.795 1.817,-1.361 0.044,-0.066 0.114,-0.095 0.182,-0.089 0.067,0.006 0.131,0.046 0.161,0.119 0.134,0.321 0.36,0.715 0.604,1.106 0.244,0.391 0.506,0.776 0.709,1.079 0.081,0.12 0.091,0.262 0.046,0.383 -0.046,0.122 -0.146,0.223 -0.286,0.26 l -1.362,0.368 -1.364,0.368 c -0.252,0.126 -0.36,0.362 -0.35,0.592 0.01,0.23 0.137,0.454 0.35,0.56 l 1.436,0.388 1.435,0.387 c 0.105,0.028 0.182,0.102 0.219,0.193 0.038,0.091 0.035,0.198 -0.018,0.293 L 16.815,1.52 16.081,2.793 c -0.097,0.287 -0.065,0.525 0.064,0.677 0.128,0.152 0.355,0.217 0.648,0.157 0.16,-0.035 0.619,-0.279 1.142,-0.575 0.523,-0.297 1.109,-0.646 1.525,-0.891 0.11,-0.065 0.235,-0.069 0.343,-0.026 0.106,0.043 0.194,0.134 0.228,0.257 0.133,0.478 0.335,1.199 0.509,1.812 0.173,0.612 0.316,1.116 0.331,1.16 -2.22,0.842 -4.463,1.64 -6.738,2.393 C 11.856,8.511 9.548,9.22 7.194,9.883 m 10.482,5.316 c -0.71,0.133 -1.42,-0.043 -1.987,-0.43 -0.566,-0.387 -0.989,-0.985 -1.125,-1.694 -0.087,-0.709 0.114,-1.418 0.514,-1.983 0.401,-0.565 0.999,-0.986 1.709,-1.118 0.71,-0.088 1.399,0.111 1.943,0.51 0.544,0.398 0.945,0.996 1.078,1.705 0.132,0.708 -0.045,1.395 -0.435,1.937 -0.389,0.542 -0.988,0.94 -1.697,1.073 m 8.529,-3.186 C 25.492,12.146 24.804,11.968 24.26,11.58 23.716,11.191 23.317,10.592 23.185,9.883 23.052,9.174 23.229,8.465 23.616,7.9 c 0.389,-0.565 0.988,-0.985 1.7,-1.118 0.71,-0.088 1.42,0.113 1.986,0.512 0.565,0.399 0.987,0.997 1.12,1.703 0.091,0.712 -0.11,1.4 -0.509,1.942 -0.399,0.543 -0.999,0.942 -1.708,1.074 M 21.94,4.923 22.317,3.641 22.695,2.358 c 0.034,-0.114 0.117,-0.197 0.217,-0.236 0.1,-0.039 0.218,-0.035 0.319,0.027 l 1.13,0.678 1.131,0.678 C 24.915,3.726 24.338,3.97 23.75,4.214 23.162,4.459 22.562,4.703 21.94,4.923 m 4.649,-11.415 1.011,0.701 1.01,0.7 c 0.077,0.053 0.131,0.129 0.16,0.212 0.027,0.084 0.029,0.177 -0.001,0.265 l -0.394,1.179 -0.395,1.178 -1.387,-0.355 -1.389,-0.356 c -0.084,-0.021 -0.145,-0.08 -0.176,-0.152 -0.03,-0.072 -0.029,-0.157 0.015,-0.232 l 0.759,-1.314 0.76,-1.314 c 0.038,-0.08 0.059,-0.16 0.062,-0.24 0.003,-0.081 -0.011,-0.162 -0.043,-0.244 -0.003,-0.008 -0.001,-0.014 0.002,-0.019 0.002,-0.006 0.006,-0.009 0.006,-0.009 m -24.1,23.731 c 0.133,0.709 -0.046,1.397 -0.434,1.94 -0.389,0.544 -0.989,0.944 -1.699,1.077 -0.709,0.133 -1.418,-0.046 -1.985,-0.434 -0.566,-0.388 -0.989,-0.987 -1.125,-1.696 -0.088,-0.754 0.113,-1.463 0.514,-2.017 0.399,-0.554 0.999,-0.952 1.709,-1.085 0.71,-0.132 1.421,0.046 1.976,0.445 0.556,0.399 0.956,1.019 1.044,1.77 m -11.459,5.05 c -0.755,0.133 -1.465,-0.043 -2.019,-0.431 -0.554,-0.386 -0.953,-0.984 -1.086,-1.693 -0.09,-0.709 0.086,-1.418 0.474,-1.983 0.388,-0.565 0.988,-0.985 1.743,-1.118 0.712,-0.088 1.402,0.111 1.945,0.51 0.544,0.398 0.942,0.995 1.075,1.704 0.133,0.709 -0.044,1.395 -0.432,1.938 -0.387,0.542 -0.987,0.94 -1.7,1.073 M 1.782,33.033 C 1.739,33.002 1.729,32.953 1.742,32.912 1.756,32.87 1.793,32.836 1.846,32.836 H 7.11 c 0.399,0 0.777,-0.132 1.087,-0.353 0.312,-0.221 0.556,-0.53 0.689,-0.883 l 0.823,-2.465 0.822,-2.466 c 0.021,-0.061 0.075,-0.091 0.129,-0.091 0.054,0 0.108,0.031 0.127,0.094 l 0.78,2.464 0.781,2.464 c 0.132,0.353 0.377,0.662 0.688,0.883 0.312,0.221 0.689,0.353 1.087,0.353 h 4.655 c 0.148,0 0.252,0.095 0.289,0.211 0.037,0.116 0.009,0.253 -0.111,0.34 l -1.885,1.363 -1.884,1.363 c -0.354,0.223 -0.597,0.556 -0.718,0.922 -0.122,0.366 -0.122,0.764 0.01,1.117 l 0.744,2.225 0.743,2.224 c 0.045,0.135 -0.01,0.26 -0.105,0.33 -0.095,0.07 -0.231,0.085 -0.346,0.001 l -1.895,-1.37 -1.894,-1.37 c -0.321,-0.238 -0.715,-0.357 -1.109,-0.357 -0.394,0 -0.789,0.119 -1.108,0.357 L 7.47,41.694 5.431,43.197 C 5.373,43.24 5.305,43.233 5.256,43.198 5.208,43.164 5.18,43.101 5.201,43.033 l 0.777,-2.441 0.776,-2.44 C 6.887,37.799 6.887,37.401 6.765,37.035 6.642,36.669 6.397,36.336 6.041,36.113 l -2.13,-1.54 z m 3.196,15.045 2.842,-2.036 2.842,-2.037 3.996,2.924 3.996,2.923 c 0.806,0.501 1.684,0.376 2.287,-0.067 0.603,-0.443 0.933,-1.203 0.643,-1.972 l -1.553,-4.74 -1.552,-4.739 4.041,-2.927 4.042,-2.926 c 0.265,-0.221 0.464,-0.486 0.585,-0.785 0.123,-0.299 0.166,-0.631 0.121,-0.984 0.132,0.043 0.265,0.064 0.388,0.075 0.122,0.01 0.234,0.01 0.324,0.01 0.487,0 0.931,-0.066 1.353,-0.177 0.422,-0.111 0.822,-0.266 1.221,-0.445 -0.8,1.198 -1.422,2.506 -1.845,3.902 -0.422,1.396 -0.644,2.881 -0.644,4.431 0,3.458 1.133,6.626 3.054,9.173 1.921,2.547 4.63,4.473 7.783,5.447 C 33.284,52.691 27.543,52.098 21.836,51.28 16.129,50.461 10.457,49.418 4.978,48.078 m 4.88,6.294 c 0,0.709 -0.288,1.372 -0.765,1.859 -0.477,0.486 -1.143,0.795 -1.899,0.795 -0.709,0 -1.375,-0.309 -1.864,-0.795 -0.488,-0.487 -0.799,-1.15 -0.799,-1.859 0,-0.755 0.311,-1.42 0.799,-1.897 0.489,-0.476 1.155,-0.765 1.864,-0.765 0.756,0 1.422,0.289 1.899,0.765 0.477,0.477 0.765,1.142 0.765,1.897 m 26.912,3.722 c 0,0.755 -0.289,1.418 -0.766,1.894 -0.477,0.475 -1.143,0.762 -1.899,0.762 -0.754,0 -1.42,-0.287 -1.897,-0.762 -0.478,-0.476 -0.766,-1.139 -0.766,-1.894 0,-0.709 0.288,-1.351 0.766,-1.817 0.477,-0.465 1.143,-0.753 1.897,-0.753 0.756,0 1.422,0.288 1.899,0.753 0.477,0.466 0.766,1.108 0.766,1.817 m -17.971,9.926 1.214,0.887 1.215,0.887 -0.382,1.18 -0.382,1.179 C 20.447,72.206 20.401,72.231 20.355,72.23 20.311,72.228 20.266,72.2 20.253,72.147 19.832,70.431 18.888,68.953 17.6,67.861 16.311,66.768 14.678,66.062 12.879,65.89 l -0.088,-2.392 -0.087,-2.392 c 0.664,0.132 1.33,0.244 2.008,0.355 0.677,0.112 1.365,0.224 2.075,0.356 1.067,0.175 2.177,0.331 3.309,0.476 1.133,0.145 2.288,0.279 3.445,0.411 l -0.622,1.817 -0.622,1.816 h -3.999 c -0.179,0 -0.317,0.056 -0.415,0.143 -0.099,0.086 -0.159,0.204 -0.184,0.328 -0.053,0.274 0.118,0.502 0.356,0.698 0.236,0.198 0.539,0.363 0.744,0.514 M 13.501,56.055 c 0,-0.709 0.312,-1.374 0.8,-1.862 0.488,-0.488 1.154,-0.799 1.864,-0.799 0.755,0 1.421,0.311 1.898,0.799 0.478,0.488 0.766,1.153 0.766,1.862 0,0.709 -0.288,1.374 -0.766,1.862 -0.477,0.488 -1.143,0.799 -1.898,0.799 -0.71,0 -1.376,-0.311 -1.864,-0.799 -0.488,-0.488 -0.8,-1.153 -0.8,-1.862 m 9.236,1.237 c 0,-0.706 0.312,-1.347 0.8,-1.811 0.488,-0.465 1.154,-0.753 1.864,-0.753 0.755,0 1.421,0.288 1.899,0.753 0.476,0.464 0.765,1.105 0.765,1.811 0,0.754 -0.289,1.419 -0.765,1.896 -0.478,0.477 -1.144,0.765 -1.899,0.765 -0.71,0 -1.376,-0.288 -1.864,-0.765 -0.488,-0.477 -0.8,-1.142 -0.8,-1.896 m 4.441,12.943 -0.088,-0.22 -0.088,-0.221 c 0.215,-0.157 1.053,-0.74 1.856,-1.318 0.805,-0.578 1.576,-1.15 1.654,-1.283 0.121,-0.195 0.083,-0.41 -0.038,-0.575 -0.122,-0.165 -0.328,-0.281 -0.542,-0.281 h -3.994 l -0.579,-1.729 -0.58,-1.729 c 1.999,0.178 4.043,0.355 6.108,0.51 2.065,0.154 4.152,0.287 6.239,0.377 l -0.888,2.836 -0.887,2.836 h -6.929 c -0.266,0 -0.509,0.089 -0.72,0.233 -0.211,0.144 -0.389,0.344 -0.524,0.564 m 6.04,-24.371 1.332,-0.755 1.332,-0.754 0.168,2.388 c 0.004,0.051 0.027,0.098 0.062,0.132 0.035,0.034 0.082,0.056 0.134,0.057 l 1.096,0.04 1.095,0.04 c 0.034,10e-4 0.066,0.011 0.095,0.028 0.029,0.017 0.053,0.04 0.071,0.069 l 0.58,0.945 0.579,0.944 c 0.027,0.044 0.068,0.074 0.115,0.088 0.046,0.014 0.098,0.012 0.144,-0.01 l 1.083,-0.499 1.084,-0.499 v 2.926 c -1.863,-0.177 -3.595,-0.753 -5.117,-1.64 -1.521,-0.886 -2.832,-2.082 -3.853,-3.5 m 10.48,10.1 c 0.71,0 1.354,0.288 1.82,0.766 0.465,0.476 0.753,1.141 0.753,1.896 0.003,0.709 -0.285,1.351 -0.751,1.816 -0.467,0.466 -1.112,0.754 -1.822,0.754 -0.755,0 -1.421,-0.288 -1.898,-0.754 -0.477,-0.465 -0.766,-1.107 -0.766,-1.816 0,-0.755 0.289,-1.42 0.766,-1.896 0.477,-0.478 1.143,-0.766 1.898,-0.766 m 1.155,-4.96 v -2.926 l 1.07,0.535 1.071,0.535 c 0.047,0.023 0.099,0.027 0.147,0.014 0.047,-0.014 0.089,-0.044 0.117,-0.088 l 1.18,-1.876 c 0.017,-0.029 0.041,-0.052 0.07,-0.068 0.028,-0.017 0.06,-0.026 0.095,-0.027 l 1.135,-0.043 1.136,-0.043 c 0.052,-0.002 0.099,-0.023 0.134,-0.057 0.035,-0.034 0.057,-0.08 0.061,-0.132 l 0.18,-2.382 1.244,0.754 1.245,0.754 c -1.021,1.418 -2.332,2.592 -3.842,3.455 -1.511,0.864 -3.222,1.418 -5.043,1.595 m 9.06,-19.851 -1.332,0.754 -1.332,0.755 -0.081,-1.197 -0.082,-1.197 c -0.003,-0.051 -0.025,-0.097 -0.059,-0.13 -0.034,-0.034 -0.079,-0.056 -0.13,-0.06 l -1.104,-0.08 -1.105,-0.08 c -0.032,-0.003 -0.063,-0.013 -0.09,-0.029 -0.027,-0.016 -0.05,-0.039 -0.068,-0.067 l -0.591,-0.939 -0.59,-0.94 c -0.028,-0.045 -0.071,-0.075 -0.118,-0.088 -0.047,-0.013 -0.099,-0.01 -0.146,0.014 l -1.071,0.535 -1.072,0.535 v -3.011 c 1.822,0.22 3.532,0.817 5.052,1.714 1.521,0.897 2.853,2.093 3.919,3.511 m -8.88,-14.445 1.374,0.974 1.375,0.975 -0.752,2.305 -0.753,2.305 C 46.1,23.221 45.944,23.199 45.788,23.188 45.633,23.176 45.478,23.176 45.299,23.176 Z m 3.106,20.738 0.845,-0.488 0.846,-0.489 1.458,0.965 1.459,0.965 c 0.063,0.041 0.093,0.107 0.092,0.173 -10e-4,0.066 -0.033,0.132 -0.097,0.171 l -1.456,0.902 -1.456,0.903 -0.846,-0.489 -0.845,-0.489 c 0.045,-0.25 0.09,-0.626 0.101,-1.016 0.012,-0.391 -0.011,-0.797 -0.101,-1.108 m 6.486,3.2 -0.516,-1.003 -0.515,-1.003 c -0.016,-0.03 -0.023,-0.062 -0.023,-0.095 0,-0.033 0.009,-0.065 0.025,-0.095 l 0.513,-0.954 0.513,-0.953 c 0.025,-0.047 0.03,-0.099 0.019,-0.147 -0.012,-0.048 -0.041,-0.091 -0.085,-0.121 l -0.986,-0.654 -0.986,-0.655 2.664,-1.508 c 0.309,0.754 0.574,1.552 0.763,2.394 0.188,0.842 0.301,1.727 0.301,2.656 0,0.93 -0.113,1.838 -0.313,2.702 -0.199,0.864 -0.488,1.685 -0.842,2.439 l -1.286,-0.754 -1.287,-0.754 0.983,-0.614 0.984,-0.614 c 0.046,-0.028 0.076,-0.071 0.089,-0.119 0.013,-0.048 0.009,-0.101 -0.015,-0.148 m -6.274,-10.001 0.072,1.759 0.072,1.76 -0.843,0.489 -0.842,0.489 c -0.282,-0.281 -0.556,-0.498 -0.857,-0.67 -0.301,-0.171 -0.627,-0.296 -1.011,-0.392 v -1.95 l 1.555,-0.828 1.554,-0.829 c 0.066,-0.035 0.139,-0.03 0.197,0.003 0.058,0.033 0.1,0.094 0.103,0.169 m -1.632,11.231 0.887,0.488 0.889,0.489 -0.081,1.825 -0.08,1.826 c -0.003,0.076 -0.046,0.137 -0.105,0.169 -0.058,0.033 -0.132,0.037 -0.199,0 l -1.589,-0.89 -1.588,-0.891 v -1.955 c 0.395,-0.093 0.772,-0.27 1.095,-0.467 0.323,-0.198 0.593,-0.417 0.771,-0.594 m -68.386,3.988 c 0,-0.709 0.288,-1.352 0.766,-1.817 0.476,-0.465 1.142,-0.754 1.897,-0.754 0.756,0 1.422,0.289 1.899,0.754 0.477,0.465 0.765,1.108 0.765,1.817 0,0.754 -0.288,1.419 -0.765,1.896 -0.477,0.476 -1.143,0.764 -1.899,0.764 -0.755,0 -1.421,-0.288 -1.897,-0.764 -0.478,-0.477 -0.766,-1.142 -0.766,-1.896 m 3.817,-22.157 c -1.733,0.311 -2.822,-0.84 -3.045,-2.146 -0.221,-1.307 0.423,-2.768 2.158,-3.079 1.687,-0.266 2.754,0.908 2.976,2.214 0.222,1.306 -0.4,2.745 -2.089,3.011 M 50.585,9.853 C 50.08,9.036 49.551,8.236 48.995,7.456 48.44,6.676 47.86,5.916 47.257,5.177 46.81,5.452 46.362,5.71 45.906,5.96 45.45,6.21 44.985,6.453 44.502,6.698 l 0.175,3.545 0.176,3.545 h 4.439 l 0.646,-1.968 z m 6.379,20.316 c -0.052,-0.89 -0.13,-1.771 -0.235,-2.643 -0.104,-0.873 -0.234,-1.737 -0.387,-2.594 l -2.236,-1.629 -2.235,-1.629 -1.555,1.152 -1.555,1.153 c 1.631,0.582 3.183,1.384 4.577,2.414 1.393,1.029 2.629,2.286 3.626,3.776 m -5.31,23.629 c 0.286,-0.522 0.563,-1.049 0.829,-1.585 0.266,-0.534 0.521,-1.076 0.766,-1.625 -0.936,0.754 -1.962,1.4 -3.057,1.918 -1.094,0.518 -2.259,0.909 -3.473,1.154 0.821,0.033 1.643,0.06 2.466,0.083 0.822,0.022 1.644,0.04 2.469,0.055 M 41.33,66.234 c 0.433,-0.353 0.856,-0.713 1.271,-1.082 0.415,-0.369 0.823,-0.746 1.224,-1.132 -0.541,-0.012 -1.08,-0.024 -1.619,-0.037 -0.539,-0.013 -1.078,-0.026 -1.618,-0.042 l 0.371,1.147 z m -13.035,7.265 c 0.13,-0.045 0.26,-0.09 0.39,-0.137 0.129,-0.046 0.259,-0.092 0.389,-0.14 l -0.5,-0.365 -0.5,-0.364 c -0.028,-0.021 -0.06,-0.017 -0.084,0 -0.022,0.017 -0.035,0.048 -0.024,0.08 l 0.165,0.463 z m -7.98,1.835 c 1.06,-0.136 2.107,-0.311 3.139,-0.523 1.032,-0.213 2.051,-0.464 3.053,-0.752 0.088,-0.025 0.141,-0.095 0.154,-0.173 0.014,-0.077 -0.014,-0.162 -0.087,-0.215 l -1.205,-0.877 -1.206,-0.876 -3.292,2.39 c -0.088,0.045 -0.154,0.068 -0.221,0.079 -0.066,0.011 -0.132,0.011 -0.22,0.011 -0.009,0.157 -0.023,0.314 -0.041,0.47 -0.02,0.156 -0.043,0.312 -0.074,0.466 M 0.771,72.691 c -0.091,0.026 -0.14,0.103 -0.144,0.183 -0.004,0.079 0.038,0.16 0.127,0.193 0.52,0.195 1.045,0.378 1.574,0.552 0.53,0.173 1.065,0.336 1.605,0.489 C 3.927,74.085 3.921,74.06 3.916,74.035 3.912,74.01 3.908,73.985 3.908,73.958 c 0,-2.04 0.801,-3.922 2.112,-5.351 1.311,-1.428 3.132,-2.403 5.173,-2.626 L 11.104,63.365 11.013,60.75 C 7.908,60.185 4.848,59.533 1.842,58.794 c -3.007,-0.739 -5.959,-1.565 -8.848,-2.478 -0.067,-0.021 -0.135,-0.006 -0.185,0.032 -0.051,0.037 -0.085,0.098 -0.084,0.169 l 0.041,3.269 0.04,3.268 0.361,1.315 0.36,1.314 c 0.021,0.075 0.075,0.131 0.14,0.158 0.065,0.027 0.143,0.026 0.211,-0.013 l 5.5,-3.124 c 0.091,-0.045 0.202,-0.068 0.313,-0.057 0.112,0.011 0.222,0.054 0.309,0.142 0.091,0.09 0.159,0.223 0.182,0.356 0.022,0.132 0,0.265 -0.091,0.356 l -1.501,2.665 -1.502,2.665 c -0.049,0.087 -0.051,0.185 -0.016,0.269 0.034,0.083 0.106,0.152 0.201,0.179 l 2.964,0.831 2.965,0.83 c 0.133,0.046 0.243,0.112 0.32,0.201 0.077,0.088 0.121,0.198 0.121,0.331 0,0.133 -0.044,0.244 -0.121,0.334 -0.077,0.09 -0.187,0.157 -0.32,0.203 L 1.986,72.35 Z M -18.235,58.199 c -0.069,0.049 -0.111,0.122 -0.122,0.199 -0.013,0.078 0.004,0.16 0.055,0.228 0.585,0.789 1.195,1.557 1.828,2.302 0.635,0.744 1.293,1.466 1.977,2.162 0.565,0.582 1.017,1.04 1.479,1.447 0.463,0.406 0.939,0.761 1.557,1.133 0.133,0.081 0.287,0.085 0.417,0.033 0.13,-0.053 0.236,-0.164 0.275,-0.315 l 0.368,-1.432 0.368,-1.433 -0.045,-3.53 -0.044,-3.532 c -10e-4,-0.033 -0.012,-0.065 -0.031,-0.092 -0.019,-0.026 -0.046,-0.047 -0.077,-0.059 -0.469,-0.168 -0.917,-0.317 -1.367,-0.467 -0.449,-0.15 -0.897,-0.3 -1.366,-0.471 l -0.045,0.045 -0.046,0.045 -2.591,1.868 z m -2.525,-3.282 c 0.048,0.081 0.096,0.161 0.145,0.242 0.049,0.08 0.098,0.16 0.148,0.24 0.028,0.046 0.072,0.074 0.12,0.084 0.049,0.01 0.101,0 0.144,-0.031 l 0.402,-0.286 0.403,-0.286 c 0.033,-0.024 0.041,-0.062 0.031,-0.094 -0.011,-0.032 -0.039,-0.058 -0.08,-0.058 h -1.204 c -0.049,0 -0.088,0.026 -0.11,0.063 -0.02,0.037 -0.023,0.084 10e-4,0.126 m -2.478,-4.878 c 0.084,0.192 0.169,0.382 0.255,0.573 0.087,0.192 0.173,0.383 0.261,0.574 0.026,0.053 0.065,0.097 0.112,0.127 0.048,0.03 0.104,0.047 0.163,0.047 h 1.728 c 0.042,0 0.07,-0.028 0.076,-0.061 0.007,-0.033 -0.006,-0.07 -0.045,-0.087 -0.43,-0.184 -0.858,-0.376 -1.283,-0.571 -0.425,-0.196 -0.846,-0.397 -1.267,-0.602 m -2.881,-9.69 c 0.111,0.652 0.24,1.3 0.383,1.944 0.142,0.643 0.299,1.281 0.468,1.912 0.451,-0.634 0.583,-1.408 0.431,-2.119 -0.153,-0.71 -0.591,-1.357 -1.282,-1.737 m -0.405,-12.34 c -0.094,0.564 -0.178,2.141 -0.218,3.725 -0.04,1.584 -0.036,3.175 0.049,3.769 0.812,0.483 1.738,1.007 2.648,1.513 0.909,0.506 1.804,0.995 2.553,1.408 -0.804,-1.807 -0.658,-3.773 0.18,-5.379 0.84,-1.606 2.375,-2.852 4.35,-3.219 v -3.192 c -0.93,0.154 -2.653,0.41 -4.477,0.672 -1.825,0.261 -3.75,0.529 -5.085,0.703 m 1.6,-7.94 c -0.235,0.781 -0.449,1.573 -0.642,2.374 -0.193,0.801 -0.363,1.611 -0.511,2.429 l 0.027,-0.006 0.028,-0.007 c 1.289,-0.234 1.97,-1.131 2.126,-2.119 0.155,-0.988 -0.215,-2.068 -1.028,-2.671 m 4.918,-10.734 c -0.767,1.206 -1.474,2.451 -2.118,3.727 -0.645,1.276 -1.226,2.584 -1.742,3.918 1.927,-0.302 3.842,-0.628 5.747,-0.982 1.905,-0.353 3.8,-0.735 5.687,-1.149 l -1.464,-1.065 -1.465,-1.065 -1.601,1.153 -1.6,1.152 c -0.172,0.172 -0.446,0.174 -0.651,0.054 -0.204,-0.12 -0.34,-0.361 -0.237,-0.675 l 1.244,-3.808 z m 1.432,-2.106 h 1.437 l 0.16,-0.465 0.161,-0.465 0.652,-1.906 c -0.492,0.449 -0.898,0.887 -1.28,1.347 -0.381,0.461 -0.738,0.946 -1.13,1.489 m 8.19,-8.544 c -0.501,0.422 -1.263,1.09 -2.097,1.877 -0.835,0.787 -1.742,1.691 -2.53,2.587 0.127,0.124 0.434,0.996 0.734,1.911 0.299,0.915 0.592,1.873 0.692,2.169 h 3.999 c 0.25,0 0.44,0.164 0.515,0.379 0.075,0.215 0.038,0.48 -0.164,0.683 l -1.599,1.152 -1.598,1.152 c 0.064,0.206 0.373,1.141 0.657,2.056 0.283,0.914 0.54,1.809 0.498,1.933 1.954,-0.398 3.885,-0.842 5.805,-1.308 1.92,-0.466 3.829,-0.955 5.739,-1.443 -3.018,-0.133 -5.726,-1.44 -7.679,-3.466 -1.953,-2.027 -3.152,-4.774 -3.152,-7.788 0,-0.328 0.016,-0.648 0.046,-0.963 0.032,-0.315 0.078,-0.624 0.134,-0.931 M 8.528,-9.652 c -0.31,0.052 -0.62,0.106 -0.927,0.164 -0.309,0.058 -0.616,0.119 -0.922,0.184 -0.051,0.01 -0.081,0.049 -0.088,0.091 -0.006,0.042 0.011,0.088 0.054,0.115 0.27,0.163 0.532,0.338 0.785,0.521 0.253,0.184 0.497,0.376 0.732,0.577 0.037,0.031 0.084,0.035 0.121,0.018 0.038,-0.016 0.068,-0.053 0.07,-0.101 C 8.36,-8.338 8.384,-8.576 8.431,-8.81 8.478,-9.043 8.548,-9.273 8.649,-9.511 8.662,-9.54 8.648,-9.578 8.623,-9.607 8.599,-9.636 8.562,-9.657 8.528,-9.652 m 11.841,-0.196 c -0.755,-0.096 -1.515,-0.171 -2.279,-0.226 -0.765,-0.054 -1.535,-0.087 -2.312,-0.099 0.296,0.442 0.483,0.899 0.576,1.37 0.093,0.471 0.094,0.957 0.016,1.456 -0.015,0.099 0.007,0.196 0.056,0.275 0.049,0.08 0.126,0.142 0.221,0.171 0.399,0.121 0.93,0.389 1.457,0.682 0.529,0.294 1.053,0.613 1.441,0.838 0.089,0.051 0.188,0.053 0.273,0.017 0.084,-0.036 0.153,-0.11 0.178,-0.209 l 0.434,-1.734 -0.031,-1.27 z M 38.637,-2.8 c -0.602,-0.416 -1.212,-0.818 -1.832,-1.202 -0.621,-0.385 -1.252,-0.753 -1.896,-1.103 -0.079,0.058 -0.134,0.137 -0.162,0.226 -0.027,0.088 -0.027,0.185 0.005,0.277 l 0.564,1.616 0.566,1.616 c 0.471,-0.232 0.931,-0.466 1.389,-0.704 0.457,-0.237 0.91,-0.478 1.366,-0.726 m 6.119,5.183 C 44.197,1.81 43.621,1.253 43.03,0.713 c -0.592,-0.54 -1.198,-1.063 -1.82,-1.57 -0.967,0.498 -1.494,1.448 -1.519,2.393 -0.025,0.945 0.453,1.885 1.495,2.362 0.67,0.308 1.459,0.348 2.139,0.111 0.682,-0.237 1.255,-0.751 1.497,-1.553 L 44.789,2.419 Z m -22.61,-11.947 0.03,1.174 0.03,1.173 0.266,0.908 0.266,0.909 c 0.023,0.078 0.079,0.135 0.148,0.162 0.068,0.027 0.148,0.024 0.218,-0.018 0.39,-0.234 1.009,-0.613 1.592,-0.944 0.582,-0.331 1.126,-0.614 1.366,-0.655 0.008,-0.002 0.013,-0.009 0.014,-0.016 0.002,-0.007 -0.001,-0.016 -0.009,-0.021 l -0.242,-0.162 -0.242,-0.163 c -0.233,-0.154 -0.314,-0.421 -0.253,-0.649 0.063,-0.229 0.268,-0.419 0.608,-0.419 h 1.007 c 0.047,0 0.076,-0.033 0.08,-0.069 0.006,-0.037 -0.012,-0.077 -0.057,-0.09 -0.865,-0.255 -1.765,-0.485 -2.602,-0.676 -0.837,-0.191 -1.609,-0.342 -2.22,-0.444 M 17.959,-27.72 c -0.362,-0.362 -0.793,-0.654 -1.272,-0.857 -0.478,-0.202 -1.005,-0.314 -1.561,-0.314 -0.553,0 -1.078,0.112 -1.556,0.314 -0.478,0.203 -0.909,0.495 -1.271,0.857 -0.362,0.362 -0.656,0.794 -0.861,1.272 -0.204,0.479 -0.317,1.006 -0.317,1.558 0,0.552 0.113,1.079 0.317,1.558 0.205,0.479 0.499,0.91 0.861,1.272 0.362,0.362 0.793,0.655 1.271,0.857 0.478,0.202 1.003,0.313 1.556,0.313 0.556,0 1.083,-0.111 1.561,-0.313 0.479,-0.202 0.91,-0.495 1.272,-0.857 0.362,-0.362 0.655,-0.793 0.858,-1.272 0.203,-0.479 0.314,-1.006 0.314,-1.558 0,-0.552 -0.111,-1.079 -0.314,-1.558 -0.203,-0.478 -0.496,-0.91 -0.858,-1.272 M 1.655,9.316 C 1.701,9.247 1.741,9.17 1.777,9.085 1.812,9 1.843,8.906 1.867,8.803 1.885,8.731 1.897,8.659 1.904,8.585 1.911,8.512 1.912,8.439 1.909,8.363 1.909,8.317 1.906,8.274 1.901,8.23 1.896,8.187 1.888,8.143 1.879,8.097 c 0.097,0.043 0.19,0.08 0.28,0.114 0.09,0.034 0.176,0.064 0.258,0.092 0.1,0.033 0.193,0.06 0.279,0.081 C 2.782,8.405 2.86,8.42 2.93,8.429 3.069,8.444 3.214,8.434 3.329,8.38 3.443,8.327 3.528,8.23 3.546,8.073 3.553,8.007 3.545,7.933 3.523,7.855 3.502,7.776 3.468,7.693 3.419,7.609 3.365,7.518 3.289,7.413 3.191,7.291 3.093,7.169 2.973,7.032 2.827,6.878 2.716,6.758 2.587,6.627 2.443,6.485 2.299,6.343 2.139,6.19 1.964,6.028 2.051,6.034 2.15,6.032 2.235,6.003 2.32,5.974 2.39,5.916 2.417,5.811 2.435,5.75 2.431,5.69 2.406,5.628 2.382,5.566 2.338,5.503 2.277,5.437 2.188,5.334 2.077,5.233 1.963,5.135 1.849,5.037 1.731,4.941 1.625,4.851 1.615,4.842 1.605,4.834 1.595,4.825 1.585,4.816 1.574,4.808 1.564,4.799 1.553,4.789 1.552,4.765 1.559,4.741 1.565,4.717 1.579,4.693 1.598,4.684 1.687,4.637 1.784,4.582 1.871,4.518 1.959,4.454 2.037,4.381 2.091,4.3 2.103,4.282 2.123,4.274 2.143,4.276 2.161,4.278 2.181,4.289 2.191,4.308 2.233,4.38 2.253,4.453 2.267,4.532 2.28,4.61 2.287,4.695 2.302,4.791 2.356,5.186 2.52,5.439 2.743,5.625 2.968,5.811 3.253,5.928 3.553,6.052 3.595,6.07 3.637,6.086 3.678,6.103 3.719,6.12 3.758,6.136 3.794,6.154 L 3.918,6.206 4.042,6.257 C 4.084,6.281 4.118,6.277 4.143,6.255 4.167,6.234 4.181,6.197 4.181,6.154 L 4.184,6.028 4.187,5.901 C 4.189,5.841 4.192,5.78 4.196,5.72 4.2,5.66 4.205,5.599 4.211,5.539 4.238,5.081 4.223,4.793 4.155,4.578 4.087,4.364 3.966,4.224 3.782,4.061 3.698,3.988 3.609,3.924 3.528,3.856 3.448,3.788 3.376,3.715 3.324,3.622 3.316,3.607 3.318,3.591 3.327,3.579 3.336,3.566 3.351,3.557 3.367,3.557 3.47,3.553 3.577,3.52 3.68,3.475 3.783,3.429 3.883,3.37 3.971,3.315 3.992,3.301 4.018,3.301 4.038,3.31 4.059,3.319 4.074,3.338 4.079,3.363 4.11,3.535 4.144,3.742 4.189,3.938 4.234,4.134 4.291,4.319 4.368,4.447 4.392,4.486 4.419,4.519 4.448,4.546 4.478,4.572 4.51,4.592 4.543,4.604 4.582,4.619 4.621,4.622 4.661,4.612 4.7,4.602 4.739,4.58 4.778,4.543 4.806,4.519 4.833,4.488 4.86,4.448 4.888,4.409 4.914,4.362 4.941,4.308 4.996,4.543 5.049,4.758 5.1,4.952 5.15,5.147 5.198,5.322 5.244,5.479 5.307,5.681 5.366,5.855 5.423,6.001 5.479,6.147 5.533,6.266 5.588,6.36 5.621,6.42 5.657,6.473 5.695,6.518 5.733,6.564 5.772,6.601 5.812,6.631 5.854,6.668 5.899,6.693 5.946,6.71 5.993,6.726 6.041,6.734 6.089,6.734 6.141,6.731 6.187,6.72 6.231,6.701 6.275,6.683 6.315,6.655 6.355,6.619 6.452,6.532 6.521,6.397 6.573,6.254 6.625,6.111 6.66,5.959 6.687,5.835 6.705,5.753 6.722,5.664 6.737,5.57 6.752,5.476 6.766,5.376 6.778,5.273 6.812,5.304 6.846,5.333 6.882,5.359 6.917,5.387 6.953,5.412 6.989,5.437 7.116,5.515 7.262,5.58 7.414,5.626 7.566,5.672 7.727,5.699 7.884,5.702 7.171,6.704 6.254,7.547 5.195,8.17 4.137,8.793 2.937,9.196 1.655,9.316 M -6.222,5.672 c 0.16,0.009 0.319,-0.009 0.472,-0.051 0.152,-0.041 0.299,-0.106 0.435,-0.191 0.036,-0.024 0.072,-0.049 0.108,-0.076 0.035,-0.026 0.07,-0.053 0.103,-0.081 0.015,0.103 0.03,0.201 0.046,0.295 0.016,0.093 0.033,0.182 0.05,0.267 0.022,0.102 0.044,0.197 0.069,0.283 0.024,0.086 0.049,0.163 0.077,0.23 0.054,0.123 0.135,0.242 0.24,0.315 0.104,0.072 0.23,0.098 0.376,0.035 0.06,-0.028 0.121,-0.07 0.178,-0.127 0.057,-0.057 0.112,-0.13 0.16,-0.217 C -3.856,6.263 -3.802,6.146 -3.745,6 -3.688,5.855 -3.63,5.681 -3.569,5.479 -3.521,5.322 -3.472,5.147 -3.421,4.952 -3.37,4.758 -3.319,4.543 -3.268,4.308 c 0.042,0.079 0.094,0.165 0.162,0.224 0.066,0.06 0.15,0.093 0.255,0.066 0.064,-0.018 0.114,-0.055 0.155,-0.107 0.042,-0.053 0.075,-0.122 0.105,-0.207 0.042,-0.129 0.077,-0.293 0.11,-0.463 0.032,-0.17 0.06,-0.345 0.088,-0.494 0.003,-0.016 0.014,-0.029 0.028,-0.034 0.014,-0.006 0.031,-0.005 0.045,0.004 0.091,0.059 0.197,0.123 0.308,0.173 0.112,0.05 0.228,0.086 0.338,0.087 0.014,0 0.027,0.007 0.033,0.018 0.007,0.01 0.009,0.023 0.003,0.036 -0.055,0.106 -0.14,0.185 -0.236,0.259 -0.095,0.074 -0.199,0.144 -0.294,0.233 -0.224,0.217 -0.325,0.448 -0.363,0.695 -0.039,0.248 -0.015,0.512 0.012,0.795 0.003,0.058 0.008,0.114 0.012,0.169 0.005,0.054 0.01,0.109 0.013,0.163 l 0.012,0.272 c 0,0.03 0.015,0.057 0.038,0.075 0.022,0.018 0.052,0.027 0.083,0.021 C -2.331,6.284 -2.28,6.26 -2.228,6.234 -2.176,6.207 -2.123,6.179 -2.09,6.161 -2.038,6.139 -1.99,6.117 -1.943,6.095 -1.896,6.073 -1.852,6.052 -1.806,6.034 -1.516,5.904 -1.249,5.783 -1.04,5.6 -0.832,5.417 -0.683,5.171 -0.628,4.791 -0.616,4.703 -0.61,4.623 -0.6,4.547 -0.589,4.473 -0.571,4.402 -0.537,4.333 -0.524,4.308 -0.5,4.293 -0.475,4.291 c 0.026,-0.002 0.052,0.008 0.07,0.031 0.056,0.076 0.134,0.144 0.218,0.205 0.084,0.06 0.175,0.112 0.26,0.157 C 0.098,4.697 0.112,4.721 0.114,4.745 0.117,4.77 0.108,4.796 0.088,4.814 0.043,4.854 0,4.891 -0.042,4.927 c -0.042,0.036 -0.082,0.071 -0.121,0.105 -0.094,0.079 -0.258,0.202 -0.39,0.342 -0.133,0.139 -0.232,0.295 -0.196,0.437 0.016,0.06 0.044,0.107 0.088,0.141 0.044,0.035 0.102,0.058 0.179,0.07 0.026,0.003 0.055,0.006 0.086,0.007 0.033,0.002 0.067,0.002 0.106,-0.001 -0.178,0.162 -0.338,0.315 -0.481,0.457 -0.144,0.142 -0.271,0.273 -0.382,0.393 -0.149,0.154 -0.269,0.291 -0.367,0.413 -0.097,0.122 -0.171,0.227 -0.225,0.318 -0.052,0.084 -0.088,0.167 -0.109,0.246 -0.021,0.078 -0.027,0.152 -0.018,0.218 0.018,0.157 0.102,0.254 0.217,0.307 0.113,0.054 0.257,0.064 0.393,0.049 0.07,-0.009 0.148,-0.024 0.234,-0.045 0.086,-0.021 0.179,-0.048 0.279,-0.081 0.082,-0.028 0.168,-0.058 0.258,-0.092 0.09,-0.034 0.183,-0.071 0.28,-0.114 -0.009,0.046 -0.017,0.09 -0.022,0.133 -0.005,0.044 -0.008,0.087 -0.008,0.133 -0.003,0.076 -0.002,0.151 0.005,0.225 0.007,0.075 0.019,0.149 0.037,0.222 0.021,0.099 0.05,0.191 0.085,0.275 C -0.08,9.17 -0.039,9.247 0.007,9.316 -1.277,9.192 -2.479,8.785 -3.538,8.157 -4.597,7.529 -5.512,6.679 -6.222,5.672 m -0.857,-8.725 c 0.039,0.075 0.089,0.152 0.148,0.229 0.06,0.077 0.129,0.154 0.208,0.229 0.054,0.052 0.112,0.098 0.173,0.141 0.061,0.043 0.126,0.082 0.196,0.119 0.036,0.021 0.075,0.039 0.116,0.056 0.041,0.016 0.083,0.031 0.126,0.046 -0.085,0.064 -0.163,0.126 -0.237,0.186 -0.073,0.06 -0.141,0.119 -0.205,0.176 -0.078,0.07 -0.149,0.136 -0.212,0.2 -0.061,0.063 -0.114,0.123 -0.156,0.18 -0.055,0.076 -0.094,0.147 -0.12,0.214 -0.025,0.067 -0.037,0.131 -0.037,0.191 0,0.163 0.088,0.27 0.209,0.336 0.121,0.066 0.277,0.092 0.413,0.092 0.105,-0.003 0.235,-0.015 0.391,-0.038 0.154,-0.024 0.334,-0.058 0.54,-0.107 0.159,-0.039 0.336,-0.084 0.531,-0.137 0.194,-0.054 0.407,-0.116 0.641,-0.188 -0.038,0.054 -0.066,0.102 -0.087,0.146 -0.021,0.044 -0.035,0.083 -0.04,0.119 -0.025,0.103 0,0.178 0.053,0.228 0.055,0.05 0.14,0.074 0.237,0.074 0.096,0.003 0.216,-0.017 0.346,-0.049 0.13,-0.033 0.269,-0.078 0.403,-0.126 0.05,-0.017 0.101,-0.035 0.152,-0.053 0.052,-0.018 0.102,-0.036 0.155,-0.054 0.031,-0.01 0.063,-0.004 0.087,0.014 0.024,0.018 0.039,0.046 0.038,0.08 -0.004,0.092 -0.004,0.192 0.006,0.29 0.01,0.098 0.029,0.193 0.065,0.276 0.011,0.027 0.006,0.057 -0.008,0.078 -0.016,0.022 -0.041,0.036 -0.071,0.034 -0.083,-0.006 -0.16,-0.03 -0.238,-0.061 -0.079,-0.032 -0.159,-0.07 -0.247,-0.103 -0.127,-0.052 -0.226,-0.091 -0.317,-0.113 -0.091,-0.022 -0.172,-0.026 -0.263,-0.008 -0.151,0.024 -0.438,0.172 -0.725,0.337 -0.287,0.164 -0.574,0.345 -0.725,0.435 l -0.145,0.085 -0.145,0.084 c -0.067,0.033 -0.071,0.074 -0.049,0.112 0.022,0.037 0.07,0.072 0.109,0.094 l 0.248,0.12 c 0.127,0.06 0.431,0.222 0.725,0.372 0.295,0.15 0.58,0.289 0.671,0.304 0.081,0.015 0.154,0.014 0.231,-0.002 0.078,-0.015 0.161,-0.043 0.264,-0.083 0.105,-0.041 0.213,-0.094 0.321,-0.135 0.109,-0.041 0.218,-0.071 0.326,-0.065 0.014,10e-4 0.025,0.01 0.03,0.02 0.005,0.011 0.005,0.025 -0.002,0.037 -0.055,0.098 -0.081,0.22 -0.093,0.346 -0.011,0.126 -0.007,0.255 10e-4,0.364 0,0.012 -0.005,0.022 -0.013,0.029 -0.008,0.006 -0.019,0.008 -0.03,0.005 C -3.229,2.053 -3.398,1.988 -3.565,1.929 -3.732,1.869 -3.897,1.814 -4.035,1.786 -4.122,1.768 -4.199,1.763 -4.266,1.774 -4.332,1.786 -4.388,1.813 -4.434,1.858 -4.476,1.9 -4.501,1.947 -4.51,2.001 c -0.008,0.053 10e-4,0.114 0.029,0.183 0.008,0.027 0.02,0.054 0.036,0.083 0.014,0.029 0.033,0.059 0.053,0.092 C -4.624,2.287 -4.837,2.225 -5.031,2.171 -5.227,2.118 -5.403,2.073 -5.563,2.033 -5.769,1.985 -5.946,1.95 -6.101,1.927 -6.255,1.904 -6.385,1.892 -6.493,1.889 -6.777,1.885 -6.979,1.981 -7.065,2.133 c -0.088,0.152 -0.063,0.362 0.107,0.588 0.042,0.054 0.095,0.115 0.156,0.179 0.063,0.064 0.133,0.132 0.212,0.201 0.064,0.058 0.133,0.116 0.207,0.177 0.073,0.06 0.153,0.122 0.234,0.185 -0.042,0.016 -0.083,0.031 -0.123,0.047 -0.04,0.017 -0.08,0.035 -0.119,0.056 -0.066,0.036 -0.131,0.075 -0.193,0.119 -0.062,0.043 -0.121,0.089 -0.175,0.14 -0.06,0.058 -0.115,0.118 -0.164,0.183 -0.049,0.065 -0.093,0.134 -0.132,0.21 C -7.306,3.66 -7.502,3.071 -7.636,2.459 -7.77,1.846 -7.841,1.21 -7.841,0.555 c 0,-0.642 0.069,-1.27 0.197,-1.874 0.129,-0.604 0.32,-1.185 0.565,-1.734 M 8.064,3.572 C 8.028,3.551 7.989,3.531 7.948,3.513 7.907,3.495 7.865,3.479 7.823,3.463 7.907,3.4 7.987,3.338 8.063,3.278 8.137,3.217 8.207,3.159 8.271,3.101 8.373,3.011 8.504,2.89 8.609,2.755 8.714,2.62 8.793,2.471 8.789,2.323 8.789,2.157 8.703,2.048 8.583,1.981 8.462,1.914 8.307,1.889 8.167,1.889 8.062,1.892 7.934,1.904 7.779,1.927 7.625,1.95 7.445,1.985 7.237,2.033 7.077,2.073 6.9,2.118 6.706,2.171 6.512,2.225 6.301,2.287 6.071,2.359 6.104,2.305 6.132,2.256 6.152,2.213 6.174,2.17 6.189,2.133 6.198,2.1 6.21,2.045 6.209,1.999 6.196,1.959 6.185,1.918 6.162,1.885 6.132,1.858 6.104,1.837 6.071,1.821 6.033,1.809 5.996,1.798 5.953,1.792 5.908,1.792 5.756,1.789 5.559,1.835 5.358,1.896 5.158,1.958 4.954,2.034 4.787,2.094 4.771,2.1 4.754,2.096 4.741,2.086 4.729,2.077 4.721,2.062 4.722,2.044 4.726,1.94 4.728,1.823 4.717,1.708 4.705,1.593 4.682,1.48 4.636,1.385 4.626,1.365 4.63,1.344 4.642,1.328 4.653,1.312 4.674,1.301 4.695,1.301 4.832,1.302 4.967,1.348 5.103,1.402 5.237,1.455 5.373,1.515 5.51,1.544 5.685,1.581 5.845,1.576 6.042,1.508 6.239,1.44 6.473,1.309 6.796,1.092 6.845,1.059 6.893,1.025 6.941,0.993 6.991,0.961 7.041,0.929 7.092,0.899 L 7.198,0.83 7.304,0.76 C 7.331,0.748 7.348,0.724 7.353,0.697 7.357,0.669 7.352,0.64 7.334,0.615 7.301,0.579 7.229,0.519 7.156,0.459 7.083,0.398 7.008,0.338 6.965,0.302 6.742,0.106 6.528,-0.08 6.294,-0.2 6.06,-0.32 5.803,-0.374 5.491,-0.308 5.359,-0.28 5.229,-0.22 5.099,-0.167 c -0.13,0.052 -0.261,0.098 -0.395,0.095 -0.017,0 -0.031,-0.01 -0.038,-0.024 -0.007,-0.014 -0.007,-0.032 10e-4,-0.048 0.05,-0.097 0.074,-0.214 0.085,-0.334 0.011,-0.12 0.007,-0.241 0.001,-0.347 -0.001,-0.015 0.006,-0.028 0.017,-0.036 0.01,-0.008 0.025,-0.011 0.039,-0.007 0.065,0.021 0.128,0.042 0.192,0.064 0.062,0.022 0.126,0.044 0.188,0.068 0.112,0.042 0.214,0.08 0.308,0.111 0.094,0.031 0.179,0.055 0.254,0.07 0.085,0.015 0.16,0.019 0.226,0.009 C 6.043,-0.557 6.099,-0.582 6.144,-0.627 6.186,-0.67 6.212,-0.718 6.221,-0.773 6.229,-0.828 6.223,-0.89 6.198,-0.959 6.186,-0.984 6.17,-1.011 6.151,-1.04 6.133,-1.069 6.112,-1.1 6.092,-1.13 c 0.232,0.072 0.447,0.134 0.644,0.189 0.198,0.053 0.377,0.099 0.537,0.138 0.206,0.049 0.385,0.083 0.54,0.107 0.155,0.023 0.285,0.035 0.39,0.038 0.097,0 0.187,-0.01 0.265,-0.031 C 8.546,-0.71 8.614,-0.742 8.669,-0.785 8.72,-0.821 8.76,-0.866 8.786,-0.918 8.813,-0.97 8.826,-1.029 8.826,-1.092 8.826,-1.149 8.813,-1.213 8.788,-1.28 8.763,-1.347 8.723,-1.418 8.669,-1.491 8.626,-1.548 8.573,-1.608 8.512,-1.671 8.45,-1.735 8.379,-1.801 8.3,-1.871 8.236,-1.928 8.169,-1.987 8.096,-2.047 8.022,-2.107 7.943,-2.169 7.859,-2.233 c 0.042,-0.015 0.083,-0.031 0.123,-0.049 0.04,-0.019 0.08,-0.038 0.119,-0.059 0.066,-0.033 0.129,-0.073 0.19,-0.116 0.061,-0.044 0.118,-0.092 0.172,-0.144 0.063,-0.06 0.121,-0.125 0.173,-0.194 0.051,-0.07 0.096,-0.143 0.135,-0.222 l 0.006,-0.006 c 0.239,0.546 0.425,1.122 0.551,1.721 0.126,0.599 0.193,1.22 0.193,1.857 0,0.652 -0.07,1.288 -0.203,1.901 C 9.187,3.068 8.992,3.656 8.741,4.211 8.659,4.076 8.557,3.951 8.441,3.842 8.326,3.733 8.197,3.641 8.064,3.572 m -12.83,-8.81 c -0.22,0.13 -0.438,0.26 -0.651,0.39 -0.214,0.131 -0.424,0.262 -0.629,0.395 0.057,0.006 0.116,0.014 0.176,0.025 0.059,0.011 0.12,0.026 0.181,0.047 0.114,0.033 0.224,0.079 0.329,0.135 0.103,0.057 0.202,0.125 0.293,0.203 0.011,-0.102 0.026,-0.201 0.043,-0.294 0.015,-0.094 0.032,-0.182 0.046,-0.267 0.022,-0.103 0.046,-0.198 0.072,-0.284 0.025,-0.086 0.052,-0.162 0.08,-0.229 0.009,-0.021 0.019,-0.042 0.03,-0.063 0.011,-0.02 0.022,-0.039 0.03,-0.058 m 2.918,-1.544 c -0.414,0.196 -0.829,0.404 -1.242,0.62 -0.412,0.215 -0.821,0.439 -1.222,0.665 0.093,0.015 0.179,0.066 0.253,0.135 0.076,0.069 0.139,0.155 0.187,0.239 0.052,0.091 0.106,0.208 0.163,0.354 0.057,0.146 0.115,0.319 0.176,0.521 0.048,0.157 0.096,0.332 0.146,0.526 0.05,0.195 0.101,0.409 0.156,0.644 0.027,-0.057 0.054,-0.105 0.082,-0.145 0.026,-0.04 0.053,-0.071 0.081,-0.096 0.078,-0.072 0.157,-0.089 0.228,-0.067 0.07,0.022 0.134,0.082 0.183,0.164 0.051,0.084 0.094,0.201 0.132,0.33 0.037,0.13 0.067,0.273 0.091,0.412 0.013,0.064 0.025,0.127 0.036,0.191 0.011,0.063 0.023,0.127 0.035,0.191 0.003,0.017 0.014,0.029 0.028,0.036 0.015,0.005 0.031,0.005 0.046,-0.004 0.092,-0.059 0.198,-0.123 0.309,-0.173 0.111,-0.05 0.226,-0.086 0.335,-0.087 0.011,-10e-4 0.023,-0.011 0.031,-0.024 0.007,-0.012 0.011,-0.027 0.008,-0.036 C -1.631,-2.444 -1.649,-2.473 -1.679,-2.5 -1.709,-2.528 -1.75,-2.555 -1.817,-2.607 -1.936,-2.7 -2.054,-2.795 -2.157,-2.904 -2.261,-3.013 -2.35,-3.135 -2.41,-3.283 -2.479,-3.449 -2.507,-3.621 -2.513,-3.8 c -0.006,-0.179 0.009,-0.366 0.025,-0.563 0.009,-0.096 0.013,-0.208 0.018,-0.317 0.006,-0.11 0.012,-0.216 0.024,-0.304 0.006,-0.033 0.029,-0.059 0.056,-0.072 0.029,-0.013 0.062,-0.013 0.089,0.006 0.087,0.042 0.175,0.084 0.264,0.126 0.088,0.041 0.177,0.082 0.267,0.121 0.2,0.091 0.388,0.177 0.555,0.283 0.167,0.106 0.313,0.233 0.424,0.405 0.075,0.115 0.124,0.242 0.158,0.376 0.035,0.134 0.057,0.272 0.077,0.408 0.014,0.083 0.017,0.13 0.026,0.17 0.009,0.04 0.026,0.072 0.066,0.124 0.005,0.007 0.018,0.009 0.03,0.008 0.014,-0.002 0.027,-0.007 0.032,-0.015 0.015,-0.027 0.034,-0.053 0.056,-0.079 0.022,-0.027 0.047,-0.054 0.075,-0.081 0.05,-0.045 0.111,-0.089 0.183,-0.135 0.072,-0.047 0.156,-0.094 0.253,-0.143 0.011,-0.006 0.018,-0.016 0.02,-0.026 0.002,-0.011 -0.001,-0.022 -0.01,-0.03 -0.117,-0.1 -0.259,-0.214 -0.394,-0.33 -0.135,-0.115 -0.262,-0.232 -0.354,-0.338 -0.061,-0.066 -0.103,-0.129 -0.126,-0.191 -0.024,-0.062 -0.029,-0.122 -0.014,-0.183 0.016,-0.06 0.044,-0.107 0.087,-0.142 0.043,-0.034 0.101,-0.057 0.173,-0.069 0.027,-0.003 0.057,-0.006 0.091,-0.008 0.033,-10e-4 0.069,-10e-4 0.109,0.002 -0.179,-0.163 -0.339,-0.315 -0.482,-0.457 -0.145,-0.142 -0.274,-0.273 -0.388,-0.394 -0.146,-0.154 -0.266,-0.291 -0.363,-0.413 -0.098,-0.121 -0.172,-0.227 -0.223,-0.317 -0.036,-0.06 -0.065,-0.119 -0.087,-0.175 -0.021,-0.056 -0.037,-0.109 -0.046,-0.157 0,-0.012 -0.002,-0.024 -0.003,-0.036 -0.002,-0.012 -0.003,-0.024 -0.003,-0.036 m 1.667,-0.73 c -0.138,0.054 -0.278,0.111 -0.418,0.17 -0.139,0.059 -0.28,0.119 -0.422,0.179 0.048,0.013 0.099,0.026 0.15,0.041 0.052,0.016 0.104,0.032 0.158,0.05 0.082,0.027 0.168,0.057 0.258,0.092 0.09,0.033 0.184,0.071 0.28,0.113 -0.021,-0.108 -0.033,-0.217 -0.035,-0.325 -0.001,-0.108 0.008,-0.215 0.029,-0.32 m 1.957,-0.682 c -0.021,0.006 -0.042,0.012 -0.063,0.018 -0.022,0.006 -0.042,0.012 -0.064,0.018 0.055,0.078 0.103,0.166 0.146,0.264 0.042,0.097 0.078,0.204 0.108,0.321 0.028,0.115 0.041,0.233 0.042,0.351 0.002,0.119 -0.008,0.238 -0.03,0.355 0.097,-0.042 0.19,-0.08 0.28,-0.113 0.09,-0.035 0.176,-0.065 0.258,-0.092 0.117,-0.039 0.266,-0.086 0.416,-0.112 0.151,-0.026 0.303,-0.033 0.43,0.01 0.048,0.015 0.092,0.037 0.13,0.067 0.037,0.029 0.069,0.066 0.093,0.108 0.064,0.099 0.074,0.208 0.054,0.315 -0.019,0.107 -0.069,0.212 -0.127,0.306 -0.051,0.09 -0.125,0.196 -0.222,0.317 C 3.13,-5.939 3.009,-5.802 2.863,-5.648 2.749,-5.527 2.62,-5.396 2.477,-5.254 2.332,-5.112 2.172,-4.96 1.994,-4.797 2.033,-4.8 2.069,-4.8 2.103,-4.799 c 0.033,0.002 0.063,0.005 0.09,0.008 0.073,0.012 0.13,0.035 0.173,0.069 0.043,0.035 0.072,0.082 0.087,0.142 0.042,0.157 -0.089,0.34 -0.265,0.512 -0.174,0.172 -0.393,0.333 -0.527,0.447 -0.008,0.008 -0.017,0.016 -0.026,0.023 -0.009,0.007 -0.019,0.015 -0.028,0.022 -0.013,0.012 -0.023,0.034 -0.027,0.054 -0.004,0.021 -0.002,0.04 0.008,0.045 0.094,0.046 0.175,0.093 0.245,0.138 0.07,0.046 0.13,0.091 0.179,0.135 0.027,0.027 0.051,0.053 0.074,0.08 0.021,0.025 0.04,0.051 0.056,0.078 0.005,0.008 0.018,0.014 0.032,0.015 0.014,0.001 0.027,-0.002 0.033,-0.009 0.039,-0.053 0.057,-0.089 0.067,-0.132 0.01,-0.044 0.014,-0.095 0.028,-0.177 0.006,-0.036 0.011,-0.074 0.018,-0.11 0.006,-0.036 0.012,-0.071 0.018,-0.101 0.055,-0.398 0.216,-0.652 0.439,-0.836 0.224,-0.186 0.509,-0.302 0.812,-0.425 0.045,-0.018 0.164,-0.073 0.278,-0.122 0.114,-0.05 0.223,-0.096 0.247,-0.096 0.031,-0.002 0.058,0.008 0.076,0.026 0.019,0.018 0.03,0.044 0.027,0.071 0.003,0.106 0.006,0.211 0.01,0.317 0.003,0.106 0.008,0.211 0.014,0.317 0.033,0.5 0.014,0.798 -0.071,1.017 -0.085,0.22 -0.234,0.361 -0.461,0.551 -0.073,0.064 -0.139,0.11 -0.195,0.158 -0.057,0.049 -0.105,0.099 -0.144,0.169 -0.011,0.019 -0.01,0.04 -0.002,0.057 0.008,0.017 0.025,0.029 0.045,0.03 0.106,0.006 0.215,0.041 0.32,0.09 0.105,0.048 0.206,0.109 0.294,0.165 0.017,0.01 0.036,0.011 0.052,0.004 0.016,-0.007 0.028,-0.021 0.032,-0.04 0.028,-0.148 0.054,-0.321 0.085,-0.489 0.032,-0.168 0.067,-0.33 0.112,-0.457 0.027,-0.085 0.06,-0.154 0.102,-0.207 0.042,-0.053 0.094,-0.089 0.157,-0.107 0.057,-0.015 0.111,-0.014 0.161,0.007 0.05,0.02 0.099,0.059 0.147,0.12 0.019,0.021 0.035,0.045 0.052,0.072 0.016,0.027 0.033,0.057 0.051,0.09 0.054,-0.235 0.106,-0.449 0.156,-0.644 0.05,-0.194 0.097,-0.369 0.146,-0.526 0.06,-0.205 0.119,-0.378 0.176,-0.524 0.057,-0.146 0.11,-0.264 0.162,-0.357 0.055,-0.09 0.125,-0.185 0.212,-0.257 0.086,-0.072 0.187,-0.12 0.302,-0.117 0.108,0.006 0.199,0.057 0.272,0.13 0.074,0.072 0.129,0.166 0.168,0.256 0.028,0.067 0.055,0.142 0.08,0.226 0.027,0.085 0.05,0.179 0.072,0.281 0.014,0.085 0.03,0.175 0.045,0.27 0.015,0.095 0.03,0.195 0.045,0.297 0.034,-0.03 0.068,-0.059 0.104,-0.086 0.035,-0.027 0.071,-0.053 0.107,-0.077 0.064,-0.039 0.13,-0.075 0.199,-0.107 0.067,-0.032 0.137,-0.059 0.207,-0.08 0.084,-0.024 0.17,-0.041 0.256,-0.049 0.086,-0.01 0.172,-0.011 0.256,-0.005 H 7.986 C 7.285,-5.473 6.376,-6.34 5.32,-6.986 4.265,-7.631 3.063,-8.055 1.776,-8.194 m 22.465,-5.604 c 0,0.072 0.026,0.138 0.069,0.191 0.042,0.052 0.102,0.09 0.171,0.105 1.435,0.304 2.846,0.675 4.23,1.11 1.384,0.436 2.741,0.937 4.066,1.501 2.821,1.197 5.501,2.673 8.008,4.393 2.507,1.721 4.84,3.686 6.967,5.864 2.126,2.176 4.046,4.562 5.726,7.127 1.679,2.565 3.121,5.309 4.29,8.199 1.123,2.782 1.996,5.697 2.587,8.714 0.592,3.018 0.904,6.139 0.904,9.334 0,3.195 -0.312,6.316 -0.904,9.334 -0.591,3.017 -1.464,5.932 -2.587,8.713 -1.169,2.888 -2.611,5.631 -4.29,8.197 -1.68,2.566 -3.6,4.955 -5.726,7.129 -2.127,2.179 -4.46,4.144 -6.967,5.865 -2.507,1.72 -5.187,3.195 -8.008,4.393 -2.721,1.152 -5.571,2.047 -8.522,2.653 -2.95,0.607 -6.003,0.925 -9.129,0.925 -3.123,0 -6.174,-0.318 -9.123,-0.925 -2.95,-0.606 -5.8,-1.501 -8.522,-2.653 -2.821,-1.198 -5.502,-2.673 -8.008,-4.393 -2.507,-1.721 -4.84,-3.686 -6.966,-5.865 -2.127,-2.174 -4.046,-4.563 -5.726,-7.129 -1.68,-2.566 -3.121,-5.309 -4.29,-8.197 -1.123,-2.781 -1.996,-5.696 -2.589,-8.713 C -30.689,39.056 -31,35.935 -31,32.74 c 0,-3.195 0.311,-6.316 0.902,-9.334 0.593,-3.017 1.466,-5.932 2.589,-8.714 1.169,-2.89 2.61,-5.634 4.29,-8.199 1.68,-2.565 3.599,-4.951 5.726,-7.127 2.126,-2.178 4.459,-4.143 6.966,-5.864 2.506,-1.72 5.187,-3.196 8.008,-4.393 1.269,-0.54 2.567,-1.022 3.89,-1.444 1.323,-0.423 2.671,-0.786 4.04,-1.088 0.177,-0.039 0.328,-0.136 0.436,-0.268 0.107,-0.132 0.17,-0.3 0.17,-0.48 v -4.534 c 0,-0.394 0.166,-0.761 0.451,-1.07 0.285,-0.31 0.69,-0.562 1.169,-0.726 0.112,-0.039 0.193,-0.122 0.232,-0.223 0.039,-0.1 0.036,-0.216 -0.019,-0.321 -0.304,-0.573 -0.543,-1.187 -0.706,-1.831 -0.165,-0.644 -0.251,-1.319 -0.251,-2.014 0,-1.134 0.231,-2.216 0.648,-3.2 0.418,-0.985 1.022,-1.871 1.768,-2.617 0.743,-0.742 1.629,-1.344 2.614,-1.76 0.985,-0.416 2.067,-0.647 3.203,-0.647 1.139,0 2.223,0.231 3.209,0.647 0.985,0.416 1.871,1.018 2.614,1.76 0.746,0.746 1.349,1.632 1.765,2.617 0.416,0.984 0.645,2.066 0.645,3.2 0,0.718 -0.091,1.413 -0.263,2.077 -0.172,0.663 -0.425,1.293 -0.747,1.879 -0.043,0.078 -0.043,0.165 -0.012,0.239 0.032,0.073 0.096,0.134 0.18,0.16 0.507,0.156 0.938,0.41 1.243,0.726 0.304,0.317 0.481,0.696 0.481,1.104 z"
         style="fill:none;stroke:#ff0000;stroke-width:0.38px"
         id="path170" />
    </g>
  </g>
</svg>
