<?xml version="1.0" encoding="UTF-8" standalone="no"?>
<!-- Created with Inkscape (http://www.inkscape.org/) -->

<svg
   width="66.567131mm"
   height="80.040436mm"
   viewBox="0 0 66.567131 80.040436"
   version="1.1"
   id="svg291"
   xmlns="http://www.w3.org/2000/svg"
   xmlns:svg="http://www.w3.org/2000/svg">
  <defs
     id="defs288" />
  <g
     id="layer1"
     transform="translate(-249.8523,-28.947925)">
    <g
       transform="matrix(0.70555643,0,0,0.70555643,310.52804,71.41325)"
       id="g176"
       style="clip-rule:evenodd;fill-rule:evenodd;stroke-linejoin:round;stroke-miterlimit:2">
      <path
         d="m 0,-6.931 -0.372,-0.53 -0.371,-0.531 c 0.292,-0.027 0.571,-0.067 0.837,-0.127 0.267,-0.06 0.52,-0.139 0.76,-0.247 l -0.427,0.718 z m -34.277,52.937 c -0.139,0.281 -0.317,0.546 -0.516,0.798 -0.199,0.252 -0.418,0.491 -0.637,0.715 -0.019,0.02 -0.045,0.027 -0.069,0.021 -0.023,-0.005 -0.045,-0.021 -0.055,-0.046 l -0.325,-0.824 -0.326,-0.826 c -0.023,-0.058 -0.009,-0.119 0.025,-0.162 0.034,-0.044 0.091,-0.069 0.154,-0.059 l 0.842,0.131 0.843,0.131 c 0.028,0.005 0.05,0.022 0.063,0.045 0.011,0.023 0.014,0.05 10e-4,0.076 m 0.361,-3.541 -0.775,-0.121 -0.776,-0.122 c -0.068,-0.01 -0.118,-0.055 -0.14,-0.113 -0.022,-0.057 -0.016,-0.124 0.028,-0.178 l 1.036,-1.282 c 0.024,-0.03 0.06,-0.043 0.094,-0.041 0.034,0.003 0.067,0.022 0.086,0.055 0.151,0.266 0.28,0.536 0.387,0.815 0.106,0.279 0.19,0.568 0.248,0.868 0.005,0.026 -0.042,0.056 -0.09,0.079 -0.049,0.024 -0.098,0.04 -0.098,0.04 m -10.299,1.915 0.904,0.134 0.903,0.136 c 0.04,0.006 0.07,0.032 0.083,0.065 0.013,0.034 0.01,0.073 -0.015,0.105 l -1.116,1.428 c -0.025,0.032 -0.064,0.048 -0.101,0.046 -0.038,-10e-4 -0.074,-0.021 -0.097,-0.056 -0.175,-0.277 -0.321,-0.557 -0.436,-0.85 -0.115,-0.292 -0.2,-0.595 -0.252,-0.922 -0.003,-0.017 0.029,-0.04 0.061,-0.056 0.033,-0.018 0.066,-0.03 0.066,-0.03 M -6.612,-20.337 V -20.6 c 0.06,0 0.119,0 0.177,-0.003 0.057,-0.003 0.112,-0.009 0.161,-0.021 0.017,-0.004 0.024,0.005 0.024,0.019 0,0.014 -0.008,0.034 -0.023,0.053 -0.06,0.076 -0.118,0.162 -0.168,0.228 -0.05,0.068 -0.093,0.117 -0.122,0.122 -0.016,0.003 -0.028,-0.004 -0.036,-0.026 -0.009,-0.021 -0.013,-0.057 -0.013,-0.109 m 0.374,5.323 c -0.267,-0.214 -0.387,-0.294 -0.353,-0.307 0.034,-0.013 0.221,0.041 0.568,0.093 h 0.639 c -0.08,0.135 -0.146,0.268 -0.199,0.401 -0.053,0.132 -0.093,0.264 -0.121,0.396 -0.055,-0.107 -0.173,-0.242 -0.285,-0.355 -0.112,-0.114 -0.218,-0.206 -0.249,-0.228 m 4.108,9.414 -0.906,0.107 -0.905,0.108 c 0,-0.056 0,-0.135 -0.007,-0.221 -0.008,-0.086 -0.021,-0.178 -0.049,-0.258 -0.055,-0.346 -0.269,-0.546 -0.555,-0.652 -0.286,-0.106 -0.645,-0.12 -0.992,-0.096 -1.118,0 -1.058,0.03 -0.748,-0.122 0.309,-0.15 0.868,-0.482 0.748,-1.202 -0.132,-0.534 -0.718,-0.735 -1.492,-0.748 -0.774,-0.015 -1.735,0.159 -2.615,0.374 -1.281,0.318 -1.987,0.558 -2.039,0.564 -0.054,0.006 0.547,-0.221 1.879,-0.834 2.054,-0.957 2.881,-1.741 2.728,-2.498 -0.152,-0.757 -1.285,-1.489 -3.152,-2.341 -1.12,-0.506 -1.627,-0.705 -1.58,-0.705 0.047,0 0.647,0.199 1.74,0.49 0.746,0.187 1.612,0.374 2.378,0.441 0.765,0.067 1.431,0.013 1.779,-0.281 -0.025,0.08 -0.038,0.173 -0.043,0.267 -0.007,0.093 -0.007,0.187 -0.007,0.266 0,1.031 0.284,1.938 0.792,2.699 0.509,0.762 1.24,1.376 2.137,1.821 l -0.268,0.18 c -0.103,0.069 -0.168,0.173 -0.192,0.286 -0.022,0.113 -0.003,0.235 0.064,0.339 l 0.652,1.008 z M -0.423,0.257 -1.357,0.309 -2.29,0.361 -2.717,-0.36 -3.144,-1.079 c 0.243,-0.323 0.378,-0.583 0.412,-0.859 0.034,-0.275 -0.034,-0.564 -0.197,-0.945 l 1.198,-0.079 1.197,-0.08 0.507,0.769 0.506,0.77 c -0.175,0.175 -0.401,0.491 -0.583,0.825 -0.182,0.334 -0.319,0.686 -0.319,0.935 M -0.104,6.052 -1.792,6.028 -3.481,6.004 -2.833,4.406 -2.186,2.808 -1.252,2.781 -0.319,2.753 c 0.095,0.285 0.255,0.604 0.444,0.906 0.19,0.301 0.409,0.584 0.624,0.799 L 0.322,5.256 Z m 0.853,3.779 0.292,0.398 0.292,0.399 C 1.148,10.682 0.949,10.736 0.749,10.797 0.548,10.856 0.347,10.922 0.16,11.002 l 0.295,-0.586 z m -14.661,12.29 0.957,-0.053 0.958,-0.052 2.423,2.016 2.424,2.016 c 0.029,0.024 0.029,0.059 0.014,0.084 -0.015,0.026 -0.047,0.041 -0.081,0.027 l -2.924,-1.194 -2.924,-1.195 -0.424,-0.825 z m -1.762,6.598 c 0.426,0.211 0.907,0.172 1.26,-0.047 0.354,-0.219 0.581,-0.619 0.502,-1.124 l 1.436,1.834 1.437,1.833 c -0.901,0 -1.725,0.043 -2.535,0.162 -0.81,0.117 -1.607,0.309 -2.454,0.606 -0.053,0.019 -0.105,0.006 -0.143,-0.025 -0.037,-0.032 -0.059,-0.081 -0.05,-0.136 l 0.274,-1.551 z m 2.381,10.788 -1.425,-2.368 -1.424,-2.367 c -0.031,-0.053 -0.035,-0.112 -0.017,-0.165 0.019,-0.053 0.06,-0.098 0.117,-0.118 0.207,-0.077 0.387,-0.147 0.569,-0.216 0.182,-0.068 0.367,-0.136 0.581,-0.207 0.251,-0.085 0.511,-0.161 0.79,-0.23 0.28,-0.07 0.578,-0.133 0.907,-0.191 0.042,-0.008 0.08,0.009 0.105,0.037 0.024,0.028 0.035,0.068 0.022,0.108 -0.042,0.13 -0.084,0.259 -0.12,0.39 -0.036,0.13 -0.066,0.26 -0.086,0.39 -0.052,0.376 -0.044,0.789 0.024,1.215 0.069,0.426 0.197,0.865 0.386,1.296 0.021,0.048 0.031,0.099 0.031,0.15 -10e-4,0.051 -0.013,0.103 -0.036,0.15 -0.197,0.4 -0.341,0.728 -0.405,1.06 -0.063,0.332 -0.045,0.668 0.081,1.084 0.017,0.057 -0.008,0.053 -0.037,0.034 -0.03,-0.018 -0.063,-0.052 -0.063,-0.052 M -41.909,25.365 c 0,0.726 0.05,1.376 0.199,1.98 0.149,0.605 0.397,1.165 0.793,1.716 0.047,0.066 0.042,0.141 0.005,0.196 -0.037,0.055 -0.106,0.09 -0.184,0.074 -0.046,-0.01 -0.092,-0.017 -0.139,-0.022 -0.046,-0.005 -0.093,-0.008 -0.14,-0.008 -0.176,0 -0.366,0.046 -0.55,0.122 -0.185,0.076 -0.365,0.181 -0.521,0.302 -0.01,0.008 -0.035,-0.004 -0.058,-0.016 -0.023,-0.013 -0.044,-0.028 -0.044,-0.028 l -0.055,-0.11 -0.055,-0.109 c -0.068,-0.182 -0.166,-0.343 -0.284,-0.482 -0.119,-0.139 -0.258,-0.254 -0.41,-0.341 -0.035,-0.02 -0.052,-0.053 -0.053,-0.089 0,-0.034 0.016,-0.069 0.048,-0.092 0.422,-0.303 0.707,-0.71 0.904,-1.211 0.198,-0.501 0.309,-1.098 0.385,-1.779 0.027,-0.014 0.059,-0.035 0.089,-0.053 0.029,-0.02 0.055,-0.038 0.07,-0.05 m -18.13,1.33 c -0.188,-0.453 0.12,-1.012 0.593,-1.384 0.474,-0.371 1.113,-0.556 1.592,-0.265 0.136,0.505 -0.197,1.078 -0.671,1.443 -0.474,0.366 -1.087,0.525 -1.514,0.206 m -2.56,-0.853 1.04,-2.394 1.041,-2.395 c 0,0 0,-0.012 0.007,-0.024 0.007,-0.013 0.021,-0.024 0.048,-0.024 0.479,0.342 1.025,0.462 1.632,0.417 0.606,-0.046 1.272,-0.258 1.991,-0.578 0.107,0.105 0.24,0.199 0.387,0.279 0.147,0.081 0.307,0.148 0.466,0.2 -0.33,0.277 -0.648,0.603 -0.936,0.978 -0.288,0.374 -0.546,0.798 -0.758,1.27 -0.018,0.042 -0.049,0.074 -0.088,0.096 -0.038,0.02 -0.082,0.029 -0.128,0.024 -0.795,-0.093 -1.728,0.284 -2.43,0.864 -0.701,0.58 -1.172,1.364 -1.045,2.085 l -0.599,0.512 -0.6,0.513 c -0.019,0.015 -0.043,0.013 -0.059,0.001 -0.016,-0.012 -0.025,-0.034 -0.014,-0.057 0.127,-0.251 0.184,-0.536 0.186,-0.836 0.002,-0.3 -0.05,-0.615 -0.141,-0.931 m -2.788,0.579 -0.092,-1.59 c 0.614,-0.399 0.855,-1.316 0.782,-2.253 -0.073,-0.938 -0.459,-1.896 -1.101,-2.377 0.295,-0.745 0.468,-1.477 0.521,-2.168 0.053,-0.692 -0.015,-1.343 -0.202,-1.929 l 0.203,-0.015 0.202,-0.016 c 0.061,-0.004 0.113,-0.037 0.144,-0.083 0.031,-0.046 0.042,-0.106 0.024,-0.164 l -0.551,-1.747 -0.55,-1.746 0.933,0.557 0.934,0.559 0.346,0.62 0.347,0.621 c 0.016,0.028 0.037,0.053 0.062,0.072 0.026,0.02 0.055,0.034 0.087,0.041 l 1.595,0.387 1.596,0.387 c 0.045,0.011 0.074,0.046 0.081,0.085 0.008,0.039 -0.005,0.082 -0.042,0.11 -0.737,0.563 -1.294,1.142 -1.571,1.786 -0.278,0.644 -0.275,1.352 0.108,2.17 0.028,0.025 0.053,0.064 0.08,0.103 0.026,0.039 0.052,0.079 0.079,0.106 -0.131,0.028 -0.251,0.081 -0.351,0.161 -0.1,0.079 -0.179,0.186 -0.232,0.318 l -1.068,2.394 -1.068,2.395 c -0.296,0.136 -0.563,0.311 -0.776,0.521 -0.213,0.21 -0.371,0.454 -0.449,0.73 -0.014,0.048 -0.032,0.039 -0.046,0.017 -0.014,-0.02 -0.025,-0.052 -0.025,-0.052 m -6.593,1.654 c -0.268,0.374 -0.894,0.389 -1.454,0.169 -0.559,-0.219 -1.051,-0.672 -1.051,-1.23 0.371,-0.374 1.037,-0.387 1.59,-0.169 0.554,0.22 0.994,0.672 0.915,1.23 m -1.388,-7.549 -0.399,-0.666 -0.4,-0.665 v -2.128 l 2.61,2.87 0.482,-0.772 0.482,-0.774 -1.707,-1.833 -1.707,-1.834 -0.079,-1.622 -0.081,-1.622 2.506,2.526 2.505,2.528 c -0.028,0.638 0.066,1.289 0.28,1.947 0.214,0.658 0.548,1.324 1.003,1.989 -0.534,0.611 -0.695,1.621 -0.55,2.545 0.146,0.925 0.599,1.764 1.293,2.031 l 0.129,0.752 0.129,0.751 c 0.005,0.028 -0.01,0.048 -0.03,0.055 -0.02,0.008 -0.045,0.003 -0.06,-0.02 -0.145,-0.23 -0.354,-0.422 -0.602,-0.574 -0.249,-0.151 -0.538,-0.261 -0.843,-0.327 l -1.548,-2.072 -1.547,-2.073 c -0.132,-0.188 -0.331,-0.309 -0.538,-0.349 -0.206,-0.041 -0.419,-0.001 -0.579,0.134 -0.188,0.132 -0.309,0.331 -0.349,0.537 -0.041,0.207 -10e-4,0.42 0.134,0.579 l 1.599,2.155 1.6,2.157 c -0.022,0.295 -0.011,0.59 0.046,0.863 0.055,0.272 0.155,0.521 0.309,0.724 0.02,0.026 0.016,0.056 0,0.077 -0.016,0.02 -0.044,0.03 -0.074,0.015 l -0.675,-0.337 -0.675,-0.336 c -0.023,-0.719 -0.643,-1.375 -1.445,-1.79 -0.803,-0.415 -1.789,-0.589 -2.544,-0.345 -0.036,0.01 -0.069,-0.001 -0.092,-0.024 -0.023,-0.023 -0.034,-0.057 -0.024,-0.093 l 0.721,-2.49 z m 1.228,-11.708 1.048,4.246 c 0.009,0.039 -0.01,0.071 -0.038,0.087 -0.028,0.016 -0.066,0.015 -0.094,-0.014 l -2.998,-3.092 -0.049,-1.191 -0.05,-1.191 c -0.001,-0.026 0.012,-0.047 0.032,-0.059 0.019,-0.012 0.044,-0.014 0.067,-0.001 l 1.041,0.608 z m -0.977,-21.448 1.367,-0.075 1.366,-0.076 -0.439,1.022 -0.439,1.023 c -0.023,0.053 -0.023,0.11 -0.006,0.161 0.018,0.052 0.054,0.097 0.104,0.125 l 0.924,0.512 0.924,0.511 0.027,0.025 0.028,0.024 0.099,1.054 0.099,1.055 c 0.005,0.051 0.029,0.096 0.064,0.129 0.035,0.032 0.082,0.053 0.133,0.054 l 1.107,0.026 1.108,0.025 -0.627,1.2 -0.626,1.199 c -0.022,0.042 -0.025,0.089 -0.012,0.131 0.014,0.042 0.043,0.079 0.085,0.101 l 1.18,0.614 -0.746,2.367 -0.747,2.367 -2.768,1.754 0.783,-2.948 0.784,-2.949 c 0.041,-0.153 -0.033,-0.284 -0.146,-0.348 -0.113,-0.065 -0.263,-0.063 -0.375,0.051 l -2.15,2.168 -2.151,2.168 0.081,-1.623 0.079,-1.622 3.376,-3.634 c 0.026,-0.028 0.04,-0.063 0.044,-0.098 0.003,-0.035 -0.006,-0.072 -0.026,-0.104 l -0.784,-1.214 c -0.027,-0.041 -0.069,-0.065 -0.113,-0.069 -0.044,-0.003 -0.09,0.012 -0.123,0.048 l -1.266,1.364 -1.268,1.365 v -2.184 l 0.4,-0.662 0.399,-0.662 -0.718,-2.53 -0.719,-2.53 c 0.264,-0.027 0.517,-0.053 0.764,-0.093 0.248,-0.039 0.489,-0.091 0.728,-0.17 l 0.021,0.404 0.021,0.405 c 0.002,0.041 0.02,0.076 0.048,0.102 0.028,0.025 0.066,0.039 0.106,0.037 m 4.754,-10.325 0.444,0.724 0.443,0.724 c 0.03,0.049 0.029,0.106 0.006,0.151 -0.022,0.045 -0.067,0.079 -0.124,0.085 l -0.66,0.057 -0.659,0.058 c -0.058,0.006 -0.109,-0.02 -0.142,-0.06 -0.033,-0.04 -0.047,-0.096 -0.029,-0.152 l 0.239,-0.778 0.24,-0.778 c 0.017,-0.055 0.063,-0.088 0.111,-0.093 0.049,-0.007 0.1,0.013 0.131,0.062 m 48.023,1.723 c -0.179,-0.227 -0.332,-0.546 -0.441,-0.922 -0.109,-0.377 -0.174,-0.811 -0.174,-1.268 0,-0.69 0.148,-1.315 0.375,-1.768 0.227,-0.453 0.534,-0.734 0.853,-0.734 0.348,0 0.666,0.281 0.899,0.734 0.233,0.453 0.379,1.078 0.379,1.768 0,0.574 -0.1,1.111 -0.267,1.542 -0.166,0.431 -0.4,0.758 -0.667,0.911 -0.159,0.096 -0.351,0.089 -0.527,0.03 -0.175,-0.06 -0.335,-0.174 -0.43,-0.293 m 7.864,11.113 h -3.788 c 0.028,-0.056 0.042,-0.123 0.049,-0.197 0.007,-0.073 0.007,-0.153 0.007,-0.233 0,-0.184 -0.014,-0.356 -0.041,-0.522 -0.027,-0.166 -0.067,-0.327 -0.119,-0.49 h 3.892 c 0.187,0 0.361,0.082 0.488,0.215 0.126,0.135 0.206,0.322 0.206,0.533 0,0.188 -0.08,0.361 -0.206,0.487 -0.127,0.126 -0.301,0.207 -0.488,0.207 z m 2.131,9.788 -0.691,1.302 -0.691,1.304 -3.628,-1.49 c -0.187,-0.292 -0.415,-0.597 -0.661,-0.896 -0.246,-0.299 -0.512,-0.591 -0.776,-0.858 -0.933,-0.957 -1.493,-1.449 -1.52,-1.496 -0.027,-0.047 0.479,0.351 1.68,1.177 1.839,1.302 2.931,1.635 3.518,1.13 0.586,-0.504 0.666,-1.848 0.479,-3.896 -0.132,-1.199 -0.226,-1.745 -0.207,-1.718 0.02,0.027 0.152,0.626 0.471,1.718 0.215,0.797 0.496,1.674 0.835,2.379 0.341,0.704 0.74,1.236 1.191,1.344 m 1.602,-2.981 c -0.613,-0.347 -1.094,-0.785 -1.381,-1.21 -0.287,-0.425 -0.381,-0.836 -0.221,-1.127 0.187,-0.294 0.588,-0.416 1.095,-0.376 0.507,0.039 1.121,0.239 1.735,0.584 1.446,0.817 1.848,1.748 1.535,2.277 -0.314,0.528 -1.345,0.652 -2.763,-0.148 m 3.463,3.777 -1.293,0.071 -1.292,0.07 C -7.96,0.611 -8.044,0.655 -8.103,0.72 -8.162,0.786 -8.196,0.874 -8.191,0.968 l 0.043,0.865 0.044,0.865 -0.427,0.027 -0.427,0.028 -0.534,-3.508 c 0.055,-0.108 0.096,-0.214 0.128,-0.328 0.033,-0.114 0.059,-0.233 0.087,-0.365 0.052,-0.319 0.052,-0.452 0.079,-0.426 0.027,0.026 0.081,0.212 0.24,0.53 0.135,0.347 0.335,0.733 0.601,1.006 0.267,0.273 0.6,0.432 1.002,0.325 0.479,-0.159 0.704,-0.532 0.81,-0.878 0.106,-0.346 0.092,-0.664 0.092,-0.717 l 0.587,1.037 z m 2.556,10.617 c -0.027,0.049 -0.031,0.106 -0.015,0.157 0.015,0.05 0.051,0.095 0.102,0.12 l 0.066,0.033 0.066,0.032 -3.954,1.543 -3.955,1.543 c -0.033,0.013 -0.067,0.009 -0.096,-0.007 -0.028,-0.017 -0.048,-0.045 -0.053,-0.08 -0.047,-0.4 -0.291,-0.73 -0.615,-0.908 -0.324,-0.178 -0.727,-0.205 -1.092,0.002 -0.033,0.019 -0.069,0.013 -0.094,-0.007 -0.024,-0.018 -0.037,-0.051 -0.024,-0.087 l 0.675,-1.852 0.674,-1.852 1.228,-2.336 4.372,1.754 -1.278,-1.917 -1.277,-1.916 1.332,-0.957 1.333,-0.956 -0.352,0.771 -0.352,0.77 c -0.029,0.062 -0.031,0.13 -0.012,0.191 0.019,0.061 0.06,0.115 0.119,0.15 l 0.937,0.549 0.937,0.55 0.095,1.011 0.095,1.013 c 0.007,0.075 0.042,0.142 0.093,0.19 0.052,0.047 0.121,0.077 0.195,0.079 l 1.069,0.024 1.068,0.026 -0.644,1.183 z m -10.255,5.521 2.866,-1.145 2.866,-1.146 c 0.039,-0.015 0.073,0.002 0.09,0.029 0.016,0.029 0.015,0.067 -0.016,0.093 l -2.389,1.988 -2.389,1.987 c -0.014,0.012 -0.031,0.021 -0.049,0.026 -0.018,0.006 -0.038,0.008 -0.057,0.007 l -1.672,-0.14 c -0.044,-0.004 -0.079,-0.028 -0.098,-0.062 -0.019,-0.034 -0.022,-0.077 -0.002,-0.115 l 0.722,-1.406 c 0.014,-0.026 0.032,-0.049 0.053,-0.069 0.022,-0.019 0.047,-0.035 0.075,-0.047 m -3.549,-9.594 3.948,-0.16 0.264,1.81 0.264,1.809 -0.853,1.122 -0.852,1.122 c -0.023,0.029 -0.057,0.036 -0.087,0.026 -0.029,-0.01 -0.052,-0.037 -0.054,-0.075 -0.018,-0.421 -0.248,-0.746 -0.563,-0.927 -0.315,-0.181 -0.716,-0.218 -1.073,-0.064 -0.036,0.015 -0.076,0.011 -0.107,-0.006 -0.032,-0.019 -0.056,-0.05 -0.064,-0.089 l -0.411,-2.284 z m -0.731,1.696 0.487,3.049 0.486,3.047 c 0.007,0.044 0.006,0.089 -0.004,0.132 -0.009,0.043 -0.026,0.084 -0.051,0.121 l -0.856,1.286 c -0.03,0.045 -0.078,0.067 -0.126,0.066 -0.048,-10e-4 -0.095,-0.025 -0.123,-0.071 l -0.389,-0.644 -0.39,-0.644 c -0.021,-0.035 -0.035,-0.073 -0.044,-0.113 -0.007,-0.039 -0.008,-0.08 -0.002,-0.12 l 0.884,-6.108 c 0.006,-0.036 0.034,-0.055 0.064,-0.056 0.029,0 0.058,0.019 0.064,0.055 m 1.21,-5.841 c 0.187,0.052 0.375,0.078 0.541,0.057 0.167,-0.021 0.313,-0.088 0.417,-0.223 0.055,-0.052 0.109,-0.105 0.149,-0.163 0.04,-0.06 0.066,-0.125 0.066,-0.205 l 1.332,1.968 -1.519,1.117 -1.52,1.116 -0.104,-0.559 -0.105,-0.557 c 0.132,0 0.252,-0.028 0.365,-0.075 0.113,-0.046 0.219,-0.113 0.323,-0.189 0.144,-0.129 0.23,-0.273 0.271,-0.427 0.042,-0.153 0.039,-0.315 0.005,-0.481 -0.147,-0.733 -0.583,-1.157 -0.792,-1.359 -0.209,-0.202 -0.19,-0.18 0.571,-0.02 m -7.585,6.624 0.76,1.993 0.761,1.993 c 0.014,0.038 0.002,0.074 -0.024,0.095 -0.025,0.021 -0.063,0.029 -0.099,0.012 -0.389,-0.194 -0.8,-0.151 -1.12,0.044 -0.32,0.194 -0.55,0.54 -0.579,0.955 -0.002,0.022 -0.013,0.04 -0.029,0.051 -0.016,0.011 -0.037,0.015 -0.058,0.007 l -4.225,-1.527 -4.225,-1.526 c -0.548,-0.235 -1.147,-0.278 -1.785,-0.217 -0.639,0.061 -1.317,0.226 -2.021,0.408 -0.028,0.008 -0.056,0.01 -0.084,0.006 -0.028,-0.004 -0.055,-0.013 -0.08,-0.026 l -0.634,-0.352 -0.633,-0.351 c -0.029,-0.016 -0.053,-0.039 -0.07,-0.066 -0.018,-0.026 -0.029,-0.058 -0.032,-0.091 l -0.069,-0.813 -0.07,-0.814 c -0.003,-0.04 0.005,-0.079 0.024,-0.113 0.018,-0.034 0.046,-0.063 0.081,-0.082 l 0.547,-0.297 0.548,-0.297 c 0.021,-0.012 0.044,-0.018 0.067,-0.021 0.024,-0.003 0.048,-0.002 0.072,0.004 1.237,0.303 2.794,0.376 3.961,-0.072 1.166,-0.447 1.943,-1.415 1.621,-3.191 0.945,-0.684 1.59,-1.337 1.842,-2.077 0.252,-0.741 0.113,-1.569 -0.51,-2.602 -0.132,-0.181 -0.274,-0.338 -0.417,-0.468 -0.142,-0.13 -0.284,-0.235 -0.414,-0.315 -0.006,-0.005 -0.011,-0.011 -0.012,-0.017 -0.002,-0.006 0,-0.013 0.004,-0.02 0.05,-0.078 0.101,-0.168 0.153,-0.257 0.051,-0.09 0.102,-0.178 0.152,-0.254 0.531,-1.012 0.486,-0.96 0.471,-0.601 -0.015,0.359 -0.002,1.024 0.646,1.239 0.534,0.159 0.989,-0.239 1.375,-0.898 0.387,-0.657 0.706,-1.574 0.97,-2.451 0.114,-0.384 0.206,-0.719 0.28,-1 0.074,-0.281 0.13,-0.51 0.172,-0.681 0.029,-0.123 0.057,-0.165 0.073,-0.144 0.016,0.021 0.021,0.104 0.006,0.234 -0.021,0.165 -0.054,0.363 -0.091,0.619 -0.037,0.256 -0.078,0.572 -0.114,0.972 -0.187,2.233 0.092,3.349 0.831,3.608 0.739,0.259 1.938,-0.339 3.59,-1.535 0.988,-0.717 1.428,-1.064 1.421,-1.031 -0.006,0.033 -0.461,0.445 -1.262,1.246 -0.666,0.662 -1.386,1.446 -1.833,2.163 -0.447,0.718 -0.62,1.369 -0.193,1.768 0.162,0.159 0.364,0.226 0.584,0.227 0.22,0.001 0.46,-0.065 0.699,-0.172 0.319,-0.104 0.439,-0.17 0.432,-0.137 -0.007,0.033 -0.14,0.165 -0.327,0.456 -0.24,0.294 -0.479,0.667 -0.586,1.039 -0.107,0.373 -0.08,0.745 0.211,1.04 0.267,0.236 0.574,0.302 0.868,0.282 0.294,-0.02 0.575,-0.126 0.79,-0.233 0.184,-0.108 0.25,-0.173 0.25,-0.159 0,0.013 -0.066,0.107 -0.146,0.318 -0.132,0.534 -0.092,1.173 0.12,1.719 0.213,0.546 0.598,0.998 1.157,1.158 0.353,0.07 0.675,0.043 0.956,-0.082 0.279,-0.125 0.518,-0.348 0.702,-0.666 l -0.307,2.043 -0.306,2.043 c -0.006,0.04 -0.03,0.072 -0.062,0.091 -0.031,0.019 -0.071,0.024 -0.108,0.008 -0.383,-0.158 -0.793,-0.118 -1.112,0.073 -0.32,0.189 -0.548,0.528 -0.567,0.966 -0.001,0.032 -0.022,0.055 -0.047,0.063 -0.026,0.009 -0.056,0.003 -0.076,-0.022 l -1.34,-1.687 -1.339,-1.686 c -0.04,-0.05 -0.099,-0.052 -0.142,-0.028 -0.043,0.025 -0.071,0.076 -0.049,0.136 m 1.304,12.428 0.768,0.063 0.769,0.064 c 0.062,0.005 0.112,0.042 0.138,0.091 0.026,0.049 0.028,0.111 -0.003,0.165 l -0.726,1.274 c -0.016,0.028 -0.036,0.053 -0.06,0.074 -0.024,0.021 -0.052,0.037 -0.081,0.05 l -2.852,1.143 -2.852,1.144 c -0.038,0.016 -0.073,-0.002 -0.089,-0.03 -0.017,-0.029 -0.015,-0.067 0.017,-0.093 l 4.764,-3.882 c 0.029,-0.023 0.062,-0.041 0.098,-0.052 0.035,-0.01 0.072,-0.015 0.109,-0.011 m -12.113,-1.285 c 0.132,-0.053 0.265,-0.107 0.392,-0.174 0.127,-0.068 0.246,-0.149 0.351,-0.256 0.74,0.343 1.44,0.581 2.074,0.626 0.634,0.045 1.203,-0.105 1.68,-0.539 0.011,-0.01 0.024,-0.018 0.037,-0.022 0.013,-0.004 0.028,-0.006 0.042,-0.004 l 2.179,0.334 2.179,0.333 c 0.018,0.003 0.03,0.017 0.032,0.032 0.003,0.014 -0.002,0.031 -0.019,0.039 -0.402,0.203 -0.605,0.569 -0.616,0.946 -0.013,0.378 0.166,0.766 0.525,1.013 0.024,0.016 0.038,0.042 0.04,0.068 0.002,0.026 -0.008,0.053 -0.031,0.072 l -2.473,2.059 -2.474,2.059 c -0.07,0.059 -0.157,0.057 -0.222,0.018 -0.064,-0.039 -0.107,-0.115 -0.088,-0.204 0.039,-0.184 0.07,-0.371 0.091,-0.562 0.022,-0.189 0.034,-0.38 0.034,-0.571 0,-1.153 -0.381,-2.286 -1.038,-3.223 -0.657,-0.936 -1.59,-1.677 -2.695,-2.044 m -1.867,1.593 c 0.507,0 0.987,0.094 1.427,0.275 0.44,0.179 0.839,0.446 1.183,0.793 0.322,0.319 0.589,0.704 0.776,1.142 0.186,0.439 0.292,0.931 0.292,1.464 0,0.503 -0.106,0.982 -0.292,1.414 -0.187,0.432 -0.454,0.819 -0.776,1.137 -0.344,0.347 -0.743,0.626 -1.183,0.818 -0.44,0.193 -0.92,0.298 -1.427,0.298 -0.506,0 -0.986,-0.105 -1.427,-0.298 -0.441,-0.192 -0.841,-0.471 -1.188,-0.818 -0.319,-0.318 -0.585,-0.703 -0.77,-1.135 -0.186,-0.432 -0.292,-0.91 -0.292,-1.416 0,-1.039 0.396,-1.958 1.053,-2.616 0.658,-0.659 1.578,-1.058 2.624,-1.058 m -4.19,-5.964 0.576,0.349 0.575,0.348 c 0.187,0.717 0.387,1.423 0.666,2.028 0.28,0.605 0.639,1.111 1.145,1.431 -0.478,0.107 -0.931,0.28 -1.358,0.507 -0.427,0.225 -0.827,0.504 -1.202,0.823 -0.131,-0.506 -0.411,-0.972 -0.771,-1.424 -0.36,-0.452 -0.8,-0.891 -1.255,-1.342 v -1.61 c 0,-0.03 0.008,-0.058 0.021,-0.083 0.014,-0.027 0.033,-0.048 0.058,-0.065 l 0.697,-0.478 0.698,-0.479 c 0.022,-0.015 0.048,-0.023 0.074,-0.024 0.026,-0.001 0.053,0.006 0.076,0.019 M -42.817,3.141 v -1.29 c 0.963,-0.926 1.823,-2.212 2.019,-3.435 0.195,-1.224 -0.273,-2.384 -1.964,-3.059 -0.052,-0.427 -0.118,-0.825 -0.205,-1.184 -0.087,-0.359 -0.194,-0.677 -0.329,-0.944 0.399,-0.132 0.785,-0.292 1.146,-0.484 0.361,-0.193 0.695,-0.418 0.99,-0.681 l 1.868,-0.053 1.869,-0.053 c 0.044,-0.002 0.086,0.014 0.117,0.041 0.032,0.027 0.055,0.065 0.061,0.109 l 0.258,1.815 0.258,1.816 c 0.008,0.05 0.044,0.08 0.084,0.087 0.041,0.008 0.086,-0.009 0.109,-0.053 l 0.858,-1.596 0.858,-1.595 c 0.03,-0.057 0.079,-0.097 0.136,-0.117 0.056,-0.02 0.12,-0.02 0.179,0.005 l 0.526,0.221 0.525,0.22 c 0.043,0.018 0.084,0.04 0.122,0.065 0.039,0.026 0.075,0.055 0.109,0.088 0.048,0.047 0.101,0.1 0.157,0.154 0.055,0.055 0.112,0.113 0.17,0.17 0.24,0.215 0.345,0.283 0.312,0.289 -0.034,0.007 -0.208,-0.046 -0.527,-0.074 -0.374,-0.053 -0.827,-0.078 -1.206,0.008 -0.379,0.087 -0.685,0.286 -0.765,0.685 -0.08,0.346 0,0.652 0.153,0.904 0.153,0.252 0.378,0.451 0.59,0.586 0.188,0.104 0.267,0.118 0.247,0.119 -0.019,10e-4 -0.139,-0.012 -0.351,0.041 -0.507,0.132 -1.041,0.49 -1.408,0.956 -0.366,0.465 -0.566,1.037 -0.403,1.595 0.055,0.22 0.148,0.376 0.268,0.504 0.119,0.128 0.266,0.227 0.429,0.337 0.011,0.006 0.012,0.017 0.008,0.026 -0.004,0.009 -0.013,0.015 -0.025,0.012 -1.3,-0.296 -2.187,0.152 -2.818,0.932 -0.63,0.782 -1.004,1.893 -1.276,2.923 l -0.651,0.397 -0.65,0.395 c -0.06,0.036 -0.126,0.056 -0.194,0.06 -0.067,0.003 -0.135,-0.01 -0.198,-0.04 l -0.638,-0.308 -0.638,-0.307 c -0.055,-0.026 -0.1,-0.067 -0.132,-0.117 -0.031,-0.05 -0.048,-0.108 -0.048,-0.17 m -5.084,-5.202 c 0.187,0.006 0.418,0.153 0.662,0.371 0.244,0.219 0.501,0.507 0.738,0.792 0.02,0.025 0.049,0.029 0.074,0.021 0.025,-0.009 0.045,-0.032 0.046,-0.063 0.019,-1.19 -0.005,-2.355 0.05,-3.222 0.056,-0.869 0.191,-1.438 0.53,-1.438 0.335,0 0.47,0.57 0.528,1.431 0.057,0.86 0.036,2.009 0.056,3.167 10e-4,0.044 0.028,0.075 0.063,0.088 0.034,0.012 0.075,0.005 0.104,-0.027 0.324,-0.367 0.664,-0.723 0.966,-0.927 0.302,-0.202 0.566,-0.252 0.738,-0.009 0.185,0.295 -0.069,0.707 -0.482,1.172 -0.412,0.465 -0.985,0.984 -1.439,1.49 l -0.047,1.432 -0.048,1.434 c -10e-4,0.028 -0.013,0.054 -0.032,0.072 -0.019,0.019 -0.045,0.03 -0.073,0.031 -0.111,10e-4 -0.221,0.003 -0.33,0.004 -0.11,0.003 -0.219,0.005 -0.327,0.006 -0.028,0 -0.053,-0.01 -0.071,-0.028 -0.019,-0.018 -0.03,-0.043 -0.03,-0.071 -0.002,-0.585 -0.015,-1.306 -0.029,-1.879 -0.013,-0.574 -0.026,-1.001 -0.026,-1.001 -0.384,-0.405 -0.827,-0.825 -1.198,-1.219 -0.371,-0.393 -0.668,-0.76 -0.761,-1.057 -0.033,-0.117 -0.024,-0.262 0.031,-0.377 0.055,-0.115 0.156,-0.2 0.307,-0.193 m 6.95,-10.825 c 0,1.153 -0.459,2.204 -1.208,2.966 -0.749,0.761 -1.788,1.236 -2.948,1.236 -1.1,0 -2.101,-0.416 -2.85,-1.104 -0.75,-0.689 -1.249,-1.65 -1.344,-2.742 -0.107,-1.226 0.324,-2.367 1.091,-3.201 0.766,-0.834 1.868,-1.362 3.103,-1.362 1.148,0 2.187,0.485 2.939,1.253 0.752,0.768 1.217,1.82 1.217,2.954 m -0.121,-5.29 -0.053,0.105 -0.052,0.105 c -0.01,0.019 -0.027,0.032 -0.046,0.035 -0.02,0.004 -0.041,0 -0.057,-0.015 -0.147,-0.122 -0.299,-0.232 -0.456,-0.332 -0.158,-0.099 -0.321,-0.189 -0.491,-0.271 -0.104,-0.05 -0.169,-0.145 -0.187,-0.248 -0.019,-0.104 0.008,-0.216 0.086,-0.302 l 0.561,-0.616 0.562,-0.617 c 0.026,-0.029 0.064,-0.034 0.095,-0.022 0.03,0.012 0.054,0.041 0.054,0.08 v 2.029 c 0,0.012 -0.001,0.023 -0.004,0.035 -0.003,0.012 -0.006,0.023 -0.012,0.034 m 2.706,7.878 -0.593,0.439 -0.595,0.439 c -0.044,0.032 -0.094,0.023 -0.126,-0.007 -0.032,-0.029 -0.046,-0.078 -0.017,-0.125 0.143,-0.227 0.273,-0.467 0.385,-0.717 0.113,-0.249 0.208,-0.509 0.282,-0.775 0.025,-0.088 0.093,-0.142 0.17,-0.156 0.076,-0.014 0.158,0.013 0.211,0.087 l 0.169,0.241 0.168,0.24 c 0.038,0.054 0.051,0.118 0.041,0.178 -0.009,0.06 -0.042,0.117 -0.095,0.156 m 7.066,4.913 c 0.614,-0.319 1.24,-0.492 1.754,-0.513 0.513,-0.02 0.914,0.112 1.077,0.403 0.159,0.293 0.052,0.708 -0.249,1.127 -0.301,0.421 -0.795,0.847 -1.409,1.166 -1.541,0.8 -2.525,0.615 -2.778,0.049 -0.253,-0.565 0.224,-1.511 1.605,-2.232 m -2.772,5.321 c -0.088,-0.079 -0.186,-0.142 -0.293,-0.196 -0.107,-0.054 -0.222,-0.098 -0.346,-0.141 -0.009,-0.003 -0.013,-0.01 -0.012,-0.017 10e-4,-0.008 0.007,-0.014 0.017,-0.014 0.385,0.003 0.789,-0.098 1.146,-0.263 0.358,-0.165 0.671,-0.394 0.873,-0.649 0.083,-0.104 0.11,-0.156 0.117,-0.156 0.007,0 -0.007,0.052 -0.007,0.156 0,0.101 0.013,0.225 0.036,0.356 0.024,0.13 0.06,0.268 0.106,0.395 0.004,0.012 0.002,0.024 -0.004,0.034 -0.006,0.01 -0.017,0.017 -0.03,0.019 -0.264,0.029 -0.456,0.063 -0.674,0.136 -0.217,0.074 -0.461,0.184 -0.829,0.368 -0.007,0.003 -0.028,10e-4 -0.049,-0.005 -0.021,-0.006 -0.042,-0.015 -0.051,-0.023 m 6.814,14.476 2.886,1.157 2.886,1.158 c 0.017,0.007 0.032,0.017 0.047,0.029 0.013,0.011 0.025,0.026 0.034,0.042 l 0.402,0.705 0.401,0.704 c 0.018,0.032 0.017,0.067 0.002,0.095 -0.015,0.029 -0.044,0.05 -0.08,0.053 l -0.823,0.068 -0.823,0.069 c -0.038,0.003 -0.077,-0.001 -0.113,-0.013 -0.037,-0.011 -0.071,-0.029 -0.101,-0.054 l -4.786,-3.898 c -0.03,-0.024 -0.031,-0.061 -0.015,-0.087 0.015,-0.026 0.047,-0.043 0.083,-0.028 m 1.643,3.022 c -0.339,0.238 -0.512,0.617 -0.506,0.99 0.007,0.374 0.193,0.742 0.573,0.956 0.024,0.013 0.033,0.038 0.029,0.06 -0.004,0.023 -0.021,0.042 -0.048,0.046 l -2.017,0.298 -2.018,0.299 c -0.016,0.002 -0.028,-0.006 -0.035,-0.018 -0.006,-0.012 -0.005,-0.026 0.006,-0.038 0.111,-0.125 0.235,-0.294 0.347,-0.465 0.113,-0.171 0.214,-0.344 0.281,-0.477 0.394,-0.839 0.385,-1.563 0.084,-2.214 -0.302,-0.653 -0.897,-1.233 -1.675,-1.785 -0.019,-0.013 -0.032,-0.031 -0.041,-0.051 -0.009,-0.02 -0.011,-0.042 -0.009,-0.065 0.036,-0.249 0.022,-0.504 -0.025,-0.758 -0.048,-0.255 -0.13,-0.509 -0.233,-0.754 -0.045,-0.109 -10e-4,-0.21 0.077,-0.266 0.078,-0.056 0.19,-0.066 0.28,0.009 l 2.468,2.064 2.469,2.064 c 0.016,0.014 0.024,0.034 0.023,0.053 -0.002,0.02 -0.012,0.04 -0.03,0.052 m -5.734,0.694 c -0.183,0.285 -0.762,0.1 -1.557,-0.294 -0.794,-0.395 -1.803,-0.998 -2.846,-1.549 -0.023,-0.013 -0.048,-0.007 -0.064,0.008 -0.017,0.013 -0.025,0.038 -0.016,0.062 0.175,0.463 0.327,0.96 0.359,1.341 0.033,0.382 -0.054,0.646 -0.358,0.646 -0.305,0.024 -0.526,-0.352 -0.72,-0.902 -0.194,-0.551 -0.361,-1.275 -0.557,-1.949 -0.017,-0.06 -0.046,-0.114 -0.083,-0.162 -0.038,-0.048 -0.084,-0.089 -0.138,-0.12 l -2.248,-1.338 c -0.026,-0.016 -0.045,-0.04 -0.053,-0.068 -0.009,-0.026 -0.009,-0.056 0.004,-0.085 0.042,-0.088 0.088,-0.172 0.135,-0.255 0.047,-0.084 0.095,-0.168 0.139,-0.258 0.017,-0.035 0.047,-0.059 0.081,-0.07 0.035,-0.01 0.074,-0.007 0.108,0.012 0.429,0.237 0.919,0.508 1.35,0.746 0.431,0.238 0.802,0.443 0.993,0.547 0.044,0.025 0.091,0.04 0.14,0.047 0.048,0.007 0.098,0.005 0.147,-0.008 0.675,-0.166 1.386,-0.392 1.968,-0.507 0.581,-0.113 1.033,-0.114 1.19,0.169 0.151,0.276 -0.032,0.481 -0.373,0.642 -0.342,0.161 -0.843,0.28 -1.328,0.385 -0.029,0.005 -0.048,0.029 -0.051,0.053 -0.005,0.026 0.005,0.053 0.031,0.069 0.992,0.596 2.007,1.164 2.734,1.653 0.728,0.489 1.169,0.9 1.013,1.185 M -33.75,6.108 c -0.133,0.288 -0.605,0.277 -1.209,0.154 -0.604,-0.122 -1.34,-0.357 -2.002,-0.518 -0.014,-0.004 -0.028,-0.004 -0.041,-0.002 -0.014,0.002 -0.027,0.006 -0.04,0.013 l -1.24,0.68 -1.24,0.681 c -0.026,0.015 -0.055,0.016 -0.081,0.007 -0.025,-0.009 -0.047,-0.029 -0.059,-0.055 -0.045,-0.097 -0.097,-0.187 -0.152,-0.278 -0.057,-0.091 -0.116,-0.183 -0.177,-0.28 -0.014,-0.022 -0.018,-0.049 -0.012,-0.074 0.005,-0.024 0.02,-0.047 0.043,-0.061 0.451,-0.283 0.993,-0.611 1.455,-0.887 0.462,-0.276 0.844,-0.502 0.974,-0.578 0.016,-0.01 0.03,-0.022 0.04,-0.035 0.011,-0.014 0.019,-0.031 0.024,-0.048 0.184,-0.661 0.356,-1.404 0.56,-1.984 0.205,-0.578 0.442,-0.992 0.757,-0.992 0.311,0.025 0.395,0.301 0.356,0.695 -0.039,0.394 -0.201,0.906 -0.381,1.4 -0.005,0.015 0,0.028 0.01,0.036 0.01,0.009 0.024,0.012 0.038,0.004 1.053,-0.577 2.076,-1.19 2.874,-1.587 0.798,-0.395 1.372,-0.574 1.53,-0.284 0.184,0.287 -0.251,0.69 -0.988,1.179 -0.737,0.487 -1.776,1.059 -2.801,1.683 -0.017,0.011 -0.024,0.03 -0.021,0.047 0.004,0.018 0.016,0.032 0.037,0.036 0.492,0.083 1.005,0.203 1.357,0.374 0.352,0.17 0.543,0.391 0.389,0.674 m 1.388,-14.578 -0.297,-0.465 -0.296,-0.466 c -0.015,-0.023 -0.02,-0.05 -0.015,-0.074 0.004,-0.026 0.017,-0.049 0.038,-0.066 l 0.422,-0.331 0.422,-0.332 c 0.025,-0.02 0.056,-0.027 0.085,-0.022 0.029,0.005 0.056,0.022 0.075,0.048 0.211,0.305 0.577,0.622 1.078,0.944 0.502,0.322 1.14,0.651 1.896,0.979 0.246,0.11 0.458,0.205 0.637,0.286 0.179,0.082 0.325,0.15 0.442,0.205 0.111,0.054 0.142,0.087 0.124,0.103 -0.019,0.014 -0.084,0.01 -0.167,-0.013 -0.495,-0.137 -1.233,-0.358 -2.034,-0.533 -0.801,-0.175 -1.665,-0.305 -2.41,-0.263 m 9.861,-3.091 c -0.086,0.258 -0.126,0.488 -0.145,0.718 -0.018,0.231 -0.015,0.463 -0.015,0.724 h -3.997 c -0.215,0 -0.402,-0.081 -0.536,-0.207 -0.133,-0.126 -0.213,-0.299 -0.213,-0.487 0,-0.211 0.08,-0.398 0.213,-0.533 0.134,-0.133 0.321,-0.215 0.536,-0.215 z m 0,7.188 c -0.081,0.184 -0.24,0.303 -0.419,0.35 -0.18,0.047 -0.38,0.021 -0.539,-0.087 -0.187,-0.107 -0.307,-0.266 -0.36,-0.439 -0.053,-0.172 -0.039,-0.358 0.04,-0.517 l 0.958,-1.678 0.958,-1.677 c 0.187,0.187 0.374,0.361 0.575,0.507 0.2,0.146 0.413,0.266 0.653,0.346 l -0.933,1.597 z m -1.278,-12.186 c -0.079,-0.187 -0.093,-0.386 -0.04,-0.566 0.053,-0.179 0.173,-0.339 0.36,-0.446 0.159,-0.104 0.359,-0.116 0.539,-0.063 0.179,0.054 0.338,0.174 0.419,0.333 l 1.068,1.834 1.068,1.833 c -0.242,0.08 -0.469,0.174 -0.683,0.287 -0.213,0.113 -0.413,0.247 -0.6,0.406 l -1.065,-1.809 z m 5.557,19.496 c -0.071,0.546 -0.234,1.02 -0.452,1.357 -0.219,0.338 -0.494,0.538 -0.788,0.538 -0.32,-0.028 -0.613,-0.321 -0.826,-0.78 -0.213,-0.459 -0.347,-1.085 -0.347,-1.777 0,-0.693 0.147,-1.319 0.381,-1.771 0.234,-0.453 0.555,-0.732 0.902,-0.732 0.252,0 0.482,0.155 0.671,0.418 0.189,0.263 0.336,0.634 0.422,1.067 0.049,0.251 0.075,0.542 0.08,0.835 0.006,0.293 -0.009,0.587 -0.043,0.845 m 1,-11.143 1.812,3.14 c 0.079,0.159 0.093,0.345 0.047,0.517 -0.046,0.173 -0.152,0.332 -0.311,0.439 -0.188,0.108 -0.387,0.134 -0.567,0.087 -0.179,-0.047 -0.339,-0.166 -0.446,-0.35 l -0.881,-1.545 -0.881,-1.546 c 0.215,-0.077 0.428,-0.182 0.634,-0.309 0.207,-0.127 0.406,-0.274 0.593,-0.433 m -0.215,-4.894 c -0.184,-0.135 -0.397,-0.255 -0.624,-0.353 -0.227,-0.1 -0.468,-0.178 -0.708,-0.23 l 2.082,-3.618 c 0.107,-0.159 0.267,-0.279 0.446,-0.333 0.18,-0.053 0.379,-0.041 0.567,0.063 0.187,0.107 0.307,0.267 0.353,0.446 0.046,0.18 0.018,0.379 -0.089,0.566 l -1.013,1.73 z m -14.477,-5.605 c 0.274,-0.007 0.593,0.043 0.935,0.145 0.341,0.101 0.705,0.256 1.067,0.462 0.586,0.371 1.053,0.821 1.326,1.253 0.274,0.432 0.353,0.844 0.166,1.139 -0.187,0.291 -0.586,0.397 -1.085,0.343 -0.499,-0.054 -1.098,-0.267 -1.684,-0.613 -0.387,-0.233 -0.715,-0.498 -0.974,-0.771 -0.259,-0.272 -0.447,-0.551 -0.555,-0.811 -0.147,-0.362 -0.138,-0.644 0.004,-0.838 0.142,-0.195 0.417,-0.3 0.8,-0.309 m -1.676,4.967 c 0.108,0.531 0.68,0.73 1.446,0.743 0.766,0.013 1.726,-0.16 2.606,-0.375 0.565,-0.135 1.018,-0.258 1.354,-0.353 0.336,-0.096 0.556,-0.165 0.654,-0.193 0.126,-0.036 0.042,-0.006 -0.263,0.121 -0.305,0.126 -0.83,0.348 -1.585,0.695 -0.421,0.209 -0.789,0.405 -1.106,0.596 -0.317,0.191 -0.583,0.375 -0.797,0.559 -0.007,0.006 -0.013,0.01 -0.02,0.013 -0.008,0.002 -0.015,0.003 -0.023,0.004 l -2.528,0.046 c -0.032,10e-4 -0.062,-0.01 -0.085,-0.03 -0.022,-0.019 -0.038,-0.047 -0.042,-0.079 l -0.201,-1.513 -0.201,-1.512 c -0.002,-0.013 0.003,-0.025 0.011,-0.032 0.008,-0.008 0.02,-0.011 0.033,-0.008 0.1,0.021 0.212,0.032 0.33,0.037 0.117,0.005 0.24,0.005 0.362,0.005 0.393,-0.018 0.651,-0.06 0.797,-0.087 0.147,-0.028 0.182,-0.041 0.13,-0.004 -0.101,0.073 -0.195,0.145 -0.285,0.221 -0.091,0.076 -0.179,0.156 -0.268,0.245 0,0 -0.116,0.116 -0.214,0.287 -0.098,0.171 -0.179,0.397 -0.105,0.614 m -2.578,-3.807 0.161,-0.249 0.161,-0.25 c 0.018,-0.029 0.047,-0.045 0.077,-0.048 0.031,-0.004 0.063,0.006 0.088,0.029 0.203,0.185 0.428,0.335 0.658,0.445 0.229,0.111 0.462,0.181 0.684,0.207 0.028,0.006 0.069,0.013 0.083,0.029 0.014,0.016 0,0.041 -0.083,0.081 -0.212,0.104 -0.465,0.29 -0.645,0.543 -0.181,0.253 -0.288,0.573 -0.208,0.947 0.025,0.097 0.062,0.183 0.109,0.259 0.048,0.076 0.106,0.141 0.177,0.195 0.009,0.008 0.015,0.017 0.018,0.028 0.002,0.011 10e-4,0.022 -0.005,0.032 l -0.783,1.438 -0.784,1.438 c -0.019,0.033 -0.048,0.057 -0.082,0.069 -0.033,0.012 -0.071,0.011 -0.106,-0.004 l -1.059,-0.451 -1.059,-0.453 c 0,-0.187 -0.012,-0.36 -0.038,-0.532 -0.026,-0.173 -0.066,-0.345 -0.121,-0.529 l 0.325,-1.15 0.326,-1.15 c 0.013,-0.049 0.017,-0.1 0.01,-0.148 -0.006,-0.05 -0.022,-0.097 -0.048,-0.141 l -0.378,-0.636 -0.379,-0.636 c -0.005,-0.009 -0.009,-0.018 -0.012,-0.028 -0.002,-0.01 -0.003,-0.019 -0.003,-0.03 v -2.004 c 0,-0.045 0.027,-0.078 0.062,-0.092 0.035,-0.013 0.078,-0.008 0.108,0.026 l 1.276,1.391 1.277,1.391 c 0.027,0.029 0.064,0.042 0.1,0.039 0.036,-0.003 0.071,-0.022 0.093,-0.056 m -15.984,3.903 0.276,-0.017 0.276,-0.015 c 0.036,-0.003 0.069,0.012 0.091,0.036 0.023,0.024 0.035,0.058 0.03,0.094 -0.021,0.159 -0.033,0.357 -0.036,0.559 -0.003,0.203 0.003,0.411 0.019,0.592 0.002,0.032 -0.017,0.054 -0.042,0.061 -0.024,0.007 -0.052,-10e-4 -0.067,-0.029 l -0.313,-0.57 -0.312,-0.57 c -0.017,-0.031 -0.015,-0.065 0,-0.092 0.015,-0.027 0.043,-0.047 0.078,-0.049 m -8.421,-5.094 c -0.298,-0.052 -0.659,-0.074 -1.018,-0.058 -0.359,0.015 -0.717,0.067 -1.008,0.162 l -0.507,-0.773 -0.506,-0.772 1.73,-2.876 c 0.027,-0.043 0.071,-0.066 0.116,-0.068 0.045,-0.001 0.091,0.018 0.12,0.06 l 1.926,2.724 -0.426,0.801 z m 1.387,9.996 -0.85,1.433 -0.851,1.433 c -0.019,0.031 -0.051,0.048 -0.084,0.05 -0.032,10e-4 -0.066,-0.012 -0.088,-0.042 l -1.009,-1.357 -1.01,-1.357 0.427,-0.798 0.426,-0.797 c 0.375,0.108 0.711,0.121 1.045,0.095 0.335,-0.027 0.668,-0.095 1.036,-0.15 z m 5.326,-1.718 -1.595,0.194 -1.594,0.193 -0.507,-0.769 -0.506,-0.77 c 0.251,-0.251 0.436,-0.54 0.584,-0.847 0.149,-0.307 0.263,-0.634 0.374,-0.962 l 0.905,-0.028 0.906,-0.027 0.755,1.435 0.755,1.434 c 0.016,0.031 0.014,0.066 0,0.094 -0.015,0.028 -0.042,0.049 -0.077,0.053 m -1.537,-5.518 -0.934,0.055 -0.933,0.055 c -0.113,-0.343 -0.255,-0.643 -0.43,-0.919 -0.176,-0.277 -0.387,-0.531 -0.639,-0.786 l 0.4,-0.797 0.399,-0.797 1.688,-0.006 1.689,-0.006 c 0.054,0 0.099,0.028 0.125,0.068 0.026,0.041 0.033,0.094 0.011,0.143 z m -11.998,3.09 0.934,-0.055 0.933,-0.055 c 0.098,0.301 0.266,0.615 0.465,0.91 0.198,0.295 0.428,0.571 0.652,0.795 l -0.426,0.797 -0.427,0.797 -1.694,-0.071 -1.695,-0.072 c -0.024,-10e-4 -0.043,-0.013 -0.054,-0.031 -0.011,-0.018 -0.014,-0.04 -0.004,-0.062 l 0.658,-1.477 z m 1.652,-5.905 0.507,0.769 0.506,0.77 c -0.178,0.264 -0.35,0.533 -0.505,0.822 -0.155,0.29 -0.293,0.598 -0.403,0.938 l -0.934,0.052 -0.933,0.052 -0.933,-1.529 -0.933,-1.53 c -0.011,-0.018 -0.011,-0.039 -0.002,-0.056 0.009,-0.017 0.025,-0.03 0.047,-0.032 l 1.792,-0.128 z m 10.72,21.28 c 0.319,-0.027 0.545,0.386 0.744,0.971 0.2,0.586 0.373,1.344 0.588,2.009 l 1.192,0.733 1.191,0.732 c 0.034,0.021 0.055,0.052 0.062,0.087 0.007,0.035 0.001,0.073 -0.02,0.107 -0.05,0.081 -0.096,0.166 -0.137,0.255 -0.042,0.089 -0.081,0.182 -0.118,0.276 -0.011,0.025 -0.031,0.045 -0.055,0.054 -0.024,0.008 -0.051,0.007 -0.076,-0.006 -0.533,-0.292 -1.176,-0.639 -1.686,-0.911 -0.51,-0.274 -0.887,-0.474 -0.887,-0.474 -0.693,0.16 -1.44,0.385 -2.053,0.504 -0.613,0.119 -1.094,0.131 -1.256,-0.136 -0.149,-0.271 0.039,-0.486 0.385,-0.654 0.346,-0.169 0.85,-0.291 1.333,-0.378 0.035,-0.006 0.057,-0.032 0.062,-0.063 0.005,-0.029 -0.006,-0.062 -0.036,-0.08 -1.013,-0.614 -2.033,-1.175 -2.754,-1.654 -0.721,-0.479 -1.143,-0.877 -0.961,-1.163 0.156,-0.285 0.72,-0.112 1.505,0.274 0.785,0.388 1.791,0.991 2.833,1.566 0.025,0.014 0.053,0.009 0.071,-0.007 0.019,-0.016 0.03,-0.042 0.02,-0.069 C -55.23,4 -55.381,3.507 -55.412,3.13 c -0.03,-0.378 0.061,-0.641 0.389,-0.641 m -11.733,18.729 c 0.506,0.132 0.84,0.705 0.92,1.296 0.079,0.592 -0.094,1.203 -0.601,1.415 -0.454,-0.051 -0.787,-0.597 -0.88,-1.196 -0.093,-0.599 0.055,-1.251 0.561,-1.515 m -0.215,-1.974 c -0.371,-0.267 -0.651,-1.077 -0.75,-1.902 -0.1,-0.824 -0.02,-1.661 0.326,-1.98 0.461,0.463 0.717,1.05 0.784,1.713 0.066,0.664 -0.059,1.402 -0.36,2.169 m -7.346,-14.73 0.047,-1.119 0.048,-1.12 3,-3.042 c 0.035,-0.035 0.082,-0.036 0.117,-0.016 0.035,0.02 0.058,0.061 0.045,0.109 l -0.54,2.059 -0.54,2.061 -1.004,0.586 -1.003,0.585 c -0.039,0.023 -0.082,0.019 -0.116,0 -0.033,-0.021 -0.056,-0.058 -0.054,-0.103 m 3.03,0.422 4.186,1.096 c 0.04,0.011 0.061,0.044 0.061,0.078 0.001,0.034 -0.019,0.068 -0.059,0.08 l -2.094,0.597 -2.094,0.596 -1.004,-0.585 -1.004,-0.586 c -0.038,-0.023 -0.058,-0.063 -0.057,-0.102 0.001,-0.039 0.021,-0.078 0.061,-0.1 z m 0.375,4.63 1.384,0.878 1.384,0.877 c 0,0 0.148,0.531 0.289,1.063 0.14,0.533 0.273,1.065 0.246,1.065 -0.42,0.343 -0.762,0.71 -1.022,1.095 -0.261,0.384 -0.439,0.788 -0.535,1.204 -0.005,0.024 -0.025,0.038 -0.046,0.039 -0.02,0 -0.04,-0.012 -0.047,-0.036 l -0.826,-3.092 z m 8.533,-1.176 -2.349,0.561 -2.347,0.56 -1.467,-0.745 -1.468,-0.745 3.282,-0.925 3.283,-0.924 c 0.058,-0.017 0.087,-0.067 0.087,-0.116 -0.001,-0.049 -0.031,-0.098 -0.089,-0.113 l -3.282,-0.85 -3.281,-0.85 1.468,-0.745 1.467,-0.745 2.476,0.621 2.475,0.62 0.03,-0.142 0.029,-0.142 c 0.135,0.374 0.376,0.734 0.696,1.081 0.32,0.346 0.719,0.678 1.17,0.998 -0.052,0.291 -0.052,0.61 0.015,0.956 0.067,0.345 0.2,0.718 0.415,1.117 0.611,1.091 1.397,1.518 2.29,1.598 0.894,0.079 1.894,-0.188 2.935,-0.482 l 1.41,0.806 c 0.026,0.014 0.047,0.035 0.062,0.058 0.016,0.025 0.025,0.052 0.028,0.081 l 0.07,0.817 0.07,0.815 c 0.004,0.041 -0.005,0.08 -0.024,0.115 -0.018,0.034 -0.046,0.063 -0.082,0.082 l -0.58,0.315 -0.579,0.314 c -1.041,-0.263 -2.042,-0.516 -2.936,-0.43 -0.894,0.086 -1.682,0.511 -2.295,1.601 -0.012,0.026 -0.023,0.053 -0.035,0.082 -0.011,0.03 -0.023,0.061 -0.035,0.093 -0.022,0.059 -0.07,0.096 -0.123,0.108 -0.054,0.011 -0.113,-0.002 -0.157,-0.047 l -0.939,-0.962 -0.939,-0.963 c -0.02,-0.021 -0.044,-0.036 -0.07,-0.047 -0.026,-0.01 -0.053,-0.015 -0.082,-0.014 l -1.458,0.052 -0.961,-0.533 -0.961,-0.534 1.75,-0.388 1.749,-0.389 c 0.087,-0.018 0.152,-0.076 0.186,-0.149 0.033,-0.072 0.034,-0.159 -0.007,-0.237 L -62.068,8.53 C -62.098,8.474 -62.145,8.432 -62.2,8.407 -62.255,8.382 -62.318,8.376 -62.379,8.39 m 9.007,7.561 c -0.214,0.662 -0.388,1.42 -0.587,2.012 -0.2,0.591 -0.426,1.017 -0.745,1.017 -0.322,-0.025 -0.414,-0.291 -0.388,-0.664 0.027,-0.373 0.171,-0.854 0.32,-1.312 0.012,-0.037 -0.002,-0.072 -0.027,-0.092 -0.026,-0.022 -0.062,-0.029 -0.097,-0.009 -1.032,0.571 -2.027,1.166 -2.803,1.547 -0.776,0.38 -1.332,0.546 -1.487,0.261 -0.153,-0.281 0.272,-0.683 0.985,-1.163 0.714,-0.479 1.717,-1.035 2.719,-1.62 0.042,-0.024 0.058,-0.069 0.051,-0.11 -0.007,-0.041 -0.036,-0.078 -0.085,-0.088 -0.49,-0.101 -0.974,-0.22 -1.299,-0.379 -0.325,-0.16 -0.491,-0.36 -0.345,-0.627 0.16,-0.291 0.64,-0.277 1.254,-0.151 0.614,0.127 1.362,0.366 2.055,0.525 l 1.222,-0.684 1.221,-0.685 c 0.033,-0.018 0.07,-0.021 0.104,-0.013 0.034,0.009 0.065,0.031 0.086,0.063 0.055,0.087 0.11,0.169 0.165,0.252 0.055,0.082 0.11,0.164 0.165,0.251 0.021,0.033 0.027,0.072 0.018,0.107 -0.008,0.036 -0.031,0.068 -0.066,0.088 -0.505,0.293 -1.114,0.661 -1.596,0.957 -0.483,0.295 -0.84,0.517 -0.84,0.517 m 0.265,5.587 c 0,0.503 -0.519,1.127 -1.172,1.605 -0.652,0.479 -1.438,0.811 -1.972,0.732 0.028,-0.452 0.588,-1.103 1.254,-1.609 0.666,-0.505 1.438,-0.863 1.89,-0.728 m 4.322,-19.687 c 0.024,0.233 0.036,0.502 0.042,0.785 0.007,0.283 0.007,0.579 0.007,0.863 0,0.016 -0.004,0.032 -0.012,0.046 -0.007,0.013 -0.017,0.026 -0.031,0.035 l -0.722,0.501 -0.724,0.5 c -0.016,0.011 -0.034,0.017 -0.053,0.017 -0.018,0 -0.037,-0.005 -0.054,-0.014 L -50.946,4.202 -51.561,3.82 c -0.266,-1.012 -0.533,-1.996 -1.047,-2.721 -0.513,-0.724 -1.273,-1.188 -2.526,-1.161 -0.451,0.025 -0.838,0.091 -1.172,0.196 -0.333,0.106 -0.614,0.251 -0.854,0.436 -1.031,-0.466 -2.05,-0.683 -2.915,-0.474 -0.865,0.208 -1.576,0.842 -1.99,2.075 l -1.52,-0.347 -1.519,-0.347 1.866,-1.012 h 1.335 c 0.068,0 0.134,-0.013 0.196,-0.039 0.062,-0.025 0.119,-0.062 0.166,-0.11 l 1.791,-1.786 1.789,-1.785 c 0.1,-0.1 0.103,-0.234 0.047,-0.334 -0.056,-0.101 -0.171,-0.169 -0.309,-0.137 l -2.481,0.581 -2.481,0.58 c -0.067,0.016 -0.13,0.046 -0.184,0.087 -0.054,0.041 -0.099,0.094 -0.131,0.155 l -0.64,1.194 -0.934,0.534 -0.933,0.533 0.556,-1.768 0.557,-1.77 c 0.015,-0.047 0.004,-0.095 -0.022,-0.131 -0.026,-0.036 -0.069,-0.059 -0.119,-0.059 h -0.493 l 0.559,-1.065 0.558,-1.063 0.665,0.882 0.665,0.881 c 0.033,0.043 0.079,0.071 0.127,0.08 0.05,0.01 0.102,0.002 0.148,-0.024 l 0.932,-0.539 0.933,-0.538 0.854,0.408 0.855,0.408 c 0.12,0.058 0.251,0.065 0.37,0.03 0.119,-0.036 0.226,-0.113 0.295,-0.226 l 0.516,-0.841 0.517,-0.841 0.68,1.077 0.681,1.077 c 0.051,0.081 0.131,0.132 0.217,0.152 0.087,0.02 0.182,0.006 0.262,-0.046 l 0.771,-0.493 0.77,-0.492 c 0.069,-0.044 0.112,-0.112 0.129,-0.185 0.016,-0.073 0.005,-0.153 -0.039,-0.221 l -0.695,-1.1 -0.695,-1.099 1.051,-0.116 1.05,-0.115 c 0.086,-0.009 0.161,-0.05 0.214,-0.11 0.054,-0.06 0.086,-0.138 0.086,-0.224 v -2.042 l 0.853,-0.61 0.854,-0.61 c 0.159,0.582 0.385,1.127 0.671,1.625 0.286,0.498 0.633,0.95 1.035,1.349 0.24,0.242 0.505,0.469 0.785,0.676 0.279,0.206 0.572,0.391 0.867,0.55 -0.24,0.292 -0.413,0.664 -0.539,1.097 -0.127,0.433 -0.207,0.925 -0.259,1.455 -1.744,0.632 -2.218,1.783 -2.019,3.013 0.199,1.229 1.07,2.537 2.019,3.481 m 3.678,24.58 c -0.306,0 -0.441,-0.56 -0.506,-1.412 -0.064,-0.852 -0.057,-1.996 -0.077,-3.161 -0.001,-0.055 -0.036,-0.094 -0.079,-0.109 -0.044,-0.015 -0.095,-0.006 -0.13,0.035 -0.303,0.36 -0.634,0.71 -0.924,0.909 -0.291,0.2 -0.542,0.249 -0.685,0.01 -0.187,-0.291 0.052,-0.703 0.459,-1.176 0.406,-0.473 0.981,-1.004 1.463,-1.535 l -0.027,-1.422 -0.027,-1.423 c -10e-4,-0.016 0.184,-0.034 0.369,-0.043 0.186,-0.009 0.373,-0.009 0.374,0.007 0.052,0.616 0.117,1.334 0.169,1.897 0.053,0.563 0.093,0.973 0.093,0.973 0.507,0.503 1.094,1.037 1.509,1.52 0.414,0.481 0.655,0.911 0.468,1.202 -0.172,0.249 -0.439,0.196 -0.745,-0.012 -0.306,-0.208 -0.652,-0.572 -0.981,-0.944 -0.025,-0.028 -0.059,-0.032 -0.088,-0.022 -0.028,0.011 -0.051,0.038 -0.05,0.074 0.009,0.534 0.045,1.691 -0.012,2.716 -0.057,1.025 -0.209,1.916 -0.573,1.916 m 27.738,5.394 -0.461,-3.178 -0.46,-3.179 0.482,-0.796 0.482,-0.797 0.559,0.797 0.559,0.796 -1.068,6.358 c -0.004,0.026 -0.026,0.039 -0.047,0.039 -0.021,0 -0.042,-0.014 -0.046,-0.04 m 0.05,7.746 c -0.277,-0.369 -0.577,-0.682 -0.899,-0.939 -0.321,-0.256 -0.664,-0.458 -1.03,-0.603 -0.115,-0.04 -0.23,-0.072 -0.345,-0.099 -0.115,-0.027 -0.23,-0.049 -0.344,-0.07 -0.063,-0.011 -0.108,-0.053 -0.127,-0.104 -0.02,-0.053 -0.015,-0.115 0.024,-0.165 0.274,-0.355 0.597,-0.716 0.945,-1.047 0.348,-0.332 0.721,-0.635 1.095,-0.875 0.038,-0.025 0.082,-0.03 0.123,-0.02 0.041,0.011 0.078,0.037 0.101,0.076 l 0.066,0.113 0.065,0.112 1.36,2.251 1.361,2.25 c 0.021,0.036 0.01,0.073 -0.015,0.095 -0.025,0.022 -0.063,0.029 -0.097,0.003 -0.323,-0.251 -0.568,-0.436 -0.856,-0.562 -0.288,-0.125 -0.618,-0.191 -1.112,-0.202 -0.027,-10e-4 -0.092,-0.037 -0.158,-0.082 -0.066,-0.044 -0.131,-0.097 -0.157,-0.132 m 8.414,-20.29 c 0.396,-0.221 0.571,-0.608 0.552,-0.997 -0.018,-0.389 -0.229,-0.78 -0.605,-1.009 l 3.359,-2.87 3.358,-2.87 0.323,0.184 0.322,0.184 c -0.215,0.135 -0.416,0.282 -0.61,0.441 -0.193,0.161 -0.378,0.331 -0.563,0.516 -0.749,0.745 -1.349,1.638 -1.762,2.622 -0.413,0.985 -0.638,2.064 -0.638,3.18 0,0.239 0.012,0.464 0.031,0.683 0.019,0.219 0.045,0.433 0.073,0.647 l -3.822,-0.61 c -0.026,-0.003 -0.042,-0.023 -0.046,-0.044 -0.003,-0.021 0.005,-0.044 0.028,-0.057 m 2.667,-37.698 c 0.188,0.291 0.108,0.69 -0.173,1.102 -0.279,0.413 -0.76,0.839 -1.374,1.185 -0.611,0.344 -1.223,0.543 -1.73,0.583 -0.506,0.04 -0.907,-0.08 -1.094,-0.374 -0.16,-0.292 -0.068,-0.707 0.218,-1.135 0.285,-0.428 0.764,-0.868 1.378,-1.208 0.197,-0.107 0.737,-0.428 1.305,-0.58 0.568,-0.153 1.163,-0.137 1.47,0.427 m -2.664,-2.398 c -0.132,0.239 -0.226,0.415 -0.292,0.54 -0.066,0.124 -0.104,0.196 -0.126,0.226 -0.04,0.065 -0.012,-0.03 -10e-4,-0.19 0.011,-0.16 0.006,-0.385 -0.101,-0.579 -0.016,-0.028 -0.013,-0.059 0.003,-0.08 0.015,-0.022 0.042,-0.034 0.073,-0.027 0.073,0.018 0.147,0.036 0.221,0.055 0.074,0.018 0.148,0.036 0.223,0.055 m -7.681,-3.618 c -0.319,0.107 -0.439,0.173 -0.425,0.139 0.014,-0.033 0.161,-0.167 0.376,-0.458 0.08,-0.132 0.172,-0.265 0.258,-0.406 0.086,-0.14 0.166,-0.287 0.221,-0.447 0.212,0.295 0.437,0.588 0.676,0.866 0.24,0.28 0.494,0.545 0.76,0.784 0.514,0.54 1.102,1.028 1.74,1.456 0.638,0.427 1.326,0.794 2.039,1.088 0.036,0.015 0.058,0.045 0.063,0.078 0.005,0.032 -0.006,0.068 -0.035,0.092 -0.313,0.26 -0.592,0.722 -0.842,1.274 -0.25,0.552 -0.471,1.194 -0.668,1.813 -0.375,1.276 -0.522,2.008 -0.542,2.054 -0.02,0.047 0.087,-0.591 0.222,-2.054 0.212,-2.235 -0.055,-3.339 -0.795,-3.591 -0.739,-0.252 -1.952,0.347 -3.631,1.519 -0.359,0.257 -0.644,0.467 -0.859,0.629 -0.216,0.162 -0.363,0.275 -0.449,0.34 -0.151,0.11 -0.106,0.069 0.103,-0.128 0.21,-0.196 0.585,-0.547 1.094,-1.056 0.43,-0.448 0.89,-0.948 1.279,-1.445 0.39,-0.498 0.707,-0.993 0.852,-1.431 0.187,-0.552 0.076,-0.931 -0.205,-1.122 -0.282,-0.191 -0.734,-0.194 -1.232,0.006 m -13.561,-1.089 0.942,0.544 0.941,0.545 0.381,0.639 0.38,0.64 c 0.03,0.05 0.069,0.093 0.115,0.126 0.045,0.034 0.098,0.059 0.154,0.073 l 1.858,0.457 1.858,0.456 c 0.188,0.242 0.375,0.469 0.568,0.69 0.194,0.219 0.393,0.433 0.605,0.647 0.509,0.549 0.821,0.866 1.036,1.077 0.215,0.21 0.333,0.312 0.456,0.432 -0.043,-0.031 -0.192,-0.147 -0.462,-0.347 -0.27,-0.201 -0.662,-0.484 -1.189,-0.849 -1.867,-1.303 -2.974,-1.622 -3.56,-1.109 -0.586,0.512 -0.652,1.857 -0.438,3.881 0.068,0.764 0.125,1.263 0.152,1.522 0.028,0.26 0.027,0.278 -0.023,0.079 -0.027,-0.12 -0.072,-0.316 -0.137,-0.584 -0.065,-0.269 -0.151,-0.609 -0.262,-1.017 -0.264,-0.905 -0.597,-1.916 -1.003,-2.655 -0.407,-0.739 -0.888,-1.205 -1.446,-1.018 -0.212,0.051 -0.36,0.185 -0.467,0.372 -0.107,0.187 -0.175,0.428 -0.227,0.695 -0.019,0.116 -0.031,0.208 -0.04,0.276 -0.009,0.069 -0.015,0.113 -0.022,0.135 -0.009,0.036 -0.018,0.007 -0.046,-0.082 -0.027,-0.089 -0.073,-0.238 -0.156,-0.44 -0.16,-0.343 -0.373,-0.728 -0.647,-0.994 -0.274,-0.266 -0.609,-0.413 -1.011,-0.281 -0.319,0.079 -0.532,0.306 -0.666,0.573 -0.133,0.267 -0.187,0.573 -0.187,0.813 0,0.076 0.006,0.136 0.011,0.178 0.006,0.042 0.01,0.067 0.007,0.073 0,0.012 -0.011,-0.004 -0.044,-0.047 -0.034,-0.043 -0.091,-0.113 -0.183,-0.204 -0.375,-0.399 -0.949,-0.692 -1.529,-0.786 -0.58,-0.093 -1.166,0.013 -1.565,0.412 -0.046,0.045 -0.083,0.086 -0.114,0.124 -0.031,0.038 -0.055,0.073 -0.076,0.106 -0.021,0.034 -0.055,0.054 -0.09,0.058 -0.035,0.005 -0.072,-0.007 -0.099,-0.036 l -1.245,-1.314 -1.244,-1.315 c -0.022,-0.023 -0.039,-0.049 -0.051,-0.077 -0.012,-0.028 -0.019,-0.059 -0.02,-0.09 l -0.072,-1.575 -0.071,-1.575 c -0.003,-0.047 0.025,-0.083 0.061,-0.099 0.036,-0.017 0.082,-0.012 0.115,0.022 l 2.542,2.559 2.543,2.559 c 0.038,0.038 0.089,0.039 0.127,0.017 0.038,-0.021 0.063,-0.066 0.049,-0.117 l -0.928,-3.512 -0.929,-3.51 c -0.012,-0.046 0.007,-0.088 0.039,-0.111 0.033,-0.024 0.078,-0.029 0.118,-0.004 l 1.349,0.865 1.348,0.865 c 0.02,0.013 0.037,0.028 0.051,0.047 0.014,0.018 0.025,0.039 0.032,0.061 l 0.764,2.412 0.764,2.411 c 0.03,0.095 0.09,0.173 0.167,0.226 0.077,0.054 0.172,0.082 0.271,0.077 l 0.595,-0.031 0.595,-0.032 c 0.111,-0.006 0.205,-0.064 0.262,-0.148 0.057,-0.083 0.077,-0.192 0.042,-0.298 l -0.57,-1.707 -0.569,-1.707 c -0.01,-0.027 0.001,-0.052 0.019,-0.067 0.019,-0.016 0.046,-0.02 0.071,-0.006 m -10.921,-0.82 -0.074,1.612 -0.073,1.611 c -10e-4,0.023 -0.006,0.045 -0.015,0.066 -0.009,0.021 -0.021,0.041 -0.037,0.058 l -1.762,1.887 -1.763,1.887 c -1.237,0 -2.347,0.22 -3.315,0.703 -0.968,0.482 -1.793,1.226 -2.462,2.275 -0.012,0.018 -0.027,0.033 -0.045,0.043 -0.017,0.011 -0.038,0.017 -0.059,0.017 l -0.805,0.024 -0.805,0.025 c -0.031,0.001 -0.057,-0.014 -0.073,-0.037 -0.015,-0.023 -0.02,-0.052 -0.007,-0.081 l 0.834,-1.9 c 0.02,-0.046 0.021,-0.095 0.006,-0.139 -0.015,-0.045 -0.045,-0.084 -0.089,-0.108 l -0.961,-0.543 -0.961,-0.542 -0.074,-1.056 -0.074,-1.057 c -0.003,-0.049 -0.025,-0.094 -0.059,-0.126 -0.033,-0.032 -0.078,-0.052 -0.128,-0.053 l -1.14,-0.026 -1.14,-0.025 0.134,-0.239 0.136,-0.24 1.536,-0.362 1.537,-0.363 c 0.022,-0.005 0.043,-0.015 0.061,-0.028 0.018,-0.014 0.034,-0.031 0.046,-0.05 l 0.408,-0.687 0.409,-0.687 0.985,-0.585 0.985,-0.586 -1.2,3.746 c -0.019,0.061 -0.008,0.123 0.025,0.17 0.033,0.048 0.086,0.081 0.15,0.085 l 0.769,0.044 0.77,0.044 c 0.039,0.003 0.075,-0.009 0.105,-0.029 0.03,-0.021 0.054,-0.051 0.065,-0.088 l 0.807,-2.547 0.805,-2.547 1.454,-0.916 1.454,-0.915 c 0.023,-0.014 0.05,-0.011 0.069,0.003 0.019,0.013 0.03,0.038 0.023,0.065 l -0.851,3.196 -0.851,3.198 c -0.04,0.148 0.031,0.274 0.139,0.337 0.108,0.062 0.253,0.061 0.361,-0.047 l 2.302,-2.276 2.301,-2.276 c 0.028,-0.027 0.066,-0.031 0.096,-0.017 0.03,0.013 0.053,0.043 0.051,0.082 m -15.72,60.967 c -0.375,0.371 -1.028,0.397 -1.575,0.184 -0.546,-0.213 -0.985,-0.666 -0.93,-1.251 0.291,-0.371 0.932,-0.385 1.492,-0.166 0.56,0.22 1.041,0.672 1.013,1.233 m 1.811,0.798 c 0.427,-0.188 1.28,-0.029 2.054,0.291 0.774,0.319 1.467,0.796 1.575,1.248 -0.455,0.239 -1.255,0.107 -1.994,-0.211 -0.74,-0.319 -1.42,-0.823 -1.635,-1.328 m 12.52,3.999 0.321,0.842 0.32,0.843 c 0.015,0.037 0.006,0.075 -0.016,0.102 -0.021,0.027 -0.056,0.043 -0.095,0.037 l -0.863,-0.132 -0.862,-0.132 c -0.045,-0.007 -0.08,-0.035 -0.098,-0.072 -0.017,-0.036 -0.019,-0.081 0.003,-0.122 0.189,-0.35 0.348,-0.57 0.525,-0.767 0.177,-0.196 0.373,-0.371 0.636,-0.633 0.014,-0.013 0.046,-0.005 0.075,0.007 0.029,0.012 0.054,0.027 0.054,0.027 m -3.451,-8.376 c -0.181,-10e-4 -0.353,0.037 -0.514,0.104 -0.161,0.067 -0.311,0.164 -0.451,0.279 -0.291,0.295 -0.437,0.68 -0.437,1.065 0,0.385 0.146,0.769 0.437,1.064 0.046,0.067 0.091,0.123 0.14,0.171 0.048,0.048 0.1,0.086 0.159,0.116 0.021,0.01 0.036,0.027 0.045,0.046 0.008,0.019 0.01,0.041 0.003,0.063 -0.086,0.259 -0.088,0.537 -0.024,0.802 0.063,0.263 0.193,0.514 0.371,0.715 0.135,0.135 0.295,0.243 0.474,0.316 0.18,0.074 0.38,0.114 0.595,0.114 l 0.498,0.019 0.499,0.019 c 0.047,0.002 0.079,0.032 0.089,0.069 0.012,0.037 0.002,0.081 -0.035,0.108 -0.718,0.536 -1.309,1.048 -1.816,1.641 -0.507,0.592 -0.932,1.267 -1.317,2.13 -0.013,0.042 -0.027,0.085 -0.04,0.128 -0.015,0.043 -0.029,0.086 -0.043,0.129 -0.013,0.036 -0.045,0.035 -0.075,0.026 -0.029,-0.011 -0.056,-0.031 -0.056,-0.031 l -0.132,-0.549 -0.133,-0.549 c -0.052,-0.188 -0.145,-0.361 -0.266,-0.514 -0.121,-0.153 -0.268,-0.287 -0.428,-0.395 -0.227,-0.151 -0.492,-0.23 -0.758,-0.238 -0.265,-0.007 -0.533,0.058 -0.768,0.196 -0.012,0.006 -0.036,0.01 -0.059,0.011 -0.023,10e-4 -0.044,-0.002 -0.049,-0.006 -0.007,-0.007 -0.013,-0.013 -0.02,-0.019 -0.006,-0.006 -0.012,-0.012 -0.02,-0.019 -0.004,-0.004 -0.003,-0.014 0.002,-0.024 0.004,-0.011 0.012,-0.022 0.022,-0.026 0.064,-0.026 0.128,-0.06 0.193,-0.098 0.064,-0.038 0.129,-0.081 0.193,-0.125 0.011,-0.008 0.02,-0.018 0.024,-0.03 0.005,-0.012 0.007,-0.026 0.005,-0.039 -0.216,-1.176 -0.892,-2.14 -1.887,-2.79 -0.996,-0.65 -2.312,-0.986 -3.81,-0.907 -0.076,0.004 -0.149,-0.013 -0.211,-0.05 -0.063,-0.036 -0.116,-0.089 -0.15,-0.157 -0.343,-0.668 -1.098,-1.237 -1.907,-1.542 -0.809,-0.305 -1.671,-0.346 -2.225,0.046 -0.03,0.021 -0.063,0.035 -0.098,0.04 -0.034,0.006 -0.07,0.003 -0.103,-0.01 l -0.648,-0.246 -0.648,-0.245 c -0.031,-0.012 -0.043,-0.041 -0.038,-0.067 0.005,-0.026 0.026,-0.049 0.059,-0.051 0.248,-0.014 0.486,-0.085 0.713,-0.205 0.227,-0.119 0.442,-0.287 0.643,-0.492 0.028,-0.029 0.058,-0.051 0.092,-0.069 0.034,-0.016 0.07,-0.028 0.109,-0.033 l 2.553,-0.311 2.553,-0.312 c 0.215,0 0.403,-0.107 0.529,-0.267 0.127,-0.161 0.193,-0.374 0.165,-0.585 -0.027,-0.212 -0.147,-0.398 -0.314,-0.525 -0.166,-0.126 -0.38,-0.193 -0.594,-0.169 l -2.585,0.294 -2.585,0.295 c -0.264,-0.197 -0.546,-0.341 -0.828,-0.422 -0.282,-0.082 -0.563,-0.101 -0.824,-0.052 -0.025,0.004 -0.044,-0.009 -0.051,-0.027 -0.007,-0.018 -0.002,-0.041 0.019,-0.055 l 1.31,-0.83 c 0.641,0.319 1.561,0.066 2.339,-0.466 0.78,-0.532 1.418,-1.343 1.498,-2.14 1.514,-0.204 2.755,-0.777 3.619,-1.601 0.863,-0.824 1.349,-1.899 1.351,-3.105 0,-0.085 -0.029,-0.164 -0.077,-0.229 -0.049,-0.063 -0.118,-0.112 -0.201,-0.133 -0.027,-0.007 -0.055,-0.015 -0.083,-0.022 -0.028,-0.007 -0.056,-0.015 -0.084,-0.021 -0.05,-0.014 -0.086,-0.048 -0.102,-0.091 -0.016,-0.043 -0.013,-0.093 0.013,-0.137 0.205,-0.335 0.367,-0.724 0.51,-1.144 0.142,-0.419 0.265,-0.873 0.389,-1.336 l 0.667,-0.397 0.667,-0.395 c 0.033,-0.019 0.068,-0.03 0.104,-0.032 0.036,-0.001 0.073,0.006 0.106,0.023 l 0.714,0.343 0.715,0.343 c 0.037,0.019 0.067,0.046 0.088,0.079 0.021,0.035 0.034,0.074 0.034,0.116 v 1.354 c -0.749,0.745 -1.47,1.477 -1.842,2.281 -0.373,0.804 -0.4,1.681 0.239,2.717 0.239,0.403 0.493,0.709 0.76,0.942 0.267,0.233 0.548,0.392 0.843,0.5 0.076,0.944 0.25,1.753 0.61,2.356 0.36,0.604 0.906,1.002 1.727,1.126 0.045,0.007 0.078,0.036 0.094,0.073 0.016,0.036 0.015,0.081 -0.011,0.118 -0.03,0.043 -0.061,0.091 -0.092,0.143 -0.03,0.052 -0.062,0.108 -0.093,0.17 -0.111,0.295 -0.138,0.545 -0.115,0.785 0.023,0.241 0.095,0.474 0.182,0.736 0.007,0.021 -0.009,0.051 -0.033,0.075 -0.024,0.024 -0.057,0.044 -0.083,0.044 m 8.663,7.399 -0.553,0.683 -0.554,0.683 c -0.033,0.04 -0.082,0.056 -0.127,0.049 -0.045,-0.007 -0.087,-0.036 -0.107,-0.084 l -0.325,-0.801 -0.326,-0.801 c -0.014,-0.034 -0.008,-0.071 0.011,-0.098 0.019,-0.028 0.051,-0.047 0.089,-0.046 0.333,0.003 0.626,0.019 0.917,0.06 0.292,0.042 0.582,0.108 0.912,0.211 0.024,0.008 0.039,0.043 0.049,0.078 0.01,0.034 0.014,0.066 0.014,0.066 m 12.6,4.207 c -0.027,-0.247 -0.117,-0.476 -0.253,-0.675 -0.136,-0.199 -0.319,-0.369 -0.535,-0.496 -0.23,-0.125 -0.494,-0.19 -0.76,-0.191 -0.266,0 -0.532,0.064 -0.767,0.199 -0.022,0.014 -0.048,0.018 -0.072,0.017 -0.025,-0.003 -0.048,-0.014 -0.067,-0.032 -0.044,-0.042 -0.09,-0.084 -0.14,-0.127 -0.051,-0.042 -0.107,-0.085 -0.171,-0.13 -0.685,-0.341 -1.196,-0.225 -1.604,0.103 -0.409,0.328 -0.716,0.868 -0.992,1.374 -0.021,0.039 -0.06,0.054 -0.097,0.048 -0.036,-0.006 -0.069,-0.032 -0.077,-0.075 -0.207,-1.059 -0.325,-1.769 -0.573,-2.456 -0.247,-0.687 -0.623,-1.351 -1.346,-2.32 -0.008,-0.012 -0.008,-0.027 -0.001,-0.038 0.007,-0.011 0.019,-0.016 0.033,-0.013 0.368,0.113 0.779,0.275 1.189,0.358 0.41,0.083 0.818,0.086 1.178,-0.12 0.217,-0.109 0.405,-0.304 0.544,-0.532 0.139,-0.23 0.228,-0.494 0.249,-0.74 0.003,-0.033 0.014,-0.063 0.033,-0.089 0.018,-0.024 0.044,-0.044 0.075,-0.054 0.063,-0.021 0.125,-0.041 0.188,-0.062 0.063,-0.02 0.125,-0.041 0.188,-0.062 0.347,-0.212 0.6,-0.545 0.713,-0.918 0.114,-0.373 0.088,-0.787 -0.124,-1.161 -0.124,-0.221 -0.269,-0.373 -0.437,-0.49 -0.168,-0.116 -0.358,-0.195 -0.573,-0.27 -0.027,-0.009 -0.045,-0.03 -0.053,-0.055 -0.006,-0.024 -0.002,-0.052 0.017,-0.074 l 0.096,-0.113 0.097,-0.115 c 0.132,-0.187 0.238,-0.4 0.305,-0.619 0.067,-0.219 0.094,-0.445 0.069,-0.656 -0.027,-0.212 -0.095,-0.425 -0.202,-0.625 -0.108,-0.2 -0.255,-0.388 -0.442,-0.547 -0.185,-0.159 -0.398,-0.264 -0.618,-0.324 -0.22,-0.059 -0.448,-0.071 -0.659,-0.044 -0.212,0.024 -0.426,0.091 -0.626,0.197 -0.2,0.107 -0.387,0.254 -0.547,0.441 l -0.086,0.112 c 0,0 -0.03,0.002 -0.064,0 -0.034,-0.003 -0.071,-0.011 -0.086,-0.03 -0.086,-0.124 -0.198,-0.229 -0.322,-0.314 -0.125,-0.084 -0.263,-0.15 -0.4,-0.197 -0.187,-0.053 -0.388,-0.066 -0.588,-0.04 -0.201,0.026 -0.4,0.092 -0.585,0.199 -0.187,0.08 -0.334,0.199 -0.447,0.353 -0.114,0.153 -0.194,0.341 -0.246,0.555 -0.022,0.063 -0.044,0.126 -0.063,0.19 -0.018,0.063 -0.033,0.126 -0.041,0.189 -0.003,0.028 -0.016,0.052 -0.034,0.071 -0.018,0.018 -0.042,0.031 -0.069,0.035 -0.064,0.009 -0.127,0.026 -0.191,0.051 -0.064,0.026 -0.128,0.06 -0.191,0.102 -0.188,0.104 -0.334,0.235 -0.447,0.389 -0.112,0.152 -0.192,0.325 -0.247,0.512 -0.123,0.372 -0.073,0.72 0.053,1.051 0.125,0.331 0.327,0.644 0.507,0.945 0.013,0.022 -0.012,0.062 -0.05,0.09 -0.039,0.03 -0.088,0.047 -0.123,0.028 -0.671,-0.389 -1.555,-0.654 -2.469,-0.787 -0.914,-0.135 -1.858,-0.139 -2.648,-0.007 -0.051,0.009 -0.092,-0.018 -0.111,-0.056 -0.019,-0.037 -0.016,-0.086 0.02,-0.122 l 0.357,-0.356 0.356,-0.357 c 0.163,-0.135 0.284,-0.294 0.365,-0.474 0.08,-0.178 0.12,-0.377 0.12,-0.592 0,-0.185 -0.04,-0.37 -0.114,-0.549 -0.073,-0.18 -0.18,-0.353 -0.315,-0.513 -0.045,-0.047 -0.101,-0.094 -0.162,-0.139 -0.061,-0.046 -0.128,-0.091 -0.196,-0.136 -0.019,-0.013 -0.034,-0.031 -0.041,-0.052 -0.008,-0.021 -0.009,-0.044 -0.002,-0.066 0.021,-0.068 0.041,-0.135 0.056,-0.203 0.015,-0.066 0.025,-0.133 0.025,-0.201 0,-0.087 -0.006,-0.174 -0.017,-0.26 -0.013,-0.085 -0.031,-0.17 -0.057,-0.251 -0.014,-0.045 0.004,-0.085 0.034,-0.107 0.031,-0.021 0.074,-0.025 0.11,0.003 0.479,0.383 1.022,0.683 1.611,0.886 0.59,0.204 1.226,0.311 1.892,0.311 0.774,0 1.508,-0.145 2.175,-0.417 0.667,-0.272 1.267,-0.671 1.773,-1.176 0.175,-0.178 0.328,-0.367 0.468,-0.562 0.141,-0.194 0.269,-0.396 0.394,-0.6 0.013,-0.021 0.03,-0.04 0.049,-0.055 0.019,-0.016 0.04,-0.029 0.064,-0.038 l 3.724,-1.421 3.725,-1.421 c 0,0.478 0.265,0.877 0.638,1.076 0.372,0.199 0.851,0.199 1.278,-0.12 l -0.882,2.312 -0.881,2.31 c -0.01,0.025 0.002,0.047 0.02,0.058 0.018,0.01 0.043,0.009 0.06,-0.011 l 1.563,-1.908 1.562,-1.908 c -0.08,0.505 0.147,0.905 0.501,1.124 0.354,0.219 0.834,0.258 1.261,0.047 l 0.327,2.019 0.326,2.018 c 0.011,0.064 10e-4,0.128 -0.026,0.184 -0.026,0.057 -0.069,0.106 -0.125,0.139 -0.472,0.282 -0.931,0.588 -1.365,0.916 -0.434,0.328 -0.843,0.679 -1.218,1.053 -0.978,0.974 -1.835,2.179 -2.484,3.49 -0.649,1.309 -1.089,2.722 -1.233,4.114 -0.003,0.031 -0.008,0.047 -0.012,0.047 -0.005,0 -0.01,-0.016 -0.014,-0.047 m -0.047,0.524 c -0.004,0.113 -0.017,0.223 -0.028,0.333 -0.012,0.112 -0.023,0.222 -0.025,0.334 0,0.006 -0.005,0.013 -0.011,0.018 -0.005,0.004 -0.012,0.007 -0.017,0.005 -0.04,-0.02 -0.073,-0.029 -0.106,-0.035 -0.033,-0.006 -0.066,-0.007 -0.107,-0.007 -0.004,0 -0.007,-0.004 -0.008,-0.009 -0.001,-0.005 -0.001,-0.012 0.002,-0.016 0.053,-0.077 0.11,-0.189 0.159,-0.305 0.051,-0.115 0.094,-0.235 0.121,-0.324 0.004,-0.017 0.01,-0.022 0.014,-0.019 0.004,0.003 0.007,0.013 0.006,0.025 M -75.878,7.79 l -0.025,1.127 -0.025,1.128 -1.529,1.523 -1.528,1.524 c -0.028,0.028 -0.065,0.029 -0.093,0.013 -0.028,-0.016 -0.047,-0.049 -0.037,-0.087 l 0.528,-2.128 0.528,-2.127 0.985,-0.549 0.986,-0.551 c 0.047,-0.027 0.1,-0.023 0.141,0.003 0.041,0.024 0.07,0.069 0.069,0.124 m -0.05,-5.571 0.05,2.31 c 0.001,0.054 -0.028,0.099 -0.069,0.122 -0.041,0.024 -0.094,0.028 -0.141,0.001 l -0.985,-0.575 -0.986,-0.575 -0.519,-2.091 -0.519,-2.09 c -0.011,-0.049 0.012,-0.09 0.048,-0.11 0.036,-0.021 0.083,-0.02 0.119,0.016 z m 65.908,35.385 c 0.234,-0.213 0.467,-0.429 0.697,-0.648 0.23,-0.22 0.459,-0.444 0.685,-0.669 0.25,-0.25 0.498,-0.504 0.742,-0.76 0.245,-0.257 0.487,-0.518 0.725,-0.779 0.04,-0.044 0.05,-0.101 0.038,-0.152 -0.013,-0.05 -0.049,-0.096 -0.104,-0.116 -0.483,-0.176 -0.876,-0.329 -1.281,-0.463 -0.404,-0.135 -0.821,-0.249 -1.353,-0.349 -0.07,-0.013 -0.135,0.013 -0.176,0.06 -0.042,0.047 -0.06,0.114 -0.038,0.183 0.035,0.109 0.068,0.22 0.097,0.329 0.029,0.11 0.053,0.22 0.072,0.33 0.051,0.382 0.04,0.801 -0.031,1.232 -0.072,0.433 -0.203,0.879 -0.396,1.316 -0.014,0.032 -0.021,0.066 -0.019,0.1 10e-4,0.035 0.01,0.069 0.028,0.099 0.017,0.029 0.035,0.064 0.053,0.1 0.017,0.036 0.035,0.074 0.052,0.111 0.018,0.037 0.06,0.065 0.103,0.08 0.042,0.015 0.086,0.015 0.106,-0.004 m -8.042,5.797 c 0.066,-0.038 0.133,-0.075 0.199,-0.112 0.066,-0.037 0.132,-0.074 0.197,-0.112 0.07,-0.04 0.11,-0.109 0.116,-0.18 0.006,-0.073 -0.021,-0.146 -0.085,-0.195 -0.15,-0.115 -0.28,-0.235 -0.388,-0.366 -0.109,-0.131 -0.197,-0.273 -0.263,-0.433 -0.019,-0.047 -0.052,-0.084 -0.092,-0.112 -0.041,-0.027 -0.089,-0.043 -0.139,-0.048 -0.471,-0.041 -0.916,-0.15 -1.319,-0.306 -0.402,-0.155 -0.763,-0.358 -1.063,-0.583 -0.099,-0.078 -0.196,-0.163 -0.288,-0.252 -0.092,-0.089 -0.179,-0.183 -0.255,-0.279 -0.036,-0.044 -0.088,-0.063 -0.138,-0.057 -0.049,0.007 -0.094,0.037 -0.115,0.09 -0.171,0.432 -0.311,0.874 -0.423,1.326 -0.112,0.451 -0.194,0.912 -0.248,1.382 -0.008,0.062 0.014,0.122 0.054,0.166 0.039,0.043 0.096,0.071 0.159,0.071 z m -20.77,5.255 -0.314,-0.773 -0.315,-0.772 c -0.023,-0.057 -0.072,-0.09 -0.125,-0.098 -0.053,-0.007 -0.11,0.011 -0.148,0.058 l -0.581,0.72 -0.581,0.718 c 0.384,0.129 0.684,0.195 0.983,0.229 0.299,0.034 0.598,0.035 0.979,0.035 0.019,0 0.044,-0.029 0.065,-0.058 0.021,-0.03 0.037,-0.059 0.037,-0.059 m -26.543,-9.131 c 0.16,0.126 0.318,0.25 0.477,0.373 0.159,0.122 0.319,0.243 0.481,0.363 0.39,-0.325 0.524,-0.94 0.434,-1.492 -0.09,-0.552 -0.403,-1.041 -0.906,-1.114 -0.274,0.101 -0.453,0.388 -0.535,0.739 -0.082,0.352 -0.067,0.77 0.049,1.131 M -81.504,5.676 c -0.002,0.158 -0.004,0.314 -0.004,0.47 0,0.155 0.002,0.311 0.005,0.465 l 1.295,0.358 1.296,0.359 1.055,-0.574 1.056,-0.576 c 0.027,-0.014 0.04,-0.042 0.04,-0.069 -0.001,-0.027 -0.015,-0.054 -0.043,-0.067 l -1.054,-0.529 -1.054,-0.528 -1.279,0.324 -1.278,0.324 c -0.01,0.002 -0.019,0.008 -0.025,0.016 -0.006,0.008 -0.009,0.018 -0.01,0.027 m 13.317,-30.49 c -0.033,0.034 -0.067,0.066 -0.101,0.098 -0.033,0.033 -0.067,0.065 -0.101,0.098 0.031,0.036 0.06,0.096 0.08,0.164 0.02,0.067 0.031,0.143 0.024,0.208 -0.001,0.015 0.006,0.027 0.016,0.035 0.011,0.007 0.025,0.009 0.039,10e-4 l 0.163,-0.09 0.164,-0.09 c 0.02,-0.011 0.032,-0.03 0.035,-0.05 0.003,-0.021 -0.003,-0.042 -0.018,-0.059 l -0.15,-0.157 z m 59.124,0.981 -0.096,0.048 -0.095,0.046 c -0.081,0.045 -0.172,0.055 -0.255,0.033 -0.084,-0.021 -0.159,-0.072 -0.21,-0.149 l -0.89,-1.376 v -0.055 h -0.056 l -0.88,-0.048 -0.881,-0.048 c -0.044,-0.002 -0.083,-0.021 -0.113,-0.05 -0.028,-0.029 -0.047,-0.068 -0.049,-0.112 l -0.048,-0.838 -0.047,-0.838 c -0.002,-0.032 -0.02,-0.058 -0.045,-0.072 -0.024,-0.014 -0.056,-0.016 -0.085,0 l -0.764,0.417 -0.765,0.418 c 0.132,0.214 0.292,0.415 0.458,0.602 0.167,0.187 0.34,0.361 0.5,0.52 0.729,0.723 1.558,1.335 2.468,1.797 0.911,0.462 1.903,0.774 2.961,0.896 0.045,0.005 0.087,-0.011 0.119,-0.039 0.031,-0.028 0.051,-0.069 0.051,-0.114 v -0.233 c 0,-0.034 -0.007,-0.067 -0.019,-0.098 -0.012,-0.031 -0.03,-0.059 -0.054,-0.083 -0.122,-0.128 -0.244,-0.256 -0.367,-0.383 -0.124,-0.128 -0.248,-0.255 -0.374,-0.38 -0.024,-0.024 -0.055,-0.039 -0.087,-0.042 -0.032,-0.005 -0.066,10e-4 -0.095,0.019 z m -57.214,-2.68 c 0.319,0.343 0.364,0.588 0.273,0.832 -0.092,0.243 -0.321,0.484 -0.551,0.818 -0.012,0.018 -0.019,0.04 -0.019,0.061 0,0.022 0.006,0.043 0.018,0.062 l 1.348,2.06 0.575,-0.945 0.575,-0.946 c 0.022,-0.036 0.056,-0.062 0.094,-0.074 0.038,-0.012 0.08,-0.011 0.119,0.006 l 0.994,0.425 0.995,0.425 0.969,-0.522 0.97,-0.521 c 0.042,-0.023 0.09,-0.029 0.135,-0.019 0.044,0.01 0.085,0.035 0.114,0.073 l 0.668,0.89 0.667,0.89 0.629,-1.204 0.628,-1.203 c 0.021,-0.04 0.056,-0.068 0.097,-0.08 0.039,-0.013 0.084,-0.01 0.124,0.011 l 0.489,0.253 0.49,0.254 0.604,-0.604 0.605,-0.604 c 0.021,-0.021 0.047,-0.038 0.075,-0.05 0.028,-0.012 0.058,-0.018 0.089,-0.018 h 1.61 l 1.014,-0.558 1.012,-0.558 -1.931,-0.424 -1.932,-0.424 c -0.062,-0.013 -0.108,-0.054 -0.132,-0.106 -0.025,-0.051 -0.026,-0.113 0.003,-0.169 l 0.35,-0.679 0.351,-0.68 c 0.027,-0.053 0.071,-0.093 0.122,-0.116 0.051,-0.023 0.109,-0.03 0.167,-0.016 l 2.507,0.6 2.506,0.6 c 0.039,0.009 0.078,0.011 0.117,0.006 0.039,-0.005 0.077,-0.017 0.112,-0.035 l 2.73,-1.424 c 0.055,-0.029 0.078,-0.084 0.072,-0.136 -0.006,-0.052 -0.04,-0.101 -0.1,-0.117 l -3.099,-0.828 -3.1,-0.829 c -0.138,-0.037 -0.207,-0.154 -0.206,-0.271 10e-4,-0.116 0.071,-0.233 0.21,-0.268 l 3.112,-0.789 3.113,-0.789 c 0.053,-0.014 0.084,-0.057 0.089,-0.103 0.005,-0.046 -0.015,-0.095 -0.065,-0.119 l -1.988,-1.006 c -0.03,-0.015 -0.061,-0.025 -0.094,-0.029 -0.032,-0.004 -0.065,-0.003 -0.097,0.004 -1.849,0.41 -3.654,0.938 -5.406,1.577 -1.751,0.639 -3.449,1.388 -5.084,2.238 -0.047,0.025 -0.076,0.069 -0.083,0.117 -0.007,0.048 0.007,0.099 0.045,0.137 l 1.615,1.613 1.614,1.613 c 0.265,0.27 0.28,0.572 0.156,0.789 -0.125,0.217 -0.389,0.348 -0.683,0.278 -0.375,-0.095 -1.594,-0.325 -2.776,-0.61 -1.183,-0.284 -2.329,-0.623 -2.56,-0.936 l -0.243,-0.364 -0.242,-0.363 c 0,0 -0.024,-0.035 -0.049,-0.07 -0.025,-0.034 -0.052,-0.067 -0.062,-0.063 -0.008,0.004 0.002,0.042 0.014,0.079 0.012,0.037 0.026,0.073 0.026,0.073 l 0.199,0.593 0.197,0.594 c 0.225,0.447 0.06,0.677 -0.23,0.8 -0.29,0.123 -0.706,0.138 -0.985,0.156 -0.212,0.016 -0.507,0.051 -0.762,0.012 -0.255,-0.039 -0.472,-0.152 -0.527,-0.435 l -0.074,-0.23 -0.073,-0.229 c -0.009,-0.029 -0.031,-0.049 -0.057,-0.058 -0.026,-0.008 -0.055,-0.005 -0.08,0.013 -0.106,0.078 -0.212,0.156 -0.318,0.235 -0.105,0.079 -0.21,0.159 -0.313,0.239 0.15,0.319 0.046,0.625 -0.157,0.788 -0.204,0.164 -0.506,0.184 -0.752,-0.071 -0.098,0.08 -0.195,0.16 -0.291,0.239 -0.095,0.08 -0.191,0.16 -0.286,0.239 m -9.461,11.224 c 1.114,0.202 2.199,-0.132 3.006,-0.802 0.807,-0.669 1.335,-1.673 1.335,-2.811 0,-0.343 -0.049,-0.675 -0.142,-0.987 -0.092,-0.313 -0.227,-0.607 -0.399,-0.877 -0.703,0.858 -1.372,1.746 -2.006,2.66 -0.634,0.914 -1.232,1.854 -1.794,2.817 m -1.934,3.74 1.32,-0.046 c 0.064,-0.002 0.111,0.038 0.128,0.088 0.017,0.05 0.006,0.11 -0.046,0.148 l -1.084,0.798 -1.085,0.797 c -0.228,0.561 -0.442,1.127 -0.645,1.698 -0.203,0.572 -0.393,1.148 -0.571,1.731 l 0.052,0.076 0.052,0.077 0.426,-0.662 0.425,-0.662 c 0.027,-0.042 0.071,-0.066 0.116,-0.07 0.045,-0.004 0.092,0.012 0.126,0.049 l 1.265,1.362 1.265,1.363 -0.028,-1.065 -0.028,-1.064 -0.798,-1.324 0.721,-2.53 0.722,-2.53 c -0.236,-0.009 -0.468,-0.032 -0.695,-0.07 -0.227,-0.037 -0.45,-0.089 -0.668,-0.157 -0.169,0.328 -0.335,0.658 -0.497,0.99 -0.161,0.332 -0.32,0.666 -0.473,1.003 m -2.726,7.979 2.207,2.204 2.207,2.206 -0.052,-1.65 -0.052,-1.649 -1.555,-1.656 -1.555,-1.654 c -0.01,-0.011 -0.025,-0.01 -0.033,-0.002 -0.01,0.007 -0.015,0.021 -0.006,0.033 l 0.808,1.237 0.808,1.236 c 0.022,0.034 0.016,0.072 -0.005,0.099 -0.022,0.026 -0.059,0.04 -0.097,0.024 l -1.267,-0.508 -1.267,-0.509 c -0.024,0.098 -0.047,0.197 -0.071,0.294 -0.023,0.099 -0.046,0.197 -0.07,0.295 m -0.86,5.041 1.013,0.641 1.014,0.641 -1.292,-4.85 c -0.014,-0.05 -0.057,-0.073 -0.099,-0.072 -0.042,10e-4 -0.083,0.027 -0.092,0.077 -0.116,0.585 -0.219,1.175 -0.309,1.769 -0.09,0.595 -0.168,1.194 -0.235,1.794 m 0.259,3.047 0.383,-0.097 0.382,-0.098 c 0.016,-0.005 0.026,-0.018 0.027,-0.032 0.002,-0.014 -0.004,-0.029 -0.02,-0.036 l -0.568,-0.291 -0.569,-0.291 c -0.017,-0.009 -0.035,-0.007 -0.05,10e-4 -0.014,0.008 -0.025,0.024 -0.026,0.042 -0.008,0.148 -0.016,0.295 -0.023,0.443 -0.008,0.146 -0.015,0.293 -0.02,0.438 0,0.011 0.004,0.021 0.012,0.028 0.008,0.006 0.019,0.008 0.03,0.006 l 0.221,-0.057 z m -0.437,4.111 0.648,-0.331 0.648,-0.333 -0.673,-0.177 -0.672,-0.178 c 0.006,0.169 0.014,0.339 0.023,0.509 0.008,0.171 0.017,0.341 0.026,0.51 m 0.805,6.144 0.699,-2.631 0.701,-2.631 -1.014,0.641 -1.013,0.641 c 0.074,0.674 0.163,1.343 0.267,2.006 0.105,0.664 0.224,1.321 0.36,1.974 m 2.799,8.702 c 0.359,0.125 0.714,0.292 1.061,0.502 0.345,0.211 0.682,0.464 1.004,0.76 0.03,0.028 0.069,0.027 0.098,0.011 0.029,-0.017 0.047,-0.051 0.036,-0.091 l -0.575,-2.066 -0.574,-2.065 0.399,-0.666 0.399,-0.665 v -2.128 l -2.664,2.87 -0.958,-1.49 1.731,-1.861 1.732,-1.862 0.08,-1.622 0.079,-1.622 -4.414,4.36 c 0.31,1.325 0.68,2.625 1.108,3.899 0.428,1.272 0.915,2.519 1.458,3.736 m 1.37,2.791 c 0.03,-0.007 0.058,-0.013 0.084,-0.022 0.026,-0.009 0.05,-0.018 0.075,-0.027 -0.025,-0.093 -0.074,-0.188 -0.143,-0.284 -0.068,-0.094 -0.157,-0.19 -0.26,-0.283 -0.023,-0.02 -0.042,-0.018 -0.051,-0.003 -0.009,0.015 -0.009,0.043 0.008,0.074 0.048,0.091 0.096,0.182 0.144,0.273 0.047,0.091 0.095,0.181 0.143,0.272 m 2.873,4.618 1.123,-0.126 1.124,-0.126 c 0.192,-0.212 0.417,-0.392 0.66,-0.523 0.244,-0.132 0.504,-0.216 0.764,-0.238 0.033,-0.003 0.052,-0.027 0.056,-0.053 0.004,-0.025 -0.009,-0.054 -0.04,-0.064 l -0.72,-0.254 -0.72,-0.253 c -0.494,0.423 -1.299,0.452 -2.084,0.22 -0.786,-0.231 -1.554,-0.723 -1.974,-1.342 0.285,0.471 0.578,0.937 0.88,1.397 0.301,0.46 0.611,0.914 0.931,1.362 m 1.964,2.539 c 0.136,-0.009 0.269,-0.003 0.397,0.019 0.128,0.023 0.251,0.061 0.365,0.116 l 0.653,-0.413 0.653,-0.412 c 0.021,-0.014 0.026,-0.037 0.018,-0.056 -0.007,-0.018 -0.026,-0.032 -0.051,-0.027 -0.261,0.049 -0.538,0.03 -0.81,-0.044 -0.273,-0.075 -0.54,-0.205 -0.783,-0.379 l -0.644,0.073 -0.645,0.075 c 0.139,0.174 0.278,0.349 0.419,0.524 0.141,0.175 0.284,0.349 0.428,0.524 m 2.689,2.931 0.157,-0.361 0.157,-0.362 c -0.112,-0.314 -0.176,-0.619 -0.177,-0.906 -10e-4,-0.288 0.061,-0.558 0.203,-0.803 0.011,-0.021 0.004,-0.04 -0.01,-0.052 -0.014,-0.012 -0.036,-0.015 -0.053,0 l -1.24,1.018 c 0.012,0.08 0.018,0.16 0.018,0.24 0,0.08 -0.006,0.16 -0.018,0.239 0.147,0.156 0.295,0.311 0.442,0.465 0.148,0.153 0.297,0.304 0.448,0.455 0.012,0.012 0.025,0.023 0.037,0.034 0.012,0.011 0.024,0.021 0.036,0.033 m 2.333,2.159 c 0.019,-0.383 0.094,-0.75 0.228,-1.064 0.133,-0.315 0.325,-0.576 0.577,-0.751 l -0.039,-0.692 -0.038,-0.692 c -0.002,-0.038 -0.03,-0.062 -0.06,-0.068 -0.03,-0.005 -0.064,0.008 -0.079,0.043 -0.1,0.236 -0.259,0.448 -0.461,0.631 -0.201,0.182 -0.444,0.337 -0.711,0.459 l -0.252,0.583 -0.251,0.583 c 0.178,0.165 0.357,0.328 0.539,0.488 0.181,0.161 0.363,0.321 0.547,0.48 m 13.606,7.856 c 0.031,-0.015 0.063,-0.026 0.098,-0.032 0.034,-0.007 0.071,-0.011 0.111,-0.011 0.101,0.007 0.359,0.015 0.609,0.032 0.25,0.016 0.493,0.039 0.563,0.072 0.063,0.022 0.119,0.076 0.16,0.141 0.04,0.064 0.063,0.142 0.06,0.21 -0.003,0.034 0.008,0.065 0.028,0.092 0.02,0.025 0.048,0.046 0.081,0.055 0.076,0.024 0.151,0.046 0.226,0.069 0.076,0.022 0.15,0.045 0.225,0.065 0.419,-0.098 1.017,-0.282 1.617,-0.447 0.6,-0.165 1.203,-0.313 1.633,-0.339 0.034,-0.003 0.061,-0.021 0.078,-0.047 0.016,-0.026 0.022,-0.059 0.012,-0.092 -0.133,-0.423 -0.207,-0.788 -0.265,-1.153 -0.058,-0.365 -0.101,-0.731 -0.171,-1.16 h -0.055 c -0.187,0.319 -0.375,0.691 -0.615,1.012 -0.24,0.319 -0.533,0.586 -0.932,0.693 -0.342,0.048 -0.602,0.036 -0.834,-0.042 -0.232,-0.079 -0.436,-0.225 -0.667,-0.446 -0.012,-0.012 -0.029,-0.019 -0.046,-0.019 -0.017,-10e-4 -0.034,0.005 -0.047,0.016 -0.183,0.148 -0.457,0.211 -0.736,0.209 -0.278,-0.003 -0.558,-0.07 -0.752,-0.178 -0.181,-0.102 -0.342,-0.239 -0.472,-0.405 -0.13,-0.167 -0.228,-0.362 -0.284,-0.576 -0.024,-0.146 -0.027,-0.312 -0.007,-0.481 0.021,-0.169 0.063,-0.34 0.127,-0.493 0.01,-0.023 0.008,-0.046 -0.002,-0.066 -0.011,-0.019 -0.029,-0.034 -0.053,-0.038 -0.271,-0.047 -0.506,-0.091 -0.724,-0.192 -0.219,-0.101 -0.421,-0.258 -0.624,-0.533 -0.263,-0.374 -0.356,-0.826 -0.282,-1.259 0.074,-0.433 0.313,-0.845 0.712,-1.139 0.276,-0.201 0.517,-0.281 0.762,-0.306 0.245,-0.026 0.495,0.005 0.791,0.026 0.047,0.004 0.064,-0.015 0.069,-0.033 0.005,-0.02 -10e-4,-0.039 -10e-4,-0.039 l -0.012,-0.036 -0.012,-0.035 c -0.067,-0.238 -0.067,-0.423 -0.031,-0.589 0.037,-0.166 0.11,-0.313 0.19,-0.472 -0.664,-0.104 -1.33,-0.355 -1.968,-0.747 -0.637,-0.392 -1.246,-0.926 -1.795,-1.595 -0.037,-0.044 -0.084,-0.076 -0.136,-0.093 -0.052,-0.016 -0.109,-0.017 -0.162,10e-4 -0.74,0.261 -1.697,0.11 -2.495,-0.281 -0.798,-0.39 -1.436,-1.02 -1.538,-1.717 -0.004,-0.029 -0.015,-0.056 -0.031,-0.08 -0.016,-0.024 -0.038,-0.044 -0.065,-0.056 l -0.581,-0.291 -0.581,-0.29 c -0.04,-0.02 -0.08,-0.007 -0.104,0.02 -0.023,0.027 -0.031,0.069 -0.005,0.108 0.138,0.2 0.235,0.437 0.291,0.695 0.056,0.258 0.073,0.534 0.053,0.811 l 1.574,2.129 1.575,2.128 c 0.132,0.159 0.172,0.371 0.139,0.576 -0.033,0.205 -0.139,0.405 -0.298,0.54 -0.188,0.108 -0.401,0.147 -0.601,0.114 -0.2,-0.035 -0.388,-0.142 -0.523,-0.328 l -1.544,-2.074 -1.544,-2.072 c -0.327,-0.065 -0.627,-0.175 -0.882,-0.325 -0.255,-0.15 -0.465,-0.341 -0.613,-0.568 -0.016,-0.025 -0.044,-0.03 -0.066,-0.022 -0.022,0.009 -0.038,0.031 -0.033,0.061 l 0.256,1.492 c 0.678,0.257 1.114,1.073 1.259,1.976 0.145,0.905 -10e-4,1.896 -0.486,2.506 0.715,0.503 1.449,0.986 2.198,1.447 0.749,0.46 1.513,0.899 2.29,1.313 0.074,-0.267 0.25,-1.16 0.489,-1.961 0.239,-0.8 0.54,-1.507 0.862,-1.399 0.08,0.027 0.147,0.067 0.201,0.12 0.055,0.052 0.097,0.119 0.124,0.198 l 0.452,1.622 0.451,1.623 c 0.027,0.058 0.051,0.154 0.055,0.248 0.004,0.094 -0.009,0.184 -0.055,0.23 l -0.27,0.46 0.039,0.018 0.04,0.019 0.51,-0.546 c 0.028,-0.028 0.055,-0.068 0.089,-0.108 0.034,-0.04 0.074,-0.079 0.126,-0.107 0.23,-0.073 0.402,0.057 0.544,0.24 0.142,0.184 0.254,0.419 0.365,0.558 0.104,0.132 0.172,0.236 0.195,0.344 0.022,0.109 10e-4,0.223 -0.073,0.373 0.286,0.114 0.574,0.225 0.866,0.335 0.29,0.11 0.583,0.217 0.878,0.321 m 6.234,1.402 c -0.071,-0.132 -0.139,-0.265 -0.202,-0.399 -0.064,-0.135 -0.124,-0.271 -0.181,-0.407 -0.01,-0.025 -0.031,-0.041 -0.055,-0.045 -0.023,-0.005 -0.049,0.002 -0.067,0.021 -0.11,0.112 -0.222,0.226 -0.333,0.339 -0.111,0.113 -0.222,0.227 -0.333,0.339 -0.031,0.033 -0.039,0.076 -0.027,0.114 0.011,0.038 0.041,0.07 0.086,0.079 0.167,0.037 0.335,0.072 0.503,0.107 0.169,0.034 0.338,0.067 0.509,0.099 0.045,0.008 0.083,-0.028 0.104,-0.08 0.02,-0.051 0.023,-0.117 -0.004,-0.167 m 10.458,0.767 c -0.232,-0.595 -0.466,-1.2 -0.713,-1.837 -0.246,-0.636 -0.503,-1.304 -0.78,-2.025 -0.036,-0.093 -0.015,-0.19 0.041,-0.258 0.056,-0.07 0.146,-0.112 0.246,-0.096 2.996,0.456 3.958,0.603 4.652,0.712 0.694,0.108 1.121,0.178 3.048,0.477 0.034,0.005 0.065,0.021 0.09,0.043 0.025,0.022 0.044,0.051 0.053,0.084 l 0.225,0.851 0.225,0.85 c 0.013,0.052 0.041,0.103 0.08,0.148 0.038,0.046 0.086,0.085 0.14,0.115 0.016,0.009 0.033,0.014 0.05,0.015 0.018,0.002 0.036,0.001 0.053,-0.004 0.066,-0.016 0.132,-0.032 0.199,-0.049 0.067,-0.016 0.134,-0.032 0.202,-0.048 0.053,-0.055 0.094,-0.118 0.118,-0.184 0.023,-0.068 0.029,-0.138 0.011,-0.208 l -0.165,-0.633 -0.165,-0.632 c -0.011,-0.041 0.001,-0.08 0.026,-0.107 0.024,-0.028 0.063,-0.043 0.104,-0.037 l 0.42,0.062 0.422,0.063 c 0.015,0.002 0.03,0.009 0.041,0.02 0.011,0.01 0.019,0.023 0.023,0.039 l 0.15,0.616 0.149,0.617 c 0.006,0.023 0.02,0.041 0.039,0.052 0.018,0.011 0.041,0.015 0.064,0.008 0.117,-0.033 0.235,-0.067 0.353,-0.102 0.118,-0.036 0.237,-0.071 0.354,-0.106 0.018,-0.006 0.032,-0.018 0.041,-0.033 0.009,-0.016 0.012,-0.034 0.008,-0.053 l -0.097,-0.431 -0.096,-0.43 c -0.005,-0.02 0.002,-0.039 0.014,-0.053 0.013,-0.013 0.032,-0.02 0.052,-0.017 l 1.726,0.304 c 0.027,0.004 0.054,0.009 0.081,0.014 0.027,0.005 0.053,0.011 0.078,0.016 0.038,0.009 0.07,0.006 0.091,-0.007 0.021,-0.015 0.031,-0.04 0.027,-0.078 -0.018,-0.131 -0.046,-0.358 -0.071,-0.591 -0.024,-0.233 -0.045,-0.473 -0.046,-0.634 0,-0.015 -0.006,-0.028 -0.015,-0.039 -0.009,-0.01 -0.022,-0.018 -0.037,-0.02 l -0.884,-0.143 -0.885,-0.143 c -0.036,-0.006 -0.064,-0.029 -0.078,-0.059 -0.015,-0.03 -0.015,-0.066 0.003,-0.098 l 0.417,-0.732 0.416,-0.73 c 0.08,-0.104 0.093,-0.224 0.058,-0.338 -0.033,-0.113 -0.113,-0.221 -0.217,-0.3 -0.108,-0.052 -0.227,-0.052 -0.334,-0.012 -0.107,0.04 -0.201,0.12 -0.256,0.227 l -1.076,1.79 c -0.013,0.021 -0.031,0.036 -0.051,0.046 -0.021,0.01 -0.045,0.014 -0.069,0.01 l -0.389,-0.062 -0.389,-0.061 c -0.037,-0.006 -0.066,-0.029 -0.081,-0.061 -0.014,-0.03 -0.015,-0.067 0.005,-0.099 l 0.822,-1.404 c 0.055,-0.107 0.07,-0.227 0.043,-0.334 -0.027,-0.106 -0.095,-0.2 -0.202,-0.255 -0.104,-0.08 -0.225,-0.091 -0.331,-0.058 -0.107,0.034 -0.2,0.113 -0.252,0.218 l -0.537,0.894 -0.536,0.895 c -0.013,0.022 -0.034,0.04 -0.057,0.05 -0.023,0.011 -0.05,0.015 -0.076,0.011 -1.294,-0.204 -2.205,-0.345 -3.306,-0.511 -1.1,-0.166 -2.392,-0.356 -4.449,-0.655 -0.07,-0.011 -0.121,-0.056 -0.144,-0.114 -0.022,-0.058 -0.017,-0.127 0.027,-0.182 1.167,-1.459 2.015,-2.506 2.761,-3.428 0.746,-0.923 1.39,-1.721 2.151,-2.682 0.017,-0.022 0.041,-0.038 0.066,-0.046 0.026,-0.008 0.054,-0.009 0.08,-0.001 l 0.997,0.306 0.996,0.305 c 0.108,0.028 0.228,0.014 0.327,-0.04 0.1,-0.053 0.18,-0.147 0.207,-0.279 0.053,-0.107 0.039,-0.226 -0.015,-0.326 -0.053,-0.1 -0.147,-0.18 -0.255,-0.207 l -0.796,-0.242 -0.795,-0.242 c -0.04,-0.012 -0.067,-0.042 -0.078,-0.077 -0.01,-0.035 -0.005,-0.075 0.02,-0.106 l 0.233,-0.29 0.232,-0.29 c 0.02,-0.026 0.047,-0.043 0.077,-0.053 0.03,-0.009 0.062,-0.01 0.093,0 l 1.014,0.304 1.014,0.303 c 0.107,0.028 0.227,10e-4 0.326,-0.058 0.1,-0.061 0.18,-0.153 0.208,-0.261 0.055,-0.104 0.041,-0.224 -0.012,-0.324 -0.054,-0.101 -0.148,-0.182 -0.252,-0.21 l -0.822,-0.245 -0.821,-0.246 c -0.029,-0.009 -0.049,-0.03 -0.057,-0.056 -0.008,-0.025 -0.005,-0.055 0.013,-0.079 l 1.152,-1.502 c 0.132,-0.132 0.186,-0.304 0.167,-0.469 -0.019,-0.166 -0.111,-0.325 -0.271,-0.432 -0.135,-0.132 -0.309,-0.186 -0.475,-0.173 -0.167,0.014 -0.326,0.093 -0.434,0.228 l -0.54,0.684 -0.541,0.685 c -0.021,0.027 -0.054,0.039 -0.085,0.036 -0.031,-0.002 -0.06,-0.02 -0.077,-0.05 l -0.311,-0.57 -0.312,-0.571 c -0.052,-0.107 -0.146,-0.186 -0.253,-0.226 -0.108,-0.04 -0.229,-0.04 -0.336,0.012 -0.105,0.079 -0.184,0.186 -0.224,0.298 -0.041,0.113 -0.041,0.233 0.015,0.34 l 0.844,1.492 c 0.018,0.031 0.024,0.065 0.021,0.099 -0.003,0.033 -0.017,0.065 -0.04,0.092 l -0.258,0.297 -0.258,0.296 c -0.025,0.029 -0.059,0.039 -0.092,0.037 -0.033,-0.004 -0.064,-0.023 -0.081,-0.055 l -0.311,-0.571 -0.31,-0.571 c -0.052,-0.107 -0.145,-0.187 -0.25,-0.227 -0.106,-0.04 -0.226,-0.04 -0.334,0.012 -0.107,0.08 -0.187,0.187 -0.22,0.301 -0.033,0.113 -0.019,0.233 0.061,0.337 l 0.404,0.782 0.405,0.782 c 0.013,0.026 0.018,0.055 0.015,0.084 -0.003,0.028 -0.014,0.055 -0.033,0.078 -0.979,1.204 -1.39,1.708 -1.963,2.42 -0.573,0.712 -1.308,1.631 -2.935,3.668 -0.059,0.073 -0.146,0.101 -0.228,0.088 -0.082,-0.012 -0.157,-0.064 -0.192,-0.152 -0.746,-1.894 -1.181,-3.012 -1.566,-3.994 -0.384,-0.982 -0.718,-1.831 -1.262,-3.189 -0.017,-0.041 -0.02,-0.085 -0.011,-0.126 0.009,-0.042 0.03,-0.082 0.062,-0.111 l 0.693,-0.643 0.692,-0.644 c 0.08,-0.079 0.134,-0.199 0.148,-0.318 0.013,-0.12 -0.013,-0.24 -0.093,-0.32 -0.107,-0.079 -0.228,-0.132 -0.342,-0.139 -0.115,-0.008 -0.222,0.032 -0.302,0.139 l -0.551,0.529 -0.552,0.529 c -0.029,0.027 -0.067,0.036 -0.101,0.029 -0.035,-0.008 -0.067,-0.03 -0.082,-0.067 l -0.161,-0.379 -0.161,-0.378 c -0.013,-0.031 -0.016,-0.064 -0.009,-0.096 0.006,-0.032 0.022,-0.061 0.046,-0.085 l 0.706,-0.678 0.705,-0.679 c 0.108,-0.08 0.161,-0.188 0.168,-0.294 0.007,-0.106 -0.033,-0.212 -0.113,-0.289 -0.107,-0.107 -0.227,-0.161 -0.34,-0.168 -0.112,-0.007 -0.218,0.033 -0.298,0.113 l -0.548,0.523 -0.547,0.521 c -0.032,0.031 -0.073,0.04 -0.111,0.031 -0.038,-0.008 -0.072,-0.035 -0.088,-0.075 l -0.314,-0.819 -0.314,-0.818 c -0.079,-0.161 -0.213,-0.28 -0.373,-0.346 -0.161,-0.067 -0.348,-0.081 -0.535,-0.028 -0.16,0.079 -0.28,0.212 -0.346,0.372 -0.066,0.159 -0.078,0.344 -0.023,0.529 l 0.6,1.52 c 0.022,0.057 0.012,0.116 -0.02,0.16 -0.031,0.044 -0.083,0.073 -0.143,0.071 l -0.673,-0.024 -0.672,-0.022 c -0.133,0 -0.238,0.054 -0.311,0.14 -0.073,0.087 -0.113,0.206 -0.113,0.338 0,0.107 0.04,0.213 0.113,0.293 0.073,0.078 0.178,0.13 0.311,0.13 l 0.921,0.026 0.922,0.026 c 0.039,10e-4 0.075,0.014 0.105,0.034 0.031,0.022 0.055,0.052 0.069,0.088 l 0.132,0.337 0.131,0.336 c 0.016,0.04 0.009,0.081 -0.012,0.112 -0.022,0.032 -0.057,0.053 -0.1,0.053 h -1.419 c -0.136,-0.024 -0.243,0.016 -0.317,0.095 -0.073,0.08 -0.113,0.199 -0.113,0.335 -0.028,0.106 0.012,0.213 0.093,0.292 0.08,0.078 0.201,0.131 0.337,0.131 l 0.916,0.025 0.916,0.026 c 0.042,0.001 0.082,0.015 0.115,0.038 0.032,0.025 0.059,0.058 0.073,0.097 0.545,1.431 0.844,2.208 1.204,3.135 0.36,0.927 0.781,2.003 1.568,4.031 0.036,0.093 0.015,0.188 -0.04,0.255 -0.054,0.068 -0.142,0.109 -0.241,0.094 -2.495,-0.388 -3.621,-0.561 -4.512,-0.695 -0.891,-0.133 -1.549,-0.228 -3.108,-0.457 -0.012,-0.001 -0.023,-0.007 -0.032,-0.015 -0.009,-0.008 -0.016,-0.019 -0.019,-0.03 l -0.524,-2.034 c -0.025,-0.131 -0.091,-0.225 -0.183,-0.279 -0.093,-0.054 -0.213,-0.067 -0.345,-0.04 -0.108,0.028 -0.201,0.094 -0.262,0.187 -0.06,0.092 -0.088,0.212 -0.063,0.347 l 0.202,0.8 0.202,0.801 c 0.006,0.023 -10e-4,0.046 -0.015,0.061 -0.014,0.016 -0.036,0.026 -0.06,0.022 l -0.452,-0.068 -0.452,-0.067 c -0.019,-0.003 -0.037,-0.012 -0.05,-0.024 -0.014,-0.013 -0.024,-0.03 -0.029,-0.049 l -0.464,-2.01 c -0.027,-0.132 -0.107,-0.225 -0.207,-0.278 -0.1,-0.054 -0.22,-0.068 -0.327,-0.04 -0.132,0.027 -0.226,0.093 -0.28,0.186 -0.053,0.093 -0.067,0.212 -0.04,0.347 l 0.199,0.783 0.198,0.783 c 0.008,0.032 -10e-4,0.063 -0.021,0.084 -0.019,0.023 -0.048,0.035 -0.081,0.031 l -0.921,-0.124 -0.92,-0.122 c -0.188,-0.028 -0.373,0.025 -0.519,0.123 -0.146,0.099 -0.252,0.245 -0.28,0.405 -0.027,0.186 0.027,0.374 0.134,0.521 0.107,0.147 0.269,0.254 0.456,0.281 l 0.857,0.125 0.856,0.125 c 0.023,0.003 0.041,0.018 0.05,0.038 0.01,0.018 0.01,0.042 -0.002,0.062 l -0.35,0.595 -0.349,0.596 c -0.08,0.107 -0.092,0.226 -0.064,0.332 0.027,0.106 0.094,0.198 0.174,0.25 0.105,0.083 0.237,0.11 0.356,0.09 0.12,-0.019 0.227,-0.088 0.283,-0.194 l 0.464,-0.773 0.465,-0.774 c 0.009,-0.014 0.021,-0.026 0.036,-0.033 0.015,-0.007 0.031,-0.009 0.048,-0.007 l 0.47,0.07 0.47,0.071 c 0.017,0.003 0.031,0.013 0.037,0.027 0.006,0.015 0.006,0.031 -0.003,0.046 l -0.379,0.606 -0.38,0.607 c -0.056,0.107 -0.069,0.227 -0.042,0.34 0.027,0.112 0.094,0.218 0.201,0.298 0.105,0.055 0.224,0.069 0.331,0.043 0.107,-0.028 0.201,-0.095 0.253,-0.203 l 0.496,-0.807 0.496,-0.809 c 0.006,-0.01 0.016,-0.017 0.026,-0.022 0.011,-0.005 0.023,-0.007 0.035,-0.005 1.323,0.205 2.441,0.385 3.646,0.575 1.205,0.19 2.497,0.393 4.166,0.64 0.091,0.013 0.158,0.074 0.187,0.149 0.029,0.075 0.021,0.165 -0.037,0.236 -0.722,0.899 -1.309,1.627 -1.822,2.261 -0.513,0.634 -0.951,1.174 -1.376,1.694 -0.045,0.055 -0.051,0.126 -0.027,0.184 0.024,0.059 0.077,0.105 0.149,0.112 0.184,0.021 0.368,0.04 0.553,0.059 0.184,0.019 0.369,0.036 0.555,0.052 0.044,0.004 0.088,-0.004 0.128,-0.022 0.039,-0.016 0.074,-0.043 0.102,-0.078 0.277,-0.351 0.605,-0.766 1.048,-1.325 0.442,-0.558 1.001,-1.258 1.736,-2.179 0.051,-0.063 0.127,-0.088 0.198,-0.077 0.07,0.011 0.135,0.056 0.165,0.132 0.328,0.831 0.598,1.516 0.832,2.107 0.233,0.591 0.429,1.088 0.609,1.544 0.004,0.012 0.012,0.021 0.022,0.028 0.01,0.006 0.022,0.009 0.034,0.009 0.205,-0.005 0.409,-0.013 0.613,-0.023 0.204,-0.009 0.407,-0.02 0.612,-0.029 0.024,-0.002 0.05,-0.031 0.068,-0.066 0.017,-0.035 0.026,-0.077 0.015,-0.104 m 6.147,-0.728 c -0.077,-0.174 -0.143,-0.388 -0.204,-0.608 -0.06,-0.22 -0.114,-0.444 -0.165,-0.632 -0.004,-0.015 -0.041,-0.031 -0.079,-0.038 -0.038,-0.008 -0.076,-0.007 -0.082,0.013 -0.076,0.229 -0.213,0.525 -0.36,0.811 -0.148,0.285 -0.306,0.561 -0.422,0.749 -0.004,0.008 -0.002,0.017 0.003,0.024 0.005,0.006 0.014,0.011 0.022,0.009 0.212,-0.036 0.422,-0.074 0.632,-0.114 0.21,-0.039 0.42,-0.08 0.632,-0.122 0.01,-0.002 0.019,-0.018 0.023,-0.037 0.005,-0.019 0.006,-0.041 0,-0.055 m 27.333,-18.908 -3.864,-1.529 -3.865,-1.531 c 0,0.479 -0.267,0.877 -0.641,1.071 -0.373,0.193 -0.854,0.181 -1.281,-0.162 l 0.807,2.206 0.806,2.206 c 0.011,0.032 0.033,0.059 0.06,0.079 0.027,0.019 0.059,0.031 0.094,0.033 0.906,0.041 1.789,0.186 2.646,0.423 0.858,0.236 1.69,0.565 2.495,0.975 0.032,0.017 0.068,0.021 0.101,0.014 0.033,-0.008 0.064,-0.025 0.086,-0.054 0.457,-0.575 0.9,-1.161 1.328,-1.758 0.428,-0.598 0.841,-1.206 1.237,-1.828 0.012,-0.019 0.01,-0.055 0.004,-0.086 -0.005,-0.033 -0.013,-0.059 -0.013,-0.059 m 1.855,-3.041 c -0.332,-0.181 -0.648,-0.385 -0.948,-0.61 -0.3,-0.225 -0.584,-0.472 -0.851,-0.739 -0.562,-0.558 -1.042,-1.196 -1.422,-1.893 -0.38,-0.698 -0.659,-1.455 -0.819,-2.253 L -6.975,20.7 -8.94,21.033 c -0.019,0.003 -0.029,0.016 -0.031,0.031 -0.002,0.015 0.005,0.031 0.021,0.039 0.412,0.208 0.615,0.598 0.62,0.989 0.005,0.393 -0.188,0.789 -0.567,1.007 -0.014,0.009 -0.023,0.023 -0.024,0.037 -0.002,0.015 0.003,0.03 0.016,0.04 l 3.134,2.66 3.135,2.658 c 0.029,0.024 0.064,0.032 0.097,0.027 0.033,-0.005 0.064,-0.023 0.083,-0.055 0.263,-0.422 0.519,-0.851 0.766,-1.286 0.248,-0.433 0.488,-0.874 0.72,-1.319 M 3.272,13.24 c -0.742,-0.027 -1.484,0.107 -2.17,0.381 -0.687,0.272 -1.32,0.683 -1.845,1.208 -0.507,0.506 -0.907,1.092 -1.181,1.736 -0.274,0.646 -0.421,1.352 -0.421,2.097 0,0.745 0.147,1.464 0.421,2.115 0.274,0.651 0.674,1.236 1.181,1.711 0.147,0.16 0.306,0.307 0.473,0.442 0.169,0.136 0.347,0.26 0.534,0.374 0.697,-1.586 1.301,-3.221 1.806,-4.901 0.504,-1.68 0.908,-3.402 1.202,-5.163 M 3.862,5.678 C 3.718,5.673 3.567,5.657 3.419,5.637 3.271,5.619 3.125,5.595 2.99,5.574 L 2.563,6.372 2.137,7.169 3.727,9.573 C 3.779,8.925 3.816,8.277 3.838,7.628 3.86,6.978 3.868,6.329 3.862,5.678 M 2.241,-5.538 1.922,-4.955 1.603,-4.373 2.082,-3.628 2.56,-2.883 C 2.612,-2.902 2.666,-2.918 2.721,-2.933 2.775,-2.948 2.831,-2.959 2.886,-2.969 2.791,-3.405 2.689,-3.835 2.582,-4.263 2.474,-4.691 2.361,-5.116 2.241,-5.538 M -2.29,-15.921 c -0.589,0.254 -1.084,0.675 -1.431,1.194 -0.346,0.518 -0.546,1.136 -0.546,1.786 0,0.889 0.369,1.7 0.959,2.289 0.591,0.589 1.405,0.955 2.295,0.955 0.304,0 0.597,-0.041 0.874,-0.118 0.277,-0.078 0.538,-0.191 0.778,-0.335 -0.418,-1.003 -0.871,-1.987 -1.359,-2.95 -0.488,-0.963 -1.011,-1.904 -1.57,-2.821 m -1.443,-2.226 c -0.153,0.125 -0.317,0.234 -0.488,0.323 -0.17,0.089 -0.347,0.158 -0.525,0.204 -0.212,0.052 -0.317,0.052 -0.331,0.058 -0.013,0.006 0.067,0.019 0.227,0.095 0.132,0.083 0.266,0.19 0.386,0.317 0.12,0.126 0.228,0.272 0.308,0.431 0.147,-0.122 0.302,-0.235 0.464,-0.339 0.162,-0.103 0.331,-0.197 0.505,-0.28 -0.088,-0.138 -0.179,-0.273 -0.271,-0.407 -0.091,-0.134 -0.183,-0.268 -0.275,-0.402 m -12.155,-11.615 c 0.06,0.247 0.131,0.488 0.214,0.725 0.082,0.236 0.175,0.468 0.28,0.694 0.011,0.022 0.029,0.038 0.051,0.045 0.021,0.007 0.046,0.005 0.067,-0.008 l 0.407,-0.232 0.407,-0.233 c 0.019,-0.011 0.029,-0.03 0.03,-0.05 0.001,-0.02 -0.007,-0.04 -0.026,-0.053 -0.227,-0.16 -0.456,-0.316 -0.686,-0.469 -0.23,-0.154 -0.461,-0.305 -0.694,-0.455 -0.013,-0.008 -0.027,-0.006 -0.037,10e-4 -0.01,0.008 -0.017,0.021 -0.013,0.035 m -15.905,-6.022 -1.23,0.614 -1.229,0.614 c -0.061,0.03 -0.086,0.09 -0.081,0.147 0.006,0.057 0.044,0.11 0.11,0.127 l 3.007,0.782 3.008,0.782 c 0.16,0.042 0.241,0.177 0.242,0.312 0.001,0.135 -0.078,0.271 -0.238,0.315 l -3.039,0.831 -3.038,0.832 c -0.057,0.016 -0.09,0.063 -0.095,0.112 -0.005,0.05 0.017,0.102 0.07,0.13 l 1.419,0.732 1.42,0.732 c 0.02,0.01 0.042,0.017 0.065,0.02 0.022,0.002 0.045,0.001 0.067,-0.004 l 2.496,-0.598 2.497,-0.597 c 0.078,-0.019 0.158,-0.01 0.228,0.022 0.069,0.032 0.129,0.086 0.166,0.158 l 0.634,1.224 c 0.037,0.072 0.035,0.152 0.004,0.218 -0.031,0.067 -0.092,0.119 -0.171,0.137 l -1.827,0.399 -1.827,0.398 c -0.033,0.008 -0.052,0.033 -0.057,0.061 -0.004,0.028 0.007,0.058 0.037,0.074 l 0.953,0.536 0.954,0.535 0.748,-0.021 0.748,-0.022 c 0.052,-0.002 0.103,0.007 0.15,0.026 0.047,0.018 0.09,0.047 0.127,0.083 l 1.586,1.59 c 0.107,-0.055 0.228,-0.082 0.356,-0.089 0.127,-0.007 0.261,0.007 0.393,0.034 0.506,0.132 0.72,0.266 0.727,0.232 0.007,-0.032 -0.193,-0.232 -0.512,-0.765 -0.215,-0.292 -0.375,-0.597 -0.421,-0.889 -0.046,-0.293 0.022,-0.574 0.261,-0.816 0.292,-0.264 0.625,-0.33 0.938,-0.303 0.313,0.027 0.606,0.147 0.818,0.254 0.107,0.08 0.147,0.133 0.147,0.133 0,0 -0.04,-0.053 -0.091,-0.188 -0.271,-0.644 -0.192,-1.483 0.161,-2.12 0.353,-0.637 0.98,-1.073 1.809,-0.91 0.534,0.16 0.921,0.624 1.135,1.175 0.213,0.552 0.252,1.189 0.093,1.695 -0.021,0.086 -0.038,0.151 -0.049,0.198 -0.011,0.047 -0.015,0.078 -0.012,0.097 0.006,0.048 0.083,-0.039 0.267,-0.139 0.184,-0.099 0.475,-0.211 0.911,-0.211 -0.31,-0.62 -0.555,-1.267 -0.736,-1.938 -0.181,-0.671 -0.298,-1.368 -0.35,-2.085 -2.028,-1.13 -4.157,-2.1 -6.371,-2.892 -2.214,-0.792 -4.512,-1.407 -6.877,-1.829 -0.048,-0.009 -0.174,0.005 -0.287,0.021 -0.113,0.016 -0.214,0.034 -0.214,0.034 m -4.148,-18.73 c -0.369,-0.369 -0.808,-0.666 -1.295,-0.872 -0.487,-0.205 -1.023,-0.318 -1.585,-0.318 -0.561,0 -1.097,0.113 -1.584,0.318 -0.488,0.206 -0.927,0.503 -1.295,0.872 -0.368,0.367 -0.666,0.806 -0.872,1.292 -0.206,0.487 -0.319,1.022 -0.319,1.583 0,0.562 0.113,1.097 0.319,1.583 0.206,0.487 0.504,0.926 0.872,1.294 0.368,0.368 0.807,0.665 1.295,0.871 0.487,0.205 1.023,0.318 1.584,0.318 0.562,0 1.098,-0.113 1.585,-0.318 0.487,-0.206 0.926,-0.503 1.295,-0.871 0.368,-0.368 0.666,-0.807 0.872,-1.294 0.205,-0.486 0.319,-1.021 0.319,-1.583 0,-0.561 -0.114,-1.096 -0.319,-1.583 -0.206,-0.486 -0.504,-0.925 -0.872,-1.292 m 6.445,14.606 c 0.017,0.02 0.027,0.032 0.04,0.04 0.013,0.008 0.028,0.012 0.053,0.017 4.595,0.936 8.948,2.541 12.951,4.71 4.003,2.169 7.657,4.902 10.853,8.095 4.251,4.247 7.691,9.303 10.068,14.918 2.377,5.614 3.691,11.787 3.691,18.266 0,6.48 -1.314,12.653 -3.691,18.267 -2.377,5.614 -5.817,10.671 -10.068,14.918 -4.252,4.247 -9.314,7.683 -14.935,10.057 -5.621,2.374 -11.8,3.686 -18.287,3.686 -6.489,0 -12.67,-1.312 -18.292,-3.686 -5.621,-2.374 -10.683,-5.81 -14.935,-10.057 -4.249,-4.247 -7.688,-9.304 -10.066,-14.918 -2.378,-5.614 -3.693,-11.787 -3.693,-18.267 0,-6.479 1.315,-12.652 3.693,-18.266 2.378,-5.615 5.817,-10.671 10.066,-14.918 3.214,-3.211 6.89,-5.958 10.921,-8.134 4.03,-2.175 8.416,-3.779 13.048,-4.702 v -5.47 c 0,-0.433 0.197,-0.835 0.532,-1.165 0.335,-0.33 0.807,-0.589 1.358,-0.736 0.052,-0.013 0.089,-0.051 0.107,-0.096 0.018,-0.046 0.016,-0.1 -0.011,-0.146 -0.349,-0.611 -0.623,-1.269 -0.809,-1.964 -0.187,-0.695 -0.287,-1.425 -0.287,-2.18 0,-1.152 0.233,-2.251 0.656,-3.252 0.423,-1 1.035,-1.902 1.794,-2.659 0.758,-0.755 1.659,-1.366 2.66,-1.79 1,-0.423 2.101,-0.657 3.258,-0.657 1.154,0 2.255,0.234 3.256,0.657 1.001,0.424 1.901,1.035 2.657,1.79 0.758,0.757 1.372,1.659 1.796,2.659 0.425,1.001 0.66,2.1 0.66,3.252 0,0.732 -0.094,1.441 -0.271,2.117 -0.176,0.675 -0.436,1.318 -0.768,1.915 -0.042,0.076 -0.042,0.162 -0.011,0.234 0.031,0.072 0.093,0.132 0.177,0.158 0.518,0.158 0.959,0.416 1.27,0.738 0.311,0.322 0.493,0.709 0.493,1.125 v 5.237 c 0,0 0.007,0.041 0.019,0.087 0.012,0.046 0.028,0.098 0.047,0.12"
         style="fill:none;stroke:#ff0000;stroke-width:0.38px"
         id="path174" />
    </g>
  </g>
</svg>
