<?xml version="1.0" encoding="UTF-8" standalone="no"?>
<!-- Created with Inkscape (http://www.inkscape.org/) -->

<svg
   width="62.999134mm"
   height="80.041069mm"
   viewBox="0 0 62.999134 80.041069"
   version="1.1"
   id="svg291"
   xmlns="http://www.w3.org/2000/svg"
   xmlns:svg="http://www.w3.org/2000/svg">
  <defs
     id="defs288" />
  <g
     id="layer1"
     transform="translate(-290.64063,-70.302911)">
    <g
       transform="matrix(0.70555643,0,0,0.70555643,343.8791,120.37759)"
       id="g188"
       style="clip-rule:evenodd;fill-rule:evenodd;stroke-linejoin:round;stroke-miterlimit:2">
      <path
         d="m 0,-28.6 c 1.759,2.032 3.319,4.241 4.65,6.595 1.332,2.354 2.435,4.854 3.28,7.468 0.016,0.05 0.003,0.086 -0.024,0.1 -0.027,0.014 -0.067,0.006 -0.104,-0.033 -0.047,-0.048 -0.093,-0.095 -0.139,-0.141 -0.046,-0.046 -0.093,-0.091 -0.141,-0.134 -0.708,-0.709 -1.018,-0.757 -1.082,-0.483 -0.064,0.275 0.118,0.873 0.393,1.455 0.187,0.366 0.245,1.295 0.165,2.091 -0.081,0.796 -0.299,1.458 -0.662,1.29 C 5.852,-10.617 5.507,-11.457 5.23,-12.363 4.954,-13.268 4.746,-14.237 4.534,-14.718 4.457,-14.899 4.371,-14.984 4.261,-15 c -0.111,-0.018 -0.245,0.031 -0.422,0.117 -0.401,0.192 -0.647,1.105 -0.935,1.916 -0.288,0.809 -0.618,1.517 -1.187,1.299 -0.936,-0.359 -1.034,-1.523 -0.956,-2.643 0.078,-1.121 0.333,-2.198 0.106,-2.383 -0.535,-0.171 -0.928,0.184 -1.202,0.677 -0.275,0.494 -0.432,1.129 -0.493,1.519 -0.107,0.642 -0.113,1.302 0.013,1.93 0.126,0.628 0.384,1.224 0.806,1.739 0.038,0.047 0.061,0.104 0.067,0.162 0.006,0.057 -0.005,0.117 -0.036,0.17 -0.568,1.006 -0.969,1.845 -1.236,2.569 -0.267,0.723 -0.401,1.33 -0.434,1.873 -0.002,0.032 -0.024,0.054 -0.049,0.06 -0.026,0.007 -0.055,-0.001 -0.074,-0.027 -0.312,-0.448 -0.916,-1.063 -1.532,-1.53 -0.615,-0.467 -1.245,-0.784 -1.609,-0.635 -0.332,0.294 0.299,1.324 1.061,2.558 0.763,1.234 1.657,2.67 1.852,3.775 0.078,0.433 -0.07,1.021 -0.395,1.401 -0.325,0.381 -0.826,0.556 -1.454,0.165 -1.377,-0.864 -2.12,-2.197 -2.627,-3.298 -0.507,-1.102 -0.779,-1.971 -1.212,-1.904 -0.43,0.059 -0.514,1.02 -0.465,2.037 0.049,1.017 0.233,2.09 0.337,2.374 0.077,0.336 0.128,0.63 0.152,0.884 0.024,0.254 0.022,0.469 -0.008,0.649 -0.048,0.296 -0.305,0.565 -0.627,0.687 -0.323,0.122 -0.712,0.097 -1.025,-0.196 -1.013,-0.713 -1.282,-2.477 -1.451,-4.056 -0.168,-1.58 -0.235,-2.974 -0.842,-2.951 -0.433,0.067 -0.737,0.684 -0.972,1.422 -0.235,0.737 -0.402,1.596 -0.562,2.145 -0.153,0.492 -0.577,1.164 -1.005,1.538 -0.429,0.375 -0.864,0.452 -1.037,-0.245 -0.07,-0.281 -0.058,-0.658 0.002,-1.047 0.06,-0.389 0.169,-0.79 0.292,-1.116 0.24,-0.628 0.308,-1.272 0.117,-1.654 -0.191,-0.382 -0.641,-0.501 -1.438,-0.076 -0.3,0.16 -0.942,0.487 -1.712,0.795 -0.77,0.306 -1.667,0.594 -2.474,0.674 -0.721,0.015 -1.368,-0.13 -1.696,-0.384 -0.327,-0.254 -0.336,-0.617 0.221,-1.037 0.235,-0.179 0.541,-0.368 0.909,-0.563 0.368,-0.194 0.799,-0.392 1.283,-0.591 0.384,-0.132 0.72,-0.332 0.882,-0.563 0.162,-0.232 0.152,-0.496 -0.155,-0.761 -0.212,-0.186 -0.611,-0.291 -0.985,-0.342 -0.373,-0.051 -0.721,-0.05 -0.828,-0.026 -2.226,0.117 -3.508,-1.417 -3.042,-2.413 0.467,-0.997 2.681,-1.456 7.447,0.81 2.012,0.929 3.398,1.522 4.869,1.597 1.472,0.075 3.027,-0.367 5.375,-1.513 0.059,-0.028 0.121,-0.047 0.185,-0.058 0.065,-0.011 0.13,-0.013 0.195,-0.006 0.611,0.059 1.192,-0.035 1.697,-0.284 0.505,-0.25 0.932,-0.654 1.237,-1.22 0.606,-1.158 0.306,-2.521 -0.246,-3.541 -0.552,-1.019 -1.355,-1.694 -1.754,-1.478 -0.293,0.208 -0.232,0.676 -0.094,1.253 0.137,0.576 0.351,1.259 0.362,1.897 0,0.443 -0.19,0.891 -0.502,1.196 -0.312,0.305 -0.747,0.468 -1.236,0.342 -0.852,-0.234 -1.053,-1.033 -1.095,-1.824 -0.042,-0.791 0.074,-1.574 -0.145,-1.78 -0.348,-0.326 -0.715,0.101 -1.312,0.622 -0.598,0.52 -1.425,1.134 -2.692,1.182 -0.912,0.035 -1.401,-0.139 -1.626,-0.374 -0.225,-0.234 -0.186,-0.528 -0.042,-0.731 0.331,-0.491 1.172,-0.944 1.865,-1.392 0.693,-0.449 1.238,-0.893 0.979,-1.369 -0.176,-0.325 -0.671,-0.529 -1.231,-0.74 -0.56,-0.21 -1.186,-0.426 -1.624,-0.776 -0.556,-0.443 -0.438,-0.936 -0.097,-1.313 0.342,-0.376 0.907,-0.636 1.246,-0.615 1.104,0.064 2.262,0.37 3.437,0.619 1.176,0.249 2.369,0.441 3.545,0.278 0.829,-0.112 1.733,-0.342 2.475,-0.762 0.743,-0.42 1.324,-1.032 1.508,-1.908 0.064,-0.352 0.051,-0.702 -0.036,-1.028 -0.087,-0.325 -0.247,-0.627 -0.477,-0.883 -0.171,-0.187 -0.373,-0.344 -0.597,-0.466 -0.225,-0.122 -0.472,-0.21 -0.734,-0.261 -0.62,-0.128 -1.29,-0.006 -1.92,0.121 -0.63,0.128 -1.221,0.261 -1.684,0.157 -0.213,-0.062 -0.422,-0.158 -0.613,-0.283 -0.192,-0.126 -0.368,-0.281 -0.515,-0.459 -0.203,-0.246 -0.355,-0.518 -0.374,-0.771 -0.018,-0.253 0.097,-0.487 0.428,-0.655 0.946,0.035 1.636,0.513 2.457,0.73 0.82,0.218 1.772,0.175 3.242,-0.832 0.33,-0.227 0.63,-0.482 0.895,-0.759 0.265,-0.276 0.494,-0.575 0.684,-0.887 0.031,-0.051 0.102,-0.099 0.17,-0.127 0.07,-0.027 0.138,-0.034 0.164,-0.003 M -1.902,8.49 C -1.924,8.364 -1.949,8.239 -1.977,8.117 -2.004,7.994 -2.034,7.874 -2.066,7.756 -2.083,7.698 -2.067,7.641 -2.032,7.6 -1.998,7.559 -1.944,7.534 -1.884,7.539 -1.427,7.58 -0.871,7.599 -0.333,7.634 0.205,7.67 0.724,7.72 1.108,7.824 1.162,7.838 1.21,7.865 1.25,7.9 1.289,7.936 1.319,7.982 1.338,8.034 1.434,8.306 1.544,8.689 1.641,9.075 1.738,9.462 1.823,9.85 1.867,10.133 1.871,10.162 1.861,10.187 1.844,10.205 1.826,10.222 1.8,10.231 1.772,10.227 1.342,10.152 0.762,10.107 0.15,10.094 -0.462,10.081 -1.107,10.099 -1.669,10.151 -1.722,10.156 -1.771,10.136 -1.806,10.102 -1.84,10.069 -1.86,10.02 -1.855,9.966 -1.835,9.744 -1.821,9.522 -1.826,9.282 -1.83,9.042 -1.852,8.784 -1.902,8.49 M -2.832,5.569 C -2.872,5.567 -2.912,5.559 -2.949,5.545 -2.986,5.53 -3.021,5.509 -3.053,5.485 -3.299,5.296 -3.62,5.115 -3.995,4.904 -4.37,4.694 -4.8,4.453 -5.265,4.143 -5.562,3.943 -5.858,3.756 -6.154,3.585 -6.45,3.413 -6.746,3.254 -7.041,3.111 -7.088,3.087 -7.111,3.044 -7.11,3 -7.108,2.955 -7.083,2.912 -7.036,2.89 -6.609,2.707 -6.27,2.446 -6.019,2.107 c 0.25,-0.339 0.414,-0.754 0.488,-1.248 0.009,-0.054 0.045,-0.093 0.089,-0.109 0.045,-0.018 0.097,-0.013 0.139,0.022 0.081,0.066 0.161,0.129 0.242,0.189 0.08,0.058 0.16,0.114 0.24,0.166 1.275,0.832 2.39,0.786 3.187,0.21 0.798,-0.577 1.279,-1.683 1.284,-2.974 0,-0.083 0.049,-0.149 0.115,-0.18 0.066,-0.031 0.148,-0.029 0.215,0.022 0.137,0.103 0.278,0.193 0.424,0.267 0.145,0.074 0.295,0.134 0.447,0.176 0.279,0.08 0.562,0.105 0.842,0.075 0.28,-0.028 0.557,-0.11 0.827,-0.246 0.088,-0.044 0.185,-0.04 0.265,0 0.08,0.04 0.143,0.114 0.164,0.211 0.073,0.339 0.187,0.84 0.318,1.318 0.132,0.479 0.282,0.935 0.428,1.184 0.211,0.353 0.466,0.633 0.752,0.831 0.285,0.197 0.6,0.312 0.932,0.333 C 5.631,2.374 5.88,2.338 6.12,2.252 6.36,2.165 6.591,2.026 6.809,1.839 6.84,1.812 6.88,1.807 6.915,1.818 6.95,1.829 6.981,1.856 6.993,1.896 7.022,1.992 7.053,2.084 7.084,2.174 7.115,2.264 7.147,2.352 7.179,2.437 7.219,2.542 7.215,2.652 7.176,2.748 7.137,2.844 7.062,2.925 6.96,2.97 6.833,3.027 6.703,3.087 6.57,3.15 6.437,3.212 6.302,3.278 6.165,3.347 5.237,3.812 4.472,4.188 3.742,4.604 3.013,5.019 2.32,5.473 1.539,6.094 1.496,6.129 1.446,6.153 1.393,6.167 1.341,6.179 1.286,6.181 1.232,6.171 0.91,6.107 0.174,5.965 -0.622,5.835 -1.418,5.704 -2.273,5.586 -2.832,5.569 m -7.257,6.142 c -0.104,-0.424 -0.211,-0.908 -0.342,-1.401 -0.132,-0.493 -0.288,-0.995 -0.494,-1.455 -0.012,-0.027 -0.011,-0.056 -10e-4,-0.08 0.01,-0.024 0.03,-0.044 0.057,-0.054 1.202,-0.419 2.755,-0.523 4.162,-0.435 1.406,0.088 2.666,0.368 3.281,0.72 0.016,0.009 0.028,0.021 0.036,0.036 0.008,0.014 0.013,0.031 0.013,0.048 10e-4,0.218 -0.002,0.488 -0.01,0.726 -0.008,0.238 -0.02,0.446 -0.035,0.539 -0.002,0.014 -0.007,0.025 -0.013,0.036 -0.007,0.011 -0.016,0.021 -0.026,0.029 -0.736,0.572 -1.864,0.93 -3.046,1.142 -1.182,0.213 -2.418,0.279 -3.369,0.269 -0.032,0 -0.082,-0.021 -0.127,-0.046 -0.044,-0.025 -0.081,-0.055 -0.086,-0.074 m 0.574,2 c -0.125,0.792 -0.237,1.451 -0.394,2.017 -0.156,0.567 -0.357,1.04 -0.661,1.459 -0.012,0.017 -0.028,0.028 -0.046,0.035 -0.018,0.006 -0.038,0.008 -0.057,0.003 -0.142,-0.036 -0.49,-0.112 -0.854,-0.191 -0.364,-0.079 -0.745,-0.161 -0.952,-0.208 -0.03,-0.007 -0.047,-0.03 -0.051,-0.054 -0.005,-0.024 0.005,-0.052 0.03,-0.069 0.572,-0.39 0.947,-0.876 1.192,-1.401 0.245,-0.524 0.361,-1.085 0.412,-1.623 0.001,-0.013 0.017,-0.031 0.035,-0.045 0.018,-0.014 0.04,-0.025 0.053,-0.023 0.197,0.02 0.407,0.018 0.617,0.008 0.21,-0.01 0.42,-0.027 0.617,-0.034 0.013,0 0.03,0.02 0.042,0.046 0.013,0.026 0.021,0.057 0.017,0.08 m -3.398,-5.284 c -0.007,0.032 -0.028,0.055 -0.055,0.066 -0.027,0.011 -0.058,0.01 -0.087,-0.008 -0.153,-0.096 -0.314,-0.183 -0.482,-0.261 -0.169,-0.079 -0.344,-0.148 -0.527,-0.209 -0.406,-0.136 -0.842,-0.221 -1.296,-0.254 -0.453,-0.033 -0.925,-0.013 -1.401,0.06 -0.089,0.014 -0.165,-0.028 -0.206,-0.093 -0.041,-0.063 -0.046,-0.149 0.006,-0.223 0.377,-0.53 0.851,-1.388 1.143,-2.147 0.292,-0.76 0.401,-1.421 0.048,-1.557 -0.35,-0.106 -0.77,0.548 -1.342,1.316 -0.572,0.768 -1.296,1.651 -2.256,2.001 -0.46,0.168 -0.884,0.237 -1.187,0.214 -0.301,-0.025 -0.481,-0.142 -0.449,-0.348 0.086,-0.601 0.464,-1.142 0.818,-1.652 0.354,-0.512 0.685,-0.994 0.674,-1.477 -0.013,-0.708 -0.333,-0.693 -0.708,-0.452 -0.375,0.241 -0.805,0.708 -1.04,0.906 -0.754,0.635 -1.481,1.164 -2.109,1.556 -0.627,0.391 -1.155,0.646 -1.51,0.735 -1.294,0.312 -1.362,-0.086 -1.022,-0.631 0.34,-0.546 1.089,-1.238 1.428,-1.516 1.032,-0.852 1.173,-1.365 0.872,-1.546 -0.301,-0.183 -1.046,-0.034 -1.786,0.435 -0.856,0.545 -1.557,0.932 -2.13,1.205 -0.573,0.275 -1.017,0.435 -1.356,0.526 -0.831,0.222 -1.231,0.026 -1.226,-0.316 0.006,-0.341 0.416,-0.83 1.204,-1.196 0.361,-0.165 0.891,-0.491 1.291,-0.845 0.402,-0.353 0.674,-0.735 0.522,-1.013 -0.08,-0.398 -0.922,-0.266 -1.843,0 -0.921,0.265 -1.921,0.665 -2.316,0.801 -1.179,0.403 -2.159,0.31 -2.646,0.003 -0.487,-0.306 -0.482,-0.826 0.309,-1.274 0.455,-0.259 1.037,-0.466 1.632,-0.631 0.594,-0.165 1.199,-0.288 1.699,-0.378 0.382,-0.072 0.909,-0.23 1.317,-0.431 0.409,-0.202 0.699,-0.448 0.608,-0.696 -0.294,-0.566 -2.1,-0.574 -3.862,-0.708 -1.762,-0.135 -3.481,-0.394 -3.601,-1.466 -0.043,-0.378 0.276,-0.636 0.678,-0.789 0.401,-0.152 0.885,-0.198 1.171,-0.156 0.548,0.083 1.17,0.287 1.783,0.526 0.613,0.24 1.219,0.513 1.735,0.735 1.757,0.764 3.563,1.433 5.346,1.681 1.783,0.247 3.544,0.071 5.212,-0.855 0.034,-0.019 0.069,-0.034 0.106,-0.046 0.036,-0.013 0.073,-0.021 0.111,-0.026 0.434,-0.061 0.86,-0.159 1.265,-0.278 0.404,-0.118 0.786,-0.256 1.132,-0.398 0.069,-0.028 0.141,-0.016 0.194,0.022 0.054,0.038 0.09,0.101 0.087,0.176 -0.018,0.457 0.006,0.926 0.105,1.371 0.099,0.446 0.274,0.868 0.555,1.237 0.549,0.717 1.329,1.07 2.113,1.07 0.784,0 1.571,-0.353 2.132,-1.044 0.038,-0.045 0.095,-0.109 0.154,-0.129 0.059,-0.018 0.121,0.008 0.168,0.146 0.161,0.468 0.326,0.838 0.538,1.176 0.211,0.339 0.469,0.647 0.814,0.995 0.051,0.051 0.076,0.117 0.078,0.183 0.002,0.067 -0.022,0.134 -0.069,0.187 -0.189,0.206 -0.498,0.561 -0.777,0.966 -0.279,0.405 -0.527,0.859 -0.596,1.258 -0.046,0.269 -0.041,0.619 -0.01,0.961 0.031,0.342 0.086,0.677 0.136,0.913 0.029,0.13 0.095,0.233 0.083,0.333 -0.011,0.101 -0.102,0.199 -0.387,0.318 -0.197,0.083 -0.418,0.217 -0.602,0.385 -0.184,0.168 -0.332,0.37 -0.383,0.586 m -27.064,7.577 c -0.072,-0.011 -0.122,-0.057 -0.138,-0.107 -0.017,-0.05 0,-0.104 0.06,-0.133 0.974,-0.459 1.959,-0.788 2.948,-0.987 0.99,-0.199 1.984,-0.268 2.979,-0.204 0.083,0.109 0.171,0.216 0.265,0.318 0.094,0.104 0.195,0.202 0.301,0.295 -0.667,0.502 -1.86,0.766 -3.091,0.874 -1.231,0.108 -2.5,0.061 -3.324,-0.056 m 1.267,6.934 c 0.083,0.359 0.205,0.743 0.368,1.107 0.163,0.362 0.367,0.703 0.613,0.976 0.021,0.023 0.029,0.052 0.025,0.079 -0.004,0.028 -0.02,0.053 -0.046,0.068 l -0.506,0.289 -0.507,0.288 c -0.014,0.008 -0.03,0.007 -0.043,-0.001 -0.012,-0.007 -0.022,-0.021 -0.022,-0.037 0,0 0.009,-0.524 0.021,-1.131 0.012,-0.608 0.027,-1.299 0.04,-1.634 0.001,-0.018 0.014,-0.026 0.026,-0.027 0.013,-10e-4 0.027,0.006 0.031,0.023 m -8.308,-11.495 c 0.03,0.017 0.09,0.057 0.202,0.146 0.111,0.09 0.274,0.231 0.51,0.447 0.248,0.222 0.526,0.488 0.79,0.757 0.265,0.269 0.514,0.54 0.704,0.772 0.015,0.018 0.021,0.04 0.02,0.062 -10e-4,0.021 -0.01,0.042 -0.026,0.059 -0.028,0.028 -0.055,0.058 -0.08,0.087 -0.027,0.029 -0.052,0.06 -0.077,0.09 -0.015,0.018 -0.036,0.029 -0.057,0.032 -0.022,0.002 -0.045,-0.004 -0.063,-0.019 -0.477,-0.394 -1.076,-0.782 -1.697,-1.14 -0.622,-0.359 -1.265,-0.688 -1.829,-0.962 -0.212,-0.102 -0.408,-0.196 -0.558,-0.288 -0.151,-0.092 -0.255,-0.182 -0.281,-0.273 -0.017,-0.044 -0.014,-0.102 0.006,-0.171 0.02,-0.069 0.058,-0.149 0.111,-0.24 0.176,-0.298 0.412,-0.553 0.682,-0.747 0.271,-0.192 0.577,-0.323 0.895,-0.374 0.337,-0.053 0.661,-0.018 0.963,0.085 0.303,0.103 0.585,0.276 0.839,0.497 0.36,0.319 0.76,0.755 1.146,1.225 0.386,0.471 0.758,0.974 1.062,1.425 0.007,0.01 0.012,0.025 0.01,0.041 -0.003,0.015 -0.013,0.033 -0.038,0.048 -0.037,0.024 -0.06,0.019 -0.075,0.006 -0.016,-0.013 -0.024,-0.035 -0.033,-0.045 -0.444,-0.53 -0.975,-1.008 -1.498,-1.367 -0.523,-0.358 -1.039,-0.597 -1.456,-0.649 l -0.443,-0.057 -0.443,-0.056 c -0.042,-0.006 -0.074,0.02 -0.085,0.052 -0.011,0.033 -0.003,0.072 0.034,0.094 l 0.383,0.232 z m -9.606,6.376 c -0.075,-0.026 -0.162,-0.082 -0.223,-0.136 -0.061,-0.053 -0.095,-0.102 -0.064,-0.116 0.612,-0.275 1.517,-0.636 2.489,-1.028 0.972,-0.392 2.01,-0.815 2.887,-1.213 l 3.035,0.658 3.036,0.658 c 0.032,0.007 0.051,0.031 0.055,0.059 0.004,0.027 -0.007,0.056 -0.035,0.073 l -2.551,1.428 -2.551,1.427 c -0.232,0.036 -1.701,-0.399 -3.137,-0.85 -1.436,-0.452 -2.839,-0.922 -2.941,-0.96 m 5.408,6.146 c -0.652,-0.227 -1.775,-0.634 -2.841,-1.027 -1.065,-0.392 -2.072,-0.768 -2.493,-0.935 -0.027,-0.011 -0.05,-0.028 -0.068,-0.049 -0.018,-0.021 -0.031,-0.046 -0.037,-0.075 l -0.566,-2.474 c -0.009,-0.043 0.007,-0.084 0.035,-0.109 0.029,-0.027 0.071,-0.039 0.114,-0.025 0.958,0.316 1.894,0.636 2.835,0.944 0.942,0.309 1.888,0.607 2.869,0.879 0.045,0.013 0.083,0.038 0.111,0.073 0.028,0.033 0.045,0.076 0.049,0.122 l 0.088,1.266 0.089,1.268 c 0.004,0.051 -0.019,0.095 -0.054,0.122 -0.036,0.026 -0.083,0.037 -0.131,0.02 m 0.622,-11.571 c 0.49,0.028 1.693,0.501 2.817,1.102 1.125,0.601 2.171,1.33 2.348,1.871 0.007,0.017 0,0.035 -0.012,0.047 -0.012,0.011 -0.03,0.018 -0.049,0.013 l -5.638,-1.474 c -0.586,-0.331 -0.673,-0.736 -0.503,-1.05 0.17,-0.315 0.596,-0.538 1.037,-0.509 m 6.388,2.067 c 0.126,-0.132 0.277,-0.243 0.438,-0.332 0.161,-0.09 0.333,-0.159 0.503,-0.206 0.061,-0.017 0.118,0.006 0.152,0.048 0.034,0.041 0.046,0.102 0.019,0.159 -0.084,0.177 -0.135,0.372 -0.152,0.574 -0.017,0.201 0.002,0.412 0.057,0.622 0.056,0.218 0.148,0.42 0.267,0.601 0.119,0.182 0.266,0.342 0.434,0.473 0.021,0.017 0.026,0.042 0.018,0.063 -0.007,0.022 -0.026,0.04 -0.052,0.041 -0.394,0.012 -0.794,-0.031 -1.143,-0.166 -0.349,-0.135 -0.647,-0.363 -0.835,-0.719 -0.066,-0.213 -0.076,-0.418 -0.027,-0.612 0.049,-0.193 0.156,-0.376 0.321,-0.546 m 1.426,-1.712 c -0.056,-0.101 -0.119,-0.206 -0.186,-0.314 -0.067,-0.107 -0.138,-0.218 -0.21,-0.327 -0.01,-0.016 -0.008,-0.033 0.002,-0.046 0.009,-0.013 0.025,-0.019 0.043,-0.014 0.273,0.085 0.552,0.169 0.821,0.247 0.268,0.078 0.526,0.149 0.754,0.21 0.028,0.008 0.045,0.029 0.052,0.052 0.006,0.025 10e-4,0.052 -0.019,0.072 -0.052,0.056 -0.102,0.113 -0.151,0.169 -0.049,0.056 -0.096,0.114 -0.141,0.17 -0.013,0.017 -0.03,0.028 -0.049,0.032 -0.019,0.004 -0.039,0.003 -0.058,-0.006 -0.111,-0.05 -0.227,-0.09 -0.348,-0.119 -0.12,-0.03 -0.245,-0.049 -0.372,-0.059 -0.017,-0.001 -0.049,-0.013 -0.078,-0.027 -0.029,-0.014 -0.054,-0.031 -0.06,-0.04 m 5.027,0.195 0.964,-0.492 c 0.066,-0.033 0.086,-0.1 0.071,-0.157 -0.014,-0.058 -0.064,-0.106 -0.138,-0.103 l -0.288,0.01 -0.288,0.011 c -0.349,0.008 -0.863,0.152 -1.433,0.364 -0.571,0.212 -1.197,0.492 -1.77,0.775 -0.024,0.012 -0.045,0.002 -0.055,-0.015 -0.011,-0.017 -0.011,-0.041 0.01,-0.057 0.984,-0.744 2.113,-1.425 3.187,-1.895 1.074,-0.468 2.093,-0.726 2.857,-0.626 -0.088,0.228 -0.16,0.454 -0.215,0.675 -0.054,0.222 -0.09,0.439 -0.106,0.65 -0.016,0.198 -0.01,0.402 0.016,0.608 0.025,0.206 0.072,0.415 0.139,0.62 -1.323,0.115 -2.398,0.275 -3.441,0.593 -1.043,0.318 -2.054,0.795 -3.248,1.544 -0.052,0.033 -0.113,0.044 -0.17,0.036 -0.058,-0.009 -0.111,-0.038 -0.148,-0.086 -0.002,-0.002 -0.003,-0.004 -0.004,-0.006 -10e-4,-0.002 -0.003,-0.003 -0.004,-0.005 -0.029,-0.039 -0.036,-0.087 -0.027,-0.131 0.01,-0.044 0.037,-0.086 0.076,-0.113 0.475,-0.326 1.203,-0.737 1.95,-1.136 0.748,-0.399 1.514,-0.787 2.065,-1.064 m -5.832,-13.195 c -0.101,-0.07 -0.204,-0.137 -0.3,-0.183 -0.096,-0.046 -0.187,-0.072 -0.265,-0.061 -0.015,0.002 -0.03,0.001 -0.044,-0.003 -0.013,-0.005 -0.025,-0.014 -0.033,-0.027 -0.034,-0.054 -0.069,-0.108 -0.107,-0.162 -0.039,-0.053 -0.081,-0.105 -0.128,-0.157 -0.072,-0.083 -0.257,-0.269 -0.458,-0.435 -0.202,-0.166 -0.421,-0.313 -0.563,-0.318 -0.038,-0.003 -0.072,0.003 -0.102,0.014 -0.03,0.011 -0.056,0.029 -0.075,0.049 -0.076,0.068 -0.092,0.14 -0.071,0.217 0.021,0.077 0.078,0.159 0.149,0.244 0.008,0.01 0.01,0.021 0.008,0.032 -0.001,0.01 -0.008,0.02 -0.018,0.025 -0.05,0.022 -0.086,0.062 -0.104,0.11 -0.019,0.048 -0.019,0.104 0.005,0.158 0.047,0.104 0.087,0.204 0.087,0.309 0.002,0.105 -0.034,0.214 -0.136,0.337 -0.181,0.225 -0.414,0.262 -0.638,0.21 -0.224,-0.053 -0.439,-0.194 -0.586,-0.327 -0.128,-0.114 -0.268,-0.241 -0.442,-0.366 -0.173,-0.126 -0.378,-0.251 -0.637,-0.363 -0.054,-0.023 -0.088,-0.069 -0.099,-0.12 -0.01,-0.051 0.002,-0.106 0.041,-0.15 0.171,-0.189 0.292,-0.408 0.357,-0.647 0.066,-0.239 0.077,-0.497 0.026,-0.762 -0.021,-0.113 -0.053,-0.225 -0.095,-0.337 -0.042,-0.113 -0.096,-0.224 -0.159,-0.333 -0.025,-0.045 -0.026,-0.095 -0.007,-0.137 0.018,-0.042 0.055,-0.076 0.104,-0.088 0.747,-0.184 1.275,-0.324 1.836,-0.412 0.562,-0.088 1.157,-0.124 2.037,-0.099 1.275,0.505 1.998,1.105 2.27,1.968 0.272,0.863 0.093,1.989 -0.436,3.549 -0.021,0.066 -0.051,0.14 -0.087,0.218 -0.037,0.077 -0.082,0.16 -0.133,0.245 -0.008,0.015 -0.02,0.019 -0.029,0.017 -0.009,-0.002 -0.016,-0.012 -0.015,-0.029 0.034,-0.462 -0.073,-0.87 -0.28,-1.232 -0.206,-0.363 -0.512,-0.679 -0.873,-0.954 m -2.219,4.341 c -0.772,0.024 -1.352,-0.21 -1.8,-0.568 -0.448,-0.358 -0.763,-0.842 -1.006,-1.317 l -0.061,-0.154 -0.061,-0.153 c -0.021,-0.053 -0.071,-0.075 -0.117,-0.071 -0.047,0.005 -0.091,0.037 -0.102,0.093 l -0.028,0.148 -0.027,0.147 c -0.018,0.103 -0.032,0.232 -0.036,0.378 -0.003,0.147 0.004,0.312 0.027,0.485 0.006,0.047 -0.021,0.082 -0.057,0.095 -0.036,0.014 -0.08,0.007 -0.107,-0.032 -0.239,-0.345 -0.375,-0.774 -0.507,-1.118 -0.132,-0.343 -0.26,-0.601 -0.485,-0.603 -0.198,-0.005 -0.303,0.103 -0.373,0.246 -0.071,0.142 -0.109,0.32 -0.173,0.454 -0.14,0.297 -0.26,0.55 -0.394,0.776 -0.134,0.228 -0.282,0.428 -0.479,0.622 -0.044,0.043 -0.102,0.04 -0.142,0.014 -0.041,-0.028 -0.064,-0.079 -0.039,-0.136 0.125,-0.282 0.24,-0.581 0.326,-0.834 0.086,-0.253 0.143,-0.461 0.151,-0.56 l 0.004,-0.042 0.004,-0.043 c 0.008,-0.088 -0.044,-0.154 -0.111,-0.18 -0.067,-0.026 -0.15,-0.013 -0.203,0.058 l -0.052,0.068 c -0.791,1.275 -2.679,2.392 -4.574,2.811 -1.894,0.42 -3.795,0.141 -4.611,-1.377 -0.009,-0.017 -0.008,-0.031 -10e-4,-0.036 0.006,-0.005 0.02,-0.002 0.035,0.013 0.1,0.101 0.201,0.184 0.299,0.253 0.097,0.069 0.191,0.124 0.276,0.168 0.14,0.072 0.263,0.129 0.37,0.169 0.108,0.039 0.2,0.06 0.277,0.06 0.049,0 0.091,-0.007 0.129,-0.025 0.037,-0.018 0.069,-0.044 0.096,-0.081 0.062,-0.091 0.062,-0.191 -0.011,-0.32 -0.072,-0.13 -0.216,-0.289 -0.444,-0.497 -0.325,-0.3 -0.594,-0.699 -0.78,-1.129 -0.187,-0.43 -0.291,-0.893 -0.288,-1.324 0,-0.015 0.011,-0.026 0.024,-0.028 0.013,-0.003 0.028,0.002 0.034,0.017 0.119,0.264 0.315,0.49 0.516,0.631 0.201,0.141 0.408,0.198 0.548,0.124 0.123,-0.11 0.04,-0.31 -0.09,-0.517 -0.131,-0.207 -0.308,-0.42 -0.375,-0.557 -0.108,-0.211 -0.129,-0.396 -0.096,-0.559 0.033,-0.162 0.121,-0.302 0.232,-0.419 0.016,-0.018 0.039,-0.02 0.056,-0.011 0.018,0.008 0.03,0.026 0.029,0.05 -0.016,0.224 0.006,0.442 0.067,0.643 0.061,0.201 0.162,0.383 0.3,0.537 0.142,0.155 0.38,0.345 0.751,0.44 0.372,0.094 0.877,0.091 1.553,-0.142 0.495,-0.165 1.056,-0.4 1.614,-0.649 0.558,-0.249 1.112,-0.512 1.594,-0.733 0.123,-0.005 0.295,-0.124 0.548,-0.228 0.252,-0.103 0.585,-0.191 1.029,-0.136 0.585,0.201 1.06,0.369 1.49,0.474 0.43,0.104 0.817,0.146 1.225,0.093 0.46,0.098 0.799,0.129 1.115,0.221 0.316,0.094 0.61,0.248 0.981,0.596 0.228,0.208 0.457,0.42 0.709,0.58 0.251,0.16 0.524,0.269 0.837,0.269 0.28,0 0.556,-0.084 0.785,-0.234 0.228,-0.15 0.409,-0.367 0.499,-0.634 0.008,-0.026 0.021,-0.037 0.03,-0.035 0.011,0.002 0.019,0.018 0.018,0.045 0,0.092 -0.008,0.185 -0.022,0.282 -0.015,0.096 -0.037,0.199 -0.065,0.309 -0.016,0.051 -0.032,0.101 -0.048,0.15 -0.015,0.048 -0.03,0.095 -0.043,0.138 -0.04,0.125 -0.088,0.278 -0.077,0.399 0.011,0.121 0.082,0.21 0.28,0.21 0.301,0 0.526,-0.242 0.673,-0.548 0.148,-0.307 0.22,-0.679 0.214,-0.939 0,-0.014 0.008,-0.025 0.02,-0.03 0.011,-0.006 0.026,-0.004 0.036,0.006 0.867,0.869 0.881,1.805 0.432,2.521 -0.449,0.717 -1.362,1.214 -2.348,1.206 m -2.179,1.027 c -0.257,0.425 -0.573,0.674 -0.902,0.823 -0.329,0.15 -0.672,0.2 -0.982,0.228 -0.524,0.04 -1.074,-0.047 -1.582,-0.23 -0.508,-0.184 -0.973,-0.463 -1.327,-0.809 -0.066,-0.063 -0.092,-0.149 -0.083,-0.232 0.008,-0.083 0.052,-0.164 0.126,-0.218 0.035,-0.026 0.071,-0.053 0.107,-0.082 0.036,-0.028 0.071,-0.057 0.107,-0.088 0.03,-0.025 0.065,-0.035 0.101,-0.031 0.034,0.003 0.068,0.021 0.092,0.05 0.301,0.362 0.723,0.593 1.17,0.726 0.446,0.132 0.916,0.167 1.311,0.139 0.359,-0.025 0.683,-0.1 0.96,-0.217 0.276,-0.115 0.503,-0.272 0.668,-0.462 0.011,-0.012 0.026,-0.021 0.042,-0.024 0.016,-0.004 0.033,-0.002 0.049,0.007 0.007,0.004 0.016,0.008 0.024,0.012 0.009,0.004 0.018,0.008 0.027,0.012 0.075,0.036 0.124,0.103 0.141,0.176 0.017,0.073 0.003,0.154 -0.049,0.22 m -15.784,-17.41 c 0.013,-0.027 0.026,-0.057 0.04,-0.088 0.014,-0.031 0.028,-0.062 0.04,-0.087 0.007,-0.015 0.016,-0.028 0.026,-0.038 0.011,-0.011 0.024,-0.02 0.037,-0.027 0.145,-0.065 0.293,-0.092 0.447,-0.13 0.155,-0.038 0.314,-0.086 0.48,-0.197 0.107,-0.069 0.231,-0.156 0.37,-0.255 0.139,-0.098 0.293,-0.209 0.458,-0.327 0.246,-0.179 0.508,-0.369 0.767,-0.552 0.259,-0.181 0.514,-0.355 0.747,-0.5 0.288,-0.173 0.419,-0.352 0.467,-0.51 0.048,-0.159 0.013,-0.298 -0.029,-0.392 -0.011,-0.024 -0.024,-0.05 -0.04,-0.075 -0.015,-0.025 -0.033,-0.049 -0.053,-0.072 -0.023,-0.027 -0.03,-0.06 -0.023,-0.091 0.007,-0.031 0.027,-0.06 0.057,-0.075 0.042,-0.022 0.084,-0.043 0.126,-0.065 0.043,-0.02 0.085,-0.041 0.129,-0.061 0.027,-0.013 0.057,-0.014 0.085,-0.006 0.028,0.007 0.053,0.024 0.069,0.05 0.104,0.156 0.241,0.22 0.392,0.226 0.152,0.007 0.317,-0.046 0.477,-0.125 0.061,-0.029 0.138,-0.067 0.232,-0.116 0.094,-0.048 0.203,-0.106 0.329,-0.172 1.852,-0.972 3.428,-1.319 4.977,-1.21 1.549,0.11 3.071,0.676 4.817,1.53 0.2,0.097 0.404,0.196 0.591,0.219 0.187,0.024 0.358,-0.029 0.494,-0.234 0.022,-0.034 0.041,-0.068 0.055,-0.101 0.015,-0.032 0.025,-0.064 0.032,-0.096 0.008,-0.036 0.033,-0.063 0.064,-0.079 0.031,-0.014 0.068,-0.017 0.103,-0.003 0.775,0.32 1.445,0.691 2.003,1.052 0.557,0.363 1.001,0.715 1.325,0.999 0.493,0.427 0.904,0.842 1.095,1.289 0.192,0.448 0.164,0.927 -0.218,1.483 -0.031,0.044 -0.079,0.065 -0.127,0.063 -0.049,-10e-4 -0.096,-0.025 -0.125,-0.071 -0.188,-0.298 -0.476,-0.547 -0.846,-0.694 -0.369,-0.149 -0.819,-0.198 -1.329,-0.095 -0.039,0.008 -0.08,0.004 -0.115,-0.011 -0.035,-0.016 -0.065,-0.042 -0.081,-0.078 -0.075,-0.167 -0.28,-0.306 -0.527,-0.372 -0.247,-0.066 -0.535,-0.058 -0.777,0.068 -0.033,0.018 -0.07,0.026 -0.107,0.025 -0.038,-0.002 -0.075,-0.012 -0.109,-0.029 -1.44,-0.689 -4.1,-1.089 -6.747,-1.094 -2.647,-0.005 -5.281,0.383 -6.669,1.27 -0.016,0.01 -0.031,0.019 -0.047,0.026 -0.016,0.006 -0.033,0.012 -0.051,0.017 -0.288,0.069 -0.756,0.188 -1.107,0.401 -0.352,0.213 -0.588,0.524 -0.413,0.979 0.017,0.042 0.017,0.088 0.004,0.128 -0.012,0.041 -0.039,0.077 -0.077,0.102 -0.407,0.262 -1.042,0.627 -1.637,0.891 -0.594,0.264 -1.148,0.425 -1.396,0.278 -0.088,-0.052 -0.074,-0.162 -0.026,-0.28 0.048,-0.118 0.131,-0.245 0.182,-0.333 0.112,-0.194 0.289,-0.395 0.403,-0.613 0.113,-0.217 0.163,-0.45 0.019,-0.705 -0.011,-0.02 -0.014,-0.042 -0.01,-0.062 0.005,-0.02 0.017,-0.038 0.036,-0.049 0.07,-0.039 0.183,-0.117 0.311,-0.261 0.127,-0.145 0.271,-0.358 0.4,-0.665 m 26.784,-19.646 c 0.206,-2.505 1.069,-4.306 2.108,-5.629 1.04,-1.324 2.255,-2.171 3.165,-2.766 0.119,-0.079 0.254,-0.058 0.347,0.017 0.092,0.074 0.141,0.202 0.089,0.335 -0.887,2.273 -1.206,4.199 -0.983,6.124 0.223,1.924 0.988,3.845 2.272,6.108 0.042,0.074 0.064,0.158 0.065,0.241 0.001,0.083 -0.02,0.166 -0.062,0.242 -0.383,0.676 -0.855,1.563 -1.229,2.408 -0.374,0.845 -0.65,1.65 -0.64,2.163 0.006,0.273 0.04,0.573 0.09,0.892 0.051,0.319 0.116,0.657 0.183,1.004 0.049,0.252 0.115,0.669 0.179,1.113 0.064,0.443 0.125,0.913 0.163,1.272 0.005,0.045 -0.022,0.08 -0.057,0.094 -0.035,0.015 -0.079,0.009 -0.108,-0.027 -1.141,-1.348 -2.162,-2.442 -3.328,-3.416 -1.167,-0.973 -2.479,-1.823 -4.2,-2.683 -1.486,-0.746 -2.653,-1.298 -3.766,-1.703 -1.114,-0.406 -2.175,-0.665 -3.449,-0.827 -0.066,-0.009 -0.113,-0.054 -0.132,-0.107 -0.019,-0.055 -0.009,-0.119 0.039,-0.164 0.197,-0.19 0.426,-0.389 0.689,-0.603 0.263,-0.214 0.559,-0.442 0.888,-0.692 0.186,-0.139 0.374,-0.28 0.561,-0.424 0.187,-0.144 0.373,-0.291 0.558,-0.442 0.024,-0.019 0.053,-0.028 0.083,-0.027 0.028,0.002 0.057,0.013 0.08,0.035 0.274,0.263 0.555,0.507 0.836,0.724 0.281,0.218 0.563,0.409 0.838,0.566 1.217,0.684 2.128,0.939 2.821,0.871 0.693,-0.068 1.168,-0.459 1.51,-1.068 0.286,-0.507 0.363,-1.125 0.379,-1.762 0.016,-0.636 -0.029,-1.29 0.011,-1.869 m 3.878,15.107 c 0.042,0.033 0.05,0.084 0.034,0.126 -0.016,0.041 -0.056,0.073 -0.11,0.069 -0.81,-0.054 -1.833,-0.278 -2.861,-0.58 -1.027,-0.302 -2.06,-0.68 -2.889,-1.043 -0.089,-0.039 -0.125,-0.123 -0.116,-0.201 0.01,-0.078 0.065,-0.152 0.16,-0.169 0.334,-0.063 0.677,-0.157 1.025,-0.282 0.348,-0.125 0.701,-0.28 1.058,-0.467 0.055,-0.029 0.116,-0.042 0.175,-0.038 0.059,0.004 0.117,0.024 0.167,0.061 0.295,0.216 0.949,0.698 1.622,1.2 0.673,0.502 1.365,1.025 1.735,1.324 m -7.545,-4.027 c -0.409,-0.211 -0.666,-0.603 -0.825,-1.054 -0.159,-0.452 -0.22,-0.961 -0.239,-1.408 v -0.006 c -0.003,-0.108 0.051,-0.2 0.13,-0.254 0.08,-0.054 0.185,-0.071 0.285,-0.03 0.257,0.106 0.522,0.221 0.797,0.348 0.275,0.126 0.56,0.263 0.857,0.413 0.138,0.068 0.377,0.21 0.689,0.41 0.311,0.199 0.696,0.458 1.125,0.759 0.078,0.055 0.112,0.142 0.107,0.225 -0.005,0.084 -0.051,0.165 -0.135,0.208 -0.561,0.29 -1.094,0.472 -1.57,0.539 -0.475,0.067 -0.892,0.019 -1.221,-0.15 m -2.806,-0.223 c 0.009,0.024 0,0.047 -0.017,0.06 -0.016,0.013 -0.041,0.016 -0.061,0 -0.644,-0.485 -1.249,-0.993 -1.771,-1.5 -0.522,-0.509 -0.961,-1.017 -1.273,-1.503 -0.048,-0.076 -0.034,-0.162 0.013,-0.221 0.046,-0.058 0.127,-0.09 0.212,-0.06 0.372,0.133 0.767,0.262 1.169,0.388 0.402,0.126 0.811,0.249 1.211,0.367 0.033,0.01 0.061,0.029 0.082,0.055 0.02,0.025 0.034,0.057 0.037,0.091 0.016,0.194 0.054,0.614 0.118,1.066 0.065,0.452 0.157,0.935 0.28,1.257 m -11.431,9.547 c 1.027,-0.059 2.121,-0.074 3.168,-0.033 1.046,0.041 2.045,0.137 2.879,0.3 -0.484,0.337 -0.898,0.759 -1.239,1.191 -0.34,0.434 -0.609,0.878 -0.801,1.262 -0.019,0.039 -0.048,0.07 -0.082,0.094 -0.035,0.024 -0.075,0.041 -0.118,0.05 -0.141,0.031 -0.283,0.129 -0.416,0.252 -0.132,0.123 -0.254,0.27 -0.354,0.4 -0.023,0.029 -0.056,0.036 -0.085,0.027 -0.029,-0.008 -0.053,-0.034 -0.058,-0.071 -0.07,-0.6 -0.597,-1.338 -1.205,-1.992 -0.607,-0.653 -1.295,-1.222 -1.689,-1.48 m -1.438,5.767 c 0.142,0 0.27,0.058 0.363,0.15 0.093,0.093 0.15,0.221 0.15,0.363 0,0.141 -0.057,0.269 -0.15,0.362 -0.093,0.093 -0.221,0.15 -0.363,0.15 -0.141,0 -0.186,-0.068 -0.194,-0.171 -0.009,-0.104 0.018,-0.243 0.018,-0.384 0,-0.142 -0.027,-0.259 -0.018,-0.341 0.008,-0.082 0.053,-0.129 0.194,-0.129 m -1.223,-3.386 c -0.122,-0.27 -0.382,-0.363 -0.666,-0.364 -0.284,-10e-4 -0.594,0.09 -0.816,0.189 -0.173,0.074 -0.337,0.164 -0.497,0.263 -0.159,0.099 -0.313,0.206 -0.467,0.315 -0.012,0.008 -0.034,0.013 -0.055,0.014 -0.021,10e-4 -0.039,-0.002 -0.044,-0.009 -0.015,-0.024 -0.031,-0.046 -0.051,-0.069 -0.019,-0.022 -0.041,-0.044 -0.067,-0.066 -0.174,-0.15 -0.365,-0.158 -0.53,-0.12 -0.164,0.037 -0.301,0.123 -0.368,0.163 -0.036,0.021 -0.071,0.044 -0.106,0.065 -0.035,0.022 -0.07,0.043 -0.105,0.064 -0.008,0.004 -0.019,0.005 -0.029,0.002 -0.009,-0.002 -0.016,-0.007 -0.016,-0.013 -10e-4,-0.043 -0.007,-0.085 -0.016,-0.126 -0.01,-0.04 -0.024,-0.08 -0.042,-0.118 -0.003,-0.006 -10e-4,-0.018 0.003,-0.029 0.003,-0.011 0.009,-0.022 0.015,-0.025 0.028,-0.015 0.055,-0.028 0.082,-0.043 0.027,-0.015 0.053,-0.029 0.08,-0.044 0.594,-0.349 0.956,-0.632 1.174,-0.858 0.218,-0.228 0.293,-0.401 0.312,-0.533 0.007,-0.051 0.029,-0.097 0.062,-0.132 0.033,-0.035 0.076,-0.061 0.127,-0.07 0.281,-0.05 0.607,-0.077 0.928,-0.046 0.321,0.033 0.638,0.122 0.904,0.304 0.16,0.11 0.323,0.221 0.49,0.274 0.166,0.051 0.336,0.044 0.51,-0.087 0.039,-0.033 0.073,-0.067 0.101,-0.101 0.028,-0.035 0.051,-0.07 0.069,-0.107 0.013,-0.028 0.036,-0.046 0.063,-0.055 0.026,-0.009 0.057,-0.007 0.083,0.008 0.508,0.285 0.954,0.541 1.346,0.861 0.391,0.32 0.73,0.705 1.021,1.246 0.161,0.3 0.131,0.451 -0.007,0.509 -0.138,0.057 -0.386,0.018 -0.661,-0.065 -0.115,-0.035 -0.251,-0.091 -0.401,-0.159 -0.149,-0.068 -0.313,-0.148 -0.481,-0.231 -0.29,-0.145 -0.591,-0.295 -0.897,-0.421 -0.305,-0.126 -0.613,-0.227 -0.917,-0.271 -0.016,-0.003 -0.045,-0.024 -0.072,-0.047 -0.028,-0.025 -0.053,-0.052 -0.059,-0.068 m 7.654,2.681 c 0.315,0.038 0.631,-0.007 0.937,-0.098 0.307,-0.09 0.603,-0.225 0.881,-0.369 0.013,-0.007 0.027,-0.003 0.034,0.006 0.008,0.009 0.011,0.021 0.003,0.035 -0.114,0.182 -0.216,0.379 -0.303,0.582 -0.087,0.204 -0.158,0.413 -0.213,0.62 -0.006,0.025 0.006,0.044 0.024,0.054 0.018,0.009 0.042,0.007 0.059,-0.012 0.249,-0.282 0.523,-0.549 0.836,-0.763 0.313,-0.214 0.664,-0.376 1.068,-0.45 0.087,-0.016 -0.21,0.171 -0.616,0.499 -0.406,0.33 -0.921,0.799 -1.269,1.349 -0.006,0.01 -0.013,0.021 -0.018,0.031 -0.006,0.011 -0.012,0.022 -0.017,0.033 l -0.152,0.319 -0.151,0.319 c -0.015,0.03 -0.041,0.051 -0.07,0.06 -0.03,0.009 -0.063,0.005 -0.092,-0.013 -0.192,-0.116 -0.407,-0.218 -0.644,-0.3 -0.237,-0.082 -0.497,-0.145 -0.778,-0.183 -0.037,-0.005 -0.071,-0.019 -0.102,-0.038 -0.03,-0.02 -0.056,-0.045 -0.076,-0.077 -0.232,-0.366 -0.559,-0.701 -0.767,-1.07 -0.207,-0.37 -0.295,-0.775 -0.048,-1.28 0.025,-0.05 0.071,-0.077 0.119,-0.082 0.049,-0.006 0.101,0.013 0.134,0.055 0.1,0.13 0.257,0.305 0.463,0.458 0.205,0.151 0.46,0.28 0.758,0.315 m 4.149,0.753 c 0,0.129 -0.047,0.245 -0.123,0.329 -0.076,0.084 -0.182,0.136 -0.299,0.136 -0.115,0 -0.173,-0.052 -0.202,-0.136 -0.028,-0.084 -0.028,-0.2 -0.028,-0.329 0,-0.128 0,-0.242 0.028,-0.325 0.029,-0.083 0.087,-0.134 0.202,-0.134 0.117,0 0.223,0.051 0.299,0.134 0.076,0.083 0.123,0.197 0.123,0.325 m -1.331,0.374 c 0.021,0.077 0.08,0.126 0.106,0.167 0.026,0.041 0.019,0.076 -0.09,0.127 -0.069,0.034 -0.265,0.128 -0.442,0.192 -0.178,0.066 -0.339,0.102 -0.339,0.022 0,-0.083 0.05,-0.237 0.173,-0.424 0.123,-0.187 0.319,-0.407 0.613,-0.623 0.064,-0.046 0.043,0.021 0.013,0.134 -0.029,0.111 -0.066,0.269 -0.034,0.405 m -0.361,1.197 c -0.023,0.008 -0.077,0.03 -0.13,0.055 -0.053,0.024 -0.105,0.051 -0.124,0.064 l -0.163,0.115 -0.162,0.114 c -0.053,0.043 -0.118,0.062 -0.181,0.059 -0.064,-0.004 -0.126,-0.03 -0.175,-0.078 l -0.004,-0.004 c -0.062,-0.06 -0.081,-0.142 -0.066,-0.217 0.016,-0.076 0.067,-0.143 0.147,-0.175 0.595,-0.241 1.226,-0.415 1.867,-0.501 0.641,-0.086 1.294,-0.086 1.933,0.021 0.022,0.004 0.054,0.012 0.078,0.024 0.023,0.012 0.039,0.029 0.029,0.049 -0.019,0.039 -0.296,-0.002 -0.811,0.028 -0.514,0.029 -1.267,0.129 -2.238,0.446 m 0.618,-5.116 c -0.166,0.01 -0.336,0.073 -0.523,0.173 -0.187,0.1 -0.392,0.238 -0.627,0.398 -0.173,0.118 -0.383,0.272 -0.606,0.401 -0.224,0.129 -0.46,0.233 -0.684,0.254 -0.026,10e-4 -0.049,-0.009 -0.063,-0.028 -0.014,-0.017 -0.02,-0.041 -0.01,-0.065 0.096,-0.229 0.237,-0.493 0.417,-0.765 0.181,-0.27 0.4,-0.547 0.652,-0.796 0.149,-0.145 0.303,-0.279 0.454,-0.396 0.151,-0.117 0.298,-0.219 0.433,-0.302 0.031,-0.02 0.066,-0.026 0.101,-0.022 0.033,0.005 0.066,0.022 0.091,0.048 0.109,0.119 0.244,0.167 0.389,0.176 0.145,0.008 0.301,-0.024 0.451,-0.07 0.128,-0.039 0.262,-0.072 0.398,-0.099 0.137,-0.026 0.276,-0.046 0.412,-0.057 0.033,-0.003 0.064,0.006 0.089,0.026 0.025,0.018 0.043,0.046 0.05,0.078 0.041,0.184 0.167,0.302 0.304,0.379 0.137,0.077 0.284,0.113 0.367,0.133 0.101,0.029 0.227,0.102 0.324,0.171 0.097,0.069 0.166,0.134 0.155,0.147 -0.145,0.182 -0.134,0.356 -0.064,0.529 0.071,0.173 0.201,0.346 0.298,0.524 0.011,0.02 0.004,0.042 -0.011,0.053 -0.016,0.011 -0.038,0.012 -0.054,-0.004 -0.209,-0.218 -0.496,-0.492 -0.79,-0.648 -0.294,-0.156 -0.593,-0.196 -0.827,0.055 -0.027,0.029 -0.062,0.047 -0.099,0.053 -0.037,0.006 -0.076,0 -0.111,-0.02 -0.106,-0.059 -0.267,-0.145 -0.436,-0.214 -0.169,-0.069 -0.346,-0.12 -0.48,-0.112 m -11.067,5.185 c -0.08,0.042 -0.33,0.176 -0.56,0.272 -0.23,0.096 -0.439,0.155 -0.439,0.048 0,-0.104 0.218,-0.403 0.457,-0.676 0.24,-0.273 0.502,-0.52 0.59,-0.52 0.088,0 0.118,0.196 0.105,0.404 -0.014,0.207 -0.07,0.427 -0.153,0.472 m 14.996,-0.983 c -0.048,-0.055 -0.089,-0.102 -0.124,-0.146 -0.034,-0.043 -0.063,-0.081 -0.086,-0.117 -0.025,-0.037 -0.028,-0.08 -0.016,-0.119 0.012,-0.039 0.041,-0.073 0.081,-0.093 0.148,-0.073 0.243,-0.206 0.312,-0.357 0.069,-0.15 0.111,-0.321 0.154,-0.471 0.158,-0.553 0.528,-1.285 0.827,-2.037 0.3,-0.752 0.53,-1.524 0.408,-2.158 -0.011,-0.056 -0.009,-0.112 0.002,-0.168 0.011,-0.055 0.031,-0.108 0.058,-0.159 0.34,-0.634 0.422,-1.303 0.253,-1.976 -0.169,-0.672 -0.59,-1.347 -1.257,-1.995 -0.054,-0.052 -0.097,-0.111 -0.129,-0.178 -0.032,-0.065 -0.053,-0.136 -0.06,-0.21 -0.039,-0.4 -0.094,-0.788 -0.163,-1.165 -0.071,-0.376 -0.156,-0.743 -0.257,-1.099 -0.029,-0.103 0.012,-0.195 0.083,-0.249 0.07,-0.054 0.171,-0.068 0.262,-0.013 0.59,0.361 1.16,0.682 1.678,0.952 0.518,0.272 0.984,0.493 1.368,0.657 0.003,0 0.007,0.001 0.011,0.002 0.004,0.002 0.008,0.005 0.011,0.008 0.353,0.139 1.233,0.468 2.348,0.763 1.115,0.296 2.463,0.556 3.751,0.556 0.493,0 0.975,-0.037 1.432,-0.125 0.457,-0.089 0.889,-0.228 1.279,-0.431 0.003,0 0.005,-10e-4 0.008,-0.003 0.003,-0.002 0.006,-0.005 0.008,-0.007 1.043,-0.545 1.433,-1.498 1.514,-2.564 0.082,-1.066 -0.145,-2.245 -0.338,-3.241 -0.056,-0.296 -0.111,-0.584 -0.153,-0.845 -0.042,-0.26 -0.071,-0.492 -0.077,-0.677 0.019,-0.205 0.173,-0.622 0.396,-1.129 0.223,-0.507 0.515,-1.102 0.81,-1.664 0.054,-0.101 0.152,-0.154 0.252,-0.157 0.099,-0.004 0.201,0.043 0.262,0.141 0.24,0.388 0.47,0.8 0.64,1.16 0.171,0.36 0.282,0.669 0.287,0.848 0,0.153 -0.008,0.31 -0.021,0.472 -0.013,0.163 -0.03,0.329 -0.049,0.5 -0.042,0.38 -0.087,0.783 -0.084,1.211 0.003,0.428 0.052,0.879 0.197,1.355 0.002,0.005 0.004,0.01 0.005,0.014 0.002,0.005 0.004,0.009 0.005,0.014 0.149,0.359 0.342,0.766 0.635,1.141 0.293,0.376 0.685,0.719 1.231,0.949 0.273,0.109 0.585,0.19 0.935,0.243 0.35,0.052 0.738,0.077 1.16,0.071 1.005,-0.016 2.174,-0.2 3.233,-0.441 1.06,-0.243 2.012,-0.541 2.584,-0.787 0.197,-0.084 0.397,-0.176 0.599,-0.273 0.204,-0.097 0.409,-0.2 0.616,-0.308 0.071,-0.037 0.147,-0.027 0.205,0.011 0.057,0.038 0.096,0.106 0.088,0.185 -0.012,0.132 -0.013,0.265 -0.003,0.398 0.011,0.133 0.032,0.266 0.067,0.399 0.074,0.285 0.204,0.56 0.388,0.823 0.184,0.262 0.422,0.512 0.713,0.746 0.113,0.09 0.233,0.175 0.355,0.256 0.123,0.081 0.248,0.158 0.375,0.231 0.036,0.021 0.056,0.056 0.059,0.092 0.002,0.037 -0.012,0.075 -0.044,0.102 -0.161,0.13 -0.303,0.262 -0.427,0.395 -0.124,0.133 -0.232,0.268 -0.323,0.403 -0.356,0.513 -0.487,1.096 -0.409,1.649 0.077,0.553 0.363,1.075 0.841,1.465 0.292,0.243 0.661,0.436 1.079,0.572 0.417,0.136 0.883,0.213 1.37,0.224 0.422,0.009 0.844,-0.032 1.256,-0.121 0.412,-0.088 0.813,-0.225 1.19,-0.403 0.033,-0.015 0.069,-0.016 0.099,-0.005 0.031,0.012 0.057,0.036 0.071,0.07 0.1,0.235 0.224,0.461 0.369,0.673 0.144,0.213 0.309,0.414 0.491,0.595 0.023,0.024 0.032,0.054 0.03,0.083 -0.003,0.029 -0.019,0.057 -0.045,0.074 -1.359,0.883 -2.611,1.054 -3.863,0.851 -1.251,-0.204 -2.502,-0.781 -3.859,-1.396 L -16,-11.028 c -1.187,-0.542 -2.394,-1.094 -3.654,-1.407 -1.262,-0.312 -2.576,-0.385 -3.98,0.035 -0.321,0.093 -0.608,0.244 -0.855,0.446 -0.246,0.202 -0.452,0.454 -0.61,0.75 -0.192,0.361 -0.306,0.779 -0.337,1.214 -0.032,0.436 0.019,0.89 0.156,1.323 0.142,0.443 0.36,0.845 0.641,1.194 0.281,0.35 0.624,0.645 1.017,0.88 0.032,0.018 0.049,0.049 0.053,0.081 0.003,0.032 -0.008,0.065 -0.035,0.09 -0.54,0.509 -0.778,0.998 -0.858,1.42 -0.08,0.422 0,0.777 0.096,1.023 0.063,0.164 0.15,0.318 0.256,0.464 0.106,0.145 0.231,0.283 0.373,0.411 0.032,0.029 0.039,0.072 0.026,0.108 -0.013,0.034 -0.045,0.062 -0.09,0.061 -0.964,-0.007 -1.953,-0.205 -2.933,-0.501 -0.981,-0.296 -1.952,-0.689 -2.877,-1.088 -0.796,-0.347 -1.522,-0.658 -2.194,-0.904 -0.671,-0.246 -1.289,-0.428 -1.869,-0.516 -0.617,-0.094 -1.257,-0.046 -1.845,0.123 -0.587,0.169 -1.122,0.459 -1.528,0.849 -0.291,0.28 -0.507,0.603 -0.638,0.951 -0.132,0.348 -0.18,0.721 -0.137,1.1 0.076,0.715 0.427,1.261 0.923,1.679 0.495,0.418 1.135,0.707 1.789,0.909 0.04,0.012 0.065,0.045 0.07,0.082 0.007,0.036 -0.006,0.075 -0.04,0.099 -0.257,0.185 -0.49,0.391 -0.686,0.618 -0.196,0.229 -0.355,0.48 -0.463,0.756 -0.005,0.014 -0.021,0.025 -0.039,0.029 -0.017,0.004 -0.036,0.003 -0.046,-0.007 -0.102,-0.115 -0.268,-0.335 -0.469,-0.614 -0.201,-0.277 -0.438,-0.612 -0.681,-0.957 -1.459,-2.063 -2.412,-2.887 -3.203,-3.375 -0.789,-0.488 -1.416,-0.64 -2.223,-1.361 m 19.978,-24.601 c 0.345,0.603 0.819,0.993 1.511,1.061 0.692,0.068 1.6,-0.185 2.814,-0.869 0.681,-0.385 1.224,-0.809 1.663,-1.282 0.439,-0.472 0.775,-0.993 1.042,-1.57 0.045,-0.094 0.087,-0.189 0.127,-0.284 0.04,-0.096 0.078,-0.192 0.113,-0.289 0.017,-0.047 0.056,-0.076 0.099,-0.083 0.042,-0.008 0.088,0.005 0.121,0.043 0.154,0.176 0.321,0.35 0.506,0.522 0.186,0.171 0.388,0.339 0.611,0.502 0.339,0.251 0.703,0.449 1.075,0.619 0.372,0.171 0.753,0.313 1.127,0.455 0.228,0.085 0.451,0.169 0.662,0.256 0.21,0.087 0.407,0.176 0.583,0.273 0.075,0.041 0.108,0.117 0.101,0.19 -0.008,0.073 -0.054,0.143 -0.135,0.171 -2.429,0.841 -4.998,1.987 -7.398,3.513 -2.399,1.525 -4.63,3.429 -6.381,5.786 -0.03,0.039 -0.096,0.058 -0.159,0.054 -0.063,-0.004 -0.125,-0.03 -0.146,-0.081 -0.072,-0.254 -0.093,-0.513 -0.088,-0.784 0.005,-0.272 0.038,-0.556 0.072,-0.861 0.022,-0.197 0.043,-0.398 0.058,-0.603 0.016,-0.206 0.025,-0.417 0.022,-0.636 -0.007,-0.598 -0.319,-1.416 -0.747,-2.227 -0.429,-0.812 -0.974,-1.615 -1.45,-2.184 0,0 -1.275,-1.448 -2.1,-3.63 -0.826,-2.182 -1.203,-5.098 0.593,-8.031 0.072,-0.118 0.153,-0.249 0.229,-0.383 0.076,-0.133 0.147,-0.27 0.2,-0.399 0.077,-0.186 0.234,-0.308 0.41,-0.35 0.175,-0.042 0.369,-0.004 0.522,0.127 0.036,0.031 0.072,0.062 0.108,0.093 0.036,0.031 0.072,0.063 0.107,0.093 0.837,0.716 1.684,1.44 2.364,2.517 0.681,1.076 1.197,2.506 1.374,4.634 0.015,0.192 0.021,0.385 0.022,0.574 0,0.189 -0.004,0.377 -0.007,0.558 -0.007,0.462 -0.015,0.908 0.029,1.328 0.045,0.421 0.143,0.816 0.346,1.177 m 9.71,3.34 c 0.389,-0.228 0.848,-0.435 1.306,-0.615 0.458,-0.18 0.916,-0.333 1.3,-0.454 0.057,-0.018 0.111,0.003 0.143,0.043 0.033,0.04 0.043,0.097 0.015,0.151 -0.28,0.53 -0.643,1.058 -1.066,1.574 -0.424,0.515 -0.908,1.018 -1.43,1.496 -0.042,0.039 -0.098,0.044 -0.143,0.024 -0.046,-0.02 -0.08,-0.064 -0.08,-0.121 0,-0.216 -0.007,-0.522 -0.031,-0.845 -0.025,-0.321 -0.068,-0.659 -0.144,-0.935 -0.017,-0.062 -0.012,-0.125 0.011,-0.181 0.022,-0.056 0.063,-0.104 0.119,-0.137 m 3.869,2.4 c 0.296,0.361 0.639,0.725 1.018,0.999 0.379,0.275 0.796,0.459 1.243,0.459 1.155,-0.006 2.601,-0.398 3.518,-0.513 0.918,-0.115 1.307,0.048 0.347,1.154 -0.235,0.213 -0.608,0.347 -1.004,0.437 -0.396,0.09 -0.816,0.137 -1.145,0.177 -1.04,0.143 -2.114,-0.074 -3.192,-0.323 -1.077,-0.249 -2.158,-0.53 -3.208,-0.517 -0.048,10e-4 -0.083,-0.028 -0.097,-0.067 -0.013,-0.037 -0.005,-0.083 0.031,-0.114 0.353,-0.307 0.694,-0.627 1.018,-0.957 0.325,-0.331 0.633,-0.673 0.921,-1.023 0.047,-0.056 0.113,-0.083 0.179,-0.08 0.065,0.002 0.129,0.033 0.171,0.094 0.033,0.049 0.069,0.099 0.103,0.147 0.035,0.047 0.068,0.092 0.097,0.127 m -9.764,0.205 c 0.503,-0.444 1.043,-0.849 1.606,-1.217 0.564,-0.368 1.151,-0.701 1.75,-1.002 0.013,-0.007 0.04,-0.006 0.065,0 0.024,0.005 0.047,0.015 0.052,0.025 0.148,0.272 0.253,0.521 0.317,0.751 0.064,0.229 0.087,0.439 0.072,0.629 -0.038,0.419 -0.217,0.74 -0.432,0.979 -0.216,0.24 -0.469,0.399 -0.654,0.495 -0.553,0.279 -1.06,0.378 -1.528,0.296 -0.467,-0.082 -0.894,-0.347 -1.286,-0.795 -0.01,-0.011 -0.008,-0.044 -10e-4,-0.078 0.008,-0.034 0.022,-0.068 0.039,-0.083 m -2.422,3.869 c -0.102,0.016 -0.184,-0.038 -0.222,-0.114 -0.038,-0.076 -0.032,-0.175 0.043,-0.246 0.191,-0.185 0.404,-0.374 0.623,-0.559 0.219,-0.185 0.444,-0.365 0.659,-0.533 0.086,-0.067 0.188,-0.101 0.292,-0.103 0.103,-0.003 0.207,0.028 0.296,0.089 0.154,0.107 0.311,0.201 0.471,0.285 0.16,0.083 0.323,0.155 0.49,0.215 0.077,0.028 0.115,0.098 0.114,0.166 -0.002,0.068 -0.043,0.135 -0.123,0.158 -0.336,0.099 -0.79,0.226 -1.263,0.346 -0.472,0.12 -0.965,0.231 -1.38,0.296 m -12.786,27 c -0.344,-0.353 -0.506,-0.65 -0.574,-0.952 -0.068,-0.302 -0.043,-0.608 -0.014,-0.976 0.008,-0.087 0.016,-0.176 0.022,-0.266 0.007,-0.092 0.013,-0.186 0.016,-0.282 0.002,-0.067 0.036,-0.123 0.085,-0.156 0.049,-0.034 0.113,-0.045 0.176,-0.021 0.1,0.036 0.204,0.069 0.312,0.099 0.108,0.031 0.22,0.058 0.336,0.081 0.349,0.074 0.718,0.112 1.089,0.12 0.37,0.008 0.741,-0.014 1.093,-0.063 0.034,-0.004 0.064,0.008 0.084,0.028 0.021,0.022 0.033,0.053 0.029,0.086 -0.059,0.471 0.015,0.914 0.214,1.282 0.2,0.369 0.525,0.663 0.967,0.833 0.024,0.008 0.034,0.03 0.032,0.05 -0.003,0.021 -0.017,0.039 -0.042,0.044 -0.5,0.086 -0.978,0.269 -1.42,0.518 -0.442,0.249 -0.85,0.564 -1.208,0.915 -0.034,0.033 -0.079,0.045 -0.12,0.038 C -33.268,8.52 -33.305,8.494 -33.324,8.451 -33.411,8.25 -33.529,8.038 -33.688,7.819 -33.849,7.601 -34.05,7.377 -34.305,7.15 m 1.006,4.795 c 0.077,-0.419 0.346,-0.979 0.73,-1.517 0.384,-0.538 0.884,-1.054 1.424,-1.387 0.27,-0.169 0.559,-0.297 0.858,-0.361 0.299,-0.063 0.609,-0.061 0.922,0.03 0.529,0.156 1.072,0.413 1.554,0.866 0.482,0.454 0.904,1.103 1.189,2.046 0.016,0.049 0,0.098 -0.031,0.132 -0.032,0.032 -0.079,0.048 -0.129,0.033 -0.479,-0.149 -0.944,-0.207 -1.438,-0.205 -0.494,0.002 -1.016,0.066 -1.61,0.163 -0.08,0.012 -0.122,0.075 -0.126,0.139 -0.003,0.066 0.033,0.132 0.11,0.154 0.887,0.245 1.372,0.394 1.769,0.549 0.396,0.155 0.703,0.315 1.234,0.584 0.061,0.031 0.091,0.09 0.09,0.149 -0.001,0.059 -0.033,0.116 -0.095,0.144 -0.652,0.296 -1.678,0.617 -2.725,0.779 -1.047,0.162 -2.115,0.165 -2.85,-0.172 -0.393,-0.18 -0.661,-0.442 -0.807,-0.795 -0.145,-0.353 -0.168,-0.794 -0.069,-1.331 M -24.96,9.11 c -0.213,0.043 -0.401,0.119 -0.56,0.222 -0.159,0.103 -0.289,0.234 -0.389,0.387 -0.013,0.021 -0.034,0.032 -0.056,0.031 -0.021,0 -0.042,-0.011 -0.054,-0.033 -0.44,-0.785 -0.912,-1.353 -1.385,-1.76 -0.474,-0.408 -0.95,-0.654 -1.398,-0.794 -0.027,-0.009 -0.04,-0.033 -0.038,-0.055 0.001,-0.022 0.016,-0.044 0.044,-0.05 0.143,-0.024 0.291,-0.056 0.443,-0.095 0.153,-0.039 0.311,-0.084 0.474,-0.136 0.062,-0.02 0.125,-0.011 0.175,0.019 0.051,0.031 0.089,0.081 0.1,0.146 0.031,0.158 0.082,0.308 0.152,0.448 0.072,0.139 0.163,0.268 0.274,0.383 0.211,0.223 0.481,0.386 0.796,0.479 0.314,0.095 0.674,0.121 1.064,0.076 0.303,-0.04 0.635,-0.125 0.993,-0.255 0.357,-0.13 0.74,-0.304 1.142,-0.521 0.04,-0.021 0.086,-0.022 0.124,-0.008 0.039,0.016 0.071,0.047 0.084,0.09 0.17,0.567 0.54,0.963 1.006,1.214 0.466,0.251 1.028,0.357 1.583,0.344 0.061,-0.001 0.105,0.036 0.123,0.084 0.018,0.048 0.01,0.105 -0.037,0.145 -0.208,0.182 -0.409,0.378 -0.601,0.589 -0.191,0.212 -0.373,0.438 -0.543,0.68 -0.037,0.053 -0.092,0.084 -0.15,0.093 -0.058,0.008 -0.119,-0.007 -0.169,-0.048 -0.281,-0.238 -0.856,-0.702 -1.472,-1.084 -0.616,-0.382 -1.274,-0.682 -1.725,-0.591 m 5.589,7.324 c -0.298,-0.019 -0.604,-0.038 -0.909,-0.048 -0.305,-0.009 -0.611,-0.01 -0.909,0.003 -0.051,0.002 -0.099,-0.014 -0.136,-0.044 -0.038,-0.029 -0.065,-0.072 -0.074,-0.122 -0.028,-0.149 -0.049,-0.302 -0.061,-0.453 -0.012,-0.15 -0.014,-0.297 -0.005,-0.432 0.003,-0.053 0.035,-0.094 0.078,-0.114 0.043,-0.019 0.095,-0.018 0.139,0.012 0.31,0.21 0.615,0.409 0.927,0.599 0.312,0.188 0.631,0.365 0.967,0.529 0.019,0.01 0.024,0.027 0.021,0.043 -0.004,0.015 -0.018,0.028 -0.038,0.027 m -3.397,-0.729 c 0.008,0.224 0.01,0.348 -0.023,0.426 -0.032,0.08 -0.097,0.113 -0.223,0.156 -0.291,0.095 -0.558,0.127 -0.795,0.092 -0.236,-0.034 -0.442,-0.132 -0.611,-0.295 -0.329,-0.318 -0.445,-0.725 -0.449,-1.151 -0.004,-0.425 0.104,-0.868 0.224,-1.258 0.188,-0.615 0.338,-1.107 0.357,-1.568 0.019,-0.461 -0.094,-0.892 -0.433,-1.383 -0.021,-0.032 -0.024,-0.07 -0.011,-0.102 0.013,-0.032 0.041,-0.057 0.079,-0.062 0.204,-0.027 0.444,0.023 0.687,0.121 0.244,0.1 0.493,0.248 0.717,0.42 0.623,0.489 0.895,0.875 0.97,1.294 0.075,0.419 -0.048,0.872 -0.216,1.494 -0.088,0.336 -0.161,0.613 -0.209,0.894 -0.048,0.281 -0.072,0.566 -0.064,0.922 m -3.434,0.269 c 0.024,0.066 0.007,0.131 -0.033,0.177 -0.041,0.047 -0.104,0.073 -0.172,0.061 -0.281,-0.051 -0.603,-0.115 -0.941,-0.187 -0.339,-0.071 -0.693,-0.15 -1.041,-0.233 -0.051,-0.012 -0.076,-0.054 -0.076,-0.096 0,-0.042 0.026,-0.084 0.077,-0.095 0.316,-0.071 0.636,-0.155 0.944,-0.25 0.309,-0.095 0.607,-0.2 0.88,-0.313 0.059,-0.025 0.121,-0.016 0.168,0.015 0.048,0.032 0.083,0.084 0.085,0.148 0.006,0.119 0.015,0.263 0.032,0.403 0.017,0.14 0.042,0.274 0.077,0.37 m 7.63,2.998 c 0.043,0.011 0.087,0.03 0.117,0.046 0.029,0.018 0.044,0.032 0.028,0.034 -0.494,0.065 -1.129,0.098 -1.898,0.1 -0.768,0.002 -1.67,-0.027 -2.699,-0.089 -0.559,-0.033 -1.12,-0.074 -1.68,-0.12 -0.56,-0.046 -1.12,-0.098 -1.678,-0.151 -0.034,-0.004 -0.052,-0.03 -0.054,-0.057 -0.001,-0.026 0.014,-0.055 0.047,-0.062 0.582,-0.123 1.204,-0.252 1.739,-0.357 0.533,-0.106 0.98,-0.189 1.21,-0.221 0.041,-0.006 0.082,-0.008 0.123,-0.008 0.041,0.001 0.081,0.003 0.122,0.01 0.272,0.042 1.057,0.167 1.959,0.328 0.903,0.163 1.922,0.36 2.664,0.547 m -1.972,-4.881 c -0.031,-0.141 -0.008,-0.299 0.056,-0.44 0.064,-0.14 0.167,-0.262 0.295,-0.331 0.597,-0.323 0.903,-0.527 1.298,-0.722 0.395,-0.193 0.879,-0.378 1.829,-0.663 0.069,-0.02 0.099,-0.08 0.094,-0.138 -0.006,-0.056 -0.046,-0.111 -0.116,-0.119 -0.561,-0.065 -1.07,-0.073 -1.551,-0.03 -0.481,0.043 -0.934,0.137 -1.384,0.273 -0.118,0.035 -0.225,-0.017 -0.282,-0.101 -0.057,-0.084 -0.065,-0.201 0.015,-0.295 0.318,-0.376 0.722,-0.729 1.178,-1.035 0.457,-0.305 0.966,-0.56 1.498,-0.739 0.711,-0.241 1.414,-0.328 2.077,-0.264 0.664,0.063 1.288,0.276 1.841,0.638 0.364,0.237 0.599,0.588 0.751,0.966 0.152,0.379 0.219,0.785 0.249,1.132 0.056,0.729 -0.037,1.466 -0.212,2.08 -0.174,0.616 -0.429,1.108 -0.697,1.348 -0.395,0.36 -0.729,0.535 -1.088,0.594 -0.359,0.057 -0.743,-0.001 -1.237,-0.108 -0.23,-0.048 -1.282,-0.458 -2.327,-0.906 -1.045,-0.449 -2.084,-0.936 -2.287,-1.14 m 10.516,-8.533 c 0.043,-0.283 0.121,-0.575 0.225,-0.853 0.105,-0.279 0.237,-0.542 0.386,-0.771 0.016,-0.025 0.041,-0.044 0.068,-0.054 0.027,-0.009 0.057,-0.011 0.087,-0.002 0.357,0.108 0.816,0.3 1.328,0.553 0.512,0.253 1.076,0.568 1.642,0.919 0.751,0.459 1.329,0.869 1.735,1.202 0.407,0.333 0.642,0.59 0.709,0.742 0.01,0.024 -0.015,0.056 -0.054,0.082 C -3.94,7.4 -3.992,7.417 -4.035,7.41 -5.014,7.241 -5.96,7.105 -6.912,7.015 -7.864,6.925 -8.821,6.883 -9.821,6.902 -9.848,6.903 -9.874,6.895 -9.896,6.881 -9.917,6.867 -9.935,6.846 -9.945,6.822 c -0.08,-0.213 -0.115,-0.442 -0.122,-0.66 -0.008,-0.219 0.011,-0.428 0.039,-0.604 m 7.114,-37.195 c 0.132,0.123 0.262,0.246 0.39,0.37 0.129,0.125 0.256,0.25 0.383,0.377 0.085,0.086 0.138,0.195 0.155,0.309 0.017,0.113 -0.002,0.232 -0.06,0.337 -0.143,0.261 -0.362,0.561 -0.638,0.858 -0.277,0.297 -0.612,0.589 -0.988,0.832 -0.275,0.177 -0.56,0.333 -0.855,0.41 -0.296,0.076 -0.602,0.073 -0.92,-0.068 -0.345,-0.154 -0.696,-0.309 -1.045,-0.432 -0.349,-0.122 -0.696,-0.21 -1.039,-0.23 -0.072,-0.004 -0.138,-0.034 -0.187,-0.08 -0.049,-0.047 -0.082,-0.11 -0.087,-0.183 -0.03,-0.388 -0.114,-0.737 -0.229,-1.045 -0.115,-0.308 -0.26,-0.575 -0.412,-0.801 -0.339,-0.513 -0.803,-0.88 -1.312,-1.168 -0.51,-0.288 -1.064,-0.496 -1.585,-0.691 -0.321,-0.123 -0.633,-0.24 -0.919,-0.367 -0.287,-0.128 -0.549,-0.266 -0.771,-0.429 -0.303,-0.223 -0.55,-0.456 -0.765,-0.699 -0.214,-0.243 -0.395,-0.497 -0.565,-0.764 -0.073,-0.114 -0.056,-0.243 0.011,-0.335 0.067,-0.093 0.185,-0.148 0.315,-0.112 0.851,0.232 2.035,0.735 3.075,1.211 1.04,0.477 1.936,0.927 2.212,1.057 0.561,0.264 1.102,0.521 1.612,0.753 0.51,0.233 0.988,0.441 1.424,0.609 0.469,0.18 0.908,0.3 1.309,0.345 0.402,0.045 0.767,0.015 1.088,-0.106 0.041,-0.015 0.129,-0.018 0.212,-0.01 0.084,0.008 0.164,0.026 0.191,0.052 m -15.961,-8.376 c -0.181,-0.592 -0.418,-1.181 -0.696,-1.759 -0.279,-0.578 -0.6,-1.144 -0.95,-1.692 -0.017,-0.025 -0.011,-0.052 0.006,-0.069 0.016,-0.017 0.043,-0.024 0.068,-0.008 0.48,0.295 0.99,0.584 1.535,0.865 0.545,0.281 1.124,0.554 1.742,0.815 0.341,0.147 0.72,0.287 1.129,0.428 0.409,0.141 0.849,0.282 1.313,0.432 1.555,0.502 3.406,1.099 5.109,2.027 1.702,0.928 3.258,2.187 4.223,4.013 0.032,0.061 0.017,0.126 -0.022,0.168 -0.039,0.043 -0.101,0.063 -0.165,0.035 -0.299,-0.133 -0.623,-0.28 -0.963,-0.438 -0.34,-0.158 -0.696,-0.325 -1.06,-0.497 -1.104,-0.524 -2.281,-1.08 -3.406,-1.545 -1.125,-0.465 -2.2,-0.837 -3.101,-0.992 -0.922,-0.158 -1.709,-0.127 -2.303,0.16 -0.593,0.287 -0.993,0.831 -1.14,1.699 -0.107,0.595 -0.207,1.138 -0.323,1.625 -0.118,0.488 -0.251,0.919 -0.425,1.29 -0.139,0.375 -0.381,0.726 -0.659,1.038 -0.279,0.311 -0.594,0.582 -0.88,0.795 -0.161,0.119 -0.355,0.121 -0.509,0.043 -0.153,-0.078 -0.266,-0.236 -0.263,-0.437 0,-0.018 10e-4,-0.036 10e-4,-0.054 0,-0.018 0,-0.037 0.001,-0.055 0.005,-0.232 0.01,-0.47 0.009,-0.704 0,-0.235 -0.007,-0.466 -0.025,-0.685 -0.22,-2.675 -0.864,-4.469 -1.715,-5.818 -0.85,-1.35 -1.907,-2.253 -2.952,-3.147 -0.366,-0.315 -0.731,-0.627 -1.079,-0.966 -0.348,-0.339 -0.68,-0.704 -0.979,-1.124 -0.044,-0.061 -0.03,-0.131 0.011,-0.175 0.042,-0.044 0.11,-0.063 0.174,-0.023 0.633,0.397 1.298,0.778 2.02,1.303 0.721,0.526 1.499,1.196 2.357,2.17 0.022,0.026 0.054,0.027 0.077,0.013 0.024,-0.014 0.038,-0.043 0.027,-0.075 -0.355,-0.97 -0.79,-1.757 -1.269,-2.439 -0.48,-0.682 -1.005,-1.26 -1.542,-1.809 -0.025,-0.025 -0.021,-0.057 -0.003,-0.078 0.018,-0.021 0.048,-0.03 0.077,-0.01 0.584,0.412 1.614,1.17 2.785,2.165 1.171,0.994 2.482,2.227 3.628,3.59 0.029,0.033 0.07,0.036 0.1,0.019 0.03,-0.016 0.05,-0.052 0.037,-0.094 m -11.479,-16.4 c 0.396,0 0.778,0.076 1.13,0.222 0.352,0.145 0.674,0.36 0.95,0.638 h 0.005 c 0.278,0.278 0.493,0.601 0.639,0.953 0.146,0.351 0.222,0.732 0.222,1.124 0,0.39 -0.076,0.769 -0.223,1.121 -0.146,0.352 -0.363,0.676 -0.643,0.957 -0.276,0.275 -0.598,0.489 -0.95,0.636 -0.352,0.146 -0.734,0.223 -1.13,0.223 -0.393,0 -0.775,-0.077 -1.128,-0.224 -0.354,-0.147 -0.679,-0.363 -0.957,-0.641 -0.275,-0.275 -0.489,-0.596 -0.634,-0.947 -0.145,-0.352 -0.221,-0.732 -0.221,-1.125 0,-0.814 0.329,-1.548 0.86,-2.079 0.533,-0.531 1.267,-0.858 2.08,-0.858 m -14.686,16.021 c 1.19,-0.508 2.136,-1.142 3.035,-1.836 0.898,-0.694 1.748,-1.449 2.745,-2.196 0.258,-0.196 0.51,-0.392 0.759,-0.589 0.247,-0.198 0.489,-0.397 0.726,-0.596 0.025,-0.021 0.054,-0.015 0.071,0.003 0.018,0.018 0.024,0.047 0.003,0.072 -0.625,0.746 -1.226,1.567 -1.75,2.433 -0.524,0.865 -0.971,1.773 -1.291,2.692 -0.029,0.083 0.011,0.156 0.071,0.191 0.061,0.035 0.143,0.033 0.199,-0.035 1.218,-1.433 2.263,-2.434 3.243,-3.249 0.981,-0.816 1.898,-1.445 2.858,-2.135 0.028,-0.02 0.058,-0.011 0.076,0.009 0.018,0.019 0.022,0.05 -0.002,0.075 -0.508,0.522 -1.005,1.072 -1.461,1.714 -0.457,0.643 -0.873,1.379 -1.22,2.273 -0.021,0.053 0.003,0.101 0.042,0.125 0.04,0.023 0.093,0.023 0.132,-0.019 1.032,-1.142 1.948,-1.85 2.79,-2.409 0.843,-0.559 1.613,-0.969 2.353,-1.517 0.042,-0.031 0.09,-0.021 0.119,0.008 0.028,0.028 0.039,0.075 0.007,0.117 -0.324,0.42 -0.795,1.016 -1.29,1.606 -0.495,0.59 -1.016,1.174 -1.442,1.57 -1.219,1.137 -2.28,2.095 -3.091,3.435 -0.812,1.34 -1.373,3.061 -1.592,5.723 -0.029,0.398 0.028,1.172 0.003,1.885 -0.025,0.713 -0.132,1.364 -0.49,1.516 -0.77,0.329 -1.836,-0.985 -2.743,-2.572 -0.907,-1.586 -1.654,-3.446 -1.785,-4.21 -0.149,-0.854 -0.749,-1.22 -1.641,-1.238 -0.892,-0.019 -2.074,0.309 -3.39,0.843 -0.847,0.342 -1.799,0.767 -2.748,1.21 -0.949,0.443 -1.896,0.904 -2.732,1.319 -0.023,0.012 -0.047,0.005 -0.062,-0.011 -0.015,-0.016 -0.021,-0.041 -0.008,-0.064 0.75,-1.3 2.192,-2.444 3.915,-3.459 1.723,-1.016 3.725,-1.901 5.591,-2.684 m -13.386,8.5 c -0.083,0.441 -0.065,0.792 0.058,1.074 0.124,0.282 0.354,0.494 0.696,0.657 0.575,0.278 1.346,0.035 2.116,-0.35 0.771,-0.384 1.541,-0.91 2.113,-1.199 0.802,-0.397 1.727,-0.849 2.671,-1.289 0.944,-0.441 1.908,-0.871 2.787,-1.226 0.441,-0.179 0.858,-0.335 1.181,-0.352 0.324,-0.016 0.554,0.106 0.62,0.486 0.083,0.477 0.25,0.979 0.481,1.483 0.231,0.503 0.525,1.008 0.862,1.491 -0.18,0.149 -0.364,0.295 -0.55,0.438 -0.186,0.144 -0.373,0.286 -0.557,0.427 -0.866,0.654 -1.83,1.382 -2.496,2.285 -0.666,0.903 -1.035,1.982 -0.712,3.338 -2.697,-1.613 -5.465,-2.493 -8.179,-2.428 -2.715,0.066 -5.375,1.08 -7.859,3.256 0.952,-1.495 1.992,-2.917 3.12,-4.265 1.128,-1.349 2.344,-2.624 3.648,-3.826 m -12.563,23.348 c 0.174,-0.329 0.472,-0.818 0.738,-1.3 0.266,-0.483 0.5,-0.959 0.545,-1.264 0.11,-0.477 0.197,-0.901 0.27,-1.286 0.074,-0.386 0.134,-0.732 0.19,-1.059 0.147,-0.856 0.261,-1.521 0.523,-2.263 0.263,-0.742 0.675,-1.563 1.417,-2.729 2.92,-4.593 7.11,-6.289 11.263,-5.823 4.153,0.465 8.271,3.092 11.043,7.146 0.059,0.085 0.042,0.18 -0.013,0.244 -0.055,0.063 -0.149,0.094 -0.242,0.05 -0.902,-0.427 -1.867,-0.78 -2.798,-1.025 -0.932,-0.245 -1.83,-0.385 -2.598,-0.385 -0.033,0 -0.065,-0.003 -0.097,-0.008 -0.032,-0.004 -0.064,-0.013 -0.095,-0.023 -1.048,-0.362 -2.053,-0.593 -3.098,-0.58 -1.045,0.014 -2.131,0.27 -3.338,0.886 -0.013,0.007 -0.027,0.01 -0.041,0.013 -0.014,0.003 -0.028,0.003 -0.042,10e-4 -0.687,-0.075 -1.531,0.052 -2.367,0.33 -0.836,0.279 -1.666,0.709 -2.321,1.241 -0.352,0.286 -0.709,0.632 -1.038,1.003 -0.329,0.371 -0.629,0.764 -0.868,1.145 -0.008,0.014 -0.023,0.016 -0.034,0.011 -0.012,-0.005 -0.02,-0.018 -0.017,-0.032 0.113,-0.612 0.279,-1.099 0.498,-1.558 0.218,-0.46 0.49,-0.891 0.817,-1.392 0.011,-0.016 0.436,-0.782 0.779,-1.694 0.343,-0.913 0.603,-1.972 0.285,-2.573 -0.054,-0.101 -0.138,-0.18 -0.237,-0.229 -0.1,-0.048 -0.215,-0.067 -0.33,-0.048 -0.115,0.021 -0.216,0.079 -0.293,0.159 -0.077,0.081 -0.129,0.185 -0.145,0.3 -0.072,0.54 -0.267,1.045 -0.536,1.554 -0.27,0.508 -0.613,1.02 -0.982,1.57 -0.504,0.748 -1.039,1.544 -1.475,2.467 -0.437,0.924 -0.774,1.974 -0.88,3.228 -0.003,0.036 -0.011,0.07 -0.022,0.104 -0.012,0.034 -0.028,0.066 -0.047,0.095 -0.036,0.057 -0.071,0.115 -0.104,0.177 -0.033,0.061 -0.066,0.126 -0.097,0.193 -0.074,0.168 -0.207,0.465 -0.266,0.863 -0.06,0.399 -0.046,0.899 0.173,1.471 0.008,0.02 0.013,0.039 0.015,0.059 0.002,0.02 0.001,0.041 -0.002,0.06 -0.049,0.318 -0.054,0.591 -0.027,0.824 0.027,0.235 0.085,0.43 0.161,0.592 0.013,0.028 0.013,0.083 0.004,0.135 -0.009,0.052 -0.026,0.1 -0.048,0.113 -0.243,0.182 -0.502,0.373 -0.707,0.597 -0.204,0.223 -0.354,0.477 -0.378,0.78 -0.016,0.171 0.01,0.338 0.075,0.499 0.064,0.161 0.169,0.316 0.31,0.463 0.024,0.027 0.025,0.06 0.01,0.087 -0.014,0.028 -0.044,0.052 -0.08,0.06 -0.172,0.036 -0.339,0.122 -0.491,0.238 -0.153,0.117 -0.292,0.266 -0.407,0.427 -0.112,0.093 -0.234,0.184 -0.368,0.271 -0.133,0.088 -0.276,0.172 -0.428,0.252 -0.358,0.182 -0.756,0.303 -1.144,0.304 -0.386,10e-4 -0.762,-0.12 -1.075,-0.421 0.038,-0.732 0.096,-1.458 0.174,-2.179 0.078,-0.719 0.174,-1.434 0.286,-2.141 m -0.476,8.18 c -0.013,-0.283 -0.024,-0.567 -0.031,-0.852 -0.007,-0.285 -0.011,-0.571 -0.011,-0.857 0,-0.01 0.001,-0.022 0.002,-0.034 0.002,-0.013 0.003,-0.024 0.003,-0.035 0.216,0.059 0.436,0.097 0.657,0.112 0.221,0.016 0.444,0.011 0.669,-0.015 0.994,-0.142 1.517,0.366 1.368,0.866 -0.148,0.5 -0.967,0.991 -2.657,0.815 m 3.823,0.7 c 0.301,-0.311 0.494,-0.645 0.602,-1.049 0.109,-0.405 0.135,-0.878 0.102,-1.469 -0.004,-0.067 0.001,-0.135 0.015,-0.199 0.015,-0.066 0.039,-0.128 0.073,-0.186 0.008,-0.012 0.017,-0.024 0.025,-0.032 0.009,-0.008 0.018,-0.013 0.028,-0.013 0.318,-0.006 0.535,-0.203 0.709,-0.548 0.172,-0.343 0.301,-0.835 0.44,-1.427 0.064,-0.268 0.176,-0.519 0.309,-0.761 0.132,-0.242 0.284,-0.476 0.428,-0.708 0.081,-0.123 0.132,-0.203 0.165,-0.269 0.034,-0.065 0.049,-0.116 0.06,-0.179 0.017,-0.105 0.017,-0.207 -10e-4,-0.305 -0.018,-0.098 -0.054,-0.189 -0.108,-0.273 -0.019,-0.03 -0.021,-0.063 -0.009,-0.091 0.012,-0.028 0.037,-0.049 0.071,-0.056 0.061,-0.011 0.122,-0.023 0.183,-0.038 0.061,-0.015 0.122,-0.03 0.182,-0.049 0.035,-0.01 0.07,-0.006 0.099,0.01 0.03,0.015 0.053,0.041 0.063,0.075 0.031,0.11 0.076,0.154 0.112,0.231 0.037,0.076 0.066,0.183 0.066,0.421 0.005,0.312 -0.024,0.544 -0.069,0.716 -0.045,0.172 -0.105,0.284 -0.161,0.357 -0.12,0.155 -0.23,0.276 -0.33,0.377 -0.099,0.099 -0.189,0.178 -0.269,0.248 -0.195,0.174 -0.357,0.335 -0.446,0.547 -0.089,0.213 -0.105,0.475 -0.009,0.852 0.02,0.069 0.038,0.144 0.057,0.225 0.019,0.081 0.037,0.168 0.056,0.261 0.051,0.248 0.107,0.527 0.192,0.834 0.085,0.308 0.198,0.645 0.364,1.008 -0.644,0.665 -1.04,1.325 -1.228,2.038 -0.188,0.715 -0.168,1.484 0.019,2.368 0.193,0.905 0.221,1.382 -0.019,1.715 -0.24,0.332 -0.748,0.519 -1.627,0.842 -0.468,0.171 -0.898,0.327 -1.305,0.513 -0.406,0.185 -0.791,0.401 -1.169,0.691 -0.101,0.078 -0.225,0.091 -0.331,0.053 -0.105,-0.038 -0.193,-0.126 -0.22,-0.25 -0.165,-0.755 -0.321,-1.592 -0.457,-2.434 -0.137,-0.84 -0.254,-1.686 -0.343,-2.457 -0.012,-0.108 0.024,-0.21 0.089,-0.284 0.066,-0.075 0.162,-0.123 0.27,-0.124 0.371,-0.003 0.953,-0.04 1.568,-0.205 0.613,-0.166 1.258,-0.46 1.754,-0.976 m 8.021,26.069 c 0.242,0.043 0.452,0.075 0.633,0.097 0.181,0.021 0.333,0.032 0.461,0.032 0.208,0 0.353,-0.03 0.453,-0.089 0.1,-0.061 0.156,-0.151 0.188,-0.274 0.059,-0.221 -0.02,-0.391 -0.273,-0.559 -0.254,-0.167 -0.681,-0.333 -1.32,-0.546 -0.219,-0.075 -0.448,-0.192 -0.649,-0.32 -0.202,-0.127 -0.377,-0.265 -0.49,-0.38 -0.098,-0.099 -0.187,-0.211 -0.262,-0.333 -0.076,-0.123 -0.139,-0.257 -0.187,-0.399 -0.162,-0.466 -0.157,-0.891 -0.027,-1.314 0.13,-0.424 0.386,-0.846 0.722,-1.308 0.353,-0.485 0.595,-0.819 0.706,-1.069 0.111,-0.251 0.091,-0.418 -0.08,-0.569 -0.171,-0.156 -0.349,-0.151 -0.594,-0.006 -0.245,0.144 -0.558,0.428 -0.999,0.828 -0.46,0.416 -0.802,0.857 -1.026,1.32 -0.224,0.463 -0.331,0.947 -0.322,1.451 10e-4,0.033 -0.02,0.056 -0.046,0.065 -0.026,0.01 -0.058,0.004 -0.078,-0.022 -0.302,-0.382 -0.597,-0.77 -0.884,-1.163 -0.287,-0.392 -0.568,-0.79 -0.84,-1.194 -0.003,-0.004 -0.006,-0.008 -0.008,-0.013 -0.003,-0.005 -0.006,-0.01 -0.009,-0.014 -0.047,-0.083 -0.075,-0.175 -0.087,-0.269 -0.012,-0.094 -0.007,-0.189 0.016,-0.282 0.286,-1.16 0.754,-1.953 1.294,-2.551 0.541,-0.597 1.156,-0.998 1.733,-1.376 0.559,-0.366 1.127,-0.737 1.582,-1.234 0.456,-0.497 0.8,-1.121 0.91,-1.992 v -0.005 c 0.071,-0.579 -0.025,-1.112 -0.203,-1.618 -0.177,-0.506 -0.437,-0.985 -0.691,-1.458 -0.08,-0.152 -0.163,-0.307 -0.243,-0.462 -0.081,-0.156 -0.16,-0.312 -0.232,-0.467 -0.15,-0.336 -0.314,-0.574 -0.493,-0.71 -0.18,-0.136 -0.373,-0.171 -0.582,-0.102 -0.198,0.065 -0.328,0.196 -0.393,0.397 -0.064,0.2 -0.061,0.468 0.008,0.804 0.083,0.385 0.341,1.129 0.572,1.828 0.232,0.7 0.436,1.356 0.412,1.564 -0.053,0.419 -0.222,0.731 -0.503,1.021 -0.28,0.291 -0.673,0.559 -1.176,0.89 -0.527,0.346 -1.103,0.725 -1.654,1.231 -0.551,0.506 -1.077,1.142 -1.505,2.003 -0.049,0.098 -0.143,0.15 -0.238,0.152 -0.095,0.002 -0.19,-0.045 -0.242,-0.143 -0.55,-1.046 -1.332,-2.758 -2.038,-4.426 -0.707,-1.668 -1.34,-3.294 -1.593,-4.167 0.331,-0.572 0.782,-0.968 1.295,-1.272 0.514,-0.304 1.092,-0.515 1.677,-0.715 0.645,-0.223 1.258,-0.434 1.739,-0.769 0.483,-0.335 0.834,-0.794 0.957,-1.51 0.021,-0.124 0.103,-0.216 0.207,-0.26 0.103,-0.044 0.228,-0.04 0.333,0.029 0.434,0.284 0.922,0.539 1.453,0.755 0.53,0.217 1.104,0.396 1.71,0.527 1.166,0.257 2.354,0.314 3.516,0.174 1.161,-0.142 2.297,-0.482 3.359,-1.021 0.033,-0.017 0.069,-0.016 0.099,-0.002 0.031,0.014 0.055,0.041 0.065,0.076 0.203,0.72 0.687,1.296 1.3,1.693 0.613,0.396 1.355,0.613 2.075,0.613 0.567,0 1.17,-0.14 1.682,-0.47 0.513,-0.33 0.934,-0.851 1.14,-1.617 0.008,-0.029 0.027,-0.053 0.052,-0.067 0.024,-0.015 0.054,-0.021 0.084,-0.014 2.157,0.527 3.951,0.019 5.223,-1.109 1.271,-1.13 2.021,-2.882 2.089,-4.847 0.002,-0.034 0.024,-0.058 0.051,-0.065 0.027,-0.007 0.058,0 0.077,0.03 0.086,0.137 0.173,0.276 0.256,0.41 0.083,0.134 0.163,0.264 0.236,0.385 0.3,0.488 0.591,0.963 0.855,1.364 0.264,0.4 0.5,0.729 0.69,0.927 0.626,0.637 0.91,1.125 1.022,1.549 0.112,0.425 0.05,0.787 -0.017,1.174 -0.069,0.427 -0.144,0.882 -0.029,1.406 0.115,0.523 0.419,1.115 1.109,1.814 0.134,0.137 0.25,0.299 0.349,0.473 0.099,0.173 0.181,0.357 0.244,0.537 -0.871,0.055 -1.847,0.329 -2.787,0.722 -0.94,0.393 -1.845,0.906 -2.574,1.44 -0.527,-0.099 -1.28,-0.288 -2.013,-0.485 -0.733,-0.199 -1.446,-0.404 -1.896,-0.535 -0.125,-0.16 -0.243,-0.307 -0.345,-0.43 -0.102,-0.124 -0.189,-0.224 -0.253,-0.29 -0.369,-0.38 -0.781,-0.766 -1.293,-1.025 -0.513,-0.259 -1.126,-0.39 -1.899,-0.262 -0.818,0.132 -1.585,0.528 -2.248,1.034 -0.663,0.505 -1.221,1.12 -1.622,1.694 -0.278,0.4 -0.549,0.832 -0.721,1.254 -0.171,0.422 -0.242,0.834 -0.119,1.197 0.035,0.094 0.064,0.167 0.105,0.233 0.041,0.066 0.093,0.125 0.173,0.189 -0.817,0.356 -1.901,0.796 -3.059,1.246 -1.159,0.451 -2.393,0.912 -3.511,1.307 -0.112,0.04 -0.201,0.119 -0.254,0.217 -0.054,0.098 -0.072,0.215 -0.044,0.332 l 2.774,11.73 c 0.016,0.065 -0.015,0.121 -0.062,0.151 -0.048,0.03 -0.112,0.032 -0.164,-0.01 -0.5,-0.414 -0.986,-0.839 -1.461,-1.274 -0.476,-0.435 -0.941,-0.883 -1.399,-1.341 -0.03,-0.031 -0.036,-0.069 -0.025,-0.098 0.011,-0.029 0.039,-0.049 0.076,-0.043 m 3.908,-2.333 c 0.799,0.273 1.683,0.58 2.563,0.87 0.879,0.289 1.753,0.562 2.533,0.768 0.042,0.011 0.079,0.031 0.112,0.057 0.031,0.027 0.057,0.061 0.075,0.1 0.513,1.14 0.789,2.507 0.951,3.905 0.162,1.399 0.211,2.828 0.271,4.096 0.003,0.064 -0.029,0.119 -0.077,0.15 -0.048,0.03 -0.112,0.038 -0.17,0.008 -0.849,-0.438 -1.681,-0.905 -2.493,-1.399 -0.813,-0.495 -1.606,-1.016 -2.38,-1.564 -0.063,-0.045 -0.117,-0.1 -0.16,-0.163 -0.043,-0.062 -0.075,-0.134 -0.093,-0.209 -0.112,-0.454 -0.374,-1.523 -0.648,-2.746 -0.276,-1.222 -0.565,-2.598 -0.733,-3.664 -0.012,-0.07 0.017,-0.135 0.065,-0.175 0.048,-0.04 0.116,-0.058 0.184,-0.034 m 14.352,12.117 v 0.324 c 10e-4,0.108 10e-4,0.214 0.003,0.321 10e-4,0.079 -0.036,0.147 -0.091,0.191 -0.056,0.044 -0.132,0.063 -0.208,0.043 -0.825,-0.227 -1.638,-0.479 -2.441,-0.756 -0.802,-0.276 -1.592,-0.577 -2.372,-0.901 -0.015,-0.007 -0.039,-0.03 -0.058,-0.055 -0.019,-0.024 -0.035,-0.051 -0.035,-0.064 -0.002,-1.49 -0.152,-2.902 -0.368,-4.305 -0.216,-1.404 -0.499,-2.798 -0.77,-4.252 -0.008,-0.041 0.006,-0.081 0.033,-0.107 0.026,-0.028 0.065,-0.042 0.107,-0.035 0.876,0.166 2.083,0.381 3.274,0.574 1.19,0.193 2.365,0.363 3.175,0.439 0.053,0.005 0.098,0.033 0.126,0.073 0.028,0.039 0.041,0.091 0.029,0.144 -0.314,1.447 -0.406,2.796 -0.424,4.154 -0.018,1.359 0.038,2.727 0.02,4.212 m 0.756,-10.323 c -1.334,-0.011 -2.484,-0.182 -3.624,-0.4 -1.14,-0.218 -2.271,-0.484 -3.568,-0.684 -0.059,-0.01 -0.112,-0.038 -0.151,-0.08 -0.039,-0.041 -0.065,-0.096 -0.07,-0.156 l -0.102,-1.253 -0.103,-1.253 c -0.005,-0.059 0.019,-0.111 0.058,-0.147 0.039,-0.035 0.093,-0.053 0.15,-0.042 1.077,0.204 2.433,0.462 3.777,0.683 1.344,0.22 2.676,0.405 3.706,0.462 0.048,0.003 0.09,0.024 0.12,0.056 0.03,0.033 0.047,0.076 0.046,0.123 l -0.033,1.262 -0.033,1.263 c -10e-4,0.046 -0.021,0.088 -0.052,0.118 -0.032,0.03 -0.074,0.049 -0.121,0.048 m -6.466,-5.659 c 0.693,-0.459 1.391,-0.911 2.091,-1.361 0.699,-0.45 1.399,-0.899 2.096,-1.355 0.012,-0.008 0.025,-0.014 0.038,-0.018 0.013,-0.005 0.028,-0.007 0.042,-0.007 0.263,-0.006 0.545,-0.045 0.835,-0.104 0.289,-0.06 0.586,-0.138 0.878,-0.224 0.015,-0.004 0.029,-0.007 0.045,-0.008 0.015,-10e-4 0.03,0 0.045,0.003 0.319,0.062 0.745,0.141 1.237,0.232 0.493,0.09 1.051,0.19 1.634,0.294 0.074,0.013 0.13,0.062 0.156,0.125 0.026,0.061 0.023,0.136 -0.019,0.199 -0.278,0.419 -0.481,0.895 -0.623,1.39 -0.141,0.496 -0.221,1.01 -0.254,1.508 -0.002,0.032 -0.01,0.062 -0.026,0.088 -0.015,0.027 -0.035,0.05 -0.061,0.069 l -0.363,0.251 -0.363,0.252 c -0.027,0.019 -0.058,0.032 -0.089,0.04 -0.032,0.007 -0.065,0.007 -0.098,0.003 l -3.577,-0.58 -3.577,-0.578 c -0.054,-0.008 -0.088,-0.048 -0.098,-0.093 -0.01,-0.045 0.005,-0.096 0.051,-0.126 m 9.155,17.486 c -0.045,0.06 -0.105,0.103 -0.172,0.13 -0.067,0.025 -0.141,0.033 -0.214,0.019 -0.163,-0.031 -0.327,-0.063 -0.49,-0.095 -0.163,-0.034 -0.326,-0.067 -0.488,-0.102 -0.04,-0.009 -0.1,-0.066 -0.151,-0.123 -0.05,-0.057 -0.091,-0.11 -0.091,-0.11 -0.066,-1.774 0.004,-3.301 0.138,-4.822 0.134,-1.521 0.332,-3.036 0.52,-4.786 0.003,-0.028 0.013,-0.054 0.028,-0.077 0.015,-0.022 0.035,-0.042 0.06,-0.055 0.13,-0.07 0.372,-0.2 0.621,-0.332 0.249,-0.132 0.505,-0.266 0.663,-0.345 0.037,-0.019 0.077,-0.016 0.109,0.002 0.031,0.018 0.055,0.05 0.057,0.092 0.076,1.33 0.106,3.061 0.154,4.735 0.048,1.673 0.114,3.288 0.262,4.385 0.006,0.042 0.003,0.084 -0.007,0.124 -0.011,0.04 -0.029,0.078 -0.055,0.111 l -0.472,0.625 z m 0.687,-14.523 c -0.171,-0.464 -0.219,-1.392 -0.155,-2.31 0.064,-0.918 0.241,-1.826 0.519,-2.25 0.211,0.048 0.407,0.109 0.609,0.169 0.202,0.06 0.409,0.119 0.642,0.162 -0.292,0.726 -0.407,1.652 -0.447,2.596 -0.04,0.943 -0.005,1.903 0.003,2.696 -0.227,-0.035 -0.469,-0.165 -0.68,-0.354 -0.21,-0.188 -0.389,-0.437 -0.491,-0.709 m 2.101,14.151 c -0.139,-0.334 -0.234,-0.659 -0.302,-0.969 -0.068,-0.309 -0.11,-0.603 -0.142,-0.873 -0.125,-1.065 -0.247,-2.953 -0.326,-4.86 -0.08,-1.907 -0.117,-3.834 -0.075,-4.977 0.054,0.006 0.234,0.01 0.415,0.015 0.182,0.006 0.363,0.013 0.419,0.022 0.674,2.314 0.738,4.163 0.685,5.992 -0.053,1.83 -0.225,3.636 -0.024,5.866 0.011,0.116 -0.058,0.205 -0.148,0.242 -0.09,0.037 -0.201,0.021 -0.273,-0.07 -0.048,-0.062 -0.093,-0.128 -0.131,-0.195 -0.039,-0.066 -0.072,-0.132 -0.098,-0.193 m 4.566,-11.486 c 0.021,0.04 0.045,0.083 0.065,0.118 0.02,0.035 0.036,0.063 0.041,0.074 0.209,0.961 0.31,2.236 0.307,3.493 -0.003,1.258 -0.109,2.498 -0.312,3.39 -0.167,0.723 -0.362,1.703 -0.482,2.691 -0.12,0.987 -0.164,1.986 -0.03,2.746 0.008,0.047 -0.005,0.092 -0.032,0.125 -0.028,0.033 -0.07,0.055 -0.117,0.055 -0.312,-10e-4 -0.518,-10e-4 -0.727,-0.005 -0.208,-0.003 -0.418,-0.011 -0.735,-0.029 -0.042,-0.002 -0.081,-0.017 -0.112,-0.041 -0.031,-0.024 -0.055,-0.057 -0.067,-0.097 -0.429,-1.46 -0.299,-3.737 -0.178,-5.985 0.121,-2.247 0.233,-4.465 -0.23,-5.804 -0.286,-1.426 -0.814,-3.165 -0.962,-4.824 -0.147,-1.66 0.085,-3.239 1.32,-4.345 0.299,-0.232 0.631,-0.405 0.994,-0.521 0.362,-0.116 0.757,-0.173 1.182,-0.173 0.388,0 0.993,0.087 1.596,0.195 0.604,0.108 1.207,0.238 1.59,0.324 0.046,0.011 0.067,0.048 0.066,0.085 -10e-4,0.037 -0.025,0.074 -0.071,0.083 -0.414,0.077 -0.794,0.165 -1.137,0.261 -0.344,0.097 -0.65,0.203 -0.916,0.317 -0.35,0.153 -0.719,0.551 -1.029,1.029 -0.309,0.477 -0.559,1.036 -0.671,1.508 -0.356,1.466 -0.288,2.634 -0.084,3.518 0.204,0.884 0.543,1.483 0.731,1.812 m 0.94,-5.292 0.006,-0.022 0.005,-0.021 c 0.019,-0.122 0.038,-0.245 0.067,-0.344 0.029,-0.1 0.069,-0.177 0.131,-0.211 0.262,-0.148 0.941,-0.123 1.686,-0.04 0.745,0.084 1.557,0.226 2.083,0.317 0.208,0.037 0.394,0.071 0.553,0.098 0.158,0.026 0.289,0.047 0.388,0.058 0.655,0.063 1.82,0.155 3.196,0.162 1.376,0.006 2.963,-0.075 4.459,-0.355 1.377,-0.061 2.282,0.156 2.844,0.582 0.563,0.427 0.784,1.063 0.792,1.837 -0.014,0.134 -0.027,0.263 -0.038,0.387 -0.01,0.123 -0.018,0.24 -0.021,0.349 0,0.482 -0.039,0.901 -0.172,1.244 -0.133,0.342 -0.36,0.61 -0.737,0.786 -0.716,0.337 -2.458,0.455 -4.558,0.443 -2.101,-0.012 -4.56,-0.154 -6.711,-0.342 -0.484,-0.043 -1.065,-0.103 -1.645,-0.193 -0.581,-0.09 -1.159,-0.207 -1.638,-0.361 -0.144,-0.049 -0.29,-0.185 -0.42,-0.382 -0.129,-0.197 -0.243,-0.454 -0.323,-0.745 -0.131,-0.494 -0.151,-1.109 -0.121,-1.698 0.029,-0.589 0.108,-1.154 0.174,-1.549 m 12.264,15.715 c -1.815,0.662 -3.4,1.143 -5.032,1.488 -1.632,0.345 -3.311,0.553 -5.315,0.669 -0.037,0.002 -0.075,-0.005 -0.109,-0.019 -0.035,-0.015 -0.066,-0.036 -0.09,-0.065 -1.028,-1.219 -1.015,-3.188 -0.831,-5.248 0.184,-2.061 0.539,-4.213 0.199,-5.801 2.183,0.262 4.039,0.375 5.895,0.431 1.856,0.056 3.714,0.055 5.903,0.086 -0.339,1.344 -0.485,2.768 -0.55,4.202 -0.066,1.434 -0.051,2.877 -0.07,4.257 m 7.951,-3.794 c -0.244,0.152 -0.491,0.3 -0.74,0.447 -0.248,0.145 -0.498,0.289 -0.749,0.43 -0.038,0.022 -0.08,0.019 -0.113,0 -0.033,-0.019 -0.058,-0.053 -0.06,-0.097 -0.029,-0.604 -0.064,-1.107 -0.098,-1.531 -0.034,-0.424 -0.068,-0.769 -0.096,-1.056 -0.067,-0.654 -0.1,-0.982 -0.015,-1.279 0.086,-0.299 0.29,-0.569 0.699,-1.108 0.12,-0.156 0.257,-0.336 0.412,-0.545 0.156,-0.209 0.33,-0.446 0.525,-0.719 0.048,-0.066 0.125,-0.084 0.19,-0.063 0.066,0.021 0.119,0.079 0.119,0.162 v 5.228 c 0,0.026 -0.007,0.052 -0.02,0.075 -0.013,0.022 -0.031,0.042 -0.054,0.056 m -2.958,-4.916 c -0.432,0.433 -0.586,1.141 -0.599,2 -0.013,0.861 0.116,1.873 0.247,2.914 0.035,0.278 0.071,0.558 0.103,0.835 0.033,0.277 0.063,0.551 0.087,0.819 0.002,0.026 -0.004,0.052 -0.016,0.074 -0.013,0.022 -0.031,0.04 -0.055,0.052 -0.44,0.22 -0.884,0.432 -1.334,0.637 -0.449,0.206 -0.903,0.402 -1.361,0.589 -0.031,0.013 -0.062,0.008 -0.086,-0.008 -0.024,-0.017 -0.04,-0.045 -0.039,-0.078 0.011,-0.396 0.017,-0.792 0.019,-1.186 0.002,-0.395 10e-4,-0.788 -0.002,-1.179 -0.003,-1.092 -0.005,-2.153 0.065,-3.1 0.07,-0.948 0.213,-1.781 0.502,-2.416 0.123,-0.267 0.311,-0.469 0.537,-0.64 0.226,-0.172 0.489,-0.314 0.762,-0.46 0.334,-0.179 0.691,-0.371 0.986,-0.639 0.296,-0.266 0.529,-0.608 0.617,-1.087 0.065,-0.341 0.13,-1.066 0.175,-1.798 0.045,-0.734 0.069,-1.475 0.05,-1.848 -0.045,-0.793 -0.91,-1.407 -1.92,-1.86 -1.011,-0.454 -2.167,-0.747 -2.795,-0.896 -0.224,-0.053 -0.448,-0.107 -0.673,-0.161 -0.224,-0.055 -0.45,-0.108 -0.676,-0.159 -0.03,-0.007 -0.043,-0.032 -0.041,-0.056 0.002,-0.024 0.019,-0.046 0.05,-0.048 0.785,-0.036 1.599,0.005 2.407,0.093 0.807,0.088 1.607,0.223 2.365,0.374 0.404,0.077 0.813,0.159 1.19,0.252 0.378,0.093 0.724,0.196 1.002,0.319 0.112,0.051 0.411,0.256 0.715,0.63 0.305,0.374 0.613,0.916 0.744,1.64 0.121,0.651 0.098,1.519 -0.322,2.589 -0.42,1.07 -1.236,2.342 -2.704,3.802 m 3.074,-9.545 c 0.591,-0.937 0.931,-1.938 1.128,-2.76 0.198,-0.822 0.252,-1.467 0.27,-1.691 0.002,-0.025 0.013,-0.047 0.028,-0.063 0.016,-0.017 0.038,-0.027 0.063,-0.03 0.139,-0.015 0.326,-0.042 0.509,-0.072 0.182,-0.028 0.359,-0.058 0.478,-0.08 0.105,-0.02 0.206,-0.04 0.3,-0.059 0.095,-0.02 0.184,-0.038 0.268,-0.057 0.02,-0.004 0.039,0.005 0.049,0.019 0.011,0.014 0.013,0.035 0.003,0.053 -0.028,0.049 -0.057,0.101 -0.086,0.156 -0.029,0.053 -0.057,0.111 -0.085,0.17 -0.214,0.431 -0.325,0.767 -0.385,1.097 -0.061,0.331 -0.07,0.655 -0.081,1.062 0,0.56 -0.045,1.321 -0.119,2.083 -0.073,0.762 -0.174,1.527 -0.282,2.095 -0.002,0.01 -0.01,0.014 -0.017,0.014 -0.008,-0.001 -0.015,-0.006 -0.018,-0.015 -0.193,-0.754 -0.571,-1.236 -0.959,-1.519 -0.388,-0.284 -0.786,-0.37 -1.018,-0.335 -0.021,0.004 -0.038,-0.005 -0.047,-0.02 -0.008,-0.013 -0.009,-0.032 10e-4,-0.048 m 8.174,7.682 c -0.176,0.19 -0.314,0.336 -0.453,0.482 -0.14,0.144 -0.282,0.287 -0.466,0.468 -0.882,0.884 -1.807,1.726 -2.77,2.523 -0.963,0.798 -1.964,1.553 -2.998,2.263 0.002,-1.488 0.073,-3.107 0.133,-4.708 0.059,-1.601 0.107,-3.182 0.065,-4.595 0.277,0.147 0.526,0.086 0.737,-0.066 0.211,-0.152 0.385,-0.393 0.514,-0.607 0.21,-0.347 0.397,-0.837 0.541,-1.344 0.144,-0.507 0.247,-1.029 0.293,-1.443 l 2.143,0.472 2.144,0.473 0.059,3.041 z m -0.415,-8.196 -1.821,-0.38 -1.82,-0.38 c -0.051,-0.01 -0.095,-0.039 -0.124,-0.077 -0.031,-0.039 -0.047,-0.089 -0.044,-0.141 0.008,-0.14 0.016,-0.282 0.022,-0.423 0.007,-0.141 0.011,-0.284 0.011,-0.426 0,-0.125 10e-4,-0.25 0.009,-0.371 0.007,-0.121 0.021,-0.241 0.045,-0.356 0.044,-0.183 0.096,-0.346 0.161,-0.5 0.065,-0.154 0.142,-0.301 0.234,-0.451 0.037,-0.061 0.091,-0.106 0.153,-0.134 0.063,-0.027 0.134,-0.035 0.204,-0.02 l 1.515,0.313 1.515,0.314 c 0.073,0.015 0.135,0.054 0.179,0.108 0.044,0.055 0.071,0.123 0.071,0.197 l 0.009,1.23 0.008,1.228 c 0.001,0.087 -0.038,0.163 -0.099,0.213 -0.061,0.05 -0.143,0.073 -0.228,0.056 M 0.23,13.083 c -0.152,0.035 -0.249,0.057 -0.35,0.062 -0.1,0.006 -0.203,-0.007 -0.366,-0.041 -0.498,-0.1 -0.997,-0.205 -1.495,-0.31 -0.498,-0.106 -0.996,-0.211 -1.493,-0.315 -0.017,-0.004 -0.035,-0.016 -0.048,-0.028 -0.013,-0.014 -0.019,-0.028 -0.011,-0.036 0.15,-0.131 0.289,-0.245 0.409,-0.338 0.121,-0.093 0.222,-0.163 0.295,-0.207 0.016,-0.011 0.034,-0.019 0.052,-0.026 0.018,-0.006 0.037,-0.01 0.056,-0.013 1.327,-0.189 2.381,-0.218 3.337,-0.134 0.956,0.084 1.813,0.281 2.745,0.544 0.067,0.018 0.093,0.063 0.102,0.103 0.009,0.04 0.002,0.077 0.002,0.077 -0.54,0.112 -1.079,0.218 -1.617,0.327 -0.539,0.108 -1.077,0.217 -1.618,0.335 M 0.567,23.779 V 19.314 C 1.196,19.172 1.793,19.059 2.391,18.949 2.989,18.839 3.588,18.732 4.219,18.604 3.66,19.554 3.098,20.426 2.5,21.271 1.901,22.117 1.268,22.935 0.567,23.779 m 4.748,-7.15 -4.748,0.998 v -3.071 c 0.281,-0.066 0.698,-0.158 1.225,-0.27 0.526,-0.113 1.163,-0.244 1.881,-0.392 0.623,-0.128 1.211,-0.248 1.723,-0.351 0.511,-0.104 0.945,-0.191 1.261,-0.252 0,0.531 -0.213,1.13 -0.487,1.713 -0.274,0.584 -0.609,1.152 -0.855,1.625 M 7.619,10.541 C 7.07,10.546 6.446,10.512 5.845,10.466 5.244,10.421 4.665,10.362 4.206,10.318 4.186,10.316 4.175,10.3 4.174,10.285 4.174,10.268 4.183,10.253 4.203,10.249 4.652,10.164 5.377,10.043 6.097,9.914 6.816,9.784 7.529,9.645 7.951,9.523 8.009,9.506 8.065,9.525 8.102,9.563 8.139,9.6 8.157,9.656 8.14,9.714 8.107,9.824 8.071,9.943 8.036,10.059 8.001,10.175 7.967,10.289 7.937,10.388 7.928,10.415 7.872,10.453 7.807,10.485 7.741,10.516 7.666,10.541 7.619,10.541 M 8.472,7.438 C 7.892,7.661 6.85,7.957 5.818,8.201 4.787,8.446 3.767,8.641 3.233,8.663 3.16,8.666 3.091,8.643 3.036,8.603 2.981,8.562 2.94,8.503 2.923,8.431 2.898,8.324 2.87,8.194 2.841,8.066 2.812,7.937 2.783,7.81 2.756,7.706 2.739,7.64 2.742,7.573 2.763,7.51 2.785,7.449 2.823,7.393 2.877,7.352 3.732,6.687 4.478,6.094 5.275,5.565 6.073,5.037 6.922,4.57 7.987,4.158 8.038,4.137 8.093,4.132 8.146,4.14 8.199,4.149 8.25,4.171 8.291,4.208 8.422,4.323 8.553,4.416 8.682,4.49 8.81,4.563 8.936,4.619 9.057,4.659 9.13,4.683 9.189,4.733 9.226,4.796 9.263,4.858 9.278,4.933 9.265,5.008 9.205,5.352 9.14,5.695 9.07,6.037 9,6.378 8.926,6.718 8.847,7.057 8.837,7.097 8.777,7.18 8.702,7.259 8.627,7.338 8.538,7.413 8.472,7.438 m -62.086,-10.84 c 0.045,0.002 0.088,0.021 0.121,0.051 0.033,0.03 0.055,0.071 0.06,0.12 0.009,0.045 -10e-4,0.091 -0.024,0.129 -0.022,0.037 -0.059,0.068 -0.104,0.084 -0.107,0.043 -0.223,0.071 -0.343,0.093 -0.12,0.021 -0.245,0.036 -0.368,0.052 -0.222,0.026 -0.479,0.059 -0.697,0.152 -0.217,0.094 -0.393,0.245 -0.452,0.51 -0.037,0.163 0.013,0.284 0.105,0.381 0.091,0.095 0.224,0.167 0.349,0.227 0.217,0.1 0.423,0.115 0.631,0.087 0.209,-0.027 0.419,-0.1 0.647,-0.178 0.195,-0.063 0.405,-0.135 0.631,-0.179 0.225,-0.046 0.468,-0.066 0.727,-0.029 0.7,0.097 1.243,0.171 1.692,0.202 0.449,0.032 0.805,0.02 1.13,-0.057 0.254,-0.065 0.397,-0.17 0.481,-0.31 0.083,-0.14 0.108,-0.315 0.124,-0.518 0.04,-0.593 -0.268,-0.92 -0.698,-1.103 -0.431,-0.183 -0.984,-0.222 -1.436,-0.237 -0.301,-0.006 -0.775,-0.019 -1.24,-0.019 -0.466,10e-4 -0.925,0.016 -1.197,0.067 -0.051,0.007 -0.102,-0.003 -0.143,-0.029 -0.042,-0.025 -0.074,-0.065 -0.087,-0.116 -0.014,-0.051 -0.008,-0.101 0.013,-0.143 0.02,-0.043 0.056,-0.079 0.105,-0.097 0.342,-0.135 0.678,-0.244 1.005,-0.328 0.328,-0.085 0.647,-0.145 0.957,-0.179 0.042,-0.005 0.071,-0.033 0.081,-0.067 0.01,-0.035 10e-4,-0.075 -0.033,-0.1 -0.232,-0.176 -0.462,-0.358 -0.643,-0.575 -0.18,-0.217 -0.311,-0.469 -0.341,-0.78 -0.007,-0.065 -0.008,-0.129 -0.005,-0.196 0.003,-0.065 0.011,-0.133 0.023,-0.2 0.007,-0.041 -0.012,-0.075 -0.04,-0.093 -0.029,-0.018 -0.067,-0.02 -0.101,0.005 -0.302,0.227 -0.657,0.4 -1.029,0.493 -0.371,0.093 -0.759,0.106 -1.125,0.012 0.093,0.206 0.145,0.392 0.173,0.58 0.028,0.19 0.032,0.381 0.03,0.601 0.219,0.181 0.344,0.288 0.414,0.366 0.07,0.078 0.083,0.127 0.077,0.194 l -0.002,0.027 -0.003,0.027 -0.016,0.023 -0.016,0.025 c -0.075,0.101 -0.282,0.163 -0.49,0.199 -0.207,0.037 -0.416,0.049 -0.494,0.052 -0.115,0.008 -0.228,0.017 -0.341,0.027 -0.113,0.01 -0.225,0.021 -0.338,0.031 -0.133,0.011 -0.12,0.049 0.008,0.098 0.128,0.048 0.369,0.106 0.693,0.153 0.192,0.026 0.352,0.052 0.476,0.102 0.123,0.05 0.21,0.124 0.255,0.247 0.012,0.033 0.034,0.063 0.061,0.083 0.027,0.02 0.06,0.031 0.097,0.031 0.096,-0.002 0.233,-0.003 0.357,-0.003 0.123,0 0.235,10e-4 0.283,0.005 m -5.86,0.737 c -0.487,0.175 -0.603,10e-4 -0.56,-0.269 0.043,-0.27 0.245,-0.637 0.395,-0.842 0.292,-0.398 0.671,-0.857 1.089,-1.272 0.418,-0.416 0.876,-0.789 1.325,-1.016 0.009,-0.005 0.011,-0.015 0.008,-0.021 -0.003,-0.008 -0.011,-0.014 -0.021,-0.012 -0.616,0.144 -1.068,0.343 -1.464,0.609 -0.396,0.266 -0.734,0.6 -1.121,1.014 -0.035,0.038 -0.085,0.041 -0.123,0.02 -0.037,-0.02 -0.063,-0.062 -0.05,-0.112 0.151,-0.574 0.408,-1.128 0.78,-1.602 0.371,-0.476 0.856,-0.872 1.464,-1.132 0.031,-0.014 0.042,-0.045 0.036,-0.071 -0.006,-0.027 -0.028,-0.049 -0.063,-0.046 -0.204,0.012 -0.435,0.038 -0.649,0.036 -0.214,-0.002 -0.412,-0.032 -0.55,-0.131 -0.041,-0.029 -0.09,-0.042 -0.139,-0.04 -0.049,0.002 -0.098,0.019 -0.139,0.049 -0.483,0.353 -0.888,0.624 -1.235,0.761 -0.346,0.138 -0.635,0.145 -0.886,-0.03 -0.021,-0.015 -0.041,-0.03 -0.06,-0.046 -0.019,-0.015 -0.037,-0.032 -0.053,-0.05 -0.031,-0.032 -0.068,-0.054 -0.109,-0.065 -0.04,-0.011 -0.083,-0.01 -0.125,0.005 -0.057,0.019 -0.115,0.038 -0.173,0.056 -0.059,0.017 -0.118,0.034 -0.177,0.049 -0.046,0.012 -0.084,0.042 -0.108,0.081 -0.024,0.039 -0.034,0.087 -0.024,0.133 0.087,0.397 0.109,0.828 0.015,1.228 -0.094,0.4 -0.304,0.768 -0.683,1.039 -0.117,0.084 -0.23,0.147 -0.341,0.205 -0.112,0.058 -0.222,0.109 -0.333,0.169 -0.038,0.02 -0.07,0.051 -0.091,0.086 -0.022,0.036 -0.034,0.077 -0.032,0.121 0.006,0.27 0.061,0.69 0.129,1.086 0.07,0.396 0.153,0.768 0.219,0.944 0.153,0.403 0.111,0.6 0.006,0.759 -0.104,0.16 -0.273,0.282 -0.374,0.539 -0.433,1.076 -0.427,1.835 -0.103,2.45 0.323,0.614 0.963,1.086 1.798,1.586 0.023,0.013 0.048,0.008 0.063,-0.007 0.016,-0.014 0.024,-0.039 0.012,-0.061 -0.06,-0.115 -0.117,-0.235 -0.168,-0.358 -0.051,-0.122 -0.096,-0.248 -0.132,-0.374 -0.172,-0.6 -0.222,-0.964 -0.205,-1.187 0.017,-0.224 0.103,-0.308 0.205,-0.351 0.075,-0.032 0.153,-0.029 0.233,0.007 0.08,0.036 0.162,0.107 0.247,0.208 0.007,0.009 0.017,0.011 0.025,0.007 0.007,-0.003 0.013,-0.011 0.011,-0.022 -0.041,-0.266 -0.06,-0.544 -0.058,-0.796 0.002,-0.254 0.025,-0.483 0.066,-0.654 0.025,-0.109 0.076,-0.344 0.165,-0.543 0.088,-0.2 0.213,-0.365 0.385,-0.336 0.022,0.004 0.045,0.001 0.065,-0.009 0.019,-0.01 0.036,-0.027 0.046,-0.048 0.04,-0.084 0.09,-0.167 0.148,-0.249 0.058,-0.082 0.125,-0.162 0.201,-0.241 0.222,-0.218 0.533,-0.421 0.836,-0.547 0.304,-0.126 0.6,-0.176 0.789,-0.087 0.067,0.031 0.119,0.08 0.153,0.138 0.034,0.059 0.05,0.128 0.045,0.203 -0.013,0.147 -0.094,0.381 -0.132,0.618 -0.038,0.236 -0.034,0.474 0.121,0.627 0.228,0.222 0.73,0.185 1.273,0.049 0.543,-0.134 1.127,-0.367 1.52,-0.536 0.068,-0.029 0.11,-0.088 0.122,-0.152 0.012,-0.065 -0.006,-0.135 -0.058,-0.189 -0.101,-0.104 -0.181,-0.222 -0.237,-0.35 -0.056,-0.128 -0.087,-0.266 -0.091,-0.408 -0.008,-0.341 0.145,-0.623 0.377,-0.838 0.231,-0.215 0.541,-0.363 0.847,-0.435 0.012,-0.003 0.017,-0.011 0.017,-0.02 0,-0.009 -0.006,-0.018 -0.017,-0.02 -0.187,-0.032 -0.646,-0.086 -1.372,-0.018 -0.726,0.067 -1.72,0.256 -2.98,0.711 m 10.58,-55.59 c 1.543,0.404 3.262,0.634 5.278,0.748 2.016,0.113 4.33,0.11 7.064,0.047 0.055,-0.002 0.105,-0.022 0.144,-0.056 0.04,-0.033 0.068,-0.08 0.077,-0.134 0.049,-0.29 0.061,-0.586 0.032,-0.877 -0.029,-0.291 -0.098,-0.578 -0.211,-0.85 -0.694,-1.686 -1.902,-3.207 -3.342,-4.472 -1.44,-1.265 -3.112,-2.274 -4.733,-2.939 -1.414,-0.58 -3.13,-1.043 -4.863,-1.229 -1.734,-0.185 -3.485,-0.093 -4.968,0.438 -3.625,1.295 -3.261,3.36 -1.483,5.235 1.778,1.874 4.971,3.557 7.005,4.089 m -6.426,-11.85 c 1.601,-0.571 3.528,-0.777 5.562,-0.632 2.032,0.145 4.171,0.64 6.194,1.47 2.214,0.91 4.158,2.144 5.762,3.638 1.604,1.493 2.868,3.247 3.724,5.194 0.023,0.052 0.065,0.089 0.114,0.106 0.049,0.018 0.106,0.015 0.157,-0.01 0.529,-0.268 1.089,-0.473 1.667,-0.612 0.579,-0.138 1.178,-0.209 1.786,-0.209 0.76,0 1.503,0.111 2.212,0.323 0.709,0.213 1.384,0.527 2.006,0.934 0.041,0.027 0.088,0.032 0.13,0.019 0.041,-0.012 0.077,-0.043 0.096,-0.088 0.836,-2.01 2.103,-3.822 3.728,-5.364 1.625,-1.542 3.608,-2.814 5.877,-3.743 2.024,-0.831 4.162,-1.326 6.195,-1.471 2.033,-0.145 3.96,0.061 5.561,0.632 4.555,1.629 4.815,4.451 4.134,7.374 -0.68,2.922 -2.3,5.944 -1.503,7.974 0.323,0.822 0.636,1.557 0.928,2.219 0.293,0.66 0.566,1.246 0.809,1.77 0.556,1.193 1.017,2.184 1.245,3.104 0.228,0.92 0.223,1.771 -0.154,2.684 -0.611,1.462 -1.482,2.572 -2.572,3.356 -1.089,0.784 -2.397,1.242 -3.88,1.399 -0.124,0.013 -0.208,0.098 -0.238,0.199 -0.03,0.102 -0.005,0.221 0.089,0.302 0.398,0.342 0.778,0.712 1.136,1.114 0.358,0.403 0.694,0.837 1.001,1.309 0.735,0.569 1.451,1.16 2.148,1.773 0.697,0.613 1.375,1.247 2.032,1.901 4.02,4.01 7.273,8.786 9.522,14.089 2.249,5.302 3.493,11.132 3.496,17.252 v 0.054 C 13.641,4.071 12.397,9.9 10.148,15.202 7.899,20.504 4.646,25.279 0.626,29.29 c -4.022,4.012 -8.813,7.26 -14.131,9.506 -5.319,2.245 -11.166,3.486 -17.303,3.486 -6.14,0 -11.987,-1.241 -17.305,-3.486 -5.318,-2.246 -10.107,-5.494 -14.13,-9.506 -4.023,-4.013 -7.278,-8.792 -9.528,-14.099 -2.25,-5.307 -3.495,-11.141 -3.495,-17.264 0,-6.125 1.245,-11.96 3.495,-17.267 2.25,-5.307 5.505,-10.087 9.528,-14.1 1.285,-1.283 2.648,-2.486 4.082,-3.603 1.433,-1.117 2.937,-2.148 4.504,-3.085 0.054,-0.033 0.071,-0.091 0.057,-0.14 -0.013,-0.05 -0.056,-0.092 -0.12,-0.092 -0.337,-0.003 -0.675,-0.021 -1.009,-0.057 -0.336,-0.037 -0.668,-0.092 -0.997,-0.168 -1.181,-0.272 -2.197,-0.778 -3.041,-1.512 -0.843,-0.733 -1.514,-1.694 -2.005,-2.878 -0.38,-0.91 -0.387,-1.759 -0.16,-2.678 0.226,-0.919 0.686,-1.908 1.239,-3.099 0.243,-0.524 0.516,-1.112 0.81,-1.777 0.293,-0.664 0.607,-1.404 0.933,-2.228 0.294,-0.751 0.217,-1.78 -0.025,-2.884 -0.241,-1.104 -0.646,-2.283 -1.007,-3.332 -0.7,-2.035 -0.92,-3.912 -0.398,-5.483 0.523,-1.571 1.788,-2.837 4.06,-3.649 m 5.758,14.429 c -0.925,-0.244 -1.799,-0.54 -2.643,-0.9 -0.842,-0.359 -1.654,-0.782 -2.456,-1.278 -0.134,-0.083 -0.286,-0.069 -0.398,0.005 -0.111,0.074 -0.184,0.207 -0.158,0.363 0.104,0.65 0.155,1.295 0.125,1.918 -0.03,0.623 -0.141,1.224 -0.361,1.788 -0.34,0.865 -0.666,1.634 -0.97,2.322 -0.304,0.687 -0.586,1.293 -0.837,1.833 -0.5,1.073 -0.832,1.803 -1.002,2.352 -0.171,0.55 -0.18,0.918 -0.035,1.268 0.32,0.769 0.739,1.383 1.261,1.848 0.523,0.466 1.15,0.782 1.888,0.955 2.493,0.587 5.858,-0.412 9.081,-1.895 3.222,-1.482 6.301,-3.449 8.224,-4.797 0.036,-0.025 0.04,-0.066 0.025,-0.097 -0.015,-0.031 -0.051,-0.053 -0.093,-0.042 -4.389,1.207 -4.828,0.869 -3.988,0.127 0.84,-0.741 2.959,-1.885 3.684,-2.287 0.03,-0.017 0.037,-0.048 0.029,-0.074 -0.008,-0.025 -0.032,-0.046 -0.066,-0.043 -1.74,0.167 -3.39,0.246 -4.609,0.244 -1.22,-0.003 -2.008,-0.088 -2.024,-0.248 -0.027,-0.27 1.088,-0.7 2.447,-1.126 1.359,-0.426 2.963,-0.848 3.913,-1.102 0.071,-0.019 0.101,-0.081 0.094,-0.139 -0.007,-0.057 -0.05,-0.109 -0.124,-0.111 -1.137,-0.022 -3.256,-0.078 -5.406,-0.211 -2.151,-0.133 -4.334,-0.343 -5.601,-0.673 m 38.577,-0.443 c -1.539,0.473 -3.198,0.805 -5.048,1.019 -1.851,0.215 -3.894,0.313 -6.203,0.317 -0.035,0 -0.056,0.025 -0.058,0.052 -0.003,0.027 0.011,0.055 0.045,0.061 1.054,0.189 3.49,0.573 5.437,0.987 1.948,0.413 3.407,0.856 2.503,1.161 -0.281,0.095 -1.594,0.161 -3.157,0.21 -1.564,0.048 -3.378,0.079 -4.662,0.103 -0.05,0.001 -0.079,0.036 -0.084,0.074 -0.006,0.039 0.012,0.081 0.059,0.097 4.984,1.687 7.171,2.89 6.935,3.323 -0.236,0.433 -2.895,0.096 -7.604,-1.297 -0.081,-0.024 -0.153,0.013 -0.19,0.071 -0.037,0.059 -0.04,0.139 0.016,0.202 1.655,1.85 5.094,3.836 8.659,5.226 3.565,1.391 7.256,2.185 9.414,1.653 0.794,-0.195 1.465,-0.534 2.021,-1.024 0.556,-0.491 0.997,-1.133 1.331,-1.934 0.147,-0.353 0.138,-0.724 -0.034,-1.275 -0.172,-0.551 -0.506,-1.283 -1.008,-2.356 -0.252,-0.54 -0.533,-1.145 -0.835,-1.83 -0.303,-0.686 -0.628,-1.452 -0.967,-2.314 -0.343,-0.87 -0.424,-1.832 -0.346,-2.824 0.078,-0.993 0.314,-2.016 0.605,-3.01 0.013,-0.045 -0.004,-0.086 -0.035,-0.11 -0.031,-0.024 -0.075,-0.03 -0.115,-0.005 -0.464,0.289 -1.584,0.977 -2.862,1.676 -1.278,0.7 -2.716,1.411 -3.817,1.747 m -13.339,-1.843 c -0.072,0.108 -0.07,0.234 -0.017,0.333 0.052,0.1 0.155,0.173 0.285,0.175 2.631,0.042 4.904,-0.015 6.92,-0.205 2.015,-0.19 3.773,-0.513 5.37,-1.002 1.441,-0.443 4.83,-1.98 6.954,-3.729 2.124,-1.749 2.982,-3.71 -0.64,-5.002 -1.283,-0.459 -2.89,-0.611 -4.602,-0.474 -1.712,0.138 -3.529,0.565 -5.235,1.265 -1.657,0.68 -3.134,1.567 -4.39,2.623 -1.257,1.056 -2.292,2.281 -3.068,3.64 l -0.789,1.188 z M 7.186,-4.903 C 6.9,-4.889 6.671,-4.418 6.502,-3.832 6.333,-3.246 6.224,-2.545 6.175,-2.073 6.125,-1.56 6.064,-0.836 5.962,-0.254 5.86,0.328 5.716,0.768 5.497,0.715 5.218,0.646 4.884,0.079 4.653,-0.981 4.422,-2.039 4.293,-3.589 4.427,-5.623 4.457,-6.064 4.518,-6.688 4.503,-7.208 4.487,-7.729 4.395,-8.147 4.117,-8.176 3.74,-8.219 3.189,-6.234 2.541,-4.667 c -0.649,1.565 -1.396,2.713 -2.166,0.993 -0.497,-1.123 -0.283,-2.331 0.11,-3.408 0.392,-1.079 0.964,-2.025 1.182,-2.625 0.014,-0.039 0.04,-0.072 0.072,-0.094 0.033,-0.023 0.073,-0.035 0.114,-0.034 0.278,0.003 0.598,-0.05 0.937,-0.212 0.338,-0.161 0.695,-0.432 1.048,-0.865 0.022,-0.028 0.067,-0.044 0.109,-0.048 0.042,-0.004 0.082,0.005 0.095,0.028 0.211,0.5 0.465,0.929 0.748,1.269 0.283,0.34 0.594,0.592 0.92,0.739 0.147,0.07 0.296,0.121 0.444,0.154 0.148,0.033 0.297,0.049 0.444,0.049 0.166,0 0.331,-0.022 0.493,-0.065 0.161,-0.043 0.319,-0.108 0.469,-0.197 0.313,-0.181 0.599,-0.474 0.815,-0.821 0.217,-0.347 0.363,-0.745 0.396,-1.138 0.005,-0.058 0.036,-0.073 0.069,-0.055 0.034,0.018 0.07,0.068 0.085,0.14 0.313,1.415 0.553,2.857 0.715,4.322 0.162,1.465 0.246,2.954 0.246,4.462 0,0.73 -0.02,1.453 -0.059,2.171 C 9.788,0.817 9.73,1.53 9.656,2.237 9.073,2.24 8.709,0.425 8.365,-1.375 8.02,-3.175 7.694,-4.961 7.186,-4.903"
         style="fill:none;stroke:#ff0000;stroke-width:0.38px"
         id="path186" />
    </g>
  </g>
</svg>
