<?xml version="1.0" encoding="UTF-8" standalone="no"?>
<!-- Created with Inkscape (http://www.inkscape.org/) -->

<svg
   width="62.937511mm"
   height="80.04113mm"
   viewBox="0 0 62.937511 80.04113"
   version="1.1"
   id="svg291"
   xmlns="http://www.w3.org/2000/svg"
   xmlns:svg="http://www.w3.org/2000/svg">
  <defs
     id="defs288" />
  <g
     id="layer1"
     transform="translate(-149.70734,-62.502095)">
    <g
       transform="matrix(0.70555643,0,0,0.70555643,212.4553,95.467091)"
       id="g200"
       style="clip-rule:evenodd;fill-rule:evenodd;stroke-linejoin:round;stroke-miterlimit:2">
      <path
         d="M 0,19.891 C -0.343,13.226 -2.098,6.996 -5.071,1.443 -8.045,-4.11 -12.237,-8.986 -17.455,-12.944 c -0.049,-0.037 -0.064,-0.093 -0.05,-0.143 0.013,-0.049 0.053,-0.092 0.113,-0.101 1.542,-0.228 2.874,-0.765 3.976,-1.615 1.101,-0.85 1.97,-2.014 2.584,-3.493 0.412,-0.992 0.42,-1.916 0.173,-2.916 -0.247,-1 -0.748,-2.076 -1.353,-3.373 -0.263,-0.568 -0.559,-1.205 -0.879,-1.923 -0.318,-0.718 -0.66,-1.518 -1.013,-2.411 -0.381,-0.972 -0.176,-2.424 0.208,-3.889 0.383,-1.465 0.947,-2.943 1.284,-3.967 0.662,-2.004 0.576,-3.851 -0.175,-5.375 -0.752,-1.524 -2.169,-2.727 -4.17,-3.443 -1.742,-0.621 -3.836,-0.845 -6.044,-0.687 -2.208,0.157 -4.529,0.695 -6.728,1.598 -2.458,1.006 -4.608,2.383 -6.37,4.053 -1.763,1.669 -3.139,3.632 -4.05,5.811 -0.025,0.058 -0.072,0.097 -0.126,0.114 -0.055,0.016 -0.116,0.01 -0.169,-0.025 -0.672,-0.438 -1.401,-0.776 -2.165,-1.003 -0.765,-0.228 -1.566,-0.346 -2.384,-0.346 -0.629,0 -1.248,0.07 -1.848,0.206 -0.6,0.136 -1.182,0.338 -1.735,0.602 -0.103,0.05 -0.216,0.05 -0.315,0.013 -0.099,-0.038 -0.183,-0.114 -0.231,-0.218 -0.944,-2.072 -2.314,-3.938 -4.042,-5.53 -1.726,-1.591 -3.81,-2.907 -6.182,-3.88 -2.201,-0.903 -4.524,-1.441 -6.732,-1.598 -2.209,-0.158 -4.303,0.066 -6.045,0.686 -2.466,0.882 -3.84,2.257 -4.407,3.965 -0.566,1.707 -0.327,3.746 0.434,5.957 0.392,1.14 0.832,2.42 1.093,3.62 0.262,1.2 0.344,2.318 0.022,3.133 -0.352,0.896 -0.691,1.7 -1.01,2.422 -0.318,0.721 -0.616,1.361 -0.884,1.929 -0.6,1.294 -1.1,2.369 -1.346,3.368 -0.245,0.998 -0.236,1.92 0.179,2.91 0.609,1.462 1.466,2.6 2.541,3.419 1.075,0.82 2.368,1.321 3.849,1.509 0.145,0.018 0.243,0.121 0.275,0.241 0.033,0.119 0,0.257 -0.117,0.345 -0.779,0.594 -1.54,1.214 -2.281,1.862 -0.74,0.647 -1.462,1.321 -2.164,2.023 -4.194,4.183 -7.445,9.055 -9.648,14.36 -2.203,5.305 -3.357,11.043 -3.357,16.958 0,5.917 1.154,11.658 3.357,16.966 2.203,5.306 5.454,10.18 9.648,14.363 4.193,4.187 9.078,7.431 14.397,9.629 5.319,2.198 11.071,3.35 17.002,3.35 5.93,0 11.682,-1.152 16.999,-3.35 5.318,-2.198 10.201,-5.442 14.395,-9.629 2.689,-2.681 4.929,-5.529 6.778,-8.597 1.849,-3.067 3.305,-6.354 4.426,-9.911 0.763,-2.413 1.271,-4.804 1.553,-7.292 C 0.092,25.267 0.146,22.685 0,19.891 m -14.969,5.759 0.13,-0.049 0.13,-0.048 c 0.014,-0.006 0.028,-0.008 0.043,-0.008 0.015,10e-4 0.029,0.004 0.043,0.01 l 4.526,2.036 4.527,2.035 c 0.103,0.046 0.209,0.079 0.315,0.101 0.107,0.02 0.214,0.03 0.32,0.027 0.025,-0.001 0.047,0.01 0.062,0.027 0.015,0.015 0.022,0.039 0.019,0.063 -0.007,0.035 -0.013,0.071 -0.02,0.108 -0.007,0.036 -0.014,0.071 -0.021,0.107 -0.004,0.023 -0.019,0.041 -0.038,0.051 -0.019,0.009 -0.043,0.01 -0.064,0.002 -0.104,-0.042 -0.212,-0.072 -0.325,-0.087 -0.113,-0.017 -0.229,-0.02 -0.347,-0.01 l -4.929,0.498 -4.928,0.498 c -0.026,0.003 -0.051,0 -0.076,-0.008 -0.024,-0.007 -0.047,-0.019 -0.067,-0.035 l -0.084,-0.069 -0.084,-0.07 c -0.029,-0.024 -0.048,-0.056 -0.054,-0.091 -0.006,-0.035 -0.002,-0.073 0.017,-0.106 0.201,-0.371 0.374,-0.762 0.515,-1.172 0.139,-0.408 0.247,-0.834 0.316,-1.272 0.067,-0.408 0.102,-0.815 0.105,-1.219 0.003,-0.404 -0.026,-0.806 -0.085,-1.203 -0.002,-0.016 0.011,-0.044 0.026,-0.069 0.014,-0.026 0.028,-0.047 0.028,-0.047 m 9.365,7.386 c -0.091,0.333 -0.188,0.664 -0.29,0.994 -0.1,0.329 -0.206,0.658 -0.315,0.986 -0.007,0.021 -0.02,0.04 -0.037,0.053 -0.017,0.013 -0.037,0.022 -0.06,0.024 l -1.877,0.188 -1.878,0.187 c -0.022,0.002 -0.043,0 -0.064,-0.006 -0.021,-0.007 -0.041,-0.016 -0.058,-0.031 l -1,-0.81 -0.999,-0.81 c -0.043,-0.035 -0.053,-0.086 -0.04,-0.13 0.013,-0.044 0.05,-0.081 0.105,-0.087 l 3.219,-0.325 3.217,-0.324 c 0.026,-0.003 0.048,0.008 0.063,0.024 0.014,0.018 0.021,0.042 0.014,0.067 m 1.069,-6.141 -3.079,-1.382 -3.079,-1.381 c -0.022,-0.01 -0.032,-0.029 -0.032,-0.05 10e-4,-0.019 0.013,-0.039 0.035,-0.046 l 1.405,-0.535 1.405,-0.534 c 0.026,-0.01 0.053,-0.013 0.079,-0.013 0.027,0 0.053,0.007 0.078,0.018 l 1.706,0.769 1.707,0.768 c 0.032,0.014 0.057,0.037 0.075,0.066 0.017,0.028 0.026,0.061 0.024,0.095 -0.019,0.363 -0.045,0.724 -0.075,1.082 -0.031,0.36 -0.067,0.717 -0.108,1.073 -0.002,0.02 -0.038,0.039 -0.073,0.05 -0.034,0.013 -0.068,0.02 -0.068,0.02 m 0.153,-8.362 -0.324,0.124 -0.323,0.124 c -0.021,0.008 -0.04,0.002 -0.053,-0.012 -0.013,-0.014 -0.019,-0.034 -0.01,-0.054 l 0.31,-0.689 0.308,-0.69 c 0.005,-0.009 0.014,-0.013 0.023,-0.011 0.008,0.001 0.015,0.006 0.017,0.017 0.023,0.179 0.043,0.358 0.063,0.536 0.019,0.179 0.038,0.358 0.054,0.536 0.001,0.015 -0.015,0.044 -0.032,0.071 -0.016,0.025 -0.033,0.048 -0.033,0.048 m -0.815,-5.215 c -0.22,0.046 -0.429,0.142 -0.607,0.283 -0.177,0.141 -0.325,0.325 -0.423,0.547 l -1.368,3.03 -1.369,3.029 c -0.011,0.024 -0.025,0.044 -0.044,0.062 -0.017,0.017 -0.039,0.03 -0.063,0.039 l -1.29,0.488 -1.291,0.489 c -0.036,0.013 -0.072,0.002 -0.094,-0.022 -0.023,-0.023 -0.032,-0.06 -0.016,-0.095 l 1.408,-3.119 1.41,-3.118 c 0.165,-0.368 0.165,-0.768 0.032,-1.115 -0.133,-0.349 -0.399,-0.646 -0.765,-0.812 -0.365,-0.165 -0.764,-0.166 -1.114,-0.035 -0.349,0.131 -0.648,0.396 -0.813,0.761 l -4.076,9.028 c -0.008,0.018 -0.019,0.034 -0.034,0.048 -0.015,0.014 -0.031,0.024 -0.051,0.032 l -0.096,0.036 -0.097,0.038 c -0.024,0.008 -0.051,0.008 -0.073,0 -0.024,-0.007 -0.044,-0.023 -0.058,-0.045 -0.049,-0.08 -0.099,-0.159 -0.152,-0.237 -0.052,-0.077 -0.107,-0.155 -0.161,-0.232 -0.451,-0.628 -0.984,-1.176 -1.581,-1.634 -0.597,-0.458 -1.26,-0.825 -1.968,-1.093 -0.032,-0.012 -0.058,-0.035 -0.073,-0.062 -0.016,-0.028 -0.023,-0.061 -0.017,-0.094 l 0.032,-0.182 c 0.004,-0.019 0.011,-0.039 0.022,-0.056 0.01,-0.017 0.025,-0.032 0.042,-0.044 l 4.022,-2.891 4.022,-2.89 c 0.329,-0.236 0.53,-0.581 0.591,-0.949 0.061,-0.367 -0.019,-0.758 -0.254,-1.083 -0.235,-0.327 -0.581,-0.527 -0.95,-0.587 -0.369,-0.059 -0.76,0.022 -1.089,0.257 l -2.746,1.971 -2.745,1.971 c -0.046,0.033 -0.099,0.03 -0.14,0.005 -0.04,-0.026 -0.068,-0.073 -0.058,-0.128 l 0.22,-1.349 0.219,-1.349 c 0.006,-0.032 0.017,-0.062 0.035,-0.09 0.016,-0.026 0.038,-0.05 0.064,-0.069 l 2.646,-1.899 2.645,-1.9 c 0.328,-0.235 0.528,-0.58 0.588,-0.949 0.06,-0.368 -0.022,-0.76 -0.257,-1.088 -0.235,-0.325 -0.58,-0.525 -0.947,-0.585 -0.367,-0.06 -0.758,0.02 -1.086,0.255 l -1.378,0.99 -1.378,0.992 c -0.047,0.034 -0.101,0.031 -0.143,0.004 -0.041,-0.025 -0.069,-0.073 -0.06,-0.13 l 0.19,-1.168 0.19,-1.17 c 0.067,-0.397 -0.035,-0.782 -0.253,-1.083 -0.218,-0.302 -0.552,-0.521 -0.949,-0.588 -0.398,-0.063 -0.784,0.039 -1.087,0.258 -0.303,0.218 -0.523,0.552 -0.586,0.949 l -0.175,1.076 -0.175,1.077 c -0.014,0.091 -0.081,0.15 -0.156,0.168 -0.076,0.018 -0.162,-0.006 -0.216,-0.081 l -0.811,-1.127 -0.812,-1.127 c -0.045,-0.062 -0.064,-0.135 -0.059,-0.207 0.003,-0.072 0.032,-0.142 0.083,-0.2 0.451,-0.506 0.864,-1.033 1.225,-1.574 0.362,-0.542 0.673,-1.099 0.922,-1.666 0.467,-1.064 0.57,-1.98 0.481,-2.742 -0.089,-0.764 -0.371,-1.374 -0.673,-1.83 -0.371,-0.557 -0.878,-0.955 -1.433,-1.268 -0.555,-0.313 -1.157,-0.539 -1.721,-0.751 -0.798,-0.301 -1.374,-0.557 -1.847,-0.88 -0.474,-0.324 -0.846,-0.713 -1.24,-1.282 -0.115,-0.167 -0.093,-0.362 0.006,-0.501 0.099,-0.139 0.276,-0.221 0.47,-0.163 0.905,0.271 1.875,0.675 2.813,1.103 0.938,0.428 1.844,0.88 2.621,1.248 0.607,0.29 1.194,0.568 1.747,0.82 0.553,0.252 1.073,0.476 1.547,0.659 0.728,0.282 1.389,0.428 1.962,0.392 0.574,-0.037 1.06,-0.255 1.441,-0.705 2.205,1.87 4.255,4.963 5.913,8.276 1.658,3.312 2.923,6.844 3.558,9.59 0.003,0.017 0,0.034 -0.009,0.046 -0.009,0.014 -0.023,0.024 -0.04,0.027 m -25.351,15.034 -0.08,0.03 -0.079,0.03 c -0.055,0.022 -0.111,0.032 -0.168,0.03 -0.058,-0.002 -0.114,-0.015 -0.167,-0.038 l -4.471,-2.008 -4.47,-2.008 c -0.367,-0.166 -0.764,-0.167 -1.113,-0.035 -0.347,0.132 -0.645,0.397 -0.81,0.766 -0.166,0.365 -0.167,0.762 -0.035,1.11 0.132,0.348 0.398,0.644 0.766,0.81 l 3.107,1.396 3.106,1.396 c 0.042,0.019 0.063,0.059 0.062,0.098 -0.001,0.039 -0.024,0.077 -0.068,0.094 l -1.226,0.465 -1.227,0.465 c -0.032,0.011 -0.066,0.017 -0.1,0.016 -0.033,-0.001 -0.066,-0.009 -0.097,-0.022 l -2.978,-1.339 -2.977,-1.339 c -0.369,-0.165 -0.769,-0.165 -1.116,-0.032 -0.349,0.133 -0.647,0.397 -0.813,0.763 -0.165,0.366 -0.167,0.764 -0.034,1.114 0.132,0.348 0.397,0.647 0.766,0.812 l 1.555,0.7 1.556,0.7 c 0.052,0.023 0.076,0.071 0.074,0.119 -0.002,0.047 -0.029,0.092 -0.083,0.111 -0.44,0.153 -1.066,0.359 -1.643,0.593 -0.577,0.233 -1.104,0.495 -1.348,0.762 -0.02,0.02 -0.048,0.034 -0.078,0.039 -0.032,0.004 -0.063,10e-4 -0.089,-0.012 -0.192,-0.098 -0.382,-0.19 -0.57,-0.276 -0.19,-0.085 -0.377,-0.167 -0.565,-0.241 -3.986,-1.599 -7.429,-1.357 -10.119,-0.531 -2.691,0.826 -4.629,2.236 -5.608,2.977 -0.091,0.069 -0.201,0.094 -0.304,0.078 -0.104,-0.016 -0.201,-0.072 -0.267,-0.165 -0.721,-1.02 -1.924,-2.72 -2.526,-4.696 -0.604,-1.975 -0.608,-4.225 1.069,-6.342 0.604,-0.766 1.317,-1.358 2.122,-1.716 0.807,-0.359 1.705,-0.484 2.681,-0.315 0.691,0.116 1.35,0.318 1.918,0.387 0.568,0.07 1.048,0.008 1.382,-0.404 0.943,-1.16 -1.328,-2.884 -4.251,-3.24 -2.924,-0.358 -6.501,0.652 -8.168,4.957 -1.172,3.032 -0.924,5.765 -0.083,8.14 0.841,2.375 2.274,4.391 3.473,5.989 0.039,0.053 0.033,0.116 -0.001,0.16 -0.032,0.044 -0.09,0.068 -0.153,0.045 -0.587,-0.211 -1.122,-0.407 -1.663,-0.62 -0.541,-0.212 -1.087,-0.44 -1.694,-0.718 -3.486,-1.587 -6.646,-3.594 -9.154,-5.948 -2.508,-2.353 -4.365,-5.052 -5.245,-8.023 -1.304,-4.392 -0.866,-9.057 0.982,-12.608 1.848,-3.551 5.104,-5.989 9.437,-5.929 1.229,0.015 2.496,0.351 3.488,1.074 0.993,0.722 1.708,1.83 1.832,3.388 0.12,1.485 -0.611,2.955 -1.57,3.815 -0.959,0.861 -2.146,1.113 -2.942,0.165 1.156,-0.444 1.523,-1.673 1.176,-2.752 -0.348,-1.079 -1.412,-2.009 -3.116,-1.854 -2.669,0.243 -3.828,2.343 -3.628,4.507 0.201,2.163 1.76,4.389 4.528,4.885 2.779,0.495 5.47,-0.858 7.259,-3.015 1.788,-2.158 2.672,-5.12 1.836,-7.845 -0.018,-0.059 0.009,-0.11 0.051,-0.136 0.042,-0.025 0.099,-0.024 0.142,0.021 1.087,1.141 2.453,2.211 3.807,3.121 1.355,0.911 2.7,1.663 3.744,2.169 1.086,0.525 2.371,0.977 3.673,1.299 1.302,0.321 2.623,0.511 3.779,0.511 0.818,0 1.713,-0.092 2.493,-0.394 0.779,-0.302 1.444,-0.813 1.805,-1.649 0.304,-0.707 0.364,-1.544 0.31,-2.395 -0.054,-0.852 -0.221,-1.718 -0.369,-2.484 -0.063,-0.322 -0.125,-0.635 -0.171,-0.917 -0.047,-0.282 -0.078,-0.533 -0.084,-0.73 0.026,-0.245 0.226,-0.769 0.508,-1.395 0.281,-0.625 0.644,-1.351 0.991,-2 0.016,-0.029 0.044,-0.044 0.073,-0.045 0.029,-0.002 0.058,0.011 0.077,0.039 0.301,0.456 0.606,0.976 0.837,1.439 0.23,0.462 0.386,0.867 0.389,1.091 0.003,0.166 -0.005,0.338 -0.018,0.517 -0.014,0.178 -0.035,0.362 -0.058,0.551 -0.107,0.992 -0.1,2.035 0.201,2.943 0.3,0.907 0.895,1.678 1.96,2.128 0.251,0.1 0.531,0.177 0.839,0.233 0.309,0.057 0.644,0.09 1.006,0.103 0.062,0.002 0.118,0.027 0.161,0.067 0.043,0.039 0.071,0.093 0.078,0.154 l 0.089,0.873 0.089,0.874 c 0.008,0.069 -0.028,0.124 -0.08,0.152 -0.051,0.027 -0.117,0.027 -0.17,-0.017 l -1.89,-1.54 c -0.313,-0.252 -0.7,-0.355 -1.071,-0.317 -0.371,0.037 -0.727,0.215 -0.98,0.526 -0.254,0.311 -0.359,0.696 -0.323,1.067 0.037,0.371 0.216,0.729 0.527,0.981 l 0.913,0.742 0.913,0.743 c 0.05,0.04 0.062,0.102 0.047,0.153 -0.016,0.053 -0.06,0.096 -0.124,0.103 l -1.632,0.165 -1.633,0.165 c -0.4,0.041 -0.746,0.239 -0.982,0.528 -0.235,0.289 -0.36,0.667 -0.319,1.068 0.038,0.4 0.236,0.745 0.526,0.98 0.289,0.236 0.667,0.36 1.066,0.32 l 3.128,-0.316 3.128,-0.314 c 0.084,-0.008 0.167,0 0.246,0.023 0.078,0.024 0.152,0.063 0.217,0.115 l 1.652,1.346 c 0.105,0.085 0.131,0.212 0.099,0.321 -0.034,0.11 -0.126,0.201 -0.26,0.214 l -3.152,0.318 -3.154,0.317 c -0.4,0.041 -0.747,0.239 -0.984,0.528 -0.236,0.288 -0.363,0.667 -0.322,1.068 0.041,0.4 0.241,0.745 0.531,0.98 0.289,0.235 0.668,0.36 1.066,0.32 l 4.899,-0.493 4.899,-0.492 c 0.045,-0.004 0.09,0 0.132,0.013 0.042,0.013 0.082,0.033 0.117,0.062 l 0.054,0.043 0.053,0.044 c 0.037,0.03 0.06,0.071 0.07,0.115 0.009,0.043 0.003,0.09 -0.019,0.132 -0.177,0.352 -0.329,0.72 -0.453,1.1 -0.124,0.379 -0.22,0.77 -0.285,1.169 -0.067,0.415 -0.1,0.827 -0.1,1.234 0,0.407 0.034,0.81 0.095,1.205 0.005,0.028 -0.026,0.084 -0.059,0.133 -0.033,0.05 -0.066,0.093 -0.066,0.093 m -10.558,8.053 c -0.12,-0.099 -0.24,-0.196 -0.361,-0.291 -0.121,-0.096 -0.243,-0.19 -0.365,-0.284 -0.019,-0.014 -0.026,-0.036 -0.023,-0.056 0.002,-0.02 0.016,-0.038 0.038,-0.047 l 1.316,-0.494 c 0.023,-0.009 0.047,-10e-4 0.062,0.014 0.014,0.016 0.02,0.04 0.009,0.062 l -0.238,0.525 -0.239,0.526 c -0.018,0.039 -0.051,0.063 -0.088,0.072 -0.038,0.008 -0.079,0 -0.111,-0.027 m 3.042,11.953 c -3.083,-3.975 -7.652,-5.943 -11.92,-7.001 -4.269,-1.059 -8.238,-1.207 -10.121,-1.542 -0.149,-0.027 -0.249,-0.134 -0.285,-0.259 -0.034,-0.126 -0.002,-0.269 0.113,-0.369 2.195,-1.898 4.558,-2.984 6.917,-3.358 2.357,-0.375 4.709,-0.035 6.882,0.922 1.73,0.761 3.857,2.508 5.558,4.635 1.702,2.128 2.979,4.637 3.006,6.922 0,0.041 -0.024,0.069 -0.057,0.079 -0.031,0.011 -0.069,0.003 -0.093,-0.029 m 6.055,-37.234 0.322,3.17 0.324,3.17 c 0.012,0.125 -0.053,0.226 -0.147,0.277 -0.094,0.049 -0.214,0.049 -0.311,-0.03 l -0.801,-0.652 -0.802,-0.651 c -0.069,-0.057 -0.126,-0.126 -0.168,-0.205 -0.042,-0.077 -0.068,-0.163 -0.077,-0.251 l -0.231,-2.29 -0.231,-2.289 c -0.011,-0.108 0.021,-0.212 0.08,-0.295 0.061,-0.083 0.151,-0.144 0.258,-0.166 0.317,-0.066 0.628,-0.137 0.928,-0.212 0.299,-0.076 0.586,-0.154 0.856,-0.233 0.021,-0.006 0.038,10e-4 0.05,0.014 0.012,0.013 0.017,0.032 0.011,0.052 -0.03,0.091 -0.049,0.187 -0.06,0.287 -0.011,0.098 -0.011,0.201 -10e-4,0.304 m -3.747,-2.586 c 0.257,-0.229 0.633,-0.509 1.009,-0.782 0.377,-0.272 0.754,-0.536 1.015,-0.732 0.018,-0.014 0.041,-0.021 0.062,-0.02 0.022,0 0.044,0.008 0.063,0.023 0.265,0.21 0.544,0.387 0.833,0.531 0.288,0.143 0.586,0.252 0.891,0.327 0.026,0.006 0.039,0.026 0.04,0.047 0.001,0.021 -0.01,0.043 -0.034,0.052 -0.71,0.265 -1.335,0.486 -1.95,0.612 -0.616,0.126 -1.223,0.157 -1.899,0.044 -0.023,-0.005 -0.04,-0.021 -0.045,-0.042 -0.006,-0.02 -0.002,-0.043 0.015,-0.06 m 3.158,-3.905 c 0.272,-0.232 1.047,-0.762 1.829,-1.275 0.782,-0.512 1.569,-1.008 1.864,-1.172 0.015,-0.009 0.04,-0.01 0.061,-0.007 0.022,0.003 0.039,0.011 0.044,0.02 0.291,0.627 0.477,1.216 0.404,1.744 -0.074,0.528 -0.406,0.994 -1.15,1.374 -0.603,0.304 -1.156,0.412 -1.665,0.321 -0.51,-0.091 -0.976,-0.381 -1.405,-0.872 -0.01,-0.01 -0.013,-0.037 -0.01,-0.064 0.003,-0.027 0.013,-0.055 0.028,-0.069 m 7.518,2.344 1.655,2.294 1.654,2.294 c 0.02,0.026 0.033,0.055 0.041,0.087 0.006,0.031 0.008,0.063 0.002,0.095 l -0.218,1.344 -0.22,1.344 c -0.009,0.057 -0.051,0.095 -0.099,0.105 -0.047,0.012 -0.101,-0.003 -0.135,-0.05 l -1.973,-2.736 -1.973,-2.735 c -0.123,-0.17 -0.276,-0.305 -0.446,-0.403 -0.17,-0.099 -0.357,-0.163 -0.549,-0.187 -0.043,-0.005 -0.072,-0.035 -0.081,-0.069 -0.009,-0.034 0.003,-0.073 0.039,-0.096 0.332,-0.215 0.663,-0.439 0.991,-0.675 0.329,-0.235 0.654,-0.48 0.973,-0.734 0.026,-0.022 0.111,0.01 0.19,0.045 0.078,0.036 0.149,0.077 0.149,0.077 m -1.015,-2.698 c 0.072,-0.404 0.079,-0.796 0.033,-1.184 -0.045,-0.388 -0.146,-0.77 -0.292,-1.154 -0.002,-0.007 0.002,-0.023 0.01,-0.038 0.009,-0.016 0.02,-0.032 0.029,-0.037 0.466,-0.296 1.051,-0.56 1.63,-0.786 0.58,-0.225 1.153,-0.41 1.598,-0.546 0.015,-0.004 0.032,-0.003 0.046,0.001 0.013,0.004 0.021,0.012 0.018,0.02 -0.313,0.651 -0.745,1.301 -1.26,1.934 -0.515,0.632 -1.113,1.247 -1.762,1.827 -0.011,0.01 -0.025,0.009 -0.036,0.001 -0.01,-0.007 -0.017,-0.021 -0.014,-0.038 m -12.826,3.672 c -0.105,-0.289 -0.135,-0.589 -0.129,-0.894 0.006,-0.306 0.047,-0.614 0.082,-0.922 0.024,-0.217 0.047,-0.439 0.064,-0.666 0.016,-0.227 0.027,-0.459 0.024,-0.697 -0.012,-0.65 -0.35,-1.539 -0.814,-2.42 -0.465,-0.881 -1.056,-1.754 -1.574,-2.372 -2.132,-3.17 -2.907,-5.149 -2.875,-7.117 0.032,-1.968 0.869,-3.926 1.959,-7.052 0.011,-0.032 0.056,-0.056 0.105,-0.066 0.049,-0.01 0.102,-0.005 0.13,0.019 1.505,1.357 2.614,2.304 3.393,3.491 0.78,1.187 1.23,2.615 1.418,4.934 0.055,0.639 0,1.342 0.013,2.028 0.012,0.686 0.092,1.355 0.417,1.924 0.372,0.655 0.886,1.079 1.637,1.152 0.751,0.075 1.738,-0.201 3.056,-0.944 0.799,-0.448 1.444,-0.962 1.967,-1.57 0.524,-0.608 0.924,-1.311 1.236,-2.138 0.014,-0.039 0.056,-0.073 0.1,-0.091 0.044,-0.018 0.09,-0.021 0.11,0.004 0.533,0.617 1.056,1.05 1.64,1.4 0.584,0.351 1.228,0.62 1.998,0.91 0.305,0.114 0.604,0.227 0.876,0.345 0.274,0.119 0.522,0.243 0.727,0.381 0.023,0.016 0.012,0.053 -0.015,0.089 -0.027,0.035 -0.072,0.07 -0.116,0.083 -2.865,0.806 -5.91,1.997 -8.613,3.663 -2.705,1.667 -5.067,3.809 -6.569,6.518 -0.023,0.041 -0.077,0.064 -0.13,0.066 -0.051,10e-4 -0.101,-0.017 -0.117,-0.058 m -3.612,-33.424 c -0.3,0.299 -0.65,0.532 -1.032,0.692 -0.383,0.158 -0.798,0.242 -1.228,0.242 -0.427,0 -0.842,-0.084 -1.227,-0.243 -0.383,-0.16 -0.736,-0.395 -1.039,-0.697 -0.301,-0.298 -0.535,-0.648 -0.693,-1.029 -0.158,-0.382 -0.241,-0.795 -0.241,-1.222 0,-0.429 0.083,-0.844 0.241,-1.226 0.158,-0.382 0.392,-0.732 0.693,-1.03 0.303,-0.302 0.656,-0.536 1.039,-0.694 0.385,-0.158 0.8,-0.241 1.227,-0.241 0.43,0 0.845,0.083 1.228,0.241 0.382,0.158 0.732,0.392 1.032,0.694 0.299,0.281 0.534,0.641 0.694,1.032 0.16,0.392 0.246,0.815 0.246,1.224 0,0.424 -0.084,0.836 -0.244,1.218 -0.159,0.382 -0.394,0.735 -0.696,1.039 m 11.639,16.326 c -0.11,0.647 -0.217,1.238 -0.344,1.767 -0.128,0.529 -0.275,0.998 -0.463,1.401 -0.092,0.197 -0.383,0.606 -0.752,1.038 -0.37,0.433 -0.818,0.888 -1.224,1.18 -0.113,0.082 -0.251,0.083 -0.36,0.028 -0.109,-0.055 -0.189,-0.165 -0.189,-0.305 0,-0.332 0.014,-0.666 0.02,-1 0.006,-0.335 0.006,-0.67 -0.022,-1.005 -0.241,-2.906 -0.942,-4.856 -1.867,-6.321 -0.924,-1.466 -2.071,-2.448 -3.204,-3.42 -0.422,-0.36 -0.826,-0.709 -1.202,-1.08 -0.376,-0.37 -0.725,-0.761 -1.038,-1.202 -0.046,-0.066 -0.03,-0.14 0.014,-0.187 0.044,-0.047 0.117,-0.067 0.184,-0.024 0.659,0.414 1.349,0.812 2.094,1.346 0.745,0.534 1.546,1.205 2.425,2.164 0.051,0.055 0.12,0.054 0.171,0.022 0.05,-0.032 0.081,-0.096 0.052,-0.166 -0.374,-0.936 -0.819,-1.709 -1.305,-2.388 -0.486,-0.678 -1.013,-1.261 -1.553,-1.816 -0.026,-0.027 -0.022,-0.061 -0.002,-0.083 0.02,-0.021 0.053,-0.031 0.083,-0.009 1.056,0.76 2.065,1.452 3.148,2.356 1.083,0.905 2.24,2.021 3.587,3.628 0.048,0.058 0.12,0.061 0.172,0.033 0.053,-0.029 0.088,-0.089 0.065,-0.161 -0.185,-0.56 -0.414,-1.117 -0.68,-1.666 -0.265,-0.548 -0.565,-1.087 -0.891,-1.611 -0.034,-0.054 -0.019,-0.113 0.017,-0.15 0.037,-0.037 0.096,-0.052 0.15,-0.019 0.983,0.591 1.928,1.067 2.904,1.485 0.976,0.417 1.983,0.777 3.089,1.135 1.79,0.578 3.589,1.183 5.22,2.023 1.631,0.841 3.093,1.917 4.207,3.437 0.161,0.22 0.121,0.477 -0.02,0.649 -0.142,0.172 -0.387,0.26 -0.634,0.145 -0.168,-0.078 -0.338,-0.158 -0.511,-0.239 -0.173,-0.081 -0.348,-0.164 -0.526,-0.248 -1.199,-0.568 -2.477,-1.173 -3.7,-1.678 -1.224,-0.504 -2.393,-0.909 -3.374,-1.078 -0.999,-0.171 -1.852,-0.137 -2.495,0.175 -0.645,0.311 -1.081,0.902 -1.246,1.844 m -32.126,-3.962 c 1.572,-0.627 3.03,-1.314 4.434,-2.1 1.404,-0.785 2.754,-1.669 4.11,-2.687 0.196,-0.146 0.387,-0.293 0.576,-0.441 0.188,-0.147 0.374,-0.295 0.555,-0.444 0.056,-0.045 0.12,-0.032 0.16,0.007 0.039,0.039 0.054,0.103 0.009,0.16 -0.545,0.69 -1.065,1.431 -1.529,2.203 -0.465,0.772 -0.873,1.576 -1.193,2.391 -0.055,0.138 0.008,0.261 0.109,0.321 0.101,0.061 0.239,0.059 0.336,-0.053 1.117,-1.281 2.103,-2.227 3.033,-3.011 0.93,-0.785 1.803,-1.408 2.695,-2.044 0.063,-0.045 0.131,-0.026 0.171,0.019 0.039,0.045 0.05,0.115 -0.003,0.172 -0.391,0.427 -0.772,0.881 -1.13,1.387 -0.357,0.508 -0.692,1.068 -0.992,1.708 -0.074,0.159 -0.015,0.314 0.095,0.402 0.11,0.088 0.273,0.108 0.409,-0.002 0.575,-0.464 1.321,-1.04 2.085,-1.623 0.764,-0.584 1.546,-1.175 2.195,-1.669 0.133,-0.101 0.286,-0.067 0.379,0.026 0.094,0.092 0.128,0.244 0.027,0.376 -0.375,0.491 -0.786,0.945 -1.216,1.381 -0.431,0.436 -0.881,0.855 -1.334,1.275 -1.327,1.236 -2.675,2.488 -3.749,4.155 -1.074,1.666 -1.876,3.748 -2.111,6.643 -0.02,0.224 -0.028,0.449 -0.029,0.674 -0.001,0.224 0.004,0.448 0.01,0.672 0.006,0.268 -0.15,0.475 -0.358,0.568 -0.207,0.094 -0.466,0.075 -0.662,-0.109 -0.428,-0.404 -0.899,-0.906 -1.292,-1.357 -0.394,-0.451 -0.71,-0.85 -0.834,-1.046 -0.381,-0.612 -0.706,-1.27 -0.961,-1.937 -0.256,-0.666 -0.446,-1.341 -0.556,-1.985 -0.159,-0.928 -0.812,-1.325 -1.78,-1.346 -0.97,-0.02 -2.256,0.336 -3.685,0.917 -0.745,0.299 -1.562,0.657 -2.392,1.037 -0.829,0.379 -1.669,0.78 -2.461,1.167 -0.187,0.091 -0.373,0.028 -0.484,-0.1 -0.111,-0.128 -0.145,-0.322 -0.027,-0.493 1.093,-1.569 2.335,-2.632 3.606,-3.422 1.273,-0.792 2.574,-1.311 3.784,-1.792 m 4.374,11.812 c 0.25,0.227 0.505,0.437 0.76,0.626 0.255,0.188 0.51,0.356 0.762,0.5 1.318,0.745 2.308,1.022 3.061,0.948 0.752,-0.075 1.269,-0.501 1.644,-1.163 0.314,-0.56 0.394,-1.228 0.408,-1.916 0.014,-0.687 -0.037,-1.394 0.016,-2.029 0.211,-2.593 1.043,-4.406 2.078,-5.757 1.036,-1.351 2.275,-2.24 3.301,-2.985 0.167,-0.122 0.364,-0.099 0.501,0.004 0.136,0.102 0.214,0.284 0.142,0.479 -0.861,2.366 -1.14,4.392 -0.858,6.432 0.283,2.039 1.127,4.092 2.514,6.509 0.023,0.041 0.035,0.087 0.035,0.132 10e-4,0.046 -0.011,0.091 -0.034,0.132 -0.423,0.741 -0.955,1.737 -1.377,2.686 -0.423,0.95 -0.738,1.853 -0.726,2.411 0.006,0.295 0.043,0.622 0.098,0.969 0.054,0.347 0.126,0.713 0.198,1.091 0.051,0.261 0.105,0.547 0.157,0.843 0.051,0.295 0.099,0.598 0.133,0.895 0.007,0.057 -0.025,0.101 -0.068,0.12 -0.043,0.02 -0.098,0.014 -0.136,-0.029 -0.314,-0.353 -0.688,-0.737 -1.135,-1.159 -0.446,-0.421 -0.967,-0.879 -1.57,-1.378 -1.046,-0.861 -2.132,-1.669 -3.051,-2.307 -0.92,-0.638 -1.672,-1.108 -2.049,-1.296 -1.64,-0.824 -2.988,-1.346 -4.283,-1.704 -1.294,-0.358 -2.536,-0.551 -3.964,-0.715 -0.044,-0.005 -0.076,-0.034 -0.09,-0.069 -0.013,-0.036 -0.008,-0.079 0.023,-0.11 0.401,-0.406 0.865,-0.786 1.345,-1.156 0.481,-0.369 0.977,-0.728 1.441,-1.09 0.058,-0.046 0.207,-0.053 0.357,-0.035 0.151,0.019 0.302,0.063 0.367,0.121 m 7.228,10.644 c 0.512,0.375 1.041,0.77 1.555,1.161 0.513,0.392 1.011,0.781 1.461,1.148 0.053,0.043 0.064,0.108 0.044,0.162 -0.021,0.052 -0.073,0.094 -0.141,0.092 -0.948,-0.044 -1.987,-0.223 -3.009,-0.491 -1.021,-0.266 -2.023,-0.622 -2.895,-1.019 -0.054,-0.025 -0.076,-0.076 -0.068,-0.123 0.007,-0.048 0.041,-0.091 0.1,-0.099 0.405,-0.055 0.822,-0.153 1.248,-0.295 0.426,-0.142 0.86,-0.327 1.299,-0.555 0.036,-0.019 0.122,-0.026 0.206,-0.022 0.085,0.004 0.169,0.019 0.2,0.041 m -4.567,-1.64 c -0.437,-0.225 -0.722,-0.662 -0.901,-1.168 -0.178,-0.505 -0.25,-1.08 -0.258,-1.583 -0.002,-0.101 0.048,-0.187 0.123,-0.237 0.073,-0.051 0.17,-0.067 0.264,-0.029 0.291,0.118 0.59,0.247 0.902,0.389 0.31,0.142 0.631,0.296 0.967,0.464 0.145,0.074 0.4,0.225 0.732,0.437 0.332,0.212 0.742,0.486 1.199,0.807 0.093,0.065 0.136,0.169 0.129,0.27 -0.007,0.101 -0.063,0.198 -0.164,0.25 -0.6,0.307 -1.171,0.497 -1.68,0.566 -0.51,0.069 -0.958,0.016 -1.313,-0.166 m -3.459,-2.548 c 0.024,0.27 0.066,0.664 0.122,1.05 0.055,0.387 0.125,0.767 0.204,1.011 0.02,0.065 -0.005,0.122 -0.05,0.153 -0.045,0.032 -0.108,0.038 -0.161,-0.003 -0.696,-0.54 -1.344,-1.099 -1.895,-1.656 -0.55,-0.556 -1.005,-1.109 -1.314,-1.635 -0.031,-0.053 -0.02,-0.11 0.014,-0.149 0.033,-0.039 0.089,-0.06 0.147,-0.039 0.39,0.143 0.806,0.282 1.231,0.418 0.427,0.136 0.865,0.269 1.296,0.397 0.064,0.019 0.161,0.086 0.245,0.172 0.083,0.085 0.152,0.189 0.161,0.281 m 29.74,4.416 c 0.121,-0.06 0.243,-0.121 0.366,-0.184 0.122,-0.063 0.246,-0.127 0.369,-0.193 0.035,-0.019 0.067,-0.009 0.083,0.017 0.018,0.026 0.022,0.066 0.005,0.108 -0.091,0.223 -0.126,0.467 -0.099,0.709 0.026,0.241 0.113,0.48 0.264,0.693 l 2.901,4.016 2.9,4.015 c 0.012,0.016 0.02,0.034 0.024,0.053 0.005,0.02 0.005,0.039 0.002,0.059 l -0.015,0.097 -0.017,0.099 c -0.005,0.028 -0.018,0.053 -0.039,0.07 -0.019,0.018 -0.046,0.028 -0.074,0.029 -0.834,0.033 -1.649,0.198 -2.416,0.485 -0.769,0.287 -1.49,0.695 -2.142,1.213 -0.054,0.043 -0.118,0.064 -0.183,0.065 -0.065,0 -0.13,-0.021 -0.183,-0.065 l -0.029,-0.024 -0.029,-0.023 c -0.027,-0.023 -0.048,-0.05 -0.065,-0.08 -0.017,-0.031 -0.026,-0.064 -0.03,-0.099 l -0.5,-4.903 -0.499,-4.904 c -0.024,-0.224 -0.096,-0.432 -0.206,-0.612 -0.112,-0.18 -0.26,-0.334 -0.436,-0.45 -0.025,-0.017 -0.031,-0.056 -0.021,-0.096 0.009,-0.04 0.034,-0.079 0.069,-0.095 m 2.161,16.583 c 0.106,-0.642 0.331,-1.244 0.664,-1.781 0.332,-0.536 0.772,-1.007 1.3,-1.387 0.493,-0.355 1.101,-0.631 1.737,-0.788 0.635,-0.157 1.297,-0.193 1.899,-0.065 0.644,0.104 1.249,0.33 1.787,0.662 0.538,0.332 1.01,0.771 1.389,1.299 0.381,0.527 0.646,1.112 0.788,1.725 0.143,0.613 0.166,1.254 0.061,1.895 -0.215,1.317 -0.945,2.425 -1.953,3.152 -1.008,0.728 -2.293,1.075 -3.617,0.869 -1.333,-0.264 -2.458,-0.975 -3.195,-1.962 -0.736,-0.988 -1.084,-2.25 -0.86,-3.619 M -75.026,-2.793 c 0.068,0.078 0.147,0.15 0.238,0.215 0.092,0.066 0.194,0.125 0.309,0.179 0.627,0.299 1.466,0.036 2.304,-0.38 0.838,-0.416 1.675,-0.986 2.296,-1.303 0.868,-0.432 1.873,-0.922 2.9,-1.401 1.027,-0.479 2.075,-0.945 3.031,-1.331 0.475,-0.194 0.928,-0.364 1.28,-0.382 0.352,-0.018 0.602,0.115 0.671,0.527 0.09,0.519 0.273,1.064 0.525,1.611 0.252,0.547 0.573,1.095 0.939,1.62 -0.195,0.163 -0.396,0.321 -0.598,0.477 -0.202,0.156 -0.407,0.31 -0.61,0.463 -1.101,0.831 -2.154,1.668 -2.835,2.657 -0.683,0.99 -0.994,2.131 -0.614,3.572 0.02,0.078 -0.016,0.145 -0.073,0.179 -0.055,0.034 -0.132,0.034 -0.192,-0.02 -1.739,-1.58 -4.114,-2.378 -6.566,-2.525 -2.451,-0.147 -4.979,0.358 -7.027,1.386 -0.093,0.047 -0.188,0.02 -0.247,-0.041 -0.059,-0.061 -0.083,-0.157 -0.032,-0.248 0.538,-0.967 1.081,-1.875 1.683,-2.738 0.603,-0.862 1.264,-1.68 2.04,-2.467 0.062,-0.062 0.185,-0.098 0.303,-0.108 0.119,-0.008 0.233,0.01 0.275,0.058 m -8.832,31.657 c 1.887,2.936 4.419,5.615 7.384,7.809 2.966,2.195 6.367,3.905 9.994,4.904 0.082,0.022 0.141,0.081 0.168,0.151 0.028,0.071 0.024,0.154 -0.02,0.227 -1.4,2.302 -1.949,4.958 -1.666,7.564 0.283,2.606 1.399,5.162 3.327,7.265 0.024,0.025 0.028,0.045 0.021,0.055 -0.009,0.01 -0.031,0.008 -0.061,-0.01 -1.452,-0.854 -2.856,-1.802 -4.202,-2.841 -1.346,-1.04 -2.635,-2.172 -3.858,-3.394 -2.986,-2.979 -5.444,-6.345 -7.329,-9.983 -1.883,-3.639 -3.193,-7.551 -3.881,-11.626 -0.012,-0.071 0.002,-0.126 0.028,-0.152 0.026,-0.025 0.062,-0.019 0.095,0.031 m 30.492,32.391 c 1.675,-0.204 3.235,-0.798 4.515,-1.798 1.282,-1 2.283,-2.405 2.838,-4.233 0.645,-2.123 0.266,-4.427 -0.883,-6.194 -1.15,-1.767 -3.069,-2.998 -5.505,-2.979 -0.855,-0.003 -1.92,0.37 -2.698,1.021 -0.778,0.65 -1.267,1.579 -0.967,2.687 0.141,0.533 0.469,0.961 0.879,1.236 0.41,0.275 0.901,0.397 1.368,0.319 0.673,-0.112 1.023,-0.301 1.302,-0.571 0.28,-0.27 0.489,-0.623 0.881,-1.064 0.041,-0.045 0.096,-0.069 0.153,-0.072 0.055,-0.003 0.112,0.016 0.155,0.058 0.898,0.885 1.589,1.955 1.603,3.122 0.015,1.167 -0.646,2.43 -2.45,3.702 -0.971,0.574 -2.335,0.738 -3.691,0.613 -1.357,-0.126 -2.704,-0.54 -3.639,-1.124 -1.278,-0.792 -2.305,-1.806 -3.061,-2.93 -0.757,-1.124 -1.244,-2.358 -1.441,-3.591 -0.153,-0.936 -0.149,-2.243 0.043,-3.502 0.192,-1.258 0.57,-2.469 1.165,-3.215 0.063,-0.078 0.145,-0.135 0.236,-0.168 0.09,-0.034 0.19,-0.042 0.289,-0.026 2.255,0.381 5.345,0.956 8.334,1.648 2.987,0.692 5.873,1.5 7.718,2.344 3.28,1.358 5.295,3.739 6.431,6.488 1.135,2.75 1.39,5.868 1.145,8.701 -0.004,0.064 -0.033,0.123 -0.076,0.168 -0.042,0.045 -0.099,0.075 -0.164,0.084 -2.412,0.324 -4.851,0.433 -7.281,0.325 -2.43,-0.107 -4.85,-0.432 -7.223,-0.974 -0.036,-0.007 -0.049,-0.024 -0.045,-0.04 0.005,-0.015 0.03,-0.03 0.069,-0.035 m 36.859,-99.289 c 1.124,-1.053 1.544,-1.997 1.319,-2.808 -0.225,-0.812 -1.095,-1.491 -2.55,-2.013 -4.261,-1.52 -8.167,-0.693 -11.587,1.293 -3.42,1.987 -6.354,5.133 -8.67,8.249 -0.038,0.052 -0.057,0.114 -0.055,0.175 10e-4,0.061 0.023,0.121 0.064,0.172 l 0.358,0.44 0.358,0.442 c 0.032,0.038 0.069,0.069 0.112,0.092 0.042,0.023 0.089,0.037 0.137,0.041 2.127,0.178 6.257,-0.407 10.355,-1.504 4.098,-1.097 8.162,-2.707 10.159,-4.579 m -0.421,3.81 c -2.375,1.314 -5.734,2.51 -9.195,3.404 -3.461,0.894 -7.024,1.486 -9.808,1.59 -0.155,0.006 -0.253,0.116 -0.276,0.24 -0.022,0.123 0.029,0.26 0.174,0.319 0.763,0.315 2.235,0.286 3.789,0.127 1.555,-0.159 3.19,-0.448 4.283,-0.652 0.128,-0.025 0.226,0.049 0.264,0.147 0.038,0.097 0.016,0.218 -0.094,0.288 -1.282,0.81 -2.486,1.36 -3.693,1.729 -1.207,0.369 -2.417,0.556 -3.711,0.639 -0.124,0.009 -0.198,0.098 -0.211,0.196 -0.014,0.098 0.033,0.203 0.15,0.244 1.437,0.495 2.178,0.778 3.097,1.009 0.919,0.231 2.015,0.41 4.164,0.697 0.131,0.017 0.202,0.119 0.209,0.224 0.007,0.106 -0.051,0.216 -0.179,0.25 -1.645,0.433 -3.097,0.585 -4.499,0.527 -1.401,-0.058 -2.753,-0.327 -4.197,-0.738 -0.062,-0.018 -0.113,0.012 -0.138,0.058 -0.024,0.045 -0.021,0.105 0.027,0.147 0.78,0.679 1.416,1.216 2.112,1.724 0.695,0.508 1.451,0.987 2.471,1.549 1.55,0.8 3.101,1.453 4.674,2.026 1.575,0.573 3.17,1.066 4.811,1.547 0.993,0.239 1.981,0.52 2.921,0.693 0.938,0.173 1.827,0.238 2.62,0.044 0.862,-0.211 1.592,-0.58 2.195,-1.113 0.605,-0.533 1.083,-1.231 1.447,-2.101 0.157,-0.383 0.145,-0.786 -0.042,-1.385 -0.186,-0.599 -0.548,-1.394 -1.091,-2.56 -0.273,-0.586 -0.579,-1.243 -0.909,-1.988 -0.332,-0.745 -0.685,-1.577 -1.054,-2.514 -0.356,-0.908 -0.45,-1.904 -0.382,-2.934 0.067,-1.029 0.298,-2.092 0.592,-3.131 0.035,-0.123 -0.03,-0.234 -0.137,-0.297 -0.106,-0.062 -0.254,-0.077 -0.384,-0.005 m -55.569,-0.668 c 0.392,1.21 0.714,2.374 0.831,3.507 0.117,1.134 0.03,2.237 -0.397,3.325 -0.369,0.94 -0.723,1.775 -1.054,2.522 -0.331,0.747 -0.639,1.406 -0.914,1.991 -0.703,1.515 -1.207,3.006 -0.996,4.245 0.212,1.239 1.137,2.227 3.296,2.735 2.73,0.643 6.423,-0.467 9.949,-2.1 3.526,-1.632 6.885,-3.789 8.946,-5.241 0.03,-0.021 0.034,-0.055 0.022,-0.08 -0.013,-0.027 -0.042,-0.045 -0.079,-0.036 -1.38,0.368 -2.69,0.597 -4.055,0.623 -1.365,0.025 -2.786,-0.151 -4.394,-0.594 -0.108,-0.03 -0.159,-0.123 -0.154,-0.214 0.005,-0.09 0.063,-0.177 0.176,-0.194 1.025,-0.159 2.721,-0.438 4.311,-0.761 1.59,-0.323 3.071,-0.689 3.669,-1.023 0.069,-0.038 0.088,-0.11 0.069,-0.171 -0.019,-0.06 -0.076,-0.108 -0.155,-0.102 -1.449,0.129 -2.797,0.13 -4.163,-0.085 -1.367,-0.214 -2.754,-0.645 -4.281,-1.377 -0.096,-0.046 -0.127,-0.141 -0.107,-0.223 0.02,-0.083 0.09,-0.152 0.196,-0.149 1.094,0.043 2.911,0.091 4.607,0.031 1.697,-0.06 3.275,-0.229 3.89,-0.621 0.075,-0.048 0.097,-0.13 0.077,-0.2 -0.02,-0.07 -0.08,-0.128 -0.17,-0.127 -3.321,0.027 -6.897,-0.197 -10.236,-1.057 -3.34,-0.86 -6.444,-2.356 -8.822,-4.87 -0.036,-0.038 -0.066,-0.024 -0.087,0 -0.023,0.024 -0.036,0.058 -0.036,0.058 l 0.031,0.094 z m 0.452,-4.702 c 1.525,3.435 4.935,5.267 8.723,6.266 3.789,0.998 7.957,1.163 11.003,1.263 0.07,0.002 0.138,-0.012 0.2,-0.04 0.061,-0.028 0.117,-0.07 0.161,-0.125 0.105,-0.129 0.216,-0.26 0.325,-0.394 0.109,-0.134 0.216,-0.271 0.316,-0.412 0.058,-0.083 0.094,-0.178 0.106,-0.277 0.012,-0.098 -0.002,-0.199 -0.041,-0.293 -0.762,-1.836 -1.959,-3.55 -3.493,-5.022 -1.534,-1.472 -3.403,-2.7 -5.51,-3.565 -1.504,-0.618 -5.108,-1.358 -8.008,-1.249 -2.899,0.11 -5.095,1.069 -3.782,3.848 m 56.137,90.188 c -2.567,2.558 -5.415,4.727 -8.476,6.48 -3.061,1.752 -6.335,3.088 -9.751,3.976 -0.053,0.014 -0.104,-10e-4 -0.14,-0.033 -0.038,-0.031 -0.059,-0.08 -0.052,-0.135 0.267,-2.16 0.528,-4.997 0.444,-8.017 -0.084,-3.02 -0.513,-6.223 -1.623,-9.117 -0.334,-0.869 -0.777,-1.724 -1.304,-2.55 -0.526,-0.827 -1.134,-1.623 -1.797,-2.375 -0.042,-0.048 -0.069,-0.106 -0.079,-0.166 -0.008,-0.061 -10e-4,-0.124 0.026,-0.182 l 1.042,-2.314 1.043,-2.315 c 0.017,-0.038 0.041,-0.071 0.07,-0.099 0.03,-0.028 0.065,-0.049 0.104,-0.064 l 2.402,-0.91 c 0.054,-0.021 0.107,-0.004 0.141,0.032 0.034,0.036 0.047,0.09 0.024,0.143 l -1.385,3.068 -1.385,3.067 c -0.165,0.366 -0.167,0.765 -0.035,1.114 0.133,0.348 0.399,0.647 0.768,0.813 0.365,0.165 0.764,0.166 1.111,0.034 0.348,-0.132 0.646,-0.397 0.811,-0.765 l 2.025,-4.486 2.026,-4.484 c 0.016,-0.035 0.039,-0.066 0.066,-0.093 0.027,-0.025 0.061,-0.046 0.097,-0.059 l 0.108,-0.04 0.109,-0.04 c 0.049,-0.019 0.102,-0.019 0.149,-0.003 0.046,0.016 0.088,0.047 0.116,0.091 0.435,0.667 0.97,1.267 1.588,1.776 0.618,0.51 1.32,0.928 2.088,1.23 0.033,0.014 0.059,0.037 0.076,0.067 0.017,0.029 0.023,0.063 0.018,0.098 l -0.025,0.151 -0.025,0.149 c -0.006,0.032 -0.018,0.064 -0.034,0.091 -0.018,0.028 -0.04,0.053 -0.068,0.071 l -4.009,2.886 -4.008,2.885 c -0.327,0.235 -0.527,0.58 -0.586,0.948 -0.061,0.367 0.019,0.758 0.255,1.082 0.234,0.325 0.58,0.525 0.948,0.586 0.368,0.06 0.759,-0.02 1.084,-0.255 l 2.688,-1.933 2.689,-1.932 c 0.067,-0.048 0.146,-0.044 0.205,-0.007 0.058,0.036 0.098,0.105 0.085,0.187 l -0.203,1.235 -0.202,1.236 c -0.006,0.032 -0.017,0.063 -0.035,0.09 -0.016,0.026 -0.038,0.051 -0.065,0.069 l -5.196,3.742 c -0.329,0.234 -0.531,0.578 -0.592,0.945 -0.061,0.367 0.019,0.757 0.255,1.085 0.234,0.325 0.58,0.525 0.949,0.585 0.369,0.06 0.761,-0.02 1.089,-0.254 l 1.388,-0.997 1.387,-0.996 c 0.026,-0.019 0.057,-0.018 0.079,-0.003 0.024,0.013 0.038,0.041 0.034,0.072 l -0.209,1.278 -0.21,1.278 c -0.073,0.447 0.063,0.871 0.33,1.182 0.266,0.312 0.663,0.512 1.11,0.512 0.352,0 0.681,-0.128 0.938,-0.345 0.257,-0.216 0.442,-0.522 0.502,-0.879 l 0.219,-1.354 0.219,-1.355 c 0.005,-0.031 0.027,-0.051 0.054,-0.057 0.026,-0.006 0.055,0.002 0.074,0.027 l 1.064,1.471 1.066,1.472 c 0.235,0.327 0.58,0.527 0.948,0.586 0.368,0.06 0.759,-0.021 1.084,-0.256 0.325,-0.235 0.526,-0.58 0.586,-0.948 0.06,-0.368 -0.02,-0.758 -0.255,-1.083 l -1.931,-2.676 -1.931,-2.677 c -0.021,-0.028 -0.035,-0.061 -0.043,-0.094 -0.008,-0.033 -0.009,-0.068 -0.003,-0.102 l 0.206,-1.276 0.207,-1.276 c 0.007,-0.038 0.034,-0.063 0.066,-0.07 0.032,-0.008 0.068,10e-4 0.09,0.034 l 2.004,2.777 2.003,2.778 c 0.235,0.326 0.581,0.524 0.949,0.582 0.368,0.06 0.759,-0.022 1.084,-0.256 0.328,-0.236 0.529,-0.58 0.588,-0.947 0.06,-0.366 -0.021,-0.757 -0.257,-1.085 l -2.889,-4.005 -2.891,-4.004 c -0.017,-0.024 -0.027,-0.049 -0.034,-0.077 -0.006,-0.026 -0.007,-0.054 -0.002,-0.082 l 0.026,-0.154 0.027,-0.153 c 0.005,-0.033 0.022,-0.061 0.045,-0.08 0.024,-0.021 0.053,-0.033 0.086,-0.034 0.839,-0.026 1.656,-0.188 2.421,-0.468 0.766,-0.282 1.482,-0.68 2.12,-1.178 0.034,-0.026 0.075,-0.039 0.115,-0.039 0.041,0 0.081,0.015 0.114,0.042 l 0.103,0.085 0.104,0.085 c 0.016,0.013 0.029,0.031 0.04,0.05 0.01,0.018 0.016,0.039 0.018,0.06 l 0.496,4.921 0.496,4.922 c 0.041,0.399 0.241,0.746 0.531,0.983 0.29,0.237 0.669,0.363 1.066,0.322 0.401,-0.04 0.748,-0.24 0.985,-0.528 0.237,-0.289 0.363,-0.668 0.322,-1.068 l -0.341,-3.383 -0.342,-3.384 c -0.004,-0.047 0.02,-0.085 0.055,-0.103 0.035,-0.019 0.08,-0.019 0.117,0.011 l 1.04,0.846 1.041,0.846 c 0.061,0.05 0.111,0.11 0.147,0.179 0.036,0.067 0.059,0.142 0.066,0.22 0.063,0.705 0.163,2.062 0.283,3.369 0.121,1.307 0.26,2.565 0.401,3.07 0.014,0.05 0.015,0.101 0.006,0.151 -0.009,0.05 -0.029,0.098 -0.058,0.141 -0.699,1.016 -1.447,2.006 -2.244,2.964 -0.796,0.957 -1.642,1.882 -2.534,2.772"
         style="fill:none;stroke:#ff0000;stroke-width:0.38px"
         id="path198" />
    </g>
  </g>
</svg>
