<?xml version="1.0" encoding="UTF-8" standalone="no"?>
<!-- Created with Inkscape (http://www.inkscape.org/) -->

<svg
   width="64.080498mm"
   height="80.041046mm"
   viewBox="0 0 64.080497 80.041046"
   version="1.1"
   id="svg291"
   xmlns="http://www.w3.org/2000/svg"
   xmlns:svg="http://www.w3.org/2000/svg">
  <defs
     id="defs288" />
  <g
     id="layer1"
     transform="translate(-179.42162,-108.60744)">
    <g
       transform="matrix(0.70555643,0,0,0.70555643,229.77168,166.62736)"
       id="g184"
       style="clip-rule:evenodd;fill-rule:evenodd;stroke-linejoin:round;stroke-miterlimit:2">
      <path
         d="m 0,-51.348 c 1.4,-0.085 2.833,-0.562 4.062,-1.373 1.229,-0.811 2.256,-1.957 2.847,-3.381 0.425,-1.016 0.218,-1.967 -0.372,-3.368 -0.589,-1.4 -1.561,-3.251 -2.667,-6.065 -0.474,-1.205 -0.337,-2.709 0.03,-4.253 0.368,-1.544 0.967,-3.128 1.417,-4.491 1.757,-5.331 -2.849,-7.888 -8.631,-7.532 -5.782,0.356 -12.738,3.625 -15.68,9.946 -0.045,0.098 -0.131,0.159 -0.227,0.179 -0.095,0.019 -0.199,-0.003 -0.281,-0.073 -0.749,-0.646 -1.598,-1.145 -2.509,-1.483 -0.911,-0.338 -1.885,-0.515 -2.885,-0.515 -0.969,0 -1.916,0.167 -2.804,0.488 -0.889,0.32 -1.72,0.794 -2.46,1.408 -0.098,0.081 -0.22,0.105 -0.331,0.081 -0.111,-0.025 -0.211,-0.098 -0.264,-0.213 -2.917,-6.355 -9.885,-9.647 -15.682,-10.015 -5.797,-0.367 -10.424,2.189 -8.66,7.529 0.451,1.362 1.05,2.945 1.418,4.49 0.367,1.544 0.504,3.049 0.03,4.253 -1.106,2.812 -2.078,4.66 -2.668,6.061 -0.59,1.4 -0.798,2.35 -0.376,3.366 0.66,1.591 1.628,2.625 2.803,3.224 1.176,0.599 2.561,0.763 4.058,0.615 0.015,-10e-4 0.025,0.007 0.029,0.018 0.003,0.011 0,0.024 -0.011,0.032 -4.181,2.579 -7.873,5.794 -10.966,9.529 -3.094,3.735 -5.59,7.99 -7.378,12.647 -2.159,5.626 -3.156,11.502 -2.998,17.348 0.158,5.846 1.47,11.661 3.928,17.163 3.654,8.17 9.549,14.862 16.747,19.509 7.197,4.647 15.695,7.251 24.552,7.245 3.133,0 6.262,-0.328 9.344,-0.984 3.081,-0.656 6.115,-1.641 9.06,-2.951 5.513,-2.454 10.382,-5.906 14.414,-10.152 4.03,-4.246 7.222,-9.284 9.382,-14.91 3.729,-9.705 3.89,-20.055 0.989,-29.451 -2.902,-9.397 -8.864,-17.84 -17.383,-23.731 -0.043,-0.03 -0.044,-0.075 -0.019,-0.114 0.027,-0.039 0.079,-0.072 0.142,-0.076 m -0.862,-24.618 c 0.732,1.439 0.374,3.304 -1.634,4.766 -2.009,1.463 -5.667,2.525 -11.536,2.357 -0.162,-0.005 -0.294,-0.093 -0.366,-0.217 -0.074,-0.123 -0.086,-0.281 -0.012,-0.425 2.697,-5.19 5.687,-7.586 8.201,-8.296 2.514,-0.71 4.552,0.265 5.347,1.815 m -16.602,14.611 c 0.454,0.378 1.055,0.921 1.748,1.534 0.694,0.613 1.479,1.297 2.303,1.957 0.088,0.071 0.096,0.176 0.055,0.256 -0.042,0.08 -0.133,0.135 -0.242,0.104 -0.715,-0.205 -1.435,-0.391 -2.157,-0.559 -0.721,-0.168 -1.445,-0.318 -2.171,-0.45 -0.062,-0.012 -0.116,-0.045 -0.153,-0.091 -0.037,-0.047 -0.059,-0.107 -0.057,-0.17 0.015,-0.517 -0.002,-0.929 0.034,-1.325 0.036,-0.395 0.124,-0.775 0.349,-1.229 0.015,-0.03 0.07,-0.051 0.131,-0.057 0.061,-0.006 0.126,0.002 0.16,0.03 m -12.515,26.298 c 1.081,0.668 1.566,1.202 1.932,1.878 0.366,0.676 0.613,1.496 1.216,2.735 0.716,0.886 1.309,1.118 1.832,1.208 0.523,0.09 0.977,0.036 1.413,0.352 0.642,0.473 0.635,1.151 0.333,1.692 -0.302,0.542 -0.898,0.947 -1.437,0.873 -0.064,-0.008 -0.11,-0.053 -0.126,-0.107 -0.018,-0.054 -0.008,-0.117 0.039,-0.163 0.09,-0.089 0.183,-0.211 0.217,-0.375 0.034,-0.163 0.008,-0.368 -0.14,-0.623 -0.112,-0.187 -0.269,-0.352 -0.464,-0.456 -0.196,-0.105 -0.432,-0.15 -0.702,-0.095 -0.574,0.116 -0.772,0.588 -0.672,1.107 0.1,0.521 0.497,1.089 1.113,1.402 0.021,0.01 0.029,0.03 0.027,0.049 -0.002,0.018 -0.015,0.035 -0.039,0.04 -0.905,0.187 -1.72,0.721 -2.365,1.411 -0.643,0.689 -1.117,1.535 -1.338,2.348 -0.451,1.65 -0.071,3.57 1.037,4.96 1.109,1.39 2.946,2.251 5.411,1.781 0.031,-0.006 0.054,0.012 0.062,0.037 0.008,0.023 10e-4,0.052 -0.027,0.067 -0.397,0.196 -0.798,0.356 -1.232,0.482 -0.433,0.125 -0.898,0.215 -1.42,0.275 -0.994,0.112 -2.084,-0.047 -3.089,-0.097 -1.007,-0.049 -1.931,0.011 -2.591,0.562 -1.203,1.017 -1.208,2.111 -0.466,2.846 0.743,0.736 2.233,1.113 4.021,0.698 0.035,-0.008 0.062,0.01 0.075,0.035 0.012,0.025 0.01,0.058 -0.016,0.081 -0.233,0.201 -0.448,0.415 -0.637,0.639 -0.188,0.222 -0.351,0.455 -0.482,0.693 -0.017,0.031 -0.042,0.057 -0.072,0.074 -0.03,0.018 -0.064,0.027 -0.1,0.025 -0.733,-0.04 -1.312,-0.319 -1.858,-0.636 -0.547,-0.318 -1.062,-0.676 -1.665,-0.875 -2.93,-0.955 -5.604,-0.68 -7.973,-0.426 -2.369,0.254 -4.435,0.486 -6.147,-0.555 -0.928,-0.567 -1.834,-1.411 -2.385,-2.237 -0.552,-0.825 -0.75,-1.634 -0.269,-2.129 0.041,-0.042 0.095,-0.068 0.151,-0.076 0.057,-0.009 0.117,0.001 0.168,0.028 0.87,0.466 1.242,0.931 1.555,1.322 0.314,0.39 0.568,0.708 1.2,0.878 0.629,0.169 1.03,0.18 1.349,0.078 0.319,-0.103 0.558,-0.32 0.862,-0.607 0.348,-0.329 0.718,-0.739 0.742,-1.392 0.024,-0.654 -0.299,-1.55 -1.339,-2.853 -0.245,-0.307 -0.478,-0.672 -0.61,-1.162 -0.131,-0.49 -0.16,-1.107 0.007,-1.919 0.096,-0.477 0.518,-0.575 1.044,-0.686 0.525,-0.113 1.156,-0.238 1.67,-0.771 0.014,-0.014 0.03,-0.02 0.048,-0.021 0.017,0 0.034,0.006 0.047,0.021 0.92,1.022 2.576,2.309 4.559,2.855 1.984,0.548 4.293,0.356 6.521,-1.582 1.631,-1.419 2.475,-3.68 2.616,-6.167 0.141,-2.486 -0.422,-5.199 -1.606,-7.522 m 12.346,16.094 c -0.804,0.561 -2.258,1.266 -3.772,1.53 -1.516,0.264 -3.092,0.084 -4.139,-1.123 -0.767,-0.884 -1.171,-2.027 -1.157,-3.071 0.014,-1.044 0.444,-1.99 1.347,-2.478 0.421,-0.23 0.801,-0.207 1.117,-0.069 0.314,0.137 0.565,0.388 0.727,0.614 0.027,0.037 0.022,0.081 -10e-4,0.111 -0.021,0.031 -0.061,0.048 -0.105,0.035 -0.213,-0.071 -0.415,-0.067 -0.602,0 -0.186,0.066 -0.357,0.196 -0.505,0.377 -0.273,0.338 -0.237,0.75 -0.007,1.057 0.23,0.307 0.654,0.509 1.156,0.429 0.589,-0.089 0.988,-0.443 1.192,-0.904 0.203,-0.463 0.212,-1.036 0.02,-1.563 -0.123,-0.34 -0.304,-0.619 -0.535,-0.845 -0.232,-0.226 -0.513,-0.399 -0.834,-0.525 -0.019,-0.007 -0.027,-0.023 -0.025,-0.039 0.001,-0.016 0.013,-0.03 0.032,-0.033 0.703,-0.103 1.285,-0.446 1.725,-0.941 0.44,-0.495 0.739,-1.141 0.876,-1.853 0.004,-0.02 0.016,-0.036 0.031,-0.046 0.016,-0.011 0.035,-0.015 0.055,-0.01 2.878,0.67 3.937,1.816 4.476,3.036 0.54,1.221 0.561,2.516 1.362,3.488 0.36,0.436 0.776,0.84 1.254,1.208 0.477,0.368 1.015,0.699 1.621,0.99 0.024,0.011 0.03,0.036 0.024,0.055 -0.007,0.021 -0.026,0.037 -0.053,0.031 -0.691,-0.15 -1.418,-0.414 -2.071,-0.675 -0.653,-0.26 -1.233,-0.517 -1.632,-0.651 -3.753,-1.263 -5.137,-0.979 -5.092,-0.311 0.045,0.668 1.521,1.72 3.489,1.992 0.039,0.005 0.064,0.038 0.07,0.076 0.007,0.038 -0.006,0.081 -0.044,0.108 m -32.61,-6.329 c -0.104,-0.324 -0.124,-0.597 -0.043,-0.972 0.081,-0.375 0.265,-0.853 0.568,-1.583 0.019,-0.046 0.059,-0.07 0.102,-0.074 0.042,-0.004 0.086,0.014 0.111,0.056 0.327,0.531 0.563,0.965 0.71,1.362 0.148,0.397 0.208,0.755 0.184,1.131 -0.28,-0.113 -0.614,-0.102 -0.915,-0.059 -0.302,0.043 -0.571,0.119 -0.717,0.139 m 18.128,-3.689 c -2.479,1.299 -3.09,2.654 -3.422,3.686 -0.332,1.031 -0.384,1.741 -1.742,1.753 -1.063,0.008 -2.251,-0.356 -3.173,-0.937 -0.922,-0.581 -1.577,-1.378 -1.571,-2.236 0,-0.267 0.21,-0.206 0.443,-0.066 0.231,0.141 0.484,0.362 0.567,0.416 1.138,0.748 2.116,0.087 2.409,-0.88 0.294,-0.967 -0.096,-2.242 -1.696,-2.717 -1.543,-0.459 -2.725,0.162 -3.321,1.218 -0.595,1.055 -0.603,2.545 0.208,3.825 -0.585,-0.069 -1.085,-0.003 -1.485,0.097 -0.402,0.101 -0.702,0.236 -0.885,0.308 -0.031,0.012 -0.065,0.008 -0.091,-0.008 -0.026,-0.015 -0.047,-0.043 -0.052,-0.076 -0.251,-1.73 0.12,-2.386 0.674,-2.994 0.554,-0.608 1.29,-1.17 1.77,-2.714 0.174,-0.56 0.162,-0.867 0.04,-0.976 -0.123,-0.109 -0.356,-0.02 -0.621,0.212 -0.149,0.13 -0.311,0.301 -0.479,0.486 -0.169,0.184 -0.342,0.384 -0.514,0.572 -0.022,0.025 -0.054,0.025 -0.078,0.011 -0.023,-0.014 -0.039,-0.042 -0.028,-0.074 0.117,-0.354 0.24,-0.703 0.359,-1.046 0.12,-0.344 0.238,-0.683 0.344,-1.016 0.278,-0.855 0.451,-1.671 0.58,-2.453 0.13,-0.783 0.216,-1.531 0.322,-2.252 0.089,-0.628 0.214,-1.239 0.286,-1.8 0.072,-0.56 0.09,-1.071 -0.034,-1.498 -0.089,-0.313 -0.29,-0.576 -0.504,-0.65 -0.213,-0.075 -0.44,0.038 -0.581,0.477 -0.112,0.347 -0.116,0.928 -0.163,1.432 -0.047,0.505 -0.135,0.932 -0.417,0.972 -0.287,0.04 -0.554,-0.09 -0.801,-0.302 -0.246,-0.213 -0.471,-0.507 -0.675,-0.794 -0.549,-0.76 -0.703,-1.405 -0.761,-2.033 -0.057,-0.629 -0.018,-1.241 -0.179,-1.935 -0.002,-0.011 0.003,-0.02 0.011,-0.023 0.007,-0.004 0.017,-0.004 0.024,0.005 0.925,1.07 2.059,1.614 3.228,1.851 1.169,0.237 2.374,0.167 3.44,0.008 0.049,-0.007 0.092,0.014 0.118,0.049 0.025,0.034 0.033,0.082 0.011,0.126 -0.134,0.278 -0.253,0.555 -0.332,0.845 -0.079,0.289 -0.118,0.593 -0.092,0.924 0.023,0.304 0.136,0.687 0.304,1.035 0.168,0.349 0.391,0.663 0.632,0.829 0.179,0.124 0.313,0.17 0.406,0.15 0.094,-0.021 0.146,-0.107 0.157,-0.247 0.006,-0.063 10e-4,-0.123 -0.004,-0.184 -0.006,-0.06 -0.013,-0.12 -0.013,-0.183 0.017,-1.466 0.88,-2.859 1.986,-4.017 1.106,-1.157 2.454,-2.08 3.442,-2.605 -0.239,1.458 -0.297,1.761 -0.473,1.972 -0.176,0.21 -0.469,0.329 -1.176,1.42 -0.528,0.817 -0.504,1.619 -0.487,2.249 0.016,0.63 0.025,1.089 -0.535,1.222 -0.313,0.074 -0.679,-0.022 -0.948,-0.228 -0.268,-0.207 -0.439,-0.524 -0.362,-0.891 0.486,0.172 0.808,0.037 0.965,-0.207 0.158,-0.244 0.152,-0.597 -0.017,-0.86 -0.155,-0.221 -0.369,-0.322 -0.594,-0.325 -0.226,-0.004 -0.463,0.089 -0.663,0.256 -0.302,0.244 -0.57,0.719 -0.62,1.271 -0.05,0.552 0.117,1.182 0.682,1.735 0.667,0.647 1.634,0.821 2.589,0.591 0.955,-0.23 1.899,-0.864 2.519,-1.833 0.033,-0.05 0.085,-0.075 0.138,-0.074 0.054,0 0.106,0.026 0.137,0.076 0.02,0.033 0.042,0.066 0.062,0.099 0.021,0.032 0.042,0.065 0.064,0.097 -0.095,0.393 -0.33,0.729 -0.614,1.033 -0.286,0.304 -0.619,0.576 -0.909,0.843 -1.074,0.978 -1.886,1.866 -2.41,2.667 -0.523,0.802 -0.758,1.516 -0.674,2.147 0.261,2.02 1.505,2.301 2.779,1.92 1.273,-0.381 2.577,-1.424 2.96,-2.052 0.102,0.218 0.151,0.65 0.093,1.099 -0.059,0.449 -0.226,0.915 -0.553,1.202 m -12.743,-18.302 c -0.398,0.096 -0.688,0.291 -0.876,0.538 -0.189,0.246 -0.275,0.542 -0.264,0.838 0.012,0.281 0.11,0.564 0.293,0.804 0.183,0.24 0.448,0.438 0.793,0.55 0.419,0.138 0.873,0.073 1.248,-0.135 0.376,-0.209 0.673,-0.562 0.779,-1.001 0.117,-0.482 -0.015,-0.984 -0.276,-1.43 -0.261,-0.447 -0.649,-0.839 -1.039,-1.1 -0.116,-0.078 -0.219,-0.136 -0.323,-0.185 -0.105,-0.048 -0.211,-0.087 -0.334,-0.126 -0.02,-0.006 -0.032,-0.023 -0.034,-0.041 -0.001,-0.017 0.006,-0.036 0.025,-0.046 0.614,-0.333 1.236,-0.651 1.865,-0.952 0.63,-0.301 1.266,-0.585 1.909,-0.851 0.011,-0.005 0.021,0 0.026,0.008 0.004,0.008 0.004,0.019 -0.003,0.027 -0.984,1 -0.716,2.625 0.497,3.619 1.214,0.994 3.373,1.355 6.176,-0.174 0.252,-0.136 0.526,-0.322 0.815,-0.526 0.288,-0.203 0.592,-0.424 0.904,-0.629 0.027,-0.017 0.055,-0.01 0.073,0.008 0.019,0.018 0.026,0.047 0.009,0.073 -0.101,0.164 -0.202,0.331 -0.309,0.492 -0.107,0.161 -0.219,0.316 -0.343,0.456 -0.85,0.964 -1.801,1.536 -2.845,1.797 -1.044,0.26 -2.18,0.209 -3.404,-0.076 -0.169,-0.037 -0.492,-0.133 -0.825,-0.245 -0.332,-0.112 -0.674,-0.239 -0.881,-0.34 -0.069,-0.034 -0.175,-0.092 -0.276,-0.109 -0.1,-0.018 -0.195,0.003 -0.241,0.127 -0.14,0.355 0.151,0.882 0.598,1.356 0.448,0.474 1.052,0.894 1.538,1.037 0.04,0.011 0.062,0.046 0.063,0.081 0.002,0.034 -0.016,0.07 -0.056,0.085 -0.455,0.168 -1,0.288 -1.571,0.365 -0.572,0.077 -1.169,0.11 -1.732,0.105 -0.769,-0.009 -1.526,-0.09 -2.184,-0.359 -0.658,-0.268 -1.216,-0.723 -1.59,-1.477 -0.559,-1.137 -0.331,-2.014 0.148,-2.507 0.479,-0.493 1.208,-0.6 1.652,-0.195 0.019,0.017 0.027,0.049 0.026,0.078 -0.002,0.03 -0.013,0.056 -0.031,0.06 m 8.848,-2.371 c -0.45,0.25 -0.754,0.527 -1.035,0.812 -0.281,0.286 -0.541,0.58 -0.906,0.864 -0.818,0.734 -1.608,0.231 -1.969,-0.476 -0.362,-0.706 -0.297,-1.615 0.596,-1.694 0.032,-0.003 0.057,0.015 0.069,0.039 0.012,0.025 0.011,0.055 -0.011,0.08 -0.234,0.274 -0.224,0.574 -0.078,0.794 0.147,0.219 0.429,0.358 0.739,0.31 0.281,-0.046 0.519,-0.299 0.578,-0.631 0.057,-0.331 -0.065,-0.74 -0.504,-1.096 -0.135,-0.108 -0.292,-0.184 -0.457,-0.237 -0.165,-0.052 -0.338,-0.08 -0.504,-0.09 -0.017,-10e-4 -0.028,-0.014 -0.029,-0.028 -0.002,-0.014 0.004,-0.029 0.021,-0.035 2.19,-0.803 4.422,-1.406 6.687,-1.808 2.266,-0.402 4.567,-0.605 6.896,-0.61 0.044,0 0.07,0.031 0.074,0.066 0.005,0.034 -0.011,0.072 -0.054,0.084 -0.585,0.162 -1.149,0.333 -1.68,0.544 -0.532,0.211 -1.033,0.462 -1.494,0.783 -1.082,0.752 -2.365,1.044 -3.603,1.294 -1.237,0.25 -2.43,0.456 -3.336,1.035 m 11.114,-19.007 c 0.876,0 1.669,0.349 2.243,0.919 0.574,0.569 0.928,1.358 0.928,2.236 0,0.419 -0.082,0.826 -0.239,1.204 -0.157,0.378 -0.39,0.726 -0.691,1.028 -0.296,0.298 -0.642,0.529 -1.021,0.685 -0.379,0.157 -0.791,0.239 -1.22,0.239 -0.421,0 -0.832,-0.082 -1.211,-0.239 -0.379,-0.157 -0.727,-0.39 -1.023,-0.691 -0.298,-0.298 -0.529,-0.646 -0.685,-1.023 -0.158,-0.377 -0.24,-0.784 -0.24,-1.203 0,-0.872 0.354,-1.661 0.925,-2.232 0.572,-0.571 1.361,-0.923 2.234,-0.923 m -7.223,7.169 c 0.261,0.514 0.36,0.823 0.391,1.148 0.033,0.326 -0.003,0.667 -0.012,1.247 -0.001,0.067 -0.027,0.129 -0.069,0.176 -0.042,0.048 -0.1,0.081 -0.167,0.09 -0.874,0.116 -1.745,0.26 -2.613,0.431 -0.867,0.17 -1.73,0.367 -2.59,0.59 -0.05,0.013 -0.092,-0.014 -0.109,-0.052 -0.017,-0.038 -0.01,-0.086 0.034,-0.115 1.029,-0.683 1.981,-1.353 2.814,-1.963 0.832,-0.61 1.546,-1.16 2.102,-1.601 0.036,-0.029 0.08,-0.037 0.121,-0.028 0.04,0.01 0.077,0.036 0.098,0.077 M -48.922,-76.16 c 0.801,-1.569 2.866,-2.549 5.409,-1.805 2.543,0.743 5.564,3.21 8.273,8.534 0.044,0.086 0.035,0.18 -0.009,0.254 -0.044,0.073 -0.122,0.126 -0.218,0.13 -5.986,0.206 -9.721,-0.849 -11.772,-2.317 -2.053,-1.468 -2.424,-3.35 -1.683,-4.796 m 0.448,29.766 c -0.064,0.429 -0.043,0.894 0.06,1.355 0.102,0.462 0.285,0.92 0.542,1.336 0.007,0.01 0.006,0.022 10e-4,0.03 -0.005,0.008 -0.015,0.014 -0.026,0.012 -0.049,-0.006 -0.096,0 -0.138,0.02 -0.042,0.02 -0.08,0.054 -0.111,0.104 -0.167,0.244 -0.235,0.703 -0.273,1.116 -0.039,0.414 -0.049,0.783 -0.101,0.846 -0.402,0.488 -0.811,0.198 -1.282,-0.179 -0.469,-0.376 -1.001,-0.84 -1.647,-0.699 -0.764,0.167 -0.603,0.486 -0.018,0.993 0.586,0.506 1.598,1.199 2.533,2.111 0.463,0.451 0.93,0.959 1.334,1.505 0.406,0.545 0.748,1.126 0.964,1.72 0.517,1.44 0.437,2.593 0.127,3.398 -0.309,0.804 -0.847,1.26 -1.247,1.306 -0.574,0.069 -1.019,-0.489 -1.43,-1.204 -0.41,-0.715 -0.784,-1.587 -1.217,-2.146 -0.207,-0.265 -0.342,-0.421 -0.461,-0.496 -0.119,-0.075 -0.223,-0.07 -0.366,-0.009 -0.183,0.075 -0.183,0.559 -0.077,1.145 0.108,0.585 0.323,1.273 0.573,1.758 0.033,0.065 0.026,0.136 -0.007,0.19 -0.034,0.054 -0.095,0.091 -0.168,0.088 -0.426,-0.018 -0.703,0.178 -0.692,0.512 0.011,0.334 0.311,0.807 1.039,1.343 0.015,0.011 0.026,0.025 0.031,0.042 0.006,0.016 0.007,0.035 0.003,0.052 -0.152,0.556 -0.287,1.005 -0.42,1.354 -0.134,0.347 -0.265,0.595 -0.409,0.751 -0.264,0.284 -0.543,0.32 -0.815,0.257 -0.27,-0.062 -0.535,-0.223 -0.77,-0.332 -0.311,-0.14 -0.638,-0.364 -0.911,-0.661 -0.271,-0.296 -0.488,-0.665 -0.578,-1.094 -0.206,-0.999 -0.056,-2.131 0.093,-3.047 0.15,-0.917 0.298,-1.618 0.092,-1.756 -0.196,-0.134 -0.554,0.084 -0.934,0.809 -0.381,0.725 -0.782,1.957 -1.067,3.851 -0.01,0.068 -0.056,0.12 -0.112,0.143 -0.057,0.022 -0.124,0.018 -0.179,-0.025 -1.109,-0.878 -1.845,-1.701 -2.309,-2.501 -0.464,-0.8 -0.656,-1.577 -0.678,-2.363 1.448,-2.341 3.119,-4.492 4.974,-6.437 1.856,-1.945 3.895,-3.684 6.077,-5.198 m -15.594,42.388 c -1.069,-3.973 -1.498,-8.059 -1.285,-12.13 0.214,-4.071 1.072,-8.129 2.577,-12.048 0.233,-0.605 0.478,-1.2 0.737,-1.787 0.258,-0.586 0.529,-1.165 0.813,-1.735 0.434,0.566 0.888,1.108 1.305,1.574 0.418,0.465 0.798,0.853 1.084,1.11 0.048,0.043 0.056,0.105 0.035,0.154 -0.019,0.05 -0.068,0.089 -0.133,0.086 -0.376,-0.014 -0.855,-0.057 -1.302,-0.093 -0.448,-0.036 -0.863,-0.067 -1.109,-0.055 -0.353,0.018 -0.583,0.115 -0.595,0.278 -0.014,0.164 0.19,0.394 0.705,0.675 1.484,0.81 2.742,0.733 4.053,0.894 1.312,0.162 2.677,0.563 4.38,2.33 0.023,0.024 0.024,0.055 0.012,0.081 -0.013,0.024 -0.039,0.043 -0.071,0.038 -0.768,-0.095 -1.395,-0.16 -2.051,-0.014 -0.655,0.147 -1.341,0.507 -2.224,1.263 -0.057,0.049 -0.093,0.115 -0.105,0.185 -0.012,0.07 0.002,0.143 0.045,0.205 0.384,0.555 1.189,0.912 1.958,1.173 0.767,0.262 1.499,0.428 1.739,0.604 -1.791,2.798 -3.419,5.13 -4.534,7.614 -1.115,2.485 -1.717,5.123 -1.456,8.53 0.016,0.223 -0.056,0.435 -0.189,0.595 -0.132,0.16 -0.324,0.269 -0.546,0.286 -0.68,0.053 -1.379,-0.029 -2.039,-0.06 -0.66,-0.032 -1.28,-0.011 -1.804,0.247 m 3.057,3.901 c 0.379,0.043 0.693,0.116 1.031,0.233 0.336,0.115 0.699,0.274 1.174,0.488 0.022,0.01 0.034,0.029 0.035,0.05 0,0.02 -0.009,0.041 -0.03,0.051 -0.204,0.101 -0.413,0.194 -0.62,0.308 -0.207,0.114 -0.412,0.25 -0.605,0.438 -0.017,0.015 -0.037,0.02 -0.056,0.016 -0.019,-0.004 -0.035,-0.016 -0.043,-0.037 -0.099,-0.261 -0.246,-0.519 -0.415,-0.764 -0.169,-0.244 -0.358,-0.475 -0.542,-0.683 -0.017,-0.021 -0.014,-0.047 0.002,-0.068 0.015,-0.02 0.041,-0.035 0.069,-0.032 m 27.081,21.484 c -0.141,-0.272 -0.289,-0.483 -0.46,-0.649 -0.17,-0.165 -0.362,-0.285 -0.591,-0.375 -0.653,-0.255 -1.164,0.069 -1.801,0.452 -0.638,0.383 -1.402,0.824 -2.559,0.805 -0.844,-0.015 -1.722,-0.052 -2.58,-0.183 -0.857,-0.131 -1.694,-0.356 -2.456,-0.745 -0.014,-0.007 -0.019,-0.015 -0.019,-0.023 10e-4,-0.007 0.009,-0.012 0.024,-0.011 0.172,0.015 0.346,0.027 0.519,0.038 0.174,0.01 0.348,0.018 0.52,0.023 3.067,0.06 5.18,-0.776 6.501,-1.939 1.32,-1.164 1.851,-2.654 1.753,-3.902 -0.071,-0.909 -0.528,-1.638 -1.158,-2.138 -0.63,-0.5 -1.433,-0.77 -2.197,-0.765 -1.111,0.011 -2.047,0.696 -2.386,1.498 -0.34,0.803 -0.083,1.724 1.192,2.208 0.537,0.415 0.773,0.751 0.696,1.011 -0.076,0.259 -0.462,0.44 -1.167,0.541 -0.141,0.021 -0.285,0.023 -0.425,0.006 -0.142,-0.016 -0.281,-0.05 -0.414,-0.1 -0.555,-0.212 -1.088,-0.468 -1.631,-0.688 -0.542,-0.22 -1.093,-0.405 -1.683,-0.477 -0.842,-0.106 -1.386,-0.039 -1.836,0.074 -0.45,0.113 -0.807,0.27 -1.271,0.345 -0.565,0.09 -1.139,0.105 -1.712,0.054 -0.574,-0.051 -1.147,-0.168 -1.712,-0.339 -0.243,-0.074 -0.478,-0.173 -0.698,-0.296 -0.222,-0.123 -0.43,-0.268 -0.621,-0.436 -1.293,-1.14 -2.507,-2.365 -3.638,-3.668 -1.13,-1.303 -2.177,-2.685 -3.134,-4.138 -0.023,-0.036 -0.012,-0.074 0.015,-0.097 0.025,-0.022 0.065,-0.029 0.097,0 0.654,0.548 0.947,1.044 1.357,1.395 0.41,0.35 0.936,0.555 2.057,0.521 0.102,-0.004 0.196,-0.041 0.27,-0.101 0.075,-0.061 0.13,-0.145 0.154,-0.243 0.048,-0.194 0.106,-0.391 0.141,-0.607 0.035,-0.216 0.048,-0.451 0.003,-0.72 0.927,0.358 1.481,0.829 2.261,1.213 0.782,0.383 1.788,0.68 3.621,0.692 0.626,0.006 1.57,0.229 2.374,0.317 0.803,0.089 1.465,0.041 1.525,-0.495 0.049,-0.442 -0.426,-1.265 -0.966,-2.005 -0.539,-0.739 -1.141,-1.394 -1.348,-1.501 -0.572,-0.299 -1.169,-0.209 -1.721,-0.118 -0.551,0.091 -1.057,0.185 -1.445,-0.105 -0.824,-0.612 -1.636,-0.914 -2.321,-1.134 -0.683,-0.221 -1.24,-0.359 -1.55,-0.64 0.373,-0.226 1.118,-0.847 1.971,-1.378 0.854,-0.531 1.817,-0.97 2.63,-0.836 2.094,0.347 3.972,-0.155 5.791,-0.641 1.819,-0.487 3.58,-0.957 5.438,-0.547 1.282,0.284 1.881,1.412 2.57,2.622 0.688,1.211 1.466,2.505 3.099,3.121 0.469,0.179 1.096,1.288 1.846,2.683 0.749,1.394 1.621,3.072 2.577,4.386 -0.491,-0.553 -1.398,-0.858 -2.28,-0.791 -0.882,0.067 -1.737,0.504 -2.125,1.434 -0.217,0.512 -0.239,1.14 -0.054,1.657 0.186,0.518 0.577,0.925 1.189,0.993 0.073,0.009 0.131,-0.032 0.158,-0.088 0.026,-0.055 0.022,-0.127 -0.027,-0.181 -0.143,-0.155 -0.286,-0.33 -0.37,-0.514 -0.084,-0.183 -0.109,-0.377 -0.017,-0.57 0.135,-0.29 0.377,-0.441 0.64,-0.497 0.261,-0.057 0.543,-0.02 0.755,0.066 0.468,0.19 0.937,0.557 1.251,0.995 0.316,0.44 0.478,0.95 0.334,1.426 -0.169,0.566 -0.967,0.71 -1.811,0.856 -0.843,0.145 -1.733,0.292 -2.082,0.86 -0.229,0.372 -0.381,0.766 -0.512,1.161 -0.131,0.395 -0.242,0.79 -0.39,1.165 -0.013,0.035 -0.047,0.063 -0.081,0.075 -0.034,0.013 -0.067,0.011 -0.08,-0.012 m 7.84,-0.112 c -0.731,1.059 -1.385,1.882 -2.073,2.488 -0.688,0.605 -1.411,0.992 -2.281,1.179 -0.056,0.012 -0.114,0.019 -0.17,0.021 -0.058,0.002 -0.115,0 -0.172,-0.007 -0.02,-0.003 -0.039,-0.005 -0.059,-0.007 -0.019,-0.003 -0.039,-0.005 -0.058,-0.007 1.623,-1.002 3.103,-2.594 3.916,-4.4 0.812,-1.807 0.958,-3.827 -0.091,-5.687 0.658,0.606 1.333,1.227 1.974,1.758 0.641,0.531 1.249,0.974 1.771,1.22 -0.407,0.275 -0.773,0.67 -1.199,1.228 -0.426,0.559 -0.911,1.283 -1.558,2.214 m 4.423,-3.993 c 0.106,-0.376 0.113,-0.894 -0.032,-1.568 -0.146,-0.674 -0.445,-1.501 -0.95,-2.493 -0.092,-0.179 -0.411,-0.186 -0.793,-0.224 -0.382,-0.038 -0.828,-0.107 -1.171,-0.408 -0.228,-0.195 -0.366,-0.506 -0.455,-0.808 -0.088,-0.301 -0.125,-0.592 -0.149,-0.747 -0.049,-0.341 -0.623,-0.643 -1.289,-1.335 -0.667,-0.693 -1.425,-1.777 -1.842,-3.685 0.719,-0.014 1.608,0.099 2.395,0.246 0.786,0.147 1.472,0.328 1.781,0.448 0.897,0.358 1.843,1.83 3.051,3.381 1.207,1.55 2.677,3.18 4.618,3.854 0.391,0.129 0.656,0.162 0.783,0.292 0.128,0.131 0.118,0.36 -0.043,0.878 -0.299,0.961 -0.749,1.495 -1.324,1.785 -0.575,0.289 -1.274,0.335 -2.07,0.322 -0.534,-0.006 -1.002,-0.009 -1.416,-0.001 -0.415,0.007 -0.776,0.026 -1.094,0.063 m -1.608,-63.25 c -1.399,0.092 -2.41,1.046 -2.83,2.121 -0.421,1.075 -0.252,2.271 0.71,2.848 0.395,0.237 0.754,0.268 1.07,0.212 0.314,-0.056 0.585,-0.198 0.801,-0.306 0.069,-0.035 0.146,-0.034 0.212,-0.007 0.066,0.028 0.121,0.082 0.144,0.156 0.475,1.453 -0.606,2.899 -2.178,3.503 -1.572,0.604 -3.634,0.367 -5.127,-1.55 -0.858,-1.099 -1.167,-2.541 -1.029,-4.11 0.138,-1.569 0.722,-3.264 1.647,-4.866 0.029,-0.051 0.082,-0.066 0.127,-0.055 0.047,0.013 0.086,0.051 0.089,0.109 0.035,0.78 0.202,1.517 0.54,2.148 0.339,0.631 0.851,1.154 1.577,1.504 0.11,0.053 0.23,0.044 0.326,-0.01 0.095,-0.052 0.167,-0.149 0.178,-0.271 0.045,-0.424 0.086,-0.818 0.146,-1.218 0.06,-0.4 0.137,-0.808 0.254,-1.258 0.436,-1.682 1.222,-2.897 2.164,-3.702 0.941,-0.806 2.038,-1.203 3.098,-1.253 0.055,-0.003 0.093,0.033 0.106,0.077 0.013,0.043 -0.001,0.095 -0.048,0.124 -0.929,0.575 -1.482,1.274 -1.722,2.03 -0.239,0.756 -0.164,1.57 0.164,2.375 0.046,0.115 0.147,0.184 0.254,0.199 0.108,0.015 0.221,-0.023 0.296,-0.123 0.76,-1.02 1.372,-2.136 2.256,-2.996 0.885,-0.86 2.042,-1.464 3.894,-1.461 0.048,0 0.079,0.032 0.088,0.069 0.008,0.037 -0.004,0.079 -0.046,0.101 -0.735,0.387 -1.299,0.86 -1.668,1.487 -0.368,0.626 -0.541,1.405 -0.492,2.404 0.003,0.09 0.061,0.156 0.132,0.184 0.073,0.029 0.16,0.019 0.224,-0.044 0.859,-0.832 1.82,-1.516 2.821,-1.992 1.001,-0.475 2.041,-0.743 3.057,-0.743 2.458,-0.003 4.412,0.565 5.939,1.377 1.528,0.811 2.629,1.865 3.382,2.835 0.02,0.025 0.014,0.054 -0.005,0.073 -0.017,0.018 -0.047,0.025 -0.073,0.006 -2.143,-1.53 -4.919,-2.184 -7.446,-2.188 -2.528,-0.004 -4.807,0.642 -5.956,1.712 -0.712,0.665 -1.232,1.259 -1.592,1.867 -0.359,0.607 -0.558,1.227 -0.627,1.944 -0.004,0.036 -0.03,0.056 -0.059,0.059 -0.027,0.003 -0.057,-0.012 -0.067,-0.047 -0.174,-0.61 -0.56,-1.493 -1.302,-2.197 -0.741,-0.705 -1.837,-1.23 -3.429,-1.127 m 15.466,26.362 c -0.42,-0.293 -0.798,-0.583 -1.107,-0.891 -0.31,-0.31 -0.549,-0.638 -0.694,-1.006 -0.182,-0.462 -0.452,-0.82 -0.794,-1.095 -0.342,-0.273 -0.757,-0.463 -1.229,-0.586 -0.718,-0.189 -0.95,-0.406 -1.055,-0.735 -0.106,-0.329 -0.084,-0.772 -0.294,-1.411 -0.299,-0.895 -0.708,-1.684 -1.276,-2.32 -0.566,-0.634 -1.292,-1.117 -2.222,-1.398 -0.565,-0.173 -1.327,-0.258 -2.119,-0.261 -0.793,-0.003 -1.617,0.075 -2.308,0.23 -0.029,0.007 -0.056,-0.001 -0.075,-0.018 -0.02,-0.016 -0.033,-0.042 -0.032,-0.071 0.019,-0.675 -0.097,-1.38 -0.341,-2.057 -0.246,-0.677 -0.619,-1.327 -1.117,-1.896 -0.169,-0.196 -0.354,-0.375 -0.552,-0.54 -0.199,-0.166 -0.41,-0.318 -0.63,-0.459 2.289,-0.622 3.561,-1.557 4.3,-2.477 0.74,-0.919 0.947,-1.823 1.105,-2.383 0.471,1.148 1.326,2.096 2.392,2.642 1.065,0.547 2.34,0.692 3.65,0.233 0.583,-0.204 1.111,-0.515 1.511,-0.894 0.399,-0.38 0.669,-0.827 0.735,-1.303 0.129,-0.95 -0.214,-1.783 -0.788,-2.308 -0.573,-0.524 -1.378,-0.739 -2.17,-0.452 -0.5,0.183 -0.763,0.68 -0.805,1.138 -0.043,0.457 0.136,0.876 0.518,0.904 0.192,0.017 0.403,0.015 0.564,-0.077 0.161,-0.092 0.272,-0.273 0.263,-0.611 -0.012,-0.356 0.313,-0.265 0.581,0.005 0.269,0.27 0.482,0.721 0.246,1.085 -0.477,0.746 -1.548,0.957 -2.43,0.597 -0.883,-0.361 -1.577,-1.291 -1.298,-2.829 0.143,-0.78 0.463,-1.355 0.92,-1.745 0.458,-0.391 1.053,-0.596 1.751,-0.636 0.857,-0.048 1.277,-0.111 1.63,-0.326 0.352,-0.215 0.637,-0.581 1.223,-1.237 0.061,-0.067 0.146,-0.088 0.222,-0.069 0.076,0.018 0.142,0.075 0.164,0.163 0.073,0.293 0.161,0.586 0.307,0.837 0.147,0.252 0.352,0.461 0.659,0.586 1.077,0.445 1.826,0.25 2.61,0.081 0.784,-0.168 1.603,-0.311 2.817,0.24 2.604,1.177 4.842,2.473 6.769,4.083 1.926,1.609 3.54,3.53 4.896,5.953 0.023,0.04 0.006,0.08 -0.023,0.1 -0.029,0.02 -0.071,0.021 -0.101,-0.014 -4.369,-5.215 -10.288,-6.764 -14.693,-5.777 -4.406,0.988 -7.3,4.512 -5.618,9.443 0.69,1.521 1.772,2.332 2.814,2.609 1.042,0.279 2.043,0.023 2.571,-0.591 0.137,-0.161 0.162,-0.368 0.098,-0.542 -0.064,-0.173 -0.215,-0.314 -0.425,-0.343 -1.742,-0.243 -2.512,-1.476 -2.49,-2.844 0.024,-1.369 0.841,-2.874 2.274,-3.666 2.796,-1.541 5.859,-1.19 8.622,0.183 2.762,1.373 5.222,3.767 6.814,6.312 0.05,0.08 0.024,0.163 -0.033,0.21 -0.056,0.048 -0.143,0.059 -0.211,-0.006 -0.569,-0.53 -1.207,-1.042 -1.891,-1.503 -0.682,-0.462 -1.412,-0.873 -2.164,-1.202 -2.972,-1.312 -5.215,-1.061 -6.689,-0.146 -1.473,0.915 -2.176,2.492 -2.069,3.831 0.004,0.051 -0.012,0.101 -0.041,0.139 -0.031,0.037 -0.075,0.063 -0.125,0.067 -1.07,0.071 -2.195,0.745 -2.854,1.925 -0.659,1.181 -0.852,2.869 -0.057,4.968 0.025,0.063 0,0.122 -0.043,0.156 -0.043,0.035 -0.107,0.043 -0.163,0.005 m 6.361,16.348 c -0.32,-0.688 -0.882,-1.335 -1.565,-1.673 -0.683,-0.337 -1.486,-0.364 -2.284,0.187 -0.683,0.47 -0.83,1.312 -0.659,2.04 0.172,0.726 0.659,1.339 1.245,1.348 0.101,0.002 0.181,-0.051 0.222,-0.127 0.041,-0.075 0.044,-0.172 -0.009,-0.259 -0.312,-0.512 -0.055,-0.999 0.368,-1.241 0.422,-0.241 1.01,-0.235 1.36,0.242 0.56,0.808 0.441,1.57 -0.02,2.136 -0.462,0.566 -1.267,0.936 -2.076,0.961 -0.812,0.026 -1.569,-0.32 -2.114,-0.867 -0.547,-0.547 -0.883,-1.296 -0.857,-2.076 0,-0.017 -0.01,-0.027 -0.021,-0.032 -0.013,-0.004 -0.028,0 -0.037,0.013 -0.681,1.064 -1.64,1.976 -2.751,2.648 -1.112,0.672 -2.375,1.102 -3.664,1.204 -1.079,0.086 -2.308,-0.042 -3.529,-0.353 -1.221,-0.311 -2.432,-0.806 -3.477,-1.455 -1.094,-0.685 -1.932,-1.538 -2.535,-2.499 -0.602,-0.961 -0.969,-2.03 -1.123,-3.15 -0.005,-0.044 -0.033,-0.078 -0.068,-0.095 -0.034,-0.016 -0.077,-0.016 -0.114,0.007 -0.23,0.147 -0.504,0.272 -0.843,0.378 -0.34,0.106 -0.745,0.193 -1.235,0.263 -0.029,0.004 -0.054,0.017 -0.072,0.038 -0.016,0.019 -0.027,0.046 -0.025,0.075 0.047,1.048 -0.001,2.41 0.04,3.602 0.042,1.192 0.174,2.213 0.581,2.581 1.18,1.076 2.064,1.381 2.81,1.546 0.744,0.165 1.348,0.19 1.968,0.703 0.549,0.451 0.915,1.534 1.333,2.578 0.418,1.044 0.888,2.049 1.643,2.344 0.305,0.116 0.546,0.56 0.787,1.04 0.241,0.481 0.482,0.998 0.787,1.255 0.468,0.049 0.959,0 1.39,-0.014 0.43,-0.015 0.802,0.004 1.028,0.187 0.198,0.16 0.313,0.405 0.43,0.699 0.116,0.294 0.233,0.638 0.437,0.994 0.58,1.006 1.387,1.294 1.925,1.682 0.538,0.387 0.807,0.873 0.31,2.277 -0.632,1.798 -1.997,3.305 -3.466,4.598 -1.468,1.294 -3.039,2.373 -4.082,3.318 -0.022,0.019 -0.021,0.046 -0.008,0.065 0.014,0.02 0.038,0.03 0.064,0.017 l 4.134,-2.023 4.133,-2.022 c 1.169,-0.575 2.035,-1.558 2.568,-2.721 0.534,-1.162 0.735,-2.504 0.574,-3.792 C -7.997,12.945 -8.126,12.623 -8.213,12.217 -8.3,11.812 -8.344,11.325 -8.227,10.579 -8.135,9.994 -7.916,9.456 -7.67,8.924 -7.424,8.392 -7.149,7.868 -6.945,7.308 -6.902,6.798 -7.043,6.341 -7.3,6.133 -7.556,5.925 -7.928,5.965 -8.347,6.448 c -0.672,0.766 -1.537,0.946 -2.226,0.688 -0.691,-0.258 -1.206,-0.955 -1.18,-1.945 0.014,-0.545 0.296,-1.165 0.681,-1.692 0.384,-0.529 0.873,-0.964 1.301,-1.142 1.096,-0.459 2.723,-0.178 4.036,0.973 1.311,1.151 2.307,3.173 2.144,6.193 -0.014,0.289 -0.076,0.611 -0.16,0.943 -0.084,0.332 -0.19,0.673 -0.296,1 -0.02,0.065 0.015,0.118 0.064,0.138 0.047,0.022 0.11,0.011 0.142,-0.049 1.103,-2.058 2.188,-4.712 2.754,-7.376 0.566,-2.664 0.612,-5.34 -0.361,-7.445 m -9.461,-8.279 c 1.495,0 2.597,0.668 3.292,1.647 0.694,0.981 0.979,2.274 0.838,3.524 -0.004,0.033 0.013,0.058 0.038,0.069 0.023,0.011 0.054,0.008 0.077,-0.016 1.007,-1.051 2.314,-1.429 3.518,-1.298 1.206,0.131 2.306,0.771 2.898,1.754 -0.086,-0.855 -0.147,-1.433 -0.272,-1.983 -0.125,-0.55 -0.314,-1.072 -0.659,-1.815 -1.559,-3.339 -4.566,-5.863 -7.924,-7.018 -3.357,-1.155 -7.064,-0.943 -10.025,1.188 -1.287,0.927 -2.668,2.879 -3.29,4.773 -0.622,1.893 -0.484,3.727 1.268,4.419 0.936,0.367 1.748,0.212 2.561,0.023 0.814,-0.188 1.629,-0.41 2.574,-0.178 1.028,0.255 1.638,0.865 2.265,1.441 0.627,0.576 1.271,1.118 2.364,1.238 0.778,-0.635 1.198,-1.198 1.416,-1.741 0.219,-0.543 0.235,-1.068 0.204,-1.629 -0.005,-0.097 -0.062,-0.175 -0.138,-0.215 -0.075,-0.04 -0.17,-0.043 -0.252,0.01 -0.185,0.118 -0.389,0.213 -0.609,0.276 -0.219,0.063 -0.453,0.095 -0.695,0.086 -1.815,-0.077 -2.451,-1.215 -2.247,-2.336 0.205,-1.119 1.25,-2.219 2.798,-2.219 m 20.735,2.324 c 1.008,1.417 1.55,2.216 1.749,3.047 0.198,0.831 0.054,1.695 -0.314,3.244 -0.016,0.062 -0.068,0.093 -0.118,0.091 C 11.091,-2.841 11.041,-2.874 11.032,-2.937 10.65,-5.464 9.022,-7.42 7.504,-8.34 5.985,-9.26 4.576,-9.143 4.634,-7.523 c 0.069,1.931 0.985,3.287 1.76,4.96 0.775,1.672 1.408,3.66 0.911,6.854 L 7.199,4.798 7.094,5.304 C 7.075,5.389 7.008,5.435 6.937,5.44 6.867,5.444 6.794,5.407 6.765,5.326 6.381,4.245 5.647,3.881 4.951,4.076 4.255,4.271 3.595,5.026 3.359,6.183 2.807,8.859 2.197,11.189 0.965,13.328 c -1.234,2.137 -3.088,4.084 -6.131,5.991 -0.061,0.038 -0.124,0.018 -0.159,-0.025 -0.035,-0.044 -0.042,-0.11 0.008,-0.162 0.117,-0.123 0.235,-0.249 0.353,-0.378 0.117,-0.13 0.235,-0.263 0.351,-0.401 3.302,-3.907 5.857,-8.854 7.067,-14.016 1.211,-5.162 1.077,-10.538 -0.996,-15.302 -1.083,-2.493 -0.971,-4.212 -0.557,-5.708 0.414,-1.497 1.131,-2.773 1.257,-4.379 0.133,-1.692 -1.307,-2.228 -2.703,-1.563 -1.396,0.666 -2.748,2.533 -2.44,5.646 0.003,0.034 -0.019,0.059 -0.045,0.065 -0.028,0.007 -0.058,-0.002 -0.074,-0.033 -1.475,-3.136 -1.53,-4.537 -1.2,-5.413 0.33,-0.876 1.046,-1.226 1.111,-2.257 0.002,-0.036 0.022,-0.063 0.049,-0.079 0.028,-0.016 0.063,-0.017 0.095,-0.003 0.93,0.421 2.141,0.264 2.86,-0.243 0.718,-0.506 0.945,-1.36 -0.093,-2.334 -0.311,-0.565 -0.165,-0.933 0.142,-1.105 0.308,-0.174 0.78,-0.154 1.121,0.055 0.919,0.56 1.171,0.979 1.391,1.373 0.219,0.395 0.404,0.765 1.189,1.226 0.596,0.348 1.048,0.363 1.541,0.336 0.492,-0.028 1.023,-0.098 1.778,0.078 1.109,0.226 1.916,0.703 2.516,1.352 0.6,0.65 0.995,1.471 1.281,2.388 0.027,0.091 -0.018,0.165 -0.084,0.199 -0.067,0.034 -0.154,0.025 -0.208,-0.052 -0.703,-0.98 -1.62,-1.803 -2.555,-2.322 -0.935,-0.517 -1.889,-0.728 -2.667,-0.481 -0.494,0.157 -0.731,0.622 -0.745,1.128 -0.014,0.506 0.196,1.052 0.596,1.373 0.424,0.339 1.979,0.951 3.486,1.735 1.506,0.784 2.964,1.739 3.193,2.764 l 0.081,0.356 0.08,0.357 c 0.038,0.164 -0.031,0.31 -0.145,0.395 -0.114,0.086 -0.274,0.111 -0.422,0.032 -1.501,-0.808 -2.169,-0.575 -2.789,-0.654 -0.621,-0.08 -1.193,-0.474 -2.503,-2.539 -0.128,-0.2 -0.343,-0.276 -0.542,-0.245 -0.2,0.031 -0.384,0.17 -0.447,0.398 -0.748,2.689 -0.213,4.22 0.845,5.55 1.056,1.331 2.635,2.461 3.975,4.348"
         style="fill:none;stroke:#ff0000;stroke-width:0.38px"
         id="path182" />
    </g>
  </g>
</svg>
