<?xml version="1.0" encoding="UTF-8" standalone="no"?>
<!-- Created with Inkscape (http://www.inkscape.org/) -->

<svg
   width="65.820656mm"
   height="80.040604mm"
   viewBox="0 0 65.820656 80.040604"
   version="1.1"
   id="svg327"
   inkscape:version="1.1.1 (c3084ef, 2021-09-22)"
   sodipodi:docname="9.svg"
   xmlns:inkscape="http://www.inkscape.org/namespaces/inkscape"
   xmlns:sodipodi="http://sodipodi.sourceforge.net/DTD/sodipodi-0.dtd"
   xmlns="http://www.w3.org/2000/svg"
   xmlns:svg="http://www.w3.org/2000/svg">
  <sodipodi:namedview
     id="namedview329"
     pagecolor="#ffffff"
     bordercolor="#666666"
     borderopacity="1.0"
     inkscape:pageshadow="2"
     inkscape:pageopacity="0.0"
     inkscape:pagecheckerboard="0"
     inkscape:document-units="mm"
     showgrid="false"
     fit-margin-top="0"
     fit-margin-left="0"
     fit-margin-right="0"
     fit-margin-bottom="0"
     inkscape:zoom="0.64052329"
     inkscape:cx="-284.92329"
     inkscape:cy="311.46409"
     inkscape:window-width="1312"
     inkscape:window-height="963"
     inkscape:window-x="603"
     inkscape:window-y="25"
     inkscape:window-maximized="0"
     inkscape:current-layer="layer1" />
  <defs
     id="defs324" />
  <g
     inkscape:label="Layer 1"
     inkscape:groupmode="layer"
     id="layer1"
     transform="translate(-57.139742,-66.139648)">
    <g
       transform="matrix(0.70555643,0,0,0.70555643,84.122337,138.36339)"
       id="g146"
       style="clip-rule:evenodd;fill-rule:evenodd;stroke-linejoin:round;stroke-miterlimit:2">
      <path
         d="m 0,-91.567 c -0.009,-0.02 -0.018,-0.037 -0.024,-0.053 -0.008,-0.015 -0.014,-0.028 -0.018,-0.036 -2.26,-4.519 -4.807,-6.582 -6.955,-7.186 -2.148,-0.605 -3.898,0.249 -4.566,1.562 -0.621,1.216 -0.346,2.805 1.362,4.032 1.709,1.229 4.851,2.096 9.967,1.871 l 0.056,-0.003 0.055,-0.003 c 0,0 0.039,-0.03 0.073,-0.067 0.034,-0.038 0.065,-0.084 0.05,-0.117 m 16.919,0.202 c 2.259,-4.509 4.787,-6.601 6.917,-7.24 2.13,-0.639 3.863,0.178 4.531,1.487 0.616,1.212 0.302,2.787 -1.426,4.011 -1.728,1.223 -4.869,2.095 -9.904,1.897 -0.032,-0.001 -0.068,-0.027 -0.092,-0.06 -0.025,-0.032 -0.038,-0.07 -0.026,-0.095 m -8.647,-0.062 c -0.705,0.035 -1.329,0.341 -1.777,0.814 -0.449,0.473 -0.721,1.11 -0.721,1.81 0,0.725 0.294,1.382 0.769,1.856 0.476,0.475 1.132,0.769 1.859,0.769 0.726,0 1.383,-0.294 1.858,-0.769 0.476,-0.474 0.769,-1.131 0.769,-1.856 0,-0.745 -0.311,-1.42 -0.812,-1.9 -0.5,-0.479 -1.19,-0.763 -1.945,-0.724 m 17.28,72.383 c -0.247,0.284 -0.899,0.639 -1.582,1.031 -0.682,0.39 -1.395,0.818 -1.764,1.245 -0.264,0.299 0.06,0.658 0.45,0.944 0.391,0.286 0.849,0.499 0.854,0.507 -0.199,0.134 -0.958,0.418 -1.72,0.718 -0.763,0.3 -1.529,0.615 -1.742,0.814 -0.367,0.345 -0.361,0.624 -0.21,0.816 0.151,0.192 0.447,0.298 0.661,0.296 -0.408,0.435 -0.854,0.702 -1.392,0.98 -0.538,0.279 -1.169,0.568 -1.945,1.05 -0.353,0.218 -0.658,0.421 -0.934,0.616 -0.277,0.196 -0.523,0.384 -0.759,0.572 -0.005,0.004 -0.011,0.003 -0.015,0 -0.004,-0.004 -0.006,-0.008 -0.002,-0.014 1.131,-1.938 2.656,-4.396 4.197,-6.886 1.54,-2.491 3.097,-5.017 4.292,-7.091 0.039,-0.067 0.164,-0.074 0.275,-0.044 0.112,0.029 0.21,0.095 0.195,0.172 -0.146,0.763 -0.386,1.864 -0.327,2.759 0.06,0.894 0.418,1.581 1.468,1.515 m -10.617,-0.324 c 0.515,0.366 0.904,0.593 1.21,0.676 0.305,0.083 0.527,0.022 0.709,-0.188 0.228,-0.26 0.163,-0.912 0.143,-1.766 -0.019,-0.855 0.009,-1.913 0.422,-2.987 0.02,-0.052 0.064,-0.084 0.112,-0.092 0.047,-0.008 0.098,0.008 0.133,0.052 0.214,0.27 0.513,0.726 0.879,1.027 0.366,0.301 0.799,0.446 1.28,0.097 0.224,-0.164 0.727,-0.591 1.306,-1.026 0.579,-0.435 1.234,-0.877 1.762,-1.07 0.033,-0.012 0.064,0.001 0.081,0.024 0.017,0.023 0.021,0.056 10e-4,0.085 -1.292,1.809 -2.796,4.255 -4.253,6.749 -1.457,2.493 -2.866,5.034 -3.968,7.033 -0.008,0.016 -0.024,0.02 -0.037,0.015 -0.013,-0.005 -0.024,-0.017 -0.022,-0.035 0.109,-1.076 -0.172,-1.988 -0.469,-2.754 -0.297,-0.766 -0.609,-1.385 -0.562,-1.876 0.016,-0.172 0.366,-0.007 0.713,0.158 0.347,0.164 0.691,0.328 0.696,0.154 0.007,-0.47 -0.203,-1.226 -0.383,-2.012 -0.18,-0.786 -0.329,-1.601 -0.202,-2.188 0.017,-0.08 0.073,-0.137 0.142,-0.164 0.069,-0.025 0.15,-0.019 0.218,0.027 l 0.044,0.03 z m -14.023,0.523 c -0.3,0.34 -0.547,0.437 -0.759,0.421 -0.212,-0.017 -0.388,-0.148 -0.549,-0.265 -0.207,-0.147 -0.339,-0.593 -0.546,-1.173 -0.207,-0.581 -0.488,-1.298 -0.993,-1.986 -0.004,-0.007 -0.016,-0.011 -0.027,-0.012 -0.011,-0.001 -0.021,0.002 -0.025,0.009 -0.099,0.173 -0.183,0.538 -0.35,0.815 -0.166,0.278 -0.416,0.467 -0.845,0.287 -0.178,-0.075 -0.605,-0.228 -1.076,-0.399 -0.471,-0.172 -0.985,-0.363 -1.335,-0.516 -0.037,-0.015 -0.058,-0.014 -0.063,-0.002 -0.005,0.012 0.007,0.034 0.035,0.059 1.198,1.052 2.639,2.498 4.053,3.982 1.415,1.484 2.802,3.006 3.893,4.207 0.014,0.015 0.032,0.016 0.047,0.009 0.014,-0.008 0.024,-0.024 0.021,-0.044 -0.106,-0.722 -0.091,-1.291 -0.077,-1.761 0.015,-0.472 0.027,-0.846 -0.085,-1.181 -0.041,-0.117 -0.233,-0.052 -0.424,0.014 -0.191,0.064 -0.379,0.127 -0.41,0.005 -0.087,-0.342 -0.185,-0.795 -0.255,-1.252 -0.07,-0.457 -0.114,-0.917 -0.095,-1.274 0.002,-0.034 -0.017,-0.035 -0.036,-0.028 -0.02,0.008 -0.04,0.023 -0.04,0.023 l -0.03,0.03 z m -7.289,-2.101 c 0.18,0.553 0.547,1.354 0.659,2.055 0.113,0.702 -0.03,1.304 -0.866,1.464 -0.018,0.003 -0.026,0.02 -0.026,0.04 0.001,0.02 0.012,0.043 0.033,0.056 0.249,0.16 0.639,0.349 1.041,0.554 0.402,0.206 0.816,0.428 1.112,0.655 0.196,0.153 0.171,0.371 0.079,0.573 -0.092,0.2 -0.25,0.381 -0.319,0.458 -0.009,0.01 -0.01,0.023 -0.006,0.034 0.004,0.011 0.014,0.018 0.023,0.022 0.203,0.069 0.665,0.16 1.119,0.262 0.453,0.102 0.898,0.213 1.066,0.317 0.293,0.184 0.157,0.408 -0.097,0.599 -0.254,0.19 -0.626,0.348 -0.807,0.396 -0.009,0.002 -0.014,0.01 -0.015,0.018 -0.001,0.007 0.002,0.016 0.009,0.021 0.361,0.229 1.007,0.301 1.714,0.373 0.707,0.07 1.474,0.14 2.077,0.366 0.236,0.089 0.448,0.174 0.642,0.258 0.194,0.084 0.371,0.167 0.539,0.251 0.023,0.01 0.045,0.003 0.057,-0.013 0.012,-0.016 0.014,-0.039 -0.002,-0.058 -1.11,-1.249 -2.538,-2.809 -3.965,-4.376 -1.426,-1.566 -2.852,-3.138 -3.956,-4.409 -0.033,-0.038 -0.07,-0.046 -0.094,-0.03 -0.024,0.016 -0.036,0.056 -0.017,0.114 m 14.11,-17.553 c -0.533,0.888 -0.764,1.922 -0.834,2.982 -0.07,1.059 0.022,2.144 0.135,3.135 0.007,0.063 -0.03,0.111 -0.078,0.13 -0.049,0.02 -0.108,0.011 -0.146,-0.039 -0.681,-0.899 -1.046,-2.014 -1.209,-3.049 -0.164,-1.036 -0.125,-1.99 0.001,-2.568 0.161,-0.743 0.436,-1.417 0.79,-1.971 0.353,-0.554 0.785,-0.989 1.257,-1.252 l 0.163,-0.091 0.162,-0.092 c 0.074,-0.041 0.157,-0.058 0.238,-0.051 0.081,0.008 0.16,0.039 0.225,0.093 l 0.146,0.121 0.145,0.12 c 0.293,0.247 0.71,0.64 1.113,1.187 0.403,0.547 0.793,1.249 1.03,2.113 0.226,0.824 0.305,1.898 0.122,3.117 -0.184,1.22 -0.63,2.584 -1.455,3.989 -0.015,0.026 -0.041,0.033 -0.065,0.028 -0.023,-0.006 -0.043,-0.025 -0.045,-0.054 -0.05,-1.326 0.14,-2.725 0.106,-4.102 -0.035,-1.376 -0.293,-2.731 -1.239,-3.968 -0.051,-0.068 -0.128,-0.101 -0.205,-0.1 -0.077,10e-4 -0.153,0.036 -0.202,0.106 l -0.077,0.108 z m 3.747,14.068 c -0.055,-0.446 -0.134,-0.844 -0.243,-1.175 -0.11,-0.331 -0.248,-0.595 -0.424,-0.77 -0.306,-0.308 -0.695,-0.538 -1.127,-0.697 -0.433,-0.16 -0.91,-0.251 -1.394,-0.284 -0.533,-0.034 -1.292,-0.039 -1.959,0.124 -0.665,0.163 -1.237,0.493 -1.393,1.13 -0.074,0.314 -0.114,0.659 -0.132,0.979 -0.017,0.321 -0.014,0.617 -0.002,0.831 0.161,0.7 0.593,1.297 1.177,1.855 0.585,0.559 1.321,1.077 2.088,1.618 1.089,0.768 2.176,1.598 3.058,2.832 0.883,1.234 1.563,2.871 1.839,5.252 0.009,0.07 -0.035,0.12 -0.089,0.136 -0.054,0.016 -0.118,0 -0.15,-0.064 -0.876,-1.715 -1.317,-2.659 -2.039,-3.527 -0.722,-0.867 -1.724,-1.658 -3.722,-3.068 -1.002,-0.706 -1.961,-1.381 -2.704,-2.181 -0.743,-0.799 -1.27,-1.722 -1.41,-2.924 l 0.017,-0.003 0.017,-0.002 c -0.007,-0.28 -0.004,-0.635 0.025,-1.016 0.028,-0.38 0.081,-0.785 0.171,-1.163 0.286,-1.178 1.087,-1.892 2.082,-2.293 0.995,-0.402 2.184,-0.492 3.246,-0.422 0.694,0.045 1.389,0.183 2.032,0.434 0.643,0.251 1.235,0.615 1.726,1.108 0.346,0.344 0.609,0.789 0.807,1.306 0.197,0.518 0.327,1.11 0.406,1.749 0.06,0.495 -0.004,1.247 -0.104,2.048 -0.099,0.801 -0.234,1.652 -0.314,2.343 -0.009,0.078 -0.067,0.124 -0.131,0.133 -0.063,0.008 -0.132,-0.021 -0.163,-0.094 -0.363,-0.863 -0.6,-1.496 -0.777,-2.122 -0.176,-0.625 -0.292,-1.243 -0.414,-2.073 m 18.353,-41.753 c -0.014,0.074 -0.075,0.195 -0.185,0.362 -0.109,0.166 -0.268,0.378 -0.476,0.634 -0.209,0.257 -0.439,0.52 -0.689,0.789 -0.251,0.269 -0.522,0.545 -0.812,0.825 -0.017,0.348 -0.041,0.677 -0.071,0.988 -0.031,0.311 -0.068,0.605 -0.111,0.88 -0.043,0.276 -0.085,0.494 -0.126,0.657 -0.041,0.161 -0.08,0.265 -0.118,0.31 -0.017,0.025 -0.06,0.046 -0.128,0.065 -0.068,0.018 -0.16,0.034 -0.275,0.045 -0.113,0.015 -0.233,0.026 -0.359,0.035 -0.126,0.007 -0.257,0.013 -0.394,0.018 -0.136,0.003 -0.268,0.004 -0.396,0.004 -0.128,0 -0.251,-10e-4 -0.371,-0.004 -0.12,-0.005 -0.216,-0.012 -0.288,-0.021 -0.072,-0.01 -0.119,-0.022 -0.143,-0.036 -0.056,-0.029 -0.112,-0.12 -0.169,-0.273 -0.057,-0.152 -0.115,-0.366 -0.172,-0.641 -0.06,-0.274 -0.112,-0.566 -0.156,-0.876 -0.044,-0.31 -0.082,-0.638 -0.112,-0.983 -0.307,-0.287 -0.593,-0.569 -0.857,-0.845 -0.264,-0.275 -0.508,-0.544 -0.731,-0.807 -0.22,-0.264 -0.387,-0.482 -0.502,-0.654 -0.115,-0.171 -0.178,-0.297 -0.192,-0.376 -0.008,-0.045 0,-0.107 0.027,-0.184 0.027,-0.077 0.073,-0.17 0.14,-0.28 0.07,-0.109 0.145,-0.217 0.227,-0.328 0.083,-0.11 0.171,-0.221 0.267,-0.333 0.096,-0.111 0.192,-0.216 0.288,-0.315 0.095,-0.099 0.192,-0.19 0.287,-0.274 0.096,-0.086 0.18,-0.153 0.25,-0.198 0.07,-0.045 0.127,-0.068 0.167,-0.071 0.097,-0.005 0.221,0.034 0.374,0.115 0.153,0.082 0.334,0.208 0.542,0.378 0.209,0.168 0.425,0.352 0.647,0.549 0.223,0.198 0.453,0.412 0.691,0.64 0.242,-0.228 0.474,-0.442 0.698,-0.641 0.225,-0.199 0.44,-0.385 0.649,-0.557 0.209,-0.17 0.391,-0.297 0.545,-0.379 0.155,-0.083 0.282,-0.122 0.381,-0.115 0.04,0.003 0.095,0.026 0.164,0.069 0.069,0.042 0.152,0.104 0.248,0.185 0.095,0.082 0.193,0.169 0.29,0.263 0.097,0.093 0.194,0.192 0.29,0.298 0.098,0.105 0.188,0.211 0.271,0.315 0.082,0.105 0.158,0.209 0.227,0.313 0.068,0.104 0.113,0.194 0.14,0.27 0.026,0.075 0.033,0.136 0.023,0.184 m -13.554,-2.863 c 0.125,-0.013 0.235,-0.041 0.332,-0.087 0.096,-0.045 0.179,-0.108 0.248,-0.187 0.07,-0.079 0.123,-0.16 0.158,-0.243 0.034,-0.084 0.051,-0.169 0.048,-0.255 0,-0.084 -0.02,-0.163 -0.059,-0.237 -0.04,-0.074 -0.099,-0.144 -0.175,-0.208 -0.08,-0.063 -0.18,-0.105 -0.302,-0.126 -0.123,-0.022 -0.266,-0.023 -0.432,-0.003 -0.134,0.013 -0.227,0.081 -0.28,0.201 -0.053,0.119 -0.065,0.292 -0.036,0.517 0.029,0.225 0.085,0.389 0.168,0.493 0.083,0.104 0.194,0.148 0.33,0.135 m 2.489,0.943 c 0.17,0.139 0.328,0.276 0.476,0.413 0.148,0.137 0.286,0.271 0.416,0.405 0.124,0.132 0.22,0.247 0.285,0.346 0.065,0.098 0.098,0.179 0.098,0.244 0,0.05 -0.013,0.109 -0.04,0.181 -0.027,0.07 -0.068,0.152 -0.123,0.245 -0.055,0.096 -0.114,0.19 -0.177,0.284 -0.063,0.095 -0.13,0.188 -0.202,0.281 -0.069,0.093 -0.139,0.182 -0.207,0.265 -0.068,0.084 -0.135,0.161 -0.2,0.233 -0.067,0.07 -0.124,0.119 -0.169,0.154 -0.046,0.034 -0.081,0.052 -0.105,0.057 -0.108,0.017 -0.239,0 -0.396,-0.054 -0.156,-0.055 -0.337,-0.147 -0.543,-0.282 -0.206,-0.131 -0.392,-0.243 -0.558,-0.331 -0.165,-0.089 -0.31,-0.154 -0.435,-0.195 -0.122,-0.038 -0.221,-0.049 -0.288,-0.033 -0.069,0.016 -0.107,0.059 -0.11,0.129 -0.005,0.117 -0.009,0.221 -0.018,0.311 -0.009,0.091 -0.022,0.167 -0.044,0.23 -0.024,0.064 -0.077,0.116 -0.158,0.155 -0.082,0.039 -0.192,0.065 -0.331,0.079 -0.158,0.018 -0.327,0.03 -0.508,0.039 -0.181,0.01 -0.374,0.014 -0.58,0.014 -0.204,0.003 -0.371,0 -0.499,-0.005 -0.129,-0.006 -0.221,-0.014 -0.273,-0.024 -0.038,-0.006 -0.072,-0.021 -0.102,-0.042 -0.03,-0.022 -0.057,-0.051 -0.081,-0.086 -0.033,-0.046 -0.068,-0.171 -0.104,-0.375 -0.036,-0.205 -0.073,-0.488 -0.111,-0.852 -0.038,-0.364 -0.072,-0.743 -0.101,-1.139 -0.03,-0.394 -0.055,-0.805 -0.077,-1.231 -0.021,-0.427 -0.037,-0.835 -0.046,-1.226 -0.01,-0.391 -0.014,-0.764 -0.011,-1.121 0.002,-0.357 0.016,-0.632 0.043,-0.823 0.026,-0.192 0.065,-0.303 0.115,-0.331 0.18,-0.101 0.39,-0.188 0.63,-0.26 0.24,-0.072 0.511,-0.131 0.813,-0.177 0.302,-0.043 0.604,-0.06 0.906,-0.052 0.301,0.007 0.602,0.041 0.901,0.1 0.3,0.061 0.584,0.153 0.853,0.277 0.269,0.124 0.522,0.279 0.759,0.466 0.235,0.187 0.427,0.417 0.572,0.693 0.146,0.274 0.245,0.593 0.295,0.955 0.07,0.48 0.057,0.895 -0.038,1.242 -0.094,0.348 -0.271,0.628 -0.527,0.841 m -12.572,3.519 c 0.127,-0.013 0.239,-0.044 0.336,-0.089 0.097,-0.046 0.18,-0.109 0.249,-0.188 0.07,-0.079 0.123,-0.16 0.157,-0.243 0.035,-0.083 0.052,-0.166 0.049,-0.25 0,-0.086 -0.02,-0.167 -0.06,-0.241 -0.04,-0.075 -0.1,-0.142 -0.179,-0.204 -0.077,-0.063 -0.176,-0.106 -0.298,-0.128 -0.122,-0.024 -0.265,-0.026 -0.431,-0.007 -0.134,0.014 -0.229,0.082 -0.283,0.201 -0.054,0.12 -0.067,0.293 -0.038,0.518 0.029,0.225 0.085,0.39 0.168,0.496 0.083,0.105 0.194,0.15 0.33,0.135 m 2.493,0.94 c 0.171,0.14 0.329,0.28 0.477,0.416 0.147,0.137 0.284,0.27 0.411,0.402 0.127,0.132 0.222,0.247 0.287,0.346 0.065,0.099 0.098,0.182 0.101,0.248 0,0.048 -0.013,0.108 -0.04,0.18 -0.027,0.071 -0.068,0.153 -0.123,0.247 -0.055,0.093 -0.114,0.186 -0.177,0.28 -0.063,0.095 -0.13,0.188 -0.202,0.285 -0.069,0.093 -0.139,0.181 -0.208,0.263 -0.069,0.082 -0.137,0.158 -0.204,0.23 -0.065,0.072 -0.12,0.123 -0.165,0.158 -0.045,0.034 -0.08,0.05 -0.104,0.052 -0.108,0.02 -0.24,0.003 -0.396,-0.052 -0.156,-0.055 -0.337,-0.149 -0.543,-0.283 -0.207,-0.132 -0.392,-0.242 -0.558,-0.33 -0.166,-0.088 -0.313,-0.153 -0.44,-0.196 -0.119,-0.039 -0.217,-0.05 -0.284,-0.033 -0.068,0.016 -0.106,0.059 -0.109,0.129 -0.005,0.119 -0.01,0.224 -0.018,0.315 -0.009,0.092 -0.022,0.168 -0.044,0.231 -0.024,0.062 -0.077,0.112 -0.159,0.15 -0.081,0.039 -0.191,0.065 -0.33,0.079 -0.158,0.017 -0.329,0.03 -0.51,0.04 -0.182,0.01 -0.375,0.016 -0.579,0.018 -0.203,0 -0.37,-0.002 -0.5,-0.008 -0.129,-0.005 -0.221,-0.014 -0.276,-0.026 -0.037,-0.007 -0.069,-0.021 -0.099,-0.042 -0.03,-0.021 -0.057,-0.048 -0.084,-0.083 -0.031,-0.044 -0.064,-0.17 -0.1,-0.376 -0.035,-0.206 -0.072,-0.49 -0.11,-0.854 -0.039,-0.364 -0.074,-0.743 -0.103,-1.139 -0.031,-0.395 -0.056,-0.805 -0.075,-1.232 -0.022,-0.424 -0.037,-0.832 -0.047,-1.223 -0.009,-0.39 -0.013,-0.764 -0.01,-1.119 0.002,-0.356 0.016,-0.632 0.042,-0.825 0.026,-0.192 0.063,-0.303 0.111,-0.329 0.18,-0.101 0.391,-0.188 0.632,-0.261 0.242,-0.073 0.514,-0.132 0.816,-0.175 0.302,-0.046 0.604,-0.064 0.906,-0.057 0.301,0.007 0.602,0.041 0.901,0.1 0.3,0.06 0.584,0.153 0.853,0.277 0.268,0.125 0.521,0.281 0.759,0.47 0.235,0.187 0.425,0.417 0.57,0.691 0.145,0.273 0.245,0.591 0.297,0.952 0.07,0.481 0.057,0.895 -0.038,1.243 -0.095,0.348 -0.271,0.627 -0.528,0.841 m -10.495,-3.813 c 0.288,-0.005 0.562,-0.01 0.823,-0.019 0.261,-0.008 0.508,-0.019 0.74,-0.033 0.233,-0.012 0.416,-0.009 0.553,0.008 0.136,0.017 0.227,0.046 0.272,0.087 0.041,0.041 0.079,0.138 0.113,0.294 0.033,0.157 0.062,0.372 0.083,0.65 0.02,0.28 0.026,0.522 0.018,0.725 -0.008,0.202 -0.029,0.366 -0.066,0.491 -0.016,0.053 -0.089,0.101 -0.219,0.144 -0.129,0.043 -0.315,0.081 -0.557,0.115 -0.245,0.035 -0.502,0.066 -0.774,0.09 -0.273,0.024 -0.559,0.042 -0.861,0.054 -0.302,0.012 -0.598,0.018 -0.888,0.02 -0.29,0.002 -0.575,-0.002 -0.852,-0.01 -0.279,-0.008 -0.508,-0.024 -0.688,-0.045 -0.182,-0.023 -0.315,-0.051 -0.401,-0.085 -0.048,-0.022 -0.092,-0.098 -0.133,-0.231 -0.041,-0.134 -0.078,-0.322 -0.111,-0.569 -0.032,-0.246 -0.06,-0.515 -0.085,-0.804 -0.026,-0.289 -0.047,-0.599 -0.064,-0.929 -0.019,-0.332 -0.034,-0.666 -0.044,-1.002 -0.011,-0.338 -0.018,-0.679 -0.023,-1.025 -0.003,-0.342 -0.003,-0.653 10e-4,-0.933 0.004,-0.281 0.011,-0.53 0.023,-0.748 0,-0.117 0.005,-0.229 0.014,-0.337 0.01,-0.109 0.024,-0.213 0.043,-0.314 0.019,-0.098 0.045,-0.177 0.075,-0.238 0.031,-0.061 0.067,-0.105 0.107,-0.131 0.041,-0.023 0.135,-0.046 0.28,-0.067 0.146,-0.021 0.344,-0.04 0.593,-0.057 0.25,-0.02 0.508,-0.035 0.777,-0.047 0.269,-0.012 0.549,-0.02 0.839,-0.025 0.29,-0.002 0.568,-0.001 0.835,0.005 0.268,0.004 0.524,0.014 0.771,0.029 0.245,0.014 0.438,0.034 0.579,0.059 0.141,0.026 0.231,0.055 0.27,0.089 0.04,0.038 0.075,0.128 0.101,0.271 0.026,0.143 0.042,0.34 0.047,0.591 0.005,0.25 0,0.468 -0.014,0.657 -0.016,0.188 -0.041,0.347 -0.077,0.473 -0.017,0.06 -0.084,0.108 -0.2,0.145 -0.116,0.036 -0.281,0.062 -0.495,0.075 -0.213,0.013 -0.446,0.026 -0.696,0.038 -0.251,0.013 -0.519,0.025 -0.805,0.034 0,0.046 0.003,0.092 0.006,0.139 0.003,0.047 0.006,0.094 0.009,0.139 0.187,0.003 0.357,0.01 0.509,0.023 0.152,0.013 0.287,0.032 0.402,0.059 0.028,0.007 0.057,0.036 0.085,0.086 0.029,0.049 0.056,0.12 0.082,0.211 0.027,0.089 0.051,0.181 0.071,0.28 0.019,0.098 0.035,0.201 0.045,0.309 0.009,0.105 0.014,0.207 0.013,0.305 0,0.098 -0.006,0.193 -0.018,0.283 -0.012,0.092 -0.032,0.162 -0.061,0.209 -0.029,0.049 -0.066,0.077 -0.112,0.083 -0.033,0.008 -0.08,0.018 -0.14,0.027 -0.06,0.01 -0.133,0.019 -0.219,0.026 -0.087,0.008 -0.178,0.015 -0.274,0.021 -0.096,0.006 -0.196,0.01 -0.302,0.013 z m -10.701,2.994 c 0.163,-0.243 0.323,-0.479 0.482,-0.711 0.158,-0.233 0.314,-0.46 0.467,-0.683 0.151,-0.221 0.295,-0.413 0.431,-0.579 0.135,-0.166 0.262,-0.305 0.379,-0.417 0.051,-0.051 0.125,-0.094 0.225,-0.13 0.099,-0.037 0.224,-0.066 0.375,-0.091 0.148,-0.021 0.299,-0.038 0.454,-0.049 0.154,-0.01 0.313,-0.015 0.476,-0.012 0.16,0.002 0.314,0.008 0.46,0.021 0.145,0.013 0.283,0.03 0.412,0.055 0.132,0.021 0.237,0.048 0.313,0.079 0.076,0.032 0.124,0.069 0.143,0.112 0.031,0.073 0.058,0.215 0.083,0.428 0.025,0.214 0.046,0.499 0.066,0.855 0.016,0.355 0.03,0.725 0.038,1.11 0.01,0.384 0.015,0.783 0.015,1.194 0,0.412 -0.005,0.81 -0.015,1.193 -0.01,0.382 -0.024,0.75 -0.043,1.101 -0.02,0.353 -0.044,0.634 -0.075,0.843 -0.031,0.209 -0.069,0.346 -0.117,0.407 -0.034,0.041 -0.135,0.073 -0.305,0.099 -0.169,0.025 -0.404,0.043 -0.707,0.054 -0.302,0.01 -0.559,0.011 -0.772,0.004 -0.213,-0.007 -0.381,-0.022 -0.503,-0.047 -0.048,-0.009 -0.096,-0.085 -0.142,-0.229 -0.046,-0.143 -0.091,-0.353 -0.132,-0.628 -0.04,-0.275 -0.075,-0.552 -0.103,-0.83 -0.028,-0.278 -0.05,-0.559 -0.064,-0.841 -0.034,0.033 -0.079,0.081 -0.138,0.143 -0.059,0.061 -0.131,0.137 -0.217,0.225 -0.084,0.089 -0.171,0.18 -0.262,0.273 -0.092,0.092 -0.186,0.185 -0.284,0.278 -0.099,0.094 -0.195,0.183 -0.288,0.266 -0.094,0.083 -0.185,0.161 -0.273,0.232 -0.092,0.074 -0.171,0.13 -0.238,0.166 -0.067,0.037 -0.122,0.055 -0.165,0.055 -0.041,0 -0.094,-0.018 -0.158,-0.053 -0.065,-0.036 -0.142,-0.089 -0.23,-0.158 -0.087,-0.067 -0.174,-0.141 -0.264,-0.221 -0.089,-0.079 -0.18,-0.165 -0.274,-0.253 -0.093,-0.091 -0.184,-0.18 -0.272,-0.268 -0.088,-0.089 -0.173,-0.175 -0.255,-0.259 -0.081,-0.086 -0.15,-0.159 -0.206,-0.219 -0.057,-0.059 -0.101,-0.106 -0.134,-0.14 -0.02,0.263 -0.044,0.529 -0.073,0.796 -0.029,0.268 -0.064,0.538 -0.105,0.808 -0.038,0.271 -0.079,0.479 -0.122,0.621 -0.042,0.144 -0.086,0.223 -0.132,0.236 -0.062,0.02 -0.139,0.035 -0.23,0.044 -0.091,0.01 -0.197,0.017 -0.317,0.019 -0.119,0.005 -0.241,0.006 -0.364,0.005 -0.124,-10e-4 -0.247,-0.005 -0.369,-0.01 -0.125,-0.005 -0.242,-0.012 -0.353,-0.022 -0.111,-0.01 -0.215,-0.024 -0.314,-0.04 -0.098,-0.014 -0.174,-0.032 -0.23,-0.049 -0.056,-0.018 -0.091,-0.037 -0.105,-0.057 -0.045,-0.061 -0.085,-0.198 -0.119,-0.409 -0.033,-0.211 -0.061,-0.495 -0.083,-0.855 -0.024,-0.362 -0.041,-0.736 -0.054,-1.125 -0.013,-0.388 -0.02,-0.791 -0.022,-1.208 -0.003,-0.416 0,-0.817 0.006,-1.203 0.007,-0.386 0.018,-0.758 0.032,-1.114 0.014,-0.354 0.035,-0.634 0.06,-0.838 0.025,-0.204 0.055,-0.333 0.089,-0.389 0.026,-0.04 0.078,-0.076 0.156,-0.108 0.078,-0.031 0.184,-0.059 0.318,-0.083 0.132,-0.021 0.27,-0.038 0.415,-0.05 0.144,-0.012 0.295,-0.019 0.453,-0.021 0.161,0 0.317,0.006 0.469,0.016 0.152,0.012 0.301,0.029 0.447,0.05 0.146,0.025 0.27,0.054 0.37,0.091 0.1,0.036 0.177,0.079 0.23,0.13 0.114,0.112 0.24,0.251 0.376,0.417 0.136,0.166 0.283,0.358 0.438,0.579 0.156,0.223 0.313,0.45 0.472,0.683 0.158,0.232 0.317,0.468 0.478,0.711 m 54.562,10.631 c -0.036,0 -0.07,-0.003 -0.101,-0.012 -0.032,-0.009 -0.062,-0.024 -0.091,-0.045 -0.033,-0.024 -0.06,-0.05 -0.078,-0.077 -0.018,-0.028 -0.027,-0.057 -0.027,-0.085 0,-0.03 -0.008,-0.059 -0.024,-0.088 -0.016,-0.029 -0.041,-0.056 -0.077,-0.08 -0.136,-0.086 -0.479,0.038 -0.656,0.211 -0.176,0.173 -0.186,0.394 0.344,0.503 0.389,0.081 0.758,0.144 1.113,0.249 0.356,0.103 0.697,0.249 1.031,0.493 0.27,0.198 0.484,0.427 0.639,0.685 0.157,0.259 0.255,0.548 0.295,0.866 0.041,0.321 0.017,0.625 -0.071,0.911 -0.089,0.286 -0.243,0.555 -0.461,0.808 -0.256,0.298 -0.559,0.532 -0.909,0.703 -0.349,0.171 -0.745,0.28 -1.186,0.323 -0.439,0.043 -0.849,0.017 -1.229,-0.075 -0.38,-0.091 -0.732,-0.252 -1.053,-0.476 -0.273,-0.194 -0.497,-0.364 -0.67,-0.56 -0.173,-0.194 -0.294,-0.415 -0.361,-0.71 -0.033,-0.138 -0.014,-0.261 0.055,-0.369 0.07,-0.108 0.19,-0.2 0.358,-0.277 0.074,-0.033 0.153,-0.062 0.235,-0.087 0.083,-0.024 0.169,-0.045 0.258,-0.062 0.091,-0.013 0.18,-0.026 0.266,-0.034 0.087,-0.009 0.171,-0.013 0.252,-0.013 0.136,0 0.266,0.008 0.388,0.024 0.122,0.017 0.238,0.04 0.346,0.071 0.11,0.034 0.196,0.073 0.258,0.119 0.063,0.047 0.101,0.099 0.116,0.16 0.014,0.059 0.045,0.107 0.086,0.147 0.041,0.04 0.091,0.072 0.144,0.102 0.136,0.081 0.318,0.028 0.445,-0.086 0.128,-0.115 0.202,-0.29 0.125,-0.455 -0.017,-0.037 -0.05,-0.069 -0.1,-0.098 -0.049,-0.029 -0.115,-0.056 -0.197,-0.08 -0.194,-0.055 -0.387,-0.105 -0.58,-0.147 -0.192,-0.043 -0.384,-0.078 -0.576,-0.107 -0.191,-0.028 -0.377,-0.084 -0.558,-0.163 -0.181,-0.078 -0.357,-0.182 -0.53,-0.306 -0.125,-0.092 -0.235,-0.196 -0.332,-0.318 -0.097,-0.121 -0.181,-0.259 -0.253,-0.415 -0.069,-0.155 -0.116,-0.336 -0.14,-0.542 -0.023,-0.205 -0.023,-0.435 10e-4,-0.689 0.033,-0.347 0.133,-0.662 0.299,-0.946 0.166,-0.283 0.399,-0.536 0.698,-0.759 0.176,-0.129 0.362,-0.238 0.562,-0.325 0.2,-0.088 0.412,-0.153 0.637,-0.197 0.223,-0.043 0.443,-0.065 0.662,-0.065 0.218,0 0.434,0.022 0.647,0.065 0.314,0.065 0.726,0.235 1.084,0.47 0.358,0.236 0.661,0.536 0.757,0.862 0.024,0.084 0.024,0.161 0,0.233 -0.024,0.072 -0.072,0.138 -0.144,0.197 -0.072,0.063 -0.152,0.12 -0.241,0.169 -0.088,0.051 -0.185,0.095 -0.291,0.133 -0.108,0.041 -0.217,0.075 -0.327,0.105 -0.11,0.029 -0.222,0.053 -0.334,0.073 -0.113,0.019 -0.211,0.034 -0.295,0.046 -0.084,0.011 -0.154,0.018 -0.209,0.02 m -9.34,4.296 c -0.055,0.061 -0.11,0.138 -0.165,0.236 -0.054,0.096 -0.108,0.213 -0.161,0.349 -0.053,0.136 -0.089,0.249 -0.108,0.338 -0.019,0.089 -0.021,0.155 -0.007,0.198 0.024,0.072 0.09,0.124 0.197,0.158 0.108,0.033 0.256,0.045 0.446,0.039 0.187,-0.007 0.333,-0.034 0.436,-0.079 0.103,-0.046 0.163,-0.111 0.177,-0.195 0.01,-0.053 -0.009,-0.137 -0.058,-0.255 -0.049,-0.117 -0.126,-0.266 -0.234,-0.448 -0.111,-0.183 -0.209,-0.301 -0.296,-0.357 -0.087,-0.056 -0.162,-0.05 -0.227,0.016 m -3.212,4.368 c -0.029,-0.033 -0.053,-0.07 -0.07,-0.11 -0.016,-0.041 -0.026,-0.084 -0.026,-0.129 -0.005,-0.161 0.007,-0.362 0.035,-0.603 0.027,-0.242 0.07,-0.523 0.128,-0.843 0.06,-0.321 0.127,-0.65 0.202,-0.984 0.075,-0.334 0.158,-0.676 0.249,-1.023 0.088,-0.348 0.179,-0.684 0.273,-1.01 0.095,-0.325 0.192,-0.64 0.292,-0.944 0.101,-0.305 0.195,-0.563 0.282,-0.776 0.087,-0.214 0.167,-0.383 0.241,-0.507 0.029,-0.048 0.087,-0.094 0.175,-0.137 0.088,-0.043 0.204,-0.084 0.347,-0.122 0.144,-0.038 0.297,-0.071 0.457,-0.098 0.16,-0.027 0.328,-0.049 0.502,-0.065 0.176,-0.015 0.347,-0.022 0.515,-0.021 0.169,0 0.334,0.009 0.497,0.026 0.161,0.014 0.298,0.041 0.413,0.078 0.113,0.038 0.203,0.087 0.268,0.146 0.091,0.089 0.192,0.232 0.301,0.428 0.109,0.195 0.227,0.444 0.351,0.746 0.127,0.302 0.253,0.616 0.377,0.946 0.124,0.328 0.246,0.67 0.366,1.027 0.12,0.354 0.234,0.703 0.342,1.045 0.108,0.341 0.209,0.675 0.306,1.001 0.095,0.327 0.175,0.606 0.24,0.837 0.064,0.23 0.112,0.413 0.143,0.547 0.021,0.1 0.029,0.185 0.022,0.254 -0.006,0.07 -0.027,0.123 -0.06,0.163 -0.036,0.038 -0.084,0.07 -0.145,0.096 -0.06,0.027 -0.133,0.047 -0.22,0.061 -0.143,0.026 -0.306,0.048 -0.488,0.066 -0.181,0.019 -0.38,0.034 -0.595,0.049 -0.214,0.012 -0.389,0.02 -0.524,0.021 -0.136,0.003 -0.231,0 -0.286,-0.006 -0.022,-0.003 -0.042,-0.008 -0.062,-0.015 -0.02,-0.007 -0.039,-0.017 -0.059,-0.028 -0.057,-0.036 -0.114,-0.107 -0.171,-0.212 -0.058,-0.105 -0.114,-0.243 -0.169,-0.416 -0.055,-0.172 -0.11,-0.318 -0.165,-0.435 -0.054,-0.118 -0.108,-0.209 -0.161,-0.274 -0.031,-0.038 -0.067,-0.072 -0.108,-0.096 -0.042,-0.023 -0.088,-0.038 -0.141,-0.038 l -0.405,-0.002 -0.406,-0.003 c -0.127,0 -0.232,0.023 -0.316,0.066 -0.083,0.043 -0.144,0.107 -0.182,0.188 -0.048,0.103 -0.101,0.212 -0.157,0.327 -0.057,0.114 -0.117,0.235 -0.179,0.362 -0.062,0.127 -0.117,0.231 -0.164,0.31 -0.047,0.078 -0.085,0.134 -0.114,0.165 -0.072,0.079 -0.295,0.104 -0.524,0.108 -0.23,0.005 -0.466,-0.01 -0.564,-0.012 -0.254,-0.007 -0.452,-0.026 -0.595,-0.052 -0.144,-0.026 -0.232,-0.061 -0.268,-0.102 m -6.425,-8.898 c 0.163,-0.242 0.324,-0.479 0.482,-0.711 0.158,-0.231 0.314,-0.458 0.467,-0.678 0.151,-0.22 0.295,-0.414 0.431,-0.581 0.135,-0.168 0.262,-0.307 0.38,-0.42 0.05,-0.047 0.125,-0.09 0.225,-0.128 0.101,-0.036 0.226,-0.066 0.374,-0.087 0.148,-0.024 0.3,-0.041 0.454,-0.052 0.155,-0.011 0.313,-0.016 0.476,-0.016 0.161,0.003 0.314,0.01 0.46,0.023 0.146,0.012 0.283,0.03 0.413,0.054 0.132,0.022 0.236,0.049 0.312,0.081 0.076,0.033 0.124,0.07 0.143,0.111 0.032,0.072 0.059,0.216 0.083,0.429 0.025,0.215 0.047,0.499 0.066,0.854 0.017,0.357 0.03,0.727 0.039,1.111 0.009,0.384 0.013,0.781 0.013,1.193 0,0.412 -0.004,0.809 -0.014,1.192 -0.009,0.383 -0.024,0.75 -0.043,1.102 -0.019,0.352 -0.043,0.633 -0.074,0.842 -0.032,0.209 -0.07,0.346 -0.118,0.408 -0.033,0.044 -0.135,0.076 -0.304,0.1 -0.169,0.025 -0.406,0.041 -0.707,0.053 -0.303,0.01 -0.56,0.011 -0.773,0.004 -0.213,-0.007 -0.381,-0.023 -0.503,-0.047 -0.048,-0.01 -0.096,-0.086 -0.142,-0.23 -0.046,-0.142 -0.09,-0.352 -0.131,-0.628 -0.041,-0.275 -0.075,-0.551 -0.104,-0.83 -0.028,-0.278 -0.049,-0.558 -0.064,-0.84 -0.031,0.033 -0.077,0.081 -0.136,0.142 -0.059,0.062 -0.132,0.138 -0.219,0.226 -0.084,0.089 -0.171,0.179 -0.262,0.272 -0.091,0.092 -0.186,0.186 -0.284,0.279 -0.099,0.093 -0.194,0.182 -0.288,0.266 -0.093,0.083 -0.185,0.162 -0.273,0.236 -0.091,0.073 -0.169,0.126 -0.235,0.163 -0.066,0.036 -0.12,0.053 -0.163,0.053 -0.043,0 -0.097,-0.016 -0.163,-0.05 -0.065,-0.035 -0.142,-0.086 -0.23,-0.156 -0.086,-0.069 -0.174,-0.144 -0.263,-0.224 -0.09,-0.081 -0.181,-0.166 -0.274,-0.254 -0.094,-0.091 -0.185,-0.181 -0.273,-0.27 -0.088,-0.088 -0.173,-0.174 -0.254,-0.258 -0.082,-0.086 -0.15,-0.159 -0.207,-0.218 -0.056,-0.06 -0.101,-0.107 -0.134,-0.141 -0.019,0.264 -0.043,0.529 -0.073,0.797 -0.029,0.267 -0.063,0.537 -0.105,0.807 -0.038,0.271 -0.079,0.479 -0.121,0.622 -0.043,0.143 -0.087,0.221 -0.132,0.236 -0.063,0.019 -0.14,0.034 -0.231,0.044 -0.091,0.01 -0.196,0.015 -0.316,0.018 -0.12,0.005 -0.242,0.006 -0.365,0.005 -0.123,-0.001 -0.247,-0.005 -0.369,-0.009 -0.124,-0.005 -0.242,-0.012 -0.353,-0.022 -0.111,-0.01 -0.215,-0.021 -0.313,-0.036 -0.098,-0.017 -0.175,-0.034 -0.231,-0.053 -0.056,-0.018 -0.09,-0.038 -0.105,-0.057 -0.046,-0.062 -0.085,-0.199 -0.118,-0.41 -0.034,-0.211 -0.062,-0.495 -0.083,-0.854 -0.024,-0.359 -0.042,-0.734 -0.054,-1.123 -0.013,-0.39 -0.021,-0.793 -0.023,-1.21 -0.002,-0.416 0,-0.817 0.007,-1.203 0.006,-0.386 0.017,-0.755 0.032,-1.11 0.014,-0.357 0.034,-0.637 0.059,-0.841 0.026,-0.205 0.055,-0.334 0.089,-0.39 0.026,-0.04 0.078,-0.076 0.156,-0.107 0.079,-0.032 0.184,-0.058 0.319,-0.08 0.131,-0.024 0.271,-0.042 0.416,-0.053 0.145,-0.012 0.296,-0.019 0.451,-0.019 0.161,-0.002 0.317,0.003 0.469,0.015 0.152,0.011 0.301,0.029 0.447,0.053 0.146,0.021 0.27,0.05 0.37,0.085 0.1,0.037 0.177,0.08 0.229,0.13 0.116,0.113 0.242,0.251 0.377,0.418 0.137,0.166 0.283,0.361 0.439,0.583 0.156,0.22 0.312,0.447 0.471,0.678 0.158,0.232 0.317,0.469 0.478,0.711 m -9.028,9.636 c -0.022,0.031 -0.061,0.061 -0.121,0.088 -0.06,0.027 -0.14,0.05 -0.243,0.07 -0.101,0.019 -0.209,0.035 -0.324,0.047 -0.115,0.013 -0.237,0.022 -0.367,0.029 -0.127,0.005 -0.254,0.005 -0.381,0.002 -0.127,-0.004 -0.254,-0.011 -0.381,-0.02 -0.125,-0.01 -0.234,-0.025 -0.328,-0.043 -0.094,-0.019 -0.173,-0.041 -0.238,-0.068 -0.069,-0.031 -0.134,-0.168 -0.195,-0.41 -0.06,-0.243 -0.117,-0.593 -0.169,-1.051 -0.055,-0.455 -0.103,-0.913 -0.144,-1.375 -0.041,-0.461 -0.075,-0.926 -0.101,-1.392 -0.245,-0.005 -0.472,-0.014 -0.683,-0.027 -0.211,-0.012 -0.405,-0.029 -0.583,-0.05 -0.177,-0.019 -0.314,-0.044 -0.411,-0.075 -0.097,-0.031 -0.154,-0.066 -0.173,-0.107 -0.032,-0.063 -0.061,-0.144 -0.087,-0.244 -0.026,-0.101 -0.05,-0.221 -0.072,-0.36 -0.022,-0.138 -0.039,-0.28 -0.053,-0.422 -0.014,-0.144 -0.023,-0.289 -0.028,-0.435 -0.008,-0.146 -0.011,-0.285 -0.01,-0.417 0,-0.133 0.005,-0.258 0.015,-0.378 0.009,-0.117 0.025,-0.208 0.046,-0.275 0.021,-0.068 0.047,-0.111 0.078,-0.132 0.05,-0.033 0.156,-0.069 0.318,-0.1 0.162,-0.032 0.38,-0.06 0.655,-0.082 0.276,-0.021 0.572,-0.041 0.889,-0.056 0.317,-0.017 0.655,-0.031 1.015,-0.04 0.357,-0.009 0.718,-0.015 1.082,-0.018 0.364,-0.002 0.733,-0.001 1.104,0.004 0.369,0.002 0.706,0.009 1.01,0.017 0.304,0.01 0.575,0.024 0.812,0.04 0.094,0.005 0.173,0.048 0.237,0.129 0.065,0.08 0.115,0.2 0.152,0.355 0.033,0.156 0.056,0.318 0.068,0.488 0.012,0.17 0.013,0.348 0.003,0.532 -0.009,0.185 -0.026,0.501 -0.081,0.78 -0.054,0.277 -0.146,0.515 -0.307,0.542 l -0.659,0.113 -0.66,0.112 -0.174,0.029 -0.175,0.029 c -0.005,0.464 -0.016,0.92 -0.033,1.368 -0.018,0.448 -0.042,0.887 -0.073,1.318 -0.029,0.434 -0.064,0.773 -0.102,1.019 -0.039,0.247 -0.083,0.401 -0.128,0.466 m -9.105,-9.66 c -0.036,0.003 -0.07,-10e-4 -0.101,-0.01 -0.032,-0.009 -0.062,-0.024 -0.091,-0.042 -0.033,-0.025 -0.052,-0.052 -0.067,-0.08 -0.014,-0.029 -0.024,-0.057 -0.038,-0.083 -0.13,-0.252 -0.489,-0.18 -0.689,-0.019 -0.198,0.161 -0.237,0.411 0.276,0.517 0.058,0.012 0.116,0.022 0.173,0.033 0.057,0.01 0.115,0.02 0.173,0.029 0.381,0.067 0.721,0.157 1.021,0.27 0.299,0.113 0.559,0.25 0.776,0.41 0.274,0.196 0.487,0.425 0.643,0.685 0.155,0.258 0.252,0.548 0.292,0.867 0.041,0.318 0.017,0.621 -0.071,0.907 -0.089,0.286 -0.242,0.556 -0.461,0.808 -0.256,0.298 -0.559,0.533 -0.909,0.705 -0.349,0.171 -0.745,0.278 -1.186,0.324 -0.438,0.043 -0.849,0.065 -1.229,0.02 -0.381,-0.045 -0.732,-0.157 -1.053,-0.384 -0.274,-0.194 -0.498,-0.412 -0.67,-0.655 -0.173,-0.243 -0.294,-0.511 -0.361,-0.805 -0.034,-0.137 -0.014,-0.259 0.055,-0.367 0.07,-0.107 0.19,-0.199 0.357,-0.276 0.075,-0.033 0.154,-0.063 0.236,-0.088 0.083,-0.025 0.169,-0.046 0.258,-0.06 0.091,-0.014 0.18,-0.027 0.266,-0.035 0.087,-0.008 0.17,-0.013 0.252,-0.013 0.137,-0.002 0.266,0.005 0.389,0.021 0.122,0.016 0.237,0.041 0.345,0.074 0.11,0.032 0.196,0.07 0.259,0.116 0.062,0.046 0.1,0.098 0.115,0.158 0.014,0.062 0.043,0.116 0.082,0.159 0.04,0.043 0.09,0.075 0.148,0.095 0.124,0.04 0.305,-0.012 0.436,-0.116 0.131,-0.105 0.211,-0.26 0.134,-0.425 -0.017,-0.039 -0.05,-0.072 -0.1,-0.103 -0.049,-0.029 -0.115,-0.055 -0.197,-0.08 -0.194,-0.054 -0.387,-0.103 -0.579,-0.146 -0.193,-0.042 -0.385,-0.078 -0.577,-0.108 -0.189,-0.028 -0.375,-0.082 -0.556,-0.161 -0.182,-0.078 -0.359,-0.18 -0.532,-0.307 -0.124,-0.089 -0.235,-0.195 -0.332,-0.317 -0.097,-0.122 -0.181,-0.261 -0.253,-0.417 -0.069,-0.153 -0.116,-0.332 -0.14,-0.538 -0.023,-0.205 -0.023,-0.436 10e-4,-0.692 0.034,-0.345 0.133,-0.659 0.299,-0.942 0.166,-0.283 0.399,-0.536 0.699,-0.759 0.174,-0.131 0.361,-0.24 0.561,-0.327 0.2,-0.087 0.412,-0.151 0.637,-0.194 0.223,-0.046 0.444,-0.068 0.662,-0.068 0.218,0 0.433,0.022 0.647,0.068 0.211,0.043 0.411,0.107 0.601,0.194 0.19,0.087 0.37,0.196 0.54,0.327 0.17,0.132 0.314,0.286 0.431,0.46 0.117,0.175 0.207,0.372 0.269,0.589 0.024,0.084 0.024,0.115 0.001,0.138 -0.024,0.024 -0.07,0.042 -0.14,0.102 -0.072,0.06 -0.153,0.115 -0.243,0.165 -0.09,0.05 -0.189,0.096 -0.294,0.136 -0.108,0.038 -0.217,0.074 -0.327,0.104 -0.111,0.029 -0.222,0.055 -0.335,0.074 -0.112,0.019 -0.211,0.033 -0.295,0.043 -0.083,0.011 -0.153,0.017 -0.208,0.019 m -5.859,8.745 c -0.038,0.062 -0.142,0.115 -0.313,0.155 -0.171,0.04 -0.411,0.068 -0.723,0.08 -0.309,0.012 -0.574,0.007 -0.794,-0.015 -0.22,-0.021 -0.395,-0.059 -0.524,-0.115 -0.058,-0.023 -0.114,-0.12 -0.169,-0.291 -0.054,-0.17 -0.107,-0.413 -0.157,-0.728 -0.051,-0.314 -0.098,-0.649 -0.143,-1.002 -0.044,-0.354 -0.085,-0.728 -0.121,-1.12 -0.036,-0.393 -0.067,-0.779 -0.093,-1.157 -0.027,-0.379 -0.049,-0.75 -0.065,-1.113 -0.017,-0.364 -0.025,-0.667 -0.026,-0.91 0,-0.242 0.007,-0.424 0.021,-0.546 0.012,-0.101 0.065,-0.189 0.158,-0.266 0.092,-0.077 0.226,-0.141 0.398,-0.194 0.175,-0.051 0.359,-0.091 0.55,-0.12 0.191,-0.029 0.39,-0.048 0.596,-0.053 0.209,-0.007 0.408,-0.002 0.598,0.015 0.19,0.016 0.371,0.046 0.543,0.086 0.173,0.041 0.305,0.092 0.396,0.153 0.091,0.062 0.141,0.135 0.151,0.221 0.027,0.237 0.047,0.508 0.061,0.811 0.014,0.305 0.023,0.642 0.025,1.013 0.003,0.372 0.002,0.74 -0.005,1.106 -0.006,0.367 -0.016,0.731 -0.033,1.092 -0.015,0.363 -0.033,0.702 -0.054,1.022 -0.022,0.318 -0.047,0.617 -0.075,0.894 -0.032,0.279 -0.065,0.497 -0.1,0.66 -0.034,0.163 -0.068,0.27 -0.102,0.322 m -8.472,-8.032 c 0.125,-0.011 0.235,-0.042 0.331,-0.088 0.097,-0.046 0.18,-0.11 0.249,-0.189 0.07,-0.077 0.122,-0.157 0.157,-0.239 0.035,-0.083 0.052,-0.168 0.049,-0.254 0,-0.087 -0.02,-0.167 -0.06,-0.241 -0.039,-0.074 -0.098,-0.143 -0.174,-0.204 -0.08,-0.063 -0.181,-0.105 -0.303,-0.127 -0.122,-0.023 -0.266,-0.025 -0.431,-0.008 -0.135,0.016 -0.228,0.085 -0.281,0.205 -0.054,0.121 -0.067,0.293 -0.041,0.519 0.029,0.224 0.086,0.388 0.17,0.493 0.083,0.104 0.195,0.148 0.334,0.133 m 2.489,0.944 c 0.169,0.139 0.328,0.277 0.475,0.413 0.148,0.136 0.284,0.269 0.411,0.401 0.127,0.132 0.223,0.248 0.288,0.348 0.065,0.099 0.098,0.182 0.101,0.246 0,0.048 -0.013,0.107 -0.041,0.179 -0.026,0.071 -0.067,0.154 -0.122,0.248 -0.055,0.093 -0.114,0.187 -0.177,0.282 -0.063,0.095 -0.13,0.189 -0.202,0.282 -0.069,0.094 -0.139,0.183 -0.208,0.265 -0.068,0.083 -0.135,0.159 -0.2,0.228 -0.067,0.073 -0.123,0.124 -0.169,0.159 -0.045,0.035 -0.08,0.052 -0.104,0.057 -0.108,0.017 -0.239,-10e-4 -0.396,-0.056 -0.156,-0.055 -0.338,-0.147 -0.544,-0.279 -0.206,-0.132 -0.392,-0.243 -0.557,-0.332 -0.165,-0.089 -0.31,-0.154 -0.435,-0.195 -0.122,-0.04 -0.221,-0.051 -0.289,-0.034 -0.068,0.016 -0.107,0.06 -0.109,0.13 -0.005,0.118 -0.01,0.221 -0.019,0.312 -0.009,0.09 -0.022,0.167 -0.043,0.23 -0.024,0.061 -0.077,0.113 -0.159,0.153 -0.081,0.039 -0.191,0.066 -0.331,0.081 -0.158,0.017 -0.328,0.03 -0.509,0.039 -0.182,0.009 -0.375,0.014 -0.579,0.014 -0.204,0.002 -0.37,0 -0.499,-0.006 -0.129,-0.005 -0.22,-0.014 -0.273,-0.024 -0.038,-0.006 -0.072,-0.021 -0.102,-0.043 -0.031,-0.021 -0.059,-0.049 -0.085,-0.085 -0.031,-0.046 -0.064,-0.17 -0.1,-0.375 -0.035,-0.204 -0.072,-0.488 -0.111,-0.851 -0.038,-0.364 -0.073,-0.745 -0.103,-1.141 -0.03,-0.395 -0.055,-0.806 -0.074,-1.23 -0.022,-0.426 -0.037,-0.835 -0.047,-1.226 -0.009,-0.39 -0.013,-0.764 -0.011,-1.121 0.003,-0.356 0.017,-0.631 0.043,-0.823 0.026,-0.192 0.063,-0.303 0.111,-0.331 0.182,-0.101 0.393,-0.188 0.634,-0.261 0.241,-0.073 0.512,-0.132 0.814,-0.175 0.302,-0.043 0.604,-0.061 0.906,-0.053 0.301,0.007 0.602,0.042 0.901,0.101 0.3,0.06 0.584,0.153 0.853,0.276 0.268,0.124 0.521,0.28 0.758,0.466 0.235,0.187 0.427,0.418 0.573,0.693 0.146,0.275 0.245,0.593 0.295,0.955 0.07,0.481 0.057,0.895 -0.038,1.243 -0.095,0.347 -0.271,0.627 -0.527,0.84 m -11.599,7.591 c -0.033,0.065 -0.127,0.118 -0.282,0.158 -0.155,0.04 -0.372,0.067 -0.653,0.082 -0.28,0.012 -0.52,0.008 -0.719,-0.013 -0.199,-0.019 -0.357,-0.056 -0.475,-0.112 -0.055,-0.024 -0.107,-0.121 -0.159,-0.29 -0.051,-0.17 -0.102,-0.411 -0.152,-0.726 -0.05,-0.313 -0.097,-0.647 -0.141,-1.001 -0.044,-0.352 -0.085,-0.725 -0.123,-1.115 -0.036,-0.391 -0.068,-0.774 -0.096,-1.152 -0.029,-0.377 -0.053,-0.747 -0.072,-1.109 -0.019,-0.361 -0.031,-0.663 -0.035,-0.905 -0.004,-0.242 -0.001,-0.424 0.011,-0.546 0.008,-0.1 0.053,-0.189 0.137,-0.266 0.083,-0.077 0.204,-0.141 0.362,-0.194 0.156,-0.053 0.32,-0.095 0.492,-0.124 0.172,-0.03 0.352,-0.048 0.539,-0.053 0.187,-0.004 0.365,0.001 0.537,0.018 0.171,0.017 0.335,0.045 0.493,0.083 0.157,0.04 0.276,0.091 0.36,0.151 0.083,0.062 0.13,0.134 0.139,0.217 0.015,0.14 0.028,0.291 0.04,0.457 0.012,0.166 0.022,0.346 0.032,0.539 0.01,0.193 0.018,0.39 0.025,0.593 0.007,0.203 0.011,0.411 0.014,0.624 0.141,-0.007 0.285,-0.013 0.432,-0.018 0.146,-0.004 0.296,-0.008 0.45,-0.01 -0.007,-0.214 -0.012,-0.419 -0.015,-0.619 -0.003,-0.201 -0.004,-0.395 -0.004,-0.583 0.002,-0.19 0.005,-0.366 0.011,-0.53 0.005,-0.163 0.013,-0.313 0.022,-0.453 0.005,-0.083 0.048,-0.157 0.128,-0.221 0.081,-0.063 0.198,-0.116 0.352,-0.157 0.156,-0.041 0.319,-0.069 0.489,-0.087 0.171,-0.017 0.35,-0.023 0.537,-0.018 0.187,0.005 0.366,0.021 0.54,0.051 0.173,0.028 0.34,0.069 0.5,0.122 0.158,0.049 0.282,0.113 0.369,0.189 0.088,0.076 0.14,0.165 0.154,0.266 0.016,0.122 0.028,0.304 0.033,0.548 0.006,0.243 0.008,0.545 0.005,0.907 -0.005,0.362 -0.013,0.732 -0.026,1.109 -0.012,0.377 -0.029,0.761 -0.05,1.152 -0.02,0.392 -0.045,0.765 -0.074,1.118 -0.03,0.352 -0.063,0.685 -0.099,0.999 -0.039,0.313 -0.079,0.555 -0.123,0.724 -0.044,0.17 -0.091,0.267 -0.141,0.29 -0.113,0.056 -0.268,0.094 -0.466,0.116 -0.198,0.021 -0.438,0.026 -0.718,0.014 -0.281,-0.011 -0.498,-0.038 -0.654,-0.077 -0.157,-0.039 -0.252,-0.091 -0.291,-0.152 -0.021,-0.036 -0.048,-0.104 -0.075,-0.203 -0.028,-0.099 -0.057,-0.231 -0.083,-0.397 -0.026,-0.167 -0.051,-0.351 -0.075,-0.554 -0.025,-0.201 -0.047,-0.42 -0.069,-0.657 -0.292,0.058 -0.505,0.05 -0.68,0.032 -0.175,-0.016 -0.31,-0.045 -0.447,-0.027 -0.014,0.218 -0.027,0.459 -0.041,0.684 -0.014,0.223 -0.028,0.429 -0.045,0.575 -0.019,0.148 -0.04,0.268 -0.06,0.36 -0.02,0.092 -0.041,0.155 -0.06,0.191 m -6.05,-8.477 c -0.072,0.005 -0.143,0.011 -0.213,0.019 -0.07,0.007 -0.14,0.017 -0.209,0.029 -0.173,0.033 -0.338,0.092 -0.495,0.175 -0.158,0.083 -0.306,0.189 -0.445,0.318 -0.141,0.13 -0.238,0.275 -0.291,0.437 -0.052,0.161 -0.059,0.337 -0.021,0.526 0.017,0.089 0.047,0.166 0.089,0.234 0.042,0.069 0.096,0.127 0.161,0.178 0.1,0.079 0.219,0.139 0.355,0.178 0.136,0.039 0.289,0.056 0.46,0.052 0.17,-0.002 0.329,-0.01 0.477,-0.025 0.147,-0.014 0.282,-0.038 0.405,-0.071 0.072,-0.02 0.141,-0.03 0.209,-0.028 0.068,0.002 0.134,0.016 0.198,0.047 0.063,0.029 0.121,0.07 0.177,0.121 0.055,0.051 0.106,0.114 0.154,0.185 0.079,0.12 0.145,0.259 0.199,0.418 0.053,0.158 0.094,0.337 0.123,0.535 0.028,0.196 0.037,0.376 0.025,0.539 -0.011,0.163 -0.042,0.309 -0.093,0.439 -0.043,0.105 -0.097,0.185 -0.16,0.246 -0.064,0.061 -0.137,0.103 -0.219,0.132 -0.273,0.09 -0.557,0.164 -0.854,0.214 -0.298,0.049 -0.608,0.076 -0.934,0.074 -0.326,0 -0.634,-0.031 -0.925,-0.092 -0.292,-0.061 -0.566,-0.15 -0.825,-0.268 -0.347,-0.156 -0.656,-0.349 -0.923,-0.581 -0.267,-0.231 -0.494,-0.499 -0.678,-0.803 -0.185,-0.304 -0.314,-0.631 -0.388,-0.979 -0.072,-0.349 -0.089,-0.719 -0.048,-1.109 0.062,-0.62 0.216,-1.171 0.462,-1.655 0.246,-0.482 0.583,-0.898 1.009,-1.248 0.425,-0.346 0.903,-0.589 1.433,-0.729 0.531,-0.14 1.113,-0.176 1.746,-0.109 0.106,0.01 0.205,0.042 0.299,0.097 0.093,0.056 0.181,0.133 0.262,0.234 0.079,0.098 0.151,0.234 0.216,0.406 0.066,0.173 0.124,0.382 0.177,0.629 0.053,0.244 0.064,0.457 0.033,0.637 -0.031,0.18 -0.105,0.328 -0.22,0.44 -0.088,0.089 -0.209,0.125 -0.339,0.14 -0.129,0.016 -0.267,0.011 -0.389,0.018 m 56.172,20.741 0.447,2.171 0.448,2.171 c 0.005,0.026 0.017,0.051 0.033,0.071 0.016,0.021 0.038,0.038 0.062,0.049 l 1.423,0.652 1.421,0.65 c 0.033,0.015 0.049,0.045 0.049,0.075 0,0.03 -0.016,0.061 -0.049,0.075 l -1.424,0.653 -1.424,0.651 c -0.024,0.011 -0.044,0.026 -0.059,0.046 -0.015,0.019 -0.027,0.043 -0.032,0.067 l -0.856,4.16 c -0.009,0.041 -0.043,0.061 -0.077,0.061 -0.033,0 -0.067,-0.02 -0.076,-0.061 l -0.424,-2.057 -0.423,-2.058 c -0.008,-0.039 -0.025,-0.075 -0.05,-0.105 -0.024,-0.03 -0.055,-0.055 -0.092,-0.071 l -1.38,-0.632 -1.382,-0.633 C 27.72,-26.663 27.7,-26.701 27.7,-26.74 c 0,-0.038 0.02,-0.077 0.061,-0.096 l 1.406,-0.643 1.405,-0.643 c 0.021,-0.009 0.039,-0.024 0.053,-0.042 0.014,-0.017 0.024,-0.038 0.029,-0.061 l 0.449,-2.177 0.448,-2.177 c 0.004,-0.02 0.021,-0.03 0.037,-0.03 0.017,0 0.034,0.01 0.038,0.03 m 13.555,-9.237 0.349,1.57 0.348,1.571 c 0.012,0.051 0.035,0.098 0.068,0.137 0.033,0.039 0.075,0.071 0.123,0.091 l 1.489,0.624 1.489,0.625 c 0.056,0.024 0.087,0.073 0.09,0.126 0.004,0.052 -0.02,0.107 -0.072,0.137 l -1.407,0.827 -1.407,0.828 c -0.036,0.022 -0.066,0.051 -0.088,0.086 -0.022,0.034 -0.036,0.074 -0.039,0.116 l -0.135,1.614 -0.134,1.613 c -0.006,0.065 -0.047,0.114 -0.1,0.135 -0.052,0.021 -0.116,0.015 -0.165,-0.029 l -1.211,-1.071 -1.21,-1.07 c -0.034,-0.03 -0.073,-0.051 -0.116,-0.061 -0.042,-0.011 -0.087,-0.012 -0.13,-0.002 l -1.583,0.371 -1.583,0.37 c -0.061,0.015 -0.117,-0.008 -0.152,-0.05 -0.035,-0.041 -0.047,-0.101 -0.022,-0.159 l 0.646,-1.481 0.646,-1.482 c 0.02,-0.045 0.028,-0.094 0.025,-0.141 -0.004,-0.048 -0.018,-0.095 -0.043,-0.137 l -0.894,-1.474 -0.893,-1.474 c -0.009,-0.016 -0.008,-0.032 0,-0.046 0.008,-0.013 0.023,-0.021 0.041,-0.019 l 1.722,0.167 1.722,0.168 c 0.046,0.005 0.092,-0.002 0.134,-0.018 0.042,-0.018 0.08,-0.044 0.11,-0.079 l 1.056,-1.226 1.057,-1.224 c 0.042,-0.049 0.102,-0.063 0.155,-0.05 0.054,0.013 0.1,0.054 0.114,0.117 m -21.824,-3.956 0.158,1.094 0.157,1.093 c 0.002,0.011 0.006,0.021 0.013,0.029 0.007,0.008 0.016,0.013 0.026,0.017 l 2.1,0.684 c 0.021,0.007 0.034,0.024 0.038,0.044 0.004,0.019 -0.003,0.041 -0.021,0.055 l -0.87,0.681 -0.869,0.683 c -0.009,0.006 -0.015,0.014 -0.019,0.024 -0.003,0.011 -0.004,0.022 -0.002,0.031 l 0.232,1.081 0.232,1.08 c 0.005,0.022 -0.003,0.043 -0.018,0.055 -0.015,0.013 -0.037,0.018 -0.058,0.009 l -1.027,-0.411 -1.028,-0.412 c -0.01,-0.004 -0.021,-0.005 -0.031,-0.003 -0.01,0.002 -0.02,0.006 -0.028,0.014 l -1.64,1.48 c -0.016,0.016 -0.038,0.018 -0.057,0.012 -0.019,-0.007 -0.034,-0.024 -0.037,-0.046 l -0.316,-2.188 c -0.001,-0.01 -0.005,-0.02 -0.012,-0.028 -0.007,-0.008 -0.016,-0.014 -0.026,-0.018 l -1.052,-0.341 -1.052,-0.342 c -0.022,-0.007 -0.035,-0.025 -0.039,-0.044 -0.003,-0.02 0.003,-0.041 0.021,-0.055 l 0.87,-0.681 0.87,-0.683 c 0.008,-0.006 0.014,-0.015 0.018,-0.024 0.003,-0.01 0.004,-0.021 0.002,-0.032 l -0.46,-2.16 c -0.004,-0.022 0.004,-0.043 0.019,-0.055 0.015,-0.013 0.037,-0.018 0.058,-0.009 l 1.025,0.411 1.025,0.412 c 0.01,0.004 0.021,0.005 0.031,0.003 0.01,-0.001 0.02,-0.006 0.028,-0.014 l 0.822,-0.74 0.823,-0.74 c 0.017,-0.016 0.039,-0.018 0.057,-0.012 0.018,0.007 0.034,0.023 0.037,0.046 m 19.629,16.152 0.53,2.574 0.529,2.574 c 0.011,0.051 0.033,0.096 0.064,0.136 0.031,0.04 0.072,0.072 0.119,0.093 l 1.619,0.741 1.62,0.742 c 0.078,0.036 0.117,0.109 0.117,0.182 0,0.074 -0.039,0.147 -0.117,0.183 l -1.61,0.736 -1.61,0.738 c -0.053,0.024 -0.099,0.06 -0.134,0.105 -0.035,0.044 -0.06,0.097 -0.072,0.153 l -1.068,5.194 c -0.006,0.03 -0.031,0.045 -0.055,0.045 -0.024,0 -0.049,-0.015 -0.055,-0.044 l -0.534,-2.587 -0.534,-2.586 c -0.013,-0.064 -0.041,-0.122 -0.081,-0.172 -0.039,-0.05 -0.09,-0.091 -0.15,-0.117 l -1.72,-0.788 -1.719,-0.789 c -0.031,-0.014 -0.046,-0.042 -0.046,-0.071 0,-0.028 0.015,-0.056 0.046,-0.071 l 1.731,-0.793 1.732,-0.794 c 0.052,-0.023 0.097,-0.06 0.131,-0.102 0.034,-0.044 0.059,-0.095 0.071,-0.152 l 0.529,-2.565 0.53,-2.565 c 0.008,-0.038 0.038,-0.056 0.069,-0.056 0.03,0 0.061,0.018 0.068,0.056 m -2.86,14.94 0.268,1.212 0.268,1.211 c 0.008,0.038 0.026,0.072 0.049,0.1 0.024,0.029 0.055,0.052 0.091,0.068 l 1.028,0.43 1.028,0.431 c 0.076,0.032 0.117,0.099 0.122,0.171 0.005,0.07 -0.027,0.142 -0.098,0.184 l -1.914,1.124 c -0.037,0.022 -0.067,0.051 -0.089,0.086 -0.022,0.034 -0.035,0.075 -0.039,0.117 l -0.09,1.084 -0.092,1.086 c -0.007,0.09 -0.065,0.158 -0.138,0.187 -0.073,0.029 -0.161,0.02 -0.229,-0.04 L 39.485,-7.944 38.68,-8.659 c -0.036,-0.032 -0.079,-0.054 -0.125,-0.065 -0.045,-0.012 -0.093,-0.013 -0.14,-0.002 l -1.106,0.259 -1.107,0.259 c -0.065,0.015 -0.126,-0.01 -0.163,-0.054 -0.037,-0.045 -0.051,-0.109 -0.024,-0.171 l 0.892,-2.046 c 0.024,-0.055 0.033,-0.113 0.03,-0.171 -0.004,-0.057 -0.022,-0.113 -0.053,-0.164 l -1.162,-1.912 c -0.034,-0.058 -0.029,-0.122 0.002,-0.172 0.03,-0.049 0.086,-0.081 0.153,-0.075 l 1.115,0.107 1.114,0.107 c 0.06,0.005 0.119,-0.003 0.173,-0.025 0.054,-0.021 0.103,-0.055 0.142,-0.101 l 0.788,-0.914 0.789,-0.914 c 0.02,-0.023 0.048,-0.03 0.074,-0.023 0.025,0.006 0.047,0.025 0.054,0.056 m -20.156,-20.085 0.261,1.181 0.262,1.182 c 0.003,0.016 0.01,0.029 0.02,0.041 0.009,0.012 0.022,0.022 0.037,0.027 l 1.117,0.468 1.118,0.468 c 0.036,0.016 0.056,0.049 0.059,0.083 0.002,0.034 -0.013,0.07 -0.048,0.09 l -1.043,0.614 -1.044,0.613 c -0.013,0.008 -0.024,0.019 -0.032,0.032 -0.009,0.013 -0.013,0.028 -0.015,0.044 l -0.102,1.205 -0.102,1.206 c -0.004,0.04 -0.029,0.069 -0.061,0.082 -0.032,0.012 -0.07,0.008 -0.1,-0.018 l -0.906,-0.803 -0.907,-0.803 c -0.012,-0.01 -0.026,-0.018 -0.041,-0.022 -0.014,-0.004 -0.03,-0.004 -0.046,0 l -1.178,0.279 -1.178,0.278 c -0.039,0.01 -0.075,-0.006 -0.097,-0.032 -0.022,-0.027 -0.03,-0.064 -0.014,-0.101 l 0.484,-1.109 0.483,-1.11 c 0.006,-0.014 0.009,-0.03 0.008,-0.045 -0.001,-0.015 -0.006,-0.03 -0.014,-0.044 l -0.63,-1.036 -0.629,-1.035 c -0.021,-0.034 -0.018,-0.073 10e-4,-0.102 0.018,-0.029 0.052,-0.048 0.091,-0.044 l 2.414,0.234 c 0.015,0.002 0.031,-10e-4 0.045,-0.006 0.014,-0.006 0.027,-0.015 0.037,-0.027 l 1.582,-1.832 c 0.026,-0.031 0.064,-0.039 0.097,-0.031 0.033,0.008 0.062,0.035 0.071,0.073 m -22.42,-7.734 0.177,1.243 0.177,1.242 c 0.004,0.025 0.015,0.05 0.031,0.069 0.016,0.02 0.038,0.034 0.063,0.042 l 1.192,0.386 1.193,0.385 c 0.053,0.016 0.085,0.059 0.094,0.107 0.008,0.047 -0.008,0.099 -0.051,0.133 l -0.986,0.774 -0.986,0.775 c -0.021,0.015 -0.036,0.037 -0.045,0.061 -0.009,0.024 -0.011,0.05 -0.005,0.075 l 0.261,1.226 0.262,1.225 c 0.011,0.054 -0.01,0.103 -0.047,0.134 -0.036,0.032 -0.088,0.043 -0.14,0.023 l -1.163,-0.465 -1.163,-0.466 c -0.025,-0.01 -0.051,-0.012 -0.076,-0.008 -0.025,0.005 -0.048,0.016 -0.068,0.034 l -1.868,1.676 c -0.041,0.037 -0.094,0.043 -0.139,0.027 -0.045,-0.016 -0.082,-0.056 -0.09,-0.11 l -0.176,-1.24 -0.178,-1.24 c -0.004,-0.026 -0.014,-0.05 -0.03,-0.07 -0.017,-0.019 -0.039,-0.034 -0.064,-0.042 l -1.192,-0.387 -1.193,-0.388 c -0.053,-0.017 -0.085,-0.06 -0.093,-0.106 -0.009,-0.048 0.006,-0.099 0.05,-0.133 l 0.986,-0.775 0.987,-0.775 c 0.021,-0.016 0.036,-0.037 0.044,-0.062 0.009,-0.023 0.011,-0.049 0.005,-0.075 l -0.522,-2.45 c -0.012,-0.054 0.009,-0.103 0.046,-0.134 0.037,-0.031 0.089,-0.043 0.14,-0.022 l 1.163,0.467 1.164,0.467 c 0.024,0.01 0.05,0.012 0.075,0.008 0.025,-0.005 0.049,-0.016 0.068,-0.034 l 1.868,-1.68 c 0.041,-0.037 0.095,-0.044 0.139,-0.027 0.045,0.017 0.082,0.056 0.09,0.11 m -10.702,8.769 0.533,2.584 0.534,2.585 c 0.003,0.014 0.009,0.027 0.018,0.038 0.008,0.011 0.02,0.019 0.033,0.025 l 1.781,0.817 1.781,0.816 c 0.035,0.017 0.053,0.049 0.053,0.082 0,0.033 -0.018,0.066 -0.053,0.082 l -1.781,0.817 -1.781,0.816 c -0.013,0.006 -0.025,0.015 -0.033,0.025 -0.009,0.011 -0.015,0.025 -0.018,0.039 l -0.534,2.584 -0.533,2.584 c -0.01,0.048 -0.05,0.073 -0.089,0.073 -0.039,0 -0.078,-0.025 -0.088,-0.073 l -0.531,-2.584 -0.532,-2.584 c -0.003,-0.014 -0.009,-0.027 -0.018,-0.039 -0.008,-0.01 -0.02,-0.019 -0.033,-0.025 l -1.783,-0.816 -1.784,-0.817 c -0.035,-0.016 -0.052,-0.049 -0.052,-0.082 0,-0.033 0.017,-0.065 0.052,-0.082 l 1.784,-0.816 1.783,-0.817 c 0.013,-0.006 0.025,-0.014 0.033,-0.025 0.009,-0.011 0.015,-0.024 0.018,-0.038 l 0.532,-2.585 0.531,-2.584 c 0.01,-0.048 0.049,-0.072 0.088,-0.072 0.039,0 0.079,0.024 0.089,0.072 m -9.358,13.744 0.314,1.422 0.313,1.423 c 0.002,0.011 0.007,0.019 0.013,0.027 0.007,0.008 0.016,0.015 0.025,0.019 l 1.345,0.562 1.344,0.563 c 0.024,0.009 0.038,0.032 0.039,0.054 0.002,0.023 -0.008,0.047 -0.031,0.06 l -1.256,0.737 -1.256,0.738 c -0.009,0.005 -0.017,0.012 -0.022,0.021 -0.005,0.009 -0.009,0.019 -0.009,0.029 l -0.242,2.9 c -0.002,0.026 -0.018,0.046 -0.04,0.053 -0.021,0.009 -0.046,0.006 -0.066,-0.011 l -1.093,-0.964 -1.092,-0.964 c -0.008,-0.008 -0.017,-0.012 -0.027,-0.015 -0.01,-0.002 -0.02,-0.003 -0.031,0 l -1.417,0.333 -1.417,0.334 c -0.026,0.006 -0.05,-0.004 -0.064,-0.021 -0.015,-0.018 -0.02,-0.043 -0.009,-0.068 l 0.581,-1.334 0.581,-1.333 c 0.004,-0.009 0.006,-0.02 0.006,-0.03 -10e-4,-0.011 -0.004,-0.02 -0.01,-0.029 l -0.754,-1.245 -0.754,-1.246 c -0.014,-0.023 -0.011,-0.048 0,-0.068 0.013,-0.019 0.035,-0.032 0.061,-0.029 l 1.449,0.141 1.449,0.14 c 0.011,10e-4 0.021,-0.001 0.031,-0.005 0.009,-0.004 0.017,-0.009 0.024,-0.017 l 0.952,-1.103 0.951,-1.102 c 0.018,-0.02 0.043,-0.026 0.065,-0.021 0.022,0.006 0.041,0.023 0.047,0.049 m -5.267,-10.913 0.912,0.722 0.912,0.72 c 0.022,0.017 0.047,0.029 0.073,0.034 0.026,0.004 0.053,0.003 0.08,-0.004 l 1.116,-0.326 1.117,-0.326 c 0.067,-0.019 0.131,0.003 0.171,0.047 0.042,0.044 0.06,0.11 0.035,0.175 l -0.814,2.178 c -0.01,0.025 -0.013,0.052 -0.01,0.08 0.003,0.026 0.013,0.052 0.029,0.075 l 1.312,1.918 c 0.04,0.058 0.038,0.125 0.009,0.178 -0.029,0.052 -0.086,0.09 -0.155,0.087 l -1.161,-0.048 -1.161,-0.049 c -0.028,-0.001 -0.055,0.004 -0.079,0.016 -0.024,0.01 -0.046,0.028 -0.063,0.049 l -1.422,1.838 c -0.043,0.056 -0.108,0.074 -0.167,0.064 -0.059,-0.012 -0.112,-0.054 -0.13,-0.121 l -0.624,-2.24 c -0.008,-0.026 -0.021,-0.049 -0.04,-0.069 -0.018,-0.02 -0.041,-0.035 -0.067,-0.045 l -1.096,-0.391 -1.097,-0.39 c -0.065,-0.024 -0.103,-0.079 -0.111,-0.139 -0.007,-0.059 0.017,-0.123 0.075,-0.161 l 0.968,-0.644 0.969,-0.644 c 0.023,-0.015 0.041,-0.035 0.054,-0.059 0.013,-0.023 0.02,-0.049 0.021,-0.077 l 0.035,-1.16 0.034,-1.16 c 0.002,-0.069 0.044,-0.123 0.098,-0.149 0.055,-0.025 0.122,-0.022 0.177,0.021 m 2.128,-12.771 0.172,1.19 0.171,1.189 c 0.005,0.035 0.02,0.066 0.041,0.091 0.021,0.026 0.05,0.045 0.083,0.056 l 1.141,0.368 1.142,0.369 c 0.069,0.022 0.111,0.078 0.122,0.14 0.011,0.062 -0.009,0.13 -0.066,0.174 l -0.944,0.742 -0.944,0.741 c -0.027,0.022 -0.047,0.05 -0.059,0.081 -0.011,0.031 -0.013,0.066 -0.006,0.099 l 0.25,1.173 0.25,1.172 c 0.015,0.072 -0.012,0.136 -0.06,0.177 -0.048,0.04 -0.117,0.056 -0.184,0.029 l -1.116,-0.445 -1.116,-0.446 c -0.032,-0.013 -0.066,-0.016 -0.099,-0.01 -0.033,0.006 -0.064,0.021 -0.089,0.044 l -1.784,1.604 c -0.053,0.048 -0.123,0.057 -0.182,0.036 -0.059,-0.022 -0.108,-0.074 -0.118,-0.145 l -0.169,-1.186 -0.17,-1.188 c -0.005,-0.034 -0.019,-0.065 -0.04,-0.091 -0.022,-0.025 -0.05,-0.045 -0.083,-0.055 l -1.143,-0.37 -1.144,-0.372 c -0.069,-0.022 -0.112,-0.078 -0.123,-0.14 -0.011,-0.062 0.01,-0.129 0.067,-0.174 l 0.946,-0.739 0.945,-0.74 c 0.028,-0.021 0.048,-0.049 0.059,-0.081 0.011,-0.031 0.014,-0.065 0.007,-0.098 l -0.5,-2.35 c -0.015,-0.071 0.012,-0.136 0.06,-0.177 0.048,-0.04 0.117,-0.055 0.184,-0.029 l 1.113,0.447 1.114,0.448 c 0.032,0.013 0.067,0.016 0.099,0.01 0.033,-0.005 0.064,-0.02 0.09,-0.044 l 0.891,-0.803 0.892,-0.805 c 0.054,-0.049 0.124,-0.057 0.183,-0.036 0.059,0.021 0.107,0.073 0.117,0.144 m 36.482,39.315 c 0.044,0.19 0.054,0.383 0.032,0.568 -0.021,0.186 -0.073,0.365 -0.153,0.53 -0.004,0.007 -10e-4,0.016 0.005,0.02 0.006,0.005 0.014,0.006 0.021,-10e-4 0.237,-0.216 0.441,-0.462 0.61,-0.73 0.169,-0.268 0.302,-0.559 0.396,-0.866 0.091,-0.301 0.142,-0.614 0.152,-0.928 0.011,-0.315 -0.021,-0.63 -0.095,-0.94 C 11.688,-7.183 11.483,-7.619 11.209,-7.994 10.935,-8.37 10.591,-8.684 10.2,-8.923 9.809,-9.166 9.373,-9.332 8.913,-9.41 8.454,-9.488 7.97,-9.477 7.486,-9.365 7.004,-9.252 6.568,-9.046 6.192,-8.771 5.816,-8.497 5.501,-8.153 5.261,-7.765 5.02,-7.375 4.853,-6.939 4.775,-6.479 4.697,-6.02 4.708,-5.538 4.82,-5.054 c 0.096,0.405 0.258,0.784 0.479,1.126 0.22,0.34 0.499,0.643 0.83,0.895 0.375,0.287 0.807,0.496 1.261,0.618 0.453,0.122 0.93,0.157 1.398,0.091 0.016,-0.002 0.023,-0.01 0.021,-0.018 C 8.807,-2.351 8.797,-2.36 8.779,-2.365 8.701,-2.387 8.624,-2.414 8.548,-2.446 8.474,-2.478 8.4,-2.516 8.33,-2.559 8.148,-2.671 7.987,-2.819 7.859,-2.994 7.73,-3.17 7.635,-3.373 7.582,-3.598 7.529,-3.818 7.524,-4.042 7.561,-4.254 7.598,-4.467 7.675,-4.671 7.788,-4.853 7.901,-5.035 8.048,-5.195 8.224,-5.324 8.399,-5.452 8.603,-5.547 8.829,-5.6 c 0.223,-0.053 0.445,-0.058 0.658,-0.021 0.213,0.036 0.415,0.115 0.598,0.227 0.182,0.112 0.343,0.26 0.471,0.435 0.128,0.175 0.224,0.379 0.277,0.604 M 7.295,-0.962 C 6.893,-1.031 6.546,-1.139 6.219,-1.293 5.892,-1.446 5.585,-1.644 5.261,-1.893 4.942,-2.137 4.654,-2.417 4.402,-2.726 4.151,-3.035 3.938,-3.374 3.767,-3.735 3.761,-3.749 3.75,-3.759 3.738,-3.767 3.726,-3.774 3.711,-3.778 3.697,-3.777 2.824,-3.713 2.038,-3.338 1.45,-2.758 0.862,-2.18 0.473,-1.399 0.395,-0.523 0.36,-0.118 0.393,0.294 0.495,0.693 0.598,1.091 0.77,1.476 1.014,1.829 1.021,1.839 1.03,1.844 1.037,1.843 1.042,1.842 1.046,1.835 1.043,1.824 1.024,1.739 1.011,1.653 1.005,1.566 0.999,1.479 1,1.392 1.009,1.306 1.028,1.093 1.086,0.883 1.185,0.69 1.283,0.496 1.421,0.32 1.598,0.171 1.776,0.023 1.975,-0.083 2.182,-0.146 2.39,-0.21 2.605,-0.231 2.816,-0.213 c 0.214,0.02 0.423,0.08 0.617,0.179 0.193,0.1 0.371,0.238 0.52,0.415 0.146,0.178 0.25,0.375 0.314,0.581 C 4.33,1.168 4.353,1.382 4.336,1.593 4.317,1.806 4.257,2.016 4.158,2.209 4.058,2.403 3.919,2.579 3.742,2.729 3.586,2.859 3.413,2.956 3.232,3.021 3.051,3.085 2.862,3.118 2.674,3.118 2.665,3.118 2.658,3.12 2.656,3.123 2.653,3.126 2.655,3.13 2.662,3.133 2.821,3.195 2.984,3.246 3.15,3.284 3.315,3.323 3.483,3.349 3.65,3.366 4.511,3.44 5.337,3.204 6.006,2.745 6.676,2.285 7.189,1.598 7.424,0.77 7.496,0.511 7.538,0.246 7.551,-0.021 7.564,-0.289 7.547,-0.557 7.501,-0.821 7.498,-0.838 7.468,-0.87 7.439,-0.896 7.409,-0.922 7.381,-0.945 7.381,-0.945 L 7.338,-0.953 Z m 3.639,-0.634 c -0.276,0.168 -0.557,0.304 -0.847,0.413 C 9.798,-1.075 9.5,-0.995 9.189,-0.939 9.183,-0.938 9.178,-0.935 9.173,-0.93 9.169,-0.926 9.167,-0.921 9.166,-0.915 9.112,-0.622 9.091,-0.327 9.1,-0.033 9.109,0.261 9.148,0.555 9.217,0.846 9.354,1.428 9.603,1.954 9.936,2.41 c 0.332,0.454 0.748,0.836 1.218,1.127 0.429,0.265 0.906,0.456 1.407,0.559 0.501,0.104 1.027,0.121 1.555,0.038 0.009,-0.002 0.012,-0.006 0.011,-0.01 C 14.126,4.121 14.122,4.117 14.113,4.115 14.01,4.091 13.909,4.06 13.811,4.021 13.714,3.982 13.62,3.936 13.532,3.882 13.331,3.758 13.153,3.595 13.012,3.403 12.871,3.209 12.765,2.987 12.708,2.743 12.65,2.496 12.645,2.25 12.686,2.017 12.727,1.783 12.813,1.56 12.938,1.359 13.06,1.16 13.222,0.984 13.415,0.843 c 0.192,-0.14 0.417,-0.246 0.664,-0.304 0.244,-0.057 0.49,-0.063 0.724,-0.023 0.235,0.039 0.458,0.124 0.656,0.249 0.202,0.124 0.378,0.286 0.519,0.479 0.141,0.191 0.246,0.414 0.306,0.661 0.058,0.248 0.063,0.496 0.02,0.733 -0.043,0.237 -0.132,0.462 -0.261,0.662 0,0.001 -0.004,0.008 -0.008,0.015 -0.003,0.007 -0.006,0.014 -0.002,0.014 0.002,10e-4 0.009,-0.002 0.017,-0.008 0.007,-0.006 0.015,-0.013 0.019,-0.016 0.212,-0.162 0.409,-0.343 0.587,-0.539 0.178,-0.196 0.338,-0.407 0.477,-0.632 0.292,-0.472 0.495,-0.999 0.59,-1.555 0.094,-0.556 0.081,-1.141 -0.058,-1.725 -0.132,-0.563 -0.368,-1.074 -0.683,-1.518 -0.315,-0.443 -0.708,-0.819 -1.153,-1.111 -0.384,-0.252 -0.807,-0.442 -1.252,-0.563 -0.446,-0.122 -0.915,-0.172 -1.393,-0.144 -0.015,0 -0.029,0.006 -0.04,0.015 -0.011,0.008 -0.02,0.021 -0.024,0.036 -0.179,0.588 -0.463,1.136 -0.833,1.618 -0.371,0.481 -0.829,0.895 -1.353,1.217 M 3.937,-8.367 C 4.031,-8.557 4.108,-8.679 4.195,-8.793 4.283,-8.906 4.38,-9.009 4.516,-9.162 4.526,-9.172 4.53,-9.186 4.53,-9.2 4.529,-9.213 4.523,-9.226 4.512,-9.235 4.223,-9.483 3.935,-9.751 3.685,-10.069 c -0.25,-0.318 -0.462,-0.688 -0.599,-1.144 -0.009,-0.028 -0.033,-0.041 -0.057,-0.039 -0.024,0.002 -0.047,0.019 -0.051,0.047 -0.138,0.865 -0.05,1.444 0.119,1.883 0.17,0.441 0.421,0.742 0.611,1.053 0.01,0.017 0.028,0.045 0.048,0.069 0.021,0.024 0.043,0.043 0.063,0.043 0.009,0 0.038,-0.053 0.066,-0.104 0.027,-0.053 0.052,-0.106 0.052,-0.106 M 1.685,-4.673 C 1.747,-4.705 1.809,-4.734 1.872,-4.763 1.935,-4.792 1.998,-4.82 2.061,-4.846 2.077,-4.853 2.093,-4.88 2.104,-4.91 2.114,-4.94 2.118,-4.972 2.109,-4.989 1.741,-5.767 1.629,-6.465 1.542,-7.067 1.454,-7.669 1.391,-8.173 1.119,-8.565 1.004,-8.73 0.735,-8.543 0.47,-8.359 c -0.265,0.185 -0.528,0.367 -0.631,0.192 -0.288,-0.489 -0.61,-0.981 -0.947,-1.494 -0.337,-0.513 -0.689,-1.047 -1.035,-1.619 -0.015,-0.024 -0.052,-0.03 -0.089,-0.023 -0.038,0.007 -0.075,0.028 -0.089,0.057 -0.295,0.589 -0.577,0.988 -0.858,1.213 -0.281,0.226 -0.562,0.278 -0.851,0.175 -0.378,-0.133 -0.755,-1.059 -1.302,-2.167 -0.546,-1.108 -1.262,-2.4 -2.317,-3.265 -0.024,-0.02 -0.068,-0.023 -0.107,-0.013 -0.039,0.01 -0.073,0.035 -0.076,0.071 -0.037,0.403 0.042,1.186 -0.045,1.849 -0.089,0.662 -0.345,1.203 -1.054,1.121 -0.318,-0.035 -1.141,-0.215 -2.036,-0.415 -0.894,-0.201 -1.861,-0.421 -2.465,-0.541 -0.043,-0.009 -0.078,0.021 -0.096,0.057 -0.017,0.036 -0.016,0.078 0.014,0.092 2.126,0.991 4.747,2.393 7.395,3.889 2.648,1.496 5.322,3.086 7.553,4.454 0.026,0.016 0.082,0.033 0.134,0.044 0.052,0.011 0.101,0.016 0.117,0.009 m -2.22,2.243 c 0.088,-0.178 0.187,-0.351 0.297,-0.518 0.109,-0.168 0.229,-0.33 0.359,-0.485 0.016,-0.019 0.006,-0.068 -0.017,-0.117 -0.021,-0.05 -0.056,-0.1 -0.09,-0.121 -2.236,-1.383 -4.785,-2.937 -7.252,-4.454 -2.467,-1.516 -4.85,-2.997 -6.755,-4.232 -0.028,-0.018 -0.053,-0.015 -0.067,0 -0.013,0.014 -0.016,0.041 0.003,0.071 0.443,0.739 1.414,1.816 1.928,2.869 0.514,1.054 0.57,2.084 -0.819,2.728 -0.01,0.004 -0.012,0.015 -0.009,0.026 0.003,0.011 0.012,0.022 0.026,0.027 0.448,0.143 1.362,0.215 2.31,0.307 0.95,0.093 1.933,0.206 2.52,0.437 0.378,0.147 0.363,0.565 0.228,0.989 -0.135,0.423 -0.39,0.851 -0.491,1.02 -0.014,0.022 -0.01,0.042 0.002,0.056 0.012,0.015 0.032,0.024 0.051,0.024 0.366,0.008 1.212,-0.08 2.044,-0.15 0.831,-0.068 1.648,-0.117 1.954,-0.028 0.518,0.146 0.582,0.5 0.459,0.859 -0.124,0.36 -0.436,0.724 -0.669,0.893 -0.018,0.013 -0.025,0.037 -0.023,0.06 0.003,0.023 0.014,0.045 0.032,0.053 0.64,0.274 1.216,0.269 1.809,0.178 0.594,-0.091 1.205,-0.27 1.918,-0.345 0.031,-0.004 0.089,-0.029 0.141,-0.06 0.053,-0.031 0.1,-0.066 0.111,-0.087 m 18.838,-0.837 c 0.145,0.222 0.275,0.458 0.388,0.704 0.113,0.246 0.209,0.503 0.288,0.768 0.006,0.02 0.017,0.037 0.032,0.048 0.015,0.013 0.034,0.021 0.054,0.023 0.679,0.063 1.292,0.192 1.855,0.276 0.564,0.083 1.078,0.121 1.557,0.003 0.04,-0.01 0.066,-0.04 0.074,-0.074 0.009,-0.034 -10e-4,-0.073 -0.032,-0.1 -0.235,-0.201 -0.52,-0.582 -0.624,-0.946 -0.103,-0.365 -0.023,-0.715 0.474,-0.856 0.298,-0.084 0.995,-0.116 1.711,-0.13 0.715,-0.015 1.45,-0.014 1.825,-0.036 0.035,-10e-4 0.064,-0.021 0.08,-0.047 0.016,-0.028 0.02,-0.062 0.006,-0.093 -0.08,-0.177 -0.215,-0.509 -0.241,-0.83 -0.026,-0.322 0.055,-0.636 0.406,-0.775 0.573,-0.224 1.281,-0.352 1.953,-0.459 0.673,-0.105 1.309,-0.189 1.739,-0.327 0.033,-0.011 0.056,-0.036 0.065,-0.065 0.008,-0.03 0.004,-0.064 -0.017,-0.092 -0.652,-0.885 -0.375,-1.844 0.187,-2.759 0.563,-0.914 1.409,-1.783 1.896,-2.487 0.031,-0.046 0.02,-0.096 -0.01,-0.128 -0.031,-0.031 -0.08,-0.044 -0.127,-0.015 -1.866,1.205 -4.163,2.631 -6.537,4.093 -2.375,1.461 -4.826,2.957 -7.002,4.304 m -2.354,-2.079 c 0.202,0.096 0.398,0.205 0.587,0.324 0.19,0.12 0.372,0.25 0.545,0.39 0.007,0.005 0.015,0.008 0.023,0.009 0.009,0 0.017,-0.002 0.025,-0.006 2.186,-1.373 4.721,-2.979 7.205,-4.476 2.485,-1.498 4.919,-2.888 6.905,-3.828 0.025,-0.012 0.031,-0.036 0.025,-0.056 -0.007,-0.02 -0.026,-0.036 -0.053,-0.031 -0.622,0.109 -1.549,0.27 -2.399,0.414 -0.848,0.143 -1.619,0.268 -1.927,0.306 -0.696,0.08 -1.052,-0.139 -1.251,-0.453 -0.198,-0.313 -0.241,-0.722 -0.309,-1.024 -0.01,-0.043 -0.042,-0.074 -0.08,-0.087 -0.037,-0.013 -0.082,-0.008 -0.117,0.02 -1.053,0.846 -1.729,1.947 -2.237,2.87 -0.508,0.923 -0.848,1.668 -1.227,1.802 -0.293,0.104 -0.694,0.075 -1.102,-0.133 -0.407,-0.208 -0.819,-0.595 -1.134,-1.205 -0.015,-0.03 -0.043,-0.047 -0.072,-0.052 -0.029,-0.005 -0.059,0.005 -0.081,0.029 -0.31,0.366 -0.536,0.886 -0.756,1.436 -0.22,0.549 -0.434,1.128 -0.72,1.615 -0.103,0.177 -0.365,-0.004 -0.631,-0.188 -0.265,-0.183 -0.534,-0.371 -0.649,-0.205 -0.203,0.289 -0.29,0.643 -0.356,1.055 -0.068,0.411 -0.115,0.88 -0.239,1.399 -0.002,0.008 0.001,0.026 0.006,0.042 0.006,0.015 0.013,0.029 0.019,0.033 m -2.568,-1.79 c -0.006,-0.068 -0.016,-0.135 -0.025,-0.187 -0.008,-0.053 -0.015,-0.089 -0.016,-0.093 -0.222,-1.463 -0.859,-2.467 -1.687,-3.297 -0.827,-0.83 -1.847,-1.484 -2.834,-2.249 -2.192,-1.694 -3.181,-2.591 -3.803,-3.385 -0.622,-0.793 -0.876,-1.484 -1.597,-2.763 -0.048,-0.085 -0.138,-0.108 -0.214,-0.086 -0.077,0.023 -0.139,0.091 -0.133,0.19 0.145,2.259 0.605,3.6 1.46,4.718 0.855,1.118 2.104,2.016 3.827,3.391 0.465,0.005 0.921,0.074 1.358,0.202 0.436,0.127 0.852,0.313 1.236,0.55 0.301,0.187 0.626,0.434 0.931,0.724 0.304,0.292 0.59,0.625 0.813,0.984 0.158,0.254 0.279,0.521 0.371,0.762 0.093,0.241 0.158,0.454 0.203,0.6 0.021,0.064 0.051,0.08 0.075,0.065 0.024,-0.016 0.042,-0.064 0.035,-0.126 m 0.71,-74.618 c -0.008,-0.34 -0.032,-0.834 -0.043,-1.347 -0.01,-0.514 -0.006,-1.047 0.042,-1.465 0.018,-0.157 0.119,-0.274 0.246,-0.327 0.128,-0.053 0.282,-0.042 0.406,0.055 0.732,0.577 1.749,1.349 2.945,2.178 1.195,0.829 2.569,1.716 4.012,2.523 0.039,0.021 0.046,0.061 0.032,0.093 -0.013,0.032 -0.046,0.055 -0.088,0.042 -1.185,-0.352 -2.39,-0.658 -3.613,-0.916 -1.222,-0.257 -2.463,-0.467 -3.718,-0.627 -0.037,-0.004 -0.092,-0.04 -0.138,-0.083 -0.046,-0.043 -0.083,-0.092 -0.083,-0.126 m -20.214,2.103 c 1.755,-0.893 3.452,-1.953 4.912,-2.95 1.459,-0.997 2.68,-1.932 3.482,-2.571 0.056,-0.044 0.124,-0.054 0.185,-0.038 0.06,0.018 0.112,0.062 0.136,0.128 0.151,0.429 0.187,1.022 0.182,1.626 -0.004,0.605 -0.049,1.219 -0.061,1.69 -10e-4,0.056 -0.023,0.107 -0.058,0.146 -0.036,0.039 -0.085,0.066 -0.141,0.073 -1.483,0.187 -2.944,0.444 -4.379,0.767 -1.436,0.323 -2.845,0.714 -4.227,1.167 -0.053,0.018 -0.084,0.021 -0.091,0.013 -0.006,-0.009 0.013,-0.027 0.06,-0.051 m 9.666,-14.13 c -2.411,-5.305 -8.203,-8.053 -13.025,-8.363 -4.823,-0.312 -8.676,1.815 -7.211,6.263 0.372,1.132 0.868,2.449 1.173,3.733 0.305,1.284 0.419,2.535 0.026,3.536 -0.919,2.34 -1.726,3.878 -2.216,5.043 -0.491,1.165 -0.664,1.957 -0.311,2.802 0.595,1.429 1.485,2.316 2.569,2.793 1.085,0.475 2.364,0.539 3.736,0.32 0.079,-0.013 0.136,0.036 0.154,0.097 0.019,0.06 -0.001,0.134 -0.074,0.168 -2.39,1.144 -4.667,2.485 -6.809,4.003 -2.142,1.517 -4.149,3.212 -6.001,5.061 -4.202,4.198 -7.604,9.196 -9.955,14.748 -2.351,5.552 -3.652,11.656 -3.652,18.064 0,6.405 1.301,12.508 3.652,18.059 2.351,5.551 5.753,10.551 9.955,14.751 4.203,4.199 9.208,7.596 14.766,9.945 5.558,2.348 11.669,3.647 18.082,3.647 6.412,0 12.523,-1.299 18.081,-3.647 5.559,-2.349 10.564,-5.746 14.767,-9.945 4.202,-4.2 7.604,-9.2 9.955,-14.751 2.351,-5.551 3.651,-11.654 3.651,-18.059 0,-6.408 -1.3,-12.512 -3.651,-18.064 -2.351,-5.552 -5.753,-10.55 -9.955,-14.748 -1.818,-1.815 -3.785,-3.481 -5.883,-4.978 -2.097,-1.496 -4.325,-2.824 -6.663,-3.96 -0.051,-0.025 -0.065,-0.076 -0.052,-0.119 0.014,-0.043 0.054,-0.079 0.11,-0.071 1.321,0.181 2.548,0.087 3.589,-0.398 1.041,-0.486 1.897,-1.362 2.474,-2.748 0.352,-0.846 0.179,-1.637 -0.311,-2.802 -0.491,-1.165 -1.3,-2.703 -2.221,-5.043 -0.393,-1.001 -0.278,-2.252 0.028,-3.536 0.306,-1.284 0.804,-2.602 1.176,-3.734 1.461,-4.434 -2.364,-6.562 -7.165,-6.268 -4.801,0.295 -10.579,3.011 -13.024,8.267 -0.006,0.012 -0.025,0.02 -0.045,0.023 -0.02,0.003 -0.04,10e-4 -0.048,-0.006 -0.642,-0.631 -1.395,-1.123 -2.213,-1.457 -0.817,-0.335 -1.699,-0.512 -2.6,-0.512 -0.881,0 -1.746,0.17 -2.549,0.491 -0.803,0.321 -1.545,0.794 -2.183,1.399 -0.015,0.014 -0.043,0.021 -0.069,0.02 -0.026,-10e-4 -0.051,-0.009 -0.058,-0.024"
         style="fill:none;stroke:#ff0000;stroke-width:0.38px"
         id="path144" />
    </g>
  </g>
</svg>
