<?xml version="1.0" encoding="UTF-8"?>
<!DOCTYPE svg PUBLIC "-//W3C//DTD SVG 1.1//EN" "http://www.w3.org/Graphics/SVG/1.1/DTD/svg11.dtd">
<!-- Creator: CorelDRAW 2020 (64-Bit) -->
<svg xmlns="http://www.w3.org/2000/svg" xml:space="preserve" width="435.055mm" height="198.719mm" version="1.1" style="shape-rendering:geometricPrecision; text-rendering:geometricPrecision; image-rendering:optimizeQuality; fill-rule:evenodd; clip-rule:evenodd"
viewBox="0 0 18366.55 8389.24"
 xmlns:xlink="http://www.w3.org/1999/xlink"
 xmlns:xodm="http://www.corel.com/coreldraw/odm/2003">
 <defs>
  <style type="text/css">
   <![CDATA[
    .str0 {stroke:red;stroke-width:3.22;stroke-miterlimit:22.9256}
    .fil0 {fill:none}
   ]]>
  </style>
 </defs>
 <g id="Слой_x0020_1">
  <metadata id="CorelCorpID_0Corel-Layer"/>
  <path class="fil0 str0" d="M8729.53 4602.05c34.07,-7.86 68.07,13.38 75.94,47.46 7.86,34.07 -13.38,68.08 -47.46,75.95 -34.07,7.86 -68.07,-13.38 -75.94,-47.46 -7.87,-34.07 13.38,-68.08 47.46,-75.95zm362.56 265.07c843.35,-51.2 1625.03,511.85 1821.4,1362.46 218.89,948.11 -372.27,1894.16 -1320.38,2113.05 -948.11,218.89 -1894.15,-372.27 -2113.04,-1320.38 -196.38,-850.6 259.35,-1699.34 1039.79,-2023.01l-5.53 -23.97c-13.34,-57.76 18.91,-115.88 72.95,-136.3 -35.01,-31.21 -61.04,-73.19 -72.39,-122.36 -29.18,-126.42 49.63,-252.56 176.05,-281.75 126.41,-29.18 252.56,49.63 281.74,176.05 11.36,49.18 6.36,98.31 -11.42,141.71 57.51,-5.33 111.97,32.78 125.31,90.53l5.53 23.97zm-1028.85 2119.33c75.12,-64.12 148.87,-129.09 221.02,-194.83 -98.1,12.82 -196.78,24.35 -295.25,34.22 -39.62,-86.73 -78.33,-173.77 -116.17,-261.09 -21.38,92.64 -43.8,185.26 -66.89,277.87 -98.87,8.05 -198.03,14.78 -297.14,19.85 83.04,51.57 167.58,102.13 252.99,151.57 -24.14,92.42 -49.25,184.79 -75.25,276.99 80.11,-61.31 158.4,-123.52 235.51,-186.54 87.04,48.08 175.63,94.94 265.07,140.74 -42.14,-85.93 -83.5,-172.21 -123.89,-258.78zm885.59 -136.48c69.16,-70.51 136.59,-141.71 202.71,-213.62 -96.65,21.49 -193.66,41.62 -290.71,60.26 -47.11,-83.01 -93.31,-166.16 -138.74,-249.71 -13.18,94.11 -27.09,188.31 -41.92,282.58 -97.63,16.87 -195.37,32.28 -293.29,46.16 87.17,43.95 175.35,86.82 264.96,128.46 -16.03,94.25 -32.67,188.49 -50.21,282.68 73.93,-68.21 146.42,-137.1 217.23,-206.79 90.92,40.25 183.15,79.1 276.25,116.8 -49.59,-81.93 -98.23,-164.26 -146.29,-246.82zm1718.7 -505.94c55.71,-81.76 109.77,-163.95 162.28,-246.57 -91.73,38.51 -183.7,75.53 -276.34,111.16 -60.88,-73.31 -121.32,-146.99 -180.86,-221.07 3.72,95.05 6.62,190.26 8.76,285.54 -93.24,33.91 -186.83,66.33 -281.01,97.44 93.62,27.91 188.38,54.38 283.81,79.56 1,95.54 1.15,191.23 0.56,286.95 60.83,-80.07 120.06,-160.85 177.74,-242.07 96.76,23.39 194.46,45.44 292.88,65.99 -63.18,-71.94 -125.88,-144.28 -187.82,-216.92zm-848.07 291.21c62.46,-76.34 123.54,-153.45 182.97,-230.93 -94.42,30.14 -189.19,58.73 -284.36,85.93 -54.21,-78.44 -107.71,-157.15 -160.4,-236.39 -4.73,95.06 -10.2,190.07 -16.61,285.23 -95.44,25.38 -191.61,49.41 -287.98,71.98 90.7,36.14 182.41,70.9 275.26,104.53 -7.27,95.13 -15.67,190.46 -24.6,285.94 67.43,-74.47 133.47,-149.51 197.78,-225.15 94.31,31.83 189.45,62.43 285.67,91.63 -56.63,-77.12 -112.61,-154.83 -167.72,-232.77zm962.69 54.81c-954.55,373.89 -1958.9,605.22 -2980.71,686.68 327.91,617.8 1040.38,964.26 1754.34,799.43 713.57,-164.74 1201.92,-787.6 1226.37,-1486.11zm-3159.51 -198.16c1007.4,-68.78 1997.29,-296.77 2933.13,-675.75 -343.91,-570.94 -1027.36,-883.18 -1712.21,-725.07 -684.23,157.98 -1161.52,737.38 -1220.92,1400.81z"/>
  <path class="fil0 str0" d="M1296.61 4602.04c34.07,-7.86 68.07,13.38 75.93,47.46 7.87,34.08 -13.37,68.08 -47.44,75.94 -34.09,7.87 -68.08,-13.38 -75.95,-47.46 -7.86,-34.08 13.37,-68.08 47.46,-75.95zm362.55 265.07c843.35,-51.2 1625.02,511.85 1821.4,1362.46 218.89,948.12 -372.25,1894.16 -1320.37,2113.05 -948.13,218.89 -1894.16,-372.27 -2113.05,-1320.39 -196.38,-850.6 259.35,-1699.34 1039.78,-2023.01l-5.54 -23.97c-13.33,-57.76 18.92,-115.88 72.95,-136.3 -35.01,-31.21 -61.03,-73.19 -72.38,-122.36 -29.18,-126.42 49.63,-252.55 176.06,-281.74 126.41,-29.18 252.55,49.63 281.74,176.06 11.35,49.17 6.36,98.31 -11.42,141.71 57.51,-5.34 111.97,32.78 125.3,90.53l5.53 23.97zm589.07 1397.58l60.15 -205.54 492.8 -173.78 -325.71 408.04 -227.25 -28.72zm113.8 449.5l187.87 -102.83 471.34 225.6 -518.84 58.21 -140.37 -180.99zm-237.4 398.29l205.56 60.16 173.78 492.79 -408.06 -325.69 28.72 -227.26zm-449.51 113.79l102.82 187.87 -225.57 471.35 -58.23 -518.84 180.97 -140.38zm-398.29 -237.4l-60.13 205.57 -492.82 173.78 325.71 -408.04 227.24 28.7zm-113.77 -449.49l-187.88 102.82 -471.34 -225.59 518.83 -58.23 140.4 181zm237.38 -398.31l-205.54 -60.15 -173.79 -492.79 408.05 325.68 -28.72 227.25zm449.51 -113.78l-102.83 -187.87 224.84 -473.08 58.98 520.56 -180.98 140.4zm1160.39 -327.39l-134.73 48.3 -70.39 -297.14c85.58,75.48 139.54,159.2 205.12,248.84zm-769.16 273.34l449.09 -159.79 -104.11 -469.58 -487.51 113.17 48.68 461.64 137.47 -124.33 -43.61 178.88zm-160.89 -695.08l344.05 -79.75c-118.76,-54.79 -250.12,-95.17 -374.66,-118.51l30.61 198.27zm-201.19 1131.12c-37.61,-162.89 149.37,-239.05 149.37,-239.05 0,0 13.51,201.44 -149.37,239.05zm1421.17 444.42l-129.44 -61.12 160.36 -259.86c7.13,113.88 -13.91,211.23 -30.92,320.98zm-737.18 -350.61l430.55 204.59 258.42 -405.66 -424.73 -264.68 -292.02 360.83 185.12 9.29 -157.35 95.64zm377.75 -605.24l299.68 186.88c-45.24,-122.7 -109.57,-244.16 -181.13,-348.74l-118.55 161.86zm-942.1 657.56c88.59,-141.79 274.67,-63.41 274.67,-63.41 0,0 -132.89,151.99 -274.67,63.41zm690.67 1319.16l-48.31 -134.74 297.15 -70.38c-75.5,85.58 -159.18,139.54 -248.84,205.11zm-273.34 -769.16l159.79 449.09 469.58 -104.11 -113.18 -487.51 -461.63 48.68 124.32 137.46 -178.88 -43.61zm695.09 -160.9l79.74 344.07c54.79,-118.77 95.16,-250.12 118.54,-374.67l-198.28 30.61zm-1131.13 -201.19c162.9,-37.61 239.05,149.38 239.05,149.38 0,0 -201.45,13.51 -239.05,-149.38zm-444.43 1421.17l61.13 -129.44 259.88 160.36c-113.88,7.13 -211.22,-13.9 -321,-30.92zm350.62 -737.17l-204.56 430.55 405.63 258.42 264.71 -424.74 -360.85 -292.01 -9.27 185.11 -95.66 -157.34zm605.25 377.74l-186.9 299.69c122.73,-45.24 244.15,-109.56 348.75,-181.13l-161.85 -118.56zm-657.55 -942.08c141.75,88.58 63.41,274.66 63.41,274.66 0,0 -152.02,-132.89 -63.41,-274.66zm-1319.18 690.67l134.75 -48.32 70.37 297.15c-85.56,-75.5 -139.53,-159.19 -205.11,-248.83zm769.19 -273.35l-449.11 159.81 104.1 469.57 487.51 -113.16 -48.67 -461.65 -137.44 124.33 43.61 -178.9zm160.89 695.09l-344.07 79.75c118.75,54.8 250.1,95.17 374.67,118.53l-30.6 -198.28zm201.17 -1131.12c37.61,162.9 -149.38,239.07 -149.38,239.07 0,0 -13.51,-201.47 149.38,-239.07zm-1421.16 -444.41l129.44 61.11 -160.36 259.87c-7.11,-113.89 13.9,-211.23 30.92,-320.98zm737.16 350.6l-430.55 -204.57 -258.42 405.64 424.76 264.7 292 -360.85 -185.1 -9.27 157.32 -95.65zm-377.71 605.25l-299.69 -186.9c45.21,122.73 109.54,244.16 181.13,348.75l118.56 -161.85zm942.07 -657.56c-88.6,141.77 -274.67,63.41 -274.67,63.41 0,0 132.89,-152.01 274.67,-63.41zm-690.67 -1319.15l48.31 134.74 -297.15 70.37c75.49,-85.57 159.21,-139.54 248.84,-205.11zm273.34 769.17l-159.78 -449.11 -469.58 104.12 113.17 487.49 461.63 -48.67 -124.32 -137.44 178.88 43.61zm-695.08 160.89l-79.73 -344.07c-54.81,118.76 -95.19,250.12 -118.53,374.67l198.27 -30.6zm1131.12 201.18c-162.88,37.61 -239.05,-149.39 -239.05,-149.39 0,0 201.44,-13.51 239.05,149.39zm444.42 -1421.15l-61.12 129.43 -259.89 -160.34c113.91,-7.14 211.24,13.89 321,30.92zm-350.62 737.16l204.57 -430.54 -405.65 -258.43 -264.67 424.75 360.82 292.01 9.29 -185.11 95.64 157.33zm-605.25 -377.72l186.9 -299.69c-122.72,45.24 -244.15,109.55 -348.74,181.13l161.85 118.56zm657.58 942.07c-141.78,-88.59 -63.41,-274.67 -63.41,-274.67 0,0 151.98,132.89 63.41,274.67zm-68.82 267.86c-18.08,-78.3 30.74,-156.42 109.02,-174.49 78.29,-18.08 156.43,30.73 174.5,109.04 18.07,78.29 -30.75,156.41 -109.05,174.49 -78.27,18.08 -156.4,-30.74 -174.48,-109.03z"/>
  <path class="fil0 str0" d="M5347.35 4867.12c843.34,-51.2 1625.02,511.85 1821.4,1362.46 218.89,948.12 -372.27,1894.17 -1320.39,2113.05 -948.12,218.89 -1894.16,-372.27 -2113.05,-1320.38 -196.37,-850.59 259.36,-1699.33 1039.8,-2023.01l-5.53 -23.97c-13.34,-57.76 18.92,-115.88 72.95,-136.3 -35.01,-31.21 -61.04,-73.19 -72.39,-122.36 -29.19,-126.42 49.64,-252.56 176.05,-281.75 126.42,-29.18 252.56,49.63 281.75,176.05 11.35,49.18 6.35,98.31 -11.43,141.71 57.52,-5.34 111.98,32.78 125.31,90.53l5.53 23.97zm-61.02 2174.11c15.55,80.1 45.57,169.25 50.22,242.51 36.72,-26.83 50.19,-72.95 73.02,-109.2 22.73,-36.69 58.58,-67.83 66.25,-113.55l-54.43 -235.81c-2.39,-3.97 -6.16,-5.23 -12.46,-2.77 -29.3,79.99 -93.37,138.64 -122.6,218.82zm333.33 -7.71l0 0c72.62,46.22 141.4,98.82 221.35,133.75l-55.69 -241.24c-69.28,-51.84 -143.98,-95.2 -217.26,-140.36 -2.26,-3.99 -6.08,-5.34 -12.2,-3.01 28.3,72.21 41.87,168.19 63.8,250.86zm251.24 -236.97l0 0c-83.43,-36.86 -160.58,-83.61 -229.55,-143.36 86.66,-17.87 154.17,-29.85 241.25,-55.7 79.11,40.98 157.17,83.91 224.01,144.64 -68.96,14.99 -169.7,36.91 -235.71,54.42zm-573.74 -58.16l0 0c-43.41,73 -90.92,143.43 -134.98,216.02l-241.15 55.68c-25.79,5.51 3.58,-14.13 0.37,-23.16 19.73,-25.32 36.61,-52.29 50.58,-80.97 34.79,-30 40.96,-77.73 72.98,-109.33 81.95,-17.93 188.01,-45 252.2,-58.23zm447.52 -438.34l0 0c-21.23,38.37 -47.18,73.77 -72.9,109.3 -4.15,23.95 -17.83,41.85 -32.36,59.42 -3.13,16.73 -47.29,42.44 -17.47,50.2 66.58,-28.77 162.26,-39.37 240.13,-61.17 47.85,-65.46 82.84,-138.97 131.86,-203.71 -1.95,-9.44 -7.4,-13.03 -14.69,-13.95 -64.64,28.44 -158.51,38.53 -234.56,59.91zm-732.64 354l0 0 246.76 -56.97c-52.77,-47.98 -146.14,-96.61 -217.3,-140.45 -82.72,21.82 -188.84,37.86 -245.35,62.4 72.33,44.48 144.68,88.92 215.89,135.01zm419.27 -460.66l0 0c30.55,-79.48 90.2,-140.67 122.6,-218.91 6.32,-2.35 10.13,-1.1 12.38,2.88l55.71 241.29c-29.23,55.41 -68.71,112.74 -105.44,168.77 -9.99,15.37 -13.28,44.96 -36.16,42.92 -4.42,-71.31 -33.92,-158.57 -49.09,-236.96zm-309.57 135.01l0 0 -56.98 -246.83c73.77,41.98 145.25,88.13 216.09,134.95 21.89,80.12 33.53,176.45 62.34,245.51 -33.68,2.92 -77.25,-40.86 -112.15,-60.75 -38.29,-21.46 -77.03,-41.8 -109.3,-72.89zm35.42 -1257.8c20.29,22.1 33.57,54.46 30.83,93.14 29.98,-7.72 25.33,-37.17 59.31,-42.65 44.25,-0.64 80.63,11.15 90.36,65.89 -18.95,72.74 -69.51,125.54 -100.32,190.55 14.1,18.14 16.1,48.91 16.5,71.46 21.1,-11.08 33.21,-37.66 44.48,-56.58 34.39,-57.49 66.5,-126.76 120.68,-177.91l22.06 -5.1c41.38,-4.03 64.84,20.96 82.09,56.06 -3.12,85.56 -75.56,127.87 -97.88,201.61 -49.45,55.13 -76.8,124.06 -119.3,183.44 5.53,25.41 14.86,53.11 11.14,72.55 24.46,-0.79 29.32,-32.08 40.31,-49.73 34.7,-55.65 76.77,-124.19 120.57,-178.02 58.75,-21.19 85.45,8.57 108.45,44.27 -0.9,97.99 -85.03,144 -109.05,227.36 -39.96,63.55 -126.54,134.44 -95.43,212.63 54.97,-59.53 70.48,-143.68 140.04,-194.09 36.48,-13.25 55.19,1.82 77.45,10.99 34.6,-10.14 50.5,9.37 73.6,17.68 27.02,64.29 38.31,153.81 58.6,229 18.22,-10.41 18.11,-32.23 29.43,-47.23l-92.4 -400.2c4.53,-23.81 18.31,-41.74 32.6,-59.44 42.51,-15.78 69.74,-6.74 94.08,6.98 39.43,65.95 53.19,207.96 75.36,277.17 18.84,-19.42 29.5,-43.98 42.24,-67.42l-92.42 -400.29c8.7,-25.79 20,-50.02 48.94,-63.25 129.79,-32.55 111.02,172.64 151.81,282.52 15.59,-1.33 32.16,-42.33 43.49,-61.97 -11.8,-68.35 -44.59,-149.78 -36.04,-205.37 29.28,-56.22 138.71,-63.35 144.46,24.42 30.62,-20.11 33.29,-57.61 62.22,-78.78 -316.49,-180.3 -695.59,-252.53 -1078.27,-179.72zm1184.53 245.95c-1.23,34.02 -17.4,71.22 -40.4,92.71 49.25,-6.32 88.06,4.33 104.36,50.93 22.45,94.29 -114.01,112.73 -202.87,121.98 -24.78,22.06 -42.5,48.66 -57.55,76.69 95.62,-1.57 309.36,-130.11 331.65,10.2 0.19,33.06 -20.63,52.72 -40.96,72.97l-394.66 91.12c-24.6,14.35 -28.56,41.61 -43.45,61.97 105.41,6.29 291.27,-115.81 324.63,5.94 5.09,39.04 -15.17,62.43 -38.39,83.87l-235.82 54.44c-73.91,17.06 -167.94,19.16 -189.61,78.49 67.18,-7.08 198.83,-66.88 252.99,-29.47 21.51,35.72 48.08,63.36 69.14,99.5 -17.32,86 -77.12,145.65 -117.16,217.54 54.13,11.94 78.3,-42.76 98.23,-74.62 21.16,-33.72 43.86,-70.03 63.38,-101.13 42.18,-67.64 71.87,-147.92 140.04,-194.1 47.31,-8.33 75.13,14.52 93.02,53.56 -17.99,105.99 -101.22,171.37 -141.1,263.6l71.11 -16.42c46.7,-58.33 85.63,-121.94 125.1,-184.77 37.94,-61.04 65.44,-133.06 125.9,-179.24 53.1,-12.47 82.03,13.85 100.07,57.79 -25.11,100.08 -101.38,168.36 -142.51,258.07 145.53,-12.21 117.34,-132.97 199.88,-184.7 82.09,-33.93 122.91,67.84 85.15,118.9 38.96,-20.87 71.99,-22.94 97.06,-14.24 -102.82,-376.77 -335.06,-686.41 -637.22,-891.58zm666.58 1019.43c-17.97,16.92 -46.74,28.3 -88.06,27.69 -4.5,22.54 43.79,24.79 39.65,71.73 -1.15,35.17 -21.18,58.61 -51.87,75.49 -84.77,-4.64 -132.31,-68.58 -201.69,-97.84l-71.24 16.45c57.76,62.78 176.58,92.94 237.17,176.28 1.66,43.33 -17.08,73.92 -53.62,93.17 -79.53,2.45 -114.1,-67.73 -181.41,-85.08 -20.59,-16.98 -44.02,-29.62 -63.25,-49.03 -54.34,-20.61 -98.13,-58.14 -147.23,-87.24l-76.67 17.7c76.62,64.99 179.26,88.49 242.38,175.07 3.51,44.39 -17.93,73.07 -53.5,93.15 -42.46,6.95 -75.42,-23.62 -108.36,-44.28 -45.67,-28.54 -91.88,-49.19 -130.75,-91.12 -51.54,-25.18 -101.1,-53.39 -147.2,-87.24 -23.01,9.69 -52.49,5 -60.32,13.93 66.61,53.78 155.12,72.22 207.42,148.47 -4.33,44.23 -17.62,82.78 -22.74,126.43 -39.01,47.2 -164.64,61.23 -237.35,72.27 2.57,25.78 28.85,13.74 36.14,32.11l405.78 -93.68c27.55,10.98 54.95,22.35 70.02,53.11 16.74,128.05 -176.75,118.43 -289.18,147.63 14.95,28.33 46.34,31.02 68.76,47.68 115.91,-40.16 260.73,-62.24 387.94,-95.43 32.52,8.16 63.62,18.55 76.79,57.41 5.02,36.04 -11.41,58.52 -27.4,81.49l-268.75 62.05c20.48,22.29 49.57,30.77 74.23,46.28 100.06,-19.83 223.54,-77.41 248.2,23.59 -0.94,43.23 -25.89,80.54 -74.03,80.52 21.54,29.72 57.59,35.77 78.96,65.52 179.93,-315.29 252.52,-692.86 181.19,-1074.24zm-247.33 1180.24c-32.31,-1.43 -66.72,-16.28 -85.97,-39.07 0.87,49.61 -10.44,92.42 -51.07,104.29 -88.22,25.77 -107.65,-98.95 -128.69,-207.1 -20.56,-24.77 -43.03,-46.4 -75.5,-51.83 27.19,104.12 109,298.92 6.16,327.74 -26.04,7.27 -33.09,-4.76 -59.8,-9.28 -59.71,-69.24 -92.7,-318.48 -115.11,-423.92 -21.07,-21.37 -45.74,-37.08 -74.14,-46.43 18.78,105.29 129.11,305.01 -11.5,325.96 -33.97,2.11 -51.09,-23.22 -72.84,-40.84l-54.43 -235.72c-17.11,-74.12 -18.77,-169.06 -78.51,-189.84 9.36,53.26 35.25,143.38 49.36,213.79 -13.38,54.33 -67.63,82.85 -124.85,109.69 -86.8,-13.96 -136.38,-87.11 -216.27,-111.71 -2.77,55.95 52.68,70.65 84.14,90.3 33.63,20.85 65.08,45.24 95.9,64.49 65.85,41.22 140.48,71.32 192.68,134.49 12.25,53.04 -6.03,87.04 -57.81,99.97 -101.79,-19.87 -162.94,-104.76 -256.69,-137.08l15.21 65.9c90.68,73.33 190.72,122.47 291.4,186.76 29.77,19.15 71.75,40.97 77.54,86.06 -1.45,38.16 -17.59,67.26 -62.88,78.02 -100.85,-21.55 -163.04,-104.52 -256.69,-137.06 14.92,146.13 141.63,113.39 191.42,204.08 18.31,76.43 -68.98,115.48 -125.62,80.92 7.15,31.86 16.92,65.29 17.35,92.88 374.74,-103.29 682.77,-334.71 887.23,-635.5zm-1017.9 665.72c-19.1,-19.27 -31.54,-49.52 -29.26,-90.19 -15.46,-3.08 -20.14,40.57 -54.16,41.57 -36.59,5.86 -59.53,-10.01 -81.36,-27.52l-10.12 -43.84c4.25,-87.96 136.01,-128.51 79.84,-255.21 -70.35,71.87 -80.9,180.98 -176.41,237.05 -40.85,5.07 -66.31,-13.97 -85.13,-43.85 -14.71,-68.58 29.83,-100.07 59.78,-140.99 39.87,-93.92 109.85,-168.87 153.66,-260.57l-16.47 -71.32c-32.58,38.97 -53.64,85.72 -80.31,128.26 -24.58,39.49 -46.97,91.72 -101.56,110.08 -39.35,0.21 -68.78,-14.96 -82.19,-56.04 4.91,-84.5 67.11,-133.22 104.45,-197.46 27.29,-70.53 83.86,-122.66 111.52,-193.18l-10.13 -43.84c-50.92,43.31 -76.92,142.91 -140.14,194 -51.71,12.74 -77.95,-15.43 -123.94,-11.81 -13.34,-8.86 -23.56,-22.5 -36.37,-32.05l-48.06 -208.22c-12.97,-7.83 -17.74,29.18 -32.08,36.23l93.65 405.66c-14.23,22.32 -19.3,50.63 -49.05,63.24 -131.08,34.77 -110.04,-174.09 -151.74,-282.52 -15.17,3.05 -36.26,42.95 -42.2,67.53l91.16 394.86c-7.7,23.18 -17.87,45 -37.94,60.56l-49.43 11.41c-84.31,-25.14 -79.7,-192.93 -114.69,-296.8 -20.35,23.16 -36.41,49.19 -45.14,79.69 12.4,70.35 74.22,187.68 1.33,230.62l-43.97 10.15c-26.46,-15.06 -57.87,-22.34 -62.73,-72.14 -30.08,20.2 -33.61,57 -64.08,76.86 315.18,179.23 692.36,251.31 1073.28,179.79zm-1183.7 -248.71c7.37,-34.33 30.5,-58.87 46.3,-88.05 -45.33,4.84 -83.61,-1.52 -101.73,-40.03 -37.4,-109.33 106.28,-105.65 200.48,-132.92 24.46,-18.96 36.08,-46.19 53.02,-69.93 -108.06,-7.37 -302.86,124.23 -327.41,-16.76 -2.28,-32.84 20.83,-49.77 35.48,-71.86l394.82 -91.15c21.86,-17.67 36.59,-39.75 48.97,-63.22 -104.83,-5.08 -284.96,110.51 -323.64,-0.43 -14.45,-44.97 16.78,-61.44 31.82,-88.1l400.19 -92.39c9.27,-14.53 26.4,-24.22 30.67,-41.79 -68.4,-0.65 -164.12,42.39 -232.79,42.16 -37.96,-24.48 -60.26,-73.63 -89.31,-112.19 9.27,-92.6 83.49,-144.89 115.88,-223.11 -14.73,-8.76 -25.07,11.86 -49.29,11.38 -41.33,60.13 -80.22,122.05 -119.41,183.46 -15.15,34.37 -38.91,63.26 -58.94,94.5 -18.77,29.11 -29.88,68.75 -67.18,84.79 -53.69,15.76 -76.91,-16.95 -98.57,-52.28 14.19,-108.36 101.42,-171.1 141.24,-263.63 -16.13,-5.4 -42.25,15.26 -71.46,16.5 -46.63,58.06 -85.51,121.89 -124.65,184.67 -38.14,61.08 -65.59,133.1 -126.22,179.31 -52.76,14.55 -78.53,-14.21 -98.69,-52.25 0.03,-59.48 39.15,-94.42 66.8,-136.63 20.86,-44.8 53.67,-82.22 74.54,-127.03 -20.75,1.4 -44.34,6.51 -78.16,12.3 -55.7,51.05 -58.71,135.09 -132.74,175.03 -39.33,2.8 -67.22,-12.64 -85.27,-43.93 -20.98,-44.5 9.73,-56.44 15.35,-84.31 -24.61,-5.59 -48.84,24.2 -86.55,25.72 -5.93,-0.71 -11.5,-1.92 -16.7,-3.55 103.02,373.81 333.51,681.25 633.19,885.73zm-662.65 -1012.55c18.41,-19.13 48.18,-31.92 89.92,-29.9 1.32,-21.71 -51.18,-37.75 -40.9,-77.19 40.98,-148.91 185.43,-5.29 254.7,27.83l76.9 -17.76c-49.54,-59.86 -366.12,-149.8 -189,-268.18 85.32,6 133.31,71.85 202.94,103.19 66.69,36.07 123.31,88.11 194.28,116.91l66 -15.24c-13.2,-26.46 -41.28,-28.99 -61.97,-43.49 -56.02,-48.35 -131.93,-64.03 -175.07,-132.81 -4.3,-44.85 19.21,-72.38 53.5,-93.13 88.4,11.01 143.25,75.97 216.39,111.72 31.02,27.96 74.72,35.69 102.48,68.68 38.19,14.04 59.39,55.13 122.31,29.56 -64.68,-54.24 -149.16,-76.63 -201.96,-149.73 9.11,-47.38 8.82,-100.82 31.09,-139.99 52.47,-32.83 162.02,-50.14 228.97,-58.73 -4.97,-29.39 -34.5,-19.72 -48.4,-34.99 -116.15,39.99 -260.69,62.3 -388.14,95.34 -33.55,-6.2 -60.86,-22.56 -76.76,-57.28 -19.36,-118.57 179.18,-100.85 285.25,-140.9 3.81,-21.58 -38.86,-32.68 -56.63,-44.71l-400.29 92.41c-26.33,-12.94 -57.03,-18.69 -70.08,-53.21 -27.05,-126.45 181.4,-105.65 289.45,-147.7 -36.6,-76.49 -152.87,-25.76 -249.63,-5.78 -25.49,-14.27 -54.51,-22.9 -65.87,-59.93 -0.28,-45.57 12.92,-82.62 71.36,-91.5 -23.05,-26.99 -61.44,-29.23 -80.95,-61.94 -180.39,316.5 -252.68,695.67 -179.87,1078.43zm249.06 -1189.03c35.57,4.44 53.71,36.48 86.33,45.59 -0.28,-39.24 4.27,-75.54 35.85,-94.88 7.81,-1.36 15.81,-2.77 15.11,-9.23 101.41,-21.96 104.46,113.31 130.07,212.48 17.09,22.44 39.63,36.48 67.39,42.12 -5.97,-98.54 -99.54,-257.96 -14.75,-314.17l32.95 -7.6c32.97,-0.27 52.76,20.62 72.86,40.88 25.91,128.83 69.71,268.78 84.43,390.65 18.16,23.43 44,34.8 68.77,47.53 -6.21,-87.43 -96.12,-261.68 -26.9,-317.06 46.51,-24.06 80.68,-4.77 108.72,20.98l92.41 400.3c14.8,13.82 28.55,29.54 48.52,34.97 -7.6,-58.15 -52.54,-175.41 -43.52,-238.23 15.16,-18.69 26.11,-40.15 58.28,-48.13 21.12,-13.34 25.68,-37.05 66.27,-38.42 78.92,21.22 133.28,82.01 205.48,114.32 4.15,-54.79 -45.71,-70.64 -79.02,-91.46 -33.44,-21 -70.01,-43.75 -101.26,-63.35 -68.04,-42.54 -140.76,-81.28 -193.94,-139.99 -3.91,-47.62 10.29,-84.15 64.39,-95.76 95.86,20.47 162.97,97.46 251.58,138.27 5.44,-16 -15.35,-42.19 -16.47,-71.34 -45.29,-38.08 -109.24,-77.4 -184.9,-124.69 -52.92,-32.97 -164.5,-75.13 -179.17,-126.15 -10.55,-35.42 9.47,-85.21 64.42,-95.64 50.29,5.52 90.63,37.78 129.85,62.28 40.44,25.38 77.83,56.06 121.74,76 -2.92,-133.29 -138.05,-119.87 -186.22,-205.54 -22.01,-73.88 69.36,-117.71 120.37,-79.71 -9.93,-31.05 -16.69,-68.11 -9.27,-98.16 -375.74,102.05 -684.85,332.71 -890.39,633.14zm839.02 -1129.6c34.08,-7.87 68.09,13.38 75.95,47.45 7.86,34.08 -13.39,68.08 -47.46,75.95 -34.08,7.86 -68.08,-13.38 -75.94,-47.46 -7.87,-34.07 13.37,-68.08 47.46,-75.94z"/>
  <path class="fil0 str0" d="M16260.34 439.87c843.34,-51.2 1625.02,511.86 1821.4,1362.46 218.88,948.12 -372.27,1894.17 -1320.38,2113.05 -948.12,218.89 -1894.16,-372.27 -2113.05,-1320.38 -196.38,-850.6 259.35,-1699.34 1039.79,-2023.01l-5.53 -23.97c-13.34,-57.76 18.91,-115.88 72.95,-136.3 -35.01,-31.21 -61.04,-73.19 -72.4,-122.36 -29.18,-126.42 49.64,-252.56 176.06,-281.74 126.41,-29.18 252.55,49.63 281.74,176.05 11.35,49.18 6.36,98.31 -11.42,141.71 57.51,-5.34 111.98,32.78 125.31,90.53l5.53 23.97zm360.88 2007.96c-30.02,40.56 -75.48,71.33 -106.84,111.11 12.38,22.35 19.02,51.11 17.69,76.62 50.79,16.11 108.82,20.72 167.05,24.84 9.19,-50.44 13.53,-103.9 28.59,-150.71 -34.64,-21.84 -64.82,-51.12 -106.49,-61.86zm-389.62 84.31l0 0c-13.81,38.2 -48.3,63.4 -56.56,105.14 36.08,34.8 60.63,88 97.33,121.64 37.72,-34.17 96.85,-54.89 128.34,-93.04 -9.71,-29.47 -10.59,-73.18 -26.94,-91.73 -47.89,-13.46 -88.84,-37.76 -142.18,-42.02zm505.84 -180.26l0 0c19.71,15.72 36.07,37.24 66.08,36.64 47.7,-26.42 77.04,-64.28 122.79,-91.85 -28.45,-46.66 -51.69,-101.99 -92.98,-128.26 -16.49,-1.51 -67.2,21.48 -94.28,15.91 5.27,59.46 28.85,130.35 -1.62,167.56zm-814.89 15.23l0 0c-4.14,55.19 -16.86,105.07 -20.62,160.31 50.24,9.45 101.08,18.12 150.7,28.71 16.66,-23.9 36.2,-46.09 46.24,-74.18 -44.34,-8.8 -34.63,-104.33 -61.45,-141.37l-114.87 26.52zm384.63 -405.81l0 0c0.28,6.45 -4.13,9.94 -8.35,13.51 -27.98,24.58 -52.42,51.5 -80.37,76.17 -22.93,29.39 -67.55,45.22 -79.08,81.65 9.2,58.78 45.6,166.88 48.75,236.52 74.85,32.61 161.2,46.77 236.92,77.92 32.72,-28.03 63.84,-56.97 95.66,-85.46 26.68,-33.17 74.14,-53.51 87.45,-95.18 -8.33,-54.68 -46.06,-165.41 -47.59,-231.04 -82.93,-27.23 -163.6,-57.82 -253.39,-74.09zm364.5 -118.62l0 0c-6.86,26.93 -34.11,41.09 -35.28,71.51 48.52,4.91 53.86,100.73 66.91,140.15l109.44 -25.26c1.39,-56.85 15.14,-106.05 20.64,-160.37 -51.46,-12.66 -102.55,-25.84 -161.71,-26.03zm-745.38 166.24l0 0c-38.91,31.82 -84.54,59.47 -122.89,91.74 28.31,44.68 60.24,83.46 87.59,129.74l120.33 -27.78c-20.91,-64.64 -25.83,-119.22 -1.2,-155.42 -25.49,-16.73 -48.63,-37.06 -83.83,-38.27zm406.98 -284.21l0 0c13.65,29.95 10.18,57.76 22.75,98.53 42.93,18.67 86.56,36.51 136.75,43.28 31.54,-30.23 52.4,-67.01 67.34,-107.61 -42.06,-27.66 -57,-98.74 -102.65,-120.41 -43.55,27.29 -83.92,56.88 -124.19,86.21zm-325.71 161.76l0 0c36.93,23.34 69.26,53.81 113.17,65.94 37.87,-32.48 80.33,-62.1 102.79,-104.34 -15.38,-34.36 -17.66,-52.53 -21.49,-93.07 -53.16,-9.79 -109.31,-15.07 -161.71,-26.03 -14.64,50.18 -22.59,104.47 -32.76,157.49zm98.32 -1146.65l0 0c53.56,-5.59 100.32,-0.53 111.95,60.64 3.98,50.85 -47.84,66.86 -75.3,98.08 14.66,36.56 10.52,103.06 38.7,117.81 41.55,-17.99 -8.69,-38.51 -10.87,-72.34 -1.78,-30.63 14.14,-50.42 29.82,-70.35 85.25,-33.89 102.19,41.47 140.13,82.9 50.79,11.34 113.65,3.15 130.96,67.85 5.82,37.93 -13.73,60.13 -39.58,78.24 -47.5,13.78 -72.01,-9.6 -111.57,-8.79 -46.1,21.11 -82.65,48.23 -114.44,78.21 13.92,56.78 21.94,78 29.08,125.99 59.85,-31.35 102.92,-73.04 159.89,-106.15 44.03,-0.46 81.25,10.06 90.15,65.68 -20.14,96.6 -157.58,120.11 -214.68,193.63 15.71,35.43 13.93,77.85 29.05,125.79 37.1,-11.03 51.61,-36.33 79.97,-53.02 -5.74,-25.8 -25.38,-29.38 -30.35,-56.38 10.22,-34.18 14.55,-72.02 68.16,-79.2 39.32,-0.43 56.78,34.3 82.18,56 41.66,-50.02 131.23,-47.3 136.76,43.42 -8.81,27.24 -30.86,46.29 -54.4,64.31 3.28,26.73 37.25,64.25 59.89,84.23 27.52,-35.83 49.91,-74.89 71.49,-114.56 -39.84,-83.78 -224.7,-206.24 -95.52,-288.97 91.54,-1.79 114.77,106.14 170.07,162.34 35.41,-32.49 52.77,-76.31 77.05,-115.8 -26.68,-32.14 -52.54,-65.82 -75.77,-103.43 -57.59,-15.42 -135.38,1.65 -142.77,-93.78 11.93,-61.89 101.18,-62.11 150.69,-46.51 49.55,-12.68 58.17,-50.9 119.5,-56.31 23.06,13.14 50.48,19.21 58.96,55.51 11.9,51.06 -34.67,65.76 -52.1,98.48 0.42,9.14 7.29,8.24 9.22,15.23 40.07,-8.36 54.52,-71.6 79.52,-104.84 -14.75,-23.82 -33.74,-40.84 -45.07,-70.29 -20.77,-67.5 86.12,-114.58 119.59,-56.43 31.34,-24.82 39.81,-63.9 69.98,-89.43 -316.61,-182.79 -696.8,-256.95 -1080.86,-185.18 20.31,24 28.68,61.96 30.55,97.45zm1150.13 150.39c-2.86,35.08 -22.89,74.2 -49.88,97.13 19.59,18.57 47.66,23.56 58.99,55.51 13.83,72.57 -74.64,98.52 -132.15,76.64 -33.72,30.42 -50.25,71.51 -72.9,108.94 57.02,21.73 37,-69.33 84.64,-82.91 40.14,-4.23 68.81,9.76 89.28,37.11 14.62,48.1 -7.75,73.17 -8.91,111.47 13.08,43.94 47.44,53.89 58.16,101.87 1.42,36.82 -18.49,60.34 -51.8,75.35 -64.62,11.21 -85.4,-48.08 -118.26,-88.01 -38.53,-15.65 -83.82,-20.69 -127.55,-28.17 -35.64,30.83 -48.57,75.74 -78.22,110.28 65.49,32.49 162.47,14.69 216.71,65.23 22.18,59.04 -7.03,86.14 -44.16,108.24 -84.91,-8.98 -162.91,-28.91 -245.81,-41.3 -35.08,32.76 -53.13,76.08 -77.04,115.83 31.62,4.28 63.17,8.82 90.9,19.33 16,-24.42 15.54,-59 39.56,-78.38 56.04,-22.06 83.07,1.96 105.73,33.34 7.47,26.42 -6.38,39.74 -2.59,63.85 27.29,13.87 63.67,12.99 83.85,38.4 35.25,82.03 -38.78,125.13 -102.76,104.46 -12.44,28.07 -9.99,65.47 -18.08,96.22 34.03,5.56 86.06,-17.83 127.08,-23.45 32.74,-78.07 21.24,-183.46 55.1,-260.6 40.32,-35 99.6,-23 119.57,18.54 10.01,78.06 -19.96,131.03 -22.69,201.09 33.94,5.58 86.05,-17.83 127.06,-23.45 21.94,-34.67 11.65,-89.49 28.2,-127.55 -18.65,-34.99 -43.74,-59.79 -62.27,-95.14 0.08,-34.26 15.53,-58.99 39.57,-78.26 73.6,-20.61 96.27,40.59 129.12,85.36 51.53,10.04 109.78,9.22 135.21,60.97 14.39,60.4 -51.11,108.69 -107.75,82.63 -13.91,3.74 -2.93,23.06 -16.9,26.97 27.47,18.54 87.37,-15.1 128.43,-18.16 19.12,-45.88 5.17,-112.3 88,-118.25 30.36,12.09 66.09,35.6 59.83,84.12 41.55,-12.3 81.93,-22.63 112.59,-17.38 -101.66,-379.49 -334.41,-691.4 -637.85,-897.89zm664.84 1016.34c-25.05,20.1 -64.75,29.98 -103.84,28.89 12.1,35.39 6.86,80.37 -22.32,103.21 -76.92,30.59 -95.46,-32.11 -130.95,-67.83 -34.09,12.83 -91.15,17.67 -119.04,33.34 11.37,47 44.46,5.5 68.14,-4.25 41.21,-3.33 68.19,15.55 86.3,49.19 5.01,57.72 -36.54,86.47 -83.77,111.52 -19.68,42.4 -13.51,100.96 -50.09,132.72 -51.17,17.11 -80.08,-1.78 -100.18,-34.61 -6.32,-42.91 0.39,-77.79 8.83,-111.46 -26.21,-40.44 -51.23,-82.97 -83.8,-113.29 -30.53,14.48 -86.35,30.19 -120.33,27.78 18.16,75.86 170.63,177.87 58.11,251.71 -113.79,-2.77 -140.19,-145.42 -211.28,-216.35 -32.83,16.24 -89.27,29.26 -125.88,29.06 -1.57,31.76 36.88,59.36 54.29,85.53 42.56,-49.21 125.92,-33.35 131.42,44.51 -12.18,25.35 -25.74,49.62 -61.07,60.27 1.8,37.08 31.61,29.18 32.78,67.39 16.29,99.81 -116.67,96.75 -139.34,20.58 -22.35,26.55 -67.58,38.89 -88.36,66.45 41.73,23.1 82.64,47.68 121.19,75.8 68.88,-52.26 132.4,-107.82 212.59,-152.86 32.75,2.46 57.52,17.88 74.11,46.4 9.18,97.8 -96.63,123.71 -161.23,175.44 32.68,35.22 76.09,53.12 115.82,76.94 38.92,-23.96 69.95,-52.98 108.99,-76.96 5.13,-57.69 1.24,-120.84 71.92,-137.62 34.57,-0.35 54.86,22.13 74.17,46.27 1.07,39.83 -3.2,76.03 -15.63,107.37 49.99,48.35 97.14,144.43 6.31,177.09 -26.6,2.79 -42.1,-12.34 -62.25,-20.07 -13.66,-9.36 -25.85,-48.99 -41.68,-30.81 -29.04,23.5 16.03,33 33.17,44.27 23.99,15.6 46.59,31.57 61.93,43.33 31.82,-44.96 125.83,-71.62 148.55,-5.47 13.81,41.3 -10.74,58.78 -20.59,85.44 29.35,21.41 66.87,29.92 89.88,61.58 181.99,-316.73 255.46,-696.75 183.14,-1080.53zm-248.42 1184.66c-37.99,-7.67 -61.2,-38.85 -96.08,-51.23 -19.14,16.12 -21.44,42.77 -51.45,52.18 -76.93,22.13 -107.49,-75.5 -75.28,-126.73 -33.4,-31.47 -70.75,-56.71 -114.48,-71.5 -27.18,45.1 47.07,33.14 64.47,54.33 4.77,12.31 11.72,21.08 18.47,30.29 19.88,93.92 -95.29,98.79 -155.33,76.19 -41.32,45.77 -139.93,88.27 -170.48,10.54 -12.71,-67.18 44.99,-90.51 93.43,-119.52 9.83,-42.22 9.3,-90.96 28.17,-127.62 -32.97,-34.63 -75.57,-53.82 -115.72,-76.99 -18.79,27.33 -16.28,67.94 -22.34,103.22 -12.12,31.4 -11.2,70.91 -28.97,98.8 -15.27,4.51 -20.53,15.29 -35.82,19.85 -37.32,4.66 -59.48,-14.76 -78.25,-39.56 -6.84,-97.95 20.78,-174.27 38.65,-256.81 -35.23,-33.55 -75.52,-58.91 -121.17,-75.73 -10.78,26.03 -5.97,61.92 -20.6,85.35 28.81,21.39 74.4,15.95 88.79,60.32 17.03,59.71 -49.66,107.28 -102.24,81.27 -22.89,27.78 -17.57,73.27 -53.54,92.94 -49.07,13.72 -73.92,-11.53 -95.96,-41.22 -7.45,-26.52 6.49,-39.65 2.54,-64.06 -24.54,-15.61 -58.96,-15.45 -90.89,-19.23 -17.41,18.68 28.82,88.71 16.86,122.79 82.55,55.22 242.2,-12.92 284.05,107.43 2.33,31 -19.65,46.99 -36.64,66.01 -80.87,14.48 -131.23,-19.8 -205.27,-15.88 -2.23,27.4 28.63,85.02 22.28,121.49 38.06,19.02 87.63,19.72 133.02,27.04 34.38,-14.46 51.92,-39.36 78.68,-58.59 39,-1.22 74.19,4.37 87.9,31.73 29.71,58.42 -21.58,103.47 -74.47,126.5 -22.33,50.07 -8.19,122.91 -76.17,144.44 -32.88,2.88 -53.83,-13.67 -71.51,-35.26 -20.76,-35.28 14.55,-82.26 -25.6,-86.39 -28.35,19.94 13.75,85.85 10.06,118.68 29.44,27.89 84.14,15.26 109.4,49.6 21.88,64.07 -10.76,106.97 -67.31,107.73 11.13,35.99 19.48,80.09 10.45,114.31 379.54,-101.28 691.58,-333.62 898.35,-636.7zm-1008.75 662.03c-19.38,-22.1 -30.12,-58.04 -35.58,-102.46 -40.62,8.35 -81.87,3.8 -105.62,-33.26 -19.12,-63.38 22.63,-88.77 66.04,-113.2 2.93,-37.17 -17.19,-88.77 -24.85,-132.6 -55.35,9.27 -9.93,47.65 -0.02,74.95 1.9,36.96 -16.82,61.21 -45.03,79.51 -67.39,12.89 -90.26,-45.34 -123.69,-86.7 -47.87,-15.75 -109.35,-9.9 -135.11,-61.01 -3.64,-42.76 18.53,-69.56 47.94,-91.8 39.8,-1.17 70.87,11.56 107.39,15.63 44.69,-21.93 76.76,-51.81 114.41,-78.31l-29.04 -125.79c-57.82,17.16 -102.73,82.12 -177.63,104.28 -29.54,-2.63 -52.7,-15.54 -67.37,-41.99 -13.39,-124 150.95,-136.72 209.61,-215.57l-29.05 -125.81c-29.37,-0.06 -54.75,39.78 -85.4,54.29 11.66,18.81 29.87,27 31.51,61.84 -2.16,85.73 -118.44,85.24 -146.04,16.52 -100.33,98.25 -200.88,-65.65 -78.33,-114.54 -25.53,-18.99 -36.47,-61.48 -63.9,-77.43 -30.91,33.82 -50.31,74.65 -71.53,114.46 41.9,84.44 221.73,204.66 95.5,289.21 -90.71,-2.27 -120,-102.79 -171.27,-167.95 -38.41,32.19 -49.05,81.69 -75.84,121.18 27.7,30.78 52.06,66.57 75.91,103.51 53.76,13.91 126.97,-3.43 138.81,77.48 -1.08,32 -19.6,53.28 -47.57,68.63 -41.15,6 -69.94,-7.94 -106.04,-10.2 -39.29,14.61 -53.63,44.6 -96.37,56.94 -30.77,1.67 -50.47,-14.25 -70.29,-29.94l-10.1 -43.72c-4.15,-41.92 79.47,-61.91 41.22,-95.95 -29.8,7.89 -17.16,42.23 -45.9,50.77 -7.97,20.2 -22.02,36.4 -26.99,58.25 50.31,42.31 64,128.98 -10.88,152.36 -30.04,2.99 -46.32,-15.87 -69,-24.37 -27.61,26.95 -39.26,64.11 -69.17,89.67 318.95,183.93 702.37,257.71 1089.25,183.13zm-1191.27 -247.22c1.2,-42.01 39.97,-60.4 51.19,-95.94 -14.77,-23.84 -42.31,-27.15 -53.41,-56.79 -3.42,-39.5 15.02,-65.5 43.72,-85.08 36.23,-7.88 56.81,9.07 88.41,8.45 29.12,-33.32 45.72,-74.43 72.91,-108.94 -4.21,-10.96 -21.65,-0.52 -25.7,-11.39 -26.41,24.09 -18.79,69.49 -54.79,87.51 -101.41,34.2 -112.57,-87.26 -85.89,-147.25 -47.44,-46.46 -89.01,-146.61 -6.26,-177.21 65.31,-9.68 83.03,56.83 119.51,93.42 36.53,16.33 85.51,13.04 122.1,29.45 42.1,-26.7 46.21,-77.22 78.19,-110.34 -20.63,-29.35 -71.49,-10.66 -98.88,-28.96 -34.95,-4.1 -68.03,-10.97 -97.68,-23.64 -21.76,-21.74 -28.12,-64.32 -14.75,-88.79 12.94,-13.68 34.53,-22.13 49.68,-34.54 84.01,7.95 158.39,31.31 240.37,42.45 30.07,-32.61 43.51,-75.78 72.76,-108.99 -17.42,-27.06 -61.18,-11.9 -86.62,-26.06 -17.96,30.95 -23.84,69.45 -60.23,88.79 -56.45,7.5 -108.83,-49.07 -82.48,-107.62 -32.36,-18.31 -77.64,-15.85 -94.35,-59.05 -4.92,-37.34 11.99,-61.2 32.85,-82.45 33.44,-13.68 52.44,-3.99 74.98,-0.08 18.83,-25.63 9.76,-68.78 23.47,-97.61 -34.5,-4.77 -85.71,17.3 -127.03,23.61 -43.09,77.7 -11.08,202.23 -70.33,269.86 -159.82,40.51 -94.73,-153.97 -81.69,-229.04 -34.02,-5.53 -86.12,17.99 -127.14,23.64 -25.58,34.04 -15.56,90.16 -26.82,133.06 19.6,28.34 40.43,55.06 59.74,84.14 0.58,36.21 -12.49,63.99 -38.29,83.8 -80.75,26.74 -92.33,-57.14 -136.01,-89.73 -83.23,13.49 -174.15,-69.32 -100.99,-138.01 44.62,-26.6 95.7,23.51 90.44,-32.47 -32.11,-5.97 -82.37,17.12 -121.68,22.37 -12.93,33.91 -17.04,73.48 -39.89,101.38 -68.8,25.24 -111.03,-6.44 -113.17,-66.04 -44.2,14.49 -83.55,21.34 -113.59,13.31 100.92,380.63 333.61,693.58 637.32,900.79zm-662.88 -1013.5c22.21,-19.41 58.11,-30.27 102.02,-36.01 7.72,-19.25 -7.5,-25.75 -5.82,-50.67 23.72,-89.34 130.09,-64.6 159.08,15.28 40.6,-11.42 102.43,-21.07 125.79,-29.05 -1.44,-17.93 -12.75,-19.68 -18.48,-30.44 -25.56,12.24 -36.69,33.26 -78.31,35.45 -26.09,-8.26 -43.54,-30.25 -58.96,-55.5 -2.17,-57.61 42.92,-85.79 89.2,-112.92 12.61,-51.68 13.05,-132.15 77.48,-138.91 30.8,-3.16 41.96,16.1 66.09,36.65 17.56,53.14 -5.29,80.92 -6.3,122.45 23.56,37.13 50.23,69.37 71.54,110.37 28.34,-1.04 94.61,-29.95 132.57,-25 4.11,-33.46 -38.91,-51 -48.79,-86.53 -21.23,-23.62 -39.59,-51.66 -54.32,-85.52 -3.81,-47.31 27.02,-83 79.06,-81.76 77.52,38.3 113.13,143.78 170.53,214.39l136.79 -31.58c-18.65,-25.18 -36.46,-51.7 -53,-79.96 -48.5,44.07 -132.8,40.2 -138.15,-48.93 9.55,-26.76 29.92,-46.89 54.33,-64.47 -41.82,-47.53 -45,-127.17 31.11,-139.67 39.5,-0.65 63.68,23.14 82.07,56.04 28.29,-19.83 53.06,-41.86 84.15,-59.85 -34.78,-31.61 -80.41,-45.92 -115.73,-76.96 -76,47.73 -124.02,112.71 -219.2,148.53 -33.18,-1.79 -58.25,-16.72 -69.88,-52.97 -1.63,-91.49 106.51,-114.53 162.45,-170.1 -36.12,-29.73 -77.8,-50.27 -115.83,-77.06 -34.06,25.64 -63.1,54.29 -103.51,75.91 -17.09,50.21 -7.03,117.22 -65.18,141.8 -37.51,2.33 -65.52,-10.22 -83.71,-38.32 -12.5,-48.32 6.53,-77.02 7.43,-117 -11.94,-36.53 -52.88,-56.46 -56.68,-96.33 -3.22,-32.9 22.64,-72.66 62.61,-77.93 56.05,-7.42 53.29,70.9 113.58,42.9 -28.42,-39.18 -77.7,-45.43 -110.24,-78.22 -37.75,46.18 -137.59,75.54 -152.41,-10.98 -8.65,-33.61 18.93,-44.45 24.5,-69.05 -28.19,-9.65 -69.77,-37.58 -89.56,-69.97 -186.31,319.11 -261.95,703.63 -188.32,1091.87zm249.44 -1188.43c39.27,7.8 64.43,38.27 99.96,52.06 11.89,-60.59 118.14,-77.36 136.42,-8.4 6.52,33.72 -5.43,55.97 -9.67,82.95 32.85,32.16 71,55.99 114.44,71.52 3.66,-5.57 -0.24,-15.7 7.11,-19 -7.97,-27.19 -38.21,-18.75 -58.02,-27.01 -8.08,-21.86 -33.09,-16.91 -34.5,-49.56 -5.02,-40.62 21.2,-61.64 50.45,-80.76 36.32,-0.73 65.89,9.46 100.62,11.21 56.23,-45.62 149.91,-90.44 179.76,4.65 -6.45,49.11 -42.43,79.6 -91.76,101.94 -18.09,38.59 -18.2,88.49 -26.92,133.04 29.4,37.7 71.22,55.83 110.27,78.14 32.39,-70.32 4.29,-178.3 81.6,-220.45 160.18,5.33 47.79,207.59 45.02,295.03 32.69,35.2 76.83,51.92 115.82,77.03 10.19,-29.61 17.6,-60.91 18.03,-96.49 -80.46,8.33 -111.91,-108.34 -38.28,-140.89 26.56,-7.48 38.24,8.63 63.98,2.6 11.91,-34.86 17.36,-73.48 53.48,-93.18 42.44,-2.93 69.88,17.98 91.7,48.05 7.1,26.27 -1.82,42.41 -9.27,59.81 28.83,16.29 64.77,21.25 103.16,22.19 2.25,-27.3 -28.64,-85.01 -22.22,-121.62 -80.73,-53.18 -226.85,-1.88 -285.92,-89.55 -7.24,-145.92 158.15,-69.37 243.73,-67.78 2.2,-27.52 -28.67,-85.11 -22.24,-121.73 -34.6,-24.53 -88.13,-18.83 -133.1,-26.9 -55.73,53.17 -170.14,95.45 -178.08,-22.26 11.81,-41.12 56.4,-61.58 88.84,-89.77 19.81,-39 9.94,-96.75 45.8,-125.82l49.27 -11.38c22.64,11.29 43.64,25.26 57.71,50.14 6.77,24.89 -21.34,69.44 16.4,71.06 25.06,-15.89 -2.88,-87.77 -16.84,-122.85 -38.72,-17.95 -92.56,-11.71 -112.03,-60.58 0.74,-46.44 13.79,-85.04 76.67,-92.56 -8.6,-32.35 -19.18,-74.85 -12.8,-108.02 -379.43,100.83 -691.56,332.6 -898.63,635.14zm838.82 -1129.31c34.07,-7.86 68.07,13.38 75.95,47.46 7.86,34.08 -13.39,68.08 -47.46,75.95 -34.08,7.87 -68.09,-13.38 -75.96,-47.46 -7.86,-34.07 13.39,-68.08 47.46,-75.95z"/>
  <path class="fil0 str0" d="M12607.84 439.87c843.33,-51.2 1625.01,511.86 1821.38,1362.46 218.89,948.12 -372.27,1894.17 -1320.37,2113.05 -948.12,218.89 -1894.16,-372.27 -2113.05,-1320.38 -196.37,-850.6 259.36,-1699.33 1039.79,-2023.01l-5.53 -23.97c-13.34,-57.76 18.91,-115.88 72.95,-136.3 -35.01,-31.21 -61.04,-73.19 -72.39,-122.36 -29.19,-126.42 49.64,-252.56 176.04,-281.74 126.43,-29.18 252.56,49.63 281.75,176.05 11.35,49.18 6.36,98.31 -11.42,141.71 57.52,-5.34 111.98,32.78 125.31,90.53l5.54 23.97zm-160.74 209.31l0 0c9.09,20.3 15.3,48.67 11.01,72.55 11.73,18.67 41.15,9.08 48.51,34.95 -46.91,34.92 -5.67,124.66 -15.62,182.59 41.38,-44.56 57.52,-104.79 98.15,-149.74 30.42,-0.94 51.34,13.02 66.37,36.8 -29.9,86.04 -99.9,147.1 -137.94,228.06l37.95 164.37c58.01,-70.13 92.5,-154.74 143.37,-229.31 22.76,-1.55 46.6,-4.58 64.1,2.55 10.47,15.57 19.33,34.03 29.1,50.92 -56.82,114.66 -143.57,210.56 -202.39,323.87l20.24 87.65c49.08,-59.98 65.8,-140.16 122.23,-195.64 100.2,2.44 200.11,5.14 272.01,52.73 5.59,67.61 26.65,144.82 31.63,212.01 27.88,-20.09 31.95,-55.13 50.66,-80.95 -37.04,-114.51 -57.25,-265.85 -80.61,-373.94 17.03,-9.67 20.49,-27.8 37.49,-37.47 99.31,11.72 82.03,167.59 121.91,277.83 30.34,-13.87 30.43,-46.65 47.61,-68.71 16.91,-20.83 31.01,-43.2 42.1,-67.41l-51.91 -224.84c3.61,-22.78 1.23,-49.28 27.12,-58.17 68.32,-4.41 63.6,108.26 86.84,176.27 30.21,-51.43 70.69,-96.57 50.94,-179.24 20.32,-7.43 34.82,-5.59 42.25,7.57 22.29,-22.04 24.02,-56.9 45.09,-79.65 7.47,-1.53 14.5,-2.34 21.21,-2.65 -312.31,-172.23 -683.5,-240.06 -1058.14,-168.94 9.04,2.87 18.47,5.13 28.77,5.95zm1160.26 243.62c2.98,5.7 5.87,11.55 8.58,17.67 -2.25,33.04 -31.29,49.22 -46.38,74.18 5.47,16.32 21.47,15.75 21.04,41.33 -20.27,14.02 -24.65,16.57 -53.53,18.19 -36.96,30.14 -54.46,72.34 -85.16,106.21 51.28,0.7 169.64,-68.4 195.18,-4.52 1,23.85 -9.7,40.87 -21.44,56.84 -70.92,5.81 -154.23,31.68 -231.48,47.59 -38.9,44.57 -70.25,93.66 -99.55,144.22 75.13,-6.19 170.6,-40.27 245.41,-62.4 23.91,9.34 42.83,26.58 57.85,50.14 -0.77,29.34 -15.51,49.86 -29.99,70.51 -112.8,17.93 -230,42.88 -347.85,68.72 -27.69,18.55 -32.7,51.45 -51.83,75.47 62.56,-3.07 138.59,-38.45 207.06,-53.53 69.57,53.59 129.43,123.2 172,219.97 -35.27,65.56 -88.07,120.19 -124.83,184.73 16.55,5.4 51.4,-17.69 82.28,-19 71.22,-107.04 141.18,-215.06 214.58,-320.84 17.79,-0.95 36.74,-3.76 51.84,-0.35 9.06,10.52 19.34,19.06 21.11,41.27 -23.4,93.32 -91.38,158.67 -128.59,243.23 32.2,-3.38 98.99,-25.66 147.91,-34.14 30.57,-32.48 57.8,-67.12 73.09,-109.18 40.6,-30.86 43.41,-85.45 89.28,-113.01 20.08,-7.14 28.25,4.81 42.19,7.57 19.85,51.47 -18.54,66.53 -29.13,99.18 -12.37,31.22 -36.92,55.11 -49.31,86.32 37.12,-14.39 75.93,-27.63 118.06,-38.74 28.81,-10.25 17.38,-45.52 51.5,-52.41 18.81,-7.69 20.35,12.54 23.94,29.15 31.04,-4.01 51.03,-15.02 75.59,-23.17 11.2,4.64 20.3,12.66 28.58,21.99 -104.22,-367.93 -332.34,-670.72 -628.01,-873.2zm660.7 1012.19c-3.44,10.17 -7.27,20.1 -11.6,29.73 -22.2,2.85 -51.35,17.03 -67.02,9.59 -23.61,6.93 -10.83,36.97 -29.56,47.13 -26.72,-2.17 -41.21,-24.02 -64.91,-31.14 -42.92,8.79 -91.94,27.05 -123.09,16.93 42.53,36.91 95.03,58.08 141.7,88.55 18.49,45.92 -11.47,61.6 -39.66,78.37 -73.29,-47.7 -146.01,-96.53 -222.6,-139.09 -60.64,11.4 -117.13,31.53 -164.48,37.97 72.73,51.29 150.65,94.23 228.14,137.8 3.99,25.98 5.42,50.32 -1.29,69.54 -15.31,9.27 -30.1,18.89 -45.5,27.84 -115.59,-55.17 -211.26,-142.3 -323.85,-202.28l-87.73 20.25c59.69,44.56 128.29,74.96 193.16,111.22 -2.22,97.56 -2.36,183.81 -41.77,269.57 -62.06,26.16 -151.3,32.56 -220.46,45.16 23.81,21.76 53.12,35.04 81,50.54 104.36,-33.75 236.24,-48.58 356.25,-82.25 20.84,8.91 39.54,21.61 55.2,39.14 4.47,26.21 -16.83,36.42 -21.54,56.98 -91.07,18.09 -163.33,47.86 -256.32,64.93 35.56,45.72 91.25,59.17 136.23,89.68 61.79,-17.09 162.15,-35.29 241.09,-55.66 13.64,10.8 34.67,9.67 41.82,30.88 4.23,65.11 -117.75,71.19 -177.56,81.37 -0.35,20.81 33.53,23.81 54.07,33.73 20.91,10.14 41.44,24.52 59.42,32.53 25.1,-5.33 54.53,-17.35 68.23,-4.28 16.09,17.57 -1.13,22.34 -8.76,36.7 22.83,20.84 58.45,21.64 75.47,51.82 0.66,8.42 1.05,16.67 1.18,24.76 176.34,-314.29 246.45,-689.38 174.71,-1067.99zm-249.58 1188.38c-9.01,4.14 -18.55,7.96 -28.8,11.32 -22.31,-14.29 -42.98,-31.27 -63.26,-48.86 -18.02,8.33 -25.24,23.39 -48.02,16.85 -18.07,-83.65 -78.89,-98.87 -124.47,-138.81 13.44,51.85 28.89,91.54 42.27,157.79 -10.67,15.16 -19.77,31.34 -36.36,42.94 -20.82,0.85 -31.52,-14.57 -50.13,-17.23 -23.03,-83.2 -25.56,-153.55 -48.97,-237.06 -43.93,-39.62 -94.43,-69.07 -144.09,-99.33 -8.62,20.1 17.6,103.97 31.6,136.89l27.85 120.64c-17.18,14.26 -27.64,32.75 -47.23,45.52 -26.8,-2.06 -50.01,-9.98 -69.11,-24.48 -8.98,-107.13 -60.36,-240.82 -68.85,-347.75 -19.33,-29.17 -53.77,-34.09 -76.7,-57.38 1.38,67.91 42.65,136.86 54.82,212.52 -63.09,62.19 -127.54,123.54 -221.36,166.6 -67.04,-32.81 -119.46,-89.15 -184.63,-124.75 -8.15,19.3 24.44,57.04 13.51,83.43 110.02,63.88 212.9,139.53 319.72,209.09 7.32,24.99 10.73,47.51 2.77,62.83 -61.49,39.33 -115.26,-16.58 -166.9,-48.12 -41.25,-25.05 -80.6,-52.09 -113.44,-66.12 -1.74,31.47 34.69,103 27.43,143.74 38.48,31.06 77.62,60.66 118.42,88.14 37.16,24.98 95.92,36.64 108.85,96.13 -4.61,9.63 -10.22,18.58 -16.94,26.86 -79.42,7.11 -112.04,-60.94 -174.5,-80.86 3.35,24.79 32.68,72.76 38.86,118.05 9.76,26.77 41.05,19.34 51.01,45.97 4.27,19.97 -10.56,27.86 -33.29,30.77 9.14,25.46 19.58,48.69 24.33,81.06 -6.48,7.8 -13.43,15.31 -20.76,22.6 369.37,-103.83 673.33,-332.42 876.38,-628.98zm-1014.24 661.2c-10.9,-3.76 -20.91,-8.93 -28.93,-17.26 -11.73,-14.17 -2.45,-45.26 -15.2,-65.83 -10.78,-17.44 -30.59,-11.17 -40.51,-25.32 -1.38,-26.03 22.93,-35.82 26.98,-58.24 -9.02,-46.33 -18.49,-92.77 -12.65,-129.83 -44.9,39.1 -56.46,99.16 -93.99,142.84 -34.64,8 -57.03,-3.72 -70.39,-29.8 4.75,-50.19 43.82,-78.89 64.86,-118.88 27.06,-36.39 50.13,-75.04 71.66,-114.81 -20.73,-43.07 -33.93,-116.66 -37.94,-164.37 -59.39,70.91 -87.55,161.16 -148.79,230.68 -51.47,14.68 -75.72,-13.91 -89.02,-60.3 69.11,-103.87 136.54,-208.69 204.91,-312.88 -14.89,-20.07 -19.07,-57.71 -18.97,-82.18 -32.58,3.23 -37.81,63.89 -60.31,88.91 -19.34,33.18 -35.39,68.6 -57.74,100.01 -53.62,-1.71 -103.18,-10.08 -162.38,-3.05 -30.89,-28.1 -83.51,-21.48 -115.07,-48.38 -10.98,-69.51 -23.52,-139.92 -30.35,-206.68 -26.23,2.45 -40.72,52.74 -57.33,76.84 5.81,10.73 17.24,12.45 18.58,30.29 13.85,108.34 51.02,236.11 64.95,331.52 -7.29,18.79 -24.89,31.31 -35.02,48.39 -23.09,-5.49 -44.72,-13.31 -63.66,-25.61 -15.11,-87.93 -49.26,-178.79 -58.24,-252.25 -25.44,2.84 -34.23,39.89 -48.86,63.3 -15.09,23.98 -36.52,47.05 -40.94,72.83 24.97,89.14 31.36,166.57 52.77,253.49 -12.86,9.16 -15.86,24.48 -33.3,30.76 -64.92,1.16 -58.53,-111.53 -81.41,-177.52 -21.72,16.15 -38.68,75.8 -61.94,106.73 6.88,27.8 15.65,56.5 5.43,73.71 -22.52,11.16 -27.85,-5.52 -42.16,-7.47 -16.88,22.34 -18.31,54.19 -40.88,72.91 -9.55,2.18 -18.55,3.45 -27.13,4.07 313.13,174.78 686.25,244.29 1062.97,173.39zm-1186.6 -250.09c-3.47,-7.43 -6.79,-15.11 -9.93,-23.09 5.97,-30.69 32.22,-48.68 46.37,-74.22 -15.42,-12.21 -26.57,-22.37 -15.59,-42.57 7.06,-11.31 31.2,-11.73 48.13,-16.82 34.96,-31.29 60.89,-68.36 85.13,-106.23 -40.71,2.63 -101.1,33.68 -157.7,42.01 -12.31,-15.27 -30.52,-20.96 -38.72,-42.94 4.97,-13.98 8.98,-28.74 13.03,-43.44 83.59,-21.2 163.56,-36.61 242.49,-50.24 42.22,-43.96 67.04,-98.68 98.2,-149.56 -65.53,14.14 -177.17,39.11 -250.88,63.67 -22.42,-9.35 -37.7,-29.77 -56.61,-44.78 5.56,-24.72 16.81,-45.74 24.59,-69.05 103,-16.14 232.74,-53.42 347.73,-68.8 33.1,-21.49 49.02,-53.88 60.31,-88.91 -65.41,24.81 -138.51,44.71 -209.96,65.71 -61.14,-64.81 -128.58,-119.47 -162.35,-228.11 33.16,-63.72 79.43,-119.28 120.62,-177.91 -17.68,-9.28 -53.36,10.31 -78.04,12.19 -76.89,103.76 -145.33,212.54 -214.63,320.93 -22.56,8.6 -37.15,4.43 -56.03,7.11 -9.97,-11.55 -19.77,-23.35 -26.56,-40.03 5.92,-52.47 50.25,-81.2 62.4,-129.91 24.24,-39.47 58.03,-73.07 70.35,-120.14 -32.16,3.51 -98.88,25.64 -147.9,34.15 -61.64,70.96 -100.64,156.16 -161.09,227.79 -24.27,1.21 -41.03,-9.45 -52.7,-28.37 13.49,-63.46 65.68,-102.66 83.47,-163.51 -17.34,3.34 -67.49,26.63 -108.34,30.9 -24.4,14.31 -33.62,38.26 -56.95,53.32 -28.63,4.25 -7.72,-24.12 -25.25,-34.34 -18.11,15.31 -46.07,24.35 -79.79,29.89 -7.71,-8.92 -15.73,-17.34 -23.86,-25.58 103.2,371.38 332.35,677 630.06,880.88zm-661.34 -1015.75c4.65,-11.41 10.06,-22.34 16.41,-32.69 42.29,4.76 85.39,-14.41 86.85,-48.96 32.57,-7.08 40.25,25.58 69.14,24.43 42.64,-10.74 79.33,-11.76 117.64,-15.54 -23.03,-38.37 -103.54,-49.53 -137.5,-95.35 -8.92,-33.65 4.4,-53.47 31.16,-64.85 88.49,23.47 145.2,97.85 226.88,132.37 52.75,-13.42 129.38,-28.1 164.39,-37.95 -73.94,-49.22 -150.37,-94.51 -228.03,-137.82 -8.43,-50.64 9.08,-85.07 64.61,-95.76 101.73,67.25 203.99,133.8 306.02,200.66 29.07,-3.91 66.63,-21.56 89,-14.83 -5.69,-29.96 -63.82,-36.93 -89.01,-60.23 -33.44,-19.01 -67.8,-36.74 -99.88,-57.79 2.53,-101.57 1,-205.79 51.33,-277.42 64.95,-3.83 141.31,-25.74 206.56,-30.34 -0.57,-29.27 -55.77,-35.77 -76.62,-57.41 -112.15,41.54 -248.59,57.61 -367.36,84.81 -13.86,-12.67 -30.46,-21.23 -42.96,-36.33 -4.4,-30.75 19.15,-44.29 31.18,-64.85 87.74,-12.58 170.72,-52.49 246.69,-56.95 3.95,-28.75 -48.9,-25.09 -63.18,-48.92 -26.9,-9.65 -46.17,-31.21 -72.95,-40.91 -89.21,25.09 -165.7,29.83 -253.49,52.77 -9.51,-12.33 -26.05,-13.33 -30.79,-33.3 -5.78,-68 128.74,-61.81 177.54,-81.52 -32.26,-28.46 -74.65,-40.52 -112.16,-60.55 -26.36,7.21 -52.23,13.27 -68.4,4.19 -17.28,-18.29 5.29,-23.94 7.61,-42.17 -25.2,-17.01 -58.44,-21.51 -79.68,-45.23 -0.43,-5.87 -0.54,-11.56 -0.43,-17.11 -172.18,311.49 -240.53,681.7 -170.57,1055.56zm253.6 -1189.69c6.19,-3.55 12.39,-7.08 18.63,-10.59 22.26,14.48 45.39,27.37 63.19,48.93 28.35,-1.93 22.42,-25.32 48.14,-16.87 16.38,16.4 14.83,27.32 18.09,53.58 32.27,33.38 72.16,54.61 106.19,85.01 1.14,-52.24 -72.34,-175.35 0.97,-196.32 21.26,-1.43 32.73,12.58 50.12,17.24 23.16,83.24 30.57,156.75 48.95,237.02 44.2,41.71 98.45,67.45 149.62,98.09 -20.74,-90.44 -45.54,-158.37 -66.12,-261.81 19.68,-11.17 25.62,-30.75 48.39,-39.97 28.69,-1.02 48.9,11.91 69.24,24.45 17.82,109.8 41.28,221.24 68.7,347.74 21.46,28.14 53.62,39.19 82.18,56.11 -16.12,-47.37 -41.02,-143.96 -60.25,-211.22 60.55,-65.33 124.69,-128.42 226.79,-167.89 59.09,43.23 119.98,83.19 179.18,126.05 10.87,-27.94 -19.28,-58.58 -13.53,-83.45 -109.56,-72.19 -221.92,-140.14 -327.56,-218.76 -1.79,-34.02 2.17,-64.31 40.92,-72.94 52.04,4.19 79.23,48.25 124.32,63.6 41.66,21.02 78.3,49.93 120.21,70.55 4.32,-39.74 -20.47,-97.39 -27.45,-143.76 -67.14,-72.73 -165.29,-95.79 -230.21,-172.11 -5.4,-25.3 14.85,-34.59 29.46,-47.3 64.57,11.87 105.31,61.69 163.61,83.47 -5.78,-18.26 -26.46,-77.53 -37.47,-112.6 -12.12,-25.69 -39.59,-26.55 -52.27,-51.34 -7.75,-18.9 12.39,-20.39 28.99,-24.13 -1.71,-30.2 -22.29,-59.93 -17.68,-76.61 3.33,-10.16 8.73,-19 15.4,-27.08 -365.43,103.81 -666.53,329.85 -868.76,622.9zm926.34 495.71l0 0c-13.79,-53.98 -12.49,-98.63 -29.83,-154.71 65.13,14.89 106.86,93.27 187.17,60.76 -0.85,58.76 4.66,121.66 0.85,178.7 12.49,27.72 46.52,20.68 70.39,29.9 9.27,43 16.06,83.23 29.11,126.11 -43.79,-12.63 -76.64,-42.29 -113.34,-66.14 -5.88,-24.08 11.28,-33.54 10.52,-54.32 -53.13,-37.59 -121.01,-51.76 -184.2,-72.98 -5.79,-25.45 30.65,-24.63 29.33,-47.31zm343.72 -136.98l0 0c79.84,-7.16 95.66,-84.44 130.69,-134.15 6.1,-2.34 10.13,-1.01 12.26,3.01 9.9,46.68 28.34,79.69 35.81,130.19 10.31,18.76 28.43,24.62 47.25,29.53 -33.32,54.17 -89.87,94 -128.17,145.08 2.75,28.06 23.76,26.91 29.11,51.03 -18.29,41.8 -35.21,84.31 -71.68,114.71l-27.85 -120.68c17.15,-17.37 46.13,-27.39 51.44,-52.27 -27.65,-53.4 -53.69,-109.17 -78.86,-166.44zm316.28 319.53l0 0c-20.73,-1.95 -34.59,-14.74 -59.91,-9.25 -13.11,18.24 -22.1,39.35 -32.42,59.41 -8.37,16.9 -44.49,35.48 -28.24,52.79 28.11,-14.74 88.71,-30.74 120.57,-27.84 17.87,-18.64 4.88,-56.42 29.99,-70.54 58.43,1.5 121.31,-4.02 178.77,-0.87 -30.74,-79.02 50.7,-118.76 60.59,-187.13 -54.41,16.96 -95.93,13.51 -149.29,28.72 -21.67,-2.74 -27.46,-31.11 -52.69,-28.35 -14.48,65.96 -35.93,127.74 -67.37,183.06zm-962.66 106.77l0 0c36.78,62.75 135.27,53.07 137.98,147.1 54.2,-28.58 112.15,-54.91 171.99,-80.1 22.81,3.61 27.2,36.39 45.6,47.23l120.54 -27.83c-32.68,-35.25 -77.05,-51.89 -120.17,-70.45 -11.66,11.46 -17.41,26.65 -38.87,32.09 -58.63,-31.19 -93.83,-100.07 -151.84,-132.48 0.17,62.65 -99.21,63.1 -165.24,84.43zm995.13 209.04l0 0c-44.42,-16.41 -83.33,-41.63 -120.15,-70.4l131.56 -30.37c15.89,14.67 19.81,48.24 41.26,53.85 53.15,-29.16 110.84,-55.76 172.15,-79.92 6.1,85.03 97.89,91.55 142.04,140.34 -43.44,23.99 -99.74,18.06 -145.49,45.06 -23.3,7.41 -14.13,34.92 -36.29,42.93 -49.3,-38.59 -84.51,-99.82 -139.48,-129.32 -20.32,6.16 -27.65,20.21 -45.6,27.83zm-605.4 53.12l0 0 125.98 -29.09c-15.49,43.65 -39.34,81.66 -71.57,114.67 -13.96,-7.8 -30.37,-11.55 -48.99,-11.75 -41.44,49.19 -45.31,121.68 -74.12,178.78 -23,4.18 -25.28,-24.57 -46.05,-23.93 -52.52,13.91 -94.93,11.54 -149.21,28.57 2.22,-70.85 93.87,-104.4 55.24,-185.88 62.05,-4.32 122.63,-6.26 178.71,-0.84 29.57,-11.35 17.63,-48.44 29.99,-70.53zm435.54 136.19l0 0c21.04,13.94 55.91,5.67 70.44,30 -3.17,58.94 -0.94,121.36 2.01,184.28 79.62,-42.83 126.08,59.92 184.71,49.67 -16.11,-74.22 -44.84,-156.25 2.09,-190.95 -60.25,-28.77 -135.76,-33.08 -185.55,-78.54 1,-18.13 12.41,-29.66 11.82,-48.77 -35.51,-28.42 -73.23,-53.01 -114.65,-71.83 13.66,34.22 31.78,89.26 29.12,126.13zm-246.27 33.78c11.8,13.49 27.97,20.23 33.28,44.2 -36.06,50.99 -87.81,92.1 -129.29,139.61 6.46,24.54 37.75,9.42 42.92,36.25 13.09,44.04 28.09,85.03 37.1,135.77 67.56,-31.59 52.98,-133.28 148.41,-132.33 -28.2,-57.44 -55.54,-116.29 -81.36,-177.58 14.38,-17.48 40.09,-28.05 52.65,-46.79 -26.76,-26.7 -12.47,-107.66 -38.83,-118.01 -19.33,41.03 -49.05,75.69 -64.87,118.88zm-367.29 -2341.4c34.08,-7.87 68.08,13.38 75.95,47.46 7.86,34.07 -13.38,68.08 -47.46,75.95 -34.07,7.86 -68.07,-13.38 -75.94,-47.46 -7.87,-34.08 13.37,-68.08 47.45,-75.94z"/>
  <path class="fil0 str0" d="M8951.55 439.88c843.35,-51.2 1625.03,511.85 1821.4,1362.46 218.89,948.11 -372.27,1894.16 -1320.38,2113.05 -948.11,218.89 -1894.15,-372.27 -2113.04,-1320.38 -196.38,-850.6 259.35,-1699.34 1039.79,-2023.01l-5.53 -23.97c-13.34,-57.76 18.91,-115.88 72.95,-136.3 -35.01,-31.21 -61.04,-73.19 -72.39,-122.36 -29.18,-126.42 49.63,-252.56 176.05,-281.75 126.41,-29.18 252.56,49.63 281.74,176.05 11.36,49.18 6.36,98.31 -11.42,141.71 57.51,-5.33 111.97,32.78 125.31,90.53l5.53 23.97zm563.87 2405.46l-5.09 -22.07 -16.52 3.81c1.71,14.87 4.45,28.25 21.61,18.26zm-599.69 132.77l0 0c14.82,-1.84 23.31,-7.54 18.31,-21.79 -7.33,1.23 -9.33,-5.34 -17.82,-1.71 -0.14,7.79 -5.59,12.37 -0.49,23.5zm659.11 -356.52l0 0c34.27,43.45 84.41,62.16 130.8,86.43 16.62,16.34 28.49,40.6 51.61,46.52 -5.34,-27.1 -17.62,-42.74 -26.45,-63.82 -61.3,-18.29 -98.97,-74.44 -161.07,-91.29l5.12 22.17zm261.61 -282.29l0 0c-1.52,-17.9 -10.44,-23.59 -27.28,-17.05 1.43,18.01 10.59,23.62 27.28,17.05zm-1426.91 317.68l0 0c13.04,-1.3 20.61,-5.99 19.63,-16.13 -7.86,-0.02 -12.44,-5.46 -23.45,-0.4l3.82 16.53zm800.24 2.16l0 0c66.79,32.34 103.46,112.7 219.5,66.08 55.24,-37.91 19.43,-127.02 10.67,-206.79 -91.97,-70.37 -196.62,-120.48 -288.97,-190.05l-16.68 3.85c22.95,91.06 49.32,218.49 75.48,326.9zm-193.11 -305.65l0 0c-58.11,99.62 -130.44,190.37 -176.44,297.59l30.71 133.02c40.87,25.52 71.03,68.35 148.25,35.8 31.54,-43.48 59.33,-89.44 85.38,-136.47 -32.75,-97.35 -61.92,-230.71 -76.77,-332.51l-11.13 2.57zm519.66 -201.66l0 0c53.07,16.13 91.35,56.24 140.68,78.46 25.42,72.05 3.07,115.37 -40.04,155.07 -39.11,-1.11 -103.07,15.92 -138.56,31.99 -97.68,-63.92 -200.8,-118.83 -294.62,-188.74 123.37,-27.13 229.62,-57.21 332.54,-76.78zm-634.46 134.75l0 0 11.25 -2.6c1.75,-10.77 9.87,-3.17 16.57,-3.83 -64.67,100.37 -121.76,205.35 -193.12,301.33 -39.1,-1.13 -102.91,16 -138.52,31.98 -45.79,-15.27 -81.07,-47.22 -87.44,-125.6 24.51,-44.85 50.87,-88.4 81,-129.65l310.25 -71.62zm802.08 -547.05l0 0 -22.29 5.15c-2.79,27.87 33.11,12.62 22.29,-5.15zm-194.02 44.79l0 0c-34.1,15.62 -95.54,32.19 -133.13,30.73 -72.48,96.94 -135.01,200.2 -191.8,306.95 96.82,-31.69 231.62,-63.39 332.66,-76.8 24.73,-47.75 63.15,-87.03 85.14,-136.4 -12.28,-70.4 -34.58,-113.68 -92.86,-124.48zm-906 197.43l0 0c-104.71,13.68 -178.83,46.3 -181.59,123.71 15.46,101.57 97.76,96.36 149.34,140.6 98.53,-32.9 235.05,-63.28 337.93,-78.02 -100.23,-64.68 -196.64,-135.48 -305.68,-186.29zm-300.89 87l0 0c-1.42,-17.91 -16.03,-15.09 -31.64,-10.23 3.38,16.62 22.86,24.43 31.64,10.23zm971.51 -317.7l0 0c-57.65,103.08 -121.56,202.24 -187.55,300.16l-76.78 -332.54c18.43,-53.33 54.2,-95.76 83.99,-141.96 26.38,2.36 41.06,-6.15 66.39,-15.33 20.06,20.34 58.39,19.59 76.45,52.42 20.95,38.01 8.89,96.27 37.49,137.25zm-377.71 -17.8l0 0c28.55,108.45 46.6,234.02 82.26,331.14 -23.95,3.82 -53.48,-18.52 -77.9,-34.51 -26.01,-16.79 -47.51,-40.41 -75.21,-46.89 -48.08,-36.62 -102.55,-63.34 -151.27,-99.27 -25.46,-99.34 -51.35,-175.96 14.9,-213.61 20.37,-11.51 57.22,-0.78 77.64,-17.93 45.73,22.83 84.24,57.47 129.57,81.06zm279.93 -304.08l0 0c1.68,7.73 5.52,11.62 9.47,15.35 15.01,-1.63 16.39,-11.85 11.54,-26.01 -9.69,1.92 -17.01,5.32 -21.01,10.66zm-573.7 144.21l0 0 16.63 -3.84c-1.84,-14.83 -7.54,-23.34 -21.76,-18.34l5.13 22.18zm183.25 -824.54l0 0c30.1,-19.12 31.06,-56.37 64.72,-73.35 34.85,-2.49 62.78,5.88 73.81,41.37 -4.93,83.83 -73.18,128.06 -100.13,198.32l65.24 282.57c49.88,-33.6 -15.04,-139.14 -18.39,-205.93 10.33,-20.26 10.92,-46.94 39.61,-55.83 54.78,-10.02 83.1,30.84 84.02,85.64 37.54,-6.63 38.86,-76.87 83.21,-94.95 36.29,-12.48 52.02,7.68 69.83,24.66 20.65,68.24 -38.2,86.73 -50.79,134.26 47.73,-2.91 102.53,-17.28 118.14,31.17 22.92,93.25 -120.86,82.33 -202,110.76 -38.6,39.11 -62.65,87.37 -85.23,136.56l42.21 182.86c49.77,-32.09 -13.92,-135.32 -17.11,-200.42 6.81,-24.22 19.51,-44.69 38.31,-61.44 51.17,-6.8 85.67,30.65 84.05,85.73 35.8,-7.72 41.36,-75.39 83.18,-95.09 47.4,2.52 87.42,16.95 124.78,35.32l26.87 116.37c27.46,-20.8 27.59,-58.66 64.87,-73.3 32.49,-1.33 55.29,12.97 68.26,42.56 3.06,95.22 -102.57,122.54 -88.31,224.86 45.86,-50.59 69.81,-114.53 106.51,-170.62 -10.94,-56.82 -17.54,-81.49 -31.98,-138.53 -50.38,-53.53 -124.24,-69.15 -169.99,-130.02 -6.02,-36.9 16.95,-55.86 41.41,-73.81 40.22,-3.82 59.01,26.8 90.2,37.62 -23.36,-78.57 -35.63,-148.51 20.94,-162.5 58.58,-14.66 83.78,57.44 89.93,136.9 33.56,-21.89 21.39,-72.17 88.3,-73.01 18.33,10.91 38.37,19.72 46,47.81 -2.03,90.33 -102.6,119.14 -89.54,219.09 61.3,-80.34 105.71,-171.12 163.34,-253.69 -21.92,-73.75 -78.15,-205.78 -8.12,-237.41 58.74,-13.01 78.33,36.36 87.87,102.25 27.48,-27.45 39.84,-64.42 64.25,-93.95 -319.29,-186.55 -704.11,-262.21 -1092.64,-188.43l24.38 105.59zm1161.15 141.52c-15.54,33.17 -43.12,58.89 -56.18,93.65 46.5,-6.86 117.63,-25.9 131.75,39.75 -2.66,77.27 -129.62,76.98 -215.61,102.28 -61.07,78.81 -113.63,162.95 -157.79,252.5 90.59,-36.82 86.23,-132.77 156.41,-182.11 82.14,-9.74 82.06,97.45 36.23,131.73 52.74,-11.82 142.68,-42.5 162.55,20.78 12.47,63.41 -64.97,89.61 -131.37,88.77 -2.45,31.3 56.44,24.46 62.23,67.29 10.57,39.73 -13.5,57.92 -41.36,73.81 -73.72,-18.75 -125.64,-72.02 -192.6,-101.45 -44.09,23.06 -80.36,14.54 -127.49,29.43 -53.23,50.67 -85.78,113.99 -116.31,178.58 92.19,-32.46 78,-131.35 152.13,-175.34 39.23,-9.63 60.59,9.34 77.95,34.75 7.21,43.99 -33.93,57.82 -36.19,95.83 48.76,-24.6 122.13,-37.44 150.47,-5.46 7.55,35.62 21.48,48.14 41.45,77.91 -2.67,50.63 -39.98,79.39 -60.15,118.93 45.94,-9.7 107.58,-21.01 124.93,35.38 4.36,74.65 -121.79,90.65 -199.15,98.49 -8.22,12.26 -32.54,14.46 -26.8,35.36 42.29,-6.7 123.02,-30.48 182.85,-42.21 43.81,-34.28 58.88,-86.4 86.47,-130.81l-42.22 -182.85c21.79,-73.3 134.8,-58.92 127.56,46.39 36.09,-31.23 35.73,-85.13 86.13,-107.49 33.5,-0.44 60.55,9.14 69.34,48.25 1.4,52.86 -39.63,79.45 -60,118.89 45.71,-11.04 104.22,-21.13 123.73,29.84 16.17,86.25 -125.81,92.94 -203.48,105.31 -9.6,9.72 -26.1,15.36 -21.33,34.1 73.63,-15.65 190.9,-45.02 282.7,-65.27 51.96,-51.3 71,-123.24 123.19,-174.35 38.76,-3.86 66.22,10.44 80.47,45.64 7.59,42.67 -34.64,54.13 -37.33,90.31 26.9,-4.06 69.75,-19.25 106.33,-21.83 -100.64,-382.58 -334.34,-696.99 -639.54,-904.76zm663.95 1012.73c-32.25,11.56 -75.8,16.08 -110.77,26.1 16.51,25.12 71.33,30.12 80.08,69.1 5.75,25.31 -5.08,53.35 -42.48,68.02 -82.68,-6.76 -128.97,-72.06 -198.3,-100.02 -120.53,26.02 -190.84,41.8 -288.31,66.56 56.06,72.59 226.75,-81.05 267.5,19.93 1.31,29.3 -16.32,46.81 -24.76,69.83 -20.83,2.97 -47.99,16.18 -62.4,8.6 3.85,45.7 77.8,41.84 96.35,88.69 13.86,41.78 -9.64,60.31 -34.52,77.9 -56.9,5.27 -82.44,-39.86 -124.28,-58.77 3.9,49.99 19.47,107.14 -36.82,119.45 -83.08,18.01 -85.97,-129.17 -98.54,-199.04 -47.12,-30.81 -88.01,-71.83 -143.15,-89.52 -74.31,-1.19 -136.06,42.68 -195.31,39.19 37.4,58.33 148.23,-7.37 212.73,-14.15 83.18,12.44 71.26,139.47 -36.57,119.39 24.46,46.76 81,42.46 107.49,86.13 -2.4,44.41 -16.25,81.66 -31.27,118.16 -22.84,21.46 -79.34,32.79 -114.99,32.37 -0.95,33.79 63.47,23.74 64.83,78.43 -37.7,148.59 -166.82,-48.08 -258.84,-33.64 3.97,25.62 52.62,40.93 77.49,57.95 28.67,17.54 57.9,34.13 87.41,49.89 47.23,4.69 91.31,-30.77 134.28,-25.19 51.11,-53.48 76.01,-123.26 128.84,-175.65 89.52,-17.83 85.89,95.31 41.75,130.46 50.2,-12.85 145.2,-43.08 162.36,20.96 14.52,67.36 -67.25,74.87 -136.77,89.89 18.72,33.26 64.52,23.37 70.44,77.15 -40.37,155.23 -167.71,-57.76 -264.37,-32.38 77.47,60.71 165.49,104.52 246.81,159.09 82.86,-11.15 195.95,-70.75 236.25,-13.76 27.4,69.3 -26.93,87.56 -94.1,97.57 18.45,19.15 63.09,40.91 93.12,66.33 187.19,-319.86 263.1,-705.62 188.83,-1095.03zm-246.94 1186.9c-34.21,-14.23 -61.2,-39.97 -93.59,-57.09 12.32,46.36 22.77,113.44 -34.01,130.42 -79.2,10.21 -89.49,-129.58 -99.72,-204.55 -76.96,-69.25 -170.01,-112.71 -255.06,-168.82 9.26,87.49 130.05,84.34 169.8,153.4 22.94,91.41 -93.25,83.04 -125,40.62 5.64,57.01 46.04,133.43 -20.88,162.32 -64.6,15.72 -89.75,-66.63 -88.63,-131.27 -30.13,-1.71 -27.07,54.9 -67.43,62.16 -37.8,9.98 -56.22,-11.17 -72.48,-35.63 6.43,-79.88 71.67,-122.85 96,-191.56 -11.49,-33.94 -9.41,-59.56 -14.94,-89.87 -20.86,20.1 -14.81,57.22 -48.3,69.5 -38.86,1.45 -62.46,-21.36 -90.34,-37.49 -8.03,38.22 23.51,84.12 21.45,117.53 -21.32,42.96 -60.4,45.25 -99.42,75.58 -55.52,2.77 -74.61,-52.72 -124.51,-58.76 16.06,54.29 25.7,104.46 -25.57,116.75 -36.37,10.2 -47.96,-19.34 -71.12,-30.3 -21.57,-56.41 -14.8,-174.14 -67.07,-188.84 3.7,42.18 19.79,135.98 43.48,188.37 34.97,40.46 86.59,53.83 129.67,81.14 82.21,-10.09 199.29,-76.2 227.67,-0.18 11.67,26.37 -7.97,33.07 -5.12,53.81 -18.66,16.74 -50.9,25.21 -86.12,31.51 30.95,33.85 80.64,37.99 106.19,80.61 -0.54,29.64 -4.68,57.14 -30.26,71.11 -68.21,20.79 -86.85,-38.12 -134.39,-50.63 3.04,47.7 18.34,103.06 -31.05,118.11 -114.69,28.07 -67.41,-204.16 -139.49,-224.78 5.2,91.08 46.56,193.28 58.48,278.46 51.4,59.34 136.95,64.27 178.2,139.75 6.23,33.98 -13.37,51.71 -37.04,67.09 -45.93,7.76 -62.94,-30.9 -101.51,-35.1 6.24,34.94 22.3,73.75 26.76,106.23 382.83,-100.53 697.46,-334.28 905.33,-639.6zm-1016.49 664.57c-12.46,-27.2 -18.83,-63.8 -19.5,-101.29 -29.44,0.76 -33.25,58.24 -71.74,69.16 -28.97,3.3 -47,-10.65 -64.38,-26.14 -13.94,-100.43 72.21,-138.31 96.44,-214.87 -27.75,-81.78 -42.6,-202.27 -65.26,-282.7 -49.98,33.76 15.16,139.25 18.29,206.08 -8.07,23.26 -16.46,46.6 -45.24,57.12 -50.78,7.97 -72.13,-31.2 -79.7,-92.54 -39.08,26.09 -37.53,77.69 -81.7,100.51 -41.31,12.96 -61.16,-8.42 -78.11,-34.46 -4.26,-56.44 37.42,-84.04 58.87,-124.41 -57.21,5.34 -121.18,21.81 -124.54,-58.84 14.56,-60.32 129.78,-57.99 202.79,-81.79 39.44,-40.33 70.65,-85.7 90.96,-137.88 -10.56,-49.25 -33.89,-131.92 -42.21,-182.86 -56.48,28.64 15.53,127.41 16.98,200.41 -14.8,19.27 -14.19,48.06 -45.22,57.16 -55.78,15.95 -70.18,-34.49 -79.68,-92.45 -34.25,32.19 -38,83.52 -86.04,107.36 -43.9,-5.59 -83.26,-18.71 -119.5,-36.53 -13.6,-32.76 -13,-71.17 -26.89,-116.5 -29.45,19.47 -31.87,55.77 -64.75,73.28 -33.45,0.68 -56.65,-15.5 -73.66,-41.32 1.76,-41.63 18.89,-73.61 47.32,-98.39 8.81,-45.19 57.21,-65.48 47.59,-121.93 -26.94,3.13 -40.78,52.69 -57.85,77.48 -14.35,32.12 -38.39,58.17 -55.51,88.66l32.01 138.65c55.63,45.03 121.58,73.65 174.33,123.1 18.47,88.8 -95.97,87.1 -130.32,41.82 -0.71,58.16 46.05,145.78 -20.93,162.5 -64.44,12.48 -87.76,-65.3 -88.63,-131.27 -29.61,-2.98 -26.03,52.13 -61.83,60.84 -44.75,13.43 -66.15,-10.33 -80.69,-45.6 11.61,-38.55 36.09,-69.16 58.48,-100.99 2.17,-42.96 59.16,-51.57 39.26,-108.26 -20.56,-12.55 -19.07,29.01 -32.45,36.65 -3.08,20.18 -27.99,26.74 -29.78,47.66 -17.83,31.68 -45.07,57.32 -54.18,94.38 -20.72,20.19 -34.93,44.52 -48.09,69.46 10.15,85.35 79.15,207.58 2.58,238.59 -50.63,6.11 -85.78,-38.95 -81.06,-97.94 -30.77,10.9 -42.24,56.4 -66.62,89.14 318.58,186.15 702.46,261.95 1090.15,188.97zm-1183.23 -247.78c16.24,-33.28 44.84,-58.77 57.34,-94.27 -51.24,3.51 -113.67,25.09 -129.16,-28.62 -19.96,-86.98 128.25,-93.27 203.32,-105.15 38.93,-37.46 58.38,-86.94 93.4,-126.7 16.4,-49.8 57.58,-84.14 74.1,-133.99 -50.99,8.61 -66.57,53.53 -85.61,84.15 -19.7,31.54 -30.48,70.13 -66.62,91.23 -36.03,12.2 -54.02,-4.48 -69.75,-24.78 -19.17,-51.4 17.03,-68.28 29.27,-100.17 -47.85,-1.93 -143.03,47.04 -162.34,-20.83 -13.02,-66.71 56.54,-81.63 129.95,-94.36 0.39,-20.94 -51.55,-23.42 -59.58,-56.21 -11.61,-40.49 6.59,-62.22 34.4,-77.98 79.24,7.35 123.23,71 191.5,95.79 54,-14.17 96.27,-18.6 138.51,-31.98 54.15,-45.21 72.22,-112.93 113.37,-166.18 -52.26,-8.34 -63.03,47.69 -81.42,77.12 -20.94,33.66 -41.46,69.5 -72.04,92.61 -32.3,8.49 -50.66,-4.93 -68.57,-19.24 -20.26,-53.76 12.17,-74.59 28.12,-105.72 -30.89,-6.43 -79.94,16.39 -117.62,21.35 -37.44,-13.57 -51.83,-63.65 -75.56,-99.31 5.07,-47.54 41.51,-75.32 54.61,-117.74 -37.3,-3.6 -87.87,14.11 -108.75,-15.67 -55.4,-134.75 195.24,-79.83 215.28,-154.85 -43.99,7.32 -127.04,31.37 -188.4,43.5 -41.22,37.54 -55.83,91.57 -85.34,136.47 18.71,59.35 59.29,164.12 30.75,208.74 -62.17,41.46 -108.28,-1.76 -111.7,-79.24 -34.59,32.13 -38.32,83.69 -86.1,107.6 -112.06,-1.84 -54.17,-128.63 -9.33,-167.23 -31.7,-15.94 -83.25,27.64 -111.84,-3.34 -80.96,-136.59 197.48,-86.6 212.88,-165.91 -79.94,13.45 -191.85,47.72 -288.31,66.56 -51.88,46.59 -64.79,117.58 -113.43,166.3 -40.87,10.02 -64.09,-8.68 -83.43,-33.25 -3.49,-41.69 31.62,-59.38 36.25,-95.97 -30.27,2.05 -72.06,18.45 -107.51,22.38 100.57,382.6 334.19,697.06 639.34,904.87zm-664.59 -1017.29c30.28,-13 70.33,-18.23 101.56,-19.51 0.28,-28.45 -55.56,-32.4 -67.76,-66.14 -7.02,-32.8 8.73,-51.36 24.65,-69.82 52.04,-21.15 83.26,18.81 113.87,37.83 32.86,20.53 67.33,39.03 100.97,58.47 80.22,-28.43 198.24,-55 282.79,-65.29 -33.6,-49.87 -139.19,15.29 -205.93,18.39 -20.37,-10.35 -47.05,-10.91 -55.85,-39.74 -12.34,-55 29,-76.54 91.27,-85.2 -30.37,-34.93 -81.08,-37.34 -102.05,-87.39 -10.7,-38.31 12.47,-55.5 35.88,-72.41 56.99,-5.31 82.66,39.77 124.53,58.72 9.61,-16.01 -9.68,-50.18 -11.16,-73.4 11.94,-19.29 20.43,-40.82 53.35,-47.19 80.76,-7.93 72.77,126.27 99.73,204.57 39.7,37.75 86.52,63.85 136.44,85.26 49.63,-21.37 128.96,-37.87 182.87,-42.22 -30.86,-51.77 -136.1,15.34 -200.39,17.11 -24.79,-11.14 -54.14,-14.5 -59.69,-56.29 -5.5,-44.52 36.51,-59.35 89.59,-67.37 -13.15,-29.78 -79.17,-40.4 -100.68,-81.79 -2.21,-79.58 32.49,-159.23 146.22,-150.51 -2.85,-25.2 -54.17,-33.4 -67.77,-66.14 3.96,-30.66 6.48,-62.32 48.09,-69.42 88.13,3.23 119.63,96.75 213.59,90.78 -22.24,-27.31 -55.68,-44.33 -84.43,-62.29 -28.25,-17.72 -58.41,-32.98 -87.34,-49.77 -50.95,4.91 -93.29,33.51 -133.02,30.71 -49.82,54.12 -67.28,128.55 -128.63,175.51 -34.76,2.43 -56.71,-15.74 -73.79,-41.3 -5.13,-39.57 29.11,-54.45 31.95,-89.04 -47.03,9.83 -136.97,42.12 -155.59,-16.71 -17.64,-81.9 71.26,-81.7 135.42,-95.38 -19.59,-26.69 -55.56,-27.5 -71.92,-59.37 -2.16,-36.04 5.91,-65.71 46.92,-75.09 90.1,2.45 118.63,103.38 219.1,89.65 -83.36,-59.12 -170.14,-112.32 -259.29,-162.03 -74.16,22.71 -206.05,78.57 -233.2,1.33 -8.08,-53.27 42.31,-81.77 98.04,-81.06 -19.65,-37.91 -60.5,-42.06 -90.11,-64.17 -185.34,318.04 -260.8,700.93 -188.24,1087.68zm248.23 -1182.73c33.77,15.18 59.66,42.88 93.99,57.01 -13.95,-47.71 -22.84,-113.79 34.25,-130.48 92.81,11.25 76.1,130.83 101,210.06 81.92,61.29 168.83,114.47 259.15,161.96 -8.58,-59.43 -57.26,-54.78 -88.24,-78.84 -24.16,-34.63 -68.07,-37.82 -92.48,-71.93 -0.87,-35.35 8.12,-64.55 40.12,-79.33 42.98,-8.22 59.66,25.97 90.34,37.45 -8.73,-52.06 -48.48,-149.73 26.44,-163.64 59.27,-8.32 82.85,70.19 83.14,132.53 28.4,1.78 30.94,-53.37 60.61,-66.49 40,-5.82 65.25,11.82 80.45,45.55 -20.12,71.29 -65.81,126.49 -102.68,187.18 15.91,36.88 15.15,82.95 30.71,133.01 48.09,54.51 114.52,79.73 173.07,117.68 -13.59,-89.92 -130.09,-79.88 -169.63,-153.56 -9.74,-39.22 9.14,-60.53 34.49,-78.01 42.52,-4.81 58.69,32.7 95.87,36.28 -17.71,-37.15 -17.85,-68.98 -29.83,-104.06 12.03,-51.98 62.71,-51.02 96.8,-86.48 52.49,-0.49 79.73,39.46 123.23,53.24 -13.15,-41.16 -15.82,-100.58 31.04,-118.11 116.33,-7.74 62.46,183.64 133.84,226.06 1.56,-52.99 -26.62,-124.28 -36.57,-184.16 -36.03,-41.11 -85.37,-60.82 -130.87,-86.67 -86.96,12.46 -206.23,77.12 -234.46,-4.19 -3.83,-48.19 31.58,-72 92.3,-79.76 -13.56,-31.16 -82.85,-39.18 -101.75,-87.45 1.21,-30.79 9.05,-57.56 42.64,-68.02 56.63,-7.3 79.46,39.84 123.19,53.08 -12.33,-41.53 -22.4,-107.8 36.59,-119.26 114.42,-12.07 55.65,206.44 133.95,225.93 -15.8,-73.91 -44.97,-190.9 -65.24,-282.57 -50.77,-55.59 -128.42,-67.73 -175.65,-128.84 -6.6,-38.89 14.64,-60.34 46.8,-75.03 40.98,-4.59 56.09,31.8 90.44,37.53 -7.8,-30.88 -20.23,-72.06 -21.5,-106.87 -382.87,100.38 -697.57,333.99 -905.56,639.2zm840.6 -1131.97c34.07,-7.86 68.07,13.38 75.94,47.46 7.86,34.07 -13.38,68.08 -47.46,75.95 -34.07,7.86 -68.07,-13.38 -75.94,-47.46 -7.87,-34.07 13.38,-68.08 47.46,-75.95z"/>
  <path class="fil0 str0" d="M4940.08 174.81c34.07,-7.87 68.07,13.38 75.94,47.46 7.86,34.08 -13.38,68.08 -47.46,75.95 -34.07,7.86 -68.08,-13.38 -75.94,-47.46 -7.87,-34.08 13.38,-68.08 47.46,-75.95zm362.55 265.07c843.35,-51.2 1625.03,511.85 1821.4,1362.46 218.89,948.12 -372.26,1894.17 -1320.37,2113.05 -948.11,218.89 -1894.15,-372.27 -2113.04,-1320.38 -196.38,-850.6 259.35,-1699.34 1039.78,-2023.01l-5.54 -23.97c-13.33,-57.76 18.92,-115.88 72.95,-136.3 -35.01,-31.21 -61.03,-73.19 -72.39,-122.36 -29.18,-126.42 49.63,-252.56 176.06,-281.75 126.41,-29.18 252.56,49.63 281.74,176.06 11.35,49.17 6.36,98.31 -11.43,141.71 57.51,-5.34 111.97,32.78 125.31,90.53l5.53 23.97zm1629.47 1307.82c-9.94,-78.64 -132.72,-295.46 -132.72,-295.46l-225.97 337.21 94.24 -13.54 44.81 -193.96 19.85 -29.61 108.13 189.54 91.66 5.82zm-1823.09 -1100.13c0,0 355.66,-77.41 575.79,0.98m0 0l-106.5 79.17 -195.23 -73.4 58.27 196.52 -87.28 119.86 -245.05 -323.13m1182.15 246.27c-142.24,-148.05 -544.69,-235.45 -544.69,-235.45l-13.69 159.17 172.81 118.47 -199.17 51.84 -69.6 195.64 -113.6 -166.41 -140.52 1.9 346.44 432.16 5.57 -112.04 -129.28 -87.45 152.41 -41.05 45.55 -158.32 94.59 135.35 157.04 -5.75 -91.23 123.11 44.64 152.75 71.71 -9.52 61.4 -221.8 -143.51 -159.25 212.97 -17.5 80.16 -155.84zm-511.98 576.95l78.38 -72.06 125.68 56.61c0,0 -168.16,23.57 -204.06,15.44zm751.97 -385.93c-54.75,-69.47 -191.57,-169.26 -191.57,-169.26l42.77 134.41 148.81 34.85zm-418.55 361.73l174.59 -102.48 138.7 87.63c0,0 -304.29,23.33 -313.29,14.85zm675.59 -41.01c-21.77,-68.87 -213.95,-281.4 -213.95,-281.4l-132.18 118.49 25.55 181.79 320.57 -18.88zm-304.27 1202.21l203.29 42.22 52.86 -70.86 -195.25 -42.9 -60.9 71.54zm-98.68 121.32l85.32 -102.98 120.55 171.59 -74.33 170.83 194.8 -40.28 83.19 85.82c0,0 -167.77,219.63 -186.99,238.16 -19.21,18.53 -222.52,-523.13 -222.52,-523.13zm-124.75 826.46l-54.76 -145.72 119.67 -177.77 -215.98 14.67 -62.71 -103.99 529.53 154.58c0,0 -207.74,202.8 -315.75,258.24zm-948.22 221.29c0,0 342.63,90.04 889.07,-188.82m-241.45 -465.79l-30.36 143.26 -199.36 62.47 -29.86 -98.82 84.23 -113.42 -142.23 4.65 -55.26 -107.06 372.84 108.92zm241.45 465.79l-117.06 -38.71 -185.1 151.54 -5.61 -230.68c0,0 -154.04,-113.41 -275.1,-149.98 -26.59,11.56 -73.34,47.92 -107.18,67.92 -33.13,72.57 -43.96,142.78 -51.2,150.46 -11.3,11.99 107.37,150 107.37,150l-182.39 -17.72 -65.33 107.68m-507.27 -118.59c0,0 272.09,116.66 443.68,118.1 -20.65,-99.64 -34.62,-124.56 -34.62,-124.56l-179.91 -62.86 155.65 -113.36 1.02 -148.04 -385.82 330.72zm417.77 -349.82l126.02 98.76 137.49 -44.64 14.05 -101.78 -117.12 -85.57 -160.44 133.23zm197.45 -171.1l92.96 -3.87 39.39 -108.8 -132.35 112.67zm-368.51 -2480.33c-165.77,13.64 -366.14,131.45 -366.14,131.45l58.26 59.28 185.56 -65.13 -70.32 178.11 91.25 120.87 101.4 -424.59zm-476.86 190.33l16.48 71.37 -168.14 116.34 194.4 58.49 47.55 195.76 112.01 -176.21 157.85 22.29 -122.28 498.09 -92.66 -96.07 67.92 -224.77 -210.86 83.92 -190.11 -141.7 20.27 230.25 -123.69 84.94 55.41 -85.62 -154.75 21.64 -108.8 -125.24 -29.49 157.16 -79.1 13.56c0,0 158.67,-421.91 607.98,-704.19zm-633.06 779.12l83.1 50.02 5.92 178.1 132.7 -116.26 154.55 54.63 -59.04 -154.1 185.04 54.64 21.6 93.54 -618.5 227.25c0,0 41.01,-289.82 94.63,-387.83zm370.52 749.78c-68.12,-71.19 -468.08,-307.75 -468.08,-307.75 0,0 -43.72,329.59 34.88,497.04 152.69,-91.64 152.69,-91.64 152.69,-91.64l6.84 -224.76 167.3 144.62 106.36 -17.51zm-414.63 248.09l146.93 62.26 53.64 222.22 141.34 -180.43 232.85 33.04 -124.5 -198.82 59.7 -127.57 295.54 189.27 7.07 346.06 -166.94 50.29 -163.18 -126.78 -4.44 214.81 -177.23 97.3c0,0 -203.17,-218.56 -300.79,-581.66zm325.08 620.55l182.65 34.08 37.36 172.02c0,0 -113.6,-80.52 -220.02,-206.1zm256.69 232.82l101.07 -161.75 156.6 17.81 6.21 301.21c0,0 -170.58,-73.22 -263.88,-157.26zm181.59 -321.1l61.49 -135.02c0,0 11.84,188.47 5.17,220.51 -27.72,-18.22 -66.66,-85.49 -66.66,-85.49zm264.85 -387.25l83.36 51.14 23.76 204.49 135 -151.99 103.4 31.26 -328.08 296.28 -17.43 -431.17zm712.38 -22.63l99.5 -67.61 209 111.5 -38.63 -228.37 119.4 -123.88 204.57 479.01 -593.84 -170.66zm-302.64 93.37l171.38 -142.94 39.64 19.04 27.61 -144.98 -168.67 -160.75 132.11 -28.15 -115.65 -53.17 -196.61 125.27 15.77 -226.83 -163.01 -136.21 -21.09 30.72 113.76 218.05 -227.85 -50.77 -97.44 107.07 72.41 49.06 3.45 238.83 89.9 -27.8 35.5 -212.58 132.82 147.88 190.96 -27.64 -90.07 159.4 55.09 116.49zm-580.65 -500.25l-15.62 -118.56 -205.21 -105.32 211.2 -102.79 14.23 -141.89 -480.04 169.56 475.45 299zm345.18 -284.03l199.44 -35.48 84.87 -201.42 115.16 193.94 225.82 22.94 -154.33 155.56 55.95 191.47 102.41 -228.03 101.08 213.94 177.24 24.87 -62.3 -178.26 150.79 -201.61 -102.6 -37.4 -133.31 124.75 -18.72 -193.02 -157.17 -90.57 179.81 -55.6 31.05 -119.93 -272.98 18.38 -151.35 -197.63 -45.29 78.58 121.84 202.1 -221.84 -45.1 -135.01 158.03 -45.83 -198.5 -109.46 -56.95 -41.51 176.38c0,0 -173.45,42.39 -159.21,53.2 14.24,10.81 115.48,123.69 115.48,123.69l226.64 -35.88 -76.68 137.56zm-58.38 -559.78l111.65 -432.2 249.33 306.58 -92.13 28.31 -128.27 -138.36 -45.71 209.06 -94.87 26.6zm918.29 138.39l73.77 90.89 167.57 -21.09 -101.42 150.1 46.7 85.4 209.42 -327.52 -396.04 22.22zm992.49 203.71l-46.94 50.72 79.35 211.59 -199.87 -78.19 -174.67 122.44 9.41 -213.32 -110.35 -76.58 -124.72 196.53 139.31 146.14 240.21 -51.93 -105.1 215.46 99.4 191.72 47.45 -63.74 42 206.35 59.54 23.85c0,0 120.57,-296.88 77.4,-618.73m-32.41 -262.31l37.99 264.84m-767.15 224.91l-11.39 -29.04 129.42 -196.45 -10.61 157.29 -107.42 68.21zm46.95 117.02l65.46 44.72 25.63 177.07 -91.09 -221.79z"/>
  <path class="fil0 str0" d="M1306.46 174.8c34.07,-7.86 68.07,13.38 75.93,47.46 7.86,34.08 -13.37,68.08 -47.45,75.94 -34.08,7.87 -68.08,-13.38 -75.95,-47.46 -7.86,-34.08 13.38,-68.08 47.46,-75.95zm362.55 265.07c843.35,-51.2 1625.02,511.85 1821.4,1362.46 218.89,948.12 -372.25,1894.16 -1320.37,2113.05 -948.13,218.89 -1894.16,-372.27 -2113.05,-1320.39 -196.38,-850.6 259.35,-1699.33 1039.79,-2023.01l-5.54 -23.97c-13.33,-57.76 18.92,-115.88 72.95,-136.3 -35.01,-31.21 -61.02,-73.19 -72.38,-122.36 -29.18,-126.42 49.63,-252.55 176.06,-281.74 126.41,-29.18 252.55,49.63 281.74,176.05 11.36,49.18 6.36,98.31 -11.42,141.71 57.5,-5.33 111.96,32.78 125.29,90.53l5.53 23.97zm-1062.91 687.44l130.47 79.23c62.51,-104.56 158.82,-188.93 277.9,-235.51l-45.07 -139.6c-136.62,80.84 -258.68,180.97 -363.31,295.88zm-326.61 549.34l396.79 -38.27c-1.68,-6.32 -3.31,-12.64 -4.8,-19.06 -26.9,-116.52 -15.12,-232.99 26.85,-336.08l-182.92 -47.02c-101.11,133.16 -180.92,281.88 -235.92,440.42zm825.88 -732.63c97.23,-20.34 194.03,-14.31 282.8,13.36l132.62 -325.68c-33.56,5.51 -67.14,12.03 -100.74,19.78 -119.03,27.48 -231.8,67.69 -337.19,118.89l22.5 173.65zm-893.64 1493.46c140.02,-139.91 147.39,-113.25 176.39,-157.39 25.78,-39.23 -124.61,-67.93 -193.92,-161.16 -4.9,104.84 0.67,211.46 17.52,318.55zm327.01 742.72c34.84,-17.41 72.8,-33.47 104.46,-40 -70.93,-119.23 -63.48,-135.13 -94.16,-154.36 -30.69,-19.23 220.41,80.68 246.52,115.14 26.12,34.46 -29.23,-74.22 -46.65,-114.72 -17.43,-40.52 190.01,45.19 232.81,108.18 42.8,63 -10.99,-108.79 -10.99,-108.79 0,0 -24.56,68.42 -43.32,22.15 -18.76,-46.27 -31.83,-199.12 -54.71,-228.26 -22.88,-29.13 -3.04,65.47 -107.47,146.26 -22.58,-128.38 -7.73,-243.14 6.24,-305.07 13.95,-61.93 -100.56,132.52 -194.45,127.88 -5.49,-137.39 67.49,-205.87 71,-243.11 3.51,-37.24 -165.58,113.12 -226.74,119.15 10.75,-97.63 29.32,-178.83 48.02,-211.49 15.56,-27.16 -155.77,67.19 -249.34,71.82 3.99,21.14 8.39,42.33 13.27,63.49 55.13,238.82 161.79,452.41 305.52,631.72zm773.88 524.78c3.69,-44.05 35.54,-96.98 85.4,-135.81 -96.89,17.3 -128.22,21.51 -150.64,-5.71 57.72,-77.8 109.7,-136.66 217.15,-143.25 -76.73,-30.86 -85.63,13.69 -152.7,2.87 -23.62,-77.38 0.19,-121.51 7.35,-204.13 7.17,-82.61 -8.61,111.32 -116.01,170.51 -82.81,-79.05 -94.86,-113.74 -103.87,-144.04 -9.01,-30.3 -7.09,161.57 -51.14,198.05 -66.77,-63.23 -93.26,-124.23 -90.63,-165.32 2.63,-41.09 -91.15,173.84 -190.79,108.83 65.81,-111.03 74.38,-79.91 79.07,-103.27 -49.03,16.34 -137.62,8.98 -220.09,-3.98 188.19,198.22 425.31,345.14 686.89,425.25zm1400.78 -238.57c-45.99,-42.43 -101.15,-97.86 -111.66,-128.6 -18.6,-54.4 -18.78,119.72 -75.92,169.36 -76.09,-54.28 -104.83,-130.65 -117.98,-196.43 -41.61,33.88 -48.13,202.39 -92.61,236.95 -49.78,-45.18 -112.59,-164.28 -116.9,-217.94 -4.31,-53.66 -26.52,208.55 -59.65,248.58 -51.45,-17.46 -132.48,-145.52 -136.95,-217.36 -4.47,-71.84 -21.69,150.75 -48.05,185.18 -49.62,-27.01 -164.08,-221.21 -169.12,-260.54 -5.03,-39.33 44.86,246.71 38.1,278.63 -6.75,31.93 -114.02,-109.29 -133.05,-139.31 -19.04,-30.02 16.47,283.35 -28.79,312.31 -50.32,-49.82 -87.35,-128.62 -102.36,-189.94 -29.89,81.35 -32.07,137.93 -108.98,192.92 218.47,46.03 450.18,46.54 682.05,-7 217.04,-50.11 413.21,-142.69 581.88,-266.8zm-1664.81 -1555.23l-13.02 -51.82 62.18 -36.62c0,0 60.43,8.31 70.01,6.1 9.58,-2.21 16.47,-42.26 16.47,-42.26 0,0 -209.54,-129.75 -109.62,-335 60.44,-138.68 64.77,-191.69 64.77,-191.69 0,0 65.84,71.34 128.16,129.25 64.03,59.52 84.44,80.25 97.72,174.88 11.29,80.54 10.39,171.67 -6.4,192.36 -28.26,34.86 163.88,-41.88 163.88,-41.88l45.7 70.49c84.68,-103.37 122.22,-243.65 89.78,-384.15 -55.49,-240.35 -294.82,-390.42 -534.45,-335.09 -239.6,55.32 -388.94,295.12 -333.44,535.46 33.25,144.02 132.51,255.53 258.27,309.98zm109.81 436.73l-78.43 -311.92c-163.94,-41.82 -304.08,-156.34 -374.6,-315.24l-469.03 102.94c-18.28,75.71 -31.03,153.1 -37.9,231.7 212.18,40.55 255.49,44.26 320.77,119.53 68.75,79.27 -6.66,-194.83 -8.46,-255.13 -1.81,-60.3 198.61,265.88 181.86,350.71 -16.74,84.84 54.06,-229.08 76.75,-244.43 22.69,-15.35 108.03,371.81 52.67,455.44 -55.35,83.63 74.44,-193.28 108.89,-227.56 34.47,-34.28 25.89,295.65 -4.42,365.39 -30.31,69.74 98.09,-99.57 103.96,-135.34 5.87,-35.77 77.36,186.59 53.56,266.99 -23.81,80.38 -0.38,-115.31 31.72,-151.06 32.11,-35.74 110.11,197.25 111.46,229.33 1.36,32.07 59.87,49.26 59.87,49.26l-128.67 -530.62zm1091.46 -263.34c201.32,-46.48 401.48,75.58 446.96,272.55 31.7,137.27 -20.15,274.73 -122.58,361.21l-41.07 -164.77c0,0 -53.02,10.72 -105.38,30.9 25.17,-48.33 53.4,-251.26 -161.67,-359.42 -123.45,269.38 40.1,383.44 40.1,383.44l-121.72 32.15 39.25 152.46c-124.39,-35.93 -225.48,-134.68 -256.17,-267.62 -45.48,-196.97 80.94,-394.43 282.28,-440.91zm394.02 -37.89l267.03 -446.19c0,0 -137.81,-2.58 -214.66,-82.01 -76.85,-79.42 98.27,137.24 107.46,212.03 -68.59,8.74 -167.95,-80.68 -208.64,-99.61 -40.68,-18.94 60.1,111.63 48.52,201.34 -93.58,-37.89 -139.97,-99.26 -175.96,-141.55 -35.99,-42.3 42.45,166.3 41.89,198.82 -119.43,-26.86 -195.65,-51.99 -227.81,-95.18 -26.98,-36.21 31.02,66 44.93,150.15 116.84,-2.46 228.29,35.05 317.24,102.2zm312.74 -908.33c-65.09,132.85 -95.88,149.99 -115.2,178.6 -17.93,26.54 87.08,-54.22 237.28,-23.96 -37.6,-54.3 -78.41,-105.9 -122.09,-154.64zm-824.07 -487.19c62.62,101.29 98.17,280.98 82.35,346.88 -20.56,85.71 35.09,-97.96 169.09,-150.38 1.94,135.97 -96.31,273.24 -135.06,306.48 -38.73,33.23 123.45,-77.08 223.67,-79.98 -48.54,120.98 -108.79,166.81 -138.96,228.43 -30.16,61.62 105.33,-76.95 144.86,-45.59 -51.86,103.07 -69.81,160.84 -36.1,184.44 -28.42,43 109.48,-207.46 238.54,-277.74 9.06,82.93 -5.8,114.7 -25.07,153.57 -17.82,35.91 95.87,-157.4 274.02,-208.03 -213.95,-227.06 -491.88,-387.39 -797.34,-458.08zm-427.13 557.17c62.19,-41.78 237.74,-163.75 237.74,-163.75 0,0 -60.94,-89.16 -75.28,-142.53 -14.35,-53.37 208.49,81.43 235.2,135.97 23.32,47.63 -82.73,-265.23 -55.05,-403.92 -119.61,-20.88 -242.73,-28.18 -367.41,-20.48l-196.93 383.49c90.96,48.01 168.4,120.6 221.73,211.21zm235.96 920.41c-33.52,-54.29 -87.99,-153.82 -77.28,-211.68 22.17,-13.21 125.29,9.53 139.02,42.79 13.73,33.27 -118.06,-179.21 -121.1,-306.03 48.94,-15.35 167.79,62.47 192.87,101.21 25.09,38.74 -121.71,-160.15 -140.25,-301.61 58.34,-9.43 179.84,53.61 191.97,97.37 12.12,43.76 -124.34,-119.06 -153.66,-298.52 49.78,-37.81 127.62,-15.31 160.68,31.72 33.06,47.03 -123.15,-105.17 -134.69,-155.13 -11.03,-47.78 -153.75,122.84 -256.13,155.81 10.37,26.06 18.94,53.26 25.44,81.43 48.8,211.37 -29.5,422.54 -184.98,554.05 8.85,56.99 22.24,117.01 41.79,146.86 43.54,66.46 182.6,243.62 33.19,278.11 17.67,163.93 75.69,437.64 108.05,542.92 9.21,-99.9 40.27,-101.46 46.28,-145.36 6,-43.9 161.45,262.31 152.06,309.02 -9.39,46.7 57.53,-126.63 57.53,-126.63 0,0 97.98,153.48 114.83,200.2 16.83,46.73 30.72,-120.47 36.16,-131.83 5.44,-11.37 116.27,171.53 143.69,185.44 27.44,13.91 -54.13,-234.45 -54.13,-234.45l-2.73 -10.61c-201.84,-26.66 -374.44,-172.21 -422.03,-378.41 -35.91,-155.54 7.2,-311.28 103.43,-426.68zm822.99 48.94l572.38 -249.03c-5.21,-30.8 -11.34,-61.6 -18.45,-92.43 -41,-177.58 -110.48,-341.22 -202.54,-487.18 -108.07,56.67 -258.09,64.14 -281.91,74.92 -27.41,12.4 227.98,139.67 240.08,157.12 10.22,14.74 -289.61,390.05 -382.83,506.11 27.76,26.99 52.4,57.28 73.28,90.5zm504.42 539.59l-439.5 -184c-26.57,131.05 -106.24,247.89 -220.9,322.09l53.95 216.4 183.47 -251.74c0,0 42.25,152.33 14.14,218.19 -17.35,64.4 86.74,-164.98 221.7,-260.57 12.1,71.45 -24.34,173.62 -46.27,227.26 -21.91,53.63 53.63,-99.28 171.11,-136.63 23.32,-49.15 44.1,-99.55 62.3,-151.01zm-429.82 -274.49l477.29 113.75c33.77,-141.75 48.22,-289.47 40.96,-439.55l-548.66 150.41c7.16,19.3 13.17,39.27 17.91,59.83 8.94,38.73 12.96,77.45 12.5,115.57z"/>
  <path class="fil0 str0" d="M16135.98 4602.05c34.07,-7.86 68.07,13.38 75.94,47.46 7.86,34.08 -13.38,68.08 -47.45,75.95 -34.08,7.86 -68.08,-13.38 -75.95,-47.46 -7.87,-34.07 13.38,-68.08 47.46,-75.95zm362.55 265.07c843.35,-51.2 1625.03,511.85 1821.4,1362.46 218.89,948.11 -372.26,1894.16 -1320.37,2113.05 -948.12,218.89 -1894.16,-372.27 -2113.05,-1320.38 -196.38,-850.6 259.35,-1699.34 1039.79,-2023.01l-5.54 -23.97c-13.33,-57.76 18.92,-115.88 72.95,-136.3 -35.01,-31.21 -61.04,-73.19 -72.4,-122.36 -29.18,-126.42 49.64,-252.56 176.06,-281.75 126.41,-29.18 252.56,49.63 281.74,176.06 11.36,49.17 6.36,98.31 -11.42,141.71 57.51,-5.34 111.97,32.78 125.31,90.53l5.53 23.97zm1584.93 2337.18c-89.17,0.64 -179.03,-6.36 -269.72,-22.93 -10.46,0.59 -21,0.11 -31.81,-1.98 -241.2,-47.61 -424.17,-5.01 -559.21,130.43 -132.77,132.99 -169.93,328.12 -90.34,474.48 62.13,113.93 197.42,198.18 327.97,178.93 67.84,-43.32 132.07,-91.54 191.77,-144.05 11.55,-24.66 19.21,-51.07 21.97,-77.87 4.22,-44.29 -3.69,-107.5 -65.74,-157.5 -33.53,-26.84 -77.1,-39.72 -116.62,-34.33 -23.16,2.98 -55.42,13.9 -79.93,47.79 -40.73,56.25 -119.23,68.91 -175.41,28.25 -56.36,-40.7 -68.99,-119.16 -28.35,-175.45 59.87,-82.86 148.69,-136.04 249.96,-149.62 108.23,-14.57 220.42,17.33 307.79,87.51 56.9,45.75 99.82,102.71 126.81,166.33 77.94,-108.09 141.97,-225.65 190.85,-350.01zm-2857.27 -1347.86c45.59,-8.4 92.08,-12.56 138.45,-12.32 -5.75,-42.51 -5.23,-86.55 1.91,-131.26 5.54,-34.55 14.94,-68.23 27.63,-100.47 -63.42,76 -119.79,157.8 -167.99,244.05zm488.73 -535.55c185.8,-54.29 395.81,-1.53 542.81,140.61 -5.16,-14.4 -9.98,-28.96 -14.03,-44.15 -30.28,-112.14 -16.24,-236.08 35.51,-337.49 -8.92,1.83 -17.84,3.68 -26.79,5.75 -198.24,45.77 -379.1,126.96 -537.5,235.29zm1692.99 -59.04c-2.74,8.75 -5.82,17.65 -8.92,26.58 -37.02,103.31 -86.4,192.8 -145.49,266.59 70.2,-35.8 149.32,-57.91 235.75,-60.86 99.99,-3.35 204.64,23.64 296.49,75.23 -109.73,-121.75 -237.3,-225.37 -377.83,-307.54zm432.44 1669c11.75,2.32 23.38,4.34 35.07,6.29 9.71,-1.34 19.71,-1.7 30.03,-0.76 68.42,6.78 140.26,-15.2 192.14,-58.89 29.78,-24.96 66.36,-68.36 71.23,-133.55 4.45,-58.11 -16.54,-119 -54.78,-158.93 -29.6,-30.98 -66.32,-46.01 -109.34,-44.62 -33.11,1.08 -70.97,27.84 -84.26,59.73 -6.91,16.75 -11.89,43.57 24.5,82.49 47.32,50.61 44.81,130.12 -5.91,177.53 -50.65,47.43 -130.14,44.81 -177.73,-5.77 -94.73,-101.39 -121.97,-232.42 -72.89,-350.68 9.38,-22.57 21.1,-43.64 34.77,-63.38 -19.67,4.98 -39.88,8.55 -60.62,10.7 -138.81,14 -279.46,-53.61 -358.2,-172.12 -72.19,-108.53 -78.58,-240.66 -17.18,-353.47 33.08,-60.96 109.29,-83.54 170.23,-50.27 61.07,33.03 83.63,109.38 50.51,170.3 -17.17,31.26 -15.06,63.04 5.63,94.35 27.14,40.68 77.99,65.86 123.76,61.19 97.39,-9.85 173.83,-105.13 167.18,-208.25 -9.52,-147.08 -169.94,-251.93 -306.73,-247.44 -187.79,6.36 -320.8,181.92 -336.5,340.88 -39.02,395.84 253.01,759.01 679.1,844.68zm-1090.04 -1695.31c4.85,-15.1 8.99,-38.25 -12.17,-65.93 -26.21,-34.24 -75.72,-56.56 -120.69,-54.33 -41.39,2.1 -75.23,20.65 -100.32,55.3 -35.3,48.62 -47.39,119.77 -30.76,181.47 53.64,199.08 265.22,194.01 328.78,187.67 212.09,-20.96 313.58,-242.1 347.3,-336.2 6.31,-17.38 11.49,-34.86 16.11,-52.33 -64.64,-25.08 -130.95,-45.81 -198.78,-62.2 30.1,70.73 33.9,149.24 9.42,224.48 -21.55,66.04 -92.6,102.02 -158.49,80.43 -65.91,-21.5 -101.97,-92.43 -80.39,-158.35zm-1670.24 1804.24c31.86,-29.47 67.68,-55.76 107,-77.59 -44.04,0.17 -87.57,-5.67 -129.48,-16.71 2.66,12.91 5.52,25.9 8.52,38.89 4.33,18.72 8.98,37.05 13.97,55.41zm337.95 -141.04c34.44,-0.54 69.05,2.44 103.05,9.08 0.75,-38.47 4.66,-76.96 11.56,-115.25 -31.63,43.17 -70.34,78.95 -114.61,106.17zm-327.44 -720.78c-44.99,151.24 -67.64,310.44 -65.16,473.01 44.91,40.39 111.3,63.42 174.57,59.48 39.97,-2.58 95.38,-16.67 132.4,-69.62 32.16,-46.02 21.18,-107.78 -2.63,-145.77 -16.42,-26.06 -46.47,-55.46 -96.41,-47.33 -68.49,11.15 -132.98,-35.4 -144.14,-103.96 -11.11,-68.39 35.42,-132.88 103.86,-144.1 138.76,-22.62 272.6,39.43 349.49,161.73 41.79,66.65 61.93,143.24 60.63,218.39 62.63,-127.42 158.96,-243.31 282.86,-331.5 69.41,-49.37 145.31,-87.51 224.39,-113.73 0.54,-0.93 0.87,-1.85 1.54,-2.81 82.59,-126.3 108.05,-325.27 -2.66,-461.04 -95.49,-117.05 -263.32,-153.72 -382.19,-83.45 -58.55,34.61 -101.7,98.01 -112.46,165.31 -6.29,39.11 -4.43,96.54 40.17,147.53 38.62,44.06 95.83,67.84 142.34,59.13 1.39,-0.32 2.82,-0.57 4.25,-0.89 47.47,-10.96 84.67,-54.61 85.43,-101.12 1.04,-69.49 58.24,-124.91 127.68,-123.72 69.32,1.21 124.7,58.34 123.45,127.69 -2.59,168.44 -126.77,313.56 -294.48,345.09 -108.98,20.33 -224.17,-10.94 -316.23,-82.55 -7.45,-1.07 -14.98,-2.84 -22.43,-5.26 -155.93,-52.34 -312.13,-10.32 -414.28,59.5zm533.88 1165.69c32.73,143.44 -42.79,290.18 -178.81,359.34 38.88,41.92 79.92,81.61 122.75,118.94 149.65,-212.88 181.2,-412.76 81.52,-552.36 -73.74,-103.3 -208.47,-146.99 -313.05,-101.48 -73.53,31.99 -131.39,90.06 -151.07,151.53 -0.32,0.7 -0.46,1.52 -0.57,2.33 28.28,58.44 60.15,114.57 95.02,168.33 11.72,0.91 24.07,-0.51 37.15,-5.18 36.41,-12.58 70.51,-48.9 62.06,-85.51 -15.33,-67.6 26.74,-134.84 94.27,-150.43l0.28 -0.05c67.66,-15.43 134.98,26.9 150.46,94.54zm1155.18 -784.46c-95.63,-141.29 -224.82,-190.62 -316.33,-207.22 -146.58,-26.44 -304.02,10.47 -431.63,101.19 -169.36,120.56 -307.76,358.87 -244.33,581.07 1.46,5.12 2.54,10.09 3.25,15.12 23.18,22.52 44.52,47.26 63.87,74.2 60.71,84.97 210.06,359.24 -21.82,753.18 0.76,49.4 4.68,95.34 11.73,138.1 86.29,47.47 176.89,87.16 271.01,118.11 -14.88,-22.32 -27.63,-46.54 -37.71,-72.65 -45.11,-116.86 -30.94,-242.86 38.91,-345.65 52.77,-77.59 132.61,-135.65 223.04,-165.56 -271.03,-50.03 -467.71,-311.05 -429.96,-572.24 21.77,-150.25 122.83,-290.11 257.66,-356.3 112.14,-54.97 232.25,-52.26 338.39,7.76 60.37,34.13 81.65,110.8 47.58,171.26 -34.19,60.41 -110.82,81.72 -171.29,47.51 -33.04,-18.69 -67.06,-19.06 -103.91,-0.94 -59.59,29.29 -109.96,99.35 -119.67,166.55 -20.19,139.22 104.25,267.7 228.76,289.66 168.25,29.69 334.37,-96.84 411.33,-237.1 86.67,-157.88 79.11,-361.31 -18.9,-506.05zm185.23 1611.69c52.71,-12.17 104.16,-26.8 154.36,-43.85 -55.27,-35.2 -105.67,-79.87 -148.27,-133.45 0.69,5.12 1.34,10.12 1.9,15.19 5.51,54.44 2.75,108.95 -7.99,162.11zm-120.57 -470.74c-16.25,-116.24 0.81,-236.38 49.6,-347.83 -83.34,84.34 -189.63,153.52 -309.24,185.96 101.34,23.65 191.52,81.07 259.64,161.87zm-157.73 509.78c29.54,-55.57 42.28,-116.07 36.25,-175.68 -12.92,-127.14 -107.86,-257.96 -244.49,-256.81 -61.35,0.5 -121.83,31.27 -153.96,78.56 -23.74,34.92 -27.85,73.25 -12.2,113.85 13.96,36.27 48.3,71.09 93.19,67.12 69.15,-5.93 130.07,45.14 136.09,114.37 1.71,20.78 -1.78,40.76 -9.15,58.69 50.98,2.45 102.49,2.53 154.28,-0.1zm418.41 -1460.79c13.16,129.08 -6.41,262.46 -59.26,382.17 77.89,-77.7 166.51,-135.16 265.38,-172.03 -78.79,-61.13 -148.14,-131.97 -206.12,-210.15zm-58.36 -1020.8c-42.51,22.15 -87.33,38.81 -134.13,49.61 -23.73,5.48 -47.93,9.42 -72.64,11.85 -180.12,17.75 -337.87,-30.53 -448.71,-129.53 53.5,133.91 58.29,288.12 13.61,433.25 34.63,1.54 69.08,5.12 103.3,11.24 162.12,29.29 306.29,110.32 415.28,231.43 -16.67,-88.87 -21.46,-181.05 -12.18,-274.64 11.42,-115.81 59.1,-234.48 135.46,-333.21zm1104.57 543.79c-23.12,-100.14 -55.45,-195.96 -95.58,-286.68 5.12,115.57 -34.42,224.66 -103.45,308.39 14.65,-2.41 29.72,-4.2 44.81,-4.66 57.62,-1.76 113.17,8.5 164.11,29.64 -3.06,-15.55 -6.29,-31.08 -9.89,-46.69z"/>
  <path class="fil0 str0" d="M12515.12 4602.05c34.08,-7.86 68.07,13.38 75.95,47.46 7.86,34.07 -13.39,68.08 -47.46,75.95 -34.08,7.86 -68.08,-13.38 -75.95,-47.46 -7.86,-34.07 13.38,-68.08 47.46,-75.95zm362.56 265.07c843.34,-51.2 1625.02,511.85 1821.39,1362.46 218.89,948.11 -372.27,1894.16 -1320.37,2113.05 -948.11,218.89 -1894.16,-372.27 -2113.05,-1320.38 -196.38,-850.6 259.35,-1699.34 1039.79,-2023.01l-5.53 -23.97c-13.34,-57.76 18.92,-115.88 72.95,-136.3 -35.02,-31.21 -61.04,-73.19 -72.4,-122.36 -29.18,-126.42 49.64,-252.56 176.06,-281.75 126.41,-29.18 252.56,49.63 281.74,176.05 11.36,49.18 6.36,98.31 -11.42,141.71 57.52,-5.34 111.98,32.78 125.31,90.53l5.53 23.97zm1384.06 2703.93l-110.48 -75.26 -154.5 85.45 14.66 -185.27 -111.41 -55.92c0,0 -52.33,253.19 -484.32,396.53 3.47,8.4 6.32,17.17 8.43,26.31 20.9,90.51 -36.58,181.09 -128.36,202.28 -91.79,21.19 -183.16,-35.01 -204.05,-125.53 -2.77,-11.98 -4.15,-23.96 -4.27,-35.79 -312.39,25.4 -558.46,-64.84 -622.16,-163.88 -39.61,48.2 -87.24,119.7 -87.24,119.7l84.19 149.05 -162.48 -23.76 -90.1 116.18c333.48,190.73 736.2,261.33 1139.16,168.3 380.55,-87.86 696.92,-306.8 912.94,-598.39zm116.16 -181.06l-91.29 28.61 15.34 95.65c27.17,-40.24 52.53,-81.68 75.95,-124.26zm-185.04 -1802.54l-357.73 74.61 25.56 110.72c0,0 271.55,23.46 398.82,317.64 127.27,294.18 141.8,241.04 172.43,274.18 30.62,33.13 145.71,125.27 -93.38,283.84 -66.09,43.84 -125.99,78.53 -186.03,104.14 8.66,12.27 15.12,26.29 18.68,41.71 15.3,66.25 -28.47,132.94 -97.73,148.94 -69.26,15.99 -137.82,-24.77 -153.12,-91.02 -3.6,-15.59 -3.93,-31.19 -1.43,-46.16 -97.32,4.8 -210,-7.76 -355.18,-37.52 43.03,118.58 111.92,251.22 123.12,283.1 11.19,31.87 199.98,155.22 215.91,246.91 92.48,-38.74 118.63,-66.67 118.63,-66.67l-1.9 -182.38 151.3 116.32 163.59 -87.55 -32.42 166.4 111.86 76.03c154.35,-316.34 205.38,-686.09 119.92,-1056.3 -59.77,-258.88 -179.47,-488.29 -340.89,-676.94zm-438.11 -357.74l45.22 246.92 188.77 -28.26 -24.79 -80.01c-66.04,-51.66 -135.99,-98.03 -209.2,-138.65zm-428.56 -162.2l105.22 496.13 183.16 -44.2 -81.86 -391.48c-67.15,-24.72 -136.13,-44.96 -206.52,-60.45zm-391.13 -35.62l101.9 473.48 181.34 -43.78c0,0 -67.06,-320.26 -89.01,-424.4 -64.08,-5.74 -128.91,-7.57 -194.23,-5.29zm-368.51 56.8l73.72 357.01 54.22 -177.38 129.23 136.45 -79.72 -354.54c-36.77,5.8 -73.58,12.84 -110.4,21.35 -22.6,5.21 -44.93,10.98 -67.05,17.11zm-352.04 145.06l85.03 436.12 191.84 -48.11 -97.22 -474.53c-62.2,25.24 -122.17,54.17 -179.64,86.52zm-329.2 247.02l78.67 402.51 189.46 -41.82 -103.23 -501.23c-58.35,43.22 -113.45,90.16 -164.9,140.55zm-297.18 400.73l16.92 80.81 188.62 -45.46 -64.46 -258.42c-53.09,70.31 -100.29,144.94 -141.08,223.07zm577.67 2093.62l-41.4 -103.28 -86.89 15.49c41.33,31.34 84.15,60.64 128.29,87.79zm76.52 -802.74c4.62,8.81 8.18,18.31 10.52,28.42 15.3,66.25 -28.47,132.94 -97.72,148.93 -69.25,15.99 -137.82,-24.77 -153.12,-91.01 -3.3,-14.29 -3.85,-28.61 -1.98,-42.42 -120.95,11.2 -258.1,-2.71 -431.35,-93.02 -49.66,-50.09 -34.27,-82.07 -20.14,-112.13 14.11,-30.07 64.17,-70.35 54.37,-154.23 -9.79,-83.89 -2.27,-374.73 37.43,-443.24 39.7,-68.52 59.07,-145.28 208.4,-195.07 -8.6,-33.52 -26.79,-112.98 -26.79,-112.98l-356.89 87.65c-68.61,247.48 -78.27,515.31 -16.38,783.37 81.73,354.03 275.48,652.96 534.87,867.86l76.4 -110.94 -87.97 -165.4 174.23 24.87 90.03 -149.06 66.43 155.06 155.62 2.36c0,0 -14.87,-29.14 2.23,-83.94 21.4,-68.63 62.59,-114.19 76.21,-189.29 28.05,-154.85 4.3,-344.89 6.81,-361.02 -39.25,43.73 -98.27,140.32 -295.58,204.17l-5.62 1.08zm302.99 -1413.06l180.9 -34.07 41.93 -158.67 110.96 119.52 170.6 -41.31 -59.49 178.09 125.53 131.46 -177.44 27.56 -43.75 167.09 -118.02 -129.74 -151.28 33.01 48.5 -154.79 -128.42 -138.15zm449.79 584.72l73.1 -214.08 356.54 -72.74 -219.96 -247.89 534.95 -129.25 34.13 114.65c0,0 -314.18,46.94 -250.52,540.31 15.48,138.14 -25.64,228.82 -54.64,269.16 0,0 -150.34,-244.82 -473.6,-260.16zm-1078.63 -260.26l561.1 -123.8 -104.29 311.26 354.73 -72.32 156.06 178.4c0,0 -284.54,69.51 -335.82,427.89 -131.44,-53.15 -193.82,-292.21 -220.4,-349.26 -26.57,-57.05 -117.62,-227.65 -382.44,-271.64 -21.57,-81.88 -28.95,-100.53 -28.95,-100.53zm755.14 1256.56c0,0 -180.81,-736 272.78,-860.16 453.59,-124.16 647.96,658.7 647.96,658.7 0,0 -345.08,440.76 -920.74,201.46zm-43.43 256.4c0,0 -41.14,-12.81 -16.44,-77.09 24.71,-64.27 101.51,-38.77 118.43,-24.54 16.92,14.22 514.86,165.6 891.59,-185.25 38.58,-42.22 56.3,-45.95 69.52,-39.67 14.99,7.15 44.76,26.58 54.94,39.32 13.42,16.76 17.04,41.84 -15.95,76.03 -52.82,54.71 -456.32,471.26 -1102.08,211.21zm997.53 -1116.86c0,0 -124.77,-507.27 194.02,-594.27 318.79,-87.01 452.93,452.57 452.93,452.57 0,0 -243.55,305.11 -646.96,141.7zm-39.08 178.84c0,0 -28.83,-8.72 -11.3,-53.14 17.52,-44.42 71.37,-27.05 83.19,-17.28 11.84,9.76 360.95,112.74 626.46,-130.44 27.21,-29.24 39.65,-31.87 48.91,-27.58 10.5,4.89 31.34,18.21 38.45,26.97 9.37,11.53 11.84,28.82 -11.42,52.5 -37.24,37.91 -321.72,326.49 -774.29,148.97zm-1883.47 234.38c0,0 -124.77,-507.27 194.02,-594.27 318.79,-87 452.94,452.56 452.94,452.56 0,0 -243.54,305.12 -646.96,141.71zm-39.07 178.84c0,0 -28.84,-8.72 -11.31,-53.14 17.53,-44.42 71.36,-27.05 83.2,-17.29 11.83,9.77 360.94,112.74 626.44,-130.43 27.21,-29.24 39.66,-31.88 48.92,-27.58 10.5,4.89 31.34,18.21 38.46,26.96 9.36,11.53 11.83,28.82 -11.43,52.5 -37.24,37.9 -321.72,326.49 -774.29,148.97z"/>
 </g>
</svg>
