<svg xmlns="http://www.w3.org/2000/svg" viewBox="0 0 92.5 125.9"><defs><style>.cls-1{fill:#000001;fill-rule:evenodd;}</style></defs><title>Charles</title><g id="Layer_2" data-name="Layer 2"><g id="Layer_1-2" data-name="Layer 1"><path class="cls-1" d="M92.5,78.9v-.5A45.9,45.9,0,0,0,72.3,41.5l.8-.3h0a21.8,21.8,0,0,0,6.6-4.6c4.3-5.1-.8-10.8-.8-16.2s2.4-9.4.4-14.1c-1.2-3-4.1-4.4-7.4-4.5A13.8,13.8,0,0,0,64,3.9C61.9,5.2,51.7,15.6,51.5,15.6a2.5,2.5,0,0,0-1-1.6,2.3,2.3,0,0,0-1.6-.6H46a2.8,2.8,0,0,0-1.3.4c-.6.3-1.2.9-1.2,1.3A58.8,58.8,0,0,0,32.1,2.7,14.8,14.8,0,0,0,24.4,0C21-.1,18,1.1,16.6,4c-2.3,4.5-.3,9.5-.6,14.1s-5.9,10.7-2,16.1c2.2,2.5,4.5,4.8,7.7,5.8h.1l.3.2A46.4,46.4,0,0,0,0,79.7a45.9,45.9,0,0,0,8.5,26.7L9.7,108a47.4,47.4,0,0,0,14.4,12.3l2.3,1.2a45.7,45.7,0,0,0,19.9,4.4,47.1,47.1,0,0,0,12.5-1.7l2-.6a44.1,44.1,0,0,0,8-3.5l1.7-1a46.1,46.1,0,0,0,22-39.4ZM83.8,64.4l-3-.4c0-.4-.1-.9-.1-1.3l1.4-.6c-.3-.3-.9-.3-1.3-.5l-.2-1.7a10.6,10.6,0,0,0-1,1.2L78,60.7l.3-5.9A43.5,43.5,0,0,1,83.8,64.4Zm-9.2,11,1.1.6c.3.1.3.1.3.4a2,2,0,0,1-1.1.1l-.4-.9c-.1-.3,0-.1,0-.2Zm.7-2-1.4-.7h-.2c0,.1,0,.1-.1.1s-.6-.9-1-1.1.7-.9.9-1.3l-1.6.3L71,69.7c-.2,1.8.1,1.4-1,1.8s-.5.2-.5-.3L67.8,71l-1.7-.2-3.2-.4c0-.3.1-.2.3-.3l2.4-1.5,1.4-.9,1.4-.8v-.4h1.5c.1.4.4,1,.5,1.4h.1c.2-.4.3-1.2.5-1.6l1.5-.2-1.3-.8a6.5,6.5,0,0,0,.4-1.3l.5.2c.2-.1.2-.2.3-.3l.3-.3c.1-.2,0-.1.1-.2l2-2.4.3-.4,1-1.3c.1-.1.1-.2.3-.1s-.4,5.2-.1,6.1l.8.2h0l-.6,1.2H75a9.4,9.4,0,0,1,.9,1.2,5.4,5.4,0,0,0-.7,1.3l1.8-.4c.1.3.6.5.7.8l-.5.3c.1.8,2.3,5.8,2.2,6s-.5-.2-.6-.3l-.7-.4Zm-2.5,3.5.5-.7c.2-.3.4-.8.7-.8l-.2,1.4c-.3.1-.9.4-1.2.3S72.6,77.1,72.8,76.9Zm-.2-2.8-2.1,2.5c-.3.3-.8,1-1,1V71.9l1.3.4V74a12.7,12.7,0,0,0,1.1-1.3l1.4.5c0,.2,0,.2-.2.3l-.2.3Zm-5.1-.9v.2a8.6,8.6,0,0,1-.1,1.7l-.9-.8C66.6,74.2,67.3,73.2,67.5,73.2Zm-1.1,0-.7.4c-.2-.2-.6-.6-.5-1h0l1.7.2C66.9,73.1,66.9,72.9,66.4,73.2Zm-1.9-6.9a4.3,4.3,0,0,1,1.6-.1c0,.2.1.1-.1.2l-1.7.9C64.2,67.1,64.4,66.5,64.5,66.3Zm6.7-2.7-1,.9-1.3-.8a2.9,2.9,0,0,0,.2.9,3.2,3.2,0,0,0,.4.7c-.4.1-1,.8-1.3.8l-1-2.7c-.2-.5-.9-2.2-1-2.6s1,.5,1.3.6Zm-1.3-3.3h.8a6.9,6.9,0,0,1,.5,1.3,9.1,9.1,0,0,1-1.3-.8C69.7,60.6,69.4,60.4,69.9,60.3Zm1.8.3c0-.8-.2-.6.5-.8h.6c0,.3-.1.3-.3.5s-.7,1-.9,1A.7.7,0,0,1,71.7,60.6Zm7.7,10.1c.4,0,.5.2.7.3s.5.3.6.5l-.4,1c-.3-.1-.3-.1-.4-.4s-.1-.2-.1-.4A3,3,0,0,1,79.4,70.7Zm.5-.3c.1-.3,0-.2.8-.6l.8-.4c.1.3-.4,1.1-.4,1.1A2.5,2.5,0,0,1,79.9,70.4ZM78.2,69c0-.3-.1-.8-.1-1.1l.6-.5.6-.4-1.2-.2-.3-.2c-.2-1.2-.4-1.2.2-1.1l4.9.7h-.3l-.3.2Zm.4-5.6.8-.3c.3-.1.3,0,.5.3l.3.4c-.2.2-.6.1-.9,0l-.9-.2C78.4,63.4,78.3,63.5,78.6,63.4Zm.2-1.1c0,.1,0,.1-.1.2l-.2.3c-.5.7-.3.6-.6.7a12,12,0,0,1,0-1.9c.1-.6.3-.2.5,0l.5.4C78.9,62.4,78.9,62.1,78.8,62.3ZM77.6,54l-2.2,2.6h-.2l-2,2.6-.3-.2c-.3-.1-.9-.3-1-.5V57.1a1.7,1.7,0,0,0-.6.6l-.6.6a5.9,5.9,0,0,0-1.4-.6,10.1,10.1,0,0,0,.7,1.5c-.3.2-.8.9-1.1.9a10.6,10.6,0,0,1-1.7-1L65,57.7l1.1-.3-.9-.8-1.5.4-1.4-.9,3.6-1-.8-.8-3.5.9.6-2.2-1.2.3-.3,1.2-.8-.7a13.3,13.3,0,0,0,.5-1.9,10.5,10.5,0,0,0,.5-1.9l1.1-.2a7.9,7.9,0,0,0-.4,1.2l.9.8.6-2.2,2.5,2.6,1.2-.3-3-3,1.4-.4,1.7,1.7,1.2-.3-1.7-1.7,1.4-.4v-.5l-.2-.5-1.4.4.6-2.4-1.2.4-.6,2.3-1.4.4,1.1-4.1-1.1.3-1,3.5L60.9,46l-.3,1.2.9.9-1,.2L59.1,47l-1.4-1.4.3-1,.9.9,1.2-.3-1.7-1.7,3.5-.9v-.3l1.5.7,2,1h.1l1.5.9,1.5,1,.4.2A43,43,0,0,1,77.6,54ZM62.2,56.1l.3.7-.6-.6Zm-3-2.4-2.4-2.4a.8.8,0,0,0,.2-.7l3.3-.9-1.7,1.7Zm-7.4-6.2,2.3,2.4a1.4,1.4,0,0,0-.2.7l-3.2.9,1.7-1.7Zm6.7-6.3h.2l1,.3,1.1.4-2.6.7Zm-1.2-.5.2.2-.3,1.4L55,40.1Zm.5,7.6,2.3.6-3.3.9-.2-.3a.1.1,0,0,1-.1-.1.1.1,0,0,1-.1-.1h-.1c.3-1.1.6-2.2.8-3.3Zm-2.3.8H55l-.3.2-2.3-2.4,2.3.6,1.6-1.7C56.1,46.9,55.8,48,55.5,49.1Zm-1.3,2.3c0,.1.1.2.2.3h.2c0,.1,0,.1.1.1h0l-.9,3.3-.6-2.3-2.3-.6Zm1.3.7h.7l2.4,2.4-2.3-.6-1.7,1.7ZM70.4,4.9c3.8-1.2,5.2,1.8,3.6,5.4a25.9,25.9,0,0,1-15.9,6.2A20.2,20.2,0,0,1,70.4,4.9ZM60.9,35.2l.2.3a.4.4,0,0,0-.1.3c-2-.6-4-1.2-6-1.6-.3-.4-.5-.9-.8-1.4h-.1A29.2,29.2,0,0,1,52,27.1ZM46,17.3a2.2,2.2,0,0,1,1.5-.6,2.4,2.4,0,0,1,1.6.7,2.3,2.3,0,0,1,.6,1.6,2.1,2.1,0,0,1-.7,1.5,2.5,2.5,0,0,1-1.6.6,2.6,2.6,0,0,1-1.6-.7,2.2,2.2,0,0,1-.5-1.6A1.8,1.8,0,0,1,46,17.3Zm.3,21.8a39.4,39.4,0,0,1,7.7.8v.6L56.4,43l-2.2.6.9.9,1.2-.4L56,45.2l-1.8.5-1.9.5-.8-.8,1.3-.3.3-1.2-2.2.6.9-3.5-.9-.8-1.1,4-1-1,.7-2.3-.9-.9L48,42.4l-1.1-1.1-.3.4-.4.4,1,1-2.3.7.9.8,2.3-.6,1,1L45,46.1l.9.8,3.5-.9-.6,2.2,1.2-.3.3-1.2.8.7a13.3,13.3,0,0,0-.5,1.9,10.5,10.5,0,0,0-.5,1.9l-1.1.2a7.9,7.9,0,0,0,.4-1.2l-.9-.8-.6,2.2L45.3,49l-1.1.3,3,3-1.4.4L44.1,51l-1.2.3L44.6,53l-1.4.4v.5l.2.5,1.4-.4-.6,2.4,1.1-.4.7-2.3,1.3-.4-1,4.1,1.1-.3,1-3.5,1.6,1.6.3-1.2a7,7,0,0,1-.9-.9l1-.2,1.4,1.3,1.4,1.4-.3,1-.9-.9-1.2.3,1.6,1.7-3.4.9-.4,1.2,4.1-1.1L52.5,60l-2.4.7-.3,1.1,2.3-.6-.3,1.4.5.2h.5l.4-1.4,1.7,1.7.3-1.2-1.7-1.7.3-1.4,3,3,.3-1.2-2.5-2.5,2.2-.6-.9-.9-1.2.4L55,56l1.8-.5,1.9-.5.8.8-1.3.3-.3,1.2,2.2-.6-.9,3.5.9.8,1-4,1.1,1-.7,2.3.9.9.6-2.4.4.4,1.7,4.5c-.3.1-1.1.8-1.3.8l-1.3-.7.4,1.5-.5.4-.8.6h1.7l.5,1.3L57,71.5c1.3.3,6.1.9,7.6,1a6.8,6.8,0,0,1,.2,1.5l-1.5.6c.3.3,1.1.3,1.6.5s.2,1.2.3,1.6l.9-1.4,1.4.4c0,.6-.1,1.4-.1,2v5.2l-9,6.6L55.3,91l-2,.7a1.8,1.8,0,0,0,.1-1h-.7a1.3,1.3,0,0,1,.1.6c-.1.4,0,.2-.2.4h0c-.1-.1-.1-.4-.2-.6h-.3a.4.4,0,0,1,.1-.3c.5-.9,2.6-2.5,6.1-4.8a1.6,1.6,0,0,0,.7-.7,1.1,1.1,0,0,0,.3-.8,4.5,4.5,0,0,0-.1-1.1l-.4-.9-.5-1.1a.4.4,0,0,1-.1-.3l.2-.2a1.6,1.6,0,0,0,.2-1,1.2,1.2,0,0,0-.5-.7,1.6,1.6,0,0,0-1-.1,3.2,3.2,0,0,0-.9.8,2,2,0,0,0,0,1.1c-1.4,1.1-3.4,2.3-5.8,3.8a25.3,25.3,0,0,1-3.6,1.6q-1.6.6-2.1.3c-.2-.1-.2-.4,0-.7a6.7,6.7,0,0,1,1.7-1.8q1.2-1.1,5.7-4.2a.3.3,0,0,1,.1-.2c0-.1-.1-.1-.1-.2L50,78.6h-.4l-.4.3a2,2,0,0,0-1.1-2.5,4.3,4.3,0,0,0-2.8-.6,7.3,7.3,0,0,0-3,.7,17.8,17.8,0,0,0-2.7,1.7l-.2.2A19.7,19.7,0,0,1,36,79.9a4.1,4.1,0,0,1-2.5.3.6.6,0,0,1-.1-.8,6.3,6.3,0,0,1,1.4-1.2,26.8,26.8,0,0,1,3.6-2.7,5.7,5.7,0,0,0,1.3-1.4,2.1,2.1,0,0,0,.2-1.7,2,2,0,0,0-1-1.4l-.9-.5-1.1-.2a3.8,3.8,0,0,0-1.5.1l7.4-5.3v-.2a.1.1,0,0,0-.1-.1l-2.1-1.3c-.1-.1-.2,0-.4.1l-11.2,8A16.4,16.4,0,0,1,23,73.7a7.8,7.8,0,0,1-4.9-.9,4.3,4.3,0,0,1-1.8-3.2,8.9,8.9,0,0,1,1.5-5,16.8,16.8,0,0,1,5.1-5.2l.7.5a22.2,22.2,0,0,0,4.5,2,13,13,0,0,0,4.2.5,7.9,7.9,0,0,0,3.2-.6,4.5,4.5,0,0,0,2.1-1.7A3.2,3.2,0,0,0,38,58a2.9,2.9,0,0,0-.7-1.7A3.7,3.7,0,0,0,36,55.1,9.2,9.2,0,0,0,32.7,54l-.3-4.8L38,46.8l-5.9-1.2-.2-3.8A32.6,32.6,0,0,1,38.2,40l1.3-.3A38.2,38.2,0,0,1,46.3,39.1ZM61,97.6a3.3,3.3,0,0,0,.7,1.7c0,.3.4.8.5,1.1s-.2.2-.2.3l-.3-.4c-.4.2-.1.2-.5.4s.1-.7,0-1.4h-.3c-.4.3-.2.3-.5.6s.3-.4-.2-1l-.3.3h-.1a1.9,1.9,0,0,0-.8-.3c.1.2,0,.1.1.3s.1.2.2.3-.3-.1-.2.4h.2a1,1,0,0,1,.9.4h-.9v.4c.3.2,1,0,1.4-.1v.6h-.6l.3.3c-.6.1-1-.3-1.5-.5l-.4.4.7.5c-.8.2.1-.3-1.1-.2l.3.5-1.2.2H56.3l-.2-1.7a7,7,0,0,0-.9-2.4c-.3-.5-.5-.6-.6-1.1l.8-.6.4-.2.4-.3a1.3,1.3,0,0,1-.1-.6h0l1.2.6h1.3a9,9,0,0,0,2.2-.7l.7-.3A5,5,0,0,0,61,97.6ZM47.5,109.8c-.7.7-.3,2,1.1,1.8s.4,0,.6-.4-.1-.3.3-.5,0-.1.4-.1,1.2,1.5-.4,2a9,9,0,0,1-3.6.3l-1.5-.4-2.9-.9c-.7-.3-.7-.2-.8-1.2s.4.2.6.1.3-.3.4-.5l.5-.6a5.4,5.4,0,0,0,2.7.6c-.1-.6-.8-1.1.3-.9a2.7,2.7,0,0,0,1.6-.4l-2.5-1h0a14,14,0,0,0,2.8-1.4c1.2-1,.2-.9,2-.9a12.6,12.6,0,0,0,3.8-.6c1.5-.4.4-.3,1.6-.2s.8-.4,2.6-.6a10.1,10.1,0,0,1-2,1.4l-.9.3c-.3.3-.3,1.7,2.7-.3,0,.4-.2.4-.8.9v.8l.5-.4c.1.7-.2,1.5.6,2.4s3.4.6,3.6-.5-1.4-2.5-2-1.4.4.8.6,1.3-.3.1-.5.2a.8.8,0,0,1-.7-.7,1.5,1.5,0,0,1,.5-2,2.7,2.7,0,0,1,4.4,1.3c.2,1.4.3,1.2-.5,2.5a2.5,2.5,0,0,1-.4.7,8.3,8.3,0,0,1-2.6,1.9,18.3,18.3,0,0,1-7.7,1.5H50.3c.2-.2.7-.5.9-.9A2.4,2.4,0,0,0,47.5,109.8Zm.2,9.8a2.1,2.1,0,0,1-1.9-.2v-.8c.1,0,1.8.9,2-.3s-2.3-2.5-3.1-.7a2,2,0,0,0,.6,2.6l-3-.2a2.2,2.2,0,0,0,.5-.8c.8-2.2-1.1-5.2-2.6-6.4a2,2,0,0,1-.7-.6c1.5.1,5.8,2,7.2,2.6a4.9,4.9,0,0,1,2.1,3.3A1.6,1.6,0,0,1,47.7,119.6ZM40.7,97l.8-.2v.8c-.6-.2-1.9-.5-2-1.2s1.4-.2,1.6-.8.3-.7,1.2-1.1c-.4,1.1-.2,1.4-1.6,2Zm2.7,8.2a2.9,2.9,0,0,0,1.6,0c0,.9-1.2,1.5-1.9,1.7h-.4a1.6,1.6,0,0,1-.6-.8l1.4.2C44.1,106.2,43.5,106.2,43.4,105.2Zm7.8-9.8-.8-.7a1.4,1.4,0,0,1,.6-.9Zm.6-1.7c0-.1.1-.2.3-.4h1.1a7.9,7.9,0,0,0,2.3-.8h.1a2.6,2.6,0,0,0-.4,1.9,2.6,2.6,0,0,0,.6,1.3h-.1a2.2,2.2,0,0,0-1.1.1c-.9.1-.9-.4-2-.2s.1-1.1-.6-1.1,0,.6-.1.7v-.2C51.7,94.6,51.6,93.9,51.8,93.7Zm8.4,9.6c.1-.2.1-.4.2-.6s.1-.3.4-.4a.1.1,0,0,0,.1.1v.4h.3c0,.6-.7.4-.8.9s.6.1.9-.1v.4l-1.3.2c-2,.3-1,.2-1.7.5l.9-2.1h.5l-.4.9ZM39.9,83.6a.9.9,0,0,1-.3-.6,2.2,2.2,0,0,1,.3-1,9.2,9.2,0,0,1,2.2-2.3,9.3,9.3,0,0,1,3.1-1.9,2.6,2.6,0,0,1,2.4-.2c.4.2.5.5.4,1a3.7,3.7,0,0,1-.8,1.7l-2,1.5C42.5,83.5,40.7,84,39.9,83.6ZM35.2,56.7c.3.2.5.4.5.6a1.1,1.1,0,0,1-.1.8,3.9,3.9,0,0,1-1.7,1.3,7.1,7.1,0,0,1-2.6.7,12.7,12.7,0,0,1-3.3-.2,13.5,13.5,0,0,1-3.5-1.4,19.3,19.3,0,0,1,6.2-2.2C32.8,56,34.3,56.1,35.2,56.7Zm4.6-24h0c0,.1-.1.1-.1.2l-.8,1a42.9,42.9,0,0,0-6.2,1.4v-.2l.6-.9,9.4-7.4A23.9,23.9,0,0,1,39.8,32.7ZM21.7,8.3c-1.4-3.7.3-6.5,3.9-5A19.5,19.5,0,0,1,37,15.7,24.9,24.9,0,0,1,21.7,8.3ZM30,42.5,28.5,45l-2.3-.5,1.4-.8Zm-5.7,3.2,2.2,2.4-3.2,5.2,5.6-2.5,2.8,3.1a8.8,8.8,0,0,0-2.3,0,18.7,18.7,0,0,0-7.7,2.4,7.3,7.3,0,0,1-2.2-4.1,4.7,4.7,0,0,1,.6-3.4h0A32.5,32.5,0,0,1,24.3,45.7ZM7.8,66.9l.3-.9.3-.8A39.4,39.4,0,0,1,16.7,52a2.9,2.9,0,0,0,.2.9,13.2,13.2,0,0,0,3.2,4.4,16.4,16.4,0,0,0-5.6,5.5,11.3,11.3,0,0,0-1.9,6.9,6.2,6.2,0,0,0,3.1,5,8.7,8.7,0,0,0,6.1,1.1,8,8,0,0,0,2.1-.5l-.6.5h0v.2l2.1,1.2a.3.3,0,0,0,.4,0l6.4-4.6a12.2,12.2,0,0,1,3.1-1.2,2.5,2.5,0,0,1,1.8.1c.6.4-.3,1.5-2.5,3.2s-2,1.5-2.4,1.8a6.4,6.4,0,0,0-1,1.3,2.8,2.8,0,0,0-.5,1.8,1.8,1.8,0,0,0,1,1.4l1.1.5h1.5a6.9,6.9,0,0,0,2.4-.6l.8-.4a3.7,3.7,0,0,0-.6,2.4,1.9,1.9,0,0,0,1.2,1.8c1,.7,2.5.5,4.4-.4h-.1a2.6,2.6,0,0,0-.3,1.9,2.2,2.2,0,0,0,1,1.5,2.5,2.5,0,0,0,1.1.4h1.3a6.1,6.1,0,0,0,2.2-.7L51.1,86h.1c2.5-1.4,4.3-2.5,5.6-3.4.2.6.3,1,.1,1.3l-.5.5-4.5,3.1a10.1,10.1,0,0,0-1.8,2.1,2.6,2.6,0,0,0-.5,1.9l.3.7h-.1a1.4,1.4,0,0,0,.6.7,4.7,4.7,0,0,1-.7,1.2c-.4-.2-1-.9-1.3-.3s1.7,1.4,2.1,1.9.3.1.6.8.7.2,1.1,1,.9,1.8.6,2.6-2.7,1.6-3.9,1.8c-3.5.4-3.8.6-4-1-1.1.2-.3,1.6.2,1.9s-.2.2-.2.5,0,.4-.3.6h-.1c-.9.3-3.5-.6-3.7-1.9s.5.7,1.8.6a1.2,1.2,0,0,1-.2-.7l1.3-.2c-.1-.9-.2-.6-.9-.7l-1.1-.4c-.8-.3-1.4-.7-1.5-1.6l.6.2c.6.2.3.1.5,0h.1c.3-.4-.3-.7-.4-1h.7c0-.4.1-.2-.1-.5s.2,0,.7-.7l.4.5c.1-.2.3-.3.4-.4s-.6-.8-.6-1.2a8.4,8.4,0,0,1,.4-1.2c1.1,1.2.4,1.9.5,2.4l.5.2c.3-.2.1-.2.3-.4l.3.5.6-.3-.5-.8h.9v-.6l-1.2-.3a4.1,4.1,0,0,1-.7-1.1c1.8.1,1.4.6,1.8,1.3h.6l-.2-.7,1,.2.2-.4a1.1,1.1,0,0,0-.6-.2c.1-.3.2-.3.3-.5l-.3-.3c-.4.1-1,.5-1.4.4l-1.2-.3.7-.4a1.5,1.5,0,0,1,.7-.3c.4,0,1.1.5,1.2-.3h-.5l.8-.5c-.1-.3-.1-.4-.3-.5a.8.8,0,0,0-.6.2v-.5h-.5a1.1,1.1,0,0,0-.3.6c-.1.3,0,.2-.3.4l-1.2.6a3.1,3.1,0,0,1,.2-.8l.2-.7H45v-.7L44,91a2.4,2.4,0,0,0,.2-.9h-.6a1.4,1.4,0,0,1-.2.7l-.5-.3c-.2.1-.1.2-.3.4s.3.5.1,2.2h0c-.9-1.1-.8-1.1-.3-2.2l-.5-.3-.3.6-.2-.2c-.3-.5-.2-.7-.9-.3l.5,1h-.9a.7.7,0,0,0-.1.5c.3.1,1.1.1,1.3.3a4.4,4.4,0,0,1,.8,1.1,8.5,8.5,0,0,1-1.7-.4v-.8h-.5v.6a1.6,1.6,0,0,0-1-.2c-.1.1-.1.3-.2.4l.8.3h-.1l-.3.4.4.3c.6-.2.8-.6,1.2-.4l1.3.3c-.2.3-.2.2-.6.4s-.8.3-1.7,0-.2.1-.2.5H40c-.6.3-.8-.1-1.2-.6s-1.1-1.5-1.5-1.7l-1.5,2.2c-.4.4-.5.3-.5.7h.9c0,.4-.2.5-.4.8v.2h.8c.2.6-.9.9-1.5,1.2s.3.7,1.2.3-.4.4-.6.9.5.2.8.4-.7,1.1-1.4,1.3l-.2-.5c-.4-.8-1.7-.3-2.4-.4s-2-.7-2.1-1.6a1.7,1.7,0,0,0,1.3.3V97.1a1.5,1.5,0,0,0,1-.4v-.6a2.6,2.6,0,0,1-1.8-.2,1.5,1.5,0,0,1-.9-1.3c.4.2.8.4.8-.2s-.4,0-.7-.4,1.1,0,1.2-.6-.1-.5-.4-.5a4.8,4.8,0,0,1-2-.4v-.6l.8.3a1.7,1.7,0,0,0-.5-1.2h.8c0-.5,0-.5-.2-.7s-1.3-.5-1.6-.9l.6-.6c1-1.3,3.6-2.2,5.3-2.4a2.4,2.4,0,0,0-.2.8h1.1l.5.5c.1.1.2.3.4.3s.1-.7.2-1.1h1.2c-.1-.4-.5-.6-.8-.9a1.5,1.5,0,0,0,.4-.9l-1.2.2-.6-1a2.9,2.9,0,0,0-.3,1c-1.3.2-1-.2-1,.3v.2a12.1,12.1,0,0,1-1.9-.1l-2.2.2a12.5,12.5,0,0,0-3.7,1A13,13,0,0,0,21,91l-.8-.2h-.9c-1.9.2-2.8,1.6-2.7,3.5-1.7.2-2.5-.2-3.4,2.2-.7-.8-2-4.9-2.2-5.8A8.7,8.7,0,0,1,12.2,85a4,4,0,0,1,4.1-1.5l.6.3.4.2c1.1.8.7,3.5-1,3.8s-1-.1-1.1-.7c1.8.6,2.3-1.7.3-1.8a2.1,2.1,0,0,0-1.7.8,2.3,2.3,0,0,0,.8,2.6l.4.2a3.4,3.4,0,0,0,3.3-.9,3.6,3.6,0,0,0,.7-1.7v-.7c.1-.3,0-.1.1-.2h0v.2s.1.3.1.1h.6V85l.6-.4v.9h.6l-.2-1.3.7-.4c.1.6.1.5.6.7s-.1-.4-.1-.4-.1-.2.1-.3.1,0,.1.2,0,.7-.2,1l-.3.5c0,.1.1.5.3.5s.5-.5.8-.8-.4.8-.4,1.7.6-.1.8-.4l.3.6c.2-.1.2-.4.2-.8h.8c-.1-.6-.3-.5-1-.6V85c.6.2.4.3,1.3.2s-.1-.5-.3-.6l-1.3-.4v-.4h.5l.2-.4c-.2-.3-.2-.1-.5-.4H24a6,6,0,0,1,.9,1.3c.5-.1.3-.2.7-.3a2.3,2.3,0,0,0-.7-1h.6l.7.8h.5c-.1-.4-.3-.4-.3-.8h.8v-.6h-.7c0-.2.1-.2.1-.5s-.6.5-1.6.6l.6-1c-.4-.2-.7-.3-1,.2l-.5.8h-.7c.1-.3.3-.2.3-.3h0v-.6l-.6.3a1.7,1.7,0,0,1,.1-.7c1.7-.2,1.1.2,1.6-.9l-1.2.2c0-.3.1-.3.1-.6h.8c0-.3.1-.3.1-.6h-.5c0-.2.1-.3.1-.6l-.6-.2-.2.3a.5.5,0,0,1-.2.4l-.5-.3-.4.4.6.6-.2.5a4.6,4.6,0,0,0-.7-.7l-.4.2a1.9,1.9,0,0,0,.5.9c.3.5.2.4.1.9s-.1-.4-.6-.3h0v.2c-.1.4.2.1-.2.3a10.1,10.1,0,0,1-.3-1.7h-.7V81h-.4l-.2-1.1h-.5v.4H19c-.4-.2-.6-.3-1,.1l.7.5c-.4.1-.6.1-.1.7s.8-.1,1.1.1l-.6.2v.7a6.7,6.7,0,0,1,2-.1h-.3l-.2.2c.1.2.3.2.5.3s-.9.1-1.9,0-.2.2-.2.5l.7.4c-1.1.8-1.1-.9-2.5-1.5l-.8-.3h-.8l-2.1.3c.1-1.6.4-3.4-.6-5a4.3,4.3,0,0,0-2.3-1.9l-.5-.2H9.7l-2.2.3h0l-.5.2a5,5,0,0,0-1.2.8,54,54,0,0,1,1.5-8.2Zm25.5,42.7-2.5.3-.2-1.3,1,.2,1.2-1.7,1.3.6c.5-.4.4-.7.5-1s.1-.2.5-.3h.7a6.1,6.1,0,0,1-1.4,1.7c-.8.2-1.6-.4-2.2.9S33,109.3,33.3,109.6Zm1.3-6a1.2,1.2,0,0,1-1.9-1c.7.1.9.3,1.6-.2l-.5-.5c-.3-.3-.3-.3-.4-.8h.7l.2.4h.8c-.2.4.2.9.4,1.2l.7-.5C36.1,103,35.7,103.2,34.6,103.6Zm-8.3,10.1-.5.9-.5-.2a5.2,5.2,0,0,1,1.5-1.5Zm-12.5-9.8-1.2-1.7a8.3,8.3,0,0,1-.8-1.2l-.3-.5-.6-1.1h.6l1,.2a8.6,8.6,0,0,1,3.7,2.6l2.4,2.6-.9-.2A12.8,12.8,0,0,0,13.8,103.9ZM7.3,78.7c-.7,1,.8,1.4.9,1.5H8.1a1,1,0,0,1-.9.2C6.1,80,6,78.1,7,77.2s2.8-.7,4.1.3a3.7,3.7,0,0,1,.9,1.6c.5,1.7-.4,4.1-1.2,5.4a6,6,0,0,0-.8,1.6c-.7,2.5.2,6,1,8.5A22.8,22.8,0,0,0,12.6,98H10.2A40.3,40.3,0,0,1,5.8,80.9a2.5,2.5,0,0,0,1.6.8,2.3,2.3,0,0,0,2-1C10.6,78.6,8,77.5,7.3,78.7Zm7.6,19.7c-.9-2.3.4-3.4,1.5-2.7s-.5.8-.4,1.4,1.4,1.2,2.2.4.2-.2.8-.3l.4,3.2h.8l.2.3H21v.3h.7c-.1-.9,0,.2.5-.8H23V101c1.6-.2,1.2-.8,2.1-1.2.1,1.3-2.8,3-3.6,3.5s-.4,1.7,1.5.5c.1.6-.2.7,0,1.5l1.1-.4.6-.4h.2v.2a3.5,3.5,0,0,1-.8,1.3,4,4,0,0,1-1.5,1c-1.5-1.7-1.8-1.9-3.3-3.4S15.4,100,14.9,98.4ZM29,86.5h-.1c-1.7.8-2.2.5-4.1,2.7a6.6,6.6,0,0,0-.9,1.9c.6-.2,1-1.3,1.5-1.5.2,1.6-1.8,2.7-2,3a.8.8,0,0,1,.2.5h1.5c.1.8-1.1,1.1-1.4,1.4l-.4.4c-.5.4-.5.2-.5.6s-.2.3,1,.1a5.3,5.3,0,0,1-.3,1.1c1,.5.8-.2,1.4-.4s.3.5,0,.8a9.6,9.6,0,0,1-2.2,1.8l-.2-2h.6A4.6,4.6,0,0,0,22,95.2c-.3,0-.7.2-1,0s.4,0,.9-.6a1.9,1.9,0,0,0,.1-2.2l-.3-.5c-.1-.2-.2-.1-.3-.4a8.5,8.5,0,0,1,1.1-1.4,10.2,10.2,0,0,1,6.6-3.7Zm1.4.2-.9.4A8.3,8.3,0,0,0,28,88.2l-.5.6-.5-.6A8.1,8.1,0,0,1,30.4,86.7ZM21.9,98.2l.2,1.3h-.7l-.2-1.3Zm-.8-.4v-.7h1v.7Zm-.2-3.4c-.3,0-.1,0-.2-.1s-.7,1-1.3.1l.3-.2c.3-.1.4.1.3-.7s-.8-.4-1.2,0a1.1,1.1,0,0,0,.2,1.6c.2.1,2.1.2.1.5l-.5.9a1.8,1.8,0,0,0-.4-1.1,1.3,1.3,0,0,0-.6-.4,3.4,3.4,0,0,1,.2-2.3,1.9,1.9,0,0,1,1.8-1.1C20.8,91.5,22.3,93.5,20.9,94.4Zm-.2,3.9.2,1.4h-.7L20,98.4Zm-1-.3v-.7h.9v.7Zm5.7,14.3-.7.7a9.2,9.2,0,0,0-.5-2.9,6.9,6.9,0,0,1-.3-.8,8.2,8.2,0,0,0,1.7-1.1c.2.1.6.8.8,1l1.3-.5c.1.5,0,.6.1,1a4.4,4.4,0,0,0,.2,1C27,111.4,26.8,111.3,25.4,112.3ZM18,108.7l-.2-.2-.5-.5-2.2-2.4-.4-.5,1.2.2a13,13,0,0,1,3.7,1.9,6.8,6.8,0,0,1,2.5,3.3,6.3,6.3,0,0,1,.3,1.9l-2.5-2A15.4,15.4,0,0,1,18,108.7Zm16,9.6h-.5l-2.6-1-3.6-1.7-.5-.3a13.6,13.6,0,0,1,1.2-1.7,7.7,7.7,0,0,1,6-2,6.6,6.6,0,0,1,2.5.7c2.2,1,4.7,2.8,5,5.4a3,3,0,0,1-.6,2.3l-1.6-.3-1.3-.2h.6c.8-.3,1-.7,1.1-1.6.1-2.4-3.3-3-4.4-.8a4.7,4.7,0,0,0-.3,1.7l-1-.3Zm2.5-1.3c.6-.1,1.3-.3,1.6.1s-1.4.2-1.2,1.4a.9.9,0,0,0,.6.7l-1.5-.3A3.4,3.4,0,0,1,36.5,117Zm24.5.5-2.7.9-1.2.4a48.6,48.6,0,0,1-5.5,1.1l-2.6.2a2.4,2.4,0,0,0,.8-2.4,2.9,2.9,0,0,0-.3-1.4c-.1-.4-.4-.9-.5-1.3h3.2a26.1,26.1,0,0,0,6.9-1c2.3-.7,2.4-1.6,5.1-2.5s4.2-.8,5.4,1.2h0l-1.5,1a.1.1,0,0,0-.1.1l-.5-.6a1.8,1.8,0,0,0-2.9,1.4,2,2,0,0,0,0,1.1l-.4.2Zm4.9-2.4h0Zm7.8-5.6a33.6,33.6,0,0,1-2.9,2.4l-.3-.4a4.6,4.6,0,0,0-3.9-1.7l-2.2.3c.1-1.5.7-2,0-3.8a4.5,4.5,0,0,0-2.3-2.2v-.7a1.6,1.6,0,0,0,1.2.3c-.3-.5-1-.5-1.2-1.2h.6v-.5h.6v.8l.5-.2h0v-.4c.7.4-.1.7.6.7s.1-.3.2-.4h.8c-.1-.3-.5-.5-.7-.7s.4-.8-.2-.4-.3.2-.7.2l.5-.8c-1,.1-.9.5-1.2.5h-.4c.1-.3.2-.2.2-.5h-.2c-.1-.1-.1-.1-.1,0h-.1c.2-.2.6-.2.9-.3l.4.2,1.4.4a6.7,6.7,0,0,0,2,0,8,8,0,0,0,2.3-.5,1.4,1.4,0,0,0-.2.7,5,5,0,0,0,.1,2.1,3.3,3.3,0,0,0,1.4,1.7,5.1,5.1,0,0,0,1.5.7,6.8,6.8,0,0,0,3.5.3l1.7-.6-2.1,2.4Zm-2.9-8.1a3,3,0,0,1,.8-1.6l4.6-2.4a6.7,6.7,0,0,0-.6,1.2l-.7,1.3-.6,1.1a8.6,8.6,0,0,1-.7,1l-.6.6a1.3,1.3,0,0,1-.8.3.7.7,0,0,1-.7-.2A1.4,1.4,0,0,1,70.8,101.4Zm16-20h0a34.3,34.3,0,0,1-.7,5.6,39.5,39.5,0,0,1-6.9,16.3,15.6,15.6,0,0,1-3.8,1.3,9.9,9.9,0,0,0,1.3-2,25.3,25.3,0,0,0,1.2-2.3,8.2,8.2,0,0,1,1.2-2,3.6,3.6,0,0,1,1.5-1.1,1.1,1.1,0,0,0,.1-1,1.8,1.8,0,0,0-.8-1.1,2.3,2.3,0,0,0-2.4.1l-6.4,3.4-.6.2-.9.3a8.1,8.1,0,0,1-2.5.4l-1.7-.3-1.1-.5a1,1,0,0,1-.6-1.1,2.3,2.3,0,0,1,.5-1.5,3.6,3.6,0,0,1,.7-1,7.7,7.7,0,0,0,2.8,1,7.9,7.9,0,0,0,3.4-.2,3.5,3.5,0,0,0,2.5-1.7,1.7,1.7,0,0,0,.2-1.8,2.7,2.7,0,0,0-1.5-1.5,5.4,5.4,0,0,0-3.6-.7,9.2,9.2,0,0,0-3.9,1.4,10.5,10.5,0,0,0-1.9,1.5,18.7,18.7,0,0,1-3,1.4,2.8,2.8,0,0,1-2,.1c-.2-.2-.3-.4,0-.8a9.5,9.5,0,0,1,2.5-2.4c1.3-1,5.2-3.9,11.8-8.6h.1a.3.3,0,0,0-.1-.2l-2.1-1.3h-.4l-.7.4.3-.3.6-.8L71.1,79a16.7,16.7,0,0,0,1.2-1.6l1.5.5-.2,1.8.6-.6c.7-.9.7-.6,1.2-.5l.8.3c-.1-.5-.6-.8-.6-1.3l1.1-1,1.7,1L80.9,79l.8.5,1.6.9c-.5-1.2-.9-2.4-1.4-3.7l-.8-1.8a13.4,13.4,0,0,1-.7-1.8,3.6,3.6,0,0,1,1-.7c.3.1.9.7,1.4.9l-.3-1.5.7-.5.4-.3.4-.2-1.8-.2V69.1l2.5-1.5h.3a20.2,20.2,0,0,1,.9,3.3,13.6,13.6,0,0,1,.4,1.7h0a39.1,39.1,0,0,1,.5,4.8,19.3,19.3,0,0,1,.1,2.4Zm-21,12.8a11.7,11.7,0,0,1,3.4-2c1.2-.4,2.1-.5,2.7-.1l.2.2c0,.5-.4.9-1.3,1.4A6.1,6.1,0,0,1,65.8,94.2Z"/></g></g></svg>