<svg xmlns="http://www.w3.org/2000/svg" viewBox="0 0 92.8 126.2"><defs><style>.a{fill:none;stroke:#000001;stroke-miterlimit:10;stroke-width:0.28px;fill-rule:evenodd;opacity:0.98;}</style></defs><title>Colin</title><path class="a" d="M72.5,41.6l.8-.3h0a19.9,19.9,0,0,0,6.5-4.5c4.3-5.2-.8-10.8-.7-16.2s2.4-9.5.4-14.1S75.4,2.1,72,1.9A14.6,14.6,0,0,0,64.1,4c-2,1.4-12.3,11.7-12.4,11.7a3.4,3.4,0,0,0-1-1.6,3,3,0,0,0-1.6-.5h-3a3.1,3.1,0,0,0-1.3.3c-.6.4-1.1,1-1.1,1.3-3.3-4.4-7.2-9.1-11.5-12.4A14.5,14.5,0,0,0,24.5.1c-3.3,0-6.3,1.1-7.7,4.1s-.3,9.5-.7,14-5.8,10.7-1.9,16.1a17.2,17.2,0,0,0,7.7,5.9h.4A46.2,46.2,0,0,0,8.6,106.5l1.2,1.7A46.3,46.3,0,1,0,72.5,41.6ZM70.6,5.1c3.7-1.2,5.2,1.7,3.5,5.3a25.6,25.6,0,0,1-15.8,6.2A19.3,19.3,0,0,1,70.6,5.1ZM61.1,35.3V36a42.1,42.1,0,0,0-6.1-1.6,10,10,0,0,0-.8-1.4v-.2a20.9,20.9,0,0,1-2.1-5.6Zm-15-17.9a2.3,2.3,0,0,1,1.6-.6,2.6,2.6,0,0,1,1.5.7,2.5,2.5,0,0,1,.6,1.6,2.4,2.4,0,0,1-.7,1.6,1.8,1.8,0,0,1-1.6.5,1.8,1.8,0,0,1-1.5-.7,2.2,2.2,0,0,1-.6-1.5A2.4,2.4,0,0,1,46.1,17.4ZM32.8,35.6v-.3l.6-.9L42.7,27A24.3,24.3,0,0,1,40,32.9a.1.1,0,0,0-.1.1h-.1l-.7,1A64.2,64.2,0,0,0,32.8,35.6ZM34,41.9A1.2,1.2,0,0,1,35.3,43a3.5,3.5,0,0,1-.4,2.4,9.1,9.1,0,0,1-1.7,2.3,10.9,10.9,0,0,1-3,1.8,10.6,10.6,0,0,1-4,.8,19.7,19.7,0,0,1,3.7-6C31.4,42.7,32.8,41.9,34,41.9ZM21.8,8.5c-1.4-3.7.3-6.5,4-5.1A20.3,20.3,0,0,1,37.2,15.8,25.6,25.6,0,0,1,21.8,8.5Zm6.4,35.1c-.1.1-.2.3-.4.4a22.2,22.2,0,0,0-4.3,7.6,8.7,8.7,0,0,1-3.8-2.3A43.6,43.6,0,0,1,28.2,43.6Zm-13,62.1-2.5-3.3a1.9,1.9,0,0,1,1-.3,2.2,2.2,0,0,1,2.2,2.1A2.1,2.1,0,0,1,15.2,105.7Zm3.3-15.6a2.1,2.1,0,0,1,2.1,2.1,2.2,2.2,0,0,1-4.3,0A2.1,2.1,0,0,1,18.5,90.1Zm-.7-6.9a1.1,1.1,0,1,1,0-2.2,1.1,1.1,0,1,1,0,2.2Zm-.9,15.7A1.1,1.1,0,0,1,18,97.7a1.2,1.2,0,0,1,1.2,1.2A1.1,1.1,0,0,1,18,100,1.1,1.1,0,0,1,16.9,98.9Zm10.5,16.7v-6.8H18.1l-.7-.6H33.6c.5,5.2,4.8,9.6,9.6,12A38.6,38.6,0,0,1,27.4,115.6ZM22.8,81.9A2.2,2.2,0,0,1,24.9,84a2.1,2.1,0,0,1-2.1,2.1A2.1,2.1,0,0,1,20.6,84,2.2,2.2,0,0,1,22.8,81.9Zm-1.4-5.3a1.1,1.1,0,0,1,1.2-1.1,1.1,1.1,0,1,1,0,2.2A1.1,1.1,0,0,1,21.4,76.6ZM26.6,88a1.1,1.1,0,1,1,0,2.2,1.1,1.1,0,1,1,0-2.2Zm-.5-6.7a1.1,1.1,0,0,1,1.1-1.1,1.1,1.1,0,1,1,0,2.2A1.1,1.1,0,0,1,26.1,81.3Zm.7,11.6A2.1,2.1,0,0,1,28.9,95a2.1,2.1,0,0,1-2.1,2.1A2.2,2.2,0,0,1,24.6,95,2.1,2.1,0,0,1,26.8,92.9Zm3.5,8.9a2.1,2.1,0,0,1,2.1,2.1,2.1,2.1,0,0,1-2.1,2.1,2.1,2.1,0,0,1-2.2-2.1A2.2,2.2,0,0,1,30.3,101.8Zm-2.7-2.2a1.1,1.1,0,0,1-1.1,1.1,1.1,1.1,0,0,1-1.2-1.1,1.2,1.2,0,0,1,1.2-1.2A1.1,1.1,0,0,1,27.6,99.6ZM24,105.2a1.1,1.1,0,0,1-1.1,1.2,1.2,1.2,0,0,1-1.2-1.2,1.1,1.1,0,0,1,1.2-1.1A1.1,1.1,0,0,1,24,105.2ZM42.7,85.6A12.3,12.3,0,0,0,41,87.8a14.8,14.8,0,0,1-1.7-1.2s-.3-.2,2.1-3.7l-3-.7c-.7,3.4-1,3.2-1,3.2-2.1-1.3-4.4-2.5-4.9-1.4s-.4,1.2,2,2.7l2.6,1.2c-3.5,1.7-2.3,2.9-2.3,2.9s3.4-2.4,3.7-2.3l1.9.8a17.4,17.4,0,0,1-.6,2.2c0,2.5.2,4.7.2,4.7a17.5,17.5,0,0,0-5.4,6.6l-4.2-7c-.3-.5-.1-.8.4-.8h2.5a.5.5,0,0,0,.4-.8l-5.2-8.9c-.3-.4-.1-.7.4-.7h1.9c.6,0,.8-.4.5-.8L23.2,70.1a.6.6,0,0,0-1,0L14.1,83.8a.5.5,0,0,0,.5.8h1.9c.5,0,.7.3.5.7l-5.3,8.9c-.3.4-.1.8.5.8h2.4c.5,0,.7.3.4.8l-3.1,5.3a40.7,40.7,0,0,1,5.8-49.9A13,13,0,0,0,23,53.6a22.9,22.9,0,0,0-.7,9.3,18.9,18.9,0,0,0,3.1,8.5,7,7,0,0,0,5.7,3.1,7,7,0,0,0,5.4-2.9,20.6,20.6,0,0,0,3.4-6.5,4.8,4.8,0,0,0,1.2,2.1,3.4,3.4,0,0,0,3.1,1.2h.5a5.8,5.8,0,0,0,.6,2.4c1.6,3.7,1.6,3.7,1.6,4.2-4.9-1-5,.8-5,.8,0,1.8,3.7,1.1,3.6,1.7a9.1,9.1,0,0,0-3.8,4.9C44.3,85.2,44.3,85.2,42.7,85.6Zm9.3-1a4.1,4.1,0,0,0,2.2-.5c.6-1.1.6-1.1,1.1-1.4l.7.3a3.9,3.9,0,0,1-4.1,2.7h0l-2-.2a6.1,6.1,0,0,1-1.8-2.9,1.1,1.1,0,0,1,1.2,0A2.9,2.9,0,0,0,52,84.6Zm0-18.8a1,1,0,0,1,.6-.9,4.4,4.4,0,0,0,1,1.9H52.4A1.3,1.3,0,0,1,52,65.8Zm2,13.6a1.1,1.1,0,0,1,1.2-1,1.1,1.1,0,0,1,1,1.2,1.5,1.5,0,0,1-.5,1H54.4A1.9,1.9,0,0,1,54,79.4Zm-5.4-.3c0-.6.5-1,1.2-1a1,1,0,0,1,1,1.1,1.4,1.4,0,0,1-.5,1H49A1.3,1.3,0,0,1,48.6,79.1Zm-.9-12.4.9-1.2a2.5,2.5,0,0,0,1.2.2,2,2,0,0,0,1.1-.2l.4-.2a1.9,1.9,0,0,0,.6,1.7Zm-.1-5.3a1.5,1.5,0,0,0-1,.8,2.2,2.2,0,0,0-.3,1.6c.1.3.1.5.3.7S45,67,44.1,67a1.2,1.2,0,0,1-.9-.6,4.8,4.8,0,0,1-.6-1.8,13.3,13.3,0,0,1,.2-4.4,10.6,10.6,0,0,1,1.6-3.7c.6-1,1.2-1.4,1.8-1.4s1.3.7,1.5,2.2A11.4,11.4,0,0,1,47.6,61.4Zm10,39.6v.2H57l-.3.2h.2l.3.2h.3v.7h-.2l-.4.4h-.6l-1.1-.5h-1l-.3.2-.6.3H53l-.3.2h-.1l.2.2h.6l.3.3h1.4l.6-.2h.9l.2.2.2.2v.6h-.8l.3.2.4.3h.4v.6H57l-.5.2h-.3l-.4-.3-.4-.2H55v1h0l-.4.3h-1v-2.1H53l-.4-.3-.4-.2h-.3l-.2-.2h-.2v2.6h.1l.2.2.2.2.5.4.2.2h.2l.2.2h.1v.5h-.2l-.2.2h-.5l-.2-.2-.2-.2-.3-.2h-.2v1H49.8v-1h-.2l-.2.2-.3.2h-1v-.7h.4l.2-.2h.2l.5-.4h.2l.2-.2h.2v-2.7h-.8l-.4.2-.4.2h-.6v1l-.2.6v.4h-.9l-.5-.4h.1V107h-.4l-.4.2-.4.2h-.4l-.5-.3h0v-.9h.5l.4-.2.4-.2H45l-.2-.2h-.2v-.7l.2-.2.2-.2h.9l.6.3h1.4l.3-.2.6-.2.2-.2h.2l-.3-.2h-.2l-.2-.2H48l-.3-.2-.3-.2H46.2l-.5.2h-1l-.2-.2v-.8h1l-.3-.2-.3-.2h-.4v-.7h.2l.5-.3h.3l.6.4.2.2h.1v-1h0l.5-.3h.9v2.1h.3l.2.2h.3l.6.4.3.2.2.2h.5v-2.1h-.5l-.8-.8-.2-.2h-.3v-.6h1.1l.2.2.2.2.2.2h.1V96.8h1l.4.3h0v.2h0v1.3h.2l.3-.2.2-.2h1v.7h-.3l-.2.2h-.3l-.5.4h-.2l-.2.2h-.2v.2h0v1.9h.5l.3-.2.6-.3.3-.2h.7V99.3h1.2l.2.2h0v.9H56l.6-.3h.6l.2.2h.2v.5ZM86.9,79.8a40.5,40.5,0,0,1-12.5,29.3c-12.3-11.6-12.3-11.6-12.1-13a20,20,0,0,0,.4-2.6,19,19,0,0,1,3.4-1.8s.3-.1,4.4,2.8l1.2-3.2c-3.9-.4-3.6-.5-3.6-.5,1.9-1.1,3.4-2.1,2.7-2.8s-.9-.9-3.2.1l-2.2,1.1c-.4-3.4-1.9-2.9-1.9-2.9-1.6.4,1,3.5.8,3.6l-1.8,1a11.1,11.1,0,0,0-.3-1.8,14.7,14.7,0,0,0-2.7-3c2.4-2.9,2.3-5.4,0-7.8,0,0,0-.5,3.3.6V75.2c-4.7.5-4.7-.1-4.7-.1,1.8-3.4,3-5.4,2.5-6.5s-.5-1.3-3-1.3h-.5c.3-.1.5-.4.8-.7a6.9,6.9,0,0,0,1.3-2h0a3.1,3.1,0,0,0,1.1,2.1,2.1,2.1,0,0,0,1.9.8,2.7,2.7,0,0,0,1.3-.2,3.3,3.3,0,0,0,1.1-.8l.3-.3-.2,1v.2h2.9l.3-.2,2.1-8.6a8.5,8.5,0,0,1,1.7-3,2.7,2.7,0,0,1,1.6-1.1c.8.1.8,1.7.2,4.7s-.6,2.7-.7,3.3a6.1,6.1,0,0,0,.1,1.9,4,4,0,0,0,.8,2,.7.7,0,0,0-1,0,1,1,0,0,0-.2.9l.2.2a.8.8,0,0,0,.8.2h0L75.9,70l-3.3-.3-.4.2h0a.4.4,0,0,0,.1.5l2.6,2.1H71.6a.7.7,0,0,0-.7-.4.8.8,0,0,0-.8.7.8.8,0,0,0,.8.8.8.8,0,0,0,.7-.4h3.3l-2.6,2.1c-.1.1-.2.3-.1.4h0c.1.2.2.3.4.3l3.3-.4L73.6,78h0a.8.8,0,0,0-.8.1.9.9,0,0,0,0,1.2.8.8,0,0,0,1.1,0,.9.9,0,0,0,.2-.8l2.3-2.4-.3,3.4c0,.1.1.3.2.3h0c.2.1.4.1.5-.1l2.1-2.5v3.2c-.3.2-.5.4-.5.7a.8.8,0,0,0,.8.8.7.7,0,0,0,.8-.8,1,1,0,0,0-.4-.7V77.2l2.1,2.5a.2.2,0,0,0,.4.1h0a.3.3,0,0,0,.3-.3L82,76.1l2.3,2.4h0a1.3,1.3,0,0,0,.2.8.8.8,0,0,0,1.1,0,.9.9,0,0,0,0-1.2.6.6,0,0,0-.7-.1h-.1l-2.3-2.4,3.3.4c.2,0,.4-.1.4-.3h0a.2.2,0,0,0-.1-.4l-2.6-2.1h2.9A48.9,48.9,0,0,1,86.9,79.8Zm-8-10.1V72l-1.7-1.7-.3-3Zm-1.4-2.9.9-.7.5-.4v2.8Zm-.3,8.5,1.7-1.6V76l-2,2.4Zm-.5-.5-3,.3,2.4-1.9h2.2Zm1.6-2.3H76.1l-2.4-2,3,.4Zm-4.2-5.7-.2-.3a2.4,2.4,0,0,0,1.8.7h.5l.2,2.4-2.3-2.3h0Zm6,5.7,1.6-1.6,3.1-.4-2.4,2Zm4.7,2.6-3.1-.3-1.6-1.6h2.3Zm-3.6-4.8L79.6,72V69.7l1.9-2.4Zm0,5,.3,3.1L79.6,76V73.7Zm5.1-2.8H83.5l2.4-1.9A16.2,16.2,0,0,0,86.3,72.5Zm-1.4-4.8h.2l.6,2-3.2.3,2.3-2.3Zm-.4-1.3a1.1,1.1,0,0,0-.2.8L82,69.5l.4-3.3c0-.2-.1-.3-.3-.4H82c-.1,0-.3,0-.3.1h-.1l-2,2.5V65.2a.8.8,0,0,0,.4-.7h-.2c0-.1.1-.2.2-.4a24.1,24.1,0,0,0,1.6-3.8c.1-.1,0-.1,0-.2l-.9-.9c0-.1-.1,0-.1.1a17.4,17.4,0,0,1-2.1,4.1c-.8,1.2-1.4,1.8-1.9,1.8s-.5-.2-.6-.6a5.7,5.7,0,0,1,.2-2.1c.2-.9.6-2.5,1.1-4.8a5.5,5.5,0,0,0,.1-2.2,3.2,3.2,0,0,0-1-1.8,2.7,2.7,0,0,0-2-.7h-1a1.9,1.9,0,0,0-1.1.4,5.3,5.3,0,0,0-1.2,1l.2-1a.1.1,0,0,0,0-.2c0-.1-.1-.1-.2-.1H68.4q-.2,0-.3.3l-1.5,6.1h0a26.1,26.1,0,0,1-2.1,4.4c-.7,1-1.2,1.6-1.6,1.6s-.5-.2-.6-.7a10.9,10.9,0,0,1,.2-2.9c.2-1.3.8-4.1,1.9-8.3,0-.1,0-.2-.1-.2s-.1-.1-.2-.1h0l.3-.4a3,3,0,0,0,.5-1.6,1.7,1.7,0,0,0-.5-1.3,1.4,1.4,0,0,0-1.2-.3,2,2,0,0,0-1.2.8,2.4,2.4,0,0,0-.5,1.6,1.6,1.6,0,0,0,.4,1.2h-.5q-.1,0-.3.3l-1.4,6.1a22.4,22.4,0,0,1-2,4.3c-.5.9-1.1,1.4-1.6,1.4s-.5-.2-.6-.7a12.9,12.9,0,0,1,.4-4c.3-1.8,1.6-7,3.7-15.7v-.2H56.7a.3.3,0,0,0-.3.3q-3.1,12.6-3.6,15.3a.1.1,0,0,1-.1.1c-1,2.5-2.1,3.7-3.3,3.5a11,11,0,0,0,.9-6.1,5.6,5.6,0,0,0-1.5-3.3,4.1,4.1,0,0,0-3.2-1.3,5.6,5.6,0,0,0-3.5,1.6,9.4,9.4,0,0,0-2.3,3.9,11.1,11.1,0,0,0-.4,3.6h-.1A17.1,17.1,0,0,1,36,68.6a6,6,0,0,1-4.3,2.3,4.2,4.2,0,0,1-3.5-2.1,11.8,11.8,0,0,1-2.1-6.1,23.3,23.3,0,0,1,.4-8.7h.9a17.1,17.1,0,0,0,4.7-.9,10.5,10.5,0,0,0,3.6-2.2,7.6,7.6,0,0,0,2-2.8,5.7,5.7,0,0,0,.5-3.1,5,5,0,0,0-2.7-3.8l-.8-.2A40.6,40.6,0,0,1,84.6,66.4Z"/></svg>