<svg xmlns="http://www.w3.org/2000/svg" viewBox="0 0 92.8 126.2"><defs><style>.a{fill:none;stroke:#000001;stroke-miterlimit:10;stroke-width:0.28px;fill-rule:evenodd;opacity:0.98;}</style></defs><title>Hunter</title><path class="a" d="M92.6,78.5A46.3,46.3,0,0,0,72.5,41.6l.8-.3h0a19.9,19.9,0,0,0,6.5-4.5c4.3-5.2-.8-10.8-.7-16.2s2.4-9.5.4-14.1S75.4,2.1,72,1.9A14.6,14.6,0,0,0,64.1,4c-2,1.4-12.3,11.7-12.4,11.7a3.4,3.4,0,0,0-1-1.6,3,3,0,0,0-1.6-.5h-3a3.1,3.1,0,0,0-1.3.3c-.6.4-1.1,1-1.1,1.3-3.3-4.4-7.2-9.1-11.5-12.4A14.5,14.5,0,0,0,24.5.1c-3.3,0-6.3,1.1-7.7,4.1s-.3,9.5-.7,14-5.8,10.7-1.9,16.1a17.2,17.2,0,0,0,7.7,5.9h.4A46.2,46.2,0,0,0,8.6,106.5l1.2,1.7a46.6,46.6,0,0,0,14.5,12.3l2.3,1.1a45.3,45.3,0,0,0,19.8,4.5A47.3,47.3,0,0,0,59,124.4l2-.7a39.6,39.6,0,0,0,7.9-3.5l1.7-.9A46.5,46.5,0,0,0,92.7,79.8V79A1.1,1.1,0,0,0,92.6,78.5ZM84.4,65.7q-.2,1-.3,1.8a17,17,0,0,1-.7,2.3c-.2.4-.4.7-.5.7s-.5,0-.7-.4-.6-3.7-.4-8.1a3.6,3.6,0,0,0-.2-1.1,1.8,1.8,0,0,0-.5-.7l-1-.6-1-.3-1.2-.2h-.4v-.3a1.9,1.9,0,0,0-.7-.8,1,1,0,0,0-.9,0,1.6,1.6,0,0,0-.7.7,2.1,2.1,0,0,0,.2,1.3c.1.3.4.5.9.7,0,1.9-.1,4.5-.4,7.6a14.4,14.4,0,0,1-.5,2.4,12,12,0,0,1-1.2,2.3l-1.3,1.3a2.7,2.7,0,0,1-1,.6,1.4,1.4,0,0,1-1.4-.1,3.9,3.9,0,0,1-1-1.4,5.6,5.6,0,0,1-.4-1.2,8.3,8.3,0,0,0,2.5-1.8,7,7,0,0,0,1.9-2.9,4,4,0,0,0,.1-3.2,2.4,2.4,0,0,0-1.4-1.4,4.4,4.4,0,0,0-2.2.3,5.9,5.9,0,0,0-2.8,2.6A8.9,8.9,0,0,0,66.1,70a6.9,6.9,0,0,0,.2,2.5c-.3,1.3-.5,2.4-.8,3.3s-.9,1.7-1.4,1.9-.5,0-.7-.4a7.2,7.2,0,0,1-.5-2.4c-.1-1-.1-3.4-.2-7.1l1.6-.6c.2-.1.2-.2.2-.3V65.5h-.1c0-.1-.1-.1-.2-.1l-1.5.7V64.4l.5.2.7-.7-.3-1.3,2.4.7-.5-2-2.4-.7-.3-1.2,2.4.7-.5-1.9-2.5-.7-.6-2.7,1.1.3a1.1,1.1,0,0,0,.3,1.1,1,1,0,0,0,1.6,0,1.2,1.2,0,0,0,.1-1.7,1.3,1.3,0,0,0-1.2-.3l-.2-1.1,2.6.7.7,2.6,1.9.5-.6-2.5,1.2.3.6,2.6,2,.5L71,55.3l1.3.3.7-.7-.2-1-1.3-.3,1.9-1.8-2-.6-1.8,1.9-1.3-.4,1.9-1.8-1.9-.5-1.9,1.8-2.7-.8.8-.8a1.3,1.3,0,0,0,1.2.3,1.1,1.1,0,0,0,.8-1.4,1.1,1.1,0,0,0-1.4-.9,1.4,1.4,0,0,0-.9.8l-1.1-.3,2-1.9,2.5.7,1.3-1.3h.2l-.6-.2-2-.5.5-.5.2-.2,1.5.9.4.3A40.8,40.8,0,0,1,84.4,65.7Zm-15.5,5a11.2,11.2,0,0,1,.4-4.1c.3-1.3.8-2.1,1.4-2.3H71c.4.2.6.8.5,1.9A6.2,6.2,0,0,1,68.9,70.7ZM60.2,53.1l-1.4,1.4-.5-1.9L56.5,52l1.3-1.3-.4-1.9,1.8.5L60.6,48l.6,1.8,1.8.6-1.3,1.3.4,1.9Zm.9,7-.5.2.5-.5ZM54,110.3l4.2-2.2-1.5,4.3-5.4,3.2ZM51.4,97.1l5.1,2.7,1.7,4.3-4.1-1.5Zm2.7,11.3,1.1-2-.8-2,3.9,2Zm3.8-8.9,2.3.9,1.9-1-2,4.7Zm2.4-.1L58.1,97l2-10.4L62.2,97ZM59.2,61.7l.7-.7v1.5l-.4.4.4,1.5v2.7l-1.2.5c-.1.1-.2.2-.2.3v1.4h.2l1.1-.5c.1,2.4.1,4.2.2,5.4a22.3,22.3,0,0,1-.9,3.9c-.4,1.3-.8,2.1-1.2,2.2s-.5,0-.7-.4a12.5,12.5,0,0,1-.3-1.9c0-.9-.1-2.5-.1-4.7a6.5,6.5,0,0,0-.4-2,3,3,0,0,0-1.2-1.3,2.5,2.5,0,0,0-1.9.1l-.9.4-.8.7a4.2,4.2,0,0,0-.9,1.4v-1c0-.1,0-.2-.1-.2h-.1l-2.4.9-.2.3v6.1a19.7,19.7,0,0,1-.9,4.5c-.3,1.2-.6,1.8-.9,2s-.5-.1-.7-.5a9.8,9.8,0,0,1-.5-2.6c-.1-1.3-.2-4-.2-8.1,0-.1,0-.1-.1-.2h-.2l-2.3,1c-.1,0-.2.1-.2.3,0,2.6.1,4.5.2,5.9a20.7,20.7,0,0,1-.9,4.6c-.3,1.2-.7,1.9-1.1,2s-.5,0-.7-.4a9.9,9.9,0,0,1-.5-2.7c-.1-1.2-.1-3.9-.2-8,0-.1,0-.2-.1-.2h-.1l-2.4.9c-.1.1-.2.2-.2.3.1,2.7.1,4.8.2,6.2a29,29,0,0,0,.3,2.9,4.8,4.8,0,0,0,.5,1.4,2.7,2.7,0,0,0,1.3,1.6,2.3,2.3,0,0,0,1.8.1q1.9-.7,2.7-4.5c0,.1.1.2.1.3a3.2,3.2,0,0,0,1.4,1.6,1.9,1.9,0,0,0,1.8.1l1-.6a3.5,3.5,0,0,0,.9-1.1v.6c0,.1.1.1.1.2h.2l2.3-1c.2,0,.2-.1.2-.3V76.8a11.2,11.2,0,0,1,.9-3.2q.6-1.3,1.2-1.5c.6-.2,1,1.2,1.2,4.1a24.7,24.7,0,0,0,.1,3.2,5.5,5.5,0,0,0,.5,1.7A2.8,2.8,0,0,0,56,82.6a2,2,0,0,0,1.7.1,4.1,4.1,0,0,0,1.1-.7l.4-.4L56.4,98.3l-8.5-4.5,4.8,8.8-8.6,3.5-.3-.2h-.4l-.3.2-.3.2-1.2.7-.6.4-.6.4-.6.4-.6.3-.6.4-.5.3h-.3l-1.1-.2-1-.3h-.5l.2-.2.5-.5.6-.5.5-.4H35l.4-.5.5-.6.5-.5.5-.5h6a1.2,1.2,0,0,0,.5-.5h0v-1.1h0a1.1,1.1,0,0,0-.7-.8H37.5V96.7h0a.8.8,0,0,0-.5-.7H36c.2-.1.3-.3.5-.5s.4-.8.3-1.1a.2.2,0,0,0-.2-.2h-.4l-.4-.3a3.5,3.5,0,0,1-.6-.9,25.4,25.4,0,0,1-1.4-5.6c-.2-2.2-.4-5.6-.5-10V73.4a18.4,18.4,0,0,1,.3-3.3,10.5,10.5,0,0,1,.6-2.9A7.8,7.8,0,0,1,35.4,65c0-.1.1-.1.1-.2l.7.2-.3-.6a5.7,5.7,0,0,1,1.3-.8.2.2,0,0,0,0-.3,1,1,0,0,0-.9-.2l.4-.4,1.7,1L41,65.2l.9.5,1.7.9c-.6-1.3-1-2.5-1.5-3.8L41.3,61c-.2-.5-.7-1.5-.8-1.9l1-.8L43,59.4l-.3-1.7.8-.5.3-.2c.3-.1.3-.1.4-.3H42.5L42.3,55l2.6-1.6L49.1,51c0-.1-.3-.1-.6-.2l1.4-1.4,1.2.3-1.8,1.8,1.9.6,1.9-1.8,2.6.7-.8.8a1.1,1.1,0,0,0-1.1-.3,1.3,1.3,0,0,0-.9,1.4,1.2,1.2,0,0,0,1.5.9,1.1,1.1,0,0,0,.8-.8l1.1.3-1.9,2-2.5-.7L50.4,56l2.5.7-.9.8-2.5-.6-1.4,1.4,2.5.7-1,.9.3,1,.9.2,1-.9.6,2.5,1.5-1.4-.7-2.5.9-.9.7,2.5L56.2,59l-.6-2.5,1.9-1.9.3,1.1a1.3,1.3,0,0,0-.8.8,1.2,1.2,0,0,0,.9,1.5,1.2,1.2,0,0,0,1.4-.9A1.1,1.1,0,0,0,59,56l.9-.8.7,2.7-1.9,1.8Zm-5.6,44.6-2.2,1.4-4.5-1.3,4.7-1.9ZM25.3,88.1c0-.6-.1-1.6-.1-2.8l5-2.1a54.9,54.9,0,0,0,.5,6.9,14.8,14.8,0,0,0,1.2,4.5.8.8,0,0,0,.2.4l-.7-.3h-.2a.6.6,0,0,0-.7.1l-.3.3v.2l-.4.7L29,97.3l-.4.7-.4.7-.3.7h-.1l-1.5-.7-1.4-.8-.6-.3.2-.3a16.7,16.7,0,0,0,.5-1.9,18.3,18.3,0,0,0,.2-2.1,17,17,0,0,0,.1-2.5Zm6.1-19.4a18,18,0,0,0-.9,4.1,24.9,24.9,0,0,0-.3,5.6v2.7l-5.1,2.1c-.1-2.8,0-5.2.1-7.2,0-.4.1-.9.1-1.3h.1a.7.7,0,0,0,.2-.9c0-.1-.1-.1-.1-.2v-.2l1,.2a.7.7,0,0,0,.8-.4.7.7,0,0,0-.5-.8l-1-.2a.4.4,0,0,0,.1-.3h.2c.3-.1.3-.4.2-.7l2.1-.7a1.8,1.8,0,0,0,1-.9,2,2,0,0,0-.1-1.3c0-.2-.2-.3-.3-.4v-.2l.7-.8L31,65.2a6.6,6.6,0,0,0,1.2-1.7l1.5.5v.7a6.3,6.3,0,0,0-1,1.2A10.4,10.4,0,0,0,31.4,68.7ZM25.3,54.5l1.5-.9,1.4-.9v-.3l1.6-.2a7.4,7.4,0,0,0,.4,1.4h.1c.3-.4.3-1.2.6-1.6l1.5-.2-1.4-.8a4.8,4.8,0,0,0,.5-1.4l.6.2.3-.3c0-.1.1-.2.2-.3s.1-.1.2-.2l2-2.5L35,46l1.1-1.3c0-.1.1-.2.2-.1s-.3,5.4-.1,6.3l.8.2h.1a8.3,8.3,0,0,1-.7,1.3H35c.2.4.8.9.9,1.3a5.4,5.4,0,0,0-.7,1.3l1.8-.5c.2.4.7.6.8.9l-.6.3c.1.9,2.4,6,2.4,6.2s-.6-.2-.7-.3l-.7-.4-2.9-1.7-1.5-.7h-.2c-.5-.2-.6-.9-1.1-1.2l1-1.2-1.7.2-.9-1.1c-.2,1.9.1,1.5-1.1,1.8s-.5.3-.5-.3l-1.7-.2-1.7-.2-3.4-.4.3-.3Zm-1.1-2.4a4.7,4.7,0,0,1,1.7-.1c-.1.2,0,.1-.2.2l-1.8,1A4.5,4.5,0,0,1,24.2,52.1Zm7.6-7.8V42.6a3.4,3.4,0,0,0-.6.6,4.6,4.6,0,0,1-.7.7,3,3,0,0,0-1.4-.6c.1.4.6,1,.7,1.5s-.7.9-1,1l-1.8-1.1-.5-.2,1.1-.7a41.2,41.2,0,0,1,9.1-3.3l-1.4,1.6c0,.1,0,0-.1.1h-.1l-2,2.7-.4-.2C32.5,44.7,31.9,44.5,31.8,44.3Zm.9,1.1c0,.2-.1.3-.3.4a4.8,4.8,0,0,1-.9,1.1.7.7,0,0,1,.1-.6c0-.9-.2-.7.5-.8Zm-1.6,1.7a5.4,5.4,0,0,1-1.3-.7c-.3-.2-.6-.3-.1-.4l.9-.2C30.7,46.1,31.1,47,31.1,47.1Zm-3.8,0,3.8,2.2a3.1,3.1,0,0,1-1.1.9l-1.3-.7a1.3,1.3,0,0,0,.3.8,2.5,2.5,0,0,0,.3.7c-.4.2-1,.9-1.4.9l-1-2.7c-.1-.6-.9-2.4-.9-2.8A4.2,4.2,0,0,1,27.3,47.1Zm11.4,2,.9-.3c.3,0,.2.1.4.3s.2.2.3.5a1.5,1.5,0,0,1-.9-.1h-.9C38.5,49.2,38.4,49.2,38.7,49.1Zm.2-1.1c0,.1,0,.1-.1.2s-.2.2-.2.3-.3.7-.6.7a12,12,0,0,1,0-1.9c.1-.7.3-.2.5-.1a1.5,1.5,0,0,0,.6.5C39,48,39.1,47.8,38.9,48Zm-.8,3.3,5.1.7h-.3l-.4.2-4.2,2.5c0-.3-.1-.8-.1-1.1l.6-.5.6-.5-1.2-.2h-.3C37.6,51.2,37.5,51.2,38.1,51.3Zm2,5c0-.3,0-.2.7-.6s.6-.4.9-.4-.4,1.1-.4,1.1A2.3,2.3,0,0,1,40.1,56.3Zm.7,1.2-.4,1c-.3-.1-.2-.1-.3-.4l-.2-.5a2.9,2.9,0,0,1-.3-1c.4,0,.4.2.7.4A1.2,1.2,0,0,1,40.8,57.5Zm-4.8,5-1.1.2-.5-1c0-.3,0-.1.1-.2h.1l1.1.6C36,62.2,36,62.2,36,62.5Zm-3.3.5.5-.7c.3-.3.5-.8.7-.8V63c-.3,0-1,.3-1.2.2S32.5,63.2,32.7,63Zm-.2-2.9-2.2,2.6c-.2.3-.7,1-1,1s0-5.7.1-5.8a3.3,3.3,0,0,1,1.3.4V60l1.1-1.3,1.5.5c0,.3-.1.2-.2.4l-.3.3Zm-7.6-1.5,1.8.2c-.1.3,0,.1-.6.5l-.6.3a1.2,1.2,0,0,1-.6-1Zm2.4.7h0a9.7,9.7,0,0,1-.1,1.8c-.2,0-.6-.6-.9-.8S27,59.3,27.3,59.3ZM60.7,42.2v-.4l.5.3,2.5,1-.3.3h0l.6,2.5-2,1.9-.3-1.1a1.4,1.4,0,0,0,.9-.8,1.2,1.2,0,0,0-.9-1.4,1,1,0,0,0-1.4.8,1.1,1.1,0,0,0,.2,1.1l-.8.8-.7-2.7,1.9-1.8Zm-1.4-.5-.9.9-.3-1.2h0l.3-.2h.3l.9.3Zm5.9,2.2.4.2h.1l-.3.2h-.1ZM70.6,5.1c3.7-1.2,5.2,1.7,3.5,5.3a25.6,25.6,0,0,1-15.8,6.2A19.3,19.3,0,0,1,70.6,5.1ZM61.1,35.3V36a42.1,42.1,0,0,0-6.1-1.6,10,10,0,0,0-.8-1.4v-.2a20.9,20.9,0,0,1-2.1-5.6Zm-15-17.9a2.3,2.3,0,0,1,1.6-.6,2.6,2.6,0,0,1,1.5.7,2.5,2.5,0,0,1,.6,1.6,2.4,2.4,0,0,1-.7,1.6,1.8,1.8,0,0,1-1.6.5,1.8,1.8,0,0,1-1.5-.7,2.2,2.2,0,0,1-.6-1.5A2.4,2.4,0,0,1,46.1,17.4Zm.3,21.9a42,42,0,0,1,7.2.6v.3l.2.9,2.5.7.3,1.2-2.5-.7.5,2,2.5.7.7,2.6-1.1-.3a1.2,1.2,0,0,0-.3-1.1,1.1,1.1,0,0,0-1.7,0,1.4,1.4,0,0,0,0,1.7,1.1,1.1,0,0,0,1.1.3l.3,1.1-2.6-.7-.7-2.5L51,45.5l.6,2.5-1.2-.3-.7-2.5-1.9-.6.7,2.6-1.3-.4-.7.7.2,1,1.3.3-1.7,1.7-1.2-.2L41,49.7a5.7,5.7,0,0,1-.1-1.3l1.5-.7L41,47.3l-.3-1.8-.9,1.3-1.7-.5.3-6.2,1.3-.3A49.1,49.1,0,0,1,46.4,39.3ZM40,32.9a.1.1,0,0,0-.1.1h-.1l-.7,1a64.2,64.2,0,0,0-6.3,1.5v-.3l.6-.9L42.7,27A24.3,24.3,0,0,1,40,32.9ZM21.8,8.5c-1.4-3.7.3-6.5,4-5.1A20.3,20.3,0,0,1,37.2,15.8,25.6,25.6,0,0,1,21.8,8.5ZM7.9,67l.3-.9.4-.8a40.3,40.3,0,0,1,15-19c.6,1.5,1.2,2.9,1.2,3.1s-1.1.9-1.3.9l-1.4-.8.5,1.6-.5.4a2.8,2.8,0,0,0-.9.6H23l.5,1.4c-.2.1-6.7,3.6-7,4,1.3.3,6.2.9,7.8,1,.1.2.1,1.3.2,1.6l-1.6.6c.4.3,1.2.3,1.7.5a15.7,15.7,0,0,1,.3,1.6l.9-1.4,1.5.4c0,.6-.1,1.5-.1,2.1V68a5.6,5.6,0,0,0-2.1,1.7l-.7.2c0-.1,0-.2-.1-.2a.7.7,0,0,0-.9-.2l-1.6,1-1,.2-.5.2-.5-.2,2.4-1.4a.6.6,0,0,0-.3-1.2H19a3,3,0,0,0,.8-.8h2.9a.7.7,0,0,0,.7-.6.7.7,0,0,0-.7-.7H21.1l.8-.9h1.8a.7.7,0,0,0,.6-.7.6.6,0,0,0-.6-.6h-.5l.8-.9a.7.7,0,0,0,0-.9.8.8,0,0,0-1,.1l-.8.8v-.5c0-.4-.3-.6-.7-.6a.7.7,0,0,0-.6.7,9.1,9.1,0,0,0,.1,1.7l-.8.9c0-.6-.1-1.1-.1-1.6a.7.7,0,0,0-.7-.7.9.9,0,0,0-.6.7c0,1,.1,2,.1,2.9l-.8.9a25.3,25.3,0,0,0-.1-2.8.6.6,0,0,0-1.2-.3l-1.3,2.4-.3-1.1L16.5,63a.7.7,0,1,0-1.1-.7l-.8,1.5-.3-1.1c.3-.6.6-1.1.8-1.6a.7.7,0,0,0-1.1-.7l-.2.5a4.9,4.9,0,0,0-.4-1.1.6.6,0,0,0-.8-.5.7.7,0,0,0-.4.8l.3,1.2-.4-.3a.7.7,0,0,0-.9.3.8.8,0,0,0,.3.9l1.6.8.3,1.1L12,63.4c-.4-.2-.8-.1-.9.2a.6.6,0,0,0,.3.9l2.5,1.4c.1.4.3.7.4,1.1l-2.5-1.3a.7.7,0,0,0-.9.9L12.4,69l-1.1-.3L9.8,66.2a1.1,1.1,0,0,0-.8-.3H8.9a.6.6,0,0,0-.3.9l.9,1.4L8.4,68H8.3a2.5,2.5,0,0,1-.4-.7Zm15.6,5.9-.3,1-.8-1.2ZM18,70.3l-.8-.2.6-.6h1.6Zm1.1.9h-.4c-.2,0-.3-.2-.2-.3a.3.3,0,0,1,.3-.3A.5.5,0,0,1,19.1,71.2Zm-2,1-.2-.8.8.2.2.2Zm.5,3.6.4.2c0,.2-.1.4-.3.4s-.3,0-.4-.2S17.4,75.9,17.6,75.8Zm.1-7.6c.1-.2.3-.2.5-.1a.4.4,0,0,1-.5.5A.3.3,0,0,1,17.7,68.2ZM19.8,66h.4c.1.1.2.3,0,.4s-.3.2-.4,0A.3.3,0,0,1,19.8,66Zm2-2.2h.5a.3.3,0,0,1,0,.4c-.1.2-.3.2-.5,0A.3.3,0,0,1,21.8,63.8Zm-8,9a.2.2,0,0,1-.1-.4c.2-.2.4-.2.5-.1a.4.4,0,0,1,0,.5A.3.3,0,0,1,13.8,72.8Zm0,1.9-.8.9V74.5l.8-.8Zm.3-3.2H12.5l1.4-.9.8.2Zm-1.3-1.8.4-.2c.2,0,.3.2.3.4s-.3.3-.4.2S12.8,69.9,12.8,69.7Zm1.4-.3L13.3,68l1.5.8.2.8Zm.2-4.3c-.2.1-.4,0-.4-.2s0-.3.2-.4a.5.5,0,0,1,.4.2C14.6,64.9,14.5,65.1,14.4,65.1Zm.4,2.7a.5.5,0,0,1,.2-.4l.4.2c.1.2,0,.4-.2.4S14.9,68,14.8,67.8Zm.9,3.9.2.8-.3.7-.5.3V72.3Zm-.3-.8a.7.7,0,0,1,.2-.9.6.6,0,0,1,.9.1.7.7,0,0,1-.1.9A.8.8,0,0,1,15.4,70.9Zm.9-1.7-.3-.8.8-1.4v1.6Zm-2.6-7.3c.1.1,0,.3-.2.4l-.4-.2c0-.2.1-.4.2-.4S13.7,61.7,13.7,61.9Zm-3.2,7.3c0,.2-.2.3-.3.2s-.3-.2-.3-.4a.5.5,0,0,1,.4-.2C10.5,68.8,10.6,69,10.5,69.2Zm-3-.8a.3.3,0,0,1,.1-.2c0,.1.1.2,0,.3a.2.2,0,0,1-.2.2C7.4,68.6,7.5,68.5,7.5,68.4Zm11.6,39.5-.6.4-.6.3-.5-.4c-.7-.8-1.5-1.6-2.2-2.5l-2.5-3.3-.8-1.3a40.7,40.7,0,0,1-6-21.3,41.5,41.5,0,0,1,1.2-10l.7-.4h.3l1.1.2-1.4.9a.7.7,0,1,0,.7,1.1L11,70l1.1.2L9.7,71.7a.7.7,0,0,0,.4,1.2h2.8l-.8.8H9.2a.7.7,0,0,0-.7.7.7.7,0,0,0,.7.6h1.6l-.8.8H8.3a.7.7,0,0,0-.1,1.3h.6L8,78a.6.6,0,0,0,0,.9.6.6,0,0,0,.9,0l.8-.9v.6a.7.7,0,0,0,.7.6.9.9,0,0,0,.6-.7V76.7l.7-.8a7.6,7.6,0,0,1,.1,1.5l-.7,1.4a15.2,15.2,0,0,0-1,4.6,10,10,0,0,0,.8,4.3,5.6,5.6,0,0,0,3,3.2,4.1,4.1,0,0,0,3.7.3,4.8,4.8,0,0,0,2.7-3,5,5,0,0,0,0-3.8,1.3,1.3,0,0,0-1-.9c-.3-.1-.4,0-.3.2a4.7,4.7,0,0,1-.1,2.6,2.9,2.9,0,0,1-1.7,2,1.7,1.7,0,0,1-1.7-.1,4.2,4.2,0,0,1-1.3-1.8,9.3,9.3,0,0,1-.7-5,10.6,10.6,0,0,1,1.2-4.3l.4-.3.8-1.6.6-.6.3.8c-.5.9-1,1.7-1.4,2.6a.7.7,0,0,0,.2.9.6.6,0,0,0,.9-.3l.8-1.4.3,1.1-.8,1.5c-.2.4-.1.8.2.9a.7.7,0,0,0,.9-.2l.3-.5.3,1.2a.6.6,0,0,0,.8.4.7.7,0,0,0,.4-.8l-.3-1.1.4.2a.6.6,0,0,0,.9-.3.6.6,0,0,0-.3-.8l-1.6-.9-.3-1.1,1.5.8a.6.6,0,0,0,.8-.3.6.6,0,0,0-.3-.9L18,75.1l-.3-1.2,2.4,1.4a.7.7,0,0,0,.9-.9l-1-1.7.8-.3a17.6,17.6,0,0,0,1.4,2.3.5.5,0,0,0,.7.3,38.8,38.8,0,0,0-.7,8.1c0,2.1,0,4-.1,5.5a29.6,29.6,0,0,1-.4,3.8,12.5,12.5,0,0,1-.7,2.3,3.1,3.1,0,0,1-.9,1.2,2.1,2.1,0,0,1-1,.6h-.7c-.1,0-.1.1-.1.3a2,2,0,0,0,.1.7,4,4,0,0,0,1.7,1.7,3.1,3.1,0,0,0,2.1.2h.1l.5.3,1.5.8,1.5.7,1.4.8.3.2v.3l.6,2,.2.6-.9-.3-1.2-.4h-.2l.9,2.2h0l-1-.2-1.1-.2L24,106l-3.1-5a.7.7,0,0,0-.5-.4h-.7l-.5.3-.3.2c-.1.1-.2.1-.2.2a.5.5,0,0,0-.2.4.7.7,0,0,0,.1.6l.2.4,2.4,3.8-.3.2-.6.3-.6.4ZM12.1,75h-.4a.4.4,0,0,1,0-.5h.4C12.3,74.6,12.3,74.8,12.1,75Zm-2,2.1c-.1.2-.3.2-.5.1a.4.4,0,0,1,0-.5.4.4,0,0,1,.5,0A.3.3,0,0,1,10.1,77.1Zm8.1,2c0-.2,0-.4.2-.4s.3,0,.4.2,0,.3-.2.4S18.3,79.3,18.2,79.1Zm7.7,33.1-.5.6-.4.4H23.6a33.8,33.8,0,0,1-3.6-2.7h.1l.6-.4.6-.4.6-.4.7-.3.6-.4h0l1,.2,1.1.2,1,.3-.5.4-.6.5-.5.4h2.4l-.2.2Zm5.7,4.1-.4.7v.3a24.8,24.8,0,0,1-3.7-1.7l-.6-.3.3-.3.5-.5.5-.6.4-.5.4-.4.3,1.3.2.8.2-.3.4-.6.5-.6.3-.5.5,1.6.4,1.4Zm1.2-11.5h-.1v-.3l-.3-1.6v-.5l-.2.2-.4.6-.5.6-.3.3-.3-1.2-.6-1.8h.1l.3-.7.4-.7.4-.7.7-1.4.4-.6.3-.7h0a.3.3,0,0,0,.1-.2v-.3l.6.5a1.6,1.6,0,0,0,1.3.3v6h0l-.5.5-.5.5-.5.6Zm24.4,14.1a31.5,31.5,0,0,1-5.5,1.1l-2.9.3H46.4a38.5,38.5,0,0,1-6.9-.6h0l.2-.4a.3.3,0,0,0,.1-.2v-.2a1,1,0,0,0-.5-.8h-.2l-1.5-.8-1.4-.8-1.5-.8h-.3v-.3l-.6-2.1-.2-.6.8.3,1.2.4h.1l-.9-2H35l1,.2,1.1.2.7.2,2.9,4.6h0l.2.2.4.2H42l.5-.3.3-.2c.1-.1.2-.2.2-.3l.2-.3a1.1,1.1,0,0,0-.2-.7l-.9-1.4L40.4,111l.4-.3.6-.3.6-.4.6-.4.6-.4.6-.4.6-.3h.2a.9.9,0,0,0,.3-.5.1.1,0,0,1,.1-.1,1,1,0,0,0-.2-.7h0l7.9,2.8-3.9,7.4-1.1,2.1,4-2.4,5-3,.5,1.9.9,2.7Zm3.4-1.1-1.2.4-.9-2.6h0l1.3-2.3,1.3,1.4.5.6Zm-.6-6.1-1.9.8,2.1-3.8,1.8,3.9Zm4.4,4.5-2.2.9,1.1-2.9,2.4,1.3Zm2.8-1.6-2.8-1.4-.8-.5-1.7-4.4,4.6,2,.6,1.4,1,2.3ZM66,104l-.5,2.1.5,2.2-3.7-2Zm-3.7.1,1.3-4.3,5.3-3.4-2.6,5.7Zm4.4,1.8,2-1.4,4.1,1.3-3.9,1.7Zm8.8,2.1-1.6,1.6a39.2,39.2,0,0,1-4.6,3.7L68.2,111l-.7-1.6,6.4-2.8,2.8-1.2-1.2-.4-7.9-2.7,4.6-9.9L64,97.9,60.1,80.2l.6-1.8v-.2h0a3.3,3.3,0,0,0,1.5,1.6,1.9,1.9,0,0,0,1.9.2,3.5,3.5,0,0,0,1.2-.7,3.5,3.5,0,0,0,.9-1.1,9.3,9.3,0,0,0,.9-2.4c0-.3.1-.5.1-.8a5.9,5.9,0,0,0,1.7,1.8,3.3,3.3,0,0,0,3.2.2l1.1-.5,1.2-1a6.1,6.1,0,0,0,1.2-1.6,9.1,9.1,0,0,0,1-2.4,15,15,0,0,0,.4-2.4h.1a80.4,80.4,0,0,0,.6-8.1,1.9,1.9,0,0,1,1.2.7,1.9,1.9,0,0,1,.1.8,52.4,52.4,0,0,0,0,5.7,10.5,10.5,0,0,0,.6,2.9A2.9,2.9,0,0,0,81,72.5a1.9,1.9,0,0,0,1.8.1l1-.6a4.8,4.8,0,0,0,.9-1.3,12.9,12.9,0,0,0,.6-2.2A18.2,18.2,0,0,1,86,71l-3.6,5.6-6.8-1.3,4.5,5-3.7,5.9,6.5-2.9,3.4,3.8A40.5,40.5,0,0,1,75.5,108Z"/></svg>