<svg xmlns="http://www.w3.org/2000/svg" viewBox="0 0 92.5 125.9"><defs><style>.cls-1{fill:#000001;fill-rule:evenodd;}</style></defs><title>Jason</title><g id="Layer_2" data-name="Layer 2"><g id="Layer_1-2" data-name="Layer 1"><path class="cls-1" d="M72.3,41.5l.8-.3h0a21.8,21.8,0,0,0,6.6-4.6c4.3-5.1-.8-10.8-.8-16.2s2.4-9.4.4-14.1c-1.2-3-4.1-4.4-7.4-4.5A13.8,13.8,0,0,0,64,3.9C61.9,5.2,51.7,15.6,51.5,15.6a2.5,2.5,0,0,0-1-1.6,2.3,2.3,0,0,0-1.6-.6H46a2.8,2.8,0,0,0-1.3.4c-.6.3-1.2.9-1.2,1.3A58.8,58.8,0,0,0,32.1,2.7,14.8,14.8,0,0,0,24.4,0C21-.1,18,1.1,16.6,4c-2.3,4.5-.3,9.5-.6,14.1s-5.9,10.7-2,16.1c2.2,2.5,4.5,4.8,7.8,5.8h0l.3.2a46.3,46.3,0,1,0,59.2,69.7c1-1.2,2-2.5,2.9-3.8l.3-.4h0l.6-.8.4-.6,1.5-2.6h0l.8-1.5.4-.9a36.8,36.8,0,0,0,1.5-3.5c0-.1.1-.2.1-.4l.4-1a47,47,0,0,0,2.3-14.6A46.1,46.1,0,0,0,72.3,41.5Zm4.2,56.6a.7.7,0,0,0-1-.3.7.7,0,0,0-.3,1,13,13,0,0,0,1,1.5l-1.3-.3-1-1.7a.8.8,0,0,0-1-.2.7.7,0,0,0-.2,1c.1.1.1.3.2.4h-.2l-1.5-2.4,2.5-7-7.1,1.6-5.2-4.2,1.2-1.4,3.1.2-1.6-2.8,1-2.7a8,8,0,0,0,3.6,1,3,3,0,0,0,.6,1.1,2.7,2.7,0,0,0,.8.7l.9.4-2.2.5c-.1.1-.2.1-.2.2h.1l1.8,2.1c.1.1.2.2.3.1l7.6-1.9a9.5,9.5,0,0,1,3.4.1,3,3,0,0,1,1.8.8q.6.9-3.3,2.1l-2.9.8a6,6,0,0,0-1.3.9,2.1,2.1,0,0,0-.9,1.6,2.2,2.2,0,0,0,.6,1.7l1,1,1.5.7h.2a.7.7,0,0,0-.6.4.9.9,0,0,0,.3,1L81,97.7a5.6,5.6,0,0,1,.4,1.2l-2.7-1.5a.7.7,0,0,0-.9,1c.5.9,1,1.8,1.6,2.7l-1.3-.3Zm.8,3.2c0,.2-.2.3-.4.3a.5.5,0,0,1-.3-.5c.1-.1.3-.3.5-.2S77.4,101.1,77.3,101.3Zm-1.5.4-1.2.7-.5-.7.5-.3Zm-1.7-1.2c0,.2-.2.3-.4.3h-.2v-.2a.5.5,0,0,1,.4-.3C74,100.2,74.2,100.4,74.1,100.5Zm-5.5-1H66.2l-1.4,1.5-.7-2.1-2.1-1,2-1.1.2-2.1L66,95.9l2.1-.6-.7,2.4Zm-11.1.4-2,.7-2.8-2.3-.4,3.7-2,1,3.4-10.4-2.3.5,2-2.4,7.2.6-.3,3.4-5.8,3.8Zm-4.4,3.6,1-.7v-1l.9.7,1.1-.3-.3,1.2.6.9H55.3l-.8.8-.4-1.2Zm.5,4.9-2.5-4,1.7.8ZM33.1,118l-.3-1.1-1.2-.5,1.1-.7v-1.2l1,.8,1.2-.4-.4,1.4.7,1H34l-.8.8Zm3.7-14.2,2.9-1.8.3-3,2.6,2,3.2-.9-1,3.5,1.7,2.7H43l-2.1,2.2-1.1-3.2Zm1.5,14.5-1.9-2.6.8-1.4Zm5.2-23-8.2-7L35,91.4l-.9-1.2,1.2-3.7-2,.2,2.6-3.4,4.9.5-2.9,1.9,7.9,3.2,1.3,5.4Zm-13.4.8,2.2-2.8,2.7.2-.3,5.6-1.3.8-1.1-1.6,1-2.8Zm-5.6-7,2.6-.7-1-.9-2.5.7-1.1-1.1,4.4-1.2L26,85l-3.8,1,.6-2.4-1.3.3s-.2.8-.3,1.4l-.9-.9.6-2,.5-2,1.2-.4c-.2.6-.4,1.4-.4,1.4l.9.9.7-2.4,2.8,2.8,1.3-.4-2.5-2.4,5,2.3,1.2,5.1-3.2-2.6v4.1l-3.2,1.9h.1l.4-.4Zm-4.9-4.7L17,81.8a2.4,2.4,0,0,0,.2-.8l3.6-1-1.9,1.9ZM7.9,79.6,7.2,82,5.7,80.5v-.8c0-1,.1-2,.1-2.9l3-.9-.6,2.5L9.5,78l.3-1.3.9.8L9.6,81.6l-1.2.3a11.9,11.9,0,0,0,.4-1.4ZM6,84.1l.7-.2-.5,2A11,11,0,0,1,6,84.1Zm.3-11.5.2.2H6.3Zm-.2,1.5,1.3-.4,1.1,1.1-2.6.7C6,75.1,6,74.6,6.1,74.1Zm-.3,8.1.6.6-.5.2A2.2,2.2,0,0,1,5.8,82.2Zm6.3-2.1-.7-2.5A31.9,31.9,0,0,1,14,80.2a1.9,1.9,0,0,0-.2.8l-3.5.9Zm6.1-5.7,1,1,1.3-.4-1.8-1.7,3.8-1.1.3-1,1.8.9.5,1.6-.9.2-1,3.8-1.8-1.8-.3,1.3,1,1-1.2.3L19.4,77l-1.5-1.5Zm-.1-4.6c.1-.2.3-.3.4-.2a.3.3,0,0,1,.3.3.5.5,0,0,1-.4.3C18.2,70.1,18.1,70,18.1,69.8Zm9.7,1.5h-1l-.6.6-.3-.9-.9-.4.8-.5v-.9l.8.6.9-.3-.3,1ZM25.4,46l.2-1.2h.2l1.1.8,1.5-.4-.5,1.7.8,1.3H27l-1,1.1-.5-1.5L24,46.9Zm.8,12,.2-1.3,1.1.9,1.4-.4-.4,1.5.8,1.2H27.7l-.9.9-.5-1.4-1.4-.6ZM28,55.4l-2.2-2,2.3-3.1h1.3c0,.2-.1.4-.1.7a8.4,8.4,0,0,0,.6,2.4h0a.1.1,0,0,1,.1.1h0a1.8,1.8,0,0,0,.5.7l.2.2h0Zm21.1,3.1c0-.3.2-.5.5-.8a8.4,8.4,0,0,1,2.7-1.4,11.3,11.3,0,0,1,3.6-.6,3,3,0,0,1,2.5.8,1,1,0,0,1,.1,1.2A3.6,3.6,0,0,1,57.3,59l-2.3.7c-3.2.5-5.1.3-5.8-.5A.8.8,0,0,1,49.1,58.5ZM47,59.9c.9,1,2.4,1.4,4.6,1.3h-.1a2.1,2.1,0,0,0-.8,1.7,2.8,2.8,0,0,0,.7,1.9l.9.8,1.4.6,2.3.2-.2.3a5.4,5.4,0,0,0-.4,2.2,4,4,0,0,0,1,2.2,8.6,8.6,0,0,0,1.4,1.3,6.4,6.4,0,0,0,3.3,1.6,10.2,10.2,0,0,0,2.6.2,4,4,0,0,0-1.2,2.3,4.2,4.2,0,0,0,1.1,3l1.2,1-2.8.8-2.5-1.9-.2,3-2.2,1.2,3-7.6-8.1,2-4.5-3.8,1.8-1.9,3.4.2-1.8-3.1,1.3-3.7-3.7,1-2.7-2.5-.5,3.9-1.4.7-2.6-3.7,2.2-6.1-6.4,1.6-3.4-3.2.9-1h0a15.9,15.9,0,0,0,5.3-.1,81.1,81.1,0,0,0,8.8-1.8h0l-1,.6a3.8,3.8,0,0,0-1.4,2.3A3.2,3.2,0,0,0,47,59.9Zm10.3,7.7a2.8,2.8,0,0,1,1.1-1.3h.4l4.9-.4-1,.9-.9,1-.9.9-.9.6-.9.4a1.1,1.1,0,0,1-.8,0,1,1,0,0,1-.7-.5A1.4,1.4,0,0,1,57.3,67.6Zm7.2,10.3a3.1,3.1,0,0,1,.9-1.1,7.3,7.3,0,0,1,3.4-1.7,9.6,9.6,0,0,1,3.7-.4,3.5,3.5,0,0,1,2.2.8c.5.6.3,1.3-.7,2.2a8.6,8.6,0,0,1-3,1.6,1.7,1.7,0,0,0-1.3-.5,2.1,2.1,0,0,0-1.3.5.5.5,0,0,0-.3.5c-1.7.1-2.9-.2-3.4-.9S64.4,78.3,64.5,77.9ZM36.3,73.3l2.1-2.7,6,.4,1.5.6.4,1.5-.9-.5L45,81l-3.1,2-3.1-4.8,2.1-5.9Zm2.8-5.7H37l-1.3,1.4L35.1,67l-1.8-.9,1.7-1,.2-1.9,1.6,1.2,1.9-.5L38,66Zm-2.9,9.2-.7,2.1,1.1,1.6H34.5l-1.3,1.4-.6-1.9L30.8,79l1.7-1,.2-1.9,1.6,1.2Zm10.1-7,1-.6v-1l.9.6,1.1-.3-.3,1.3.6.9H48.4l-.7.7-.4-1.1ZM32.2,50.6h0Zm-.1-1.5.4-.3v.7Zm-.5,6.2h0l1.3.7h0l.2,1.1-.7-.6-.3,3.9-1.6-2.1Zm1,13.8.8,3.3-3.3-2.6H30l-.2,1.7-1-1.4.9-2.1Zm-2.8,3.8-.2,3.3-1,.6-1.5.4.6-2.5-1.2.3-.7,2.6-1.5.4,1-3.6.2.6,1.9-2.4Zm-5.2,6.2.9-.3-.7.5ZM18,78.5l2.5.6-3.5,1-.3-.3h-.3l.9-3.5Zm-2.5.8h-.8l-2.6-2.6,2.5.7,1.8-1.9Zm-1.4,2.5a.8.8,0,0,0,.2.4h.3L13.7,86,13,83.4l-2.5-.6Zm1.4.9.6-.2h.2L18.9,85l-2.5-.7-1.8,1.9Zm14.7,7.4.2-1.1.9.7,1.1-.3L32,90.6l.6.9H31.4l-.7.8-.4-1.1-1.1-.5Zm1,9.4H30.1l-.7.8-.3-1.1-1-.4.9-.6v-1l.9.7,1-.3-.3,1.1Zm-.5,1.4h1.2l-2.2,1.3Zm15.8-16,2.4-1.4.3-2.5,2.1,1.6,2.6-.7L53,84.8,54.5,87l-2.9-.2-1.7,1.8L49,86Zm11-.4,2.1,1,1.1,3.9Zm2.7-.6.7-.4v-.8l.7.5.8-.2-.2.9.4.7h-.9l-.5.5-.3-.8Zm20.7,16.9-.5-.8.7.4Zm-.4-5.1L79,95h1.3A1.4,1.4,0,0,0,80.5,95.7Zm.8.5a.4.4,0,0,1,.5.2c0,.2-.1.4-.3.4s-.3,0-.4-.2S81.1,96.2,81.3,96.2Zm.5-1.1h.1c0,.1,0,.2-.1.2Zm.6,2.2A17.1,17.1,0,0,1,83.7,95h.1c-.4,1-.8,1.9-1.3,2.9A4.3,4.3,0,0,0,82.4,97.3Zm1.9-3.7h-.6a.8.8,0,0,0-1,.2H80.3a6.6,6.6,0,0,1-2.3-.5v-.2c-.2-.2-.2-.4.1-.7a3.3,3.3,0,0,1,1.2-.6h.4l1-.3,3.3-.9a4.2,4.2,0,0,0,1.6-.9h.1A30.6,30.6,0,0,1,84.3,93.6Zm-4.5,8.3a.5.5,0,0,1,.5-.3h0l-.4.5C79.9,102.1,79.8,102,79.8,101.9Zm7-22.2a38.4,38.4,0,0,1-.7,7.6,2.5,2.5,0,0,0-.7-1.2l-.7-.8-1-.6a7.6,7.6,0,0,0-1.6-.6l.9-.2h.2v-.2l-1.8-2.1H81l-6.1,1.5c-2.4.3-4-.1-4.6-1.1a9,9,0,0,0,5-1.8,4.5,4.5,0,0,0,1.4-2.7,4.2,4.2,0,0,0-1.1-3,6.9,6.9,0,0,0-3.4-2,9.4,9.4,0,0,0-4.4-.2,10.6,10.6,0,0,0-1.9.6,11.7,11.7,0,0,1-4.7-.2,9.6,9.6,0,0,0,1.7-1.4c.7-.6,1.2-1.2,1.7-1.7a8,8,0,0,1,1.7-1.5,2.8,2.8,0,0,1,1.8-.5,1.1,1.1,0,0,0,.4-1,2.2,2.2,0,0,0-.6-1.3,2.6,2.6,0,0,0-2.4-1l-5.5.7H58.2a.8.8,0,0,0-.8.1h-2a4.3,4.3,0,0,1-2.1-.5c-.3-.3-.2-.5.1-.8a6.8,6.8,0,0,1,2.1-1c1-.4,3.3-1,6.8-1.9h.1c0-.1,0-.2-.1-.2l-1.8-2.1c-.1-.1-.2-.2-.4-.1h-.4a2.4,2.4,0,0,0-.6-2.9,5.6,5.6,0,0,0-2.6-1.7,7.4,7.4,0,0,0-3.2-.5h-.2l3.7-1,3-.7a24.2,24.2,0,0,1,3.3-.5,10.1,10.1,0,0,1,2.5.2L67,53.1a1.9,1.9,0,0,0,1.2.7,1.1,1.1,0,0,0,1.1-.3.6.6,0,0,0,.2-.7,1,1,0,0,0-.4-.9,7.9,7.9,0,0,0-2.7-2l-1.2-1.8-1.3-2-1.4-1.8a19.9,19.9,0,0,0-3.4-3.1h0A40.6,40.6,0,0,1,86.8,79.7ZM70.4,4.9c3.8-1.2,5.2,1.8,3.6,5.4a25.9,25.9,0,0,1-15.9,6.2A20.2,20.2,0,0,1,70.4,4.9ZM60.9,35.2l.2.3a.4.4,0,0,0-.1.3c-2-.6-4-1.2-6-1.6a6.4,6.4,0,0,1-.8-1.4h-.1a23.5,23.5,0,0,1-2-5.6ZM46,17.3a2.3,2.3,0,0,1,1.6-.6,2.3,2.3,0,0,1,1.5.7,2.3,2.3,0,0,1,.6,1.6,2.1,2.1,0,0,1-.7,1.5,2.5,2.5,0,0,1-1.6.6,2.1,2.1,0,0,1-1.5-.7,1.9,1.9,0,0,1-.6-1.6A1.8,1.8,0,0,1,46,17.3Zm.3,21.8h1.4a8.4,8.4,0,0,0-2.3,1.2,5.3,5.3,0,0,0-1.7,3.5,5.6,5.6,0,0,0,1.2,3.6,5.3,5.3,0,0,0,3.7,1.8,4.3,4.3,0,0,0,3.3-.7,1.3,1.3,0,0,0,.3-1.2q0-.4-.3-.3a2.9,2.9,0,0,1-2.2.5,3,3,0,0,1-2.4-1.1,1.7,1.7,0,0,1-.6-1.6,3.6,3.6,0,0,1,1.1-1.7,7.3,7.3,0,0,1,4-1.7,11.1,11.1,0,0,1,5.1.5A7.8,7.8,0,0,1,61,44.7a37.9,37.9,0,0,1,3.3,4.5,23.9,23.9,0,0,0-10.7.7l-7,1.7c-2.1.4-4.2.6-6.2.8a16,16,0,0,1-3.1,0l.5-2.4-3,.8-2.2-2.1.5-.3a3,3,0,0,1,1.2-.2c.2-.1.2-.2.2-.3a.6.6,0,0,0-.2-.5,2.1,2.1,0,0,0-1.7-.4,4.7,4.7,0,0,0-1.5.6l-.7-1.1,1.5-4.7A40.5,40.5,0,0,1,46.3,39.1Zm-6.5-6.4h0c0,.1-.1.1-.1.2l-.8,1a42.9,42.9,0,0,0-6.2,1.4v-.2l.6-.9,9.4-7.4A23.9,23.9,0,0,1,39.8,32.7ZM21.7,8.3c-1.4-3.7.3-6.5,3.9-5A19.5,19.5,0,0,1,37,15.7,24.9,24.9,0,0,1,21.7,8.3Zm-.9,39.8,2.9,1.2.6,2.1v5.3l-3.7,2.4,4,1.7L26,65l2.5-3.3L32,62v.9l-5.4,3.6,1.8,1-1.3.4-2.5-2.1L24.2,69l-2.5,1.7.8.4-4.1,1.1.4-1.5,2.6-.7.3-1.3-2.5.7.4-1.6-1.1-.3-.4,1.6-1.9-1.9-.4,1.3,1.9,1.9-.4,1.5-3.2-3.3-.4,1.3,2.8,2.8-2.4.6.9,1,1.4-.4L16.1,75l-2.1.6-2,.6-.8-.9,1.3-.3.4-1.3-2.5.6,1.1-3.8-1-.9L9.3,74,8.2,72.9l.7-2.5-.9-1L7.3,72l-.7-.7A40.6,40.6,0,0,1,20.8,48.1ZM6.6,88.1h.2l1-3.8L9.6,86l.3-1.3-1-1,1.2-.3,1.5,1.5,1.5,1.5-.3,1.1-1-.9-1.3.3,1.8,1.8-3.8,1L8.1,91l4.5-1.2-.4,1.5L9.6,92l-.3,1.2,2.5-.7-.4,1.6.6.2h.5l.4-1.6,1.9,1.9.4-1.3-1.9-1.8.4-1.5,3.2,3.2.4-1.3-2.8-2.7,2.4-.7-.9-.9-1.4.3.3-1.1,2.1-.6,2-.5.8.8-1.3.4-.4,1.3,2.5-.7-1,3.8.9.9,1.2-4.4L22.8,89l-.7,2.6.9.9.7-2.6,1.2,1.2.2-.2,3.6,1.8.7,2.7-1.5-1.2-.3,2.9L25,99l2.8,1.3.7,2.3-2.7,2.1,9.9,4.1,1,3.4-2.6.8-2.9-2.5-.4,4.1-2.4,1.5A40.7,40.7,0,0,1,6.6,88.1Zm30.7,31.1h1.5l6.6-8.2,10.4.7L54,108.9l1.9-3,3.6.3L57.6,103l1.2-2.7,2.5,1.2,1.9,7.1,4.7-5.7,6.1.4a.4.4,0,0,0,.1.3.8.8,0,0,0,1,.2l2.7-1.7,1.2.3-2.6,1.7c-.6.3-.3,1.3.4,1.3h.8a3.9,3.9,0,0,1-.8,1h-1a.7.7,0,0,0-.7.7.8.8,0,0,0,.4.7,9.4,9.4,0,0,1-1,1l-.3.4a40.4,40.4,0,0,1-27.9,11.1A38.2,38.2,0,0,1,37.3,119.2Z"/></g></g></svg>