<svg xmlns="http://www.w3.org/2000/svg" viewBox="0 0 92.5 125.9"><defs><style>.cls-1{fill:#000001;fill-rule:evenodd;}</style></defs><title>Michael</title><g id="Layer_2" data-name="Layer 2"><g id="Layer_1-2" data-name="Layer 1"><path class="cls-1" d="M92.5,78.9v-.5A45.9,45.9,0,0,0,72.3,41.5l.8-.3h0a21.8,21.8,0,0,0,6.6-4.6c4.3-5.1-.8-10.8-.8-16.2s2.4-9.4.4-14.1c-1.2-3-4.1-4.4-7.4-4.5A13.8,13.8,0,0,0,64,3.9C61.9,5.2,51.7,15.6,51.5,15.6a2.5,2.5,0,0,0-1-1.6,2.3,2.3,0,0,0-1.6-.6H46a2.8,2.8,0,0,0-1.3.4c-.6.3-1.2.9-1.2,1.3A58.8,58.8,0,0,0,32.1,2.7,14.8,14.8,0,0,0,24.4,0C21-.1,18,1.1,16.6,4c-2.3,4.5-.3,9.5-.6,14.1s-5.9,10.7-2,16.1c2.2,2.5,4.5,4.8,7.7,5.8h.1l.3.2A46.4,46.4,0,0,0,0,79.7a45.9,45.9,0,0,0,8.5,26.7L9.7,108a47.4,47.4,0,0,0,14.4,12.3l2.3,1.2a45.7,45.7,0,0,0,19.9,4.4,47.1,47.1,0,0,0,12.5-1.7l2-.6a47.3,47.3,0,0,0,8-3.5l1.7-1a46.1,46.1,0,0,0,22-39.4Zm-6-1.6-.3-4.8c.2,1.6.4,3.2.5,4.8Zm-6.4-3.4a2,2,0,0,0,1.7.1l1-.6a2.9,2.9,0,0,0,.7-1,6.6,6.6,0,0,0,.7-2c.2-.8.3-1.9.5-3.3v-.2l-.8-.4h-.2a17.2,17.2,0,0,1-.8,3.9c-.2.9-.6,1.4-1,1.5s-.4,0-.6-.3a10,10,0,0,1-.4-3.1c0-1.2,0-4.6.1-9.9a40,40,0,0,1,4.9,12.1l-3.5,5.7-5.1-1,.7-.9a9.3,9.3,0,0,0,.8-2.2.1.1,0,0,0,.1-.1c0,.1,0,.2.1.2A2.4,2.4,0,0,0,80.1,73.9Zm-9.7-69c3.8-1.2,5.2,1.8,3.6,5.4a25.9,25.9,0,0,1-15.9,6.2A20.2,20.2,0,0,1,70.4,4.9ZM64.1,45.5l-1.9,1.8-.3-1a1.1,1.1,0,0,0,0-2.2,1.1,1.1,0,0,0-1.4.8.9.9,0,0,0,.3,1l-.8.8-.7-2.6,1.8-1.7v-.5L63.5,43h0Zm-1.7,7.4-1.8-.5-1.4,1.3-.5-1.8-1.8-.5,1.3-1.3-.4-1.9,1.8.5L61,47.4l.5,1.8,1.7.6-1.3,1.3ZM58.5,41.1l1.2.3-.9.9-.3-1.2Zm8.6,3.8,1.5,1-2-.6ZM65.6,44h0Zm-4.7-8.8.2.3a.4.4,0,0,0-.1.3,60.6,60.6,0,0,0-6.1-1.6c-.2-.4-.5-.9-.7-1.4h-.1A29.2,29.2,0,0,1,52,27.1ZM46,17.3a2.2,2.2,0,0,1,1.5-.6,2.4,2.4,0,0,1,1.6.7,2.3,2.3,0,0,1,.6,1.6,2.1,2.1,0,0,1-.7,1.5,2.5,2.5,0,0,1-1.6.6,2.4,2.4,0,0,1-1.6-.7,2.2,2.2,0,0,1-.5-1.6A1.8,1.8,0,0,1,46,17.3Zm.3,21.8a42.6,42.6,0,0,1,8,.8l.2.9,2.4.7.3,1.2L54.8,42l.5,1.9,2.4.7.6,2.5-1-.3a1,1,0,0,0-.3-1,1.1,1.1,0,0,0-1.6-.1,1.2,1.2,0,0,0-.1,1.7,1.1,1.1,0,0,0,1.1.3l.3,1.1L54.1,48l-.6-2.4-1.9-.5.7,2.4-1.2-.3-.6-2.4-1.9-.6.6,2.5L48,46.3l-.7.7.2.9,1.3.4-1.7,1.6L46,49.7l-3.9-.6a6,6,0,0,1-.2-1.2l1.4-.7c-.3-.2-.9-.2-1.3-.4l-.2-1.7a4.7,4.7,0,0,0-.9,1.2l-1.6-.5.2-6.1A38.2,38.2,0,0,1,46.3,39.1ZM36.5,58.5l-1.4-.8c-.1.1,0,0,0,.1h-.2c-.5-.3-.6-.9-1-1.1s.7-.9.9-1.3l-1.6.3-.9-1.1c-.2,1.8.1,1.4-1,1.7s-.5.3-.5-.2l-1.7-.2-1.6-.2-3.3-.4c.1-.3.1-.2.3-.3l2.4-1.5,1.4-.8,1.4-.9v-.3l1.5-.2c.1.4.4,1,.5,1.4h.1c.2-.4.3-1.1.5-1.5s1.3-.1,1.5-.3a3.7,3.7,0,0,0-1.4-.7,4.8,4.8,0,0,0,.5-1.4l.5.2c.2,0,.2-.1.3-.2l.3-.4H34l2-2.5.2-.3,1.1-1.3c.1-.1.1-.2.2-.1s-.3,5.2-.1,6.1l.8.2h0c.1.1-.5,1.1-.6,1.2H36.2l1,1.2a3.3,3.3,0,0,0-.7,1.3l1.7-.4c.2.3.6.5.7.8l-.5.3c.1.8,2.3,5.8,2.3,5.9s-.6-.1-.7-.2l-.7-.4Zm.8,2.9-1.1.2-.5-1h.2l1.1.6C37.2,61.2,37.2,61.2,37.3,61.4Zm-3.2.5.4-.6c.3-.4.5-.8.7-.8v1.4c-.3,0-.9.3-1.2.2S33.9,62.1,34.1,61.9Zm-.2-2.7-2.1,2.4c-.3.3-.8,1-1,1V57c.2,0,1.2.2,1.3.4V59c.2-.1.8-1,1.1-1.2l1.4.5c0,.2,0,.1-.2.3l-.2.3C34,59,34,59,33.9,59.2Zm-5.1-.9v.2a9.6,9.6,0,0,1,0,1.7l-1-.8C27.9,59.3,28.6,58.3,28.8,58.3Zm-1.1,0-.6.4a1.3,1.3,0,0,1-.6-1h0l1.7.2C28.2,58.2,28.2,58,27.7,58.3Zm12.1-9.7.8-.3c.4-.1.3,0,.5.2l.3.5a1.5,1.5,0,0,1-.9-.1h-.9C39.7,48.6,39.5,48.7,39.8,48.6Zm.2-1.1c0,.1,0,.1-.1.1l-.2.4c-.5.6-.2.6-.6.6s.1-1.5.1-1.8.3-.2.4-.1a1.5,1.5,0,0,0,.6.5C40.1,47.5,40.2,47.3,40,47.5Zm-6.9-3.6V42.3l-.5.6-.7.6c-.1-.2-1-.5-1.3-.6a10.1,10.1,0,0,0,.7,1.5c-.3.2-.8.9-1.1.9a10.6,10.6,0,0,1-1.7-1l-1-.6A38.1,38.1,0,0,1,38.2,40l-1.5,1.8h-.2l-2,2.6-.3-.2A3.7,3.7,0,0,1,33.1,43.9Zm1,1-.3.5c-.1.1-.7,1-.9,1s0-.4,0-.6-.1-.6.6-.8Zm-3.7,4.8.4.7c-.4.2-1,.8-1.3.9l-1-2.7a20.3,20.3,0,0,1-.9-2.6,3.4,3.4,0,0,1,1.2.6l3.7,2.1a4.1,4.1,0,0,1-1,.9l-1.3-.7A2.4,2.4,0,0,0,30.4,49.7Zm.8-4.2H32a10.4,10.4,0,0,1,.5,1.2,8.3,8.3,0,0,1-1.3-.7C31,45.8,30.7,45.6,31.2,45.5Zm-3.7,5.8c-.1.2,0,.1-.2.3l-1.7.9a1.5,1.5,0,0,1,.3-1.1Zm13.1,4.5c.4,0,.5.2.8.3s.4.3.5.5l-.4,1c-.3-.1-.3-.1-.4-.4s-.1-.3-.1-.4A10.4,10.4,0,0,0,40.6,55.8Zm.6-.3c0-.3,0-.2.7-.6s.6-.4.8-.4-.4,1.1-.4,1.1A2,2,0,0,1,41.2,55.5Zm-1.7-1.4a3.6,3.6,0,0,1-.2-1l.6-.5.6-.5-1.1-.2H39c-.2-1.3-.3-1.3.2-1.2l4.9.7v.2h-.2l-.3.2Zm.3-21.4h0c-.1.1-.1.1-.1.2l-.8,1a42.9,42.9,0,0,0-6.2,1.4v-.2l.6-.9,9.4-7.4A23.9,23.9,0,0,1,39.8,32.7ZM21.7,8.3c-1.4-3.7.3-6.5,3.9-5A19.5,19.5,0,0,1,37,15.7,24.9,24.9,0,0,1,21.7,8.3ZM8.1,66l.8,1.3-1-.3H7.8Zm4.5,36.2-.9-1.3c-.8-1.4-1.6-2.9-2.3-4.4l.8.4a4.5,4.5,0,0,0,3.6.1,4.5,4.5,0,0,0,2.7-2.7,4,4,0,0,0,.1-3.2,1.3,1.3,0,0,0-1-.7c-.3,0-.4.1-.3.2a3.4,3.4,0,0,1-.1,2.2,2.9,2.9,0,0,1-1.6,1.8,2,2,0,0,1-1.7-.1,2.6,2.6,0,0,1-1.3-1.4,7.5,7.5,0,0,1-.6-4.2,9.4,9.4,0,0,1,1.8-4.4,7.3,7.3,0,0,1,3.5-2.8,25.4,25.4,0,0,1,5.1-1.4c-1.3,2.3-1.9,5.5-2,9.7,0,1.8-.1,3.3-.2,4.7a16.6,16.6,0,0,1-.5,3.1,7.7,7.7,0,0,1-.7,2,3.5,3.5,0,0,1-.9,1.1l-.9.6h-.7a.5.5,0,0,0-.2.4,1.7,1.7,0,0,0,.2.5c.2.6.8,1,1.6,1.4a3.1,3.1,0,0,0,2.3,0l.7-.4,2,3.1-.3.2-.6.4-.6.4-.7.4-.6.4-.5.3-.5-.5-2.2-2.4C14.2,104.5,13.4,103.4,12.6,102.2Zm8.7-9.6a48.6,48.6,0,0,1,0-5.4,29.5,29.5,0,0,1,.5-4.8A11.2,11.2,0,0,0,22,86a25.9,25.9,0,0,0,1.1,3.7l1.2,3.5a15.4,15.4,0,0,1,1,3.5,6.8,6.8,0,0,1,.2,1.4l-.8-.5L23.4,97h-.2a.8.8,0,0,0-.7.1l-.3.3-.2.3-.2.5a.4.4,0,0,0-.1.3h0a1,1,0,0,0,.4,1l.6.2,1.4.8,1.5.8,1.5.8h.2v.4l.7,2v.5l-.8-.3-1.2-.4h-.3l1,2.2h0l-1.1-.2-1-.3-.9-.2-3.1-4.9h-.1a16.3,16.3,0,0,0,.5-3.3C21.3,95.9,21.3,94.2,21.3,92.6Zm9.5-3.9a25,25,0,0,0,1,6.1l-.5-.3h-.9l-.4.4v.2l-.3.7-.8,1.4-.3.7-.4.7-.4.6h0l-1-.5h0A30.5,30.5,0,0,0,28.3,94a38.2,38.2,0,0,0,1.1-5q.5-2.4.9-5.1c.3-1.9.7-3.3,1-4.5A35.1,35.1,0,0,0,30.8,88.7Zm3.7,10.1h0v3.7h-.1l-.5.6-.5.5-.5.5-.5.6h0v-.2l-.3-1.6v-.4l-.5.6-.4.6-.3.4-.4-1.2-.5-1.8h0l.4-.7.3-.7.4-.7.7-1.4.4-.7.3-.5c0,.1,0,.2.1.2A4.3,4.3,0,0,0,34.5,98.8Zm-9.2,13.8-.5.5H23.4c-1.2-.9-2.4-1.8-3.5-2.8H20l.6-.3.6-.4.6-.4.6-.4.6-.4h0l1.1.3,1,.2,1,.2-.5.4-.5.5-.6.5h2.4l-.2.2-.9,1.1Zm1.3,2.5.3-.2.5-.6.5-.5.5-.5.4-.5.2,1.3.2.9.2-.3.5-.6.4-.6.4-.5.5,1.6.4,1.3v.3l-.4.7-.2.3-3.6-1.7Zm6.9,3.1h0l.4.2h-.4Zm18.1,1.7,4.9-3,.6,1.9A48.6,48.6,0,0,1,51.6,119.9Zm14.2-13-.5,2.1.6,2.1-3.8-1.9Zm-3.7.1,1.3-4.4,5.4-3.3L66.2,105Zm4.2,6.2.6,1.3L64.2,116l-.8-.4-1.6-4.5Zm.2-4.4,2.1-1.4,4,1.3-3.9,1.7Zm-12.3-1.6,4,2.1-4.3,2,1.1-2.1Zm3.7,8.2,2.1-3.9,1.9,3.9-2.1-.9Zm1.8.7,1.3,1.4-2.7.9Zm.4-12.8,1.9-1.1-2,4.7-2.2-4.6ZM58,99.8l1.9-10.3,2.2,10.4-2,2.4Zm.1,7.2L54,105.4l-2.7-5.5,5.1,2.8Zm-4.2,6.2,4.2-2.3-1.6,4.4-5.3,3.1Zm14.2.6-.7-1.6,6.3-2.7A39.6,39.6,0,0,1,68.1,113.8Zm7.3-5.9-8-2.7,4.7-10-8.2,5.5L59.6,81.2l-3.3,20-8.5-4.5,4.8,8.8-9.7,3.8,9.6,3.5-3.8,7.4H46.3a40.5,40.5,0,0,1-7-.6h.1l.2-.4V119a.3.3,0,0,0,.1-.2.9.9,0,0,0-.5-.8H39l-1.5-.8-1.5-.8-1.5-.8h-.2V115l-.7-2-.2-.6.9.2,1.2.5h0l-.9-2h.3l1.1.3,1.1.2.6.2,2.9,4.6h.2l.4.3h.7l.5-.3h.3l.3-.3v-.3a.9.9,0,0,0-.1-.7l-.9-1.4-1.7-2.8.3-.2.7-.4.6-.4.6-.3.6-.4.6-.4.6-.4h.1a.8.8,0,0,0,.4-.4h0a.8.8,0,0,0-.1-.7l-.5-.8a.9.9,0,0,0-.6-.4H43l-.4.2-1.2.8-.6.4-.6.3-.6.4-.6.4-.6.4-.4.2h-.4l-1-.3-1.1-.2H35l.3-.3.5-.4.5-.5.6-.4-1-.2H34.8l.5-.6.5-.5.5-.5.5-.6h5.9c.3-.1.4-.3.5-.6h0c0-.1.1-.2,0-.3v-.9h0a.9.9,0,0,0-.6-.8H37.3V97.7h0c.4-.5.5-.8.4-1s-.1-.2-.3-.2h-.1a1,1,0,0,0-.5-.6h-.4l-.3-.6A20.8,20.8,0,0,1,34.1,89a33.4,33.4,0,0,1-.7-6.8,20.3,20.3,0,0,1,.8-5.8c.5-1.7,1.2-2.7,2.2-3.1s.1-.1-.1-.3a1.3,1.3,0,0,0-1.5-.1,8,8,0,0,0-2.7,1.8,8.7,8.7,0,0,0-1.8,2.6,25.5,25.5,0,0,0-1.1,3.3,26.1,26.1,0,0,0-.8,3.6c-.2,1.1-.4,2.3-.7,3.7a34.6,34.6,0,0,1-.9,3.5,24.6,24.6,0,0,0-1.1-3.2c-.5-1.3-.9-2.4-1.3-3.2a24.5,24.5,0,0,1-.8-2.9,7.4,7.4,0,0,1,.1-2.6l1-.3a2.1,2.1,0,0,0,1-.8,1.1,1.1,0,0,0,0-1.1c-.1-.3-.3-.4-.7-.5h-.9a6.4,6.4,0,0,0-2.5,1.8l-2,.4-2.3.5a6.6,6.6,0,0,0-2,.6A14.2,14.2,0,0,0,10.7,83a12.4,12.4,0,0,0-2.9,3.8A9.2,9.2,0,0,0,7,89.5a39.3,39.3,0,0,1-1.3-9.8A42.4,42.4,0,0,1,7.3,68.3l.3-.2,1,.3-1.3.8a.6.6,0,0,0-.1.8.6.6,0,0,0,.8.1l2.2-1.3,1,.2L9.1,70.3a.6.6,0,0,0,.3,1.1h2.5l-.7.8H8.6a.6.6,0,0,0-.6.6.6.6,0,0,0,.6.6h1.5l-.7.8H7.8a.6.6,0,0,0-.6.6.6.6,0,0,0,.5.6h.5l-.7.7a.7.7,0,0,0,0,.9.5.5,0,0,0,.8-.1l.8-.7v.4a.6.6,0,0,0,.6.6.5.5,0,0,0,.5-.6V74.9l.7-.8a7.6,7.6,0,0,0,.1,1.5.5.5,0,0,0,.6.5.6.6,0,0,0,.5-.6V72.9l.7-.8v2.6a.6.6,0,0,0,1.1.2l1.2-2.2.3,1L14.2,76a.6.6,0,1,0,1,.6l.7-1.3.3,1a10,10,0,0,1-.8,1.4.7.7,0,0,0,.3.8.6.6,0,0,0,.8-.2l.2-.4.3,1a.6.6,0,0,0,1.1-.3l-.3-1,.4.2a.6.6,0,1,0,.5-1.1L17.3,76,17,75l1.3.7a.6.6,0,0,0,.8-.3.7.7,0,0,0-.3-.8l-2.3-1.2-.3-1,2.3,1.2a.5.5,0,0,0,.7-.8l-1.3-2.2,1,.2,1.4,2.3a.8.8,0,0,0,.8.2.5.5,0,0,0,.2-.8c-.2-.4-.5-.8-.7-1.3l1,.3.8,1.3a.5.5,0,0,0,.8.2.4.4,0,0,0,.2-.7c-.1-.2-.1-.3-.2-.4l1,.2a.6.6,0,0,0,.3-1.1l-1.1-.3a.5.5,0,0,0,.4-.2.6.6,0,1,0-.6-1l-1.4.8-1-.2,1.3-.8c.3-.1.3-.5.1-.8a.7.7,0,0,0-.8-.2l-2.2,1.4-1-.2,2.1-1.4a.5.5,0,0,0-.3-1H17.5l.7-.7h2.6a.6.6,0,0,0,.6-.6.6.6,0,0,0-.6-.6H19.3l.8-.8h1.6c.3,0,.5-.3.6-.6a.6.6,0,0,0-.6-.6h-.5l.7-.8a.5.5,0,0,0,0-.8.5.5,0,0,0-.8.1,4.6,4.6,0,0,0-.7.7V62a.7.7,0,0,0-.7-.6.6.6,0,0,0-.5.6v1.6l-.7.8V62.9a.5.5,0,0,0-.7-.5.6.6,0,0,0-.5.6,22.6,22.6,0,0,0,.1,2.6l-.7.7a20.1,20.1,0,0,1-.1-2.5.6.6,0,0,0-1.1-.2l-1.2,2.2-.3-1,1.2-2.3a.5.5,0,0,0-.2-.8.5.5,0,0,0-.8.2l-.7,1.3-.3-1,.8-1.4a.8.8,0,0,0-.2-.8.5.5,0,0,0-.8.2l-.3.4-.3-1a.6.6,0,1,0-1.1.3l.3,1-.4-.2a.6.6,0,0,0-.5,1.1l1.4.7.3,1-1.3-.7a.6.6,0,1,0-.5,1.1l2.3,1.2.3,1-2.3-1.2a.5.5,0,0,0-.7.8l1.3,2.2-1-.3L9.1,65.4a.6.6,0,0,0-.7-.2A40.3,40.3,0,0,1,25,45.2a31.2,31.2,0,0,1,1.4,3.6c-.3.1-1,.9-1.2.9s-1.1-.6-1.4-.7l.5,1.5-.5.3a5,5,0,0,0-.8.7h1.7l.5,1.3-6.8,3.9c1.3.3,6,.9,7.5,1a6.8,6.8,0,0,1,.2,1.5l-1.5.6c.4.3,1.2.3,1.6.5s.2,1.2.4,1.5l.8-1.3a5.7,5.7,0,0,1,1.4.4c0,.5-.1,1.4-.1,2v6h.1l1.3-1.7h0l.5-.6.6-.8L32.4,64a9.5,9.5,0,0,0,1.2-1.6l1.4.5v1.8l.5-.5c.8-.9.8-.7,1.2-.5l.8.2c-.1-.4-.5-.8-.6-1.2l1.1-1c.4.1,1.2.7,1.7.9s1.9,1.2,2.5,1.4l.8.5,1.6.9-1.4-3.6L42.3,60c-.1-.5-.7-1.5-.7-1.8l1-.8a8.5,8.5,0,0,0,1.4,1l-.3-1.6.7-.4.4-.3c.2-.1.2,0,.3-.2l-1.7-.2V54.2l2.5-1.5c.7-.4,3.8-2.1,4.1-2.4h-.7l1.4-1.4,1.2.3L50,50.9l1.9.5,1.8-1.7,2.5.7-.7.7a1.1,1.1,0,0,0-1.1-.2,1.1,1.1,0,0,0-.9,1.3,1.2,1.2,0,0,0,1.4.9,1.1,1.1,0,0,0,.8-.8l1.1.3-1.9,1.9-2.4-.7-1.4,1.3,2.4.7-.8.9L50.2,56l-1.3,1.4,2.4.6-.9.9.2,1,.9.2.9-.9.7,2.5,1.3-1.4-.6-2.4.9-.9.6,2.4,1.4-1.3-.6-2.4L58,53.8l.3,1.1a1.1,1.1,0,0,0-.8.8,1.1,1.1,0,0,0,.8,1.4,1.2,1.2,0,0,0,1.4-.8,1.1,1.1,0,0,0-.3-1.1l.8-.8.7,2.6-1.8,1.8.5,1.8,1.8-1.7.3,1.2-1.8,1.7.4,1.9,1.8-1.8.4,1.3.9.2.7-.6-.3-1.3,2.4.7-.5-1.9-2.4-.6L63,58.5l2.4.6-.5-1.8-2.4-.7L61.9,54l1,.3a1.1,1.1,0,0,0,.3,1.1,1.2,1.2,0,0,0,1.6,0,1,1,0,0,0,0-1.6,1,1,0,0,0-1-.3l-.3-1.1,2.5.7.7,2.4,1.8.6-.6-2.5,1.2.4.6,2.4,1.9.5L71,54.5l1.2.3.7-.6-.2-1-1.3-.3,1.8-1.8-1.9-.5-1.7,1.7L68.4,52l1.8-1.7-1.9-.5-1.8,1.7L64,50.8l.7-.8a1.1,1.1,0,0,0,1.9-1.1,1.1,1.1,0,0,0-1.4-.8,1.1,1.1,0,0,0-.8.7l-1-.3,1.9-1.8,2.4.7L69,46.1a42.1,42.1,0,0,1,10.2,10l-.6.3c-.1,0-.2.1-.2.3-.1,6.9-.1,11,0,12.5a12.6,12.6,0,0,1-.7,2.5,5.3,5.3,0,0,1-1.1,2l-1.1,1.2-1,.6a1.3,1.3,0,0,1-1.2-.1,4.1,4.1,0,0,1-.9-1.2l-.3-1a8,8,0,0,0,2.3-1.6,9.4,9.4,0,0,0,1.8-2.5,3.6,3.6,0,0,0,.1-2.7A1.8,1.8,0,0,0,75,65.3a3.4,3.4,0,0,0-1.9.3,6.1,6.1,0,0,0-2.5,2.3,9.9,9.9,0,0,0-1.1,3.7,6.6,6.6,0,0,0,.1,2,16.7,16.7,0,0,1-.7,3c-.3,1-.6,1.6-.9,1.7s-.4,0-.6-.3a8.7,8.7,0,0,1-.4-2.2V69.3h-.1l-2.1.9-.2.3v.4a2.1,2.1,0,0,0-2.5-.4,5.7,5.7,0,0,0-2,1.8,7.6,7.6,0,0,0-1.1,2.6,26.4,26.4,0,0,0-.2,2.8c.1.1.1.1.1.2a26.6,26.6,0,0,1-.8,3.3c-.4,1.1-.8,1.8-1.2,1.9s-.4,0-.5-.3a4.5,4.5,0,0,1-.3-1.6c0-.8,0-2.1.1-4a8.5,8.5,0,0,0-.4-1.7,2.2,2.2,0,0,0-1.1-1,1.8,1.8,0,0,0-1.6.1l-.8.4a2.3,2.3,0,0,0-.8.7,6.2,6.2,0,0,0-.8,1.2l.2-8.2a.1.1,0,0,1-.1-.1h-.2l-2,.9c-.2,0-.2.1-.2.3l-.2,12.5a9.9,9.9,0,0,1-.6,2.6,12.3,12.3,0,0,1-1,2A11.3,11.3,0,0,1,45.4,88a2.4,2.4,0,0,1-.9.6,1.1,1.1,0,0,1-1.2-.1,2.7,2.7,0,0,1-.9-1.2,7,7,0,0,1-.5-3,7.8,7.8,0,0,1,.6-3.1,2.6,2.6,0,0,1,1.2-1.6c.3-.1.5-.1.7.2a2.7,2.7,0,0,1,0,2.5c.1.2.3.3.6.1a1.8,1.8,0,0,0,1-1.2,2.5,2.5,0,0,0,0-1.7c-.5-1.2-1.5-1.5-3-.8A4.8,4.8,0,0,0,40.6,81a7.7,7.7,0,0,0-1.2,3.6,12.7,12.7,0,0,0,.1,2,20.5,20.5,0,0,1-.7,3.1c-.4,1-.7,1.6-1,1.7s-.4,0-.6-.3a9.8,9.8,0,0,1-.3-2.3c-.1-1-.1-3.3-.1-6.8v-.2h-.4a1.6,1.6,0,0,0,.4-.7,2,2,0,0,0,.1-1.3.9.9,0,0,0-1.6-.7,1.6,1.6,0,0,0-.8,1,2,2,0,0,0-.1,1.3,1.2,1.2,0,0,0,.6.9h.2l-.7.3c-.1.1-.2.1-.2.3,0,3.3,0,5.5.1,6.5a7.2,7.2,0,0,0,.5,2.4,2.2,2.2,0,0,0,2.8,1.2l1-.5a3.5,3.5,0,0,0,.7-1.1,4.2,4.2,0,0,0,.7-2c.1-.2.1-.5.2-.7a3.6,3.6,0,0,0,1.5,1.5,3.1,3.1,0,0,0,2.8.1l1-.5,1-.9a6.9,6.9,0,0,0,1.1-1.3l.3-.8v1.5h.2l2.1-.9.2-.2V80.3a9.3,9.3,0,0,1,.8-2.8,2.8,2.8,0,0,1,1.1-1.4c.6-.1.9,1,1,3.5a23.1,23.1,0,0,0,0,2.7,5.7,5.7,0,0,0,.4,1.4A2.4,2.4,0,0,0,55,85a2,2,0,0,0,1.5,0l1-.6a5.3,5.3,0,0,0,.9-1.1,6.9,6.9,0,0,0,.9-2.1c0-.2.1-.4.1-.7a3.8,3.8,0,0,0,1.4,1.6,2.2,2.2,0,0,0,2.1.1c1-.5,1.7-1.6,2.1-3.5h0A2.3,2.3,0,0,0,66.2,80a1.7,1.7,0,0,0,1.7,0l.9-.5a4.4,4.4,0,0,0,.8-1,8,8,0,0,0,.6-2,6.4,6.4,0,0,1,.2-.7,5.4,5.4,0,0,0,1.5,1.5,2.8,2.8,0,0,0,2.8,0,3.1,3.1,0,0,0,1-.5l.8-.6L80,80.1l-3.8,6,6.5-2.9L86.1,87A40.7,40.7,0,0,1,75.4,107.9Zm-22,1.2-2.1,1.5-4.5-1.4,4.6-1.8ZM9.3,68a.3.3,0,0,1,.3-.3c.2.1.3.2.2.4s-.2.2-.3.2S9.2,68.1,9.3,68Zm4.3-.3.3.8-.8-.2L12.3,67Zm-.3-3.3c-.2.1-.3,0-.4-.2s.1-.3.2-.3.3,0,.4.2S13.4,64.4,13.3,64.4Zm3.1,4h1.4l-1.2.8-.8-.2Zm-.1-1.2a.2.2,0,0,1,.4-.1c.1.2.1.3,0,.4a.2.2,0,0,1-.4.1C16.2,67.4,16.2,67.3,16.3,67.2Zm1.2,2.7c0,.2-.2.3-.3.2s-.3-.2-.2-.3.2-.3.3-.2S17.6,69.8,17.5,69.9Zm-1.2.3.8,1.3-1.3-.7-.3-.8Zm-.2,3.9c.2-.1.4,0,.4.2s0,.3-.2.3-.3,0-.3-.2A.2.2,0,0,1,16.1,74.1Zm-.4-2.4c.1.1,0,.3-.2.3s-.3,0-.3-.2,0-.3.2-.3S15.7,71.5,15.7,71.7ZM15,68.1l-.2-.7.7-1.3v1.5Zm.2.8a.6.6,0,0,1-.1.8.6.6,0,0,1-.9-.1.5.5,0,0,1,.2-.8A.5.5,0,0,1,15.2,68.9Zm-.5,2.2L14,72.4V70.9l.5-.5ZM14,67c-.1.1-.3,0-.3-.2s0-.3.2-.3.3,0,.3.2S14.2,67,14,67Zm-1.6,1.7c0,.2-.1.3-.3.2s-.2-.2-.2-.3.2-.3.3-.2S12.5,68.6,12.4,68.7Zm.4.7.8.2-.5.5H11.6Zm.3,1.9a.2.2,0,0,1-.4.1.5.5,0,0,1,0-.5.3.3,0,1,1,.4.4Zm-1.8,2a.3.3,0,0,1-.4,0,.2.2,0,0,1,0-.4c.1-.1.2-.1.4,0A.3.3,0,0,1,11.3,73.3Zm-1.9,2a.3.3,0,1,1,0-.4A.3.3,0,0,1,9.4,75.3ZM16.7,77c0-.1.1-.3.2-.3s.3,0,.4.1-.1.4-.2.4S16.8,77.2,16.7,77Zm2.9-6.6c0-.1.2-.2.3-.2a.3.3,0,0,1,.3.3c-.1.2-.2.3-.4.3A.5.5,0,0,1,19.6,70.4Zm2.6.6a.5.5,0,0,1,.4-.2.3.3,0,1,1-.2.6A.5.5,0,0,1,22.2,71Zm-4-5.8c.1-.1.2-.1.4,0a.3.3,0,1,1-.4.4A.2.2,0,0,1,18.2,65.2Zm1.8-2a.3.3,0,1,1,0,.4A.3.3,0,0,1,20,63.2Zm-7.3-1.7c0,.1-.1.3-.2.3s-.3,0-.4-.2.1-.3.2-.3S12.6,61.3,12.7,61.5ZM72,72.1a8.2,8.2,0,0,1,.4-3.5,2.9,2.9,0,0,1,1.3-2H74c.3.2.5.8.4,1.7A5.9,5.9,0,0,1,72,72.1Zm-7.5,3.3c-.3,2.8-.8,4.4-1.6,4.7a.6.6,0,0,1-.6,0,2,2,0,0,1-.6-.7,7.4,7.4,0,0,1-.5-2.8,8.9,8.9,0,0,1,.3-3.3q.3-1.5,1.2-1.8c.3-.2.6-.1,1,.2a3.7,3.7,0,0,1,.8,1.4Z"/></g></g></svg>