<svg xmlns="http://www.w3.org/2000/svg" viewBox="0 0 92.8 126.2"><defs><style>.a{fill:none;stroke:#000001;stroke-miterlimit:10;stroke-width:0.28px;fill-rule:evenodd;opacity:0.98;}</style></defs><title>Owen</title><path class="a" d="M72.5,41.6l.8-.3h0a21.5,21.5,0,0,0,6.6-4.5c4.2-5.2-.8-10.8-.8-16.2s2.4-9.5.4-14.1S75.4,2.1,72,1.9A14.6,14.6,0,0,0,64.1,4c-2,1.4-12.3,11.7-12.4,11.7a3.4,3.4,0,0,0-1-1.6,3,3,0,0,0-1.6-.5h-3a3.1,3.1,0,0,0-1.3.3c-.6.4-1.1,1-1.1,1.3-3.3-4.4-7.2-9.1-11.5-12.4A14.5,14.5,0,0,0,24.5.1c-3.3,0-6.3,1.1-7.7,4.1s-.3,9.5-.7,14-5.8,10.7-1.9,16.1a17.2,17.2,0,0,0,7.7,5.9h.4a46.3,46.3,0,0,0,24.1,85.8,45.8,45.8,0,0,0,35-16.1,34.7,34.7,0,0,0,3-3.7l.3-.5h0l.5-.8a2.1,2.1,0,0,0,.4-.6,22,22,0,0,0,1.5-2.6h.1l.7-1.4.5-.9c.5-1.2,1-2.4,1.4-3.6l.2-.3.3-1.1a44.3,44.3,0,0,0,2.4-14.6A46.1,46.1,0,0,0,72.5,41.6ZM70.6,5.1c3.7-1.2,5.2,1.7,3.5,5.3a25.6,25.6,0,0,1-15.8,6.2A19.3,19.3,0,0,1,70.6,5.1ZM61.1,35.3V36a42.1,42.1,0,0,0-6.1-1.6,10,10,0,0,0-.8-1.4v-.2a20.9,20.9,0,0,1-2.1-5.6Zm-15-17.9a2.3,2.3,0,0,1,1.6-.6,2.6,2.6,0,0,1,1.5.7,2,2,0,0,1,.6,1.6,2.4,2.4,0,0,1-.7,1.6,1.8,1.8,0,0,1-1.6.5,1.9,1.9,0,0,1-1.5-.7,2.2,2.2,0,0,1-.6-1.5A2.4,2.4,0,0,1,46.1,17.4ZM56.6,51.5a9.7,9.7,0,0,0,4.3,1.2,19.2,19.2,0,0,1-4.5,3.9,22.1,22.1,0,0,1-5.3,2.7,14.6,14.6,0,0,1-4.9.9,6.7,6.7,0,0,1-2.7-.7v-.3h-.3l-.5-.4a2,2,0,0,1-.3-2.2,6.9,6.9,0,0,1,1.7-3.1,24.3,24.3,0,0,1,7.5-6l.4.4A15.7,15.7,0,0,0,56.6,51.5Zm-3.4-4.6a15.7,15.7,0,0,1,6-1.4,5.4,5.4,0,0,1,3.9,1.2,1.8,1.8,0,0,1,.4,1,1.7,1.7,0,0,1-.4,1.2,3.4,3.4,0,0,1-1.7.9,6.3,6.3,0,0,1-2.4.1,8.8,8.8,0,0,1-2.9-.9A11.9,11.9,0,0,1,53.2,46.9Zm-6.8-7.6h1.4V40a10.9,10.9,0,0,0,1.8,4.9A19.8,19.8,0,0,0,43,50.1a11.2,11.2,0,0,0-2,3.3,8,8,0,0,0-.4,3.7,6.3,6.3,0,0,0,1,2.7l-4.3,1.1-3.4-3.2,1.8-2.1,3,.2-1.5-2.5.8-3.2-3.1.9-2.2-2.1-.2.8-1.9-3,1.5-4.8A39.9,39.9,0,0,1,46.4,39.3Zm3.4,31.5H48.6l-.7.8-.4-1.1L46.4,70l1-.6.2-1.1.9.7,1.1-.3-.4,1.2Zm4.8,16.3H51.7l-1.6,1.8-.9-2.6L46.7,85,49,83.6l.3-2.5,2.2,1.6L54,82l-.8,2.9Zm8.3-2.4H62l-.6.6-.3-.8-.8-.4.8-.5v-.8l.7.5.8-.2-.3.9Zm1.3-1,.6-1.7h.1l.8.8,1.2.6a4.7,4.7,0,0,0,1.6.4h1l-1.5.8h-.1c0,.1,0,.1.1.2l1.5,1.6h.3l6.5-3.4a8.8,8.8,0,0,1,2.9-.6c.7,0,1.3.1,1.5.4s-.6,1.4-2.8,2.7l-2.5,1.4a3.8,3.8,0,0,0-1.1,1.1,2.5,2.5,0,0,0-.8,1.7v.4l-6.8,1.4-5.1-4.1,1.1-1.5,3.1.2Zm4.5,16H66.3L65,101.1l-.8-2.2-2-.9,1.9-1.2.2-2.1,1.8,1.4,2.1-.6-.7,2.4ZM60.8,89.5l-3.2-4.8,2.1.9Zm0,2-.4,3.4-5.8,3.8,3,1.3-2,.7-2.8-2.2-.4,3.7-2,1,3.5-10.5-2.4.5,2-2.4Zm-7.6,12.1,1-.6.2-1.1.9.7,1.1-.3-.4,1.2.6,1H55.4l-.7.8-.4-1.1Zm.6,4.9-2.5-4,1.7.8Zm-7.1-2-3.6-.2-2,2.2L40,105.4,36.9,104l2.9-1.8.4-3.1,2.6,2,3.1-.9-1,3.6ZM43.6,95.4l-8.2-6.9-.3,3.1-.9-1.3,1.3-3.7-2,.3,2.6-3.4,4.8.4L38,85.8l8,3.3,1.3,5.4Zm-13.3.8,2.1-2.8,2.7.3-.2,5.6-1.4.7-1-1.6.9-2.8Zm-5.6-6.9,2.5-.7-.9-1-2.6.7-1.1-1.1L27.1,86l-1-.9-3.8,1,.7-2.4-1.3.4a12.8,12.8,0,0,1-.4,1.3l-.8-.8.5-2.1.6-2,1.1-.3-.3,1.3.9,1,.6-2.5,2.8,2.8,1.3-.3L25.5,80l5.1,2.3,1.2,5.2-3.2-2.6V89l-3.3,1.9h.1l.4-.4Zm-5-4.8c-.8-.9-1.7-1.7-2.6-2.6a1.1,1.1,0,0,0,.2-.8l3.6-.9L19,82Zm-8.1-6.8,2.6,2.6a1.1,1.1,0,0,0-.2.8l-3.6,1,1.9-1.9Zm6.8-3.2,1,1,1.3-.3-1.8-1.8,3.8-1,.2-1,1.8.8.5,1.6-.8.2-1.1,3.8-1.7-1.7-.4,1.3,1,.9-1.1.4-1.5-1.5-1.5-1.5Zm-.1-4.6c0-.1.2-.2.4-.2s.3.2.2.4-.2.3-.4.2S18.2,70.1,18.3,69.9Zm9.6,1.6h-1l-.6.7-.3-1-.9-.4.9-.5v-.9l.7.6.9-.2-.3,1Zm1-23.2H27.2l-1,1-.5-1.5L24.2,47l1.4-.8V45h.2l1.1.8,1.5-.5L28,47Zm-2.5,9.9V56.8l1.2.9,1.4-.4-.5,1.6.8,1.2H27.8l-.9,1-.4-1.4L25.1,59Zm1.7-2.7-2.2-2,2.3-3.1,4.2.3v1.6L30,53.7l1.5.8Zm3.9-.8.9.3.4,2.3-.8-.6-.3,3.9-1.6-2.1Zm4-.5H34.9l-.6.7-.3-.9-.9-.5.9-.5v-.8l.7.5.9-.2-.3,1ZM32.7,69.3l.9,3.3-3.4-2.7h0l-.3,1.7L29,70.3l.8-2.1Zm4.1,11.4H34.6l-1.2,1.3L32.7,80l-1.8-.8,1.7-1.1.2-1.8,1.6,1.2,1.9-.6-.6,2.2ZM30,73.1l-.2,3.2-1,.7-1.6.4.7-2.6-1.3.4-.7,2.5-1.5.4,1-3.6.2.7,2-2.4ZM25.7,79l-.8.4-.2-.2Zm-7.6-.4,2.6.7-3.6,1-.3-.4a.1.1,0,0,0-.1-.1h-.2c.3-1.2.6-2.4,1-3.6Zm-2.5.8h-.8l-2.6-2.5,2.5.6,1.9-1.8C16.3,77,16,78.2,15.6,79.4ZM14.2,82l.3.3a.1.1,0,0,0,.1.1h.2l-.9,3.5-.7-2.5-2.6-.7Zm1.5.8h.8l2.6,2.6-2.5-.7-1.9,1.9C15,85.2,15.4,84,15.7,82.8Zm14.7,7.4V89.1l.9.7,1.1-.3-.3,1.3.6.9H31.5l-.7.8-.4-1.1-1-.5Zm1,9.4H30.2l-.6.7-.4-1-1-.5,1-.5v-1l.8.6,1-.3-.3,1.2Zm-.5,1.5H32l-2.2,1.3ZM46.5,73.2l-1-.5-.3,8.4-3.1,2.1-3.2-4.8,2.2-5.9-4.7,1,2.2-2.8,5.9.5,1.6.5Zm-9.4-5.5L35.9,69l-.7-1.9-1.8-.8,1.7-1.1.2-1.8,1.6,1.2,1.9-.6-.6,2.2,1.1,1.6ZM40,32.9h0a.1.1,0,0,0-.1.1h-.1l-.7,1a64.2,64.2,0,0,0-6.3,1.5v-.3l.6-.9L42.7,27A24.3,24.3,0,0,1,40,32.9ZM21.8,8.5c-1.4-3.7.3-6.5,4-5.1A20.3,20.3,0,0,1,37.2,15.8,25.6,25.6,0,0,1,21.8,8.5ZM21,48.3l2.9,1.1.6,2.1v5.3l-3.7,2.5L24.8,61l1.3,4.1,2.5-3.2,3.5.3v.9l-5.4,3.5,1.8,1.1-1.2.3-2.5-2-.3,3.1-2.5,1.7.7.4-4,1.1.4-1.5,2.5-.7.4-1.3-2.6.7.4-1.5-1.1-.3-.4,1.5-1.9-1.8L16,68.6l1.9,1.9L17.5,72l-3.3-3.2L13.9,70l2.8,2.8-2.4.7.9.9,1.3-.4-.3,1.2-2,.5-2,.6-.9-.8,1.4-.4.3-1.3-2.4.7,1-3.8-.9-1L9.5,74.2,8.4,73.1l.7-2.6-1-.9-.6,2.6-.8-.8A40.5,40.5,0,0,1,21,48.3ZM6.5,72.8l.2.2H6.4C6.4,72.9,6.5,72.9,6.5,72.8Zm-.2,1.4,1.3-.3L8.7,75l-2.6.7A7.7,7.7,0,0,1,6.3,74.2Zm-.4,5.6A28.1,28.1,0,0,1,6,76.9l3-.8-.7,2.4,1.3-.3a11.9,11.9,0,0,1,.4-1.4l.8.8L9.7,81.7,8.6,82A11.1,11.1,0,0,1,9,80.7l-1-1-.6,2.5L5.9,80.7Zm0,2.6.7.6H6A1.7,1.7,0,0,0,5.9,82.4Zm.2,1.9.8-.2L6.3,86A11.1,11.1,0,0,0,6.1,84.3Zm24.8,30.4-2.3,1.5a41.1,41.1,0,0,1-21.9-28H7l1-3.8,1.8,1.7.3-1.2-1-1,1.1-.3,1.5,1.5,1.5,1.4-.3,1.2-1-1-1.2.3,1.7,1.8-3.8,1-.3,1.3,4.4-1.2-.4,1.5-2.5.7-.4,1.3,2.6-.7-.4,1.6h1.1l.4-1.5L15,94.8l.3-1.2-1.9-1.9.4-1.5,3.3,3.3.3-1.3-2.8-2.8,2.5-.7-1-.9-1.3.4.3-1.2,2-.5,2-.6.9.9-1.4.3-.3,1.3,2.4-.7-1,3.9.9.9L21.8,88l1.1,1.1-.7,2.6,1,.9.7-2.5L25,91.2l.2-.2,3.6,1.8.8,2.7L28,94.3l-.3,2.9-2.5,2,2.8,1.2.7,2.4L26,104.9l9.8,4.1,1,3.3-2.5.8-3-2.5Zm3.2,2.7-.8.8h0l-.4-1.2-1.1-.5,1-.7.2-1.1,1,.7,1.2-.3-.4,1.3.6,1.1Zm3.2-2.9,1.1,3.9-1.8-2.6Zm39.6-9h.9l-.8.9H76a.8.8,0,0,0-.7.8c-.1.3.1.5.4.6l-1,1.1c-.2,0-.3.1-.4.3a40.3,40.3,0,0,1-27.9,11.2,44.3,44.3,0,0,1-9-1h1.5l6.6-8.2,10.4.8-1.8-3,2-3,3.6.3-1.9-3.2,1.1-2.7,2.6,1.3,1.8,7,4.8-5.6,6,.3c0,.1.1.2.1.3a.7.7,0,0,0,1,.3,26.1,26.1,0,0,1,2.8-1.7l1.2.3-2.6,1.6A.7.7,0,0,0,76.9,105.5Zm-3.3-5c0-.2.2-.3.4-.2s.3.2.3.4a.4.4,0,0,1-.5.2.1.1,0,0,1-.1-.1h-.1Zm.7,1.3.4-.3,1.3.3-1.2.8Zm2.5-.5c0-.2.2-.3.4-.3a.5.5,0,0,1,.3.4.5.5,0,0,1-.5.3A.3.3,0,0,1,76.8,101.3Zm4.2-.4-.5-.8.8.4Zm-2.2-3.3c-.6-.4-1.3.4-.9,1l1.6,2.6-1.2-.3-1.7-2.7a.7.7,0,1,0-1.2.7l.9,1.5-1.2-.3a14,14,0,0,1-1-1.6c-.3-.3-.7-.5-1-.3a.7.7,0,0,0-.3,1l.3.5h-.2l-1.6-2.4,2.3-6.3.4.6.9.7a3.3,3.3,0,0,0,1.3.4,6.1,6.1,0,0,0,2.2-.2l1.1-.3a1.4,1.4,0,0,0,.2.6l-.5-.2a.7.7,0,0,0-1,.3c-.1.3,0,.8.3.9l1.8,1,.3,1.2L79,95a.7.7,0,0,0-.9.3.7.7,0,0,0,.3,1l2.8,1.5a5.6,5.6,0,0,0,.4,1.2Zm1.7-4.4a.4.4,0,0,1,.5.2c0,.2-.1.4-.3.4s-.3,0-.4-.2A.3.3,0,0,1,80.5,93.2ZM81.7,97l-.5-.2a.5.5,0,0,1,.3-.5c.2,0,.4.1.4.3S81.9,96.9,81.7,97Zm1,.9-.2-.5a25.4,25.4,0,0,0,1.6-2.8.8.8,0,0,0-.3-1,.7.7,0,0,0-1,.3L82,95.5a5.6,5.6,0,0,1-.4-1.2l.9-1.7a.7.7,0,0,0-1.2-.8l-.3.5a2.5,2.5,0,0,0-.2-.7,1.1,1.1,0,0,0,.8-.3h.2v-1c.1-.1,0-.1-.1-.1l-1.5.5h-.4c-.2,0-.3.1-.3.2l-1.5.3c-1.2.1-1.9.1-2.2-.2s-.1-.4.1-.7a4.6,4.6,0,0,1,1.4-1l3.6-2A4.4,4.4,0,0,0,82.4,86a2.5,2.5,0,0,0,.5-1.5,2.3,2.3,0,0,0-.6-1.6,3.3,3.3,0,0,0-.6-.6l-.9-.5-1.3-.2.8-.4a.1.1,0,0,0,.1-.1v-.2l-1.6-1.6h-.3l-4.9,2.6-2.6.6a6.9,6.9,0,0,1-2.1-.1l-1.5-.6a2.7,2.7,0,0,1-.8-.7,1.3,1.3,0,0,1-.4-1.2,5,5,0,0,1,.8-1.4,3,3,0,0,1,.8-.8A9.3,9.3,0,0,0,70,79a6.1,6.1,0,0,0,3,.5,2.9,2.9,0,0,0,2.4-1.2,1.9,1.9,0,0,0,.6-1.7,3.8,3.8,0,0,0-.9-1.8,4,4,0,0,0-3-1.3,8.2,8.2,0,0,0-3.7.6,7.8,7.8,0,0,0-1.8,1.1c-1.2.3-1.9.3-2.2,0a1,1,0,0,1-.2-1.2,9.9,9.9,0,0,0,4.7-3.2,1.7,1.7,0,0,0,.6-1.2.8.8,0,0,0-.2-.8c-.4-.5-1.2-.4-2.4.2a8.8,8.8,0,0,0-3.2,2.6,3.6,3.6,0,0,0-.7,1,9.5,9.5,0,0,1-2.8.4,3,3,0,0,1-1.7-.6c-.1-.1-.1-.2,0-.4a.5.5,0,0,1,.3-.5A8.2,8.2,0,0,1,61,69.6a62.6,62.6,0,0,1,5.5-3.1c.1,0,.1-.1.1-.2h0L65,64.5h-.3L60.3,67a22.5,22.5,0,0,1-4,1.1c-1,.2-1.7.1-2-.2a.6.6,0,0,1,.1-.7,10.1,10.1,0,0,1,2-1.5c.9-.6,3-1.7,6.2-3.4h.1V62l-1.5-1.6h-.4l-4.7,2.6-2.2,1.4-.9,1a2.7,2.7,0,0,0-.8,1.8,1.9,1.9,0,0,0,.5,1.6c.9.9,2.6,1.1,5,.4l-.4.5a2.9,2.9,0,0,0-.8,1.9,2.3,2.3,0,0,0,.6,1.9,4.5,4.5,0,0,0,2.3,1,7.4,7.4,0,0,0,3.3-.1,2.4,2.4,0,0,0,.6,1.8,2,2,0,0,0,1.5.6h.4A6.1,6.1,0,0,0,64,79.3a3.2,3.2,0,0,0,.2,1.7l-2.1.5-2.4-1.9-.3,3.1-2.1,1.1,2.9-7.6-8,2-4.6-3.7,1.9-1.9h3.4l-1.8-3,1.2-3.8L48.7,67l-2.8-2.6-.4,4-1.5.7-2.5-3.8,1.4-4.1a8.4,8.4,0,0,0,2.7,1.3,10.8,10.8,0,0,0,4.4.2,19.9,19.9,0,0,0,4.6-1.3A19.2,19.2,0,0,0,59,58.9a19.1,19.1,0,0,0,3.6-3.3A12.8,12.8,0,0,0,64.3,53a10.2,10.2,0,0,0,.8-2.5,7.4,7.4,0,0,0,0-2.1,7.8,7.8,0,0,0-.5-1.8,5.4,5.4,0,0,0-.9-1.2,8.1,8.1,0,0,0-5.5-2.5,14.8,14.8,0,0,0-7,1.2,7.6,7.6,0,0,1-1-4.2c0-.2.1-.3.1-.4A40.6,40.6,0,0,1,82.7,97.9Zm-13.9-21a9.4,9.4,0,0,1,3.3-1.4c1.2-.2,1.9-.1,2.3.4s.2.2.1.2-.5.9-1.3,1.2A5,5,0,0,1,68.8,76.9Z"/></svg>