<?xml version="1.0" encoding="UTF-8" standalone="no"?>
<!DOCTYPE svg PUBLIC "-//W3C//DTD SVG 1.1//EN" "http://www.w3.org/Graphics/SVG/1.1/DTD/svg11.dtd">
<svg width="100%" height="100%" viewBox="0 0 1123 794" version="1.1" xmlns="http://www.w3.org/2000/svg" xmlns:xlink="http://www.w3.org/1999/xlink" xml:space="preserve" xmlns:serif="http://www.serif.com/" style="fill-rule:evenodd;clip-rule:evenodd;stroke-linejoin:round;stroke-miterlimit:2;">
    <path d="M0.763,233.654C1.257,185.132 27.188,142.701 65.84,118.992C65.398,118.817 65.044,118.669 64.75,118.492L64.722,118.492C55.281,115.374 48.341,108.758 41.958,101.287C30.577,85.318 46.666,69.791 47.751,53.967C48.723,40.557 42.782,25.706 49.694,12.56C53.84,3.853 62.664,0.531 72.427,0.768C81.014,1.208 89.338,4.267 95.161,8.707C107.57,18.236 119.159,31.999 128.776,45.146C128.776,44.116 130.394,42.292 132.157,41.293C133.276,40.617 134.598,40.263 136.01,40.263L144.597,40.263C146.422,40.263 148.067,40.88 149.422,41.91C150.863,43.057 151.891,44.704 152.273,46.587C152.802,46.587 182.859,16.178 188.975,12.177C195.124,8.148 203.623,5.737 212.21,5.942C221.975,6.413 230.502,10.413 234.032,19.412C239.942,32.998 232.913,47.381 232.854,60.821C232.825,76.702 247.707,93.348 235.179,108.435C229.972,113.729 222.856,118.846 215.857,121.903L215.797,121.903C215.417,122.021 214.603,122.283 213.44,122.66C235.706,137.872 253.229,159.522 263.318,184.913L263.635,185.717C269.445,200.605 272.705,216.771 272.875,233.676L272.882,235.085L272.88,235.812L272.866,237.183L272.848,238.157L272.816,239.357L272.777,240.461C272.271,253.525 269.932,266.101 265.999,277.951C265.659,278.997 265.294,280.017 264.925,281.008L264.5,282.186C263.205,285.714 261.764,289.155 260.177,292.537C259.764,293.448 259.353,294.331 258.911,295.213C258.206,296.654 257.441,298.096 256.707,299.508C256.647,299.565 256.619,299.654 256.588,299.713C255.177,302.329 253.677,304.919 252.09,307.419C251.717,307.987 251.375,308.559 250.98,309.103L250.882,309.252C250.472,309.92 250.043,310.551 249.594,311.192L249.354,311.546L249.354,311.565C249.088,312.005 248.794,312.416 248.472,312.829C245.795,316.713 242.913,320.415 239.854,323.976C215.151,352.578 178.758,370.759 138.144,371.142L136.819,371.148C133.222,371.148 129.657,371.008 126.124,370.733C59.482,365.554 6.326,312.384 1.167,245.731C0.895,242.217 0.756,238.667 0.756,235.085L0.763,233.654ZM28.751,280.397C40.488,308.332 62.752,330.776 90.57,342.754C86.43,339.961 82.52,336.774 78.888,333.213C75.47,329.86 75.47,324.406 78.888,321.053C82.307,317.7 87.87,317.7 91.289,321.053C93.511,323.232 95.866,325.23 98.335,327.046C102.763,312.408 102.398,299.836 101.771,293.577L92.474,300.653C89.142,303.191 84.772,303.273 81.343,300.862C77.913,298.45 76.589,294.365 77.972,290.454L85.343,269.604L86.265,255.979C86.324,255.115 86.821,254.338 87.589,253.91C88.356,253.482 89.292,253.461 90.078,253.854C90.199,253.915 91.551,254.595 93.379,255.698L90.219,242.394L72.795,235.617L73.743,234.921L60.959,228.962L55.458,232.149L69.292,238.586L62.38,242.58L48.557,236.132L40.419,240.826L51.529,246.478L40.419,252.14L48.557,256.834L62.38,250.385L69.292,254.369L55.458,260.817L60.959,263.993L74.793,257.544L81.694,261.528L67.871,267.976L78.895,274.349C80.197,275.092 80.639,276.761 79.885,278.064C79.131,279.377 77.474,279.818 76.16,279.065L65.136,272.702L66.471,287.903L59.571,283.92L58.236,268.719L52.734,265.532L54.059,280.733L47.158,276.75L45.834,261.549L37.695,256.856L38.352,269.3L27.898,262.507L27.898,271.906L40.397,280.658L40.397,288.624L28.794,280.5L28.751,280.397ZM233.012,301.959C231.873,301.683 230.731,301.431 229.591,301.155C226.915,302.799 224.267,304.448 221.621,306.066C220.62,306.683 219.327,306.417 218.65,305.447C218.445,305.153 218.326,304.8 218.297,304.448L200.475,303.418L187.72,318.623C190.354,318.261 193.125,319.071 195.146,321.053C196.802,322.677 197.715,324.836 197.714,327.133C197.714,329.43 196.802,331.589 195.146,333.213C191.721,336.571 188.049,339.597 184.169,342.273C198.375,335.983 211.1,326.95 221.671,315.847C221.653,315.726 221.646,315.602 221.65,315.475C221.681,314.328 222.62,313.389 223.767,313.36L223.978,313.353C224.787,312.453 225.583,311.54 226.362,310.616C224.439,310.455 223.754,307.872 225.474,306.802C227.928,305.293 230.355,303.762 232.807,302.252L233.012,301.959ZM152.231,328.2C153.857,330.702 156.365,333.727 158.432,336.092C151.639,338.426 144.423,339.645 137.018,339.645C130.424,339.645 123.98,338.678 117.851,336.819L122.432,328.338C127.245,329.627 139.269,332.015 152.231,328.2ZM177.773,297.679C179.293,301.583 178.384,304.766 175.569,303.113C175.843,310.356 177.192,319.266 178.76,324.648C180.13,323.509 181.461,322.312 182.746,321.053C183.762,320.056 184.968,319.356 186.251,318.952L181.093,299.3L177.773,297.679ZM223.767,299.771C222.62,300.476 221.444,301.212 220.268,301.948L218.827,299.713C219.267,299.448 219.709,299.183 220.151,298.889C221.356,299.183 222.561,299.477 223.767,299.771ZM253.653,243.948C241.751,250.109 234.331,254.007 231.395,255.642C227.704,257.696 225.216,259.469 223.949,260.987C223.528,261.491 223.321,261.874 223.621,262.197C223.95,262.55 224.446,262.757 225.092,262.86C225.856,262.981 226.807,262.949 227.947,262.774C230.363,262.403 233.947,261.36 238.703,259.653C238.752,259.635 238.803,259.623 238.855,259.617C239.246,259.575 239.498,259.713 239.654,259.88C239.807,260.044 239.922,260.293 239.864,260.641C239.852,260.919 239.813,261.455 239.747,262.248L239.646,263.472C239.619,264.054 239.339,264.387 238.909,264.537C235.146,265.983 232.087,267.039 229.734,267.706C227.309,268.393 225.335,268.701 223.815,268.645C222.219,268.586 221.023,268.326 220.219,267.901C219.429,267.483 218.545,266.76 217.577,265.719C216.331,264.38 215.798,262.599 216.027,260.361C216.214,258.538 216.834,256.872 217.889,255.365C215.85,255.642 214.143,255.717 212.768,255.597C211.061,255.447 209.433,255.031 207.884,254.349C206.331,253.665 205.193,253.02 204.465,252.425C203.751,251.841 202.964,251.09 202.107,250.169C199.821,247.711 198.924,244.894 199.404,241.721C199.679,239.902 200.292,238.114 201.245,236.36C198.332,237.138 195.702,237.591 193.356,237.723C193.05,237.74 192.745,237.753 192.442,237.762L189.181,246.452L193.977,254.57L184.8,253.892L181.418,258.158L196.505,270.363L217.563,265.832L210.092,286.304L214.679,293.332C214.886,293.39 215.092,293.448 215.297,293.478C215.003,293.008 214.709,292.537 214.444,292.068C213.827,291.067 214.15,289.772 215.209,289.213C216.208,288.655 217.503,289.009 218.12,289.979C219.121,291.624 220.12,293.244 221.091,294.862C222.326,295.154 223.533,295.448 224.738,295.744C223.798,294.214 222.885,292.712 221.975,291.213C221.356,290.183 221.681,288.89 222.737,288.331C223.738,287.802 225.032,288.125 225.65,289.124C227.268,291.772 228.915,294.449 230.531,297.123C231.737,297.39 232.973,297.682 234.178,297.978C232.591,295.39 231.002,292.802 229.414,290.214C228.325,288.419 230.296,286.304 232.178,287.303C232.847,287.663 233.514,288.023 234.18,288.383L238.176,290.544C238.654,290.802 239.133,291.061 239.613,291.319C239.716,291.13 239.819,290.941 239.922,290.753C239.654,289.848 239.386,288.951 239.12,288.037C236.355,286.567 233.619,285.068 230.856,283.596C229.854,283.068 229.414,281.773 229.914,280.745C230.414,279.657 231.678,279.244 232.737,279.803C234.297,280.656 235.855,281.479 237.414,282.332C237.06,281.125 236.708,279.949 236.355,278.744C234.65,277.832 232.973,276.95 231.296,276.039C230.296,275.48 229.885,274.216 230.356,273.186C230.856,272.098 232.12,271.685 233.179,272.244C233.649,272.509 234.149,272.774 234.65,273.038C234.266,271.833 233.915,270.626 233.561,269.393C233.238,268.303 233.795,267.097 234.943,266.745C236.061,266.422 237.208,267.127 237.531,268.215C237.884,269.42 238.267,270.626 238.618,271.833C238.885,271.362 239.149,270.861 239.414,270.392C239.973,269.331 241.266,269.01 242.265,269.627C243.266,270.215 243.589,271.508 243.059,272.538L240.325,277.569L241.383,281.125C242.236,279.569 243.09,278.039 243.912,276.479C244.491,275.437 245.727,275.106 246.747,275.686C250.449,265.678 252.823,255.027 253.653,243.948ZM202.504,293.509L195.447,293.184L191.358,297.567L189.212,291.301L183.182,288.507L188.858,285.008L189.565,278.948L194.77,282.891L201.006,281.098L198.946,288.154L202.504,293.509ZM144.712,285.874L145.927,285.831C153.666,285.755 159.844,286.382 165.152,287.752L177.948,279.302L179.124,269.362L157.803,267.421L144.712,285.874ZM96.372,257.636C97.666,258.539 98.998,259.563 100.194,260.664C108.144,261.53 115.866,266.542 122.586,275.216C126.172,279.845 128.6,284.364 129.777,286.756C132.882,286.467 135.79,286.245 138.527,286.09L139.258,286.065L135.51,262.245L112.218,252.716L120.717,247.071L106.454,245.776L96.372,257.636ZM94.108,273.251C95.738,273.251 97.061,274.548 97.061,276.146C97.061,277.744 95.738,279.041 94.108,279.041C92.479,279.041 91.156,277.744 91.156,276.146C91.156,274.548 92.479,273.251 94.108,273.251ZM238.775,263.866L238.981,264.094C238.831,264.094 238.687,264.043 238.571,263.952L238.68,263.91C238.715,263.899 238.747,263.884 238.775,263.866ZM239.64,263.525L239.646,263.476C239.643,263.51 239.638,263.544 239.63,263.576L239.64,263.525ZM169.743,249.334L176.007,252.188L179.241,263.569L169.743,249.334ZM137.657,250.424L144.568,246.216L145.391,238.864L151.685,243.658L159.242,241.481L156.745,250.011L161.037,256.48L152.508,256.069L147.568,261.394L144.979,253.804L137.657,250.424ZM146.029,173.864C146.7,173.17 147.525,172.441 148.504,171.678C150.006,170.508 151.814,169.369 153.927,168.264L185.611,151.928C185.616,151.926 185.621,151.923 185.626,151.92C186.271,151.609 186.829,151.717 187.302,152.226C187.302,152.226 191.649,156.897 191.649,156.897C191.908,157.175 192.004,157.498 191.945,157.861C191.893,158.189 191.719,158.474 191.388,158.694C191.367,158.708 191.346,158.72 191.324,158.732C191.324,158.732 172.942,168.204 172.943,168.204C174.837,168.546 176.344,169.334 177.47,170.544C179.277,172.486 180.011,174.8 179.666,177.489C179.333,180.085 178.165,182.599 176.142,185.021C173.881,187.729 170.876,190.029 167.121,191.912C163.984,193.484 160.904,194.398 157.881,194.657C159.612,195.783 161.63,196.232 163.932,196.012C166.902,195.728 170.854,194.707 175.789,192.963C178.867,191.234 185.199,188.336 191.147,185.256C191.152,185.253 191.158,185.251 191.164,185.248C191.808,184.937 192.366,185.044 192.839,185.553L193.538,186.304L193.538,186.199C193.564,184.926 194.142,183.766 195.317,182.741C196.434,181.768 197.742,181.198 199.243,181.033C200.792,180.864 202.084,181.178 203.127,181.942C204.234,182.753 204.769,183.823 204.742,185.145C204.717,186.418 204.138,187.578 202.963,188.603C201.847,189.577 200.539,190.147 199.037,190.311C198.389,190.382 197.786,190.368 197.227,190.272C197.459,190.545 197.542,190.878 197.441,191.281C197.356,191.622 197.165,191.894 196.866,192.093C196.845,192.106 196.824,192.119 196.802,192.13C187.646,196.855 179.922,200.519 177.269,202.136C174.694,203.705 172.922,205.052 171.967,206.195C171.546,206.699 171.339,207.082 171.64,207.406C171.796,207.573 172.099,207.638 172.516,207.692C173.406,207.806 174.715,207.73 176.442,207.479C179.015,207.106 182.097,206.318 185.688,205.121C185.878,205 186.072,204.88 186.269,204.761C188.747,203.264 191.328,202.128 194.01,201.352C196.734,200.565 199.435,200.382 202.115,200.801C204.856,201.229 207.108,202.397 208.875,204.297C210.81,206.376 211.442,208.663 210.769,211.156C211.368,210.907 211.89,211.03 212.337,211.51C212.337,211.51 216.629,216.123 216.629,216.123C216.891,216.405 216.991,216.754 216.884,217.179C216.799,217.521 216.608,217.792 216.309,217.991C216.288,218.005 216.267,218.017 216.245,218.028L189.377,231.887C194.48,232.551 200.34,231.792 206.959,229.631C208.552,228.385 210.359,227.325 212.38,226.449C215.93,224.912 219.514,224.29 223.133,224.579C226.464,224.846 229.172,225.951 231.265,227.876L241.461,225.405C242.062,225.259 242.752,225.972 243.001,226.996L243.9,230.708C244.149,231.732 243.862,232.682 243.26,232.828L234.605,233.062C234.689,233.378 234.753,233.695 234.796,234.013C235.057,235.923 234.47,237.768 232.993,239.537C231.099,241.806 228.583,243.027 225.439,243.188C222.387,243.344 219.535,242.831 216.884,241.653C214.468,240.58 212.437,239.295 210.787,237.803C210.144,238.363 209.56,238.956 209.036,239.585C207.971,240.86 207.293,242.116 207.019,243.365C206.775,244.474 207.023,245.433 207.772,246.238C208.383,246.895 209.157,247.492 210.09,248.033C211.048,248.588 212.327,249.095 213.923,249.561C215.515,250.025 217.509,250.138 219.904,249.917C222.002,249.723 224.234,249.235 226.597,248.454C229.977,246.534 239.103,241.725 253.979,234.028C253.53,183.688 221.276,140.89 176.357,124.77C177.348,126.002 178.34,127.191 179.331,128.335C182.037,129.366 184.33,130.894 186.21,132.915C187.288,134.073 187.857,135.73 187.859,137.904C187.861,140.031 187.126,141.988 185.638,143.77C184.617,144.993 182.827,146.345 180.255,147.805C177.759,149.221 174.854,150.693 171.539,152.221C168.27,153.727 166.445,154.584 166.063,154.796C166.059,154.799 166.055,154.801 166.051,154.803C156.244,159.982 149.029,164.128 144.406,167.243C142.482,168.539 140.721,169.851 139.124,171.179C141.388,171.917 143.875,172.847 146.029,173.864ZM175.525,238.276C174.355,238.705 173.274,239.061 172.282,239.344C172.046,239.412 171.814,239.475 171.585,239.534L168.771,246.775L175.154,243.424L175.525,238.276ZM136.951,215.603L134.158,214.25L133.128,238.953L124.099,244.982L114.747,230.777L121.159,213.484L107.513,216.397L113.805,208.336L131.216,209.631L135.804,211.22L136.951,215.603ZM108.423,237.6L102.159,237.308L98.513,241.218L96.601,235.629L91.221,233.158L96.278,230.041L96.897,224.63L101.543,228.16L107.101,226.542L105.276,232.835L108.423,237.6ZM191.577,237.778C187.822,237.801 184.317,237.207 181.062,236.001C180.332,236.328 179.624,236.635 178.94,236.923L183.007,240.159L191.577,237.778ZM229.144,232.605C229.215,232.682 229.269,232.755 229.276,232.838C229.205,233.311 228.909,233.735 228.431,234.139C227.835,234.642 226.975,235.097 225.859,235.518C225.856,235.519 225.853,235.52 225.85,235.521C222.275,236.924 218.625,236.692 214.899,234.846C217.619,233.302 220.377,232.282 223.175,231.79C224.7,231.522 225.98,231.461 227.017,231.621C227.941,231.764 228.655,232.08 229.144,232.605ZM27.866,191.94L27.866,191.939C35.519,172.65 48.152,155.866 64.177,143.178L70.546,145.608L72.309,151.812L72.104,167.459L61.28,174.605L73.22,179.604L77.192,191.927L84.455,182.341L94.748,183.163L94.574,185.811L78.604,196.25L83.984,199.367L80.191,200.339L72.897,194.369L71.956,203.573L66.25,207.577L66.471,205.063L59.571,209.046L58.236,224.247L52.734,227.423L54.059,212.222L47.158,216.205L45.834,231.406L37.695,236.1L38.352,223.655L27.898,230.448L27.898,221.06L40.397,212.308L40.397,204.331L27.898,213.083L27.898,206.731L40.397,197.979L40.397,190.013L27.898,198.754L27.898,191.859C27.888,191.886 27.877,191.913 27.866,191.94ZM171.406,230.855C167.182,232.215 164.079,231.927 162.109,229.809C161.764,229.439 161.584,229.03 161.587,228.575C161.59,228.113 161.737,227.706 162.03,227.356C162.588,226.687 163.346,226.584 164.287,226.96C165.497,227.445 167.869,228.745 171.406,230.855ZM79.742,230.517L67.871,224.979L75.44,220.61L75.691,221.425L81.367,214.368L88.425,215.19L87.866,224.809L84.955,226.69L79.742,230.517ZM20.912,219.942L20.907,219.979L22.451,221.06L22.451,230.448L19.829,228.744C19.884,228.366 20.271,224.663 20.907,219.979L20.855,219.942L20.912,219.942ZM153.018,198.004L150.596,205.25L155.861,214.22L145.892,213.72L140.422,219.337L153.743,230.337L155.465,229.817C155.457,229.73 155.451,229.642 155.446,229.554C155.297,227.041 156.082,224.744 157.815,222.669C158.681,221.632 159.613,220.913 160.6,220.499C161.584,220.086 162.551,219.878 163.5,219.868C164.442,219.858 165.652,220.186 167.121,220.888C168.497,221.546 169.757,222.239 170.901,222.966C172.026,223.682 173.603,224.725 175.629,226.094C176.602,226.745 177.533,227.315 178.423,227.805C179.048,227.493 180.326,226.841 182.256,225.849C180.742,225.501 179.496,224.792 178.511,223.733C176.849,221.947 176.192,219.783 176.554,217.236C176.776,215.67 177.346,214.096 178.272,212.517C175.778,213.179 173.759,213.43 172.215,213.291C170.599,213.144 169.397,212.846 168.602,212.425C167.81,212.006 166.962,211.321 166.068,210.361C164.826,209.026 164.241,207.326 164.339,205.252C164.409,203.755 164.835,202.351 165.622,201.042C164.016,201.424 162.64,201.586 161.496,201.537C160.326,201.487 159.16,201.325 157.999,201.052C156.784,200.766 155.671,200.227 154.659,199.43C154.117,199.004 153.57,198.528 153.018,198.004ZM19.829,228.744C19.826,228.765 19.824,228.776 19.823,228.776C19.822,228.775 19.822,228.764 19.823,228.74L19.829,228.744ZM184.792,219.928C184.497,219.612 184.436,219.186 184.545,218.666C184.687,217.987 185.083,217.28 185.709,216.53C187.207,214.735 189.388,212.976 192.242,211.243C195.104,209.504 197.946,208.31 200.768,207.666C202.119,207.358 203.26,207.255 204.19,207.374C205.006,207.479 205.645,207.754 206.092,208.234C206.636,208.818 206.625,209.68 206.226,210.808C205.756,212.138 204.809,213.532 203.403,215.003C203.403,215.004 197.601,217.967 197.601,217.967C193.238,219.673 189.907,220.579 187.599,220.66C186.275,220.707 185.328,220.504 184.792,219.928ZM65.136,220.264L73.789,215.262L72.986,212.661L66.093,209.374L65.136,220.264ZM96.601,204.074L99.043,213.808L89.278,205.925L89.132,206.044L88.308,210.955L85.514,207.014L88.102,200.839L96.601,204.074ZM82.514,210.544L79.486,210.398L77.72,212.279L76.81,209.574L74.192,208.398L76.662,206.868L76.956,204.28L79.19,205.955L81.867,205.193L80.985,208.221L82.514,210.544ZM144.392,187.814C144.381,187.792 144.37,187.77 144.359,187.748C144.309,182.137 140.261,178.36 136.85,177.99C135.676,177.862 132.359,177.833 131.847,180.525C131.877,180.688 131.903,180.853 131.927,181.022C132,181.538 131.871,181.987 131.55,182.372C130.97,183.066 129.808,183.376 128.019,183.046C127.256,182.905 126.543,182.657 125.881,182.302L122.306,192.398L129.863,203.515L134.01,201.427L135.422,189.809L143.481,197.28L150.518,195.304C149.951,194.613 149.367,193.846 148.765,193.005C148.55,192.923 148.312,192.804 148.053,192.643C147.741,192.45 147.244,192.064 146.567,191.479C145.868,190.874 145.327,190.239 144.939,189.577C144.646,189.077 144.46,188.49 144.392,187.814ZM115.777,199.663L109.482,199.367L105.835,203.281L103.923,197.691L98.543,195.22L103.629,192.104L104.248,186.693L108.894,190.222L114.453,188.605L112.601,194.897L115.777,199.663ZM153.388,186.82C156.166,186.524 159.375,185.385 163.019,183.422C166.929,181.316 169.91,179.046 171.953,176.599C172.598,175.826 173.006,175.156 173.144,174.572C173.243,174.154 173.178,173.8 172.915,173.517C172.592,173.17 172.08,172.943 171.4,172.791C170.606,172.615 169.54,172.576 168.202,172.661C166.832,172.749 165.003,173.216 162.713,174.048C160.368,174.899 157.732,176.059 154.805,177.526L151.388,179.306C151.27,179.513 151.099,179.716 150.871,179.915C149.805,180.846 147.571,183.901 153.388,186.82ZM77.897,171.429L78.337,167.43L81.778,170.016L85.896,168.84L84.543,173.488L86.866,177.018L82.22,176.782L79.544,179.693L78.132,175.546L74.133,173.723L77.897,171.429ZM122.31,176.185C122.319,175.973 122.337,175.758 122.362,175.539C122.598,173.503 123.445,171.602 124.914,169.842C127.394,166.872 130.409,164.157 133.96,161.701C137.334,159.367 142.058,156.577 148.133,153.332C148.133,153.332 139.658,144.224 139.658,144.224C138.704,144.68 137.258,145.364 135.322,146.273C133.057,147.337 131.425,148.096 130.428,148.549C129.429,149.002 127.932,149.66 125.937,150.523C123.919,151.396 122.388,151.998 121.345,152.329C120.315,152.657 119.008,153.068 117.426,153.563C115.774,154.08 114.445,154.353 113.44,154.396C112.51,154.436 111.502,154.454 110.417,154.451L109.747,157.196L114.276,164.488L105.19,163.989L99.925,169.899L109.924,179.399L122.31,176.185ZM94.514,161.341L96.985,162.165L98.159,168.871L95.955,167.105L95.131,178.694L90.337,172.399L94.514,161.341ZM83.074,163.666L76.485,157.665L83.337,148.607L95.69,149.489L95.338,154.195L88.573,158.167L92.865,160.636L83.074,163.666ZM106.1,159.665L103.07,159.548L101.308,161.429L100.396,158.724L97.779,157.519L100.248,156.018L100.544,153.43L102.778,155.108L105.455,154.343L104.571,157.371L106.1,159.665ZM145.893,141.444C159.034,135.867 169.191,133.278 176.384,133.717L177.727,135.159C178.464,135.951 179.148,136.585 179.776,137.064C178.925,137.774 177.757,138.51 176.276,139.278C174.343,140.28 171.688,141.553 168.31,143.098C164.908,144.654 161.993,146.059 159.565,147.315C157.284,148.491 155.451,149.462 154.067,150.229L145.893,141.444ZM167.575,122.005C157.777,119.342 147.463,117.92 136.819,117.92C133.19,117.92 129.6,118.085 126.053,118.409L125.996,118.49C125.083,119.816 124.297,121.363 124.233,123.003C124.217,123.432 124.258,123.864 124.366,124.28C124.879,126.248 126.734,127.554 128.687,127.786C129.793,127.918 130.918,127.769 131.997,127.522C133.143,127.261 134.279,126.842 135.228,126.135C135.489,125.94 135.735,125.723 135.959,125.486C136.288,125.137 136.595,124.713 137.138,124.764C137.828,124.829 138.039,125.577 138.159,126.143C138.241,126.533 138.297,126.919 138.283,127.318C138.25,128.328 137.821,129.263 137.199,130.045C135.183,132.575 132.094,133.915 128.973,134.456C127.02,134.795 125.017,134.813 123.11,134.216C121.079,133.58 119.279,132.284 117.927,130.65C115.488,127.703 115.009,123.706 115.402,120.017L115.418,119.873C107.969,121.251 100.768,123.333 93.883,126.049L90.279,137.638L96.043,146.373L96.424,144.019L102.984,150.225L103.398,150.113C102.807,148.804 102.565,147.243 102.685,145.425C102.868,142.665 103.61,140.538 104.869,139.029C105.415,138.376 105.961,137.93 106.491,137.674C106.891,137.481 107.215,137.408 107.451,137.412C107.77,137.417 108.006,137.537 108.177,137.721C108.248,137.797 108.331,137.92 108.387,138.112C108.436,138.279 108.476,138.564 108.494,138.967C108.506,139.255 108.571,139.488 108.727,139.655C109.509,140.496 110.472,141.066 111.614,141.365C112.828,141.684 114.61,141.701 116.962,141.444C119.387,141.178 122.629,140.375 126.691,139.043C130.797,137.695 135.863,135.793 141.888,133.338C153.518,128.59 163.178,126.37 170.861,126.649C170.598,126.269 170.268,125.796 169.87,125.228C168.855,123.78 168.115,122.739 167.65,122.106L167.575,122.005ZM75.653,135.155C76.528,134.618 77.411,134.092 78.301,133.577L79.749,134.667L84.19,133.374L82.72,138.431L85.251,142.255L80.22,142.02L77.309,145.137L75.78,140.668L71.456,138.668L75.543,136.168L75.653,135.155ZM180.189,106.092C174.413,104.148 168.461,102.581 162.366,101.421C161.639,100.11 160.883,98.715 160.126,97.318C160.038,97.141 159.95,96.995 159.89,96.847C157.125,91.759 155.303,86.083 153.862,80.436L179.889,104.287L180.419,105.288C180.419,105.288 180.253,105.564 180.189,106.092ZM115.274,100.721C108.993,101.722 102.856,103.153 96.893,104.984L96.631,104.2L98.278,101.641L126.011,79.759C123.982,85.819 121.482,91.818 117.923,97.024L117.894,97.024C117.835,97.141 117.775,97.229 117.687,97.318C117.658,97.406 117.57,97.523 117.452,97.671C116.986,98.312 116.204,99.471 115.274,100.721ZM135.95,51.587C137.215,50.409 138.892,49.792 140.627,49.852C142.334,49.909 143.98,50.645 145.127,51.938C146.303,53.174 146.951,54.849 146.862,56.556C146.803,58.291 146.038,59.908 144.803,61.086C143.509,62.26 141.863,62.879 140.128,62.819C138.421,62.762 136.775,62.026 135.628,60.733C134.452,59.497 133.804,57.82 133.864,56.115C133.952,54.35 134.717,52.763 135.95,51.587ZM207.857,15.296C218.916,11.766 223.15,20.353 218.297,30.998C205.298,42.235 188.889,48.674 171.713,49.233C178.065,33.087 191.329,20.618 207.857,15.296ZM64.545,25.293C60.458,14.325 65.338,6.09 76.074,10.442C92.16,16.971 104.454,30.352 109.63,46.91C92.543,45.117 76.633,37.47 64.545,25.293Z" style="fill:none;stroke:rgb(255,0,0);stroke-width:1px;"/>
</svg>
