<?xml version="1.0" encoding="UTF-8" standalone="no"?>
<!DOCTYPE svg PUBLIC "-//W3C//DTD SVG 1.1//EN" "http://www.w3.org/Graphics/SVG/1.1/DTD/svg11.dtd">
<svg width="100%" height="100%" viewBox="0 0 1123 794" version="1.1" xmlns="http://www.w3.org/2000/svg" xmlns:xlink="http://www.w3.org/1999/xlink" xml:space="preserve" xmlns:serif="http://www.serif.com/" style="fill-rule:evenodd;clip-rule:evenodd;stroke-linejoin:round;stroke-miterlimit:2;">
    <path d="M0.763,233.654C1.257,185.132 27.188,142.701 65.84,118.992C65.398,118.817 65.044,118.669 64.75,118.492L64.722,118.492C55.281,115.374 48.341,108.758 41.958,101.287C30.577,85.318 46.666,69.791 47.751,53.967C48.723,40.557 42.782,25.706 49.694,12.56C53.84,3.853 62.664,0.531 72.427,0.768C81.014,1.208 89.338,4.267 95.161,8.707C107.57,18.236 119.159,31.999 128.776,45.146C128.776,44.116 130.394,42.292 132.157,41.293C133.276,40.617 134.598,40.263 136.01,40.263L144.597,40.263C146.422,40.263 148.067,40.88 149.422,41.91C150.863,43.057 151.891,44.704 152.273,46.587C152.802,46.587 182.859,16.178 188.975,12.177C195.124,8.148 203.623,5.737 212.21,5.942C221.975,6.413 230.502,10.413 234.032,19.412C239.942,32.998 232.913,47.381 232.854,60.821C232.825,76.702 247.707,93.348 235.179,108.435C229.972,113.729 222.856,118.846 215.857,121.903L215.797,121.903C215.417,122.021 214.603,122.283 213.44,122.66C235.706,137.872 253.229,159.522 263.318,184.913L263.635,185.717C269.445,200.605 272.705,216.771 272.875,233.676L272.882,235.085L272.88,235.812L272.866,237.183L272.848,238.157L272.816,239.357L272.777,240.461C272.271,253.525 269.932,266.101 265.999,277.951C265.659,278.997 265.294,280.017 264.925,281.008L264.5,282.186C263.205,285.714 261.764,289.155 260.177,292.537C259.764,293.448 259.353,294.331 258.911,295.213C258.206,296.654 257.441,298.096 256.707,299.508C256.647,299.565 256.619,299.654 256.588,299.713C255.177,302.329 253.677,304.919 252.09,307.419C251.717,307.987 251.375,308.559 250.98,309.103L250.882,309.252C250.472,309.92 250.043,310.551 249.594,311.192L249.354,311.546L249.354,311.565C249.088,312.005 248.794,312.416 248.472,312.829C245.795,316.713 242.913,320.415 239.854,323.976C215.151,352.578 178.758,370.759 138.144,371.142L136.819,371.148C133.222,371.148 129.657,371.008 126.124,370.733C59.482,365.554 6.326,312.384 1.167,245.731C0.895,242.217 0.756,238.667 0.756,235.085L0.763,233.654ZM28.751,280.397C40.488,308.332 62.752,330.776 90.57,342.754C86.43,339.961 82.52,336.774 78.888,333.213C75.47,329.86 75.47,324.406 78.888,321.053C82.307,317.7 87.87,317.7 91.289,321.053C93.511,323.232 95.866,325.23 98.335,327.046C102.763,312.408 102.398,299.836 101.771,293.577L92.474,300.653C89.142,303.191 84.772,303.273 81.343,300.862C77.913,298.45 76.589,294.365 77.972,290.454L85.343,269.604L86.265,255.979C86.324,255.115 86.821,254.338 87.589,253.91C88.356,253.482 89.292,253.461 90.078,253.854C90.199,253.915 91.551,254.595 93.379,255.698L90.219,242.394L72.795,235.617L73.743,234.921L60.959,228.962L55.458,232.149L69.292,238.586L62.38,242.58L48.557,236.132L40.419,240.826L51.529,246.478L40.419,252.14L48.557,256.834L62.38,250.385L69.292,254.369L55.458,260.817L60.959,263.993L74.793,257.544L81.694,261.528L67.871,267.976L78.895,274.349C80.197,275.092 80.639,276.761 79.885,278.064C79.131,279.377 77.474,279.818 76.16,279.065L65.136,272.702L66.471,287.903L59.571,283.92L58.236,268.719L52.734,265.532L54.059,280.733L47.158,276.75L45.834,261.549L37.695,256.856L38.352,269.3L27.898,262.507L27.898,271.906L40.397,280.658L40.397,288.624L28.794,280.5L28.751,280.397ZM233.012,301.959C231.873,301.683 230.731,301.431 229.591,301.155C226.915,302.799 224.267,304.448 221.621,306.066C220.62,306.683 219.327,306.417 218.65,305.447C218.445,305.153 218.326,304.8 218.297,304.448L200.475,303.418L187.72,318.623C190.354,318.261 193.125,319.071 195.146,321.053C196.802,322.677 197.715,324.836 197.714,327.133C197.714,329.43 196.802,331.589 195.146,333.213C191.721,336.571 188.049,339.597 184.169,342.273C198.375,335.983 211.1,326.95 221.671,315.847C221.653,315.726 221.646,315.602 221.65,315.475C221.681,314.328 222.62,313.389 223.767,313.36L223.978,313.353C224.787,312.453 225.583,311.54 226.362,310.616C224.439,310.455 223.754,307.872 225.474,306.802C227.928,305.293 230.355,303.762 232.807,302.252L233.012,301.959ZM152.231,328.2C153.857,330.702 156.365,333.727 158.432,336.092C151.639,338.426 144.423,339.645 137.018,339.645C130.424,339.645 123.98,338.678 117.851,336.819L122.432,328.338C127.245,329.627 139.269,332.015 152.231,328.2ZM177.773,297.679C179.293,301.583 178.384,304.766 175.569,303.113C175.843,310.356 177.192,319.266 178.76,324.648C180.13,323.509 181.461,322.312 182.746,321.053C183.762,320.056 184.968,319.356 186.251,318.952L181.093,299.3L177.773,297.679ZM223.767,299.771C222.62,300.476 221.444,301.212 220.268,301.948L218.827,299.713C219.267,299.448 219.709,299.183 220.151,298.889C221.356,299.183 222.561,299.477 223.767,299.771ZM216.587,268.507L210.092,286.304L214.679,293.332C214.886,293.39 215.092,293.448 215.297,293.478C215.003,293.008 214.709,292.537 214.444,292.068C213.827,291.067 214.15,289.772 215.209,289.213C216.208,288.655 217.503,289.009 218.12,289.979C219.121,291.624 220.12,293.244 221.091,294.862C222.326,295.154 223.533,295.448 224.738,295.744C223.798,294.214 222.885,292.712 221.975,291.213C221.356,290.183 221.681,288.89 222.737,288.331C223.738,287.802 225.032,288.125 225.65,289.124C227.268,291.772 228.915,294.449 230.531,297.123C231.737,297.39 232.973,297.682 234.178,297.978C232.591,295.39 231.002,292.802 229.414,290.214C228.325,288.419 230.296,286.304 232.178,287.303C232.847,287.663 233.514,288.023 234.18,288.383L238.176,290.544C238.654,290.802 239.133,291.061 239.613,291.319C239.716,291.13 239.819,290.941 239.922,290.753C239.654,289.848 239.386,288.951 239.12,288.037C236.355,286.567 233.619,285.068 230.856,283.596C229.854,283.068 229.414,281.773 229.914,280.745C230.414,279.657 231.678,279.244 232.737,279.803C234.297,280.656 235.855,281.479 237.414,282.332C237.06,281.125 236.708,279.949 236.355,278.744C234.65,277.832 232.973,276.95 231.296,276.039C230.296,275.48 229.885,274.216 230.356,273.186C230.856,272.098 232.12,271.685 233.179,272.244C233.649,272.509 234.149,272.774 234.65,273.038C234.266,271.833 233.915,270.626 233.561,269.393L233.535,269.297C231.673,269.963 230.058,270.491 228.691,270.882C226.362,271.548 224.467,271.848 223.006,271.797C221.47,271.744 220.318,271.496 219.543,271.088C218.782,270.688 217.929,269.994 216.995,268.995C216.849,268.839 216.713,268.676 216.587,268.507ZM202.504,293.509L195.447,293.184L191.358,297.567L189.212,291.301L183.182,288.507L188.858,285.008L189.565,278.948L194.77,282.891L201.006,281.098L198.946,288.154L202.504,293.509ZM144.712,285.874L145.927,285.831C153.666,285.755 159.844,286.382 165.152,287.752L177.948,279.302L179.124,269.362L157.803,267.421L144.712,285.874ZM96.372,257.636C97.666,258.539 98.998,259.563 100.194,260.664C108.144,261.53 115.866,266.542 122.586,275.216C126.172,279.845 128.6,284.364 129.777,286.756C132.882,286.467 135.79,286.245 138.527,286.09L139.258,286.065L135.51,262.245L112.218,252.716L120.717,247.071L106.454,245.776L96.372,257.636ZM253.374,247.107C240.925,253.581 233.222,257.646 230.264,259.301C226.731,261.278 224.35,262.982 223.139,264.44C222.748,264.91 222.546,265.265 222.827,265.566C223.139,265.9 223.611,266.094 224.223,266.19C224.954,266.305 225.865,266.271 226.954,266.101C229.27,265.741 232.705,264.732 237.262,263.084C237.312,263.066 237.363,263.054 237.415,263.049C237.801,263.006 238.05,263.142 238.205,263.308C238.356,263.469 238.471,263.715 238.415,264.059C238.404,264.326 238.368,264.84 238.306,265.6L238.212,266.774C238.186,267.346 237.911,267.673 237.489,267.821L237.389,267.859C237.446,267.972 237.494,268.091 237.531,268.215C237.884,269.42 238.267,270.626 238.618,271.833C238.885,271.362 239.149,270.861 239.414,270.392C239.973,269.331 241.266,269.01 242.265,269.627C243.266,270.215 243.589,271.508 243.059,272.538L240.325,277.569L241.383,281.125C242.236,279.569 243.09,278.039 243.912,276.479C244.491,275.437 245.727,275.106 246.747,275.686C250.096,266.633 252.358,257.054 253.374,247.107ZM94.108,273.251C95.738,273.251 97.061,274.548 97.061,276.146C97.061,277.744 95.738,279.041 94.108,279.041C92.479,279.041 91.156,277.744 91.156,276.146C91.156,274.548 92.479,273.251 94.108,273.251ZM215.589,266.257C215.435,265.523 215.401,264.717 215.489,263.837C215.663,262.103 216.244,260.516 217.235,259.077C215.303,259.34 213.683,259.414 212.376,259.302C210.736,259.162 209.17,258.766 207.679,258.114C206.184,257.459 205.09,256.841 204.389,256.271C203.701,255.712 202.944,254.992 202.119,254.109C199.913,251.75 199.044,249.041 199.499,245.987C199.757,244.257 200.332,242.556 201.227,240.886C198.455,241.629 195.951,242.065 193.716,242.196C192.714,242.254 191.729,242.269 190.762,242.239L189.181,246.452L193.977,254.57L184.8,253.892L181.418,258.158L196.505,270.363L215.589,266.257ZM237.333,267.162L237.547,267.397C237.392,267.397 237.243,267.343 237.125,267.247L237.259,267.195C237.286,267.186 237.311,267.175 237.333,267.162ZM238.206,266.827L238.211,266.778C238.209,266.812 238.204,266.845 238.197,266.877L238.206,266.827ZM169.743,249.334L176.007,252.188L179.241,263.569L169.743,249.334ZM137.657,250.424L144.568,246.216L145.391,238.864L151.685,243.658L159.242,241.481L156.745,250.011L161.037,256.48L152.508,256.069L147.568,261.394L144.979,253.804L137.657,250.424ZM167.93,122.103C169.47,123.795 171.293,126.066 173.398,128.917C175.611,131.913 177.822,134.681 180.031,137.221C182.632,138.206 184.836,139.669 186.647,141.605C187.687,142.718 188.24,144.313 188.247,146.407C188.254,148.454 187.55,150.339 186.123,152.057C185.144,153.235 183.428,154.538 180.959,155.947C178.567,157.311 175.782,158.731 172.604,160.204C169.473,161.656 167.723,162.482 167.358,162.686C167.354,162.689 167.35,162.691 167.346,162.693C157.949,167.683 151.036,171.676 146.608,174.675C145.092,175.702 143.682,176.738 142.378,177.784C145.645,178.581 149.391,178.646 152.288,177.605C153.318,176.921 154.461,176.248 155.717,175.588L186.081,159.844C186.086,159.841 186.092,159.839 186.097,159.836C186.727,159.53 187.273,159.634 187.737,160.131C187.737,160.131 191.918,164.604 191.918,164.604C192.173,164.877 192.268,165.193 192.211,165.551C192.161,165.872 191.991,166.153 191.666,166.369C191.646,166.383 191.625,166.396 191.603,166.407C191.603,166.407 174.057,175.5 174.057,175.5C175.846,175.832 177.272,176.583 178.344,177.729C180.087,179.594 180.799,181.82 180.473,184.409C180.159,186.906 179.041,189.325 177.103,191.657C174.937,194.264 172.056,196.479 168.453,198.296C165.471,199.8 162.541,200.681 159.663,200.946C161.307,201.988 163.216,202.399 165.388,202.186C168.235,201.907 172.021,200.92 176.749,199.237C179.699,197.571 184.023,195.255 189.722,192.287C189.727,192.285 189.733,192.282 189.739,192.279C190.369,191.973 190.914,192.077 191.379,192.574L191.679,192.896L191.68,192.804C191.701,191.576 192.256,190.455 193.388,189.463C194.461,188.523 195.72,187.971 197.166,187.809C198.66,187.642 199.906,187.943 200.914,188.678C201.985,189.459 202.504,190.491 202.481,191.77C202.46,192.998 201.904,194.119 200.773,195.111C199.7,196.051 198.441,196.604 196.995,196.765C196.377,196.834 195.801,196.823 195.267,196.734L195.56,197.047C195.818,197.323 195.917,197.666 195.813,198.084C195.73,198.419 195.544,198.685 195.252,198.881C195.231,198.894 195.21,198.907 195.188,198.918C186.414,203.471 180.756,206.525 178.215,208.082C175.751,209.592 174.055,210.885 173.144,211.983C172.752,212.453 172.55,212.808 172.831,213.109C172.978,213.266 173.263,213.324 173.656,213.373C174.509,213.481 175.761,213.405 177.415,213.161C179.88,212.798 182.833,212.036 186.271,210.882C186.453,210.765 186.639,210.649 186.827,210.535C189.204,209.092 191.68,207.995 194.254,207.245C196.869,206.482 199.465,206.3 202.04,206.697C204.678,207.102 206.846,208.221 208.55,210.044C210.405,212.029 211.023,214.212 210.403,216.595C210.968,216.377 211.462,216.502 211.887,216.958C211.887,216.958 216.016,221.375 216.016,221.375C216.274,221.651 216.374,221.993 216.27,222.412C216.187,222.747 216,223.013 215.708,223.208C215.688,223.222 215.666,223.234 215.645,223.246L189.973,236.562C194.846,237.168 200.432,236.424 206.734,234.351C208.261,233.153 209.993,232.13 211.931,231.285C215.338,229.8 218.781,229.195 222.257,229.465C225.812,229.741 228.631,231.013 230.726,233.254L230.736,233.264C230.777,233.24 230.82,233.218 230.864,233.198L239.79,229.014C240.759,228.56 241.934,229.018 242.412,230.038L244.143,233.732C244.621,234.752 244.222,235.948 243.253,236.402L233.42,238.079C233.449,238.224 233.473,238.369 233.493,238.514C233.749,240.353 233.188,242.132 231.769,243.839C229.952,246.026 227.535,247.207 224.511,247.368C221.578,247.525 218.837,247.039 216.286,245.913C213.972,244.891 212.023,243.666 210.438,242.244C209.831,242.776 209.279,243.341 208.783,243.938C207.768,245.159 207.121,246.363 206.862,247.557C206.632,248.613 206.87,249.524 207.584,250.289C208.17,250.915 208.912,251.485 209.806,252C210.725,252.531 211.951,253.013 213.481,253.455C215.007,253.896 216.917,254 219.21,253.783C221.221,253.593 223.358,253.12 225.621,252.367C229.018,250.427 238.465,245.428 253.962,237.372C253.977,236.613 253.984,235.85 253.984,235.085C253.984,181.186 217.511,135.739 167.93,122.103ZM175.165,243.276C174.586,243.472 174.032,243.645 173.505,243.797C172.083,244.206 170.79,244.463 169.628,244.569L168.771,246.775L175.154,243.424L175.165,243.276ZM136.951,215.603L134.158,214.25L133.128,238.953L124.099,244.982L114.747,230.777L121.159,213.484L107.513,216.397L113.805,208.336L131.216,209.631L135.804,211.22L136.951,215.603ZM108.423,237.6L102.159,237.308L98.513,241.218L96.601,235.629L91.221,233.158L96.278,230.041L96.897,224.63L101.543,228.16L107.101,226.542L105.276,232.835L108.423,237.6ZM228.02,237.198C228.084,237.266 228.134,237.329 228.141,237.402C228.073,237.849 227.793,238.249 227.342,238.632C226.774,239.115 225.952,239.551 224.885,239.956C224.882,239.957 224.879,239.958 224.877,239.959C221.471,241.305 217.992,241.097 214.436,239.359C217.025,237.888 219.651,236.912 222.316,236.437C223.775,236.177 225.001,236.115 225.993,236.267C226.873,236.401 227.554,236.699 228.02,237.198ZM27.866,191.94L27.866,191.939C35.519,172.65 48.152,155.866 64.177,143.178L70.546,145.608L72.309,151.812L72.104,167.459L61.28,174.605L73.22,179.604L77.192,191.927L84.455,182.341L94.748,183.163L94.574,185.811L78.604,196.25L83.984,199.367L80.191,200.339L72.897,194.369L71.956,203.573L66.25,207.577L66.471,205.063L59.571,209.046L58.236,224.247L52.734,227.423L54.059,212.222L47.158,216.205L45.834,231.406L37.695,236.1L38.352,223.655L27.898,230.448L27.898,221.06L40.397,212.308L40.397,204.331L27.898,213.083L27.898,206.731L40.397,197.979L40.397,190.013L27.898,198.754L27.898,191.859C27.888,191.886 27.877,191.913 27.866,191.94ZM152.021,200.988L150.596,205.25L155.861,214.22L145.892,213.72L140.422,219.337L153.743,230.337L158.597,229.132C158.874,228.673 159.195,228.224 159.56,227.785C160.391,226.785 161.287,226.091 162.237,225.69C163.184,225.29 164.115,225.088 165.028,225.076C165.935,225.064 167.101,225.377 168.516,226.049C168.802,226.185 169.082,226.322 169.357,226.461L177.446,224.453L175.264,230.07C175.712,230.368 176.189,230.687 176.695,231.028C177.625,231.646 178.514,232.189 179.365,232.654C179.961,232.355 181.16,231.74 182.96,230.81C181.534,230.473 180.355,229.798 179.42,228.797C177.815,227.081 177.178,224.998 177.521,222.545C177.729,221.058 178.262,219.562 179.129,218.06C176.764,218.69 174.844,218.93 173.373,218.8C171.818,218.663 170.661,218.378 169.895,217.975C169.132,217.573 168.314,216.916 167.452,215.994C166.253,214.711 165.684,213.075 165.774,211.076C165.838,209.656 166.234,208.322 166.968,207.076C165.451,207.436 164.15,207.59 163.064,207.546C161.94,207.501 160.819,207.348 159.703,207.088C158.533,206.816 157.46,206.299 156.484,205.535C155.562,204.813 154.627,203.945 153.678,202.93C153.143,202.358 152.591,201.711 152.021,200.988ZM79.742,230.517L67.871,224.979L75.44,220.61L75.691,221.425L81.367,214.368L88.425,215.19L87.866,224.809L84.955,226.69L79.742,230.517ZM20.912,219.942L20.907,219.979L22.451,221.06L22.451,230.448L19.829,228.744C19.884,228.366 20.271,224.663 20.907,219.979L20.855,219.942L20.912,219.942ZM19.829,228.744C19.826,228.765 19.824,228.776 19.823,228.776C19.822,228.775 19.822,228.764 19.823,228.74L19.829,228.744ZM185.478,225.096C185.2,224.798 185.144,224.398 185.245,223.908C185.378,223.261 185.755,222.586 186.351,221.869C187.783,220.145 189.869,218.455 192.601,216.787C195.341,215.114 198.062,213.964 200.765,213.34C202.058,213.042 203.148,212.941 204.039,213.053C204.815,213.15 205.423,213.41 205.849,213.865C206.366,214.418 206.354,215.236 205.978,216.308C205.531,217.58 204.628,218.916 203.288,220.325C203.287,220.326 197.732,223.179 197.732,223.179C193.555,224.824 190.363,225.7 188.152,225.783C186.892,225.831 185.989,225.643 185.478,225.096ZM65.136,220.264L73.789,215.262L72.986,212.661L66.093,209.374L65.136,220.264ZM96.601,204.074L99.043,213.808L89.278,205.925L89.132,206.044L88.308,210.955L85.514,207.014L88.102,200.839L96.601,204.074ZM82.514,210.544L79.486,210.398L77.72,212.279L76.81,209.574L74.192,208.398L76.662,206.868L76.956,204.28L79.19,205.955L81.867,205.193L80.985,208.221L82.514,210.544ZM147.214,196.232C147.185,196.186 147.157,196.14 147.13,196.094C146.731,195.417 146.536,194.575 146.571,193.562C146.606,192.557 147.003,191.577 147.788,190.632C148.689,189.548 149.723,189.028 150.866,189.024C152.012,189.019 153.005,189.455 153.838,190.347C154.381,190.928 154.869,191.936 155.261,193.389C157.921,193.097 160.99,191.998 164.474,190.111C168.217,188.084 171.07,185.902 173.023,183.551C173.637,182.813 174.025,182.173 174.156,181.615C174.248,181.224 174.187,180.893 173.94,180.628C173.633,180.3 173.145,180.085 172.499,179.943C171.738,179.776 170.718,179.741 169.438,179.826C168.125,179.913 166.375,180.365 164.182,181.167C161.934,181.989 159.409,183.107 156.605,184.52L147.169,189.463C147.138,189.479 147.105,189.493 147.072,189.504C146.626,189.655 146.229,189.56 145.889,189.196C145.485,188.765 145.231,188.163 145.165,187.376C145.107,186.685 145.237,185.867 145.575,184.923C145.627,184.78 145.684,184.636 145.746,184.49C143.066,183.826 140.176,182.904 137.747,182.005C137.173,182.608 136.632,183.215 136.125,183.825C135.465,184.619 135.01,185.319 134.772,185.933C134.582,186.424 134.462,186.763 134.508,186.97C134.574,187.267 134.63,187.576 134.676,187.897C134.749,188.4 134.624,188.838 134.312,189.214C133.753,189.887 132.63,190.193 130.9,189.878C129.358,189.597 128.029,188.864 126.916,187.673C125.922,186.61 125.403,185.294 125.379,183.719L122.306,192.398L129.863,203.515L134.01,201.427L135.422,189.809L143.481,197.28L147.214,196.232ZM115.777,199.663L109.482,199.367L105.835,203.281L103.923,197.691L98.543,195.22L103.629,192.104L104.248,186.693L108.894,190.222L114.453,188.605L112.601,194.897L115.777,199.663ZM77.897,171.429L78.337,167.43L81.778,170.016L85.896,168.84L84.543,173.488L86.866,177.018L82.22,176.782L79.544,179.693L78.132,175.546L74.133,173.723L77.897,171.429ZM127.555,177.575C127.658,177.44 127.765,177.306 127.875,177.173C130.25,174.315 133.139,171.703 136.542,169.336C139.769,167.093 144.286,164.41 150.094,161.29C150.094,161.29 141.98,152.61 141.98,152.61C141.065,153.05 139.686,153.706 137.842,154.577C135.671,155.603 134.107,156.335 133.151,156.771C132.193,157.209 130.759,157.843 128.846,158.676C126.91,159.519 125.442,160.099 124.441,160.42C123.454,160.736 122.201,161.134 120.684,161.612C119.097,162.113 117.82,162.378 116.854,162.422C115.922,162.464 114.908,162.483 113.813,162.481C113.535,162.48 113.267,162.469 113.007,162.445L114.276,164.488L105.19,163.989L99.925,169.899L109.924,179.399L128.628,174.545L127.555,177.575ZM94.514,161.341L96.985,162.165L98.159,168.871L95.955,167.105L95.131,178.694L90.337,172.399L94.514,161.341ZM83.074,163.666L76.485,157.665L83.337,148.607L95.69,149.489L95.338,154.195L88.573,158.167L92.865,160.636L83.074,163.666ZM106.1,159.665L103.07,159.548L101.308,161.429L100.396,158.724L97.779,157.519L100.248,156.018L100.544,153.43L102.778,155.108L105.455,154.343L104.571,157.371L106.1,159.665ZM148.008,149.905C160.576,144.541 170.296,142.039 177.189,142.442L178.472,143.814C179.172,144.563 179.822,145.164 180.419,145.62C179.608,146.296 178.499,146.996 177.096,147.727C175.245,148.692 172.701,149.92 169.463,151.409C166.202,152.909 163.408,154.265 161.081,155.475C158.905,156.603 157.154,157.536 155.83,158.273L148.008,149.905ZM123.755,118.642C113.327,119.8 103.309,122.331 93.883,126.049L90.279,137.638L96.043,146.373L96.424,144.019L102.984,150.225L107.712,148.951C107.963,148.475 108.251,148.042 108.575,147.652C109.1,147.021 109.626,146.589 110.138,146.341C110.526,146.153 110.841,146.082 111.069,146.085C111.385,146.09 111.617,146.207 111.786,146.388C111.856,146.463 111.94,146.585 111.995,146.774C112.042,146.936 112.083,147.211 112.1,147.601C112.113,147.869 112.173,148.088 112.318,148.243C113.067,149.045 113.988,149.586 115.079,149.87C116.242,150.173 117.949,150.184 120.201,149.933C122.526,149.673 125.633,148.896 129.525,147.609C133.461,146.307 138.317,144.471 144.091,142.102C155.217,137.53 164.466,135.378 171.833,135.616C171.585,135.261 171.278,134.822 170.91,134.3C169.933,132.913 169.22,131.916 168.774,131.31C168.33,130.708 167.559,129.757 166.462,128.456C165.358,127.148 164.183,125.827 162.937,124.494C160.924,122.34 158.392,120.792 155.345,119.844C152.267,118.886 149.167,118.551 146.046,118.84C142.914,119.13 139.86,119.984 136.884,121.402C133.927,122.809 131.514,124.632 129.65,126.876C128.305,128.494 127.491,130.065 127.234,131.6C126.997,133.018 127.359,134.244 128.326,135.278C129.576,136.616 131.328,137.081 133.561,136.739C135.855,136.388 137.536,135.613 138.579,134.359C138.957,133.904 139.354,133.836 139.641,133.903C139.82,133.945 139.997,134.042 140.15,134.23C140.297,134.409 140.445,134.737 140.534,135.227C140.865,136.589 140.54,137.886 139.523,139.11C137.617,141.404 134.79,142.836 131.022,143.365C127.214,143.9 124.031,142.795 121.471,140.056L121.471,140.056C119.34,137.776 118.345,134.603 118.544,130.521C118.74,126.506 120.185,122.874 122.884,119.625C123.165,119.288 123.455,118.96 123.755,118.642ZM75.653,135.155C76.528,134.618 77.411,134.092 78.301,133.577L79.749,134.667L84.19,133.374L82.72,138.431L85.251,142.255L80.22,142.02L77.309,145.137L75.78,140.668L71.456,138.668L75.543,136.168L75.653,135.155ZM180.189,106.092C174.413,104.148 168.461,102.581 162.366,101.421C161.639,100.11 160.883,98.715 160.126,97.318C160.038,97.141 159.95,96.995 159.89,96.847C157.125,91.759 155.303,86.083 153.862,80.436L179.889,104.287L180.419,105.288C180.419,105.288 180.253,105.564 180.189,106.092ZM115.274,100.721C108.993,101.722 102.856,103.153 96.893,104.984L96.631,104.2L98.278,101.641L126.011,79.759C123.982,85.819 121.482,91.818 117.923,97.024L117.894,97.024C117.835,97.141 117.775,97.229 117.687,97.318C117.658,97.406 117.57,97.523 117.452,97.671C116.986,98.312 116.204,99.471 115.274,100.721ZM135.95,51.587C137.215,50.409 138.892,49.792 140.627,49.852C142.334,49.909 143.98,50.645 145.127,51.938C146.303,53.174 146.951,54.849 146.862,56.556C146.803,58.291 146.038,59.908 144.803,61.086C143.509,62.26 141.863,62.879 140.128,62.819C138.421,62.762 136.775,62.026 135.628,60.733C134.452,59.497 133.804,57.82 133.864,56.115C133.952,54.35 134.717,52.763 135.95,51.587ZM207.857,15.296C218.916,11.766 223.15,20.353 218.297,30.998C205.298,42.235 188.889,48.674 171.713,49.233C178.065,33.087 191.329,20.618 207.857,15.296ZM64.545,25.293C60.458,14.325 65.338,6.09 76.074,10.442C92.16,16.971 104.454,30.352 109.63,46.91C92.543,45.117 76.633,37.47 64.545,25.293Z" style="fill:none;stroke:rgb(255,0,0);stroke-width:1px;"/>
</svg>
