<?xml version="1.0" encoding="UTF-8" standalone="no"?>
<!DOCTYPE svg PUBLIC "-//W3C//DTD SVG 1.1//EN" "http://www.w3.org/Graphics/SVG/1.1/DTD/svg11.dtd">
<svg width="100%" height="100%" viewBox="0 0 842 596" version="1.1" xmlns="http://www.w3.org/2000/svg" xmlns:xlink="http://www.w3.org/1999/xlink" xml:space="preserve" xmlns:serif="http://www.serif.com/" style="fill-rule:evenodd;clip-rule:evenodd;stroke-linejoin:round;stroke-miterlimit:2;">
    <g transform="matrix(0.75,0,0,0.75,0,0)">
        <g transform="matrix(1.8774,0,0,1.8774,-269.965,-238.244)">
            <path d="M171.848,212.379C169.496,212.379 167.373,211.799 165.481,210.64C163.589,209.481 162.098,207.802 161.007,205.603C159.916,203.404 159.371,200.805 159.371,197.805C159.371,192.624 160.479,187.826 162.695,183.411C164.91,178.996 168.183,175.451 172.512,172.775C176.842,170.099 182.041,168.761 188.108,168.761C189.677,168.761 191.356,168.88 193.145,169.119C194.935,169.357 196.563,169.715 198.029,170.193C198.983,170.465 199.46,171.147 199.46,172.238C199.46,173.124 199.128,173.96 198.463,174.744C197.798,175.528 197.023,175.92 196.137,175.92C195.864,175.92 195.659,175.903 195.523,175.869C193.75,175.459 192.233,175.161 190.972,174.974C189.711,174.786 188.381,174.692 186.984,174.692C182.654,174.692 178.972,175.741 175.938,177.837C172.904,179.934 170.638,182.704 169.138,186.147C167.638,189.59 166.888,193.305 166.888,197.294C166.888,200.192 167.459,202.433 168.601,204.018C169.743,205.603 171.234,206.396 173.075,206.396C175.154,206.396 176.978,205.544 178.546,203.839C180.114,202.135 181.546,199.373 182.842,195.555C184.137,191.737 185.415,186.556 186.677,180.01C186.881,179.056 187.29,178.408 187.904,178.067C188.518,177.726 189.336,177.556 190.358,177.556C192.779,177.556 193.989,178.34 193.989,179.908C193.989,180.181 193.938,180.522 193.836,180.931C192.949,184.238 192.14,187.894 191.407,191.899C190.674,195.905 190.307,198.947 190.307,201.027C190.307,202.868 190.58,204.206 191.125,205.041C191.671,205.876 192.506,206.294 193.631,206.294C194.722,206.294 195.762,205.927 196.75,205.194C197.739,204.461 198.983,203.208 200.483,201.436C200.892,200.959 201.352,200.72 201.864,200.72C202.307,200.72 202.656,200.924 202.912,201.334C203.168,201.743 203.295,202.305 203.295,203.021C203.295,204.35 202.972,205.407 202.324,206.191C200.653,208.203 199.017,209.737 197.415,210.793C195.813,211.85 193.853,212.379 191.534,212.379C189.148,212.379 187.222,211.688 185.756,210.308C184.29,208.927 183.37,206.975 182.995,204.453C180.472,209.737 176.757,212.379 171.848,212.379Z" style="fill-rule:nonzero;"/>
        </g>
        <g transform="matrix(1.8257,-0.437553,0.437553,1.8257,-331.525,-138.838)">
            <path d="M187.188,165.488C186.643,165.488 186.182,165.309 185.807,164.951C185.432,164.593 185.245,164.159 185.245,163.647C185.245,162.966 185.569,162.352 186.216,161.807L195.012,154.29C195.693,153.71 196.443,153.421 197.262,153.421C198.148,153.421 198.915,153.736 199.563,154.366C200.21,154.997 200.534,155.756 200.534,156.642C200.534,158.108 199.631,159.318 197.824,160.273L188.262,165.233C187.955,165.403 187.597,165.488 187.188,165.488Z" style="fill-rule:nonzero;"/>
        </g>
        <g transform="matrix(1.8774,0,0,1.8774,-269.965,-238.244)">
            <path d="M228.198,200.72C228.641,200.72 228.99,200.924 229.246,201.334C229.502,201.743 229.63,202.305 229.63,203.021C229.63,204.385 229.306,205.441 228.658,206.191C227.26,207.896 225.726,209.353 224.056,210.563C222.386,211.773 220.732,212.379 219.096,212.379C216.505,212.379 214.528,210.862 213.164,207.828C211.733,209.634 210.48,210.845 209.406,211.458C208.332,212.072 207.079,212.379 205.648,212.379C203.568,212.379 201.855,211.603 200.509,210.052C199.162,208.501 198.489,206.481 198.489,203.993C198.489,201.265 199.068,198.734 200.227,196.399C201.386,194.064 202.98,192.155 205.008,190.672C207.037,189.189 209.312,188.311 211.835,188.039C212.483,181.425 213.718,175.775 215.542,171.087C217.366,166.4 219.761,164.056 222.727,164.056C224.192,164.056 225.411,164.721 226.383,166.051C227.354,167.38 227.84,169.392 227.84,172.085C227.84,175.903 226.903,180.368 225.028,185.482C223.153,190.595 220.647,195.845 217.511,201.231C217.647,203.208 217.945,204.623 218.406,205.475C218.866,206.328 219.454,206.754 220.17,206.754C221.09,206.754 222.028,206.345 222.982,205.527C223.937,204.708 225.215,203.345 226.817,201.436C227.226,200.959 227.687,200.72 228.198,200.72ZM222.164,169.068C221.516,169.068 220.869,170.218 220.221,172.519C219.573,174.82 219.019,177.829 218.559,181.544C218.099,185.26 217.766,189.146 217.562,193.203C221.38,184.885 223.289,178.204 223.289,173.158C223.289,171.863 223.178,170.857 222.957,170.141C222.735,169.426 222.471,169.068 222.164,169.068ZM207.437,207.214C208.085,207.214 208.733,206.95 209.38,206.421C210.028,205.893 210.846,204.913 211.835,203.481C211.494,201.64 211.324,199.578 211.324,197.294C211.324,196.476 211.358,195.146 211.426,193.305C209.551,193.885 207.991,195.138 206.747,197.064C205.503,198.99 204.881,201.129 204.881,203.481C204.881,205.97 205.733,207.214 207.437,207.214Z" style="fill-rule:nonzero;"/>
        </g>
        <path d="M172.717,115.458C172.793,115.11 172.928,114.704 173.121,114.239L182.049,94.271C182.625,92.991 183.377,92.047 184.305,91.439C185.233,90.831 186.273,90.527 187.425,90.527C189.025,90.527 190.449,91.103 191.697,92.255C192.945,93.407 193.569,94.847 193.569,96.575C193.569,98.367 192.865,100.159 191.457,101.951L180.025,116.663C180.29,117.208 180.524,117.924 180.726,118.812C182.07,118.556 183.478,118.428 184.95,118.428C188.086,118.428 189.654,119.548 189.654,121.788C189.654,123.132 189.174,126.332 188.214,131.388C186.742,138.748 186.006,143.868 186.006,146.748C186.006,147.708 186.246,148.476 186.726,149.052C187.206,149.628 187.83,149.916 188.598,149.916C189.814,149.916 191.286,149.132 193.014,147.564C194.742,145.996 197.078,143.452 200.022,139.932C200.79,139.036 201.654,138.588 202.614,138.588C203.446,138.588 204.102,138.972 204.582,139.74C205.062,140.508 205.302,141.564 205.302,142.908C205.302,145.468 204.694,147.452 203.478,148.86C200.854,152.124 198.07,154.876 195.126,157.116C192.182,159.356 189.334,160.476 186.582,160.476C184.47,160.476 182.534,159.756 180.774,158.316C179.014,156.876 177.686,154.908 176.79,152.412C173.462,157.788 169.27,160.476 164.214,160.476C160.246,160.476 157.078,159.036 154.71,156.156C152.342,153.276 151.158,149.5 151.158,144.828C151.158,139.708 152.342,134.86 154.71,130.284C157.078,125.708 160.23,122.028 164.166,119.244C166.9,117.31 169.75,116.048 172.717,115.458ZM167.67,150.78C169.078,150.78 170.422,149.948 171.702,148.284C172.982,146.62 173.91,144.412 174.486,141.66L178.038,123.996C175.35,124.06 172.87,125.068 170.598,127.02C168.326,128.972 166.518,131.548 165.174,134.748C163.83,137.948 163.158,141.34 163.158,144.924C163.158,146.908 163.558,148.38 164.358,149.34C165.158,150.3 166.262,150.78 167.67,150.78Z" style="fill-rule:nonzero;"/>
        <g transform="matrix(1.8774,0,0,1.8774,-269.965,-238.244)">
            <path d="M252.64,212.379C251.345,212.379 250.433,211.697 249.905,210.333C249.376,208.97 249.112,206.788 249.112,203.788C249.112,199.356 249.743,195.146 251.004,191.158C251.311,190.169 251.814,189.445 252.512,188.985C253.211,188.524 254.191,188.294 255.453,188.294C256.134,188.294 256.612,188.379 256.884,188.55C257.157,188.72 257.293,189.044 257.293,189.521C257.293,190.067 257.038,191.294 256.526,193.203C256.186,194.567 255.913,195.751 255.708,196.757C255.504,197.763 255.333,199.015 255.197,200.515C256.117,197.856 257.217,195.606 258.495,193.766C259.773,191.925 261.086,190.553 262.432,189.649C263.779,188.746 265.049,188.294 266.242,188.294C267.435,188.294 268.279,188.567 268.773,189.112C269.267,189.658 269.515,190.493 269.515,191.618C269.515,192.709 269.191,194.686 268.543,197.55C268.27,198.777 268.083,199.697 267.981,200.311C269.106,197.447 270.358,195.112 271.739,193.305C273.12,191.499 274.475,190.212 275.804,189.445C277.134,188.678 278.361,188.294 279.486,188.294C280.577,188.294 281.403,188.575 281.966,189.138C282.528,189.7 282.81,190.527 282.81,191.618C282.81,192.504 282.622,194.175 282.247,196.629C281.906,198.709 281.633,200.677 281.429,202.535C281.224,204.393 281.122,206.464 281.122,208.748C281.122,210.043 280.858,210.972 280.33,211.535C279.801,212.097 278.94,212.379 277.747,212.379C276.622,212.379 275.804,212.089 275.293,211.509C274.781,210.93 274.526,210.06 274.526,208.901C274.526,207.538 274.764,205.288 275.242,202.152C275.651,199.425 275.855,197.686 275.855,196.936C275.855,196.391 275.668,196.118 275.293,196.118C274.85,196.118 274.219,196.689 273.401,197.831C272.583,198.973 271.764,200.481 270.946,202.356C270.128,204.231 269.463,206.208 268.952,208.288C268.577,209.924 268.142,211.015 267.648,211.56C267.154,212.106 266.361,212.379 265.27,212.379C264.145,212.379 263.302,211.842 262.739,210.768C262.177,209.694 261.896,208.39 261.896,206.856C261.896,205.561 262.066,203.686 262.407,201.231C262.68,199.05 262.816,197.618 262.816,196.936C262.816,196.391 262.628,196.118 262.253,196.118C261.742,196.118 261.094,196.731 260.31,197.959C259.526,199.186 258.768,200.754 258.035,202.663C257.302,204.572 256.714,206.447 256.271,208.288C255.896,209.89 255.461,210.972 254.967,211.535C254.473,212.097 253.697,212.379 252.64,212.379Z" style="fill-rule:nonzero;"/>
        </g>
        <g transform="matrix(1.8774,0,0,1.8774,-221.012,-100.383)">
            <path d="M184.273,170.039C185.944,170.551 180.95,198.777 180.95,198.777C180.234,203.652 178.845,207.163 176.782,209.311C174.72,211.458 171.882,212.532 168.268,212.532C165.916,212.532 163.828,211.961 162.004,210.819C160.181,209.677 158.911,208.22 158.195,206.447C157.956,205.833 157.837,205.169 157.837,204.453C157.837,203.43 158.075,202.544 158.553,201.794C159.03,201.044 159.644,200.669 160.394,200.669C160.837,200.669 161.212,200.78 161.519,201.001C161.825,201.223 162.115,201.606 162.388,202.152C163.445,204.129 164.374,205.51 165.175,206.294C165.976,207.078 166.973,207.47 168.166,207.47C169.53,207.47 170.697,206.848 171.669,205.603C172.64,204.359 173.331,202.441 173.74,199.851C173.74,199.851 175.632,186.743 175.734,186.095L177.319,174.59C176.433,174.488 175.598,174.437 174.814,174.437C171.916,174.437 169.717,174.94 168.217,175.945C166.717,176.951 165.967,178.391 165.967,180.266C165.967,181.118 166.061,181.809 166.248,182.337C166.436,182.865 166.683,183.454 166.99,184.101C167.126,184.374 167.194,184.681 167.194,185.022C167.194,185.772 166.845,186.428 166.146,186.99C165.447,187.553 164.672,187.834 163.82,187.834C162.729,187.834 161.928,187.357 161.416,186.402C160.394,184.596 159.882,182.652 159.882,180.573C159.882,178.425 160.47,176.465 161.646,174.692C162.822,172.92 164.604,171.497 166.99,170.423C169.376,169.349 172.325,168.812 175.836,168.812C177.37,168.812 178.776,168.897 180.055,169.068C181.333,169.238 182.739,169.562 184.273,170.039Z" style="fill-rule:nonzero;"/>
        </g>
        <g transform="matrix(1.8774,0,0,1.8774,-315.882,-100.383)">
            <path d="M239.805,200.72C240.249,200.72 240.598,200.924 240.854,201.334C241.109,201.743 241.237,202.305 241.237,203.021C241.237,204.385 240.913,205.441 240.266,206.191C238.8,207.998 237.206,209.481 235.485,210.64C233.763,211.799 231.811,212.379 229.63,212.379C226.63,212.379 224.405,211.015 222.957,208.288C221.508,205.561 228.01,205.262 228.556,205.859C229.101,206.455 229.817,206.754 230.704,206.754C232.101,206.754 233.328,206.353 234.385,205.552C235.442,204.751 236.789,203.379 238.425,201.436C238.834,200.959 239.294,200.72 239.805,200.72Z" style="fill-rule:nonzero;"/>
        </g>
        <g transform="matrix(1.8774,0,0,1.8774,-315.882,-100.383)">
            <path d="M262.611,200.72C263.055,200.72 263.404,200.924 263.66,201.334C263.915,201.743 264.043,202.305 264.043,203.021C264.043,204.282 263.719,205.339 263.072,206.191C261.469,208.271 259.484,209.907 257.114,211.1C254.745,212.293 252.078,212.89 249.112,212.89C246.794,212.89 244.783,212.541 243.078,211.842C241.374,211.143 240.07,210.188 239.166,208.978C238.263,207.768 237.811,206.413 237.811,204.913C237.811,202.663 238.715,200.669 240.521,198.93C242.328,197.192 244.919,195.521 248.294,193.919L239.908,194.124C239.158,194.158 238.587,193.893 238.195,193.331C237.803,192.769 237.607,192.095 237.607,191.311C237.607,190.493 237.803,189.769 238.195,189.138C238.587,188.507 239.124,188.192 239.805,188.192C241.374,188.192 243.47,188.311 246.095,188.55C246.64,188.584 247.638,188.652 249.086,188.754C250.535,188.857 251.754,188.908 252.742,188.908C253.083,188.908 253.731,188.771 254.686,188.499C254.856,188.465 255.188,188.379 255.683,188.243C256.177,188.107 256.595,188.039 256.935,188.039C257.481,188.039 257.933,188.277 258.291,188.754C258.649,189.232 258.827,189.965 258.827,190.953C258.827,192.044 258.572,192.896 258.06,193.51C257.549,194.124 256.748,194.669 255.657,195.146C252.555,196.476 249.981,197.899 247.936,199.416C245.89,200.933 244.868,202.441 244.868,203.941C244.868,204.896 245.311,205.68 246.197,206.294C247.084,206.907 248.396,207.214 250.135,207.214C252.044,207.214 253.978,206.737 255.938,205.782C257.899,204.828 259.663,203.379 261.231,201.436C261.64,200.959 262.1,200.72 262.611,200.72Z" style="fill-rule:nonzero;"/>
        </g>
        <g transform="matrix(1.8774,0,0,1.8774,-315.882,-100.383)">
            <path d="M265.219,212.379C263.276,212.379 261.7,211.612 260.489,210.078C259.279,208.543 258.674,206.532 258.674,204.044C258.674,201.316 259.305,198.734 260.566,196.297C261.827,193.859 263.506,191.899 265.603,190.416C267.699,188.933 269.924,188.192 272.276,188.192C273.026,188.192 273.529,188.337 273.784,188.627C274.04,188.916 274.253,189.436 274.423,190.186C275.071,190.05 275.787,189.982 276.571,189.982C277.389,189.982 278.02,190.186 278.463,190.595C278.906,191.004 279.128,191.584 279.128,192.334C279.128,193.118 278.957,194.482 278.617,196.425C278.242,198.504 277.952,200.49 277.747,202.382C277.543,204.274 277.44,206.396 277.44,208.748C277.44,210.043 277.176,210.972 276.648,211.535C276.119,212.097 275.259,212.379 274.066,212.379C272.907,212.379 272.046,212.097 271.483,211.535C270.921,210.972 270.64,210.06 270.64,208.799L270.691,207.981C269.634,210.913 267.81,212.379 265.219,212.379ZM267.214,207.214C268.168,207.214 269.037,206.549 269.821,205.22C270.605,203.89 271.304,201.521 271.918,198.112L272.889,192.947C271.492,192.982 270.196,193.518 269.003,194.558C267.81,195.598 266.856,196.97 266.14,198.675C265.424,200.379 265.066,202.186 265.066,204.095C265.066,205.117 265.262,205.893 265.654,206.421C266.046,206.95 266.566,207.214 267.214,207.214Z" style="fill-rule:nonzero;"/>
        </g>
        <path d="M143.063,150.382L153.395,182.025L186.833,182.025L159.781,201.581L170.114,233.224L143.063,213.667L116.011,233.224L126.344,201.581L99.292,182.025L132.73,182.025L143.063,150.382ZM143.063,178.202L147.118,190.622L160.242,190.622L149.624,198.297L153.68,210.716L143.063,203.041L132.445,210.716L136.501,198.297L125.884,190.622L139.007,190.622L143.063,178.202Z"/>
        <g transform="matrix(1,0,0,1,-113.123,-57.7033)">
            <path d="M229.203,96.69L229.203,86.892C229.203,83.77 231.738,81.234 234.861,81.234L242.141,81.234C240.524,78.828 239.579,75.932 239.579,72.817C239.579,64.476 246.352,57.703 254.694,57.703C263.035,57.703 269.808,64.476 269.808,72.817C269.808,75.932 268.863,78.828 267.246,81.234L274.849,81.234C277.972,81.234 280.507,83.77 280.507,86.892L280.507,96.69C346.508,108.781 396.587,166.64 396.587,236.103C396.587,314.327 333.079,377.835 254.855,377.835C176.631,377.835 113.123,314.327 113.123,236.103C113.123,166.64 163.202,108.781 229.203,96.69ZM254.855,107.599C325.778,107.599 383.359,165.179 383.359,236.103C383.359,307.026 325.778,364.607 254.855,364.607C183.932,364.607 126.351,307.026 126.351,236.103C126.351,165.179 183.932,107.599 254.855,107.599ZM254.694,65.351C258.814,65.351 262.16,68.697 262.16,72.817C262.16,76.938 258.814,80.284 254.694,80.284C250.573,80.284 247.227,76.938 247.227,72.817C247.227,68.697 250.573,65.351 254.694,65.351Z"/>
        </g>
        <path id="path604" d="M259.781,226.883C259.624,226.738 259.406,226.678 259.197,226.721L245.672,229.498C245.672,229.498 242.548,226.637 242.548,226.637C242.548,226.637 255.131,224.055 255.131,224.055C255.376,224.004 255.573,223.82 255.639,223.579C255.706,223.337 255.632,223.079 255.447,222.91L249.997,217.924C249.84,217.78 249.622,217.72 249.413,217.763L235.895,220.542C235.895,220.542 230.654,215.744 230.654,215.744C230.654,215.744 240.669,213.324 240.669,213.324C240.915,213.264 241.106,213.071 241.162,212.825C241.219,212.579 241.132,212.322 240.937,212.161L232.989,205.612C232.989,205.612 239.8,203.592 239.8,203.592C239.8,203.592 250.74,212.005 250.74,212.005C250.909,212.135 251.131,212.176 251.336,212.115L258.42,210.007C258.66,209.936 258.84,209.736 258.885,209.489C258.931,209.243 258.834,208.992 258.636,208.839L248.449,201.02C248.449,201.02 252.513,199.807 252.513,199.807C252.513,199.807 263.459,208.221 263.459,208.221C263.628,208.352 263.85,208.393 264.055,208.332L271.126,206.231C271.366,206.16 271.546,205.96 271.592,205.714C271.637,205.467 271.541,205.216 271.343,205.063L261.171,197.239L271.214,194.255C272.909,193.75 273.851,191.981 273.32,190.31C272.797,188.652 271.021,187.704 269.325,188.203L259.246,191.206C259.246,191.206 263.173,179.177 263.173,179.177C263.25,178.941 263.19,178.683 263.017,178.505C262.844,178.328 262.587,178.26 262.35,178.331L255.279,180.432C255.069,180.494 254.903,180.656 254.835,180.864L250.621,193.769C250.621,193.769 246.535,194.983 246.535,194.983C246.535,194.983 250.457,182.951 250.457,182.951C250.533,182.715 250.473,182.456 250.3,182.279C250.128,182.101 249.87,182.034 249.633,182.105L242.562,184.206C242.352,184.268 242.186,184.43 242.118,184.638L237.911,197.545C237.911,197.545 231.075,199.573 231.075,199.573C231.075,199.573 233.883,189.814 233.883,189.814C233.952,189.574 233.881,189.315 233.699,189.144C233.517,188.973 233.255,188.918 233.02,189.002L223.3,192.453C223.3,192.453 224.871,185.632 224.871,185.632C224.871,185.632 237.667,180.588 237.667,180.588C237.871,180.508 238.023,180.332 238.072,180.118L239.706,173.024C239.762,172.783 239.679,172.531 239.492,172.369C239.304,172.208 239.043,172.164 238.812,172.254L226.869,176.962C226.869,176.962 227.807,172.891 227.807,172.891C227.807,172.891 240.602,167.847 240.602,167.847C240.807,167.766 240.958,167.59 241.008,167.376L242.64,160.293C242.695,160.051 242.612,159.799 242.425,159.638C242.238,159.476 241.976,159.432 241.746,159.523L229.804,164.222C229.804,164.222 232.126,154.141 232.126,154.141C232.517,152.445 231.441,150.748 229.716,150.351C227.986,149.952 226.278,151.008 225.887,152.703C225.887,152.703 223.564,162.785 223.564,162.785C223.564,162.785 214.882,153.334 214.882,153.334C214.715,153.151 214.46,153.077 214.221,153.14C213.982,153.203 213.797,153.394 213.742,153.635L212.11,160.719C212.06,160.933 212.12,161.158 212.268,161.319L221.567,171.453C221.567,171.453 220.629,175.525 220.629,175.525C220.629,175.525 211.949,166.066 211.949,166.066C211.782,165.883 211.527,165.809 211.288,165.872C211.049,165.935 210.864,166.125 210.809,166.367L209.174,173.46C209.125,173.674 209.184,173.899 209.333,174.06L218.632,184.194C218.632,184.194 217.061,191.015 217.061,191.015C217.061,191.015 209.831,183.659 209.831,183.659C209.655,183.481 209.395,183.416 209.157,183.49C208.918,183.564 208.741,183.766 208.698,184.012L206.954,194.015C206.954,194.015 201.704,189.203 201.704,189.203C201.704,189.203 203.559,175.754 203.559,175.754C203.588,175.537 203.51,175.319 203.348,175.172L197.909,170.189C197.727,170.021 197.466,169.969 197.233,170.053C197,170.137 196.833,170.343 196.799,170.589L195.061,183.124C195.061,183.124 191.917,180.245 191.917,180.245C191.917,180.245 193.785,166.8 193.785,166.8C193.815,166.582 193.737,166.364 193.575,166.216L188.126,161.231C187.943,161.064 187.682,161.012 187.449,161.096C187.216,161.18 187.049,161.386 187.015,161.632L185.284,174.167C185.284,174.167 177.536,167.058 177.536,167.058C176.242,165.87 174.216,165.94 173.02,167.202C171.811,168.473 171.884,170.475 173.188,171.672L180.922,178.752C180.922,178.752 168.343,181.334 168.343,181.334C168.098,181.385 167.901,181.568 167.835,181.81C167.768,182.051 167.842,182.31 168.027,182.479L173.466,187.462C173.624,187.606 173.841,187.666 174.05,187.623L187.575,184.846C187.575,184.846 190.699,187.716 190.699,187.716C190.699,187.716 178.127,190.292 178.127,190.292C177.882,190.342 177.685,190.525 177.618,190.767C177.551,191.008 177.625,191.266 177.81,191.436L183.247,196.428C183.404,196.573 183.622,196.633 183.832,196.59L197.35,193.812C197.35,193.812 202.59,198.609 202.59,198.609C202.59,198.609 192.578,201.02 192.578,201.02C192.333,201.079 192.142,201.272 192.085,201.518C192.028,201.765 192.115,202.022 192.31,202.182L200.257,208.741C200.257,208.741 193.445,210.762 193.445,210.762C193.445,210.762 182.505,202.349 182.505,202.349C182.336,202.219 182.114,202.177 181.909,202.238L174.838,204.339C174.598,204.41 174.418,204.61 174.372,204.857C174.326,205.103 174.423,205.354 174.621,205.507L184.796,213.332C184.796,213.332 180.735,214.538 180.735,214.538C180.735,214.538 169.788,206.123 169.788,206.123C169.619,205.993 169.397,205.952 169.192,206.012L162.121,208.113C161.881,208.185 161.701,208.384 161.655,208.631C161.61,208.877 161.706,209.128 161.905,209.281L172.087,217.108C172.087,217.108 162.032,220.099 162.032,220.099C160.341,220.591 159.396,222.36 159.926,224.033C160.447,225.703 162.241,226.642 163.925,226.14C163.924,226.14 174,223.146 174,223.146C174,223.146 170.072,235.177 170.072,235.177C169.995,235.412 170.055,235.671 170.228,235.849C170.4,236.026 170.657,236.093 170.895,236.023L177.976,233.924C178.187,233.862 178.353,233.7 178.421,233.492L182.624,220.584C182.624,220.584 186.712,219.363 186.712,219.363C186.712,219.363 182.79,231.394 182.79,231.394C182.714,231.629 182.774,231.888 182.947,232.065C183.12,232.243 183.377,232.31 183.614,232.239L190.685,230.139C190.895,230.076 191.061,229.915 191.129,229.707L195.346,216.801C195.346,216.801 202.172,214.772 202.172,214.772C202.172,214.772 199.364,224.53 199.364,224.53C199.295,224.77 199.366,225.029 199.548,225.2C199.73,225.371 199.992,225.426 200.228,225.343L209.947,221.892C209.947,221.892 208.374,228.722 208.374,228.722C208.374,228.722 195.578,233.766 195.578,233.766C195.374,233.846 195.222,234.022 195.173,234.236L193.541,241.32C193.485,241.561 193.568,241.813 193.755,241.975C193.943,242.136 194.205,242.181 194.435,242.09L206.379,237.382C206.379,237.382 205.44,241.454 205.44,241.454C205.44,241.454 192.645,246.497 192.645,246.497C192.44,246.578 192.289,246.754 192.24,246.968L190.605,254.061C190.55,254.302 190.632,254.554 190.82,254.716C191.008,254.877 191.269,254.922 191.5,254.831L203.443,250.123C203.443,250.123 201.119,260.213 201.119,260.213C200.731,261.897 201.803,263.605 203.532,264.004C205.258,264.401 206.97,263.334 207.358,261.65C207.358,261.65 209.682,251.56 209.682,251.56C209.682,251.56 218.362,261.02 218.362,261.02C218.53,261.202 218.784,261.277 219.024,261.214C219.263,261.15 219.448,260.96 219.503,260.719L221.137,253.625C221.187,253.411 221.127,253.187 220.979,253.025L211.68,242.891C211.68,242.891 212.618,238.819 212.618,238.819C212.618,238.819 221.298,248.279 221.298,248.279C221.465,248.461 221.72,248.536 221.959,248.472C222.198,248.409 222.383,248.219 222.438,247.978L224.07,240.894C224.12,240.68 224.061,240.455 223.912,240.293L214.613,230.159C214.613,230.159 216.187,223.329 216.187,223.329C216.187,223.329 223.416,230.685 223.416,230.685C223.592,230.863 223.852,230.928 224.09,230.854C224.329,230.78 224.506,230.578 224.549,230.332L226.293,220.328C226.293,220.328 231.553,225.143 231.553,225.143C231.553,225.143 229.689,238.59 229.689,238.59C229.659,238.807 229.737,239.025 229.899,239.173L235.338,244.155C235.52,244.323 235.781,244.375 236.014,244.291C236.247,244.207 236.414,244.001 236.448,243.755L238.186,231.222C238.186,231.222 241.328,234.108 241.328,234.108C241.328,234.108 239.47,247.557 239.47,247.557C239.44,247.774 239.518,247.992 239.68,248.14L245.119,253.123C245.302,253.29 245.562,253.342 245.795,253.258C246.028,253.174 246.196,252.968 246.23,252.722L247.962,240.186L255.713,247.288C257.02,248.478 259.029,248.414 260.228,247.141C261.437,245.869 261.362,243.865 260.054,242.679C260.057,242.682 252.333,235.595 252.333,235.595C252.333,235.595 264.904,233.01 264.904,233.01C265.15,232.96 265.346,232.776 265.413,232.534C265.479,232.293 265.405,232.035 265.22,231.865L259.781,226.883Z" style="fill-rule:nonzero;"/>
        <path id="path6041" serif:id="path604" d="M86.206,242.219C87.348,233.39 90.271,221.791 90.271,221.791C90.271,221.791 87.113,219.473 87.113,219.473C87.113,219.473 99.304,215.344 99.304,215.344C99.614,215.239 99.84,214.97 99.89,214.647C99.939,214.323 99.805,213.999 99.541,213.806L93.404,209.309C93.174,209.14 92.875,209.094 92.604,209.186L79.26,213.711C79.26,213.711 73.706,209.638 73.706,209.638C73.706,209.638 83.318,206.001 83.318,206.001C83.627,205.884 83.844,205.604 83.88,205.276C83.916,204.948 83.765,204.628 83.489,204.447L74.897,198.818C74.897,198.818 81.202,196.051 81.202,196.051C81.202,196.051 93.244,203.368 93.244,203.368C93.489,203.517 93.791,203.536 94.053,203.421L101.022,200.356C101.321,200.224 101.522,199.937 101.544,199.61C101.565,199.284 101.403,198.972 101.123,198.803L90.119,192.131C90.119,192.131 93.709,190.548 93.709,190.548C93.709,190.548 105.757,197.866 105.757,197.866C106.002,198.014 106.303,198.034 106.565,197.919L113.522,194.863C113.821,194.731 114.023,194.444 114.044,194.118C114.066,193.791 113.904,193.48 113.625,193.31L102.636,186.631L112.205,182.427C113.962,181.653 114.758,179.6 113.982,177.843C113.211,176.088 111.172,175.283 109.402,176.055L99.831,180.269C99.831,180.269 102.349,167.652 102.349,167.652C102.414,167.332 102.294,167.002 102.039,166.797C101.784,166.592 101.436,166.546 101.137,166.678L94.18,169.734C93.918,169.849 93.728,170.085 93.672,170.365L90.913,184.188C90.913,184.188 87.325,185.763 87.325,185.763C87.325,185.763 89.838,173.144 89.838,173.144C89.902,172.823 89.782,172.494 89.527,172.289C89.272,172.084 88.924,172.038 88.625,172.17L81.668,175.226C81.406,175.341 81.217,175.577 81.161,175.858L78.409,189.68C78.409,189.68 72.102,192.448 72.102,192.448C72.102,192.448 73.761,182.314 73.761,182.314C73.815,181.988 73.681,181.66 73.415,181.465C73.149,181.27 72.796,181.241 72.501,181.389L63.328,186.011C63.328,186.011 64.081,179.173 64.081,179.173C64.081,179.173 76.441,172.399 76.441,172.399C76.692,172.261 76.86,172.01 76.891,171.726L77.723,164.164C77.759,163.839 77.611,163.521 77.339,163.339C77.067,163.157 76.716,163.141 76.43,163.299L65.147,169.482C65.147,169.482 65.575,165.59 65.575,165.59C65.575,165.59 77.935,158.816 77.935,158.816C78.186,158.679 78.354,158.427 78.385,158.143L79.216,150.591C79.252,150.266 79.104,149.948 78.832,149.766C78.56,149.584 78.21,149.569 77.923,149.726L66.641,155.901C66.641,155.901 59.731,155.141 59.731,155.141C59.731,155.141 47.78,154.776 47.78,154.776C47.749,155.061 47.858,155.342 48.073,155.531L58.665,164.83C58.665,164.83 58.237,168.722 58.237,168.722C58.237,168.722 48.568,160.234 48.568,160.234C48.322,160.018 47.977,159.957 47.672,160.075C47.367,160.194 47.153,160.472 47.118,160.797L46.286,168.359C46.254,168.643 46.364,168.925 46.579,169.114L57.171,178.412C57.171,178.412 56.419,185.251 56.419,185.251C56.419,185.251 48.47,178.745 48.47,178.745C48.215,178.536 47.864,178.488 47.562,178.621C47.26,178.754 47.058,179.045 47.039,179.374L46.456,189.626C46.456,189.626 40.912,185.556 40.912,185.556C40.912,185.556 41.22,171.463 41.22,171.463C41.226,171.177 41.093,170.906 40.862,170.737L34.736,166.241C34.472,166.048 34.123,166.017 33.83,166.162C33.536,166.306 33.348,166.602 33.34,166.929L33.049,179.793C33.049,179.793 29.89,177.475 29.89,177.475C29.89,177.475 30.212,163.385 30.212,163.385C30.219,163.098 30.085,162.827 29.854,162.657L23.717,158.161C23.453,157.967 23.104,157.937 22.811,158.082C22.517,158.226 22.329,158.522 22.322,158.849L22.037,171.711C22.037,171.711 13.614,165.519 13.614,165.519C12.068,164.382 9.887,164.721 8.752,166.267C7.612,167.813 7.943,169.99 9.49,171.127L17.926,177.313C17.926,177.313 5.739,181.442 5.739,181.442C5.429,181.547 5.203,181.815 5.153,182.139C5.103,182.462 5.238,182.786 5.501,182.98L11.627,187.475C11.858,187.644 12.157,187.69 12.428,187.599L25.778,183.075C25.778,183.075 28.939,185.401 28.939,185.401C28.939,185.401 16.758,189.522 16.758,189.522C16.448,189.627 16.222,189.895 16.172,190.218C16.122,190.542 16.256,190.866 16.519,191.06L22.644,195.565C22.875,195.735 23.174,195.781 23.445,195.689L36.79,191.165C36.79,191.165 42.342,195.236 42.342,195.236C42.342,195.236 32.733,198.864 32.733,198.864C32.424,198.98 32.207,199.26 32.171,199.588C32.134,199.916 32.285,200.236 32.561,200.418L41.153,206.057C41.153,206.057 34.847,208.825 34.847,208.825C34.847,208.825 22.805,201.508 22.805,201.508C22.561,201.359 22.259,201.339 21.997,201.454L15.04,204.51C14.741,204.642 14.539,204.929 14.518,205.256C14.496,205.582 14.658,205.893 14.937,206.063L25.929,212.742C25.929,212.742 22.342,214.318 22.342,214.318C22.342,214.318 10.293,207 10.293,207C10.049,206.851 9.747,206.831 9.485,206.946L13.425,218.236C13.425,218.236 16.219,224.605 16.219,224.605C16.219,224.605 21.88,235.143 21.88,235.143C22.142,235.028 22.332,234.792 22.388,234.511L25.137,220.687C25.137,220.687 28.725,219.105 28.725,219.105C28.725,219.105 26.212,231.722 26.212,231.722C26.149,232.042 26.268,232.372 26.523,232.577C26.778,232.781 27.126,232.827 27.425,232.696L34.382,229.64C34.644,229.525 34.833,229.289 34.89,229.009L37.652,215.186C37.652,215.186 43.949,212.418 43.949,212.418C43.949,212.418 42.289,222.551 42.289,222.551C42.236,222.877 42.37,223.205 42.636,223.4C42.902,223.595 43.255,223.625 43.55,223.476L52.722,218.854C52.722,218.854 51.969,225.703 51.969,225.703C51.969,225.703 39.609,232.477 39.609,232.477C39.358,232.614 39.189,232.865 39.158,233.15L38.327,240.702C38.292,241.027 38.44,241.345 38.712,241.527C38.984,241.709 39.334,241.724 39.621,241.567L50.904,235.383C50.904,235.383 50.476,239.276 50.476,239.276C50.476,239.276 38.115,246.049 38.115,246.049C37.864,246.187 37.696,246.438 37.665,246.722L36.833,254.284C36.797,254.61 36.946,254.928 37.217,255.109C37.489,255.291 37.84,255.307 38.127,255.149L49.41,248.966C49.41,248.966 48.266,259.363 48.266,259.363C48.057,261.261 49.431,262.987 51.342,263.198C53.25,263.407 54.967,262.021 55.176,260.124C55.176,260.124 56.319,249.726 56.319,249.726C56.319,249.726 65.988,258.214 65.988,258.214C66.234,258.43 66.579,258.491 66.884,258.373C67.189,258.255 67.403,257.976 67.439,257.651L68.271,250.089C68.302,249.805 68.192,249.523 67.977,249.334L57.385,240.036C57.385,240.036 57.814,236.143 57.814,236.143C57.814,236.143 67.482,244.632 67.482,244.632C67.728,244.848 68.074,244.909 68.379,244.79C68.683,244.672 68.897,244.394 68.933,244.068L69.764,236.517C69.795,236.232 69.686,235.95 69.47,235.762L58.878,226.463C58.878,226.463 59.632,219.614 59.632,219.614C59.632,219.614 67.58,226.12 67.58,226.12C67.836,226.329 68.187,226.377 68.489,226.244C68.791,226.112 68.993,225.82 69.011,225.491L69.595,215.238C69.595,215.238 75.149,219.311 75.149,219.311C75.149,219.311 74.831,233.402 74.831,233.402C74.824,233.688 74.958,233.959 75.189,234.129L81.314,238.624C81.578,238.818 81.928,238.848 82.221,238.704C82.514,238.559 82.703,238.264 82.71,237.937L83.001,225.076C83.001,225.076 86.159,227.4 86.159,227.4C86.159,227.4 85.848,241.493 85.848,241.493C85.842,241.779 85.975,242.05 86.206,242.219Z" style="fill-rule:nonzero;"/>
    </g>
</svg>
