<?xml version="1.0" encoding="UTF-8" standalone="no"?>
<!DOCTYPE svg PUBLIC "-//W3C//DTD SVG 1.1//EN" "http://www.w3.org/Graphics/SVG/1.1/DTD/svg11.dtd">
<svg width="100%" height="100%" viewBox="0 0 1123 794" version="1.1" xmlns="http://www.w3.org/2000/svg" xmlns:xlink="http://www.w3.org/1999/xlink" xml:space="preserve" xmlns:serif="http://www.serif.com/" style="fill-rule:evenodd;clip-rule:evenodd;stroke-linejoin:round;stroke-miterlimit:2;">
    <path d="M0.763,233.654C1.257,185.132 27.188,142.701 65.84,118.992C65.398,118.817 65.044,118.669 64.75,118.492L64.722,118.492C55.281,115.374 48.341,108.758 41.958,101.287C30.577,85.318 46.666,69.791 47.751,53.967C48.723,40.557 42.782,25.706 49.694,12.56C53.84,3.853 62.664,0.531 72.427,0.768C81.014,1.208 89.338,4.267 95.161,8.707C107.57,18.236 119.159,31.999 128.776,45.146C128.776,44.116 130.394,42.292 132.157,41.293C133.276,40.617 134.598,40.263 136.01,40.263L144.597,40.263C146.422,40.263 148.067,40.88 149.422,41.91C150.863,43.057 151.891,44.704 152.273,46.587C152.802,46.587 182.859,16.178 188.975,12.177C195.124,8.148 203.623,5.737 212.21,5.942C221.975,6.413 230.502,10.413 234.032,19.412C239.942,32.998 232.913,47.381 232.854,60.821C232.825,76.702 247.707,93.348 235.179,108.435C229.972,113.729 222.856,118.846 215.857,121.903L215.797,121.903C215.417,122.021 214.603,122.283 213.44,122.66C235.706,137.872 253.229,159.522 263.318,184.913L263.635,185.717C269.445,200.605 272.705,216.771 272.875,233.676L272.882,235.085L272.88,235.812L272.866,237.183L272.848,238.157L272.816,239.357L272.777,240.461C272.271,253.525 269.932,266.101 265.999,277.951C265.659,278.997 265.294,280.017 264.925,281.008L264.5,282.186C263.205,285.714 261.764,289.155 260.177,292.537C259.764,293.448 259.353,294.331 258.911,295.213C258.206,296.654 257.441,298.096 256.707,299.508C256.647,299.565 256.619,299.654 256.588,299.713C255.177,302.329 253.677,304.919 252.09,307.419C251.717,307.987 251.375,308.559 250.98,309.103L250.882,309.252C250.472,309.92 250.043,310.551 249.594,311.192L249.354,311.546L249.354,311.565C249.088,312.005 248.794,312.416 248.472,312.829C245.795,316.713 242.913,320.415 239.854,323.976C215.151,352.578 178.758,370.759 138.144,371.142L136.819,371.148C133.222,371.148 129.657,371.008 126.124,370.733C59.482,365.554 6.326,312.384 1.167,245.731C0.895,242.217 0.756,238.667 0.756,235.085L0.763,233.654ZM28.751,280.397C40.488,308.332 62.752,330.776 90.57,342.754C86.43,339.961 82.52,336.774 78.888,333.213C75.47,329.86 75.47,324.406 78.888,321.053C82.307,317.7 87.87,317.7 91.289,321.053C93.511,323.232 95.866,325.23 98.335,327.046C102.763,312.408 102.398,299.836 101.771,293.577L92.474,300.653C89.142,303.191 84.772,303.273 81.343,300.862C77.913,298.45 76.589,294.365 77.972,290.454L85.343,269.604L86.265,255.979C86.324,255.115 86.821,254.338 87.589,253.91C88.356,253.482 89.292,253.461 90.078,253.854C90.199,253.915 91.551,254.595 93.379,255.698L90.219,242.394L72.795,235.617L73.743,234.921L60.959,228.962L55.458,232.149L69.292,238.586L62.38,242.58L48.557,236.132L40.419,240.826L51.529,246.478L40.419,252.14L48.557,256.834L62.38,250.385L69.292,254.369L55.458,260.817L60.959,263.993L74.793,257.544L81.694,261.528L67.871,267.976L78.895,274.349C80.197,275.092 80.639,276.761 79.885,278.064C79.131,279.377 77.474,279.818 76.16,279.065L65.136,272.702L66.471,287.903L59.571,283.92L58.236,268.719L52.734,265.532L54.059,280.733L47.158,276.75L45.834,261.549L37.695,256.856L38.352,269.3L27.898,262.507L27.898,271.906L40.397,280.658L40.397,288.624L28.794,280.5L28.751,280.397ZM233.012,301.959C231.873,301.683 230.731,301.431 229.591,301.155C226.915,302.799 224.267,304.448 221.621,306.066C220.62,306.683 219.327,306.417 218.65,305.447C218.445,305.153 218.326,304.8 218.297,304.448L200.475,303.418L187.72,318.623C190.354,318.261 193.125,319.071 195.146,321.053C196.802,322.677 197.715,324.836 197.714,327.133C197.714,329.43 196.802,331.589 195.146,333.213C191.721,336.571 188.049,339.597 184.169,342.273C198.375,335.983 211.1,326.95 221.671,315.847C221.653,315.726 221.646,315.602 221.65,315.475C221.681,314.328 222.62,313.389 223.767,313.36L223.978,313.353C224.787,312.453 225.583,311.54 226.362,310.616C224.439,310.455 223.754,307.872 225.474,306.802C227.928,305.293 230.355,303.762 232.807,302.252L233.012,301.959ZM152.231,328.2C153.857,330.702 156.365,333.727 158.432,336.092C151.639,338.426 144.423,339.645 137.018,339.645C130.424,339.645 123.98,338.678 117.851,336.819L122.432,328.338C127.245,329.627 139.269,332.015 152.231,328.2ZM177.773,297.679C179.293,301.583 178.384,304.766 175.569,303.113C175.843,310.356 177.192,319.266 178.76,324.648C180.13,323.509 181.461,322.312 182.746,321.053C183.762,320.056 184.968,319.356 186.251,318.952L181.093,299.3L177.773,297.679ZM223.767,299.771C222.62,300.476 221.444,301.212 220.268,301.948L218.827,299.713C219.267,299.448 219.709,299.183 220.151,298.889C221.356,299.183 222.561,299.477 223.767,299.771ZM216.254,269.417L210.092,286.304L214.679,293.332C214.886,293.39 215.092,293.448 215.297,293.478C215.003,293.008 214.709,292.537 214.444,292.068C213.827,291.067 214.15,289.772 215.209,289.213C216.208,288.655 217.503,289.009 218.12,289.979C219.121,291.624 220.12,293.244 221.091,294.862C222.326,295.154 223.533,295.448 224.738,295.744C223.798,294.214 222.885,292.712 221.975,291.213C221.356,290.183 221.681,288.89 222.737,288.331C223.738,287.802 225.032,288.125 225.65,289.124C227.268,291.772 228.915,294.449 230.531,297.123C231.737,297.39 232.973,297.682 234.178,297.978C232.591,295.39 231.002,292.802 229.414,290.214C228.325,288.419 230.296,286.304 232.178,287.303C232.847,287.663 233.514,288.023 234.18,288.383L238.176,290.544C238.654,290.802 239.133,291.061 239.613,291.319C239.716,291.13 239.819,290.941 239.922,290.753C239.654,289.848 239.386,288.951 239.12,288.037C236.355,286.567 233.619,285.068 230.856,283.596C229.854,283.068 229.414,281.773 229.914,280.745C230.414,279.657 231.678,279.244 232.737,279.803C234.297,280.656 235.855,281.479 237.414,282.332C237.06,281.125 236.708,279.949 236.355,278.744C234.65,277.832 232.973,276.95 231.296,276.039C230.296,275.48 229.885,274.216 230.356,273.186C230.504,272.863 230.72,272.599 230.978,272.404C230.694,272.475 230.416,272.541 230.144,272.603C227.307,273.25 225.023,273.41 223.294,273.132C221.492,272.841 220.132,272.407 219.201,271.872C218.277,271.341 217.313,270.552 216.321,269.491L216.254,269.417ZM202.504,293.509L195.447,293.184L191.358,297.567L189.212,291.301L183.182,288.507L188.858,285.008L189.565,278.948L194.77,282.891L201.006,281.098L198.946,288.154L202.504,293.509ZM144.712,285.874L145.927,285.831C153.666,285.755 159.844,286.382 165.152,287.752L177.948,279.302L179.124,269.362L157.803,267.421L144.712,285.874ZM96.372,257.636C97.666,258.539 98.998,259.563 100.194,260.664C108.144,261.53 115.866,266.542 122.586,275.216C126.172,279.845 128.6,284.364 129.777,286.756C132.882,286.467 135.79,286.245 138.527,286.09L139.258,286.065L135.51,262.245L112.218,252.716L120.717,247.071L106.454,245.776L96.372,257.636ZM208.815,142.671C208.607,143.231 208.143,143.687 207.524,143.861C207.499,143.868 207.473,143.873 207.447,143.877L194.698,145.872C194.773,146.383 194.813,146.927 194.815,147.505C194.822,149.821 194.032,151.956 192.417,153.9C191.345,155.189 189.473,156.626 186.77,158.168C184.219,159.623 181.251,161.136 177.863,162.707C174.567,164.235 172.726,165.104 172.341,165.318C172.333,165.323 172.325,165.327 172.316,165.332C162.377,170.61 155.065,174.832 150.382,178.004C145.79,181.113 142.125,184.304 139.396,187.589C138.749,188.367 138.296,189.048 138.063,189.65C137.939,189.971 137.828,190.374 137.817,190.416C137.887,190.738 137.948,191.071 137.997,191.418C138.036,191.69 138.035,191.948 137.994,192.194L143.481,197.28L148.049,195.997C147.252,194.462 146.993,192.731 147.281,190.801C147.662,188.236 148.919,185.63 151.099,183.007C152.746,181.025 154.867,179.239 157.471,177.657C160.036,176.099 162.699,174.906 165.458,174.075C168.309,173.217 171.159,173.018 174.005,173.475C176.969,173.949 179.375,175.195 181.235,177.185C183.004,179.078 183.783,181.131 183.59,183.34C187.626,181.236 194.076,177.898 202.941,173.326C202.95,173.321 202.96,173.316 202.97,173.311C203.919,172.851 204.74,173.012 205.44,173.76C205.44,173.76 209.818,178.444 209.818,178.444C210.237,178.892 210.406,179.445 210.238,180.123C210.079,180.763 209.722,181.136 209.308,181.344C190.328,191.182 178.915,197.176 175.07,199.328C171.416,201.373 168.943,203.123 167.69,204.63C167.589,204.751 167.505,204.864 167.446,204.971C167.431,205 167.414,205.042 167.404,205.07C167.65,205.324 168.026,205.447 168.497,205.519C169.214,205.628 170.106,205.581 171.174,205.405C173.113,205.085 175.829,204.342 179.323,203.187C179.729,202.913 180.149,202.644 180.582,202.381C183.147,200.823 185.81,199.63 188.569,198.8C191.42,197.941 194.269,197.742 197.116,198.199C200.069,198.672 202.468,199.91 204.326,201.888C204.371,201.871 204.418,201.856 204.465,201.843C204.465,201.843 216.968,198.34 216.968,198.34C217.997,198.051 219.067,198.653 219.355,199.682C219.355,199.682 220.04,202.126 220.04,202.126C220.328,203.155 219.727,204.225 218.698,204.513C218.673,204.52 218.647,204.526 218.621,204.53L206.666,206.4C206.767,207.072 206.772,207.759 206.682,208.462C207.074,208.544 207.439,208.763 207.774,209.122C207.774,209.122 212.208,213.865 212.208,213.865C212.627,214.313 212.796,214.866 212.627,215.544C212.501,216.055 212.218,216.461 211.772,216.759C211.731,216.786 211.688,216.811 211.645,216.834C203.106,221.261 197.579,224.254 195.067,225.815C192.7,227.286 191.036,228.568 190.099,229.695C190.007,229.806 189.914,229.949 189.851,230.051C189.943,230.068 190.06,230.088 190.158,230.098C190.995,230.187 192.23,230.082 193.867,229.815C196.687,229.356 200.197,228.367 204.399,226.858C204.399,226.858 218.05,219.769 218.05,219.769C218.061,219.763 218.072,219.758 218.083,219.753C219.032,219.292 219.853,219.453 220.553,220.202C220.553,220.202 224.986,224.945 224.986,224.945C225.258,225.236 225.502,225.713 225.406,226.446C225.35,226.871 225.193,227.216 224.936,227.478C227.254,227.948 229.175,229.017 230.708,230.657C232.312,232.373 233.004,234.184 232.881,236.053C232.818,236.998 232.54,237.969 232.03,238.96C232.68,238.909 233.295,238.893 233.874,238.912C235.429,238.963 236.744,239.242 237.824,239.721C238.897,240.196 239.714,240.672 240.286,241.129C240.831,241.564 241.445,242.144 242.125,242.871C243.683,244.538 244.406,246.408 244.334,248.467C244.264,250.482 243.591,252.254 242.318,253.786C241.146,255.197 239.67,256.432 237.886,257.485C237.867,257.496 237.848,257.507 237.828,257.517C232.887,260.114 229.403,261.983 227.377,263.123C225.543,264.155 224.317,264.989 223.74,265.684C223.639,265.805 223.555,265.917 223.496,266.025C223.481,266.053 223.464,266.095 223.454,266.123C223.492,266.155 223.547,266.172 223.608,266.194C223.76,266.247 223.945,266.284 224.158,266.316C225.143,266.466 226.575,266.402 228.456,266.156C231.762,265.723 235.296,264.829 239.053,263.483C239.724,263.189 240.231,263.36 240.559,263.578C240.89,263.799 241.257,264.213 241.231,264.988C241.23,265.015 241.228,265.041 241.225,265.068L240.957,267.873C240.913,268.783 240.455,269.292 239.783,269.531C239.215,269.749 238.659,269.958 238.116,270.156C238.286,270.715 238.455,271.274 238.618,271.833C238.885,271.362 239.149,270.861 239.414,270.392C239.973,269.331 241.266,269.01 242.265,269.627C243.266,270.215 243.589,271.508 243.059,272.538L240.325,277.569L241.383,281.125C242.236,279.569 243.09,278.039 243.912,276.479C244.491,275.437 245.727,275.106 246.747,275.686C251.427,263.036 253.984,249.357 253.984,235.085C253.984,197.553 236.299,164.119 208.815,142.671ZM94.108,273.251C95.738,273.251 97.061,274.548 97.061,276.146C97.061,277.744 95.738,279.041 94.108,279.041C92.479,279.041 91.156,277.744 91.156,276.146C91.156,274.548 92.479,273.251 94.108,273.251ZM234.176,271.499C233.581,271.685 233.006,271.856 232.449,272.012C232.696,272.043 232.942,272.119 233.179,272.244C233.649,272.509 234.149,272.774 234.65,273.038C234.487,272.526 234.33,272.013 234.176,271.499ZM214.623,266.465C214.441,265.745 214.383,264.986 214.449,264.188C214.602,262.315 215.429,260.425 216.992,258.545C218.109,257.201 219.313,256.071 220.601,255.154C221.826,254.281 224.226,252.926 227.822,251.091C231.475,249.024 233.886,247.349 235.016,246.008C235.226,245.76 235.383,245.537 235.467,245.324L235.478,245.291C235.204,245.086 234.833,244.944 234.375,244.837C233.718,244.683 232.902,244.613 231.931,244.605C229.732,244.586 227.1,245.189 224.02,246.382C223.697,246.565 223.403,246.744 223.139,246.92C223.101,246.945 223.062,246.969 223.022,246.99C220.409,248.372 214.647,251.325 205.747,255.841C205.306,256.115 204.873,256.192 204.47,256.145C204.047,256.095 203.624,255.906 203.242,255.498C203.242,255.498 198.42,250.34 198.42,250.34C198.054,249.948 197.859,249.438 197.945,248.78C198.038,248.072 198.411,247.588 199.059,247.333C207.737,242.896 213.4,239.963 216.049,238.536C217.995,237.448 219.495,236.606 220.547,236.01C221.548,235.443 222.45,234.856 223.253,234.249C223.568,234.011 223.827,233.797 224.02,233.596C224.132,233.48 224.221,233.379 224.266,233.278C224.248,233.252 224.219,233.211 224.195,233.185C223.958,232.932 223.581,232.786 223.1,232.673C222.405,232.51 221.534,232.458 220.487,232.498C218.22,232.585 215.194,233.288 211.4,234.577C211.4,234.577 194.162,243.539 194.162,243.539C194.151,243.545 194.14,243.55 194.129,243.556C193.137,244.037 192.342,243.837 191.714,243.166L190.786,242.173L189.181,246.452L193.977,254.57L184.8,253.892L181.418,258.158L196.505,270.363L214.623,266.465ZM169.743,249.334L176.007,252.188L179.241,263.569L169.743,249.334ZM137.657,250.424L144.568,246.216L145.391,238.864L151.685,243.658L159.242,241.481L156.745,250.011L161.037,256.48L152.508,256.069L147.568,261.394L144.979,253.804L137.657,250.424ZM187.688,238.859L187.281,238.423C186.862,237.975 186.693,237.422 186.861,236.744C186.875,236.687 186.892,236.631 186.91,236.576C186.496,236.452 186.135,236.307 185.825,236.144C184.962,235.69 184.056,234.973 183.124,233.976C181.699,232.451 181.018,230.546 181.121,228.246C181.173,227.092 181.418,225.988 181.86,224.934C180.124,225.213 178.58,225.237 177.225,225.022L168.771,246.775L175.154,243.424L175.802,234.426L183.007,240.159L187.688,238.859ZM136.951,215.603L134.158,214.25L133.128,238.953L124.099,244.982L114.747,230.777L121.159,213.484L107.513,216.397L113.805,208.336L131.216,209.631L135.804,211.22L136.951,215.603ZM108.423,237.6L102.159,237.308L98.513,241.218L96.601,235.629L91.221,233.158L96.278,230.041L96.897,224.63L101.543,228.16L107.101,226.542L105.276,232.835L108.423,237.6ZM27.866,191.94L27.866,191.939C35.519,172.65 48.152,155.866 64.177,143.178L70.546,145.608L72.309,151.812L72.104,167.459L61.28,174.605L73.22,179.604L77.192,191.927L84.455,182.341L94.748,183.163L94.574,185.811L78.604,196.25L83.984,199.367L80.191,200.339L72.897,194.369L71.956,203.573L66.25,207.577L66.471,205.063L59.571,209.046L58.236,224.247L52.734,227.423L54.059,212.222L47.158,216.205L45.834,231.406L37.695,236.1L38.352,223.655L27.898,230.448L27.898,221.06L40.397,212.308L40.397,204.331L27.898,213.083L27.898,206.731L40.397,197.979L40.397,190.013L27.898,198.754L27.898,191.859C27.888,191.886 27.877,191.913 27.866,191.94ZM79.742,230.517L67.871,224.979L75.44,220.61L75.691,221.425L81.367,214.368L88.425,215.19L87.866,224.809L84.955,226.69L79.742,230.517ZM20.912,219.942L20.907,219.979L22.451,221.06L22.451,230.448L19.829,228.744C19.884,228.366 20.271,224.663 20.907,219.979L20.855,219.942L20.912,219.942ZM152.398,199.86L150.596,205.25L155.861,214.22L145.892,213.72L140.422,219.337L153.743,230.337L176.121,224.782C174.673,224.378 173.481,223.659 172.539,222.651C170.701,220.685 169.977,218.312 170.391,215.525C170.558,214.406 170.89,213.279 171.393,212.147C169.682,212.534 168.232,212.7 167.046,212.659C165.295,212.599 163.985,212.299 163.103,211.835C162.248,211.385 161.284,210.612 160.235,209.489C158.843,208 158.223,206.023 158.473,203.528C158.592,202.334 158.884,201.203 159.348,200.133C156.561,200.638 154.247,200.526 152.398,199.86ZM19.829,228.744C19.826,228.765 19.824,228.776 19.823,228.776C19.822,228.775 19.822,228.764 19.823,228.74L19.829,228.744ZM65.136,220.264L73.789,215.262L72.986,212.661L66.093,209.374L65.136,220.264ZM198.164,212.446C195.924,213.619 194.041,214.672 192.514,215.605C188.07,217.361 184.675,218.314 182.319,218.413C181.174,218.461 180.34,218.365 179.878,217.871C179.725,217.707 179.768,217.462 179.821,217.16C179.93,216.552 180.282,215.933 180.828,215.277C182.31,213.493 184.473,211.748 187.301,210.022C190.145,208.286 192.967,207.089 195.773,206.442C197,206.159 198.041,206.042 198.897,206.132C199.63,206.208 200.212,206.437 200.622,206.875C200.776,207.041 200.841,207.251 200.852,207.497C200.866,207.848 200.778,208.254 200.623,208.718C200.221,209.919 199.39,211.154 198.164,212.446ZM96.601,204.074L99.043,213.808L89.278,205.925L89.132,206.044L88.308,210.955L85.514,207.014L88.102,200.839L96.601,204.074ZM198.054,212.564C198.023,212.601 197.999,212.638 197.982,212.675C198.009,212.622 198.044,212.572 198.087,212.528L198.054,212.564ZM82.514,210.544L79.486,210.398L77.72,212.279L76.81,209.574L74.192,208.398L76.662,206.868L76.956,204.28L79.19,205.955L81.867,205.193L80.985,208.221L82.514,210.544ZM134.869,194.36C134.391,194.374 133.855,194.332 133.26,194.224C131.492,193.902 129.967,193.063 128.69,191.697C127.287,190.196 126.682,188.264 126.953,185.88C127.202,183.686 128.105,181.633 129.684,179.734C132.236,176.662 135.34,173.853 138.999,171.309C142.301,169.013 146.873,166.284 152.715,163.125L144.979,154.849C144.024,155.307 142.698,155.937 141.002,156.738C138.696,157.828 137.035,158.605 136.02,159.069C135.002,159.533 133.477,160.208 131.444,161.093C129.366,161.998 127.789,162.62 126.714,162.965C125.666,163.3 124.337,163.722 122.727,164.23C120.978,164.781 119.57,165.069 118.505,165.117C117.508,165.161 116.422,165.183 115.25,165.18C113.882,165.177 112.707,164.931 111.72,164.47C111.626,164.426 111.533,164.38 111.442,164.332L105.19,163.989L99.925,169.899L109.924,179.399L128.628,174.545L122.306,192.398L129.863,203.515L134.01,201.427L134.869,194.36ZM115.777,199.663L109.482,199.367L105.835,203.281L103.923,197.691L98.543,195.22L103.629,192.104L104.248,186.693L108.894,190.222L114.453,188.605L112.601,194.897L115.777,199.663ZM174.828,188.003C173.084,188.906 171.604,189.722 170.389,190.447C166.73,191.94 163.585,192.936 160.961,193.418C159.764,193.639 158.769,193.712 157.975,193.614C157.445,193.548 157.028,193.426 156.767,193.147C156.615,192.983 156.657,192.738 156.711,192.436C156.819,191.828 157.172,191.209 157.718,190.553C159.2,188.769 161.363,187.024 164.19,185.298C167.034,183.562 169.857,182.365 172.663,181.718C173.889,181.435 174.931,181.318 175.786,181.408C176.52,181.484 177.101,181.713 177.511,182.151C177.924,182.594 177.815,183.25 177.514,184.107C177.074,185.36 176.166,186.65 174.828,188.003ZM174.754,188.077C174.729,188.102 174.706,188.129 174.686,188.158C174.666,188.186 174.648,188.216 174.633,188.247C174.658,188.19 174.698,188.133 174.754,188.077ZM77.897,171.429L78.337,167.43L81.778,170.016L85.896,168.84L84.543,173.488L86.866,177.018L82.22,176.782L79.544,179.693L78.132,175.546L74.133,173.723L77.897,171.429ZM94.514,161.341L96.985,162.165L98.159,168.871L95.955,167.105L95.131,178.694L90.337,172.399L94.514,161.341ZM83.074,163.666L76.485,157.665L83.337,148.607L95.69,149.489L95.338,154.195L88.573,158.167L92.865,160.636L83.074,163.666ZM106.1,159.665L103.07,159.548L101.308,161.429L100.396,158.724L97.779,157.519L100.248,156.018L100.544,153.43L102.778,155.108L105.455,154.343L104.571,157.371L106.1,159.665ZM152.585,151.444C165.245,146.109 175.099,143.573 182.175,143.914C182.176,143.914 183.365,145.186 183.365,145.186C183.897,145.754 184.403,146.245 184.881,146.66C184.129,147.207 183.192,147.769 182.074,148.352C180.117,149.372 177.428,150.669 174.007,152.243C170.537,153.839 167.565,155.281 165.09,156.568C163.004,157.65 161.285,158.563 159.934,159.307C159.934,159.307 152.585,151.444 152.585,151.444L152.585,151.444ZM124.514,118.56C113.811,119.679 103.536,122.241 93.883,126.049L90.279,137.638L96.043,146.373L96.424,144.019L102.984,150.225L109.093,148.579L109.216,148.428C109.841,147.676 110.472,147.169 111.081,146.874C111.609,146.618 112.041,146.535 112.352,146.54C112.885,146.548 113.275,146.754 113.56,147.06C113.681,147.189 113.83,147.395 113.925,147.72C113.984,147.921 114.04,148.262 114.062,148.745C114.067,148.859 114.062,148.961 114.124,149.027C114.837,149.79 115.715,150.304 116.753,150.574C117.934,150.881 119.669,150.88 121.957,150.624C124.391,150.352 127.643,149.535 131.718,148.187C135.881,146.81 141.017,144.868 147.124,142.363C158.41,137.725 167.894,135.427 175.565,135.419C175.478,135.295 175.386,135.165 175.291,135.029C174.258,133.563 173.505,132.509 173.033,131.869C172.568,131.238 171.758,130.24 170.607,128.875C169.443,127.495 168.204,126.103 166.89,124.697C165,122.675 162.663,121.177 159.884,120.194C157.034,119.624 154.147,119.157 151.227,118.799C150.649,118.81 150.071,118.843 149.492,118.897C146.244,119.197 143.076,120.085 139.988,121.555C136.94,123.006 134.451,124.882 132.529,127.195C131.185,128.812 130.36,130.374 130.103,131.908C129.886,133.207 130.215,134.331 131.1,135.278C132.292,136.553 133.971,136.962 136.1,136.636C138.349,136.291 140.012,135.56 141.035,134.33C141.65,133.589 142.317,133.528 142.785,133.637C143.093,133.709 143.403,133.873 143.667,134.197C143.864,134.437 144.081,134.869 144.202,135.518C144.593,137.148 144.217,138.705 142.999,140.169C140.887,142.711 137.764,144.315 133.59,144.902C129.333,145.5 125.777,144.261 122.916,141.201C123.042,141.335 123.219,141.412 123.403,141.412C123.403,141.412 122.916,141.2 122.916,141.2C122.916,141.2 123.403,141.412 123.403,141.412L122.916,141.2C120.551,138.671 119.423,135.159 119.644,130.63C119.859,126.237 121.436,122.26 124.391,118.706L124.514,118.56ZM75.653,135.155C76.528,134.618 77.411,134.092 78.301,133.577L79.749,134.667L84.19,133.374L82.72,138.431L85.251,142.255L80.22,142.02L77.309,145.137L75.78,140.668L71.456,138.668L75.543,136.168L75.653,135.155ZM175.894,124.605C176.841,125.787 177.858,127.115 178.945,128.588C181.247,131.705 183.547,134.588 185.846,137.237C188.449,138.245 190.685,139.695 192.557,141.581C192.764,141.405 193.012,141.269 193.291,141.191L203.06,138.454C194.718,132.722 185.6,128.042 175.894,124.605ZM180.189,106.092C174.413,104.148 168.461,102.581 162.366,101.421C161.639,100.11 160.883,98.715 160.126,97.318C160.038,97.141 159.95,96.995 159.89,96.847C157.125,91.759 155.303,86.083 153.862,80.436L179.889,104.287L180.419,105.288C180.419,105.288 180.253,105.564 180.189,106.092ZM115.274,100.721C108.993,101.722 102.856,103.153 96.893,104.984L96.631,104.2L98.278,101.641L126.011,79.759C123.982,85.819 121.482,91.818 117.923,97.024L117.894,97.024C117.835,97.141 117.775,97.229 117.687,97.318C117.658,97.406 117.57,97.523 117.452,97.671C116.986,98.312 116.204,99.471 115.274,100.721ZM135.95,51.587C137.215,50.409 138.892,49.792 140.627,49.852C142.334,49.909 143.98,50.645 145.127,51.938C146.303,53.174 146.951,54.849 146.862,56.556C146.803,58.291 146.038,59.908 144.803,61.086C143.509,62.26 141.863,62.879 140.128,62.819C138.421,62.762 136.775,62.026 135.628,60.733C134.452,59.497 133.804,57.82 133.864,56.115C133.952,54.35 134.717,52.763 135.95,51.587ZM207.857,15.296C218.916,11.766 223.15,20.353 218.297,30.998C205.298,42.235 188.889,48.674 171.713,49.233C178.065,33.087 191.329,20.618 207.857,15.296ZM64.545,25.293C60.458,14.325 65.338,6.09 76.074,10.442C92.16,16.971 104.454,30.352 109.63,46.91C92.543,45.117 76.633,37.47 64.545,25.293Z" style="fill:none;stroke:rgb(255,0,0);stroke-width:1px;"/>
</svg>
