<?xml version="1.0" encoding="UTF-8" standalone="no"?>
<!DOCTYPE svg PUBLIC "-//W3C//DTD SVG 1.1//EN" "http://www.w3.org/Graphics/SVG/1.1/DTD/svg11.dtd">
<svg width="100%" height="100%" viewBox="0 0 1123 794" version="1.1" xmlns="http://www.w3.org/2000/svg" xmlns:xlink="http://www.w3.org/1999/xlink" xml:space="preserve" xmlns:serif="http://www.serif.com/" style="fill-rule:evenodd;clip-rule:evenodd;stroke-linejoin:round;stroke-miterlimit:2;">
    <path d="M0.763,233.654C1.257,185.132 27.188,142.701 65.84,118.992C65.398,118.817 65.044,118.669 64.75,118.492L64.722,118.492C55.281,115.374 48.341,108.758 41.958,101.287C30.577,85.318 46.666,69.791 47.751,53.967C48.723,40.557 42.782,25.706 49.694,12.56C53.84,3.853 62.664,0.531 72.427,0.768C81.014,1.208 89.338,4.267 95.161,8.707C107.57,18.236 119.159,31.999 128.776,45.146C128.776,44.116 130.394,42.292 132.157,41.293C133.276,40.617 134.598,40.263 136.01,40.263L144.597,40.263C146.422,40.263 148.067,40.88 149.422,41.91C150.863,43.057 151.891,44.704 152.273,46.587C152.802,46.587 182.859,16.178 188.975,12.177C195.124,8.148 203.623,5.737 212.21,5.942C221.975,6.413 230.502,10.413 234.032,19.412C239.942,32.998 232.913,47.381 232.854,60.821C232.825,76.702 247.707,93.348 235.179,108.435C229.972,113.729 222.856,118.846 215.857,121.903L215.797,121.903C215.417,122.021 214.603,122.283 213.44,122.66C235.706,137.872 253.229,159.522 263.318,184.913L263.635,185.717C269.445,200.605 272.705,216.771 272.875,233.676L272.882,235.085L272.88,235.812L272.866,237.183L272.848,238.157L272.816,239.357L272.777,240.461C272.271,253.525 269.932,266.101 265.999,277.951C265.659,278.997 265.294,280.017 264.925,281.008L264.5,282.186C263.205,285.714 261.764,289.155 260.177,292.537C259.764,293.448 259.353,294.331 258.911,295.213C258.206,296.654 257.441,298.096 256.707,299.508C256.647,299.565 256.619,299.654 256.588,299.713C255.177,302.329 253.677,304.919 252.09,307.419C251.717,307.987 251.375,308.559 250.98,309.103L250.882,309.252C250.472,309.92 250.043,310.551 249.594,311.192L249.354,311.546L249.354,311.565C249.088,312.005 248.794,312.416 248.472,312.829C245.795,316.713 242.913,320.415 239.854,323.976C215.151,352.578 178.758,370.759 138.144,371.142L136.819,371.148C133.222,371.148 129.657,371.008 126.124,370.733C59.482,365.554 6.326,312.384 1.167,245.731C0.895,242.217 0.756,238.667 0.756,235.085L0.763,233.654ZM28.751,280.397C40.488,308.332 62.752,330.776 90.57,342.754C86.43,339.961 82.52,336.774 78.888,333.213C75.47,329.86 75.47,324.406 78.888,321.053C82.307,317.7 87.87,317.7 91.289,321.053C93.511,323.232 95.866,325.23 98.335,327.046C102.763,312.408 102.398,299.836 101.771,293.577L92.474,300.653C89.142,303.191 84.772,303.273 81.343,300.862C77.913,298.45 76.589,294.365 77.972,290.454L85.343,269.604L86.265,255.979C86.324,255.115 86.821,254.338 87.589,253.91C88.356,253.482 89.292,253.461 90.078,253.854C90.199,253.915 91.551,254.595 93.379,255.698L90.219,242.394L72.795,235.617L73.743,234.921L60.959,228.962L55.458,232.149L69.292,238.586L62.38,242.58L48.557,236.132L40.419,240.826L51.529,246.478L40.419,252.14L48.557,256.834L62.38,250.385L69.292,254.369L55.458,260.817L60.959,263.993L74.793,257.544L81.694,261.528L67.871,267.976L78.895,274.349C80.197,275.092 80.639,276.761 79.885,278.064C79.131,279.377 77.474,279.818 76.16,279.065L65.136,272.702L66.471,287.903L59.571,283.92L58.236,268.719L52.734,265.532L54.059,280.733L47.158,276.75L45.834,261.549L37.695,256.856L38.352,269.3L27.898,262.507L27.898,271.906L40.397,280.658L40.397,288.624L28.794,280.5L28.751,280.397ZM233.012,301.959C231.873,301.683 230.731,301.431 229.591,301.155C226.915,302.799 224.267,304.448 221.621,306.066C220.62,306.683 219.327,306.417 218.65,305.447C218.445,305.153 218.326,304.8 218.297,304.448L200.475,303.418L187.72,318.623C190.354,318.261 193.125,319.071 195.146,321.053C196.802,322.677 197.715,324.836 197.714,327.133C197.714,329.43 196.802,331.589 195.146,333.213C191.721,336.571 188.049,339.597 184.169,342.273C198.375,335.983 211.1,326.95 221.671,315.847C221.653,315.726 221.646,315.602 221.65,315.475C221.681,314.328 222.62,313.389 223.767,313.36L223.978,313.353C224.787,312.453 225.583,311.54 226.362,310.616C224.439,310.455 223.754,307.872 225.474,306.802C227.928,305.293 230.355,303.762 232.807,302.252L233.012,301.959ZM152.231,328.2C153.857,330.702 156.365,333.727 158.432,336.092C151.639,338.426 144.423,339.645 137.018,339.645C130.424,339.645 123.98,338.678 117.851,336.819L122.432,328.338C127.245,329.627 139.269,332.015 152.231,328.2ZM177.773,297.679C179.293,301.583 178.384,304.766 175.569,303.113C175.843,310.356 177.192,319.266 178.76,324.648C180.13,323.509 181.461,322.312 182.746,321.053C183.762,320.056 184.968,319.356 186.251,318.952L181.093,299.3L177.773,297.679ZM223.767,299.771C222.62,300.476 221.444,301.212 220.268,301.948L218.827,299.713C219.267,299.448 219.709,299.183 220.151,298.889C221.356,299.183 222.561,299.477 223.767,299.771ZM215.219,272.255L210.092,286.304L214.679,293.332C214.886,293.39 215.092,293.448 215.297,293.478C215.003,293.008 214.709,292.537 214.444,292.068C213.827,291.067 214.15,289.772 215.209,289.213C216.208,288.655 217.503,289.009 218.12,289.979C219.121,291.624 220.12,293.244 221.091,294.862C222.326,295.154 223.533,295.448 224.738,295.744C223.798,294.214 222.885,292.712 221.975,291.213C221.356,290.183 221.681,288.89 222.737,288.331C223.738,287.802 225.032,288.125 225.65,289.124C227.268,291.772 228.915,294.449 230.531,297.123C231.737,297.39 232.973,297.682 234.178,297.978C232.591,295.39 231.002,292.802 229.414,290.214C228.794,289.192 229.166,288.067 229.948,287.471C229.157,286.995 228.337,286.308 227.492,285.405C226.039,283.85 225.354,281.902 225.459,279.555C225.538,277.803 226.046,276.161 226.989,274.633C221.695,275.853 217.892,275.135 215.563,272.642C215.443,272.515 215.329,272.386 215.219,272.255ZM202.504,293.509L195.447,293.184L191.358,297.567L189.212,291.301L183.182,288.507L188.858,285.008L189.565,278.948L194.77,282.891L201.006,281.098L198.946,288.154L202.504,293.509ZM241.748,287.423L241.275,287.558C238.52,288.331 236.286,288.671 234.574,288.596L238.176,290.544C238.654,290.802 239.133,291.061 239.613,291.319C239.716,291.13 239.819,290.941 239.922,290.753C240.173,290.651 240.88,289.289 241.748,287.423ZM144.712,285.874L145.927,285.831C153.666,285.755 159.844,286.382 165.152,287.752L177.948,279.302L179.124,269.362L157.803,267.421L144.712,285.874ZM96.372,257.636C97.666,258.539 98.998,259.563 100.194,260.664C108.144,261.53 115.866,266.542 122.586,275.216C126.172,279.845 128.6,284.364 129.777,286.756C132.882,286.467 135.79,286.245 138.527,286.09L139.258,286.065L135.51,262.245L112.218,252.716L120.717,247.071L106.454,245.776L96.372,257.636ZM248.244,271.383C244.323,273.486 241.542,275.048 239.9,276.069C237.133,277.788 235.195,279.299 234.1,280.617C233.577,281.246 233.356,281.733 233.731,282.135C233.904,282.32 234.246,282.387 234.722,282.437C235.715,282.542 237.182,282.428 239.123,282.112C240.758,281.846 242.596,281.424 244.638,280.848C245.837,278.011 246.78,275.674 246.747,275.686C247.273,274.264 247.772,272.829 248.244,271.383ZM94.108,273.251C95.738,273.251 97.061,274.548 97.061,276.146C97.061,277.744 95.738,279.041 94.108,279.041C92.479,279.041 91.156,277.744 91.156,276.146C91.156,274.548 92.479,273.251 94.108,273.251ZM189.95,244.402L189.181,246.452L193.977,254.57L184.8,253.892L181.418,258.158L196.505,270.363L213.242,266.762C213.246,266.289 213.284,265.804 213.359,265.305C213.629,263.488 214.314,261.654 215.42,259.808C215.399,259.814 215.378,259.82 215.357,259.826C212.59,260.618 210.338,260.975 208.603,260.915C206.791,260.853 205.433,260.563 204.519,260.082C203.62,259.609 202.613,258.789 201.509,257.608C200.095,256.095 199.49,254.078 199.744,251.544C199.959,249.395 200.703,247.437 201.979,245.672C199.551,246.019 197.526,246.12 195.905,245.982C193.958,245.816 192.101,245.346 190.332,244.572C190.202,244.515 190.075,244.459 189.95,244.402ZM244.342,262.388C241.753,263.741 239.586,264.953 237.839,266.022C232.68,268.065 228.738,269.157 226.009,269.271C224.404,269.339 223.26,269.089 222.613,268.396C222.282,268.042 222.22,267.53 222.336,266.878C222.48,266.071 222.927,265.239 223.651,264.367C225.371,262.299 227.874,260.268 231.153,258.266C234.441,256.259 237.706,254.879 240.95,254.13C243.947,253.439 246.043,253.612 247.212,254.863C247.821,255.514 247.827,256.489 247.396,257.775C246.9,259.257 245.877,260.79 244.343,262.387L244.342,262.388ZM169.743,249.334L176.007,252.188L179.241,263.569L169.743,249.334ZM137.657,250.424L144.568,246.216L145.391,238.864L151.685,243.658L159.242,241.481L156.745,250.011L161.037,256.48L152.508,256.069L147.568,261.394L144.979,253.804L137.657,250.424ZM253.696,226.817C233.563,237.258 221.4,243.652 217.209,245.997C212.968,248.371 210.111,250.419 208.657,252.168C208.134,252.798 207.913,253.285 208.289,253.687C208.679,254.104 209.267,254.353 210.033,254.473C210.917,254.611 212.019,254.572 213.337,254.366C215.823,253.979 219.388,252.969 224.031,251.342C224.17,251.255 224.31,251.169 224.451,251.083C227.28,249.365 230.216,248.048 233.259,247.132C236.348,246.203 239.435,245.986 242.519,246.48C245.661,246.984 248.216,248.297 250.188,250.407C251.323,251.621 252.068,252.899 252.423,254.24C253.45,248.005 253.984,241.607 253.984,235.085C253.984,232.304 253.887,229.546 253.696,226.817ZM183.836,239.929L183.729,239.816C181.122,237.027 180.094,233.826 180.632,230.217C180.92,228.283 181.542,226.38 182.501,224.51L182.378,224.545C180.293,225.142 178.5,225.492 177,225.602L168.771,246.775L175.154,243.424L175.802,234.426L183.007,240.159L183.836,239.929ZM136.951,215.603L134.158,214.25L133.128,238.953L124.099,244.982L114.747,230.777L121.159,213.484L107.513,216.397L113.805,208.336L131.216,209.631L135.804,211.22L136.951,215.603ZM108.423,237.6L102.159,237.308L98.513,241.218L96.601,235.629L91.221,233.158L96.278,230.041L96.897,224.63L101.543,228.16L107.101,226.542L105.276,232.835L108.423,237.6ZM185.505,128.498C186.395,129.629 187.338,130.869 188.333,132.218C190.987,135.811 193.639,139.13 196.289,142.175C199.392,143.346 202.02,145.086 204.177,147.393C205.401,148.703 206.046,150.58 206.055,153.044C206.063,155.461 205.231,157.685 203.546,159.713C202.383,161.112 200.343,162.659 197.41,164.332C194.554,165.962 191.228,167.656 187.434,169.415C183.686,171.153 181.593,172.142 181.155,172.387C181.151,172.389 181.147,172.391 181.143,172.393C169.906,178.36 161.64,183.135 156.346,186.721C153.08,188.932 150.225,191.181 147.783,193.47C149.382,194.051 151.196,194.447 153.025,194.6L154.274,194.25L154.135,194.664C155.313,194.7 156.482,194.629 157.585,194.439C157.802,194.155 158.029,193.871 158.265,193.586C160.067,191.418 162.39,189.467 165.238,187.737C168.068,186.019 171.004,184.702 174.047,183.786C177.136,182.857 180.222,182.64 183.306,183.134C186.449,183.638 189.003,184.951 190.976,187.062C193.209,189.45 193.919,192.083 193.107,194.963C197.469,192.681 205.244,188.655 216.432,182.884C216.437,182.882 216.442,182.879 216.447,182.877C217.141,182.54 217.743,182.654 218.255,183.202L223.189,188.481C223.468,188.779 223.573,189.149 223.461,189.6C223.354,190.034 223.124,190.294 222.843,190.434C201.437,201.529 188.566,208.289 184.23,210.716C179.989,213.089 177.132,215.138 175.678,216.887C175.15,217.522 174.966,218.038 175.372,218.472C175.761,218.889 176.345,219.134 177.105,219.249C177.984,219.383 179.076,219.335 180.383,219.119C182.376,218.791 185.089,218.073 188.521,216.971C190.505,215.293 192.802,213.884 195.414,212.746C199.465,210.98 203.559,210.26 207.693,210.581C211.905,210.908 215.247,212.412 217.73,215.068C219.629,217.1 220.71,219.177 221.003,221.284C221.305,223.447 220.641,225.539 218.972,227.548C216.823,230.133 213.964,231.528 210.389,231.719C206.906,231.905 203.649,231.327 200.62,229.99C197.825,228.756 195.479,227.274 193.579,225.55C192.814,226.213 192.12,226.918 191.499,227.665C190.27,229.144 189.49,230.601 189.176,232.047C188.892,233.354 189.187,234.481 190.072,235.428C190.78,236.185 191.676,236.874 192.757,237.497C193.863,238.135 195.337,238.716 197.178,239.248C199.014,239.779 201.313,239.906 204.074,239.645C206.489,239.416 209.057,238.848 211.775,237.943C216.085,235.48 228.606,228.867 249.336,218.105C249.692,217.908 250.023,217.841 250.319,217.868C250.658,217.898 250.969,218.046 251.239,218.335L253.055,220.278C247.887,179.387 221.615,145.039 185.505,128.498ZM27.866,191.94L27.866,191.939C35.519,172.65 48.152,155.866 64.177,143.178L70.546,145.608L72.309,151.812L72.104,167.459L61.28,174.605L73.22,179.604L77.192,191.927L84.455,182.341L94.748,183.163L94.574,185.811L78.604,196.25L83.984,199.367L80.191,200.339L72.897,194.369L71.956,203.573L66.25,207.577L66.471,205.063L59.571,209.046L58.236,224.247L52.734,227.423L54.059,212.222L47.158,216.205L45.834,231.406L37.695,236.1L38.352,223.655L27.898,230.448L27.898,221.06L40.397,212.308L40.397,204.331L27.898,213.083L27.898,206.731L40.397,197.979L40.397,190.013L27.898,198.754L27.898,191.859C27.888,191.886 27.877,191.913 27.866,191.94ZM79.742,230.517L67.871,224.979L75.44,220.61L75.691,221.425L81.367,214.368L88.425,215.19L87.866,224.809L84.955,226.69L79.742,230.517ZM20.912,219.942L20.907,219.979L22.451,221.06L22.451,230.448L19.829,228.744C19.884,228.366 20.271,224.663 20.907,219.979L20.855,219.942L20.912,219.942ZM152.3,200.154L150.596,205.25L155.861,214.22L145.892,213.72L140.422,219.337L153.743,230.337L173.522,225.428C172.718,225.284 172.058,225.073 171.54,224.801C170.641,224.328 169.634,223.507 168.53,222.326C167.116,220.814 166.511,218.797 166.765,216.263C166.949,214.423 167.521,212.722 168.484,211.163C162.806,212.564 158.767,211.882 156.35,209.296C154.458,207.272 153.719,204.828 154.146,201.959C154.203,201.579 154.278,201.198 154.37,200.817C153.695,200.619 153.001,200.396 152.3,200.154ZM19.829,228.744C19.826,228.765 19.824,228.776 19.823,228.776C19.822,228.775 19.822,228.764 19.823,228.74L19.829,228.744ZM214.686,219.605C214.789,219.715 214.86,219.822 214.866,219.943C214.785,220.51 214.437,221.021 213.865,221.507C213.176,222.091 212.182,222.621 210.89,223.111C210.887,223.112 210.884,223.113 210.882,223.114C206.707,224.764 202.441,224.479 198.079,222.285C201.255,220.45 204.479,219.239 207.75,218.655C209.511,218.341 210.99,218.269 212.188,218.452C213.273,218.617 214.111,218.989 214.686,219.605ZM65.136,220.264L73.789,215.262L72.986,212.661L66.093,209.374L65.136,220.264ZM96.601,204.074L99.043,213.808L89.278,205.925L89.132,206.044L88.308,210.955L85.514,207.014L88.102,200.839L96.601,204.074ZM82.514,210.544L79.486,210.398L77.72,212.279L76.81,209.574L74.192,208.398L76.662,206.868L76.956,204.28L79.19,205.955L81.867,205.193L80.985,208.221L82.514,210.544ZM184.866,199.364C182.844,200.41 181.136,201.35 179.742,202.185C175.525,203.909 171.906,205.053 168.888,205.608C167.437,205.875 166.231,205.955 165.269,205.835C164.439,205.732 163.809,205.487 163.4,205.05C163.07,204.696 163.008,204.184 163.124,203.532C163.268,202.725 163.715,201.893 164.439,201.021C166.158,198.953 168.661,196.923 171.941,194.92C175.229,192.913 178.493,191.533 181.737,190.785C184.734,190.093 186.831,190.266 188,191.517C188.646,192.208 188.652,193.229 188.182,194.568C187.642,196.106 186.531,197.699 184.868,199.362L184.866,199.364ZM132.776,202.048C131.503,200.562 130.98,198.678 131.241,196.384C131.504,194.067 132.463,191.903 134.13,189.897C136.962,186.491 140.405,183.376 144.463,180.555C148.344,177.857 153.788,174.627 160.796,170.866L150.918,160.298C149.826,160.824 148.149,161.622 145.887,162.691C143.292,163.917 141.424,164.791 140.281,165.313C139.138,165.835 137.423,166.593 135.138,167.588C132.83,168.593 131.079,169.285 129.886,169.668C128.706,170.046 127.209,170.521 125.396,171.092C123.513,171.686 121.998,172.003 120.852,172.054C119.74,172.104 118.53,172.127 117.223,172.125C115.818,172.122 114.61,171.876 113.596,171.403C112.586,170.931 111.675,170.263 110.865,169.396C109.596,168.038 108.843,166.301 108.629,164.178L105.19,163.989L99.925,169.899L109.924,179.399L128.628,174.545L122.306,192.398L129.863,203.515L132.776,202.048ZM115.777,199.663L109.482,199.367L105.835,203.281L103.923,197.691L98.543,195.22L103.629,192.104L104.248,186.693L108.894,190.222L114.453,188.605L112.601,194.897L115.777,199.663ZM144.334,197.04L144.636,196.956L144.476,196.877L144.334,197.04ZM77.897,171.429L78.337,167.43L81.778,170.016L85.896,168.84L84.543,173.488L86.866,177.018L82.22,176.782L79.544,179.693L78.132,175.546L74.133,173.723L77.897,171.429ZM94.514,161.341L96.985,162.165L98.159,168.871L95.955,167.105L95.131,178.694L90.337,172.399L94.514,161.341ZM157.871,157.178C173.03,150.692 184.742,147.678 193.028,148.178L194.598,149.856C195.479,150.799 196.293,151.545 197.037,152.097C196.052,152.942 194.677,153.819 192.918,154.736C190.704,155.891 187.661,157.359 183.789,159.14C179.894,160.932 176.557,162.551 173.778,163.996C171.128,165.37 169.007,166.501 167.415,167.389L157.871,157.178ZM83.074,163.666L76.485,157.665L83.337,148.607L95.69,149.489L95.338,154.195L88.573,158.167L92.865,160.636L83.074,163.666ZM106.1,159.665L103.07,159.548L101.308,161.429L100.396,158.724L97.779,157.519L100.248,156.018L100.544,153.43L102.778,155.108L105.455,154.343L104.571,157.371L106.1,159.665ZM131.185,118.053C118.074,118.675 105.526,121.456 93.883,126.049L90.279,137.638L96.043,146.373L96.424,144.019L102.984,150.225L112.042,147.785L109.966,156.3C110.28,155.678 110.647,155.117 111.063,154.615C111.677,153.877 112.289,153.372 112.887,153.082C113.327,152.868 113.683,152.785 113.942,152.789C114.278,152.794 114.526,152.918 114.706,153.11C114.78,153.19 114.867,153.319 114.926,153.519C114.981,153.706 115.026,154.025 115.046,154.476C115.063,154.833 115.149,155.121 115.341,155.327C116.254,156.303 117.375,156.963 118.704,157.308C120.104,157.673 122.161,157.69 124.873,157.387C127.657,157.075 131.38,156.145 136.043,154.603C140.75,153.047 146.556,150.852 153.461,148.019C166.868,142.51 177.99,139.942 186.822,140.286C186.504,139.827 186.087,139.231 185.571,138.499C184.402,136.84 183.55,135.648 183.015,134.923C182.484,134.202 181.561,133.064 180.247,131.505C178.927,129.94 177.521,128.36 176.03,126.765C174.685,125.326 173.147,124.111 171.417,123.121C167.073,121.778 162.622,120.682 158.081,119.848C157.3,119.854 156.518,119.894 155.735,119.967C151.977,120.314 148.313,121.339 144.741,123.04C141.189,124.731 138.291,126.922 136.051,129.617C134.426,131.572 133.446,133.471 133.136,135.325C132.845,137.063 133.289,138.565 134.473,139.831C135.996,141.46 138.126,142.034 140.845,141.617C143.625,141.192 145.66,140.247 146.923,138.727C147.331,138.237 147.753,138.154 148.063,138.226C148.252,138.27 148.438,138.374 148.6,138.572C148.767,138.776 148.932,139.151 149.033,139.708C149.42,141.297 149.038,142.811 147.851,144.239C145.591,146.958 142.239,148.652 137.773,149.279C133.267,149.913 129.5,148.605 126.471,145.365C123.945,142.662 122.772,138.901 123.008,134.063C123.241,129.293 124.958,124.977 128.165,121.118C129.083,120.014 130.09,118.992 131.185,118.053ZM75.653,135.155C76.528,134.618 77.411,134.092 78.301,133.577L79.749,134.667L84.19,133.374L82.72,138.431L85.251,142.255L80.22,142.02L77.309,145.137L75.78,140.668L71.456,138.668L75.543,136.168L75.653,135.155ZM180.189,106.092C174.413,104.148 168.461,102.581 162.366,101.421C161.639,100.11 160.883,98.715 160.126,97.318C160.038,97.141 159.95,96.995 159.89,96.847C157.125,91.759 155.303,86.083 153.862,80.436L179.889,104.287L180.419,105.288C180.419,105.288 180.253,105.564 180.189,106.092ZM115.274,100.721C108.993,101.722 102.856,103.153 96.893,104.984L96.631,104.2L98.278,101.641L126.011,79.759C123.982,85.819 121.482,91.818 117.923,97.024L117.894,97.024C117.835,97.141 117.775,97.229 117.687,97.318C117.658,97.406 117.57,97.523 117.452,97.671C116.986,98.312 116.204,99.471 115.274,100.721ZM135.95,51.587C137.215,50.409 138.892,49.792 140.627,49.852C142.334,49.909 143.98,50.645 145.127,51.938C146.303,53.174 146.951,54.849 146.862,56.556C146.803,58.291 146.038,59.908 144.803,61.086C143.509,62.26 141.863,62.879 140.128,62.819C138.421,62.762 136.775,62.026 135.628,60.733C134.452,59.497 133.804,57.82 133.864,56.115C133.952,54.35 134.717,52.763 135.95,51.587ZM207.857,15.296C218.916,11.766 223.15,20.353 218.297,30.998C205.298,42.235 188.889,48.674 171.713,49.233C178.065,33.087 191.329,20.618 207.857,15.296ZM64.545,25.293C60.458,14.325 65.338,6.09 76.074,10.442C92.16,16.971 104.454,30.352 109.63,46.91C92.543,45.117 76.633,37.47 64.545,25.293Z" style="fill:none;stroke:rgb(255,0,0);stroke-width:1px;"/>
</svg>
