<?xml version="1.0" encoding="UTF-8" standalone="no"?>
<!DOCTYPE svg PUBLIC "-//W3C//DTD SVG 1.1//EN" "http://www.w3.org/Graphics/SVG/1.1/DTD/svg11.dtd">
<svg width="100%" height="100%" viewBox="0 0 1123 794" version="1.1" xmlns="http://www.w3.org/2000/svg" xmlns:xlink="http://www.w3.org/1999/xlink" xml:space="preserve" xmlns:serif="http://www.serif.com/" style="fill-rule:evenodd;clip-rule:evenodd;stroke-linejoin:round;stroke-miterlimit:2;">
    <path d="M144.768,40.265C146.525,40.302 148.11,40.912 149.422,41.91C150.863,43.057 151.891,44.704 152.273,46.587C152.802,46.587 182.859,16.178 188.975,12.177C194.836,8.337 202.831,5.966 211.003,5.93C211.404,5.929 211.807,5.932 212.21,5.942C221.975,6.413 230.502,10.413 234.032,19.412C239.942,32.998 232.913,47.381 232.854,60.821C232.825,76.702 247.707,93.348 235.179,108.435C229.972,113.729 222.856,118.846 215.857,121.903L215.797,121.903L214.909,122.185L213.44,122.66C235.271,137.575 252.544,158.68 262.718,183.428L263.146,184.482L263.635,185.717L264.183,187.147L264.715,188.58L264.956,189.247L265.465,190.694L265.958,192.147L266.475,193.735L266.941,195.223L267.39,196.719L267.822,198.222L268.318,200.033L268.765,201.757L269.14,203.283L269.499,204.816L269.84,206.356L270.097,207.582L270.267,208.418L270.567,209.973L270.849,211.533L271.113,213.1L271.309,214.338L271.419,215.073L271.66,216.779L271.864,218.366L272.05,219.958L272.182,221.204L272.257,221.958L272.366,223.158L272.397,223.517L272.519,225.075L272.624,226.63L272.71,228.177L272.746,228.945L272.807,230.524L272.85,232.102C272.861,232.627 272.87,233.152 272.875,233.676L272.882,235.204L272.88,235.812C272.877,236.27 272.873,236.727 272.866,237.183L272.845,238.277C272.836,238.637 272.827,238.997 272.816,239.357L272.77,240.666L272.707,242.056L272.66,242.916C272.616,243.693 272.566,244.469 272.509,245.242L272.378,246.891L272.235,248.448L272.115,249.632L271.964,250.996L271.773,252.558L271.607,253.813L271.429,255.064L271.176,256.717L270.983,257.897L270.743,259.275L270.405,261.091L270.108,262.584L269.863,263.752L269.428,265.714L269.074,267.212L268.795,268.344L268.42,269.801L268.042,271.21L267.725,272.344L267.361,273.601L266.892,275.16L266.363,276.838L265.822,278.487L265.452,279.56L265.025,280.738L264.863,281.178C264.752,281.514 264.639,281.848 264.5,282.186C263.205,285.714 261.764,289.155 260.177,292.537C259.764,293.448 259.353,294.331 258.911,295.213C258.206,296.654 257.441,298.096 256.707,299.508C256.647,299.565 256.619,299.654 256.588,299.713C255.177,302.329 253.677,304.919 252.09,307.419L251.385,308.513L250.98,309.103L250.316,310.136L249.767,310.943L249.354,311.546L249.354,311.565C249.088,312.005 248.794,312.416 248.472,312.829C247.32,314.5 246.13,316.138 244.904,317.745L244.816,317.86C243.221,319.948 241.565,321.984 239.854,323.976L239.073,324.871L238.079,325.991L237.478,326.655L236.874,327.314L236.265,327.97L235.652,328.622L235.034,329.27L234.413,329.913L233.787,330.553L233.157,331.188L232.523,331.819L231.885,332.446L231.243,333.069L230.597,333.688L229.946,334.303L229.292,334.913L228.634,335.519L227.305,336.718L225.961,337.9L224.601,339.064L223.226,340.21L221.835,341.339L220.43,342.45L219.251,343.358L218.294,344.082L217.12,344.95L216.125,345.672L214.957,346.501L213.924,347.22L212.763,348.011L211.691,348.725L210.538,349.478L209.428,350.187L208.283,350.903L207.134,351.605L205.999,352.284L204.81,352.979L203.686,353.621L202.128,354.488L200.557,355.336L199.718,355.777L198.921,356.19L198.122,356.597L197.319,356.999L196.514,357.396L195.706,357.788L194.894,358.175L194.08,358.556L193.263,358.932L192.443,359.303L191.621,359.668L190.795,360.029L189.967,360.383L189.136,360.733L188.303,361.077L187.466,361.416L186.627,361.749L185.472,362.197L184.208,362.674L183.508,362.932C175.658,365.798 167.471,367.962 159.021,369.348L157.605,369.572L156.197,369.781L154.318,370.035L152.436,370.263L150.549,370.465L148.516,370.653L146.646,370.8L144.654,370.927L142.787,371.02L140.923,371.087L139.53,371.121L138.144,371.142L136.819,371.148L135.472,371.141L135.01,371.136L133.308,371.103L132.116,371.068L131.571,371.048C131.011,371.027 130.452,371.002 129.893,370.974L128.91,370.921L128.07,370.87L126.787,370.783L125.344,370.67L124.595,370.605L123.757,370.528L122.78,370.431L121.461,370.29L119.917,370.108L119.147,370.01L118.622,369.94C61.059,362.253 14.891,318.582 3.474,262.277L3.239,261.09L2.955,259.579L2.689,258.062L2.439,256.54L2.206,255.012L1.989,253.478L1.79,251.939L1.609,250.395L1.444,248.846L1.295,247.267L1.199,246.139L1.071,244.412L1.03,243.782L0.93,242.013L0.887,241.098L0.867,240.61L0.814,239.101L0.782,237.765L0.762,236.427L0.756,235.069L0.761,233.92L0.78,232.504L0.814,231.055L0.874,229.343L0.941,227.924L1.04,226.215L1.16,224.51L1.339,222.399L1.503,220.733L1.754,218.52L1.965,216.867L2.116,215.769L2.36,214.126L2.623,212.491L2.832,211.276L3.004,210.32L3.25,209.022L3.391,208.305L3.7,206.805L3.847,206.115L4.228,204.413L4.525,203.156L4.699,202.441L5.07,200.971L5.248,200.286L5.705,198.602L6.047,197.393L6.255,196.679L6.685,195.245L7.142,193.78L7.652,192.213L8.179,190.657L8.724,189.112L9.286,187.576L9.865,186.051L10.462,184.535L11.076,183.028L11.589,181.809L12.228,180.334L12.884,178.867L13.557,177.41L14.247,175.963L14.953,174.524L15.675,173.096L16.414,171.677L17.169,170.268L17.681,169.334L18.2,168.404L18.727,167.479L19.26,166.559L19.8,165.643L20.347,164.732L20.901,163.825L21.462,162.923L21.995,162.081C24.011,158.918 26.155,155.843 28.418,152.865L29.105,151.969L30.119,150.673L31.137,149.404L32.163,148.156L33.2,146.924L34.249,145.708L35.309,144.506L36.64,143.037L37.833,141.756L39.206,140.322L40.549,138.958L41.845,137.678L43.198,136.376L44.743,134.932L46.31,133.513L47.5,132.464L48.702,131.429L49.916,130.407L51.142,129.4L52.38,128.406L53.63,127.427L54.892,126.462L56.165,125.511L57.449,124.575L58.745,123.654L60.052,122.747L61.369,121.855L62.698,120.978L64.037,120.117L64.936,119.551L65.84,118.992C65.398,118.817 65.044,118.669 64.75,118.492L64.722,118.492C55.281,115.374 48.341,108.758 41.958,101.287C30.577,85.318 46.666,69.791 47.751,53.967C48.723,40.557 42.782,25.706 49.694,12.56C53.84,3.853 62.664,0.531 72.427,0.768C81.014,1.208 89.338,4.267 95.161,8.707C107.57,18.236 119.159,31.999 128.776,45.146C128.776,44.116 130.394,42.292 132.157,41.293C133.276,40.617 134.598,40.263 136.01,40.263L144.597,40.263L144.768,40.265ZM233.106,301.981L233,302.134C230.483,303.681 227.993,305.253 225.474,306.802C223.721,307.892 224.466,310.555 226.475,310.623C225.699,311.543 224.907,312.453 224.102,313.349L223.767,313.36C222.62,313.389 221.681,314.328 221.65,315.475C221.645,315.641 221.659,315.803 221.69,315.957C200.328,338.368 170.192,352.34 136.819,352.34C129.603,352.34 122.539,351.687 115.679,350.436L134.186,327.506L164.772,329.681L159.508,320.888L165.184,312.093L175.802,312.975L170.243,303.566L173.565,295.625L181.093,299.3L186.535,320.035L200.475,303.418L218.297,304.448C218.326,304.8 218.445,305.153 218.65,305.447C219.327,306.417 220.62,306.683 221.621,306.066C224.267,304.448 226.915,302.799 229.591,301.155C230.762,301.438 231.935,301.697 233.106,301.981ZM107.895,341.033L113.364,348.678L110.159,337.003L107.895,341.033ZM104.571,345.769L100.63,345.592L99.878,346.393C99.065,346.123 98.255,345.844 97.449,345.556L97.102,344.532L93.718,342.975L96.925,341.004L97.306,337.591L100.219,339.797L103.749,338.798L102.571,342.768L104.571,345.769ZM85.131,273.303L79.354,270.4L80.178,272.648C80.193,272.692 80.209,272.736 80.222,272.78C81.181,275.96 79.411,279.432 76.27,280.531C74.342,281.206 72.35,280.866 70.84,279.792C71.014,281.638 70.315,283.537 68.77,284.872C67.596,285.888 66.126,286.394 64.662,286.394C62.977,286.394 61.301,285.725 60.085,284.426C60.052,284.392 60.022,284.357 59.993,284.321L57.193,280.956L57.193,288.369C57.193,291.684 54.444,294.418 50.997,294.418C47.547,294.418 44.798,291.684 44.798,288.369L44.798,280.956L41.998,284.321C41.969,284.357 41.939,284.392 41.906,284.426C39.633,286.853 35.746,287.057 33.221,284.874L33.221,284.872C31.676,283.537 30.977,281.638 31.152,279.792C30.457,280.285 29.66,280.624 28.814,280.779C39.992,307.142 60.547,328.582 86.29,340.908L91.19,337.739L92.396,325.651L101.189,333.062L108.66,330.739L105.749,320.828L76.779,308.771L84.691,302.624L82.543,295.744L74.367,291.949L81.926,286.273L82.749,277.684L87.308,281.333L85.131,273.303ZM117.923,310.182L108.954,306.066L117.395,300.861L118.423,291.83L126.187,297.713L135.451,295.037L132.392,305.535L137.657,313.475L127.187,312.975L121.099,319.533L117.923,310.182ZM158.478,319.476L151.155,307.801L156.126,310.066L158.478,319.476ZM156.891,305.007L159.832,303.212L160.184,300.067L162.889,302.125L166.096,301.183L165.036,304.83L166.861,307.595L163.243,307.419L161.125,309.711L160.007,306.448L156.891,305.007ZM169.832,294.508L163.95,296.566L155.684,289.92L154.539,300.772L148.686,303.77L158.714,273.038L151.862,274.421L157.803,267.421L179.124,269.362L177.948,279.302L160.979,290.508L169.832,294.508ZM223.767,299.771C222.62,300.476 221.444,301.212 220.268,301.948L218.827,299.713C219.267,299.448 219.709,299.183 220.151,298.889C221.356,299.183 222.561,299.477 223.767,299.771ZM91.073,297.625L88.014,301.654L94.543,297.832L91.073,297.625ZM225.732,158.676L213.714,162.395C213.472,164.092 212.743,165.678 211.52,167.15C210.464,168.419 208.613,169.824 205.952,171.342C203.366,172.817 200.357,174.351 196.922,175.943C193.534,177.514 191.642,178.408 191.247,178.629C191.243,178.631 191.239,178.634 191.234,178.636C181.072,184.032 173.596,188.351 168.808,191.593C166.095,193.43 163.696,195.296 161.611,197.194C161.524,197.431 161.481,197.625 161.523,197.782C161.643,198.235 162.102,198.276 162.793,198.183C164.202,197.995 170.946,196.393 174.339,195.043C175.25,194.32 176.243,193.632 177.319,192.978C179.885,191.42 182.557,190.236 185.336,189.426C188.156,188.604 190.954,188.408 193.731,188.836C196.57,189.272 198.904,190.476 200.738,192.438C202.757,194.598 203.411,196.977 202.7,199.576C203.33,199.295 203.878,199.412 204.346,199.913C204.346,199.913 208.81,204.688 208.81,204.688C209.077,204.974 209.179,205.328 209.071,205.76C208.985,206.109 208.791,206.386 208.486,206.589C208.466,206.603 208.445,206.615 208.423,206.626L180.514,221.103C186.551,221.893 193.607,220.758 201.679,217.729C201.718,217.711 201.756,217.695 201.789,217.684C204.955,215.91 209.443,213.511 215.251,210.487C215.257,210.484 215.263,210.481 215.268,210.478C215.925,210.16 216.494,210.268 216.978,210.786L217.672,211.528C217.666,211.422 217.664,211.313 217.666,211.204C217.689,209.89 218.285,208.692 219.495,207.631C220.647,206.622 221.998,206.029 223.55,205.856C225.15,205.677 226.485,205.998 227.564,206.785C228.706,207.618 229.26,208.719 229.236,210.083C229.213,211.397 228.618,212.595 227.408,213.656C226.256,214.665 224.905,215.258 223.353,215.431C222.59,215.516 221.888,215.488 221.244,215.349L221.499,215.621C221.765,215.907 221.867,216.261 221.76,216.693C221.673,217.042 221.48,217.319 221.175,217.522C221.155,217.536 221.134,217.548 221.112,217.559C211.624,222.483 205.506,225.786 202.757,227.469C200.086,229.106 198.249,230.509 197.261,231.698C196.815,232.235 196.605,232.645 196.925,232.988C197.09,233.164 197.409,233.235 197.849,233.29C198.775,233.407 200.134,233.325 201.928,233.06C205.016,232.605 208.809,231.574 213.309,229.97C213.357,229.953 213.407,229.941 213.459,229.936C213.853,229.892 214.109,230.03 214.267,230.199C214.422,230.364 214.537,230.616 214.48,230.968C214.468,231.256 214.429,231.812 214.362,232.636L214.26,233.906C214.234,234.499 213.95,234.838 213.518,234.989C209.654,236.451 206.452,237.524 203.912,238.211C201.292,238.92 199.172,239.192 197.556,239.049C195.884,238.902 194.639,238.597 193.816,238.163C192.994,237.731 192.116,237.025 191.189,236.033C189.901,234.656 189.293,232.9 189.389,230.755C189.462,229.129 189.94,227.609 190.83,226.195C188.627,226.696 186.595,227 184.736,227.109C181.893,227.275 179.181,227.114 176.602,226.625L168.771,246.775L175.154,243.424L175.802,234.426L183.007,240.159L192.536,237.512L189.181,246.452L193.977,254.57L184.8,253.892L181.418,258.158L196.505,270.363L217.563,265.832L210.092,286.304L214.679,293.332C214.886,293.39 215.092,293.448 215.297,293.478C215.003,293.008 214.709,292.537 214.444,292.068C213.827,291.067 214.15,289.772 215.209,289.213C216.208,288.655 217.503,289.009 218.12,289.979C219.121,291.624 220.12,293.244 221.091,294.862C222.326,295.154 223.533,295.448 224.738,295.744C223.798,294.214 222.885,292.712 221.975,291.213C221.356,290.183 221.681,288.89 222.737,288.331C223.738,287.802 225.032,288.125 225.65,289.124C227.268,291.772 228.915,294.449 230.531,297.123C231.737,297.39 232.973,297.682 234.178,297.978C232.591,295.39 231.002,292.802 229.414,290.214C228.325,288.419 230.296,286.304 232.178,287.303C234.692,288.656 237.18,290.008 239.692,291.362L239.958,290.875C239.678,289.929 239.398,288.992 239.12,288.037C236.355,286.567 233.619,285.068 230.856,283.596C229.854,283.068 229.414,281.773 229.914,280.745C230.414,279.657 231.678,279.244 232.737,279.803C234.297,280.656 235.855,281.479 237.414,282.332C237.06,281.125 236.708,279.949 236.355,278.744C234.65,277.832 240.325,277.569 240.325,277.569C240.678,278.744 241.03,279.949 241.383,281.125C242.236,279.569 243.09,278.039 243.912,276.479C244.5,275.42 245.766,275.096 246.796,275.714L246.825,275.733C251.513,263.07 254.074,249.374 254.074,235.085C254.074,205.905 243.392,179.2 225.732,158.676ZM202.504,293.509L195.447,293.184L191.358,297.567L189.212,291.301L183.182,288.507L188.858,285.008L189.565,278.948L194.77,282.891L201.006,281.098L198.946,288.154L202.504,293.509ZM92.631,293.39L89.278,293.213L87.308,295.331L86.279,292.331L83.396,291.007L86.132,289.332L86.455,286.419L88.926,288.302L91.926,287.449L90.927,290.83L92.631,293.39ZM95.661,275.126L103.66,275.774L102.836,292.331L98.924,294.566L95.807,289.772L98.543,281.596L89.338,283.271L95.661,275.126ZM98.806,255.804L106.454,245.776L120.717,247.071L112.218,252.716L135.51,262.245L139.303,278.155L128.657,280.979L104.542,260.512L103.66,269.596L100.984,266.009L104.69,255.07L98.806,255.804ZM33.617,275.518L35.978,260.906L44.798,256.088L45.284,265.759L33.617,275.518ZM68.374,275.516L56.423,266.816L57.193,256.088L66.785,261.932L68.374,275.516ZM95.955,263.598C95.955,263.598 93.726,264.232 93.726,264.232C94.485,265.959 94.443,268.037 93.413,269.845L96.72,269.979C96.72,269.979 94.896,267.246 94.896,267.246L95.955,263.598ZM169.743,249.334L176.007,252.188L179.241,263.569L169.743,249.334ZM137.657,250.424L144.568,246.216L145.391,238.864L151.685,243.658L159.242,241.481L156.745,250.011L161.037,256.48L152.508,256.069L147.568,261.394L144.979,253.804L137.657,250.424ZM93.065,254.373C92.686,254.936 92.218,255.437 91.68,255.854L93.838,257.628C93.838,257.628 93.065,254.373 93.065,254.373ZM177.771,247.63L179.977,246.275L180.242,243.924L182.271,245.453L184.683,244.775L183.889,247.511L185.242,249.569L182.534,249.452L180.947,251.158L180.094,248.718L177.771,247.63ZM19.892,243.913L30.396,239.854L39.892,245.33L30.696,251.158L20.154,246.913C20.055,245.921 19.967,244.919 19.892,243.913ZM85.767,245.33L71.954,250.362L62.099,245.33L72.204,240.111L85.767,245.33ZM90.909,245.299L90.892,245.226C90.821,245.263 90.748,245.297 90.675,245.33C90.767,245.374 90.859,245.418 90.949,245.466L90.909,245.299ZM136.951,215.603L134.158,214.25L133.128,238.953L124.099,244.982L114.747,230.777L121.159,213.484L107.513,216.397L113.805,208.336L131.216,209.631L135.804,211.22L136.951,215.603ZM108.423,237.6L102.159,237.308L98.513,241.218L96.601,235.629L91.221,233.158L96.278,230.041L96.897,224.63L101.543,228.16L107.101,226.542L105.276,232.835L108.423,237.6ZM33.617,215.144L45.803,224.221L44.798,234.574L35.216,230.049L33.617,215.144ZM68.374,215.144L65.894,229.603L57.193,234.572L57.247,224.607L68.374,215.144ZM213.396,234.309L213.595,234.529C213.451,234.529 213.311,234.482 213.197,234.397L213.284,234.365C213.326,234.351 213.363,234.332 213.396,234.309ZM214.254,233.958L214.26,233.909C214.257,233.956 214.249,234 214.237,234.043L214.254,233.958ZM146.439,213.747L145.892,213.72L140.422,219.337L153.743,230.337L156.35,229.69L156.23,229.678C154.387,229.481 152.919,229.055 151.819,228.421C150.736,227.796 149.601,226.855 148.418,225.59C146.574,223.617 145.576,221.336 145.416,218.749C145.307,216.978 145.646,215.31 146.439,213.747ZM172.747,225.62C172.489,225.533 172.234,225.443 171.979,225.349C171.131,225.731 170.314,226.088 169.527,226.419L172.747,225.62ZM81.367,214.368L80.453,215.505C80.529,216.287 80.46,217.092 80.222,217.88C80.209,217.926 80.195,217.97 80.178,218.015L78.666,222.142L85.066,218.437C86.073,217.855 87.185,217.602 88.282,217.649L88.425,215.19L81.367,214.368ZM64.079,143.141L70.546,145.608L72.309,151.812L72.104,167.459L61.28,174.605L73.22,179.604L77.192,191.927L84.455,182.341L94.748,183.163L94.574,185.811L78.604,196.25L83.984,199.367L80.191,200.339L72.897,194.369L71.956,203.573L68.783,205.8L68.77,205.788C66.245,203.605 62.358,203.809 60.085,206.234C60.052,206.269 60.022,206.305 59.993,206.34L57.193,209.706L57.193,202.293C57.193,198.979 54.444,196.242 50.997,196.242C47.547,196.242 44.798,198.979 44.798,202.293L44.798,209.706L41.998,206.34C41.969,206.305 41.939,206.269 41.906,206.234C39.633,203.809 35.746,203.605 33.221,205.788C31.676,207.124 30.977,209.024 31.152,210.871C29.641,209.796 27.649,209.456 25.722,210.131C22.578,211.23 20.81,214.7 21.769,217.88C21.783,217.926 21.796,217.97 21.813,218.015L23.325,222.142L20.466,220.486C24.353,189.233 40.563,161.778 64.079,143.141ZM162.01,220.067C157.593,221.512 154.348,221.222 152.285,219.016C151.922,218.627 151.733,218.198 151.735,217.719C151.737,217.234 151.89,216.807 152.197,216.438C152.781,215.734 153.576,215.622 154.565,216.015C155.828,216.517 158.308,217.87 162.01,220.067ZM152.678,208.798C153.029,208.742 153.377,208.712 153.723,208.708C154.698,208.695 155.95,209.032 157.471,209.755C158.899,210.434 160.207,211.149 161.394,211.9C162.564,212.64 164.201,213.717 166.307,215.134C167.322,215.809 168.293,216.401 169.222,216.908C169.872,216.582 171.22,215.89 173.267,214.833C171.67,214.483 170.357,213.747 169.322,212.639C167.645,210.845 166.952,208.678 167.256,206.135C166.489,206.293 165.874,206.405 165.495,206.456C163.254,206.755 161.226,206.383 159.406,205.352C158.146,204.637 157.207,203.743 156.581,202.678L156.581,202.678C156.322,203.075 156.125,203.445 155.992,203.79C155.781,204.336 155.652,204.713 155.704,204.943C155.775,205.263 155.835,205.596 155.885,205.941C155.961,206.469 155.83,206.929 155.503,207.323C154.95,207.988 153.881,208.309 152.26,208.085L152.678,208.798ZM85.514,207.014L88.102,200.839L96.601,204.074L99.043,213.808L89.278,205.925L89.132,206.044L88.308,210.955L85.514,207.014ZM82.514,210.544L80.985,208.221L81.867,205.193L79.19,205.955L76.956,204.28L76.662,206.868L74.192,208.398L76.81,209.574L77.123,210.504C77.62,210.767 78.073,211.095 78.475,211.475L79.486,210.398L82.514,210.544ZM146.011,202.335L146.02,202.401L146.039,202.513L145.039,205.955L146.862,208.692L143.215,208.544L141.127,210.807L140.01,207.573L136.892,206.132L139.834,204.309L140.185,201.192L142.862,203.219L146.011,202.335ZM175.792,208.711C175.481,208.378 175.414,207.93 175.527,207.38C175.673,206.673 176.084,205.934 176.735,205.151C178.286,203.284 180.546,201.452 183.505,199.645C186.473,197.833 189.42,196.587 192.348,195.912C195.027,195.294 196.885,195.413 197.897,196.495C198.467,197.106 198.463,198.009 198.047,199.191C197.562,200.575 196.58,202.028 195.121,203.561C195.12,203.562 189.104,206.652 189.104,206.652C184.578,208.434 181.121,209.382 178.725,209.472C177.343,209.524 176.354,209.312 175.793,208.711L175.792,208.711ZM147.356,196.192C147.712,195.571 148.136,194.964 148.627,194.373C151.192,191.287 154.311,188.466 157.987,185.911C161.486,183.478 166.388,180.568 172.695,177.181C172.695,177.181 163.847,167.716 163.848,167.716C162.859,168.192 161.356,168.907 159.338,169.86C156.991,170.969 155.3,171.76 154.266,172.232C153.232,172.704 151.681,173.391 149.613,174.291C147.523,175.201 145.937,175.828 144.856,176.174C143.788,176.516 142.434,176.946 140.794,177.463C139.084,178.003 137.708,178.29 136.667,178.336C135.66,178.381 134.564,178.403 133.381,178.4C132.1,178.397 130.998,178.173 130.074,177.741C129.321,177.389 128.628,176.918 127.997,176.326L122.306,192.398L129.863,203.515L134.01,201.427L135.422,189.809L143.481,197.28L147.356,196.192ZM103.629,192.104L104.248,186.693L108.894,190.222L114.453,188.605L112.601,194.897L115.777,199.663L109.482,199.367L105.835,203.281L103.923,197.691L98.543,195.22L103.629,192.104ZM77.897,171.429L78.337,167.43L81.778,170.016L85.896,168.84L84.543,173.488L86.866,177.018L82.22,176.782L79.544,179.693L78.132,175.546L74.133,173.723L77.897,171.429ZM171.702,123.114C160.684,119.68 148.966,117.829 136.819,117.829C121.682,117.829 107.211,120.704 93.918,125.938L90.279,137.638L96.043,146.373L96.424,144.019L102.984,150.225L112.042,147.785L109.747,157.196L114.276,164.488L105.19,163.989L99.925,169.899L109.924,179.399L126.86,175.004C125.82,173.458 125.362,171.488 125.515,169.082C125.698,166.224 126.46,164.021 127.76,162.457C128.322,161.781 128.884,161.318 129.431,161.053C129.841,160.854 130.173,160.778 130.414,160.782C130.738,160.786 130.977,160.906 131.151,161.092C131.222,161.169 131.307,161.294 131.364,161.487C131.415,161.66 131.457,161.953 131.476,162.369C131.49,162.674 131.56,162.921 131.725,163.097C132.543,163.972 133.547,164.562 134.737,164.872C135.999,165.2 137.851,165.214 140.294,164.941C142.81,164.66 146.173,163.819 150.386,162.426C154.643,161.018 159.894,159.033 166.138,156.471C178.213,151.51 188.241,149.185 196.217,149.467C195.94,149.067 195.587,148.563 195.158,147.955C194.101,146.454 193.33,145.376 192.847,144.721C192.367,144.07 191.533,143.041 190.346,141.633C189.152,140.217 187.881,138.789 186.533,137.346C184.35,135.011 181.605,133.332 178.301,132.305C174.966,131.267 171.608,130.904 168.226,131.217C164.834,131.53 161.526,132.456 158.302,133.991C155.098,135.517 152.483,137.492 150.462,139.924C149.001,141.682 148.118,143.389 147.839,145.058C147.579,146.608 147.976,147.95 149.033,149.08C150.396,150.539 152.305,151.049 154.741,150.676C157.236,150.294 159.065,149.449 160.2,148.083C160.59,147.614 160.998,147.54 161.294,147.609C161.477,147.652 161.658,147.752 161.815,147.944C161.97,148.133 162.125,148.481 162.219,148.999C162.573,150.455 162.225,151.843 161.137,153.151C159.084,155.622 156.038,157.163 151.98,157.733C147.881,158.309 144.456,157.12 141.701,154.172C139.405,151.717 138.337,148.299 138.551,143.902C138.762,139.574 140.32,135.657 143.231,132.154C145.703,129.18 148.882,126.867 152.773,125.221C156.634,123.587 160.748,122.695 165.115,122.547C167.269,122.474 169.464,122.663 171.702,123.114ZM94.514,161.341L96.985,162.165L98.159,168.871L95.955,167.105L95.131,178.694L90.337,172.399L94.514,161.341ZM170.261,164.838C183.906,159.008 194.454,156.293 201.927,156.736L201.928,156.736L203.329,158.235C204.105,159.065 204.823,159.726 205.481,160.223C204.597,160.968 203.378,161.742 201.827,162.55C199.825,163.595 197.073,164.922 193.572,166.533C190.047,168.154 187.027,169.619 184.512,170.927C182.139,172.158 180.235,173.173 178.799,173.973L170.261,164.838ZM83.074,163.666L76.485,157.665L83.337,148.607L95.69,149.489L95.338,154.195L88.573,158.167L92.865,160.636L83.074,163.666ZM106.1,159.665L103.07,159.548L101.308,161.429L100.396,158.724L97.779,157.519L100.248,156.018L100.544,153.43L102.778,155.108L105.455,154.343L104.571,157.371L106.1,159.665ZM181.431,126.628C185.077,128.564 188.415,131.151 191.446,134.394C193.192,136.262 195.297,138.863 197.76,142.198C200.156,145.442 202.551,148.44 204.944,151.19C206.468,151.766 207.865,152.494 209.137,153.373C209.236,153.327 209.34,153.287 209.448,153.254L218.077,150.584C207.553,140.459 195.142,132.279 181.431,126.628ZM75.665,135.043C76.512,134.523 77.364,134.016 78.223,133.519L79.749,134.667L84.19,133.374L82.72,138.431L85.251,142.255L80.22,142.02L77.309,145.137L75.78,140.668L71.456,138.668L75.543,136.168L75.665,135.043ZM153.862,80.436L179.889,104.287L180.419,105.288L180.29,105.606L180.195,106.039L180.189,106.092C174.413,104.148 168.461,102.581 162.366,101.421L161.821,100.432L161.261,99.409L160.126,97.318C160.038,97.141 159.95,96.995 159.89,96.847C157.125,91.759 155.303,86.083 153.862,80.436ZM126.011,79.759C123.982,85.819 121.482,91.818 117.923,97.024L117.894,97.024C117.835,97.141 117.775,97.229 117.687,97.318C117.658,97.406 117.57,97.523 117.452,97.671L117.042,98.249L116.246,99.381L115.61,100.266L115.274,100.721C108.993,101.722 102.856,103.153 96.893,104.984L96.631,104.2L98.278,101.641L126.011,79.759ZM140.465,49.848L140.627,49.852C142.334,49.909 143.98,50.645 145.127,51.938C146.303,53.174 146.951,54.849 146.862,56.556C146.803,58.291 146.038,59.908 144.803,61.086C143.509,62.26 141.863,62.879 140.128,62.819C138.421,62.762 136.775,62.026 135.628,60.733C134.452,59.497 133.804,57.82 133.864,56.115C133.952,54.35 134.717,52.763 135.95,51.587C137.096,50.519 138.581,49.913 140.141,49.852L140.465,49.848ZM212.533,14.49L212.739,14.493C220.061,14.64 222.354,22.1 218.297,30.998C205.399,42.147 189.145,48.573 172.115,49.219L171.713,49.233C178.065,33.087 191.329,20.618 207.857,15.296C209.586,14.744 211.148,14.488 212.533,14.49ZM70.673,9.257C72.254,9.253 74.061,9.626 76.074,10.442C92.16,16.971 104.454,30.352 109.63,46.91C92.543,45.117 76.633,37.47 64.545,25.293C61.224,16.382 63.823,9.274 70.673,9.257Z" style="fill:none;stroke:rgb(255,0,0);stroke-width:1px;"/>
</svg>
