<?xml version="1.0" encoding="UTF-8" standalone="no"?>
<!DOCTYPE svg PUBLIC "-//W3C//DTD SVG 1.1//EN" "http://www.w3.org/Graphics/SVG/1.1/DTD/svg11.dtd">
<svg width="100%" height="100%" viewBox="0 0 1123 794" version="1.1" xmlns="http://www.w3.org/2000/svg" xmlns:xlink="http://www.w3.org/1999/xlink" xml:space="preserve" xmlns:serif="http://www.serif.com/" style="fill-rule:evenodd;clip-rule:evenodd;stroke-linejoin:round;stroke-miterlimit:2;">
    <path d="M144.768,40.265C146.525,40.302 148.11,40.912 149.422,41.91C150.863,43.057 151.891,44.704 152.273,46.587C152.802,46.587 182.859,16.178 188.975,12.177C194.836,8.337 202.831,5.966 211.003,5.93C211.404,5.929 211.807,5.932 212.21,5.942C221.975,6.413 230.502,10.413 234.032,19.412C239.942,32.998 232.913,47.381 232.854,60.821C232.825,76.702 247.707,93.348 235.179,108.435C229.972,113.729 222.856,118.846 215.857,121.903L215.797,121.903L214.909,122.185L213.44,122.66C235.271,137.575 252.544,158.68 262.718,183.428L263.146,184.482L263.635,185.717L264.183,187.147L264.715,188.58L264.956,189.247L265.465,190.694L265.958,192.147L266.475,193.735L266.941,195.223L267.39,196.719L267.822,198.222L268.318,200.033L268.765,201.757L269.14,203.283L269.499,204.816L269.84,206.356L270.097,207.582L270.267,208.418L270.567,209.973L270.849,211.533L271.113,213.1L271.309,214.338L271.419,215.073L271.66,216.779L271.864,218.366L272.05,219.958L272.182,221.204L272.257,221.958L272.366,223.158L272.397,223.517L272.519,225.075L272.624,226.63L272.71,228.177L272.746,228.945L272.807,230.524L272.85,232.102C272.861,232.627 272.87,233.152 272.875,233.676L272.882,235.204L272.88,235.812C272.877,236.27 272.873,236.727 272.866,237.183L272.845,238.277C272.836,238.637 272.827,238.997 272.816,239.357L272.77,240.666L272.707,242.056L272.66,242.916C272.616,243.693 272.566,244.469 272.509,245.242L272.378,246.891L272.235,248.448L272.115,249.632L271.964,250.996L271.773,252.558L271.607,253.813L271.429,255.064L271.176,256.717L270.983,257.897L270.743,259.275L270.405,261.091L270.108,262.584L269.863,263.752L269.428,265.714L269.074,267.212L268.795,268.344L268.42,269.801L268.042,271.21L267.725,272.344L267.361,273.601L266.892,275.16L266.363,276.838L265.822,278.487L265.452,279.56L265.025,280.738L264.863,281.178C264.752,281.514 264.639,281.848 264.5,282.186C263.205,285.714 261.764,289.155 260.177,292.537C259.764,293.448 259.353,294.331 258.911,295.213C258.206,296.654 257.441,298.096 256.707,299.508C256.647,299.565 256.619,299.654 256.588,299.713C255.177,302.329 253.677,304.919 252.09,307.419L251.385,308.513L250.98,309.103L250.316,310.136L249.767,310.943L249.354,311.546L249.354,311.565C249.088,312.005 248.794,312.416 248.472,312.829C247.32,314.5 246.13,316.138 244.904,317.745L244.816,317.86C243.221,319.948 241.565,321.984 239.854,323.976L239.073,324.871L238.079,325.991L237.478,326.655L236.874,327.314L236.265,327.97L235.652,328.622L235.034,329.27L234.413,329.913L233.787,330.553L233.157,331.188L232.523,331.819L231.885,332.446L231.243,333.069L230.597,333.688L229.946,334.303L229.292,334.913L228.634,335.519L227.305,336.718L225.961,337.9L224.601,339.064L223.226,340.21L221.835,341.339L220.43,342.45L219.251,343.358L218.294,344.082L217.12,344.95L216.125,345.672L214.957,346.501L213.924,347.22L212.763,348.011L211.691,348.725L210.538,349.478L209.428,350.187L208.283,350.903L207.134,351.605L205.999,352.284L204.81,352.979L203.686,353.621L202.128,354.488L200.557,355.336L199.718,355.777L198.921,356.19L198.122,356.597L197.319,356.999L196.514,357.396L195.706,357.788L194.894,358.175L194.08,358.556L193.263,358.932L192.443,359.303L191.621,359.668L190.795,360.029L189.967,360.383L189.136,360.733L188.303,361.077L187.466,361.416L186.627,361.749L185.472,362.197L184.208,362.674L183.508,362.932C175.658,365.798 167.471,367.962 159.021,369.348L157.605,369.572L156.197,369.781L154.318,370.035L152.436,370.263L150.549,370.465L148.516,370.653L146.646,370.8L144.654,370.927L142.787,371.02L140.923,371.087L139.53,371.121L138.144,371.142L136.819,371.148L135.472,371.141L135.01,371.136L133.308,371.103L132.116,371.068L131.571,371.048C131.011,371.027 130.452,371.002 129.893,370.974L128.91,370.921L128.07,370.87L126.787,370.783L125.344,370.67L124.595,370.605L123.757,370.528L122.78,370.431L121.461,370.29L119.917,370.108L119.147,370.01L118.622,369.94C61.059,362.253 14.891,318.582 3.474,262.277L3.239,261.09L2.955,259.579L2.689,258.062L2.439,256.54L2.206,255.012L1.989,253.478L1.79,251.939L1.609,250.395L1.444,248.846L1.295,247.267L1.199,246.139L1.071,244.412L1.03,243.782L0.93,242.013L0.887,241.098L0.867,240.61L0.814,239.101L0.782,237.765L0.762,236.427L0.756,235.069L0.761,233.92L0.78,232.504L0.814,231.055L0.874,229.343L0.941,227.924L1.04,226.215L1.16,224.51L1.339,222.399L1.503,220.733L1.754,218.52L1.965,216.867L2.116,215.769L2.36,214.126L2.623,212.491L2.832,211.276L3.004,210.32L3.25,209.022L3.391,208.305L3.7,206.805L3.847,206.115L4.228,204.413L4.525,203.156L4.699,202.441L5.07,200.971L5.248,200.286L5.705,198.602L6.047,197.393L6.255,196.679L6.685,195.245L7.142,193.78L7.652,192.213L8.179,190.657L8.724,189.112L9.286,187.576L9.865,186.051L10.462,184.535L11.076,183.028L11.589,181.809L12.228,180.334L12.884,178.867L13.557,177.41L14.247,175.963L14.953,174.524L15.675,173.096L16.414,171.677L17.169,170.268L17.681,169.334L18.2,168.404L18.727,167.479L19.26,166.559L19.8,165.643L20.347,164.732L20.901,163.825L21.462,162.923L21.995,162.081C24.011,158.918 26.155,155.843 28.418,152.865L29.105,151.969L30.119,150.673L31.137,149.404L32.163,148.156L33.2,146.924L34.249,145.708L35.309,144.506L36.64,143.037L37.833,141.756L39.206,140.322L40.549,138.958L41.845,137.678L43.198,136.376L44.743,134.932L46.31,133.513L47.5,132.464L48.702,131.429L49.916,130.407L51.142,129.4L52.38,128.406L53.63,127.427L54.892,126.462L56.165,125.511L57.449,124.575L58.745,123.654L60.052,122.747L61.369,121.855L62.698,120.978L64.037,120.117L64.936,119.551L65.84,118.992C65.398,118.817 65.044,118.669 64.75,118.492L64.722,118.492C55.281,115.374 48.341,108.758 41.958,101.287C30.577,85.318 46.666,69.791 47.751,53.967C48.723,40.557 42.782,25.706 49.694,12.56C53.84,3.853 62.664,0.531 72.427,0.768C81.014,1.208 89.338,4.267 95.161,8.707C107.57,18.236 119.159,31.999 128.776,45.146C128.776,44.116 130.394,42.292 132.157,41.293C133.276,40.617 134.598,40.263 136.01,40.263L144.597,40.263L144.768,40.265ZM233.106,301.981L233,302.134C230.483,303.681 227.993,305.253 225.474,306.802C223.721,307.892 224.466,310.555 226.475,310.623C225.699,311.543 224.907,312.453 224.102,313.349L223.767,313.36C222.62,313.389 221.681,314.328 221.65,315.475C221.645,315.641 221.659,315.803 221.69,315.957C200.328,338.368 170.192,352.34 136.819,352.34C129.603,352.34 122.539,351.687 115.679,350.436L134.186,327.506L164.772,329.681L159.508,320.888L165.184,312.093L175.802,312.975L170.243,303.566L173.565,295.625L181.093,299.3L186.535,320.035L200.475,303.418L218.297,304.448C218.326,304.8 218.445,305.153 218.65,305.447C219.327,306.417 220.62,306.683 221.621,306.066C224.267,304.448 226.915,302.799 229.591,301.155C230.762,301.438 231.935,301.697 233.106,301.981ZM107.895,341.033L113.364,348.678L110.159,337.003L107.895,341.033ZM104.571,345.769L100.63,345.592L99.878,346.393C99.065,346.123 98.255,345.844 97.449,345.556L97.102,344.532L93.718,342.975L96.925,341.004L97.306,337.591L100.219,339.797L103.749,338.798L102.571,342.768L104.571,345.769ZM85.131,273.303L79.354,270.4L80.178,272.648C80.193,272.692 80.209,272.736 80.222,272.78C81.181,275.96 79.411,279.432 76.27,280.531C74.342,281.206 72.35,280.866 70.84,279.792C71.014,281.638 70.315,283.537 68.77,284.872C67.596,285.888 66.126,286.394 64.662,286.394C62.977,286.394 61.301,285.725 60.085,284.426C60.052,284.392 60.022,284.357 59.993,284.321L57.193,280.956L57.193,288.369C57.193,291.684 54.444,294.418 50.997,294.418C47.547,294.418 44.798,291.684 44.798,288.369L44.798,280.956L41.998,284.321C41.969,284.357 41.939,284.392 41.906,284.426C39.633,286.853 35.746,287.057 33.221,284.874L33.221,284.872C31.676,283.537 30.977,281.638 31.152,279.792C30.457,280.285 29.66,280.624 28.814,280.779C39.992,307.142 60.547,328.582 86.29,340.908L91.19,337.739L92.396,325.651L101.189,333.062L108.66,330.739L105.749,320.828L76.779,308.771L84.691,302.624L82.543,295.744L74.367,291.949L81.926,286.273L82.749,277.684L87.308,281.333L85.131,273.303ZM117.923,310.182L108.954,306.066L117.395,300.861L118.423,291.83L126.187,297.713L135.451,295.037L132.392,305.535L137.657,313.475L127.187,312.975L121.099,319.533L117.923,310.182ZM158.478,319.476L151.155,307.801L156.126,310.066L158.478,319.476ZM156.891,305.007L159.832,303.212L160.184,300.067L162.889,302.125L166.096,301.183L165.036,304.83L166.861,307.595L163.243,307.419L161.125,309.711L160.007,306.448L156.891,305.007ZM169.832,294.508L163.95,296.566L155.684,289.92L154.539,300.772L148.686,303.77L158.714,273.038L151.862,274.421L157.803,267.421L179.124,269.362L177.948,279.302L160.979,290.508L169.832,294.508ZM223.767,299.771C222.62,300.476 221.444,301.212 220.268,301.948L218.827,299.713C219.267,299.448 219.709,299.183 220.151,298.889C221.356,299.183 222.561,299.477 223.767,299.771ZM91.073,297.625L88.014,301.654L94.543,297.832L91.073,297.625ZM143.782,215.887L140.422,219.337L153.743,230.337L177.446,224.453L168.771,246.775L175.154,243.424L175.802,234.426L183.007,240.159L192.536,237.512L189.181,246.452L193.977,254.57L184.8,253.892L181.418,258.158L196.505,270.363L217.563,265.832L210.092,286.304L214.679,293.332C214.886,293.39 215.092,293.448 215.297,293.478C215.003,293.008 214.709,292.537 214.444,292.068C213.827,291.067 214.15,289.772 215.209,289.213C216.208,288.655 217.503,289.009 218.12,289.979C219.121,291.624 220.12,293.244 221.091,294.862C222.326,295.154 223.533,295.448 224.738,295.744C223.798,294.214 222.885,292.712 221.975,291.213C221.356,290.183 221.681,288.89 222.737,288.331C223.738,287.802 225.032,288.125 225.65,289.124C227.268,291.772 228.915,294.449 230.531,297.123C231.737,297.39 232.973,297.682 234.178,297.978C232.591,295.39 231.002,292.802 229.414,290.214C228.325,288.419 230.296,286.304 232.178,287.303C234.692,288.656 237.18,290.008 239.692,291.362L239.958,290.875C239.678,289.929 239.398,288.992 239.12,288.037C236.355,286.567 233.619,285.068 230.856,283.596C229.854,283.068 229.414,281.773 229.914,280.745C230.414,279.657 231.678,279.244 232.737,279.803C234.297,280.656 235.855,281.479 237.414,282.332C237.134,281.377 236.204,277.681 235.653,275.584C234.93,275.662 234.279,275.681 233.7,275.644C232.117,275.543 230.929,275.266 230.13,274.846C229.336,274.428 228.506,273.765 227.649,272.848C226.368,271.477 225.763,269.761 225.856,267.693C225.922,266.218 226.334,264.834 227.096,263.54C222.55,264.547 219.279,263.894 217.263,261.737C215.597,259.955 214.946,257.803 215.322,255.277C215.585,253.508 216.296,251.72 217.465,249.92C214.945,250.357 212.894,250.521 211.312,250.422C209.643,250.317 208.061,249.955 206.567,249.337C205.064,248.715 203.96,248.111 203.247,247.536C202.55,246.975 201.772,246.235 200.913,245.316C198.624,242.868 197.722,240.057 198.194,236.887C198.462,235.094 199.057,233.331 199.983,231.599C199.825,231.643 199.669,231.686 199.515,231.728C196.99,232.411 194.948,232.673 193.389,232.535C191.776,232.393 190.575,232.098 189.78,231.68C188.988,231.263 188.14,230.581 187.245,229.624C186.002,228.294 185.414,226.598 185.507,224.527C185.576,222.977 186.027,221.527 186.866,220.177C184.766,220.651 182.83,220.94 181.055,221.044C176.63,221.303 172.538,220.737 168.777,219.353C165.336,220.902 162.417,222.021 160.019,222.711C157.488,223.44 155.353,223.701 153.617,223.516C151.839,223.327 150.423,222.915 149.361,222.303C148.318,221.701 147.223,220.794 146.083,219.574C145.031,218.449 144.264,217.22 143.782,215.887ZM202.504,293.509L195.447,293.184L191.358,297.567L189.212,291.301L183.182,288.507L188.858,285.008L189.565,278.948L194.77,282.891L201.006,281.098L198.946,288.154L202.504,293.509ZM92.631,293.39L89.278,293.213L87.308,295.331L86.279,292.331L83.396,291.007L86.132,289.332L86.455,286.419L88.926,288.302L91.926,287.449L90.927,290.83L92.631,293.39ZM95.661,275.126L103.66,275.774L102.836,292.331L98.924,294.566L95.807,289.772L98.543,281.596L89.338,283.271L95.661,275.126ZM248.164,271.912C244.797,273.171 241.987,274.115 239.734,274.747L239.716,274.752L240.012,275.891L240.657,278.4C240.972,279.62 241.251,280.684 241.383,281.125C242.236,279.569 243.09,278.039 243.912,276.479C244.5,275.42 245.766,275.096 246.796,275.714L246.825,275.733C247.293,274.469 247.74,273.195 248.164,271.912ZM98.806,255.804L106.454,245.776L120.717,247.071L112.218,252.716L135.51,262.245L139.303,278.155L128.657,280.979L104.542,260.512L103.66,269.596L100.984,266.009L104.69,255.07L98.806,255.804ZM33.617,275.518L35.978,260.906L44.798,256.088L45.284,265.759L33.617,275.518ZM68.374,275.516L56.423,266.816L57.193,256.088L66.785,261.932L68.374,275.516ZM251.946,257.418C245.194,260.946 240.732,263.384 238.56,264.734C236.161,266.225 234.48,267.533 233.531,268.676C233.112,269.179 232.906,269.562 233.207,269.884C233.347,270.034 233.628,270.079 234.015,270.12C234.874,270.21 236.144,270.111 237.824,269.837C240.723,269.365 244.356,268.332 248.726,266.742C248.776,266.724 248.827,266.712 248.88,266.706C249.27,266.662 249.523,266.8 249.679,266.967L249.68,266.968C250.564,263.836 251.321,260.651 251.946,257.418ZM95.955,263.598L93.726,264.232C94.485,265.959 94.443,268.037 93.413,269.845L96.72,269.979L94.896,267.246L95.955,263.598ZM169.743,249.334L176.007,252.188L179.241,263.569L169.743,249.334ZM137.657,250.424L144.568,246.216L145.391,238.864L151.685,243.658L159.242,241.481L156.745,250.011L161.037,256.48L152.508,256.069L147.568,261.394L144.979,253.804L137.657,250.424ZM242.329,252.681C240.082,253.855 238.2,254.907 236.682,255.836C232.205,257.609 228.785,258.558 226.417,258.657C225.052,258.714 224.077,258.511 223.527,257.922C223.255,257.632 223.213,257.21 223.308,256.675C223.431,255.985 223.815,255.274 224.434,254.529C225.926,252.734 228.099,250.973 230.944,249.235C233.798,247.493 236.632,246.295 239.447,245.645C242.016,245.053 243.815,245.185 244.818,246.258C245.329,246.805 245.321,247.626 244.959,248.707C244.532,249.984 243.649,251.304 242.33,252.68L242.329,252.681ZM93.065,254.373C92.686,254.936 92.218,255.437 91.68,255.854L93.838,257.628L93.065,254.373ZM216.453,209.946C216.715,210.227 216.816,210.575 216.71,211.001C216.626,211.342 216.435,211.614 216.137,211.813C216.117,211.827 216.096,211.839 216.074,211.851C206.943,216.589 201.055,219.767 198.411,221.387C195.843,222.96 194.077,224.308 193.127,225.452C192.708,225.955 192.502,226.338 192.803,226.66C192.959,226.826 193.261,226.89 193.677,226.943C194.566,227.055 195.872,226.976 197.596,226.722C199.941,226.376 202.711,225.684 205.901,224.651C207.442,223.468 209.179,222.454 211.115,221.611C214.656,220.067 218.233,219.438 221.846,219.719C225.538,220.005 228.465,221.325 230.641,223.653C232.289,225.416 233.146,227.178 233.259,228.916C233.373,230.676 232.732,232.432 231.29,234.166C230.04,235.67 228.431,236.545 226.462,236.788C224.406,237.043 222.894,236.585 221.897,235.519C221.359,234.943 221.13,234.392 221.128,233.906C221.127,233.519 221.257,233.151 221.54,232.811C221.641,232.69 221.781,232.608 221.937,232.581C224.979,232.043 227.01,230.981 227.973,229.29C227.975,229.286 227.977,229.282 227.979,229.279C228.322,228.702 228.296,228.182 227.865,227.72C226.99,226.784 225.363,226.522 223.018,226.765C220.467,227.029 217.731,227.902 214.809,229.375C211.894,230.843 209.558,232.627 207.807,234.734C206.741,236.017 206.038,237.336 205.708,238.698C205.418,239.9 205.606,240.891 206.326,241.661C206.926,242.304 207.688,242.847 208.608,243.297C209.571,243.768 210.837,244.193 212.403,244.576C213.961,244.957 215.918,244.987 218.275,244.682C220.158,244.439 222.161,243.976 224.283,243.296C224.524,243.14 224.769,242.986 225.019,242.834C227.489,241.335 230.051,240.185 232.708,239.386C235.41,238.573 238.11,238.383 240.808,238.816C243.564,239.257 245.804,240.41 247.535,242.261C249.423,244.281 250.085,246.501 249.523,248.92C250.041,248.769 250.499,248.911 250.898,249.338L252.931,251.513C253.684,246.146 254.074,240.66 254.074,235.085C254.074,203.795 241.792,175.351 221.786,154.313L221.782,154.316C218.138,156.721 213.303,156.402 209.054,157.405C209.033,157.41 209.054,157.447 209.054,157.468C209.054,157.534 209.054,157.6 209.053,157.666C209.045,158.058 209.012,158.45 208.953,158.837C208.814,159.74 208.526,160.616 208.112,161.43C206.882,163.848 204.677,165.453 202.41,166.827C199.519,168.578 196.465,170.079 193.408,171.512C191.452,172.429 189.475,173.307 187.542,174.273C186.562,174.763 185.603,175.304 184.637,175.823C182.98,176.714 181.328,177.614 179.682,178.526C175.424,180.883 171.184,183.298 167.103,185.954C164.109,187.903 161.22,190.029 158.59,192.452C157.162,193.767 155.781,195.166 154.577,196.691C154.072,197.331 153.629,198.007 153.342,198.773C153.262,198.987 153.176,199.207 153.139,199.434C153.111,199.608 153.151,199.739 153.187,199.914C153.253,200.244 153.333,200.588 153.332,200.926C153.332,201.075 153.313,201.224 153.273,201.367C153.048,202.173 152.288,202.588 151.518,202.738L151.431,202.752L151.253,203.284C152.187,203.283 153.38,203.608 154.824,204.294C156.2,204.948 157.459,205.637 158.603,206.36C159.728,207.072 161.304,208.11 163.331,209.473C164.303,210.12 165.234,210.687 166.123,211.173C166.746,210.861 168.02,210.207 169.943,209.214C168.432,208.87 167.186,208.165 166.201,207.11C164.537,205.331 163.876,203.171 164.232,200.628C164.572,198.191 165.757,195.731 167.811,193.26C169.385,191.366 171.414,189.661 173.903,188.15C176.374,186.649 178.948,185.509 181.624,184.729C184.342,183.937 187.039,183.748 189.715,184.159C192.452,184.581 194.704,185.742 196.473,187.635C198.409,189.706 199.046,191.987 198.38,194.477C198.977,194.228 199.498,194.35 199.945,194.828L204.241,199.424C204.504,199.705 204.604,200.053 204.499,200.479C204.414,200.82 204.224,201.092 203.925,201.291C203.905,201.305 203.884,201.317 203.862,201.329L177.073,215.224C182.862,215.964 189.622,214.868 197.351,211.968C197.388,211.951 197.425,211.936 197.455,211.925C200.503,210.218 204.821,207.91 210.411,204.999C210.416,204.996 210.422,204.993 210.428,204.991C211.071,204.679 211.628,204.785 212.102,205.292M19.892,243.913L30.396,239.854L39.892,245.33L30.696,251.158L20.154,246.913C20.055,245.921 19.967,244.919 19.892,243.913ZM177.771,247.63L179.977,246.275L180.242,243.924L182.271,245.453L184.683,244.775L183.889,247.511L185.242,249.569L182.534,249.452L180.947,251.158L180.094,248.718L177.771,247.63ZM85.767,245.33L71.954,250.362L62.099,245.33L72.204,240.111L85.767,245.33ZM90.909,245.299L90.892,245.226C90.821,245.263 90.748,245.297 90.675,245.33C90.767,245.374 90.859,245.418 90.949,245.466L90.909,245.299ZM136.951,215.603L134.158,214.25L133.128,238.953L124.099,244.982L114.747,230.777L121.159,213.484L107.513,216.397L113.805,208.336L131.216,209.631L135.804,211.22L136.951,215.603ZM108.423,237.6L102.159,237.308L98.513,241.218L96.601,235.629L91.221,233.158L96.278,230.041L96.897,224.63L101.543,228.16L107.101,226.542L105.276,232.835L108.423,237.6ZM33.617,215.144L45.803,224.221L44.798,234.574L35.216,230.049L33.617,215.144ZM68.374,215.144L65.894,229.603L57.193,234.572L57.247,224.607L68.374,215.144ZM81.367,214.368L80.453,215.505C80.529,216.287 80.46,217.092 80.222,217.88C80.209,217.926 80.195,217.97 80.178,218.015L78.666,222.142L85.066,218.437C86.073,217.855 87.185,217.602 88.282,217.649L88.425,215.19L81.367,214.368ZM64.079,143.141L70.546,145.608L72.309,151.812L72.104,167.459L61.28,174.605L73.22,179.604L77.192,191.927L84.455,182.341L94.748,183.163L94.574,185.811L78.604,196.25L83.984,199.367L80.191,200.339L72.897,194.369L71.956,203.573L68.783,205.8L68.77,205.788C66.245,203.605 62.358,203.809 60.085,206.234C60.052,206.269 60.022,206.305 59.993,206.34L57.193,209.706L57.193,202.293C57.193,198.979 54.444,196.242 50.997,196.242C47.547,196.242 44.798,198.979 44.798,202.293L44.798,209.706L41.998,206.34C41.969,206.305 41.939,206.269 41.906,206.234C39.633,203.809 35.746,203.605 33.221,205.788C31.676,207.124 30.977,209.024 31.152,210.871C29.641,209.796 27.649,209.456 25.722,210.131C22.578,211.23 20.81,214.7 21.769,217.88C21.783,217.926 21.796,217.97 21.813,218.015L23.325,222.142L20.466,220.486C24.353,189.233 40.563,161.778 64.079,143.141ZM155.861,214.22L154.233,211.447C155.489,212.117 157.118,213.047 159.122,214.236C155.473,215.42 152.661,215.367 150.692,213.961L155.861,214.22ZM85.514,207.014L88.102,200.839L96.601,204.074L99.043,213.808L89.278,205.925L89.132,206.044L88.308,210.955L85.514,207.014ZM82.514,210.544L80.985,208.221L81.867,205.193L79.19,205.955L76.956,204.28L76.662,206.868L74.192,208.398L76.81,209.574L77.123,210.504C77.62,210.767 78.073,211.095 78.475,211.475L79.486,210.398L82.514,210.544ZM145.315,206.369L145.039,205.955L146.098,202.31L142.862,203.219L140.185,201.192L139.834,204.309L136.892,206.132L140.01,207.573L141.127,210.807L143.215,208.544L143.971,208.574C144.31,207.814 144.758,207.079 145.315,206.369ZM216.837,209.951C217.254,210.037 217.653,210.076 217.993,210.038C219.492,209.87 220.797,209.298 221.909,208.323C223.08,207.297 223.656,206.137 223.678,204.866C223.701,203.545 223.165,202.479 222.058,201.672C221.015,200.911 219.724,200.6 218.178,200.773C216.679,200.94 215.374,201.512 214.261,202.487C213.09,203.513 212.515,204.673 212.493,205.944M172.465,203.296C172.17,202.981 172.108,202.556 172.216,202.037C172.355,201.36 172.749,200.652 173.372,199.902C174.864,198.108 177.037,196.346 179.882,194.609C182.736,192.867 185.57,191.668 188.386,191.019C189.734,190.708 190.872,190.603 191.801,190.719C192.616,190.822 193.255,191.095 193.701,191.573C194.245,192.155 194.237,193.015 193.841,194.142C193.375,195.47 192.433,196.864 191.033,198.336C191.032,198.337 185.247,201.308 185.247,201.308C180.895,203.021 177.571,203.933 175.268,204.02C173.947,204.07 173.001,203.87 172.465,203.296ZM161.333,120.401C153.426,118.716 145.225,117.829 136.819,117.829C121.682,117.829 107.211,120.704 93.918,125.938L90.279,137.638L96.043,146.373L96.424,144.019L102.984,150.225L112.042,147.785L109.747,157.196L114.276,164.488L105.19,163.989L99.925,169.899L109.924,179.399L128.628,174.545L122.306,192.398L129.863,203.515L134.01,201.427L135.422,189.809L143.481,197.28L143.763,197.201L143.745,197.069C143.503,194.893 144.144,192.682 145.302,190.844C145.922,189.859 146.698,188.981 147.48,188.123C149.359,186.062 151.449,184.199 153.676,182.521C155.718,180.982 157.877,179.6 160.061,178.273C162.068,177.052 164.105,175.88 166.16,174.743C166.98,174.289 167.478,174.015 168.305,173.566C168.678,173.363 169.682,173.299 169.425,172.961C166.919,169.666 163.968,166.717 160.945,163.889C160.727,163.685 160.408,164.147 160.139,164.275C159.81,164.433 159.48,164.59 159.15,164.746C157.783,165.396 156.415,166.043 155.045,166.688C152.928,167.684 150.804,168.659 148.66,169.598C146.973,170.338 145.284,171.09 143.552,171.722C142.689,172.037 141.808,172.302 140.932,172.58C139.193,173.132 137.426,173.775 135.606,174.027C134.704,174.152 133.783,174.147 132.875,174.159C131.289,174.181 129.721,174.171 128.27,173.449C127.715,173.174 127.197,172.828 126.725,172.427C126.223,172 125.767,171.513 125.391,170.971C124.014,168.989 123.844,166.497 124.126,164.168C124.323,162.547 124.762,160.919 125.651,159.533C125.953,159.061 126.307,158.619 126.709,158.228C126.956,157.988 127.224,157.768 127.518,157.588C127.723,157.462 127.941,157.355 128.168,157.276C128.334,157.218 128.507,157.173 128.682,157.162C128.805,157.154 128.931,157.164 129.05,157.196C129.627,157.349 129.759,157.903 129.803,158.431C129.828,158.737 129.81,159.071 130,159.331C130.159,159.549 130.388,159.736 130.594,159.907C131.134,160.358 131.755,160.705 132.419,160.938C133.581,161.346 134.841,161.378 136.06,161.335C137.65,161.278 139.23,161.074 140.787,160.752C144.348,160.015 147.821,158.843 151.239,157.623C154.137,156.589 157.009,155.483 159.866,154.341C162.031,153.477 164.179,152.572 166.356,151.739C169.469,150.55 172.629,149.475 175.841,148.583C179.408,147.592 183.05,146.818 186.738,146.457C187.895,146.344 189.057,146.272 190.22,146.253C190.59,146.247 190.96,146.246 191.329,146.251C191.451,146.253 191.572,146.255 191.693,146.258C191.813,146.261 192.07,146.388 192.054,146.268C192.02,146.012 191.758,145.844 191.61,145.632C191.192,145.036 190.773,144.441 190.352,143.848C189.792,143.058 189.238,142.261 188.651,141.49C187.807,140.383 186.904,139.318 185.999,138.26C185.255,137.39 184.496,136.532 183.724,135.686C183.019,134.913 182.317,134.14 181.528,133.452C180.512,132.566 179.391,131.805 178.199,131.178C176.758,130.42 175.223,129.868 173.65,129.458C171.577,128.919 169.439,128.641 167.297,128.652C163.583,128.671 159.892,129.536 156.498,131.024C153.643,132.276 150.981,133.986 148.843,136.271C147.938,137.238 147.108,138.298 146.483,139.47C146.075,140.235 145.757,141.052 145.595,141.906C145.487,142.478 145.458,143.065 145.554,143.641C145.637,144.14 145.814,144.62 146.071,145.057C146.281,145.414 146.542,145.741 146.835,146.034C147.081,146.281 147.352,146.503 147.643,146.694C149.527,147.924 152.003,147.644 154.05,147.019C155.018,146.723 155.959,146.287 156.738,145.632C156.903,145.493 157.061,145.345 157.209,145.188C157.536,144.839 157.841,144.415 158.384,144.465C159.128,144.533 159.311,145.378 159.438,145.972C159.475,146.145 159.502,146.319 159.518,146.495C159.534,146.667 159.54,146.84 159.535,147.013C159.497,148.24 158.879,149.295 158.077,150.187C157.457,150.875 156.75,151.481 155.98,151.995C154.464,153.006 152.73,153.647 150.954,154.026C149.724,154.288 148.464,154.45 147.204,154.403C145.252,154.332 143.358,153.743 141.732,152.655C140.917,152.11 140.174,151.455 139.515,150.729C137.514,148.525 136.669,145.6 136.566,142.671C136.478,140.179 136.847,137.672 137.722,135.335C138.584,133.031 139.917,130.926 141.544,129.088C146.423,123.577 153.798,120.939 160.993,120.421L161.333,120.401ZM103.629,192.104L104.248,186.693L108.894,190.222L114.453,188.605L112.601,194.897L115.777,199.663L109.482,199.367L105.835,203.281L103.923,197.691L98.543,195.22L103.629,192.104ZM77.897,171.429L78.337,167.43L81.778,170.016L85.896,168.84L84.543,173.488L86.866,177.018L82.22,176.782L79.544,179.693L78.132,175.546L74.133,173.723L77.897,171.429ZM94.514,161.341L96.985,162.165L98.159,168.871L95.955,167.105L95.131,178.694L90.337,172.399L94.514,161.341ZM167.165,161.098C180.27,155.501 190.404,152.893 197.587,153.315L198.93,154.751C199.667,155.54 200.351,156.171 200.979,156.648C200.132,157.358 198.967,158.095 197.491,158.865C195.564,159.87 192.916,161.147 189.547,162.697C186.154,164.258 183.247,165.668 180.826,166.927C178.552,168.106 176.725,169.08 175.344,169.849L167.165,161.098ZM83.074,163.666L76.485,157.665L83.337,148.607L95.69,149.489L95.338,154.195L88.573,158.167L92.865,160.636L83.074,163.666ZM106.1,159.665L103.07,159.548L101.308,161.429L100.396,158.724L97.779,157.519L100.248,156.018L100.544,153.43L102.778,155.108L105.455,154.343L104.571,157.371L106.1,159.665ZM193.609,139.285C195.913,142.405 198.216,145.288 200.517,147.933C203.098,148.909 205.303,150.338 207.135,152.216L215.585,148.255C205.763,139.338 194.424,132.064 182.004,126.866L193.609,139.285ZM75.665,135.043C76.512,134.523 77.364,134.016 78.223,133.519L79.749,134.667L84.19,133.374L82.72,138.431L85.251,142.255L80.22,142.02L77.309,145.137L75.78,140.668L71.456,138.668L75.543,136.168L75.665,135.043ZM153.862,80.436L179.889,104.287L180.419,105.288L180.29,105.606L180.195,106.039L180.189,106.092C174.413,104.148 168.461,102.581 162.366,101.421L161.821,100.432L161.261,99.409L160.126,97.318C160.038,97.141 159.95,96.995 159.89,96.847C157.125,91.759 155.303,86.083 153.862,80.436ZM126.011,79.759C123.982,85.819 121.482,91.818 117.923,97.024L117.894,97.024C117.835,97.141 117.775,97.229 117.687,97.318C117.658,97.406 117.57,97.523 117.452,97.671L117.042,98.249L116.246,99.381L115.61,100.266L115.274,100.721C108.993,101.722 102.856,103.153 96.893,104.984L96.631,104.2L98.278,101.641L126.011,79.759ZM140.465,49.848L140.627,49.852C142.334,49.909 143.98,50.645 145.127,51.938C146.303,53.174 146.951,54.849 146.862,56.556C146.803,58.291 146.038,59.908 144.803,61.086C143.509,62.26 141.863,62.879 140.128,62.819C138.421,62.762 136.775,62.026 135.628,60.733C134.452,59.497 133.804,57.82 133.864,56.115C133.952,54.35 134.717,52.763 135.95,51.587C137.096,50.519 138.581,49.913 140.141,49.852L140.465,49.848ZM212.533,14.49L212.739,14.493C220.061,14.64 222.354,22.1 218.297,30.998C205.399,42.147 189.145,48.573 172.115,49.219L171.713,49.233C178.065,33.087 191.329,20.618 207.857,15.296C209.586,14.744 211.148,14.488 212.533,14.49ZM70.673,9.257C72.254,9.253 74.061,9.626 76.074,10.442C92.16,16.971 104.454,30.352 109.63,46.91C92.543,45.117 76.633,37.47 64.545,25.293C61.224,16.382 63.823,9.274 70.673,9.257Z" style="fill:none;stroke:rgb(255,0,0);stroke-width:1px;"/>
</svg>
