<?xml version="1.0" encoding="UTF-8" standalone="no"?>
<!DOCTYPE svg PUBLIC "-//W3C//DTD SVG 1.1//EN" "http://www.w3.org/Graphics/SVG/1.1/DTD/svg11.dtd">
<svg width="100%" height="100%" viewBox="0 0 1123 794" version="1.1" xmlns="http://www.w3.org/2000/svg" xmlns:xlink="http://www.w3.org/1999/xlink" xml:space="preserve" xmlns:serif="http://www.serif.com/" style="fill-rule:evenodd;clip-rule:evenodd;stroke-linejoin:round;stroke-miterlimit:2;">
    <g transform="matrix(1,0,0,1,-10.6631,-16.4454)">
        <path d="M11.426,250.1C11.92,201.578 37.85,159.147 76.503,135.437C76.061,135.262 75.707,135.114 75.413,134.938L75.384,134.938C65.944,131.819 59.004,125.203 52.621,117.733C41.24,101.763 57.328,86.236 58.414,70.413C59.386,57.003 53.445,42.152 60.357,29.005C64.503,20.299 73.327,16.977 83.089,17.213C91.677,17.653 100,20.712 105.824,25.153C118.233,34.681 129.822,48.445 139.438,61.591C139.438,60.561 141.056,58.738 142.82,57.739C143.939,57.062 145.261,56.709 146.673,56.709L155.26,56.709C157.085,56.709 158.73,57.326 160.085,58.356C161.526,59.503 162.554,61.149 162.936,63.032C163.464,63.032 193.522,32.623 199.638,28.623C205.787,24.593 214.285,22.182 222.872,22.388C232.637,22.858 241.165,26.859 244.695,35.857C250.605,49.444 243.576,63.826 243.517,77.267C243.488,93.148 258.37,109.793 245.842,124.881C240.634,130.174 233.519,135.291 226.519,138.348L226.46,138.348C226.08,138.467 225.266,138.729 224.103,139.105C246.368,154.317 263.892,175.967 273.981,201.358L274.298,202.163C280.107,217.05 283.368,233.217 283.537,250.122L283.545,251.53L283.543,252.257L283.529,253.628L283.511,254.602L283.479,255.802L283.44,256.907C282.934,269.97 280.595,282.547 276.662,294.396C276.322,295.443 275.957,296.462 275.587,297.453L275.163,298.631C273.868,302.159 272.427,305.6 270.84,308.982C270.427,309.893 270.016,310.777 269.574,311.659C268.869,313.1 268.104,314.541 267.37,315.953C267.31,316.011 267.281,316.099 267.251,316.159C265.84,318.774 264.34,321.364 262.753,323.864C262.38,324.432 262.038,325.004 261.643,325.548L261.545,325.697C261.134,326.366 260.706,326.996 260.256,327.638L260.016,327.991L260.016,328.011C259.751,328.451 259.457,328.862 259.134,329.275C256.458,333.158 253.576,336.861 250.517,340.421C225.814,369.023 189.421,387.205 148.807,387.587L147.482,387.593C143.885,387.593 140.32,387.453 136.787,387.178C70.145,381.999 16.988,328.83 11.83,262.177C11.557,258.662 11.419,255.112 11.419,251.53L11.426,250.1ZM39.414,296.842C51.151,324.777 73.415,347.222 101.233,359.2C97.093,356.407 93.182,353.22 89.551,349.659C86.132,346.306 86.132,340.851 89.551,337.498C92.97,334.146 98.533,334.146 101.952,337.498C104.174,339.677 106.529,341.675 108.998,343.491C113.426,328.854 113.06,316.282 112.433,310.022L103.137,317.099C99.805,319.636 95.435,319.719 92.005,317.307C88.575,314.896 87.252,310.81 88.634,306.9L96.006,286.049L96.928,272.424C96.987,271.56 97.484,270.783 98.251,270.355C99.019,269.928 99.954,269.907 100.741,270.3C100.862,270.36 102.214,271.04 104.042,272.143L100.882,258.84L83.458,252.063L84.406,251.367L71.622,245.408L66.121,248.594L79.955,255.032L73.043,259.026L59.22,252.577L51.082,257.271L62.192,262.923L51.082,268.586L59.22,273.279L73.043,266.831L79.955,270.814L66.121,277.263L71.622,280.438L85.456,273.99L92.356,277.973L78.534,284.422L89.557,290.795C90.86,291.538 91.301,293.206 90.548,294.509C89.794,295.822 88.136,296.264 86.823,295.51L75.799,289.148L77.134,304.349L70.233,300.365L68.898,285.165L63.397,281.978L64.721,297.179L57.821,293.196L56.497,277.995L48.358,273.301L49.015,285.746L38.561,278.953L38.561,288.351L51.06,297.103L51.06,305.07L39.457,296.945L39.414,296.842ZM243.675,318.404C242.535,318.129 241.394,317.876 240.254,317.6C237.577,319.245 234.93,320.893 232.284,322.511C231.283,323.128 229.99,322.863 229.313,321.893C229.108,321.599 228.988,321.245 228.96,320.893L211.138,319.864L198.382,335.068C201.016,334.706 203.787,335.516 205.809,337.498C207.465,339.123 208.377,341.282 208.377,343.579C208.377,345.875 207.465,348.034 205.809,349.659C202.384,353.017 198.712,356.043 194.832,358.719C209.038,352.428 221.763,343.395 232.334,332.292C232.316,332.172 232.309,332.048 232.313,331.921C232.343,330.774 233.283,329.834 234.43,329.805L234.641,329.799C235.45,328.898 236.246,327.985 237.025,327.062C235.102,326.901 234.417,324.317 236.136,323.247C238.591,321.738 241.018,320.207 243.47,318.698L243.675,318.404ZM162.894,344.646C164.52,347.147 167.027,350.173 169.095,352.537C162.302,354.872 155.086,356.09 147.681,356.09C141.087,356.09 134.643,355.124 128.514,353.265L133.095,344.784C137.908,346.073 149.932,348.46 162.894,344.646ZM188.436,314.125C189.956,318.028 189.047,321.212 186.232,319.558C186.506,326.802 187.855,335.712 189.423,341.093C190.793,339.954 192.124,338.758 193.408,337.498C194.425,336.502 195.631,335.802 196.914,335.398L191.756,315.746L188.436,314.125ZM234.43,316.217C233.283,316.922 232.107,317.658 230.931,318.394L229.49,316.159C229.93,315.894 230.372,315.629 230.814,315.335C232.019,315.629 233.223,315.923 234.43,316.217ZM226.856,286.03C229.217,287.549 231.908,288.285 234.93,288.238C237.339,288.2 240.48,287.548 244.352,286.283C244.663,287.363 244.975,288.424 245.313,289.483C244.812,289.22 244.312,288.955 243.841,288.69C242.783,288.13 241.518,288.544 241.019,289.631C240.548,290.661 240.959,291.925 241.958,292.485C243.636,293.395 245.313,294.277 247.018,295.19C247.371,296.395 247.723,297.571 248.076,298.777C246.518,297.924 244.96,297.102 243.399,296.249C242.341,295.69 241.076,296.103 240.577,297.19C240.077,298.218 240.517,299.513 241.518,300.042C244.281,301.513 247.018,303.012 249.783,304.482C250.049,305.396 250.317,306.293 250.584,307.198C250.482,307.387 250.379,307.576 250.276,307.765C249.796,307.506 249.317,307.248 248.838,306.989L244.843,304.829C244.177,304.469 243.509,304.108 242.84,303.748C240.959,302.749 238.988,304.865 240.077,306.659C241.664,309.247 243.253,311.836 244.841,314.424C243.636,314.128 242.4,313.836 241.194,313.569C239.578,310.894 237.931,308.217 236.313,305.57C235.694,304.571 234.401,304.248 233.4,304.776C232.343,305.335 232.019,306.628 232.637,307.658C233.548,309.157 234.461,310.66 235.4,312.189C234.196,311.893 232.989,311.599 231.753,311.307C230.783,309.689 229.784,308.07 228.783,306.425C228.166,305.454 226.871,305.101 225.872,305.658C224.813,306.217 224.49,307.512 225.107,308.513C225.372,308.982 225.666,309.453 225.96,309.924C225.755,309.893 225.549,309.835 225.342,309.778L220.755,302.749L226.856,286.03ZM213.167,309.954L206.11,309.63L202.021,314.013L199.874,307.747L193.845,304.953L199.521,301.454L200.228,295.394L205.433,299.336L211.668,297.544L209.609,304.599L213.167,309.954ZM155.375,302.319L156.59,302.277C164.329,302.2 170.507,302.827 175.815,304.198L188.611,295.747L189.787,285.807L168.466,283.867L155.375,302.319ZM107.035,274.082C108.329,274.985 109.66,276.009 110.857,277.11C118.807,277.975 126.529,282.987 133.249,291.662C136.834,296.291 139.263,300.809 140.439,303.202C143.545,302.912 146.452,302.691 149.19,302.536L149.921,302.51L146.173,278.69L122.881,269.162L131.38,263.516L117.117,262.221L107.035,274.082ZM236.078,174.891L223.811,176.811C223.306,176.952 222.787,176.767 222.478,176.382C222.527,176.795 222.552,177.229 222.554,177.687C222.561,179.857 221.808,181.853 220.294,183.674C219.213,184.975 217.31,186.403 214.583,187.958C211.856,189.514 208.682,191.131 205.061,192.81C201.439,194.489 199.417,195.446 198.994,195.682C188.188,201.421 185.365,202.802 180.273,206.25C175.181,209.698 172.397,212.058 169.37,215.7C168.549,216.689 167.99,217.565 167.694,218.33C167.398,219.095 167.286,219.638 167.358,219.961C167.429,220.283 167.49,220.618 167.54,220.967C167.59,221.315 167.507,221.62 167.291,221.88C166.772,222.504 164.434,223.855 162.828,223.563C162.644,223.529 162.463,223.489 162.285,223.443L166.523,230.665L156.555,230.166L151.084,235.782L164.406,246.782L185.61,241.519C185.584,241.492 185.558,241.464 185.532,241.436C184.134,239.941 183.477,238.279 183.562,236.453C183.646,234.626 184.193,232.901 185.202,231.278C186.211,229.655 187.281,228.096 188.41,226.601C189.539,225.106 190.376,223.691 190.919,222.356C191.463,221.021 191.375,219.968 190.656,219.199L190.237,218.75L173.338,227.506C172.959,227.69 172.649,227.654 172.41,227.397L167.616,222.269C167.496,222.141 167.46,221.98 167.508,221.786C167.557,221.591 167.666,221.438 167.835,221.324L221.126,193.705C221.506,193.521 221.835,193.579 222.115,193.878L226.849,198.942C226.969,199.07 227.015,199.219 226.989,199.387C226.962,199.555 226.864,199.696 226.694,199.809L202.579,212.345C207.011,212.369 210.426,213.663 212.823,216.227C214.181,217.68 214.862,219.268 214.864,220.99C214.866,222.713 214.283,224.276 213.116,225.681C211.559,227.554 209.34,228.522 206.458,228.584C203.576,228.647 200.439,227.404 197.047,224.857C196.881,226.056 196.357,227.436 195.474,228.998C194.591,230.559 193.747,231.893 192.942,232.997C192.137,234.102 191.549,235.218 191.179,236.345C190.808,237.472 190.942,238.377 191.581,239.061C193.032,240.613 197.873,239.958 206.103,237.095C207.758,235.841 209.576,234.773 211.556,233.891C215.449,232.158 219.297,231.433 223.099,231.716C226.901,232 229.9,233.317 232.097,235.667C234.454,238.188 235.487,240.964 235.195,243.994C234.903,247.024 233.59,249.943 231.255,252.753C228.011,256.655 223.583,259.487 217.97,261.247C219.088,263.145 221.456,263.809 225.072,263.237C225.896,262.546 226.642,262.313 227.309,262.539C231.242,261.439 237.703,259.16 246.69,255.701C249.252,254.707 251.432,255.171 253.229,257.094C254.108,258.035 254.564,259.211 254.598,260.623C254.632,262.035 254.346,263.106 253.741,263.834C252.203,263.959 250.589,264.812 248.897,266.393C247.205,267.974 245.682,269.785 244.327,271.824C242.971,273.864 241.459,275.956 239.789,278.101C238.119,280.247 236.534,282.041 235.034,283.483C238.797,283.676 243.785,282.623 249.997,280.324C250.247,280.296 250.367,280.424 250.357,280.708L250.064,283.786C250.054,284.07 249.944,284.247 249.734,284.318C249.235,284.517 248.744,284.708 248.262,284.892C248.596,286.02 248.952,287.149 249.281,288.278C249.548,287.808 249.811,287.306 250.077,286.837C250.636,285.777 251.929,285.456 252.928,286.073C253.929,286.661 254.252,287.954 253.722,288.984L250.987,294.014L252.046,297.571C252.899,296.014 253.752,294.485 254.575,292.925C255.153,291.882 256.389,291.551 257.41,292.131C262.09,279.481 264.647,265.802 264.647,251.53C264.647,222.237 253.874,195.44 236.078,174.891ZM104.771,289.696C106.401,289.696 107.724,290.993 107.724,292.591C107.724,294.189 106.401,295.487 104.771,295.487C103.142,295.487 101.819,294.189 101.819,292.591C101.819,290.993 103.142,289.696 104.771,289.696ZM201.084,259.593C204.077,262.167 208.243,263.07 213.582,262.303C213.959,263.394 214.497,264.313 215.196,265.061C215.895,265.809 216.621,266.365 217.375,266.729C218.129,267.093 219.022,267.312 220.056,267.385C220.702,267.431 221.317,267.453 221.9,267.451C221.503,268.177 221.14,268.942 220.813,269.743C219.975,271.796 219.629,274.006 219.774,276.373C219.92,278.74 220.752,280.736 222.27,282.36C222.599,282.712 222.926,283.042 223.252,283.348L207.168,286.808L192.081,274.603L195.463,270.338L204.64,271.016L199.844,262.898L201.084,259.593ZM180.406,265.78L186.67,268.633L189.904,280.014L180.406,265.78ZM148.319,266.869L155.231,262.661L156.053,255.31L162.348,260.104L169.905,257.927L167.407,266.456L171.7,272.926L163.171,272.515L158.23,277.839L155.642,270.249L148.319,266.869ZM227.835,266.396C226.348,267.831 225.338,269.412 224.804,271.138C224.267,272.874 224.538,274.319 225.617,275.472C226.216,276.113 226.856,276.479 227.536,276.568C228.217,276.657 228.938,276.47 229.7,276.007C230.462,275.545 231.206,274.989 231.933,274.342C232.66,273.694 233.457,272.826 234.323,271.738C235.19,270.65 235.992,269.617 236.731,268.637C237.469,267.658 238.327,266.512 239.305,265.199C240.283,263.886 241.14,262.788 241.875,261.903C236.528,263.738 232.196,265.132 228.878,266.084C228.556,266.185 228.209,266.289 227.835,266.396ZM197.939,255.419L193.67,256.605L186.464,250.871L185.817,259.87L179.434,263.221L187.279,243.035C187.593,243.268 187.897,243.462 188.191,243.617C189.005,244.045 190.229,244.298 191.863,244.375C193.497,244.452 195.621,244.144 198.234,243.451C198.954,243.26 199.732,243.037 200.568,242.781C198.59,245.503 197.47,248.113 197.208,250.61C197.032,252.298 197.275,253.901 197.939,255.419ZM147.614,232.049L144.82,230.696L143.791,255.398L134.762,261.428L125.41,247.222L131.822,229.929L118.175,232.842L124.468,224.782L141.879,226.077L146.467,227.666L147.614,232.049ZM119.086,254.046L112.822,253.753L109.175,257.664L107.263,252.074L101.883,249.603L106.941,246.486L107.559,241.076L112.205,244.605L117.764,242.987L115.939,249.28L119.086,254.046ZM202.561,255.657C202.648,255.859 202.768,256.041 202.918,256.202C204.436,257.826 207.476,257.982 212.038,256.67C212.141,256.092 212.452,255.491 212.971,254.867C213.879,253.774 215.043,253.078 216.462,252.778C217.881,252.477 218.993,252.66 219.799,253.325C223.096,251.446 225.804,249.232 227.923,246.683C230.518,243.561 231.156,241.295 229.838,239.884C228.799,238.773 226.792,238.396 223.817,238.752C220.842,239.108 217.54,240.244 213.91,242.16C210.28,244.075 207.298,246.438 204.962,249.248C203.795,250.653 203.012,252.003 202.615,253.298C202.52,253.609 202.453,253.901 202.415,254.175L203.199,253.957L202.561,255.657ZM38.529,208.386L38.529,208.385C46.182,189.096 58.815,172.312 74.84,159.624L81.208,162.053L82.972,168.258L82.767,183.904L71.943,191.05L83.883,196.05L87.855,208.372L95.118,198.786L105.411,199.608L105.236,202.256L89.267,212.696L94.647,215.812L90.854,216.784L83.56,210.814L82.619,220.018L76.913,224.022L77.134,221.508L70.233,225.491L68.898,240.692L63.397,243.868L64.721,228.667L57.821,232.651L56.497,247.851L48.358,252.545L49.015,240.1L38.561,246.893L38.561,237.506L51.06,228.753L51.06,220.776L38.561,229.529L38.561,223.177L51.06,214.425L51.06,206.458L38.561,215.2L38.561,208.304C38.551,208.331 38.54,208.358 38.529,208.386ZM90.405,246.962L78.534,241.424L86.103,237.056L86.354,237.871L92.03,230.813L99.088,231.635L98.528,241.254L95.617,243.135L90.405,246.962ZM31.575,236.388L31.57,236.425L33.114,237.506L33.114,246.893L30.492,245.189C30.547,244.811 30.933,241.108 31.57,236.425L31.517,236.388L31.575,236.388ZM30.492,245.189C30.489,245.211 30.487,245.222 30.486,245.221C30.485,245.221 30.485,245.209 30.486,245.186L30.492,245.189ZM75.799,236.709L84.451,231.707L83.649,229.107L76.755,225.819L75.799,236.709ZM107.263,220.52L109.706,230.254L99.941,222.37L99.795,222.489L98.97,227.401L96.177,223.46L98.765,217.284L107.263,220.52ZM93.177,226.989L90.149,226.843L88.383,228.724L87.472,226.019L84.855,224.843L87.324,223.314L87.618,220.725L89.853,222.401L92.53,221.638L91.648,224.666L93.177,226.989ZM207.977,217.972C205.979,215.835 201.459,215.373 194.414,216.584L193.022,217.306L194.22,218.589C196.763,220.523 199.461,221.59 202.313,221.791C205.165,221.991 207.045,221.545 207.953,220.453C208.688,219.568 208.696,218.741 207.977,217.972ZM158.259,212.57L154.143,213.725L146.085,206.255L144.673,217.872L140.526,219.961L132.969,208.843L137.748,195.347C137.823,195.349 137.898,195.35 137.974,195.35C139.217,195.353 140.368,195.33 141.426,195.283C142.484,195.235 143.882,194.937 145.621,194.389C147.359,193.841 148.794,193.386 149.926,193.023C151.057,192.661 152.717,192.003 154.904,191.051C157.092,190.099 158.733,189.372 159.828,188.872C160.922,188.373 162.712,187.535 165.198,186.361C167.683,185.186 169.432,184.354 170.443,183.863L180.81,194.953C173.759,198.714 173.439,198.718 169.596,201.39C165.754,204.061 162.492,207.01 159.811,210.236C159.184,210.989 158.667,211.768 158.259,212.57ZM126.44,216.108L120.145,215.812L116.498,219.726L114.586,214.137L109.206,211.666L114.292,208.549L114.911,203.138L119.557,206.668L125.116,205.05L123.264,211.343L126.44,216.108ZM88.56,187.874L89,183.875L92.441,186.462L96.559,185.286L95.206,189.934L97.529,193.464L92.883,193.227L90.207,196.138L88.794,191.992L84.796,190.168L88.56,187.874ZM174.994,137.619C173.869,137.523 172.754,137.494 171.65,137.532C167.108,137.685 162.829,138.612 158.813,140.311C154.797,142.011 151.513,144.395 148.962,147.465C145.978,151.055 144.378,155.069 144.162,159.507C143.945,163.944 144.995,167.402 147.312,169.881C150.069,172.829 153.497,174.016 157.599,173.439C161.7,172.863 164.788,171.326 166.864,168.829C167.859,167.632 168.193,166.368 167.866,165.035C167.693,164.063 167.39,163.838 166.957,164.358C165.66,165.919 163.585,166.918 160.731,167.355C157.878,167.791 155.652,167.155 154.054,165.446C152.776,164.078 152.294,162.456 152.608,160.581C152.922,158.705 153.9,156.778 155.543,154.801C157.749,152.147 160.6,149.988 164.097,148.323C167.594,146.658 171.181,145.655 174.86,145.315C178.539,144.975 182.192,145.369 185.82,146.497C189.447,147.626 192.46,149.473 194.856,152.037C196.295,153.575 197.65,155.099 198.924,156.609C200.197,158.119 201.091,159.222 201.605,159.92C202.12,160.618 202.939,161.765 204.065,163.362C205.19,164.959 205.831,165.891 205.988,166.156C197.392,165.512 186.389,167.945 172.98,173.455C166.339,176.18 160.755,178.29 156.228,179.787C151.701,181.284 148.086,182.184 145.382,182.486C142.679,182.788 140.629,182.758 139.233,182.394C137.836,182.031 136.659,181.337 135.7,180.311C135.421,180.012 135.269,179.604 135.246,179.088C135.222,178.571 135.17,178.27 135.091,178.185C134.931,178.014 134.598,178.051 134.092,178.296C133.587,178.541 133.074,178.976 132.555,179.601C131.258,181.162 130.518,183.368 130.336,186.22C130.158,189.007 130.792,191.207 132.236,192.821L120.587,195.844L110.588,186.345L115.852,180.434L124.939,180.934L120.41,173.642L122.704,164.23L113.647,166.671L107.087,160.464L106.706,162.818L100.942,154.083L104.546,142.494C117.847,137.247 132.331,134.365 147.482,134.365C156.955,134.365 166.168,135.492 174.994,137.619ZM105.177,177.786L107.648,178.611L108.822,185.317L106.618,183.551L105.794,195.139L100.999,188.844L105.177,177.786ZM210.991,172.394C202.931,171.832 191.456,174.742 176.567,181.126C176.314,181.248 176.103,181.366 175.933,181.48L186,192.249C187.564,191.367 189.738,190.203 192.523,188.759C195.181,187.377 198.374,185.828 202.1,184.114C205.827,182.399 208.755,180.986 210.886,179.875C213.018,178.764 214.577,177.705 215.565,176.697C214.713,176.179 213.748,175.343 212.669,174.189C212.11,173.591 211.551,172.992 210.991,172.394ZM93.736,180.111L87.148,174.111L94,165.053L106.353,165.935L106.001,170.64L99.236,174.612L103.528,177.081L93.736,180.111ZM116.763,176.111L113.733,175.994L111.971,177.875L111.058,175.169L108.441,173.965L110.91,172.464L111.206,169.876L113.441,171.553L116.118,170.788L115.234,173.817L116.763,176.111ZM188.705,141.834C192.462,143.845 195.905,146.524 199.034,149.871C200.871,151.837 203.086,154.575 205.678,158.085C208.27,161.595 210.861,164.833 213.451,167.801C216.396,168.887 218.887,170.521 220.925,172.7C221.378,173.185 221.737,173.76 222.001,174.424C222.074,173.947 222.418,173.533 222.913,173.395L232.324,170.758C220.257,158.087 205.383,148.112 188.705,141.834ZM86.315,151.601C87.191,151.063 88.074,150.537 88.964,150.023L90.412,151.113L94.853,149.819L93.383,154.877L95.913,158.7L90.883,158.466L87.972,161.583L86.442,157.113L82.119,155.113L86.206,152.613L86.315,151.601ZM190.851,122.537C185.076,120.594 179.124,119.027 173.029,117.866C172.302,116.555 171.546,115.16 170.789,113.763C170.701,113.586 170.612,113.44 170.553,113.292C167.788,108.204 165.966,102.528 164.525,96.881L190.551,120.732L191.082,121.733C191.082,121.733 190.915,122.01 190.851,122.537ZM125.937,117.167C119.656,118.168 113.518,119.599 107.556,121.429L107.294,120.646L108.941,118.086L136.673,96.205C134.644,102.265 132.145,108.264 128.586,113.469L128.557,113.469C128.498,113.586 128.438,113.675 128.35,113.763C128.321,113.851 128.232,113.969 128.115,114.117C127.649,114.758 126.867,115.917 125.937,117.167ZM146.613,68.032C147.878,66.854 149.555,66.237 151.29,66.297C152.996,66.355 154.643,67.091 155.79,68.384C156.966,69.619 157.614,71.295 157.525,73.001C157.466,74.736 156.701,76.354 155.465,77.532C154.172,78.706 152.526,79.325 150.79,79.265C149.084,79.207 147.438,78.471 146.29,77.178C145.114,75.943 144.467,74.265 144.527,72.561C144.615,70.795 145.38,69.208 146.613,68.032ZM218.52,31.741C229.578,28.212 233.813,36.799 228.96,47.444C215.961,58.68 199.552,65.119 182.376,65.678C188.728,49.532 201.992,37.064 218.52,31.741ZM75.208,41.739C71.121,30.771 76.001,22.536 86.736,26.888C102.823,33.417 115.117,46.798 120.293,63.355C103.205,61.562 87.296,53.915 75.208,41.739Z" style="fill:none;stroke:rgb(255,0,0);stroke-width:1px;"/>
    </g>
</svg>
