<?xml version="1.0" encoding="UTF-8" standalone="no"?>
<!DOCTYPE svg PUBLIC "-//W3C//DTD SVG 1.1//EN" "http://www.w3.org/Graphics/SVG/1.1/DTD/svg11.dtd">
<svg width="100%" height="100%" viewBox="0 0 1123 794" version="1.1" xmlns="http://www.w3.org/2000/svg" xmlns:xlink="http://www.w3.org/1999/xlink" xml:space="preserve" xmlns:serif="http://www.serif.com/" style="fill-rule:evenodd;clip-rule:evenodd;stroke-linejoin:round;stroke-miterlimit:2;">
    <path d="M144.768,40.265C146.525,40.302 148.11,40.912 149.422,41.91C150.863,43.057 151.891,44.704 152.273,46.587C152.802,46.587 182.859,16.178 188.975,12.177C194.836,8.337 202.831,5.966 211.003,5.93C211.404,5.929 211.807,5.932 212.21,5.942C221.975,6.413 230.502,10.413 234.032,19.412C239.942,32.998 232.913,47.381 232.854,60.821C232.825,76.702 247.707,93.348 235.179,108.435C229.972,113.729 222.856,118.846 215.857,121.903L215.797,121.903L214.909,122.185L213.44,122.66C235.271,137.575 252.544,158.68 262.718,183.428L263.146,184.482L263.635,185.717L264.183,187.147L264.715,188.58L264.956,189.247L265.465,190.694L265.958,192.147L266.475,193.735L266.941,195.223L267.39,196.719L267.822,198.222L268.318,200.033L268.765,201.757L269.14,203.283L269.499,204.816L269.84,206.356L270.097,207.582L270.267,208.418L270.567,209.973L270.849,211.533L271.113,213.1L271.309,214.338L271.419,215.073L271.66,216.779L271.864,218.366L272.05,219.958L272.182,221.204L272.257,221.958L272.366,223.158L272.397,223.517L272.519,225.075L272.624,226.63L272.71,228.177L272.746,228.945L272.807,230.524L272.85,232.102C272.861,232.627 272.87,233.152 272.875,233.676L272.882,235.204L272.88,235.812C272.877,236.27 272.873,236.727 272.866,237.183L272.845,238.277C272.836,238.637 272.827,238.997 272.816,239.357L272.77,240.666L272.707,242.056L272.66,242.916C272.616,243.693 272.566,244.469 272.509,245.242L272.378,246.891L272.235,248.448L272.115,249.632L271.964,250.996L271.773,252.558L271.607,253.813L271.429,255.064L271.176,256.717L270.983,257.897L270.743,259.275L270.405,261.091L270.108,262.584L269.863,263.752L269.428,265.714L269.074,267.212L268.795,268.344L268.42,269.801L268.042,271.21L267.725,272.344L267.361,273.601L266.892,275.16L266.363,276.838L265.822,278.487L265.452,279.56L265.025,280.738L264.863,281.178C264.752,281.514 264.639,281.848 264.5,282.186C263.205,285.714 261.764,289.155 260.177,292.537C259.764,293.448 259.353,294.331 258.911,295.213C258.206,296.654 257.441,298.096 256.707,299.508C256.647,299.565 256.619,299.654 256.588,299.713C255.177,302.329 253.677,304.919 252.09,307.419L251.385,308.513L250.98,309.103L250.316,310.136L249.767,310.943L249.354,311.546L249.354,311.565C249.088,312.005 248.794,312.416 248.472,312.829C247.32,314.5 246.13,316.138 244.904,317.745L244.816,317.86C243.221,319.948 241.565,321.984 239.854,323.976L239.073,324.871L238.079,325.991L237.478,326.655L236.874,327.314L236.265,327.97L235.652,328.622L235.034,329.27L234.413,329.913L233.787,330.553L233.157,331.188L232.523,331.819L231.885,332.446L231.243,333.069L230.597,333.688L229.946,334.303L229.292,334.913L228.634,335.519L227.305,336.718L225.961,337.9L224.601,339.064L223.226,340.21L221.835,341.339L220.43,342.45L219.251,343.358L218.294,344.082L217.12,344.95L216.125,345.672L214.957,346.501L213.924,347.22L212.763,348.011L211.691,348.725L210.538,349.478L209.428,350.187L208.283,350.903L207.134,351.605L205.999,352.284L204.81,352.979L203.686,353.621L202.128,354.488L200.557,355.336L199.718,355.777L198.921,356.19L198.122,356.597L197.319,356.999L196.514,357.396L195.706,357.788L194.894,358.175L194.08,358.556L193.263,358.932L192.443,359.303L191.621,359.668L190.795,360.029L189.967,360.383L189.136,360.733L188.303,361.077L187.466,361.416L186.627,361.749L185.472,362.197L184.208,362.674L183.508,362.932C175.658,365.798 167.471,367.962 159.021,369.348L157.605,369.572L156.197,369.781L154.318,370.035L152.436,370.263L150.549,370.465L148.516,370.653L146.646,370.8L144.654,370.927L142.787,371.02L140.923,371.087L139.53,371.121L138.144,371.142L136.819,371.148L135.472,371.141L135.01,371.136L133.308,371.103L132.116,371.068L131.571,371.048C131.011,371.027 130.452,371.002 129.893,370.974L128.91,370.921L128.07,370.87L126.787,370.783L125.344,370.67L124.595,370.605L123.757,370.528L122.78,370.431L121.461,370.29L119.917,370.108L119.147,370.01L118.622,369.94C61.059,362.253 14.891,318.582 3.474,262.277L3.239,261.09L2.955,259.579L2.689,258.062L2.439,256.54L2.206,255.012L1.989,253.478L1.79,251.939L1.609,250.395L1.444,248.846L1.295,247.267L1.199,246.139L1.071,244.412L1.03,243.782L0.93,242.013L0.887,241.098L0.867,240.61L0.814,239.101L0.782,237.765L0.762,236.427L0.756,235.069L0.761,233.92L0.78,232.504L0.814,231.055L0.874,229.343L0.941,227.924L1.04,226.215L1.16,224.51L1.339,222.399L1.503,220.733L1.754,218.52L1.965,216.867L2.116,215.769L2.36,214.126L2.623,212.491L2.832,211.276L3.004,210.32L3.25,209.022L3.391,208.305L3.7,206.805L3.847,206.115L4.228,204.413L4.525,203.156L4.699,202.441L5.07,200.971L5.248,200.286L5.705,198.602L6.047,197.393L6.255,196.679L6.685,195.245L7.142,193.78L7.652,192.213L8.179,190.657L8.724,189.112L9.286,187.576L9.865,186.051L10.462,184.535L11.076,183.028L11.589,181.809L12.228,180.334L12.884,178.867L13.557,177.41L14.247,175.963L14.953,174.524L15.675,173.096L16.414,171.677L17.169,170.268L17.681,169.334L18.2,168.404L18.727,167.479L19.26,166.559L19.8,165.643L20.347,164.732L20.901,163.825L21.462,162.923L21.995,162.081C24.011,158.918 26.155,155.843 28.418,152.865L29.105,151.969L30.119,150.673L31.137,149.404L32.163,148.156L33.2,146.924L34.249,145.708L35.309,144.506L36.64,143.037L37.833,141.756L39.206,140.322L40.549,138.958L41.845,137.678L43.198,136.376L44.743,134.932L46.31,133.513L47.5,132.464L48.702,131.429L49.916,130.407L51.142,129.4L52.38,128.406L53.63,127.427L54.892,126.462L56.165,125.511L57.449,124.575L58.745,123.654L60.052,122.747L61.369,121.855L62.698,120.978L64.037,120.117L64.936,119.551L65.84,118.992C65.398,118.817 65.044,118.669 64.75,118.492L64.722,118.492C55.281,115.374 48.341,108.758 41.958,101.287C30.577,85.318 46.666,69.791 47.751,53.967C48.723,40.557 42.782,25.706 49.694,12.56C53.84,3.853 62.664,0.531 72.427,0.768C81.014,1.208 89.338,4.267 95.161,8.707C107.57,18.236 119.159,31.999 128.776,45.146C128.776,44.116 130.394,42.292 132.157,41.293C133.276,40.617 134.598,40.263 136.01,40.263L144.597,40.263L144.768,40.265ZM233.106,301.981L233,302.134C230.483,303.681 227.993,305.253 225.474,306.802C223.721,307.892 224.466,310.555 226.475,310.623C225.699,311.543 224.907,312.453 224.102,313.349L223.767,313.36C222.62,313.389 221.681,314.328 221.65,315.475C221.645,315.641 221.659,315.803 221.69,315.957C200.328,338.368 170.192,352.34 136.819,352.34C129.603,352.34 122.539,351.687 115.679,350.436L134.186,327.506L164.772,329.681L159.508,320.888L165.184,312.093L175.802,312.975L170.243,303.566L173.565,295.625L181.093,299.3L186.535,320.035L200.475,303.418L218.297,304.448C218.326,304.8 218.445,305.153 218.65,305.447C219.327,306.417 220.62,306.683 221.621,306.066C224.267,304.448 226.915,302.799 229.591,301.155C230.762,301.438 231.935,301.697 233.106,301.981ZM107.895,341.033L113.364,348.678L110.159,337.003L107.895,341.033ZM104.571,345.769L100.63,345.592L99.878,346.393C99.065,346.123 98.255,345.844 97.449,345.556L97.102,344.532L93.718,342.975L96.925,341.004L97.306,337.591L100.219,339.797L103.749,338.798L102.571,342.768L104.571,345.769ZM85.131,273.303L79.354,270.4L80.178,272.648C80.193,272.692 80.209,272.736 80.222,272.78C81.181,275.96 79.411,279.432 76.27,280.531C74.342,281.206 72.35,280.866 70.84,279.792C71.014,281.638 70.315,283.537 68.77,284.872C67.596,285.888 66.126,286.394 64.662,286.394C62.977,286.394 61.301,285.725 60.085,284.426C60.052,284.392 60.022,284.357 59.993,284.321L57.193,280.956L57.193,288.369C57.193,291.684 54.444,294.418 50.997,294.418C47.547,294.418 44.798,291.684 44.798,288.369L44.798,280.956L41.998,284.321C41.969,284.357 41.939,284.392 41.906,284.426C39.633,286.853 35.746,287.057 33.221,284.874L33.221,284.872C31.676,283.537 30.977,281.638 31.152,279.792C30.457,280.285 29.66,280.624 28.814,280.779C39.992,307.142 60.547,328.582 86.29,340.908L91.19,337.739L92.396,325.651L101.189,333.062L108.66,330.739L105.749,320.828L76.779,308.771L84.691,302.624L82.543,295.744L74.367,291.949L81.926,286.273L82.749,277.684L87.308,281.333L85.131,273.303ZM117.923,310.182L108.954,306.066L117.395,300.861L118.423,291.83L126.187,297.713L135.451,295.037L132.392,305.535L137.657,313.475L127.187,312.975L121.099,319.533L117.923,310.182ZM158.478,319.476L151.155,307.801L156.126,310.066L158.478,319.476ZM156.891,305.007L159.832,303.212L160.184,300.067L162.889,302.125L166.096,301.183L165.036,304.83L166.861,307.595L163.243,307.419L161.125,309.711L160.007,306.448L156.891,305.007ZM169.832,294.508L163.95,296.566L155.684,289.92L154.539,300.772L148.686,303.77L158.714,273.038L151.862,274.421L157.803,267.421L179.124,269.362L177.948,279.302L160.979,290.508L169.832,294.508ZM223.767,299.771C222.62,300.476 221.444,301.212 220.268,301.948L218.827,299.713C219.267,299.448 219.709,299.183 220.151,298.889C221.356,299.183 222.561,299.477 223.767,299.771ZM91.073,297.625L88.014,301.654L94.543,297.832L91.073,297.625ZM242.195,286.09C241.265,286.399 240.421,286.66 239.661,286.873C237.705,287.421 236.131,287.638 234.944,287.562C233.628,287.478 232.645,287.23 231.981,286.88C231.327,286.536 230.64,285.996 229.934,285.241C228.838,284.069 228.31,282.606 228.389,280.838C228.419,280.175 228.532,279.534 228.731,278.915C225.834,279.25 223.698,278.57 222.299,277.073C220.894,275.57 220.337,273.756 220.654,271.625C220.754,270.954 220.934,270.278 221.195,269.6C219.98,269.852 218.951,269.955 218.11,269.918C217.362,269.886 216.711,269.806 216.156,269.687L210.092,286.304L214.679,293.332C214.886,293.39 215.092,293.448 215.297,293.478C215.003,293.008 214.709,292.537 214.444,292.068C213.827,291.067 214.15,289.772 215.209,289.213C216.208,288.655 217.503,289.009 218.12,289.979C219.121,291.624 220.12,293.244 221.091,294.862C222.326,295.154 223.533,295.448 224.738,295.744C223.798,294.214 222.885,292.712 221.975,291.213C221.356,290.183 221.681,288.89 222.737,288.331C223.738,287.802 225.032,288.125 225.65,289.124C227.268,291.772 228.915,294.449 230.531,297.123C231.737,297.39 232.973,297.682 234.178,297.978C232.591,295.39 231.002,292.802 229.414,290.214C228.325,288.419 230.296,286.304 232.178,287.303C234.692,288.656 237.18,290.008 239.692,291.362L239.958,290.875C239.985,290.668 240.975,288.619 242.195,286.09ZM202.504,293.509L195.447,293.184L191.358,297.567L189.212,291.301L183.182,288.507L188.858,285.008L189.565,278.948L194.77,282.891L201.006,281.098L198.946,288.154L202.504,293.509ZM92.631,293.39L89.278,293.213L87.308,295.331L86.279,292.331L83.396,291.007L86.132,289.332L86.455,286.419L88.926,288.302L91.926,287.449L90.927,290.83L92.631,293.39ZM95.661,275.126L103.66,275.774L102.836,292.331L98.924,294.566L95.807,289.772L98.543,281.596L89.338,283.271L95.661,275.126ZM247.109,274.958C243.113,277.061 240.415,278.547 239.015,279.417C237.595,280.3 236.532,281.082 235.842,281.785C236.383,281.778 237.143,281.742 237.894,281.62C239.886,281.295 242.358,280.6 245.313,279.543C246.279,277.449 246.95,275.868 246.825,275.733C246.921,275.475 247.016,275.216 247.109,274.958ZM98.806,255.804L106.454,245.776L120.717,247.071L112.218,252.716L135.51,262.245L139.303,278.155L128.657,280.979L104.542,260.512L103.66,269.596L100.984,266.009L104.69,255.07L98.806,255.804ZM33.617,275.518L35.978,260.906L44.798,256.088L45.284,265.759L33.617,275.518ZM68.374,275.516L56.423,266.816L57.193,256.088L66.785,261.932L68.374,275.516ZM228.175,273.156C228.174,273.107 228.176,272.999 228.189,272.924C228.258,272.54 228.49,272.154 228.835,271.738C229.883,270.478 231.414,269.248 233.412,268.028C235.426,266.798 237.425,265.949 239.412,265.491C240.284,265.29 241.021,265.214 241.627,265.295C242.017,265.347 242.335,265.461 242.554,265.695C242.616,265.761 242.618,265.855 242.616,265.959C242.613,266.166 242.56,266.395 242.474,266.652C242.204,267.461 241.643,268.289 240.827,269.157L240.826,269.158C239.239,269.99 237.901,270.739 236.811,271.403C233.672,272.642 231.275,273.321 229.609,273.391C228.954,273.419 228.459,273.414 228.175,273.156ZM212.239,266.978C211.581,265.972 211.285,264.78 211.376,263.395C211.482,261.773 212.096,260.268 213.242,258.889C214.267,257.656 215.767,256.402 217.76,255.145C219.18,254.25 221.32,253.122 224.191,251.761C222.638,252.402 218.538,254.212 218.235,254.32C215.452,255.396 213.189,256.182 211.447,256.68C209.562,257.219 208.026,257.452 206.844,257.412C205.509,257.366 204.513,257.129 203.84,256.775C203.195,256.435 202.465,255.855 201.673,255.008C200.601,253.86 200.111,252.34 200.304,250.418C200.371,249.742 200.512,249.093 200.726,248.471C197.608,248.899 195.333,248.225 193.879,246.669C192.473,245.165 191.917,243.352 192.234,241.221C192.349,240.447 192.569,239.669 192.899,238.887C192.579,238.937 192.271,238.976 191.975,239.005L189.181,246.452L193.977,254.57L184.8,253.892L181.418,258.158L196.505,270.363L212.239,266.978ZM95.955,263.598C95.955,263.598 93.726,264.232 93.726,264.232C94.485,265.959 94.443,268.037 93.413,269.845L96.72,269.979C96.72,269.979 94.896,267.246 94.896,267.246L95.955,263.598ZM143.061,117.993C143.625,118.71 144.22,119.494 144.848,120.344C146.482,122.556 148.115,124.605 149.746,126.49C151.773,127.289 153.497,128.452 154.921,129.976C155.84,130.959 156.36,132.357 156.367,134.208C156.373,135.964 155.777,137.585 154.552,139.059C153.758,140.013 152.377,141.081 150.377,142.222C148.529,143.276 146.379,144.373 143.925,145.511C141.563,146.606 140.243,147.227 139.967,147.381C139.959,147.386 139.951,147.39 139.942,147.395C133.023,151.069 127.872,154.032 124.486,156.293C123.86,156.806 123.336,157.273 122.918,157.694C122.395,158.219 122.01,158.695 121.784,159.138C121.738,159.227 121.697,159.312 121.666,159.393C122.932,159.293 124.721,158.7 127.045,157.666C127.7,157.232 128.419,156.791 129.202,156.342C131.9,154.794 139.943,150.545 153.313,143.604C153.73,143.372 154.121,143.308 154.468,143.34C154.897,143.378 155.296,143.556 155.638,143.922C155.638,143.922 158.836,147.344 158.836,147.344C159.221,147.756 159.407,148.297 159.183,149.006C158.997,149.591 158.654,149.905 158.321,150.072C144.639,157.164 136.412,161.485 133.64,163.036C131.104,164.455 129.369,165.665 128.47,166.717C128.553,166.741 128.646,166.757 128.745,166.773C129.236,166.85 129.848,166.819 130.58,166.705C131.907,166.498 133.726,166.003 136.038,165.23C137.239,164.299 138.597,163.501 140.112,162.841C142.848,161.649 145.612,161.166 148.403,161.383C151.351,161.611 153.681,162.681 155.418,164.539C156.782,165.998 157.539,167.499 157.749,169.011C157.975,170.636 157.502,172.216 156.248,173.724C154.71,175.575 152.667,176.583 150.107,176.719C147.729,176.846 145.507,176.45 143.44,175.537C141.854,174.837 140.483,174.016 139.325,173.08C139.092,173.312 138.873,173.552 138.667,173.8C137.987,174.617 137.542,175.417 137.368,176.217C137.255,176.738 137.365,177.191 137.718,177.568C138.116,177.994 138.621,178.377 139.227,178.727C139.884,179.106 140.762,179.446 141.855,179.762C142.941,180.076 144.3,180.138 145.931,179.984C147.1,179.873 148.327,179.632 149.613,179.262C151.746,178.388 153.847,177.555 155.914,176.763C158.068,175.936 159.651,175.34 160.664,174.974L162.274,174.413C162.31,174.4 162.348,174.389 162.386,174.379C162.785,174.278 163.269,174.288 163.83,174.501C164.311,174.683 164.907,175.049 165.595,175.635C166.71,176.584 167.378,177.522 167.669,178.389C167.918,179.029 167.898,179.875 167.358,180.892C167.043,181.486 166.337,182.691 165.238,184.504C167.643,184.145 169.668,183.897 171.313,183.76C171.378,183.755 171.443,183.754 171.508,183.758C172.86,183.845 173.671,184.484 174.052,185.51C174.335,186.272 174.395,187.138 174.186,188.11C174.002,188.972 173.682,189.491 173.41,189.746C173.082,190.054 172.721,190.186 172.36,190.198C169.357,190.474 165.537,190.943 160.901,191.602C159.887,193.353 159.159,194.747 158.719,195.785C158.336,196.69 158.096,197.311 158.115,197.685C158.123,197.853 158.194,197.998 158.313,198.126C158.379,198.196 158.499,198.189 158.637,198.21C158.887,198.248 159.18,198.253 159.517,198.232C161.083,198.134 163.394,197.51 166.457,196.399C166.564,196.331 166.672,196.264 166.781,196.198C168.659,195.058 170.608,194.184 172.627,193.577C174.739,192.941 176.85,192.794 178.958,193.132C181.184,193.489 182.988,194.427 184.385,195.922C185.74,197.371 186.347,198.943 186.208,200.636C186.437,200.742 186.653,200.905 186.858,201.124C186.858,201.124 190.056,204.545 190.056,204.545C190.443,204.96 190.603,205.471 190.447,206.099C190.333,206.559 190.078,206.926 189.676,207.194C189.635,207.222 189.593,207.247 189.549,207.269C183.404,210.456 179.426,212.609 177.617,213.733C176.197,214.616 175.134,215.398 174.444,216.101C174.985,216.094 175.745,216.058 176.496,215.936C178.507,215.608 181.009,214.903 184.003,213.828L193.826,208.727C193.837,208.721 193.848,208.716 193.859,208.71C194.71,208.298 195.447,208.443 196.074,209.115C196.074,209.115 199.272,212.536 199.272,212.536C199.655,212.946 199.816,213.45 199.669,214.068C200.674,214.419 201.398,214.802 201.859,215.175C202.274,215.51 202.762,215.974 203.319,216.571C204.481,217.813 205.031,219.238 204.993,220.837C204.956,222.397 204.447,223.762 203.473,224.934C202.601,225.983 201.505,226.902 200.179,227.685C200.156,227.698 200.134,227.71 200.111,227.722C196.536,229.559 194.027,230.893 192.586,231.726C191.46,232.377 190.661,232.908 190.218,233.357C190.299,233.372 190.382,233.385 190.46,233.391C191.136,233.447 192.029,233.395 193.141,233.25C195.073,232.997 197.105,232.513 199.238,231.803C199.408,231.693 199.582,231.585 199.759,231.478C201.636,230.337 203.585,229.464 205.605,228.856C207.717,228.22 209.827,228.074 211.935,228.412C214.161,228.768 215.966,229.706 217.363,231.201C218.543,232.464 219.153,233.819 219.191,235.266C222.125,233.738 226.586,231.43 232.576,228.341C232.586,228.336 232.595,228.331 232.605,228.326C233.456,227.914 234.193,228.059 234.82,228.731C234.82,228.731 237.978,232.109 237.978,232.109C238.366,232.524 238.526,233.035 238.37,233.663C238.223,234.255 237.887,234.596 237.505,234.786C223.824,241.877 215.598,246.198 212.826,247.749C210.272,249.179 208.529,250.397 207.636,251.454C207.731,251.485 207.84,251.505 207.959,251.523C208.446,251.597 209.05,251.561 209.774,251.442C210.964,251.245 214.989,249.871 215.272,249.801C220.343,247.828 224.409,246.023 227.466,244.381C227.543,243.424 227.843,242.683 228.294,242.141C229.189,241.064 230.153,240.519 231.113,240.389C232.256,240.235 233.205,240.575 233.966,241.389C234.611,242.08 234.927,242.942 234.868,243.99C234.816,244.908 234.465,245.793 233.772,246.627L233.707,246.702C233.915,247.695 234.056,248.462 234.134,249.002C234.216,249.572 234.286,250.3 234.342,251.187C234.407,252.212 234.314,253.1 234.087,253.852C233.845,254.652 233.477,255.341 232.992,255.924C232.51,256.505 231.843,257.018 230.974,257.439C230.965,257.444 230.956,257.448 230.946,257.452C224.309,260.483 220.207,262.705 218.705,264.235L218.752,264.236C219.521,264.238 220.8,264.014 222.595,263.595C224.192,263.222 225.992,262.688 227.993,261.996C228.054,261.958 228.117,261.92 228.179,261.882C230.057,260.742 232.006,259.868 234.025,259.261C236.137,258.625 238.247,258.478 240.356,258.816C242.582,259.173 244.386,260.111 245.783,261.606C247.138,263.055 247.745,264.627 247.606,266.32C247.835,266.426 248.051,266.589 248.256,266.808L249.38,268.011C252.436,257.565 254.074,246.515 254.074,235.085C254.074,172.467 204.883,121.247 143.061,117.993ZM169.743,249.334L176.007,252.188L179.241,263.569L169.743,249.334ZM137.657,250.424L144.568,246.216L145.391,238.864L151.685,243.658L159.242,241.481L156.745,250.011L161.037,256.48L152.508,256.069L147.568,261.394L144.979,253.804L137.657,250.424ZM93.065,254.373C92.686,254.936 92.218,255.437 91.68,255.854L93.838,257.628C93.838,257.628 93.065,254.373 93.065,254.373ZM177.771,247.63L179.977,246.275L180.242,243.924L182.271,245.453L184.683,244.775L183.889,247.511L185.242,249.569L182.534,249.452L180.947,251.158L180.094,248.718L177.771,247.63ZM19.892,243.913L30.396,239.854L39.892,245.33L30.696,251.158L20.154,246.913C20.055,245.921 19.967,244.919 19.892,243.913ZM85.767,245.33L71.954,250.362L62.099,245.33L72.204,240.111L85.767,245.33ZM188.158,238.728C187.385,238.534 186.763,238.293 186.288,238.021C185.592,237.62 184.881,237.043 184.165,236.278C183.073,235.109 182.585,233.737 182.694,232.164C182.795,230.724 183.408,229.277 184.594,227.849C185.422,226.853 186.314,226.017 187.268,225.338C188.159,224.703 189.904,223.715 192.521,222.38C194.715,221.159 196.283,220.123 197.21,219.249C197.393,219.077 197.568,218.857 197.692,218.689C197.628,218.667 197.559,218.648 197.487,218.628C197.031,218.504 196.458,218.446 195.77,218.437C194.275,218.418 192.491,218.794 190.412,219.532L176.94,226.531C176.929,226.536 176.918,226.542 176.907,226.547C176.796,226.601 176.687,226.646 176.581,226.681L168.771,246.775L175.154,243.424L175.802,234.426L183.007,240.159L188.158,238.728ZM90.909,245.299L90.892,245.226C90.821,245.263 90.748,245.297 90.675,245.33C90.767,245.374 90.859,245.418 90.949,245.466L90.909,245.299ZM136.951,215.603L134.158,214.25L133.128,238.953L124.099,244.982L114.747,230.777L121.159,213.484L107.513,216.397L113.805,208.336L131.216,209.631L135.804,211.22L136.951,215.603ZM199.754,242.75C199.754,242.701 199.755,242.594 199.769,242.52C199.837,242.135 200.07,241.749 200.415,241.334C201.462,240.073 202.993,238.843 204.991,237.623C207.005,236.394 209.004,235.545 210.992,235.086C211.863,234.885 212.601,234.809 213.207,234.89C213.597,234.943 213.915,235.056 214.134,235.29C214.207,235.369 214.216,235.477 214.214,235.6C214.209,235.816 214.151,236.056 214.057,236.324C213.759,237.171 213.145,238.039 212.249,238.952L212.247,238.953C211.016,239.592 209.969,240.17 209.104,240.685C206.502,241.746 204.267,242.454 202.401,242.797C201.583,242.948 200.903,243.002 200.361,242.935C200.106,242.903 199.894,242.867 199.754,242.75ZM108.423,237.6L102.159,237.308L98.513,241.218L96.601,235.629L91.221,233.158L96.278,230.041L96.897,224.63L101.543,228.16L107.101,226.542L105.276,232.835L108.423,237.6ZM33.617,215.144L45.803,224.221L44.798,234.574L35.216,230.049L33.617,215.144ZM68.374,215.144L65.894,229.603L57.193,234.572L57.247,224.607L68.374,215.144ZM151.608,202.222L150.596,205.25L155.861,214.22L145.892,213.72L140.422,219.337L153.743,230.337L173.929,225.327L171.534,222.764C171.191,222.398 171.026,221.955 171.101,221.423C170.911,221.354 170.738,221.278 170.583,221.196C169.929,220.852 169.242,220.312 168.536,219.557C167.44,218.385 166.912,216.922 166.991,215.154C167.021,214.491 167.135,213.85 167.333,213.231C164.436,213.566 162.3,212.886 160.901,211.389C159.496,209.886 158.939,208.072 159.256,205.941C159.353,205.29 159.525,204.636 159.773,203.979C158.601,204.225 157.618,204.335 156.825,204.321C155.529,204.298 154.536,204.124 153.84,203.846C153.068,203.539 152.402,203.084 151.841,202.484C151.76,202.397 151.683,202.31 151.608,202.222ZM64.079,143.141L70.546,145.608L72.309,151.812L72.104,167.459L61.28,174.605L73.22,179.604L77.192,191.927L84.455,182.341L94.748,183.163L94.574,185.811L78.604,196.25L83.984,199.367L80.191,200.339L72.897,194.369L71.956,203.573L68.783,205.8L68.77,205.788C66.245,203.605 62.358,203.809 60.085,206.234C60.052,206.269 60.022,206.305 59.993,206.34L57.193,209.706L57.193,202.293C57.193,198.979 54.444,196.242 50.997,196.242C47.547,196.242 44.798,198.979 44.798,202.293L44.798,209.706L41.998,206.34C41.969,206.305 41.939,206.269 41.906,206.234C39.633,203.809 35.746,203.605 33.221,205.788C31.676,207.124 30.977,209.024 31.152,210.871C29.641,209.796 27.649,209.456 25.722,210.131C22.578,211.23 20.81,214.7 21.769,217.88C21.783,217.926 21.796,217.97 21.813,218.015L23.325,222.142L20.466,220.486C24.353,189.233 40.563,161.778 64.079,143.141ZM81.367,214.368L80.453,215.505C80.529,216.287 80.46,217.092 80.222,217.88C80.209,217.926 80.195,217.97 80.178,218.015L78.666,222.142L85.066,218.437C86.073,217.855 87.185,217.602 88.282,217.649L88.425,215.19L81.367,214.368ZM85.514,207.014L88.102,200.839L96.601,204.074L99.043,213.808L89.278,205.925L89.132,206.044L88.308,210.955L85.514,207.014ZM82.514,210.544L80.985,208.221L81.867,205.193L79.19,205.955L76.956,204.28L76.662,206.868L74.192,208.398L76.81,209.574L77.123,210.504C77.62,210.767 78.073,211.095 78.475,211.475L79.486,210.398L82.514,210.544ZM146.862,208.692L143.215,208.544L141.127,210.807L140.01,207.573L136.892,206.132L139.834,204.309L140.185,201.192L142.862,203.219L146.098,202.31L145.039,205.955L146.862,208.692ZM166.777,207.472C166.776,207.423 166.778,207.315 166.791,207.24C166.86,206.856 167.092,206.469 167.437,206.054C168.485,204.794 170.016,203.564 172.014,202.344C174.028,201.114 176.027,200.265 178.014,199.807C178.886,199.606 179.623,199.53 180.229,199.611C180.619,199.663 180.937,199.777 181.156,200.011C181.218,200.077 181.22,200.171 181.218,200.275C181.215,200.482 181.162,200.711 181.076,200.968C180.806,201.777 180.245,202.605 179.429,203.473L179.428,203.474C177.841,204.306 176.503,205.055 175.413,205.719C172.274,206.958 169.878,207.637 168.211,207.707C167.556,207.735 167.061,207.73 166.777,207.472ZM150.858,195.209C151.096,194.523 151.404,193.767 151.781,192.941C147.309,193.65 144.834,194.03 144.356,194.083C143.716,194.155 143.259,193.952 142.938,193.661C142.682,193.43 142.484,193.114 142.406,192.682C142.337,192.303 142.379,191.707 142.671,190.919C143.217,189.385 144.064,188.664 144.875,188.471C144.875,188.471 144.876,188.471 144.877,188.471C148.054,187.724 151.57,186.982 155.428,186.246C155.575,186.005 155.722,185.778 155.868,185.563C156.579,184.37 157.434,182.98 158.433,181.394C155.942,182.316 153.242,183.317 150.336,184.396C150.107,184.486 149.898,184.524 149.715,184.527C148.301,184.962 146.964,185.286 145.703,185.5C143.661,185.847 141.997,185.955 140.712,185.845C139.366,185.731 138.082,185.405 136.859,184.87C135.628,184.332 134.73,183.815 134.153,183.346C133.602,182.898 132.995,182.322 132.334,181.615C130.462,179.613 129.732,177.311 130.118,174.719C130.236,173.924 130.436,173.137 130.719,172.357C129.521,172.617 128.5,172.727 127.658,172.698C126.324,172.652 125.327,172.415 124.654,172.061C124.009,171.722 123.279,171.141 122.487,170.294C121.668,169.417 121.189,168.323 121.095,166.997C120.064,166.829 119.087,166.475 118.164,165.935C117.161,165.35 116.421,164.65 115.925,163.85C115.689,164.173 115.515,164.468 115.41,164.74C115.349,164.898 115.293,165.102 115.271,165.186C115.314,165.393 115.352,165.607 115.383,165.828C115.474,166.459 115.314,167.008 114.923,167.479C114.363,168.153 113.265,168.586 111.532,168.271C110.177,168.024 109.009,167.382 108.031,166.336C107.425,165.688 107.009,164.936 106.797,164.077L105.19,163.989L99.925,169.899L109.924,179.399L128.628,174.545L122.306,192.398L129.863,203.515L134.01,201.427L135.422,189.809L143.481,197.28L150.858,195.209ZM103.629,192.104L104.248,186.693L108.894,190.222L114.453,188.605L112.601,194.897L115.777,199.663L109.482,199.367L105.835,203.281L103.923,197.691L98.543,195.22L103.629,192.104ZM77.897,171.429L78.337,167.43L81.778,170.016L85.896,168.84L84.543,173.488L86.866,177.018L82.22,176.782L79.544,179.693L78.132,175.546L74.133,173.723L77.897,171.429ZM94.514,161.341L96.985,162.165L98.159,168.871L95.955,167.105L95.131,178.694L90.337,172.399L94.514,161.341ZM151.846,168.452C151.801,168.497 151.75,168.541 151.696,168.587C151.318,168.908 150.767,169.188 150.057,169.458C150.052,169.46 150.046,169.462 150.04,169.464C148.172,170.203 146.274,170.266 144.342,169.676C145.723,169.042 147.118,168.598 148.529,168.347C149.538,168.167 150.386,168.115 151.073,168.22C151.373,168.266 151.633,168.336 151.846,168.452ZM83.074,163.666L76.485,157.665L83.337,148.607L95.69,149.489L95.338,154.195L88.573,158.167L92.865,160.636L83.074,163.666ZM106.1,159.665L103.07,159.548L101.308,161.429L100.396,158.724L97.779,157.519L100.248,156.018L100.544,153.43L102.778,155.108L105.455,154.343L104.571,157.371L106.1,159.665ZM110.122,155.659C111.688,154.018 113.489,152.488 115.525,151.073C117.836,149.467 121.004,147.567 125.031,145.377C125.031,145.377 119.966,139.959 119.966,139.959C119.301,140.277 118.426,140.692 117.342,141.204C115.676,141.991 114.477,142.552 113.743,142.887C113.008,143.223 111.906,143.71 110.437,144.35C108.923,145.009 107.774,145.462 106.991,145.713C106.235,145.955 105.276,146.26 104.113,146.626C102.813,147.036 101.765,147.247 100.974,147.282C100.633,147.298 100.278,147.309 99.91,147.317L102.984,150.225L112.042,147.785L110.122,155.659ZM75.665,135.043C76.512,134.523 77.364,134.016 78.223,133.519L79.749,134.667L84.19,133.374L82.72,138.431L85.251,142.255L80.22,142.02L77.309,145.137L75.78,140.668L71.456,138.668L75.543,136.168L75.665,135.043ZM126.174,137.187C134.915,133.543 141.751,131.784 146.711,131.984L147.465,132.79C147.73,133.073 147.987,133.33 148.234,133.562C147.78,133.863 147.245,134.171 146.634,134.49C145.226,135.224 143.292,136.156 140.832,137.288C138.323,138.443 136.174,139.485 134.385,140.416C133.004,141.132 131.847,141.745 130.912,142.256L126.174,137.187ZM135.416,117.838C126.909,117.937 118.618,118.945 110.633,120.77C110.133,121.534 109.812,122.281 109.688,123.021C109.552,123.836 109.757,124.542 110.312,125.136C111.093,125.971 112.197,126.215 113.591,126.002C115.104,125.77 116.232,125.297 116.92,124.469C117.492,123.781 118.118,123.744 118.553,123.845C118.952,123.938 119.636,124.335 119.856,125.491C120.159,126.774 119.868,128.002 118.909,129.156C117.332,131.054 115.005,132.262 111.888,132.699C108.689,133.149 106.017,132.216 103.867,129.916C102.326,128.267 101.477,126.065 101.394,123.285C98.863,124.087 96.37,124.973 93.918,125.938L90.279,137.638L92.164,140.493C92.164,140.274 92.171,140.05 92.186,139.82C92.329,137.581 92.952,135.863 93.971,134.637C94.462,134.046 94.961,133.651 95.44,133.419C96.564,132.874 97.307,133.254 97.662,133.634C97.795,133.776 98.084,134.227 98.123,135.086L98.126,135.112C98.581,135.578 99.135,135.893 99.787,136.063C100.608,136.276 101.814,136.267 103.405,136.089C105.142,135.895 107.462,135.309 110.37,134.348C113.366,133.357 117.062,131.959 121.457,130.156C129.306,126.931 135.958,125.27 141.402,125.131C140.765,124.228 140.293,123.568 139.986,123.152C139.653,122.701 139.074,121.988 138.251,121.011C137.415,120.021 136.526,119.021 135.583,118.012C135.528,117.953 135.472,117.895 135.416,117.838ZM153.862,80.436L179.889,104.287L180.419,105.288L180.29,105.606L180.195,106.039L180.189,106.092C174.413,104.148 168.461,102.581 162.366,101.421L161.821,100.432L161.261,99.409L160.126,97.318C160.038,97.141 159.95,96.995 159.89,96.847C157.125,91.759 155.303,86.083 153.862,80.436ZM126.011,79.759C123.982,85.819 121.482,91.818 117.923,97.024L117.894,97.024C117.835,97.141 117.775,97.229 117.687,97.318C117.658,97.406 117.57,97.523 117.452,97.671L117.042,98.249L116.246,99.381L115.61,100.266L115.274,100.721C108.993,101.722 102.856,103.153 96.893,104.984L96.631,104.2L98.278,101.641L126.011,79.759ZM140.465,49.848L140.627,49.852C142.334,49.909 143.98,50.645 145.127,51.938C146.303,53.174 146.951,54.849 146.862,56.556C146.803,58.291 146.038,59.908 144.803,61.086C143.509,62.26 141.863,62.879 140.128,62.819C138.421,62.762 136.775,62.026 135.628,60.733C134.452,59.497 133.804,57.82 133.864,56.115C133.952,54.35 134.717,52.763 135.95,51.587C137.096,50.519 138.581,49.913 140.141,49.852L140.465,49.848ZM212.533,14.49L212.739,14.493C220.061,14.64 222.354,22.1 218.297,30.998C205.399,42.147 189.145,48.573 172.115,49.219L171.713,49.233C178.065,33.087 191.329,20.618 207.857,15.296C209.586,14.744 211.148,14.488 212.533,14.49ZM70.673,9.257C72.254,9.253 74.061,9.626 76.074,10.442C92.16,16.971 104.454,30.352 109.63,46.91C92.543,45.117 76.633,37.47 64.545,25.293C61.224,16.382 63.823,9.274 70.673,9.257Z" style="fill:none;stroke:rgb(255,0,0);stroke-width:1px;"/>
</svg>
