<?xml version="1.0" encoding="UTF-8" standalone="no"?>
<!DOCTYPE svg PUBLIC "-//W3C//DTD SVG 1.1//EN" "http://www.w3.org/Graphics/SVG/1.1/DTD/svg11.dtd">
<svg width="100%" height="100%" viewBox="0 0 1123 794" version="1.1" xmlns="http://www.w3.org/2000/svg" xmlns:xlink="http://www.w3.org/1999/xlink" xml:space="preserve" xmlns:serif="http://www.serif.com/" style="fill-rule:evenodd;clip-rule:evenodd;stroke-linejoin:round;stroke-miterlimit:2;">
    <path d="M0.763,233.654C1.257,185.132 27.188,142.701 65.84,118.992C65.398,118.817 65.044,118.669 64.75,118.492L64.722,118.492C55.281,115.374 48.341,108.758 41.958,101.287C30.577,85.318 46.666,69.791 47.751,53.967C48.723,40.557 42.782,25.706 49.694,12.56C53.84,3.853 62.664,0.531 72.427,0.768C81.014,1.208 89.338,4.267 95.161,8.707C107.57,18.236 119.159,31.999 128.776,45.146C128.776,44.116 130.394,42.292 132.157,41.293C133.276,40.617 134.598,40.263 136.01,40.263L144.597,40.263C146.422,40.263 148.067,40.88 149.422,41.91C150.863,43.057 151.891,44.704 152.273,46.587C152.802,46.587 182.859,16.178 188.975,12.177C195.124,8.148 203.623,5.737 212.21,5.942C221.975,6.413 230.502,10.413 234.032,19.412C239.942,32.998 232.913,47.381 232.854,60.821C232.825,76.702 247.707,93.348 235.179,108.435C229.972,113.729 222.856,118.846 215.857,121.903L215.797,121.903C215.417,122.021 214.603,122.283 213.44,122.66C235.706,137.872 253.229,159.522 263.318,184.913L263.635,185.717C269.445,200.605 272.705,216.771 272.875,233.676L272.882,235.085L272.88,235.812L272.866,237.183L272.848,238.157L272.816,239.357L272.777,240.461C272.271,253.525 269.932,266.101 265.999,277.951C265.659,278.997 265.294,280.017 264.925,281.008L264.5,282.186C263.205,285.714 261.764,289.155 260.177,292.537C259.764,293.448 259.353,294.331 258.911,295.213C258.206,296.654 257.441,298.096 256.707,299.508C256.647,299.565 256.619,299.654 256.588,299.713C255.177,302.329 253.677,304.919 252.09,307.419C251.717,307.987 251.375,308.559 250.98,309.103L250.882,309.252C250.472,309.92 250.043,310.551 249.594,311.192L249.354,311.546L249.354,311.565C249.088,312.005 248.794,312.416 248.472,312.829C245.795,316.713 242.913,320.415 239.854,323.976C215.151,352.578 178.758,370.759 138.144,371.142L136.819,371.148C133.222,371.148 129.657,371.008 126.124,370.733C59.482,365.554 6.326,312.384 1.167,245.731C0.895,242.217 0.756,238.667 0.756,235.085L0.763,233.654ZM28.751,280.397C40.488,308.332 62.752,330.776 90.57,342.754C86.43,339.961 82.52,336.774 78.888,333.213C75.47,329.86 75.47,324.406 78.888,321.053C82.307,317.7 87.87,317.7 91.289,321.053C93.511,323.232 95.866,325.23 98.335,327.046C102.763,312.408 102.398,299.836 101.771,293.577L92.474,300.653C89.142,303.191 84.772,303.273 81.343,300.862C77.913,298.45 76.589,294.365 77.972,290.454L85.343,269.604L86.265,255.979C86.324,255.115 86.821,254.338 87.589,253.91C88.356,253.482 89.292,253.461 90.078,253.854C90.199,253.915 91.551,254.595 93.379,255.698L90.219,242.394L72.795,235.617L73.743,234.921L60.959,228.962L55.458,232.149L69.292,238.586L62.38,242.58L48.557,236.132L40.419,240.826L51.529,246.478L40.419,252.14L48.557,256.834L62.38,250.385L69.292,254.369L55.458,260.817L60.959,263.993L74.793,257.544L81.694,261.528L67.871,267.976L78.895,274.349C80.197,275.092 80.639,276.761 79.885,278.064C79.131,279.377 77.474,279.818 76.16,279.065L65.136,272.702L66.471,287.903L59.571,283.92L58.236,268.719L52.734,265.532L54.059,280.733L47.158,276.75L45.834,261.549L37.695,256.856L38.352,269.3L27.898,262.507L27.898,271.906L40.397,280.658L40.397,288.624L28.794,280.5L28.751,280.397ZM233.012,301.959C231.873,301.683 230.731,301.431 229.591,301.155C226.915,302.799 224.267,304.448 221.621,306.066C220.62,306.683 219.327,306.417 218.65,305.447C218.445,305.153 218.326,304.8 218.297,304.448L200.475,303.418L187.72,318.623C190.354,318.261 193.125,319.071 195.146,321.053C196.802,322.677 197.715,324.836 197.714,327.133C197.714,329.43 196.802,331.589 195.146,333.213C191.721,336.571 188.049,339.597 184.169,342.273C198.375,335.983 211.1,326.95 221.671,315.847C221.653,315.726 221.646,315.602 221.65,315.475C221.681,314.328 222.62,313.389 223.767,313.36L223.978,313.353C224.787,312.453 225.583,311.54 226.362,310.616C224.439,310.455 223.754,307.872 225.474,306.802C227.928,305.293 230.355,303.762 232.807,302.252L233.012,301.959ZM152.231,328.2C153.857,330.702 156.365,333.727 158.432,336.092C151.639,338.426 144.423,339.645 137.018,339.645C130.424,339.645 123.98,338.678 117.851,336.819L122.432,328.338C127.245,329.627 139.269,332.015 152.231,328.2ZM177.773,297.679C179.293,301.583 178.384,304.766 175.569,303.113C175.843,310.356 177.192,319.266 178.76,324.648C180.13,323.509 181.461,322.312 182.746,321.053C183.762,320.056 184.968,319.356 186.251,318.952L181.093,299.3L177.773,297.679ZM223.767,299.771C222.62,300.476 221.444,301.212 220.268,301.948L218.827,299.713C219.267,299.448 219.709,299.183 220.151,298.889C221.356,299.183 222.561,299.477 223.767,299.771ZM230.723,275.576C228.748,275.641 227.208,275.48 226.101,275.114C224.906,274.72 223.856,274.093 222.953,273.236C220.882,271.273 219.916,268.836 220.06,265.924C220.189,263.322 221.331,259.533 223.514,254.566C213.331,256.821 207.75,258.033 206.772,258.203C206.234,258.296 205.831,258.18 205.544,257.951C205.275,257.735 205.079,257.395 205.03,256.896C204.982,256.417 205.077,255.733 205.346,254.849C205.945,252.772 206.863,251.638 207.921,251.319C207.922,251.319 207.922,251.319 207.922,251.319C213.851,249.541 220.449,247.734 227.715,245.896C228.075,245.189 228.437,244.532 228.799,243.926C230.532,240.572 232.799,236.388 235.601,231.376C229.854,233.905 223.39,236.755 216.208,239.926C215.951,240.043 215.726,240.076 215.538,240.057C212.955,241.042 210.507,241.802 208.193,242.34C204.67,243.158 201.781,243.535 199.529,243.479C197.246,243.422 195.046,243.004 192.929,242.226C192.244,241.974 191.617,241.725 191.048,241.477L189.181,246.452L193.977,254.57L184.8,253.892L181.418,258.158L196.505,270.363L217.563,265.832L210.092,286.304L214.679,293.332C214.886,293.39 215.092,293.448 215.297,293.478C215.003,293.008 214.709,292.537 214.444,292.068C213.827,291.067 214.15,289.772 215.209,289.213C216.208,288.655 217.503,289.009 218.12,289.979C219.121,291.624 220.12,293.244 221.091,294.862C222.326,295.154 223.533,295.448 224.738,295.744C223.798,294.214 222.885,292.712 221.975,291.213C221.356,290.183 221.681,288.89 222.737,288.331C223.738,287.802 225.032,288.125 225.65,289.124C227.268,291.772 228.915,294.449 230.531,297.123C231.737,297.39 232.973,297.682 234.178,297.978C232.591,295.39 231.002,292.802 229.414,290.214C228.325,288.419 230.296,286.304 232.178,287.303C232.847,287.663 233.514,288.023 234.18,288.383L238.176,290.544C238.654,290.802 239.133,291.061 239.613,291.319C239.716,291.13 239.819,290.941 239.922,290.753C239.654,289.848 239.386,288.951 239.12,288.037C236.355,286.567 233.619,285.068 230.856,283.596C229.854,283.068 229.414,281.773 229.914,280.745C230.414,279.657 231.678,279.244 232.737,279.803C234.297,280.656 235.855,281.479 237.414,282.332C237.06,281.125 236.708,279.949 236.355,278.744C234.65,277.832 232.973,276.95 231.296,276.039C231.075,275.916 230.883,275.758 230.723,275.576ZM202.504,293.509L195.447,293.184L191.358,297.567L189.212,291.301L183.182,288.507L188.858,285.008L189.565,278.948L194.77,282.891L201.006,281.098L198.946,288.154L202.504,293.509ZM144.712,285.874L145.927,285.831C153.666,285.755 159.844,286.382 165.152,287.752L177.948,279.302L179.124,269.362L157.803,267.421L144.712,285.874ZM96.372,257.636C97.666,258.539 98.998,259.563 100.194,260.664C108.144,261.53 115.866,266.542 122.586,275.216C126.172,279.845 128.6,284.364 129.777,286.756C132.882,286.467 135.79,286.245 138.527,286.09L139.258,286.065L135.51,262.245L112.218,252.716L120.717,247.071L106.454,245.776L96.372,257.636ZM248.803,269.618C246.817,270.572 244.956,271.409 243.221,272.129C243.181,272.268 243.127,272.405 243.059,272.538L240.325,277.569L241.383,281.125C242.236,279.569 243.09,278.039 243.912,276.479C244.491,275.437 245.727,275.106 246.747,275.686C247.486,273.688 248.172,271.665 248.803,269.618ZM94.108,273.251C95.738,273.251 97.061,274.548 97.061,276.146C97.061,277.744 95.738,279.041 94.108,279.041C92.479,279.041 91.156,277.744 91.156,276.146C91.156,274.548 92.479,273.251 94.108,273.251ZM253.198,248.711C248.337,249.542 242.579,250.64 235.927,252.005C234.014,255.781 232.676,258.744 231.914,260.894C231.182,262.962 230.833,264.405 230.925,265.237C231.006,265.966 231.328,266.592 231.883,267.119C232.203,267.422 232.671,267.599 233.272,267.686C233.418,267.707 233.572,267.723 233.732,267.732C233.979,267.278 234.393,266.913 234.943,266.745C235.744,266.514 236.56,266.81 237.077,267.397C240.336,266.723 244.841,265.083 250.592,262.492C250.654,262.463 250.714,262.439 250.773,262.419C251.844,257.944 252.658,253.368 253.198,248.711ZM169.743,249.334L176.007,252.188L179.241,263.569L169.743,249.334ZM137.657,250.424L144.568,246.216L145.391,238.864L151.685,243.658L159.242,241.481L156.745,250.011L161.037,256.48L152.508,256.069L147.568,261.394L144.979,253.804L137.657,250.424ZM187.033,239.041C186.36,238.491 185.644,237.857 184.886,237.139C181.658,234.079 180.237,230.428 180.609,226.192C180.828,223.707 181.513,221.238 182.669,218.784C182.395,218.884 182.128,218.98 181.867,219.072C178.691,220.191 176.086,220.769 174.056,220.821C171.949,220.876 170.351,220.637 169.258,220.143C168.178,219.656 166.95,218.771 165.583,217.475C163.84,215.822 163.003,213.528 163.119,210.576C163.154,209.696 163.266,208.84 163.455,208.006C160.533,208.849 158.125,209.246 156.235,209.21C154.803,209.183 153.612,209.032 152.66,208.767L155.861,214.22L148.3,213.841C147.621,214.373 146.549,214.645 145.064,214.57L140.422,219.337L153.743,230.337L177.446,224.453L168.771,246.775L175.154,243.424L175.802,234.426L183.007,240.159L187.033,239.041ZM136.951,215.603L134.158,214.25L133.128,238.953L124.099,244.982L114.747,230.777L121.159,213.484L107.513,216.397L113.805,208.336L131.216,209.631L135.804,211.22L136.951,215.603ZM220.273,152.88C219.871,154.268 219.195,155.611 218.244,156.907C216.985,158.623 214.71,160.571 211.403,162.732C208.17,164.844 204.391,167.066 200.068,169.396C195.789,171.702 193.401,173.013 192.905,173.331C192.901,173.333 192.897,173.336 192.893,173.338C180.128,181.137 170.765,187.326 164.805,191.909C161.202,194.68 158.064,197.466 155.392,200.269C155.378,200.513 155.463,200.729 155.647,200.919C156.129,201.419 156.846,201.714 157.778,201.845C158.83,201.993 160.136,201.926 161.696,201.659C163.461,201.355 165.688,200.775 168.377,199.922C170.311,198.046 172.885,196.05 176.101,193.938C180.87,190.807 195.129,182.137 218.877,167.931C219.258,167.689 219.619,167.59 219.948,167.6C220.321,167.611 220.67,167.753 220.984,168.051C220.984,168.051 227.224,173.969 227.224,173.969C227.542,174.27 227.683,174.689 227.542,175.249C227.417,175.745 227.175,176.043 226.904,176.199C202.575,190.732 187.952,199.575 183.036,202.729C178.212,205.824 174.997,208.441 173.409,210.603C172.794,211.442 172.591,212.084 173.098,212.565C173.602,213.043 174.331,213.305 175.269,213.395C176.327,213.496 177.628,213.371 179.174,213.034C181.708,212.482 185.18,211.309 189.591,209.522C191.635,207.693 193.988,206.1 196.651,204.743C201.261,202.394 205.994,201.263 210.848,201.347C215.78,201.432 219.782,202.948 222.862,205.869C225.213,208.099 226.619,210.438 227.108,212.868C227.608,215.353 226.982,217.823 225.188,220.267C222.87,223.426 219.642,225.248 215.496,225.721C211.441,226.184 207.598,225.739 203.966,224.391C200.575,223.132 197.702,221.544 195.344,219.634C194.459,220.492 193.666,221.397 192.967,222.35C191.617,224.189 190.799,225.971 190.53,227.706C190.283,229.3 190.721,230.636 191.855,231.711C192.748,232.557 193.857,233.309 195.18,233.969C196.529,234.643 198.309,235.224 200.517,235.72C202.721,236.215 205.442,236.202 208.679,235.698C210.939,235.346 213.299,234.731 215.758,233.854C219.591,232.008 223.367,230.24 227.086,228.551C230.929,226.805 233.755,225.541 235.564,224.761L238.433,223.562C238.451,223.554 238.47,223.548 238.488,223.542C238.919,223.405 239.45,223.411 240.078,223.608C240.837,223.845 241.781,224.374 242.899,225.215C244.75,226.608 245.921,227.991 246.442,229.319C246.817,230.1 246.769,231.162 246.163,232.493C245.655,233.607 244.502,235.873 242.703,239.292C242.701,239.295 242.7,239.297 242.698,239.3C241.985,240.609 241.366,241.73 240.842,242.663C246,241.511 250.346,240.65 253.879,240.082C253.949,238.425 253.984,236.759 253.984,235.085C253.984,203.069 241.115,174.035 220.273,152.88ZM108.423,237.6L102.159,237.308L98.513,241.218L96.601,235.629L91.221,233.158L96.278,230.041L96.897,224.63L101.543,228.16L107.101,226.542L105.276,232.835L108.423,237.6ZM27.866,191.94L27.866,191.939C35.519,172.65 48.152,155.866 64.177,143.178L70.546,145.608L72.309,151.812L72.104,167.459L61.28,174.605L73.22,179.604L77.192,191.927L84.455,182.341L94.748,183.163L94.574,185.811L78.604,196.25L83.984,199.367L80.191,200.339L72.897,194.369L71.956,203.573L66.25,207.577L66.471,205.063L59.571,209.046L58.236,224.247L52.734,227.423L54.059,212.222L47.158,216.205L45.834,231.406L37.695,236.1L38.352,223.655L27.898,230.448L27.898,221.06L40.397,212.308L40.397,204.331L27.898,213.083L27.898,206.731L40.397,197.979L40.397,190.013L27.898,198.754L27.898,191.859C27.888,191.886 27.877,191.913 27.866,191.94ZM79.742,230.517L67.871,224.979L75.44,220.61L75.691,221.425L81.367,214.368L88.425,215.19L87.866,224.809L84.955,226.69L79.742,230.517ZM20.912,219.942L20.907,219.979L22.451,221.06L22.451,230.448L19.829,228.744C19.884,228.366 20.271,224.663 20.907,219.979L20.855,219.942L20.912,219.942ZM19.829,228.744C19.826,228.765 19.824,228.776 19.823,228.776C19.822,228.775 19.822,228.764 19.823,228.74L19.829,228.744ZM65.136,220.264L73.789,215.262L72.986,212.661L66.093,209.374L65.136,220.264ZM219.773,211.237C219.928,211.384 220.03,211.535 220.045,211.706C219.99,212.405 219.609,213.059 218.944,213.695C218.171,214.436 217.031,215.137 215.535,215.81C215.533,215.811 215.53,215.813 215.527,215.814C210.657,218.087 205.534,218.028 200.156,215.663C203.821,213.213 207.589,211.519 211.461,210.585C215.449,209.623 218.225,209.769 219.773,211.237ZM96.601,204.074L99.043,213.808L89.278,205.925L89.132,206.044L88.308,210.955L85.514,207.014L88.102,200.839L96.601,204.074ZM82.514,210.544L79.486,210.398L77.72,212.279L76.81,209.574L74.192,208.398L76.662,206.868L76.956,204.28L79.19,205.955L81.867,205.193L80.985,208.221L82.514,210.544ZM140.997,194.977C143.707,191.69 146.899,188.598 150.572,185.701C154.955,182.244 161.152,178.045 169.165,173.106C169.165,173.106 156.656,161.244 156.656,161.244C155.415,161.938 153.479,163.006 150.849,164.448C147.893,166.07 145.763,167.227 144.46,167.92C143.156,168.613 141.199,169.624 138.589,170.953C135.958,172.292 133.956,173.227 132.586,173.759C131.43,174.208 130.009,174.755 128.325,175.401L122.306,192.398L129.863,203.515L134.01,201.427L135.422,189.809L140.997,194.977ZM115.777,199.663L109.482,199.367L105.835,203.281L103.923,197.691L98.543,195.22L103.629,192.104L104.248,186.693L108.894,190.222L114.453,188.605L112.601,194.897L115.777,199.663ZM77.897,171.429L78.337,167.43L81.778,170.016L85.896,168.84L84.543,173.488L86.866,177.018L82.22,176.782L79.544,179.693L78.132,175.546L74.133,173.723L77.897,171.429ZM107.328,164.106L105.19,163.989L99.925,169.899L109.924,179.399L117.038,177.553C115.782,177.54 114.664,177.336 113.684,176.948C112.478,176.471 111.375,175.76 110.374,174.811C108.277,172.822 107.207,169.979 107.22,166.262C107.223,165.51 107.259,164.792 107.328,164.106ZM94.514,161.341L96.985,162.165L98.159,168.871L95.955,167.105L95.131,178.694L90.337,172.399L94.514,161.341ZM164.373,157.205C181.819,148.449 195.429,144.058 205.229,144.071L205.23,144.071L207.223,145.961C208.368,147.046 209.411,147.886 210.35,148.484C209.243,149.58 207.65,150.746 205.578,151.99C203.061,153.502 199.593,155.441 195.175,157.806C190.734,160.183 186.935,162.317 183.778,164.209C180.726,166.033 178.293,167.525 176.48,168.686L164.373,157.205ZM83.074,163.666L76.485,157.665L83.337,148.607L95.69,149.489L95.338,154.195L88.573,158.167L92.865,160.636L83.074,163.666ZM106.1,159.665L103.07,159.548L101.308,161.429L100.396,158.724L97.779,157.519L100.248,156.018L100.544,153.43L102.778,155.108L105.455,154.343L104.571,157.371L106.1,159.665ZM146.205,118.291C142.371,120.486 139.278,123.179 136.931,126.377C135.149,128.805 134.128,131.121 133.893,133.337C133.671,135.434 134.311,137.197 135.817,138.626C137.746,140.454 140.319,140.99 143.524,140.299C146.788,139.596 149.13,138.326 150.52,136.433C150.926,135.879 151.37,135.753 151.708,135.811C151.951,135.852 152.204,135.99 152.418,136.295C152.577,136.523 152.734,136.892 152.857,137.397C153.414,139.2 153.078,140.969 151.81,142.696C149.367,146.025 145.576,148.231 140.415,149.277C135.213,150.33 130.736,149.073 126.982,145.514C123.848,142.542 122.221,138.239 122.156,132.584C122.097,127.495 123.504,122.76 126.38,118.379C115.006,119.385 104.096,122.02 93.883,126.049L90.279,137.638L96.043,146.373L96.424,144.019L102.984,150.225L112.042,147.785L109.747,157.196L109.812,157.3C110.391,156.571 110.981,156.046 111.569,155.715C112.049,155.446 112.442,155.325 112.734,155.312C113.091,155.296 113.363,155.41 113.567,155.603C113.65,155.682 113.749,155.814 113.824,156.021C113.9,156.232 113.973,156.594 114.027,157.109C114.075,157.558 114.21,157.913 114.469,158.158C115.625,159.254 117.007,159.959 118.613,160.275C120.291,160.605 122.719,160.481 125.897,159.931C129.148,159.368 133.457,158.011 138.828,155.868C144.242,153.708 150.9,150.721 158.804,146.908C174.239,139.449 187.167,135.65 197.579,135.482C197.342,135.178 197.054,134.814 196.716,134.388C181.711,125.438 164.55,119.748 146.205,118.291ZM75.653,135.155C76.528,134.618 77.411,134.092 78.301,133.577L79.749,134.667L84.19,133.374L82.72,138.431L85.251,142.255L80.22,142.02L77.309,145.137L75.78,140.668L71.456,138.668L75.543,136.168L75.653,135.155ZM180.189,106.092C174.413,104.148 168.461,102.581 162.366,101.421C161.639,100.11 160.883,98.715 160.126,97.318C160.038,97.141 159.95,96.995 159.89,96.847C157.125,91.759 155.303,86.083 153.862,80.436L179.889,104.287L180.419,105.288C180.419,105.288 180.253,105.564 180.189,106.092ZM115.274,100.721C108.993,101.722 102.856,103.153 96.893,104.984L96.631,104.2L98.278,101.641L126.011,79.759C123.982,85.819 121.482,91.818 117.923,97.024L117.894,97.024C117.835,97.141 117.775,97.229 117.687,97.318C117.658,97.406 117.57,97.523 117.452,97.671C116.986,98.312 116.204,99.471 115.274,100.721ZM135.95,51.587C137.215,50.409 138.892,49.792 140.627,49.852C142.334,49.909 143.98,50.645 145.127,51.938C146.303,53.174 146.951,54.849 146.862,56.556C146.803,58.291 146.038,59.908 144.803,61.086C143.509,62.26 141.863,62.879 140.128,62.819C138.421,62.762 136.775,62.026 135.628,60.733C134.452,59.497 133.804,57.82 133.864,56.115C133.952,54.35 134.717,52.763 135.95,51.587ZM207.857,15.296C218.916,11.766 223.15,20.353 218.297,30.998C205.298,42.235 188.889,48.674 171.713,49.233C178.065,33.087 191.329,20.618 207.857,15.296ZM64.545,25.293C60.458,14.325 65.338,6.09 76.074,10.442C92.16,16.971 104.454,30.352 109.63,46.91C92.543,45.117 76.633,37.47 64.545,25.293Z" style="fill:none;stroke:rgb(255,0,0);stroke-width:1px;"/>
</svg>
