<?xml version="1.0" encoding="UTF-8" standalone="no"?>
<!DOCTYPE svg PUBLIC "-//W3C//DTD SVG 1.1//EN" "http://www.w3.org/Graphics/SVG/1.1/DTD/svg11.dtd">
<svg width="100%" height="100%" viewBox="0 0 1123 794" version="1.1" xmlns="http://www.w3.org/2000/svg" xmlns:xlink="http://www.w3.org/1999/xlink" xml:space="preserve" xmlns:serif="http://www.serif.com/" style="fill-rule:evenodd;clip-rule:evenodd;stroke-linejoin:round;stroke-miterlimit:2;">
    <path d="M0.763,233.654C1.257,185.132 27.188,142.701 65.84,118.992C65.398,118.817 65.044,118.669 64.75,118.492L64.722,118.492C55.281,115.374 48.341,108.758 41.958,101.287C30.577,85.318 46.666,69.791 47.751,53.967C48.723,40.557 42.782,25.706 49.694,12.56C53.84,3.853 62.664,0.531 72.427,0.768C81.014,1.208 89.338,4.267 95.161,8.707C107.57,18.236 119.159,31.999 128.776,45.146C128.776,44.116 130.394,42.292 132.157,41.293C133.276,40.617 134.598,40.263 136.01,40.263L144.597,40.263C146.422,40.263 148.067,40.88 149.422,41.91C150.863,43.057 151.891,44.704 152.273,46.587C152.802,46.587 182.859,16.178 188.975,12.177C195.124,8.148 203.623,5.737 212.21,5.942C221.975,6.413 230.502,10.413 234.032,19.412C239.942,32.998 232.913,47.381 232.854,60.821C232.825,76.702 247.707,93.348 235.179,108.435C229.972,113.729 222.856,118.846 215.857,121.903L215.797,121.903C215.417,122.021 214.603,122.283 213.44,122.66C235.706,137.872 253.229,159.522 263.318,184.913L263.635,185.717C269.445,200.605 272.705,216.771 272.875,233.676L272.882,235.085L272.88,235.812L272.866,237.183L272.848,238.157L272.816,239.357L272.777,240.461C272.271,253.525 269.932,266.101 265.999,277.951C265.659,278.997 265.294,280.017 264.925,281.008L264.5,282.186C263.205,285.714 261.764,289.155 260.177,292.537C259.764,293.448 259.353,294.331 258.911,295.213C258.206,296.654 257.441,298.096 256.707,299.508C256.647,299.565 256.619,299.654 256.588,299.713C255.177,302.329 253.677,304.919 252.09,307.419C251.717,307.987 251.375,308.559 250.98,309.103L250.882,309.252C250.472,309.92 250.043,310.551 249.594,311.192L249.354,311.546L249.354,311.565C249.088,312.005 248.794,312.416 248.472,312.829C245.795,316.713 242.913,320.415 239.854,323.976C215.151,352.578 178.758,370.759 138.144,371.142L136.819,371.148C133.222,371.148 129.657,371.008 126.124,370.733C59.482,365.554 6.326,312.384 1.167,245.731C0.895,242.217 0.756,238.667 0.756,235.085L0.763,233.654ZM28.751,280.397C40.488,308.332 62.752,330.776 90.57,342.754C86.43,339.961 82.52,336.774 78.888,333.213C75.47,329.86 75.47,324.406 78.888,321.053C82.307,317.7 87.87,317.7 91.289,321.053C93.511,323.232 95.866,325.23 98.335,327.046C102.763,312.408 102.398,299.836 101.771,293.577L92.474,300.653C89.142,303.191 84.772,303.273 81.343,300.862C77.913,298.45 76.589,294.365 77.972,290.454L85.343,269.604L86.265,255.979C86.324,255.115 86.821,254.338 87.589,253.91C88.356,253.482 89.292,253.461 90.078,253.854C90.199,253.915 91.551,254.595 93.379,255.698L90.219,242.394L72.795,235.617L73.743,234.921L60.959,228.962L55.458,232.149L69.292,238.586L62.38,242.58L48.557,236.132L40.419,240.826L51.529,246.478L40.419,252.14L48.557,256.834L62.38,250.385L69.292,254.369L55.458,260.817L60.959,263.993L74.793,257.544L81.694,261.528L67.871,267.976L78.895,274.349C80.197,275.092 80.639,276.761 79.885,278.064C79.131,279.377 77.474,279.818 76.16,279.065L65.136,272.702L66.471,287.903L59.571,283.92L58.236,268.719L52.734,265.532L54.059,280.733L47.158,276.75L45.834,261.549L37.695,256.856L38.352,269.3L27.898,262.507L27.898,271.906L40.397,280.658L40.397,288.624L28.794,280.5L28.751,280.397ZM233.012,301.959C231.873,301.683 230.731,301.431 229.591,301.155C226.915,302.799 224.267,304.448 221.621,306.066C220.62,306.683 219.327,306.417 218.65,305.447C218.445,305.153 218.326,304.8 218.297,304.448L200.475,303.418L187.72,318.623C190.354,318.261 193.125,319.071 195.146,321.053C196.802,322.677 197.715,324.836 197.714,327.133C197.714,329.43 196.802,331.589 195.146,333.213C191.721,336.571 188.049,339.597 184.169,342.273C198.375,335.983 211.1,326.95 221.671,315.847C221.653,315.726 221.646,315.602 221.65,315.475C221.681,314.328 222.62,313.389 223.767,313.36L223.978,313.353C224.787,312.453 225.583,311.54 226.362,310.616C224.439,310.455 223.754,307.872 225.474,306.802C227.928,305.293 230.355,303.762 232.807,302.252L233.012,301.959ZM152.231,328.2C153.857,330.702 156.365,333.727 158.432,336.092C151.639,338.426 144.423,339.645 137.018,339.645C130.424,339.645 123.98,338.678 117.851,336.819L122.432,328.338C127.245,329.627 139.269,332.015 152.231,328.2ZM177.773,297.679C179.293,301.583 178.384,304.766 175.569,303.113C175.843,310.356 177.192,319.266 178.76,324.648C180.13,323.509 181.461,322.312 182.746,321.053C183.762,320.056 184.968,319.356 186.251,318.952L181.093,299.3L177.773,297.679ZM223.767,299.771C222.62,300.476 221.444,301.212 220.268,301.948L218.827,299.713C219.267,299.448 219.709,299.183 220.151,298.889C221.356,299.183 222.561,299.477 223.767,299.771ZM216.025,270.046L210.092,286.304L214.679,293.332C214.886,293.39 215.092,293.448 215.297,293.478C215.003,293.008 214.709,292.537 214.444,292.068C213.827,291.067 214.15,289.772 215.209,289.213C216.208,288.655 217.503,289.009 218.12,289.979C219.121,291.624 220.12,293.244 221.091,294.862C222.326,295.154 223.533,295.448 224.738,295.744C223.798,294.214 222.885,292.712 221.975,291.213C221.356,290.183 221.681,288.89 222.737,288.331C223.738,287.802 225.032,288.125 225.65,289.124C227.268,291.772 228.915,294.449 230.531,297.123C231.737,297.39 232.973,297.682 234.178,297.978C232.591,295.39 231.002,292.802 229.414,290.214C228.325,288.419 230.296,286.304 232.178,287.303C232.847,287.663 233.514,288.023 234.18,288.383L238.176,290.544C238.654,290.802 239.133,291.061 239.613,291.319C239.716,291.13 239.819,290.941 239.922,290.753C239.654,289.848 239.386,288.951 239.12,288.037C236.355,286.567 233.619,285.068 230.856,283.596C230.666,283.496 230.497,283.369 230.351,283.221C228.919,283.087 227.822,282.807 227.056,282.403C226.196,281.951 225.298,281.233 224.369,280.24C222.985,278.758 222.332,276.903 222.432,274.667C222.506,273.027 222.975,271.488 223.845,270.054C220.674,270.774 218.069,270.758 216.025,270.046ZM202.504,293.509L195.447,293.184L191.358,297.567L189.212,291.301L183.182,288.507L188.858,285.008L189.565,278.948L194.77,282.891L201.006,281.098L198.946,288.154L202.504,293.509ZM144.712,285.874L145.927,285.831C153.666,285.755 159.844,286.382 165.152,287.752L177.948,279.302L179.124,269.362L157.803,267.421L144.712,285.874ZM96.372,257.636C97.666,258.539 98.998,259.563 100.194,260.664C108.144,261.53 115.866,266.542 122.586,275.216C126.172,279.845 128.6,284.364 129.777,286.756C132.882,286.467 135.79,286.245 138.527,286.09L139.258,286.065L135.51,262.245L112.218,252.716L120.717,247.071L106.454,245.776L96.372,257.636ZM237.407,282.309L237.384,282.316L237.414,282.332L237.407,282.309ZM241.342,281.092L241.236,281.127L241.383,281.125L241.415,281.068L241.342,281.092ZM94.108,273.251C95.738,273.251 97.061,274.548 97.061,276.146C97.061,277.744 95.738,279.041 94.108,279.041C92.479,279.041 91.156,277.744 91.156,276.146C91.156,274.548 92.479,273.251 94.108,273.251ZM250.493,263.562C243.288,267.33 238.516,269.939 236.178,271.392C233.558,273.02 231.723,274.45 230.686,275.697C230.205,276.276 229.99,276.722 230.336,277.092C230.496,277.263 230.813,277.321 231.253,277.368C232.193,277.467 233.581,277.359 235.418,277.06C238.578,276.545 242.539,275.418 247.303,273.685C247.352,273.667 247.404,273.655 247.457,273.649L247.479,273.647C248.63,270.35 249.637,266.986 250.493,263.562ZM192.417,237.828L189.181,246.452L193.977,254.57L184.8,253.892L181.418,258.158L196.505,270.363L212.15,266.997C211.028,265.312 210.629,263.364 210.958,261.151C211.225,259.355 211.918,257.543 213.044,255.717C212.93,255.748 212.818,255.778 212.707,255.808C210.041,256.515 207.873,256.822 206.207,256.743C204.466,256.661 203.165,256.374 202.298,255.918C201.441,255.467 200.503,254.707 199.494,253.627C197.977,252.005 197.275,250.198 197.367,248.216C197.455,246.297 198.028,244.485 199.088,242.78C200.097,241.158 201.165,239.6 202.293,238.107C203.37,236.681 204.17,235.334 204.688,234.061C205.103,233.042 205.107,232.235 204.558,231.648C204.558,231.648 204.489,231.573 204.489,231.573L192.417,237.828ZM240.351,258.363C237.899,259.644 235.845,260.792 234.191,261.805C229.304,263.74 225.571,264.775 222.987,264.883C221.477,264.946 220.401,264.715 219.793,264.064C219.486,263.735 219.432,263.259 219.539,262.654C219.675,261.894 220.097,261.11 220.779,260.289C222.407,258.33 224.778,256.408 227.884,254.511C230.998,252.61 234.09,251.303 237.163,250.594C239.989,249.942 241.966,250.099 243.069,251.278C243.639,251.887 243.639,252.801 243.236,254.005C242.767,255.405 241.8,256.853 240.352,258.362L240.351,258.363ZM169.743,249.334L176.007,252.188L179.241,263.569L169.743,249.334ZM137.657,250.424L144.568,246.216L145.391,238.864L151.685,243.658L159.242,241.481L156.745,250.011L161.037,256.48L152.508,256.069L147.568,261.394L144.979,253.804L137.657,250.424ZM179.896,126.105C181.171,127.645 182.58,129.459 184.123,131.548C186.636,134.952 189.149,138.097 191.66,140.982C194.603,142.093 197.097,143.746 199.144,145.935C200.31,147.183 200.926,148.971 200.934,151.317C200.942,153.617 200.15,155.734 198.547,157.663C197.442,158.992 195.505,160.462 192.719,162.051C190.01,163.597 186.856,165.204 183.257,166.872C179.704,168.519 177.72,169.457 177.305,169.689C177.301,169.691 177.297,169.694 177.293,169.696C166.639,175.353 158.802,179.88 153.782,183.28C148.808,186.648 144.841,190.108 141.884,193.666C141.513,194.112 141.199,194.532 140.943,194.928L143.481,197.28L146.128,196.537L145.537,195.905C145.265,195.613 145.162,195.252 145.271,194.811C145.36,194.453 145.559,194.17 145.871,193.961C145.891,193.947 145.912,193.935 145.934,193.924L178.215,177.16C178.221,177.158 178.226,177.155 178.232,177.152C178.906,176.825 179.49,176.936 179.987,177.468C179.987,177.468 184.725,182.537 184.725,182.537C184.997,182.828 185.101,183.189 184.991,183.63C184.892,184.029 184.646,184.318 184.235,184.472C184.235,184.472 183.878,184.666 183.879,184.666C184.568,184.772 185.22,184.933 185.835,185.148C187.142,185.605 188.091,186.086 188.692,186.571C189.268,187.038 189.946,187.685 190.721,188.515C192.192,190.088 192.897,191.888 192.849,193.912C192.802,195.916 192.15,197.67 190.898,199.176C189.698,200.621 188.186,201.884 186.359,202.961C186.348,202.968 186.337,202.974 186.325,202.98C181.002,205.715 177.266,207.703 175.119,208.943C173.062,210.132 171.698,211.105 171.044,211.892C170.563,212.471 170.348,212.916 170.694,213.286C170.933,213.542 171.36,213.684 171.946,213.78C173.06,213.962 174.666,213.907 176.766,213.632C180.091,213.197 183.612,212.315 187.33,210.989C190.677,209.09 195.674,206.41 202.32,202.949C202.326,202.946 202.332,202.943 202.337,202.941C203.011,202.614 203.595,202.724 204.092,203.256L204.956,204.18C204.934,203.985 204.925,203.784 204.928,203.578C204.953,202.209 205.574,200.961 206.835,199.856C208.037,198.803 209.447,198.184 211.067,198.003C212.735,197.817 214.127,198.151 215.252,198.971C216.441,199.838 217.017,200.983 216.992,202.402C216.968,203.771 216.347,205.018 215.086,206.123C213.884,207.177 212.473,207.795 210.853,207.976C209.939,208.079 209.107,208.024 208.357,207.819L208.83,208.325C209.103,208.616 209.206,208.978 209.097,209.419C209.008,209.776 208.809,210.06 208.497,210.269C208.477,210.282 208.456,210.295 208.434,210.306C198.487,215.467 192.073,218.93 189.192,220.695C186.388,222.413 184.46,223.886 183.423,225.134C182.941,225.713 182.726,226.159 183.072,226.529C183.249,226.718 183.589,226.796 184.06,226.856C185.032,226.978 186.46,226.893 188.344,226.615C191.509,226.148 195.38,225.105 199.959,223.488L234.856,205.402C234.861,205.399 234.867,205.396 234.872,205.394C235.546,205.067 236.13,205.177 236.627,205.709C236.627,205.709 241.306,210.715 241.306,210.715C241.575,211.002 241.675,211.336 241.616,211.713C241.562,212.054 241.38,212.351 241.037,212.581C241.016,212.595 240.995,212.607 240.974,212.618C240.974,212.618 219.268,223.901 219.27,223.901C222.696,224.324 225.417,225.632 227.443,227.799C228.913,229.372 229.637,231.097 229.639,232.962C229.642,234.821 229.018,236.51 227.758,238.026C226.1,240.02 223.746,241.069 220.679,241.136C217.946,241.195 214.982,240.139 211.804,237.927C211.532,238.918 211.062,240.012 210.388,241.206C209.501,242.775 208.652,244.114 207.844,245.224C207.092,246.255 206.541,247.296 206.195,248.348C205.92,249.184 205.973,249.862 206.447,250.369C206.667,250.605 207.002,250.753 207.436,250.848C207.975,250.967 208.647,250.995 209.452,250.941C212.041,250.767 215.906,249.752 221.048,247.916C221.195,247.823 221.343,247.732 221.492,247.641C224.178,246.01 226.964,244.76 229.853,243.891C232.787,243.008 235.719,242.802 238.649,243.272C241.637,243.75 244.065,245 245.941,247.006C248.009,249.218 248.717,251.653 248.067,254.308C248.65,254.101 249.162,254.241 249.605,254.715L251.902,257.172C253.269,250.018 253.984,242.635 253.984,235.085C253.984,185.629 223.276,143.289 179.896,126.105ZM176.015,228.136L168.771,246.775L175.154,243.424L175.802,234.426L183.007,240.159L186.101,239.3L181.785,234.682C181.512,234.391 181.409,234.03 181.518,233.588C181.607,233.231 181.806,232.947 182.118,232.739L182.292,232.644C181.263,232.469 180.451,232.219 179.851,231.904C178.993,231.452 178.075,230.713 177.106,229.677C176.666,229.206 176.302,228.692 176.015,228.136ZM136.951,215.603L134.158,214.25L133.128,238.953L124.099,244.982L114.747,230.777L121.159,213.484L107.513,216.397L113.805,208.336L131.216,209.631L135.804,211.22L136.951,215.603ZM108.423,237.6L102.159,237.308L98.513,241.218L96.601,235.629L91.221,233.158L96.278,230.041L96.897,224.63L101.543,228.16L107.101,226.542L105.276,232.835L108.423,237.6ZM27.866,191.94L27.866,191.939C35.519,172.65 48.152,155.866 64.177,143.178L70.546,145.608L72.309,151.812L72.104,167.459L61.28,174.605L73.22,179.604L77.192,191.927L84.455,182.341L94.748,183.163L94.574,185.811L78.604,196.25L83.984,199.367L80.191,200.339L72.897,194.369L71.956,203.573L66.25,207.577L66.471,205.063L59.571,209.046L58.236,224.247L52.734,227.423L54.059,212.222L47.158,216.205L45.834,231.406L37.695,236.1L38.352,223.655L27.898,230.448L27.898,221.06L40.397,212.308L40.397,204.331L27.898,213.083L27.898,206.731L40.397,197.979L40.397,190.013L27.898,198.754L27.898,191.859C27.888,191.886 27.877,191.913 27.866,191.94ZM221.678,230.435C221.898,230.67 222.028,230.903 222.026,231.156C222.023,231.433 221.875,231.709 221.629,232.005C221.26,232.449 220.684,232.742 219.921,232.923C219.045,233.131 217.942,233.182 216.614,233.089C213.938,232.901 211.408,231.899 209.02,230.095C209.016,230.092 208.471,229.509 208.471,229.509C208.471,229.509 208.974,229.248 208.974,229.248C213.001,228.562 216.165,228.436 218.469,228.893C219.894,229.176 220.97,229.677 221.678,230.435ZM79.742,230.517L67.871,224.979L75.44,220.61L75.691,221.425L81.367,214.368L88.425,215.19L87.866,224.809L84.955,226.69L79.742,230.517ZM20.912,219.942L20.907,219.979L22.451,221.06L22.451,230.448L19.829,228.744C19.884,228.366 20.271,224.663 20.907,219.979L20.855,219.942L20.912,219.942ZM175.225,225.005C175.214,224.732 175.215,224.453 175.228,224.168C175.306,222.415 175.837,220.779 176.825,219.261C174.56,219.679 172.689,219.761 171.212,219.524C169.401,219.232 168.031,218.806 167.095,218.269C166.162,217.732 165.213,216.954 164.253,215.927C162.896,214.475 162.287,212.771 162.423,210.816C162.555,208.928 163.384,207.041 164.94,205.169C166.09,203.785 167.328,202.622 168.654,201.677C169.948,200.755 172.488,199.325 176.287,197.388C180.334,195.137 182.987,193.287 184.226,191.807C184.509,191.469 184.712,191.157 184.824,190.865C184.928,190.593 184.943,190.35 184.824,190.134C184.099,189.41 182.648,189.105 180.509,189.078C178.147,189.048 175.322,189.629 172.029,190.807L151.988,201.217C151.982,201.22 151.977,201.223 151.971,201.225L151.936,201.242L150.596,205.25L155.861,214.22L145.892,213.72L140.422,219.337L153.743,230.337L175.225,225.005ZM19.829,228.744C19.826,228.765 19.824,228.776 19.823,228.776C19.822,228.775 19.822,228.764 19.823,228.74L19.829,228.744ZM65.136,220.264L73.789,215.262L72.986,212.661L66.093,209.374L65.136,220.264ZM96.601,204.074L99.043,213.808L89.278,205.925L89.132,206.044L88.308,210.955L85.514,207.014L88.102,200.839L96.601,204.074ZM82.514,210.544L79.486,210.398L77.72,212.279L76.81,209.574L74.192,208.398L76.662,206.868L76.956,204.28L79.19,205.955L81.867,205.193L80.985,208.221L82.514,210.544ZM134.193,199.923C133.228,199.488 132.357,198.855 131.58,198.024C130.227,196.576 129.662,194.709 129.923,192.41C130.173,190.207 131.085,188.149 132.671,186.241C135.357,183.008 138.625,180.053 142.475,177.376C146.149,174.822 151.299,171.765 157.927,168.208C157.927,168.208 148.608,158.238 148.608,158.238C147.572,158.737 145.989,159.49 143.86,160.496C141.4,161.659 139.628,162.487 138.544,162.982C137.46,163.477 135.834,164.197 133.667,165.14C131.477,166.094 129.815,166.751 128.683,167.113C127.564,167.472 126.145,167.922 124.425,168.464C122.637,169.028 121.197,169.329 120.108,169.378C119.052,169.425 117.905,169.448 116.665,169.445C115.327,169.442 114.177,169.208 113.212,168.757C112.25,168.308 111.382,167.672 110.611,166.846C109.902,166.088 109.362,165.206 108.996,164.198L105.19,163.989L99.925,169.899L109.924,179.399L128.628,174.545L122.306,192.398L129.863,203.515L134.01,201.427L134.193,199.923ZM115.777,199.663L109.482,199.367L105.835,203.281L103.923,197.691L98.543,195.22L103.629,192.104L104.248,186.693L108.894,190.222L114.453,188.605L112.601,194.897L115.777,199.663ZM77.897,171.429L78.337,167.43L81.778,170.016L85.896,168.84L84.543,173.488L86.866,177.018L82.22,176.782L79.544,179.693L78.132,175.546L74.133,173.723L77.897,171.429ZM94.514,161.341L96.985,162.165L98.159,168.871L95.955,167.105L95.131,178.694L90.337,172.399L94.514,161.341ZM155.268,155.25C169.605,149.12 180.686,146.268 188.531,146.736L190.01,148.318C190.834,149.199 191.596,149.899 192.293,150.421C191.363,151.212 190.072,152.033 188.427,152.892C186.327,153.986 183.442,155.378 179.772,157.066C176.077,158.766 172.912,160.302 170.276,161.672C167.777,162.968 165.774,164.036 164.266,164.876L155.268,155.25ZM83.074,163.666L76.485,157.665L83.337,148.607L95.69,149.489L95.338,154.195L88.573,158.167L92.865,160.636L83.074,163.666ZM106.1,159.665L103.07,159.548L101.308,161.429L100.396,158.724L97.779,157.519L100.248,156.018L100.544,153.43L102.778,155.108L105.455,154.343L104.571,157.371L106.1,159.665ZM129.869,118.123C117.235,118.863 105.136,121.61 93.883,126.049L90.279,137.638L96.043,146.373L96.424,144.019L102.984,150.225L112.042,147.785L110.833,152.744C111.406,152.062 111.979,151.593 112.539,151.322C112.962,151.117 113.305,151.037 113.555,151.041C113.884,151.046 114.127,151.168 114.303,151.356C114.376,151.434 114.462,151.561 114.52,151.758C114.572,151.937 114.616,152.242 114.636,152.674C114.65,153.002 114.728,153.268 114.906,153.458C115.767,154.379 116.825,155.001 118.078,155.328C119.403,155.672 121.349,155.688 123.915,155.401C126.554,155.106 130.081,154.224 134.5,152.763C138.963,151.287 144.467,149.206 151.014,146.52C163.698,141.308 174.227,138.872 182.594,139.183C182.298,138.756 181.916,138.21 181.447,137.545C180.339,135.972 179.531,134.841 179.024,134.154C178.521,133.472 177.647,132.392 176.401,130.916C175.149,129.432 173.817,127.934 172.403,126.422C170.111,123.97 167.229,122.207 163.76,121.128C163.117,120.928 162.472,120.751 161.827,120.599L161.133,120.45L160.573,120.334C158.123,119.873 155.661,119.757 153.187,119.986C149.628,120.315 146.157,121.286 142.773,122.897C139.41,124.499 136.666,126.573 134.545,129.125C133.009,130.973 132.082,132.768 131.788,134.521C131.514,136.157 131.933,137.572 133.048,138.765C134.484,140.302 136.494,140.841 139.059,140.448C141.685,140.046 143.608,139.155 144.802,137.719C145.2,137.24 145.614,137.162 145.917,137.233C146.102,137.276 146.286,137.378 146.445,137.572C146.605,137.768 146.765,138.129 146.862,138.664C147.231,140.182 146.868,141.627 145.735,142.99C143.587,145.575 140.401,147.185 136.157,147.782C131.871,148.384 128.29,147.14 125.41,144.059L125.409,144.059C123.008,141.49 121.892,137.915 122.116,133.317C122.337,128.787 123.968,124.687 127.014,121.022C127.882,119.977 128.834,119.011 129.869,118.123ZM75.653,135.155C76.528,134.618 77.411,134.092 78.301,133.577L79.749,134.667L84.19,133.374L82.72,138.431L85.251,142.255L80.22,142.02L77.309,145.137L75.78,140.668L71.456,138.668L75.543,136.168L75.653,135.155ZM180.189,106.092C174.413,104.148 168.461,102.581 162.366,101.421C161.639,100.11 160.883,98.715 160.126,97.318C160.038,97.141 159.95,96.995 159.89,96.847C157.125,91.759 155.303,86.083 153.862,80.436L179.889,104.287L180.419,105.288C180.419,105.288 180.253,105.564 180.189,106.092ZM115.274,100.721C108.993,101.722 102.856,103.153 96.893,104.984L96.631,104.2L98.278,101.641L126.011,79.759C123.982,85.819 121.482,91.818 117.923,97.024L117.894,97.024C117.835,97.141 117.775,97.229 117.687,97.318C117.658,97.406 117.57,97.523 117.452,97.671C116.986,98.312 116.204,99.471 115.274,100.721ZM135.95,51.587C137.215,50.409 138.892,49.792 140.627,49.852C142.334,49.909 143.98,50.645 145.127,51.938C146.303,53.174 146.951,54.849 146.862,56.556C146.803,58.291 146.038,59.908 144.803,61.086C143.509,62.26 141.863,62.879 140.128,62.819C138.421,62.762 136.775,62.026 135.628,60.733C134.452,59.497 133.804,57.82 133.864,56.115C133.952,54.35 134.717,52.763 135.95,51.587ZM207.857,15.296C218.916,11.766 223.15,20.353 218.297,30.998C205.298,42.235 188.889,48.674 171.713,49.233C178.065,33.087 191.329,20.618 207.857,15.296ZM64.545,25.293C60.458,14.325 65.338,6.09 76.074,10.442C92.16,16.971 104.454,30.352 109.63,46.91C92.543,45.117 76.633,37.47 64.545,25.293Z" style="fill:none;stroke:rgb(255,0,0);stroke-width:1px;"/>
</svg>
