<?xml version="1.0" encoding="UTF-8" standalone="no"?>
<!DOCTYPE svg PUBLIC "-//W3C//DTD SVG 1.1//EN" "http://www.w3.org/Graphics/SVG/1.1/DTD/svg11.dtd">
<svg width="100%" height="100%" viewBox="0 0 1123 794" version="1.1" xmlns="http://www.w3.org/2000/svg" xmlns:xlink="http://www.w3.org/1999/xlink" xml:space="preserve" xmlns:serif="http://www.serif.com/" style="fill-rule:evenodd;clip-rule:evenodd;stroke-linejoin:round;stroke-miterlimit:2;">
    <path d="M0.763,233.654C1.257,185.132 27.188,142.701 65.84,118.992C65.398,118.817 65.044,118.669 64.75,118.492L64.722,118.492C55.281,115.374 48.341,108.758 41.958,101.287C30.577,85.318 46.666,69.791 47.751,53.967C48.723,40.557 42.782,25.706 49.694,12.56C53.84,3.853 62.664,0.531 72.427,0.768C81.014,1.208 89.338,4.267 95.161,8.707C107.57,18.236 119.159,31.999 128.776,45.146C128.776,44.116 130.394,42.292 132.157,41.293C133.276,40.617 134.598,40.263 136.01,40.263L144.597,40.263C146.422,40.263 148.067,40.88 149.422,41.91C150.863,43.057 151.891,44.704 152.273,46.587C152.802,46.587 182.859,16.178 188.975,12.177C195.124,8.148 203.623,5.737 212.21,5.942C221.975,6.413 230.502,10.413 234.032,19.412C239.942,32.998 232.913,47.381 232.854,60.821C232.825,76.702 247.707,93.348 235.179,108.435C229.972,113.729 222.856,118.846 215.857,121.903L215.797,121.903C215.417,122.021 214.603,122.283 213.44,122.66C235.706,137.872 253.229,159.522 263.318,184.913L263.635,185.717C269.445,200.605 272.705,216.771 272.875,233.676L272.882,235.085L272.88,235.812L272.866,237.183L272.848,238.157L272.816,239.357L272.777,240.461C272.271,253.525 269.932,266.101 265.999,277.951C265.659,278.997 265.294,280.017 264.925,281.008L264.5,282.186C263.205,285.714 261.764,289.155 260.177,292.537C259.764,293.448 259.353,294.331 258.911,295.213C258.206,296.654 257.441,298.096 256.707,299.508C256.647,299.565 256.619,299.654 256.588,299.713C255.177,302.329 253.677,304.919 252.09,307.419C251.717,307.987 251.375,308.559 250.98,309.103L250.882,309.252C250.472,309.92 250.043,310.551 249.594,311.192L249.354,311.546L249.354,311.565C249.088,312.005 248.794,312.416 248.472,312.829C245.795,316.713 242.913,320.415 239.854,323.976C215.151,352.578 178.758,370.759 138.144,371.142L136.819,371.148C133.222,371.148 129.657,371.008 126.124,370.733C59.482,365.554 6.326,312.384 1.167,245.731C0.895,242.217 0.756,238.667 0.756,235.085L0.763,233.654ZM28.751,280.397C40.488,308.332 62.752,330.776 90.57,342.754C86.43,339.961 82.52,336.774 78.888,333.213C75.47,329.86 75.47,324.406 78.888,321.053C82.307,317.7 87.87,317.7 91.289,321.053C93.511,323.232 95.866,325.23 98.335,327.046C102.763,312.408 102.398,299.836 101.771,293.577L92.474,300.653C89.142,303.191 84.772,303.273 81.343,300.862C77.913,298.45 76.589,294.365 77.972,290.454L85.343,269.604L86.265,255.979C86.324,255.115 86.821,254.338 87.589,253.91C88.356,253.482 89.292,253.461 90.078,253.854C90.199,253.915 91.551,254.595 93.379,255.698L90.219,242.394L72.795,235.617L73.743,234.921L60.959,228.962L55.458,232.149L69.292,238.586L62.38,242.58L48.557,236.132L40.419,240.826L51.529,246.478L40.419,252.14L48.557,256.834L62.38,250.385L69.292,254.369L55.458,260.817L60.959,263.993L74.793,257.544L81.694,261.528L67.871,267.976L78.895,274.349C80.197,275.092 80.639,276.761 79.885,278.064C79.131,279.377 77.474,279.818 76.16,279.065L65.136,272.702L66.471,287.903L59.571,283.92L58.236,268.719L52.734,265.532L54.059,280.733L47.158,276.75L45.834,261.549L37.695,256.856L38.352,269.3L27.898,262.507L27.898,271.906L40.397,280.658L40.397,288.624L28.794,280.5L28.751,280.397ZM233.012,301.959C231.873,301.683 230.731,301.431 229.591,301.155C226.915,302.799 224.267,304.448 221.621,306.066C220.62,306.683 219.327,306.417 218.65,305.447C218.445,305.153 218.326,304.8 218.297,304.448L200.475,303.418L187.72,318.623C190.354,318.261 193.125,319.071 195.146,321.053C196.802,322.677 197.715,324.836 197.714,327.133C197.714,329.43 196.802,331.589 195.146,333.213C191.721,336.571 188.049,339.597 184.169,342.273C198.375,335.983 211.1,326.95 221.671,315.847C221.653,315.726 221.646,315.602 221.65,315.475C221.681,314.328 222.62,313.389 223.767,313.36L223.978,313.353C224.787,312.453 225.583,311.54 226.362,310.616C224.439,310.455 223.754,307.872 225.474,306.802C227.928,305.293 230.355,303.762 232.807,302.252L233.012,301.959ZM152.231,328.2C153.857,330.702 156.365,333.727 158.432,336.092C151.639,338.426 144.423,339.645 137.018,339.645C130.424,339.645 123.98,338.678 117.851,336.819L122.432,328.338C127.245,329.627 139.269,332.015 152.231,328.2ZM177.773,297.679C179.293,301.583 178.384,304.766 175.569,303.113C175.843,310.356 177.192,319.266 178.76,324.648C180.13,323.509 181.461,322.312 182.746,321.053C183.762,320.056 184.968,319.356 186.251,318.952L181.093,299.3L177.773,297.679ZM223.767,299.771C222.62,300.476 221.444,301.212 220.268,301.948L218.827,299.713C219.267,299.448 219.709,299.183 220.151,298.889C221.356,299.183 222.561,299.477 223.767,299.771ZM216.89,267.676L210.092,286.304L214.679,293.332C214.886,293.39 215.092,293.448 215.297,293.478C215.003,293.008 214.709,292.537 214.444,292.068C213.827,291.067 214.15,289.772 215.209,289.213C216.208,288.655 217.503,289.009 218.12,289.979C219.121,291.624 220.12,293.244 221.091,294.862C222.326,295.154 223.533,295.448 224.738,295.744C223.798,294.214 222.885,292.712 221.975,291.213C221.356,290.183 221.681,288.89 222.737,288.331C223.738,287.802 225.032,288.125 225.65,289.124C227.268,291.772 228.915,294.449 230.531,297.123C231.737,297.39 232.973,297.682 234.178,297.978C232.591,295.39 231.002,292.802 229.414,290.214C228.325,288.419 230.296,286.304 232.178,287.303C232.847,287.663 233.514,288.023 234.18,288.383L238.176,290.544C238.654,290.802 239.133,291.061 239.613,291.319C239.716,291.13 239.819,290.941 239.922,290.753C239.654,289.848 239.386,288.951 239.12,288.037C236.641,286.719 234.186,285.378 231.714,284.055C229.861,283.948 228.276,283.695 226.957,283.301C225.032,282.725 223.56,282.083 222.535,281.389C221.52,280.702 220.429,279.737 219.266,278.488C217.522,276.615 216.565,274.559 216.379,272.328C216.23,270.544 216.605,269.001 217.49,267.696C217.288,267.691 217.088,267.684 216.89,267.676ZM202.504,293.509L195.447,293.184L191.358,297.567L189.212,291.301L183.182,288.507L188.858,285.008L189.565,278.948L194.77,282.891L201.006,281.098L198.946,288.154L202.504,293.509ZM144.712,285.874L145.927,285.831C153.666,285.755 159.844,286.382 165.152,287.752L177.948,279.302L179.124,269.362L157.803,267.421L144.712,285.874ZM96.372,257.636C97.666,258.539 98.998,259.563 100.194,260.664C108.144,261.53 115.866,266.542 122.586,275.216C126.172,279.845 128.6,284.364 129.777,286.756C132.882,286.467 135.79,286.245 138.527,286.09L139.258,286.065L135.51,262.245L112.218,252.716L120.717,247.071L106.454,245.776L96.372,257.636ZM94.108,273.251C95.738,273.251 97.061,274.548 97.061,276.146C97.061,277.744 95.738,279.041 94.108,279.041C92.479,279.041 91.156,277.744 91.156,276.146C91.156,274.548 92.479,273.251 94.108,273.251ZM249.37,267.725C240.125,269.953 234.128,271.538 231.378,272.484C228.665,273.416 226.799,274.35 225.806,275.329C225.585,275.547 225.442,275.751 225.436,275.973C225.43,276.191 225.56,276.397 225.767,276.618C226.01,276.88 226.446,277.09 227.049,277.292C228.143,277.658 229.727,277.937 231.798,278.141C234.903,278.446 238.648,278.436 243.035,278.115C243.33,277.572 243.623,277.027 243.912,276.479C244.491,275.437 245.727,275.106 246.747,275.686C247.713,273.075 248.589,270.42 249.37,267.725ZM189.346,246.012L189.181,246.452L193.977,254.57L184.8,253.892L181.418,258.158L196.505,270.363L212.085,267.011C209.026,266.245 206.565,264.85 204.696,262.842C202.414,260.392 201.34,257.827 201.431,255.165C201.493,253.352 202.045,251.645 203.095,250.044C202.901,250.042 202.71,250.038 202.522,250.033C199.429,249.951 196.885,249.565 194.89,248.887C192.869,248.2 191.299,247.449 190.174,246.645C189.905,246.454 189.629,246.242 189.346,246.012ZM174.277,124.045C174.973,124.903 175.694,125.803 176.44,126.746C179.802,130.995 183.127,134.973 186.414,138.677C189.91,140.624 192.967,143.004 195.585,145.815C197.054,147.393 197.957,149.364 198.278,151.736C198.611,154.193 197.951,156.216 196.329,157.815C195.225,158.903 193.172,159.916 190.142,160.801C187.252,161.645 183.861,162.43 179.969,163.153C176.146,163.864 174.013,164.278 173.572,164.402C173.566,164.403 173.56,164.405 173.553,164.407C162.168,167.282 153.843,169.773 148.578,171.884C143.399,173.961 139.371,176.405 136.503,179.232L165.172,172.328C165.18,172.326 165.188,172.324 165.196,172.322C165.843,172.189 166.472,172.379 167.042,172.991C167.042,172.991 173.145,179.545 173.145,179.545C173.464,179.887 173.571,180.259 173.512,180.645C173.468,180.936 173.33,181.151 173.13,181.308C172.98,181.425 172.783,181.513 172.533,181.543C172.533,181.543 172.452,181.564 172.453,181.564C173.311,181.875 174.129,182.24 174.908,182.658C176.417,183.469 177.534,184.203 178.263,184.852C178.975,185.485 179.824,186.329 180.809,187.387C182.66,189.374 183.675,191.39 183.89,193.418C184.118,195.557 183.566,197.245 182.293,198.501C181.087,199.689 179.492,200.601 177.5,201.222C177.483,201.227 177.465,201.232 177.448,201.236C171.745,202.579 167.753,203.591 165.472,204.274C163.351,204.909 161.963,205.498 161.343,206.109C161.122,206.326 160.979,206.531 160.973,206.752C160.967,206.97 161.098,207.177 161.304,207.398C161.651,207.771 162.218,208.09 162.986,208.385C164.293,208.887 166.137,209.284 168.517,209.587C172.248,210.061 176.142,210.131 180.198,209.798C183.765,208.769 189.106,207.392 196.22,205.668C196.228,205.666 196.237,205.665 196.245,205.663C196.892,205.529 197.521,205.719 198.091,206.332C198.091,206.332 204.194,212.885 204.194,212.885C204.513,213.228 204.62,213.599 204.561,213.986C204.492,214.442 204.236,214.752 203.802,214.922C203.769,214.935 203.736,214.945 203.702,214.953C193.053,217.514 186.204,219.303 183.156,220.323C180.247,221.297 178.282,222.249 177.287,223.229C177.066,223.447 176.923,223.652 176.917,223.873C176.912,224.087 177.037,224.289 177.236,224.506L177.446,224.453L177.375,224.638C177.65,224.871 178.068,225.071 178.614,225.263C179.749,225.663 181.383,225.977 183.513,226.216C187.056,226.614 191.325,226.614 196.32,226.221C199.106,225.435 202.924,224.446 207.774,223.254C207.774,223.254 205.689,221.015 205.689,221.015C205.37,220.672 205.263,220.301 205.322,219.914C205.406,219.362 205.721,219.098 206.117,219.009L209.582,218.097C209.595,218.094 209.608,218.091 209.621,218.088C210.268,217.954 210.896,218.144 211.467,218.757C211.467,218.757 214.221,221.714 214.221,221.714C217.133,221.011 222.326,219.762 229.785,217.972C230.507,217.77 231.167,217.947 231.744,218.567C231.744,218.567 237.771,225.038 237.771,225.038C238.054,225.342 238.189,225.692 238.184,226.086C238.18,226.408 238.06,226.645 237.885,226.817C237.73,226.971 237.515,227.087 237.229,227.119C230.639,228.74 225.758,229.931 222.584,230.694C222.584,230.694 225.809,234.157 225.809,234.157C226.128,234.5 226.235,234.871 226.176,235.258C226.106,235.714 225.851,236.024 225.416,236.194C225.386,236.206 225.355,236.216 225.324,236.224L221.877,237.084C221.23,237.218 220.601,237.028 220.031,236.415C220.031,236.415 216.136,232.232 216.135,232.232C207.035,234.498 201.234,236.04 198.732,236.861C196.321,237.653 194.572,238.557 193.505,239.61C193.289,239.823 193.152,240.027 193.154,240.251C193.155,240.493 193.305,240.727 193.541,240.981C194.735,242.263 197,243.155 200.297,243.742C203.216,244.262 206.766,244.413 210.947,244.203C211.235,244.096 211.529,243.993 211.831,243.894C214.692,242.951 217.722,242.432 220.921,242.337C224.138,242.242 227.446,242.838 230.842,244.132C234.247,245.43 237.132,247.349 239.496,249.889C242.225,252.819 243.286,255.608 242.779,258.229L242.885,258.2C243.532,258.066 244.161,258.256 244.731,258.869L250.194,264.735C252.667,255.265 253.984,245.328 253.984,235.085C253.984,183.514 220.594,139.681 174.277,124.045ZM169.743,249.334L176.007,252.188L179.241,263.569L169.743,249.334ZM234.793,260.223C232.195,260.858 230.026,261.467 228.285,262.048C222.981,262.684 218.862,262.711 215.93,262.105C214.114,261.729 212.779,261.121 211.948,260.23C211.524,259.774 211.339,259.225 211.383,258.586C211.43,257.9 211.777,257.263 212.39,256.659C213.957,255.115 216.366,253.819 219.602,252.743C222.882,251.652 226.219,251.167 229.613,251.289C232.851,251.405 235.219,252.208 236.684,253.78C237.433,254.585 237.639,255.569 237.336,256.725C237.01,257.969 236.152,259.127 234.794,260.222L234.793,260.223ZM137.657,250.424L144.568,246.216L145.391,238.864L151.685,243.658L159.242,241.481L156.745,250.011L161.037,256.48L152.508,256.069L147.568,261.394L144.979,253.804L137.657,250.424ZM175.27,230.053L168.771,246.775L175.154,243.424L175.802,234.426L183.007,240.159L184.333,239.791C184.024,238.895 183.859,237.95 183.838,236.958C183.799,235.155 184.216,233.599 185.079,232.288C182.483,232.23 180.316,231.917 178.577,231.361C177.263,230.94 176.161,230.503 175.27,230.053ZM136.951,215.603L134.158,214.25L133.128,238.953L124.099,244.982L114.747,230.777L121.159,213.484L107.513,216.397L113.805,208.336L131.216,209.631L135.804,211.22L136.951,215.603ZM108.423,237.6L102.159,237.308L98.513,241.218L96.601,235.629L91.221,233.158L96.278,230.041L96.897,224.63L101.543,228.16L107.101,226.542L105.276,232.835L108.423,237.6ZM27.866,191.94L27.866,191.939C35.519,172.65 48.152,155.866 64.177,143.178L70.546,145.608L72.309,151.812L72.104,167.459L61.28,174.605L73.22,179.604L77.192,191.927L84.455,182.341L94.748,183.163L94.574,185.811L78.604,196.25L83.984,199.367L80.191,200.339L72.897,194.369L71.956,203.573L66.25,207.577L66.471,205.063L59.571,209.046L58.236,224.247L52.734,227.423L54.059,212.222L47.158,216.205L45.834,231.406L37.695,236.1L38.352,223.655L27.898,230.448L27.898,221.06L40.397,212.308L40.397,204.331L27.898,213.083L27.898,206.731L40.397,197.979L40.397,190.013L27.898,198.754L27.898,191.859C27.888,191.886 27.877,191.913 27.866,191.94ZM79.742,230.517L67.871,224.979L75.44,220.61L75.691,221.425L81.367,214.368L88.425,215.19L87.866,224.809L84.955,226.69L79.742,230.517ZM20.912,219.942L20.907,219.979L22.451,221.06L22.451,230.448L19.829,228.744C19.884,228.366 20.271,224.663 20.907,219.979L20.855,219.942L20.912,219.942ZM151.48,202.604L150.596,205.25L155.861,214.22L145.892,213.72L140.422,219.337L153.743,230.337L170.546,226.166C168.981,224.407 168.115,222.453 167.937,220.31C167.779,218.418 168.209,216.798 169.214,215.444C166.509,215.264 164.254,214.824 162.448,214.134C160.383,213.346 158.793,212.547 157.675,211.748C156.562,210.953 155.401,209.909 154.193,208.613C152.488,206.781 151.599,204.89 151.491,202.957C151.485,202.839 151.481,202.721 151.48,202.604ZM19.829,228.744C19.826,228.765 19.824,228.776 19.823,228.776C19.822,228.775 19.822,228.764 19.823,228.74L19.829,228.744ZM65.136,220.264L73.789,215.262L72.986,212.661L66.093,209.374L65.136,220.264ZM96.601,204.074L99.043,213.808L89.278,205.925L89.132,206.044L88.308,210.955L85.514,207.014L88.102,200.839L96.601,204.074ZM205.661,203.467C204.274,204.317 203.674,205.501 203.845,207.014C204.002,208.401 204.76,209.691 206.164,210.857C207.51,211.976 209.088,212.667 210.9,212.929C212.772,213.199 214.334,212.927 215.595,212.154C216.982,211.304 217.581,210.12 217.41,208.607C217.254,207.22 216.496,205.93 215.091,204.764C213.745,203.645 212.167,202.954 210.356,202.692C208.484,202.422 206.921,202.694 205.661,203.467ZM82.514,210.544L79.486,210.398L77.72,212.279L76.81,209.574L74.192,208.398L76.662,206.868L76.956,204.28L79.19,205.955L81.867,205.193L80.985,208.221L82.514,210.544ZM126.065,181.782L122.306,192.398L129.863,203.515L134.01,201.427L135.422,189.809L143.481,197.28L154.274,194.25L152.803,198.648C153.059,198.302 153.352,197.966 153.683,197.64C154.837,196.503 156.125,195.624 157.546,195.002C158.905,194.406 161.625,193.63 165.72,192.683C169.966,191.504 172.703,190.369 173.897,189.205C174.18,188.928 174.364,188.665 174.405,188.389C174.439,188.166 174.362,187.949 174.204,187.723C173.246,186.72 171.464,185.923 168.892,185.268C166.193,184.58 163.044,184.391 159.446,184.69L137.983,189.862C137.975,189.864 137.967,189.865 137.959,189.867C137.29,190.006 136.695,189.823 136.19,189.28L132.541,185.362C132.001,185.248 131.367,185.05 130.642,184.76C128.971,184.092 127.445,183.101 126.065,181.782ZM115.777,199.663L109.482,199.367L105.835,203.281L103.923,197.691L98.543,195.22L103.629,192.104L104.248,186.693L108.894,190.222L114.453,188.605L112.601,194.897L115.777,199.663ZM77.897,171.429L78.337,167.43L81.778,170.016L85.896,168.84L84.543,173.488L86.866,177.018L82.22,176.782L79.544,179.693L78.132,175.546L74.133,173.723L77.897,171.429ZM122.883,176.036C122.837,175.683 122.813,175.324 122.81,174.96C122.796,172.681 123.593,170.753 125.196,169.173C127.851,166.556 131.214,164.389 135.288,162.679C139.083,161.086 144.446,159.387 151.381,157.586C151.381,157.586 139.272,144.583 139.272,144.583C138.157,144.81 136.432,145.151 134.097,145.606C131.443,146.122 129.531,146.485 128.36,146.695C127.188,146.905 125.428,147.196 123.079,147.567C120.7,147.944 118.887,148.16 117.64,148.22C116.41,148.279 114.85,148.349 112.959,148.431C112.585,148.447 112.225,148.457 111.877,148.461L109.747,157.196L114.276,164.488L105.19,163.989L99.925,169.899L109.924,179.399L122.883,176.036ZM94.514,161.341L96.985,162.165L98.159,168.871L95.955,167.105L95.131,178.694L90.337,172.399L94.514,161.341ZM83.074,163.666L76.485,157.665L83.337,148.607L95.69,149.489L95.338,154.195L88.573,158.167L92.865,160.636L83.074,163.666ZM106.1,159.665L103.07,159.548L101.308,161.429L100.396,158.724L97.779,157.519L100.248,156.018L100.544,153.43L102.778,155.108L105.455,154.343L104.571,157.371L106.1,159.665ZM146.803,143.304C162.224,141.015 174.404,141.191 183.361,143.865L185.362,146.013C186.437,147.167 187.411,148.108 188.283,148.838C187.362,149.336 186.094,149.773 184.484,150.164C182.238,150.71 179.136,151.343 175.177,152.065C171.184,152.794 167.774,153.499 164.947,154.182C162.243,154.831 160.084,155.382 158.47,155.832L146.803,143.304ZM164.827,121.295C155.857,119.09 146.473,117.92 136.819,117.92C130.595,117.92 124.483,118.406 118.521,119.343C118.7,119.569 118.894,119.795 119.104,120.02C121.015,122.072 123.459,123.254 126.431,123.572C129.294,123.879 131.31,123.555 132.446,122.436C132.761,122.125 133.091,122.03 133.385,122.048C133.668,122.065 133.966,122.187 134.23,122.498C134.422,122.725 134.621,123.104 134.789,123.633C135.449,125.382 135.162,126.823 134.001,127.967C131.864,130.073 128.388,130.909 123.54,130.334C118.816,129.775 114.627,127.551 110.986,123.641C110.272,122.875 109.632,122.072 109.065,121.233C103.861,122.498 98.791,124.113 93.883,126.049L90.279,137.638L96.043,146.373L96.424,144.019L102.984,150.225L109.777,148.395C109.181,148.347 108.64,148.274 108.156,148.175C106.958,147.93 105.652,147.634 104.238,147.287C102.75,146.922 101.44,146.379 100.306,145.664C99.185,144.957 98.144,144.089 97.184,143.058C95.138,140.862 94.019,138.25 93.83,135.221C93.636,132.101 94.285,129.883 95.653,128.535C96.273,127.924 96.923,127.565 97.587,127.427C98.477,127.243 99.069,127.447 99.406,127.809C99.547,127.96 99.747,128.386 99.88,129.126C99.951,129.522 100.116,129.864 100.38,130.147C101.535,131.388 102.882,132.365 104.42,133.079C105.995,133.811 108.245,134.38 111.164,134.801C114.137,135.231 118.047,135.302 122.893,135.023C127.788,134.74 133.789,134.123 140.898,133.171C154.423,131.351 165.934,131.71 175.432,134.229C175.077,133.76 174.647,133.198 174.145,132.542C172.662,130.606 171.585,129.213 170.911,128.361C170.241,127.512 169.09,126.148 167.459,124.268C166.607,123.287 165.73,122.296 164.827,121.295ZM75.653,135.155C76.528,134.618 77.411,134.092 78.301,133.577L79.749,134.667L84.19,133.374L82.72,138.431L85.251,142.255L80.22,142.02L77.309,145.137L75.78,140.668L71.456,138.668L75.543,136.168L75.653,135.155ZM180.189,106.092C174.413,104.148 168.461,102.581 162.366,101.421C161.639,100.11 160.883,98.715 160.126,97.318C160.038,97.141 159.95,96.995 159.89,96.847C157.125,91.759 155.303,86.083 153.862,80.436L179.889,104.287L180.419,105.288C180.419,105.288 180.253,105.564 180.189,106.092ZM118.771,95.738C121.885,90.842 124.147,85.327 126.011,79.759L98.278,101.641L96.631,104.2L96.893,104.984C100.637,103.835 104.45,102.843 108.323,102.016C108.774,101.395 109.284,100.804 109.853,100.242C112.098,98.03 115.067,96.522 118.771,95.738ZM135.95,51.587C137.215,50.409 138.892,49.792 140.627,49.852C142.334,49.909 143.98,50.645 145.127,51.938C146.303,53.174 146.951,54.849 146.862,56.556C146.803,58.291 146.038,59.908 144.803,61.086C143.509,62.26 141.863,62.879 140.128,62.819C138.421,62.762 136.775,62.026 135.628,60.733C134.452,59.497 133.804,57.82 133.864,56.115C133.952,54.35 134.717,52.763 135.95,51.587ZM207.857,15.296C218.916,11.766 223.15,20.353 218.297,30.998C205.298,42.235 188.889,48.674 171.713,49.233C178.065,33.087 191.329,20.618 207.857,15.296ZM64.545,25.293C60.458,14.325 65.338,6.09 76.074,10.442C92.16,16.971 104.454,30.352 109.63,46.91C92.543,45.117 76.633,37.47 64.545,25.293Z" style="fill:none;stroke:rgb(255,0,0);stroke-width:1px;"/>
</svg>
