<?xml version="1.0" encoding="UTF-8" standalone="no"?>
<!DOCTYPE svg PUBLIC "-//W3C//DTD SVG 1.1//EN" "http://www.w3.org/Graphics/SVG/1.1/DTD/svg11.dtd">
<svg width="100%" height="100%" viewBox="0 0 1123 794" version="1.1" xmlns="http://www.w3.org/2000/svg" xmlns:xlink="http://www.w3.org/1999/xlink" xml:space="preserve" xmlns:serif="http://www.serif.com/" style="fill-rule:evenodd;clip-rule:evenodd;stroke-linejoin:round;stroke-miterlimit:2;">
    <path d="M144.768,40.265C146.525,40.302 148.11,40.912 149.422,41.91C150.863,43.057 151.891,44.704 152.273,46.587C152.802,46.587 182.859,16.178 188.975,12.177C194.836,8.337 202.831,5.966 211.003,5.93C211.404,5.929 211.807,5.932 212.21,5.942C221.975,6.413 230.502,10.413 234.032,19.412C239.942,32.998 232.913,47.381 232.854,60.821C232.825,76.702 247.707,93.348 235.179,108.435C229.972,113.729 222.856,118.846 215.857,121.903L215.797,121.903L214.909,122.185L213.44,122.66C235.271,137.575 252.544,158.68 262.718,183.428L263.146,184.482L263.635,185.717L264.183,187.147L264.715,188.58L264.956,189.247L265.465,190.694L265.958,192.147L266.475,193.735L266.941,195.223L267.39,196.719L267.822,198.222L268.318,200.033L268.765,201.757L269.14,203.283L269.499,204.816L269.84,206.356L270.097,207.582L270.267,208.418L270.567,209.973L270.849,211.533L271.113,213.1L271.309,214.338L271.419,215.073L271.66,216.779L271.864,218.366L272.05,219.958L272.182,221.204L272.257,221.958L272.366,223.158L272.397,223.517L272.519,225.075L272.624,226.63L272.71,228.177L272.746,228.945L272.807,230.524L272.85,232.102C272.861,232.627 272.87,233.152 272.875,233.676L272.882,235.204L272.88,235.812C272.877,236.27 272.873,236.727 272.866,237.183L272.845,238.277C272.836,238.637 272.827,238.997 272.816,239.357L272.77,240.666L272.707,242.056L272.66,242.916C272.616,243.693 272.566,244.469 272.509,245.242L272.378,246.891L272.235,248.448L272.115,249.632L271.964,250.996L271.773,252.558L271.607,253.813L271.429,255.064L271.176,256.717L270.983,257.897L270.743,259.275L270.405,261.091L270.108,262.584L269.863,263.752L269.428,265.714L269.074,267.212L268.795,268.344L268.42,269.801L268.042,271.21L267.725,272.344L267.361,273.601L266.892,275.16L266.363,276.838L265.822,278.487L265.452,279.56L265.025,280.738L264.863,281.178C264.752,281.514 264.639,281.848 264.5,282.186C263.205,285.714 261.764,289.155 260.177,292.537C259.764,293.448 259.353,294.331 258.911,295.213C258.206,296.654 257.441,298.096 256.707,299.508C256.647,299.565 256.619,299.654 256.588,299.713C255.177,302.329 253.677,304.919 252.09,307.419L251.385,308.513L250.98,309.103L250.316,310.136L249.767,310.943L249.354,311.546L249.354,311.565C249.088,312.005 248.794,312.416 248.472,312.829C247.32,314.5 246.13,316.138 244.904,317.745L244.816,317.86C243.221,319.948 241.565,321.984 239.854,323.976L239.073,324.871L238.079,325.991L237.478,326.655L236.874,327.314L236.265,327.97L235.652,328.622L235.034,329.27L234.413,329.913L233.787,330.553L233.157,331.188L232.523,331.819L231.885,332.446L231.243,333.069L230.597,333.688L229.946,334.303L229.292,334.913L228.634,335.519L227.305,336.718L225.961,337.9L224.601,339.064L223.226,340.21L221.835,341.339L220.43,342.45L219.251,343.358L218.294,344.082L217.12,344.95L216.125,345.672L214.957,346.501L213.924,347.22L212.763,348.011L211.691,348.725L210.538,349.478L209.428,350.187L208.283,350.903L207.134,351.605L205.999,352.284L204.81,352.979L203.686,353.621L202.128,354.488L200.557,355.336L199.718,355.777L198.921,356.19L198.122,356.597L197.319,356.999L196.514,357.396L195.706,357.788L194.894,358.175L194.08,358.556L193.263,358.932L192.443,359.303L191.621,359.668L190.795,360.029L189.967,360.383L189.136,360.733L188.303,361.077L187.466,361.416L186.627,361.749L185.472,362.197L184.208,362.674L183.508,362.932C175.658,365.798 167.471,367.962 159.021,369.348L157.605,369.572L156.197,369.781L154.318,370.035L152.436,370.263L150.549,370.465L148.516,370.653L146.646,370.8L144.654,370.927L142.787,371.02L140.923,371.087L139.53,371.121L138.144,371.142L136.819,371.148L135.472,371.141L135.01,371.136L133.308,371.103L132.116,371.068L131.571,371.048C131.011,371.027 130.452,371.002 129.893,370.974L128.91,370.921L128.07,370.87L126.787,370.783L125.344,370.67L124.595,370.605L123.757,370.528L122.78,370.431L121.461,370.29L119.917,370.108L119.147,370.01L118.622,369.94C61.059,362.253 14.891,318.582 3.474,262.277L3.239,261.09L2.955,259.579L2.689,258.062L2.439,256.54L2.206,255.012L1.989,253.478L1.79,251.939L1.609,250.395L1.444,248.846L1.295,247.267L1.199,246.139L1.071,244.412L1.03,243.782L0.93,242.013L0.887,241.098L0.867,240.61L0.814,239.101L0.782,237.765L0.762,236.427L0.756,235.069L0.761,233.92L0.78,232.504L0.814,231.055L0.874,229.343L0.941,227.924L1.04,226.215L1.16,224.51L1.339,222.399L1.503,220.733L1.754,218.52L1.965,216.867L2.116,215.769L2.36,214.126L2.623,212.491L2.832,211.276L3.004,210.32L3.25,209.022L3.391,208.305L3.7,206.805L3.847,206.115L4.228,204.413L4.525,203.156L4.699,202.441L5.07,200.971L5.248,200.286L5.705,198.602L6.047,197.393L6.255,196.679L6.685,195.245L7.142,193.78L7.652,192.213L8.179,190.657L8.724,189.112L9.286,187.576L9.865,186.051L10.462,184.535L11.076,183.028L11.589,181.809L12.228,180.334L12.884,178.867L13.557,177.41L14.247,175.963L14.953,174.524L15.675,173.096L16.414,171.677L17.169,170.268L17.681,169.334L18.2,168.404L18.727,167.479L19.26,166.559L19.8,165.643L20.347,164.732L20.901,163.825L21.462,162.923L21.995,162.081C24.011,158.918 26.155,155.843 28.418,152.865L29.105,151.969L30.119,150.673L31.137,149.404L32.163,148.156L33.2,146.924L34.249,145.708L35.309,144.506L36.64,143.037L37.833,141.756L39.206,140.322L40.549,138.958L41.845,137.678L43.198,136.376L44.743,134.932L46.31,133.513L47.5,132.464L48.702,131.429L49.916,130.407L51.142,129.4L52.38,128.406L53.63,127.427L54.892,126.462L56.165,125.511L57.449,124.575L58.745,123.654L60.052,122.747L61.369,121.855L62.698,120.978L64.037,120.117L64.936,119.551L65.84,118.992C65.398,118.817 65.044,118.669 64.75,118.492L64.722,118.492C55.281,115.374 48.341,108.758 41.958,101.287C30.577,85.318 46.666,69.791 47.751,53.967C48.723,40.557 42.782,25.706 49.694,12.56C53.84,3.853 62.664,0.531 72.427,0.768C81.014,1.208 89.338,4.267 95.161,8.707C107.57,18.236 119.159,31.999 128.776,45.146C128.776,44.116 130.394,42.292 132.157,41.293C133.276,40.617 134.598,40.263 136.01,40.263L144.597,40.263L144.768,40.265ZM233.106,301.981L233,302.134C230.483,303.681 227.993,305.253 225.474,306.802C223.721,307.892 224.466,310.555 226.475,310.623C225.699,311.543 224.907,312.453 224.102,313.349L223.767,313.36C222.62,313.389 221.681,314.328 221.65,315.475C221.645,315.641 221.659,315.803 221.69,315.957C200.328,338.368 170.192,352.34 136.819,352.34C129.603,352.34 122.539,351.687 115.679,350.436L134.186,327.506L164.772,329.681L159.508,320.888L165.184,312.093L175.802,312.975L170.243,303.566L173.565,295.625L181.093,299.3L186.535,320.035L200.475,303.418L218.297,304.448C218.326,304.8 218.445,305.153 218.65,305.447C219.327,306.417 220.62,306.683 221.621,306.066C224.267,304.448 226.915,302.799 229.591,301.155C230.762,301.438 231.935,301.697 233.106,301.981ZM107.895,341.033L113.364,348.678L110.159,337.003L107.895,341.033ZM104.571,345.769L100.63,345.592L99.878,346.393C99.065,346.123 98.255,345.844 97.449,345.556L97.102,344.532L93.718,342.975L96.925,341.004L97.306,337.591L100.219,339.797L103.749,338.798L102.571,342.768L104.571,345.769ZM85.131,273.303L79.354,270.4L80.178,272.648C80.193,272.692 80.209,272.736 80.222,272.78C81.181,275.96 79.411,279.432 76.27,280.531C74.342,281.206 72.35,280.866 70.84,279.792C71.014,281.638 70.315,283.537 68.77,284.872C67.596,285.888 66.126,286.394 64.662,286.394C62.977,286.394 61.301,285.725 60.085,284.426C60.052,284.392 60.022,284.357 59.993,284.321L57.193,280.956L57.193,288.369C57.193,291.684 54.444,294.418 50.997,294.418C47.547,294.418 44.798,291.684 44.798,288.369L44.798,280.956L41.998,284.321C41.969,284.357 41.939,284.392 41.906,284.426C39.633,286.853 35.746,287.057 33.221,284.874L33.221,284.872C31.676,283.537 30.977,281.638 31.152,279.792C30.457,280.285 29.66,280.624 28.814,280.779C39.992,307.142 60.547,328.582 86.29,340.908L91.19,337.739L92.396,325.651L101.189,333.062L108.66,330.739L105.749,320.828L76.779,308.771L84.691,302.624L82.543,295.744L74.367,291.949L81.926,286.273L82.749,277.684L87.308,281.333L85.131,273.303ZM117.923,310.182L108.954,306.066L117.395,300.861L118.423,291.83L126.187,297.713L135.451,295.037L132.392,305.535L137.657,313.475L127.187,312.975L121.099,319.533L117.923,310.182ZM158.478,319.476L151.155,307.801L156.126,310.066L158.478,319.476ZM156.891,305.007L159.832,303.212L160.184,300.067L162.889,302.125L166.096,301.183L165.036,304.83L166.861,307.595L163.243,307.419L161.125,309.711L160.007,306.448L156.891,305.007ZM169.832,294.508L163.95,296.566L155.684,289.92L154.539,300.772L148.686,303.77L158.714,273.038L151.862,274.421L157.803,267.421L179.124,269.362L177.948,279.302L160.979,290.508L169.832,294.508ZM223.767,299.771C222.62,300.476 221.444,301.212 220.268,301.948L218.827,299.713C219.267,299.448 219.709,299.183 220.151,298.889C221.356,299.183 222.561,299.477 223.767,299.771ZM91.073,297.625L88.014,301.654L94.543,297.832L91.073,297.625ZM234.064,271.125C231.925,271.873 230.048,272.473 228.435,272.925C225.716,273.688 223.53,274.007 221.88,273.901C220.165,273.792 218.879,273.493 218.013,273.038C217.242,272.632 216.441,272.013 215.614,271.173L210.092,286.304L214.679,293.332C214.886,293.39 215.092,293.448 215.297,293.478C215.003,293.008 214.709,292.537 214.444,292.068C213.827,291.067 214.15,289.772 215.209,289.213C216.208,288.655 217.503,289.009 218.12,289.979C219.121,291.624 220.12,293.244 221.091,294.862C222.326,295.154 223.533,295.448 224.738,295.744C223.798,294.214 222.885,292.712 221.975,291.213C221.356,290.183 221.681,288.89 222.737,288.331C223.738,287.802 225.032,288.125 225.65,289.124C227.268,291.772 228.915,294.449 230.531,297.123C231.737,297.39 232.973,297.682 234.178,297.978C232.591,295.39 231.002,292.802 229.414,290.214C228.325,288.419 230.296,286.304 232.178,287.303C234.692,288.656 237.18,290.008 239.692,291.362L239.958,290.875C239.678,289.929 239.398,288.992 239.12,288.037C236.355,286.567 233.619,285.068 230.856,283.596C229.854,283.068 229.414,281.773 229.914,280.745C230.414,279.657 231.678,279.244 232.737,279.803C234.297,280.656 235.855,281.479 237.414,282.332C237.06,281.125 236.708,279.949 236.355,278.744C234.65,277.832 232.973,276.95 231.296,276.039C230.296,275.48 229.885,274.216 230.356,273.186C230.856,272.098 232.12,271.685 233.179,272.244C233.649,272.509 234.149,272.774 234.65,273.038C234.448,272.402 234.254,271.765 234.064,271.125ZM202.504,293.509L195.447,293.184L191.358,297.567L189.212,291.301L183.182,288.507L188.858,285.008L189.565,278.948L194.77,282.891L201.006,281.098L198.946,288.154L202.504,293.509ZM92.631,293.39L89.278,293.213L87.308,295.331L86.279,292.331L83.396,291.007L86.132,289.332L86.455,286.419L88.926,288.302L91.926,287.449L90.927,290.83L92.631,293.39ZM95.661,275.126L103.66,275.774L102.836,292.331L98.924,294.566L95.807,289.772L98.543,281.596L89.338,283.271L95.661,275.126ZM179.514,125.858C181.022,127.609 182.738,129.788 184.663,132.395C187.177,135.8 189.691,138.946 192.203,141.832C195.147,142.944 197.642,144.597 199.69,146.787C200.856,148.035 201.472,149.823 201.48,152.171C201.488,154.471 200.696,156.589 199.092,158.519C197.987,159.849 196.049,161.319 193.262,162.909C190.552,164.455 187.397,166.063 183.797,167.732C180.242,169.379 178.257,170.318 177.843,170.549C177.839,170.552 177.835,170.554 177.83,170.556C167.173,176.216 159.333,180.745 154.311,184.145C150.772,186.542 147.742,188.985 145.224,191.476C147.318,191.998 149.615,192.219 151.763,192.04L178.753,178.024C178.759,178.021 178.764,178.019 178.77,178.016C179.444,177.689 180.028,177.8 180.525,178.331C180.525,178.331 185.265,183.402 185.265,183.402C185.537,183.694 185.641,184.055 185.531,184.496C185.432,184.895 185.186,185.183 184.775,185.338C184.775,185.338 184.417,185.533 184.418,185.533C185.107,185.638 185.76,185.799 186.376,186.014C187.683,186.471 188.633,186.953 189.233,187.438C189.81,187.905 190.488,188.552 191.264,189.383C192.735,190.956 193.44,192.757 193.392,194.781C193.345,196.786 192.693,198.541 191.441,200.048C190.24,201.493 188.727,202.756 186.9,203.834C186.889,203.841 186.878,203.847 186.866,203.853C181.54,206.589 177.803,208.578 175.656,209.819C173.598,211.007 172.233,211.982 171.579,212.768C171.098,213.348 170.882,213.793 171.228,214.163C171.468,214.42 171.895,214.562 172.482,214.658C173.595,214.84 175.202,214.785 177.303,214.51C180.629,214.074 184.152,213.192 187.871,211.865C191.22,209.966 196.219,207.285 202.867,203.823C202.873,203.82 202.879,203.817 202.884,203.814C203.559,203.487 204.143,203.598 204.64,204.13L205.078,204.599C205.253,203.469 205.863,202.429 206.932,201.492C208.135,200.438 209.546,199.819 211.167,199.638C212.835,199.452 214.228,199.786 215.353,200.607C216.542,201.473 217.119,202.619 217.094,204.038C217.07,205.407 216.448,206.655 215.187,207.761C213.984,208.815 212.573,209.433 210.953,209.614C210.496,209.665 210.06,209.677 209.644,209.651C209.702,209.843 209.705,210.057 209.646,210.294C209.557,210.652 209.358,210.936 209.046,211.144C209.026,211.158 209.005,211.17 208.983,211.182C199.033,216.345 192.616,219.809 189.734,221.575C186.929,223.293 185,224.767 183.962,226.016C183.481,226.595 183.266,227.041 183.612,227.411C183.788,227.6 184.129,227.679 184.6,227.738C185.573,227.861 187.001,227.775 188.886,227.497C192.05,227.031 195.92,225.987 200.496,224.373C203.174,222.871 206.859,220.891 211.552,218.434C211.552,218.434 209.898,216.665 209.898,216.665C209.626,216.373 209.523,216.012 209.632,215.571C209.736,215.151 209.96,214.897 210.23,214.761L213.478,213.002C213.486,212.997 213.495,212.993 213.504,212.988C214.178,212.661 214.763,212.772 215.26,213.304C215.26,213.304 217.284,215.47 217.284,215.47C220.011,214.052 224.846,211.543 231.787,207.944C232.13,207.755 232.448,207.691 232.734,207.717C233.063,207.747 233.366,207.89 233.629,208.171C233.629,208.171 238.309,213.179 238.309,213.179C238.556,213.442 238.677,213.787 238.619,214.23C238.558,214.698 238.31,215.016 237.875,215.18C231.481,218.533 226.809,220.974 223.859,222.504C223.859,222.504 226.399,225.22 226.399,225.22C226.671,225.512 226.774,225.873 226.665,226.314C226.576,226.672 226.377,226.956 226.065,227.164C226.046,227.177 226.026,227.189 226.006,227.2L222.793,228.897C222.119,229.224 221.535,229.113 221.038,228.581C221.038,228.581 218.126,225.467 218.126,225.467C209.639,229.944 204.215,232.897 201.855,234.328C199.526,235.74 197.798,237.112 196.681,238.456C196.195,239.041 196.015,239.514 196.389,239.915C196.804,240.358 197.45,240.645 198.308,240.819C199.283,241.016 200.509,241.054 201.986,240.945C204.571,240.753 207.772,240.036 211.589,238.803C211.869,238.62 212.156,238.44 212.448,238.263C215.135,236.631 217.922,235.381 220.812,234.512C223.747,233.628 226.68,233.422 229.611,233.892C232.6,234.371 235.03,235.62 236.906,237.628C238.975,239.841 239.683,242.276 239.033,244.932C239.616,244.726 240.128,244.865 240.571,245.339C240.571,245.339 245.311,250.41 245.311,250.41C245.583,250.701 245.687,251.063 245.577,251.504C245.489,251.861 245.29,252.145 244.977,252.354C244.957,252.367 244.936,252.38 244.914,252.391C235.759,257.138 229.833,260.348 227.139,262.022C224.518,263.651 222.683,265.081 221.645,266.33C221.164,266.909 220.949,267.355 221.295,267.725C221.455,267.896 221.772,267.954 222.213,268.001C223.153,268.1 224.541,267.992 226.379,267.693C229.54,267.178 233.503,266.051 238.268,264.317C238.318,264.299 238.37,264.287 238.422,264.281C238.823,264.236 239.082,264.375 239.242,264.547C239.401,264.716 239.518,264.974 239.455,265.342C239.364,266.783 239.288,267.81 239.227,268.412C239.199,269.017 238.91,269.364 238.469,269.517L237.978,269.702C238.194,270.412 238.411,271.123 238.618,271.833C238.885,271.362 239.149,270.861 239.414,270.392C239.973,269.331 241.266,269.01 242.265,269.627C243.266,270.215 243.589,271.508 243.059,272.538L240.325,277.569C240.678,278.744 241.03,279.949 241.383,281.125C242.236,279.569 243.09,278.039 243.912,276.479C244.5,275.42 245.766,275.096 246.796,275.714L246.825,275.733C251.513,263.07 254.074,249.374 254.074,235.085C254.074,185.429 223.141,142.941 179.514,125.858ZM98.806,255.804L106.454,245.776L120.717,247.071L112.218,252.716L135.51,262.245L139.303,278.155L128.657,280.979L104.542,260.512L103.66,269.596L100.984,266.009L104.69,255.07L98.806,255.804ZM33.617,275.518L35.978,260.906L44.798,256.088L45.284,265.759L33.617,275.518ZM68.374,275.516L56.423,266.816L57.193,256.088L66.785,261.932L68.374,275.516ZM190.133,243.915L189.181,246.452L193.977,254.57L184.8,253.892L181.418,258.158L196.505,270.363L213.432,266.721C213.381,266.266 213.367,265.792 213.389,265.299C213.462,263.658 213.932,262.119 214.802,260.684C209.807,261.818 206.215,261.126 204.01,258.767C202.208,256.839 201.504,254.51 201.91,251.778C202.168,250.044 202.822,248.295 203.88,246.534C203.841,246.544 203.802,246.553 203.763,246.563C200.962,247.238 198.695,247.469 196.963,247.276C195.176,247.077 193.814,246.693 192.87,246.15C192.021,245.662 191.107,244.92 190.133,243.915ZM95.955,263.598C95.955,263.598 93.726,264.232 93.726,264.232C94.485,265.959 94.443,268.037 93.413,269.845L96.72,269.979C96.72,269.979 94.896,267.246 94.896,267.246L95.955,263.598ZM169.743,249.334L176.007,252.188L179.241,263.569L169.743,249.334ZM137.657,250.424L144.568,246.216L145.391,238.864L151.685,243.658L159.242,241.481L156.745,250.011L161.037,256.48L152.508,256.069L147.568,261.394L144.979,253.804L137.657,250.424ZM216.236,259.811L216.159,259.648C216.251,259.622 216.344,259.595 216.437,259.567L216.236,259.811ZM93.065,254.373C92.686,254.936 92.218,255.437 91.68,255.854L93.838,257.628C93.838,257.628 93.065,254.373 93.065,254.373ZM231.314,248.988C228.861,250.271 226.807,251.419 225.151,252.432C220.263,254.368 216.528,255.403 213.943,255.511C212.433,255.575 211.357,255.343 210.748,254.692C210.44,254.363 210.386,253.887 210.494,253.281C210.63,252.521 211.051,251.737 211.734,250.915C213.363,248.956 215.735,247.032 218.842,245.135C221.957,243.233 225.051,241.925 228.125,241.216C230.952,240.564 232.93,240.721 234.033,241.901C234.603,242.511 234.603,243.424 234.2,244.629C233.731,246.03 232.763,247.478 231.315,248.988L231.314,248.988ZM177.771,247.63L179.977,246.275L180.242,243.924L182.271,245.453L184.683,244.775L183.889,247.511L185.242,249.569L182.534,249.452L180.947,251.158L180.094,248.718L177.771,247.63ZM19.892,243.913L30.396,239.854L39.892,245.33L30.696,251.158L20.154,246.913C20.055,245.921 19.967,244.919 19.892,243.913ZM85.767,245.33L71.954,250.362L62.099,245.33L72.204,240.111L85.767,245.33ZM176.101,227.915L168.771,246.775L175.154,243.424L175.802,234.426L183.007,240.159L188.113,238.741C188.117,238.448 188.134,238.147 188.165,237.839C188.334,236.152 188.846,234.589 189.702,233.15C187.528,233.656 185.726,233.839 184.299,233.713C182.551,233.559 181.25,233.241 180.39,232.788C179.531,232.336 178.613,231.597 177.643,230.56C176.926,229.792 176.41,228.911 176.101,227.915ZM90.909,245.299L90.892,245.226C90.821,245.263 90.748,245.297 90.675,245.33C90.767,245.374 90.859,245.418 90.949,245.466L90.909,245.299ZM136.951,215.603L134.158,214.25L133.128,238.953L124.099,244.982L114.747,230.777L121.159,213.484L107.513,216.397L113.805,208.336L131.216,209.631L135.804,211.22L136.951,215.603ZM108.423,237.6L102.159,237.308L98.513,241.218L96.601,235.629L91.221,233.158L96.278,230.041L96.897,224.63L101.543,228.16L107.101,226.542L105.276,232.835L108.423,237.6ZM33.617,215.144L45.803,224.221L44.798,234.574L35.216,230.049L33.617,215.144ZM68.374,215.144L65.894,229.603L57.193,234.572L57.247,224.607L68.374,215.144ZM175.775,224.868C175.88,223.183 176.408,221.606 177.362,220.14C175.097,220.558 173.225,220.641 171.748,220.403C169.936,220.111 168.565,219.685 167.629,219.148C166.695,218.611 165.746,217.832 164.786,216.805C163.429,215.353 162.819,213.648 162.956,211.693C163.087,209.804 163.916,207.916 165.473,206.043C166.623,204.659 167.862,203.495 169.188,202.55C170.483,201.627 173.024,200.197 176.824,198.26C180.873,196.008 183.527,194.157 184.766,192.676C185.05,192.338 185.253,192.026 185.364,191.734C185.469,191.461 185.484,191.218 185.364,191.002C184.64,190.277 183.188,189.973 181.047,189.945C178.685,189.915 175.859,190.497 172.565,191.675L152.515,202.09C152.51,202.092 152.505,202.095 152.499,202.098C152.165,202.26 151.862,202.317 151.589,202.28L150.596,205.25L155.861,214.22L145.892,213.72L140.422,219.337L153.743,230.337L175.775,224.868ZM81.367,214.368L80.453,215.505C80.529,216.287 80.46,217.092 80.222,217.88C80.209,217.926 80.195,217.97 80.178,218.015L78.666,222.142L85.066,218.437C86.073,217.855 87.185,217.602 88.282,217.649L88.425,215.19L81.367,214.368ZM64.079,143.141L70.546,145.608L72.309,151.812L72.104,167.459L61.28,174.605L73.22,179.604L77.192,191.927L84.455,182.341L94.748,183.163L94.574,185.811L78.604,196.25L83.984,199.367L80.191,200.339L72.897,194.369L71.956,203.573L68.783,205.8L68.77,205.788C66.245,203.605 62.358,203.809 60.085,206.234C60.052,206.269 60.022,206.305 59.993,206.34L57.193,209.706L57.193,202.293C57.193,198.979 54.444,196.242 50.997,196.242C47.547,196.242 44.798,198.979 44.798,202.293L44.798,209.706L41.998,206.34C41.969,206.305 41.939,206.269 41.906,206.234C39.633,203.809 35.746,203.605 33.221,205.788C31.676,207.124 30.977,209.024 31.152,210.871C29.641,209.796 27.649,209.456 25.722,210.131C22.578,211.23 20.81,214.7 21.769,217.88C21.783,217.926 21.796,217.97 21.813,218.015L23.325,222.142L20.466,220.486C24.353,189.233 40.563,161.778 64.079,143.141ZM85.514,207.014L88.102,200.839L96.601,204.074L99.043,213.808L89.278,205.925L89.132,206.044L88.308,210.955L85.514,207.014ZM82.514,210.544L80.985,208.221L81.867,205.193L79.19,205.955L76.956,204.28L76.662,206.868L74.192,208.398L76.81,209.574L77.123,210.504C77.62,210.767 78.073,211.095 78.475,211.475L79.486,210.398L82.514,210.544ZM146.862,208.692L143.215,208.544L141.127,210.807L140.01,207.573L136.892,206.132L139.834,204.309L140.185,201.192L142.862,203.219L146.098,202.31L145.039,205.955L146.862,208.692ZM134.123,200.496C133.39,200.087 132.716,199.553 132.101,198.895C130.747,197.447 130.182,195.579 130.443,193.28C130.693,191.075 131.606,189.016 133.192,187.108C135.879,183.874 139.148,180.918 143,178.24C146.675,175.685 151.827,172.627 158.457,169.068C158.457,169.068 149.135,159.094 149.135,159.094C148.098,159.593 146.515,160.346 144.385,161.353C141.923,162.516 140.151,163.345 139.067,163.84C137.982,164.335 136.356,165.055 134.188,165.999C131.997,166.953 130.335,167.61 129.202,167.973C128.083,168.331 126.663,168.782 124.943,169.324C123.153,169.889 121.713,170.189 120.624,170.238C119.568,170.285 118.42,170.308 117.179,170.305C115.841,170.302 114.691,170.068 113.725,169.617C112.763,169.167 111.895,168.531 111.123,167.706C110.223,166.743 109.595,165.579 109.249,164.212L105.19,163.989L99.925,169.899L109.924,179.399L114.896,178.109L118.768,181.963L124.802,185.348L122.306,192.398L129.863,203.515L134.01,201.427L134.123,200.496ZM103.629,192.104L104.248,186.693L108.894,190.222L114.453,188.605L112.601,194.897L115.777,199.663L109.482,199.367L105.835,203.281L103.923,197.691L98.543,195.22L103.629,192.104ZM145.488,196.716C144.245,196.232 143.022,195.712 141.888,195.194C141.795,195.318 141.708,195.44 141.625,195.56L143.481,197.28L145.488,196.716ZM77.897,171.429L78.337,167.43L81.778,170.016L85.896,168.84L84.543,173.488L86.866,177.018L82.22,176.782L79.544,179.693L78.132,175.546L74.133,173.723L77.897,171.429ZM94.514,161.341L96.985,162.165L98.159,168.871L95.955,167.105L95.131,178.694L90.337,172.399L94.514,161.341ZM155.797,156.105C170.14,149.972 181.225,147.119 189.073,147.588L190.552,149.17C191.377,150.052 192.139,150.752 192.837,151.275C191.906,152.066 190.615,152.887 188.968,153.746C186.868,154.841 183.982,156.233 180.31,157.923C176.614,159.623 173.448,161.159 170.811,162.53C168.311,163.826 166.307,164.895 164.799,165.735L155.797,156.105ZM83.074,163.666L76.485,157.665L83.337,148.607L95.69,149.489L95.338,154.195L88.573,158.167L92.865,160.636L83.074,163.666ZM106.1,159.665L103.07,159.548L101.308,161.429L100.396,158.724L97.779,157.519L100.248,156.018L100.544,153.43L102.778,155.108L105.455,154.343L104.571,157.371L106.1,159.665ZM131.662,117.941C118.392,118.517 105.693,121.302 93.918,125.938L90.279,137.638L96.043,146.373L96.424,144.019L102.984,150.225L112.042,147.785L110.183,155.41C110.5,154.751 110.877,154.161 111.31,153.639C111.896,152.935 112.481,152.453 113.052,152.176C113.475,151.97 113.818,151.891 114.068,151.895C114.397,151.9 114.64,152.021 114.817,152.21C114.89,152.288 114.976,152.415 115.033,152.611C115.086,152.791 115.129,153.096 115.149,153.528C115.164,153.857 115.242,154.123 115.42,154.313C116.281,155.234 117.339,155.857 118.593,156.183C119.919,156.528 121.865,156.543 124.432,156.256C127.072,155.961 130.601,155.079 135.021,153.617C139.486,152.141 144.993,150.059 151.542,147.373C164.231,142.158 174.764,139.722 183.134,140.032C182.838,139.605 182.455,139.058 181.986,138.393C180.878,136.819 180.07,135.689 179.563,135.001C179.06,134.318 178.184,133.239 176.938,131.761C175.686,130.277 174.353,128.778 172.939,127.266C170.646,124.813 167.763,123.05 164.293,121.97C160.792,120.881 157.266,120.499 153.715,120.828C150.155,121.157 146.682,122.128 143.298,123.74C139.933,125.342 137.188,127.417 135.066,129.97C133.529,131.819 132.602,133.614 132.308,135.369C132.034,137.005 132.453,138.421 133.568,139.614C135.005,141.151 137.016,141.691 139.582,141.298C142.209,140.896 144.133,140.004 145.327,138.568C145.725,138.088 146.14,138.011 146.442,138.081C146.628,138.124 146.811,138.226 146.971,138.421C147.131,138.617 147.291,138.978 147.388,139.513C147.757,141.031 147.393,142.477 146.26,143.841C144.111,146.426 140.924,148.037 136.679,148.634C132.392,149.236 128.809,147.992 125.928,144.91C123.526,142.34 122.409,138.764 122.633,134.164C122.854,129.632 124.485,125.531 127.533,121.864C128.746,120.404 130.123,119.096 131.662,117.941ZM75.665,135.043C76.512,134.523 77.364,134.016 78.223,133.519L79.749,134.667L84.19,133.374L82.72,138.431L85.251,142.255L80.22,142.02L77.309,145.137L75.78,140.668L71.456,138.668L75.543,136.168L75.665,135.043ZM153.862,80.436L179.889,104.287L180.419,105.288L180.29,105.606L180.195,106.039L180.189,106.092C174.413,104.148 168.461,102.581 162.366,101.421L161.821,100.432L161.261,99.409L160.126,97.318C160.038,97.141 159.95,96.995 159.89,96.847C157.125,91.759 155.303,86.083 153.862,80.436ZM126.011,79.759C123.982,85.819 121.482,91.818 117.923,97.024L117.894,97.024C117.835,97.141 117.775,97.229 117.687,97.318C117.658,97.406 117.57,97.523 117.452,97.671L117.042,98.249L116.246,99.381L115.61,100.266L115.274,100.721C108.993,101.722 102.856,103.153 96.893,104.984L96.631,104.2L98.278,101.641L126.011,79.759ZM140.465,49.848L140.627,49.852C142.334,49.909 143.98,50.645 145.127,51.938C146.303,53.174 146.951,54.849 146.862,56.556C146.803,58.291 146.038,59.908 144.803,61.086C143.509,62.26 141.863,62.879 140.128,62.819C138.421,62.762 136.775,62.026 135.628,60.733C134.452,59.497 133.804,57.82 133.864,56.115C133.952,54.35 134.717,52.763 135.95,51.587C137.096,50.519 138.581,49.913 140.141,49.852L140.465,49.848ZM212.533,14.49L212.739,14.493C220.061,14.64 222.354,22.1 218.297,30.998C205.399,42.147 189.145,48.573 172.115,49.219L171.713,49.233C178.065,33.087 191.329,20.618 207.857,15.296C209.586,14.744 211.148,14.488 212.533,14.49ZM70.673,9.257C72.254,9.253 74.061,9.626 76.074,10.442C92.16,16.971 104.454,30.352 109.63,46.91C92.543,45.117 76.633,37.47 64.545,25.293C61.224,16.382 63.823,9.274 70.673,9.257Z" style="fill:none;stroke:rgb(255,0,0);stroke-width:1px;"/>
</svg>
