<?xml version="1.0" encoding="UTF-8" standalone="no"?>
<!DOCTYPE svg PUBLIC "-//W3C//DTD SVG 1.1//EN" "http://www.w3.org/Graphics/SVG/1.1/DTD/svg11.dtd">
<svg width="100%" height="100%" viewBox="0 0 1123 794" version="1.1" xmlns="http://www.w3.org/2000/svg" xmlns:xlink="http://www.w3.org/1999/xlink" xml:space="preserve" xmlns:serif="http://www.serif.com/" style="fill-rule:evenodd;clip-rule:evenodd;stroke-linejoin:round;stroke-miterlimit:2;">
    <path d="M144.768,40.265C146.525,40.302 148.11,40.912 149.422,41.91C150.863,43.057 151.891,44.704 152.273,46.587C152.802,46.587 182.859,16.178 188.975,12.177C194.836,8.337 202.831,5.966 211.003,5.93C211.404,5.929 211.807,5.932 212.21,5.942C221.975,6.413 230.502,10.413 234.032,19.412C239.942,32.998 232.913,47.381 232.854,60.821C232.825,76.702 247.707,93.348 235.179,108.435C229.972,113.729 222.856,118.846 215.857,121.903L215.797,121.903L214.909,122.185L213.44,122.66C235.271,137.575 252.544,158.68 262.718,183.428L263.146,184.482L263.635,185.717L264.183,187.147L264.715,188.58L264.956,189.247L265.465,190.694L265.958,192.147L266.475,193.735L266.941,195.223L267.39,196.719L267.822,198.222L268.318,200.033L268.765,201.757L269.14,203.283L269.499,204.816L269.84,206.356L270.097,207.582L270.267,208.418L270.567,209.973L270.849,211.533L271.113,213.1L271.309,214.338L271.419,215.073L271.66,216.779L271.864,218.366L272.05,219.958L272.182,221.204L272.257,221.958L272.366,223.158L272.397,223.517L272.519,225.075L272.624,226.63L272.71,228.177L272.746,228.945L272.807,230.524L272.85,232.102C272.861,232.627 272.87,233.152 272.875,233.676L272.882,235.204L272.88,235.812C272.877,236.27 272.873,236.727 272.866,237.183L272.845,238.277C272.836,238.637 272.827,238.997 272.816,239.357L272.77,240.666L272.707,242.056L272.66,242.916C272.616,243.693 272.566,244.469 272.509,245.242L272.378,246.891L272.235,248.448L272.115,249.632L271.964,250.996L271.773,252.558L271.607,253.813L271.429,255.064L271.176,256.717L270.983,257.897L270.743,259.275L270.405,261.091L270.108,262.584L269.863,263.752L269.428,265.714L269.074,267.212L268.795,268.344L268.42,269.801L268.042,271.21L267.725,272.344L267.361,273.601L266.892,275.16L266.363,276.838L265.822,278.487L265.452,279.56L265.025,280.738L264.863,281.178C264.752,281.514 264.639,281.848 264.5,282.186C263.205,285.714 261.764,289.155 260.177,292.537C259.764,293.448 259.353,294.331 258.911,295.213C258.206,296.654 257.441,298.096 256.707,299.508C256.647,299.565 256.619,299.654 256.588,299.713C255.177,302.329 253.677,304.919 252.09,307.419L251.385,308.513L250.98,309.103L250.316,310.136L249.767,310.943L249.354,311.546L249.354,311.565C249.088,312.005 248.794,312.416 248.472,312.829C247.32,314.5 246.13,316.138 244.904,317.745L244.816,317.86C243.221,319.948 241.565,321.984 239.854,323.976L239.073,324.871L238.079,325.991L237.478,326.655L236.874,327.314L236.265,327.97L235.652,328.622L235.034,329.27L234.413,329.913L233.787,330.553L233.157,331.188L232.523,331.819L231.885,332.446L231.243,333.069L230.597,333.688L229.946,334.303L229.292,334.913L228.634,335.519L227.305,336.718L225.961,337.9L224.601,339.064L223.226,340.21L221.835,341.339L220.43,342.45L219.251,343.358L218.294,344.082L217.12,344.95L216.125,345.672L214.957,346.501L213.924,347.22L212.763,348.011L211.691,348.725L210.538,349.478L209.428,350.187L208.283,350.903L207.134,351.605L205.999,352.284L204.81,352.979L203.686,353.621L202.128,354.488L200.557,355.336L199.718,355.777L198.921,356.19L198.122,356.597L197.319,356.999L196.514,357.396L195.706,357.788L194.894,358.175L194.08,358.556L193.263,358.932L192.443,359.303L191.621,359.668L190.795,360.029L189.967,360.383L189.136,360.733L188.303,361.077L187.466,361.416L186.627,361.749L185.472,362.197L184.208,362.674L183.508,362.932C175.658,365.798 167.471,367.962 159.021,369.348L157.605,369.572L156.197,369.781L154.318,370.035L152.436,370.263L150.549,370.465L148.516,370.653L146.646,370.8L144.654,370.927L142.787,371.02L140.923,371.087L139.53,371.121L138.144,371.142L136.819,371.148L135.472,371.141L135.01,371.136L133.308,371.103L132.116,371.068L131.571,371.048C131.011,371.027 130.452,371.002 129.893,370.974L128.91,370.921L128.07,370.87L126.787,370.783L125.344,370.67L124.595,370.605L123.757,370.528L122.78,370.431L121.461,370.29L119.917,370.108L119.147,370.01L118.622,369.94C61.059,362.253 14.891,318.582 3.474,262.277L3.239,261.09L2.955,259.579L2.689,258.062L2.439,256.54L2.206,255.012L1.989,253.478L1.79,251.939L1.609,250.395L1.444,248.846L1.295,247.267L1.199,246.139L1.071,244.412L1.03,243.782L0.93,242.013L0.887,241.098L0.867,240.61L0.814,239.101L0.782,237.765L0.762,236.427L0.756,235.069L0.761,233.92L0.78,232.504L0.814,231.055L0.874,229.343L0.941,227.924L1.04,226.215L1.16,224.51L1.339,222.399L1.503,220.733L1.754,218.52L1.965,216.867L2.116,215.769L2.36,214.126L2.623,212.491L2.832,211.276L3.004,210.32L3.25,209.022L3.391,208.305L3.7,206.805L3.847,206.115L4.228,204.413L4.525,203.156L4.699,202.441L5.07,200.971L5.248,200.286L5.705,198.602L6.047,197.393L6.255,196.679L6.685,195.245L7.142,193.78L7.652,192.213L8.179,190.657L8.724,189.112L9.286,187.576L9.865,186.051L10.462,184.535L11.076,183.028L11.589,181.809L12.228,180.334L12.884,178.867L13.557,177.41L14.247,175.963L14.953,174.524L15.675,173.096L16.414,171.677L17.169,170.268L17.681,169.334L18.2,168.404L18.727,167.479L19.26,166.559L19.8,165.643L20.347,164.732L20.901,163.825L21.462,162.923L21.995,162.081C24.011,158.918 26.155,155.843 28.418,152.865L29.105,151.969L30.119,150.673L31.137,149.404L32.163,148.156L33.2,146.924L34.249,145.708L35.309,144.506L36.64,143.037L37.833,141.756L39.206,140.322L40.549,138.958L41.845,137.678L43.198,136.376L44.743,134.932L46.31,133.513L47.5,132.464L48.702,131.429L49.916,130.407L51.142,129.4L52.38,128.406L53.63,127.427L54.892,126.462L56.165,125.511L57.449,124.575L58.745,123.654L60.052,122.747L61.369,121.855L62.698,120.978L64.037,120.117L64.936,119.551L65.84,118.992C65.398,118.817 65.044,118.669 64.75,118.492L64.722,118.492C55.281,115.374 48.341,108.758 41.958,101.287C30.577,85.318 46.666,69.791 47.751,53.967C48.723,40.557 42.782,25.706 49.694,12.56C53.84,3.853 62.664,0.531 72.427,0.768C81.014,1.208 89.338,4.267 95.161,8.707C107.57,18.236 119.159,31.999 128.776,45.146C128.776,44.116 130.394,42.292 132.157,41.293C133.276,40.617 134.598,40.263 136.01,40.263L144.597,40.263L144.768,40.265ZM233.106,301.981L233,302.134C230.483,303.681 227.993,305.253 225.474,306.802C223.721,307.892 224.466,310.555 226.475,310.623C225.699,311.543 224.907,312.453 224.102,313.349L223.767,313.36C222.62,313.389 221.681,314.328 221.65,315.475C221.645,315.641 221.659,315.803 221.69,315.957C200.328,338.368 170.192,352.34 136.819,352.34C129.603,352.34 122.539,351.687 115.679,350.436L134.186,327.506L164.772,329.681L159.508,320.888L165.184,312.093L175.802,312.975L170.243,303.566L173.565,295.625L181.093,299.3L186.535,320.035L200.475,303.418L218.297,304.448C218.326,304.8 218.445,305.153 218.65,305.447C219.327,306.417 220.62,306.683 221.621,306.066C224.267,304.448 226.915,302.799 229.591,301.155C230.762,301.438 231.935,301.697 233.106,301.981ZM107.895,341.033L113.364,348.678L110.159,337.003L107.895,341.033ZM104.571,345.769L100.63,345.592L99.878,346.393C99.065,346.123 98.255,345.844 97.449,345.556L97.102,344.532L93.718,342.975L96.925,341.004L97.306,337.591L100.219,339.797L103.749,338.798L102.571,342.768L104.571,345.769ZM85.131,273.303L79.354,270.4L80.178,272.648C80.193,272.692 80.209,272.736 80.222,272.78C81.181,275.96 79.411,279.432 76.27,280.531C74.342,281.206 72.35,280.866 70.84,279.792C71.014,281.638 70.315,283.537 68.77,284.872C67.596,285.888 66.126,286.394 64.662,286.394C62.977,286.394 61.301,285.725 60.085,284.426C60.052,284.392 60.022,284.357 59.993,284.321L57.193,280.956L57.193,288.369C57.193,291.684 54.444,294.418 50.997,294.418C47.547,294.418 44.798,291.684 44.798,288.369L44.798,280.956L41.998,284.321C41.969,284.357 41.939,284.392 41.906,284.426C39.633,286.853 35.746,287.057 33.221,284.874L33.221,284.872C31.676,283.537 30.977,281.638 31.152,279.792C30.457,280.285 29.66,280.624 28.814,280.779C39.992,307.142 60.547,328.582 86.29,340.908L91.19,337.739L92.396,325.651L101.189,333.062L108.66,330.739L105.749,320.828L76.779,308.771L84.691,302.624L82.543,295.744L74.367,291.949L81.926,286.273L82.749,277.684L87.308,281.333L85.131,273.303ZM117.923,310.182L108.954,306.066L117.395,300.861L118.423,291.83L126.187,297.713L135.451,295.037L132.392,305.535L137.657,313.475L127.187,312.975L121.099,319.533L117.923,310.182ZM158.478,319.476L151.155,307.801L156.126,310.066L158.478,319.476ZM156.891,305.007L159.832,303.212L160.184,300.067L162.889,302.125L166.096,301.183L165.036,304.83L166.861,307.595L163.243,307.419L161.125,309.711L160.007,306.448L156.891,305.007ZM169.832,294.508L163.95,296.566L155.684,289.92L154.539,300.772L148.686,303.77L158.714,273.038L151.862,274.421L157.803,267.421L179.124,269.362L177.948,279.302L160.979,290.508L169.832,294.508ZM223.767,299.771C222.62,300.476 221.444,301.212 220.268,301.948L218.827,299.713C219.267,299.448 219.709,299.183 220.151,298.889C221.356,299.183 222.561,299.477 223.767,299.771ZM91.073,297.625L88.014,301.654L94.543,297.832L91.073,297.625ZM231.16,279.643C230.362,279.176 229.534,278.489 228.681,277.576C227.258,276.054 226.588,274.148 226.691,271.851C226.767,270.149 227.258,268.554 228.168,267.068C223.009,268.249 219.302,267.543 217.029,265.111C215.177,263.13 214.454,260.739 214.872,257.932C215.142,256.119 215.832,254.291 216.952,252.45C213.854,253.255 211.044,253.724 208.522,253.86C203.539,254.129 198.939,253.482 194.722,251.924C190.853,253.667 187.571,254.925 184.878,255.701C183.563,256.08 182.343,256.346 181.219,256.501L196.505,270.363L217.563,265.832L210.092,286.304L214.679,293.332C214.886,293.39 215.092,293.448 215.297,293.478C215.003,293.008 214.709,292.537 214.444,292.068C213.827,291.067 214.15,289.772 215.209,289.213C216.208,288.655 217.503,289.009 218.12,289.979C219.121,291.624 220.12,293.244 221.091,294.862C222.326,295.154 223.533,295.448 224.738,295.744C223.798,294.214 222.885,292.712 221.975,291.213C221.356,290.183 221.681,288.89 222.737,288.331C223.738,287.802 225.032,288.125 225.65,289.124C227.268,291.772 228.915,294.449 230.531,297.123C231.737,297.39 232.973,297.682 234.178,297.978C232.591,295.39 231.002,292.802 229.414,290.214C228.325,288.419 230.296,286.304 232.178,287.303C234.692,288.656 237.18,290.008 239.692,291.362L239.958,290.875C239.678,289.929 239.398,288.992 239.12,288.037C236.355,286.567 233.619,285.068 230.856,283.596C229.854,283.068 229.414,281.773 229.914,280.745C230.171,280.185 230.63,279.804 231.16,279.643ZM202.504,293.509L195.447,293.184L191.358,297.567L189.212,291.301L183.182,288.507L188.858,285.008L189.565,278.948L194.77,282.891L201.006,281.098L198.946,288.154L202.504,293.509ZM92.631,293.39L89.278,293.213L87.308,295.331L86.279,292.331L83.396,291.007L86.132,289.332L86.455,286.419L88.926,288.302L91.926,287.449L90.927,290.83L92.631,293.39ZM95.661,275.126L103.66,275.774L102.836,292.331L98.924,294.566L95.807,289.772L98.543,281.596L89.338,283.271L95.661,275.126ZM234.135,280.561C235.228,281.151 236.321,281.734 237.414,282.332C237.303,281.955 237.152,281.357 236.986,280.674C236.418,280.714 235.895,280.718 235.415,280.687C234.959,280.658 234.533,280.616 234.135,280.561ZM242.179,279.677L242.157,279.683C241.787,279.787 241.427,279.883 241.076,279.971C241.194,280.444 241.3,280.849 241.383,281.125C241.649,280.641 241.915,280.158 242.179,279.677ZM98.806,255.804L106.454,245.776L120.717,247.071L112.218,252.716L135.51,262.245L139.303,278.155L128.657,280.979L104.542,260.512L103.66,269.596L100.984,266.009L104.69,255.07L98.806,255.804ZM33.617,275.518L35.978,260.906L44.798,256.088L45.284,265.759L33.617,275.518ZM68.374,275.516L56.423,266.816L57.193,256.088L66.785,261.932L68.374,275.516ZM250.741,262.936C245.967,265.474 242.66,267.315 240.819,268.46C238.118,270.138 236.226,271.612 235.157,272.899C234.653,273.505 234.435,273.974 234.797,274.361C234.964,274.54 235.294,274.603 235.754,274.652C236.723,274.754 238.155,274.643 240.049,274.334C242.311,273.966 244.971,273.293 248.029,272.318C249.059,269.246 249.965,266.116 250.741,262.936ZM95.955,263.598C95.955,263.598 93.726,264.232 93.726,264.232C94.485,265.959 94.443,268.037 93.413,269.845L96.72,269.979C96.72,269.979 94.896,267.246 94.896,267.246L95.955,263.598ZM179.241,263.569L179.789,256.642C179.053,256.684 178.366,256.67 177.727,256.602C176.279,256.447 175.046,256.162 174.026,255.752L179.241,263.569ZM245.14,255.073C242.612,256.393 240.496,257.576 238.791,258.62C233.754,260.615 229.906,261.681 227.243,261.792C225.681,261.858 224.567,261.617 223.937,260.942C223.617,260.6 223.559,260.104 223.671,259.473C223.811,258.687 224.247,257.877 224.952,257.028C226.63,255.009 229.074,253.027 232.276,251.072C235.485,249.113 238.672,247.765 241.839,247.035C244.759,246.361 246.802,246.527 247.941,247.745C248.532,248.378 248.535,249.325 248.117,250.575C247.634,252.019 246.635,253.514 245.141,255.072L245.14,255.073ZM137.657,250.424L144.568,246.216L145.391,238.864L151.685,243.658L159.242,241.481L156.745,250.011L161.037,256.48L152.508,256.069L147.568,261.394L144.979,253.804L137.657,250.424ZM93.065,254.373C92.686,254.936 92.218,255.437 91.68,255.854L93.838,257.628C93.838,257.628 93.065,254.373 93.065,254.373ZM19.892,243.913L30.396,239.854L39.892,245.33L30.696,251.158L20.154,246.913C20.055,245.921 19.967,244.919 19.892,243.913ZM85.767,245.33L71.954,250.362L62.099,245.33L72.204,240.111L85.767,245.33ZM196.909,134.398C197.455,135.111 198.02,135.863 198.603,136.653C201.194,140.161 203.783,143.402 206.371,146.375C209.401,147.518 211.969,149.219 214.077,151.473C215.275,152.755 215.907,154.592 215.915,157.003C215.923,159.367 215.109,161.543 213.461,163.527C212.324,164.894 210.33,166.406 207.464,168.042C204.674,169.633 201.425,171.289 197.719,173.007C194.059,174.704 192.015,175.67 191.588,175.909C191.584,175.911 191.58,175.913 191.575,175.915C180.601,181.743 172.528,186.406 167.357,189.908C164.278,191.993 161.573,194.113 159.243,196.269C162.046,196.949 165.196,197.09 167.861,196.457L192.544,183.64C192.55,183.637 192.555,183.634 192.56,183.631C193.246,183.299 193.839,183.411 194.345,183.952C194.345,183.952 199.225,189.173 199.225,189.173C199.501,189.468 199.605,189.834 199.495,190.281C199.394,190.686 199.144,190.978 198.727,191.135C198.727,191.135 198.305,191.364 198.306,191.364C199.036,191.472 199.726,191.64 200.377,191.868C201.72,192.337 202.696,192.831 203.313,193.331C203.907,193.81 204.603,194.476 205.402,195.33C206.912,196.946 207.637,198.796 207.588,200.875C207.539,202.935 206.87,204.738 205.583,206.285C204.348,207.772 202.792,209.071 200.913,210.18C200.902,210.186 200.89,210.192 200.879,210.198C195.395,213.016 191.547,215.063 189.336,216.341C187.214,217.567 185.807,218.571 185.133,219.382C184.629,219.989 184.41,220.458 184.773,220.845C185.022,221.112 185.465,221.26 186.074,221.36C187.222,221.548 188.879,221.492 191.045,221.208C193.898,220.834 196.891,220.141 200.026,219.131C200.592,218.788 201.201,218.425 201.852,218.041C205.326,215.991 210.378,213.247 217.007,209.81C217.013,209.807 217.018,209.805 217.023,209.802C217.73,209.459 218.3,209.579 218.747,210.057C218.747,210.057 223.627,215.278 223.627,215.278C223.903,215.573 224.007,215.939 223.896,216.386C223.806,216.749 223.604,217.038 223.287,217.25C223.267,217.264 223.246,217.276 223.224,217.287C212.978,222.604 206.371,226.171 203.403,227.989C200.513,229.759 198.526,231.279 197.456,232.566C196.947,233.178 196.765,233.675 197.157,234.094C197.403,234.357 197.812,234.512 198.358,234.611C199.389,234.798 200.843,234.742 202.721,234.464C205.963,233.983 210.026,232.804 214.914,230.933L229.636,223.319C229.641,223.317 229.646,223.314 229.651,223.312C230.337,222.979 230.93,223.092 231.436,223.632C231.436,223.632 236.255,228.788 236.255,228.788C236.531,229.083 236.635,229.449 236.525,229.896C236.434,230.259 236.232,230.548 235.915,230.759C235.895,230.773 235.873,230.786 235.852,230.797L203.751,247.435C209.897,248.306 216.987,247.305 225.023,244.46C225.249,244.315 225.479,244.172 225.713,244.03C228.477,242.351 231.346,241.065 234.32,240.17C237.339,239.261 240.356,239.049 243.371,239.532C246.444,240.025 248.941,241.309 250.871,243.373C252.418,245.029 253.224,246.805 253.29,248.703C253.808,244.234 254.074,239.69 254.074,235.085C254.074,192.328 231.139,154.885 196.909,134.398ZM184.09,246.293C179.243,247.905 175.704,247.619 173.484,245.244C173.082,244.814 172.873,244.338 172.875,243.808C172.878,243.272 173.047,242.799 173.386,242.391C174.033,241.614 174.902,241.47 175.979,241.888C177.334,242.414 180.036,243.885 184.09,246.293ZM90.909,245.299L90.892,245.226C90.821,245.263 90.748,245.297 90.675,245.33C90.767,245.374 90.859,245.418 90.949,245.466L90.909,245.299ZM136.951,215.603L134.158,214.25L133.128,238.953L124.099,244.982L114.747,230.777L121.159,213.484L107.513,216.397L113.805,208.336L131.216,209.631L135.804,211.22L136.951,215.603ZM173.651,234.218C174.122,234.134 174.592,234.095 175.06,234.099C176.124,234.109 177.473,234.485 179.098,235.257C180.638,235.989 182.037,236.748 183.296,237.536C184.539,238.313 186.298,239.467 188.573,240.997C188.573,240.997 188.574,240.998 188.575,240.998C189.711,241.769 190.766,242.413 191.741,242.93C192.482,242.559 194.117,241.72 196.645,240.412C196.645,240.412 196.645,240.412 196.645,240.412C196.645,240.412 197.3,240.074 197.298,240.074C194.596,239.819 192.494,238.863 190.98,237.243C189.59,235.757 188.972,233.922 189.141,231.733C189.267,230.105 189.809,228.535 190.778,227.024C188.592,227.403 186.774,227.47 185.325,227.237C183.462,226.937 182.053,226.499 181.091,225.946C180.131,225.394 179.155,224.594 178.168,223.538C176.775,222.047 176.149,220.297 176.289,218.289C176.424,216.348 177.276,214.408 178.876,212.483C180.06,211.06 181.334,209.862 182.698,208.89C184.03,207.941 186.646,206.469 190.558,204.474C194.73,202.154 197.464,200.246 198.741,198.721C199.035,198.37 199.245,198.047 199.36,197.745C199.471,197.457 199.485,197.2 199.358,196.973C198.61,196.223 197.11,195.905 194.897,195.877C192.463,195.846 189.55,196.445 186.156,197.659L165.511,208.383C165.505,208.386 165.5,208.388 165.495,208.391C164.788,208.734 164.218,208.614 163.771,208.136C163.771,208.136 158.891,202.915 158.891,202.915C158.615,202.619 158.511,202.254 158.621,201.806C158.671,201.608 158.754,201.431 158.871,201.277C157.771,200.837 156.695,200.374 155.69,199.914C155.488,200.146 155.291,200.378 155.098,200.61C154.318,201.548 153.781,202.376 153.5,203.102C153.267,203.705 153.13,204.122 153.187,204.377C153.263,204.721 153.328,205.079 153.382,205.451C153.461,206.005 153.324,206.488 152.981,206.901C152.737,207.195 152.397,207.425 151.961,207.575L155.861,214.22L145.892,213.72L140.422,219.337L153.743,230.337L177.446,224.453L173.651,234.218ZM108.423,237.6L102.159,237.308L98.513,241.218L96.601,235.629L91.221,233.158L96.278,230.041L96.897,224.63L101.543,228.16L107.101,226.542L105.276,232.835L108.423,237.6ZM33.617,215.144L45.803,224.221L44.798,234.574L35.216,230.049L33.617,215.144ZM68.374,215.144L65.894,229.603L57.193,234.572L57.247,224.607L68.374,215.144ZM64.079,143.141L70.546,145.608L72.309,151.812L72.104,167.459L61.28,174.605L73.22,179.604L77.192,191.927L84.455,182.341L94.748,183.163L94.574,185.811L78.604,196.25L83.984,199.367L80.191,200.339L72.897,194.369L71.956,203.573L68.783,205.8L68.77,205.788C66.245,203.605 62.358,203.809 60.085,206.234C60.052,206.269 60.022,206.305 59.993,206.34L57.193,209.706L57.193,202.293C57.193,198.979 54.444,196.242 50.997,196.242C47.547,196.242 44.798,198.979 44.798,202.293L44.798,209.706L41.998,206.34C41.969,206.305 41.939,206.269 41.906,206.234C39.633,203.809 35.746,203.605 33.221,205.788C31.676,207.124 30.977,209.024 31.152,210.871C29.641,209.796 27.649,209.456 25.722,210.131C22.578,211.23 20.81,214.7 21.769,217.88C21.783,217.926 21.796,217.97 21.813,218.015L23.325,222.142L20.466,220.486C24.353,189.233 40.563,161.778 64.079,143.141ZM81.367,214.368L80.453,215.505C80.529,216.287 80.46,217.092 80.222,217.88C80.209,217.926 80.195,217.97 80.178,218.015L78.666,222.142L85.066,218.437C86.073,217.855 87.185,217.602 88.282,217.649L88.425,215.19L81.367,214.368ZM85.514,207.014L88.102,200.839L96.601,204.074L99.043,213.808L89.278,205.925L89.132,206.044L88.308,210.955L85.514,207.014ZM82.514,210.544L80.985,208.221L81.867,205.193L79.19,205.955L76.956,204.28L76.662,206.868L74.192,208.398L76.81,209.574L77.123,210.504C77.62,210.767 78.073,211.095 78.475,211.475L79.486,210.398L82.514,210.544ZM143.242,203.113L142.862,203.219L140.185,201.192L139.834,204.309L136.892,206.132L140.01,207.573L141.127,210.807L143.215,208.544L146.862,208.692L145.039,205.955L145.117,205.687C144.911,205.503 144.71,205.306 144.515,205.098C143.961,204.505 143.535,203.843 143.242,203.113ZM143.3,197.112C143.774,195.67 144.553,194.294 145.639,192.987C148.405,189.659 151.769,186.616 155.734,183.86C159.521,181.227 164.833,178.075 171.67,174.406C171.67,174.406 162.043,164.107 162.044,164.107C160.977,164.621 159.342,165.398 157.14,166.439C154.606,167.637 152.781,168.49 151.665,169C150.548,169.51 148.873,170.251 146.641,171.223C144.387,172.204 142.676,172.881 141.51,173.254C140.358,173.623 138.896,174.087 137.125,174.646C135.284,175.226 133.803,175.535 132.683,175.586C131.596,175.634 130.414,175.657 129.137,175.655C128.831,175.654 128.535,175.641 128.248,175.617L122.306,192.398L129.863,203.515L134.01,201.427L135.422,189.809L143.3,197.112ZM103.629,192.104L104.248,186.693L108.894,190.222L114.453,188.605L112.601,194.897L115.777,199.663L109.482,199.367L105.835,203.281L103.923,197.691L98.543,195.22L103.629,192.104ZM77.897,171.429L78.337,167.43L81.778,170.016L85.896,168.84L84.543,173.488L86.866,177.018L82.22,176.782L79.544,179.693L78.132,175.546L74.133,173.723L77.897,171.429ZM149.663,118.526C145.449,118.066 141.161,117.829 136.819,117.829C121.682,117.829 107.211,120.704 93.918,125.938L90.279,137.638L96.043,146.373L96.424,144.019L102.984,150.225L112.042,147.785L109.747,157.196L114.276,164.488L105.19,163.989L99.925,169.899L109.924,179.399L126.165,175.184C125.966,175.113 125.774,175.035 125.589,174.948C124.6,174.486 123.709,173.832 122.916,172.985C121.256,171.209 120.499,168.77 120.698,165.651C120.894,162.579 121.712,160.209 123.109,158.528C123.71,157.805 124.31,157.31 124.896,157.026C125.328,156.816 125.678,156.735 125.933,156.738C126.266,156.743 126.512,156.866 126.69,157.057C126.764,157.136 126.85,157.264 126.908,157.462C126.962,157.646 127.007,157.959 127.027,158.401C127.043,158.745 127.125,159.023 127.311,159.222C128.2,160.173 129.293,160.816 130.588,161.153C131.954,161.509 133.961,161.525 136.607,161.229C139.326,160.925 142.961,160.017 147.514,158.511C152.111,156.991 157.781,154.847 164.525,152.081C177.606,146.705 188.461,144.197 197.084,144.526C196.776,144.081 196.374,143.508 195.88,142.806C194.738,141.185 193.906,140.021 193.384,139.313C192.866,138.61 191.965,137.498 190.681,135.976C189.392,134.448 188.019,132.904 186.563,131.347C184.2,128.819 181.228,127.001 177.652,125.889C174.044,124.766 170.412,124.373 166.754,124.712C163.085,125.051 159.508,126.052 156.021,127.712C152.554,129.363 149.725,131.501 147.539,134.132C145.954,136.039 144.997,137.891 144.695,139.7C144.412,141.391 144.844,142.854 145.997,144.088C147.481,145.675 149.557,146.233 152.207,145.827C154.917,145.412 156.902,144.492 158.134,143.009C158.537,142.524 158.956,142.444 159.263,142.515C159.45,142.559 159.635,142.662 159.796,142.858C159.959,143.059 160.122,143.427 160.221,143.974C160.6,145.532 160.227,147.014 159.064,148.413C156.855,151.072 153.577,152.728 149.211,153.341C144.804,153.961 141.121,152.682 138.159,149.513L138.159,149.513C135.689,146.871 134.542,143.194 134.772,138.464C135,133.802 136.678,129.583 139.813,125.811C142.384,122.717 145.667,120.287 149.663,118.526ZM94.514,161.341L96.985,162.165L98.159,168.871L95.955,167.105L95.131,178.694L90.337,172.399L94.514,161.341ZM168.865,161.046C183.653,154.721 195.082,151.78 203.17,152.265L204.698,153.9C205.554,154.815 206.344,155.54 207.067,156.079C206.107,156.9 204.77,157.752 203.062,158.642C200.899,159.77 197.927,161.203 194.146,162.943C190.341,164.694 187.081,166.275 184.367,167.687C181.785,169.025 179.717,170.128 178.163,170.994L168.865,161.046ZM83.074,163.666L76.485,157.665L83.337,148.607L95.69,149.489L95.338,154.195L88.573,158.167L92.865,160.636L83.074,163.666ZM106.1,159.665L103.07,159.548L101.308,161.429L100.396,158.724L97.779,157.519L100.248,156.018L100.544,153.43L102.778,155.108L105.455,154.343L104.571,157.371L106.1,159.665ZM75.665,135.043C76.512,134.523 77.364,134.016 78.223,133.519L79.749,134.667L84.19,133.374L82.72,138.431L85.251,142.255L80.22,142.02L77.309,145.137L75.78,140.668L71.456,138.668L75.543,136.168L75.665,135.043ZM153.862,80.436L179.889,104.287L180.419,105.288L180.29,105.606L180.195,106.039L180.189,106.092C174.413,104.148 168.461,102.581 162.366,101.421L161.821,100.432L161.261,99.409L160.126,97.318C160.038,97.141 159.95,96.995 159.89,96.847C157.125,91.759 155.303,86.083 153.862,80.436ZM126.011,79.759C123.982,85.819 121.482,91.818 117.923,97.024L117.894,97.024C117.835,97.141 117.775,97.229 117.687,97.318C117.658,97.406 117.57,97.523 117.452,97.671L117.042,98.249L116.246,99.381L115.61,100.266L115.274,100.721C108.993,101.722 102.856,103.153 96.893,104.984L96.631,104.2L98.278,101.641L126.011,79.759ZM140.465,49.848L140.627,49.852C142.334,49.909 143.98,50.645 145.127,51.938C146.303,53.174 146.951,54.849 146.862,56.556C146.803,58.291 146.038,59.908 144.803,61.086C143.509,62.26 141.863,62.879 140.128,62.819C138.421,62.762 136.775,62.026 135.628,60.733C134.452,59.497 133.804,57.82 133.864,56.115C133.952,54.35 134.717,52.763 135.95,51.587C137.096,50.519 138.581,49.913 140.141,49.852L140.465,49.848ZM212.533,14.49L212.739,14.493C220.061,14.64 222.354,22.1 218.297,30.998C205.399,42.147 189.145,48.573 172.115,49.219L171.713,49.233C178.065,33.087 191.329,20.618 207.857,15.296C209.586,14.744 211.148,14.488 212.533,14.49ZM70.673,9.257C72.254,9.253 74.061,9.626 76.074,10.442C92.16,16.971 104.454,30.352 109.63,46.91C92.543,45.117 76.633,37.47 64.545,25.293C61.224,16.382 63.823,9.274 70.673,9.257Z" style="fill:none;stroke:rgb(255,0,0);stroke-width:1px;"/>
</svg>
