<?xml version="1.0" encoding="UTF-8" standalone="no"?>
<!DOCTYPE svg PUBLIC "-//W3C//DTD SVG 1.1//EN" "http://www.w3.org/Graphics/SVG/1.1/DTD/svg11.dtd">
<svg width="100%" height="100%" viewBox="0 0 1123 794" version="1.1" xmlns="http://www.w3.org/2000/svg" xmlns:xlink="http://www.w3.org/1999/xlink" xml:space="preserve" xmlns:serif="http://www.serif.com/" style="fill-rule:evenodd;clip-rule:evenodd;stroke-linejoin:round;stroke-miterlimit:2;">
    <path d="M0.763,233.654C1.257,185.132 27.188,142.701 65.84,118.992C65.398,118.817 65.044,118.669 64.75,118.492L64.722,118.492C55.281,115.374 48.341,108.758 41.958,101.287C30.577,85.318 46.666,69.791 47.751,53.967C48.723,40.557 42.782,25.706 49.694,12.56C53.84,3.853 62.664,0.531 72.427,0.768C81.014,1.208 89.338,4.267 95.161,8.707C107.57,18.236 119.159,31.999 128.776,45.146C128.776,44.116 130.394,42.292 132.157,41.293C133.276,40.617 134.598,40.263 136.01,40.263L144.597,40.263C146.422,40.263 148.067,40.88 149.422,41.91C150.863,43.057 151.891,44.704 152.273,46.587C152.802,46.587 182.859,16.178 188.975,12.177C195.124,8.148 203.623,5.737 212.21,5.942C221.975,6.413 230.502,10.413 234.032,19.412C239.942,32.998 232.913,47.381 232.854,60.821C232.825,76.702 247.707,93.348 235.179,108.435C229.972,113.729 222.856,118.846 215.857,121.903L215.797,121.903C215.417,122.021 214.603,122.283 213.44,122.66C235.706,137.872 253.229,159.522 263.318,184.913L263.635,185.717C269.445,200.605 272.705,216.771 272.875,233.676L272.882,235.085L272.88,235.812L272.866,237.183L272.848,238.157L272.816,239.357L272.777,240.461C272.271,253.525 269.932,266.101 265.999,277.951C265.659,278.997 265.294,280.017 264.925,281.008L264.5,282.186C263.205,285.714 261.764,289.155 260.177,292.537C259.764,293.448 259.353,294.331 258.911,295.213C258.206,296.654 257.441,298.096 256.707,299.508C256.647,299.565 256.619,299.654 256.588,299.713C255.177,302.329 253.677,304.919 252.09,307.419C251.717,307.987 251.375,308.559 250.98,309.103L250.882,309.252C250.472,309.92 250.043,310.551 249.594,311.192L249.354,311.546L249.354,311.565C249.088,312.005 248.794,312.416 248.472,312.829C245.795,316.713 242.913,320.415 239.854,323.976C215.151,352.578 178.758,370.759 138.144,371.142L136.819,371.148C133.222,371.148 129.657,371.008 126.124,370.733C59.482,365.554 6.326,312.384 1.167,245.731C0.895,242.217 0.756,238.667 0.756,235.085L0.763,233.654ZM28.751,280.397C40.488,308.332 62.752,330.776 90.57,342.754C86.43,339.961 82.52,336.774 78.888,333.213C75.47,329.86 75.47,324.406 78.888,321.053C82.307,317.7 87.87,317.7 91.289,321.053C93.511,323.232 95.866,325.23 98.335,327.046C102.763,312.408 102.398,299.836 101.771,293.577L92.474,300.653C89.142,303.191 84.772,303.273 81.343,300.862C77.913,298.45 76.589,294.365 77.972,290.454L85.343,269.604L86.265,255.979C86.324,255.115 86.821,254.338 87.589,253.91C88.356,253.482 89.292,253.461 90.078,253.854C90.199,253.915 91.551,254.595 93.379,255.698L90.219,242.394L72.795,235.617L73.743,234.921L60.959,228.962L55.458,232.149L69.292,238.586L62.38,242.58L48.557,236.132L40.419,240.826L51.529,246.478L40.419,252.14L48.557,256.834L62.38,250.385L69.292,254.369L55.458,260.817L60.959,263.993L74.793,257.544L81.694,261.528L67.871,267.976L78.895,274.349C80.197,275.092 80.639,276.761 79.885,278.064C79.131,279.377 77.474,279.818 76.16,279.065L65.136,272.702L66.471,287.903L59.571,283.92L58.236,268.719L52.734,265.532L54.059,280.733L47.158,276.75L45.834,261.549L37.695,256.856L38.352,269.3L27.898,262.507L27.898,271.906L40.397,280.658L40.397,288.624L28.794,280.5L28.751,280.397ZM233.012,301.959C231.873,301.683 230.731,301.431 229.591,301.155C226.915,302.799 224.267,304.448 221.621,306.066C220.62,306.683 219.327,306.417 218.65,305.447C218.445,305.153 218.326,304.8 218.297,304.448L200.475,303.418L187.72,318.623C190.354,318.261 193.125,319.071 195.146,321.053C196.802,322.677 197.715,324.836 197.714,327.133C197.714,329.43 196.802,331.589 195.146,333.213C191.721,336.571 188.049,339.597 184.169,342.273C198.375,335.983 211.1,326.95 221.671,315.847C221.653,315.726 221.646,315.602 221.65,315.475C221.681,314.328 222.62,313.389 223.767,313.36L223.978,313.353C224.787,312.453 225.583,311.54 226.362,310.616C224.439,310.455 223.754,307.872 225.474,306.802C227.928,305.293 230.355,303.762 232.807,302.252L233.012,301.959ZM152.231,328.2C153.857,330.702 156.365,333.727 158.432,336.092C151.639,338.426 144.423,339.645 137.018,339.645C130.424,339.645 123.98,338.678 117.851,336.819L122.432,328.338C127.245,329.627 139.269,332.015 152.231,328.2ZM177.773,297.679C179.293,301.583 178.384,304.766 175.569,303.113C175.843,310.356 177.192,319.266 178.76,324.648C180.13,323.509 181.461,322.312 182.746,321.053C183.762,320.056 184.968,319.356 186.251,318.952L181.093,299.3L177.773,297.679ZM223.767,299.771C222.62,300.476 221.444,301.212 220.268,301.948L218.827,299.713C219.267,299.448 219.709,299.183 220.151,298.889C221.356,299.183 222.561,299.477 223.767,299.771ZM215.672,271.015L210.092,286.304L214.679,293.332C214.886,293.39 215.092,293.448 215.297,293.478C215.003,293.008 214.709,292.537 214.444,292.068C213.827,291.067 214.15,289.772 215.209,289.213C216.208,288.655 217.503,289.009 218.12,289.979C219.121,291.624 220.12,293.244 221.091,294.862C222.326,295.154 223.533,295.448 224.738,295.744C223.798,294.214 222.885,292.712 221.975,291.213C221.356,290.183 221.681,288.89 222.737,288.331C223.738,287.802 225.032,288.125 225.65,289.124C227.268,291.772 228.915,294.449 230.531,297.123C231.737,297.39 232.973,297.682 234.178,297.978C232.591,295.39 231.002,292.802 229.414,290.214C228.325,288.419 230.296,286.304 232.178,287.303C232.847,287.663 233.514,288.023 234.18,288.383L238.176,290.544C238.654,290.802 239.133,291.061 239.613,291.319C239.716,291.13 239.819,290.941 239.922,290.753C239.654,289.848 239.386,288.951 239.12,288.037C237.856,287.365 236.597,286.687 235.341,286.008C234.315,286.168 233.42,286.223 232.657,286.174C231.143,286.077 230.007,285.812 229.243,285.41C228.484,285.01 227.691,284.377 226.872,283.501C225.646,282.189 225.067,280.547 225.155,278.567C225.218,277.182 225.599,275.879 226.304,274.66C221.998,275.599 218.895,274.967 216.979,272.918C216.426,272.326 215.99,271.692 215.672,271.015ZM202.504,293.509L195.447,293.184L191.358,297.567L189.212,291.301L183.182,288.507L188.858,285.008L189.565,278.948L194.77,282.891L201.006,281.098L198.946,288.154L202.504,293.509ZM144.712,285.874L145.927,285.831C153.666,285.755 159.844,286.382 165.152,287.752L177.948,279.302L179.124,269.362L157.803,267.421L144.712,285.874ZM96.372,257.636C97.666,258.539 98.998,259.563 100.194,260.664C108.144,261.53 115.866,266.542 122.586,275.216C126.172,279.845 128.6,284.364 129.777,286.756C132.882,286.467 135.79,286.245 138.527,286.09L139.258,286.065L135.51,262.245L112.218,252.716L120.717,247.071L106.454,245.776L96.372,257.636ZM248.859,269.435C243.094,272.459 239.242,274.573 237.304,275.778C235.023,277.195 233.424,278.439 232.521,279.525C232.482,279.572 232.445,279.618 232.41,279.663C232.52,279.7 232.63,279.747 232.737,279.803C233.37,280.15 234.004,280.491 234.637,280.831C235.203,280.783 235.852,280.699 236.581,280.58C238.28,280.303 240.244,279.824 242.472,279.143C242.959,278.258 243.44,277.374 243.912,276.479C244.491,275.437 245.727,275.106 246.747,275.686C247.508,273.629 248.213,271.545 248.859,269.435ZM94.108,273.251C95.738,273.251 97.061,274.548 97.061,276.146C97.061,277.744 95.738,279.041 94.108,279.041C92.479,279.041 91.156,277.744 91.156,276.146C91.156,274.548 92.479,273.251 94.108,273.251ZM215.189,266.343C215.451,264.95 216.003,263.547 216.85,262.134C216.818,262.143 216.787,262.151 216.756,262.159C214.414,262.781 212.51,263.049 211.046,262.98C209.508,262.907 208.36,262.652 207.594,262.249C206.838,261.851 206.009,261.182 205.119,260.229C203.775,258.792 203.155,257.191 203.236,255.436C203.314,253.743 203.819,252.145 204.754,250.641C205.637,249.221 206.573,247.857 207.561,246.549C208.498,245.309 209.194,244.137 209.645,243.03C209.992,242.177 210.007,241.5 209.548,241.008C209.548,241.008 209.53,240.99 209.53,240.99L195.372,248.325C195.367,248.328 195.362,248.33 195.357,248.333C194.708,248.648 194.186,248.533 193.776,248.095L190.057,244.116L189.181,246.452L193.977,254.57L184.8,253.892L181.418,258.158L196.505,270.363L215.189,266.343ZM240.858,264.245C238.72,265.362 236.929,266.363 235.484,267.247C231.226,268.934 227.973,269.837 225.721,269.931C224.432,269.985 223.512,269.797 222.992,269.241C222.739,268.971 222.703,268.578 222.792,268.08C222.908,267.428 223.272,266.756 223.858,266.051C225.276,264.344 227.343,262.669 230.05,261.016C232.765,259.359 235.461,258.218 238.14,257.601C240.572,257.039 242.275,257.159 243.224,258.174C243.705,258.689 243.692,259.46 243.352,260.476C242.947,261.686 242.11,262.938 240.86,264.243L240.858,264.245ZM169.743,249.334L176.007,252.188L179.241,263.569L169.743,249.334ZM195.946,133.932L197.46,137.162C198,138.315 197.338,139.768 195.982,140.403L182.263,143.453C182.326,143.892 182.358,144.359 182.36,144.854C182.367,146.884 181.669,148.754 180.253,150.457C179.283,151.625 177.582,152.917 175.134,154.314C172.763,155.666 170.003,157.073 166.854,158.533C163.75,159.972 162.017,160.791 161.655,160.993C161.651,160.995 161.646,160.998 161.642,161C152.33,165.945 145.479,169.903 141.09,172.874C138.396,174.699 136.04,176.554 134.023,178.442C143.656,174.786 159.818,168.694 163.129,166.878C163.129,165.622 163.432,164.67 163.982,164.008C164.935,162.862 165.94,162.249 166.962,162.111C168.074,161.961 169,162.288 169.741,163.08C170.381,163.766 170.684,164.625 170.625,165.666C170.571,166.642 170.185,167.578 169.448,168.465C169.337,168.599 169.203,168.728 169.046,168.851C169.046,168.851 169.114,169.322 169.114,169.322C169.392,170.646 169.582,171.662 169.683,172.371C169.786,173.087 169.874,174.003 169.944,175.118C170.02,176.302 169.92,177.328 169.657,178.197C169.387,179.09 168.979,179.86 168.439,180.511C167.899,181.16 167.148,181.726 166.177,182.197C166.172,182.2 166.167,182.202 166.163,182.204C156.845,186.459 151.32,189.571 149.627,191.608C149.208,192.112 149.009,192.501 149.303,192.828C149.329,192.839 149.496,192.906 149.63,192.933C149.927,192.992 150.317,193.019 150.801,193.02C151.845,193.022 153.585,192.731 156.024,192.161C157.908,191.721 160.008,191.111 162.32,190.333C163.753,189.265 165.32,188.351 167.023,187.593C170.496,186.047 173.929,185.405 177.321,185.658C180.795,185.916 183.529,187.134 185.536,189.282C187.719,191.617 188.661,194.193 188.39,196.998C188.126,199.741 186.947,202.388 184.834,204.932C182.133,208.181 178.512,210.6 173.961,212.178C174.567,212.715 175.424,212.999 176.517,213.06C178.192,213.154 180.372,212.733 183.064,211.821L197.1,204.532C197.105,204.53 197.111,204.527 197.116,204.524C197.743,204.22 198.286,204.324 198.748,204.818C198.748,204.818 202.892,209.251 202.892,209.251C203.149,209.526 203.248,209.867 203.145,210.285C203.052,210.659 202.822,210.931 202.438,211.077C202.438,211.077 202.344,211.128 202.345,211.128C202.864,211.22 203.359,211.348 203.829,211.512C204.984,211.916 205.822,212.342 206.352,212.771C206.859,213.181 207.454,213.749 208.136,214.479C209.437,215.871 210.061,217.466 210.019,219.257C209.977,221.029 209.401,222.581 208.294,223.913C207.238,225.183 205.909,226.293 204.302,227.241C204.291,227.248 204.28,227.254 204.268,227.26C199.615,229.651 196.349,231.388 194.473,232.472C192.686,233.505 191.499,234.349 190.932,235.032C190.546,235.495 190.345,235.844 190.622,236.141C190.822,236.355 191.181,236.467 191.67,236.547C192.638,236.706 194.034,236.657 195.86,236.417C198.539,236.067 201.364,235.383 204.335,234.37L236.065,217.925C236.07,217.923 236.075,217.92 236.081,217.917C236.708,217.613 237.251,217.717 237.713,218.211C237.713,218.211 241.805,222.588 241.805,222.588C242.059,222.86 242.153,223.176 242.097,223.532C242.047,223.852 241.877,224.132 241.555,224.347C241.534,224.361 241.513,224.373 241.492,224.385C241.492,224.385 222.747,234.129 222.748,234.129C225.642,234.534 227.95,235.676 229.682,237.529C230.984,238.921 231.623,240.449 231.625,242.1C231.627,243.745 231.075,245.24 229.96,246.582C228.496,248.344 226.418,249.273 223.707,249.332C221.331,249.383 218.754,248.479 215.993,246.578C215.75,247.42 215.347,248.345 214.779,249.35C214.002,250.726 213.258,251.899 212.549,252.872C211.898,253.767 211.42,254.669 211.12,255.581C210.891,256.278 210.927,256.843 211.321,257.266C211.504,257.461 211.783,257.58 212.143,257.66C212.608,257.763 213.188,257.786 213.882,257.739C216.14,257.587 219.509,256.702 223.993,255.101C224.118,255.022 224.246,254.943 224.374,254.865C226.728,253.435 229.172,252.34 231.704,251.578C234.282,250.802 236.859,250.621 239.433,251.033C242.066,251.455 244.205,252.556 245.858,254.325C247.651,256.243 248.288,258.349 247.772,260.644C248.256,260.52 248.686,260.663 249.062,261.065L250.682,262.798C252.84,253.912 253.984,244.631 253.984,235.085C253.984,191.979 230.656,154.279 195.946,133.932ZM137.657,250.424L144.568,246.216L145.391,238.864L151.685,243.658L159.242,241.481L156.745,250.011L161.037,256.48L152.508,256.069L147.568,261.394L144.979,253.804L137.657,250.424ZM185.721,239.405C185.437,239.15 185.153,238.87 184.868,238.564C183.664,237.277 183.124,235.766 183.245,234.032C183.361,232.365 184.091,230.699 185.465,229.046C186.475,227.83 187.564,226.808 188.728,225.978C189.862,225.17 192.086,223.918 195.412,222.222C198.938,220.261 201.251,218.65 202.33,217.361C202.571,217.073 202.744,216.809 202.839,216.561C202.919,216.353 202.936,216.166 202.849,216.002C202.224,215.385 200.976,215.135 199.143,215.112C197.087,215.086 194.628,215.593 191.762,216.617L175.971,224.82L177.446,224.453L168.771,246.775L175.154,243.424L175.802,234.426L183.007,240.159L185.721,239.405ZM136.951,215.603L134.158,214.25L133.128,238.953L124.099,244.982L114.747,230.777L121.159,213.484L107.513,216.397L113.805,208.336L131.216,209.631L135.804,211.22L136.951,215.603ZM224.519,239.947C224.694,240.135 224.802,240.319 224.8,240.52C224.798,240.746 224.673,240.969 224.472,241.21C224.16,241.586 223.67,241.832 223.024,241.985C222.264,242.165 221.308,242.209 220.157,242.128C217.834,241.965 215.639,241.095 213.566,239.531C213.563,239.528 213.167,239.104 213.167,239.104C213.167,239.104 213.497,238.933 213.497,238.933C216.999,238.337 219.752,238.226 221.757,238.624C222.982,238.868 223.909,239.296 224.519,239.947ZM108.423,237.6L102.159,237.308L98.513,241.218L96.601,235.629L91.221,233.158L96.278,230.041L96.897,224.63L101.543,228.16L107.101,226.542L105.276,232.835L108.423,237.6ZM27.866,191.94L27.866,191.939C35.519,172.65 48.152,155.866 64.177,143.178L70.546,145.608L72.309,151.812L72.104,167.459L61.28,174.605L73.22,179.604L77.192,191.927L84.455,182.341L94.748,183.163L94.574,185.811L78.604,196.25L83.984,199.367L80.191,200.339L72.897,194.369L71.956,203.573L66.25,207.577L66.471,205.063L59.571,209.046L58.236,224.247L52.734,227.423L54.059,212.222L47.158,216.205L45.834,231.406L37.695,236.1L38.352,223.655L27.898,230.448L27.898,221.06L40.397,212.308L40.397,204.331L27.898,213.083L27.898,206.731L40.397,197.979L40.397,190.013L27.898,198.754L27.898,191.859C27.888,191.886 27.877,191.913 27.866,191.94ZM79.742,230.517L67.871,224.979L75.44,220.61L75.691,221.425L81.367,214.368L88.425,215.19L87.866,224.809L84.955,226.69L79.742,230.517ZM20.912,219.942L20.907,219.979L22.451,221.06L22.451,230.448L19.829,228.744C19.884,228.366 20.271,224.663 20.907,219.979L20.855,219.942L20.912,219.942ZM172.775,225.613C172.73,225.575 172.687,225.533 172.645,225.488C172.645,225.488 168.501,221.055 168.501,221.055C168.244,220.78 168.145,220.438 168.248,220.021C168.331,219.688 168.516,219.423 168.807,219.229C168.828,219.215 168.849,219.203 168.87,219.191C168.87,219.191 172.413,217.352 172.412,217.352C172.282,217.3 172.156,217.245 172.034,217.186C171.315,216.839 170.62,216.312 169.953,215.599C169.401,215.008 168.952,214.306 168.611,213.491C163.501,214.115 159.623,212.959 156.956,210.106C154.842,207.844 153.942,205.333 154.23,202.584C154.408,200.879 155.022,199.113 156.082,197.291L155.98,197.319C154.899,197.624 153.911,197.855 153.015,198.013L150.596,205.25L155.861,214.22L145.892,213.72L140.422,219.337L153.743,230.337L172.775,225.613ZM19.829,228.744C19.826,228.765 19.824,228.776 19.823,228.776C19.822,228.775 19.822,228.764 19.823,228.74L19.829,228.744ZM65.136,220.264L73.789,215.262L72.986,212.661L66.093,209.374L65.136,220.264ZM96.601,204.074L99.043,213.808L89.278,205.925L89.132,206.044L88.308,210.955L85.514,207.014L88.102,200.839L96.601,204.074ZM82.514,210.544L79.486,210.398L77.72,212.279L76.81,209.574L74.192,208.398L76.662,206.868L76.956,204.28L79.19,205.955L81.867,205.193L80.985,208.221L82.514,210.544ZM182.609,193.838C183.025,194.283 183.097,194.87 182.895,195.585C182.638,196.498 181.974,197.575 180.929,198.832C179.224,200.884 177.064,202.675 174.453,204.21C173.664,203.74 172.648,203.61 171.397,203.875C170.017,204.166 168.887,204.844 168.005,205.906C167.594,206.401 167.317,206.885 167.162,207.354C165.439,207.824 163.991,208.035 162.817,207.975C161.71,207.918 160.868,207.623 160.315,207.032C159.933,206.623 159.95,205.998 160.204,205.172C160.525,204.125 161.164,203.038 162.108,201.902C164.073,199.537 166.585,197.551 169.64,195.939C172.694,194.327 175.469,193.365 177.972,193.065C179.177,192.921 180.186,192.92 180.999,193.072C181.702,193.205 182.245,193.448 182.609,193.838ZM145.087,196.829C144.688,196.533 144.298,196.182 143.917,195.774C142.722,194.496 142.177,192.887 142.305,190.938C142.428,189.054 143.149,187.31 144.479,185.709C145.749,184.181 147.615,182.634 150.084,181.077C152.497,179.555 156.54,177.51 162.213,174.947C162.765,174.679 163.188,174.382 163.472,174.04C163.838,173.6 163.964,172.9 163.915,171.949C160.31,173.703 139.398,181.286 130.675,184.476L129.101,185.053C129.167,185.347 129.222,185.654 129.268,185.972C129.34,186.473 129.216,186.909 128.906,187.282C128.35,187.95 127.236,188.255 125.519,187.942C125.001,187.848 124.508,187.702 124.039,187.505L122.306,192.398L129.863,203.515L134.01,201.427L135.422,189.809L143.481,197.28L145.087,196.829ZM115.777,199.663L109.482,199.367L105.835,203.281L103.923,197.691L98.543,195.22L103.629,192.104L104.248,186.693L108.894,190.222L114.453,188.605L112.601,194.897L115.777,199.663ZM77.897,171.429L78.337,167.43L81.778,170.016L85.896,168.84L84.543,173.488L86.866,177.018L82.22,176.782L79.544,179.693L78.132,175.546L74.133,173.723L77.897,171.429ZM121.78,176.322C122.004,175.99 122.25,175.663 122.518,175.341C124.872,172.509 127.734,169.919 131.108,167.573C134.305,165.351 138.779,162.694 144.532,159.602C144.532,159.602 136.499,151.009 136.5,151.009C135.593,151.445 134.227,152.094 132.402,152.957C130.25,153.974 128.701,154.698 127.753,155.131C126.804,155.564 125.382,156.194 123.486,157.019C121.568,157.854 120.112,158.43 119.12,158.747C118.142,159.061 116.901,159.455 115.397,159.929C113.998,160.37 112.841,160.628 111.929,160.709L114.276,164.488L105.19,163.989L99.925,169.899L109.924,179.399L121.78,176.322ZM94.514,161.341L96.985,162.165L98.159,168.871L95.955,167.105L95.131,178.694L90.337,172.399L94.514,161.341ZM83.074,163.666L76.485,157.665L83.337,148.607L95.69,149.489L95.338,154.195L88.573,158.167L92.865,160.636L83.074,163.666ZM101.34,154.028L100.544,153.43L100.248,156.018L97.779,157.519L100.396,158.724L101.308,161.429L103.07,159.548L104.52,159.604C104.061,159.291 103.631,158.92 103.23,158.491C102.147,157.334 101.509,155.848 101.34,154.028ZM142.485,148.323C154.934,143.01 164.563,140.532 171.392,140.93L172.662,142.288C173.354,143.028 173.996,143.622 174.586,144.074C173.784,144.742 172.687,145.434 171.3,146.157C169.466,147.114 166.944,148.33 163.736,149.806C160.503,151.293 157.734,152.636 155.428,153.835C153.274,154.953 151.54,155.876 150.228,156.607L142.485,148.323ZM137.879,117.925C135.698,118.358 133.556,119.076 131.452,120.078C128.523,121.472 126.133,123.278 124.285,125.501C122.953,127.104 122.147,128.66 121.893,130.181C121.658,131.584 122.016,132.798 122.973,133.821C124.211,135.145 125.945,135.605 128.156,135.267C130.427,134.919 132.093,134.152 133.126,132.909C133.502,132.456 133.898,132.389 134.184,132.456C134.362,132.498 134.539,132.595 134.692,132.782C134.837,132.96 134.985,133.286 135.074,133.773C135.402,135.124 135.08,136.412 134.07,137.626C132.18,139.901 129.377,141.321 125.642,141.845C121.865,142.376 118.709,141.28 116.171,138.564C114.057,136.303 113.071,133.157 113.269,129.11C113.436,125.683 114.52,122.538 116.527,119.674C108.685,121.045 101.11,123.198 93.883,126.049L90.279,137.638L96.043,146.373L96.424,144.019L101.829,149.133C102.183,147.923 102.706,146.908 103.39,146.085C103.911,145.458 104.433,145.03 104.94,144.783C105.326,144.596 105.639,144.526 105.867,144.529C106.181,144.534 106.413,144.651 106.581,144.831C106.651,144.906 106.734,145.028 106.789,145.216C106.837,145.377 106.877,145.65 106.894,146.037C106.906,146.301 106.965,146.517 107.108,146.67C107.85,147.463 108.762,147.999 109.842,148.28C109.904,148.296 109.968,148.312 110.033,148.326L112.042,147.785L111.864,148.515C112.734,148.531 113.751,148.472 114.916,148.342C117.219,148.085 120.298,147.315 124.155,146.039C128.056,144.749 132.868,142.93 138.591,140.582C149.612,136.053 158.775,133.92 166.075,134.154C165.831,133.803 165.529,133.372 165.167,132.859C164.199,131.484 163.493,130.496 163.05,129.895C162.61,129.299 161.847,128.357 160.759,127.068C159.665,125.771 158.501,124.462 157.266,123.141C155.367,121.11 153.003,119.622 150.175,118.674C146.131,118.214 142.031,117.961 137.879,117.925ZM75.653,135.155C76.528,134.618 77.411,134.092 78.301,133.577L79.749,134.667L84.19,133.374L82.72,138.431L85.251,142.255L80.22,142.02L77.309,145.137L75.78,140.668L71.456,138.668L75.543,136.168L75.653,135.155ZM162.136,120.667C163.681,122.355 165.517,124.638 167.643,127.517C169.835,130.486 172.026,133.229 174.215,135.745C175.945,136.401 177.498,137.269 178.875,138.35C179.08,138.176 179.314,138.024 179.574,137.902L192.065,132.047C192.167,131.999 192.271,131.958 192.375,131.922C182.991,126.854 172.838,123.028 162.136,120.667ZM180.189,106.092C174.413,104.148 168.461,102.581 162.366,101.421C161.639,100.11 160.883,98.715 160.126,97.318C160.038,97.141 159.95,96.995 159.89,96.847C157.125,91.759 155.303,86.083 153.862,80.436L179.889,104.287L180.419,105.288C180.419,105.288 180.253,105.564 180.189,106.092ZM115.274,100.721C108.993,101.722 102.856,103.153 96.893,104.984L96.631,104.2L98.278,101.641L126.011,79.759C123.982,85.819 121.482,91.818 117.923,97.024L117.894,97.024C117.835,97.141 117.775,97.229 117.687,97.318C117.658,97.406 117.57,97.523 117.452,97.671C116.986,98.312 116.204,99.471 115.274,100.721ZM135.95,51.587C137.215,50.409 138.892,49.792 140.627,49.852C142.334,49.909 143.98,50.645 145.127,51.938C146.303,53.174 146.951,54.849 146.862,56.556C146.803,58.291 146.038,59.908 144.803,61.086C143.509,62.26 141.863,62.879 140.128,62.819C138.421,62.762 136.775,62.026 135.628,60.733C134.452,59.497 133.804,57.82 133.864,56.115C133.952,54.35 134.717,52.763 135.95,51.587ZM207.857,15.296C218.916,11.766 223.15,20.353 218.297,30.998C205.298,42.235 188.889,48.674 171.713,49.233C178.065,33.087 191.329,20.618 207.857,15.296ZM64.545,25.293C60.458,14.325 65.338,6.09 76.074,10.442C92.16,16.971 104.454,30.352 109.63,46.91C92.543,45.117 76.633,37.47 64.545,25.293Z" style="fill:none;stroke:rgb(255,0,0);stroke-width:1px;"/>
</svg>
