<?xml version="1.0" encoding="UTF-8" standalone="no"?>
<!DOCTYPE svg PUBLIC "-//W3C//DTD SVG 1.1//EN" "http://www.w3.org/Graphics/SVG/1.1/DTD/svg11.dtd">
<svg width="100%" height="100%" viewBox="0 0 1123 794" version="1.1" xmlns="http://www.w3.org/2000/svg" xmlns:xlink="http://www.w3.org/1999/xlink" xml:space="preserve" xmlns:serif="http://www.serif.com/" style="fill-rule:evenodd;clip-rule:evenodd;stroke-linejoin:round;stroke-miterlimit:2;">
    <path d="M0.763,233.654C1.257,185.132 27.188,142.701 65.84,118.992C65.398,118.817 65.044,118.669 64.75,118.492L64.722,118.492C55.281,115.374 48.341,108.758 41.958,101.287C30.577,85.318 46.666,69.791 47.751,53.967C48.723,40.557 42.782,25.706 49.694,12.56C53.84,3.853 62.664,0.531 72.427,0.768C81.014,1.208 89.338,4.267 95.161,8.707C107.57,18.236 119.159,31.999 128.776,45.146C128.776,44.116 130.394,42.292 132.157,41.293C133.276,40.617 134.598,40.263 136.01,40.263L144.597,40.263C146.422,40.263 148.067,40.88 149.422,41.91C150.863,43.057 151.891,44.704 152.273,46.587C152.802,46.587 182.859,16.178 188.975,12.177C195.124,8.148 203.623,5.737 212.21,5.942C221.975,6.413 230.502,10.413 234.032,19.412C239.942,32.998 232.913,47.381 232.854,60.821C232.825,76.702 247.707,93.348 235.179,108.435C229.972,113.729 222.856,118.846 215.857,121.903L215.797,121.903C215.417,122.021 214.603,122.283 213.44,122.66C235.706,137.872 253.229,159.522 263.318,184.913L263.635,185.717C269.445,200.605 272.705,216.771 272.875,233.676L272.882,235.085L272.88,235.812L272.866,237.183L272.848,238.157L272.816,239.357L272.777,240.461C272.271,253.525 269.932,266.101 265.999,277.951C265.659,278.997 265.294,280.017 264.925,281.008L264.5,282.186C263.205,285.714 261.764,289.155 260.177,292.537C259.764,293.448 259.353,294.331 258.911,295.213C258.206,296.654 257.441,298.096 256.707,299.508C256.647,299.565 256.619,299.654 256.588,299.713C255.177,302.329 253.677,304.919 252.09,307.419C251.717,307.987 251.375,308.559 250.98,309.103L250.882,309.252C250.472,309.92 250.043,310.551 249.594,311.192L249.354,311.546L249.354,311.565C249.088,312.005 248.794,312.416 248.472,312.829C245.795,316.713 242.913,320.415 239.854,323.976C215.151,352.578 178.758,370.759 138.144,371.142L136.819,371.148C133.222,371.148 129.657,371.008 126.124,370.733C59.482,365.554 6.326,312.384 1.167,245.731C0.895,242.217 0.756,238.667 0.756,235.085L0.763,233.654ZM28.751,280.397C40.488,308.332 62.752,330.776 90.57,342.754C86.43,339.961 82.52,336.774 78.888,333.213C75.47,329.86 75.47,324.406 78.888,321.053C82.307,317.7 87.87,317.7 91.289,321.053C93.511,323.232 95.866,325.23 98.335,327.046C102.763,312.408 102.398,299.836 101.771,293.577L92.474,300.653C89.142,303.191 84.772,303.273 81.343,300.862C77.913,298.45 76.589,294.365 77.972,290.454L85.343,269.604L86.265,255.979C86.324,255.115 86.821,254.338 87.589,253.91C88.356,253.482 89.292,253.461 90.078,253.854C90.199,253.915 91.551,254.595 93.379,255.698L90.219,242.394L72.795,235.617L73.743,234.921L60.959,228.962L55.458,232.149L69.292,238.586L62.38,242.58L48.557,236.132L40.419,240.826L51.529,246.478L40.419,252.14L48.557,256.834L62.38,250.385L69.292,254.369L55.458,260.817L60.959,263.993L74.793,257.544L81.694,261.528L67.871,267.976L78.895,274.349C80.197,275.092 80.639,276.761 79.885,278.064C79.131,279.377 77.474,279.818 76.16,279.065L65.136,272.702L66.471,287.903L59.571,283.92L58.236,268.719L52.734,265.532L54.059,280.733L47.158,276.75L45.834,261.549L37.695,256.856L38.352,269.3L27.898,262.507L27.898,271.906L40.397,280.658L40.397,288.624L28.794,280.5L28.751,280.397ZM233.012,301.959C231.873,301.683 230.731,301.431 229.591,301.155C226.915,302.799 224.267,304.448 221.621,306.066C220.62,306.683 219.327,306.417 218.65,305.447C218.445,305.153 218.326,304.8 218.297,304.448L200.475,303.418L187.72,318.623C190.354,318.261 193.125,319.071 195.146,321.053C196.802,322.677 197.715,324.836 197.714,327.133C197.714,329.43 196.802,331.589 195.146,333.213C191.721,336.571 188.049,339.597 184.169,342.273C198.375,335.983 211.1,326.95 221.671,315.847C221.653,315.726 221.646,315.602 221.65,315.475C221.681,314.328 222.62,313.389 223.767,313.36L223.978,313.353C224.787,312.453 225.583,311.54 226.362,310.616C224.439,310.455 223.754,307.872 225.474,306.802C227.928,305.293 230.355,303.762 232.807,302.252L233.012,301.959ZM152.231,328.2C153.857,330.702 156.365,333.727 158.432,336.092C151.639,338.426 144.423,339.645 137.018,339.645C130.424,339.645 123.98,338.678 117.851,336.819L122.432,328.338C127.245,329.627 139.269,332.015 152.231,328.2ZM177.773,297.679C179.293,301.583 178.384,304.766 175.569,303.113C175.843,310.356 177.192,319.266 178.76,324.648C180.13,323.509 181.461,322.312 182.746,321.053C183.762,320.056 184.968,319.356 186.251,318.952L181.093,299.3L177.773,297.679ZM223.767,299.771C222.62,300.476 221.444,301.212 220.268,301.948L218.827,299.713C219.267,299.448 219.709,299.183 220.151,298.889C221.356,299.183 222.561,299.477 223.767,299.771ZM193.051,132.29C193.774,132.973 194.484,133.687 195.179,134.43C197.176,136.567 199.585,139.543 202.402,143.358C205.152,147.083 207.901,150.523 210.648,153.679C213.861,154.89 216.582,156.691 218.815,159.08C220.08,160.433 220.745,162.373 220.754,164.917C220.762,167.415 219.903,169.714 218.161,171.81C216.957,173.258 214.846,174.858 211.811,176.589C208.853,178.277 205.409,180.032 201.48,181.854C197.596,183.654 195.427,184.679 194.974,184.932C194.97,184.935 194.966,184.937 194.962,184.939C183.322,191.121 174.758,196.067 169.274,199.781C166.474,201.677 163.966,203.6 161.751,205.549C165.464,207.122 170.668,207.646 174.444,206.302C175.113,205.798 175.827,205.301 176.588,204.812C179.061,203.22 184.554,200.194 193.069,195.735C193.069,195.735 191.209,193.745 191.209,193.745C190.926,193.442 190.819,193.066 190.933,192.607C191.041,192.169 191.273,191.904 191.555,191.762L195.102,189.841C195.11,189.837 195.119,189.832 195.128,189.828C195.837,189.484 196.451,189.6 196.973,190.159C196.973,190.159 199.216,192.558 199.216,192.558C202.186,191.013 207.478,188.267 215.09,184.321C215.454,184.119 215.791,184.05 216.094,184.077C216.44,184.109 216.756,184.259 217.032,184.554C217.032,184.554 222.143,190.022 222.143,190.022C222.4,190.297 222.526,190.658 222.465,191.121C222.402,191.608 222.143,191.939 221.688,192.109C214.653,195.799 209.526,198.478 206.309,200.146C206.309,200.146 209.137,203.171 209.137,203.171C209.42,203.474 209.527,203.85 209.413,204.309C209.32,204.684 209.111,204.982 208.783,205.201C208.764,205.214 208.745,205.226 208.724,205.236L205.217,207.089C204.509,207.433 203.895,207.317 203.372,206.758C203.372,206.758 200.162,203.323 200.161,203.323C190.868,208.224 184.931,211.457 182.349,213.022C179.799,214.568 177.907,216.071 176.684,217.543C176.127,218.213 175.939,218.759 176.368,219.217C176.828,219.709 177.544,220.03 178.496,220.223C179.564,220.438 180.908,220.481 182.529,220.361C185.356,220.152 188.859,219.367 193.037,218.016C193.345,217.816 193.659,217.619 193.98,217.424C196.909,215.645 199.948,214.282 203.098,213.334C206.295,212.372 209.488,212.148 212.68,212.659C215.929,213.18 218.571,214.537 220.611,216.72C222.883,219.151 223.642,221.829 222.889,224.754C223.547,224.48 224.12,224.614 224.613,225.14C224.613,225.14 229.789,230.678 229.789,230.678C230.072,230.981 230.179,231.357 230.065,231.816C229.972,232.19 229.763,232.488 229.435,232.707C229.415,232.721 229.393,232.734 229.372,232.745C219.372,237.93 212.901,241.436 209.958,243.264C207.089,245.047 205.08,246.614 203.944,247.98C203.392,248.644 203.167,249.161 203.563,249.585C203.745,249.779 204.103,249.852 204.604,249.905C205.634,250.014 207.156,249.896 209.17,249.568C212.625,249.006 216.956,247.774 222.164,245.879C222.214,245.861 222.265,245.849 222.318,245.843C222.73,245.797 222.997,245.938 223.162,246.115C223.325,246.289 223.443,246.555 223.378,246.934C223.279,248.506 223.195,249.628 223.129,250.289C223.1,250.92 222.801,251.283 222.341,251.443C217.923,253.115 214.271,254.354 211.388,255.163C208.428,255.993 206.048,256.341 204.251,256.226C202.39,256.107 200.993,255.785 200.054,255.29C199.12,254.799 198.145,254.018 197.136,252.939C195.634,251.333 194.928,249.321 195.036,246.897C195.118,245.067 195.654,243.355 196.648,241.762C194.42,242.28 192.447,242.467 190.726,242.335L189.181,246.452L193.977,254.57L184.8,253.892L181.418,258.158L196.505,270.363L217.563,265.832L210.092,286.304L214.679,293.332C214.886,293.39 215.092,293.448 215.297,293.478C215.003,293.008 214.709,292.537 214.444,292.068C213.827,291.067 214.15,289.772 215.209,289.213C216.208,288.655 217.503,289.009 218.12,289.979C219.121,291.624 220.12,293.244 221.091,294.862C222.326,295.154 223.533,295.448 224.738,295.744C223.798,294.214 222.885,292.712 221.975,291.213C221.356,290.183 221.681,288.89 222.737,288.331C223.738,287.802 225.032,288.125 225.65,289.124C227.268,291.772 228.915,294.449 230.531,297.123C231.737,297.39 232.973,297.682 234.178,297.978C232.591,295.39 231.002,292.802 229.414,290.214C228.325,288.419 230.296,286.304 232.178,287.303C232.847,287.663 233.514,288.023 234.18,288.383L238.176,290.544C238.654,290.802 239.133,291.061 239.613,291.319C239.716,291.13 239.819,290.941 239.922,290.753C239.654,289.848 239.386,288.951 239.12,288.037C236.355,286.567 233.619,285.068 230.856,283.596C229.854,283.068 229.414,281.773 229.914,280.745C230.414,279.657 231.678,279.244 232.737,279.803C234.297,280.656 235.855,281.479 237.414,282.332C237.06,281.125 236.708,279.949 236.355,278.744C234.65,277.832 232.973,276.95 231.296,276.039C230.296,275.48 229.885,274.216 230.356,273.186C230.856,272.098 232.12,271.685 233.179,272.244C233.649,272.509 234.149,272.774 234.65,273.038C234.266,271.833 233.915,270.626 233.561,269.393C233.238,268.303 233.795,267.097 234.943,266.745C236.061,266.422 237.208,267.127 237.531,268.215C237.884,269.42 238.267,270.626 238.618,271.833C238.885,271.362 239.149,270.861 239.414,270.392C239.973,269.331 241.266,269.01 242.265,269.627C243.266,270.215 243.589,271.508 243.059,272.538L240.325,277.569L241.383,281.125C242.236,279.569 243.09,278.039 243.912,276.479C244.491,275.437 245.727,275.106 246.747,275.686C251.427,263.036 253.984,249.357 253.984,235.085C253.984,190.789 229.35,152.202 193.051,132.29ZM202.504,293.509L195.447,293.184L191.358,297.567L189.212,291.301L183.182,288.507L188.858,285.008L189.565,278.948L194.77,282.891L201.006,281.098L198.946,288.154L202.504,293.509ZM144.712,285.874L145.927,285.831C153.666,285.755 159.844,286.382 165.152,287.752L177.948,279.302L179.124,269.362L157.803,267.421L144.712,285.874ZM96.372,257.636C97.666,258.539 98.998,259.563 100.194,260.664C108.144,261.53 115.866,266.542 122.586,275.216C126.172,279.845 128.6,284.364 129.777,286.756C132.882,286.467 135.79,286.245 138.527,286.09L139.258,286.065L135.51,262.245L112.218,252.716L120.717,247.071L106.454,245.776L96.372,257.636ZM94.108,273.251C95.738,273.251 97.061,274.548 97.061,276.146C97.061,277.744 95.738,279.041 94.108,279.041C92.479,279.041 91.156,277.744 91.156,276.146C91.156,274.548 92.479,273.251 94.108,273.251ZM169.743,249.334L176.007,252.188L179.241,263.569L169.743,249.334ZM137.657,250.424L144.568,246.216L145.391,238.864L151.685,243.658L159.242,241.481L156.745,250.011L161.037,256.48L152.508,256.069L147.568,261.394L144.979,253.804L137.657,250.424ZM184.74,239.678C182.814,237.595 182.063,235.083 182.502,232.139C182.788,230.211 183.526,228.267 184.721,226.309L184.45,226.375C181.4,227.11 178.932,227.363 177.046,227.153C176.834,227.129 176.628,227.103 176.428,227.075L168.771,246.775L175.154,243.424L175.802,234.426L183.007,240.159L184.74,239.678ZM136.951,215.603L134.158,214.25L133.128,238.953L124.099,244.982L114.747,230.777L121.159,213.484L107.513,216.397L113.805,208.336L131.216,209.631L135.804,211.22L136.951,215.603ZM108.423,237.6L102.159,237.308L98.513,241.218L96.601,235.629L91.221,233.158L96.278,230.041L96.897,224.63L101.543,228.16L107.101,226.542L105.276,232.835L108.423,237.6ZM214.587,229.133C211.902,230.536 209.656,231.792 207.846,232.9C202.498,235.018 198.411,236.149 195.583,236.268C193.911,236.338 192.721,236.075 192.046,235.353C191.699,234.982 191.632,234.445 191.754,233.76C191.904,232.921 192.368,232.055 193.121,231.149C194.903,229.004 197.498,226.899 200.898,224.823C204.306,222.743 207.69,221.312 211.053,220.537C214.168,219.818 216.347,220.002 217.563,221.302C218.198,221.982 218.208,223 217.758,224.343C217.244,225.881 216.181,227.474 214.588,229.132L214.587,229.133ZM27.866,191.94L27.866,191.939C35.519,172.65 48.152,155.866 64.177,143.178L70.546,145.608L72.309,151.812L72.104,167.459L61.28,174.605L73.22,179.604L77.192,191.927L84.455,182.341L94.748,183.163L94.574,185.811L78.604,196.25L83.984,199.367L80.191,200.339L72.897,194.369L71.956,203.573L66.25,207.577L66.471,205.063L59.571,209.046L58.236,224.247L52.734,227.423L54.059,212.222L47.158,216.205L45.834,231.406L37.695,236.1L38.352,223.655L27.898,230.448L27.898,221.06L40.397,212.308L40.397,204.331L27.898,213.083L27.898,206.731L40.397,197.979L40.397,190.013L27.898,198.754L27.898,191.859C27.888,191.886 27.877,191.913 27.866,191.94ZM79.742,230.517L67.871,224.979L75.44,220.61L75.691,221.425L81.367,214.368L88.425,215.19L87.866,224.809L84.955,226.69L79.742,230.517ZM20.912,219.942L20.907,219.979L22.451,221.06L22.451,230.448L19.829,228.744C19.884,228.366 20.271,224.663 20.907,219.979L20.855,219.942L20.912,219.942ZM172.278,225.736C171.357,225.153 170.367,224.302 169.315,223.177C167.855,221.614 167.231,219.532 167.493,216.914C167.619,215.658 167.92,214.465 168.396,213.335C164.556,212.458 160.201,211.023 157.378,209.85C156.993,210.278 156.621,210.708 156.263,211.139C155.76,211.744 155.353,212.306 155.043,212.827L155.861,214.22L154.43,214.148C154.263,214.611 154.179,214.947 154.228,215.169C154.309,215.533 154.377,215.911 154.434,216.305C154.517,216.88 154.375,217.382 154.018,217.811C153.351,218.614 152.008,218.955 149.944,218.579C148.069,218.237 146.453,217.344 145.1,215.897C144.878,215.66 144.677,215.413 144.495,215.155L140.422,219.337L153.743,230.337L172.278,225.736ZM19.829,228.744C19.826,228.765 19.824,228.776 19.823,228.776C19.822,228.775 19.822,228.764 19.823,228.74L19.829,228.744ZM65.136,220.264L73.789,215.262L72.986,212.661L66.093,209.374L65.136,220.264ZM96.601,204.074L99.043,213.808L89.278,205.925L89.132,206.044L88.308,210.955L85.514,207.014L88.102,200.839L96.601,204.074ZM82.514,210.544L79.486,210.398L77.72,212.279L76.81,209.574L74.192,208.398L76.662,206.868L76.956,204.28L79.19,205.955L81.867,205.193L80.985,208.221L82.514,210.544ZM153.735,195.861C154.774,195.03 155.86,194.221 156.992,193.434C161.016,190.636 166.664,187.286 173.935,183.384C173.935,183.384 163.67,172.402 163.67,172.402C162.539,172.947 160.797,173.776 158.443,174.888C155.755,176.158 153.82,177.063 152.636,177.604C151.452,178.145 149.676,178.93 147.309,179.961C144.92,181.001 143.107,181.718 141.871,182.114C140.649,182.506 139.099,182.997 137.22,183.59C135.273,184.204 133.705,184.532 132.52,184.585C131.368,184.636 130.115,184.661 128.762,184.658C127.427,184.655 126.264,184.44 125.271,184.025L122.306,192.398L129.863,203.515L134.01,201.427L135.422,189.809L143.481,197.28L154.274,194.25L153.735,195.861ZM115.777,199.663L109.482,199.367L105.835,203.281L103.923,197.691L98.543,195.22L103.629,192.104L104.248,186.693L108.894,190.222L114.453,188.605L112.601,194.897L115.777,199.663ZM170.826,169.191C186.553,162.459 198.703,159.333 207.295,159.853L208.927,161.598C209.849,162.584 210.7,163.362 211.475,163.935C210.452,164.817 209.019,165.733 207.181,166.692C204.888,167.888 201.735,169.408 197.724,171.254C193.689,173.11 190.233,174.786 187.355,176.283C184.602,177.711 182.4,178.885 180.749,179.806L170.826,169.191ZM77.897,171.429L78.337,167.43L81.778,170.016L85.896,168.84L84.543,173.488L86.866,177.018L82.22,176.782L79.544,179.693L78.132,175.546L74.133,173.723L77.897,171.429ZM163.513,120.98C154.939,118.978 146.001,117.92 136.819,117.92C121.668,117.92 107.185,120.802 93.883,126.049L90.279,137.638L96.043,146.373L96.424,144.019L102.984,150.225L112.042,147.785L109.747,157.196L114.276,164.488L105.19,163.989L99.925,169.899L109.924,179.399L119.925,176.804C119.814,175.961 119.789,175.057 119.851,174.091C120.058,170.843 120.922,168.338 122.4,166.56C123.032,165.799 123.664,165.277 124.281,164.978C124.732,164.759 125.097,164.673 125.363,164.677C125.703,164.682 125.954,164.807 126.137,165.002C126.212,165.082 126.3,165.213 126.359,165.416C126.416,165.609 126.462,165.937 126.483,166.402C126.5,166.778 126.592,167.081 126.795,167.298C127.743,168.313 128.909,168.998 130.29,169.358C131.742,169.736 133.875,169.754 136.688,169.439C139.574,169.117 143.432,168.153 148.264,166.555C153.14,164.943 159.154,162.669 166.308,159.734C180.215,154.019 191.749,151.361 200.902,151.728C200.57,151.247 200.128,150.617 199.579,149.837C198.368,148.118 197.485,146.883 196.932,146.132C196.382,145.386 195.425,144.206 194.063,142.591C192.696,140.969 191.239,139.332 189.694,137.68C187.184,134.993 184.026,133.062 180.226,131.88C176.395,130.688 172.537,130.271 168.652,130.63C164.757,130.99 160.958,132.053 157.256,133.816C153.573,135.57 150.569,137.841 148.246,140.635C146.56,142.664 145.543,144.635 145.221,146.559C144.919,148.367 145.381,149.93 146.613,151.247C148.195,152.94 150.409,153.537 153.234,153.105C156.12,152.663 158.233,151.681 159.545,150.102C159.959,149.604 160.387,149.518 160.702,149.591C160.893,149.636 161.081,149.741 161.245,149.941C161.416,150.151 161.585,150.537 161.688,151.108C162.088,152.747 161.694,154.308 160.47,155.781C158.132,158.594 154.664,160.345 150.045,160.994C145.385,161.649 141.491,160.297 138.359,156.946C135.746,154.151 134.534,150.261 134.778,145.257C135.019,140.321 136.795,135.856 140.114,131.862C142.935,128.468 146.564,125.829 151.004,123.95C154.943,122.283 159.112,121.292 163.513,120.98ZM94.514,161.341L96.985,162.165L98.159,168.871L95.955,167.105L95.131,178.694L90.337,172.399L94.514,161.341ZM83.074,163.666L76.485,157.665L83.337,148.607L95.69,149.489L95.338,154.195L88.573,158.167L92.865,160.636L83.074,163.666ZM106.1,159.665L103.07,159.548L101.308,161.429L100.396,158.724L97.779,157.519L100.248,156.018L100.544,153.43L102.778,155.108L105.455,154.343L104.571,157.371L106.1,159.665ZM75.653,135.155C76.528,134.618 77.411,134.092 78.301,133.577L79.749,134.667L84.19,133.374L82.72,138.431L85.251,142.255L80.22,142.02L77.309,145.137L75.78,140.668L71.456,138.668L75.543,136.168L75.653,135.155ZM180.189,106.092C174.413,104.148 168.461,102.581 162.366,101.421C161.639,100.11 160.883,98.715 160.126,97.318C160.038,97.141 159.95,96.995 159.89,96.847C157.125,91.759 155.303,86.083 153.862,80.436L179.889,104.287L180.419,105.288C180.419,105.288 180.253,105.564 180.189,106.092ZM115.274,100.721C108.993,101.722 102.856,103.153 96.893,104.984L96.631,104.2L98.278,101.641L126.011,79.759C123.982,85.819 121.482,91.818 117.923,97.024L117.894,97.024C117.835,97.141 117.775,97.229 117.687,97.318C117.658,97.406 117.57,97.523 117.452,97.671C116.986,98.312 116.204,99.471 115.274,100.721ZM135.95,51.587C137.215,50.409 138.892,49.792 140.627,49.852C142.334,49.909 143.98,50.645 145.127,51.938C146.303,53.174 146.951,54.849 146.862,56.556C146.803,58.291 146.038,59.908 144.803,61.086C143.509,62.26 141.863,62.879 140.128,62.819C138.421,62.762 136.775,62.026 135.628,60.733C134.452,59.497 133.804,57.82 133.864,56.115C133.952,54.35 134.717,52.763 135.95,51.587ZM207.857,15.296C218.916,11.766 223.15,20.353 218.297,30.998C205.298,42.235 188.889,48.674 171.713,49.233C178.065,33.087 191.329,20.618 207.857,15.296ZM64.545,25.293C60.458,14.325 65.338,6.09 76.074,10.442C92.16,16.971 104.454,30.352 109.63,46.91C92.543,45.117 76.633,37.47 64.545,25.293Z" style="fill:none;stroke:rgb(255,0,0);stroke-width:1px;"/>
</svg>
