<?xml version="1.0" encoding="UTF-8" standalone="no"?>
<!DOCTYPE svg PUBLIC "-//W3C//DTD SVG 1.1//EN" "http://www.w3.org/Graphics/SVG/1.1/DTD/svg11.dtd">
<svg width="100%" height="100%" viewBox="0 0 1123 794" version="1.1" xmlns="http://www.w3.org/2000/svg" xmlns:xlink="http://www.w3.org/1999/xlink" xml:space="preserve" xmlns:serif="http://www.serif.com/" style="fill-rule:evenodd;clip-rule:evenodd;stroke-linejoin:round;stroke-miterlimit:2;">
    <path d="M0.763,233.654C1.257,185.132 27.188,142.701 65.84,118.992C65.398,118.817 65.044,118.669 64.75,118.492L64.722,118.492C55.281,115.374 48.341,108.758 41.958,101.287C30.577,85.318 46.666,69.791 47.751,53.967C48.723,40.557 42.782,25.706 49.694,12.56C53.84,3.853 62.664,0.531 72.427,0.768C81.014,1.208 89.338,4.267 95.161,8.707C107.57,18.236 119.159,31.999 128.776,45.146C128.776,44.116 130.394,42.292 132.157,41.293C133.276,40.617 134.598,40.263 136.01,40.263L144.597,40.263C146.422,40.263 148.067,40.88 149.422,41.91C150.863,43.057 151.891,44.704 152.273,46.587C152.802,46.587 182.859,16.178 188.975,12.177C195.124,8.148 203.623,5.737 212.21,5.942C221.975,6.413 230.502,10.413 234.032,19.412C239.942,32.998 232.913,47.381 232.854,60.821C232.825,76.702 247.707,93.348 235.179,108.435C229.972,113.729 222.856,118.846 215.857,121.903L215.797,121.903C215.417,122.021 214.603,122.283 213.44,122.66C235.706,137.872 253.229,159.522 263.318,184.913L263.635,185.717C269.445,200.605 272.705,216.771 272.875,233.676L272.882,235.085L272.88,235.812L272.866,237.183L272.848,238.157L272.816,239.357L272.777,240.461C272.271,253.525 269.932,266.101 265.999,277.951C265.659,278.997 265.294,280.017 264.925,281.008L264.5,282.186C263.205,285.714 261.764,289.155 260.177,292.537C259.764,293.448 259.353,294.331 258.911,295.213C258.206,296.654 257.441,298.096 256.707,299.508C256.647,299.565 256.619,299.654 256.588,299.713C255.177,302.329 253.677,304.919 252.09,307.419C251.717,307.987 251.375,308.559 250.98,309.103L250.882,309.252C250.472,309.92 250.043,310.551 249.594,311.192L249.354,311.546L249.354,311.565C249.088,312.005 248.794,312.416 248.472,312.829C245.795,316.713 242.913,320.415 239.854,323.976C215.151,352.578 178.758,370.759 138.144,371.142L136.819,371.148C133.222,371.148 129.657,371.008 126.124,370.733C59.482,365.554 6.326,312.384 1.167,245.731C0.895,242.217 0.756,238.667 0.756,235.085L0.763,233.654ZM28.751,280.397C40.488,308.332 62.752,330.776 90.57,342.754C86.43,339.961 82.52,336.774 78.888,333.213C75.47,329.86 75.47,324.406 78.888,321.053C82.307,317.7 87.87,317.7 91.289,321.053C93.511,323.232 95.866,325.23 98.335,327.046C102.763,312.408 102.398,299.836 101.771,293.577L92.474,300.653C89.142,303.191 84.772,303.273 81.343,300.862C77.913,298.45 76.589,294.365 77.972,290.454L85.343,269.604L86.265,255.979C86.324,255.115 86.821,254.338 87.589,253.91C88.356,253.482 89.292,253.461 90.078,253.854C90.199,253.915 91.551,254.595 93.379,255.698L90.219,242.394L72.795,235.617L73.743,234.921L60.959,228.962L55.458,232.149L69.292,238.586L62.38,242.58L48.557,236.132L40.419,240.826L51.529,246.478L40.419,252.14L48.557,256.834L62.38,250.385L69.292,254.369L55.458,260.817L60.959,263.993L74.793,257.544L81.694,261.528L67.871,267.976L78.895,274.349C80.197,275.092 80.639,276.761 79.885,278.064C79.131,279.377 77.474,279.818 76.16,279.065L65.136,272.702L66.471,287.903L59.571,283.92L58.236,268.719L52.734,265.532L54.059,280.733L47.158,276.75L45.834,261.549L37.695,256.856L38.352,269.3L27.898,262.507L27.898,271.906L40.397,280.658L40.397,288.624L28.794,280.5L28.751,280.397ZM233.012,301.959C231.873,301.683 230.731,301.431 229.591,301.155C226.915,302.799 224.267,304.448 221.621,306.066C220.62,306.683 219.327,306.417 218.65,305.447C218.445,305.153 218.326,304.8 218.297,304.448L200.475,303.418L187.72,318.623C190.354,318.261 193.125,319.071 195.146,321.053C196.802,322.677 197.715,324.836 197.714,327.133C197.714,329.43 196.802,331.589 195.146,333.213C191.721,336.571 188.049,339.597 184.169,342.273C198.375,335.983 211.1,326.95 221.671,315.847C221.653,315.726 221.646,315.602 221.65,315.475C221.681,314.328 222.62,313.389 223.767,313.36L223.978,313.353C224.787,312.453 225.583,311.54 226.362,310.616C224.439,310.455 223.754,307.872 225.474,306.802C227.928,305.293 230.355,303.762 232.807,302.252L233.012,301.959ZM152.231,328.2C153.857,330.702 156.365,333.727 158.432,336.092C151.639,338.426 144.423,339.645 137.018,339.645C130.424,339.645 123.98,338.678 117.851,336.819L122.432,328.338C127.245,329.627 139.269,332.015 152.231,328.2ZM177.773,297.679C179.293,301.583 178.384,304.766 175.569,303.113C175.843,310.356 177.192,319.266 178.76,324.648C180.13,323.509 181.461,322.312 182.746,321.053C183.762,320.056 184.968,319.356 186.251,318.952L181.093,299.3L177.773,297.679ZM223.767,299.771C222.62,300.476 221.444,301.212 220.268,301.948L218.827,299.713C219.267,299.448 219.709,299.183 220.151,298.889C221.356,299.183 222.561,299.477 223.767,299.771ZM153.68,196.025L150.596,205.25L155.861,214.22L145.892,213.72L140.422,219.337L153.743,230.337L177.446,224.453L168.771,246.775L175.154,243.424L175.802,234.426L183.007,240.159L192.536,237.512L189.181,246.452L193.977,254.57L184.8,253.892L181.418,258.158L196.505,270.363L217.563,265.832L210.092,286.304L214.679,293.332C214.886,293.39 215.092,293.448 215.297,293.478C215.003,293.008 214.709,292.537 214.444,292.068C213.827,291.067 214.15,289.772 215.209,289.213C216.208,288.655 217.503,289.009 218.12,289.979C219.121,291.624 220.12,293.244 221.091,294.862C222.326,295.154 223.533,295.448 224.738,295.744C223.798,294.214 222.885,292.712 221.975,291.213C221.356,290.183 221.681,288.89 222.737,288.331C223.738,287.802 225.032,288.125 225.65,289.124C227.268,291.772 228.915,294.449 230.531,297.123C231.737,297.39 232.973,297.682 234.178,297.978C232.591,295.39 231.002,292.802 229.414,290.214C228.325,288.419 230.296,286.304 232.178,287.303C232.847,287.663 233.514,288.023 234.18,288.383L238.176,290.544C238.654,290.802 239.133,291.061 239.613,291.319C239.716,291.13 239.819,290.941 239.922,290.753C239.654,289.848 239.386,288.951 239.12,288.037C236.355,286.567 233.619,285.068 230.856,283.596C229.854,283.068 229.414,281.773 229.914,280.745C229.956,280.654 230.003,280.568 230.055,280.488C228.482,279.957 227.27,279.377 226.414,278.758C225.516,278.109 224.553,277.2 223.53,276.028C221.993,274.269 221.162,272.348 221.022,270.274C220.91,268.619 221.259,267.193 222.061,265.992C217.006,265.802 213.228,264.232 210.705,261.343C208.696,259.043 207.766,256.648 207.878,254.176C207.953,252.519 208.451,250.961 209.379,249.506C209.255,249.507 209.134,249.508 209.013,249.508C206.43,249.518 204.299,249.268 202.621,248.767C200.905,248.256 199.595,247.663 198.684,247.005C197.789,246.358 196.758,245.373 195.598,244.045C194.101,242.33 193.345,240.367 193.326,238.158C193.312,236.486 193.7,235.049 194.481,233.842C192.17,233.759 190.243,233.445 188.7,232.91C186.947,232.303 185.622,231.666 184.718,231.013C183.821,230.365 182.836,229.431 181.767,228.207C180.276,226.5 179.466,224.606 179.326,222.529C179.213,220.859 179.57,219.423 180.387,218.215C178.223,218.047 176.402,217.688 174.924,217.145C173.128,216.485 171.735,215.77 170.739,215.011C169.757,214.262 168.664,213.203 167.465,211.83C165.968,210.115 165.212,208.153 165.193,205.943C165.179,204.31 165.55,202.9 166.296,201.71C163.98,201.555 162.045,201.187 160.488,200.615C158.692,199.955 157.299,199.24 156.303,198.481C155.502,197.87 154.626,197.052 153.68,196.025ZM202.504,293.509L195.447,293.184L191.358,297.567L189.212,291.301L183.182,288.507L188.858,285.008L189.565,278.948L194.77,282.891L201.006,281.098L198.946,288.154L202.504,293.509ZM144.712,285.874L145.927,285.831C153.666,285.755 159.844,286.382 165.152,287.752L177.948,279.302L179.124,269.362L157.803,267.421L144.712,285.874ZM96.372,257.636C97.666,258.539 98.998,259.563 100.194,260.664C108.144,261.53 115.866,266.542 122.586,275.216C126.172,279.845 128.6,284.364 129.777,286.756C132.882,286.467 135.79,286.245 138.527,286.09L139.258,286.065L135.51,262.245L112.218,252.716L120.717,247.071L106.454,245.776L96.372,257.636ZM94.108,273.251C95.738,273.251 97.061,274.548 97.061,276.146C97.061,277.744 95.738,279.041 94.108,279.041C92.479,279.041 91.156,277.744 91.156,276.146C91.156,274.548 92.479,273.251 94.108,273.251ZM249.699,266.567C241.891,268.431 236.796,269.771 234.414,270.589C231.984,271.425 230.309,272.27 229.412,273.168C229.213,273.366 229.084,273.553 229.076,273.757C229.068,273.958 229.182,274.149 229.362,274.355C229.576,274.6 229.962,274.799 230.496,274.993C231.468,275.344 232.878,275.621 234.723,275.833C237.386,276.138 240.582,276.179 244.312,275.959C244.957,275.343 245.922,275.217 246.747,275.686C247.851,272.702 248.837,269.66 249.699,266.567ZM169.743,249.334L176.007,252.188L179.241,263.569L169.743,249.334ZM167.971,122.114C169.686,123.73 171.35,125.461 172.962,127.307C175.03,129.675 177.563,132.88 180.561,136.923C183.512,140.904 186.434,144.633 189.324,148.107C192.422,149.953 195.123,152.196 197.428,154.836C198.721,156.317 199.505,158.158 199.765,160.365C200.034,162.651 199.421,164.524 197.954,165.992C196.955,166.99 195.111,167.909 192.395,168.698C189.806,169.45 186.77,170.14 183.289,170.769C179.869,171.386 177.961,171.748 177.566,171.857L175.232,172.447C175.37,172.545 175.504,172.668 175.635,172.817C175.635,172.817 178.056,175.589 178.056,175.589C180.663,174.969 185.311,173.867 191.985,172.288C192.634,172.108 193.223,172.281 193.733,172.864C193.733,172.864 199.037,178.938 199.037,178.938C199.288,179.225 199.405,179.552 199.396,179.92C199.388,180.221 199.278,180.441 199.119,180.6C198.978,180.741 198.783,180.848 198.526,180.874C192.634,182.305 188.268,183.356 185.427,184.03C185.427,184.03 188.258,187.271 188.258,187.271C188.54,187.595 188.632,187.943 188.574,188.303C188.55,188.453 188.506,188.585 188.441,188.701C189.016,188.59 189.571,188.776 190.071,189.347C190.071,189.347 192.492,192.119 192.491,192.119C195.099,191.499 199.747,190.397 206.421,188.818C207.07,188.638 207.659,188.811 208.169,189.394C208.169,189.394 213.473,195.468 213.473,195.468C213.723,195.755 213.841,196.083 213.831,196.45C213.824,196.751 213.714,196.971 213.555,197.13C213.413,197.271 213.219,197.378 212.962,197.404C207.07,198.835 202.704,199.886 199.862,200.56C199.862,200.56 202.693,203.801 202.693,203.801C202.976,204.125 203.068,204.473 203.01,204.833C202.942,205.258 202.709,205.544 202.317,205.699C202.29,205.709 202.262,205.718 202.233,205.725L199.147,206.486C198.566,206.604 198.005,206.42 197.501,205.843C197.501,205.843 194.075,201.92 194.075,201.92C185.931,203.922 180.737,205.289 178.495,206.024C176.336,206.732 174.766,207.552 173.801,208.516C173.607,208.71 173.484,208.897 173.483,209.103C173.481,209.326 173.611,209.543 173.818,209.78C174.869,210.983 176.879,211.835 179.812,212.416C182.649,212.977 186.162,213.14 190.35,212.911C193.545,211.993 198.342,210.77 204.74,209.242C204.748,209.24 204.755,209.238 204.763,209.237C205.344,209.119 205.905,209.303 206.409,209.88C206.409,209.88 211.78,216.031 211.78,216.031C212.062,216.354 212.154,216.702 212.097,217.062C212.029,217.487 211.796,217.774 211.404,217.928C211.375,217.94 211.345,217.949 211.314,217.956C201.781,220.216 195.649,221.801 192.917,222.715C190.311,223.586 188.547,224.447 187.649,225.346C187.451,225.544 187.321,225.731 187.313,225.935C187.306,226.136 187.419,226.327 187.599,226.533C187.832,226.8 188.242,227.023 188.807,227.238C189.815,227.621 191.269,227.93 193.166,228.176C196.357,228.589 200.214,228.632 204.736,228.312C209.384,227.029 220.426,224.318 237.849,220.185C238.498,220.005 239.088,220.177 239.598,220.761C239.598,220.761 244.969,226.911 244.969,226.911C245.258,227.242 245.346,227.614 245.247,228.023C245.121,228.539 244.821,228.768 244.495,228.838C225.027,233.441 213.331,236.29 209.405,237.385C205.632,238.438 203.132,239.532 201.934,240.731C201.736,240.929 201.606,241.116 201.598,241.319C201.591,241.52 201.704,241.712 201.884,241.918C202.832,243.003 204.545,243.65 206.987,243.946C209.335,244.232 212.652,244.228 216.938,243.942C217.055,243.901 217.173,243.861 217.293,243.822C219.858,242.978 222.568,242.529 225.425,242.476C228.299,242.423 231.245,243.013 234.262,244.252C237.286,245.495 239.839,247.309 241.921,249.693C244.321,252.442 245.237,255.041 244.759,257.466L244.844,257.444C245.425,257.326 245.986,257.51 246.49,258.087L250.665,262.868C252.834,253.962 253.984,244.657 253.984,235.085C253.984,181.206 217.538,135.772 167.971,122.114ZM137.657,250.424L144.568,246.216L145.391,238.864L151.685,243.658L159.242,241.481L156.745,250.011L161.037,256.48L152.508,256.069L147.568,261.394L144.979,253.804L137.657,250.424ZM237.598,259.233C235.273,259.794 233.331,260.335 231.771,260.855C227.03,261.387 223.355,261.367 220.747,260.772C219.132,260.404 217.948,259.825 217.218,258.99C216.846,258.563 216.687,258.053 216.734,257.463C216.783,256.828 217.1,256.242 217.653,255.689C219.068,254.273 221.232,253.097 224.131,252.134C227.07,251.158 230.053,250.745 233.08,250.895C235.966,251.039 238.068,251.809 239.356,253.284C240.015,254.037 240.186,254.951 239.904,256.018C239.599,257.168 238.821,258.232 237.599,259.232L237.598,259.233ZM136.951,215.603L134.158,214.25L133.128,238.953L124.099,244.982L114.747,230.777L121.159,213.484L107.513,216.397L113.805,208.336L131.216,209.631L135.804,211.22L136.951,215.603ZM108.423,237.6L102.159,237.308L98.513,241.218L96.601,235.629L91.221,233.158L96.278,230.041L96.897,224.63L101.543,228.16L107.101,226.542L105.276,232.835L108.423,237.6ZM27.866,191.94L27.866,191.939C35.519,172.65 48.152,155.866 64.177,143.178L70.546,145.608L72.309,151.812L72.104,167.459L61.28,174.605L73.22,179.604L77.192,191.927L84.455,182.341L94.748,183.163L94.574,185.811L78.604,196.25L83.984,199.367L80.191,200.339L72.897,194.369L71.956,203.573L66.25,207.577L66.471,205.063L59.571,209.046L58.236,224.247L52.734,227.423L54.059,212.222L47.158,216.205L45.834,231.406L37.695,236.1L38.352,223.655L27.898,230.448L27.898,221.06L40.397,212.308L40.397,204.331L27.898,213.083L27.898,206.731L40.397,197.979L40.397,190.013L27.898,198.754L27.898,191.859C27.888,191.886 27.877,191.913 27.866,191.94ZM79.742,230.517L67.871,224.979L75.44,220.61L75.691,221.425L81.367,214.368L88.425,215.19L87.866,224.809L84.955,226.69L79.742,230.517ZM20.912,219.942L20.907,219.979L22.451,221.06L22.451,230.448L19.829,228.744C19.884,228.366 20.271,224.663 20.907,219.979L20.855,219.942L20.912,219.942ZM19.829,228.744C19.826,228.765 19.824,228.776 19.823,228.776C19.822,228.775 19.822,228.764 19.823,228.74L19.829,228.744ZM65.136,220.264L73.789,215.262L72.986,212.661L66.093,209.374L65.136,220.264ZM213.188,207.303C211.939,208.078 211.389,209.173 211.524,210.582C211.649,211.873 212.311,213.08 213.552,214.18C214.742,215.233 216.143,215.893 217.758,216.156C219.427,216.428 220.826,216.192 221.962,215.488C223.211,214.713 223.761,213.618 223.626,212.209C223.502,210.918 222.839,209.711 221.598,208.611C220.408,207.557 219.007,206.898 217.392,206.634C215.723,206.363 214.324,206.599 213.188,207.303ZM96.601,204.074L99.043,213.808L89.278,205.925L89.132,206.044L88.308,210.955L85.514,207.014L88.102,200.839L96.601,204.074ZM82.514,210.544L79.486,210.398L77.72,212.279L76.81,209.574L74.192,208.398L76.662,206.868L76.956,204.28L79.19,205.955L81.867,205.193L80.985,208.221L82.514,210.544ZM110.896,152.486L109.747,157.196L114.276,164.488L105.19,163.989L99.925,169.899L109.924,179.399L128.628,174.545L122.306,192.398L129.863,203.515L134.01,201.427L135.422,189.809L143.481,197.28L152.566,194.729C151.376,193.154 150.774,191.381 150.757,189.413C150.738,187.169 151.445,185.347 152.854,183.937C154.122,182.669 155.903,181.604 158.208,180.758C160.316,179.985 165.003,178.715 172.271,176.952C172.271,176.952 170.443,174.859 170.443,174.859C170.16,174.535 170.068,174.187 170.126,173.827L170.133,173.786C163.652,175.542 158.666,177.122 155.175,178.527C150.531,180.398 146.909,182.622 144.317,185.214C143.688,185.843 143.268,186.433 143.08,187C142.926,187.463 142.843,187.806 142.919,188.039C143.031,188.378 143.132,188.727 143.224,189.086C143.384,189.709 143.24,190.18 142.898,190.522C142.61,190.811 142.182,190.99 141.589,190.983C140.971,190.976 140.11,190.753 139.016,190.282C137.283,189.537 135.731,188.384 134.363,186.818C132.86,185.096 132.122,183.186 132.135,181.093C132.148,178.975 132.883,177.192 134.332,175.742C136.733,173.342 139.759,171.366 143.415,169.823C146.818,168.388 151.621,166.871 157.826,165.276C157.826,165.276 147.178,153.083 147.178,153.083C146.181,153.282 144.639,153.579 142.552,153.975C140.178,154.425 138.467,154.741 137.42,154.923C136.371,155.104 134.797,155.355 132.696,155.674C130.569,155.998 128.948,156.179 127.834,156.22C126.736,156.261 125.343,156.309 123.654,156.364C121.898,156.422 120.47,156.321 119.369,156.073C118.303,155.833 117.141,155.544 115.883,155.206C114.558,154.851 113.394,154.332 112.39,153.656C111.872,153.306 111.373,152.917 110.896,152.486ZM115.777,199.663L109.482,199.367L105.835,203.281L103.923,197.691L98.543,195.22L103.629,192.104L104.248,186.693L108.894,190.222L114.453,188.605L112.601,194.897L115.777,199.663ZM183.363,189.603C183.78,189.944 184.228,190.048 184.689,189.96C184.63,190.069 184.587,190.201 184.562,190.357C184.504,190.717 184.596,191.065 184.878,191.389L183.363,189.603C183.262,189.521 183.163,189.424 183.065,189.313C183.065,189.313 186.148,193.313 186.148,193.313C178.004,195.315 172.403,196.163 170.234,197.092C168.169,197.977 159.776,193.635 159.383,193.25C157.306,191.216 160.892,190.025 165.083,188.805C167.634,188.063 174.667,186.432 179.647,185.224L183.363,189.603ZM77.897,171.429L78.337,167.43L81.778,170.016L85.896,168.84L84.543,173.488L86.866,177.018L82.22,176.782L79.544,179.693L78.132,175.546L74.133,173.723L77.897,171.429ZM94.514,161.341L96.985,162.165L98.159,168.871L95.955,167.105L95.131,178.694L90.337,172.399L94.514,161.341ZM153.93,151.976C167.709,150.023 178.572,150.321 186.531,152.9L186.533,152.901L188.292,154.915C189.235,155.995 190.091,156.878 190.859,157.564C190.033,158.014 188.9,158.404 187.464,158.748C185.454,159.23 182.678,159.784 179.137,160.41C175.565,161.042 172.514,161.66 169.983,162.263C167.564,162.835 165.633,163.322 164.187,163.722L153.93,151.976ZM83.074,163.666L76.485,157.665L83.337,148.607L95.69,149.489L95.338,154.195L88.573,158.167L92.865,160.636L83.074,163.666ZM106.1,159.665L103.07,159.548L101.308,161.429L100.396,158.724L97.779,157.519L100.248,156.018L100.544,153.43L102.778,155.108L105.455,154.343L104.571,157.371L106.1,159.665ZM152.718,118.992C147.52,118.285 142.212,117.92 136.819,117.92C136.489,117.92 136.159,117.921 135.831,117.924C133.342,118.603 131.323,119.709 129.779,121.253C128.471,122.561 127.752,123.98 127.651,125.525C127.549,127.061 128.171,128.562 129.468,130.047C131.15,131.972 133.315,133.095 135.962,133.423C138.511,133.739 140.313,133.462 141.338,132.437C141.625,132.15 141.922,132.065 142.186,132.085C142.439,132.104 142.706,132.221 142.939,132.514C143.109,132.728 143.283,133.082 143.426,133.577C143.996,135.21 143.723,136.546 142.672,137.597C140.739,139.531 137.626,140.269 133.303,139.682C129.092,139.11 125.378,136.999 122.172,133.328C119.479,130.245 117.993,126.551 117.719,122.242C117.658,121.277 117.671,120.351 117.759,119.466C109.478,120.822 101.488,123.049 93.883,126.049L90.279,137.638L96.043,146.373L96.424,144.019L102.984,150.225L108.031,148.865C107.248,147.362 106.814,145.702 106.727,143.885C106.589,140.984 107.196,138.93 108.433,137.693C108.994,137.132 109.58,136.805 110.175,136.684C110.975,136.522 111.502,136.72 111.8,137.06C111.924,137.203 112.099,137.602 112.21,138.292C112.268,138.659 112.411,138.977 112.643,139.242C113.659,140.406 114.849,141.327 116.212,142.007C117.609,142.703 119.61,143.255 122.21,143.679C124.858,144.11 128.345,144.22 132.673,144.014C137.044,143.805 142.407,143.298 148.762,142.493C160.845,140.954 171.108,141.412 179.553,143.85C179.244,143.415 178.871,142.894 178.435,142.286C177.134,140.473 176.188,139.167 175.597,138.369C175.009,137.574 173.997,136.295 172.563,134.532C171.125,132.764 169.603,130.961 167.997,129.122C165.362,126.105 162.197,123.596 158.503,121.593C156.56,120.539 154.632,119.672 152.718,118.992ZM75.653,135.155C76.528,134.618 77.411,134.092 78.301,133.577L79.749,134.667L84.19,133.374L82.72,138.431L85.251,142.255L80.22,142.02L77.309,145.137L75.78,140.668L71.456,138.668L75.543,136.168L75.653,135.155ZM180.189,106.092C174.413,104.148 168.461,102.581 162.366,101.421C161.639,100.11 160.883,98.715 160.126,97.318C160.038,97.141 159.95,96.995 159.89,96.847C157.125,91.759 155.303,86.083 153.862,80.436L179.889,104.287L180.419,105.288C180.419,105.288 180.253,105.564 180.189,106.092ZM115.274,100.721C108.993,101.722 102.856,103.153 96.893,104.984L96.631,104.2L98.278,101.641L126.011,79.759C123.982,85.819 121.482,91.818 117.923,97.024L117.894,97.024C117.835,97.141 117.775,97.229 117.687,97.318C117.658,97.406 117.57,97.523 117.452,97.671C116.986,98.312 116.204,99.471 115.274,100.721ZM135.95,51.587C137.215,50.409 138.892,49.792 140.627,49.852C142.334,49.909 143.98,50.645 145.127,51.938C146.303,53.174 146.951,54.849 146.862,56.556C146.803,58.291 146.038,59.908 144.803,61.086C143.509,62.26 141.863,62.879 140.128,62.819C138.421,62.762 136.775,62.026 135.628,60.733C134.452,59.497 133.804,57.82 133.864,56.115C133.952,54.35 134.717,52.763 135.95,51.587ZM207.857,15.296C218.916,11.766 223.15,20.353 218.297,30.998C205.298,42.235 188.889,48.674 171.713,49.233C178.065,33.087 191.329,20.618 207.857,15.296ZM64.545,25.293C60.458,14.325 65.338,6.09 76.074,10.442C92.16,16.971 104.454,30.352 109.63,46.91C92.543,45.117 76.633,37.47 64.545,25.293Z" style="fill:none;stroke:rgb(255,0,0);stroke-width:1px;"/>
</svg>
