<?xml version="1.0" encoding="UTF-8" standalone="no"?>
<!DOCTYPE svg PUBLIC "-//W3C//DTD SVG 1.1//EN" "http://www.w3.org/Graphics/SVG/1.1/DTD/svg11.dtd">
<svg width="100%" height="100%" viewBox="0 0 1123 794" version="1.1" xmlns="http://www.w3.org/2000/svg" xmlns:xlink="http://www.w3.org/1999/xlink" xml:space="preserve" xmlns:serif="http://www.serif.com/" style="fill-rule:evenodd;clip-rule:evenodd;stroke-linejoin:round;stroke-miterlimit:2;">
    <path d="M144.768,40.265C146.525,40.302 148.11,40.912 149.422,41.91C150.863,43.057 151.891,44.704 152.273,46.587C152.802,46.587 182.859,16.178 188.975,12.177C194.836,8.337 202.831,5.966 211.003,5.93C211.404,5.929 211.807,5.932 212.21,5.942C221.975,6.413 230.502,10.413 234.032,19.412C239.942,32.998 232.913,47.381 232.854,60.821C232.825,76.702 247.707,93.348 235.179,108.435C229.972,113.729 222.856,118.846 215.857,121.903L215.797,121.903L214.909,122.185L213.44,122.66C235.271,137.575 252.544,158.68 262.718,183.428L263.146,184.482L263.635,185.717L264.183,187.147L264.715,188.58L264.956,189.247L265.465,190.694L265.958,192.147L266.475,193.735L266.941,195.223L267.39,196.719L267.822,198.222L268.318,200.033L268.765,201.757L269.14,203.283L269.499,204.816L269.84,206.356L270.097,207.582L270.267,208.418L270.567,209.973L270.849,211.533L271.113,213.1L271.309,214.338L271.419,215.073L271.66,216.779L271.864,218.366L272.05,219.958L272.182,221.204L272.257,221.958L272.366,223.158L272.397,223.517L272.519,225.075L272.624,226.63L272.71,228.177L272.746,228.945L272.807,230.524L272.85,232.102C272.861,232.627 272.87,233.152 272.875,233.676L272.882,235.204L272.88,235.812C272.877,236.27 272.873,236.727 272.866,237.183L272.845,238.277C272.836,238.637 272.827,238.997 272.816,239.357L272.77,240.666L272.707,242.056L272.66,242.916C272.616,243.693 272.566,244.469 272.509,245.242L272.378,246.891L272.235,248.448L272.115,249.632L271.964,250.996L271.773,252.558L271.607,253.813L271.429,255.064L271.176,256.717L270.983,257.897L270.743,259.275L270.405,261.091L270.108,262.584L269.863,263.752L269.428,265.714L269.074,267.212L268.795,268.344L268.42,269.801L268.042,271.21L267.725,272.344L267.361,273.601L266.892,275.16L266.363,276.838L265.822,278.487L265.452,279.56L265.025,280.738L264.863,281.178C264.752,281.514 264.639,281.848 264.5,282.186C263.205,285.714 261.764,289.155 260.177,292.537C259.764,293.448 259.353,294.331 258.911,295.213C258.206,296.654 257.441,298.096 256.707,299.508C256.647,299.565 256.619,299.654 256.588,299.713C255.177,302.329 253.677,304.919 252.09,307.419L251.385,308.513L250.98,309.103L250.316,310.136L249.767,310.943L249.354,311.546L249.354,311.565C249.088,312.005 248.794,312.416 248.472,312.829C247.32,314.5 246.13,316.138 244.904,317.745L244.816,317.86C243.221,319.948 241.565,321.984 239.854,323.976L239.073,324.871L238.079,325.991L237.478,326.655L236.874,327.314L236.265,327.97L235.652,328.622L235.034,329.27L234.413,329.913L233.787,330.553L233.157,331.188L232.523,331.819L231.885,332.446L231.243,333.069L230.597,333.688L229.946,334.303L229.292,334.913L228.634,335.519L227.305,336.718L225.961,337.9L224.601,339.064L223.226,340.21L221.835,341.339L220.43,342.45L219.251,343.358L218.294,344.082L217.12,344.95L216.125,345.672L214.957,346.501L213.924,347.22L212.763,348.011L211.691,348.725L210.538,349.478L209.428,350.187L208.283,350.903L207.134,351.605L205.999,352.284L204.81,352.979L203.686,353.621L202.128,354.488L200.557,355.336L199.718,355.777L198.921,356.19L198.122,356.597L197.319,356.999L196.514,357.396L195.706,357.788L194.894,358.175L194.08,358.556L193.263,358.932L192.443,359.303L191.621,359.668L190.795,360.029L189.967,360.383L189.136,360.733L188.303,361.077L187.466,361.416L186.627,361.749L185.472,362.197L184.208,362.674L183.508,362.932C175.658,365.798 167.471,367.962 159.021,369.348L157.605,369.572L156.197,369.781L154.318,370.035L152.436,370.263L150.549,370.465L148.516,370.653L146.646,370.8L144.654,370.927L142.787,371.02L140.923,371.087L139.53,371.121L138.144,371.142L136.819,371.148L135.472,371.141L135.01,371.136L133.308,371.103L132.116,371.068L131.571,371.048C131.011,371.027 130.452,371.002 129.893,370.974L128.91,370.921L128.07,370.87L126.787,370.783L125.344,370.67L124.595,370.605L123.757,370.528L122.78,370.431L121.461,370.29L119.917,370.108L119.147,370.01L118.622,369.94C61.059,362.253 14.891,318.582 3.474,262.277L3.239,261.09L2.955,259.579L2.689,258.062L2.439,256.54L2.206,255.012L1.989,253.478L1.79,251.939L1.609,250.395L1.444,248.846L1.295,247.267L1.199,246.139L1.071,244.412L1.03,243.782L0.93,242.013L0.887,241.098L0.867,240.61L0.814,239.101L0.782,237.765L0.762,236.427L0.756,235.069L0.761,233.92L0.78,232.504L0.814,231.055L0.874,229.343L0.941,227.924L1.04,226.215L1.16,224.51L1.339,222.399L1.503,220.733L1.754,218.52L1.965,216.867L2.116,215.769L2.36,214.126L2.623,212.491L2.832,211.276L3.004,210.32L3.25,209.022L3.391,208.305L3.7,206.805L3.847,206.115L4.228,204.413L4.525,203.156L4.699,202.441L5.07,200.971L5.248,200.286L5.705,198.602L6.047,197.393L6.255,196.679L6.685,195.245L7.142,193.78L7.652,192.213L8.179,190.657L8.724,189.112L9.286,187.576L9.865,186.051L10.462,184.535L11.076,183.028L11.589,181.809L12.228,180.334L12.884,178.867L13.557,177.41L14.247,175.963L14.953,174.524L15.675,173.096L16.414,171.677L17.169,170.268L17.681,169.334L18.2,168.404L18.727,167.479L19.26,166.559L19.8,165.643L20.347,164.732L20.901,163.825L21.462,162.923L21.995,162.081C24.011,158.918 26.155,155.843 28.418,152.865L29.105,151.969L30.119,150.673L31.137,149.404L32.163,148.156L33.2,146.924L34.249,145.708L35.309,144.506L36.64,143.037L37.833,141.756L39.206,140.322L40.549,138.958L41.845,137.678L43.198,136.376L44.743,134.932L46.31,133.513L47.5,132.464L48.702,131.429L49.916,130.407L51.142,129.4L52.38,128.406L53.63,127.427L54.892,126.462L56.165,125.511L57.449,124.575L58.745,123.654L60.052,122.747L61.369,121.855L62.698,120.978L64.037,120.117L64.936,119.551L65.84,118.992C65.398,118.817 65.044,118.669 64.75,118.492L64.722,118.492C55.281,115.374 48.341,108.758 41.958,101.287C30.577,85.318 46.666,69.791 47.751,53.967C48.723,40.557 42.782,25.706 49.694,12.56C53.84,3.853 62.664,0.531 72.427,0.768C81.014,1.208 89.338,4.267 95.161,8.707C107.57,18.236 119.159,31.999 128.776,45.146C128.776,44.116 130.394,42.292 132.157,41.293C133.276,40.617 134.598,40.263 136.01,40.263L144.597,40.263L144.768,40.265ZM233.106,301.981L233,302.134C230.483,303.681 227.993,305.253 225.474,306.802C223.721,307.892 224.466,310.555 226.475,310.623C225.699,311.543 224.907,312.453 224.102,313.349L223.767,313.36C222.62,313.389 221.681,314.328 221.65,315.475C221.645,315.641 221.659,315.803 221.69,315.957C200.328,338.368 170.192,352.34 136.819,352.34C129.603,352.34 122.539,351.687 115.679,350.436L134.186,327.506L164.772,329.681L159.508,320.888L165.184,312.093L175.802,312.975L170.243,303.566L173.565,295.625L181.093,299.3L186.535,320.035L200.475,303.418L218.297,304.448C218.326,304.8 218.445,305.153 218.65,305.447C219.327,306.417 220.62,306.683 221.621,306.066C224.267,304.448 226.915,302.799 229.591,301.155C230.762,301.438 231.935,301.697 233.106,301.981ZM107.895,341.033L113.364,348.678L110.159,337.003L107.895,341.033ZM104.571,345.769L100.63,345.592L99.878,346.393C99.065,346.123 98.255,345.844 97.449,345.556L97.102,344.532L93.718,342.975L96.925,341.004L97.306,337.591L100.219,339.797L103.749,338.798L102.571,342.768L104.571,345.769ZM85.131,273.303L79.354,270.4L80.178,272.648C80.193,272.692 80.209,272.736 80.222,272.78C81.181,275.96 79.411,279.432 76.27,280.531C74.342,281.206 72.35,280.866 70.84,279.792C71.014,281.638 70.315,283.537 68.77,284.872C67.596,285.888 66.126,286.394 64.662,286.394C62.977,286.394 61.301,285.725 60.085,284.426C60.052,284.392 60.022,284.357 59.993,284.321L57.193,280.956L57.193,288.369C57.193,291.684 54.444,294.418 50.997,294.418C47.547,294.418 44.798,291.684 44.798,288.369L44.798,280.956L41.998,284.321C41.969,284.357 41.939,284.392 41.906,284.426C39.633,286.853 35.746,287.057 33.221,284.874L33.221,284.872C31.676,283.537 30.977,281.638 31.152,279.792C30.457,280.285 29.66,280.624 28.814,280.779C39.992,307.142 60.547,328.582 86.29,340.908L91.19,337.739L92.396,325.651L101.189,333.062L108.66,330.739L105.749,320.828L76.779,308.771L84.691,302.624L82.543,295.744L74.367,291.949L81.926,286.273L82.749,277.684L87.308,281.333L85.131,273.303ZM117.923,310.182L108.954,306.066L117.395,300.861L118.423,291.83L126.187,297.713L135.451,295.037L132.392,305.535L137.657,313.475L127.187,312.975L121.099,319.533L117.923,310.182ZM158.478,319.476L151.155,307.801L156.126,310.066L158.478,319.476ZM156.891,305.007L159.832,303.212L160.184,300.067L162.889,302.125L166.096,301.183L165.036,304.83L166.861,307.595L163.243,307.419L161.125,309.711L160.007,306.448L156.891,305.007ZM169.832,294.508L163.95,296.566L155.684,289.92L154.539,300.772L148.686,303.77L158.714,273.038L151.862,274.421L157.803,267.421L179.124,269.362L177.948,279.302L160.979,290.508L169.832,294.508ZM223.767,299.771C222.62,300.476 221.444,301.212 220.268,301.948L218.827,299.713C219.267,299.448 219.709,299.183 220.151,298.889C221.356,299.183 222.561,299.477 223.767,299.771ZM91.073,297.625L88.014,301.654L94.543,297.832L91.073,297.625ZM230.029,280.529C229.987,280.598 229.949,280.67 229.914,280.745C229.414,281.773 229.854,283.068 230.856,283.596C233.619,285.068 236.355,286.567 239.12,288.037C239.398,288.992 239.678,289.929 239.958,290.875L239.692,291.362C237.18,290.008 234.692,288.656 232.178,287.303C230.296,286.304 228.325,288.419 229.414,290.214C231.002,292.802 232.591,295.39 234.178,297.978C232.973,297.682 231.737,297.39 230.531,297.123C228.915,294.449 227.268,291.772 225.65,289.124C225.032,288.125 223.738,287.802 222.737,288.331C221.681,288.89 221.356,290.183 221.975,291.213C222.885,292.712 223.798,294.214 224.738,295.744C223.533,295.448 222.326,295.154 221.091,294.862C220.12,293.244 219.121,291.624 218.12,289.979C217.503,289.009 216.208,288.655 215.209,289.213C214.15,289.772 213.827,291.067 214.444,292.068C214.709,292.537 215.003,293.008 215.297,293.478C215.092,293.448 214.886,293.39 214.679,293.332L210.092,286.304L217.189,266.857C219.524,267.35 222.471,267.072 226.029,266.025L225.891,266.192C224.37,268.021 223.561,270.036 223.462,272.234C223.364,274.433 223.996,276.261 225.358,277.718C226.294,278.72 227.196,279.449 228.063,279.906C228.572,280.173 229.227,280.381 230.029,280.529ZM202.504,293.509L195.447,293.184L191.358,297.567L189.212,291.301L183.182,288.507L188.858,285.008L189.565,278.948L194.77,282.891L201.006,281.098L198.946,288.154L202.504,293.509ZM92.631,293.39L89.278,293.213L87.308,295.331L86.279,292.331L83.396,291.007L86.132,289.332L86.455,286.419L88.926,288.302L91.926,287.449L90.927,290.83L92.631,293.39ZM95.661,275.126L103.66,275.774L102.836,292.331L98.924,294.566L95.807,289.772L98.543,281.596L89.338,283.271L95.661,275.126ZM236.872,280.21C237.083,281.08 237.279,281.872 237.414,282.332C236.384,281.768 235.354,281.218 234.324,280.663C235.102,280.57 235.952,280.419 236.872,280.21ZM242.844,278.466C242.361,279.351 241.872,280.234 241.383,281.125C241.253,280.692 241.065,279.94 240.863,279.105C241.493,278.909 242.154,278.696 242.844,278.466ZM98.806,255.804L106.454,245.776L120.717,247.071L112.218,252.716L135.51,262.245L139.303,278.155L128.657,280.979L104.542,260.512L103.66,269.596L100.984,266.009L104.69,255.07L98.806,255.804ZM251.356,260.277C250.446,264.428 249.316,268.495 247.979,272.467C243.596,273.989 239.889,274.997 236.859,275.49C233.418,276.051 231.378,275.989 230.74,275.306C230.144,274.669 230.26,273.851 231.09,272.853C232.242,271.467 234.273,269.87 237.184,268.061C239.567,266.579 244.291,263.985 251.356,260.277ZM33.617,275.518L35.978,260.906L44.798,256.088L45.284,265.759L33.617,275.518ZM68.374,275.516L56.423,266.816L57.193,256.088L66.785,261.932L68.374,275.516ZM215.431,266.291L196.505,270.363L181.418,258.158L184.8,253.892L193.977,254.57L189.181,246.452L192.206,238.391L192.354,238.405C194.115,238.56 196.421,238.252 199.274,237.481C199.453,237.432 199.636,237.382 199.822,237.33C198.289,239.198 197.406,241.301 197.172,243.638C196.935,246.003 197.477,247.891 198.796,249.303C199.861,250.441 200.826,251.239 201.693,251.695C202.56,252.151 203.854,252.409 205.574,252.469C207.293,252.528 209.525,252.165 212.267,251.381C212.851,251.214 213.472,251.027 214.13,250.818C212.441,253.146 211.426,255.452 211.086,257.737C210.682,260.448 211.375,262.759 213.162,264.672C213.803,265.357 214.559,265.897 215.431,266.291ZM95.955,263.598C95.955,263.598 93.726,264.232 93.726,264.232C94.485,265.959 94.443,268.037 93.413,269.845L96.72,269.979C96.72,269.979 94.896,267.246 94.896,267.246L95.955,263.598ZM169.743,249.334L176.007,252.188L179.241,263.569L169.743,249.334ZM242.498,255.208C244.192,253.459 245.311,251.775 245.852,250.156C246.394,248.536 246.282,247.316 245.516,246.497C244.197,245.085 241.846,244.769 238.463,245.55C235.081,246.33 231.675,247.767 228.247,249.86C224.819,251.953 222.206,254.08 220.409,256.243C219.58,257.241 219.083,258.201 218.918,259.125C218.754,260.049 218.906,260.761 219.374,261.262C221.289,263.311 226.746,262.551 235.744,258.98C237.549,257.873 239.8,256.616 242.498,255.208ZM137.657,250.424L144.568,246.216L145.391,238.864L151.685,243.658L159.242,241.481L156.745,250.011L161.037,256.48L152.508,256.069L147.568,261.394L144.979,253.804L137.657,250.424ZM93.065,254.373C92.686,254.936 92.218,255.437 91.68,255.854L93.838,257.628C93.838,257.628 93.065,254.373 93.065,254.373ZM252.683,216.988C253.599,222.886 254.074,228.93 254.074,235.085C254.074,241.016 253.633,246.845 252.781,252.541L251.512,251.183C251.214,250.864 250.863,250.803 250.459,250.999C249.693,251.437 249.243,251.688 249.108,251.753C250.547,248.474 250.032,245.514 247.563,242.873C245.647,240.824 243.164,239.555 240.112,239.066C237.061,238.577 234.007,238.793 230.951,239.713C227.895,240.632 224.946,241.955 222.104,243.681C221.941,243.78 221.78,243.88 221.62,243.98C216.785,245.677 213.076,246.726 210.494,247.128C207.631,247.574 205.71,247.273 204.731,246.226C204.135,245.588 204.252,244.77 205.081,243.772C206.602,241.943 209.58,239.787 214.015,237.305C218.394,234.854 231.282,228.082 252.683,216.988ZM177.771,247.63L179.977,246.275L180.242,243.924L182.271,245.453L184.683,244.775L183.889,247.511L185.242,249.569L182.534,249.452L180.947,251.158L180.094,248.718L177.771,247.63ZM19.892,243.913L30.396,239.854L39.892,245.33L30.696,251.158L20.154,246.913C20.055,245.921 19.967,244.919 19.892,243.913ZM85.767,245.33L71.954,250.362L62.099,245.33L72.204,240.111L85.767,245.33ZM153.412,196.826C154.688,197.279 155.952,197.687 157.157,198.023C156.927,198.765 156.772,199.535 156.692,200.331C156.455,202.697 156.996,204.585 158.316,205.997C159.423,207.181 160.452,208.046 161.404,208.594C162.357,209.141 163.734,209.515 165.538,209.716C167.341,209.917 169.7,209.666 172.617,208.963C172.719,208.938 172.822,208.913 172.926,208.887C171.481,210.711 170.646,212.754 170.419,215.017C170.183,217.382 170.724,219.271 172.044,220.682C173.15,221.866 174.18,222.732 175.132,223.28C176.084,223.827 177.462,224.201 179.265,224.402C181.068,224.603 183.428,224.352 186.344,223.649L186.346,223.648C186.31,223.69 186.275,223.732 186.241,223.773C184.72,225.603 183.911,227.617 183.812,229.816C183.713,232.015 184.324,233.82 185.643,235.232C186.623,236.279 187.546,237.031 188.413,237.487C188.909,237.748 189.551,237.96 190.339,238.122L183.007,240.159L175.802,234.426L175.154,243.424L168.771,246.775L177.446,224.453L153.743,230.337L140.422,219.337L145.892,213.72L155.861,214.22L150.596,205.25L153.412,196.826ZM90.909,245.299L90.892,245.226C90.821,245.263 90.748,245.297 90.675,245.33C90.767,245.374 90.859,245.418 90.949,245.466L90.909,245.299ZM136.951,215.603L134.158,214.25L133.128,238.953L124.099,244.982L114.747,230.777L121.159,213.484L107.513,216.397L113.805,208.336L131.216,209.631L135.804,211.22L136.951,215.603ZM108.423,237.6L102.159,237.308L98.513,241.218L96.601,235.629L91.221,233.158L96.278,230.041L96.897,224.63L101.543,228.16L107.101,226.542L105.276,232.835L108.423,237.6ZM33.617,215.144L45.803,224.221L44.798,234.574L35.216,230.049L33.617,215.144ZM68.374,215.144L65.894,229.603L57.193,234.572L57.247,224.607L68.374,215.144ZM193.123,132.227C223.499,148.903 245.703,178.639 252.152,213.848L248.637,210.087C248.339,209.769 247.965,209.735 247.514,209.987C227.836,220.202 215.398,226.759 210.199,229.656C205.121,231.459 200.834,232.618 197.339,233.133C193.811,233.653 191.706,233.548 191.025,232.82C190.429,232.182 190.546,231.365 191.376,230.367C192.527,228.981 194.66,227.334 197.772,225.427C200.885,223.52 207.814,219.779 218.56,214.202C218.741,214.082 218.857,213.918 218.908,213.711C218.96,213.504 218.921,213.332 218.794,213.196L218.599,212.987C219.061,213.031 219.551,213.024 220.067,212.966C221.663,212.788 223.053,212.18 224.237,211.142C225.421,210.105 226.024,208.943 226.047,207.658C226.069,206.373 225.542,205.338 224.466,204.553C223.39,203.768 222.053,203.465 220.458,203.643C218.862,203.822 217.473,204.429 216.289,205.467C215.213,206.41 214.616,207.455 214.5,208.602L213.686,207.731C213.388,207.412 213.037,207.351 212.633,207.547C205.403,211.312 199.986,214.217 196.383,216.265C191.661,217.865 187.75,218.78 184.651,219.01C181.309,219.257 179.106,218.812 178.042,217.674C177.404,216.99 177.499,216.15 178.329,215.152C179.573,213.655 181.491,212.12 184.085,210.548C186.678,208.976 192.697,205.701 202.141,200.723L205.653,204.479C205.951,204.798 206.302,204.86 206.706,204.663L210.147,202.846C210.328,202.725 210.444,202.561 210.495,202.354C210.547,202.147 210.508,201.975 210.381,201.839L206.997,198.219C210.099,196.615 215.427,193.831 222.982,189.869C223.206,189.794 223.332,189.641 223.362,189.412C223.393,189.182 223.344,188.999 223.216,188.862L218.172,183.466C217.874,183.147 217.5,183.114 217.05,183.365C209.137,187.468 203.764,190.256 200.931,191.729L198.377,188.997C198.079,188.678 197.728,188.617 197.324,188.813L193.814,190.714C193.679,190.779 193.586,190.916 193.535,191.122C193.484,191.329 193.522,191.501 193.65,191.638L196.076,194.233C189.837,197.494 185.178,200.005 182.099,201.765C177.625,203.251 173.9,204.103 170.924,204.324C167.582,204.571 165.379,204.126 164.315,202.988C163.676,202.305 163.772,201.464 164.601,200.466C165.845,198.969 167.764,197.435 170.357,195.862C172.95,194.29 178.969,191.015 188.414,186.037L191.926,189.794C192.224,190.112 192.575,190.174 192.979,189.978L196.419,188.16C196.6,188.039 196.716,187.875 196.768,187.668C196.819,187.461 196.781,187.29 196.653,187.153L193.269,183.533C196.371,181.929 201.7,179.146 209.255,175.183C209.478,175.108 209.605,174.955 209.635,174.726C209.665,174.496 209.616,174.313 209.488,174.176L204.444,168.78C204.146,168.461 203.772,168.428 203.322,168.679C195.409,172.782 190.036,175.57 187.203,177.044L184.649,174.311C184.352,173.993 184,173.931 183.596,174.127L180.087,176.028C179.952,176.094 179.859,176.23 179.807,176.437C179.756,176.644 179.794,176.815 179.922,176.952L182.348,179.548C173.535,184.153 167.875,187.263 165.368,188.876C165.256,188.948 165.144,189.021 165.033,189.094C164.754,189.005 164.455,188.947 164.144,188.927C160.007,190.829 154.054,190.601 149.33,189.097C151.682,186.97 154.381,184.875 157.425,182.814C162.851,179.139 171.322,174.245 182.837,168.13C183.287,167.879 185.441,166.858 189.301,165.069C193.16,163.28 196.542,161.557 199.447,159.899C202.352,158.242 204.381,156.72 205.533,155.334C207.146,153.394 207.948,151.267 207.94,148.954C207.932,146.642 207.354,144.871 206.205,143.641C204.034,141.319 201.379,139.579 198.241,138.42C196.535,136.466 194.829,134.402 193.123,132.227ZM81.367,214.368L80.453,215.505C80.529,216.287 80.46,217.092 80.222,217.88C80.209,217.926 80.195,217.97 80.178,218.015L78.666,222.142L85.066,218.437C86.073,217.855 87.185,217.602 88.282,217.649L88.425,215.19L81.367,214.368ZM64.079,143.141L70.546,145.608L72.309,151.812L72.104,167.459L61.28,174.605L73.22,179.604L77.192,191.927L84.455,182.341L94.748,183.163L94.574,185.811L78.604,196.25L83.984,199.367L80.191,200.339L72.897,194.369L71.956,203.573L68.783,205.8L68.77,205.788C66.245,203.605 62.358,203.809 60.085,206.234C60.052,206.269 60.022,206.305 59.993,206.34L57.193,209.706L57.193,202.293C57.193,198.979 54.444,196.242 50.997,196.242C47.547,196.242 44.798,198.979 44.798,202.293L44.798,209.706L41.998,206.34C41.969,206.305 41.939,206.269 41.906,206.234C39.633,203.809 35.746,203.605 33.221,205.788C31.676,207.124 30.977,209.024 31.152,210.871C29.641,209.796 27.649,209.456 25.722,210.131C22.578,211.23 20.81,214.7 21.769,217.88C21.783,217.926 21.796,217.97 21.813,218.015L23.325,222.142L20.466,220.486C24.353,189.233 40.563,161.778 64.079,143.141ZM85.514,207.014L88.102,200.839L96.601,204.074L99.043,213.808L89.278,205.925L89.132,206.044L88.308,210.955L85.514,207.014ZM82.514,210.544L80.985,208.221L81.867,205.193L79.19,205.955L76.956,204.28L76.662,206.868L74.192,208.398L76.81,209.574L77.123,210.504C77.62,210.767 78.073,211.095 78.475,211.475L79.486,210.398L82.514,210.544ZM140.396,201.409L140.469,201.407L142.862,203.219L146.098,202.31L145.039,205.955L146.862,208.692L143.215,208.544L141.127,210.807L140.01,207.573L136.892,206.132L139.834,204.309L140.161,201.408L140.271,201.41C140.313,201.41 140.355,201.41 140.396,201.409ZM134.338,198.724L134.01,201.427L129.863,203.515L122.306,192.398L128.628,174.545L109.924,179.399L99.925,169.899L105.19,163.989L111.101,164.314C111.315,164.627 111.552,164.923 111.813,165.202C112.579,166.022 113.44,166.655 114.396,167.102C115.352,167.548 116.492,167.773 117.816,167.776C119.141,167.778 120.367,167.755 121.494,167.704C122.622,167.654 124.112,167.336 125.964,166.752C127.817,166.168 129.346,165.683 130.551,165.296C131.757,164.91 133.525,164.21 135.856,163.195C138.187,162.18 139.936,161.406 141.102,160.874C142.269,160.341 144.176,159.449 146.825,158.197C149.473,156.946 151.336,156.059 152.414,155.536L163.46,167.353C155.947,171.361 150.144,174.788 146.049,177.634C141.955,180.481 138.479,183.623 135.622,187.06C134.01,189.001 133.076,191.092 132.821,193.333C132.572,195.528 133.078,197.325 134.338,198.724ZM103.629,192.104L104.248,186.693L108.894,190.222L114.453,188.605L112.601,194.897L115.777,199.663L109.482,199.367L105.835,203.281L103.923,197.691L98.543,195.22L103.629,192.104ZM149.894,195.479L143.481,197.28L142.792,196.642C143.129,195.902 143.681,195.07 144.449,194.146C144.667,193.883 144.891,193.62 145.12,193.358C146.574,194.06 148.204,194.788 149.894,195.479ZM77.897,171.429L78.337,167.43L81.778,170.016L85.896,168.84L84.543,173.488L86.866,177.018L82.22,176.782L79.544,179.693L78.132,175.546L74.133,173.723L77.897,171.429ZM94.514,161.341L96.985,162.165L98.159,168.871L95.955,167.105L95.131,178.694L90.337,172.399L94.514,161.341ZM195.62,143.315C187.032,142.716 174.805,145.817 158.939,152.619C158.67,152.75 158.445,152.875 158.264,152.996L168.99,164.472C170.657,163.531 172.973,162.292 175.941,160.753C178.774,159.28 182.175,157.63 186.146,155.803C190.117,153.976 193.238,152.471 195.508,151.287C197.779,150.102 199.441,148.974 200.494,147.9C199.586,147.348 198.557,146.457 197.408,145.228C196.812,144.59 196.216,143.953 195.62,143.315ZM83.074,163.666L76.485,157.665L83.337,148.607L95.69,149.489L95.338,154.195L88.573,158.167L92.865,160.636L83.074,163.666ZM106.1,159.665L103.07,159.548L101.308,161.429L100.396,158.724L97.779,157.519L100.248,156.018L100.544,153.43L102.778,155.108L105.455,154.343L104.571,157.371L106.1,159.665ZM109.747,157.196L109.749,157.199L109.752,157.178L109.747,157.196ZM144.782,118.097C158.524,119.019 171.622,122.315 183.667,127.577C184.551,128.643 185.202,129.458 185.619,130.023C186.167,130.767 187.04,131.989 188.239,133.691C189.439,135.393 190.121,136.385 190.288,136.669C181.129,135.982 169.405,138.574 155.117,144.446C148.041,147.349 142.091,149.598 137.267,151.193C132.443,152.788 128.591,153.747 125.71,154.069C122.829,154.391 120.645,154.358 119.157,153.971C117.67,153.584 116.415,152.844 115.393,151.751C115.095,151.432 114.934,150.998 114.909,150.447C114.884,149.897 114.829,149.576 114.744,149.485C114.574,149.303 114.219,149.343 113.68,149.604C113.141,149.865 112.595,150.329 112.042,150.994C111.517,151.626 111.078,152.357 110.725,153.187L112.042,147.785L102.984,150.225L96.424,144.019L96.043,146.373L90.279,137.638L93.918,125.938C104.744,121.675 116.351,118.978 128.462,118.123C125.964,121.591 124.613,125.411 124.409,129.583C124.179,134.311 125.298,137.996 127.767,140.637C130.704,143.779 134.357,145.043 138.727,144.429C143.097,143.815 146.388,142.177 148.6,139.516C149.66,138.241 150.016,136.893 149.668,135.474C149.483,134.438 149.16,134.198 148.7,134.752C147.317,136.415 145.106,137.48 142.065,137.945C139.025,138.411 136.653,137.733 134.951,135.911C133.589,134.454 133.075,132.726 133.409,130.727C133.744,128.728 134.786,126.675 136.537,124.569C138.702,121.964 141.45,119.807 144.782,118.097ZM75.665,135.043C76.512,134.523 77.364,134.016 78.223,133.519L79.749,134.667L84.19,133.374L82.72,138.431L85.251,142.255L80.22,142.02L77.309,145.137L75.78,140.668L71.456,138.668L75.543,136.168L75.665,135.043ZM153.862,80.436L179.889,104.287L180.419,105.288L180.29,105.606L180.195,106.039L180.189,106.092C174.413,104.148 168.461,102.581 162.366,101.421L161.821,100.432L161.261,99.409L160.126,97.318C160.038,97.141 159.95,96.995 159.89,96.847C157.125,91.759 155.303,86.083 153.862,80.436ZM126.011,79.759C123.982,85.819 121.482,91.818 117.923,97.024L117.894,97.024C117.835,97.141 117.775,97.229 117.687,97.318C117.658,97.406 117.57,97.523 117.452,97.671L117.042,98.249L116.246,99.381L115.61,100.266L115.274,100.721C108.993,101.722 102.856,103.153 96.893,104.984L96.631,104.2L98.278,101.641L126.011,79.759ZM140.465,49.848L140.627,49.852C142.334,49.909 143.98,50.645 145.127,51.938C146.303,53.174 146.951,54.849 146.862,56.556C146.803,58.291 146.038,59.908 144.803,61.086C143.509,62.26 141.863,62.879 140.128,62.819C138.421,62.762 136.775,62.026 135.628,60.733C134.452,59.497 133.804,57.82 133.864,56.115C133.952,54.35 134.717,52.763 135.95,51.587C137.096,50.519 138.581,49.913 140.141,49.852L140.465,49.848ZM212.533,14.49L212.739,14.493C220.061,14.64 222.354,22.1 218.297,30.998C205.399,42.147 189.145,48.573 172.115,49.219L171.713,49.233C178.065,33.087 191.329,20.618 207.857,15.296C209.586,14.744 211.148,14.488 212.533,14.49ZM70.673,9.257C72.254,9.253 74.061,9.626 76.074,10.442C92.16,16.971 104.454,30.352 109.63,46.91C92.543,45.117 76.633,37.47 64.545,25.293C61.224,16.382 63.823,9.274 70.673,9.257Z" style="fill:none;stroke:rgb(255,0,0);stroke-width:1px;"/>
</svg>
