<?xml version="1.0" encoding="UTF-8" standalone="no"?>
<!DOCTYPE svg PUBLIC "-//W3C//DTD SVG 1.1//EN" "http://www.w3.org/Graphics/SVG/1.1/DTD/svg11.dtd">
<svg width="100%" height="100%" viewBox="0 0 1123 794" version="1.1" xmlns="http://www.w3.org/2000/svg" xmlns:xlink="http://www.w3.org/1999/xlink" xml:space="preserve" xmlns:serif="http://www.serif.com/" style="fill-rule:evenodd;clip-rule:evenodd;stroke-linejoin:round;stroke-miterlimit:2;">
    <path d="M144.768,40.265C146.525,40.302 148.11,40.912 149.422,41.91C150.863,43.057 151.891,44.704 152.273,46.587C152.802,46.587 182.859,16.178 188.975,12.177C194.836,8.337 202.831,5.966 211.003,5.93C211.404,5.929 211.807,5.932 212.21,5.942C221.975,6.413 230.502,10.413 234.032,19.412C239.942,32.998 232.913,47.381 232.854,60.821C232.825,76.702 247.707,93.348 235.179,108.435C229.972,113.729 222.856,118.846 215.857,121.903L215.797,121.903L214.909,122.185L213.44,122.66C235.271,137.575 252.544,158.68 262.718,183.428L263.146,184.482L263.635,185.717L264.183,187.147L264.715,188.58L264.956,189.247L265.465,190.694L265.958,192.147L266.475,193.735L266.941,195.223L267.39,196.719L267.822,198.222L268.318,200.033L268.765,201.757L269.14,203.283L269.499,204.816L269.84,206.356L270.097,207.582L270.267,208.418L270.567,209.973L270.849,211.533L271.113,213.1L271.309,214.338L271.419,215.073L271.66,216.779L271.864,218.366L272.05,219.958L272.182,221.204L272.257,221.958L272.366,223.158L272.397,223.517L272.519,225.075L272.624,226.63L272.71,228.177L272.746,228.945L272.807,230.524L272.85,232.102C272.861,232.627 272.87,233.152 272.875,233.676L272.882,235.204L272.88,235.812C272.877,236.27 272.873,236.727 272.866,237.183L272.845,238.277C272.836,238.637 272.827,238.997 272.816,239.357L272.77,240.666L272.707,242.056L272.66,242.916C272.616,243.693 272.566,244.469 272.509,245.242L272.378,246.891L272.235,248.448L272.115,249.632L271.964,250.996L271.773,252.558L271.607,253.813L271.429,255.064L271.176,256.717L270.983,257.897L270.743,259.275L270.405,261.091L270.108,262.584L269.863,263.752L269.428,265.714L269.074,267.212L268.795,268.344L268.42,269.801L268.042,271.21L267.725,272.344L267.361,273.601L266.892,275.16L266.363,276.838L265.822,278.487L265.452,279.56L265.025,280.738L264.863,281.178C264.752,281.514 264.639,281.848 264.5,282.186C263.205,285.714 261.764,289.155 260.177,292.537C259.764,293.448 259.353,294.331 258.911,295.213C258.206,296.654 257.441,298.096 256.707,299.508C256.647,299.565 256.619,299.654 256.588,299.713C255.177,302.329 253.677,304.919 252.09,307.419L251.385,308.513L250.98,309.103L250.316,310.136L249.767,310.943L249.354,311.546L249.354,311.565C249.088,312.005 248.794,312.416 248.472,312.829C247.32,314.5 246.13,316.138 244.904,317.745L244.816,317.86C243.221,319.948 241.565,321.984 239.854,323.976L239.073,324.871L238.079,325.991L237.478,326.655L236.874,327.314L236.265,327.97L235.652,328.622L235.034,329.27L234.413,329.913L233.787,330.553L233.157,331.188L232.523,331.819L231.885,332.446L231.243,333.069L230.597,333.688L229.946,334.303L229.292,334.913L228.634,335.519L227.305,336.718L225.961,337.9L224.601,339.064L223.226,340.21L221.835,341.339L220.43,342.45L219.251,343.358L218.294,344.082L217.12,344.95L216.125,345.672L214.957,346.501L213.924,347.22L212.763,348.011L211.691,348.725L210.538,349.478L209.428,350.187L208.283,350.903L207.134,351.605L205.999,352.284L204.81,352.979L203.686,353.621L202.128,354.488L200.557,355.336L199.718,355.777L198.921,356.19L198.122,356.597L197.319,356.999L196.514,357.396L195.706,357.788L194.894,358.175L194.08,358.556L193.263,358.932L192.443,359.303L191.621,359.668L190.795,360.029L189.967,360.383L189.136,360.733L188.303,361.077L187.466,361.416L186.627,361.749L185.472,362.197L184.208,362.674L183.508,362.932C175.658,365.798 167.471,367.962 159.021,369.348L157.605,369.572L156.197,369.781L154.318,370.035L152.436,370.263L150.549,370.465L148.516,370.653L146.646,370.8L144.654,370.927L142.787,371.02L140.923,371.087L139.53,371.121L138.144,371.142L136.819,371.148L135.472,371.141L135.01,371.136L133.308,371.103L132.116,371.068L131.571,371.048C131.011,371.027 130.452,371.002 129.893,370.974L128.91,370.921L128.07,370.87L126.787,370.783L125.344,370.67L124.595,370.605L123.757,370.528L122.78,370.431L121.461,370.29L119.917,370.108L119.147,370.01L118.622,369.94C61.059,362.253 14.891,318.582 3.474,262.277L3.239,261.09L2.955,259.579L2.689,258.062L2.439,256.54L2.206,255.012L1.989,253.478L1.79,251.939L1.609,250.395L1.444,248.846L1.295,247.267L1.199,246.139L1.071,244.412L1.03,243.782L0.93,242.013L0.887,241.098L0.867,240.61L0.814,239.101L0.782,237.765L0.762,236.427L0.756,235.069L0.761,233.92L0.78,232.504L0.814,231.055L0.874,229.343L0.941,227.924L1.04,226.215L1.16,224.51L1.339,222.399L1.503,220.733L1.754,218.52L1.965,216.867L2.116,215.769L2.36,214.126L2.623,212.491L2.832,211.276L3.004,210.32L3.25,209.022L3.391,208.305L3.7,206.805L3.847,206.115L4.228,204.413L4.525,203.156L4.699,202.441L5.07,200.971L5.248,200.286L5.705,198.602L6.047,197.393L6.255,196.679L6.685,195.245L7.142,193.78L7.652,192.213L8.179,190.657L8.724,189.112L9.286,187.576L9.865,186.051L10.462,184.535L11.076,183.028L11.589,181.809L12.228,180.334L12.884,178.867L13.557,177.41L14.247,175.963L14.953,174.524L15.675,173.096L16.414,171.677L17.169,170.268L17.681,169.334L18.2,168.404L18.727,167.479L19.26,166.559L19.8,165.643L20.347,164.732L20.901,163.825L21.462,162.923L21.995,162.081C24.011,158.918 26.155,155.843 28.418,152.865L29.105,151.969L30.119,150.673L31.137,149.404L32.163,148.156L33.2,146.924L34.249,145.708L35.309,144.506L36.64,143.037L37.833,141.756L39.206,140.322L40.549,138.958L41.845,137.678L43.198,136.376L44.743,134.932L46.31,133.513L47.5,132.464L48.702,131.429L49.916,130.407L51.142,129.4L52.38,128.406L53.63,127.427L54.892,126.462L56.165,125.511L57.449,124.575L58.745,123.654L60.052,122.747L61.369,121.855L62.698,120.978L64.037,120.117L64.936,119.551L65.84,118.992C65.398,118.817 65.044,118.669 64.75,118.492L64.722,118.492C55.281,115.374 48.341,108.758 41.958,101.287C30.577,85.318 46.666,69.791 47.751,53.967C48.723,40.557 42.782,25.706 49.694,12.56C53.84,3.853 62.664,0.531 72.427,0.768C81.014,1.208 89.338,4.267 95.161,8.707C107.57,18.236 119.159,31.999 128.776,45.146C128.776,44.116 130.394,42.292 132.157,41.293C133.276,40.617 134.598,40.263 136.01,40.263L144.597,40.263L144.768,40.265ZM233.106,301.981L233,302.134C230.483,303.681 227.993,305.253 225.474,306.802C223.721,307.892 224.466,310.555 226.475,310.623C225.699,311.543 224.907,312.453 224.102,313.349L223.767,313.36C222.62,313.389 221.681,314.328 221.65,315.475C221.645,315.641 221.659,315.803 221.69,315.957C200.328,338.368 170.192,352.34 136.819,352.34C129.603,352.34 122.539,351.687 115.679,350.436L134.186,327.506L164.772,329.681L159.508,320.888L165.184,312.093L175.802,312.975L170.243,303.566L173.565,295.625L181.093,299.3L186.535,320.035L200.475,303.418L218.297,304.448C218.326,304.8 218.445,305.153 218.65,305.447C219.327,306.417 220.62,306.683 221.621,306.066C224.267,304.448 226.915,302.799 229.591,301.155C230.762,301.438 231.935,301.697 233.106,301.981ZM107.895,341.033L113.364,348.678L110.159,337.003L107.895,341.033ZM104.571,345.769L100.63,345.592L99.878,346.393C99.065,346.123 98.255,345.844 97.449,345.556L97.102,344.532L93.718,342.975L96.925,341.004L97.306,337.591L100.219,339.797L103.749,338.798L102.571,342.768L104.571,345.769ZM85.131,273.303L79.354,270.4L80.178,272.648C80.193,272.692 80.209,272.736 80.222,272.78C81.181,275.96 79.411,279.432 76.27,280.531C74.342,281.206 72.35,280.866 70.84,279.792C71.014,281.638 70.315,283.537 68.77,284.872C67.596,285.888 66.126,286.394 64.662,286.394C62.977,286.394 61.301,285.725 60.085,284.426C60.052,284.392 60.022,284.357 59.993,284.321L57.193,280.956L57.193,288.369C57.193,291.684 54.444,294.418 50.997,294.418C47.547,294.418 44.798,291.684 44.798,288.369L44.798,280.956L41.998,284.321C41.969,284.357 41.939,284.392 41.906,284.426C39.633,286.853 35.746,287.057 33.221,284.874L33.221,284.872C31.676,283.537 30.977,281.638 31.152,279.792C30.457,280.285 29.66,280.624 28.814,280.779C39.992,307.142 60.547,328.582 86.29,340.908L91.19,337.739L92.396,325.651L101.189,333.062L108.66,330.739L105.749,320.828L76.779,308.771L84.691,302.624L82.543,295.744L74.367,291.949L81.926,286.273L82.749,277.684L87.308,281.333L85.131,273.303ZM117.923,310.182L108.954,306.066L117.395,300.861L118.423,291.83L126.187,297.713L135.451,295.037L132.392,305.535L137.657,313.475L127.187,312.975L121.099,319.533L117.923,310.182ZM158.478,319.476L151.155,307.801L156.126,310.066L158.478,319.476ZM156.891,305.007L159.832,303.212L160.184,300.067L162.889,302.125L166.096,301.183L165.036,304.83L166.861,307.595L163.243,307.419L161.125,309.711L160.007,306.448L156.891,305.007ZM169.832,294.508L163.95,296.566L155.684,289.92L154.539,300.772L148.686,303.77L158.714,273.038L151.862,274.421L157.803,267.421L179.124,269.362L177.948,279.302L160.979,290.508L169.832,294.508ZM223.767,299.771C222.62,300.476 221.444,301.212 220.268,301.948L218.827,299.713C219.267,299.448 219.709,299.183 220.151,298.889C221.356,299.183 222.561,299.477 223.767,299.771ZM91.073,297.625L88.014,301.654L94.543,297.832L91.073,297.625ZM233.495,268.445C230.004,269.71 227.024,270.676 224.554,271.344C221.358,272.208 218.773,272.543 216.801,272.369C216.243,272.32 215.725,272.256 215.247,272.179L210.092,286.304L214.679,293.332C214.886,293.39 215.092,293.448 215.297,293.478C215.003,293.008 214.709,292.537 214.444,292.068C213.827,291.067 214.15,289.772 215.209,289.213C216.208,288.655 217.503,289.009 218.12,289.979C219.121,291.624 220.12,293.244 221.091,294.862C222.326,295.154 223.533,295.448 224.738,295.744C223.798,294.214 222.885,292.712 221.975,291.213C221.356,290.183 221.681,288.89 222.737,288.331C223.738,287.802 225.032,288.125 225.65,289.124C227.268,291.772 228.915,294.449 230.531,297.123C231.737,297.39 232.973,297.682 234.178,297.978C232.591,295.39 231.002,292.802 229.414,290.214C228.325,288.419 230.296,286.304 232.178,287.303C234.692,288.656 237.18,290.008 239.692,291.362L239.958,290.875C239.678,289.929 239.398,288.992 239.12,288.037C236.355,286.567 233.619,285.068 230.856,283.596C229.854,283.068 229.414,281.773 229.914,280.745C230.414,279.657 231.678,279.244 232.737,279.803C234.297,280.656 235.855,281.479 237.414,282.332C237.06,281.125 236.708,279.949 236.355,278.744C234.65,277.832 232.973,276.95 231.296,276.039C230.296,275.48 229.885,274.216 230.356,273.186C230.856,272.098 232.12,271.685 233.179,272.244C233.649,272.509 234.149,272.774 234.65,273.038C234.266,271.833 233.915,270.626 233.561,269.393C233.468,269.079 233.448,268.755 233.495,268.445ZM202.504,293.509L195.447,293.184L191.358,297.567L189.212,291.301L183.182,288.507L188.858,285.008L189.565,278.948L194.77,282.891L201.006,281.098L198.946,288.154L202.504,293.509ZM92.631,293.39L89.278,293.213L87.308,295.331L86.279,292.331L83.396,291.007L86.132,289.332L86.455,286.419L88.926,288.302L91.926,287.449L90.927,290.83L92.631,293.39ZM95.661,275.126L103.66,275.774L102.836,292.331L98.924,294.566L95.807,289.772L98.543,281.596L89.338,283.271L95.661,275.126ZM253.949,240.537C253.644,240.952 253.271,241.352 252.832,241.738C251.441,242.957 249.809,243.672 247.935,243.881C247.296,243.953 246.693,243.958 246.124,243.898C246.385,244.203 246.478,244.576 246.366,245.027C246.27,245.417 246.052,245.727 245.711,245.955C245.691,245.969 245.67,245.981 245.648,245.992C233.991,252.042 226.473,256.1 223.096,258.169C219.797,260.19 217.529,261.925 216.308,263.395C215.696,264.132 215.462,264.709 215.902,265.18C216.122,265.415 216.542,265.524 217.129,265.598C218.275,265.742 219.958,265.643 222.18,265.316C225.98,264.755 230.648,263.486 236.186,261.513C236.234,261.496 236.284,261.484 236.335,261.479C236.757,261.431 237.031,261.574 237.2,261.754C237.366,261.932 237.485,262.202 237.421,262.579C237.407,262.928 237.359,263.613 237.277,264.632C237.277,264.632 237.152,266.191 237.152,266.184C237.135,266.605 237.004,266.912 236.787,267.122C237.133,267.395 237.4,267.773 237.531,268.215C237.884,269.42 238.267,270.626 238.618,271.833C238.885,271.362 239.149,270.861 239.414,270.392C239.973,269.331 241.266,269.01 242.265,269.627C243.266,270.215 243.589,271.508 243.059,272.538L240.325,277.569C240.678,278.744 241.03,279.949 241.383,281.125C242.236,279.569 243.09,278.039 243.912,276.479C244.5,275.42 245.766,275.096 246.796,275.714L246.825,275.733C250.913,264.689 253.384,252.86 253.949,240.537ZM98.806,255.804L106.454,245.776L120.717,247.071L112.218,252.716L135.51,262.245L139.303,278.155L128.657,280.979L104.542,260.512L103.66,269.596L100.984,266.009L104.69,255.07L98.806,255.804ZM33.617,275.518L35.978,260.906L44.798,256.088L45.284,265.759L33.617,275.518ZM68.374,275.516L56.423,266.816L57.193,256.088L66.785,261.932L68.374,275.516ZM192.539,252.136L193.977,254.57L184.8,253.892L181.418,258.158L196.505,270.363L208.352,267.814C207.299,266.307 206.813,264.484 206.909,262.34C207.016,259.959 207.842,257.765 209.395,255.759C206.909,256.122 204.832,256.249 203.166,256.144C201.056,256.012 199.058,255.554 197.169,254.773C195.272,253.989 193.878,253.228 192.979,252.502C192.835,252.386 192.688,252.264 192.539,252.136ZM95.955,263.598C95.955,263.598 93.726,264.232 93.726,264.232C94.485,265.959 94.443,268.037 93.413,269.845L96.72,269.979C96.72,269.979 94.896,267.246 94.896,267.246L95.955,263.598ZM169.743,249.334L176.007,252.188L179.241,263.569L169.743,249.334ZM137.657,250.424L144.568,246.216L145.391,238.864L151.685,243.658L159.242,241.481L156.745,250.011L161.037,256.48L152.508,256.069L147.568,261.394L144.979,253.804L137.657,250.424ZM93.065,254.373C92.686,254.936 92.218,255.437 91.68,255.854L93.838,257.628C93.838,257.628 93.065,254.373 93.065,254.373ZM19.892,243.913L30.396,239.854L39.892,245.33L30.696,251.158L20.154,246.913C20.055,245.921 19.967,244.919 19.892,243.913ZM177.771,247.63L179.977,246.275L180.242,243.924L182.271,245.453L184.683,244.775L183.889,247.511L185.242,249.569L182.534,249.452L180.947,251.158L180.094,248.718L177.771,247.63ZM85.767,245.33L71.954,250.362L62.099,245.33L72.204,240.111L85.767,245.33ZM204.199,139.136L204.291,139.359C206.458,144.639 207.262,149.974 206.708,155.363C206.15,160.777 204.101,165.616 200.559,169.879C196.785,174.419 192.439,177.048 187.535,177.793C183.097,178.468 178.617,177.663 174.099,175.362C174.953,178.879 175.016,182.419 174.289,185.984C173.458,190.06 171.606,193.832 168.727,197.295C167.213,199.117 165.586,200.686 163.846,202.003C166.475,202.457 169.23,202.119 171.508,200.735C173.91,198.51 176.765,196.674 180.076,195.231C184.566,193.274 189.102,192.476 193.683,192.832C198.343,193.193 202.04,194.856 204.786,197.794C205.08,198.108 205.356,198.424 205.615,198.741L216.818,193.49C218.065,192.906 219.465,193.259 219.943,194.278L221.675,197.972C222.152,198.992 221.528,200.294 220.281,200.879L208.212,203.666C208.293,203.996 208.357,204.327 208.404,204.66C208.735,207.043 208.002,209.348 206.163,211.561C203.789,214.417 200.63,215.957 196.681,216.168C192.822,216.375 189.215,215.735 185.86,214.254C182.739,212.876 180.124,211.22 178.009,209.29C177.136,210.041 176.346,210.842 175.64,211.692C174.266,213.345 173.395,214.975 173.043,216.591C172.722,218.069 173.057,219.344 174.057,220.414C174.849,221.26 175.85,222.03 177.057,222.727C178.29,223.438 179.934,224.086 181.985,224.679C184.033,225.271 186.597,225.413 189.675,225.122C191.66,224.934 193.739,224.54 195.91,223.941C197.975,222.287 200.33,220.883 202.976,219.73C207.466,217.773 212.002,216.975 216.583,217.331C221.243,217.692 224.94,219.355 227.686,222.293C229.755,224.506 230.837,226.715 230.978,228.896C231.121,231.099 230.312,233.295 228.508,235.466C226.944,237.348 224.93,238.442 222.465,238.747C219.914,239.063 218.034,238.507 216.797,237.184C215.657,235.964 215.594,234.879 216.348,233.972C216.449,233.851 216.59,233.769 216.745,233.742C220.696,233.043 223.326,231.648 224.575,229.452C224.578,229.448 224.58,229.444 224.582,229.441C225.069,228.623 225.024,227.886 224.412,227.232C223.267,226.007 221.143,225.637 218.074,225.955C214.799,226.294 211.286,227.414 207.534,229.305C203.79,231.191 200.79,233.484 198.54,236.191C197.16,237.852 196.251,239.561 195.825,241.323C195.437,242.926 195.697,244.247 196.657,245.274C197.438,246.11 198.428,246.817 199.622,247.401C200.862,248.007 202.49,248.554 204.504,249.047C206.509,249.538 209.029,249.578 212.064,249.186C214.857,248.825 217.857,248.087 221.063,246.975C224.984,244.752 230.826,241.619 238.591,237.576C238.596,237.573 238.602,237.57 238.608,237.567C239.346,237.209 239.986,237.33 240.53,237.912L241.133,238.556C241.238,237.095 241.953,235.76 243.314,234.567C244.705,233.348 246.337,232.633 248.211,232.424C250.133,232.209 251.738,232.591 253.034,233.537C253.444,233.835 253.79,234.163 254.073,234.52C253.887,195.106 234.213,160.261 204.199,139.136ZM175.018,230.701L168.771,246.775L175.154,243.424L175.802,234.426L183.007,240.159L186.585,239.165L186.597,239.084C186.99,236.444 187.946,233.857 189.468,231.324L188.848,231.433C185.473,232.006 182.723,232.197 180.598,232.015C178.658,231.85 176.798,231.412 175.018,230.701ZM90.909,245.299L90.892,245.226C90.821,245.263 90.748,245.297 90.675,245.33C90.767,245.374 90.859,245.418 90.949,245.466L90.909,245.299ZM136.951,215.603L134.158,214.25L133.128,238.953L124.099,244.982L114.747,230.777L121.159,213.484L107.513,216.397L113.805,208.336L131.216,209.631L135.804,211.22L136.951,215.603ZM108.423,237.6L102.159,237.308L98.513,241.218L96.601,235.629L91.221,233.158L96.278,230.041L96.897,224.63L101.543,228.16L107.101,226.542L105.276,232.835L108.423,237.6ZM33.617,215.144L45.803,224.221L44.798,234.574L35.216,230.049L33.617,215.144ZM68.374,215.144L65.894,229.603L57.193,234.572L57.247,224.607L68.374,215.144ZM168.563,226.658C168.1,226.214 167.619,225.724 167.118,225.188C164.239,222.108 163.103,218.572 163.697,214.585C163.853,213.534 164.099,212.491 164.434,211.456C161.485,209.975 158.361,207.898 155.996,206.042C154.835,206.399 153.65,206.666 152.441,206.845C152.16,206.887 151.877,206.921 151.592,206.947L155.861,214.22L145.892,213.72L140.422,219.337L153.743,230.337L168.563,226.658ZM81.367,214.368L80.453,215.505C80.529,216.287 80.46,217.092 80.222,217.88C80.209,217.926 80.195,217.97 80.178,218.015L78.666,222.142L85.066,218.437C86.073,217.855 87.185,217.602 88.282,217.649L88.425,215.19L81.367,214.368ZM64.079,143.141L70.546,145.608L72.309,151.812L72.104,167.459L61.28,174.605L73.22,179.604L77.192,191.927L84.455,182.341L94.748,183.163L94.574,185.811L78.604,196.25L83.984,199.367L80.191,200.339L72.897,194.369L71.956,203.573L68.783,205.8L68.77,205.788C66.245,203.605 62.358,203.809 60.085,206.234C60.052,206.269 60.022,206.305 59.993,206.34L57.193,209.706L57.193,202.293C57.193,198.979 54.444,196.242 50.997,196.242C47.547,196.242 44.798,198.979 44.798,202.293L44.798,209.706L41.998,206.34C41.969,206.305 41.939,206.269 41.906,206.234C39.633,203.809 35.746,203.605 33.221,205.788C31.676,207.124 30.977,209.024 31.152,210.871C29.641,209.796 27.649,209.456 25.722,210.131C22.578,211.23 20.81,214.7 21.769,217.88C21.783,217.926 21.796,217.97 21.813,218.015L23.325,222.142L20.466,220.486C24.353,189.233 40.563,161.778 64.079,143.141ZM85.514,207.014L88.102,200.839L96.601,204.074L99.043,213.808L89.278,205.925L89.132,206.044L88.308,210.955L85.514,207.014ZM82.514,210.544L80.985,208.221L81.867,205.193L79.19,205.955L76.956,204.28L76.662,206.868L74.192,208.398L76.81,209.574L77.123,210.504C77.62,210.767 78.073,211.095 78.475,211.475L79.486,210.398L82.514,210.544ZM139.874,203.948L139.834,204.309L136.892,206.132L140.01,207.573L141.127,210.807L143.215,208.544L146.862,208.692L145.27,206.302C144.423,206.059 143.568,205.755 142.703,205.388C141.748,204.983 140.805,204.503 139.874,203.948ZM201.512,202.733C201.643,202.873 201.728,203.012 201.732,203.165C201.641,203.812 201.248,204.398 200.593,204.953C199.824,205.606 198.712,206.2 197.267,206.748C197.264,206.749 197.261,206.75 197.259,206.752C192.562,208.608 187.761,208.27 182.852,205.766C186.428,203.684 190.056,202.313 193.74,201.656C197.54,200.978 200.141,201.266 201.512,202.733ZM134.018,117.862C119.898,118.194 106.39,121.027 93.918,125.938L90.279,137.638L96.043,146.373L96.424,144.019L102.984,150.225L112.042,147.785L109.747,157.196L111.456,159.948C111.751,159.426 112.082,158.945 112.448,158.505C113.113,157.705 113.762,157.141 114.385,156.799C115.326,156.282 115.996,156.422 116.384,156.836C116.437,156.893 116.518,156.999 116.567,157.182C116.607,157.329 116.648,157.679 116.673,158.232C116.692,158.648 116.795,158.984 117.02,159.225C117.89,160.155 118.81,160.876 119.784,161.383C120.755,161.889 122.209,162.143 124.138,162.183C126.148,162.225 128.521,161.875 131.259,161.143C134.045,160.398 137.696,159.053 142.214,157.111C146.754,155.16 151.972,152.629 157.869,149.518C167.693,144.28 175.59,141.328 181.55,140.634C187.708,139.918 192.319,141.257 195.409,144.562C196.677,145.919 196.972,147.355 196.356,148.851C196.092,149.582 195.708,149.915 195.41,150.002C195.083,150.098 194.713,150.04 194.361,149.663C192.916,148.117 190.629,147.657 187.527,148.154C184.207,148.686 180.483,149.993 176.354,152.067C172.166,154.17 167.642,156.652 162.782,159.511C157.903,162.382 152.99,165.188 148.043,167.929C143.081,170.679 138.374,173.016 133.923,174.941C131.772,175.871 129.702,176.598 127.715,177.122L122.306,192.398L129.863,203.515L134.01,201.427L134.24,199.53C133.872,199.167 133.506,198.791 133.141,198.401C130.168,195.22 128.443,191.853 127.944,188.31C127.429,184.648 127.907,182.02 129.248,180.406C129.737,179.817 130.257,179.438 130.791,179.244C131.569,178.963 132.11,179.124 132.439,179.476C132.519,179.561 132.615,179.709 132.671,179.946C132.724,180.167 132.757,180.553 132.757,181.104C132.758,181.774 132.789,182.562 132.852,183.466C132.912,184.327 133.231,185.373 133.793,186.61C134.366,187.875 135.207,189.096 136.31,190.276C138.963,193.114 141.892,194.72 145.113,195.065C148.342,195.411 151.375,194.784 154.212,193.184C157.107,191.551 159.801,189.229 162.299,186.224C164.959,183.023 166.507,179.915 166.914,176.887C167.308,173.955 166.915,171.4 165.714,169.227C165.081,168.656 164.536,168.128 164.081,167.641C162.524,165.974 162.28,164.129 163.353,162.105C163.356,162.1 163.359,162.094 163.362,162.089C163.655,161.573 163.943,161.223 164.204,161.021C164.49,160.799 164.774,160.717 165.037,160.725C165.333,160.734 165.629,160.855 165.897,161.143C170.224,165.771 174.818,167.962 179.71,167.652C184.617,167.342 189.091,164.714 193.16,159.818C196.804,155.433 198.572,150.665 198.449,145.508C198.342,141.02 196.432,136.531 192.754,132.025C181.899,126.116 170.009,121.872 157.428,119.638C157.111,119.716 156.795,119.798 156.478,119.884C152.818,120.884 149.566,122.291 146.724,124.111C143.891,125.925 141.541,127.951 139.679,130.191C137.866,132.373 136.785,134.504 136.46,136.598C136.154,138.575 136.638,140.257 137.929,141.638C139.681,143.512 142.091,144.186 145.143,143.719C148.253,143.243 150.528,142.182 151.942,140.481C152.369,139.967 152.81,139.874 153.135,139.95C153.33,139.995 153.523,140.104 153.691,140.309C153.871,140.53 154.047,140.937 154.159,141.551C154.58,143.291 154.158,144.948 152.859,146.511C150.358,149.52 146.636,151.38 141.67,152.048C136.667,152.722 132.494,151.264 129.147,147.684C126.4,144.746 125.128,140.609 125.389,135.256C125.646,129.973 127.548,125.193 131.101,120.918C131.993,119.845 132.965,118.826 134.018,117.862ZM103.629,192.104L104.248,186.693L108.894,190.222L114.453,188.605L112.601,194.897L115.777,199.663L109.482,199.367L105.835,203.281L103.923,197.691L98.543,195.22L103.629,192.104ZM77.897,171.429L78.337,167.43L81.778,170.016L85.896,168.84L84.543,173.488L86.866,177.018L82.22,176.782L79.544,179.693L78.132,175.546L74.133,173.723L77.897,171.429ZM109.971,164.252L105.19,163.989L99.925,169.899L109.924,179.399L116.771,177.622C114.981,177.091 113.466,176.157 112.224,174.829C110.302,172.773 109.442,170.006 109.691,166.513C109.748,165.718 109.841,164.964 109.971,164.252ZM94.514,161.341L96.985,162.165L98.159,168.871L95.955,167.105L95.131,178.694L90.337,172.399L94.514,161.341ZM83.074,163.666L76.485,157.665L83.337,148.607L95.69,149.489L95.338,154.195L88.573,158.167L92.865,160.636L83.074,163.666ZM106.1,159.665L103.07,159.548L101.308,161.429L100.396,158.724L97.779,157.519L100.248,156.018L100.544,153.43L102.778,155.108L105.455,154.343L104.571,157.371L106.1,159.665ZM75.665,135.043C76.512,134.523 77.364,134.016 78.223,133.519L79.749,134.667L84.19,133.374L82.72,138.431L85.251,142.255L80.22,142.02L77.309,145.137L75.78,140.668L71.456,138.668L75.543,136.168L75.665,135.043ZM153.862,80.436L179.889,104.287L180.419,105.288L180.29,105.606L180.195,106.039L180.189,106.092C174.413,104.148 168.461,102.581 162.366,101.421L161.821,100.432L161.261,99.409L160.126,97.318C160.038,97.141 159.95,96.995 159.89,96.847C157.125,91.759 155.303,86.083 153.862,80.436ZM126.011,79.759C123.982,85.819 121.482,91.818 117.923,97.024L117.894,97.024C117.835,97.141 117.775,97.229 117.687,97.318C117.658,97.406 117.57,97.523 117.452,97.671L117.042,98.249L116.246,99.381L115.61,100.266L115.274,100.721C108.993,101.722 102.856,103.153 96.893,104.984L96.631,104.2L98.278,101.641L126.011,79.759ZM140.465,49.848L140.627,49.852C142.334,49.909 143.98,50.645 145.127,51.938C146.303,53.174 146.951,54.849 146.862,56.556C146.803,58.291 146.038,59.908 144.803,61.086C143.509,62.26 141.863,62.879 140.128,62.819C138.421,62.762 136.775,62.026 135.628,60.733C134.452,59.497 133.804,57.82 133.864,56.115C133.952,54.35 134.717,52.763 135.95,51.587C137.096,50.519 138.581,49.913 140.141,49.852L140.465,49.848ZM212.533,14.49L212.739,14.493C220.061,14.64 222.354,22.1 218.297,30.998C205.399,42.147 189.145,48.573 172.115,49.219L171.713,49.233C178.065,33.087 191.329,20.618 207.857,15.296C209.586,14.744 211.148,14.488 212.533,14.49ZM70.673,9.257C72.254,9.253 74.061,9.626 76.074,10.442C92.16,16.971 104.454,30.352 109.63,46.91C92.543,45.117 76.633,37.47 64.545,25.293C61.224,16.382 63.823,9.274 70.673,9.257Z" style="fill:none;stroke:rgb(255,0,0);stroke-width:1px;"/>
</svg>
