<?xml version="1.0" encoding="UTF-8" standalone="no"?>
<!DOCTYPE svg PUBLIC "-//W3C//DTD SVG 1.1//EN" "http://www.w3.org/Graphics/SVG/1.1/DTD/svg11.dtd">
<svg width="100%" height="100%" viewBox="0 0 1123 794" version="1.1" xmlns="http://www.w3.org/2000/svg" xmlns:xlink="http://www.w3.org/1999/xlink" xml:space="preserve" xmlns:serif="http://www.serif.com/" style="fill-rule:evenodd;clip-rule:evenodd;stroke-linejoin:round;stroke-miterlimit:2;">
    <path d="M144.768,40.265C146.525,40.302 148.11,40.912 149.422,41.91C150.863,43.057 151.891,44.704 152.273,46.587C152.802,46.587 182.859,16.178 188.975,12.177C194.836,8.337 202.831,5.966 211.003,5.93C211.404,5.929 211.807,5.932 212.21,5.942C221.975,6.413 230.502,10.413 234.032,19.412C239.942,32.998 232.913,47.381 232.854,60.821C232.825,76.702 247.707,93.348 235.179,108.435C229.972,113.729 222.856,118.846 215.857,121.903L215.797,121.903L214.909,122.185L213.44,122.66C235.271,137.575 252.544,158.68 262.718,183.428L263.146,184.482L263.635,185.717L264.183,187.147L264.715,188.58L264.956,189.247L265.465,190.694L265.958,192.147L266.475,193.735L266.941,195.223L267.39,196.719L267.822,198.222L268.318,200.033L268.765,201.757L269.14,203.283L269.499,204.816L269.84,206.356L270.097,207.582L270.267,208.418L270.567,209.973L270.849,211.533L271.113,213.1L271.309,214.338L271.419,215.073L271.66,216.779L271.864,218.366L272.05,219.958L272.182,221.204L272.257,221.958L272.366,223.158L272.397,223.517L272.519,225.075L272.624,226.63L272.71,228.177L272.746,228.945L272.807,230.524L272.85,232.102C272.861,232.627 272.87,233.152 272.875,233.676L272.882,235.204L272.88,235.812C272.877,236.27 272.873,236.727 272.866,237.183L272.845,238.277C272.836,238.637 272.827,238.997 272.816,239.357L272.77,240.666L272.707,242.056L272.66,242.916C272.616,243.693 272.566,244.469 272.509,245.242L272.378,246.891L272.235,248.448L272.115,249.632L271.964,250.996L271.773,252.558L271.607,253.813L271.429,255.064L271.176,256.717L270.983,257.897L270.743,259.275L270.405,261.091L270.108,262.584L269.863,263.752L269.428,265.714L269.074,267.212L268.795,268.344L268.42,269.801L268.042,271.21L267.725,272.344L267.361,273.601L266.892,275.16L266.363,276.838L265.822,278.487L265.452,279.56L265.025,280.738L264.863,281.178C264.752,281.514 264.639,281.848 264.5,282.186C263.205,285.714 261.764,289.155 260.177,292.537C259.764,293.448 259.353,294.331 258.911,295.213C258.206,296.654 257.441,298.096 256.707,299.508C256.647,299.565 256.619,299.654 256.588,299.713C255.177,302.329 253.677,304.919 252.09,307.419L251.385,308.513L250.98,309.103L250.316,310.136L249.767,310.943L249.354,311.546L249.354,311.565C249.088,312.005 248.794,312.416 248.472,312.829C247.32,314.5 246.13,316.138 244.904,317.745L244.816,317.86C243.221,319.948 241.565,321.984 239.854,323.976L239.073,324.871L238.079,325.991L237.478,326.655L236.874,327.314L236.265,327.97L235.652,328.622L235.034,329.27L234.413,329.913L233.787,330.553L233.157,331.188L232.523,331.819L231.885,332.446L231.243,333.069L230.597,333.688L229.946,334.303L229.292,334.913L228.634,335.519L227.305,336.718L225.961,337.9L224.601,339.064L223.226,340.21L221.835,341.339L220.43,342.45L219.251,343.358L218.294,344.082L217.12,344.95L216.125,345.672L214.957,346.501L213.924,347.22L212.763,348.011L211.691,348.725L210.538,349.478L209.428,350.187L208.283,350.903L207.134,351.605L205.999,352.284L204.81,352.979L203.686,353.621L202.128,354.488L200.557,355.336L199.718,355.777L198.921,356.19L198.122,356.597L197.319,356.999L196.514,357.396L195.706,357.788L194.894,358.175L194.08,358.556L193.263,358.932L192.443,359.303L191.621,359.668L190.795,360.029L189.967,360.383L189.136,360.733L188.303,361.077L187.466,361.416L186.627,361.749L185.472,362.197L184.208,362.674L183.508,362.932C175.658,365.798 167.471,367.962 159.021,369.348L157.605,369.572L156.197,369.781L154.318,370.035L152.436,370.263L150.549,370.465L148.516,370.653L146.646,370.8L144.654,370.927L142.787,371.02L140.923,371.087L139.53,371.121L138.144,371.142L136.819,371.148L135.472,371.141L135.01,371.136L133.308,371.103L132.116,371.068L131.571,371.048C131.011,371.027 130.452,371.002 129.893,370.974L128.91,370.921L128.07,370.87L126.787,370.783L125.344,370.67L124.595,370.605L123.757,370.528L122.78,370.431L121.461,370.29L119.917,370.108L119.147,370.01L118.622,369.94C61.059,362.253 14.891,318.582 3.474,262.277L3.239,261.09L2.955,259.579L2.689,258.062L2.439,256.54L2.206,255.012L1.989,253.478L1.79,251.939L1.609,250.395L1.444,248.846L1.295,247.267L1.199,246.139L1.071,244.412L1.03,243.782L0.93,242.013L0.887,241.098L0.867,240.61L0.814,239.101L0.782,237.765L0.762,236.427L0.756,235.069L0.761,233.92L0.78,232.504L0.814,231.055L0.874,229.343L0.941,227.924L1.04,226.215L1.16,224.51L1.339,222.399L1.503,220.733L1.754,218.52L1.965,216.867L2.116,215.769L2.36,214.126L2.623,212.491L2.832,211.276L3.004,210.32L3.25,209.022L3.391,208.305L3.7,206.805L3.847,206.115L4.228,204.413L4.525,203.156L4.699,202.441L5.07,200.971L5.248,200.286L5.705,198.602L6.047,197.393L6.255,196.679L6.685,195.245L7.142,193.78L7.652,192.213L8.179,190.657L8.724,189.112L9.286,187.576L9.865,186.051L10.462,184.535L11.076,183.028L11.589,181.809L12.228,180.334L12.884,178.867L13.557,177.41L14.247,175.963L14.953,174.524L15.675,173.096L16.414,171.677L17.169,170.268L17.681,169.334L18.2,168.404L18.727,167.479L19.26,166.559L19.8,165.643L20.347,164.732L20.901,163.825L21.462,162.923L21.995,162.081C24.011,158.918 26.155,155.843 28.418,152.865L29.105,151.969L30.119,150.673L31.137,149.404L32.163,148.156L33.2,146.924L34.249,145.708L35.309,144.506L36.64,143.037L37.833,141.756L39.206,140.322L40.549,138.958L41.845,137.678L43.198,136.376L44.743,134.932L46.31,133.513L47.5,132.464L48.702,131.429L49.916,130.407L51.142,129.4L52.38,128.406L53.63,127.427L54.892,126.462L56.165,125.511L57.449,124.575L58.745,123.654L60.052,122.747L61.369,121.855L62.698,120.978L64.037,120.117L64.936,119.551L65.84,118.992C65.398,118.817 65.044,118.669 64.75,118.492L64.722,118.492C55.281,115.374 48.341,108.758 41.958,101.287C30.577,85.318 46.666,69.791 47.751,53.967C48.723,40.557 42.782,25.706 49.694,12.56C53.84,3.853 62.664,0.531 72.427,0.768C81.014,1.208 89.338,4.267 95.161,8.707C107.57,18.236 119.159,31.999 128.776,45.146C128.776,44.116 130.394,42.292 132.157,41.293C133.276,40.617 134.598,40.263 136.01,40.263L144.597,40.263L144.768,40.265ZM233.106,301.981L233,302.134C230.483,303.681 227.993,305.253 225.474,306.802C223.721,307.892 224.466,310.555 226.475,310.623C225.699,311.543 224.907,312.453 224.102,313.349L223.767,313.36C222.62,313.389 221.681,314.328 221.65,315.475C221.645,315.641 221.659,315.803 221.69,315.957C200.328,338.368 170.192,352.34 136.819,352.34C129.603,352.34 122.539,351.687 115.679,350.436L134.186,327.506L164.772,329.681L159.508,320.888L165.184,312.093L175.802,312.975L170.243,303.566L173.565,295.625L181.093,299.3L186.535,320.035L200.475,303.418L218.297,304.448C218.326,304.8 218.445,305.153 218.65,305.447C219.327,306.417 220.62,306.683 221.621,306.066C224.267,304.448 226.915,302.799 229.591,301.155C230.762,301.438 231.935,301.697 233.106,301.981ZM107.895,341.033L113.364,348.678L110.159,337.003L107.895,341.033ZM104.571,345.769L100.63,345.592L99.878,346.393C99.065,346.123 98.255,345.844 97.449,345.556L97.102,344.532L93.718,342.975L96.925,341.004L97.306,337.591L100.219,339.797L103.749,338.798L102.571,342.768L104.571,345.769ZM85.131,273.303L79.354,270.4L80.178,272.648C80.193,272.692 80.209,272.736 80.222,272.78C81.181,275.96 79.411,279.432 76.27,280.531C74.342,281.206 72.35,280.866 70.84,279.792C71.014,281.638 70.315,283.537 68.77,284.872C67.596,285.888 66.126,286.394 64.662,286.394C62.977,286.394 61.301,285.725 60.085,284.426C60.052,284.392 60.022,284.357 59.993,284.321L57.193,280.956L57.193,288.369C57.193,291.684 54.444,294.418 50.997,294.418C47.547,294.418 44.798,291.684 44.798,288.369L44.798,280.956L41.998,284.321C41.969,284.357 41.939,284.392 41.906,284.426C39.633,286.853 35.746,287.057 33.221,284.874L33.221,284.872C31.676,283.537 30.977,281.638 31.152,279.792C30.457,280.285 29.66,280.624 28.814,280.779C39.992,307.142 60.547,328.582 86.29,340.908L91.19,337.739L92.396,325.651L101.189,333.062L108.66,330.739L105.749,320.828L76.779,308.771L84.691,302.624L82.543,295.744L74.367,291.949L81.926,286.273L82.749,277.684L87.308,281.333L85.131,273.303ZM117.923,310.182L108.954,306.066L117.395,300.861L118.423,291.83L126.187,297.713L135.451,295.037L132.392,305.535L137.657,313.475L127.187,312.975L121.099,319.533L117.923,310.182ZM158.478,319.476L151.155,307.801L156.126,310.066L158.478,319.476ZM156.891,305.007L159.832,303.212L160.184,300.067L162.889,302.125L166.096,301.183L165.036,304.83L166.861,307.595L163.243,307.419L161.125,309.711L160.007,306.448L156.891,305.007ZM169.832,294.508L163.95,296.566L155.684,289.92L154.539,300.772L148.686,303.77L158.714,273.038L151.862,274.421L157.803,267.421L179.124,269.362L177.948,279.302L160.979,290.508L169.832,294.508ZM223.767,299.771C222.62,300.476 221.444,301.212 220.268,301.948L218.827,299.713C219.267,299.448 219.709,299.183 220.151,298.889C221.356,299.183 222.561,299.477 223.767,299.771ZM91.073,297.625L88.014,301.654L94.543,297.832L91.073,297.625ZM216.847,267.794L210.092,286.304L214.679,293.332C214.886,293.39 215.092,293.448 215.297,293.478C215.003,293.008 214.709,292.537 214.444,292.068C213.827,291.067 214.15,289.772 215.209,289.213C216.208,288.655 217.503,289.009 218.12,289.979C219.121,291.624 220.12,293.244 221.091,294.862C222.326,295.154 223.533,295.448 224.738,295.744C223.798,294.214 222.885,292.712 221.975,291.213C221.356,290.183 221.681,288.89 222.737,288.331C223.738,287.802 225.032,288.125 225.65,289.124C227.268,291.772 228.915,294.449 230.531,297.123C231.737,297.39 232.973,297.682 234.178,297.978C232.591,295.39 231.002,292.802 229.414,290.214C228.325,288.419 230.296,286.304 232.178,287.303C234.692,288.656 237.18,290.008 239.692,291.362L239.958,290.875C239.678,289.929 239.398,288.992 239.12,288.037C236.355,286.567 233.619,285.068 230.856,283.596C229.854,283.068 229.414,281.773 229.914,280.745C230.033,280.485 230.196,280.264 230.39,280.085C228.982,279.857 227.624,279.456 226.317,278.884C224.602,278.134 223.345,277.425 222.541,276.771C221.75,276.128 220.879,275.299 219.929,274.284C218.103,272.329 217.077,270.166 216.847,267.794ZM202.504,293.509L195.447,293.184L191.358,297.567L189.212,291.301L183.182,288.507L188.858,285.008L189.565,278.948L194.77,282.891L201.006,281.098L198.946,288.154L202.504,293.509ZM92.631,293.39L89.278,293.213L87.308,295.331L86.279,292.331L83.396,291.007L86.132,289.332L86.455,286.419L88.926,288.302L91.926,287.449L90.927,290.83L92.631,293.39ZM95.661,275.126L103.66,275.774L102.836,292.331L98.924,294.566L95.807,289.772L98.543,281.596L89.338,283.271L95.661,275.126ZM236.743,280.061C235.615,280.2 234.584,280.279 233.652,280.3C234.906,280.979 236.16,281.646 237.414,282.332C237.19,281.567 236.966,280.815 236.743,280.061ZM242.583,278.943C241.998,279.096 241.423,279.235 240.858,279.359C241.033,279.95 241.208,280.541 241.383,281.125C241.784,280.394 242.185,279.668 242.583,278.943ZM98.806,255.804L106.454,245.776L120.717,247.071L112.218,252.716L135.51,262.245L139.303,278.155L128.657,280.979L104.542,260.512L103.66,269.596L100.984,266.009L104.69,255.07L98.806,255.804ZM33.617,275.518L35.978,260.906L44.798,256.088L45.284,265.759L33.617,275.518ZM68.374,275.516L56.423,266.816L57.193,256.088L66.785,261.932L68.374,275.516ZM250.098,265.449C248.785,266.04 247.322,266.38 245.709,266.466C242.338,266.646 239.188,266.087 236.258,264.794C233.562,263.604 231.299,262.175 229.464,260.513C228.731,261.149 228.067,261.825 227.471,262.541C226.286,263.967 225.534,265.372 225.231,266.766C224.958,268.021 225.242,269.104 226.091,270.012C226.774,270.743 227.638,271.407 228.68,272.008C229.748,272.624 231.171,273.185 232.947,273.698C234.72,274.21 236.939,274.332 239.603,274.08C242.252,273.83 245.091,273.155 248.114,272.064C248.838,269.887 249.5,267.681 250.098,265.449ZM216.823,265.991C216.844,265.661 216.881,265.327 216.931,264.989C217.26,262.783 218.038,260.619 219.269,258.497C219.208,258.508 219.146,258.519 219.085,258.53C216.164,259.051 213.798,259.25 211.988,259.136C210.143,259.02 208.396,258.62 206.745,257.937C205.085,257.251 203.865,256.584 203.078,255.95C202.307,255.328 201.446,254.509 200.495,253.493C197.971,250.793 196.976,247.693 197.497,244.198C197.803,242.143 198.499,240.123 199.589,238.141C199.316,238.208 199.048,238.272 198.785,238.332C196.018,238.963 193.755,239.163 191.996,238.95L189.181,246.452L193.977,254.57L184.8,253.892L181.418,258.158L196.505,270.363L216.823,265.991ZM95.955,263.598C95.955,263.598 93.726,264.232 93.726,264.232C94.485,265.959 94.443,268.037 93.413,269.845L96.72,269.979C96.72,269.979 94.896,267.246 94.896,267.246L95.955,263.598ZM169.743,249.334L176.007,252.188L179.241,263.569L169.743,249.334ZM137.657,250.424L144.568,246.216L145.391,238.864L151.685,243.658L159.242,241.481L156.745,250.011L161.037,256.48L152.508,256.069L147.568,261.394L144.979,253.804L137.657,250.424ZM249.843,254.753C249.938,254.855 250.004,254.954 250.01,255.064C249.932,255.606 249.598,256.094 249.051,256.559C248.387,257.122 247.429,257.633 246.183,258.105C246.18,258.106 246.178,258.107 246.175,258.108C242.159,259.696 238.055,259.427 233.859,257.327C236.915,255.567 240.015,254.404 243.161,253.843C244.86,253.54 246.287,253.47 247.442,253.646C248.484,253.805 249.29,254.162 249.843,254.753ZM93.065,254.373C92.686,254.936 92.218,255.437 91.68,255.854L93.838,257.628C93.838,257.628 93.065,254.373 93.065,254.373ZM187.654,129.409C187.905,129.947 188.143,130.489 188.367,131.036C190.258,135.642 190.959,140.296 190.475,144.997C189.988,149.724 188.2,153.948 185.107,157.669C181.81,161.636 178.011,163.931 173.726,164.583C169.904,165.164 166.046,164.49 162.155,162.544C162.86,165.555 162.901,168.586 162.278,171.638C161.552,175.197 159.936,178.49 157.422,181.514C155.453,183.884 153.263,185.764 150.855,187.157C148.438,188.555 145.888,189.452 143.204,189.85C140.489,190.253 137.65,189.834 134.688,188.577C131.772,187.339 128.988,185.31 126.342,182.48C126.216,182.345 126.092,182.202 125.97,182.052L122.306,192.398L129.863,203.515L134.01,201.427L135.422,189.809L143.481,197.28L153.309,194.521C154.05,191.81 155.488,189.163 157.631,186.585C160.09,183.626 163.276,181.29 167.191,179.583C171.11,177.875 175.069,177.179 179.067,177.49C183.144,177.806 186.378,179.262 188.78,181.832C190.619,183.8 191.666,185.811 191.95,187.851C192.241,189.947 191.599,191.975 189.981,193.921C187.901,196.424 185.134,197.775 181.672,197.96C178.302,198.14 175.152,197.581 172.221,196.287C169.526,195.097 167.262,193.669 165.427,192.006C164.695,192.642 164.03,193.318 163.435,194.035C162.25,195.46 161.497,196.865 161.195,198.259C160.922,199.514 161.205,200.597 162.055,201.506C162.738,202.237 163.602,202.9 164.644,203.501C165.711,204.117 167.135,204.678 168.911,205.192C170.683,205.704 172.902,205.825 175.566,205.574C177.91,205.352 180.403,204.799 183.045,203.916L198.765,195.752C198.771,195.75 198.776,195.747 198.782,195.744C199.463,195.414 200.053,195.526 200.555,196.063C200.555,196.063 205.383,201.228 205.383,201.228C205.658,201.522 205.762,201.886 205.652,202.331C205.552,202.733 205.303,203.024 204.889,203.181C204.889,203.181 204.49,203.397 204.491,203.397C205.206,203.504 205.882,203.67 206.52,203.892C207.85,204.357 208.816,204.847 209.427,205.341C210.014,205.816 210.704,206.475 211.494,207.32C212.99,208.92 213.708,210.752 213.659,212.811C213.611,214.85 212.948,216.635 211.674,218.168C210.452,219.639 208.912,220.925 207.052,222.022C207.041,222.029 207.029,222.035 207.018,222.041C201.593,224.828 197.786,226.854 195.598,228.118C193.5,229.33 192.108,230.323 191.442,231.125C190.946,231.722 190.729,232.182 191.085,232.563C191.331,232.826 191.768,232.972 192.369,233.07C193.504,233.256 195.142,233.2 197.284,232.92C199.903,232.577 202.642,231.962 205.501,231.076C207.333,229.589 209.43,228.329 211.793,227.299C215.712,225.591 219.671,224.895 223.669,225.205C227.746,225.522 230.98,226.978 233.382,229.548C235.198,231.491 236.145,233.431 236.269,235.345C236.394,237.281 235.686,239.212 234.101,241.12C232.726,242.774 230.956,243.737 228.789,244.005C226.536,244.283 224.878,243.787 223.785,242.618C222.753,241.514 222.709,240.531 223.392,239.71C223.492,239.589 223.633,239.507 223.788,239.479C227.192,238.878 229.461,237.683 230.538,235.791C230.54,235.787 230.543,235.784 230.545,235.78C230.945,235.108 230.912,234.501 230.409,233.962C229.426,232.911 227.601,232.607 224.968,232.879C222.129,233.173 219.084,234.145 215.831,235.784C212.587,237.418 209.987,239.405 208.037,241.751C206.846,243.184 206.061,244.659 205.693,246.179C205.363,247.541 205.58,248.664 206.395,249.536C207.068,250.255 207.921,250.864 208.949,251.367C210.023,251.892 211.433,252.365 213.177,252.792C214.913,253.217 217.094,253.251 219.721,252.911C221.406,252.694 223.179,252.317 225.037,251.784C226.845,250.333 228.908,249.101 231.228,248.09C235.146,246.382 239.105,245.686 243.104,245.996C247.18,246.313 250.414,247.769 252.817,250.339C252.898,250.426 252.977,250.512 253.055,250.6C253.727,245.524 254.074,240.345 254.074,235.085C254.074,188.581 226.943,148.363 187.654,129.409ZM177.771,247.63L179.977,246.275L180.242,243.924L182.271,245.453L184.683,244.775L183.889,247.511L185.242,249.569L182.534,249.452L180.947,251.158L180.094,248.718L177.771,247.63ZM19.892,243.913L30.396,239.854L39.892,245.33L30.696,251.158L20.154,246.913C20.055,245.921 19.967,244.919 19.892,243.913ZM85.767,245.33L71.954,250.362L62.099,245.33L72.204,240.111L85.767,245.33ZM152.772,198.742L150.596,205.25L155.861,214.22L145.892,213.72L140.422,219.337L153.743,230.337L177.446,224.453L168.771,246.775L175.154,243.424L175.802,234.426L183.007,240.159L189.347,238.398C188.581,238.174 187.944,237.914 187.434,237.621C186.484,237.074 185.518,236.282 184.541,235.237C183.161,233.76 182.541,232.027 182.68,230.038C182.813,228.117 183.657,226.196 185.241,224.291C186.412,222.881 187.673,221.697 189.023,220.735C190.342,219.795 192.929,218.338 196.8,216.365C200.926,214.07 203.631,212.183 204.894,210.675C205.184,210.328 205.391,210.01 205.506,209.711C205.614,209.429 205.628,209.177 205.504,208.954C204.765,208.213 203.283,207.9 201.096,207.873C198.689,207.842 195.808,208.435 192.451,209.635L172.027,220.244C172.021,220.247 172.016,220.25 172.01,220.253C171.308,220.594 170.741,220.474 170.297,219.999C170.297,219.999 165.469,214.833 165.469,214.833C165.194,214.539 165.09,214.175 165.201,213.73C165.29,213.369 165.491,213.083 165.806,212.872C165.827,212.858 165.848,212.846 165.87,212.835L167.935,211.762L167.673,211.742C165.789,211.581 163.992,211.126 162.281,210.378C160.565,209.627 159.309,208.919 158.504,208.264C157.713,207.621 156.842,206.793 155.893,205.777C153.927,203.674 152.888,201.328 152.772,198.742ZM90.909,245.299L90.892,245.226C90.821,245.263 90.748,245.297 90.675,245.33C90.767,245.374 90.859,245.418 90.949,245.466L90.909,245.299ZM136.951,215.603L134.158,214.25L133.128,238.953L124.099,244.982L114.747,230.777L121.159,213.484L107.513,216.397L113.805,208.336L131.216,209.631L135.804,211.22L136.951,215.603ZM108.423,237.6L102.159,237.308L98.513,241.218L96.601,235.629L91.221,233.158L96.278,230.041L96.897,224.63L101.543,228.16L107.101,226.542L105.276,232.835L108.423,237.6ZM33.617,215.144L45.803,224.221L44.798,234.574L35.216,230.049L33.617,215.144ZM68.374,215.144L65.894,229.603L57.193,234.572L57.247,224.607L68.374,215.144ZM64.079,143.141L70.546,145.608L72.309,151.812L72.104,167.459L61.28,174.605L73.22,179.604L77.192,191.927L84.455,182.341L94.748,183.163L94.574,185.811L78.604,196.25L83.984,199.367L80.191,200.339L72.897,194.369L71.956,203.573L68.783,205.8L68.77,205.788C66.245,203.605 62.358,203.809 60.085,206.234C60.052,206.269 60.022,206.305 59.993,206.34L57.193,209.706L57.193,202.293C57.193,198.979 54.444,196.242 50.997,196.242C47.547,196.242 44.798,198.979 44.798,202.293L44.798,209.706L41.998,206.34C41.969,206.305 41.939,206.269 41.906,206.234C39.633,203.809 35.746,203.605 33.221,205.788C31.676,207.124 30.977,209.024 31.152,210.871C29.641,209.796 27.649,209.456 25.722,210.131C22.578,211.23 20.81,214.7 21.769,217.88C21.783,217.926 21.796,217.97 21.813,218.015L23.325,222.142L20.466,220.486C24.353,189.233 40.563,161.778 64.079,143.141ZM81.367,214.368L80.453,215.505C80.529,216.287 80.46,217.092 80.222,217.88C80.209,217.926 80.195,217.97 80.178,218.015L78.666,222.142L85.066,218.437C86.073,217.855 87.185,217.602 88.282,217.649L88.425,215.19L81.367,214.368ZM85.514,207.014L88.102,200.839L96.601,204.074L99.043,213.808L89.278,205.925L89.132,206.044L88.308,210.955L85.514,207.014ZM82.514,210.544L80.985,208.221L81.867,205.193L79.19,205.955L76.956,204.28L76.662,206.868L74.192,208.398L76.81,209.574L77.123,210.504C77.62,210.767 78.073,211.095 78.475,211.475L79.486,210.398L82.514,210.544ZM146.862,208.692L143.215,208.544L141.127,210.807L140.01,207.573L136.892,206.132L139.834,204.309L140.185,201.192L142.862,203.219L146.098,202.31L145.039,205.955L146.862,208.692ZM103.629,192.104L104.248,186.693L108.894,190.222L114.453,188.605L112.601,194.897L115.777,199.663L109.482,199.367L105.835,203.281L103.923,197.691L98.543,195.22L103.629,192.104ZM185.806,186.247C185.901,186.348 185.968,186.447 185.974,186.557C185.896,187.099 185.562,187.587 185.015,188.052C184.351,188.615 183.393,189.126 182.147,189.599C182.144,189.6 182.141,189.601 182.138,189.602C178.123,191.189 174.018,190.92 169.823,188.82C172.878,187.06 175.979,185.898 179.125,185.336C180.823,185.034 182.25,184.963 183.406,185.14C184.448,185.299 185.254,185.656 185.806,186.247ZM77.897,171.429L78.337,167.43L81.778,170.016L85.896,168.84L84.543,173.488L86.866,177.018L82.22,176.782L79.544,179.693L78.132,175.546L74.133,173.723L77.897,171.429ZM150.543,149.659C146.854,151.813 143.142,153.924 139.408,155.994C135.09,158.387 130.994,160.421 127.119,162.096C126.589,162.325 126.065,162.54 125.547,162.74C125.594,162.818 125.639,162.921 125.669,163.051C125.716,163.248 125.747,163.59 125.747,164.079C125.747,164.66 125.775,165.343 125.829,166.127C125.88,166.867 126.427,167.915 126.639,168.832C127.341,171.867 133.366,179.624 136.827,179.432C139.628,179.277 142.237,179.189 144.688,177.807C147.198,176.391 149.533,174.378 151.698,171.774C154,169.004 155.341,166.317 155.693,163.697C156.031,161.173 155.697,158.973 154.666,157.101C154.118,156.607 153.646,156.148 153.252,155.726C151.869,154.247 149.59,151.456 150.543,149.659ZM122.872,176.039C122.111,173.908 121.59,171.795 121.388,170.358C120.979,167.456 121.287,165.295 122.217,163.858C120.123,164.449 118.131,164.786 116.243,164.872C114.631,164.946 113.186,164.773 111.907,164.358L105.19,163.989L99.925,169.899L109.924,179.399L122.872,176.039ZM94.514,161.341L96.985,162.165L98.159,168.871L95.955,167.105L95.131,178.694L90.337,172.399L94.514,161.341ZM83.074,163.666L76.485,157.665L83.337,148.607L95.69,149.489L95.338,154.195L88.573,158.167L92.865,160.636L83.074,163.666ZM106.1,159.665L103.07,159.548L101.308,161.429L100.396,158.724L97.779,157.519L100.248,156.018L100.544,153.43L102.778,155.108L105.455,154.343L104.571,157.371L106.1,159.665ZM75.665,135.043C76.512,134.523 77.364,134.016 78.223,133.519L79.749,134.667L84.19,133.374L82.72,138.431L85.251,142.255L80.22,142.02L77.309,145.137L75.78,140.668L71.456,138.668L75.543,136.168L75.665,135.043ZM153.862,80.436L179.889,104.287L180.419,105.288L180.29,105.606L180.195,106.039L180.189,106.092C174.413,104.148 168.461,102.581 162.366,101.421L161.821,100.432L161.261,99.409L160.126,97.318C160.038,97.141 159.95,96.995 159.89,96.847C157.125,91.759 155.303,86.083 153.862,80.436ZM126.011,79.759C123.982,85.819 121.482,91.818 117.923,97.024L117.894,97.024C117.835,97.141 117.775,97.229 117.687,97.318C117.658,97.406 117.57,97.523 117.452,97.671L117.042,98.249L116.246,99.381L115.61,100.266L115.274,100.721C108.993,101.722 102.856,103.153 96.893,104.984L96.631,104.2L98.278,101.641L126.011,79.759ZM140.465,49.848L140.627,49.852C142.334,49.909 143.98,50.645 145.127,51.938C146.303,53.174 146.951,54.849 146.862,56.556C146.803,58.291 146.038,59.908 144.803,61.086C143.509,62.26 141.863,62.879 140.128,62.819C138.421,62.762 136.775,62.026 135.628,60.733C134.452,59.497 133.804,57.82 133.864,56.115C133.952,54.35 134.717,52.763 135.95,51.587C137.096,50.519 138.581,49.913 140.141,49.852L140.465,49.848ZM212.533,14.49L212.739,14.493C220.061,14.64 222.354,22.1 218.297,30.998C205.399,42.147 189.145,48.573 172.115,49.219L171.713,49.233C178.065,33.087 191.329,20.618 207.857,15.296C209.586,14.744 211.148,14.488 212.533,14.49ZM70.673,9.257C72.254,9.253 74.061,9.626 76.074,10.442C92.16,16.971 104.454,30.352 109.63,46.91C92.543,45.117 76.633,37.47 64.545,25.293C61.224,16.382 63.823,9.274 70.673,9.257Z" style="fill:none;stroke:rgb(255,0,0);stroke-width:1px;"/>
    <path d="M153.505,147.925C153.784,147.934 154.706,149.686 154.958,149.956C158.7,153.959 162.672,155.858 166.902,155.59C171.149,155.322 175.018,153.044 178.538,148.807C180.612,146.312 181.985,143.674 182.652,140.892C182.34,140.983 181.197,140.64 180.861,140.281C179.622,138.955 177.657,138.569 174.995,138.995C172.114,139.457 167.61,140.401 164.028,142.199C160.757,143.842 157.249,145.751 153.505,147.925Z" style="fill:none;stroke:rgb(255,0,0);stroke-width:1px;"/>
    <path d="M182.952,135.921C182.866,132.321 181.605,129.218 178.862,125.605C166.253,120.753 152.598,118.02 138.331,117.839L138.265,117.881C135.809,119.453 133.773,121.209 132.158,123.151C130.593,125.035 129.658,126.874 129.378,128.681C129.116,130.372 129.529,131.811 130.633,132.992C132.138,134.601 134.209,135.177 136.831,134.775C139.51,134.365 141.472,133.455 142.69,131.99C143.091,131.507 143.509,131.427 143.814,131.498C144,131.542 144.185,131.645 144.345,131.84C144.508,132.039 144.669,132.405 144.768,132.948C145.143,134.49 144.773,135.959 143.621,137.345C141.434,139.977 138.179,141.607 133.835,142.191C129.453,142.781 125.799,141.504 122.868,138.369L122.868,138.369C120.465,135.798 119.348,132.18 119.576,127.497C119.728,124.384 120.533,121.472 121.993,118.76C112.212,119.996 102.802,122.44 93.918,125.938L90.279,137.638L96.043,146.373L96.424,144.019L102.984,150.225L107.414,149.032C107.688,148.534 107.997,148.079 108.341,147.666C108.928,146.96 109.501,146.463 110.051,146.161C110.919,145.684 111.537,145.828 111.894,146.21C111.946,146.266 112.027,146.369 112.074,146.548C112.109,146.679 112.147,146.989 112.169,147.48C112.184,147.818 112.265,148.092 112.448,148.288C113.197,149.089 113.989,149.71 114.829,150.148C115.664,150.583 116.916,150.798 118.577,150.833C120.318,150.869 122.374,150.566 124.746,149.931C127.166,149.284 130.338,148.116 134.262,146.429C138.209,144.733 142.745,142.532 147.871,139.828C156.428,135.266 163.307,132.696 168.498,132.092C173.888,131.465 180.248,133.029 182.952,135.921Z" style="fill:none;stroke:rgb(255,0,0);stroke-width:1px;"/>
</svg>
