<?xml version="1.0" encoding="UTF-8" standalone="no"?>
<!DOCTYPE svg PUBLIC "-//W3C//DTD SVG 1.1//EN" "http://www.w3.org/Graphics/SVG/1.1/DTD/svg11.dtd">
<svg width="100%" height="100%" viewBox="0 0 1123 794" version="1.1" xmlns="http://www.w3.org/2000/svg" xmlns:xlink="http://www.w3.org/1999/xlink" xml:space="preserve" xmlns:serif="http://www.serif.com/" style="fill-rule:evenodd;clip-rule:evenodd;stroke-linejoin:round;stroke-miterlimit:2;">
    <path d="M144.768,40.265C146.525,40.302 148.11,40.912 149.422,41.91C150.863,43.057 151.891,44.704 152.273,46.587C152.802,46.587 182.859,16.178 188.975,12.177C194.836,8.337 202.831,5.966 211.003,5.93C211.404,5.929 211.807,5.932 212.21,5.942C221.975,6.413 230.502,10.413 234.032,19.412C239.942,32.998 232.913,47.381 232.854,60.821C232.825,76.702 247.707,93.348 235.179,108.435C229.972,113.729 222.856,118.846 215.857,121.903L215.797,121.903L214.909,122.185L213.44,122.66C235.271,137.575 252.544,158.68 262.718,183.428L263.146,184.482L263.635,185.717L264.183,187.147L264.715,188.58L264.956,189.247L265.465,190.694L265.958,192.147L266.475,193.735L266.941,195.223L267.39,196.719L267.822,198.222L268.318,200.033L268.765,201.757L269.14,203.283L269.499,204.816L269.84,206.356L270.097,207.582L270.267,208.418L270.567,209.973L270.849,211.533L271.113,213.1L271.309,214.338L271.419,215.073L271.66,216.779L271.864,218.366L272.05,219.958L272.182,221.204L272.257,221.958L272.366,223.158L272.397,223.517L272.519,225.075L272.624,226.63L272.71,228.177L272.746,228.945L272.807,230.524L272.85,232.102C272.861,232.627 272.87,233.152 272.875,233.676L272.882,235.204L272.88,235.812C272.877,236.27 272.873,236.727 272.866,237.183L272.845,238.277C272.836,238.637 272.827,238.997 272.816,239.357L272.77,240.666L272.707,242.056L272.66,242.916C272.616,243.693 272.566,244.469 272.509,245.242L272.378,246.891L272.235,248.448L272.115,249.632L271.964,250.996L271.773,252.558L271.607,253.813L271.429,255.064L271.176,256.717L270.983,257.897L270.743,259.275L270.405,261.091L270.108,262.584L269.863,263.752L269.428,265.714L269.074,267.212L268.795,268.344L268.42,269.801L268.042,271.21L267.725,272.344L267.361,273.601L266.892,275.16L266.363,276.838L265.822,278.487L265.452,279.56L265.025,280.738L264.863,281.178C264.752,281.514 264.639,281.848 264.5,282.186C263.205,285.714 261.764,289.155 260.177,292.537C259.764,293.448 259.353,294.331 258.911,295.213C258.206,296.654 257.441,298.096 256.707,299.508C256.647,299.565 256.619,299.654 256.588,299.713C255.177,302.329 253.677,304.919 252.09,307.419L251.385,308.513L250.98,309.103L250.316,310.136L249.767,310.943L249.354,311.546L249.354,311.565C249.088,312.005 248.794,312.416 248.472,312.829C247.32,314.5 246.13,316.138 244.904,317.745L244.816,317.86C243.221,319.948 241.565,321.984 239.854,323.976L239.073,324.871L238.079,325.991L237.478,326.655L236.874,327.314L236.265,327.97L235.652,328.622L235.034,329.27L234.413,329.913L233.787,330.553L233.157,331.188L232.523,331.819L231.885,332.446L231.243,333.069L230.597,333.688L229.946,334.303L229.292,334.913L228.634,335.519L227.305,336.718L225.961,337.9L224.601,339.064L223.226,340.21L221.835,341.339L220.43,342.45L219.251,343.358L218.294,344.082L217.12,344.95L216.125,345.672L214.957,346.501L213.924,347.22L212.763,348.011L211.691,348.725L210.538,349.478L209.428,350.187L208.283,350.903L207.134,351.605L205.999,352.284L204.81,352.979L203.686,353.621L202.128,354.488L200.557,355.336L199.718,355.777L198.921,356.19L198.122,356.597L197.319,356.999L196.514,357.396L195.706,357.788L194.894,358.175L194.08,358.556L193.263,358.932L192.443,359.303L191.621,359.668L190.795,360.029L189.967,360.383L189.136,360.733L188.303,361.077L187.466,361.416L186.627,361.749L185.472,362.197L184.208,362.674L183.508,362.932C175.658,365.798 167.471,367.962 159.021,369.348L157.605,369.572L156.197,369.781L154.318,370.035L152.436,370.263L150.549,370.465L148.516,370.653L146.646,370.8L144.654,370.927L142.787,371.02L140.923,371.087L139.53,371.121L138.144,371.142L136.819,371.148L135.472,371.141L135.01,371.136L133.308,371.103L132.116,371.068L131.571,371.048C131.011,371.027 130.452,371.002 129.893,370.974L128.91,370.921L128.07,370.87L126.787,370.783L125.344,370.67L124.595,370.605L123.757,370.528L122.78,370.431L121.461,370.29L119.917,370.108L119.147,370.01L118.622,369.94C61.059,362.253 14.891,318.582 3.474,262.277L3.239,261.09L2.955,259.579L2.689,258.062L2.439,256.54L2.206,255.012L1.989,253.478L1.79,251.939L1.609,250.395L1.444,248.846L1.295,247.267L1.199,246.139L1.071,244.412L1.03,243.782L0.93,242.013L0.887,241.098L0.867,240.61L0.814,239.101L0.782,237.765L0.762,236.427L0.756,235.069L0.761,233.92L0.78,232.504L0.814,231.055L0.874,229.343L0.941,227.924L1.04,226.215L1.16,224.51L1.339,222.399L1.503,220.733L1.754,218.52L1.965,216.867L2.116,215.769L2.36,214.126L2.623,212.491L2.832,211.276L3.004,210.32L3.25,209.022L3.391,208.305L3.7,206.805L3.847,206.115L4.228,204.413L4.525,203.156L4.699,202.441L5.07,200.971L5.248,200.286L5.705,198.602L6.047,197.393L6.255,196.679L6.685,195.245L7.142,193.78L7.652,192.213L8.179,190.657L8.724,189.112L9.286,187.576L9.865,186.051L10.462,184.535L11.076,183.028L11.589,181.809L12.228,180.334L12.884,178.867L13.557,177.41L14.247,175.963L14.953,174.524L15.675,173.096L16.414,171.677L17.169,170.268L17.681,169.334L18.2,168.404L18.727,167.479L19.26,166.559L19.8,165.643L20.347,164.732L20.901,163.825L21.462,162.923L21.995,162.081C24.011,158.918 26.155,155.843 28.418,152.865L29.105,151.969L30.119,150.673L31.137,149.404L32.163,148.156L33.2,146.924L34.249,145.708L35.309,144.506L36.64,143.037L37.833,141.756L39.206,140.322L40.549,138.958L41.845,137.678L43.198,136.376L44.743,134.932L46.31,133.513L47.5,132.464L48.702,131.429L49.916,130.407L51.142,129.4L52.38,128.406L53.63,127.427L54.892,126.462L56.165,125.511L57.449,124.575L58.745,123.654L60.052,122.747L61.369,121.855L62.698,120.978L64.037,120.117L64.936,119.551L65.84,118.992C65.398,118.817 65.044,118.669 64.75,118.492L64.722,118.492C55.281,115.374 48.341,108.758 41.958,101.287C30.577,85.318 46.666,69.791 47.751,53.967C48.723,40.557 42.782,25.706 49.694,12.56C53.84,3.853 62.664,0.531 72.427,0.768C81.014,1.208 89.338,4.267 95.161,8.707C107.57,18.236 119.159,31.999 128.776,45.146C128.776,44.116 130.394,42.292 132.157,41.293C133.276,40.617 134.598,40.263 136.01,40.263L144.597,40.263L144.768,40.265ZM233.106,301.981L233,302.134C230.483,303.681 227.993,305.253 225.474,306.802C223.721,307.892 224.466,310.555 226.475,310.623C225.699,311.543 224.907,312.453 224.102,313.349L223.767,313.36C222.62,313.389 221.681,314.328 221.65,315.475C221.645,315.641 221.659,315.803 221.69,315.957C200.328,338.368 170.192,352.34 136.819,352.34C129.603,352.34 122.539,351.687 115.679,350.436L134.186,327.506L164.772,329.681L159.508,320.888L165.184,312.093L175.802,312.975L170.243,303.566L173.565,295.625L181.093,299.3L186.535,320.035L200.475,303.418L218.297,304.448C218.326,304.8 218.445,305.153 218.65,305.447C219.327,306.417 220.62,306.683 221.621,306.066C224.267,304.448 226.915,302.799 229.591,301.155C230.762,301.438 231.935,301.697 233.106,301.981ZM107.895,341.033L113.364,348.678L110.159,337.003L107.895,341.033ZM104.571,345.769L100.63,345.592L99.878,346.393C99.065,346.123 98.255,345.844 97.449,345.556L97.102,344.532L93.718,342.975L96.925,341.004L97.306,337.591L100.219,339.797L103.749,338.798L102.571,342.768L104.571,345.769ZM85.131,273.303L79.354,270.4L80.178,272.648C80.193,272.692 80.209,272.736 80.222,272.78C81.181,275.96 79.411,279.432 76.27,280.531C74.342,281.206 72.35,280.866 70.84,279.792C71.014,281.638 70.315,283.537 68.77,284.872C67.596,285.888 66.126,286.394 64.662,286.394C62.977,286.394 61.301,285.725 60.085,284.426C60.052,284.392 60.022,284.357 59.993,284.321L57.193,280.956L57.193,288.369C57.193,291.684 54.444,294.418 50.997,294.418C47.547,294.418 44.798,291.684 44.798,288.369L44.798,280.956L41.998,284.321C41.969,284.357 41.939,284.392 41.906,284.426C39.633,286.853 35.746,287.057 33.221,284.874L33.221,284.872C31.676,283.537 30.977,281.638 31.152,279.792C30.457,280.285 29.66,280.624 28.814,280.779C39.992,307.142 60.547,328.582 86.29,340.908L91.19,337.739L92.396,325.651L101.189,333.062L108.66,330.739L105.749,320.828L76.779,308.771L84.691,302.624L82.543,295.744L74.367,291.949L81.926,286.273L82.749,277.684L87.308,281.333L85.131,273.303ZM117.923,310.182L108.954,306.066L117.395,300.861L118.423,291.83L126.187,297.713L135.451,295.037L132.392,305.535L137.657,313.475L127.187,312.975L121.099,319.533L117.923,310.182ZM158.478,319.476L151.155,307.801L156.126,310.066L158.478,319.476ZM156.891,305.007L159.832,303.212L160.184,300.067L162.889,302.125L166.096,301.183L165.036,304.83L166.861,307.595L163.243,307.419L161.125,309.711L160.007,306.448L156.891,305.007ZM169.832,294.508L163.95,296.566L155.684,289.92L154.539,300.772L148.686,303.77L158.714,273.038L151.862,274.421L157.803,267.421L179.124,269.362L177.948,279.302L160.979,290.508L169.832,294.508ZM223.767,299.771C222.62,300.476 221.444,301.212 220.268,301.948L218.827,299.713C219.267,299.448 219.709,299.183 220.151,298.889C221.356,299.183 222.561,299.477 223.767,299.771ZM91.073,297.625L88.014,301.654L94.543,297.832L91.073,297.625ZM233.597,268.036C233.445,268.461 233.426,268.937 233.561,269.393C233.915,270.626 234.266,271.833 234.65,273.038C234.149,272.774 233.649,272.509 233.179,272.244C232.12,271.685 230.856,272.098 230.356,273.186C229.885,274.216 230.296,275.48 231.296,276.039C232.973,276.95 234.65,277.832 236.355,278.744C236.708,279.949 237.06,281.125 237.414,282.332C235.855,281.479 234.297,280.656 232.737,279.803C231.678,279.244 230.414,279.657 229.914,280.745C229.414,281.773 229.854,283.068 230.856,283.596C233.619,285.068 236.355,286.567 239.12,288.037C239.398,288.992 239.678,289.929 239.958,290.875L239.692,291.362C237.18,290.008 234.692,288.656 232.178,287.303C230.296,286.304 228.325,288.419 229.414,290.214C231.002,292.802 232.591,295.39 234.178,297.978C232.973,297.682 231.737,297.39 230.531,297.123C228.915,294.449 227.268,291.772 225.65,289.124C225.032,288.125 223.738,287.802 222.737,288.331C221.681,288.89 221.356,290.183 221.975,291.213C222.885,292.712 223.798,294.214 224.738,295.744C223.533,295.448 222.326,295.154 221.091,294.862C220.12,293.244 219.121,291.624 218.12,289.979C217.503,289.009 216.208,288.655 215.209,289.213C214.15,289.772 213.827,291.067 214.444,292.068C214.709,292.537 215.003,293.008 215.297,293.478C215.092,293.448 214.886,293.39 214.679,293.332L210.092,286.304L216.199,269.57C216.354,269.668 216.507,269.756 216.659,269.836C217.551,270.306 218.903,270.62 220.714,270.78C222.526,270.94 224.899,270.623 227.834,269.829C229.507,269.377 231.428,268.779 233.597,268.036ZM202.504,293.509L195.447,293.184L191.358,297.567L189.212,291.301L183.182,288.507L188.858,285.008L189.565,278.948L194.77,282.891L201.006,281.098L198.946,288.154L202.504,293.509ZM92.631,293.39L89.278,293.213L87.308,295.331L86.279,292.331L83.396,291.007L86.132,289.332L86.455,286.419L88.926,288.302L91.926,287.449L90.927,290.83L92.631,293.39ZM95.661,275.126L103.66,275.774L102.836,292.331L98.924,294.566L95.807,289.772L98.543,281.596L89.338,283.271L95.661,275.126ZM253.834,242.647C253.096,254.211 250.68,265.321 246.825,275.733L246.796,275.714C245.766,275.096 244.5,275.42 243.912,276.479C243.09,278.039 242.236,279.569 241.383,281.125C241.03,279.949 240.678,278.744 240.325,277.569L243.059,272.538C243.589,271.508 243.266,270.215 242.265,269.627C241.266,269.01 239.973,269.331 239.414,270.392C239.149,270.861 238.885,271.362 238.618,271.833C238.267,270.626 237.884,269.42 237.531,268.215C237.375,267.689 237.026,267.253 236.581,266.979C237.34,266.703 238.125,266.411 238.934,266.105C239.164,266.028 239.284,265.833 239.295,265.521C239.295,265.521 239.335,265.025 239.415,264.033C239.495,263.041 239.54,262.389 239.551,262.077C239.606,261.813 239.496,261.695 239.223,261.726C233.933,263.611 229.473,264.821 225.843,265.356C222.213,265.891 220.048,265.783 219.347,265.034C218.734,264.378 218.854,263.536 219.707,262.509C220.893,261.083 223.087,259.389 226.289,257.427C229.492,255.465 236.622,251.615 247.678,245.878C247.864,245.753 247.984,245.585 248.036,245.372C248.089,245.159 248.05,244.982 247.919,244.842L247.022,243.749C248.129,244.557 248.671,244.111 250.313,243.927C251.621,243.781 252.795,243.354 253.834,242.647ZM98.806,255.804L106.454,245.776L120.717,247.071L112.218,252.716L135.51,262.245L139.303,278.155L128.657,280.979L104.542,260.512L103.66,269.596L100.984,266.009L104.69,255.07L98.806,255.804ZM33.617,275.518L35.978,260.906L44.798,256.088L45.284,265.759L33.617,275.518ZM68.374,275.516L56.423,266.816L57.193,256.088L66.785,261.932L68.374,275.516ZM213.203,266.77L196.505,270.363L181.418,258.158L184.8,253.892L193.977,254.57L189.181,246.452L191.242,240.959C191.809,241.084 192.435,241.185 193.122,241.261C194.977,241.468 197.405,241.21 200.406,240.486C200.511,240.461 200.617,240.435 200.724,240.408C199.238,242.285 198.378,244.387 198.145,246.716C197.901,249.15 198.458,251.093 199.816,252.545C200.955,253.763 202.014,254.654 202.994,255.217C203.974,255.781 205.391,256.166 207.247,256.372C209.102,256.579 211.53,256.321 214.531,255.597L214.532,255.597C214.496,255.64 214.46,255.683 214.424,255.726C212.859,257.608 212.026,259.68 211.925,261.943C211.84,263.836 212.266,265.445 213.203,266.77ZM95.955,263.598L93.726,264.232C94.485,265.959 94.443,268.037 93.413,269.845L96.72,269.979L94.896,267.246L95.955,263.598ZM169.743,249.334L176.007,252.188L179.241,263.569L169.743,249.334ZM137.657,250.424L144.568,246.216L145.391,238.864L151.685,243.658L159.242,241.481L156.745,250.011L161.037,256.48L152.508,256.069L147.568,261.394L144.979,253.804L137.657,250.424ZM93.065,254.373C92.686,254.936 92.218,255.437 91.68,255.854L93.838,257.628L93.065,254.373ZM19.892,243.913L30.396,239.854L39.892,245.33L30.696,251.158L20.154,246.913C20.055,245.921 19.967,244.919 19.892,243.913ZM177.771,247.63L179.977,246.275L180.242,243.924L182.271,245.453L184.683,244.775L183.889,247.511L185.242,249.569L182.534,249.452L180.947,251.158L180.094,248.718L177.771,247.63ZM200.48,136.623C232.65,157.474 253.98,193.669 254.074,234.813C253.117,234.351 251.997,234.192 250.714,234.335C249.073,234.518 247.643,235.144 246.424,236.211C245.206,237.279 243.488,239.662 243.833,240.243L242.663,239.219C242.356,238.891 241.995,238.828 241.579,239.03C234.142,242.903 228.569,245.892 224.861,247.999C220.002,249.646 215.978,250.588 212.789,250.824C209.35,251.079 207.083,250.62 205.988,249.449C205.331,248.746 205.43,247.881 206.283,246.855C207.563,245.314 209.537,243.735 212.206,242.118C214.874,240.5 221.067,237.13 230.785,232.008L234.398,235.873C234.705,236.201 235.066,236.264 235.482,236.063L239.022,234.192C239.208,234.068 239.327,233.899 239.38,233.687C239.433,233.474 239.394,233.297 239.262,233.156L235.78,229.431C238.972,227.781 244.455,224.917 252.228,220.84C252.458,220.763 252.589,220.606 252.62,220.37C252.651,220.133 252.6,219.945 252.469,219.804L247.279,214.252C246.972,213.924 246.587,213.889 246.124,214.148C237.982,218.37 232.454,221.239 229.539,222.755L226.911,219.943C226.605,219.615 226.244,219.552 225.828,219.754L222.216,221.71C222.078,221.777 221.982,221.917 221.929,222.13C221.876,222.343 221.916,222.52 222.047,222.66L224.544,225.331C218.124,228.686 213.33,231.269 210.163,233.081C205.56,234.609 201.727,235.486 198.664,235.713C195.225,235.968 192.959,235.51 191.864,234.338C191.207,233.636 191.305,232.771 192.158,231.744C193.438,230.204 195.413,228.625 198.081,227.007C200.749,225.389 206.942,222.019 216.66,216.897L220.273,220.763C220.58,221.091 220.941,221.154 221.357,220.952L224.897,219.082C225.083,218.957 225.203,218.789 225.255,218.576C225.308,218.363 225.269,218.186 225.138,218.046L221.656,214.321C224.848,212.67 230.33,209.807 238.104,205.73C238.334,205.652 238.464,205.495 238.495,205.259C238.526,205.023 238.476,204.834 238.344,204.694L233.154,199.141C232.848,198.813 232.463,198.779 231.999,199.037C223.857,203.259 218.329,206.128 215.415,207.644L212.787,204.832C212.48,204.505 212.119,204.441 211.703,204.643L208.092,206.599C207.953,206.666 207.857,206.806 207.805,207.019C207.752,207.232 207.791,207.409 207.922,207.549L210.419,210.22C204.062,213.542 199.299,216.108 196.132,217.917C193.24,218.875 190.511,219.475 187.943,219.718C184.935,220.002 182.43,219.855 180.429,219.276C178.427,218.698 176.825,218.062 175.623,217.368C174.421,216.675 173.425,215.906 172.637,215.063C171.542,213.891 171.17,212.497 171.522,210.879C171.873,209.262 172.737,207.626 174.111,205.971C174.917,205.002 175.835,204.097 176.863,203.258C178.885,205.205 181.44,206.86 184.527,208.223C187.614,209.586 190.932,210.172 194.482,209.983C198.032,209.793 200.874,208.415 203.007,205.848C204.619,203.908 205.28,201.894 204.989,199.804C204.698,197.715 203.611,195.663 201.728,193.648C199.232,190.978 195.865,189.478 191.629,189.149C187.393,188.82 183.2,189.561 179.048,191.37C175.25,193.026 172.097,195.237 169.591,198.006C169.388,197.944 169.172,197.903 168.948,197.886C165.382,199.474 162.195,199.917 159.48,198.936C159.861,198.742 160.238,198.537 160.613,198.32C163.163,196.845 165.481,194.852 167.567,192.342C170.222,189.148 171.933,185.671 172.7,181.911C173.466,178.151 173.278,174.42 172.135,170.718C176.722,173.363 181.265,174.343 185.763,173.659C190.261,172.975 194.241,170.551 197.702,166.387C200.973,162.451 202.866,157.983 203.381,152.983C203.895,147.984 203.148,143.035 201.137,138.136C200.929,137.628 200.71,137.124 200.48,136.623ZM85.767,245.33L71.954,250.362L62.099,245.33L72.204,240.111L85.767,245.33ZM187.287,238.97L183.007,240.159L175.802,234.426L175.154,243.424L168.771,246.775L177.349,224.705C178.003,224.835 178.669,224.929 179.344,224.986C181.315,225.154 183.865,224.973 186.995,224.442C187.126,224.42 187.258,224.397 187.39,224.373C187.187,224.596 186.991,224.82 186.804,225.046C185.192,226.985 184.264,229.172 184.02,231.605C183.777,234.039 184.334,235.982 185.691,237.434C186.242,238.023 186.773,238.535 187.287,238.97ZM90.909,245.299L90.892,245.226C90.821,245.263 90.748,245.297 90.675,245.33C90.767,245.374 90.859,245.418 90.949,245.466L90.909,245.299ZM136.951,215.603L134.158,214.25L133.128,238.953L124.099,244.982L114.747,230.777L121.159,213.484L107.513,216.397L113.805,208.336L131.216,209.631L135.804,211.22L136.951,215.603ZM108.423,237.6L102.159,237.308L98.513,241.218L96.601,235.629L91.221,233.158L96.278,230.041L96.897,224.63L101.543,228.16L107.101,226.542L105.276,232.835L108.423,237.6ZM33.617,215.144L45.803,224.221L44.798,234.574L35.216,230.049L33.617,215.144ZM68.374,215.144L65.894,229.603L57.193,234.572L57.247,224.607L68.374,215.144ZM176.857,224.6L153.743,230.337L140.422,219.337L145.892,213.72L155.861,214.22L150.596,205.25L151.937,201.238C152.139,201.218 152.341,201.192 152.542,201.162C152.968,201.099 153.39,201.024 153.81,200.937C155.853,202.413 160.73,204.791 164.816,205.689C164.391,206.849 164.091,208.022 163.914,209.207C163.381,212.785 164.406,215.957 166.99,218.721C167.998,219.799 168.921,220.679 169.76,221.361C170.6,222.044 171.914,222.776 173.704,223.56C174.726,224.007 175.777,224.353 176.857,224.6ZM81.367,214.368L80.453,215.505C80.529,216.287 80.46,217.092 80.222,217.88C80.209,217.926 80.195,217.97 80.178,218.015L78.666,222.142L85.066,218.437C86.073,217.855 87.185,217.602 88.282,217.649L88.425,215.19L81.367,214.368ZM64.079,143.141L70.546,145.608L72.309,151.812L72.104,167.459L61.28,174.605L73.22,179.604L77.192,191.927L84.455,182.341L94.748,183.163L94.574,185.811L78.604,196.25L83.984,199.367L80.191,200.339L72.897,194.369L71.956,203.573L68.783,205.8L68.77,205.788C66.245,203.605 62.358,203.809 60.085,206.234C60.052,206.269 60.022,206.305 59.993,206.34L57.193,209.706L57.193,202.293C57.193,198.979 54.444,196.242 50.997,196.242C47.547,196.242 44.798,198.979 44.798,202.293L44.798,209.706L41.998,206.34C41.969,206.305 41.939,206.269 41.906,206.234C39.633,203.809 35.746,203.605 33.221,205.788C31.676,207.124 30.977,209.024 31.152,210.871C29.641,209.796 27.649,209.456 25.722,210.131C22.578,211.23 20.81,214.7 21.769,217.88C21.783,217.926 21.796,217.97 21.813,218.015L23.325,222.142L20.466,220.486C24.353,189.233 40.563,161.778 64.079,143.141ZM85.514,207.014L88.102,200.839L96.601,204.074L99.043,213.808L89.278,205.925L89.132,206.044L88.308,210.955L85.514,207.014ZM82.514,210.544L80.985,208.221L81.867,205.193L79.19,205.955L76.956,204.28L76.662,206.868L74.192,208.398L76.81,209.574L77.123,210.504C77.62,210.767 78.073,211.095 78.475,211.475L79.486,210.398L82.514,210.544ZM146.862,208.692L143.215,208.544L141.127,210.807L140.01,207.573L136.892,206.132L139.834,204.309L140.185,201.192L142.862,203.219L146.098,202.31L145.039,205.955L146.862,208.692ZM135.815,117.834C134.764,118.779 133.798,119.782 132.917,120.842C129.646,124.778 127.891,129.179 127.654,134.044C127.417,138.909 128.546,142.677 131.043,145.347C134.065,148.58 137.835,149.893 142.353,149.284C146.872,148.676 150.269,147.003 152.545,144.265C153.635,142.952 154.001,141.566 153.643,140.105C153.453,139.04 153.121,138.792 152.647,139.363C151.225,141.074 148.949,142.169 145.821,142.648C142.692,143.127 140.23,142.406 138.435,140.485C137.077,139.033 136.559,137.266 136.881,135.186C137.203,133.106 138.265,130.982 140.067,128.815C141.869,126.647 144.14,124.685 146.881,122.93C149.28,121.394 151.981,120.161 154.985,119.231C168.253,121.298 180.79,125.595 192.203,131.727C195.187,135.727 196.726,139.72 196.821,143.703C196.942,148.735 195.224,153.39 191.668,157.669C187.685,162.461 183.293,165.008 178.49,165.312C173.686,165.616 169.161,163.495 164.912,158.951C164.518,158.529 164.055,158.788 163.523,159.727C162.647,161.377 162.845,162.882 164.115,164.24C164.553,164.709 165.08,165.219 165.697,165.771C166.938,167.961 167.36,170.54 166.961,173.509C166.563,176.477 165.06,179.53 162.452,182.668C160.034,185.577 157.424,187.822 154.62,189.403C151.817,190.984 148.82,191.604 145.629,191.262C142.439,190.92 139.529,189.343 136.901,186.532C135.807,185.36 134.974,184.147 134.405,182.891C133.835,181.635 133.52,180.57 133.46,179.697C133.399,178.824 133.369,178.064 133.368,177.418C133.368,176.771 133.324,176.4 133.237,176.307C133.062,176.119 132.767,176.1 132.353,176.25C131.939,176.4 131.542,176.703 131.163,177.159C129.978,178.586 129.613,180.916 130.068,184.151C130.523,187.387 132.109,190.457 134.824,193.362L134.971,193.517L134.01,201.427L129.863,203.515L122.306,192.398L124.802,185.348L118.768,181.963L114.896,178.109L109.924,179.399L99.925,169.899L105.19,163.989L112.757,164.405C112.7,167.155 113.455,169.369 115.022,171.045C116.993,173.154 119.741,174.128 123.267,173.966C126.794,173.805 130.655,172.818 134.852,171.003C139.049,169.189 143.487,166.985 148.165,164.392C152.843,161.8 157.49,159.146 162.104,156.431C166.718,153.716 171.014,151.36 174.99,149.364C178.966,147.367 182.553,146.112 185.751,145.6C188.948,145.087 191.292,145.627 192.781,147.221C193.087,147.549 193.367,147.362 193.618,146.661C194.114,145.467 193.858,144.332 192.851,143.254C190.048,140.255 185.852,139.081 180.265,139.731C174.678,140.381 167.279,143.162 158.068,148.072C152.468,151.026 147.513,153.43 143.201,155.283C138.889,157.136 135.403,158.418 132.744,159.13C130.084,159.841 127.779,160.176 125.827,160.135C123.875,160.095 122.408,159.819 121.426,159.307C120.445,158.796 119.516,158.072 118.64,157.135C118.333,156.807 118.167,156.36 118.142,155.793C118.116,155.227 118.081,154.92 118.037,154.873C117.818,154.639 117.442,154.668 116.91,154.961C116.377,155.253 115.827,155.741 115.258,156.426C114.045,157.885 113.269,159.849 112.93,162.32L109.747,157.196L112.042,147.785L102.984,150.225L96.424,144.019L96.043,146.373L90.279,137.638L93.918,125.938C106.917,120.819 121.043,117.957 135.815,117.834ZM199.551,197.462C198.15,195.963 195.506,195.56 191.621,196.253C187.735,196.946 183.912,198.459 180.152,200.794C185.319,203.736 190.367,204.233 195.295,202.285C198.195,201.185 199.74,199.873 199.929,198.352C199.94,198.04 199.814,197.743 199.551,197.462ZM103.629,192.104L104.248,186.693L108.894,190.222L114.453,188.605L112.601,194.897L115.777,199.663L109.482,199.367L105.835,203.281L103.923,197.691L98.543,195.22L103.629,192.104ZM77.897,171.429L78.337,167.43L81.778,170.016L85.896,168.84L84.543,173.488L86.866,177.018L82.22,176.782L79.544,179.693L78.132,175.546L74.133,173.723L77.897,171.429ZM94.514,161.341L96.985,162.165L98.159,168.871L95.955,167.105L95.131,178.694L90.337,172.399L94.514,161.341ZM83.074,163.666L76.485,157.665L83.337,148.607L95.69,149.489L95.338,154.195L88.573,158.167L92.865,160.636L83.074,163.666ZM106.1,159.665L103.07,159.548L101.308,161.429L100.396,158.724L97.779,157.519L100.248,156.018L100.544,153.43L102.778,155.108L105.455,154.343L104.571,157.371L106.1,159.665ZM75.665,135.043C76.512,134.523 77.364,134.016 78.223,133.519L79.749,134.667L84.19,133.374L82.72,138.431L85.251,142.255L80.22,142.02L77.309,145.137L75.78,140.668L71.456,138.668L75.543,136.168L75.665,135.043ZM153.862,80.436L179.889,104.287L180.419,105.288L180.29,105.606L180.195,106.039L180.189,106.092C174.413,104.148 168.461,102.581 162.366,101.421L161.821,100.432L161.261,99.409L160.126,97.318C160.038,97.141 159.95,96.995 159.89,96.847C157.125,91.759 155.303,86.083 153.862,80.436ZM126.011,79.759C123.982,85.819 121.482,91.818 117.923,97.024L117.894,97.024C117.835,97.141 117.775,97.229 117.687,97.318C117.658,97.406 117.57,97.523 117.452,97.671L117.042,98.249L116.246,99.381L115.61,100.266L115.274,100.721C108.993,101.722 102.856,103.153 96.893,104.984L96.631,104.2L98.278,101.641L126.011,79.759ZM140.465,49.848L140.627,49.852C142.334,49.909 143.98,50.645 145.127,51.938C146.303,53.174 146.951,54.849 146.862,56.556C146.803,58.291 146.038,59.908 144.803,61.086C143.509,62.26 141.863,62.879 140.128,62.819C138.421,62.762 136.775,62.026 135.628,60.733C134.452,59.497 133.804,57.82 133.864,56.115C133.952,54.35 134.717,52.763 135.95,51.587C137.096,50.519 138.581,49.913 140.141,49.852L140.465,49.848ZM212.533,14.49L212.739,14.493C220.061,14.64 222.354,22.1 218.297,30.998C205.399,42.147 189.145,48.573 172.115,49.219L171.713,49.233C178.065,33.087 191.329,20.618 207.857,15.296C209.586,14.744 211.148,14.488 212.533,14.49ZM70.673,9.257C72.254,9.253 74.061,9.626 76.074,10.442C92.16,16.971 104.454,30.352 109.63,46.91C92.543,45.117 76.633,37.47 64.545,25.293C61.224,16.382 63.823,9.274 70.673,9.257Z" style="fill:none;stroke:rgb(255,0,0);stroke-width:1px;"/>
</svg>
