<?xml version="1.0" encoding="UTF-8" standalone="no"?>
<!DOCTYPE svg PUBLIC "-//W3C//DTD SVG 1.1//EN" "http://www.w3.org/Graphics/SVG/1.1/DTD/svg11.dtd">
<svg width="100%" height="100%" viewBox="0 0 1123 794" version="1.1" xmlns="http://www.w3.org/2000/svg" xmlns:xlink="http://www.w3.org/1999/xlink" xml:space="preserve" xmlns:serif="http://www.serif.com/" style="fill-rule:evenodd;clip-rule:evenodd;stroke-linejoin:round;stroke-miterlimit:2;">
    <path d="M144.768,40.265C146.525,40.302 148.11,40.912 149.422,41.91C150.863,43.057 151.891,44.704 152.273,46.587C152.802,46.587 182.859,16.178 188.975,12.177C194.836,8.337 202.831,5.966 211.003,5.93C211.404,5.929 211.807,5.932 212.21,5.942C221.975,6.413 230.502,10.413 234.032,19.412C239.942,32.998 232.913,47.381 232.854,60.821C232.825,76.702 247.707,93.348 235.179,108.435C229.972,113.729 222.856,118.846 215.857,121.903L215.797,121.903L214.909,122.185L213.44,122.66C235.271,137.575 252.544,158.68 262.718,183.428L263.146,184.482L263.635,185.717L264.183,187.147L264.715,188.58L264.956,189.247L265.465,190.694L265.958,192.147L266.475,193.735L266.941,195.223L267.39,196.719L267.822,198.222L268.318,200.033L268.765,201.757L269.14,203.283L269.499,204.816L269.84,206.356L270.097,207.582L270.267,208.418L270.567,209.973L270.849,211.533L271.113,213.1L271.309,214.338L271.419,215.073L271.66,216.779L271.864,218.366L272.05,219.958L272.182,221.204L272.257,221.958L272.366,223.158L272.397,223.517L272.519,225.075L272.624,226.63L272.71,228.177L272.746,228.945L272.807,230.524L272.85,232.102C272.861,232.627 272.87,233.152 272.875,233.676L272.882,235.204L272.88,235.812C272.877,236.27 272.873,236.727 272.866,237.183L272.845,238.277C272.836,238.637 272.827,238.997 272.816,239.357L272.77,240.666L272.707,242.056L272.66,242.916C272.616,243.693 272.566,244.469 272.509,245.242L272.378,246.891L272.235,248.448L272.115,249.632L271.964,250.996L271.773,252.558L271.607,253.813L271.429,255.064L271.176,256.717L270.983,257.897L270.743,259.275L270.405,261.091L270.108,262.584L269.863,263.752L269.428,265.714L269.074,267.212L268.795,268.344L268.42,269.801L268.042,271.21L267.725,272.344L267.361,273.601L266.892,275.16L266.363,276.838L265.822,278.487L265.452,279.56L265.025,280.738L264.863,281.178C264.752,281.514 264.639,281.848 264.5,282.186C263.205,285.714 261.764,289.155 260.177,292.537C259.764,293.448 259.353,294.331 258.911,295.213C258.206,296.654 257.441,298.096 256.707,299.508C256.647,299.565 256.619,299.654 256.588,299.713C255.177,302.329 253.677,304.919 252.09,307.419L251.385,308.513L250.98,309.103L250.316,310.136L249.767,310.943L249.354,311.546L249.354,311.565C249.088,312.005 248.794,312.416 248.472,312.829C247.32,314.5 246.13,316.138 244.904,317.745L244.816,317.86C243.221,319.948 241.565,321.984 239.854,323.976L239.073,324.871L238.079,325.991L237.478,326.655L236.874,327.314L236.265,327.97L235.652,328.622L235.034,329.27L234.413,329.913L233.787,330.553L233.157,331.188L232.523,331.819L231.885,332.446L231.243,333.069L230.597,333.688L229.946,334.303L229.292,334.913L228.634,335.519L227.305,336.718L225.961,337.9L224.601,339.064L223.226,340.21L221.835,341.339L220.43,342.45L219.251,343.358L218.294,344.082L217.12,344.95L216.125,345.672L214.957,346.501L213.924,347.22L212.763,348.011L211.691,348.725L210.538,349.478L209.428,350.187L208.283,350.903L207.134,351.605L205.999,352.284L204.81,352.979L203.686,353.621L202.128,354.488L200.557,355.336L199.718,355.777L198.921,356.19L198.122,356.597L197.319,356.999L196.514,357.396L195.706,357.788L194.894,358.175L194.08,358.556L193.263,358.932L192.443,359.303L191.621,359.668L190.795,360.029L189.967,360.383L189.136,360.733L188.303,361.077L187.466,361.416L186.627,361.749L185.472,362.197L184.208,362.674L183.508,362.932C175.658,365.798 167.471,367.962 159.021,369.348L157.605,369.572L156.197,369.781L154.318,370.035L152.436,370.263L150.549,370.465L148.516,370.653L146.646,370.8L144.654,370.927L142.787,371.02L140.923,371.087L139.53,371.121L138.144,371.142L136.819,371.148L135.472,371.141L135.01,371.136L133.308,371.103L132.116,371.068L131.571,371.048C131.011,371.027 130.452,371.002 129.893,370.974L128.91,370.921L128.07,370.87L126.787,370.783L125.344,370.67L124.595,370.605L123.757,370.528L122.78,370.431L121.461,370.29L119.917,370.108L119.147,370.01L118.622,369.94C61.059,362.253 14.891,318.582 3.474,262.277L3.239,261.09L2.955,259.579L2.689,258.062L2.439,256.54L2.206,255.012L1.989,253.478L1.79,251.939L1.609,250.395L1.444,248.846L1.295,247.267L1.199,246.139L1.071,244.412L1.03,243.782L0.93,242.013L0.887,241.098L0.867,240.61L0.814,239.101L0.782,237.765L0.762,236.427L0.756,235.069L0.761,233.92L0.78,232.504L0.814,231.055L0.874,229.343L0.941,227.924L1.04,226.215L1.16,224.51L1.339,222.399L1.503,220.733L1.754,218.52L1.965,216.867L2.116,215.769L2.36,214.126L2.623,212.491L2.832,211.276L3.004,210.32L3.25,209.022L3.391,208.305L3.7,206.805L3.847,206.115L4.228,204.413L4.525,203.156L4.699,202.441L5.07,200.971L5.248,200.286L5.705,198.602L6.047,197.393L6.255,196.679L6.685,195.245L7.142,193.78L7.652,192.213L8.179,190.657L8.724,189.112L9.286,187.576L9.865,186.051L10.462,184.535L11.076,183.028L11.589,181.809L12.228,180.334L12.884,178.867L13.557,177.41L14.247,175.963L14.953,174.524L15.675,173.096L16.414,171.677L17.169,170.268L17.681,169.334L18.2,168.404L18.727,167.479L19.26,166.559L19.8,165.643L20.347,164.732L20.901,163.825L21.462,162.923L21.995,162.081C24.011,158.918 26.155,155.843 28.418,152.865L29.105,151.969L30.119,150.673L31.137,149.404L32.163,148.156L33.2,146.924L34.249,145.708L35.309,144.506L36.64,143.037L37.833,141.756L39.206,140.322L40.549,138.958L41.845,137.678L43.198,136.376L44.743,134.932L46.31,133.513L47.5,132.464L48.702,131.429L49.916,130.407L51.142,129.4L52.38,128.406L53.63,127.427L54.892,126.462L56.165,125.511L57.449,124.575L58.745,123.654L60.052,122.747L61.369,121.855L62.698,120.978L64.037,120.117L64.936,119.551L65.84,118.992C65.398,118.817 65.044,118.669 64.75,118.492L64.722,118.492C55.281,115.374 48.341,108.758 41.958,101.287C30.577,85.318 46.666,69.791 47.751,53.967C48.723,40.557 42.782,25.706 49.694,12.56C53.84,3.853 62.664,0.531 72.427,0.768C81.014,1.208 89.338,4.267 95.161,8.707C107.57,18.236 119.159,31.999 128.776,45.146C128.776,44.116 130.394,42.292 132.157,41.293C133.276,40.617 134.598,40.263 136.01,40.263L144.597,40.263L144.768,40.265ZM233.106,301.981L233,302.134C230.483,303.681 227.993,305.253 225.474,306.802C223.721,307.892 224.466,310.555 226.475,310.623C225.699,311.543 224.907,312.453 224.102,313.349L223.767,313.36C222.62,313.389 221.681,314.328 221.65,315.475C221.645,315.641 221.659,315.803 221.69,315.957C200.328,338.368 170.192,352.34 136.819,352.34C129.603,352.34 122.539,351.687 115.679,350.436L134.186,327.506L164.772,329.681L159.508,320.888L165.184,312.093L175.802,312.975L170.243,303.566L173.565,295.625L181.093,299.3L186.535,320.035L200.475,303.418L218.297,304.448C218.326,304.8 218.445,305.153 218.65,305.447C219.327,306.417 220.62,306.683 221.621,306.066C224.267,304.448 226.915,302.799 229.591,301.155C230.762,301.438 231.935,301.697 233.106,301.981ZM107.895,341.033L113.364,348.678L110.159,337.003L107.895,341.033ZM104.571,345.769L100.63,345.592L99.878,346.393C99.065,346.123 98.255,345.844 97.449,345.556L97.102,344.532L93.718,342.975L96.925,341.004L97.306,337.591L100.219,339.797L103.749,338.798L102.571,342.768L104.571,345.769ZM85.131,273.303L79.354,270.4L80.178,272.648C80.193,272.692 80.209,272.736 80.222,272.78C81.181,275.96 79.411,279.432 76.27,280.531C74.342,281.206 72.35,280.866 70.84,279.792C71.014,281.638 70.315,283.537 68.77,284.872C67.596,285.888 66.126,286.394 64.662,286.394C62.977,286.394 61.301,285.725 60.085,284.426C60.052,284.392 60.022,284.357 59.993,284.321L57.193,280.956L57.193,288.369C57.193,291.684 54.444,294.418 50.997,294.418C47.547,294.418 44.798,291.684 44.798,288.369L44.798,280.956L41.998,284.321C41.969,284.357 41.939,284.392 41.906,284.426C39.633,286.853 35.746,287.057 33.221,284.874L33.221,284.872C31.676,283.537 30.977,281.638 31.152,279.792C30.457,280.285 29.66,280.624 28.814,280.779C39.992,307.142 60.547,328.582 86.29,340.908L91.19,337.739L92.396,325.651L101.189,333.062L108.66,330.739L105.749,320.828L76.779,308.771L84.691,302.624L82.543,295.744L74.367,291.949L81.926,286.273L82.749,277.684L87.308,281.333L85.131,273.303ZM117.923,310.182L108.954,306.066L117.395,300.861L118.423,291.83L126.187,297.713L135.451,295.037L132.392,305.535L137.657,313.475L127.187,312.975L121.099,319.533L117.923,310.182ZM158.478,319.476L151.155,307.801L156.126,310.066L158.478,319.476ZM156.891,305.007L159.832,303.212L160.184,300.067L162.889,302.125L166.096,301.183L165.036,304.83L166.861,307.595L163.243,307.419L161.125,309.711L160.007,306.448L156.891,305.007ZM169.832,294.508L163.95,296.566L155.684,289.92L154.539,300.772L148.686,303.77L158.714,273.038L151.862,274.421L157.803,267.421L179.124,269.362L177.948,279.302L160.979,290.508L169.832,294.508ZM223.767,299.771C222.62,300.476 221.444,301.212 220.268,301.948L218.827,299.713C219.267,299.448 219.709,299.183 220.151,298.889C221.356,299.183 222.561,299.477 223.767,299.771ZM91.073,297.625L88.014,301.654L94.543,297.832L91.073,297.625ZM229.972,287.453C229.848,287.333 229.723,287.206 229.598,287.072C228.557,285.959 228.064,284.565 228.14,282.885C228.189,281.795 228.471,280.765 228.991,279.797C225.482,280.514 222.945,279.954 221.364,278.264C220.014,276.819 219.485,275.075 219.79,273.028C219.969,271.824 220.405,270.61 221.105,269.389C219.226,269.875 217.691,270.083 216.502,270.027C216.344,270.02 216.191,270.01 216.043,269.998L210.092,286.304L214.679,293.332C214.886,293.39 215.092,293.448 215.297,293.478C215.003,293.008 214.709,292.537 214.444,292.068C213.827,291.067 214.15,289.772 215.209,289.213C216.208,288.655 217.503,289.009 218.12,289.979C219.121,291.624 220.12,293.244 221.091,294.862C222.326,295.154 223.533,295.448 224.738,295.744C223.798,294.214 222.885,292.712 221.975,291.213C221.356,290.183 221.681,288.89 222.737,288.331C223.738,287.802 225.032,288.125 225.65,289.124C227.268,291.772 228.915,294.449 230.531,297.123C231.737,297.39 232.973,297.682 234.178,297.978C232.591,295.39 231.002,292.802 229.414,290.214C228.788,289.182 229.173,288.045 229.972,287.453ZM202.504,293.509L195.447,293.184L191.358,297.567L189.212,291.301L183.182,288.507L188.858,285.008L189.565,278.948L194.77,282.891L201.006,281.098L198.946,288.154L202.504,293.509ZM92.631,293.39L89.278,293.213L87.308,295.331L86.279,292.331L83.396,291.007L86.132,289.332L86.455,286.419L88.926,288.302L91.926,287.449L90.927,290.83L92.631,293.39ZM95.661,275.126L103.66,275.774L102.836,292.331L98.924,294.566L95.807,289.772L98.543,281.596L89.338,283.271L95.661,275.126ZM241.261,288.029C240.564,288.253 239.916,288.448 239.317,288.616C238.002,288.985 236.856,289.212 235.88,289.302C237.149,289.989 238.418,290.675 239.692,291.362L239.958,290.875C239.978,290.724 240.505,289.601 241.261,288.029ZM246.792,276.04C242.681,278.21 239.891,279.75 238.422,280.663C236.537,281.834 235.214,282.861 234.468,283.758C234.344,283.908 234.249,284.047 234.189,284.18C234.128,284.316 234.115,284.436 234.206,284.533C234.302,284.636 234.497,284.65 234.761,284.678C235.434,284.749 236.428,284.669 237.744,284.455C239.424,284.181 241.416,283.668 243.721,282.919C245.16,279.912 246.523,276.986 246.792,276.04ZM98.806,255.804L106.454,245.776L120.717,247.071L112.218,252.716L135.51,262.245L139.303,278.155L128.657,280.979L104.542,260.512L103.66,269.596L100.984,266.009L104.69,255.07L98.806,255.804ZM241.253,270.878C239.481,271.805 237.995,272.635 236.795,273.369C233.274,274.763 230.582,275.512 228.717,275.59C227.687,275.633 226.948,275.495 226.532,275.051C226.343,274.849 226.328,274.553 226.394,274.18C226.488,273.654 226.784,273.112 227.257,272.543C228.432,271.13 230.143,269.744 232.384,268.377C234.632,267.004 236.865,266.059 239.084,265.547C241.056,265.092 242.44,265.169 243.209,265.992C243.585,266.395 243.557,267 243.291,267.796C242.959,268.787 242.274,269.809 241.254,270.877L241.253,270.878ZM33.617,275.518L35.978,260.906L44.798,256.088L45.284,265.759L33.617,275.518ZM68.374,275.516L56.423,266.816L57.193,256.088L66.785,261.932L68.374,275.516ZM211.084,267.226C210.227,266.131 209.836,264.931 209.895,263.631C209.961,262.204 210.387,260.855 211.176,259.587C211.913,258.402 212.693,257.264 213.518,256.172C214.291,255.149 214.866,254.182 215.238,253.268C215.494,252.639 215.531,252.132 215.22,251.752L203.513,257.817C203.508,257.82 203.503,257.822 203.497,257.825C202.904,258.113 202.426,258.004 202.051,257.602C202.051,257.602 198.603,253.913 198.603,253.913C198.362,253.656 198.269,253.338 198.365,252.949C198.382,252.88 198.404,252.814 198.432,252.751C197.881,252.656 197.414,252.525 197.031,252.361C196.293,252.045 195.584,251.532 194.91,250.811C193.895,249.725 193.43,248.358 193.538,246.702C193.642,245.111 194.25,243.637 195.374,242.285C196.437,241.006 197.998,239.71 200.065,238.406C202.076,237.138 205.445,235.434 210.18,233.295C210.618,233.08 210.956,232.845 211.182,232.573C211.452,232.248 211.552,231.748 211.533,231.078C208.781,232.407 204.96,233.994 200.069,235.834C199.983,235.905 199.882,235.962 199.768,236.002C196.819,237.118 194.382,237.945 192.457,238.485L192.138,238.572L189.181,246.452L193.977,254.57L184.8,253.892L181.418,258.158L196.505,270.363L211.084,267.226ZM95.955,263.598C95.955,263.598 93.726,264.232 93.726,264.232C94.485,265.959 94.443,268.037 93.413,269.845L96.72,269.979C96.72,269.979 94.896,267.246 94.896,267.246L95.955,263.598ZM146.935,118.261C147.896,119.101 148.835,120.012 149.751,120.992C152.425,123.852 154.434,126.926 155.782,130.212C157.145,133.532 157.65,136.887 157.301,140.276C156.95,143.69 155.658,146.741 153.424,149.429C151.036,152.303 148.281,153.962 145.177,154.434C142.526,154.837 139.851,154.408 137.155,153.134C137.58,155.184 137.581,157.247 137.158,159.323C136.634,161.895 135.466,164.276 133.65,166.461C132.906,167.356 132.119,168.154 131.288,168.855C132.815,168.76 134.277,168.468 135.552,167.945C136.993,166.727 138.615,165.716 140.418,164.913C143.326,163.618 146.202,163.081 149.043,163.293C151.965,163.511 154.265,164.538 155.954,166.345C157.795,168.314 158.587,170.488 158.359,172.854C158.137,175.158 157.149,177.382 155.373,179.518C153.151,182.192 150.184,184.196 146.464,185.517C146.897,185.838 147.468,186.022 148.166,186.086C149.413,186.199 151.024,185.938 153.003,185.327C153.377,185.069 153.766,184.817 154.17,184.571C156.14,183.375 158.191,182.467 160.324,181.845C162.499,181.211 164.657,181.06 166.798,181.389C169.001,181.728 170.812,182.664 172.235,184.187C173.744,185.8 174.279,187.571 173.841,189.497C174.271,189.397 174.653,189.531 174.988,189.89C174.988,189.89 178.394,193.533 178.394,193.533C178.634,193.79 178.728,194.108 178.631,194.497C178.555,194.802 178.386,195.044 178.119,195.222C178.099,195.236 178.078,195.248 178.056,195.26L157.219,206.068C161.616,206.535 166.706,205.687 172.492,203.55C175.898,201.643 184.358,197.182 197.872,190.166C198.158,190.009 198.424,189.959 198.662,189.98C198.945,190.006 199.205,190.127 199.43,190.368C199.43,190.368 202.878,194.057 202.878,194.057C203.117,194.313 203.22,194.651 203.081,195.09C202.962,195.464 202.754,195.675 202.54,195.784C187.767,203.441 178.885,208.106 175.892,209.781C172.996,211.402 171.041,212.797 170.048,213.992C169.924,214.142 169.829,214.281 169.769,214.414C169.707,214.55 169.694,214.67 169.786,214.767C170.028,215.026 170.395,215.172 170.87,215.247C171.464,215.34 172.203,215.311 173.087,215.173C174.791,214.908 177.232,214.215 180.409,213.103C180.499,213.047 180.59,212.99 180.683,212.935C182.65,211.739 184.693,210.824 186.81,210.187C188.972,209.536 191.133,209.384 193.293,209.73C195.319,210.055 196.997,210.858 198.334,212.13L207.623,207.775C208.645,207.296 209.863,207.735 210.341,208.754L212.073,212.448C212.551,213.468 212.109,214.685 211.087,215.164L200.446,217.125C200.427,217.314 200.399,217.505 200.36,217.698C200.735,217.653 201.072,217.794 201.371,218.114C201.371,218.114 204.82,221.804 204.82,221.804C205.06,222.061 205.154,222.379 205.057,222.768C204.982,223.073 204.812,223.315 204.545,223.493C204.525,223.507 204.504,223.519 204.482,223.531C197.827,226.981 193.52,229.314 191.562,230.531C189.677,231.703 188.354,232.729 187.608,233.627C187.484,233.776 187.389,233.916 187.329,234.049C187.267,234.185 187.255,234.304 187.346,234.402C187.442,234.504 187.637,234.518 187.9,234.546C188.573,234.617 189.567,234.538 190.883,234.323C192.878,233.998 195.313,233.337 198.189,232.342C203.469,230.26 207.697,228.352 210.871,226.616C210.882,225.572 211.145,224.779 211.607,224.223C212.421,223.243 213.284,222.722 214.158,222.605C215.123,222.474 215.925,222.758 216.567,223.446C217.121,224.038 217.384,224.781 217.334,225.681C217.287,226.516 216.959,227.317 216.328,228.075C216.243,228.178 216.143,228.277 216.028,228.372C216.028,228.372 216.074,228.698 216.073,228.691C216.305,229.797 216.464,230.647 216.549,231.239C216.635,231.837 216.708,232.602 216.767,233.534C216.83,234.535 216.745,235.402 216.523,236.137C216.294,236.895 215.947,237.549 215.488,238.101C215.03,238.653 214.393,239.134 213.568,239.534C213.563,239.537 213.559,239.539 213.554,239.541C205.823,243.072 201.235,245.648 199.83,247.338C199.534,247.694 199.353,247.96 199.544,248.193C199.577,248.205 199.685,248.243 199.769,248.26C200.01,248.308 200.328,248.329 200.722,248.33C201.586,248.332 203.025,248.09 205.043,247.618C206.936,247.176 209.089,246.528 211.503,245.675L237.28,232.316C237.286,232.313 237.291,232.31 237.296,232.308C237.868,232.03 238.364,232.125 238.785,232.576C238.785,232.576 242.191,236.22 242.191,236.22C242.428,236.473 242.516,236.767 242.463,237.099C242.416,237.395 242.261,237.654 241.963,237.853C241.943,237.867 241.922,237.879 241.9,237.89C241.9,237.89 226.602,245.843 226.603,245.843C228.881,246.224 230.711,247.169 232.1,248.655C233.206,249.837 233.746,251.135 233.748,252.536C233.75,253.932 233.282,255.2 232.337,256.338C231.098,257.829 229.341,258.618 227.048,258.668C225.087,258.71 222.962,257.981 220.688,256.442C220.481,257.111 220.157,257.84 219.712,258.626C219.063,259.775 218.441,260.756 217.849,261.568C217.314,262.303 216.921,263.043 216.675,263.793C216.5,264.326 216.516,264.76 216.818,265.083C216.957,265.231 217.171,265.318 217.445,265.378C217.823,265.462 218.296,265.48 218.861,265.442C220.732,265.316 223.522,264.582 227.232,263.258C227.335,263.193 227.438,263.129 227.543,263.066C229.511,261.871 231.553,260.955 233.67,260.318C235.832,259.667 237.994,259.516 240.153,259.862C242.371,260.217 244.173,261.146 245.565,262.635C247.042,264.216 247.593,265.947 247.221,267.829C247.595,267.785 247.932,267.925 248.231,268.246L249.05,269.121C252.317,258.349 254.074,246.921 254.074,235.085C254.074,173.78 206.926,123.401 146.935,118.261ZM169.743,249.334L176.007,252.188L179.241,263.569L169.743,249.334ZM137.657,250.424L144.568,246.216L145.391,238.864L151.685,243.658L159.242,241.481L156.745,250.011L161.037,256.48L152.508,256.069L147.568,261.394L144.979,253.804L137.657,250.424ZM93.065,254.373C92.686,254.936 92.218,255.437 91.68,255.854L93.838,257.628C93.838,257.628 93.065,254.373 93.065,254.373ZM227.64,250.821C227.763,250.953 227.845,251.079 227.844,251.221C227.842,251.386 227.744,251.547 227.597,251.724C227.35,252.021 226.961,252.211 226.451,252.332C225.828,252.48 225.044,252.515 224.098,252.448C222.189,252.314 220.384,251.599 218.68,250.314C218.678,250.313 218.455,250.074 218.455,250.074C218.455,250.074 218.584,250.007 218.584,250.007C221.473,249.517 223.745,249.425 225.401,249.753C226.394,249.95 227.146,250.293 227.64,250.821ZM19.892,243.913L30.396,239.854L39.892,245.33L30.696,251.158L20.154,246.913C20.055,245.921 19.967,244.919 19.892,243.913ZM177.771,247.63L179.977,246.275L180.242,243.924L182.271,245.453L184.683,244.775L183.889,247.511L185.242,249.569L182.534,249.452L180.947,251.158L180.094,248.718L177.771,247.63ZM85.767,245.33L71.954,250.362L62.099,245.33L72.204,240.111L85.767,245.33ZM175.655,229.063L168.771,246.775L175.154,243.424L175.802,234.426L183.007,240.159L186.758,239.117C185.903,239.004 185.232,238.811 184.741,238.552C184.101,238.215 183.43,237.681 182.738,236.941C181.697,235.827 181.204,234.434 181.28,232.753C181.328,231.663 181.611,230.634 182.13,229.666C179.375,230.228 177.219,230.004 175.655,229.063ZM90.909,245.299L90.892,245.226C90.821,245.263 90.748,245.297 90.675,245.33C90.767,245.374 90.859,245.418 90.949,245.466L90.909,245.299ZM131.951,209.548L113.805,208.336L107.513,216.397L121.159,213.484L114.747,230.777L124.099,244.982L133.128,238.953L134.158,214.25L140.422,219.337L153.743,230.337L173.042,225.547C172.826,224.728 172.789,223.845 172.93,222.897C173.099,221.762 173.496,220.618 174.127,219.467C172.393,219.934 170.964,220.142 169.845,220.104C168.554,220.059 167.588,219.848 166.937,219.505C166.3,219.17 165.586,218.591 164.805,217.755C163.79,216.671 163.35,215.226 163.532,213.409C163.646,212.272 163.969,211.21 164.502,210.225C162.848,210.596 161.32,210.822 159.92,210.904C156.413,211.11 153.167,210.665 150.184,209.575C147.471,210.795 145.167,211.676 143.274,212.221C141.246,212.805 139.536,213.012 138.145,212.864C136.713,212.711 135.572,212.378 134.717,211.884C133.88,211.402 133.001,210.675 132.086,209.696C132.04,209.647 131.995,209.598 131.951,209.548ZM108.423,237.6L102.159,237.308L98.513,241.218L96.601,235.629L91.221,233.158L96.278,230.041L96.897,224.63L101.543,228.16L107.101,226.542L105.276,232.835L108.423,237.6ZM33.617,215.144L45.803,224.221L44.798,234.574L35.216,230.049L33.617,215.144ZM68.374,215.144L65.894,229.603L57.193,234.572L57.247,224.607L68.374,215.144ZM194.393,220.747C192.621,221.673 191.135,222.504 189.935,223.238C186.414,224.631 183.722,225.38 181.857,225.458C180.827,225.501 180.088,225.364 179.672,224.919C179.483,224.717 179.467,224.422 179.534,224.049C179.628,223.522 179.924,222.981 180.397,222.412C181.571,220.999 183.283,219.613 185.523,218.245C187.772,216.872 190.005,215.928 192.224,215.416C194.196,214.961 195.579,215.038 196.349,215.861C196.725,216.264 196.697,216.869 196.431,217.664C196.099,218.655 195.414,219.678 194.394,220.745L194.393,220.747ZM64.079,143.141L70.546,145.608L72.309,151.812L72.104,167.459L61.28,174.605L73.22,179.604L77.192,191.927L84.455,182.341L94.748,183.163L94.574,185.811L78.604,196.25L83.984,199.367L80.191,200.339L72.897,194.369L71.956,203.573L68.783,205.8L68.77,205.788C66.245,203.605 62.358,203.809 60.085,206.234C60.052,206.269 60.022,206.305 59.993,206.34L57.193,209.706L57.193,202.293C57.193,198.979 54.444,196.242 50.997,196.242C47.547,196.242 44.798,198.979 44.798,202.293L44.798,209.706L41.998,206.34C41.969,206.305 41.939,206.269 41.906,206.234C39.633,203.809 35.746,203.605 33.221,205.788C31.676,207.124 30.977,209.024 31.152,210.871C29.641,209.796 27.649,209.456 25.722,210.131C22.578,211.23 20.81,214.7 21.769,217.88C21.783,217.926 21.796,217.97 21.813,218.015L23.325,222.142L20.466,220.486C24.353,189.233 40.563,161.778 64.079,143.141ZM81.367,214.368L80.453,215.505C80.529,216.287 80.46,217.092 80.222,217.88C80.209,217.926 80.195,217.97 80.178,218.015L78.666,222.142L85.066,218.437C86.073,217.855 87.185,217.602 88.282,217.649L88.425,215.19L81.367,214.368ZM85.514,207.014L88.102,200.839L96.601,204.074L99.043,213.808L89.278,205.925L89.132,206.044L88.308,210.955L85.514,207.014ZM82.514,210.544L80.985,208.221L81.867,205.193L79.19,205.955L76.956,204.28L76.662,206.868L74.192,208.398L76.81,209.574L77.123,210.504C77.62,210.767 78.073,211.095 78.475,211.475L79.486,210.398L82.514,210.544ZM142.188,205.331C139.064,206.289 136.754,206.054 135.267,204.464C135.021,204.2 134.889,203.909 134.89,203.584C134.892,203.252 134.996,202.959 135.206,202.706C135.607,202.224 136.155,202.16 136.833,202.429C137.758,202.797 139.542,203.767 142.188,205.331ZM122.306,192.398L129.756,203.357C129.865,201.727 130.493,200.216 131.648,198.826C132.347,197.985 133.102,197.402 133.901,197.065C134.697,196.729 135.479,196.559 136.247,196.549C137.008,196.54 137.988,196.799 139.176,197.364C140.272,197.884 141.275,198.433 142.186,199.009C143.079,199.574 144.33,200.397 145.938,201.479C146.682,201.974 147.395,202.409 148.077,202.786C148.552,202.546 149.432,202.095 150.716,201.432C149.648,201.129 148.756,200.586 148.035,199.815C146.687,198.373 146.15,196.623 146.438,194.562C146.634,193.161 147.176,191.75 148.075,190.333C147.657,190.333 147.218,190.317 146.757,190.284C145.919,190.225 145.196,190.043 144.585,189.747C143.976,189.453 143.386,189.007 142.82,188.402C142.369,187.92 142,187.35 141.715,186.692C137.46,187.194 134.23,186.213 132.002,183.83C130.218,181.921 129.461,179.801 129.704,177.481C129.783,176.723 129.965,175.95 130.25,175.163C129.708,175.012 129.152,174.843 128.587,174.659L122.306,192.398ZM103.629,192.104L104.248,186.693L108.894,190.222L114.453,188.605L112.601,194.897L115.777,199.663L109.482,199.367L105.835,203.281L103.923,197.691L98.543,195.22L103.629,192.104ZM153.203,196.602C152.998,196.384 152.965,196.087 153.04,195.726C153.146,195.208 153.45,194.669 153.928,194.095C155.102,192.682 156.814,191.296 159.054,189.928C161.303,188.555 163.536,187.61 165.754,187.099C166.804,186.856 167.69,186.773 168.414,186.864C169.023,186.94 169.502,187.14 169.836,187.498C170.238,187.927 170.21,188.563 169.918,189.394C169.555,190.427 168.823,191.509 167.739,192.652C167.737,192.653 163.178,194.995 163.178,194.995C159.751,196.344 157.134,197.064 155.319,197.133C154.323,197.17 153.607,197.035 153.203,196.602L153.203,196.602ZM153.354,170.289C153.675,170.632 153.722,171.086 153.567,171.637C153.356,172.386 152.808,173.267 151.951,174.299C150.552,175.982 148.783,177.453 146.647,178.717C145.978,178.34 145.125,178.237 144.08,178.458C142.907,178.706 141.945,179.283 141.194,180.187C140.859,180.59 140.628,180.986 140.492,181.37C139.097,181.747 137.923,181.917 136.968,181.868C136.081,181.823 135.405,181.593 134.961,181.119C134.666,180.802 134.698,180.319 134.894,179.68C135.157,178.821 135.683,177.929 136.458,176.997C138.085,175.039 140.165,173.395 142.694,172.06C145.221,170.726 147.518,169.929 149.589,169.681C150.579,169.563 151.407,169.56 152.075,169.686C152.633,169.791 153.065,169.98 153.354,170.289ZM77.897,171.429L78.337,167.43L81.778,170.016L85.896,168.84L84.543,173.488L86.866,177.018L82.22,176.782L79.544,179.693L78.132,175.546L74.133,173.723L77.897,171.429ZM109.01,164.199L105.19,163.989L99.925,169.899L109.924,179.399L128.411,174.602C126.612,174.01 124.74,173.281 123.006,172.53C121.146,172.735 119.207,172.415 117.19,171.559C115.085,170.666 113.074,169.203 111.164,167.159C110.267,166.199 109.55,165.212 109.01,164.199ZM94.514,161.341L96.985,162.165L98.159,168.871L95.955,167.105L95.131,178.694L90.337,172.399L94.514,161.341ZM134.942,117.845C132.153,117.888 129.388,118.03 126.648,118.266C126.403,118.324 126.157,118.387 125.913,118.454C123.665,119.067 121.667,119.931 119.922,121.048C118.186,122.16 116.746,123.401 115.604,124.774C114.512,126.089 113.855,127.37 113.66,128.631C113.482,129.777 113.76,130.752 114.507,131.551C115.541,132.657 116.966,133.043 118.766,132.767C120.624,132.483 121.989,131.86 122.834,130.844C123.186,130.421 123.559,130.367 123.826,130.429C123.996,130.469 124.164,130.561 124.31,130.738C124.438,130.895 124.572,131.182 124.651,131.611C124.93,132.769 124.656,133.872 123.792,134.913C122.202,136.826 119.838,138.016 116.681,138.441C113.485,138.872 110.82,137.939 108.683,135.652L108.683,135.652C106.935,133.782 106.114,131.153 106.28,127.747C106.391,125.482 106.979,123.363 108.048,121.392C103.211,122.614 98.495,124.136 93.918,125.938L90.279,137.638L96.043,146.373L96.424,144.019L96.989,144.553C97.292,143.56 97.732,142.723 98.299,142.041C98.736,141.514 99.166,141.146 99.575,140.921C100.305,140.52 100.823,140.672 101.123,140.993C101.172,141.046 101.251,141.144 101.296,141.315C101.323,141.414 101.353,141.649 101.37,142.021C101.379,142.211 101.416,142.367 101.518,142.477C102.037,143.032 102.586,143.463 103.168,143.766C103.745,144.067 104.612,144.21 105.761,144.234C106.989,144.26 108.44,144.044 110.114,143.597C111.836,143.136 114.093,142.304 116.885,141.104C119.7,139.894 122.936,138.325 126.592,136.396C132.731,133.123 137.668,131.283 141.392,130.85C145.315,130.393 148.247,131.263 150.215,133.368C151.08,134.294 151.273,135.276 150.855,136.296C150.65,136.858 150.332,137.095 150.103,137.162C149.821,137.245 149.499,137.206 149.195,136.881C148.346,135.974 146.997,135.729 145.174,136.021C143.133,136.348 140.845,137.154 138.307,138.428C135.71,139.733 132.904,141.271 129.89,143.045C126.857,144.829 123.803,146.573 120.729,148.278C117.638,149.99 114.707,151.446 111.934,152.644C111.531,152.819 111.132,152.982 110.738,153.133L110.345,154.743C110.675,154.741 110.922,154.871 111.097,155.057C111.166,155.131 111.254,155.258 111.302,155.463C111.337,155.612 111.362,155.871 111.363,156.241C111.363,156.653 111.382,157.136 111.421,157.691C111.456,158.202 111.65,158.822 111.983,159.557C112.329,160.32 112.836,161.056 113.501,161.767C115.103,163.48 116.868,164.455 118.813,164.663C120.765,164.872 122.599,164.493 124.314,163.526C126.088,162.525 127.738,161.102 129.268,159.26C130.885,157.315 131.832,155.429 132.079,153.588C132.313,151.843 132.088,150.32 131.381,149.02C130.996,148.672 130.664,148.348 130.385,148.05C129.335,146.927 129.171,145.684 129.894,144.321C129.897,144.315 129.9,144.31 129.903,144.304C130.106,143.946 130.31,143.706 130.491,143.566C130.724,143.385 130.956,143.322 131.17,143.329C131.415,143.336 131.661,143.432 131.882,143.668C134.509,146.478 137.292,147.82 140.262,147.633C143.248,147.444 145.964,145.835 148.439,142.856C150.661,140.183 151.742,137.278 151.667,134.134C151.591,130.974 150.043,127.817 147.072,124.639C144.951,122.37 142.623,120.649 140.087,119.481C138.325,118.67 136.61,118.123 134.942,117.845ZM83.074,163.666L76.485,157.665L83.337,148.607L95.69,149.489L95.338,154.195L88.573,158.167L92.865,160.636L83.074,163.666ZM100.467,154.097L100.248,156.018L97.779,157.519L100.396,158.724L101.308,161.429L103.07,159.548L106.1,159.665L104.571,157.371L105.4,154.531C105.091,154.569 104.786,154.599 104.484,154.62L102.778,155.108L102.005,154.527C101.458,154.435 100.945,154.291 100.467,154.097ZM75.665,135.043C76.512,134.523 77.364,134.016 78.223,133.519L79.749,134.667L84.19,133.374L82.72,138.431L85.251,142.255L80.22,142.02L77.309,145.137L75.78,140.668L71.456,138.668L75.543,136.168L75.665,135.043ZM153.862,80.436L179.889,104.287L180.419,105.288L180.29,105.606L180.195,106.039L180.189,106.092C174.413,104.148 168.461,102.581 162.366,101.421L161.821,100.432L161.261,99.409L160.126,97.318C160.038,97.141 159.95,96.995 159.89,96.847C157.125,91.759 155.303,86.083 153.862,80.436ZM126.011,79.759C123.982,85.819 121.482,91.818 117.923,97.024L117.894,97.024C117.835,97.141 117.775,97.229 117.687,97.318C117.658,97.406 117.57,97.523 117.452,97.671L117.042,98.249L116.246,99.381L115.61,100.266L115.274,100.721C108.993,101.722 102.856,103.153 96.893,104.984L96.631,104.2L98.278,101.641L126.011,79.759ZM140.465,49.848L140.627,49.852C142.334,49.909 143.98,50.645 145.127,51.938C146.303,53.174 146.951,54.849 146.862,56.556C146.803,58.291 146.038,59.908 144.803,61.086C143.509,62.26 141.863,62.879 140.128,62.819C138.421,62.762 136.775,62.026 135.628,60.733C134.452,59.497 133.804,57.82 133.864,56.115C133.952,54.35 134.717,52.763 135.95,51.587C137.096,50.519 138.581,49.913 140.141,49.852L140.465,49.848ZM212.533,14.49L212.739,14.493C220.061,14.64 222.354,22.1 218.297,30.998C205.399,42.147 189.145,48.573 172.115,49.219L171.713,49.233C178.065,33.087 191.329,20.618 207.857,15.296C209.586,14.744 211.148,14.488 212.533,14.49ZM70.673,9.257C72.254,9.253 74.061,9.626 76.074,10.442C92.16,16.971 104.454,30.352 109.63,46.91C92.543,45.117 76.633,37.47 64.545,25.293C61.224,16.382 63.823,9.274 70.673,9.257Z" style="fill:none;stroke:rgb(255,0,0);stroke-width:1px;"/>
</svg>
