<?xml version="1.0" encoding="UTF-8" standalone="no"?>
<!DOCTYPE svg PUBLIC "-//W3C//DTD SVG 1.1//EN" "http://www.w3.org/Graphics/SVG/1.1/DTD/svg11.dtd">
<svg width="100%" height="100%" viewBox="0 0 1123 794" version="1.1" xmlns="http://www.w3.org/2000/svg" xmlns:xlink="http://www.w3.org/1999/xlink" xml:space="preserve" xmlns:serif="http://www.serif.com/" style="fill-rule:evenodd;clip-rule:evenodd;stroke-linejoin:round;stroke-miterlimit:2;">
    <path d="M11.426,250.1C11.92,201.578 37.85,159.147 76.503,135.437C76.061,135.262 75.707,135.114 75.413,134.938L75.384,134.938C65.944,131.819 59.004,125.203 52.621,117.733C41.24,101.763 57.328,86.236 58.414,70.413C59.386,57.003 53.445,42.152 60.357,29.005C64.503,20.299 73.327,16.977 83.089,17.213C91.677,17.653 100,20.712 105.824,25.153C118.233,34.681 129.822,48.445 139.438,61.591C139.438,60.561 141.056,58.738 142.82,57.739C143.939,57.062 145.261,56.709 146.673,56.709L155.26,56.709C157.085,56.709 158.73,57.326 160.085,58.356C161.526,59.503 162.554,61.149 162.936,63.032C163.464,63.032 193.522,32.623 199.638,28.623C205.787,24.593 214.285,22.182 222.872,22.388C232.637,22.858 241.165,26.859 244.695,35.857C250.605,49.444 243.576,63.826 243.517,77.267C243.488,93.148 258.37,109.793 245.842,124.881C240.634,130.174 233.519,135.291 226.519,138.348L226.46,138.348C226.08,138.467 225.266,138.729 224.103,139.105C246.368,154.317 263.892,175.967 273.981,201.358L274.298,202.163C280.107,217.05 283.368,233.217 283.537,250.122L283.545,251.53L283.543,252.257L283.529,253.628L283.511,254.602L283.479,255.802L283.44,256.907C282.934,269.97 280.595,282.547 276.662,294.396C276.322,295.443 275.957,296.462 275.587,297.453L275.163,298.631C273.868,302.159 272.427,305.6 270.84,308.982C270.427,309.893 270.016,310.777 269.574,311.659C268.869,313.1 268.104,314.541 267.37,315.953C267.31,316.011 267.281,316.099 267.251,316.159C265.84,318.774 264.34,321.364 262.753,323.864C262.38,324.432 262.038,325.004 261.643,325.548L261.545,325.697C261.134,326.366 260.706,326.996 260.256,327.638L260.016,327.991L260.016,328.011C259.751,328.451 259.457,328.862 259.134,329.275C256.458,333.158 253.576,336.861 250.517,340.421C225.814,369.023 189.421,387.205 148.807,387.587L147.482,387.593C143.885,387.593 140.32,387.453 136.787,387.178C70.145,381.999 16.988,328.83 11.83,262.177C11.557,258.662 11.419,255.112 11.419,251.53L11.426,250.1ZM39.414,296.842C51.151,324.777 73.415,347.222 101.233,359.2C97.093,356.407 93.182,353.22 89.551,349.659C86.132,346.306 86.132,340.851 89.551,337.498C92.97,334.146 98.533,334.146 101.952,337.498C104.174,339.677 106.529,341.675 108.998,343.491C113.426,328.854 113.06,316.282 112.433,310.022L103.137,317.099C99.805,319.636 95.435,319.719 92.005,317.307C88.575,314.896 87.252,310.81 88.634,306.9L96.006,286.049L96.928,272.424C96.987,271.56 97.484,270.783 98.251,270.355C99.019,269.928 99.954,269.907 100.741,270.3C100.862,270.36 102.214,271.04 104.042,272.143L100.882,258.84L83.458,252.063L84.406,251.367L71.622,245.408L66.121,248.594L79.955,255.032L73.043,259.026L59.22,252.577L51.082,257.271L62.192,262.923L51.082,268.586L59.22,273.279L73.043,266.831L79.955,270.814L66.121,277.263L71.622,280.438L85.456,273.99L92.356,277.973L78.534,284.422L89.557,290.795C90.86,291.538 91.301,293.206 90.548,294.509C89.794,295.822 88.136,296.264 86.823,295.51L75.799,289.148L77.134,304.349L70.233,300.365L68.898,285.165L63.397,281.978L64.721,297.179L57.821,293.196L56.497,277.995L48.358,273.301L49.015,285.746L38.561,278.953L38.561,288.351L51.06,297.103L51.06,305.07L39.457,296.945L39.414,296.842ZM243.675,318.404C242.535,318.129 241.394,317.876 240.254,317.6C237.577,319.245 234.93,320.893 232.284,322.511C231.283,323.128 229.99,322.863 229.313,321.893C229.108,321.599 228.988,321.245 228.96,320.893L211.138,319.864L198.382,335.068C201.016,334.706 203.787,335.516 205.809,337.498C207.465,339.123 208.377,341.282 208.377,343.579C208.377,345.875 207.465,348.034 205.809,349.659C202.384,353.017 198.712,356.043 194.832,358.719C209.038,352.428 221.763,343.395 232.334,332.292C232.316,332.172 232.309,332.048 232.313,331.921C232.343,330.774 233.283,329.834 234.43,329.805L234.641,329.799C235.45,328.898 236.246,327.985 237.025,327.062C235.102,326.901 234.417,324.317 236.136,323.247C238.591,321.738 241.018,320.207 243.47,318.698L243.675,318.404ZM162.894,344.646C164.52,347.147 167.027,350.173 169.095,352.537C162.302,354.872 155.086,356.09 147.681,356.09C141.087,356.09 134.643,355.124 128.514,353.265L133.095,344.784C137.908,346.073 149.932,348.46 162.894,344.646ZM188.436,314.125C189.956,318.028 189.047,321.212 186.232,319.558C186.506,326.802 187.855,335.712 189.423,341.093C190.793,339.954 192.124,338.758 193.408,337.498C194.425,336.502 195.631,335.802 196.914,335.398L191.756,315.746L188.436,314.125ZM234.43,316.217C233.283,316.922 232.107,317.658 230.931,318.394L229.49,316.159C229.93,315.894 230.372,315.629 230.814,315.335C232.019,315.629 233.223,315.923 234.43,316.217ZM227.285,284.855L220.755,302.749L225.342,309.778C225.549,309.835 225.755,309.893 225.96,309.924C225.666,309.453 225.372,308.982 225.107,308.513C224.49,307.512 224.813,306.217 225.872,305.658C226.871,305.101 228.166,305.454 228.783,306.425C229.784,308.07 230.783,309.689 231.753,311.307C232.989,311.599 234.196,311.893 235.4,312.189C234.461,310.66 233.548,309.157 232.637,307.658C232.019,306.628 232.343,305.335 233.4,304.776C234.401,304.248 235.694,304.571 236.313,305.57C237.931,308.217 239.578,310.894 241.194,313.569C242.4,313.836 243.636,314.128 244.841,314.424C243.253,311.836 241.664,309.247 240.077,306.659C238.988,304.865 240.959,302.749 242.84,303.748C243.509,304.108 244.177,304.469 244.843,304.829L248.838,306.989C249.317,307.248 249.796,307.506 250.276,307.765C250.379,307.576 250.482,307.387 250.584,307.198C250.317,306.293 250.049,305.396 249.783,304.482C247.018,303.012 244.281,301.513 241.518,300.042C240.517,299.513 240.077,298.218 240.577,297.19C241.076,296.103 242.341,295.69 243.399,296.249C244.96,297.102 246.518,297.924 248.076,298.777C247.723,297.571 247.371,296.395 247.018,295.19C245.313,294.277 243.636,293.395 241.958,292.485C240.959,291.925 240.548,290.661 241.019,289.631C241.518,288.544 242.783,288.13 243.841,288.69C244.312,288.955 244.812,289.22 245.313,289.483C245.02,288.563 244.745,287.642 244.474,286.708C242.725,287.329 241.201,287.826 239.902,288.197C237.587,288.859 235.702,289.157 234.25,289.107C232.722,289.054 231.576,288.807 230.806,288.402C230.049,288.003 229.201,287.314 228.273,286.321C227.863,285.882 227.533,285.394 227.285,284.855ZM213.167,309.954L206.11,309.63L202.021,314.013L199.874,307.747L193.845,304.953L199.521,301.454L200.228,295.394L205.433,299.336L211.668,297.544L209.609,304.599L213.167,309.954ZM155.375,302.319L156.59,302.277C164.329,302.2 170.507,302.827 175.815,304.198L188.611,295.747L189.787,285.807L168.466,283.867L155.375,302.319ZM107.035,274.082C108.329,274.985 109.66,276.009 110.857,277.11C118.807,277.975 126.529,282.987 133.249,291.662C136.834,296.291 139.263,300.809 140.439,303.202C143.545,302.912 146.452,302.691 149.19,302.536L149.921,302.51L146.173,278.69L122.881,269.162L131.38,263.516L117.117,262.221L107.035,274.082ZM263.897,264.846C251.84,271.119 244.362,275.066 241.466,276.687C237.955,278.651 235.589,280.344 234.385,281.793C233.994,282.264 233.825,282.64 234.127,282.962C234.435,283.293 234.9,283.483 235.503,283.574C236.224,283.684 237.121,283.643 238.194,283.466C240.481,283.089 243.908,282.096 248.476,280.493C248.479,280.492 248.481,280.491 248.484,280.49C248.789,280.387 249.029,280.443 249.206,280.547C249.417,280.67 249.64,280.93 249.623,281.423C249.614,281.676 249.58,282.141 249.519,282.82C249.462,283.464 249.429,283.906 249.42,284.146C249.419,284.183 249.415,284.22 249.407,284.257C249.311,284.724 249.047,285.014 248.646,285.154C248.554,285.19 248.463,285.225 248.372,285.26C248.673,286.266 248.988,287.272 249.281,288.278C249.548,287.808 249.811,287.306 250.077,286.837C250.636,285.777 251.929,285.456 252.928,286.073C253.929,286.661 254.252,287.954 253.722,288.984L250.987,294.014L252.046,297.571C252.899,296.014 253.752,294.485 254.575,292.925C255.153,291.882 256.389,291.551 257.41,292.131C260.614,283.471 262.823,274.328 263.897,264.846ZM104.771,289.696C106.401,289.696 107.724,290.993 107.724,292.591C107.724,294.189 106.401,295.487 104.771,295.487C103.142,295.487 101.819,294.189 101.819,292.591C101.819,290.993 103.142,289.696 104.771,289.696ZM226.742,282.597C226.715,282.151 226.726,281.682 226.775,281.19C226.921,279.733 227.356,278.38 228.083,277.132C223.446,278.224 220.138,277.619 218.144,275.485C216.547,273.776 215.922,271.712 216.282,269.29C216.501,267.817 217.045,266.331 217.919,264.835C215.576,265.484 213.688,265.754 212.257,265.662C210.739,265.565 209.601,265.299 208.834,264.896C208.074,264.496 207.279,263.861 206.457,262.982C205.228,261.667 204.647,260.02 204.736,258.036C204.799,256.645 205.182,255.338 205.89,254.114C204.852,254.341 203.884,254.477 202.986,254.523L199.844,262.898L204.64,271.016L195.463,270.338L192.081,274.603L207.168,286.808L226.742,282.597ZM180.406,265.78L186.67,268.633L189.904,280.014L180.406,265.78ZM148.319,266.869L155.231,262.661L156.053,255.31L162.348,260.104L169.905,257.927L167.407,266.456L171.7,272.926L163.171,272.515L158.23,277.839L155.642,270.249L148.319,266.869ZM241.873,267.056C240.199,267.923 238.784,268.702 237.629,269.393C234.133,270.822 231.134,271.77 228.633,272.23C227.44,272.45 226.448,272.517 225.657,272.419C224.998,272.337 224.495,272.147 224.171,271.801C223.917,271.529 223.881,271.135 223.97,270.634C224.086,269.98 224.451,269.306 225.039,268.599C226.462,266.886 228.535,265.206 231.25,263.549C233.973,261.886 236.677,260.743 239.363,260.123C241.803,259.56 243.512,259.681 244.464,260.699C244.977,261.248 244.965,262.06 244.591,263.123C244.148,264.385 243.236,265.691 241.874,267.056L241.873,267.056ZM176.397,137.966C179.044,139.115 181.308,140.698 183.19,142.712C184.246,143.841 185.098,145.154 185.744,146.651C186.399,148.169 186.642,149.94 186.457,151.965C186.271,153.999 185.481,155.862 184.077,157.551C182.566,159.369 180.535,160.612 177.978,161.267C175.483,161.906 172.757,161.972 169.8,161.455C166.876,160.944 163.728,159.72 160.359,157.772C157.013,155.838 153.861,153.291 150.904,150.128C150.571,149.771 150.206,149.354 149.809,148.876C144.193,151.598 139.499,155.225 135.729,159.762C132.189,164.021 130.152,168.072 129.651,171.931C129.166,175.663 129.885,178.6 131.873,180.727C134.364,183.393 137.79,184.91 142.135,185.308C145.092,185.579 148.32,185.322 151.819,184.544C152.347,184.249 152.847,184.137 153.305,184.186C154.608,183.85 155.946,183.444 157.321,182.969C157.322,182.969 157.324,182.968 157.325,182.968C157.44,182.929 157.545,182.913 157.641,182.913C160.849,181.831 164.991,180.313 170.064,178.36C172.571,177.387 174.702,177.852 176.461,179.734C177.333,180.667 177.794,181.831 177.827,183.232C177.861,184.655 177.54,185.724 176.93,186.458C176.816,186.596 176.65,186.682 176.471,186.696C175.262,186.794 174.006,187.492 172.674,188.737C171.245,190.073 169.958,191.603 168.812,193.327C167.629,195.108 166.308,196.935 164.85,198.809C163.795,200.164 162.778,201.36 161.798,202.397C164.456,202.27 167.706,201.533 171.551,200.199C171.667,200.126 171.785,200.054 171.903,199.982C174.264,198.548 176.714,197.449 179.254,196.685C181.839,195.907 184.423,195.725 187.004,196.139C189.644,196.562 191.79,197.666 193.447,199.439C195.245,201.363 195.884,203.476 195.365,205.778C195.851,205.652 196.282,205.796 196.66,206.199C196.66,206.199 200.815,210.645 200.815,210.645C201.073,210.921 201.172,211.262 201.068,211.68C200.986,212.013 200.8,212.279 200.508,212.474C200.488,212.487 200.467,212.5 200.445,212.511C192.422,216.671 187.229,219.484 184.868,220.951C182.58,222.373 180.977,223.62 180.072,224.71C179.684,225.176 179.483,225.526 179.761,225.824C179.892,225.964 180.154,226.002 180.514,226.04C181.333,226.127 182.543,226.032 184.145,225.771C186.78,225.342 190.051,224.426 193.959,223.029C197.985,220.769 208.217,215.372 224.656,206.838C224.973,206.663 225.268,206.606 225.531,206.629C225.84,206.657 226.123,206.79 226.369,207.053C226.369,207.053 230.524,211.499 230.524,211.499C230.781,211.773 230.887,212.137 230.738,212.608C230.608,213.018 230.383,213.25 230.149,213.368C212.35,222.593 201.648,228.214 198.042,230.232C194.532,232.196 192.165,233.89 190.962,235.338C190.575,235.803 190.373,236.154 190.651,236.452C190.961,236.783 191.429,236.976 192.037,237.071C192.763,237.185 193.668,237.151 194.75,236.983C196.811,236.662 199.765,235.825 203.612,234.476C203.724,234.406 203.837,234.337 203.951,234.267C206.312,232.833 208.763,231.735 211.302,230.97C213.888,230.192 216.471,230.011 219.053,230.425C221.693,230.848 223.838,231.952 225.495,233.725C225.749,233.996 225.979,234.271 226.187,234.55L238.591,231.074C239.265,230.885 239.967,231.279 240.156,231.954L240.841,234.399C241.03,235.073 240.635,235.774 239.961,235.963L227.555,237.905C227.627,238.605 227.58,239.324 227.413,240.063C227.9,239.938 228.331,240.081 228.708,240.485C228.708,240.485 232.863,244.93 232.863,244.93C233.121,245.206 233.22,245.548 233.117,245.965C233.034,246.299 232.848,246.564 232.557,246.759C232.536,246.773 232.515,246.785 232.493,246.797C224.47,250.957 219.277,253.769 216.916,255.237C214.629,256.658 213.025,257.906 212.12,258.995C211.733,259.461 211.531,259.812 211.809,260.11C211.94,260.249 212.202,260.288 212.563,260.326C213.382,260.412 214.592,260.317 216.193,260.056C218.649,259.656 221.658,258.834 225.22,257.593C225.332,257.523 225.445,257.453 225.559,257.384C227.92,255.95 230.371,254.851 232.91,254.087C235.496,253.309 238.079,253.127 240.661,253.541C243.301,253.964 245.446,255.068 247.103,256.841L247.103,256.841C248.925,258.791 249.547,260.934 248.967,263.27C252.139,261.612 257.347,258.914 264.591,255.174C264.628,253.964 264.647,252.749 264.647,251.53C264.647,196.843 227.099,150.856 176.397,137.966ZM201.256,254.497C199.256,254.317 197.684,253.596 196.536,252.369C194.939,250.66 194.314,248.596 194.674,246.174C194.889,244.729 195.416,243.271 196.261,241.804C194.045,242.423 192.233,242.701 190.827,242.652C189.468,242.605 188.411,242.404 187.652,242.075L179.434,263.221L185.817,259.87L186.464,250.871L193.67,256.605L201.256,254.497ZM147.614,232.049L144.82,230.696L143.791,255.398L134.762,261.428L125.41,247.222L131.822,229.929L118.175,232.842L124.468,224.782L141.879,226.077L146.467,227.666L147.614,232.049ZM119.086,254.046L112.822,253.753L109.175,257.664L107.263,252.074L101.883,249.603L106.941,246.486L107.559,241.076L112.205,244.605L117.764,242.987L115.939,249.28L119.086,254.046ZM38.529,208.386L38.529,208.385C46.182,189.096 58.815,172.312 74.84,159.624L81.208,162.053L82.972,168.258L82.767,183.904L71.943,191.05L83.883,196.05L87.855,208.372L95.118,198.786L105.411,199.608L105.236,202.256L89.267,212.696L94.647,215.812L90.854,216.784L83.56,210.814L82.619,220.018L76.913,224.022L77.134,221.508L70.233,225.491L68.898,240.692L63.397,243.868L64.721,228.667L57.821,232.651L56.497,247.851L48.358,252.545L49.015,240.1L38.561,246.893L38.561,237.506L51.06,228.753L51.06,220.776L38.561,229.529L38.561,223.177L51.06,214.425L51.06,206.458L38.561,215.2L38.561,208.304C38.551,208.331 38.54,208.358 38.529,208.386ZM220.483,243.674C218.339,244.795 216.542,245.799 215.094,246.685C210.823,248.377 207.56,249.282 205.301,249.377C204.008,249.431 203.085,249.242 202.563,248.684C202.31,248.413 202.273,248.018 202.362,247.518C202.479,246.864 202.843,246.189 203.431,245.482C204.854,243.77 206.927,242.09 209.642,240.433C212.365,238.77 215.069,237.627 217.755,237.007C220.195,236.444 221.904,236.565 222.856,237.583C223.339,238.099 223.326,238.873 222.985,239.893C222.578,241.107 221.739,242.363 220.485,243.672L220.483,243.674ZM90.405,246.962L78.534,241.424L86.103,237.056L86.354,237.871L92.03,230.813L99.088,231.635L98.528,241.254L95.617,243.135L90.405,246.962ZM31.575,236.388L31.57,236.425L33.114,237.506L33.114,246.893L30.492,245.189C30.547,244.811 30.933,241.108 31.57,236.425L31.517,236.388L31.575,236.388ZM163.135,216.084L161.259,221.696L166.523,230.665L156.555,230.166L151.084,235.782L164.406,246.782L186.419,241.319C185.925,240.94 185.402,240.457 184.849,239.866L184.849,239.866C183.653,238.586 183.137,236.88 183.352,234.736C183.489,233.36 183.885,232.078 184.539,230.889C182.802,231.291 181.358,231.45 180.209,231.377C178.691,231.28 177.552,231.014 176.786,230.611C176.025,230.21 175.23,229.576 174.409,228.697C173.179,227.381 172.599,225.735 172.688,223.75C172.75,222.36 173.134,221.052 173.842,219.829C169.522,220.772 166.41,220.139 164.488,218.083C163.909,217.464 163.458,216.798 163.135,216.084ZM30.492,245.189C30.489,245.211 30.487,245.222 30.486,245.221C30.485,245.221 30.485,245.209 30.486,245.186L30.492,245.189ZM75.799,236.709L84.451,231.707L83.649,229.107L76.755,225.819L75.799,236.709ZM107.263,220.52L109.706,230.254L99.941,222.37L99.795,222.489L98.97,227.401L96.177,223.46L98.765,217.284L107.263,220.52ZM93.177,226.989L90.149,226.843L88.383,228.724L87.472,226.019L84.855,224.843L87.324,223.314L87.618,220.725L89.853,222.401L92.53,221.638L91.648,224.666L93.177,226.989ZM162.728,211.315C163.002,209.98 163.542,208.634 164.353,207.28C162.736,207.643 161.325,207.833 160.123,207.852C156.997,207.901 154.261,207.029 151.914,205.244C150.854,204.635 149.764,203.737 148.65,202.546C147.229,201.025 146.445,199.159 146.309,196.942C146.177,194.803 146.489,192.805 147.238,190.949C144.276,191.579 141.525,191.878 138.987,191.848L132.969,208.843L140.526,219.961L144.673,217.872L146.085,206.255L154.143,213.725L162.728,211.315ZM126.44,216.108L120.145,215.812L116.498,219.726L114.586,214.137L109.206,211.666L114.292,208.549L114.911,203.138L119.557,206.668L125.116,205.05L123.264,211.343L126.44,216.108ZM188.435,209.388C186.291,210.509 184.494,211.513 183.045,212.4C178.774,214.091 175.512,214.997 173.253,215.091C171.96,215.145 171.036,214.957 170.515,214.399C170.261,214.127 170.224,213.733 170.314,213.232C170.43,212.578 170.795,211.904 171.383,211.197C172.806,209.484 174.879,207.805 177.594,206.147C180.317,204.485 183.02,203.341 185.707,202.721C188.147,202.159 189.856,202.279 190.808,203.298C191.29,203.814 191.278,204.588 190.936,205.607C190.53,206.822 189.691,208.077 188.437,209.386L188.435,209.388ZM154.143,189.014L164.522,185.982L156.248,196.858C152.952,200.814 148.09,190.931 154.143,189.014ZM88.56,187.874L89,183.875L92.441,186.462L96.559,185.286L95.206,189.934L97.529,193.464L92.883,193.227L90.207,196.138L88.794,191.992L84.796,190.168L88.56,187.874ZM120.972,180.716L115.852,180.434L110.588,186.345L120.587,195.844L136.542,191.704C131.697,191.164 127.599,189.099 124.245,185.511C122.859,184.028 121.767,182.43 120.972,180.716ZM105.177,177.786L107.648,178.611L108.822,185.317L106.618,183.551L105.794,195.139L100.999,188.844L105.177,177.786ZM93.736,180.111L87.148,174.111L94,165.053L106.353,165.935L106.001,170.64L99.236,174.612L103.528,177.081L93.736,180.111ZM116.763,176.111L113.733,175.994L111.971,177.875L111.058,175.169L108.441,173.965L110.91,172.464L111.206,169.876L113.441,171.553L116.118,170.788L115.234,173.817L116.763,176.111ZM140.869,134.549C128.112,135.26 115.899,138.016 104.546,142.494L100.942,154.083L106.706,162.818L107.087,160.464L113.647,166.671L120.896,164.718C122.337,160.589 124.787,156.437 128.254,152.266C132.296,147.402 137.459,143.495 143.747,140.549L143.747,140.549C142.561,138.496 141.602,136.496 140.869,134.549ZM86.315,151.601C87.191,151.063 88.074,150.537 88.964,150.023L90.412,151.113L94.853,149.819L93.383,154.877L95.913,158.7L90.883,158.466L87.972,161.583L86.442,157.113L82.119,155.113L86.206,152.613L86.315,151.601ZM179.552,147.418C179.968,147.863 180.172,148.352 180.14,148.893C180.105,149.473 179.889,149.996 179.497,150.468C178.527,151.636 177.111,152.462 175.267,152.971C173.347,153.5 171.267,153.651 169.028,153.429C166.773,153.205 164.346,152.44 161.745,151.144C159.428,149.989 157.302,148.485 155.367,146.631C160.375,144.909 165.163,144.128 169.732,144.298C174.451,144.473 177.736,145.476 179.552,147.418ZM147.655,134.365C148.046,135.651 148.572,136.952 149.232,138.268C154.704,136.395 160.056,135.544 165.285,135.712C159.536,134.833 153.647,134.374 147.655,134.365ZM190.851,122.537C185.076,120.594 179.124,119.027 173.029,117.866C172.302,116.555 171.546,115.16 170.789,113.763C170.701,113.586 170.612,113.44 170.553,113.292C167.788,108.204 165.966,102.528 164.525,96.881L190.551,120.732L191.082,121.733C191.082,121.733 190.915,122.01 190.851,122.537ZM125.937,117.167C119.656,118.168 113.518,119.599 107.556,121.429L107.294,120.646L108.941,118.086L136.673,96.205C134.644,102.265 132.145,108.264 128.586,113.469L128.557,113.469C128.498,113.586 128.438,113.675 128.35,113.763C128.321,113.851 128.232,113.969 128.115,114.117C127.649,114.758 126.867,115.917 125.937,117.167ZM146.613,68.032C147.878,66.854 149.555,66.237 151.29,66.297C152.996,66.355 154.643,67.091 155.79,68.384C156.966,69.619 157.614,71.295 157.525,73.001C157.466,74.736 156.701,76.354 155.465,77.532C154.172,78.706 152.526,79.325 150.79,79.265C149.084,79.207 147.438,78.471 146.29,77.178C145.114,75.943 144.467,74.265 144.527,72.561C144.615,70.795 145.38,69.208 146.613,68.032ZM218.52,31.741C229.578,28.212 233.813,36.799 228.96,47.444C215.961,58.68 199.552,65.119 182.376,65.678C188.728,49.532 201.992,37.064 218.52,31.741ZM75.208,41.739C71.121,30.771 76.001,22.536 86.736,26.888C102.823,33.417 115.117,46.798 120.293,63.355C103.205,61.562 87.296,53.915 75.208,41.739Z" style="fill:none;stroke:rgb(255,0,0);stroke-width:1px;"/>
</svg>
