<?xml version="1.0" encoding="UTF-8" standalone="no"?>
<!DOCTYPE svg PUBLIC "-//W3C//DTD SVG 1.1//EN" "http://www.w3.org/Graphics/SVG/1.1/DTD/svg11.dtd">
<svg width="100%" height="100%" viewBox="0 0 1123 794" version="1.1" xmlns="http://www.w3.org/2000/svg" xmlns:xlink="http://www.w3.org/1999/xlink" xml:space="preserve" xmlns:serif="http://www.serif.com/" style="fill-rule:evenodd;clip-rule:evenodd;stroke-linejoin:round;stroke-miterlimit:2;">
    <path d="M144.768,40.265C146.525,40.302 148.11,40.912 149.422,41.91C150.863,43.057 151.891,44.704 152.273,46.587C152.802,46.587 182.859,16.178 188.975,12.177C194.836,8.337 202.831,5.966 211.003,5.93C211.404,5.929 211.807,5.932 212.21,5.942C221.975,6.413 230.502,10.413 234.032,19.412C239.942,32.998 232.913,47.381 232.854,60.821C232.825,76.702 247.707,93.348 235.179,108.435C229.972,113.729 222.856,118.846 215.857,121.903L215.797,121.903L214.909,122.185L213.44,122.66C235.271,137.575 252.544,158.68 262.718,183.428L263.146,184.482L263.635,185.717L264.183,187.147L264.715,188.58L264.956,189.247L265.465,190.694L265.958,192.147L266.475,193.735L266.941,195.223L267.39,196.719L267.822,198.222L268.318,200.033L268.765,201.757L269.14,203.283L269.499,204.816L269.84,206.356L270.097,207.582L270.267,208.418L270.567,209.973L270.849,211.533L271.113,213.1L271.309,214.338L271.419,215.073L271.66,216.779L271.864,218.366L272.05,219.958L272.182,221.204L272.257,221.958L272.366,223.158L272.397,223.517L272.519,225.075L272.624,226.63L272.71,228.177L272.746,228.945L272.807,230.524L272.85,232.102C272.861,232.627 272.87,233.152 272.875,233.676L272.882,235.204L272.88,235.812C272.877,236.27 272.873,236.727 272.866,237.183L272.845,238.277C272.836,238.637 272.827,238.997 272.816,239.357L272.77,240.666L272.707,242.056L272.66,242.916C272.616,243.693 272.566,244.469 272.509,245.242L272.378,246.891L272.235,248.448L272.115,249.632L271.964,250.996L271.773,252.558L271.607,253.813L271.429,255.064L271.176,256.717L270.983,257.897L270.743,259.275L270.405,261.091L270.108,262.584L269.863,263.752L269.428,265.714L269.074,267.212L268.795,268.344L268.42,269.801L268.042,271.21L267.725,272.344L267.361,273.601L266.892,275.16L266.363,276.838L265.822,278.487L265.452,279.56L265.025,280.738L264.863,281.178C264.752,281.514 264.639,281.848 264.5,282.186C263.205,285.714 261.764,289.155 260.177,292.537C259.764,293.448 259.353,294.331 258.911,295.213C258.206,296.654 257.441,298.096 256.707,299.508C256.647,299.565 256.619,299.654 256.588,299.713C255.177,302.329 253.677,304.919 252.09,307.419L251.385,308.513L250.98,309.103L250.316,310.136L249.767,310.943L249.354,311.546L249.354,311.565C249.088,312.005 248.794,312.416 248.472,312.829C247.32,314.5 246.13,316.138 244.904,317.745L244.816,317.86C243.221,319.948 241.565,321.984 239.854,323.976L239.073,324.871L238.079,325.991L237.478,326.655L236.874,327.314L236.265,327.97L235.652,328.622L235.034,329.27L234.413,329.913L233.787,330.553L233.157,331.188L232.523,331.819L231.885,332.446L231.243,333.069L230.597,333.688L229.946,334.303L229.292,334.913L228.634,335.519L227.305,336.718L225.961,337.9L224.601,339.064L223.226,340.21L221.835,341.339L220.43,342.45L219.251,343.358L218.294,344.082L217.12,344.95L216.125,345.672L214.957,346.501L213.924,347.22L212.763,348.011L211.691,348.725L210.538,349.478L209.428,350.187L208.283,350.903L207.134,351.605L205.999,352.284L204.81,352.979L203.686,353.621L202.128,354.488L200.557,355.336L199.718,355.777L198.921,356.19L198.122,356.597L197.319,356.999L196.514,357.396L195.706,357.788L194.894,358.175L194.08,358.556L193.263,358.932L192.443,359.303L191.621,359.668L190.795,360.029L189.967,360.383L189.136,360.733L188.303,361.077L187.466,361.416L186.627,361.749L185.472,362.197L184.208,362.674L183.508,362.932C175.658,365.798 167.471,367.962 159.021,369.348L157.605,369.572L156.197,369.781L154.318,370.035L152.436,370.263L150.549,370.465L148.516,370.653L146.646,370.8L144.654,370.927L142.787,371.02L140.923,371.087L139.53,371.121L138.144,371.142L136.819,371.148L135.472,371.141L135.01,371.136L133.308,371.103L132.116,371.068L131.571,371.048C131.011,371.027 130.452,371.002 129.893,370.974L128.91,370.921L128.07,370.87L126.787,370.783L125.344,370.67L124.595,370.605L123.757,370.528L122.78,370.431L121.461,370.29L119.917,370.108L119.147,370.01L118.622,369.94C61.059,362.253 14.891,318.582 3.474,262.277L3.239,261.09L2.955,259.579L2.689,258.062L2.439,256.54L2.206,255.012L1.989,253.478L1.79,251.939L1.609,250.395L1.444,248.846L1.295,247.267L1.199,246.139L1.071,244.412L1.03,243.782L0.93,242.013L0.887,241.098L0.867,240.61L0.814,239.101L0.782,237.765L0.762,236.427L0.756,235.069L0.761,233.92L0.78,232.504L0.814,231.055L0.874,229.343L0.941,227.924L1.04,226.215L1.16,224.51L1.339,222.399L1.503,220.733L1.754,218.52L1.965,216.867L2.116,215.769L2.36,214.126L2.623,212.491L2.832,211.276L3.004,210.32L3.25,209.022L3.391,208.305L3.7,206.805L3.847,206.115L4.228,204.413L4.525,203.156L4.699,202.441L5.07,200.971L5.248,200.286L5.705,198.602L6.047,197.393L6.255,196.679L6.685,195.245L7.142,193.78L7.652,192.213L8.179,190.657L8.724,189.112L9.286,187.576L9.865,186.051L10.462,184.535L11.076,183.028L11.589,181.809L12.228,180.334L12.884,178.867L13.557,177.41L14.247,175.963L14.953,174.524L15.675,173.096L16.414,171.677L17.169,170.268L17.681,169.334L18.2,168.404L18.727,167.479L19.26,166.559L19.8,165.643L20.347,164.732L20.901,163.825L21.462,162.923L21.995,162.081C24.011,158.918 26.155,155.843 28.418,152.865L29.105,151.969L30.119,150.673L31.137,149.404L32.163,148.156L33.2,146.924L34.249,145.708L35.309,144.506L36.64,143.037L37.833,141.756L39.206,140.322L40.549,138.958L41.845,137.678L43.198,136.376L44.743,134.932L46.31,133.513L47.5,132.464L48.702,131.429L49.916,130.407L51.142,129.4L52.38,128.406L53.63,127.427L54.892,126.462L56.165,125.511L57.449,124.575L58.745,123.654L60.052,122.747L61.369,121.855L62.698,120.978L64.037,120.117L64.936,119.551L65.84,118.992C65.398,118.817 65.044,118.669 64.75,118.492L64.722,118.492C55.281,115.374 48.341,108.758 41.958,101.287C30.577,85.318 46.666,69.791 47.751,53.967C48.723,40.557 42.782,25.706 49.694,12.56C53.84,3.853 62.664,0.531 72.427,0.768C81.014,1.208 89.338,4.267 95.161,8.707C107.57,18.236 119.159,31.999 128.776,45.146C128.776,44.116 130.394,42.292 132.157,41.293C133.276,40.617 134.598,40.263 136.01,40.263L144.597,40.263L144.768,40.265ZM233.106,301.981L233,302.134C230.483,303.681 227.993,305.253 225.474,306.802C223.721,307.892 224.466,310.555 226.475,310.623C225.699,311.543 224.907,312.453 224.102,313.349L223.767,313.36C222.62,313.389 221.681,314.328 221.65,315.475C221.645,315.641 221.659,315.803 221.69,315.957C200.328,338.368 170.192,352.34 136.819,352.34C129.603,352.34 122.539,351.687 115.679,350.436L134.186,327.506L164.772,329.681L159.508,320.888L165.184,312.093L175.802,312.975L170.243,303.566L173.565,295.625L181.093,299.3L186.535,320.035L200.475,303.418L218.297,304.448C218.326,304.8 218.445,305.153 218.65,305.447C219.327,306.417 220.62,306.683 221.621,306.066C224.267,304.448 226.915,302.799 229.591,301.155C230.762,301.438 231.935,301.697 233.106,301.981ZM107.895,341.033L113.364,348.678L110.159,337.003L107.895,341.033ZM104.571,345.769L100.63,345.592L99.878,346.393C99.065,346.123 98.255,345.844 97.449,345.556L97.102,344.532L93.718,342.975L96.925,341.004L97.306,337.591L100.219,339.797L103.749,338.798L102.571,342.768L104.571,345.769ZM85.131,273.303L79.354,270.4L80.178,272.648C80.193,272.692 80.209,272.736 80.222,272.78C81.181,275.96 79.411,279.432 76.27,280.531C74.342,281.206 72.35,280.866 70.84,279.792C71.014,281.638 70.315,283.537 68.77,284.872C67.596,285.888 66.126,286.394 64.662,286.394C62.977,286.394 61.301,285.725 60.085,284.426C60.052,284.392 60.022,284.357 59.993,284.321L57.193,280.956L57.193,288.369C57.193,291.684 54.444,294.418 50.997,294.418C47.547,294.418 44.798,291.684 44.798,288.369L44.798,280.956L41.998,284.321C41.969,284.357 41.939,284.392 41.906,284.426C39.633,286.853 35.746,287.057 33.221,284.874L33.221,284.872C31.676,283.537 30.977,281.638 31.152,279.792C30.457,280.285 29.66,280.624 28.814,280.779C39.992,307.142 60.547,328.582 86.29,340.908L91.19,337.739L92.396,325.651L101.189,333.062L108.66,330.739L105.749,320.828L76.779,308.771L84.691,302.624L82.543,295.744L74.367,291.949L81.926,286.273L82.749,277.684L87.308,281.333L85.131,273.303ZM117.923,310.182L108.954,306.066L117.395,300.861L118.423,291.83L126.187,297.713L135.451,295.037L132.392,305.535L137.657,313.475L127.187,312.975L121.099,319.533L117.923,310.182ZM158.478,319.476L151.155,307.801L156.126,310.066L158.478,319.476ZM156.891,305.007L159.832,303.212L160.184,300.067L162.889,302.125L166.096,301.183L165.036,304.83L166.861,307.595L163.243,307.419L161.125,309.711L160.007,306.448L156.891,305.007ZM169.832,294.508L163.95,296.566L155.684,289.92L154.539,300.772L148.686,303.77L158.714,273.038L151.862,274.421L157.803,267.421L179.124,269.362L177.948,279.302L160.979,290.508L169.832,294.508ZM223.767,299.771C222.62,300.476 221.444,301.212 220.268,301.948L218.827,299.713C219.267,299.448 219.709,299.183 220.151,298.889C221.356,299.183 222.561,299.477 223.767,299.771ZM91.073,297.625L88.014,301.654L94.543,297.832L91.073,297.625ZM233.473,268.866C230.894,269.777 228.656,270.489 226.757,271.002C223.916,271.771 221.616,272.067 219.862,271.912C218.053,271.753 216.707,271.424 215.816,270.955L215.714,270.899L210.092,286.304L214.679,293.332C214.886,293.39 215.092,293.448 215.297,293.478C215.003,293.008 214.709,292.537 214.444,292.068C213.827,291.067 214.15,289.772 215.209,289.213C216.208,288.655 217.503,289.009 218.12,289.979C219.121,291.624 220.12,293.244 221.091,294.862C222.326,295.154 223.533,295.448 224.738,295.744C223.798,294.214 222.885,292.712 221.975,291.213C221.356,290.183 221.681,288.89 222.737,288.331C223.738,287.802 225.032,288.125 225.65,289.124C227.268,291.772 228.915,294.449 230.531,297.123C231.737,297.39 232.973,297.682 234.178,297.978C232.591,295.39 231.002,292.802 229.414,290.214C228.325,288.419 230.296,286.304 232.178,287.303C234.692,288.656 237.18,290.008 239.692,291.362L239.958,290.875C239.678,289.929 239.398,288.992 239.12,288.037C236.355,286.567 233.619,285.068 230.856,283.596C229.854,283.068 229.414,281.773 229.914,280.745C230.414,279.657 231.678,279.244 232.737,279.803C234.297,280.656 235.855,281.479 237.414,282.332C237.06,281.125 236.708,279.949 236.355,278.744C234.65,277.832 232.973,276.95 231.296,276.039C230.296,275.48 229.885,274.216 230.356,273.186C230.856,272.098 232.12,271.685 233.179,272.244C233.649,272.509 234.149,272.774 234.65,273.038C234.266,271.833 233.915,270.626 233.561,269.393C233.509,269.219 233.48,269.042 233.473,268.866ZM202.504,293.509L195.447,293.184L191.358,297.567L189.212,291.301L183.182,288.507L188.858,285.008L189.565,278.948L194.77,282.891L201.006,281.098L198.946,288.154L202.504,293.509ZM92.631,293.39L89.278,293.213L87.308,295.331L86.279,292.331L83.396,291.007L86.132,289.332L86.455,286.419L88.926,288.302L91.926,287.449L90.927,290.83L92.631,293.39ZM95.661,275.126L103.66,275.774L102.836,292.331L98.924,294.566L95.807,289.772L98.543,281.596L89.338,283.271L95.661,275.126ZM253.626,224.769C233.016,235.453 220.604,241.974 216.389,244.333C212.216,246.668 209.405,248.683 207.975,250.404C207.46,251.024 207.277,251.527 207.673,251.951C208.055,252.359 208.628,252.599 209.373,252.712C210.237,252.843 211.311,252.796 212.596,252.584C214.958,252.195 218.346,251.251 222.761,249.758C226.216,247.77 231.675,244.832 239.137,240.947C239.143,240.944 239.148,240.941 239.154,240.938C239.842,240.605 240.439,240.717 240.946,241.26L241.283,241.62C241.445,240.419 242.078,239.315 243.211,238.322C244.455,237.232 245.914,236.592 247.591,236.405C249.314,236.212 250.754,236.557 251.917,237.405C253.143,238.299 253.738,239.481 253.712,240.945C253.687,242.359 253.045,243.647 251.742,244.789C250.499,245.879 249.039,246.519 247.363,246.706C246.899,246.758 246.455,246.771 246.031,246.745C246.179,246.997 246.219,247.291 246.134,247.633C246.044,247.998 245.841,248.288 245.522,248.5C245.502,248.514 245.481,248.527 245.459,248.538C235.135,253.895 228.477,257.49 225.486,259.322C222.573,261.107 220.57,262.638 219.491,263.935C218.981,264.549 218.762,265.024 219.129,265.416C219.315,265.615 219.672,265.7 220.17,265.763C221.18,265.89 222.664,265.802 224.623,265.513C227.986,265.017 232.116,263.894 237.016,262.148C237.065,262.131 237.115,262.119 237.166,262.113C237.571,262.068 237.834,262.208 237.996,262.382C238.155,262.552 238.272,262.81 238.212,263.172C238.199,263.484 238.157,264.089 238.085,264.988L237.973,266.37C237.946,266.987 237.653,267.342 237.204,267.498L237.17,267.511C237.33,267.718 237.454,267.955 237.531,268.215C237.884,269.42 238.267,270.626 238.618,271.833C238.885,271.362 239.149,270.861 239.414,270.392C239.973,269.331 241.266,269.01 242.265,269.627C243.266,270.215 243.589,271.508 243.059,272.538L240.325,277.569C240.678,278.744 241.03,279.949 241.383,281.125C242.236,279.569 243.09,278.039 243.912,276.479C244.5,275.42 245.766,275.096 246.796,275.714L246.825,275.733C251.513,263.07 254.074,249.374 254.074,235.085C254.074,231.61 253.923,228.17 253.626,224.769ZM98.806,255.804L106.454,245.776L120.717,247.071L112.218,252.716L135.51,262.245L139.303,278.155L128.657,280.979L104.542,260.512L103.66,269.596L100.984,266.009L104.69,255.07L98.806,255.804ZM33.617,275.518L35.978,260.906L44.798,256.088L45.284,265.759L33.617,275.518ZM68.374,275.516L56.423,266.816L57.193,256.088L66.785,261.932L68.374,275.516ZM190.118,243.954L189.181,246.452L193.977,254.57L184.8,253.892L181.418,258.158L196.505,270.363L211.848,267.062C211.236,265.88 210.961,264.51 211.03,262.949C211.101,261.383 211.519,259.907 212.289,258.523C210.578,258.896 209.119,259.059 207.913,259.017C206.128,258.956 204.79,258.67 203.89,258.196C203.003,257.73 202.011,256.922 200.924,255.758C199.53,254.267 198.934,252.28 199.184,249.782C199.364,247.978 199.924,246.31 200.864,244.78C196.124,245.946 192.545,245.634 190.118,243.954ZM95.955,263.598C95.955,263.598 93.726,264.232 93.726,264.232C94.485,265.959 94.443,268.037 93.413,269.845L96.72,269.979C96.72,269.979 94.896,267.246 94.896,267.246L95.955,263.598ZM237.123,266.79L237.308,266.994C237.177,266.994 237.049,266.956 236.942,266.884L236.97,266.874C237.029,266.854 237.08,266.826 237.123,266.79ZM237.967,266.422L237.973,266.374C237.97,266.422 237.961,266.47 237.948,266.515L237.967,266.422ZM169.743,249.334L176.007,252.188L179.241,263.569L169.743,249.334ZM137.657,250.424L144.568,246.216L145.391,238.864L151.685,243.658L159.242,241.481L156.745,250.011L161.037,256.48L152.508,256.069L147.568,261.394L144.979,253.804L137.657,250.424ZM93.065,254.373C92.686,254.936 92.218,255.437 91.68,255.854L93.838,257.628C93.838,257.628 93.065,254.373 93.065,254.373ZM19.892,243.913L30.396,239.854L39.892,245.33L30.696,251.158L20.154,246.913C20.055,245.921 19.967,244.919 19.892,243.913ZM177.771,247.63L179.977,246.275L180.242,243.924L182.271,245.453L184.683,244.775L183.889,247.511L185.242,249.569L182.534,249.452L180.947,251.158L180.094,248.718L177.771,247.63ZM85.767,245.33L71.954,250.362L62.099,245.33L72.204,240.111L85.767,245.33ZM175.952,228.299L168.771,246.775L175.154,243.424L175.802,234.426L183.007,240.159L186.852,239.091C186.615,238.038 186.585,236.909 186.764,235.704C187.075,233.617 187.94,231.509 189.371,229.385L189.279,229.4C186.282,229.909 183.839,230.078 181.952,229.917C180.035,229.753 178.206,229.29 176.464,228.528C176.288,228.451 176.118,228.375 175.952,228.299ZM90.909,245.299L90.892,245.226C90.821,245.263 90.748,245.297 90.675,245.33C90.767,245.374 90.859,245.418 90.949,245.466L90.909,245.299ZM136.951,215.603L134.158,214.25L133.128,238.953L124.099,244.982L114.747,230.777L121.159,213.484L107.513,216.397L113.805,208.336L131.216,209.631L135.804,211.22L136.951,215.603ZM108.423,237.6L102.159,237.308L98.513,241.218L96.601,235.629L91.221,233.158L96.278,230.041L96.897,224.63L101.543,228.16L107.101,226.542L105.276,232.835L108.423,237.6ZM217.004,233.142C215.014,234.172 213.333,235.097 211.962,235.918C207.812,237.614 204.251,238.74 201.282,239.286C199.856,239.549 198.67,239.627 197.723,239.51C196.909,239.409 196.291,239.169 195.891,238.74C195.567,238.394 195.508,237.893 195.621,237.255C195.763,236.463 196.202,235.645 196.913,234.789C198.605,232.754 201.068,230.756 204.294,228.787C207.529,226.812 210.741,225.454 213.933,224.717C216.878,224.038 218.938,224.206 220.087,225.435C220.721,226.113 220.724,227.115 220.263,228.428C219.733,229.939 218.64,231.506 217.005,233.141L217.004,233.142ZM33.617,215.144L45.803,224.221L44.798,234.574L35.216,230.049L33.617,215.144ZM68.374,215.144L65.894,229.603L57.193,234.572L57.247,224.607L68.374,215.144ZM151.301,203.14L150.596,205.25L155.861,214.22L145.892,213.72L140.422,219.337L153.743,230.337L171.961,225.815C171.338,225.261 170.671,224.604 169.962,223.845C167.394,221.098 166.381,217.944 166.911,214.388C167.187,212.533 167.776,210.706 168.68,208.909C163.979,207.62 158.121,204.955 155.46,203.325C154.048,203.36 152.662,203.298 151.301,203.14ZM191.095,131.14C192.824,133.201 194.331,135.426 195.616,137.814C197.244,140.84 198.417,144.2 199.133,147.896C199.848,151.583 200.031,155.342 199.681,159.172C199.332,163.004 198.21,167.083 196.308,171.409C194.415,175.715 191.785,179.896 188.416,183.95C183.752,189.561 178.838,193.986 173.677,197.23C170.181,199.428 166.817,201.021 163.588,202.016C167.138,202.862 171.231,202.842 174.183,201.485C174.282,201.491 174.38,201.502 174.476,201.518C176.476,199.79 178.805,198.345 181.465,197.185C185.455,195.446 189.485,194.737 193.556,195.053C197.705,195.375 200.996,196.857 203.441,199.473C203.57,199.611 203.695,199.749 203.817,199.888C204.002,199.738 204.211,199.605 204.441,199.498L215.926,194.114C217.173,193.53 218.573,193.883 219.051,194.902L220.783,198.596C221.26,199.616 220.636,200.918 219.389,201.503L206.438,204.493C206.539,204.86 206.615,205.228 206.666,205.597C206.963,207.729 206.309,209.79 204.664,211.77C202.547,214.316 199.731,215.69 196.209,215.879C192.779,216.062 189.572,215.493 186.589,214.176C183.841,212.963 181.534,211.506 179.664,209.811C178.914,210.461 178.234,211.152 177.625,211.885C176.417,213.339 175.649,214.772 175.34,216.193C175.062,217.476 175.351,218.583 176.219,219.511C176.916,220.256 177.797,220.933 178.86,221.546C179.947,222.174 181.398,222.746 183.209,223.269C185.015,223.791 187.277,223.915 189.992,223.658C192.16,223.453 194.454,222.97 196.87,222.211C197.137,222.038 197.409,221.867 197.687,221.699C200.472,220.007 203.362,218.711 206.358,217.809C209.4,216.894 212.439,216.681 215.476,217.167C218.572,217.663 221.088,218.957 223.031,221.036C225.225,223.383 225.928,225.97 225.137,228.799C229.434,226.551 237.079,222.592 248.073,216.922C248.078,216.92 248.082,216.917 248.087,216.915C248.776,216.581 249.372,216.694 249.879,217.237L253.211,220.801C248.464,181.775 224.511,148.639 191.095,131.14ZM81.367,214.368L80.453,215.505C80.529,216.287 80.46,217.092 80.222,217.88C80.209,217.926 80.195,217.97 80.178,218.015L78.666,222.142L85.066,218.437C86.073,217.855 87.185,217.602 88.282,217.649L88.425,215.19L81.367,214.368ZM64.079,143.141L70.546,145.608L72.309,151.812L72.104,167.459L61.28,174.605L73.22,179.604L77.192,191.927L84.455,182.341L94.748,183.163L94.574,185.811L78.604,196.25L83.984,199.367L80.191,200.339L72.897,194.369L71.956,203.573L68.783,205.8L68.77,205.788C66.245,203.605 62.358,203.809 60.085,206.234C60.052,206.269 60.022,206.305 59.993,206.34L57.193,209.706L57.193,202.293C57.193,198.979 54.444,196.242 50.997,196.242C47.547,196.242 44.798,198.979 44.798,202.293L44.798,209.706L41.998,206.34C41.969,206.305 41.939,206.269 41.906,206.234C39.633,203.809 35.746,203.605 33.221,205.788C31.676,207.124 30.977,209.024 31.152,210.871C29.641,209.796 27.649,209.456 25.722,210.131C22.578,211.23 20.81,214.7 21.769,217.88C21.783,217.926 21.796,217.97 21.813,218.015L23.325,222.142L20.466,220.486C24.353,189.233 40.563,161.778 64.079,143.141ZM85.514,207.014L88.102,200.839L96.601,204.074L99.043,213.808L89.278,205.925L89.132,206.044L88.308,210.955L85.514,207.014ZM82.514,210.544L80.985,208.221L81.867,205.193L79.19,205.955L76.956,204.28L76.662,206.868L74.192,208.398L76.81,209.574L77.123,210.504C77.62,210.767 78.073,211.095 78.475,211.475L79.486,210.398L82.514,210.544ZM146.862,208.692L143.215,208.544L141.127,210.807L140.01,207.573L136.892,206.132L139.834,204.309L140.185,201.192L142.862,203.219L146.098,202.31L145.039,205.955L146.862,208.692ZM200.43,203.952C200.529,204.058 200.598,204.162 200.604,204.278C200.525,204.833 200.183,205.333 199.622,205.809C198.946,206.383 197.968,206.904 196.698,207.386C196.695,207.387 196.692,207.389 196.689,207.39C192.589,209.01 188.399,208.733 184.115,206.583C187.235,204.783 190.4,203.594 193.613,203.021C195.345,202.713 196.8,202.641 197.978,202.821C199.042,202.983 199.866,203.348 200.43,203.952L200.43,203.952ZM145.306,118.133C142.503,117.931 139.673,117.829 136.819,117.829C121.682,117.829 107.211,120.704 93.918,125.938L90.279,137.638L96.043,146.373L96.424,144.019L102.984,150.225L112.042,147.785L109.747,157.196L114.276,164.488L105.19,163.989L99.925,169.899L109.924,179.399L120.08,176.763C118.913,176.27 117.897,175.557 117.029,174.629C115.313,172.794 114.542,170.324 114.765,167.205C114.984,164.135 115.818,161.761 117.224,160.068C117.821,159.35 118.404,158.845 118.962,158.539C119.84,158.057 120.464,158.2 120.825,158.586C120.877,158.642 120.958,158.745 121.006,158.925C121.041,159.058 121.079,159.373 121.102,159.872C121.118,160.22 121.201,160.501 121.389,160.702C122.153,161.519 122.961,162.153 123.817,162.599C124.67,163.043 125.946,163.263 127.641,163.299C129.415,163.336 131.51,163.026 133.927,162.38C136.393,161.721 139.624,160.53 143.622,158.812C147.642,157.084 152.263,154.843 157.484,152.088C166.198,147.442 173.204,144.825 178.49,144.21C183.974,143.572 188.08,144.77 190.831,147.713C191.978,148.94 192.242,150.239 191.686,151.592C191.439,152.272 191.076,152.576 190.798,152.657C190.485,152.749 190.129,152.697 189.792,152.336C188.527,150.982 186.522,150.587 183.806,151.022C180.87,151.492 177.58,152.649 173.93,154.481C170.221,156.344 166.215,158.541 161.911,161.074C157.588,163.617 153.236,166.103 148.853,168.532C144.455,170.969 140.283,173.041 136.337,174.747C133.247,176.082 130.347,176.946 127.637,177.342L122.306,192.398L129.863,203.515L134.01,201.427L134.825,194.718C132.529,192.154 131.217,189.395 130.872,186.45C130.5,183.274 130.971,180.976 132.169,179.535C132.601,179.015 133.048,178.665 133.495,178.468C134.19,178.161 134.722,178.293 135.109,178.708C135.156,178.758 135.263,178.886 135.304,179.137C135.333,179.325 135.357,179.812 135.366,180.6C135.376,181.46 135.646,182.562 136.157,183.91C136.673,185.276 137.538,186.601 138.743,187.89C140.899,190.196 143.625,191.636 146.918,192.217C150.269,192.809 153.866,192.555 157.71,191.466C161.596,190.364 165.692,188.294 170.001,185.263C174.335,182.215 178.411,178.392 182.23,173.796C188.774,165.922 192.292,158.639 192.735,151.924C193.172,145.282 191.015,139.426 186.272,134.352C183.222,131.089 179.895,128.636 176.288,127C172.697,125.37 169.245,124.524 165.931,124.469C162.599,124.414 159.333,124.85 156.134,125.777C152.94,126.703 150.108,127.989 147.637,129.639C145.171,131.287 143.112,133.101 141.465,135.083C139.869,137.004 138.916,138.879 138.63,140.721C138.363,142.448 138.785,143.917 139.912,145.123C141.447,146.765 143.561,147.352 146.235,146.943C148.968,146.525 150.969,145.596 152.211,144.101C152.616,143.615 153.036,143.534 153.343,143.605C153.531,143.649 153.717,143.752 153.878,143.949C154.042,144.151 154.206,144.522 154.305,145.072C154.687,146.639 154.311,148.132 153.141,149.54C150.914,152.219 147.601,153.877 143.181,154.472C138.722,155.073 135.003,153.773 132.021,150.583L132.021,150.583C129.576,147.967 128.429,144.275 128.64,139.488C128.848,134.768 130.529,130.506 133.688,126.705C135.864,124.086 138.516,121.846 141.644,119.987C142.808,119.294 144.029,118.676 145.306,118.133ZM103.629,192.104L104.248,186.693L108.894,190.222L114.453,188.605L112.601,194.897L115.777,199.663L109.482,199.367L105.835,203.281L103.923,197.691L98.543,195.22L103.629,192.104ZM77.897,171.429L78.337,167.43L81.778,170.016L85.896,168.84L84.543,173.488L86.866,177.018L82.22,176.782L79.544,179.693L78.132,175.546L74.133,173.723L77.897,171.429ZM94.514,161.341L96.985,162.165L98.159,168.871L95.955,167.105L95.131,178.694L90.337,172.399L94.514,161.341ZM83.074,163.666L76.485,157.665L83.337,148.607L95.69,149.489L95.338,154.195L88.573,158.167L92.865,160.636L83.074,163.666ZM106.1,159.665L103.07,159.548L101.308,161.429L100.396,158.724L97.779,157.519L100.248,156.018L100.544,153.43L102.778,155.108L105.455,154.343L104.571,157.371L106.1,159.665ZM75.665,135.043C76.512,134.523 77.364,134.016 78.223,133.519L79.749,134.667L84.19,133.374L82.72,138.431L85.251,142.255L80.22,142.02L77.309,145.137L75.78,140.668L71.456,138.668L75.543,136.168L75.665,135.043ZM153.862,80.436L179.889,104.287L180.419,105.288L180.29,105.606L180.195,106.039L180.189,106.092C174.413,104.148 168.461,102.581 162.366,101.421L161.821,100.432L161.261,99.409L160.126,97.318C160.038,97.141 159.95,96.995 159.89,96.847C157.125,91.759 155.303,86.083 153.862,80.436ZM126.011,79.759C123.982,85.819 121.482,91.818 117.923,97.024L117.894,97.024C117.835,97.141 117.775,97.229 117.687,97.318C117.658,97.406 117.57,97.523 117.452,97.671L117.042,98.249L116.246,99.381L115.61,100.266L115.274,100.721C108.993,101.722 102.856,103.153 96.893,104.984L96.631,104.2L98.278,101.641L126.011,79.759ZM140.465,49.848L140.627,49.852C142.334,49.909 143.98,50.645 145.127,51.938C146.303,53.174 146.951,54.849 146.862,56.556C146.803,58.291 146.038,59.908 144.803,61.086C143.509,62.26 141.863,62.879 140.128,62.819C138.421,62.762 136.775,62.026 135.628,60.733C134.452,59.497 133.804,57.82 133.864,56.115C133.952,54.35 134.717,52.763 135.95,51.587C137.096,50.519 138.581,49.913 140.141,49.852L140.465,49.848ZM212.533,14.49L212.739,14.493C220.061,14.64 222.354,22.1 218.297,30.998C205.399,42.147 189.145,48.573 172.115,49.219L171.713,49.233C178.065,33.087 191.329,20.618 207.857,15.296C209.586,14.744 211.148,14.488 212.533,14.49ZM70.673,9.257C72.254,9.253 74.061,9.626 76.074,10.442C92.16,16.971 104.454,30.352 109.63,46.91C92.543,45.117 76.633,37.47 64.545,25.293C61.224,16.382 63.823,9.274 70.673,9.257Z" style="fill:none;stroke:rgb(255,0,0);stroke-width:1px;"/>
</svg>
