<?xml version="1.0" encoding="UTF-8" standalone="no"?>
<!DOCTYPE svg PUBLIC "-//W3C//DTD SVG 1.1//EN" "http://www.w3.org/Graphics/SVG/1.1/DTD/svg11.dtd">
<svg width="100%" height="100%" viewBox="0 0 1123 794" version="1.1" xmlns="http://www.w3.org/2000/svg" xmlns:xlink="http://www.w3.org/1999/xlink" xml:space="preserve" xmlns:serif="http://www.serif.com/" style="fill-rule:evenodd;clip-rule:evenodd;stroke-linejoin:round;stroke-miterlimit:2;">
    <path d="M144.768,40.265C146.525,40.302 148.11,40.912 149.422,41.91C150.863,43.057 151.891,44.704 152.273,46.587C152.802,46.587 182.859,16.178 188.975,12.177C194.836,8.337 202.831,5.966 211.003,5.93C211.404,5.929 211.807,5.932 212.21,5.942C221.975,6.413 230.502,10.413 234.032,19.412C239.942,32.998 232.913,47.381 232.854,60.821C232.825,76.702 247.707,93.348 235.179,108.435C229.972,113.729 222.856,118.846 215.857,121.903L215.797,121.903L214.909,122.185L213.44,122.66C235.271,137.575 252.544,158.68 262.718,183.428L263.146,184.482L263.635,185.717L264.183,187.147L264.715,188.58L264.956,189.247L265.465,190.694L265.958,192.147L266.475,193.735L266.941,195.223L267.39,196.719L267.822,198.222L268.318,200.033L268.765,201.757L269.14,203.283L269.499,204.816L269.84,206.356L270.097,207.582L270.267,208.418L270.567,209.973L270.849,211.533L271.113,213.1L271.309,214.338L271.419,215.073L271.66,216.779L271.864,218.366L272.05,219.958L272.182,221.204L272.257,221.958L272.366,223.158L272.397,223.517L272.519,225.075L272.624,226.63L272.71,228.177L272.746,228.945L272.807,230.524L272.85,232.102C272.861,232.627 272.87,233.152 272.875,233.676L272.882,235.204L272.88,235.812C272.877,236.27 272.873,236.727 272.866,237.183L272.845,238.277C272.836,238.637 272.827,238.997 272.816,239.357L272.77,240.666L272.707,242.056L272.66,242.916C272.616,243.693 272.566,244.469 272.509,245.242L272.378,246.891L272.235,248.448L272.115,249.632L271.964,250.996L271.773,252.558L271.607,253.813L271.429,255.064L271.176,256.717L270.983,257.897L270.743,259.275L270.405,261.091L270.108,262.584L269.863,263.752L269.428,265.714L269.074,267.212L268.795,268.344L268.42,269.801L268.042,271.21L267.725,272.344L267.361,273.601L266.892,275.16L266.363,276.838L265.822,278.487L265.452,279.56L265.025,280.738L264.863,281.178C264.752,281.514 264.639,281.848 264.5,282.186C263.205,285.714 261.764,289.155 260.177,292.537C259.764,293.448 259.353,294.331 258.911,295.213C258.206,296.654 257.441,298.096 256.707,299.508C256.647,299.565 256.619,299.654 256.588,299.713C255.177,302.329 253.677,304.919 252.09,307.419L251.385,308.513L250.98,309.103L250.316,310.136L249.767,310.943L249.354,311.546L249.354,311.565C249.088,312.005 248.794,312.416 248.472,312.829C247.32,314.5 246.13,316.138 244.904,317.745L244.816,317.86C243.221,319.948 241.565,321.984 239.854,323.976L239.073,324.871L238.079,325.991L237.478,326.655L236.874,327.314L236.265,327.97L235.652,328.622L235.034,329.27L234.413,329.913L233.787,330.553L233.157,331.188L232.523,331.819L231.885,332.446L231.243,333.069L230.597,333.688L229.946,334.303L229.292,334.913L228.634,335.519L227.305,336.718L225.961,337.9L224.601,339.064L223.226,340.21L221.835,341.339L220.43,342.45L219.251,343.358L218.294,344.082L217.12,344.95L216.125,345.672L214.957,346.501L213.924,347.22L212.763,348.011L211.691,348.725L210.538,349.478L209.428,350.187L208.283,350.903L207.134,351.605L205.999,352.284L204.81,352.979L203.686,353.621L202.128,354.488L200.557,355.336L199.718,355.777L198.921,356.19L198.122,356.597L197.319,356.999L196.514,357.396L195.706,357.788L194.894,358.175L194.08,358.556L193.263,358.932L192.443,359.303L191.621,359.668L190.795,360.029L189.967,360.383L189.136,360.733L188.303,361.077L187.466,361.416L186.627,361.749L185.472,362.197L184.208,362.674L183.508,362.932C175.658,365.798 167.471,367.962 159.021,369.348L157.605,369.572L156.197,369.781L154.318,370.035L152.436,370.263L150.549,370.465L148.516,370.653L146.646,370.8L144.654,370.927L142.787,371.02L140.923,371.087L139.53,371.121L138.144,371.142L136.819,371.148L135.472,371.141L135.01,371.136L133.308,371.103L132.116,371.068L131.571,371.048C131.011,371.027 130.452,371.002 129.893,370.974L128.91,370.921L128.07,370.87L126.787,370.783L125.344,370.67L124.595,370.605L123.757,370.528L122.78,370.431L121.461,370.29L119.917,370.108L119.147,370.01L118.622,369.94C61.059,362.253 14.891,318.582 3.474,262.277L3.239,261.09L2.955,259.579L2.689,258.062L2.439,256.54L2.206,255.012L1.989,253.478L1.79,251.939L1.609,250.395L1.444,248.846L1.295,247.267L1.199,246.139L1.071,244.412L1.03,243.782L0.93,242.013L0.887,241.098L0.867,240.61L0.814,239.101L0.782,237.765L0.762,236.427L0.756,235.069L0.761,233.92L0.78,232.504L0.814,231.055L0.874,229.343L0.941,227.924L1.04,226.215L1.16,224.51L1.339,222.399L1.503,220.733L1.754,218.52L1.965,216.867L2.116,215.769L2.36,214.126L2.623,212.491L2.832,211.276L3.004,210.32L3.25,209.022L3.391,208.305L3.7,206.805L3.847,206.115L4.228,204.413L4.525,203.156L4.699,202.441L5.07,200.971L5.248,200.286L5.705,198.602L6.047,197.393L6.255,196.679L6.685,195.245L7.142,193.78L7.652,192.213L8.179,190.657L8.724,189.112L9.286,187.576L9.865,186.051L10.462,184.535L11.076,183.028L11.589,181.809L12.228,180.334L12.884,178.867L13.557,177.41L14.247,175.963L14.953,174.524L15.675,173.096L16.414,171.677L17.169,170.268L17.681,169.334L18.2,168.404L18.727,167.479L19.26,166.559L19.8,165.643L20.347,164.732L20.901,163.825L21.462,162.923L21.995,162.081C24.011,158.918 26.155,155.843 28.418,152.865L29.105,151.969L30.119,150.673L31.137,149.404L32.163,148.156L33.2,146.924L34.249,145.708L35.309,144.506L36.64,143.037L37.833,141.756L39.206,140.322L40.549,138.958L41.845,137.678L43.198,136.376L44.743,134.932L46.31,133.513L47.5,132.464L48.702,131.429L49.916,130.407L51.142,129.4L52.38,128.406L53.63,127.427L54.892,126.462L56.165,125.511L57.449,124.575L58.745,123.654L60.052,122.747L61.369,121.855L62.698,120.978L64.037,120.117L64.936,119.551L65.84,118.992C65.398,118.817 65.044,118.669 64.75,118.492L64.722,118.492C55.281,115.374 48.341,108.758 41.958,101.287C30.577,85.318 46.666,69.791 47.751,53.967C48.723,40.557 42.782,25.706 49.694,12.56C53.84,3.853 62.664,0.531 72.427,0.768C81.014,1.208 89.338,4.267 95.161,8.707C107.57,18.236 119.159,31.999 128.776,45.146C128.776,44.116 130.394,42.292 132.157,41.293C133.276,40.617 134.598,40.263 136.01,40.263L144.597,40.263L144.768,40.265ZM233.106,301.981L233,302.134C230.483,303.681 227.993,305.253 225.474,306.802C223.721,307.892 224.466,310.555 226.475,310.623C225.699,311.543 224.907,312.453 224.102,313.349L223.767,313.36C222.62,313.389 221.681,314.328 221.65,315.475C221.645,315.641 221.659,315.803 221.69,315.957C200.328,338.368 170.192,352.34 136.819,352.34C129.603,352.34 122.539,351.687 115.679,350.436L134.186,327.506L164.772,329.681L159.508,320.888L165.184,312.093L175.802,312.975L170.243,303.566L173.565,295.625L181.093,299.3L186.535,320.035L200.475,303.418L218.297,304.448C218.326,304.8 218.445,305.153 218.65,305.447C219.327,306.417 220.62,306.683 221.621,306.066C224.267,304.448 226.915,302.799 229.591,301.155C230.762,301.438 231.935,301.697 233.106,301.981ZM107.895,341.033L113.364,348.678L110.159,337.003L107.895,341.033ZM104.571,345.769L100.63,345.592L99.878,346.393C99.065,346.123 98.255,345.844 97.449,345.556L97.102,344.532L93.718,342.975L96.925,341.004L97.306,337.591L100.219,339.797L103.749,338.798L102.571,342.768L104.571,345.769ZM85.131,273.303L79.354,270.4L80.178,272.648C80.193,272.692 80.209,272.736 80.222,272.78C81.181,275.96 79.411,279.432 76.27,280.531C74.342,281.206 72.35,280.866 70.84,279.792C71.014,281.638 70.315,283.537 68.77,284.872C67.596,285.888 66.126,286.394 64.662,286.394C62.977,286.394 61.301,285.725 60.085,284.426C60.052,284.392 60.022,284.357 59.993,284.321L57.193,280.956L57.193,288.369C57.193,291.684 54.444,294.418 50.997,294.418C47.547,294.418 44.798,291.684 44.798,288.369L44.798,280.956L41.998,284.321C41.969,284.357 41.939,284.392 41.906,284.426C39.633,286.853 35.746,287.057 33.221,284.874L33.221,284.872C31.676,283.537 30.977,281.638 31.152,279.792C30.457,280.285 29.66,280.624 28.814,280.779C39.992,307.142 60.547,328.582 86.29,340.908L91.19,337.739L92.396,325.651L101.189,333.062L108.66,330.739L105.749,320.828L76.779,308.771L84.691,302.624L82.543,295.744L74.367,291.949L81.926,286.273L82.749,277.684L87.308,281.333L85.131,273.303ZM117.923,310.182L108.954,306.066L117.395,300.861L118.423,291.83L126.187,297.713L135.451,295.037L132.392,305.535L137.657,313.475L127.187,312.975L121.099,319.533L117.923,310.182ZM158.478,319.476L151.155,307.801L156.126,310.066L158.478,319.476ZM156.891,305.007L159.832,303.212L160.184,300.067L162.889,302.125L166.096,301.183L165.036,304.83L166.861,307.595L163.243,307.419L161.125,309.711L160.007,306.448L156.891,305.007ZM169.832,294.508L163.95,296.566L155.684,289.92L154.539,300.772L148.686,303.77L158.714,273.038L151.862,274.421L157.803,267.421L179.124,269.362L177.948,279.302L160.979,290.508L169.832,294.508ZM223.767,299.771C222.62,300.476 221.444,301.212 220.268,301.948L218.827,299.713C219.267,299.448 219.709,299.183 220.151,298.889C221.356,299.183 222.561,299.477 223.767,299.771ZM91.073,297.625L88.014,301.654L94.543,297.832L91.073,297.625ZM233.488,268.489C231.445,269.192 229.64,269.755 228.074,270.179C225.319,270.924 223.09,271.211 221.389,271.061C219.633,270.906 218.326,270.586 217.462,270.131C217.078,269.93 216.683,269.671 216.277,269.354L210.092,286.304L214.679,293.332C214.886,293.39 215.092,293.448 215.297,293.478C215.003,293.008 214.709,292.537 214.444,292.068C213.827,291.067 214.15,289.772 215.209,289.213C216.208,288.655 217.503,289.009 218.12,289.979C219.121,291.624 220.12,293.244 221.091,294.862C222.326,295.154 223.533,295.448 224.738,295.744C223.798,294.214 222.885,292.712 221.975,291.213C221.356,290.183 221.681,288.89 222.737,288.331C223.738,287.802 225.032,288.125 225.65,289.124C227.268,291.772 228.915,294.449 230.531,297.123C231.737,297.39 232.973,297.682 234.178,297.978C232.591,295.39 231.002,292.802 229.414,290.214C228.325,288.419 230.296,286.304 232.178,287.303C234.692,288.656 237.18,290.008 239.692,291.362L239.958,290.875C239.678,289.929 239.398,288.992 239.12,288.037C236.355,286.567 233.619,285.068 230.856,283.596C229.854,283.068 229.414,281.773 229.914,280.745C230.414,279.657 231.678,279.244 232.737,279.803C234.297,280.656 235.855,281.479 237.414,282.332C237.06,281.125 236.708,279.949 236.355,278.744C234.65,277.832 232.973,276.95 231.296,276.039C230.296,275.48 229.885,274.216 230.356,273.186C230.856,272.098 232.12,271.685 233.179,272.244C233.649,272.509 234.149,272.774 234.65,273.038C234.266,271.833 233.915,270.626 233.561,269.393C233.472,269.094 233.45,268.786 233.488,268.489ZM202.504,293.509L195.447,293.184L191.358,297.567L189.212,291.301L183.182,288.507L188.858,285.008L189.565,278.948L194.77,282.891L201.006,281.098L198.946,288.154L202.504,293.509ZM92.631,293.39L89.278,293.213L87.308,295.331L86.279,292.331L83.396,291.007L86.132,289.332L86.455,286.419L88.926,288.302L91.926,287.449L90.927,290.83L92.631,293.39ZM95.661,275.126L103.66,275.774L102.836,292.331L98.924,294.566L95.807,289.772L98.543,281.596L89.338,283.271L95.661,275.126ZM253.734,244.072C252.696,244.787 251.522,245.218 250.211,245.364C249.608,245.432 249.04,245.431 248.508,245.364L248.61,245.473C248.883,245.765 248.986,246.127 248.877,246.569C248.788,246.927 248.588,247.212 248.275,247.421C248.255,247.435 248.234,247.447 248.212,247.459C238.213,252.648 229.745,257.089 226.849,258.863C224.03,260.59 222.091,262.072 221.048,263.327C220.563,263.911 220.347,264.361 220.696,264.734C220.873,264.924 221.216,265.003 221.691,265.063C222.668,265.186 224.104,265.1 225.999,264.821C229.255,264.341 233.254,263.254 237.998,261.563C238.047,261.546 238.097,261.534 238.148,261.529C238.549,261.484 238.809,261.623 238.97,261.795C239.127,261.963 239.244,262.219 239.184,262.577C239.172,262.879 239.131,263.466 239.061,264.336L238.953,265.674C238.926,266.282 238.637,266.63 238.195,266.784C237.768,266.946 237.35,267.102 236.939,267.254C237.211,267.511 237.42,267.84 237.531,268.215C237.884,269.42 238.267,270.626 238.618,271.833C238.885,271.362 239.149,270.861 239.414,270.392C239.973,269.331 241.266,269.01 242.265,269.627C243.266,270.215 243.589,271.508 243.059,272.538L240.325,277.569C240.678,278.744 241.03,279.949 241.383,281.125C242.236,279.569 243.09,278.039 243.912,276.479C244.5,275.42 245.766,275.096 246.796,275.714L246.825,275.733C250.521,265.749 252.895,255.124 253.734,244.072ZM98.806,255.804L106.454,245.776L120.717,247.071L112.218,252.716L135.51,262.245L139.303,278.155L128.657,280.979L104.542,260.512L103.66,269.596L100.984,266.009L104.69,255.07L98.806,255.804ZM33.617,275.518L35.978,260.906L44.798,256.088L45.284,265.759L33.617,275.518ZM68.374,275.516L56.423,266.816L57.193,256.088L66.785,261.932L68.374,275.516ZM190.772,242.212L189.181,246.452L193.977,254.57L184.8,253.892L181.418,258.158L196.505,270.363L213.773,266.648C213.064,265.434 212.742,264.005 212.816,262.358C212.883,260.853 213.282,259.434 214.015,258.102C212.375,258.457 210.975,258.612 209.817,258.572C208.084,258.512 206.784,258.234 205.911,257.774C205.051,257.321 204.088,256.537 203.033,255.408C201.679,253.96 201.099,252.03 201.342,249.604C201.515,247.87 202.049,246.266 202.945,244.793C197.558,246.109 193.722,245.448 191.422,242.987C191.187,242.736 190.97,242.477 190.772,242.212ZM95.955,263.598C95.955,263.598 93.726,264.232 93.726,264.232C94.485,265.959 94.443,268.037 93.413,269.845L96.72,269.979C96.72,269.979 94.896,267.246 94.896,267.246L95.955,263.598ZM238.098,266.088L238.288,266.298C238.151,266.298 238.019,266.256 237.909,266.179L237.961,266.16C238.013,266.143 238.058,266.118 238.098,266.088ZM238.947,265.726L238.953,265.678C238.95,265.726 238.941,265.772 238.928,265.817L238.947,265.726ZM169.743,249.334L176.007,252.188L179.241,263.569L169.743,249.334ZM137.657,250.424L144.568,246.216L145.391,238.864L151.685,243.658L159.242,241.481L156.745,250.011L161.037,256.48L152.508,256.069L147.568,261.394L144.979,253.804L137.657,250.424ZM93.065,254.373C92.686,254.936 92.218,255.437 91.68,255.854L93.838,257.628C93.838,257.628 93.065,254.373 93.065,254.373ZM253.696,225.608C233.979,235.831 222.092,242.077 218.037,244.346C213.999,246.606 211.278,248.556 209.893,250.222C209.403,250.811 209.223,251.289 209.601,251.692C209.968,252.085 210.518,252.315 211.234,252.423C212.069,252.55 213.108,252.504 214.35,252.299C216.636,251.923 219.916,251.009 224.189,249.563C227.537,247.637 234.843,243.832 242.069,240.069C242.075,240.066 242.081,240.063 242.086,240.061C242.762,239.733 243.348,239.844 243.846,240.377L244.263,240.822C244.321,239.496 244.945,238.284 246.174,237.207C247.382,236.149 248.799,235.527 250.427,235.345C251.836,235.188 253.049,235.4 254.071,235.962C254.073,235.67 254.074,235.378 254.074,235.085C254.074,231.894 253.947,228.734 253.696,225.608ZM177.771,247.63L179.977,246.275L180.242,243.924L182.271,245.453L184.683,244.775L183.889,247.511L185.242,249.569L182.534,249.452L180.947,251.158L180.094,248.718L177.771,247.63ZM19.892,243.913L30.396,239.854L39.892,245.33L30.696,251.158L20.154,246.913C20.055,245.921 19.967,244.919 19.892,243.913ZM85.767,245.33L71.954,250.362L62.099,245.33L72.204,240.111L85.767,245.33ZM189.257,238.423C189.167,237.644 189.185,236.825 189.313,235.967C189.619,233.91 190.481,231.83 191.911,229.735C191.142,229.761 190.314,229.743 189.429,229.68C188.309,229.601 187.341,229.358 186.523,228.963C185.707,228.569 184.917,227.971 184.16,227.161C183.517,226.473 182.998,225.652 182.608,224.696C180.697,224.935 178.936,224.957 177.325,224.766L168.771,246.775L175.154,243.424L175.802,234.426L183.007,240.159L189.257,238.423ZM90.909,245.299L90.892,245.226C90.821,245.263 90.748,245.297 90.675,245.33C90.767,245.374 90.859,245.418 90.949,245.466L90.909,245.299ZM136.951,215.603L134.158,214.25L133.128,238.953L124.099,244.982L114.747,230.777L121.159,213.484L107.513,216.397L113.805,208.336L131.216,209.631L135.804,211.22L136.951,215.603ZM108.423,237.6L102.159,237.308L98.513,241.218L96.601,235.629L91.221,233.158L96.278,230.041L96.897,224.63L101.543,228.16L107.101,226.542L105.276,232.835L108.423,237.6ZM218.61,233.472C216.684,234.468 215.057,235.364 213.73,236.159C209.713,237.801 206.265,238.891 203.392,239.419C202.012,239.673 200.865,239.75 199.951,239.636C199.168,239.538 198.573,239.309 198.188,238.897C197.879,238.566 197.824,238.087 197.933,237.477C198.069,236.712 198.493,235.924 199.18,235.098C200.817,233.128 203.2,231.195 206.323,229.288C209.454,227.377 212.563,226.062 215.653,225.35C218.495,224.694 220.484,224.852 221.593,226.039C222.202,226.691 222.203,227.654 221.76,228.916C221.247,230.377 220.191,231.891 218.611,233.471L218.61,233.472ZM33.617,215.144L45.803,224.221L44.798,234.574L35.216,230.049L33.617,215.144ZM68.374,215.144L65.894,229.603L57.193,234.572L57.247,224.607L68.374,215.144ZM151.898,201.356L150.596,205.25L155.861,214.22L145.892,213.72L140.422,219.337L153.743,230.337L176.599,224.664C173.59,224.171 171.131,222.892 169.219,220.846C166.81,218.269 165.783,215.409 166.111,212.277C166.259,210.868 166.667,209.423 167.34,207.943C160.591,206.303 152.974,202.707 151.898,201.356ZM189.534,130.336C191.445,132.514 193.091,134.887 194.472,137.454C196.049,140.387 197.187,143.643 197.881,147.225C198.573,150.798 198.751,154.44 198.412,158.153C198.073,161.866 196.986,165.819 195.143,170.011C193.309,174.183 190.761,178.234 187.496,182.163C182.978,187.599 178.216,191.887 173.216,195.03C169.875,197.13 166.658,198.661 163.567,199.628C166.717,200.605 170.243,200.491 174.465,198.97C176.345,197.437 178.443,196.155 180.76,195.124C184.736,193.354 188.666,192.618 192.55,192.908C196.515,193.203 199.637,194.591 201.929,197.043C204.416,199.704 205.491,202.638 205.183,205.836C204.882,208.97 203.533,211.995 201.117,214.902C197.993,218.661 193.792,221.449 188.506,223.255C189.2,223.939 190.204,224.309 191.502,224.401C193.356,224.533 195.764,224.102 198.727,223.135C199.107,222.881 199.499,222.632 199.902,222.388C202.601,220.748 205.402,219.492 208.305,218.618C211.254,217.731 214.202,217.524 217.146,217.996C220.149,218.477 222.59,219.732 224.475,221.749C226.594,224.016 227.28,226.513 226.533,229.241C230.703,227.06 238.093,223.233 248.705,217.761C248.709,217.758 248.714,217.756 248.719,217.753C249.395,217.426 249.981,217.536 250.479,218.07L253.238,221.021C248.483,181.293 223.824,147.64 189.534,130.336ZM81.367,214.368L80.453,215.505C80.529,216.287 80.46,217.092 80.222,217.88C80.209,217.926 80.195,217.97 80.178,218.015L78.666,222.142L85.066,218.437C86.073,217.855 87.185,217.602 88.282,217.649L88.425,215.19L81.367,214.368ZM64.079,143.141L70.546,145.608L72.309,151.812L72.104,167.459L61.28,174.605L73.22,179.604L77.192,191.927L84.455,182.341L94.748,183.163L94.574,185.811L78.604,196.25L83.984,199.367L80.191,200.339L72.897,194.369L71.956,203.573L68.783,205.8L68.77,205.788C66.245,203.605 62.358,203.809 60.085,206.234C60.052,206.269 60.022,206.305 59.993,206.34L57.193,209.706L57.193,202.293C57.193,198.979 54.444,196.242 50.997,196.242C47.547,196.242 44.798,198.979 44.798,202.293L44.798,209.706L41.998,206.34C41.969,206.305 41.939,206.269 41.906,206.234C39.633,203.809 35.746,203.605 33.221,205.788C31.676,207.124 30.977,209.024 31.152,210.871C29.641,209.796 27.649,209.456 25.722,210.131C22.578,211.23 20.81,214.7 21.769,217.88C21.783,217.926 21.796,217.97 21.813,218.015L23.325,222.142L20.466,220.486C24.353,189.233 40.563,161.778 64.079,143.141ZM198.709,202.144C199.211,202.68 199.304,203.386 199.061,204.247C198.763,205.307 197.994,206.558 196.781,208.017C194.803,210.397 192.295,212.474 189.259,214.252C188.364,213.698 187.204,213.544 185.767,213.848C184.205,214.178 182.924,214.946 181.924,216.15C181.446,216.725 181.128,217.288 180.957,217.831C178.94,218.385 177.248,218.634 175.879,218.564C174.575,218.497 173.586,218.144 172.935,217.448C172.475,216.956 172.479,216.206 172.784,215.213C173.156,213.998 173.897,212.736 174.992,211.419C177.259,208.691 180.157,206.399 183.681,204.539C187.204,202.679 190.406,201.57 193.293,201.225C194.691,201.058 195.861,201.057 196.804,201.234C197.637,201.391 198.278,201.682 198.709,202.144ZM85.514,207.014L88.102,200.839L96.601,204.074L99.043,213.808L89.278,205.925L89.132,206.044L88.308,210.955L85.514,207.014ZM82.514,210.544L80.985,208.221L81.867,205.193L79.19,205.955L76.956,204.28L76.662,206.868L74.192,208.398L76.81,209.574L77.123,210.504C77.62,210.767 78.073,211.095 78.475,211.475L79.486,210.398L82.514,210.544ZM146.862,208.692L143.215,208.544L141.127,210.807L140.01,207.573L136.892,206.132L139.834,204.309L140.185,201.192L142.862,203.219L146.098,202.31L145.039,205.955L146.862,208.692ZM135.142,192.112C133.172,189.762 132.038,187.246 131.725,184.573C131.382,181.644 131.51,176.601 132.521,174.904C131.019,175.344 129.569,175.653 128.172,175.831L122.306,192.398L129.863,203.515L134.01,201.427L135.142,192.112ZM103.629,192.104L104.248,186.693L108.894,190.222L114.453,188.605L112.601,194.897L115.777,199.663L109.482,199.367L105.835,203.281L103.923,197.691L98.543,195.22L103.629,192.104ZM191.538,152.258C191.228,152.349 189.843,152.404 189.509,152.046C188.288,150.74 185.64,149.857 183.018,150.277C180.177,150.733 176.992,151.852 173.459,153.626C169.867,155.43 165.987,157.558 161.819,160.01C157.632,162.474 153.416,164.882 149.171,167.234C144.911,169.596 140.869,171.602 137.047,173.255C136.549,173.47 136.055,173.673 135.567,173.863L135.567,173.863C135.614,173.913 135.721,174.04 135.761,174.289C135.79,174.472 135.813,174.945 135.822,175.709C135.831,176.54 136.39,180.8 136.883,182.103C137.383,183.424 138.22,184.705 139.385,185.951C141.469,188.181 144.106,189.574 147.291,190.136C150.533,190.709 154.014,190.462 157.734,189.408C161.496,188.342 165.461,186.338 169.632,183.404C173.828,180.453 177.774,176.751 181.473,172.301C187.442,165.118 190.811,158.444 191.538,152.258ZM77.897,171.429L78.337,167.43L81.778,170.016L85.896,168.84L84.543,173.488L86.866,177.018L82.22,176.782L79.544,179.693L78.132,175.546L74.133,173.723L77.897,171.429ZM94.514,161.341L96.985,162.165L98.159,168.871L95.955,167.105L95.131,178.694L90.337,172.399L94.514,161.341ZM83.074,163.666L76.485,157.665L83.337,148.607L95.69,149.489L95.338,154.195L88.573,158.167L92.865,160.636L83.074,163.666ZM106.1,159.665L103.07,159.548L101.308,161.429L100.396,158.724L97.779,157.519L100.248,156.018L100.544,153.43L102.778,155.108L105.455,154.343L104.571,157.371L106.1,159.665ZM75.665,135.043C76.512,134.523 77.364,134.016 78.223,133.519L79.749,134.667L84.19,133.374L82.72,138.431L85.251,142.255L80.22,142.02L77.309,145.137L75.78,140.668L71.456,138.668L75.543,136.168L75.665,135.043ZM153.862,80.436L179.889,104.287L180.419,105.288L180.29,105.606L180.195,106.039L180.189,106.092C174.413,104.148 168.461,102.581 162.366,101.421L161.821,100.432L161.261,99.409L160.126,97.318C160.038,97.141 159.95,96.995 159.89,96.847C157.125,91.759 155.303,86.083 153.862,80.436ZM126.011,79.759C123.982,85.819 121.482,91.818 117.923,97.024L117.894,97.024C117.835,97.141 117.775,97.229 117.687,97.318C117.658,97.406 117.57,97.523 117.452,97.671L117.042,98.249L116.246,99.381L115.61,100.266L115.274,100.721C108.993,101.722 102.856,103.153 96.893,104.984L96.631,104.2L98.278,101.641L126.011,79.759ZM140.465,49.848L140.627,49.852C142.334,49.909 143.98,50.645 145.127,51.938C146.303,53.174 146.951,54.849 146.862,56.556C146.803,58.291 146.038,59.908 144.803,61.086C143.509,62.26 141.863,62.879 140.128,62.819C138.421,62.762 136.775,62.026 135.628,60.733C134.452,59.497 133.804,57.82 133.864,56.115C133.952,54.35 134.717,52.763 135.95,51.587C137.096,50.519 138.581,49.913 140.141,49.852L140.465,49.848ZM212.533,14.49L212.739,14.493C220.061,14.64 222.354,22.1 218.297,30.998C205.399,42.147 189.145,48.573 172.115,49.219L171.713,49.233C178.065,33.087 191.329,20.618 207.857,15.296C209.586,14.744 211.148,14.488 212.533,14.49ZM70.673,9.257C72.254,9.253 74.061,9.626 76.074,10.442C92.16,16.971 104.454,30.352 109.63,46.91C92.543,45.117 76.633,37.47 64.545,25.293C61.224,16.382 63.823,9.274 70.673,9.257Z" style="fill:none;stroke:rgb(255,0,0);stroke-width:1px;"/>
    <path d="M191.596,147.381C191.135,142.476 189.064,138.058 185.389,134.125C182.436,130.967 179.216,128.593 175.725,127.009C172.249,125.432 168.909,124.613 165.701,124.56C162.476,124.507 159.316,124.929 156.219,125.826C153.128,126.722 150.386,127.967 147.995,129.564C145.608,131.159 143.616,132.914 142.021,134.833C140.478,136.689 139.556,138.502 139.28,140.283C139.022,141.949 139.429,143.365 140.516,144.528C141.999,146.114 144.04,146.681 146.623,146.285C149.263,145.881 151.197,144.985 152.397,143.54C152.796,143.06 153.212,142.982 153.515,143.053C153.701,143.096 153.885,143.198 154.044,143.393C154.205,143.59 154.365,143.952 154.463,144.489C154.834,146.014 154.468,147.466 153.33,148.835C151.171,151.433 147.957,153.042 143.67,153.619C139.344,154.202 135.736,152.941 132.843,149.846L132.843,149.846C130.472,147.309 129.358,143.728 129.563,139.085C129.765,134.508 131.394,130.376 134.456,126.691C136.566,124.153 139.136,121.981 142.168,120.179C143.431,119.428 144.763,118.767 146.163,118.197C143.08,117.953 139.964,117.829 136.819,117.829C121.682,117.829 107.211,120.704 93.918,125.938L90.279,137.638L96.043,146.373L96.424,144.019L102.984,150.225L112.042,147.785L109.747,157.196L114.276,164.488L105.19,163.989L99.925,169.899L109.924,179.399L123.579,175.855C121.441,175.512 119.691,174.6 118.323,173.136C116.657,171.354 115.908,168.957 116.124,165.93C116.337,162.951 117.146,160.647 118.511,159.005C119.091,158.308 119.658,157.816 120.2,157.519C121.062,157.045 121.675,157.19 122.03,157.569C122.082,157.624 122.162,157.727 122.21,157.906C122.244,158.035 122.281,158.342 122.303,158.827C122.318,159.158 122.397,159.427 122.576,159.618C123.314,160.408 124.095,161.02 124.922,161.451C125.746,161.88 126.979,162.092 128.616,162.126C130.333,162.162 132.36,161.863 134.699,161.237C137.087,160.599 140.215,159.446 144.086,157.783C147.98,156.109 152.455,153.938 157.511,151.271C165.954,146.77 172.742,144.234 177.864,143.638C183.184,143.019 188.927,144.526 191.596,147.381Z" style="fill:none;stroke:rgb(255,0,0);stroke-width:1px;"/>
</svg>
