<?xml version="1.0" encoding="UTF-8" standalone="no"?>
<!DOCTYPE svg PUBLIC "-//W3C//DTD SVG 1.1//EN" "http://www.w3.org/Graphics/SVG/1.1/DTD/svg11.dtd">
<svg width="100%" height="100%" viewBox="0 0 1123 794" version="1.1" xmlns="http://www.w3.org/2000/svg" xmlns:xlink="http://www.w3.org/1999/xlink" xml:space="preserve" xmlns:serif="http://www.serif.com/" style="fill-rule:evenodd;clip-rule:evenodd;stroke-linejoin:round;stroke-miterlimit:2;">
    <path d="M144.768,40.265C146.525,40.302 148.11,40.912 149.422,41.91C150.863,43.057 151.891,44.704 152.273,46.587C152.802,46.587 182.859,16.178 188.975,12.177C194.836,8.337 202.831,5.966 211.003,5.93C211.404,5.929 211.807,5.932 212.21,5.942C221.975,6.413 230.502,10.413 234.032,19.412C239.942,32.998 232.913,47.381 232.854,60.821C232.825,76.702 247.707,93.348 235.179,108.435C229.972,113.729 222.856,118.846 215.857,121.903L215.797,121.903L214.909,122.185L213.44,122.66C235.271,137.575 252.544,158.68 262.718,183.428L263.146,184.482L263.635,185.717L264.183,187.147L264.715,188.58L264.956,189.247L265.465,190.694L265.958,192.147L266.475,193.735L266.941,195.223L267.39,196.719L267.822,198.222L268.318,200.033L268.765,201.757L269.14,203.283L269.499,204.816L269.84,206.356L270.097,207.582L270.267,208.418L270.567,209.973L270.849,211.533L271.113,213.1L271.309,214.338L271.419,215.073L271.66,216.779L271.864,218.366L272.05,219.958L272.182,221.204L272.257,221.958L272.366,223.158L272.397,223.517L272.519,225.075L272.624,226.63L272.71,228.177L272.746,228.945L272.807,230.524L272.85,232.102C272.861,232.627 272.87,233.152 272.875,233.676L272.882,235.204L272.88,235.812C272.877,236.27 272.873,236.727 272.866,237.183L272.845,238.277C272.836,238.637 272.827,238.997 272.816,239.357L272.77,240.666L272.707,242.056L272.66,242.916C272.616,243.693 272.566,244.469 272.509,245.242L272.378,246.891L272.235,248.448L272.115,249.632L271.964,250.996L271.773,252.558L271.607,253.813L271.429,255.064L271.176,256.717L270.983,257.897L270.743,259.275L270.405,261.091L270.108,262.584L269.863,263.752L269.428,265.714L269.074,267.212L268.795,268.344L268.42,269.801L268.042,271.21L267.725,272.344L267.361,273.601L266.892,275.16L266.363,276.838L265.822,278.487L265.452,279.56L265.025,280.738L264.863,281.178C264.752,281.514 264.639,281.848 264.5,282.186C263.205,285.714 261.764,289.155 260.177,292.537C259.764,293.448 259.353,294.331 258.911,295.213C258.206,296.654 257.441,298.096 256.707,299.508C256.647,299.565 256.619,299.654 256.588,299.713C255.177,302.329 253.677,304.919 252.09,307.419L251.385,308.513L250.98,309.103L250.316,310.136L249.767,310.943L249.354,311.546L249.354,311.565C249.088,312.005 248.794,312.416 248.472,312.829C247.32,314.5 246.13,316.138 244.904,317.745L244.816,317.86C243.221,319.948 241.565,321.984 239.854,323.976L239.073,324.871L238.079,325.991L237.478,326.655L236.874,327.314L236.265,327.97L235.652,328.622L235.034,329.27L234.413,329.913L233.787,330.553L233.157,331.188L232.523,331.819L231.885,332.446L231.243,333.069L230.597,333.688L229.946,334.303L229.292,334.913L228.634,335.519L227.305,336.718L225.961,337.9L224.601,339.064L223.226,340.21L221.835,341.339L220.43,342.45L219.251,343.358L218.294,344.082L217.12,344.95L216.125,345.672L214.957,346.501L213.924,347.22L212.763,348.011L211.691,348.725L210.538,349.478L209.428,350.187L208.283,350.903L207.134,351.605L205.999,352.284L204.81,352.979L203.686,353.621L202.128,354.488L200.557,355.336L199.718,355.777L198.921,356.19L198.122,356.597L197.319,356.999L196.514,357.396L195.706,357.788L194.894,358.175L194.08,358.556L193.263,358.932L192.443,359.303L191.621,359.668L190.795,360.029L189.967,360.383L189.136,360.733L188.303,361.077L187.466,361.416L186.627,361.749L185.472,362.197L184.208,362.674L183.508,362.932C175.658,365.798 167.471,367.962 159.021,369.348L157.605,369.572L156.197,369.781L154.318,370.035L152.436,370.263L150.549,370.465L148.516,370.653L146.646,370.8L144.654,370.927L142.787,371.02L140.923,371.087L139.53,371.121L138.144,371.142L136.819,371.148L135.472,371.141L135.01,371.136L133.308,371.103L132.116,371.068L131.571,371.048C131.011,371.027 130.452,371.002 129.893,370.974L128.91,370.921L128.07,370.87L126.787,370.783L125.344,370.67L124.595,370.605L123.757,370.528L122.78,370.431L121.461,370.29L119.917,370.108L119.147,370.01L118.622,369.94C61.059,362.253 14.891,318.582 3.474,262.277L3.239,261.09L2.955,259.579L2.689,258.062L2.439,256.54L2.206,255.012L1.989,253.478L1.79,251.939L1.609,250.395L1.444,248.846L1.295,247.267L1.199,246.139L1.071,244.412L1.03,243.782L0.93,242.013L0.887,241.098L0.867,240.61L0.814,239.101L0.782,237.765L0.762,236.427L0.756,235.069L0.761,233.92L0.78,232.504L0.814,231.055L0.874,229.343L0.941,227.924L1.04,226.215L1.16,224.51L1.339,222.399L1.503,220.733L1.754,218.52L1.965,216.867L2.116,215.769L2.36,214.126L2.623,212.491L2.832,211.276L3.004,210.32L3.25,209.022L3.391,208.305L3.7,206.805L3.847,206.115L4.228,204.413L4.525,203.156L4.699,202.441L5.07,200.971L5.248,200.286L5.705,198.602L6.047,197.393L6.255,196.679L6.685,195.245L7.142,193.78L7.652,192.213L8.179,190.657L8.724,189.112L9.286,187.576L9.865,186.051L10.462,184.535L11.076,183.028L11.589,181.809L12.228,180.334L12.884,178.867L13.557,177.41L14.247,175.963L14.953,174.524L15.675,173.096L16.414,171.677L17.169,170.268L17.681,169.334L18.2,168.404L18.727,167.479L19.26,166.559L19.8,165.643L20.347,164.732L20.901,163.825L21.462,162.923L21.995,162.081C24.011,158.918 26.155,155.843 28.418,152.865L29.105,151.969L30.119,150.673L31.137,149.404L32.163,148.156L33.2,146.924L34.249,145.708L35.309,144.506L36.64,143.037L37.833,141.756L39.206,140.322L40.549,138.958L41.845,137.678L43.198,136.376L44.743,134.932L46.31,133.513L47.5,132.464L48.702,131.429L49.916,130.407L51.142,129.4L52.38,128.406L53.63,127.427L54.892,126.462L56.165,125.511L57.449,124.575L58.745,123.654L60.052,122.747L61.369,121.855L62.698,120.978L64.037,120.117L64.936,119.551L65.84,118.992C65.398,118.817 65.044,118.669 64.75,118.492L64.722,118.492C55.281,115.374 48.341,108.758 41.958,101.287C30.577,85.318 46.666,69.791 47.751,53.967C48.723,40.557 42.782,25.706 49.694,12.56C53.84,3.853 62.664,0.531 72.427,0.768C81.014,1.208 89.338,4.267 95.161,8.707C107.57,18.236 119.159,31.999 128.776,45.146C128.776,44.116 130.394,42.292 132.157,41.293C133.276,40.617 134.598,40.263 136.01,40.263L144.597,40.263L144.768,40.265ZM233.106,301.981L233,302.134C230.483,303.681 227.993,305.253 225.474,306.802C223.721,307.892 224.466,310.555 226.475,310.623C225.699,311.543 224.907,312.453 224.102,313.349L223.767,313.36C222.62,313.389 221.681,314.328 221.65,315.475C221.645,315.641 221.659,315.803 221.69,315.957C200.328,338.368 170.192,352.34 136.819,352.34C129.603,352.34 122.539,351.687 115.679,350.436L134.186,327.506L164.772,329.681L159.508,320.888L165.184,312.093L175.802,312.975L170.243,303.566L173.565,295.625L181.093,299.3L186.535,320.035L200.475,303.418L218.297,304.448C218.326,304.8 218.445,305.153 218.65,305.447C219.327,306.417 220.62,306.683 221.621,306.066C224.267,304.448 226.915,302.799 229.591,301.155C230.762,301.438 231.935,301.697 233.106,301.981ZM107.895,341.033L113.364,348.678L110.159,337.003L107.895,341.033ZM104.571,345.769L100.63,345.592L99.878,346.393C99.065,346.123 98.255,345.844 97.449,345.556L97.102,344.532L93.718,342.975L96.925,341.004L97.306,337.591L100.219,339.797L103.749,338.798L102.571,342.768L104.571,345.769ZM85.131,273.303L79.354,270.4L80.178,272.648C80.193,272.692 80.209,272.736 80.222,272.78C81.181,275.96 79.411,279.432 76.27,280.531C74.342,281.206 72.35,280.866 70.84,279.792C71.014,281.638 70.315,283.537 68.77,284.872C67.596,285.888 66.126,286.394 64.662,286.394C62.977,286.394 61.301,285.725 60.085,284.426C60.052,284.392 60.022,284.357 59.993,284.321L57.193,280.956L57.193,288.369C57.193,291.684 54.444,294.418 50.997,294.418C47.547,294.418 44.798,291.684 44.798,288.369L44.798,280.956L41.998,284.321C41.969,284.357 41.939,284.392 41.906,284.426C39.633,286.853 35.746,287.057 33.221,284.874L33.221,284.872C31.676,283.537 30.977,281.638 31.152,279.792C30.457,280.285 29.66,280.624 28.814,280.779C39.992,307.142 60.547,328.582 86.29,340.908L91.19,337.739L92.396,325.651L101.189,333.062L108.66,330.739L105.749,320.828L76.779,308.771L84.691,302.624L82.543,295.744L74.367,291.949L81.926,286.273L82.749,277.684L87.308,281.333L85.131,273.303ZM117.923,310.182L108.954,306.066L117.395,300.861L118.423,291.83L126.187,297.713L135.451,295.037L132.392,305.535L137.657,313.475L127.187,312.975L121.099,319.533L117.923,310.182ZM158.478,319.476L151.155,307.801L156.126,310.066L158.478,319.476ZM156.891,305.007L159.832,303.212L160.184,300.067L162.889,302.125L166.096,301.183L165.036,304.83L166.861,307.595L163.243,307.419L161.125,309.711L160.007,306.448L156.891,305.007ZM169.832,294.508L163.95,296.566L155.684,289.92L154.539,300.772L148.686,303.77L158.714,273.038L151.862,274.421L157.803,267.421L179.124,269.362L177.948,279.302L160.979,290.508L169.832,294.508ZM223.767,299.771C222.62,300.476 221.444,301.212 220.268,301.948L218.827,299.713C219.267,299.448 219.709,299.183 220.151,298.889C221.356,299.183 222.561,299.477 223.767,299.771ZM91.073,297.625L88.014,301.654L94.543,297.832L91.073,297.625ZM216.501,268.743L210.092,286.304L214.679,293.332C214.886,293.39 215.092,293.448 215.297,293.478C215.003,293.008 214.709,292.537 214.444,292.068C213.827,291.067 214.15,289.772 215.209,289.213C216.208,288.655 217.503,289.009 218.12,289.979C219.121,291.624 220.12,293.244 221.091,294.862C222.326,295.154 223.533,295.448 224.738,295.744C223.798,294.214 222.885,292.712 221.975,291.213C221.356,290.183 221.681,288.89 222.737,288.331C223.738,287.802 225.032,288.125 225.65,289.124C227.268,291.772 228.915,294.449 230.531,297.123C231.737,297.39 232.973,297.682 234.178,297.978C232.591,295.39 231.002,292.802 229.414,290.214C228.325,288.419 230.296,286.304 232.178,287.303C234.692,288.656 237.18,290.008 239.692,291.362L239.958,290.875C239.991,290.626 241.412,287.719 242.954,284.517C240.139,285.524 237.865,286.059 236.134,286.13C233.64,286.234 231.458,285.589 229.59,284.21C228.746,283.742 227.878,283.045 226.992,282.113C225.85,280.913 225.22,279.421 225.113,277.631C225.011,275.907 225.266,274.289 225.877,272.776C225.97,272.546 226.067,272.319 226.168,272.097C226.096,272.094 226.024,272.091 225.951,272.088C225.15,272.051 224.458,271.893 223.874,271.624C223.29,271.355 222.725,270.941 222.184,270.372C221.762,269.928 221.414,269.401 221.145,268.79C219.419,269.036 217.872,269.018 216.501,268.743ZM202.504,293.509L195.447,293.184L191.358,297.567L189.212,291.301L183.182,288.507L188.858,285.008L189.565,278.948L194.77,282.891L201.006,281.098L198.946,288.154L202.504,293.509ZM92.631,293.39L89.278,293.213L87.308,295.331L86.279,292.331L83.396,291.007L86.132,289.332L86.455,286.419L88.926,288.302L91.926,287.449L90.927,290.83L92.631,293.39ZM95.661,275.126L103.66,275.774L102.836,292.331L98.924,294.566L95.807,289.772L98.543,281.596L89.338,283.271L95.661,275.126ZM249.069,269.056L249.041,269.06C248.111,269.16 247.149,269.73 246.124,270.717C245.004,271.797 243.994,273.027 243.095,274.406C242.16,275.842 241.116,277.316 239.964,278.831C239.217,279.812 238.494,280.692 237.795,281.47C239.873,281.264 242.39,280.591 245.349,279.465C246.296,277.41 246.949,275.866 246.825,275.733C247.638,273.537 248.387,271.31 249.069,269.056ZM98.806,255.804L106.454,245.776L120.717,247.071L112.218,252.716L135.51,262.245L139.303,278.155L128.657,280.979L104.542,260.512L103.66,269.596L100.984,266.009L104.69,255.07L98.806,255.804ZM231.648,271.193C231.846,271.13 232.034,271.069 232.21,271.009C234.016,270.442 236.26,269.672 238.942,268.699C238.824,268.859 238.703,269.024 238.58,269.193C237.912,270.11 237.326,270.91 236.821,271.593C236.319,272.274 235.774,272.992 235.185,273.749C234.62,274.476 234.101,275.059 233.626,275.495C233.16,275.924 232.683,276.294 232.194,276.604C231.823,276.841 231.477,276.961 231.145,276.926C230.824,276.892 230.532,276.709 230.249,276.412C229.679,275.812 229.568,275.04 229.854,274.108C230.176,273.059 230.777,272.089 231.647,271.194L231.648,271.193ZM33.617,275.518L35.978,260.906L44.798,256.088L45.284,265.759L33.617,275.518ZM68.374,275.516L56.423,266.816L57.193,256.088L66.785,261.932L68.374,275.516ZM212.594,266.901C212.363,266.706 212.143,266.498 211.931,266.275C210.232,264.489 209.512,262.476 209.748,260.245C209.889,258.906 210.361,257.511 211.172,256.065C209.367,256.584 207.894,256.823 206.756,256.799C205.512,256.771 204.585,256.583 203.966,256.272C203.357,255.965 202.688,255.441 201.971,254.686C200.882,253.541 200.381,252.246 200.449,250.812C200.514,249.447 200.92,248.148 201.671,246.918C202.372,245.77 203.115,244.666 203.898,243.605C204.633,242.611 205.179,241.676 205.533,240.797C205.766,240.219 205.815,239.757 205.555,239.418L194.469,245.471C194.464,245.473 194.459,245.476 194.454,245.479C193.87,245.778 193.401,245.674 193.033,245.287L190.584,242.712L189.181,246.452L193.977,254.57L184.8,253.892L181.418,258.158L196.505,270.363L212.594,266.901ZM95.955,263.598C95.955,263.598 93.726,264.232 93.726,264.232C94.485,265.959 94.443,268.037 93.413,269.845L96.72,269.979C96.72,269.979 94.896,267.246 94.896,267.246L95.955,263.598ZM142.254,117.954C142.609,119.007 142.897,120.11 143.119,121.264C143.594,123.737 143.713,126.268 143.474,128.856C143.236,131.444 142.48,134.212 141.201,137.159C139.93,140.086 138.166,142.942 135.909,145.725C132.786,149.574 129.497,152.63 126.045,154.897C123.748,156.406 121.536,157.521 119.411,158.248C121.699,158.61 124.274,158.111 127.088,156.889C128.274,155.949 129.579,155.142 131.002,154.469C133.768,153.162 136.5,152.579 139.198,152.712C141.986,152.85 144.177,153.78 145.784,155.471C147.537,157.314 148.29,159.378 148.069,161.652C147.855,163.856 146.913,166.003 145.225,168.084C143.119,170.68 140.312,172.658 136.797,174.009C137.234,174.304 137.814,174.451 138.525,174.473C139.832,174.513 141.534,174.137 143.635,173.369L154.716,167.306C154.722,167.303 154.727,167.3 154.732,167.297C155.295,167.009 155.78,167.097 156.194,167.532C156.194,167.532 159.459,170.966 159.459,170.966C159.613,171.128 159.744,171.401 159.689,171.821C159.637,172.217 159.43,172.492 159.067,172.64C159.067,172.64 158.738,172.819 158.739,172.819C160.765,172.995 162.407,173.763 163.673,175.094C164.787,176.266 165.278,177.516 165.19,178.825C165.134,179.647 164.843,180.502 164.303,181.385C164.987,181.287 165.622,181.24 166.206,181.244C167.309,181.253 168.241,181.425 169.006,181.746C169.769,182.067 170.351,182.39 170.757,182.707C171.15,183.012 171.591,183.421 172.081,183.936C173.167,185.079 173.676,186.377 173.623,187.825C173.572,189.242 173.1,190.5 172.209,191.6C171.366,192.639 170.305,193.556 169.024,194.348C169.015,194.353 169.005,194.359 168.996,194.364C165.343,196.385 162.768,197.839 161.27,198.723C159.865,199.554 158.931,200.228 158.488,200.774C158.234,201.087 158.073,201.318 158.267,201.523C158.396,201.658 158.64,201.706 158.968,201.748C159.715,201.843 160.801,201.77 162.227,201.546C164.059,201.258 165.986,200.777 168.007,200.105C169.219,199.13 170.557,198.296 172.02,197.605C174.785,196.297 177.518,195.715 180.216,195.848C183.003,195.985 185.194,196.916 186.802,198.607C188.555,200.45 189.308,202.514 189.087,204.788C188.872,206.992 187.931,209.139 186.242,211.22C184.136,213.816 181.329,215.794 177.814,217.145C178.251,217.44 178.831,217.587 179.543,217.609C180.85,217.649 182.551,217.273 184.653,216.504L195.734,210.442C195.739,210.439 195.744,210.436 195.75,210.433C196.312,210.145 196.798,210.233 197.211,210.668C197.211,210.668 200.476,214.102 200.476,214.102C200.713,214.351 200.809,214.663 200.713,215.051C200.654,215.289 200.535,215.484 200.349,215.626C200.624,215.682 200.89,215.752 201.147,215.836C202.081,216.14 202.758,216.472 203.187,216.81C203.591,217.129 204.066,217.573 204.609,218.144C205.664,219.254 206.168,220.541 206.132,222.004C206.095,223.439 205.63,224.707 204.737,225.808C203.894,226.847 202.833,227.764 201.552,228.556C201.541,228.562 201.53,228.569 201.519,228.575C197.845,230.565 195.266,232.009 193.784,232.906C192.389,233.752 191.46,234.435 191.016,234.982C190.899,235.127 190.809,235.262 190.752,235.39C190.7,235.506 190.678,235.607 190.755,235.688C190.894,235.834 191.148,235.894 191.489,235.942C192.243,236.046 193.332,235.978 194.755,235.754C196.86,235.423 199.08,234.827 201.415,233.968L226.476,220.281C226.481,220.278 226.486,220.276 226.492,220.273C227.054,219.985 227.54,220.073 227.953,220.508C227.953,220.508 231.177,223.899 231.177,223.899C231.411,224.145 231.5,224.433 231.448,224.765C231.403,225.05 231.254,225.304 230.969,225.503C230.949,225.516 230.929,225.529 230.908,225.54C230.908,225.54 216.462,233.452 216.462,233.452C218.582,233.776 220.288,234.633 221.587,235.999C222.643,237.109 223.159,238.343 223.158,239.691C223.158,241.024 222.712,242.248 221.811,243.358C220.631,244.813 218.959,245.609 216.779,245.712C214.92,245.8 212.908,245.162 210.758,243.76C210.559,244.397 210.253,245.093 209.835,245.846C209.216,246.957 208.625,247.907 208.062,248.696C207.554,249.409 207.181,250.123 206.946,250.843C206.784,251.34 206.79,251.741 207.067,252.033C207.185,252.157 207.366,252.226 207.595,252.275C207.926,252.346 208.338,252.357 208.83,252.319C210.478,252.192 212.921,251.513 216.164,250.302C217.312,249.41 218.569,248.64 219.935,247.994C222.7,246.687 225.433,246.105 228.131,246.238C230.918,246.375 233.109,247.305 234.717,248.996C236.47,250.84 237.223,252.903 237.001,255.178C236.787,257.381 235.846,259.528 234.157,261.61C232.049,264.208 229.24,266.187 225.721,267.538C226.459,268.05 227.599,268.124 229.117,267.864C229.762,267.352 230.37,267.186 230.913,267.281C233.6,266.443 237.934,264.791 243.912,262.326C245.952,261.479 247.683,261.822 249.111,263.324C249.638,263.878 249.981,264.539 250.134,265.312C252.704,255.669 254.074,245.536 254.074,235.085C254.074,172.188 204.445,120.792 142.254,117.954ZM232.204,252.847C232.499,253.157 232.534,253.576 232.39,254.091C232.189,254.809 231.669,255.661 230.855,256.664C229.529,258.299 227.854,259.741 225.833,260.995C225.194,260.658 224.383,260.58 223.391,260.817C222.275,261.082 221.359,261.657 220.643,262.539C220.325,262.931 220.106,263.314 219.976,263.683C218.658,264.074 217.55,264.264 216.649,264.24C215.824,264.219 215.195,264.024 214.783,263.592C214.511,263.305 214.553,262.856 214.735,262.258C214.986,261.434 215.485,260.572 216.221,259.665C217.766,257.76 219.741,256.143 222.14,254.81C224.537,253.478 226.714,252.662 228.677,252.376C229.611,252.24 230.392,252.217 231.022,252.32C231.538,252.404 231.937,252.567 232.204,252.847ZM169.743,249.334L176.007,252.188L179.241,263.569L169.743,249.334ZM137.657,250.424L144.568,246.216L145.391,238.864L151.685,243.658L159.242,241.481L156.745,250.011L161.037,256.48L152.508,256.069L147.568,261.394L144.979,253.804L137.657,250.424ZM93.065,254.373C92.686,254.936 92.218,255.437 91.68,255.854L93.838,257.628C93.838,257.628 93.065,254.373 93.065,254.373ZM19.892,243.913L30.396,239.854L39.892,245.33L30.696,251.158L20.154,246.913C20.055,245.921 19.967,244.919 19.892,243.913ZM177.771,247.63L179.977,246.275L180.242,243.924L182.271,245.453L184.683,244.775L183.889,247.511L185.242,249.569L182.534,249.452L180.947,251.158L180.094,248.718L177.771,247.63ZM85.767,245.33L71.954,250.362L62.099,245.33L72.204,240.111L85.767,245.33ZM187.216,238.99C186.818,238.69 186.416,238.328 186.013,237.904C185.035,236.875 184.595,235.65 184.696,234.229C184.791,232.881 185.377,231.52 186.481,230.158C187.287,229.165 188.155,228.325 189.083,227.637C189.981,226.972 191.742,225.93 194.377,224.513C197.145,222.897 198.963,221.583 199.811,220.545C199.992,220.323 200.123,220.121 200.195,219.933C200.239,219.817 200.261,219.714 200.222,219.623C200.022,219.441 199.728,219.318 199.354,219.225C198.842,219.099 198.2,219.044 197.427,219.054C195.819,219.075 193.896,219.524 191.654,220.386L177.818,227.958C177.812,227.961 177.807,227.964 177.802,227.967C177.218,228.266 176.749,228.162 176.381,227.775L176.221,227.606L168.771,246.775L175.154,243.424L175.802,234.426L183.007,240.159L187.216,238.99ZM90.909,245.299L90.892,245.226C90.821,245.263 90.748,245.297 90.675,245.33C90.767,245.374 90.859,245.418 90.949,245.466L90.909,245.299ZM136.951,215.603L134.158,214.25L133.128,238.953L124.099,244.982L114.747,230.777L121.159,213.484L107.513,216.397L113.805,208.336L131.216,209.631L135.804,211.22L136.951,215.603ZM108.423,237.6L102.159,237.308L98.513,241.218L96.601,235.629L91.221,233.158L96.278,230.041L96.897,224.63L101.543,228.16L107.101,226.542L105.276,232.835L108.423,237.6ZM217.312,238.2C217.419,238.312 217.493,238.421 217.491,238.545C217.49,238.7 217.396,238.852 217.259,239.022C217.026,239.309 216.659,239.499 216.178,239.626C215.589,239.781 214.849,239.833 213.956,239.793C212.158,239.712 210.459,239.079 208.855,237.905C208.851,237.902 208.673,237.715 208.673,237.715C208.673,237.715 208.772,237.66 208.772,237.66C211.506,237.124 213.655,236.98 215.221,237.253C216.148,237.414 216.852,237.716 217.312,238.2ZM33.617,215.144L45.803,224.221L44.798,234.574L35.216,230.049L33.617,215.144ZM68.374,215.144L65.894,229.603L57.193,234.572L57.247,224.607L68.374,215.144ZM152.171,200.54L150.596,205.25L155.861,214.22L145.892,213.72L140.422,219.337L153.743,230.337L174.029,225.302L173.116,224.341C172.88,224.092 172.783,223.78 172.879,223.392C172.952,223.097 173.114,222.86 173.369,222.683C173.388,222.669 173.409,222.656 173.43,222.645C173.43,222.645 175.985,221.247 175.985,221.247C175.977,221.243 175.968,221.239 175.959,221.235C175.375,220.966 174.81,220.551 174.27,219.982C173.847,219.538 173.5,219.012 173.23,218.401C169.193,218.975 166.129,218.107 164.017,215.886C162.318,214.099 161.597,212.086 161.833,209.856C161.973,208.525 162.44,207.139 163.243,205.701C161.267,206.193 159.67,206.344 158.456,206.179C157.172,206.004 156.201,205.722 155.539,205.355C154.879,204.99 154.192,204.44 153.485,203.696C152.623,202.789 152.185,201.737 152.171,200.54ZM64.079,143.141L70.546,145.608L72.309,151.812L72.104,167.459L61.28,174.605L73.22,179.604L77.192,191.927L84.455,182.341L94.748,183.163L94.574,185.811L78.604,196.25L83.984,199.367L80.191,200.339L72.897,194.369L71.956,203.573L68.783,205.8L68.77,205.788C66.245,203.605 62.358,203.809 60.085,206.234C60.052,206.269 60.022,206.305 59.993,206.34L57.193,209.706L57.193,202.293C57.193,198.979 54.444,196.242 50.997,196.242C47.547,196.242 44.798,198.979 44.798,202.293L44.798,209.706L41.998,206.34C41.969,206.305 41.939,206.269 41.906,206.234C39.633,203.809 35.746,203.605 33.221,205.788C31.676,207.124 30.977,209.024 31.152,210.871C29.641,209.796 27.649,209.456 25.722,210.131C22.578,211.23 20.81,214.7 21.769,217.88C21.783,217.926 21.796,217.97 21.813,218.015L23.325,222.142L20.466,220.486C24.353,189.233 40.563,161.778 64.079,143.141ZM81.367,214.368L80.453,215.505C80.529,216.287 80.46,217.092 80.222,217.88C80.209,217.926 80.195,217.97 80.178,218.015L78.666,222.142L85.066,218.437C86.073,217.855 87.185,217.602 88.282,217.649L88.425,215.19L81.367,214.368ZM184.289,202.458C184.584,202.768 184.619,203.187 184.475,203.701C184.274,204.419 183.754,205.272 182.94,206.275C181.614,207.909 179.939,209.352 177.918,210.605C177.279,210.268 176.468,210.191 175.476,210.427C174.36,210.693 173.444,211.268 172.729,212.15C172.41,212.542 172.191,212.925 172.061,213.294C170.743,213.684 169.635,213.874 168.734,213.851C167.909,213.829 167.28,213.634 166.869,213.202C166.596,212.915 166.638,212.467 166.82,211.869C167.071,211.044 167.571,210.182 168.306,209.276C169.851,207.371 171.826,205.754 174.225,204.42C176.622,203.088 178.799,202.273 180.762,201.986C181.696,201.85 182.478,201.827 183.107,201.93C183.623,202.015 184.023,202.178 184.289,202.458ZM85.514,207.014L88.102,200.839L96.601,204.074L99.043,213.808L89.278,205.925L89.132,206.044L88.308,210.955L85.514,207.014ZM82.514,210.544L80.985,208.221L81.867,205.193L79.19,205.955L76.956,204.28L76.662,206.868L74.192,208.398L76.81,209.574L77.123,210.504C77.62,210.767 78.073,211.095 78.475,211.475L79.486,210.398L82.514,210.544ZM146.862,208.692L143.215,208.544L141.127,210.807L140.01,207.573L136.892,206.132L139.834,204.309L140.185,201.192L142.862,203.219L146.098,202.31L145.039,205.955L146.862,208.692ZM153.443,196.734C153.61,196.487 153.793,196.24 153.994,195.993C154.8,195 155.668,194.16 156.596,193.472C157.493,192.807 159.254,191.765 161.886,190.35C164.64,188.715 166.453,187.393 167.305,186.357C167.488,186.135 167.621,185.933 167.695,185.745C167.738,185.636 167.765,185.54 167.732,185.455C167.519,185.261 167.209,185.128 166.815,185.031C166.283,184.899 165.617,184.844 164.816,184.858C163.155,184.886 161.165,185.392 158.834,186.36C158.58,186.511 158.349,186.658 158.142,186.802C158.123,186.815 158.104,186.827 158.085,186.838C156.155,187.912 151.898,190.212 145.317,193.735C145.061,193.904 144.81,193.957 144.576,193.936C144.326,193.913 144.078,193.803 143.853,193.567C143.853,193.567 140.302,189.832 140.302,189.832C140.091,189.611 139.981,189.318 140.031,188.935C140.083,188.538 140.291,188.263 140.655,188.115C147.077,184.652 151.267,182.366 153.224,181.257C154.663,180.412 155.772,179.759 156.55,179.296C157.303,178.849 157.981,178.388 158.585,177.914C159.065,177.537 159.381,177.242 159.466,176.969C159.506,176.843 159.444,176.735 159.338,176.623C159.13,176.405 158.806,176.271 158.383,176.183C157.849,176.071 157.179,176.045 156.374,176.097C154.674,176.206 152.401,176.791 149.552,177.839L136.8,184.823C136.795,184.825 136.79,184.828 136.784,184.831C136.201,185.13 135.732,185.026 135.364,184.639C135.364,184.639 132.099,181.205 132.099,181.205C131.862,180.957 131.766,180.644 131.862,180.256C131.934,179.961 132.097,179.724 132.351,179.547C132.371,179.533 132.391,179.521 132.412,179.509L134.968,178.111L134.942,178.099C134.358,177.83 133.793,177.415 133.252,176.847C132.83,176.402 132.482,175.876 132.212,175.265C130.805,175.465 129.517,175.49 128.345,175.343L122.306,192.398L129.863,203.515L134.01,201.427L135.422,189.809L143.481,197.28L154.274,194.25L153.443,196.734ZM103.629,192.104L104.248,186.693L108.894,190.222L114.453,188.605L112.601,194.897L115.777,199.663L109.482,199.367L105.835,203.281L103.923,197.691L98.543,195.22L103.629,192.104ZM77.897,171.429L78.337,167.43L81.778,170.016L85.896,168.84L84.543,173.488L86.866,177.018L82.22,176.782L79.544,179.693L78.132,175.546L74.133,173.723L77.897,171.429ZM111.032,159.265L114.276,164.488L105.19,163.989L99.925,169.899L109.924,179.399L126.777,175.025C125.289,174.597 124.031,173.835 122.999,172.75C121.3,170.963 120.58,168.95 120.815,166.72C120.903,165.886 121.12,165.031 121.467,164.154C117.236,162.899 112.708,160.489 111.499,159.301C111.343,159.291 111.187,159.279 111.032,159.265ZM94.514,161.341L96.985,162.165L98.159,168.871L95.955,167.105L95.131,178.694L90.337,172.399L94.514,161.341ZM143.272,159.322C143.566,159.632 143.601,160.051 143.458,160.565C143.257,161.283 142.736,162.136 141.923,163.139C140.597,164.773 138.922,166.216 136.901,167.47C136.262,167.132 135.45,167.055 134.459,167.291C133.342,167.557 132.427,168.132 131.711,169.014C131.393,169.406 131.174,169.789 131.044,170.158C129.726,170.548 128.618,170.738 127.716,170.715C126.892,170.694 126.262,170.499 125.851,170.066C125.578,169.78 125.62,169.331 125.802,168.733C126.053,167.908 126.553,167.046 127.288,166.14C128.834,164.235 130.808,162.618 133.208,161.284C135.604,159.953 137.782,159.137 139.744,158.851C140.678,158.714 141.46,158.692 142.09,158.795C142.605,158.879 143.005,159.042 143.272,159.322ZM83.074,163.666L76.485,157.665L83.337,148.607L95.69,149.489L95.338,154.195L88.573,158.167L92.865,160.636L83.074,163.666ZM100.435,154.381L100.248,156.018L97.779,157.519L100.396,158.724L101.308,161.429L103.07,159.548L106.1,159.665L104.622,157.447C103.09,156.664 101.694,155.642 100.435,154.381ZM137.551,117.832L136.819,117.829C128.772,117.829 120.914,118.642 113.318,120.189C113.563,121.273 113.298,122.32 112.485,123.321C110.972,125.187 108.725,126.38 105.726,126.863C102.678,127.353 100.138,126.522 98.103,124.383C96.695,124.875 95.3,125.394 93.918,125.938L92.115,131.733C92.364,131.921 92.62,132.081 92.883,132.212C93.426,132.482 94.24,132.595 95.32,132.589C96.483,132.584 97.856,132.344 99.441,131.877C101.074,131.396 103.215,130.549 105.864,129.337C108.536,128.116 111.607,126.541 115.077,124.613C120.908,121.342 125.596,119.467 129.13,118.963C132.871,118.43 135.664,119.198 137.537,121.167C138.367,122.041 138.556,122.984 138.152,123.981C137.955,124.525 137.65,124.76 137.43,124.83C137.148,124.921 136.827,124.888 136.523,124.569C135.729,123.733 134.464,123.544 132.755,123.863C130.82,124.224 128.651,125.047 126.244,126.323C123.779,127.629 121.115,129.164 118.254,130.928C115.375,132.703 112.476,134.44 109.557,136.139C106.622,137.848 103.839,139.307 101.207,140.517C98.51,141.757 96.028,142.453 93.764,142.615L93.571,142.626L96.043,146.373L96.424,144.019L97.399,144.941C97.567,144.35 97.82,143.851 98.15,143.444C98.461,143.061 98.784,142.802 99.105,142.652C99.682,142.381 100.121,142.501 100.442,142.838C100.49,142.889 100.563,142.977 100.607,143.131C100.634,143.224 100.669,143.598 100.675,144.255C100.681,144.81 100.856,145.516 101.183,146.378C101.515,147.255 102.073,148.099 102.849,148.915C103.213,149.298 103.603,149.642 104.018,149.947L112.042,147.785L111.083,151.715C112.411,151.629 113.791,151.363 115.223,150.918C117.79,150.122 120.495,148.677 123.343,146.593C126.216,144.491 128.918,141.878 131.452,138.755C135.779,133.42 138.117,128.533 138.417,124.07C138.566,121.846 138.277,119.767 137.551,117.832ZM75.665,135.043C76.512,134.523 77.364,134.016 78.223,133.519L79.749,134.667L84.19,133.374L82.72,138.431L85.251,142.255L80.22,142.02L77.309,145.137L75.78,140.668L71.456,138.668L75.543,136.168L75.665,135.043ZM153.862,80.436L179.889,104.287L180.419,105.288L180.29,105.606L180.195,106.039L180.189,106.092C174.413,104.148 168.461,102.581 162.366,101.421L161.821,100.432L161.261,99.409L160.126,97.318C160.038,97.141 159.95,96.995 159.89,96.847C157.125,91.759 155.303,86.083 153.862,80.436ZM126.011,79.759C123.982,85.819 121.482,91.818 117.923,97.024L117.894,97.024C117.835,97.141 117.775,97.229 117.687,97.318C117.658,97.406 117.57,97.523 117.452,97.671L117.042,98.249L116.246,99.381L115.61,100.266L115.274,100.721C108.993,101.722 102.856,103.153 96.893,104.984L96.631,104.2L98.278,101.641L126.011,79.759ZM140.465,49.848L140.627,49.852C142.334,49.909 143.98,50.645 145.127,51.938C146.303,53.174 146.951,54.849 146.862,56.556C146.803,58.291 146.038,59.908 144.803,61.086C143.509,62.26 141.863,62.879 140.128,62.819C138.421,62.762 136.775,62.026 135.628,60.733C134.452,59.497 133.804,57.82 133.864,56.115C133.952,54.35 134.717,52.763 135.95,51.587C137.096,50.519 138.581,49.913 140.141,49.852L140.465,49.848ZM212.533,14.49L212.739,14.493C220.061,14.64 222.354,22.1 218.297,30.998C205.399,42.147 189.145,48.573 172.115,49.219L171.713,49.233C178.065,33.087 191.329,20.618 207.857,15.296C209.586,14.744 211.148,14.488 212.533,14.49ZM70.673,9.257C72.254,9.253 74.061,9.626 76.074,10.442C92.16,16.971 104.454,30.352 109.63,46.91C92.543,45.117 76.633,37.47 64.545,25.293C61.224,16.382 63.823,9.274 70.673,9.257Z" style="fill:none;stroke:rgb(255,0,0);stroke-width:1px;"/>
</svg>
