<?xml version="1.0" encoding="UTF-8" standalone="no"?>
<!DOCTYPE svg PUBLIC "-//W3C//DTD SVG 1.1//EN" "http://www.w3.org/Graphics/SVG/1.1/DTD/svg11.dtd">
<svg width="100%" height="100%" viewBox="0 0 1123 794" version="1.1" xmlns="http://www.w3.org/2000/svg" xmlns:xlink="http://www.w3.org/1999/xlink" xml:space="preserve" xmlns:serif="http://www.serif.com/" style="fill-rule:evenodd;clip-rule:evenodd;stroke-linejoin:round;stroke-miterlimit:2;">
    <path d="M144.768,40.265C146.525,40.302 148.11,40.912 149.422,41.91C150.863,43.057 151.891,44.704 152.273,46.587C152.802,46.587 182.859,16.178 188.975,12.177C194.836,8.337 202.831,5.966 211.003,5.93C211.404,5.929 211.807,5.932 212.21,5.942C221.975,6.413 230.502,10.413 234.032,19.412C239.942,32.998 232.913,47.381 232.854,60.821C232.825,76.702 247.707,93.348 235.179,108.435C229.972,113.729 222.856,118.846 215.857,121.903L215.797,121.903L214.909,122.185L213.44,122.66C235.271,137.575 252.544,158.68 262.718,183.428L263.146,184.482L263.635,185.717L264.183,187.147L264.715,188.58L264.956,189.247L265.465,190.694L265.958,192.147L266.475,193.735L266.941,195.223L267.39,196.719L267.822,198.222L268.318,200.033L268.765,201.757L269.14,203.283L269.499,204.816L269.84,206.356L270.097,207.582L270.267,208.418L270.567,209.973L270.849,211.533L271.113,213.1L271.309,214.338L271.419,215.073L271.66,216.779L271.864,218.366L272.05,219.958L272.182,221.204L272.257,221.958L272.366,223.158L272.397,223.517L272.519,225.075L272.624,226.63L272.71,228.177L272.746,228.945L272.807,230.524L272.85,232.102C272.861,232.627 272.87,233.152 272.875,233.676L272.882,235.204L272.88,235.812C272.877,236.27 272.873,236.727 272.866,237.183L272.845,238.277C272.836,238.637 272.827,238.997 272.816,239.357L272.77,240.666L272.707,242.056L272.66,242.916C272.616,243.693 272.566,244.469 272.509,245.242L272.378,246.891L272.235,248.448L272.115,249.632L271.964,250.996L271.773,252.558L271.607,253.813L271.429,255.064L271.176,256.717L270.983,257.897L270.743,259.275L270.405,261.091L270.108,262.584L269.863,263.752L269.428,265.714L269.074,267.212L268.795,268.344L268.42,269.801L268.042,271.21L267.725,272.344L267.361,273.601L266.892,275.16L266.363,276.838L265.822,278.487L265.452,279.56L265.025,280.738L264.863,281.178C264.752,281.514 264.639,281.848 264.5,282.186C263.205,285.714 261.764,289.155 260.177,292.537C259.764,293.448 259.353,294.331 258.911,295.213C258.206,296.654 257.441,298.096 256.707,299.508C256.647,299.565 256.619,299.654 256.588,299.713C255.177,302.329 253.677,304.919 252.09,307.419L251.385,308.513L250.98,309.103L250.316,310.136L249.767,310.943L249.354,311.546L249.354,311.565C249.088,312.005 248.794,312.416 248.472,312.829C247.32,314.5 246.13,316.138 244.904,317.745L244.816,317.86C243.221,319.948 241.565,321.984 239.854,323.976L239.073,324.871L238.079,325.991L237.478,326.655L236.874,327.314L236.265,327.97L235.652,328.622L235.034,329.27L234.413,329.913L233.787,330.553L233.157,331.188L232.523,331.819L231.885,332.446L231.243,333.069L230.597,333.688L229.946,334.303L229.292,334.913L228.634,335.519L227.305,336.718L225.961,337.9L224.601,339.064L223.226,340.21L221.835,341.339L220.43,342.45L219.251,343.358L218.294,344.082L217.12,344.95L216.125,345.672L214.957,346.501L213.924,347.22L212.763,348.011L211.691,348.725L210.538,349.478L209.428,350.187L208.283,350.903L207.134,351.605L205.999,352.284L204.81,352.979L203.686,353.621L202.128,354.488L200.557,355.336L199.718,355.777L198.921,356.19L198.122,356.597L197.319,356.999L196.514,357.396L195.706,357.788L194.894,358.175L194.08,358.556L193.263,358.932L192.443,359.303L191.621,359.668L190.795,360.029L189.967,360.383L189.136,360.733L188.303,361.077L187.466,361.416L186.627,361.749L185.472,362.197L184.208,362.674L183.508,362.932C175.658,365.798 167.471,367.962 159.021,369.348L157.605,369.572L156.197,369.781L154.318,370.035L152.436,370.263L150.549,370.465L148.516,370.653L146.646,370.8L144.654,370.927L142.787,371.02L140.923,371.087L139.53,371.121L138.144,371.142L136.819,371.148L135.472,371.141L135.01,371.136L133.308,371.103L132.116,371.068L131.571,371.048C131.011,371.027 130.452,371.002 129.893,370.974L128.91,370.921L128.07,370.87L126.787,370.783L125.344,370.67L124.595,370.605L123.757,370.528L122.78,370.431L121.461,370.29L119.917,370.108L119.147,370.01L118.622,369.94C61.059,362.253 14.891,318.582 3.474,262.277L3.239,261.09L2.955,259.579L2.689,258.062L2.439,256.54L2.206,255.012L1.989,253.478L1.79,251.939L1.609,250.395L1.444,248.846L1.295,247.267L1.199,246.139L1.071,244.412L1.03,243.782L0.93,242.013L0.887,241.098L0.867,240.61L0.814,239.101L0.782,237.765L0.762,236.427L0.756,235.069L0.761,233.92L0.78,232.504L0.814,231.055L0.874,229.343L0.941,227.924L1.04,226.215L1.16,224.51L1.339,222.399L1.503,220.733L1.754,218.52L1.965,216.867L2.116,215.769L2.36,214.126L2.623,212.491L2.832,211.276L3.004,210.32L3.25,209.022L3.391,208.305L3.7,206.805L3.847,206.115L4.228,204.413L4.525,203.156L4.699,202.441L5.07,200.971L5.248,200.286L5.705,198.602L6.047,197.393L6.255,196.679L6.685,195.245L7.142,193.78L7.652,192.213L8.179,190.657L8.724,189.112L9.286,187.576L9.865,186.051L10.462,184.535L11.076,183.028L11.589,181.809L12.228,180.334L12.884,178.867L13.557,177.41L14.247,175.963L14.953,174.524L15.675,173.096L16.414,171.677L17.169,170.268L17.681,169.334L18.2,168.404L18.727,167.479L19.26,166.559L19.8,165.643L20.347,164.732L20.901,163.825L21.462,162.923L21.995,162.081C24.011,158.918 26.155,155.843 28.418,152.865L29.105,151.969L30.119,150.673L31.137,149.404L32.163,148.156L33.2,146.924L34.249,145.708L35.309,144.506L36.64,143.037L37.833,141.756L39.206,140.322L40.549,138.958L41.845,137.678L43.198,136.376L44.743,134.932L46.31,133.513L47.5,132.464L48.702,131.429L49.916,130.407L51.142,129.4L52.38,128.406L53.63,127.427L54.892,126.462L56.165,125.511L57.449,124.575L58.745,123.654L60.052,122.747L61.369,121.855L62.698,120.978L64.037,120.117L64.936,119.551L65.84,118.992C65.398,118.817 65.044,118.669 64.75,118.492L64.722,118.492C55.281,115.374 48.341,108.758 41.958,101.287C30.577,85.318 46.666,69.791 47.751,53.967C48.723,40.557 42.782,25.706 49.694,12.56C53.84,3.853 62.664,0.531 72.427,0.768C81.014,1.208 89.338,4.267 95.161,8.707C107.57,18.236 119.159,31.999 128.776,45.146C128.776,44.116 130.394,42.292 132.157,41.293C133.276,40.617 134.598,40.263 136.01,40.263L144.597,40.263L144.768,40.265ZM233.106,301.981L233,302.134C230.483,303.681 227.993,305.253 225.474,306.802C223.721,307.892 224.466,310.555 226.475,310.623C225.699,311.543 224.907,312.453 224.102,313.349L223.767,313.36C222.62,313.389 221.681,314.328 221.65,315.475C221.645,315.641 221.659,315.803 221.69,315.957C200.328,338.368 170.192,352.34 136.819,352.34C129.603,352.34 122.539,351.687 115.679,350.436L134.186,327.506L164.772,329.681L159.508,320.888L165.184,312.093L175.802,312.975L170.243,303.566L173.565,295.625L181.093,299.3L186.535,320.035L200.475,303.418L218.297,304.448C218.326,304.8 218.445,305.153 218.65,305.447C219.327,306.417 220.62,306.683 221.621,306.066C224.267,304.448 226.915,302.799 229.591,301.155C230.762,301.438 231.935,301.697 233.106,301.981ZM107.895,341.033L113.364,348.678L110.159,337.003L107.895,341.033ZM104.571,345.769L100.63,345.592L99.878,346.393C99.065,346.123 98.255,345.844 97.449,345.556L97.102,344.532L93.718,342.975L96.925,341.004L97.306,337.591L100.219,339.797L103.749,338.798L102.571,342.768L104.571,345.769ZM85.131,273.303L79.354,270.4L80.178,272.648C80.193,272.692 80.209,272.736 80.222,272.78C81.181,275.96 79.411,279.432 76.27,280.531C74.342,281.206 72.35,280.866 70.84,279.792C71.014,281.638 70.315,283.537 68.77,284.872C67.596,285.888 66.126,286.394 64.662,286.394C62.977,286.394 61.301,285.725 60.085,284.426C60.052,284.392 60.022,284.357 59.993,284.321L57.193,280.956L57.193,288.369C57.193,291.684 54.444,294.418 50.997,294.418C47.547,294.418 44.798,291.684 44.798,288.369L44.798,280.956L41.998,284.321C41.969,284.357 41.939,284.392 41.906,284.426C39.633,286.853 35.746,287.057 33.221,284.874L33.221,284.872C31.676,283.537 30.977,281.638 31.152,279.792C30.457,280.285 29.66,280.624 28.814,280.779C39.992,307.142 60.547,328.582 86.29,340.908L91.19,337.739L92.396,325.651L101.189,333.062L108.66,330.739L105.749,320.828L76.779,308.771L84.691,302.624L82.543,295.744L74.367,291.949L81.926,286.273L82.749,277.684L87.308,281.333L85.131,273.303ZM117.923,310.182L108.954,306.066L117.395,300.861L118.423,291.83L126.187,297.713L135.451,295.037L132.392,305.535L137.657,313.475L127.187,312.975L121.099,319.533L117.923,310.182ZM158.478,319.476L151.155,307.801L156.126,310.066L158.478,319.476ZM156.891,305.007L159.832,303.212L160.184,300.067L162.889,302.125L166.096,301.183L165.036,304.83L166.861,307.595L163.243,307.419L161.125,309.711L160.007,306.448L156.891,305.007ZM169.832,294.508L163.95,296.566L155.684,289.92L154.539,300.772L148.686,303.77L158.714,273.038L151.862,274.421L157.803,267.421L179.124,269.362L177.948,279.302L160.979,290.508L169.832,294.508ZM223.767,299.771C222.62,300.476 221.444,301.212 220.268,301.948L218.827,299.713C219.267,299.448 219.709,299.183 220.151,298.889C221.356,299.183 222.561,299.477 223.767,299.771ZM91.073,297.625L88.014,301.654L94.543,297.832L91.073,297.625ZM229.765,281.162C227.94,281.591 226.428,281.762 225.229,281.686C223.678,281.587 222.514,281.315 221.731,280.903C220.954,280.494 220.141,279.845 219.301,278.947C218.045,277.603 217.453,275.921 217.544,273.894C217.608,272.46 218.006,271.113 218.741,269.854C217.747,270.073 216.814,270.211 215.944,270.268L210.092,286.304L214.679,293.332C214.886,293.39 215.092,293.448 215.297,293.478C215.003,293.008 214.709,292.537 214.444,292.068C213.827,291.067 214.15,289.772 215.209,289.213C216.208,288.655 217.503,289.009 218.12,289.979C219.121,291.624 220.12,293.244 221.091,294.862C222.326,295.154 223.533,295.448 224.738,295.744C223.798,294.214 222.885,292.712 221.975,291.213C221.356,290.183 221.681,288.89 222.737,288.331C223.738,287.802 225.032,288.125 225.65,289.124C227.268,291.772 228.915,294.449 230.531,297.123C231.737,297.39 232.973,297.682 234.178,297.978C232.591,295.39 231.002,292.802 229.414,290.214C228.325,288.419 230.296,286.304 232.178,287.303C234.692,288.656 237.18,290.008 239.692,291.362L239.958,290.875C239.678,289.929 239.398,288.992 239.12,288.037C236.355,286.567 233.619,285.068 230.856,283.596C229.986,283.137 229.54,282.1 229.765,281.162ZM202.504,293.509L195.447,293.184L191.358,297.567L189.212,291.301L183.182,288.507L188.858,285.008L189.565,278.948L194.77,282.891L201.006,281.098L198.946,288.154L202.504,293.509ZM92.631,293.39L89.278,293.213L87.308,295.331L86.279,292.331L83.396,291.007L86.132,289.332L86.455,286.419L88.926,288.302L91.926,287.449L90.927,290.83L92.631,293.39ZM95.661,275.126L103.66,275.774L102.836,292.331L98.924,294.566L95.807,289.772L98.543,281.596L89.338,283.271L95.661,275.126ZM236.592,279.049C235.43,279.46 234.351,279.824 233.355,280.14C234.709,280.874 236.061,281.591 237.414,282.332C237.22,281.671 236.9,280.328 236.592,279.049ZM161.112,120.354C164.682,122.367 168.027,125.041 171.145,128.377C173.17,130.543 174.887,132.936 176.296,135.556C177.708,138.181 178.727,141.096 179.348,144.303C179.968,147.501 180.127,150.761 179.824,154.084C179.521,157.407 178.548,160.946 176.898,164.698C175.257,168.431 172.978,172.055 170.057,175.569C166.016,180.431 161.757,184.266 157.285,187.077C152.774,189.912 148.516,191.588 144.518,192.12C142.282,192.418 140.117,192.451 138.022,192.22L143.481,197.28L154.274,194.25L154.007,195.048C154.321,194.618 154.659,194.186 155.02,193.752C157.427,190.856 160.405,188.617 163.956,187.036C167.519,185.45 171.042,184.791 174.522,185.05C178.084,185.315 180.888,186.564 182.946,188.766C185.183,191.159 186.149,193.8 185.872,196.676C185.601,199.489 184.392,202.204 182.224,204.812C179.447,208.153 175.722,210.639 171.039,212.257C171.582,212.75 172.327,213.04 173.26,213.15C174.681,213.318 176.504,213.074 178.732,212.444C178.862,212.299 179.037,212.203 179.258,212.162C186.405,209.384 192.066,206.851 196.239,204.562C196.237,203.272 196.547,202.295 197.111,201.616C198.086,200.444 199.114,199.816 200.159,199.675C201.296,199.521 202.241,199.855 202.997,200.664C203.652,201.365 203.961,202.243 203.901,203.307C203.845,204.305 203.451,205.262 202.697,206.169C202.581,206.309 202.442,206.443 202.279,206.57C202.279,206.57 202.35,207.065 202.35,207.065C202.635,208.423 202.83,209.467 202.934,210.194C203.04,210.929 203.129,211.869 203.202,213.014C203.279,214.228 203.177,215.279 202.908,216.169C202.631,217.084 202.214,217.872 201.66,218.539C201.107,219.204 200.338,219.784 199.343,220.266C199.338,220.268 199.334,220.271 199.329,220.273C189.757,224.644 184.082,227.842 182.343,229.934C181.901,230.466 181.699,230.878 182.021,231.223C182.079,231.284 182.2,231.292 182.357,231.323C182.662,231.384 183.064,231.412 183.563,231.413C184.635,231.415 186.424,231.117 188.929,230.531C191.272,229.984 193.938,229.181 196.926,228.125L228.736,211.639C228.742,211.636 228.747,211.633 228.752,211.631C229.388,211.322 229.939,211.427 230.407,211.929C230.407,211.929 234.609,216.424 234.609,216.424C234.866,216.698 234.962,217.017 234.905,217.377C234.853,217.701 234.682,217.984 234.355,218.203C234.335,218.216 234.314,218.229 234.292,218.24C234.292,218.24 214.994,228.271 214.995,228.271C217.988,228.68 220.374,229.853 222.16,231.765C223.494,233.191 224.149,234.756 224.151,236.447C224.153,238.132 223.588,239.663 222.446,241.037C220.946,242.843 218.816,243.795 216.038,243.855C213.595,243.908 210.946,242.975 208.107,241.016C207.859,241.886 207.444,242.843 206.855,243.883C206.057,245.294 205.294,246.499 204.567,247.498C203.896,248.418 203.405,249.346 203.096,250.284C202.858,251.007 202.898,251.593 203.307,252.032C203.497,252.234 203.787,252.359 204.16,252.442C204.639,252.547 205.236,252.571 205.951,252.523C208.271,252.367 211.733,251.458 216.34,249.813C216.469,249.731 216.6,249.65 216.732,249.57C219.149,248.102 221.656,246.978 224.255,246.196C226.9,245.4 229.543,245.214 232.184,245.637C234.883,246.07 237.077,247.199 238.771,249.012C240.615,250.984 241.266,253.152 240.725,255.514C241.228,255.375 241.672,255.518 242.061,255.933C242.061,255.933 246.316,260.485 246.316,260.485C246.576,260.763 246.676,261.108 246.571,261.53C246.487,261.868 246.299,262.136 246.004,262.333C245.984,262.347 245.963,262.359 245.941,262.371C237.725,266.631 232.408,269.511 229.991,271.013C227.646,272.47 226.004,273.749 225.076,274.865C224.673,275.35 224.469,275.717 224.758,276.027C224.894,276.172 225.166,276.214 225.54,276.253C226.379,276.342 227.619,276.245 229.261,275.977C232.096,275.516 235.648,274.505 239.921,272.951C239.97,272.933 240.022,272.92 240.075,272.915C240.463,272.871 240.713,273.008 240.868,273.174C241.022,273.338 241.137,273.587 241.078,273.943C240.996,275.234 240.927,276.155 240.873,276.695C240.854,277.095 240.715,277.376 240.49,277.56C240.819,278.922 241.175,280.431 241.383,281.125C242.236,279.569 243.09,278.039 243.912,276.479C244.5,275.42 245.766,275.096 246.796,275.714L246.825,275.733C251.513,263.07 254.074,249.374 254.074,235.085C254.074,178.699 214.188,131.555 161.112,120.354ZM98.806,255.804L106.454,245.776L120.717,247.071L112.218,252.716L135.51,262.245L139.303,278.155L128.657,280.979L104.542,260.512L103.66,269.596L100.984,266.009L104.69,255.07L98.806,255.804ZM33.617,275.518L35.978,260.906L44.798,256.088L45.284,265.759L33.617,275.518ZM68.374,275.516L56.423,266.816L57.193,256.088L66.785,261.932L68.374,275.516ZM191.413,240.503L189.181,246.452L193.977,254.57L184.8,253.892L181.418,258.158L196.505,270.363L208.821,267.713C207.428,266.041 206.898,264.054 207.241,261.75C207.475,260.176 208.071,258.589 209.035,256.99C208.988,257.003 208.942,257.015 208.896,257.027C206.494,257.664 204.54,257.94 203.039,257.869C201.462,257.795 200.286,257.534 199.501,257.121C198.726,256.713 197.877,256.027 196.964,255.05C195.588,253.578 194.953,251.939 195.036,250.141C195.116,248.407 195.633,246.768 196.592,245.227C197.499,243.769 198.459,242.369 199.473,241.026C200.436,239.751 201.152,238.547 201.615,237.408C201.975,236.524 201.988,235.823 201.512,235.313C201.512,235.313 201.485,235.284 201.485,235.284L191.413,240.503ZM95.955,263.598C95.955,263.598 93.726,264.232 93.726,264.232C94.485,265.959 94.443,268.037 93.413,269.845L96.72,269.979C96.72,269.979 94.896,267.246 94.896,267.246L95.955,263.598ZM233.661,259.2C231.464,260.349 229.624,261.377 228.14,262.285C223.764,264.018 220.421,264.946 218.107,265.043C216.777,265.098 215.827,264.902 215.291,264.329C215.028,264.048 214.989,263.639 215.081,263.121C215.201,262.448 215.575,261.756 216.179,261.029C217.637,259.275 219.761,257.553 222.543,255.855C225.332,254.152 228.102,252.981 230.854,252.346C233.36,251.768 235.115,251.895 236.093,252.94C236.59,253.472 236.579,254.27 236.227,255.321C235.81,256.568 234.949,257.856 233.661,259.2L233.661,259.2ZM169.743,249.334L176.007,252.188L179.241,263.569L169.743,249.334ZM137.657,250.424L144.568,246.216L145.391,238.864L151.685,243.658L159.242,241.481L156.745,250.011L161.037,256.48L152.508,256.069L147.568,261.394L144.979,253.804L137.657,250.424ZM93.065,254.373C92.686,254.936 92.218,255.437 91.68,255.854L93.838,257.628C93.838,257.628 93.065,254.373 93.065,254.373ZM177.771,247.63L179.977,246.275L180.242,243.924L182.271,245.453L184.683,244.775L183.889,247.511L185.242,249.569L182.534,249.452L180.947,251.158L180.094,248.718L177.771,247.63ZM19.892,243.913L30.396,239.854L39.892,245.33L30.696,251.158L20.154,246.913C20.055,245.921 19.967,244.919 19.892,243.913ZM85.767,245.33L71.954,250.362L62.099,245.33L72.204,240.111L85.767,245.33ZM174.922,230.948L168.771,246.775L175.154,243.424L175.802,234.426L183.007,240.159L183.037,240.151L181.062,238.038C180.802,237.76 180.702,237.415 180.807,236.993C180.843,236.847 180.899,236.713 180.975,236.593C180.217,236.476 179.583,236.306 179.071,236.087C178.179,235.705 177.322,235.083 176.507,234.211C175.648,233.292 175.116,232.205 174.922,230.948ZM90.909,245.299L90.892,245.226C90.821,245.263 90.748,245.297 90.675,245.33C90.767,245.374 90.859,245.418 90.949,245.466L90.909,245.299ZM136.951,215.603L134.158,214.25L133.128,238.953L124.099,244.982L114.747,230.777L121.159,213.484L107.513,216.397L113.805,208.336L131.216,209.631L135.804,211.22L136.951,215.603ZM108.423,237.6L102.159,237.308L98.513,241.218L96.601,235.629L91.221,233.158L96.278,230.041L96.897,224.63L101.543,228.16L107.101,226.542L105.276,232.835L108.423,237.6ZM216.885,234.224C217.068,234.42 217.181,234.614 217.179,234.825C217.176,235.06 217.047,235.293 216.838,235.544C216.515,235.933 216.009,236.188 215.341,236.346C214.56,236.532 213.576,236.577 212.391,236.493C210.003,236.325 207.745,235.431 205.614,233.822C205.61,233.819 205.186,233.365 205.186,233.365C205.186,233.365 205.549,233.177 205.549,233.177C209.149,232.565 211.979,232.451 214.04,232.86C215.302,233.111 216.257,233.552 216.885,234.224L216.885,234.224ZM33.617,215.144L45.803,224.221L44.798,234.574L35.216,230.049L33.617,215.144ZM68.374,215.144L65.894,229.603L57.193,234.572L57.247,224.607L68.374,215.144ZM153.125,209.559L155.861,214.22L145.892,213.72L140.422,219.337L153.743,230.337L176.482,224.693C176.667,224.425 176.868,224.16 177.085,223.9C178.388,222.332 180.302,220.744 182.836,219.146C185.314,217.584 189.464,215.485 195.288,212.854C195.858,212.577 196.295,212.27 196.588,211.918C196.969,211.458 197.099,210.727 197.044,209.731C193.671,211.374 188.949,213.341 182.877,215.631L182.878,215.629C182.738,215.787 182.571,215.895 182.383,215.96C181.405,216.323 180.549,216.62 179.817,216.85C179.082,217.08 178.198,217.328 177.164,217.592C176.096,217.865 175.156,218.023 174.346,218.07C173.546,218.116 172.672,218.105 171.724,218.038C170.713,217.966 169.84,217.747 169.102,217.391C168.366,217.035 167.654,216.496 166.971,215.765C166.402,215.157 165.941,214.434 165.591,213.593C160.344,214.237 156.362,213.053 153.625,210.124C153.45,209.938 153.283,209.749 153.125,209.559ZM81.367,214.368L80.453,215.505C80.529,216.287 80.46,217.092 80.222,217.88C80.209,217.926 80.195,217.97 80.178,218.015L78.666,222.142L85.066,218.437C86.073,217.855 87.185,217.602 88.282,217.649L88.425,215.19L81.367,214.368ZM64.079,143.141L70.546,145.608L72.309,151.812L72.104,167.459L61.28,174.605L73.22,179.604L77.192,191.927L84.455,182.341L94.748,183.163L94.574,185.811L78.604,196.25L83.984,199.367L80.191,200.339L72.897,194.369L71.956,203.573L68.783,205.8L68.77,205.788C66.245,203.605 62.358,203.809 60.085,206.234C60.052,206.269 60.022,206.305 59.993,206.34L57.193,209.706L57.193,202.293C57.193,198.979 54.444,196.242 50.997,196.242C47.547,196.242 44.798,198.979 44.798,202.293L44.798,209.706L41.998,206.34C41.969,206.305 41.939,206.269 41.906,206.234C39.633,203.809 35.746,203.605 33.221,205.788C31.676,207.124 30.977,209.024 31.152,210.871C29.641,209.796 27.649,209.456 25.722,210.131C22.578,211.23 20.81,214.7 21.769,217.88C21.783,217.926 21.796,217.97 21.813,218.015L23.325,222.142L20.466,220.486C24.353,189.233 40.563,161.778 64.079,143.141ZM85.514,207.014L88.102,200.839L96.601,204.074L99.043,213.808L89.278,205.925L89.132,206.044L88.308,210.955L85.514,207.014ZM82.514,210.544L80.985,208.221L81.867,205.193L79.19,205.955L76.956,204.28L76.662,206.868L74.192,208.398L76.81,209.574L77.123,210.504C77.62,210.767 78.073,211.095 78.475,211.475L79.486,210.398L82.514,210.544ZM146.862,208.692L143.215,208.544L141.127,210.807L140.01,207.573L136.892,206.132L139.834,204.309L140.185,201.192L142.862,203.219L146.098,202.31L145.039,205.955L146.862,208.692ZM179.966,193.42C180.398,193.881 180.473,194.489 180.264,195.231C180,196.17 179.317,197.278 178.241,198.572C176.488,200.682 174.266,202.525 171.578,204.103C170.77,203.619 169.729,203.484 168.444,203.756C167.031,204.054 165.874,204.749 164.971,205.836C164.548,206.345 164.263,206.843 164.106,207.325C162.329,207.81 160.838,208.029 159.629,207.967C158.486,207.908 157.619,207.603 157.048,206.992C156.652,206.569 156.667,205.922 156.929,205.065C157.26,203.988 157.917,202.87 158.888,201.701C160.907,199.271 163.489,197.23 166.628,195.573C169.766,193.917 172.618,192.929 175.189,192.621C176.429,192.473 177.467,192.471 178.303,192.628C179.03,192.765 179.59,193.017 179.966,193.42ZM124.586,185.958L122.306,192.398L129.863,203.515L134.01,201.427L135.188,191.737C134.497,191.576 133.814,191.385 133.139,191.163C129.9,190.099 127.049,188.365 124.586,185.958ZM103.629,192.104L104.248,186.693L108.894,190.222L114.453,188.605L112.601,194.897L115.777,199.663L109.482,199.367L105.835,203.281L103.923,197.691L98.543,195.22L103.629,192.104ZM134.279,117.857C120.062,118.159 106.465,120.997 93.918,125.938L90.279,137.638L96.043,146.373L96.424,144.019L102.984,150.225L112.042,147.785L110.728,153.174C111.096,153.157 111.38,153.295 111.579,153.507C111.63,153.562 111.709,153.663 111.756,153.839C111.788,153.956 111.822,154.235 111.842,154.677C111.855,154.953 111.917,155.178 112.067,155.338C112.72,156.037 113.411,156.579 114.143,156.961C114.872,157.34 115.963,157.525 117.411,157.556C118.939,157.587 120.743,157.321 122.825,156.764C124.955,156.194 127.746,155.166 131.199,153.682C134.676,152.188 138.671,150.249 143.186,147.867C150.738,143.841 156.809,141.575 161.39,141.042C166.17,140.486 169.745,141.536 172.143,144.101C173.163,145.192 173.395,146.348 172.901,147.55C172.673,148.177 172.33,148.45 172.074,148.526C171.775,148.613 171.435,148.567 171.112,148.222C170.035,147.07 168.326,146.743 166.014,147.113C163.482,147.519 160.644,148.517 157.496,150.098C154.289,151.708 150.825,153.608 147.103,155.798C143.363,157.999 139.597,160.15 135.804,162.252C131.997,164.362 128.385,166.155 124.969,167.632C121.487,169.137 118.282,169.951 115.356,170.085C112.277,170.226 109.885,169.351 108.164,167.51C107.271,166.554 106.669,165.403 106.37,164.054L105.19,163.989L99.925,169.899L109.924,179.399L120.034,176.775C119.893,174.463 120.328,172.754 121.258,171.635C121.642,171.172 122.041,170.862 122.438,170.686C123.083,170.401 123.576,170.53 123.937,170.915C123.982,170.964 124.088,171.088 124.128,171.334C124.154,171.498 124.175,171.924 124.183,172.612C124.191,173.348 124.424,174.291 124.861,175.445L124.888,175.516L127.095,178.874C128.944,180.846 131.281,182.077 134.103,182.576C136.989,183.085 140.088,182.865 143.399,181.927C146.753,180.977 150.287,179.189 154.005,176.574C157.748,173.941 161.268,170.639 164.567,166.67C170.214,159.876 173.253,153.593 173.635,147.799C174.012,142.078 172.153,137.035 168.068,132.664C165.437,129.85 162.569,127.735 159.459,126.324C156.364,124.92 153.39,124.19 150.534,124.143C147.66,124.095 144.844,124.471 142.085,125.271C139.331,126.069 136.889,127.178 134.759,128.601C132.633,130.021 130.859,131.584 129.438,133.293C128.07,134.94 127.25,136.547 127.006,138.127C126.779,139.591 127.135,140.837 128.091,141.859C129.4,143.259 131.203,143.756 133.483,143.407C135.82,143.049 137.534,142.259 138.597,140.98C138.978,140.522 139.377,140.453 139.666,140.52C139.846,140.562 140.023,140.66 140.177,140.849C140.326,141.03 140.476,141.363 140.566,141.859C140.902,143.241 140.572,144.558 139.539,145.8C137.6,148.134 134.716,149.58 130.865,150.099C126.977,150.622 123.734,149.488 121.133,146.706L121.133,146.706C119.003,144.428 118,141.213 118.184,137.042C118.365,132.939 119.826,129.234 122.572,125.93C124.461,123.656 126.763,121.711 129.478,120.098C130.972,119.21 132.572,118.462 134.279,117.857ZM77.897,171.429L78.337,167.43L81.778,170.016L85.896,168.84L84.543,173.488L86.866,177.018L82.22,176.782L79.544,179.693L78.132,175.546L74.133,173.723L77.897,171.429ZM94.514,161.341L96.985,162.165L98.159,168.871L95.955,167.105L95.131,178.694L90.337,172.399L94.514,161.341ZM83.074,163.666L76.485,157.665L83.337,148.607L95.69,149.489L95.338,154.195L88.573,158.167L92.865,160.636L83.074,163.666ZM106.1,159.665L103.07,159.548L101.308,161.429L100.396,158.724L97.779,157.519L100.248,156.018L100.544,153.43L102.778,155.108L105.455,154.343L104.571,157.371L106.1,159.665ZM75.665,135.043C76.512,134.523 77.364,134.016 78.223,133.519L79.749,134.667L84.19,133.374L82.72,138.431L85.251,142.255L80.22,142.02L77.309,145.137L75.78,140.668L71.456,138.668L75.543,136.168L75.665,135.043ZM153.862,80.436L179.889,104.287L180.419,105.288L180.29,105.606L180.195,106.039L180.189,106.092C174.413,104.148 168.461,102.581 162.366,101.421L161.821,100.432L161.261,99.409L160.126,97.318C160.038,97.141 159.95,96.995 159.89,96.847C157.125,91.759 155.303,86.083 153.862,80.436ZM126.011,79.759C123.982,85.819 121.482,91.818 117.923,97.024L117.894,97.024C117.835,97.141 117.775,97.229 117.687,97.318C117.658,97.406 117.57,97.523 117.452,97.671L117.042,98.249L116.246,99.381L115.61,100.266L115.274,100.721C108.993,101.722 102.856,103.153 96.893,104.984L96.631,104.2L98.278,101.641L126.011,79.759ZM140.465,49.848L140.627,49.852C142.334,49.909 143.98,50.645 145.127,51.938C146.303,53.174 146.951,54.849 146.862,56.556C146.803,58.291 146.038,59.908 144.803,61.086C143.509,62.26 141.863,62.879 140.128,62.819C138.421,62.762 136.775,62.026 135.628,60.733C134.452,59.497 133.804,57.82 133.864,56.115C133.952,54.35 134.717,52.763 135.95,51.587C137.096,50.519 138.581,49.913 140.141,49.852L140.465,49.848ZM212.533,14.49L212.739,14.493C220.061,14.64 222.354,22.1 218.297,30.998C205.399,42.147 189.145,48.573 172.115,49.219L171.713,49.233C178.065,33.087 191.329,20.618 207.857,15.296C209.586,14.744 211.148,14.488 212.533,14.49ZM70.673,9.257C72.254,9.253 74.061,9.626 76.074,10.442C92.16,16.971 104.454,30.352 109.63,46.91C92.543,45.117 76.633,37.47 64.545,25.293C61.224,16.382 63.823,9.274 70.673,9.257Z" style="fill:none;stroke:rgb(255,0,0);stroke-width:1px;"/>
</svg>
