<?xml version="1.0" encoding="UTF-8" standalone="no"?>
<!DOCTYPE svg PUBLIC "-//W3C//DTD SVG 1.1//EN" "http://www.w3.org/Graphics/SVG/1.1/DTD/svg11.dtd">
<svg width="100%" height="100%" viewBox="0 0 1123 794" version="1.1" xmlns="http://www.w3.org/2000/svg" xmlns:xlink="http://www.w3.org/1999/xlink" xml:space="preserve" xmlns:serif="http://www.serif.com/" style="fill-rule:evenodd;clip-rule:evenodd;stroke-linejoin:round;stroke-miterlimit:2;">
    <path d="M0.763,233.654C1.257,185.132 27.188,142.701 65.84,118.992C65.398,118.817 65.044,118.669 64.75,118.492L64.722,118.492C55.281,115.374 48.341,108.758 41.958,101.287C30.577,85.318 46.666,69.791 47.751,53.967C48.723,40.557 42.782,25.706 49.694,12.56C53.84,3.853 62.664,0.531 72.427,0.768C81.014,1.208 89.338,4.267 95.161,8.707C107.57,18.236 119.159,31.999 128.776,45.146C128.776,44.116 130.394,42.292 132.157,41.293C133.276,40.617 134.598,40.263 136.01,40.263L144.597,40.263C146.422,40.263 148.067,40.88 149.422,41.91C150.863,43.057 151.891,44.704 152.273,46.587C152.802,46.587 182.859,16.178 188.975,12.177C195.124,8.148 203.623,5.737 212.21,5.942C221.975,6.413 230.502,10.413 234.032,19.412C239.942,32.998 232.913,47.381 232.854,60.821C232.825,76.702 247.707,93.348 235.179,108.435C229.972,113.729 222.856,118.846 215.857,121.903L215.797,121.903C215.417,122.021 214.603,122.283 213.44,122.66C235.706,137.872 253.229,159.522 263.318,184.913L263.635,185.717C269.445,200.605 272.705,216.771 272.875,233.676L272.882,235.085L272.88,235.812L272.866,237.183L272.848,238.157L272.816,239.357L272.777,240.461C272.271,253.525 269.932,266.101 265.999,277.951C265.659,278.997 265.294,280.017 264.925,281.008L264.5,282.186C263.205,285.714 261.764,289.155 260.177,292.537C259.764,293.448 259.353,294.331 258.911,295.213C258.206,296.654 257.441,298.096 256.707,299.508C256.647,299.565 256.619,299.654 256.588,299.713C255.177,302.329 253.677,304.919 252.09,307.419C251.717,307.987 251.375,308.559 250.98,309.103L250.882,309.252C250.472,309.92 250.043,310.551 249.594,311.192L249.354,311.546L249.354,311.565C249.088,312.005 248.794,312.416 248.472,312.829C245.795,316.713 242.913,320.415 239.854,323.976C215.151,352.578 178.758,370.759 138.144,371.142L136.819,371.148C133.222,371.148 129.657,371.008 126.124,370.733C59.482,365.554 6.326,312.384 1.167,245.731C0.895,242.217 0.756,238.667 0.756,235.085L0.763,233.654ZM28.751,280.397C40.488,308.332 62.752,330.776 90.57,342.754C86.43,339.961 82.52,336.774 78.888,333.213C75.47,329.86 75.47,324.406 78.888,321.053C82.307,317.7 87.87,317.7 91.289,321.053C93.511,323.232 95.866,325.23 98.335,327.046C102.763,312.408 102.398,299.836 101.771,293.577L92.474,300.653C89.142,303.191 84.772,303.273 81.343,300.862C77.913,298.45 76.589,294.365 77.972,290.454L85.343,269.604L86.265,255.979C86.324,255.115 86.821,254.338 87.589,253.91C88.356,253.482 89.292,253.461 90.078,253.854C90.199,253.915 91.551,254.595 93.379,255.698L90.219,242.394L72.795,235.617L73.743,234.921L60.959,228.962L55.458,232.149L69.292,238.586L62.38,242.58L48.557,236.132L40.419,240.826L51.529,246.478L40.419,252.14L48.557,256.834L62.38,250.385L69.292,254.369L55.458,260.817L60.959,263.993L74.793,257.544L81.694,261.528L67.871,267.976L78.895,274.349C80.197,275.092 80.639,276.761 79.885,278.064C79.131,279.377 77.474,279.818 76.16,279.065L65.136,272.702L66.471,287.903L59.571,283.92L58.236,268.719L52.734,265.532L54.059,280.733L47.158,276.75L45.834,261.549L37.695,256.856L38.352,269.3L27.898,262.507L27.898,271.906L40.397,280.658L40.397,288.624L28.794,280.5L28.751,280.397ZM233.012,301.959C231.873,301.683 230.731,301.431 229.591,301.155C226.915,302.799 224.267,304.448 221.621,306.066C220.62,306.683 219.327,306.417 218.65,305.447C218.445,305.153 218.326,304.8 218.297,304.448L200.475,303.418L187.72,318.623C190.354,318.261 193.125,319.071 195.146,321.053C196.802,322.677 197.715,324.836 197.714,327.133C197.714,329.43 196.802,331.589 195.146,333.213C191.721,336.571 188.049,339.597 184.169,342.273C198.375,335.983 211.1,326.95 221.671,315.847C221.653,315.726 221.646,315.602 221.65,315.475C221.681,314.328 222.62,313.389 223.767,313.36L223.978,313.353C224.787,312.453 225.583,311.54 226.362,310.616C224.439,310.455 223.754,307.872 225.474,306.802C227.928,305.293 230.355,303.762 232.807,302.252L233.012,301.959ZM152.231,328.2C153.857,330.702 156.365,333.727 158.432,336.092C151.639,338.426 144.423,339.645 137.018,339.645C130.424,339.645 123.98,338.678 117.851,336.819L122.432,328.338C127.245,329.627 139.269,332.015 152.231,328.2ZM177.773,297.679C179.293,301.583 178.384,304.766 175.569,303.113C175.843,310.356 177.192,319.266 178.76,324.648C180.13,323.509 181.461,322.312 182.746,321.053C183.762,320.056 184.968,319.356 186.251,318.952L181.093,299.3L177.773,297.679ZM223.767,299.771C222.62,300.476 221.444,301.212 220.268,301.948L218.827,299.713C219.267,299.448 219.709,299.183 220.151,298.889C221.356,299.183 222.561,299.477 223.767,299.771ZM252.756,218.074L234.965,228.73C239.435,228.909 243.04,230.318 245.791,232.926C247.695,234.731 248.705,236.775 248.844,239.043C248.984,241.305 248.347,243.406 246.925,245.344C245.05,247.899 242.253,249.349 238.515,249.655C235.113,249.935 231.336,248.815 227.197,246.251C226.952,247.543 226.442,248.994 225.658,250.599C224.68,252.6 223.734,254.315 222.819,255.744C221.956,257.091 221.346,258.436 220.993,259.778C220.697,260.901 220.835,261.786 221.5,262.417C221.83,262.73 222.321,262.908 222.958,262.994C223.71,263.095 224.643,263.057 225.757,262.891C229.287,262.362 234.534,260.551 241.505,257.474C241.512,257.471 241.518,257.468 241.524,257.466C241.852,257.333 242.118,257.373 242.32,257.475C242.565,257.6 242.817,257.883 242.831,258.437L242.778,262.312C242.783,262.655 242.69,262.92 242.545,263.118C242.391,263.328 242.172,263.482 241.876,263.551C236.913,265.75 232.857,267.369 229.71,268.41C226.484,269.478 223.841,270.017 221.786,270.044C219.656,270.072 218.048,269.822 216.957,269.329C216.771,269.246 216.583,269.151 216.39,269.045L210.092,286.304L214.679,293.332C214.886,293.39 215.092,293.448 215.297,293.478C215.003,293.008 214.709,292.537 214.444,292.068C213.827,291.067 214.15,289.772 215.209,289.213C216.208,288.655 217.503,289.009 218.12,289.979C219.121,291.624 220.12,293.244 221.091,294.862C222.326,295.154 223.533,295.448 224.738,295.744C223.798,294.214 222.885,292.712 221.975,291.213C221.356,290.183 221.681,288.89 222.737,288.331C223.738,287.802 225.032,288.125 225.65,289.124C227.268,291.772 228.915,294.449 230.531,297.123C231.737,297.39 232.973,297.682 234.178,297.978C232.591,295.39 231.002,292.802 229.414,290.214C228.325,288.419 230.296,286.304 232.178,287.303C232.847,287.663 233.514,288.023 234.18,288.383L238.176,290.544C238.654,290.802 239.133,291.061 239.613,291.319C239.716,291.13 239.819,290.941 239.922,290.753C239.654,289.848 239.386,288.951 239.12,288.037C236.355,286.567 233.619,285.068 230.856,283.596C229.854,283.068 229.414,281.773 229.914,280.745C230.414,279.657 231.678,279.244 232.737,279.803C234.297,280.656 235.855,281.479 237.414,282.332C237.06,281.125 236.708,279.949 236.355,278.744C234.65,277.832 232.973,276.95 231.296,276.039C230.296,275.48 229.885,274.216 230.356,273.186C230.856,272.098 232.12,271.685 233.179,272.244C233.649,272.509 234.149,272.774 234.65,273.038C234.266,271.833 233.915,270.626 233.561,269.393C233.238,268.303 233.795,267.097 234.943,266.745C236.061,266.422 237.208,267.127 237.531,268.215C237.884,269.42 238.267,270.626 238.618,271.833C238.885,271.362 239.149,270.861 239.414,270.392C239.973,269.331 241.266,269.01 242.265,269.627C243.266,270.215 243.589,271.508 243.059,272.538L240.325,277.569L241.383,281.125C242.236,279.569 243.09,278.039 243.912,276.479C244.491,275.437 245.727,275.106 246.747,275.686C251.427,263.036 253.984,249.357 253.984,235.085C253.984,229.31 253.566,223.633 252.756,218.074ZM202.504,293.509L195.447,293.184L191.358,297.567L189.212,291.301L183.182,288.507L188.858,285.008L189.565,278.948L194.77,282.891L201.006,281.098L198.946,288.154L202.504,293.509ZM144.712,285.874L145.927,285.831C153.666,285.755 159.844,286.382 165.152,287.752L177.948,279.302L179.124,269.362L157.803,267.421L144.712,285.874ZM96.372,257.636C97.666,258.539 98.998,259.563 100.194,260.664C108.144,261.53 115.866,266.542 122.586,275.216C126.172,279.845 128.6,284.364 129.777,286.756C132.882,286.467 135.79,286.245 138.527,286.09L139.258,286.065L135.51,262.245L112.218,252.716L120.717,247.071L106.454,245.776L96.372,257.636ZM94.108,273.251C95.738,273.251 97.061,274.548 97.061,276.146C97.061,277.744 95.738,279.041 94.108,279.041C92.479,279.041 91.156,277.744 91.156,276.146C91.156,274.548 92.479,273.251 94.108,273.251ZM213.362,266.736L213.36,266.735C211.397,264.873 210.409,262.728 210.375,260.312C210.341,257.958 210.908,255.7 212.079,253.536C213.203,251.459 214.407,249.456 215.688,247.528C216.922,245.671 217.817,243.932 218.367,242.307C218.829,240.942 218.749,239.888 217.985,239.164C217.985,239.164 217.806,238.993 217.806,238.993L198.221,250.688C198.216,250.691 198.211,250.694 198.206,250.697C197.445,251.125 196.804,251.035 196.277,250.535C196.277,250.535 190.037,244.618 190.037,244.618C189.993,244.577 189.953,244.534 189.917,244.49L189.181,246.452L193.977,254.57L184.8,253.892L181.418,258.158L196.505,270.363L213.362,266.736ZM169.743,249.334L176.007,252.188L179.241,263.569L169.743,249.334ZM137.657,250.424L144.568,246.216L145.391,238.864L151.685,243.658L159.242,241.481L156.745,250.011L161.037,256.48L152.508,256.069L147.568,261.394L144.979,253.804L137.657,250.424ZM184.855,239.646C184.534,239.38 184.207,239.09 183.874,238.774C182.135,237.125 181.232,234.941 181.189,232.212C181.157,230.145 181.646,228.179 182.659,226.316C180.096,227.106 177.956,227.516 176.241,227.554L168.771,246.775L175.154,243.424L175.802,234.426L183.007,240.159L184.855,239.646ZM136.951,215.603L134.158,214.25L133.128,238.953L124.099,244.982L114.747,230.777L121.159,213.484L107.513,216.397L113.805,208.336L131.216,209.631L135.804,211.22L136.951,215.603ZM108.423,237.6L102.159,237.308L98.513,241.218L96.601,235.629L91.221,233.158L96.278,230.041L96.897,224.63L101.543,228.16L107.101,226.542L105.276,232.835L108.423,237.6ZM239.076,236.385C239.399,236.692 239.591,237.009 239.609,237.359C239.628,237.734 239.459,238.122 239.15,238.542C238.71,239.142 237.993,239.571 237.023,239.864C235.943,240.19 234.566,240.339 232.896,240.322C229.537,240.289 226.298,239.227 223.177,237.149C223.175,237.147 222.294,236.312 222.294,236.312C222.294,236.312 223.099,235.831 223.099,235.831C228.065,234.672 231.999,234.279 234.902,234.675C236.725,234.924 238.122,235.48 239.076,236.385ZM27.866,191.94L27.866,191.939C35.519,172.65 48.152,155.866 64.177,143.178L70.546,145.608L72.309,151.812L72.104,167.459L61.28,174.605L73.22,179.604L77.192,191.927L84.455,182.341L94.748,183.163L94.574,185.811L78.604,196.25L83.984,199.367L80.191,200.339L72.897,194.369L71.956,203.573L66.25,207.577L66.471,205.063L59.571,209.046L58.236,224.247L52.734,227.423L54.059,212.222L47.158,216.205L45.834,231.406L37.695,236.1L38.352,223.655L27.898,230.448L27.898,221.06L40.397,212.308L40.397,204.331L27.898,213.083L27.898,206.731L40.397,197.979L40.397,190.013L27.898,198.754L27.898,191.859C27.888,191.886 27.877,191.913 27.866,191.94ZM212.609,145.761C212.644,146.213 212.663,146.676 212.666,147.147C212.682,149.858 211.886,152.308 210.278,154.498C207.816,157.853 204.353,159.819 199.881,160.381C195.507,160.929 190.747,160.196 185.606,158.162C180.747,156.24 176.074,153.372 171.589,149.555C169.696,153.383 169.284,157.391 170.352,161.577C171.486,162.862 171.856,164.674 171.367,167.034C171.064,168.524 170.49,169.364 169.838,169.66C169.33,169.891 168.726,169.868 168.046,169.494C167.776,169.381 167.536,169.226 167.328,169.029C165.018,166.838 162.333,165.332 159.274,164.51C156.204,163.685 153.2,163.525 150.262,164.034C147.304,164.547 144.471,165.564 141.762,167.086C139.073,168.597 136.896,170.483 135.234,172.748C133.12,175.628 132.13,178.815 132.268,182.311C132.385,185.295 133.424,187.914 135.378,190.17L135.422,189.809L139.801,193.868C141.742,195.072 143.882,195.953 146.219,196.511L154.274,194.25L153.275,197.236C159.17,197.155 165.753,195.579 173.028,192.523C173.074,192.504 173.122,192.49 173.172,192.481C173.342,192.452 173.49,192.453 173.618,192.477C181.352,188.799 187.593,185.46 192.34,182.46C192.206,180.684 192.526,179.316 193.238,178.346C194.437,176.712 195.745,175.787 197.121,175.516C198.587,175.228 199.842,175.585 200.89,176.579C201.8,177.442 202.269,178.567 202.275,179.961C202.281,181.29 201.831,182.591 200.903,183.855C200.74,184.076 200.535,184.291 200.286,184.495C200.286,184.495 200.457,185.326 200.456,185.323C200.962,187.17 201.317,188.589 201.521,189.581C201.726,190.58 201.927,191.861 202.121,193.424C202.324,195.056 202.274,196.483 201.983,197.706C201.686,198.954 201.191,200.046 200.503,200.983C199.815,201.92 198.829,202.757 197.534,203.485C197.53,203.487 197.525,203.49 197.521,203.492C184.643,210.339 177.067,215.249 174.835,218.29C174.17,219.196 173.972,219.897 174.529,220.425C174.64,220.531 174.852,220.565 175.14,220.604C175.578,220.664 176.151,220.67 176.858,220.629C178.348,220.542 180.806,219.98 184.236,218.957C187.715,217.92 191.7,216.432 196.189,214.495C196.238,214.474 196.288,214.459 196.34,214.45C196.394,214.441 196.445,214.435 196.493,214.432C202.299,210.922 211.275,205.723 219.208,200.964C219.214,200.96 219.219,200.957 219.225,200.954C219.965,200.538 220.633,200.623 221.231,201.19L221.704,201.638C221.833,200.263 222.496,198.965 223.718,197.756C225.104,196.386 226.774,195.53 228.732,195.191C230.737,194.844 232.447,195.143 233.868,196.054C235.356,197.007 236.131,198.338 236.204,200.041C236.274,201.693 235.611,203.242 234.171,204.667C232.785,206.037 231.115,206.892 229.157,207.231C228.648,207.319 228.159,207.366 227.688,207.371C227.848,207.628 227.902,207.935 227.836,208.296C227.76,208.705 227.555,209.038 227.218,209.294C227.198,209.309 227.178,209.323 227.157,209.335C215.227,216.469 201.391,224.344 197.956,226.745C194.596,229.093 192.309,231.073 191.112,232.704C190.496,233.543 190.294,234.185 190.801,234.666C191.053,234.905 191.511,234.999 192.147,235.04C193.369,235.12 195.144,234.907 197.473,234.419C201.363,233.604 206.087,232.02 211.647,229.671L250.463,206.487C244.423,182.441 230.942,161.334 212.609,145.761ZM79.742,230.517L67.871,224.979L75.44,220.61L75.691,221.425L81.367,214.368L88.425,215.19L87.866,224.809L84.955,226.69L79.742,230.517ZM20.912,219.942L20.907,219.979L22.451,221.06L22.451,230.448L19.829,228.744C19.884,228.366 20.271,224.663 20.907,219.979L20.855,219.942L20.912,219.942ZM169.814,226.348C169.039,225.914 168.277,225.343 167.529,224.634C165.785,222.98 164.908,220.816 164.922,218.132C164.935,215.514 165.79,213.039 167.498,210.712C169.15,208.461 171.638,206.135 174.97,203.741C178.249,201.387 183.784,198.156 191.582,194.05C192.38,193.601 192.981,193.116 193.373,192.582C193.931,191.822 194.049,190.617 193.818,188.976C188.54,191.981 180.649,195.781 170.144,200.375C170.139,200.378 170.133,200.38 170.128,200.382C169.94,200.459 169.77,200.483 169.619,200.471C162.85,203.263 156.569,204.957 150.777,205.56L155.861,214.22L145.892,213.72L140.422,219.337L153.743,230.337L169.814,226.348ZM19.829,228.744C19.826,228.765 19.824,228.776 19.823,228.776C19.822,228.775 19.822,228.764 19.823,228.74L19.829,228.744ZM65.136,220.264L73.789,215.262L72.986,212.661L66.093,209.374L65.136,220.264ZM96.601,204.074L99.043,213.808L89.278,205.925L89.132,206.044L88.308,210.955L85.514,207.014L88.102,200.839L96.601,204.074ZM82.514,210.544L79.486,210.398L77.72,212.279L76.81,209.574L74.192,208.398L76.662,206.868L76.956,204.28L79.19,205.955L81.867,205.193L80.985,208.221L82.514,210.544ZM129.863,203.515L131.972,202.453C130.197,201.466 128.56,200.26 127.06,198.838C126.657,198.456 126.269,198.069 125.895,197.678L129.863,203.515ZM115.777,199.663L109.482,199.367L105.835,203.281L103.923,197.691L98.543,195.22L103.629,192.104L104.248,186.693L108.894,190.222L114.453,188.605L112.601,194.897L115.777,199.663ZM77.897,171.429L78.337,167.43L81.778,170.016L85.896,168.84L84.543,173.488L86.866,177.018L82.22,176.782L79.544,179.693L78.132,175.546L74.133,173.723L77.897,171.429ZM151.035,118.775C146.374,118.21 141.63,117.92 136.819,117.92C121.668,117.92 107.185,120.802 93.883,126.049L90.279,137.638L96.043,146.373L96.424,144.019L102.984,150.225L112.042,147.785L109.747,157.196L114.276,164.488L105.19,163.989L99.925,169.899L109.924,179.399L118.943,177.058C119.497,172.184 121.276,167.701 124.279,163.61C128.494,157.867 134.213,154.157 141.44,152.488C148.259,150.912 154.957,151.823 161.534,155.231C160.919,150.163 161.549,145.573 163.413,141.462C157.756,135.035 154.006,129.046 152.147,123.504C151.586,121.831 151.216,120.255 151.035,118.775ZM94.514,161.341L96.985,162.165L98.159,168.871L95.955,167.105L95.131,178.694L90.337,172.399L94.514,161.341ZM83.074,163.666L76.485,157.665L83.337,148.607L95.69,149.489L95.338,154.195L88.573,158.167L92.865,160.636L83.074,163.666ZM106.1,159.665L103.07,159.548L101.308,161.429L100.396,158.724L97.779,157.519L100.248,156.018L100.544,153.43L102.778,155.108L105.455,154.343L104.571,157.371L106.1,159.665ZM202.855,141.353C203.534,141.997 203.878,142.718 203.858,143.53C203.836,144.392 203.544,145.197 202.992,145.949C200.846,148.874 197.058,150.202 191.671,150.053C186.359,149.907 181.153,147.85 176.042,143.909C179.807,140.716 184.454,138.835 189.979,138.256C195.711,137.655 200.01,138.656 202.855,141.353ZM75.653,135.155C76.528,134.618 77.411,134.092 78.301,133.577L79.749,134.667L84.19,133.374L82.72,138.431L85.251,142.255L80.22,142.02L77.309,145.137L75.78,140.668L71.456,138.668L75.543,136.168L75.653,135.155ZM161.496,120.528C161.493,120.843 161.497,121.16 161.507,121.481C161.642,125.856 163.695,130.536 167.62,135.542C171.886,131.082 177.062,128.383 183.15,127.451C176.248,124.473 169.005,122.14 161.496,120.528ZM180.189,106.092C174.413,104.148 168.461,102.581 162.366,101.421C161.639,100.11 160.883,98.715 160.126,97.318C160.038,97.141 159.95,96.995 159.89,96.847C157.125,91.759 155.303,86.083 153.862,80.436L179.889,104.287L180.419,105.288C180.419,105.288 180.253,105.564 180.189,106.092ZM115.274,100.721C108.993,101.722 102.856,103.153 96.893,104.984L96.631,104.2L98.278,101.641L126.011,79.759C123.982,85.819 121.482,91.818 117.923,97.024L117.894,97.024C117.835,97.141 117.775,97.229 117.687,97.318C117.658,97.406 117.57,97.523 117.452,97.671C116.986,98.312 116.204,99.471 115.274,100.721ZM135.95,51.587C137.215,50.409 138.892,49.792 140.627,49.852C142.334,49.909 143.98,50.645 145.127,51.938C146.303,53.174 146.951,54.849 146.862,56.556C146.803,58.291 146.038,59.908 144.803,61.086C143.509,62.26 141.863,62.879 140.128,62.819C138.421,62.762 136.775,62.026 135.628,60.733C134.452,59.497 133.804,57.82 133.864,56.115C133.952,54.35 134.717,52.763 135.95,51.587ZM207.857,15.296C218.916,11.766 223.15,20.353 218.297,30.998C205.298,42.235 188.889,48.674 171.713,49.233C178.065,33.087 191.329,20.618 207.857,15.296ZM64.545,25.293C60.458,14.325 65.338,6.09 76.074,10.442C92.16,16.971 104.454,30.352 109.63,46.91C92.543,45.117 76.633,37.47 64.545,25.293Z" style="fill:none;stroke:rgb(255,0,0);stroke-width:1px;"/>
</svg>
