<?xml version="1.0" encoding="UTF-8" standalone="no"?>
<!DOCTYPE svg PUBLIC "-//W3C//DTD SVG 1.1//EN" "http://www.w3.org/Graphics/SVG/1.1/DTD/svg11.dtd">
<svg width="100%" height="100%" viewBox="0 0 1123 794" version="1.1" xmlns="http://www.w3.org/2000/svg" xmlns:xlink="http://www.w3.org/1999/xlink" xml:space="preserve" xmlns:serif="http://www.serif.com/" style="fill-rule:evenodd;clip-rule:evenodd;stroke-linejoin:round;stroke-miterlimit:2;">
    <path d="M0.763,233.654C1.257,185.132 27.188,142.701 65.84,118.992C65.398,118.817 65.044,118.669 64.75,118.492L64.722,118.492C55.281,115.374 48.341,108.758 41.958,101.287C30.577,85.318 46.666,69.791 47.751,53.967C48.723,40.557 42.782,25.706 49.694,12.56C53.84,3.853 62.664,0.531 72.427,0.768C81.014,1.208 89.338,4.267 95.161,8.707C107.57,18.236 119.159,31.999 128.776,45.146C128.776,44.116 130.394,42.292 132.157,41.293C133.276,40.617 134.598,40.263 136.01,40.263L144.597,40.263C146.422,40.263 148.067,40.88 149.422,41.91C150.863,43.057 151.891,44.704 152.273,46.587C152.802,46.587 182.859,16.178 188.975,12.177C195.124,8.148 203.623,5.737 212.21,5.942C221.975,6.413 230.502,10.413 234.032,19.412C239.942,32.998 232.913,47.381 232.854,60.821C232.825,76.702 247.707,93.348 235.179,108.435C229.972,113.729 222.856,118.846 215.857,121.903L215.797,121.903C215.417,122.021 214.603,122.283 213.44,122.66C235.706,137.872 253.229,159.522 263.318,184.913L263.635,185.717C269.445,200.605 272.705,216.771 272.875,233.676L272.882,235.085L272.88,235.812L272.866,237.183L272.848,238.157L272.816,239.357L272.777,240.461C272.271,253.525 269.932,266.101 265.999,277.951C265.659,278.997 265.294,280.017 264.925,281.008L264.5,282.186C263.205,285.714 261.764,289.155 260.177,292.537C259.764,293.448 259.353,294.331 258.911,295.213C258.206,296.654 257.441,298.096 256.707,299.508C256.647,299.565 256.619,299.654 256.588,299.713C255.177,302.329 253.677,304.919 252.09,307.419C251.717,307.987 251.375,308.559 250.98,309.103L250.882,309.252C250.472,309.92 250.043,310.551 249.594,311.192L249.354,311.546L249.354,311.565C249.088,312.005 248.794,312.416 248.472,312.829C245.795,316.713 242.913,320.415 239.854,323.976C215.151,352.578 178.758,370.759 138.144,371.142L136.819,371.148C133.222,371.148 129.657,371.008 126.124,370.733C59.482,365.554 6.326,312.384 1.167,245.731C0.895,242.217 0.756,238.667 0.756,235.085L0.763,233.654ZM28.751,280.397C40.488,308.332 62.752,330.776 90.57,342.754C86.43,339.961 82.52,336.774 78.888,333.213C75.47,329.86 75.47,324.406 78.888,321.053C82.307,317.7 87.87,317.7 91.289,321.053C93.511,323.232 95.866,325.23 98.335,327.046C102.763,312.408 102.398,299.836 101.771,293.577L92.474,300.653C89.142,303.191 84.772,303.273 81.343,300.862C77.913,298.45 76.589,294.365 77.972,290.454L85.343,269.604L86.265,255.979C86.324,255.115 86.821,254.338 87.589,253.91C88.356,253.482 89.292,253.461 90.078,253.854C90.199,253.915 91.551,254.595 93.379,255.698L90.219,242.394L72.795,235.617L73.743,234.921L60.959,228.962L55.458,232.149L69.292,238.586L62.38,242.58L48.557,236.132L40.419,240.826L51.529,246.478L40.419,252.14L48.557,256.834L62.38,250.385L69.292,254.369L55.458,260.817L60.959,263.993L74.793,257.544L81.694,261.528L67.871,267.976L78.895,274.349C80.197,275.092 80.639,276.761 79.885,278.064C79.131,279.377 77.474,279.818 76.16,279.065L65.136,272.702L66.471,287.903L59.571,283.92L58.236,268.719L52.734,265.532L54.059,280.733L47.158,276.75L45.834,261.549L37.695,256.856L38.352,269.3L27.898,262.507L27.898,271.906L40.397,280.658L40.397,288.624L28.794,280.5L28.751,280.397ZM233.012,301.959C231.873,301.683 230.731,301.431 229.591,301.155C226.915,302.799 224.267,304.448 221.621,306.066C220.62,306.683 219.327,306.417 218.65,305.447C218.445,305.153 218.326,304.8 218.297,304.448L200.475,303.418L187.72,318.623C190.354,318.261 193.125,319.071 195.146,321.053C196.802,322.677 197.715,324.836 197.714,327.133C197.714,329.43 196.802,331.589 195.146,333.213C191.721,336.571 188.049,339.597 184.169,342.273C198.375,335.983 211.1,326.95 221.671,315.847C221.653,315.726 221.646,315.602 221.65,315.475C221.681,314.328 222.62,313.389 223.767,313.36L223.978,313.353C224.787,312.453 225.583,311.54 226.362,310.616C224.439,310.455 223.754,307.872 225.474,306.802C227.928,305.293 230.355,303.762 232.807,302.252L233.012,301.959ZM152.231,328.2C153.857,330.702 156.365,333.727 158.432,336.092C151.639,338.426 144.423,339.645 137.018,339.645C130.424,339.645 123.98,338.678 117.851,336.819L122.432,328.338C127.245,329.627 139.269,332.015 152.231,328.2ZM177.773,297.679C179.293,301.583 178.384,304.766 175.569,303.113C175.843,310.356 177.192,319.266 178.76,324.648C180.13,323.509 181.461,322.312 182.746,321.053C183.762,320.056 184.968,319.356 186.251,318.952L181.093,299.3L177.773,297.679ZM223.767,299.771C222.62,300.476 221.444,301.212 220.268,301.948L218.827,299.713C219.267,299.448 219.709,299.183 220.151,298.889C221.356,299.183 222.561,299.477 223.767,299.771ZM230.743,272.614C230.306,272.527 229.917,272.417 229.575,272.287C228.57,271.903 227.594,271.251 226.653,270.321C225.243,268.927 224.555,267.128 224.612,264.915C224.668,262.767 225.41,260.751 226.851,258.872C228.235,257.067 230.299,255.214 233.053,253.322C235.752,251.467 240.296,248.939 246.687,245.743C247.324,245.401 247.807,245.031 248.125,244.617C248.554,244.057 248.668,243.175 248.543,241.978C244.214,244.311 237.806,247.23 229.319,250.734C229.313,250.736 229.308,250.738 229.302,250.74C229.149,250.799 229.009,250.82 228.885,250.814C226.774,251.569 224.774,252.144 222.888,252.541C220.006,253.148 217.648,253.404 215.816,253.321C213.953,253.236 212.164,252.857 210.448,252.186C208.728,251.512 207.462,250.863 206.644,250.249C205.839,249.646 204.949,248.864 203.974,247.9C201.38,245.336 200.278,242.319 200.656,238.853C200.869,236.897 201.437,234.96 202.364,233.042C202.198,233.092 202.033,233.139 201.871,233.185C199.088,233.973 196.823,234.295 195.078,234.17C193.277,234.041 191.895,233.71 190.926,233.203C189.972,232.703 188.926,231.899 187.796,230.781C186.387,229.388 185.731,227.484 185.878,225.051C185.985,223.279 186.472,221.628 187.339,220.096C182.272,221.135 177.207,221.177 172.145,220.222C167.984,224.195 162.983,226.366 157.139,226.731C153.498,226.958 150.271,226.427 147.455,225.145L153.743,230.337L177.446,224.453L168.771,246.775L175.154,243.424L175.802,234.426L183.007,240.159L192.536,237.512L189.181,246.452L193.977,254.57L184.8,253.892L181.418,258.158L196.505,270.363L217.563,265.832L210.092,286.304L214.679,293.332C214.886,293.39 215.092,293.448 215.297,293.478C215.003,293.008 214.709,292.537 214.444,292.068C213.827,291.067 214.15,289.772 215.209,289.213C216.208,288.655 217.503,289.009 218.12,289.979C219.121,291.624 220.12,293.244 221.091,294.862C222.326,295.154 223.533,295.448 224.738,295.744C223.798,294.214 222.885,292.712 221.975,291.213C221.356,290.183 221.681,288.89 222.737,288.331C223.738,287.802 225.032,288.125 225.65,289.124C227.268,291.772 228.915,294.449 230.531,297.123C231.737,297.39 232.973,297.682 234.178,297.978C232.591,295.39 231.002,292.802 229.414,290.214C228.325,288.419 230.296,286.304 232.178,287.303C232.847,287.663 233.514,288.023 234.18,288.383L238.176,290.544C238.654,290.802 239.133,291.061 239.613,291.319C239.716,291.13 239.819,290.941 239.922,290.753C239.654,289.848 239.386,288.951 239.12,288.037C236.355,286.567 233.619,285.068 230.856,283.596C229.854,283.068 229.414,281.773 229.914,280.745C230.414,279.657 231.678,279.244 232.737,279.803C234.297,280.656 235.855,281.479 237.414,282.332C237.06,281.125 236.708,279.949 236.355,278.744C234.65,277.832 232.973,276.95 231.296,276.039C230.296,275.48 229.885,274.216 230.356,273.186C230.457,272.967 230.588,272.775 230.743,272.614ZM202.504,293.509L195.447,293.184L191.358,297.567L189.212,291.301L183.182,288.507L188.858,285.008L189.565,278.948L194.77,282.891L201.006,281.098L198.946,288.154L202.504,293.509ZM144.712,285.874L145.927,285.831C153.666,285.755 159.844,286.382 165.152,287.752L177.948,279.302L179.124,269.362L157.803,267.421L144.712,285.874ZM96.372,257.636C97.666,258.539 98.998,259.563 100.194,260.664C108.144,261.53 115.866,266.542 122.586,275.216C126.172,279.845 128.6,284.364 129.777,286.756C132.882,286.467 135.79,286.245 138.527,286.09L139.258,286.065L135.51,262.245L112.218,252.716L120.717,247.071L106.454,245.776L96.372,257.636ZM249.252,268.127C246.995,269.098 244.952,269.921 243.124,270.597C243.388,271.197 243.379,271.916 243.059,272.538L240.325,277.569L241.383,281.125C242.236,279.569 243.09,278.039 243.912,276.479C244.491,275.437 245.727,275.106 246.747,275.686C247.665,273.205 248.501,270.685 249.252,268.127ZM94.108,273.251C95.738,273.251 97.061,274.548 97.061,276.146C97.061,277.744 95.738,279.041 94.108,279.041C92.479,279.041 91.156,277.744 91.156,276.146C91.156,274.548 92.479,273.251 94.108,273.251ZM234.587,272.837C234.491,272.844 234.397,272.851 234.304,272.855L234.65,273.038L234.587,272.837ZM252.622,252.99C252.277,253.245 251.895,253.485 251.474,253.71C251.469,253.712 251.464,253.715 251.46,253.717C240.936,259.034 234.725,262.87 232.87,265.29C232.367,265.946 232.173,266.452 232.574,266.849C232.649,266.923 232.799,266.937 232.997,266.969C233.345,267.023 233.801,267.037 234.364,267.016L234.377,267.016C234.545,266.901 234.734,266.809 234.943,266.745C235.367,266.622 235.796,266.648 236.182,266.787C237.284,266.585 238.671,266.252 240.343,265.791C243.176,265.01 246.425,263.873 250.091,262.381C250.139,262.361 250.19,262.347 250.242,262.339C250.46,262.306 250.637,262.33 250.781,262.385C251.519,259.298 252.134,256.165 252.622,252.99ZM169.743,249.334L176.007,252.188L179.241,263.569L169.743,249.334ZM137.657,250.424L144.568,246.216L145.391,238.864L151.685,243.658L159.242,241.481L156.745,250.011L161.037,256.48L152.508,256.069L147.568,261.394L144.979,253.804L137.657,250.424ZM186.461,128.941C186.533,129.569 186.564,130.22 186.554,130.893C186.52,133.118 185.825,135.115 184.469,136.885C182.395,139.59 179.528,141.142 175.857,141.525C172.284,141.898 168.419,141.222 164.264,139.477C160.392,137.851 156.682,135.477 153.137,132.352C151.62,135.343 151.244,138.497 152.01,141.813C152.915,142.898 153.192,144.4 152.748,146.338C152.465,147.596 151.95,148.289 151.392,148.528C150.945,148.72 150.42,148.696 149.834,148.359C149.605,148.258 149.404,148.121 149.23,147.948C147.41,146.149 145.277,144.893 142.832,144.182C140.377,143.467 137.963,143.288 135.591,143.648C133.2,144.011 130.901,144.784 128.693,145.964C126.505,147.134 124.722,148.614 123.348,150.407C121.604,152.682 120.757,155.222 120.809,158.028C120.86,160.81 121.919,163.218 123.978,165.252C127.128,168.367 131.199,170.048 136.182,170.315C141.262,170.586 147.031,169.434 153.494,166.876C153.541,166.857 153.589,166.844 153.639,166.837C153.887,166.799 154.083,166.835 154.236,166.907C157.836,165.527 162.446,163.626 168.065,161.206C170.85,159.997 173.274,160.425 175.342,162.469C176.366,163.481 176.935,164.772 177.035,166.349C177.137,167.947 176.827,169.164 176.174,170.016C176.065,170.159 175.903,170.251 175.725,170.273C174.327,170.442 172.9,171.304 171.413,172.808C169.832,174.407 168.424,176.223 167.186,178.254C165.913,180.344 164.485,182.493 162.902,184.702C161.701,186.377 160.541,187.849 159.42,189.119C162.519,188.884 166.31,187.879 170.801,186.117C174.549,184.492 178.061,182.834 181.336,181.146C181.664,179.57 182.336,178.117 183.354,176.788C184.501,175.292 185.864,174.265 187.436,173.696C189.216,173.051 190.502,173.239 191.309,174.037C192.258,174.975 192.547,176.252 192.083,177.888C191.717,179.177 191.099,180.395 190.225,181.54C190.228,181.544 190.231,181.547 190.234,181.55C191.18,182.485 193.255,184.349 196.459,187.144C199.661,189.936 201.999,191.876 203.475,192.963C203.482,192.968 203.489,192.974 203.496,192.979C203.801,193.223 204.025,193.58 204.134,194.069C204.255,194.613 204.229,195.364 204.021,196.318C203.702,197.787 203.174,199.1 202.439,200.259C201.623,201.547 200.722,202.249 199.803,202.444C199.759,202.454 199.714,202.459 199.669,202.459C196.746,202.478 192.617,202.433 187.284,202.323C182.771,202.23 179.539,202.188 177.587,202.197C178.903,206.395 178.473,210.556 176.286,214.68C182.987,215.695 189.809,214.68 196.754,211.648C199.432,209.979 203.374,207.647 208.579,204.654C208.579,204.654 206.847,202.942 206.847,202.942C206.563,202.661 206.445,202.303 206.538,201.857C206.625,201.432 206.839,201.17 207.104,201.023L210.293,199.129C210.302,199.124 210.311,199.119 210.319,199.115C210.982,198.76 211.571,198.848 212.09,199.361C212.09,199.361 214.209,201.456 214.209,201.456C216.889,199.925 221.641,197.216 228.466,193.329C228.801,193.126 229.118,193.049 229.405,193.064C229.736,193.081 230.045,193.212 230.319,193.483C230.319,193.483 235.214,198.323 235.214,198.323C235.471,198.577 235.607,198.918 235.566,199.363C235.523,199.834 235.288,200.163 234.858,200.343C228.573,203.963 223.98,206.598 221.081,208.249C221.081,208.249 223.739,210.878 223.739,210.878C224.023,211.159 224.141,211.516 224.049,211.962C223.974,212.324 223.786,212.616 223.482,212.837C223.463,212.851 223.444,212.863 223.424,212.875L220.267,214.705C219.605,215.059 219.015,214.971 218.497,214.458C218.497,214.458 215.451,211.447 215.451,211.447C207.11,216.276 201.784,219.455 199.472,220.984C197.191,222.493 195.511,223.939 194.443,225.332C193.977,225.94 193.816,226.423 194.208,226.811C194.642,227.24 195.303,227.503 196.171,227.643C197.157,227.802 198.389,227.792 199.867,227.624C202.14,227.365 204.875,226.679 208.075,225.573C209.813,224.052 211.817,222.741 214.088,221.642C217.883,219.807 221.757,218.967 225.71,219.117C229.741,219.271 232.985,220.58 235.453,223.021C237.343,224.889 238.452,226.831 238.812,228.831C239.181,230.888 238.626,232.912 237.107,234.895C235.153,237.443 232.477,238.883 229.072,239.2C225.758,239.508 222.632,239.08 219.693,237.919C216.993,236.852 214.709,235.534 212.837,233.97C212.143,234.623 211.518,235.312 210.961,236.039C209.85,237.488 209.164,238.899 208.92,240.283C208.701,241.526 209.021,242.579 209.891,243.439C210.591,244.132 211.468,244.752 212.517,245.303C213.591,245.868 215.015,246.365 216.784,246.801C218.549,247.237 220.738,247.27 223.351,246.919C225.098,246.684 226.922,246.257 228.824,245.639C236.675,242.222 242.877,239.144 247.429,236.405C247.363,234.963 247.658,233.858 248.256,233.078C249.279,231.743 250.383,231.003 251.529,230.802C252.424,230.645 253.221,230.772 253.92,231.178C252.436,185.92 225.229,147.12 186.461,128.941ZM136.951,215.603L134.158,214.25L133.128,238.953L124.099,244.982L114.747,230.777L121.159,213.484L107.513,216.397L113.805,208.336L131.216,209.631L135.804,211.22L136.951,215.603ZM108.423,237.6L102.159,237.308L98.513,241.218L96.601,235.629L91.221,233.158L96.278,230.041L96.897,224.63L101.543,228.16L107.101,226.542L105.276,232.835L108.423,237.6ZM27.866,191.94L27.866,191.939C35.519,172.65 48.152,155.866 64.177,143.178L70.546,145.608L72.309,151.812L72.104,167.459L61.28,174.605L73.22,179.604L77.192,191.927L84.455,182.341L94.748,183.163L94.574,185.811L78.604,196.25L83.984,199.367L80.191,200.339L72.897,194.369L71.956,203.573L66.25,207.577L66.471,205.063L59.571,209.046L58.236,224.247L52.734,227.423L54.059,212.222L47.158,216.205L45.834,231.406L37.695,236.1L38.352,223.655L27.898,230.448L27.898,221.06L40.397,212.308L40.397,204.331L27.898,213.083L27.898,206.731L40.397,197.979L40.397,190.013L27.898,198.754L27.898,191.859C27.888,191.886 27.877,191.913 27.866,191.94ZM232.682,227.498C232.777,227.592 232.846,227.685 232.856,227.791C232.8,228.325 232.491,228.817 231.972,229.294C231.341,229.874 230.418,230.413 229.21,230.927C229.207,230.928 229.204,230.929 229.202,230.93C225.315,232.647 221.269,232.544 217.063,230.646C219.999,228.799 223.002,227.537 226.073,226.864C227.733,226.499 229.135,226.375 230.28,226.503C231.31,226.619 232.116,226.939 232.682,227.498ZM79.742,230.517L67.871,224.979L75.44,220.61L75.691,221.425L81.367,214.368L88.425,215.19L87.866,224.809L84.955,226.69L79.742,230.517ZM20.912,219.942L20.907,219.979L22.451,221.06L22.451,230.448L19.829,228.744C19.884,228.366 20.271,224.663 20.907,219.979L20.855,219.942L20.912,219.942ZM19.829,228.744C19.826,228.765 19.824,228.776 19.823,228.776C19.822,228.775 19.822,228.764 19.823,228.74L19.829,228.744ZM65.136,220.264L73.789,215.262L72.986,212.661L66.093,209.374L65.136,220.264ZM140.422,219.337L140.798,219.647L140.704,219.504C140.66,219.433 140.616,219.362 140.572,219.291L140.532,219.223L140.422,219.337ZM145.739,213.877L145.892,213.72L155.861,214.22L155.808,214.129C156.362,214.401 156.963,214.699 157.609,215.02C158.828,215.627 159.963,216.161 161.015,216.624L161.017,216.624C158.455,217.501 155.856,217.79 153.219,217.488C150.129,217.134 147.812,216.23 146.29,214.725C146.027,214.465 145.841,214.183 145.739,213.877ZM96.601,204.074L99.043,213.808L89.278,205.925L89.132,206.044L88.308,210.955L85.514,207.014L88.102,200.839L96.601,204.074ZM150.909,204.314C152.405,204.845 153.862,205.481 155.28,206.222C156.886,207.06 158.955,208.123 161.487,209.409C163.835,210.602 165.96,211.574 167.861,212.324C168.491,211.708 169.061,211.066 169.572,210.399C170.489,209.203 171.087,207.846 171.368,206.328C171.621,204.967 171.485,203.602 170.968,202.232C170.62,202.238 170.392,202.248 170.282,202.265C170.256,202.268 170.23,202.271 170.204,202.272C169.427,202.298 168.819,202.117 168.369,201.779C167.9,201.426 167.581,200.895 167.452,200.163C167.234,198.926 167.626,197.592 168.704,196.185C169.384,195.298 170.301,194.91 171.46,195.035C172.456,195.143 173.259,195.484 173.879,196.036C181.721,196.032 188.081,195.892 192.958,195.616C187.85,191.828 184.48,189.123 182.844,187.506C182.525,187.191 182.239,186.834 181.985,186.434C179.237,187.737 176.255,189.099 173.042,190.519C172.952,190.596 172.848,190.659 172.736,190.704C166.362,193.537 161.438,195.035 157.973,195.226C156.599,195.302 155.285,195.219 154.031,194.976L150.909,204.314ZM82.514,210.544L79.486,210.398L77.72,212.279L76.81,209.574L74.192,208.398L76.662,206.868L76.956,204.28L79.19,205.955L81.867,205.193L80.985,208.221L82.514,210.544ZM152.768,194.673C151.257,194.236 149.84,193.553 148.516,192.626C147.28,191.98 145.998,191.006 144.676,189.699C142.996,188.038 142.024,185.956 141.771,183.449C141.523,181.001 141.794,178.697 142.578,176.536L142.763,176.042C138.936,176.996 135.34,177.461 131.975,177.439C130.491,177.429 129.072,177.319 127.72,177.109L122.306,192.398L129.863,203.515L134.01,201.427L135.422,189.809L143.481,197.28L152.768,194.673ZM115.777,199.663L109.482,199.367L105.835,203.281L103.923,197.691L98.543,195.22L103.629,192.104L104.248,186.693L108.894,190.222L114.453,188.605L112.601,194.897L115.777,199.663ZM148.664,181.785C147.719,180.851 147.47,179.64 147.864,178.163C148.288,176.57 149.147,175.093 150.43,173.726C153.362,172.782 157.188,171.408 161.908,169.601C161.566,170.082 161.205,170.6 160.825,171.154C159.907,172.493 159.102,173.663 158.408,174.663C157.717,175.659 156.964,176.711 156.151,177.819C155.36,178.897 154.629,179.761 153.956,180.411C153.291,181.052 152.605,181.607 151.9,182.075C151.309,182.466 150.747,182.657 150.204,182.607C149.664,182.558 149.157,182.273 148.664,181.785ZM77.897,171.429L78.337,167.43L81.778,170.016L85.896,168.84L84.543,173.488L86.866,177.018L82.22,176.782L79.544,179.693L78.132,175.546L74.133,173.723L77.897,171.429ZM111.13,164.315L105.19,163.989L99.925,169.899L109.924,179.399L123.207,175.952C120.501,174.948 118.131,173.438 116.095,171.425C113.859,169.214 112.205,166.844 111.13,164.315ZM94.514,161.341L96.985,162.165L98.159,168.871L95.955,167.105L95.131,178.694L90.337,172.399L94.514,161.341ZM83.074,163.666L76.485,157.665L83.337,148.607L95.69,149.489L95.338,154.195L88.573,158.167L92.865,160.636L83.074,163.666ZM106.1,159.665L103.07,159.548L101.308,161.429L100.396,158.724L97.779,157.519L100.248,156.018L100.544,153.43L102.778,155.108L105.455,154.343L104.571,157.371L106.1,159.665ZM141.025,117.994C139.633,117.944 138.229,117.92 136.819,117.92C121.668,117.92 107.185,120.802 93.883,126.049L90.279,137.638L96.043,146.373L96.424,144.019L102.984,150.225L111.338,147.974C112.106,146.115 113.135,144.345 114.424,142.663C117.955,138.056 122.677,135.131 128.592,133.893C134.101,132.741 139.473,133.558 144.707,136.356C144.34,132.338 144.929,128.71 146.461,125.472C144.285,122.888 142.474,120.395 141.025,117.994ZM75.653,135.155C76.528,134.618 77.411,134.092 78.301,133.577L79.749,134.667L84.19,133.374L82.72,138.431L85.251,142.255L80.22,142.02L77.309,145.137L75.78,140.668L71.456,138.668L75.543,136.168L75.653,135.155ZM172.562,123.481C174.117,123.979 175.655,124.508 177.179,125.068C177.653,125.376 178.088,125.727 178.486,126.121C178.997,126.625 179.253,127.183 179.224,127.806C179.193,128.479 178.951,129.102 178.508,129.681C176.741,131.986 173.682,132.975 169.371,132.766C165.137,132.561 161.018,130.847 157.005,127.649C160.068,125.201 163.803,123.798 168.203,123.429C169.797,123.296 171.25,123.312 172.562,123.481ZM148.739,118.52C149.162,119.184 149.627,119.855 150.134,120.534C150.726,119.947 151.338,119.4 151.971,118.893C150.898,118.754 149.821,118.629 148.739,118.52ZM180.189,106.092C174.413,104.148 168.461,102.581 162.366,101.421C161.639,100.11 160.883,98.715 160.126,97.318C160.038,97.141 159.95,96.995 159.89,96.847C157.125,91.759 155.303,86.083 153.862,80.436L179.889,104.287L180.419,105.288C180.419,105.288 180.253,105.564 180.189,106.092ZM115.274,100.721C108.993,101.722 102.856,103.153 96.893,104.984L96.631,104.2L98.278,101.641L126.011,79.759C123.982,85.819 121.482,91.818 117.923,97.024L117.894,97.024C117.835,97.141 117.775,97.229 117.687,97.318C117.658,97.406 117.57,97.523 117.452,97.671C116.986,98.312 116.204,99.471 115.274,100.721ZM135.95,51.587C137.215,50.409 138.892,49.792 140.627,49.852C142.334,49.909 143.98,50.645 145.127,51.938C146.303,53.174 146.951,54.849 146.862,56.556C146.803,58.291 146.038,59.908 144.803,61.086C143.509,62.26 141.863,62.879 140.128,62.819C138.421,62.762 136.775,62.026 135.628,60.733C134.452,59.497 133.804,57.82 133.864,56.115C133.952,54.35 134.717,52.763 135.95,51.587ZM207.857,15.296C218.916,11.766 223.15,20.353 218.297,30.998C205.298,42.235 188.889,48.674 171.713,49.233C178.065,33.087 191.329,20.618 207.857,15.296ZM64.545,25.293C60.458,14.325 65.338,6.09 76.074,10.442C92.16,16.971 104.454,30.352 109.63,46.91C92.543,45.117 76.633,37.47 64.545,25.293Z" style="fill:none;stroke:rgb(255,0,0);stroke-width:1px;"/>
</svg>
