<?xml version="1.0" encoding="UTF-8" standalone="no"?>
<!DOCTYPE svg PUBLIC "-//W3C//DTD SVG 1.1//EN" "http://www.w3.org/Graphics/SVG/1.1/DTD/svg11.dtd">
<svg width="100%" height="100%" viewBox="0 0 1123 794" version="1.1" xmlns="http://www.w3.org/2000/svg" xmlns:xlink="http://www.w3.org/1999/xlink" xml:space="preserve" xmlns:serif="http://www.serif.com/" style="fill-rule:evenodd;clip-rule:evenodd;stroke-linejoin:round;stroke-miterlimit:2;">
    <path d="M0.763,233.654C1.257,185.132 27.188,142.701 65.84,118.992C65.398,118.817 65.044,118.669 64.75,118.492L64.722,118.492C55.281,115.374 48.341,108.758 41.958,101.287C30.577,85.318 46.666,69.791 47.751,53.967C48.723,40.557 42.782,25.706 49.694,12.56C53.84,3.853 62.664,0.531 72.427,0.768C81.014,1.208 89.338,4.267 95.161,8.707C107.57,18.236 119.159,31.999 128.776,45.146C128.776,44.116 130.394,42.292 132.157,41.293C133.276,40.617 134.598,40.263 136.01,40.263L144.597,40.263C146.422,40.263 148.067,40.88 149.422,41.91C150.863,43.057 151.891,44.704 152.273,46.587C152.802,46.587 182.859,16.178 188.975,12.177C195.124,8.148 203.623,5.737 212.21,5.942C221.975,6.413 230.502,10.413 234.032,19.412C239.942,32.998 232.913,47.381 232.854,60.821C232.825,76.702 247.707,93.348 235.179,108.435C229.972,113.729 222.856,118.846 215.857,121.903L215.797,121.903C215.417,122.021 214.603,122.283 213.44,122.66C235.706,137.872 253.229,159.522 263.318,184.913L263.635,185.717C269.445,200.605 272.705,216.771 272.875,233.676L272.882,235.085L272.88,235.812L272.866,237.183L272.848,238.157L272.816,239.357L272.777,240.461C272.271,253.525 269.932,266.101 265.999,277.951C265.659,278.997 265.294,280.017 264.925,281.008L264.5,282.186C263.205,285.714 261.764,289.155 260.177,292.537C259.764,293.448 259.353,294.331 258.911,295.213C258.206,296.654 257.441,298.096 256.707,299.508C256.647,299.565 256.619,299.654 256.588,299.713C255.177,302.329 253.677,304.919 252.09,307.419C251.717,307.987 251.375,308.559 250.98,309.103L250.882,309.252C250.472,309.92 250.043,310.551 249.594,311.192L249.354,311.546L249.354,311.565C249.088,312.005 248.794,312.416 248.472,312.829C245.795,316.713 242.913,320.415 239.854,323.976C215.151,352.578 178.758,370.759 138.144,371.142L136.819,371.148C133.222,371.148 129.657,371.008 126.124,370.733C59.482,365.554 6.326,312.384 1.167,245.731C0.895,242.217 0.756,238.667 0.756,235.085L0.763,233.654ZM28.751,280.397C40.488,308.332 62.752,330.776 90.57,342.754C86.43,339.961 82.52,336.774 78.888,333.213C75.47,329.86 75.47,324.406 78.888,321.053C82.307,317.7 87.87,317.7 91.289,321.053C93.511,323.232 95.866,325.23 98.335,327.046C102.763,312.408 102.398,299.836 101.771,293.577L92.474,300.653C89.142,303.191 84.772,303.273 81.343,300.862C77.913,298.45 76.589,294.365 77.972,290.454L85.343,269.604L86.265,255.979C86.324,255.115 86.821,254.338 87.589,253.91C88.356,253.482 89.292,253.461 90.078,253.854C90.199,253.915 91.551,254.595 93.379,255.698L90.219,242.394L72.795,235.617L73.743,234.921L60.959,228.962L55.458,232.149L69.292,238.586L62.38,242.58L48.557,236.132L40.419,240.826L51.529,246.478L40.419,252.14L48.557,256.834L62.38,250.385L69.292,254.369L55.458,260.817L60.959,263.993L74.793,257.544L81.694,261.528L67.871,267.976L78.895,274.349C80.197,275.092 80.639,276.761 79.885,278.064C79.131,279.377 77.474,279.818 76.16,279.065L65.136,272.702L66.471,287.903L59.571,283.92L58.236,268.719L52.734,265.532L54.059,280.733L47.158,276.75L45.834,261.549L37.695,256.856L38.352,269.3L27.898,262.507L27.898,271.906L40.397,280.658L40.397,288.624L28.794,280.5L28.751,280.397ZM233.012,301.959C231.873,301.683 230.731,301.431 229.591,301.155C226.915,302.799 224.267,304.448 221.621,306.066C220.62,306.683 219.327,306.417 218.65,305.447C218.445,305.153 218.326,304.8 218.297,304.448L200.475,303.418L187.72,318.623C190.354,318.261 193.125,319.071 195.146,321.053C196.802,322.677 197.715,324.836 197.714,327.133C197.714,329.43 196.802,331.589 195.146,333.213C191.721,336.571 188.049,339.597 184.169,342.273C198.375,335.983 211.1,326.95 221.671,315.847C221.653,315.726 221.646,315.602 221.65,315.475C221.681,314.328 222.62,313.389 223.767,313.36L223.978,313.353C224.787,312.453 225.583,311.54 226.362,310.616C224.439,310.455 223.754,307.872 225.474,306.802C227.928,305.293 230.355,303.762 232.807,302.252L233.012,301.959ZM152.231,328.2C153.857,330.702 156.365,333.727 158.432,336.092C151.639,338.426 144.423,339.645 137.018,339.645C130.424,339.645 123.98,338.678 117.851,336.819L122.432,328.338C127.245,329.627 139.269,332.015 152.231,328.2ZM177.773,297.679C179.293,301.583 178.384,304.766 175.569,303.113C175.843,310.356 177.192,319.266 178.76,324.648C180.13,323.509 181.461,322.312 182.746,321.053C183.762,320.056 184.968,319.356 186.251,318.952L181.093,299.3L177.773,297.679ZM223.767,299.771C222.62,300.476 221.444,301.212 220.268,301.948L218.827,299.713C219.267,299.448 219.709,299.183 220.151,298.889C221.356,299.183 222.561,299.477 223.767,299.771ZM253.925,238.84C252.55,239.6 250.88,239.866 248.908,239.608C248.227,239.519 247.573,239.376 246.946,239.179C247.234,239.523 247.337,239.897 247.287,240.289C247.225,240.775 246.97,241.11 246.53,241.3C246.501,241.312 246.471,241.322 246.44,241.331C233.71,244.776 219.316,248.145 215.679,249.49C212.167,250.789 209.806,252.047 208.62,253.31C208.315,253.635 208.134,253.947 208.132,254.272C208.129,254.593 208.305,254.902 208.603,255.222C208.946,255.591 209.536,255.898 210.35,256.179C211.734,256.656 213.719,257.015 216.303,257.267C220.685,257.693 225.974,257.58 232.173,256.931C232.225,256.926 232.277,256.926 232.328,256.933C232.684,256.98 232.932,257.12 233.098,257.298C233.281,257.495 233.389,257.751 233.378,258.072C233.417,258.452 233.471,259.19 233.538,260.284C233.538,260.284 233.641,261.962 233.639,261.945C233.69,262.411 233.557,262.732 233.365,262.937C233.206,263.105 232.991,263.223 232.701,263.251C227.417,263.92 223.012,264.29 219.484,264.361C215.887,264.433 212.923,264.1 210.59,263.372C208.235,262.639 206.446,261.85 205.217,261.02C203.995,260.194 202.645,258.991 201.169,257.405C199.13,255.214 197.98,252.747 197.708,250.01C197.483,247.744 197.93,245.785 199.035,244.129C195.958,243.68 193.349,242.651 191.206,241.055L189.181,246.452L193.977,254.57L184.8,253.892L181.418,258.158L196.505,270.363L217.563,265.832L210.092,286.304L214.679,293.332C214.886,293.39 215.092,293.448 215.297,293.478C215.003,293.008 214.709,292.537 214.444,292.068C213.827,291.067 214.15,289.772 215.209,289.213C216.208,288.655 217.503,289.009 218.12,289.979C219.121,291.624 220.12,293.244 221.091,294.862C222.326,295.154 223.533,295.448 224.738,295.744C223.798,294.214 222.885,292.712 221.975,291.213C221.356,290.183 221.681,288.89 222.737,288.331C223.738,287.802 225.032,288.125 225.65,289.124C227.268,291.772 228.915,294.449 230.531,297.123C231.737,297.39 232.973,297.682 234.178,297.978C232.591,295.39 231.002,292.802 229.414,290.214C228.325,288.419 230.296,286.304 232.178,287.303C232.847,287.663 233.514,288.023 234.18,288.383L238.176,290.544C238.654,290.802 239.133,291.061 239.613,291.319C239.716,291.13 239.819,290.941 239.922,290.753C239.654,289.848 239.386,288.951 239.12,288.037C236.355,286.567 233.619,285.068 230.856,283.596C229.854,283.068 229.414,281.773 229.914,280.745C230.414,279.657 231.678,279.244 232.737,279.803C234.297,280.656 235.855,281.479 237.414,282.332C237.06,281.125 236.708,279.949 236.355,278.744C234.65,277.832 232.973,276.95 231.296,276.039C230.296,275.48 229.885,274.216 230.356,273.186C230.856,272.098 234.149,272.774 234.65,273.038C234.266,271.833 241.24,270.254 242.239,270.871C243.241,271.459 243.589,271.508 243.059,272.538L240.325,277.569L241.383,281.125C242.236,279.569 243.09,278.039 243.912,276.479C244.491,275.437 245.727,275.106 246.747,275.686C251.015,264.149 253.518,251.756 253.925,238.84ZM202.504,293.509L195.447,293.184L191.358,297.567L189.212,291.301L183.182,288.507L188.858,285.008L189.565,278.948L194.77,282.891L201.006,281.098L198.946,288.154L202.504,293.509ZM144.712,285.874L145.927,285.831C153.666,285.755 159.844,286.382 165.152,287.752L177.948,279.302L179.124,269.362L157.803,267.421L144.712,285.874ZM96.372,257.636C97.666,258.539 98.998,259.563 100.194,260.664C108.144,261.53 115.866,266.542 122.586,275.216C126.172,279.845 128.6,284.364 129.777,286.756C132.882,286.467 135.79,286.245 138.527,286.09L139.258,286.065L135.51,262.245L112.218,252.716L120.717,247.071L106.454,245.776L96.372,257.636ZM94.108,273.251C95.738,273.251 97.061,274.548 97.061,276.146C97.061,277.744 95.738,279.041 94.108,279.041C92.479,279.041 91.156,277.744 91.156,276.146C91.156,274.548 92.479,273.251 94.108,273.251ZM170.776,249.805C170.565,249.852 170.355,249.896 170.146,249.938L179.241,263.569L176.007,252.188L170.776,249.805ZM151.091,243.206L145.391,238.864L144.568,246.216L137.657,250.424L144.979,253.804L147.568,261.394L152.508,256.069L161.037,256.48L156.745,250.011L157.12,248.729C155.479,247.941 154.03,246.869 152.771,245.517C152.076,244.769 151.516,243.999 151.091,243.206ZM136.951,215.603L134.158,214.25L133.128,238.953L124.099,244.982L114.747,230.777L121.159,213.484L107.513,216.397L113.805,208.336L131.216,209.631L135.804,211.22L136.951,215.603ZM161.479,242.176C161.333,242.018 161.344,241.749 161.385,241.391C161.442,240.897 161.755,240.388 162.274,239.835C163.759,238.254 166.262,236.644 169.771,234.984C173.199,233.361 178.729,231.32 186.359,228.857C186.041,230.734 186.081,232.526 186.477,234.234C182.309,237.444 177.461,239.972 171.935,241.822C168.598,242.94 165.972,243.424 164.051,243.241C162.919,243.133 162.055,242.794 161.479,242.176ZM108.423,237.6L102.159,237.308L98.513,241.218L96.601,235.629L91.221,233.158L96.278,230.041L96.897,224.63L101.543,228.16L107.101,226.542L105.276,232.835L108.423,237.6ZM200.644,223.671C200.56,223.942 200.497,224.215 200.456,224.491C201.048,228.137 199.49,232.013 195.674,236.078C195.674,236.078 195.517,236.245 195.517,236.245C196.525,236.909 197.86,237.352 199.512,237.593C202.645,238.051 206.876,237.772 212.203,236.777C216.456,235.416 228.98,232.619 237.354,230.337C237.361,230.335 237.368,230.334 237.376,230.332C238.077,230.167 238.761,230.379 239.395,231.06L240.454,232.198C240.358,230.58 241.032,229.285 242.486,228.318C242.711,228.169 242.945,228.034 243.188,227.913C240.655,228.393 237.88,228.714 234.864,228.875C229.963,229.136 224.824,228.953 219.447,228.324C214.078,227.696 208.26,226.353 201.997,224.29C201.492,224.124 201.042,223.915 200.644,223.671ZM27.866,191.94L27.866,191.939C35.519,172.65 48.152,155.866 64.177,143.178L70.546,145.608L72.309,151.812L72.104,167.459L61.28,174.605L73.22,179.604L77.192,191.927L84.455,182.341L94.748,183.163L94.574,185.811L78.604,196.25L83.984,199.367L80.191,200.339L72.897,194.369L71.956,203.573L66.25,207.577L66.471,205.063L59.571,209.046L58.236,224.247L52.734,227.423L54.059,212.222L47.158,216.205L45.834,231.406L37.695,236.1L38.352,223.655L27.898,230.448L27.898,221.06L40.397,212.308L40.397,204.331L27.898,213.083L27.898,206.731L40.397,197.979L40.397,190.013L27.898,198.754L27.898,191.859C27.888,191.886 27.877,191.913 27.866,191.94ZM153.899,230.598L153.948,230.545C156.855,227.447 160.339,224.889 164.401,222.872C166.203,221.977 168.414,221.031 171.034,220.035L171.033,220.034C170.676,219.947 170.331,219.851 169.999,219.748C167.644,219.014 165.855,218.225 164.626,217.395C163.405,216.569 162.054,215.366 160.579,213.781C158.539,211.589 157.389,209.122 157.117,206.385C156.838,203.581 157.588,201.247 159.344,199.376C160.92,197.697 163.497,196.135 167.091,194.719C169.374,193.82 176.287,192.145 184.2,190.165L168.035,171.399C167.784,171.476 167.482,171.581 167.129,171.714C167.121,171.717 167.113,171.72 167.105,171.722C164.187,172.695 161.958,173.435 160.419,173.94C158.876,174.446 156.704,175.121 153.904,175.965C151.093,176.811 148.879,177.425 147.262,177.805C145.648,178.185 143.57,178.623 141.03,179.118C138.453,179.621 136.354,179.884 134.732,179.912C133.129,179.94 131.269,179.904 129.153,179.806C128.335,179.767 127.563,179.7 126.836,179.604L122.306,192.398L129.863,203.515L134.01,201.427L135.422,189.809L143.481,197.28L154.274,194.25L150.596,205.25L155.861,214.22L145.892,213.72L140.422,219.337L153.743,230.337L153.899,230.598ZM79.742,230.517L67.871,224.979L75.44,220.61L75.691,221.425L81.367,214.368L88.425,215.19L87.866,224.809L84.955,226.69L79.742,230.517ZM20.912,219.942L20.907,219.979L22.451,221.06L22.451,230.448L19.829,228.744C19.884,228.366 20.271,224.663 20.907,219.979L20.855,219.942L20.912,219.942ZM253.512,224.506C251.823,225.375 249.9,226.141 247.742,226.802C247.307,226.935 246.862,227.063 246.408,227.184C246.9,227.177 247.415,227.208 247.952,227.278C250.09,227.558 251.963,228.368 253.573,229.706C253.676,229.792 253.777,229.878 253.874,229.965C253.795,228.134 253.674,226.314 253.512,224.506ZM19.829,228.744C19.826,228.765 19.824,228.776 19.823,228.776C19.822,228.775 19.822,228.764 19.823,228.74L19.829,228.744ZM65.136,220.264L73.789,215.262L72.986,212.661L66.093,209.374L65.136,220.264ZM246.027,209.468C238.553,207.506 217.592,213.068 209.054,216.365C212.379,217.367 215.918,218.411 220.934,218.897C225.809,219.369 242.533,217.599 244.955,215.794C246.62,214.552 247.445,213.277 247.402,211.963C247.373,211.07 246.91,210.239 246.027,209.468ZM96.601,204.074L99.043,213.808L89.278,205.925L89.132,206.044L88.308,210.955L85.514,207.014L88.102,200.839L96.601,204.074ZM243.947,187.599C243.343,188.13 242.611,188.607 241.751,189.028C240.65,189.568 239.344,189.944 237.829,190.149C236.291,190.358 234.578,190.084 232.695,189.302C230.858,188.539 229.089,187.253 227.395,185.432C224.819,182.663 221.796,178.623 218.331,173.306C214.895,168.035 211.022,162.295 206.714,156.086C202.421,149.899 197.947,144.304 193.291,139.3C188.924,134.606 184.051,130.978 178.671,128.416C173.303,125.861 168.169,124.432 163.266,124.138C158.372,123.846 153.823,124.362 149.62,125.692C145.463,127.009 142.113,129.011 139.577,131.712C137.833,133.57 136.926,135.574 136.881,137.736C136.837,139.893 137.733,141.93 139.531,143.863C141.973,146.487 145.012,147.965 148.646,148.299C152.18,148.625 154.649,148.134 156.02,146.673C156.336,146.337 156.667,146.223 156.968,146.236C157.255,146.249 157.558,146.378 157.833,146.701C158.058,146.966 158.289,147.413 158.497,148.051C158.718,148.629 158.855,149.179 158.91,149.703C159.67,150.224 160.602,151.096 161.745,152.455C164.365,155.574 168.819,157.008 169.865,156.761C178.207,154.785 185.239,154.166 190.958,154.889C197.961,155.775 203.502,158.428 207.593,162.825L207.593,162.825C209.237,164.591 209.74,166.218 209.276,167.64C209.105,168.28 208.793,168.603 208.518,168.721C208.167,168.872 207.691,168.836 207.203,168.313C205.786,166.789 203.985,165.707 201.804,165.06C199.577,164.399 196.979,164.236 194.009,164.56C190.968,164.891 188.003,165.407 185.112,166.108C182.448,166.754 179.32,167.672 175.727,168.861L192.289,188.108C193.885,187.693 195.472,187.272 197.024,186.849C197.031,186.847 197.039,186.845 197.046,186.844C197.747,186.679 198.431,186.89 199.065,187.572L199.856,188.422C199.81,186.875 200.486,185.63 201.896,184.694C203.35,183.727 205.169,183.367 207.361,183.654C209.499,183.933 211.372,184.743 212.982,186.082C214.646,187.464 215.565,189.007 215.78,190.685C216.01,192.48 215.349,193.902 213.783,194.943C212.328,195.91 210.509,196.27 208.317,195.983C207.705,195.903 207.115,195.78 206.547,195.613L206.547,195.613C206.888,195.979 207.011,196.379 206.957,196.8C206.895,197.287 206.64,197.622 206.2,197.811C206.171,197.824 206.141,197.834 206.111,197.843C193.38,201.287 178.725,204.521 175.088,205.866C171.576,207.165 169.215,208.422 168.03,209.685C167.724,210.011 167.543,210.322 167.541,210.647C167.539,210.969 167.714,211.277 168.012,211.598C168.356,211.967 168.945,212.273 169.759,212.554C171.143,213.031 173.128,213.39 175.713,213.642C180.094,214.069 182.87,213.305 189.068,212.656C189.12,212.65 189.172,212.651 189.224,212.658C189.296,212.667 189.363,212.68 189.424,212.697C197.536,210.359 213.511,204.411 225.462,201.339C232.479,199.536 244.923,200.717 249.035,201.314C247.621,196.613 245.918,192.035 243.947,187.599ZM82.514,210.544L79.486,210.398L77.72,212.279L76.81,209.574L74.192,208.398L76.662,206.868L76.956,204.28L79.19,205.955L81.867,205.193L80.985,208.221L82.514,210.544ZM115.777,199.663L109.482,199.367L105.835,203.281L103.923,197.691L98.543,195.22L103.629,192.104L104.248,186.693L108.894,190.222L114.453,188.605L112.601,194.897L115.777,199.663ZM198.633,135.557C199.328,136.266 200.02,136.992 200.71,137.733C203.457,140.686 208.447,146.496 215.678,155.165C222.89,163.809 229.703,171.579 236.117,178.473C237.428,179.881 238.705,180.911 239.957,181.553C240.479,181.82 240.956,182.041 241.387,182.214C231.659,163.029 216.806,146.874 198.633,135.557ZM77.897,171.429L78.337,167.43L81.778,170.016L85.896,168.84L84.543,173.488L86.866,177.018L82.22,176.782L79.544,179.693L78.132,175.546L74.133,173.723L77.897,171.429ZM110.497,164.28L105.19,163.989L99.925,169.899L109.924,179.399L119.261,176.976C119.149,176.914 119.037,176.852 118.925,176.788C117.311,175.874 115.889,174.755 114.658,173.432C112.229,170.822 110.843,167.771 110.497,164.28ZM94.514,161.341L96.985,162.165L98.159,168.871L95.955,167.105L95.131,178.694L90.337,172.399L94.514,161.341ZM83.074,163.666L76.485,157.665L83.337,148.607L95.69,149.489L95.338,154.195L88.573,158.167L92.865,160.636L83.074,163.666ZM129.542,118.143C117.026,118.911 105.039,121.648 93.883,126.049L90.279,137.638L96.043,146.373L96.424,144.019L102.984,150.225L112.042,147.785L109.747,157.196L110.789,158.873C111.131,157.541 111.697,156.464 112.473,155.637C113.157,154.908 113.861,154.448 114.57,154.234C115.488,153.957 116.168,154.141 116.636,154.644C116.683,154.694 116.75,154.782 116.807,154.923C116.875,155.091 116.973,155.472 117.088,156.068C117.191,156.604 117.417,157.062 117.768,157.44C118.978,158.74 120.215,159.816 121.482,160.667C122.738,161.511 124.54,162.219 126.879,162.808C129.26,163.407 132.009,163.677 135.126,163.624C138.282,163.569 142.359,163.093 147.357,162.2C150.702,161.603 154.36,160.805 158.329,159.807C159.495,159.515 157.636,156.771 156.324,154.426C153.805,156.188 150.147,156.844 145.331,156.318C139.668,155.699 134.621,153.022 130.198,148.27C126.546,144.345 124.427,139.504 123.849,133.743C123.266,127.923 124.752,123.14 128.278,119.384C128.681,118.955 129.102,118.541 129.542,118.143ZM106.1,159.665L103.07,159.548L101.308,161.429L100.396,158.724L97.779,157.519L100.248,156.018L100.544,153.43L102.778,155.108L105.455,154.343L104.571,157.371L106.1,159.665ZM75.653,135.155C76.528,134.618 77.411,134.092 78.301,133.577L79.749,134.667L84.19,133.374L82.72,138.431L85.251,142.255L80.22,142.02L77.309,145.137L75.78,140.668L71.456,138.668L75.543,136.168L75.653,135.155ZM180.189,106.092C174.413,104.148 168.461,102.581 162.366,101.421C161.639,100.11 160.883,98.715 160.126,97.318C160.038,97.141 159.95,96.995 159.89,96.847C157.125,91.759 155.303,86.083 153.862,80.436L179.889,104.287L180.419,105.288C180.419,105.288 180.253,105.564 180.189,106.092ZM115.274,100.721C108.993,101.722 102.856,103.153 96.893,104.984L96.631,104.2L98.278,101.641L126.011,79.759C123.982,85.819 121.482,91.818 117.923,97.024L117.894,97.024C117.835,97.141 117.775,97.229 117.687,97.318C117.658,97.406 117.57,97.523 117.452,97.671C116.986,98.312 116.204,99.471 115.274,100.721ZM135.95,51.587C137.215,50.409 138.892,49.792 140.627,49.852C142.334,49.909 143.98,50.645 145.127,51.938C146.303,53.174 146.951,54.849 146.862,56.556C146.803,58.291 146.038,59.908 144.803,61.086C143.509,62.26 141.863,62.879 140.128,62.819C138.421,62.762 136.775,62.026 135.628,60.733C134.452,59.497 133.804,57.82 133.864,56.115C133.952,54.35 134.717,52.763 135.95,51.587ZM207.857,15.296C218.916,11.766 223.15,20.353 218.297,30.998C205.298,42.235 188.889,48.674 171.713,49.233C178.065,33.087 191.329,20.618 207.857,15.296ZM64.545,25.293C60.458,14.325 65.338,6.09 76.074,10.442C92.16,16.971 104.454,30.352 109.63,46.91C92.543,45.117 76.633,37.47 64.545,25.293Z" style="fill:none;stroke:rgb(255,0,0);stroke-width:1px;"/>
</svg>
