<?xml version="1.0" encoding="UTF-8" standalone="no"?>
<!DOCTYPE svg PUBLIC "-//W3C//DTD SVG 1.1//EN" "http://www.w3.org/Graphics/SVG/1.1/DTD/svg11.dtd">
<svg width="100%" height="100%" viewBox="0 0 1123 794" version="1.1" xmlns="http://www.w3.org/2000/svg" xmlns:xlink="http://www.w3.org/1999/xlink" xml:space="preserve" xmlns:serif="http://www.serif.com/" style="fill-rule:evenodd;clip-rule:evenodd;stroke-linejoin:round;stroke-miterlimit:2;">
    <path d="M144.768,40.265C146.525,40.302 148.11,40.912 149.422,41.91C150.863,43.057 151.891,44.704 152.273,46.587C152.802,46.587 182.859,16.178 188.975,12.177C194.836,8.337 202.831,5.966 211.003,5.93C211.404,5.929 211.807,5.932 212.21,5.942C221.975,6.413 230.502,10.413 234.032,19.412C239.942,32.998 232.913,47.381 232.854,60.821C232.825,76.702 247.707,93.348 235.179,108.435C229.972,113.729 222.856,118.846 215.857,121.903L215.797,121.903L214.909,122.185L213.44,122.66C235.271,137.575 252.544,158.68 262.718,183.428L263.146,184.482L263.635,185.717L264.183,187.147L264.715,188.58L264.956,189.247L265.465,190.694L265.958,192.147L266.475,193.735L266.941,195.223L267.39,196.719L267.822,198.222L268.318,200.033L268.765,201.757L269.14,203.283L269.499,204.816L269.84,206.356L270.097,207.582L270.267,208.418L270.567,209.973L270.849,211.533L271.113,213.1L271.309,214.338L271.419,215.073L271.66,216.779L271.864,218.366L272.05,219.958L272.182,221.204L272.257,221.958L272.366,223.158L272.397,223.517L272.519,225.075L272.624,226.63L272.71,228.177L272.746,228.945L272.807,230.524L272.85,232.102C272.861,232.627 272.87,233.152 272.875,233.676L272.882,235.204L272.88,235.812C272.877,236.27 272.873,236.727 272.866,237.183L272.845,238.277C272.836,238.637 272.827,238.997 272.816,239.357L272.77,240.666L272.707,242.056L272.66,242.916C272.616,243.693 272.566,244.469 272.509,245.242L272.378,246.891L272.235,248.448L272.115,249.632L271.964,250.996L271.773,252.558L271.607,253.813L271.429,255.064L271.176,256.717L270.983,257.897L270.743,259.275L270.405,261.091L270.108,262.584L269.863,263.752L269.428,265.714L269.074,267.212L268.795,268.344L268.42,269.801L268.042,271.21L267.725,272.344L267.361,273.601L266.892,275.16L266.363,276.838L265.822,278.487L265.452,279.56L265.025,280.738L264.863,281.178C264.752,281.514 264.639,281.848 264.5,282.186C263.205,285.714 261.764,289.155 260.177,292.537C259.764,293.448 259.353,294.331 258.911,295.213C258.206,296.654 257.441,298.096 256.707,299.508C256.647,299.565 256.619,299.654 256.588,299.713C255.177,302.329 253.677,304.919 252.09,307.419L251.385,308.513L250.98,309.103L250.316,310.136L249.767,310.943L249.354,311.546L249.354,311.565C249.088,312.005 248.794,312.416 248.472,312.829C247.32,314.5 246.13,316.138 244.904,317.745L244.816,317.86C243.221,319.948 241.565,321.984 239.854,323.976L239.073,324.871L238.079,325.991L237.478,326.655L236.874,327.314L236.265,327.97L235.652,328.622L235.034,329.27L234.413,329.913L233.787,330.553L233.157,331.188L232.523,331.819L231.885,332.446L231.243,333.069L230.597,333.688L229.946,334.303L229.292,334.913L228.634,335.519L227.305,336.718L225.961,337.9L224.601,339.064L223.226,340.21L221.835,341.339L220.43,342.45L219.251,343.358L218.294,344.082L217.12,344.95L216.125,345.672L214.957,346.501L213.924,347.22L212.763,348.011L211.691,348.725L210.538,349.478L209.428,350.187L208.283,350.903L207.134,351.605L205.999,352.284L204.81,352.979L203.686,353.621L202.128,354.488L200.557,355.336L199.718,355.777L198.921,356.19L198.122,356.597L197.319,356.999L196.514,357.396L195.706,357.788L194.894,358.175L194.08,358.556L193.263,358.932L192.443,359.303L191.621,359.668L190.795,360.029L189.967,360.383L189.136,360.733L188.303,361.077L187.466,361.416L186.627,361.749L185.472,362.197L184.208,362.674L183.508,362.932C175.658,365.798 167.471,367.962 159.021,369.348L157.605,369.572L156.197,369.781L154.318,370.035L152.436,370.263L150.549,370.465L148.516,370.653L146.646,370.8L144.654,370.927L142.787,371.02L140.923,371.087L139.53,371.121L138.144,371.142L136.819,371.148L135.472,371.141L135.01,371.136L133.308,371.103L132.116,371.068L131.571,371.048C131.011,371.027 130.452,371.002 129.893,370.974L128.91,370.921L128.07,370.87L126.787,370.783L125.344,370.67L124.595,370.605L123.757,370.528L122.78,370.431L121.461,370.29L119.917,370.108L119.147,370.01L118.622,369.94C61.059,362.253 14.891,318.582 3.474,262.277L3.239,261.09L2.955,259.579L2.689,258.062L2.439,256.54L2.206,255.012L1.989,253.478L1.79,251.939L1.609,250.395L1.444,248.846L1.295,247.267L1.199,246.139L1.071,244.412L1.03,243.782L0.93,242.013L0.887,241.098L0.867,240.61L0.814,239.101L0.782,237.765L0.762,236.427L0.756,235.069L0.761,233.92L0.78,232.504L0.814,231.055L0.874,229.343L0.941,227.924L1.04,226.215L1.16,224.51L1.339,222.399L1.503,220.733L1.754,218.52L1.965,216.867L2.116,215.769L2.36,214.126L2.623,212.491L2.832,211.276L3.004,210.32L3.25,209.022L3.391,208.305L3.7,206.805L3.847,206.115L4.228,204.413L4.525,203.156L4.699,202.441L5.07,200.971L5.248,200.286L5.705,198.602L6.047,197.393L6.255,196.679L6.685,195.245L7.142,193.78L7.652,192.213L8.179,190.657L8.724,189.112L9.286,187.576L9.865,186.051L10.462,184.535L11.076,183.028L11.589,181.809L12.228,180.334L12.884,178.867L13.557,177.41L14.247,175.963L14.953,174.524L15.675,173.096L16.414,171.677L17.169,170.268L17.681,169.334L18.2,168.404L18.727,167.479L19.26,166.559L19.8,165.643L20.347,164.732L20.901,163.825L21.462,162.923L21.995,162.081C24.011,158.918 26.155,155.843 28.418,152.865L29.105,151.969L30.119,150.673L31.137,149.404L32.163,148.156L33.2,146.924L34.249,145.708L35.309,144.506L36.64,143.037L37.833,141.756L39.206,140.322L40.549,138.958L41.845,137.678L43.198,136.376L44.743,134.932L46.31,133.513L47.5,132.464L48.702,131.429L49.916,130.407L51.142,129.4L52.38,128.406L53.63,127.427L54.892,126.462L56.165,125.511L57.449,124.575L58.745,123.654L60.052,122.747L61.369,121.855L62.698,120.978L64.037,120.117L64.936,119.551L65.84,118.992C65.398,118.817 65.044,118.669 64.75,118.492L64.722,118.492C55.281,115.374 48.341,108.758 41.958,101.287C30.577,85.318 46.666,69.791 47.751,53.967C48.723,40.557 42.782,25.706 49.694,12.56C53.84,3.853 62.664,0.531 72.427,0.768C81.014,1.208 89.338,4.267 95.161,8.707C107.57,18.236 119.159,31.999 128.776,45.146C128.776,44.116 130.394,42.292 132.157,41.293C133.276,40.617 134.598,40.263 136.01,40.263L144.597,40.263L144.768,40.265ZM233.106,301.981L233,302.134C230.483,303.681 227.993,305.253 225.474,306.802C223.721,307.892 224.466,310.555 226.475,310.623C225.699,311.543 224.907,312.453 224.102,313.349L223.767,313.36C222.62,313.389 221.681,314.328 221.65,315.475C221.645,315.641 221.659,315.803 221.69,315.957C200.328,338.368 170.192,352.34 136.819,352.34C129.603,352.34 122.539,351.687 115.679,350.436L134.186,327.506L164.772,329.681L159.508,320.888L165.184,312.093L175.802,312.975L170.243,303.566L173.565,295.625L181.093,299.3L186.535,320.035L200.475,303.418L218.297,304.448C218.326,304.8 218.445,305.153 218.65,305.447C219.327,306.417 220.62,306.683 221.621,306.066C224.267,304.448 226.915,302.799 229.591,301.155C230.762,301.438 231.935,301.697 233.106,301.981ZM107.895,341.033L113.364,348.678L110.159,337.003L107.895,341.033ZM104.571,345.769L100.63,345.592L99.878,346.393C99.065,346.123 98.255,345.844 97.449,345.556L97.102,344.532L93.718,342.975L96.925,341.004L97.306,337.591L100.219,339.797L103.749,338.798L102.571,342.768L104.571,345.769ZM85.131,273.303L79.354,270.4L80.178,272.648C80.193,272.692 80.209,272.736 80.222,272.78C81.181,275.96 79.411,279.432 76.27,280.531C74.342,281.206 72.35,280.866 70.84,279.792C71.014,281.638 70.315,283.537 68.77,284.872C67.596,285.888 66.126,286.394 64.662,286.394C62.977,286.394 61.301,285.725 60.085,284.426C60.052,284.392 60.022,284.357 59.993,284.321L57.193,280.956L57.193,288.369C57.193,291.684 54.444,294.418 50.997,294.418C47.547,294.418 44.798,291.684 44.798,288.369L44.798,280.956L41.998,284.321C41.969,284.357 41.939,284.392 41.906,284.426C39.633,286.853 35.746,287.057 33.221,284.874L33.221,284.872C31.676,283.537 30.977,281.638 31.152,279.792C30.457,280.285 29.66,280.624 28.814,280.779C39.992,307.142 60.547,328.582 86.29,340.908L91.19,337.739L92.396,325.651L101.189,333.062L108.66,330.739L105.749,320.828L76.779,308.771L84.691,302.624L82.543,295.744L74.367,291.949L81.926,286.273L82.749,277.684L87.308,281.333L85.131,273.303ZM117.923,310.182L108.954,306.066L117.395,300.861L118.423,291.83L126.187,297.713L135.451,295.037L132.392,305.535L137.657,313.475L127.187,312.975L121.099,319.533L117.923,310.182ZM158.478,319.476L151.155,307.801L156.126,310.066L158.478,319.476ZM156.891,305.007L159.832,303.212L160.184,300.067L162.889,302.125L166.096,301.183L165.036,304.83L166.861,307.595L163.243,307.419L161.125,309.711L160.007,306.448L156.891,305.007ZM169.832,294.508L163.95,296.566L155.684,289.92L154.539,300.772L148.686,303.77L158.714,273.038L151.862,274.421L157.803,267.421L179.124,269.362L177.948,279.302L160.979,290.508L169.832,294.508ZM223.767,299.771C222.62,300.476 221.444,301.212 220.268,301.948L218.827,299.713C219.267,299.448 219.709,299.183 220.151,298.889C221.356,299.183 222.561,299.477 223.767,299.771ZM91.073,297.625L88.014,301.654L94.543,297.832L91.073,297.625ZM229.887,280.802C229.674,280.809 229.468,280.808 229.27,280.801C227.746,280.749 226.604,280.502 225.835,280.098C225.081,279.701 224.235,279.013 223.309,278.022C222.115,276.746 221.601,275.045 221.815,272.905C221.96,271.453 222.394,270.105 223.117,268.861C220.422,269.496 218.178,269.555 216.38,269.072L210.092,286.304L214.679,293.332C214.886,293.39 215.092,293.448 215.297,293.478C215.003,293.008 214.709,292.537 214.444,292.068C213.827,291.067 214.15,289.772 215.209,289.213C216.208,288.655 217.503,289.009 218.12,289.979C219.121,291.624 220.12,293.244 221.091,294.862C222.326,295.154 223.533,295.448 224.738,295.744C223.798,294.214 222.885,292.712 221.975,291.213C221.356,290.183 221.681,288.89 222.737,288.331C223.738,287.802 225.032,288.125 225.65,289.124C227.268,291.772 228.915,294.449 230.531,297.123C231.737,297.39 232.973,297.682 234.178,297.978C232.591,295.39 231.002,292.802 229.414,290.214C228.325,288.419 230.296,286.304 232.178,287.303C234.692,288.656 237.18,290.008 239.692,291.362L239.958,290.875C239.678,289.929 239.398,288.992 239.12,288.037C236.355,286.567 233.619,285.068 230.856,283.596C229.873,283.078 229.431,281.82 229.887,280.802ZM202.504,293.509L195.447,293.184L191.358,297.567L189.212,291.301L183.182,288.507L188.858,285.008L189.565,278.948L194.77,282.891L201.006,281.098L198.946,288.154L202.504,293.509ZM92.631,293.39L89.278,293.213L87.308,295.331L86.279,292.331L83.396,291.007L86.132,289.332L86.455,286.419L88.926,288.302L91.926,287.449L90.927,290.83L92.631,293.39ZM95.661,275.126L103.66,275.774L102.836,292.331L98.924,294.566L95.807,289.772L98.543,281.596L89.338,283.271L95.661,275.126ZM236.547,279.397C235.965,279.582 235.418,279.748 234.906,279.894C234.439,280.028 233.99,280.146 233.558,280.25C234.844,280.946 236.129,281.629 237.414,282.332C237.124,281.344 236.836,280.376 236.547,279.397ZM243.733,276.817C243.698,276.833 243.662,276.847 243.625,276.86C242.508,277.293 241.455,277.689 240.468,278.048C240.773,279.071 241.078,280.109 241.383,281.125C242.175,279.681 242.966,278.261 243.733,276.817ZM98.806,255.804L106.454,245.776L120.717,247.071L112.218,252.716L135.51,262.245L139.303,278.155L128.657,280.979L104.542,260.512L103.66,269.596L100.984,266.009L104.69,255.07L98.806,255.804ZM251.299,260.538C243.638,264.544 238.694,267.17 236.466,268.416C232.966,270.375 230.607,272.063 229.407,273.507C229.017,273.976 228.849,274.35 229.149,274.671C229.456,275 229.919,275.19 230.519,275.281C231.239,275.39 232.133,275.349 233.202,275.173C235.483,274.797 238.9,273.807 243.455,272.208C243.457,272.207 243.46,272.206 243.463,272.205C243.768,272.102 244.007,272.158 244.184,272.262C244.395,272.386 244.618,272.645 244.601,273.137C244.592,273.389 244.558,273.854 244.498,274.531C244.44,275.173 244.407,275.613 244.399,275.852C244.398,275.862 244.398,275.872 244.397,275.882C245.054,275.322 245.996,275.234 246.796,275.714L246.825,275.733C248.646,270.815 250.146,265.74 251.299,260.538ZM33.617,275.518L35.978,260.906L44.798,256.088L45.284,265.759L33.617,275.518ZM68.374,275.516L56.423,266.816L57.193,256.088L66.785,261.932L68.374,275.516ZM190.532,242.852L189.181,246.452L193.977,254.57L184.8,253.892L181.418,258.158L196.505,270.363L212.877,266.84C211.53,265.212 211.019,263.279 211.352,261.039C211.566,259.599 212.091,258.147 212.932,256.685C210.725,257.301 208.919,257.578 207.517,257.53C205.993,257.477 204.85,257.23 204.082,256.826C203.327,256.429 202.482,255.742 201.556,254.751C200.362,253.474 199.848,251.773 200.062,249.634C200.199,248.263 200.593,246.986 201.244,245.801C199.513,246.201 198.074,246.36 196.93,246.287C195.416,246.19 194.28,245.925 193.516,245.523C192.757,245.123 191.965,244.49 191.145,243.614C190.918,243.371 190.714,243.118 190.532,242.852ZM95.955,263.598C95.955,263.598 93.726,264.232 93.726,264.232C94.485,265.959 94.443,268.037 93.413,269.845L96.72,269.979C96.72,269.979 94.896,267.246 94.896,267.246L95.955,263.598ZM236.87,258.811C235.201,259.674 233.791,260.451 232.638,261.14C229.153,262.565 226.162,263.511 223.669,263.969C222.479,264.188 221.491,264.255 220.702,264.157C220.045,264.075 219.545,263.887 219.221,263.541C218.969,263.271 218.933,262.878 219.021,262.38C219.138,261.728 219.501,261.056 220.087,260.351C221.506,258.644 223.573,256.969 226.28,255.316C228.995,253.659 231.69,252.519 234.369,251.901C236.801,251.34 238.505,251.46 239.454,252.475C239.965,253.022 239.952,253.83 239.58,254.889C239.139,256.147 238.229,257.45 236.871,258.81L236.87,258.811ZM169.743,249.334L176.007,252.188L179.241,263.569L169.743,249.334ZM137.657,250.424L144.568,246.216L145.391,238.864L151.685,243.658L159.242,241.481L156.745,250.011L161.037,256.48L152.508,256.069L147.568,261.394L144.979,253.804L137.657,250.424ZM93.065,254.373C92.686,254.936 92.218,255.437 91.68,255.854L93.838,257.628C93.838,257.628 93.065,254.373 93.065,254.373ZM162.879,120.741C163.278,121.13 163.671,121.532 164.058,121.946C165.254,123.225 166.381,124.625 167.44,126.147C168.485,127.649 169.57,129.279 170.696,131.039C171.741,132.671 172.609,133.985 173.3,134.979C175.983,135.747 178.183,137.057 179.907,138.901C180.553,139.592 180.947,140.452 181.079,141.486C181.218,142.578 180.969,143.48 180.37,144.201C179.49,145.26 178.441,145.807 177.237,145.869C176.034,145.932 174.891,145.427 173.835,144.298C172.842,143.235 171.776,141.905 170.639,140.305C167.464,140.445 163.889,141.36 159.911,143.036C155.895,144.728 151.154,147.078 145.69,150.085C145.69,150.085 153.668,158.62 153.668,158.62C155.088,157.881 156.835,156.971 158.909,155.893C163.21,153.644 167.233,151.89 170.977,150.629C174.748,149.358 177.938,148.591 180.547,148.32C183.186,148.046 185.61,148.113 187.82,148.515C190.063,148.923 191.86,149.526 193.213,150.31C194.569,151.096 195.787,152.066 196.868,153.223C197.857,154.281 198.197,155.509 197.892,156.906C197.888,156.926 197.882,156.946 197.876,156.966C197.688,157.56 197.379,157.827 197.158,157.909C196.864,158.018 196.525,157.994 196.201,157.648C195.042,156.408 193.609,155.551 191.905,155.076C190.16,154.589 188.36,154.449 186.506,154.657C184.605,154.869 182.405,155.407 179.903,156.266C177.371,157.135 174.996,158.087 172.777,159.123C170.548,160.165 167.979,161.457 165.072,163.001C155.794,167.984 148.959,171.96 144.571,174.931C140.229,177.872 136.765,180.892 134.183,183.998C133.524,184.791 133.063,185.482 132.809,186.078C132.693,186.351 132.613,186.587 132.571,186.787C132.549,186.897 132.531,186.986 132.549,187.055C132.639,187.39 132.698,187.717 132.727,188.036C132.769,188.499 132.641,188.916 132.334,189.284C131.779,189.952 130.677,190.263 128.98,189.973C127.469,189.715 126.139,188.98 124.996,187.757C124.721,187.463 124.484,187.147 124.285,186.809L122.306,192.398L129.863,203.515L134.01,201.427L135.422,189.809L143.481,197.28L148.839,195.776C147.009,195.547 145.557,194.843 144.479,193.69C142.886,191.986 142.263,189.927 142.623,187.512C142.965,185.207 144.104,182.87 146.063,180.512C147.565,178.706 149.5,177.08 151.874,175.638C154.228,174.208 156.672,173.112 159.204,172.35C161.782,171.574 164.359,171.394 166.933,171.806C169.566,172.228 171.706,173.329 173.358,175.097C175.151,177.015 175.788,179.122 175.272,181.416C175.756,181.292 176.186,181.436 176.562,181.838C176.562,181.838 180.705,186.271 180.705,186.271C180.963,186.546 181.062,186.887 180.958,187.305C180.876,187.638 180.69,187.903 180.399,188.097C180.379,188.111 180.357,188.123 180.336,188.135C172.335,192.283 167.158,195.087 164.804,196.55C162.523,197.968 160.924,199.212 160.021,200.298C159.636,200.761 159.435,201.11 159.712,201.406C159.842,201.546 160.103,201.584 160.462,201.622C161.278,201.708 162.484,201.613 164.081,201.353C166.484,200.961 169.418,200.164 172.883,198.966C179.274,196.446 184.382,194.138 188.207,192.041C188.207,190.785 188.51,189.833 189.061,189.171C190.013,188.025 191.019,187.412 192.04,187.274C193.153,187.124 194.078,187.45 194.819,188.243C195.46,188.929 195.762,189.788 195.704,190.829C195.649,191.805 195.264,192.741 194.527,193.627C194.415,193.762 194.281,193.891 194.125,194.014C194.125,194.014 194.193,194.485 194.193,194.485C194.471,195.809 194.66,196.825 194.762,197.533C194.865,198.25 194.952,199.165 195.023,200.281C195.098,201.465 194.998,202.491 194.735,203.36C194.465,204.253 194.058,205.023 193.517,205.673C192.977,206.323 192.226,206.889 191.255,207.36C191.25,207.362 191.246,207.365 191.241,207.367C181.923,211.622 176.398,214.734 174.705,216.771C174.287,217.275 174.087,217.664 174.381,217.991C174.407,218.002 174.575,218.069 174.708,218.096C175.005,218.154 175.395,218.182 175.879,218.183C176.923,218.185 178.663,217.894 181.102,217.324C183.233,216.826 185.638,216.112 188.315,215.183C188.424,215.114 188.535,215.046 188.647,214.978C191.001,213.548 193.445,212.453 195.977,211.691C198.555,210.914 201.132,210.734 203.706,211.146C206.339,211.568 208.479,212.669 210.131,214.438C211.924,216.356 212.561,218.462 212.045,220.757C212.53,220.633 212.959,220.776 213.335,221.178C213.335,221.178 217.479,225.611 217.479,225.611C217.736,225.886 217.835,226.228 217.731,226.645C217.649,226.978 217.463,227.243 217.172,227.437C217.152,227.451 217.131,227.463 217.109,227.475C209.109,231.623 203.931,234.428 201.577,235.891C199.296,237.308 197.697,238.552 196.795,239.638C196.409,240.102 196.208,240.451 196.485,240.747C196.615,240.886 196.876,240.924 197.235,240.962C198.051,241.048 199.258,240.953 200.855,240.693C203.482,240.265 206.743,239.352 210.639,237.96C214.648,235.709 224.851,230.327 241.248,221.814C241.565,221.64 241.859,221.583 242.123,221.606C242.431,221.634 242.714,221.767 242.959,222.03C242.959,222.03 247.102,226.462 247.102,226.462C247.359,226.736 247.465,227.1 247.316,227.571C247.186,227.98 246.962,228.212 246.727,228.329C228.98,237.528 218.308,243.133 214.713,245.145C211.213,247.104 208.854,248.792 207.654,250.235C207.268,250.699 207.067,251.048 207.344,251.344C207.652,251.674 208.119,251.866 208.724,251.961C209.448,252.074 210.35,252.041 211.429,251.873C213.485,251.553 216.43,250.718 220.265,249.374C220.377,249.304 220.49,249.234 220.603,249.165C222.958,247.736 225.401,246.64 227.933,245.878C230.512,245.102 233.088,244.921 235.663,245.333C238.295,245.755 240.435,246.857 242.088,248.625L242.088,248.625C243.904,250.568 244.525,252.704 243.948,255.033C246.078,253.92 249.127,252.336 253.097,250.283C253.742,245.307 254.074,240.235 254.074,235.085C254.074,179.326 215.071,132.606 162.879,120.741ZM19.892,243.913L30.396,239.854L39.892,245.33L30.696,251.158L20.154,246.913C20.055,245.921 19.967,244.919 19.892,243.913ZM177.771,247.63L179.977,246.275L180.242,243.924L182.271,245.453L184.683,244.775L183.889,247.511L185.242,249.569L182.534,249.452L180.947,251.158L180.094,248.718L177.771,247.63ZM85.767,245.33L71.954,250.362L62.099,245.33L72.204,240.111L85.767,245.33ZM189.448,238.37C189.55,237.1 189.925,235.9 190.577,234.773C186.271,235.712 183.168,235.08 181.253,233.031C179.659,231.326 179.036,229.268 179.396,226.852C179.61,225.414 180.133,223.965 180.971,222.506C178.538,223.188 176.579,223.488 175.096,223.424C173.546,223.357 172.348,223.131 171.499,222.768C170.628,222.395 169.791,221.788 168.995,220.937C167.801,219.659 167.255,218.05 167.383,216.101C167.507,214.217 168.227,212.472 169.558,210.872C170.827,209.344 172.693,207.796 175.162,206.239C177.576,204.718 181.618,202.673 187.291,200.11C187.843,199.842 188.267,199.545 188.55,199.203C188.917,198.762 189.042,198.062 188.993,197.112C185.673,198.728 181.017,200.664 175.025,202.919L175.025,202.919C174.929,203.001 174.816,203.066 174.694,203.109C171.152,204.449 168.225,205.442 165.914,206.091C163.526,206.76 161.606,207.039 160.157,206.947C158.643,206.85 157.507,206.585 156.743,206.182C155.984,205.783 155.191,205.15 154.372,204.273C153.146,202.962 152.567,201.319 152.656,199.34C152.66,199.236 152.667,199.134 152.675,199.031L150.596,205.25L155.861,214.22L145.892,213.72L140.422,219.337L153.743,230.337L177.446,224.453L168.771,246.775L175.154,243.424L175.802,234.426L183.007,240.159L189.448,238.37ZM90.909,245.299L90.892,245.226C90.821,245.263 90.748,245.297 90.675,245.33C90.767,245.374 90.859,245.418 90.949,245.466L90.909,245.299ZM136.951,215.603L134.158,214.25L133.128,238.953L124.099,244.982L114.747,230.777L121.159,213.484L107.513,216.397L113.805,208.336L131.216,209.631L135.804,211.22L136.951,215.603ZM108.423,237.6L102.159,237.308L98.513,241.218L96.601,235.629L91.221,233.158L96.278,230.041L96.897,224.63L101.543,228.16L107.101,226.542L105.276,232.835L108.423,237.6ZM33.617,215.144L45.803,224.221L44.798,234.574L35.216,230.049L33.617,215.144ZM68.374,215.144L65.894,229.603L57.193,234.572L57.247,224.607L68.374,215.144ZM205.131,224.358C202.993,225.475 201.202,226.476 199.757,227.36C195.499,229.047 192.246,229.95 189.994,230.044C188.705,230.098 187.785,229.91 187.265,229.354C187.013,229.084 186.976,228.691 187.065,228.193C187.181,227.541 187.545,226.869 188.131,226.164C189.55,224.457 191.617,222.782 194.323,221.129C197.038,219.471 199.734,218.331 202.413,217.713C204.845,217.152 206.548,217.272 207.497,218.287C207.978,218.801 207.965,219.573 207.625,220.589C207.22,221.799 206.383,223.051 205.133,224.356L205.131,224.358ZM64.079,143.141L70.546,145.608L72.309,151.812L72.104,167.459L61.28,174.605L73.22,179.604L77.192,191.927L84.455,182.341L94.748,183.163L94.574,185.811L78.604,196.25L83.984,199.367L80.191,200.339L72.897,194.369L71.956,203.573L68.783,205.8L68.77,205.788C66.245,203.605 62.358,203.809 60.085,206.234C60.052,206.269 60.022,206.305 59.993,206.34L57.193,209.706L57.193,202.293C57.193,198.979 54.444,196.242 50.997,196.242C47.547,196.242 44.798,198.979 44.798,202.293L44.798,209.706L41.998,206.34C41.969,206.305 41.939,206.269 41.906,206.234C39.633,203.809 35.746,203.605 33.221,205.788C31.676,207.124 30.977,209.024 31.152,210.871C29.641,209.796 27.649,209.456 25.722,210.131C22.578,211.23 20.81,214.7 21.769,217.88C21.783,217.926 21.796,217.97 21.813,218.015L23.325,222.142L20.466,220.486C24.353,189.233 40.563,161.778 64.079,143.141ZM81.367,214.368L80.453,215.505C80.529,216.287 80.46,217.092 80.222,217.88C80.209,217.926 80.195,217.97 80.178,218.015L78.666,222.142L85.066,218.437C86.073,217.855 87.185,217.602 88.282,217.649L88.425,215.19L81.367,214.368ZM85.514,207.014L88.102,200.839L96.601,204.074L99.043,213.808L89.278,205.925L89.132,206.044L88.308,210.955L85.514,207.014ZM82.514,210.544L80.985,208.221L81.867,205.193L79.19,205.955L76.956,204.28L76.662,206.868L74.192,208.398L76.81,209.574L77.123,210.504C77.62,210.767 78.073,211.095 78.475,211.475L79.486,210.398L82.514,210.544ZM146.862,208.692L143.215,208.544L141.127,210.807L140.01,207.573L136.892,206.132L139.834,204.309L140.185,201.192L142.862,203.219L146.098,202.31L145.039,205.955L146.862,208.692ZM103.629,192.104L104.248,186.693L108.894,190.222L114.453,188.605L112.601,194.897L115.777,199.663L109.482,199.367L105.835,203.281L103.923,197.691L98.543,195.22L103.629,192.104ZM168.358,185.018C166.22,186.135 164.429,187.136 162.984,188.02C158.726,189.707 155.473,190.609 153.221,190.704C151.932,190.758 151.012,190.57 150.492,190.014C150.239,189.744 150.203,189.351 150.292,188.853C150.408,188.2 150.772,187.528 151.358,186.824C152.776,185.116 154.843,183.441 157.55,181.789C160.265,180.131 162.961,178.991 165.64,178.373C168.072,177.812 169.775,177.932 170.724,178.947C171.205,179.461 171.192,180.232 170.852,181.248C170.447,182.459 169.61,183.711 168.36,185.016L168.358,185.018ZM77.897,171.429L78.337,167.43L81.778,170.016L85.896,168.84L84.543,173.488L86.866,177.018L82.22,176.782L79.544,179.693L78.132,175.546L74.133,173.723L77.897,171.429ZM128.624,174.546C130.394,172.804 132.382,171.165 134.589,169.631C137.785,167.408 142.26,164.751 148.013,161.66C148.013,161.66 140.053,153.144 140.053,153.144C137.714,154.449 135.909,155.441 134.638,156.121C133.285,156.844 131.475,157.782 129.21,158.935C126.928,160.096 125.117,160.947 123.778,161.488C122.435,162.031 120.865,162.568 119.069,163.099C117.227,163.644 115.699,163.926 114.489,163.955C114.308,163.96 114.127,163.96 113.946,163.957L114.276,164.488L105.19,163.989L99.925,169.899L109.924,179.399L128.624,174.546ZM94.514,161.341L96.985,162.165L98.159,168.871L95.955,167.105L95.131,178.694L90.337,172.399L94.514,161.341ZM83.074,163.666L76.485,157.665L83.337,148.607L95.69,149.489L95.338,154.195L88.573,158.167L92.865,160.636L83.074,163.666ZM106.1,159.665L103.07,159.548L101.308,161.429L100.396,158.724L97.779,157.519L100.248,156.018L100.544,153.43L102.778,155.108L105.455,154.343L104.571,157.371L106.1,159.665ZM124.244,118.497C113.654,119.628 103.481,122.173 93.918,125.938L90.279,137.638L96.043,146.373L96.424,144.019L102.984,150.225L108.181,148.825C108.58,148.401 108.972,148.088 109.349,147.881C110.149,147.442 110.717,147.59 111.046,147.942C111.067,147.964 111.092,147.994 111.118,148.034L112.042,147.785L111.559,149.765C112.18,150.421 112.828,150.925 113.507,151.27C114.202,151.624 115.267,151.805 116.696,151.851C118.195,151.9 119.945,151.64 121.948,151.082C124.007,150.509 126.717,149.498 130.082,148.052C133.469,146.596 137.378,144.727 141.81,142.443C151.65,137.261 159.932,134.543 166.645,134.254C163.832,130.012 161.443,126.836 159.474,124.729C157.021,122.105 153.824,120.53 149.889,119.991C145.902,119.444 141.958,119.936 138.056,121.463C134.154,122.991 130.947,125.261 128.439,128.279C127.109,129.88 126.312,131.442 126.074,132.978C125.854,134.398 126.2,135.606 127.127,136.598C128.397,137.958 130.148,138.439 132.362,138.1C134.633,137.752 136.299,136.985 137.331,135.743C137.708,135.289 138.104,135.223 138.39,135.289C138.568,135.331 138.745,135.428 138.898,135.615C139.043,135.793 139.191,136.119 139.28,136.606C139.608,137.957 139.285,139.245 138.276,140.459C136.385,142.734 133.573,144.146 129.818,144.651C126.025,145.162 122.862,144.056 120.325,141.342L120.325,141.342C118.248,139.12 117.269,135.985 117.448,131.918C117.625,127.918 119.048,124.307 121.725,121.086C122.498,120.156 123.337,119.293 124.244,118.497ZM75.665,135.043C76.512,134.523 77.364,134.016 78.223,133.519L79.749,134.667L84.19,133.374L82.72,138.431L85.251,142.255L80.22,142.02L77.309,145.137L75.78,140.668L71.456,138.668L75.543,136.168L75.665,135.043ZM153.862,80.436L179.889,104.287L180.419,105.288L180.29,105.606L180.195,106.039L180.189,106.092C174.413,104.148 168.461,102.581 162.366,101.421L161.821,100.432L161.261,99.409L160.126,97.318C160.038,97.141 159.95,96.995 159.89,96.847C157.125,91.759 155.303,86.083 153.862,80.436ZM126.011,79.759C123.982,85.819 121.482,91.818 117.923,97.024L117.894,97.024C117.835,97.141 117.775,97.229 117.687,97.318C117.658,97.406 117.57,97.523 117.452,97.671L117.042,98.249L116.246,99.381L115.61,100.266L115.274,100.721C108.993,101.722 102.856,103.153 96.893,104.984L96.631,104.2L98.278,101.641L126.011,79.759ZM140.465,49.848L140.627,49.852C142.334,49.909 143.98,50.645 145.127,51.938C146.303,53.174 146.951,54.849 146.862,56.556C146.803,58.291 146.038,59.908 144.803,61.086C143.509,62.26 141.863,62.879 140.128,62.819C138.421,62.762 136.775,62.026 135.628,60.733C134.452,59.497 133.804,57.82 133.864,56.115C133.952,54.35 134.717,52.763 135.95,51.587C137.096,50.519 138.581,49.913 140.141,49.852L140.465,49.848ZM212.533,14.49L212.739,14.493C220.061,14.64 222.354,22.1 218.297,30.998C205.399,42.147 189.145,48.573 172.115,49.219L171.713,49.233C178.065,33.087 191.329,20.618 207.857,15.296C209.586,14.744 211.148,14.488 212.533,14.49ZM70.673,9.257C72.254,9.253 74.061,9.626 76.074,10.442C92.16,16.971 104.454,30.352 109.63,46.91C92.543,45.117 76.633,37.47 64.545,25.293C61.224,16.382 63.823,9.274 70.673,9.257Z" style="fill:none;stroke:rgb(255,0,0);stroke-width:1px;"/>
</svg>
