<?xml version="1.0" encoding="UTF-8" standalone="no"?>
<!DOCTYPE svg PUBLIC "-//W3C//DTD SVG 1.1//EN" "http://www.w3.org/Graphics/SVG/1.1/DTD/svg11.dtd">
<svg width="100%" height="100%" viewBox="0 0 1123 794" version="1.1" xmlns="http://www.w3.org/2000/svg" xmlns:xlink="http://www.w3.org/1999/xlink" xml:space="preserve" xmlns:serif="http://www.serif.com/" style="fill-rule:evenodd;clip-rule:evenodd;stroke-linejoin:round;stroke-miterlimit:2;">
    <path d="M0.763,233.654C1.257,185.132 27.188,142.701 65.84,118.992C65.398,118.817 65.044,118.669 64.75,118.492L64.722,118.492C55.281,115.374 48.341,108.758 41.958,101.287C30.577,85.318 46.666,69.791 47.751,53.967C48.723,40.557 42.782,25.706 49.694,12.56C53.84,3.853 62.664,0.531 72.427,0.768C81.014,1.208 89.338,4.267 95.161,8.707C107.57,18.236 119.159,31.999 128.776,45.146C128.776,44.116 130.394,42.292 132.157,41.293C133.276,40.617 134.598,40.263 136.01,40.263L144.597,40.263C146.422,40.263 148.067,40.88 149.422,41.91C150.863,43.057 151.891,44.704 152.273,46.587C152.802,46.587 182.859,16.178 188.975,12.177C195.124,8.148 203.623,5.737 212.21,5.942C221.975,6.413 230.502,10.413 234.032,19.412C239.942,32.998 232.913,47.381 232.854,60.821C232.825,76.702 247.707,93.348 235.179,108.435C229.972,113.729 222.856,118.846 215.857,121.903L215.797,121.903C215.417,122.021 214.603,122.283 213.44,122.66C235.706,137.872 253.229,159.522 263.318,184.913L263.635,185.717C269.445,200.605 272.705,216.771 272.875,233.676L272.882,235.085L272.88,235.812L272.866,237.183L272.848,238.157L272.816,239.357L272.777,240.461C272.271,253.525 269.932,266.101 265.999,277.951C265.659,278.997 265.294,280.017 264.925,281.008L264.5,282.186C263.205,285.714 261.764,289.155 260.177,292.537C259.764,293.448 259.353,294.331 258.911,295.213C258.206,296.654 257.441,298.096 256.707,299.508C256.647,299.565 256.619,299.654 256.588,299.713C255.177,302.329 253.677,304.919 252.09,307.419C251.717,307.987 251.375,308.559 250.98,309.103L250.882,309.252C250.472,309.92 250.043,310.551 249.594,311.192L249.354,311.546L249.354,311.565C249.088,312.005 248.794,312.416 248.472,312.829C245.795,316.713 242.913,320.415 239.854,323.976C215.151,352.578 178.758,370.759 138.144,371.142L136.819,371.148C133.222,371.148 129.657,371.008 126.124,370.733C59.482,365.554 6.326,312.384 1.167,245.731C0.895,242.217 0.756,238.667 0.756,235.085L0.763,233.654ZM28.751,280.397C40.488,308.332 62.752,330.776 90.57,342.754C86.43,339.961 82.52,336.774 78.888,333.213C75.47,329.86 75.47,324.406 78.888,321.053C82.307,317.7 87.87,317.7 91.289,321.053C93.511,323.232 95.866,325.23 98.335,327.046C102.763,312.408 102.398,299.836 101.771,293.577L92.474,300.653C89.142,303.191 84.772,303.273 81.343,300.862C77.913,298.45 76.589,294.365 77.972,290.454L85.343,269.604L86.265,255.979C86.324,255.115 86.821,254.338 87.589,253.91C88.356,253.482 89.292,253.461 90.078,253.854C90.199,253.915 91.551,254.595 93.379,255.698L90.219,242.394L72.795,235.617L73.743,234.921L60.959,228.962L55.458,232.149L69.292,238.586L62.38,242.58L48.557,236.132L40.419,240.826L51.529,246.478L40.419,252.14L48.557,256.834L62.38,250.385L69.292,254.369L55.458,260.817L60.959,263.993L74.793,257.544L81.694,261.528L67.871,267.976L78.895,274.349C80.197,275.092 80.639,276.761 79.885,278.064C79.131,279.377 77.474,279.818 76.16,279.065L65.136,272.702L66.471,287.903L59.571,283.92L58.236,268.719L52.734,265.532L54.059,280.733L47.158,276.75L45.834,261.549L37.695,256.856L38.352,269.3L27.898,262.507L27.898,271.906L40.397,280.658L40.397,288.624L28.794,280.5L28.751,280.397ZM233.012,301.959C231.873,301.683 230.731,301.431 229.591,301.155C226.915,302.799 224.267,304.448 221.621,306.066C220.62,306.683 219.327,306.417 218.65,305.447C218.445,305.153 218.326,304.8 218.297,304.448L200.475,303.418L187.72,318.623C190.354,318.261 193.125,319.071 195.146,321.053C196.802,322.677 197.715,324.836 197.714,327.133C197.714,329.43 196.802,331.589 195.146,333.213C191.721,336.571 188.049,339.597 184.169,342.273C198.375,335.983 211.1,326.95 221.671,315.847C221.653,315.726 221.646,315.602 221.65,315.475C221.681,314.328 222.62,313.389 223.767,313.36L223.978,313.353C224.787,312.453 225.583,311.54 226.362,310.616C224.439,310.455 223.754,307.872 225.474,306.802C227.928,305.293 230.355,303.762 232.807,302.252L233.012,301.959ZM152.231,328.2C153.857,330.702 156.365,333.727 158.432,336.092C151.639,338.426 144.423,339.645 137.018,339.645C130.424,339.645 123.98,338.678 117.851,336.819L122.432,328.338C127.245,329.627 139.269,332.015 152.231,328.2ZM177.773,297.679C179.293,301.583 178.384,304.766 175.569,303.113C175.843,310.356 177.192,319.266 178.76,324.648C180.13,323.509 181.461,322.312 182.746,321.053C183.762,320.056 184.968,319.356 186.251,318.952L181.093,299.3L177.773,297.679ZM223.767,299.771C222.62,300.476 221.444,301.212 220.268,301.948L218.827,299.713C219.267,299.448 219.709,299.183 220.151,298.889C221.356,299.183 222.561,299.477 223.767,299.771ZM230.372,275.034C229.622,274.607 228.843,273.967 228.04,273.107C226.736,271.713 226.121,269.967 226.216,267.862C226.283,266.352 226.707,264.935 227.493,263.611C222.851,264.645 219.511,263.983 217.454,261.783C215.759,259.97 215.097,257.78 215.479,255.21C215.727,253.544 216.365,251.862 217.401,250.168C217.306,250.191 217.212,250.212 217.118,250.234C214.387,250.857 212.188,251.022 210.523,250.754C208.822,250.48 207.535,250.08 206.656,249.575C205.779,249.071 204.888,248.34 203.987,247.375C202.708,246.008 202.135,244.403 202.263,242.561C202.387,240.786 203.165,239.012 204.627,237.252C205.706,235.954 206.868,234.863 208.111,233.977C209.323,233.113 211.701,231.775 215.258,229.961C219.038,227.859 221.517,226.131 222.674,224.749C222.936,224.436 223.124,224.149 223.227,223.88C223.319,223.64 223.335,223.426 223.231,223.236C222.557,222.567 221.21,222.291 219.228,222.265C217.023,222.237 214.386,222.781 211.312,223.88L192.56,233.62C192.555,233.623 192.55,233.625 192.544,233.628C191.873,233.954 191.332,233.837 190.907,233.383C190.907,233.383 186.474,228.64 186.474,228.64C186.209,228.356 186.108,228.006 186.214,227.577C186.3,227.232 186.492,226.957 186.793,226.756C186.814,226.743 186.835,226.73 186.856,226.719C186.856,226.719 188.583,225.822 188.583,225.822C188.566,225.821 188.549,225.82 188.533,225.818C186.797,225.67 185.141,225.251 183.564,224.561C181.983,223.869 180.825,223.216 180.084,222.613C179.356,222.021 178.554,221.258 177.681,220.324C175.351,217.831 174.432,214.97 174.913,211.744C175.176,209.982 175.749,208.25 176.636,206.546C176.553,206.57 176.472,206.594 176.391,206.617C173.926,207.322 171.92,207.639 170.375,207.586C168.753,207.53 167.537,207.269 166.719,206.838C165.915,206.415 165.015,205.683 164.028,204.627C162.759,203.27 162.214,201.462 162.442,199.188C162.628,197.326 163.26,195.624 164.338,194.083C162.253,194.373 160.508,194.455 159.104,194.335C157.368,194.187 155.712,193.768 154.135,193.078C152.554,192.386 151.397,191.733 150.655,191.13C149.927,190.538 149.125,189.775 148.252,188.841C145.922,186.348 145.004,183.487 145.484,180.261C145.858,177.755 146.86,175.307 148.499,172.92L142.332,169.935C139.841,171.96 137.724,174.019 135.982,176.115C135.273,176.968 134.777,177.712 134.504,178.353C134.294,178.849 134.163,179.199 134.224,179.428C134.319,179.784 134.381,180.131 134.412,180.47C134.457,180.953 134.322,181.387 134.003,181.772C133.417,182.477 132.25,182.799 130.458,182.492C128.987,182.241 127.677,181.565 126.535,180.455L122.306,192.398L129.863,203.515L134.01,201.427L135.422,189.809L143.481,197.28L154.274,194.25L150.596,205.25L155.861,214.22L145.892,213.72L140.422,219.337L153.743,230.337L177.446,224.453L168.771,246.775L175.154,243.424L175.802,234.426L183.007,240.159L192.536,237.512L189.181,246.452L193.977,254.57L184.8,253.892L181.418,258.158L196.505,270.363L217.563,265.832L210.092,286.304L214.679,293.332C214.886,293.39 215.092,293.448 215.297,293.478C215.003,293.008 214.709,292.537 214.444,292.068C213.827,291.067 214.15,289.772 215.209,289.213C216.208,288.655 217.503,289.009 218.12,289.979C219.121,291.624 220.12,293.244 221.091,294.862C222.326,295.154 223.533,295.448 224.738,295.744C223.798,294.214 222.885,292.712 221.975,291.213C221.356,290.183 221.681,288.89 222.737,288.331C223.738,287.802 225.032,288.125 225.65,289.124C227.268,291.772 228.915,294.449 230.531,297.123C231.737,297.39 232.973,297.682 234.178,297.978C232.591,295.39 231.002,292.802 229.414,290.214C228.325,288.419 230.296,286.304 232.178,287.303C232.847,287.663 233.514,288.023 234.18,288.383L238.176,290.544C238.654,290.802 239.133,291.061 239.613,291.319C239.716,291.13 239.819,290.941 239.922,290.753C239.654,289.848 239.386,288.951 239.12,288.037C236.355,286.567 233.619,285.068 230.856,283.596C229.854,283.068 229.414,281.773 229.914,280.745C230.414,279.657 231.678,279.244 232.737,279.803C234.297,280.656 235.855,281.479 237.414,282.332C237.06,281.125 236.708,279.949 236.355,278.744C234.65,277.832 232.973,276.95 231.296,276.039C230.877,275.805 230.562,275.447 230.372,275.034ZM202.504,293.509L195.447,293.184L191.358,297.567L189.212,291.301L183.182,288.507L188.858,285.008L189.565,278.948L194.77,282.891L201.006,281.098L198.946,288.154L202.504,293.509ZM144.712,285.874L145.927,285.831C153.666,285.755 159.844,286.382 165.152,287.752L177.948,279.302L179.124,269.362L157.803,267.421L144.712,285.874ZM96.372,257.636C97.666,258.539 98.998,259.563 100.194,260.664C108.144,261.53 115.866,266.542 122.586,275.216C126.172,279.845 128.6,284.364 129.777,286.756C132.882,286.467 135.79,286.245 138.527,286.09L139.258,286.065L135.51,262.245L112.218,252.716L120.717,247.071L106.454,245.776L96.372,257.636ZM247.857,272.549C245.635,273.364 243.669,274.035 241.959,274.562L240.325,277.569L241.383,281.125C242.236,279.569 243.09,278.039 243.912,276.479C244.491,275.437 245.727,275.106 246.747,275.686C247.131,274.647 247.501,273.602 247.857,272.549ZM94.108,273.251C95.738,273.251 97.061,274.548 97.061,276.146C97.061,277.744 95.738,279.041 94.108,279.041C92.479,279.041 91.156,277.744 91.156,276.146C91.156,274.548 92.479,273.251 94.108,273.251ZM251.756,257.919C245.45,261.224 241.245,263.529 239.143,264.836C238.023,265.532 237.055,266.19 236.243,266.81C236.847,267.047 237.337,267.562 237.531,268.215C237.716,268.845 237.909,269.476 238.101,270.108L238.403,270.06C238.884,269.982 239.385,269.888 239.905,269.779C240.391,269.37 241.043,269.222 241.663,269.374C243.953,268.8 246.57,267.976 249.516,266.905C249.547,266.893 249.579,266.884 249.612,266.878C250.44,263.937 251.157,260.949 251.756,257.919ZM169.743,249.334L176.007,252.188L179.241,263.569L169.743,249.334ZM137.657,250.424L144.568,246.216L145.391,238.864L151.685,243.658L159.242,241.481L156.745,250.011L161.037,256.48L152.508,256.069L147.568,261.394L144.979,253.804L137.657,250.424ZM243,252.572C240.708,253.77 238.789,254.842 237.242,255.789C232.677,257.597 229.19,258.565 226.775,258.666C225.379,258.724 224.383,258.515 223.82,257.913C223.541,257.614 223.495,257.181 223.594,256.63C223.719,255.925 224.111,255.199 224.744,254.437C226.265,252.607 228.48,250.811 231.382,249.04C234.292,247.263 237.181,246.041 240.052,245.379C242.676,244.774 244.514,244.912 245.537,246.007C246.061,246.568 246.055,247.408 245.684,248.516C245.248,249.819 244.347,251.167 243,252.572L243,252.572ZM185.308,128.408C185.759,129.046 186.042,129.796 186.152,130.661C186.298,131.815 186.037,132.768 185.404,133.53C184.471,134.652 183.36,135.232 182.084,135.298C180.81,135.365 179.6,134.829 178.481,133.632C177.415,132.491 176.271,131.062 175.051,129.344C171.642,129.49 167.802,130.47 163.529,132.271C159.218,134.087 154.126,136.612 148.255,139.844C148.255,139.844 156.857,149.047 156.857,149.047C158.383,148.253 160.262,147.274 162.497,146.112C167.097,143.707 171.4,141.831 175.403,140.482C179.435,139.124 182.845,138.304 185.634,138.014C188.453,137.722 191.042,137.793 193.403,138.222C195.798,138.658 197.714,139.301 199.159,140.138C200.605,140.976 201.906,142.012 203.059,143.246C204.106,144.366 204.466,145.666 204.143,147.145C204.139,147.165 204.134,147.185 204.128,147.205C203.932,147.82 203.616,148.1 203.387,148.184C203.088,148.296 202.743,148.269 202.414,147.917C201.168,146.584 199.627,145.663 197.795,145.151C195.922,144.629 193.991,144.479 192,144.702C189.963,144.929 187.605,145.506 184.925,146.426C182.214,147.356 179.671,148.376 177.295,149.485C174.909,150.6 172.16,151.984 169.048,153.636C159.885,158.556 152.95,162.56 148.243,165.647L153.085,167.991C154.715,166.703 156.568,165.606 158.645,164.701C162.251,163.129 165.895,162.488 169.576,162.774C173.334,163.066 176.315,164.409 178.531,166.779C180.228,168.595 181.193,170.452 181.455,172.335C181.725,174.275 181.132,176.151 179.635,177.951C177.715,180.262 175.161,181.509 171.967,181.679C168.863,181.845 165.962,181.33 163.263,180.139C160.8,179.052 158.728,177.747 157.046,176.231C156.39,176.804 155.794,177.412 155.259,178.056C154.177,179.357 153.49,180.639 153.213,181.912C152.967,183.045 153.222,184.023 153.989,184.844C154.613,185.511 155.403,186.118 156.354,186.667C157.331,187.23 158.634,187.743 160.261,188.213C161.883,188.682 163.913,188.793 166.352,188.562C168.487,188.36 170.758,187.858 173.163,187.058C176.994,184.869 188.103,179.002 206.489,169.456C206.819,169.275 207.125,169.215 207.399,169.239C207.717,169.268 208.01,169.406 208.264,169.678C208.264,169.678 212.697,174.421 212.697,174.421C212.961,174.703 213.069,175.077 212.915,175.561C212.781,175.983 212.551,176.223 212.309,176.345C193.317,186.188 181.897,192.186 178.05,194.339C174.298,196.439 171.77,198.25 170.483,199.798C170.051,200.317 169.843,200.714 170.153,201.046C170.49,201.405 170.997,201.617 171.658,201.72C172.436,201.842 173.406,201.806 174.566,201.626C176.489,201.326 179.142,200.605 182.523,199.467C184.151,198.182 186.001,197.087 188.073,196.184C191.68,194.612 195.324,193.971 199.005,194.257C202.763,194.549 205.744,195.892 207.959,198.262C209.657,200.078 210.622,201.935 210.884,203.818C211.154,205.758 210.56,207.634 209.064,209.435C207.144,211.745 204.59,212.992 201.395,213.162C198.292,213.328 195.391,212.814 192.692,211.622C190.229,210.535 188.157,209.23 186.475,207.714C185.818,208.287 185.223,208.895 184.688,209.539C183.606,210.84 182.918,212.122 182.642,213.395C182.395,214.528 182.651,215.506 183.418,216.327C184.042,216.995 184.832,217.601 185.783,218.15C186.76,218.713 188.063,219.227 189.689,219.697C191.312,220.165 193.342,220.276 195.78,220.045C197.928,219.842 200.211,219.335 202.631,218.527L217.063,211.033C217.069,211.03 217.074,211.027 217.079,211.025C217.729,210.709 218.292,210.817 218.772,211.329C218.772,211.329 223.205,216.072 223.205,216.072C223.47,216.356 223.571,216.706 223.465,217.135C223.369,217.522 223.131,217.802 222.734,217.952C222.734,217.952 222.513,218.072 222.514,218.072C223.115,218.171 223.686,218.315 224.227,218.504C225.456,218.934 226.348,219.387 226.913,219.844C227.454,220.281 228.089,220.888 228.817,221.666C230.201,223.147 230.864,224.842 230.819,226.747C230.774,228.632 230.161,230.282 228.984,231.699C227.858,233.055 226.439,234.239 224.725,235.251C224.714,235.257 224.703,235.263 224.691,235.269C219.71,237.828 216.216,239.688 214.207,240.848C212.289,241.957 211.015,242.864 210.405,243.598C209.973,244.117 209.765,244.514 210.076,244.846C210.295,245.08 210.687,245.207 211.224,245.295C212.262,245.465 213.761,245.413 215.721,245.156C218.513,244.791 221.452,244.088 224.538,243.052C224.805,242.879 225.078,242.707 225.357,242.538C227.872,241.01 230.484,239.839 233.189,239.025C235.942,238.196 238.692,238.003 241.439,238.444C244.246,238.893 246.526,240.067 248.288,241.951C250.214,244.012 250.886,246.278 250.306,248.748C250.838,248.585 251.307,248.727 251.716,249.164L252.975,250.512C253.641,245.464 253.984,240.314 253.984,235.085C253.984,187.711 225.807,146.866 185.308,128.408ZM136.951,215.603L134.158,214.25L133.128,238.953L124.099,244.982L114.747,230.777L121.159,213.484L107.513,216.397L113.805,208.336L131.216,209.631L135.804,211.22L136.951,215.603ZM108.423,237.6L102.159,237.308L98.513,241.218L96.601,235.629L91.221,233.158L96.278,230.041L96.897,224.63L101.543,228.16L107.101,226.542L105.276,232.835L108.423,237.6ZM27.866,191.94L27.866,191.939C35.519,172.65 48.152,155.866 64.177,143.178L70.546,145.608L72.309,151.812L72.104,167.459L61.28,174.605L73.22,179.604L77.192,191.927L84.455,182.341L94.748,183.163L94.574,185.811L78.604,196.25L83.984,199.367L80.191,200.339L72.897,194.369L71.956,203.573L66.25,207.577L66.471,205.063L59.571,209.046L58.236,224.247L52.734,227.423L54.059,212.222L47.158,216.205L45.834,231.406L37.695,236.1L38.352,223.655L27.898,230.448L27.898,221.06L40.397,212.308L40.397,204.331L27.898,213.083L27.898,206.731L40.397,197.979L40.397,190.013L27.898,198.754L27.898,191.859C27.888,191.886 27.877,191.913 27.866,191.94ZM79.742,230.517L67.871,224.979L75.44,220.61L75.691,221.425L81.367,214.368L88.425,215.19L87.866,224.809L84.955,226.69L79.742,230.517ZM20.912,219.942L20.907,219.979L22.451,221.06L22.451,230.448L19.829,228.744C19.884,228.366 20.271,224.663 20.907,219.979L20.855,219.942L20.912,219.942ZM19.829,228.744C19.826,228.765 19.824,228.776 19.823,228.776C19.822,228.775 19.822,228.764 19.823,228.74L19.829,228.744ZM65.136,220.264L73.789,215.262L72.986,212.661L66.093,209.374L65.136,220.264ZM96.601,204.074L99.043,213.808L89.278,205.925L89.132,206.044L88.308,210.955L85.514,207.014L88.102,200.839L96.601,204.074ZM82.514,210.544L79.486,210.398L77.72,212.279L76.81,209.574L74.192,208.398L76.662,206.868L76.956,204.28L79.19,205.955L81.867,205.193L80.985,208.221L82.514,210.544ZM205.149,202.39C205.225,202.471 205.281,202.549 205.288,202.637C205.216,203.12 204.915,203.554 204.426,203.969C203.821,204.483 202.946,204.948 201.809,205.38C201.806,205.381 201.803,205.382 201.8,205.383C198.156,206.823 194.433,206.591 190.627,204.712C193.398,203.128 196.21,202.079 199.063,201.57C200.616,201.294 201.92,201.229 202.976,201.39C203.919,201.534 204.649,201.855 205.149,202.39ZM115.777,199.663L109.482,199.367L105.835,203.281L103.923,197.691L98.543,195.22L103.629,192.104L104.248,186.693L108.894,190.222L114.453,188.605L112.601,194.897L115.777,199.663ZM77.897,171.429L78.337,167.43L81.778,170.016L85.896,168.84L84.543,173.488L86.866,177.018L82.22,176.782L79.544,179.693L78.132,175.546L74.133,173.723L77.897,171.429ZM124.662,175.574C124.671,175.357 124.688,175.135 124.714,174.908C124.949,172.838 125.806,170.905 127.295,169.113C129.811,166.085 132.872,163.317 136.478,160.81C139.907,158.425 144.712,155.573 150.891,152.254C150.891,152.254 142.308,143.071 142.308,143.071C139.79,144.476 137.848,145.543 136.482,146.273C135.034,147.048 133.098,148.051 130.675,149.285C128.234,150.527 126.297,151.436 124.866,152.014C123.43,152.595 121.752,153.169 119.831,153.737C117.865,154.319 116.234,154.62 114.942,154.652C113.629,154.683 112.333,154.518 111.053,154.155C110.875,154.104 110.7,154.048 110.53,153.987L109.747,157.196L114.276,164.488L105.19,163.989L99.925,169.899L109.924,179.399L124.662,175.574ZM94.514,161.341L96.985,162.165L98.159,168.871L95.955,167.105L95.131,178.694L90.337,172.399L94.514,161.341ZM175.72,170.907C175.796,170.988 175.853,171.066 175.859,171.154C175.787,171.636 175.486,172.071 174.998,172.486C174.392,173 173.517,173.465 172.38,173.896C172.377,173.897 172.374,173.899 172.372,173.9C168.728,175.34 165.004,175.108 161.198,173.229C163.97,171.645 166.781,170.596 169.634,170.087C171.187,169.81 172.491,169.746 173.547,169.907C174.49,170.051 175.22,170.372 175.72,170.907ZM83.074,163.666L76.485,157.665L83.337,148.607L95.69,149.489L95.338,154.195L88.573,158.167L92.865,160.636L83.074,163.666ZM106.1,159.665L103.07,159.548L101.308,161.429L100.396,158.724L97.779,157.519L100.248,156.018L100.544,153.43L102.778,155.108L105.455,154.343L104.571,157.371L106.1,159.665ZM170.824,122.939C160.054,119.674 148.64,117.92 136.819,117.92C134.054,117.92 131.311,118.016 128.595,118.205C127.9,119.333 127.464,120.444 127.294,121.544C127.056,123.079 127.43,124.385 128.432,125.457C129.802,126.922 131.689,127.443 134.075,127.078C136.52,126.703 138.311,125.876 139.422,124.539C139.809,124.073 140.214,124.001 140.508,124.069C140.69,124.112 140.87,124.211 141.026,124.402C141.179,124.589 141.332,124.932 141.425,125.442C141.773,126.875 141.431,128.239 140.361,129.526C138.344,131.953 135.344,133.456 131.34,133.996C127.298,134.54 123.926,133.361 121.222,130.469L121.222,130.469C119.008,128.1 117.966,124.756 118.157,120.419C118.172,120.073 118.196,119.73 118.229,119.389C109.78,120.738 101.631,122.992 93.883,126.049L90.279,137.638L96.043,146.373L96.424,144.019L102.984,150.225L106.075,149.392C105.686,148.226 105.542,146.897 105.648,145.405C105.847,142.621 106.605,140.468 107.88,138.933C108.424,138.279 108.957,137.818 109.466,137.539C110.295,137.084 110.884,137.23 111.225,137.594C111.277,137.649 111.356,137.751 111.404,137.928C111.436,138.05 111.471,138.338 111.492,138.795C111.505,139.091 111.574,139.331 111.734,139.502C112.414,140.23 113.126,140.787 113.872,141.166C114.619,141.546 115.765,141.743 117.303,141.793C118.911,141.845 120.789,141.567 122.938,140.968C125.142,140.355 128.045,139.272 131.647,137.724C135.272,136.166 139.456,134.165 144.2,131.72C154.763,126.158 163.645,123.249 170.837,122.96L170.824,122.939ZM75.653,135.155C76.528,134.618 77.411,134.092 78.301,133.577L79.749,134.667L84.19,133.374L82.72,138.431L85.251,142.255L80.22,142.02L77.309,145.137L75.78,140.668L71.456,138.668L75.543,136.168L75.653,135.155ZM180.189,106.092C174.413,104.148 168.461,102.581 162.366,101.421C161.639,100.11 160.883,98.715 160.126,97.318C160.038,97.141 159.95,96.995 159.89,96.847C157.125,91.759 155.303,86.083 153.862,80.436L179.889,104.287L180.419,105.288C180.419,105.288 180.253,105.564 180.189,106.092ZM115.274,100.721C108.993,101.722 102.856,103.153 96.893,104.984L96.631,104.2L98.278,101.641L126.011,79.759C123.982,85.819 121.482,91.818 117.923,97.024L117.894,97.024C117.835,97.141 117.775,97.229 117.687,97.318C117.658,97.406 117.57,97.523 117.452,97.671C116.986,98.312 116.204,99.471 115.274,100.721ZM135.95,51.587C137.215,50.409 138.892,49.792 140.627,49.852C142.334,49.909 143.98,50.645 145.127,51.938C146.303,53.174 146.951,54.849 146.862,56.556C146.803,58.291 146.038,59.908 144.803,61.086C143.509,62.26 141.863,62.879 140.128,62.819C138.421,62.762 136.775,62.026 135.628,60.733C134.452,59.497 133.804,57.82 133.864,56.115C133.952,54.35 134.717,52.763 135.95,51.587ZM207.857,15.296C218.916,11.766 223.15,20.353 218.297,30.998C205.298,42.235 188.889,48.674 171.713,49.233C178.065,33.087 191.329,20.618 207.857,15.296ZM64.545,25.293C60.458,14.325 65.338,6.09 76.074,10.442C92.16,16.971 104.454,30.352 109.63,46.91C92.543,45.117 76.633,37.47 64.545,25.293Z" style="fill:none;stroke:rgb(255,0,0);stroke-width:1px;"/>
</svg>
