<?xml version="1.0" encoding="UTF-8" standalone="no"?>
<!DOCTYPE svg PUBLIC "-//W3C//DTD SVG 1.1//EN" "http://www.w3.org/Graphics/SVG/1.1/DTD/svg11.dtd">
<svg width="100%" height="100%" viewBox="0 0 1123 794" version="1.1" xmlns="http://www.w3.org/2000/svg" xmlns:xlink="http://www.w3.org/1999/xlink" xml:space="preserve" xmlns:serif="http://www.serif.com/" style="fill-rule:evenodd;clip-rule:evenodd;stroke-linejoin:round;stroke-miterlimit:2;">
    <path d="M144.768,40.265C146.525,40.302 148.11,40.912 149.422,41.91C150.863,43.057 151.891,44.704 152.273,46.587C152.802,46.587 182.859,16.178 188.975,12.177C194.836,8.337 202.831,5.966 211.003,5.93C211.404,5.929 211.807,5.932 212.21,5.942C221.975,6.413 230.502,10.413 234.032,19.412C239.942,32.998 232.913,47.381 232.854,60.821C232.825,76.702 247.707,93.348 235.179,108.435C229.972,113.729 222.856,118.846 215.857,121.903L215.797,121.903L214.909,122.185L213.44,122.66C235.271,137.575 252.544,158.68 262.718,183.428L263.146,184.482L263.635,185.717L264.183,187.147L264.715,188.58L264.956,189.247L265.465,190.694L265.958,192.147L266.475,193.735L266.941,195.223L267.39,196.719L267.822,198.222L268.318,200.033L268.765,201.757L269.14,203.283L269.499,204.816L269.84,206.356L270.097,207.582L270.267,208.418L270.567,209.973L270.849,211.533L271.113,213.1L271.309,214.338L271.419,215.073L271.66,216.779L271.864,218.366L272.05,219.958L272.182,221.204L272.257,221.958L272.366,223.158L272.397,223.517L272.519,225.075L272.624,226.63L272.71,228.177L272.746,228.945L272.807,230.524L272.85,232.102C272.861,232.627 272.87,233.152 272.875,233.676L272.882,235.204L272.88,235.812C272.877,236.27 272.873,236.727 272.866,237.183L272.845,238.277C272.836,238.637 272.827,238.997 272.816,239.357L272.77,240.666L272.707,242.056L272.66,242.916C272.616,243.693 272.566,244.469 272.509,245.242L272.378,246.891L272.235,248.448L272.115,249.632L271.964,250.996L271.773,252.558L271.607,253.813L271.429,255.064L271.176,256.717L270.983,257.897L270.743,259.275L270.405,261.091L270.108,262.584L269.863,263.752L269.428,265.714L269.074,267.212L268.795,268.344L268.42,269.801L268.042,271.21L267.725,272.344L267.361,273.601L266.892,275.16L266.363,276.838L265.822,278.487L265.452,279.56L265.025,280.738L264.863,281.178C264.752,281.514 264.639,281.848 264.5,282.186C263.205,285.714 261.764,289.155 260.177,292.537C259.764,293.448 259.353,294.331 258.911,295.213C258.206,296.654 257.441,298.096 256.707,299.508C256.647,299.565 256.619,299.654 256.588,299.713C255.177,302.329 253.677,304.919 252.09,307.419L251.385,308.513L250.98,309.103L250.316,310.136L249.767,310.943L249.354,311.546L249.354,311.565C249.088,312.005 248.794,312.416 248.472,312.829C247.32,314.5 246.13,316.138 244.904,317.745L244.816,317.86C243.221,319.948 241.565,321.984 239.854,323.976L239.073,324.871L238.079,325.991L237.478,326.655L236.874,327.314L236.265,327.97L235.652,328.622L235.034,329.27L234.413,329.913L233.787,330.553L233.157,331.188L232.523,331.819L231.885,332.446L231.243,333.069L230.597,333.688L229.946,334.303L229.292,334.913L228.634,335.519L227.305,336.718L225.961,337.9L224.601,339.064L223.226,340.21L221.835,341.339L220.43,342.45L219.251,343.358L218.294,344.082L217.12,344.95L216.125,345.672L214.957,346.501L213.924,347.22L212.763,348.011L211.691,348.725L210.538,349.478L209.428,350.187L208.283,350.903L207.134,351.605L205.999,352.284L204.81,352.979L203.686,353.621L202.128,354.488L200.557,355.336L199.718,355.777L198.921,356.19L198.122,356.597L197.319,356.999L196.514,357.396L195.706,357.788L194.894,358.175L194.08,358.556L193.263,358.932L192.443,359.303L191.621,359.668L190.795,360.029L189.967,360.383L189.136,360.733L188.303,361.077L187.466,361.416L186.627,361.749L185.472,362.197L184.208,362.674L183.508,362.932C175.658,365.798 167.471,367.962 159.021,369.348L157.605,369.572L156.197,369.781L154.318,370.035L152.436,370.263L150.549,370.465L148.516,370.653L146.646,370.8L144.654,370.927L142.787,371.02L140.923,371.087L139.53,371.121L138.144,371.142L136.819,371.148L135.472,371.141L135.01,371.136L133.308,371.103L132.116,371.068L131.571,371.048C131.011,371.027 130.452,371.002 129.893,370.974L128.91,370.921L128.07,370.87L126.787,370.783L125.344,370.67L124.595,370.605L123.757,370.528L122.78,370.431L121.461,370.29L119.917,370.108L119.147,370.01L118.622,369.94C61.059,362.253 14.891,318.582 3.474,262.277L3.239,261.09L2.955,259.579L2.689,258.062L2.439,256.54L2.206,255.012L1.989,253.478L1.79,251.939L1.609,250.395L1.444,248.846L1.295,247.267L1.199,246.139L1.071,244.412L1.03,243.782L0.93,242.013L0.887,241.098L0.867,240.61L0.814,239.101L0.782,237.765L0.762,236.427L0.756,235.069L0.761,233.92L0.78,232.504L0.814,231.055L0.874,229.343L0.941,227.924L1.04,226.215L1.16,224.51L1.339,222.399L1.503,220.733L1.754,218.52L1.965,216.867L2.116,215.769L2.36,214.126L2.623,212.491L2.832,211.276L3.004,210.32L3.25,209.022L3.391,208.305L3.7,206.805L3.847,206.115L4.228,204.413L4.525,203.156L4.699,202.441L5.07,200.971L5.248,200.286L5.705,198.602L6.047,197.393L6.255,196.679L6.685,195.245L7.142,193.78L7.652,192.213L8.179,190.657L8.724,189.112L9.286,187.576L9.865,186.051L10.462,184.535L11.076,183.028L11.589,181.809L12.228,180.334L12.884,178.867L13.557,177.41L14.247,175.963L14.953,174.524L15.675,173.096L16.414,171.677L17.169,170.268L17.681,169.334L18.2,168.404L18.727,167.479L19.26,166.559L19.8,165.643L20.347,164.732L20.901,163.825L21.462,162.923L21.995,162.081C24.011,158.918 26.155,155.843 28.418,152.865L29.105,151.969L30.119,150.673L31.137,149.404L32.163,148.156L33.2,146.924L34.249,145.708L35.309,144.506L36.64,143.037L37.833,141.756L39.206,140.322L40.549,138.958L41.845,137.678L43.198,136.376L44.743,134.932L46.31,133.513L47.5,132.464L48.702,131.429L49.916,130.407L51.142,129.4L52.38,128.406L53.63,127.427L54.892,126.462L56.165,125.511L57.449,124.575L58.745,123.654L60.052,122.747L61.369,121.855L62.698,120.978L64.037,120.117L64.936,119.551L65.84,118.992C65.398,118.817 65.044,118.669 64.75,118.492L64.722,118.492C55.281,115.374 48.341,108.758 41.958,101.287C30.577,85.318 46.666,69.791 47.751,53.967C48.723,40.557 42.782,25.706 49.694,12.56C53.84,3.853 62.664,0.531 72.427,0.768C81.014,1.208 89.338,4.267 95.161,8.707C107.57,18.236 119.159,31.999 128.776,45.146C128.776,44.116 130.394,42.292 132.157,41.293C133.276,40.617 134.598,40.263 136.01,40.263L144.597,40.263L144.768,40.265ZM233.106,301.981L233,302.134C230.483,303.681 227.993,305.253 225.474,306.802C223.721,307.892 224.466,310.555 226.475,310.623C225.699,311.543 224.907,312.453 224.102,313.349L223.767,313.36C222.62,313.389 221.681,314.328 221.65,315.475C221.645,315.641 221.659,315.803 221.69,315.957C200.328,338.368 170.192,352.34 136.819,352.34C129.603,352.34 122.539,351.687 115.679,350.436L134.186,327.506L164.772,329.681L159.508,320.888L165.184,312.093L175.802,312.975L170.243,303.566L173.565,295.625L181.093,299.3L186.535,320.035L200.475,303.418L218.297,304.448C218.326,304.8 218.445,305.153 218.65,305.447C219.327,306.417 220.62,306.683 221.621,306.066C224.267,304.448 226.915,302.799 229.591,301.155C230.762,301.438 231.935,301.697 233.106,301.981ZM107.895,341.033L113.364,348.678L110.159,337.003L107.895,341.033ZM104.571,345.769L100.63,345.592L99.878,346.393C99.065,346.123 98.255,345.844 97.449,345.556L97.102,344.532L93.718,342.975L96.925,341.004L97.306,337.591L100.219,339.797L103.749,338.798L102.571,342.768L104.571,345.769ZM85.131,273.303L79.354,270.4L80.178,272.648C80.193,272.692 80.209,272.736 80.222,272.78C81.181,275.96 79.411,279.432 76.27,280.531C74.342,281.206 72.35,280.866 70.84,279.792C71.014,281.638 70.315,283.537 68.77,284.872C67.596,285.888 66.126,286.394 64.662,286.394C62.977,286.394 61.301,285.725 60.085,284.426C60.052,284.392 60.022,284.357 59.993,284.321L57.193,280.956L57.193,288.369C57.193,291.684 54.444,294.418 50.997,294.418C47.547,294.418 44.798,291.684 44.798,288.369L44.798,280.956L41.998,284.321C41.969,284.357 41.939,284.392 41.906,284.426C39.633,286.853 35.746,287.057 33.221,284.874L33.221,284.872C31.676,283.537 30.977,281.638 31.152,279.792C30.457,280.285 29.66,280.624 28.814,280.779C39.992,307.142 60.547,328.582 86.29,340.908L91.19,337.739L92.396,325.651L101.189,333.062L108.66,330.739L105.749,320.828L76.779,308.771L84.691,302.624L82.543,295.744L74.367,291.949L81.926,286.273L82.749,277.684L87.308,281.333L85.131,273.303ZM117.923,310.182L108.954,306.066L117.395,300.861L118.423,291.83L126.187,297.713L135.451,295.037L132.392,305.535L137.657,313.475L127.187,312.975L121.099,319.533L117.923,310.182ZM158.478,319.476L151.155,307.801L156.126,310.066L158.478,319.476ZM156.891,305.007L159.832,303.212L160.184,300.067L162.889,302.125L166.096,301.183L165.036,304.83L166.861,307.595L163.243,307.419L161.125,309.711L160.007,306.448L156.891,305.007ZM169.832,294.508L163.95,296.566L155.684,289.92L154.539,300.772L148.686,303.77L158.714,273.038L151.862,274.421L157.803,267.421L179.124,269.362L177.948,279.302L160.979,290.508L169.832,294.508ZM223.767,299.771C222.62,300.476 221.444,301.212 220.268,301.948L218.827,299.713C219.267,299.448 219.709,299.183 220.151,298.889C221.356,299.183 222.561,299.477 223.767,299.771ZM91.073,297.625L88.014,301.654L94.543,297.832L91.073,297.625ZM240.986,279.793C241.118,280.239 241.251,280.684 241.383,281.125C242.236,279.569 243.09,278.039 243.912,276.479C244.5,275.42 245.766,275.096 246.796,275.714L246.825,275.733C251.444,263.256 253.999,249.776 254.073,235.715L253.978,235.8C252.659,236.956 251.111,237.635 249.333,237.833C247.508,238.037 245.983,237.673 244.752,236.775C243.457,235.831 242.828,234.584 242.856,233.038C242.882,231.542 243.563,230.18 244.941,228.972C246.26,227.816 247.808,227.138 249.586,226.939C251.257,226.752 252.677,227.042 253.85,227.782C251.172,184.288 224.739,147.177 187.383,129.279C188.179,130.465 188.992,131.707 189.822,133.004C191.164,135.1 192.275,136.782 193.157,138.048C196.546,139.008 199.324,140.654 201.497,142.978C202.289,143.826 202.772,144.882 202.934,146.151C203.102,147.478 202.804,148.575 202.076,149.451C200.998,150.749 199.713,151.422 198.238,151.498C196.764,151.575 195.366,150.95 194.072,149.566C192.803,148.209 191.442,146.505 189.988,144.454C185.928,144.617 181.351,145.78 176.255,147.927C171.119,150.091 165.049,153.104 158.044,156.965C158.044,156.965 168.386,168.029 168.386,168.029C170.204,167.082 172.455,165.911 175.137,164.516C180.571,161.675 185.653,159.459 190.383,157.865C195.139,156.263 199.164,155.294 202.455,154.953C205.775,154.608 208.826,154.691 211.608,155.197C214.423,155.709 216.677,156.464 218.375,157.448C220.075,158.433 221.603,159.65 222.959,161.101C224.168,162.394 224.584,163.896 224.211,165.604C224.207,165.624 224.202,165.643 224.196,165.663C223.982,166.338 223.645,166.651 223.394,166.744C223.08,166.861 222.719,166.828 222.374,166.459C220.885,164.866 219.045,163.765 216.856,163.154C214.626,162.532 212.326,162.354 209.957,162.619C207.541,162.889 204.744,163.572 201.564,164.663C198.354,165.765 195.342,166.973 192.53,168.286C189.706,169.605 186.453,171.243 182.771,173.198C171.023,179.506 162.37,184.541 156.813,188.304C154.778,189.682 152.895,191.074 151.165,192.48C154.835,193.708 159.241,193.702 162.396,191.775L162.398,191.775C164.685,189.639 167.409,187.881 170.574,186.501C174.82,184.651 179.11,183.896 183.443,184.232C187.854,184.575 191.353,186.149 193.953,188.93C195.94,191.056 197.073,193.23 197.379,195.435C197.694,197.696 196.999,199.882 195.255,201.981C193.006,204.687 190.014,206.146 186.273,206.346C182.623,206.541 179.211,205.936 176.037,204.535C173.098,203.237 170.632,201.678 168.637,199.862C167.824,200.564 167.087,201.312 166.428,202.105C165.135,203.661 164.314,205.195 163.984,206.716C163.683,208.099 163.996,209.292 164.932,210.293C165.677,211.09 166.62,211.815 167.757,212.471C168.919,213.141 170.469,213.752 172.403,214.311C174.333,214.869 176.75,215.002 179.651,214.728C182.148,214.492 184.801,213.91 187.609,212.984C190.643,211.253 195.123,208.836 201.051,205.733C201.051,205.733 199.158,203.708 199.158,203.708C198.873,203.403 198.766,203.025 198.881,202.564C198.99,202.123 199.223,201.856 199.507,201.713L203.099,199.767C203.108,199.763 203.117,199.758 203.126,199.754C203.84,199.407 204.459,199.524 204.985,200.087C204.985,200.087 207.261,202.522 207.261,202.522C210.269,200.958 215.632,198.176 223.347,194.175C223.713,193.972 224.054,193.902 224.359,193.93C224.707,193.961 225.026,194.113 225.303,194.41C225.303,194.41 230.481,199.949 230.481,199.949C230.74,200.226 230.866,200.589 230.805,201.055C230.741,201.545 230.481,201.878 230.023,202.049C222.889,205.791 217.692,208.506 214.433,210.195C214.433,210.195 217.306,213.269 217.306,213.269C217.591,213.573 217.698,213.952 217.584,214.413C217.557,214.523 218.613,214.667 219.076,215.162C219.076,215.162 221.352,217.597 221.352,217.597C224.359,216.033 229.722,213.25 237.438,209.25C237.804,209.047 238.145,208.977 238.45,209.004C238.798,209.035 239.117,209.187 239.394,209.484C239.394,209.484 244.572,215.023 244.572,215.023C244.831,215.3 244.957,215.663 244.896,216.129C244.832,216.619 244.572,216.953 244.114,217.124C236.979,220.865 231.783,223.581 228.524,225.27C228.524,225.27 231.397,228.343 231.397,228.343C231.682,228.648 231.789,229.026 231.675,229.488C231.581,229.865 231.37,230.166 231.04,230.386C231.021,230.399 231.002,230.411 230.981,230.421L227.429,232.298C226.715,232.644 226.097,232.527 225.57,231.964C225.57,231.964 222.313,228.48 222.313,228.48C212.896,233.447 206.879,236.723 204.264,238.308C201.679,239.875 199.762,241.398 198.523,242.89C197.955,243.573 197.766,244.129 198.203,244.597C198.67,245.096 199.397,245.422 200.363,245.618C201.446,245.837 202.808,245.88 204.451,245.759C207.576,245.527 211.515,244.602 216.268,242.995C219.973,240.892 225.521,237.916 232.913,234.066C232.919,234.063 232.925,234.06 232.93,234.058C233.644,233.711 234.263,233.828 234.789,234.391C234.789,234.391 240.032,240 240.032,240C240.317,240.305 240.425,240.683 240.31,241.145C240.216,241.523 240.006,241.823 239.676,242.043C239.655,242.057 239.634,242.069 239.613,242.081C228.604,247.793 221.505,251.626 218.316,253.579C215.205,255.485 213.066,257.121 211.915,258.507C211.352,259.184 211.125,259.711 211.529,260.144C211.733,260.361 212.123,260.459 212.666,260.527C213.746,260.663 215.332,260.569 217.426,260.261C221.013,259.732 225.419,258.534 230.647,256.671C230.695,256.654 230.745,256.642 230.796,256.637C231.21,256.591 231.479,256.732 231.644,256.909C231.806,257.083 231.925,257.347 231.863,257.717C231.849,258.048 231.804,258.694 231.727,259.654L231.608,261.128C231.581,261.764 231.28,262.131 230.817,262.292C226.339,263.986 222.627,265.231 219.683,266.027C218.838,266.255 218.039,266.444 217.284,266.595L210.092,286.304L214.679,293.332C214.886,293.39 215.092,293.448 215.297,293.478C215.003,293.008 214.709,292.537 214.444,292.068C213.827,291.067 214.15,289.772 215.209,289.213C216.208,288.655 217.503,289.009 218.12,289.979C219.121,291.624 220.12,293.244 221.091,294.862C222.326,295.154 223.533,295.448 224.738,295.744C223.798,294.214 222.885,292.712 221.975,291.213C221.356,290.183 221.681,288.89 222.737,288.331C223.738,287.802 225.032,288.125 225.65,289.124C227.268,291.772 228.915,294.449 230.531,297.123C231.737,297.39 232.973,297.682 234.178,297.978C232.591,295.39 231.002,292.802 229.414,290.214C228.325,288.419 230.296,286.304 232.178,287.303C234.692,288.656 237.18,290.008 239.692,291.362L239.958,290.875C239.678,289.929 239.398,288.992 239.12,288.037C236.355,286.567 233.619,285.068 230.856,283.596C229.854,283.068 229.414,281.773 229.914,280.745C230.414,279.657 231.678,279.244 232.737,279.803C234.297,280.656 235.855,281.479 237.414,282.332C237.06,281.125 236.708,279.949 236.355,278.744C234.65,277.832 232.973,276.95 231.296,276.039C230.296,275.48 229.885,274.216 230.356,273.186C230.856,272.098 232.12,271.685 233.179,272.244C233.649,272.509 234.149,272.774 234.65,273.038C234.266,271.833 233.915,270.626 233.561,269.393C233.238,268.303 233.795,267.097 234.943,266.745C236.061,266.422 237.208,267.127 237.531,268.215C237.884,269.42 238.267,270.626 238.618,271.833C238.885,271.362 239.149,270.861 239.414,270.392C239.973,269.331 241.266,269.01 242.265,269.627C243.266,270.215 243.589,271.508 243.059,272.538L240.325,277.569C240.457,278.01 240.589,278.455 240.722,278.901L240.986,279.793ZM202.504,293.509L195.447,293.184L191.358,297.567L189.212,291.301L183.182,288.507L188.858,285.008L189.565,278.948L194.77,282.891L201.006,281.098L198.946,288.154L202.504,293.509ZM92.631,293.39L89.278,293.213L87.308,295.331L86.279,292.331L83.396,291.007L86.132,289.332L86.455,286.419L88.926,288.302L91.926,287.449L90.927,290.83L92.631,293.39ZM95.661,275.126L103.66,275.774L102.836,292.331L98.924,294.566L95.807,289.772L98.543,281.596L89.338,283.271L95.661,275.126ZM98.806,255.804L106.454,245.776L120.717,247.071L112.218,252.716L135.51,262.245L139.303,278.155L128.657,280.979L104.542,260.512L103.66,269.596L100.984,266.009L104.69,255.07L98.806,255.804ZM33.617,275.518L35.978,260.906L44.798,256.088L45.284,265.759L33.617,275.518ZM68.374,275.516L56.423,266.816L57.193,256.088L66.785,261.932L68.374,275.516ZM189.462,245.704L189.181,246.452L193.977,254.57L184.8,253.892L181.418,258.158L196.505,270.363L212.214,266.983C210.36,266.81 208.974,266.466 208.05,265.98C207.106,265.483 206.097,264.67 205.031,263.53C203.557,261.953 202.862,259.942 202.972,257.486C203.057,255.606 203.614,253.848 204.65,252.214C202.351,252.66 200.433,252.792 198.897,252.621C196.932,252.402 195.434,251.981 194.396,251.384C193.372,250.796 192.262,249.869 191.072,248.596C190.304,247.774 189.765,246.811 189.462,245.704ZM95.955,263.598C95.955,263.598 93.726,264.232 93.726,264.232C94.485,265.959 94.443,268.037 93.413,269.845L96.72,269.979C96.72,269.979 94.896,267.246 94.896,267.246L95.955,263.598ZM169.743,249.334L176.007,252.188L179.241,263.569L169.743,249.334ZM137.657,250.424L144.568,246.216L145.391,238.864L151.685,243.658L159.242,241.481L156.745,250.011L161.037,256.48L152.508,256.069L147.568,261.394L144.979,253.804L137.657,250.424ZM231.602,261.18L231.608,261.131C231.604,261.181 231.596,261.229 231.582,261.275L231.602,261.18ZM93.065,254.373C92.686,254.936 92.218,255.437 91.68,255.854L93.838,257.628C93.838,257.628 93.065,254.373 93.065,254.373ZM177.771,247.63L179.977,246.275L180.242,243.924L182.271,245.453L184.683,244.775L183.889,247.511L185.242,249.569L182.534,249.452L180.947,251.158L180.094,248.718L177.771,247.63ZM19.892,243.913L30.396,239.854L39.892,245.33L30.696,251.158L20.154,246.913C20.055,245.921 19.967,244.919 19.892,243.913ZM85.767,245.33L71.954,250.362L62.099,245.33L72.204,240.111L85.767,245.33ZM175.248,230.11L168.771,246.775L175.154,243.424L175.802,234.426L183.007,240.159L190.378,238.111C190.548,237.756 190.735,237.406 190.941,237.063C188.472,237.57 186.427,237.727 184.807,237.547C182.841,237.328 181.344,236.906 180.306,236.31C179.282,235.721 178.171,234.795 176.981,233.521C176.096,232.574 175.514,231.439 175.248,230.11ZM90.909,245.299L90.892,245.226C90.821,245.263 90.748,245.297 90.675,245.33C90.767,245.374 90.859,245.418 90.949,245.466L90.909,245.299ZM136.951,215.603L134.158,214.25L133.128,238.953L124.099,244.982L114.747,230.777L121.159,213.484L107.513,216.397L113.805,208.336L131.216,209.631L135.804,211.22L136.951,215.603ZM108.423,237.6L102.159,237.308L98.513,241.218L96.601,235.629L91.221,233.158L96.278,230.041L96.897,224.63L101.543,228.16L107.101,226.542L105.276,232.835L108.423,237.6ZM33.617,215.144L45.803,224.221L44.798,234.574L35.216,230.049L33.617,215.144ZM68.374,215.144L65.894,229.603L57.193,234.572L57.247,224.607L68.374,215.144ZM212.971,217.638C213,217.524 211.941,217.384 211.48,216.89C211.48,216.89 208.223,213.405 208.222,213.405C198.805,218.372 192.788,221.648 190.173,223.234C187.589,224.801 185.672,226.324 184.432,227.815C183.864,228.498 183.675,229.055 184.112,229.522C184.579,230.022 185.306,230.348 186.272,230.543C187.355,230.762 188.718,230.806 190.36,230.684C193.359,230.462 197.108,229.601 201.606,228.112C204.641,226.377 209.153,223.942 215.141,220.807C215.141,220.807 213.249,218.783 213.249,218.783C212.964,218.478 212.857,218.1 212.971,217.638ZM152.433,199.754L150.596,205.25L155.861,214.22L145.892,213.72L140.422,219.337L153.743,230.337L175.571,224.919C175.976,223.516 176.626,222.201 177.523,220.976C174.943,221.349 172.795,221.459 171.079,221.312C169.04,221.138 167.095,220.646 165.242,219.835C163.385,219.023 162.025,218.257 161.155,217.549C160.297,216.852 159.353,215.954 158.325,214.853C155.597,211.935 154.521,208.585 155.084,204.808C155.261,203.614 155.561,202.431 155.982,201.26C154.831,200.837 153.629,200.32 152.433,199.754ZM64.079,143.141L70.546,145.608L72.309,151.812L72.104,167.459L61.28,174.605L73.22,179.604L77.192,191.927L84.455,182.341L94.748,183.163L94.574,185.811L78.604,196.25L83.984,199.367L80.191,200.339L72.897,194.369L71.956,203.573L68.783,205.8L68.77,205.788C66.245,203.605 62.358,203.809 60.085,206.234C60.052,206.269 60.022,206.305 59.993,206.34L57.193,209.706L57.193,202.293C57.193,198.979 54.444,196.242 50.997,196.242C47.547,196.242 44.798,198.979 44.798,202.293L44.798,209.706L41.998,206.34C41.969,206.305 41.939,206.269 41.906,206.234C39.633,203.809 35.746,203.605 33.221,205.788C31.676,207.124 30.977,209.024 31.152,210.871C29.641,209.796 27.649,209.456 25.722,210.131C22.578,211.23 20.81,214.7 21.769,217.88C21.783,217.926 21.796,217.97 21.813,218.015L23.325,222.142L20.466,220.486C24.353,189.233 40.563,161.778 64.079,143.141ZM81.367,214.368L80.453,215.505C80.529,216.287 80.46,217.092 80.222,217.88C80.209,217.926 80.195,217.97 80.178,218.015L78.666,222.142L85.066,218.437C86.073,217.855 87.185,217.602 88.282,217.649L88.425,215.19L81.367,214.368ZM85.514,207.014L88.102,200.839L96.601,204.074L99.043,213.808L89.278,205.925L89.132,206.044L88.308,210.955L85.514,207.014ZM82.514,210.544L80.985,208.221L81.867,205.193L79.19,205.955L76.956,204.28L76.662,206.868L74.192,208.398L76.81,209.574L77.123,210.504C77.62,210.767 78.073,211.095 78.475,211.475L79.486,210.398L82.514,210.544ZM139.583,207.376L140.01,207.573L141.127,210.807L143.215,208.544L146.862,208.692L145.039,205.955L146.098,202.31L142.862,203.219L141.874,202.471L141.867,202.486C141.603,203.108 141.453,203.55 141.53,203.837C141.64,204.251 141.713,204.655 141.749,205.048C141.798,205.586 141.648,206.071 141.292,206.499C140.925,206.941 140.357,207.247 139.583,207.376ZM131.126,202.879C130.536,201.633 130.33,200.166 130.522,198.474C130.798,196.049 131.802,193.784 133.547,191.684C136.516,188.112 140.127,184.846 144.382,181.888C148.461,179.053 154.184,175.657 161.554,171.703C161.554,171.703 151.23,160.659 151.23,160.659C148.213,162.342 145.89,163.62 144.26,164.491C142.548,165.406 140.26,166.593 137.395,168.051C134.512,169.517 132.226,170.592 130.535,171.275C128.84,171.96 126.859,172.638 124.592,173.308C122.28,173.992 120.362,174.348 118.843,174.384C117.302,174.422 115.781,174.227 114.28,173.802C112.721,173.359 111.422,172.578 110.379,171.462C108.661,169.624 107.837,167.188 107.947,164.14L105.19,163.989L99.925,169.899L109.924,179.399L128.628,174.545L122.306,192.398L129.863,203.515L131.126,202.879ZM103.629,192.104L104.248,186.693L108.894,190.222L114.453,188.605L112.601,194.897L115.777,199.663L109.482,199.367L105.835,203.281L103.923,197.691L98.543,195.22L103.629,192.104ZM190.807,193.645C190.923,193.769 191,193.891 191.005,194.027C190.919,194.628 190.551,195.172 189.943,195.689C189.218,196.303 188.172,196.862 186.812,197.378C186.809,197.379 186.806,197.38 186.803,197.381C182.397,199.122 177.893,198.814 173.289,196.482C176.642,194.538 180.046,193.256 183.5,192.64C185.352,192.309 186.907,192.233 188.167,192.426C189.314,192.601 190.199,192.995 190.807,193.645ZM77.897,171.429L78.337,167.43L81.778,170.016L85.896,168.84L84.543,173.488L86.866,177.018L82.22,176.782L79.544,179.693L78.132,175.546L74.133,173.723L77.897,171.429ZM94.514,161.341L96.985,162.165L98.159,168.871L95.955,167.105L95.131,178.694L90.337,172.399L94.514,161.341ZM83.074,163.666L76.485,157.665L83.337,148.607L95.69,149.489L95.338,154.195L88.573,158.167L92.865,160.636L83.074,163.666ZM106.1,159.665L103.07,159.548L101.308,161.429L100.396,158.724L97.779,157.519L100.248,156.018L100.544,153.43L102.778,155.108L105.455,154.343L104.571,157.371L106.1,159.665ZM130.401,118.002C117.59,118.694 105.321,121.448 93.918,125.938L90.279,137.638L96.043,146.373L96.424,144.019L102.984,150.225L112.042,147.785L109.748,157.192C110.002,156.763 110.283,156.364 110.588,155.996C111.22,155.236 111.837,154.701 112.429,154.376C113.339,153.876 113.987,154.018 114.361,154.418C114.414,154.475 114.495,154.579 114.543,154.761C114.581,154.901 114.62,155.234 114.644,155.761C114.661,156.144 114.755,156.452 114.962,156.674C115.778,157.547 116.631,158.213 117.524,158.667C118.42,159.123 119.792,159.362 121.634,159.421C123.546,159.483 125.779,159.154 128.334,158.442C130.944,157.715 134.382,156.433 138.648,154.6C142.937,152.756 147.888,150.389 153.501,147.497C166.077,140.874 176.636,137.433 185.165,137.142C181.524,131.632 178.437,127.518 175.899,124.803C175.759,124.653 175.617,124.506 175.472,124.361C168.545,121.94 161.323,120.151 153.877,119.064C152.112,119.421 150.355,119.942 148.604,120.628C143.638,122.571 139.556,125.462 136.364,129.303C134.656,131.358 133.637,133.364 133.332,135.336C133.044,137.191 133.498,138.769 134.709,140.065C136.356,141.826 138.622,142.458 141.49,142.019C144.416,141.571 146.557,140.575 147.888,138.974C148.304,138.473 148.735,138.386 149.051,138.46C149.243,138.504 149.432,138.61 149.597,138.812C149.769,139.023 149.939,139.412 150.044,139.989C150.448,141.648 150.049,143.226 148.811,144.716C146.444,147.564 142.921,149.326 138.221,149.959C133.482,150.597 129.53,149.216 126.361,145.826L126.361,145.826C123.762,143.045 122.545,139.119 122.769,134.03C122.99,129.007 124.778,124.472 128.14,120.428C128.849,119.575 129.602,118.766 130.401,118.002ZM75.665,135.043C76.512,134.523 77.364,134.016 78.223,133.519L79.749,134.667L84.19,133.374L82.72,138.431L85.251,142.255L80.22,142.02L77.309,145.137L75.78,140.668L71.456,138.668L75.543,136.168L75.665,135.043ZM153.862,80.436L179.889,104.287L180.419,105.288L180.29,105.606L180.195,106.039L180.189,106.092C174.413,104.148 168.461,102.581 162.366,101.421L161.821,100.432L161.261,99.409L160.126,97.318C160.038,97.141 159.95,96.995 159.89,96.847C157.125,91.759 155.303,86.083 153.862,80.436ZM126.011,79.759C123.982,85.819 121.482,91.818 117.923,97.024L117.894,97.024C117.835,97.141 117.775,97.229 117.687,97.318C117.658,97.406 117.57,97.523 117.452,97.671L117.042,98.249L116.246,99.381L115.61,100.266L115.274,100.721C108.993,101.722 102.856,103.153 96.893,104.984L96.631,104.2L98.278,101.641L126.011,79.759ZM140.465,49.848L140.627,49.852C142.334,49.909 143.98,50.645 145.127,51.938C146.303,53.174 146.951,54.849 146.862,56.556C146.803,58.291 146.038,59.908 144.803,61.086C143.509,62.26 141.863,62.879 140.128,62.819C138.421,62.762 136.775,62.026 135.628,60.733C134.452,59.497 133.804,57.82 133.864,56.115C133.952,54.35 134.717,52.763 135.95,51.587C137.096,50.519 138.581,49.913 140.141,49.852L140.465,49.848ZM212.533,14.49L212.739,14.493C220.061,14.64 222.354,22.1 218.297,30.998C205.399,42.147 189.145,48.573 172.115,49.219L171.713,49.233C178.065,33.087 191.329,20.618 207.857,15.296C209.586,14.744 211.148,14.488 212.533,14.49ZM70.673,9.257C72.254,9.253 74.061,9.626 76.074,10.442C92.16,16.971 104.454,30.352 109.63,46.91C92.543,45.117 76.633,37.47 64.545,25.293C61.224,16.382 63.823,9.274 70.673,9.257Z" style="fill:none;stroke:rgb(255,0,0);stroke-width:1px;"/>
</svg>
