<?xml version="1.0" encoding="UTF-8" standalone="no"?>
<!DOCTYPE svg PUBLIC "-//W3C//DTD SVG 1.1//EN" "http://www.w3.org/Graphics/SVG/1.1/DTD/svg11.dtd">
<svg width="100%" height="100%" viewBox="0 0 1123 794" version="1.1" xmlns="http://www.w3.org/2000/svg" xmlns:xlink="http://www.w3.org/1999/xlink" xml:space="preserve" xmlns:serif="http://www.serif.com/" style="fill-rule:evenodd;clip-rule:evenodd;stroke-linejoin:round;stroke-miterlimit:2;">
    <path d="M144.768,40.265C146.525,40.302 148.11,40.912 149.422,41.91C150.863,43.057 151.891,44.704 152.273,46.587C152.802,46.587 182.859,16.178 188.975,12.177C194.836,8.337 202.831,5.966 211.003,5.93C211.404,5.929 211.807,5.932 212.21,5.942C221.975,6.413 230.502,10.413 234.032,19.412C239.942,32.998 232.913,47.381 232.854,60.821C232.825,76.702 247.707,93.348 235.179,108.435C229.972,113.729 222.856,118.846 215.857,121.903L215.797,121.903L214.909,122.185L213.44,122.66C235.271,137.575 252.544,158.68 262.718,183.428L263.146,184.482L263.635,185.717L264.183,187.147L264.715,188.58L264.956,189.247L265.465,190.694L265.958,192.147L266.475,193.735L266.941,195.223L267.39,196.719L267.822,198.222L268.318,200.033L268.765,201.757L269.14,203.283L269.499,204.816L269.84,206.356L270.097,207.582L270.267,208.418L270.567,209.973L270.849,211.533L271.113,213.1L271.309,214.338L271.419,215.073L271.66,216.779L271.864,218.366L272.05,219.958L272.182,221.204L272.257,221.958L272.366,223.158L272.397,223.517L272.519,225.075L272.624,226.63L272.71,228.177L272.746,228.945L272.807,230.524L272.85,232.102C272.861,232.627 272.87,233.152 272.875,233.676L272.882,235.204L272.88,235.812C272.877,236.27 272.873,236.727 272.866,237.183L272.845,238.277C272.836,238.637 272.827,238.997 272.816,239.357L272.77,240.666L272.707,242.056L272.66,242.916C272.616,243.693 272.566,244.469 272.509,245.242L272.378,246.891L272.235,248.448L272.115,249.632L271.964,250.996L271.773,252.558L271.607,253.813L271.429,255.064L271.176,256.717L270.983,257.897L270.743,259.275L270.405,261.091L270.108,262.584L269.863,263.752L269.428,265.714L269.074,267.212L268.795,268.344L268.42,269.801L268.042,271.21L267.725,272.344L267.361,273.601L266.892,275.16L266.363,276.838L265.822,278.487L265.452,279.56L265.025,280.738L264.863,281.178C264.752,281.514 264.639,281.848 264.5,282.186C263.205,285.714 261.764,289.155 260.177,292.537C259.764,293.448 259.353,294.331 258.911,295.213C258.206,296.654 257.441,298.096 256.707,299.508C256.647,299.565 256.619,299.654 256.588,299.713C255.177,302.329 253.677,304.919 252.09,307.419L251.385,308.513L250.98,309.103L250.316,310.136L249.767,310.943L249.354,311.546L249.354,311.565C249.088,312.005 248.794,312.416 248.472,312.829C247.32,314.5 246.13,316.138 244.904,317.745L244.816,317.86C243.221,319.948 241.565,321.984 239.854,323.976L239.073,324.871L238.079,325.991L237.478,326.655L236.874,327.314L236.265,327.97L235.652,328.622L235.034,329.27L234.413,329.913L233.787,330.553L233.157,331.188L232.523,331.819L231.885,332.446L231.243,333.069L230.597,333.688L229.946,334.303L229.292,334.913L228.634,335.519L227.305,336.718L225.961,337.9L224.601,339.064L223.226,340.21L221.835,341.339L220.43,342.45L219.251,343.358L218.294,344.082L217.12,344.95L216.125,345.672L214.957,346.501L213.924,347.22L212.763,348.011L211.691,348.725L210.538,349.478L209.428,350.187L208.283,350.903L207.134,351.605L205.999,352.284L204.81,352.979L203.686,353.621L202.128,354.488L200.557,355.336L199.718,355.777L198.921,356.19L198.122,356.597L197.319,356.999L196.514,357.396L195.706,357.788L194.894,358.175L194.08,358.556L193.263,358.932L192.443,359.303L191.621,359.668L190.795,360.029L189.967,360.383L189.136,360.733L188.303,361.077L187.466,361.416L186.627,361.749L185.472,362.197L184.208,362.674L183.508,362.932C175.658,365.798 167.471,367.962 159.021,369.348L157.605,369.572L156.197,369.781L154.318,370.035L152.436,370.263L150.549,370.465L148.516,370.653L146.646,370.8L144.654,370.927L142.787,371.02L140.923,371.087L139.53,371.121L138.144,371.142L136.819,371.148L135.472,371.141L135.01,371.136L133.308,371.103L132.116,371.068L131.571,371.048C131.011,371.027 130.452,371.002 129.893,370.974L128.91,370.921L128.07,370.87L126.787,370.783L125.344,370.67L124.595,370.605L123.757,370.528L122.78,370.431L121.461,370.29L119.917,370.108L119.147,370.01L118.622,369.94C61.059,362.253 14.891,318.582 3.474,262.277L3.239,261.09L2.955,259.579L2.689,258.062L2.439,256.54L2.206,255.012L1.989,253.478L1.79,251.939L1.609,250.395L1.444,248.846L1.295,247.267L1.199,246.139L1.071,244.412L1.03,243.782L0.93,242.013L0.887,241.098L0.867,240.61L0.814,239.101L0.782,237.765L0.762,236.427L0.756,235.069L0.761,233.92L0.78,232.504L0.814,231.055L0.874,229.343L0.941,227.924L1.04,226.215L1.16,224.51L1.339,222.399L1.503,220.733L1.754,218.52L1.965,216.867L2.116,215.769L2.36,214.126L2.623,212.491L2.832,211.276L3.004,210.32L3.25,209.022L3.391,208.305L3.7,206.805L3.847,206.115L4.228,204.413L4.525,203.156L4.699,202.441L5.07,200.971L5.248,200.286L5.705,198.602L6.047,197.393L6.255,196.679L6.685,195.245L7.142,193.78L7.652,192.213L8.179,190.657L8.724,189.112L9.286,187.576L9.865,186.051L10.462,184.535L11.076,183.028L11.589,181.809L12.228,180.334L12.884,178.867L13.557,177.41L14.247,175.963L14.953,174.524L15.675,173.096L16.414,171.677L17.169,170.268L17.681,169.334L18.2,168.404L18.727,167.479L19.26,166.559L19.8,165.643L20.347,164.732L20.901,163.825L21.462,162.923L21.995,162.081C24.011,158.918 26.155,155.843 28.418,152.865L29.105,151.969L30.119,150.673L31.137,149.404L32.163,148.156L33.2,146.924L34.249,145.708L35.309,144.506L36.64,143.037L37.833,141.756L39.206,140.322L40.549,138.958L41.845,137.678L43.198,136.376L44.743,134.932L46.31,133.513L47.5,132.464L48.702,131.429L49.916,130.407L51.142,129.4L52.38,128.406L53.63,127.427L54.892,126.462L56.165,125.511L57.449,124.575L58.745,123.654L60.052,122.747L61.369,121.855L62.698,120.978L64.037,120.117L64.936,119.551L65.84,118.992C65.398,118.817 65.044,118.669 64.75,118.492L64.722,118.492C55.281,115.374 48.341,108.758 41.958,101.287C30.577,85.318 46.666,69.791 47.751,53.967C48.723,40.557 42.782,25.706 49.694,12.56C53.84,3.853 62.664,0.531 72.427,0.768C81.014,1.208 89.338,4.267 95.161,8.707C107.57,18.236 119.159,31.999 128.776,45.146C128.776,44.116 130.394,42.292 132.157,41.293C133.276,40.617 134.598,40.263 136.01,40.263L144.597,40.263L144.768,40.265ZM233.106,301.981L233,302.134C230.483,303.681 227.993,305.253 225.474,306.802C223.721,307.892 224.466,310.555 226.475,310.623C225.699,311.543 224.907,312.453 224.102,313.349L223.767,313.36C222.62,313.389 221.681,314.328 221.65,315.475C221.645,315.641 221.659,315.803 221.69,315.957C200.328,338.368 170.192,352.34 136.819,352.34C129.603,352.34 122.539,351.687 115.679,350.436L134.186,327.506L164.772,329.681L159.508,320.888L165.184,312.093L175.802,312.975L170.243,303.566L173.565,295.625L181.093,299.3L186.535,320.035L200.475,303.418L218.297,304.448C218.326,304.8 218.445,305.153 218.65,305.447C219.327,306.417 220.62,306.683 221.621,306.066C224.267,304.448 226.915,302.799 229.591,301.155C230.762,301.438 231.935,301.697 233.106,301.981ZM107.895,341.033L113.364,348.678L110.159,337.003L107.895,341.033ZM104.571,345.769L100.63,345.592L99.878,346.393C99.065,346.123 98.255,345.844 97.449,345.556L97.102,344.532L93.718,342.975L96.925,341.004L97.306,337.591L100.219,339.797L103.749,338.798L102.571,342.768L104.571,345.769ZM85.131,273.303L79.354,270.4L80.178,272.648C80.193,272.692 80.209,272.736 80.222,272.78C81.181,275.96 79.411,279.432 76.27,280.531C74.342,281.206 72.35,280.866 70.84,279.792C71.014,281.638 70.315,283.537 68.77,284.872C67.596,285.888 66.126,286.394 64.662,286.394C62.977,286.394 61.301,285.725 60.085,284.426C60.052,284.392 60.022,284.357 59.993,284.321L57.193,280.956L57.193,288.369C57.193,291.684 54.444,294.418 50.997,294.418C47.547,294.418 44.798,291.684 44.798,288.369L44.798,280.956L41.998,284.321C41.969,284.357 41.939,284.392 41.906,284.426C39.633,286.853 35.746,287.057 33.221,284.874L33.221,284.872C31.676,283.537 30.977,281.638 31.152,279.792C30.457,280.285 29.66,280.624 28.814,280.779C39.992,307.142 60.547,328.582 86.29,340.908L91.19,337.739L92.396,325.651L101.189,333.062L108.66,330.739L105.749,320.828L76.779,308.771L84.691,302.624L82.543,295.744L74.367,291.949L81.926,286.273L82.749,277.684L87.308,281.333L85.131,273.303ZM117.923,310.182L108.954,306.066L117.395,300.861L118.423,291.83L126.187,297.713L135.451,295.037L132.392,305.535L137.657,313.475L127.187,312.975L121.099,319.533L117.923,310.182ZM158.478,319.476L151.155,307.801L156.126,310.066L158.478,319.476ZM156.891,305.007L159.832,303.212L160.184,300.067L162.889,302.125L166.096,301.183L165.036,304.83L166.861,307.595L163.243,307.419L161.125,309.711L160.007,306.448L156.891,305.007ZM169.832,294.508L163.95,296.566L155.684,289.92L154.539,300.772L148.686,303.77L158.714,273.038L151.862,274.421L157.803,267.421L179.124,269.362L177.948,279.302L160.979,290.508L169.832,294.508ZM223.767,299.771C222.62,300.476 221.444,301.212 220.268,301.948L218.827,299.713C219.267,299.448 219.709,299.183 220.151,298.889C221.356,299.183 222.561,299.477 223.767,299.771ZM91.073,297.625L88.014,301.654L94.543,297.832L91.073,297.625ZM190.982,241.652L189.181,246.452L193.977,254.57L184.8,253.892L181.418,258.158L196.505,270.363L217.563,265.832L210.092,286.304L214.679,293.332C214.886,293.39 215.092,293.448 215.297,293.478C215.003,293.008 214.709,292.537 214.444,292.068C213.827,291.067 214.15,289.772 215.209,289.213C216.208,288.655 217.503,289.009 218.12,289.979C219.121,291.624 220.12,293.244 221.091,294.862C222.326,295.154 223.533,295.448 224.738,295.744C223.798,294.214 222.885,292.712 221.975,291.213C221.356,290.183 221.681,288.89 222.737,288.331C223.738,287.802 225.032,288.125 225.65,289.124C227.268,291.772 228.915,294.449 230.531,297.123C231.737,297.39 232.973,297.682 234.178,297.978C232.591,295.39 231.002,292.802 229.414,290.214C228.325,288.419 230.296,286.304 232.178,287.303C234.692,288.656 237.18,290.008 239.692,291.362L239.958,290.875C239.678,289.929 239.398,288.992 239.12,288.037C236.355,286.567 233.619,285.068 230.856,283.596C229.939,283.112 229.493,281.986 229.808,281.011C228.91,280.773 228.177,280.487 227.606,280.159C226.683,279.628 225.743,278.858 224.794,277.842C223.45,276.404 222.847,274.717 222.982,272.781C223.112,270.912 223.932,269.044 225.472,267.191C226.61,265.822 227.836,264.671 229.147,263.736C230.427,262.823 232.94,261.409 236.698,259.493C240.7,257.267 243.324,255.438 244.549,253.975C244.828,253.64 245.029,253.333 245.139,253.045C245.241,252.778 245.256,252.54 245.14,252.329C244.424,251.614 242.991,251.314 240.877,251.287C238.543,251.257 235.749,251.832 232.493,252.996L212.67,263.293C212.665,263.296 212.659,263.299 212.654,263.302C211.962,263.637 211.405,263.518 210.968,263.051C210.968,263.051 206.281,258.037 206.281,258.037C206.01,257.747 205.907,257.388 206.016,256.948C206.102,256.604 206.29,256.328 206.585,256.123C205.749,255.971 205.07,255.754 204.546,255.478C203.695,255.03 202.807,254.32 201.888,253.337C200.516,251.87 199.87,250.033 199.97,247.82C200.042,246.201 200.504,244.683 201.359,243.268C196.634,244.337 193.18,243.752 190.982,241.652ZM202.504,293.509L195.447,293.184L191.358,297.567L189.212,291.301L183.182,288.507L188.858,285.008L189.565,278.948L194.77,282.891L201.006,281.098L198.946,288.154L202.504,293.509ZM92.631,293.39L89.278,293.213L87.308,295.331L86.279,292.331L83.396,291.007L86.132,289.332L86.455,286.419L88.926,288.302L91.926,287.449L90.927,290.83L92.631,293.39ZM95.661,275.126L103.66,275.774L102.836,292.331L98.924,294.566L95.807,289.772L98.543,281.596L89.338,283.271L95.661,275.126ZM237.072,281.172C236.584,281.259 236.116,281.33 235.666,281.385C236.249,281.698 236.831,282.013 237.414,282.332C237.299,281.943 237.186,281.557 237.072,281.172ZM242.029,279.95C241.718,280.043 241.413,280.132 241.112,280.217C241.202,280.521 241.293,280.824 241.383,281.125C241.599,280.732 241.814,280.34 242.029,279.95ZM98.806,255.804L106.454,245.776L120.717,247.071L112.218,252.716L135.51,262.245L139.303,278.155L128.657,280.979L104.542,260.512L103.66,269.596L100.984,266.009L104.69,255.07L98.806,255.804ZM251.124,261.316C249.942,262.727 248.457,263.963 246.668,265.018C246.657,265.025 246.646,265.031 246.634,265.037C241.368,267.743 237.674,269.708 235.55,270.935C233.517,272.11 232.167,273.073 231.521,273.85C231.049,274.419 230.835,274.856 231.174,275.22C231.411,275.472 231.832,275.611 232.409,275.706C233.51,275.886 235.098,275.832 237.175,275.56C240.531,275.12 244.09,274.22 247.844,272.866C249.127,269.099 250.224,265.245 251.124,261.316ZM33.617,275.518L35.978,260.906L44.798,256.088L45.284,265.759L33.617,275.518ZM68.374,275.516L56.423,266.816L57.193,256.088L66.785,261.932L68.374,275.516ZM95.955,263.598C95.955,263.598 93.726,264.232 93.726,264.232C94.485,265.959 94.443,268.037 93.413,269.845L96.72,269.979C96.72,269.979 94.896,267.246 94.896,267.246L95.955,263.598ZM169.743,249.334L176.007,252.188L179.241,263.569L169.743,249.334ZM137.657,250.424L144.568,246.216L145.391,238.864L151.685,243.658L159.242,241.481L156.745,250.011L161.037,256.48L152.508,256.069L147.568,261.394L144.979,253.804L137.657,250.424ZM93.065,254.373C92.686,254.936 92.218,255.437 91.68,255.854L93.838,257.628C93.838,257.628 93.065,254.373 93.065,254.373ZM180.199,126.128L180.418,126.441C181.599,128.139 182.826,129.982 184.099,131.971C185.291,133.833 186.279,135.328 187.064,136.457C190.096,137.319 192.582,138.795 194.528,140.877C195.246,141.645 195.684,142.602 195.83,143.752C195.983,144.96 195.711,145.958 195.048,146.756C194.07,147.933 192.904,148.542 191.566,148.612C190.23,148.681 188.961,148.117 187.787,146.862C186.694,145.693 185.483,144.178 184.155,142.317C180.964,142.466 177.175,143.403 172.784,145.117C168.172,146.916 163.67,149.047 159.276,151.51C154.853,153.99 150.234,156.527 145.422,159.119C140.599,161.717 136.227,163.929 132.305,165.755C131.583,166.091 130.87,166.402 130.167,166.688C131.812,167.085 133.298,167.37 134.287,167.404C136.996,167.496 140.68,166.935 142.23,166.672C142.791,166.418 143.319,166.357 143.802,166.465C147.651,165.374 153.887,163.168 162.509,159.85C165.3,158.767 167.673,159.284 169.631,161.379C170.6,162.416 171.111,163.71 171.149,165.268C171.186,166.847 170.834,168.035 170.157,168.849C170.042,168.987 169.877,169.073 169.698,169.087C168.318,169.199 166.882,169.992 165.364,171.412C163.747,172.923 162.291,174.654 160.995,176.604C159.661,178.611 158.173,180.67 156.53,182.781C155.289,184.375 154.096,185.772 152.948,186.975C156.161,186.854 160.156,185.929 164.934,184.218C167.611,182.706 171.399,180.668 176.297,178.103C176.297,178.103 174.669,176.361 174.669,176.361C174.398,176.071 174.295,175.711 174.404,175.272C174.508,174.854 174.73,174.602 174.999,174.467L178.21,172.728C178.219,172.723 178.228,172.718 178.237,172.714C178.906,172.389 179.487,172.499 179.981,173.028C179.981,173.028 181.979,175.165 181.979,175.165C184.676,173.762 189.454,171.283 196.313,167.726C196.654,167.539 196.97,167.476 197.253,167.501C197.581,167.531 197.882,167.673 198.143,167.953C198.143,167.953 202.771,172.904 202.771,172.904C203.016,173.166 203.137,173.509 203.08,173.95C203.019,174.415 202.772,174.732 202.339,174.894C196.024,178.206 191.408,180.619 188.49,182.131C188.49,182.131 190.994,184.81 190.994,184.81C191.266,185.1 191.369,185.46 191.26,185.899C191.171,186.254 190.974,186.536 190.663,186.743C190.644,186.756 190.625,186.768 190.604,186.779L187.427,188.457C186.757,188.782 186.177,188.672 185.683,188.143C185.683,188.143 182.808,185.068 182.808,185.068C174.42,189.493 169.059,192.412 166.726,193.827C164.424,195.222 162.716,196.578 161.611,197.907C161.134,198.481 160.955,198.946 161.323,199.339C161.732,199.776 162.37,200.059 163.216,200.231C164.179,200.425 165.391,200.463 166.851,200.355C169.182,200.182 172.021,199.577 175.368,198.545C175.595,198.379 175.823,198.217 176.053,198.057C178.68,196.234 183.868,193.288 191.62,189.223C191.626,189.22 191.632,189.217 191.638,189.214C192.308,188.889 192.889,188.999 193.383,189.527C193.383,189.527 198.011,194.478 198.011,194.478C198.282,194.768 198.385,195.128 198.276,195.567C198.188,195.922 197.99,196.204 197.679,196.412C197.659,196.425 197.638,196.437 197.617,196.449C189.068,200.898 183.471,204.004 180.827,205.77C178.23,207.505 176.061,209.416 174.324,211.507C173.925,211.987 173.65,212.459 173.512,212.93C173.468,213.082 173.442,213.216 173.441,213.334C173.441,213.396 173.436,213.451 173.47,213.487C174.323,214.399 175.926,214.857 178.244,214.976C180.647,215.1 183.322,214.811 186.271,214.118C186.804,212.923 187.46,211.858 188.237,210.923C191.175,207.388 194.5,204.708 198.208,202.879C200.115,201.937 201.718,201.424 203.011,201.316C204.482,201.193 205.592,201.58 206.363,202.405C207.116,203.21 207.441,204.254 207.299,205.548C207.169,206.724 206.526,208.049 205.322,209.497C201.63,213.939 196.804,217.17 190.838,219.18C190.492,220.269 190.643,221.192 191.344,221.942C191.787,222.416 192.526,222.603 193.53,222.597C194.698,222.59 196.186,222.302 197.994,221.746C198.335,221.521 198.685,221.299 199.043,221.081C201.7,219.468 204.457,218.232 207.314,217.372C210.218,216.498 213.119,216.294 216.018,216.759C218.515,217.159 220.617,218.102 222.329,219.582C222.48,219.454 222.657,219.351 222.856,219.281L233.687,215.436C234.56,215.13 235.518,215.591 235.824,216.465L237.53,220.766C237.836,221.64 237.375,222.598 236.501,222.904L225.384,224.234C225.646,225.335 225.633,226.48 225.343,227.671C225.918,227.472 226.422,227.612 226.859,228.079C226.859,228.079 231.546,233.093 231.546,233.093C231.817,233.383 231.92,233.742 231.811,234.182C231.723,234.537 231.525,234.819 231.215,235.026C231.194,235.04 231.173,235.053 231.151,235.064C222.099,239.757 216.241,242.931 213.577,244.586C210.986,246.196 209.172,247.61 208.147,248.843C207.674,249.412 207.46,249.85 207.8,250.213C207.957,250.381 208.269,250.438 208.703,250.484C209.631,250.582 211.004,250.475 212.82,250.179C215.847,249.686 219.617,248.625 224.132,247.002L238.606,239.485C238.611,239.483 238.617,239.48 238.622,239.477C239.292,239.152 239.872,239.262 240.366,239.791C240.366,239.791 245.053,244.805 245.053,244.805C245.324,245.095 245.427,245.454 245.318,245.893C245.22,246.29 244.975,246.577 244.567,246.731C244.567,246.731 244.232,246.912 244.233,246.912C244.907,247.017 245.546,247.175 246.148,247.385C247.442,247.838 248.382,248.314 248.976,248.795C249.547,249.256 250.217,249.896 250.984,250.718C251.751,251.538 252.307,252.42 252.655,253.364C253.59,247.407 254.074,241.302 254.074,235.085C254.074,185.688 223.463,143.384 180.199,126.128ZM177.771,247.63L179.977,246.275L180.242,243.924L182.271,245.453L184.683,244.775L183.889,247.511L185.242,249.569L182.534,249.452L180.947,251.158L180.094,248.718L177.771,247.63ZM19.892,243.913L30.396,239.854L39.892,245.33L30.696,251.158L20.154,246.913C20.055,245.921 19.967,244.919 19.892,243.913ZM85.767,245.33L71.954,250.362L62.099,245.33L72.204,240.111L85.767,245.33ZM153.152,197.604L150.596,205.25L155.861,214.22L145.892,213.72L140.422,219.337L153.743,230.337L177.446,224.453L168.771,246.775L175.154,243.424L175.802,234.426L183.007,240.159L188.939,238.511C188.508,237.275 188.401,235.922 188.62,234.45C188.948,232.244 189.925,230.013 191.565,227.765C189.724,227.614 188.263,226.94 187.169,225.771C185.891,224.403 185.169,222.699 185.021,220.652C181.557,221.227 178.355,221.246 175.416,220.716C172.166,220.129 169.768,218.975 168.202,217.3C166.584,215.568 165.871,213.522 166.063,211.16C166.211,209.352 166.783,207.669 167.785,206.114C165.391,206.634 163.424,206.802 161.884,206.63C160.116,206.433 158.768,206.053 157.834,205.516C156.913,204.987 155.915,204.154 154.845,203.01C153.57,201.646 152.991,199.848 153.152,197.604ZM90.909,245.299L90.892,245.226C90.821,245.263 90.748,245.297 90.675,245.33C90.767,245.374 90.859,245.418 90.949,245.466L90.909,245.299ZM136.951,215.603L134.158,214.25L133.128,238.953L124.099,244.982L114.747,230.777L121.159,213.484L107.513,216.397L113.805,208.336L131.216,209.631L135.804,211.22L136.951,215.603ZM108.423,237.6L102.159,237.308L98.513,241.218L96.601,235.629L91.221,233.158L96.278,230.041L96.897,224.63L101.543,228.16L107.101,226.542L105.276,232.835L108.423,237.6ZM217.696,231.687C215.271,232.954 213.241,234.089 211.604,235.091C206.772,237.005 203.08,238.028 200.525,238.135C199.035,238.197 197.972,237.97 197.371,237.327C197.069,237.003 197.016,236.535 197.123,235.938C197.256,235.188 197.673,234.414 198.347,233.603C199.957,231.666 202.302,229.764 205.373,227.889C208.452,226.009 211.51,224.716 214.549,224.015C217.341,223.371 219.294,223.525 220.383,224.69C220.946,225.291 220.944,226.192 220.547,227.38C220.084,228.764 219.128,230.195 217.697,231.686L217.696,231.687ZM33.617,215.144L45.803,224.221L44.798,234.574L35.216,230.049L33.617,215.144ZM68.374,215.144L65.894,229.603L57.193,234.572L57.247,224.607L68.374,215.144ZM81.367,214.368L80.453,215.505C80.529,216.287 80.46,217.092 80.222,217.88C80.209,217.926 80.195,217.97 80.178,218.015L78.666,222.142L85.066,218.437C86.073,217.855 87.185,217.602 88.282,217.649L88.425,215.19L81.367,214.368ZM64.079,143.141L70.546,145.608L72.309,151.812L72.104,167.459L61.28,174.605L73.22,179.604L77.192,191.927L84.455,182.341L94.748,183.163L94.574,185.811L78.604,196.25L83.984,199.367L80.191,200.339L72.897,194.369L71.956,203.573L68.783,205.8L68.77,205.788C66.245,203.605 62.358,203.809 60.085,206.234C60.052,206.269 60.022,206.305 59.993,206.34L57.193,209.706L57.193,202.293C57.193,198.979 54.444,196.242 50.997,196.242C47.547,196.242 44.798,198.979 44.798,202.293L44.798,209.706L41.998,206.34C41.969,206.305 41.939,206.269 41.906,206.234C39.633,203.809 35.746,203.605 33.221,205.788C31.676,207.124 30.977,209.024 31.152,210.871C29.641,209.796 27.649,209.456 25.722,210.131C22.578,211.23 20.81,214.7 21.769,217.88C21.783,217.926 21.796,217.97 21.813,218.015L23.325,222.142L20.466,220.486C24.353,189.233 40.563,161.778 64.079,143.141ZM85.514,207.014L88.102,200.839L96.601,204.074L99.043,213.808L89.278,205.925L89.132,206.044L88.308,210.955L85.514,207.014ZM82.514,210.544L80.985,208.221L81.867,205.193L79.19,205.955L76.956,204.28L76.662,206.868L74.192,208.398L76.81,209.574L77.123,210.504C77.62,210.767 78.073,211.095 78.475,211.475L79.486,210.398L82.514,210.544ZM146.862,208.692L143.215,208.544L141.127,210.807L140.01,207.573L136.892,206.132L139.834,204.309L140.185,201.192L142.862,203.219L146.098,202.31L145.039,205.955L146.862,208.692ZM111.574,164.34L105.19,163.989L99.925,169.899L109.924,179.399L128.628,174.545L122.306,192.398L129.863,203.515L134.01,201.427L135.422,189.809L143.481,197.28L153.867,194.364C154.104,193.745 154.398,193.147 154.748,192.569L154.748,192.568C153.454,192.806 152.293,192.932 151.264,192.948C147.757,193.003 144.687,192.024 142.055,190.021C140.864,189.337 139.64,188.329 138.389,186.99C136.799,185.29 135.923,183.202 135.771,180.723C135.622,178.304 135.978,176.046 136.834,173.948L136.845,173.923C135.473,173.87 133.864,173.791 132.417,173.677C129.233,173.428 121.265,169.779 119.746,169.072C116.853,169.067 114.6,168.173 112.975,166.434C112.394,165.812 111.926,165.114 111.574,164.34ZM103.629,192.104L104.248,186.693L108.894,190.222L114.453,188.605L112.601,194.897L115.777,199.663L109.482,199.367L105.835,203.281L103.923,197.691L98.543,195.22L103.629,192.104ZM142.635,179.346C141.744,178.393 141.547,177.195 141.99,175.761C142.469,174.213 143.37,172.795 144.683,171.502C147.597,170.689 151.403,169.489 156.101,167.901C155.751,168.354 155.383,168.839 154.996,169.359C154.041,170.642 153.203,171.761 152.482,172.718C151.763,173.671 150.982,174.677 150.139,175.735C149.319,176.764 148.567,177.586 147.88,178.198C147.201,178.803 146.506,179.322 145.794,179.755C145.2,180.116 144.642,180.281 144.111,180.211C143.584,180.142 143.099,179.843 142.635,179.346ZM77.897,171.429L78.337,167.43L81.778,170.016L85.896,168.84L84.543,173.488L86.866,177.018L82.22,176.782L79.544,179.693L78.132,175.546L74.133,173.723L77.897,171.429ZM94.514,161.341L96.985,162.165L98.159,168.871L95.955,167.105L95.131,178.694L90.337,172.399L94.514,161.341ZM83.074,163.666L76.485,157.665L83.337,148.607L95.69,149.489L95.338,154.195L88.573,158.167L92.865,160.636L83.074,163.666ZM106.1,159.665L103.07,159.548L101.308,161.429L100.396,158.724L97.779,157.519L100.248,156.018L100.544,153.43L102.778,155.108L105.455,154.343L104.571,157.371L106.1,159.665ZM131.655,117.942C118.389,118.517 105.692,121.302 93.918,125.938L90.279,137.638L96.043,146.373L96.424,144.019L102.984,150.225L112.042,147.785L109.747,157.196L110.84,158.956C111.089,156.205 111.874,154.063 113.16,152.516C113.731,151.829 114.29,151.345 114.825,151.051C115.68,150.582 116.287,150.727 116.638,151.102C116.69,151.158 116.77,151.26 116.818,151.439C116.852,151.566 116.889,151.869 116.91,152.348C116.925,152.671 117.001,152.932 117.176,153.119C117.899,153.892 118.654,154.483 119.446,154.886C120.24,155.29 121.457,155.499 123.09,155.552C124.793,155.608 126.782,155.313 129.058,154.679C131.388,154.03 134.458,152.885 138.269,151.248C142.101,149.601 146.525,147.485 151.54,144.901C162.732,139.007 172.138,135.932 179.749,135.642C176.527,130.773 173.793,127.134 171.543,124.727C170.627,123.747 169.621,122.897 168.523,122.174C164.044,120.917 159.458,119.92 154.782,119.2C152.247,119.427 149.727,120.032 147.222,121.012C142.794,122.745 139.155,125.321 136.309,128.746C134.792,130.571 133.885,132.353 133.614,134.104C133.361,135.739 133.76,137.13 134.827,138.272C136.284,139.83 138.289,140.386 140.826,139.997C143.421,139.6 145.321,138.72 146.501,137.3C146.897,136.824 147.31,136.747 147.612,136.817C147.796,136.86 147.979,136.962 148.138,137.155C148.297,137.35 148.455,137.708 148.552,138.239C148.918,139.742 148.558,141.173 147.435,142.524C145.309,145.082 142.145,146.666 137.924,147.235C133.664,147.808 130.111,146.566 127.262,143.518C124.926,141.019 123.839,137.503 124.061,132.951C124.28,128.468 125.893,124.412 128.907,120.785C129.753,119.767 130.669,118.819 131.655,117.942ZM75.665,135.043C76.512,134.523 77.364,134.016 78.223,133.519L79.749,134.667L84.19,133.374L82.72,138.431L85.251,142.255L80.22,142.02L77.309,145.137L75.78,140.668L71.456,138.668L75.543,136.168L75.665,135.043ZM153.862,80.436L179.889,104.287L180.419,105.288L180.29,105.606L180.195,106.039L180.189,106.092C174.413,104.148 168.461,102.581 162.366,101.421L161.821,100.432L161.261,99.409L160.126,97.318C160.038,97.141 159.95,96.995 159.89,96.847C157.125,91.759 155.303,86.083 153.862,80.436ZM126.011,79.759C123.982,85.819 121.482,91.818 117.923,97.024L117.894,97.024C117.835,97.141 117.775,97.229 117.687,97.318C117.658,97.406 117.57,97.523 117.452,97.671L117.042,98.249L116.246,99.381L115.61,100.266L115.274,100.721C108.993,101.722 102.856,103.153 96.893,104.984L96.631,104.2L98.278,101.641L126.011,79.759ZM140.465,49.848L140.627,49.852C142.334,49.909 143.98,50.645 145.127,51.938C146.303,53.174 146.951,54.849 146.862,56.556C146.803,58.291 146.038,59.908 144.803,61.086C143.509,62.26 141.863,62.879 140.128,62.819C138.421,62.762 136.775,62.026 135.628,60.733C134.452,59.497 133.804,57.82 133.864,56.115C133.952,54.35 134.717,52.763 135.95,51.587C137.096,50.519 138.581,49.913 140.141,49.852L140.465,49.848ZM212.533,14.49L212.739,14.493C220.061,14.64 222.354,22.1 218.297,30.998C205.399,42.147 189.145,48.573 172.115,49.219L171.713,49.233C178.065,33.087 191.329,20.618 207.857,15.296C209.586,14.744 211.148,14.488 212.533,14.49ZM70.673,9.257C72.254,9.253 74.061,9.626 76.074,10.442C92.16,16.971 104.454,30.352 109.63,46.91C92.543,45.117 76.633,37.47 64.545,25.293C61.224,16.382 63.823,9.274 70.673,9.257Z" style="fill:none;stroke:rgb(255,0,0);stroke-width:1px;"/>
</svg>
