<?xml version="1.0" encoding="UTF-8" standalone="no"?>
<!DOCTYPE svg PUBLIC "-//W3C//DTD SVG 1.1//EN" "http://www.w3.org/Graphics/SVG/1.1/DTD/svg11.dtd">
<svg width="100%" height="100%" viewBox="0 0 1123 794" version="1.1" xmlns="http://www.w3.org/2000/svg" xmlns:xlink="http://www.w3.org/1999/xlink" xml:space="preserve" xmlns:serif="http://www.serif.com/" style="fill-rule:evenodd;clip-rule:evenodd;stroke-linejoin:round;stroke-miterlimit:2;">
    <path d="M0.763,233.654C1.257,185.132 27.188,142.701 65.84,118.992C65.398,118.817 65.044,118.669 64.75,118.492L64.722,118.492C55.281,115.374 48.341,108.758 41.958,101.287C30.577,85.318 46.666,69.791 47.751,53.967C48.723,40.557 42.782,25.706 49.694,12.56C53.84,3.853 62.664,0.531 72.427,0.768C81.014,1.208 89.338,4.267 95.161,8.707C107.57,18.236 119.159,31.999 128.776,45.146C128.776,44.116 130.394,42.292 132.157,41.293C133.276,40.617 134.598,40.263 136.01,40.263L144.597,40.263C146.422,40.263 148.067,40.88 149.422,41.91C150.863,43.057 151.891,44.704 152.273,46.587C152.802,46.587 182.859,16.178 188.975,12.177C195.124,8.148 203.623,5.737 212.21,5.942C221.975,6.413 230.502,10.413 234.032,19.412C239.942,32.998 232.913,47.381 232.854,60.821C232.825,76.702 247.707,93.348 235.179,108.435C229.972,113.729 222.856,118.846 215.857,121.903L215.797,121.903C215.417,122.021 214.603,122.283 213.44,122.66C235.706,137.872 253.229,159.522 263.318,184.913L263.635,185.717C269.445,200.605 272.705,216.771 272.875,233.676L272.882,235.085L272.88,235.812L272.866,237.183L272.848,238.157L272.816,239.357L272.777,240.461C272.271,253.525 269.932,266.101 265.999,277.951C265.659,278.997 265.294,280.017 264.925,281.008L264.5,282.186C263.205,285.714 261.764,289.155 260.177,292.537C259.764,293.448 259.353,294.331 258.911,295.213C258.206,296.654 257.441,298.096 256.707,299.508C256.647,299.565 256.619,299.654 256.588,299.713C255.177,302.329 253.677,304.919 252.09,307.419C251.717,307.987 251.375,308.559 250.98,309.103L250.882,309.252C250.472,309.92 250.043,310.551 249.594,311.192L249.354,311.546L249.354,311.565C249.088,312.005 248.794,312.416 248.472,312.829C245.795,316.713 242.913,320.415 239.854,323.976C215.151,352.578 178.758,370.759 138.144,371.142L136.819,371.148C133.222,371.148 129.657,371.008 126.124,370.733C59.482,365.554 6.326,312.384 1.167,245.731C0.895,242.217 0.756,238.667 0.756,235.085L0.763,233.654ZM28.751,280.397C40.488,308.332 62.752,330.776 90.57,342.754C86.43,339.961 82.52,336.774 78.888,333.213C75.47,329.86 75.47,324.406 78.888,321.053C82.307,317.7 87.87,317.7 91.289,321.053C93.511,323.232 95.866,325.23 98.335,327.046C102.763,312.408 102.398,299.836 101.771,293.577L92.474,300.653C89.142,303.191 84.772,303.273 81.343,300.862C77.913,298.45 76.589,294.365 77.972,290.454L85.343,269.604L86.265,255.979C86.324,255.115 86.821,254.338 87.589,253.91C88.356,253.482 89.292,253.461 90.078,253.854C90.199,253.915 91.551,254.595 93.379,255.698L90.219,242.394L72.795,235.617L73.743,234.921L60.959,228.962L55.458,232.149L69.292,238.586L62.38,242.58L48.557,236.132L40.419,240.826L51.529,246.478L40.419,252.14L48.557,256.834L62.38,250.385L69.292,254.369L55.458,260.817L60.959,263.993L74.793,257.544L81.694,261.528L67.871,267.976L78.895,274.349C80.197,275.092 80.639,276.761 79.885,278.064C79.131,279.377 77.474,279.818 76.16,279.065L65.136,272.702L66.471,287.903L59.571,283.92L58.236,268.719L52.734,265.532L54.059,280.733L47.158,276.75L45.834,261.549L37.695,256.856L38.352,269.3L27.898,262.507L27.898,271.906L40.397,280.658L40.397,288.624L28.794,280.5L28.751,280.397ZM233.012,301.959C231.873,301.683 230.731,301.431 229.591,301.155C226.915,302.799 224.267,304.448 221.621,306.066C220.62,306.683 219.327,306.417 218.65,305.447C218.445,305.153 218.326,304.8 218.297,304.448L200.475,303.418L187.72,318.623C190.354,318.261 193.125,319.071 195.146,321.053C196.802,322.677 197.715,324.836 197.714,327.133C197.714,329.43 196.802,331.589 195.146,333.213C191.721,336.571 188.049,339.597 184.169,342.273C198.375,335.983 211.1,326.95 221.671,315.847C221.653,315.726 221.646,315.602 221.65,315.475C221.681,314.328 222.62,313.389 223.767,313.36L223.978,313.353C224.787,312.453 225.583,311.54 226.362,310.616C224.439,310.455 223.754,307.872 225.474,306.802C227.928,305.293 230.355,303.762 232.807,302.252L233.012,301.959ZM152.231,328.2C153.857,330.702 156.365,333.727 158.432,336.092C151.639,338.426 144.423,339.645 137.018,339.645C130.424,339.645 123.98,338.678 117.851,336.819L122.432,328.338C127.245,329.627 139.269,332.015 152.231,328.2ZM177.773,297.679C179.293,301.583 178.384,304.766 175.569,303.113C175.843,310.356 177.192,319.266 178.76,324.648C180.13,323.509 181.461,322.312 182.746,321.053C183.762,320.056 184.968,319.356 186.251,318.952L181.093,299.3L177.773,297.679ZM223.767,299.771C222.62,300.476 221.444,301.212 220.268,301.948L218.827,299.713C219.267,299.448 219.709,299.183 220.151,298.889C221.356,299.183 222.561,299.477 223.767,299.771ZM191.533,240.185L189.181,246.452L193.977,254.57L184.8,253.892L181.418,258.158L196.505,270.363L217.563,265.832L210.092,286.304L214.679,293.332C214.886,293.39 215.092,293.448 215.297,293.478C215.003,293.008 214.709,292.537 214.444,292.068C213.827,291.067 214.15,289.772 215.209,289.213C216.208,288.655 217.503,289.009 218.12,289.979C219.121,291.624 220.12,293.244 221.091,294.862C222.326,295.154 223.533,295.448 224.738,295.744C223.798,294.214 222.885,292.712 221.975,291.213C221.356,290.183 221.681,288.89 222.737,288.331C223.738,287.802 225.032,288.125 225.65,289.124C227.268,291.772 228.915,294.449 230.531,297.123C231.737,297.39 232.973,297.682 234.178,297.978C232.591,295.39 231.002,292.802 229.414,290.214C228.325,288.419 230.296,286.304 232.178,287.303C232.847,287.663 233.514,288.023 234.18,288.383L238.176,290.544C238.654,290.802 239.133,291.061 239.613,291.319C239.716,291.13 239.819,290.941 239.922,290.753C239.654,289.848 239.386,288.951 239.12,288.037C236.355,286.567 233.619,285.068 230.856,283.596C229.854,283.068 229.414,281.773 229.914,280.745C230.414,279.657 231.678,279.244 232.737,279.803C234.297,280.656 235.855,281.479 237.414,282.332C237.1,281.263 236.789,280.218 236.476,279.157C234.414,279.504 232.693,279.561 231.316,279.34C229.506,279.048 228.137,278.623 227.202,278.085C226.27,277.549 225.321,276.771 224.362,275.745C223.006,274.295 222.398,272.592 222.534,270.638C222.665,268.752 223.493,266.866 225.048,264.995C226.197,263.612 227.435,262.45 228.759,261.506C230.053,260.584 232.59,259.155 236.387,257.22C240.43,254.971 243.082,253.122 244.319,251.643C244.602,251.305 244.805,250.994 244.917,250.703C245.021,250.43 245.036,250.188 244.917,249.972C244.193,249.248 242.743,248.944 240.605,248.917C238.246,248.887 235.423,249.468 232.133,250.645L212.107,261.047C212.101,261.05 212.096,261.053 212.09,261.055C211.395,261.393 210.835,261.273 210.395,260.803C210.395,260.803 205.661,255.738 205.661,255.738C205.389,255.447 205.285,255.086 205.395,254.645C205.482,254.293 205.676,254.013 205.98,253.806C205.128,253.652 204.438,253.432 203.906,253.152C203.047,252.7 202.15,251.982 201.222,250.99C199.838,249.509 199.186,247.656 199.286,245.422C199.36,243.782 199.829,242.245 200.697,240.812C196.782,241.701 193.73,241.467 191.533,240.185ZM202.504,293.509L195.447,293.184L191.358,297.567L189.212,291.301L183.182,288.507L188.858,285.008L189.565,278.948L194.77,282.891L201.006,281.098L198.946,288.154L202.504,293.509ZM144.712,285.874L145.927,285.831C153.666,285.755 159.844,286.382 165.152,287.752L177.948,279.302L179.124,269.362L157.803,267.421L144.712,285.874ZM96.372,257.636C97.666,258.539 98.998,259.563 100.194,260.664C108.144,261.53 115.866,266.542 122.586,275.216C126.172,279.845 128.6,284.364 129.777,286.756C132.882,286.467 135.79,286.245 138.527,286.09L139.258,286.065L135.51,262.245L112.218,252.716L120.717,247.071L106.454,245.776L96.372,257.636ZM243.45,277.347C242.423,277.681 241.447,277.976 240.522,278.232L241.383,281.125C242.078,279.858 242.772,278.609 243.45,277.347ZM94.108,273.251C95.738,273.251 97.061,274.548 97.061,276.146C97.061,277.744 95.738,279.041 94.108,279.041C92.479,279.041 91.156,277.744 91.156,276.146C91.156,274.548 92.479,273.251 94.108,273.251ZM251.754,257.931C251.53,258.303 251.275,258.662 250.988,259.008C249.788,260.451 248.277,261.713 246.452,262.79C246.441,262.796 246.429,262.803 246.418,262.808C241.098,265.542 237.366,267.528 235.22,268.767C233.165,269.954 231.802,270.928 231.149,271.713C230.668,272.291 230.453,272.736 230.798,273.106C231.038,273.362 231.464,273.503 232.05,273.599C233.162,273.781 234.767,273.726 236.866,273.452C240.451,272.982 244.265,271.993 248.299,270.491C248.391,270.448 248.477,270.419 248.558,270.402C249.844,266.337 250.914,262.175 251.754,257.931ZM169.743,249.334L176.007,252.188L179.241,263.569L169.743,249.334ZM137.657,250.424L144.568,246.216L145.391,238.864L151.685,243.658L159.242,241.481L156.745,250.011L161.037,256.48L152.508,256.069L147.568,261.394L144.979,253.804L137.657,250.424ZM182.437,127.146C182.703,127.555 182.971,127.97 183.241,128.392C184.446,130.274 185.445,131.785 186.238,132.926C189.3,133.797 191.812,135.288 193.777,137.39C194.501,138.165 194.943,139.131 195.091,140.291C195.246,141.509 194.971,142.516 194.302,143.32C193.315,144.508 192.14,145.123 190.79,145.193C189.442,145.263 188.161,144.694 186.977,143.427C185.873,142.246 184.649,140.715 183.306,138.834C180.082,138.983 176.252,139.931 171.814,141.662C167.155,143.48 162.606,145.633 158.167,148.122C153.698,150.627 149.033,153.189 144.171,155.808C139.3,158.433 134.883,160.667 130.921,162.512C130.504,162.706 130.091,162.892 129.68,163.069C133.616,163.912 138.414,164.102 141.747,163.162C141.83,163.167 141.912,163.175 141.993,163.184C142.179,163.18 142.362,163.2 142.54,163.242C146.428,162.14 152.728,159.911 161.439,156.559C164.255,155.466 166.65,155.987 168.626,158.101C169.604,159.148 170.12,160.454 170.157,162.026C170.195,163.619 169.84,164.818 169.157,165.639C169.042,165.777 168.877,165.863 168.698,165.878C167.302,165.991 165.851,166.792 164.315,168.228C162.682,169.755 161.21,171.504 159.901,173.474C158.554,175.501 157.05,177.581 155.39,179.714C154.133,181.329 152.924,182.745 151.761,183.962C155.011,183.843 159.053,182.908 163.889,181.175C166.595,179.648 170.424,177.587 175.376,174.994C175.376,174.994 173.726,173.228 173.726,173.228C173.453,172.936 173.35,172.575 173.459,172.134C173.564,171.714 173.787,171.461 174.057,171.325L177.301,169.568C177.31,169.563 177.318,169.559 177.327,169.554C178.001,169.228 178.585,169.338 179.082,169.87C179.082,169.87 181.103,172.032 181.103,172.032C183.828,170.616 188.656,168.111 195.589,164.516C195.932,164.327 196.25,164.263 196.535,164.289C196.865,164.319 197.167,164.462 197.429,164.743C197.429,164.743 202.105,169.744 202.105,169.744C202.351,170.008 202.473,170.353 202.415,170.795C202.353,171.263 202.106,171.581 201.671,171.744C195.285,175.094 190.619,177.532 187.672,179.06C187.672,179.06 190.208,181.772 190.208,181.772C190.48,182.064 190.583,182.425 190.474,182.866C190.385,183.223 190.187,183.507 189.875,183.715C189.855,183.728 189.836,183.74 189.816,183.75L186.606,185.446C185.932,185.773 185.348,185.662 184.852,185.131C184.852,185.131 181.944,182.02 181.944,182.02C173.467,186.492 168.05,189.441 165.693,190.871C163.366,192.281 161.64,193.651 160.524,194.994C160.039,195.578 159.86,196.05 160.233,196.45C160.647,196.893 161.293,197.179 162.15,197.353C163.122,197.549 164.347,197.588 165.823,197.479C168.178,197.304 171.047,196.692 174.43,195.649C174.659,195.482 174.89,195.317 175.122,195.156C177.776,193.314 183.017,190.338 190.847,186.232C190.854,186.229 190.86,186.225 190.866,186.222C191.54,185.896 192.124,186.006 192.62,186.538C192.62,186.538 197.296,191.539 197.296,191.539C197.568,191.831 197.671,192.192 197.562,192.633C197.473,192.99 197.274,193.274 196.962,193.482C196.942,193.496 196.921,193.508 196.9,193.519C188.263,198.014 182.608,201.152 179.937,202.937C177.313,204.69 175.122,206.621 173.367,208.733C172.963,209.219 172.685,209.697 172.545,210.174C172.5,210.327 172.474,210.463 172.473,210.583C172.473,210.648 172.469,210.704 172.504,210.742C173.366,211.665 174.988,212.129 177.332,212.249C179.761,212.374 182.465,212.082 185.445,211.381C185.984,210.173 186.647,209.097 187.432,208.152C190.4,204.581 193.758,201.875 197.502,200.027C199.428,199.077 201.047,198.558 202.352,198.449C203.836,198.325 204.956,198.715 205.734,199.547C206.493,200.359 206.821,201.412 206.677,202.717C206.546,203.904 205.897,205.241 204.682,206.702C200.952,211.19 196.076,214.453 190.049,216.484C189.698,217.588 189.85,218.523 190.561,219.283C190.907,219.654 191.44,219.849 192.137,219.919C193.389,220.046 195.104,219.758 197.286,219.088C197.631,218.86 197.985,218.636 198.348,218.415C201.031,216.786 203.815,215.537 206.701,214.669C209.633,213.786 212.563,213.58 215.491,214.049C217.948,214.443 220.027,215.358 221.731,216.788L230.122,212.854C231.054,212.418 232.198,212.891 232.676,213.91L234.407,217.605C234.885,218.624 234.517,219.806 233.585,220.243L224.953,221.623C225.212,222.729 225.195,223.881 224.903,225.077C225.485,224.871 225.996,225.011 226.439,225.484C226.439,225.484 231.173,230.549 231.173,230.549C231.446,230.84 231.549,231.201 231.439,231.642C231.351,231.999 231.152,232.283 230.84,232.492C230.82,232.505 230.798,232.518 230.777,232.529C221.632,237.271 215.713,240.477 213.022,242.149C210.405,243.776 208.571,245.205 207.535,246.451C207.054,247.029 206.839,247.474 207.185,247.844C207.344,248.015 207.661,248.073 208.101,248.119C209.04,248.218 210.427,248.11 212.262,247.811C215.321,247.313 219.13,246.242 223.691,244.601L238.314,237.008C238.319,237.005 238.325,237.002 238.33,237C239.004,236.673 239.587,236.784 240.084,237.315C240.084,237.315 244.819,242.38 244.819,242.38C245.091,242.671 245.194,243.032 245.085,243.473C244.986,243.872 244.74,244.16 244.329,244.315C244.329,244.315 243.973,244.508 243.975,244.508C244.662,244.614 245.314,244.774 245.928,244.989C247.234,245.445 248.182,245.926 248.783,246.412C249.359,246.877 250.036,247.524 250.811,248.353C251.836,249.45 252.489,250.658 252.773,251.975C253.571,246.461 253.984,240.821 253.984,235.085C253.984,186.599 224.469,144.952 182.437,127.146ZM152.746,198.819L150.596,205.25L155.861,214.22L145.892,213.72L140.422,219.337L153.743,230.337L177.446,224.453L168.771,246.775L175.154,243.424L175.802,234.426L183.007,240.159L189.459,238.367C188,236.549 187.452,234.399 187.821,231.916C188.153,229.686 189.142,227.43 190.802,225.156C188.938,225.006 187.459,224.325 186.354,223.142C185.061,221.76 184.333,220.037 184.184,217.968C180.683,218.55 177.447,218.57 174.477,218.034C171.195,217.441 168.774,216.277 167.192,214.585C165.559,212.837 164.839,210.771 165.034,208.388C165.183,206.557 165.764,204.853 166.781,203.279C164.356,203.808 162.364,203.978 160.806,203.804C159.02,203.605 157.659,203.221 156.716,202.679C155.787,202.145 154.779,201.305 153.699,200.149C153.32,199.744 153.002,199.3 152.746,198.819ZM136.951,215.603L134.158,214.25L133.128,238.953L124.099,244.982L114.747,230.777L121.159,213.484L107.513,216.397L113.805,208.336L131.216,209.631L135.804,211.22L136.951,215.603ZM108.423,237.6L102.159,237.308L98.513,241.218L96.601,235.629L91.221,233.158L96.278,230.041L96.897,224.63L101.543,228.16L107.101,226.542L105.276,232.835L108.423,237.6ZM27.866,191.94L27.866,191.939C35.519,172.65 48.152,155.866 64.177,143.178L70.546,145.608L72.309,151.812L72.104,167.459L61.28,174.605L73.22,179.604L77.192,191.927L84.455,182.341L94.748,183.163L94.574,185.811L78.604,196.25L83.984,199.367L80.191,200.339L72.897,194.369L71.956,203.573L66.25,207.577L66.471,205.063L59.571,209.046L58.236,224.247L52.734,227.423L54.059,212.222L47.158,216.205L45.834,231.406L37.695,236.1L38.352,223.655L27.898,230.448L27.898,221.06L40.397,212.308L40.397,204.331L27.898,213.083L27.898,206.731L40.397,197.979L40.397,190.013L27.898,198.754L27.898,191.859C27.888,191.886 27.877,191.913 27.866,191.94ZM217.192,229.129C214.741,230.41 212.689,231.556 211.036,232.568C206.153,234.502 202.423,235.536 199.841,235.644C198.333,235.707 197.258,235.477 196.65,234.826C196.343,234.498 196.289,234.022 196.397,233.417C196.532,232.658 196.953,231.875 197.635,231.055C199.262,229.097 201.631,227.176 204.735,225.281C207.846,223.382 210.936,222.075 214.006,221.367C216.83,220.716 218.806,220.872 219.907,222.05C220.476,222.659 220.476,223.572 220.074,224.775C219.606,226.174 218.639,227.62 217.193,229.128L217.192,229.129ZM79.742,230.517L67.871,224.979L75.44,220.61L75.691,221.425L81.367,214.368L88.425,215.19L87.866,224.809L84.955,226.69L79.742,230.517ZM20.912,219.942L20.907,219.979L22.451,221.06L22.451,230.448L19.829,228.744C19.884,228.366 20.271,224.663 20.907,219.979L20.855,219.942L20.912,219.942ZM19.829,228.744C19.826,228.765 19.824,228.776 19.823,228.776C19.822,228.775 19.822,228.764 19.823,228.74L19.829,228.744ZM65.136,220.264L73.789,215.262L72.986,212.661L66.093,209.374L65.136,220.264ZM96.601,204.074L99.043,213.808L89.278,205.925L89.132,206.044L88.308,210.955L85.514,207.014L88.102,200.839L96.601,204.074ZM82.514,210.544L79.486,210.398L77.72,212.279L76.81,209.574L74.192,208.398L76.662,206.868L76.956,204.28L79.19,205.955L81.867,205.193L80.985,208.221L82.514,210.544ZM112.831,164.409L105.19,163.989L99.925,169.899L109.924,179.399L128.628,174.545L122.306,192.398L129.863,203.515L134.01,201.427L135.422,189.809L143.481,197.28L151.978,194.894C151.986,194.724 152,194.552 152.017,194.376C152.19,192.654 152.72,191.06 153.61,189.596L153.61,189.595C152.297,189.838 151.119,189.966 150.076,189.982C146.535,190.038 143.435,189.049 140.777,187.026C139.574,186.336 138.338,185.318 137.074,183.966C135.469,182.249 134.585,180.141 134.431,177.638C134.281,175.196 134.641,172.916 135.505,170.798C135.855,169.942 136.243,169.128 136.671,168.356C132.089,167.759 125.962,166.516 121.882,165.498C121.139,165.63 120.409,165.729 119.692,165.794C116.886,166.05 114.603,165.577 112.831,164.409ZM115.777,199.663L109.482,199.367L105.835,203.281L103.923,197.691L98.543,195.22L103.629,192.104L104.248,186.693L108.894,190.222L114.453,188.605L112.601,194.897L115.777,199.663ZM77.897,171.429L78.337,167.43L81.778,170.016L85.896,168.84L84.543,173.488L86.866,177.018L82.22,176.782L79.544,179.693L78.132,175.546L74.133,173.723L77.897,171.429ZM94.514,161.341L96.985,162.165L98.159,168.871L95.955,167.105L95.131,178.694L90.337,172.399L94.514,161.341ZM141.354,176.253C140.452,175.288 140.253,174.075 140.701,172.624C141.186,171.059 142.096,169.625 143.424,168.317C146.373,167.495 150.225,166.28 154.981,164.672C154.625,165.135 154.248,165.631 153.852,166.163C152.887,167.459 152.04,168.59 151.312,169.556C150.586,170.519 149.797,171.535 148.945,172.605C148.117,173.644 147.357,174.475 146.662,175.094C145.976,175.705 145.273,176.23 144.554,176.667C143.952,177.032 143.387,177.199 142.85,177.129C142.316,177.059 141.824,176.755 141.354,176.253L141.354,176.253ZM83.074,163.666L76.485,157.665L83.337,148.607L95.69,149.489L95.338,154.195L88.573,158.167L92.865,160.636L83.074,163.666ZM106.1,159.665L103.07,159.548L101.308,161.429L100.396,158.724L97.779,157.519L100.248,156.018L100.544,153.43L102.778,155.108L105.455,154.343L104.571,157.371L106.1,159.665ZM144.065,118.141C140.45,119.848 137.415,122.176 134.963,125.127C133.43,126.972 132.513,128.773 132.239,130.543C131.983,132.197 132.387,133.604 133.467,134.759C134.939,136.334 136.967,136.897 139.533,136.504C142.156,136.102 144.077,135.212 145.27,133.777C145.668,133.298 146.082,133.22 146.385,133.291C146.57,133.334 146.754,133.436 146.913,133.631C147.073,133.826 147.233,134.187 147.33,134.722C147.699,136.238 147.335,137.682 146.203,139.045C144.056,141.628 140.862,143.228 136.599,143.802C132.298,144.381 128.71,143.127 125.834,140.05L125.834,140.049C123.475,137.526 122.378,133.975 122.602,129.379C122.798,125.37 124.098,121.699 126.506,118.368C115.088,119.366 104.135,122.005 93.883,126.049L90.279,137.638L96.043,146.373L96.424,144.019L102.984,150.225L112.042,147.785L111.757,148.951C112.275,148.361 112.782,147.937 113.269,147.67C114.128,147.198 114.739,147.342 115.092,147.72C115.144,147.776 115.224,147.879 115.272,148.057C115.306,148.186 115.343,148.491 115.365,148.974C115.38,149.302 115.457,149.568 115.635,149.758C116.366,150.539 117.13,151.137 117.93,151.544C118.733,151.952 119.963,152.164 121.614,152.218C123.335,152.274 125.345,151.976 127.645,151.336C130,150.68 133.101,149.523 136.951,147.869C140.823,146.205 145.292,144.068 150.358,141.457C161.669,135.501 171.175,132.394 178.864,132.103C176.56,128.62 174.502,125.76 172.69,123.522C163.587,120.593 153.993,118.747 144.065,118.141ZM75.653,135.155C76.528,134.618 77.411,134.092 78.301,133.577L79.749,134.667L84.19,133.374L82.72,138.431L85.251,142.255L80.22,142.02L77.309,145.137L75.78,140.668L71.456,138.668L75.543,136.168L75.653,135.155ZM180.189,106.092C174.413,104.148 168.461,102.581 162.366,101.421C161.639,100.11 160.883,98.715 160.126,97.318C160.038,97.141 159.95,96.995 159.89,96.847C157.125,91.759 155.303,86.083 153.862,80.436L179.889,104.287L180.419,105.288C180.419,105.288 180.253,105.564 180.189,106.092ZM115.274,100.721C108.993,101.722 102.856,103.153 96.893,104.984L96.631,104.2L98.278,101.641L126.011,79.759C123.982,85.819 121.482,91.818 117.923,97.024L117.894,97.024C117.835,97.141 117.775,97.229 117.687,97.318C117.658,97.406 117.57,97.523 117.452,97.671C116.986,98.312 116.204,99.471 115.274,100.721ZM135.95,51.587C137.215,50.409 138.892,49.792 140.627,49.852C142.334,49.909 143.98,50.645 145.127,51.938C146.303,53.174 146.951,54.849 146.862,56.556C146.803,58.291 146.038,59.908 144.803,61.086C143.509,62.26 141.863,62.879 140.128,62.819C138.421,62.762 136.775,62.026 135.628,60.733C134.452,59.497 133.804,57.82 133.864,56.115C133.952,54.35 134.717,52.763 135.95,51.587ZM207.857,15.296C218.916,11.766 223.15,20.353 218.297,30.998C205.298,42.235 188.889,48.674 171.713,49.233C178.065,33.087 191.329,20.618 207.857,15.296ZM64.545,25.293C60.458,14.325 65.338,6.09 76.074,10.442C92.16,16.971 104.454,30.352 109.63,46.91C92.543,45.117 76.633,37.47 64.545,25.293Z" style="fill:none;stroke:rgb(255,0,0);stroke-width:1px;"/>
</svg>
