<?xml version="1.0" encoding="UTF-8" standalone="no"?>
<!DOCTYPE svg PUBLIC "-//W3C//DTD SVG 1.1//EN" "http://www.w3.org/Graphics/SVG/1.1/DTD/svg11.dtd">
<svg width="100%" height="100%" viewBox="0 0 1123 794" version="1.1" xmlns="http://www.w3.org/2000/svg" xmlns:xlink="http://www.w3.org/1999/xlink" xml:space="preserve" xmlns:serif="http://www.serif.com/" style="fill-rule:evenodd;clip-rule:evenodd;stroke-linejoin:round;stroke-miterlimit:2;">
    <path d="M144.768,40.265C146.525,40.302 148.11,40.912 149.422,41.91C150.863,43.057 151.891,44.704 152.273,46.587C152.802,46.587 182.859,16.178 188.975,12.177C194.836,8.337 202.831,5.966 211.003,5.93C211.404,5.929 211.807,5.932 212.21,5.942C221.975,6.413 230.502,10.413 234.032,19.412C239.942,32.998 232.913,47.381 232.854,60.821C232.825,76.702 247.707,93.348 235.179,108.435C229.972,113.729 222.856,118.846 215.857,121.903L215.797,121.903L214.909,122.185L213.44,122.66C235.271,137.575 252.544,158.68 262.718,183.428L263.146,184.482L263.635,185.717L264.183,187.147L264.715,188.58L264.956,189.247L265.465,190.694L265.958,192.147L266.475,193.735L266.941,195.223L267.39,196.719L267.822,198.222L268.318,200.033L268.765,201.757L269.14,203.283L269.499,204.816L269.84,206.356L270.097,207.582L270.267,208.418L270.567,209.973L270.849,211.533L271.113,213.1L271.309,214.338L271.419,215.073L271.66,216.779L271.864,218.366L272.05,219.958L272.182,221.204L272.257,221.958L272.366,223.158L272.397,223.517L272.519,225.075L272.624,226.63L272.71,228.177L272.746,228.945L272.807,230.524L272.85,232.102C272.861,232.627 272.87,233.152 272.875,233.676L272.882,235.204L272.88,235.812C272.877,236.27 272.873,236.727 272.866,237.183L272.845,238.277C272.836,238.637 272.827,238.997 272.816,239.357L272.77,240.666L272.707,242.056L272.66,242.916C272.616,243.693 272.566,244.469 272.509,245.242L272.378,246.891L272.235,248.448L272.115,249.632L271.964,250.996L271.773,252.558L271.607,253.813L271.429,255.064L271.176,256.717L270.983,257.897L270.743,259.275L270.405,261.091L270.108,262.584L269.863,263.752L269.428,265.714L269.074,267.212L268.795,268.344L268.42,269.801L268.042,271.21L267.725,272.344L267.361,273.601L266.892,275.16L266.363,276.838L265.822,278.487L265.452,279.56L265.025,280.738L264.863,281.178C264.752,281.514 264.639,281.848 264.5,282.186C263.205,285.714 261.764,289.155 260.177,292.537C259.764,293.448 259.353,294.331 258.911,295.213C258.206,296.654 257.441,298.096 256.707,299.508C256.647,299.565 256.619,299.654 256.588,299.713C255.177,302.329 253.677,304.919 252.09,307.419L251.385,308.513L250.98,309.103L250.316,310.136L249.767,310.943L249.354,311.546L249.354,311.565C249.088,312.005 248.794,312.416 248.472,312.829C247.32,314.5 246.13,316.138 244.904,317.745L244.816,317.86C243.221,319.948 241.565,321.984 239.854,323.976L239.073,324.871L238.079,325.991L237.478,326.655L236.874,327.314L236.265,327.97L235.652,328.622L235.034,329.27L234.413,329.913L233.787,330.553L233.157,331.188L232.523,331.819L231.885,332.446L231.243,333.069L230.597,333.688L229.946,334.303L229.292,334.913L228.634,335.519L227.305,336.718L225.961,337.9L224.601,339.064L223.226,340.21L221.835,341.339L220.43,342.45L219.251,343.358L218.294,344.082L217.12,344.95L216.125,345.672L214.957,346.501L213.924,347.22L212.763,348.011L211.691,348.725L210.538,349.478L209.428,350.187L208.283,350.903L207.134,351.605L205.999,352.284L204.81,352.979L203.686,353.621L202.128,354.488L200.557,355.336L199.718,355.777L198.921,356.19L198.122,356.597L197.319,356.999L196.514,357.396L195.706,357.788L194.894,358.175L194.08,358.556L193.263,358.932L192.443,359.303L191.621,359.668L190.795,360.029L189.967,360.383L189.136,360.733L188.303,361.077L187.466,361.416L186.627,361.749L185.472,362.197L184.208,362.674L183.508,362.932C175.658,365.798 167.471,367.962 159.021,369.348L157.605,369.572L156.197,369.781L154.318,370.035L152.436,370.263L150.549,370.465L148.516,370.653L146.646,370.8L144.654,370.927L142.787,371.02L140.923,371.087L139.53,371.121L138.144,371.142L136.819,371.148L135.472,371.141L135.01,371.136L133.308,371.103L132.116,371.068L131.571,371.048C131.011,371.027 130.452,371.002 129.893,370.974L128.91,370.921L128.07,370.87L126.787,370.783L125.344,370.67L124.595,370.605L123.757,370.528L122.78,370.431L121.461,370.29L119.917,370.108L119.147,370.01L118.622,369.94C61.059,362.253 14.891,318.582 3.474,262.277L3.239,261.09L2.955,259.579L2.689,258.062L2.439,256.54L2.206,255.012L1.989,253.478L1.79,251.939L1.609,250.395L1.444,248.846L1.295,247.267L1.199,246.139L1.071,244.412L1.03,243.782L0.93,242.013L0.887,241.098L0.867,240.61L0.814,239.101L0.782,237.765L0.762,236.427L0.756,235.069L0.761,233.92L0.78,232.504L0.814,231.055L0.874,229.343L0.941,227.924L1.04,226.215L1.16,224.51L1.339,222.399L1.503,220.733L1.754,218.52L1.965,216.867L2.116,215.769L2.36,214.126L2.623,212.491L2.832,211.276L3.004,210.32L3.25,209.022L3.391,208.305L3.7,206.805L3.847,206.115L4.228,204.413L4.525,203.156L4.699,202.441L5.07,200.971L5.248,200.286L5.705,198.602L6.047,197.393L6.255,196.679L6.685,195.245L7.142,193.78L7.652,192.213L8.179,190.657L8.724,189.112L9.286,187.576L9.865,186.051L10.462,184.535L11.076,183.028L11.589,181.809L12.228,180.334L12.884,178.867L13.557,177.41L14.247,175.963L14.953,174.524L15.675,173.096L16.414,171.677L17.169,170.268L17.681,169.334L18.2,168.404L18.727,167.479L19.26,166.559L19.8,165.643L20.347,164.732L20.901,163.825L21.462,162.923L21.995,162.081C24.011,158.918 26.155,155.843 28.418,152.865L29.105,151.969L30.119,150.673L31.137,149.404L32.163,148.156L33.2,146.924L34.249,145.708L35.309,144.506L36.64,143.037L37.833,141.756L39.206,140.322L40.549,138.958L41.845,137.678L43.198,136.376L44.743,134.932L46.31,133.513L47.5,132.464L48.702,131.429L49.916,130.407L51.142,129.4L52.38,128.406L53.63,127.427L54.892,126.462L56.165,125.511L57.449,124.575L58.745,123.654L60.052,122.747L61.369,121.855L62.698,120.978L64.037,120.117L64.936,119.551L65.84,118.992C65.398,118.817 65.044,118.669 64.75,118.492L64.722,118.492C55.281,115.374 48.341,108.758 41.958,101.287C30.577,85.318 46.666,69.791 47.751,53.967C48.723,40.557 42.782,25.706 49.694,12.56C53.84,3.853 62.664,0.531 72.427,0.768C81.014,1.208 89.338,4.267 95.161,8.707C107.57,18.236 119.159,31.999 128.776,45.146C128.776,44.116 130.394,42.292 132.157,41.293C133.276,40.617 134.598,40.263 136.01,40.263L144.597,40.263L144.768,40.265ZM233.106,301.981L233,302.134C230.483,303.681 227.993,305.253 225.474,306.802C223.721,307.892 224.466,310.555 226.475,310.623C225.699,311.543 224.907,312.453 224.102,313.349L223.767,313.36C222.62,313.389 221.681,314.328 221.65,315.475C221.645,315.641 221.659,315.803 221.69,315.957C200.328,338.368 170.192,352.34 136.819,352.34C129.603,352.34 122.539,351.687 115.679,350.436L134.186,327.506L164.772,329.681L159.508,320.888L165.184,312.093L175.802,312.975L170.243,303.566L173.565,295.625L181.093,299.3L186.535,320.035L200.475,303.418L218.297,304.448C218.326,304.8 218.445,305.153 218.65,305.447C219.327,306.417 220.62,306.683 221.621,306.066C224.267,304.448 226.915,302.799 229.591,301.155C230.762,301.438 231.935,301.697 233.106,301.981ZM107.895,341.033L113.364,348.678L110.159,337.003L107.895,341.033ZM104.571,345.769L100.63,345.592L99.878,346.393C99.065,346.123 98.255,345.844 97.449,345.556L97.102,344.532L93.718,342.975L96.925,341.004L97.306,337.591L100.219,339.797L103.749,338.798L102.571,342.768L104.571,345.769ZM85.131,273.303L79.354,270.4L80.178,272.648C80.193,272.692 80.209,272.736 80.222,272.78C81.181,275.96 79.411,279.432 76.27,280.531C74.342,281.206 72.35,280.866 70.84,279.792C71.014,281.638 70.315,283.537 68.77,284.872C67.596,285.888 66.126,286.394 64.662,286.394C62.977,286.394 61.301,285.725 60.085,284.426C60.052,284.392 60.022,284.357 59.993,284.321L57.193,280.956L57.193,288.369C57.193,291.684 54.444,294.418 50.997,294.418C47.547,294.418 44.798,291.684 44.798,288.369L44.798,280.956L41.998,284.321C41.969,284.357 41.939,284.392 41.906,284.426C39.633,286.853 35.746,287.057 33.221,284.874L33.221,284.872C31.676,283.537 30.977,281.638 31.152,279.792C30.457,280.285 29.66,280.624 28.814,280.779C39.992,307.142 60.547,328.582 86.29,340.908L91.19,337.739L92.396,325.651L101.189,333.062L108.66,330.739L105.749,320.828L76.779,308.771L84.691,302.624L82.543,295.744L74.367,291.949L81.926,286.273L82.749,277.684L87.308,281.333L85.131,273.303ZM117.923,310.182L108.954,306.066L117.395,300.861L118.423,291.83L126.187,297.713L135.451,295.037L132.392,305.535L137.657,313.475L127.187,312.975L121.099,319.533L117.923,310.182ZM158.478,319.476L151.155,307.801L156.126,310.066L158.478,319.476ZM156.891,305.007L159.832,303.212L160.184,300.067L162.889,302.125L166.096,301.183L165.036,304.83L166.861,307.595L163.243,307.419L161.125,309.711L160.007,306.448L156.891,305.007ZM169.832,294.508L163.95,296.566L155.684,289.92L154.539,300.772L148.686,303.77L158.714,273.038L151.862,274.421L157.803,267.421L179.124,269.362L177.948,279.302L160.979,290.508L169.832,294.508ZM223.767,299.771C222.62,300.476 221.444,301.212 220.268,301.948L218.827,299.713C219.267,299.448 219.709,299.183 220.151,298.889C221.356,299.183 222.561,299.477 223.767,299.771ZM91.073,297.625L88.014,301.654L94.543,297.832L91.073,297.625ZM247.477,273.927C246.685,274.153 245.934,274.346 245.224,274.508C242.664,275.092 240.603,275.246 239.043,274.995C237.447,274.738 236.239,274.361 235.415,273.887C234.592,273.415 233.756,272.729 232.91,271.824C231.707,270.537 231.167,269.026 231.288,267.292C231.404,265.625 232.133,263.959 233.507,262.306C234.518,261.09 235.606,260.068 236.771,259.238C237.904,258.43 240.128,257.177 243.455,255.482C246.98,253.521 249.293,251.91 250.373,250.621C250.613,250.333 250.787,250.069 250.882,249.821C250.962,249.613 250.979,249.426 250.891,249.262C250.266,248.645 249.018,248.395 247.185,248.372C245.13,248.345 242.671,248.852 239.805,249.877L222.284,258.978C222.278,258.981 222.273,258.984 222.267,258.986C221.619,259.301 221.097,259.186 220.687,258.748C220.687,258.748 216.543,254.315 216.543,254.315C216.286,254.04 216.187,253.698 216.291,253.281C216.373,252.948 216.559,252.683 216.85,252.489L216.862,252.481C216.008,252.328 215.329,252.113 214.823,251.847C214.066,251.448 213.255,250.797 212.4,249.882C211.21,248.61 210.647,246.986 210.735,245.004C210.801,243.546 211.22,242.179 211.998,240.906C210.133,241.228 208.582,241.284 207.346,241.085C205.749,240.828 204.542,240.451 203.717,239.977C202.896,239.505 202.042,238.801 201.161,237.859C199.955,236.568 199.424,235.063 199.565,233.346C199.699,231.701 200.438,230.047 201.81,228.396C202.82,227.18 203.909,226.158 205.073,225.327C206.206,224.52 208.43,223.268 211.754,221.573C215.262,219.589 217.568,217.969 218.652,216.683C218.895,216.394 219.07,216.13 219.168,215.884C219.248,215.683 219.271,215.505 219.192,215.35C218.533,214.699 217.234,214.435 215.331,214.418C213.207,214.4 210.662,214.976 207.686,216.131C207.355,216.318 207.055,216.5 206.787,216.679C206.768,216.692 206.749,216.704 206.729,216.714C204.286,218.007 198.896,220.768 190.569,224.994C190.278,225.18 189.995,225.237 189.729,225.206C189.456,225.174 189.185,225.046 188.938,224.782C188.938,224.782 184.432,219.962 184.432,219.962C184.2,219.714 184.084,219.39 184.139,218.974C184.197,218.532 184.431,218.231 184.842,218.077C192.977,213.917 198.284,211.169 200.762,209.833C202.584,208.816 203.988,208.028 204.972,207.47C205.931,206.926 206.796,206.364 207.565,205.782C208.204,205.298 208.615,204.908 208.729,204.548C208.798,204.329 208.706,204.13 208.519,203.93C208.232,203.623 207.787,203.419 207.204,203.283C206.514,203.121 205.649,203.065 204.608,203.105C202.441,203.188 199.543,203.855 195.911,205.092L179.762,213.487C179.756,213.49 179.751,213.493 179.745,213.496C179.097,213.81 178.575,213.696 178.165,213.257C178.165,213.257 174.021,208.824 174.021,208.824C173.764,208.549 173.665,208.208 173.768,207.791C173.851,207.457 174.036,207.193 174.328,206.998C174.338,206.991 174.349,206.984 174.36,206.978C172.024,206.935 169.699,206.648 167.384,206.119C163.629,209.42 159.208,211.133 154.122,211.257L155.861,214.22L145.892,213.72L140.422,219.337L153.743,230.337L177.446,224.453L168.771,246.775L175.154,243.424L175.802,234.426L183.007,240.159L192.536,237.512L189.181,246.452L193.977,254.57L184.8,253.892L181.418,258.158L196.505,270.363L217.563,265.832L210.092,286.304L214.679,293.332C214.886,293.39 215.092,293.448 215.297,293.478C215.003,293.008 214.709,292.537 214.444,292.068C213.827,291.067 214.15,289.772 215.209,289.213C216.208,288.655 217.503,289.009 218.12,289.979C219.121,291.624 220.12,293.244 221.091,294.862C222.326,295.154 223.533,295.448 224.738,295.744C223.798,294.214 222.885,292.712 221.975,291.213C221.356,290.183 221.681,288.89 222.737,288.331C223.738,287.802 225.032,288.125 225.65,289.124C227.268,291.772 228.915,294.449 230.531,297.123C231.737,297.39 232.973,297.682 234.178,297.978C232.591,295.39 231.002,292.802 229.414,290.214C228.325,288.419 230.296,286.304 232.178,287.303C234.692,288.656 237.18,290.008 239.692,291.362L239.958,290.875C240.032,290.311 247.21,276.149 246.825,275.733C247.048,275.133 247.265,274.53 247.477,273.927ZM202.504,293.509L195.447,293.184L191.358,297.567L189.212,291.301L183.182,288.507L188.858,285.008L189.565,278.948L194.77,282.891L201.006,281.098L198.946,288.154L202.504,293.509ZM92.631,293.39L89.278,293.213L87.308,295.331L86.279,292.331L83.396,291.007L86.132,289.332L86.455,286.419L88.926,288.302L91.926,287.449L90.927,290.83L92.631,293.39ZM95.661,275.126L103.66,275.774L102.836,292.331L98.924,294.566L95.807,289.772L98.543,281.596L89.338,283.271L95.661,275.126ZM98.806,255.804L106.454,245.776L120.717,247.071L112.218,252.716L135.51,262.245L139.303,278.155L128.657,280.979L104.542,260.512L103.66,269.596L100.984,266.009L104.69,255.07L98.806,255.804ZM33.617,275.518L35.978,260.906L44.798,256.088L45.284,265.759L33.617,275.518ZM68.374,275.516L56.423,266.816L57.193,256.088L66.785,261.932L68.374,275.516ZM95.955,263.598C95.955,263.598 93.726,264.232 93.726,264.232C94.485,265.959 94.443,268.037 93.413,269.845L96.72,269.979C96.72,269.979 94.896,267.246 94.896,267.246L95.955,263.598ZM251.172,261.107C247.12,263.197 244.235,264.739 242.515,265.732C240.729,266.765 239.542,267.609 238.974,268.292C238.589,268.755 238.387,269.104 238.664,269.4C238.864,269.614 239.223,269.727 239.712,269.807C240.68,269.965 242.077,269.916 243.902,269.677C245.611,269.454 247.379,269.095 249.206,268.601C249.941,266.136 250.597,263.638 251.172,261.107ZM169.743,249.334L176.007,252.188L179.241,263.569L169.743,249.334ZM137.657,250.424L144.568,246.216L145.391,238.864L151.685,243.658L159.242,241.481L156.745,250.011L161.037,256.48L152.508,256.069L147.568,261.394L144.979,253.804L137.657,250.424ZM93.065,254.373C92.686,254.936 92.218,255.437 91.68,255.854L93.838,257.628C93.838,257.628 93.065,254.373 93.065,254.373ZM177.771,247.63L179.977,246.275L180.242,243.924L182.271,245.453L184.683,244.775L183.889,247.511L185.242,249.569L182.534,249.452L180.947,251.158L180.094,248.718L177.771,247.63ZM19.892,243.913L30.396,239.854L39.892,245.33L30.696,251.158L20.154,246.913C20.055,245.921 19.967,244.919 19.892,243.913ZM85.767,245.33L71.954,250.362L62.099,245.33L72.204,240.111L85.767,245.33ZM181.212,126.538C181.606,127.132 181.962,127.658 182.28,128.116C184.963,128.884 187.181,130.212 188.939,132.093C189.588,132.788 189.974,133.643 190.086,134.662C190.203,135.729 189.948,136.618 189.35,137.338C188.472,138.394 187.435,138.949 186.255,139.033C185.067,139.117 183.928,138.625 182.866,137.49C181.873,136.427 180.808,135.097 179.672,133.498C177.888,133.58 175.982,133.913 173.951,134.494C171.755,135.122 169.175,136.136 166.209,137.535C163.213,138.948 160.752,140.148 158.824,141.137C156.896,142.126 153.928,143.74 149.92,145.978C145.902,148.223 143.107,149.78 141.536,150.649C141.534,150.65 141.531,150.652 141.529,150.653C138.11,152.49 134.926,154.144 131.975,155.618C135.288,156.567 139.233,156.753 142.314,155.757C143.418,154.768 144.678,153.843 146.093,152.983C148.447,151.553 150.891,150.458 153.423,149.696C156.001,148.92 158.578,148.739 161.152,149.151C163.313,149.497 165.141,150.301 166.64,151.555C166.694,151.526 166.748,151.499 166.804,151.473L178.289,146.089C179.536,145.505 180.936,145.858 181.414,146.877L183.146,150.572C183.624,151.591 182.999,152.893 181.752,153.478L169.589,156.287C169.715,157.086 169.682,157.911 169.491,158.762C169.975,158.638 170.405,158.781 170.781,159.183C170.781,159.183 174.924,163.616 174.924,163.616C175.182,163.891 175.281,164.233 175.177,164.65C175.095,164.983 174.909,165.248 174.618,165.442C174.598,165.456 174.576,165.469 174.555,165.48C166.554,169.628 161.377,172.433 159.023,173.896C156.742,175.313 155.143,176.557 154.24,177.643C153.855,178.107 153.654,178.456 153.931,178.752C154.061,178.891 154.322,178.929 154.681,178.967C155.497,179.053 156.703,178.958 158.3,178.698C160.775,178.295 163.814,177.461 167.419,176.2C170.686,174.932 173.754,173.629 176.622,172.292C176.966,170.936 177.603,169.697 178.534,168.577C179.594,167.301 180.829,166.446 182.231,166C183.844,165.487 184.984,165.712 185.677,166.454C186.49,167.323 186.708,168.472 186.237,169.915C185.878,171.011 185.31,172.039 184.528,172.998C185.337,173.857 187.062,175.533 189.703,178.026C192.389,180.562 194.354,182.329 195.6,183.324C195.607,183.33 195.614,183.335 195.62,183.341C195.891,183.575 196.084,183.909 196.166,184.36C196.254,184.847 196.207,185.512 195.99,186.35C195.659,187.627 195.15,188.76 194.466,189.75C193.694,190.868 192.865,191.456 192.041,191.597C191.997,191.605 191.952,191.608 191.907,191.606C189.363,191.523 185.773,191.342 181.137,191.063C177.304,190.832 174.534,190.686 172.826,190.625C173.782,194.267 173.273,197.821 171.288,201.285C177.098,202.376 183.086,201.692 189.25,199.244L202.62,192.302C202.625,192.299 202.631,192.296 202.636,192.294C203.263,191.989 203.806,192.093 204.269,192.587C204.269,192.587 208.412,197.02 208.412,197.02C208.58,197.2 208.712,197.499 208.653,197.952C208.595,198.393 208.362,198.694 207.952,198.849C207.952,198.849 207,199.342 207.001,199.342C209.806,199.52 212.055,200.536 213.76,202.359C215.131,203.826 215.74,205.369 215.635,206.967C215.561,208.083 215.13,209.238 214.324,210.423C215.341,210.284 216.273,210.229 217.122,210.257C218.49,210.302 219.648,210.541 220.598,210.963C221.544,211.382 222.267,211.798 222.772,212.202C223.263,212.594 223.816,213.117 224.429,213.773C225.77,215.207 226.399,216.814 226.338,218.587C226.277,220.337 225.693,221.876 224.587,223.207C223.531,224.477 222.202,225.588 220.596,226.535C220.586,226.541 220.577,226.546 220.567,226.551C215.942,228.982 212.681,230.731 210.785,231.798C208.985,232.811 207.791,233.644 207.225,234.326C206.835,234.795 206.667,235.169 206.967,235.49C207.154,235.69 207.499,235.788 207.974,235.86C208.932,236.006 210.325,235.951 212.153,235.712C214.959,235.344 217.939,234.627 221.092,233.563C224.018,231.894 228.478,229.5 234.472,226.378C234.478,226.376 234.483,226.373 234.489,226.37C234.99,226.127 235.438,226.144 235.833,226.414C236.025,225.482 236.555,224.619 237.447,223.838L237.447,223.838C238.511,222.905 239.76,222.358 241.195,222.197C242.676,222.032 243.913,222.33 244.913,223.059C245.976,223.835 246.491,224.859 246.469,226.129C246.447,227.347 245.896,228.46 244.773,229.444C243.709,230.377 242.46,230.925 241.026,231.085C240.775,231.113 240.531,231.128 240.293,231.129C240.53,231.398 240.617,231.729 240.518,232.13C240.435,232.463 240.25,232.728 239.959,232.923C239.938,232.936 239.917,232.949 239.895,232.96C231.2,237.472 225.593,240.499 223.074,242.042C220.633,243.538 218.953,244.82 218.05,245.907C217.664,246.37 217.463,246.719 217.74,247.015C217.885,247.17 218.166,247.227 218.553,247.275C219.398,247.382 220.639,247.306 222.277,247.065C225.105,246.648 228.578,245.703 232.698,244.235C232.725,244.225 232.752,244.218 232.78,244.212L245.142,237.792C245.148,237.79 245.153,237.787 245.158,237.784C245.785,237.48 246.329,237.584 246.791,238.078C246.791,238.078 250.934,242.511 250.934,242.511C251.192,242.786 251.291,243.127 251.187,243.545C251.094,243.919 250.864,244.191 250.48,244.337C250.48,244.337 250.387,244.387 250.388,244.388C250.907,244.48 251.401,244.608 251.872,244.772C252.567,245.015 253.148,245.267 253.615,245.522C253.919,242.082 254.074,238.601 254.074,235.085C254.074,186.076 223.942,144.05 181.212,126.538ZM90.909,245.299L90.892,245.226C90.821,245.263 90.748,245.297 90.675,245.33C90.767,245.374 90.859,245.418 90.949,245.466L90.909,245.299ZM136.951,215.603L134.158,214.25L133.128,238.953L124.099,244.982L114.747,230.777L121.159,213.484L107.513,216.397L113.805,208.336L131.216,209.631L135.804,211.22L136.951,215.603ZM108.423,237.6L102.159,237.308L98.513,241.218L96.601,235.629L91.221,233.158L96.278,230.041L96.897,224.63L101.543,228.16L107.101,226.542L105.276,232.835L108.423,237.6ZM33.617,215.144L45.803,224.221L44.798,234.574L35.216,230.049L33.617,215.144ZM68.374,215.144L65.894,229.603L57.193,234.572L57.247,224.607L68.374,215.144ZM64.079,143.141L70.546,145.608L72.309,151.812L72.104,167.459L61.28,174.605L73.22,179.604L77.192,191.927L84.455,182.341L94.748,183.163L94.574,185.811L78.604,196.25L83.984,199.367L80.191,200.339L72.897,194.369L71.956,203.573L68.783,205.8L68.77,205.788C66.245,203.605 62.358,203.809 60.085,206.234C60.052,206.269 60.022,206.305 59.993,206.34L57.193,209.706L57.193,202.293C57.193,198.979 54.444,196.242 50.997,196.242C47.547,196.242 44.798,198.979 44.798,202.293L44.798,209.706L41.998,206.34C41.969,206.305 41.939,206.269 41.906,206.234C39.633,203.809 35.746,203.605 33.221,205.788C31.676,207.124 30.977,209.024 31.152,210.871C29.641,209.796 27.649,209.456 25.722,210.131C22.578,211.23 20.81,214.7 21.769,217.88C21.783,217.926 21.796,217.97 21.813,218.015L23.325,222.142L20.466,220.486C24.353,189.233 40.563,161.778 64.079,143.141ZM81.367,214.368L80.453,215.505C80.529,216.287 80.46,217.092 80.222,217.88C80.209,217.926 80.195,217.97 80.178,218.015L78.666,222.142L85.066,218.437C86.073,217.855 87.185,217.602 88.282,217.649L88.425,215.19L81.367,214.368ZM85.514,207.014L88.102,200.839L96.601,204.074L99.043,213.808L89.278,205.925L89.132,206.044L88.308,210.955L85.514,207.014ZM82.514,210.544L80.985,208.221L81.867,205.193L79.19,205.955L76.956,204.28L76.662,206.868L74.192,208.398L76.81,209.574L77.123,210.504C77.62,210.767 78.073,211.095 78.475,211.475L79.486,210.398L82.514,210.544ZM139.85,204.165L139.834,204.309L136.892,206.132L140.01,207.573L141.127,210.807L143.215,208.544L144.045,208.577C143.112,207.945 142.245,207.2 141.446,206.345C140.808,205.662 140.276,204.936 139.85,204.165ZM140.119,194.163C140.316,193.87 140.533,193.581 140.769,193.297C141.879,191.961 143.109,191.129 144.442,190.779C145.774,190.428 147.248,190.541 148.862,191.146C150.363,191.708 151.814,192.391 153.215,193.195C154.583,193.979 156.345,194.974 158.503,196.179C160.481,197.284 162.276,198.194 163.889,198.908C164.438,198.407 164.94,197.884 165.393,197.338C166.223,196.34 166.784,195.192 167.077,193.895C167.336,192.754 167.271,191.596 166.891,190.423C166.628,190.417 166.453,190.419 166.366,190.428C166.34,190.431 166.313,190.433 166.287,190.432C165.587,190.428 165.047,190.242 164.654,189.921C164.243,189.586 163.971,189.096 163.881,188.429C163.731,187.325 164.121,186.155 165.126,184.945C165.768,184.172 166.605,183.856 167.641,184.01C168.511,184.139 169.205,184.463 169.734,184.963C176.412,185.223 181.856,185.321 186.067,185.255C181.854,181.86 179.074,179.439 177.726,177.996C177.472,177.724 177.244,177.421 177.043,177.085C174.63,178.112 172.017,179.183 169.205,180.296C169.118,180.363 169.018,180.417 168.906,180.457C168.195,180.726 167.509,180.981 166.848,181.221L166.362,181.41L166.188,181.459L166.195,181.458C163.846,182.302 161.825,182.961 160.133,183.436C157.745,184.106 155.825,184.385 154.375,184.292C152.862,184.195 151.726,183.93 150.962,183.528C150.203,183.128 149.41,182.495 148.591,181.619C147.365,180.307 146.786,178.665 146.874,176.685C146.937,175.3 147.318,173.997 148.023,172.778C143.717,173.717 140.614,173.085 138.698,171.036C137.105,169.331 136.482,167.273 136.841,164.857C136.953,164.106 137.149,163.352 137.431,162.595C133.758,161.53 129.498,159.706 126.621,158.213C123.351,159.745 120.437,161.001 117.879,161.981C116.392,162.552 114.979,163.046 113.641,163.466L114.276,164.488L110.723,164.293C108.184,164.928 105.968,165.243 104.074,165.241L99.925,169.899L109.924,179.399L128.628,174.545L122.306,192.398L129.863,203.515L134.01,201.427L135.422,189.809L140.119,194.163ZM103.629,192.104L104.248,186.693L108.894,190.222L114.453,188.605L112.601,194.897L115.777,199.663L109.482,199.367L105.835,203.281L103.923,197.691L98.543,195.22L103.629,192.104ZM152.43,199.763C153.13,200.138 153.938,200.576 154.854,201.078C155.818,201.606 156.721,202.078 157.565,202.493L157.566,202.494C155.508,203.079 153.44,203.236 151.361,202.963L152.43,199.763ZM77.897,171.429L78.337,167.43L81.778,170.016L85.896,168.84L84.543,173.488L86.866,177.018L82.22,176.782L79.544,179.693L78.132,175.546L74.133,173.723L77.897,171.429ZM94.509,161.354L90.337,172.399L95.131,178.694L95.955,167.105L98.159,168.871L97.219,163.5C96.237,162.927 95.333,162.211 94.509,161.354ZM162.577,162.363C160.439,163.48 158.648,164.481 157.203,165.365C152.945,167.052 149.692,167.955 147.439,168.049C146.151,168.103 145.231,167.915 144.711,167.359C144.458,167.089 144.422,166.696 144.511,166.198C144.627,165.546 144.991,164.874 145.577,164.169C146.995,162.462 149.062,160.787 151.769,159.134C154.484,157.477 157.18,156.336 159.859,155.719C162.291,155.157 163.994,155.277 164.943,156.292C165.424,156.807 165.411,157.578 165.071,158.594C164.666,159.804 163.829,161.056 162.579,162.361L162.577,162.363ZM91.746,149.208L83.337,148.607L76.485,157.665L83.074,163.666L92.865,160.636L88.573,158.167L91.902,156.212C91.667,155.155 91.529,153.992 91.49,152.722C91.452,151.485 91.537,150.314 91.746,149.208ZM141.083,117.906C139.73,118.935 138.508,120.105 137.419,121.416C136.089,123.016 135.292,124.579 135.054,126.115C134.833,127.538 135.199,128.764 136.158,129.79C137.397,131.115 139.131,131.575 141.342,131.237C143.613,130.889 145.279,130.122 146.311,128.879C146.688,128.426 147.083,128.359 147.37,128.426C147.548,128.467 147.725,128.565 147.878,128.752C148.023,128.93 148.171,129.256 148.26,129.743C148.588,131.094 148.265,132.382 147.256,133.596C145.365,135.871 142.552,137.282 138.798,137.788C135.003,138.299 131.858,137.21 129.357,134.534L129.357,134.534C127.243,132.273 126.257,129.127 126.454,125.08C126.574,122.622 127.166,120.308 128.232,118.14C116.203,119.012 104.675,121.703 93.918,125.938L90.279,137.638L94.236,143.634C94.324,143.52 94.415,143.408 94.507,143.296C96.078,141.407 97.895,140.05 99.956,139.22C102.269,138.288 103.889,138.47 104.825,139.472C105.217,139.891 105.419,140.402 105.424,141.008C105.428,141.635 105.208,142.15 104.773,142.558C104.66,142.664 104.514,142.727 104.359,142.737C103.621,142.783 102.722,143.201 101.64,143.942C100.567,144.677 99.721,145.548 99.109,146.559L102.984,150.225L112.042,147.785L111.222,151.145C113.526,150.802 116.044,150.201 118.777,149.344C123.606,147.83 128.572,145.935 133.677,143.66C138.794,141.378 144.428,138.612 150.579,135.36C150.58,135.36 150.581,135.359 150.582,135.359C160.458,130.21 168.79,127.543 175.569,127.323C174.657,125.94 173.789,124.671 172.964,123.516C162.871,120.243 152.173,118.303 141.083,117.906ZM75.665,135.043C76.512,134.523 77.364,134.016 78.223,133.519L79.749,134.667L84.19,133.374L82.72,138.431L85.251,142.255L80.22,142.02L77.309,145.137L75.78,140.668L71.456,138.668L75.543,136.168L75.665,135.043ZM153.862,80.436L179.889,104.287L180.419,105.288L180.29,105.606L180.195,106.039L180.189,106.092C174.413,104.148 168.461,102.581 162.366,101.421L161.821,100.432L161.261,99.409L160.126,97.318C160.038,97.141 159.95,96.995 159.89,96.847C157.125,91.759 155.303,86.083 153.862,80.436ZM126.011,79.759C123.982,85.819 121.482,91.818 117.923,97.024L117.894,97.024C117.835,97.141 117.775,97.229 117.687,97.318C117.658,97.406 117.57,97.523 117.452,97.671L117.042,98.249L116.246,99.381L115.61,100.266L115.274,100.721C108.993,101.722 102.856,103.153 96.893,104.984L96.631,104.2L98.278,101.641L126.011,79.759ZM140.465,49.848L140.627,49.852C142.334,49.909 143.98,50.645 145.127,51.938C146.303,53.174 146.951,54.849 146.862,56.556C146.803,58.291 146.038,59.908 144.803,61.086C143.509,62.26 141.863,62.879 140.128,62.819C138.421,62.762 136.775,62.026 135.628,60.733C134.452,59.497 133.804,57.82 133.864,56.115C133.952,54.35 134.717,52.763 135.95,51.587C137.096,50.519 138.581,49.913 140.141,49.852L140.465,49.848ZM212.533,14.49L212.739,14.493C220.061,14.64 222.354,22.1 218.297,30.998C205.399,42.147 189.145,48.573 172.115,49.219L171.713,49.233C178.065,33.087 191.329,20.618 207.857,15.296C209.586,14.744 211.148,14.488 212.533,14.49ZM70.673,9.257C72.254,9.253 74.061,9.626 76.074,10.442C92.16,16.971 104.454,30.352 109.63,46.91C92.543,45.117 76.633,37.47 64.545,25.293C61.224,16.382 63.823,9.274 70.673,9.257Z" style="fill:none;stroke:rgb(255,0,0);stroke-width:1px;"/>
</svg>
