<?xml version="1.0" encoding="UTF-8" standalone="no"?>
<!DOCTYPE svg PUBLIC "-//W3C//DTD SVG 1.1//EN" "http://www.w3.org/Graphics/SVG/1.1/DTD/svg11.dtd">
<svg width="100%" height="100%" viewBox="0 0 1123 794" version="1.1" xmlns="http://www.w3.org/2000/svg" xmlns:xlink="http://www.w3.org/1999/xlink" xml:space="preserve" xmlns:serif="http://www.serif.com/" style="fill-rule:evenodd;clip-rule:evenodd;stroke-linejoin:round;stroke-miterlimit:2;">
    <path d="M0.763,233.654C1.257,185.132 27.188,142.701 65.84,118.992C65.398,118.817 65.044,118.669 64.75,118.492L64.722,118.492C55.281,115.374 48.341,108.758 41.958,101.287C30.577,85.318 46.666,69.791 47.751,53.967C48.723,40.557 42.782,25.706 49.694,12.56C53.84,3.853 62.664,0.531 72.427,0.768C81.014,1.208 89.338,4.267 95.161,8.707C107.57,18.236 119.159,31.999 128.776,45.146C128.776,44.116 130.394,42.292 132.157,41.293C133.276,40.617 134.598,40.263 136.01,40.263L144.597,40.263C146.422,40.263 148.067,40.88 149.422,41.91C150.863,43.057 151.891,44.704 152.273,46.587C152.802,46.587 182.859,16.178 188.975,12.177C195.124,8.148 203.623,5.737 212.21,5.942C221.975,6.413 230.502,10.413 234.032,19.412C239.942,32.998 232.913,47.381 232.854,60.821C232.825,76.702 247.707,93.348 235.179,108.435C229.972,113.729 222.856,118.846 215.857,121.903L215.797,121.903C215.417,122.021 214.603,122.283 213.44,122.66C235.706,137.872 253.229,159.522 263.318,184.913L263.635,185.717C269.445,200.605 272.705,216.771 272.875,233.676L272.882,235.085L272.88,235.812L272.866,237.183L272.848,238.157L272.816,239.357L272.777,240.461C272.271,253.525 269.932,266.101 265.999,277.951C265.659,278.997 265.294,280.017 264.925,281.008L264.5,282.186C263.205,285.714 261.764,289.155 260.177,292.537C259.764,293.448 259.353,294.331 258.911,295.213C258.206,296.654 257.441,298.096 256.707,299.508C256.647,299.565 256.619,299.654 256.588,299.713C255.177,302.329 253.677,304.919 252.09,307.419C251.717,307.987 251.375,308.559 250.98,309.103L250.882,309.252C250.472,309.92 250.043,310.551 249.594,311.192L249.354,311.546L249.354,311.565C249.088,312.005 248.794,312.416 248.472,312.829C245.795,316.713 242.913,320.415 239.854,323.976C215.151,352.578 178.758,370.759 138.144,371.142L136.819,371.148C133.222,371.148 129.657,371.008 126.124,370.733C59.482,365.554 6.326,312.384 1.167,245.731C0.895,242.217 0.756,238.667 0.756,235.085L0.763,233.654ZM28.751,280.397C40.488,308.332 62.752,330.776 90.57,342.754C86.43,339.961 82.52,336.774 78.888,333.213C75.47,329.86 75.47,324.406 78.888,321.053C82.307,317.7 87.87,317.7 91.289,321.053C93.511,323.232 95.866,325.23 98.335,327.046C102.763,312.408 102.398,299.836 101.771,293.577L92.474,300.653C89.142,303.191 84.772,303.273 81.343,300.862C77.913,298.45 76.589,294.365 77.972,290.454L85.343,269.604L86.265,255.979C86.324,255.115 86.821,254.338 87.589,253.91C88.356,253.482 89.292,253.461 90.078,253.854C90.199,253.915 91.551,254.595 93.379,255.698L90.219,242.394L72.795,235.617L73.743,234.921L60.959,228.962L55.458,232.149L69.292,238.586L62.38,242.58L48.557,236.132L40.419,240.826L51.529,246.478L40.419,252.14L48.557,256.834L62.38,250.385L69.292,254.369L55.458,260.817L60.959,263.993L74.793,257.544L81.694,261.528L67.871,267.976L78.895,274.349C80.197,275.092 80.639,276.761 79.885,278.064C79.131,279.377 77.474,279.818 76.16,279.065L65.136,272.702L66.471,287.903L59.571,283.92L58.236,268.719L52.734,265.532L54.059,280.733L47.158,276.75L45.834,261.549L37.695,256.856L38.352,269.3L27.898,262.507L27.898,271.906L40.397,280.658L40.397,288.624L28.794,280.5L28.751,280.397ZM233.012,301.959C231.873,301.683 230.731,301.431 229.591,301.155C226.915,302.799 224.267,304.448 221.621,306.066C220.62,306.683 219.327,306.417 218.65,305.447C218.445,305.153 218.326,304.8 218.297,304.448L200.475,303.418L187.72,318.623C190.354,318.261 193.125,319.071 195.146,321.053C196.802,322.677 197.715,324.836 197.714,327.133C197.714,329.43 196.802,331.589 195.146,333.213C191.721,336.571 188.049,339.597 184.169,342.273C198.375,335.983 211.1,326.95 221.671,315.847C221.653,315.726 221.646,315.602 221.65,315.475C221.681,314.328 222.62,313.389 223.767,313.36L223.978,313.353C224.787,312.453 225.583,311.54 226.362,310.616C224.439,310.455 223.754,307.872 225.474,306.802C227.928,305.293 230.355,303.762 232.807,302.252L233.012,301.959ZM152.231,328.2C153.857,330.702 156.365,333.727 158.432,336.092C151.639,338.426 144.423,339.645 137.018,339.645C130.424,339.645 123.98,338.678 117.851,336.819L122.432,328.338C127.245,329.627 139.269,332.015 152.231,328.2ZM177.773,297.679C179.293,301.583 178.384,304.766 175.569,303.113C175.843,310.356 177.192,319.266 178.76,324.648C180.13,323.509 181.461,322.312 182.746,321.053C183.762,320.056 184.968,319.356 186.251,318.952L181.093,299.3L177.773,297.679ZM223.767,299.771C222.62,300.476 221.444,301.212 220.268,301.948L218.827,299.713C219.267,299.448 219.709,299.183 220.151,298.889C221.356,299.183 222.561,299.477 223.767,299.771ZM216.366,269.112L210.092,286.304L214.679,293.332C214.886,293.39 215.092,293.448 215.297,293.478C215.003,293.008 214.709,292.537 214.444,292.068C213.827,291.067 214.15,289.772 215.209,289.213C216.208,288.655 217.503,289.009 218.12,289.979C219.121,291.624 220.12,293.244 221.091,294.862C222.326,295.154 223.533,295.448 224.738,295.744C223.798,294.214 222.885,292.712 221.975,291.213C221.356,290.183 221.681,288.89 222.737,288.331C223.738,287.802 225.032,288.125 225.65,289.124C227.268,291.772 228.915,294.449 230.531,297.123C231.737,297.39 232.973,297.682 234.178,297.978C232.591,295.39 231.002,292.802 229.414,290.214C228.325,288.419 230.296,286.304 232.178,287.303C232.847,287.663 233.514,288.023 234.18,288.383L238.176,290.544C238.654,290.802 239.133,291.061 239.613,291.319C239.716,291.13 239.819,290.941 239.922,290.753C239.654,289.848 239.386,288.951 239.12,288.037C236.355,286.567 233.619,285.068 230.856,283.596C229.854,283.068 229.414,281.773 229.914,280.745C230.414,279.657 231.678,279.244 232.737,279.803C234.297,280.656 235.855,281.479 237.414,282.332C237.06,281.125 236.708,279.949 236.355,278.744C234.65,277.832 232.973,276.95 231.296,276.039C231.017,275.883 230.783,275.672 230.603,275.426C229.335,275.197 228.185,274.927 227.153,274.616C224.724,273.885 222.353,272.838 220.042,271.474C218.581,270.612 217.356,269.825 216.366,269.112ZM202.504,293.509L195.447,293.184L191.358,297.567L189.212,291.301L183.182,288.507L188.858,285.008L189.565,278.948L194.77,282.891L201.006,281.098L198.946,288.154L202.504,293.509ZM144.712,285.874L145.927,285.831C153.666,285.755 159.844,286.382 165.152,287.752L177.948,279.302L179.124,269.362L157.803,267.421L144.712,285.874ZM96.372,257.636C97.666,258.539 98.998,259.563 100.194,260.664C108.144,261.53 115.866,266.542 122.586,275.216C126.172,279.845 128.6,284.364 129.777,286.756C132.882,286.467 135.79,286.245 138.527,286.09L139.258,286.065L135.51,262.245L112.218,252.716L120.717,247.071L106.454,245.776L96.372,257.636ZM244.139,276.146C243.084,276.212 242.049,276.251 241.034,276.264L240.325,277.569L241.383,281.125C242.236,279.569 243.09,278.039 243.912,276.479C243.979,276.358 244.055,276.247 244.139,276.146ZM94.108,273.251C95.738,273.251 97.061,274.548 97.061,276.146C97.061,277.744 95.738,279.041 94.108,279.041C92.479,279.041 91.156,277.744 91.156,276.146C91.156,274.548 92.479,273.251 94.108,273.251ZM191.008,241.582L189.181,246.452L193.977,254.57L184.8,253.892L181.418,258.158L196.505,270.363L213.513,266.704C212.76,265.991 211.957,265.187 211.104,264.294C207.422,260.438 205.64,256.549 205.695,252.653C205.73,250.203 206.325,247.925 207.48,245.821C204.57,245.83 202.045,245.605 199.906,245.149C196.757,244.477 193.79,243.288 191.008,241.582ZM250.958,261.634C248.85,262.783 246.14,263.083 242.815,262.485C238.534,261.715 234.404,260.153 230.427,257.795C226.677,255.572 223.464,253.19 220.785,250.651C219.965,251.174 219.238,251.763 218.607,252.418C217.367,253.705 216.664,255.094 216.524,256.596C216.386,258.062 217.01,259.475 218.332,260.86C219.376,261.953 220.648,263.021 222.147,264.065C223.662,265.121 225.636,266.22 228.066,267.366C230.481,268.505 233.414,269.316 236.861,269.809C240.322,270.303 243.962,270.337 247.774,269.913C248.147,269.837 248.44,269.911 248.666,270.06C249.531,267.294 250.297,264.484 250.958,261.634ZM169.743,249.334L176.007,252.188L179.241,263.569L169.743,249.334ZM137.657,250.424L144.568,246.216L145.391,238.864L151.685,243.658L159.242,241.481L156.745,250.011L161.037,256.48L152.508,256.069L147.568,261.394L144.979,253.804L137.657,250.424ZM246.398,250.079C246.608,250.299 246.754,250.493 246.79,250.689C246.783,251.222 246.482,251.637 245.939,251.972C245.195,252.431 244.07,252.735 242.573,252.921C242.569,252.922 242.565,252.922 242.561,252.923C237.514,253.63 232.018,252.02 226.053,248.157C229.631,247.032 233.368,246.6 237.264,246.859C241.533,247.142 244.589,248.185 246.398,250.079ZM218.64,151.254C217.251,151.158 215.828,151.136 214.373,151.186C211.185,151.296 207.496,151.805 203.306,152.709C199.075,153.623 195.608,154.427 192.902,155.124C190.196,155.821 186.05,157.019 180.462,158.719C174.859,160.424 170.961,161.604 168.769,162.259C168.766,162.26 168.762,162.261 168.758,162.262C155.032,166.138 143.909,168.62 135.392,169.713C133.871,169.908 132.401,170.063 130.981,170.179C132.492,172.158 134.499,173.583 136.996,174.466C139.828,175.467 143.103,175.801 146.823,175.476C148.782,175.305 150.761,175.034 152.758,174.661C154.813,173.569 157.141,172.775 159.741,172.283C164.629,171.357 169.64,171.64 174.774,173.139C179.921,174.641 184.179,177.163 187.554,180.697C191.226,184.542 193.115,188.308 193.28,191.965C193.449,195.677 192.19,198.933 189.497,201.729C186.092,205.263 181.138,207.367 174.613,207.991C176.353,209.737 179.017,210.749 182.576,211.087C183.641,210.515 184.686,210.472 185.709,210.934C190.644,210.779 198.578,209.99 209.51,208.571C212.906,208.119 216.06,209.37 218.944,212.389C220.365,213.878 221.23,215.536 221.55,217.359C221.899,219.349 221.589,220.734 220.81,221.542C220.639,221.72 220.389,221.803 220.142,221.765C218.348,221.487 216.585,221.989 214.843,223.234C212.986,224.561 211.38,226.199 210.025,228.147C208.605,230.187 206.988,232.244 205.173,234.317C203.752,235.939 202.36,237.32 200.997,238.462C204.704,239.265 209.119,239.488 214.239,239.143C216.288,238.024 218.682,237.215 221.423,236.722C226.182,235.864 231.17,236.199 236.389,237.736C241.617,239.276 245.977,241.879 249.471,245.538C250.969,247.107 252.155,248.622 253.032,250.079C253.66,245.168 253.984,240.164 253.984,235.085C253.984,202.241 240.441,172.536 218.64,151.254ZM177.245,224.972L168.771,246.775L175.154,243.424L175.802,234.426L183.007,240.159L187.352,238.952L187.309,238.917C185.622,237.748 183.834,236.179 181.949,234.205C179.579,231.722 178.08,228.989 177.441,226.01C177.365,225.659 177.3,225.313 177.245,224.972ZM136.951,215.603L134.158,214.25L133.128,238.953L124.099,244.982L114.747,230.777L121.159,213.484L107.513,216.397L113.805,208.336L131.216,209.631L135.804,211.22L136.951,215.603ZM108.423,237.6L102.159,237.308L98.513,241.218L96.601,235.629L91.221,233.158L96.278,230.041L96.897,224.63L101.543,228.16L107.101,226.542L105.276,232.835L108.423,237.6ZM27.866,191.94L27.866,191.939C35.519,172.65 48.152,155.866 64.177,143.178L70.546,145.608L72.309,151.812L72.104,167.459L61.28,174.605L73.22,179.604L77.192,191.927L84.455,182.341L94.748,183.163L94.574,185.811L78.604,196.25L83.984,199.367L80.191,200.339L72.897,194.369L71.956,203.573L66.25,207.577L66.471,205.063L59.571,209.046L58.236,224.247L52.734,227.423L54.059,212.222L47.158,216.205L45.834,231.406L37.695,236.1L38.352,223.655L27.898,230.448L27.898,221.06L40.397,212.308L40.397,204.331L27.898,213.083L27.898,206.731L40.397,197.979L40.397,190.013L27.898,198.754L27.898,191.859C27.888,191.886 27.877,191.913 27.866,191.94ZM79.742,230.517L67.871,224.979L75.44,220.61L75.691,221.425L81.367,214.368L88.425,215.19L87.866,224.809L84.955,226.69L79.742,230.517ZM20.912,219.942L20.907,219.979L22.451,221.06L22.451,230.448L19.829,228.744C19.884,228.366 20.271,224.663 20.907,219.979L20.855,219.942L20.912,219.942ZM151.651,202.093L150.596,205.25L155.861,214.22L145.892,213.72L140.422,219.337L153.743,230.337L177.177,224.52C176.843,222.13 177,219.981 177.635,218.072C177.829,217.49 178.046,216.933 178.286,216.4L178.286,216.399C177.785,216.274 177.266,216.134 176.73,215.979C175.295,215.565 174.027,215.011 172.922,214.32C171.826,213.635 170.73,212.721 169.637,211.577C168.633,210.525 167.786,209.337 167.099,208.013C160.965,207.346 155.818,205.369 151.651,202.093ZM19.829,228.744C19.826,228.765 19.824,228.776 19.823,228.776C19.822,228.775 19.822,228.764 19.823,228.74L19.829,228.744ZM187.191,217.13C187.57,217.116 187.926,217.099 188.26,217.078C192.024,216.945 196.805,216.629 202.603,216.13C202.127,216.671 201.62,217.27 201.082,217.925C200.041,219.192 199.127,220.296 198.339,221.238C197.556,222.175 196.7,223.157 195.77,224.184C194.882,225.164 194.046,225.92 193.256,226.445C192.476,226.963 191.659,227.374 190.806,227.677C190.063,227.94 189.324,227.948 188.588,227.697C187.783,227.423 186.99,226.857 186.192,226.022C184.769,224.532 184.201,222.958 184.546,221.281C184.885,219.635 185.77,218.254 187.19,217.131L187.191,217.13ZM65.136,220.264L73.789,215.262L72.986,212.661L66.093,209.374L65.136,220.264ZM96.601,204.074L99.043,213.808L89.278,205.925L89.132,206.044L88.308,210.955L85.514,207.014L88.102,200.839L96.601,204.074ZM82.514,210.544L79.486,210.398L77.72,212.279L76.81,209.574L74.192,208.398L76.662,206.868L76.956,204.28L79.19,205.955L81.867,205.193L80.985,208.221L82.514,210.544ZM126.958,179.26L122.306,192.398L129.863,203.515L134.01,201.427L135.422,189.809L143.481,197.28L146.32,196.483C144.499,193.89 143.533,191.33 143.4,188.814C140.416,189.035 137.879,188.749 135.791,187.963C132.859,186.859 130.323,184.697 128.183,181.473C127.731,180.793 127.323,180.055 126.958,179.26ZM115.777,199.663L109.482,199.367L105.835,203.281L103.923,197.691L98.543,195.22L103.629,192.104L104.248,186.693L108.894,190.222L114.453,188.605L112.601,194.897L115.777,199.663ZM153.446,196.725L152.354,194.789C152.304,194.398 152.326,193.979 152.417,193.53C152.679,192.233 153.404,190.987 154.568,189.779C157.028,187.225 160.386,185.379 164.633,184.221C168.922,183.051 172.93,182.685 176.657,183.133C180.249,183.565 182.793,184.502 184.254,186.032L184.254,186.032C185.97,187.829 185.432,189.976 182.97,192.532C180.816,194.768 177.912,196.48 174.267,197.685C173.028,196.725 171.501,196.204 169.679,196.139C167.628,196.066 166.049,196.644 164.92,197.816C164.413,198.342 164.087,198.894 163.93,199.466C159.065,199.564 155.56,198.687 153.446,196.725ZM77.897,171.429L78.337,167.43L81.778,170.016L85.896,168.84L84.543,173.488L86.866,177.018L82.22,176.782L79.544,179.693L78.132,175.546L74.133,173.723L77.897,171.429ZM104.594,164.658L99.925,169.899L109.924,179.399L125.616,175.327C125.357,174.262 125.15,173.129 124.998,171.925C124.933,171.413 124.884,170.916 124.852,170.435C120.868,170.423 117.379,170.023 114.385,169.24C110.804,168.303 107.54,166.776 104.594,164.658ZM94.514,161.341L96.985,162.165L98.159,168.871L95.955,167.105L95.131,178.694L90.337,172.399L94.514,161.341ZM94.478,149.403L83.337,148.607L76.485,157.665L83.074,163.666L92.865,160.636L88.573,158.167L95.338,154.195L95.438,152.862C95.055,151.766 94.735,150.613 94.478,149.403ZM206.99,141.275C187.429,126.612 163.131,117.92 136.819,117.92C121.668,117.92 107.185,120.802 93.883,126.049L90.279,137.638L94.002,143.28C94.258,140.539 95.254,138.285 96.962,136.511C98.966,134.432 101.452,133.171 104.424,132.732C107.526,132.274 109.823,132.902 111.346,134.497C111.936,135.115 112.281,135.792 112.395,136.519C112.539,137.433 112.257,138.09 111.652,138.524C111.486,138.644 111.277,138.691 111.074,138.656C109.963,138.465 108.666,138.719 107.175,139.37C105.682,140.022 104.582,140.952 103.889,142.176C103.283,143.248 103.52,144.294 104.51,145.33C105.722,146.6 107.136,147.713 108.749,148.672L111.485,150.068C113.052,150.751 114.767,151.32 116.628,151.778C121.898,153.073 127.994,153.506 134.917,153.086C141.895,152.662 149.004,151.762 156.242,150.386C163.495,149.008 171.428,147.14 180.042,144.784C180.044,144.784 180.046,144.783 180.047,144.783C189.97,142.143 198.95,140.976 206.99,141.275ZM75.653,135.155C76.528,134.618 77.411,134.092 78.301,133.577L79.749,134.667L84.19,133.374L82.72,138.431L85.251,142.255L80.22,142.02L77.309,145.137L75.78,140.668L71.456,138.668L75.543,136.168L75.653,135.155ZM180.189,106.092C174.413,104.148 168.461,102.581 162.366,101.421C161.639,100.11 160.883,98.715 160.126,97.318C160.038,97.141 159.95,96.995 159.89,96.847C157.125,91.759 155.303,86.083 153.862,80.436L179.889,104.287L180.419,105.288C180.419,105.288 180.253,105.564 180.189,106.092ZM115.274,100.721C108.993,101.722 102.856,103.153 96.893,104.984L96.631,104.2L98.278,101.641L126.011,79.759C123.982,85.819 121.482,91.818 117.923,97.024L117.894,97.024C117.835,97.141 117.775,97.229 117.687,97.318C117.658,97.406 117.57,97.523 117.452,97.671C116.986,98.312 116.204,99.471 115.274,100.721ZM135.95,51.587C137.215,50.409 138.892,49.792 140.627,49.852C142.334,49.909 143.98,50.645 145.127,51.938C146.303,53.174 146.951,54.849 146.862,56.556C146.803,58.291 146.038,59.908 144.803,61.086C143.509,62.26 141.863,62.879 140.128,62.819C138.421,62.762 136.775,62.026 135.628,60.733C134.452,59.497 133.804,57.82 133.864,56.115C133.952,54.35 134.717,52.763 135.95,51.587ZM207.857,15.296C218.916,11.766 223.15,20.353 218.297,30.998C205.298,42.235 188.889,48.674 171.713,49.233C178.065,33.087 191.329,20.618 207.857,15.296ZM64.545,25.293C60.458,14.325 65.338,6.09 76.074,10.442C92.16,16.971 104.454,30.352 109.63,46.91C92.543,45.117 76.633,37.47 64.545,25.293Z" style="fill:none;stroke:rgb(255,0,0);stroke-width:1px;"/>
</svg>
