<?xml version="1.0" encoding="UTF-8" standalone="no"?>
<!DOCTYPE svg PUBLIC "-//W3C//DTD SVG 1.1//EN" "http://www.w3.org/Graphics/SVG/1.1/DTD/svg11.dtd">
<svg width="100%" height="100%" viewBox="0 0 1123 794" version="1.1" xmlns="http://www.w3.org/2000/svg" xmlns:xlink="http://www.w3.org/1999/xlink" xml:space="preserve" xmlns:serif="http://www.serif.com/" style="fill-rule:evenodd;clip-rule:evenodd;stroke-linejoin:round;stroke-miterlimit:2;">
    <path d="M144.768,40.265C146.525,40.302 148.11,40.912 149.422,41.91C150.863,43.057 151.891,44.704 152.273,46.587C152.802,46.587 182.859,16.178 188.975,12.177C194.836,8.337 202.831,5.966 211.003,5.93C211.404,5.929 211.807,5.932 212.21,5.942C221.975,6.413 230.502,10.413 234.032,19.412C239.942,32.998 232.913,47.381 232.854,60.821C232.825,76.702 247.707,93.348 235.179,108.435C229.972,113.729 222.856,118.846 215.857,121.903L215.797,121.903L214.909,122.185L213.44,122.66C235.271,137.575 252.544,158.68 262.718,183.428L263.146,184.482L263.635,185.717L264.183,187.147L264.715,188.58L264.956,189.247L265.465,190.694L265.958,192.147L266.475,193.735L266.941,195.223L267.39,196.719L267.822,198.222L268.318,200.033L268.765,201.757L269.14,203.283L269.499,204.816L269.84,206.356L270.097,207.582L270.267,208.418L270.567,209.973L270.849,211.533L271.113,213.1L271.309,214.338L271.419,215.073L271.66,216.779L271.864,218.366L272.05,219.958L272.182,221.204L272.257,221.958L272.366,223.158L272.397,223.517L272.519,225.075L272.624,226.63L272.71,228.177L272.746,228.945L272.807,230.524L272.85,232.102C272.861,232.627 272.87,233.152 272.875,233.676L272.882,235.204L272.88,235.812C272.877,236.27 272.873,236.727 272.866,237.183L272.845,238.277C272.836,238.637 272.827,238.997 272.816,239.357L272.77,240.666L272.707,242.056L272.66,242.916C272.616,243.693 272.566,244.469 272.509,245.242L272.378,246.891L272.235,248.448L272.115,249.632L271.964,250.996L271.773,252.558L271.607,253.813L271.429,255.064L271.176,256.717L270.983,257.897L270.743,259.275L270.405,261.091L270.108,262.584L269.863,263.752L269.428,265.714L269.074,267.212L268.795,268.344L268.42,269.801L268.042,271.21L267.725,272.344L267.361,273.601L266.892,275.16L266.363,276.838L265.822,278.487L265.452,279.56L265.025,280.738L264.863,281.178C264.752,281.514 264.639,281.848 264.5,282.186C263.205,285.714 261.764,289.155 260.177,292.537C259.764,293.448 259.353,294.331 258.911,295.213C258.206,296.654 257.441,298.096 256.707,299.508C256.647,299.565 256.619,299.654 256.588,299.713C255.177,302.329 253.677,304.919 252.09,307.419L251.385,308.513L250.98,309.103L250.316,310.136L249.767,310.943L249.354,311.546L249.354,311.565C249.088,312.005 248.794,312.416 248.472,312.829C247.32,314.5 246.13,316.138 244.904,317.745L244.816,317.86C243.221,319.948 241.565,321.984 239.854,323.976L239.073,324.871L238.079,325.991L237.478,326.655L236.874,327.314L236.265,327.97L235.652,328.622L235.034,329.27L234.413,329.913L233.787,330.553L233.157,331.188L232.523,331.819L231.885,332.446L231.243,333.069L230.597,333.688L229.946,334.303L229.292,334.913L228.634,335.519L227.305,336.718L225.961,337.9L224.601,339.064L223.226,340.21L221.835,341.339L220.43,342.45L219.251,343.358L218.294,344.082L217.12,344.95L216.125,345.672L214.957,346.501L213.924,347.22L212.763,348.011L211.691,348.725L210.538,349.478L209.428,350.187L208.283,350.903L207.134,351.605L205.999,352.284L204.81,352.979L203.686,353.621L202.128,354.488L200.557,355.336L199.718,355.777L198.921,356.19L198.122,356.597L197.319,356.999L196.514,357.396L195.706,357.788L194.894,358.175L194.08,358.556L193.263,358.932L192.443,359.303L191.621,359.668L190.795,360.029L189.967,360.383L189.136,360.733L188.303,361.077L187.466,361.416L186.627,361.749L185.472,362.197L184.208,362.674L183.508,362.932C175.658,365.798 167.471,367.962 159.021,369.348L157.605,369.572L156.197,369.781L154.318,370.035L152.436,370.263L150.549,370.465L148.516,370.653L146.646,370.8L144.654,370.927L142.787,371.02L140.923,371.087L139.53,371.121L138.144,371.142L136.819,371.148L135.472,371.141L135.01,371.136L133.308,371.103L132.116,371.068L131.571,371.048C131.011,371.027 130.452,371.002 129.893,370.974L128.91,370.921L128.07,370.87L126.787,370.783L125.344,370.67L124.595,370.605L123.757,370.528L122.78,370.431L121.461,370.29L119.917,370.108L119.147,370.01L118.622,369.94C61.059,362.253 14.891,318.582 3.474,262.277L3.239,261.09L2.955,259.579L2.689,258.062L2.439,256.54L2.206,255.012L1.989,253.478L1.79,251.939L1.609,250.395L1.444,248.846L1.295,247.267L1.199,246.139L1.071,244.412L1.03,243.782L0.93,242.013L0.887,241.098L0.867,240.61L0.814,239.101L0.782,237.765L0.762,236.427L0.756,235.069L0.761,233.92L0.78,232.504L0.814,231.055L0.874,229.343L0.941,227.924L1.04,226.215L1.16,224.51L1.339,222.399L1.503,220.733L1.754,218.52L1.965,216.867L2.116,215.769L2.36,214.126L2.623,212.491L2.832,211.276L3.004,210.32L3.25,209.022L3.391,208.305L3.7,206.805L3.847,206.115L4.228,204.413L4.525,203.156L4.699,202.441L5.07,200.971L5.248,200.286L5.705,198.602L6.047,197.393L6.255,196.679L6.685,195.245L7.142,193.78L7.652,192.213L8.179,190.657L8.724,189.112L9.286,187.576L9.865,186.051L10.462,184.535L11.076,183.028L11.589,181.809L12.228,180.334L12.884,178.867L13.557,177.41L14.247,175.963L14.953,174.524L15.675,173.096L16.414,171.677L17.169,170.268L17.681,169.334L18.2,168.404L18.727,167.479L19.26,166.559L19.8,165.643L20.347,164.732L20.901,163.825L21.462,162.923L21.995,162.081C24.011,158.918 26.155,155.843 28.418,152.865L29.105,151.969L30.119,150.673L31.137,149.404L32.163,148.156L33.2,146.924L34.249,145.708L35.309,144.506L36.64,143.037L37.833,141.756L39.206,140.322L40.549,138.958L41.845,137.678L43.198,136.376L44.743,134.932L46.31,133.513L47.5,132.464L48.702,131.429L49.916,130.407L51.142,129.4L52.38,128.406L53.63,127.427L54.892,126.462L56.165,125.511L57.449,124.575L58.745,123.654L60.052,122.747L61.369,121.855L62.698,120.978L64.037,120.117L64.936,119.551L65.84,118.992C65.398,118.817 65.044,118.669 64.75,118.492L64.722,118.492C55.281,115.374 48.341,108.758 41.958,101.287C30.577,85.318 46.666,69.791 47.751,53.967C48.723,40.557 42.782,25.706 49.694,12.56C53.84,3.853 62.664,0.531 72.427,0.768C81.014,1.208 89.338,4.267 95.161,8.707C107.57,18.236 119.159,31.999 128.776,45.146C128.776,44.116 130.394,42.292 132.157,41.293C133.276,40.617 134.598,40.263 136.01,40.263L144.597,40.263L144.768,40.265ZM233.106,301.981L233,302.134C230.483,303.681 227.993,305.253 225.474,306.802C223.721,307.892 224.466,310.555 226.475,310.623C225.699,311.543 224.907,312.453 224.102,313.349L223.767,313.36C222.62,313.389 221.681,314.328 221.65,315.475C221.645,315.641 221.659,315.803 221.69,315.957C200.328,338.368 170.192,352.34 136.819,352.34C129.603,352.34 122.539,351.687 115.679,350.436L134.186,327.506L164.772,329.681L159.508,320.888L165.184,312.093L175.802,312.975L170.243,303.566L173.565,295.625L181.093,299.3L186.535,320.035L200.475,303.418L218.297,304.448C218.326,304.8 218.445,305.153 218.65,305.447C219.327,306.417 220.62,306.683 221.621,306.066C224.267,304.448 226.915,302.799 229.591,301.155C230.762,301.438 231.935,301.697 233.106,301.981ZM107.895,341.033L113.364,348.678L110.159,337.003L107.895,341.033ZM104.571,345.769L100.63,345.592L99.878,346.393C99.065,346.123 98.255,345.844 97.449,345.556L97.102,344.532L93.718,342.975L96.925,341.004L97.306,337.591L100.219,339.797L103.749,338.798L102.571,342.768L104.571,345.769ZM85.131,273.303L79.354,270.4L80.178,272.648C80.193,272.692 80.209,272.736 80.222,272.78C81.181,275.96 79.411,279.432 76.27,280.531C74.342,281.206 72.35,280.866 70.84,279.792C71.014,281.638 70.315,283.537 68.77,284.872C67.596,285.888 66.126,286.394 64.662,286.394C62.977,286.394 61.301,285.725 60.085,284.426C60.052,284.392 60.022,284.357 59.993,284.321L57.193,280.956L57.193,288.369C57.193,291.684 54.444,294.418 50.997,294.418C47.547,294.418 44.798,291.684 44.798,288.369L44.798,280.956L41.998,284.321C41.969,284.357 41.939,284.392 41.906,284.426C39.633,286.853 35.746,287.057 33.221,284.874L33.221,284.872C31.676,283.537 30.977,281.638 31.152,279.792C30.457,280.285 29.66,280.624 28.814,280.779C39.992,307.142 60.547,328.582 86.29,340.908L91.19,337.739L92.396,325.651L101.189,333.062L108.66,330.739L105.749,320.828L76.779,308.771L84.691,302.624L82.543,295.744L74.367,291.949L81.926,286.273L82.749,277.684L87.308,281.333L85.131,273.303ZM117.923,310.182L108.954,306.066L117.395,300.861L118.423,291.83L126.187,297.713L135.451,295.037L132.392,305.535L137.657,313.475L127.187,312.975L121.099,319.533L117.923,310.182ZM158.478,319.476L151.155,307.801L156.126,310.066L158.478,319.476ZM156.891,305.007L159.832,303.212L160.184,300.067L162.889,302.125L166.096,301.183L165.036,304.83L166.861,307.595L163.243,307.419L161.125,309.711L160.007,306.448L156.891,305.007ZM169.832,294.508L163.95,296.566L155.684,289.92L154.539,300.772L148.686,303.77L158.714,273.038L151.862,274.421L157.803,267.421L179.124,269.362L177.948,279.302L160.979,290.508L169.832,294.508ZM223.767,299.771C222.62,300.476 221.444,301.212 220.268,301.948L218.827,299.713C219.267,299.448 219.709,299.183 220.151,298.889C221.356,299.183 222.561,299.477 223.767,299.771ZM91.073,297.625L88.014,301.654L94.543,297.832L91.073,297.625ZM233.484,268.529C233.452,268.813 233.476,269.107 233.561,269.393C233.915,270.626 234.266,271.833 234.65,273.038C234.149,272.774 233.649,272.509 233.179,272.244C232.12,271.685 230.856,272.098 230.356,273.186C229.885,274.216 230.296,275.48 231.296,276.039C232.973,276.95 234.65,277.832 236.355,278.744C236.708,279.949 237.06,281.125 237.414,282.332C235.855,281.479 234.297,280.656 232.737,279.803C231.678,279.244 230.414,279.657 229.914,280.745C229.414,281.773 229.854,283.068 230.856,283.596C233.619,285.068 236.355,286.567 239.12,288.037C239.398,288.992 239.678,289.929 239.958,290.875L239.692,291.362C237.18,290.008 234.692,288.656 232.178,287.303C230.296,286.304 228.325,288.419 229.414,290.214C231.002,292.802 232.591,295.39 234.178,297.978C232.973,297.682 231.737,297.39 230.531,297.123C228.915,294.449 227.268,291.772 225.65,289.124C225.032,288.125 223.738,287.802 222.737,288.331C221.681,288.89 221.356,290.183 221.975,291.213C222.885,292.712 223.798,294.214 224.738,295.744C223.533,295.448 222.326,295.154 221.091,294.862C220.12,293.244 219.121,291.624 218.12,289.979C217.503,289.009 216.208,288.655 215.209,289.213C214.15,289.772 213.827,291.067 214.444,292.068C214.709,292.537 215.003,293.008 215.297,293.478C215.092,293.448 214.886,293.39 214.679,293.332L210.092,286.304L212.822,278.824C213.317,278.89 213.844,278.908 214.402,278.879C216.559,278.765 218.855,278.096 221.292,276.872C223.728,275.649 226.155,274.173 228.572,272.444C230.296,271.21 231.934,269.906 233.484,268.529ZM202.504,293.509L195.447,293.184L191.358,297.567L189.212,291.301L183.182,288.507L188.858,285.008L189.565,278.948L194.77,282.891L201.006,281.098L198.946,288.154L202.504,293.509ZM92.631,293.39L89.278,293.213L87.308,295.331L86.279,292.331L83.396,291.007L86.132,289.332L86.455,286.419L88.926,288.302L91.926,287.449L90.927,290.83L92.631,293.39ZM95.661,275.126L103.66,275.774L102.836,292.331L98.924,294.566L95.807,289.772L98.543,281.596L89.338,283.271L95.661,275.126ZM250.218,264.997C249.256,268.649 248.122,272.23 246.825,275.733L246.796,275.714C245.766,275.096 244.5,275.42 243.912,276.479C243.09,278.039 242.236,279.569 241.383,281.125C241.03,279.949 240.678,278.744 240.325,277.569L243.059,272.538C243.589,271.508 243.266,270.215 242.265,269.627C241.266,269.01 239.973,269.331 239.414,270.392C239.149,270.861 238.885,271.362 238.618,271.833C238.267,270.626 237.884,269.42 237.531,268.215C237.5,268.112 237.462,268.012 237.417,267.916C240.34,268.728 244.607,267.755 250.218,264.997ZM98.806,255.804L106.454,245.776L120.717,247.071L112.218,252.716L135.51,262.245L139.303,278.155L128.657,280.979L104.542,260.512L103.66,269.596L100.984,266.009L104.69,255.07L98.806,255.804ZM33.617,275.518L35.978,260.906L44.798,256.088L45.284,265.759L33.617,275.518ZM68.374,275.516L56.423,266.816L57.193,256.088L66.785,261.932L68.374,275.516ZM214.728,273.6C214.728,273.785 214.769,273.922 214.85,274.009C215.816,275.042 218.354,274.368 222.464,271.985C226.573,269.602 230.261,266.812 233.527,263.614C233.354,262.196 233.577,260.586 234.196,258.783C228.328,262.102 224.081,264.691 221.456,266.548C218.83,268.406 216.917,270.057 215.717,271.502C215.551,271.701 215.407,271.892 215.285,272.075L214.728,273.6ZM152.031,214.028C152.456,215.654 153.275,217.116 154.488,218.414C157.637,221.782 161.83,223.407 167.067,223.287C172.304,223.166 176.839,221.37 180.671,217.898C185.526,219.057 190.424,219.166 195.366,218.224C195.159,218.644 194.965,219.078 194.783,219.524C194.032,221.362 193.722,223.342 193.853,225.462C193.983,227.583 194.728,229.37 196.088,230.825C197.197,232.012 198.279,232.905 199.335,233.506C201.648,235.277 204.346,236.138 207.428,236.09C209.089,236.064 211.139,235.712 213.577,235.034C212.239,237.104 211.408,239.223 211.085,241.389C210.65,244.312 211.487,246.904 213.599,249.162C214.422,250.043 215.176,250.762 215.862,251.319C216.548,251.877 217.622,252.475 219.084,253.115C220.546,253.755 222.082,254.144 223.692,254.281C224.739,254.37 225.987,254.339 227.436,254.186C224.035,256.182 221.317,257.921 219.283,259.403C216.37,261.525 213.79,263.938 211.543,266.641C211.381,266.837 211.224,267.033 211.073,267.229L196.505,270.363L181.418,258.158L184.8,253.892L193.977,254.57L189.181,246.452L192.536,237.512L183.007,240.159L175.802,234.426L175.154,243.424L168.771,246.775L177.446,224.453L153.743,230.337L140.422,219.337L145.892,213.72L152.031,214.028ZM95.955,263.598C95.955,263.598 93.726,264.232 93.726,264.232C94.485,265.959 94.443,268.037 93.413,269.845L96.72,269.979C96.72,269.979 94.896,267.246 94.896,267.246L95.955,263.598ZM253.332,248.338C252.841,252.698 252.11,256.985 251.153,261.187C251.099,261.165 251.023,261.179 250.924,261.227C244.251,264.213 240.047,265.042 238.311,263.714C238.505,263.481 238.679,263.271 238.834,263.085C241.856,259.449 243.261,256.375 243.052,253.862C246.115,252.19 249.542,250.349 253.332,248.338ZM169.743,249.334L176.007,252.188L179.241,263.569L169.743,249.334ZM137.657,250.424L144.568,246.216L145.391,238.864L151.685,243.658L159.242,241.481L156.745,250.011L161.037,256.48L152.508,256.069L147.568,261.394L144.979,253.804L137.657,250.424ZM93.065,254.373C92.686,254.936 92.218,255.437 91.68,255.854L93.838,257.628C93.838,257.628 93.065,254.373 93.065,254.373ZM19.892,243.913L30.396,239.854L39.892,245.33L30.696,251.158L20.154,246.913C20.055,245.921 19.967,244.919 19.892,243.913ZM177.771,247.63L179.977,246.275L180.242,243.924L182.271,245.453L184.683,244.775L183.889,247.511L185.242,249.569L182.534,249.452L180.947,251.158L180.094,248.718L177.771,247.63ZM85.767,245.33L71.954,250.362L62.099,245.33L72.204,240.111L85.767,245.33ZM191.723,131.471C228.806,151.18 254.074,190.205 254.074,235.085C254.074,236.69 254.042,238.287 253.978,239.877C247.527,243.241 242.213,246.046 238.033,248.292C235.439,249.199 233,249.761 230.717,249.976C228.259,250.209 226.213,250.089 224.578,249.616C222.943,249.143 221.634,248.624 220.652,248.057C219.669,247.49 218.856,246.862 218.212,246.173C217.317,245.216 217.014,244.077 217.301,242.755C217.588,241.434 218.293,240.097 219.417,238.746C220.075,237.953 220.824,237.214 221.665,236.529C223.317,238.12 225.404,239.472 227.926,240.585C230.448,241.699 233.159,242.178 236.059,242.023C238.96,241.868 241.281,240.742 243.024,238.645C244.341,237.06 244.881,235.414 244.644,233.707C244.406,232 243.518,230.324 241.979,228.678C239.94,226.496 237.189,225.271 233.729,225.002C230.268,224.733 226.842,225.338 223.45,226.816C221.467,227.681 219.7,228.73 218.148,229.965C213.855,231.352 210.312,231.974 207.521,231.831C208.865,230.539 210.285,228.932 211.78,227.01C213.276,225.089 214.631,223.215 215.845,221.388C217.059,219.561 218.424,217.939 219.939,216.523C221.454,215.106 222.9,214.342 224.277,214.231C224.82,213.578 225.076,212.619 225.045,211.354C225.015,210.089 224.606,209.036 223.819,208.194C222.209,206.471 220.256,206.055 217.962,206.946C212.586,209.015 208.219,210.612 204.862,211.739C204.82,211.743 204.769,211.759 204.711,211.787L204.684,211.799C203.091,212.331 201.73,212.755 200.602,213.071C199.943,212.847 199.199,213.123 198.37,213.898C193.404,215.095 188.55,215.169 183.809,214.123C186.359,210.16 186.946,206.078 185.571,201.877C187.165,201.91 190.361,202.071 195.157,202.359C199.953,202.648 203.667,202.835 206.299,202.922C207.009,202.8 207.696,202.258 208.36,201.296C209.024,200.334 209.517,199.233 209.839,197.992C210.16,196.751 210.105,195.943 209.673,195.569C208.373,194.53 206.321,192.688 203.518,190.042C200.716,187.395 198.903,185.632 198.08,184.751C197.937,184.598 197.831,184.441 197.762,184.28C198.689,183.246 199.349,182.126 199.744,180.919C200.138,179.712 199.996,178.745 199.316,178.018C198.743,177.405 197.791,177.311 196.459,177.735C195.126,178.158 193.957,178.976 192.95,180.188C191.981,181.353 191.342,182.65 191.033,184.08C187.486,185.745 183.645,187.358 179.508,188.919C179.404,188.954 179.327,189.019 179.278,189.112C174.315,190.568 171.192,190.206 169.908,188.026C174.936,186.449 178.902,183.913 181.808,180.418C183.899,177.901 185.076,175.286 185.337,172.572C185.401,171.908 185.394,171.259 185.316,170.622C185.493,170.576 185.671,170.513 185.845,170.431L199.215,167.344C200.462,166.759 201.087,165.457 200.609,164.438L198.877,160.743C198.4,159.724 196.999,159.371 195.752,159.955L184.267,165.339C183.898,165.512 183.584,165.747 183.336,166.02C183.099,165.714 182.841,165.412 182.562,165.113C180.594,163.008 177.908,161.828 174.502,161.575C171.096,161.321 167.65,161.97 164.163,163.523C160.676,165.075 157.751,167.273 155.388,170.116C155.199,170.343 155.016,170.57 154.839,170.797C154.665,170.753 154.482,170.724 154.292,170.711C150.215,172.586 143.962,171.909 139.966,169.925C144.423,167.834 149.516,165.249 155.246,162.171C156.873,161.27 159.768,159.657 163.931,157.332C168.095,155.007 171.178,153.33 173.181,152.303C175.183,151.276 177.741,150.029 180.854,148.56C183.967,147.092 186.676,146.028 188.982,145.369C191.287,144.71 193.443,144.353 195.449,144.298C196.687,146.062 197.842,147.518 198.916,148.667C199.846,149.662 200.832,150.123 201.874,150.048C202.915,149.974 203.824,149.471 204.598,148.539C205.102,147.933 205.304,147.181 205.206,146.283C205.107,145.385 204.771,144.63 204.199,144.018C202.41,142.104 200.136,140.772 197.379,140.023C196.636,138.965 195.684,137.528 194.523,135.713C193.554,134.2 192.621,132.786 191.723,131.471ZM90.909,245.299L90.892,245.226C90.821,245.263 90.748,245.297 90.675,245.33C90.767,245.374 90.859,245.418 90.949,245.466L90.909,245.299ZM136.951,215.603L134.158,214.25L133.128,238.953L124.099,244.982L114.747,230.777L121.159,213.484L107.513,216.397L113.805,208.336L131.216,209.631L135.804,211.22L136.951,215.603ZM108.423,237.6L102.159,237.308L98.513,241.218L96.601,235.629L91.221,233.158L96.278,230.041L96.897,224.63L101.543,228.16L107.101,226.542L105.276,232.835L108.423,237.6ZM240.201,231.794C239.056,230.569 236.896,230.239 233.722,230.806C230.547,231.372 227.424,232.608 224.351,234.516C228.573,236.919 232.697,237.325 236.723,235.734C239.093,234.835 240.355,233.764 240.51,232.52C240.518,232.266 240.415,232.024 240.201,231.794ZM33.617,215.144L45.803,224.221L44.798,234.574L35.216,230.049L33.617,215.144ZM68.374,215.144L65.894,229.603L57.193,234.572L57.247,224.607L68.374,215.144ZM200.837,216.759C199.634,217.982 198.807,219.32 198.358,220.773C197.877,222.328 198.12,223.622 199.086,224.656C199.623,225.23 200.196,225.557 200.805,225.637C201.415,225.717 202.061,225.549 202.743,225.135C203.426,224.72 204.093,224.223 204.744,223.643C205.395,223.063 206.108,222.285 206.885,221.311C207.661,220.336 208.38,219.41 209.041,218.533C209.702,217.656 210.471,216.629 211.347,215.453C212.223,214.277 212.99,213.293 213.649,212.501C209.335,213.982 205.759,215.141 202.92,215.98C202.225,216.26 201.531,216.52 200.837,216.759ZM81.367,214.368L80.453,215.505C80.529,216.287 80.46,217.092 80.222,217.88C80.209,217.926 80.195,217.97 80.178,218.015L78.666,222.142L85.066,218.437C86.073,217.855 87.185,217.602 88.282,217.649L88.425,215.19L81.367,214.368ZM64.079,143.141L70.546,145.608L72.309,151.812L72.104,167.459L61.28,174.605L73.22,179.604L77.192,191.927L84.455,182.341L94.748,183.163L94.574,185.811L78.604,196.25L83.984,199.367L80.191,200.339L72.897,194.369L71.956,203.573L68.783,205.8L68.77,205.788C66.245,203.605 62.358,203.809 60.085,206.234C60.052,206.269 60.022,206.305 59.993,206.34L57.193,209.706L57.193,202.293C57.193,198.979 54.444,196.242 50.997,196.242C47.547,196.242 44.798,198.979 44.798,202.293L44.798,209.706L41.998,206.34C41.969,206.305 41.939,206.269 41.906,206.234C39.633,203.809 35.746,203.605 33.221,205.788C31.676,207.124 30.977,209.024 31.152,210.871C29.641,209.796 27.649,209.456 25.722,210.131C22.578,211.23 20.81,214.7 21.769,217.88C21.783,217.926 21.796,217.97 21.813,218.015L23.325,222.142L20.466,220.486C24.353,189.233 40.563,161.778 64.079,143.141ZM172.533,215.002C171.254,214.427 169.813,213.7 168.21,212.822C166.608,211.944 165.324,211.252 164.358,210.747C163.392,210.242 162.406,209.782 161.4,209.365C160.394,208.949 159.555,208.779 158.884,208.854C158.214,208.929 157.646,209.246 157.181,209.805C156.794,210.271 156.599,210.811 156.596,211.424C156.593,212.038 156.824,212.593 157.29,213.091C158.685,214.584 160.85,215.557 163.785,216.011C166.72,216.466 169.636,216.129 172.533,215.002ZM85.514,207.014L88.102,200.839L96.601,204.074L99.043,213.808L89.278,205.925L89.132,206.044L88.308,210.955L85.514,207.014ZM152.334,208.212L150.596,205.25L154.274,194.25L143.481,197.28L135.422,189.809L134.01,201.427L129.863,203.515L122.306,192.398L128.574,174.698C129.301,174.443 130.049,174.168 130.817,173.874C132.116,173.376 133.505,172.809 134.982,172.173C137.66,174.008 146.07,177.83 151.292,178.701C151.079,181.274 151.966,183.624 153.954,185.75C156.673,188.659 160.681,189.733 165.978,188.972C166.315,189.949 166.797,190.773 167.423,191.443C168.049,192.113 168.7,192.611 169.375,192.937C170.05,193.263 170.851,193.459 171.776,193.525C172.702,193.59 173.555,193.601 174.336,193.556C175.117,193.511 176.022,193.357 177.052,193.094C177.985,192.856 178.796,192.631 179.484,192.42L179.694,192.355C180.426,192.125 181.281,191.829 182.258,191.466C182.377,191.426 182.474,191.347 182.551,191.228C185.668,189.993 188.546,188.81 191.186,187.678C191.428,188.2 191.727,188.653 192.085,189.036C193.624,190.682 196.975,193.563 202.139,197.679C197.495,197.817 191.115,197.727 182.998,197.408C182.962,197.369 182.944,197.35 182.944,197.35C182.479,196.853 181.841,196.544 181.028,196.423C180.216,196.302 179.558,196.545 179.054,197.151C178.164,198.223 177.785,199.248 177.918,200.227C178.051,201.205 178.655,201.698 179.731,201.705C179.88,201.688 180.251,201.689 180.844,201.707C181.423,203.207 181.548,204.683 181.219,206.136C180.89,207.589 180.261,208.875 179.332,209.994C178.751,210.693 178.096,211.358 177.369,211.989C175.578,211.216 173.562,210.205 171.323,208.954C169.084,207.704 167.255,206.671 165.836,205.857C164.417,205.044 162.947,204.352 161.427,203.782C159.906,203.212 158.519,203.092 157.264,203.422C156.009,203.753 154.859,204.547 153.813,205.806C153.177,206.571 152.684,207.373 152.334,208.212ZM82.514,210.544L80.985,208.221L81.867,205.193L79.19,205.955L76.956,204.28L76.662,206.868L74.192,208.398L76.81,209.574L77.123,210.504C77.62,210.767 78.073,211.095 78.475,211.475L79.486,210.398L82.514,210.544ZM146.862,208.692L143.215,208.544L141.127,210.807L140.01,207.573L136.892,206.132L139.834,204.309L140.185,201.192L142.862,203.219L146.098,202.31L145.039,205.955L146.862,208.692ZM103.629,192.104L104.248,186.693L108.894,190.222L114.453,188.605L112.601,194.897L115.777,199.663L109.482,199.367L105.835,203.281L103.923,197.691L98.543,195.22L103.629,192.104ZM180.538,168.891C179.608,167.896 177.81,167.557 175.146,167.876C172.481,168.195 169.523,169.213 166.271,170.929C163.02,172.645 160.348,174.762 158.257,177.278C157.211,178.537 156.51,179.746 156.154,180.906C155.798,182.066 155.889,182.934 156.426,183.508C157.785,184.962 160.508,185.102 164.595,183.927C164.687,183.409 164.965,182.871 165.43,182.311C166.244,181.333 167.286,180.709 168.557,180.44C169.828,180.171 170.825,180.335 171.546,180.93C174.5,179.247 176.925,177.264 178.823,174.98C181.147,172.184 181.719,170.154 180.538,168.891ZM77.897,171.429L78.337,167.43L81.778,170.016L85.896,168.84L84.543,173.488L86.866,177.018L82.22,176.782L79.544,179.693L78.132,175.546L74.133,173.723L77.897,171.429ZM104.406,164.868L104.407,164.903C104.52,168.589 105.453,171.371 107.206,173.246C109.532,175.734 112.511,177.05 116.143,177.194C116.957,177.226 117.833,177.196 118.773,177.103L109.924,179.399L99.925,169.899L104.406,164.868ZM94.514,161.341L96.985,162.165L98.159,168.871L95.955,167.105L95.131,178.694L90.337,172.399L94.514,161.341ZM153.543,119.016C150.093,120.606 147.225,122.776 144.94,125.525C142.268,128.741 140.835,132.337 140.641,136.311C140.447,140.286 141.387,143.383 143.463,145.604C145.896,148.207 148.958,149.26 152.65,148.763C156.342,148.266 159.117,146.899 160.976,144.662C161.867,143.59 162.166,142.457 161.874,141.264C161.718,140.393 161.447,140.191 161.06,140.657C159.898,142.055 158.039,142.95 155.483,143.341C152.927,143.732 150.933,143.162 149.502,141.631C148.357,140.406 147.916,138.944 148.179,137.245C148.443,135.545 149.31,133.81 150.782,132.039C153.455,128.823 156.87,126.402 161.028,124.774C164.431,123.442 167.866,122.85 171.33,122.999C175.25,124.207 179.082,125.614 182.814,127.209C183.237,127.577 183.643,127.97 184.033,128.387C186.252,130.76 188.946,134.391 192.116,139.28C184.956,139.192 176.009,141.946 165.274,147.542C158.884,150.92 153.032,153.794 147.716,156.163C142.401,158.533 137.229,160.506 132.201,162.082C127.173,163.659 122.832,164.408 119.179,164.33C116.894,164.281 114.974,163.873 113.417,163.106L110.713,158.752C110.774,158.617 110.845,158.48 110.926,158.34C111.617,157.142 112.59,156.114 113.845,155.255C115.099,154.396 116.154,153.94 117.01,153.887C117.317,153.599 117.468,153.233 117.465,152.789C117.462,152.346 117.318,151.971 117.031,151.665C116.208,150.784 114.78,150.753 112.748,151.572C112.104,151.832 111.485,152.143 110.89,152.507L112.042,147.785L102.984,150.225L96.424,144.019L96.043,146.373L90.279,137.638L93.918,125.938C107.211,120.704 121.682,117.829 136.819,117.829C142.494,117.829 148.076,118.233 153.543,119.016ZM83.074,163.666L76.485,157.665L83.337,148.607L95.69,149.489L95.338,154.195L88.573,158.167L92.865,160.636L83.074,163.666ZM105.469,158.718C105.343,159.015 105.228,159.318 105.124,159.628L103.07,159.548L101.308,161.429L100.396,158.724L97.779,157.519L100.248,156.018L100.544,153.43L102.778,155.108L105.455,154.343L104.571,157.371L105.469,158.718ZM75.665,135.043C76.512,134.523 77.364,134.016 78.223,133.519L79.749,134.667L84.19,133.374L82.72,138.431L85.251,142.255L80.22,142.02L77.309,145.137L75.78,140.668L71.456,138.668L75.543,136.168L75.665,135.043ZM153.862,80.436L179.889,104.287L180.419,105.288L180.29,105.606L180.195,106.039L180.189,106.092C174.413,104.148 168.461,102.581 162.366,101.421L161.821,100.432L161.261,99.409L160.126,97.318C160.038,97.141 159.95,96.995 159.89,96.847C157.125,91.759 155.303,86.083 153.862,80.436ZM126.011,79.759C123.982,85.819 121.482,91.818 117.923,97.024L117.894,97.024C117.835,97.141 117.775,97.229 117.687,97.318C117.658,97.406 117.57,97.523 117.452,97.671L117.042,98.249L116.246,99.381L115.61,100.266L115.274,100.721C108.993,101.722 102.856,103.153 96.893,104.984L96.631,104.2L98.278,101.641L126.011,79.759ZM140.465,49.848L140.627,49.852C142.334,49.909 143.98,50.645 145.127,51.938C146.303,53.174 146.951,54.849 146.862,56.556C146.803,58.291 146.038,59.908 144.803,61.086C143.509,62.26 141.863,62.879 140.128,62.819C138.421,62.762 136.775,62.026 135.628,60.733C134.452,59.497 133.804,57.82 133.864,56.115C133.952,54.35 134.717,52.763 135.95,51.587C137.096,50.519 138.581,49.913 140.141,49.852L140.465,49.848ZM212.533,14.49L212.739,14.493C220.061,14.64 222.354,22.1 218.297,30.998C205.399,42.147 189.145,48.573 172.115,49.219L171.713,49.233C178.065,33.087 191.329,20.618 207.857,15.296C209.586,14.744 211.148,14.488 212.533,14.49ZM70.673,9.257C72.254,9.253 74.061,9.626 76.074,10.442C92.16,16.971 104.454,30.352 109.63,46.91C92.543,45.117 76.633,37.47 64.545,25.293C61.224,16.382 63.823,9.274 70.673,9.257Z" style="fill:none;stroke:rgb(255,0,0);stroke-width:1px;"/>
</svg>
