<?xml version="1.0" encoding="UTF-8" standalone="no"?>
<!DOCTYPE svg PUBLIC "-//W3C//DTD SVG 1.1//EN" "http://www.w3.org/Graphics/SVG/1.1/DTD/svg11.dtd">
<svg width="100%" height="100%" viewBox="0 0 1123 794" version="1.1" xmlns="http://www.w3.org/2000/svg" xmlns:xlink="http://www.w3.org/1999/xlink" xml:space="preserve" xmlns:serif="http://www.serif.com/" style="fill-rule:evenodd;clip-rule:evenodd;stroke-linejoin:round;stroke-miterlimit:2;">
    <path d="M144.768,40.265C146.525,40.302 148.11,40.912 149.422,41.91C150.863,43.057 151.891,44.704 152.273,46.587C152.802,46.587 182.859,16.178 188.975,12.177C194.836,8.337 202.831,5.966 211.003,5.93C211.404,5.929 211.807,5.932 212.21,5.942C221.975,6.413 230.502,10.413 234.032,19.412C239.942,32.998 232.913,47.381 232.854,60.821C232.825,76.702 247.707,93.348 235.179,108.435C229.972,113.729 222.856,118.846 215.857,121.903L215.797,121.903L214.909,122.185L213.44,122.66C235.271,137.575 252.544,158.68 262.718,183.428L263.146,184.482L263.635,185.717L264.183,187.147L264.715,188.58L264.956,189.247L265.465,190.694L265.958,192.147L266.475,193.735L266.941,195.223L267.39,196.719L267.822,198.222L268.318,200.033L268.765,201.757L269.14,203.283L269.499,204.816L269.84,206.356L270.097,207.582L270.267,208.418L270.567,209.973L270.849,211.533L271.113,213.1L271.309,214.338L271.419,215.073L271.66,216.779L271.864,218.366L272.05,219.958L272.182,221.204L272.257,221.958L272.366,223.158L272.397,223.517L272.519,225.075L272.624,226.63L272.71,228.177L272.746,228.945L272.807,230.524L272.85,232.102C272.861,232.627 272.87,233.152 272.875,233.676L272.882,235.204L272.88,235.812C272.877,236.27 272.873,236.727 272.866,237.183L272.845,238.277C272.836,238.637 272.827,238.997 272.816,239.357L272.77,240.666L272.707,242.056L272.66,242.916C272.616,243.693 272.566,244.469 272.509,245.242L272.378,246.891L272.235,248.448L272.115,249.632L271.964,250.996L271.773,252.558L271.607,253.813L271.429,255.064L271.176,256.717L270.983,257.897L270.743,259.275L270.405,261.091L270.108,262.584L269.863,263.752L269.428,265.714L269.074,267.212L268.795,268.344L268.42,269.801L268.042,271.21L267.725,272.344L267.361,273.601L266.892,275.16L266.363,276.838L265.822,278.487L265.452,279.56L265.025,280.738L264.863,281.178C264.752,281.514 264.639,281.848 264.5,282.186C263.205,285.714 261.764,289.155 260.177,292.537C259.764,293.448 259.353,294.331 258.911,295.213C258.206,296.654 257.441,298.096 256.707,299.508C256.647,299.565 256.619,299.654 256.588,299.713C255.177,302.329 253.677,304.919 252.09,307.419L251.385,308.513L250.98,309.103L250.316,310.136L249.767,310.943L249.354,311.546L249.354,311.565C249.088,312.005 248.794,312.416 248.472,312.829C247.32,314.5 246.13,316.138 244.904,317.745L244.816,317.86C243.221,319.948 241.565,321.984 239.854,323.976L239.073,324.871L238.079,325.991L237.478,326.655L236.874,327.314L236.265,327.97L235.652,328.622L235.034,329.27L234.413,329.913L233.787,330.553L233.157,331.188L232.523,331.819L231.885,332.446L231.243,333.069L230.597,333.688L229.946,334.303L229.292,334.913L228.634,335.519L227.305,336.718L225.961,337.9L224.601,339.064L223.226,340.21L221.835,341.339L220.43,342.45L219.251,343.358L218.294,344.082L217.12,344.95L216.125,345.672L214.957,346.501L213.924,347.22L212.763,348.011L211.691,348.725L210.538,349.478L209.428,350.187L208.283,350.903L207.134,351.605L205.999,352.284L204.81,352.979L203.686,353.621L202.128,354.488L200.557,355.336L199.718,355.777L198.921,356.19L198.122,356.597L197.319,356.999L196.514,357.396L195.706,357.788L194.894,358.175L194.08,358.556L193.263,358.932L192.443,359.303L191.621,359.668L190.795,360.029L189.967,360.383L189.136,360.733L188.303,361.077L187.466,361.416L186.627,361.749L185.472,362.197L184.208,362.674L183.508,362.932C175.658,365.798 167.471,367.962 159.021,369.348L157.605,369.572L156.197,369.781L154.318,370.035L152.436,370.263L150.549,370.465L148.516,370.653L146.646,370.8L144.654,370.927L142.787,371.02L140.923,371.087L139.53,371.121L138.144,371.142L136.819,371.148L135.472,371.141L135.01,371.136L133.308,371.103L132.116,371.068L131.571,371.048C131.011,371.027 130.452,371.002 129.893,370.974L128.91,370.921L128.07,370.87L126.787,370.783L125.344,370.67L124.595,370.605L123.757,370.528L122.78,370.431L121.461,370.29L119.917,370.108L119.147,370.01L118.622,369.94C61.059,362.253 14.891,318.582 3.474,262.277L3.239,261.09L2.955,259.579L2.689,258.062L2.439,256.54L2.206,255.012L1.989,253.478L1.79,251.939L1.609,250.395L1.444,248.846L1.295,247.267L1.199,246.139L1.071,244.412L1.03,243.782L0.93,242.013L0.887,241.098L0.867,240.61L0.814,239.101L0.782,237.765L0.762,236.427L0.756,235.069L0.761,233.92L0.78,232.504L0.814,231.055L0.874,229.343L0.941,227.924L1.04,226.215L1.16,224.51L1.339,222.399L1.503,220.733L1.754,218.52L1.965,216.867L2.116,215.769L2.36,214.126L2.623,212.491L2.832,211.276L3.004,210.32L3.25,209.022L3.391,208.305L3.7,206.805L3.847,206.115L4.228,204.413L4.525,203.156L4.699,202.441L5.07,200.971L5.248,200.286L5.705,198.602L6.047,197.393L6.255,196.679L6.685,195.245L7.142,193.78L7.652,192.213L8.179,190.657L8.724,189.112L9.286,187.576L9.865,186.051L10.462,184.535L11.076,183.028L11.589,181.809L12.228,180.334L12.884,178.867L13.557,177.41L14.247,175.963L14.953,174.524L15.675,173.096L16.414,171.677L17.169,170.268L17.681,169.334L18.2,168.404L18.727,167.479L19.26,166.559L19.8,165.643L20.347,164.732L20.901,163.825L21.462,162.923L21.995,162.081C24.011,158.918 26.155,155.843 28.418,152.865L29.105,151.969L30.119,150.673L31.137,149.404L32.163,148.156L33.2,146.924L34.249,145.708L35.309,144.506L36.64,143.037L37.833,141.756L39.206,140.322L40.549,138.958L41.845,137.678L43.198,136.376L44.743,134.932L46.31,133.513L47.5,132.464L48.702,131.429L49.916,130.407L51.142,129.4L52.38,128.406L53.63,127.427L54.892,126.462L56.165,125.511L57.449,124.575L58.745,123.654L60.052,122.747L61.369,121.855L62.698,120.978L64.037,120.117L64.936,119.551L65.84,118.992C65.398,118.817 65.044,118.669 64.75,118.492L64.722,118.492C55.281,115.374 48.341,108.758 41.958,101.287C30.577,85.318 46.666,69.791 47.751,53.967C48.723,40.557 42.782,25.706 49.694,12.56C53.84,3.853 62.664,0.531 72.427,0.768C81.014,1.208 89.338,4.267 95.161,8.707C107.57,18.236 119.159,31.999 128.776,45.146C128.776,44.116 130.394,42.292 132.157,41.293C133.276,40.617 134.598,40.263 136.01,40.263L144.597,40.263L144.768,40.265ZM233.106,301.981L233,302.134C230.483,303.681 227.993,305.253 225.474,306.802C223.721,307.892 224.466,310.555 226.475,310.623C225.699,311.543 224.907,312.453 224.102,313.349L223.767,313.36C222.62,313.389 221.681,314.328 221.65,315.475C221.645,315.641 221.659,315.803 221.69,315.957C200.328,338.368 170.192,352.34 136.819,352.34C129.603,352.34 122.539,351.687 115.679,350.436L134.186,327.506L164.772,329.681L159.508,320.888L165.184,312.093L175.802,312.975L170.243,303.566L173.565,295.625L181.093,299.3L186.535,320.035L200.475,303.418L218.297,304.448C218.326,304.8 218.445,305.153 218.65,305.447C219.327,306.417 220.62,306.683 221.621,306.066C224.267,304.448 226.915,302.799 229.591,301.155C230.762,301.438 231.935,301.697 233.106,301.981ZM107.895,341.033L113.364,348.678L110.159,337.003L107.895,341.033ZM104.571,345.769L100.63,345.592L99.878,346.393C99.065,346.123 98.255,345.844 97.449,345.556L97.102,344.532L93.718,342.975L96.925,341.004L97.306,337.591L100.219,339.797L103.749,338.798L102.571,342.768L104.571,345.769ZM85.131,273.303L79.354,270.4L80.178,272.648C80.193,272.692 80.209,272.736 80.222,272.78C81.181,275.96 79.411,279.432 76.27,280.531C74.342,281.206 72.35,280.866 70.84,279.792C71.014,281.638 70.315,283.537 68.77,284.872C67.596,285.888 66.126,286.394 64.662,286.394C62.977,286.394 61.301,285.725 60.085,284.426C60.052,284.392 60.022,284.357 59.993,284.321L57.193,280.956L57.193,288.369C57.193,291.684 54.444,294.418 50.997,294.418C47.547,294.418 44.798,291.684 44.798,288.369L44.798,280.956L41.998,284.321C41.969,284.357 41.939,284.392 41.906,284.426C39.633,286.853 35.746,287.057 33.221,284.874L33.221,284.872C31.676,283.537 30.977,281.638 31.152,279.792C30.457,280.285 29.66,280.624 28.814,280.779C39.992,307.142 60.547,328.582 86.29,340.908L91.19,337.739L92.396,325.651L101.189,333.062L108.66,330.739L105.749,320.828L76.779,308.771L84.691,302.624L82.543,295.744L74.367,291.949L81.926,286.273L82.749,277.684L87.308,281.333L85.131,273.303ZM117.923,310.182L108.954,306.066L117.395,300.861L118.423,291.83L126.187,297.713L135.451,295.037L132.392,305.535L137.657,313.475L127.187,312.975L121.099,319.533L117.923,310.182ZM158.478,319.476L151.155,307.801L156.126,310.066L158.478,319.476ZM156.891,305.007L159.832,303.212L160.184,300.067L162.889,302.125L166.096,301.183L165.036,304.83L166.861,307.595L163.243,307.419L161.125,309.711L160.007,306.448L156.891,305.007ZM169.832,294.508L163.95,296.566L155.684,289.92L154.539,300.772L148.686,303.77L158.714,273.038L151.862,274.421L157.803,267.421L179.124,269.362L177.948,279.302L160.979,290.508L169.832,294.508ZM223.767,299.771C222.62,300.476 221.444,301.212 220.268,301.948L218.827,299.713C219.267,299.448 219.709,299.183 220.151,298.889C221.356,299.183 222.561,299.477 223.767,299.771ZM91.073,297.625L88.014,301.654L94.543,297.832L91.073,297.625ZM233.86,270.43C234.115,271.306 234.374,272.172 234.65,273.038C234.149,272.774 233.649,272.509 233.179,272.244C232.12,271.685 230.856,272.098 230.356,273.186C229.885,274.216 230.296,275.48 231.296,276.039C232.973,276.95 234.65,277.832 236.355,278.744C236.708,279.949 237.06,281.125 237.414,282.332C235.855,281.479 234.297,280.656 232.737,279.803C231.678,279.244 230.414,279.657 229.914,280.745C229.414,281.773 229.854,283.068 230.856,283.596C233.619,285.068 236.355,286.567 239.12,288.037C239.398,288.992 239.678,289.929 239.958,290.875L239.692,291.362C237.18,290.008 234.692,288.656 232.178,287.303C230.296,286.304 228.325,288.419 229.414,290.214C231.002,292.802 232.591,295.39 234.178,297.978C232.973,297.682 231.737,297.39 230.531,297.123C228.915,294.449 227.268,291.772 225.65,289.124C225.032,288.125 223.738,287.802 222.737,288.331C221.681,288.89 221.356,290.183 221.975,291.213C222.885,292.712 223.798,294.214 224.738,295.744C223.533,295.448 222.326,295.154 221.091,294.862C220.12,293.244 219.121,291.624 218.12,289.979C217.503,289.009 216.208,288.655 215.209,289.213C214.15,289.772 213.827,291.067 214.444,292.068C214.709,292.537 215.003,293.008 215.297,293.478C215.092,293.448 214.886,293.39 214.679,293.332L210.092,286.304L215.842,270.548C216.635,271.352 217.401,271.949 218.141,272.339C218.972,272.776 220.211,273.047 221.857,273.153C223.504,273.258 225.683,272.93 228.396,272.169C229.973,271.727 231.795,271.147 233.86,270.43ZM202.504,293.509L195.447,293.184L191.358,297.567L189.212,291.301L183.182,288.507L188.858,285.008L189.565,278.948L194.77,282.891L201.006,281.098L198.946,288.154L202.504,293.509ZM92.631,293.39L89.278,293.213L87.308,295.331L86.279,292.331L83.396,291.007L86.132,289.332L86.455,286.419L88.926,288.302L91.926,287.449L90.927,290.83L92.631,293.39ZM95.661,275.126L103.66,275.774L102.836,292.331L98.924,294.566L95.807,289.772L98.543,281.596L89.338,283.271L95.661,275.126ZM212.07,145.188C237.739,166.7 254.074,199 254.074,235.085C254.074,249.374 251.513,263.07 246.825,275.733L246.796,275.714C245.766,275.096 244.5,275.42 243.912,276.479C243.09,278.039 242.236,279.569 241.383,281.125C241.03,279.949 240.678,278.744 240.325,277.569L243.059,272.538C243.589,271.508 243.266,270.215 242.265,269.627C241.266,269.01 239.973,269.331 239.414,270.392C239.149,270.861 238.885,271.362 238.618,271.833C238.345,270.894 238.053,269.956 237.77,269.018C238.077,268.904 238.388,268.787 238.703,268.668C238.917,268.596 239.029,268.415 239.039,268.124C239.103,267.491 239.183,266.421 239.278,264.917C239.328,264.67 239.226,264.561 238.972,264.59C234.001,266.398 229.867,267.571 226.57,268.108C223.273,268.645 221.318,268.586 220.706,267.932C220.135,267.321 220.247,266.537 221.042,265.581C222.146,264.253 224.092,262.722 226.881,260.989C229.67,259.255 235.804,255.931 245.282,251.017C245.455,250.901 245.566,250.744 245.616,250.546C245.665,250.348 245.628,250.183 245.506,250.052L240.611,244.816C240.326,244.51 239.989,244.452 239.602,244.639C238.868,245.059 238.437,245.3 238.308,245.362C239.686,242.22 239.192,239.384 236.827,236.853C234.991,234.889 232.612,233.673 229.688,233.205C226.764,232.736 223.837,232.943 220.909,233.824C217.98,234.706 215.154,235.973 212.432,237.627C212.259,237.732 212.088,237.838 211.92,237.944C202.869,241.183 197.572,241.978 196.029,240.327C195.376,239.629 195.239,238.705 195.618,237.554C195.996,236.403 196.596,235.264 197.418,234.136C198.24,233.008 199.102,231.647 200.003,230.052C200.905,228.457 201.44,227.048 201.61,225.824C205.073,228.425 208.276,229.694 211.218,229.63C214.161,229.566 216.427,228.578 218.016,226.666C219.209,225.231 219.804,223.635 219.801,221.876C219.799,220.117 219.104,218.496 217.718,217.012C215.27,214.394 211.784,213.073 207.258,213.048L231.881,200.249C232.054,200.133 232.154,199.989 232.181,199.818C232.208,199.646 232.161,199.495 232.038,199.364L227.205,194.193C226.919,193.887 226.583,193.829 226.196,194.016L188.672,213.464C184.515,214.827 181.043,215.612 178.256,215.819C175.054,216.056 172.943,215.629 171.923,214.539C171.311,213.884 171.402,213.079 172.197,212.122C173.389,210.688 175.228,209.217 177.713,207.711C180.198,206.204 185.965,203.066 195.016,198.296L198.381,201.895C198.666,202.201 199.003,202.26 199.39,202.072L202.687,200.33C202.86,200.214 202.971,200.057 203.021,199.859C203.07,199.661 203.033,199.496 202.911,199.365L199.668,195.896C202.641,194.359 207.747,191.692 214.986,187.895C215.2,187.823 215.322,187.677 215.35,187.457C215.379,187.237 215.332,187.061 215.21,186.931L210.377,181.76C210.091,181.454 209.733,181.422 209.301,181.663C201.719,185.595 196.57,188.266 193.856,189.678L191.408,187.06C191.123,186.754 190.787,186.696 190.399,186.883L187.036,188.705C186.907,188.768 186.818,188.898 186.769,189.096C186.719,189.295 186.756,189.459 186.878,189.59L189.203,192.077C183.682,194.963 179.452,197.236 176.513,198.895C171.892,200.544 168.02,201.622 164.898,202.131C161.601,202.668 159.646,202.609 159.034,201.954C158.463,201.344 158.575,200.56 159.37,199.604C160.474,198.276 162.507,196.687 165.469,194.838C168.431,192.989 175.061,189.393 185.358,184.049C185.531,183.933 185.642,183.776 185.691,183.578C185.74,183.38 185.704,183.215 185.582,183.084L180.748,177.914C180.463,177.608 180.104,177.576 179.673,177.817C173.34,181.079 168.469,183.695 165.058,185.667C160.128,187.519 156.016,188.689 152.72,189.178C149.424,189.667 147.369,189.475 146.553,188.602C145.982,187.991 146.094,187.207 146.888,186.251C147.169,185.913 147.51,185.558 147.912,185.187C148.873,184.933 149.63,184.326 149.924,183.546C150.802,182.899 151.823,182.212 152.988,181.485C155.95,179.636 162.579,176.04 172.876,170.697C173.05,170.581 173.161,170.424 173.21,170.226C173.259,170.027 173.223,169.863 173.1,169.732L168.267,164.561C167.981,164.256 167.645,164.197 167.258,164.385C160.623,167.825 155.567,170.57 152.09,172.622C150.443,173.593 149.067,174.432 147.961,175.137C147.746,175.087 147.521,175.053 147.29,175.038C141.928,177.401 133.68,176.508 128.442,173.964L128.735,173.046C129.144,172.896 129.559,172.74 129.979,172.579C136.99,169.892 146.272,165.445 157.826,159.239C159.68,158.212 162.981,156.373 167.727,153.723C172.472,151.072 175.987,149.161 178.27,147.99C180.553,146.819 183.468,145.397 187.017,143.724C190.565,142.05 193.653,140.838 196.281,140.086C198.909,139.335 201.367,138.928 203.653,138.865C205.064,140.876 206.381,142.536 207.605,143.845C208.665,144.98 209.789,145.505 210.977,145.42C211.357,145.393 211.722,145.316 212.07,145.188ZM98.806,255.804L106.454,245.776L120.717,247.071L112.218,252.716L135.51,262.245L139.303,278.155L128.657,280.979L104.542,260.512L103.66,269.596L100.984,266.009L104.69,255.07L98.806,255.804ZM33.617,275.518L35.978,260.906L44.798,256.088L45.284,265.759L33.617,275.518ZM68.374,275.516L56.423,266.816L57.193,256.088L66.785,261.932L68.374,275.516ZM190.37,243.284C191.152,244.055 191.885,244.62 192.567,244.979C193.398,245.416 194.648,245.674 196.316,245.753C197.984,245.832 200.153,245.517 202.822,244.809C203.496,244.63 204.221,244.424 204.995,244.189C203.253,246.514 202.212,248.816 201.873,251.096C201.487,253.694 202.15,255.909 203.863,257.741C206.27,260.316 210.38,260.748 216.193,259.038L216.06,259.198C214.603,260.951 213.827,262.881 213.733,264.988C213.707,265.565 213.734,266.116 213.813,266.639L196.505,270.363L181.418,258.158L184.8,253.892L193.977,254.57L189.181,246.452L190.37,243.284ZM95.955,263.598C95.955,263.598 93.726,264.232 93.726,264.232C94.485,265.959 94.443,268.037 93.413,269.845L96.72,269.979C96.72,269.979 94.896,267.246 94.896,267.246L95.955,263.598ZM169.743,249.334L176.007,252.188L179.241,263.569L169.743,249.334ZM137.657,250.424L144.568,246.216L145.391,238.864L151.685,243.658L159.242,241.481L156.745,250.011L161.037,256.48L152.508,256.069L147.568,261.394L144.979,253.804L137.657,250.424ZM93.065,254.373C92.686,254.936 92.218,255.437 91.68,255.854L93.838,257.628C93.838,257.628 93.065,254.373 93.065,254.373ZM231.974,248.673C233.597,246.997 234.669,245.383 235.188,243.831C235.707,242.279 235.6,241.111 234.866,240.325C233.601,238.973 231.348,238.67 228.107,239.418C224.866,240.165 221.603,241.542 218.318,243.548C215.033,245.553 212.529,247.592 210.807,249.664C210.013,250.62 209.536,251.541 209.379,252.426C209.221,253.311 209.366,253.994 209.815,254.474C211.651,256.437 216.88,255.709 225.502,252.287C227.231,251.227 229.388,250.022 231.974,248.673ZM177.771,247.63L179.977,246.275L180.242,243.924L182.271,245.453L184.683,244.775L183.889,247.511L185.242,249.569L182.534,249.452L180.947,251.158L180.094,248.718L177.771,247.63ZM19.892,243.913L30.396,239.854L39.892,245.33L30.696,251.158L20.154,246.913C20.055,245.921 19.967,244.919 19.892,243.913ZM85.767,245.33L71.954,250.362L62.099,245.33L72.204,240.111L85.767,245.33ZM187.885,238.804L183.007,240.159L175.802,234.426L175.154,243.424L168.771,246.775L176.066,228.004L176.453,228.418C176.698,228.68 177.014,228.717 177.401,228.529L194.656,219.589L195.084,220.047C195.818,220.833 195.908,221.907 195.353,223.27C194.798,224.633 193.944,226.078 192.791,227.605C191.638,229.131 190.546,230.723 189.515,232.38C188.484,234.038 187.926,235.799 187.84,237.664C187.822,238.051 187.837,238.431 187.885,238.804ZM90.909,245.299L90.892,245.226C90.821,245.263 90.748,245.297 90.675,245.33C90.767,245.374 90.859,245.418 90.949,245.466L90.909,245.299ZM136.951,215.603L134.158,214.25L133.128,238.953L124.099,244.982L114.747,230.777L121.159,213.484L107.513,216.397L113.805,208.336L131.216,209.631L135.804,211.22L136.951,215.603ZM108.423,237.6L102.159,237.308L98.513,241.218L96.601,235.629L91.221,233.158L96.278,230.041L96.897,224.63L101.543,228.16L107.101,226.542L105.276,232.835L108.423,237.6ZM33.617,215.144L45.803,224.221L44.798,234.574L35.216,230.049L33.617,215.144ZM68.374,215.144L65.894,229.603L57.193,234.572L57.247,224.607L68.374,215.144ZM152.165,200.557C152.312,201.966 152.883,203.202 153.877,204.266C154.774,205.226 155.639,205.924 156.469,206.362C157.3,206.799 158.539,207.07 160.185,207.175C161.831,207.28 164.011,206.953 166.724,206.192C166.826,206.163 166.928,206.134 167.032,206.104C165.641,207.855 164.836,209.818 164.618,211.993C164.392,214.26 164.91,216.069 166.175,217.422C167.235,218.556 168.222,219.386 169.134,219.91C170.047,220.435 171.367,220.794 173.095,220.986C173.394,221.019 173.709,221.04 174.04,221.047L171.783,222.217C171.609,222.333 171.498,222.49 171.449,222.688C171.4,222.886 171.436,223.051 171.559,223.182L173.632,225.4L153.743,230.337L140.422,219.337L145.892,213.72L155.861,214.22L150.596,205.25L152.165,200.557ZM212.769,218.794C210.73,216.612 206.114,216.14 198.921,217.377L197.499,218.115L198.723,219.424C201.32,221.399 204.074,222.488 206.986,222.693C209.898,222.898 211.817,222.443 212.745,221.327C213.495,220.424 213.503,219.579 212.769,218.794ZM81.367,214.368L80.453,215.505C80.529,216.287 80.46,217.092 80.222,217.88C80.209,217.926 80.195,217.97 80.178,218.015L78.666,222.142L85.066,218.437C86.073,217.855 87.185,217.602 88.282,217.649L88.425,215.19L81.367,214.368ZM64.079,143.141L70.546,145.608L72.309,151.812L72.104,167.459L61.28,174.605L73.22,179.604L77.192,191.927L84.455,182.341L94.748,183.163L94.574,185.811L78.604,196.25L83.984,199.367L80.191,200.339L72.897,194.369L71.956,203.573L68.783,205.8L68.77,205.788C66.245,203.605 62.358,203.809 60.085,206.234C60.052,206.269 60.022,206.305 59.993,206.34L57.193,209.706L57.193,202.293C57.193,198.979 54.444,196.242 50.997,196.242C47.547,196.242 44.798,198.979 44.798,202.293L44.798,209.706L41.998,206.34C41.969,206.305 41.939,206.269 41.906,206.234C39.633,203.809 35.746,203.605 33.221,205.788C31.676,207.124 30.977,209.024 31.152,210.871C29.641,209.796 27.649,209.456 25.722,210.131C22.578,211.23 20.81,214.7 21.769,217.88C21.783,217.926 21.796,217.97 21.813,218.015L23.325,222.142L20.466,220.486C24.353,189.233 40.563,161.778 64.079,143.141ZM85.514,207.014L88.102,200.839L96.601,204.074L99.043,213.808L89.278,205.925L89.132,206.044L88.308,210.955L85.514,207.014ZM82.514,210.544L80.985,208.221L81.867,205.193L79.19,205.955L76.956,204.28L76.662,206.868L74.192,208.398L76.81,209.574L77.123,210.504C77.62,210.767 78.073,211.095 78.475,211.475L79.486,210.398L82.514,210.544ZM146.862,208.692L143.215,208.544L141.127,210.807L140.01,207.573L136.892,206.132L139.834,204.309L140.185,201.192L142.862,203.219L146.098,202.31L145.039,205.955L146.862,208.692ZM126.719,179.352C130.533,181.154 135.594,183.168 139.935,184.34C139.812,184.84 139.733,185.348 139.699,185.862C139.566,187.877 140.131,189.56 141.396,190.913C144.006,193.706 148.639,194.297 155.295,192.685C155.118,192.898 154.898,193.164 154.633,193.482C154.399,193.763 154.182,194.046 153.981,194.332L143.481,197.28L135.422,189.809L134.01,201.427L129.863,203.515L122.306,192.398L124.802,185.348L126.719,179.352ZM103.629,192.104L104.248,186.693L108.894,190.222L114.453,188.605L112.601,194.897L115.777,199.663L109.482,199.367L105.835,203.281L103.923,197.691L98.543,195.22L103.629,192.104ZM77.897,171.429L78.337,167.43L81.778,170.016L85.896,168.84L84.543,173.488L86.866,177.018L82.22,176.782L79.544,179.693L78.132,175.546L74.133,173.723L77.897,171.429ZM101.048,168.638C101.557,169.893 102.23,170.969 103.066,171.863C105.717,174.7 109.113,176.2 113.253,176.364C115.115,176.437 117.268,176.223 119.71,175.719L114.896,178.109L109.924,179.399L99.925,169.899L101.048,168.638ZM94.514,161.341L96.985,162.165L98.159,168.871L95.955,167.105L95.131,178.694L90.337,172.399L94.514,161.341ZM83.074,163.666L76.485,157.665L83.337,148.607L95.69,149.489L95.338,154.195L88.573,158.167L92.865,160.636L83.074,163.666ZM145.531,118.149C142.836,121.639 141.385,125.51 141.177,129.761C140.956,134.292 142.029,137.823 144.394,140.353C147.168,143.321 150.659,144.521 154.867,143.954C159.075,143.388 162.239,141.83 164.358,139.28C165.373,138.058 165.714,136.766 165.381,135.406C165.204,134.414 164.895,134.183 164.453,134.715C163.129,136.308 161.01,137.328 158.096,137.774C155.183,138.22 152.91,137.571 151.279,135.825C149.973,134.429 149.471,132.762 149.771,130.825C150.071,128.888 151.06,126.91 152.738,124.891C154.361,122.938 156.225,121.241 158.33,119.802C171.536,122.255 183.968,126.924 195.225,133.409C187.936,134.286 179.28,137.338 169.257,142.563C161.973,146.413 155.302,149.689 149.243,152.39C143.184,155.091 137.289,157.34 131.557,159.137C125.826,160.934 120.878,161.789 116.714,161.7C115.017,161.663 113.497,161.453 112.153,161.07L109.747,157.196L111.273,150.938C112.425,150.227 113.415,149.847 114.24,149.795C114.59,149.467 114.763,149.05 114.76,148.544C114.756,148.039 114.591,147.611 114.265,147.262C113.327,146.259 111.699,146.224 109.382,147.157C107.949,147.735 106.62,148.541 105.398,149.575L102.984,150.225L96.424,144.019L96.043,146.373L90.279,137.638L93.918,125.938C107.211,120.704 121.682,117.829 136.819,117.829C139.75,117.829 142.657,117.937 145.531,118.149ZM101.598,154.222C100.889,155.565 100.397,157.024 100.124,158.599L97.779,157.519L100.248,156.018L100.544,153.43L101.598,154.222ZM75.665,135.043C76.512,134.523 77.364,134.016 78.223,133.519L79.749,134.667L84.19,133.374L82.72,138.431L85.251,142.255L80.22,142.02L77.309,145.137L75.78,140.668L71.456,138.668L75.543,136.168L75.665,135.043ZM153.862,80.436L179.889,104.287L180.419,105.288L180.29,105.606L180.195,106.039L180.189,106.092C174.413,104.148 168.461,102.581 162.366,101.421L161.821,100.432L161.261,99.409L160.126,97.318C160.038,97.141 159.95,96.995 159.89,96.847C157.125,91.759 155.303,86.083 153.862,80.436ZM126.011,79.759C123.982,85.819 121.482,91.818 117.923,97.024L117.894,97.024C117.835,97.141 117.775,97.229 117.687,97.318C117.658,97.406 117.57,97.523 117.452,97.671L117.042,98.249L116.246,99.381L115.61,100.266L115.274,100.721C108.993,101.722 102.856,103.153 96.893,104.984L96.631,104.2L98.278,101.641L126.011,79.759ZM140.465,49.848L140.627,49.852C142.334,49.909 143.98,50.645 145.127,51.938C146.303,53.174 146.951,54.849 146.862,56.556C146.803,58.291 146.038,59.908 144.803,61.086C143.509,62.26 141.863,62.879 140.128,62.819C138.421,62.762 136.775,62.026 135.628,60.733C134.452,59.497 133.804,57.82 133.864,56.115C133.952,54.35 134.717,52.763 135.95,51.587C137.096,50.519 138.581,49.913 140.141,49.852L140.465,49.848ZM212.533,14.49L212.739,14.493C220.061,14.64 222.354,22.1 218.297,30.998C205.399,42.147 189.145,48.573 172.115,49.219L171.713,49.233C178.065,33.087 191.329,20.618 207.857,15.296C209.586,14.744 211.148,14.488 212.533,14.49ZM70.673,9.257C72.254,9.253 74.061,9.626 76.074,10.442C92.16,16.971 104.454,30.352 109.63,46.91C92.543,45.117 76.633,37.47 64.545,25.293C61.224,16.382 63.823,9.274 70.673,9.257Z" style="fill:none;stroke:rgb(255,0,0);stroke-width:1px;"/>
</svg>
