<?xml version="1.0" encoding="UTF-8" standalone="no"?>
<!DOCTYPE svg PUBLIC "-//W3C//DTD SVG 1.1//EN" "http://www.w3.org/Graphics/SVG/1.1/DTD/svg11.dtd">
<svg width="100%" height="100%" viewBox="0 0 1123 794" version="1.1" xmlns="http://www.w3.org/2000/svg" xmlns:xlink="http://www.w3.org/1999/xlink" xml:space="preserve" xmlns:serif="http://www.serif.com/" style="fill-rule:evenodd;clip-rule:evenodd;stroke-linejoin:round;stroke-miterlimit:2;">
    <path d="M11.426,250.1C11.92,201.578 37.85,159.147 76.503,135.437C76.061,135.262 75.707,135.114 75.413,134.938L75.384,134.938C65.944,131.819 59.004,125.203 52.621,117.733C41.24,101.763 57.328,86.236 58.414,70.413C59.386,57.003 53.445,42.152 60.357,29.005C64.503,20.299 73.327,16.977 83.089,17.213C91.677,17.653 100,20.712 105.824,25.153C118.233,34.681 129.822,48.445 139.438,61.591C139.438,60.561 141.056,58.738 142.82,57.739C143.939,57.062 145.261,56.709 146.673,56.709L155.26,56.709C157.085,56.709 158.73,57.326 160.085,58.356C161.526,59.503 162.554,61.149 162.936,63.032C163.464,63.032 193.522,32.623 199.638,28.623C205.787,24.593 214.285,22.182 222.872,22.388C232.637,22.858 241.165,26.859 244.695,35.857C250.605,49.444 243.576,63.826 243.517,77.267C243.488,93.148 258.37,109.793 245.842,124.881C240.634,130.174 233.519,135.291 226.519,138.348L226.46,138.348C226.08,138.467 225.266,138.729 224.103,139.105C246.368,154.317 263.892,175.967 273.981,201.358L274.298,202.163C280.107,217.05 283.368,233.217 283.537,250.122L283.545,251.53L283.543,252.257L283.529,253.628L283.511,254.602L283.479,255.802L283.44,256.907C282.934,269.97 280.595,282.547 276.662,294.396C276.322,295.443 275.957,296.462 275.587,297.453L275.163,298.631C273.868,302.159 272.427,305.6 270.84,308.982C270.427,309.893 270.016,310.777 269.574,311.659C268.869,313.1 268.104,314.541 267.37,315.953C267.31,316.011 267.281,316.099 267.251,316.159C265.84,318.774 264.34,321.364 262.753,323.864C262.38,324.432 262.038,325.004 261.643,325.548L261.545,325.697C261.134,326.366 260.706,326.996 260.256,327.638L260.016,327.991L260.016,328.011C259.751,328.451 259.457,328.862 259.134,329.275C256.458,333.158 253.576,336.861 250.517,340.421C225.814,369.023 189.421,387.205 148.807,387.587L147.482,387.593C143.885,387.593 140.32,387.453 136.787,387.178C70.145,381.999 16.988,328.83 11.83,262.177C11.557,258.662 11.419,255.112 11.419,251.53L11.426,250.1ZM39.414,296.842C51.151,324.777 73.415,347.222 101.233,359.2C97.093,356.407 93.182,353.22 89.551,349.659C86.132,346.306 86.132,340.851 89.551,337.498C92.97,334.146 98.533,334.146 101.952,337.498C104.174,339.677 106.529,341.675 108.998,343.491C113.426,328.854 113.06,316.282 112.433,310.022L103.137,317.099C99.805,319.636 95.435,319.719 92.005,317.307C88.575,314.896 87.252,310.81 88.634,306.9L96.006,286.049L96.928,272.424C96.987,271.56 97.484,270.783 98.251,270.355C99.019,269.928 99.954,269.907 100.741,270.3C100.862,270.36 102.214,271.04 104.042,272.143L100.882,258.84L83.458,252.063L84.406,251.367L71.622,245.408L66.121,248.594L79.955,255.032L73.043,259.026L59.22,252.577L51.082,257.271L62.192,262.923L51.082,268.586L59.22,273.279L73.043,266.831L79.955,270.814L66.121,277.263L71.622,280.438L85.456,273.99L92.356,277.973L78.534,284.422L89.557,290.795C90.86,291.538 91.301,293.206 90.548,294.509C89.794,295.822 88.136,296.264 86.823,295.51L75.799,289.148L77.134,304.349L70.233,300.365L68.898,285.165L63.397,281.978L64.721,297.179L57.821,293.196L56.497,277.995L48.358,273.301L49.015,285.746L38.561,278.953L38.561,288.351L51.06,297.103L51.06,305.07L39.457,296.945L39.414,296.842ZM243.675,318.404C242.535,318.129 241.394,317.876 240.254,317.6C237.577,319.245 234.93,320.893 232.284,322.511C231.283,323.128 229.99,322.863 229.313,321.893C229.108,321.599 228.988,321.245 228.96,320.893L211.138,319.864L198.382,335.068C201.016,334.706 203.787,335.516 205.809,337.498C207.465,339.123 208.377,341.282 208.377,343.579C208.377,345.875 207.465,348.034 205.809,349.659C202.384,353.017 198.712,356.043 194.832,358.719C209.038,352.428 221.763,343.395 232.334,332.292C232.316,332.172 232.309,332.048 232.313,331.921C232.343,330.774 233.283,329.834 234.43,329.805L234.641,329.799C235.45,328.898 236.246,327.985 237.025,327.062C235.102,326.901 234.417,324.317 236.136,323.247C238.591,321.738 241.018,320.207 243.47,318.698L243.675,318.404ZM162.894,344.646C164.52,347.147 167.027,350.173 169.095,352.537C162.302,354.872 155.086,356.09 147.681,356.09C141.087,356.09 134.643,355.124 128.514,353.265L133.095,344.784C137.908,346.073 149.932,348.46 162.894,344.646ZM188.436,314.125C189.956,318.028 189.047,321.212 186.232,319.558C186.506,326.802 187.855,335.712 189.423,341.093C190.793,339.954 192.124,338.758 193.408,337.498C194.425,336.502 195.631,335.802 196.914,335.398L191.756,315.746L188.436,314.125ZM234.43,316.217C233.283,316.922 232.107,317.658 230.931,318.394L229.49,316.159C229.93,315.894 230.372,315.629 230.814,315.335C232.019,315.629 233.223,315.923 234.43,316.217ZM226.527,286.933C227.38,287.797 228.206,288.439 229.003,288.859C229.901,289.331 231.239,289.624 233.017,289.738C234.795,289.852 237.15,289.497 240.081,288.675C241.433,288.296 242.951,287.824 244.635,287.258C244.854,288.004 245.077,288.744 245.313,289.483C244.812,289.22 244.312,288.955 243.841,288.69C242.783,288.13 241.518,288.544 241.019,289.631C240.548,290.661 240.959,291.925 241.958,292.485C243.636,293.395 245.313,294.277 247.018,295.19C247.371,296.395 247.723,297.571 248.076,298.777C246.518,297.924 244.96,297.102 243.399,296.249C242.341,295.69 241.076,296.103 240.577,297.19C240.077,298.218 240.517,299.513 241.518,300.042C244.281,301.513 247.018,303.012 249.783,304.482C250.049,305.396 250.317,306.293 250.584,307.198C250.482,307.387 250.379,307.576 250.276,307.765C249.796,307.506 249.317,307.248 248.838,306.989L244.843,304.829C244.177,304.469 243.509,304.108 242.84,303.748C240.959,302.749 238.988,304.865 240.077,306.659C241.664,309.247 243.253,311.836 244.841,314.424C243.636,314.128 242.4,313.836 241.194,313.569C239.578,310.894 237.931,308.217 236.313,305.57C235.694,304.571 234.401,304.248 233.4,304.776C232.343,305.335 232.019,306.628 232.637,307.658C233.548,309.157 234.461,310.66 235.4,312.189C234.196,311.893 232.989,311.599 231.753,311.307C230.783,309.689 229.784,308.07 228.783,306.425C228.166,305.454 226.871,305.101 225.872,305.658C224.813,306.217 224.49,307.512 225.107,308.513C225.372,308.982 225.666,309.453 225.96,309.924C225.755,309.893 225.549,309.835 225.342,309.778L220.755,302.749L226.527,286.933ZM213.167,309.954L206.11,309.63L202.021,314.013L199.874,307.747L193.845,304.953L199.521,301.454L200.228,295.394L205.433,299.336L211.668,297.544L209.609,304.599L213.167,309.954ZM155.375,302.319L156.59,302.277C164.329,302.2 170.507,302.827 175.815,304.198L188.611,295.747L189.787,285.807L168.466,283.867L155.375,302.319ZM107.035,274.082C108.329,274.985 109.66,276.009 110.857,277.11C118.807,277.975 126.529,282.987 133.249,291.662C136.834,296.291 139.263,300.809 140.439,303.202C143.545,302.912 146.452,302.691 149.19,302.536L149.921,302.51L146.173,278.69L122.881,269.162L131.38,263.516L117.117,262.221L107.035,274.082ZM201.834,147.726C239.164,167.331 264.647,206.478 264.647,251.53C264.647,265.802 262.09,279.481 257.41,292.131C256.389,291.551 255.153,291.882 254.575,292.925C253.752,294.485 252.899,296.014 252.046,297.571L250.987,294.014L253.722,288.984C254.252,287.954 253.929,286.661 252.928,286.073C251.929,285.456 250.636,285.777 250.077,286.837C249.811,287.306 249.548,287.808 249.281,288.278C249.048,287.479 248.802,286.679 248.559,285.88C249.411,285.57 250.297,285.241 251.215,284.893C251.446,284.815 251.567,284.62 251.578,284.306C251.648,283.621 251.734,282.466 251.836,280.841C251.891,280.575 251.781,280.457 251.505,280.487C246.136,282.441 241.67,283.708 238.108,284.288C234.546,284.868 232.434,284.805 231.774,284.098C231.157,283.438 231.278,282.591 232.136,281.558C233.329,280.124 235.431,278.47 238.444,276.597C241.457,274.725 248.083,271.134 258.322,265.825C258.509,265.7 258.63,265.53 258.683,265.316C258.736,265.102 258.696,264.924 258.564,264.783L253.277,259.126C252.968,258.796 252.605,258.733 252.186,258.936C251.394,259.389 250.928,259.649 250.788,259.717C252.277,256.322 251.744,253.258 249.188,250.524C247.206,248.403 244.635,247.089 241.476,246.583C238.317,246.077 235.156,246.3 231.992,247.252C228.829,248.204 225.776,249.574 222.835,251.36C222.488,251.571 222.148,251.785 221.816,252.002C217.445,253.421 213.783,254.24 210.833,254.458C207.373,254.715 205.093,254.254 203.991,253.075C203.33,252.368 203.429,251.498 204.288,250.465C205.576,248.915 207.562,247.327 210.246,245.699C212.931,244.072 219.161,240.681 228.938,235.528L232.573,239.417C232.882,239.747 233.245,239.81 233.664,239.608L237.225,237.726C237.412,237.601 237.533,237.431 237.586,237.217C237.639,237.003 237.599,236.825 237.467,236.684L233.964,232.936C237.175,231.276 242.691,228.395 250.512,224.293C250.743,224.215 250.874,224.057 250.905,223.819C250.937,223.582 250.886,223.392 250.754,223.251L245.532,217.665C245.224,217.335 244.837,217.3 244.371,217.56C236.179,221.807 230.617,224.694 227.685,226.219L225.041,223.39C224.733,223.06 224.369,222.997 223.951,223.2L220.318,225.168C220.178,225.235 220.082,225.376 220.029,225.59C219.976,225.805 220.015,225.982 220.147,226.124L222.659,228.811C216.694,231.928 212.125,234.383 208.95,236.176C203.958,237.957 199.775,239.122 196.402,239.671C192.84,240.251 190.729,240.188 190.068,239.481C189.451,238.821 189.572,237.974 190.43,236.941C191.623,235.506 193.725,233.853 196.738,231.98C199.751,230.108 206.377,226.517 216.617,221.208C216.804,221.083 216.924,220.913 216.977,220.699C217.03,220.485 216.991,220.307 216.858,220.166L211.571,214.509C211.262,214.179 210.899,214.115 210.481,214.318C209.688,214.771 209.222,215.032 209.082,215.099C210.571,211.705 210.038,208.641 207.483,205.907C205.5,203.786 202.929,202.472 199.77,201.966C196.611,201.46 193.45,201.683 190.287,202.635C187.482,203.479 184.765,204.651 182.135,206.151C182.106,206.154 182.074,206.161 182.04,206.173C176.575,208.241 171.083,209.792 165.562,210.825C165.321,210.87 165.084,210.913 164.85,210.953L164.936,210.695L163.029,211.231C158.975,211.756 156.376,211.406 155.233,210.183C154.66,209.57 154.749,208.662 155.499,207.459C156.249,206.256 157.474,204.883 159.173,203.339C160.872,201.796 162.639,200.271 164.474,198.764C166.308,197.258 168.204,195.653 170.159,193.951C172.115,192.248 173.57,190.823 174.524,189.676C175.907,188.011 176.794,186.168 177.184,184.146C177.575,182.124 177.437,180.161 176.772,178.257C179.684,179.962 183.031,180.968 186.813,181.274C190.596,181.58 194.2,181.425 197.627,180.808C201.053,180.191 204.366,179.56 207.564,178.916C210.763,178.273 213.663,178.014 216.263,178.14C218.864,178.265 220.847,179.059 222.213,180.52C222.786,181.133 223.118,181.786 223.208,182.479C223.298,183.172 223.365,183.542 223.409,183.589C223.85,184.06 224.619,183.636 225.716,182.316C226.765,181.053 227.418,179.366 227.674,177.255C227.93,175.144 227.508,173.499 226.406,172.321C224.996,170.812 223.274,169.729 221.24,169.071C219.207,168.413 217.067,168.158 214.823,168.304C212.578,168.451 210.146,168.749 207.525,169.198C204.905,169.647 202.314,170.21 199.754,170.886C197.194,171.563 194.593,172.114 191.95,172.539C189.307,172.965 186.842,173.227 184.553,173.327C182.265,173.426 180.081,173.123 178.004,172.419C175.926,171.714 174.138,170.56 172.64,168.957L171.648,167.896C178.074,164.471 183.744,161.781 188.656,159.827C193.568,157.872 197.992,156.831 201.927,156.704C203.495,158.923 204.918,160.717 206.196,162.084C207.341,163.309 208.567,163.888 209.872,163.821C211.176,163.753 212.306,163.145 213.26,161.997C213.88,161.251 214.118,160.314 213.975,159.184C213.831,158.055 213.407,157.113 212.702,156.359C210.543,154.049 207.765,152.433 204.37,151.511C203.674,150.519 202.829,149.258 201.834,147.726ZM104.771,289.696C106.401,289.696 107.724,290.993 107.724,292.591C107.724,294.189 106.401,295.487 104.771,295.487C103.142,295.487 101.819,294.189 101.819,292.591C101.819,290.993 103.142,289.696 104.771,289.696ZM214.593,258.731C212.836,261.147 211.781,263.54 211.429,265.911C211.011,268.717 211.728,271.109 213.578,273.089C216.178,275.871 220.618,276.338 226.898,274.491L226.754,274.663C225.18,276.557 224.342,278.642 224.24,280.918C224.206,281.69 224.258,282.418 224.398,283.101L207.168,286.808L192.081,274.603L195.463,270.338L204.64,271.016L199.844,262.898L201.29,259.044C202.256,259.521 203.578,259.853 205.257,260.04C207.124,260.248 209.566,259.988 212.585,259.261C213.223,259.107 213.892,258.931 214.593,258.731ZM180.406,265.78L186.67,268.633L189.904,280.014L180.406,265.78ZM148.319,266.869L155.231,262.661L156.053,255.31L162.348,260.104L169.905,257.927L167.407,266.456L171.7,272.926L163.171,272.515L158.23,277.839L155.642,270.249L148.319,266.869ZM243.946,263.293C245.699,261.483 246.857,259.739 247.418,258.063C247.979,256.386 247.863,255.124 247.07,254.275C245.704,252.814 243.27,252.487 239.769,253.295C236.267,254.102 232.742,255.59 229.193,257.756C225.645,259.923 222.94,262.125 221.08,264.364C220.221,265.397 219.707,266.391 219.537,267.347C219.366,268.304 219.523,269.041 220.008,269.56C221.991,271.681 227.64,270.893 236.954,267.197C238.822,266.052 241.153,264.75 243.946,263.293ZM198.708,243.964C197.205,245.856 196.336,247.976 196.1,250.326C195.887,252.457 196.284,254.215 197.292,255.598L193.67,256.605L186.464,250.871L185.817,259.87L179.434,263.221L186.898,244.014C187.032,244.096 187.165,244.172 187.297,244.242C188.195,244.714 189.533,245.007 191.311,245.121C193.09,245.234 195.444,244.88 198.375,244.058C198.485,244.027 198.596,243.996 198.708,243.964ZM147.614,232.049L144.82,230.696L143.791,255.398L134.762,261.428L125.41,247.222L131.822,229.929L118.175,232.842L124.468,224.782L141.879,226.077L146.467,227.666L147.614,232.049ZM119.086,254.046L112.822,253.753L109.175,257.664L107.263,252.074L101.883,249.603L106.941,246.486L107.559,241.076L112.205,244.605L117.764,242.987L115.939,249.28L119.086,254.046ZM38.529,208.386L38.529,208.385C46.182,189.096 58.815,172.312 74.84,159.624L81.208,162.053L82.972,168.258L82.767,183.904L71.943,191.05L83.883,196.05L87.855,208.372L95.118,198.786L105.411,199.608L105.236,202.256L89.267,212.696L94.647,215.812L90.854,216.784L83.56,210.814L82.619,220.018L76.913,224.022L77.134,221.508L70.233,225.491L68.898,240.692L63.397,243.868L64.721,228.667L57.821,232.651L56.497,247.851L48.358,252.545L49.015,240.1L38.561,246.893L38.561,237.506L51.06,228.753L51.06,220.776L38.561,229.529L38.561,223.177L51.06,214.425L51.06,206.458L38.561,215.2L38.561,208.304C38.551,208.331 38.54,208.358 38.529,208.386ZM90.405,246.962L78.534,241.424L86.103,237.056L86.354,237.871L92.03,230.813L99.088,231.635L98.528,241.254L95.617,243.135L90.405,246.962ZM31.575,236.388L31.57,236.425L33.114,237.506L33.114,246.893L30.492,245.189C30.547,244.811 30.933,241.108 31.57,236.425L31.517,236.388L31.575,236.388ZM173.333,213.52C171.308,216.137 170.104,218.729 169.723,221.293C169.305,224.099 170.022,226.492 171.873,228.472C174.472,231.253 178.912,231.72 185.192,229.873L185.049,230.046C183.475,231.939 182.637,234.024 182.535,236.301C182.436,238.503 183.045,240.346 184.362,241.829L164.406,246.782L151.084,235.782L156.555,230.166L166.523,230.665L161.259,221.696L163.159,216.011C166.165,215.525 169.556,214.695 173.333,213.52ZM30.492,245.189C30.489,245.211 30.487,245.222 30.486,245.221C30.485,245.221 30.485,245.209 30.486,245.186L30.492,245.189ZM75.799,236.709L84.451,231.707L83.649,229.107L76.755,225.819L75.799,236.709ZM107.263,220.52L109.706,230.254L99.941,222.37L99.795,222.489L98.97,227.401L96.177,223.46L98.765,217.284L107.263,220.52ZM93.177,226.989L90.149,226.843L88.383,228.724L87.472,226.019L84.855,224.843L87.324,223.314L87.618,220.725L89.853,222.401L92.53,221.638L91.648,224.666L93.177,226.989ZM202.24,218.675C203.994,216.865 205.151,215.122 205.712,213.446C206.273,211.769 206.157,210.506 205.364,209.658C203.998,208.196 201.564,207.87 198.063,208.677C194.561,209.485 191.036,210.972 187.488,213.139C183.939,215.306 181.234,217.508 179.374,219.746C178.516,220.779 178.001,221.774 177.831,222.73C177.66,223.686 177.818,224.424 178.302,224.942C180.285,227.064 185.934,226.276 195.249,222.58C197.117,221.434 199.447,220.133 202.24,218.675ZM145.682,209.568L144.673,217.872L140.526,219.961L132.969,208.843L139.291,190.991L120.587,195.844L110.588,186.345L115.852,180.434L119.865,180.655C120.229,182.01 120.871,183.18 121.792,184.166C122.541,184.967 123.457,185.594 124.538,186.046C125.619,186.498 126.705,186.793 127.797,186.931C128.889,187.069 130.229,186.985 131.817,186.677C133.404,186.37 134.821,186.042 136.067,185.695C137.313,185.347 138.956,184.747 140.997,183.894C143.037,183.042 144.719,182.32 146.042,181.73C147.365,181.139 149.214,180.217 151.589,178.962C153.963,177.708 155.803,176.721 157.107,176.003C158.412,175.284 160.369,174.207 162.978,172.77C165.169,171.536 166.8,170.625 167.872,170.036L170.714,173.077C171.727,174.161 172.268,175.363 172.337,176.683C172.405,178.003 171.986,179.208 171.08,180.299C169.744,181.906 166.159,184.792 160.324,188.958C154.489,193.125 150.666,196.298 148.853,198.479C146.802,200.947 145.628,203.486 145.332,206.096C145.196,207.29 145.313,208.447 145.682,209.568ZM126.44,216.108L120.145,215.812L116.498,219.726L114.586,214.137L109.206,211.666L114.292,208.549L114.911,203.138L119.557,206.668L125.116,205.05L123.264,211.343L126.44,216.108ZM88.56,187.874L89,183.875L92.441,186.462L96.559,185.286L95.206,189.934L97.529,193.464L92.883,193.227L90.207,196.138L88.794,191.992L84.796,190.168L88.56,187.874ZM105.177,177.786L107.648,178.611L108.822,185.317L106.618,183.551L105.794,195.139L100.999,188.844L105.177,177.786ZM93.736,180.111L87.148,174.111L94,165.053L106.353,165.935L106.001,170.64L99.236,174.612L103.528,177.081L93.736,180.111ZM116.763,176.111L113.733,175.994L111.971,177.875L111.058,175.169L108.441,173.965L110.91,172.464L111.206,169.876L113.441,171.553L116.118,170.788L115.234,173.817L116.763,176.111ZM155.535,134.638C168.781,135.539 181.425,138.645 193.103,143.593C194.601,145.649 196.219,148.006 197.955,150.666C189.226,150.652 178.275,154.114 165.099,161.053C159.422,163.978 154.414,166.373 150.076,168.237C145.738,170.102 142.242,171.403 139.589,172.142C136.935,172.881 134.616,173.219 132.63,173.154C130.644,173.09 129.168,172.812 128.203,172.321C127.237,171.83 126.314,171.114 125.432,170.171C125.124,169.841 124.957,169.391 124.931,168.821C124.905,168.251 124.87,167.943 124.826,167.896C124.606,167.66 124.228,167.689 123.692,167.983C123.156,168.278 122.602,168.769 122.03,169.458C121.682,169.876 121.37,170.335 121.094,170.836L122.704,164.23L113.647,166.671L107.087,160.464L106.706,162.818L100.942,154.083L104.546,142.494C115.343,138.235 126.918,135.534 138.997,134.668C136.218,138.367 134.72,142.457 134.501,146.94C134.262,151.834 135.399,155.625 137.91,158.312C140.951,161.565 144.744,162.885 149.29,162.273C153.835,161.661 157.253,159.977 159.543,157.223C160.64,155.902 161.008,154.508 160.648,153.038C160.457,151.966 160.123,151.717 159.646,152.291C158.215,154.013 155.925,155.115 152.778,155.596C149.631,156.078 147.154,155.353 145.347,153.42C143.981,151.959 143.46,150.182 143.784,148.089C144.109,145.996 145.177,143.86 146.989,141.679C149.363,138.823 152.211,136.476 155.535,134.638ZM86.315,151.601C87.191,151.063 88.074,150.537 88.964,150.023L90.412,151.113L94.853,149.819L93.383,154.877L95.913,158.7L90.883,158.466L87.972,161.583L86.442,157.113L82.119,155.113L86.206,152.613L86.315,151.601ZM190.851,122.537C185.076,120.594 179.124,119.027 173.029,117.866C172.302,116.555 171.546,115.16 170.789,113.763C170.701,113.586 170.612,113.44 170.553,113.292C167.788,108.204 165.966,102.528 164.525,96.881L190.551,120.732L191.082,121.733C191.082,121.733 190.915,122.01 190.851,122.537ZM125.937,117.167C119.656,118.168 113.518,119.599 107.556,121.429L107.294,120.646L108.941,118.086L136.673,96.205C134.644,102.265 132.145,108.264 128.586,113.469L128.557,113.469C128.498,113.586 128.438,113.675 128.35,113.763C128.321,113.851 128.232,113.969 128.115,114.117C127.649,114.758 126.867,115.917 125.937,117.167ZM146.613,68.032C147.878,66.854 149.555,66.237 151.29,66.297C152.996,66.355 154.643,67.091 155.79,68.384C156.966,69.619 157.614,71.295 157.525,73.001C157.466,74.736 156.701,76.354 155.465,77.532C154.172,78.706 152.526,79.325 150.79,79.265C149.084,79.207 147.438,78.471 146.29,77.178C145.114,75.943 144.467,74.265 144.527,72.561C144.615,70.795 145.38,69.208 146.613,68.032ZM218.52,31.741C229.578,28.212 233.813,36.799 228.96,47.444C215.961,58.68 199.552,65.119 182.376,65.678C188.728,49.532 201.992,37.064 218.52,31.741ZM75.208,41.739C71.121,30.771 76.001,22.536 86.736,26.888C102.823,33.417 115.117,46.798 120.293,63.355C103.205,61.562 87.296,53.915 75.208,41.739Z" style="fill:none;stroke:rgb(255,0,0);stroke-width:1px;"/>
</svg>
