<?xml version="1.0" encoding="UTF-8" standalone="no"?>
<!DOCTYPE svg PUBLIC "-//W3C//DTD SVG 1.1//EN" "http://www.w3.org/Graphics/SVG/1.1/DTD/svg11.dtd">
<svg width="100%" height="100%" viewBox="0 0 1123 794" version="1.1" xmlns="http://www.w3.org/2000/svg" xmlns:xlink="http://www.w3.org/1999/xlink" xml:space="preserve" xmlns:serif="http://www.serif.com/" style="fill-rule:evenodd;clip-rule:evenodd;stroke-linejoin:round;stroke-miterlimit:2;">
    <g>
        <path d="M144.768,40.265C146.525,40.302 148.11,40.912 149.422,41.91C150.863,43.057 151.891,44.704 152.273,46.587C152.802,46.587 182.859,16.178 188.975,12.177C194.836,8.337 202.831,5.966 211.003,5.93C211.404,5.929 211.807,5.932 212.21,5.942C221.975,6.413 230.502,10.413 234.032,19.412C239.942,32.998 232.913,47.381 232.854,60.821C232.825,76.702 247.707,93.348 235.179,108.435C229.972,113.729 222.856,118.846 215.857,121.903L215.797,121.903L214.909,122.185L213.44,122.66C235.271,137.575 252.544,158.68 262.718,183.428L263.146,184.482L263.635,185.717L264.183,187.147L264.715,188.58L264.956,189.247L265.465,190.694L265.958,192.147L266.475,193.735L266.941,195.223L267.39,196.719L267.822,198.222L268.318,200.033L268.765,201.757L269.14,203.283L269.499,204.816L269.84,206.356L270.097,207.582L270.267,208.418L270.567,209.973L270.849,211.533L271.113,213.1L271.309,214.338L271.419,215.073L271.66,216.779L271.864,218.366L272.05,219.958L272.182,221.204L272.257,221.958L272.366,223.158L272.397,223.517L272.519,225.075L272.624,226.63L272.71,228.177L272.746,228.945L272.807,230.524L272.85,232.102C272.861,232.627 272.87,233.152 272.875,233.676L272.882,235.204L272.88,235.812C272.877,236.27 272.873,236.727 272.866,237.183L272.845,238.277C272.836,238.637 272.827,238.997 272.816,239.357L272.77,240.666L272.707,242.056L272.66,242.916C272.616,243.693 272.566,244.469 272.509,245.242L272.378,246.891L272.235,248.448L272.115,249.632L271.964,250.996L271.773,252.558L271.607,253.813L271.429,255.064L271.176,256.717L270.983,257.897L270.743,259.275L270.405,261.091L270.108,262.584L269.863,263.752L269.428,265.714L269.074,267.212L268.795,268.344L268.42,269.801L268.042,271.21L267.725,272.344L267.361,273.601L266.892,275.16L266.363,276.838L265.822,278.487L265.452,279.56L265.025,280.738L264.863,281.178C264.752,281.514 264.639,281.848 264.5,282.186C263.205,285.714 261.764,289.155 260.177,292.537C259.764,293.448 259.353,294.331 258.911,295.213C258.206,296.654 257.441,298.096 256.707,299.508C256.647,299.565 256.619,299.654 256.588,299.713C255.177,302.329 253.677,304.919 252.09,307.419L251.385,308.513L250.98,309.103L250.316,310.136L249.767,310.943L249.354,311.546L249.354,311.565C249.088,312.005 248.794,312.416 248.472,312.829C247.32,314.5 246.13,316.138 244.904,317.745L244.816,317.86C243.221,319.948 241.565,321.984 239.854,323.976L239.073,324.871L238.079,325.991L237.478,326.655L236.874,327.314L236.265,327.97L235.652,328.622L235.034,329.27L234.413,329.913L233.787,330.553L233.157,331.188L232.523,331.819L231.885,332.446L231.243,333.069L230.597,333.688L229.946,334.303L229.292,334.913L228.634,335.519L227.305,336.718L225.961,337.9L224.601,339.064L223.226,340.21L221.835,341.339L220.43,342.45L219.251,343.358L218.294,344.082L217.12,344.95L216.125,345.672L214.957,346.501L213.924,347.22L212.763,348.011L211.691,348.725L210.538,349.478L209.428,350.187L208.283,350.903L207.134,351.605L205.999,352.284L204.81,352.979L203.686,353.621L202.128,354.488L200.557,355.336L199.718,355.777L198.921,356.19L198.122,356.597L197.319,356.999L196.514,357.396L195.706,357.788L194.894,358.175L194.08,358.556L193.263,358.932L192.443,359.303L191.621,359.668L190.795,360.029L189.967,360.383L189.136,360.733L188.303,361.077L187.466,361.416L186.627,361.749L185.472,362.197L184.208,362.674L183.508,362.932C175.658,365.798 167.471,367.962 159.021,369.348L157.605,369.572L156.197,369.781L154.318,370.035L152.436,370.263L150.549,370.465L148.516,370.653L146.646,370.8L144.654,370.927L142.787,371.02L140.923,371.087L139.53,371.121L138.144,371.142L136.819,371.148L135.472,371.141L135.01,371.136L133.308,371.103L132.116,371.068L131.571,371.048C131.011,371.027 130.452,371.002 129.893,370.974L128.91,370.921L128.07,370.87L126.787,370.783L125.344,370.67L124.595,370.605L123.757,370.528L122.78,370.431L121.461,370.29L119.917,370.108L119.147,370.01L118.622,369.94C61.059,362.253 14.891,318.582 3.474,262.277L3.239,261.09L2.955,259.579L2.689,258.062L2.439,256.54L2.206,255.012L1.989,253.478L1.79,251.939L1.609,250.395L1.444,248.846L1.295,247.267L1.199,246.139L1.071,244.412L1.03,243.782L0.93,242.013L0.887,241.098L0.867,240.61L0.814,239.101L0.782,237.765L0.762,236.427L0.756,235.069L0.761,233.92L0.78,232.504L0.814,231.055L0.874,229.343L0.941,227.924L1.04,226.215L1.16,224.51L1.339,222.399L1.503,220.733L1.754,218.52L1.965,216.867L2.116,215.769L2.36,214.126L2.623,212.491L2.832,211.276L3.004,210.32L3.25,209.022L3.391,208.305L3.7,206.805L3.847,206.115L4.228,204.413L4.525,203.156L4.699,202.441L5.07,200.971L5.248,200.286L5.705,198.602L6.047,197.393L6.255,196.679L6.685,195.245L7.142,193.78L7.652,192.213L8.179,190.657L8.724,189.112L9.286,187.576L9.865,186.051L10.462,184.535L11.076,183.028L11.589,181.809L12.228,180.334L12.884,178.867L13.557,177.41L14.247,175.963L14.953,174.524L15.675,173.096L16.414,171.677L17.169,170.268L17.681,169.334L18.2,168.404L18.727,167.479L19.26,166.559L19.8,165.643L20.347,164.732L20.901,163.825L21.462,162.923L21.995,162.081C24.011,158.918 26.155,155.843 28.418,152.865L29.105,151.969L30.119,150.673L31.137,149.404L32.163,148.156L33.2,146.924L34.249,145.708L35.309,144.506L36.64,143.037L37.833,141.756L39.206,140.322L40.549,138.958L41.845,137.678L43.198,136.376L44.743,134.932L46.31,133.513L47.5,132.464L48.702,131.429L49.916,130.407L51.142,129.4L52.38,128.406L53.63,127.427L54.892,126.462L56.165,125.511L57.449,124.575L58.745,123.654L60.052,122.747L61.369,121.855L62.698,120.978L64.037,120.117L64.936,119.551L65.84,118.992C65.398,118.817 65.044,118.669 64.75,118.492L64.722,118.492C55.281,115.374 48.341,108.758 41.958,101.287C30.577,85.318 46.666,69.791 47.751,53.967C48.723,40.557 42.782,25.706 49.694,12.56C53.84,3.853 62.664,0.531 72.427,0.768C81.014,1.208 89.338,4.267 95.161,8.707C107.57,18.236 119.159,31.999 128.776,45.146C128.776,44.116 130.394,42.292 132.157,41.293C133.276,40.617 134.598,40.263 136.01,40.263L144.597,40.263L144.768,40.265ZM233.106,301.981L233,302.134C230.483,303.681 227.993,305.253 225.474,306.802C223.721,307.892 224.466,310.555 226.475,310.623C225.699,311.543 224.907,312.453 224.102,313.349L223.767,313.36C222.62,313.389 221.681,314.328 221.65,315.475C221.645,315.641 221.659,315.803 221.69,315.957C200.328,338.368 170.192,352.34 136.819,352.34C129.603,352.34 122.539,351.687 115.679,350.436L134.186,327.506L164.772,329.681L159.508,320.888L165.184,312.093L175.802,312.975L170.243,303.566L173.565,295.625L181.093,299.3L186.535,320.035L200.475,303.418L218.297,304.448C218.326,304.8 218.445,305.153 218.65,305.447C219.327,306.417 220.62,306.683 221.621,306.066C224.267,304.448 226.915,302.799 229.591,301.155C230.762,301.438 231.935,301.697 233.106,301.981ZM107.895,341.033L113.364,348.678L110.159,337.003L107.895,341.033ZM104.571,345.769L100.63,345.592L99.878,346.393C99.065,346.123 98.255,345.844 97.449,345.556L97.102,344.532L93.718,342.975L96.925,341.004L97.306,337.591L100.219,339.797L103.749,338.798L102.571,342.768L104.571,345.769ZM85.131,273.303L79.354,270.4L80.178,272.648C80.193,272.692 80.209,272.736 80.222,272.78C81.181,275.96 79.411,279.432 76.27,280.531C74.342,281.206 72.35,280.866 70.84,279.792C71.014,281.638 70.315,283.537 68.77,284.872C67.596,285.888 66.126,286.394 64.662,286.394C62.977,286.394 61.301,285.725 60.085,284.426C60.052,284.392 60.022,284.357 59.993,284.321L57.193,280.956L57.193,288.369C57.193,291.684 54.444,294.418 50.997,294.418C47.547,294.418 44.798,291.684 44.798,288.369L44.798,280.956L41.998,284.321C41.969,284.357 41.939,284.392 41.906,284.426C39.633,286.853 35.746,287.057 33.221,284.874L33.221,284.872C31.676,283.537 30.977,281.638 31.152,279.792C30.457,280.285 29.66,280.624 28.814,280.779C39.992,307.142 60.547,328.582 86.29,340.908L91.19,337.739L92.396,325.651L101.189,333.062L108.66,330.739L105.749,320.828L76.779,308.771L84.691,302.624L82.543,295.744L74.367,291.949L81.926,286.273L82.749,277.684L87.308,281.333L85.131,273.303ZM117.923,310.182L108.954,306.066L117.395,300.861L118.423,291.83L126.187,297.713L135.451,295.037L132.392,305.535L137.657,313.475L127.187,312.975L121.099,319.533L117.923,310.182ZM158.478,319.476L151.155,307.801L156.126,310.066L158.478,319.476ZM156.891,305.007L159.832,303.212L160.184,300.067L162.889,302.125L166.096,301.183L165.036,304.83L166.861,307.595L163.243,307.419L161.125,309.711L160.007,306.448L156.891,305.007ZM169.832,294.508L163.95,296.566L155.684,289.92L154.539,300.772L148.686,303.77L158.714,273.038L151.862,274.421L157.803,267.421L179.124,269.362L177.948,279.302L160.979,290.508L169.832,294.508ZM223.767,299.771C222.62,300.476 221.444,301.212 220.268,301.948L218.827,299.713C219.267,299.448 219.709,299.183 220.151,298.889C221.356,299.183 222.561,299.477 223.767,299.771ZM91.073,297.625L88.014,301.654L94.543,297.832L91.073,297.625ZM231.208,275.987C229.184,276.432 227.522,276.575 226.225,276.431C224.743,276.265 223.613,275.944 222.83,275.494C222.061,275.052 221.226,274.357 220.332,273.4C219.207,272.197 218.721,270.595 218.923,268.58C219.06,267.212 219.469,265.942 220.151,264.771C216.088,265.405 212.058,265.266 208.061,264.356C204.535,267.448 200.385,269.05 195.609,269.159C195.412,269.164 195.217,269.166 195.024,269.165L196.505,270.363L217.563,265.832L210.092,286.304L214.679,293.332C214.886,293.39 215.092,293.448 215.297,293.478C215.003,293.008 214.709,292.537 214.444,292.068C213.827,291.067 214.15,289.772 215.209,289.213C216.208,288.655 217.503,289.009 218.12,289.979C219.121,291.624 220.12,293.244 221.091,294.862C222.326,295.154 223.533,295.448 224.738,295.744C223.798,294.214 222.885,292.712 221.975,291.213C221.356,290.183 221.681,288.89 222.737,288.331C223.738,287.802 225.032,288.125 225.65,289.124C227.268,291.772 228.915,294.449 230.531,297.123C231.737,297.39 232.973,297.682 234.178,297.978C232.591,295.39 231.002,292.802 229.414,290.214C228.325,288.419 230.296,286.304 232.178,287.303C234.692,288.656 237.18,290.008 239.692,291.362L239.958,290.875C239.678,289.929 239.398,288.992 239.12,288.037C236.355,286.567 233.619,285.068 230.856,283.596C229.854,283.068 229.414,281.773 229.914,280.745C230.414,279.657 231.678,279.244 232.737,279.803C234.297,280.656 235.855,281.479 237.414,282.332C237.06,281.125 236.708,279.949 236.355,278.744C234.65,277.832 232.973,276.95 231.296,276.039L231.208,275.987ZM202.504,293.509L195.447,293.184L191.358,297.567L189.212,291.301L183.182,288.507L188.858,285.008L189.565,278.948L194.77,282.891L201.006,281.098L198.946,288.154L202.504,293.509ZM92.631,293.39L89.278,293.213L87.308,295.331L86.279,292.331L83.396,291.007L86.132,289.332L86.455,286.419L88.926,288.302L91.926,287.449L90.927,290.83L92.631,293.39ZM95.661,275.126L103.66,275.774L102.836,292.331L98.924,294.566L95.807,289.772L98.543,281.596L89.338,283.271L95.661,275.126ZM252.565,253.932C250.908,254.798 249.531,255.515 248.432,256.085C248.432,256.085 250.4,258.19 250.4,258.19C250.651,258.458 250.748,258.79 250.647,259.196C250.567,259.519 250.387,259.775 250.106,259.963C250.087,259.976 250.067,259.988 250.047,259.998L247.415,261.388C246.809,261.682 246.285,261.582 245.838,261.104C245.838,261.104 243.521,258.625 243.521,258.625C236.63,262.26 232.224,264.66 230.302,265.824C228.412,266.971 227.008,268.083 226.101,269.174C225.755,269.591 225.591,269.921 225.858,270.207C226.183,270.554 226.691,270.774 227.363,270.91C228.151,271.069 229.142,271.099 230.338,271.011C231.389,270.933 232.566,270.748 233.868,270.457C233.765,270.104 233.663,269.75 233.561,269.393C233.238,268.303 233.795,267.097 234.943,266.745C236.061,266.422 237.208,267.127 237.531,268.215C237.642,268.595 237.757,268.976 237.873,269.357C238.533,269.147 239.216,268.917 239.923,268.669C239.926,268.668 239.928,268.667 239.931,268.666C240.232,268.564 240.467,268.62 240.642,268.722C240.808,268.82 240.983,269.002 241.037,269.321C241.451,269.291 241.88,269.389 242.265,269.627C243.266,270.215 243.589,271.508 243.059,272.538L240.325,277.569C240.678,278.744 241.03,279.949 241.383,281.125C242.236,279.569 243.09,278.039 243.912,276.479C244.5,275.42 245.766,275.096 246.796,275.714L246.825,275.733C249.408,268.755 251.346,261.465 252.565,253.932ZM98.806,255.804L106.454,245.776L120.717,247.071L112.218,252.716L135.51,262.245L139.303,278.155L128.657,280.979L104.542,260.512L103.66,269.596L100.984,266.009L104.69,255.07L98.806,255.804ZM33.617,275.518L35.978,260.906L44.798,256.088L45.284,265.759L33.617,275.518ZM68.374,275.516L56.423,266.816L57.193,256.088L66.785,261.932L68.374,275.516ZM95.955,263.598C95.955,263.598 93.726,264.232 93.726,264.232C94.485,265.959 94.443,268.037 93.413,269.845L96.72,269.979C96.72,269.979 94.896,267.246 94.896,267.246L95.955,263.598ZM169.743,249.334L176.007,252.188L179.241,263.569L169.743,249.334ZM198.744,260.906C196.751,261.457 194.747,261.578 192.733,261.266C190.262,260.884 188.428,260.09 187.254,258.833C186.961,258.519 186.806,258.173 186.807,257.787C186.809,257.394 186.933,257.047 187.182,256.748C187.482,256.386 187.846,256.174 188.281,256.126C188.799,256.068 189.444,256.219 190.222,256.541C191.112,256.909 191.984,257.317 192.839,257.763C193.708,258.218 194.863,258.84 196.305,259.63C197.169,260.103 197.982,260.528 198.742,260.906L198.744,260.906ZM137.657,250.424L144.568,246.216L145.391,238.864L151.685,243.658L159.242,241.481L156.745,250.011L161.037,256.48L152.508,256.069L147.568,261.394L144.979,253.804L137.657,250.424ZM157.771,119.7C158.465,120.525 159.133,121.399 159.773,122.319C160.751,123.725 161.767,125.251 162.821,126.897C163.793,128.417 164.602,129.641 165.247,130.57C167.758,131.291 169.818,132.519 171.433,134.246C172.043,134.899 172.416,135.712 172.541,136.689C172.672,137.724 172.436,138.578 171.868,139.261C171.036,140.262 170.044,140.779 168.906,140.838C167.769,140.897 166.688,140.422 165.689,139.354C164.793,138.395 163.801,137.156 162.713,135.636C159.984,135.776 156.936,136.522 153.564,137.863C150.179,139.21 146.301,141.036 141.931,143.341C141.931,143.341 142.063,143.482 142.063,143.482C143.085,144.576 144.305,145.363 145.723,145.844C147.169,146.335 148.688,146.544 150.281,146.475C151.935,146.403 153.717,146.213 155.627,145.906C157.542,145.597 159.428,145.198 161.284,144.707C163.179,144.206 165.098,143.79 167.038,143.457C168.984,143.124 170.791,142.903 172.458,142.794C174.19,142.681 175.841,142.879 177.411,143.387C179.013,143.905 180.369,144.76 181.48,145.948C182.409,146.942 182.8,148.321 182.584,150.101C182.379,151.795 181.841,153.144 180.999,154.157C180.408,154.869 179.897,155.261 179.518,155.393C179.02,155.567 178.621,155.454 178.309,155.119C178.266,155.074 178.188,154.98 178.136,154.808C178.1,154.69 178.047,154.4 177.987,153.937C177.938,153.557 177.746,153.206 177.432,152.87C176.537,151.913 175.228,151.418 173.525,151.335C171.667,151.245 169.596,151.433 167.311,151.892C164.962,152.365 162.529,152.828 160.012,153.282C157.446,153.744 154.746,153.861 151.913,153.632C149.601,153.445 147.504,152.912 145.619,152.038C145.789,153.071 145.77,154.124 145.562,155.199C145.255,156.791 144.559,158.243 143.47,159.553C142.754,160.414 141.664,161.486 140.195,162.764C138.756,164.016 137.362,165.196 136.012,166.305C134.676,167.402 133.389,168.513 132.152,169.637C130.962,170.717 130.101,171.675 129.576,172.517C129.402,172.795 129.284,173.043 129.233,173.267C129.192,173.444 129.197,173.594 129.302,173.706C129.62,174.046 130.144,174.241 130.848,174.349C132.128,174.544 133.932,174.413 136.265,173.976C139.667,173.339 143.055,172.432 146.426,171.255C147.699,170.328 149.115,169.525 150.675,168.845C153.841,167.465 157.041,166.902 160.272,167.153C163.581,167.41 166.205,168.595 168.156,170.681C169.654,172.283 170.503,173.923 170.734,175.585C170.973,177.303 170.45,178.965 169.125,180.56C167.431,182.598 165.178,183.699 162.36,183.85C159.633,183.995 157.084,183.543 154.713,182.496C152.577,181.553 150.777,180.424 149.31,179.114C148.761,179.598 148.262,180.11 147.813,180.651C146.877,181.777 146.28,182.886 146.041,183.987C145.832,184.949 146.048,185.779 146.699,186.475C147.24,187.054 147.924,187.578 148.748,188.054C149.597,188.544 150.73,188.989 152.144,189.398C153.554,189.806 155.319,189.901 157.439,189.7C158.859,189.566 160.348,189.279 161.905,188.84C168.358,186.329 173.476,184.039 177.257,181.968C177.261,180.793 177.549,179.903 178.065,179.281C178.965,178.199 179.916,177.622 180.88,177.491C181.936,177.349 182.814,177.659 183.517,178.411C184.124,179.061 184.412,179.876 184.356,180.862C184.305,181.784 183.941,182.668 183.245,183.505C183.144,183.627 183.023,183.745 182.882,183.858C182.882,183.858 182.942,184.273 182.94,184.265C183.201,185.507 183.379,186.461 183.475,187.126C183.571,187.797 183.653,188.655 183.719,189.699C183.79,190.813 183.696,191.778 183.449,192.596C183.194,193.436 182.81,194.162 182.301,194.775C181.792,195.387 181.085,195.92 180.17,196.364C180.166,196.366 180.161,196.369 180.156,196.371C171.448,200.347 166.284,203.253 164.701,205.157C164.33,205.604 164.137,205.946 164.392,206.237C164.422,206.249 164.565,206.304 164.68,206.327C164.955,206.382 165.318,206.406 165.767,206.407C166.742,206.41 168.366,206.137 170.643,205.605C172.279,205.223 174.088,204.704 176.068,204.051C177.49,202.932 179.104,201.979 180.911,201.191C184.077,199.811 187.277,199.249 190.508,199.5C193.817,199.757 196.441,200.941 198.392,203.028C199.889,204.63 200.739,206.27 200.97,207.931C201.209,209.649 200.686,211.312 199.361,212.907C197.667,214.945 195.414,216.046 192.596,216.196C189.869,216.342 187.32,215.889 184.948,214.842C182.813,213.9 181.013,212.771 179.546,211.461C178.997,211.945 178.498,212.457 178.048,212.998C177.113,214.124 176.516,215.232 176.277,216.333C176.068,217.295 176.284,218.126 176.935,218.822C177.476,219.4 178.16,219.925 178.984,220.4C179.833,220.89 180.966,221.336 182.38,221.745C183.79,222.152 185.555,222.247 187.674,222.047C188.217,221.996 188.769,221.922 189.331,221.827C189.971,221.411 190.573,221.292 191.123,221.411C194.307,220.507 199.451,218.686 206.556,215.952C208.914,215.037 210.918,215.475 212.572,217.245C213.393,218.123 213.827,219.218 213.859,220.537C213.891,221.878 213.586,222.885 213.012,223.576C212.897,223.714 212.732,223.8 212.553,223.814C211.432,223.905 210.27,224.554 209.038,225.706C207.707,226.951 206.508,228.375 205.442,229.98C204.337,231.642 203.104,233.348 201.743,235.097C200.785,236.327 199.861,237.417 198.97,238.366C201.433,238.232 204.436,237.543 207.981,236.311C211.061,235.118 213.952,233.891 216.654,232.632C216.979,231.364 217.576,230.206 218.447,229.158C219.444,227.958 220.606,227.154 221.925,226.735C223.455,226.248 224.536,226.467 225.194,227.17C225.964,227.995 226.174,229.084 225.727,230.452C225.394,231.471 224.867,232.427 224.144,233.32C224.911,234.132 226.516,235.69 228.958,237.995C231.47,240.367 233.308,242.019 234.473,242.949C234.479,242.955 234.486,242.96 234.493,242.966C234.753,243.191 234.939,243.511 235.017,243.944C235.101,244.405 235.057,245.033 234.852,245.825C234.541,247.025 234.063,248.089 233.42,249.019C232.69,250.077 231.903,250.632 231.124,250.765C231.079,250.773 231.034,250.776 230.989,250.774C228.609,250.696 225.25,250.527 220.912,250.266C217.37,250.053 214.797,249.917 213.195,249.858C214.069,253.239 213.596,256.538 211.768,259.755C217.11,260.746 222.611,260.131 228.273,257.923C230.481,256.664 233.714,254.919 237.972,252.689C237.972,252.689 236.728,251.359 236.728,251.359C236.478,251.09 236.381,250.758 236.482,250.352C236.577,249.966 236.785,249.736 237.032,249.611L239.686,248.173C239.695,248.169 239.704,248.164 239.713,248.16C240.319,247.866 240.844,247.966 241.29,248.444C241.29,248.444 242.883,250.148 242.883,250.148C244.997,249.049 248.601,247.179 253.698,244.536C253.948,241.417 254.074,238.266 254.074,235.085C254.074,177.521 212.504,129.589 157.771,119.7ZM93.065,254.373C92.686,254.936 92.218,255.437 91.68,255.854L93.838,257.628C93.838,257.628 93.065,254.373 93.065,254.373ZM191.642,250.619C192.728,251.07 193.785,251.59 194.814,252.18C196.093,252.914 197.742,253.844 199.761,254.972C201.6,255.999 203.269,256.846 204.77,257.511C205.275,257.05 205.736,256.568 206.153,256.066C206.925,255.137 207.446,254.069 207.72,252.863C207.957,251.812 207.901,250.747 207.555,249.666C207.33,249.662 207.178,249.663 207.1,249.672C207.074,249.675 207.048,249.676 207.022,249.676C206.355,249.672 205.842,249.493 205.467,249.188C205.075,248.868 204.815,248.401 204.728,247.765C204.587,246.722 204.953,245.615 205.903,244.472C206.514,243.737 207.309,243.435 208.295,243.582C209.112,243.703 209.766,244.007 210.265,244.474C216.441,244.714 221.489,244.806 225.408,244.748C221.516,241.609 218.945,239.368 217.692,238.028C217.46,237.78 217.252,237.504 217.067,237.2C214.821,238.156 212.389,239.153 209.772,240.188C209.69,240.251 209.597,240.301 209.499,240.336C204.203,242.444 200.134,243.506 197.299,243.55C194.914,243.588 192.771,243.052 190.871,241.948L189.181,246.452L191.642,250.619ZM19.892,243.913L30.396,239.854L39.892,245.33L30.696,251.158L20.154,246.913C20.055,245.921 19.967,244.919 19.892,243.913ZM177.771,247.63L179.977,246.275L180.242,243.924L182.271,245.453L184.683,244.775L183.889,247.511L185.242,249.569L182.534,249.452L180.947,251.158L180.094,248.718L177.771,247.63ZM85.767,245.33L71.954,250.362L62.099,245.33L72.204,240.111L85.767,245.33ZM176.812,226.086L168.771,246.775L175.154,243.424L175.802,234.426L183.007,240.159L187.009,239.047C186.861,238.899 186.712,238.746 186.563,238.586C185.23,237.16 184.495,235.409 184.367,233.33C184.243,231.311 184.54,229.427 185.255,227.677C185.335,227.481 185.417,227.288 185.502,227.098C183.861,227.305 182.473,227.358 181.339,227.261C179.812,227.131 178.355,226.762 176.968,226.155L176.812,226.086ZM90.909,245.299L90.892,245.226C90.821,245.263 90.748,245.297 90.675,245.33C90.767,245.374 90.859,245.418 90.949,245.466L90.909,245.299ZM136.951,215.603L134.158,214.25L133.128,238.953L124.099,244.982L114.747,230.777L121.159,213.484L107.513,216.397L113.805,208.336L131.216,209.631L135.804,211.22L136.951,215.603ZM108.423,237.6L102.159,237.308L98.513,241.218L96.601,235.629L91.221,233.158L96.278,230.041L96.897,224.63L101.543,228.16L107.101,226.542L105.276,232.835L108.423,237.6ZM33.617,215.144L45.803,224.221L44.798,234.574L35.216,230.049L33.617,215.144ZM68.374,215.144L65.894,229.603L57.193,234.572L57.247,224.607L68.374,215.144ZM190.244,232.106C189.535,231.348 189.384,230.394 189.737,229.253C190.125,227.999 190.853,226.849 191.914,225.799C194.247,225.148 197.267,224.198 200.975,222.949C200.756,223.236 200.528,223.538 200.291,223.856C199.501,224.916 198.808,225.842 198.212,226.633C197.618,227.42 196.973,228.251 196.276,229.126C195.603,229.971 194.986,230.646 194.421,231.149C193.865,231.645 193.296,232.07 192.713,232.424C192.247,232.707 191.812,232.84 191.396,232.786C190.984,232.732 190.606,232.494 190.244,232.106L190.244,232.106ZM174.862,225.095C174.484,224.87 174.166,224.652 173.906,224.44C173.267,223.92 172.563,223.251 171.796,222.431C169.741,220.232 168.931,217.707 169.355,214.86C169.577,213.373 170.05,211.91 170.777,210.47C170.726,210.485 170.675,210.499 170.624,210.514C168.304,211.169 166.439,211.458 165.032,211.397C163.575,211.334 162.45,211.121 161.652,210.78C160.832,210.429 160.044,209.858 159.295,209.057C158.17,207.853 157.655,206.336 157.775,204.5C157.891,202.729 158.569,201.088 159.819,199.583C161.01,198.151 162.758,196.7 165.073,195.241C167.332,193.816 171.115,191.903 176.434,189.5C176.939,189.253 177.328,188.98 177.588,188.667C177.918,188.27 178.033,187.647 177.996,186.805C174.399,188.551 169.143,190.695 162.227,193.236C162.221,193.238 162.215,193.24 162.21,193.242C162.074,193.287 161.951,193.303 161.843,193.296C160.103,193.841 158.46,194.244 156.914,194.506C155.88,194.681 154.93,194.805 154.063,194.879L150.596,205.25L155.861,214.22L145.892,213.72L140.422,219.337L153.743,230.337L174.862,225.095ZM64.079,143.141L70.546,145.608L72.309,151.812L72.104,167.459L61.28,174.605L73.22,179.604L77.192,191.927L84.455,182.341L94.748,183.163L94.574,185.811L78.604,196.25L83.984,199.367L80.191,200.339L72.897,194.369L71.956,203.573L68.783,205.8L68.77,205.788C66.245,203.605 62.358,203.809 60.085,206.234C60.052,206.269 60.022,206.305 59.993,206.34L57.193,209.706L57.193,202.293C57.193,198.979 54.444,196.242 50.997,196.242C47.547,196.242 44.798,198.979 44.798,202.293L44.798,209.706L41.998,206.34C41.969,206.305 41.939,206.269 41.906,206.234C39.633,203.809 35.746,203.605 33.221,205.788C31.676,207.124 30.977,209.024 31.152,210.871C29.641,209.796 27.649,209.456 25.722,210.131C22.578,211.23 20.81,214.7 21.769,217.88C21.783,217.926 21.796,217.97 21.813,218.015L23.325,222.142L20.466,220.486C24.353,189.233 40.563,161.778 64.079,143.141ZM81.367,214.368L80.453,215.505C80.529,216.287 80.46,217.092 80.222,217.88C80.209,217.926 80.195,217.97 80.178,218.015L78.666,222.142L85.066,218.437C86.073,217.855 87.185,217.602 88.282,217.649L88.425,215.19L81.367,214.368ZM85.514,207.014L88.102,200.839L96.601,204.074L99.043,213.808L89.278,205.925L89.132,206.044L88.308,210.955L85.514,207.014ZM82.514,210.544L80.985,208.221L81.867,205.193L79.19,205.955L76.956,204.28L76.662,206.868L74.192,208.398L76.81,209.574L77.123,210.504C77.62,210.767 78.073,211.095 78.475,211.475L79.486,210.398L82.514,210.544ZM146.862,208.692L143.215,208.544L141.127,210.807L140.01,207.573L136.892,206.132L139.834,204.309L140.185,201.192L142.862,203.219L146.098,202.31L145.039,205.955L146.862,208.692ZM195.812,206.751C195.861,206.803 195.903,206.85 195.91,206.906C195.848,207.307 195.593,207.666 195.187,208.011C194.664,208.455 193.906,208.857 192.923,209.23C192.921,209.231 192.918,209.232 192.915,209.233C189.797,210.465 186.611,210.286 183.357,208.719C185.726,207.382 188.129,206.495 190.567,206.06C191.914,205.82 193.045,205.763 193.961,205.903C194.764,206.025 195.386,206.296 195.812,206.751ZM151.77,194.953C151.538,194.945 151.316,194.932 151.103,194.914C149.576,194.784 148.119,194.415 146.732,193.808C145.341,193.2 144.323,192.624 143.67,192.093C143.031,191.574 142.327,190.905 141.561,190.084C139.505,187.885 138.695,185.36 139.119,182.513C139.363,180.88 139.909,179.276 140.763,177.7L140.763,177.699C135.666,179.167 131.582,179.719 128.515,179.378C127.983,179.319 127.481,179.233 127.007,179.121L122.306,192.398L129.863,203.515L134.01,201.427L135.422,189.809L143.481,197.28L151.77,194.953ZM103.629,192.104L104.248,186.693L108.894,190.222L114.453,188.605L112.601,194.897L115.777,199.663L109.482,199.367L105.835,203.281L103.923,197.691L98.543,195.22L103.629,192.104ZM77.897,171.429L78.337,167.43L81.778,170.016L85.896,168.84L84.543,173.488L86.866,177.018L82.22,176.782L79.544,179.693L78.132,175.546L74.133,173.723L77.897,171.429ZM122.383,176.166C121.178,174.576 120.69,172.881 120.894,171.09C121.125,169.057 122.028,167.076 123.625,165.154C124.975,163.531 127.815,161.16 132.16,158.058C136.365,155.055 138.957,152.984 139.92,151.826C140.469,151.165 140.73,150.436 140.688,149.636C140.646,148.821 140.303,148.083 139.677,147.413C139.677,147.413 137.948,145.563 137.948,145.563C137.183,145.987 136.14,146.57 134.82,147.314L130.51,149.687C129.552,150.215 128.2,150.94 126.454,151.862C124.697,152.791 123.328,153.473 122.349,153.91C121.375,154.345 120.137,154.876 118.635,155.503C117.107,156.142 115.876,156.59 114.943,156.85C114.014,157.109 112.958,157.354 111.775,157.583C111.181,157.698 110.631,157.772 110.126,157.805L114.276,164.488L105.19,163.989L99.925,169.899L109.924,179.399L122.383,176.166ZM94.514,161.341L96.985,162.165L98.159,168.871L95.955,167.105L95.131,178.694L90.337,172.399L94.514,161.341ZM165.576,174.405C165.625,174.457 165.667,174.504 165.674,174.559C165.612,174.961 165.357,175.319 164.951,175.664C164.428,176.108 163.671,176.51 162.688,176.883C162.685,176.884 162.682,176.885 162.679,176.886C159.561,178.119 156.375,177.939 153.121,176.372C155.49,175.036 157.893,174.148 160.331,173.713C161.678,173.473 162.809,173.416 163.725,173.556C164.528,173.678 165.15,173.949 165.576,174.405ZM83.074,163.666L76.485,157.665L83.337,148.607L95.69,149.489L95.338,154.195L88.573,158.167L92.865,160.636L83.074,163.666ZM103.321,154.952L102.778,155.108L100.544,153.43L100.248,156.018L97.779,157.519L100.396,158.724L101.308,161.429L103.07,159.548L106.1,159.665L104.571,157.371L104.846,156.428C104.467,156.17 104.122,155.874 103.812,155.543C103.636,155.354 103.472,155.158 103.321,154.952ZM148.954,118.451C144.963,118.04 140.915,117.829 136.819,117.829C135.376,117.829 133.94,117.855 132.511,117.907L132.264,118.002C128.62,119.428 125.626,121.548 123.284,124.366C122.045,125.856 121.302,127.311 121.081,128.741C120.877,130.056 121.196,131.174 122.054,132.092C123.234,133.354 124.859,133.798 126.914,133.484C129.027,133.16 130.577,132.449 131.537,131.293C131.904,130.852 132.291,130.79 132.57,130.855C132.745,130.896 132.919,130.991 133.069,131.174C133.208,131.344 133.35,131.655 133.435,132.12C133.744,133.397 133.441,134.614 132.487,135.761C130.712,137.897 128.072,139.223 124.547,139.698C120.983,140.178 118.012,139.138 115.628,136.589C113.677,134.502 112.765,131.566 112.95,127.764C113.09,124.892 113.918,122.229 115.436,119.778C107.995,121.152 100.798,123.229 93.918,125.938L90.279,137.638L96.043,146.373L96.424,144.019L102.012,149.306C102.217,146.985 102.878,145.18 103.96,143.878C104.444,143.297 104.918,142.888 105.371,142.639C106.144,142.215 106.692,142.364 107.01,142.704C107.061,142.758 107.14,142.858 107.186,143.032C107.215,143.14 107.247,143.399 107.266,143.808C107.277,144.043 107.327,144.236 107.455,144.372C108.043,145.001 108.657,145.482 109.301,145.81C109.947,146.138 110.937,146.305 112.266,146.348C113.665,146.394 115.298,146.151 117.167,145.63C119.091,145.095 121.626,144.149 124.771,142.797C127.939,141.436 131.595,139.687 135.741,137.551C144.916,132.72 152.645,130.176 158.916,129.889C156.305,125.954 154.086,123.006 152.254,121.046C151.28,120.004 150.179,119.139 148.954,118.451ZM75.665,135.043C76.512,134.523 77.364,134.016 78.223,133.519L79.749,134.667L84.19,133.374L82.72,138.431L85.251,142.255L80.22,142.02L77.309,145.137L75.78,140.668L71.456,138.668L75.543,136.168L75.665,135.043ZM153.862,80.436L179.889,104.287L180.419,105.288L180.29,105.606L180.195,106.039L180.189,106.092C174.413,104.148 168.461,102.581 162.366,101.421L161.821,100.432L161.261,99.409L160.126,97.318C160.038,97.141 159.95,96.995 159.89,96.847C157.125,91.759 155.303,86.083 153.862,80.436ZM126.011,79.759C123.982,85.819 121.482,91.818 117.923,97.024L117.894,97.024C117.835,97.141 117.775,97.229 117.687,97.318C117.658,97.406 117.57,97.523 117.452,97.671L117.042,98.249L116.246,99.381L115.61,100.266L115.274,100.721C108.993,101.722 102.856,103.153 96.893,104.984L96.631,104.2L98.278,101.641L126.011,79.759ZM140.465,49.848L140.627,49.852C142.334,49.909 143.98,50.645 145.127,51.938C146.303,53.174 146.951,54.849 146.862,56.556C146.803,58.291 146.038,59.908 144.803,61.086C143.509,62.26 141.863,62.879 140.128,62.819C138.421,62.762 136.775,62.026 135.628,60.733C134.452,59.497 133.804,57.82 133.864,56.115C133.952,54.35 134.717,52.763 135.95,51.587C137.096,50.519 138.581,49.913 140.141,49.852L140.465,49.848ZM212.533,14.49L212.739,14.493C220.061,14.64 222.354,22.1 218.297,30.998C205.399,42.147 189.145,48.573 172.115,49.219L171.713,49.233C178.065,33.087 191.329,20.618 207.857,15.296C209.586,14.744 211.148,14.488 212.533,14.49ZM70.673,9.257C72.254,9.253 74.061,9.626 76.074,10.442C92.16,16.971 104.454,30.352 109.63,46.91C92.543,45.117 76.633,37.47 64.545,25.293C61.224,16.382 63.823,9.274 70.673,9.257Z" style="fill:none;stroke:rgb(255,0,0);stroke-width:1px;"/>
    </g>
</svg>
