<?xml version="1.0" encoding="UTF-8" standalone="no"?>
<!DOCTYPE svg PUBLIC "-//W3C//DTD SVG 1.1//EN" "http://www.w3.org/Graphics/SVG/1.1/DTD/svg11.dtd">
<svg width="100%" height="100%" viewBox="0 0 1123 794" version="1.1" xmlns="http://www.w3.org/2000/svg" xmlns:xlink="http://www.w3.org/1999/xlink" xml:space="preserve" xmlns:serif="http://www.serif.com/" style="fill-rule:evenodd;clip-rule:evenodd;stroke-linejoin:round;stroke-miterlimit:2;">
    <path d="M144.768,40.265C146.525,40.302 148.11,40.912 149.422,41.91C150.863,43.057 151.891,44.704 152.273,46.587C152.802,46.587 182.859,16.178 188.975,12.177C194.836,8.337 202.831,5.966 211.003,5.93C211.404,5.929 211.807,5.932 212.21,5.942C221.975,6.413 230.502,10.413 234.032,19.412C239.942,32.998 232.913,47.381 232.854,60.821C232.825,76.702 247.707,93.348 235.179,108.435C229.972,113.729 222.856,118.846 215.857,121.903L215.797,121.903L214.909,122.185L213.44,122.66C235.271,137.575 252.544,158.68 262.718,183.428L263.146,184.482L263.635,185.717L264.183,187.147L264.715,188.58L264.956,189.247L265.465,190.694L265.958,192.147L266.475,193.735L266.941,195.223L267.39,196.719L267.822,198.222L268.318,200.033L268.765,201.757L269.14,203.283L269.499,204.816L269.84,206.356L270.097,207.582L270.267,208.418L270.567,209.973L270.849,211.533L271.113,213.1L271.309,214.338L271.419,215.073L271.66,216.779L271.864,218.366L272.05,219.958L272.182,221.204L272.257,221.958L272.366,223.158L272.397,223.517L272.519,225.075L272.624,226.63L272.71,228.177L272.746,228.945L272.807,230.524L272.85,232.102C272.861,232.627 272.87,233.152 272.875,233.676L272.882,235.204L272.88,235.812C272.877,236.27 272.873,236.727 272.866,237.183L272.845,238.277C272.836,238.637 272.827,238.997 272.816,239.357L272.77,240.666L272.707,242.056L272.66,242.916C272.616,243.693 272.566,244.469 272.509,245.242L272.378,246.891L272.235,248.448L272.115,249.632L271.964,250.996L271.773,252.558L271.607,253.813L271.429,255.064L271.176,256.717L270.983,257.897L270.743,259.275L270.405,261.091L270.108,262.584L269.863,263.752L269.428,265.714L269.074,267.212L268.795,268.344L268.42,269.801L268.042,271.21L267.725,272.344L267.361,273.601L266.892,275.16L266.363,276.838L265.822,278.487L265.452,279.56L265.025,280.738L264.863,281.178C264.752,281.514 264.639,281.848 264.5,282.186C263.205,285.714 261.764,289.155 260.177,292.537C259.764,293.448 259.353,294.331 258.911,295.213C258.206,296.654 257.441,298.096 256.707,299.508C256.647,299.565 256.619,299.654 256.588,299.713C255.177,302.329 253.677,304.919 252.09,307.419L251.385,308.513L250.98,309.103L250.316,310.136L249.767,310.943L249.354,311.546L249.354,311.565C249.088,312.005 248.794,312.416 248.472,312.829C247.32,314.5 246.13,316.138 244.904,317.745L244.816,317.86C243.221,319.948 241.565,321.984 239.854,323.976L239.073,324.871L238.079,325.991L237.478,326.655L236.874,327.314L236.265,327.97L235.652,328.622L235.034,329.27L234.413,329.913L233.787,330.553L233.157,331.188L232.523,331.819L231.885,332.446L231.243,333.069L230.597,333.688L229.946,334.303L229.292,334.913L228.634,335.519L227.305,336.718L225.961,337.9L224.601,339.064L223.226,340.21L221.835,341.339L220.43,342.45L219.251,343.358L218.294,344.082L217.12,344.95L216.125,345.672L214.957,346.501L213.924,347.22L212.763,348.011L211.691,348.725L210.538,349.478L209.428,350.187L208.283,350.903L207.134,351.605L205.999,352.284L204.81,352.979L203.686,353.621L202.128,354.488L200.557,355.336L199.718,355.777L198.921,356.19L198.122,356.597L197.319,356.999L196.514,357.396L195.706,357.788L194.894,358.175L194.08,358.556L193.263,358.932L192.443,359.303L191.621,359.668L190.795,360.029L189.967,360.383L189.136,360.733L188.303,361.077L187.466,361.416L186.627,361.749L185.472,362.197L184.208,362.674L183.508,362.932C175.658,365.798 167.471,367.962 159.021,369.348L157.605,369.572L156.197,369.781L154.318,370.035L152.436,370.263L150.549,370.465L148.516,370.653L146.646,370.8L144.654,370.927L142.787,371.02L140.923,371.087L139.53,371.121L138.144,371.142L136.819,371.148L135.472,371.141L135.01,371.136L133.308,371.103L132.116,371.068L131.571,371.048C131.011,371.027 130.452,371.002 129.893,370.974L128.91,370.921L128.07,370.87L126.787,370.783L125.344,370.67L124.595,370.605L123.757,370.528L122.78,370.431L121.461,370.29L119.917,370.108L119.147,370.01L118.622,369.94C61.059,362.253 14.891,318.582 3.474,262.277L3.239,261.09L2.955,259.579L2.689,258.062L2.439,256.54L2.206,255.012L1.989,253.478L1.79,251.939L1.609,250.395L1.444,248.846L1.295,247.267L1.199,246.139L1.071,244.412L1.03,243.782L0.93,242.013L0.887,241.098L0.867,240.61L0.814,239.101L0.782,237.765L0.762,236.427L0.756,235.069L0.761,233.92L0.78,232.504L0.814,231.055L0.874,229.343L0.941,227.924L1.04,226.215L1.16,224.51L1.339,222.399L1.503,220.733L1.754,218.52L1.965,216.867L2.116,215.769L2.36,214.126L2.623,212.491L2.832,211.276L3.004,210.32L3.25,209.022L3.391,208.305L3.7,206.805L3.847,206.115L4.228,204.413L4.525,203.156L4.699,202.441L5.07,200.971L5.248,200.286L5.705,198.602L6.047,197.393L6.255,196.679L6.685,195.245L7.142,193.78L7.652,192.213L8.179,190.657L8.724,189.112L9.286,187.576L9.865,186.051L10.462,184.535L11.076,183.028L11.589,181.809L12.228,180.334L12.884,178.867L13.557,177.41L14.247,175.963L14.953,174.524L15.675,173.096L16.414,171.677L17.169,170.268L17.681,169.334L18.2,168.404L18.727,167.479L19.26,166.559L19.8,165.643L20.347,164.732L20.901,163.825L21.462,162.923L21.995,162.081C24.011,158.918 26.155,155.843 28.418,152.865L29.105,151.969L30.119,150.673L31.137,149.404L32.163,148.156L33.2,146.924L34.249,145.708L35.309,144.506L36.64,143.037L37.833,141.756L39.206,140.322L40.549,138.958L41.845,137.678L43.198,136.376L44.743,134.932L46.31,133.513L47.5,132.464L48.702,131.429L49.916,130.407L51.142,129.4L52.38,128.406L53.63,127.427L54.892,126.462L56.165,125.511L57.449,124.575L58.745,123.654L60.052,122.747L61.369,121.855L62.698,120.978L64.037,120.117L64.936,119.551L65.84,118.992C65.398,118.817 65.044,118.669 64.75,118.492L64.722,118.492C55.281,115.374 48.341,108.758 41.958,101.287C30.577,85.318 46.666,69.791 47.751,53.967C48.723,40.557 42.782,25.706 49.694,12.56C53.84,3.853 62.664,0.531 72.427,0.768C81.014,1.208 89.338,4.267 95.161,8.707C107.57,18.236 119.159,31.999 128.776,45.146C128.776,44.116 130.394,42.292 132.157,41.293C133.276,40.617 134.598,40.263 136.01,40.263L144.597,40.263L144.768,40.265ZM233.106,301.981L233,302.134C230.483,303.681 227.993,305.253 225.474,306.802C223.721,307.892 224.466,310.555 226.475,310.623C225.699,311.543 224.907,312.453 224.102,313.349L223.767,313.36C222.62,313.389 221.681,314.328 221.65,315.475C221.645,315.641 221.659,315.803 221.69,315.957C200.328,338.368 170.192,352.34 136.819,352.34C129.603,352.34 122.539,351.687 115.679,350.436L134.186,327.506L164.772,329.681L159.508,320.888L165.184,312.093L175.802,312.975L170.243,303.566L173.565,295.625L181.093,299.3L186.535,320.035L200.475,303.418L218.297,304.448C218.326,304.8 218.445,305.153 218.65,305.447C219.327,306.417 220.62,306.683 221.621,306.066C224.267,304.448 226.915,302.799 229.591,301.155C230.762,301.438 231.935,301.697 233.106,301.981ZM107.895,341.033L113.364,348.678L110.159,337.003L107.895,341.033ZM104.571,345.769L100.63,345.592L99.878,346.393C99.065,346.123 98.255,345.844 97.449,345.556L97.102,344.532L93.718,342.975L96.925,341.004L97.306,337.591L100.219,339.797L103.749,338.798L102.571,342.768L104.571,345.769ZM85.131,273.303L79.354,270.4L80.178,272.648C80.193,272.692 80.209,272.736 80.222,272.78C81.181,275.96 79.411,279.432 76.27,280.531C74.342,281.206 72.35,280.866 70.84,279.792C71.014,281.638 70.315,283.537 68.77,284.872C67.596,285.888 66.126,286.394 64.662,286.394C62.977,286.394 61.301,285.725 60.085,284.426C60.052,284.392 60.022,284.357 59.993,284.321L57.193,280.956L57.193,288.369C57.193,291.684 54.444,294.418 50.997,294.418C47.547,294.418 44.798,291.684 44.798,288.369L44.798,280.956L41.998,284.321C41.969,284.357 41.939,284.392 41.906,284.426C39.633,286.853 35.746,287.057 33.221,284.874L33.221,284.872C31.676,283.537 30.977,281.638 31.152,279.792C30.457,280.285 29.66,280.624 28.814,280.779C39.992,307.142 60.547,328.582 86.29,340.908L91.19,337.739L92.396,325.651L101.189,333.062L108.66,330.739L105.749,320.828L76.779,308.771L84.691,302.624L82.543,295.744L74.367,291.949L81.926,286.273L82.749,277.684L87.308,281.333L85.131,273.303ZM117.923,310.182L108.954,306.066L117.395,300.861L118.423,291.83L126.187,297.713L135.451,295.037L132.392,305.535L137.657,313.475L127.187,312.975L121.099,319.533L117.923,310.182ZM158.478,319.476L151.155,307.801L156.126,310.066L158.478,319.476ZM156.891,305.007L159.832,303.212L160.184,300.067L162.889,302.125L166.096,301.183L165.036,304.83L166.861,307.595L163.243,307.419L161.125,309.711L160.007,306.448L156.891,305.007ZM169.832,294.508L163.95,296.566L155.684,289.92L154.539,300.772L148.686,303.77L158.714,273.038L151.862,274.421L157.803,267.421L179.124,269.362L177.948,279.302L160.979,290.508L169.832,294.508ZM223.767,299.771C222.62,300.476 221.444,301.212 220.268,301.948L218.827,299.713C219.267,299.448 219.709,299.183 220.151,298.889C221.356,299.183 222.561,299.477 223.767,299.771ZM91.073,297.625L88.014,301.654L94.543,297.832L91.073,297.625ZM233.505,268.378C231.242,269.156 229.241,269.78 227.503,270.25C224.43,271.081 221.944,271.402 220.047,271.235C218.253,271.077 216.881,270.765 215.924,270.323L210.092,286.304L214.679,293.332C214.886,293.39 215.092,293.448 215.297,293.478C215.003,293.008 214.709,292.537 214.444,292.068C213.827,291.067 214.15,289.772 215.209,289.213C216.208,288.655 217.503,289.009 218.12,289.979C219.121,291.624 220.12,293.244 221.091,294.862C222.326,295.154 223.533,295.448 224.738,295.744C223.798,294.214 222.885,292.712 221.975,291.213C221.356,290.183 221.681,288.89 222.737,288.331C223.738,287.802 225.032,288.125 225.65,289.124C227.268,291.772 228.915,294.449 230.531,297.123C231.737,297.39 232.973,297.682 234.178,297.978C232.591,295.39 231.002,292.802 229.414,290.214C228.325,288.419 230.296,286.304 232.178,287.303C234.692,288.656 237.18,290.008 239.692,291.362L239.958,290.875C239.678,289.929 239.398,288.992 239.12,288.037C236.355,286.567 233.619,285.068 230.856,283.596C229.854,283.068 229.414,281.773 229.914,280.745C230.414,279.657 231.678,279.244 232.737,279.803C234.297,280.656 235.855,281.479 237.414,282.332C237.06,281.125 236.708,279.949 236.355,278.744C234.65,277.832 232.973,276.95 231.296,276.039C230.296,275.48 229.885,274.216 230.356,273.186C230.856,272.098 232.12,271.685 233.179,272.244C233.649,272.509 234.149,272.774 234.65,273.038C234.266,271.833 233.915,270.626 233.561,269.393C233.461,269.056 233.446,268.709 233.505,268.378ZM202.504,293.509L195.447,293.184L191.358,297.567L189.212,291.301L183.182,288.507L188.858,285.008L189.565,278.948L194.77,282.891L201.006,281.098L198.946,288.154L202.504,293.509ZM92.631,293.39L89.278,293.213L87.308,295.331L86.279,292.331L83.396,291.007L86.132,289.332L86.455,286.419L88.926,288.302L91.926,287.449L90.927,290.83L92.631,293.39ZM95.661,275.126L103.66,275.774L102.836,292.331L98.924,294.566L95.807,289.772L98.543,281.596L89.338,283.271L95.661,275.126ZM253.841,242.536C252.885,243.054 251.835,243.377 250.692,243.505C249.584,243.628 248.586,243.546 247.695,243.265L248.194,243.799C248.481,244.106 248.589,244.487 248.473,244.953C248.379,245.334 248.166,245.637 247.833,245.86C247.813,245.873 247.792,245.886 247.77,245.897C236.574,251.707 229.354,255.605 226.11,257.592C222.945,259.531 220.768,261.196 219.597,262.606C219.02,263.3 218.791,263.842 219.206,264.285C219.414,264.508 219.812,264.609 220.368,264.679C221.467,264.817 223.082,264.722 225.212,264.408C228.861,263.87 233.343,262.651 238.66,260.757C238.709,260.74 238.759,260.728 238.81,260.722C239.226,260.676 239.496,260.817 239.663,260.995C239.826,261.17 239.944,261.436 239.882,261.808C239.868,262.144 239.823,262.801 239.744,263.779C239.744,263.779 239.623,265.277 239.624,265.269C239.598,265.917 239.295,266.289 238.826,266.452C238.154,266.706 237.5,266.95 236.861,267.184C237.171,267.45 237.409,267.806 237.531,268.215C237.884,269.42 238.267,270.626 238.618,271.833C238.885,271.362 239.149,270.861 239.414,270.392C239.973,269.331 241.266,269.01 242.265,269.627C243.266,270.215 243.589,271.508 243.059,272.538L240.325,277.569C240.678,278.744 241.03,279.949 241.383,281.125C242.236,279.569 243.09,278.039 243.912,276.479C244.5,275.42 245.766,275.096 246.796,275.714L246.825,275.733C250.692,265.287 253.112,254.139 253.841,242.536ZM98.806,255.804L106.454,245.776L120.717,247.071L112.218,252.716L135.51,262.245L139.303,278.155L128.657,280.979L104.542,260.512L103.66,269.596L100.984,266.009L104.69,255.07L98.806,255.804ZM33.617,275.518L35.978,260.906L44.798,256.088L45.284,265.759L33.617,275.518ZM68.374,275.516L56.423,266.816L57.193,256.088L66.785,261.932L68.374,275.516ZM190.888,241.903L189.181,246.452L193.977,254.57L184.8,253.892L181.418,258.158L196.505,270.363L212.037,267.021C210.936,265.537 210.426,263.723 210.522,261.575C210.624,259.303 211.406,257.207 212.876,255.29C210.514,255.632 208.539,255.751 206.952,255.651C204.923,255.523 203,255.083 201.183,254.332C199.359,253.578 198.017,252.845 197.152,252.147C196.302,251.462 195.353,250.561 194.306,249.44C192.195,247.182 191.057,244.668 190.888,241.903ZM95.955,263.598C95.955,263.598 93.726,264.232 93.726,264.232C94.485,265.959 94.443,268.037 93.413,269.845L96.72,269.979C96.72,269.979 94.896,267.246 94.896,267.246L95.955,263.598ZM169.743,249.334L176.007,252.188L179.241,263.569L169.743,249.334ZM137.657,250.424L144.568,246.216L145.391,238.864L151.685,243.658L159.242,241.481L156.745,250.011L161.037,256.48L152.508,256.069L147.568,261.394L144.979,253.804L137.657,250.424ZM93.065,254.373C92.686,254.936 92.218,255.437 91.68,255.854L93.838,257.628C93.838,257.628 93.065,254.373 93.065,254.373ZM177.771,247.63L179.977,246.275L180.242,243.924L182.271,245.453L184.683,244.775L183.889,247.511L185.242,249.569L182.534,249.452L180.947,251.158L180.094,248.718L177.771,247.63ZM19.892,243.913L30.396,239.854L39.892,245.33L30.696,251.158L20.154,246.913C20.055,245.921 19.967,244.919 19.892,243.913ZM85.767,245.33L71.954,250.362L62.099,245.33L72.204,240.111L85.767,245.33ZM222.42,154.985C222.41,155.292 222.392,155.603 222.366,155.919C222.153,158.571 221.138,160.996 219.313,163.192C217.464,165.416 214.979,167.132 211.849,168.327C208.762,169.505 205.366,170.076 201.66,170.033C197.966,169.99 193.961,169.062 189.647,167.238C185.49,165.481 181.512,162.979 177.715,159.728C176.851,160.207 176.196,160.583 175.752,160.858C175.744,160.863 175.737,160.867 175.729,160.871C170.506,163.82 166.636,165.973 164.121,167.332C161.596,168.696 158.181,170.317 153.878,172.196C149.921,173.924 146.36,175.152 143.195,175.882C147.198,182.992 150.854,188.325 154.172,191.874C157.208,195.122 159.883,196.83 162.265,196.888C164.545,196.943 166.326,196.227 167.593,194.702C167.715,194.555 167.895,194.467 168.086,194.462C168.278,194.456 168.462,194.533 168.593,194.673C168.617,194.699 168.671,194.73 168.744,194.779C168.938,194.908 169.188,195.198 169.434,195.696C169.643,196.119 169.768,196.583 169.807,197.088C169.817,197.229 169.814,197.385 169.794,197.556C171.208,196.289 172.82,195.105 174.631,194.005C177.647,192.173 180.777,190.77 184.02,189.793C187.31,188.803 190.597,188.572 193.882,189.099C197.225,189.634 199.942,191.031 202.041,193.276C204.387,195.786 205.164,198.552 204.374,201.574C205.058,201.275 205.654,201.405 206.164,201.951C206.164,201.951 211.496,207.656 211.496,207.656C211.783,207.963 211.891,208.344 211.776,208.809C211.681,209.191 211.469,209.494 211.136,209.716C211.115,209.73 211.094,209.742 211.072,209.754C200.77,215.096 194.102,218.708 191.071,220.592C188.112,222.43 186.041,224.046 184.87,225.455C184.293,226.149 184.064,226.691 184.479,227.134C184.668,227.337 185.041,227.415 185.564,227.471C186.626,227.583 188.195,227.462 190.273,227.123C193.016,226.677 196.296,225.82 200.111,224.558C202.062,223.018 204.278,221.706 206.761,220.624C211.077,218.743 215.438,217.976 219.843,218.318C224.326,218.666 227.882,220.266 230.524,223.092C232.516,225.223 233.557,227.35 233.693,229.451C233.831,231.573 233.053,233.688 231.315,235.78C229.808,237.593 227.868,238.647 225.493,238.941C223.033,239.245 221.22,238.708 220.027,237.431C218.919,236.246 218.862,235.193 219.595,234.311C219.696,234.19 219.836,234.108 219.992,234.081C223.777,233.412 226.297,232.078 227.495,229.973C227.497,229.97 227.499,229.966 227.501,229.962C227.962,229.189 227.92,228.491 227.342,227.872C226.246,226.699 224.212,226.35 221.276,226.654C218.132,226.979 214.762,228.054 211.161,229.869C207.568,231.679 204.689,233.878 202.531,236.476C201.207,238.068 200.336,239.706 199.928,241.395C199.558,242.925 199.804,244.186 200.72,245.166C201.469,245.966 202.417,246.643 203.561,247.203C204.751,247.785 206.312,248.309 208.244,248.782C210.168,249.253 212.585,249.291 215.496,248.915C218.177,248.569 221.056,247.861 224.133,246.793C227.899,244.658 233.51,241.649 240.967,237.766C240.973,237.763 240.978,237.76 240.984,237.758C241.705,237.408 242.33,237.526 242.862,238.094L244.173,239.498C244.13,239.222 244.112,238.936 244.117,238.639C244.144,237.121 244.835,235.738 246.234,234.512L246.234,234.512C247.574,233.338 249.146,232.649 250.952,232.447C252.102,232.319 253.134,232.412 254.051,232.72C253.456,202.689 241.547,175.412 222.42,154.985ZM176.173,227.73L168.771,246.775L175.154,243.424L175.802,234.426L183.007,240.159L191.271,237.863C191.673,236.097 192.341,234.356 193.276,232.64L192.549,232.848C189.502,233.702 187.052,234.061 185.203,233.943C183.289,233.82 181.853,233.489 180.887,232.981C179.927,232.475 178.924,231.672 177.886,230.563C177.104,229.726 176.532,228.782 176.173,227.73ZM90.909,245.299L90.892,245.226C90.821,245.263 90.748,245.297 90.675,245.33C90.767,245.374 90.859,245.418 90.949,245.466L90.909,245.299ZM136.951,215.603L134.158,214.25L133.128,238.953L124.099,244.982L114.747,230.777L121.159,213.484L107.513,216.397L113.805,208.336L131.216,209.631L135.804,211.22L136.951,215.603ZM108.423,237.6L102.159,237.308L98.513,241.218L96.601,235.629L91.221,233.158L96.278,230.041L96.897,224.63L101.543,228.16L107.101,226.542L105.276,232.835L108.423,237.6ZM33.617,215.144L45.803,224.221L44.798,234.574L35.216,230.049L33.617,215.144ZM68.374,215.144L65.894,229.603L57.193,234.572L57.247,224.607L68.374,215.144ZM175.718,224.882C175.717,224.708 175.721,224.531 175.729,224.353C175.814,222.455 176.373,220.68 177.411,219.031C171.728,220.361 167.648,219.61 165.155,216.943C163.146,214.793 162.362,212.197 162.815,209.15C163.005,207.873 163.388,206.588 163.965,205.297L163.965,205.297C162.587,206.378 161.061,207.244 159.387,207.895C157.653,208.568 155.863,208.713 154.017,208.326C153.318,208.179 152.641,207.945 151.987,207.62L155.861,214.22L145.892,213.72L140.422,219.337L153.743,230.337L175.718,224.882ZM81.367,214.368L80.453,215.505C80.529,216.287 80.46,217.092 80.222,217.88C80.209,217.926 80.195,217.97 80.178,218.015L78.666,222.142L85.066,218.437C86.073,217.855 87.185,217.602 88.282,217.649L88.425,215.19L81.367,214.368ZM64.079,143.141L70.546,145.608L72.309,151.812L72.104,167.459L61.28,174.605L73.22,179.604L77.192,191.927L84.455,182.341L94.748,183.163L94.574,185.811L78.604,196.25L83.984,199.367L80.191,200.339L72.897,194.369L71.956,203.573L68.783,205.8L68.77,205.788C66.245,203.605 62.358,203.809 60.085,206.234C60.052,206.269 60.022,206.305 59.993,206.34L57.193,209.706L57.193,202.293C57.193,198.979 54.444,196.242 50.997,196.242C47.547,196.242 44.798,198.979 44.798,202.293L44.798,209.706L41.998,206.34C41.969,206.305 41.939,206.269 41.906,206.234C39.633,203.809 35.746,203.605 33.221,205.788C31.676,207.124 30.977,209.024 31.152,210.871C29.641,209.796 27.649,209.456 25.722,210.131C22.578,211.23 20.81,214.7 21.769,217.88C21.783,217.926 21.796,217.97 21.813,218.015L23.325,222.142L20.466,220.486C24.353,189.233 40.563,161.778 64.079,143.141ZM85.514,207.014L88.102,200.839L96.601,204.074L99.043,213.808L89.278,205.925L89.132,206.044L88.308,210.955L85.514,207.014ZM195.862,206.067C193.095,207.513 190.779,208.807 188.914,209.949C183.401,212.133 179.188,213.299 176.273,213.421C174.543,213.493 173.312,213.219 172.614,212.473C172.252,212.086 172.18,211.527 172.307,210.814C172.462,209.947 172.941,209.051 173.72,208.114C175.557,205.904 178.232,203.734 181.737,201.594C185.25,199.449 188.738,197.975 192.204,197.175C195.424,196.432 197.675,196.626 198.93,197.969C199.589,198.674 199.602,199.73 199.136,201.122C198.605,202.71 197.508,204.354 195.863,206.066L195.862,206.067ZM82.514,210.544L80.985,208.221L81.867,205.193L79.19,205.955L76.956,204.28L76.662,206.868L74.192,208.398L76.81,209.574L77.123,210.504C77.62,210.767 78.073,211.095 78.475,211.475L79.486,210.398L82.514,210.544ZM146.862,208.692L143.215,208.544L141.127,210.807L140.01,207.573L136.892,206.132L139.834,204.309L140.185,201.192L142.862,203.219L146.098,202.31L145.039,205.955L146.862,208.692ZM128.128,175.955L122.306,192.398L129.863,203.515L134.01,201.427L135.422,189.809L142.406,196.284L142.308,196.116C140.184,192.468 138.541,189.333 137.379,186.714C136.259,184.188 134.883,180.901 133.252,176.851C131.466,176.731 129.758,176.432 128.128,175.955ZM103.629,192.104L104.248,186.693L108.894,190.222L114.453,188.605L112.601,194.897L115.777,199.663L109.482,199.367L105.835,203.281L103.923,197.691L98.543,195.22L103.629,192.104ZM77.897,171.429L78.337,167.43L81.778,170.016L85.896,168.84L84.543,173.488L86.866,177.018L82.22,176.782L79.544,179.693L78.132,175.546L74.133,173.723L77.897,171.429ZM158.209,119.78C151.276,118.499 144.125,117.829 136.819,117.829C121.682,117.829 107.211,120.704 93.918,125.938L90.279,137.638L96.043,146.373L96.424,144.019L102.984,150.225L112.042,147.785L109.747,157.196L114.276,164.488L105.19,163.989L99.925,169.899L109.924,179.399L126.02,175.222C122.924,173.965 120.133,172.008 117.648,169.35C115.659,167.222 114.657,164.826 114.626,162.171C114.596,159.509 115.36,157.253 116.902,155.397C118.617,153.334 120.737,152.238 123.257,152.099C125.755,151.96 128.289,153.195 130.812,155.894C132.812,158.034 135.08,161.332 137.61,165.795C138.483,165.509 139.421,165.181 140.423,164.808C141.633,164.359 142.703,163.952 143.634,163.586C144.559,163.223 145.808,162.668 147.384,161.921C148.975,161.166 150.157,160.602 150.929,160.227C151.698,159.854 153.063,159.14 155.024,158.086C157.002,157.023 158.285,156.34 158.873,156.037C159.458,155.736 160.923,154.957 163.265,153.7C165.605,152.445 167.01,151.686 167.481,151.423C168.037,151.105 168.581,150.802 169.114,150.512L169.114,150.512C163.543,143.482 160,136.912 158.467,130.811C157.349,126.357 157.278,122.681 158.209,119.78ZM94.514,161.341L96.985,162.165L98.159,168.871L95.955,167.105L95.131,178.694L90.337,172.399L94.514,161.341ZM121.886,164.058C121.234,163.361 120.863,162.68 120.82,161.992C120.777,161.325 121.052,160.671 121.599,160.013C122.02,159.506 122.537,159.277 123.157,159.341C123.877,159.417 124.594,159.888 125.347,160.693C126.491,161.917 127.778,164.105 129.226,167.247C126.185,167.091 123.735,166.036 121.886,164.058ZM83.074,163.666L76.485,157.665L83.337,148.607L95.69,149.489L95.338,154.195L88.573,158.167L92.865,160.636L83.074,163.666ZM106.1,159.665L103.07,159.548L101.308,161.429L100.396,158.724L97.779,157.519L100.248,156.018L100.544,153.43L102.778,155.108L105.455,154.343L104.571,157.371L106.1,159.665ZM214.028,149.288C214.593,149.893 214.815,150.61 214.694,151.439C214.562,152.351 214.224,153.139 213.676,153.798C212.432,155.295 210.751,156.559 208.64,157.6C206.493,158.658 204.098,159.397 201.456,159.82C198.825,160.242 195.935,160.063 192.786,159.294C189.949,158.601 187.22,157.444 184.596,155.824C187.318,154.306 189.652,153.051 191.6,152.06C193.765,150.959 196.122,149.901 198.672,148.887C201.187,147.887 203.339,147.245 205.129,146.968C206.873,146.698 208.55,146.747 210.161,147.117C211.716,147.474 213.006,148.195 214.028,149.288ZM168.336,122.121C168.316,122.187 168.297,122.253 168.277,122.32C167.691,124.351 167.423,126.667 167.467,129.266C167.512,131.865 168.235,134.782 169.624,138.021C170.969,141.159 172.888,144.243 175.38,147.276C180.045,144.995 184.262,143.16 188.029,141.769C191.944,140.324 195.787,139.272 199.557,138.612C200.695,138.413 201.802,138.281 202.877,138.219C192.449,131.089 180.811,125.599 168.336,122.121ZM75.665,135.043C76.512,134.523 77.364,134.016 78.223,133.519L79.749,134.667L84.19,133.374L82.72,138.431L85.251,142.255L80.22,142.02L77.309,145.137L75.78,140.668L71.456,138.668L75.543,136.168L75.665,135.043ZM153.862,80.436L179.889,104.287L180.419,105.288L180.29,105.606L180.195,106.039L180.189,106.092C174.413,104.148 168.461,102.581 162.366,101.421L161.821,100.432L161.261,99.409L160.126,97.318C160.038,97.141 159.95,96.995 159.89,96.847C157.125,91.759 155.303,86.083 153.862,80.436ZM126.011,79.759C123.982,85.819 121.482,91.818 117.923,97.024L117.894,97.024C117.835,97.141 117.775,97.229 117.687,97.318C117.658,97.406 117.57,97.523 117.452,97.671L117.042,98.249L116.246,99.381L115.61,100.266L115.274,100.721C108.993,101.722 102.856,103.153 96.893,104.984L96.631,104.2L98.278,101.641L126.011,79.759ZM140.465,49.848L140.627,49.852C142.334,49.909 143.98,50.645 145.127,51.938C146.303,53.174 146.951,54.849 146.862,56.556C146.803,58.291 146.038,59.908 144.803,61.086C143.509,62.26 141.863,62.879 140.128,62.819C138.421,62.762 136.775,62.026 135.628,60.733C134.452,59.497 133.804,57.82 133.864,56.115C133.952,54.35 134.717,52.763 135.95,51.587C137.096,50.519 138.581,49.913 140.141,49.852L140.465,49.848ZM212.533,14.49L212.739,14.493C220.061,14.64 222.354,22.1 218.297,30.998C205.399,42.147 189.145,48.573 172.115,49.219L171.713,49.233C178.065,33.087 191.329,20.618 207.857,15.296C209.586,14.744 211.148,14.488 212.533,14.49ZM70.673,9.257C72.254,9.253 74.061,9.626 76.074,10.442C92.16,16.971 104.454,30.352 109.63,46.91C92.543,45.117 76.633,37.47 64.545,25.293C61.224,16.382 63.823,9.274 70.673,9.257Z" style="fill:none;stroke:rgb(255,0,0);stroke-width:1px;"/>
</svg>
