<?xml version="1.0" encoding="UTF-8" standalone="no"?>
<!DOCTYPE svg PUBLIC "-//W3C//DTD SVG 1.1//EN" "http://www.w3.org/Graphics/SVG/1.1/DTD/svg11.dtd">
<svg width="100%" height="100%" viewBox="0 0 1123 794" version="1.1" xmlns="http://www.w3.org/2000/svg" xmlns:xlink="http://www.w3.org/1999/xlink" xml:space="preserve" xmlns:serif="http://www.serif.com/" style="fill-rule:evenodd;clip-rule:evenodd;stroke-linejoin:round;stroke-miterlimit:2;">
    <path d="M144.768,40.265C146.525,40.302 148.11,40.912 149.422,41.91C150.863,43.057 151.891,44.704 152.273,46.587C152.802,46.587 182.859,16.178 188.975,12.177C194.836,8.337 202.831,5.966 211.003,5.93C211.404,5.929 211.807,5.932 212.21,5.942C221.975,6.413 230.502,10.413 234.032,19.412C239.942,32.998 232.913,47.381 232.854,60.821C232.825,76.702 247.707,93.348 235.179,108.435C229.972,113.729 222.856,118.846 215.857,121.903L215.797,121.903L214.909,122.185L213.44,122.66C235.271,137.575 252.544,158.68 262.718,183.428L263.146,184.482L263.635,185.717L264.183,187.147L264.715,188.58L264.956,189.247L265.465,190.694L265.958,192.147L266.475,193.735L266.941,195.223L267.39,196.719L267.822,198.222L268.318,200.033L268.765,201.757L269.14,203.283L269.499,204.816L269.84,206.356L270.097,207.582L270.267,208.418L270.567,209.973L270.849,211.533L271.113,213.1L271.309,214.338L271.419,215.073L271.66,216.779L271.864,218.366L272.05,219.958L272.182,221.204L272.257,221.958L272.366,223.158L272.397,223.517L272.519,225.075L272.624,226.63L272.71,228.177L272.746,228.945L272.807,230.524L272.85,232.102C272.861,232.627 272.87,233.152 272.875,233.676L272.882,235.204L272.88,235.812C272.877,236.27 272.873,236.727 272.866,237.183L272.845,238.277C272.836,238.637 272.827,238.997 272.816,239.357L272.77,240.666L272.707,242.056L272.66,242.916C272.616,243.693 272.566,244.469 272.509,245.242L272.378,246.891L272.235,248.448L272.115,249.632L271.964,250.996L271.773,252.558L271.607,253.813L271.429,255.064L271.176,256.717L270.983,257.897L270.743,259.275L270.405,261.091L270.108,262.584L269.863,263.752L269.428,265.714L269.074,267.212L268.795,268.344L268.42,269.801L268.042,271.21L267.725,272.344L267.361,273.601L266.892,275.16L266.363,276.838L265.822,278.487L265.452,279.56L265.025,280.738L264.863,281.178C264.752,281.514 264.639,281.848 264.5,282.186C263.205,285.714 261.764,289.155 260.177,292.537C259.764,293.448 259.353,294.331 258.911,295.213C258.206,296.654 257.441,298.096 256.707,299.508C256.647,299.565 256.619,299.654 256.588,299.713C255.177,302.329 253.677,304.919 252.09,307.419L251.385,308.513L250.98,309.103L250.316,310.136L249.767,310.943L249.354,311.546L249.354,311.565C249.088,312.005 248.794,312.416 248.472,312.829C247.32,314.5 246.13,316.138 244.904,317.745L244.816,317.86C243.221,319.948 241.565,321.984 239.854,323.976L239.073,324.871L238.079,325.991L237.478,326.655L236.874,327.314L236.265,327.97L235.652,328.622L235.034,329.27L234.413,329.913L233.787,330.553L233.157,331.188L232.523,331.819L231.885,332.446L231.243,333.069L230.597,333.688L229.946,334.303L229.292,334.913L228.634,335.519L227.305,336.718L225.961,337.9L224.601,339.064L223.226,340.21L221.835,341.339L220.43,342.45L219.251,343.358L218.294,344.082L217.12,344.95L216.125,345.672L214.957,346.501L213.924,347.22L212.763,348.011L211.691,348.725L210.538,349.478L209.428,350.187L208.283,350.903L207.134,351.605L205.999,352.284L204.81,352.979L203.686,353.621L202.128,354.488L200.557,355.336L199.718,355.777L198.921,356.19L198.122,356.597L197.319,356.999L196.514,357.396L195.706,357.788L194.894,358.175L194.08,358.556L193.263,358.932L192.443,359.303L191.621,359.668L190.795,360.029L189.967,360.383L189.136,360.733L188.303,361.077L187.466,361.416L186.627,361.749L185.472,362.197L184.208,362.674L183.508,362.932C175.658,365.798 167.471,367.962 159.021,369.348L157.605,369.572L156.197,369.781L154.318,370.035L152.436,370.263L150.549,370.465L148.516,370.653L146.646,370.8L144.654,370.927L142.787,371.02L140.923,371.087L139.53,371.121L138.144,371.142L136.819,371.148L135.472,371.141L135.01,371.136L133.308,371.103L132.116,371.068L131.571,371.048C131.011,371.027 130.452,371.002 129.893,370.974L128.91,370.921L128.07,370.87L126.787,370.783L125.344,370.67L124.595,370.605L123.757,370.528L122.78,370.431L121.461,370.29L119.917,370.108L119.147,370.01L118.622,369.94C61.059,362.253 14.891,318.582 3.474,262.277L3.239,261.09L2.955,259.579L2.689,258.062L2.439,256.54L2.206,255.012L1.989,253.478L1.79,251.939L1.609,250.395L1.444,248.846L1.295,247.267L1.199,246.139L1.071,244.412L1.03,243.782L0.93,242.013L0.887,241.098L0.867,240.61L0.814,239.101L0.782,237.765L0.762,236.427L0.756,235.069L0.761,233.92L0.78,232.504L0.814,231.055L0.874,229.343L0.941,227.924L1.04,226.215L1.16,224.51L1.339,222.399L1.503,220.733L1.754,218.52L1.965,216.867L2.116,215.769L2.36,214.126L2.623,212.491L2.832,211.276L3.004,210.32L3.25,209.022L3.391,208.305L3.7,206.805L3.847,206.115L4.228,204.413L4.525,203.156L4.699,202.441L5.07,200.971L5.248,200.286L5.705,198.602L6.047,197.393L6.255,196.679L6.685,195.245L7.142,193.78L7.652,192.213L8.179,190.657L8.724,189.112L9.286,187.576L9.865,186.051L10.462,184.535L11.076,183.028L11.589,181.809L12.228,180.334L12.884,178.867L13.557,177.41L14.247,175.963L14.953,174.524L15.675,173.096L16.414,171.677L17.169,170.268L17.681,169.334L18.2,168.404L18.727,167.479L19.26,166.559L19.8,165.643L20.347,164.732L20.901,163.825L21.462,162.923L21.995,162.081C24.011,158.918 26.155,155.843 28.418,152.865L29.105,151.969L30.119,150.673L31.137,149.404L32.163,148.156L33.2,146.924L34.249,145.708L35.309,144.506L36.64,143.037L37.833,141.756L39.206,140.322L40.549,138.958L41.845,137.678L43.198,136.376L44.743,134.932L46.31,133.513L47.5,132.464L48.702,131.429L49.916,130.407L51.142,129.4L52.38,128.406L53.63,127.427L54.892,126.462L56.165,125.511L57.449,124.575L58.745,123.654L60.052,122.747L61.369,121.855L62.698,120.978L64.037,120.117L64.936,119.551L65.84,118.992C65.398,118.817 65.044,118.669 64.75,118.492L64.722,118.492C55.281,115.374 48.341,108.758 41.958,101.287C30.577,85.318 46.666,69.791 47.751,53.967C48.723,40.557 42.782,25.706 49.694,12.56C53.84,3.853 62.664,0.531 72.427,0.768C81.014,1.208 89.338,4.267 95.161,8.707C107.57,18.236 119.159,31.999 128.776,45.146C128.776,44.116 130.394,42.292 132.157,41.293C133.276,40.617 134.598,40.263 136.01,40.263L144.597,40.263L144.768,40.265ZM233.106,301.981L233,302.134C230.483,303.681 227.993,305.253 225.474,306.802C223.721,307.892 224.466,310.555 226.475,310.623C225.699,311.543 224.907,312.453 224.102,313.349L223.767,313.36C222.62,313.389 221.681,314.328 221.65,315.475C221.645,315.641 221.659,315.803 221.69,315.957C200.328,338.368 170.192,352.34 136.819,352.34C129.603,352.34 122.539,351.687 115.679,350.436L134.186,327.506L164.772,329.681L159.508,320.888L165.184,312.093L175.802,312.975L170.243,303.566L173.565,295.625L181.093,299.3L186.535,320.035L200.475,303.418L218.297,304.448C218.326,304.8 218.445,305.153 218.65,305.447C219.327,306.417 220.62,306.683 221.621,306.066C224.267,304.448 226.915,302.799 229.591,301.155C230.762,301.438 231.935,301.697 233.106,301.981ZM107.895,341.033L113.364,348.678L110.159,337.003L107.895,341.033ZM104.571,345.769L100.63,345.592L99.878,346.393C99.065,346.123 98.255,345.844 97.449,345.556L97.102,344.532L93.718,342.975L96.925,341.004L97.306,337.591L100.219,339.797L103.749,338.798L102.571,342.768L104.571,345.769ZM85.131,273.303L79.354,270.4L80.178,272.648C80.193,272.692 80.209,272.736 80.222,272.78C81.181,275.96 79.411,279.432 76.27,280.531C74.342,281.206 72.35,280.866 70.84,279.792C71.014,281.638 70.315,283.537 68.77,284.872C67.596,285.888 66.126,286.394 64.662,286.394C62.977,286.394 61.301,285.725 60.085,284.426C60.052,284.392 60.022,284.357 59.993,284.321L57.193,280.956L57.193,288.369C57.193,291.684 54.444,294.418 50.997,294.418C47.547,294.418 44.798,291.684 44.798,288.369L44.798,280.956L41.998,284.321C41.969,284.357 41.939,284.392 41.906,284.426C39.633,286.853 35.746,287.057 33.221,284.874L33.221,284.872C31.676,283.537 30.977,281.638 31.152,279.792C30.457,280.285 29.66,280.624 28.814,280.779C39.992,307.142 60.547,328.582 86.29,340.908L91.19,337.739L92.396,325.651L101.189,333.062L108.66,330.739L105.749,320.828L76.779,308.771L84.691,302.624L82.543,295.744L74.367,291.949L81.926,286.273L82.749,277.684L87.308,281.333L85.131,273.303ZM117.923,310.182L108.954,306.066L117.395,300.861L118.423,291.83L126.187,297.713L135.451,295.037L132.392,305.535L137.657,313.475L127.187,312.975L121.099,319.533L117.923,310.182ZM158.478,319.476L151.155,307.801L156.126,310.066L158.478,319.476ZM156.891,305.007L159.832,303.212L160.184,300.067L162.889,302.125L166.096,301.183L165.036,304.83L166.861,307.595L163.243,307.419L161.125,309.711L160.007,306.448L156.891,305.007ZM169.832,294.508L163.95,296.566L155.684,289.92L154.539,300.772L148.686,303.77L158.714,273.038L151.862,274.421L157.803,267.421L179.124,269.362L177.948,279.302L160.979,290.508L169.832,294.508ZM223.767,299.771C222.62,300.476 221.444,301.212 220.268,301.948L218.827,299.713C219.267,299.448 219.709,299.183 220.151,298.889C221.356,299.183 222.561,299.477 223.767,299.771ZM91.073,297.625L88.014,301.654L94.543,297.832L91.073,297.625ZM217.466,266.097L210.092,286.304L214.679,293.332C214.886,293.39 215.092,293.448 215.297,293.478C215.003,293.008 214.709,292.537 214.444,292.068C213.827,291.067 214.15,289.772 215.209,289.213C216.208,288.655 217.503,289.009 218.12,289.979C219.121,291.624 220.12,293.244 221.091,294.862C222.326,295.154 223.533,295.448 224.738,295.744C223.798,294.214 222.885,292.712 221.975,291.213C221.356,290.183 221.681,288.89 222.737,288.331C223.738,287.802 225.032,288.125 225.65,289.124C227.268,291.772 228.915,294.449 230.531,297.123C231.737,297.39 232.973,297.682 234.178,297.978C232.591,295.39 231.002,292.802 229.414,290.214C228.325,288.419 230.296,286.304 232.178,287.303C234.692,288.656 237.18,290.008 239.692,291.362L239.958,290.875C239.678,289.929 239.398,288.992 239.12,288.037C236.355,286.567 233.619,285.068 230.856,283.596C229.854,283.068 229.414,281.773 229.914,280.745C230.414,279.657 231.678,279.244 232.737,279.803C234.297,280.656 235.855,281.479 237.414,282.332C237.139,281.396 236.866,280.478 236.592,279.551C235.467,279.733 234.488,279.796 233.656,279.742C232.06,279.64 230.863,279.361 230.057,278.937C229.257,278.516 228.42,277.848 227.556,276.923C226.264,275.542 225.655,273.812 225.749,271.727C225.816,270.236 226.233,268.836 227.006,267.529C222.698,268.486 219.522,267.965 217.466,266.097ZM202.504,293.509L195.447,293.184L191.358,297.567L189.212,291.301L183.182,288.507L188.858,285.008L189.565,278.948L194.77,282.891L201.006,281.098L198.946,288.154L202.504,293.509ZM92.631,293.39L89.278,293.213L87.308,295.331L86.279,292.331L83.396,291.007L86.132,289.332L86.455,286.419L88.926,288.302L91.926,287.449L90.927,290.83L92.631,293.39ZM95.661,275.126L103.66,275.774L102.836,292.331L98.924,294.566L95.807,289.772L98.543,281.596L89.338,283.271L95.661,275.126ZM243.228,277.759C242.298,278.068 241.431,278.342 240.627,278.581C240.879,279.43 241.131,280.285 241.383,281.125C242.002,279.996 242.621,278.882 243.228,277.759ZM98.806,255.804L106.454,245.776L120.717,247.071L112.218,252.716L135.51,262.245L139.303,278.155L128.657,280.979L104.542,260.512L103.66,269.596L100.984,266.009L104.69,255.07L98.806,255.804ZM33.617,275.518L35.978,260.906L44.798,256.088L45.284,265.759L33.617,275.518ZM68.374,275.516L56.423,266.816L57.193,256.088L66.785,261.932L68.374,275.516ZM250.984,261.92C244.772,265.176 240.629,267.448 238.555,268.737C236.135,270.242 234.439,271.562 233.481,272.714C233.056,273.226 232.849,273.614 233.154,273.941C233.296,274.093 233.58,274.139 233.973,274.181C234.84,274.272 236.121,274.172 237.817,273.896C240.671,273.431 244.231,272.427 248.498,270.888C249.442,267.948 250.272,264.957 250.984,261.92ZM217.257,265.898C217.196,265.838 217.137,265.777 217.079,265.715C215.399,263.918 214.743,261.749 215.122,259.203C215.365,257.568 215.987,255.918 216.996,254.257C216.931,254.275 216.867,254.292 216.803,254.309C214.327,254.965 212.315,255.25 210.767,255.177C209.146,255.1 207.935,254.832 207.127,254.407C206.33,253.987 205.456,253.281 204.516,252.276C203.101,250.762 202.448,249.076 202.533,247.227C202.616,245.442 203.148,243.755 204.135,242.169C205.07,240.665 206.06,239.222 207.106,237.837C208.1,236.521 208.839,235.277 209.318,234.101C209.693,233.18 209.703,232.449 209.207,231.918L209.168,231.876L194.147,239.66C194.141,239.662 194.136,239.665 194.131,239.667C193.463,239.991 192.925,239.875 192.503,239.423L192.014,238.901L189.181,246.452L193.977,254.57L184.8,253.892L181.418,258.158L196.505,270.363L217.257,265.898ZM95.955,263.598L93.726,264.232C94.485,265.959 94.443,268.037 93.413,269.845L96.72,269.979L94.896,267.246L95.955,263.598ZM169.743,249.334L176.007,252.188L179.241,263.569L169.743,249.334ZM242.364,256.588C240.097,257.773 238.198,258.834 236.667,259.771C232.149,261.56 228.699,262.518 226.309,262.618C224.93,262.675 223.945,262.47 223.389,261.874C223.114,261.58 223.07,261.153 223.167,260.611C223.291,259.914 223.679,259.196 224.304,258.443C225.809,256.632 228.002,254.855 230.873,253.102C233.752,251.344 236.611,250.135 239.452,249.48C242.047,248.882 243.863,249.017 244.875,250.099C245.393,250.653 245.385,251.483 245.019,252.576C244.588,253.865 243.697,255.198 242.365,256.587L242.364,256.588ZM137.657,250.424L144.568,246.216L145.391,238.864L151.685,243.658L159.242,241.481L156.745,250.011L161.037,256.48L152.508,256.069L147.568,261.394L144.979,253.804L137.657,250.424ZM93.065,254.373C92.686,254.936 92.218,255.437 91.68,255.854L93.838,257.628L93.065,254.373ZM213.273,210.291C213.509,210.566 213.595,210.902 213.494,211.308C213.409,211.651 213.218,211.924 212.918,212.124C212.898,212.138 212.877,212.15 212.855,212.161C203.645,216.941 197.705,220.147 195.037,221.782C192.446,223.369 190.664,224.73 189.705,225.883C189.281,226.394 189.073,226.783 189.379,227.11C189.537,227.278 189.842,227.344 190.264,227.397C191.161,227.51 192.479,227.431 194.219,227.174C197.147,226.743 200.728,225.777 204.964,224.281L237.282,207.532C237.287,207.529 237.293,207.526 237.298,207.524C237.944,207.21 238.504,207.317 238.981,207.827L243.314,212.463C243.575,212.741 243.672,213.064 243.614,213.429C243.562,213.758 243.388,214.044 243.056,214.266C243.036,214.279 243.015,214.292 242.993,214.303L223.03,224.681C226.143,225.094 228.621,226.304 230.474,228.286C231.846,229.754 232.52,231.362 232.522,233.101C232.524,234.835 231.943,236.41 230.768,237.823C229.224,239.68 227.032,240.659 224.175,240.721C221.651,240.776 218.915,239.809 215.983,237.78C215.727,238.684 215.297,239.678 214.685,240.761C213.862,242.216 213.076,243.458 212.326,244.487C211.633,245.438 211.125,246.398 210.806,247.368C210.558,248.121 210.601,248.733 211.028,249.191C211.226,249.402 211.529,249.534 211.919,249.62C212.414,249.729 213.032,249.754 213.772,249.704C216.167,249.544 219.74,248.605 224.492,246.908C224.627,246.823 224.764,246.739 224.902,246.655C227.393,245.142 229.977,243.983 232.656,243.177C235.381,242.357 238.104,242.166 240.825,242.602C243.604,243.047 245.863,244.209 247.608,246.076C249.513,248.114 250.18,250.355 249.609,252.798C250.134,252.641 250.597,252.784 251.001,253.215L252.43,254.745C253.512,248.352 254.074,241.784 254.074,235.085C254.074,185.293 222.972,142.708 179.152,125.716C180.601,126.468 181.907,127.467 183.071,128.712C184.183,129.902 185.089,131.317 185.788,132.96C186.492,134.618 186.764,136.541 186.588,138.732C186.41,140.939 185.566,142.957 184.048,144.784C182.514,146.629 180.453,148.053 177.857,149.044C175.303,150.019 172.493,150.492 169.427,150.456C166.374,150.421 163.062,149.655 159.496,148.147C156.087,146.706 152.823,144.658 149.707,142.001C149.034,142.374 148.521,142.67 148.168,142.888C148.161,142.892 148.153,142.897 148.145,142.901C143.846,145.328 140.661,147.101 138.59,148.219C136.51,149.343 133.697,150.679 130.152,152.227C126.951,153.625 124.064,154.625 121.493,155.231C124.751,161.004 130.612,168.282 133.316,171.175C135.786,173.818 137.956,175.218 139.894,175.264C141.729,175.309 143.165,174.736 144.185,173.508C144.307,173.361 144.487,173.273 144.678,173.268C144.863,173.262 145.04,173.333 145.17,173.464C145.178,173.47 145.239,173.515 145.289,173.549C145.458,173.661 145.681,173.913 145.896,174.349C145.969,174.495 146.029,174.646 146.077,174.803C146.183,174.67 146.291,174.536 146.402,174.403C147.99,172.493 150.036,170.773 152.547,169.249C155.037,167.736 157.622,166.577 160.301,165.771C163.026,164.951 165.749,164.759 168.47,165.195C171.249,165.641 173.508,166.803 175.252,168.669C177.158,170.708 177.824,172.949 177.254,175.391C177.779,175.235 178.242,175.377 178.645,175.809L183.034,180.504C183.297,180.786 183.398,181.135 183.292,181.562C183.207,181.905 183.016,182.178 182.716,182.378C182.696,182.392 182.675,182.404 182.653,182.416C174.178,186.81 168.694,189.781 166.2,191.331C163.779,192.835 162.083,194.155 161.125,195.308C160.7,195.819 160.493,196.208 160.799,196.534C160.941,196.687 161.225,196.733 161.618,196.774C162.485,196.866 163.766,196.766 165.462,196.49C167.71,196.123 170.396,195.422 173.521,194.389C175.13,193.121 176.957,192.041 179.003,191.149C182.574,189.593 186.182,188.958 189.826,189.241C193.548,189.53 196.5,190.861 198.694,193.208C200.356,194.985 201.22,196.762 201.333,198.514C201.448,200.288 200.802,202.058 199.349,203.806C198.089,205.321 196.467,206.203 194.482,206.449C192.411,206.705 190.887,206.245 189.882,205.17C189.341,204.591 189.11,204.037 189.108,203.547C189.107,203.158 189.238,202.788 189.522,202.446C189.623,202.325 189.763,202.243 189.919,202.216C192.99,201.673 195.04,200.6 196.012,198.893C196.014,198.889 196.016,198.886 196.018,198.882C196.366,198.298 196.339,197.77 195.902,197.303C195.019,196.357 193.376,196.092 191.008,196.337C188.434,196.604 185.674,197.485 182.725,198.971C179.784,200.452 177.427,202.252 175.66,204.379C174.583,205.674 173.874,207.005 173.541,208.379C173.248,209.594 173.438,210.596 174.165,211.374C174.772,212.023 175.541,212.572 176.469,213.026C177.442,213.501 178.719,213.929 180.3,214.316C181.871,214.701 183.846,214.731 186.225,214.424C188.421,214.14 190.779,213.56 193.297,212.687C196.398,210.93 201.014,208.454 207.148,205.26C207.153,205.257 207.159,205.255 207.165,205.252C207.811,204.938 208.371,205.045 208.847,205.555L209.018,205.737M19.892,243.913L30.396,239.854L39.892,245.33L30.696,251.158L20.154,246.913C20.055,245.921 19.967,244.919 19.892,243.913ZM177.771,247.63L179.977,246.275L180.242,243.924L182.271,245.453L184.683,244.775L183.889,247.511L185.242,249.569L182.534,249.452L180.947,251.158L180.094,248.718L177.771,247.63ZM85.767,245.33L71.954,250.362L62.099,245.33L72.204,240.111L85.767,245.33ZM153.556,196.395L150.596,205.25L155.861,214.22L145.892,213.72L140.422,219.337L153.743,230.337L177.446,224.453L168.771,246.775L175.154,243.424L175.802,234.426L183.007,240.159L191.091,237.913L188.114,234.728C187.851,234.447 187.75,234.097 187.856,233.67C187.941,233.327 188.132,233.054 188.432,232.854C188.444,232.846 188.457,232.838 188.47,232.831C187.578,232.669 186.867,232.444 186.337,232.165C185.538,231.744 184.683,231.057 183.781,230.092C182.528,228.752 181.935,227.042 182.028,224.954C182.109,223.15 182.704,221.479 183.82,219.943C181.99,220.196 180.45,220.28 179.2,220.202C177.517,220.096 175.922,219.731 174.415,219.108C172.9,218.481 171.787,217.872 171.068,217.293C170.365,216.726 169.58,215.98 168.714,215.054C166.406,212.585 165.497,209.751 165.973,206.556C166.237,204.787 166.817,203.047 167.716,201.337L167.386,201.431C164.862,202.139 162.833,202.434 161.301,202.336C159.705,202.234 158.507,201.955 157.702,201.531C156.901,201.11 156.065,200.442 155.201,199.517C154.365,198.623 153.815,197.583 153.556,196.395ZM90.909,245.299L90.892,245.226C90.821,245.263 90.748,245.297 90.675,245.33C90.767,245.374 90.859,245.418 90.949,245.466L90.909,245.299ZM136.951,215.603L134.158,214.25L133.128,238.953L124.099,244.982L114.747,230.777L121.159,213.484L107.513,216.397L113.805,208.336L131.216,209.631L135.804,211.22L136.951,215.603ZM108.423,237.6L102.159,237.308L98.513,241.218L96.601,235.629L91.221,233.158L96.278,230.041L96.897,224.63L101.543,228.16L107.101,226.542L105.276,232.835L108.423,237.6ZM33.617,215.144L45.803,224.221L44.798,234.574L35.216,230.049L33.617,215.144ZM68.374,215.144L65.894,229.603L57.193,234.572L57.247,224.607L68.374,215.144ZM225.064,230.794C225.257,231.001 225.374,231.206 225.372,231.429C225.37,231.675 225.235,231.92 225.016,232.184C224.68,232.588 224.155,232.853 223.46,233.018C222.653,233.21 221.637,233.256 220.412,233.17C217.944,232.997 215.611,232.073 213.409,230.41C213.405,230.407 212.947,229.917 212.947,229.917L213.349,229.709C217.067,229.076 219.99,228.959 222.118,229.381C223.425,229.641 224.413,230.099 225.064,230.794ZM81.367,214.368L80.453,215.505C80.529,216.287 80.46,217.092 80.222,217.88C80.209,217.926 80.195,217.97 80.178,218.015L78.666,222.142L85.066,218.437C86.073,217.855 87.185,217.602 88.282,217.649L88.425,215.19L81.367,214.368ZM64.079,143.141L70.546,145.608L72.309,151.812L72.104,167.459L61.28,174.605L73.22,179.604L77.192,191.927L84.455,182.341L94.748,183.163L94.574,185.811L78.604,196.25L83.984,199.367L80.191,200.339L72.897,194.369L71.956,203.573L68.783,205.8L68.77,205.788C66.245,203.605 62.358,203.809 60.085,206.234C60.052,206.269 60.022,206.305 59.993,206.34L57.193,209.706L57.193,202.293C57.193,198.979 54.444,196.242 50.997,196.242C47.547,196.242 44.798,198.979 44.798,202.293L44.798,209.706L41.998,206.34C41.969,206.305 41.939,206.269 41.906,206.234C39.633,203.809 35.746,203.605 33.221,205.788C31.676,207.124 30.977,209.024 31.152,210.871C29.641,209.796 27.649,209.456 25.722,210.131C22.578,211.23 20.81,214.7 21.769,217.88C21.783,217.926 21.796,217.97 21.813,218.015L23.325,222.142L20.466,220.486C24.353,189.233 40.563,161.778 64.079,143.141ZM85.514,207.014L88.102,200.839L96.601,204.074L99.043,213.808L89.278,205.925L89.132,206.044L88.308,210.955L85.514,207.014ZM82.514,210.544L80.985,208.221L81.867,205.193L79.19,205.955L76.956,204.28L76.662,206.868L74.192,208.398L76.81,209.574L77.123,210.504C77.62,210.767 78.073,211.095 78.475,211.475L79.486,210.398L82.514,210.544ZM146.862,208.692L143.215,208.544L141.127,210.807L140.01,207.573L136.892,206.132L139.834,204.309L140.185,201.192L142.862,203.219L146.098,202.31L145.039,205.955L146.862,208.692ZM213.236,210.249L213.273,210.291C213.673,210.319 214.093,210.309 214.534,210.26C216.045,210.091 217.36,209.514 218.482,208.532C219.661,207.498 220.241,206.33 220.264,205.049C220.287,203.718 219.747,202.644 218.632,201.831C217.581,201.064 216.28,200.751 214.721,200.925C213.211,201.094 211.895,201.671 210.774,202.653C209.718,203.579 209.143,204.612 209.018,205.737M126.737,179.884L122.306,192.398L129.863,203.515L134.01,201.427L135.422,189.809L143.481,197.28L153.387,194.499L153.393,194.32C153.46,192.83 153.878,191.43 154.65,190.123C150.061,191.142 146.758,190.485 144.723,188.308C143.044,186.512 142.388,184.343 142.767,181.797C142.804,181.548 142.849,181.299 142.904,181.05C142.407,181.531 141.893,181.98 141.362,182.396C140.219,183.292 138.954,184.011 137.565,184.551C136.116,185.114 134.621,185.234 133.079,184.911C131.541,184.589 130.129,183.756 128.855,182.392C128.14,181.627 127.434,180.791 126.737,179.884ZM103.629,192.104L104.248,186.693L108.894,190.222L114.453,188.605L112.601,194.897L115.777,199.663L109.482,199.367L105.835,203.281L103.923,197.691L98.543,195.22L103.629,192.104ZM170.009,179.181C167.742,180.366 165.842,181.428 164.311,182.365C159.794,184.154 156.343,185.111 153.954,185.211C152.575,185.269 151.59,185.063 151.034,184.468C150.759,184.174 150.715,183.747 150.812,183.204C150.936,182.508 151.323,181.79 151.949,181.037C153.454,179.226 155.646,177.449 158.517,175.696C161.397,173.938 164.256,172.729 167.097,172.074C169.691,171.475 171.508,171.61 172.52,172.693C173.037,173.246 173.03,174.076 172.664,175.17C172.232,176.459 171.342,177.791 170.01,179.181L170.009,179.181ZM77.897,171.429L78.337,167.43L81.778,170.016L85.896,168.84L84.543,173.488L86.866,177.018L82.22,176.782L79.544,179.693L78.132,175.546L74.133,173.723L77.897,171.429ZM110.126,155.644L109.747,157.196L114.276,164.488L105.19,163.989L99.925,169.899L109.924,179.399L123.934,175.763C123.743,175.45 123.553,175.131 123.364,174.806C121.613,171.799 117.376,166.274 116.418,164.115C115.502,162.049 114.378,159.365 113.047,156.063C112.044,155.991 111.07,155.852 110.126,155.644ZM94.514,161.341L96.985,162.165L98.159,168.871L95.955,167.105L95.131,178.694L90.337,172.399L94.514,161.341ZM83.074,163.666L76.485,157.665L83.337,148.607L95.69,149.489L95.338,154.195L88.573,158.167L92.865,160.636L83.074,163.666ZM106.1,159.665L103.07,159.548L101.308,161.429L100.396,158.724L97.779,157.519L100.248,156.018L100.544,153.43L102.778,155.108L105.455,154.343L104.571,157.371L106.1,159.665ZM103.861,145.341C103.347,144.791 103.05,144.256 103.015,143.713C102.982,143.191 103.202,142.682 103.629,142.167C103.949,141.783 104.339,141.607 104.809,141.657C105.378,141.716 105.942,142.095 106.537,142.732C107.451,143.71 108.475,145.441 109.626,147.916C107.247,147.755 105.323,146.904 103.861,145.341ZM133.713,117.87C119.702,118.235 106.299,121.063 93.918,125.938L90.279,137.638L96.043,146.373L96.424,144.019L97.826,145.345C97.736,144.865 97.688,144.373 97.682,143.87C97.657,141.648 98.295,139.766 99.582,138.218C101.016,136.492 102.79,135.577 104.897,135.461C106.982,135.345 109.101,136.368 111.207,138.622C112.845,140.374 114.702,143.068 116.771,146.708C117.462,146.481 118.201,146.221 118.99,145.928C119.985,145.559 120.865,145.224 121.631,144.923C122.39,144.625 123.416,144.169 124.709,143.555C126.018,142.935 126.99,142.47 127.626,142.162C128.258,141.855 129.38,141.269 130.991,140.402C132.62,139.527 133.677,138.964 134.161,138.715C134.643,138.467 135.847,137.826 137.774,136.792C139.698,135.76 140.854,135.136 141.242,134.919C141.657,134.682 142.064,134.454 142.464,134.236C137.917,128.476 135.024,123.09 133.767,118.087L133.713,117.87ZM75.665,135.043C76.512,134.523 77.364,134.016 78.223,133.519L79.749,134.667L84.19,133.374L82.72,138.431L85.251,142.255L80.22,142.02L77.309,145.137L75.78,140.668L71.456,138.668L75.543,136.168L75.665,135.043ZM179.521,133.346C179.961,133.816 180.133,134.374 180.039,135.018C179.933,135.746 179.665,136.375 179.227,136.902C178.213,138.122 176.842,139.152 175.121,140C173.364,140.866 171.404,141.471 169.243,141.817C167.091,142.161 164.728,142.014 162.153,141.385C159.893,140.833 157.715,139.92 155.619,138.649C157.782,137.445 159.643,136.446 161.203,135.652C162.981,134.747 164.918,133.878 167.014,133.045C169.073,132.226 170.835,131.7 172.302,131.473C173.721,131.253 175.087,131.292 176.399,131.594C177.655,131.882 178.697,132.464 179.521,133.346ZM141.476,117.921C141.666,119.751 142.234,121.759 143.172,123.946C144.264,126.494 145.818,128.999 147.833,131.463C151.643,129.602 155.089,128.104 158.17,126.966C161.398,125.775 164.568,124.907 167.678,124.363C170.638,123.844 173.341,123.884 175.787,124.471C164.98,120.66 153.457,118.389 141.476,117.921ZM153.862,80.436L179.889,104.287L180.419,105.288L180.29,105.606L180.195,106.039L180.189,106.092C174.413,104.148 168.461,102.581 162.366,101.421L161.821,100.432L161.261,99.409L160.126,97.318C160.038,97.141 159.95,96.995 159.89,96.847C157.125,91.759 155.303,86.083 153.862,80.436ZM126.011,79.759C123.982,85.819 121.482,91.818 117.923,97.024L117.894,97.024C117.835,97.141 117.775,97.229 117.687,97.318C117.658,97.406 117.57,97.523 117.452,97.671L117.042,98.249L116.246,99.381L115.61,100.266L115.274,100.721C108.993,101.722 102.856,103.153 96.893,104.984L96.631,104.2L98.278,101.641L126.011,79.759ZM140.465,49.848L140.627,49.852C142.334,49.909 143.98,50.645 145.127,51.938C146.303,53.174 146.951,54.849 146.862,56.556C146.803,58.291 146.038,59.908 144.803,61.086C143.509,62.26 141.863,62.879 140.128,62.819C138.421,62.762 136.775,62.026 135.628,60.733C134.452,59.497 133.804,57.82 133.864,56.115C133.952,54.35 134.717,52.763 135.95,51.587C137.096,50.519 138.581,49.913 140.141,49.852L140.465,49.848ZM212.533,14.49L212.739,14.493C220.061,14.64 222.354,22.1 218.297,30.998C205.399,42.147 189.145,48.573 172.115,49.219L171.713,49.233C178.065,33.087 191.329,20.618 207.857,15.296C209.586,14.744 211.148,14.488 212.533,14.49ZM70.673,9.257C72.254,9.253 74.061,9.626 76.074,10.442C92.16,16.971 104.454,30.352 109.63,46.91C92.543,45.117 76.633,37.47 64.545,25.293C61.224,16.382 63.823,9.274 70.673,9.257Z" style="fill:none;stroke:rgb(255,0,0);stroke-width:1px;"/>
</svg>
