<?xml version="1.0" encoding="UTF-8" standalone="no"?>
<!DOCTYPE svg PUBLIC "-//W3C//DTD SVG 1.1//EN" "http://www.w3.org/Graphics/SVG/1.1/DTD/svg11.dtd">
<svg width="100%" height="100%" viewBox="0 0 1123 794" version="1.1" xmlns="http://www.w3.org/2000/svg" xmlns:xlink="http://www.w3.org/1999/xlink" xml:space="preserve" xmlns:serif="http://www.serif.com/" style="fill-rule:evenodd;clip-rule:evenodd;stroke-linejoin:round;stroke-miterlimit:2;">
    <path d="M0.763,233.654C1.257,185.132 27.188,142.701 65.84,118.992C65.398,118.817 65.044,118.669 64.75,118.492L64.722,118.492C55.281,115.374 48.341,108.758 41.958,101.287C30.577,85.318 46.666,69.791 47.751,53.967C48.723,40.557 42.782,25.706 49.694,12.56C53.84,3.853 62.664,0.531 72.427,0.768C81.014,1.208 89.338,4.267 95.161,8.707C107.57,18.236 119.159,31.999 128.776,45.146C128.776,44.116 130.394,42.292 132.157,41.293C133.276,40.617 134.598,40.263 136.01,40.263L144.597,40.263C146.422,40.263 148.067,40.88 149.422,41.91C150.863,43.057 151.891,44.704 152.273,46.587C152.802,46.587 182.859,16.178 188.975,12.177C195.124,8.148 203.623,5.737 212.21,5.942C221.975,6.413 230.502,10.413 234.032,19.412C239.942,32.998 232.913,47.381 232.854,60.821C232.825,76.702 247.707,93.348 235.179,108.435C229.972,113.729 222.856,118.846 215.857,121.903L215.797,121.903C215.417,122.021 214.603,122.283 213.44,122.66C235.706,137.872 253.229,159.522 263.318,184.913L263.635,185.717C269.445,200.605 272.705,216.771 272.875,233.676L272.882,235.085L272.88,235.812L272.866,237.183L272.848,238.157L272.816,239.357L272.777,240.461C272.271,253.525 269.932,266.101 265.999,277.951C265.659,278.997 265.294,280.017 264.925,281.008L264.5,282.186C263.205,285.714 261.764,289.155 260.177,292.537C259.764,293.448 259.353,294.331 258.911,295.213C258.206,296.654 257.441,298.096 256.707,299.508C256.647,299.565 256.619,299.654 256.588,299.713C255.177,302.329 253.677,304.919 252.09,307.419C251.717,307.987 251.375,308.559 250.98,309.103L250.882,309.252C250.472,309.92 250.043,310.551 249.594,311.192L249.354,311.546L249.354,311.565C249.088,312.005 248.794,312.416 248.472,312.829C245.795,316.713 242.913,320.415 239.854,323.976C215.151,352.578 178.758,370.759 138.144,371.142L136.819,371.148C133.222,371.148 129.657,371.008 126.124,370.733C59.482,365.554 6.326,312.384 1.167,245.731C0.895,242.217 0.756,238.667 0.756,235.085L0.763,233.654ZM28.751,280.397C40.488,308.332 62.752,330.776 90.57,342.754C86.43,339.961 82.52,336.774 78.888,333.213C75.47,329.86 75.47,324.406 78.888,321.053C82.307,317.7 87.87,317.7 91.289,321.053C93.511,323.232 95.866,325.23 98.335,327.046C102.763,312.408 102.398,299.836 101.771,293.577L92.474,300.653C89.142,303.191 84.772,303.273 81.343,300.862C77.913,298.45 76.589,294.365 77.972,290.454L85.343,269.604L86.265,255.979C86.324,255.115 86.821,254.338 87.589,253.91C88.356,253.482 89.292,253.461 90.078,253.854C90.199,253.915 91.551,254.595 93.379,255.698L90.219,242.394L72.795,235.617L73.743,234.921L60.959,228.962L55.458,232.149L69.292,238.586L62.38,242.58L48.557,236.132L40.419,240.826L51.529,246.478L40.419,252.14L48.557,256.834L62.38,250.385L69.292,254.369L55.458,260.817L60.959,263.993L74.793,257.544L81.694,261.528L67.871,267.976L78.895,274.349C80.197,275.092 80.639,276.761 79.885,278.064C79.131,279.377 77.474,279.818 76.16,279.065L65.136,272.702L66.471,287.903L59.571,283.92L58.236,268.719L52.734,265.532L54.059,280.733L47.158,276.75L45.834,261.549L37.695,256.856L38.352,269.3L27.898,262.507L27.898,271.906L40.397,280.658L40.397,288.624L28.794,280.5L28.751,280.397ZM233.012,301.959C231.873,301.683 230.731,301.431 229.591,301.155C226.915,302.799 224.267,304.448 221.621,306.066C220.62,306.683 219.327,306.417 218.65,305.447C218.445,305.153 218.326,304.8 218.297,304.448L200.475,303.418L187.72,318.623C190.354,318.261 193.125,319.071 195.146,321.053C196.802,322.677 197.715,324.836 197.714,327.133C197.714,329.43 196.802,331.589 195.146,333.213C191.721,336.571 188.049,339.597 184.169,342.273C198.375,335.983 211.1,326.95 221.671,315.847C221.653,315.726 221.646,315.602 221.65,315.475C221.681,314.328 222.62,313.389 223.767,313.36L223.978,313.353C224.787,312.453 225.583,311.54 226.362,310.616C224.439,310.455 223.754,307.872 225.474,306.802C227.928,305.293 230.355,303.762 232.807,302.252L233.012,301.959ZM152.231,328.2C153.857,330.702 156.365,333.727 158.432,336.092C151.639,338.426 144.423,339.645 137.018,339.645C130.424,339.645 123.98,338.678 117.851,336.819L122.432,328.338C127.245,329.627 139.269,332.015 152.231,328.2ZM177.773,297.679C179.293,301.583 178.384,304.766 175.569,303.113C175.843,310.356 177.192,319.266 178.76,324.648C180.13,323.509 181.461,322.312 182.746,321.053C183.762,320.056 184.968,319.356 186.251,318.952L181.093,299.3L177.773,297.679ZM223.767,299.771C222.62,300.476 221.444,301.212 220.268,301.948L218.827,299.713C219.267,299.448 219.709,299.183 220.151,298.889C221.356,299.183 222.561,299.477 223.767,299.771ZM233.692,267.81C230.122,268.964 227.09,269.83 224.596,270.407C221.471,271.13 218.955,271.361 217.051,271.122C216.573,271.062 216.126,270.993 215.708,270.913L210.092,286.304L214.679,293.332C214.886,293.39 215.092,293.448 215.297,293.478C215.003,293.008 214.709,292.537 214.444,292.068C213.827,291.067 214.15,289.772 215.209,289.213C216.208,288.655 217.503,289.009 218.12,289.979C219.121,291.624 220.12,293.244 221.091,294.862C222.326,295.154 223.533,295.448 224.738,295.744C223.798,294.214 222.885,292.712 221.975,291.213C221.356,290.183 221.681,288.89 222.737,288.331C223.738,287.802 225.032,288.125 225.65,289.124C227.268,291.772 228.915,294.449 230.531,297.123C231.737,297.39 232.973,297.682 234.178,297.978C232.591,295.39 231.002,292.802 229.414,290.214C228.325,288.419 230.296,286.304 232.178,287.303C232.847,287.663 233.514,288.023 234.18,288.383L238.176,290.544C238.654,290.802 239.133,291.061 239.613,291.319C239.716,291.13 239.819,290.941 239.922,290.753C239.654,289.848 239.386,288.951 239.12,288.037C236.355,286.567 233.619,285.068 230.856,283.596C229.854,283.068 229.414,281.773 229.914,280.745C230.414,279.657 231.678,279.244 232.737,279.803C234.297,280.656 235.855,281.479 237.414,282.332C237.06,281.125 236.708,279.949 236.355,278.744C234.65,277.832 232.973,276.95 231.296,276.039C230.296,275.48 229.885,274.216 230.356,273.186C230.856,272.098 232.12,271.685 233.179,272.244C233.649,272.509 234.149,272.774 234.65,273.038C234.266,271.833 233.915,270.626 233.561,269.393C233.402,268.854 233.457,268.288 233.692,267.81ZM202.504,293.509L195.447,293.184L191.358,297.567L189.212,291.301L183.182,288.507L188.858,285.008L189.565,278.948L194.77,282.891L201.006,281.098L198.946,288.154L202.504,293.509ZM144.712,285.874L145.927,285.831C153.666,285.755 159.844,286.382 165.152,287.752L177.948,279.302L179.124,269.362L157.803,267.421L144.712,285.874ZM96.372,257.636C97.666,258.539 98.998,259.563 100.194,260.664C108.144,261.53 115.866,266.542 122.586,275.216C126.172,279.845 128.6,284.364 129.777,286.756C132.882,286.467 135.79,286.245 138.527,286.09L139.258,286.065L135.51,262.245L112.218,252.716L120.717,247.071L106.454,245.776L96.372,257.636ZM253.728,242.875C252.668,243.453 251.503,243.79 250.233,243.884C249.559,243.935 248.929,243.911 248.34,243.816C248.501,244.092 248.54,244.414 248.434,244.783C248.325,245.163 248.1,245.459 247.758,245.67C247.737,245.683 247.715,245.695 247.693,245.705C236.198,251.143 227.002,255.723 223.661,257.605C220.4,259.441 218.145,261.038 216.913,262.415C216.303,263.096 216.053,263.635 216.456,264.099C216.658,264.332 217.057,264.45 217.616,264.541C218.718,264.721 220.348,264.685 222.507,264.447C226.203,264.041 230.763,262.979 236.19,261.268C236.239,261.253 236.289,261.243 236.341,261.239C236.759,261.208 237.025,261.36 237.185,261.544C237.342,261.725 237.451,261.996 237.374,262.367C237.348,262.705 237.278,263.365 237.162,264.347C237.162,264.347 236.985,265.851 236.986,265.844C236.946,266.361 236.736,266.696 236.411,266.885C236.936,267.146 237.355,267.624 237.531,268.215C237.884,269.42 238.267,270.626 238.618,271.833C238.885,271.362 239.149,270.861 239.414,270.392C239.973,269.331 241.266,269.01 242.265,269.627C243.266,270.215 243.589,271.508 243.059,272.538L240.325,277.569L241.383,281.125C242.236,279.569 243.09,278.039 243.912,276.479C244.491,275.437 245.727,275.106 246.747,275.686C250.569,265.356 252.975,254.339 253.728,242.875ZM94.108,273.251C95.738,273.251 97.061,274.548 97.061,276.146C97.061,277.744 95.738,279.041 94.108,279.041C92.479,279.041 91.156,277.744 91.156,276.146C91.156,274.548 92.479,273.251 94.108,273.251ZM209.862,267.489L209.697,267.302C208.249,265.634 207.614,263.551 207.819,261.044C207.971,259.186 208.572,257.462 209.626,255.874C207.521,256.286 205.752,256.437 204.322,256.335C202.387,256.197 200.945,255.835 199.987,255.285C199.042,254.742 197.997,253.824 196.862,252.516C195.41,250.844 194.845,248.666 195.216,245.968C195.476,244.073 196.119,242.332 197.145,240.746C194.704,241.247 192.701,241.413 191.139,241.256L191.131,241.255L189.181,246.452L193.977,254.57L184.8,253.892L181.418,258.158L196.505,270.363L209.862,267.489ZM169.743,249.334L176.007,252.188L179.241,263.569L169.743,249.334ZM137.657,250.424L144.568,246.216L145.391,238.864L151.685,243.658L159.242,241.481L156.745,250.011L161.037,256.48L152.508,256.069L147.568,261.394L144.979,253.804L137.657,250.424ZM253.247,221.882C231.709,232.067 218.673,238.32 214.137,240.644C209.476,243.032 206.32,245.125 204.685,246.951C204.075,247.632 203.825,248.171 204.228,248.636C204.638,249.107 205.269,249.404 206.1,249.566C207.05,249.75 208.241,249.752 209.672,249.583C212.629,249.233 217.017,248.126 222.838,246.268C227.231,243.996 233.707,240.805 241.146,237.272C241.152,237.27 241.158,237.267 241.164,237.264C241.901,236.94 242.523,237.081 243.036,237.672L243.81,238.563C243.94,237.109 244.684,235.805 246.079,234.67C247.472,233.538 249.08,232.903 250.905,232.766C252.048,232.681 253.068,232.808 253.968,233.138C253.905,229.337 253.662,225.58 253.247,221.882ZM185.759,239.395C185.149,238.911 184.528,238.308 183.897,237.582C182.405,235.862 181.751,233.754 181.956,231.25C182.112,229.339 182.743,227.569 183.854,225.944C181.112,226.481 178.751,226.56 176.769,226.196L168.771,246.775L175.154,243.424L175.802,234.426L183.007,240.159L185.759,239.395ZM136.951,215.603L134.158,214.25L133.128,238.953L124.099,244.982L114.747,230.777L121.159,213.484L107.513,216.397L113.805,208.336L131.216,209.631L135.804,211.22L136.951,215.603ZM108.423,237.6L102.159,237.308L98.513,241.218L96.601,235.629L91.221,233.158L96.278,230.041L96.897,224.63L101.543,228.16L107.101,226.542L105.276,232.835L108.423,237.6ZM27.866,191.94L27.866,191.939C35.519,172.65 48.152,155.866 64.177,143.178L70.546,145.608L72.309,151.812L72.104,167.459L61.28,174.605L73.22,179.604L77.192,191.927L84.455,182.341L94.748,183.163L94.574,185.811L78.604,196.25L83.984,199.367L80.191,200.339L72.897,194.369L71.956,203.573L66.25,207.577L66.471,205.063L59.571,209.046L58.236,224.247L52.734,227.423L54.059,212.222L47.158,216.205L45.834,231.406L37.695,236.1L38.352,223.655L27.898,230.448L27.898,221.06L40.397,212.308L40.397,204.331L27.898,213.083L27.898,206.731L40.397,197.979L40.397,190.013L27.898,198.754L27.898,191.859C27.888,191.886 27.877,191.913 27.866,191.94ZM230.928,165.316C230.907,165.731 230.871,166.154 230.82,166.585C230.507,169.247 229.395,171.652 227.476,173.795C225.532,175.966 222.966,177.601 219.77,178.689C216.617,179.761 213.175,180.21 209.445,180.029C205.726,179.849 201.727,178.766 197.449,176.77C193.327,174.845 189.412,172.176 185.707,168.76C184.817,169.211 184.143,169.567 183.684,169.827C183.677,169.832 183.669,169.836 183.661,169.84C178.29,172.616 174.313,174.642 171.729,175.917C169.134,177.197 165.635,178.704 161.231,180.438C157.178,182.032 153.543,183.137 150.328,183.755C154.097,191.069 157.584,196.579 160.796,200.278C163.735,203.664 166.367,205.484 168.765,205.631C171.062,205.771 172.884,205.115 174.218,203.625C174.345,203.482 174.528,203.401 174.72,203.403C174.911,203.404 175.093,203.488 175.218,203.632C175.242,203.66 175.295,203.693 175.368,203.746C175.557,203.882 175.797,204.184 176.026,204.693C176.044,204.733 176.062,204.774 176.079,204.815C177.756,203.292 179.72,201.901 181.972,200.644C185.078,198.911 188.282,197.614 191.585,196.75C194.935,195.875 198.254,195.765 201.542,196.416C204.888,197.08 207.573,198.587 209.603,200.925C211.875,203.542 212.553,206.359 211.641,209.376C212.343,209.095 212.94,209.247 213.434,209.816C213.434,209.816 218.594,215.76 218.594,215.76C218.871,216.079 218.965,216.465 218.832,216.928C218.723,217.307 218.498,217.603 218.156,217.815C218.135,217.827 218.113,217.839 218.091,217.85C207.515,222.849 200.665,226.24 197.541,228.026C194.492,229.768 192.345,231.319 191.114,232.695C190.504,233.376 190.254,233.915 190.657,234.38C190.841,234.592 191.215,234.685 191.741,234.76C192.807,234.913 194.393,234.849 196.499,234.585C199.938,234.154 204.227,233.123 209.363,231.497C214.657,228.775 228.143,222.283 249.82,212.023C250.2,211.831 250.549,211.772 250.857,211.812C251.196,211.855 251.503,212.01 251.766,212.299C248.341,194.961 241.088,178.992 230.928,165.316ZM79.742,230.517L67.871,224.979L75.44,220.61L75.691,221.425L81.367,214.368L88.425,215.19L87.866,224.809L84.955,226.69L79.742,230.517ZM20.912,219.942L20.907,219.979L22.451,221.06L22.451,230.448L19.829,228.744C19.884,228.366 20.271,224.663 20.907,219.979L20.855,219.942L20.912,219.942ZM155.607,214.207L145.892,213.72L140.422,219.337L153.743,230.337L174.036,225.3C173.082,224.817 172.263,224.179 171.578,223.39C169.635,221.152 168.942,218.509 169.511,215.458C169.574,215.123 169.649,214.788 169.739,214.454C168.426,215.35 166.999,216.066 165.457,216.601C163.686,217.215 161.879,217.294 160.035,216.836C158.421,216.435 156.942,215.563 155.607,214.207ZM19.829,228.744C19.826,228.765 19.824,228.776 19.823,228.776C19.822,228.775 19.822,228.764 19.823,228.74L19.829,228.744ZM202.912,213.581C200.07,214.936 197.689,216.153 195.768,217.235C190.133,219.23 185.845,220.249 182.904,220.264C181.156,220.272 179.925,219.95 179.249,219.171C178.898,218.767 178.846,218.2 179.001,217.484C179.189,216.616 179.705,215.73 180.525,214.815C182.458,212.656 185.233,210.568 188.844,208.543C192.462,206.512 196.031,205.156 199.553,204.479C202.826,203.85 205.088,204.129 206.304,205.53C206.942,206.266 206.917,207.331 206.395,208.719C205.801,210.3 204.634,211.916 202.913,213.58L202.912,213.581ZM65.136,220.264L73.789,215.262L72.986,212.661L66.093,209.374L65.136,220.264ZM96.601,204.074L99.043,213.808L89.278,205.925L89.132,206.044L88.308,210.955L85.514,207.014L88.102,200.839L96.601,204.074ZM82.514,210.544L79.486,210.398L77.72,212.279L76.81,209.574L74.192,208.398L76.662,206.868L76.956,204.28L79.19,205.955L81.867,205.193L80.985,208.221L82.514,210.544ZM127.188,178.61L122.306,192.398L129.863,203.515L134.01,201.427L135.422,189.809L143.481,197.28L145.091,196.828C144.717,195.995 144.381,195.203 144.08,194.453C143.045,191.866 141.781,188.503 140.288,184.362C135.252,183.836 130.886,181.92 127.188,178.61ZM115.777,199.663L109.482,199.367L105.835,203.281L103.923,197.691L98.543,195.22L103.629,192.104L104.248,186.693L108.894,190.222L114.453,188.605L112.601,194.897L115.777,199.663ZM77.897,171.429L78.337,167.43L81.778,170.016L85.896,168.84L84.543,173.488L86.866,177.018L82.22,176.782L79.544,179.693L78.132,175.546L74.133,173.723L77.897,171.429ZM171.115,123.028C160.266,119.707 148.75,117.92 136.819,117.92C121.668,117.92 107.185,120.802 93.883,126.049L90.279,137.638L96.043,146.373L96.424,144.019L102.984,150.225L112.042,147.785L109.747,157.196L114.276,164.488L105.19,163.989L99.925,169.899L109.924,179.399L124.373,175.649C122.772,173.587 122.01,171.332 122.071,168.889C122.139,166.208 122.992,163.964 124.613,162.153C126.416,160.139 128.592,159.115 131.133,159.068C133.653,159.021 136.158,160.358 138.598,163.169C140.534,165.399 142.697,168.807 145.081,173.397C145.972,173.142 146.93,172.845 147.955,172.507C149.191,172.099 150.284,171.728 151.235,171.395C152.18,171.063 153.46,170.55 155.075,169.856C156.705,169.155 157.917,168.63 158.708,168.281C159.497,167.934 160.898,167.266 162.912,166.276C164.944,165.279 166.262,164.638 166.866,164.355C167.467,164.074 168.97,163.343 171.377,162.164C173.78,160.986 175.224,160.274 175.708,160.026C176.281,159.726 176.843,159.439 177.392,159.166C172.039,151.877 168.713,145.127 167.395,138.923C165.998,132.347 166.768,127.507 169.564,124.385C170.038,123.854 170.556,123.402 171.115,123.028ZM94.514,161.341L96.985,162.165L98.159,168.871L95.955,167.105L95.131,178.694L90.337,172.399L94.514,161.341ZM129.305,171.062C128.673,170.334 128.324,169.634 128.306,168.938C128.288,168.263 128.589,167.613 129.166,166.97C129.61,166.473 130.141,166.261 130.765,166.349C131.488,166.452 132.194,166.953 132.924,167.794C134.032,169.07 135.248,171.325 136.592,174.549C133.529,174.28 131.096,173.126 129.305,171.062L129.305,171.062ZM222.676,159.593C223.224,160.225 223.421,160.957 223.269,161.789C223.101,162.704 222.732,163.486 222.154,164.13C220.845,165.593 219.105,166.804 216.939,167.774C214.736,168.761 212.296,169.417 209.619,169.745C206.952,170.072 204.047,169.785 200.902,168.893C198.067,168.089 195.358,166.82 192.772,165.089C195.573,163.659 197.974,162.48 199.975,161.553C202.196,160.524 204.611,159.546 207.217,158.618C209.788,157.704 211.979,157.137 213.794,156.925C215.56,156.717 217.249,156.829 218.859,157.261C220.413,157.679 221.687,158.454 222.676,159.593ZM83.074,163.666L76.485,157.665L83.337,148.607L95.69,149.489L95.338,154.195L88.573,158.167L92.865,160.636L83.074,163.666ZM106.1,159.665L103.07,159.548L101.308,161.429L100.396,158.724L97.779,157.519L100.248,156.018L100.544,153.43L102.778,155.108L105.455,154.343L104.571,157.371L106.1,159.665ZM180.01,126.15C178.976,127.42 178.169,128.949 177.582,130.734C176.916,132.759 176.56,135.082 176.508,137.702C176.456,140.322 177.077,143.288 178.356,146.603C179.595,149.815 181.415,152.995 183.815,156.144C188.6,154.018 192.916,152.325 196.764,151.064C200.76,149.753 204.67,148.836 208.492,148.311C210.953,147.973 213.258,147.942 215.407,148.215C205.102,138.886 193.135,131.364 180.01,126.15ZM75.653,135.155C76.528,134.618 77.411,134.092 78.301,133.577L79.749,134.667L84.19,133.374L82.72,138.431L85.251,142.255L80.22,142.02L77.309,145.137L75.78,140.668L71.456,138.668L75.543,136.168L75.653,135.155ZM180.189,106.092C174.413,104.148 168.461,102.581 162.366,101.421C161.639,100.11 160.883,98.715 160.126,97.318C160.038,97.141 159.95,96.995 159.89,96.847C157.125,91.759 155.303,86.083 153.862,80.436L179.889,104.287L180.419,105.288C180.419,105.288 180.253,105.564 180.189,106.092ZM115.274,100.721C108.993,101.722 102.856,103.153 96.893,104.984L96.631,104.2L98.278,101.641L126.011,79.759C123.982,85.819 121.482,91.818 117.923,97.024L117.894,97.024C117.835,97.141 117.775,97.229 117.687,97.318C117.658,97.406 117.57,97.523 117.452,97.671C116.986,98.312 116.204,99.471 115.274,100.721ZM135.95,51.587C137.215,50.409 138.892,49.792 140.627,49.852C142.334,49.909 143.98,50.645 145.127,51.938C146.303,53.174 146.951,54.849 146.862,56.556C146.803,58.291 146.038,59.908 144.803,61.086C143.509,62.26 141.863,62.879 140.128,62.819C138.421,62.762 136.775,62.026 135.628,60.733C134.452,59.497 133.804,57.82 133.864,56.115C133.952,54.35 134.717,52.763 135.95,51.587ZM207.857,15.296C218.916,11.766 223.15,20.353 218.297,30.998C205.298,42.235 188.889,48.674 171.713,49.233C178.065,33.087 191.329,20.618 207.857,15.296ZM64.545,25.293C60.458,14.325 65.338,6.09 76.074,10.442C92.16,16.971 104.454,30.352 109.63,46.91C92.543,45.117 76.633,37.47 64.545,25.293Z" style="fill:none;stroke:rgb(255,0,0);stroke-width:1px;"/>
</svg>
