<?xml version="1.0" encoding="UTF-8" standalone="no"?>
<!DOCTYPE svg PUBLIC "-//W3C//DTD SVG 1.1//EN" "http://www.w3.org/Graphics/SVG/1.1/DTD/svg11.dtd">
<svg width="100%" height="100%" viewBox="0 0 1123 794" version="1.1" xmlns="http://www.w3.org/2000/svg" xmlns:xlink="http://www.w3.org/1999/xlink" xml:space="preserve" xmlns:serif="http://www.serif.com/" style="fill-rule:evenodd;clip-rule:evenodd;stroke-linejoin:round;stroke-miterlimit:2;">
    <path d="M0.763,233.654C1.257,185.132 27.188,142.701 65.84,118.992C65.398,118.817 65.044,118.669 64.75,118.492L64.722,118.492C55.281,115.374 48.341,108.758 41.958,101.287C30.577,85.318 46.666,69.791 47.751,53.967C48.723,40.557 42.782,25.706 49.694,12.56C53.84,3.853 62.664,0.531 72.427,0.768C81.014,1.208 89.338,4.267 95.161,8.707C107.57,18.236 119.159,31.999 128.776,45.146C128.776,44.116 130.394,42.292 132.157,41.293C133.276,40.617 134.598,40.263 136.01,40.263L144.597,40.263C146.422,40.263 148.067,40.88 149.422,41.91C150.863,43.057 151.891,44.704 152.273,46.587C152.802,46.587 182.859,16.178 188.975,12.177C195.124,8.148 203.623,5.737 212.21,5.942C221.975,6.413 230.502,10.413 234.032,19.412C239.942,32.998 232.913,47.381 232.854,60.821C232.825,76.702 247.707,93.348 235.179,108.435C229.972,113.729 222.856,118.846 215.857,121.903L215.797,121.903C215.417,122.021 214.603,122.283 213.44,122.66C235.706,137.872 253.229,159.522 263.318,184.913L263.635,185.717C269.445,200.605 272.705,216.771 272.875,233.676L272.882,235.085L272.88,235.812L272.866,237.183L272.848,238.157L272.816,239.357L272.777,240.461C272.271,253.525 269.932,266.101 265.999,277.951C265.659,278.997 265.294,280.017 264.925,281.008L264.5,282.186C263.205,285.714 261.764,289.155 260.177,292.537C259.764,293.448 259.353,294.331 258.911,295.213C258.206,296.654 257.441,298.096 256.707,299.508C256.647,299.565 256.619,299.654 256.588,299.713C255.177,302.329 253.677,304.919 252.09,307.419C251.717,307.987 251.375,308.559 250.98,309.103L250.882,309.252C250.472,309.92 250.043,310.551 249.594,311.192L249.354,311.546L249.354,311.565C249.088,312.005 248.794,312.416 248.472,312.829C245.795,316.713 242.913,320.415 239.854,323.976C215.151,352.578 178.758,370.759 138.144,371.142L136.819,371.148C133.222,371.148 129.657,371.008 126.124,370.733C59.482,365.554 6.326,312.384 1.167,245.731C0.895,242.217 0.756,238.667 0.756,235.085L0.763,233.654ZM28.751,280.397C40.488,308.332 62.752,330.776 90.57,342.754C86.43,339.961 82.52,336.774 78.888,333.213C75.47,329.86 75.47,324.406 78.888,321.053C82.307,317.7 87.87,317.7 91.289,321.053C93.511,323.232 95.866,325.23 98.335,327.046C102.763,312.408 102.398,299.836 101.771,293.577L92.474,300.653C89.142,303.191 84.772,303.273 81.343,300.862C77.913,298.45 76.589,294.365 77.972,290.454L85.343,269.604L86.265,255.979C86.324,255.115 86.821,254.338 87.589,253.91C88.356,253.482 89.292,253.461 90.078,253.854C90.199,253.915 91.551,254.595 93.379,255.698L90.219,242.394L72.795,235.617L73.743,234.921L60.959,228.962L55.458,232.149L69.292,238.586L62.38,242.58L48.557,236.132L40.419,240.826L51.529,246.478L40.419,252.14L48.557,256.834L62.38,250.385L69.292,254.369L55.458,260.817L60.959,263.993L74.793,257.544L81.694,261.528L67.871,267.976L78.895,274.349C80.197,275.092 80.639,276.761 79.885,278.064C79.131,279.377 77.474,279.818 76.16,279.065L65.136,272.702L66.471,287.903L59.571,283.92L58.236,268.719L52.734,265.532L54.059,280.733L47.158,276.75L45.834,261.549L37.695,256.856L38.352,269.3L27.898,262.507L27.898,271.906L40.397,280.658L40.397,288.624L28.794,280.5L28.751,280.397ZM233.012,301.959C231.873,301.683 230.731,301.431 229.591,301.155C226.915,302.799 224.267,304.448 221.621,306.066C220.62,306.683 219.327,306.417 218.65,305.447C218.445,305.153 218.326,304.8 218.297,304.448L200.475,303.418L187.72,318.623C190.354,318.261 193.125,319.071 195.146,321.053C196.802,322.677 197.715,324.836 197.714,327.133C197.714,329.43 196.802,331.589 195.146,333.213C191.721,336.571 188.049,339.597 184.169,342.273C198.375,335.983 211.1,326.95 221.671,315.847C221.653,315.726 221.646,315.602 221.65,315.475C221.681,314.328 222.62,313.389 223.767,313.36L223.978,313.353C224.787,312.453 225.583,311.54 226.362,310.616C224.439,310.455 223.754,307.872 225.474,306.802C227.928,305.293 230.355,303.762 232.807,302.252L233.012,301.959ZM152.231,328.2C153.857,330.702 156.365,333.727 158.432,336.092C151.639,338.426 144.423,339.645 137.018,339.645C130.424,339.645 123.98,338.678 117.851,336.819L122.432,328.338C127.245,329.627 139.269,332.015 152.231,328.2ZM177.773,297.679C179.293,301.583 178.384,304.766 175.569,303.113C175.843,310.356 177.192,319.266 178.76,324.648C180.13,323.509 181.461,322.312 182.746,321.053C183.762,320.056 184.968,319.356 186.251,318.952L181.093,299.3L177.773,297.679ZM223.767,299.771C222.62,300.476 221.444,301.212 220.268,301.948L218.827,299.713C219.267,299.448 219.709,299.183 220.151,298.889C221.356,299.183 222.561,299.477 223.767,299.771ZM230.62,272.755L230.587,272.753C228.685,272.635 227.258,272.315 226.298,271.825C225.344,271.339 224.348,270.567 223.317,269.499C221.78,267.906 221.057,265.911 221.168,263.508C221.249,261.741 221.772,260.084 222.74,258.54C217.194,259.762 213.207,259.019 210.759,256.482C208.76,254.409 207.979,251.907 208.43,248.97C208.696,247.238 209.342,245.491 210.375,243.733C207.64,244.465 205.399,244.795 203.655,244.736C201.741,244.672 200.306,244.375 199.341,243.883C198.392,243.399 197.328,242.56 196.163,241.352C194.668,239.802 194.027,237.737 194.296,235.141C194.487,233.286 195.077,231.571 196.066,229.995C190.117,231.402 185.881,230.695 183.342,228.062C181.343,225.99 180.562,223.488 181.013,220.551C181.343,218.4 182.26,216.227 183.774,214.037L183.73,214.045C180.521,214.572 177.907,214.747 175.887,214.58C173.834,214.41 171.875,213.93 170.01,213.139C168.14,212.346 166.77,211.598 165.894,210.907C165.031,210.228 164.082,209.353 163.048,208.281C160.296,205.428 159.211,202.154 159.779,198.462C159.88,197.803 160.021,197.147 160.201,196.496C159.657,196.996 159.098,197.464 158.523,197.901C157.157,198.939 155.645,199.771 153.987,200.395C153.348,200.636 152.702,200.806 152.048,200.906L150.596,205.25L155.861,214.22L145.892,213.72L140.422,219.337L153.743,230.337L177.446,224.453L168.771,246.775L175.154,243.424L175.802,234.426L183.007,240.159L192.536,237.512L189.181,246.452L193.977,254.57L184.8,253.892L181.418,258.158L196.505,270.363L217.563,265.832L210.092,286.304L214.679,293.332C214.886,293.39 215.092,293.448 215.297,293.478C215.003,293.008 214.709,292.537 214.444,292.068C213.827,291.067 214.15,289.772 215.209,289.213C216.208,288.655 217.503,289.009 218.12,289.979C219.121,291.624 220.12,293.244 221.091,294.862C222.326,295.154 223.533,295.448 224.738,295.744C223.798,294.214 222.885,292.712 221.975,291.213C221.356,290.183 221.681,288.89 222.737,288.331C223.738,287.802 225.032,288.125 225.65,289.124C227.268,291.772 228.915,294.449 230.531,297.123C231.737,297.39 232.973,297.682 234.178,297.978C232.591,295.39 231.002,292.802 229.414,290.214C228.325,288.419 230.296,286.304 232.178,287.303C232.847,287.663 233.514,288.023 234.18,288.383L238.176,290.544C238.654,290.802 239.133,291.061 239.613,291.319C239.716,291.13 239.819,290.941 239.922,290.753C239.654,289.848 239.386,288.951 239.12,288.037C236.355,286.567 233.619,285.068 230.856,283.596C229.854,283.068 229.414,281.773 229.914,280.745C230.414,279.657 231.678,279.244 232.737,279.803C234.297,280.656 235.855,281.479 237.414,282.332C237.06,281.125 236.708,279.949 236.355,278.744C234.65,277.832 232.973,276.95 231.296,276.039C230.296,275.48 229.885,274.216 230.356,273.186C230.429,273.027 230.518,272.883 230.62,272.755ZM202.504,293.509L195.447,293.184L191.358,297.567L189.212,291.301L183.182,288.507L188.858,285.008L189.565,278.948L194.77,282.891L201.006,281.098L198.946,288.154L202.504,293.509ZM144.712,285.874L145.927,285.831C153.666,285.755 159.844,286.382 165.152,287.752L177.948,279.302L179.124,269.362L157.803,267.421L144.712,285.874ZM96.372,257.636C97.666,258.539 98.998,259.563 100.194,260.664C108.144,261.53 115.866,266.542 122.586,275.216C126.172,279.845 128.6,284.364 129.777,286.756C132.882,286.467 135.79,286.245 138.527,286.09L139.258,286.065L135.51,262.245L112.218,252.716L120.717,247.071L106.454,245.776L96.372,257.636ZM249.325,267.878C249.227,267.945 249.116,267.999 248.995,268.04C246.764,268.857 244.726,269.57 242.88,270.178C243.374,270.838 243.458,271.763 243.059,272.538L240.325,277.569L241.383,281.125C242.236,279.569 243.09,278.039 243.912,276.479C244.491,275.437 245.727,275.106 246.747,275.686C247.695,273.124 248.556,270.52 249.325,267.878ZM94.108,273.251C95.738,273.251 97.061,274.548 97.061,276.146C97.061,277.744 95.738,279.041 94.108,279.041C92.479,279.041 91.156,277.744 91.156,276.146C91.156,274.548 92.479,273.251 94.108,273.251ZM252.872,251.277C244.561,255.481 239.077,258.383 236.422,259.982C233.513,261.733 231.476,263.271 230.325,264.613C229.789,265.238 229.551,265.718 229.936,266.117C230.113,266.302 230.466,266.365 230.956,266.415C231.999,266.521 233.54,266.406 235.58,266.084C239.089,265.53 243.486,264.318 248.774,262.454C248.829,262.435 248.886,262.422 248.944,262.415C249.387,262.367 250.156,262.817 250.334,263C250.509,263.182 252.192,256.192 252.872,251.277ZM169.743,249.334L176.007,252.188L179.241,263.569L169.743,249.334ZM137.657,250.424L144.568,246.216L145.391,238.864L151.685,243.658L159.242,241.481L156.745,250.011L161.037,256.48L152.508,256.069L147.568,261.394L144.979,253.804L137.657,250.424ZM241.058,245.973C238.336,247.351 236.056,248.586 234.219,249.675C228.794,251.757 224.649,252.87 221.78,252.987C220.103,253.055 218.908,252.806 218.232,252.105C217.89,251.751 217.83,251.238 217.95,250.585C218.1,249.767 218.568,248.924 219.326,248.04C221.134,245.933 223.766,243.865 227.215,241.825C230.672,239.78 234.105,238.373 237.516,237.611C240.655,236.909 242.851,237.078 244.075,238.348C244.709,239.004 244.709,239.987 244.261,241.284C243.741,242.79 242.667,244.348 241.059,245.972L241.058,245.973ZM136.951,215.603L134.158,214.25L133.128,238.953L124.099,244.982L114.747,230.777L121.159,213.484L107.513,216.397L113.805,208.336L131.216,209.631L135.804,211.22L136.951,215.603ZM251.264,209.893C229.995,220.579 217.152,227.12 212.732,229.516C208.273,231.934 205.268,234.02 203.74,235.803C203.199,236.433 203,236.943 203.416,237.375C203.821,237.795 204.43,238.041 205.22,238.157C206.142,238.292 207.289,238.244 208.66,238.025C211.012,237.649 214.315,236.775 218.569,235.407C219.07,235.078 219.588,234.756 220.123,234.441C223.103,232.687 226.197,231.343 229.403,230.408C232.66,229.458 235.914,229.237 239.166,229.742C242.482,230.256 245.177,231.6 247.259,233.757C249.555,236.137 250.34,238.756 249.617,241.614C250.265,241.39 250.834,241.539 251.326,242.048L253.617,244.423C253.86,241.341 253.984,238.227 253.984,235.085C253.984,226.439 253.046,218.011 251.264,209.893ZM108.423,237.6L102.159,237.308L98.513,241.218L96.601,235.629L91.221,233.158L96.278,230.041L96.897,224.63L101.543,228.16L107.101,226.542L105.276,232.835L108.423,237.6ZM27.866,191.94L27.866,191.939C35.519,172.65 48.152,155.866 64.177,143.178L70.546,145.608L72.309,151.812L72.104,167.459L61.28,174.605L73.22,179.604L77.192,191.927L84.455,182.341L94.748,183.163L94.574,185.811L78.604,196.25L83.984,199.367L80.191,200.339L72.897,194.369L71.956,203.573L66.25,207.577L66.471,205.063L59.571,209.046L58.236,224.247L52.734,227.423L54.059,212.222L47.158,216.205L45.834,231.406L37.695,236.1L38.352,223.655L27.898,230.448L27.898,221.06L40.397,212.308L40.397,204.331L27.898,213.083L27.898,206.731L40.397,197.979L40.397,190.013L27.898,198.754L27.898,191.859C27.888,191.886 27.877,191.913 27.866,191.94ZM79.742,230.517L67.871,224.979L75.44,220.61L75.691,221.425L81.367,214.368L88.425,215.19L87.866,224.809L84.955,226.69L79.742,230.517ZM20.912,219.942L20.907,219.979L22.451,221.06L22.451,230.448L19.829,228.744C19.884,228.366 20.271,224.663 20.907,219.979L20.855,219.942L20.912,219.942ZM19.829,228.744C19.826,228.765 19.824,228.776 19.823,228.776C19.822,228.775 19.822,228.764 19.823,228.74L19.829,228.744ZM213.364,217.881C211.237,218.947 209.441,219.905 207.975,220.755C203.539,222.512 199.733,223.678 196.559,224.244C195.036,224.515 193.77,224.597 192.76,224.475C191.896,224.371 191.239,224.126 190.814,223.685C190.473,223.331 190.412,222.818 190.532,222.166C190.683,221.348 191.151,220.504 191.909,219.621C193.717,217.514 196.349,215.445 199.797,213.405C203.255,211.36 206.688,209.954 210.099,209.191C213.238,208.49 215.434,208.659 216.658,209.928C217.331,210.626 217.331,211.656 216.842,213.006C216.276,214.57 215.11,216.189 213.366,217.88L213.364,217.881ZM65.136,220.264L73.789,215.262L72.986,212.661L66.093,209.374L65.136,220.264ZM96.601,204.074L99.043,213.808L89.278,205.925L89.132,206.044L88.308,210.955L85.514,207.014L88.102,200.839L96.601,204.074ZM216.221,148.959C216.23,149.508 216.209,150.073 216.161,150.655C215.949,153.205 214.942,155.537 213.131,157.648C211.299,159.784 208.837,161.431 205.736,162.578C202.682,163.708 199.322,164.255 195.656,164.214C192.003,164.173 188.042,163.285 183.776,161.537C179.684,159.861 175.767,157.477 172.027,154.382C171.2,154.826 170.572,155.176 170.142,155.434C170.134,155.439 170.125,155.444 170.117,155.448C164.964,158.267 161.147,160.325 158.665,161.623C156.173,162.928 152.803,164.479 148.556,166.276C144.69,167.911 141.207,169.078 138.107,169.779C142.031,176.524 145.617,181.586 148.872,184.96C151.847,188.044 154.465,189.673 156.799,189.728C159.021,189.78 160.757,189.106 161.992,187.666C162.127,187.509 162.326,187.415 162.537,187.409C162.742,187.403 162.939,187.48 163.082,187.621C163.09,187.627 163.168,187.684 163.232,187.725C163.43,187.852 163.688,188.138 163.939,188.631C164.004,188.758 164.061,188.889 164.11,189.024C164.375,188.685 164.652,188.347 164.941,188.01C167.621,184.886 171.092,182.419 175.359,180.617C179.63,178.814 183.944,178.078 188.302,178.406C192.393,178.714 195.706,180.042 198.25,182.37L214.487,178.79C215.718,178.518 216.936,179.297 217.208,180.527L218.191,184.985C218.462,186.215 217.683,187.434 216.453,187.705L202.282,188.972C202.306,189.099 202.327,189.225 202.345,189.352C202.663,191.567 201.962,193.71 200.198,195.766C197.93,198.41 194.913,199.837 191.139,200.032C187.466,200.223 184.033,199.633 180.839,198.266C177.905,197.011 175.44,195.505 173.442,193.752C172.647,194.421 171.926,195.133 171.279,195.886C169.99,197.389 169.171,198.871 168.841,200.341C168.545,201.662 168.852,202.802 169.775,203.758C170.519,204.529 171.46,205.229 172.594,205.863C173.756,206.513 175.306,207.104 177.24,207.646C179.17,208.186 181.585,208.315 184.486,208.049C186.803,207.837 189.253,207.336 191.834,206.551C192.119,206.372 192.41,206.196 192.706,206.021C195.686,204.267 198.78,202.924 201.985,201.989C205.242,201.039 208.497,200.818 211.748,201.322C215.065,201.837 217.76,203.18 219.842,205.338L219.842,205.338C222.181,207.763 222.939,210.435 222.115,213.354C226.719,211.02 234.88,206.926 246.597,201.071C246.602,201.068 246.607,201.066 246.613,201.063C247.359,200.712 248.006,200.831 248.557,201.402L249.285,202.157C243.235,181.491 231.64,163.185 216.221,148.959ZM82.514,210.544L79.486,210.398L77.72,212.279L76.81,209.574L74.192,208.398L76.662,206.868L76.956,204.28L79.19,205.955L81.867,205.193L80.985,208.221L82.514,210.544ZM113.658,164.454L105.19,163.989L99.925,169.899L109.924,179.399L128.628,174.545L122.306,192.398L129.863,203.515L134.01,201.427L135.422,189.809L141.268,195.228C139.826,193.434 138.417,191.393 137.042,189.105C134.946,185.615 133.324,182.617 132.177,180.112C131.076,177.706 129.725,174.578 128.124,170.728C122.53,170.351 117.707,168.261 113.658,164.454ZM115.777,199.663L109.482,199.367L105.835,203.281L103.923,197.691L98.543,195.22L103.629,192.104L104.248,186.693L108.894,190.222L114.453,188.605L112.601,194.897L115.777,199.663ZM195.635,187.666C195.736,187.771 195.808,187.873 195.815,187.987C195.729,188.556 195.367,189.069 194.773,189.557C194.051,190.151 193.008,190.69 191.652,191.188C191.649,191.189 191.646,191.19 191.643,191.191C187.276,192.863 182.814,192.582 178.252,190.375C181.574,188.523 184.945,187.3 188.366,186.709C190.215,186.389 191.768,186.315 193.026,186.501C194.158,186.668 195.034,187.044 195.635,187.666ZM77.897,171.429L78.337,167.43L81.778,170.016L85.896,168.84L84.543,173.488L86.866,177.018L82.22,176.782L79.544,179.693L78.132,175.546L74.133,173.723L77.897,171.429ZM94.514,161.341L96.985,162.165L98.159,168.871L95.955,167.105L95.131,178.694L90.337,172.399L94.514,161.341ZM83.074,163.666L76.485,157.665L83.337,148.607L95.69,149.489L95.338,154.195L88.573,158.167L92.865,160.636L83.074,163.666ZM106.1,159.665L103.07,159.548L101.308,161.429L100.396,158.724L97.779,157.519L100.248,156.018L100.544,153.43L102.778,155.108L105.455,154.343L104.571,157.371L106.1,159.665ZM117.024,158.375C116.396,157.724 116.036,157.09 115.994,156.447C115.953,155.828 116.22,155.222 116.744,154.61C117.141,154.147 117.628,153.936 118.212,153.995C118.907,154.066 119.596,154.51 120.323,155.263C121.433,156.414 122.679,158.46 124.08,161.392C121.163,161.221 118.808,160.224 117.024,158.375L117.024,158.375ZM152.148,118.916C147.126,118.258 142.012,117.92 136.819,117.92C121.668,117.92 107.185,120.802 93.883,126.049L90.279,137.638L96.043,146.373L96.424,144.019L102.984,150.225L112.042,147.785L111.23,151.114C111.457,150.763 111.711,150.426 111.989,150.1C113.696,148.111 115.807,147.055 118.314,146.92C120.798,146.787 123.32,147.972 125.829,150.572C127.796,152.612 130.028,155.751 132.514,159.995C133.356,159.727 134.26,159.419 135.224,159.072C136.417,158.643 137.473,158.254 138.391,157.905C139.301,157.559 140.532,157.028 142.085,156.315C143.654,155.594 144.819,155.055 145.581,154.697C146.339,154.341 147.684,153.659 149.617,152.652C151.569,151.636 152.835,150.983 153.415,150.693C153.992,150.406 155.436,149.661 157.746,148.46C160.053,147.261 161.439,146.536 161.903,146.284C162.423,145.996 162.933,145.72 163.433,145.456L163.433,145.456C157.963,138.755 154.483,132.489 152.974,126.67C152.213,123.733 151.943,121.149 152.148,118.916ZM109.747,157.196L109.751,157.202L109.75,157.187L109.747,157.196ZM207.799,144.363C208.34,144.924 208.551,145.588 208.436,146.355C208.307,147.212 207.981,147.953 207.449,148.572C206.228,149.995 204.579,151.197 202.507,152.186C200.396,153.194 198.041,153.898 195.444,154.301C192.857,154.703 190.017,154.532 186.922,153.799C184.173,153.149 181.527,152.069 178.981,150.561C181.614,149.139 183.877,147.962 185.77,147.029C187.903,145.977 190.226,144.967 192.739,143.999C195.213,143.045 197.33,142.433 199.091,142.169C200.801,141.913 202.445,141.959 204.025,142.31C205.543,142.648 206.802,143.33 207.799,144.363ZM75.653,135.155C76.528,134.618 77.411,134.092 78.301,133.577L79.749,134.667L84.19,133.374L82.72,138.431L85.251,142.255L80.22,142.02L77.309,145.137L75.78,140.668L71.456,138.668L75.543,136.168L75.653,135.155ZM162.311,120.706C162.08,122.082 161.98,123.571 162.008,125.173C162.051,127.649 162.764,130.427 164.129,133.513C165.445,136.489 167.322,139.415 169.756,142.293C174.338,140.124 178.481,138.377 182.184,137.052C186.05,135.67 189.845,134.663 193.569,134.031C194.27,133.913 194.959,133.819 195.636,133.751C185.407,127.797 174.198,123.348 162.311,120.706ZM180.189,106.092C174.413,104.148 168.461,102.581 162.366,101.421C161.639,100.11 160.883,98.715 160.126,97.318C160.038,97.141 159.95,96.995 159.89,96.847C157.125,91.759 155.303,86.083 153.862,80.436L179.889,104.287L180.419,105.288C180.419,105.288 180.253,105.564 180.189,106.092ZM115.274,100.721C108.993,101.722 102.856,103.153 96.893,104.984L96.631,104.2L98.278,101.641L126.011,79.759C123.982,85.819 121.482,91.818 117.923,97.024L117.894,97.024C117.835,97.141 117.775,97.229 117.687,97.318C117.658,97.406 117.57,97.523 117.452,97.671C116.986,98.312 116.204,99.471 115.274,100.721ZM135.95,51.587C137.215,50.409 138.892,49.792 140.627,49.852C142.334,49.909 143.98,50.645 145.127,51.938C146.303,53.174 146.951,54.849 146.862,56.556C146.803,58.291 146.038,59.908 144.803,61.086C143.509,62.26 141.863,62.879 140.128,62.819C138.421,62.762 136.775,62.026 135.628,60.733C134.452,59.497 133.804,57.82 133.864,56.115C133.952,54.35 134.717,52.763 135.95,51.587ZM207.857,15.296C218.916,11.766 223.15,20.353 218.297,30.998C205.298,42.235 188.889,48.674 171.713,49.233C178.065,33.087 191.329,20.618 207.857,15.296ZM64.545,25.293C60.458,14.325 65.338,6.09 76.074,10.442C92.16,16.971 104.454,30.352 109.63,46.91C92.543,45.117 76.633,37.47 64.545,25.293Z" style="fill:none;stroke:rgb(255,0,0);stroke-width:1px;"/>
</svg>
