<?xml version="1.0" encoding="UTF-8" standalone="no"?>
<!DOCTYPE svg PUBLIC "-//W3C//DTD SVG 1.1//EN" "http://www.w3.org/Graphics/SVG/1.1/DTD/svg11.dtd">
<svg width="100%" height="100%" viewBox="0 0 1123 794" version="1.1" xmlns="http://www.w3.org/2000/svg" xmlns:xlink="http://www.w3.org/1999/xlink" xml:space="preserve" xmlns:serif="http://www.serif.com/" style="fill-rule:evenodd;clip-rule:evenodd;stroke-linejoin:round;stroke-miterlimit:2;">
    <path d="M144.768,40.265C146.525,40.302 148.11,40.912 149.422,41.91C150.863,43.057 151.891,44.704 152.273,46.587C152.802,46.587 182.859,16.178 188.975,12.177C194.836,8.337 202.831,5.966 211.003,5.93C211.404,5.929 211.807,5.932 212.21,5.942C221.975,6.413 230.502,10.413 234.032,19.412C239.942,32.998 232.913,47.381 232.854,60.821C232.825,76.702 247.707,93.348 235.179,108.435C229.972,113.729 222.856,118.846 215.857,121.903L215.797,121.903L214.909,122.185L213.44,122.66C235.271,137.575 252.544,158.68 262.718,183.428L263.146,184.482L263.635,185.717L264.183,187.147L264.715,188.58L264.956,189.247L265.465,190.694L265.958,192.147L266.475,193.735L266.941,195.223L267.39,196.719L267.822,198.222L268.318,200.033L268.765,201.757L269.14,203.283L269.499,204.816L269.84,206.356L270.097,207.582L270.267,208.418L270.567,209.973L270.849,211.533L271.113,213.1L271.309,214.338L271.419,215.073L271.66,216.779L271.864,218.366L272.05,219.958L272.182,221.204L272.257,221.958L272.366,223.158L272.397,223.517L272.519,225.075L272.624,226.63L272.71,228.177L272.746,228.945L272.807,230.524L272.85,232.102C272.861,232.627 272.87,233.152 272.875,233.676L272.882,235.204L272.88,235.812C272.877,236.27 272.873,236.727 272.866,237.183L272.845,238.277C272.836,238.637 272.827,238.997 272.816,239.357L272.77,240.666L272.707,242.056L272.66,242.916C272.616,243.693 272.566,244.469 272.509,245.242L272.378,246.891L272.235,248.448L272.115,249.632L271.964,250.996L271.773,252.558L271.607,253.813L271.429,255.064L271.176,256.717L270.983,257.897L270.743,259.275L270.405,261.091L270.108,262.584L269.863,263.752L269.428,265.714L269.074,267.212L268.795,268.344L268.42,269.801L268.042,271.21L267.725,272.344L267.361,273.601L266.892,275.16L266.363,276.838L265.822,278.487L265.452,279.56L265.025,280.738L264.863,281.178C264.752,281.514 264.639,281.848 264.5,282.186C263.205,285.714 261.764,289.155 260.177,292.537C259.764,293.448 259.353,294.331 258.911,295.213C258.206,296.654 257.441,298.096 256.707,299.508C256.647,299.565 256.619,299.654 256.588,299.713C255.177,302.329 253.677,304.919 252.09,307.419L251.385,308.513L250.98,309.103L250.316,310.136L249.767,310.943L249.354,311.546L249.354,311.565C249.088,312.005 248.794,312.416 248.472,312.829C247.32,314.5 246.13,316.138 244.904,317.745L244.816,317.86C243.221,319.948 241.565,321.984 239.854,323.976L239.073,324.871L238.079,325.991L237.478,326.655L236.874,327.314L236.265,327.97L235.652,328.622L235.034,329.27L234.413,329.913L233.787,330.553L233.157,331.188L232.523,331.819L231.885,332.446L231.243,333.069L230.597,333.688L229.946,334.303L229.292,334.913L228.634,335.519L227.305,336.718L225.961,337.9L224.601,339.064L223.226,340.21L221.835,341.339L220.43,342.45L219.251,343.358L218.294,344.082L217.12,344.95L216.125,345.672L214.957,346.501L213.924,347.22L212.763,348.011L211.691,348.725L210.538,349.478L209.428,350.187L208.283,350.903L207.134,351.605L205.999,352.284L204.81,352.979L203.686,353.621L202.128,354.488L200.557,355.336L199.718,355.777L198.921,356.19L198.122,356.597L197.319,356.999L196.514,357.396L195.706,357.788L194.894,358.175L194.08,358.556L193.263,358.932L192.443,359.303L191.621,359.668L190.795,360.029L189.967,360.383L189.136,360.733L188.303,361.077L187.466,361.416L186.627,361.749L185.472,362.197L184.208,362.674L183.508,362.932C175.658,365.798 167.471,367.962 159.021,369.348L157.605,369.572L156.197,369.781L154.318,370.035L152.436,370.263L150.549,370.465L148.516,370.653L146.646,370.8L144.654,370.927L142.787,371.02L140.923,371.087L139.53,371.121L138.144,371.142L136.819,371.148L135.472,371.141L135.01,371.136L133.308,371.103L132.116,371.068L131.571,371.048C131.011,371.027 130.452,371.002 129.893,370.974L128.91,370.921L128.07,370.87L126.787,370.783L125.344,370.67L124.595,370.605L123.757,370.528L122.78,370.431L121.461,370.29L119.917,370.108L119.147,370.01L118.622,369.94C61.059,362.253 14.891,318.582 3.474,262.277L3.239,261.09L2.955,259.579L2.689,258.062L2.439,256.54L2.206,255.012L1.989,253.478L1.79,251.939L1.609,250.395L1.444,248.846L1.295,247.267L1.199,246.139L1.071,244.412L1.03,243.782L0.93,242.013L0.887,241.098L0.867,240.61L0.814,239.101L0.782,237.765L0.762,236.427L0.756,235.069L0.761,233.92L0.78,232.504L0.814,231.055L0.874,229.343L0.941,227.924L1.04,226.215L1.16,224.51L1.339,222.399L1.503,220.733L1.754,218.52L1.965,216.867L2.116,215.769L2.36,214.126L2.623,212.491L2.832,211.276L3.004,210.32L3.25,209.022L3.391,208.305L3.7,206.805L3.847,206.115L4.228,204.413L4.525,203.156L4.699,202.441L5.07,200.971L5.248,200.286L5.705,198.602L6.047,197.393L6.255,196.679L6.685,195.245L7.142,193.78L7.652,192.213L8.179,190.657L8.724,189.112L9.286,187.576L9.865,186.051L10.462,184.535L11.076,183.028L11.589,181.809L12.228,180.334L12.884,178.867L13.557,177.41L14.247,175.963L14.953,174.524L15.675,173.096L16.414,171.677L17.169,170.268L17.681,169.334L18.2,168.404L18.727,167.479L19.26,166.559L19.8,165.643L20.347,164.732L20.901,163.825L21.462,162.923L21.995,162.081C24.011,158.918 26.155,155.843 28.418,152.865L29.105,151.969L30.119,150.673L31.137,149.404L32.163,148.156L33.2,146.924L34.249,145.708L35.309,144.506L36.64,143.037L37.833,141.756L39.206,140.322L40.549,138.958L41.845,137.678L43.198,136.376L44.743,134.932L46.31,133.513L47.5,132.464L48.702,131.429L49.916,130.407L51.142,129.4L52.38,128.406L53.63,127.427L54.892,126.462L56.165,125.511L57.449,124.575L58.745,123.654L60.052,122.747L61.369,121.855L62.698,120.978L64.037,120.117L64.936,119.551L65.84,118.992C65.398,118.817 65.044,118.669 64.75,118.492L64.722,118.492C55.281,115.374 48.341,108.758 41.958,101.287C30.577,85.318 46.666,69.791 47.751,53.967C48.723,40.557 42.782,25.706 49.694,12.56C53.84,3.853 62.664,0.531 72.427,0.768C81.014,1.208 89.338,4.267 95.161,8.707C107.57,18.236 119.159,31.999 128.776,45.146C128.776,44.116 130.394,42.292 132.157,41.293C133.276,40.617 134.598,40.263 136.01,40.263L144.597,40.263L144.768,40.265ZM233.106,301.981L233,302.134C230.483,303.681 227.993,305.253 225.474,306.802C223.721,307.892 224.466,310.555 226.475,310.623C225.699,311.543 224.907,312.453 224.102,313.349L223.767,313.36C222.62,313.389 221.681,314.328 221.65,315.475C221.645,315.641 221.659,315.803 221.69,315.957C200.328,338.368 170.192,352.34 136.819,352.34C129.603,352.34 122.539,351.687 115.679,350.436L134.186,327.506L164.772,329.681L159.508,320.888L165.184,312.093L175.802,312.975L170.243,303.566L173.565,295.625L181.093,299.3L186.535,320.035L200.475,303.418L218.297,304.448C218.326,304.8 218.445,305.153 218.65,305.447C219.327,306.417 220.62,306.683 221.621,306.066C224.267,304.448 226.915,302.799 229.591,301.155C230.762,301.438 231.935,301.697 233.106,301.981ZM107.895,341.033L113.364,348.678L110.159,337.003L107.895,341.033ZM104.571,345.769L100.63,345.592L99.878,346.393C99.065,346.123 98.255,345.844 97.449,345.556L97.102,344.532L93.718,342.975L96.925,341.004L97.306,337.591L100.219,339.797L103.749,338.798L102.571,342.768L104.571,345.769ZM85.131,273.303L79.354,270.4L80.178,272.648C80.193,272.692 80.209,272.736 80.222,272.78C81.181,275.96 79.411,279.432 76.27,280.531C74.342,281.206 72.35,280.866 70.84,279.792C71.014,281.638 70.315,283.537 68.77,284.872C67.596,285.888 66.126,286.394 64.662,286.394C62.977,286.394 61.301,285.725 60.085,284.426C60.052,284.392 60.022,284.357 59.993,284.321L57.193,280.956L57.193,288.369C57.193,291.684 54.444,294.418 50.997,294.418C47.547,294.418 44.798,291.684 44.798,288.369L44.798,280.956L41.998,284.321C41.969,284.357 41.939,284.392 41.906,284.426C39.633,286.853 35.746,287.057 33.221,284.874L33.221,284.872C31.676,283.537 30.977,281.638 31.152,279.792C30.457,280.285 29.66,280.624 28.814,280.779C39.992,307.142 60.547,328.582 86.29,340.908L91.19,337.739L92.396,325.651L101.189,333.062L108.66,330.739L105.749,320.828L76.779,308.771L84.691,302.624L82.543,295.744L74.367,291.949L81.926,286.273L82.749,277.684L87.308,281.333L85.131,273.303ZM117.923,310.182L108.954,306.066L117.395,300.861L118.423,291.83L126.187,297.713L135.451,295.037L132.392,305.535L137.657,313.475L127.187,312.975L121.099,319.533L117.923,310.182ZM158.478,319.476L151.155,307.801L156.126,310.066L158.478,319.476ZM156.891,305.007L159.832,303.212L160.184,300.067L162.889,302.125L166.096,301.183L165.036,304.83L166.861,307.595L163.243,307.419L161.125,309.711L160.007,306.448L156.891,305.007ZM169.832,294.508L163.95,296.566L155.684,289.92L154.539,300.772L148.686,303.77L158.714,273.038L151.862,274.421L157.803,267.421L179.124,269.362L177.948,279.302L160.979,290.508L169.832,294.508ZM223.767,299.771C222.62,300.476 221.444,301.212 220.268,301.948L218.827,299.713C219.267,299.448 219.709,299.183 220.151,298.889C221.356,299.183 222.561,299.477 223.767,299.771ZM91.073,297.625L88.014,301.654L94.543,297.832L91.073,297.625ZM242.819,284.798C241.97,285.009 241.147,285.182 240.35,285.319C237.941,285.73 235.978,285.866 234.461,285.735C232.915,285.603 231.439,285.226 230.033,284.607C228.624,283.986 227.593,283.399 226.932,282.858C226.284,282.328 225.572,281.645 224.795,280.809C222.715,278.568 221.895,275.996 222.324,273.096C222.562,271.489 223.086,269.909 223.9,268.355C223.789,268.386 223.679,268.416 223.571,268.444C221.346,269.039 219.537,269.295 218.146,269.229C217.487,269.198 216.904,269.131 216.395,269.031L210.092,286.304L214.679,293.332C214.886,293.39 215.092,293.448 215.297,293.478C215.003,293.008 214.709,292.537 214.444,292.068C213.827,291.067 214.15,289.772 215.209,289.213C216.208,288.655 217.503,289.009 218.12,289.979C219.121,291.624 220.12,293.244 221.091,294.862C222.326,295.154 223.533,295.448 224.738,295.744C223.798,294.214 222.885,292.712 221.975,291.213C221.356,290.183 221.681,288.89 222.737,288.331C223.738,287.802 225.032,288.125 225.65,289.124C227.268,291.772 228.915,294.449 230.531,297.123C231.737,297.39 232.973,297.682 234.178,297.978C232.591,295.39 231.002,292.802 229.414,290.214C228.325,288.419 230.296,286.304 232.178,287.303C234.692,288.656 237.18,290.008 239.692,291.362L239.958,290.875C239.99,290.633 241.33,287.887 242.819,284.798ZM202.504,293.509L195.447,293.184L191.358,297.567L189.212,291.301L183.182,288.507L188.858,285.008L189.565,278.948L194.77,282.891L201.006,281.098L198.946,288.154L202.504,293.509ZM92.631,293.39L89.278,293.213L87.308,295.331L86.279,292.331L83.396,291.007L86.132,289.332L86.455,286.419L88.926,288.302L91.926,287.449L90.927,290.83L92.631,293.39ZM95.661,275.126L103.66,275.774L102.836,292.331L98.924,294.566L95.807,289.772L98.543,281.596L89.338,283.271L95.661,275.126ZM98.806,255.804L106.454,245.776L120.717,247.071L112.218,252.716L135.51,262.245L139.303,278.155L128.657,280.979L104.542,260.512L103.66,269.596L100.984,266.009L104.69,255.07L98.806,255.804ZM247.357,274.266C246.88,274.356 246.384,274.416 245.87,274.443C243.107,274.592 240.525,274.13 238.122,273.062C235.956,272.099 234.131,270.947 232.644,269.609C232.086,270.104 231.578,270.628 231.121,271.182C230.171,272.334 229.565,273.467 229.322,274.593C229.109,275.58 229.329,276.433 229.993,277.148C230.541,277.738 231.235,278.275 232.071,278.76C232.933,279.261 234.082,279.716 235.515,280.133C236.945,280.549 238.734,280.646 240.883,280.442C242.286,280.308 243.754,280.027 245.287,279.599C246.267,277.477 246.951,275.869 246.825,275.733C247.006,275.246 247.183,274.757 247.357,274.266ZM33.617,275.518L35.978,260.906L44.798,256.088L45.284,265.759L33.617,275.518ZM68.374,275.516L56.423,266.816L57.193,256.088L66.785,261.932L68.374,275.516ZM212.761,266.865C212.675,266.777 212.588,266.686 212.5,266.591C211.221,265.213 210.631,263.678 210.708,261.994C210.782,260.374 211.262,258.844 212.151,257.404C212.989,256.047 213.877,254.744 214.814,253.494C215.7,252.313 216.359,251.196 216.786,250.141C217.11,249.34 217.129,248.704 216.702,248.242L203.303,255.233C203.298,255.235 203.293,255.238 203.287,255.241C202.654,255.55 202.145,255.436 201.745,255.005C201.745,255.005 197.816,250.773 197.816,250.773C197.566,250.503 197.469,250.17 197.57,249.761C197.641,249.472 197.79,249.236 198.02,249.054C197.284,248.909 196.693,248.714 196.243,248.476C195.522,248.094 194.751,247.47 193.937,246.594C192.804,245.373 192.266,243.817 192.351,241.916C192.412,240.526 192.808,239.222 193.541,238.007C193.104,238.078 192.686,238.133 192.288,238.172L189.181,246.452L193.977,254.57L184.8,253.892L181.418,258.158L196.505,270.363L212.761,266.865ZM95.955,263.598C95.955,263.598 93.726,264.232 93.726,264.232C94.485,265.959 94.443,268.037 93.413,269.845L96.72,269.979C96.72,269.979 94.896,267.246 94.896,267.246L95.955,263.598ZM249.135,264.807C249.188,264.863 249.231,264.915 249.239,264.975C249.176,265.389 248.917,265.76 248.501,266.115C247.97,266.569 247.202,266.979 246.204,267.36C246.201,267.361 246.198,267.363 246.196,267.364C243.026,268.625 239.788,268.438 236.479,266.827C238.889,265.455 241.333,264.544 243.813,264.099C245.179,263.854 246.326,263.795 247.255,263.938C248.07,264.063 248.703,264.341 249.135,264.807ZM137.882,117.835C137.807,118.596 137.777,119.398 137.791,120.24C137.823,122.149 138.353,124.292 139.366,126.672C140.335,128.949 141.712,131.187 143.494,133.389C146.887,131.722 149.957,130.379 152.703,129.358C155.598,128.282 158.44,127.499 161.228,127.007C164.087,126.503 166.679,126.582 169.004,127.232C171.36,127.89 173.384,129.129 175.074,130.95C176.075,132.027 176.891,133.309 177.519,134.798C178.153,136.301 178.399,138.045 178.24,140.031C178.08,142.032 177.319,143.864 175.951,145.521C174.571,147.193 172.716,148.484 170.38,149.382C168.085,150.265 165.561,150.693 162.806,150.66C160.064,150.628 157.09,149.936 153.887,148.573C150.843,147.277 147.928,145.438 145.144,143.053C144.564,143.378 144.12,143.635 143.813,143.826C143.806,143.831 143.798,143.836 143.79,143.84C139.941,146.028 137.089,147.627 135.235,148.635C133.371,149.648 130.851,150.854 127.675,152.25C124.841,153.497 122.281,154.393 119.996,154.942C122.894,160.104 125.542,163.984 127.949,166.576C130.143,168.94 132.066,170.198 133.787,170.24C135.405,170.28 136.672,169.772 137.572,168.682C137.694,168.534 137.874,168.446 138.067,168.44C138.25,168.435 138.428,168.506 138.557,168.635C138.567,168.642 138.616,168.68 138.655,168.706C138.813,168.811 139.022,169.045 139.222,169.453C139.29,169.591 139.347,169.735 139.392,169.885C139.798,169.6 140.227,169.314 140.679,169.025C142.978,167.555 148.066,164.754 155.942,160.624C155.948,160.621 155.954,160.618 155.959,160.615C156.57,160.317 157.1,160.418 157.551,160.903C157.551,160.903 161.479,165.136 161.479,165.136C161.73,165.405 161.827,165.739 161.726,166.148C161.646,166.473 161.466,166.732 161.183,166.922C161.163,166.936 161.142,166.948 161.12,166.96C152.876,171.267 147.56,174.157 145.172,175.63C142.861,177.055 141.271,178.276 140.416,179.312C140.062,179.741 139.867,180.061 140.121,180.335C140.254,180.478 140.515,180.527 140.87,180.572C141.669,180.673 142.842,180.601 144.391,180.371C146.6,180.043 149.227,179.372 152.27,178.361C152.299,178.34 152.328,178.32 152.358,178.3C154.562,176.759 158.915,174.269 165.419,170.835C165.425,170.832 165.431,170.829 165.438,170.826C166.049,170.527 166.578,170.628 167.029,171.114C167.029,171.114 170.909,175.293 170.909,175.293C171.159,175.563 171.256,175.897 171.155,176.305C171.075,176.631 170.895,176.889 170.612,177.08C170.592,177.093 170.571,177.106 170.55,177.117C163.389,180.87 158.699,183.489 156.484,184.979C154.317,186.438 152.506,188.044 151.056,189.801C150.732,190.194 150.507,190.581 150.395,190.966C150.368,191.06 150.349,191.145 150.342,191.223C150.338,191.266 150.345,191.331 150.347,191.35C151.05,192.097 152.368,192.463 154.264,192.561C156.255,192.664 158.47,192.426 160.909,191.852C161.356,190.853 161.904,189.963 162.551,189.179C165.024,186.182 167.823,183.911 170.944,182.361C172.558,181.559 173.916,181.123 175.01,181.03C176.284,180.923 177.243,181.265 177.911,181.984C178.561,182.684 178.845,183.591 178.722,184.717C178.611,185.726 178.067,186.863 177.042,188.104C173.945,191.856 169.901,194.589 164.903,196.294C164.646,197.152 164.768,197.881 165.32,198.475C165.629,198.809 166.126,198.956 166.785,198.988C167.572,199.026 168.559,198.884 169.747,198.576C171.248,197.349 172.965,196.31 174.9,195.461C178.109,194.053 181.351,193.479 184.625,193.735C187.977,193.997 190.635,195.205 192.611,197.333C194.11,198.948 194.889,200.563 194.991,202.156C195.095,203.77 194.512,205.38 193.2,206.97C192.06,208.351 190.593,209.154 188.796,209.378C186.914,209.612 185.53,209.187 184.617,208.203C184.118,207.666 183.908,207.151 183.907,206.697C183.905,206.332 184.027,205.985 184.292,205.664C184.393,205.542 184.533,205.46 184.689,205.432C187.412,204.947 189.234,203.995 190.095,202.471C190.097,202.467 190.1,202.463 190.102,202.46C190.397,201.961 190.377,201.51 190.006,201.111C189.227,200.271 187.774,200.045 185.685,200.263C183.388,200.502 180.926,201.294 178.295,202.629C175.671,203.96 173.568,205.577 171.992,207.487C171.035,208.646 170.404,209.838 170.108,211.068C169.851,212.139 170.014,213.023 170.651,213.71C171.189,214.289 171.871,214.778 172.694,215.183C173.561,215.61 174.699,215.994 176.108,216.342C177.508,216.687 179.267,216.712 181.385,216.437C181.882,216.372 182.389,216.29 182.903,216.192C183.604,215.693 184.26,215.544 184.856,215.674C188.082,214.751 193.297,212.893 200.5,210.102C202.887,209.169 204.916,209.615 206.59,211.419C207.42,212.312 207.858,213.427 207.89,214.769C207.923,216.132 207.615,217.156 207.035,217.859C206.921,217.998 206.755,218.084 206.575,218.099C205.438,218.192 204.259,218.854 203.008,220.032C201.659,221.302 200.443,222.757 199.362,224.396C198.242,226.092 196.993,227.833 195.614,229.617C194.635,230.884 193.69,232.004 192.779,232.979C195.528,232.834 198.941,231.999 203.021,230.493C205.782,228.932 209.733,226.804 214.875,224.108C214.88,224.105 214.886,224.102 214.892,224.099C215.503,223.801 216.032,223.902 216.483,224.387C216.483,224.387 220.412,228.62 220.412,228.62C220.662,228.889 220.759,229.223 220.659,229.632C220.578,229.957 220.398,230.216 220.116,230.406C220.095,230.42 220.074,230.433 220.052,230.444C211.809,234.751 206.492,237.641 204.104,239.114C201.794,240.539 200.203,241.76 199.348,242.797C198.995,243.225 198.799,243.545 199.053,243.819C199.187,243.962 199.447,244.011 199.803,244.056C200.602,244.157 201.775,244.085 203.323,243.855C205.939,243.467 209.139,242.598 212.924,241.253L241.853,226.155C241.858,226.153 241.863,226.15 241.869,226.147C242.48,225.849 243.009,225.95 243.46,226.436C243.46,226.436 247.34,230.615 247.34,230.615C247.587,230.881 247.679,231.19 247.624,231.539C247.575,231.852 247.411,232.126 247.097,232.337C247.076,232.351 247.055,232.363 247.034,232.374C247.034,232.374 229.34,241.636 229.341,241.636C232.051,242.036 234.216,243.125 235.845,244.879C237.084,246.215 237.693,247.68 237.695,249.263C237.697,250.84 237.172,252.274 236.11,253.56C234.715,255.25 232.735,256.142 230.154,256.198C227.906,256.247 225.469,255.391 222.859,253.591C222.626,254.385 222.248,255.255 221.718,256.199C220.98,257.513 220.275,258.635 219.602,259.564C218.986,260.416 218.534,261.275 218.25,262.143C218.037,262.797 218.067,263.328 218.435,263.724C218.807,264.124 219.536,264.223 220.586,264.179C222.495,264.097 225.319,263.406 229.06,262.123C230.516,260.961 232.172,259.972 234.029,259.157C237.238,257.749 240.48,257.175 243.754,257.431C246.859,257.674 249.368,258.728 251.291,260.573C253.114,252.366 254.074,243.837 254.074,235.085C254.074,170.726 202.11,118.408 137.882,117.835ZM169.743,249.334L176.007,252.188L179.241,263.569L169.743,249.334ZM137.657,250.424L144.568,246.216L145.391,238.864L151.685,243.658L159.242,241.481L156.745,250.011L161.037,256.48L152.508,256.069L147.568,261.394L144.979,253.804L137.657,250.424ZM93.065,254.373C92.686,254.936 92.218,255.437 91.68,255.854L93.838,257.628C93.838,257.628 93.065,254.373 93.065,254.373ZM19.892,243.913L30.396,239.854L39.892,245.33L30.696,251.158L20.154,246.913C20.055,245.921 19.967,244.919 19.892,243.913ZM177.771,247.63L179.977,246.275L180.242,243.924L182.271,245.453L184.683,244.775L183.889,247.511L185.242,249.569L182.534,249.452L180.947,251.158L180.094,248.718L177.771,247.63ZM85.767,245.33L71.954,250.362L62.099,245.33L72.204,240.111L85.767,245.33ZM230.895,247.227C231.056,247.4 231.156,247.569 231.154,247.755C231.152,247.965 231.035,248.171 230.85,248.396C230.558,248.75 230.1,248.98 229.496,249.124C228.779,249.296 227.876,249.337 226.789,249.26C224.595,249.104 222.521,248.277 220.562,246.789C220.559,246.787 220.21,246.411 220.21,246.411C220.21,246.411 220.484,246.268 220.484,246.268C223.796,245.701 226.4,245.595 228.296,245.974C229.449,246.205 230.322,246.609 230.895,247.227ZM190.002,238.216C187.497,238.062 185.273,237.238 183.331,235.751C182.327,235.169 181.294,234.314 180.239,233.177C178.891,231.724 178.147,229.941 178.018,227.823C177.892,225.766 178.193,223.845 178.916,222.061C178.985,221.892 179.055,221.725 179.127,221.56C177.538,221.775 176.196,221.846 175.102,221.776C173.586,221.68 172.151,221.349 170.794,220.785C169.43,220.216 168.428,219.663 167.78,219.138C167.149,218.625 166.444,217.951 165.666,217.113C163.586,214.872 162.766,212.3 163.195,209.4C163.49,207.413 164.221,205.466 165.397,203.562C163.833,203.43 162.59,202.849 161.66,201.846C160.596,200.7 159.984,199.28 159.84,197.578C157.439,197.97 155.189,198.04 153.089,197.794L150.596,205.25L155.861,214.22L145.892,213.72L140.422,219.337L153.743,230.337L177.446,224.453L168.771,246.775L175.154,243.424L175.802,234.426L183.007,240.159L190.002,238.216ZM90.909,245.299L90.892,245.226C90.821,245.263 90.748,245.297 90.675,245.33C90.767,245.374 90.859,245.418 90.949,245.466L90.909,245.299ZM136.951,215.603L134.158,214.25L133.128,238.953L124.099,244.982L114.747,230.777L121.159,213.484L107.513,216.397L113.805,208.336L131.216,209.631L135.804,211.22L136.951,215.603ZM108.423,237.6L102.159,237.308L98.513,241.218L96.601,235.629L91.221,233.158L96.278,230.041L96.897,224.63L101.543,228.16L107.101,226.542L105.276,232.835L108.423,237.6ZM33.617,215.144L45.803,224.221L44.798,234.574L35.216,230.049L33.617,215.144ZM68.374,215.144L65.894,229.603L57.193,234.572L57.247,224.607L68.374,215.144ZM222.212,220.32C221.14,221.266 220.615,222.335 220.595,223.506C220.573,224.728 221.066,225.714 222.082,226.46C223.037,227.162 224.219,227.45 225.634,227.29C227.002,227.136 228.193,226.611 229.208,225.715C230.28,224.769 230.805,223.7 230.825,222.529C230.847,221.307 230.354,220.321 229.338,219.575C228.382,218.873 227.201,218.585 225.786,218.745C224.418,218.899 223.227,219.424 222.212,220.32ZM183.96,226.586C183.238,225.808 183.083,224.829 183.443,223.658C183.837,222.375 184.577,221.199 185.654,220.125C188.026,219.458 191.099,218.485 194.874,217.204C194.643,217.508 194.403,217.828 194.154,218.165C193.354,219.247 192.651,220.192 192.046,220.999C191.445,221.803 190.79,222.651 190.084,223.544C189.402,224.407 188.775,225.097 188.203,225.61C187.639,226.116 187.061,226.551 186.47,226.912C185.997,227.202 185.554,227.338 185.132,227.282C184.713,227.227 184.329,226.983 183.96,226.586L183.96,226.586ZM81.367,214.368L80.453,215.505C80.529,216.287 80.46,217.092 80.222,217.88C80.209,217.926 80.195,217.97 80.178,218.015L78.666,222.142L85.066,218.437C86.073,217.855 87.185,217.602 88.282,217.649L88.425,215.19L81.367,214.368ZM64.079,143.141L70.546,145.608L72.309,151.812L72.104,167.459L61.28,174.605L73.22,179.604L77.192,191.927L84.455,182.341L94.748,183.163L94.574,185.811L78.604,196.25L83.984,199.367L80.191,200.339L72.897,194.369L71.956,203.573L68.783,205.8L68.77,205.788C66.245,203.605 62.358,203.809 60.085,206.234C60.052,206.269 60.022,206.305 59.993,206.34L57.193,209.706L57.193,202.293C57.193,198.979 54.444,196.242 50.997,196.242C47.547,196.242 44.798,198.979 44.798,202.293L44.798,209.706L41.998,206.34C41.969,206.305 41.939,206.269 41.906,206.234C39.633,203.809 35.746,203.605 33.221,205.788C31.676,207.124 30.977,209.024 31.152,210.871C29.641,209.796 27.649,209.456 25.722,210.131C22.578,211.23 20.81,214.7 21.769,217.88C21.783,217.926 21.796,217.97 21.813,218.015L23.325,222.142L20.466,220.486C24.353,189.233 40.563,161.778 64.079,143.141ZM85.514,207.014L88.102,200.839L96.601,204.074L99.043,213.808L89.278,205.925L89.132,206.044L88.308,210.955L85.514,207.014ZM82.514,210.544L80.985,208.221L81.867,205.193L79.19,205.955L76.956,204.28L76.662,206.868L74.192,208.398L76.81,209.574L77.123,210.504C77.62,210.767 78.073,211.095 78.475,211.475L79.486,210.398L82.514,210.544ZM146.862,208.692L143.215,208.544L141.127,210.807L140.01,207.573L136.892,206.132L139.834,204.309L140.185,201.192L142.862,203.219L146.098,202.31L145.039,205.955L146.862,208.692ZM147.577,196.13C146.869,195.718 146.263,195.238 145.759,194.696C144.382,193.212 143.776,191.459 143.939,189.436C144.06,187.942 144.519,186.548 145.319,185.256C143.409,185.718 141.833,185.888 140.596,185.778C139.127,185.647 138.034,185.375 137.311,184.992C136.59,184.61 135.818,183.986 135.004,183.11C133.871,181.889 133.334,180.333 133.418,178.432L133.456,177.918C132.906,178.229 132.329,178.502 131.727,178.738C130.416,179.251 129.064,179.361 127.669,179.066C127.47,179.025 127.275,178.973 127.081,178.912L122.306,192.398L129.863,203.515L134.01,201.427L135.422,189.809L143.481,197.28L147.577,196.13ZM103.629,192.104L104.248,186.693L108.894,190.222L114.453,188.605L112.601,194.897L115.777,199.663L109.482,199.367L105.835,203.281L103.923,197.691L98.543,195.22L103.629,192.104ZM77.897,171.429L78.337,167.43L81.778,170.016L85.896,168.84L84.543,173.488L86.866,177.018L82.22,176.782L79.544,179.693L78.132,175.546L74.133,173.723L77.897,171.429ZM110.177,155.434L109.747,157.196L114.276,164.488L105.19,163.989L99.925,169.899L109.924,179.399L123.133,175.971C121.687,174.289 120.284,172.274 118.925,169.924C117.357,167.211 116.144,164.88 115.286,162.932C114.469,161.078 113.468,158.671 112.283,155.711C111.564,155.658 110.862,155.565 110.177,155.434ZM94.514,161.341L96.985,162.165L98.159,168.871L95.955,167.105L95.131,178.694L90.337,172.399L94.514,161.341ZM163.28,156.836C162.208,157.782 161.683,158.851 161.662,160.022C161.641,161.244 162.134,162.23 163.15,162.976C164.105,163.677 165.286,163.965 166.702,163.806C168.07,163.652 169.26,163.127 170.275,162.231C171.347,161.285 171.872,160.216 171.893,159.044C171.914,157.823 171.421,156.837 170.405,156.091C169.45,155.389 168.269,155.101 166.853,155.261C165.485,155.414 164.295,155.94 163.28,156.836ZM83.074,163.666L76.485,157.665L83.337,148.607L95.69,149.489L95.338,154.195L88.573,158.167L92.865,160.636L83.074,163.666ZM106.1,159.665L103.07,159.548L101.308,161.429L100.396,158.724L97.779,157.519L100.248,156.018L100.544,153.43L102.778,155.108L105.455,154.343L104.571,157.371L106.1,159.665ZM104.161,145.94C103.713,145.457 103.451,144.989 103.421,144.512C103.392,144.056 103.585,143.612 103.956,143.163C104.225,142.837 104.554,142.686 104.949,142.727C105.445,142.779 105.933,143.116 106.452,143.675C107.255,144.54 108.152,146.062 109.159,148.231C107.103,148.067 105.434,147.311 104.161,145.94L104.161,145.94ZM130.214,118.013C117.47,118.722 105.265,121.47 93.918,125.938L90.279,137.638L96.043,146.373L96.424,144.019L98.663,146.137C98.565,145.657 98.513,145.163 98.507,144.658C98.484,142.639 99.062,140.929 100.223,139.521C101.52,137.95 103.126,137.117 105.032,137.011C106.916,136.906 108.834,137.832 110.738,139.883C112.199,141.457 113.856,143.873 115.7,147.135C116.301,146.935 116.943,146.707 117.627,146.451C118.517,146.119 119.305,145.817 119.99,145.546C120.668,145.278 121.585,144.867 122.742,144.315C123.913,143.756 124.783,143.337 125.352,143.059C125.917,142.783 126.921,142.255 128.362,141.474C129.821,140.685 130.768,140.177 131.201,139.953C131.632,139.729 132.71,139.152 134.435,138.22C136.156,137.29 137.191,136.727 137.538,136.532C137.887,136.332 138.229,136.138 138.566,135.952C134.515,130.774 131.937,125.93 130.814,121.43C130.511,120.214 130.311,119.075 130.214,118.013ZM75.665,135.043C76.512,134.523 77.364,134.016 78.223,133.519L79.749,134.667L84.19,133.374L82.72,138.431L85.251,142.255L80.22,142.02L77.309,145.137L75.78,140.668L71.456,138.668L75.543,136.168L75.665,135.043ZM171.791,135.213C172.171,135.623 172.319,136.108 172.238,136.669C172.145,137.313 171.91,137.87 171.525,138.335C170.623,139.429 169.403,140.351 167.872,141.111C166.305,141.888 164.557,142.431 162.63,142.742C160.713,143.051 158.607,142.918 156.313,142.354C154.33,141.866 152.418,141.065 150.577,139.953C152.472,138.892 154.105,138.01 155.478,137.307C157.068,136.492 158.8,135.71 160.673,134.959C162.511,134.223 164.083,133.75 165.392,133.546C166.653,133.35 167.866,133.385 169.032,133.654C170.141,133.911 171.062,134.428 171.791,135.213ZM153.862,80.436L179.889,104.287L180.419,105.288L180.29,105.606L180.195,106.039L180.189,106.092C174.413,104.148 168.461,102.581 162.366,101.421L161.821,100.432L161.261,99.409L160.126,97.318C160.038,97.141 159.95,96.995 159.89,96.847C157.125,91.759 155.303,86.083 153.862,80.436ZM126.011,79.759C123.982,85.819 121.482,91.818 117.923,97.024L117.894,97.024C117.835,97.141 117.775,97.229 117.687,97.318C117.658,97.406 117.57,97.523 117.452,97.671L117.042,98.249L116.246,99.381L115.61,100.266L115.274,100.721C108.993,101.722 102.856,103.153 96.893,104.984L96.631,104.2L98.278,101.641L126.011,79.759ZM140.465,49.848L140.627,49.852C142.334,49.909 143.98,50.645 145.127,51.938C146.303,53.174 146.951,54.849 146.862,56.556C146.803,58.291 146.038,59.908 144.803,61.086C143.509,62.26 141.863,62.879 140.128,62.819C138.421,62.762 136.775,62.026 135.628,60.733C134.452,59.497 133.804,57.82 133.864,56.115C133.952,54.35 134.717,52.763 135.95,51.587C137.096,50.519 138.581,49.913 140.141,49.852L140.465,49.848ZM212.533,14.49L212.739,14.493C220.061,14.64 222.354,22.1 218.297,30.998C205.399,42.147 189.145,48.573 172.115,49.219L171.713,49.233C178.065,33.087 191.329,20.618 207.857,15.296C209.586,14.744 211.148,14.488 212.533,14.49ZM70.673,9.257C72.254,9.253 74.061,9.626 76.074,10.442C92.16,16.971 104.454,30.352 109.63,46.91C92.543,45.117 76.633,37.47 64.545,25.293C61.224,16.382 63.823,9.274 70.673,9.257Z" style="fill:none;stroke:rgb(255,0,0);stroke-width:1px;"/>
</svg>
