<?xml version="1.0" encoding="UTF-8" standalone="no"?>
<!DOCTYPE svg PUBLIC "-//W3C//DTD SVG 1.1//EN" "http://www.w3.org/Graphics/SVG/1.1/DTD/svg11.dtd">
<svg width="100%" height="100%" viewBox="0 0 1123 794" version="1.1" xmlns="http://www.w3.org/2000/svg" xmlns:xlink="http://www.w3.org/1999/xlink" xml:space="preserve" xmlns:serif="http://www.serif.com/" style="fill-rule:evenodd;clip-rule:evenodd;stroke-linejoin:round;stroke-miterlimit:2;">
    <path d="M144.768,40.265C146.525,40.302 148.11,40.912 149.422,41.91C150.863,43.057 151.891,44.704 152.273,46.587C152.802,46.587 182.859,16.178 188.975,12.177C194.836,8.337 202.831,5.966 211.003,5.93C211.404,5.929 211.807,5.932 212.21,5.942C221.975,6.413 230.502,10.413 234.032,19.412C239.942,32.998 232.913,47.381 232.854,60.821C232.825,76.702 247.707,93.348 235.179,108.435C229.972,113.729 222.856,118.846 215.857,121.903L215.797,121.903L214.909,122.185L213.44,122.66C235.271,137.575 252.544,158.68 262.718,183.428L263.146,184.482L263.635,185.717L264.183,187.147L264.715,188.58L264.956,189.247L265.465,190.694L265.958,192.147L266.475,193.735L266.941,195.223L267.39,196.719L267.822,198.222L268.318,200.033L268.765,201.757L269.14,203.283L269.499,204.816L269.84,206.356L270.097,207.582L270.267,208.418L270.567,209.973L270.849,211.533L271.113,213.1L271.309,214.338L271.419,215.073L271.66,216.779L271.864,218.366L272.05,219.958L272.182,221.204L272.257,221.958L272.366,223.158L272.397,223.517L272.519,225.075L272.624,226.63L272.71,228.177L272.746,228.945L272.807,230.524L272.85,232.102C272.861,232.627 272.87,233.152 272.875,233.676L272.882,235.204L272.88,235.812C272.877,236.27 272.873,236.727 272.866,237.183L272.845,238.277C272.836,238.637 272.827,238.997 272.816,239.357L272.77,240.666L272.707,242.056L272.66,242.916C272.616,243.693 272.566,244.469 272.509,245.242L272.378,246.891L272.235,248.448L272.115,249.632L271.964,250.996L271.773,252.558L271.607,253.813L271.429,255.064L271.176,256.717L270.983,257.897L270.743,259.275L270.405,261.091L270.108,262.584L269.863,263.752L269.428,265.714L269.074,267.212L268.795,268.344L268.42,269.801L268.042,271.21L267.725,272.344L267.361,273.601L266.892,275.16L266.363,276.838L265.822,278.487L265.452,279.56L265.025,280.738L264.863,281.178C264.752,281.514 264.639,281.848 264.5,282.186C263.205,285.714 261.764,289.155 260.177,292.537C259.764,293.448 259.353,294.331 258.911,295.213C258.206,296.654 257.441,298.096 256.707,299.508C256.647,299.565 256.619,299.654 256.588,299.713C255.177,302.329 253.677,304.919 252.09,307.419L251.385,308.513L250.98,309.103L250.316,310.136L249.767,310.943L249.354,311.546L249.354,311.565C249.088,312.005 248.794,312.416 248.472,312.829C247.32,314.5 246.13,316.138 244.904,317.745L244.816,317.86C243.221,319.948 241.565,321.984 239.854,323.976L239.073,324.871L238.079,325.991L237.478,326.655L236.874,327.314L236.265,327.97L235.652,328.622L235.034,329.27L234.413,329.913L233.787,330.553L233.157,331.188L232.523,331.819L231.885,332.446L231.243,333.069L230.597,333.688L229.946,334.303L229.292,334.913L228.634,335.519L227.305,336.718L225.961,337.9L224.601,339.064L223.226,340.21L221.835,341.339L220.43,342.45L219.251,343.358L218.294,344.082L217.12,344.95L216.125,345.672L214.957,346.501L213.924,347.22L212.763,348.011L211.691,348.725L210.538,349.478L209.428,350.187L208.283,350.903L207.134,351.605L205.999,352.284L204.81,352.979L203.686,353.621L202.128,354.488L200.557,355.336L199.718,355.777L198.921,356.19L198.122,356.597L197.319,356.999L196.514,357.396L195.706,357.788L194.894,358.175L194.08,358.556L193.263,358.932L192.443,359.303L191.621,359.668L190.795,360.029L189.967,360.383L189.136,360.733L188.303,361.077L187.466,361.416L186.627,361.749L185.472,362.197L184.208,362.674L183.508,362.932C175.658,365.798 167.471,367.962 159.021,369.348L157.605,369.572L156.197,369.781L154.318,370.035L152.436,370.263L150.549,370.465L148.516,370.653L146.646,370.8L144.654,370.927L142.787,371.02L140.923,371.087L139.53,371.121L138.144,371.142L136.819,371.148L135.472,371.141L135.01,371.136L133.308,371.103L132.116,371.068L131.571,371.048C131.011,371.027 130.452,371.002 129.893,370.974L128.91,370.921L128.07,370.87L126.787,370.783L125.344,370.67L124.595,370.605L123.757,370.528L122.78,370.431L121.461,370.29L119.917,370.108L119.147,370.01L118.622,369.94C61.059,362.253 14.891,318.582 3.474,262.277L3.239,261.09L2.955,259.579L2.689,258.062L2.439,256.54L2.206,255.012L1.989,253.478L1.79,251.939L1.609,250.395L1.444,248.846L1.295,247.267L1.199,246.139L1.071,244.412L1.03,243.782L0.93,242.013L0.887,241.098L0.867,240.61L0.814,239.101L0.782,237.765L0.762,236.427L0.756,235.069L0.761,233.92L0.78,232.504L0.814,231.055L0.874,229.343L0.941,227.924L1.04,226.215L1.16,224.51L1.339,222.399L1.503,220.733L1.754,218.52L1.965,216.867L2.116,215.769L2.36,214.126L2.623,212.491L2.832,211.276L3.004,210.32L3.25,209.022L3.391,208.305L3.7,206.805L3.847,206.115L4.228,204.413L4.525,203.156L4.699,202.441L5.07,200.971L5.248,200.286L5.705,198.602L6.047,197.393L6.255,196.679L6.685,195.245L7.142,193.78L7.652,192.213L8.179,190.657L8.724,189.112L9.286,187.576L9.865,186.051L10.462,184.535L11.076,183.028L11.589,181.809L12.228,180.334L12.884,178.867L13.557,177.41L14.247,175.963L14.953,174.524L15.675,173.096L16.414,171.677L17.169,170.268L17.681,169.334L18.2,168.404L18.727,167.479L19.26,166.559L19.8,165.643L20.347,164.732L20.901,163.825L21.462,162.923L21.995,162.081C24.011,158.918 26.155,155.843 28.418,152.865L29.105,151.969L30.119,150.673L31.137,149.404L32.163,148.156L33.2,146.924L34.249,145.708L35.309,144.506L36.64,143.037L37.833,141.756L39.206,140.322L40.549,138.958L41.845,137.678L43.198,136.376L44.743,134.932L46.31,133.513L47.5,132.464L48.702,131.429L49.916,130.407L51.142,129.4L52.38,128.406L53.63,127.427L54.892,126.462L56.165,125.511L57.449,124.575L58.745,123.654L60.052,122.747L61.369,121.855L62.698,120.978L64.037,120.117L64.936,119.551L65.84,118.992C65.398,118.817 65.044,118.669 64.75,118.492L64.722,118.492C55.281,115.374 48.341,108.758 41.958,101.287C30.577,85.318 46.666,69.791 47.751,53.967C48.723,40.557 42.782,25.706 49.694,12.56C53.84,3.853 62.664,0.531 72.427,0.768C81.014,1.208 89.338,4.267 95.161,8.707C107.57,18.236 119.159,31.999 128.776,45.146C128.776,44.116 130.394,42.292 132.157,41.293C133.276,40.617 134.598,40.263 136.01,40.263L144.597,40.263L144.768,40.265ZM233.106,301.981L233,302.134C230.483,303.681 227.993,305.253 225.474,306.802C223.721,307.892 224.466,310.555 226.475,310.623C225.699,311.543 224.907,312.453 224.102,313.349L223.767,313.36C222.62,313.389 221.681,314.328 221.65,315.475C221.645,315.641 221.659,315.803 221.69,315.957C200.328,338.368 170.192,352.34 136.819,352.34C129.603,352.34 122.539,351.687 115.679,350.436L134.186,327.506L164.772,329.681L159.508,320.888L165.184,312.093L175.802,312.975L170.243,303.566L173.565,295.625L181.093,299.3L186.535,320.035L200.475,303.418L218.297,304.448C218.326,304.8 218.445,305.153 218.65,305.447C219.327,306.417 220.62,306.683 221.621,306.066C224.267,304.448 226.915,302.799 229.591,301.155C230.762,301.438 231.935,301.697 233.106,301.981ZM107.895,341.033L113.364,348.678L110.159,337.003L107.895,341.033ZM104.571,345.769L100.63,345.592L99.878,346.393C99.065,346.123 98.255,345.844 97.449,345.556L97.102,344.532L93.718,342.975L96.925,341.004L97.306,337.591L100.219,339.797L103.749,338.798L102.571,342.768L104.571,345.769ZM85.131,273.303L79.354,270.4L80.178,272.648C80.193,272.692 80.209,272.736 80.222,272.78C81.181,275.96 79.411,279.432 76.27,280.531C74.342,281.206 72.35,280.866 70.84,279.792C71.014,281.638 70.315,283.537 68.77,284.872C67.596,285.888 66.126,286.394 64.662,286.394C62.977,286.394 61.301,285.725 60.085,284.426C60.052,284.392 60.022,284.357 59.993,284.321L57.193,280.956L57.193,288.369C57.193,291.684 54.444,294.418 50.997,294.418C47.547,294.418 44.798,291.684 44.798,288.369L44.798,280.956L41.998,284.321C41.969,284.357 41.939,284.392 41.906,284.426C39.633,286.853 35.746,287.057 33.221,284.874L33.221,284.872C31.676,283.537 30.977,281.638 31.152,279.792C30.457,280.285 29.66,280.624 28.814,280.779C39.992,307.142 60.547,328.582 86.29,340.908L91.19,337.739L92.396,325.651L101.189,333.062L108.66,330.739L105.749,320.828L76.779,308.771L84.691,302.624L82.543,295.744L74.367,291.949L81.926,286.273L82.749,277.684L87.308,281.333L85.131,273.303ZM117.923,310.182L108.954,306.066L117.395,300.861L118.423,291.83L126.187,297.713L135.451,295.037L132.392,305.535L137.657,313.475L127.187,312.975L121.099,319.533L117.923,310.182ZM158.478,319.476L151.155,307.801L156.126,310.066L158.478,319.476ZM156.891,305.007L159.832,303.212L160.184,300.067L162.889,302.125L166.096,301.183L165.036,304.83L166.861,307.595L163.243,307.419L161.125,309.711L160.007,306.448L156.891,305.007ZM169.832,294.508L163.95,296.566L155.684,289.92L154.539,300.772L148.686,303.77L158.714,273.038L151.862,274.421L157.803,267.421L179.124,269.362L177.948,279.302L160.979,290.508L169.832,294.508ZM223.767,299.771C222.62,300.476 221.444,301.212 220.268,301.948L218.827,299.713C219.267,299.448 219.709,299.183 220.151,298.889C221.356,299.183 222.561,299.477 223.767,299.771ZM91.073,297.625L88.014,301.654L94.543,297.832L91.073,297.625ZM243.555,283.267C241.044,284.148 238.709,284.771 236.552,285.136C234.016,285.567 231.949,285.709 230.353,285.572C228.726,285.434 227.173,285.041 225.696,284.394C224.213,283.746 223.128,283.133 222.433,282.567C221.751,282.013 221.001,281.299 220.183,280.424C217.996,278.084 217.134,275.398 217.585,272.37C217.839,270.667 218.402,268.994 219.278,267.349C219.134,267.389 218.993,267.427 218.854,267.464C218.124,267.657 217.437,267.817 216.793,267.942L210.092,286.304L214.679,293.332C214.886,293.39 215.092,293.448 215.297,293.478C215.003,293.008 214.709,292.537 214.444,292.068C213.827,291.067 214.15,289.772 215.209,289.213C216.208,288.655 217.503,289.009 218.12,289.979C219.121,291.624 220.12,293.244 221.091,294.862C222.326,295.154 223.533,295.448 224.738,295.744C223.798,294.214 222.885,292.712 221.975,291.213C221.356,290.183 221.681,288.89 222.737,288.331C223.738,287.802 225.032,288.125 225.65,289.124C227.268,291.772 228.915,294.449 230.531,297.123C231.737,297.39 232.973,297.682 234.178,297.978C232.591,295.39 231.002,292.802 229.414,290.214C228.325,288.419 230.296,286.304 232.178,287.303C234.692,288.656 237.18,290.008 239.692,291.362L239.958,290.875C239.995,290.594 241.802,286.923 243.555,283.267ZM202.504,293.509L195.447,293.184L191.358,297.567L189.212,291.301L183.182,288.507L188.858,285.008L189.565,278.948L194.77,282.891L201.006,281.098L198.946,288.154L202.504,293.509ZM92.631,293.39L89.278,293.213L87.308,295.331L86.279,292.331L83.396,291.007L86.132,289.332L86.455,286.419L88.926,288.302L91.926,287.449L90.927,290.83L92.631,293.39ZM95.661,275.126L103.66,275.774L102.836,292.331L98.924,294.566L95.807,289.772L98.543,281.596L89.338,283.271L95.661,275.126ZM98.806,255.804L106.454,245.776L120.717,247.071L112.218,252.716L135.51,262.245L139.303,278.155L128.657,280.979L104.542,260.512L103.66,269.596L100.984,266.009L104.69,255.07L98.806,255.804ZM248.285,271.545C246.678,272.885 244.71,273.621 242.379,273.745C239.472,273.901 236.754,273.418 234.226,272.302C231.933,271.29 230.003,270.077 228.433,268.668C227.833,269.195 227.287,269.753 226.797,270.343C225.791,271.553 225.151,272.745 224.894,273.928C224.667,274.972 224.902,275.873 225.608,276.629C226.189,277.25 226.923,277.814 227.809,278.325C228.719,278.85 229.934,279.328 231.449,279.766C232.961,280.203 234.853,280.305 237.125,280.091C239.438,279.872 241.919,279.276 244.565,278.308C244.954,278.13 245.249,278.214 245.438,278.34C245.541,278.408 245.645,278.511 245.716,278.661C246.458,277.018 246.932,275.848 246.825,275.733C247.338,274.349 247.825,272.953 248.285,271.545ZM33.617,275.518L35.978,260.906L44.798,256.088L45.284,265.759L33.617,275.518ZM68.374,275.516L56.423,266.816L57.193,256.088L66.785,261.932L68.374,275.516ZM189.316,246.091L189.181,246.452L193.977,254.57L184.8,253.892L181.418,258.158L196.505,270.363L209.656,267.534C208.909,267.134 208.093,266.471 207.217,265.533C205.873,264.096 205.253,262.495 205.334,260.74C205.412,259.048 205.917,257.449 206.852,255.946C207.735,254.526 208.671,253.161 209.659,251.853C210.596,250.613 211.292,249.442 211.743,248.334C212.09,247.481 212.105,246.804 211.646,246.313C211.646,246.313 211.628,246.294 211.628,246.294L197.47,253.629C197.465,253.632 197.46,253.635 197.455,253.637C196.806,253.952 196.284,253.837 195.874,253.399C195.874,253.399 191.731,248.966 191.731,248.966C191.473,248.691 191.374,248.35 191.478,247.932C191.556,247.615 191.728,247.36 191.996,247.168C191.192,247.016 190.547,246.809 190.062,246.553C189.819,246.425 189.57,246.271 189.316,246.091ZM95.955,263.598C95.955,263.598 93.726,264.232 93.726,264.232C94.485,265.959 94.443,268.037 93.413,269.845L96.72,269.979C96.72,269.979 94.896,267.246 94.896,267.246L95.955,263.598ZM245.853,263.664C245.914,263.73 245.963,263.792 245.971,263.862C245.904,264.303 245.627,264.698 245.181,265.077C244.618,265.555 243.805,265.987 242.748,266.388C242.745,266.389 242.742,266.39 242.739,266.391C239.369,267.723 235.926,267.519 232.407,265.802C234.969,264.346 237.568,263.382 240.205,262.912C241.65,262.654 242.864,262.593 243.848,262.743C244.718,262.876 245.392,263.171 245.853,263.664ZM169.743,249.334L176.007,252.188L179.241,263.569L169.743,249.334ZM168.012,122.031C168.306,122.298 168.591,122.58 168.868,122.876C169.921,124.002 170.779,125.342 171.44,126.897C172.108,128.468 172.366,130.29 172.198,132.365C172.03,134.456 171.231,136.368 169.792,138.099C168.34,139.846 166.389,141.194 163.931,142.133C161.515,143.055 158.858,143.502 155.959,143.468C153.071,143.435 149.94,142.711 146.568,141.285C143.353,139.926 140.275,137.996 137.336,135.493C136.712,135.839 136.235,136.114 135.907,136.317C135.899,136.322 135.892,136.326 135.884,136.33C131.824,138.622 128.817,140.296 126.862,141.352C124.897,142.413 122.24,143.675 118.891,145.137C115.887,146.449 113.176,147.39 110.758,147.964L110.84,148.109L112.042,147.785L111.628,149.481C114.355,154.156 116.867,157.727 119.169,160.19C121.492,162.675 123.53,163.995 125.352,164.039C127.073,164.081 128.419,163.544 129.375,162.394C129.497,162.247 129.677,162.159 129.868,162.154C130.052,162.148 130.229,162.219 130.358,162.348C130.367,162.355 130.421,162.395 130.466,162.425C130.629,162.533 130.845,162.775 131.053,163.195C131.111,163.313 131.161,163.434 131.203,163.56L131.465,163.392C133.89,161.853 139.254,158.919 147.559,154.595C147.565,154.592 147.571,154.589 147.576,154.586C148.203,154.282 148.746,154.385 149.209,154.88L149.678,155.382C149.676,155.323 149.676,155.264 149.677,155.204C149.699,153.985 150.25,152.872 151.373,151.888C152.437,150.956 153.686,150.408 155.12,150.248C156.602,150.082 157.839,150.381 158.838,151.11C159.901,151.885 160.416,152.91 160.394,154.179C160.373,155.398 159.822,156.51 158.699,157.495C157.635,158.427 156.386,158.975 154.951,159.135C154.301,159.208 153.698,159.191 153.142,159.088L153.352,159.313C153.609,159.588 153.708,159.929 153.605,160.346C153.522,160.68 153.337,160.944 153.046,161.139C153.025,161.153 153.004,161.165 152.982,161.176C144.287,165.689 138.68,168.715 136.161,170.258C133.72,171.754 132.04,173.036 131.137,174.123C130.751,174.586 130.55,174.935 130.827,175.231C130.972,175.386 131.253,175.443 131.64,175.491C132.485,175.598 133.726,175.522 135.364,175.281C137.698,174.937 140.471,174.233 143.686,173.172C143.718,173.15 143.751,173.127 143.783,173.105C146.107,171.492 150.696,168.885 157.554,165.289C157.56,165.286 157.566,165.283 157.572,165.28C158.199,164.976 158.742,165.079 159.205,165.574C159.205,165.574 163.296,169.951 163.296,169.951C163.554,170.227 163.653,170.568 163.549,170.985C163.467,171.318 163.281,171.583 162.99,171.777C162.97,171.791 162.949,171.803 162.927,171.814C155.373,175.746 150.427,178.49 148.09,180.051C145.801,181.581 143.89,183.265 142.358,185.108C142.013,185.524 141.775,185.932 141.655,186.339C141.618,186.465 141.596,186.576 141.595,186.675C141.595,186.707 141.582,186.737 141.6,186.756C142.344,187.553 143.746,187.945 145.768,188.049C147.876,188.157 150.222,187.906 152.806,187.301C153.278,186.252 153.856,185.316 154.54,184.494C157.145,181.359 160.093,178.983 163.38,177.361C165.077,176.524 166.504,176.068 167.654,175.972C168.983,175.861 169.984,176.214 170.681,176.959C171.361,177.687 171.657,178.629 171.528,179.799C171.412,180.851 170.84,182.036 169.763,183.331C166.498,187.26 162.232,190.12 156.961,191.904C156.68,192.82 156.81,193.598 157.402,194.231C157.734,194.587 158.267,194.746 158.973,194.78C159.809,194.82 160.857,194.671 162.118,194.345C163.7,193.06 165.51,191.972 167.551,191.083C170.928,189.611 174.341,189.011 177.787,189.278C181.312,189.552 184.107,190.813 186.184,193.035C187.76,194.721 188.579,196.406 188.686,198.068C188.795,199.751 188.183,201.431 186.804,203.09C185.608,204.529 184.069,205.366 182.184,205.599C180.214,205.843 178.765,205.402 177.81,204.38C177.291,203.825 177.071,203.292 177.069,202.822C177.068,202.446 177.194,202.089 177.469,201.759C177.569,201.638 177.71,201.556 177.865,201.529C180.751,201.019 182.679,200.014 183.592,198.41C183.594,198.406 183.596,198.402 183.599,198.399C183.917,197.864 183.894,197.381 183.494,196.952C182.665,196.066 181.124,195.822 178.904,196.052C176.477,196.303 173.876,197.134 171.096,198.535C168.324,199.931 166.103,201.627 164.438,203.631C163.425,204.849 162.758,206.101 162.445,207.394C162.171,208.526 162.347,209.461 163.025,210.187C163.595,210.797 164.318,211.312 165.189,211.738C166.106,212.186 167.31,212.59 168.798,212.954C170.278,213.317 172.139,213.344 174.379,213.055C174.907,212.987 175.444,212.9 175.991,212.797C176.725,212.274 177.413,212.119 178.035,212.257C181.438,211.292 186.942,209.344 194.547,206.417C197.048,205.447 199.173,205.911 200.928,207.788C201.797,208.718 202.257,209.88 202.29,211.277C202.324,212.696 202.004,213.763 201.395,214.495C201.281,214.633 201.115,214.719 200.936,214.733C199.73,214.831 198.478,215.527 197.151,216.767C195.726,218.1 194.443,219.626 193.301,221.344C192.121,223.12 190.803,224.942 189.349,226.81C188.298,228.16 187.285,229.352 186.309,230.385C189.227,230.245 192.859,229.368 197.208,227.773C200.12,226.138 204.288,223.909 209.711,221.085C209.717,221.082 209.722,221.079 209.728,221.077C210.355,220.772 210.898,220.876 211.36,221.37L211.809,221.851C211.839,220.644 212.39,219.542 213.504,218.566C214.568,217.633 215.817,217.086 217.251,216.925C218.733,216.76 219.97,217.058 220.969,217.787C222.032,218.563 222.548,219.588 222.525,220.857C222.504,222.075 221.953,223.188 220.83,224.172C219.766,225.105 218.517,225.653 217.083,225.813C216.521,225.876 215.995,225.872 215.503,225.803L215.504,225.803C215.761,226.079 215.86,226.42 215.757,226.837C215.674,227.17 215.489,227.435 215.198,227.629C215.177,227.643 215.156,227.656 215.134,227.667C206.439,232.179 200.832,235.206 198.313,236.749C195.872,238.244 194.192,239.526 193.288,240.613C192.903,241.077 192.702,241.426 192.979,241.722C193.123,241.877 193.405,241.933 193.792,241.982C194.637,242.088 195.878,242.013 197.516,241.771C200.278,241.364 203.656,240.453 207.651,239.043L238.163,223.23C238.168,223.227 238.173,223.224 238.179,223.222C238.806,222.918 239.349,223.021 239.811,223.516C239.811,223.516 243.903,227.893 243.903,227.893C244.157,228.165 244.251,228.48 244.195,228.836C244.145,229.156 243.975,229.436 243.653,229.652C243.632,229.665 243.611,229.678 243.59,229.689C243.59,229.689 224.845,239.433 224.846,239.433C227.74,239.839 230.048,240.98 231.78,242.833C233.082,244.226 233.721,245.753 233.723,247.404C233.725,249.05 233.173,250.545 232.058,251.886C230.594,253.648 228.516,254.577 225.805,254.636C223.429,254.688 220.852,253.783 218.091,251.882C217.848,252.725 217.445,253.65 216.877,254.655C216.1,256.03 215.356,257.204 214.647,258.177C213.996,259.071 213.518,259.973 213.218,260.886C212.989,261.582 213.025,262.148 213.419,262.57C213.817,262.995 214.594,263.105 215.717,263.058C217.735,262.972 220.719,262.247 224.674,260.9C226.208,259.683 227.953,258.648 229.91,257.795C233.287,256.323 236.7,255.723 240.146,255.99C243.671,256.264 246.466,257.525 248.543,259.747C249.538,260.811 250.264,261.891 250.73,262.982C252.915,254.041 254.074,244.697 254.074,235.085C254.074,181.171 217.608,135.706 168.012,122.031ZM137.657,250.424L144.568,246.216L145.391,238.864L151.685,243.658L159.242,241.481L156.745,250.011L161.037,256.48L152.508,256.069L147.568,261.394L144.979,253.804L137.657,250.424ZM93.065,254.373C92.686,254.936 92.218,255.437 91.68,255.854L93.838,257.628C93.838,257.628 93.065,254.373 93.065,254.373ZM19.892,243.913L30.396,239.854L39.892,245.33L30.696,251.158L20.154,246.913C20.055,245.921 19.967,244.919 19.892,243.913ZM177.771,247.63L179.977,246.275L180.242,243.924L182.271,245.453L184.683,244.775L183.889,247.511L185.242,249.569L182.534,249.452L180.947,251.158L180.094,248.718L177.771,247.63ZM85.767,245.33L71.954,250.362L62.099,245.33L72.204,240.111L85.767,245.33ZM226.617,245.252C226.792,245.439 226.9,245.623 226.898,245.825C226.896,246.05 226.771,246.273 226.57,246.515C226.258,246.89 225.768,247.136 225.122,247.29C224.362,247.47 223.406,247.513 222.255,247.432C219.932,247.269 217.737,246.4 215.664,244.835C215.661,244.833 215.265,244.409 215.265,244.409C215.265,244.409 215.595,244.237 215.595,244.237C219.097,243.641 221.85,243.531 223.855,243.929C225.08,244.172 226.007,244.6 226.617,245.252ZM174.565,231.866L168.771,246.775L175.154,243.424L175.802,234.426L183.007,240.159L186,239.328C186.118,237.997 186.537,236.745 187.262,235.572C186.298,235.731 185.422,235.816 184.634,235.829C181.517,235.878 178.788,235.007 176.448,233.228C175.83,232.872 175.202,232.419 174.565,231.866ZM90.909,245.299L90.892,245.226C90.821,245.263 90.748,245.297 90.675,245.33C90.767,245.374 90.859,245.418 90.949,245.466L90.909,245.299ZM136.951,215.603L134.158,214.25L133.128,238.953L124.099,244.982L114.747,230.777L121.159,213.484L107.513,216.397L113.805,208.336L131.216,209.631L135.804,211.22L136.951,215.603ZM108.423,237.6L102.159,237.308L98.513,241.218L96.601,235.629L91.221,233.158L96.278,230.041L96.897,224.63L101.543,228.16L107.101,226.542L105.276,232.835L108.423,237.6ZM33.617,215.144L45.803,224.221L44.798,234.574L35.216,230.049L33.617,215.144ZM68.374,215.144L65.894,229.603L57.193,234.572L57.247,224.607L68.374,215.144ZM153.248,197.317L150.596,205.25L155.861,214.22L145.892,213.72L140.422,219.337L153.743,230.337L170.986,226.057C170.924,225.697 170.882,225.328 170.858,224.948C170.726,222.797 171.043,220.789 171.804,218.924C171.883,218.731 171.965,218.539 172.048,218.35C170.348,218.581 168.915,218.658 167.75,218.584C166.156,218.484 164.646,218.139 163.22,217.549C161.785,216.955 160.731,216.378 160.05,215.829C159.386,215.293 158.643,214.588 157.824,213.712C155.637,211.372 154.775,208.686 155.226,205.657C155.538,203.565 156.317,201.516 157.571,199.512C155.905,199.383 154.585,198.777 153.599,197.722C153.476,197.591 153.359,197.456 153.248,197.317ZM177.061,223.673C176.292,222.851 176.125,221.816 176.508,220.579C176.926,219.228 177.711,217.99 178.855,216.859C181.38,216.155 184.659,215.123 188.692,213.762C188.43,214.104 188.156,214.467 187.871,214.85C187.026,215.984 186.285,216.973 185.648,217.819C185.013,218.661 184.323,219.55 183.578,220.485C182.857,221.391 182.195,222.114 181.59,222.653C180.993,223.185 180.382,223.641 179.757,224.021C179.249,224.329 178.773,224.473 178.319,224.414C177.87,224.355 177.457,224.097 177.061,223.673ZM81.367,214.368L80.453,215.505C80.529,216.287 80.46,217.092 80.222,217.88C80.209,217.926 80.195,217.97 80.178,218.015L78.666,222.142L85.066,218.437C86.073,217.855 87.185,217.602 88.282,217.649L88.425,215.19L81.367,214.368ZM64.079,143.141L70.546,145.608L72.309,151.812L72.104,167.459L61.28,174.605L73.22,179.604L77.192,191.927L84.455,182.341L94.748,183.163L94.574,185.811L78.604,196.25L83.984,199.367L80.191,200.339L72.897,194.369L71.956,203.573L68.783,205.8L68.77,205.788C66.245,203.605 62.358,203.809 60.085,206.234C60.052,206.269 60.022,206.305 59.993,206.34L57.193,209.706L57.193,202.293C57.193,198.979 54.444,196.242 50.997,196.242C47.547,196.242 44.798,198.979 44.798,202.293L44.798,209.706L41.998,206.34C41.969,206.305 41.939,206.269 41.906,206.234C39.633,203.809 35.746,203.605 33.221,205.788C31.676,207.124 30.977,209.024 31.152,210.871C29.641,209.796 27.649,209.456 25.722,210.131C22.578,211.23 20.81,214.7 21.769,217.88C21.783,217.926 21.796,217.97 21.813,218.015L23.325,222.142L20.466,220.486C24.353,189.233 40.563,161.778 64.079,143.141ZM85.514,207.014L88.102,200.839L96.601,204.074L99.043,213.808L89.278,205.925L89.132,206.044L88.308,210.955L85.514,207.014ZM82.514,210.544L80.985,208.221L81.867,205.193L79.19,205.955L76.956,204.28L76.662,206.868L74.192,208.398L76.81,209.574L77.123,210.504C77.62,210.767 78.073,211.095 78.475,211.475L79.486,210.398L82.514,210.544ZM146.862,208.692L143.215,208.544L141.127,210.807L140.01,207.573L136.892,206.132L139.834,204.309L140.185,201.192L142.862,203.219L146.098,202.31L145.039,205.955L146.862,208.692ZM126.906,179.408L122.306,192.398L129.863,203.515L134.01,201.427L135.422,189.809L143.481,197.28L151.986,194.892C151.833,194.371 151.732,193.818 151.685,193.234C148.645,193.73 145.833,193.742 143.251,193.276C140.357,192.754 138.224,191.725 136.83,190.233C135.384,188.686 134.746,186.857 134.919,184.746C135.048,183.16 135.544,181.683 136.411,180.315C134.364,180.814 132.679,180.998 131.359,180.881C129.817,180.745 128.67,180.463 127.91,180.063C127.585,179.892 127.25,179.674 126.906,179.408ZM103.629,192.104L104.248,186.693L108.894,190.222L114.453,188.605L112.601,194.897L115.777,199.663L109.482,199.367L105.835,203.281L103.923,197.691L98.543,195.22L103.629,192.104ZM77.897,171.429L78.337,167.43L81.778,170.016L85.896,168.84L84.543,173.488L86.866,177.018L82.22,176.782L79.544,179.693L78.132,175.546L74.133,173.723L77.897,171.429ZM110.064,164.257L105.19,163.989L99.925,169.899L109.924,179.399L124.109,175.718C123.878,174.96 123.782,174.128 123.823,173.22C123.832,173.006 123.85,172.793 123.875,172.582L123.166,172.878C121.792,173.413 120.373,173.527 118.909,173.221C117.451,172.915 116.111,172.125 114.902,170.831C113.236,169.049 111.623,166.858 110.064,164.257ZM94.514,161.341L96.985,162.165L98.159,168.871L95.955,167.105L95.131,178.694L90.337,172.399L94.514,161.341ZM83.074,163.666L76.485,157.665L83.337,148.607L95.69,149.489L95.338,154.195L88.573,158.167L92.865,160.636L83.074,163.666ZM105.057,154.457L105.192,154.774L105.274,154.963L104.571,157.371L106.1,159.665L103.07,159.548L101.308,161.429L100.396,158.724L97.779,157.519L100.248,156.018L100.544,153.43L102.778,155.108L105.057,154.457ZM102.984,150.225L103.265,150.149C103.082,149.7 102.894,149.237 102.702,148.76C102.218,148.725 101.741,148.673 101.271,148.605L102.984,150.225ZM75.665,135.043C76.512,134.523 77.364,134.016 78.223,133.519L79.749,134.667L84.19,133.374L82.72,138.431L85.251,142.255L80.22,142.02L77.309,145.137L75.78,140.668L71.456,138.668L75.543,136.168L75.665,135.043ZM94.081,138.576C93.603,138.064 93.324,137.567 93.292,137.062C93.262,136.578 93.467,136.106 93.864,135.629C94.157,135.277 94.514,135.115 94.945,135.16C95.475,135.215 95.999,135.57 96.553,136.164C97.408,137.078 98.363,138.69 99.436,140.992C97.23,140.829 95.442,140.032 94.081,138.576L94.081,138.576ZM124.31,118.49C113.696,119.618 103.501,122.165 93.918,125.938L92.731,129.755C93.444,129.454 94.21,129.281 95.03,129.236C97.008,129.126 99.019,130.095 101.017,132.232C102.561,133.884 104.311,136.421 106.26,139.848C106.904,139.635 107.592,139.393 108.325,139.121C109.264,138.772 110.095,138.456 110.818,138.172C111.534,137.891 112.502,137.461 113.722,136.882C114.958,136.296 115.876,135.858 116.476,135.567C117.072,135.277 118.131,134.724 119.652,133.906C121.19,133.079 122.188,132.548 122.645,132.312C123.1,132.079 124.237,131.474 126.056,130.498C127.872,129.523 128.963,128.934 129.329,128.729C129.708,128.513 130.08,128.305 130.445,128.105C127.813,124.767 125.769,121.561 124.31,118.49ZM165.462,127.302C165.869,127.737 166.028,128.254 165.942,128.85C165.843,129.53 165.592,130.118 165.183,130.61C164.229,131.758 162.938,132.727 161.319,133.526C159.663,134.342 157.816,134.911 155.779,135.238C153.752,135.562 151.526,135.423 149.1,134.831C146.989,134.315 144.954,133.466 142.996,132.285C145.014,131.162 146.752,130.229 148.211,129.487C149.889,128.633 151.717,127.813 153.694,127.027C155.635,126.255 157.297,125.758 158.679,125.544C160.014,125.338 161.299,125.375 162.533,125.658C163.711,125.929 164.689,126.474 165.462,127.302ZM153.193,118.966C147.847,118.217 142.378,117.829 136.819,117.829C134.878,117.829 132.949,117.877 131.029,117.97C131.086,118.109 131.144,118.247 131.204,118.387C132.23,120.782 133.69,123.136 135.58,125.452C139.169,123.701 142.414,122.29 145.317,121.218C147.985,120.233 150.611,119.483 153.193,118.966ZM153.862,80.436L179.889,104.287L180.419,105.288L180.29,105.606L180.195,106.039L180.189,106.092C174.413,104.148 168.461,102.581 162.366,101.421L161.821,100.432L161.261,99.409L160.126,97.318C160.038,97.141 159.95,96.995 159.89,96.847C157.125,91.759 155.303,86.083 153.862,80.436ZM126.011,79.759C123.982,85.819 121.482,91.818 117.923,97.024L117.894,97.024C117.835,97.141 117.775,97.229 117.687,97.318C117.658,97.406 117.57,97.523 117.452,97.671L117.042,98.249L116.246,99.381L115.61,100.266L115.274,100.721C108.993,101.722 102.856,103.153 96.893,104.984L96.631,104.2L98.278,101.641L126.011,79.759ZM140.465,49.848L140.627,49.852C142.334,49.909 143.98,50.645 145.127,51.938C146.303,53.174 146.951,54.849 146.862,56.556C146.803,58.291 146.038,59.908 144.803,61.086C143.509,62.26 141.863,62.879 140.128,62.819C138.421,62.762 136.775,62.026 135.628,60.733C134.452,59.497 133.804,57.82 133.864,56.115C133.952,54.35 134.717,52.763 135.95,51.587C137.096,50.519 138.581,49.913 140.141,49.852L140.465,49.848ZM212.533,14.49L212.739,14.493C220.061,14.64 222.354,22.1 218.297,30.998C205.399,42.147 189.145,48.573 172.115,49.219L171.713,49.233C178.065,33.087 191.329,20.618 207.857,15.296C209.586,14.744 211.148,14.488 212.533,14.49ZM70.673,9.257C72.254,9.253 74.061,9.626 76.074,10.442C92.16,16.971 104.454,30.352 109.63,46.91C92.543,45.117 76.633,37.47 64.545,25.293C61.224,16.382 63.823,9.274 70.673,9.257Z" style="fill:none;stroke:rgb(255,0,0);stroke-width:1px;"/>
</svg>
