<?xml version="1.0" encoding="UTF-8" standalone="no"?>
<!DOCTYPE svg PUBLIC "-//W3C//DTD SVG 1.1//EN" "http://www.w3.org/Graphics/SVG/1.1/DTD/svg11.dtd">
<svg width="100%" height="100%" viewBox="0 0 1123 794" version="1.1" xmlns="http://www.w3.org/2000/svg" xmlns:xlink="http://www.w3.org/1999/xlink" xml:space="preserve" xmlns:serif="http://www.serif.com/" style="fill-rule:evenodd;clip-rule:evenodd;stroke-linejoin:round;stroke-miterlimit:2;">
    <path d="M144.768,40.265C146.525,40.302 148.11,40.912 149.422,41.91C150.863,43.057 151.891,44.704 152.273,46.587C152.802,46.587 182.859,16.178 188.975,12.177C194.836,8.337 202.831,5.966 211.003,5.93C211.404,5.929 211.807,5.932 212.21,5.942C221.975,6.413 230.502,10.413 234.032,19.412C239.942,32.998 232.913,47.381 232.854,60.821C232.825,76.702 247.707,93.348 235.179,108.435C229.972,113.729 222.856,118.846 215.857,121.903L215.797,121.903L214.909,122.185L213.44,122.66C235.271,137.575 252.544,158.68 262.718,183.428L263.146,184.482L263.635,185.717L264.183,187.147L264.715,188.58L264.956,189.247L265.465,190.694L265.958,192.147L266.475,193.735L266.941,195.223L267.39,196.719L267.822,198.222L268.318,200.033L268.765,201.757L269.14,203.283L269.499,204.816L269.84,206.356L270.097,207.582L270.267,208.418L270.567,209.973L270.849,211.533L271.113,213.1L271.309,214.338L271.419,215.073L271.66,216.779L271.864,218.366L272.05,219.958L272.182,221.204L272.257,221.958L272.366,223.158L272.397,223.517L272.519,225.075L272.624,226.63L272.71,228.177L272.746,228.945L272.807,230.524L272.85,232.102C272.861,232.627 272.87,233.152 272.875,233.676L272.882,235.204L272.88,235.812C272.877,236.27 272.873,236.727 272.866,237.183L272.845,238.277C272.836,238.637 272.827,238.997 272.816,239.357L272.77,240.666L272.707,242.056L272.66,242.916C272.616,243.693 272.566,244.469 272.509,245.242L272.378,246.891L272.235,248.448L272.115,249.632L271.964,250.996L271.773,252.558L271.607,253.813L271.429,255.064L271.176,256.717L270.983,257.897L270.743,259.275L270.405,261.091L270.108,262.584L269.863,263.752L269.428,265.714L269.074,267.212L268.795,268.344L268.42,269.801L268.042,271.21L267.725,272.344L267.361,273.601L266.892,275.16L266.363,276.838L265.822,278.487L265.452,279.56L265.025,280.738L264.863,281.178C264.752,281.514 264.639,281.848 264.5,282.186C263.205,285.714 261.764,289.155 260.177,292.537C259.764,293.448 259.353,294.331 258.911,295.213C258.206,296.654 257.441,298.096 256.707,299.508C256.647,299.565 256.619,299.654 256.588,299.713C255.177,302.329 253.677,304.919 252.09,307.419L251.385,308.513L250.98,309.103L250.316,310.136L249.767,310.943L249.354,311.546L249.354,311.565C249.088,312.005 248.794,312.416 248.472,312.829C247.32,314.5 246.13,316.138 244.904,317.745L244.816,317.86C243.221,319.948 241.565,321.984 239.854,323.976L239.073,324.871L238.079,325.991L237.478,326.655L236.874,327.314L236.265,327.97L235.652,328.622L235.034,329.27L234.413,329.913L233.787,330.553L233.157,331.188L232.523,331.819L231.885,332.446L231.243,333.069L230.597,333.688L229.946,334.303L229.292,334.913L228.634,335.519L227.305,336.718L225.961,337.9L224.601,339.064L223.226,340.21L221.835,341.339L220.43,342.45L219.251,343.358L218.294,344.082L217.12,344.95L216.125,345.672L214.957,346.501L213.924,347.22L212.763,348.011L211.691,348.725L210.538,349.478L209.428,350.187L208.283,350.903L207.134,351.605L205.999,352.284L204.81,352.979L203.686,353.621L202.128,354.488L200.557,355.336L199.718,355.777L198.921,356.19L198.122,356.597L197.319,356.999L196.514,357.396L195.706,357.788L194.894,358.175L194.08,358.556L193.263,358.932L192.443,359.303L191.621,359.668L190.795,360.029L189.967,360.383L189.136,360.733L188.303,361.077L187.466,361.416L186.627,361.749L185.472,362.197L184.208,362.674L183.508,362.932C175.658,365.798 167.471,367.962 159.021,369.348L157.605,369.572L156.197,369.781L154.318,370.035L152.436,370.263L150.549,370.465L148.516,370.653L146.646,370.8L144.654,370.927L142.787,371.02L140.923,371.087L139.53,371.121L138.144,371.142L136.819,371.148L135.472,371.141L135.01,371.136L133.308,371.103L132.116,371.068L131.571,371.048C131.011,371.027 130.452,371.002 129.893,370.974L128.91,370.921L128.07,370.87L126.787,370.783L125.344,370.67L124.595,370.605L123.757,370.528L122.78,370.431L121.461,370.29L119.917,370.108L119.147,370.01L118.622,369.94C61.059,362.253 14.891,318.582 3.474,262.277L3.239,261.09L2.955,259.579L2.689,258.062L2.439,256.54L2.206,255.012L1.989,253.478L1.79,251.939L1.609,250.395L1.444,248.846L1.295,247.267L1.199,246.139L1.071,244.412L1.03,243.782L0.93,242.013L0.887,241.098L0.867,240.61L0.814,239.101L0.782,237.765L0.762,236.427L0.756,235.069L0.761,233.92L0.78,232.504L0.814,231.055L0.874,229.343L0.941,227.924L1.04,226.215L1.16,224.51L1.339,222.399L1.503,220.733L1.754,218.52L1.965,216.867L2.116,215.769L2.36,214.126L2.623,212.491L2.832,211.276L3.004,210.32L3.25,209.022L3.391,208.305L3.7,206.805L3.847,206.115L4.228,204.413L4.525,203.156L4.699,202.441L5.07,200.971L5.248,200.286L5.705,198.602L6.047,197.393L6.255,196.679L6.685,195.245L7.142,193.78L7.652,192.213L8.179,190.657L8.724,189.112L9.286,187.576L9.865,186.051L10.462,184.535L11.076,183.028L11.589,181.809L12.228,180.334L12.884,178.867L13.557,177.41L14.247,175.963L14.953,174.524L15.675,173.096L16.414,171.677L17.169,170.268L17.681,169.334L18.2,168.404L18.727,167.479L19.26,166.559L19.8,165.643L20.347,164.732L20.901,163.825L21.462,162.923L21.995,162.081C24.011,158.918 26.155,155.843 28.418,152.865L29.105,151.969L30.119,150.673L31.137,149.404L32.163,148.156L33.2,146.924L34.249,145.708L35.309,144.506L36.64,143.037L37.833,141.756L39.206,140.322L40.549,138.958L41.845,137.678L43.198,136.376L44.743,134.932L46.31,133.513L47.5,132.464L48.702,131.429L49.916,130.407L51.142,129.4L52.38,128.406L53.63,127.427L54.892,126.462L56.165,125.511L57.449,124.575L58.745,123.654L60.052,122.747L61.369,121.855L62.698,120.978L64.037,120.117L64.936,119.551L65.84,118.992C65.398,118.817 65.044,118.669 64.75,118.492L64.722,118.492C55.281,115.374 48.341,108.758 41.958,101.287C30.577,85.318 46.666,69.791 47.751,53.967C48.723,40.557 42.782,25.706 49.694,12.56C53.84,3.853 62.664,0.531 72.427,0.768C81.014,1.208 89.338,4.267 95.161,8.707C107.57,18.236 119.159,31.999 128.776,45.146C128.776,44.116 130.394,42.292 132.157,41.293C133.276,40.617 134.598,40.263 136.01,40.263L144.597,40.263L144.768,40.265ZM233.106,301.981L233,302.134C230.483,303.681 227.993,305.253 225.474,306.802C223.721,307.892 224.466,310.555 226.475,310.623C225.699,311.543 224.907,312.453 224.102,313.349L223.767,313.36C222.62,313.389 221.681,314.328 221.65,315.475C221.645,315.641 221.659,315.803 221.69,315.957C200.328,338.368 170.192,352.34 136.819,352.34C129.603,352.34 122.539,351.687 115.679,350.436L134.186,327.506L164.772,329.681L159.508,320.888L165.184,312.093L175.802,312.975L170.243,303.566L173.565,295.625L181.093,299.3L186.535,320.035L200.475,303.418L218.297,304.448C218.326,304.8 218.445,305.153 218.65,305.447C219.327,306.417 220.62,306.683 221.621,306.066C224.267,304.448 226.915,302.799 229.591,301.155C230.762,301.438 231.935,301.697 233.106,301.981ZM107.895,341.033L113.364,348.678L110.159,337.003L107.895,341.033ZM104.571,345.769L100.63,345.592L99.878,346.393C99.065,346.123 98.255,345.844 97.449,345.556L97.102,344.532L93.718,342.975L96.925,341.004L97.306,337.591L100.219,339.797L103.749,338.798L102.571,342.768L104.571,345.769ZM85.131,273.303L79.354,270.4L80.178,272.648C80.193,272.692 80.209,272.736 80.222,272.78C81.181,275.96 79.411,279.432 76.27,280.531C74.342,281.206 72.35,280.866 70.84,279.792C71.014,281.638 70.315,283.537 68.77,284.872C67.596,285.888 66.126,286.394 64.662,286.394C62.977,286.394 61.301,285.725 60.085,284.426C60.052,284.392 60.022,284.357 59.993,284.321L57.193,280.956L57.193,288.369C57.193,291.684 54.444,294.418 50.997,294.418C47.547,294.418 44.798,291.684 44.798,288.369L44.798,280.956L41.998,284.321C41.969,284.357 41.939,284.392 41.906,284.426C39.633,286.853 35.746,287.057 33.221,284.874L33.221,284.872C31.676,283.537 30.977,281.638 31.152,279.792C30.457,280.285 29.66,280.624 28.814,280.779C39.992,307.142 60.547,328.582 86.29,340.908L91.19,337.739L92.396,325.651L101.189,333.062L108.66,330.739L105.749,320.828L76.779,308.771L84.691,302.624L82.543,295.744L74.367,291.949L81.926,286.273L82.749,277.684L87.308,281.333L85.131,273.303ZM117.923,310.182L108.954,306.066L117.395,300.861L118.423,291.83L126.187,297.713L135.451,295.037L132.392,305.535L137.657,313.475L127.187,312.975L121.099,319.533L117.923,310.182ZM158.478,319.476L151.155,307.801L156.126,310.066L158.478,319.476ZM156.891,305.007L159.832,303.212L160.184,300.067L162.889,302.125L166.096,301.183L165.036,304.83L166.861,307.595L163.243,307.419L161.125,309.711L160.007,306.448L156.891,305.007ZM169.832,294.508L163.95,296.566L155.684,289.92L154.539,300.772L148.686,303.77L158.714,273.038L151.862,274.421L157.803,267.421L179.124,269.362L177.948,279.302L160.979,290.508L169.832,294.508ZM223.767,299.771C222.62,300.476 221.444,301.212 220.268,301.948L218.827,299.713C219.267,299.448 219.709,299.183 220.151,298.889C221.356,299.183 222.561,299.477 223.767,299.771ZM91.073,297.625L88.014,301.654L94.543,297.832L91.073,297.625ZM216.984,267.418L210.092,286.304L214.679,293.332C214.886,293.39 215.092,293.448 215.297,293.478C215.003,293.008 214.709,292.537 214.444,292.068C213.827,291.067 214.15,289.772 215.209,289.213C216.208,288.655 217.503,289.009 218.12,289.979C219.121,291.624 220.12,293.244 221.091,294.862C222.326,295.154 223.533,295.448 224.738,295.744C223.798,294.214 222.885,292.712 221.975,291.213C221.356,290.183 221.681,288.89 222.737,288.331C223.738,287.802 225.032,288.125 225.65,289.124C227.268,291.772 228.915,294.449 230.531,297.123C231.737,297.39 232.973,297.682 234.178,297.978C232.591,295.39 231.002,292.802 229.414,290.214C228.325,288.419 230.296,286.304 232.178,287.303C234.692,288.656 237.18,290.008 239.692,291.362L239.958,290.875C239.678,289.929 239.398,288.992 239.12,288.037C236.355,286.567 233.619,285.068 230.856,283.596C229.854,283.068 229.414,281.773 229.914,280.745C230.031,280.49 230.189,280.273 230.378,280.097C229.316,279.964 228.478,279.731 227.863,279.414C227.028,278.983 226.158,278.293 225.261,277.333C223.923,275.902 223.301,274.095 223.419,271.904C223.503,270.32 223.963,268.828 224.802,267.429C221.597,268.197 218.992,268.177 216.984,267.418ZM202.504,293.509L195.447,293.184L191.358,297.567L189.212,291.301L183.182,288.507L188.858,285.008L189.565,278.948L194.77,282.891L201.006,281.098L198.946,288.154L202.504,293.509ZM92.631,293.39L89.278,293.213L87.308,295.331L86.279,292.331L83.396,291.007L86.132,289.332L86.455,286.419L88.926,288.302L91.926,287.449L90.927,290.83L92.631,293.39ZM95.661,275.126L103.66,275.774L102.836,292.331L98.924,294.566L95.807,289.772L98.543,281.596L89.338,283.271L95.661,275.126ZM236.59,279.544C235.39,279.848 234.314,280.048 233.364,280.144C234.715,280.877 236.064,281.593 237.414,282.332C237.139,281.393 236.865,280.474 236.59,279.544ZM243.461,277.326C242.43,277.702 241.462,278.042 240.557,278.346C240.832,279.271 241.107,280.207 241.383,281.125C242.081,279.851 242.78,278.596 243.461,277.326ZM98.806,255.804L106.454,245.776L120.717,247.071L112.218,252.716L135.51,262.245L139.303,278.155L128.657,280.979L104.542,260.512L103.66,269.596L100.984,266.009L104.69,255.07L98.806,255.804ZM33.617,275.518L35.978,260.906L44.798,256.088L45.284,265.759L33.617,275.518ZM68.374,275.516L56.423,266.816L57.193,256.088L66.785,261.932L68.374,275.516ZM251.326,260.417C244.009,264.346 239.18,267.052 236.842,268.539C234.282,270.166 232.486,271.588 231.467,272.821C230.999,273.387 230.776,273.814 231.105,274.167C231.255,274.327 231.554,274.372 231.971,274.41C232.882,274.493 234.229,274.368 236.014,274.049C239.089,273.501 242.946,272.344 247.589,270.584C247.638,270.565 247.689,270.553 247.741,270.546C248.12,270.498 248.373,270.619 248.534,270.776C249.617,267.387 250.551,263.931 251.326,260.417ZM153.419,196.807L150.596,205.25L155.861,214.22L145.892,213.72L140.422,219.337L153.743,230.337L177.446,224.453L168.771,246.775L175.154,243.424L175.802,234.426L183.007,240.159L192.536,237.512L189.181,246.452L193.977,254.57L184.8,253.892L181.418,258.158L196.505,270.363L215.105,266.361C214.846,266.156 214.603,265.932 214.376,265.688C212.637,263.828 211.969,261.56 212.389,258.881C212.659,257.16 213.326,255.417 214.397,253.657C214.324,253.675 214.251,253.693 214.179,253.71C211.341,254.401 209.059,254.608 207.336,254.355C205.573,254.096 204.242,253.698 203.335,253.186C202.431,252.675 201.493,251.906 200.528,250.873C199.214,249.467 198.643,247.814 198.815,245.915C198.979,244.095 199.81,242.254 201.336,240.406C202.465,239.04 203.678,237.887 204.974,236.946C206.239,236.027 208.719,234.595 212.424,232.652C216.356,230.371 218.943,228.514 220.165,227.056C220.446,226.72 220.649,226.413 220.763,226.129C220.864,225.876 220.892,225.655 220.792,225.461C220.061,224.734 218.606,224.451 216.464,224.464C214.096,224.479 211.25,225.167 207.918,226.512C207.544,226.728 207.205,226.939 206.902,227.146C206.884,227.158 206.864,227.17 206.845,227.18C204.118,228.663 198.101,231.835 188.8,236.694C188.494,236.893 188.197,236.958 187.92,236.929C187.628,236.899 187.34,236.765 187.079,236.485C187.079,236.485 182.121,231.181 182.121,231.181C181.879,230.923 181.758,230.581 181.82,230.139C181.883,229.681 182.127,229.367 182.553,229.202C191.637,224.422 197.563,221.266 200.329,219.734C202.365,218.568 203.933,217.665 205.032,217.026C206.107,216.401 207.077,215.757 207.94,215.092C208.678,214.524 209.146,214.063 209.28,213.647C209.367,213.378 209.268,213.132 209.042,212.89C208.72,212.546 208.22,212.321 207.561,212.175C206.792,212.005 205.825,211.956 204.661,212.018C202.246,212.148 199.01,212.943 194.949,214.388L176.917,224.028C176.912,224.031 176.906,224.034 176.901,224.037C176.209,224.382 175.656,224.265 175.225,223.804C175.225,223.804 170.666,218.927 170.666,218.927C170.398,218.641 170.295,218.283 170.408,217.842C170.493,217.509 170.674,217.24 170.954,217.036C170.151,216.898 169.498,216.695 168.993,216.435C168.159,216.004 167.289,215.314 166.392,214.354C165.054,212.923 164.432,211.116 164.549,208.925C164.634,207.341 165.094,205.849 165.933,204.451C161.093,205.61 157.623,204.974 155.507,202.71C153.967,201.062 153.267,199.096 153.419,196.807ZM95.955,263.598C95.955,263.598 93.726,264.232 93.726,264.232C94.485,265.959 94.443,268.037 93.413,269.845L96.72,269.979C96.72,269.979 94.896,267.246 94.896,267.246L95.955,263.598ZM169.743,249.334L176.007,252.188L179.241,263.569L169.743,249.334ZM240.969,255.733C238.575,257.02 236.57,258.169 234.954,259.182C230.19,261.141 226.556,262.205 224.045,262.348C222.591,262.431 221.556,262.229 220.976,261.607C220.685,261.296 220.642,260.84 220.751,260.256C220.889,259.512 221.306,258.741 221.977,257.93C223.576,255.994 225.897,254.083 228.931,252.187C231.973,250.287 234.989,248.966 237.98,248.23C240.717,247.556 242.627,247.67 243.682,248.8C244.226,249.382 244.211,250.265 243.811,251.437C243.344,252.81 242.391,254.238 240.97,255.732L240.969,255.733ZM137.657,250.424L144.568,246.216L145.391,238.864L151.685,243.658L159.242,241.481L156.745,250.011L161.037,256.48L152.508,256.069L147.568,261.394L144.979,253.804L137.657,250.424ZM93.065,254.373C92.686,254.936 92.218,255.437 91.68,255.854L93.838,257.628C93.838,257.628 93.065,254.373 93.065,254.373ZM178.999,125.657C179.326,126.208 179.656,126.776 179.99,127.36C180.975,129.083 181.794,130.426 182.448,131.389C185.018,132.209 187.196,133.577 188.985,135.491C189.628,136.179 190.03,137.023 190.183,138.027C190.346,139.1 190.109,139.996 189.504,140.724C188.629,141.777 187.576,142.337 186.357,142.425C185.128,142.514 183.972,142.021 182.913,140.888C182.46,140.403 181.996,139.845 181.521,139.212C179.701,139.645 177.754,140.65 175.672,142.211C173.371,143.935 171.313,145.792 169.497,147.784C167.653,149.807 165.363,152.288 162.626,155.227C160.654,157.345 158.872,159.163 157.279,160.681C159.352,160.197 161.685,159.55 164.278,158.74C167.924,157.6 171.186,156.513 174.061,155.48C176.966,154.436 180.119,153.508 183.521,152.696C186.937,151.881 189.998,151.375 192.704,151.176C195.464,150.973 198.188,151.3 200.874,152.157C203.586,153.023 205.933,154.514 207.912,156.631C209.158,157.964 209.519,159.492 209.001,161.213C209,161.216 208.999,161.219 208.998,161.222C208.849,161.692 208.659,161.983 208.495,162.129C208.315,162.29 208.124,162.355 207.937,162.363C207.709,162.372 207.451,162.297 207.211,162.04C205.568,160.282 202.603,159.943 198.346,160.819C193.839,161.746 188.964,163.624 183.718,166.447C178.438,169.288 173.072,172.819 167.619,177.039C162.178,181.249 157.676,185.495 154.116,189.779C153.41,190.628 152.891,191.396 152.562,192.087C152.274,192.694 152.108,193.151 152.112,193.472C152.116,193.871 152.113,194.238 152.101,194.575C152.097,194.676 152.088,194.774 152.072,194.868L153.866,194.364C154.469,192.297 155.64,190.201 157.391,188.081C159.071,186.048 161.23,184.209 163.871,182.567C166.494,180.936 169.213,179.676 172.027,178.786C174.888,177.88 177.742,177.637 180.587,178.053C183.495,178.478 185.85,179.666 187.661,181.603C189.644,183.724 190.319,186.079 189.684,188.667C190.243,188.479 190.731,188.62 191.153,189.071C191.153,189.071 195.712,193.949 195.712,193.949C195.979,194.235 196.082,194.592 195.97,195.034C195.881,195.382 195.686,195.662 195.382,195.869C195.362,195.883 195.341,195.895 195.32,195.907C186.386,200.67 180.604,203.888 177.973,205.56C175.412,207.187 173.617,208.61 172.598,209.842C172.13,210.409 171.906,210.836 172.236,211.188C172.385,211.348 172.685,211.394 173.102,211.432C174.012,211.514 175.36,211.389 177.145,211.071C180.123,210.54 183.835,209.438 188.284,207.769L202.568,200.141C202.573,200.138 202.578,200.135 202.584,200.133C203.254,199.798 203.83,199.905 204.317,200.426C204.317,200.426 208.876,205.304 208.876,205.304C209.05,205.49 209.186,205.806 209.12,206.285C209.056,206.742 208.813,207.056 208.388,207.221C208.388,207.221 207.069,207.925 207.071,207.925C210.287,208.028 212.848,209.122 214.763,211.172C216.259,212.772 216.918,214.465 216.785,216.234C216.69,217.507 216.175,218.832 215.22,220.199C216.402,220.012 217.482,219.928 218.46,219.945C219.97,219.973 221.247,220.219 222.292,220.671C223.334,221.121 224.129,221.571 224.683,222.01C225.223,222.438 225.831,223.011 226.503,223.731C227.966,225.296 228.646,227.062 228.56,229.024C228.476,230.956 227.82,232.666 226.591,234.152C225.413,235.579 223.933,236.833 222.149,237.911C222.14,237.916 222.131,237.921 222.121,237.927C216.957,240.717 213.316,242.723 211.199,243.946C209.174,245.115 207.831,246.073 207.19,246.849C206.718,247.421 206.529,247.875 206.885,248.256C207.097,248.482 207.489,248.592 208.032,248.668C209.099,248.815 210.654,248.731 212.696,248.432C215.54,248.016 218.547,247.274 221.716,246.209C222.049,245.984 222.39,245.763 222.74,245.546C225.364,243.915 228.082,242.655 230.896,241.765C233.758,240.859 236.611,240.616 239.456,241.032C242.364,241.457 244.72,242.645 246.53,244.581C248.513,246.703 249.188,249.057 248.553,251.646C249.112,251.458 249.6,251.599 250.022,252.05L252.447,254.645C253.517,248.285 254.074,241.749 254.074,235.085C254.074,185.235 222.899,142.609 178.999,125.657ZM19.892,243.913L30.396,239.854L39.892,245.33L30.696,251.158L20.154,246.913C20.055,245.921 19.967,244.919 19.892,243.913ZM177.771,247.63L179.977,246.275L180.242,243.924L182.271,245.453L184.683,244.775L183.889,247.511L185.242,249.569L182.534,249.452L180.947,251.158L180.094,248.718L177.771,247.63ZM85.767,245.33L71.954,250.362L62.099,245.33L72.204,240.111L85.767,245.33ZM90.909,245.299L90.892,245.226C90.821,245.263 90.748,245.297 90.675,245.33C90.767,245.374 90.859,245.418 90.949,245.466L90.909,245.299ZM136.951,215.603L134.158,214.25L133.128,238.953L124.099,244.982L114.747,230.777L121.159,213.484L107.513,216.397L113.805,208.336L131.216,209.631L135.804,211.22L136.951,215.603ZM108.423,237.6L102.159,237.308L98.513,241.218L96.601,235.629L91.221,233.158L96.278,230.041L96.897,224.63L101.543,228.16L107.101,226.542L105.276,232.835L108.423,237.6ZM33.617,215.144L45.803,224.221L44.798,234.574L35.216,230.049L33.617,215.144ZM68.374,215.144L65.894,229.603L57.193,234.572L57.247,224.607L68.374,215.144ZM64.079,143.141L70.546,145.608L72.309,151.812L72.104,167.459L61.28,174.605L73.22,179.604L77.192,191.927L84.455,182.341L94.748,183.163L94.574,185.811L78.604,196.25L83.984,199.367L80.191,200.339L72.897,194.369L71.956,203.573L68.783,205.8L68.77,205.788C66.245,203.605 62.358,203.809 60.085,206.234C60.052,206.269 60.022,206.305 59.993,206.34L57.193,209.706L57.193,202.293C57.193,198.979 54.444,196.242 50.997,196.242C47.547,196.242 44.798,198.979 44.798,202.293L44.798,209.706L41.998,206.34C41.969,206.305 41.939,206.269 41.906,206.234C39.633,203.809 35.746,203.605 33.221,205.788C31.676,207.124 30.977,209.024 31.152,210.871C29.641,209.796 27.649,209.456 25.722,210.131C22.578,211.23 20.81,214.7 21.769,217.88C21.783,217.926 21.796,217.97 21.813,218.015L23.325,222.142L20.466,220.486C24.353,189.233 40.563,161.778 64.079,143.141ZM81.367,214.368L80.453,215.505C80.529,216.287 80.46,217.092 80.222,217.88C80.209,217.926 80.195,217.97 80.178,218.015L78.666,222.142L85.066,218.437C86.073,217.855 87.185,217.602 88.282,217.649L88.425,215.19L81.367,214.368ZM85.514,207.014L88.102,200.839L96.601,204.074L99.043,213.808L89.278,205.925L89.132,206.044L88.308,210.955L85.514,207.014ZM82.514,210.544L80.985,208.221L81.867,205.193L79.19,205.955L76.956,204.28L76.662,206.868L74.192,208.398L76.81,209.574L77.123,210.504C77.62,210.767 78.073,211.095 78.475,211.475L79.486,210.398L82.514,210.544ZM146.862,208.692L143.215,208.544L141.127,210.807L140.01,207.573L136.892,206.132L139.834,204.309L140.185,201.192L142.862,203.219L146.098,202.31L145.039,205.955L146.862,208.692ZM130.673,117.988C117.762,118.656 105.401,121.417 93.918,125.938L90.279,137.638L96.043,146.373L96.424,144.019L102.984,150.225L112.042,147.785L109.747,157.196L114.276,164.488L105.19,163.989L99.925,169.899L109.924,179.399L128.628,174.545L122.306,192.398L129.863,203.515L134.01,201.427L135.422,189.809L143.481,197.28L147.235,196.226C146.154,195.855 145.179,195.208 144.312,194.28C141.678,191.463 142.343,187.378 146.72,182.112C150.719,177.3 156.759,172.398 164.848,167.418C168.399,165.232 171.892,163.299 175.327,161.62C171.052,163.057 167.12,164.398 163.532,165.643C159.527,167.034 155.093,168.328 150.231,169.527C145.352,170.73 141.085,171.432 137.44,171.635C136.048,171.79 134.68,171.799 133.336,171.663C133.071,171.676 132.856,171.605 132.682,171.484C132.441,171.317 132.244,171.02 132.213,170.537C132.235,170.888 132.527,171.162 132.878,171.162C132.878,171.162 132.212,170.463 132.212,170.463C132.212,170.463 132.225,170.114 132.225,170.114C132.225,170.114 132.891,170.793 132.891,170.793L132.225,170.103C132.245,169.522 132.528,169.078 133.109,168.797C133.137,168.783 133.166,168.771 133.195,168.762C135.45,168.034 137.872,166.636 140.468,164.58C143.116,162.484 145.692,160.143 148.197,157.557C150.723,154.949 153.258,152.33 155.803,149.7C158.367,147.05 161.133,144.532 164.103,142.145C164.523,141.807 164.942,141.481 165.362,141.165C164.006,141.784 162.581,142.469 161.087,143.219C156.341,145.601 151.953,147.924 147.925,150.185C143.876,152.459 139.842,154.557 135.823,156.48C131.739,158.433 128.11,159.592 124.939,159.967C121.577,160.364 119.012,159.568 117.221,157.652C115.757,156.086 115.095,153.979 115.285,151.318C115.472,148.706 116.184,146.686 117.381,145.245C117.894,144.629 118.396,144.195 118.876,143.932C119.676,143.493 120.244,143.64 120.573,143.992C120.624,144.047 120.703,144.147 120.75,144.322C120.78,144.438 120.814,144.71 120.834,145.142C120.846,145.407 120.905,145.622 121.048,145.775C121.68,146.452 122.341,146.969 123.034,147.321C123.728,147.674 124.794,147.855 126.222,147.902C127.721,147.95 129.472,147.691 131.475,147.133C133.534,146.559 136.255,145.557 139.639,144.129C143.04,142.692 146.938,140.815 151.333,138.496C151.334,138.495 151.335,138.495 151.335,138.495C161.15,133.35 169.37,130.714 175.986,130.551C174.05,127.379 172.302,124.801 170.738,122.819C162.817,120.425 154.544,118.848 146.015,118.186C142.813,119.679 140.13,121.726 137.966,124.329C136.635,125.93 135.838,127.493 135.601,129.029C135.38,130.452 135.746,131.678 136.705,132.704C137.943,134.029 139.677,134.489 141.888,134.151C144.16,133.803 145.825,133.036 146.858,131.793C147.235,131.34 147.63,131.273 147.917,131.34C148.095,131.381 148.272,131.479 148.424,131.666C148.57,131.844 148.718,132.17 148.806,132.657C149.134,134.008 148.812,135.296 147.803,136.51C145.912,138.785 143.099,140.196 139.345,140.702C135.552,141.213 132.388,140.107 129.852,137.393L129.852,137.393C127.774,135.17 126.804,132.043 127.001,127.994C127.18,124.338 128.402,121.002 130.673,117.988ZM103.629,192.104L104.248,186.693L108.894,190.222L114.453,188.605L112.601,194.897L115.777,199.663L109.482,199.367L105.835,203.281L103.923,197.691L98.543,195.22L103.629,192.104ZM182.1,192.754C179.706,194.041 177.701,195.191 176.084,196.203C171.321,198.162 167.687,199.226 165.176,199.369C163.722,199.452 162.687,199.25 162.106,198.629C161.816,198.317 161.773,197.861 161.882,197.278C162.02,196.534 162.437,195.763 163.107,194.951C164.707,193.015 167.027,191.104 170.062,189.208C173.104,187.308 176.119,185.987 179.11,185.251C181.848,184.577 183.757,184.692 184.813,185.821C185.357,186.403 185.341,187.286 184.942,188.458C184.475,189.832 183.522,191.259 182.101,192.754L182.1,192.754ZM77.897,171.429L78.337,167.43L81.778,170.016L85.896,168.84L84.543,173.488L86.866,177.018L82.22,176.782L79.544,179.693L78.132,175.546L74.133,173.723L77.897,171.429ZM94.514,161.341L96.985,162.165L98.159,168.871L95.955,167.105L95.131,178.694L90.337,172.399L94.514,161.341ZM133.319,170.996C133.198,171.102 133.041,171.162 132.878,171.162C132.878,171.162 133.113,171.143 133.303,170.997L133.319,170.996ZM83.074,163.666L76.485,157.665L83.337,148.607L95.69,149.489L95.338,154.195L88.573,158.167L92.865,160.636L83.074,163.666ZM106.1,159.665L103.07,159.548L101.308,161.429L100.396,158.724L97.779,157.519L100.248,156.018L100.544,153.43L102.778,155.108L105.455,154.343L104.571,157.371L106.1,159.665ZM75.665,135.043C76.512,134.523 77.364,134.016 78.223,133.519L79.749,134.667L84.19,133.374L82.72,138.431L85.251,142.255L80.22,142.02L77.309,145.137L75.78,140.668L71.456,138.668L75.543,136.168L75.665,135.043ZM153.862,80.436L179.889,104.287L180.419,105.288L180.29,105.606L180.195,106.039L180.189,106.092C174.413,104.148 168.461,102.581 162.366,101.421L161.821,100.432L161.261,99.409L160.126,97.318C160.038,97.141 159.95,96.995 159.89,96.847C157.125,91.759 155.303,86.083 153.862,80.436ZM126.011,79.759C123.982,85.819 121.482,91.818 117.923,97.024L117.894,97.024C117.835,97.141 117.775,97.229 117.687,97.318C117.658,97.406 117.57,97.523 117.452,97.671L117.042,98.249L116.246,99.381L115.61,100.266L115.274,100.721C108.993,101.722 102.856,103.153 96.893,104.984L96.631,104.2L98.278,101.641L126.011,79.759ZM140.465,49.848L140.627,49.852C142.334,49.909 143.98,50.645 145.127,51.938C146.303,53.174 146.951,54.849 146.862,56.556C146.803,58.291 146.038,59.908 144.803,61.086C143.509,62.26 141.863,62.879 140.128,62.819C138.421,62.762 136.775,62.026 135.628,60.733C134.452,59.497 133.804,57.82 133.864,56.115C133.952,54.35 134.717,52.763 135.95,51.587C137.096,50.519 138.581,49.913 140.141,49.852L140.465,49.848ZM212.533,14.49L212.739,14.493C220.061,14.64 222.354,22.1 218.297,30.998C205.399,42.147 189.145,48.573 172.115,49.219L171.713,49.233C178.065,33.087 191.329,20.618 207.857,15.296C209.586,14.744 211.148,14.488 212.533,14.49ZM70.673,9.257C72.254,9.253 74.061,9.626 76.074,10.442C92.16,16.971 104.454,30.352 109.63,46.91C92.543,45.117 76.633,37.47 64.545,25.293C61.224,16.382 63.823,9.274 70.673,9.257Z" style="fill:none;stroke:rgb(255,0,0);stroke-width:1px;"/>
</svg>
