<?xml version="1.0" encoding="UTF-8" standalone="no"?>
<!DOCTYPE svg PUBLIC "-//W3C//DTD SVG 1.1//EN" "http://www.w3.org/Graphics/SVG/1.1/DTD/svg11.dtd">
<svg width="100%" height="100%" viewBox="0 0 1123 794" version="1.1" xmlns="http://www.w3.org/2000/svg" xmlns:xlink="http://www.w3.org/1999/xlink" xml:space="preserve" xmlns:serif="http://www.serif.com/" style="fill-rule:evenodd;clip-rule:evenodd;stroke-linejoin:round;stroke-miterlimit:2;">
    <g transform="matrix(1,0,0,1,-10.6628,-16.4455)">
        <path d="M11.426,250.1C11.92,201.578 37.85,159.147 76.503,135.437C76.061,135.262 75.707,135.114 75.413,134.938L75.384,134.938C65.944,131.819 59.004,125.203 52.621,117.733C41.24,101.763 57.328,86.236 58.414,70.413C59.386,57.003 53.445,42.152 60.357,29.005C64.503,20.299 73.327,16.977 83.089,17.213C91.677,17.653 100,20.712 105.824,25.153C118.233,34.681 129.822,48.445 139.438,61.591C139.438,60.561 141.056,58.738 142.82,57.739C143.939,57.062 145.261,56.709 146.673,56.709L155.26,56.709C157.085,56.709 158.73,57.326 160.085,58.356C161.526,59.503 162.554,61.149 162.936,63.032C163.464,63.032 193.522,32.623 199.638,28.623C205.787,24.593 214.285,22.182 222.872,22.388C232.637,22.858 241.165,26.859 244.695,35.857C250.605,49.444 243.576,63.826 243.517,77.267C243.488,93.148 258.37,109.793 245.842,124.881C240.634,130.174 233.519,135.291 226.519,138.348L226.46,138.348C226.08,138.467 225.266,138.729 224.103,139.105C246.368,154.317 263.892,175.967 273.981,201.358L274.298,202.163C280.107,217.05 283.368,233.217 283.537,250.122L283.545,251.53L283.543,252.257L283.529,253.628L283.511,254.602L283.479,255.802L283.44,256.907C282.934,269.97 280.595,282.547 276.662,294.396C276.322,295.443 275.957,296.462 275.587,297.453L275.163,298.631C273.868,302.159 272.427,305.6 270.84,308.982C270.427,309.893 270.016,310.777 269.574,311.659C268.869,313.1 268.104,314.541 267.37,315.953C267.31,316.011 267.281,316.099 267.251,316.159C265.84,318.774 264.34,321.364 262.753,323.864C262.38,324.432 262.038,325.004 261.643,325.548L261.545,325.697C261.134,326.366 260.706,326.996 260.256,327.638L260.016,327.991L260.016,328.011C259.751,328.451 259.457,328.862 259.134,329.275C256.458,333.158 253.576,336.861 250.517,340.421C225.814,369.023 189.421,387.205 148.807,387.587L147.482,387.593C143.885,387.593 140.32,387.453 136.787,387.178C70.145,381.999 16.988,328.83 11.83,262.177C11.557,258.662 11.419,255.112 11.419,251.53L11.426,250.1ZM39.414,296.842C51.151,324.777 73.415,347.222 101.233,359.2C97.093,356.407 93.182,353.22 89.551,349.659C86.132,346.306 86.132,340.851 89.551,337.498C92.97,334.146 98.533,334.146 101.952,337.498C104.174,339.677 106.529,341.675 108.998,343.491C113.426,328.854 113.06,316.282 112.433,310.022L103.137,317.099C99.805,319.636 95.435,319.719 92.005,317.307C88.575,314.896 87.252,310.81 88.634,306.9L96.006,286.049L96.928,272.424C96.987,271.56 97.484,270.783 98.251,270.355C99.019,269.928 99.954,269.907 100.741,270.3C100.862,270.36 102.214,271.04 104.042,272.143L100.882,258.84L83.458,252.063L84.406,251.367L71.622,245.408L66.121,248.594L79.955,255.032L73.043,259.026L59.22,252.577L51.082,257.271L62.192,262.923L51.082,268.586L59.22,273.279L73.043,266.831L79.955,270.814L66.121,277.263L71.622,280.438L85.456,273.99L92.356,277.973L78.534,284.422L89.557,290.795C90.86,291.538 91.301,293.206 90.548,294.509C89.794,295.822 88.136,296.264 86.823,295.51L75.799,289.148L77.134,304.349L70.233,300.365L68.898,285.165L63.397,281.978L64.721,297.179L57.821,293.196L56.497,277.995L48.358,273.301L49.015,285.746L38.561,278.953L38.561,288.351L51.06,297.103L51.06,305.07L39.457,296.945L39.414,296.842ZM243.675,318.404C242.535,318.129 241.394,317.876 240.254,317.6C237.577,319.245 234.93,320.893 232.284,322.511C231.283,323.128 229.99,322.863 229.313,321.893C229.108,321.599 228.988,321.245 228.96,320.893L211.138,319.864L198.382,335.068C201.016,334.706 203.787,335.516 205.809,337.498C207.465,339.123 208.377,341.282 208.377,343.579C208.377,345.875 207.465,348.034 205.809,349.659C202.384,353.017 198.712,356.043 194.832,358.719C209.038,352.428 221.763,343.395 232.334,332.292C232.316,332.172 232.309,332.048 232.313,331.921C232.343,330.774 233.283,329.834 234.43,329.805L234.641,329.799C235.45,328.898 236.246,327.985 237.025,327.062C235.102,326.901 234.417,324.317 236.136,323.247C238.591,321.738 241.018,320.207 243.47,318.698L243.675,318.404ZM162.894,344.646C164.52,347.147 167.027,350.173 169.095,352.537C162.302,354.872 155.086,356.09 147.681,356.09C141.087,356.09 134.643,355.124 128.514,353.265L133.095,344.784C137.908,346.073 149.932,348.46 162.894,344.646ZM188.436,314.125C189.956,318.028 189.047,321.212 186.232,319.558C186.506,326.802 187.855,335.712 189.423,341.093C190.793,339.954 192.124,338.758 193.408,337.498C194.425,336.502 195.631,335.802 196.914,335.398L191.756,315.746L188.436,314.125ZM234.43,316.217C233.283,316.922 232.107,317.658 230.931,318.394L229.49,316.159C229.93,315.894 230.372,315.629 230.814,315.335C232.019,315.629 233.223,315.923 234.43,316.217ZM244.186,284.739C242.087,285.47 240.248,286.049 238.67,286.476C236.099,287.171 234.018,287.439 232.431,287.299C230.789,287.154 229.567,286.854 228.758,286.428C228.239,286.155 227.697,285.77 227.133,285.271L220.755,302.749L225.342,309.778C225.549,309.835 225.755,309.893 225.96,309.924C225.666,309.453 225.372,308.982 225.107,308.513C224.49,307.512 224.813,306.217 225.872,305.658C226.871,305.101 228.166,305.454 228.783,306.425C229.784,308.07 230.783,309.689 231.753,311.307C232.989,311.599 234.196,311.893 235.4,312.189C234.461,310.66 233.548,309.157 232.637,307.658C232.019,306.628 232.343,305.335 233.4,304.776C234.401,304.248 235.694,304.571 236.313,305.57C237.931,308.217 239.578,310.894 241.194,313.569C242.4,313.836 243.636,314.128 244.841,314.424C243.253,311.836 241.664,309.247 240.077,306.659C238.988,304.865 240.959,302.749 242.84,303.748C243.509,304.108 244.177,304.469 244.843,304.829L248.838,306.989C249.317,307.248 249.796,307.506 250.276,307.765C250.379,307.576 250.482,307.387 250.584,307.198C250.317,306.293 250.049,305.396 249.783,304.482C247.018,303.012 244.281,301.513 241.518,300.042C240.517,299.513 240.077,298.218 240.577,297.19C241.076,296.103 242.341,295.69 243.399,296.249C244.96,297.102 246.518,297.924 248.076,298.777C247.723,297.571 247.371,296.395 247.018,295.19C245.313,294.277 243.636,293.395 241.958,292.485C240.959,291.925 240.548,290.661 241.019,289.631C241.518,288.544 242.783,288.13 243.841,288.69C244.312,288.955 244.812,289.22 245.313,289.483C244.929,288.278 244.577,287.072 244.224,285.838C244.115,285.473 244.106,285.094 244.186,284.739ZM213.167,309.954L206.11,309.63L202.021,314.013L199.874,307.747L193.845,304.953L199.521,301.454L200.228,295.394L205.433,299.336L211.668,297.544L209.609,304.599L213.167,309.954ZM155.375,302.319L156.59,302.277C164.329,302.2 170.507,302.827 175.815,304.198L188.611,295.747L189.787,285.807L168.466,283.867L155.375,302.319ZM107.035,274.082C108.329,274.985 109.66,276.009 110.857,277.11C118.807,277.975 126.529,282.987 133.249,291.662C136.834,296.291 139.263,300.809 140.439,303.202C143.545,302.912 146.452,302.691 149.19,302.536L149.921,302.51L146.173,278.69L122.881,269.162L131.38,263.516L117.117,262.221L107.035,274.082ZM264.185,261.992C263.137,262.8 261.932,263.281 260.57,263.433C259.776,263.522 259.048,263.485 258.385,263.327L258.538,263.49C258.802,263.773 258.904,264.124 258.797,264.553C258.711,264.898 258.519,265.172 258.218,265.373C258.198,265.387 258.177,265.4 258.155,265.411C248.849,270.24 240.237,274.287 237.541,275.938C234.923,277.542 233.122,278.918 232.153,280.083C231.721,280.603 231.513,280.999 231.823,281.332C231.984,281.503 232.294,281.57 232.722,281.624C233.629,281.738 234.961,281.658 236.719,281.399C239.747,280.953 243.467,279.941 247.88,278.369C247.928,278.351 247.978,278.34 248.029,278.334C248.422,278.29 248.676,278.428 248.833,278.596C248.987,278.761 249.103,279.011 249.045,279.361C249.033,279.643 248.995,280.189 248.93,280.996L248.83,282.241C248.804,282.83 248.522,283.166 248.093,283.315L247.44,283.561C247.791,283.834 248.061,284.215 248.194,284.66C248.547,285.865 248.929,287.072 249.281,288.278C249.548,287.808 249.811,287.306 250.077,286.837C250.636,285.777 251.929,285.456 252.928,286.073C253.929,286.661 254.252,287.954 253.722,288.984L250.987,294.014L252.046,297.571C252.899,296.014 253.752,294.485 254.575,292.925C255.153,291.882 256.389,291.551 257.41,292.131C260.934,282.606 263.254,272.497 264.185,261.992ZM104.771,289.696C106.401,289.696 107.724,290.993 107.724,292.591C107.724,294.189 106.401,295.487 104.771,295.487C103.142,295.487 101.819,294.189 101.819,292.591C101.819,290.993 103.142,289.696 104.771,289.696ZM225.176,282.934C224.603,281.848 224.345,280.588 224.409,279.15C224.491,277.323 225.094,275.632 226.227,274.078C224.372,274.334 222.811,274.421 221.546,274.341C219.846,274.234 218.235,273.866 216.713,273.236C215.183,272.604 214.059,271.988 213.334,271.403C212.624,270.831 211.831,270.078 210.956,269.142C208.626,266.65 207.708,263.788 208.188,260.562C208.45,258.804 209.022,257.074 209.906,255.374C209.776,255.412 209.646,255.449 209.519,255.485C206.878,256.231 204.755,256.561 203.153,256.492C202.845,256.478 202.55,256.459 202.269,256.434L199.844,262.898L204.64,271.016L195.463,270.338L192.081,274.603L207.168,286.808L225.176,282.934ZM247.962,282.642L248.165,282.865C248.018,282.865 247.876,282.816 247.76,282.728L247.86,282.691C247.898,282.678 247.932,282.662 247.962,282.642ZM248.824,282.295L248.829,282.245C248.826,282.29 248.819,282.334 248.807,282.376L248.824,282.295ZM180.406,265.78L186.67,268.633L189.904,280.014L180.406,265.78ZM148.319,266.869L155.231,262.661L156.053,255.31L162.348,260.104L169.905,257.927L167.407,266.456L171.7,272.926L163.171,272.515L158.23,277.839L155.642,270.249L148.319,266.869ZM183.822,140.12C184.5,140.97 185.145,141.867 185.756,142.811C186.817,144.449 187.92,146.268 189.064,148.27C190.124,150.123 191.004,151.566 191.705,152.598C194.454,153.472 196.783,154.934 198.696,156.98C199.378,157.709 199.803,158.604 199.965,159.668C200.138,160.801 199.888,161.748 199.25,162.517C198.322,163.633 197.206,164.227 195.914,164.321C194.613,164.415 193.388,163.891 192.267,162.691C191.777,162.167 191.276,161.562 190.763,160.876C188.801,161.337 186.702,162.418 184.456,164.101C181.992,165.948 179.787,167.937 177.843,170.07C175.869,172.234 173.418,174.889 170.491,178.034C168.329,180.356 166.381,182.34 164.647,183.986C166.908,183.465 169.461,182.759 172.305,181.869C176.209,180.65 179.699,179.487 182.776,178.381C185.883,177.264 189.256,176.272 192.894,175.404C196.547,174.532 199.82,173.991 202.713,173.778C205.661,173.561 208.569,173.91 211.437,174.826C214.332,175.75 216.836,177.341 218.948,179.6C220.27,181.014 220.653,182.634 220.103,184.458C220.102,184.461 220.101,184.464 220.1,184.467C219.944,184.959 219.747,185.264 219.576,185.417C219.393,185.58 219.198,185.647 219.008,185.655C218.775,185.664 218.512,185.586 218.267,185.324C216.5,183.434 213.314,183.063 208.737,184.004C203.91,184.996 198.689,187.007 193.072,190.03C187.42,193.072 181.676,196.852 175.839,201.369C170.013,205.877 168.549,206.152 165.412,211.224C164.388,212.879 167.689,213.128 170.317,213.165C170.821,212.329 171.422,211.491 172.12,210.65C173.724,208.721 175.791,206.984 178.326,205.444C180.842,203.916 183.453,202.746 186.159,201.931C188.911,201.103 191.661,200.91 194.409,201.35C197.215,201.8 199.496,202.973 201.257,204.858C203.184,206.919 203.856,209.184 203.275,211.655C203.808,211.492 204.277,211.634 204.686,212.071C204.686,212.071 209.119,216.814 209.119,216.814C209.384,217.097 209.485,217.448 209.379,217.877C209.293,218.222 209.101,218.496 208.8,218.698C208.779,218.711 208.758,218.724 208.736,218.735C200.174,223.175 194.633,226.176 192.113,227.742C189.667,229.263 187.953,230.597 186.985,231.762C186.553,232.282 186.345,232.678 186.655,233.01C186.8,233.165 187.088,233.213 187.487,233.255C188.363,233.347 189.658,233.246 191.372,232.967C193.946,232.548 197.088,231.694 200.799,230.41C207.654,227.707 213.13,225.233 217.227,222.984C217.223,221.64 217.543,220.622 218.13,219.916C219.14,218.7 220.205,218.048 221.288,217.902C222.463,217.744 223.439,218.088 224.221,218.925C224.898,219.649 225.217,220.557 225.156,221.657C225.098,222.692 224.688,223.684 223.907,224.624C223.785,224.772 223.637,224.913 223.463,225.047C223.463,225.047 223.539,225.58 223.539,225.578C223.837,226.995 224.039,228.082 224.148,228.84C224.258,229.606 224.351,230.585 224.427,231.776C224.507,233.037 224.401,234.13 224.122,235.055C223.834,236.004 223.401,236.823 222.827,237.514C222.253,238.204 221.454,238.806 220.422,239.307C220.417,239.309 220.412,239.311 220.408,239.313C210.427,243.871 204.51,247.207 202.697,249.389C202.224,249.958 202.018,250.4 202.363,250.769C202.425,250.836 202.556,250.848 202.727,250.882C203.047,250.946 203.468,250.975 203.989,250.976C205.109,250.979 206.974,250.667 209.588,250.056C211.466,249.617 213.543,249.021 215.819,248.269C217.442,246.991 219.285,245.902 221.349,245.002C224.955,243.43 228.6,242.79 232.28,243.075C236.038,243.367 239.02,244.71 241.235,247.08C242.912,248.875 243.785,250.668 243.899,252.437C244.015,254.228 243.363,256.014 241.896,257.778C240.625,259.308 238.987,260.199 236.983,260.446C234.893,260.705 233.356,260.241 232.342,259.156C231.797,258.573 231.564,258.015 231.562,257.521C231.561,257.129 231.693,256.758 231.979,256.414C232.079,256.292 232.22,256.211 232.375,256.183C235.481,255.634 237.553,254.549 238.536,252.823C238.538,252.819 238.54,252.816 238.542,252.812C238.896,252.219 238.868,251.683 238.424,251.208C237.53,250.252 235.869,249.982 233.474,250.23C230.872,250.5 228.083,251.39 225.103,252.892C222.131,254.389 219.749,256.208 217.963,258.357C216.875,259.667 216.157,261.013 215.821,262.402C215.524,263.632 215.717,264.646 216.453,265.434C217.067,266.09 217.845,266.645 218.783,267.104C219.766,267.585 221.057,268.017 222.654,268.408C224.242,268.797 226.239,268.827 228.643,268.517C230.862,268.23 233.245,267.644 235.79,266.762C238.922,264.986 246.198,261.678 252.395,258.451C252.4,258.448 252.406,258.445 252.412,258.442C253.062,258.127 253.625,258.234 254.104,258.747L254.991,259.696C254.98,259.558 254.976,259.417 254.979,259.273C255.001,257.981 255.586,256.803 256.777,255.76C257.908,254.768 259.236,254.186 260.761,254.015C262.282,253.846 263.559,254.135 264.601,254.854C264.632,253.75 264.647,252.642 264.647,251.53C264.647,199.546 230.719,155.423 183.822,140.12ZM161.855,219.912L161.259,221.696L166.523,230.665L156.555,230.166L151.084,235.782L164.406,246.782L188.109,240.899L179.434,263.221L185.817,259.87L186.464,250.871L193.67,256.605L198.38,255.296C197.788,254.923 197.213,254.44 196.657,253.845C195.388,252.487 194.809,250.776 194.945,248.705C195.076,246.699 195.844,244.841 197.261,243.136C198.617,241.504 200.61,239.852 203.247,238.189C205.828,236.561 210.152,234.375 216.22,231.633C216.818,231.342 217.277,231.02 217.584,230.65C217.99,230.161 218.126,229.378 218.064,228.31C214.507,230.045 209.503,232.128 203.05,234.556L203.052,234.555C202.951,234.643 202.833,234.711 202.705,234.756C198.916,236.189 195.785,237.252 193.314,237.945C190.765,238.66 188.715,238.959 187.168,238.86C185.557,238.757 184.348,238.475 183.534,238.047C182.726,237.622 181.882,236.948 181.009,236.014C179.706,234.619 179.091,232.873 179.185,230.769C179.253,229.259 179.677,227.841 180.462,226.517C175.821,227.551 172.48,226.89 170.424,224.69C169.179,223.358 168.491,221.823 168.365,220.083C166.623,220.709 164.375,220.952 161.855,219.912ZM147.614,232.049L144.82,230.696L143.791,255.398L134.762,261.428L125.41,247.222L131.822,229.929L118.175,232.842L124.468,224.782L141.879,226.077L146.467,227.666L147.614,232.049ZM119.086,254.046L112.822,253.753L109.175,257.664L107.263,252.074L101.883,249.603L106.941,246.486L107.559,241.076L112.205,244.605L117.764,242.987L115.939,249.28L119.086,254.046ZM38.529,208.386L38.529,208.385C46.182,189.096 58.815,172.312 74.84,159.624L81.208,162.053L82.972,168.258L82.767,183.904L71.943,191.05L83.883,196.05L87.855,208.372L95.118,198.786L105.411,199.608L105.236,202.256L89.267,212.696L94.647,215.812L90.854,216.784L83.56,210.814L82.619,220.018L76.913,224.022L77.134,221.508L70.233,225.491L68.898,240.692L63.397,243.868L64.721,228.667L57.821,232.651L56.497,247.851L48.358,252.545L49.015,240.1L38.561,246.893L38.561,237.506L51.06,228.753L51.06,220.776L38.561,229.529L38.561,223.177L51.06,214.425L51.06,206.458L38.561,215.2L38.561,208.304C38.551,208.331 38.54,208.358 38.529,208.386ZM90.405,246.962L78.534,241.424L86.103,237.056L86.354,237.871L92.03,230.813L99.088,231.635L98.528,241.254L95.617,243.135L90.405,246.962ZM31.575,236.388L31.57,236.425L33.114,237.506L33.114,246.893L30.492,245.189C30.547,244.811 30.933,241.108 31.57,236.425L31.517,236.388L31.575,236.388ZM30.492,245.189C30.489,245.211 30.487,245.222 30.486,245.221C30.485,245.221 30.485,245.209 30.486,245.186L30.492,245.189ZM75.799,236.709L84.451,231.707L83.649,229.107L76.755,225.819L75.799,236.709ZM107.263,220.52L109.706,230.254L99.941,222.37L99.795,222.489L98.97,227.401L96.177,223.46L98.765,217.284L107.263,220.52ZM93.177,226.989L90.149,226.843L88.383,228.724L87.472,226.019L84.855,224.843L87.324,223.314L87.618,220.725L89.853,222.401L92.53,221.638L91.648,224.666L93.177,226.989ZM195.969,215.479C193.678,216.677 191.759,217.749 190.212,218.696C185.647,220.504 182.16,221.471 179.745,221.572C178.349,221.631 177.353,221.422 176.789,220.819C176.51,220.521 176.465,220.087 176.563,219.537C176.689,218.832 177.081,218.105 177.714,217.344C179.235,215.514 181.45,213.718 184.352,211.946C187.261,210.17 190.151,208.948 193.022,208.286C195.646,207.681 197.483,207.818 198.507,208.914C199.031,209.474 199.025,210.315 198.654,211.423C198.218,212.726 197.317,214.074 195.97,215.478L195.969,215.479ZM153.45,213.082C152.938,210.403 154.263,207.058 157.57,203.079C161.846,197.934 164.276,196.477 172.927,191.15C176.951,188.672 180.907,186.499 184.794,184.629C179.949,186.256 175.51,187.769 171.478,189.168C167.194,190.655 162.451,192.04 157.25,193.323C152.032,194.609 138.981,196.977 137.553,196.83C137.278,196.846 137.733,196.956 137.553,196.83C137.32,196.668 132.969,208.843 132.969,208.843L140.526,219.961L144.673,217.872L146.085,206.255L153.45,213.082ZM126.44,216.108L120.145,215.812L116.498,219.726L114.586,214.137L109.206,211.666L114.292,208.549L114.911,203.138L119.557,206.668L125.116,205.05L123.264,211.343L126.44,216.108ZM88.56,187.874L89,183.875L92.441,186.462L96.559,185.286L95.206,189.934L97.529,193.464L92.883,193.227L90.207,196.138L88.794,191.992L84.796,190.168L88.56,187.874ZM138.644,192.817C138.738,192.748 138.843,192.685 138.96,192.628C138.988,192.615 139.017,192.603 139.046,192.594C141.463,191.813 144.06,190.315 146.843,188.111C149.678,185.867 152.436,183.36 155.118,180.591C157.821,177.801 160.534,174.999 163.257,172.185C165.999,169.351 168.958,166.657 172.134,164.104C172.701,163.648 173.265,163.213 173.829,162.796C172.26,163.506 170.602,164.299 168.857,165.175C163.777,167.725 159.082,170.21 154.771,172.631C150.439,175.063 146.123,177.308 141.824,179.364C137.459,181.452 133.58,182.691 130.191,183.091C126.701,183.504 124.016,182.711 122.116,180.778L115.852,180.434L110.588,186.345L120.587,195.844L139.291,190.991L138.644,192.817ZM105.177,177.786L107.648,178.611L108.822,185.317L106.618,183.551L105.794,195.139L100.999,188.844L105.177,177.786ZM93.736,180.111L87.148,174.111L94,165.053L106.353,165.935L106.001,170.64L99.236,174.612L103.528,177.081L93.736,180.111ZM116.763,176.111L113.733,175.994L111.971,177.875L111.058,175.169L108.441,173.965L110.91,172.464L111.206,169.876L113.441,171.553L116.118,170.788L115.234,173.817L116.763,176.111ZM139.743,134.617C127.395,135.424 115.565,138.147 104.546,142.494L100.942,154.083L106.706,162.818L107.087,160.464L113.647,166.671L122.704,164.23L121.828,167.827C121.93,167.685 122.036,167.548 122.146,167.415C122.69,166.76 123.223,166.3 123.732,166.021C124.561,165.565 125.15,165.712 125.491,166.076C125.542,166.131 125.622,166.233 125.669,166.41C125.702,166.531 125.737,166.82 125.758,167.277C125.771,167.573 125.839,167.813 125.999,167.984C126.68,168.712 127.391,169.269 128.137,169.648C128.885,170.028 130.031,170.224 131.569,170.274C133.177,170.327 135.055,170.048 137.204,169.45C139.409,168.836 142.322,167.763 145.945,166.233C149.586,164.696 153.758,162.686 158.463,160.204C158.463,160.204 158.464,160.203 158.464,160.203C168.998,154.681 177.815,151.861 184.902,151.707C182.006,146.955 179.5,143.442 177.379,141.173C174.748,138.358 171.317,136.668 167.095,136.089C162.822,135.503 158.593,136.031 154.41,137.668C150.227,139.305 146.79,141.739 144.101,144.974C142.671,146.695 141.815,148.374 141.56,150.025C141.321,151.564 141.717,152.889 142.754,153.997C144.089,155.426 145.957,155.924 148.341,155.559C150.785,155.185 152.577,154.358 153.688,153.021C154.075,152.555 154.48,152.483 154.774,152.551C154.956,152.593 155.136,152.693 155.292,152.884C155.444,153.07 155.598,153.414 155.691,153.924C156.039,155.356 155.696,156.721 154.627,158.008C152.61,160.434 149.61,161.938 145.606,162.477C141.563,163.021 138.192,161.843 135.488,158.951L135.488,158.951C133.272,156.58 132.24,153.245 132.451,148.927C132.658,144.678 134.187,140.834 137.044,137.396C137.872,136.399 138.772,135.473 139.743,134.617ZM86.315,151.601C87.191,151.063 88.074,150.537 88.964,150.023L90.412,151.113L94.853,149.819L93.383,154.877L95.913,158.7L90.883,158.466L87.972,161.583L86.442,157.113L82.119,155.113L86.206,152.613L86.315,151.601ZM190.851,122.537C185.076,120.594 179.124,119.027 173.029,117.866C172.302,116.555 171.546,115.16 170.789,113.763C170.701,113.586 170.612,113.44 170.553,113.292C167.788,108.204 165.966,102.528 164.525,96.881L190.551,120.732L191.082,121.733C191.082,121.733 190.915,122.01 190.851,122.537ZM125.937,117.167C119.656,118.168 113.518,119.599 107.556,121.429L107.294,120.646L108.941,118.086L136.673,96.205C134.644,102.265 132.145,108.264 128.586,113.469L128.557,113.469C128.498,113.586 128.438,113.675 128.35,113.763C128.321,113.851 128.232,113.969 128.115,114.117C127.649,114.758 126.867,115.917 125.937,117.167ZM146.613,68.032C147.878,66.854 149.555,66.237 151.29,66.297C152.996,66.355 154.643,67.091 155.79,68.384C156.966,69.619 157.614,71.295 157.525,73.001C157.466,74.736 156.701,76.354 155.465,77.532C154.172,78.706 152.526,79.325 150.79,79.265C149.084,79.207 147.438,78.471 146.29,77.178C145.114,75.943 144.467,74.265 144.527,72.561C144.615,70.795 145.38,69.208 146.613,68.032ZM218.52,31.741C229.578,28.212 233.813,36.799 228.96,47.444C215.961,58.68 199.552,65.119 182.376,65.678C188.728,49.532 201.992,37.064 218.52,31.741ZM75.208,41.739C71.121,30.771 76.001,22.536 86.736,26.888C102.823,33.417 115.117,46.798 120.293,63.355C103.205,61.562 87.296,53.915 75.208,41.739Z" style="fill:none;stroke:rgb(255,0,0);stroke-width:1px;"/>
    </g>
</svg>
