<?xml version="1.0" encoding="UTF-8" standalone="no"?>
<!DOCTYPE svg PUBLIC "-//W3C//DTD SVG 1.1//EN" "http://www.w3.org/Graphics/SVG/1.1/DTD/svg11.dtd">
<svg width="100%" height="100%" viewBox="0 0 1123 794" version="1.1" xmlns="http://www.w3.org/2000/svg" xmlns:xlink="http://www.w3.org/1999/xlink" xml:space="preserve" xmlns:serif="http://www.serif.com/" style="fill-rule:evenodd;clip-rule:evenodd;stroke-linejoin:round;stroke-miterlimit:2;">
    <path d="M144.768,40.265C146.525,40.302 148.11,40.912 149.422,41.91C150.863,43.057 151.891,44.704 152.273,46.587C152.802,46.587 182.859,16.178 188.975,12.177C194.836,8.337 202.831,5.966 211.003,5.93C211.404,5.929 211.807,5.932 212.21,5.942C221.975,6.413 230.502,10.413 234.032,19.412C239.942,32.998 232.913,47.381 232.854,60.821C232.825,76.702 247.707,93.348 235.179,108.435C229.972,113.729 222.856,118.846 215.857,121.903L215.797,121.903L214.909,122.185L213.44,122.66C235.271,137.575 252.544,158.68 262.718,183.428L263.146,184.482L263.635,185.717L264.183,187.147L264.715,188.58L264.956,189.247L265.465,190.694L265.958,192.147L266.475,193.735L266.941,195.223L267.39,196.719L267.822,198.222L268.318,200.033L268.765,201.757L269.14,203.283L269.499,204.816L269.84,206.356L270.097,207.582L270.267,208.418L270.567,209.973L270.849,211.533L271.113,213.1L271.309,214.338L271.419,215.073L271.66,216.779L271.864,218.366L272.05,219.958L272.182,221.204L272.257,221.958L272.366,223.158L272.397,223.517L272.519,225.075L272.624,226.63L272.71,228.177L272.746,228.945L272.807,230.524L272.85,232.102C272.861,232.627 272.87,233.152 272.875,233.676L272.882,235.204L272.88,235.812C272.877,236.27 272.873,236.727 272.866,237.183L272.845,238.277C272.836,238.637 272.827,238.997 272.816,239.357L272.77,240.666L272.707,242.056L272.66,242.916C272.616,243.693 272.566,244.469 272.509,245.242L272.378,246.891L272.235,248.448L272.115,249.632L271.964,250.996L271.773,252.558L271.607,253.813L271.429,255.064L271.176,256.717L270.983,257.897L270.743,259.275L270.405,261.091L270.108,262.584L269.863,263.752L269.428,265.714L269.074,267.212L268.795,268.344L268.42,269.801L268.042,271.21L267.725,272.344L267.361,273.601L266.892,275.16L266.363,276.838L265.822,278.487L265.452,279.56L265.025,280.738L264.863,281.178C264.752,281.514 264.639,281.848 264.5,282.186C263.205,285.714 261.764,289.155 260.177,292.537C259.764,293.448 259.353,294.331 258.911,295.213C258.206,296.654 257.441,298.096 256.707,299.508C256.647,299.565 256.619,299.654 256.588,299.713C255.177,302.329 253.677,304.919 252.09,307.419L251.385,308.513L250.98,309.103L250.316,310.136L249.767,310.943L249.354,311.546L249.354,311.565C249.088,312.005 248.794,312.416 248.472,312.829C247.32,314.5 246.13,316.138 244.904,317.745L244.816,317.86C243.221,319.948 241.565,321.984 239.854,323.976L239.073,324.871L238.079,325.991L237.478,326.655L236.874,327.314L236.265,327.97L235.652,328.622L235.034,329.27L234.413,329.913L233.787,330.553L233.157,331.188L232.523,331.819L231.885,332.446L231.243,333.069L230.597,333.688L229.946,334.303L229.292,334.913L228.634,335.519L227.305,336.718L225.961,337.9L224.601,339.064L223.226,340.21L221.835,341.339L220.43,342.45L219.251,343.358L218.294,344.082L217.12,344.95L216.125,345.672L214.957,346.501L213.924,347.22L212.763,348.011L211.691,348.725L210.538,349.478L209.428,350.187L208.283,350.903L207.134,351.605L205.999,352.284L204.81,352.979L203.686,353.621L202.128,354.488L200.557,355.336L199.718,355.777L198.921,356.19L198.122,356.597L197.319,356.999L196.514,357.396L195.706,357.788L194.894,358.175L194.08,358.556L193.263,358.932L192.443,359.303L191.621,359.668L190.795,360.029L189.967,360.383L189.136,360.733L188.303,361.077L187.466,361.416L186.627,361.749L185.472,362.197L184.208,362.674L183.508,362.932C175.658,365.798 167.471,367.962 159.021,369.348L157.605,369.572L156.197,369.781L154.318,370.035L152.436,370.263L150.549,370.465L148.516,370.653L146.646,370.8L144.654,370.927L142.787,371.02L140.923,371.087L139.53,371.121L138.144,371.142L136.819,371.148L135.472,371.141L135.01,371.136L133.308,371.103L132.116,371.068L131.571,371.048C131.011,371.027 130.452,371.002 129.893,370.974L128.91,370.921L128.07,370.87L126.787,370.783L125.344,370.67L124.595,370.605L123.757,370.528L122.78,370.431L121.461,370.29L119.917,370.108L119.147,370.01L118.622,369.94C61.059,362.253 14.891,318.582 3.474,262.277L3.239,261.09L2.955,259.579L2.689,258.062L2.439,256.54L2.206,255.012L1.989,253.478L1.79,251.939L1.609,250.395L1.444,248.846L1.295,247.267L1.199,246.139L1.071,244.412L1.03,243.782L0.93,242.013L0.887,241.098L0.867,240.61L0.814,239.101L0.782,237.765L0.762,236.427L0.756,235.069L0.761,233.92L0.78,232.504L0.814,231.055L0.874,229.343L0.941,227.924L1.04,226.215L1.16,224.51L1.339,222.399L1.503,220.733L1.754,218.52L1.965,216.867L2.116,215.769L2.36,214.126L2.623,212.491L2.832,211.276L3.004,210.32L3.25,209.022L3.391,208.305L3.7,206.805L3.847,206.115L4.228,204.413L4.525,203.156L4.699,202.441L5.07,200.971L5.248,200.286L5.705,198.602L6.047,197.393L6.255,196.679L6.685,195.245L7.142,193.78L7.652,192.213L8.179,190.657L8.724,189.112L9.286,187.576L9.865,186.051L10.462,184.535L11.076,183.028L11.589,181.809L12.228,180.334L12.884,178.867L13.557,177.41L14.247,175.963L14.953,174.524L15.675,173.096L16.414,171.677L17.169,170.268L17.681,169.334L18.2,168.404L18.727,167.479L19.26,166.559L19.8,165.643L20.347,164.732L20.901,163.825L21.462,162.923L21.995,162.081C24.011,158.918 26.155,155.843 28.418,152.865L29.105,151.969L30.119,150.673L31.137,149.404L32.163,148.156L33.2,146.924L34.249,145.708L35.309,144.506L36.64,143.037L37.833,141.756L39.206,140.322L40.549,138.958L41.845,137.678L43.198,136.376L44.743,134.932L46.31,133.513L47.5,132.464L48.702,131.429L49.916,130.407L51.142,129.4L52.38,128.406L53.63,127.427L54.892,126.462L56.165,125.511L57.449,124.575L58.745,123.654L60.052,122.747L61.369,121.855L62.698,120.978L64.037,120.117L64.936,119.551L65.84,118.992C65.398,118.817 65.044,118.669 64.75,118.492L64.722,118.492C55.281,115.374 48.341,108.758 41.958,101.287C30.577,85.318 46.666,69.791 47.751,53.967C48.723,40.557 42.782,25.706 49.694,12.56C53.84,3.853 62.664,0.531 72.427,0.768C81.014,1.208 89.338,4.267 95.161,8.707C107.57,18.236 119.159,31.999 128.776,45.146C128.776,44.116 130.394,42.292 132.157,41.293C133.276,40.617 134.598,40.263 136.01,40.263L144.597,40.263L144.768,40.265ZM233.106,301.981L233,302.134C230.483,303.681 227.993,305.253 225.474,306.802C223.721,307.892 224.466,310.555 226.475,310.623C225.699,311.543 224.907,312.453 224.102,313.349L223.767,313.36C222.62,313.389 221.681,314.328 221.65,315.475C221.645,315.641 221.659,315.803 221.69,315.957C200.328,338.368 170.192,352.34 136.819,352.34C129.603,352.34 122.539,351.687 115.679,350.436L134.186,327.506L164.772,329.681L159.508,320.888L165.184,312.093L175.802,312.975L170.243,303.566L173.565,295.625L181.093,299.3L186.535,320.035L200.475,303.418L218.297,304.448C218.326,304.8 218.445,305.153 218.65,305.447C219.327,306.417 220.62,306.683 221.621,306.066C224.267,304.448 226.915,302.799 229.591,301.155C230.762,301.438 231.935,301.697 233.106,301.981ZM107.895,341.033L113.364,348.678L110.159,337.003L107.895,341.033ZM104.571,345.769L100.63,345.592L99.878,346.393C99.065,346.123 98.255,345.844 97.449,345.556L97.102,344.532L93.718,342.975L96.925,341.004L97.306,337.591L100.219,339.797L103.749,338.798L102.571,342.768L104.571,345.769ZM85.131,273.303L79.354,270.4L80.178,272.648C80.193,272.692 80.209,272.736 80.222,272.78C81.181,275.96 79.411,279.432 76.27,280.531C74.342,281.206 72.35,280.866 70.84,279.792C71.014,281.638 70.315,283.537 68.77,284.872C67.596,285.888 66.126,286.394 64.662,286.394C62.977,286.394 61.301,285.725 60.085,284.426C60.052,284.392 60.022,284.357 59.993,284.321L57.193,280.956L57.193,288.369C57.193,291.684 54.444,294.418 50.997,294.418C47.547,294.418 44.798,291.684 44.798,288.369L44.798,280.956L41.998,284.321C41.969,284.357 41.939,284.392 41.906,284.426C39.633,286.853 35.746,287.057 33.221,284.874L33.221,284.872C31.676,283.537 30.977,281.638 31.152,279.792C30.457,280.285 29.66,280.624 28.814,280.779C39.992,307.142 60.547,328.582 86.29,340.908L91.19,337.739L92.396,325.651L101.189,333.062L108.66,330.739L105.749,320.828L76.779,308.771L84.691,302.624L82.543,295.744L74.367,291.949L81.926,286.273L82.749,277.684L87.308,281.333L85.131,273.303ZM117.923,310.182L108.954,306.066L117.395,300.861L118.423,291.83L126.187,297.713L135.451,295.037L132.392,305.535L137.657,313.475L127.187,312.975L121.099,319.533L117.923,310.182ZM158.478,319.476L151.155,307.801L156.126,310.066L158.478,319.476ZM156.891,305.007L159.832,303.212L160.184,300.067L162.889,302.125L166.096,301.183L165.036,304.83L166.861,307.595L163.243,307.419L161.125,309.711L160.007,306.448L156.891,305.007ZM169.832,294.508L163.95,296.566L155.684,289.92L154.539,300.772L148.686,303.77L158.714,273.038L151.862,274.421L157.803,267.421L179.124,269.362L177.948,279.302L160.979,290.508L169.832,294.508ZM223.767,299.771C222.62,300.476 221.444,301.212 220.268,301.948L218.827,299.713C219.267,299.448 219.709,299.183 220.151,298.889C221.356,299.183 222.561,299.477 223.767,299.771ZM91.073,297.625L88.014,301.654L94.543,297.832L91.073,297.625ZM216.846,267.796L210.092,286.304L214.679,293.332C214.886,293.39 215.092,293.448 215.297,293.478C215.003,293.008 214.709,292.537 214.444,292.068C213.827,291.067 214.15,289.772 215.209,289.213C216.208,288.655 217.503,289.009 218.12,289.979C219.121,291.624 220.12,293.244 221.091,294.862C222.326,295.154 223.533,295.448 224.738,295.744C223.798,294.214 222.885,292.712 221.975,291.213C221.356,290.183 221.681,288.89 222.737,288.331C223.738,287.802 225.032,288.125 225.65,289.124C227.268,291.772 228.915,294.449 230.531,297.123C231.737,297.39 232.973,297.682 234.178,297.978C232.591,295.39 231.002,292.802 229.414,290.214C228.325,288.419 230.296,286.304 232.178,287.303C234.692,288.656 237.18,290.008 239.692,291.362L239.958,290.875C239.678,289.929 239.398,288.992 239.12,288.037C236.355,286.567 233.619,285.068 230.856,283.596C229.854,283.068 229.414,281.773 229.914,280.745L229.928,280.717C229.669,280.629 229.437,280.531 229.232,280.423C228.474,280.024 227.681,279.391 226.861,278.514C225.635,277.202 225.056,275.56 225.145,273.581C225.207,272.195 225.588,270.892 226.293,269.673C221.987,270.613 218.885,269.981 216.969,267.931L216.846,267.796ZM202.504,293.509L195.447,293.184L191.358,297.567L189.212,291.301L183.182,288.507L188.858,285.008L189.565,278.948L194.77,282.891L201.006,281.098L198.946,288.154L202.504,293.509ZM92.631,293.39L89.278,293.213L87.308,295.331L86.279,292.331L83.396,291.007L86.132,289.332L86.455,286.419L88.926,288.302L91.926,287.449L90.927,290.83L92.631,293.39ZM95.661,275.126L103.66,275.774L102.836,292.331L98.924,294.566L95.807,289.772L98.543,281.596L89.338,283.271L95.661,275.126ZM236.991,280.695C236.302,280.855 235.66,280.977 235.063,281.061C235.847,281.482 236.63,281.903 237.414,282.332C237.304,281.959 237.155,281.368 236.991,280.695ZM242.534,279.031C241.993,279.216 241.472,279.389 240.972,279.551C241.132,280.203 241.277,280.771 241.383,281.125C241.768,280.423 242.153,279.727 242.534,279.031ZM98.806,255.804L106.454,245.776L120.717,247.071L112.218,252.716L135.51,262.245L139.303,278.155L128.657,280.979L104.542,260.512L103.66,269.596L100.984,266.009L104.69,255.07L98.806,255.804ZM250.593,263.537C243.854,267.051 239.42,269.469 237.293,270.791C235.012,272.209 233.414,273.452 232.511,274.539C232.125,275.002 231.924,275.351 232.201,275.647C232.331,275.787 232.592,275.824 232.951,275.862C233.768,275.948 234.974,275.854 236.571,275.594C239.33,275.144 242.789,274.16 246.948,272.647C246.998,272.629 247.05,272.617 247.102,272.611C247.459,272.571 247.699,272.686 247.855,272.834C248.891,269.789 249.806,266.687 250.593,263.537ZM33.617,275.518L35.978,260.906L44.798,256.088L45.284,265.759L33.617,275.518ZM68.374,275.516L56.423,266.816L57.193,256.088L66.785,261.932L68.374,275.516ZM191.138,241.236L189.181,246.452L193.977,254.57L184.8,253.892L181.418,258.158L196.505,270.363L215.755,266.221C215.081,264.899 214.865,263.41 215.112,261.752C215.33,260.283 215.872,258.801 216.744,257.309C214.325,257.885 212.364,258.08 210.861,257.913C209.284,257.737 208.083,257.397 207.25,256.918C206.431,256.447 205.542,255.707 204.59,254.688C203.397,253.412 202.882,251.711 203.096,249.571C203.268,247.856 203.842,246.286 204.819,244.862C202.91,245.122 201.309,245.194 200.017,245.084C198.39,244.945 196.838,244.552 195.36,243.906C193.877,243.257 192.792,242.644 192.097,242.079C191.791,241.83 191.471,241.549 191.138,241.236ZM95.955,263.598C95.955,263.598 93.726,264.232 93.726,264.232C94.485,265.959 94.443,268.037 93.413,269.845L96.72,269.979C96.72,269.979 94.896,267.246 94.896,267.246L95.955,263.598ZM240.847,259.258C238.709,260.376 236.918,261.377 235.474,262.261C231.215,263.947 227.962,264.85 225.71,264.944C224.422,264.998 223.501,264.811 222.981,264.255C222.729,263.984 222.692,263.592 222.781,263.093C222.897,262.441 223.261,261.769 223.847,261.064C225.266,259.357 227.333,257.682 230.039,256.03C232.754,254.372 235.45,253.232 238.129,252.614C240.561,252.053 242.265,252.173 243.213,253.188C243.694,253.702 243.681,254.473 243.341,255.489C242.936,256.7 242.099,257.951 240.849,259.256L240.847,259.258ZM169.743,249.334L176.007,252.188L179.241,263.569L169.743,249.334ZM137.657,250.424L144.568,246.216L145.391,238.864L151.685,243.658L159.242,241.481L156.745,250.011L161.037,256.48L152.508,256.069L147.568,261.394L144.979,253.804L137.657,250.424ZM164.723,121.176C165.887,121.882 166.942,122.741 167.888,123.753C168.53,124.441 168.932,125.285 169.085,126.288C169.248,127.362 169.011,128.258 168.407,128.985C167.531,130.039 166.478,130.598 165.259,130.687C164.031,130.776 162.874,130.283 161.815,129.15C161.362,128.665 160.898,128.106 160.424,127.474C158.604,127.906 156.657,128.912 154.574,130.473C152.274,132.197 150.215,134.054 148.4,136.046C146.555,138.068 144.265,140.549 141.529,143.488C139.556,145.607 137.774,147.425 136.181,148.943C138.254,148.459 140.587,147.812 143.18,147.002C146.827,145.862 150.088,144.775 152.963,143.742C155.868,142.698 159.022,141.77 162.424,140.958C165.84,140.143 168.901,139.637 171.607,139.438C174.367,139.235 177.09,139.561 179.776,140.419C182.489,141.285 184.835,142.776 186.814,144.893C188.06,146.226 188.421,147.754 187.903,149.475C187.902,149.478 187.901,149.481 187.9,149.484C187.751,149.954 187.562,150.245 187.398,150.391C187.218,150.551 187.026,150.617 186.839,150.624C186.611,150.634 186.353,150.558 186.113,150.301C184.47,148.544 181.506,148.205 177.249,149.08C172.741,150.007 167.866,151.885 162.62,154.708C157.34,157.55 151.974,161.081 146.521,165.3C143.524,167.62 140.811,169.95 138.384,172.292C140.776,172.52 143.208,172.339 145.233,171.622C146.285,170.703 147.473,169.842 148.797,169.037C151.151,167.608 153.595,166.512 156.127,165.75C158.705,164.974 161.282,164.793 163.856,165.205C166.489,165.627 168.629,166.729 170.281,168.497C172.074,170.415 172.711,172.521 172.195,174.816C172.68,174.692 173.109,174.835 173.485,175.238C173.485,175.238 177.628,179.67 177.628,179.67C177.886,179.946 177.985,180.287 177.881,180.704C177.799,181.037 177.613,181.302 177.322,181.497C177.302,181.51 177.281,181.523 177.259,181.534C169.259,185.682 164.081,188.487 161.727,189.95C159.446,191.367 157.847,192.611 156.945,193.697C156.559,194.161 156.358,194.51 156.635,194.806C156.765,194.945 157.026,194.983 157.385,195.021C158.201,195.107 159.408,195.012 161.004,194.752C163.407,194.361 166.341,193.564 169.806,192.365C176.197,189.845 181.305,187.538 185.13,185.44C185.13,184.184 185.433,183.233 185.984,182.571C186.936,181.424 187.942,180.811 188.963,180.674C190.076,180.523 191.001,180.85 191.742,181.643C192.383,182.328 192.685,183.188 192.627,184.229C192.572,185.205 192.187,186.14 191.45,187.027C191.338,187.161 191.205,187.291 191.048,187.413C191.048,187.413 191.116,187.885 191.116,187.885C191.394,189.208 191.583,190.224 191.685,190.933C191.788,191.649 191.875,192.565 191.946,193.68C192.021,194.864 191.921,195.891 191.658,196.759C191.388,197.652 190.981,198.422 190.44,199.073C189.9,199.722 189.149,200.289 188.178,200.76C188.173,200.762 188.169,200.764 188.164,200.766C178.846,205.021 173.321,208.133 171.628,210.171C171.21,210.674 171.01,211.063 171.304,211.391C171.33,211.401 171.498,211.469 171.632,211.495C171.928,211.554 172.318,211.581 172.803,211.582C173.847,211.584 175.587,211.293 178.025,210.723C180.461,210.154 183.256,209.302 186.406,208.169C189.317,206.535 193.482,204.307 198.901,201.486C198.907,201.483 198.912,201.48 198.918,201.477C199.501,201.194 200.012,201.264 200.453,201.674C200.57,200.6 201.117,199.615 202.124,198.732C203.188,197.799 204.437,197.252 205.871,197.092C207.353,196.926 208.59,197.225 209.589,197.954C210.653,198.729 211.168,199.754 211.146,201.023C211.124,202.242 210.573,203.354 209.45,204.338C208.386,205.271 207.137,205.819 205.703,205.979C205.287,206.026 204.89,206.035 204.512,206.009L204.694,206.204C204.951,206.479 205.05,206.82 204.947,207.237C204.864,207.571 204.679,207.835 204.388,208.03C204.367,208.044 204.346,208.056 204.324,208.067C195.629,212.58 190.022,215.606 187.503,217.149C185.062,218.645 183.382,219.927 182.479,221.014C182.093,221.477 181.892,221.826 182.169,222.122C182.314,222.277 182.595,222.334 182.982,222.382C183.827,222.489 185.068,222.413 186.706,222.172C188.937,221.843 191.571,221.185 194.606,220.202C196.074,219.076 197.73,218.11 199.574,217.306C202.951,215.834 206.364,215.234 209.81,215.502C213.335,215.775 216.13,217.036 218.207,219.258C219.801,220.963 220.705,222.707 220.951,224.475C221.205,226.299 220.649,228.064 219.241,229.757C217.439,231.926 215.042,233.097 212.043,233.257C209.136,233.412 206.418,232.93 203.89,231.814C201.597,230.802 199.667,229.589 198.097,228.18C197.497,228.706 196.951,229.264 196.461,229.855C195.455,231.065 194.815,232.256 194.558,233.439C194.331,234.483 194.566,235.385 195.272,236.141C195.853,236.762 196.587,237.325 197.473,237.836C198.383,238.361 199.598,238.839 201.113,239.278C202.625,239.714 204.517,239.817 206.79,239.602C208.75,239.417 210.831,238.96 213.034,238.235C215.405,236.883 218.889,235.002 223.487,232.594C223.487,232.594 222.116,231.128 222.116,231.128C221.859,230.853 221.76,230.511 221.864,230.094C221.962,229.698 222.174,229.461 222.429,229.332L225.267,227.795C225.275,227.791 225.284,227.786 225.293,227.782C225.92,227.478 226.463,227.581 226.925,228.076C226.925,228.076 228.652,229.922 228.652,229.922C231.046,228.678 235.252,226.495 241.272,223.373C241.589,223.199 241.883,223.142 242.146,223.166C242.454,223.193 242.737,223.326 242.983,223.589C242.983,223.589 247.074,227.966 247.074,227.966C247.306,228.214 247.422,228.538 247.367,228.954C247.309,229.394 247.076,229.695 246.667,229.849C241.151,232.743 237.101,234.859 234.518,236.198C234.518,236.198 236.663,238.492 236.663,238.492C236.92,238.768 237.019,239.109 236.915,239.526C236.833,239.859 236.647,240.124 236.356,240.319C236.337,240.331 236.318,240.343 236.297,240.354L233.486,241.839C232.859,242.143 232.316,242.039 231.854,241.545C231.854,241.545 229.353,238.869 229.353,238.869C221.968,242.765 217.247,245.335 215.19,246.583C213.164,247.811 211.66,249.004 210.688,250.173C210.299,250.642 210.13,251.016 210.43,251.337C210.783,251.714 211.334,251.955 212.063,252.103C212.908,252.273 213.973,252.307 215.255,252.211C217.507,252.045 220.295,251.42 223.619,250.346C223.862,250.188 224.11,250.032 224.363,249.879C226.717,248.449 229.161,247.353 231.693,246.591C234.272,245.815 236.848,245.634 239.422,246.047C242.055,246.469 244.195,247.57 245.848,249.338C247.64,251.256 248.277,253.363 247.761,255.657C248.246,255.533 248.675,255.677 249.051,256.079L251.657,258.866C253.242,251.187 254.074,243.233 254.074,235.085C254.074,179.986 215.989,133.713 164.723,121.176ZM93.065,254.373C92.686,254.936 92.218,255.437 91.68,255.854L93.838,257.628C93.838,257.628 93.065,254.373 93.065,254.373ZM177.771,247.63L179.977,246.275L180.242,243.924L182.271,245.453L184.683,244.775L183.889,247.511L185.242,249.569L182.534,249.452L180.947,251.158L180.094,248.718L177.771,247.63ZM19.892,243.913L30.396,239.854L39.892,245.33L30.696,251.158L20.154,246.913C20.055,245.921 19.967,244.919 19.892,243.913ZM85.767,245.33L71.954,250.362L62.099,245.33L72.204,240.111L85.767,245.33ZM177.12,225.292L168.771,246.775L175.154,243.424L175.802,234.426L183.007,240.159L188.744,238.565C187.38,236.563 186.884,234.334 187.249,231.881C187.501,230.192 188.057,228.531 188.921,226.899C188.795,226.934 188.67,226.969 188.547,227.002C186.138,227.654 184.188,227.903 182.701,227.772C181.159,227.636 180.012,227.353 179.252,226.954C178.581,226.601 177.869,226.05 177.12,225.292ZM90.909,245.299L90.892,245.226C90.821,245.263 90.748,245.297 90.675,245.33C90.767,245.374 90.859,245.418 90.949,245.466L90.909,245.299ZM136.951,215.603L134.158,214.25L133.128,238.953L124.099,244.982L114.747,230.777L121.159,213.484L107.513,216.397L113.805,208.336L131.216,209.631L135.804,211.22L136.951,215.603ZM108.423,237.6L102.159,237.308L98.513,241.218L96.601,235.629L91.221,233.158L96.278,230.041L96.897,224.63L101.543,228.16L107.101,226.542L105.276,232.835L108.423,237.6ZM33.617,215.144L45.803,224.221L44.798,234.574L35.216,230.049L33.617,215.144ZM68.374,215.144L65.894,229.603L57.193,234.572L57.247,224.607L68.374,215.144ZM176.554,224.675C175.553,223.453 175.083,221.934 175.164,220.111C175.224,218.772 175.583,217.51 176.244,216.326C174.559,216.709 173.15,216.873 172.019,216.824C170.469,216.757 169.271,216.531 168.422,216.167C167.551,215.795 166.714,215.188 165.918,214.337C164.724,213.059 164.178,211.449 164.306,209.5C164.43,207.616 165.15,205.872 166.481,204.271C167.751,202.743 169.616,201.196 172.085,199.639C174.499,198.117 178.541,196.073 184.214,193.51C184.766,193.241 185.19,192.944 185.474,192.603C185.84,192.162 185.965,191.462 185.916,190.511C182.596,192.127 177.94,194.063 171.949,196.317C171.853,196.4 171.741,196.465 171.611,196.511C168.071,197.849 165.147,198.842 162.837,199.49C160.449,200.16 158.529,200.439 157.08,200.346C155.566,200.249 154.43,199.984 153.666,199.582C153.35,199.415 153.027,199.208 152.699,198.959L150.596,205.25L155.861,214.22L145.892,213.72L140.422,219.337L153.743,230.337L176.554,224.675ZM215.517,223.176C215.579,223.242 215.628,223.303 215.635,223.374C215.568,223.815 215.291,224.21 214.845,224.588C214.282,225.066 213.469,225.498 212.412,225.899C212.409,225.9 212.406,225.901 212.403,225.902C209.033,227.234 205.59,227.03 202.071,225.313C204.633,223.858 207.232,222.893 209.869,222.423C211.314,222.165 212.528,222.104 213.512,222.254C214.382,222.387 215.056,222.682 215.517,223.176ZM81.367,214.368L80.453,215.505C80.529,216.287 80.46,217.092 80.222,217.88C80.209,217.926 80.195,217.97 80.178,218.015L78.666,222.142L85.066,218.437C86.073,217.855 87.185,217.602 88.282,217.649L88.425,215.19L81.367,214.368ZM64.079,143.141L70.546,145.608L72.309,151.812L72.104,167.459L61.28,174.605L73.22,179.604L77.192,191.927L84.455,182.341L94.748,183.163L94.574,185.811L78.604,196.25L83.984,199.367L80.191,200.339L72.897,194.369L71.956,203.573L68.783,205.8L68.77,205.788C66.245,203.605 62.358,203.809 60.085,206.234C60.052,206.269 60.022,206.305 59.993,206.34L57.193,209.706L57.193,202.293C57.193,198.979 54.444,196.242 50.997,196.242C47.547,196.242 44.798,198.979 44.798,202.293L44.798,209.706L41.998,206.34C41.969,206.305 41.939,206.269 41.906,206.234C39.633,203.809 35.746,203.605 33.221,205.788C31.676,207.124 30.977,209.024 31.152,210.871C29.641,209.796 27.649,209.456 25.722,210.131C22.578,211.23 20.81,214.7 21.769,217.88C21.783,217.926 21.796,217.97 21.813,218.015L23.325,222.142L20.466,220.486C24.353,189.233 40.563,161.778 64.079,143.141ZM85.514,207.014L88.102,200.839L96.601,204.074L99.043,213.808L89.278,205.925L89.132,206.044L88.308,210.955L85.514,207.014ZM82.514,210.544L80.985,208.221L81.867,205.193L79.19,205.955L76.956,204.28L76.662,206.868L74.192,208.398L76.81,209.574L77.123,210.504C77.62,210.767 78.073,211.095 78.475,211.475L79.486,210.398L82.514,210.544ZM146.862,208.692L143.215,208.544L141.127,210.807L140.01,207.573L136.892,206.132L139.834,204.309L140.185,201.192L142.862,203.219L146.098,202.31L145.039,205.955L146.862,208.692ZM149.947,195.465C149.658,194.641 149.534,193.732 149.579,192.739C149.641,191.354 150.022,190.051 150.727,188.832C146.421,189.771 143.318,189.139 141.403,187.09C139.809,185.385 139.186,183.327 139.546,180.911C139.66,180.14 139.864,179.365 140.158,178.587C138.285,178.05 136.252,177.311 134.326,176.516C133.877,177.024 133.441,177.532 133.018,178.041C132.313,178.89 131.793,179.657 131.465,180.349C131.176,180.956 131.01,181.413 131.014,181.734C131.019,182.132 131.015,182.5 131.003,182.837C130.986,183.325 130.831,183.734 130.552,184.069C129.997,184.737 128.894,185.048 127.198,184.758C126.508,184.64 125.856,184.422 125.243,184.105L122.306,192.398L129.863,203.515L134.01,201.427L135.422,189.809L143.481,197.28L149.947,195.465ZM103.629,192.104L104.248,186.693L108.894,190.222L114.453,188.605L112.601,194.897L115.777,199.663L109.482,199.367L105.835,203.281L103.923,197.691L98.543,195.22L103.629,192.104ZM165.281,178.417C163.143,179.535 161.352,180.536 159.907,181.42C155.649,183.106 152.396,184.009 150.144,184.103C148.855,184.157 147.935,183.969 147.415,183.413C147.163,183.143 147.126,182.75 147.215,182.252C147.331,181.6 147.695,180.928 148.281,180.223C149.7,178.516 151.766,176.841 154.473,175.188C157.188,173.531 159.884,172.391 162.563,171.773C164.995,171.212 166.698,171.332 167.647,172.347C168.128,172.861 168.115,173.632 167.775,174.648C167.37,175.859 166.533,177.11 165.283,178.415L165.281,178.417ZM77.897,171.429L78.337,167.43L81.778,170.016L85.896,168.84L84.543,173.488L86.866,177.018L82.22,176.782L79.544,179.693L78.132,175.546L74.133,173.723L77.897,171.429ZM122.084,176.243C122.66,174.488 123.83,172.53 125.622,170.373C129.621,165.562 135.661,160.66 143.75,155.679C147.301,153.493 150.794,151.561 154.23,149.881C149.954,151.319 146.022,152.66 142.434,153.905C138.429,155.295 133.995,156.59 129.133,157.789C124.254,158.992 119.987,159.694 116.343,159.897C114.951,160.052 113.582,160.061 112.238,159.925C111.973,159.938 111.758,159.867 111.584,159.746C111.344,159.578 111.146,159.282 111.115,158.799C111.138,159.15 111.429,159.423 111.781,159.423L111.115,158.725L111.127,158.365C111.147,157.784 111.43,157.34 112.011,157.058C112.039,157.045 112.068,157.033 112.097,157.024C114.352,156.296 116.774,154.898 119.371,152.842C122.018,150.746 124.595,148.404 127.1,145.818C129.625,143.211 132.161,140.592 134.705,137.962C137.269,135.312 140.035,132.794 143.005,130.407C143.426,130.069 143.844,129.743 144.265,129.426C142.909,130.046 141.484,130.73 139.99,131.48C135.243,133.863 130.855,136.185 126.828,138.447C122.778,140.721 118.744,142.819 114.725,144.741C110.641,146.695 107.012,147.853 103.841,148.228C102.78,148.354 101.799,148.361 100.897,148.251L102.984,150.225L112.042,147.785L109.747,157.196L114.276,164.488L105.19,163.989L99.925,169.899L109.924,179.399L122.084,176.243ZM94.514,161.341L96.985,162.165L98.159,168.871L95.955,167.105L95.131,178.694L90.337,172.399L94.514,161.341ZM83.074,163.666L76.485,157.665L83.337,148.607L95.69,149.489L95.338,154.195L88.573,158.167L92.865,160.636L83.074,163.666ZM106.1,159.665L103.07,159.548L101.308,161.429L100.396,158.724L97.779,157.519L100.248,156.018L100.544,153.43L102.778,155.108L105.455,154.343L104.571,157.371L106.1,159.665ZM112.221,159.257C112.1,159.364 111.943,159.423 111.781,159.423C111.781,159.423 112.015,159.405 112.205,159.258L112.221,159.257ZM152.929,118.93C147.656,118.204 142.281,117.829 136.819,117.829C129.313,117.829 121.97,118.536 114.853,119.888C115.04,120.269 115.292,120.628 115.607,120.966C116.846,122.291 118.58,122.751 120.791,122.412C123.062,122.065 124.728,121.298 125.76,120.055C126.137,119.602 126.533,119.535 126.819,119.602C126.997,119.643 127.174,119.74 127.327,119.927C127.472,120.105 127.62,120.432 127.709,120.918C128.037,122.27 127.714,123.557 126.705,124.772C124.814,127.047 122.002,128.458 118.247,128.964C114.454,129.474 111.291,128.368 108.754,125.654C107.748,124.578 107.002,123.29 106.522,121.788C102.218,122.938 98.012,124.326 93.918,125.938L90.279,137.638L96.043,146.373L96.118,145.908C94.658,144.342 93.998,142.238 94.188,139.58C94.374,136.967 95.086,134.948 96.284,133.507C96.796,132.89 97.298,132.457 97.778,132.193C98.578,131.755 99.146,131.902 99.475,132.254C99.526,132.308 99.605,132.409 99.652,132.584C99.683,132.699 99.716,132.972 99.736,133.404C99.748,133.668 99.807,133.884 99.95,134.037C100.583,134.713 101.243,135.231 101.936,135.583C102.631,135.936 103.696,136.117 105.125,136.163C106.624,136.212 108.374,135.953 110.377,135.395C112.437,134.821 115.157,133.819 118.541,132.39C121.943,130.954 125.841,129.076 130.236,126.757C130.236,126.757 130.237,126.757 130.237,126.757C139.105,122.108 146.671,119.508 152.929,118.93ZM75.665,135.043C76.512,134.523 77.364,134.016 78.223,133.519L79.749,134.667L84.19,133.374L82.72,138.431L85.251,142.255L80.22,142.02L77.309,145.137L75.78,140.668L71.456,138.668L75.543,136.168L75.665,135.043ZM153.862,80.436L179.889,104.287L180.419,105.288L180.29,105.606L180.195,106.039L180.189,106.092C174.413,104.148 168.461,102.581 162.366,101.421L161.821,100.432L161.261,99.409L160.126,97.318C160.038,97.141 159.95,96.995 159.89,96.847C157.125,91.759 155.303,86.083 153.862,80.436ZM126.011,79.759C123.982,85.819 121.482,91.818 117.923,97.024L117.894,97.024C117.835,97.141 117.775,97.229 117.687,97.318C117.658,97.406 117.57,97.523 117.452,97.671L117.042,98.249L116.246,99.381L115.61,100.266L115.274,100.721C108.993,101.722 102.856,103.153 96.893,104.984L96.631,104.2L98.278,101.641L126.011,79.759ZM140.465,49.848L140.627,49.852C142.334,49.909 143.98,50.645 145.127,51.938C146.303,53.174 146.951,54.849 146.862,56.556C146.803,58.291 146.038,59.908 144.803,61.086C143.509,62.26 141.863,62.879 140.128,62.819C138.421,62.762 136.775,62.026 135.628,60.733C134.452,59.497 133.804,57.82 133.864,56.115C133.952,54.35 134.717,52.763 135.95,51.587C137.096,50.519 138.581,49.913 140.141,49.852L140.465,49.848ZM212.533,14.49L212.739,14.493C220.061,14.64 222.354,22.1 218.297,30.998C205.399,42.147 189.145,48.573 172.115,49.219L171.713,49.233C178.065,33.087 191.329,20.618 207.857,15.296C209.586,14.744 211.148,14.488 212.533,14.49ZM70.673,9.257C72.254,9.253 74.061,9.626 76.074,10.442C92.16,16.971 104.454,30.352 109.63,46.91C92.543,45.117 76.633,37.47 64.545,25.293C61.224,16.382 63.823,9.274 70.673,9.257Z" style="fill:none;stroke:rgb(255,0,0);stroke-width:1px;"/>
</svg>
