<?xml version="1.0" encoding="UTF-8" standalone="no"?>
<!DOCTYPE svg PUBLIC "-//W3C//DTD SVG 1.1//EN" "http://www.w3.org/Graphics/SVG/1.1/DTD/svg11.dtd">
<svg width="100%" height="100%" viewBox="0 0 1123 794" version="1.1" xmlns="http://www.w3.org/2000/svg" xmlns:xlink="http://www.w3.org/1999/xlink" xml:space="preserve" xmlns:serif="http://www.serif.com/" style="fill-rule:evenodd;clip-rule:evenodd;stroke-linejoin:round;stroke-miterlimit:2;">
    <path d="M144.768,40.265C146.525,40.302 148.11,40.912 149.422,41.91C150.863,43.057 151.891,44.704 152.273,46.587C152.802,46.587 182.859,16.178 188.975,12.177C194.836,8.337 202.831,5.966 211.003,5.93C211.404,5.929 211.807,5.932 212.21,5.942C221.975,6.413 230.502,10.413 234.032,19.412C239.942,32.998 232.913,47.381 232.854,60.821C232.825,76.702 247.707,93.348 235.179,108.435C229.972,113.729 222.856,118.846 215.857,121.903L215.797,121.903L214.909,122.185L213.44,122.66C235.271,137.575 252.544,158.68 262.718,183.428L263.146,184.482L263.635,185.717L264.183,187.147L264.715,188.58L264.956,189.247L265.465,190.694L265.958,192.147L266.475,193.735L266.941,195.223L267.39,196.719L267.822,198.222L268.318,200.033L268.765,201.757L269.14,203.283L269.499,204.816L269.84,206.356L270.097,207.582L270.267,208.418L270.567,209.973L270.849,211.533L271.113,213.1L271.309,214.338L271.419,215.073L271.66,216.779L271.864,218.366L272.05,219.958L272.182,221.204L272.257,221.958L272.366,223.158L272.397,223.517L272.519,225.075L272.624,226.63L272.71,228.177L272.746,228.945L272.807,230.524L272.85,232.102C272.861,232.627 272.87,233.152 272.875,233.676L272.882,235.204L272.88,235.812C272.877,236.27 272.873,236.727 272.866,237.183L272.845,238.277C272.836,238.637 272.827,238.997 272.816,239.357L272.77,240.666L272.707,242.056L272.66,242.916C272.616,243.693 272.566,244.469 272.509,245.242L272.378,246.891L272.235,248.448L272.115,249.632L271.964,250.996L271.773,252.558L271.607,253.813L271.429,255.064L271.176,256.717L270.983,257.897L270.743,259.275L270.405,261.091L270.108,262.584L269.863,263.752L269.428,265.714L269.074,267.212L268.795,268.344L268.42,269.801L268.042,271.21L267.725,272.344L267.361,273.601L266.892,275.16L266.363,276.838L265.822,278.487L265.452,279.56L265.025,280.738L264.863,281.178C264.752,281.514 264.639,281.848 264.5,282.186C263.205,285.714 261.764,289.155 260.177,292.537C259.764,293.448 259.353,294.331 258.911,295.213C258.206,296.654 257.441,298.096 256.707,299.508C256.647,299.565 256.619,299.654 256.588,299.713C255.177,302.329 253.677,304.919 252.09,307.419L251.385,308.513L250.98,309.103L250.316,310.136L249.767,310.943L249.354,311.546L249.354,311.565C249.088,312.005 248.794,312.416 248.472,312.829C247.32,314.5 246.13,316.138 244.904,317.745L244.816,317.86C243.221,319.948 241.565,321.984 239.854,323.976L239.073,324.871L238.079,325.991L237.478,326.655L236.874,327.314L236.265,327.97L235.652,328.622L235.034,329.27L234.413,329.913L233.787,330.553L233.157,331.188L232.523,331.819L231.885,332.446L231.243,333.069L230.597,333.688L229.946,334.303L229.292,334.913L228.634,335.519L227.305,336.718L225.961,337.9L224.601,339.064L223.226,340.21L221.835,341.339L220.43,342.45L219.251,343.358L218.294,344.082L217.12,344.95L216.125,345.672L214.957,346.501L213.924,347.22L212.763,348.011L211.691,348.725L210.538,349.478L209.428,350.187L208.283,350.903L207.134,351.605L205.999,352.284L204.81,352.979L203.686,353.621L202.128,354.488L200.557,355.336L199.718,355.777L198.921,356.19L198.122,356.597L197.319,356.999L196.514,357.396L195.706,357.788L194.894,358.175L194.08,358.556L193.263,358.932L192.443,359.303L191.621,359.668L190.795,360.029L189.967,360.383L189.136,360.733L188.303,361.077L187.466,361.416L186.627,361.749L185.472,362.197L184.208,362.674L183.508,362.932C175.658,365.798 167.471,367.962 159.021,369.348L157.605,369.572L156.197,369.781L154.318,370.035L152.436,370.263L150.549,370.465L148.516,370.653L146.646,370.8L144.654,370.927L142.787,371.02L140.923,371.087L139.53,371.121L138.144,371.142L136.819,371.148L135.472,371.141L135.01,371.136L133.308,371.103L132.116,371.068L131.571,371.048C131.011,371.027 130.452,371.002 129.893,370.974L128.91,370.921L128.07,370.87L126.787,370.783L125.344,370.67L124.595,370.605L123.757,370.528L122.78,370.431L121.461,370.29L119.917,370.108L119.147,370.01L118.622,369.94C61.059,362.253 14.891,318.582 3.474,262.277L3.239,261.09L2.955,259.579L2.689,258.062L2.439,256.54L2.206,255.012L1.989,253.478L1.79,251.939L1.609,250.395L1.444,248.846L1.295,247.267L1.199,246.139L1.071,244.412L1.03,243.782L0.93,242.013L0.887,241.098L0.867,240.61L0.814,239.101L0.782,237.765L0.762,236.427L0.756,235.069L0.761,233.92L0.78,232.504L0.814,231.055L0.874,229.343L0.941,227.924L1.04,226.215L1.16,224.51L1.339,222.399L1.503,220.733L1.754,218.52L1.965,216.867L2.116,215.769L2.36,214.126L2.623,212.491L2.832,211.276L3.004,210.32L3.25,209.022L3.391,208.305L3.7,206.805L3.847,206.115L4.228,204.413L4.525,203.156L4.699,202.441L5.07,200.971L5.248,200.286L5.705,198.602L6.047,197.393L6.255,196.679L6.685,195.245L7.142,193.78L7.652,192.213L8.179,190.657L8.724,189.112L9.286,187.576L9.865,186.051L10.462,184.535L11.076,183.028L11.589,181.809L12.228,180.334L12.884,178.867L13.557,177.41L14.247,175.963L14.953,174.524L15.675,173.096L16.414,171.677L17.169,170.268L17.681,169.334L18.2,168.404L18.727,167.479L19.26,166.559L19.8,165.643L20.347,164.732L20.901,163.825L21.462,162.923L21.995,162.081C24.011,158.918 26.155,155.843 28.418,152.865L29.105,151.969L30.119,150.673L31.137,149.404L32.163,148.156L33.2,146.924L34.249,145.708L35.309,144.506L36.64,143.037L37.833,141.756L39.206,140.322L40.549,138.958L41.845,137.678L43.198,136.376L44.743,134.932L46.31,133.513L47.5,132.464L48.702,131.429L49.916,130.407L51.142,129.4L52.38,128.406L53.63,127.427L54.892,126.462L56.165,125.511L57.449,124.575L58.745,123.654L60.052,122.747L61.369,121.855L62.698,120.978L64.037,120.117L64.936,119.551L65.84,118.992C65.398,118.817 65.044,118.669 64.75,118.492L64.722,118.492C55.281,115.374 48.341,108.758 41.958,101.287C30.577,85.318 46.666,69.791 47.751,53.967C48.723,40.557 42.782,25.706 49.694,12.56C53.84,3.853 62.664,0.531 72.427,0.768C81.014,1.208 89.338,4.267 95.161,8.707C107.57,18.236 119.159,31.999 128.776,45.146C128.776,44.116 130.394,42.292 132.157,41.293C133.276,40.617 134.598,40.263 136.01,40.263L144.597,40.263L144.768,40.265ZM233.106,301.981L233,302.134C230.483,303.681 227.993,305.253 225.474,306.802C223.721,307.892 224.466,310.555 226.475,310.623C225.699,311.543 224.907,312.453 224.102,313.349L223.767,313.36C222.62,313.389 221.681,314.328 221.65,315.475C221.645,315.641 221.659,315.803 221.69,315.957C200.328,338.368 170.192,352.34 136.819,352.34C129.603,352.34 122.539,351.687 115.679,350.436L134.186,327.506L164.772,329.681L159.508,320.888L165.184,312.093L175.802,312.975L170.243,303.566L173.565,295.625L181.093,299.3L186.535,320.035L200.475,303.418L218.297,304.448C218.326,304.8 218.445,305.153 218.65,305.447C219.327,306.417 220.62,306.683 221.621,306.066C224.267,304.448 226.915,302.799 229.591,301.155C230.762,301.438 231.935,301.697 233.106,301.981ZM107.895,341.033L113.364,348.678L110.159,337.003L107.895,341.033ZM104.571,345.769L100.63,345.592L99.878,346.393C99.065,346.123 98.255,345.844 97.449,345.556L97.102,344.532L93.718,342.975L96.925,341.004L97.306,337.591L100.219,339.797L103.749,338.798L102.571,342.768L104.571,345.769ZM85.131,273.303L79.354,270.4L80.178,272.648C80.193,272.692 80.209,272.736 80.222,272.78C81.181,275.96 79.411,279.432 76.27,280.531C74.342,281.206 72.35,280.866 70.84,279.792C71.014,281.638 70.315,283.537 68.77,284.872C67.596,285.888 66.126,286.394 64.662,286.394C62.977,286.394 61.301,285.725 60.085,284.426C60.052,284.392 60.022,284.357 59.993,284.321L57.193,280.956L57.193,288.369C57.193,291.684 54.444,294.418 50.997,294.418C47.547,294.418 44.798,291.684 44.798,288.369L44.798,280.956L41.998,284.321C41.969,284.357 41.939,284.392 41.906,284.426C39.633,286.853 35.746,287.057 33.221,284.874L33.221,284.872C31.676,283.537 30.977,281.638 31.152,279.792C30.457,280.285 29.66,280.624 28.814,280.779C39.992,307.142 60.547,328.582 86.29,340.908L91.19,337.739L92.396,325.651L101.189,333.062L108.66,330.739L105.749,320.828L76.779,308.771L84.691,302.624L82.543,295.744L74.367,291.949L81.926,286.273L82.749,277.684L87.308,281.333L85.131,273.303ZM117.923,310.182L108.954,306.066L117.395,300.861L118.423,291.83L126.187,297.713L135.451,295.037L132.392,305.535L137.657,313.475L127.187,312.975L121.099,319.533L117.923,310.182ZM158.478,319.476L151.155,307.801L156.126,310.066L158.478,319.476ZM156.891,305.007L159.832,303.212L160.184,300.067L162.889,302.125L166.096,301.183L165.036,304.83L166.861,307.595L163.243,307.419L161.125,309.711L160.007,306.448L156.891,305.007ZM169.832,294.508L163.95,296.566L155.684,289.92L154.539,300.772L148.686,303.77L158.714,273.038L151.862,274.421L157.803,267.421L179.124,269.362L177.948,279.302L160.979,290.508L169.832,294.508ZM223.767,299.771C222.62,300.476 221.444,301.212 220.268,301.948L218.827,299.713C219.267,299.448 219.709,299.183 220.151,298.889C221.356,299.183 222.561,299.477 223.767,299.771ZM91.073,297.625L88.014,301.654L94.543,297.832L91.073,297.625ZM216.897,267.657L210.092,286.304L214.679,293.332C214.886,293.39 215.092,293.448 215.297,293.478C215.003,293.008 214.709,292.537 214.444,292.068C213.827,291.067 214.15,289.772 215.209,289.213C216.208,288.655 217.503,289.009 218.12,289.979C219.121,291.624 220.12,293.244 221.091,294.862C222.326,295.154 223.533,295.448 224.738,295.744C223.798,294.214 222.885,292.712 221.975,291.213C221.356,290.183 221.681,288.89 222.737,288.331C223.738,287.802 225.032,288.125 225.65,289.124C227.268,291.772 228.915,294.449 230.531,297.123C231.737,297.39 232.973,297.682 234.178,297.978C232.591,295.39 231.002,292.802 229.414,290.214C228.325,288.419 230.296,286.304 232.178,287.303C234.692,288.656 237.18,290.008 239.692,291.362L239.958,290.875C239.678,289.929 239.398,288.992 239.12,288.037C236.355,286.567 233.619,285.068 230.856,283.596C229.854,283.068 229.414,281.773 229.914,280.745C229.974,280.614 230.045,280.493 230.126,280.382C229.674,280.265 229.288,280.12 228.968,279.951C228.209,279.552 227.416,278.919 226.596,278.042C225.37,276.73 224.791,275.088 224.88,273.109C224.942,271.723 225.324,270.42 226.028,269.201C221.864,270.11 218.825,269.549 216.897,267.657ZM202.504,293.509L195.447,293.184L191.358,297.567L189.212,291.301L183.182,288.507L188.858,285.008L189.565,278.948L194.77,282.891L201.006,281.098L198.946,288.154L202.504,293.509ZM92.631,293.39L89.278,293.213L87.308,295.331L86.279,292.331L83.396,291.007L86.132,289.332L86.455,286.419L88.926,288.302L91.926,287.449L90.927,290.83L92.631,293.39ZM95.661,275.126L103.66,275.774L102.836,292.331L98.924,294.566L95.807,289.772L98.543,281.596L89.338,283.271L95.661,275.126ZM236.867,280.19C235.928,280.413 235.073,280.566 234.303,280.652C235.34,281.21 236.377,281.764 237.414,282.332C237.278,281.868 237.08,281.068 236.867,280.19ZM242.914,278.336C242.19,278.588 241.5,278.821 240.845,279.034C241.055,279.897 241.249,280.679 241.383,281.125C241.896,280.19 242.409,279.264 242.914,278.336ZM98.806,255.804L106.454,245.776L120.717,247.071L112.218,252.716L135.51,262.245L139.303,278.155L128.657,280.979L104.542,260.512L103.66,269.596L100.984,266.009L104.69,255.07L98.806,255.804ZM33.617,275.518L35.978,260.906L44.798,256.088L45.284,265.759L33.617,275.518ZM68.374,275.516L56.423,266.816L57.193,256.088L66.785,261.932L68.374,275.516ZM250.765,262.837C243.78,266.475 239.201,268.969 237.028,270.319C234.747,271.737 233.149,272.98 232.246,274.067C231.861,274.53 231.659,274.879 231.936,275.175C232.066,275.315 232.327,275.352 232.686,275.39C233.503,275.476 234.709,275.382 236.306,275.122C239.065,274.672 242.524,273.688 246.683,272.175C246.733,272.157 246.785,272.145 246.837,272.139C247.222,272.096 247.471,272.232 247.625,272.397C247.731,272.511 247.82,272.666 247.843,272.869C248.961,269.588 249.938,266.241 250.765,262.837ZM215.756,266.221C214.875,264.785 214.571,263.138 214.847,261.28C215.073,259.758 215.647,258.222 216.574,256.676C216.543,256.684 216.511,256.693 216.48,256.701C214.138,257.322 212.235,257.59 210.771,257.521C209.232,257.449 208.084,257.193 207.318,256.79C206.562,256.393 205.734,255.723 204.843,254.771C203.5,253.333 202.88,251.732 202.961,249.977C203.039,248.285 203.544,246.687 204.479,245.183C205.362,243.763 206.298,242.398 207.286,241.09C208.222,239.851 208.918,238.679 209.369,237.571C209.717,236.718 209.732,236.041 209.272,235.55C209.272,235.55 209.255,235.531 209.255,235.531L195.097,242.867C195.092,242.869 195.086,242.872 195.081,242.875C194.433,243.189 193.91,243.074 193.501,242.636L191.44,240.432L189.181,246.452L193.977,254.57L184.8,253.892L181.418,258.158L196.505,270.363L215.756,266.221ZM95.955,263.598C95.955,263.598 93.726,264.232 93.726,264.232C94.485,265.959 94.443,268.037 93.413,269.845L96.72,269.979C96.72,269.979 94.896,267.246 94.896,267.246L95.955,263.598ZM240.582,258.786C238.444,259.904 236.653,260.905 235.209,261.789C230.95,263.475 227.697,264.378 225.445,264.472C224.157,264.526 223.236,264.339 222.716,263.783C222.464,263.512 222.428,263.12 222.516,262.621C222.632,261.969 222.996,261.297 223.582,260.592C225.001,258.885 227.068,257.21 229.775,255.558C232.49,253.9 235.185,252.76 237.864,252.142C240.296,251.581 242,251.701 242.949,252.716C243.429,253.23 243.416,254.001 243.076,255.017C242.671,256.228 241.834,257.479 240.584,258.784L240.582,258.786ZM169.743,249.334L176.007,252.188L179.241,263.569L169.743,249.334ZM137.657,250.424L144.568,246.216L145.391,238.864L151.685,243.658L159.242,241.481L156.745,250.011L161.037,256.48L152.508,256.069L147.568,261.394L144.979,253.804L137.657,250.424ZM165.503,121.37C166.099,122.341 166.707,123.371 167.329,124.458C168.314,126.181 169.133,127.524 169.787,128.488C172.356,129.308 174.535,130.676 176.324,132.59C176.967,133.278 177.369,134.121 177.521,135.125C177.685,136.198 177.448,137.095 176.843,137.822C175.968,138.875 174.914,139.435 173.695,139.523C172.467,139.613 171.311,139.119 170.252,137.986C169.799,137.502 169.335,136.943 168.86,136.31C167.04,136.743 165.093,137.748 163.01,139.309C160.71,141.033 158.652,142.891 156.836,144.882C154.992,146.905 152.701,149.386 149.965,152.325C147.992,154.444 146.21,156.262 144.618,157.78C146.691,157.296 149.024,156.648 151.616,155.838C155.263,154.698 158.524,153.612 161.4,152.578C164.305,151.535 167.458,150.607 170.86,149.795C174.276,148.98 177.337,148.474 180.043,148.275C182.803,148.071 185.526,148.398 188.212,149.256C190.925,150.122 193.271,151.612 195.25,153.729C196.497,155.063 196.858,156.591 196.339,158.311C196.338,158.314 196.337,158.317 196.336,158.32C196.187,158.791 195.998,159.082 195.834,159.228C195.654,159.388 195.463,159.453 195.276,159.461C195.048,159.47 194.79,159.395 194.55,159.138C192.907,157.38 189.942,157.042 185.685,157.917C181.177,158.844 176.302,160.722 171.057,163.545C165.777,166.386 160.411,169.917 154.958,174.137C151.491,176.82 148.406,179.517 145.702,182.229C148.077,182.552 150.531,182.341 152.621,181.436C153.912,180.146 155.449,178.958 157.233,177.874C159.588,176.444 162.031,175.349 164.563,174.586C167.142,173.81 169.718,173.63 172.293,174.042C174.925,174.464 177.065,175.565 178.718,177.333C180.511,179.251 181.148,181.358 180.631,183.653C181.116,183.528 181.545,183.672 181.921,184.074C181.921,184.074 186.065,188.507 186.065,188.507C186.322,188.782 186.421,189.123 186.318,189.541C186.235,189.874 186.05,190.139 185.759,190.333C185.738,190.347 185.717,190.359 185.695,190.371C177.695,194.519 172.517,197.323 170.163,198.787C167.882,200.204 166.284,201.448 165.381,202.534C164.996,202.997 164.794,203.346 165.071,203.643C165.201,203.782 165.462,203.82 165.821,203.858C166.638,203.944 167.844,203.849 169.441,203.589C171.844,203.198 174.777,202.4 178.242,201.202C184.633,198.682 189.741,196.374 193.567,194.277C193.566,193.021 193.87,192.069 194.42,191.407C195.373,190.261 196.378,189.648 197.399,189.51C198.512,189.36 199.437,189.687 200.178,190.479C200.819,191.165 201.121,192.024 201.063,193.065C201.008,194.041 200.623,194.977 199.886,195.863C199.775,195.998 199.641,196.127 199.484,196.25C199.484,196.25 199.552,196.721 199.552,196.721C199.83,198.045 200.02,199.061 200.121,199.769C200.224,200.486 200.311,201.402 200.382,202.517C200.457,203.701 200.358,204.727 200.095,205.596C199.825,206.489 199.417,207.259 198.876,207.909C198.337,208.559 197.586,209.125 196.614,209.596C196.61,209.598 196.605,209.601 196.6,209.603C187.283,213.858 181.758,216.97 180.065,219.007C179.646,219.511 179.446,219.9 179.74,220.227C179.767,220.238 179.934,220.305 180.068,220.332C180.364,220.391 180.755,220.418 181.239,220.419C182.283,220.421 184.023,220.13 186.461,219.56C188.897,218.991 191.692,218.139 194.843,217.006C197.754,215.372 201.919,213.144 207.338,210.322C207.343,210.319 207.349,210.316 207.355,210.314C207.981,210.01 208.525,210.113 208.987,210.608L209.338,210.983C209.42,209.854 209.97,208.819 211.023,207.896C212.087,206.964 213.336,206.416 214.77,206.256C216.252,206.09 217.489,206.389 218.488,207.118C219.551,207.893 220.067,208.918 220.044,210.187C220.023,211.406 219.472,212.519 218.349,213.503C217.285,214.436 216.036,214.983 214.601,215.143C214.117,215.198 213.659,215.202 213.227,215.158C213.411,215.411 213.472,215.714 213.383,216.074C213.301,216.407 213.115,216.672 212.824,216.867C212.804,216.88 212.783,216.893 212.761,216.904C204.066,221.416 198.458,224.443 195.94,225.986C193.498,227.482 191.818,228.763 190.915,229.85C190.53,230.314 190.328,230.663 190.605,230.959C190.75,231.114 191.032,231.17 191.419,231.219C192.264,231.325 193.504,231.25 195.142,231.009C197.904,230.602 201.282,229.691 205.277,228.28L235.789,212.467C235.795,212.464 235.8,212.461 235.805,212.459C236.432,212.155 236.975,212.258 237.438,212.753C237.438,212.753 241.529,217.13 241.529,217.13C241.783,217.402 241.878,217.717 241.822,218.074C241.771,218.393 241.602,218.673 241.279,218.889C241.259,218.902 241.238,218.915 241.216,218.926C241.216,218.926 222.471,228.67 222.472,228.67C225.366,229.076 227.674,230.217 229.406,232.07C230.708,233.463 231.348,234.99 231.35,236.642C231.352,238.287 230.8,239.782 229.685,241.123C228.221,242.885 226.142,243.815 223.432,243.873C221.055,243.925 218.479,243.02 215.718,241.119C215.475,241.962 215.072,242.887 214.504,243.892C213.726,245.267 212.983,246.441 212.274,247.414C211.622,248.308 211.144,249.21 210.844,250.123C210.615,250.819 210.651,251.385 211.046,251.807C211.228,252.002 211.508,252.122 211.868,252.201C212.333,252.304 212.913,252.327 213.607,252.28C215.865,252.129 219.234,251.243 223.717,249.642C223.843,249.563 223.97,249.485 224.098,249.407C226.453,247.977 228.896,246.881 231.428,246.119C234.007,245.343 236.583,245.162 239.158,245.575C241.79,245.997 243.93,247.098 245.583,248.866C247.376,250.784 248.013,252.891 247.496,255.185C247.981,255.061 248.41,255.205 248.786,255.607L251.689,258.712C253.253,251.078 254.074,243.177 254.074,235.085C254.074,180.265 216.373,134.181 165.503,121.37ZM93.065,254.373C92.686,254.936 92.218,255.437 91.68,255.854L93.838,257.628C93.838,257.628 93.065,254.373 93.065,254.373ZM19.892,243.913L30.396,239.854L39.892,245.33L30.696,251.158L20.154,246.913C20.055,245.921 19.967,244.919 19.892,243.913ZM177.771,247.63L179.977,246.275L180.242,243.924L182.271,245.453L184.683,244.775L183.889,247.511L185.242,249.569L182.534,249.452L180.947,251.158L180.094,248.718L177.771,247.63ZM85.767,245.33L71.954,250.362L62.099,245.33L72.204,240.111L85.767,245.33ZM177.183,225.13L168.771,246.775L175.154,243.424L175.802,234.426L183.007,240.159L189.499,238.355L189.357,238.203C189.1,237.928 189.001,237.587 189.104,237.17C189.183,236.852 189.355,236.597 189.623,236.406C188.818,236.254 188.174,236.046 187.688,235.79C186.931,235.392 186.121,234.741 185.265,233.826C184.076,232.553 183.512,230.93 183.601,228.948C183.661,227.609 184.019,226.346 184.68,225.163C182.995,225.546 181.587,225.709 180.455,225.66C179.094,225.602 178.004,225.42 177.183,225.13ZM90.909,245.299L90.892,245.226C90.821,245.263 90.748,245.297 90.675,245.33C90.767,245.374 90.859,245.418 90.949,245.466L90.909,245.299ZM136.951,215.603L134.158,214.25L133.128,238.953L124.099,244.982L114.747,230.777L121.159,213.484L107.513,216.397L113.805,208.336L131.216,209.631L135.804,211.22L136.951,215.603ZM108.423,237.6L102.159,237.308L98.513,241.218L96.601,235.629L91.221,233.158L96.278,230.041L96.897,224.63L101.543,228.16L107.101,226.542L105.276,232.835L108.423,237.6ZM224.243,234.489C224.418,234.676 224.526,234.861 224.525,235.062C224.522,235.288 224.397,235.51 224.197,235.752C223.884,236.128 223.395,236.373 222.748,236.527C221.989,236.707 221.033,236.75 219.881,236.669C217.559,236.506 215.364,235.637 213.291,234.072C213.288,234.07 212.891,233.646 212.891,233.646C212.891,233.646 213.222,233.474 213.222,233.474C216.724,232.879 219.477,232.768 221.482,233.166C222.707,233.409 223.634,233.837 224.243,234.489ZM33.617,215.144L45.803,224.221L44.798,234.574L35.216,230.049L33.617,215.144ZM68.374,215.144L65.894,229.603L57.193,234.572L57.247,224.607L68.374,215.144ZM176.31,224.735C175.635,224.364 174.982,223.844 174.355,223.173C173.16,221.895 172.615,220.286 172.743,218.337C172.866,216.453 173.587,214.708 174.917,213.108C176.187,211.58 178.053,210.032 180.522,208.475C182.935,206.954 186.977,204.909 192.651,202.346C193.203,202.078 193.626,201.781 193.91,201.439C194.276,200.999 194.401,200.299 194.352,199.348C191.033,200.964 186.377,202.9 180.384,205.155L180.385,205.155C180.289,205.237 180.176,205.302 180.053,205.345C176.511,206.685 173.585,207.678 171.274,208.327C168.886,208.997 166.965,209.275 165.516,209.183C164.002,209.086 162.867,208.821 162.103,208.418C161.344,208.019 160.551,207.386 159.731,206.51C158.505,205.198 157.926,203.555 158.015,201.576C158.077,200.19 158.459,198.887 159.163,197.669C156.765,198.192 154.741,198.228 153.086,197.802L150.596,205.25L155.861,214.22L145.892,213.72L140.422,219.337L153.743,230.337L176.31,224.735ZM81.367,214.368L80.453,215.505C80.529,216.287 80.46,217.092 80.222,217.88C80.209,217.926 80.195,217.97 80.178,218.015L78.666,222.142L85.066,218.437C86.073,217.855 87.185,217.602 88.282,217.649L88.425,215.19L81.367,214.368ZM64.079,143.141L70.546,145.608L72.309,151.812L72.104,167.459L61.28,174.605L73.22,179.604L77.192,191.927L84.455,182.341L94.748,183.163L94.574,185.811L78.604,196.25L83.984,199.367L80.191,200.339L72.897,194.369L71.956,203.573L68.783,205.8L68.77,205.788C66.245,203.605 62.358,203.809 60.085,206.234C60.052,206.269 60.022,206.305 59.993,206.34L57.193,209.706L57.193,202.293C57.193,198.979 54.444,196.242 50.997,196.242C47.547,196.242 44.798,198.979 44.798,202.293L44.798,209.706L41.998,206.34C41.969,206.305 41.939,206.269 41.906,206.234C39.633,203.809 35.746,203.605 33.221,205.788C31.676,207.124 30.977,209.024 31.152,210.871C29.641,209.796 27.649,209.456 25.722,210.131C22.578,211.23 20.81,214.7 21.769,217.88C21.783,217.926 21.796,217.97 21.813,218.015L23.325,222.142L20.466,220.486C24.353,189.233 40.563,161.778 64.079,143.141ZM85.514,207.014L88.102,200.839L96.601,204.074L99.043,213.808L89.278,205.925L89.132,206.044L88.308,210.955L85.514,207.014ZM82.514,210.544L80.985,208.221L81.867,205.193L79.19,205.955L76.956,204.28L76.662,206.868L74.192,208.398L76.81,209.574L77.123,210.504C77.62,210.767 78.073,211.095 78.475,211.475L79.486,210.398L82.514,210.544ZM146.862,208.692L143.215,208.544L141.127,210.807L140.01,207.573L136.892,206.132L139.834,204.309L140.185,201.192L142.862,203.219L146.098,202.31L145.039,205.955L146.862,208.692ZM134.98,193.449C133.736,193.109 132.625,192.421 131.65,191.379C129.017,188.561 129.682,184.476 134.059,179.21C138.058,174.398 144.097,169.497 152.187,164.516C155.738,162.33 159.231,160.397 162.666,158.718C158.39,160.155 154.458,161.497 150.871,162.742C146.865,164.132 142.432,165.427 137.569,166.626C132.691,167.829 128.423,168.531 124.779,168.734C123.387,168.889 122.018,168.898 120.674,168.761C120.41,168.774 120.194,168.703 120.021,168.583C119.78,168.415 119.582,168.118 119.552,167.636C119.574,167.987 119.865,168.26 120.217,168.26C120.217,168.26 119.551,167.562 119.551,167.562L119.564,167.202C119.584,166.621 119.866,166.177 120.448,165.895C120.476,165.881 120.504,165.87 120.534,165.86C122.788,165.132 125.21,163.734 127.807,161.678C130.455,159.582 133.031,157.241 135.536,154.655C138.062,152.047 140.597,149.429 143.142,146.799C145.705,144.149 148.472,141.63 151.441,139.243C151.862,138.905 152.28,138.58 152.701,138.263C151.345,138.882 149.92,139.567 148.426,140.317C143.679,142.7 139.292,145.022 135.264,147.284C131.215,149.557 127.181,151.656 123.162,153.578C119.078,155.532 115.448,156.69 112.277,157.065C111.383,157.171 110.545,157.192 109.763,157.13L109.747,157.196L114.276,164.488L105.19,163.989L99.925,169.899L109.924,179.399L128.628,174.545L122.306,192.398L129.863,203.515L134.01,201.427L134.98,193.449ZM103.629,192.104L104.248,186.693L108.894,190.222L114.453,188.605L112.601,194.897L115.777,199.663L109.482,199.367L105.835,203.281L103.923,197.691L98.543,195.22L103.629,192.104ZM149.534,195.581C148.362,194.179 147.812,192.55 147.891,190.693C145.667,189.892 143.217,188.706 140.989,187.461C140.516,188.082 140.152,188.656 139.901,189.185C139.613,189.793 139.447,190.25 139.45,190.571C139.455,190.969 139.451,191.337 139.44,191.674C139.423,192.162 139.267,192.571 138.989,192.905C138.956,192.945 138.921,192.983 138.885,193.019L143.481,197.28L149.534,195.581ZM173.717,187.254C171.58,188.371 169.788,189.372 168.344,190.256C164.085,191.943 160.832,192.846 158.58,192.94C157.292,192.994 156.371,192.806 155.851,192.25C155.599,191.98 155.563,191.587 155.651,191.089C155.768,190.436 156.131,189.765 156.717,189.06C158.136,187.352 160.203,185.678 162.91,184.025C165.625,182.367 168.32,181.227 170.999,180.609C173.431,180.048 175.135,180.168 176.084,181.183C176.564,181.697 176.551,182.469 176.211,183.485C175.806,184.695 174.969,185.947 173.719,187.252L173.717,187.254ZM77.897,171.429L78.337,167.43L81.778,170.016L85.896,168.84L84.543,173.488L86.866,177.018L82.22,176.782L79.544,179.693L78.132,175.546L74.133,173.723L77.897,171.429ZM94.514,161.341L96.985,162.165L98.159,168.871L95.955,167.105L95.131,178.694L90.337,172.399L94.514,161.341ZM120.657,168.094C120.536,168.201 120.38,168.26 120.217,168.26C120.217,168.26 120.451,168.242 120.642,168.095L120.657,168.094ZM83.074,163.666L76.485,157.665L83.337,148.607L95.69,149.489L95.338,154.195L88.573,158.167L92.865,160.636L83.074,163.666ZM104.45,154.63L102.778,155.108L100.544,153.43L100.248,156.018L97.779,157.519L100.396,158.724L101.308,161.429L103.07,159.548L106.1,159.665L104.571,157.371L105.166,155.331C104.955,155.151 104.753,154.957 104.56,154.751L104.45,154.63ZM157.927,119.728C151.074,118.48 144.022,117.829 136.819,117.829C134.099,117.829 131.4,117.922 128.726,118.105C127.469,119.089 126.328,120.196 125.305,121.428C123.974,123.029 123.177,124.591 122.939,126.127C122.719,127.551 123.085,128.777 124.044,129.803C125.282,131.127 127.016,131.587 129.227,131.249C131.499,130.901 133.164,130.134 134.197,128.892C134.574,128.438 134.969,128.372 135.255,128.438C135.434,128.48 135.61,128.577 135.763,128.764C135.908,128.942 136.056,129.268 136.145,129.755C136.473,131.106 136.151,132.394 135.142,133.608C133.251,135.884 130.438,137.295 126.683,137.8C122.89,138.311 119.727,137.205 117.19,134.491C115.112,132.268 114.142,129.141 114.34,125.092C114.43,123.24 114.789,121.47 115.416,119.782C107.983,121.155 100.793,123.231 93.918,125.938L90.279,137.638L96.043,146.373L96.424,144.019L102.608,149.869C102.583,149.405 102.588,148.921 102.624,148.417C102.81,145.804 103.523,143.784 104.72,142.344C105.233,141.727 105.735,141.294 106.215,141.03C107.014,140.591 107.582,140.739 107.911,141.091C107.962,141.145 108.042,141.245 108.088,141.421C108.119,141.536 108.153,141.809 108.172,142.241C108.184,142.505 108.243,142.72 108.386,142.873C109.019,143.55 109.679,144.067 110.372,144.419C111.067,144.773 112.132,144.954 113.561,145C115.06,145.049 116.811,144.789 118.814,144.231C120.873,143.658 123.594,142.655 126.977,141.227C130.379,139.791 134.277,137.913 138.672,135.594C138.673,135.594 138.673,135.594 138.674,135.593C148.488,130.448 156.709,127.813 163.325,127.65C161.326,124.375 159.528,121.734 157.927,119.728ZM75.665,135.043C76.512,134.523 77.364,134.016 78.223,133.519L79.749,134.667L84.19,133.374L82.72,138.431L85.251,142.255L80.22,142.02L77.309,145.137L75.78,140.668L71.456,138.668L75.543,136.168L75.665,135.043ZM153.862,80.436L179.889,104.287L180.419,105.288L180.29,105.606L180.195,106.039L180.189,106.092C174.413,104.148 168.461,102.581 162.366,101.421L161.821,100.432L161.261,99.409L160.126,97.318C160.038,97.141 159.95,96.995 159.89,96.847C157.125,91.759 155.303,86.083 153.862,80.436ZM126.011,79.759C123.982,85.819 121.482,91.818 117.923,97.024L117.894,97.024C117.835,97.141 117.775,97.229 117.687,97.318C117.658,97.406 117.57,97.523 117.452,97.671L117.042,98.249L116.246,99.381L115.61,100.266L115.274,100.721C108.993,101.722 102.856,103.153 96.893,104.984L96.631,104.2L98.278,101.641L126.011,79.759ZM140.465,49.848L140.627,49.852C142.334,49.909 143.98,50.645 145.127,51.938C146.303,53.174 146.951,54.849 146.862,56.556C146.803,58.291 146.038,59.908 144.803,61.086C143.509,62.26 141.863,62.879 140.128,62.819C138.421,62.762 136.775,62.026 135.628,60.733C134.452,59.497 133.804,57.82 133.864,56.115C133.952,54.35 134.717,52.763 135.95,51.587C137.096,50.519 138.581,49.913 140.141,49.852L140.465,49.848ZM212.533,14.49L212.739,14.493C220.061,14.64 222.354,22.1 218.297,30.998C205.399,42.147 189.145,48.573 172.115,49.219L171.713,49.233C178.065,33.087 191.329,20.618 207.857,15.296C209.586,14.744 211.148,14.488 212.533,14.49ZM70.673,9.257C72.254,9.253 74.061,9.626 76.074,10.442C92.16,16.971 104.454,30.352 109.63,46.91C92.543,45.117 76.633,37.47 64.545,25.293C61.224,16.382 63.823,9.274 70.673,9.257Z" style="fill:none;stroke:rgb(255,0,0);stroke-width:1px;"/>
</svg>
