<?xml version="1.0" encoding="UTF-8" standalone="no"?>
<!DOCTYPE svg PUBLIC "-//W3C//DTD SVG 1.1//EN" "http://www.w3.org/Graphics/SVG/1.1/DTD/svg11.dtd">
<svg width="100%" height="100%" viewBox="0 0 1123 794" version="1.1" xmlns="http://www.w3.org/2000/svg" xmlns:xlink="http://www.w3.org/1999/xlink" xml:space="preserve" xmlns:serif="http://www.serif.com/" style="fill-rule:evenodd;clip-rule:evenodd;stroke-linejoin:round;stroke-miterlimit:2;">
    <path d="M0.763,233.654C1.257,185.132 27.188,142.701 65.84,118.992C65.398,118.817 65.044,118.669 64.75,118.492L64.722,118.492C55.281,115.374 48.341,108.758 41.958,101.287C30.577,85.318 46.666,69.791 47.751,53.967C48.723,40.557 42.782,25.706 49.694,12.56C53.84,3.853 62.664,0.531 72.427,0.768C81.014,1.208 89.338,4.267 95.161,8.707C107.57,18.236 119.159,31.999 128.776,45.146C128.776,44.116 130.394,42.292 132.157,41.293C133.276,40.617 134.598,40.263 136.01,40.263L144.597,40.263C146.422,40.263 148.067,40.88 149.422,41.91C150.863,43.057 151.891,44.704 152.273,46.587C152.802,46.587 182.859,16.178 188.975,12.177C195.124,8.148 203.623,5.737 212.21,5.942C221.975,6.413 230.502,10.413 234.032,19.412C239.942,32.998 232.913,47.381 232.854,60.821C232.825,76.702 247.707,93.348 235.179,108.435C229.972,113.729 222.856,118.846 215.857,121.903L215.797,121.903C215.417,122.021 214.603,122.283 213.44,122.66C235.706,137.872 253.229,159.522 263.318,184.913L263.635,185.717C269.445,200.605 272.705,216.771 272.875,233.676L272.882,235.085L272.88,235.812L272.866,237.183L272.848,238.157L272.816,239.357L272.777,240.461C272.271,253.525 269.932,266.101 265.999,277.951C265.659,278.997 265.294,280.017 264.925,281.008L264.5,282.186C263.205,285.714 261.764,289.155 260.177,292.537C259.764,293.448 259.353,294.331 258.911,295.213C258.206,296.654 257.441,298.096 256.707,299.508C256.647,299.565 256.619,299.654 256.588,299.713C255.177,302.329 253.677,304.919 252.09,307.419C251.717,307.987 251.375,308.559 250.98,309.103L250.882,309.252C250.472,309.92 250.043,310.551 249.594,311.192L249.354,311.546L249.354,311.565C249.088,312.005 248.794,312.416 248.472,312.829C245.795,316.713 242.913,320.415 239.854,323.976C215.151,352.578 178.758,370.759 138.144,371.142L136.819,371.148C133.222,371.148 129.657,371.008 126.124,370.733C59.482,365.554 6.326,312.384 1.167,245.731C0.895,242.217 0.756,238.667 0.756,235.085L0.763,233.654ZM28.751,280.397C40.488,308.332 62.752,330.776 90.57,342.754C86.43,339.961 82.52,336.774 78.888,333.213C75.47,329.86 75.47,324.406 78.888,321.053C82.307,317.7 87.87,317.7 91.289,321.053C93.511,323.232 95.866,325.23 98.335,327.046C102.763,312.408 102.398,299.836 101.771,293.577L92.474,300.653C89.142,303.191 84.772,303.273 81.343,300.862C77.913,298.45 76.589,294.365 77.972,290.454L85.343,269.604L86.265,255.979C86.324,255.115 86.821,254.338 87.589,253.91C88.356,253.482 89.292,253.461 90.078,253.854C90.199,253.915 91.551,254.595 93.379,255.698L90.219,242.394L72.795,235.617L73.743,234.921L60.959,228.962L55.458,232.149L69.292,238.586L62.38,242.58L48.557,236.132L40.419,240.826L51.529,246.478L40.419,252.14L48.557,256.834L62.38,250.385L69.292,254.369L55.458,260.817L60.959,263.993L74.793,257.544L81.694,261.528L67.871,267.976L78.895,274.349C80.197,275.092 80.639,276.761 79.885,278.064C79.131,279.377 77.474,279.818 76.16,279.065L65.136,272.702L66.471,287.903L59.571,283.92L58.236,268.719L52.734,265.532L54.059,280.733L47.158,276.75L45.834,261.549L37.695,256.856L38.352,269.3L27.898,262.507L27.898,271.906L40.397,280.658L40.397,288.624L28.794,280.5L28.751,280.397ZM233.012,301.959C231.873,301.683 230.731,301.431 229.591,301.155C226.915,302.799 224.267,304.448 221.621,306.066C220.62,306.683 219.327,306.417 218.65,305.447C218.445,305.153 218.326,304.8 218.297,304.448L200.475,303.418L187.72,318.623C190.354,318.261 193.125,319.071 195.146,321.053C196.802,322.677 197.715,324.836 197.714,327.133C197.714,329.43 196.802,331.589 195.146,333.213C191.721,336.571 188.049,339.597 184.169,342.273C198.375,335.983 211.1,326.95 221.671,315.847C221.653,315.726 221.646,315.602 221.65,315.475C221.681,314.328 222.62,313.389 223.767,313.36L223.978,313.353C224.787,312.453 225.583,311.54 226.362,310.616C224.439,310.455 223.754,307.872 225.474,306.802C227.928,305.293 230.355,303.762 232.807,302.252L233.012,301.959ZM152.231,328.2C153.857,330.702 156.365,333.727 158.432,336.092C151.639,338.426 144.423,339.645 137.018,339.645C130.424,339.645 123.98,338.678 117.851,336.819L122.432,328.338C127.245,329.627 139.269,332.015 152.231,328.2ZM177.773,297.679C179.293,301.583 178.384,304.766 175.569,303.113C175.843,310.356 177.192,319.266 178.76,324.648C180.13,323.509 181.461,322.312 182.746,321.053C183.762,320.056 184.968,319.356 186.251,318.952L181.093,299.3L177.773,297.679ZM223.767,299.771C222.62,300.476 221.444,301.212 220.268,301.948L218.827,299.713C219.267,299.448 219.709,299.183 220.151,298.889C221.356,299.183 222.561,299.477 223.767,299.771ZM215.883,270.436L210.092,286.304L214.679,293.332C214.886,293.39 215.092,293.448 215.297,293.478C215.003,293.008 214.709,292.537 214.444,292.068C213.827,291.067 214.15,289.772 215.209,289.213C216.208,288.655 217.503,289.009 218.12,289.979C219.121,291.624 220.12,293.244 221.091,294.862C222.326,295.154 223.533,295.448 224.738,295.744C223.798,294.214 222.885,292.712 221.975,291.213C221.356,290.183 221.681,288.89 222.737,288.331C223.738,287.802 225.032,288.125 225.65,289.124C227.268,291.772 228.915,294.449 230.531,297.123C231.737,297.39 232.973,297.682 234.178,297.978C232.591,295.39 231.002,292.802 229.414,290.214C228.325,288.419 230.296,286.304 232.178,287.303C232.847,287.663 233.514,288.023 234.18,288.383L238.176,290.544C238.654,290.802 239.133,291.061 239.613,291.319C239.716,291.13 239.819,290.941 239.922,290.753C239.654,289.848 239.386,288.951 239.12,288.037C236.355,286.567 233.619,285.068 230.856,283.596C229.854,283.068 229.414,281.773 229.914,280.745C230.414,279.657 231.678,279.244 232.737,279.803C234.297,280.656 235.855,281.479 237.414,282.332C237.06,281.125 236.708,279.949 236.355,278.744C234.65,277.832 232.973,276.95 231.296,276.039C230.296,275.48 229.885,274.216 230.356,273.186C230.856,272.098 232.12,271.685 233.179,272.244C233.649,272.509 234.149,272.774 234.65,273.038C234.407,272.276 234.178,271.514 233.952,270.744C232.09,271.367 230.45,271.866 229.032,272.243C226.294,272.969 224.069,273.284 222.357,273.203C220.57,273.119 219.235,272.824 218.345,272.356C217.584,271.956 216.761,271.318 215.883,270.436ZM202.504,293.509L195.447,293.184L191.358,297.567L189.212,291.301L183.182,288.507L188.858,285.008L189.565,278.948L194.77,282.891L201.006,281.098L198.946,288.154L202.504,293.509ZM144.712,285.874L145.927,285.831C153.666,285.755 159.844,286.382 165.152,287.752L177.948,279.302L179.124,269.362L157.803,267.421L144.712,285.874ZM96.372,257.636C97.666,258.539 98.998,259.563 100.194,260.664C108.144,261.53 115.866,266.542 122.586,275.216C126.172,279.845 128.6,284.364 129.777,286.756C132.882,286.467 135.79,286.245 138.527,286.09L139.258,286.065L135.51,262.245L112.218,252.716L120.717,247.071L106.454,245.776L96.372,257.636ZM253.878,230.061L235.76,239.48C239.284,239.912 242.082,241.256 244.164,243.484C245.674,245.098 246.417,246.869 246.419,248.783C246.422,250.691 245.781,252.425 244.487,253.981C242.786,256.028 240.369,257.106 237.22,257.174C234.413,257.235 231.369,256.149 228.103,253.876C227.825,254.895 227.342,256.02 226.648,257.248C225.737,258.859 224.866,260.234 224.035,261.374C223.263,262.434 222.697,263.503 222.342,264.584C222.059,265.444 222.113,266.142 222.601,266.664C222.843,266.922 223.219,267.079 223.709,267.176C224.317,267.295 225.078,267.309 225.994,267.228C228.932,266.968 233.351,265.733 239.256,263.541C239.263,263.539 239.269,263.536 239.276,263.534C239.599,263.425 239.852,263.482 240.039,263.592C240.264,263.724 240.496,264.003 240.478,264.528L240.24,267.735C240.226,268.051 240.123,268.289 239.978,268.464C239.824,268.649 239.614,268.781 239.338,268.831C238.84,269.017 238.353,269.196 237.877,269.369C238.125,270.19 238.379,271.012 238.618,271.833C238.885,271.362 239.149,270.861 239.414,270.392C239.973,269.331 241.266,269.01 242.265,269.627C243.266,270.215 243.589,271.508 243.059,272.538L240.325,277.569L241.383,281.125C242.236,279.569 243.09,278.039 243.912,276.479C244.491,275.437 245.727,275.106 246.747,275.686C251.427,263.036 253.984,249.357 253.984,235.085C253.984,233.404 253.949,231.73 253.878,230.061ZM94.108,273.251C95.738,273.251 97.061,274.548 97.061,276.146C97.061,277.744 95.738,279.041 94.108,279.041C92.479,279.041 91.156,277.744 91.156,276.146C91.156,274.548 92.479,273.251 94.108,273.251ZM190.415,243.163L189.181,246.452L193.977,254.57L184.8,253.892L181.418,258.158L196.505,270.363L213.532,266.699C213.329,265.976 213.247,265.226 213.282,264.449C213.373,262.479 213.961,260.619 215.05,258.868C216.085,257.203 217.182,255.603 218.341,254.069C219.447,252.605 220.269,251.221 220.801,249.913C221.228,248.865 221.232,248.035 220.667,247.431C220.667,247.431 220.594,247.352 220.594,247.352L203.898,256.003C203.892,256.006 203.887,256.008 203.881,256.011C203.169,256.357 202.595,256.235 202.144,255.753C202.144,255.753 197.278,250.547 197.278,250.547C196.999,250.249 196.894,249.879 197.006,249.427C197.056,249.225 197.141,249.045 197.261,248.889C196.345,248.756 195.582,248.557 194.973,248.296C193.962,247.864 192.991,247.158 192.068,246.17C191.255,245.301 190.703,244.299 190.415,243.163ZM169.743,249.334L176.007,252.188L179.241,263.569L169.743,249.334ZM137.657,250.424L144.568,246.216L145.391,238.864L151.685,243.658L159.242,241.481L156.745,250.011L161.037,256.48L152.508,256.069L147.568,261.394L144.979,253.804L137.657,250.424ZM238.25,246.185C238.476,246.427 238.61,246.668 238.608,246.929C238.605,247.214 238.453,247.498 238.199,247.803C237.82,248.259 237.228,248.561 236.443,248.747C235.543,248.961 234.41,249.014 233.045,248.918C230.296,248.724 227.697,247.695 225.244,245.842C225.24,245.839 224.676,245.236 224.676,245.236C224.676,245.236 225.198,244.965 225.198,244.965C229.335,244.26 232.585,244.131 234.952,244.601C236.416,244.891 237.522,245.406 238.25,246.185ZM190.708,238.02C191.128,236.782 191.803,235.603 192.732,234.484C194.218,232.697 196.401,230.887 199.291,229.065C202.123,227.279 206.866,224.88 213.524,221.873C214.188,221.55 214.697,221.191 215.038,220.78C215.499,220.225 215.651,219.328 215.571,218.1C211.663,220.012 206.146,222.309 199.021,224.99C198.914,225.085 198.788,225.158 198.642,225.209C194.489,226.78 191.057,227.945 188.347,228.705C185.556,229.488 183.313,229.815 181.619,229.707C179.859,229.595 178.539,229.289 177.651,228.821C177.162,228.564 176.66,228.222 176.148,227.795L168.771,246.775L175.154,243.424L175.802,234.426L183.007,240.159L190.708,238.02ZM136.951,215.603L134.158,214.25L133.128,238.953L124.099,244.982L114.747,230.777L121.159,213.484L107.513,216.397L113.805,208.336L131.216,209.631L135.804,211.22L136.951,215.603ZM181.533,126.768C182.225,127.898 182.931,129.094 183.653,130.356C184.821,132.4 185.791,133.989 186.563,135.124C189.579,136.081 192.134,137.682 194.231,139.925C194.972,140.718 195.435,141.691 195.611,142.848C195.798,144.076 195.529,145.103 194.837,145.935C193.828,147.148 192.616,147.795 191.211,147.897C189.797,147.999 188.468,147.428 187.249,146.124C186.706,145.543 186.151,144.872 185.582,144.11C183.414,144.612 181.092,145.804 178.608,147.665C175.901,149.694 173.479,151.88 171.343,154.223C169.177,156.599 166.487,159.512 163.274,162.963C160.846,165.572 158.664,167.791 156.727,169.623C159.254,169.046 162.118,168.257 165.318,167.257C169.603,165.918 173.435,164.641 176.813,163.427C180.221,162.202 183.921,161.113 187.913,160.161C191.918,159.205 195.508,158.612 198.681,158.378C201.91,158.14 205.095,158.523 208.237,159.526C211.406,160.537 214.147,162.279 216.459,164.752C217.896,166.29 218.312,168.051 217.715,170.034C217.714,170.037 217.713,170.04 217.712,170.043C217.544,170.571 217.335,170.9 217.151,171.064C216.96,171.234 216.758,171.304 216.559,171.312C216.316,171.322 216.042,171.239 215.785,170.965C213.838,168.881 210.326,168.463 205.279,169.501C199.977,170.591 194.242,172.8 188.071,176.12C181.865,179.46 175.559,183.61 169.15,188.569C164.176,192.418 159.871,196.292 156.233,200.193C159.098,200.631 162.131,200.501 164.539,199.579C164.732,199.329 164.932,199.079 165.139,198.829C166.896,196.716 169.161,194.813 171.938,193.126C174.695,191.452 177.557,190.168 180.523,189.276C183.536,188.369 186.547,188.158 189.555,188.64C192.623,189.131 195.117,190.414 197.042,192.474C197.169,192.61 197.291,192.746 197.408,192.884L208.258,187.798C209.505,187.214 210.905,187.567 211.383,188.586L213.115,192.28C213.592,193.3 212.968,194.602 211.721,195.187L199.464,198.017C199.467,198.657 199.387,199.31 199.223,199.976C199.823,199.761 200.35,199.903 200.805,200.39C200.805,200.39 205.671,205.596 205.671,205.596C205.95,205.895 206.056,206.264 205.944,206.716C205.853,207.082 205.649,207.373 205.329,207.587C205.309,207.6 205.287,207.613 205.265,207.625C195.865,212.498 189.782,215.794 187.016,217.513C184.325,219.185 182.44,220.654 181.375,221.935C180.879,222.532 180.659,222.991 181.015,223.372C181.18,223.549 181.506,223.609 181.96,223.657C182.925,223.759 184.351,223.648 186.238,223.34C189.066,222.88 192.517,221.942 196.594,220.532C204.136,217.558 210.157,214.836 214.659,212.363C214.648,210.888 214.995,209.771 215.637,208.998C216.736,207.676 217.893,206.965 219.071,206.806C220.343,206.635 221.4,207.007 222.247,207.913C222.98,208.698 223.325,209.682 223.258,210.875C223.195,212 222.75,213.079 221.9,214.101C221.762,214.267 221.595,214.426 221.397,214.576C221.397,214.576 221.485,215.192 221.485,215.189C221.811,216.743 222.034,217.937 222.153,218.768C222.274,219.608 222.376,220.68 222.459,221.987C222.546,223.364 222.431,224.557 222.125,225.567C221.812,226.602 221.34,227.495 220.714,228.248C220.088,229.001 219.217,229.657 218.091,230.203C218.086,230.205 218.082,230.207 218.077,230.21C207.112,235.217 200.613,238.885 198.62,241.282C198.08,241.932 197.861,242.442 198.255,242.864C198.329,242.943 198.482,242.963 198.683,243.003C199.036,243.073 199.501,243.106 200.078,243.107C201.309,243.11 203.36,242.768 206.235,242.096C208.918,241.469 211.971,240.55 215.395,239.34L251.783,220.482C251.788,220.479 251.793,220.476 251.799,220.474C252.265,220.248 252.688,220.226 253.071,220.403C247.756,177.97 219.714,142.563 181.533,126.768ZM108.423,237.6L102.159,237.308L98.513,241.218L96.601,235.629L91.221,233.158L96.278,230.041L96.897,224.63L101.543,228.16L107.101,226.542L105.276,232.835L108.423,237.6ZM27.866,191.94L27.866,191.939C35.519,172.65 48.152,155.866 64.177,143.178L70.546,145.608L72.309,151.812L72.104,167.459L61.28,174.605L73.22,179.604L77.192,191.927L84.455,182.341L94.748,183.163L94.574,185.811L78.604,196.25L83.984,199.367L80.191,200.339L72.897,194.369L71.956,203.573L66.25,207.577L66.471,205.063L59.571,209.046L58.236,224.247L52.734,227.423L54.059,212.222L47.158,216.205L45.834,231.406L37.695,236.1L38.352,223.655L27.898,230.448L27.898,221.06L40.397,212.308L40.397,204.331L27.898,213.083L27.898,206.731L40.397,197.979L40.397,190.013L27.898,198.754L27.898,191.859C27.888,191.886 27.877,191.913 27.866,191.94ZM79.742,230.517L67.871,224.979L75.44,220.61L75.691,221.425L81.367,214.368L88.425,215.19L87.866,224.809L84.955,226.69L79.742,230.517ZM20.912,219.942L20.907,219.979L22.451,221.06L22.451,230.448L19.829,228.744C19.884,228.366 20.271,224.663 20.907,219.979L20.855,219.942L20.912,219.942ZM173.932,225.326C173.174,224.055 172.829,222.574 172.905,220.88C172.981,219.193 173.464,217.611 174.36,216.136C169.229,217.303 165.54,216.593 163.275,214.171C161.453,212.221 160.725,209.872 161.104,207.12C158.563,206.563 155.481,205.462 152.694,204.279C152.149,204.998 151.729,205.665 151.437,206.279C151.4,206.357 151.365,206.432 151.332,206.505L155.861,214.22L145.892,213.72L140.422,219.337L153.743,230.337L173.932,225.326ZM19.829,228.744C19.826,228.765 19.824,228.776 19.823,228.776C19.822,228.775 19.822,228.764 19.823,228.74L19.829,228.744ZM65.136,220.264L73.789,215.262L72.986,212.661L66.093,209.374L65.136,220.264ZM96.601,204.074L99.043,213.808L89.278,205.925L89.132,206.044L88.308,210.955L85.514,207.014L88.102,200.839L96.601,204.074ZM82.514,210.544L79.486,210.398L77.72,212.279L76.81,209.574L74.192,208.398L76.662,206.868L76.956,204.28L79.19,205.955L81.867,205.193L80.985,208.221L82.514,210.544ZM191.307,204.138C188.788,205.454 186.679,206.633 184.979,207.673C179.96,209.661 176.125,210.724 173.471,210.835C171.919,210.9 170.813,210.662 170.187,209.992C169.871,209.654 169.815,209.164 169.926,208.541C170.065,207.76 170.499,206.954 171.2,206.111C172.872,204.098 175.308,202.123 178.498,200.176C181.697,198.223 184.873,196.88 188.029,196.152C190.933,195.482 192.965,195.644 194.098,196.856C194.684,197.483 194.685,198.422 194.27,199.661C193.789,201.099 192.795,202.586 191.308,204.137L191.307,204.138ZM143.053,196.883C143.552,196.167 144.117,195.431 144.746,194.673C149.437,189.029 156.522,183.28 166.012,177.438C170.69,174.557 175.284,172.052 179.792,169.921C174.162,171.808 169.025,173.558 164.379,175.171C159.677,176.802 154.473,178.322 148.767,179.729C143.042,181.141 138.036,181.964 133.761,182.202C132.131,182.384 130.527,182.394 128.956,182.234C128.665,182.251 128.429,182.175 128.239,182.043C127.977,181.86 127.766,181.534 127.732,181.008C127.755,181.367 128.052,181.646 128.412,181.646L127.732,180.931L127.746,180.508C127.769,179.865 128.083,179.374 128.727,179.062C128.756,179.048 128.785,179.037 128.815,179.027C131.472,178.169 134.328,176.522 137.389,174.098C140.502,171.634 143.531,168.881 146.476,165.841C149.443,162.778 152.42,159.703 155.409,156.614C158.417,153.505 161.663,150.55 165.147,147.749C165.901,147.143 166.649,146.571 167.395,146.03C165.543,146.858 163.576,147.795 161.495,148.839C155.919,151.638 150.765,154.366 146.033,157.023C141.28,159.693 136.544,162.156 131.826,164.413C127.041,166.701 122.79,168.059 119.075,168.499C115.166,168.961 112.181,168.04 110.098,165.812C109.637,165.319 109.245,164.78 108.922,164.194L105.19,163.989L99.925,169.899L109.924,179.399L128.628,174.545L122.306,192.398L129.863,203.515L134.01,201.427L135.422,189.809L143.053,196.883ZM115.777,199.663L109.482,199.367L105.835,203.281L103.923,197.691L98.543,195.22L103.629,192.104L104.248,186.693L108.894,190.222L114.453,188.605L112.601,194.897L115.777,199.663ZM128.749,181.539L128.769,181.544C128.663,181.61 128.539,181.646 128.412,181.646C128.412,181.646 128.58,181.632 128.749,181.539ZM77.897,171.429L78.337,167.43L81.778,170.016L85.896,168.84L84.543,173.488L86.866,177.018L82.22,176.782L79.544,179.693L78.132,175.546L74.133,173.723L77.897,171.429ZM94.514,161.341L96.985,162.165L98.159,168.871L95.955,167.105L95.131,178.694L90.337,172.399L94.514,161.341ZM83.074,163.666L76.485,157.665L83.337,148.607L95.69,149.489L95.338,154.195L88.573,158.167L92.865,160.636L83.074,163.666ZM106.1,159.665L103.07,159.548L101.308,161.429L100.396,158.724L97.779,157.519L100.248,156.018L100.544,153.43L102.778,155.108L105.455,154.343L104.571,157.371L106.1,159.665ZM146.526,118.317C146.232,118.422 145.938,118.532 145.644,118.647C141.044,120.447 137.265,123.123 134.308,126.681C132.732,128.578 131.789,130.43 131.508,132.25C131.243,133.955 131.682,135.423 132.831,136.652C134.307,138.231 136.373,138.785 139.009,138.382C141.706,137.969 143.682,137.053 144.909,135.577C145.316,135.087 145.74,135.007 146.05,135.079C146.24,135.123 146.427,135.228 146.59,135.427C146.755,135.628 146.918,135.998 147.018,136.547C147.397,138.104 147.024,139.587 145.861,140.986C143.655,143.64 140.372,145.284 135.992,145.874C131.573,146.469 127.887,145.181 124.932,142.019L124.931,142.018C122.508,139.426 121.381,135.777 121.611,131.054C121.838,126.402 123.512,122.193 126.641,118.429L126.706,118.351C115.216,119.335 104.194,121.981 93.883,126.049L90.279,137.638L96.043,146.373L96.424,144.019L102.984,150.225L112.042,147.785L111.444,150.236C111.637,150.087 111.828,149.961 112.016,149.858C112.896,149.374 113.522,149.521 113.885,149.909C113.938,149.966 114.02,150.07 114.068,150.253C114.104,150.385 114.141,150.698 114.164,151.194C114.179,151.533 114.259,151.807 114.443,152.003C115.194,152.807 115.98,153.421 116.803,153.84C117.629,154.259 118.894,154.478 120.591,154.533C122.36,154.59 124.427,154.285 126.791,153.626C129.212,152.952 132.412,151.773 136.391,150.093C140.388,148.406 144.969,146.199 150.134,143.474C150.134,143.474 150.135,143.474 150.135,143.473C161.732,137.394 171.431,134.3 179.218,134.152C176.276,129.319 173.701,125.648 171.485,123.142C163.497,120.667 155.143,119.025 146.526,118.317ZM75.653,135.155C76.528,134.618 77.411,134.092 78.301,133.577L79.749,134.667L84.19,133.374L82.72,138.431L85.251,142.255L80.22,142.02L77.309,145.137L75.78,140.668L71.456,138.668L75.543,136.168L75.653,135.155ZM180.189,106.092C174.413,104.148 168.461,102.581 162.366,101.421C161.639,100.11 160.883,98.715 160.126,97.318C160.038,97.141 159.95,96.995 159.89,96.847C157.125,91.759 155.303,86.083 153.862,80.436L179.889,104.287L180.419,105.288C180.419,105.288 180.253,105.564 180.189,106.092ZM115.274,100.721C108.993,101.722 102.856,103.153 96.893,104.984L96.631,104.2L98.278,101.641L126.011,79.759C123.982,85.819 121.482,91.818 117.923,97.024L117.894,97.024C117.835,97.141 117.775,97.229 117.687,97.318C117.658,97.406 117.57,97.523 117.452,97.671C116.986,98.312 116.204,99.471 115.274,100.721ZM135.95,51.587C137.215,50.409 138.892,49.792 140.627,49.852C142.334,49.909 143.98,50.645 145.127,51.938C146.303,53.174 146.951,54.849 146.862,56.556C146.803,58.291 146.038,59.908 144.803,61.086C143.509,62.26 141.863,62.879 140.128,62.819C138.421,62.762 136.775,62.026 135.628,60.733C134.452,59.497 133.804,57.82 133.864,56.115C133.952,54.35 134.717,52.763 135.95,51.587ZM207.857,15.296C218.916,11.766 223.15,20.353 218.297,30.998C205.298,42.235 188.889,48.674 171.713,49.233C178.065,33.087 191.329,20.618 207.857,15.296ZM64.545,25.293C60.458,14.325 65.338,6.09 76.074,10.442C92.16,16.971 104.454,30.352 109.63,46.91C92.543,45.117 76.633,37.47 64.545,25.293Z" style="fill:none;stroke:rgb(255,0,0);stroke-width:1px;"/>
</svg>
