<?xml version="1.0" encoding="UTF-8" standalone="no"?>
<!DOCTYPE svg PUBLIC "-//W3C//DTD SVG 1.1//EN" "http://www.w3.org/Graphics/SVG/1.1/DTD/svg11.dtd">
<svg width="100%" height="100%" viewBox="0 0 1123 794" version="1.1" xmlns="http://www.w3.org/2000/svg" xmlns:xlink="http://www.w3.org/1999/xlink" xml:space="preserve" xmlns:serif="http://www.serif.com/" style="fill-rule:evenodd;clip-rule:evenodd;stroke-linejoin:round;stroke-miterlimit:2;">
    <path d="M144.768,40.265C146.525,40.302 148.11,40.912 149.422,41.91C150.863,43.057 151.891,44.704 152.273,46.587C152.802,46.587 182.859,16.178 188.975,12.177C194.836,8.337 202.831,5.966 211.003,5.93C211.404,5.929 211.807,5.932 212.21,5.942C221.975,6.413 230.502,10.413 234.032,19.412C239.942,32.998 232.913,47.381 232.854,60.821C232.825,76.702 247.707,93.348 235.179,108.435C229.972,113.729 222.856,118.846 215.857,121.903L215.797,121.903L214.909,122.185L213.44,122.66C235.271,137.575 252.544,158.68 262.718,183.428L263.146,184.482L263.635,185.717L264.183,187.147L264.715,188.58L264.956,189.247L265.465,190.694L265.958,192.147L266.475,193.735L266.941,195.223L267.39,196.719L267.822,198.222L268.318,200.033L268.765,201.757L269.14,203.283L269.499,204.816L269.84,206.356L270.097,207.582L270.267,208.418L270.567,209.973L270.849,211.533L271.113,213.1L271.309,214.338L271.419,215.073L271.66,216.779L271.864,218.366L272.05,219.958L272.182,221.204L272.257,221.958L272.366,223.158L272.397,223.517L272.519,225.075L272.624,226.63L272.71,228.177L272.746,228.945L272.807,230.524L272.85,232.102C272.861,232.627 272.87,233.152 272.875,233.676L272.882,235.204L272.88,235.812C272.877,236.27 272.873,236.727 272.866,237.183L272.845,238.277C272.836,238.637 272.827,238.997 272.816,239.357L272.77,240.666L272.707,242.056L272.66,242.916C272.616,243.693 272.566,244.469 272.509,245.242L272.378,246.891L272.235,248.448L272.115,249.632L271.964,250.996L271.773,252.558L271.607,253.813L271.429,255.064L271.176,256.717L270.983,257.897L270.743,259.275L270.405,261.091L270.108,262.584L269.863,263.752L269.428,265.714L269.074,267.212L268.795,268.344L268.42,269.801L268.042,271.21L267.725,272.344L267.361,273.601L266.892,275.16L266.363,276.838L265.822,278.487L265.452,279.56L265.025,280.738L264.863,281.178C264.752,281.514 264.639,281.848 264.5,282.186C263.205,285.714 261.764,289.155 260.177,292.537C259.764,293.448 259.353,294.331 258.911,295.213C258.206,296.654 257.441,298.096 256.707,299.508C256.647,299.565 256.619,299.654 256.588,299.713C255.177,302.329 253.677,304.919 252.09,307.419L251.385,308.513L250.98,309.103L250.316,310.136L249.767,310.943L249.354,311.546L249.354,311.565C249.088,312.005 248.794,312.416 248.472,312.829C247.32,314.5 246.13,316.138 244.904,317.745L244.816,317.86C243.221,319.948 241.565,321.984 239.854,323.976L239.073,324.871L238.079,325.991L237.478,326.655L236.874,327.314L236.265,327.97L235.652,328.622L235.034,329.27L234.413,329.913L233.787,330.553L233.157,331.188L232.523,331.819L231.885,332.446L231.243,333.069L230.597,333.688L229.946,334.303L229.292,334.913L228.634,335.519L227.305,336.718L225.961,337.9L224.601,339.064L223.226,340.21L221.835,341.339L220.43,342.45L219.251,343.358L218.294,344.082L217.12,344.95L216.125,345.672L214.957,346.501L213.924,347.22L212.763,348.011L211.691,348.725L210.538,349.478L209.428,350.187L208.283,350.903L207.134,351.605L205.999,352.284L204.81,352.979L203.686,353.621L202.128,354.488L200.557,355.336L199.718,355.777L198.921,356.19L198.122,356.597L197.319,356.999L196.514,357.396L195.706,357.788L194.894,358.175L194.08,358.556L193.263,358.932L192.443,359.303L191.621,359.668L190.795,360.029L189.967,360.383L189.136,360.733L188.303,361.077L187.466,361.416L186.627,361.749L185.472,362.197L184.208,362.674L183.508,362.932C175.658,365.798 167.471,367.962 159.021,369.348L157.605,369.572L156.197,369.781L154.318,370.035L152.436,370.263L150.549,370.465L148.516,370.653L146.646,370.8L144.654,370.927L142.787,371.02L140.923,371.087L139.53,371.121L138.144,371.142L136.819,371.148L135.472,371.141L135.01,371.136L133.308,371.103L132.116,371.068L131.571,371.048C131.011,371.027 130.452,371.002 129.893,370.974L128.91,370.921L128.07,370.87L126.787,370.783L125.344,370.67L124.595,370.605L123.757,370.528L122.78,370.431L121.461,370.29L119.917,370.108L119.147,370.01L118.622,369.94C61.059,362.253 14.891,318.582 3.474,262.277L3.239,261.09L2.955,259.579L2.689,258.062L2.439,256.54L2.206,255.012L1.989,253.478L1.79,251.939L1.609,250.395L1.444,248.846L1.295,247.267L1.199,246.139L1.071,244.412L1.03,243.782L0.93,242.013L0.887,241.098L0.867,240.61L0.814,239.101L0.782,237.765L0.762,236.427L0.756,235.069L0.761,233.92L0.78,232.504L0.814,231.055L0.874,229.343L0.941,227.924L1.04,226.215L1.16,224.51L1.339,222.399L1.503,220.733L1.754,218.52L1.965,216.867L2.116,215.769L2.36,214.126L2.623,212.491L2.832,211.276L3.004,210.32L3.25,209.022L3.391,208.305L3.7,206.805L3.847,206.115L4.228,204.413L4.525,203.156L4.699,202.441L5.07,200.971L5.248,200.286L5.705,198.602L6.047,197.393L6.255,196.679L6.685,195.245L7.142,193.78L7.652,192.213L8.179,190.657L8.724,189.112L9.286,187.576L9.865,186.051L10.462,184.535L11.076,183.028L11.589,181.809L12.228,180.334L12.884,178.867L13.557,177.41L14.247,175.963L14.953,174.524L15.675,173.096L16.414,171.677L17.169,170.268L17.681,169.334L18.2,168.404L18.727,167.479L19.26,166.559L19.8,165.643L20.347,164.732L20.901,163.825L21.462,162.923L21.995,162.081C24.011,158.918 26.155,155.843 28.418,152.865L29.105,151.969L30.119,150.673L31.137,149.404L32.163,148.156L33.2,146.924L34.249,145.708L35.309,144.506L36.64,143.037L37.833,141.756L39.206,140.322L40.549,138.958L41.845,137.678L43.198,136.376L44.743,134.932L46.31,133.513L47.5,132.464L48.702,131.429L49.916,130.407L51.142,129.4L52.38,128.406L53.63,127.427L54.892,126.462L56.165,125.511L57.449,124.575L58.745,123.654L60.052,122.747L61.369,121.855L62.698,120.978L64.037,120.117L64.936,119.551L65.84,118.992C65.398,118.817 65.044,118.669 64.75,118.492L64.722,118.492C55.281,115.374 48.341,108.758 41.958,101.287C30.577,85.318 46.666,69.791 47.751,53.967C48.723,40.557 42.782,25.706 49.694,12.56C53.84,3.853 62.664,0.531 72.427,0.768C81.014,1.208 89.338,4.267 95.161,8.707C107.57,18.236 119.159,31.999 128.776,45.146C128.776,44.116 130.394,42.292 132.157,41.293C133.276,40.617 134.598,40.263 136.01,40.263L144.597,40.263L144.768,40.265ZM233.106,301.981L233,302.134C230.483,303.681 227.993,305.253 225.474,306.802C223.721,307.892 224.466,310.555 226.475,310.623C225.699,311.543 224.907,312.453 224.102,313.349L223.767,313.36C222.62,313.389 221.681,314.328 221.65,315.475C221.645,315.641 221.659,315.803 221.69,315.957C200.328,338.368 170.192,352.34 136.819,352.34C129.603,352.34 122.539,351.687 115.679,350.436L134.186,327.506L164.772,329.681L159.508,320.888L165.184,312.093L175.802,312.975L170.243,303.566L173.565,295.625L181.093,299.3L186.535,320.035L200.475,303.418L218.297,304.448C218.326,304.8 218.445,305.153 218.65,305.447C219.327,306.417 220.62,306.683 221.621,306.066C224.267,304.448 226.915,302.799 229.591,301.155C230.762,301.438 231.935,301.697 233.106,301.981ZM107.895,341.033L113.364,348.678L110.159,337.003L107.895,341.033ZM104.571,345.769L100.63,345.592L99.878,346.393C99.065,346.123 98.255,345.844 97.449,345.556L97.102,344.532L93.718,342.975L96.925,341.004L97.306,337.591L100.219,339.797L103.749,338.798L102.571,342.768L104.571,345.769ZM85.131,273.303L79.354,270.4L80.178,272.648C80.193,272.692 80.209,272.736 80.222,272.78C81.181,275.96 79.411,279.432 76.27,280.531C74.342,281.206 72.35,280.866 70.84,279.792C71.014,281.638 70.315,283.537 68.77,284.872C67.596,285.888 66.126,286.394 64.662,286.394C62.977,286.394 61.301,285.725 60.085,284.426C60.052,284.392 60.022,284.357 59.993,284.321L57.193,280.956L57.193,288.369C57.193,291.684 54.444,294.418 50.997,294.418C47.547,294.418 44.798,291.684 44.798,288.369L44.798,280.956L41.998,284.321C41.969,284.357 41.939,284.392 41.906,284.426C39.633,286.853 35.746,287.057 33.221,284.874L33.221,284.872C31.676,283.537 30.977,281.638 31.152,279.792C30.457,280.285 29.66,280.624 28.814,280.779C39.992,307.142 60.547,328.582 86.29,340.908L91.19,337.739L92.396,325.651L101.189,333.062L108.66,330.739L105.749,320.828L76.779,308.771L84.691,302.624L82.543,295.744L74.367,291.949L81.926,286.273L82.749,277.684L87.308,281.333L85.131,273.303ZM117.923,310.182L108.954,306.066L117.395,300.861L118.423,291.83L126.187,297.713L135.451,295.037L132.392,305.535L137.657,313.475L127.187,312.975L121.099,319.533L117.923,310.182ZM158.478,319.476L151.155,307.801L156.126,310.066L158.478,319.476ZM156.891,305.007L159.832,303.212L160.184,300.067L162.889,302.125L166.096,301.183L165.036,304.83L166.861,307.595L163.243,307.419L161.125,309.711L160.007,306.448L156.891,305.007ZM169.832,294.508L163.95,296.566L155.684,289.92L154.539,300.772L148.686,303.77L158.714,273.038L151.862,274.421L157.803,267.421L179.124,269.362L177.948,279.302L160.979,290.508L169.832,294.508ZM223.767,299.771C222.62,300.476 221.444,301.212 220.268,301.948L218.827,299.713C219.267,299.448 219.709,299.183 220.151,298.889C221.356,299.183 222.561,299.477 223.767,299.771ZM91.073,297.625L88.014,301.654L94.543,297.832L91.073,297.625ZM216.702,268.192L210.092,286.304L214.679,293.332C214.886,293.39 215.092,293.448 215.297,293.478C215.003,293.008 214.709,292.537 214.444,292.068C213.827,291.067 214.15,289.772 215.209,289.213C216.208,288.655 217.503,289.009 218.12,289.979C219.121,291.624 220.12,293.244 221.091,294.862C222.326,295.154 223.533,295.448 224.738,295.744C223.798,294.214 222.885,292.712 221.975,291.213C221.356,290.183 221.681,288.89 222.737,288.331C223.738,287.802 225.032,288.125 225.65,289.124C227.268,291.772 228.915,294.449 230.531,297.123C231.737,297.39 232.973,297.682 234.178,297.978C232.591,295.39 231.002,292.802 229.414,290.214C228.325,288.419 230.296,286.304 232.178,287.303C234.692,288.656 237.18,290.008 239.692,291.362L239.958,290.875C239.678,289.929 239.398,288.992 239.12,288.037C236.355,286.567 233.619,285.068 230.856,283.596C229.864,283.073 229.423,281.797 229.9,280.775C228.863,280.629 228.043,280.39 227.438,280.071C226.614,279.638 225.753,278.95 224.864,277.998C223.535,276.577 222.909,274.797 223.005,272.652C223.074,271.102 223.512,269.647 224.323,268.289C221.213,268.986 218.674,268.939 216.702,268.192ZM202.504,293.509L195.447,293.184L191.358,297.567L189.212,291.301L183.182,288.507L188.858,285.008L189.565,278.948L194.77,282.891L201.006,281.098L198.946,288.154L202.504,293.509ZM92.631,293.39L89.278,293.213L87.308,295.331L86.279,292.331L83.396,291.007L86.132,289.332L86.455,286.419L88.926,288.302L91.926,287.449L90.927,290.83L92.631,293.39ZM95.661,275.126L103.66,275.774L102.836,292.331L98.924,294.566L95.807,289.772L98.543,281.596L89.338,283.271L95.661,275.126ZM236.767,280.142C235.898,280.369 235.09,280.546 234.343,280.673C235.367,281.224 236.39,281.772 237.414,282.332C237.198,281.595 236.982,280.869 236.767,280.142ZM243.004,278.172C242.21,278.451 241.454,278.709 240.735,278.945C240.951,279.674 241.167,280.405 241.383,281.125C241.926,280.135 242.469,279.155 243.004,278.172ZM98.806,255.804L106.454,245.776L120.717,247.071L112.218,252.716L135.51,262.245L139.303,278.155L128.657,280.979L104.542,260.512L103.66,269.596L100.984,266.009L104.69,255.07L98.806,255.804ZM33.617,275.518L35.978,260.906L44.798,256.088L45.284,265.759L33.617,275.518ZM68.374,275.516L56.423,266.816L57.193,256.088L66.785,261.932L68.374,275.516ZM251.099,261.422C243.521,265.371 238.55,268.079 236.185,269.549C233.685,271.102 231.934,272.466 230.944,273.657C230.497,274.195 230.287,274.606 230.608,274.95C230.757,275.109 231.055,275.16 231.466,275.204C232.362,275.298 233.686,275.195 235.438,274.91C238.456,274.418 242.239,273.342 246.789,271.687C246.838,271.669 246.89,271.657 246.943,271.651C247.338,271.607 247.593,271.745 247.751,271.914C247.872,272.044 247.97,272.225 247.978,272.47C249.193,268.863 250.236,265.177 251.099,261.422ZM190.844,242.019L189.181,246.452L193.977,254.57L184.8,253.892L181.418,258.158L196.505,270.363L214.176,266.561C214.135,266.519 214.094,266.477 214.054,266.434C212.326,264.586 211.651,262.353 212.041,259.734C212.285,258.094 212.899,256.441 213.89,254.775C213.876,254.779 213.861,254.782 213.847,254.786C211.168,255.432 208.999,255.652 207.342,255.468C205.63,255.277 204.325,254.908 203.42,254.388C202.53,253.876 201.563,253.071 200.528,251.964C199.235,250.581 198.68,248.738 198.912,246.421C199.062,244.927 199.492,243.534 200.204,242.244C198.152,242.743 196.456,242.958 195.116,242.9C193.432,242.828 192.131,242.583 191.207,242.188C191.086,242.136 190.965,242.08 190.844,242.019ZM95.955,263.598C95.955,263.598 93.726,264.232 93.726,264.232C94.485,265.959 94.443,268.037 93.413,269.845L96.72,269.979C96.72,269.979 94.896,267.246 94.896,267.246L95.955,263.598ZM169.743,249.334L176.007,252.188L179.241,263.569L169.743,249.334ZM240.139,257.049C237.798,258.273 235.837,259.369 234.257,260.336C229.593,262.183 226.03,263.171 223.563,263.274C222.132,263.334 221.111,263.119 220.534,262.501C220.246,262.193 220.198,261.747 220.299,261.179C220.428,260.457 220.829,259.713 221.477,258.933C223.031,257.063 225.295,255.229 228.259,253.419C231.232,251.604 234.184,250.356 237.117,249.679C239.803,249.059 241.684,249.203 242.732,250.324C243.27,250.9 243.265,251.763 242.885,252.9C242.439,254.233 241.517,255.612 240.139,257.049L240.139,257.049ZM137.657,250.424L144.568,246.216L145.391,238.864L151.685,243.658L159.242,241.481L156.745,250.011L161.037,256.48L152.508,256.069L147.568,261.394L144.979,253.804L137.657,250.424ZM93.065,254.373C92.686,254.936 92.218,255.437 91.68,255.854L93.838,257.628C93.838,257.628 93.065,254.373 93.065,254.373ZM175.62,124.412C176.219,125.183 176.792,125.991 177.339,126.835C178.422,128.508 179.548,130.366 180.717,132.409C181.8,134.304 182.7,135.779 183.417,136.834C186.223,137.726 188.602,139.217 190.554,141.306C191.248,142.049 191.682,142.96 191.847,144.044C192.022,145.197 191.769,146.16 191.119,146.942C190.174,148.078 189.038,148.683 187.723,148.779C186.398,148.875 185.151,148.341 184.009,147.119C183.508,146.582 182.994,145.963 182.469,145.26C180.462,145.729 178.313,146.834 176.015,148.557C173.498,150.443 171.246,152.476 169.259,154.654C167.244,156.865 164.742,159.575 161.752,162.786C159.529,165.174 157.528,167.212 155.748,168.9C158.069,168.366 160.693,167.641 163.62,166.726C167.606,165.481 171.17,164.293 174.313,163.164C177.485,162.024 180.928,161.01 184.643,160.124C188.372,159.234 191.714,158.682 194.668,158.464C197.676,158.243 200.644,158.599 203.571,159.534C206.525,160.477 209.08,162.1 211.235,164.406C212.581,165.845 212.971,167.494 212.411,169.352C212.41,169.355 212.409,169.358 212.408,169.361C212.25,169.86 212.051,170.17 211.877,170.325C211.693,170.489 211.497,170.557 211.305,170.564C211.071,170.574 210.807,170.495 210.56,170.231C208.754,168.299 205.496,167.916 200.816,168.879C195.885,169.892 190.552,171.947 184.815,175.034C179.042,178.141 173.176,182.001 167.215,186.614C161.872,190.748 157.358,194.914 153.674,199.112C157.399,198.454 161.129,197.023 164.865,194.561C166.247,193.201 167.882,191.946 169.771,190.799C172.339,189.239 175.004,188.044 177.766,187.213C180.575,186.368 183.381,186.171 186.185,186.62C188.398,186.975 190.291,187.771 191.867,189.003C192.024,188.9 192.2,188.82 192.391,188.767L202.185,185.28C203.189,185 204.231,185.589 204.51,186.593L205.522,190.231C205.802,191.235 205.213,192.277 204.209,192.557L195.394,194.683C195.48,195.482 195.423,196.304 195.221,197.15C195.769,196.973 196.252,197.115 196.671,197.563C196.671,197.563 201.198,202.407 201.198,202.407C201.465,202.692 201.567,203.047 201.46,203.479C201.373,203.828 201.179,204.105 200.874,204.309C200.854,204.322 200.833,204.335 200.811,204.346C192.067,208.88 186.408,211.946 183.835,213.545C181.335,215.098 179.584,216.462 178.594,217.652C178.147,218.19 177.937,218.602 178.258,218.945C178.408,219.105 178.705,219.156 179.117,219.2C180.013,219.294 181.336,219.191 183.088,218.906C185.717,218.477 188.926,217.606 192.717,216.294C199.722,213.532 205.317,211.004 209.502,208.706C209.496,207.333 209.822,206.294 210.42,205.573C211.449,204.335 212.534,203.671 213.637,203.522C214.831,203.361 215.825,203.711 216.62,204.562C217.309,205.299 217.633,206.223 217.57,207.342C217.511,208.396 217.094,209.406 216.298,210.364C216.172,210.515 216.02,210.661 215.84,210.799C215.84,210.799 215.92,211.351 215.919,211.349C216.223,212.795 216.43,213.906 216.542,214.68C216.654,215.461 216.749,216.46 216.826,217.677C216.908,218.963 216.8,220.077 216.515,221.02C216.222,221.987 215.781,222.822 215.195,223.526C214.61,224.23 213.796,224.843 212.744,225.353C212.739,225.356 212.734,225.358 212.73,225.36C202.535,230.016 196.492,233.424 194.639,235.653C194.15,236.241 193.942,236.699 194.298,237.08C194.364,237.15 194.5,237.165 194.678,237.2C195.005,237.265 195.436,237.295 195.97,237.296C197.113,237.299 199.02,236.981 201.691,236.357C204.212,235.768 207.084,234.901 210.306,233.76C212.886,232.304 216.527,230.344 221.232,227.88C221.232,227.88 219.679,226.219 219.679,226.219C219.412,225.933 219.31,225.579 219.418,225.147C219.52,224.735 219.739,224.488 220.004,224.354L223.105,222.674C223.114,222.669 223.123,222.665 223.132,222.66C223.789,222.342 224.359,222.45 224.843,222.968C224.843,222.968 226.762,225.02 226.762,225.02C229.37,223.664 233.981,221.272 240.594,217.843C240.928,217.659 241.238,217.598 241.515,217.622C241.837,217.651 242.133,217.791 242.389,218.065C242.389,218.065 246.86,222.849 246.86,222.849C247.101,223.106 247.221,223.444 247.164,223.877C247.104,224.335 246.861,224.648 246.435,224.808C240.354,227.997 235.904,230.323 233.084,231.784C233.084,231.784 235.483,234.351 235.483,234.351C235.75,234.636 235.852,234.99 235.745,235.423C235.658,235.772 235.464,236.049 235.159,236.253C235.14,236.265 235.121,236.277 235.1,236.288L232.03,237.909C231.373,238.228 230.803,238.12 230.319,237.602C230.319,237.602 227.554,234.644 227.554,234.644C219.459,238.913 214.286,241.73 212.034,243.096C209.813,244.442 208.164,245.75 207.099,247.032C206.647,247.576 206.471,248.014 206.819,248.386C207.212,248.806 207.824,249.077 208.636,249.241C209.565,249.428 210.733,249.465 212.141,249.361C214.607,249.178 217.661,248.494 221.303,247.317C221.57,247.143 221.843,246.972 222.121,246.803C224.689,245.243 227.354,244.048 230.116,243.217C232.924,242.372 235.731,242.175 238.534,242.624C241.397,243.083 243.723,244.28 245.52,246.202C247.49,248.309 248.173,250.627 247.571,253.154C248.119,252.978 248.601,253.119 249.02,253.567L252.06,256.819C253.383,249.777 254.074,242.511 254.074,235.085C254.074,183.966 221.292,140.444 175.62,124.412ZM177.771,247.63L179.977,246.275L180.242,243.924L182.271,245.453L184.683,244.775L183.889,247.511L185.242,249.569L182.534,249.452L180.947,251.158L180.094,248.718L177.771,247.63ZM19.892,243.913L30.396,239.854L39.892,245.33L30.696,251.158L20.154,246.913C20.055,245.921 19.967,244.919 19.892,243.913ZM85.767,245.33L71.954,250.362L62.099,245.33L72.204,240.111L85.767,245.33ZM187.542,238.899C186.917,237.77 186.65,236.459 186.748,234.964C186.882,232.918 187.665,231.024 189.11,229.286C190.494,227.62 192.528,225.934 195.219,224.236C197.855,222.575 202.27,220.342 208.466,217.543C209.079,217.245 209.548,216.914 209.863,216.535C210.282,216.031 210.422,215.221 210.355,214.115C206.722,215.888 201.605,218.018 195.004,220.503L195.005,220.501C194.904,220.59 194.784,220.66 194.653,220.706C190.785,222.169 187.588,223.254 185.064,223.962C182.463,224.692 180.372,224.996 178.794,224.895C178.265,224.862 177.779,224.809 177.336,224.738L168.771,246.775L175.154,243.424L175.802,234.426L183.007,240.159L187.542,238.899ZM90.909,245.299L90.892,245.226C90.821,245.263 90.748,245.297 90.675,245.33C90.767,245.374 90.859,245.418 90.949,245.466L90.909,245.299ZM136.951,215.603L134.158,214.25L133.128,238.953L124.099,244.982L114.747,230.777L121.159,213.484L107.513,216.397L113.805,208.336L131.216,209.631L135.804,211.22L136.951,215.603ZM108.423,237.6L102.159,237.308L98.513,241.218L96.601,235.629L91.221,233.158L96.278,230.041L96.897,224.63L101.543,228.16L107.101,226.542L105.276,232.835L108.423,237.6ZM33.617,215.144L45.803,224.221L44.798,234.574L35.216,230.049L33.617,215.144ZM68.374,215.144L65.894,229.603L57.193,234.572L57.247,224.607L68.374,215.144ZM176.742,224.628C176.077,224.487 175.527,224.298 175.088,224.067C174.265,223.634 173.404,222.946 172.514,221.994C171.185,220.572 170.559,218.793 170.655,216.648C170.724,215.098 171.162,213.643 171.974,212.285C167.224,213.35 163.806,212.678 161.704,210.43C160.264,208.889 159.556,207.082 159.585,205.006C156.091,206.288 153.285,206.587 151.065,206.049L155.861,214.22L145.892,213.72L140.422,219.337L153.743,230.337L176.742,224.628ZM81.367,214.368L80.453,215.505C80.529,216.287 80.46,217.092 80.222,217.88C80.209,217.926 80.195,217.97 80.178,218.015L78.666,222.142L85.066,218.437C86.073,217.855 87.185,217.602 88.282,217.649L88.425,215.19L81.367,214.368ZM64.079,143.141L70.546,145.608L72.309,151.812L72.104,167.459L61.28,174.605L73.22,179.604L77.192,191.927L84.455,182.341L94.748,183.163L94.574,185.811L78.604,196.25L83.984,199.367L80.191,200.339L72.897,194.369L71.956,203.573L68.783,205.8L68.77,205.788C66.245,203.605 62.358,203.809 60.085,206.234C60.052,206.269 60.022,206.305 59.993,206.34L57.193,209.706L57.193,202.293C57.193,198.979 54.444,196.242 50.997,196.242C47.547,196.242 44.798,198.979 44.798,202.293L44.798,209.706L41.998,206.34C41.969,206.305 41.939,206.269 41.906,206.234C39.633,203.809 35.746,203.605 33.221,205.788C31.676,207.124 30.977,209.024 31.152,210.871C29.641,209.796 27.649,209.456 25.722,210.131C22.578,211.23 20.81,214.7 21.769,217.88C21.783,217.926 21.796,217.97 21.813,218.015L23.325,222.142L20.466,220.486C24.353,189.233 40.563,161.778 64.079,143.141ZM85.514,207.014L88.102,200.839L96.601,204.074L99.043,213.808L89.278,205.925L89.132,206.044L88.308,210.955L85.514,207.014ZM82.514,210.544L80.985,208.221L81.867,205.193L79.19,205.955L76.956,204.28L76.662,206.868L74.192,208.398L76.81,209.574L77.123,210.504C77.62,210.767 78.073,211.095 78.475,211.475L79.486,210.398L82.514,210.544ZM140.153,201.474L139.834,204.309L136.892,206.132L140.01,207.573L141.127,210.807L143.215,208.544L146.862,208.692L146.329,207.892C146.27,207.883 146.21,207.873 146.149,207.863C144.51,207.582 143.068,206.785 141.83,205.46C140.764,204.321 140.198,202.99 140.153,201.474ZM187.789,201.045C185.448,202.269 183.487,203.364 181.907,204.332C177.243,206.179 173.68,207.167 171.213,207.27C169.782,207.33 168.761,207.114 168.184,206.497C167.896,206.189 167.848,205.742 167.95,205.175C168.078,204.453 168.479,203.709 169.127,202.929C170.681,201.059 172.945,199.224 175.909,197.414C178.882,195.599 181.834,194.351 184.767,193.675C187.453,193.055 189.334,193.199 190.382,194.32C190.92,194.896 190.915,195.759 190.535,196.896C190.089,198.229 189.168,199.608 187.79,201.044L187.789,201.045ZM141.91,195.824C142.571,194.694 143.42,193.501 144.464,192.245C148.83,186.992 155.425,181.64 164.257,176.202C168.438,173.628 172.546,171.376 176.581,169.445C171.549,171.133 166.944,172.703 162.766,174.153C158.391,175.671 153.548,177.085 148.238,178.395C142.91,179.709 138.25,180.475 134.271,180.697C132.751,180.866 131.256,180.876 129.799,180.726C129.52,180.742 129.294,180.669 129.112,180.543C128.861,180.368 128.658,180.057 128.626,179.555C128.648,179.906 128.94,180.179 129.291,180.179L128.625,179.48C128.625,179.48 128.639,179.098 128.639,179.098C128.639,179.098 129.305,179.776 129.305,179.776L128.639,179.086C128.66,178.475 128.959,178.009 129.571,177.712C129.598,177.699 129.627,177.687 129.657,177.678C132.126,176.88 134.779,175.349 137.623,173.098C140.519,170.806 143.336,168.245 146.075,165.418C148.835,162.568 151.605,159.707 154.386,156.833C157.185,153.939 160.206,151.189 163.449,148.583C164.065,148.088 164.676,147.617 165.285,147.169C163.647,147.907 161.915,148.735 160.088,149.652C154.9,152.256 150.105,154.794 145.703,157.266C141.28,159.75 136.873,162.042 132.483,164.142C128.027,166.273 124.068,167.538 120.608,167.947C116.959,168.379 114.173,167.517 112.228,165.437C111.905,165.092 111.619,164.722 111.368,164.328L105.19,163.989L99.925,169.899L109.924,179.399L128.628,174.545L122.306,192.398L129.863,203.515L134.01,201.427L135.422,189.809L141.91,195.824ZM103.629,192.104L104.248,186.693L108.894,190.222L114.453,188.605L112.601,194.897L115.777,199.663L109.482,199.367L105.835,203.281L103.923,197.691L98.543,195.22L103.629,192.104ZM129.655,180.056L129.674,180.058C129.563,180.136 129.429,180.179 129.291,180.179C129.291,180.179 129.479,180.164 129.655,180.056ZM77.897,171.429L78.337,167.43L81.778,170.016L85.896,168.84L84.543,173.488L86.866,177.018L82.22,176.782L79.544,179.693L78.132,175.546L74.133,173.723L77.897,171.429ZM94.514,161.341L96.985,162.165L98.159,168.871L95.955,167.105L95.131,178.694L90.337,172.399L94.514,161.341ZM83.074,163.666L76.485,157.665L83.337,148.607L95.69,149.489L95.338,154.195L88.573,158.167L92.865,160.636L83.074,163.666ZM106.1,159.665L103.07,159.548L101.308,161.429L100.396,158.724L97.779,157.519L100.248,156.018L100.544,153.43L102.778,155.108L105.455,154.343L104.571,157.371L106.1,159.665ZM130.954,117.974C117.942,118.616 105.484,121.384 93.918,125.938L90.279,137.638L96.043,146.373L96.424,144.019L102.984,150.225L112.042,147.785L109.747,157.196L110.188,157.906C110.456,155.382 111.206,153.404 112.406,151.962C112.96,151.295 113.502,150.826 114.021,150.541C114.859,150.081 115.455,150.226 115.8,150.595C115.851,150.65 115.931,150.752 115.979,150.93C116.012,151.054 116.047,151.347 116.069,151.812C116.082,152.118 116.154,152.366 116.319,152.543C117.016,153.288 117.743,153.857 118.506,154.245C119.271,154.634 120.443,154.836 122.016,154.887C123.66,154.94 125.579,154.656 127.775,154.044C130.027,153.417 133.002,152.321 136.702,150.759C140.421,149.189 144.682,147.136 149.486,144.601C149.487,144.601 149.487,144.601 149.488,144.601C160.255,138.957 169.264,136.077 176.504,135.925C173.54,131.061 170.976,127.467 168.807,125.146C166.117,122.269 162.612,120.541 158.297,119.95C153.93,119.351 149.61,119.89 145.336,121.563C141.063,123.235 137.55,125.722 134.803,129.028C133.341,130.787 132.466,132.505 132.205,134.193C131.961,135.768 132.366,137.125 133.428,138.261C134.794,139.722 136.706,140.233 139.146,139.86C141.646,139.477 143.478,138.63 144.615,137.263C145.005,136.793 145.413,136.719 145.71,136.788C145.893,136.83 146.074,136.931 146.231,137.123C146.386,137.312 146.541,137.661 146.635,138.179C146.99,139.638 146.641,141.027 145.552,142.337C143.495,144.813 140.434,146.346 136.349,146.896C132.226,147.451 128.787,146.25 126.029,143.299L126.029,143.299C123.769,140.881 122.716,137.479 122.931,133.074C123.143,128.739 124.703,124.816 127.618,121.308C128.627,120.094 129.739,118.983 130.954,117.974ZM75.665,135.043C76.512,134.523 77.364,134.016 78.223,133.519L79.749,134.667L84.19,133.374L82.72,138.431L85.251,142.255L80.22,142.02L77.309,145.137L75.78,140.668L71.456,138.668L75.543,136.168L75.665,135.043ZM153.862,80.436L179.889,104.287L180.419,105.288L180.29,105.606L180.195,106.039L180.189,106.092C174.413,104.148 168.461,102.581 162.366,101.421L161.821,100.432L161.261,99.409L160.126,97.318C160.038,97.141 159.95,96.995 159.89,96.847C157.125,91.759 155.303,86.083 153.862,80.436ZM126.011,79.759C123.982,85.819 121.482,91.818 117.923,97.024L117.894,97.024C117.835,97.141 117.775,97.229 117.687,97.318C117.658,97.406 117.57,97.523 117.452,97.671L117.042,98.249L116.246,99.381L115.61,100.266L115.274,100.721C108.993,101.722 102.856,103.153 96.893,104.984L96.631,104.2L98.278,101.641L126.011,79.759ZM140.465,49.848L140.627,49.852C142.334,49.909 143.98,50.645 145.127,51.938C146.303,53.174 146.951,54.849 146.862,56.556C146.803,58.291 146.038,59.908 144.803,61.086C143.509,62.26 141.863,62.879 140.128,62.819C138.421,62.762 136.775,62.026 135.628,60.733C134.452,59.497 133.804,57.82 133.864,56.115C133.952,54.35 134.717,52.763 135.95,51.587C137.096,50.519 138.581,49.913 140.141,49.852L140.465,49.848ZM212.533,14.49L212.739,14.493C220.061,14.64 222.354,22.1 218.297,30.998C205.399,42.147 189.145,48.573 172.115,49.219L171.713,49.233C178.065,33.087 191.329,20.618 207.857,15.296C209.586,14.744 211.148,14.488 212.533,14.49ZM70.673,9.257C72.254,9.253 74.061,9.626 76.074,10.442C92.16,16.971 104.454,30.352 109.63,46.91C92.543,45.117 76.633,37.47 64.545,25.293C61.224,16.382 63.823,9.274 70.673,9.257Z" style="fill:none;stroke:rgb(255,0,0);stroke-width:1px;"/>
</svg>
