<?xml version="1.0" encoding="UTF-8" standalone="no"?>
<!DOCTYPE svg PUBLIC "-//W3C//DTD SVG 1.1//EN" "http://www.w3.org/Graphics/SVG/1.1/DTD/svg11.dtd">
<svg width="100%" height="100%" viewBox="0 0 1123 794" version="1.1" xmlns="http://www.w3.org/2000/svg" xmlns:xlink="http://www.w3.org/1999/xlink" xml:space="preserve" xmlns:serif="http://www.serif.com/" style="fill-rule:evenodd;clip-rule:evenodd;stroke-linejoin:round;stroke-miterlimit:2;">
    <path d="M0.763,233.654C1.257,185.132 27.188,142.701 65.84,118.992C65.398,118.817 65.044,118.669 64.75,118.492L64.722,118.492C55.281,115.374 48.341,108.758 41.958,101.287C30.577,85.318 46.666,69.791 47.751,53.967C48.723,40.557 42.782,25.706 49.694,12.56C53.84,3.853 62.664,0.531 72.427,0.768C81.014,1.208 89.338,4.267 95.161,8.707C107.57,18.236 119.159,31.999 128.776,45.146C128.776,44.116 130.394,42.292 132.157,41.293C133.276,40.617 134.598,40.263 136.01,40.263L144.597,40.263C146.422,40.263 148.067,40.88 149.422,41.91C150.863,43.057 151.891,44.704 152.273,46.587C152.802,46.587 182.859,16.178 188.975,12.177C195.124,8.148 203.623,5.737 212.21,5.942C221.975,6.413 230.502,10.413 234.032,19.412C239.942,32.998 232.913,47.381 232.854,60.821C232.825,76.702 247.707,93.348 235.179,108.435C229.972,113.729 222.856,118.846 215.857,121.903L215.797,121.903C215.417,122.021 214.603,122.283 213.44,122.66C235.706,137.872 253.229,159.522 263.318,184.913L263.635,185.717C269.445,200.605 272.705,216.771 272.875,233.676L272.882,235.085L272.88,235.812L272.866,237.183L272.848,238.157L272.816,239.357L272.777,240.461C272.271,253.525 269.932,266.101 265.999,277.951C265.659,278.997 265.294,280.017 264.925,281.008L264.5,282.186C263.205,285.714 261.764,289.155 260.177,292.537C259.764,293.448 259.353,294.331 258.911,295.213C258.206,296.654 257.441,298.096 256.707,299.508C256.647,299.565 256.619,299.654 256.588,299.713C255.177,302.329 253.677,304.919 252.09,307.419C251.717,307.987 251.375,308.559 250.98,309.103L250.882,309.252C250.472,309.92 250.043,310.551 249.594,311.192L249.354,311.546L249.354,311.565C249.088,312.005 248.794,312.416 248.472,312.829C245.795,316.713 242.913,320.415 239.854,323.976C215.151,352.578 178.758,370.759 138.144,371.142L136.819,371.148C133.222,371.148 129.657,371.008 126.124,370.733C59.482,365.554 6.326,312.384 1.167,245.731C0.895,242.217 0.756,238.667 0.756,235.085L0.763,233.654ZM28.751,280.397C40.488,308.332 62.752,330.776 90.57,342.754C86.43,339.961 82.52,336.774 78.888,333.213C75.47,329.86 75.47,324.406 78.888,321.053C82.307,317.7 87.87,317.7 91.289,321.053C93.511,323.232 95.866,325.23 98.335,327.046C102.763,312.408 102.398,299.836 101.771,293.577L92.474,300.653C89.142,303.191 84.772,303.273 81.343,300.862C77.913,298.45 76.589,294.365 77.972,290.454L85.343,269.604L86.265,255.979C86.324,255.115 86.821,254.338 87.589,253.91C88.356,253.482 89.292,253.461 90.078,253.854C90.199,253.915 91.551,254.595 93.379,255.698L90.219,242.394L72.795,235.617L73.743,234.921L60.959,228.962L55.458,232.149L69.292,238.586L62.38,242.58L48.557,236.132L40.419,240.826L51.529,246.478L40.419,252.14L48.557,256.834L62.38,250.385L69.292,254.369L55.458,260.817L60.959,263.993L74.793,257.544L81.694,261.528L67.871,267.976L78.895,274.349C80.197,275.092 80.639,276.761 79.885,278.064C79.131,279.377 77.474,279.818 76.16,279.065L65.136,272.702L66.471,287.903L59.571,283.92L58.236,268.719L52.734,265.532L54.059,280.733L47.158,276.75L45.834,261.549L37.695,256.856L38.352,269.3L27.898,262.507L27.898,271.906L40.397,280.658L40.397,288.624L28.794,280.5L28.751,280.397ZM233.012,301.959C231.873,301.683 230.731,301.431 229.591,301.155C226.915,302.799 224.267,304.448 221.621,306.066C220.62,306.683 219.327,306.417 218.65,305.447C218.445,305.153 218.326,304.8 218.297,304.448L200.475,303.418L187.72,318.623C190.354,318.261 193.125,319.071 195.146,321.053C196.802,322.677 197.715,324.836 197.714,327.133C197.714,329.43 196.802,331.589 195.146,333.213C191.721,336.571 188.049,339.597 184.169,342.273C198.375,335.983 211.1,326.95 221.671,315.847C221.653,315.726 221.646,315.602 221.65,315.475C221.681,314.328 222.62,313.389 223.767,313.36L223.978,313.353C224.787,312.453 225.583,311.54 226.362,310.616C224.439,310.455 223.754,307.872 225.474,306.802C227.928,305.293 230.355,303.762 232.807,302.252L233.012,301.959ZM152.231,328.2C153.857,330.702 156.365,333.727 158.432,336.092C151.639,338.426 144.423,339.645 137.018,339.645C130.424,339.645 123.98,338.678 117.851,336.819L122.432,328.338C127.245,329.627 139.269,332.015 152.231,328.2ZM177.773,297.679C179.293,301.583 178.384,304.766 175.569,303.113C175.843,310.356 177.192,319.266 178.76,324.648C180.13,323.509 181.461,322.312 182.746,321.053C183.762,320.056 184.968,319.356 186.251,318.952L181.093,299.3L177.773,297.679ZM223.767,299.771C222.62,300.476 221.444,301.212 220.268,301.948L218.827,299.713C219.267,299.448 219.709,299.183 220.151,298.889C221.356,299.183 222.561,299.477 223.767,299.771ZM189.523,245.539L189.181,246.452L193.977,254.57L184.8,253.892L181.418,258.158L196.505,270.363L217.563,265.832L210.092,286.304L214.679,293.332C214.886,293.39 215.092,293.448 215.297,293.478C215.003,293.008 214.709,292.537 214.444,292.068C213.827,291.067 214.15,289.772 215.209,289.213C216.208,288.655 217.503,289.009 218.12,289.979C219.121,291.624 220.12,293.244 221.091,294.862C222.326,295.154 223.533,295.448 224.738,295.744C223.798,294.214 222.885,292.712 221.975,291.213C221.356,290.183 221.681,288.89 222.737,288.331C223.738,287.802 225.032,288.125 225.65,289.124C227.268,291.772 228.915,294.449 230.531,297.123C231.737,297.39 232.973,297.682 234.178,297.978C232.591,295.39 231.002,292.802 229.414,290.214C228.325,288.419 230.296,286.304 232.178,287.303C232.847,287.663 233.514,288.023 234.18,288.383L238.176,290.544C238.654,290.802 239.133,291.061 239.613,291.319C239.716,291.13 239.819,290.941 239.922,290.753C239.654,289.848 239.386,288.951 239.12,288.037C236.355,286.567 233.619,285.068 230.856,283.596C229.854,283.068 229.414,281.773 229.914,280.745C230.414,279.657 231.678,279.244 232.737,279.803C234.297,280.656 235.855,281.479 237.414,282.332C237.06,281.125 236.708,279.949 236.355,278.744L235.147,278.1C234.882,278.177 234.623,278.251 234.369,278.321C231.179,279.208 228.617,279.577 226.683,279.449C224.684,279.317 223.185,278.968 222.177,278.435C221.175,277.905 220.13,277.064 219.049,275.902C217.442,274.175 216.69,272.015 216.812,269.416C216.907,267.409 217.509,265.535 218.624,263.796C212.643,265.197 208.357,264.411 205.747,261.607C203.655,259.357 202.843,256.645 203.323,253.465C203.637,251.392 204.435,249.301 205.727,247.197C205.579,247.239 205.432,247.281 205.286,247.322C201.98,248.248 199.323,248.657 197.319,248.566C195.266,248.472 193.679,248.173 192.554,247.688C191.502,247.236 190.49,246.522 189.523,245.539ZM202.504,293.509L195.447,293.184L191.358,297.567L189.212,291.301L183.182,288.507L188.858,285.008L189.565,278.948L194.77,282.891L201.006,281.098L198.946,288.154L202.504,293.509ZM144.712,285.874L145.927,285.831C153.666,285.755 159.844,286.382 165.152,287.752L177.948,279.302L179.124,269.362L157.803,267.421L144.712,285.874ZM96.372,257.636C97.666,258.539 98.998,259.563 100.194,260.664C108.144,261.53 115.866,266.542 122.586,275.216C126.172,279.845 128.6,284.364 129.777,286.756C132.882,286.467 135.79,286.245 138.527,286.09L139.258,286.065L135.51,262.245L112.218,252.716L120.717,247.071L106.454,245.776L96.372,257.636ZM252.301,254.965C242.357,260.106 235.87,263.613 232.841,265.485C229.735,267.406 227.559,269.095 226.328,270.57C225.708,271.312 225.472,271.894 225.915,272.37C226.117,272.587 226.513,272.675 227.07,272.735C228.185,272.855 229.831,272.732 232.012,272.382C235.744,271.783 240.423,270.465 246.051,268.432C246.1,268.414 246.152,268.402 246.205,268.396C246.627,268.35 246.902,268.493 247.07,268.674C247.237,268.853 247.356,269.127 247.288,269.516C247.177,271.214 247.084,272.425 247.01,273.139C246.979,273.794 246.67,274.171 246.193,274.336C244.364,275.023 242.657,275.642 241.073,276.192L240.325,277.569L241.383,281.125C242.236,279.569 243.09,278.039 243.912,276.479C244.491,275.437 245.727,275.106 246.747,275.686C249.205,269.042 251.077,262.114 252.301,254.965ZM94.108,273.251C95.738,273.251 97.061,274.548 97.061,276.146C97.061,277.744 95.738,279.041 94.108,279.041C92.479,279.041 91.156,277.744 91.156,276.146C91.156,274.548 92.479,273.251 94.108,273.251ZM169.743,249.334L176.007,252.188L179.241,263.569L169.743,249.334ZM137.657,250.424L144.568,246.216L145.391,238.864L151.685,243.658L159.242,241.481L156.745,250.011L161.037,256.48L152.508,256.069L147.568,261.394L144.979,253.804L137.657,250.424ZM237.93,250.337C235.026,251.846 232.596,253.197 230.639,254.389C224.854,256.665 220.435,257.877 217.378,257.998C215.554,258.07 214.257,257.774 213.523,256.986C213.14,256.573 213.062,255.979 213.199,255.221C213.363,254.308 213.87,253.366 214.692,252.382C216.623,250.069 219.432,247.8 223.112,245.565C226.799,243.325 230.46,241.788 234.095,240.958C237.483,240.185 239.85,240.399 241.168,241.816C241.863,242.563 241.879,243.678 241.382,245.15C240.821,246.817 239.664,248.541 237.932,250.335L237.93,250.337ZM207.323,141.526C207.34,141.616 207.356,141.708 207.37,141.8C207.575,143.174 207.274,144.321 206.498,145.251C205.36,146.614 203.994,147.34 202.412,147.451C200.821,147.563 199.329,146.913 197.961,145.442C197.329,144.763 196.68,143.974 196.017,143.077C193.494,143.641 190.787,145.013 187.888,147.175C184.77,149.501 181.979,152.008 179.516,154.697C177.025,157.417 173.931,160.753 170.234,164.706C167.313,167.828 164.703,170.464 162.402,172.613C165.405,171.95 168.834,171.021 172.686,169.826C177.609,168.3 182.011,166.845 185.893,165.46C189.804,164.064 194.049,162.826 198.628,161.744C203.221,160.659 207.337,159.988 210.974,159.729C214.665,159.466 218.305,159.911 221.894,161.066C225.51,162.23 228.635,164.225 231.268,167.055C232.883,168.791 233.348,170.776 232.669,173.009C232.668,173.012 232.667,173.015 232.667,173.018C232.482,173.596 232.256,173.958 232.054,174.137C231.857,174.311 231.649,174.383 231.445,174.391C231.193,174.401 230.911,174.312 230.646,174.027C228.396,171.609 224.333,171.097 218.486,172.285C212.388,173.524 205.79,176.047 198.688,179.848C191.552,183.667 184.297,188.417 176.924,194.096C174.54,195.932 172.289,197.773 170.172,199.619C170.076,199.807 169.928,200.024 169.712,200.264C168.201,201.944 167.181,203.3 166.664,204.34C166.398,204.875 166.256,205.289 166.331,205.604C166.481,206.237 167.096,206.364 168.058,206.26C169.969,206.054 172.686,205.12 176.216,203.479C176.403,203.392 176.59,203.328 176.773,203.284C176.95,203.169 177.131,203.054 177.313,202.938C180.583,200.872 190.135,195.86 201.335,190.061C201.34,190.059 201.346,190.056 201.351,190.053C202.093,189.695 202.735,189.818 203.28,190.403L203.743,190.9L203.743,190.85C203.775,189.269 204.499,187.83 205.959,186.556C207.36,185.334 209.003,184.619 210.888,184.412C212.82,184.201 214.433,184.589 215.734,185.542C217.099,186.542 217.76,187.861 217.727,189.492C217.696,191.074 216.972,192.512 215.512,193.786C214.11,195.008 212.468,195.724 210.583,195.93C209.799,196.016 209.068,196.003 208.389,195.894L208.851,196.391C209.144,196.705 209.253,197.095 209.134,197.571C209.036,197.962 208.817,198.273 208.474,198.5C208.454,198.514 208.433,198.526 208.411,198.538C196.669,204.596 186.779,209.74 183.378,211.814C180.053,213.84 177.768,215.581 176.536,217.056C175.916,217.798 175.68,218.38 176.123,218.856C176.344,219.094 176.767,219.205 177.359,219.281C178.512,219.429 180.206,219.333 182.442,219.009C186.266,218.454 190.966,217.188 196.541,215.216C196.57,215.205 196.599,215.197 196.629,215.191C204.335,212.112 210.562,209.274 215.311,206.674C215.292,204.98 215.681,203.7 216.416,202.82C217.658,201.333 218.961,200.53 220.29,200.354C221.71,200.166 222.889,200.583 223.832,201.597C224.651,202.477 225.033,203.58 224.955,204.914C224.881,206.182 224.374,207.396 223.414,208.546C223.248,208.745 223.044,208.934 222.8,209.112C222.8,209.112 222.91,209.89 222.909,209.887C223.28,211.67 223.532,213.039 223.667,213.993C223.802,214.954 223.916,216.182 224.008,217.678C224.104,219.244 223.971,220.599 223.621,221.746C223.264,222.917 222.727,223.927 222.015,224.78C221.304,225.631 220.315,226.37 219.038,226.986C219.034,226.988 219.029,226.99 219.024,226.993C206.402,232.722 198.922,236.928 196.625,239.68C195.954,240.484 195.719,241.122 196.206,241.645C196.302,241.749 196.496,241.789 196.757,241.841C197.168,241.924 197.709,241.964 198.38,241.967C199.798,241.973 202.162,241.586 205.475,240.82C208.362,240.152 211.622,239.192 215.252,237.941C215.406,237.845 215.563,237.749 215.72,237.653C218.881,235.744 222.16,234.283 225.557,233.269C229,232.241 232.439,232.007 235.873,232.566C239.366,233.133 242.203,234.599 244.39,236.951C246.85,239.594 247.649,242.505 246.788,245.682C247.518,245.342 248.15,245.468 248.688,246.046L252.959,250.637C253.635,245.548 253.984,240.357 253.984,235.085C253.984,196.881 235.659,162.923 207.323,141.526ZM187.162,239.005L187.167,238.918C187.336,236.427 188.297,234.122 190.061,232.01C191.764,229.969 194.267,227.906 197.575,225.831C200.827,223.79 206.274,221.052 213.921,217.619C214.7,217.242 215.296,216.821 215.697,216.34C216.263,215.663 216.445,214.551 216.33,213.015C211.142,215.55 203.44,218.682 193.224,222.408L193.012,222.462C189.842,223.587 187.109,224.456 184.814,225.071C181.598,225.933 178.997,226.264 177.014,226.084L176.82,226.065L168.771,246.775L175.154,243.424L175.802,234.426L183.007,240.159L187.162,239.005ZM136.951,215.603L134.158,214.25L133.128,238.953L124.099,244.982L114.747,230.777L121.159,213.484L107.513,216.397L113.805,208.336L131.216,209.631L135.804,211.22L136.951,215.603ZM108.423,237.6L102.159,237.308L98.513,241.218L96.601,235.629L91.221,233.158L96.278,230.041L96.897,224.63L101.543,228.16L107.101,226.542L105.276,232.835L108.423,237.6ZM27.866,191.94L27.866,191.939C35.519,172.65 48.152,155.866 64.177,143.178L70.546,145.608L72.309,151.812L72.104,167.459L61.28,174.605L73.22,179.604L77.192,191.927L84.455,182.341L94.748,183.163L94.574,185.811L78.604,196.25L83.984,199.367L80.191,200.339L72.897,194.369L71.956,203.573L66.25,207.577L66.471,205.063L59.571,209.046L58.236,224.247L52.734,227.423L54.059,212.222L47.158,216.205L45.834,231.406L37.695,236.1L38.352,223.655L27.898,230.448L27.898,221.06L40.397,212.308L40.397,204.331L27.898,213.083L27.898,206.731L40.397,197.979L40.397,190.013L27.898,198.754L27.898,191.859C27.888,191.886 27.877,191.913 27.866,191.94ZM79.742,230.517L67.871,224.979L75.44,220.61L75.691,221.425L81.367,214.368L88.425,215.19L87.866,224.809L84.955,226.69L79.742,230.517ZM20.912,219.942L20.907,219.979L22.451,221.06L22.451,230.448L19.829,228.744C19.884,228.366 20.271,224.663 20.907,219.979L20.855,219.942L20.912,219.942ZM173.503,225.432C173.107,225.302 172.757,225.156 172.455,224.996C171.454,224.467 170.385,223.601 169.256,222.388C167.715,220.732 166.983,218.626 167.086,216.062C165.896,215.802 164.772,215.354 163.712,214.717C161.687,213.499 160.373,211.911 159.751,209.966C159.376,210.398 159.008,210.83 158.647,211.262C157.679,212.421 156.966,213.471 156.515,214.416C156.103,215.278 155.876,215.929 155.88,216.384C155.885,216.917 155.879,217.409 155.863,217.86C155.84,218.462 155.649,218.967 155.305,219.379C154.592,220.233 153.171,220.594 151,220.217C149.012,219.873 147.265,218.9 145.766,217.289C145.181,216.66 144.722,215.985 144.39,215.262L140.422,219.337L153.743,230.337L173.503,225.432ZM19.829,228.744C19.826,228.765 19.824,228.776 19.823,228.776C19.822,228.775 19.822,228.764 19.823,228.74L19.829,228.744ZM65.136,220.264L73.789,215.262L72.986,212.661L66.093,209.374L65.136,220.264ZM96.601,204.074L99.043,213.808L89.278,205.925L89.132,206.044L88.308,210.955L85.514,207.014L88.102,200.839L96.601,204.074ZM82.514,210.544L79.486,210.398L77.72,212.279L76.81,209.574L74.192,208.398L76.662,206.868L76.956,204.28L79.19,205.955L81.867,205.193L80.985,208.221L82.514,210.544ZM153.556,196.396C158.638,191.491 165.279,186.525 173.481,181.501C179.487,177.822 185.37,174.68 191.133,172.073C190.555,172.262 189.965,172.456 189.366,172.655C182.843,174.825 176.893,176.836 171.516,178.688C166.119,180.547 160.146,182.277 153.596,183.876C147.03,185.479 141.288,186.41 136.387,186.672C134.519,186.876 132.683,186.883 130.881,186.695C130.574,186.713 130.324,186.634 130.124,186.495C129.846,186.3 129.628,185.951 129.594,185.393C129.615,185.744 129.907,186.019 130.259,186.019L129.593,185.316L129.611,184.83C129.637,184.136 129.98,183.608 130.676,183.272C130.704,183.259 130.733,183.247 130.762,183.238C133.826,182.257 137.12,180.368 140.651,177.585C144.235,174.762 147.722,171.607 151.114,168.122C154.526,164.615 157.952,161.093 161.39,157.556C164.847,153.999 168.576,150.619 172.578,147.418C173.76,146.473 174.926,145.601 176.081,144.801C173.652,145.855 171.046,147.077 168.262,148.467C161.853,151.665 155.929,154.783 150.491,157.821C145.03,160.871 139.591,163.684 134.172,166.261C128.689,168.868 123.818,170.413 119.563,170.906C115.119,171.422 111.727,170.373 109.365,167.835C108.381,166.777 107.675,165.534 107.255,164.102L105.19,163.989L99.925,169.899L109.924,179.399L128.628,174.545L122.306,192.398L129.863,203.515L134.01,201.427L135.422,189.809L143.481,197.28L154.274,194.25L153.556,196.396ZM115.777,199.663L109.482,199.367L105.835,203.281L103.923,197.691L98.543,195.22L103.629,192.104L104.248,186.693L108.894,190.222L114.453,188.605L112.601,194.897L115.777,199.663ZM130.512,185.952L130.528,185.962C130.444,185.999 130.353,186.019 130.259,186.019C130.259,186.019 130.376,186.009 130.512,185.952ZM77.897,171.429L78.337,167.43L81.778,170.016L85.896,168.84L84.543,173.488L86.866,177.018L82.22,176.782L79.544,179.693L78.132,175.546L74.133,173.723L77.897,171.429ZM94.514,161.341L96.985,162.165L98.159,168.871L95.955,167.105L95.131,178.694L90.337,172.399L94.514,161.341ZM83.074,163.666L76.485,157.665L83.337,148.607L95.69,149.489L95.338,154.195L88.573,158.167L92.865,160.636L83.074,163.666ZM106.1,159.665L103.07,159.548L101.308,161.429L100.396,158.724L97.779,157.519L100.248,156.018L100.544,153.43L102.778,155.108L105.455,154.343L104.571,157.371L106.1,159.665ZM142.323,118.047C140.381,119.486 138.634,121.135 137.082,122.994C135.252,125.185 134.159,127.327 133.828,129.433C133.514,131.426 134.024,133.144 135.364,134.585C137.079,136.427 139.481,137.084 142.551,136.621C145.681,136.149 147.973,135.087 149.4,133.379C149.83,132.864 150.272,132.771 150.597,132.848C150.793,132.894 150.986,133.003 151.154,133.209C151.334,133.431 151.51,133.842 151.621,134.459C152.04,136.209 151.613,137.873 150.303,139.442C147.781,142.462 144.032,144.324 139.037,144.985C134.003,145.651 129.809,144.175 126.452,140.567C123.696,137.605 122.426,133.442 122.701,128.059C122.875,124.659 123.725,121.467 125.254,118.485C114.284,119.561 103.758,122.153 93.883,126.049L90.279,137.638L96.043,146.373L96.424,144.019L102.984,150.225L112.042,147.785L111.572,149.712L111.579,149.708C112.525,149.192 113.197,149.333 113.585,149.749C113.638,149.807 113.719,149.913 113.768,150.096C113.807,150.245 113.847,150.596 113.871,151.152C113.89,151.572 113.993,151.91 114.22,152.154C115.09,153.089 116.001,153.804 116.956,154.292C117.913,154.782 119.38,155.042 121.35,155.11C123.39,155.181 125.774,154.835 128.502,154.082C131.286,153.313 134.966,151.968 139.543,150.048C144.137,148.121 149.403,145.599 155.341,142.483C155.342,142.483 155.342,142.483 155.343,142.483C168.749,135.495 179.936,131.97 188.894,131.871C188.369,131.003 187.855,130.166 187.35,129.363C173.602,122.775 158.382,118.791 142.323,118.047ZM75.653,135.155C76.528,134.618 77.411,134.092 78.301,133.577L79.749,134.667L84.19,133.374L82.72,138.431L85.251,142.255L80.22,142.02L77.309,145.137L75.78,140.668L71.456,138.668L75.543,136.168L75.653,135.155ZM180.189,106.092C174.413,104.148 168.461,102.581 162.366,101.421C161.639,100.11 160.883,98.715 160.126,97.318C160.038,97.141 159.95,96.995 159.89,96.847C157.125,91.759 155.303,86.083 153.862,80.436L179.889,104.287L180.419,105.288C180.419,105.288 180.253,105.564 180.189,106.092ZM115.274,100.721C108.993,101.722 102.856,103.153 96.893,104.984L96.631,104.2L98.278,101.641L126.011,79.759C123.982,85.819 121.482,91.818 117.923,97.024L117.894,97.024C117.835,97.141 117.775,97.229 117.687,97.318C117.658,97.406 117.57,97.523 117.452,97.671C116.986,98.312 116.204,99.471 115.274,100.721ZM135.95,51.587C137.215,50.409 138.892,49.792 140.627,49.852C142.334,49.909 143.98,50.645 145.127,51.938C146.303,53.174 146.951,54.849 146.862,56.556C146.803,58.291 146.038,59.908 144.803,61.086C143.509,62.26 141.863,62.879 140.128,62.819C138.421,62.762 136.775,62.026 135.628,60.733C134.452,59.497 133.804,57.82 133.864,56.115C133.952,54.35 134.717,52.763 135.95,51.587ZM207.857,15.296C218.916,11.766 223.15,20.353 218.297,30.998C205.298,42.235 188.889,48.674 171.713,49.233C178.065,33.087 191.329,20.618 207.857,15.296ZM64.545,25.293C60.458,14.325 65.338,6.09 76.074,10.442C92.16,16.971 104.454,30.352 109.63,46.91C92.543,45.117 76.633,37.47 64.545,25.293Z" style="fill:none;stroke:rgb(255,0,0);stroke-width:1px;"/>
</svg>
