<?xml version="1.0" encoding="UTF-8" standalone="no"?>
<!DOCTYPE svg PUBLIC "-//W3C//DTD SVG 1.1//EN" "http://www.w3.org/Graphics/SVG/1.1/DTD/svg11.dtd">
<svg width="100%" height="100%" viewBox="0 0 1123 794" version="1.1" xmlns="http://www.w3.org/2000/svg" xmlns:xlink="http://www.w3.org/1999/xlink" xml:space="preserve" xmlns:serif="http://www.serif.com/" style="fill-rule:evenodd;clip-rule:evenodd;stroke-linejoin:round;stroke-miterlimit:2;">
    <path d="M144.768,40.265C146.525,40.302 148.11,40.912 149.422,41.91C150.863,43.057 151.891,44.704 152.273,46.587C152.802,46.587 182.859,16.178 188.975,12.177C194.836,8.337 202.831,5.966 211.003,5.93C211.404,5.929 211.807,5.932 212.21,5.942C221.975,6.413 230.502,10.413 234.032,19.412C239.942,32.998 232.913,47.381 232.854,60.821C232.825,76.702 247.707,93.348 235.179,108.435C229.972,113.729 222.856,118.846 215.857,121.903L215.797,121.903L214.909,122.185L213.44,122.66C235.271,137.575 252.544,158.68 262.718,183.428L263.146,184.482L263.635,185.717L264.183,187.147L264.715,188.58L264.956,189.247L265.465,190.694L265.958,192.147L266.475,193.735L266.941,195.223L267.39,196.719L267.822,198.222L268.318,200.033L268.765,201.757L269.14,203.283L269.499,204.816L269.84,206.356L270.097,207.582L270.267,208.418L270.567,209.973L270.849,211.533L271.113,213.1L271.309,214.338L271.419,215.073L271.66,216.779L271.864,218.366L272.05,219.958L272.182,221.204L272.257,221.958L272.366,223.158L272.397,223.517L272.519,225.075L272.624,226.63L272.71,228.177L272.746,228.945L272.807,230.524L272.85,232.102C272.861,232.627 272.87,233.152 272.875,233.676L272.882,235.204L272.88,235.812C272.877,236.27 272.873,236.727 272.866,237.183L272.845,238.277C272.836,238.637 272.827,238.997 272.816,239.357L272.77,240.666L272.707,242.056L272.66,242.916C272.616,243.693 272.566,244.469 272.509,245.242L272.378,246.891L272.235,248.448L272.115,249.632L271.964,250.996L271.773,252.558L271.607,253.813L271.429,255.064L271.176,256.717L270.983,257.897L270.743,259.275L270.405,261.091L270.108,262.584L269.863,263.752L269.428,265.714L269.074,267.212L268.795,268.344L268.42,269.801L268.042,271.21L267.725,272.344L267.361,273.601L266.892,275.16L266.363,276.838L265.822,278.487L265.452,279.56L265.025,280.738L264.863,281.178C264.752,281.514 264.639,281.848 264.5,282.186C263.205,285.714 261.764,289.155 260.177,292.537C259.764,293.448 259.353,294.331 258.911,295.213C258.206,296.654 257.441,298.096 256.707,299.508C256.647,299.565 256.619,299.654 256.588,299.713C255.177,302.329 253.677,304.919 252.09,307.419L251.385,308.513L250.98,309.103L250.316,310.136L249.767,310.943L249.354,311.546L249.354,311.565C249.088,312.005 248.794,312.416 248.472,312.829C247.32,314.5 246.13,316.138 244.904,317.745L244.816,317.86C243.221,319.948 241.565,321.984 239.854,323.976L239.073,324.871L238.079,325.991L237.478,326.655L236.874,327.314L236.265,327.97L235.652,328.622L235.034,329.27L234.413,329.913L233.787,330.553L233.157,331.188L232.523,331.819L231.885,332.446L231.243,333.069L230.597,333.688L229.946,334.303L229.292,334.913L228.634,335.519L227.305,336.718L225.961,337.9L224.601,339.064L223.226,340.21L221.835,341.339L220.43,342.45L219.251,343.358L218.294,344.082L217.12,344.95L216.125,345.672L214.957,346.501L213.924,347.22L212.763,348.011L211.691,348.725L210.538,349.478L209.428,350.187L208.283,350.903L207.134,351.605L205.999,352.284L204.81,352.979L203.686,353.621L202.128,354.488L200.557,355.336L199.718,355.777L198.921,356.19L198.122,356.597L197.319,356.999L196.514,357.396L195.706,357.788L194.894,358.175L194.08,358.556L193.263,358.932L192.443,359.303L191.621,359.668L190.795,360.029L189.967,360.383L189.136,360.733L188.303,361.077L187.466,361.416L186.627,361.749L185.472,362.197L184.208,362.674L183.508,362.932C175.658,365.798 167.471,367.962 159.021,369.348L157.605,369.572L156.197,369.781L154.318,370.035L152.436,370.263L150.549,370.465L148.516,370.653L146.646,370.8L144.654,370.927L142.787,371.02L140.923,371.087L139.53,371.121L138.144,371.142L136.819,371.148L135.472,371.141L135.01,371.136L133.308,371.103L132.116,371.068L131.571,371.048C131.011,371.027 130.452,371.002 129.893,370.974L128.91,370.921L128.07,370.87L126.787,370.783L125.344,370.67L124.595,370.605L123.757,370.528L122.78,370.431L121.461,370.29L119.917,370.108L119.147,370.01L118.622,369.94C61.059,362.253 14.891,318.582 3.474,262.277L3.239,261.09L2.955,259.579L2.689,258.062L2.439,256.54L2.206,255.012L1.989,253.478L1.79,251.939L1.609,250.395L1.444,248.846L1.295,247.267L1.199,246.139L1.071,244.412L1.03,243.782L0.93,242.013L0.887,241.098L0.867,240.61L0.814,239.101L0.782,237.765L0.762,236.427L0.756,235.069L0.761,233.92L0.78,232.504L0.814,231.055L0.874,229.343L0.941,227.924L1.04,226.215L1.16,224.51L1.339,222.399L1.503,220.733L1.754,218.52L1.965,216.867L2.116,215.769L2.36,214.126L2.623,212.491L2.832,211.276L3.004,210.32L3.25,209.022L3.391,208.305L3.7,206.805L3.847,206.115L4.228,204.413L4.525,203.156L4.699,202.441L5.07,200.971L5.248,200.286L5.705,198.602L6.047,197.393L6.255,196.679L6.685,195.245L7.142,193.78L7.652,192.213L8.179,190.657L8.724,189.112L9.286,187.576L9.865,186.051L10.462,184.535L11.076,183.028L11.589,181.809L12.228,180.334L12.884,178.867L13.557,177.41L14.247,175.963L14.953,174.524L15.675,173.096L16.414,171.677L17.169,170.268L17.681,169.334L18.2,168.404L18.727,167.479L19.26,166.559L19.8,165.643L20.347,164.732L20.901,163.825L21.462,162.923L21.995,162.081C24.011,158.918 26.155,155.843 28.418,152.865L29.105,151.969L30.119,150.673L31.137,149.404L32.163,148.156L33.2,146.924L34.249,145.708L35.309,144.506L36.64,143.037L37.833,141.756L39.206,140.322L40.549,138.958L41.845,137.678L43.198,136.376L44.743,134.932L46.31,133.513L47.5,132.464L48.702,131.429L49.916,130.407L51.142,129.4L52.38,128.406L53.63,127.427L54.892,126.462L56.165,125.511L57.449,124.575L58.745,123.654L60.052,122.747L61.369,121.855L62.698,120.978L64.037,120.117L64.936,119.551L65.84,118.992C65.398,118.817 65.044,118.669 64.75,118.492L64.722,118.492C55.281,115.374 48.341,108.758 41.958,101.287C30.577,85.318 46.666,69.791 47.751,53.967C48.723,40.557 42.782,25.706 49.694,12.56C53.84,3.853 62.664,0.531 72.427,0.768C81.014,1.208 89.338,4.267 95.161,8.707C107.57,18.236 119.159,31.999 128.776,45.146C128.776,44.116 130.394,42.292 132.157,41.293C133.276,40.617 134.598,40.263 136.01,40.263L144.597,40.263L144.768,40.265ZM233.106,301.981L233,302.134C230.483,303.681 227.993,305.253 225.474,306.802C223.721,307.892 224.466,310.555 226.475,310.623C225.699,311.543 224.907,312.453 224.102,313.349L223.767,313.36C222.62,313.389 221.681,314.328 221.65,315.475C221.645,315.641 221.659,315.803 221.69,315.957C200.328,338.368 170.192,352.34 136.819,352.34C129.603,352.34 122.539,351.687 115.679,350.436L134.186,327.506L164.772,329.681L159.508,320.888L165.184,312.093L175.802,312.975L170.243,303.566L173.565,295.625L181.093,299.3L186.535,320.035L200.475,303.418L218.297,304.448C218.326,304.8 218.445,305.153 218.65,305.447C219.327,306.417 220.62,306.683 221.621,306.066C224.267,304.448 226.915,302.799 229.591,301.155C230.762,301.438 231.935,301.697 233.106,301.981ZM107.895,341.033L113.364,348.678L110.159,337.003L107.895,341.033ZM104.571,345.769L100.63,345.592L99.878,346.393C99.065,346.123 98.255,345.844 97.449,345.556L97.102,344.532L93.718,342.975L96.925,341.004L97.306,337.591L100.219,339.797L103.749,338.798L102.571,342.768L104.571,345.769ZM85.131,273.303L79.354,270.4L80.178,272.648C80.193,272.692 80.209,272.736 80.222,272.78C81.181,275.96 79.411,279.432 76.27,280.531C74.342,281.206 72.35,280.866 70.84,279.792C71.014,281.638 70.315,283.537 68.77,284.872C67.596,285.888 66.126,286.394 64.662,286.394C62.977,286.394 61.301,285.725 60.085,284.426C60.052,284.392 60.022,284.357 59.993,284.321L57.193,280.956L57.193,288.369C57.193,291.684 54.444,294.418 50.997,294.418C47.547,294.418 44.798,291.684 44.798,288.369L44.798,280.956L41.998,284.321C41.969,284.357 41.939,284.392 41.906,284.426C39.633,286.853 35.746,287.057 33.221,284.874L33.221,284.872C31.676,283.537 30.977,281.638 31.152,279.792C30.457,280.285 29.66,280.624 28.814,280.779C39.992,307.142 60.547,328.582 86.29,340.908L91.19,337.739L92.396,325.651L101.189,333.062L108.66,330.739L105.749,320.828L76.779,308.771L84.691,302.624L82.543,295.744L74.367,291.949L81.926,286.273L82.749,277.684L87.308,281.333L85.131,273.303ZM117.923,310.182L108.954,306.066L117.395,300.861L118.423,291.83L126.187,297.713L135.451,295.037L132.392,305.535L137.657,313.475L127.187,312.975L121.099,319.533L117.923,310.182ZM158.478,319.476L151.155,307.801L156.126,310.066L158.478,319.476ZM156.891,305.007L159.832,303.212L160.184,300.067L162.889,302.125L166.096,301.183L165.036,304.83L166.861,307.595L163.243,307.419L161.125,309.711L160.007,306.448L156.891,305.007ZM169.832,294.508L163.95,296.566L155.684,289.92L154.539,300.772L148.686,303.77L158.714,273.038L151.862,274.421L157.803,267.421L179.124,269.362L177.948,279.302L160.979,290.508L169.832,294.508ZM223.767,299.771C222.62,300.476 221.444,301.212 220.268,301.948L218.827,299.713C219.267,299.448 219.709,299.183 220.151,298.889C221.356,299.183 222.561,299.477 223.767,299.771ZM91.073,297.625L88.014,301.654L94.543,297.832L91.073,297.625ZM190.072,130.61C191.459,132.13 192.74,133.797 193.916,135.613C195.16,137.534 196.453,139.668 197.796,142.015C199.052,144.213 200.095,145.92 200.923,147.137C204.146,148.155 206.877,149.864 209.117,152.26C209.901,153.099 210.39,154.129 210.577,155.353C210.773,156.647 210.491,157.729 209.762,158.606C208.695,159.889 207.413,160.574 205.928,160.682C204.433,160.79 203.028,160.184 201.739,158.805C201.153,158.178 200.552,157.451 199.937,156.625C197.601,157.158 195.097,158.438 192.418,160.446C189.52,162.618 186.927,164.958 184.64,167.467C182.324,170.007 179.447,173.123 176.011,176.813C173.347,179.675 170.96,182.099 168.849,184.086C171.607,183.465 174.744,182.604 178.261,181.505C182.844,180.072 186.942,178.707 190.555,177.409C194.198,176.1 198.152,174.936 202.419,173.918C206.699,172.897 210.534,172.262 213.925,172.013C217.37,171.759 220.768,172.167 224.121,173.237C227.5,174.316 230.422,176.173 232.887,178.81C234.407,180.437 234.848,182.3 234.216,184.399C234.215,184.402 234.214,184.405 234.213,184.408C234.039,184.958 233.823,185.301 233.631,185.472C233.439,185.642 233.236,185.713 233.037,185.721C232.791,185.731 232.515,185.647 232.256,185.37C230.163,183.13 226.389,182.67 220.964,183.786C215.288,184.953 209.15,187.317 202.545,190.871C195.906,194.444 189.159,198.883 182.302,204.189C178.241,207.332 174.595,210.491 171.366,213.667C174.484,214.403 178.016,214.473 180.824,213.556C181.393,213.159 181.995,212.758 182.632,212.354C185.675,210.421 192.408,206.74 202.833,201.312C202.839,201.309 202.844,201.306 202.85,201.303C203.561,200.958 204.177,201.075 204.701,201.635L204.733,201.67C205.03,200.696 205.646,199.788 206.596,198.956L206.596,198.955C207.907,197.807 209.444,197.134 211.21,196.936C213.022,196.734 214.537,197.095 215.76,197.987C217.046,198.926 217.671,200.165 217.644,201.701C217.618,203.187 216.942,204.541 215.573,205.74C214.263,206.888 212.725,207.562 210.96,207.759C210.705,207.788 210.455,207.805 210.212,207.811C210.238,207.974 210.229,208.152 210.181,208.343C210.088,208.719 209.879,209.018 209.55,209.238C209.53,209.251 209.508,209.264 209.487,209.275C198.561,214.945 191.515,218.749 188.35,220.687C185.262,222.579 183.14,224.202 181.997,225.577C181.441,226.247 181.215,226.768 181.615,227.195C181.816,227.411 182.202,227.507 182.74,227.575C183.811,227.71 185.385,227.616 187.463,227.31C189.22,227.051 191.177,226.629 193.33,226.048C194.18,225.437 194.976,225.234 195.699,225.366C197.238,224.899 198.867,224.359 200.584,223.748C200.632,223.73 200.682,223.719 200.733,223.713C200.876,223.697 201.001,223.704 201.11,223.726C205.125,222.37 210.296,220.474 216.62,218.041C219.688,216.85 222.295,217.417 224.448,219.719C225.512,220.858 226.072,222.279 226.113,223.989C226.154,225.721 225.771,227.024 225.028,227.917C224.914,228.055 224.748,228.141 224.57,228.155C223.024,228.281 221.414,229.166 219.713,230.756C217.913,232.438 216.293,234.364 214.851,236.534C213.371,238.761 211.72,241.046 209.896,243.389C208.475,245.214 207.11,246.807 205.8,248.17C209.551,248.06 214.274,246.949 219.975,244.857C223.631,242.804 228.867,240.003 235.683,236.455C235.688,236.452 235.694,236.449 235.7,236.446C236.41,236.101 237.026,236.217 237.551,236.778L237.929,237.183C238.219,236.188 238.84,235.262 239.809,234.413L239.809,234.413C241.119,233.265 242.656,232.591 244.422,232.394C246.235,232.191 247.749,232.553 248.972,233.445C250.258,234.383 250.883,235.623 250.856,237.159C250.83,238.645 250.154,239.998 248.785,241.198C247.475,242.346 245.938,243.02 244.172,243.217C243.791,243.26 243.423,243.277 243.069,243.27C243.062,243.34 243.05,243.412 243.031,243.486C242.938,243.862 242.728,244.161 242.4,244.381C242.379,244.394 242.358,244.407 242.336,244.418C231.41,250.088 224.364,253.891 221.199,255.83C218.112,257.722 215.989,259.345 214.847,260.72C214.29,261.39 214.065,261.911 214.464,262.338C214.666,262.554 215.052,262.65 215.589,262.718C216.661,262.852 218.235,262.759 220.312,262.453C223.872,261.928 228.246,260.739 233.433,258.891C233.482,258.873 233.532,258.862 233.583,258.856C233.996,258.81 234.264,258.951 234.429,259.128C234.591,259.301 234.709,259.565 234.647,259.934C234.634,260.262 234.589,260.903 234.512,261.857L234.394,263.319C234.367,263.953 234.067,264.318 233.606,264.479C229.161,266.16 225.477,267.395 222.555,268.186C220.098,268.85 218.025,269.181 216.338,269.189L210.092,286.304L214.679,293.332C214.886,293.39 215.092,293.448 215.297,293.478C215.003,293.008 214.709,292.537 214.444,292.068C213.827,291.067 214.15,289.772 215.209,289.213C216.208,288.655 217.503,289.009 218.12,289.979C219.121,291.624 220.12,293.244 221.091,294.862C222.326,295.154 223.533,295.448 224.738,295.744C223.798,294.214 222.885,292.712 221.975,291.213C221.356,290.183 221.681,288.89 222.737,288.331C223.738,287.802 225.032,288.125 225.65,289.124C227.268,291.772 228.915,294.449 230.531,297.123C231.737,297.39 232.973,297.682 234.178,297.978C232.591,295.39 231.002,292.802 229.414,290.214C228.325,288.419 230.296,286.304 232.178,287.303C234.692,288.656 237.18,290.008 239.692,291.362L239.958,290.875C239.678,289.929 239.398,288.992 239.12,288.037C236.355,286.567 233.619,285.068 230.856,283.596C229.854,283.068 229.414,281.773 229.914,280.745C230.414,279.657 231.678,279.244 232.737,279.803C234.297,280.656 235.855,281.479 237.414,282.332C237.06,281.125 236.708,279.949 236.355,278.744C234.65,277.832 232.973,276.95 231.296,276.039C230.296,275.48 229.885,274.216 230.356,273.186C230.856,272.098 232.12,271.685 233.179,272.244C233.649,272.509 234.149,272.774 234.65,273.038C234.266,271.833 233.915,270.626 233.561,269.393C233.238,268.303 233.795,267.097 234.943,266.745C236.061,266.422 237.208,267.127 237.531,268.215C237.884,269.42 238.267,270.626 238.618,271.833C238.885,271.362 239.149,270.861 239.414,270.392C239.973,269.331 241.266,269.01 242.265,269.627C243.266,270.215 243.589,271.508 243.059,272.538L240.325,277.569C240.678,278.744 241.03,279.949 241.383,281.125C242.236,279.569 243.09,278.039 243.912,276.479C244.5,275.42 245.766,275.096 246.796,275.714L246.825,275.733C251.513,263.07 254.074,249.374 254.074,235.085C254.074,189.538 228.049,150.022 190.072,130.61ZM202.504,293.509L195.447,293.184L191.358,297.567L189.212,291.301L183.182,288.507L188.858,285.008L189.565,278.948L194.77,282.891L201.006,281.098L198.946,288.154L202.504,293.509ZM92.631,293.39L89.278,293.213L87.308,295.331L86.279,292.331L83.396,291.007L86.132,289.332L86.455,286.419L88.926,288.302L91.926,287.449L90.927,290.83L92.631,293.39ZM95.661,275.126L103.66,275.774L102.836,292.331L98.924,294.566L95.807,289.772L98.543,281.596L89.338,283.271L95.661,275.126ZM98.806,255.804L106.454,245.776L120.717,247.071L112.218,252.716L135.51,262.245L139.303,278.155L128.657,280.979L104.542,260.512L103.66,269.596L100.984,266.009L104.69,255.07L98.806,255.804ZM33.617,275.518L35.978,260.906L44.798,256.088L45.284,265.759L33.617,275.518ZM68.374,275.516L56.423,266.816L57.193,256.088L66.785,261.932L68.374,275.516ZM190.539,248.752L193.977,254.57L184.8,253.892L181.418,258.158L196.505,270.363L209.951,267.47C209.327,267.011 208.678,266.424 208.007,265.706C206.544,264.14 205.853,262.142 205.962,259.703C206.05,257.758 206.647,255.944 207.76,254.265C206.409,254.505 205.191,254.632 204.106,254.649C200.228,254.71 196.833,253.627 193.923,251.412C192.819,250.778 191.69,249.893 190.539,248.752ZM95.955,263.598C95.955,263.598 93.726,264.232 93.726,264.232C94.485,265.959 94.443,268.037 93.413,269.845L96.72,269.979C96.72,269.979 94.896,267.246 94.896,267.246L95.955,263.598ZM169.743,249.334L176.007,252.188L179.241,263.569L169.743,249.334ZM234.388,263.371L234.394,263.322C234.391,263.372 234.382,263.42 234.368,263.466L234.388,263.371ZM137.657,250.424L144.568,246.216L145.391,238.864L151.685,243.658L159.242,241.481L156.745,250.011L161.037,256.48L152.508,256.069L147.568,261.394L144.979,253.804L137.657,250.424ZM93.065,254.373C92.686,254.936 92.218,255.437 91.68,255.854L93.838,257.628C93.838,257.628 93.065,254.373 93.065,254.373ZM19.892,243.913L30.396,239.854L39.892,245.33L30.696,251.158L20.154,246.913C20.055,245.921 19.967,244.919 19.892,243.913ZM177.771,247.63L179.977,246.275L180.242,243.924L182.271,245.453L184.683,244.775L183.889,247.511L185.242,249.569L182.534,249.452L180.947,251.158L180.094,248.718L177.771,247.63ZM85.767,245.33L71.954,250.362L62.099,245.33L72.204,240.111L85.767,245.33ZM175.097,230.497L168.771,246.775L175.154,243.424L175.802,234.426L183.007,240.159L186.964,239.06C187.06,237.162 187.457,235.36 188.153,233.654L188.255,233.406C185.912,233.946 183.967,234.141 182.423,234.005C180.515,233.836 179.095,233.49 178.155,232.996C177.218,232.502 176.216,231.695 175.158,230.563L175.097,230.497ZM90.909,245.299L90.892,245.226C90.821,245.263 90.748,245.297 90.675,245.33C90.767,245.374 90.859,245.418 90.949,245.466L90.909,245.299ZM136.951,215.603L134.158,214.25L133.128,238.953L124.099,244.982L114.747,230.777L121.159,213.484L107.513,216.397L113.805,208.336L131.216,209.631L135.804,211.22L136.951,215.603ZM108.423,237.6L102.159,237.308L98.513,241.218L96.601,235.629L91.221,233.158L96.278,230.041L96.897,224.63L101.543,228.16L107.101,226.542L105.276,232.835L108.423,237.6ZM194.472,239.67C193.465,238.592 193.239,237.238 193.74,235.617C194.277,233.882 195.287,232.293 196.762,230.844C200.047,229.928 204.354,228.569 209.685,226.764C209.254,227.319 208.796,227.923 208.31,228.575C207.25,229.999 206.319,231.242 205.518,232.304C204.72,233.363 203.852,234.48 202.915,235.656C202.003,236.803 201.164,237.718 200.399,238.4C199.641,239.075 198.866,239.654 198.072,240.136C197.395,240.547 196.76,240.732 196.156,240.653C195.555,240.575 195.001,240.235 194.472,239.67ZM33.617,215.144L45.803,224.221L44.798,234.574L35.216,230.049L33.617,215.144ZM68.374,215.144L65.894,229.603L57.193,234.572L57.247,224.607L68.374,215.144ZM153.844,214.119L145.892,213.72L140.422,219.337L153.743,230.337L160.465,228.668C159.835,228.766 159.07,228.748 158.167,228.593C156.304,228.275 154.666,227.368 153.259,225.862C150.573,222.989 150.691,219.058 153.844,214.119ZM173.113,225.529C173.098,225.214 173.098,224.891 173.113,224.561C173.186,222.928 173.618,221.388 174.414,219.942C172.196,219.213 169.867,218.273 167.821,217.343C166.948,218.3 166.113,219.257 165.316,220.217C164.42,221.295 163.759,222.272 163.342,223.151C162.965,223.946 162.755,224.546 162.76,224.966C162.766,225.463 162.761,225.922 162.746,226.343C162.726,226.915 162.545,227.395 162.219,227.787C161.965,228.093 161.614,228.334 161.165,228.495L173.113,225.529ZM81.367,214.368L80.453,215.505C80.529,216.287 80.46,217.092 80.222,217.88C80.209,217.926 80.195,217.97 80.178,218.015L78.666,222.142L85.066,218.437C86.073,217.855 87.185,217.602 88.282,217.649L88.425,215.19L81.367,214.368ZM64.079,143.141L70.546,145.608L72.309,151.812L72.104,167.459L61.28,174.605L73.22,179.604L77.192,191.927L84.455,182.341L94.748,183.163L94.574,185.811L78.604,196.25L83.984,199.367L80.191,200.339L72.897,194.369L71.956,203.573L68.783,205.8L68.77,205.788C66.245,203.605 62.358,203.809 60.085,206.234C60.052,206.269 60.022,206.305 59.993,206.34L57.193,209.706L57.193,202.293C57.193,198.979 54.444,196.242 50.997,196.242C47.547,196.242 44.798,198.979 44.798,202.293L44.798,209.706L41.998,206.34C41.969,206.305 41.939,206.269 41.906,206.234C39.633,203.809 35.746,203.605 33.221,205.788C31.676,207.124 30.977,209.024 31.152,210.871C29.641,209.796 27.649,209.456 25.722,210.131C22.578,211.23 20.81,214.7 21.769,217.88C21.783,217.926 21.796,217.97 21.813,218.015L23.325,222.142L20.466,220.486C24.353,189.233 40.563,161.778 64.079,143.141ZM85.514,207.014L88.102,200.839L96.601,204.074L99.043,213.808L89.278,205.925L89.132,206.044L88.308,210.955L85.514,207.014ZM154.899,212.581C155.323,212.002 155.787,211.41 156.29,210.805C161.303,204.773 168.875,198.63 179.016,192.386C184.347,189.104 189.574,186.277 194.709,183.9C194.421,183.996 194.13,184.093 193.837,184.192C187.763,186.227 182.224,188.114 177.218,189.851C172.192,191.596 166.628,193.22 160.527,194.725C158.102,195.323 155.798,195.822 153.614,196.222L150.596,205.25L154.899,212.581ZM82.514,210.544L80.985,208.221L81.867,205.193L79.19,205.955L76.956,204.28L76.662,206.868L74.192,208.398L76.81,209.574L77.123,210.504C77.62,210.767 78.073,211.095 78.475,211.475L79.486,210.398L82.514,210.544ZM146.862,208.692L143.215,208.544L141.127,210.807L140.01,207.573L136.892,206.132L139.834,204.309L140.185,201.192L142.862,203.219L146.098,202.31L145.039,205.955L146.862,208.692ZM139.821,193.887C142.498,192.923 145.361,191.227 148.413,188.811C151.744,186.174 154.985,183.228 158.137,179.975C161.309,176.7 164.493,173.411 167.689,170.107C170.904,166.785 174.373,163.626 178.097,160.633C179.069,159.852 180.03,159.124 180.983,158.448C178.843,159.393 176.558,160.476 174.127,161.696C168.162,164.69 162.65,167.608 157.589,170.449C152.507,173.303 147.444,175.937 142.399,178.35C137.29,180.794 132.75,182.244 128.783,182.714C127.655,182.847 126.6,182.872 125.616,182.791L124.802,185.348L122.306,192.398L129.863,203.515L134.01,201.427L135.422,189.809L139.821,193.887ZM103.629,192.104L104.248,186.693L108.894,190.222L114.453,188.605L112.601,194.897L115.777,199.663L109.482,199.367L105.835,203.281L103.923,197.691L98.543,195.22L103.629,192.104ZM77.897,171.429L78.337,167.43L81.778,170.016L85.896,168.84L84.543,173.488L86.866,177.018L82.22,176.782L79.544,179.693L78.132,175.546L74.133,173.723L77.897,171.429ZM153.45,119.002C148.013,118.229 142.462,117.829 136.819,117.829C121.682,117.829 107.211,120.704 93.918,125.938L90.279,137.638L96.043,146.373L96.424,144.019L102.984,150.225L112.042,147.785L109.747,157.196L114.276,164.488L105.19,163.989L99.925,169.899L109.924,179.399L114.896,178.109L117.407,176.849C116.908,175.449 116.72,173.845 116.849,172.033C117.08,168.794 117.958,166.289 119.443,164.503C120.07,163.748 120.683,163.216 121.27,162.894C122.177,162.396 122.822,162.538 123.195,162.936C123.247,162.993 123.328,163.097 123.377,163.279C123.414,163.418 123.453,163.749 123.477,164.272C123.494,164.651 123.586,164.956 123.791,165.176C124.601,166.041 125.446,166.702 126.333,167.153C127.221,167.604 128.582,167.841 130.409,167.901C132.307,167.962 134.522,167.635 137.058,166.929C139.649,166.207 143.073,164.946 147.331,163.148C151.607,161.343 156.508,158.983 162.033,156.068C162.033,156.067 162.034,156.067 162.034,156.067C174.479,149.543 184.876,146.235 193.215,146.104C189.766,140.43 186.785,136.244 184.266,133.549C181.16,130.226 177.111,128.23 172.127,127.546C167.091,126.856 162.109,127.477 157.18,129.406C152.251,131.335 148.201,134.203 145.033,138.016C143.339,140.054 142.328,142.045 142.025,144.001C141.739,145.844 142.214,147.431 143.456,148.76C145.048,150.462 147.274,151.063 150.116,150.628C153.019,150.184 155.144,149.196 156.463,147.608C156.878,147.109 157.308,147.022 157.623,147.096C157.814,147.14 158.003,147.246 158.167,147.447C158.339,147.657 158.508,148.044 158.612,148.618C159.013,150.265 158.618,151.834 157.388,153.313C155.037,156.141 151.539,157.89 146.873,158.518C142.168,159.152 138.244,157.781 135.098,154.415L135.098,154.415C132.516,151.653 131.318,147.766 131.564,142.735C131.806,137.773 133.592,133.284 136.928,129.27C139.759,125.863 143.3,123.161 147.554,121.167C149.464,120.271 151.43,119.549 153.45,119.002ZM94.514,161.341L96.985,162.165L98.159,168.871L95.955,167.105L95.131,178.694L90.337,172.399L94.514,161.341ZM83.074,163.666L76.485,157.665L83.337,148.607L95.69,149.489L95.338,154.195L88.573,158.167L92.865,160.636L83.074,163.666ZM106.1,159.665L103.07,159.548L101.308,161.429L100.396,158.724L97.779,157.519L100.248,156.018L100.544,153.43L102.778,155.108L105.455,154.343L104.571,157.371L106.1,159.665ZM75.665,135.043C76.512,134.523 77.364,134.016 78.223,133.519L79.749,134.667L84.19,133.374L82.72,138.431L85.251,142.255L80.22,142.02L77.309,145.137L75.78,140.668L71.456,138.668L75.543,136.168L75.665,135.043ZM153.862,80.436L179.889,104.287L180.419,105.288L180.29,105.606L180.195,106.039L180.189,106.092C174.413,104.148 168.461,102.581 162.366,101.421L161.821,100.432L161.261,99.409L160.126,97.318C160.038,97.141 159.95,96.995 159.89,96.847C157.125,91.759 155.303,86.083 153.862,80.436ZM126.011,79.759C123.982,85.819 121.482,91.818 117.923,97.024L117.894,97.024C117.835,97.141 117.775,97.229 117.687,97.318C117.658,97.406 117.57,97.523 117.452,97.671L117.042,98.249L116.246,99.381L115.61,100.266L115.274,100.721C108.993,101.722 102.856,103.153 96.893,104.984L96.631,104.2L98.278,101.641L126.011,79.759ZM140.465,49.848L140.627,49.852C142.334,49.909 143.98,50.645 145.127,51.938C146.303,53.174 146.951,54.849 146.862,56.556C146.803,58.291 146.038,59.908 144.803,61.086C143.509,62.26 141.863,62.879 140.128,62.819C138.421,62.762 136.775,62.026 135.628,60.733C134.452,59.497 133.804,57.82 133.864,56.115C133.952,54.35 134.717,52.763 135.95,51.587C137.096,50.519 138.581,49.913 140.141,49.852L140.465,49.848ZM212.533,14.49L212.739,14.493C220.061,14.64 222.354,22.1 218.297,30.998C205.399,42.147 189.145,48.573 172.115,49.219L171.713,49.233C178.065,33.087 191.329,20.618 207.857,15.296C209.586,14.744 211.148,14.488 212.533,14.49ZM70.673,9.257C72.254,9.253 74.061,9.626 76.074,10.442C92.16,16.971 104.454,30.352 109.63,46.91C92.543,45.117 76.633,37.47 64.545,25.293C61.224,16.382 63.823,9.274 70.673,9.257Z" style="fill:none;stroke:rgb(255,0,0);stroke-width:1px;"/>
</svg>
