<?xml version="1.0" encoding="UTF-8" standalone="no"?>
<!DOCTYPE svg PUBLIC "-//W3C//DTD SVG 1.1//EN" "http://www.w3.org/Graphics/SVG/1.1/DTD/svg11.dtd">
<svg width="100%" height="100%" viewBox="0 0 1123 794" version="1.1" xmlns="http://www.w3.org/2000/svg" xmlns:xlink="http://www.w3.org/1999/xlink" xml:space="preserve" xmlns:serif="http://www.serif.com/" style="fill-rule:evenodd;clip-rule:evenodd;stroke-linejoin:round;stroke-miterlimit:2;">
    <path d="M144.768,40.265C146.525,40.302 148.11,40.912 149.422,41.91C150.863,43.057 151.891,44.704 152.273,46.587C152.802,46.587 182.859,16.178 188.975,12.177C194.836,8.337 202.831,5.966 211.003,5.93C211.404,5.929 211.807,5.932 212.21,5.942C221.975,6.413 230.502,10.413 234.032,19.412C239.942,32.998 232.913,47.381 232.854,60.821C232.825,76.702 247.707,93.348 235.179,108.435C229.972,113.729 222.856,118.846 215.857,121.903L215.797,121.903L214.909,122.185L213.44,122.66C235.271,137.575 252.544,158.68 262.718,183.428L263.146,184.482L263.635,185.717L264.183,187.147L264.715,188.58L264.956,189.247L265.465,190.694L265.958,192.147L266.475,193.735L266.941,195.223L267.39,196.719L267.822,198.222L268.318,200.033L268.765,201.757L269.14,203.283L269.499,204.816L269.84,206.356L270.097,207.582L270.267,208.418L270.567,209.973L270.849,211.533L271.113,213.1L271.309,214.338L271.419,215.073L271.66,216.779L271.864,218.366L272.05,219.958L272.182,221.204L272.257,221.958L272.366,223.158L272.397,223.517L272.519,225.075L272.624,226.63L272.71,228.177L272.746,228.945L272.807,230.524L272.85,232.102C272.861,232.627 272.87,233.152 272.875,233.676L272.882,235.204L272.88,235.812C272.877,236.27 272.873,236.727 272.866,237.183L272.845,238.277C272.836,238.637 272.827,238.997 272.816,239.357L272.77,240.666L272.707,242.056L272.66,242.916C272.616,243.693 272.566,244.469 272.509,245.242L272.378,246.891L272.235,248.448L272.115,249.632L271.964,250.996L271.773,252.558L271.607,253.813L271.429,255.064L271.176,256.717L270.983,257.897L270.743,259.275L270.405,261.091L270.108,262.584L269.863,263.752L269.428,265.714L269.074,267.212L268.795,268.344L268.42,269.801L268.042,271.21L267.725,272.344L267.361,273.601L266.892,275.16L266.363,276.838L265.822,278.487L265.452,279.56L265.025,280.738L264.863,281.178C264.752,281.514 264.639,281.848 264.5,282.186C263.205,285.714 261.764,289.155 260.177,292.537C259.764,293.448 259.353,294.331 258.911,295.213C258.206,296.654 257.441,298.096 256.707,299.508C256.647,299.565 256.619,299.654 256.588,299.713C255.177,302.329 253.677,304.919 252.09,307.419L251.385,308.513L250.98,309.103L250.316,310.136L249.767,310.943L249.354,311.546L249.354,311.565C249.088,312.005 248.794,312.416 248.472,312.829C247.32,314.5 246.13,316.138 244.904,317.745L244.816,317.86C243.221,319.948 241.565,321.984 239.854,323.976L239.073,324.871L238.079,325.991L237.478,326.655L236.874,327.314L236.265,327.97L235.652,328.622L235.034,329.27L234.413,329.913L233.787,330.553L233.157,331.188L232.523,331.819L231.885,332.446L231.243,333.069L230.597,333.688L229.946,334.303L229.292,334.913L228.634,335.519L227.305,336.718L225.961,337.9L224.601,339.064L223.226,340.21L221.835,341.339L220.43,342.45L219.251,343.358L218.294,344.082L217.12,344.95L216.125,345.672L214.957,346.501L213.924,347.22L212.763,348.011L211.691,348.725L210.538,349.478L209.428,350.187L208.283,350.903L207.134,351.605L205.999,352.284L204.81,352.979L203.686,353.621L202.128,354.488L200.557,355.336L199.718,355.777L198.921,356.19L198.122,356.597L197.319,356.999L196.514,357.396L195.706,357.788L194.894,358.175L194.08,358.556L193.263,358.932L192.443,359.303L191.621,359.668L190.795,360.029L189.967,360.383L189.136,360.733L188.303,361.077L187.466,361.416L186.627,361.749L185.472,362.197L184.208,362.674L183.508,362.932C175.658,365.798 167.471,367.962 159.021,369.348L157.605,369.572L156.197,369.781L154.318,370.035L152.436,370.263L150.549,370.465L148.516,370.653L146.646,370.8L144.654,370.927L142.787,371.02L140.923,371.087L139.53,371.121L138.144,371.142L136.819,371.148L135.472,371.141L135.01,371.136L133.308,371.103L132.116,371.068L131.571,371.048C131.011,371.027 130.452,371.002 129.893,370.974L128.91,370.921L128.07,370.87L126.787,370.783L125.344,370.67L124.595,370.605L123.757,370.528L122.78,370.431L121.461,370.29L119.917,370.108L119.147,370.01L118.622,369.94C61.059,362.253 14.891,318.582 3.474,262.277L3.239,261.09L2.955,259.579L2.689,258.062L2.439,256.54L2.206,255.012L1.989,253.478L1.79,251.939L1.609,250.395L1.444,248.846L1.295,247.267L1.199,246.139L1.071,244.412L1.03,243.782L0.93,242.013L0.887,241.098L0.867,240.61L0.814,239.101L0.782,237.765L0.762,236.427L0.756,235.069L0.761,233.92L0.78,232.504L0.814,231.055L0.874,229.343L0.941,227.924L1.04,226.215L1.16,224.51L1.339,222.399L1.503,220.733L1.754,218.52L1.965,216.867L2.116,215.769L2.36,214.126L2.623,212.491L2.832,211.276L3.004,210.32L3.25,209.022L3.391,208.305L3.7,206.805L3.847,206.115L4.228,204.413L4.525,203.156L4.699,202.441L5.07,200.971L5.248,200.286L5.705,198.602L6.047,197.393L6.255,196.679L6.685,195.245L7.142,193.78L7.652,192.213L8.179,190.657L8.724,189.112L9.286,187.576L9.865,186.051L10.462,184.535L11.076,183.028L11.589,181.809L12.228,180.334L12.884,178.867L13.557,177.41L14.247,175.963L14.953,174.524L15.675,173.096L16.414,171.677L17.169,170.268L17.681,169.334L18.2,168.404L18.727,167.479L19.26,166.559L19.8,165.643L20.347,164.732L20.901,163.825L21.462,162.923L21.995,162.081C24.011,158.918 26.155,155.843 28.418,152.865L29.105,151.969L30.119,150.673L31.137,149.404L32.163,148.156L33.2,146.924L34.249,145.708L35.309,144.506L36.64,143.037L37.833,141.756L39.206,140.322L40.549,138.958L41.845,137.678L43.198,136.376L44.743,134.932L46.31,133.513L47.5,132.464L48.702,131.429L49.916,130.407L51.142,129.4L52.38,128.406L53.63,127.427L54.892,126.462L56.165,125.511L57.449,124.575L58.745,123.654L60.052,122.747L61.369,121.855L62.698,120.978L64.037,120.117L64.936,119.551L65.84,118.992C65.398,118.817 65.044,118.669 64.75,118.492L64.722,118.492C55.281,115.374 48.341,108.758 41.958,101.287C30.577,85.318 46.666,69.791 47.751,53.967C48.723,40.557 42.782,25.706 49.694,12.56C53.84,3.853 62.664,0.531 72.427,0.768C81.014,1.208 89.338,4.267 95.161,8.707C107.57,18.236 119.159,31.999 128.776,45.146C128.776,44.116 130.394,42.292 132.157,41.293C133.276,40.617 134.598,40.263 136.01,40.263L144.597,40.263L144.768,40.265ZM233.106,301.981L233,302.134C230.483,303.681 227.993,305.253 225.474,306.802C223.721,307.892 224.466,310.555 226.475,310.623C225.699,311.543 224.907,312.453 224.102,313.349L223.767,313.36C222.62,313.389 221.681,314.328 221.65,315.475C221.645,315.641 221.659,315.803 221.69,315.957C200.328,338.368 170.192,352.34 136.819,352.34C129.603,352.34 122.539,351.687 115.679,350.436L134.186,327.506L164.772,329.681L159.508,320.888L165.184,312.093L175.802,312.975L170.243,303.566L173.565,295.625L181.093,299.3L186.535,320.035L200.475,303.418L218.297,304.448C218.326,304.8 218.445,305.153 218.65,305.447C219.327,306.417 220.62,306.683 221.621,306.066C224.267,304.448 226.915,302.799 229.591,301.155C230.762,301.438 231.935,301.697 233.106,301.981ZM107.895,341.033L113.364,348.678L110.159,337.003L107.895,341.033ZM104.571,345.769L100.63,345.592L99.878,346.393C99.065,346.123 98.255,345.844 97.449,345.556L97.102,344.532L93.718,342.975L96.925,341.004L97.306,337.591L100.219,339.797L103.749,338.798L102.571,342.768L104.571,345.769ZM85.131,273.303L79.354,270.4L80.178,272.648C80.193,272.692 80.209,272.736 80.222,272.78C81.181,275.96 79.411,279.432 76.27,280.531C74.342,281.206 72.35,280.866 70.84,279.792C71.014,281.638 70.315,283.537 68.77,284.872C67.596,285.888 66.126,286.394 64.662,286.394C62.977,286.394 61.301,285.725 60.085,284.426C60.052,284.392 60.022,284.357 59.993,284.321L57.193,280.956L57.193,288.369C57.193,291.684 54.444,294.418 50.997,294.418C47.547,294.418 44.798,291.684 44.798,288.369L44.798,280.956L41.998,284.321C41.969,284.357 41.939,284.392 41.906,284.426C39.633,286.853 35.746,287.057 33.221,284.874L33.221,284.872C31.676,283.537 30.977,281.638 31.152,279.792C30.457,280.285 29.66,280.624 28.814,280.779C39.992,307.142 60.547,328.582 86.29,340.908L91.19,337.739L92.396,325.651L101.189,333.062L108.66,330.739L105.749,320.828L76.779,308.771L84.691,302.624L82.543,295.744L74.367,291.949L81.926,286.273L82.749,277.684L87.308,281.333L85.131,273.303ZM117.923,310.182L108.954,306.066L117.395,300.861L118.423,291.83L126.187,297.713L135.451,295.037L132.392,305.535L137.657,313.475L127.187,312.975L121.099,319.533L117.923,310.182ZM158.478,319.476L151.155,307.801L156.126,310.066L158.478,319.476ZM156.891,305.007L159.832,303.212L160.184,300.067L162.889,302.125L166.096,301.183L165.036,304.83L166.861,307.595L163.243,307.419L161.125,309.711L160.007,306.448L156.891,305.007ZM169.832,294.508L163.95,296.566L155.684,289.92L154.539,300.772L148.686,303.77L158.714,273.038L151.862,274.421L157.803,267.421L179.124,269.362L177.948,279.302L160.979,290.508L169.832,294.508ZM223.767,299.771C222.62,300.476 221.444,301.212 220.268,301.948L218.827,299.713C219.267,299.448 219.709,299.183 220.151,298.889C221.356,299.183 222.561,299.477 223.767,299.771ZM91.073,297.625L88.014,301.654L94.543,297.832L91.073,297.625ZM230.248,280.23C229.744,279.881 229.226,279.425 228.696,278.858C227.561,277.643 227.025,276.123 227.107,274.291C227.162,273.052 227.494,271.884 228.107,270.788C224.194,271.617 221.371,271.021 219.62,269.148C218.147,267.571 217.57,265.668 217.902,263.433C218.105,262.071 218.609,260.696 219.42,259.313C217.992,259.626 216.742,259.79 215.669,259.806C212.798,259.851 210.283,259.05 208.127,257.411C207.154,256.851 206.154,256.027 205.131,254.934C203.822,253.533 203.1,251.814 202.974,249.772C202.852,247.79 203.144,245.94 203.846,244.222C203.85,244.211 203.854,244.201 203.858,244.191C199.926,244.786 196.025,244.642 192.156,243.762C191.288,244.522 190.382,245.19 189.438,245.767L189.181,246.452L193.977,254.57L184.8,253.892L181.418,258.158L196.505,270.363L217.563,265.832L210.092,286.304L214.679,293.332C214.886,293.39 215.092,293.448 215.297,293.478C215.003,293.008 214.709,292.537 214.444,292.068C213.827,291.067 214.15,289.772 215.209,289.213C216.208,288.655 217.503,289.009 218.12,289.979C219.121,291.624 220.12,293.244 221.091,294.862C222.326,295.154 223.533,295.448 224.738,295.744C223.798,294.214 222.885,292.712 221.975,291.213C221.356,290.183 221.681,288.89 222.737,288.331C223.738,287.802 225.032,288.125 225.65,289.124C227.268,291.772 228.915,294.449 230.531,297.123C231.737,297.39 232.973,297.682 234.178,297.978C232.591,295.39 231.002,292.802 229.414,290.214C228.325,288.419 230.296,286.304 232.178,287.303C234.692,288.656 237.18,290.008 239.692,291.362L239.958,290.875C239.678,289.929 239.398,288.992 239.12,288.037C236.355,286.567 233.619,285.068 230.856,283.596C229.854,283.068 229.414,281.773 229.914,280.745C230.003,280.551 230.116,280.379 230.248,280.23ZM202.504,293.509L195.447,293.184L191.358,297.567L189.212,291.301L183.182,288.507L188.858,285.008L189.565,278.948L194.77,282.891L201.006,281.098L198.946,288.154L202.504,293.509ZM92.631,293.39L89.278,293.213L87.308,295.331L86.279,292.331L83.396,291.007L86.132,289.332L86.455,286.419L88.926,288.302L91.926,287.449L90.927,290.83L92.631,293.39ZM95.661,275.126L103.66,275.774L102.836,292.331L98.924,294.566L95.807,289.772L98.543,281.596L89.338,283.271L95.661,275.126ZM237.046,281.083C236.495,281.186 235.982,281.258 235.506,281.299C236.142,281.641 236.778,281.984 237.414,282.332C237.291,281.913 237.168,281.498 237.046,281.083ZM241.964,279.738C241.807,279.788 241.651,279.839 241.494,279.89L241.056,280.029C241.165,280.396 241.274,280.762 241.383,281.125C241.651,280.636 241.919,280.15 242.186,279.664L241.964,279.738ZM98.806,255.804L106.454,245.776L120.717,247.071L112.218,252.716L135.51,262.245L139.303,278.155L128.657,280.979L104.542,260.512L103.66,269.596L100.984,266.009L104.69,255.07L98.806,255.804ZM250.127,265.34C244.175,268.448 240.244,270.595 238.336,271.781C236.25,273.078 234.788,274.214 233.962,275.208C233.821,275.378 233.713,275.537 233.645,275.688C233.564,275.867 233.556,276.024 233.676,276.152C233.789,276.273 234.018,276.299 234.329,276.332C235.075,276.411 236.177,276.324 237.636,276.086C240.165,275.674 243.335,274.772 247.147,273.385C247.197,273.367 247.248,273.355 247.301,273.349C247.443,273.333 247.565,273.343 247.671,273.369C248.583,270.734 249.402,268.057 250.127,265.34ZM33.617,275.518L35.978,260.906L44.798,256.088L45.284,265.759L33.617,275.518ZM68.374,275.516L56.423,266.816L57.193,256.088L66.785,261.932L68.374,275.516ZM229.265,269.819L229.384,270.069L229.267,269.819L229.265,269.819ZM95.955,263.598C95.955,263.598 93.726,264.232 93.726,264.232C94.485,265.959 94.443,268.037 93.413,269.845L96.72,269.979C96.72,269.979 94.896,267.246 94.896,267.246L95.955,263.598ZM229.483,269.943L229.405,269.78C229.498,269.754 229.59,269.727 229.683,269.7L229.483,269.943ZM241.535,261.109C239.576,262.133 237.934,263.05 236.61,263.861C232.716,265.402 229.74,266.229 227.678,266.315C226.517,266.364 225.685,266.201 225.217,265.7C224.996,265.463 224.969,265.118 225.047,264.682C225.152,264.091 225.483,263.484 226.013,262.846C227.312,261.283 229.204,259.751 231.681,258.238C234.166,256.721 236.634,255.677 239.087,255.111C241.292,254.602 242.838,254.701 243.699,255.622C244.128,256.081 244.108,256.77 243.804,257.678C243.435,258.78 242.673,259.919 241.536,261.107L241.535,261.109ZM169.743,249.334L176.007,252.188L179.241,263.569L169.743,249.334ZM137.657,250.424L144.568,246.216L145.391,238.864L151.685,243.658L159.242,241.481L156.745,250.011L161.037,256.48L152.508,256.069L147.568,261.394L144.979,253.804L137.657,250.424ZM159.09,119.946C160.6,121.058 162.034,122.341 163.392,123.793C164.495,124.974 165.51,126.279 166.437,127.709C167.347,129.114 168.294,130.676 169.276,132.394C170.173,133.964 170.921,135.19 171.518,136.072C173.877,136.827 175.878,138.086 177.521,139.844C178.119,140.483 178.492,141.267 178.634,142.2C178.787,143.202 178.564,144.038 178,144.717C177.186,145.696 176.207,146.216 175.073,146.298C173.931,146.381 172.855,145.924 171.87,144.871C171.46,144.432 171.04,143.928 170.611,143.357C168.957,143.757 167.19,144.674 165.299,146.091C163.192,147.67 161.306,149.372 159.642,151.197C157.95,153.053 155.849,155.329 153.338,158.026C151.587,159.906 150,161.528 148.576,162.893C150.427,162.455 152.501,161.876 154.796,161.159C158.141,160.113 161.133,159.117 163.77,158.169C166.437,157.211 169.332,156.359 172.455,155.613C175.593,154.865 178.404,154.4 180.889,154.217C183.428,154.03 185.934,154.331 188.405,155.12C190.903,155.917 193.063,157.29 194.886,159.239C196.044,160.478 196.379,161.898 195.897,163.496C195.896,163.499 195.895,163.502 195.894,163.505C195.753,163.95 195.573,164.224 195.418,164.362C195.241,164.519 195.054,164.583 194.871,164.59C194.649,164.599 194.397,164.527 194.162,164.276C192.665,162.674 189.961,162.375 186.081,163.173C181.95,164.022 177.482,165.744 172.675,168.331C167.833,170.936 162.912,174.174 157.912,178.044C152.923,181.904 148.796,185.797 145.532,189.724C144.888,190.499 144.413,191.199 144.114,191.83C143.854,192.377 143.702,192.788 143.706,193.077C143.71,193.443 143.707,193.781 143.696,194.091C143.68,194.552 143.532,194.938 143.269,195.255C142.998,195.582 142.586,195.819 142.027,195.932L143.481,197.28L151.358,195.068C151.279,194.44 151.274,193.796 151.343,193.138C151.601,190.679 152.842,188.081 155.103,185.359C157.26,182.764 159.93,180.757 163.113,179.34C166.308,177.917 169.467,177.327 172.587,177.559C175.79,177.798 178.31,178.922 180.161,180.902C182.175,183.057 183.043,185.435 182.794,188.024C182.551,190.551 181.465,192.99 179.518,195.333C177.053,198.299 173.752,200.514 169.61,201.966C170.076,202.348 170.697,202.576 171.463,202.667C172.721,202.815 174.334,202.599 176.303,202.044C176.426,201.912 176.59,201.824 176.794,201.786C183.153,199.314 188.194,197.06 191.915,195.022C191.92,193.87 192.204,192.996 192.711,192.386C193.596,191.322 194.531,190.754 195.479,190.627C196.519,190.486 197.384,190.792 198.076,191.533C198.674,192.172 198.957,192.974 198.903,193.946C198.852,194.852 198.495,195.722 197.811,196.545C197.712,196.664 197.595,196.779 197.458,196.888C197.458,196.888 197.516,197.288 197.514,197.28C197.77,198.498 197.945,199.434 198.038,200.086C198.133,200.744 198.213,201.586 198.278,202.611C198.348,203.705 198.255,204.653 198.012,205.455C197.762,206.282 197.385,206.995 196.884,207.597C196.384,208.198 195.69,208.723 194.79,209.159C194.786,209.161 194.781,209.163 194.776,209.165C186.24,213.064 181.176,215.912 179.625,217.779C179.267,218.21 179.076,218.538 179.32,218.819C179.35,218.831 179.487,218.883 179.596,218.905C179.866,218.958 180.22,218.983 180.66,218.984C181.615,218.986 183.207,218.719 185.439,218.197C187.43,217.732 189.683,217.06 192.198,216.183C195.168,215.029 197.958,213.844 200.569,212.627C200.888,211.385 201.474,210.25 202.328,209.222C203.307,208.043 204.449,207.253 205.745,206.841C207.252,206.362 208.316,206.579 208.964,207.272C209.722,208.084 209.929,209.156 209.489,210.503C209.163,211.5 208.648,212.437 207.942,213.311C208.697,214.109 210.268,215.634 212.655,217.887C215.118,220.213 216.919,221.832 218.062,222.745C218.069,222.75 218.075,222.756 218.082,222.762C218.339,222.984 218.523,223.3 218.601,223.728C218.683,224.181 218.64,224.799 218.438,225.578C218.133,226.756 217.663,227.801 217.032,228.715C216.313,229.756 215.539,230.301 214.772,230.432C214.727,230.44 214.682,230.443 214.637,230.442C212.303,230.365 209.009,230.199 204.755,229.943C201.293,229.735 198.776,229.601 197.205,229.544C198.054,232.851 197.592,236.079 195.808,239.227C199.564,239.921 203.401,239.806 207.318,238.884C208.149,238.157 208.927,237.924 209.612,238.069C210.56,237.799 211.686,237.447 212.991,237.011C213.076,236.972 213.155,236.947 213.224,236.933C216.182,235.939 220.022,234.533 224.743,232.716C227.061,231.817 229.031,232.248 230.657,233.987C231.464,234.851 231.891,235.928 231.922,237.225C231.953,238.543 231.653,239.533 231.088,240.213C230.974,240.351 230.808,240.437 230.629,240.452C229.533,240.541 228.396,241.176 227.19,242.304C225.885,243.523 224.711,244.92 223.665,246.493C222.582,248.123 221.373,249.796 220.038,251.511C219.106,252.708 218.207,253.769 217.339,254.695C219.738,254.56 222.657,253.889 226.096,252.698C226.202,252.632 226.308,252.566 226.416,252.501C228.58,251.187 230.826,250.179 233.154,249.479C235.528,248.764 237.9,248.598 240.27,248.978C242.698,249.367 244.672,250.383 246.196,252.014C247.833,253.765 248.428,255.686 247.984,257.777C248.414,257.694 248.797,257.837 249.135,258.199L251.303,260.518C253.118,252.33 254.074,243.818 254.074,235.085C254.074,177.987 213.174,130.366 159.09,119.946ZM93.065,254.373C92.686,254.936 92.218,255.437 91.68,255.854L93.838,257.628C93.838,257.628 93.065,254.373 93.065,254.373ZM184.17,247.938C182.821,248.26 181.411,248.438 179.941,248.471C179.82,248.474 179.698,248.476 179.578,248.476L180.094,248.718L180.947,251.158L182.534,249.452L185.242,249.569L184.17,247.938ZM19.892,243.913L30.396,239.854L39.892,245.33L30.696,251.158L20.154,246.913C20.055,245.921 19.967,244.919 19.892,243.913ZM85.767,245.33L71.954,250.362L62.099,245.33L72.204,240.111L85.767,245.33ZM210.192,242.603C210.759,242.405 211.327,242.192 211.895,241.963C213.915,241.367 216.366,240.583 219.238,239.616C219.031,239.887 218.816,240.173 218.593,240.472C217.819,241.512 217.139,242.419 216.554,243.195C215.972,243.967 215.339,244.782 214.656,245.64C213.996,246.468 213.392,247.13 212.838,247.622C212.294,248.108 211.736,248.524 211.165,248.871C210.711,249.147 210.287,249.277 209.882,249.224C209.48,249.172 209.113,248.939 208.76,248.561C208.068,247.821 207.921,246.89 208.265,245.777C208.62,244.631 209.264,243.575 210.191,242.605L210.192,242.603ZM168.771,246.775L170.5,245.867C170.137,245.611 169.785,245.337 169.444,245.043L168.771,246.775ZM90.909,245.299L90.892,245.226C90.821,245.263 90.748,245.297 90.675,245.33C90.767,245.374 90.859,245.418 90.949,245.466L90.909,245.299ZM136.951,215.603L134.158,214.25L133.128,238.953L124.099,244.982L114.747,230.777L121.159,213.484L107.513,216.397L113.805,208.336L131.216,209.631L135.804,211.22L136.951,215.603ZM108.423,237.6L102.159,237.308L98.513,241.218L96.601,235.629L91.221,233.158L96.278,230.041L96.897,224.63L101.543,228.16L107.101,226.542L105.276,232.835L108.423,237.6ZM173.083,235.681C173.526,235.701 174.049,235.846 174.654,236.096C174.988,236.235 175.321,236.379 175.65,236.529L175.376,240.334C173.947,239.935 172.809,239.342 171.972,238.54L173.083,235.681ZM152.775,198.732L150.596,205.25L155.861,214.22L145.892,213.72L140.422,219.337L153.743,230.337L177.446,224.453L175.304,229.965C176.635,230.472 177.923,231.082 179.168,231.796C180.422,232.515 182.04,233.428 184.019,234.534C185.819,235.539 187.453,236.368 188.923,237.02C189.415,236.57 189.864,236.1 190.271,235.61C191.027,234.701 191.538,233.655 191.805,232.474C192.037,231.449 191.982,230.409 191.647,229.355C191.432,229.351 191.287,229.352 191.212,229.36C191.186,229.363 191.16,229.365 191.134,229.364C190.476,229.36 189.97,229.184 189.601,228.883C189.213,228.567 188.957,228.106 188.872,227.479C188.732,226.453 189.092,225.364 190.026,224.24C190.628,223.515 191.412,223.218 192.384,223.362C193.186,223.481 193.828,223.78 194.319,224.238C200.355,224.472 205.291,224.562 209.128,224.507C205.326,221.439 202.814,219.248 201.588,217.937C201.363,217.696 201.159,217.428 200.979,217.133C198.78,218.069 196.399,219.045 193.837,220.058C193.756,220.12 193.663,220.17 193.566,220.205C190.345,221.469 187.632,222.412 185.427,223.036C183.15,223.679 181.32,223.962 179.938,223.903C178.508,223.841 177.403,223.631 176.619,223.296C175.814,222.951 175.039,222.39 174.304,221.603C173.198,220.42 172.692,218.93 172.81,217.125C172.924,215.385 173.589,213.774 174.817,212.296C175.986,210.891 177.701,209.467 179.973,208.035C182.188,206.638 185.899,204.761 191.115,202.404C191.609,202.163 191.988,201.897 192.243,201.59C192.562,201.207 192.674,200.605 192.64,199.793C189.635,201.251 185.451,202.992 180.089,205.014C179.958,205.156 179.803,205.254 179.63,205.315C178.755,205.64 177.99,205.905 177.334,206.11C176.677,206.317 175.886,206.538 174.961,206.775C174.001,207.02 173.157,207.161 172.429,207.203C171.712,207.245 170.928,207.236 170.077,207.175C169.164,207.11 168.375,206.912 167.709,206.59C167.044,206.269 166.4,205.782 165.784,205.122C165.281,204.585 164.871,203.948 164.558,203.21C159.869,203.774 156.31,202.704 153.859,200.082C153.448,199.642 153.087,199.192 152.775,198.732ZM33.617,215.144L45.803,224.221L44.798,234.574L35.216,230.049L33.617,215.144ZM68.374,215.144L65.894,229.603L57.193,234.572L57.247,224.607L68.374,215.144ZM64.079,143.141L70.546,145.608L72.309,151.812L72.104,167.459L61.28,174.605L73.22,179.604L77.192,191.927L84.455,182.341L94.748,183.163L94.574,185.811L78.604,196.25L83.984,199.367L80.191,200.339L72.897,194.369L71.956,203.573L68.783,205.8L68.77,205.788C66.245,203.605 62.358,203.809 60.085,206.234C60.052,206.269 60.022,206.305 59.993,206.34L57.193,209.706L57.193,202.293C57.193,198.979 54.444,196.242 50.997,196.242C47.547,196.242 44.798,198.979 44.798,202.293L44.798,209.706L41.998,206.34C41.969,206.305 41.939,206.269 41.906,206.234C39.633,203.809 35.746,203.605 33.221,205.788C31.676,207.124 30.977,209.024 31.152,210.871C29.641,209.796 27.649,209.456 25.722,210.131C22.578,211.23 20.81,214.7 21.769,217.88C21.783,217.926 21.796,217.97 21.813,218.015L23.325,222.142L20.466,220.486C24.353,189.233 40.563,161.778 64.079,143.141ZM81.367,214.368L80.453,215.505C80.529,216.287 80.46,217.092 80.222,217.88C80.209,217.926 80.195,217.97 80.178,218.015L78.666,222.142L85.066,218.437C86.073,217.855 87.185,217.602 88.282,217.649L88.425,215.19L81.367,214.368ZM85.514,207.014L88.102,200.839L96.601,204.074L99.043,213.808L89.278,205.925L89.132,206.044L88.308,210.955L85.514,207.014ZM82.514,210.544L80.985,208.221L81.867,205.193L79.19,205.955L76.956,204.28L76.662,206.868L74.192,208.398L76.81,209.574L77.123,210.504C77.62,210.767 78.073,211.095 78.475,211.475L79.486,210.398L82.514,210.544ZM146.862,208.692L143.215,208.544L141.127,210.807L140.01,207.573L136.892,206.132L139.834,204.309L140.185,201.192L142.862,203.219L146.098,202.31L145.039,205.955L146.862,208.692ZM135.197,191.657C134.546,189.275 135.644,186.251 138.662,182.619C142.334,178.201 147.879,173.7 155.307,169.126C158.313,167.275 161.275,165.622 164.191,164.167C160.568,165.387 157.219,166.531 154.147,167.597C150.47,168.873 146.401,170.062 141.938,171.162C137.459,172.267 133.541,172.911 130.195,173.097C128.916,173.24 127.659,173.248 126.427,173.123C126.17,173.136 125.962,173.066 125.793,172.949C125.561,172.788 125.369,172.503 125.339,172.039C125.362,172.39 125.653,172.663 126.005,172.663C126.005,172.663 125.339,171.966 125.339,171.966C125.339,171.966 125.35,171.645 125.35,171.645C125.35,171.645 126.017,172.325 126.017,172.325L125.35,171.635C125.37,171.081 125.638,170.658 126.192,170.389C126.22,170.375 126.249,170.364 126.279,170.354C128.342,169.688 130.558,168.408 132.934,166.527C135.362,164.605 137.723,162.458 140.02,160.088C142.337,157.695 144.663,155.293 146.998,152.88C149.352,150.447 151.891,148.135 154.618,145.943C154.871,145.74 155.124,145.541 155.379,145.345C154.272,145.857 153.116,146.415 151.91,147.02C147.556,149.206 143.532,151.336 139.837,153.411C136.121,155.498 132.419,157.423 128.73,159.187C124.977,160.983 121.641,162.047 118.727,162.392C115.701,162.75 113.374,162.058 111.727,160.384L114.276,164.488L105.19,163.989L99.925,169.899L109.924,179.399L128.628,174.545L122.306,192.398L129.863,203.515L134.01,201.427L135.197,191.657ZM103.629,192.104L104.248,186.693L108.894,190.222L114.453,188.605L112.601,194.897L115.777,199.663L109.482,199.367L105.835,203.281L103.923,197.691L98.543,195.22L103.629,192.104ZM177.395,185.157C177.764,185.552 177.823,186.073 177.645,186.707C177.41,187.539 176.803,188.52 175.851,189.666C174.297,191.536 172.329,193.17 169.952,194.571C169.222,194.148 168.287,194.03 167.137,194.274C165.859,194.544 164.811,195.173 163.994,196.157C163.62,196.606 163.365,197.047 163.22,197.474C161.658,197.898 160.345,198.089 159.279,198.035C158.28,197.983 157.52,197.72 157.021,197.187C156.682,196.823 156.706,196.268 156.931,195.534C157.224,194.58 157.808,193.588 158.668,192.553C160.467,190.389 162.766,188.571 165.562,187.095C168.357,185.62 170.897,184.739 173.187,184.465C174.286,184.333 175.206,184.332 175.947,184.471C176.579,184.59 177.068,184.807 177.395,185.157L177.395,185.157ZM77.897,171.429L78.337,167.43L81.778,170.016L85.896,168.84L84.543,173.488L86.866,177.018L82.22,176.782L79.544,179.693L78.132,175.546L74.133,173.723L77.897,171.429ZM94.514,161.341L96.985,162.165L98.159,168.871L95.955,167.105L95.131,178.694L90.337,172.399L94.514,161.341ZM126.477,172.458L126.485,172.459C126.359,172.589 126.186,172.663 126.005,172.663C126.005,172.663 126.281,172.642 126.477,172.458ZM83.074,163.666L76.485,157.665L83.337,148.607L95.69,149.489L95.338,154.195L88.573,158.167L92.865,160.636L83.074,163.666ZM106.1,159.665L103.07,159.548L101.308,161.429L100.396,158.724L97.779,157.519L100.248,156.018L100.544,153.43L102.778,155.108L105.455,154.343L104.571,157.371L106.1,159.665ZM109.747,157.196L110.208,157.938C110.065,157.526 109.957,157.089 109.886,156.629L109.747,157.196ZM130.6,117.992C117.716,118.666 105.379,121.425 93.918,125.938L90.279,137.638L96.043,146.373L96.424,144.019L102.984,150.225L112.042,147.785L111.816,148.711C112.267,148.184 112.709,147.81 113.132,147.577C113.897,147.157 114.44,147.307 114.755,147.643C114.805,147.697 114.884,147.796 114.93,147.97C114.959,148.077 114.991,148.331 115.009,148.734C115.02,148.961 115.068,149.147 115.191,149.279C115.766,149.895 116.367,150.366 116.998,150.686C117.63,151.007 118.6,151.171 119.9,151.213C121.271,151.257 122.871,151.02 124.703,150.51C126.59,149.984 129.084,149.065 132.186,147.755C135.305,146.438 138.88,144.716 142.911,142.589C142.912,142.589 142.912,142.589 142.913,142.589C151.88,137.888 159.398,135.47 165.458,135.297C163.015,131.301 160.9,128.341 159.105,126.421C156.864,124.023 153.941,122.585 150.344,122.092C146.696,121.591 143.087,122.042 139.516,123.439C135.945,124.837 133.01,126.914 130.715,129.676C129.502,131.136 128.774,132.56 128.557,133.961C128.357,135.249 128.688,136.359 129.556,137.287C130.68,138.49 132.255,138.905 134.263,138.597C136.331,138.281 137.848,137.585 138.788,136.454C139.153,136.015 139.537,135.955 139.815,136.019C139.988,136.06 140.161,136.154 140.31,136.337C140.447,136.505 140.588,136.811 140.672,137.27C140.976,138.526 140.678,139.723 139.74,140.851C137.997,142.949 135.405,144.251 131.945,144.717C128.446,145.188 125.528,144.167 123.188,141.664L123.188,141.664C121.272,139.615 120.376,136.733 120.558,133C120.736,129.337 122.054,126.021 124.518,123.057C126.203,121.029 128.23,119.34 130.6,117.992ZM75.665,135.043C76.512,134.523 77.364,134.016 78.223,133.519L79.749,134.667L84.19,133.374L82.72,138.431L85.251,142.255L80.22,142.02L77.309,145.137L75.78,140.668L71.456,138.668L75.543,136.168L75.665,135.043ZM153.862,80.436L179.889,104.287L180.419,105.288L180.29,105.606L180.195,106.039L180.189,106.092C174.413,104.148 168.461,102.581 162.366,101.421L161.821,100.432L161.261,99.409L160.126,97.318C160.038,97.141 159.95,96.995 159.89,96.847C157.125,91.759 155.303,86.083 153.862,80.436ZM126.011,79.759C123.982,85.819 121.482,91.818 117.923,97.024L117.894,97.024C117.835,97.141 117.775,97.229 117.687,97.318C117.658,97.406 117.57,97.523 117.452,97.671L117.042,98.249L116.246,99.381L115.61,100.266L115.274,100.721C108.993,101.722 102.856,103.153 96.893,104.984L96.631,104.2L98.278,101.641L126.011,79.759ZM140.465,49.848L140.627,49.852C142.334,49.909 143.98,50.645 145.127,51.938C146.303,53.174 146.951,54.849 146.862,56.556C146.803,58.291 146.038,59.908 144.803,61.086C143.509,62.26 141.863,62.879 140.128,62.819C138.421,62.762 136.775,62.026 135.628,60.733C134.452,59.497 133.804,57.82 133.864,56.115C133.952,54.35 134.717,52.763 135.95,51.587C137.096,50.519 138.581,49.913 140.141,49.852L140.465,49.848ZM212.533,14.49L212.739,14.493C220.061,14.64 222.354,22.1 218.297,30.998C205.399,42.147 189.145,48.573 172.115,49.219L171.713,49.233C178.065,33.087 191.329,20.618 207.857,15.296C209.586,14.744 211.148,14.488 212.533,14.49ZM70.673,9.257C72.254,9.253 74.061,9.626 76.074,10.442C92.16,16.971 104.454,30.352 109.63,46.91C92.543,45.117 76.633,37.47 64.545,25.293C61.224,16.382 63.823,9.274 70.673,9.257Z" style="fill:none;stroke:rgb(255,0,0);stroke-width:1px;"/>
</svg>
