<?xml version="1.0" encoding="UTF-8" standalone="no"?>
<!DOCTYPE svg PUBLIC "-//W3C//DTD SVG 1.1//EN" "http://www.w3.org/Graphics/SVG/1.1/DTD/svg11.dtd">
<svg width="100%" height="100%" viewBox="0 0 1123 794" version="1.1" xmlns="http://www.w3.org/2000/svg" xmlns:xlink="http://www.w3.org/1999/xlink" xml:space="preserve" xmlns:serif="http://www.serif.com/" style="fill-rule:evenodd;clip-rule:evenodd;stroke-linejoin:round;stroke-miterlimit:2;">
    <path d="M0.763,233.654C1.257,185.132 27.188,142.701 65.84,118.992C65.398,118.817 65.044,118.669 64.75,118.492L64.722,118.492C55.281,115.374 48.341,108.758 41.958,101.287C30.577,85.318 46.666,69.791 47.751,53.967C48.723,40.557 42.782,25.706 49.694,12.56C53.84,3.853 62.664,0.531 72.427,0.768C81.014,1.208 89.338,4.267 95.161,8.707C107.57,18.236 119.159,31.999 128.776,45.146C128.776,44.116 130.394,42.292 132.157,41.293C133.276,40.617 134.598,40.263 136.01,40.263L144.597,40.263C146.422,40.263 148.067,40.88 149.422,41.91C150.863,43.057 151.891,44.704 152.273,46.587C152.802,46.587 182.859,16.178 188.975,12.177C195.124,8.148 203.623,5.737 212.21,5.942C221.975,6.413 230.502,10.413 234.032,19.412C239.942,32.998 232.913,47.381 232.854,60.821C232.825,76.702 247.707,93.348 235.179,108.435C229.972,113.729 222.856,118.846 215.857,121.903L215.797,121.903C215.417,122.021 214.603,122.283 213.44,122.66C235.706,137.872 253.229,159.522 263.318,184.913L263.635,185.717C269.445,200.605 272.705,216.771 272.875,233.676L272.882,235.085L272.88,235.812L272.866,237.183L272.848,238.157L272.816,239.357L272.777,240.461C272.271,253.525 269.932,266.101 265.999,277.951C265.659,278.997 265.294,280.017 264.925,281.008L264.5,282.186C263.205,285.714 261.764,289.155 260.177,292.537C259.764,293.448 259.353,294.331 258.911,295.213C258.206,296.654 257.441,298.096 256.707,299.508C256.647,299.565 256.619,299.654 256.588,299.713C255.177,302.329 253.677,304.919 252.09,307.419C251.717,307.987 251.375,308.559 250.98,309.103L250.882,309.252C250.472,309.92 250.043,310.551 249.594,311.192L249.354,311.546L249.354,311.565C249.088,312.005 248.794,312.416 248.472,312.829C245.795,316.713 242.913,320.415 239.854,323.976C215.151,352.578 178.758,370.759 138.144,371.142L136.819,371.148C133.222,371.148 129.657,371.008 126.124,370.733C59.482,365.554 6.326,312.384 1.167,245.731C0.895,242.217 0.756,238.667 0.756,235.085L0.763,233.654ZM28.751,280.397C40.488,308.332 62.752,330.776 90.57,342.754C86.43,339.961 82.52,336.774 78.888,333.213C75.47,329.86 75.47,324.406 78.888,321.053C82.307,317.7 87.87,317.7 91.289,321.053C93.511,323.232 95.866,325.23 98.335,327.046C102.763,312.408 102.398,299.836 101.771,293.577L92.474,300.653C89.142,303.191 84.772,303.273 81.343,300.862C77.913,298.45 76.589,294.365 77.972,290.454L85.343,269.604L86.265,255.979C86.324,255.115 86.821,254.338 87.589,253.91C88.356,253.482 89.292,253.461 90.078,253.854C90.199,253.915 91.551,254.595 93.379,255.698L90.219,242.394L72.795,235.617L73.743,234.921L60.959,228.962L55.458,232.149L69.292,238.586L62.38,242.58L48.557,236.132L40.419,240.826L51.529,246.478L40.419,252.14L48.557,256.834L62.38,250.385L69.292,254.369L55.458,260.817L60.959,263.993L74.793,257.544L81.694,261.528L67.871,267.976L78.895,274.349C80.197,275.092 80.639,276.761 79.885,278.064C79.131,279.377 77.474,279.818 76.16,279.065L65.136,272.702L66.471,287.903L59.571,283.92L58.236,268.719L52.734,265.532L54.059,280.733L47.158,276.75L45.834,261.549L37.695,256.856L38.352,269.3L27.898,262.507L27.898,271.906L40.397,280.658L40.397,288.624L28.794,280.5L28.751,280.397ZM233.012,301.959C231.873,301.683 230.731,301.431 229.591,301.155C226.915,302.799 224.267,304.448 221.621,306.066C220.62,306.683 219.327,306.417 218.65,305.447C218.445,305.153 218.326,304.8 218.297,304.448L200.475,303.418L187.72,318.623C190.354,318.261 193.125,319.071 195.146,321.053C196.802,322.677 197.715,324.836 197.714,327.133C197.714,329.43 196.802,331.589 195.146,333.213C191.721,336.571 188.049,339.597 184.169,342.273C198.375,335.983 211.1,326.95 221.671,315.847C221.653,315.726 221.646,315.602 221.65,315.475C221.681,314.328 222.62,313.389 223.767,313.36L223.978,313.353C224.787,312.453 225.583,311.54 226.362,310.616C224.439,310.455 223.754,307.872 225.474,306.802C227.928,305.293 230.355,303.762 232.807,302.252L233.012,301.959ZM152.231,328.2C153.857,330.702 156.365,333.727 158.432,336.092C151.639,338.426 144.423,339.645 137.018,339.645C130.424,339.645 123.98,338.678 117.851,336.819L122.432,328.338C127.245,329.627 139.269,332.015 152.231,328.2ZM177.773,297.679C179.293,301.583 178.384,304.766 175.569,303.113C175.843,310.356 177.192,319.266 178.76,324.648C180.13,323.509 181.461,322.312 182.746,321.053C183.762,320.056 184.968,319.356 186.251,318.952L181.093,299.3L177.773,297.679ZM223.767,299.771C222.62,300.476 221.444,301.212 220.268,301.948L218.827,299.713C219.267,299.448 219.709,299.183 220.151,298.889C221.356,299.183 222.561,299.477 223.767,299.771ZM233.632,269.639C231.273,270.461 229.207,271.112 227.433,271.591C224.551,272.371 222.219,272.672 220.44,272.515C218.606,272.353 217.241,272.02 216.337,271.544C216.107,271.423 215.872,271.282 215.633,271.12L210.092,286.304L214.679,293.332C214.886,293.39 215.092,293.448 215.297,293.478C215.003,293.008 214.709,292.537 214.444,292.068C213.827,291.067 214.15,289.772 215.209,289.213C216.208,288.655 217.503,289.009 218.12,289.979C219.121,291.624 220.12,293.244 221.091,294.862C222.326,295.154 223.533,295.448 224.738,295.744C223.798,294.214 222.885,292.712 221.975,291.213C221.356,290.183 221.681,288.89 222.737,288.331C223.738,287.802 225.032,288.125 225.65,289.124C227.268,291.772 228.915,294.449 230.531,297.123C231.737,297.39 232.973,297.682 234.178,297.978C232.591,295.39 231.002,292.802 229.414,290.214C228.325,288.419 230.296,286.304 232.178,287.303C232.847,287.663 233.514,288.023 234.18,288.383L238.176,290.544C238.654,290.802 239.133,291.061 239.613,291.319C239.716,291.13 239.819,290.941 239.922,290.753C239.654,289.848 239.386,288.951 239.12,288.037C236.355,286.567 233.619,285.068 230.856,283.596C229.854,283.068 229.414,281.773 229.914,280.745C230.414,279.657 231.678,279.244 232.737,279.803C234.297,280.656 235.855,281.479 237.414,282.332C237.06,281.125 236.708,279.949 236.355,278.744C234.65,277.832 232.973,276.95 231.296,276.039C230.296,275.48 229.885,274.216 230.356,273.186C230.856,272.098 232.12,271.685 233.179,272.244C233.649,272.509 234.149,272.774 234.65,273.038C234.292,271.913 233.962,270.787 233.632,269.639ZM202.504,293.509L195.447,293.184L191.358,297.567L189.212,291.301L183.182,288.507L188.858,285.008L189.565,278.948L194.77,282.891L201.006,281.098L198.946,288.154L202.504,293.509ZM144.712,285.874L145.927,285.831C153.666,285.755 159.844,286.382 165.152,287.752L177.948,279.302L179.124,269.362L157.803,267.421L144.712,285.874ZM96.372,257.636C97.666,258.539 98.998,259.563 100.194,260.664C108.144,261.53 115.866,266.542 122.586,275.216C126.172,279.845 128.6,284.364 129.777,286.756C132.882,286.467 135.79,286.245 138.527,286.09L139.258,286.065L135.51,262.245L112.218,252.716L120.717,247.071L106.454,245.776L96.372,257.636ZM253.58,244.877C252.359,245.889 250.939,246.487 249.32,246.668C248.287,246.783 247.355,246.708 246.522,246.45L246.818,246.766C247.096,247.064 247.202,247.434 247.089,247.885C246.998,248.252 246.794,248.545 246.473,248.759C246.452,248.773 246.431,248.785 246.409,248.796C235.932,254.233 229.176,257.881 226.141,259.74C223.183,261.552 221.15,263.106 220.055,264.423C219.533,265.051 219.312,265.538 219.687,265.939C219.877,266.142 220.242,266.23 220.75,266.294C221.776,266.423 223.283,266.333 225.272,266.04C228.684,265.537 232.877,264.397 237.85,262.625C237.898,262.608 237.948,262.597 237.999,262.591C238.406,262.545 238.67,262.686 238.833,262.86C238.993,263.031 239.11,263.291 239.05,263.654C239.037,263.97 238.994,264.585 238.921,265.498L238.807,266.9C238.78,267.521 238.486,267.878 238.034,268.036L237.533,268.224C237.886,269.426 238.268,270.629 238.618,271.833C238.885,271.362 239.149,270.861 239.414,270.392C239.973,269.331 241.266,269.01 242.265,269.627C243.266,270.215 243.589,271.508 243.059,272.538L240.325,277.569L241.383,281.125C242.236,279.569 243.09,278.039 243.912,276.479C244.491,275.437 245.727,275.106 246.747,275.686C250.346,265.958 252.69,255.621 253.58,244.877ZM94.108,273.251C95.738,273.251 97.061,274.548 97.061,276.146C97.061,277.744 95.738,279.041 94.108,279.041C92.479,279.041 91.156,277.744 91.156,276.146C91.156,274.548 92.479,273.251 94.108,273.251ZM190.093,244.021L189.181,246.452L193.977,254.57L184.8,253.892L181.418,258.158L196.505,270.363L212.048,267.019C211.616,265.958 211.427,264.762 211.487,263.43C211.563,261.729 212.044,260.133 212.935,258.644C211.039,259.082 209.436,259.274 208.127,259.229C206.318,259.167 204.96,258.877 204.048,258.397C203.15,257.924 202.144,257.105 201.041,255.925C199.629,254.414 199.025,252.4 199.278,249.869C199.448,248.173 199.948,246.597 200.779,245.14C198.715,245.641 196.984,245.863 195.588,245.815C193.779,245.753 192.422,245.463 191.509,244.983C191.063,244.748 190.591,244.428 190.093,244.021ZM237.96,267.322L238.142,267.524C238.013,267.524 237.888,267.487 237.782,267.418L237.799,267.412C237.861,267.391 237.915,267.361 237.96,267.322ZM238.802,266.952L238.807,266.903C238.804,266.952 238.795,267 238.782,267.045L238.802,266.952ZM169.743,249.334L176.007,252.188L179.241,263.569L169.743,249.334ZM137.657,250.424L144.568,246.216L145.391,238.864L151.685,243.658L159.242,241.481L156.745,250.011L161.037,256.48L152.508,256.069L147.568,261.394L144.979,253.804L137.657,250.424ZM253.552,224.973C233.213,235.519 220.935,241.972 216.723,244.33C212.487,246.7 209.634,248.746 208.182,250.493C207.66,251.121 207.439,251.607 207.814,252.008C208.203,252.425 208.79,252.673 209.555,252.793C210.438,252.931 211.538,252.892 212.855,252.687C215.585,252.262 219.616,251.084 224.95,249.163C228.457,247.195 233.474,244.511 240.003,241.111C240.009,241.108 240.014,241.105 240.02,241.102C240.714,240.766 241.315,240.879 241.827,241.427L243.169,242.863C243.131,242.608 243.114,242.344 243.119,242.071C243.144,240.639 243.795,239.333 245.114,238.177C246.375,237.072 247.854,236.424 249.553,236.234C251.3,236.039 252.758,236.388 253.936,237.247L253.964,237.268C253.978,236.542 253.984,235.814 253.984,235.085C253.984,231.677 253.838,228.303 253.552,224.973ZM175.774,228.756L168.771,246.775L175.154,243.424L175.802,234.426L183.007,240.159L186.817,239.101C186.67,238.292 186.644,237.41 186.739,236.455C186.954,234.309 187.697,232.354 188.971,230.591C186.546,230.937 184.525,231.038 182.906,230.9C180.962,230.735 179.106,230.265 177.34,229.492C176.769,229.242 176.247,228.997 175.774,228.756ZM136.951,215.603L134.158,214.25L133.128,238.953L124.099,244.982L114.747,230.777L121.159,213.484L107.513,216.397L113.805,208.336L131.216,209.631L135.804,211.22L136.951,215.603ZM108.423,237.6L102.159,237.308L98.513,241.218L96.601,235.629L91.221,233.158L96.278,230.041L96.897,224.63L101.543,228.16L107.101,226.542L105.276,232.835L108.423,237.6ZM185.097,128.312C186.714,129.585 188.261,131.013 189.74,132.594C191.18,134.135 192.505,135.839 193.714,137.705C194.907,139.548 196.138,141.585 197.405,143.815C198.589,145.899 199.596,147.544 200.425,148.747C203.518,149.725 206.138,151.366 208.288,153.666C209.044,154.474 209.516,155.467 209.695,156.647C209.885,157.896 209.612,158.94 208.908,159.787C207.88,161.025 206.644,161.684 205.212,161.788C203.771,161.892 202.416,161.309 201.173,159.979C200.562,159.326 199.954,158.591 199.348,157.776C197.119,157.921 194.672,158.817 191.998,160.439C189.125,162.181 186.389,164.621 183.785,167.754C181.025,171.076 178.8,174.288 177.114,177.392C175.416,180.516 173.882,183.586 172.51,186.601C171.617,188.564 170.68,190.373 169.698,192.031C170.517,191.488 171.477,190.849 172.579,190.113C175.225,188.345 177.564,186.758 179.594,185.354C179.6,185.35 179.606,185.346 179.611,185.343C186.78,180.698 192.987,176.999 198.23,174.245C203.521,171.466 207.831,169.685 211.154,168.891C214.551,168.079 217.26,167.867 219.277,168.226C221.377,168.6 223.119,169.532 224.507,171.017C225.567,172.151 226.103,173.786 226.052,175.942C226.002,178.051 225.361,179.836 224.141,181.303C223.712,181.819 223.257,182.186 222.787,182.414C222.025,182.784 221.488,182.633 221.167,182.29C221.043,182.157 220.866,181.768 220.793,181.079C220.762,180.783 220.682,180.543 220.522,180.372C219.801,179.601 218.986,179.029 218.074,178.66C217.136,178.281 215.549,178.221 213.316,178.425C210.987,178.637 208.22,179.384 205.01,180.656C201.747,181.949 197.351,184.091 191.819,187.08C186.272,190.077 179.91,193.913 172.734,198.587C172.734,198.588 172.733,198.588 172.733,198.588C168.999,201.01 165.645,202.888 162.673,204.226C166.288,205.148 170.531,205.169 173.57,203.778C175.949,201.264 178.897,199.238 182.415,197.705C186.462,195.941 190.55,195.222 194.68,195.542C198.887,195.869 202.225,197.371 204.704,200.024C206.601,202.054 207.681,204.128 207.974,206.233C208.275,208.393 207.612,210.483 205.945,212.489C203.799,215.071 200.943,216.464 197.372,216.655C193.893,216.841 190.64,216.264 187.615,214.928C184.824,213.696 182.481,212.217 180.583,210.494C179.819,211.156 179.127,211.86 178.507,212.607C177.279,214.083 176.5,215.539 176.186,216.982C175.903,218.287 176.198,219.413 177.081,220.358C177.788,221.115 178.683,221.802 179.762,222.425C180.867,223.062 182.339,223.642 184.178,224.174C186.012,224.704 188.308,224.83 191.065,224.569C193.477,224.341 196.042,223.773 198.756,222.87C203.061,220.41 215.566,213.805 236.27,203.057C236.626,202.86 236.956,202.793 237.252,202.82C237.591,202.85 237.901,202.998 238.171,203.287C238.171,203.287 243.162,208.626 243.162,208.626C243.439,208.922 243.55,209.317 243.388,209.826C243.246,210.274 243.005,210.531 242.748,210.659C221.369,221.74 208.515,228.492 204.184,230.915C199.948,233.286 197.095,235.332 195.643,237.079C195.121,237.707 194.9,238.193 195.275,238.594C195.665,239.011 196.251,239.259 197.016,239.379C197.9,239.517 199,239.478 200.316,239.273C202.966,238.86 206.842,237.739 211.942,235.918C216.767,233.208 229.057,226.725 248.809,216.471C249.164,216.274 249.495,216.207 249.79,216.234C250.129,216.264 250.44,216.412 250.71,216.701L252.891,219.034C247.334,178.539 221.051,144.613 185.097,128.312ZM27.866,191.94L27.866,191.939C35.519,172.65 48.152,155.866 64.177,143.178L70.546,145.608L72.309,151.812L72.104,167.459L61.28,174.605L73.22,179.604L77.192,191.927L84.455,182.341L94.748,183.163L94.574,185.811L78.604,196.25L83.984,199.367L80.191,200.339L72.897,194.369L71.956,203.573L66.25,207.577L66.471,205.063L59.571,209.046L58.236,224.247L52.734,227.423L54.059,212.222L47.158,216.205L45.834,231.406L37.695,236.1L38.352,223.655L27.898,230.448L27.898,221.06L40.397,212.308L40.397,204.331L27.898,213.083L27.898,206.731L40.397,197.979L40.397,190.013L27.898,198.754L27.898,191.859C27.888,191.886 27.877,191.913 27.866,191.94ZM79.742,230.517L67.871,224.979L75.44,220.61L75.691,221.425L81.367,214.368L88.425,215.19L87.866,224.809L84.955,226.69L79.742,230.517ZM20.912,219.942L20.907,219.979L22.451,221.06L22.451,230.448L19.829,228.744C19.884,228.366 20.271,224.663 20.907,219.979L20.855,219.942L20.912,219.942ZM171.823,225.849C171.475,225.508 171.116,225.139 170.745,224.742C168.142,221.957 167.114,218.76 167.652,215.154C167.843,213.873 168.18,212.605 168.666,211.351C164.567,210.309 159.403,208.091 156.261,206.409C155.718,206.519 155.196,206.6 154.694,206.654C153.469,206.784 152.359,206.75 151.362,206.555L155.861,214.22L145.892,213.72L140.422,219.337L153.743,230.337L171.823,225.849ZM19.829,228.744C19.826,228.765 19.824,228.776 19.823,228.776C19.822,228.775 19.822,228.764 19.823,228.74L19.829,228.744ZM65.136,220.264L73.789,215.262L72.986,212.661L66.093,209.374L65.136,220.264ZM96.601,204.074L99.043,213.808L89.278,205.925L89.132,206.044L88.308,210.955L85.514,207.014L88.102,200.839L96.601,204.074ZM82.514,210.544L79.486,210.398L77.72,212.279L76.81,209.574L74.192,208.398L76.662,206.868L76.956,204.28L79.19,205.955L81.867,205.193L80.985,208.221L82.514,210.544ZM201.663,204.556C201.766,204.666 201.836,204.773 201.842,204.893C201.761,205.459 201.414,205.969 200.843,206.454C200.155,207.038 199.163,207.567 197.872,208.057C197.869,208.058 197.867,208.059 197.864,208.06C193.695,209.707 189.435,209.423 185.079,207.232C188.251,205.4 191.47,204.191 194.737,203.608C196.495,203.295 197.973,203.222 199.169,203.405C200.252,203.57 201.089,203.942 201.663,204.556ZM153.08,197.818C154.123,196.926 155.176,195.838 156.241,194.557C158.737,191.552 161.439,187.172 164.352,181.42C167.319,175.561 170.326,170.802 173.37,167.14C175.874,164.126 178.583,161.584 181.499,159.511C179.811,160.251 178.035,161.083 176.172,162.007C170.367,164.888 164.962,167.735 159.956,170.551C154.929,173.378 149.93,176.005 144.96,178.432C139.926,180.89 135.437,182.371 131.499,182.886C129.327,183.17 127.428,183.048 125.8,182.53L122.306,192.398L129.863,203.515L134.01,201.427L135.422,189.809L143.481,197.28L154.274,194.25L153.08,197.818ZM115.777,199.663L109.482,199.367L105.835,203.281L103.923,197.691L98.543,195.22L103.629,192.104L104.248,186.693L108.894,190.222L114.453,188.605L112.601,194.897L115.777,199.663ZM77.897,171.429L78.337,167.43L81.778,170.016L85.896,168.84L84.543,173.488L86.866,177.018L82.22,176.782L79.544,179.693L78.132,175.546L74.133,173.723L77.897,171.429ZM161.87,120.609C153.792,118.847 145.413,117.92 136.819,117.92C121.668,117.92 107.185,120.802 93.883,126.049L90.279,137.638L96.043,146.373L96.424,144.019L102.984,150.225L112.042,147.785L109.747,157.196L114.276,164.488L105.19,163.989L99.925,169.899L109.924,179.399L120.125,176.752C119.772,175.534 119.648,174.165 119.757,172.645C119.979,169.532 120.824,167.124 122.25,165.408C122.854,164.681 123.445,164.168 124.011,163.858C124.896,163.372 125.525,163.515 125.889,163.904C125.942,163.96 126.022,164.064 126.07,164.244C126.106,164.379 126.144,164.698 126.167,165.203C126.183,165.558 126.269,165.846 126.462,166.052C127.235,166.879 128.044,167.511 128.891,167.942C129.741,168.374 131.042,168.6 132.789,168.656C134.606,168.715 136.728,168.402 139.157,167.725C141.64,167.034 144.911,165.814 148.971,164.069C153.052,162.315 157.764,160.062 163.106,157.31C175.02,151.064 184.979,147.892 192.97,147.754C189.674,142.336 186.825,138.336 184.417,135.76C181.442,132.577 177.564,130.665 172.791,130.011C167.967,129.35 163.193,129.945 158.471,131.793C153.749,133.641 149.869,136.389 146.833,140.042C145.212,141.992 144.244,143.896 143.954,145.768C143.682,147.523 144.112,149.016 145.258,150.242C146.818,151.911 148.965,152.508 151.683,152.092C154.459,151.667 156.491,150.724 157.753,149.206C158.16,148.716 158.583,148.633 158.892,148.705C159.081,148.749 159.267,148.853 159.429,149.051C159.595,149.255 159.76,149.63 159.861,150.186C160.248,151.774 159.867,153.286 158.681,154.712C156.423,157.429 153.063,159.11 148.58,159.713C144.059,160.322 140.288,159.004 137.264,155.77L137.264,155.769C134.784,153.116 133.632,149.382 133.868,144.548C134.1,139.787 135.792,135.457 138.951,131.559C138.953,131.557 138.954,131.555 138.956,131.552C141.675,128.281 145.085,125.698 149.191,123.806C153.182,121.967 157.408,120.9 161.87,120.609ZM94.514,161.341L96.985,162.165L98.159,168.871L95.955,167.105L95.131,178.694L90.337,172.399L94.514,161.341ZM83.074,163.666L76.485,157.665L83.337,148.607L95.69,149.489L95.338,154.195L88.573,158.167L92.865,160.636L83.074,163.666ZM106.1,159.665L103.07,159.548L101.308,161.429L100.396,158.724L97.779,157.519L100.248,156.018L100.544,153.43L102.778,155.108L105.455,154.343L104.571,157.371L106.1,159.665ZM75.653,135.155C76.528,134.618 77.411,134.092 78.301,133.577L79.749,134.667L84.19,133.374L82.72,138.431L85.251,142.255L80.22,142.02L77.309,145.137L75.78,140.668L71.456,138.668L75.543,136.168L75.653,135.155ZM180.189,106.092C174.413,104.148 168.461,102.581 162.366,101.421C161.639,100.11 160.883,98.715 160.126,97.318C160.038,97.141 159.95,96.995 159.89,96.847C157.125,91.759 155.303,86.083 153.862,80.436L179.889,104.287L180.419,105.288C180.419,105.288 180.253,105.564 180.189,106.092ZM115.274,100.721C108.993,101.722 102.856,103.153 96.893,104.984L96.631,104.2L98.278,101.641L126.011,79.759C123.982,85.819 121.482,91.818 117.923,97.024L117.894,97.024C117.835,97.141 117.775,97.229 117.687,97.318C117.658,97.406 117.57,97.523 117.452,97.671C116.986,98.312 116.204,99.471 115.274,100.721ZM135.95,51.587C137.215,50.409 138.892,49.792 140.627,49.852C142.334,49.909 143.98,50.645 145.127,51.938C146.303,53.174 146.951,54.849 146.862,56.556C146.803,58.291 146.038,59.908 144.803,61.086C143.509,62.26 141.863,62.879 140.128,62.819C138.421,62.762 136.775,62.026 135.628,60.733C134.452,59.497 133.804,57.82 133.864,56.115C133.952,54.35 134.717,52.763 135.95,51.587ZM207.857,15.296C218.916,11.766 223.15,20.353 218.297,30.998C205.298,42.235 188.889,48.674 171.713,49.233C178.065,33.087 191.329,20.618 207.857,15.296ZM64.545,25.293C60.458,14.325 65.338,6.09 76.074,10.442C92.16,16.971 104.454,30.352 109.63,46.91C92.543,45.117 76.633,37.47 64.545,25.293Z" style="fill:none;stroke:rgb(255,0,0);stroke-width:1px;"/>
</svg>
