<?xml version="1.0" encoding="UTF-8" standalone="no"?>
<!DOCTYPE svg PUBLIC "-//W3C//DTD SVG 1.1//EN" "http://www.w3.org/Graphics/SVG/1.1/DTD/svg11.dtd">
<svg width="100%" height="100%" viewBox="0 0 1123 794" version="1.1" xmlns="http://www.w3.org/2000/svg" xmlns:xlink="http://www.w3.org/1999/xlink" xml:space="preserve" xmlns:serif="http://www.serif.com/" style="fill-rule:evenodd;clip-rule:evenodd;stroke-linejoin:round;stroke-miterlimit:2;">
    <path d="M144.768,40.265C146.525,40.302 148.11,40.912 149.422,41.91C150.863,43.057 151.891,44.704 152.273,46.587C152.802,46.587 182.859,16.178 188.975,12.177C194.836,8.337 202.831,5.966 211.003,5.93C211.404,5.929 211.807,5.932 212.21,5.942C221.975,6.413 230.502,10.413 234.032,19.412C239.942,32.998 232.913,47.381 232.854,60.821C232.825,76.702 247.707,93.348 235.179,108.435C229.972,113.729 222.856,118.846 215.857,121.903L215.797,121.903L214.909,122.185L213.44,122.66C235.271,137.575 252.544,158.68 262.718,183.428L263.146,184.482L263.635,185.717L264.183,187.147L264.715,188.58L264.956,189.247L265.465,190.694L265.958,192.147L266.475,193.735L266.941,195.223L267.39,196.719L267.822,198.222L268.318,200.033L268.765,201.757L269.14,203.283L269.499,204.816L269.84,206.356L270.097,207.582L270.267,208.418L270.567,209.973L270.849,211.533L271.113,213.1L271.309,214.338L271.419,215.073L271.66,216.779L271.864,218.366L272.05,219.958L272.182,221.204L272.257,221.958L272.366,223.158L272.397,223.517L272.519,225.075L272.624,226.63L272.71,228.177L272.746,228.945L272.807,230.524L272.85,232.102C272.861,232.627 272.87,233.152 272.875,233.676L272.882,235.204L272.88,235.812C272.877,236.27 272.873,236.727 272.866,237.183L272.845,238.277C272.836,238.637 272.827,238.997 272.816,239.357L272.77,240.666L272.707,242.056L272.66,242.916C272.616,243.693 272.566,244.469 272.509,245.242L272.378,246.891L272.235,248.448L272.115,249.632L271.964,250.996L271.773,252.558L271.607,253.813L271.429,255.064L271.176,256.717L270.983,257.897L270.743,259.275L270.405,261.091L270.108,262.584L269.863,263.752L269.428,265.714L269.074,267.212L268.795,268.344L268.42,269.801L268.042,271.21L267.725,272.344L267.361,273.601L266.892,275.16L266.363,276.838L265.822,278.487L265.452,279.56L265.025,280.738L264.863,281.178C264.752,281.514 264.639,281.848 264.5,282.186C263.205,285.714 261.764,289.155 260.177,292.537C259.764,293.448 259.353,294.331 258.911,295.213C258.206,296.654 257.441,298.096 256.707,299.508C256.647,299.565 256.619,299.654 256.588,299.713C255.177,302.329 253.677,304.919 252.09,307.419L251.385,308.513L250.98,309.103L250.316,310.136L249.767,310.943L249.354,311.546L249.354,311.565C249.088,312.005 248.794,312.416 248.472,312.829C247.32,314.5 246.13,316.138 244.904,317.745L244.816,317.86C243.221,319.948 241.565,321.984 239.854,323.976L239.073,324.871L238.079,325.991L237.478,326.655L236.874,327.314L236.265,327.97L235.652,328.622L235.034,329.27L234.413,329.913L233.787,330.553L233.157,331.188L232.523,331.819L231.885,332.446L231.243,333.069L230.597,333.688L229.946,334.303L229.292,334.913L228.634,335.519L227.305,336.718L225.961,337.9L224.601,339.064L223.226,340.21L221.835,341.339L220.43,342.45L219.251,343.358L218.294,344.082L217.12,344.95L216.125,345.672L214.957,346.501L213.924,347.22L212.763,348.011L211.691,348.725L210.538,349.478L209.428,350.187L208.283,350.903L207.134,351.605L205.999,352.284L204.81,352.979L203.686,353.621L202.128,354.488L200.557,355.336L199.718,355.777L198.921,356.19L198.122,356.597L197.319,356.999L196.514,357.396L195.706,357.788L194.894,358.175L194.08,358.556L193.263,358.932L192.443,359.303L191.621,359.668L190.795,360.029L189.967,360.383L189.136,360.733L188.303,361.077L187.466,361.416L186.627,361.749L185.472,362.197L184.208,362.674L183.508,362.932C175.658,365.798 167.471,367.962 159.021,369.348L157.605,369.572L156.197,369.781L154.318,370.035L152.436,370.263L150.549,370.465L148.516,370.653L146.646,370.8L144.654,370.927L142.787,371.02L140.923,371.087L139.53,371.121L138.144,371.142L136.819,371.148L135.472,371.141L135.01,371.136L133.308,371.103L132.116,371.068L131.571,371.048C131.011,371.027 130.452,371.002 129.893,370.974L128.91,370.921L128.07,370.87L126.787,370.783L125.344,370.67L124.595,370.605L123.757,370.528L122.78,370.431L121.461,370.29L119.917,370.108L119.147,370.01L118.622,369.94C61.059,362.253 14.891,318.582 3.474,262.277L3.239,261.09L2.955,259.579L2.689,258.062L2.439,256.54L2.206,255.012L1.989,253.478L1.79,251.939L1.609,250.395L1.444,248.846L1.295,247.267L1.199,246.139L1.071,244.412L1.03,243.782L0.93,242.013L0.887,241.098L0.867,240.61L0.814,239.101L0.782,237.765L0.762,236.427L0.756,235.069L0.761,233.92L0.78,232.504L0.814,231.055L0.874,229.343L0.941,227.924L1.04,226.215L1.16,224.51L1.339,222.399L1.503,220.733L1.754,218.52L1.965,216.867L2.116,215.769L2.36,214.126L2.623,212.491L2.832,211.276L3.004,210.32L3.25,209.022L3.391,208.305L3.7,206.805L3.847,206.115L4.228,204.413L4.525,203.156L4.699,202.441L5.07,200.971L5.248,200.286L5.705,198.602L6.047,197.393L6.255,196.679L6.685,195.245L7.142,193.78L7.652,192.213L8.179,190.657L8.724,189.112L9.286,187.576L9.865,186.051L10.462,184.535L11.076,183.028L11.589,181.809L12.228,180.334L12.884,178.867L13.557,177.41L14.247,175.963L14.953,174.524L15.675,173.096L16.414,171.677L17.169,170.268L17.681,169.334L18.2,168.404L18.727,167.479L19.26,166.559L19.8,165.643L20.347,164.732L20.901,163.825L21.462,162.923L21.995,162.081C24.011,158.918 26.155,155.843 28.418,152.865L29.105,151.969L30.119,150.673L31.137,149.404L32.163,148.156L33.2,146.924L34.249,145.708L35.309,144.506L36.64,143.037L37.833,141.756L39.206,140.322L40.549,138.958L41.845,137.678L43.198,136.376L44.743,134.932L46.31,133.513L47.5,132.464L48.702,131.429L49.916,130.407L51.142,129.4L52.38,128.406L53.63,127.427L54.892,126.462L56.165,125.511L57.449,124.575L58.745,123.654L60.052,122.747L61.369,121.855L62.698,120.978L64.037,120.117L64.936,119.551L65.84,118.992C65.398,118.817 65.044,118.669 64.75,118.492L64.722,118.492C55.281,115.374 48.341,108.758 41.958,101.287C30.577,85.318 46.666,69.791 47.751,53.967C48.723,40.557 42.782,25.706 49.694,12.56C53.84,3.853 62.664,0.531 72.427,0.768C81.014,1.208 89.338,4.267 95.161,8.707C107.57,18.236 119.159,31.999 128.776,45.146C128.776,44.116 130.394,42.292 132.157,41.293C133.276,40.617 134.598,40.263 136.01,40.263L144.597,40.263L144.768,40.265ZM233.106,301.981L233,302.134C230.483,303.681 227.993,305.253 225.474,306.802C223.721,307.892 224.466,310.555 226.475,310.623C225.699,311.543 224.907,312.453 224.102,313.349L223.767,313.36C222.62,313.389 221.681,314.328 221.65,315.475C221.645,315.641 221.659,315.803 221.69,315.957C200.328,338.368 170.192,352.34 136.819,352.34C129.603,352.34 122.539,351.687 115.679,350.436L134.186,327.506L164.772,329.681L159.508,320.888L165.184,312.093L175.802,312.975L170.243,303.566L173.565,295.625L181.093,299.3L186.535,320.035L200.475,303.418L218.297,304.448C218.326,304.8 218.445,305.153 218.65,305.447C219.327,306.417 220.62,306.683 221.621,306.066C224.267,304.448 226.915,302.799 229.591,301.155C230.762,301.438 231.935,301.697 233.106,301.981ZM107.895,341.033L113.364,348.678L110.159,337.003L107.895,341.033ZM104.571,345.769L100.63,345.592L99.878,346.393C99.065,346.123 98.255,345.844 97.449,345.556L97.102,344.532L93.718,342.975L96.925,341.004L97.306,337.591L100.219,339.797L103.749,338.798L102.571,342.768L104.571,345.769ZM85.131,273.303L79.354,270.4L80.178,272.648C80.193,272.692 80.209,272.736 80.222,272.78C81.181,275.96 79.411,279.432 76.27,280.531C74.342,281.206 72.35,280.866 70.84,279.792C71.014,281.638 70.315,283.537 68.77,284.872C67.596,285.888 66.126,286.394 64.662,286.394C62.977,286.394 61.301,285.725 60.085,284.426C60.052,284.392 60.022,284.357 59.993,284.321L57.193,280.956L57.193,288.369C57.193,291.684 54.444,294.418 50.997,294.418C47.547,294.418 44.798,291.684 44.798,288.369L44.798,280.956L41.998,284.321C41.969,284.357 41.939,284.392 41.906,284.426C39.633,286.853 35.746,287.057 33.221,284.874L33.221,284.872C31.676,283.537 30.977,281.638 31.152,279.792C30.457,280.285 29.66,280.624 28.814,280.779C39.992,307.142 60.547,328.582 86.29,340.908L91.19,337.739L92.396,325.651L101.189,333.062L108.66,330.739L105.749,320.828L76.779,308.771L84.691,302.624L82.543,295.744L74.367,291.949L81.926,286.273L82.749,277.684L87.308,281.333L85.131,273.303ZM117.923,310.182L108.954,306.066L117.395,300.861L118.423,291.83L126.187,297.713L135.451,295.037L132.392,305.535L137.657,313.475L127.187,312.975L121.099,319.533L117.923,310.182ZM158.478,319.476L151.155,307.801L156.126,310.066L158.478,319.476ZM156.891,305.007L159.832,303.212L160.184,300.067L162.889,302.125L166.096,301.183L165.036,304.83L166.861,307.595L163.243,307.419L161.125,309.711L160.007,306.448L156.891,305.007ZM169.832,294.508L163.95,296.566L155.684,289.92L154.539,300.772L148.686,303.77L158.714,273.038L151.862,274.421L157.803,267.421L179.124,269.362L177.948,279.302L160.979,290.508L169.832,294.508ZM223.767,299.771C222.62,300.476 221.444,301.212 220.268,301.948L218.827,299.713C219.267,299.448 219.709,299.183 220.151,298.889C221.356,299.183 222.561,299.477 223.767,299.771ZM91.073,297.625L88.014,301.654L94.543,297.832L91.073,297.625ZM229.976,280.621L229.888,280.616C228.138,280.505 226.824,280.2 225.941,279.735C225.063,279.273 224.145,278.54 223.197,277.525C221.783,276.013 221.117,274.119 221.22,271.836C221.295,270.149 221.781,268.567 222.681,267.093C220.502,267.591 218.583,267.75 216.925,267.581L210.092,286.304L214.679,293.332C214.886,293.39 215.092,293.448 215.297,293.478C215.003,293.008 214.709,292.537 214.444,292.068C213.827,291.067 214.15,289.772 215.209,289.213C216.208,288.655 217.503,289.009 218.12,289.979C219.121,291.624 220.12,293.244 221.091,294.862C222.326,295.154 223.533,295.448 224.738,295.744C223.798,294.214 222.885,292.712 221.975,291.213C221.356,290.183 221.681,288.89 222.737,288.331C223.738,287.802 225.032,288.125 225.65,289.124C227.268,291.772 228.915,294.449 230.531,297.123C231.737,297.39 232.973,297.682 234.178,297.978C232.591,295.39 231.002,292.802 229.414,290.214C228.325,288.419 230.296,286.304 232.178,287.303C234.692,288.656 237.18,290.008 239.692,291.362L239.958,290.875C239.678,289.929 239.398,288.992 239.12,288.037C236.355,286.567 233.619,285.068 230.856,283.596C229.854,283.068 229.414,281.773 229.914,280.745C229.933,280.703 229.954,280.661 229.976,280.621ZM202.504,293.509L195.447,293.184L191.358,297.567L189.212,291.301L183.182,288.507L188.858,285.008L189.565,278.948L194.77,282.891L201.006,281.098L198.946,288.154L202.504,293.509ZM92.631,293.39L89.278,293.213L87.308,295.331L86.279,292.331L83.396,291.007L86.132,289.332L86.455,286.419L88.926,288.302L91.926,287.449L90.927,290.83L92.631,293.39ZM95.661,275.126L103.66,275.774L102.836,292.331L98.924,294.566L95.807,289.772L98.543,281.596L89.338,283.271L95.661,275.126ZM236.72,279.581L236.586,279.619C235.535,279.914 234.563,280.143 233.668,280.309C234.917,280.985 236.165,281.649 237.414,282.332C237.247,281.763 236.986,280.686 236.72,279.581ZM243.424,277.395C242.461,277.74 241.546,278.057 240.68,278.347C240.949,279.467 241.214,280.563 241.383,281.125C242.069,279.874 242.754,278.641 243.424,277.395ZM98.806,255.804L106.454,245.776L120.717,247.071L112.218,252.716L135.51,262.245L139.303,278.155L128.657,280.979L104.542,260.512L103.66,269.596L100.984,266.009L104.69,255.07L98.806,255.804ZM33.617,275.518L35.978,260.906L44.798,256.088L45.284,265.759L33.617,275.518ZM68.374,275.516L56.423,266.816L57.193,256.088L66.785,261.932L68.374,275.516ZM251.496,259.63C243.231,263.934 237.817,266.881 235.257,268.472C232.575,270.139 230.697,271.602 229.636,272.88C229.137,273.48 228.919,273.943 229.278,274.326C229.443,274.503 229.77,274.565 230.226,274.613C231.188,274.714 232.609,274.604 234.49,274.298C237.723,273.771 241.776,272.619 246.65,270.845C246.7,270.827 246.751,270.815 246.804,270.809C247.207,270.764 247.469,270.904 247.63,271.076C247.789,271.247 247.907,271.507 247.844,271.877C247.816,272.325 247.789,272.734 247.763,273.103C249.266,268.724 250.516,264.226 251.496,259.63ZM175.893,228.45L168.771,246.775L175.154,243.424L175.802,234.426L183.007,240.159L192.536,237.512L189.181,246.452L193.977,254.57L184.8,253.892L181.418,258.158L196.505,270.363L213.661,266.672C212.887,266.279 212.209,265.77 211.625,265.146C209.786,263.178 209.067,260.801 209.482,258.012C209.743,256.261 210.399,254.495 211.458,252.716L211.446,252.72C208.76,253.488 206.573,253.835 204.888,253.777C203.127,253.716 201.807,253.434 200.919,252.967C200.045,252.507 199.066,251.71 197.993,250.562C196.618,249.091 196.029,247.13 196.276,244.665C196.498,242.445 197.302,240.434 198.69,238.635C198.278,238.625 197.852,238.605 197.412,238.574C196.273,238.493 195.29,238.247 194.459,237.845C193.63,237.445 192.827,236.836 192.058,236.014C191.403,235.313 190.875,234.476 190.477,233.501C184.501,234.25 179.967,232.917 176.855,229.588C176.506,229.214 176.185,228.835 175.893,228.45ZM95.955,263.598L93.726,264.232C94.485,265.959 94.443,268.037 93.413,269.845L96.72,269.979L94.896,267.246L95.955,263.598ZM169.743,249.334L176.007,252.188L179.241,263.569L169.743,249.334ZM239.543,255.169C237.034,256.481 234.932,257.655 233.239,258.692C228.238,260.673 224.417,261.732 221.772,261.842C220.222,261.907 219.118,261.668 218.493,260.999C218.176,260.66 218.119,260.169 218.23,259.544C218.369,258.764 218.801,257.96 219.501,257.118C221.168,255.113 223.594,253.145 226.773,251.204C229.96,249.259 233.125,247.921 236.269,247.195C239.167,246.527 241.195,246.69 242.325,247.899C242.911,248.526 242.914,249.466 242.499,250.705C242.019,252.139 241.028,253.623 239.544,255.168L239.543,255.169ZM137.657,250.424L144.568,246.216L145.391,238.864L151.685,243.658L159.242,241.481L156.745,250.011L161.037,256.48L152.508,256.069L147.568,261.394L144.979,253.804L137.657,250.424ZM93.065,254.373C92.686,254.936 92.218,255.437 91.68,255.854L93.838,257.628L93.065,254.373ZM174.927,169.372C175.202,169.666 175.306,170.031 175.196,170.476C175.106,170.838 174.904,171.125 174.588,171.337C174.568,171.35 174.547,171.363 174.525,171.374C164.35,176.654 157.789,180.196 154.841,182.002C151.971,183.76 149.998,185.268 148.936,186.546C148.437,187.146 148.22,187.609 148.578,187.993C148.76,188.188 149.111,188.27 149.598,188.332C150.593,188.457 152.055,188.37 153.985,188.085C156.604,187.699 159.698,186.926 163.264,185.77C164.978,184.453 166.912,183.324 169.065,182.385C172.999,180.671 176.972,179.972 180.986,180.284C185.077,180.601 188.323,182.063 190.734,184.642C192.556,186.592 193.506,188.539 193.631,190.46C193.757,192.403 193.046,194.341 191.455,196.255C190.075,197.915 188.299,198.881 186.124,199.15C183.864,199.43 182.2,198.932 181.104,197.759C180.069,196.652 180.024,195.666 180.709,194.843C180.81,194.722 180.95,194.64 181.105,194.612C184.523,194.008 186.802,192.809 187.883,190.909C187.885,190.905 187.887,190.901 187.89,190.898C188.292,190.221 188.258,189.611 187.753,189.07C186.766,188.015 184.933,187.708 182.289,187.982C179.439,188.277 176.382,189.253 173.117,190.898C169.859,192.539 167.249,194.533 165.292,196.888C164.095,198.327 163.307,199.808 162.938,201.335C162.607,202.703 162.825,203.83 163.644,204.706C164.319,205.429 165.175,206.04 166.208,206.545C167.286,207.072 168.702,207.547 170.453,207.976C172.195,208.402 174.385,208.436 177.022,208.096C178.866,207.858 180.813,207.431 182.863,206.816C184.599,205.49 186.51,204.362 188.594,203.434C192.638,201.634 196.636,200.885 200.585,201.179C204.617,201.48 207.792,202.891 210.121,205.383C212.65,208.088 213.743,211.071 213.43,214.321C213.123,217.509 211.751,220.584 209.295,223.54C206.114,227.368 201.835,230.206 196.45,232.043C197.188,232.778 198.273,233.162 199.685,233.235C201.676,233.339 204.27,232.831 207.469,231.737C207.597,231.663 207.726,231.589 207.856,231.514C211.94,229.172 224.12,222.737 244.395,212.212C244.742,212.02 245.065,211.955 245.354,211.981C245.688,212.011 245.994,212.156 246.26,212.441L251.107,217.626C251.381,217.919 251.491,218.308 251.331,218.811C251.191,219.252 250.953,219.505 250.7,219.631C229.937,230.393 217.452,236.95 213.247,239.304C209.136,241.605 206.366,243.59 204.957,245.285C204.458,245.885 204.241,246.348 204.599,246.732C204.975,247.134 205.541,247.372 206.279,247.488C207.135,247.622 208.202,247.583 209.478,247.385C211.888,247.01 215.344,246.03 219.846,244.452C219.98,244.369 220.115,244.285 220.251,244.203C222.996,242.535 225.846,241.257 228.799,240.368C231.798,239.466 234.795,239.255 237.79,239.735C240.843,240.224 243.325,241.5 245.241,243.551C247.359,245.817 248.08,248.311 247.405,251.033C248.007,250.811 248.534,250.949 248.989,251.436L252.376,255.06C253.493,248.568 254.074,241.894 254.074,235.085C254.074,186.38 224.315,144.571 182.007,126.867C182.263,127.379 182.438,127.942 182.532,128.558C182.717,129.778 182.45,130.797 181.763,131.624C180.761,132.83 179.556,133.472 178.16,133.573C176.755,133.675 175.434,133.107 174.222,131.811C173.631,131.178 173.041,130.467 172.455,129.677C170.295,129.821 167.925,130.69 165.335,132.26C162.546,133.951 159.891,136.32 157.363,139.361C154.683,142.586 152.524,145.704 150.886,148.718C149.238,151.752 147.748,154.733 146.416,157.661C145.562,159.539 144.665,161.273 143.727,162.865C144.506,162.347 145.416,161.742 146.455,161.048C149.025,159.331 151.296,157.79 153.268,156.426C153.273,156.422 153.279,156.418 153.285,156.415C160.248,151.903 166.276,148.311 171.369,145.636C176.509,142.936 180.696,141.205 183.925,140.434C187.228,139.645 189.861,139.44 191.822,139.789C193.866,140.152 195.562,141.06 196.912,142.505C197.945,143.609 198.468,145.201 198.418,147.302C198.37,149.354 197.745,151.092 196.558,152.52C196.139,153.024 195.695,153.381 195.236,153.604C194.485,153.968 193.957,153.817 193.64,153.479C193.519,153.349 193.344,152.967 193.272,152.292C193.243,152.009 193.167,151.78 193.014,151.616C192.316,150.87 191.527,150.316 190.644,149.959C189.734,149.591 188.196,149.534 186.031,149.731C183.771,149.937 181.085,150.663 177.97,151.897C174.801,153.153 170.532,155.233 165.161,158.135C159.773,161.046 153.595,164.771 146.626,169.31C146.626,169.311 146.625,169.311 146.625,169.311C142.509,171.981 138.868,173.97 135.705,175.285C139.297,176.786 143.884,176.966 147.754,175.302C148.293,174.925 148.864,174.545 149.468,174.162C152.302,172.362 158.575,168.932 168.286,163.876C168.291,163.873 168.297,163.87 168.303,163.867C168.985,163.536 169.577,163.648 170.08,164.186M19.892,243.913L30.396,239.854L39.892,245.33L30.696,251.158L20.154,246.913C20.055,245.921 19.967,244.919 19.892,243.913ZM177.771,247.63L179.977,246.275L180.242,243.924L182.271,245.453L184.683,244.775L183.889,247.511L185.242,249.569L182.534,249.452L180.947,251.158L180.094,248.718L177.771,247.63ZM85.767,245.33L71.954,250.362L62.099,245.33L72.204,240.111L85.767,245.33ZM90.909,245.299L90.892,245.226C90.821,245.263 90.748,245.297 90.675,245.33C90.767,245.374 90.859,245.418 90.949,245.466L90.909,245.299ZM136.951,215.603L134.158,214.25L133.128,238.953L124.099,244.982L114.747,230.777L121.159,213.484L107.513,216.397L113.805,208.336L131.216,209.631L135.804,211.22L136.951,215.603ZM108.423,237.6L102.159,237.308L98.513,241.218L96.601,235.629L91.221,233.158L96.278,230.041L96.897,224.63L101.543,228.16L107.101,226.542L105.276,232.835L108.423,237.6ZM33.617,215.144L45.803,224.221L44.798,234.574L35.216,230.049L33.617,215.144ZM68.374,215.144L65.894,229.603L57.193,234.572L57.247,224.607L68.374,215.144ZM174.17,225.267C173.693,223.869 173.536,222.405 173.696,220.878C173.936,218.582 174.857,216.192 176.475,213.714C176.444,213.72 176.414,213.725 176.383,213.731C173.452,214.254 171.077,214.453 169.26,214.339C167.408,214.223 165.654,213.821 163.997,213.136C162.331,212.447 161.107,211.778 160.318,211.141C159.543,210.517 158.679,209.695 157.725,208.675C155.192,205.965 154.193,202.855 154.715,199.347C155.02,197.303 155.709,195.294 156.786,193.322L156.092,193.514C153.29,194.272 151.023,194.564 149.293,194.411C147.509,194.254 146.18,193.929 145.301,193.467C144.425,193.005 143.487,192.251 142.497,191.192C141.126,189.725 140.478,187.853 140.58,185.568C140.613,184.83 140.725,184.113 140.915,183.416C136.072,181.724 130.714,178.793 128.733,177.181C128.371,177.21 128.02,177.224 127.68,177.223L122.306,192.398L129.863,203.515L134.01,201.427L135.422,189.809L143.481,197.28L154.274,194.25L150.596,205.25L155.861,214.22L145.892,213.72L140.422,219.337L153.743,230.337L174.17,225.267ZM206.863,210.558C207.375,211.106 207.472,211.828 207.224,212.71C206.92,213.789 206.137,215.063 204.901,216.55C202.886,218.974 200.331,221.09 197.238,222.9C196.329,222.335 195.149,222.177 193.688,222.486C192.1,222.822 190.799,223.603 189.783,224.825C189.296,225.411 188.972,225.985 188.799,226.538C186.744,227.103 185.019,227.357 183.622,227.285C182.292,227.217 181.283,226.857 180.619,226.146C180.149,225.643 180.151,224.877 180.463,223.86C180.842,222.623 181.596,221.338 182.711,219.996C185.019,217.219 187.969,214.886 191.557,212.993C195.143,211.1 198.403,209.971 201.342,209.619C202.765,209.449 203.957,209.448 204.917,209.629C205.768,209.789 206.422,210.087 206.863,210.558ZM81.367,214.368L80.453,215.505C80.529,216.287 80.46,217.092 80.222,217.88C80.209,217.926 80.195,217.97 80.178,218.015L78.666,222.142L85.066,218.437C86.073,217.855 87.185,217.602 88.282,217.649L88.425,215.19L81.367,214.368ZM64.079,143.141L70.546,145.608L72.309,151.812L72.104,167.459L61.28,174.605L73.22,179.604L77.192,191.927L84.455,182.341L94.748,183.163L94.574,185.811L78.604,196.25L83.984,199.367L80.191,200.339L72.897,194.369L71.956,203.573L68.783,205.8L68.77,205.788C66.245,203.605 62.358,203.809 60.085,206.234C60.052,206.269 60.022,206.305 59.993,206.34L57.193,209.706L57.193,202.293C57.193,198.979 54.444,196.242 50.997,196.242C47.547,196.242 44.798,198.979 44.798,202.293L44.798,209.706L41.998,206.34C41.969,206.305 41.939,206.269 41.906,206.234C39.633,203.809 35.746,203.605 33.221,205.788C31.676,207.124 30.977,209.024 31.152,210.871C29.641,209.796 27.649,209.456 25.722,210.131C22.578,211.23 20.81,214.7 21.769,217.88C21.783,217.926 21.796,217.97 21.813,218.015L23.325,222.142L20.466,220.486C24.353,189.233 40.563,161.778 64.079,143.141ZM85.514,207.014L88.102,200.839L96.601,204.074L99.043,213.808L89.278,205.925L89.132,206.044L88.308,210.955L85.514,207.014ZM82.514,210.544L80.985,208.221L81.867,205.193L79.19,205.955L76.956,204.28L76.662,206.868L74.192,208.398L76.81,209.574L77.123,210.504C77.62,210.767 78.073,211.095 78.475,211.475L79.486,210.398L82.514,210.544ZM146.862,208.692L143.215,208.544L141.127,210.807L140.01,207.573L136.892,206.132L139.834,204.309L140.185,201.192L142.862,203.219L146.098,202.31L145.039,205.955L146.862,208.692ZM103.629,192.104L104.248,186.693L108.894,190.222L114.453,188.605L112.601,194.897L115.777,199.663L109.482,199.367L105.835,203.281L103.923,197.691L98.543,195.22L103.629,192.104ZM77.897,171.429L78.337,167.43L81.778,170.016L85.896,168.84L84.543,173.488L86.866,177.018L82.22,176.782L79.544,179.693L78.132,175.546L74.133,173.723L77.897,171.429ZM123.179,175.959C122.779,175.685 122.409,175.367 122.072,175.005C121.383,174.268 121.053,173.376 121.089,172.326C121.099,172.053 121.189,171.85 121.313,171.7C121.456,171.528 121.655,171.407 121.943,171.371C124.756,170.958 127.619,168.933 130.582,165.367C133.007,162.45 135.629,158.197 138.458,152.613C141.34,146.921 144.262,142.297 147.218,138.74C149.609,135.864 152.19,133.43 154.967,131.435C153.378,132.135 151.71,132.918 149.963,133.785C144.326,136.582 139.076,139.347 134.215,142.082C129.332,144.828 124.477,147.379 119.65,149.736C116.445,151.302 113.467,152.459 110.719,153.212L109.747,157.196L114.276,164.488L105.19,163.989L99.925,169.899L109.924,179.399L123.179,175.959ZM94.514,161.341L96.985,162.165L98.159,168.871L95.955,167.105L95.131,178.694L90.337,172.399L94.514,161.341ZM174.658,169.066C175.289,169.179 175.971,169.196 176.706,169.114C178.36,168.929 179.8,168.298 181.027,167.223C182.313,166.095 182.947,164.823 182.972,163.427C182.997,161.981 182.409,160.814 181.198,159.93C180.05,159.093 178.629,158.753 176.928,158.943C175.274,159.128 173.834,159.759 172.606,160.835C171.32,161.962 170.686,163.234 170.662,164.63M83.074,163.666L76.485,157.665L83.337,148.607L95.69,149.489L95.338,154.195L88.573,158.167L92.865,160.636L83.074,163.666ZM100.531,153.543L100.248,156.018L97.779,157.519L100.396,158.724L101.308,161.429L103.07,159.548L106.1,159.665L104.571,157.371L105.455,154.343L102.778,155.108L100.847,153.658C100.74,153.621 100.635,153.583 100.531,153.543ZM75.665,135.043C76.512,134.523 77.364,134.016 78.223,133.519L79.749,134.667L84.19,133.374L82.72,138.431L85.251,142.255L80.22,142.02L77.309,145.137L75.78,140.668L71.456,138.668L75.543,136.168L75.665,135.043ZM161.19,120.37C153.325,118.705 145.174,117.829 136.819,117.829C130.628,117.829 124.548,118.31 118.615,119.237C118.675,120.41 119.116,121.441 119.944,122.328C121.455,123.944 123.536,124.522 126.168,124.119C128.858,123.707 130.828,122.794 132.051,121.322C132.453,120.838 132.871,120.758 133.177,120.83C133.364,120.873 133.548,120.976 133.709,121.172C133.872,121.371 134.034,121.738 134.132,122.282C134.509,123.83 134.138,125.304 132.982,126.695C130.787,129.336 127.52,130.972 123.16,131.559C118.763,132.151 115.095,130.869 112.153,127.722C110.542,125.999 109.507,123.807 109.066,121.14C103.875,122.401 98.816,124.009 93.918,125.938L90.279,137.638L95.109,144.956C95.112,144.675 95.124,144.389 95.145,144.097C95.361,141.069 96.183,138.727 97.571,137.058C98.159,136.349 98.735,135.851 99.286,135.548C100.157,135.07 100.776,135.214 101.134,135.597C101.186,135.653 101.266,135.756 101.314,135.935C101.349,136.066 101.387,136.377 101.409,136.87C101.424,137.21 101.506,137.485 101.69,137.682C102.439,138.484 103.223,139.097 104.044,139.514C104.867,139.933 106.129,140.151 107.822,140.206C109.585,140.263 111.644,139.959 114,139.302C116.411,138.631 119.587,137.447 123.529,135.753C127.493,134.049 132.069,131.861 137.256,129.188C146.428,124.38 154.408,121.447 161.19,120.37ZM153.862,80.436L179.889,104.287L180.419,105.288L180.29,105.606L180.195,106.039L180.189,106.092C174.413,104.148 168.461,102.581 162.366,101.421L161.821,100.432L161.261,99.409L160.126,97.318C160.038,97.141 159.95,96.995 159.89,96.847C157.125,91.759 155.303,86.083 153.862,80.436ZM126.011,79.759C123.982,85.819 121.482,91.818 117.923,97.024L117.894,97.024C117.835,97.141 117.775,97.229 117.687,97.318C117.658,97.406 117.57,97.523 117.452,97.671L117.042,98.249L116.246,99.381L115.61,100.266L115.274,100.721C108.993,101.722 102.856,103.153 96.893,104.984L96.631,104.2L98.278,101.641L126.011,79.759ZM140.465,49.848L140.627,49.852C142.334,49.909 143.98,50.645 145.127,51.938C146.303,53.174 146.951,54.849 146.862,56.556C146.803,58.291 146.038,59.908 144.803,61.086C143.509,62.26 141.863,62.879 140.128,62.819C138.421,62.762 136.775,62.026 135.628,60.733C134.452,59.497 133.804,57.82 133.864,56.115C133.952,54.35 134.717,52.763 135.95,51.587C137.096,50.519 138.581,49.913 140.141,49.852L140.465,49.848ZM212.533,14.49L212.739,14.493C220.061,14.64 222.354,22.1 218.297,30.998C205.399,42.147 189.145,48.573 172.115,49.219L171.713,49.233C178.065,33.087 191.329,20.618 207.857,15.296C209.586,14.744 211.148,14.488 212.533,14.49ZM70.673,9.257C72.254,9.253 74.061,9.626 76.074,10.442C92.16,16.971 104.454,30.352 109.63,46.91C92.543,45.117 76.633,37.47 64.545,25.293C61.224,16.382 63.823,9.274 70.673,9.257Z" style="fill:none;stroke:rgb(255,0,0);stroke-width:1px;"/>
</svg>
