<?xml version="1.0" encoding="UTF-8" standalone="no"?>
<!DOCTYPE svg PUBLIC "-//W3C//DTD SVG 1.1//EN" "http://www.w3.org/Graphics/SVG/1.1/DTD/svg11.dtd">
<svg width="100%" height="100%" viewBox="0 0 1123 794" version="1.1" xmlns="http://www.w3.org/2000/svg" xmlns:xlink="http://www.w3.org/1999/xlink" xml:space="preserve" xmlns:serif="http://www.serif.com/" style="fill-rule:evenodd;clip-rule:evenodd;stroke-linejoin:round;stroke-miterlimit:2;">
    <path d="M0.763,233.654C1.257,185.132 27.188,142.701 65.84,118.992C65.398,118.817 65.044,118.669 64.75,118.492L64.722,118.492C55.281,115.374 48.341,108.758 41.958,101.287C30.577,85.318 46.666,69.791 47.751,53.967C48.723,40.557 42.782,25.706 49.694,12.56C53.84,3.853 62.664,0.531 72.427,0.768C81.014,1.208 89.338,4.267 95.161,8.707C107.57,18.236 119.159,31.999 128.776,45.146C128.776,44.116 130.394,42.292 132.157,41.293C133.276,40.617 134.598,40.263 136.01,40.263L144.597,40.263C146.422,40.263 148.067,40.88 149.422,41.91C150.863,43.057 151.891,44.704 152.273,46.587C152.802,46.587 182.859,16.178 188.975,12.177C195.124,8.148 203.623,5.737 212.21,5.942C221.975,6.413 230.502,10.413 234.032,19.412C239.942,32.998 232.913,47.381 232.854,60.821C232.825,76.702 247.707,93.348 235.179,108.435C229.972,113.729 222.856,118.846 215.857,121.903L215.797,121.903C215.417,122.021 214.603,122.283 213.44,122.66C235.706,137.872 253.229,159.522 263.318,184.913L263.635,185.717C269.445,200.605 272.705,216.771 272.875,233.676L272.882,235.085L272.88,235.812L272.866,237.183L272.848,238.157L272.816,239.357L272.777,240.461C272.271,253.525 269.932,266.101 265.999,277.951C265.659,278.997 265.294,280.017 264.925,281.008L264.5,282.186C263.205,285.714 261.764,289.155 260.177,292.537C259.764,293.448 259.353,294.331 258.911,295.213C258.206,296.654 257.441,298.096 256.707,299.508C256.647,299.565 256.619,299.654 256.588,299.713C255.177,302.329 253.677,304.919 252.09,307.419C251.717,307.987 251.375,308.559 250.98,309.103L250.882,309.252C250.472,309.92 250.043,310.551 249.594,311.192L249.354,311.546L249.354,311.565C249.088,312.005 248.794,312.416 248.472,312.829C245.795,316.713 242.913,320.415 239.854,323.976C215.151,352.578 178.758,370.759 138.144,371.142L136.819,371.148C133.222,371.148 129.657,371.008 126.124,370.733C59.482,365.554 6.326,312.384 1.167,245.731C0.895,242.217 0.756,238.667 0.756,235.085L0.763,233.654ZM28.751,280.397C40.488,308.332 62.752,330.776 90.57,342.754C86.43,339.961 82.52,336.774 78.888,333.213C75.47,329.86 75.47,324.406 78.888,321.053C82.307,317.7 87.87,317.7 91.289,321.053C93.511,323.232 95.866,325.23 98.335,327.046C102.763,312.408 102.398,299.836 101.771,293.577L92.474,300.653C89.142,303.191 84.772,303.273 81.343,300.862C77.913,298.45 76.589,294.365 77.972,290.454L85.343,269.604L86.265,255.979C86.324,255.115 86.821,254.338 87.589,253.91C88.356,253.482 89.292,253.461 90.078,253.854C90.199,253.915 91.551,254.595 93.379,255.698L90.219,242.394L72.795,235.617L73.743,234.921L60.959,228.962L55.458,232.149L69.292,238.586L62.38,242.58L48.557,236.132L40.419,240.826L51.529,246.478L40.419,252.14L48.557,256.834L62.38,250.385L69.292,254.369L55.458,260.817L60.959,263.993L74.793,257.544L81.694,261.528L67.871,267.976L78.895,274.349C80.197,275.092 80.639,276.761 79.885,278.064C79.131,279.377 77.474,279.818 76.16,279.065L65.136,272.702L66.471,287.903L59.571,283.92L58.236,268.719L52.734,265.532L54.059,280.733L47.158,276.75L45.834,261.549L37.695,256.856L38.352,269.3L27.898,262.507L27.898,271.906L40.397,280.658L40.397,288.624L28.794,280.5L28.751,280.397ZM233.012,301.959C231.873,301.683 230.731,301.431 229.591,301.155C226.915,302.799 224.267,304.448 221.621,306.066C220.62,306.683 219.327,306.417 218.65,305.447C218.445,305.153 218.326,304.8 218.297,304.448L200.475,303.418L187.72,318.623C190.354,318.261 193.125,319.071 195.146,321.053C196.802,322.677 197.715,324.836 197.714,327.133C197.714,329.43 196.802,331.589 195.146,333.213C191.721,336.571 188.049,339.597 184.169,342.273C198.375,335.983 211.1,326.95 221.671,315.847C221.653,315.726 221.646,315.602 221.65,315.475C221.681,314.328 222.62,313.389 223.767,313.36L223.978,313.353C224.787,312.453 225.583,311.54 226.362,310.616C224.439,310.455 223.754,307.872 225.474,306.802C227.928,305.293 230.355,303.762 232.807,302.252L233.012,301.959ZM152.231,328.2C153.857,330.702 156.365,333.727 158.432,336.092C151.639,338.426 144.423,339.645 137.018,339.645C130.424,339.645 123.98,338.678 117.851,336.819L122.432,328.338C127.245,329.627 139.269,332.015 152.231,328.2ZM177.773,297.679C179.293,301.583 178.384,304.766 175.569,303.113C175.843,310.356 177.192,319.266 178.76,324.648C180.13,323.509 181.461,322.312 182.746,321.053C183.762,320.056 184.968,319.356 186.251,318.952L181.093,299.3L177.773,297.679ZM223.767,299.771C222.62,300.476 221.444,301.212 220.268,301.948L218.827,299.713C219.267,299.448 219.709,299.183 220.151,298.889C221.356,299.183 222.561,299.477 223.767,299.771ZM215.91,270.361L210.092,286.304L214.679,293.332C214.886,293.39 215.092,293.448 215.297,293.478C215.003,293.008 214.709,292.537 214.444,292.068C213.827,291.067 214.15,289.772 215.209,289.213C216.208,288.655 217.503,289.009 218.12,289.979C219.121,291.624 220.12,293.244 221.091,294.862C222.326,295.154 223.533,295.448 224.738,295.744C223.798,294.214 222.885,292.712 221.975,291.213C221.356,290.183 221.681,288.89 222.737,288.331C223.738,287.802 225.032,288.125 225.65,289.124C227.268,291.772 228.915,294.449 230.531,297.123C231.737,297.39 232.973,297.682 234.178,297.978C232.591,295.39 231.002,292.802 229.414,290.214C228.325,288.419 230.296,286.304 232.178,287.303C232.847,287.663 233.514,288.023 234.18,288.383L238.176,290.544C238.654,290.802 239.133,291.061 239.613,291.319C239.716,291.13 239.819,290.941 239.922,290.753C240.428,290.547 242.778,285.242 244.58,280.984C242.156,281.843 240.05,282.523 238.261,283.025C235.5,283.799 233.279,284.123 231.603,284.016C229.863,283.905 228.557,283.602 227.679,283.14C226.805,282.68 225.894,281.951 224.951,280.943C223.545,279.438 222.882,277.555 222.984,275.286C223.059,273.611 223.541,272.041 224.433,270.578C220.906,271.382 218.067,271.292 215.91,270.361ZM202.504,293.509L195.447,293.184L191.358,297.567L189.212,291.301L183.182,288.507L188.858,285.008L189.565,278.948L194.77,282.891L201.006,281.098L198.946,288.154L202.504,293.509ZM144.712,285.874L145.927,285.831C153.666,285.755 159.844,286.382 165.152,287.752L177.948,279.302L179.124,269.362L157.803,267.421L144.712,285.874ZM96.372,257.636C97.666,258.539 98.998,259.563 100.194,260.664C108.144,261.53 115.866,266.542 122.586,275.216C126.172,279.845 128.6,284.364 129.777,286.756C132.882,286.467 135.79,286.245 138.527,286.09L139.258,286.065L135.51,262.245L112.218,252.716L120.717,247.071L106.454,245.776L96.372,257.636ZM94.108,273.251C95.738,273.251 97.061,274.548 97.061,276.146C97.061,277.744 95.738,279.041 94.108,279.041C92.479,279.041 91.156,277.744 91.156,276.146C91.156,274.548 92.479,273.251 94.108,273.251ZM250.214,264.657C243.601,268.127 239.177,270.557 236.942,271.946C234.277,273.602 232.411,275.056 231.356,276.325C230.862,276.919 230.645,277.378 231,277.757C231.164,277.933 231.488,277.994 231.94,278.041C232.896,278.142 234.308,278.032 236.177,277.728C239.13,277.247 242.772,276.24 247.102,274.712C248.285,271.426 249.324,268.072 250.214,264.657ZM176.192,227.681L168.771,246.775L175.154,243.424L175.802,234.426L183.007,240.159L192.536,237.512L189.181,246.452L193.977,254.57L184.8,253.892L181.418,258.158L196.505,270.363L212.222,266.981C211.319,265.389 211.016,263.577 211.319,261.545C211.589,259.728 212.288,257.894 213.424,256.048C213.32,256.076 213.217,256.104 213.116,256.132C210.33,256.885 208.077,257.175 206.357,257.024C204.583,256.867 203.262,256.544 202.388,256.084C201.517,255.626 200.584,254.875 199.6,253.823C198.237,252.364 197.592,250.502 197.694,248.23C197.793,246.013 198.605,243.98 200.138,242.135C200.358,241.87 200.598,241.602 200.856,241.332C199.517,241.029 198.413,240.403 197.539,239.468C196.223,238.06 195.483,236.306 195.334,234.198C191.768,234.792 188.473,234.812 185.448,234.266C182.112,233.664 179.651,232.481 178.043,230.761C177.168,229.824 176.551,228.797 176.192,227.681ZM241.197,258.718C238.703,260.021 236.615,261.188 234.932,262.218C229.962,264.187 226.166,265.239 223.537,265.349C221.999,265.413 220.902,265.176 220.281,264.512C219.967,264.176 219.911,263.689 220.021,263.069C220.159,262.295 220.588,261.497 221.284,260.66C222.939,258.668 225.351,256.712 228.51,254.783C231.677,252.85 234.822,251.52 237.947,250.799C240.825,250.135 242.839,250.297 243.962,251.498C244.543,252.12 244.545,253.053 244.134,254.282C243.657,255.707 242.672,257.181 241.198,258.717L241.197,258.718ZM169.743,249.334L176.007,252.188L179.241,263.569L169.743,249.334ZM137.657,250.424L144.568,246.216L145.391,238.864L151.685,243.658L159.242,241.481L156.745,250.011L161.037,256.48L152.508,256.069L147.568,261.394L144.979,253.804L137.657,250.424ZM188.255,129.801C189.22,130.875 190.064,132.135 190.787,133.583C191.554,135.12 192.108,136.987 192.441,139.188C192.772,141.369 192.779,143.661 192.46,146.061C192.142,148.455 191.308,151.102 189.948,154.001C188.599,156.877 186.754,159.725 184.412,162.543C181.294,166.295 177.544,169.772 173.16,172.97C168.78,176.167 164.126,178.771 159.198,180.783C155.561,182.268 151.954,183.403 148.376,184.19C152.167,186.076 157.999,186.784 162.072,185.248C162.27,185.131 162.472,185.014 162.676,184.897C166.736,182.568 178.841,176.173 198.992,165.712C199.338,165.521 199.66,165.457 199.948,165.483C200.281,165.512 200.586,165.657 200.851,165.941C200.851,165.941 205.668,171.094 205.668,171.094C205.941,171.386 206.051,171.774 205.892,172.276C205.752,172.716 205.514,172.967 205.262,173.093C184.627,183.789 172.219,190.306 168.039,192.646C163.954,194.932 161.201,196.904 159.801,198.589C159.307,199.184 159.09,199.642 159.445,200.022C159.818,200.421 160.38,200.657 161.112,200.772C161.963,200.905 163.022,200.867 164.29,200.669C166.924,200.259 170.814,199.123 175.959,197.27C179.344,195.37 184.187,192.779 190.488,189.498C190.494,189.495 190.5,189.492 190.505,189.489C191.186,189.16 191.775,189.271 192.276,189.808L193.074,190.661C193.268,190.497 193.489,190.354 193.735,190.239L205.22,184.856C206.467,184.271 207.868,184.624 208.345,185.644L210.077,189.338C210.555,190.357 209.93,191.66 208.683,192.244L197.062,194.928L197.094,194.961C197.368,195.255 197.472,195.618 197.362,196.063C197.272,196.423 197.071,196.71 196.757,196.92C196.736,196.934 196.715,196.946 196.693,196.958C186.581,202.205 180.059,205.726 177.13,207.52C174.278,209.267 172.317,210.766 171.262,212.036C170.768,212.63 170.551,213.089 170.906,213.468C171.087,213.661 171.435,213.743 171.917,213.804C172.906,213.929 174.359,213.842 176.276,213.559C178.998,213.158 182.235,212.336 185.987,211.097L186.11,211.011C188.81,209.137 194.142,206.109 202.108,201.932C202.114,201.928 202.12,201.925 202.127,201.922C202.807,201.592 203.396,201.704 203.898,202.24C203.898,202.24 208.655,207.329 208.655,207.329C208.929,207.623 209.033,207.987 208.923,208.431C208.833,208.792 208.633,209.078 208.318,209.288C208.298,209.302 208.277,209.314 208.255,209.326C199.467,213.899 193.714,217.092 190.996,218.908C188.325,220.692 186.095,222.658 184.308,224.807C183.896,225.303 183.613,225.791 183.47,226.278C183.424,226.435 183.397,226.574 183.396,226.698C183.396,226.767 183.393,226.827 183.431,226.867C184.31,227.807 185.962,228.282 188.351,228.404C190.825,228.531 193.579,228.234 196.615,227.519C197.163,226.289 197.838,225.193 198.637,224.232C201.655,220.6 205.071,217.847 208.879,215.968C210.837,215.002 212.482,214.474 213.809,214.363C215.315,214.237 216.451,214.632 217.24,215.477C218.01,216.301 218.342,217.368 218.197,218.693C218.064,219.899 217.404,221.257 216.169,222.742C212.375,227.307 207.414,230.627 201.281,232.692C200.92,233.822 201.076,234.78 201.802,235.557C202.189,235.971 202.798,236.171 203.605,236.224C205.052,236.318 207.058,235.916 209.628,235.047C213.029,233.106 218.23,230.313 225.232,226.667C225.238,226.664 225.243,226.661 225.249,226.659C225.929,226.329 226.519,226.44 227.02,226.977L227.779,227.789C227.772,227.673 227.77,227.556 227.772,227.436C227.797,226.048 228.427,224.782 229.707,223.661C230.927,222.592 232.359,221.964 234.004,221.78C235.696,221.591 237.109,221.93 238.251,222.762C239.456,223.641 240.04,224.802 240.015,226.241C239.991,227.629 239.36,228.895 238.081,230.016C236.861,231.086 235.428,231.713 233.784,231.897C232.97,231.988 232.221,231.957 231.535,231.807L231.837,232.13C232.112,232.424 232.216,232.788 232.105,233.232C232.016,233.593 231.815,233.879 231.5,234.089C231.48,234.103 231.459,234.116 231.437,234.127C221.325,239.374 214.803,242.895 211.874,244.689C209.022,246.436 207.061,247.935 206.006,249.205C205.512,249.8 205.295,250.258 205.65,250.637C205.83,250.831 206.178,250.912 206.661,250.973C207.65,251.098 209.103,251.011 211.02,250.728C214.039,250.283 217.692,249.321 221.977,247.846L222.019,247.82L222.022,247.83L222.027,247.829L222.023,247.818C224.752,246.16 227.585,244.89 230.52,244.007C233.502,243.109 236.481,242.9 239.458,243.377C242.493,243.863 244.96,245.132 246.866,247.17C248.97,249.422 249.687,251.9 249.02,254.604C249.616,254.386 250.139,254.524 250.59,255.007L252.021,256.538C253.31,249.583 253.984,242.412 253.984,235.085C253.984,188.869 227.167,148.866 188.255,129.801ZM136.951,215.603L134.158,214.25L133.128,238.953L124.099,244.982L114.747,230.777L121.159,213.484L107.513,216.397L113.805,208.336L131.216,209.631L135.804,211.22L136.951,215.603ZM108.423,237.6L102.159,237.308L98.513,241.218L96.601,235.629L91.221,233.158L96.278,230.041L96.897,224.63L101.543,228.16L107.101,226.542L105.276,232.835L108.423,237.6ZM27.866,191.94L27.866,191.939C35.519,172.65 48.152,155.866 64.177,143.178L70.546,145.608L72.309,151.812L72.104,167.459L61.28,174.605L73.22,179.604L77.192,191.927L84.455,182.341L94.748,183.163L94.574,185.811L78.604,196.25L83.984,199.367L80.191,200.339L72.897,194.369L71.956,203.573L66.25,207.577L66.471,205.063L59.571,209.046L58.236,224.247L52.734,227.423L54.059,212.222L47.158,216.205L45.834,231.406L37.695,236.1L38.352,223.655L27.898,230.448L27.898,221.06L40.397,212.308L40.397,204.331L27.898,213.083L27.898,206.731L40.397,197.979L40.397,190.013L27.898,198.754L27.898,191.859C27.888,191.886 27.877,191.913 27.866,191.94ZM79.742,230.517L67.871,224.979L75.44,220.61L75.691,221.425L81.367,214.368L88.425,215.19L87.866,224.809L84.955,226.69L79.742,230.517ZM20.912,219.942L20.907,219.979L22.451,221.06L22.451,230.448L19.829,228.744C19.884,228.366 20.271,224.663 20.907,219.979L20.855,219.942L20.912,219.942ZM151.679,202.009L150.596,205.25L155.861,214.22L145.892,213.72L140.422,219.337L153.743,230.337L175.827,224.855C175.831,224.726 175.839,224.596 175.85,224.465C176.006,222.55 176.627,220.773 177.717,219.134C175.231,219.759 173.196,219.994 171.614,219.855C169.839,219.698 168.519,219.375 167.645,218.915C166.773,218.456 165.841,217.706 164.856,216.653C163.493,215.194 162.848,213.333 162.95,211.061C163.023,209.433 163.48,207.905 164.324,206.477C162.514,206.892 160.982,207.074 159.729,207.031C157.978,206.97 156.665,206.689 155.782,206.225C154.913,205.768 153.94,204.975 152.874,203.834C152.368,203.293 151.969,202.684 151.679,202.009ZM19.829,228.744C19.826,228.765 19.824,228.776 19.823,228.776C19.822,228.775 19.822,228.764 19.823,228.74L19.829,228.744ZM65.136,220.264L73.789,215.262L72.986,212.661L66.093,209.374L65.136,220.264ZM96.601,204.074L99.043,213.808L89.278,205.925L89.132,206.044L88.308,210.955L85.514,207.014L88.102,200.839L96.601,204.074ZM82.514,210.544L79.486,210.398L77.72,212.279L76.81,209.574L74.192,208.398L76.662,206.868L76.956,204.28L79.19,205.955L81.867,205.193L80.985,208.221L82.514,210.544ZM125.828,182.451L122.306,192.398L129.863,203.515L134.01,201.427L135.422,189.809L143.481,197.28L151.891,194.919C152.349,193.739 153.008,192.632 153.867,191.598C153.923,191.532 153.979,191.465 154.036,191.398C148.407,189.403 142.507,186.324 142.554,185.606C142.554,185.606 134.542,185.28 130.614,184.242C128.913,183.792 127.318,183.195 125.828,182.451ZM115.777,199.663L109.482,199.367L105.835,203.281L103.923,197.691L98.543,195.22L103.629,192.104L104.248,186.693L108.894,190.222L114.453,188.605L112.601,194.897L115.777,199.663ZM77.897,171.429L78.337,167.43L81.778,170.016L85.896,168.84L84.543,173.488L86.866,177.018L82.22,176.782L79.544,179.693L78.132,175.546L74.133,173.723L77.897,171.429ZM114.127,164.48L105.19,163.989L99.925,169.899L109.924,179.399L118.877,177.076C116.308,174.131 114.787,170.743 114.311,166.912C114.21,166.099 114.149,165.288 114.127,164.48ZM94.514,161.341L96.985,162.165L98.159,168.871L95.955,167.105L95.131,178.694L90.337,172.399L94.514,161.341ZM128.412,175.154L128.628,174.545L127.369,174.872C125.285,174.232 123.583,173.213 122.266,171.804L122.266,171.804C121.026,170.477 120.837,168.385 121.541,165.547C122.295,162.508 124.056,159.339 126.806,156.031C133.076,148.487 140.714,142.405 149.718,137.785C149.718,137.785 150.459,138.578 150.459,138.578C155.135,143.581 159.952,147.327 164.905,149.825C169.342,152.062 173.489,153.264 177.344,153.445C173.662,157.582 169.275,161.34 164.185,164.719C158.651,168.393 153.201,171.178 147.832,173.07C142.5,174.95 137.45,175.822 132.68,175.678C131.128,175.631 129.704,175.457 128.412,175.154ZM137.797,117.924C137.465,117.921 137.142,117.92 136.819,117.92C121.668,117.92 107.185,120.802 93.883,126.049L90.279,137.638L96.043,146.373L96.424,144.019L102.984,150.225L112.042,147.785L109.747,157.196L114.121,164.239C114.066,161.123 114.598,158.052 115.718,155.027C117.145,151.172 119.252,147.568 122.04,144.213C127.556,137.576 134.326,132.183 142.351,128.039C140.23,124.502 138.714,121.129 137.797,117.924ZM83.074,163.666L76.485,157.665L83.337,148.607L95.69,149.489L95.338,154.195L88.573,158.167L92.865,160.636L83.074,163.666ZM106.1,159.665L103.07,159.548L101.308,161.429L100.396,158.724L97.779,157.519L100.248,156.018L100.544,153.43L102.778,155.108L105.455,154.343L104.571,157.371L106.1,159.665ZM75.653,135.155C76.528,134.618 77.411,134.092 78.301,133.577L79.749,134.667L84.19,133.374L82.72,138.431L85.251,142.255L80.22,142.02L77.309,145.137L75.78,140.668L71.456,138.668L75.543,136.168L75.653,135.155ZM185.069,134.711C185.73,135.419 186.085,136.327 186.155,137.43C186.226,138.543 185.805,139.619 184.93,140.673C183.924,141.883 182.331,142.708 180.174,143.19C177.914,143.696 175.415,143.776 172.679,143.438C169.926,143.097 166.961,142.138 163.782,140.571C160.884,139.141 158.228,137.291 155.813,135.021C162.048,132.477 167.837,131.135 173.186,131.006C178.636,130.874 182.607,132.078 185.069,134.711ZM146.02,118.277C146.44,120.529 147.246,122.841 148.434,125.214C154.225,122.915 159.852,121.65 165.314,121.415C159.068,119.852 152.621,118.79 146.02,118.277ZM180.189,106.092C174.413,104.148 168.461,102.581 162.366,101.421C161.639,100.11 160.883,98.715 160.126,97.318C160.038,97.141 159.95,96.995 159.89,96.847C157.125,91.759 155.303,86.083 153.862,80.436L179.889,104.287L180.419,105.288C180.419,105.288 180.253,105.564 180.189,106.092ZM115.274,100.721C108.993,101.722 102.856,103.153 96.893,104.984L96.631,104.2L98.278,101.641L126.011,79.759C123.982,85.819 121.482,91.818 117.923,97.024L117.894,97.024C117.835,97.141 117.775,97.229 117.687,97.318C117.658,97.406 117.57,97.523 117.452,97.671C116.986,98.312 116.204,99.471 115.274,100.721ZM135.95,51.587C137.215,50.409 138.892,49.792 140.627,49.852C142.334,49.909 143.98,50.645 145.127,51.938C146.303,53.174 146.951,54.849 146.862,56.556C146.803,58.291 146.038,59.908 144.803,61.086C143.509,62.26 141.863,62.879 140.128,62.819C138.421,62.762 136.775,62.026 135.628,60.733C134.452,59.497 133.804,57.82 133.864,56.115C133.952,54.35 134.717,52.763 135.95,51.587ZM207.857,15.296C218.916,11.766 223.15,20.353 218.297,30.998C205.298,42.235 188.889,48.674 171.713,49.233C178.065,33.087 191.329,20.618 207.857,15.296ZM64.545,25.293C60.458,14.325 65.338,6.09 76.074,10.442C92.16,16.971 104.454,30.352 109.63,46.91C92.543,45.117 76.633,37.47 64.545,25.293Z" style="fill:none;stroke:rgb(255,0,0);stroke-width:1px;"/>
</svg>
