<?xml version="1.0" encoding="UTF-8" standalone="no"?>
<!DOCTYPE svg PUBLIC "-//W3C//DTD SVG 1.1//EN" "http://www.w3.org/Graphics/SVG/1.1/DTD/svg11.dtd">
<svg width="100%" height="100%" viewBox="0 0 1123 794" version="1.1" xmlns="http://www.w3.org/2000/svg" xmlns:xlink="http://www.w3.org/1999/xlink" xml:space="preserve" xmlns:serif="http://www.serif.com/" style="fill-rule:evenodd;clip-rule:evenodd;stroke-linejoin:round;stroke-miterlimit:2;">
    <path d="M0.763,233.654C1.257,185.132 27.188,142.701 65.84,118.992C65.398,118.817 65.044,118.669 64.75,118.492L64.722,118.492C55.281,115.374 48.341,108.758 41.958,101.287C30.577,85.318 46.666,69.791 47.751,53.967C48.723,40.557 42.782,25.706 49.694,12.56C53.84,3.853 62.664,0.531 72.427,0.768C81.014,1.208 89.338,4.267 95.161,8.707C107.57,18.236 119.159,31.999 128.776,45.146C128.776,44.116 130.394,42.292 132.157,41.293C133.276,40.617 134.598,40.263 136.01,40.263L144.597,40.263C146.422,40.263 148.067,40.88 149.422,41.91C150.863,43.057 151.891,44.704 152.273,46.587C152.802,46.587 182.859,16.178 188.975,12.177C195.124,8.148 203.623,5.737 212.21,5.942C221.975,6.413 230.502,10.413 234.032,19.412C239.942,32.998 232.913,47.381 232.854,60.821C232.825,76.702 247.707,93.348 235.179,108.435C229.972,113.729 222.856,118.846 215.857,121.903L215.797,121.903C215.417,122.021 214.603,122.283 213.44,122.66C235.706,137.872 253.229,159.522 263.318,184.913L263.635,185.717C269.445,200.605 272.705,216.771 272.875,233.676L272.882,235.085L272.88,235.812L272.866,237.183L272.848,238.157L272.816,239.357L272.777,240.461C272.271,253.525 269.932,266.101 265.999,277.951C265.659,278.997 265.294,280.017 264.925,281.008L264.5,282.186C263.205,285.714 261.764,289.155 260.177,292.537C259.764,293.448 259.353,294.331 258.911,295.213C258.206,296.654 257.441,298.096 256.707,299.508C256.647,299.565 256.619,299.654 256.588,299.713C255.177,302.329 253.677,304.919 252.09,307.419C251.717,307.987 251.375,308.559 250.98,309.103L250.882,309.252C250.472,309.92 250.043,310.551 249.594,311.192L249.354,311.546L249.354,311.565C249.088,312.005 248.794,312.416 248.472,312.829C245.795,316.713 242.913,320.415 239.854,323.976C215.151,352.578 178.758,370.759 138.144,371.142L136.819,371.148C133.222,371.148 129.657,371.008 126.124,370.733C59.482,365.554 6.326,312.384 1.167,245.731C0.895,242.217 0.756,238.667 0.756,235.085L0.763,233.654ZM28.751,280.397C40.488,308.332 62.752,330.776 90.57,342.754C86.43,339.961 82.52,336.774 78.888,333.213C75.47,329.86 75.47,324.406 78.888,321.053C82.307,317.7 87.87,317.7 91.289,321.053C93.511,323.232 95.866,325.23 98.335,327.046C102.763,312.408 102.398,299.836 101.771,293.577L92.474,300.653C89.142,303.191 84.772,303.273 81.343,300.862C77.913,298.45 76.589,294.365 77.972,290.454L85.343,269.604L86.265,255.979C86.324,255.115 86.821,254.338 87.589,253.91C88.356,253.482 89.292,253.461 90.078,253.854C90.199,253.915 91.551,254.595 93.379,255.698L90.219,242.394L72.795,235.617L73.743,234.921L60.959,228.962L55.458,232.149L69.292,238.586L62.38,242.58L48.557,236.132L40.419,240.826L51.529,246.478L40.419,252.14L48.557,256.834L62.38,250.385L69.292,254.369L55.458,260.817L60.959,263.993L74.793,257.544L81.694,261.528L67.871,267.976L78.895,274.349C80.197,275.092 80.639,276.761 79.885,278.064C79.131,279.377 77.474,279.818 76.16,279.065L65.136,272.702L66.471,287.903L59.571,283.92L58.236,268.719L52.734,265.532L54.059,280.733L47.158,276.75L45.834,261.549L37.695,256.856L38.352,269.3L27.898,262.507L27.898,271.906L40.397,280.658L40.397,288.624L28.794,280.5L28.751,280.397ZM233.012,301.959C231.873,301.683 230.731,301.431 229.591,301.155C226.915,302.799 224.267,304.448 221.621,306.066C220.62,306.683 219.327,306.417 218.65,305.447C218.445,305.153 218.326,304.8 218.297,304.448L200.475,303.418L187.72,318.623C190.354,318.261 193.125,319.071 195.146,321.053C196.802,322.677 197.715,324.836 197.714,327.133C197.714,329.43 196.802,331.589 195.146,333.213C191.721,336.571 188.049,339.597 184.169,342.273C198.375,335.983 211.1,326.95 221.671,315.847C221.653,315.726 221.646,315.602 221.65,315.475C221.681,314.328 222.62,313.389 223.767,313.36L223.978,313.353C224.787,312.453 225.583,311.54 226.362,310.616C224.439,310.455 223.754,307.872 225.474,306.802C227.928,305.293 230.355,303.762 232.807,302.252L233.012,301.959ZM152.231,328.2C153.857,330.702 156.365,333.727 158.432,336.092C151.639,338.426 144.423,339.645 137.018,339.645C130.424,339.645 123.98,338.678 117.851,336.819L122.432,328.338C127.245,329.627 139.269,332.015 152.231,328.2ZM177.773,297.679C179.293,301.583 178.384,304.766 175.569,303.113C175.843,310.356 177.192,319.266 178.76,324.648C180.13,323.509 181.461,322.312 182.746,321.053C183.762,320.056 184.968,319.356 186.251,318.952L181.093,299.3L177.773,297.679ZM223.767,299.771C222.62,300.476 221.444,301.212 220.268,301.948L218.827,299.713C219.267,299.448 219.709,299.183 220.151,298.889C221.356,299.183 222.561,299.477 223.767,299.771ZM176.483,226.932L168.771,246.775L175.154,243.424L175.802,234.426L183.007,240.159L192.536,237.512L189.181,246.452L193.977,254.57L184.8,253.892L181.418,258.158L196.505,270.363L217.563,265.832L210.092,286.304L214.679,293.332C214.886,293.39 215.092,293.448 215.297,293.478C215.003,293.008 214.709,292.537 214.444,292.068C213.827,291.067 214.15,289.772 215.209,289.213C216.208,288.655 217.503,289.009 218.12,289.979C219.121,291.624 220.12,293.244 221.091,294.862C222.326,295.154 223.533,295.448 224.738,295.744C223.798,294.214 222.885,292.712 221.975,291.213C221.356,290.183 221.681,288.89 222.737,288.331C223.738,287.802 225.032,288.125 225.65,289.124C227.268,291.772 228.915,294.449 230.531,297.123C231.737,297.39 232.973,297.682 234.178,297.978C232.591,295.39 231.002,292.802 229.414,290.214C228.325,288.419 230.296,286.304 232.178,287.303C232.847,287.663 233.514,288.023 234.18,288.383L238.176,290.544C238.654,290.802 239.133,291.061 239.613,291.319C239.716,291.13 239.819,290.941 239.922,290.753C239.654,289.848 239.386,288.951 239.12,288.037C236.355,286.567 233.619,285.068 230.856,283.596C229.907,283.096 229.463,281.908 229.843,280.91C228.106,280.824 226.76,280.564 225.8,280.15C224.799,279.72 223.839,279.018 222.926,278.038C221.559,276.568 220.939,274.719 221.091,272.483C221.238,270.312 222.074,268.303 223.612,266.462C225.089,264.693 227.258,262.904 230.126,261.104C232.938,259.34 237.648,256.972 244.256,254.005C244.917,253.685 245.423,253.33 245.763,252.923C246.224,252.37 246.377,251.475 246.299,250.248C241.816,252.428 235.198,255.116 226.445,258.308C226.44,258.31 226.434,258.312 226.428,258.314C226.271,258.367 226.129,258.382 226.005,258.371C223.834,259.046 221.784,259.545 219.857,259.867C216.913,260.359 214.515,260.519 212.663,260.357C210.781,260.192 208.985,259.734 207.277,258.981C205.564,258.227 204.31,257.516 203.507,256.86C202.718,256.216 201.849,255.386 200.903,254.368C198.387,251.664 197.399,248.564 197.927,245.072C198.302,242.597 199.243,240.175 200.757,237.808C198.762,237.686 197.188,236.985 196.025,235.735C194.71,234.322 193.972,232.562 193.828,230.45C190.255,231.036 186.953,231.05 183.924,230.496C180.584,229.885 178.122,228.694 176.515,226.967L176.483,226.932ZM202.504,293.509L195.447,293.184L191.358,297.567L189.212,291.301L183.182,288.507L188.858,285.008L189.565,278.948L194.77,282.891L201.006,281.098L198.946,288.154L202.504,293.509ZM144.712,285.874L145.927,285.831C153.666,285.755 159.844,286.382 165.152,287.752L177.948,279.302L179.124,269.362L157.803,267.421L144.712,285.874ZM96.372,257.636C97.666,258.539 98.998,259.563 100.194,260.664C108.144,261.53 115.866,266.542 122.586,275.216C126.172,279.845 128.6,284.364 129.777,286.756C132.882,286.467 135.79,286.245 138.527,286.09L139.258,286.065L135.51,262.245L112.218,252.716L120.717,247.071L106.454,245.776L96.372,257.636ZM236.691,279.885C235.75,280.145 234.871,280.355 234.054,280.517C235.174,281.122 236.294,281.719 237.414,282.332C237.172,281.508 236.932,280.699 236.691,279.885ZM244.172,277.418C242.927,277.877 241.753,278.292 240.65,278.662L241.383,281.125C241.832,280.307 243.008,278.687 244.172,277.418ZM94.108,273.251C95.738,273.251 97.061,274.548 97.061,276.146C97.061,277.744 95.738,279.041 94.108,279.041C92.479,279.041 91.156,277.744 91.156,276.146C91.156,274.548 92.479,273.251 94.108,273.251ZM251.216,260.498C250.608,261.173 249.791,261.763 248.759,262.261C248.754,262.263 248.75,262.265 248.745,262.267C237.858,267.209 231.404,270.832 229.423,273.205C228.881,273.853 228.665,274.362 229.057,274.784C229.131,274.864 229.284,274.886 229.486,274.926C229.836,274.996 230.298,275.03 230.87,275.033C232.091,275.038 234.127,274.704 236.98,274.044C239.883,273.373 243.222,272.358 246.999,271.002C247.048,270.984 247.099,270.973 247.151,270.967C247.554,270.923 247.815,271.063 247.976,271.236C248.062,271.328 248.135,271.447 248.174,271.595C249.363,267.971 250.38,264.269 251.216,260.498ZM169.743,249.334L176.007,252.188L179.241,263.569L169.743,249.334ZM137.657,250.424L144.568,246.216L145.391,238.864L151.685,243.658L159.242,241.481L156.745,250.011L161.037,256.48L152.508,256.069L147.568,261.394L144.979,253.804L137.657,250.424ZM189.95,130.649C190.486,131.98 190.886,133.519 191.147,135.267C191.474,137.453 191.475,139.748 191.15,142.152C190.826,144.549 189.984,147.199 188.615,150.1C187.257,152.978 185.403,155.826 183.051,158.644C179.918,162.396 176.153,165.87 171.755,169.064C167.36,172.256 162.691,174.854 157.75,176.858C152.807,178.863 147.92,180.225 143.088,180.945C138.212,181.673 133.552,181.442 129.109,180.257C128.336,180.051 127.585,179.814 126.856,179.548L122.306,192.398L129.863,203.515L134.01,201.427L135.422,189.809L143.481,197.28L149.619,195.557C149.597,195.08 149.612,194.58 149.666,194.058C149.908,191.691 150.814,189.565 152.387,187.681C154.126,185.598 157.068,183.361 161.226,180.989C165.299,178.666 177.44,172.287 197.65,161.854C197.997,161.664 198.32,161.6 198.608,161.626C198.941,161.657 199.246,161.803 199.51,162.087C199.51,162.087 204.324,167.261 204.324,167.261C204.597,167.553 204.706,167.942 204.545,168.444C204.405,168.884 204.166,169.135 203.913,169.261C183.217,179.927 170.772,186.428 166.579,188.762C162.481,191.043 159.72,193.012 158.313,194.697C157.816,195.292 157.598,195.751 157.953,196.133C158.326,196.534 158.889,196.772 159.622,196.889C160.474,197.024 161.536,196.988 162.807,196.793C165.446,196.388 169.345,195.26 174.504,193.415C177.899,191.519 182.757,188.935 189.077,185.662C189.082,185.659 189.088,185.657 189.094,185.654C189.775,185.325 190.365,185.438 190.866,185.976C190.866,185.976 195.68,191.15 195.68,191.15C195.954,191.444 196.057,191.809 195.945,192.253C195.855,192.614 195.653,192.9 195.338,193.11C195.317,193.124 195.296,193.136 195.274,193.147C185.132,198.381 178.591,201.892 175.652,203.683C172.791,205.427 170.823,206.924 169.763,208.194C169.266,208.789 169.048,209.248 169.403,209.629C169.584,209.824 169.933,209.906 170.416,209.969C171.407,210.096 172.862,210.012 174.784,209.733C177.511,209.338 180.755,208.522 184.515,207.29C184.557,207.261 184.599,207.232 184.641,207.203C187.35,205.332 192.698,202.311 200.688,198.145C200.694,198.141 200.701,198.138 200.707,198.135C201.389,197.806 201.978,197.92 202.479,198.458C202.479,198.458 207.233,203.567 207.233,203.567C207.507,203.861 207.61,204.225 207.499,204.67C207.408,205.031 207.207,205.317 206.891,205.527C206.871,205.54 206.85,205.552 206.828,205.564C198.014,210.125 192.243,213.31 189.516,215.123C186.836,216.904 184.598,218.868 182.803,221.018C182.389,221.514 182.104,222.002 181.96,222.489C181.913,222.647 181.886,222.787 181.885,222.91C181.884,222.98 181.881,223.04 181.919,223.081C182.798,224.025 184.452,224.504 186.845,224.632C189.323,224.765 192.084,224.474 195.127,223.765C195.679,222.533 196.357,221.437 197.16,220.476C200.192,216.844 203.62,214.094 207.439,212.221C209.402,211.258 211.052,210.733 212.381,210.625C213.889,210.503 215.026,210.901 215.814,211.748C216.584,212.575 216.914,213.645 216.765,214.971C216.629,216.179 215.965,217.537 214.725,219.022C210.913,223.587 205.936,226.901 199.788,228.955C199.423,230.087 199.577,231.048 200.303,231.829C200.705,232.261 201.349,232.463 202.207,232.507C203.193,232.557 204.433,232.383 205.928,231.999C207.77,230.506 209.878,229.244 212.255,228.215C216.176,226.517 220.134,225.83 224.129,226.149C227.693,226.434 230.61,227.589 232.888,229.597C233.004,229.208 233.267,228.911 233.622,228.825L243.842,226.347C244.444,226.201 245.085,226.716 245.274,227.495L245.959,230.318C246.148,231.097 245.813,231.848 245.211,231.994L235.55,232.735C236.332,233.988 236.806,235.257 236.981,236.535C237.268,238.631 236.621,240.656 235,242.597C232.915,245.094 230.146,246.438 226.686,246.615C223.317,246.787 220.17,246.221 217.244,244.921C214.553,243.726 212.294,242.293 210.464,240.627C209.73,241.261 209.065,241.935 208.468,242.65C207.281,244.072 206.525,245.474 206.219,246.867C205.944,248.12 206.225,249.203 207.071,250.113C207.752,250.845 208.615,251.511 209.655,252.114C210.72,252.731 212.141,253.295 213.915,253.813C215.686,254.329 217.903,254.455 220.566,254.21C222.346,254.045 224.212,253.69 226.166,253.144C234.266,250.014 240.68,247.158 245.408,244.575C245.4,243.112 245.746,242.005 246.384,241.24C247.475,239.934 248.622,239.232 249.789,239.077C251.048,238.911 252.093,239.281 252.928,240.179C253.351,240.634 253.642,241.155 253.798,241.745C253.922,239.54 253.984,237.32 253.984,235.085C253.984,189.541 227.942,150.032 189.95,130.649ZM253.604,244.584C253.378,245.174 253.035,245.747 252.57,246.304C252.432,246.469 252.265,246.627 252.067,246.775C252.067,246.775 252.154,247.391 252.154,247.389C252.474,248.931 252.692,250.114 252.809,250.94C252.827,251.07 252.845,251.206 252.862,251.348C253.173,249.114 253.421,246.858 253.604,244.584ZM136.951,215.603L134.158,214.25L133.128,238.953L124.099,244.982L114.747,230.777L121.159,213.484L107.513,216.397L113.805,208.336L131.216,209.631L135.804,211.22L136.951,215.603ZM108.423,237.6L102.159,237.308L98.513,241.218L96.601,235.629L91.221,233.158L96.278,230.041L96.897,224.63L101.543,228.16L107.101,226.542L105.276,232.835L108.423,237.6ZM230.844,234.918C230.939,235.019 231.005,235.118 231.011,235.228C230.932,235.77 230.597,236.257 230.049,236.72C229.385,237.281 228.425,237.789 227.179,238.259C227.177,238.26 227.174,238.261 227.171,238.262C223.154,239.839 219.053,239.561 214.865,237.453C217.923,235.701 221.023,234.546 224.169,233.993C225.867,233.694 227.293,233.627 228.448,233.806C229.489,233.967 230.294,234.326 230.844,234.918ZM27.866,191.94L27.866,191.939C35.519,172.65 48.152,155.866 64.177,143.178L70.546,145.608L72.309,151.812L72.104,167.459L61.28,174.605L73.22,179.604L77.192,191.927L84.455,182.341L94.748,183.163L94.574,185.811L78.604,196.25L83.984,199.367L80.191,200.339L72.897,194.369L71.956,203.573L66.25,207.577L66.471,205.063L59.571,209.046L58.236,224.247L52.734,227.423L54.059,212.222L47.158,216.205L45.834,231.406L37.695,236.1L38.352,223.655L27.898,230.448L27.898,221.06L40.397,212.308L40.397,204.331L27.898,213.083L27.898,206.731L40.397,197.979L40.397,190.013L27.898,198.754L27.898,191.859C27.888,191.886 27.877,191.913 27.866,191.94ZM79.742,230.517L67.871,224.979L75.44,220.61L75.691,221.425L81.367,214.368L88.425,215.19L87.866,224.809L84.955,226.69L79.742,230.517ZM20.912,219.942L20.907,219.979L22.451,221.06L22.451,230.448L19.829,228.744C19.884,228.366 20.271,224.663 20.907,219.979L20.855,219.942L20.912,219.942ZM152.117,200.702L150.596,205.25L155.861,214.22L145.892,213.72L140.422,219.337L153.743,230.337L175.14,225.026C174.468,223.709 174.199,222.252 174.333,220.656C174.494,218.738 175.12,216.958 176.216,215.318C173.724,215.94 171.684,216.17 170.099,216.027C168.322,215.866 166.999,215.539 166.125,215.077C165.253,214.615 164.321,213.862 163.337,212.805C161.975,211.34 161.334,209.475 161.441,207.199C161.518,205.568 161.979,204.037 162.829,202.609C161.014,203.02 159.478,203.199 158.223,203.153C156.469,203.088 155.154,202.804 154.271,202.337C153.611,201.987 152.891,201.444 152.117,200.702ZM19.829,228.744C19.826,228.765 19.824,228.776 19.823,228.776C19.822,228.775 19.822,228.764 19.823,228.74L19.829,228.744ZM65.136,220.264L73.789,215.262L72.986,212.661L66.093,209.374L65.136,220.264ZM96.601,204.074L99.043,213.808L89.278,205.925L89.132,206.044L88.308,210.955L85.514,207.014L88.102,200.839L96.601,204.074ZM82.514,210.544L79.486,210.398L77.72,212.279L76.81,209.574L74.192,208.398L76.662,206.868L76.956,204.28L79.19,205.955L81.867,205.193L80.985,208.221L82.514,210.544ZM115.777,199.663L109.482,199.367L105.835,203.281L103.923,197.691L98.543,195.22L103.629,192.104L104.248,186.693L108.894,190.222L114.453,188.605L112.601,194.897L115.777,199.663ZM198.13,181.042C196.846,182.162 196.212,183.428 196.184,184.818C196.155,186.259 196.738,187.423 197.943,188.306C199.085,189.143 200.499,189.485 202.194,189.3C203.842,189.119 205.278,188.494 206.503,187.425C207.787,186.306 208.421,185.039 208.449,183.649C208.477,182.208 207.894,181.044 206.69,180.161C205.548,179.325 204.134,178.982 202.438,179.168C200.791,179.348 199.355,179.973 198.13,181.042ZM77.897,171.429L78.337,167.43L81.778,170.016L85.896,168.84L84.543,173.488L86.866,177.018L82.22,176.782L79.544,179.693L78.132,175.546L74.133,173.723L77.897,171.429ZM113.071,164.422L105.19,163.989L99.925,169.899L109.924,179.399L121.113,176.495C119.948,175.644 118.865,174.68 117.863,173.603C115.368,170.921 113.771,167.86 113.071,164.422ZM94.514,161.341L96.985,162.165L98.159,168.871L95.955,167.105L95.131,178.694L90.337,172.399L94.514,161.341ZM120.774,167.78C119.534,166.447 119.349,164.351 120.061,161.509C120.824,158.466 122.595,155.296 125.357,151.988C131.656,144.444 139.322,138.369 148.353,133.762C148.353,133.762 149.094,134.559 149.094,134.559C153.767,139.581 158.584,143.345 163.54,145.858C167.98,148.11 172.133,149.323 175.995,149.514C172.296,153.65 167.891,157.405 162.784,160.779C157.232,164.447 151.765,167.224 146.383,169.108C141.037,170.978 135.976,171.84 131.198,171.685C126.557,171.534 123.075,170.253 120.774,167.78ZM83.074,163.666L76.485,157.665L83.337,148.607L95.69,149.489L95.338,154.195L88.573,158.167L92.865,160.636L83.074,163.666ZM137.902,117.925C137.543,117.921 137.181,117.92 136.819,117.92C121.668,117.92 107.185,120.802 93.883,126.049L90.279,137.638L96.043,146.373L96.424,144.019L102.984,150.225L112.042,147.785L109.747,157.196L112.728,161.995C112.399,158.25 112.907,154.571 114.255,150.958C115.693,147.1 117.812,143.494 120.612,140.14C126.154,133.503 132.948,128.117 140.997,123.983C139.758,121.907 138.727,119.887 137.902,117.925ZM106.1,159.665L103.07,159.548L101.308,161.429L100.396,158.724L97.779,157.519L100.248,156.018L100.544,153.43L102.778,155.108L105.455,154.343L104.571,157.371L106.1,159.665ZM75.653,135.155C76.528,134.618 77.411,134.092 78.301,133.577L79.749,134.667L84.19,133.374L82.72,138.431L85.251,142.255L80.22,142.02L77.309,145.137L75.78,140.668L71.456,138.668L75.543,136.168L75.653,135.155ZM183.774,130.765C184.435,131.475 184.789,132.386 184.857,133.491C184.925,134.607 184.501,135.684 183.621,136.738C182.61,137.948 181.012,138.771 178.85,139.249C176.585,139.751 174.082,139.825 171.342,139.48C168.584,139.132 165.616,138.165 162.435,136.587C159.534,135.148 156.877,133.288 154.463,131.008C160.715,128.473 166.519,127.142 171.878,127.025C177.338,126.906 181.314,128.121 183.774,130.765ZM145.827,118.261C146.185,119.22 146.608,120.189 147.095,121.168C149.206,120.336 151.295,119.64 153.363,119.081C150.874,118.729 148.361,118.455 145.827,118.261ZM180.189,106.092C174.413,104.148 168.461,102.581 162.366,101.421C161.639,100.11 160.883,98.715 160.126,97.318C160.038,97.141 159.95,96.995 159.89,96.847C157.125,91.759 155.303,86.083 153.862,80.436L179.889,104.287L180.419,105.288C180.419,105.288 180.253,105.564 180.189,106.092ZM115.274,100.721C108.993,101.722 102.856,103.153 96.893,104.984L96.631,104.2L98.278,101.641L126.011,79.759C123.982,85.819 121.482,91.818 117.923,97.024L117.894,97.024C117.835,97.141 117.775,97.229 117.687,97.318C117.658,97.406 117.57,97.523 117.452,97.671C116.986,98.312 116.204,99.471 115.274,100.721ZM135.95,51.587C137.215,50.409 138.892,49.792 140.627,49.852C142.334,49.909 143.98,50.645 145.127,51.938C146.303,53.174 146.951,54.849 146.862,56.556C146.803,58.291 146.038,59.908 144.803,61.086C143.509,62.26 141.863,62.879 140.128,62.819C138.421,62.762 136.775,62.026 135.628,60.733C134.452,59.497 133.804,57.82 133.864,56.115C133.952,54.35 134.717,52.763 135.95,51.587ZM207.857,15.296C218.916,11.766 223.15,20.353 218.297,30.998C205.298,42.235 188.889,48.674 171.713,49.233C178.065,33.087 191.329,20.618 207.857,15.296ZM64.545,25.293C60.458,14.325 65.338,6.09 76.074,10.442C92.16,16.971 104.454,30.352 109.63,46.91C92.543,45.117 76.633,37.47 64.545,25.293Z" style="fill:none;stroke:rgb(255,0,0);stroke-width:1px;"/>
</svg>
