<?xml version="1.0" encoding="UTF-8" standalone="no"?>
<!DOCTYPE svg PUBLIC "-//W3C//DTD SVG 1.1//EN" "http://www.w3.org/Graphics/SVG/1.1/DTD/svg11.dtd">
<svg width="100%" height="100%" viewBox="0 0 1123 794" version="1.1" xmlns="http://www.w3.org/2000/svg" xmlns:xlink="http://www.w3.org/1999/xlink" xml:space="preserve" xmlns:serif="http://www.serif.com/" style="fill-rule:evenodd;clip-rule:evenodd;stroke-linejoin:round;stroke-miterlimit:2;">
    <path d="M0.763,233.654C1.257,185.132 27.188,142.701 65.84,118.992C65.398,118.817 65.044,118.669 64.75,118.492L64.722,118.492C55.281,115.374 48.341,108.758 41.958,101.287C30.577,85.318 46.666,69.791 47.751,53.967C48.723,40.557 42.782,25.706 49.694,12.56C53.84,3.853 62.664,0.531 72.427,0.768C81.014,1.208 89.338,4.267 95.161,8.707C107.57,18.236 119.159,31.999 128.776,45.146C128.776,44.116 130.394,42.292 132.157,41.293C133.276,40.617 134.598,40.263 136.01,40.263L144.597,40.263C146.422,40.263 148.067,40.88 149.422,41.91C150.863,43.057 151.891,44.704 152.273,46.587C152.802,46.587 182.859,16.178 188.975,12.177C195.124,8.148 203.623,5.737 212.21,5.942C221.975,6.413 230.502,10.413 234.032,19.412C239.942,32.998 232.913,47.381 232.854,60.821C232.825,76.702 247.707,93.348 235.179,108.435C229.972,113.729 222.856,118.846 215.857,121.903L215.797,121.903C215.417,122.021 214.603,122.283 213.44,122.66C235.706,137.872 253.229,159.522 263.318,184.913L263.635,185.717C269.445,200.605 272.705,216.771 272.875,233.676L272.882,235.085L272.88,235.812L272.866,237.183L272.848,238.157L272.816,239.357L272.777,240.461C272.271,253.525 269.932,266.101 265.999,277.951C265.659,278.997 265.294,280.017 264.925,281.008L264.5,282.186C263.205,285.714 261.764,289.155 260.177,292.537C259.764,293.448 259.353,294.331 258.911,295.213C258.206,296.654 257.441,298.096 256.707,299.508C256.647,299.565 256.619,299.654 256.588,299.713C255.177,302.329 253.677,304.919 252.09,307.419C251.717,307.987 251.375,308.559 250.98,309.103L250.882,309.252C250.472,309.92 250.043,310.551 249.594,311.192L249.354,311.546L249.354,311.565C249.088,312.005 248.794,312.416 248.472,312.829C245.795,316.713 242.913,320.415 239.854,323.976C215.151,352.578 178.758,370.759 138.144,371.142L136.819,371.148C133.222,371.148 129.657,371.008 126.124,370.733C59.482,365.554 6.326,312.384 1.167,245.731C0.895,242.217 0.756,238.667 0.756,235.085L0.763,233.654ZM28.751,280.397C40.488,308.332 62.752,330.776 90.57,342.754C86.43,339.961 82.52,336.774 78.888,333.213C75.47,329.86 75.47,324.406 78.888,321.053C82.307,317.7 87.87,317.7 91.289,321.053C93.511,323.232 95.866,325.23 98.335,327.046C102.763,312.408 102.398,299.836 101.771,293.577L92.474,300.653C89.142,303.191 84.772,303.273 81.343,300.862C77.913,298.45 76.589,294.365 77.972,290.454L85.343,269.604L86.265,255.979C86.324,255.115 86.821,254.338 87.589,253.91C88.356,253.482 89.292,253.461 90.078,253.854C90.199,253.915 91.551,254.595 93.379,255.698L90.219,242.394L72.795,235.617L73.743,234.921L60.959,228.962L55.458,232.149L69.292,238.586L62.38,242.58L48.557,236.132L40.419,240.826L51.529,246.478L40.419,252.14L48.557,256.834L62.38,250.385L69.292,254.369L55.458,260.817L60.959,263.993L74.793,257.544L81.694,261.528L67.871,267.976L78.895,274.349C80.197,275.092 80.639,276.761 79.885,278.064C79.131,279.377 77.474,279.818 76.16,279.065L65.136,272.702L66.471,287.903L59.571,283.92L58.236,268.719L52.734,265.532L54.059,280.733L47.158,276.75L45.834,261.549L37.695,256.856L38.352,269.3L27.898,262.507L27.898,271.906L40.397,280.658L40.397,288.624L28.794,280.5L28.751,280.397ZM233.012,301.959C231.873,301.683 230.731,301.431 229.591,301.155C226.915,302.799 224.267,304.448 221.621,306.066C220.62,306.683 219.327,306.417 218.65,305.447C218.445,305.153 218.326,304.8 218.297,304.448L200.475,303.418L187.72,318.623C190.354,318.261 193.125,319.071 195.146,321.053C196.802,322.677 197.715,324.836 197.714,327.133C197.714,329.43 196.802,331.589 195.146,333.213C191.721,336.571 188.049,339.597 184.169,342.273C198.375,335.983 211.1,326.95 221.671,315.847C221.653,315.726 221.646,315.602 221.65,315.475C221.681,314.328 222.62,313.389 223.767,313.36L223.978,313.353C224.787,312.453 225.583,311.54 226.362,310.616C224.439,310.455 223.754,307.872 225.474,306.802C227.928,305.293 230.355,303.762 232.807,302.252L233.012,301.959ZM152.231,328.2C153.857,330.702 156.365,333.727 158.432,336.092C151.639,338.426 144.423,339.645 137.018,339.645C130.424,339.645 123.98,338.678 117.851,336.819L122.432,328.338C127.245,329.627 139.269,332.015 152.231,328.2ZM177.773,297.679C179.293,301.583 178.384,304.766 175.569,303.113C175.843,310.356 177.192,319.266 178.76,324.648C180.13,323.509 181.461,322.312 182.746,321.053C183.762,320.056 184.968,319.356 186.251,318.952L181.093,299.3L177.773,297.679ZM223.767,299.771C222.62,300.476 221.444,301.212 220.268,301.948L218.827,299.713C219.267,299.448 219.709,299.183 220.151,298.889C221.356,299.183 222.561,299.477 223.767,299.771ZM210.092,286.304L214.679,293.332C214.886,293.39 215.092,293.448 215.297,293.478C215.003,293.008 214.709,292.537 214.444,292.068C213.827,291.067 214.15,289.772 215.209,289.213C216.208,288.655 217.503,289.009 218.12,289.979C219.121,291.624 220.12,293.244 221.091,294.862C222.326,295.154 223.533,295.448 224.738,295.744C223.798,294.214 222.885,292.712 221.975,291.213C221.356,290.183 221.681,288.89 222.737,288.331C223.738,287.802 225.032,288.125 225.65,289.124C227.268,291.772 228.915,294.449 230.531,297.123C231.737,297.39 232.973,297.682 234.178,297.978C233.583,297.008 232.987,296.037 232.392,295.067L231.201,293.125C230.605,292.155 230.01,291.184 229.414,290.214C228.325,288.419 230.296,286.304 232.178,287.303C232.847,287.663 233.514,288.023 234.18,288.383L238.176,290.544C238.654,290.802 239.133,291.061 239.613,291.319C239.716,291.13 239.819,290.941 239.922,290.753C239.654,289.848 239.386,288.951 239.12,288.037C236.355,286.567 233.619,285.068 230.856,283.596C230.588,283.455 230.36,283.258 230.18,283.027C229.707,282.931 229.264,282.818 228.85,282.689C227.131,282.154 225.816,281.558 224.901,280.913C223.995,280.276 223.021,279.379 221.983,278.22C220.425,276.479 219.57,274.569 219.404,272.497C219.272,270.843 219.604,269.413 220.391,268.202C219.124,268.17 217.937,268.051 216.828,267.845L210.092,286.304ZM202.504,293.509L195.447,293.184L191.358,297.567L189.212,291.301L183.182,288.507L188.858,285.008L189.565,278.948L194.77,282.891L201.006,281.098L198.946,288.154L202.504,293.509ZM144.712,285.874L145.927,285.831C153.666,285.755 159.844,286.382 165.152,287.752L177.948,279.302L179.124,269.362L157.803,267.421L144.712,285.874ZM96.372,257.636C97.666,258.539 98.998,259.563 100.194,260.664C108.144,261.53 115.866,266.542 122.586,275.216C126.172,279.845 128.6,284.364 129.777,286.756C132.882,286.467 135.79,286.245 138.527,286.09L139.258,286.065L135.51,262.245L112.218,252.716L120.717,247.071L106.454,245.776L96.372,257.636ZM94.108,273.251C95.738,273.251 97.061,274.548 97.061,276.146C97.061,277.744 95.738,279.041 94.108,279.041C92.479,279.041 91.156,277.744 91.156,276.146C91.156,274.548 92.479,273.251 94.108,273.251ZM233.174,277.886C233.76,277.946 240.461,278.027 240.461,278.027C241.331,277.989 242.235,277.935 243.171,277.864C243.42,277.404 243.667,276.943 243.912,276.479C244.491,275.437 245.727,275.106 246.747,275.686C247.664,273.206 248.5,270.687 249.251,268.13C240.476,269.735 227.781,273.902 227.83,275.287C227.839,275.567 227.506,275.676 227.501,275.88C227.496,276.081 227.612,276.271 227.794,276.475C228.011,276.717 228.4,276.911 228.936,277.098C229.912,277.438 231.325,277.697 233.174,277.886ZM190.969,241.688L189.181,246.452L193.977,254.57L184.8,253.892L181.418,258.158L196.505,270.363L213.245,266.761C211.565,266.019 210.143,264.995 208.978,263.694C206.941,261.418 205.982,259.036 206.063,256.562C206.12,254.833 206.638,253.207 207.625,251.686C207.399,251.689 207.177,251.691 206.96,251.691C204.264,251.694 202.047,251.399 200.309,250.821C198.549,250.235 197.216,249.615 196.305,248.973C195.4,248.336 194.403,247.414 193.318,246.203C192.087,244.827 191.305,243.321 190.969,241.688ZM161.264,120.478C163.321,122.059 165.24,123.844 167.022,125.834C168.186,127.134 169.24,128.598 170.183,130.225C171.128,131.856 171.898,133.742 172.491,135.885C173.085,138.03 173.365,140.196 173.332,142.382C173.299,144.585 172.772,146.896 171.742,149.314C170.719,151.716 169.19,153.964 167.15,156.055C164.448,158.825 161.075,161.172 157.028,163.092C152.998,165.003 148.621,166.283 143.896,166.932C143.667,166.963 143.438,166.993 143.207,167.023C142.769,167.298 142.368,167.566 142.002,167.826C139.997,169.253 138.8,170.639 138.485,172.045C138.425,172.312 138.417,172.534 138.519,172.707C138.624,172.882 138.827,172.984 139.095,173.064C140.344,173.434 142.246,173.376 144.801,172.937C145.837,172.496 147.009,172.075 148.319,171.673C152.112,170.508 163.49,167.552 182.436,162.809C183.083,162.621 183.675,162.786 184.192,163.363C184.192,163.363 189.639,169.447 189.639,169.447C189.932,169.775 190.025,170.145 189.93,170.556C189.811,171.073 189.513,171.306 189.189,171.38C169.779,176.223 158.118,179.215 154.207,180.359C150.447,181.459 147.961,182.584 146.778,183.797C146.582,183.997 146.455,184.186 146.449,184.39C146.444,184.591 146.56,184.78 146.742,184.984C147.703,186.058 149.424,186.683 151.87,186.95C154.457,187.232 158.213,187.149 163.137,186.711C166.305,185.779 173.459,183.908 179.38,182.416C179.388,182.414 179.395,182.412 179.403,182.411C179.982,182.286 180.546,182.463 181.057,183.034L181.85,183.92C187.037,183.125 194.035,179.104 194.817,182.078C195.239,183.682 195.551,184.52 195.691,185.81C195.843,187.216 195.307,188.318 194.067,189.109C192.941,189.827 191.545,190.08 189.872,189.829C189.2,189.728 188.025,189.694 186.795,189.614C186.849,189.787 186.86,189.964 186.833,190.145C186.77,190.571 186.541,190.86 186.151,191.019C186.122,191.031 186.092,191.041 186.061,191.049C176.557,193.426 167.834,195.746 165.114,196.693C162.519,197.597 160.766,198.48 159.879,199.39C159.683,199.59 159.556,199.779 159.551,199.983C159.545,200.184 159.661,200.373 159.844,200.577C160.08,200.841 160.492,201.059 161.06,201.267C162.073,201.638 163.531,201.929 165.431,202.151C168.102,202.463 171.237,202.511 174.835,202.299C174.861,202.287 174.888,202.275 174.915,202.264C177.404,201.18 182.401,199.674 189.908,197.754C189.917,197.751 189.925,197.75 189.933,197.748C190.513,197.623 191.076,197.8 191.587,198.371C191.587,198.371 196.966,204.379 196.966,204.379C197.252,204.698 197.348,205.045 197.295,205.406C197.233,205.832 197.003,206.121 196.613,206.28C196.584,206.292 196.555,206.302 196.525,206.309C188.274,208.386 182.896,209.931 180.392,210.951C177.968,211.938 175.998,213.201 174.489,214.749C174.177,215.068 173.976,215.409 173.902,215.781C173.851,216.031 173.866,216.24 174.006,216.396C175.033,217.543 176.805,218.468 179.298,219.215C181.755,219.951 184.437,220.372 187.342,220.478C187.752,219.499 188.295,218.667 188.965,217.979C191.596,215.282 194.735,213.526 198.382,212.709C202.209,211.853 204.921,212.424 206.55,214.244C207.392,215.184 207.812,216.243 207.824,217.414C207.836,218.579 207.312,219.749 206.194,220.895C202.932,224.24 198.369,226.143 192.49,226.565C192.344,227.489 192.685,228.383 193.469,229.259C194.074,229.935 195.019,230.389 196.282,230.661C197.644,230.955 199.357,231.028 201.418,230.892C204.599,229.925 212.528,227.768 219.106,226.111C219.113,226.109 219.121,226.107 219.128,226.106C219.708,225.981 220.271,226.158 220.782,226.729L220.971,226.94C221.155,226.086 221.678,225.381 222.544,224.829C223.671,224.111 225.067,223.858 226.739,224.109C228.357,224.352 229.767,224.995 230.969,226.034C232.224,227.118 232.901,228.317 233.041,229.606C233.194,231.013 232.658,232.115 231.418,232.905C230.292,233.623 228.896,233.877 227.223,233.625C226.999,233.592 226.779,233.55 226.562,233.501C226.577,233.612 226.575,233.726 226.558,233.84C226.496,234.266 226.266,234.555 225.876,234.714C225.847,234.726 225.817,234.736 225.787,234.744C216.282,237.121 207.12,239.627 204.4,240.574C201.805,241.477 200.052,242.36 199.165,243.27C198.969,243.471 198.842,243.659 198.837,243.863C198.831,244.064 198.947,244.254 199.13,244.458C199.366,244.722 199.778,244.939 200.346,245.147C201.359,245.518 202.817,245.809 204.717,246.031C207.684,246.378 211.221,246.399 215.33,246.099L215.345,246.094L215.345,246.098L215.35,246.097L215.349,246.092C217.904,245.217 220.608,244.735 223.464,244.647C226.337,244.558 229.29,245.112 232.322,246.314C235.362,247.519 237.937,249.301 240.048,251.66C242.482,254.378 243.43,256.966 242.982,259.397L243.067,259.374C243.646,259.249 244.209,259.426 244.72,259.997L249.911,265.795C252.567,256.007 253.984,245.71 253.984,235.085C253.984,178.8 214.21,131.732 161.264,120.478ZM169.743,249.334L176.007,252.188L179.241,263.569L169.743,249.334ZM235.843,261.252C233.525,261.842 231.59,262.406 230.037,262.946C225.303,263.536 221.627,263.561 219.012,262.999C217.393,262.651 216.202,262.087 215.462,261.26C215.084,260.839 214.92,260.33 214.958,259.739C215,259.104 215.31,258.514 215.856,257.954C217.253,256.521 219.403,255.319 222.289,254.32C225.216,253.307 228.194,252.857 231.222,252.971C234.11,253.079 236.222,253.823 237.528,255.281C238.195,256.027 238.378,256.938 238.109,258.009C237.818,259.163 237.053,260.236 235.844,261.251L235.843,261.252ZM137.657,250.424L144.568,246.216L145.391,238.864L151.685,243.658L159.242,241.481L156.745,250.011L161.037,256.48L152.508,256.069L147.568,261.394L144.979,253.804L137.657,250.424ZM152.387,199.891L150.596,205.25L155.861,214.22L145.892,213.72L140.422,219.337L153.743,230.337L177.446,224.453L168.771,246.775L175.154,243.424L175.802,234.426L183.007,240.159L191.038,237.928C191.324,236.919 191.85,236.025 192.611,235.245C192.78,235.072 192.963,234.9 193.161,234.731C191.744,234.124 190.536,233.26 189.535,232.142C188.026,230.456 187.09,228.577 186.723,226.509C183.15,226.177 179.788,225.358 176.636,224.053C173.286,222.665 170.725,220.968 168.943,218.977C167.1,216.918 166.15,214.784 166.061,212.59C165.984,210.728 166.436,209.136 167.405,207.81C164.83,207.793 162.703,207.499 161.023,206.94C159.263,206.355 157.93,205.734 157.019,205.092C156.113,204.455 155.117,203.533 154.032,202.322C153.343,201.553 152.795,200.742 152.387,199.891ZM136.951,215.603L134.158,214.25L133.128,238.953L124.099,244.982L114.747,230.777L121.159,213.484L107.513,216.397L113.805,208.336L131.216,209.631L135.804,211.22L136.951,215.603ZM108.423,237.6L102.159,237.308L98.513,241.218L96.601,235.629L91.221,233.158L96.278,230.041L96.897,224.63L101.543,228.16L107.101,226.542L105.276,232.835L108.423,237.6ZM27.866,191.94L27.866,191.939C35.519,172.65 48.152,155.866 64.177,143.178L70.546,145.608L72.309,151.812L72.104,167.459L61.28,174.605L73.22,179.604L77.192,191.927L84.455,182.341L94.748,183.163L94.574,185.811L78.604,196.25L83.984,199.367L80.191,200.339L72.897,194.369L71.956,203.573L66.25,207.577L66.471,205.063L59.571,209.046L58.236,224.247L52.734,227.423L54.059,212.222L47.158,216.205L45.834,231.406L37.695,236.1L38.352,223.655L27.898,230.448L27.898,221.06L40.397,212.308L40.397,204.331L27.898,213.083L27.898,206.731L40.397,197.979L40.397,190.013L27.898,198.754L27.898,191.859C27.888,191.886 27.877,191.913 27.866,191.94ZM79.742,230.517L67.871,224.979L75.44,220.61L75.691,221.425L81.367,214.368L88.425,215.19L87.866,224.809L84.955,226.69L79.742,230.517ZM20.912,219.942L20.907,219.979L22.451,221.06L22.451,230.448L19.829,228.744C19.884,228.366 20.271,224.663 20.907,219.979L20.855,219.942L20.912,219.942ZM19.829,228.744C19.826,228.765 19.824,228.776 19.823,228.776C19.822,228.775 19.822,228.764 19.823,228.74L19.829,228.744ZM65.136,220.264L73.789,215.262L72.986,212.661L66.093,209.374L65.136,220.264ZM96.601,204.074L99.043,213.808L89.278,205.925L89.132,206.044L88.308,210.955L85.514,207.014L88.102,200.839L96.601,204.074ZM82.514,210.544L79.486,210.398L77.72,212.279L76.81,209.574L74.192,208.398L76.662,206.868L76.956,204.28L79.19,205.955L81.867,205.193L80.985,208.221L82.514,210.544ZM112.091,160.97L114.276,164.488L105.19,163.989L99.925,169.899L109.924,179.399L128.628,174.545L122.306,192.398L129.863,203.515L134.01,201.427L135.422,189.809L143.481,197.28L151.554,195.013C151.674,194.083 151.972,193.239 152.446,192.479C150.533,192.427 148.906,192.206 147.564,191.824C145.842,191.334 144.525,190.758 143.605,190.111C142.702,189.475 141.659,188.503 140.483,187.189C139.485,186.074 138.807,184.847 138.446,183.511C138.004,183.446 137.593,183.357 137.214,183.244C135.303,182.678 133.813,181.414 132.759,179.433C131.721,177.482 131.448,175.397 131.946,173.175C132.332,171.454 132.767,170.097 133.245,169.101C133.496,168.579 133.847,168.022 134.302,167.432L134.302,167.431C132.771,167.381 131.237,167.27 129.702,167.096C124.929,166.558 120.256,165.177 115.683,162.952C114.441,162.348 113.243,161.687 112.091,160.97ZM115.777,199.663L109.482,199.367L105.835,203.281L103.923,197.691L98.543,195.22L103.629,192.104L104.248,186.693L108.894,190.222L114.453,188.605L112.601,194.897L115.777,199.663ZM77.897,171.429L78.337,167.43L81.778,170.016L85.896,168.84L84.543,173.488L86.866,177.018L82.22,176.782L79.544,179.693L78.132,175.546L74.133,173.723L77.897,171.429ZM94.514,161.341L96.985,162.165L98.159,168.871L95.955,167.105L95.131,178.694L90.337,172.399L94.514,161.341ZM83.074,163.666L76.485,157.665L83.337,148.607L95.69,149.489L95.338,154.195L88.573,158.167L92.865,160.636L83.074,163.666ZM104.385,154.649L102.778,155.108L100.544,153.43L100.248,156.018L97.779,157.519L100.396,158.724L101.308,161.429L103.07,159.548L106.1,159.665L104.571,157.371L105.138,155.428C104.884,155.172 104.633,154.912 104.385,154.649ZM110.833,152.742L106.426,149.298C106.31,149.176 106.197,149.052 106.085,148.928C104.668,147.345 104.168,145.286 104.538,142.762C104.924,140.141 106.286,137.651 108.601,135.278C113.96,129.784 120.862,126.016 129.3,123.962C129.3,123.962 130.26,125.034 130.26,125.034C135.52,130.909 140.77,135.642 146.008,139.236C150.806,142.529 155.176,144.73 159.111,145.849C155.946,148.771 152.041,151.165 147.4,153.034C142.309,155.085 137.194,156.322 132.055,156.741C126.932,157.159 121.97,156.695 117.169,155.347C114.796,154.681 112.683,153.813 110.833,152.742ZM102.65,122.989C99.676,123.895 96.752,124.917 93.883,126.049L90.279,137.638L96.043,146.373L96.424,144.019L98.617,146.094C98.138,144.972 97.755,143.836 97.467,142.685C96.476,138.728 96.481,135.089 97.465,131.768C98.45,128.45 100.156,125.546 102.584,123.056L102.65,122.989ZM75.653,135.155C76.528,134.618 77.411,134.092 78.301,133.577L79.749,134.667L84.19,133.374L82.72,138.431L85.251,142.255L80.22,142.02L77.309,145.137L75.78,140.668L71.456,138.668L75.543,136.168L75.653,135.155ZM164.506,130.18C165.285,131.05 165.781,132.034 165.991,133.135C166.18,134.126 165.928,134.98 165.23,135.695C164.398,136.547 162.953,136.868 160.927,136.779C158.712,136.681 156.208,136.118 153.413,135.1C150.587,134.07 147.475,132.401 144.072,130.096C141,128.016 138.119,125.604 135.428,122.862C141.226,122.11 146.738,122.336 151.963,123.545C157.494,124.824 161.681,127.025 164.506,130.18L164.506,130.18ZM180.189,106.092C174.413,104.148 168.461,102.581 162.366,101.421C161.639,100.11 160.883,98.715 160.126,97.318C160.038,97.141 159.95,96.995 159.89,96.847C157.125,91.759 155.303,86.083 153.862,80.436L179.889,104.287L180.419,105.288C180.419,105.288 180.253,105.564 180.189,106.092ZM113.725,89.453L98.278,101.641L96.631,104.2L96.893,104.984C102.629,103.223 108.527,101.832 114.559,100.837C114.176,99.736 113.869,98.672 113.638,97.646C112.862,94.201 112.913,91.474 113.725,89.453ZM118.025,86.06C118.735,86.013 119.526,86.088 120.399,86.293C121.474,86.545 122.401,86.868 123.183,87.256C124.237,84.803 125.165,82.286 126.011,79.759L118.025,86.06ZM135.95,51.587C137.215,50.409 138.892,49.792 140.627,49.852C142.334,49.909 143.98,50.645 145.127,51.938C146.303,53.174 146.951,54.849 146.862,56.556C146.803,58.291 146.038,59.908 144.803,61.086C143.509,62.26 141.863,62.879 140.128,62.819C138.421,62.762 136.775,62.026 135.628,60.733C134.452,59.497 133.804,57.82 133.864,56.115C133.952,54.35 134.717,52.763 135.95,51.587ZM207.857,15.296C218.916,11.766 223.15,20.353 218.297,30.998C205.298,42.235 188.889,48.674 171.713,49.233C178.065,33.087 191.329,20.618 207.857,15.296ZM64.545,25.293C60.458,14.325 65.338,6.09 76.074,10.442C92.16,16.971 104.454,30.352 109.63,46.91C92.543,45.117 76.633,37.47 64.545,25.293Z"/>
</svg>
