<?xml version="1.0" encoding="UTF-8" standalone="no"?>
<!DOCTYPE svg PUBLIC "-//W3C//DTD SVG 1.1//EN" "http://www.w3.org/Graphics/SVG/1.1/DTD/svg11.dtd">
<svg width="100%" height="100%" viewBox="0 0 1123 794" version="1.1" xmlns="http://www.w3.org/2000/svg" xmlns:xlink="http://www.w3.org/1999/xlink" xml:space="preserve" xmlns:serif="http://www.serif.com/" style="fill-rule:evenodd;clip-rule:evenodd;stroke-linejoin:round;stroke-miterlimit:2;">
    <path d="M144.768,40.265C146.525,40.302 148.11,40.912 149.422,41.91C150.863,43.057 151.891,44.704 152.273,46.587C152.802,46.587 182.859,16.178 188.975,12.177C194.836,8.337 202.831,5.966 211.003,5.93C211.404,5.929 211.807,5.932 212.21,5.942C221.975,6.413 230.502,10.413 234.032,19.412C239.942,32.998 232.913,47.381 232.854,60.821C232.825,76.702 247.707,93.348 235.179,108.435C229.972,113.729 222.856,118.846 215.857,121.903L215.797,121.903L214.909,122.185L213.44,122.66C235.271,137.575 252.544,158.68 262.718,183.428L263.146,184.482L263.635,185.717L264.183,187.147L264.715,188.58L264.956,189.247L265.465,190.694L265.958,192.147L266.475,193.735L266.941,195.223L267.39,196.719L267.822,198.222L268.318,200.033L268.765,201.757L269.14,203.283L269.499,204.816L269.84,206.356L270.097,207.582L270.267,208.418L270.567,209.973L270.849,211.533L271.113,213.1L271.309,214.338L271.419,215.073L271.66,216.779L271.864,218.366L272.05,219.958L272.182,221.204L272.257,221.958L272.366,223.158L272.397,223.517L272.519,225.075L272.624,226.63L272.71,228.177L272.746,228.945L272.807,230.524L272.85,232.102C272.861,232.627 272.87,233.152 272.875,233.676L272.882,235.204L272.88,235.812C272.877,236.27 272.873,236.727 272.866,237.183L272.845,238.277C272.836,238.637 272.827,238.997 272.816,239.357L272.77,240.666L272.707,242.056L272.66,242.916C272.616,243.693 272.566,244.469 272.509,245.242L272.378,246.891L272.235,248.448L272.115,249.632L271.964,250.996L271.773,252.558L271.607,253.813L271.429,255.064L271.176,256.717L270.983,257.897L270.743,259.275L270.405,261.091L270.108,262.584L269.863,263.752L269.428,265.714L269.074,267.212L268.795,268.344L268.42,269.801L268.042,271.21L267.725,272.344L267.361,273.601L266.892,275.16L266.363,276.838L265.822,278.487L265.452,279.56L265.025,280.738L264.863,281.178C264.752,281.514 264.639,281.848 264.5,282.186C263.205,285.714 261.764,289.155 260.177,292.537C259.764,293.448 259.353,294.331 258.911,295.213C258.206,296.654 257.441,298.096 256.707,299.508C256.647,299.565 256.619,299.654 256.588,299.713C255.177,302.329 253.677,304.919 252.09,307.419L251.385,308.513L250.98,309.103L250.316,310.136L249.767,310.943L249.354,311.546L249.354,311.565C249.088,312.005 248.794,312.416 248.472,312.829C247.32,314.5 246.13,316.138 244.904,317.745L244.816,317.86C243.221,319.948 241.565,321.984 239.854,323.976L239.073,324.871L238.079,325.991L237.478,326.655L236.874,327.314L236.265,327.97L235.652,328.622L235.034,329.27L234.413,329.913L233.787,330.553L233.157,331.188L232.523,331.819L231.885,332.446L231.243,333.069L230.597,333.688L229.946,334.303L229.292,334.913L228.634,335.519L227.305,336.718L225.961,337.9L224.601,339.064L223.226,340.21L221.835,341.339L220.43,342.45L219.251,343.358L218.294,344.082L217.12,344.95L216.125,345.672L214.957,346.501L213.924,347.22L212.763,348.011L211.691,348.725L210.538,349.478L209.428,350.187L208.283,350.903L207.134,351.605L205.999,352.284L204.81,352.979L203.686,353.621L202.128,354.488L200.557,355.336L199.718,355.777L198.921,356.19L198.122,356.597L197.319,356.999L196.514,357.396L195.706,357.788L194.894,358.175L194.08,358.556L193.263,358.932L192.443,359.303L191.621,359.668L190.795,360.029L189.967,360.383L189.136,360.733L188.303,361.077L187.466,361.416L186.627,361.749L185.472,362.197L184.208,362.674L183.508,362.932C175.658,365.798 167.471,367.962 159.021,369.348L157.605,369.572L156.197,369.781L154.318,370.035L152.436,370.263L150.549,370.465L148.516,370.653L146.646,370.8L144.654,370.927L142.787,371.02L140.923,371.087L139.53,371.121L138.144,371.142L136.819,371.148L135.472,371.141L135.01,371.136L133.308,371.103L132.116,371.068L131.571,371.048C131.011,371.027 130.452,371.002 129.893,370.974L128.91,370.921L128.07,370.87L126.787,370.783L125.344,370.67L124.595,370.605L123.757,370.528L122.78,370.431L121.461,370.29L119.917,370.108L119.147,370.01L118.622,369.94C61.059,362.253 14.891,318.582 3.474,262.277L3.239,261.09L2.955,259.579L2.689,258.062L2.439,256.54L2.206,255.012L1.989,253.478L1.79,251.939L1.609,250.395L1.444,248.846L1.295,247.267L1.199,246.139L1.071,244.412L1.03,243.782L0.93,242.013L0.887,241.098L0.867,240.61L0.814,239.101L0.782,237.765L0.762,236.427L0.756,235.069L0.761,233.92L0.78,232.504L0.814,231.055L0.874,229.343L0.941,227.924L1.04,226.215L1.16,224.51L1.339,222.399L1.503,220.733L1.754,218.52L1.965,216.867L2.116,215.769L2.36,214.126L2.623,212.491L2.832,211.276L3.004,210.32L3.25,209.022L3.391,208.305L3.7,206.805L3.847,206.115L4.228,204.413L4.525,203.156L4.699,202.441L5.07,200.971L5.248,200.286L5.705,198.602L6.047,197.393L6.255,196.679L6.685,195.245L7.142,193.78L7.652,192.213L8.179,190.657L8.724,189.112L9.286,187.576L9.865,186.051L10.462,184.535L11.076,183.028L11.589,181.809L12.228,180.334L12.884,178.867L13.557,177.41L14.247,175.963L14.953,174.524L15.675,173.096L16.414,171.677L17.169,170.268L17.681,169.334L18.2,168.404L18.727,167.479L19.26,166.559L19.8,165.643L20.347,164.732L20.901,163.825L21.462,162.923L21.995,162.081C24.011,158.918 26.155,155.843 28.418,152.865L29.105,151.969L30.119,150.673L31.137,149.404L32.163,148.156L33.2,146.924L34.249,145.708L35.309,144.506L36.64,143.037L37.833,141.756L39.206,140.322L40.549,138.958L41.845,137.678L43.198,136.376L44.743,134.932L46.31,133.513L47.5,132.464L48.702,131.429L49.916,130.407L51.142,129.4L52.38,128.406L53.63,127.427L54.892,126.462L56.165,125.511L57.449,124.575L58.745,123.654L60.052,122.747L61.369,121.855L62.698,120.978L64.037,120.117L64.936,119.551L65.84,118.992C65.398,118.817 65.044,118.669 64.75,118.492L64.722,118.492C55.281,115.374 48.341,108.758 41.958,101.287C30.577,85.318 46.666,69.791 47.751,53.967C48.723,40.557 42.782,25.706 49.694,12.56C53.84,3.853 62.664,0.531 72.427,0.768C81.014,1.208 89.338,4.267 95.161,8.707C107.57,18.236 119.159,31.999 128.776,45.146C128.776,44.116 130.394,42.292 132.157,41.293C133.276,40.617 134.598,40.263 136.01,40.263L144.597,40.263L144.768,40.265ZM233.106,301.981L233,302.134C230.483,303.681 227.993,305.253 225.474,306.802C223.721,307.892 224.466,310.555 226.475,310.623C225.699,311.543 224.907,312.453 224.102,313.349L223.767,313.36C222.62,313.389 221.681,314.328 221.65,315.475C221.645,315.641 221.659,315.803 221.69,315.957C200.328,338.368 170.192,352.34 136.819,352.34C129.603,352.34 122.539,351.687 115.679,350.436L134.186,327.506L164.772,329.681L159.508,320.888L165.184,312.093L175.802,312.975L170.243,303.566L173.565,295.625L181.093,299.3L186.535,320.035L200.475,303.418L218.297,304.448C218.326,304.8 218.445,305.153 218.65,305.447C219.327,306.417 220.62,306.683 221.621,306.066C224.267,304.448 226.915,302.799 229.591,301.155C230.762,301.438 231.935,301.697 233.106,301.981ZM107.895,341.033L113.364,348.678L110.159,337.003L107.895,341.033ZM104.571,345.769L100.63,345.592L99.878,346.393C99.065,346.123 98.255,345.844 97.449,345.556L97.102,344.532L93.718,342.975L96.925,341.004L97.306,337.591L100.219,339.797L103.749,338.798L102.571,342.768L104.571,345.769ZM85.131,273.303L79.354,270.4L80.178,272.648C80.193,272.692 80.209,272.736 80.222,272.78C81.181,275.96 79.411,279.432 76.27,280.531C74.342,281.206 72.35,280.866 70.84,279.792C71.014,281.638 70.315,283.537 68.77,284.872C67.596,285.888 66.126,286.394 64.662,286.394C62.977,286.394 61.301,285.725 60.085,284.426C60.052,284.392 60.022,284.357 59.993,284.321L57.193,280.956L57.193,288.369C57.193,291.684 54.444,294.418 50.997,294.418C47.547,294.418 44.798,291.684 44.798,288.369L44.798,280.956L41.998,284.321C41.969,284.357 41.939,284.392 41.906,284.426C39.633,286.853 35.746,287.057 33.221,284.874L33.221,284.872C31.676,283.537 30.977,281.638 31.152,279.792C30.457,280.285 29.66,280.624 28.814,280.779C39.992,307.142 60.547,328.582 86.29,340.908L91.19,337.739L92.396,325.651L101.189,333.062L108.66,330.739L105.749,320.828L76.779,308.771L84.691,302.624L82.543,295.744L74.367,291.949L81.926,286.273L82.749,277.684L87.308,281.333L85.131,273.303ZM117.923,310.182L108.954,306.066L117.395,300.861L118.423,291.83L126.187,297.713L135.451,295.037L132.392,305.535L137.657,313.475L127.187,312.975L121.099,319.533L117.923,310.182ZM158.478,319.476L151.155,307.801L156.126,310.066L158.478,319.476ZM156.891,305.007L159.832,303.212L160.184,300.067L162.889,302.125L166.096,301.183L165.036,304.83L166.861,307.595L163.243,307.419L161.125,309.711L160.007,306.448L156.891,305.007ZM169.832,294.508L163.95,296.566L155.684,289.92L154.539,300.772L148.686,303.77L158.714,273.038L151.862,274.421L157.803,267.421L179.124,269.362L177.948,279.302L160.979,290.508L169.832,294.508ZM223.767,299.771C222.62,300.476 221.444,301.212 220.268,301.948L218.827,299.713C219.267,299.448 219.709,299.183 220.151,298.889C221.356,299.183 222.561,299.477 223.767,299.771ZM91.073,297.625L88.014,301.654L94.543,297.832L91.073,297.625ZM234.12,271.312C234.292,271.89 234.467,272.464 234.65,273.038C234.149,272.774 233.649,272.509 233.179,272.244C232.12,271.685 230.856,272.098 230.356,273.186C229.885,274.216 230.296,275.48 231.296,276.039C232.973,276.95 234.65,277.832 236.355,278.744C236.708,279.949 237.06,281.125 237.414,282.332C235.855,281.479 234.297,280.656 232.737,279.803C231.678,279.244 230.414,279.657 229.914,280.745C229.414,281.773 229.854,283.068 230.856,283.596C233.619,285.068 236.355,286.567 239.12,288.037C239.398,288.992 239.678,289.929 239.958,290.875L239.692,291.362C237.18,290.008 234.692,288.656 232.178,287.303C230.296,286.304 228.325,288.419 229.414,290.214C231.002,292.802 232.591,295.39 234.178,297.978C232.973,297.682 231.737,297.39 230.531,297.123C228.915,294.449 227.268,291.772 225.65,289.124C225.032,288.125 223.738,287.802 222.737,288.331C221.681,288.89 221.356,290.183 221.975,291.213C222.885,292.712 223.798,294.214 224.738,295.744C223.533,295.448 222.326,295.154 221.091,294.862C220.12,293.244 219.121,291.624 218.12,289.979C217.503,289.009 216.208,288.655 215.209,289.213C214.15,289.772 213.827,291.067 214.444,292.068C214.709,292.537 215.003,293.008 215.297,293.478C215.092,293.448 214.886,293.39 214.679,293.332L210.092,286.304L217.563,265.832L196.505,270.363L181.418,258.158L184.8,253.892L193.977,254.57L189.181,246.452L192.536,237.512L183.007,240.159L175.802,234.426L175.154,243.424L168.771,246.775L174.225,232.742L202.999,218.105C208.527,215.455 212.842,213.985 215.945,213.692C219.049,213.4 221.084,213.759 222.051,214.77C222.978,215.739 222.634,217.171 221.02,219.068C218.708,221.786 215.337,224.316 210.907,226.66C206.477,229.004 202.607,230.287 199.297,230.508C198.86,228.696 198.339,227.474 197.735,226.842C196.889,225.958 195.922,225.528 194.834,225.554C193.747,225.58 192.767,226.105 191.894,227.131C191.109,228.053 190.689,228.995 190.634,229.954C190.579,230.913 190.749,231.72 191.143,232.375C191.538,233.03 192.1,233.666 192.831,234.284C193.561,234.902 194.08,235.298 194.387,235.474C194.694,235.65 194.972,235.771 195.221,235.837C196.456,237.516 197.598,238.902 198.646,239.997C199.694,241.092 200.746,242.047 201.804,242.862C202.862,243.676 204.012,244.225 205.256,244.508C206.5,244.791 207.748,244.957 209,245.006C210.252,245.056 211.763,244.868 213.534,244.442C214.761,244.147 215.99,243.818 217.219,243.455C215.545,245.664 214.543,247.852 214.213,250.018C213.831,252.525 214.487,254.663 216.179,256.431C218.557,258.916 222.617,259.333 228.36,257.683L228.229,257.837C226.789,259.529 226.023,261.391 225.93,263.425C225.836,265.458 226.435,267.148 227.724,268.496C228.611,269.422 229.464,270.096 230.285,270.518C231.106,270.94 232.33,271.202 233.956,271.304C234.01,271.307 234.065,271.31 234.12,271.312ZM202.504,293.509L195.447,293.184L191.358,297.567L189.212,291.301L183.182,288.507L188.858,285.008L189.565,278.948L194.77,282.891L201.006,281.098L198.946,288.154L202.504,293.509ZM92.631,293.39L89.278,293.213L87.308,295.331L86.279,292.331L83.396,291.007L86.132,289.332L86.455,286.419L88.926,288.302L91.926,287.449L90.927,290.83L92.631,293.39ZM95.661,275.126L103.66,275.774L102.836,292.331L98.924,294.566L95.807,289.772L98.543,281.596L89.338,283.271L95.661,275.126ZM249.571,267.352C248.759,270.191 247.842,272.986 246.825,275.733L246.796,275.714C245.766,275.096 244.5,275.42 243.912,276.479C243.09,278.039 242.236,279.569 241.383,281.125C241.03,279.949 240.678,278.744 240.325,277.569L243.059,272.538C243.552,271.58 243.307,270.393 242.463,269.76C244.506,269.136 246.875,268.334 249.571,267.352ZM98.806,255.804L106.454,245.776L120.717,247.071L112.218,252.716L135.51,262.245L139.303,278.155L128.657,280.979L104.542,260.512L103.66,269.596L100.984,266.009L104.69,255.07L98.806,255.804ZM33.617,275.518L35.978,260.906L44.798,256.088L45.284,265.759L33.617,275.518ZM68.374,275.516L56.423,266.816L57.193,256.088L66.785,261.932L68.374,275.516ZM239.27,270.651C239.053,271.042 238.837,271.448 238.618,271.833C238.524,271.51 238.428,271.187 238.33,270.864C238.635,270.8 238.948,270.729 239.27,270.651ZM95.955,263.598C95.955,263.598 93.726,264.232 93.726,264.232C94.485,265.959 94.443,268.037 93.413,269.845L96.72,269.979C96.72,269.979 94.896,267.246 94.896,267.246L95.955,263.598ZM252.845,252.107C252.303,255.83 251.585,259.496 250.701,263.098C245.863,264.81 241.833,265.923 238.612,266.435C237.641,266.59 236.788,266.693 236.053,266.745C235.702,266.644 235.32,266.636 234.943,266.745C234.904,266.757 234.865,266.77 234.828,266.784C233.802,266.766 233.132,266.593 232.819,266.265C232.255,265.676 232.365,264.92 233.15,263.997C234.241,262.715 236.164,261.238 238.919,259.565C241.232,258.161 245.874,255.675 252.845,252.107ZM169.743,249.334L176.007,252.188L179.241,263.569L169.743,249.334ZM137.657,250.424L144.568,246.216L145.391,238.864L151.685,243.658L159.242,241.481L156.745,250.011L161.037,256.48L152.508,256.069L147.568,261.394L144.979,253.804L137.657,250.424ZM93.065,254.373C92.686,254.936 92.218,255.437 91.68,255.854L93.838,257.628C93.838,257.628 93.065,254.373 93.065,254.373ZM243.95,247.68C245.554,246.063 246.613,244.505 247.126,243.008C247.639,241.51 247.533,240.382 246.807,239.624C245.558,238.319 243.333,238.027 240.131,238.748C236.928,239.47 233.705,240.798 230.459,242.734C227.214,244.669 224.741,246.637 223.039,248.636C222.254,249.559 221.784,250.448 221.628,251.302C221.472,252.156 221.616,252.815 222.059,253.278C223.873,255.173 229.038,254.47 237.557,251.168C239.265,250.144 241.396,248.982 243.95,247.68ZM19.892,243.913L30.396,239.854L39.892,245.33L30.696,251.158L20.154,246.913C20.055,245.921 19.967,244.919 19.892,243.913ZM177.771,247.63L179.977,246.275L180.242,243.924L182.271,245.453L184.683,244.775L183.889,247.511L185.242,249.569L182.534,249.452L180.947,251.158L180.094,248.718L177.771,247.63ZM85.767,245.33L71.954,250.362L62.099,245.33L72.204,240.111L85.767,245.33ZM90.909,245.299L90.892,245.226C90.821,245.263 90.748,245.297 90.675,245.33C90.767,245.374 90.859,245.418 90.949,245.466L90.909,245.299ZM199.362,135.907C232.23,156.69 254.074,193.357 254.074,235.085C254.074,238.483 253.93,241.847 253.646,245.172L252.484,243.958C252.202,243.663 251.869,243.606 251.487,243.787C250.762,244.192 250.335,244.425 250.208,244.485C251.57,241.453 251.082,238.716 248.745,236.273C246.932,234.378 244.581,233.205 241.692,232.753C238.803,232.301 235.912,232.5 233.019,233.351C230.126,234.201 227.334,235.424 224.644,237.02C224.491,237.111 224.34,237.202 224.191,237.294C219.019,239.054 214.846,240.085 211.672,240.389C208.191,240.723 205.277,239.808 202.93,237.646C206.777,237.598 210.732,236.574 214.794,234.572C218.857,232.571 222.11,230.135 224.553,227.263C226.69,224.751 227.932,222.151 228.279,219.462C228.625,216.773 227.892,214.481 226.078,212.586C224.466,210.902 222.115,210.042 219.023,210.008L220.745,209.192C220.916,209.08 221.026,208.929 221.074,208.737C221.123,208.546 221.087,208.387 220.966,208.261L216.13,203.208C215.848,202.913 215.516,202.856 215.133,203.037L198.724,211.379C194.708,212.729 191.301,213.626 188.504,214.071C185.246,214.59 183.315,214.533 182.711,213.901C182.146,213.312 182.257,212.556 183.042,211.633C184.133,210.351 186.056,208.874 188.811,207.201C191.566,205.528 197.626,202.321 206.99,197.578C207.161,197.466 207.271,197.315 207.319,197.123C207.368,196.932 207.332,196.773 207.211,196.647L202.375,191.594C202.093,191.299 201.761,191.242 201.378,191.423C200.653,191.828 200.227,192.061 200.1,192.121C201.461,189.089 200.974,186.352 198.637,183.909C196.823,182.014 194.472,180.841 191.584,180.389C191.364,180.354 191.144,180.324 190.925,180.297L191.1,180.25C195.427,179.057 199.226,176.538 202.498,172.692C207.078,167.309 208.898,161.076 207.959,153.993C207.09,147.437 204.224,141.409 199.362,135.907ZM136.951,215.603L134.158,214.25L133.128,238.953L124.099,244.982L114.747,230.777L121.159,213.484L107.513,216.397L113.805,208.336L131.216,209.631L135.804,211.22L136.951,215.603ZM108.423,237.6L102.159,237.308L98.513,241.218L96.601,235.629L91.221,233.158L96.278,230.041L96.897,224.63L101.543,228.16L107.101,226.542L105.276,232.835L108.423,237.6ZM33.617,215.144L45.803,224.221L44.798,234.574L35.216,230.049L33.617,215.144ZM68.374,215.144L65.894,229.603L57.193,234.572L57.247,224.607L68.374,215.144ZM168.763,226.609L153.743,230.337L140.422,219.337L145.892,213.72L155.861,214.22L150.596,205.25L154.274,194.25L143.481,197.28L135.422,189.809L134.01,201.427L129.863,203.515L122.306,192.398L127.744,177.042C129.506,178.572 131.851,179.272 134.779,179.142C138.023,178.997 141.576,178.109 145.437,176.478C149.299,174.848 153.382,172.867 157.686,170.537C161.99,168.207 166.265,165.822 170.511,163.382C174.756,160.942 178.708,158.825 182.366,157.03C186.025,155.236 189.325,154.108 192.267,153.648C195.209,153.187 199.546,154.728 200.916,156.16C201.148,156.402 201.218,156.343 201.392,156.496C200.848,157.926 199.033,162.404 196.946,164.857C192.715,169.83 187.829,172.642 182.289,173.293C176.749,173.945 170.715,170.499 166.604,166.204C166.242,165.825 165.876,166.121 165.507,167.091C164.863,168.743 166.355,171.824 167.563,173.087C170.707,176.371 174.334,178.685 178.444,180.027C179.924,180.509 181.417,180.828 182.924,180.983L182.911,180.987C180.017,181.837 177.226,183.06 174.536,184.656C171.846,186.252 169.65,188.05 167.949,190.049C165.768,192.613 164.487,195.148 164.105,197.654C163.723,200.161 164.378,202.299 166.071,204.067C168.448,206.552 172.508,206.969 178.251,205.319L178.121,205.473C176.681,207.165 175.915,209.027 175.821,211.061C175.728,213.094 176.326,214.784 177.616,216.132C178.502,217.058 179.356,217.732 180.177,218.154C180.998,218.576 182.221,218.838 183.848,218.94L183.85,218.94L168.763,226.609ZM81.367,214.368L80.453,215.505C80.529,216.287 80.46,217.092 80.222,217.88C80.209,217.926 80.195,217.97 80.178,218.015L78.666,222.142L85.066,218.437C86.073,217.855 87.185,217.602 88.282,217.649L88.425,215.19L81.367,214.368ZM64.079,143.141L70.546,145.608L72.309,151.812L72.104,167.459L61.28,174.605L73.22,179.604L77.192,191.927L84.455,182.341L94.748,183.163L94.574,185.811L78.604,196.25L83.984,199.367L80.191,200.339L72.897,194.369L71.956,203.573L68.783,205.8L68.77,205.788C66.245,203.605 62.358,203.809 60.085,206.234C60.052,206.269 60.022,206.305 59.993,206.34L57.193,209.706L57.193,202.293C57.193,198.979 54.444,196.242 50.997,196.242C47.547,196.242 44.798,198.979 44.798,202.293L44.798,209.706L41.998,206.34C41.969,206.305 41.939,206.269 41.906,206.234C39.633,203.809 35.746,203.605 33.221,205.788C31.676,207.124 30.977,209.024 31.152,210.871C29.641,209.796 27.649,209.456 25.722,210.131C22.578,211.23 20.81,214.7 21.769,217.88C21.783,217.926 21.796,217.97 21.813,218.015L23.325,222.142L20.466,220.486C24.353,189.233 40.563,161.778 64.079,143.141ZM85.514,207.014L88.102,200.839L96.601,204.074L99.043,213.808L89.278,205.925L89.132,206.044L88.308,210.955L85.514,207.014ZM82.514,210.544L80.985,208.221L81.867,205.193L79.19,205.955L76.956,204.28L76.662,206.868L74.192,208.398L76.81,209.574L77.123,210.504C77.62,210.767 78.073,211.095 78.475,211.475L79.486,210.398L82.514,210.544ZM146.862,208.692L143.215,208.544L141.127,210.807L140.01,207.573L136.892,206.132L139.834,204.309L140.185,201.192L142.862,203.219L146.098,202.31L145.039,205.955L146.862,208.692ZM103.629,192.104L104.248,186.693L108.894,190.222L114.453,188.605L112.601,194.897L115.777,199.663L109.482,199.367L105.835,203.281L103.923,197.691L98.543,195.22L103.629,192.104ZM193.842,195.316C195.446,193.699 196.504,192.141 197.018,190.644C197.531,189.146 197.424,188.018 196.699,187.26C195.45,185.955 193.224,185.663 190.022,186.384C186.82,187.106 183.596,188.434 180.351,190.37C177.106,192.305 174.632,194.273 172.931,196.272C172.146,197.195 171.675,198.084 171.52,198.938C171.364,199.792 171.508,200.451 171.951,200.914C173.764,202.809 178.93,202.106 187.448,198.804C189.157,197.78 191.288,196.618 193.842,195.316ZM77.897,171.429L78.337,167.43L81.778,170.016L85.896,168.84L84.543,173.488L86.866,177.018L82.22,176.782L79.544,179.693L78.132,175.546L74.133,173.723L77.897,171.429ZM164.355,121.087C163.44,121.186 162.531,121.318 161.627,121.483C157.798,122.18 154.359,123.404 151.308,125.155C148.258,126.907 145.707,128.987 143.657,131.397C140.647,134.935 139.214,139.078 138.815,143.262C138.372,147.897 141.539,154.269 144.914,156.697C147.997,158.914 151.164,160.782 155.321,160.235C159.478,159.689 162.603,158.185 164.697,155.724C165.7,154.545 166.037,153.299 165.708,151.986C165.533,151.028 165.228,150.806 164.791,151.318C163.483,152.857 161.389,153.841 158.511,154.271C155.633,154.702 153.83,153.416 151.715,152.327C149.344,151.106 146.438,147.152 147.304,144.289C147.947,142.163 148.578,140.51 150.235,138.562C151.893,136.614 153.983,134.851 156.505,133.273C159.027,131.696 161.913,130.474 165.162,129.608C168.411,128.742 171.726,128.357 175.108,128.452C178.49,128.548 182.012,129.42 185.673,131.067C189.334,132.713 192.696,135.137 195.759,138.337C200.07,142.843 202.186,147.403 202.105,152.016C202.097,152.461 201.976,153.269 201.859,153.952C201.698,153.488 201.388,153.02 200.98,152.595C198.401,149.9 192.361,147.789 187.22,148.373C182.079,148.958 175.272,151.456 166.797,155.869C161.645,158.525 157.086,160.685 153.119,162.35C149.152,164.016 145.945,165.168 143.498,165.807C141.051,166.446 138.929,166.748 137.134,166.711C135.338,166.675 133.988,166.427 133.085,165.967C132.182,165.508 131.327,164.857 130.521,164.014C130.239,163.72 130.086,163.318 130.063,162.809C130.039,162.3 130.007,162.024 129.967,161.982C129.765,161.772 129.42,161.798 128.93,162.06C128.44,162.323 127.933,162.762 127.409,163.377C126.101,164.916 125.345,167.079 125.141,169.869C124.988,171.962 125.335,173.733 126.182,175.18L109.924,179.399L99.925,169.899L105.19,163.989L114.276,164.488L109.747,157.196L112.042,147.785L102.984,150.225L96.424,144.019L96.043,146.373L90.279,137.638L93.918,125.938C107.211,120.704 121.682,117.829 136.819,117.829C146.3,117.829 155.519,118.957 164.355,121.087ZM94.514,161.341L96.985,162.165L98.159,168.871L95.955,167.105L95.131,178.694L90.337,172.399L94.514,161.341ZM83.074,163.666L76.485,157.665L83.337,148.607L95.69,149.489L95.338,154.195L88.573,158.167L92.865,160.636L83.074,163.666ZM106.1,159.665L103.07,159.548L101.308,161.429L100.396,158.724L97.779,157.519L100.248,156.018L100.544,153.43L102.778,155.108L105.455,154.343L104.571,157.371L106.1,159.665ZM75.665,135.043C76.512,134.523 77.364,134.016 78.223,133.519L79.749,134.667L84.19,133.374L82.72,138.431L85.251,142.255L80.22,142.02L77.309,145.137L75.78,140.668L71.456,138.668L75.543,136.168L75.665,135.043ZM153.862,80.436L179.889,104.287L180.419,105.288L180.29,105.606L180.195,106.039L180.189,106.092C174.413,104.148 168.461,102.581 162.366,101.421L161.821,100.432L161.261,99.409L160.126,97.318C160.038,97.141 159.95,96.995 159.89,96.847C157.125,91.759 155.303,86.083 153.862,80.436ZM126.011,79.759C123.982,85.819 121.482,91.818 117.923,97.024L117.894,97.024C117.835,97.141 117.775,97.229 117.687,97.318C117.658,97.406 117.57,97.523 117.452,97.671L117.042,98.249L116.246,99.381L115.61,100.266L115.274,100.721C108.993,101.722 102.856,103.153 96.893,104.984L96.631,104.2L98.278,101.641L126.011,79.759ZM140.465,49.848L140.627,49.852C142.334,49.909 143.98,50.645 145.127,51.938C146.303,53.174 146.951,54.849 146.862,56.556C146.803,58.291 146.038,59.908 144.803,61.086C143.509,62.26 141.863,62.879 140.128,62.819C138.421,62.762 136.775,62.026 135.628,60.733C134.452,59.497 133.804,57.82 133.864,56.115C133.952,54.35 134.717,52.763 135.95,51.587C137.096,50.519 138.581,49.913 140.141,49.852L140.465,49.848ZM212.533,14.49L212.739,14.493C220.061,14.64 222.354,22.1 218.297,30.998C205.399,42.147 189.145,48.573 172.115,49.219L171.713,49.233C178.065,33.087 191.329,20.618 207.857,15.296C209.586,14.744 211.148,14.488 212.533,14.49ZM70.673,9.257C72.254,9.253 74.061,9.626 76.074,10.442C92.16,16.971 104.454,30.352 109.63,46.91C92.543,45.117 76.633,37.47 64.545,25.293C61.224,16.382 63.823,9.274 70.673,9.257Z" style="fill:none;stroke:rgb(255,0,0);stroke-width:1px;"/>
</svg>
