<?xml version="1.0" encoding="UTF-8" standalone="no"?>
<!DOCTYPE svg PUBLIC "-//W3C//DTD SVG 1.1//EN" "http://www.w3.org/Graphics/SVG/1.1/DTD/svg11.dtd">
<svg width="100%" height="100%" viewBox="0 0 1123 794" version="1.1" xmlns="http://www.w3.org/2000/svg" xmlns:xlink="http://www.w3.org/1999/xlink" xml:space="preserve" xmlns:serif="http://www.serif.com/" style="fill-rule:evenodd;clip-rule:evenodd;stroke-linejoin:round;stroke-miterlimit:2;">
    <path d="M144.768,40.265C146.525,40.302 148.11,40.912 149.422,41.91C150.863,43.057 151.891,44.704 152.273,46.587C152.802,46.587 182.859,16.178 188.975,12.177C194.836,8.337 202.831,5.966 211.003,5.93C211.404,5.929 211.807,5.932 212.21,5.942C221.975,6.413 230.502,10.413 234.032,19.412C239.942,32.998 232.913,47.381 232.854,60.821C232.825,76.702 247.707,93.348 235.179,108.435C229.972,113.729 222.856,118.846 215.857,121.903L215.797,121.903L214.909,122.185L213.44,122.66C235.271,137.575 252.544,158.68 262.718,183.428L263.146,184.482L263.635,185.717L264.183,187.147L264.715,188.58L264.956,189.247L265.465,190.694L265.958,192.147L266.475,193.735L266.941,195.223L267.39,196.719L267.822,198.222L268.318,200.033L268.765,201.757L269.14,203.283L269.499,204.816L269.84,206.356L270.097,207.582L270.267,208.418L270.567,209.973L270.849,211.533L271.113,213.1L271.309,214.338L271.419,215.073L271.66,216.779L271.864,218.366L272.05,219.958L272.182,221.204L272.257,221.958L272.366,223.158L272.397,223.517L272.519,225.075L272.624,226.63L272.71,228.177L272.746,228.945L272.807,230.524L272.85,232.102C272.861,232.627 272.87,233.152 272.875,233.676L272.882,235.204L272.88,235.812C272.877,236.27 272.873,236.727 272.866,237.183L272.845,238.277C272.836,238.637 272.827,238.997 272.816,239.357L272.77,240.666L272.707,242.056L272.66,242.916C272.616,243.693 272.566,244.469 272.509,245.242L272.378,246.891L272.235,248.448L272.115,249.632L271.964,250.996L271.773,252.558L271.607,253.813L271.429,255.064L271.176,256.717L270.983,257.897L270.743,259.275L270.405,261.091L270.108,262.584L269.863,263.752L269.428,265.714L269.074,267.212L268.795,268.344L268.42,269.801L268.042,271.21L267.725,272.344L267.361,273.601L266.892,275.16L266.363,276.838L265.822,278.487L265.452,279.56L265.025,280.738L264.863,281.178C264.752,281.514 264.639,281.848 264.5,282.186C263.205,285.714 261.764,289.155 260.177,292.537C259.764,293.448 259.353,294.331 258.911,295.213C258.206,296.654 257.441,298.096 256.707,299.508C256.647,299.565 256.619,299.654 256.588,299.713C255.177,302.329 253.677,304.919 252.09,307.419L251.385,308.513L250.98,309.103L250.316,310.136L249.767,310.943L249.354,311.546L249.354,311.565C249.088,312.005 248.794,312.416 248.472,312.829C247.32,314.5 246.13,316.138 244.904,317.745L244.816,317.86C243.221,319.948 241.565,321.984 239.854,323.976L239.073,324.871L238.079,325.991L237.478,326.655L236.874,327.314L236.265,327.97L235.652,328.622L235.034,329.27L234.413,329.913L233.787,330.553L233.157,331.188L232.523,331.819L231.885,332.446L231.243,333.069L230.597,333.688L229.946,334.303L229.292,334.913L228.634,335.519L227.305,336.718L225.961,337.9L224.601,339.064L223.226,340.21L221.835,341.339L220.43,342.45L219.251,343.358L218.294,344.082L217.12,344.95L216.125,345.672L214.957,346.501L213.924,347.22L212.763,348.011L211.691,348.725L210.538,349.478L209.428,350.187L208.283,350.903L207.134,351.605L205.999,352.284L204.81,352.979L203.686,353.621L202.128,354.488L200.557,355.336L199.718,355.777L198.921,356.19L198.122,356.597L197.319,356.999L196.514,357.396L195.706,357.788L194.894,358.175L194.08,358.556L193.263,358.932L192.443,359.303L191.621,359.668L190.795,360.029L189.967,360.383L189.136,360.733L188.303,361.077L187.466,361.416L186.627,361.749L185.472,362.197L184.208,362.674L183.508,362.932C175.658,365.798 167.471,367.962 159.021,369.348L157.605,369.572L156.197,369.781L154.318,370.035L152.436,370.263L150.549,370.465L148.516,370.653L146.646,370.8L144.654,370.927L142.787,371.02L140.923,371.087L139.53,371.121L138.144,371.142L136.819,371.148L135.472,371.141L135.01,371.136L133.308,371.103L132.116,371.068L131.571,371.048C131.011,371.027 130.452,371.002 129.893,370.974L128.91,370.921L128.07,370.87L126.787,370.783L125.344,370.67L124.595,370.605L123.757,370.528L122.78,370.431L121.461,370.29L119.917,370.108L119.147,370.01L118.622,369.94C61.059,362.253 14.891,318.582 3.474,262.277L3.239,261.09L2.955,259.579L2.689,258.062L2.439,256.54L2.206,255.012L1.989,253.478L1.79,251.939L1.609,250.395L1.444,248.846L1.295,247.267L1.199,246.139L1.071,244.412L1.03,243.782L0.93,242.013L0.887,241.098L0.867,240.61L0.814,239.101L0.782,237.765L0.762,236.427L0.756,235.069L0.761,233.92L0.78,232.504L0.814,231.055L0.874,229.343L0.941,227.924L1.04,226.215L1.16,224.51L1.339,222.399L1.503,220.733L1.754,218.52L1.965,216.867L2.116,215.769L2.36,214.126L2.623,212.491L2.832,211.276L3.004,210.32L3.25,209.022L3.391,208.305L3.7,206.805L3.847,206.115L4.228,204.413L4.525,203.156L4.699,202.441L5.07,200.971L5.248,200.286L5.705,198.602L6.047,197.393L6.255,196.679L6.685,195.245L7.142,193.78L7.652,192.213L8.179,190.657L8.724,189.112L9.286,187.576L9.865,186.051L10.462,184.535L11.076,183.028L11.589,181.809L12.228,180.334L12.884,178.867L13.557,177.41L14.247,175.963L14.953,174.524L15.675,173.096L16.414,171.677L17.169,170.268L17.681,169.334L18.2,168.404L18.727,167.479L19.26,166.559L19.8,165.643L20.347,164.732L20.901,163.825L21.462,162.923L21.995,162.081C24.011,158.918 26.155,155.843 28.418,152.865L29.105,151.969L30.119,150.673L31.137,149.404L32.163,148.156L33.2,146.924L34.249,145.708L35.309,144.506L36.64,143.037L37.833,141.756L39.206,140.322L40.549,138.958L41.845,137.678L43.198,136.376L44.743,134.932L46.31,133.513L47.5,132.464L48.702,131.429L49.916,130.407L51.142,129.4L52.38,128.406L53.63,127.427L54.892,126.462L56.165,125.511L57.449,124.575L58.745,123.654L60.052,122.747L61.369,121.855L62.698,120.978L64.037,120.117L64.936,119.551L65.84,118.992C65.398,118.817 65.044,118.669 64.75,118.492L64.722,118.492C55.281,115.374 48.341,108.758 41.958,101.287C30.577,85.318 46.666,69.791 47.751,53.967C48.723,40.557 42.782,25.706 49.694,12.56C53.84,3.853 62.664,0.531 72.427,0.768C81.014,1.208 89.338,4.267 95.161,8.707C107.57,18.236 119.159,31.999 128.776,45.146C128.776,44.116 130.394,42.292 132.157,41.293C133.276,40.617 134.598,40.263 136.01,40.263L144.597,40.263L144.768,40.265ZM233.106,301.981L233,302.134C230.483,303.681 227.993,305.253 225.474,306.802C223.721,307.892 224.466,310.555 226.475,310.623C225.699,311.543 224.907,312.453 224.102,313.349L223.767,313.36C222.62,313.389 221.681,314.328 221.65,315.475C221.645,315.641 221.659,315.803 221.69,315.957C200.328,338.368 170.192,352.34 136.819,352.34C129.603,352.34 122.539,351.687 115.679,350.436L134.186,327.506L164.772,329.681L159.508,320.888L165.184,312.093L175.802,312.975L170.243,303.566L173.565,295.625L181.093,299.3L186.535,320.035L200.475,303.418L218.297,304.448C218.326,304.8 218.445,305.153 218.65,305.447C219.327,306.417 220.62,306.683 221.621,306.066C224.267,304.448 226.915,302.799 229.591,301.155C230.762,301.438 231.935,301.697 233.106,301.981ZM107.895,341.033L113.364,348.678L110.159,337.003L107.895,341.033ZM104.571,345.769L100.63,345.592L99.878,346.393C99.065,346.123 98.255,345.844 97.449,345.556L97.102,344.532L93.718,342.975L96.925,341.004L97.306,337.591L100.219,339.797L103.749,338.798L102.571,342.768L104.571,345.769ZM85.131,273.303L79.354,270.4L80.178,272.648C80.193,272.692 80.209,272.736 80.222,272.78C81.181,275.96 79.411,279.432 76.27,280.531C74.342,281.206 72.35,280.866 70.84,279.792C71.014,281.638 70.315,283.537 68.77,284.872C67.596,285.888 66.126,286.394 64.662,286.394C62.977,286.394 61.301,285.725 60.085,284.426C60.052,284.392 60.022,284.357 59.993,284.321L57.193,280.956L57.193,288.369C57.193,291.684 54.444,294.418 50.997,294.418C47.547,294.418 44.798,291.684 44.798,288.369L44.798,280.956L41.998,284.321C41.969,284.357 41.939,284.392 41.906,284.426C39.633,286.853 35.746,287.057 33.221,284.874L33.221,284.872C31.676,283.537 30.977,281.638 31.152,279.792C30.457,280.285 29.66,280.624 28.814,280.779C39.992,307.142 60.547,328.582 86.29,340.908L91.19,337.739L92.396,325.651L101.189,333.062L108.66,330.739L105.749,320.828L76.779,308.771L84.691,302.624L82.543,295.744L74.367,291.949L81.926,286.273L82.749,277.684L87.308,281.333L85.131,273.303ZM117.923,310.182L108.954,306.066L117.395,300.861L118.423,291.83L126.187,297.713L135.451,295.037L132.392,305.535L137.657,313.475L127.187,312.975L121.099,319.533L117.923,310.182ZM158.478,319.476L151.155,307.801L156.126,310.066L158.478,319.476ZM156.891,305.007L159.832,303.212L160.184,300.067L162.889,302.125L166.096,301.183L165.036,304.83L166.861,307.595L163.243,307.419L161.125,309.711L160.007,306.448L156.891,305.007ZM169.832,294.508L163.95,296.566L155.684,289.92L154.539,300.772L148.686,303.77L158.714,273.038L151.862,274.421L157.803,267.421L179.124,269.362L177.948,279.302L160.979,290.508L169.832,294.508ZM223.767,299.771C222.62,300.476 221.444,301.212 220.268,301.948L218.827,299.713C219.267,299.448 219.709,299.183 220.151,298.889C221.356,299.183 222.561,299.477 223.767,299.771ZM91.073,297.625L88.014,301.654L94.543,297.832L91.073,297.625ZM242.184,286.113C241.216,286.365 240.281,286.567 239.38,286.72C237.083,287.11 235.212,287.238 233.766,287.115C232.29,286.989 230.882,286.632 229.541,286.046C228.195,285.457 227.211,284.9 226.58,284.387C225.963,283.885 225.283,283.238 224.542,282.446C222.553,280.318 221.769,277.874 222.18,275.12C222.403,273.621 222.891,272.147 223.645,270.698C223.565,270.72 223.485,270.741 223.406,270.762C221.283,271.325 219.558,271.568 218.231,271.505C217.166,271.455 216.306,271.308 215.648,271.078L210.092,286.304L214.679,293.332C214.886,293.39 215.092,293.448 215.297,293.478C215.003,293.008 214.709,292.537 214.444,292.068C213.827,291.067 214.15,289.772 215.209,289.213C216.208,288.655 217.503,289.009 218.12,289.979C219.121,291.624 220.12,293.244 221.091,294.862C222.326,295.154 223.533,295.448 224.738,295.744C223.798,294.214 222.885,292.712 221.975,291.213C221.356,290.183 221.681,288.89 222.737,288.331C223.738,287.802 225.032,288.125 225.65,289.124C227.268,291.772 228.915,294.449 230.531,297.123C231.737,297.39 232.973,297.682 234.178,297.978C232.591,295.39 231.002,292.802 229.414,290.214C228.325,288.419 230.296,286.304 232.178,287.303C234.692,288.656 237.18,290.008 239.692,291.362L239.958,290.875C239.985,290.668 240.969,288.631 242.184,286.113ZM202.504,293.509L195.447,293.184L191.358,297.567L189.212,291.301L183.182,288.507L188.858,285.008L189.565,278.948L194.77,282.891L201.006,281.098L198.946,288.154L202.504,293.509ZM92.631,293.39L89.278,293.213L87.308,295.331L86.279,292.331L83.396,291.007L86.132,289.332L86.455,286.419L88.926,288.302L91.926,287.449L90.927,290.83L92.631,293.39ZM95.661,275.126L103.66,275.774L102.836,292.331L98.924,294.566L95.807,289.772L98.543,281.596L89.338,283.271L95.661,275.126ZM246.773,276.104C246.102,276.285 245.389,276.396 244.634,276.436C241.998,276.577 239.534,276.14 237.242,275.128C235.186,274.22 233.452,273.134 232.037,271.874C231.515,272.336 231.04,272.825 230.61,273.341C229.71,274.424 229.136,275.491 228.906,276.55C228.706,277.47 228.912,278.265 229.535,278.931C230.055,279.488 230.714,279.993 231.507,280.45C232.325,280.922 233.417,281.352 234.78,281.745C236.138,282.138 237.839,282.229 239.881,282.036C241.373,281.895 242.943,281.579 244.59,281.091C245.645,278.854 246.53,276.9 246.773,276.104ZM98.806,255.804L106.454,245.776L120.717,247.071L112.218,252.716L135.51,262.245L139.303,278.155L128.657,280.979L104.542,260.512L103.66,269.596L100.984,266.009L104.69,255.07L98.806,255.804ZM33.617,275.518L35.978,260.906L44.798,256.088L45.284,265.759L33.617,275.518ZM68.374,275.516L56.423,266.816L57.193,256.088L66.785,261.932L68.374,275.516ZM247.719,267.313C247.762,267.359 247.8,267.399 247.808,267.447C247.747,267.828 247.504,268.168 247.118,268.495C246.615,268.923 245.886,269.309 244.94,269.668C244.937,269.669 244.934,269.67 244.932,269.671C241.941,270.853 238.886,270.686 235.766,269.195C238.037,267.919 240.341,267.07 242.678,266.653C243.975,266.422 245.064,266.367 245.946,266.501C246.715,266.619 247.312,266.877 247.719,267.313ZM189.831,244.72L189.181,246.452L193.977,254.57L184.8,253.892L181.418,258.158L196.505,270.363L211.572,267.121C211.227,266.332 211.077,265.5 211.118,264.626C211.189,263.087 211.648,261.633 212.498,260.266C213.296,258.982 214.142,257.749 215.036,256.566C215.877,255.452 216.503,254.399 216.909,253.403C217.206,252.673 217.232,252.091 216.851,251.666L204.112,258.266C204.107,258.269 204.101,258.272 204.096,258.274C203.479,258.573 202.983,258.462 202.594,258.045L198.852,254.043C198.605,253.778 198.509,253.45 198.608,253.049C198.687,252.732 198.863,252.481 199.14,252.296C199.161,252.282 199.182,252.269 199.204,252.258L200.278,251.701C198.956,251.548 197.69,251.205 196.478,250.675C195.133,250.087 194.149,249.53 193.518,249.017C192.9,248.515 192.221,247.868 191.48,247.076C190.782,246.329 190.232,245.544 189.831,244.72ZM95.955,263.598L93.726,264.232C94.485,265.959 94.443,268.037 93.413,269.845L96.72,269.979L94.896,267.246L95.955,263.598ZM126.382,144.603C124.803,145.504 123.219,146.394 121.63,147.275C118.279,149.132 115.101,150.71 112.095,152.009C111.69,152.185 111.288,152.349 110.891,152.503L109.747,157.196L114.276,164.488L105.19,163.989L99.925,169.899L109.924,179.399L127.004,174.966C126.995,174.46 127.03,173.941 127.108,173.412C127.505,170.753 128.733,168.17 130.811,165.669C132.731,163.359 135.218,161.535 138.274,160.202C141.334,158.869 144.426,158.326 147.548,158.568C150.748,158.816 153.285,159.962 155.172,161.98C156.621,163.531 157.442,165.118 157.666,166.725C157.898,168.389 157.392,170 156.108,171.545C154.469,173.517 152.289,174.582 149.562,174.728C146.927,174.869 144.463,174.432 142.171,173.42C140.115,172.512 138.381,171.426 136.966,170.166C136.444,170.628 135.968,171.117 135.539,171.633C134.639,172.716 134.065,173.783 133.835,174.842C133.635,175.762 133.841,176.557 134.464,177.223C134.984,177.78 135.642,178.285 136.436,178.742C137.254,179.214 138.346,179.644 139.708,180.037C141.067,180.43 142.767,180.521 144.809,180.328C146.573,180.162 148.446,179.751 150.427,179.099C152.555,177.885 155.675,176.201 159.786,174.047L158.607,172.786C158.359,172.521 158.263,172.193 158.363,171.792C158.457,171.413 158.662,171.186 158.906,171.063L161.494,169.662C162.089,169.373 162.605,169.472 163.043,169.941L164.568,171.573C166.737,170.445 170.521,168.482 175.919,165.683C176.218,165.519 176.496,165.465 176.745,165.488C177.038,165.514 177.308,165.64 177.541,165.89L181.236,169.842C181.457,170.079 181.569,170.389 181.517,170.787C181.462,171.209 181.239,171.498 180.848,171.646C175.922,174.229 172.292,176.127 169.957,177.338L171.835,179.347C172.082,179.611 172.178,179.939 172.079,180.34C172,180.657 171.824,180.909 171.547,181.094C171.528,181.106 171.508,181.118 171.488,181.129L168.948,182.47C168.353,182.759 167.837,182.66 167.398,182.191L165.174,179.811C158.534,183.315 154.287,185.627 152.434,186.751C150.612,187.855 149.259,188.927 148.385,189.979C148.06,190.369 147.9,190.677 148.15,190.944C148.46,191.276 148.947,191.486 149.59,191.616C150.348,191.769 151.303,191.798 152.454,191.713C154.668,191.549 157.457,190.893 160.821,189.757C163.466,188.256 167.422,186.134 172.689,183.391C172.695,183.388 172.701,183.385 172.706,183.383C173.207,183.14 173.651,183.171 174.04,183.466C174.283,182.816 174.721,182.206 175.364,181.642C176.335,180.791 177.474,180.292 178.783,180.146C180.139,179.994 181.27,180.269 182.185,180.936C183.163,181.649 183.637,182.593 183.617,183.761C183.597,184.878 183.094,185.899 182.064,186.802C181.093,187.653 179.954,188.153 178.645,188.299C178.521,188.313 178.399,188.323 178.279,188.33C178.282,188.433 178.269,188.542 178.241,188.658C178.162,188.974 177.986,189.226 177.709,189.411C177.689,189.425 177.667,189.438 177.646,189.449C169.797,193.522 164.735,196.254 162.462,197.647C160.266,198.992 158.754,200.144 157.941,201.122C157.803,201.288 157.697,201.444 157.63,201.592C157.553,201.764 157.544,201.914 157.659,202.037C157.782,202.169 158.024,202.211 158.354,202.252C159.113,202.348 160.228,202.279 161.699,202.062C164.249,201.687 167.381,200.834 171.096,199.51C171.144,199.493 171.195,199.481 171.246,199.476C171.62,199.434 171.861,199.569 172.011,199.729C172.158,199.886 172.272,200.124 172.218,200.457C172.208,200.698 172.176,201.157 172.121,201.834L172.037,202.884C172.011,203.431 171.746,203.741 171.342,203.882C168.142,205.092 165.491,205.981 163.387,206.55C161.203,207.141 159.435,207.366 158.087,207.247C156.683,207.123 155.639,206.865 154.948,206.501C154.259,206.139 153.521,205.547 152.743,204.714C152.161,204.091 151.742,203.377 151.492,202.569L150.596,205.25L155.861,214.22L145.892,213.72L140.422,219.337L153.743,230.337L177.446,224.453L168.771,246.775L175.154,243.424L175.802,234.426L183.007,240.159L189.396,238.384C189.663,237.354 190.059,236.335 190.583,235.328L190.343,235.392C188.221,235.955 186.495,236.198 185.169,236.135C183.768,236.069 182.722,235.835 182.024,235.468C181.337,235.106 180.583,234.498 179.773,233.631C178.546,232.319 177.982,230.858 178.056,229.256C178.127,227.717 178.585,226.263 179.436,224.896C180.234,223.612 181.08,222.379 181.974,221.196C182.815,220.082 183.441,219.028 183.846,218.033C184.145,217.301 184.17,216.717 183.789,216.296L171.05,222.896C171.044,222.899 171.039,222.901 171.034,222.904C170.417,223.203 169.921,223.092 169.531,222.675L165.79,218.672C165.543,218.408 165.447,218.08 165.546,217.679C165.625,217.362 165.801,217.11 166.078,216.925C166.099,216.912 166.12,216.899 166.142,216.888L207.731,195.333C207.737,195.33 207.742,195.328 207.747,195.325C208.342,195.037 208.858,195.135 209.297,195.605L212.991,199.557C213.235,199.818 213.326,200.121 213.272,200.463C213.223,200.769 213.062,201.037 212.754,201.243C212.733,201.257 212.713,201.269 212.691,201.28L195.944,209.986C198.481,210.378 200.512,211.406 202.045,213.046C203.233,214.317 203.815,215.711 203.817,217.218C203.819,218.719 203.316,220.082 202.299,221.306C200.966,222.91 199.073,223.759 196.605,223.812C194.469,223.859 192.154,223.056 189.675,221.365C189.452,222.107 189.095,222.918 188.599,223.796C187.895,225.04 187.222,226.102 186.581,226.982C185.997,227.784 185.568,228.593 185.299,229.411C185.102,230.012 185.126,230.502 185.468,230.867C185.817,231.241 186.504,231.329 187.492,231.287C189.308,231.21 191.993,230.557 195.549,229.346C196.937,228.247 198.514,227.311 200.283,226.54C203.343,225.207 206.435,224.663 209.557,224.906C212.757,225.154 215.295,226.3 217.181,228.318C218.63,229.868 219.451,231.455 219.675,233.063C219.907,234.727 219.401,236.338 218.117,237.883C216.478,239.855 214.298,240.92 211.571,241.066C208.936,241.207 206.472,240.769 204.18,239.758C202.124,238.85 200.39,237.764 198.975,236.504C198.453,236.966 197.977,237.455 197.548,237.971C196.648,239.054 196.074,240.121 195.844,241.18C195.644,242.1 195.85,242.895 196.473,243.561C196.993,244.118 197.651,244.622 198.445,245.08C199.263,245.552 200.355,245.981 201.717,246.375C203.076,246.768 204.777,246.859 206.818,246.666C208.526,246.505 210.336,246.114 212.249,245.497L240.794,230.703C240.799,230.701 240.804,230.698 240.809,230.695C241.405,230.407 241.92,230.505 242.359,230.975L246.053,234.927C246.297,235.188 246.388,235.491 246.334,235.833C246.285,236.139 246.124,236.407 245.816,236.613C245.796,236.627 245.775,236.639 245.753,236.65L229.006,245.356C231.543,245.748 233.574,246.776 235.107,248.416C236.295,249.687 236.877,251.082 236.879,252.588C236.881,254.089 236.378,255.452 235.361,256.676C234.028,258.281 232.135,259.129 229.667,259.182C227.531,259.229 225.216,258.426 222.738,256.735C222.515,257.477 222.157,258.288 221.661,259.166C220.957,260.411 220.285,261.472 219.643,262.353C219.059,263.154 218.631,263.963 218.362,264.781C218.164,265.382 218.188,265.872 218.53,266.237C218.879,266.611 219.566,266.699 220.554,266.657C222.37,266.58 225.055,265.927 228.611,264.717C229.999,263.617 231.577,262.681 233.346,261.91C236.405,260.577 239.497,260.034 242.619,260.276C245.819,260.524 248.357,261.67 250.243,263.688C250.326,263.777 250.407,263.867 250.487,263.956C252.829,254.721 254.074,245.047 254.074,235.085C254.074,176.311 210.738,127.578 154.312,119.128C158.01,123.511 160.19,128.304 160.863,133.502C161.615,139.306 160.155,144.413 156.489,148.825C153.864,151.983 150.811,154.046 147.34,155.026C143.858,156.009 140.464,155.945 137.156,154.84C133.872,153.742 130.973,151.853 128.462,149.166C127.339,147.965 125.786,146.168 126.382,144.603ZM169.743,249.334L176.007,252.188L179.241,263.569L169.743,249.334ZM137.657,250.424L144.568,246.216L145.391,238.864L151.685,243.658L159.242,241.481L156.745,250.011L161.037,256.48L152.508,256.069L147.568,261.394L144.979,253.804L137.657,250.424ZM93.065,254.373C92.686,254.936 92.218,255.437 91.68,255.854L93.838,257.628L93.065,254.373ZM230.351,250.689C230.496,250.844 230.589,250.995 230.588,251.161C230.586,251.352 230.476,251.539 230.306,251.743C230.032,252.073 229.601,252.287 229.033,252.422C228.353,252.583 227.496,252.621 226.464,252.549C224.381,252.402 222.412,251.622 220.553,250.22C220.55,250.218 220.254,249.901 220.254,249.901L220.468,249.791C223.615,249.256 226.09,249.156 227.892,249.514C228.983,249.73 229.809,250.109 230.351,250.689ZM177.771,247.63L179.977,246.275L180.242,243.924L182.271,245.453L184.683,244.775L183.889,247.511L185.242,249.569L182.534,249.452L180.947,251.158L180.094,248.718L177.771,247.63ZM19.892,243.913L30.396,239.854L39.892,245.33L30.696,251.158L20.154,246.913C20.055,245.921 19.967,244.919 19.892,243.913ZM85.767,245.33L71.954,250.362L62.099,245.33L72.204,240.111L85.767,245.33ZM90.909,245.299L90.892,245.226C90.821,245.263 90.748,245.297 90.675,245.33C90.767,245.374 90.859,245.418 90.949,245.466L90.909,245.299ZM136.951,215.603L134.158,214.25L133.128,238.953L124.099,244.982L114.747,230.777L121.159,213.484L107.513,216.397L113.805,208.336L131.216,209.631L135.804,211.22L136.951,215.603ZM108.423,237.6L102.159,237.308L98.513,241.218L96.601,235.629L91.221,233.158L96.278,230.041L96.897,224.63L101.543,228.16L107.101,226.542L105.276,232.835L108.423,237.6ZM214.657,231.943C214.7,231.989 214.738,232.029 214.746,232.077C214.685,232.458 214.442,232.798 214.056,233.125C213.552,233.553 212.824,233.939 211.878,234.297C211.875,234.298 211.872,234.3 211.869,234.301C208.879,235.483 205.824,235.316 202.704,233.824C204.975,232.548 207.279,231.7 209.616,231.283C210.913,231.052 212.002,230.997 212.884,231.131C213.653,231.249 214.249,231.507 214.657,231.943ZM33.617,215.144L45.803,224.221L44.798,234.574L35.216,230.049L33.617,215.144ZM68.374,215.144L65.894,229.603L57.193,234.572L57.247,224.607L68.374,215.144ZM81.367,214.368L80.453,215.505C80.529,216.287 80.46,217.092 80.222,217.88C80.209,217.926 80.195,217.97 80.178,218.015L78.666,222.142L85.066,218.437C86.073,217.855 87.185,217.602 88.282,217.649L88.425,215.19L81.367,214.368ZM64.079,143.141L70.546,145.608L72.309,151.812L72.104,167.459L61.28,174.605L73.22,179.604L77.192,191.927L84.455,182.341L94.748,183.163L94.574,185.811L78.604,196.25L83.984,199.367L80.191,200.339L72.897,194.369L71.956,203.573L68.783,205.8L68.77,205.788C66.245,203.605 62.358,203.809 60.085,206.234C60.052,206.269 60.022,206.305 59.993,206.34L57.193,209.706L57.193,202.293C57.193,198.979 54.444,196.242 50.997,196.242C47.547,196.242 44.798,198.979 44.798,202.293L44.798,209.706L41.998,206.34C41.969,206.305 41.939,206.269 41.906,206.234C39.633,203.809 35.746,203.605 33.221,205.788C31.676,207.124 30.977,209.024 31.152,210.871C29.641,209.796 27.649,209.456 25.722,210.131C22.578,211.23 20.81,214.7 21.769,217.88C21.783,217.926 21.796,217.97 21.813,218.015L23.325,222.142L20.466,220.486C24.353,189.233 40.563,161.778 64.079,143.141ZM197.289,215.319C197.434,215.474 197.527,215.624 197.525,215.791C197.524,215.982 197.414,216.169 197.244,216.373C196.97,216.703 196.539,216.917 195.971,217.051C195.291,217.213 194.434,217.251 193.402,217.179C191.319,217.032 189.35,216.252 187.491,214.85C187.488,214.848 187.192,214.531 187.192,214.531L187.406,214.42C190.553,213.886 193.028,213.786 194.83,214.143C195.921,214.36 196.747,214.738 197.289,215.319ZM85.514,207.014L88.102,200.839L96.601,204.074L99.043,213.808L89.278,205.925L89.132,206.044L88.308,210.955L85.514,207.014ZM82.514,210.544L80.985,208.221L81.867,205.193L79.19,205.955L76.956,204.28L76.662,206.868L74.192,208.398L76.81,209.574L77.123,210.504C77.62,210.767 78.073,211.095 78.475,211.475L79.486,210.398L82.514,210.544ZM146.862,208.692L143.215,208.544L141.127,210.807L140.01,207.573L136.892,206.132L139.834,204.309L140.185,201.192L142.862,203.219L146.098,202.31L145.039,205.955L146.862,208.692ZM127.518,177.678L122.306,192.398L129.863,203.515L134.01,201.427L135.422,189.809L143.481,197.28L146.192,196.519C145.814,196.392 145.483,196.246 145.199,196.083C144.455,195.656 143.647,194.983 142.782,194.058C141.693,192.893 141.221,191.34 141.416,189.387C141.568,187.876 142.062,186.488 142.902,185.225C141.236,185.445 139.833,185.504 138.695,185.407C137.219,185.281 135.81,184.924 134.469,184.338C133.124,183.749 132.14,183.192 131.509,182.679C130.891,182.177 130.211,181.53 129.47,180.738C128.577,179.781 127.926,178.761 127.518,177.678ZM103.629,192.104L104.248,186.693L108.894,190.222L114.453,188.605L112.601,194.897L115.777,199.663L109.482,199.367L105.835,203.281L103.923,197.691L98.543,195.22L103.629,192.104ZM172.031,202.938L172.036,202.888C172.034,202.92 172.029,202.952 172.022,202.983L172.031,202.938ZM77.897,171.429L78.337,167.43L81.778,170.016L85.896,168.84L84.543,173.488L86.866,177.018L82.22,176.782L79.544,179.693L78.132,175.546L74.133,173.723L77.897,171.429ZM94.514,161.341L96.985,162.165L98.159,168.871L95.955,167.105L95.131,178.694L90.337,172.399L94.514,161.341ZM152.648,165.605C152.691,165.651 152.729,165.691 152.736,165.739C152.676,166.12 152.433,166.46 152.047,166.787C151.543,167.215 150.815,167.601 149.869,167.96C149.866,167.961 149.863,167.962 149.86,167.963C146.87,169.145 143.815,168.978 140.694,167.487C142.966,166.211 145.27,165.362 147.607,164.945C148.904,164.714 149.993,164.659 150.875,164.793C151.644,164.911 152.24,165.169 152.648,165.605ZM83.074,163.666L76.485,157.665L83.337,148.607L95.69,149.489L95.338,154.195L88.573,158.167L92.865,160.636L83.074,163.666ZM100.495,153.855L100.248,156.018L97.779,157.519L100.396,158.724L101.308,161.429L103.07,159.548L106.1,159.665L104.571,157.371L105.455,154.343L102.778,155.108L101.37,154.05C101.068,154 100.777,153.935 100.495,153.855ZM75.665,135.043C76.512,134.523 77.364,134.016 78.223,133.519L79.749,134.667L84.19,133.374L82.72,138.431L85.251,142.255L80.22,142.02L77.309,145.137L75.78,140.668L71.456,138.668L75.543,136.168L75.665,135.043ZM153.862,80.436L179.889,104.287L180.419,105.288L180.29,105.606L180.195,106.039L180.189,106.092C174.413,104.148 168.461,102.581 162.366,101.421L161.821,100.432L161.261,99.409L160.126,97.318C160.038,97.141 159.95,96.995 159.89,96.847C157.125,91.759 155.303,86.083 153.862,80.436ZM126.011,79.759C123.982,85.819 121.482,91.818 117.923,97.024L117.894,97.024C117.835,97.141 117.775,97.229 117.687,97.318C117.658,97.406 117.57,97.523 117.452,97.671L117.042,98.249L116.246,99.381L115.61,100.266L115.274,100.721C108.993,101.722 102.856,103.153 96.893,104.984L96.631,104.2L98.278,101.641L126.011,79.759ZM140.465,49.848L140.627,49.852C142.334,49.909 143.98,50.645 145.127,51.938C146.303,53.174 146.951,54.849 146.862,56.556C146.803,58.291 146.038,59.908 144.803,61.086C143.509,62.26 141.863,62.879 140.128,62.819C138.421,62.762 136.775,62.026 135.628,60.733C134.452,59.497 133.804,57.82 133.864,56.115C133.952,54.35 134.717,52.763 135.95,51.587C137.096,50.519 138.581,49.913 140.141,49.852L140.465,49.848ZM212.533,14.49L212.739,14.493C220.061,14.64 222.354,22.1 218.297,30.998C205.399,42.147 189.145,48.573 172.115,49.219L171.713,49.233C178.065,33.087 191.329,20.618 207.857,15.296C209.586,14.744 211.148,14.488 212.533,14.49ZM70.673,9.257C72.254,9.253 74.061,9.626 76.074,10.442C92.16,16.971 104.454,30.352 109.63,46.91C92.543,45.117 76.633,37.47 64.545,25.293C61.224,16.382 63.823,9.274 70.673,9.257Z" style="fill:none;stroke:rgb(255,0,0);stroke-width:1px;"/>
    <path d="M155.006,132.011C155.066,128.51 153.471,125.063 150.276,121.644C149.05,120.333 147.762,119.19 146.41,118.217C143.247,117.96 140.048,117.829 136.819,117.829C130.651,117.829 124.593,118.307 118.68,119.227C117.686,120.029 116.81,120.884 116.055,121.793C114.863,123.228 114.147,124.627 113.934,126.004C113.739,127.265 114.045,128.338 114.868,129.219C116.001,130.431 117.563,130.857 119.537,130.555C121.569,130.244 123.061,129.561 123.985,128.449C124.347,128.013 124.729,127.954 125.005,128.018C125.178,128.058 125.35,128.152 125.499,128.334C125.634,128.5 125.774,128.803 125.857,129.257C126.157,130.496 125.863,131.677 124.937,132.79C123.22,134.856 120.668,136.139 117.259,136.598C113.812,137.062 110.937,136.057 108.632,133.59C106.745,131.572 105.862,128.733 106.041,125.056C106.096,123.933 106.259,122.843 106.532,121.786C102.226,122.935 98.016,124.325 93.918,125.938L90.279,137.638L95.512,145.567C95.737,143.456 96.367,141.802 97.37,140.595C97.839,140.03 98.299,139.634 98.738,139.393C99.497,138.977 100.036,139.127 100.348,139.461C100.399,139.514 100.477,139.613 100.524,139.786C100.552,139.892 100.584,140.143 100.602,140.54C100.612,140.761 100.658,140.942 100.778,141.07C101.345,141.678 101.946,142.149 102.582,142.481C103.214,142.81 104.163,142.969 105.42,142.995C106.757,143.023 108.336,142.789 110.158,142.301C112.028,141.801 114.478,140.898 117.51,139.595C120.565,138.282 124.077,136.578 128.044,134.485C134.696,130.939 140.044,128.945 144.079,128.475C148.313,127.982 152.882,129.739 155.006,132.011Z" style="fill:none;stroke:rgb(255,0,0);stroke-width:1px;"/>
    <path d="M154.529,135.468C153.196,134.584 150.167,133.652 148.167,133.973C145.948,134.329 143.46,135.204 140.701,136.59C137.882,138.005 134.838,139.675 131.567,141.599C130.936,141.971 130.303,142.341 129.67,142.709C132.691,145.94 136.191,148.703 140.262,148.213C144.388,147.716 148.018,145.558 151.169,141.767C152.822,139.777 153.943,137.679 154.529,135.468Z" style="fill:none;stroke:rgb(255,0,0);stroke-width:1px;"/>
</svg>
