<?xml version="1.0" encoding="UTF-8" standalone="no"?>
<!DOCTYPE svg PUBLIC "-//W3C//DTD SVG 1.1//EN" "http://www.w3.org/Graphics/SVG/1.1/DTD/svg11.dtd">
<svg width="100%" height="100%" viewBox="0 0 1123 794" version="1.1" xmlns="http://www.w3.org/2000/svg" xmlns:xlink="http://www.w3.org/1999/xlink" xml:space="preserve" xmlns:serif="http://www.serif.com/" style="fill-rule:evenodd;clip-rule:evenodd;stroke-linejoin:round;stroke-miterlimit:2;">
    <path d="M144.768,40.265C146.525,40.302 148.11,40.912 149.422,41.91C150.863,43.057 151.891,44.704 152.273,46.587C152.802,46.587 182.859,16.178 188.975,12.177C194.836,8.337 202.831,5.966 211.003,5.93C211.404,5.929 211.807,5.932 212.21,5.942C221.975,6.413 230.502,10.413 234.032,19.412C239.942,32.998 232.913,47.381 232.854,60.821C232.825,76.702 247.707,93.348 235.179,108.435C229.972,113.729 222.856,118.846 215.857,121.903L215.797,121.903L214.909,122.185L213.44,122.66C235.271,137.575 252.544,158.68 262.718,183.428L263.146,184.482L263.635,185.717L264.183,187.147L264.715,188.58L264.956,189.247L265.465,190.694L265.958,192.147L266.475,193.735L266.941,195.223L267.39,196.719L267.822,198.222L268.318,200.033L268.765,201.757L269.14,203.283L269.499,204.816L269.84,206.356L270.097,207.582L270.267,208.418L270.567,209.973L270.849,211.533L271.113,213.1L271.309,214.338L271.419,215.073L271.66,216.779L271.864,218.366L272.05,219.958L272.182,221.204L272.257,221.958L272.366,223.158L272.397,223.517L272.519,225.075L272.624,226.63L272.71,228.177L272.746,228.945L272.807,230.524L272.85,232.102C272.861,232.627 272.87,233.152 272.875,233.676L272.882,235.204L272.88,235.812C272.877,236.27 272.873,236.727 272.866,237.183L272.845,238.277C272.836,238.637 272.827,238.997 272.816,239.357L272.77,240.666L272.707,242.056L272.66,242.916C272.616,243.693 272.566,244.469 272.509,245.242L272.378,246.891L272.235,248.448L272.115,249.632L271.964,250.996L271.773,252.558L271.607,253.813L271.429,255.064L271.176,256.717L270.983,257.897L270.743,259.275L270.405,261.091L270.108,262.584L269.863,263.752L269.428,265.714L269.074,267.212L268.795,268.344L268.42,269.801L268.042,271.21L267.725,272.344L267.361,273.601L266.892,275.16L266.363,276.838L265.822,278.487L265.452,279.56L265.025,280.738L264.863,281.178C264.752,281.514 264.639,281.848 264.5,282.186C263.205,285.714 261.764,289.155 260.177,292.537C259.764,293.448 259.353,294.331 258.911,295.213C258.206,296.654 257.441,298.096 256.707,299.508C256.647,299.565 256.619,299.654 256.588,299.713C255.177,302.329 253.677,304.919 252.09,307.419L251.385,308.513L250.98,309.103L250.316,310.136L249.767,310.943L249.354,311.546L249.354,311.565C249.088,312.005 248.794,312.416 248.472,312.829C247.32,314.5 246.13,316.138 244.904,317.745L244.816,317.86C243.221,319.948 241.565,321.984 239.854,323.976L239.073,324.871L238.079,325.991L237.478,326.655L236.874,327.314L236.265,327.97L235.652,328.622L235.034,329.27L234.413,329.913L233.787,330.553L233.157,331.188L232.523,331.819L231.885,332.446L231.243,333.069L230.597,333.688L229.946,334.303L229.292,334.913L228.634,335.519L227.305,336.718L225.961,337.9L224.601,339.064L223.226,340.21L221.835,341.339L220.43,342.45L219.251,343.358L218.294,344.082L217.12,344.95L216.125,345.672L214.957,346.501L213.924,347.22L212.763,348.011L211.691,348.725L210.538,349.478L209.428,350.187L208.283,350.903L207.134,351.605L205.999,352.284L204.81,352.979L203.686,353.621L202.128,354.488L200.557,355.336L199.718,355.777L198.921,356.19L198.122,356.597L197.319,356.999L196.514,357.396L195.706,357.788L194.894,358.175L194.08,358.556L193.263,358.932L192.443,359.303L191.621,359.668L190.795,360.029L189.967,360.383L189.136,360.733L188.303,361.077L187.466,361.416L186.627,361.749L185.472,362.197L184.208,362.674L183.508,362.932C175.658,365.798 167.471,367.962 159.021,369.348L157.605,369.572L156.197,369.781L154.318,370.035L152.436,370.263L150.549,370.465L148.516,370.653L146.646,370.8L144.654,370.927L142.787,371.02L140.923,371.087L139.53,371.121L138.144,371.142L136.819,371.148L135.472,371.141L135.01,371.136L133.308,371.103L132.116,371.068L131.571,371.048C131.011,371.027 130.452,371.002 129.893,370.974L128.91,370.921L128.07,370.87L126.787,370.783L125.344,370.67L124.595,370.605L123.757,370.528L122.78,370.431L121.461,370.29L119.917,370.108L119.147,370.01L118.622,369.94C61.059,362.253 14.891,318.582 3.474,262.277L3.239,261.09L2.955,259.579L2.689,258.062L2.439,256.54L2.206,255.012L1.989,253.478L1.79,251.939L1.609,250.395L1.444,248.846L1.295,247.267L1.199,246.139L1.071,244.412L1.03,243.782L0.93,242.013L0.887,241.098L0.867,240.61L0.814,239.101L0.782,237.765L0.762,236.427L0.756,235.069L0.761,233.92L0.78,232.504L0.814,231.055L0.874,229.343L0.941,227.924L1.04,226.215L1.16,224.51L1.339,222.399L1.503,220.733L1.754,218.52L1.965,216.867L2.116,215.769L2.36,214.126L2.623,212.491L2.832,211.276L3.004,210.32L3.25,209.022L3.391,208.305L3.7,206.805L3.847,206.115L4.228,204.413L4.525,203.156L4.699,202.441L5.07,200.971L5.248,200.286L5.705,198.602L6.047,197.393L6.255,196.679L6.685,195.245L7.142,193.78L7.652,192.213L8.179,190.657L8.724,189.112L9.286,187.576L9.865,186.051L10.462,184.535L11.076,183.028L11.589,181.809L12.228,180.334L12.884,178.867L13.557,177.41L14.247,175.963L14.953,174.524L15.675,173.096L16.414,171.677L17.169,170.268L17.681,169.334L18.2,168.404L18.727,167.479L19.26,166.559L19.8,165.643L20.347,164.732L20.901,163.825L21.462,162.923L21.995,162.081C24.011,158.918 26.155,155.843 28.418,152.865L29.105,151.969L30.119,150.673L31.137,149.404L32.163,148.156L33.2,146.924L34.249,145.708L35.309,144.506L36.64,143.037L37.833,141.756L39.206,140.322L40.549,138.958L41.845,137.678L43.198,136.376L44.743,134.932L46.31,133.513L47.5,132.464L48.702,131.429L49.916,130.407L51.142,129.4L52.38,128.406L53.63,127.427L54.892,126.462L56.165,125.511L57.449,124.575L58.745,123.654L60.052,122.747L61.369,121.855L62.698,120.978L64.037,120.117L64.936,119.551L65.84,118.992C65.398,118.817 65.044,118.669 64.75,118.492L64.722,118.492C55.281,115.374 48.341,108.758 41.958,101.287C30.577,85.318 46.666,69.791 47.751,53.967C48.723,40.557 42.782,25.706 49.694,12.56C53.84,3.853 62.664,0.531 72.427,0.768C81.014,1.208 89.338,4.267 95.161,8.707C107.57,18.236 119.159,31.999 128.776,45.146C128.776,44.116 130.394,42.292 132.157,41.293C133.276,40.617 134.598,40.263 136.01,40.263L144.597,40.263L144.768,40.265ZM233.106,301.981L233,302.134C230.483,303.681 227.993,305.253 225.474,306.802C223.721,307.892 224.466,310.555 226.475,310.623C225.699,311.543 224.907,312.453 224.102,313.349L223.767,313.36C222.62,313.389 221.681,314.328 221.65,315.475C221.645,315.641 221.659,315.803 221.69,315.957C200.328,338.368 170.192,352.34 136.819,352.34C129.603,352.34 122.539,351.687 115.679,350.436L134.186,327.506L164.772,329.681L159.508,320.888L165.184,312.093L175.802,312.975L170.243,303.566L173.565,295.625L181.093,299.3L186.535,320.035L200.475,303.418L218.297,304.448C218.326,304.8 218.445,305.153 218.65,305.447C219.327,306.417 220.62,306.683 221.621,306.066C224.267,304.448 226.915,302.799 229.591,301.155C230.762,301.438 231.935,301.697 233.106,301.981ZM107.895,341.033L113.364,348.678L110.159,337.003L107.895,341.033ZM104.571,345.769L100.63,345.592L99.878,346.393C99.065,346.123 98.255,345.844 97.449,345.556L97.102,344.532L93.718,342.975L96.925,341.004L97.306,337.591L100.219,339.797L103.749,338.798L102.571,342.768L104.571,345.769ZM85.131,273.303L79.354,270.4L80.178,272.648C80.193,272.692 80.209,272.736 80.222,272.78C81.181,275.96 79.411,279.432 76.27,280.531C74.342,281.206 72.35,280.866 70.84,279.792C71.014,281.638 70.315,283.537 68.77,284.872C67.596,285.888 66.126,286.394 64.662,286.394C62.977,286.394 61.301,285.725 60.085,284.426C60.052,284.392 60.022,284.357 59.993,284.321L57.193,280.956L57.193,288.369C57.193,291.684 54.444,294.418 50.997,294.418C47.547,294.418 44.798,291.684 44.798,288.369L44.798,280.956L41.998,284.321C41.969,284.357 41.939,284.392 41.906,284.426C39.633,286.853 35.746,287.057 33.221,284.874L33.221,284.872C31.676,283.537 30.977,281.638 31.152,279.792C30.457,280.285 29.66,280.624 28.814,280.779C39.992,307.142 60.547,328.582 86.29,340.908L91.19,337.739L92.396,325.651L101.189,333.062L108.66,330.739L105.749,320.828L76.779,308.771L84.691,302.624L82.543,295.744L74.367,291.949L81.926,286.273L82.749,277.684L87.308,281.333L85.131,273.303ZM117.923,310.182L108.954,306.066L117.395,300.861L118.423,291.83L126.187,297.713L135.451,295.037L132.392,305.535L137.657,313.475L127.187,312.975L121.099,319.533L117.923,310.182ZM158.478,319.476L151.155,307.801L156.126,310.066L158.478,319.476ZM156.891,305.007L159.832,303.212L160.184,300.067L162.889,302.125L166.096,301.183L165.036,304.83L166.861,307.595L163.243,307.419L161.125,309.711L160.007,306.448L156.891,305.007ZM169.832,294.508L163.95,296.566L155.684,289.92L154.539,300.772L148.686,303.77L158.714,273.038L151.862,274.421L157.803,267.421L179.124,269.362L177.948,279.302L160.979,290.508L169.832,294.508ZM223.767,299.771C222.62,300.476 221.444,301.212 220.268,301.948L218.827,299.713C219.267,299.448 219.709,299.183 220.151,298.889C221.356,299.183 222.561,299.477 223.767,299.771ZM91.073,297.625L88.014,301.654L94.543,297.832L91.073,297.625ZM230.172,274.297C228.571,274.818 227.108,275.258 225.785,275.615C222.425,276.524 219.708,276.876 217.634,276.693C216.09,276.557 214.832,276.318 213.858,275.986L210.092,286.304L214.679,293.332C214.886,293.39 215.092,293.448 215.297,293.478C215.003,293.008 214.709,292.537 214.444,292.068C213.827,291.067 214.15,289.772 215.209,289.213C216.208,288.655 217.503,289.009 218.12,289.979C219.121,291.624 220.12,293.244 221.091,294.862C222.326,295.154 223.533,295.448 224.738,295.744C223.798,294.214 222.885,292.712 221.975,291.213C221.356,290.183 221.681,288.89 222.737,288.331C223.738,287.802 225.032,288.125 225.65,289.124C227.268,291.772 228.915,294.449 230.531,297.123C231.737,297.39 232.973,297.682 234.178,297.978C232.591,295.39 231.002,292.802 229.414,290.214C228.325,288.419 230.296,286.304 232.178,287.303C234.692,288.656 237.18,290.008 239.692,291.362L239.958,290.875C239.678,289.929 239.398,288.992 239.12,288.037C236.355,286.567 233.619,285.068 230.856,283.596C229.854,283.068 229.414,281.773 229.914,280.745C230.414,279.657 231.678,279.244 232.737,279.803C234.297,280.656 235.855,281.479 237.414,282.332C237.06,281.125 236.708,279.949 236.355,278.744C234.65,277.832 232.973,276.95 231.296,276.039C230.641,275.673 230.239,275.004 230.172,274.297ZM202.504,293.509L195.447,293.184L191.358,297.567L189.212,291.301L183.182,288.507L188.858,285.008L189.565,278.948L194.77,282.891L201.006,281.098L198.946,288.154L202.504,293.509ZM92.631,293.39L89.278,293.213L87.308,295.331L86.279,292.331L83.396,291.007L86.132,289.332L86.455,286.419L88.926,288.302L91.926,287.449L90.927,290.83L92.631,293.39ZM95.661,275.126L103.66,275.774L102.836,292.331L98.924,294.566L95.807,289.772L98.543,281.596L89.338,283.271L95.661,275.126ZM253.579,245.925C252.605,246.414 251.544,246.723 250.397,246.851C249.749,246.923 249.136,246.931 248.557,246.875C248.764,247.167 248.83,247.517 248.727,247.931C248.627,248.333 248.403,248.653 248.052,248.887C248.031,248.901 248.01,248.913 247.989,248.925C235.713,255.295 227.797,259.568 224.241,261.747C220.763,263.878 218.372,265.708 217.085,267.257L217.008,267.352L216.457,268.862C216.497,268.974 216.563,269.081 216.659,269.183C216.894,269.435 217.343,269.555 217.972,269.634C219.181,269.786 220.956,269.682 223.3,269.337C227.303,268.747 232.22,267.41 238.054,265.331C238.102,265.314 238.152,265.303 238.203,265.297C238.632,265.249 238.912,265.393 239.084,265.576C239.253,265.757 239.373,266.032 239.307,266.417C239.293,266.783 239.242,267.504 239.156,268.579C239.156,268.579 239.024,270.222 239.024,270.214C239.003,270.752 238.8,271.11 238.467,271.321C238.518,271.492 238.569,271.662 238.618,271.833C238.885,271.362 239.149,270.861 239.414,270.392C239.973,269.331 241.266,269.01 242.265,269.627C243.266,270.215 243.589,271.508 243.059,272.538L240.325,277.569C240.678,278.744 241.03,279.949 241.383,281.125C242.236,279.569 243.09,278.039 243.912,276.479C244.5,275.42 245.766,275.096 246.796,275.714L246.825,275.733C250.314,266.309 252.625,256.313 253.579,245.925ZM98.806,255.804L106.454,245.776L120.717,247.071L112.218,252.716L135.51,262.245L139.303,278.155L128.657,280.979L104.542,260.512L103.66,269.596L100.984,266.009L104.69,255.07L98.806,255.804ZM33.617,275.518L35.978,260.906L44.798,256.088L45.284,265.759L33.617,275.518ZM68.374,275.516L56.423,266.816L57.193,256.088L66.785,261.932L68.374,275.516ZM192.751,254.48L184.8,253.892L181.418,258.158L196.505,270.363L207.317,268.037C207.244,267.443 207.222,266.821 207.251,266.171C207.347,264.03 207.997,262.032 209.206,260.18C206.575,260.703 204.385,260.862 202.64,260.668C200.462,260.425 198.802,259.96 197.652,259.298C196.515,258.645 195.283,257.617 193.963,256.204C193.474,255.681 193.07,255.107 192.751,254.48ZM95.955,263.598C95.955,263.598 93.726,264.232 93.726,264.232C94.485,265.959 94.443,268.037 93.413,269.845L96.72,269.979C96.72,269.979 94.896,267.246 94.896,267.246L95.955,263.598ZM169.743,249.334L176.007,252.188L179.241,263.569L169.743,249.334ZM137.657,250.424L144.568,246.216L145.391,238.864L151.685,243.658L159.242,241.481L156.745,250.011L161.037,256.48L152.508,256.069L147.568,261.394L144.979,253.804L137.657,250.424ZM93.065,254.373C92.686,254.936 92.218,255.437 91.68,255.854L93.838,257.628C93.838,257.628 93.065,254.373 93.065,254.373ZM253.235,220.994C253.166,221.034 253.091,221.069 253.011,221.099C244.989,225.306 239.164,228.349 235.537,230.229C235.537,230.229 238.808,233.729 238.808,233.729C239.108,234.05 239.22,234.449 239.1,234.935C239,235.337 238.776,235.656 238.424,235.891C238.405,235.904 238.386,235.915 238.365,235.926L234.408,238.017C233.646,238.386 232.986,238.262 232.424,237.661C232.424,237.661 228.753,233.734 228.753,233.734C218.222,239.288 211.496,242.95 208.575,244.721C205.685,246.473 203.541,248.177 202.155,249.846C201.49,250.646 201.289,251.302 201.801,251.85C202.331,252.416 203.154,252.789 204.25,253.011C205.463,253.256 206.989,253.306 208.828,253.169C212.319,252.911 216.719,251.878 222.029,250.082C226.158,247.737 232.345,244.419 240.59,240.125C240.596,240.122 240.602,240.12 240.607,240.117C241.369,239.747 242.029,239.871 242.591,240.472L243.28,241.21C243.408,239.708 244.157,238.334 245.559,237.105L245.559,237.105C247.018,235.827 248.73,235.077 250.696,234.857C251.95,234.717 253.075,234.819 254.074,235.156L254.074,235.085C254.074,230.315 253.789,225.612 253.235,220.994ZM177.771,247.63L179.977,246.275L180.242,243.924L182.271,245.453L184.683,244.775L183.889,247.511L185.242,249.569L182.534,249.452L180.947,251.158L180.094,248.718L177.771,247.63ZM19.892,243.913L30.396,239.854L39.892,245.33L30.696,251.158L20.154,246.913C20.055,245.921 19.967,244.919 19.892,243.913ZM191.876,251.014C191.847,250.437 191.864,249.832 191.928,249.199C192.15,246.977 192.86,244.93 194.06,243.061C192.676,243.329 191.41,243.498 190.263,243.567L189.181,246.452L191.876,251.014ZM85.767,245.33L71.954,250.362L62.099,245.33L72.204,240.111L85.767,245.33ZM173.044,235.781L168.771,246.775L175.154,243.424L175.528,238.23C174.839,237.646 174.142,236.977 173.437,236.223C173.302,236.078 173.17,235.931 173.044,235.781ZM90.909,245.299L90.892,245.226C90.821,245.263 90.748,245.297 90.675,245.33C90.767,245.374 90.859,245.418 90.949,245.466L90.909,245.299ZM136.951,215.603L134.158,214.25L133.128,238.953L124.099,244.982L114.747,230.777L121.159,213.484L107.513,216.397L113.805,208.336L131.216,209.631L135.804,211.22L136.951,215.603ZM108.423,237.6L102.159,237.308L98.513,241.218L96.601,235.629L91.221,233.158L96.278,230.041L96.897,224.63L101.543,228.16L107.101,226.542L105.276,232.835L108.423,237.6ZM126.359,118.291C115.005,119.296 104.115,121.923 93.918,125.938L90.279,137.638L96.043,146.373L96.424,144.019L102.984,150.225L112.042,147.785L110.373,154.629C110.98,154.476 111.433,154.634 111.728,154.949C111.781,155.007 111.863,155.113 111.913,155.298C111.954,155.453 111.996,155.818 112.023,156.397C112.043,156.845 112.156,157.205 112.398,157.464C113.316,158.447 114.289,159.208 115.318,159.744C116.343,160.278 117.879,160.547 119.918,160.59C122.036,160.634 124.538,160.266 127.425,159.494C130.36,158.709 134.206,157.292 138.964,155.247C143.746,153.192 149.241,150.527 155.45,147.25C165.79,141.739 174.101,138.631 180.373,137.901C186.843,137.148 191.689,138.553 194.935,142.026C196.259,143.443 196.569,144.942 195.925,146.505C195.652,147.259 195.26,147.605 194.952,147.696C194.619,147.793 194.242,147.732 193.883,147.348C192.355,145.714 189.937,145.223 186.657,145.748C183.157,146.309 179.233,147.687 174.882,149.872C170.472,152.087 165.708,154.7 160.589,157.711C155.452,160.734 150.28,163.688 145.072,166.574C139.848,169.469 134.893,171.93 130.207,173.956C129.523,174.251 128.848,174.527 128.18,174.783L124.802,185.348L122.306,192.398L129.863,203.515L134.01,201.427L135.422,189.809L143.481,197.28L154.274,194.25L150.596,205.25L154.817,212.441C154.66,211.645 154.602,210.795 154.643,209.89C154.762,207.23 155.736,204.792 157.575,202.579C159.244,200.57 161.815,198.455 165.297,196.244C168.715,194.074 176.276,189.94 187.982,183.845C187.988,183.842 187.993,183.839 187.999,183.836C188.761,183.467 189.421,183.591 189.982,184.191L190.054,184.268C190.229,182.843 190.972,181.536 192.312,180.361C193.771,179.083 195.483,178.332 197.449,178.113C199.462,177.888 201.144,178.288 202.503,179.278C203.924,180.315 204.615,181.685 204.585,183.382C204.556,185.029 203.805,186.528 202.287,187.858C200.828,189.137 199.116,189.887 197.15,190.107C196.592,190.169 196.06,190.183 195.552,190.15L195.828,190.445C196.128,190.766 196.239,191.164 196.119,191.65C196.019,192.052 195.795,192.372 195.444,192.606C195.423,192.62 195.402,192.633 195.38,192.644C183.105,199.014 175.189,203.287 171.633,205.466C168.154,207.597 165.764,209.427 164.477,210.976C163.817,211.77 163.576,212.395 164.05,212.902C164.286,213.154 164.735,213.274 165.364,213.353C166.573,213.506 168.348,213.401 170.691,213.056C172.672,212.764 174.878,212.289 177.308,211.632C178.251,210.95 179.134,210.723 179.936,210.876C181.671,210.349 183.508,209.741 185.445,209.051C185.494,209.033 185.544,209.022 185.595,209.016C185.755,208.998 185.894,209.007 186.013,209.034C190.527,207.51 196.344,205.378 203.461,202.639C206.871,201.316 209.77,201.945 212.163,204.505C213.345,205.769 213.966,207.348 214.012,209.247C214.058,211.167 213.636,212.613 212.812,213.604C212.698,213.742 212.532,213.828 212.354,213.842C210.602,213.984 208.776,214.983 206.849,216.785C204.823,218.679 202.999,220.848 201.376,223.29C199.714,225.79 197.86,228.355 195.813,230.985C194.169,233.097 192.591,234.933 191.079,236.493C195.17,236.406 200.309,235.245 206.497,233.027C209.87,231.122 214.659,228.545 220.866,225.296C220.866,225.296 218.688,222.966 218.688,222.966C218.388,222.645 218.276,222.246 218.397,221.76C218.512,221.296 218.756,221.013 219.056,220.862L223.062,218.692C223.071,218.687 223.08,218.683 223.089,218.678C223.85,218.309 224.51,218.433 225.072,219.034C225.072,219.034 227.649,221.791 227.649,221.791C230.992,220.052 236.989,216.941 245.635,212.458C246.028,212.239 246.393,212.163 246.72,212.193C247.091,212.226 247.43,212.388 247.724,212.704L252.866,218.204C248.203,185.935 230.382,157.9 205.02,139.72C205.543,141.587 205.93,143.491 206.182,145.432C207.342,154.391 205.09,162.275 199.431,169.084C195.382,173.956 190.676,177.141 185.322,178.652C179.958,180.167 174.727,180.07 169.631,178.367C164.558,176.672 160.08,173.751 156.202,169.602C154.554,167.839 154.163,165.806 155.04,163.501C155.252,162.93 155.474,162.523 155.685,162.269C155.965,161.933 156.269,161.796 156.547,161.776C156.851,161.754 157.175,161.859 157.478,162.183C162.287,167.327 167.928,169.52 174.41,168.74C180.946,167.954 186.702,164.543 191.695,158.536C195.65,153.777 197.682,148.62 197.777,143.059C197.832,139.836 197.009,136.638 195.317,133.462C181.02,125.208 164.822,119.884 147.546,118.315C146.186,118.951 144.897,119.659 143.68,120.438C140.694,122.351 138.218,124.486 136.255,126.848C134.341,129.151 133.2,131.401 132.858,133.61C132.533,135.704 133.047,137.484 134.413,138.946C136.266,140.928 138.814,141.643 142.04,141.149C145.325,140.646 147.727,139.524 149.221,137.727C149.658,137.201 150.108,137.102 150.441,137.179C150.681,137.235 150.925,137.388 151.12,137.705C151.265,137.941 151.399,138.317 151.49,138.827C151.936,140.653 151.495,142.391 150.132,144.031C147.504,147.193 143.592,149.146 138.374,149.849C133.118,150.557 128.733,149.026 125.218,145.265L125.218,145.265C122.332,142.177 120.996,137.83 121.27,132.205C121.518,127.124 123.213,122.485 126.359,118.291ZM33.617,215.144L45.803,224.221L44.798,234.574L35.216,230.049L33.617,215.144ZM68.374,215.144L65.894,229.603L57.193,234.572L57.247,224.607L68.374,215.144ZM155.354,214.194L145.892,213.72L140.422,219.337L153.743,230.337L170.198,226.253C170.298,224.102 170.743,222.062 171.531,220.132L171.708,219.706C169.016,220.337 166.788,220.568 165.026,220.413C162.897,220.225 161.312,219.84 160.263,219.289C159.217,218.738 158.099,217.836 156.918,216.573C156.252,215.86 155.73,215.068 155.354,214.194ZM177.391,224.596L177.446,224.453L177.378,224.47C177.316,223.796 177.409,223.066 177.652,222.282C178.26,220.314 179.407,218.512 181.083,216.87C184.827,215.828 189.757,214.27 195.874,212.195C195.342,212.878 194.771,213.627 194.163,214.444C192.971,216.044 191.926,217.441 191.026,218.634C190.129,219.824 189.154,221.079 188.101,222.401C187.072,223.693 186.128,224.724 185.265,225.493C184.41,226.255 183.535,226.908 182.639,227.452C181.86,227.925 181.129,228.135 180.433,228.044C179.742,227.954 179.102,227.566 178.493,226.914L178.493,226.914C177.859,226.236 177.495,225.463 177.391,224.596ZM81.367,214.368L80.453,215.505C80.529,216.287 80.46,217.092 80.222,217.88C80.209,217.926 80.195,217.97 80.178,218.015L78.666,222.142L85.066,218.437C86.073,217.855 87.185,217.602 88.282,217.649L88.425,215.19L81.367,214.368ZM64.079,143.141L70.546,145.608L72.309,151.812L72.104,167.459L61.28,174.605L73.22,179.604L77.192,191.927L84.455,182.341L94.748,183.163L94.574,185.811L78.604,196.25L83.984,199.367L80.191,200.339L72.897,194.369L71.956,203.573L68.783,205.8L68.77,205.788C66.245,203.605 62.358,203.809 60.085,206.234C60.052,206.269 60.022,206.305 59.993,206.34L57.193,209.706L57.193,202.293C57.193,198.979 54.444,196.242 50.997,196.242C47.547,196.242 44.798,198.979 44.798,202.293L44.798,209.706L41.998,206.34C41.969,206.305 41.939,206.269 41.906,206.234C39.633,203.809 35.746,203.605 33.221,205.788C31.676,207.124 30.977,209.024 31.152,210.871C29.641,209.796 27.649,209.456 25.722,210.131C22.578,211.23 20.81,214.7 21.769,217.88C21.783,217.926 21.796,217.97 21.813,218.015L23.325,222.142L20.466,220.486C24.353,189.233 40.563,161.778 64.079,143.141ZM85.514,207.014L88.102,200.839L96.601,204.074L99.043,213.808L89.278,205.925L89.132,206.044L88.308,210.955L85.514,207.014ZM82.514,210.544L80.985,208.221L81.867,205.193L79.19,205.955L76.956,204.28L76.662,206.868L74.192,208.398L76.81,209.574L77.123,210.504C77.62,210.767 78.073,211.095 78.475,211.475L79.486,210.398L82.514,210.544ZM146.862,208.692L143.215,208.544L141.127,210.807L140.01,207.573L136.892,206.132L139.834,204.309L140.185,201.192L142.862,203.219L146.098,202.31L145.039,205.955L146.862,208.692ZM103.629,192.104L104.248,186.693L108.894,190.222L114.453,188.605L112.601,194.897L115.777,199.663L109.482,199.367L105.835,203.281L103.923,197.691L98.543,195.22L103.629,192.104ZM77.897,171.429L78.337,167.43L81.778,170.016L85.896,168.84L84.543,173.488L86.866,177.018L82.22,176.782L79.544,179.693L78.132,175.546L74.133,173.723L77.897,171.429ZM104.801,164.425L99.925,169.899L109.924,179.399L114.896,178.109L116.478,177.323C112.624,177.376 109.603,176.203 107.4,173.846L107.4,173.846C105.382,171.688 104.48,168.783 104.742,165.117C104.758,164.883 104.778,164.652 104.801,164.425ZM94.514,161.341L96.985,162.165L98.159,168.871L95.955,167.105L95.131,178.694L90.337,172.399L94.514,161.341ZM83.074,163.666L76.485,157.665L83.337,148.607L95.69,149.489L95.338,154.195L88.573,158.167L92.865,160.636L83.074,163.666ZM105.978,159.482L105.955,159.535L105.906,159.658L103.07,159.548L101.308,161.429L100.396,158.724L97.779,157.519L100.248,156.018L100.544,153.43L102.778,155.108L105.455,154.343L104.571,157.371L105.978,159.482ZM75.665,135.043C76.512,134.523 77.364,134.016 78.223,133.519L79.749,134.667L84.19,133.374L82.72,138.431L85.251,142.255L80.22,142.02L77.309,145.137L75.78,140.668L71.456,138.668L75.543,136.168L75.665,135.043ZM153.862,80.436L179.889,104.287L180.419,105.288L180.29,105.606L180.195,106.039L180.189,106.092C174.413,104.148 168.461,102.581 162.366,101.421L161.821,100.432L161.261,99.409L160.126,97.318C160.038,97.141 159.95,96.995 159.89,96.847C157.125,91.759 155.303,86.083 153.862,80.436ZM126.011,79.759C123.982,85.819 121.482,91.818 117.923,97.024L117.894,97.024C117.835,97.141 117.775,97.229 117.687,97.318C117.658,97.406 117.57,97.523 117.452,97.671L117.042,98.249L116.246,99.381L115.61,100.266L115.274,100.721C108.993,101.722 102.856,103.153 96.893,104.984L96.631,104.2L98.278,101.641L126.011,79.759ZM140.465,49.848L140.627,49.852C142.334,49.909 143.98,50.645 145.127,51.938C146.303,53.174 146.951,54.849 146.862,56.556C146.803,58.291 146.038,59.908 144.803,61.086C143.509,62.26 141.863,62.879 140.128,62.819C138.421,62.762 136.775,62.026 135.628,60.733C134.452,59.497 133.804,57.82 133.864,56.115C133.952,54.35 134.717,52.763 135.95,51.587C137.096,50.519 138.581,49.913 140.141,49.852L140.465,49.848ZM212.533,14.49L212.739,14.493C220.061,14.64 222.354,22.1 218.297,30.998C205.399,42.147 189.145,48.573 172.115,49.219L171.713,49.233C178.065,33.087 191.329,20.618 207.857,15.296C209.586,14.744 211.148,14.488 212.533,14.49ZM70.673,9.257C72.254,9.253 74.061,9.626 76.074,10.442C92.16,16.971 104.454,30.352 109.63,46.91C92.543,45.117 76.633,37.47 64.545,25.293C61.224,16.382 63.823,9.274 70.673,9.257Z" style="fill:none;stroke:rgb(255,0,0);stroke-width:1px;"/>
</svg>
