<?xml version="1.0" encoding="UTF-8" standalone="no"?>
<!DOCTYPE svg PUBLIC "-//W3C//DTD SVG 1.1//EN" "http://www.w3.org/Graphics/SVG/1.1/DTD/svg11.dtd">
<svg width="100%" height="100%" viewBox="0 0 1123 794" version="1.1" xmlns="http://www.w3.org/2000/svg" xmlns:xlink="http://www.w3.org/1999/xlink" xml:space="preserve" xmlns:serif="http://www.serif.com/" style="fill-rule:evenodd;clip-rule:evenodd;stroke-linejoin:round;stroke-miterlimit:2;">
    <path d="M11.426,250.1C11.92,201.578 37.85,159.147 76.503,135.437C76.061,135.262 75.707,135.114 75.413,134.938L75.384,134.938C65.944,131.819 59.004,125.203 52.621,117.733C41.24,101.763 57.328,86.236 58.414,70.413C59.386,57.003 53.445,42.152 60.357,29.005C64.503,20.299 73.327,16.977 83.089,17.213C91.677,17.653 100,20.712 105.824,25.153C118.233,34.681 129.822,48.445 139.438,61.591C139.438,60.561 141.056,58.738 142.82,57.739C143.939,57.062 145.261,56.709 146.673,56.709L155.26,56.709C157.085,56.709 158.73,57.326 160.085,58.356C161.526,59.503 162.554,61.149 162.936,63.032C163.464,63.032 193.522,32.623 199.638,28.623C205.787,24.593 214.285,22.182 222.872,22.388C232.637,22.858 241.165,26.859 244.695,35.857C250.605,49.444 243.576,63.826 243.517,77.267C243.488,93.148 258.37,109.793 245.842,124.881C240.634,130.174 233.519,135.291 226.519,138.348L226.46,138.348C226.08,138.467 225.266,138.729 224.103,139.105C246.368,154.317 263.892,175.967 273.981,201.358L274.298,202.163C280.107,217.05 283.368,233.217 283.537,250.122L283.545,251.53L283.543,252.257L283.529,253.628L283.511,254.602L283.479,255.802L283.44,256.907C282.934,269.97 280.595,282.547 276.662,294.396C276.322,295.443 275.957,296.462 275.587,297.453L275.163,298.631C273.868,302.159 272.427,305.6 270.84,308.982C270.427,309.893 270.016,310.777 269.574,311.659C268.869,313.1 268.104,314.541 267.37,315.953C267.31,316.011 267.281,316.099 267.251,316.159C265.84,318.774 264.34,321.364 262.753,323.864C262.38,324.432 262.038,325.004 261.643,325.548L261.545,325.697C261.134,326.366 260.706,326.996 260.256,327.638L260.016,327.991L260.016,328.011C259.751,328.451 259.457,328.862 259.134,329.275C256.458,333.158 253.576,336.861 250.517,340.421C225.814,369.023 189.421,387.205 148.807,387.587L147.482,387.593C143.885,387.593 140.32,387.453 136.787,387.178C70.145,381.999 16.988,328.83 11.83,262.177C11.557,258.662 11.419,255.112 11.419,251.53L11.426,250.1ZM39.414,296.842C51.151,324.777 73.415,347.222 101.233,359.2C97.093,356.407 93.182,353.22 89.551,349.659C86.132,346.306 86.132,340.851 89.551,337.498C92.97,334.146 98.533,334.146 101.952,337.498C104.174,339.677 106.529,341.675 108.998,343.491C113.426,328.854 113.06,316.282 112.433,310.022L103.137,317.099C99.805,319.636 95.435,319.719 92.005,317.307C88.575,314.896 87.252,310.81 88.634,306.9L96.006,286.049L96.928,272.424C96.987,271.56 97.484,270.783 98.251,270.355C99.019,269.928 99.954,269.907 100.741,270.3C100.862,270.36 102.214,271.04 104.042,272.143L100.882,258.84L83.458,252.063L84.406,251.367L71.622,245.408L66.121,248.594L79.955,255.032L73.043,259.026L59.22,252.577L51.082,257.271L62.192,262.923L51.082,268.586L59.22,273.279L73.043,266.831L79.955,270.814L66.121,277.263L71.622,280.438L85.456,273.99L92.356,277.973L78.534,284.422L89.557,290.795C90.86,291.538 91.301,293.206 90.548,294.509C89.794,295.822 88.136,296.264 86.823,295.51L75.799,289.148L77.134,304.349L70.233,300.365L68.898,285.165L63.397,281.978L64.721,297.179L57.821,293.196L56.497,277.995L48.358,273.301L49.015,285.746L38.561,278.953L38.561,288.351L51.06,297.103L51.06,305.07L39.457,296.945L39.414,296.842ZM243.675,318.404C242.535,318.129 241.394,317.876 240.254,317.6C237.577,319.245 234.93,320.893 232.284,322.511C231.283,323.128 229.99,322.863 229.313,321.893C229.108,321.599 228.988,321.245 228.96,320.893L211.138,319.864L198.382,335.068C201.016,334.706 203.787,335.516 205.809,337.498C207.465,339.123 208.377,341.282 208.377,343.579C208.377,345.875 207.465,348.034 205.809,349.659C202.384,353.017 198.712,356.043 194.832,358.719C209.038,352.428 221.763,343.395 232.334,332.292C232.316,332.172 232.309,332.048 232.313,331.921C232.343,330.774 233.283,329.834 234.43,329.805L234.641,329.799C235.45,328.898 236.246,327.985 237.025,327.062C235.102,326.901 234.417,324.317 236.136,323.247C238.591,321.738 241.018,320.207 243.47,318.698L243.675,318.404ZM162.894,344.646C164.52,347.147 167.027,350.173 169.095,352.537C162.302,354.872 155.086,356.09 147.681,356.09C141.087,356.09 134.643,355.124 128.514,353.265L133.095,344.784C137.908,346.073 149.932,348.46 162.894,344.646ZM188.436,314.125C189.956,318.028 189.047,321.212 186.232,319.558C186.506,326.802 187.855,335.712 189.423,341.093C190.793,339.954 192.124,338.758 193.408,337.498C194.425,336.502 195.631,335.802 196.914,335.398L191.756,315.746L188.436,314.125ZM234.43,316.217C233.283,316.922 232.107,317.658 230.931,318.394L229.49,316.159C229.93,315.894 230.372,315.629 230.814,315.335C232.019,315.629 233.223,315.923 234.43,316.217ZM244.575,283.901C242.928,284.226 241.557,284.322 240.464,284.201C239.072,284.046 238.013,283.743 237.278,283.321C236.557,282.906 235.774,282.255 234.936,281.359C233.878,280.227 233.419,278.72 233.609,276.825C233.754,275.375 234.225,274.043 235.023,272.83C233.43,273.037 232.088,273.092 230.997,272.999C229.567,272.877 228.203,272.532 226.904,271.963C225.601,271.393 224.647,270.853 224.036,270.356C223.438,269.87 222.78,269.244 222.062,268.477C220.134,266.414 219.374,264.045 219.772,261.374C219.979,259.986 220.42,258.62 221.097,257.276C221.085,257.279 221.073,257.282 221.061,257.285C218.901,257.806 217.152,257.982 215.817,257.833C214.425,257.678 213.366,257.376 212.631,256.954C211.91,256.539 211.127,255.888 210.289,254.991C209.231,253.86 208.772,252.353 208.962,250.457C209.107,249.008 209.578,247.676 210.376,246.462C208.783,246.67 207.441,246.725 206.35,246.632C204.92,246.51 203.556,246.164 202.257,245.596C200.954,245.026 200,244.486 199.389,243.989C198.791,243.503 198.133,242.877 197.415,242.11C195.487,240.046 194.727,237.677 195.126,235.007C195.328,233.646 195.756,232.305 196.412,230.987C196.396,230.991 196.381,230.995 196.366,231C194.195,231.613 192.449,231.883 191.132,231.826C189.766,231.767 188.711,231.566 187.962,231.246C187.192,230.916 186.451,230.38 185.748,229.627C184.689,228.495 184.204,227.069 184.317,225.341C184.426,223.679 185.062,222.139 186.235,220.727C187.349,219.387 188.984,218.03 191.149,216.665C193.258,215.335 196.791,213.548 201.757,211.304C202.222,211.077 202.58,210.827 202.819,210.538C203.113,210.185 203.219,209.636 203.193,208.898C199.836,210.523 194.95,212.515 188.532,214.873C188.526,214.875 188.52,214.877 188.515,214.879C188.385,214.922 188.267,214.938 188.164,214.933C186.54,215.44 185.007,215.816 183.565,216.06C181.342,216.437 179.53,216.561 178.13,216.442C176.701,216.32 175.336,215.975 174.037,215.406C172.734,214.836 171.78,214.296 171.169,213.8C170.571,213.314 169.913,212.688 169.196,211.92C167.267,209.857 166.508,207.488 166.906,204.817C167.121,203.377 167.587,201.96 168.309,200.567L168.309,200.566C164.081,201.407 159.89,201.356 155.737,200.413C152.442,203.296 148.565,204.79 144.105,204.892C140.616,204.972 137.656,204.167 135.219,202.49L132.969,208.843L140.526,219.961L144.673,217.872L146.085,206.255L154.143,213.725L164.936,210.695L161.259,221.696L166.523,230.665L156.555,230.166L151.084,235.782L164.406,246.782L188.109,240.899L179.434,263.221L185.817,259.87L186.464,250.871L193.67,256.605L203.199,253.957L199.844,262.898L204.64,271.016L195.463,270.338L192.081,274.603L207.168,286.808L228.226,282.278L220.755,302.749L225.342,309.778C225.549,309.835 225.755,309.893 225.96,309.924C225.666,309.453 225.372,308.982 225.107,308.513C224.49,307.512 224.813,306.217 225.872,305.658C226.871,305.101 228.166,305.454 228.783,306.425C229.784,308.07 230.783,309.689 231.753,311.307C232.989,311.599 234.196,311.893 235.4,312.189C234.461,310.66 233.548,309.157 232.637,307.658C232.019,306.628 232.343,305.335 233.4,304.776C234.401,304.248 235.694,304.571 236.313,305.57C237.931,308.217 239.578,310.894 241.194,313.569C242.4,313.836 243.636,314.128 244.841,314.424C243.253,311.836 241.664,309.247 240.077,306.659C238.988,304.865 240.959,302.749 242.84,303.748C243.509,304.108 244.177,304.469 244.843,304.829L248.838,306.989C249.317,307.248 249.796,307.506 250.276,307.765C250.379,307.576 250.482,307.387 250.584,307.198C250.317,306.293 250.049,305.396 249.783,304.482C247.018,303.012 244.281,301.513 241.518,300.042C240.517,299.513 240.077,298.218 240.577,297.19C241.076,296.103 242.341,295.69 243.399,296.249C244.96,297.102 246.518,297.924 248.076,298.777C247.723,297.571 247.371,296.395 247.018,295.19C245.313,294.277 243.636,293.395 241.958,292.485C240.959,291.925 240.548,290.661 241.019,289.631C241.518,288.544 242.783,288.13 243.841,288.69C244.312,288.955 244.812,289.22 245.313,289.483C244.929,288.278 244.577,287.072 244.224,285.838C244.023,285.16 244.163,284.436 244.575,283.901ZM213.167,309.954L206.11,309.63L202.021,314.013L199.874,307.747L193.845,304.953L199.521,301.454L200.228,295.394L205.433,299.336L211.668,297.544L209.609,304.599L213.167,309.954ZM155.375,302.319L156.59,302.277C164.329,302.2 170.507,302.827 175.815,304.198L188.611,295.747L189.787,285.807L168.466,283.867L155.375,302.319ZM107.035,274.082C108.329,274.985 109.66,276.009 110.857,277.11C118.807,277.975 126.529,282.987 133.249,291.662C136.834,296.291 139.263,300.809 140.439,303.202C143.545,302.912 146.452,302.691 149.19,302.536L149.921,302.51L146.173,278.69L122.881,269.162L131.38,263.516L117.117,262.221L107.035,274.082ZM264.016,263.749C262.955,264.303 262.039,264.78 261.267,265.18C261.267,265.18 263.063,267.102 263.063,267.102C263.308,267.363 263.403,267.686 263.304,268.082C263.227,268.394 263.054,268.642 262.781,268.824C262.762,268.837 262.742,268.849 262.722,268.859L260.265,270.157C259.679,270.441 259.172,270.344 258.741,269.882C258.741,269.882 256.601,267.593 256.601,267.593C250.189,270.977 246.087,273.21 244.297,274.296C242.538,275.362 241.231,276.397 240.387,277.412C240.082,277.779 239.924,278.066 240.158,278.317C240.456,278.635 240.923,278.836 241.539,278.96C242.271,279.108 243.193,279.136 244.303,279.054C246.626,278.882 249.603,278.15 253.238,276.87C253.241,276.869 253.243,276.868 253.246,276.867C253.542,276.767 253.774,276.823 253.946,276.924C254.149,277.043 254.368,277.29 254.352,277.764C254.344,277.984 254.313,278.425 254.258,279.089C254.206,279.717 254.178,280.065 254.175,280.135C254.174,280.172 254.17,280.21 254.162,280.246C254.071,280.685 253.823,280.958 253.446,281.091C250.991,282.054 248.851,282.792 247.025,283.306C247.574,283.562 248.013,284.051 248.194,284.66C248.547,285.865 248.929,287.072 249.281,288.278C249.548,287.808 249.811,287.306 250.077,286.837C250.636,285.777 251.929,285.456 252.928,286.073C253.929,286.661 254.252,287.954 253.722,288.984L250.987,294.014L252.046,297.571C252.899,296.014 253.752,294.485 254.575,292.925C255.153,291.882 256.389,291.551 257.41,292.131C260.737,283.138 262.991,273.625 264.016,263.749ZM104.771,289.696C106.401,289.696 107.724,290.993 107.724,292.591C107.724,294.189 106.401,295.487 104.771,295.487C103.142,295.487 101.819,294.189 101.819,292.591C101.819,290.993 103.142,289.696 104.771,289.696ZM180.406,265.78L186.67,268.633L189.904,280.014L180.406,265.78ZM148.319,266.869L155.231,262.661L156.053,255.31L162.348,260.104L169.905,257.927L167.407,266.456L171.7,272.926L163.171,272.515L158.23,277.839L155.642,270.249L148.319,266.869ZM182.864,139.811C184.312,141.494 185.154,143.494 185.386,145.812C185.636,148.321 184.951,150.551 183.331,152.501L183.331,152.501C181.184,155.085 177.962,156.304 173.639,156.087C169.69,155.89 165.728,154.599 161.755,152.204C161.337,153.37 160.642,155.397 159.671,158.284C158.423,161.997 157.27,164.971 156.215,167.208C155.271,169.211 154.183,171.002 152.955,172.582C157.476,172.015 162.157,171.447 163.708,170.724C164.014,169.543 164.572,168.463 165.384,167.486C166.321,166.359 167.413,165.604 168.652,165.21C170.102,164.749 171.125,164.962 171.748,165.628C172.478,166.409 172.679,167.44 172.255,168.735C171.947,169.68 171.461,170.567 170.795,171.396C171.521,172.161 173.009,173.605 175.26,175.73C177.603,177.942 179.317,179.483 180.403,180.351C180.41,180.356 180.417,180.362 180.424,180.368C180.673,180.584 180.853,180.891 180.928,181.306C181.007,181.741 180.966,182.333 180.773,183.08C180.481,184.206 180.032,185.204 179.43,186.076C178.74,187.076 177.995,187.598 177.258,187.724C177.213,187.732 177.168,187.735 177.123,187.733C174.901,187.66 171.766,187.502 167.717,187.258C164.454,187.062 162.074,186.936 160.575,186.881C161.368,190.008 160.931,193.061 159.255,196.038C163.69,196.85 168.244,196.474 172.914,194.92C174.31,193.779 175.91,192.813 177.717,192.026C180.679,190.735 183.673,190.209 186.695,190.444C189.796,190.684 192.255,191.795 194.082,193.75C195.488,195.254 196.284,196.793 196.501,198.351C196.725,199.966 196.235,201.53 194.989,203.029C193.4,204.941 191.287,205.974 188.643,206.115C186.091,206.252 183.705,205.828 181.485,204.848C179.502,203.973 177.828,202.925 176.461,201.711C175.962,202.153 175.508,202.621 175.098,203.114C174.23,204.159 173.676,205.187 173.454,206.208C173.262,207.091 173.46,207.853 174.057,208.491C174.559,209.028 175.194,209.515 175.959,209.956C176.749,210.412 177.803,210.827 179.119,211.207C180.43,211.586 182.072,211.674 184.043,211.487C185.366,211.362 186.752,211.095 188.202,210.687C194.209,208.349 198.975,206.217 202.5,204.288C202.508,203.193 202.781,202.361 203.265,201.779C204.113,200.758 205.01,200.215 205.92,200.093C206.921,199.958 207.753,200.252 208.419,200.965C208.994,201.58 209.267,202.351 209.215,203.286C209.166,204.155 208.824,204.988 208.168,205.778C208.076,205.889 207.967,205.995 207.842,206.097C207.842,206.097 207.894,206.458 207.893,206.451C208.136,207.611 208.302,208.502 208.391,209.122C208.482,209.75 208.558,210.552 208.62,211.528C208.686,212.574 208.598,213.479 208.366,214.247C208.126,215.037 207.765,215.72 207.286,216.296C206.808,216.871 206.143,217.374 205.283,217.791C205.278,217.793 205.273,217.795 205.269,217.798C197.151,221.505 192.335,224.211 190.86,225.986C190.534,226.378 190.348,226.674 190.566,226.93C190.596,226.942 190.717,226.986 190.814,227.006C191.069,227.056 191.405,227.079 191.821,227.08C192.728,227.082 194.241,226.828 196.361,226.333C197.885,225.977 199.569,225.493 201.413,224.885C202.742,223.841 204.249,222.951 205.937,222.215C208.899,220.924 211.892,220.399 214.915,220.633C218.016,220.874 220.474,221.985 222.302,223.94C223.707,225.443 224.503,226.982 224.72,228.541C224.945,230.156 224.454,231.719 223.208,233.219C221.619,235.13 219.506,236.164 216.863,236.305C214.31,236.441 211.925,236.018 209.705,235.038C207.721,234.162 206.047,233.115 204.68,231.9C204.182,232.342 203.727,232.81 203.317,233.304C202.449,234.348 201.895,235.377 201.673,236.398C201.482,237.28 201.679,238.042 202.276,238.681C202.778,239.217 203.413,239.704 204.178,240.146C204.968,240.602 206.023,241.016 207.338,241.396C208.65,241.775 210.292,241.863 212.263,241.677C213.966,241.516 215.775,241.119 217.689,240.489C219.742,239.318 222.75,237.695 226.712,235.618C226.712,235.618 225.592,234.419 225.592,234.419C225.348,234.158 225.253,233.835 225.351,233.439C225.444,233.064 225.647,232.84 225.887,232.719L228.391,231.364C228.976,231.08 229.483,231.177 229.914,231.639C229.914,231.639 231.378,233.204 231.378,233.204C233.478,232.113 237.132,230.217 242.34,227.516C242.633,227.355 242.906,227.303 243.151,227.325C243.439,227.351 243.705,227.475 243.935,227.721C243.935,227.721 247.508,231.543 247.508,231.543C247.726,231.776 247.837,232.082 247.785,232.474C247.731,232.891 247.511,233.176 247.125,233.323C242.381,235.811 238.879,237.641 236.62,238.813C236.62,238.813 238.417,240.734 238.417,240.734C238.661,240.996 238.756,241.319 238.658,241.715C238.58,242.027 238.407,242.275 238.134,242.457C238.115,242.47 238.096,242.481 238.075,242.492L235.618,243.79C235.033,244.074 234.526,243.977 234.094,243.515C234.094,243.515 231.954,241.226 231.954,241.226C225.542,244.609 221.44,246.843 219.65,247.928C217.891,248.995 216.584,250.03 215.74,251.045C215.435,251.412 215.277,251.699 215.512,251.95C215.809,252.268 216.276,252.468 216.892,252.593C217.624,252.741 218.546,252.769 219.656,252.686C221.374,252.559 223.45,252.125 225.886,251.391C227.256,250.287 228.822,249.351 230.583,248.583C233.546,247.292 236.539,246.766 239.562,247.001C242.663,247.241 245.121,248.352 246.949,250.307C248.354,251.81 249.15,253.349 249.367,254.908C249.592,256.523 249.101,258.087 247.855,259.586C246.266,261.498 244.153,262.531 241.51,262.672C238.957,262.809 236.571,262.385 234.352,261.405C232.368,260.529 230.694,259.482 229.327,258.268C228.829,258.71 228.374,259.178 227.964,259.671C227.096,260.716 226.542,261.744 226.32,262.765C226.128,263.648 226.326,264.409 226.923,265.048C227.425,265.585 228.06,266.072 228.825,266.513C229.615,266.969 230.67,267.383 231.985,267.764C233.297,268.143 234.939,268.23 236.91,268.044C238.613,267.883 240.422,267.486 242.336,266.857C244.389,265.686 247.397,264.062 251.359,261.985C251.359,261.985 250.239,260.787 250.239,260.787C249.994,260.525 249.899,260.202 249.998,259.806C250.091,259.431 250.294,259.208 250.534,259.086L253.037,257.731C253.623,257.447 254.13,257.544 254.561,258.006C254.561,258.006 256.025,259.572 256.025,259.572C257.786,258.656 260.642,257.174 264.592,255.125C264.629,253.932 264.647,252.733 264.647,251.53C264.647,199.197 230.261,154.831 182.864,139.811ZM147.614,232.049L144.82,230.696L143.791,255.398L134.762,261.428L125.41,247.222L131.822,229.929L118.175,232.842L124.468,224.782L141.879,226.077L146.467,227.666L147.614,232.049ZM119.086,254.046L112.822,253.753L109.175,257.664L107.263,252.074L101.883,249.603L106.941,246.486L107.559,241.076L112.205,244.605L117.764,242.987L115.939,249.28L119.086,254.046ZM244.476,253.843C244.513,253.882 244.548,253.916 244.556,253.956C244.497,254.319 244.264,254.642 243.897,254.954C243.411,255.366 242.709,255.738 241.797,256.084C241.794,256.085 241.791,256.086 241.788,256.087C238.914,257.223 235.979,257.069 232.981,255.646C235.163,254.424 237.376,253.612 239.621,253.211C240.872,252.988 241.923,252.935 242.774,253.065C243.512,253.177 244.085,253.425 244.476,253.843ZM38.529,208.386L38.529,208.385C46.182,189.096 58.815,172.312 74.84,159.624L81.208,162.053L82.972,168.258L82.767,183.904L71.943,191.05L83.883,196.05L87.855,208.372L95.118,198.786L105.411,199.608L105.236,202.256L89.267,212.696L94.647,215.812L90.854,216.784L83.56,210.814L82.619,220.018L76.913,224.022L77.134,221.508L70.233,225.491L68.898,240.692L63.397,243.868L64.721,228.667L57.821,232.651L56.497,247.851L48.358,252.545L49.015,240.1L38.561,246.893L38.561,237.506L51.06,228.753L51.06,220.776L38.561,229.529L38.561,223.177L51.06,214.425L51.06,206.458L38.561,215.2L38.561,208.304C38.551,208.331 38.54,208.358 38.529,208.386ZM90.405,246.962L78.534,241.424L86.103,237.056L86.354,237.871L92.03,230.813L99.088,231.635L98.528,241.254L95.617,243.135L90.405,246.962ZM31.575,236.388L31.57,236.425L33.114,237.506L33.114,246.893L30.492,245.189C30.547,244.811 30.933,241.108 31.57,236.425L31.517,236.388L31.575,236.388ZM30.492,245.189C30.489,245.211 30.487,245.222 30.486,245.221C30.485,245.221 30.485,245.209 30.486,245.186L30.492,245.189ZM75.799,236.709L84.451,231.707L83.649,229.107L76.755,225.819L75.799,236.709ZM219.829,227.476C219.866,227.515 219.901,227.548 219.909,227.589C219.85,227.952 219.617,228.275 219.25,228.587C218.764,228.999 218.062,229.371 217.15,229.717C217.147,229.718 217.144,229.719 217.142,229.72C214.268,230.856 211.332,230.701 208.334,229.278C210.516,228.057 212.729,227.244 214.974,226.844C216.226,226.621 217.276,226.567 218.128,226.697C218.865,226.81 219.438,227.057 219.829,227.476ZM107.263,220.52L109.706,230.254L99.941,222.37L99.795,222.489L98.97,227.401L96.177,223.46L98.765,217.284L107.263,220.52ZM93.177,226.989L90.149,226.843L88.383,228.724L87.472,226.019L84.855,224.843L87.324,223.314L87.618,220.725L89.853,222.401L92.53,221.638L91.648,224.666L93.177,226.989ZM126.44,216.108L120.145,215.812L116.498,219.726L114.586,214.137L109.206,211.666L114.292,208.549L114.911,203.138L119.557,206.668L125.116,205.05L123.264,211.343L126.44,216.108ZM191.61,197.286C191.646,197.325 191.681,197.359 191.689,197.399C191.631,197.762 191.398,198.086 191.031,198.397C190.545,198.81 189.842,199.181 188.931,199.527C188.928,199.528 188.925,199.529 188.922,199.531C186.048,200.667 183.113,200.512 180.114,199.089C182.297,197.868 184.51,197.055 186.755,196.655C188.006,196.431 189.057,196.378 189.908,196.508C190.646,196.62 191.219,196.868 191.61,197.286L191.61,197.286ZM138.601,192.939C138.748,192.988 138.901,193.046 139.059,193.112C139.889,193.455 140.702,193.835 141.498,194.251C142.309,194.675 143.387,195.256 144.732,195.993C145.5,196.413 146.223,196.793 146.904,197.132L146.906,197.132C145.088,197.619 143.262,197.721 141.426,197.437C139.817,197.188 138.498,196.752 137.478,196.11L138.601,192.939ZM88.56,187.874L89,183.875L92.441,186.462L96.559,185.286L95.206,189.934L97.529,193.464L92.883,193.227L90.207,196.138L88.794,191.992L84.796,190.168L88.56,187.874ZM122.154,166.488L120.41,173.642L124.939,180.934L115.852,180.434L110.588,186.345L120.587,195.844L130.529,193.264C130.715,191.754 131.341,190.356 132.409,189.071C133.392,187.888 134.481,187.154 135.66,186.844C136.838,186.534 138.143,186.632 139.571,187.167C140.886,187.66 142.157,188.258 143.384,188.962C144.578,189.647 146.117,190.515 148.001,191.568C149.704,192.519 151.252,193.305 152.645,193.924C153.106,193.501 153.528,193.059 153.91,192.599C154.626,191.738 155.11,190.747 155.363,189.628C155.581,188.665 155.532,187.689 155.221,186.698C155.031,186.695 154.902,186.696 154.834,186.704C154.808,186.707 154.782,186.708 154.756,186.708C154.121,186.704 153.633,186.533 153.277,186.243C152.902,185.938 152.653,185.492 152.571,184.886C152.437,183.902 152.781,182.857 153.677,181.778C154.258,181.08 155.014,180.793 155.951,180.932C156.716,181.046 157.33,181.329 157.801,181.765C163.492,181.986 168.156,182.072 171.792,182.022C168.21,179.131 165.841,177.063 164.682,175.822C164.472,175.598 164.282,175.349 164.113,175.075C161.897,176.019 152.754,176.689 147.407,177.587C146.261,178.252 145.066,178.75 143.822,179.084C140.602,179.946 137.5,179.806 134.513,178.668C131.568,177.545 128.88,175.689 126.454,173.094C124.605,171.116 123.172,168.914 122.154,166.488ZM105.177,177.786L107.648,178.611L108.822,185.317L106.618,183.551L105.794,195.139L100.999,188.844L105.177,177.786ZM93.736,180.111L87.148,174.111L94,165.053L106.353,165.935L106.001,170.64L99.236,174.612L103.528,177.081L93.736,180.111ZM116.763,176.111L113.733,175.994L111.971,177.875L111.058,175.169L108.441,173.965L110.91,172.464L111.206,169.876L113.441,171.553L116.118,170.788L115.234,173.817L116.763,176.111ZM146.659,134.368C131.807,134.47 117.607,137.342 104.546,142.494L100.942,154.083L106.706,162.818L107.087,160.464L113.647,166.671L121.453,164.568C120.625,161.872 120.44,159.012 120.901,155.987C121.405,152.681 122.804,149.641 125.105,146.873C127.479,144.016 130.23,142.41 133.342,142.025C136.537,141.629 139.057,142.451 140.917,144.44C143.116,146.793 144.134,149.84 143.937,153.59C143.742,157.311 142.799,160.152 141.156,162.13C140.129,163.366 139.009,163.724 137.852,163.334C137.336,163.21 137.065,162.955 136.948,162.719C136.798,162.416 136.789,162.008 137.166,161.555C138.038,160.505 138.463,158.834 138.513,156.562C138.563,154.308 138.068,152.581 136.965,151.401C136.197,150.579 135.286,150.25 134.226,150.427C133.071,150.619 131.984,151.373 130.932,152.639C128.748,155.267 127.558,158.025 127.383,160.922C127.211,163.751 127.971,166.087 129.687,167.924C132.015,170.414 134.676,171.639 137.682,171.572C140.702,171.504 143.491,169.878 146.084,166.757C147.455,165.107 148.658,163.224 149.694,161.107C150.747,158.956 151.845,156.375 152.99,153.365C154.037,150.611 154.848,148.564 155.423,147.223L154.862,146.623C152.261,143.84 150.176,141.08 148.605,138.345C147.803,136.949 147.154,135.623 146.659,134.368ZM86.315,151.601C87.191,151.063 88.074,150.537 88.964,150.023L90.412,151.113L94.853,149.819L93.383,154.877L95.913,158.7L90.883,158.466L87.972,161.583L86.442,157.113L82.119,155.113L86.206,152.613L86.315,151.601ZM163.995,147.043C164.752,145.614 165.549,144.395 166.386,143.387C168.07,141.361 170.265,140.447 172.967,140.638C175.713,140.831 177.91,141.792 179.548,143.544C180.258,144.304 180.055,145.208 179.162,146.283C177.886,147.817 175.744,148.661 172.769,148.894C169.88,149.12 166.957,148.499 163.995,147.043L163.995,147.043ZM152.808,134.484C153.074,135.22 153.412,135.995 153.821,136.808C154.76,138.679 156.097,140.539 157.828,142.391C157.839,142.402 157.85,142.414 157.862,142.426C158.654,141.119 159.475,139.954 160.327,138.93C161.523,137.491 162.851,136.371 164.309,135.567C160.534,135.023 156.696,134.658 152.808,134.484ZM190.851,122.537C185.076,120.594 179.124,119.027 173.029,117.866C172.302,116.555 171.546,115.16 170.789,113.763C170.701,113.586 170.612,113.44 170.553,113.292C167.788,108.204 165.966,102.528 164.525,96.881L190.551,120.732L191.082,121.733C191.082,121.733 190.915,122.01 190.851,122.537ZM125.937,117.167C119.656,118.168 113.518,119.599 107.556,121.429L107.294,120.646L108.941,118.086L136.673,96.205C134.644,102.265 132.145,108.264 128.586,113.469L128.557,113.469C128.498,113.586 128.438,113.675 128.35,113.763C128.321,113.851 128.232,113.969 128.115,114.117C127.649,114.758 126.867,115.917 125.937,117.167ZM146.613,68.032C147.878,66.854 149.555,66.237 151.29,66.297C152.996,66.355 154.643,67.091 155.79,68.384C156.966,69.619 157.614,71.295 157.525,73.001C157.466,74.736 156.701,76.354 155.465,77.532C154.172,78.706 152.526,79.325 150.79,79.265C149.084,79.207 147.438,78.471 146.29,77.178C145.114,75.943 144.467,74.265 144.527,72.561C144.615,70.795 145.38,69.208 146.613,68.032ZM218.52,31.741C229.578,28.212 233.813,36.799 228.96,47.444C215.961,58.68 199.552,65.119 182.376,65.678C188.728,49.532 201.992,37.064 218.52,31.741ZM75.208,41.739C71.121,30.771 76.001,22.536 86.736,26.888C102.823,33.417 115.117,46.798 120.293,63.355C103.205,61.562 87.296,53.915 75.208,41.739Z" style="fill:none;stroke:rgb(255,0,0);stroke-width:1px;"/>
</svg>
