<?xml version="1.0" encoding="UTF-8" standalone="no"?>
<!DOCTYPE svg PUBLIC "-//W3C//DTD SVG 1.1//EN" "http://www.w3.org/Graphics/SVG/1.1/DTD/svg11.dtd">
<svg width="100%" height="100%" viewBox="0 0 1123 794" version="1.1" xmlns="http://www.w3.org/2000/svg" xmlns:xlink="http://www.w3.org/1999/xlink" xml:space="preserve" xmlns:serif="http://www.serif.com/" style="fill-rule:evenodd;clip-rule:evenodd;stroke-linejoin:round;stroke-miterlimit:2;">
    <path d="M144.768,40.265C146.525,40.302 148.11,40.912 149.422,41.91C150.863,43.057 151.891,44.704 152.273,46.587C152.802,46.587 182.859,16.178 188.975,12.177C194.836,8.337 202.831,5.966 211.003,5.93C211.404,5.929 211.807,5.932 212.21,5.942C221.975,6.413 230.502,10.413 234.032,19.412C239.942,32.998 232.913,47.381 232.854,60.821C232.825,76.702 247.707,93.348 235.179,108.435C229.972,113.729 222.856,118.846 215.857,121.903L215.797,121.903L214.909,122.185L213.44,122.66C235.271,137.575 252.544,158.68 262.718,183.428L263.146,184.482L263.635,185.717L264.183,187.147L264.715,188.58L264.956,189.247L265.465,190.694L265.958,192.147L266.475,193.735L266.941,195.223L267.39,196.719L267.822,198.222L268.318,200.033L268.765,201.757L269.14,203.283L269.499,204.816L269.84,206.356L270.097,207.582L270.267,208.418L270.567,209.973L270.849,211.533L271.113,213.1L271.309,214.338L271.419,215.073L271.66,216.779L271.864,218.366L272.05,219.958L272.182,221.204L272.257,221.958L272.366,223.158L272.397,223.517L272.519,225.075L272.624,226.63L272.71,228.177L272.746,228.945L272.807,230.524L272.85,232.102C272.861,232.627 272.87,233.152 272.875,233.676L272.882,235.204L272.88,235.812C272.877,236.27 272.873,236.727 272.866,237.183L272.845,238.277C272.836,238.637 272.827,238.997 272.816,239.357L272.77,240.666L272.707,242.056L272.66,242.916C272.616,243.693 272.566,244.469 272.509,245.242L272.378,246.891L272.235,248.448L272.115,249.632L271.964,250.996L271.773,252.558L271.607,253.813L271.429,255.064L271.176,256.717L270.983,257.897L270.743,259.275L270.405,261.091L270.108,262.584L269.863,263.752L269.428,265.714L269.074,267.212L268.795,268.344L268.42,269.801L268.042,271.21L267.725,272.344L267.361,273.601L266.892,275.16L266.363,276.838L265.822,278.487L265.452,279.56L265.025,280.738L264.863,281.178C264.752,281.514 264.639,281.848 264.5,282.186C263.205,285.714 261.764,289.155 260.177,292.537C259.764,293.448 259.353,294.331 258.911,295.213C258.206,296.654 257.441,298.096 256.707,299.508C256.647,299.565 256.619,299.654 256.588,299.713C255.177,302.329 253.677,304.919 252.09,307.419L251.385,308.513L250.98,309.103L250.316,310.136L249.767,310.943L249.354,311.546L249.354,311.565C249.088,312.005 248.794,312.416 248.472,312.829C247.32,314.5 246.13,316.138 244.904,317.745L244.816,317.86C243.221,319.948 241.565,321.984 239.854,323.976L239.073,324.871L238.079,325.991L237.478,326.655L236.874,327.314L236.265,327.97L235.652,328.622L235.034,329.27L234.413,329.913L233.787,330.553L233.157,331.188L232.523,331.819L231.885,332.446L231.243,333.069L230.597,333.688L229.946,334.303L229.292,334.913L228.634,335.519L227.305,336.718L225.961,337.9L224.601,339.064L223.226,340.21L221.835,341.339L220.43,342.45L219.251,343.358L218.294,344.082L217.12,344.95L216.125,345.672L214.957,346.501L213.924,347.22L212.763,348.011L211.691,348.725L210.538,349.478L209.428,350.187L208.283,350.903L207.134,351.605L205.999,352.284L204.81,352.979L203.686,353.621L202.128,354.488L200.557,355.336L199.718,355.777L198.921,356.19L198.122,356.597L197.319,356.999L196.514,357.396L195.706,357.788L194.894,358.175L194.08,358.556L193.263,358.932L192.443,359.303L191.621,359.668L190.795,360.029L189.967,360.383L189.136,360.733L188.303,361.077L187.466,361.416L186.627,361.749L185.472,362.197L184.208,362.674L183.508,362.932C175.658,365.798 167.471,367.962 159.021,369.348L157.605,369.572L156.197,369.781L154.318,370.035L152.436,370.263L150.549,370.465L148.516,370.653L146.646,370.8L144.654,370.927L142.787,371.02L140.923,371.087L139.53,371.121L138.144,371.142L136.819,371.148L135.472,371.141L135.01,371.136L133.308,371.103L132.116,371.068L131.571,371.048C131.011,371.027 130.452,371.002 129.893,370.974L128.91,370.921L128.07,370.87L126.787,370.783L125.344,370.67L124.595,370.605L123.757,370.528L122.78,370.431L121.461,370.29L119.917,370.108L119.147,370.01L118.622,369.94C61.059,362.253 14.891,318.582 3.474,262.277L3.239,261.09L2.955,259.579L2.689,258.062L2.439,256.54L2.206,255.012L1.989,253.478L1.79,251.939L1.609,250.395L1.444,248.846L1.295,247.267L1.199,246.139L1.071,244.412L1.03,243.782L0.93,242.013L0.887,241.098L0.867,240.61L0.814,239.101L0.782,237.765L0.762,236.427L0.756,235.069L0.761,233.92L0.78,232.504L0.814,231.055L0.874,229.343L0.941,227.924L1.04,226.215L1.16,224.51L1.339,222.399L1.503,220.733L1.754,218.52L1.965,216.867L2.116,215.769L2.36,214.126L2.623,212.491L2.832,211.276L3.004,210.32L3.25,209.022L3.391,208.305L3.7,206.805L3.847,206.115L4.228,204.413L4.525,203.156L4.699,202.441L5.07,200.971L5.248,200.286L5.705,198.602L6.047,197.393L6.255,196.679L6.685,195.245L7.142,193.78L7.652,192.213L8.179,190.657L8.724,189.112L9.286,187.576L9.865,186.051L10.462,184.535L11.076,183.028L11.589,181.809L12.228,180.334L12.884,178.867L13.557,177.41L14.247,175.963L14.953,174.524L15.675,173.096L16.414,171.677L17.169,170.268L17.681,169.334L18.2,168.404L18.727,167.479L19.26,166.559L19.8,165.643L20.347,164.732L20.901,163.825L21.462,162.923L21.995,162.081C24.011,158.918 26.155,155.843 28.418,152.865L29.105,151.969L30.119,150.673L31.137,149.404L32.163,148.156L33.2,146.924L34.249,145.708L35.309,144.506L36.64,143.037L37.833,141.756L39.206,140.322L40.549,138.958L41.845,137.678L43.198,136.376L44.743,134.932L46.31,133.513L47.5,132.464L48.702,131.429L49.916,130.407L51.142,129.4L52.38,128.406L53.63,127.427L54.892,126.462L56.165,125.511L57.449,124.575L58.745,123.654L60.052,122.747L61.369,121.855L62.698,120.978L64.037,120.117L64.936,119.551L65.84,118.992C65.398,118.817 65.044,118.669 64.75,118.492L64.722,118.492C55.281,115.374 48.341,108.758 41.958,101.287C30.577,85.318 46.666,69.791 47.751,53.967C48.723,40.557 42.782,25.706 49.694,12.56C53.84,3.853 62.664,0.531 72.427,0.768C81.014,1.208 89.338,4.267 95.161,8.707C107.57,18.236 119.159,31.999 128.776,45.146C128.776,44.116 130.394,42.292 132.157,41.293C133.276,40.617 134.598,40.263 136.01,40.263L144.597,40.263L144.768,40.265ZM233.106,301.981L233,302.134C230.483,303.681 227.993,305.253 225.474,306.802C223.721,307.892 224.466,310.555 226.475,310.623C225.699,311.543 224.907,312.453 224.102,313.349L223.767,313.36C222.62,313.389 221.681,314.328 221.65,315.475C221.645,315.641 221.659,315.803 221.69,315.957C200.328,338.368 170.192,352.34 136.819,352.34C129.603,352.34 122.539,351.687 115.679,350.436L134.186,327.506L164.772,329.681L159.508,320.888L165.184,312.093L175.802,312.975L170.243,303.566L173.565,295.625L181.093,299.3L186.535,320.035L200.475,303.418L218.297,304.448C218.326,304.8 218.445,305.153 218.65,305.447C219.327,306.417 220.62,306.683 221.621,306.066C224.267,304.448 226.915,302.799 229.591,301.155C230.762,301.438 231.935,301.697 233.106,301.981ZM107.895,341.033L113.364,348.678L110.159,337.003L107.895,341.033ZM104.571,345.769L100.63,345.592L99.878,346.393C99.065,346.123 98.255,345.844 97.449,345.556L97.102,344.532L93.718,342.975L96.925,341.004L97.306,337.591L100.219,339.797L103.749,338.798L102.571,342.768L104.571,345.769ZM85.131,273.303L79.354,270.4L80.178,272.648C80.193,272.692 80.209,272.736 80.222,272.78C81.181,275.96 79.411,279.432 76.27,280.531C74.342,281.206 72.35,280.866 70.84,279.792C71.014,281.638 70.315,283.537 68.77,284.872C67.596,285.888 66.126,286.394 64.662,286.394C62.977,286.394 61.301,285.725 60.085,284.426C60.052,284.392 60.022,284.357 59.993,284.321L57.193,280.956L57.193,288.369C57.193,291.684 54.444,294.418 50.997,294.418C47.547,294.418 44.798,291.684 44.798,288.369L44.798,280.956L41.998,284.321C41.969,284.357 41.939,284.392 41.906,284.426C39.633,286.853 35.746,287.057 33.221,284.874L33.221,284.872C31.676,283.537 30.977,281.638 31.152,279.792C30.457,280.285 29.66,280.624 28.814,280.779C39.992,307.142 60.547,328.582 86.29,340.908L91.19,337.739L92.396,325.651L101.189,333.062L108.66,330.739L105.749,320.828L76.779,308.771L84.691,302.624L82.543,295.744L74.367,291.949L81.926,286.273L82.749,277.684L87.308,281.333L85.131,273.303ZM117.923,310.182L108.954,306.066L117.395,300.861L118.423,291.83L126.187,297.713L135.451,295.037L132.392,305.535L137.657,313.475L127.187,312.975L121.099,319.533L117.923,310.182ZM158.478,319.476L151.155,307.801L156.126,310.066L158.478,319.476ZM156.891,305.007L159.832,303.212L160.184,300.067L162.889,302.125L166.096,301.183L165.036,304.83L166.861,307.595L163.243,307.419L161.125,309.711L160.007,306.448L156.891,305.007ZM169.832,294.508L163.95,296.566L155.684,289.92L154.539,300.772L148.686,303.77L158.714,273.038L151.862,274.421L157.803,267.421L179.124,269.362L177.948,279.302L160.979,290.508L169.832,294.508ZM223.767,299.771C222.62,300.476 221.444,301.212 220.268,301.948L218.827,299.713C219.267,299.448 219.709,299.183 220.151,298.889C221.356,299.183 222.561,299.477 223.767,299.771ZM91.073,297.625L88.014,301.654L94.543,297.832L91.073,297.625ZM254.051,237.42C253.908,237.542 253.755,237.659 253.59,237.771C252.241,238.693 250.56,239.059 248.54,238.832C248.361,238.812 248.185,238.788 248.011,238.76C248.01,238.82 248.006,238.881 247.998,238.942C247.936,239.403 247.694,239.725 247.278,239.912C247.249,239.925 247.22,239.936 247.19,239.944C235.49,243.344 221.376,247.216 218.031,248.52C214.809,249.776 212.639,250.973 211.545,252.155C211.27,252.453 211.103,252.734 211.099,253.026C211.095,253.307 211.248,253.572 211.505,253.848C211.81,254.175 212.338,254.438 213.067,254.677C214.329,255.091 216.141,255.385 218.501,255.571C222.511,255.887 227.357,255.689 233.04,254.982C233.092,254.975 233.144,254.975 233.196,254.981C233.544,255.02 233.785,255.156 233.945,255.328C234.121,255.516 234.228,255.765 234.215,256.08C234.249,256.43 234.292,257.108 234.346,258.113C234.346,258.113 234.428,259.655 234.426,259.641C234.47,260.082 234.343,260.388 234.159,260.586C234.007,260.751 233.801,260.866 233.526,260.899C228.675,261.609 224.632,262.027 221.396,262.155C218.09,262.285 215.368,262.029 213.229,261.399C211.066,260.761 209.425,260.063 208.3,259.316C207.182,258.575 205.948,257.486 204.602,256.047C202.737,254.052 201.694,251.786 201.463,249.255C201.268,247.118 201.714,245.266 202.792,243.694C202.554,243.7 202.317,243.704 202.079,243.708C199.895,243.743 198.001,243.555 196.397,243.151C194.811,242.752 193.21,242.212 191.595,241.533C191.431,241.464 191.269,241.392 191.107,241.318L189.181,246.452L193.977,254.57L184.8,253.892L181.418,258.158L196.505,270.363L217.563,265.832L210.092,286.304L214.679,293.332C214.886,293.39 215.092,293.448 215.297,293.478C215.003,293.008 214.709,292.537 214.444,292.068C213.827,291.067 214.15,289.772 215.209,289.213C216.208,288.655 217.503,289.009 218.12,289.979C219.121,291.624 220.12,293.244 221.091,294.862C222.326,295.154 223.533,295.448 224.738,295.744C223.798,294.214 222.885,292.712 221.975,291.213C221.356,290.183 221.681,288.89 222.737,288.331C223.738,287.802 225.032,288.125 225.65,289.124C227.268,291.772 228.915,294.449 230.531,297.123C231.737,297.39 232.973,297.682 234.178,297.978C232.591,295.39 231.002,292.802 229.414,290.214C228.325,288.419 230.296,286.304 232.178,287.303C234.692,288.656 237.18,290.008 239.692,291.362L239.958,290.875C239.678,289.929 239.398,288.992 239.12,288.037C236.355,286.567 233.619,285.068 230.856,283.596C229.854,283.068 229.414,281.773 229.914,280.745C230.414,279.657 231.678,279.244 232.737,279.803C234.297,280.656 235.855,281.479 237.414,282.332C237.06,281.125 236.708,279.949 236.355,278.744C234.65,277.832 232.973,276.95 231.296,276.039C230.296,275.48 229.885,274.216 230.356,273.186C230.856,272.098 232.12,271.685 233.179,272.244C233.649,272.509 234.149,272.774 234.65,273.038C234.266,271.833 233.915,270.626 233.561,269.393C233.238,268.303 233.795,267.097 234.943,266.745C236.061,266.422 237.208,267.127 237.531,268.215C237.884,269.42 238.267,270.626 238.618,271.833C238.885,271.362 239.149,270.861 239.414,270.392C239.973,269.331 241.266,269.01 242.265,269.627C243.266,270.215 243.589,271.508 243.059,272.538L240.325,277.569C240.678,278.744 241.03,279.949 241.383,281.125C242.236,279.569 243.09,278.039 243.912,276.479C244.5,275.42 245.766,275.096 246.796,275.714L246.825,275.733C251.257,263.761 253.788,250.866 254.051,237.42ZM202.504,293.509L195.447,293.184L191.358,297.567L189.212,291.301L183.182,288.507L188.858,285.008L189.565,278.948L194.77,282.891L201.006,281.098L198.946,288.154L202.504,293.509ZM92.631,293.39L89.278,293.213L87.308,295.331L86.279,292.331L83.396,291.007L86.132,289.332L86.455,286.419L88.926,288.302L91.926,287.449L90.927,290.83L92.631,293.39ZM95.661,275.126L103.66,275.774L102.836,292.331L98.924,294.566L95.807,289.772L98.543,281.596L89.338,283.271L95.661,275.126ZM98.806,255.804L106.454,245.776L120.717,247.071L112.218,252.716L135.51,262.245L139.303,278.155L128.657,280.979L104.542,260.512L103.66,269.596L100.984,266.009L104.69,255.07L98.806,255.804ZM33.617,275.518L35.978,260.906L44.798,256.088L45.284,265.759L33.617,275.518ZM68.374,275.516L56.423,266.816L57.193,256.088L66.785,261.932L68.374,275.516ZM95.955,263.598C95.955,263.598 93.726,264.232 93.726,264.232C94.485,265.959 94.443,268.037 93.413,269.845L96.72,269.979C96.72,269.979 94.896,267.246 94.896,267.246L95.955,263.598ZM169.743,249.334L176.007,252.188L179.241,263.569L169.743,249.334ZM137.657,250.424L144.568,246.216L145.391,238.864L151.685,243.658L159.242,241.481L156.745,250.011L161.037,256.48L152.508,256.069L147.568,261.394L144.979,253.804L137.657,250.424ZM93.065,254.373C92.686,254.936 92.218,255.437 91.68,255.854L93.838,257.628C93.838,257.628 93.065,254.373 93.065,254.373ZM19.892,243.913L30.396,239.854L39.892,245.33L30.696,251.158L20.154,246.913C20.055,245.921 19.967,244.919 19.892,243.913ZM177.771,247.63L179.977,246.275L180.242,243.924L182.271,245.453L184.683,244.775L183.889,247.511L185.242,249.569L182.534,249.452L180.947,251.158L180.094,248.718L177.771,247.63ZM85.767,245.33L71.954,250.362L62.099,245.33L72.204,240.111L85.767,245.33ZM176.219,227.61L168.771,246.775L175.154,243.424L175.802,234.426L183.007,240.159L187.349,238.953C187.207,238.838 187.066,238.72 186.926,238.599C185.498,237.368 184.024,235.94 182.504,234.314C181.018,232.724 179.413,230.818 177.691,228.595C177.374,228.435 177.008,228.206 176.595,227.903C176.486,227.823 176.361,227.725 176.219,227.61ZM90.909,245.299L90.892,245.226C90.821,245.263 90.748,245.297 90.675,245.33C90.767,245.374 90.859,245.418 90.949,245.466L90.909,245.299ZM136.951,215.603L134.158,214.25L133.128,238.953L124.099,244.982L114.747,230.777L121.159,213.484L107.513,216.397L113.805,208.336L131.216,209.631L135.804,211.22L136.951,215.603ZM108.423,237.6L102.159,237.308L98.513,241.218L96.601,235.629L91.221,233.158L96.278,230.041L96.897,224.63L101.543,228.16L107.101,226.542L105.276,232.835L108.423,237.6ZM131.543,117.947C118.318,118.533 105.659,121.315 93.918,125.938L90.279,137.638L96.043,146.373L96.424,144.019L102.984,150.225L112.042,147.785L109.747,157.196L112.634,161.844C112.611,161.629 112.593,161.412 112.58,161.193C112.36,157.709 113.033,155.189 114.495,153.608C115.132,152.92 115.787,152.481 116.443,152.27C117.317,151.988 117.962,152.161 118.403,152.632C118.45,152.682 118.516,152.769 118.572,152.91C118.634,153.065 118.723,153.418 118.825,153.972C118.913,154.449 119.11,154.856 119.42,155.188C120.515,156.36 121.637,157.325 122.787,158.083C123.927,158.835 125.566,159.451 127.695,159.95C129.869,160.459 132.382,160.658 135.233,160.554C138.124,160.448 141.862,159.938 146.447,159.028C151.057,158.113 156.315,156.77 162.221,155C172.074,151.991 180.164,150.84 186.488,151.522C192.921,152.216 197.996,154.572 201.727,158.563C203.248,160.19 203.697,161.705 203.245,163.047L203.252,163.026C203.086,163.631 202.791,163.939 202.532,164.055C202.188,164.209 201.727,164.185 201.257,163.681C199.436,161.733 196.834,160.668 193.471,160.444C189.978,160.212 186.16,160.666 182.013,161.798C177.804,162.948 173.286,164.401 168.459,166.157C163.607,167.922 158.71,169.615 153.767,171.234C152.829,171.541 151.898,171.836 150.976,172.117C150.979,172.321 150.967,172.53 150.939,172.743C150.418,176.625 150.898,178.912 151.247,180.145C151.495,181.022 151.861,181.625 152.342,182.009C153.07,182.589 154.031,182.656 155.097,182.542C155.952,182.45 156.869,182.232 157.803,181.992C157.87,181.964 157.936,181.936 158.003,181.909C161.209,180.582 175.064,176.653 186.224,173.39C186.231,173.388 186.239,173.386 186.246,173.384C186.913,173.214 187.561,173.403 188.158,174.041L188.275,174.167C188.556,173.35 189.12,172.647 189.976,172.062C191.325,171.14 193.006,170.774 195.026,171.001C196.999,171.222 198.723,171.941 200.2,173.155C201.732,174.412 202.571,175.833 202.758,177.392C202.957,179.055 202.339,180.389 200.883,181.384C199.534,182.306 197.853,182.673 195.832,182.446C195.671,182.428 195.511,182.406 195.352,182.381L195.344,182.455C195.282,182.916 195.04,183.238 194.624,183.425C194.596,183.438 194.566,183.449 194.537,183.457C182.836,186.857 168.669,190.83 165.324,192.133C162.102,193.389 159.932,194.587 158.838,195.768C158.563,196.066 158.396,196.348 158.392,196.639C158.388,196.92 158.54,197.186 158.798,197.461C159.103,197.788 159.631,198.051 160.36,198.291C161.622,198.704 163.433,198.999 165.794,199.185C169.804,199.5 174.65,199.302 180.333,198.595C180.385,198.589 180.437,198.589 180.489,198.594C180.504,198.596 180.518,198.598 180.53,198.599L180.604,198.577L221.071,186.837C221.078,186.835 221.085,186.833 221.092,186.831C221.759,186.661 222.407,186.85 223.004,187.489C223.004,187.489 229.805,194.764 229.805,194.764C230.117,195.098 230.241,195.45 230.23,195.798C230.216,196.249 229.999,196.592 229.538,196.799C229.51,196.812 229.481,196.822 229.451,196.831C229.451,196.831 205.639,203.732 205.639,203.732C208.566,204.68 210.964,206.161 212.837,208.165C215.576,211.095 216.933,214.193 216.946,217.443C216.959,220.708 215.794,223.613 213.443,226.155C210.82,228.989 207.101,231.083 202.272,232.412C198.241,233.522 194.171,233.795 190.058,233.229C192.823,235.434 195.894,236.75 199.273,237.172C203.438,237.693 208.906,237.511 215.676,236.636C221.5,234.85 230.87,232.218 238.877,229.877C238.885,229.875 238.892,229.873 238.9,229.871C239.566,229.701 240.214,229.89 240.811,230.528L240.943,230.67C241.209,229.803 241.787,229.061 242.683,228.448C244.032,227.526 245.713,227.16 247.734,227.387C249.706,227.608 251.43,228.328 252.907,229.541C253.318,229.878 253.678,230.227 253.99,230.587C252.357,187.449 227.378,150.247 191.335,131.265C192.77,132.629 194.191,134.064 195.598,135.569C198.096,138.242 202.629,143.507 209.197,151.367C215.744,159.201 221.932,166.237 227.762,172.474C228.946,173.74 230.102,174.661 231.238,175.227C232.343,175.777 233.223,176.101 233.883,176.175C234.818,176.28 235.412,176.549 235.709,176.866C236.123,177.309 236.303,177.893 236.194,178.634C236.1,179.274 235.826,179.844 235.366,180.341C234.727,181.032 233.891,181.645 232.852,182.174C231.836,182.692 230.631,183.063 229.236,183.28C227.814,183.502 226.234,183.278 224.501,182.586C222.814,181.912 221.192,180.752 219.643,179.095C217.299,176.588 214.555,172.916 211.413,168.075C208.302,163.28 204.794,158.061 200.89,152.418C197.001,146.798 192.942,141.725 188.713,137.201C184.751,132.962 180.318,129.711 175.414,127.45C170.52,125.195 165.832,123.971 161.348,123.788C156.87,123.605 152.703,124.16 148.846,125.458C145.031,126.742 141.95,128.643 139.61,131.172C138.004,132.907 137.16,134.761 137.104,136.746C137.048,138.717 137.849,140.562 139.47,142.296C141.676,144.657 144.435,145.956 147.745,146.199C150.964,146.435 153.221,145.944 154.482,144.581C154.783,144.256 155.1,144.144 155.385,144.151C155.667,144.158 155.963,144.278 156.229,144.591C156.437,144.836 156.652,145.25 156.841,145.846C157.56,147.758 157.283,149.367 156.065,150.683C153.768,153.167 149.981,154.23 144.671,153.748C139.466,153.276 134.842,150.892 130.809,146.578C127.478,143.014 125.577,138.593 125.117,133.31C124.653,127.979 126.066,123.553 129.332,120.024C130.015,119.285 130.752,118.593 131.543,117.947ZM33.617,215.144L45.803,224.221L44.798,234.574L35.216,230.049L33.617,215.144ZM68.374,215.144L65.894,229.603L57.193,234.572L57.247,224.607L68.374,215.144ZM152.317,200.103L150.596,205.25L155.861,214.22L145.892,213.72L140.422,219.337L153.743,230.337L173.738,225.374C173.031,224.66 172.44,223.951 171.965,223.247C171.311,222.278 170.915,221.16 170.786,219.891C170.649,218.543 171.055,217.349 172.012,216.314C173.09,215.15 174.436,214.731 176.056,215.073C177.549,215.389 178.92,216.199 180.157,217.523C181.056,218.485 181.935,220.049 182.77,222.226C186.638,222.743 190.98,222.236 195.797,220.721C200.752,219.164 204.411,217.133 206.759,214.596C207.61,213.675 208.055,212.841 208,212.05C207.966,211.566 207.734,211.115 207.331,210.684C206.762,210.076 205.932,209.559 204.851,209.116C203.704,208.646 202.199,208.271 200.337,207.983C198.462,207.694 196.019,207.756 193.008,208.159C189.947,208.569 186.543,209.289 182.795,210.321L170.227,214.036C170.188,214.048 170.148,214.056 170.107,214.06C169.668,214.106 169.234,213.954 168.836,213.528C168.248,212.9 167.842,212.108 167.628,211.147C167.421,210.217 167.461,209.18 167.767,208.036C167.967,207.283 168.309,206.525 168.796,205.764L168.689,205.768C165.383,205.899 162.661,205.642 160.522,205.012C158.359,204.375 156.718,203.676 155.593,202.93C154.593,202.266 153.499,201.325 152.317,200.103ZM64.079,143.141L70.546,145.608L72.309,151.812L72.104,167.459L61.28,174.605L73.22,179.604L77.192,191.927L84.455,182.341L94.748,183.163L94.574,185.811L78.604,196.25L83.984,199.367L80.191,200.339L72.897,194.369L71.956,203.573L68.783,205.8L68.77,205.788C66.245,203.605 62.358,203.809 60.085,206.234C60.052,206.269 60.022,206.305 59.993,206.34L57.193,209.706L57.193,202.293C57.193,198.979 54.444,196.242 50.997,196.242C47.547,196.242 44.798,198.979 44.798,202.293L44.798,209.706L41.998,206.34C41.969,206.305 41.939,206.269 41.906,206.234C39.633,203.809 35.746,203.605 33.221,205.788C31.676,207.124 30.977,209.024 31.152,210.871C29.641,209.796 27.649,209.456 25.722,210.131C22.578,211.23 20.81,214.7 21.769,217.88C21.783,217.926 21.796,217.97 21.813,218.015L23.325,222.142L20.466,220.486C24.353,189.233 40.563,161.778 64.079,143.141ZM81.367,214.368L80.453,215.505C80.529,216.287 80.46,217.092 80.222,217.88C80.209,217.926 80.195,217.97 80.178,218.015L78.666,222.142L85.066,218.437C86.073,217.855 87.185,217.602 88.282,217.649L88.425,215.19L81.367,214.368ZM85.514,207.014L88.102,200.839L96.601,204.074L99.043,213.808L89.278,205.925L89.132,206.044L88.308,210.955L85.514,207.014ZM82.514,210.544L80.985,208.221L81.867,205.193L79.19,205.955L76.956,204.28L76.662,206.868L74.192,208.398L76.81,209.574L77.123,210.504C77.62,210.767 78.073,211.095 78.475,211.475L79.486,210.398L82.514,210.544ZM146.862,208.692L143.215,208.544L141.127,210.807L140.01,207.573L136.892,206.132L139.834,204.309L140.185,201.192L142.862,203.219L146.098,202.31L145.039,205.955L146.862,208.692ZM149.368,195.627C149.047,194.746 148.843,193.826 148.756,192.868C148.679,192.019 148.703,191.215 148.829,190.457C147.483,189.632 146.311,188.507 145.318,187.077C144.193,185.459 143.389,184.023 142.899,182.774C142.406,181.517 142.068,179.766 141.899,177.518C141.831,176.603 141.845,175.605 141.942,174.524L141.942,174.524C141.132,174.707 140.329,174.878 139.532,175.038C135.575,175.834 131.815,176.023 128.251,175.608L122.306,192.398L129.863,203.515L134.01,201.427L135.422,189.809L143.481,197.28L149.368,195.627ZM103.629,192.104L104.248,186.693L108.894,190.222L114.453,188.605L112.601,194.897L115.777,199.663L109.482,199.367L105.835,203.281L103.923,197.691L98.543,195.22L103.629,192.104ZM194.689,182.295L194.677,182.406C194.752,182.382 194.821,182.345 194.883,182.297C194.831,182.286 194.78,182.275 194.729,182.264L194.689,182.295ZM77.897,171.429L78.337,167.43L81.778,170.016L85.896,168.84L84.543,173.488L86.866,177.018L82.22,176.782L79.544,179.693L78.132,175.546L74.133,173.723L77.897,171.429ZM113.138,164.426L105.19,163.989L99.925,169.899L109.924,179.399L125.93,175.245C122.076,174.462 118.894,172.721 116.381,170.032C114.829,168.372 113.748,166.503 113.138,164.426ZM94.514,161.341L96.985,162.165L98.159,168.871L95.955,167.105L95.131,178.694L90.337,172.399L94.514,161.341ZM83.074,163.666L76.485,157.665L83.337,148.607L95.69,149.489L95.338,154.195L88.573,158.167L92.865,160.636L83.074,163.666ZM106.1,159.665L103.07,159.548L101.308,161.429L100.396,158.724L97.779,157.519L100.248,156.018L100.544,153.43L102.778,155.108L105.455,154.343L104.571,157.371L106.1,159.665ZM75.665,135.043C76.512,134.523 77.364,134.016 78.223,133.519L79.749,134.667L84.19,133.374L82.72,138.431L85.251,142.255L80.22,142.02L77.309,145.137L75.78,140.668L71.456,138.668L75.543,136.168L75.665,135.043ZM153.862,80.436L179.889,104.287L180.419,105.288L180.29,105.606L180.195,106.039L180.189,106.092C174.413,104.148 168.461,102.581 162.366,101.421L161.821,100.432L161.261,99.409L160.126,97.318C160.038,97.141 159.95,96.995 159.89,96.847C157.125,91.759 155.303,86.083 153.862,80.436ZM126.011,79.759C123.982,85.819 121.482,91.818 117.923,97.024L117.894,97.024C117.835,97.141 117.775,97.229 117.687,97.318C117.658,97.406 117.57,97.523 117.452,97.671L117.042,98.249L116.246,99.381L115.61,100.266L115.274,100.721C108.993,101.722 102.856,103.153 96.893,104.984L96.631,104.2L98.278,101.641L126.011,79.759ZM140.465,49.848L140.627,49.852C142.334,49.909 143.98,50.645 145.127,51.938C146.303,53.174 146.951,54.849 146.862,56.556C146.803,58.291 146.038,59.908 144.803,61.086C143.509,62.26 141.863,62.879 140.128,62.819C138.421,62.762 136.775,62.026 135.628,60.733C134.452,59.497 133.804,57.82 133.864,56.115C133.952,54.35 134.717,52.763 135.95,51.587C137.096,50.519 138.581,49.913 140.141,49.852L140.465,49.848ZM212.533,14.49L212.739,14.493C220.061,14.64 222.354,22.1 218.297,30.998C205.399,42.147 189.145,48.573 172.115,49.219L171.713,49.233C178.065,33.087 191.329,20.618 207.857,15.296C209.586,14.744 211.148,14.488 212.533,14.49ZM70.673,9.257C72.254,9.253 74.061,9.626 76.074,10.442C92.16,16.971 104.454,30.352 109.63,46.91C92.543,45.117 76.633,37.47 64.545,25.293C61.224,16.382 63.823,9.274 70.673,9.257Z" style="fill:none;stroke:rgb(255,0,0);stroke-width:1px;"/>
</svg>
