<?xml version="1.0" encoding="UTF-8" standalone="no"?>
<!DOCTYPE svg PUBLIC "-//W3C//DTD SVG 1.1//EN" "http://www.w3.org/Graphics/SVG/1.1/DTD/svg11.dtd">
<svg width="100%" height="100%" viewBox="0 0 1123 794" version="1.1" xmlns="http://www.w3.org/2000/svg" xmlns:xlink="http://www.w3.org/1999/xlink" xml:space="preserve" xmlns:serif="http://www.serif.com/" style="fill-rule:evenodd;clip-rule:evenodd;stroke-linejoin:round;stroke-miterlimit:2;">
    <path d="M0.763,233.654C1.257,185.132 27.188,142.701 65.84,118.992C65.398,118.817 65.044,118.669 64.75,118.492L64.722,118.492C55.281,115.374 48.341,108.758 41.958,101.287C30.577,85.318 46.666,69.791 47.751,53.967C48.723,40.557 42.782,25.706 49.694,12.56C53.84,3.853 62.664,0.531 72.427,0.768C81.014,1.208 89.338,4.267 95.161,8.707C107.57,18.236 119.159,31.999 128.776,45.146C128.776,44.116 130.394,42.292 132.157,41.293C133.276,40.617 134.598,40.263 136.01,40.263L144.597,40.263C146.422,40.263 148.067,40.88 149.422,41.91C150.863,43.057 151.891,44.704 152.273,46.587C152.802,46.587 182.859,16.178 188.975,12.177C195.124,8.148 203.623,5.737 212.21,5.942C221.975,6.413 230.502,10.413 234.032,19.412C239.942,32.998 232.913,47.381 232.854,60.821C232.825,76.702 247.707,93.348 235.179,108.435C229.972,113.729 222.856,118.846 215.857,121.903L215.797,121.903C215.417,122.021 214.603,122.283 213.44,122.66C235.706,137.872 253.229,159.522 263.318,184.913L263.635,185.717C269.445,200.605 272.705,216.771 272.875,233.676L272.882,235.085L272.88,235.812L272.866,237.183L272.848,238.157L272.816,239.357L272.777,240.461C272.271,253.525 269.932,266.101 265.999,277.951C265.659,278.997 265.294,280.017 264.925,281.008L264.5,282.186C263.205,285.714 261.764,289.155 260.177,292.537C259.764,293.448 259.353,294.331 258.911,295.213C258.206,296.654 257.441,298.096 256.707,299.508C256.647,299.565 256.619,299.654 256.588,299.713C255.177,302.329 253.677,304.919 252.09,307.419C251.717,307.987 251.375,308.559 250.98,309.103L250.882,309.252C250.472,309.92 250.043,310.551 249.594,311.192L249.354,311.546L249.354,311.565C249.088,312.005 248.794,312.416 248.472,312.829C245.795,316.713 242.913,320.415 239.854,323.976C215.151,352.578 178.758,370.759 138.144,371.142L136.819,371.148C133.222,371.148 129.657,371.008 126.124,370.733C59.482,365.554 6.326,312.384 1.167,245.731C0.895,242.217 0.756,238.667 0.756,235.085L0.763,233.654ZM28.751,280.397C40.488,308.332 62.752,330.776 90.57,342.754C86.43,339.961 82.52,336.774 78.888,333.213C75.47,329.86 75.47,324.406 78.888,321.053C82.307,317.7 87.87,317.7 91.289,321.053C93.511,323.232 95.866,325.23 98.335,327.046C102.763,312.408 102.398,299.836 101.771,293.577L92.474,300.653C89.142,303.191 84.772,303.273 81.343,300.862C77.913,298.45 76.589,294.365 77.972,290.454L85.343,269.604L86.265,255.979C86.324,255.115 86.821,254.338 87.589,253.91C88.356,253.482 89.292,253.461 90.078,253.854C90.199,253.915 91.551,254.595 93.379,255.698L90.219,242.394L72.795,235.617L73.743,234.921L60.959,228.962L55.458,232.149L69.292,238.586L62.38,242.58L48.557,236.132L40.419,240.826L51.529,246.478L40.419,252.14L48.557,256.834L62.38,250.385L69.292,254.369L55.458,260.817L60.959,263.993L74.793,257.544L81.694,261.528L67.871,267.976L78.895,274.349C80.197,275.092 80.639,276.761 79.885,278.064C79.131,279.377 77.474,279.818 76.16,279.065L65.136,272.702L66.471,287.903L59.571,283.92L58.236,268.719L52.734,265.532L54.059,280.733L47.158,276.75L45.834,261.549L37.695,256.856L38.352,269.3L27.898,262.507L27.898,271.906L40.397,280.658L40.397,288.624L28.794,280.5L28.751,280.397ZM233.012,301.959C231.873,301.683 230.731,301.431 229.591,301.155C226.915,302.799 224.267,304.448 221.621,306.066C220.62,306.683 219.327,306.417 218.65,305.447C218.445,305.153 218.326,304.8 218.297,304.448L200.475,303.418L187.72,318.623C190.354,318.261 193.125,319.071 195.146,321.053C196.802,322.677 197.715,324.836 197.714,327.133C197.714,329.43 196.802,331.589 195.146,333.213C191.721,336.571 188.049,339.597 184.169,342.273C198.375,335.983 211.1,326.95 221.671,315.847C221.653,315.726 221.646,315.602 221.65,315.475C221.681,314.328 222.62,313.389 223.767,313.36L223.978,313.353C224.787,312.453 225.583,311.54 226.362,310.616C224.439,310.455 223.754,307.872 225.474,306.802C227.928,305.293 230.355,303.762 232.807,302.252L233.012,301.959ZM152.231,328.2C153.857,330.702 156.365,333.727 158.432,336.092C151.639,338.426 144.423,339.645 137.018,339.645C130.424,339.645 123.98,338.678 117.851,336.819L122.432,328.338C127.245,329.627 139.269,332.015 152.231,328.2ZM177.773,297.679C179.293,301.583 178.384,304.766 175.569,303.113C175.843,310.356 177.192,319.266 178.76,324.648C180.13,323.509 181.461,322.312 182.746,321.053C183.762,320.056 184.968,319.356 186.251,318.952L181.093,299.3L177.773,297.679ZM223.767,299.771C222.62,300.476 221.444,301.212 220.268,301.948L218.827,299.713C219.267,299.448 219.709,299.183 220.151,298.889C221.356,299.183 222.561,299.477 223.767,299.771ZM216.14,269.73L210.092,286.304L214.679,293.332C214.886,293.39 215.092,293.448 215.297,293.478C215.003,293.008 214.709,292.537 214.444,292.068C213.827,291.067 214.15,289.772 215.209,289.213C216.208,288.655 217.503,289.009 218.12,289.979C219.121,291.624 220.12,293.244 221.091,294.862C222.326,295.154 223.533,295.448 224.738,295.744C223.798,294.214 222.885,292.712 221.975,291.213C221.356,290.183 221.681,288.89 222.737,288.331C223.738,287.802 225.032,288.125 225.65,289.124C227.268,291.772 228.915,294.449 230.531,297.123C231.737,297.39 232.973,297.682 234.178,297.978C232.591,295.39 231.002,292.802 229.414,290.214C228.325,288.419 230.296,286.304 232.178,287.303C232.847,287.663 233.514,288.023 234.18,288.383L238.176,290.544C238.654,290.802 239.133,291.061 239.613,291.319C239.716,291.13 239.819,290.941 239.922,290.753C239.654,289.848 239.386,288.951 239.12,288.037C236.355,286.567 233.619,285.068 230.856,283.596C230.434,283.374 230.112,283.015 229.918,282.597C229.196,282.468 228.612,282.281 228.163,282.045C227.445,281.667 226.694,281.068 225.919,280.239C224.757,278.995 224.207,277.439 224.291,275.562C224.349,274.279 224.696,273.071 225.336,271.939C221.306,272.801 218.399,272.193 216.599,270.268C216.435,270.093 216.282,269.914 216.14,269.73ZM202.504,293.509L195.447,293.184L191.358,297.567L189.212,291.301L183.182,288.507L188.858,285.008L189.565,278.948L194.77,282.891L201.006,281.098L198.946,288.154L202.504,293.509ZM144.712,285.874L145.927,285.831C153.666,285.755 159.844,286.382 165.152,287.752L177.948,279.302L179.124,269.362L157.803,267.421L144.712,285.874ZM96.372,257.636C97.666,258.539 98.998,259.563 100.194,260.664C108.144,261.53 115.866,266.542 122.586,275.216C126.172,279.845 128.6,284.364 129.777,286.756C132.882,286.467 135.79,286.245 138.527,286.09L139.258,286.065L135.51,262.245L112.218,252.716L120.717,247.071L106.454,245.776L96.372,257.636ZM237.268,281.837C237.12,281.88 236.975,281.921 236.832,281.961L236.767,281.979C236.982,282.096 237.198,282.214 237.414,282.332L237.268,281.837ZM241.592,280.436L241.217,280.566L241.383,281.125L241.803,280.361L241.592,280.436ZM94.108,273.251C95.738,273.251 97.061,274.548 97.061,276.146C97.061,277.744 95.738,279.041 94.108,279.041C92.479,279.041 91.156,277.744 91.156,276.146C91.156,274.548 92.479,273.251 94.108,273.251ZM250.063,265.23C242.733,269.034 237.977,271.613 235.796,272.969C233.651,274.302 232.148,275.47 231.299,276.491C230.953,276.909 230.757,277.218 231.006,277.485C231.124,277.611 231.363,277.641 231.689,277.675C232.456,277.756 233.588,277.667 235.089,277.423C237.686,276.999 240.943,276.073 244.859,274.648C244.908,274.63 244.96,274.618 245.013,274.612C245.391,274.57 245.636,274.705 245.787,274.868C245.908,274.997 246.006,275.18 246.009,275.427C246.259,275.465 246.509,275.551 246.747,275.686C248.01,272.273 249.118,268.785 250.063,265.23ZM214.789,266.429C214.718,265.79 214.735,265.118 214.839,264.415C215.047,263.015 215.566,261.603 216.401,260.182C214.15,260.787 212.326,261.018 210.933,260.895C209.473,260.766 208.387,260.498 207.668,260.12C206.952,259.743 206.185,259.127 205.376,258.261C204.248,257.055 203.713,255.516 203.797,253.637C203.852,252.398 204.178,251.228 204.777,250.129C203.223,250.478 201.92,250.625 200.87,250.58C199.404,250.517 198.271,250.302 197.468,249.959C196.642,249.606 195.85,249.031 195.096,248.225C193.963,247.013 193.446,245.487 193.567,243.639C193.684,241.856 194.365,240.205 195.624,238.691C196.823,237.249 198.583,235.788 200.914,234.318C203.189,232.884 206.998,230.957 212.354,228.537C212.864,228.288 213.256,228.013 213.518,227.697C213.851,227.296 213.968,226.665 213.93,225.812C210.841,227.311 206.536,229.103 201.014,231.184C200.882,231.33 200.724,231.431 200.548,231.493C199.649,231.826 198.863,232.099 198.19,232.31C197.515,232.522 196.703,232.749 195.753,232.992C194.769,233.243 193.903,233.389 193.157,233.432C192.421,233.474 191.617,233.465 190.744,233.403C189.809,233.336 189.001,233.133 188.318,232.804C187.637,232.475 186.978,231.976 186.347,231.3C185.829,230.747 185.408,230.09 185.086,229.329C181.445,229.769 178.467,229.25 176.143,227.806L168.771,246.775L175.154,243.424L175.802,234.426L183.007,240.159L192.536,237.512L189.181,246.452L193.977,254.57L184.8,253.892L181.418,258.158L196.505,270.363L214.789,266.429ZM239.1,262.039C237.087,263.092 235.401,264.034 234.04,264.867C230.039,266.451 226.979,267.3 224.861,267.389C223.662,267.439 222.803,267.269 222.32,266.751C222.089,266.505 222.06,266.145 222.141,265.69C222.249,265.081 222.59,264.455 223.137,263.797C224.471,262.191 226.416,260.616 228.961,259.061C231.515,257.502 234.052,256.43 236.572,255.848C238.845,255.324 240.438,255.429 241.325,256.378C241.77,256.853 241.751,257.567 241.437,258.507C241.057,259.642 240.273,260.815 239.102,262.037L239.1,262.039ZM169.743,249.334L176.007,252.188L179.241,263.569L169.743,249.334ZM154.235,119.208C154.04,121.433 153.106,123.564 151.417,125.596C150.052,127.239 147.57,129.279 143.957,131.702C140.403,134.086 136.795,136.331 133.132,138.437C129.499,140.527 125.807,142.891 122.054,145.529C118.345,148.137 115.638,150.458 113.94,152.5C113.25,153.33 112.819,154.087 112.675,154.787C112.566,155.313 112.59,155.725 112.851,156.004C114.627,157.905 117.528,158.696 121.522,158.485C125.699,158.264 130.12,157.238 134.784,155.411C139.481,153.571 144.183,151.102 148.89,148.004C153.576,144.92 157.329,141.686 160.144,138.299C161.201,137.027 162.012,135.859 162.571,134.792C163.093,133.796 163.396,133.078 163.443,132.622C163.491,132.143 163.515,131.713 163.512,131.331C163.508,130.72 163.66,130.298 163.873,130.041C164.296,129.532 164.956,129.309 165.886,129.522C166.63,129.693 167.299,130.086 167.885,130.713C168.486,131.356 168.983,132.103 169.375,132.957C169.759,133.796 170.034,134.749 170.195,135.818C170.36,136.913 170.208,138.161 169.717,139.561C169.244,140.909 168.454,142.254 167.342,143.593C165.235,146.128 162.567,148.629 159.334,151.095C156.118,153.547 152.647,155.786 148.919,157.81C145.185,159.839 141.268,161.509 137.168,162.821C134.053,163.818 131.04,164.562 128.13,165.054C131.905,166.997 136.225,168.299 139.126,166.965C139.164,166.968 139.202,166.971 139.239,166.975C141.667,165.473 146.606,162.782 154.06,158.901C154.065,158.898 154.071,158.895 154.077,158.892C154.685,158.597 155.211,158.698 155.659,159.177L156.357,159.924C156.352,159.832 156.351,159.739 156.352,159.644C156.373,158.486 156.895,157.428 157.963,156.492C158.972,155.608 160.155,155.089 161.515,154.937C162.921,154.78 164.095,155.064 165.045,155.757C166.057,156.495 166.548,157.471 166.526,158.68C166.506,159.839 165.984,160.897 164.916,161.832C163.907,162.716 162.724,163.235 161.364,163.387C160.702,163.461 160.091,163.437 159.531,163.319L159.563,163.354C159.815,163.623 159.912,163.956 159.811,164.363C159.73,164.687 159.55,164.944 159.268,165.133C159.247,165.146 159.226,165.159 159.205,165.17C151.014,169.42 145.732,172.272 143.359,173.725C141.064,175.131 139.484,176.336 138.635,177.358C138.288,177.775 138.092,178.085 138.341,178.351C138.473,178.493 138.731,178.54 139.084,178.584C139.878,178.684 141.044,178.613 142.582,178.386C145.181,178.003 148.36,177.146 152.121,175.819L180.865,160.921C180.871,160.918 180.876,160.916 180.881,160.913C181.489,160.618 182.016,160.719 182.464,161.198C182.464,161.198 186.319,165.322 186.319,165.322C186.567,165.588 186.659,165.896 186.604,166.244C186.555,166.555 186.391,166.828 186.077,167.038C186.056,167.051 186.035,167.064 186.014,167.075C186.014,167.075 168.46,176.2 168.46,176.2C171.141,176.598 173.284,177.672 174.897,179.398C176.131,180.718 176.737,182.166 176.739,183.731C176.741,185.29 176.218,186.707 175.161,187.979C173.775,189.647 171.807,190.528 169.241,190.583C167.008,190.632 164.587,189.788 161.995,188.012C161.764,188.795 161.388,189.652 160.862,190.581C160.129,191.878 159.428,192.986 158.759,193.903C158.148,194.742 157.699,195.589 157.418,196.445C157.207,197.085 157.236,197.605 157.599,197.993C157.772,198.178 158.041,198.288 158.388,198.361C158.844,198.456 159.415,198.472 160.099,198.418C162.331,198.244 165.674,197.338 170.129,195.716C172.336,194.469 175.45,192.793 179.471,190.686C179.471,190.686 178.215,189.342 178.215,189.342C177.963,189.073 177.866,188.74 177.967,188.333C178.063,187.946 178.271,187.715 178.519,187.59L181.192,186.142C181.201,186.137 181.21,186.133 181.219,186.128C181.827,185.833 182.354,185.934 182.802,186.414C182.802,186.414 184.408,188.132 184.408,188.132C186.668,186.957 190.623,184.905 196.272,181.976C196.578,181.808 196.863,181.753 197.118,181.776C197.417,181.803 197.692,181.931 197.93,182.186C197.93,182.186 201.785,186.31 201.785,186.31C202.01,186.552 202.124,186.867 202.071,187.272C202.015,187.702 201.787,187.996 201.389,188.146C196.225,190.855 192.425,192.841 189.99,194.104C189.99,194.104 191.976,196.228 191.976,196.228C192.227,196.497 192.324,196.83 192.223,197.237C192.143,197.561 191.963,197.818 191.68,198.007C191.661,198.02 191.642,198.031 191.621,198.042L188.971,199.442C188.363,199.736 187.837,199.636 187.389,199.156C187.389,199.156 185.052,196.657 185.052,196.657C178.111,200.319 173.673,202.736 171.738,203.909C169.833,205.064 168.419,206.184 167.506,207.284C167.155,207.706 166.991,208.04 167.261,208.329C167.588,208.68 168.101,208.902 168.779,209.039C169.573,209.2 170.572,209.23 171.776,209.141C173.731,208.996 176.116,208.484 178.932,207.612C180.345,206.528 181.901,205.609 183.599,204.853C186.877,203.394 190.117,202.788 193.319,203.026C196.603,203.271 199.187,204.423 201.085,206.453C201.252,206.632 201.412,206.813 201.564,206.996L209.935,203.056C211.182,202.471 212.582,202.824 213.06,203.844L214.792,207.538C215.27,208.558 214.645,209.86 213.398,210.444L203.786,212.041C203.841,212.601 203.84,213.172 203.784,213.753C203.534,216.344 202.421,218.845 200.424,221.248C197.888,224.299 194.492,226.575 190.227,228.065C190.711,228.472 191.36,228.714 192.164,228.809C193.459,228.961 195.118,228.739 197.146,228.167C197.271,228.032 197.438,227.942 197.646,227.904C204.182,225.362 209.363,223.046 213.186,220.951C213.19,219.768 213.479,218.871 213.999,218.246C214.904,217.157 215.86,216.576 216.83,216.445C217.892,216.302 218.775,216.613 219.482,217.37C220.093,218.023 220.381,218.842 220.326,219.835C220.274,220.762 219.908,221.651 219.208,222.493C219.106,222.617 218.984,222.736 218.841,222.849C218.841,222.849 218.902,223.27 218.9,223.262C219.163,224.513 219.342,225.474 219.438,226.143C219.535,226.819 219.618,227.683 219.684,228.734C219.755,229.856 219.661,230.827 219.412,231.649C219.156,232.495 218.769,233.226 218.257,233.842C217.745,234.458 217.033,234.995 216.113,235.442C216.108,235.444 216.104,235.446 216.099,235.448C207.329,239.453 202.127,242.38 200.533,244.298C200.157,244.751 199.964,245.097 200.223,245.392C200.252,245.404 200.398,245.46 200.514,245.483C200.792,245.538 201.157,245.564 201.61,245.565C202.592,245.567 204.228,245.293 206.522,244.757C208.815,244.221 211.445,243.419 214.411,242.352C217.153,240.813 221.077,238.714 226.181,236.057C226.187,236.054 226.192,236.051 226.198,236.048C226.806,235.753 227.333,235.854 227.781,236.333L227.981,236.548C228.133,235.601 228.646,234.728 229.543,233.941C230.552,233.057 231.736,232.538 233.095,232.386C234.502,232.229 235.676,232.513 236.625,233.205C237.638,233.944 238.128,234.92 238.107,236.129C238.086,237.287 237.564,238.346 236.497,239.281C235.488,240.165 234.304,240.684 232.945,240.836C232.585,240.876 232.241,240.887 231.912,240.87C231.982,241.062 231.992,241.278 231.932,241.519C231.852,241.843 231.672,242.1 231.389,242.289C231.369,242.302 231.348,242.315 231.326,242.326C223.135,246.577 217.853,249.428 215.48,250.881C213.185,252.287 211.605,253.492 210.756,254.514C210.409,254.931 210.214,255.241 210.463,255.507C210.595,255.649 210.853,255.696 211.206,255.74C211.999,255.84 213.165,255.769 214.704,255.542C217.141,255.183 220.088,254.407 223.547,253.217L223.57,253.203L223.571,253.208L223.575,253.207L223.573,253.201C225.794,251.852 228.1,250.818 230.488,250.099C232.923,249.366 235.356,249.196 237.788,249.585C240.277,249.984 242.3,251.026 243.863,252.698C245.546,254.498 246.154,256.475 245.689,258.626C246.135,258.531 246.532,258.675 246.881,259.049L250.62,263.049C252.818,254.087 253.984,244.721 253.984,235.085C253.984,176.336 210.652,127.629 154.235,119.208ZM137.657,250.424L144.568,246.216L145.391,238.864L151.685,243.658L159.242,241.481L156.745,250.011L161.037,256.48L152.508,256.069L147.568,261.394L144.979,253.804L137.657,250.424ZM136.951,215.603L134.158,214.25L133.128,238.953L124.099,244.982L114.747,230.777L121.159,213.484L107.513,216.397L113.805,208.336L131.216,209.631L135.804,211.22L136.951,215.603ZM108.423,237.6L102.159,237.308L98.513,241.218L96.601,235.629L91.221,233.158L96.278,230.041L96.897,224.63L101.543,228.16L107.101,226.542L105.276,232.835L108.423,237.6ZM27.866,191.94L27.866,191.939C35.519,172.65 48.152,155.866 64.177,143.178L70.546,145.608L72.309,151.812L72.104,167.459L61.28,174.605L73.22,179.604L77.192,191.927L84.455,182.341L94.748,183.163L94.574,185.811L78.604,196.25L83.984,199.367L80.191,200.339L72.897,194.369L71.956,203.573L66.25,207.577L66.471,205.063L59.571,209.046L58.236,224.247L52.734,227.423L54.059,212.222L47.158,216.205L45.834,231.406L37.695,236.1L38.352,223.655L27.898,230.448L27.898,221.06L40.397,212.308L40.397,204.331L27.898,213.083L27.898,206.731L40.397,197.979L40.397,190.013L27.898,198.754L27.898,191.859C27.888,191.886 27.877,191.913 27.866,191.94ZM79.742,230.517L67.871,224.979L75.44,220.61L75.691,221.425L81.367,214.368L88.425,215.19L87.866,224.809L84.955,226.69L79.742,230.517ZM20.912,219.942L20.907,219.979L22.451,221.06L22.451,230.448L19.829,228.744C19.884,228.366 20.271,224.663 20.907,219.979L20.855,219.942L20.912,219.942ZM151.975,201.125L150.596,205.25L155.861,214.22L145.892,213.72L140.422,219.337L153.743,230.337L173.501,225.433C171.932,223.476 171.279,221.332 171.523,219.007C171.692,217.394 172.273,215.723 173.276,213.999L173.275,213.999C170.952,214.559 169.071,214.749 167.635,214.589C166.142,214.423 165.006,214.1 164.218,213.647C163.443,213.202 162.602,212.502 161.703,211.539C160.571,210.329 160.082,208.717 160.285,206.688C160.418,205.357 160.807,204.119 161.453,202.973C159.804,203.341 158.422,203.494 157.31,203.442C155.854,203.373 154.766,203.13 154.041,202.749C153.404,202.414 152.713,201.875 151.975,201.125ZM19.829,228.744C19.826,228.765 19.824,228.776 19.823,228.776C19.822,228.775 19.822,228.764 19.823,228.74L19.829,228.744ZM198.27,210.798C198.653,211.208 198.716,211.748 198.531,212.407C198.29,213.263 197.666,214.273 196.685,215.452C195.086,217.377 193.061,219.057 190.614,220.499C189.867,220.061 188.907,219.94 187.727,220.19C186.418,220.466 185.346,221.11 184.509,222.117C184.124,222.58 183.863,223.034 183.715,223.473C182.105,223.911 180.752,224.109 179.654,224.052C178.622,223.999 177.838,223.727 177.323,223.176C176.97,222.799 176.993,222.223 177.226,221.461C177.528,220.479 178.128,219.459 179.013,218.394C180.862,216.17 183.224,214.301 186.098,212.785C188.97,211.269 191.58,210.364 193.934,210.082C195.065,209.947 196.011,209.945 196.774,210.088C197.427,210.211 197.932,210.436 198.27,210.798ZM65.136,220.264L73.789,215.262L72.986,212.661L66.093,209.374L65.136,220.264ZM96.601,204.074L99.043,213.808L89.278,205.925L89.132,206.044L88.308,210.955L85.514,207.014L88.102,200.839L96.601,204.074ZM82.514,210.544L79.486,210.398L77.72,212.279L76.81,209.574L74.192,208.398L76.662,206.868L76.956,204.28L79.19,205.955L81.867,205.193L80.985,208.221L82.514,210.544ZM113.671,164.455L105.19,163.989L99.925,169.899L109.924,179.399L128.628,174.545L122.306,192.398L129.863,203.515L134.01,201.427L135.422,189.809L143.481,197.28L149.993,195.452C150.171,194.16 150.623,192.929 151.351,191.758C152.184,190.419 153.066,189.133 153.998,187.9C154.878,186.735 155.532,185.633 155.956,184.593C156.275,183.809 156.295,183.186 155.875,182.733L142.563,189.631C142.557,189.633 142.552,189.636 142.547,189.638C141.917,189.944 141.411,189.831 141.013,189.405C141.013,189.405 137.109,185.229 137.109,185.229C136.858,184.96 136.76,184.627 136.861,184.22C136.931,183.94 137.075,183.71 137.295,183.531C136.572,183.388 135.99,183.197 135.547,182.964C134.83,182.587 134.063,181.971 133.254,181.105C132.126,179.899 131.591,178.36 131.675,176.481C131.725,175.381 131.987,174.336 132.464,173.346C128.076,171.274 122.941,167.849 120.127,165.619C118.23,165.512 116.39,165.216 114.606,164.731C114.289,164.645 113.978,164.553 113.671,164.455ZM115.777,199.663L109.482,199.367L105.835,203.281L103.923,197.691L98.543,195.22L103.629,192.104L104.248,186.693L108.894,190.222L114.453,188.605L112.601,194.897L115.777,199.663ZM169.977,181.73C170.134,181.898 170.233,182.062 170.231,182.243C170.229,182.448 170.114,182.649 169.931,182.868C169.642,183.217 169.187,183.443 168.587,183.586C167.875,183.755 166.978,183.795 165.898,183.719C163.718,183.566 161.658,182.75 159.712,181.282C159.709,181.28 159.373,180.92 159.373,180.92C159.373,180.92 159.634,180.784 159.634,180.784C162.924,180.225 165.511,180.121 167.396,180.495C168.541,180.722 169.407,181.12 169.977,181.73ZM77.897,171.429L78.337,167.43L81.778,170.016L85.896,168.84L84.543,173.488L86.866,177.018L82.22,176.782L79.544,179.693L78.132,175.546L74.133,173.723L77.897,171.429ZM94.514,161.341L96.985,162.165L98.159,168.871L95.955,167.105L95.131,178.694L90.337,172.399L94.514,161.341ZM83.074,163.666L76.485,157.665L83.337,148.607L95.69,149.489L95.338,154.195L88.573,158.167L92.865,160.636L83.074,163.666ZM103.904,154.786L102.778,155.108L100.544,153.43L100.248,156.018L97.779,157.519L100.396,158.724L101.308,161.429L103.07,159.548L106.031,159.663C105.434,158.995 104.955,158.245 104.598,157.412L104.571,157.371L104.575,157.358C104.244,156.574 104.02,155.717 103.904,154.786ZM147.667,118.417C144.1,118.088 140.479,117.92 136.819,117.92C128.907,117.92 121.177,118.705 113.704,120.204C113.598,120.536 113.519,120.868 113.468,121.198C113.263,122.523 113.585,123.651 114.45,124.576C115.639,125.848 117.277,126.296 119.348,125.979C121.477,125.653 123.039,124.936 124.006,123.772C124.375,123.329 124.762,123.267 125.042,123.332C125.217,123.373 125.391,123.468 125.541,123.652C125.681,123.823 125.824,124.135 125.909,124.602C126.221,125.887 125.915,127.111 124.956,128.265C123.169,130.415 120.511,131.75 116.962,132.228C113.376,132.711 110.384,131.665 107.985,129.098L107.985,129.098C106.378,127.379 105.471,125.088 105.297,122.216C101.408,123.301 97.6,124.583 93.883,126.049L90.279,137.638L96.043,146.373L96.424,144.019L102.984,150.225L104.45,149.83C105.02,148.277 105.975,146.688 107.323,145.066C109.363,142.611 112.502,139.989 116.748,137.209C120.949,134.46 125.009,132.103 128.928,130.139C132.814,128.191 136.576,126.17 140.215,124.078C143.767,122.034 146.102,120.367 147.199,119.047C147.375,118.835 147.531,118.625 147.667,118.417ZM75.653,135.155C76.528,134.618 77.411,134.092 78.301,133.577L79.749,134.667L84.19,133.374L82.72,138.431L85.251,142.255L80.22,142.02L77.309,145.137L75.78,140.668L71.456,138.668L75.543,136.168L75.653,135.155ZM180.189,106.092C174.413,104.148 168.461,102.581 162.366,101.421C161.639,100.11 160.883,98.715 160.126,97.318C160.038,97.141 159.95,96.995 159.89,96.847C157.125,91.759 155.303,86.083 153.862,80.436L179.889,104.287L180.419,105.288C180.419,105.288 180.253,105.564 180.189,106.092ZM115.274,100.721C108.993,101.722 102.856,103.153 96.893,104.984L96.631,104.2L98.278,101.641L126.011,79.759C123.982,85.819 121.482,91.818 117.923,97.024L117.894,97.024C117.835,97.141 117.775,97.229 117.687,97.318C117.658,97.406 117.57,97.523 117.452,97.671C116.986,98.312 116.204,99.471 115.274,100.721ZM135.95,51.587C137.215,50.409 138.892,49.792 140.627,49.852C142.334,49.909 143.98,50.645 145.127,51.938C146.303,53.174 146.951,54.849 146.862,56.556C146.803,58.291 146.038,59.908 144.803,61.086C143.509,62.26 141.863,62.879 140.128,62.819C138.421,62.762 136.775,62.026 135.628,60.733C134.452,59.497 133.804,57.82 133.864,56.115C133.952,54.35 134.717,52.763 135.95,51.587ZM207.857,15.296C218.916,11.766 223.15,20.353 218.297,30.998C205.298,42.235 188.889,48.674 171.713,49.233C178.065,33.087 191.329,20.618 207.857,15.296ZM64.545,25.293C60.458,14.325 65.338,6.09 76.074,10.442C92.16,16.971 104.454,30.352 109.63,46.91C92.543,45.117 76.633,37.47 64.545,25.293Z" style="fill:none;stroke:rgb(255,0,0);stroke-width:1px;"/>
</svg>
