<?xml version="1.0" encoding="UTF-8" standalone="no"?>
<!DOCTYPE svg PUBLIC "-//W3C//DTD SVG 1.1//EN" "http://www.w3.org/Graphics/SVG/1.1/DTD/svg11.dtd">
<svg width="100%" height="100%" viewBox="0 0 1123 794" version="1.1" xmlns="http://www.w3.org/2000/svg" xmlns:xlink="http://www.w3.org/1999/xlink" xml:space="preserve" xmlns:serif="http://www.serif.com/" style="fill-rule:evenodd;clip-rule:evenodd;stroke-linejoin:round;stroke-miterlimit:2;">
    <path d="M144.768,40.265C146.525,40.302 148.11,40.912 149.422,41.91C150.863,43.057 151.891,44.704 152.273,46.587C152.802,46.587 182.859,16.178 188.975,12.177C194.836,8.337 202.831,5.966 211.003,5.93C211.404,5.929 211.807,5.932 212.21,5.942C221.975,6.413 230.502,10.413 234.032,19.412C239.942,32.998 232.913,47.381 232.854,60.821C232.825,76.702 247.707,93.348 235.179,108.435C229.972,113.729 222.856,118.846 215.857,121.903L215.797,121.903L214.909,122.185L213.44,122.66C235.271,137.575 252.544,158.68 262.718,183.428L263.146,184.482L263.635,185.717L264.183,187.147L264.715,188.58L264.956,189.247L265.465,190.694L265.958,192.147L266.475,193.735L266.941,195.223L267.39,196.719L267.822,198.222L268.318,200.033L268.765,201.757L269.14,203.283L269.499,204.816L269.84,206.356L270.097,207.582L270.267,208.418L270.567,209.973L270.849,211.533L271.113,213.1L271.309,214.338L271.419,215.073L271.66,216.779L271.864,218.366L272.05,219.958L272.182,221.204L272.257,221.958L272.366,223.158L272.397,223.517L272.519,225.075L272.624,226.63L272.71,228.177L272.746,228.945L272.807,230.524L272.85,232.102C272.861,232.627 272.87,233.152 272.875,233.676L272.882,235.204L272.88,235.812C272.877,236.27 272.873,236.727 272.866,237.183L272.845,238.277C272.836,238.637 272.827,238.997 272.816,239.357L272.77,240.666L272.707,242.056L272.66,242.916C272.616,243.693 272.566,244.469 272.509,245.242L272.378,246.891L272.235,248.448L272.115,249.632L271.964,250.996L271.773,252.558L271.607,253.813L271.429,255.064L271.176,256.717L270.983,257.897L270.743,259.275L270.405,261.091L270.108,262.584L269.863,263.752L269.428,265.714L269.074,267.212L268.795,268.344L268.42,269.801L268.042,271.21L267.725,272.344L267.361,273.601L266.892,275.16L266.363,276.838L265.822,278.487L265.452,279.56L265.025,280.738L264.863,281.178C264.752,281.514 264.639,281.848 264.5,282.186C263.205,285.714 261.764,289.155 260.177,292.537C259.764,293.448 259.353,294.331 258.911,295.213C258.206,296.654 257.441,298.096 256.707,299.508C256.647,299.565 256.619,299.654 256.588,299.713C255.177,302.329 253.677,304.919 252.09,307.419L251.385,308.513L250.98,309.103L250.316,310.136L249.767,310.943L249.354,311.546L249.354,311.565C249.088,312.005 248.794,312.416 248.472,312.829C247.32,314.5 246.13,316.138 244.904,317.745L244.816,317.86C243.221,319.948 241.565,321.984 239.854,323.976L239.073,324.871L238.079,325.991L237.478,326.655L236.874,327.314L236.265,327.97L235.652,328.622L235.034,329.27L234.413,329.913L233.787,330.553L233.157,331.188L232.523,331.819L231.885,332.446L231.243,333.069L230.597,333.688L229.946,334.303L229.292,334.913L228.634,335.519L227.305,336.718L225.961,337.9L224.601,339.064L223.226,340.21L221.835,341.339L220.43,342.45L219.251,343.358L218.294,344.082L217.12,344.95L216.125,345.672L214.957,346.501L213.924,347.22L212.763,348.011L211.691,348.725L210.538,349.478L209.428,350.187L208.283,350.903L207.134,351.605L205.999,352.284L204.81,352.979L203.686,353.621L202.128,354.488L200.557,355.336L199.718,355.777L198.921,356.19L198.122,356.597L197.319,356.999L196.514,357.396L195.706,357.788L194.894,358.175L194.08,358.556L193.263,358.932L192.443,359.303L191.621,359.668L190.795,360.029L189.967,360.383L189.136,360.733L188.303,361.077L187.466,361.416L186.627,361.749L185.472,362.197L184.208,362.674L183.508,362.932C175.658,365.798 167.471,367.962 159.021,369.348L157.605,369.572L156.197,369.781L154.318,370.035L152.436,370.263L150.549,370.465L148.516,370.653L146.646,370.8L144.654,370.927L142.787,371.02L140.923,371.087L139.53,371.121L138.144,371.142L136.819,371.148L135.472,371.141L135.01,371.136L133.308,371.103L132.116,371.068L131.571,371.048C131.011,371.027 130.452,371.002 129.893,370.974L128.91,370.921L128.07,370.87L126.787,370.783L125.344,370.67L124.595,370.605L123.757,370.528L122.78,370.431L121.461,370.29L119.917,370.108L119.147,370.01L118.622,369.94C61.059,362.253 14.891,318.582 3.474,262.277L3.239,261.09L2.955,259.579L2.689,258.062L2.439,256.54L2.206,255.012L1.989,253.478L1.79,251.939L1.609,250.395L1.444,248.846L1.295,247.267L1.199,246.139L1.071,244.412L1.03,243.782L0.93,242.013L0.887,241.098L0.867,240.61L0.814,239.101L0.782,237.765L0.762,236.427L0.756,235.069L0.761,233.92L0.78,232.504L0.814,231.055L0.874,229.343L0.941,227.924L1.04,226.215L1.16,224.51L1.339,222.399L1.503,220.733L1.754,218.52L1.965,216.867L2.116,215.769L2.36,214.126L2.623,212.491L2.832,211.276L3.004,210.32L3.25,209.022L3.391,208.305L3.7,206.805L3.847,206.115L4.228,204.413L4.525,203.156L4.699,202.441L5.07,200.971L5.248,200.286L5.705,198.602L6.047,197.393L6.255,196.679L6.685,195.245L7.142,193.78L7.652,192.213L8.179,190.657L8.724,189.112L9.286,187.576L9.865,186.051L10.462,184.535L11.076,183.028L11.589,181.809L12.228,180.334L12.884,178.867L13.557,177.41L14.247,175.963L14.953,174.524L15.675,173.096L16.414,171.677L17.169,170.268L17.681,169.334L18.2,168.404L18.727,167.479L19.26,166.559L19.8,165.643L20.347,164.732L20.901,163.825L21.462,162.923L21.995,162.081C24.011,158.918 26.155,155.843 28.418,152.865L29.105,151.969L30.119,150.673L31.137,149.404L32.163,148.156L33.2,146.924L34.249,145.708L35.309,144.506L36.64,143.037L37.833,141.756L39.206,140.322L40.549,138.958L41.845,137.678L43.198,136.376L44.743,134.932L46.31,133.513L47.5,132.464L48.702,131.429L49.916,130.407L51.142,129.4L52.38,128.406L53.63,127.427L54.892,126.462L56.165,125.511L57.449,124.575L58.745,123.654L60.052,122.747L61.369,121.855L62.698,120.978L64.037,120.117L64.936,119.551L65.84,118.992C65.398,118.817 65.044,118.669 64.75,118.492L64.722,118.492C55.281,115.374 48.341,108.758 41.958,101.287C30.577,85.318 46.666,69.791 47.751,53.967C48.723,40.557 42.782,25.706 49.694,12.56C53.84,3.853 62.664,0.531 72.427,0.768C81.014,1.208 89.338,4.267 95.161,8.707C107.57,18.236 119.159,31.999 128.776,45.146C128.776,44.116 130.394,42.292 132.157,41.293C133.276,40.617 134.598,40.263 136.01,40.263L144.597,40.263L144.768,40.265ZM233.106,301.981L233,302.134C230.483,303.681 227.993,305.253 225.474,306.802C223.721,307.892 224.466,310.555 226.475,310.623C225.699,311.543 224.907,312.453 224.102,313.349L223.767,313.36C222.62,313.389 221.681,314.328 221.65,315.475C221.645,315.641 221.659,315.803 221.69,315.957C200.328,338.368 170.192,352.34 136.819,352.34C129.603,352.34 122.539,351.687 115.679,350.436L134.186,327.506L164.772,329.681L159.508,320.888L165.184,312.093L175.802,312.975L170.243,303.566L173.565,295.625L181.093,299.3L186.535,320.035L200.475,303.418L218.297,304.448C218.326,304.8 218.445,305.153 218.65,305.447C219.327,306.417 220.62,306.683 221.621,306.066C224.267,304.448 226.915,302.799 229.591,301.155C230.762,301.438 231.935,301.697 233.106,301.981ZM107.895,341.033L113.364,348.678L110.159,337.003L107.895,341.033ZM104.571,345.769L100.63,345.592L99.878,346.393C99.065,346.123 98.255,345.844 97.449,345.556L97.102,344.532L93.718,342.975L96.925,341.004L97.306,337.591L100.219,339.797L103.749,338.798L102.571,342.768L104.571,345.769ZM85.131,273.303L79.354,270.4L80.178,272.648C80.193,272.692 80.209,272.736 80.222,272.78C81.181,275.96 79.411,279.432 76.27,280.531C74.342,281.206 72.35,280.866 70.84,279.792C71.014,281.638 70.315,283.537 68.77,284.872C67.596,285.888 66.126,286.394 64.662,286.394C62.977,286.394 61.301,285.725 60.085,284.426C60.052,284.392 60.022,284.357 59.993,284.321L57.193,280.956L57.193,288.369C57.193,291.684 54.444,294.418 50.997,294.418C47.547,294.418 44.798,291.684 44.798,288.369L44.798,280.956L41.998,284.321C41.969,284.357 41.939,284.392 41.906,284.426C39.633,286.853 35.746,287.057 33.221,284.874L33.221,284.872C31.676,283.537 30.977,281.638 31.152,279.792C30.457,280.285 29.66,280.624 28.814,280.779C39.992,307.142 60.547,328.582 86.29,340.908L91.19,337.739L92.396,325.651L101.189,333.062L108.66,330.739L105.749,320.828L76.779,308.771L84.691,302.624L82.543,295.744L74.367,291.949L81.926,286.273L82.749,277.684L87.308,281.333L85.131,273.303ZM117.923,310.182L108.954,306.066L117.395,300.861L118.423,291.83L126.187,297.713L135.451,295.037L132.392,305.535L137.657,313.475L127.187,312.975L121.099,319.533L117.923,310.182ZM158.478,319.476L151.155,307.801L156.126,310.066L158.478,319.476ZM156.891,305.007L159.832,303.212L160.184,300.067L162.889,302.125L166.096,301.183L165.036,304.83L166.861,307.595L163.243,307.419L161.125,309.711L160.007,306.448L156.891,305.007ZM169.832,294.508L163.95,296.566L155.684,289.92L154.539,300.772L148.686,303.77L158.714,273.038L151.862,274.421L157.803,267.421L179.124,269.362L177.948,279.302L160.979,290.508L169.832,294.508ZM223.767,299.771C222.62,300.476 221.444,301.212 220.268,301.948L218.827,299.713C219.267,299.448 219.709,299.183 220.151,298.889C221.356,299.183 222.561,299.477 223.767,299.771ZM91.073,297.625L88.014,301.654L94.543,297.832L91.073,297.625ZM245.046,280.12C242.198,281.15 239.702,281.908 237.558,282.397C234.836,283.018 232.644,283.183 230.985,282.916C229.289,282.643 228.006,282.243 227.13,281.74C226.256,281.238 225.368,280.509 224.469,279.548C223.195,278.184 222.623,276.584 222.751,274.748C222.874,272.979 223.65,271.21 225.108,269.456C226.183,268.162 227.341,267.075 228.58,266.192C229.788,265.331 232.158,263.997 235.703,262.189C239.47,260.094 241.94,258.373 243.093,256.995C243.354,256.684 243.541,256.398 243.643,256.13C243.735,255.892 243.751,255.679 243.648,255.491C242.977,254.824 241.635,254.549 239.661,254.524C237.464,254.496 234.835,255.037 231.772,256.132L213.085,265.839C213.079,265.842 213.074,265.845 213.068,265.848C212.398,266.173 211.858,266.056 211.434,265.603C211.434,265.603 207.016,260.876 207.016,260.876C206.751,260.593 206.65,260.243 206.757,259.814C206.842,259.47 207.034,259.196 207.335,258.995C207.355,258.982 207.376,258.969 207.398,258.958C207.398,258.958 209.111,258.068 209.111,258.068C209.097,258.067 209.083,258.066 209.069,258.065C207.339,257.917 205.688,257.499 204.117,256.812C202.541,256.122 201.387,255.471 200.648,254.87C199.922,254.28 199.123,253.52 198.252,252.588C195.93,250.104 195.015,247.251 195.494,244.035C195.766,242.208 196.374,240.411 197.321,238.646C197.152,238.693 196.986,238.739 196.822,238.783C194.832,239.321 193.137,239.602 191.739,239.635L189.181,246.452L193.977,254.57L184.8,253.892L181.418,258.158L196.505,270.363L217.563,265.832L210.092,286.304L214.679,293.332C214.886,293.39 215.092,293.448 215.297,293.478C215.003,293.008 214.709,292.537 214.444,292.068C213.827,291.067 214.15,289.772 215.209,289.213C216.208,288.655 217.503,289.009 218.12,289.979C219.121,291.624 220.12,293.244 221.091,294.862C222.326,295.154 223.533,295.448 224.738,295.744C223.798,294.214 222.885,292.712 221.975,291.213C221.356,290.183 221.681,288.89 222.737,288.331C223.738,287.802 225.032,288.125 225.65,289.124C227.268,291.772 228.915,294.449 230.531,297.123C231.737,297.39 232.973,297.682 234.178,297.978C232.591,295.39 231.002,292.802 229.414,290.214C228.325,288.419 230.296,286.304 232.178,287.303C234.692,288.656 237.18,290.008 239.692,291.362L239.958,290.875C240.006,290.511 243.023,284.462 245.046,280.12ZM202.504,293.509L195.447,293.184L191.358,297.567L189.212,291.301L183.182,288.507L188.858,285.008L189.565,278.948L194.77,282.891L201.006,281.098L198.946,288.154L202.504,293.509ZM92.631,293.39L89.278,293.213L87.308,295.331L86.279,292.331L83.396,291.007L86.132,289.332L86.455,286.419L88.926,288.302L91.926,287.449L90.927,290.83L92.631,293.39ZM95.661,275.126L103.66,275.774L102.836,292.331L98.924,294.566L95.807,289.772L98.543,281.596L89.338,283.271L95.661,275.126ZM98.806,255.804L106.454,245.776L120.717,247.071L112.218,252.716L135.51,262.245L139.303,278.155L128.657,280.979L104.542,260.512L103.66,269.596L100.984,266.009L104.69,255.07L98.806,255.804ZM173.314,123.63C175.043,125.866 175.975,128.291 176.122,130.898C176.296,133.999 175.24,136.946 172.928,139.728C171.386,141.583 168.582,143.886 164.502,146.622C160.481,149.319 156.399,151.86 152.255,154.243C148.14,156.609 143.958,159.287 139.708,162.275C135.502,165.232 132.432,167.864 130.507,170.181C129.715,171.134 129.222,172.004 129.056,172.808C128.926,173.438 128.965,173.929 129.277,174.263C131.303,176.43 134.608,177.34 139.162,177.099C143.898,176.849 148.911,175.685 154.201,173.613C159.522,171.529 164.849,168.731 170.183,165.221C175.495,161.725 179.75,158.059 182.941,154.219C184.142,152.774 185.063,151.446 185.699,150.233C186.297,149.093 186.641,148.269 186.695,147.746C186.75,147.201 186.777,146.71 186.773,146.275C186.769,145.611 186.93,145.151 187.162,144.872C187.622,144.318 188.341,144.082 189.353,144.314C190.179,144.504 190.921,144.941 191.571,145.636C192.245,146.357 192.802,147.195 193.241,148.153C193.674,149.095 193.982,150.166 194.163,151.367C194.348,152.594 194.176,153.993 193.626,155.562C193.093,157.079 192.205,158.592 190.953,160.099C188.572,162.963 185.556,165.79 181.903,168.576C178.267,171.349 174.341,173.881 170.125,176.171C165.904,178.464 161.475,180.352 156.839,181.835C154.424,182.608 152.062,183.247 149.752,183.752C154.371,184.682 163.947,183.838 164.152,183.881C167.136,182.235 171.094,180.128 176.027,177.56C176.032,177.557 176.038,177.554 176.044,177.551C176.692,177.237 177.255,177.343 177.733,177.855L178.418,178.588C178.472,177.344 179.055,176.206 180.208,175.196C181.336,174.208 182.659,173.627 184.18,173.458C185.747,173.282 187.056,173.597 188.114,174.369C189.235,175.186 189.779,176.267 189.755,177.605C189.732,178.893 189.149,180.068 187.962,181.109C186.834,182.097 185.51,182.678 183.99,182.847C183.402,182.913 182.851,182.91 182.335,182.839C182.456,183.07 182.487,183.337 182.411,183.644C182.325,183.988 182.133,184.262 181.833,184.463C181.812,184.476 181.791,184.489 181.769,184.5C172.495,189.313 166.515,192.541 163.828,194.187C161.219,195.785 159.424,197.156 158.459,198.317C158.029,198.834 157.822,199.228 158.13,199.558C158.29,199.729 158.599,199.795 159.025,199.849C159.928,199.963 161.256,199.883 163.008,199.625C165.5,199.257 168.462,198.505 171.896,197.372C171.932,197.347 171.968,197.322 172.004,197.297C174.482,195.577 179.375,192.798 186.685,188.965C186.691,188.962 186.697,188.958 186.704,188.955C187.352,188.641 187.915,188.748 188.393,189.259C188.393,189.259 192.756,193.927 192.756,193.927C193.021,194.21 193.122,194.56 193.015,194.989C192.93,195.333 192.738,195.607 192.437,195.808C192.417,195.821 192.396,195.834 192.375,195.845C184.317,200.038 179.041,202.966 176.548,204.631C174.103,206.265 172.061,208.064 170.426,210.032C170.053,210.481 169.796,210.921 169.668,211.361C169.627,211.5 169.603,211.623 169.602,211.731C169.602,211.778 169.593,211.821 169.619,211.849C170.418,212.704 171.922,213.13 174.094,213.241C176.352,213.357 178.864,213.087 181.633,212.437C182.136,211.314 182.754,210.313 183.484,209.434C186.258,206.096 189.397,203.566 192.897,201.839C194.701,200.949 196.217,200.464 197.439,200.362C198.84,200.245 199.897,200.615 200.631,201.401C201.348,202.168 201.659,203.161 201.523,204.394C201.4,205.509 200.792,206.765 199.651,208.137C196.17,212.327 191.62,215.374 185.997,217.273C185.683,218.276 185.824,219.128 186.471,219.82C186.817,220.19 187.364,220.367 188.087,220.414C189.409,220.5 191.24,220.132 193.585,219.34C196.705,217.56 201.475,214.998 207.896,211.654C207.902,211.651 207.908,211.648 207.913,211.645C208.562,211.331 209.124,211.438 209.602,211.949L210.081,212.461C210.125,211.204 210.708,210.055 211.871,209.036C212.999,208.048 214.323,207.467 215.843,207.298C217.411,207.122 218.72,207.437 219.777,208.209C220.898,209.026 221.442,210.107 221.418,211.445C221.396,212.733 220.812,213.908 219.625,214.949C218.497,215.937 217.174,216.518 215.653,216.687C215.076,216.752 214.534,216.75 214.027,216.683C214.287,216.965 214.386,217.313 214.28,217.738C214.195,218.082 214.003,218.356 213.702,218.557C213.682,218.571 213.661,218.583 213.639,218.594C204.365,223.407 198.384,226.635 195.698,228.281C193.089,229.879 191.294,231.25 190.328,232.412C189.899,232.929 189.691,233.322 190,233.652C190.159,233.823 190.468,233.89 190.894,233.943C191.798,234.057 193.125,233.977 194.877,233.719C197.26,233.368 200.074,232.664 203.316,231.614C204.881,230.413 206.645,229.383 208.611,228.527C212.206,226.96 215.838,226.321 219.506,226.606C223.252,226.897 226.224,228.236 228.432,230.598C230.124,232.408 231.085,234.26 231.347,236.137C231.616,238.07 231.025,239.941 229.533,241.736C227.619,244.039 225.073,245.282 221.888,245.452C218.795,245.617 215.904,245.104 213.214,243.917C210.759,242.833 208.695,241.534 207.018,240.023C206.365,240.593 205.772,241.199 205.239,241.84C204.162,243.136 203.476,244.414 203.201,245.682C202.955,246.81 203.21,247.785 203.974,248.602C204.596,249.267 205.382,249.871 206.33,250.418C207.304,250.98 208.602,251.491 210.223,251.959C211.839,252.427 213.863,252.537 216.292,252.307C218.432,252.105 220.707,251.599 223.119,250.794L237.502,243.325C237.507,243.322 237.513,243.32 237.518,243.317C238.167,243.002 238.729,243.109 239.207,243.621C239.207,243.621 243.626,248.348 243.626,248.348C243.89,248.631 243.991,248.981 243.885,249.41C243.789,249.795 243.552,250.075 243.155,250.225C243.155,250.225 242.941,250.341 242.942,250.341C243.539,250.44 244.106,250.584 244.643,250.771C245.869,251.2 246.758,251.651 247.321,252.106C247.86,252.542 248.493,253.147 249.218,253.923C250.598,255.399 251.259,257.089 251.214,258.988C251.17,260.867 250.559,262.512 249.385,263.925C248.262,265.276 246.848,266.457 245.14,267.465C245.129,267.471 245.118,267.477 245.106,267.483C240.142,270.034 236.659,271.887 234.658,273.043C232.746,274.148 231.477,275.052 230.87,275.783C230.44,276.3 230.232,276.693 230.541,277.024C230.759,277.257 231.15,277.383 231.684,277.471C232.719,277.64 234.212,277.588 236.165,277.333C239.508,276.895 243.064,275.972 246.824,274.572C246.997,274.493 247.151,274.463 247.286,274.465C251.681,262.157 254.074,248.898 254.074,235.085C254.074,183.112 220.187,138.992 173.314,123.63ZM33.617,275.518L35.978,260.906L44.798,256.088L45.284,265.759L33.617,275.518ZM68.374,275.516L56.423,266.816L57.193,256.088L66.785,261.932L68.374,275.516ZM95.955,263.598C95.955,263.598 93.726,264.232 93.726,264.232C94.485,265.959 94.443,268.037 93.413,269.845L96.72,269.979C96.72,269.979 94.896,267.246 94.896,267.246L95.955,263.598ZM169.743,249.334L176.007,252.188L179.241,263.569L169.743,249.334ZM137.657,250.424L144.568,246.216L145.391,238.864L151.685,243.658L159.242,241.481L156.745,250.011L161.037,256.48L152.508,256.069L147.568,261.394L144.979,253.804L137.657,250.424ZM93.065,254.373C92.686,254.936 92.218,255.437 91.68,255.854L93.838,257.628C93.838,257.628 93.065,254.373 93.065,254.373ZM19.892,243.913L30.396,239.854L39.892,245.33L30.696,251.158L20.154,246.913C20.055,245.921 19.967,244.919 19.892,243.913ZM177.771,247.63L179.977,246.275L180.242,243.924L182.271,245.453L184.683,244.775L183.889,247.511L185.242,249.569L182.534,249.452L180.947,251.158L180.094,248.718L177.771,247.63ZM85.767,245.33L71.954,250.362L62.099,245.33L72.204,240.111L85.767,245.33ZM151.797,201.659L150.596,205.25L155.861,214.22L145.892,213.72L140.422,219.337L153.743,230.337L177.446,224.453L168.771,246.775L175.154,243.424L175.802,234.426L183.007,240.159L187.391,238.941C187.23,238.876 187.08,238.808 186.942,238.735C186.138,238.312 185.278,237.621 184.37,236.649C183.109,235.301 182.513,233.58 182.607,231.479C182.698,229.434 183.446,227.558 184.861,225.856C185.045,225.635 185.243,225.411 185.456,225.186C184.259,224.898 183.268,224.326 182.479,223.482C181.277,222.196 180.594,220.595 180.446,218.675C177.192,219.211 174.183,219.226 171.419,218.728C168.345,218.173 166.078,217.08 164.597,215.496C163.063,213.855 162.388,211.916 162.57,209.678C162.71,207.959 163.257,206.359 164.214,204.88C161.989,205.43 160.161,205.635 158.734,205.509C157.097,205.364 155.879,205.065 155.073,204.641C154.269,204.218 153.408,203.526 152.501,202.555C152.237,202.273 152.002,201.974 151.797,201.659ZM90.909,245.299L90.892,245.226C90.821,245.263 90.748,245.297 90.675,245.33C90.767,245.374 90.859,245.418 90.949,245.466L90.909,245.299ZM136.951,215.603L134.158,214.25L133.128,238.953L124.099,244.982L114.747,230.777L121.159,213.484L107.513,216.397L113.805,208.336L131.216,209.631L135.804,211.22L136.951,215.603ZM108.423,237.6L102.159,237.308L98.513,241.218L96.601,235.629L91.221,233.158L96.278,230.041L96.897,224.63L101.543,228.16L107.101,226.542L105.276,232.835L108.423,237.6ZM225.628,234.715C225.703,234.796 225.759,234.872 225.766,234.96C225.694,235.44 225.394,235.872 224.908,236.286C224.304,236.798 223.432,237.261 222.3,237.691C222.297,237.692 222.294,237.693 222.291,237.694C218.661,239.129 214.952,238.899 211.161,237.028C213.922,235.45 216.722,234.406 219.564,233.899C221.111,233.623 222.411,233.559 223.463,233.719C224.403,233.863 225.13,234.182 225.628,234.715ZM33.617,215.144L45.803,224.221L44.798,234.574L35.216,230.049L33.617,215.144ZM68.374,215.144L65.894,229.603L57.193,234.572L57.247,224.607L68.374,215.144ZM81.367,214.368L80.453,215.505C80.529,216.287 80.46,217.092 80.222,217.88C80.209,217.926 80.195,217.97 80.178,218.015L78.666,222.142L85.066,218.437C86.073,217.855 87.185,217.602 88.282,217.649L88.425,215.19L81.367,214.368ZM64.079,143.141L70.546,145.608L72.309,151.812L72.104,167.459L61.28,174.605L73.22,179.604L77.192,191.927L84.455,182.341L94.748,183.163L94.574,185.811L78.604,196.25L83.984,199.367L80.191,200.339L72.897,194.369L71.956,203.573L68.783,205.8L68.77,205.788C66.245,203.605 62.358,203.809 60.085,206.234C60.052,206.269 60.022,206.305 59.993,206.34L57.193,209.706L57.193,202.293C57.193,198.979 54.444,196.242 50.997,196.242C47.547,196.242 44.798,198.979 44.798,202.293L44.798,209.706L41.998,206.34C41.969,206.305 41.939,206.269 41.906,206.234C39.633,203.809 35.746,203.605 33.221,205.788C31.676,207.124 30.977,209.024 31.152,210.871C29.641,209.796 27.649,209.456 25.722,210.131C22.578,211.23 20.81,214.7 21.769,217.88C21.783,217.926 21.796,217.97 21.813,218.015L23.325,222.142L20.466,220.486C24.353,189.233 40.563,161.778 64.079,143.141ZM85.514,207.014L88.102,200.839L96.601,204.074L99.043,213.808L89.278,205.925L89.132,206.044L88.308,210.955L85.514,207.014ZM82.514,210.544L80.985,208.221L81.867,205.193L79.19,205.955L76.956,204.28L76.662,206.868L74.192,208.398L76.81,209.574L77.123,210.504C77.62,210.767 78.073,211.095 78.475,211.475L79.486,210.398L82.514,210.544ZM146.862,208.692L143.215,208.544L141.127,210.807L140.01,207.573L136.892,206.132L139.834,204.309L140.185,201.192L142.862,203.219L146.098,202.31L145.039,205.955L146.862,208.692ZM126.055,181.811L122.306,192.398L129.863,203.515L134.01,201.427L135.422,189.809L143.481,197.28L151.125,195.134C151.49,193.947 152.109,192.826 152.984,191.771C145.947,189.695 137.976,186.382 135.34,184.79L135.341,184.791C133.984,184.615 132.655,184.351 131.352,183.997C129.41,183.469 127.644,182.74 126.055,181.811ZM103.629,192.104L104.248,186.693L108.894,190.222L114.453,188.605L112.601,194.897L115.777,199.663L109.482,199.367L105.835,203.281L103.923,197.691L98.543,195.22L103.629,192.104ZM77.897,171.429L78.337,167.43L81.778,170.016L85.896,168.84L84.543,173.488L86.866,177.018L82.22,176.782L79.544,179.693L78.132,175.546L74.133,173.723L77.897,171.429ZM129.93,118.029C117.287,118.763 105.18,121.504 93.918,125.938L90.279,137.638L96.043,146.373L96.424,144.019L102.984,150.225L112.042,147.785L109.747,157.196L114.276,164.488L105.19,163.989L99.925,169.899L109.924,179.399L120.518,176.65C119.653,175.106 119.209,173.275 119.196,171.152C119.179,168.192 120.481,165.093 123.153,161.878C125.457,159.105 129.004,156.143 133.801,153.003C138.553,149.893 143.146,147.227 147.579,145.005C151.979,142.799 156.239,140.511 160.359,138.142C164.393,135.822 167.043,133.926 168.288,132.428C169.227,131.298 169.671,130.212 169.559,129.143C169.441,128.026 168.695,126.786 167.387,125.386C164.729,122.543 161.153,120.892 156.668,120.409C152.114,119.919 147.613,120.551 143.167,122.302C138.73,124.049 135.168,126.532 132.486,129.759C131.061,131.474 130.208,133.147 129.953,134.792C129.716,136.321 130.089,137.622 131.087,138.69C132.452,140.15 134.332,140.669 136.709,140.305C139.145,139.932 140.929,139.108 142.036,137.776C142.423,137.31 142.827,137.238 143.121,137.307C143.303,137.349 143.483,137.449 143.638,137.639C143.791,137.825 143.944,138.168 144.037,138.677C144.384,140.105 144.042,141.466 142.976,142.749C140.966,145.168 137.975,146.666 133.984,147.204C129.954,147.746 126.594,146.572 123.899,143.688C121.69,141.326 120.661,138.001 120.871,133.697C121.077,129.463 122.601,125.631 125.449,122.204C126.741,120.65 128.234,119.258 129.93,118.029ZM94.514,161.341L96.985,162.165L98.159,168.871L95.955,167.105L95.131,178.694L90.337,172.399L94.514,161.341ZM83.074,163.666L76.485,157.665L83.337,148.607L95.69,149.489L95.338,154.195L88.573,158.167L92.865,160.636L83.074,163.666ZM106.1,159.665L103.07,159.548L101.308,161.429L100.396,158.724L97.779,157.519L100.248,156.018L100.544,153.43L102.778,155.108L105.455,154.343L104.571,157.371L106.1,159.665ZM75.665,135.043C76.512,134.523 77.364,134.016 78.223,133.519L79.749,134.667L84.19,133.374L82.72,138.431L85.251,142.255L80.22,142.02L77.309,145.137L75.78,140.668L71.456,138.668L75.543,136.168L75.665,135.043ZM153.862,80.436L179.889,104.287L180.419,105.288L180.29,105.606L180.195,106.039L180.189,106.092C174.413,104.148 168.461,102.581 162.366,101.421L161.821,100.432L161.261,99.409L160.126,97.318C160.038,97.141 159.95,96.995 159.89,96.847C157.125,91.759 155.303,86.083 153.862,80.436ZM126.011,79.759C123.982,85.819 121.482,91.818 117.923,97.024L117.894,97.024C117.835,97.141 117.775,97.229 117.687,97.318C117.658,97.406 117.57,97.523 117.452,97.671L117.042,98.249L116.246,99.381L115.61,100.266L115.274,100.721C108.993,101.722 102.856,103.153 96.893,104.984L96.631,104.2L98.278,101.641L126.011,79.759ZM140.465,49.848L140.627,49.852C142.334,49.909 143.98,50.645 145.127,51.938C146.303,53.174 146.951,54.849 146.862,56.556C146.803,58.291 146.038,59.908 144.803,61.086C143.509,62.26 141.863,62.879 140.128,62.819C138.421,62.762 136.775,62.026 135.628,60.733C134.452,59.497 133.804,57.82 133.864,56.115C133.952,54.35 134.717,52.763 135.95,51.587C137.096,50.519 138.581,49.913 140.141,49.852L140.465,49.848ZM212.533,14.49L212.739,14.493C220.061,14.64 222.354,22.1 218.297,30.998C205.399,42.147 189.145,48.573 172.115,49.219L171.713,49.233C178.065,33.087 191.329,20.618 207.857,15.296C209.586,14.744 211.148,14.488 212.533,14.49ZM70.673,9.257C72.254,9.253 74.061,9.626 76.074,10.442C92.16,16.971 104.454,30.352 109.63,46.91C92.543,45.117 76.633,37.47 64.545,25.293C61.224,16.382 63.823,9.274 70.673,9.257Z" style="fill:none;stroke:rgb(255,0,0);stroke-width:1px;"/>
</svg>
