<?xml version="1.0" encoding="UTF-8" standalone="no"?>
<!DOCTYPE svg PUBLIC "-//W3C//DTD SVG 1.1//EN" "http://www.w3.org/Graphics/SVG/1.1/DTD/svg11.dtd">
<svg width="100%" height="100%" viewBox="0 0 1123 794" version="1.1" xmlns="http://www.w3.org/2000/svg" xmlns:xlink="http://www.w3.org/1999/xlink" xml:space="preserve" xmlns:serif="http://www.serif.com/" style="fill-rule:evenodd;clip-rule:evenodd;stroke-linejoin:round;stroke-miterlimit:2;">
    <path d="M144.768,40.265C146.525,40.302 148.11,40.912 149.422,41.91C150.863,43.057 151.891,44.704 152.273,46.587C152.802,46.587 182.859,16.178 188.975,12.177C194.836,8.337 202.831,5.966 211.003,5.93C211.404,5.929 211.807,5.932 212.21,5.942C221.975,6.413 230.502,10.413 234.032,19.412C239.942,32.998 232.913,47.381 232.854,60.821C232.825,76.702 247.707,93.348 235.179,108.435C229.972,113.729 222.856,118.846 215.857,121.903L215.797,121.903L214.909,122.185L213.44,122.66C235.271,137.575 252.544,158.68 262.718,183.428L263.146,184.482L263.635,185.717L264.183,187.147L264.715,188.58L264.956,189.247L265.465,190.694L265.958,192.147L266.475,193.735L266.941,195.223L267.39,196.719L267.822,198.222L268.318,200.033L268.765,201.757L269.14,203.283L269.499,204.816L269.84,206.356L270.097,207.582L270.267,208.418L270.567,209.973L270.849,211.533L271.113,213.1L271.309,214.338L271.419,215.073L271.66,216.779L271.864,218.366L272.05,219.958L272.182,221.204L272.257,221.958L272.366,223.158L272.397,223.517L272.519,225.075L272.624,226.63L272.71,228.177L272.746,228.945L272.807,230.524L272.85,232.102C272.861,232.627 272.87,233.152 272.875,233.676L272.882,235.204L272.88,235.812C272.877,236.27 272.873,236.727 272.866,237.183L272.845,238.277C272.836,238.637 272.827,238.997 272.816,239.357L272.77,240.666L272.707,242.056L272.66,242.916C272.616,243.693 272.566,244.469 272.509,245.242L272.378,246.891L272.235,248.448L272.115,249.632L271.964,250.996L271.773,252.558L271.607,253.813L271.429,255.064L271.176,256.717L270.983,257.897L270.743,259.275L270.405,261.091L270.108,262.584L269.863,263.752L269.428,265.714L269.074,267.212L268.795,268.344L268.42,269.801L268.042,271.21L267.725,272.344L267.361,273.601L266.892,275.16L266.363,276.838L265.822,278.487L265.452,279.56L265.025,280.738L264.863,281.178C264.752,281.514 264.639,281.848 264.5,282.186C263.205,285.714 261.764,289.155 260.177,292.537C259.764,293.448 259.353,294.331 258.911,295.213C258.206,296.654 257.441,298.096 256.707,299.508C256.647,299.565 256.619,299.654 256.588,299.713C255.177,302.329 253.677,304.919 252.09,307.419L251.385,308.513L250.98,309.103L250.316,310.136L249.767,310.943L249.354,311.546L249.354,311.565C249.088,312.005 248.794,312.416 248.472,312.829C247.32,314.5 246.13,316.138 244.904,317.745L244.816,317.86C243.221,319.948 241.565,321.984 239.854,323.976L239.073,324.871L238.079,325.991L237.478,326.655L236.874,327.314L236.265,327.97L235.652,328.622L235.034,329.27L234.413,329.913L233.787,330.553L233.157,331.188L232.523,331.819L231.885,332.446L231.243,333.069L230.597,333.688L229.946,334.303L229.292,334.913L228.634,335.519L227.305,336.718L225.961,337.9L224.601,339.064L223.226,340.21L221.835,341.339L220.43,342.45L219.251,343.358L218.294,344.082L217.12,344.95L216.125,345.672L214.957,346.501L213.924,347.22L212.763,348.011L211.691,348.725L210.538,349.478L209.428,350.187L208.283,350.903L207.134,351.605L205.999,352.284L204.81,352.979L203.686,353.621L202.128,354.488L200.557,355.336L199.718,355.777L198.921,356.19L198.122,356.597L197.319,356.999L196.514,357.396L195.706,357.788L194.894,358.175L194.08,358.556L193.263,358.932L192.443,359.303L191.621,359.668L190.795,360.029L189.967,360.383L189.136,360.733L188.303,361.077L187.466,361.416L186.627,361.749L185.472,362.197L184.208,362.674L183.508,362.932C175.658,365.798 167.471,367.962 159.021,369.348L157.605,369.572L156.197,369.781L154.318,370.035L152.436,370.263L150.549,370.465L148.516,370.653L146.646,370.8L144.654,370.927L142.787,371.02L140.923,371.087L139.53,371.121L138.144,371.142L136.819,371.148L135.472,371.141L135.01,371.136L133.308,371.103L132.116,371.068L131.571,371.048C131.011,371.027 130.452,371.002 129.893,370.974L128.91,370.921L128.07,370.87L126.787,370.783L125.344,370.67L124.595,370.605L123.757,370.528L122.78,370.431L121.461,370.29L119.917,370.108L119.147,370.01L118.622,369.94C61.059,362.253 14.891,318.582 3.474,262.277L3.239,261.09L2.955,259.579L2.689,258.062L2.439,256.54L2.206,255.012L1.989,253.478L1.79,251.939L1.609,250.395L1.444,248.846L1.295,247.267L1.199,246.139L1.071,244.412L1.03,243.782L0.93,242.013L0.887,241.098L0.867,240.61L0.814,239.101L0.782,237.765L0.762,236.427L0.756,235.069L0.761,233.92L0.78,232.504L0.814,231.055L0.874,229.343L0.941,227.924L1.04,226.215L1.16,224.51L1.339,222.399L1.503,220.733L1.754,218.52L1.965,216.867L2.116,215.769L2.36,214.126L2.623,212.491L2.832,211.276L3.004,210.32L3.25,209.022L3.391,208.305L3.7,206.805L3.847,206.115L4.228,204.413L4.525,203.156L4.699,202.441L5.07,200.971L5.248,200.286L5.705,198.602L6.047,197.393L6.255,196.679L6.685,195.245L7.142,193.78L7.652,192.213L8.179,190.657L8.724,189.112L9.286,187.576L9.865,186.051L10.462,184.535L11.076,183.028L11.589,181.809L12.228,180.334L12.884,178.867L13.557,177.41L14.247,175.963L14.953,174.524L15.675,173.096L16.414,171.677L17.169,170.268L17.681,169.334L18.2,168.404L18.727,167.479L19.26,166.559L19.8,165.643L20.347,164.732L20.901,163.825L21.462,162.923L21.995,162.081C24.011,158.918 26.155,155.843 28.418,152.865L29.105,151.969L30.119,150.673L31.137,149.404L32.163,148.156L33.2,146.924L34.249,145.708L35.309,144.506L36.64,143.037L37.833,141.756L39.206,140.322L40.549,138.958L41.845,137.678L43.198,136.376L44.743,134.932L46.31,133.513L47.5,132.464L48.702,131.429L49.916,130.407L51.142,129.4L52.38,128.406L53.63,127.427L54.892,126.462L56.165,125.511L57.449,124.575L58.745,123.654L60.052,122.747L61.369,121.855L62.698,120.978L64.037,120.117L64.936,119.551L65.84,118.992C65.398,118.817 65.044,118.669 64.75,118.492L64.722,118.492C55.281,115.374 48.341,108.758 41.958,101.287C30.577,85.318 46.666,69.791 47.751,53.967C48.723,40.557 42.782,25.706 49.694,12.56C53.84,3.853 62.664,0.531 72.427,0.768C81.014,1.208 89.338,4.267 95.161,8.707C107.57,18.236 119.159,31.999 128.776,45.146C128.776,44.116 130.394,42.292 132.157,41.293C133.276,40.617 134.598,40.263 136.01,40.263L144.597,40.263L144.768,40.265ZM233.106,301.981L233,302.134C230.483,303.681 227.993,305.253 225.474,306.802C223.721,307.892 224.466,310.555 226.475,310.623C225.699,311.543 224.907,312.453 224.102,313.349L223.767,313.36C222.62,313.389 221.681,314.328 221.65,315.475C221.645,315.641 221.659,315.803 221.69,315.957C200.328,338.368 170.192,352.34 136.819,352.34C129.603,352.34 122.539,351.687 115.679,350.436L134.186,327.506L164.772,329.681L159.508,320.888L165.184,312.093L175.802,312.975L170.243,303.566L173.565,295.625L181.093,299.3L186.535,320.035L200.475,303.418L218.297,304.448C218.326,304.8 218.445,305.153 218.65,305.447C219.327,306.417 220.62,306.683 221.621,306.066C224.267,304.448 226.915,302.799 229.591,301.155C230.762,301.438 231.935,301.697 233.106,301.981ZM107.895,341.033L113.364,348.678L110.159,337.003L107.895,341.033ZM104.571,345.769L100.63,345.592L99.878,346.393C99.065,346.123 98.255,345.844 97.449,345.556L97.102,344.532L93.718,342.975L96.925,341.004L97.306,337.591L100.219,339.797L103.749,338.798L102.571,342.768L104.571,345.769ZM85.131,273.303L79.354,270.4L80.178,272.648C80.193,272.692 80.209,272.736 80.222,272.78C81.181,275.96 79.411,279.432 76.27,280.531C74.342,281.206 72.35,280.866 70.84,279.792C71.014,281.638 70.315,283.537 68.77,284.872C67.596,285.888 66.126,286.394 64.662,286.394C62.977,286.394 61.301,285.725 60.085,284.426C60.052,284.392 60.022,284.357 59.993,284.321L57.193,280.956L57.193,288.369C57.193,291.684 54.444,294.418 50.997,294.418C47.547,294.418 44.798,291.684 44.798,288.369L44.798,280.956L41.998,284.321C41.969,284.357 41.939,284.392 41.906,284.426C39.633,286.853 35.746,287.057 33.221,284.874L33.221,284.872C31.676,283.537 30.977,281.638 31.152,279.792C30.457,280.285 29.66,280.624 28.814,280.779C39.992,307.142 60.547,328.582 86.29,340.908L91.19,337.739L92.396,325.651L101.189,333.062L108.66,330.739L105.749,320.828L76.779,308.771L84.691,302.624L82.543,295.744L74.367,291.949L81.926,286.273L82.749,277.684L87.308,281.333L85.131,273.303ZM117.923,310.182L108.954,306.066L117.395,300.861L118.423,291.83L126.187,297.713L135.451,295.037L132.392,305.535L137.657,313.475L127.187,312.975L121.099,319.533L117.923,310.182ZM158.478,319.476L151.155,307.801L156.126,310.066L158.478,319.476ZM156.891,305.007L159.832,303.212L160.184,300.067L162.889,302.125L166.096,301.183L165.036,304.83L166.861,307.595L163.243,307.419L161.125,309.711L160.007,306.448L156.891,305.007ZM169.832,294.508L163.95,296.566L155.684,289.92L154.539,300.772L148.686,303.77L158.714,273.038L151.862,274.421L157.803,267.421L179.124,269.362L177.948,279.302L160.979,290.508L169.832,294.508ZM223.767,299.771C222.62,300.476 221.444,301.212 220.268,301.948L218.827,299.713C219.267,299.448 219.709,299.183 220.151,298.889C221.356,299.183 222.561,299.477 223.767,299.771ZM91.073,297.625L88.014,301.654L94.543,297.832L91.073,297.625ZM191.27,240.884L189.181,246.452L193.977,254.57L184.8,253.892L181.418,258.158L196.505,270.363L217.563,265.832L210.092,286.304L214.679,293.332C214.886,293.39 215.092,293.448 215.297,293.478C215.003,293.008 214.709,292.537 214.444,292.068C213.827,291.067 214.15,289.772 215.209,289.213C216.208,288.655 217.503,289.009 218.12,289.979C219.121,291.624 220.12,293.244 221.091,294.862C222.326,295.154 223.533,295.448 224.738,295.744C223.798,294.214 222.885,292.712 221.975,291.213C221.356,290.183 221.681,288.89 222.737,288.331C223.738,287.802 225.032,288.125 225.65,289.124C227.268,291.772 228.915,294.449 230.531,297.123C231.737,297.39 232.973,297.682 234.178,297.978C232.591,295.39 231.002,292.802 229.414,290.214C228.325,288.419 230.296,286.304 232.178,287.303C234.692,288.656 237.18,290.008 239.692,291.362L239.958,290.875C239.678,289.929 239.398,288.992 239.12,288.037C236.355,286.567 233.619,285.068 230.856,283.596C229.854,283.068 229.414,281.773 229.914,280.745C230.018,280.518 230.155,280.321 230.318,280.156C229.233,279.899 228.365,279.579 227.711,279.204C226.791,278.674 225.854,277.906 224.908,276.894C223.568,275.46 222.967,273.779 223.101,271.849C223.231,269.986 224.049,268.124 225.584,266.277C226.718,264.912 227.94,263.765 229.247,262.833C230.523,261.924 233.026,260.514 236.772,258.605C240.759,256.387 243.374,254.564 244.594,253.106C244.873,252.773 245.072,252.467 245.182,252.18C245.284,251.915 245.299,251.679 245.184,251.469C244.471,250.757 243.043,250.458 240.937,250.431C238.611,250.402 235.828,250.975 232.583,252.135L212.829,262.396C212.823,262.399 212.818,262.402 212.813,262.404C212.122,262.739 211.566,262.62 211.13,262.154C211.13,262.154 206.459,257.157 206.459,257.157C206.189,256.868 206.086,256.509 206.195,256.07C206.28,255.728 206.466,255.454 206.758,255.25C205.927,255.098 205.252,254.882 204.731,254.608C203.883,254.161 202.997,253.453 202.081,252.473C200.714,251.011 200.07,249.18 200.169,246.974C200.241,245.362 200.7,243.851 201.551,242.441C196.885,243.496 193.463,242.932 191.27,240.884ZM202.504,293.509L195.447,293.184L191.358,297.567L189.212,291.301L183.182,288.507L188.858,285.008L189.565,278.948L194.77,282.891L201.006,281.098L198.946,288.154L202.504,293.509ZM92.631,293.39L89.278,293.213L87.308,295.331L86.279,292.331L83.396,291.007L86.132,289.332L86.455,286.419L88.926,288.302L91.926,287.449L90.927,290.83L92.631,293.39ZM95.661,275.126L103.66,275.774L102.836,292.331L98.924,294.566L95.807,289.772L98.543,281.596L89.338,283.271L95.661,275.126ZM236.884,280.258C235.885,280.427 234.968,280.527 234.132,280.56C235.226,281.15 236.32,281.733 237.414,282.332C237.281,281.88 237.09,281.109 236.884,280.258ZM242.648,278.824C242.053,279.008 241.476,279.177 240.918,279.332C241.099,280.075 241.265,280.731 241.383,281.125C241.806,280.354 242.229,279.589 242.648,278.824ZM98.806,255.804L106.454,245.776L120.717,247.071L112.218,252.716L135.51,262.245L139.303,278.155L128.657,280.979L104.542,260.512L103.66,269.596L100.984,266.009L104.69,255.07L98.806,255.804ZM33.617,275.518L35.978,260.906L44.798,256.088L45.284,265.759L33.617,275.518ZM68.374,275.516L56.423,266.816L57.193,256.088L66.785,261.932L68.374,275.516ZM251.389,260.129C251.323,260.214 251.256,260.298 251.186,260.382C250.002,261.807 248.511,263.052 246.709,264.115C246.698,264.121 246.687,264.128 246.675,264.134C241.428,266.83 237.746,268.789 235.63,270.011C233.604,271.182 232.259,272.141 231.616,272.916C231.145,273.481 230.932,273.916 231.27,274.277C231.505,274.529 231.924,274.667 232.499,274.761C233.596,274.941 235.178,274.887 237.247,274.616C240.686,274.165 244.338,273.23 248.196,271.816C249.455,268.003 250.523,264.104 251.389,260.129ZM95.955,263.598C95.955,263.598 93.726,264.232 93.726,264.232C94.485,265.959 94.443,268.037 93.413,269.845L96.72,269.979C96.72,269.979 94.896,267.246 94.896,267.246L95.955,263.598ZM169.743,249.334L176.007,252.188L179.241,263.569L169.743,249.334ZM137.657,250.424L144.568,246.216L145.391,238.864L151.685,243.658L159.242,241.481L156.745,250.011L161.037,256.48L152.508,256.069L147.568,261.394L144.979,253.804L137.657,250.424ZM93.065,254.373C92.686,254.936 92.218,255.437 91.68,255.854L93.838,257.628C93.838,257.628 93.065,254.373 93.065,254.373ZM175.784,124.469C176.706,125.849 177.699,127.379 178.761,129.058C182.483,134.939 185.158,139.004 186.787,141.253C190.339,142.106 193.3,143.804 195.671,146.341C196.652,147.39 197.286,148.69 197.563,150.246C197.853,151.869 197.469,153.318 196.409,154.593C195.338,155.881 193.944,156.467 192.223,156.34C190.585,156.22 189.004,155.383 187.507,153.78C186.017,152.187 184.515,150.449 182.998,148.567C179.92,149.051 175.916,150.294 170.983,152.285C165.797,154.378 160.849,156.559 156.141,158.828C151.401,161.112 150.19,161.164 144.321,163.297C138.862,165.281 134.038,166.556 129.847,167.127C133.209,172.788 136.393,177.23 139.404,180.452C144.497,185.9 148.492,187.055 151.502,183.432C151.779,183.1 152.092,183 152.391,183.027C152.694,183.054 153.089,183.267 153.426,183.841C153.432,183.85 153.437,183.86 153.443,183.87C153.738,184.435 153.813,185.102 153.631,185.874C153.404,186.837 152.746,188.003 151.625,189.352C150.583,190.606 149.462,191.703 148.264,192.643C147.059,193.588 145.734,194.38 144.288,195.019C143.45,195.389 142.6,195.605 141.739,195.666L143.481,197.28L152.921,194.63C153.386,192.203 154.638,189.745 156.698,187.267C158.384,185.237 160.559,183.41 163.226,181.79C165.874,180.182 168.621,178.95 171.469,178.093C174.363,177.222 177.254,177.019 180.143,177.482C183.091,177.955 185.487,179.187 187.337,181.166C189.373,183.345 190.073,185.741 189.44,188.355C190.011,188.159 190.513,188.299 190.948,188.765C190.948,188.765 195.619,193.761 195.619,193.761C195.89,194.051 195.992,194.409 195.884,194.848C195.796,195.203 195.598,195.484 195.289,195.691C195.268,195.705 195.247,195.717 195.225,195.729C186.204,200.406 180.366,203.569 177.712,205.218C175.131,206.822 173.322,208.231 172.301,209.46C171.831,210.026 171.617,210.46 171.955,210.822C172.111,210.989 172.422,211.045 172.853,211.091C173.779,211.188 175.146,211.082 176.956,210.787C179.923,210.304 183.607,209.273 188.007,207.7C192.523,205.164 204.025,199.097 222.514,189.498C222.854,189.311 223.169,189.248 223.452,189.274C223.779,189.303 224.079,189.445 224.34,189.724C224.34,189.724 229.011,194.721 229.011,194.721C229.28,195.009 229.389,195.392 229.232,195.887C229.095,196.32 228.86,196.567 228.611,196.691C208.605,207.061 196.575,213.379 192.522,215.647C188.565,217.862 185.898,219.773 184.541,221.405C184.071,221.971 183.857,222.406 184.195,222.767C184.554,223.151 185.095,223.378 185.8,223.488C186.623,223.617 187.648,223.58 188.875,223.389C191.196,223.028 194.524,222.084 198.856,220.567C198.985,220.486 199.116,220.406 199.247,220.326C201.895,218.718 204.642,217.486 207.49,216.629C210.384,215.758 213.275,215.555 216.164,216.018C219.063,216.482 221.429,217.682 223.266,219.604C223.397,219.51 223.539,219.427 223.69,219.356C223.69,219.356 232.963,215.009 232.963,215.009C234.301,214.382 235.905,214.967 236.54,216.322C236.54,216.322 238.272,220.016 238.272,220.016C238.907,221.371 238.33,222.978 236.992,223.605C236.94,223.629 236.885,223.647 236.828,223.657C236.828,223.657 225.876,225.634 225.88,225.632C225.804,225.665 225.727,225.694 225.65,225.719C225.616,226.105 225.552,226.496 225.457,226.892C226.03,226.694 226.533,226.834 226.969,227.3C226.969,227.3 231.64,232.297 231.64,232.297C231.91,232.586 232.013,232.945 231.905,233.384C231.817,233.738 231.619,234.02 231.309,234.227C231.289,234.24 231.268,234.253 231.246,234.264C222.225,238.942 216.387,242.104 213.733,243.754C211.152,245.358 209.343,246.766 208.322,247.996C207.852,248.561 207.638,248.996 207.976,249.357C208.132,249.525 208.443,249.581 208.874,249.626C209.8,249.724 211.167,249.617 212.977,249.323C215.993,248.831 219.75,247.774 224.249,246.156L238.673,238.666C238.678,238.664 238.684,238.661 238.689,238.658C239.358,238.334 239.937,238.444 240.43,238.971C240.43,238.971 245.101,243.968 245.101,243.968C245.371,244.257 245.474,244.616 245.365,245.055C245.267,245.451 245.023,245.737 244.615,245.891C244.615,245.891 244.288,246.068 244.289,246.068C244.958,246.172 245.592,246.33 246.191,246.539C247.481,246.99 248.417,247.465 249.01,247.944C249.578,248.403 250.246,249.042 251.011,249.86C251.835,250.741 252.415,251.695 252.754,252.72C253.624,246.969 254.074,241.079 254.074,235.085C254.074,184.025 221.367,140.543 175.784,124.469ZM177.771,247.63L179.977,246.275L180.242,243.924L182.271,245.453L184.683,244.775L183.889,247.511L185.242,249.569L182.534,249.452L180.947,251.158L180.094,248.718L177.771,247.63ZM19.892,243.913L30.396,239.854L39.892,245.33L30.696,251.158L20.154,246.913C20.055,245.921 19.967,244.919 19.892,243.913ZM85.767,245.33L71.954,250.362L62.099,245.33L72.204,240.111L85.767,245.33ZM177.039,225.502L168.771,246.775L175.154,243.424L175.802,234.426L183.007,240.159L189.448,238.37C188.797,236.962 188.6,235.389 188.859,233.65C189.108,231.977 189.731,230.289 190.736,228.59C188.165,229.322 186.071,229.653 184.455,229.597C182.754,229.538 181.478,229.265 180.62,228.813C179.776,228.369 178.83,227.6 177.795,226.491C177.507,226.184 177.255,225.854 177.039,225.502ZM90.909,245.299L90.892,245.226C90.821,245.263 90.748,245.297 90.675,245.33C90.767,245.374 90.859,245.418 90.949,245.466L90.909,245.299ZM136.951,215.603L134.158,214.25L133.128,238.953L124.099,244.982L114.747,230.777L121.159,213.484L107.513,216.397L113.805,208.336L131.216,209.631L135.804,211.22L136.951,215.603ZM108.423,237.6L102.159,237.308L98.513,241.218L96.601,235.629L91.221,233.158L96.278,230.041L96.897,224.63L101.543,228.16L107.101,226.542L105.276,232.835L108.423,237.6ZM217.835,230.895C215.419,232.158 213.395,233.289 211.764,234.287C206.949,236.194 203.271,237.214 200.725,237.32C199.24,237.382 198.182,237.156 197.584,236.516C197.283,236.194 197.231,235.727 197.336,235.134C197.47,234.386 197.885,233.615 198.556,232.808C200.16,230.877 202.497,228.983 205.557,227.114C208.626,225.241 211.673,223.952 214.701,223.254C217.482,222.612 219.428,222.765 220.513,223.926C221.073,224.524 221.071,225.421 220.675,226.604C220.214,227.983 219.262,229.408 217.836,230.894L217.835,230.895ZM33.617,215.144L45.803,224.221L44.798,234.574L35.216,230.049L33.617,215.144ZM68.374,215.144L65.894,229.603L57.193,234.572L57.247,224.607L68.374,215.144ZM152.915,198.314L150.596,205.25L155.861,214.22L145.892,213.72L140.422,219.337L153.743,230.337L176.61,224.661C176.148,223.556 175.985,222.266 176.133,220.79C176.293,219.192 176.765,217.707 177.55,216.335C175.525,216.816 173.849,217.009 172.524,216.924C170.833,216.816 169.564,216.522 168.71,216.072C167.862,215.626 166.976,214.918 166.06,213.938C164.693,212.475 164.049,210.645 164.148,208.438C164.22,206.827 164.679,205.315 165.53,203.905C160.615,205.017 157.081,204.332 154.909,202.009C153.882,200.909 153.216,199.678 152.915,198.314ZM64.079,143.141L70.546,145.608L72.309,151.812L72.104,167.459L61.28,174.605L73.22,179.604L77.192,191.927L84.455,182.341L94.748,183.163L94.574,185.811L78.604,196.25L83.984,199.367L80.191,200.339L72.897,194.369L71.956,203.573L68.783,205.8L68.77,205.788C66.245,203.605 62.358,203.809 60.085,206.234C60.052,206.269 60.022,206.305 59.993,206.34L57.193,209.706L57.193,202.293C57.193,198.979 54.444,196.242 50.997,196.242C47.547,196.242 44.798,198.979 44.798,202.293L44.798,209.706L41.998,206.34C41.969,206.305 41.939,206.269 41.906,206.234C39.633,203.809 35.746,203.605 33.221,205.788C31.676,207.124 30.977,209.024 31.152,210.871C29.641,209.796 27.649,209.456 25.722,210.131C22.578,211.23 20.81,214.7 21.769,217.88C21.783,217.926 21.796,217.97 21.813,218.015L23.325,222.142L20.466,220.486C24.353,189.233 40.563,161.778 64.079,143.141ZM81.367,214.368L80.453,215.505C80.529,216.287 80.46,217.092 80.222,217.88C80.209,217.926 80.195,217.97 80.178,218.015L78.666,222.142L85.066,218.437C86.073,217.855 87.185,217.602 88.282,217.649L88.425,215.19L81.367,214.368ZM85.514,207.014L88.102,200.839L96.601,204.074L99.043,213.808L89.278,205.925L89.132,206.044L88.308,210.955L85.514,207.014ZM82.514,210.544L80.985,208.221L81.867,205.193L79.19,205.955L76.956,204.28L76.662,206.868L74.192,208.398L76.81,209.574L77.123,210.504C77.62,210.767 78.073,211.095 78.475,211.475L79.486,210.398L82.514,210.544ZM146.862,208.692L143.215,208.544L141.127,210.807L140.01,207.573L136.892,206.132L139.834,204.309L140.185,201.192L142.862,203.219L146.098,202.31L145.039,205.955L146.862,208.692ZM126.708,179.965L122.306,192.398L129.863,203.515L134.01,201.427L135.07,192.706C134.434,192.018 133.81,191.277 133.196,190.483C132.556,189.653 131.983,188.896 131.48,188.213C130.967,187.518 130.399,186.642 129.775,185.583C129.164,184.545 128.677,183.713 128.315,183.085C127.948,182.449 127.467,181.523 126.874,180.305L126.708,179.965ZM103.629,192.104L104.248,186.693L108.894,190.222L114.453,188.605L112.601,194.897L115.777,199.663L109.482,199.367L105.835,203.281L103.923,197.691L98.543,195.22L103.629,192.104ZM181.814,192.359C179.398,193.622 177.374,194.753 175.743,195.751C170.928,197.658 167.25,198.678 164.704,198.785C163.22,198.847 162.161,198.621 161.563,197.98C161.262,197.658 161.21,197.192 161.315,196.599C161.449,195.851 161.864,195.08 162.535,194.272C164.139,192.342 166.476,190.447 169.536,188.579C172.605,186.705 175.652,185.417 178.68,184.719C181.461,184.077 183.407,184.229 184.492,185.39C185.052,185.989 185.05,186.886 184.654,188.069C184.193,189.447 183.241,190.873 181.815,192.358L181.814,192.359ZM77.897,171.429L78.337,167.43L81.778,170.016L85.896,168.84L84.543,173.488L86.866,177.018L82.22,176.782L79.544,179.693L78.132,175.546L74.133,173.723L77.897,171.429ZM112.187,164.373L105.19,163.989L99.925,169.899L109.924,179.399L124.649,175.578C124.554,175.351 124.455,175.11 124.35,174.855C123.797,173.504 123.437,172.644 123.27,172.275C123.1,171.9 122.714,170.981 122.114,169.518C121.696,168.498 121.404,167.761 121.238,167.308C117.847,166.948 114.83,165.969 112.187,164.373ZM94.514,161.341L96.985,162.165L98.159,168.871L95.955,167.105L95.131,178.694L90.337,172.399L94.514,161.341ZM83.074,163.666L76.485,157.665L83.337,148.607L95.69,149.489L95.338,154.195L88.573,158.167L92.865,160.636L83.074,163.666ZM105.07,154.453L102.778,155.108L100.544,153.43L100.248,156.018L97.779,157.519L100.396,158.724L101.308,161.429L103.07,159.548L106.1,159.665L104.571,157.371L105.142,155.416C105.122,155.268 105.107,155.118 105.096,154.968C105.082,154.794 105.074,154.622 105.07,154.453ZM110.491,154.144L110.542,153.937C110.614,153.709 110.738,153.487 110.917,153.272C111.269,152.848 111.692,152.643 112.197,152.683C112.789,152.73 113.381,153.128 114.017,153.808C115.148,155.019 116.318,156.743 117.534,158.978C114.98,158.87 112.994,158.088 111.593,156.589L111.593,156.589C110.757,155.695 110.362,154.885 110.491,154.144ZM147.243,118.287C143.811,117.984 140.333,117.829 136.819,117.829C121.682,117.829 107.211,120.704 93.918,125.938L90.279,137.638L96.043,146.373L96.424,144.019L102.984,150.225L106.991,149.146C108.448,147.471 110.234,146.62 112.342,146.581C114.477,146.541 116.68,147.666 118.905,150.046C120.465,151.715 122.373,154.427 124.622,158.187C127.907,157.377 132.087,155.947 137.164,153.9C142.52,151.74 143.427,151.788 148.075,149.731C152.747,147.661 157.892,145.713 163.509,143.884C168.63,142.218 173.128,141.176 177.001,140.755C171.389,133.167 167.505,128.216 165.345,125.906C163.344,123.765 161.366,122.198 159.403,121.213C157.525,120.27 155.905,119.863 154.531,120.038C153.135,120.215 151.97,120.525 151.04,120.976C150.148,121.408 149.432,121.941 148.899,122.583C148.699,122.824 148.475,122.922 148.266,122.945C148.036,122.971 147.786,122.913 147.546,122.698C147.36,122.532 147.14,122.194 146.939,121.654C146.935,121.642 146.931,121.63 146.927,121.619C146.57,120.468 146.67,119.356 147.243,118.287ZM75.665,135.043C76.512,134.523 77.364,134.016 78.223,133.519L79.749,134.667L84.19,133.374L82.72,138.431L85.251,142.255L80.22,142.02L77.309,145.137L75.78,140.668L71.456,138.668L75.543,136.168L75.665,135.043ZM153.862,80.436L179.889,104.287L180.419,105.288L180.29,105.606L180.195,106.039L180.189,106.092C174.413,104.148 168.461,102.581 162.366,101.421L161.821,100.432L161.261,99.409L160.126,97.318C160.038,97.141 159.95,96.995 159.89,96.847C157.125,91.759 155.303,86.083 153.862,80.436ZM126.011,79.759C123.982,85.819 121.482,91.818 117.923,97.024L117.894,97.024C117.835,97.141 117.775,97.229 117.687,97.318C117.658,97.406 117.57,97.523 117.452,97.671L117.042,98.249L116.246,99.381L115.61,100.266L115.274,100.721C108.993,101.722 102.856,103.153 96.893,104.984L96.631,104.2L98.278,101.641L126.011,79.759ZM140.465,49.848L140.627,49.852C142.334,49.909 143.98,50.645 145.127,51.938C146.303,53.174 146.951,54.849 146.862,56.556C146.803,58.291 146.038,59.908 144.803,61.086C143.509,62.26 141.863,62.879 140.128,62.819C138.421,62.762 136.775,62.026 135.628,60.733C134.452,59.497 133.804,57.82 133.864,56.115C133.952,54.35 134.717,52.763 135.95,51.587C137.096,50.519 138.581,49.913 140.141,49.852L140.465,49.848ZM212.533,14.49L212.739,14.493C220.061,14.64 222.354,22.1 218.297,30.998C205.399,42.147 189.145,48.573 172.115,49.219L171.713,49.233C178.065,33.087 191.329,20.618 207.857,15.296C209.586,14.744 211.148,14.488 212.533,14.49ZM70.673,9.257C72.254,9.253 74.061,9.626 76.074,10.442C92.16,16.971 104.454,30.352 109.63,46.91C92.543,45.117 76.633,37.47 64.545,25.293C61.224,16.382 63.823,9.274 70.673,9.257Z" style="fill:none;stroke:rgb(255,0,0);stroke-width:1px;"/>
</svg>
