<?xml version="1.0" encoding="UTF-8" standalone="no"?>
<!DOCTYPE svg PUBLIC "-//W3C//DTD SVG 1.1//EN" "http://www.w3.org/Graphics/SVG/1.1/DTD/svg11.dtd">
<svg width="100%" height="100%" viewBox="0 0 1123 794" version="1.1" xmlns="http://www.w3.org/2000/svg" xmlns:xlink="http://www.w3.org/1999/xlink" xml:space="preserve" xmlns:serif="http://www.serif.com/" style="fill-rule:evenodd;clip-rule:evenodd;stroke-linejoin:round;stroke-miterlimit:2;">
    <path d="M144.768,40.265C146.525,40.302 148.11,40.912 149.422,41.91C150.863,43.057 151.891,44.704 152.273,46.587C152.802,46.587 182.859,16.178 188.975,12.177C194.836,8.337 202.831,5.966 211.003,5.93C211.404,5.929 211.807,5.932 212.21,5.942C221.975,6.413 230.502,10.413 234.032,19.412C239.942,32.998 232.913,47.381 232.854,60.821C232.825,76.702 247.707,93.348 235.179,108.435C229.972,113.729 222.856,118.846 215.857,121.903L215.797,121.903L214.909,122.185L213.44,122.66C235.271,137.575 252.544,158.68 262.718,183.428L263.146,184.482L263.635,185.717L264.183,187.147L264.715,188.58L264.956,189.247L265.465,190.694L265.958,192.147L266.475,193.735L266.941,195.223L267.39,196.719L267.822,198.222L268.318,200.033L268.765,201.757L269.14,203.283L269.499,204.816L269.84,206.356L270.097,207.582L270.267,208.418L270.567,209.973L270.849,211.533L271.113,213.1L271.309,214.338L271.419,215.073L271.66,216.779L271.864,218.366L272.05,219.958L272.182,221.204L272.257,221.958L272.366,223.158L272.397,223.517L272.519,225.075L272.624,226.63L272.71,228.177L272.746,228.945L272.807,230.524L272.85,232.102C272.861,232.627 272.87,233.152 272.875,233.676L272.882,235.204L272.88,235.812C272.877,236.27 272.873,236.727 272.866,237.183L272.845,238.277C272.836,238.637 272.827,238.997 272.816,239.357L272.77,240.666L272.707,242.056L272.66,242.916C272.616,243.693 272.566,244.469 272.509,245.242L272.378,246.891L272.235,248.448L272.115,249.632L271.964,250.996L271.773,252.558L271.607,253.813L271.429,255.064L271.176,256.717L270.983,257.897L270.743,259.275L270.405,261.091L270.108,262.584L269.863,263.752L269.428,265.714L269.074,267.212L268.795,268.344L268.42,269.801L268.042,271.21L267.725,272.344L267.361,273.601L266.892,275.16L266.363,276.838L265.822,278.487L265.452,279.56L265.025,280.738L264.863,281.178C264.752,281.514 264.639,281.848 264.5,282.186C263.205,285.714 261.764,289.155 260.177,292.537C259.764,293.448 259.353,294.331 258.911,295.213C258.206,296.654 257.441,298.096 256.707,299.508C256.647,299.565 256.619,299.654 256.588,299.713C255.177,302.329 253.677,304.919 252.09,307.419L251.385,308.513L250.98,309.103L250.316,310.136L249.767,310.943L249.354,311.546L249.354,311.565C249.088,312.005 248.794,312.416 248.472,312.829C247.32,314.5 246.13,316.138 244.904,317.745L244.816,317.86C243.221,319.948 241.565,321.984 239.854,323.976L239.073,324.871L238.079,325.991L237.478,326.655L236.874,327.314L236.265,327.97L235.652,328.622L235.034,329.27L234.413,329.913L233.787,330.553L233.157,331.188L232.523,331.819L231.885,332.446L231.243,333.069L230.597,333.688L229.946,334.303L229.292,334.913L228.634,335.519L227.305,336.718L225.961,337.9L224.601,339.064L223.226,340.21L221.835,341.339L220.43,342.45L219.251,343.358L218.294,344.082L217.12,344.95L216.125,345.672L214.957,346.501L213.924,347.22L212.763,348.011L211.691,348.725L210.538,349.478L209.428,350.187L208.283,350.903L207.134,351.605L205.999,352.284L204.81,352.979L203.686,353.621L202.128,354.488L200.557,355.336L199.718,355.777L198.921,356.19L198.122,356.597L197.319,356.999L196.514,357.396L195.706,357.788L194.894,358.175L194.08,358.556L193.263,358.932L192.443,359.303L191.621,359.668L190.795,360.029L189.967,360.383L189.136,360.733L188.303,361.077L187.466,361.416L186.627,361.749L185.472,362.197L184.208,362.674L183.508,362.932C175.658,365.798 167.471,367.962 159.021,369.348L157.605,369.572L156.197,369.781L154.318,370.035L152.436,370.263L150.549,370.465L148.516,370.653L146.646,370.8L144.654,370.927L142.787,371.02L140.923,371.087L139.53,371.121L138.144,371.142L136.819,371.148L135.472,371.141L135.01,371.136L133.308,371.103L132.116,371.068L131.571,371.048C131.011,371.027 130.452,371.002 129.893,370.974L128.91,370.921L128.07,370.87L126.787,370.783L125.344,370.67L124.595,370.605L123.757,370.528L122.78,370.431L121.461,370.29L119.917,370.108L119.147,370.01L118.622,369.94C61.059,362.253 14.891,318.582 3.474,262.277L3.239,261.09L2.955,259.579L2.689,258.062L2.439,256.54L2.206,255.012L1.989,253.478L1.79,251.939L1.609,250.395L1.444,248.846L1.295,247.267L1.199,246.139L1.071,244.412L1.03,243.782L0.93,242.013L0.887,241.098L0.867,240.61L0.814,239.101L0.782,237.765L0.762,236.427L0.756,235.069L0.761,233.92L0.78,232.504L0.814,231.055L0.874,229.343L0.941,227.924L1.04,226.215L1.16,224.51L1.339,222.399L1.503,220.733L1.754,218.52L1.965,216.867L2.116,215.769L2.36,214.126L2.623,212.491L2.832,211.276L3.004,210.32L3.25,209.022L3.391,208.305L3.7,206.805L3.847,206.115L4.228,204.413L4.525,203.156L4.699,202.441L5.07,200.971L5.248,200.286L5.705,198.602L6.047,197.393L6.255,196.679L6.685,195.245L7.142,193.78L7.652,192.213L8.179,190.657L8.724,189.112L9.286,187.576L9.865,186.051L10.462,184.535L11.076,183.028L11.589,181.809L12.228,180.334L12.884,178.867L13.557,177.41L14.247,175.963L14.953,174.524L15.675,173.096L16.414,171.677L17.169,170.268L17.681,169.334L18.2,168.404L18.727,167.479L19.26,166.559L19.8,165.643L20.347,164.732L20.901,163.825L21.462,162.923L21.995,162.081C24.011,158.918 26.155,155.843 28.418,152.865L29.105,151.969L30.119,150.673L31.137,149.404L32.163,148.156L33.2,146.924L34.249,145.708L35.309,144.506L36.64,143.037L37.833,141.756L39.206,140.322L40.549,138.958L41.845,137.678L43.198,136.376L44.743,134.932L46.31,133.513L47.5,132.464L48.702,131.429L49.916,130.407L51.142,129.4L52.38,128.406L53.63,127.427L54.892,126.462L56.165,125.511L57.449,124.575L58.745,123.654L60.052,122.747L61.369,121.855L62.698,120.978L64.037,120.117L64.936,119.551L65.84,118.992C65.398,118.817 65.044,118.669 64.75,118.492L64.722,118.492C55.281,115.374 48.341,108.758 41.958,101.287C30.577,85.318 46.666,69.791 47.751,53.967C48.723,40.557 42.782,25.706 49.694,12.56C53.84,3.853 62.664,0.531 72.427,0.768C81.014,1.208 89.338,4.267 95.161,8.707C107.57,18.236 119.159,31.999 128.776,45.146C128.776,44.116 130.394,42.292 132.157,41.293C133.276,40.617 134.598,40.263 136.01,40.263L144.597,40.263L144.768,40.265ZM233.106,301.981L233,302.134C230.483,303.681 227.993,305.253 225.474,306.802C223.721,307.892 224.466,310.555 226.475,310.623C225.699,311.543 224.907,312.453 224.102,313.349L223.767,313.36C222.62,313.389 221.681,314.328 221.65,315.475C221.645,315.641 221.659,315.803 221.69,315.957C200.328,338.368 170.192,352.34 136.819,352.34C129.603,352.34 122.539,351.687 115.679,350.436L134.186,327.506L164.772,329.681L159.508,320.888L165.184,312.093L175.802,312.975L170.243,303.566L173.565,295.625L181.093,299.3L186.535,320.035L200.475,303.418L218.297,304.448C218.326,304.8 218.445,305.153 218.65,305.447C219.327,306.417 220.62,306.683 221.621,306.066C224.267,304.448 226.915,302.799 229.591,301.155C230.762,301.438 231.935,301.697 233.106,301.981ZM107.895,341.033L113.364,348.678L110.159,337.003L107.895,341.033ZM104.571,345.769L100.63,345.592L99.878,346.393C99.065,346.123 98.255,345.844 97.449,345.556L97.102,344.532L93.718,342.975L96.925,341.004L97.306,337.591L100.219,339.797L103.749,338.798L102.571,342.768L104.571,345.769ZM85.131,273.303L79.354,270.4L80.178,272.648C80.193,272.692 80.209,272.736 80.222,272.78C81.181,275.96 79.411,279.432 76.27,280.531C74.342,281.206 72.35,280.866 70.84,279.792C71.014,281.638 70.315,283.537 68.77,284.872C67.596,285.888 66.126,286.394 64.662,286.394C62.977,286.394 61.301,285.725 60.085,284.426C60.052,284.392 60.022,284.357 59.993,284.321L57.193,280.956L57.193,288.369C57.193,291.684 54.444,294.418 50.997,294.418C47.547,294.418 44.798,291.684 44.798,288.369L44.798,280.956L41.998,284.321C41.969,284.357 41.939,284.392 41.906,284.426C39.633,286.853 35.746,287.057 33.221,284.874L33.221,284.872C31.676,283.537 30.977,281.638 31.152,279.792C30.457,280.285 29.66,280.624 28.814,280.779C39.992,307.142 60.547,328.582 86.29,340.908L91.19,337.739L92.396,325.651L101.189,333.062L108.66,330.739L105.749,320.828L76.779,308.771L84.691,302.624L82.543,295.744L74.367,291.949L81.926,286.273L82.749,277.684L87.308,281.333L85.131,273.303ZM117.923,310.182L108.954,306.066L117.395,300.861L118.423,291.83L126.187,297.713L135.451,295.037L132.392,305.535L137.657,313.475L127.187,312.975L121.099,319.533L117.923,310.182ZM158.478,319.476L151.155,307.801L156.126,310.066L158.478,319.476ZM156.891,305.007L159.832,303.212L160.184,300.067L162.889,302.125L166.096,301.183L165.036,304.83L166.861,307.595L163.243,307.419L161.125,309.711L160.007,306.448L156.891,305.007ZM169.832,294.508L163.95,296.566L155.684,289.92L154.539,300.772L148.686,303.77L158.714,273.038L151.862,274.421L157.803,267.421L179.124,269.362L177.948,279.302L160.979,290.508L169.832,294.508ZM223.767,299.771C222.62,300.476 221.444,301.212 220.268,301.948L218.827,299.713C219.267,299.448 219.709,299.183 220.151,298.889C221.356,299.183 222.561,299.477 223.767,299.771ZM91.073,297.625L88.014,301.654L94.543,297.832L91.073,297.625ZM230.195,274.467C229.815,274.504 229.441,274.532 229.075,274.552C224.845,274.78 220.939,274.232 217.357,272.916C216.371,273.36 215.429,273.767 214.532,274.136L210.092,286.304L214.679,293.332C214.886,293.39 215.092,293.448 215.297,293.478C215.003,293.008 214.709,292.537 214.444,292.068C213.827,291.067 214.15,289.772 215.209,289.213C216.208,288.655 217.503,289.009 218.12,289.979C219.121,291.624 220.12,293.244 221.091,294.862C222.326,295.154 223.533,295.448 224.738,295.744C223.798,294.214 222.885,292.712 221.975,291.213C221.356,290.183 221.681,288.89 222.737,288.331C223.738,287.802 225.032,288.125 225.65,289.124C227.268,291.772 228.915,294.449 230.531,297.123C231.737,297.39 232.973,297.682 234.178,297.978C232.591,295.39 231.002,292.802 229.414,290.214C228.325,288.419 230.296,286.304 232.178,287.303C234.692,288.656 237.18,290.008 239.692,291.362L239.958,290.875C239.678,289.929 239.398,288.992 239.12,288.037C236.355,286.567 233.619,285.068 230.856,283.596C229.854,283.068 229.414,281.773 229.914,280.745C230.414,279.657 231.678,279.244 232.737,279.803C234.297,280.656 235.855,281.479 237.414,282.332C237.06,281.125 236.708,279.949 236.355,278.744C234.65,277.832 232.973,276.95 231.296,276.039C230.694,275.702 230.306,275.11 230.195,274.467ZM202.504,293.509L195.447,293.184L191.358,297.567L189.212,291.301L183.182,288.507L188.858,285.008L189.565,278.948L194.77,282.891L201.006,281.098L198.946,288.154L202.504,293.509ZM92.631,293.39L89.278,293.213L87.308,295.331L86.279,292.331L83.396,291.007L86.132,289.332L86.455,286.419L88.926,288.302L91.926,287.449L90.927,290.83L92.631,293.39ZM95.661,275.126L103.66,275.774L102.836,292.331L98.924,294.566L95.807,289.772L98.543,281.596L89.338,283.271L95.661,275.126ZM252.402,254.908L252.382,254.922C252.362,254.936 252.34,254.948 252.319,254.96L225.348,268.938C227.87,269.263 230.578,269.22 233.471,268.811C233.453,267.905 233.998,267.035 234.943,266.745C236.001,266.439 237.084,267.054 237.471,268.043C239.74,267.498 242.112,266.752 244.586,265.808C244.606,265.8 244.627,265.794 244.648,265.788C245.176,265.644 245.49,265.845 245.647,266.049C245.762,266.199 245.852,266.42 245.801,266.724C245.801,266.724 245.602,269.395 245.603,269.386C245.581,269.962 245.307,270.291 244.893,270.438C244.345,270.658 243.804,270.87 243.271,271.072C243.364,271.555 243.298,272.073 243.059,272.538L240.325,277.569C240.678,278.744 241.03,279.949 241.383,281.125C242.236,279.569 243.09,278.039 243.912,276.479C244.5,275.42 245.766,275.096 246.796,275.714L246.825,275.733C249.297,269.057 251.177,262.094 252.402,254.908ZM98.806,255.804L106.454,245.776L120.717,247.071L112.218,252.716L135.51,262.245L139.303,278.155L128.657,280.979L104.542,260.512L103.66,269.596L100.984,266.009L104.69,255.07L98.806,255.804ZM33.617,275.518L35.978,260.906L44.798,256.088L45.284,265.759L33.617,275.518ZM68.374,275.516L56.423,266.816L57.193,256.088L66.785,261.932L68.374,275.516ZM95.955,263.598C95.955,263.598 93.726,264.232 93.726,264.232C94.485,265.959 94.443,268.037 93.413,269.845L96.72,269.979C96.72,269.979 94.896,267.246 94.896,267.246L95.955,263.598ZM207.926,267.906L203.832,268.787C201.972,268.8 200.492,268.24 199.396,267.067C199.074,266.723 198.904,266.342 198.906,265.917C198.908,265.486 199.044,265.106 199.317,264.778C199.837,264.152 200.537,264.044 201.404,264.381C202.513,264.811 204.686,265.988 207.926,267.906ZM153.649,196.118L150.596,205.25L155.861,214.22L145.892,213.72L140.422,219.337L153.743,230.337L177.446,224.453L168.771,246.775L175.154,243.424L175.802,234.426L183.007,240.159L192.536,237.512L189.181,246.452L193.977,254.57L184.8,253.892L181.418,258.158L193.023,267.546C192.99,267.303 192.967,267.057 192.951,266.808C192.803,264.41 193.547,262.217 195.197,260.233C196.021,259.24 196.91,258.552 197.853,258.154C198.796,257.756 199.732,257.564 200.661,257.573C201.575,257.582 202.735,257.902 204.132,258.566C205.443,259.189 206.634,259.836 207.706,260.506C208.762,261.166 210.256,262.146 212.189,263.446C212.189,263.447 212.19,263.447 212.191,263.448C213.134,264.087 214.011,264.624 214.824,265.058C215.473,264.732 216.845,264.027 218.94,262.944L219.198,262.811C217.036,262.547 215.34,261.736 214.102,260.412C212.904,259.129 212.369,257.546 212.515,255.657C212.617,254.328 213.043,253.042 213.801,251.803C212.03,252.094 210.549,252.138 209.359,251.947C207.762,251.69 206.555,251.313 205.731,250.839C204.908,250.366 204.071,249.681 203.226,248.776C202.022,247.489 201.483,245.978 201.603,244.244C201.719,242.577 202.449,240.911 203.823,239.258C204.833,238.042 205.922,237.02 207.086,236.189C208.22,235.382 210.444,234.129 213.771,232.433C217.296,230.472 219.609,228.862 220.688,227.573C220.929,227.285 221.102,227.021 221.197,226.773C221.277,226.565 221.295,226.378 221.207,226.214C220.582,225.597 219.334,225.347 217.501,225.324C215.445,225.297 212.986,225.804 210.12,226.829L192.6,235.93C192.594,235.933 192.589,235.935 192.583,235.938C191.935,236.253 191.412,236.138 191.003,235.7C191.003,235.7 186.859,231.267 186.859,231.267C186.602,230.991 186.503,230.65 186.606,230.233C186.689,229.9 186.874,229.635 187.165,229.441C187.186,229.427 187.207,229.415 187.229,229.403L188.709,228.635C187.119,228.488 185.601,228.099 184.155,227.465C182.672,226.817 181.587,226.204 180.892,225.639C180.21,225.084 179.46,224.37 178.642,223.495C176.455,221.156 175.593,218.469 176.044,215.441C176.289,213.797 176.823,212.179 177.648,210.589C177.565,210.61 177.483,210.63 177.402,210.65C174.942,211.243 172.95,211.445 171.429,211.275C169.852,211.099 168.651,210.759 167.818,210.28C166.999,209.809 166.11,209.069 165.158,208.051C163.964,206.774 163.45,205.073 163.664,202.933C163.836,201.218 164.409,199.648 165.387,198.224C163.478,198.484 161.877,198.556 160.584,198.446C158.958,198.307 157.405,197.914 155.927,197.268C155.019,196.87 154.26,196.486 153.649,196.118ZM169.743,249.334L176.007,252.188L179.241,263.569L169.743,249.334ZM137.657,250.424L144.568,246.216L145.391,238.864L151.685,243.658L159.242,241.481L156.745,250.011L161.037,256.48L152.508,256.069L147.568,261.394L144.979,253.804L137.657,250.424ZM173.864,123.812L174.22,124.372C177.508,129.568 179.875,133.166 181.321,135.164C184.476,135.927 187.105,137.438 189.213,139.693C190.093,140.635 190.662,141.8 190.911,143.196C191.172,144.659 190.826,145.965 189.871,147.113C188.905,148.276 187.647,148.805 186.094,148.691C184.624,148.583 183.204,147.834 181.86,146.396C180.547,144.991 179.221,143.459 177.884,141.8C175.164,142.235 171.631,143.333 167.284,145.088C162.685,146.944 158.297,148.878 154.121,150.89C149.914,152.917 145.206,154.878 139.996,156.771C135.197,158.516 130.949,159.643 127.253,160.158C130.21,165.128 136.688,173.862 139.339,176.699C143.813,181.485 147.315,182.528 149.959,179.346C150.003,179.293 150.049,179.246 150.095,179.205C150.613,178.363 151.216,177.529 151.902,176.703C154.022,174.153 156.767,172.139 160.141,170.668C163.519,169.196 166.931,168.596 170.378,168.864C173.11,169.076 175.404,169.881 177.265,171.268C177.36,171.227 177.461,171.194 177.565,171.169L189.996,168.212C190.972,167.98 191.952,168.584 192.184,169.56L193.025,173.095C193.257,174.071 192.653,175.051 191.678,175.283L181.499,177.704C181.506,177.748 181.513,177.793 181.519,177.837C181.773,179.661 181.216,181.426 179.809,183.119C178.007,185.288 175.61,186.459 172.611,186.619C169.703,186.774 166.986,186.292 164.458,185.176C162.165,184.164 160.235,182.951 158.664,181.542C158.064,182.068 157.519,182.627 157.028,183.217C156.023,184.427 155.383,185.619 155.125,186.802C154.899,187.846 155.133,188.747 155.84,189.503C156.421,190.124 157.155,190.688 158.04,191.198C158.951,191.724 160.165,192.202 161.681,192.64C163.193,193.077 165.085,193.179 167.357,192.964C169.317,192.779 171.399,192.322 173.602,191.597C175.972,190.245 179.456,188.365 184.054,185.956C184.054,185.956 182.684,184.49 182.684,184.49C182.427,184.215 182.328,183.874 182.431,183.456C182.53,183.06 182.742,182.823 182.996,182.694L185.834,181.157C185.843,181.153 185.852,181.148 185.861,181.144C186.488,180.84 187.031,180.943 187.493,181.438C187.493,181.438 189.219,183.284 189.219,183.284C191.613,182.04 195.82,179.857 201.84,176.736C202.156,176.561 202.451,176.504 202.714,176.528C203.022,176.555 203.305,176.688 203.55,176.951C203.55,176.951 207.642,181.328 207.642,181.328C207.873,181.576 207.989,181.9 207.935,182.316C207.877,182.756 207.644,183.057 207.235,183.212C201.719,186.105 197.669,188.221 195.086,189.561C195.086,189.561 197.23,191.855 197.23,191.855C197.488,192.13 197.587,192.471 197.483,192.888C197.4,193.221 197.215,193.486 196.924,193.681C196.905,193.694 196.885,193.705 196.865,193.716L194.054,195.201C193.427,195.505 192.883,195.401 192.421,194.907C192.421,194.907 189.92,192.231 189.92,192.231C182.536,196.127 177.815,198.698 175.758,199.945C173.732,201.173 172.228,202.366 171.256,203.535C170.866,204.004 170.698,204.378 170.998,204.699C171.35,205.076 171.901,205.317 172.631,205.465C173.476,205.636 174.54,205.669 175.823,205.574C177.799,205.427 180.19,204.927 182.996,204.081C184.563,202.817 186.353,201.744 188.369,200.866C191.746,199.394 195.159,198.794 198.605,199.062C201.429,199.281 203.784,200.134 205.677,201.607C205.773,201.566 205.873,201.533 205.977,201.508L218.408,198.551C219.383,198.319 220.364,198.923 220.596,199.899L221.437,203.434C221.669,204.41 221.065,205.39 220.089,205.622L209.752,208.081C209.991,209.888 209.432,211.638 208.036,213.317C206.234,215.486 203.837,216.656 200.838,216.817C197.931,216.972 195.213,216.49 192.685,215.374C190.392,214.361 188.462,213.149 186.892,211.74C186.292,212.266 185.746,212.824 185.256,213.415C184.25,214.625 183.61,215.816 183.353,216.999C183.126,218.043 183.361,218.945 184.067,219.701C184.648,220.322 185.382,220.885 186.268,221.396C187.178,221.921 188.393,222.399 189.908,222.837C191.42,223.274 193.312,223.377 195.584,223.162C197.587,222.973 199.717,222.5 201.974,221.746L215.458,214.744C215.463,214.741 215.469,214.739 215.474,214.736C216.101,214.432 216.644,214.535 217.106,215.03C217.106,215.03 221.25,219.463 221.25,219.463C221.507,219.738 221.606,220.079 221.503,220.496C221.41,220.871 221.18,221.143 220.796,221.289C220.796,221.289 220.703,221.339 220.704,221.339C221.222,221.431 221.717,221.56 222.187,221.724C223.342,222.128 224.18,222.554 224.71,222.983C225.217,223.393 225.812,223.961 226.494,224.69C227.796,226.083 228.419,227.677 228.377,229.469C228.335,231.241 227.759,232.792 226.652,234.124C225.596,235.394 224.267,236.505 222.661,237.453C222.649,237.459 222.638,237.466 222.627,237.472C217.973,239.863 214.707,241.6 212.831,242.684C211.044,243.716 209.857,244.561 209.29,245.244C208.904,245.707 208.703,246.056 208.98,246.352C209.18,246.566 209.539,246.679 210.028,246.759C210.996,246.917 212.392,246.868 214.218,246.629C216.631,246.313 219.163,245.727 221.814,244.873C222.293,244.584 222.806,244.277 223.356,243.953C226.306,242.213 230.597,239.882 236.227,236.963C236.233,236.96 236.238,236.958 236.243,236.955C236.892,236.64 237.414,236.755 237.824,237.193C237.824,237.193 241.967,241.626 241.967,241.626C242.225,241.902 242.324,242.243 242.22,242.66C242.137,242.993 241.952,243.258 241.661,243.452C241.641,243.466 241.619,243.479 241.598,243.49C232.903,248.002 227.295,251.029 224.776,252.572C222.335,254.067 220.655,255.349 219.752,256.436C219.362,256.905 219.194,257.279 219.494,257.6C219.691,257.812 220.021,257.93 220.458,258.01C221.326,258.167 222.549,258.118 224.13,257.884C226.875,257.477 230.316,256.478 234.455,254.894L246.949,248.432C246.954,248.43 246.959,248.427 246.964,248.425C247.591,248.12 248.135,248.224 248.597,248.718C248.597,248.718 252.688,253.096 252.688,253.096L252.696,253.104C253.604,247.23 254.074,241.212 254.074,235.085C254.074,183.313 220.449,139.332 173.864,123.812ZM93.065,254.373C92.686,254.936 92.218,255.437 91.68,255.854L93.838,257.628C93.838,257.628 93.065,254.373 93.065,254.373ZM177.771,247.63L179.977,246.275L180.242,243.924L182.271,245.453L184.683,244.775L183.889,247.511L185.242,249.569L182.534,249.452L180.947,251.158L180.094,248.718L177.771,247.63ZM19.892,243.913L30.396,239.854L39.892,245.33L30.696,251.158L20.154,246.913C20.055,245.921 19.967,244.919 19.892,243.913ZM85.767,245.33L71.954,250.362L62.099,245.33L72.204,240.111L85.767,245.33ZM90.909,245.299L90.892,245.226C90.821,245.263 90.748,245.297 90.675,245.33C90.767,245.374 90.859,245.418 90.949,245.466L90.909,245.299ZM136.951,215.603L134.158,214.25L133.128,238.953L124.099,244.982L114.747,230.777L121.159,213.484L107.513,216.397L113.805,208.336L131.216,209.631L135.804,211.22L136.951,215.603ZM108.423,237.6L102.159,237.308L98.513,241.218L96.601,235.629L91.221,233.158L96.278,230.041L96.897,224.63L101.543,228.16L107.101,226.542L105.276,232.835L108.423,237.6ZM33.617,215.144L45.803,224.221L44.798,234.574L35.216,230.049L33.617,215.144ZM68.374,215.144L65.894,229.603L57.193,234.572L57.247,224.607L68.374,215.144ZM64.079,143.141L70.546,145.608L72.309,151.812L72.104,167.459L61.28,174.605L73.22,179.604L77.192,191.927L84.455,182.341L94.748,183.163L94.574,185.811L78.604,196.25L83.984,199.367L80.191,200.339L72.897,194.369L71.956,203.573L68.783,205.8L68.77,205.788C66.245,203.605 62.358,203.809 60.085,206.234C60.052,206.269 60.022,206.305 59.993,206.34L57.193,209.706L57.193,202.293C57.193,198.979 54.444,196.242 50.997,196.242C47.547,196.242 44.798,198.979 44.798,202.293L44.798,209.706L41.998,206.34C41.969,206.305 41.939,206.269 41.906,206.234C39.633,203.809 35.746,203.605 33.221,205.788C31.676,207.124 30.977,209.024 31.152,210.871C29.641,209.796 27.649,209.456 25.722,210.131C22.578,211.23 20.81,214.7 21.769,217.88C21.783,217.926 21.796,217.97 21.813,218.015L23.325,222.142L20.466,220.486C24.353,189.233 40.563,161.778 64.079,143.141ZM81.367,214.368L80.453,215.505C80.529,216.287 80.46,217.092 80.222,217.88C80.209,217.926 80.195,217.97 80.178,218.015L78.666,222.142L85.066,218.437C86.073,217.855 87.185,217.602 88.282,217.649L88.425,215.19L81.367,214.368ZM85.514,207.014L88.102,200.839L96.601,204.074L99.043,213.808L89.278,205.925L89.132,206.044L88.308,210.955L85.514,207.014ZM82.514,210.544L80.985,208.221L81.867,205.193L79.19,205.955L76.956,204.28L76.662,206.868L74.192,208.398L76.81,209.574L77.123,210.504C77.62,210.767 78.073,211.095 78.475,211.475L79.486,210.398L82.514,210.544ZM146.862,208.692L143.215,208.544L141.127,210.807L140.01,207.573L136.892,206.132L139.834,204.309L140.185,201.192L142.862,203.219L146.098,202.31L145.039,205.955L146.862,208.692ZM204.312,206.736C204.373,206.801 204.422,206.863 204.43,206.934C204.363,207.375 204.086,207.77 203.64,208.148C203.077,208.626 202.264,209.058 201.207,209.459C201.204,209.46 201.201,209.461 201.198,209.462C197.828,210.794 194.385,210.59 190.866,208.873C193.428,207.418 196.027,206.453 198.664,205.983C200.109,205.725 201.323,205.664 202.307,205.814C203.177,205.947 203.851,206.242 204.312,206.736ZM127.611,177.416L122.306,192.398L129.863,203.515L134.01,201.427L135.422,189.809L143.481,197.28L152.016,194.884C151.515,194.432 150.981,193.903 150.414,193.297C148.711,191.475 147.811,189.442 147.71,187.201C147.539,187.346 147.366,187.487 147.19,187.625C146.116,188.467 144.935,189.173 143.647,189.742C142.276,190.347 140.872,190.492 139.434,190.178C138.015,189.868 136.695,189.077 135.486,187.784C134.886,187.141 134.296,186.445 133.717,185.695C133.148,184.959 132.64,184.287 132.193,183.68C131.819,183.173 128.941,179.311 127.611,177.416ZM103.629,192.104L104.248,186.693L108.894,190.222L114.453,188.605L112.601,194.897L115.777,199.663L109.482,199.367L105.835,203.281L103.923,197.691L98.543,195.22L103.629,192.104ZM176.085,176.538C176.146,176.604 176.195,176.665 176.202,176.736C176.135,177.177 175.859,177.572 175.413,177.95C174.85,178.428 174.036,178.86 172.98,179.261C172.977,179.262 172.974,179.263 172.971,179.264C169.601,180.596 166.158,180.392 162.639,178.675C165.201,177.22 167.8,176.255 170.437,175.785C171.882,175.527 173.096,175.467 174.079,175.617C174.949,175.749 175.623,176.044 176.085,176.538L176.085,176.538ZM77.897,171.429L78.337,167.43L81.778,170.016L85.896,168.84L84.543,173.488L86.866,177.018L82.22,176.782L79.544,179.693L78.132,175.546L74.133,173.723L77.897,171.429ZM109.875,156.671L109.747,157.196L114.276,164.488L105.19,163.989L99.925,169.899L109.924,179.399L126.216,175.171L125.705,174.294C125.379,173.728 124.952,172.905 124.425,171.823C123.909,170.763 123.534,170.002 123.3,169.541C123.061,169.068 122.689,168.216 122.184,166.983C121.693,165.786 121.375,165.023 121.226,164.697C121.075,164.364 120.733,163.548 120.2,162.248C119.842,161.376 119.588,160.736 119.438,160.329C115.754,159.931 112.567,158.71 109.875,156.671ZM94.514,161.341L96.985,162.165L98.159,168.871L95.955,167.105L95.131,178.694L90.337,172.399L94.514,161.341ZM83.074,163.666L76.485,157.665L83.337,148.607L95.69,149.489L95.338,154.195L88.573,158.167L92.865,160.636L83.074,163.666ZM106.1,159.665L103.07,159.548L101.308,161.429L100.396,158.724L97.779,157.519L100.248,156.018L100.544,153.43L102.778,155.108L105.455,154.343L104.571,157.371L106.1,159.665ZM111.265,150.972L112.042,147.785L110.118,148.303C110.181,148.15 110.272,148.001 110.393,147.855C110.689,147.5 111.042,147.326 111.466,147.36C111.976,147.4 112.483,147.748 113.031,148.334C114.011,149.383 115.024,150.869 116.076,152.788C114.057,152.68 112.449,152.086 111.265,150.972ZM145.987,118.184C142.965,117.949 139.906,117.829 136.819,117.829C121.682,117.829 107.211,120.704 93.918,125.938L90.279,137.638L96.043,146.373L96.424,144.019L102.984,150.225L105.129,149.647C105.116,149.538 105.105,149.428 105.096,149.317C104.946,147.374 105.474,145.684 106.671,144.244C108.001,142.644 109.646,141.832 111.599,141.795C113.51,141.76 115.485,142.763 117.477,144.894C118.857,146.37 120.544,148.764 122.531,152.081C125.434,151.361 129.121,150.098 133.593,148.294C138.344,146.379 142.78,144.508 146.902,142.683C151.05,140.846 155.616,139.117 160.602,137.494C165.094,136.032 169.046,135.112 172.457,134.729C167.522,128.06 164.104,123.705 162.199,121.667C161.739,121.175 161.28,120.717 160.823,120.294C156.643,119.422 152.381,118.774 148.051,118.361C147.933,118.475 147.824,118.593 147.722,118.716C147.539,118.935 147.335,119.03 147.145,119.059C146.977,119.085 146.805,119.062 146.632,118.976C146.447,118.883 146.204,118.637 145.987,118.184ZM75.665,135.043C76.512,134.523 77.364,134.016 78.223,133.519L79.749,134.667L84.19,133.374L82.72,138.431L85.251,142.255L80.22,142.02L77.309,145.137L75.78,140.668L71.456,138.668L75.543,136.168L75.665,135.043ZM153.862,80.436L179.889,104.287L180.419,105.288L180.29,105.606L180.195,106.039L180.189,106.092C174.413,104.148 168.461,102.581 162.366,101.421L161.821,100.432L161.261,99.409L160.126,97.318C160.038,97.141 159.95,96.995 159.89,96.847C157.125,91.759 155.303,86.083 153.862,80.436ZM126.011,79.759C123.982,85.819 121.482,91.818 117.923,97.024L117.894,97.024C117.835,97.141 117.775,97.229 117.687,97.318C117.658,97.406 117.57,97.523 117.452,97.671L117.042,98.249L116.246,99.381L115.61,100.266L115.274,100.721C108.993,101.722 102.856,103.153 96.893,104.984L96.631,104.2L98.278,101.641L126.011,79.759ZM140.465,49.848L140.627,49.852C142.334,49.909 143.98,50.645 145.127,51.938C146.303,53.174 146.951,54.849 146.862,56.556C146.803,58.291 146.038,59.908 144.803,61.086C143.509,62.26 141.863,62.879 140.128,62.819C138.421,62.762 136.775,62.026 135.628,60.733C134.452,59.497 133.804,57.82 133.864,56.115C133.952,54.35 134.717,52.763 135.95,51.587C137.096,50.519 138.581,49.913 140.141,49.852L140.465,49.848ZM212.533,14.49L212.739,14.493C220.061,14.64 222.354,22.1 218.297,30.998C205.399,42.147 189.145,48.573 172.115,49.219L171.713,49.233C178.065,33.087 191.329,20.618 207.857,15.296C209.586,14.744 211.148,14.488 212.533,14.49ZM70.673,9.257C72.254,9.253 74.061,9.626 76.074,10.442C92.16,16.971 104.454,30.352 109.63,46.91C92.543,45.117 76.633,37.47 64.545,25.293C61.224,16.382 63.823,9.274 70.673,9.257Z" style="fill:none;stroke:rgb(255,0,0);stroke-width:1px;"/>
</svg>
