<?xml version="1.0" encoding="UTF-8" standalone="no"?>
<!DOCTYPE svg PUBLIC "-//W3C//DTD SVG 1.1//EN" "http://www.w3.org/Graphics/SVG/1.1/DTD/svg11.dtd">
<svg width="100%" height="100%" viewBox="0 0 1123 794" version="1.1" xmlns="http://www.w3.org/2000/svg" xmlns:xlink="http://www.w3.org/1999/xlink" xml:space="preserve" xmlns:serif="http://www.serif.com/" style="fill-rule:evenodd;clip-rule:evenodd;stroke-linejoin:round;stroke-miterlimit:2;">
    <g>
        <path d="M0.763,233.654C1.257,185.132 27.188,142.701 65.84,118.992C65.398,118.817 65.044,118.669 64.75,118.492L64.722,118.492C55.281,115.374 48.341,108.758 41.958,101.287C30.577,85.318 46.666,69.791 47.751,53.967C48.723,40.557 42.782,25.706 49.694,12.56C53.84,3.853 62.664,0.531 72.427,0.768C81.014,1.208 89.338,4.267 95.161,8.707C107.57,18.236 119.159,31.999 128.776,45.146C128.776,44.116 130.394,42.292 132.157,41.293C133.276,40.617 134.598,40.263 136.01,40.263L144.597,40.263C146.422,40.263 148.067,40.88 149.422,41.91C150.863,43.057 151.891,44.704 152.273,46.587C152.802,46.587 182.859,16.178 188.975,12.177C195.124,8.148 203.623,5.737 212.21,5.942C221.975,6.413 230.502,10.413 234.032,19.412C239.942,32.998 232.913,47.381 232.854,60.821C232.825,76.702 247.707,93.348 235.179,108.435C229.972,113.729 222.856,118.846 215.857,121.903L215.797,121.903C215.417,122.021 214.603,122.283 213.44,122.66C235.706,137.872 253.229,159.522 263.318,184.913L263.635,185.717C269.445,200.605 272.705,216.771 272.875,233.676L272.882,235.085L272.88,235.812L272.866,237.183L272.848,238.157L272.816,239.357L272.777,240.461C272.271,253.525 269.932,266.101 265.999,277.951C265.659,278.997 265.294,280.017 264.925,281.008L264.5,282.186C263.205,285.714 261.764,289.155 260.177,292.537C259.764,293.448 259.353,294.331 258.911,295.213C258.206,296.654 257.441,298.096 256.707,299.508C256.647,299.565 256.619,299.654 256.588,299.713C255.177,302.329 253.677,304.919 252.09,307.419C251.717,307.987 251.375,308.559 250.98,309.103L250.882,309.252C250.472,309.92 250.043,310.551 249.594,311.192L249.354,311.546L249.354,311.565C249.088,312.005 248.794,312.416 248.472,312.829C245.795,316.713 242.913,320.415 239.854,323.976C215.151,352.578 178.758,370.759 138.144,371.142L136.819,371.148C133.222,371.148 129.657,371.008 126.124,370.733C59.482,365.554 6.326,312.384 1.167,245.731C0.895,242.217 0.756,238.667 0.756,235.085L0.763,233.654ZM28.751,280.397C40.488,308.332 62.752,330.776 90.57,342.754C86.43,339.961 82.52,336.774 78.888,333.213C75.47,329.86 75.47,324.406 78.888,321.053C82.307,317.7 87.87,317.7 91.289,321.053C93.511,323.232 95.866,325.23 98.335,327.046C102.763,312.408 102.398,299.836 101.771,293.577L92.474,300.653C89.142,303.191 84.772,303.273 81.343,300.862C77.913,298.45 76.589,294.365 77.972,290.454L85.343,269.604L86.265,255.979C86.324,255.115 86.821,254.338 87.589,253.91C88.356,253.482 89.292,253.461 90.078,253.854C90.199,253.915 91.551,254.595 93.379,255.698L90.219,242.394L72.795,235.617L73.743,234.921L60.959,228.962L55.458,232.149L69.292,238.586L62.38,242.58L48.557,236.132L40.419,240.826L51.529,246.478L40.419,252.14L48.557,256.834L62.38,250.385L69.292,254.369L55.458,260.817L60.959,263.993L74.793,257.544L81.694,261.528L67.871,267.976L78.895,274.349C80.197,275.092 80.639,276.761 79.885,278.064C79.131,279.377 77.474,279.818 76.16,279.065L65.136,272.702L66.471,287.903L59.571,283.92L58.236,268.719L52.734,265.532L54.059,280.733L47.158,276.75L45.834,261.549L37.695,256.856L38.352,269.3L27.898,262.507L27.898,271.906L40.397,280.658L40.397,288.624L28.794,280.5L28.751,280.397ZM233.012,301.959C231.873,301.683 230.731,301.431 229.591,301.155C226.915,302.799 224.267,304.448 221.621,306.066C220.62,306.683 219.327,306.417 218.65,305.447C218.445,305.153 218.326,304.8 218.297,304.448L200.475,303.418L187.72,318.623C190.354,318.261 193.125,319.071 195.146,321.053C196.802,322.677 197.715,324.836 197.714,327.133C197.714,329.43 196.802,331.589 195.146,333.213C191.721,336.571 188.049,339.597 184.169,342.273C198.375,335.983 211.1,326.95 221.671,315.847C221.653,315.726 221.646,315.602 221.65,315.475C221.681,314.328 222.62,313.389 223.767,313.36L223.978,313.353C224.787,312.453 225.583,311.54 226.362,310.616C224.439,310.455 223.754,307.872 225.474,306.802C227.928,305.293 230.355,303.762 232.807,302.252L233.012,301.959ZM152.231,328.2C153.857,330.702 156.365,333.727 158.432,336.092C151.639,338.426 144.423,339.645 137.018,339.645C130.424,339.645 123.98,338.678 117.851,336.819L122.432,328.338C127.245,329.627 139.269,332.015 152.231,328.2ZM177.773,297.679C179.293,301.583 178.384,304.766 175.569,303.113C175.843,310.356 177.192,319.266 178.76,324.648C180.13,323.509 181.461,322.312 182.746,321.053C183.762,320.056 184.968,319.356 186.251,318.952L181.093,299.3L177.773,297.679ZM223.767,299.771C222.62,300.476 221.444,301.212 220.268,301.948L218.827,299.713C219.267,299.448 219.709,299.183 220.151,298.889C221.356,299.183 222.561,299.477 223.767,299.771ZM194.001,132.817C229.78,152.878 253.984,191.177 253.984,235.085C253.984,249.357 251.427,263.036 246.747,275.686C245.727,275.106 244.491,275.437 243.912,276.479C243.09,278.039 242.236,279.569 241.383,281.125L240.325,277.569L243.059,272.538C243.589,271.508 243.266,270.215 242.265,269.627C241.266,269.01 239.973,269.331 239.414,270.392C239.149,270.861 238.885,271.362 238.618,271.833C238.267,270.626 237.884,269.42 237.531,268.215C237.208,267.127 236.061,266.422 234.943,266.745C233.795,267.097 233.238,268.303 233.561,269.393C233.915,270.626 234.266,271.833 234.65,273.038C234.149,272.774 233.649,272.509 233.179,272.244C232.12,271.685 230.856,272.098 230.356,273.186C229.885,274.216 230.296,275.48 231.296,276.039C232.973,276.95 234.65,277.832 236.355,278.744C236.708,279.949 237.06,281.125 237.414,282.332C235.855,281.479 234.297,280.656 232.737,279.803C231.678,279.244 230.414,279.657 229.914,280.745C229.414,281.773 229.854,283.068 230.856,283.596C233.619,285.068 236.355,286.567 239.12,288.037C239.386,288.951 239.654,289.848 239.922,290.753C239.819,290.941 239.716,291.13 239.613,291.319C239.133,291.061 238.654,290.802 238.176,290.544L234.18,288.383C233.514,288.023 232.847,287.663 232.178,287.303C230.296,286.304 228.325,288.419 229.414,290.214C231.002,292.802 232.591,295.39 234.178,297.978C232.973,297.682 231.737,297.39 230.531,297.123C228.915,294.449 227.268,291.772 225.65,289.124C225.032,288.125 223.738,287.802 222.737,288.331C221.681,288.89 221.356,290.183 221.975,291.213C222.885,292.712 223.798,294.214 224.738,295.744C223.533,295.448 222.326,295.154 221.091,294.862C220.12,293.244 219.121,291.624 218.12,289.979C217.503,289.009 216.208,288.655 215.209,289.213C214.15,289.772 213.827,291.067 214.444,292.068C214.709,292.537 215.003,293.008 215.297,293.478C215.092,293.448 214.886,293.39 214.679,293.332L210.092,286.304L217.563,265.832L196.505,270.363L181.418,258.158L184.8,253.892L193.977,254.57L189.181,246.452L191.108,241.318L191.167,241.382C192.06,242.337 192.879,243.118 193.623,243.723C194.367,244.328 195.533,244.977 197.119,245.672C198.706,246.366 200.373,246.788 202.12,246.937C203.866,247.086 206.127,246.925 208.902,246.454C211.678,245.984 214.718,245.128 218.023,243.887C218.227,243.818 218.353,243.666 218.401,243.432L218.687,240.44C218.696,240.164 218.578,240.086 218.332,240.205C215.273,241.327 212.41,242.014 209.743,242.266C207.076,242.518 204.855,242.387 203.081,241.874C201.307,241.362 199.887,240.798 198.821,240.183C197.754,239.568 196.872,238.887 196.173,238.139C195.202,237.1 194.873,235.864 195.184,234.43C195.496,232.996 196.261,231.545 197.48,230.079C198.195,229.219 199.008,228.417 199.92,227.673C201.713,229.399 203.977,230.867 206.714,232.075C209.451,233.283 212.393,233.803 215.54,233.635C218.688,233.467 221.207,232.245 223.098,229.969C224.527,228.249 225.113,226.464 224.855,224.611C224.598,222.759 223.634,220.94 221.964,219.154C219.751,216.786 216.767,215.456 213.011,215.165C209.256,214.873 205.538,215.53 201.857,217.134C199.523,218.151 197.464,219.405 195.68,220.897C190.297,222.475 186.91,222.082 185.517,219.716C190.973,218.006 195.277,215.254 198.43,211.461C200.7,208.73 201.976,205.892 202.26,202.947C202.544,200.002 201.54,197.304 199.249,194.853C197.113,192.568 194.198,191.288 190.502,191.013C186.807,190.738 183.067,191.442 179.283,193.127C175.499,194.811 172.325,197.196 169.761,200.281C168.763,201.483 167.931,202.662 167.266,203.82C164.98,203.475 162.374,201.737 159.449,198.608C156.265,195.202 152.886,190.441 149.313,184.325C153.68,183.837 158.779,182.534 164.612,180.414C170.445,178.294 175.717,176.099 180.427,173.829C185.138,171.56 190.087,169.378 195.274,167.284C200.462,165.191 204.634,163.922 207.791,163.477C209.373,165.457 210.941,167.277 212.494,168.939C213.853,170.393 215.276,171.174 216.762,171.283C218.248,171.393 219.454,170.891 220.379,169.778C221.303,168.666 221.639,167.401 221.387,165.984C221.134,164.567 220.561,163.381 219.668,162.425C217.338,159.933 214.415,158.287 210.899,157.487C209.284,155.282 206.558,151.147 202.722,145.084C198.888,139.026 195.981,134.937 194.001,132.817ZM202.504,293.509L195.447,293.184L191.358,297.567L189.212,291.301L183.182,288.507L188.858,285.008L189.565,278.948L194.77,282.891L201.006,281.098L198.946,288.154L202.504,293.509ZM144.712,285.874L145.927,285.831C153.666,285.755 159.844,286.382 165.152,287.752L177.948,279.302L179.124,269.362L157.803,267.421L144.712,285.874ZM96.372,257.636C97.666,258.539 98.998,259.563 100.194,260.664C108.144,261.53 115.866,266.542 122.586,275.216C126.172,279.845 128.6,284.364 129.777,286.756C132.882,286.467 135.79,286.245 138.527,286.09L139.258,286.065L135.51,262.245L112.218,252.716L120.717,247.071L106.454,245.776L96.372,257.636ZM94.108,273.251C95.738,273.251 97.061,274.548 97.061,276.146C97.061,277.744 95.738,279.041 94.108,279.041C92.479,279.041 91.156,277.744 91.156,276.146C91.156,274.548 92.479,273.251 94.108,273.251ZM169.743,249.334L176.007,252.188L179.241,263.569L169.743,249.334ZM137.657,250.424L144.568,246.216L145.391,238.864L151.685,243.658L159.242,241.481L156.745,250.011L161.037,256.48L152.508,256.069L147.568,261.394L144.979,253.804L137.657,250.424ZM151.202,203.438C151.693,204.249 152.147,204.937 152.564,205.502C153.064,206.18 153.632,206.931 154.267,207.755C154.903,208.578 155.551,209.343 156.211,210.049C157.454,211.379 158.805,212.203 160.264,212.521C161.723,212.84 163.147,212.692 164.538,212.078C164.821,211.953 165.099,211.822 165.372,211.685C165.653,213.673 166.597,215.527 168.205,217.247C171.156,220.404 175.505,221.569 181.252,220.743C181.618,221.804 182.141,222.697 182.821,223.424C183.5,224.151 184.206,224.692 184.939,225.046C185.672,225.4 186.54,225.612 187.545,225.683C188.549,225.755 189.475,225.766 190.322,225.717C190.674,225.697 191.048,225.656 191.446,225.595C189.816,227.987 188.814,230.437 188.44,232.947C188.146,234.921 188.386,236.755 189.162,238.449L183.007,240.159L175.802,234.426L175.154,243.424L168.771,246.775L177.446,224.453L153.743,230.337L140.422,219.337L145.892,213.72L155.861,214.22L150.596,205.25L151.202,203.438ZM136.951,215.603L134.158,214.25L133.128,238.953L124.099,244.982L114.747,230.777L121.159,213.484L107.513,216.397L113.805,208.336L131.216,209.631L135.804,211.22L136.951,215.603ZM108.423,237.6L102.159,237.308L98.513,241.218L96.601,235.629L91.221,233.158L96.278,230.041L96.897,224.63L101.543,228.16L107.101,226.542L105.276,232.835L108.423,237.6ZM27.866,191.94L27.866,191.939C35.519,172.65 48.152,155.866 64.177,143.178L70.546,145.608L72.309,151.812L72.104,167.459L61.28,174.605L73.22,179.604L77.192,191.927L84.455,182.341L94.748,183.163L94.574,185.811L78.604,196.25L83.984,199.367L80.191,200.339L72.897,194.369L71.956,203.573L66.25,207.577L66.471,205.063L59.571,209.046L58.236,224.247L52.734,227.423L54.059,212.222L47.158,216.205L45.834,231.406L37.695,236.1L38.352,223.655L27.898,230.448L27.898,221.06L40.397,212.308L40.397,204.331L27.898,213.083L27.898,206.731L40.397,197.979L40.397,190.013L27.898,198.754L27.898,191.859C27.888,191.886 27.877,191.913 27.866,191.94ZM79.742,230.517L67.871,224.979L75.44,220.61L75.691,221.425L81.367,214.368L88.425,215.19L87.866,224.809L84.955,226.69L79.742,230.517ZM20.912,219.942L20.907,219.979L22.451,221.06L22.451,230.448L19.829,228.744C19.884,228.366 20.271,224.663 20.907,219.979L20.855,219.942L20.912,219.942ZM19.829,228.744C19.826,228.765 19.824,228.776 19.823,228.776C19.822,228.775 19.822,228.764 19.823,228.74L19.829,228.744ZM220.034,222.535C218.792,221.206 216.448,220.848 213.004,221.462C209.559,222.077 206.169,223.419 202.835,225.489C207.416,228.097 211.892,228.537 216.261,226.81C218.832,225.835 220.202,224.673 220.369,223.323C220.379,223.047 220.267,222.784 220.034,222.535ZM65.136,220.264L73.789,215.262L72.986,212.661L66.093,209.374L65.136,220.264ZM197.053,198.952C196.043,197.872 194.092,197.505 191.201,197.851C188.309,198.197 185.099,199.301 181.571,201.164C178.043,203.026 175.144,205.323 172.874,208.054C171.739,209.419 170.978,210.732 170.592,211.99C170.206,213.249 170.304,214.19 170.887,214.813C172.362,216.392 175.317,216.544 179.751,215.268C179.851,214.706 180.154,214.122 180.658,213.515C181.541,212.453 182.672,211.776 184.051,211.484C185.431,211.193 186.512,211.37 187.295,212.017C190.5,210.19 193.132,208.038 195.192,205.56C197.714,202.526 198.334,200.323 197.053,198.952ZM96.601,204.074L99.043,213.808L89.278,205.925L89.132,206.044L88.308,210.955L85.514,207.014L88.102,200.839L96.601,204.074ZM82.514,210.544L79.486,210.398L77.72,212.279L76.81,209.574L74.192,208.398L76.662,206.868L76.956,204.28L79.19,205.955L81.867,205.193L80.985,208.221L82.514,210.544ZM127.834,176.786C128.134,177.228 128.479,177.658 128.87,178.076C132.365,181.815 136.842,183.929 142.302,184.42C142.373,184.688 142.706,185.545 143.3,186.993C143.894,188.44 144.275,189.35 144.444,189.721C144.612,190.092 144.974,190.958 145.531,192.318C146.088,193.678 146.498,194.618 146.762,195.139C146.898,195.407 147.075,195.764 147.295,196.209L143.481,197.28L135.422,189.809L134.01,201.427L129.863,203.515L122.306,192.398L127.834,176.786ZM115.777,199.663L109.482,199.367L105.835,203.281L103.923,197.691L98.543,195.22L103.629,192.104L104.248,186.693L108.894,190.222L114.453,188.605L112.601,194.897L115.777,199.663ZM77.897,171.429L78.337,167.43L81.778,170.016L85.896,168.84L84.543,173.488L86.866,177.018L82.22,176.782L79.544,179.693L78.132,175.546L74.133,173.723L77.897,171.429ZM183.793,127.731C183.265,127.741 182.746,127.796 182.236,127.898C180.391,128.265 178.686,128.925 177.123,129.88C175.559,130.835 174.189,132.02 173.012,133.436C172.045,134.599 171.761,135.824 172.159,137.11C172.454,137.903 172.727,138.148 172.979,137.844C173.568,137.136 174.354,136.544 175.337,136.067C176.32,135.59 177.55,135.257 179.026,135.069C180.503,134.882 182.251,135.294 184.269,136.307C186.288,137.32 188.326,138.928 190.384,141.129C192.636,143.539 196.762,148.813 202.762,156.951C198.683,157.269 193.854,158.336 188.273,160.153C182.692,161.969 177.581,163.905 172.938,165.961C168.295,168.016 163.299,170.123 157.948,172.281C152.597,174.439 148.236,175.912 144.866,176.702C142.546,172.786 140.589,169.977 138.997,168.274C136.939,166.072 134.923,164.99 132.948,165.027C130.974,165.064 129.314,165.892 127.969,167.51C126.75,168.977 126.217,170.699 126.369,172.678C126.431,173.48 126.605,174.253 126.891,174.996L109.924,179.399L99.925,169.899L105.19,163.989L114.276,164.488L109.747,157.196L112.042,147.785L102.984,150.225L96.424,144.019L96.043,146.373L90.279,137.638L93.883,126.049C107.185,120.802 121.668,117.92 136.819,117.92C153.522,117.92 169.413,121.422 183.793,127.731ZM94.514,161.341L96.985,162.165L98.159,168.871L95.955,167.105L95.131,178.694L90.337,172.399L94.514,161.341ZM131.702,174.8C133.411,176.628 135.918,177.495 139.224,177.401C137.79,174.625 136.413,172.531 135.093,171.118C134.316,170.288 133.566,169.844 132.843,169.787C132.12,169.73 131.507,170.005 131.002,170.612C129.993,171.826 130.227,173.222 131.702,174.8ZM83.074,163.666L76.485,157.665L83.337,148.607L95.69,149.489L95.338,154.195L88.573,158.167L92.865,160.636L83.074,163.666ZM106.1,159.665L103.07,159.548L101.308,161.429L100.396,158.724L97.779,157.519L100.248,156.018L100.544,153.43L102.778,155.108L105.455,154.343L104.571,157.371L106.1,159.665ZM75.653,135.155C76.528,134.618 77.411,134.092 78.301,133.577L79.749,134.667L84.19,133.374L82.72,138.431L85.251,142.255L80.22,142.02L77.309,145.137L75.78,140.668L71.456,138.668L75.543,136.168L75.653,135.155ZM180.189,106.092C174.413,104.148 168.461,102.581 162.366,101.421C161.639,100.11 160.883,98.715 160.126,97.318C160.038,97.141 159.95,96.995 159.89,96.847C157.125,91.759 155.303,86.083 153.862,80.436L179.889,104.287L180.419,105.288C180.419,105.288 180.253,105.564 180.189,106.092ZM115.274,100.721C108.993,101.722 102.856,103.153 96.893,104.984L96.631,104.2L98.278,101.641L126.011,79.759C123.982,85.819 121.482,91.818 117.923,97.024L117.894,97.024C117.835,97.141 117.775,97.229 117.687,97.318C117.658,97.406 117.57,97.523 117.452,97.671C116.986,98.312 116.204,99.471 115.274,100.721ZM135.95,51.587C137.215,50.409 138.892,49.792 140.627,49.852C142.334,49.909 143.98,50.645 145.127,51.938C146.303,53.174 146.951,54.849 146.862,56.556C146.803,58.291 146.038,59.908 144.803,61.086C143.509,62.26 141.863,62.879 140.128,62.819C138.421,62.762 136.775,62.026 135.628,60.733C134.452,59.497 133.804,57.82 133.864,56.115C133.952,54.35 134.717,52.763 135.95,51.587ZM207.857,15.296C218.916,11.766 223.15,20.353 218.297,30.998C205.298,42.235 188.889,48.674 171.713,49.233C178.065,33.087 191.329,20.618 207.857,15.296ZM64.545,25.293C60.458,14.325 65.338,6.09 76.074,10.442C92.16,16.971 104.454,30.352 109.63,46.91C92.543,45.117 76.633,37.47 64.545,25.293Z" style="fill:none;stroke:rgb(255,0,0);stroke-width:1px;"/>
    </g>
</svg>
