<?xml version="1.0" encoding="UTF-8" standalone="no"?>
<!DOCTYPE svg PUBLIC "-//W3C//DTD SVG 1.1//EN" "http://www.w3.org/Graphics/SVG/1.1/DTD/svg11.dtd">
<svg width="100%" height="100%" viewBox="0 0 1123 794" version="1.1" xmlns="http://www.w3.org/2000/svg" xmlns:xlink="http://www.w3.org/1999/xlink" xml:space="preserve" xmlns:serif="http://www.serif.com/" style="fill-rule:evenodd;clip-rule:evenodd;stroke-linejoin:round;stroke-miterlimit:2;">
    <path d="M0.763,233.654C1.257,185.132 27.188,142.701 65.84,118.992C65.398,118.817 65.044,118.669 64.75,118.492L64.722,118.492C55.281,115.374 48.341,108.758 41.958,101.287C30.577,85.318 46.666,69.791 47.751,53.967C48.723,40.557 42.782,25.706 49.694,12.56C53.84,3.853 62.664,0.531 72.427,0.768C81.014,1.208 89.338,4.267 95.161,8.707C107.57,18.236 119.159,31.999 128.776,45.146C128.776,44.116 130.394,42.292 132.157,41.293C133.276,40.617 134.598,40.263 136.01,40.263L144.597,40.263C146.422,40.263 148.067,40.88 149.422,41.91C150.863,43.057 151.891,44.704 152.273,46.587C152.802,46.587 182.859,16.178 188.975,12.177C195.124,8.148 203.623,5.737 212.21,5.942C221.975,6.413 230.502,10.413 234.032,19.412C239.942,32.998 232.913,47.381 232.854,60.821C232.825,76.702 247.707,93.348 235.179,108.435C229.972,113.729 222.856,118.846 215.857,121.903L215.797,121.903C215.417,122.021 214.603,122.283 213.44,122.66C235.706,137.872 253.229,159.522 263.318,184.913L263.635,185.717C269.445,200.605 272.705,216.771 272.875,233.676L272.882,235.085L272.88,235.812L272.866,237.183L272.848,238.157L272.816,239.357L272.777,240.461C272.271,253.525 269.932,266.101 265.999,277.951C265.659,278.997 265.294,280.017 264.925,281.008L264.5,282.186C263.205,285.714 261.764,289.155 260.177,292.537C259.764,293.448 259.353,294.331 258.911,295.213C258.206,296.654 257.441,298.096 256.707,299.508C256.647,299.565 256.619,299.654 256.588,299.713C255.177,302.329 253.677,304.919 252.09,307.419C251.717,307.987 251.375,308.559 250.98,309.103L250.882,309.252C250.472,309.92 250.043,310.551 249.594,311.192L249.354,311.546L249.354,311.565C249.088,312.005 248.794,312.416 248.472,312.829C245.795,316.713 242.913,320.415 239.854,323.976C215.151,352.578 178.758,370.759 138.144,371.142L136.819,371.148C133.222,371.148 129.657,371.008 126.124,370.733C59.482,365.554 6.326,312.384 1.167,245.731C0.895,242.217 0.756,238.667 0.756,235.085L0.763,233.654ZM28.751,280.397C40.488,308.332 62.752,330.776 90.57,342.754C86.43,339.961 82.52,336.774 78.888,333.213C75.47,329.86 75.47,324.406 78.888,321.053C82.307,317.7 87.87,317.7 91.289,321.053C93.511,323.232 95.866,325.23 98.335,327.046C102.763,312.408 102.398,299.836 101.771,293.577L92.474,300.653C89.142,303.191 84.772,303.273 81.343,300.862C77.913,298.45 76.589,294.365 77.972,290.454L85.343,269.604L86.265,255.979C86.324,255.115 86.821,254.338 87.589,253.91C88.356,253.482 89.292,253.461 90.078,253.854C90.199,253.915 91.551,254.595 93.379,255.698L90.219,242.394L72.795,235.617L73.743,234.921L60.959,228.962L55.458,232.149L69.292,238.586L62.38,242.58L48.557,236.132L40.419,240.826L51.529,246.478L40.419,252.14L48.557,256.834L62.38,250.385L69.292,254.369L55.458,260.817L60.959,263.993L74.793,257.544L81.694,261.528L67.871,267.976L78.895,274.349C80.197,275.092 80.639,276.761 79.885,278.064C79.131,279.377 77.474,279.818 76.16,279.065L65.136,272.702L66.471,287.903L59.571,283.92L58.236,268.719L52.734,265.532L54.059,280.733L47.158,276.75L45.834,261.549L37.695,256.856L38.352,269.3L27.898,262.507L27.898,271.906L40.397,280.658L40.397,288.624L28.794,280.5L28.751,280.397ZM233.012,301.959C231.873,301.683 230.731,301.431 229.591,301.155C226.915,302.799 224.267,304.448 221.621,306.066C220.62,306.683 219.327,306.417 218.65,305.447C218.445,305.153 218.326,304.8 218.297,304.448L200.475,303.418L187.72,318.623C190.354,318.261 193.125,319.071 195.146,321.053C196.802,322.677 197.715,324.836 197.714,327.133C197.714,329.43 196.802,331.589 195.146,333.213C191.721,336.571 188.049,339.597 184.169,342.273C198.375,335.983 211.1,326.95 221.671,315.847C221.653,315.726 221.646,315.602 221.65,315.475C221.681,314.328 222.62,313.389 223.767,313.36L223.978,313.353C224.787,312.453 225.583,311.54 226.362,310.616C224.439,310.455 223.754,307.872 225.474,306.802C227.928,305.293 230.355,303.762 232.807,302.252L233.012,301.959ZM152.231,328.2C153.857,330.702 156.365,333.727 158.432,336.092C151.639,338.426 144.423,339.645 137.018,339.645C130.424,339.645 123.98,338.678 117.851,336.819L122.432,328.338C127.245,329.627 139.269,332.015 152.231,328.2ZM177.773,297.679C179.293,301.583 178.384,304.766 175.569,303.113C175.843,310.356 177.192,319.266 178.76,324.648C180.13,323.509 181.461,322.312 182.746,321.053C183.762,320.056 184.968,319.356 186.251,318.952L181.093,299.3L177.773,297.679ZM223.767,299.771C222.62,300.476 221.444,301.212 220.268,301.948L218.827,299.713C219.267,299.448 219.709,299.183 220.151,298.889C221.356,299.183 222.561,299.477 223.767,299.771ZM215.968,270.203L210.092,286.304L214.679,293.332C214.886,293.39 215.092,293.448 215.297,293.478C215.003,293.008 214.709,292.537 214.444,292.068C213.827,291.067 214.15,289.772 215.209,289.213C216.208,288.655 217.503,289.009 218.12,289.979C219.121,291.624 220.12,293.244 221.091,294.862C222.326,295.154 223.533,295.448 224.738,295.744C223.798,294.214 222.885,292.712 221.975,291.213C221.356,290.183 221.681,288.89 222.737,288.331C223.738,287.802 225.032,288.125 225.65,289.124C227.268,291.772 228.915,294.449 230.531,297.123C231.737,297.39 232.973,297.682 234.178,297.978C232.591,295.39 231.002,292.802 229.414,290.214C228.325,288.419 230.296,286.304 232.178,287.303C232.847,287.663 233.514,288.023 234.18,288.383L238.176,290.544C238.654,290.802 239.133,291.061 239.613,291.319C239.716,291.13 239.819,290.941 239.922,290.753C239.654,289.848 239.386,288.951 239.12,288.037C236.355,286.567 233.619,285.068 230.856,283.596C230.61,283.467 230.398,283.291 230.226,283.084C229.187,282.944 228.369,282.709 227.77,282.394C226.976,281.976 226.146,281.313 225.289,280.396C224.007,279.025 223.403,277.308 223.495,275.239C223.562,273.765 223.974,272.38 224.736,271.086C220.919,271.932 217.999,271.607 215.968,270.203ZM202.504,293.509L195.447,293.184L191.358,297.567L189.212,291.301L183.182,288.507L188.858,285.008L189.565,278.948L194.77,282.891L201.006,281.098L198.946,288.154L202.504,293.509ZM144.712,285.874L145.927,285.831C153.666,285.755 159.844,286.382 165.152,287.752L177.948,279.302L179.124,269.362L157.803,267.421L144.712,285.874ZM96.372,257.636C97.666,258.539 98.998,259.563 100.194,260.664C108.144,261.53 115.866,266.542 122.586,275.216C126.172,279.845 128.6,284.364 129.777,286.756C132.882,286.467 135.79,286.245 138.527,286.09L139.258,286.065L135.51,262.245L112.218,252.716L120.717,247.071L106.454,245.776L96.372,257.636ZM237.376,282.295L237.403,282.287C237.405,282.302 237.409,282.317 237.414,282.332L237.356,282.3L237.376,282.295ZM241.44,281.022L241.383,281.125C241.383,281.125 241.285,281.125 241.121,281.13L241.44,281.022ZM94.108,273.251C95.738,273.251 97.061,274.548 97.061,276.146C97.061,277.744 95.738,279.041 94.108,279.041C92.479,279.041 91.156,277.744 91.156,276.146C91.156,274.548 92.479,273.251 94.108,273.251ZM250.219,264.635C243.114,268.34 238.441,270.888 236.201,272.28C233.802,273.771 232.121,275.08 231.171,276.222C230.753,276.726 230.547,277.109 230.847,277.431C230.988,277.581 231.268,277.626 231.656,277.667C232.515,277.758 233.785,277.658 235.466,277.385C238.365,276.912 241.999,275.879 246.369,274.289C246.419,274.271 246.471,274.258 246.523,274.253C246.831,274.218 247.053,274.296 247.209,274.413C248.35,271.216 249.356,267.955 250.219,264.635ZM213.305,266.748C212.863,265.558 212.747,264.25 212.96,262.822C213.2,261.204 213.815,259.572 214.811,257.928C214.751,257.944 214.692,257.96 214.633,257.976C212.178,258.627 210.182,258.909 208.647,258.836C207.039,258.761 205.837,258.494 205.036,258.073C204.245,257.656 203.378,256.955 202.446,255.958C201.042,254.456 200.394,252.783 200.478,250.949C200.56,249.178 201.088,247.505 202.067,245.931C202.994,244.44 203.976,243.009 205.013,241.636C205.998,240.331 206.731,239.098 207.205,237.933C207.576,237.022 207.587,236.299 207.097,235.775C207.097,235.775 207.061,235.736 207.061,235.737L192.172,243.451C192.166,243.454 192.161,243.457 192.156,243.459C191.491,243.782 190.955,243.665 190.535,243.216L190.435,243.109L189.181,246.452L193.977,254.57L184.8,253.892L181.418,258.158L196.505,270.363L213.305,266.748ZM239.971,260.225C237.724,261.4 235.841,262.452 234.323,263.381C229.846,265.154 226.425,266.103 224.057,266.202C222.691,266.26 221.717,266.057 221.166,265.468C220.894,265.177 220.852,264.755 220.947,264.219C221.07,263.53 221.454,262.819 222.073,262.073C223.565,260.278 225.738,258.517 228.585,256.779C231.439,255.037 234.273,253.838 237.089,253.188C239.659,252.596 241.458,252.728 242.46,253.801C242.972,254.348 242.964,255.169 242.602,256.251C242.174,257.528 241.292,258.848 239.972,260.225L239.971,260.225ZM169.743,249.334L176.007,252.188L179.241,263.569L169.743,249.334ZM137.657,250.424L144.568,246.216L145.391,238.864L151.685,243.658L159.242,241.481L156.745,250.011L161.037,256.48L152.508,256.069L147.568,261.394L144.979,253.804L137.657,250.424ZM172.127,123.343C173.603,125.374 175.352,127.986 177.374,131.181C180.832,136.647 183.32,140.429 184.838,142.526C188.15,143.324 190.91,144.909 193.122,147.275C194.041,148.259 194.636,149.478 194.896,150.936C195.168,152.462 194.807,153.824 193.811,155.023C192.804,156.235 191.492,156.786 189.872,156.667C188.336,156.554 186.853,155.77 185.449,154.268C184.066,152.789 182.671,151.176 181.263,149.429C178.402,149.883 174.684,151.038 170.105,152.886C165.275,154.835 160.667,156.867 156.281,158.98C151.864,161.108 146.921,163.167 141.452,165.154C136.393,166.993 131.918,168.178 128.027,168.716C131.144,173.957 134.096,178.074 136.889,181.062C141.607,186.109 145.303,187.196 148.092,183.841C148.361,183.517 148.667,183.42 148.958,183.447C149.25,183.473 149.633,183.675 149.958,184.227C149.964,184.237 149.969,184.247 149.974,184.257C150.254,184.792 150.327,185.424 150.154,186.155C149.941,187.057 149.326,188.15 148.276,189.414C147.303,190.585 146.256,191.609 145.138,192.486C144.012,193.369 142.774,194.109 141.424,194.706C141.257,194.78 141.089,194.847 140.921,194.907L143.481,197.28L149.236,195.664C149.534,192.873 150.948,189.923 153.516,186.833C155.975,183.874 159.019,181.586 162.649,179.97C166.29,178.349 169.89,177.675 173.446,177.94C177.085,178.211 179.949,179.486 182.051,181.735C184.336,184.18 185.322,186.875 185.039,189.812C184.763,192.686 183.527,195.46 181.312,198.125C178.469,201.545 174.654,204.088 169.856,205.743C170.506,206.342 171.438,206.655 172.637,206.717C174.416,206.809 176.733,206.354 179.59,205.379C179.704,205.313 179.818,205.247 179.933,205.181C183.6,203.078 194.535,197.301 212.737,187.852C213.063,187.672 213.365,187.613 213.636,187.637C213.952,187.666 214.242,187.802 214.493,188.071C214.493,188.071 218.844,192.726 218.844,192.726C219.105,193.005 219.213,193.377 219.061,193.857C218.928,194.275 218.699,194.513 218.459,194.633C199.822,204.293 188.616,210.179 184.84,212.292C181.16,214.352 178.679,216.128 177.418,217.646C176.999,218.15 176.793,218.532 177.094,218.854C177.422,219.206 177.918,219.411 178.563,219.512C179.326,219.632 180.276,219.597 181.413,219.419C183.789,219.05 187.296,218.025 191.934,216.355C194.992,214.639 199.366,212.299 205.056,209.336C205.062,209.333 205.068,209.33 205.073,209.327C205.717,209.015 206.274,209.121 206.748,209.629L207.451,210.38C207.451,210.338 207.451,210.296 207.452,210.254C207.474,208.983 208.049,207.823 209.22,206.797L209.221,206.797C210.333,205.822 211.638,205.249 213.137,205.082C214.684,204.909 215.975,205.22 217.018,205.981C218.125,206.788 218.662,207.855 218.639,209.176C218.616,210.447 218.041,211.607 216.87,212.634C215.757,213.609 214.452,214.181 212.953,214.348C212.297,214.422 211.687,214.408 211.122,214.309C211.368,214.585 211.459,214.925 211.357,215.338C211.272,215.68 211.082,215.951 210.784,216.151C210.763,216.164 210.742,216.177 210.72,216.188C201.589,220.927 195.7,224.106 193.054,225.726C190.487,227.299 188.72,228.648 187.77,229.791C187.351,230.295 187.145,230.678 187.446,231C187.602,231.166 187.904,231.23 188.32,231.283C189.21,231.395 190.516,231.316 192.24,231.062C195.142,230.634 198.692,229.677 202.891,228.194L234.933,211.588C234.939,211.585 234.944,211.582 234.949,211.58C235.593,211.268 236.15,211.374 236.624,211.881C236.624,211.881 240.921,216.478 240.921,216.478C241.18,216.755 241.277,217.077 241.22,217.441C241.168,217.768 240.994,218.054 240.664,218.274C240.644,218.288 240.623,218.3 240.601,218.311C240.601,218.311 220.824,228.592 220.825,228.592C223.905,229.004 226.356,230.204 228.191,232.166C229.551,233.622 230.22,235.218 230.223,236.944C230.225,238.664 229.648,240.226 228.482,241.629C226.951,243.472 224.776,244.443 221.941,244.505C219.44,244.559 216.728,243.601 213.822,241.592C213.568,242.487 213.142,243.47 212.537,244.541C211.721,245.984 210.941,247.215 210.197,248.236C209.511,249.178 209.007,250.129 208.691,251.09C208.446,251.835 208.488,252.44 208.911,252.892C209.106,253.101 209.405,253.231 209.791,253.316C210.282,253.424 210.894,253.449 211.627,253.4C214,253.24 217.542,252.31 222.253,250.628C222.387,250.544 222.522,250.46 222.659,250.377C225.128,248.877 227.692,247.728 230.348,246.928C233.051,246.115 235.751,245.925 238.45,246.358C241.207,246.799 243.447,247.952 245.178,249.804C247.066,251.824 247.728,254.044 247.166,256.464C247.685,256.312 248.143,256.455 248.542,256.882L251.349,259.886C253.075,251.892 253.984,243.594 253.984,235.085C253.984,182.719 219.556,138.331 172.127,123.343ZM186.715,239.129L186.184,238.561C185.921,238.28 185.821,237.932 185.927,237.506C186.011,237.165 186.201,236.893 186.5,236.694L186.525,236.678C185.646,236.518 184.946,236.296 184.423,236.021C183.63,235.604 182.782,234.922 181.887,233.965C180.644,232.634 180.056,230.938 180.148,228.866C180.213,227.434 180.603,226.087 181.324,224.825C179.745,225.177 178.404,225.331 177.301,225.293L177.123,225.286L168.771,246.775L175.154,243.424L175.802,234.426L183.007,240.159L186.715,239.129ZM136.951,215.603L134.158,214.25L133.128,238.953L124.099,244.982L114.747,230.777L121.159,213.484L107.513,216.397L113.805,208.336L131.216,209.631L135.804,211.22L136.951,215.603ZM108.423,237.6L102.159,237.308L98.513,241.218L96.601,235.629L91.221,233.158L96.278,230.041L96.897,224.63L101.543,228.16L107.101,226.542L105.276,232.835L108.423,237.6ZM222.818,234.661C223.009,234.865 223.124,235.066 223.122,235.286C223.12,235.529 222.987,235.77 222.77,236.031C222.438,236.43 221.918,236.693 221.231,236.856C220.431,237.046 219.424,237.092 218.21,237.007C215.765,236.835 213.453,235.919 211.27,234.271C211.267,234.268 210.818,233.789 210.818,233.789C210.818,233.789 211.209,233.586 211.209,233.586C214.894,232.959 217.791,232.843 219.9,233.261C221.195,233.518 222.174,233.972 222.818,234.661ZM27.866,191.94L27.866,191.939C35.519,172.65 48.152,155.866 64.177,143.178L70.546,145.608L72.309,151.812L72.104,167.459L61.28,174.605L73.22,179.604L77.192,191.927L84.455,182.341L94.748,183.163L94.574,185.811L78.604,196.25L83.984,199.367L80.191,200.339L72.897,194.369L71.956,203.573L66.25,207.577L66.471,205.063L59.571,209.046L58.236,224.247L52.734,227.423L54.059,212.222L47.158,216.205L45.834,231.406L37.695,236.1L38.352,223.655L27.898,230.448L27.898,221.06L40.397,212.308L40.397,204.331L27.898,213.083L27.898,206.731L40.397,197.979L40.397,190.013L27.898,198.754L27.898,191.859C27.888,191.886 27.877,191.913 27.866,191.94ZM79.742,230.517L67.871,224.979L75.44,220.61L75.691,221.425L81.367,214.368L88.425,215.19L87.866,224.809L84.955,226.69L79.742,230.517ZM20.912,219.942L20.907,219.979L22.451,221.06L22.451,230.448L19.829,228.744C19.884,228.366 20.271,224.663 20.907,219.979L20.855,219.942L20.912,219.942ZM151.42,202.786L150.596,205.25L155.861,214.22L145.892,213.72L140.422,219.337L153.743,230.337L175.09,225.038C174.544,224.917 174.083,224.756 173.708,224.558C172.919,224.143 172.034,223.423 171.064,222.386C169.817,221.052 169.281,219.274 169.504,217.039C169.701,215.076 170.4,213.295 171.605,211.697C171.275,211.687 170.936,211.67 170.587,211.645C169.556,211.572 168.664,211.348 167.912,210.985C167.16,210.622 166.433,210.071 165.736,209.326C165.154,208.702 164.681,207.96 164.324,207.098C158.958,207.759 154.887,206.551 152.088,203.557C151.851,203.303 151.628,203.046 151.42,202.786ZM19.829,228.744C19.826,228.765 19.824,228.776 19.823,228.776C19.822,228.775 19.822,228.764 19.823,228.74L19.829,228.744ZM65.136,220.264L73.789,215.262L72.986,212.661L66.093,209.374L65.136,220.264ZM96.601,204.074L99.043,213.808L89.278,205.925L89.132,206.044L88.308,210.955L85.514,207.014L88.102,200.839L96.601,204.074ZM82.514,210.544L79.486,210.398L77.72,212.279L76.81,209.574L74.192,208.398L76.662,206.868L76.956,204.28L79.19,205.955L81.867,205.193L80.985,208.221L82.514,210.544ZM125.849,182.392L122.306,192.398L129.863,203.515L134.01,201.427L134.877,194.296C134.187,193.879 133.525,193.334 132.892,192.657C132.262,191.982 131.643,191.252 131.036,190.466C130.439,189.693 129.906,188.988 129.436,188.351C128.958,187.702 128.428,186.884 127.846,185.896C127.277,184.93 126.823,184.154 126.485,183.569C126.303,183.254 126.091,182.861 125.849,182.392ZM115.777,199.663L109.482,199.367L105.835,203.281L103.923,197.691L98.543,195.22L103.629,192.104L104.248,186.693L108.894,190.222L114.453,188.605L112.601,194.897L115.777,199.663ZM179.026,186.474C179.471,186.95 179.55,187.576 179.334,188.34C179.064,189.302 178.364,190.438 177.263,191.763C175.467,193.924 173.19,195.811 170.437,197.427C169.612,196.929 168.548,196.791 167.235,197.069C165.794,197.374 164.613,198.082 163.691,199.191C163.258,199.713 162.967,200.224 162.807,200.717C160.985,201.215 159.456,201.439 158.217,201.376C157.043,201.315 156.153,201.001 155.567,200.374C155.158,199.938 155.171,199.271 155.442,198.389C155.78,197.286 156.453,196.14 157.448,194.944C159.514,192.457 162.155,190.369 165.368,188.673C168.578,186.979 171.497,185.967 174.128,185.652C175.397,185.5 176.46,185.499 177.317,185.66C178.064,185.801 178.639,186.06 179.026,186.474L179.026,186.474ZM77.897,171.429L78.337,167.43L81.778,170.016L85.896,168.84L84.543,173.488L86.866,177.018L82.22,176.782L79.544,179.693L78.132,175.546L74.133,173.723L77.897,171.429ZM108.79,164.187L105.19,163.989L99.925,169.899L109.924,179.399L122.85,176.044L122.789,175.896C122.274,174.638 121.939,173.838 121.783,173.494C121.625,173.145 121.266,172.288 120.706,170.925C120.324,169.994 120.056,169.316 119.9,168.891C115.531,168.422 111.829,166.852 108.79,164.187ZM94.514,161.341L96.985,162.165L98.159,168.871L95.955,167.105L95.131,178.694L90.337,172.399L94.514,161.341ZM83.074,163.666L76.485,157.665L83.337,148.607L95.69,149.489L95.338,154.195L88.573,158.167L92.865,160.636L83.074,163.666ZM105.17,154.424L102.778,155.108L100.544,153.43L100.248,156.018L97.779,157.519L100.396,158.724L101.308,161.429L103.07,159.548L105.35,159.636C105.136,159.065 104.987,158.476 104.904,157.871L104.571,157.371L104.825,156.501C104.842,155.772 104.957,155.08 105.17,154.424ZM110.98,158.831C109.905,157.681 109.617,156.686 110.352,155.801C110.67,155.419 111.051,155.233 111.506,155.269C112.048,155.312 112.589,155.68 113.172,156.303C114.211,157.416 115.286,158.996 116.403,161.039C114.076,160.926 112.263,160.204 110.98,158.831ZM150.05,118.66C145.71,118.171 141.294,117.92 136.819,117.92C121.668,117.92 107.185,120.802 93.883,126.049L90.279,137.638L96.043,146.373L96.424,144.019L102.984,150.225L112.042,147.785L111.625,149.494L111.644,149.493C113.643,149.455 115.708,150.507 117.792,152.736C119.243,154.288 121.017,156.807 123.107,160.298C126.16,159.543 130.041,158.214 134.751,156.315C139.741,154.303 144.4,152.339 148.729,150.422C153.083,148.494 157.877,146.678 163.112,144.974C167.851,143.432 172.018,142.464 175.611,142.066C170.41,135.035 166.808,130.445 164.803,128.3C162.943,126.31 161.105,124.853 159.281,123.937C157.541,123.064 156.04,122.685 154.768,122.847C153.472,123.012 152.392,123.298 151.529,123.717C150.705,124.116 150.043,124.609 149.55,125.203C149.354,125.438 149.134,125.533 148.931,125.556C148.705,125.581 148.46,125.525 148.224,125.314C148.048,125.156 147.837,124.836 147.646,124.323C147.642,124.312 147.638,124.3 147.634,124.288C147.195,122.871 147.489,121.516 148.555,120.234C149.022,119.672 149.52,119.148 150.05,118.66ZM75.653,135.155C76.528,134.618 77.411,134.092 78.301,133.577L79.749,134.667L84.19,133.374L82.72,138.431L85.251,142.255L80.22,142.02L77.309,145.137L75.78,140.668L71.456,138.668L75.543,136.168L75.653,135.155ZM180.189,106.092C174.413,104.148 168.461,102.581 162.366,101.421C161.639,100.11 160.883,98.715 160.126,97.318C160.038,97.141 159.95,96.995 159.89,96.847C157.125,91.759 155.303,86.083 153.862,80.436L179.889,104.287L180.419,105.288C180.419,105.288 180.253,105.564 180.189,106.092ZM115.274,100.721C108.993,101.722 102.856,103.153 96.893,104.984L96.631,104.2L98.278,101.641L126.011,79.759C123.982,85.819 121.482,91.818 117.923,97.024L117.894,97.024C117.835,97.141 117.775,97.229 117.687,97.318C117.658,97.406 117.57,97.523 117.452,97.671C116.986,98.312 116.204,99.471 115.274,100.721ZM135.95,51.587C137.215,50.409 138.892,49.792 140.627,49.852C142.334,49.909 143.98,50.645 145.127,51.938C146.303,53.174 146.951,54.849 146.862,56.556C146.803,58.291 146.038,59.908 144.803,61.086C143.509,62.26 141.863,62.879 140.128,62.819C138.421,62.762 136.775,62.026 135.628,60.733C134.452,59.497 133.804,57.82 133.864,56.115C133.952,54.35 134.717,52.763 135.95,51.587ZM207.857,15.296C218.916,11.766 223.15,20.353 218.297,30.998C205.298,42.235 188.889,48.674 171.713,49.233C178.065,33.087 191.329,20.618 207.857,15.296ZM64.545,25.293C60.458,14.325 65.338,6.09 76.074,10.442C92.16,16.971 104.454,30.352 109.63,46.91C92.543,45.117 76.633,37.47 64.545,25.293Z" style="fill:none;stroke:rgb(255,0,0);stroke-width:1px;"/>
</svg>
