<?xml version="1.0" encoding="UTF-8" standalone="no"?>
<!DOCTYPE svg PUBLIC "-//W3C//DTD SVG 1.1//EN" "http://www.w3.org/Graphics/SVG/1.1/DTD/svg11.dtd">
<svg width="100%" height="100%" viewBox="0 0 1123 794" version="1.1" xmlns="http://www.w3.org/2000/svg" xmlns:xlink="http://www.w3.org/1999/xlink" xml:space="preserve" xmlns:serif="http://www.serif.com/" style="fill-rule:evenodd;clip-rule:evenodd;stroke-linejoin:round;stroke-miterlimit:2;">
    <path d="M144.768,40.265C146.525,40.302 148.11,40.912 149.422,41.91C150.863,43.057 151.891,44.704 152.273,46.587C152.802,46.587 182.859,16.178 188.975,12.177C194.836,8.337 202.831,5.966 211.003,5.93C211.404,5.929 211.807,5.932 212.21,5.942C221.975,6.413 230.502,10.413 234.032,19.412C239.942,32.998 232.913,47.381 232.854,60.821C232.825,76.702 247.707,93.348 235.179,108.435C229.972,113.729 222.856,118.846 215.857,121.903L215.797,121.903L214.909,122.185L213.44,122.66C235.271,137.575 252.544,158.68 262.718,183.428L263.146,184.482L263.635,185.717L264.183,187.147L264.715,188.58L264.956,189.247L265.465,190.694L265.958,192.147L266.475,193.735L266.941,195.223L267.39,196.719L267.822,198.222L268.318,200.033L268.765,201.757L269.14,203.283L269.499,204.816L269.84,206.356L270.097,207.582L270.267,208.418L270.567,209.973L270.849,211.533L271.113,213.1L271.309,214.338L271.419,215.073L271.66,216.779L271.864,218.366L272.05,219.958L272.182,221.204L272.257,221.958L272.366,223.158L272.397,223.517L272.519,225.075L272.624,226.63L272.71,228.177L272.746,228.945L272.807,230.524L272.85,232.102C272.861,232.627 272.87,233.152 272.875,233.676L272.882,235.204L272.88,235.812C272.877,236.27 272.873,236.727 272.866,237.183L272.845,238.277C272.836,238.637 272.827,238.997 272.816,239.357L272.77,240.666L272.707,242.056L272.66,242.916C272.616,243.693 272.566,244.469 272.509,245.242L272.378,246.891L272.235,248.448L272.115,249.632L271.964,250.996L271.773,252.558L271.607,253.813L271.429,255.064L271.176,256.717L270.983,257.897L270.743,259.275L270.405,261.091L270.108,262.584L269.863,263.752L269.428,265.714L269.074,267.212L268.795,268.344L268.42,269.801L268.042,271.21L267.725,272.344L267.361,273.601L266.892,275.16L266.363,276.838L265.822,278.487L265.452,279.56L265.025,280.738L264.863,281.178C264.752,281.514 264.639,281.848 264.5,282.186C263.205,285.714 261.764,289.155 260.177,292.537C259.764,293.448 259.353,294.331 258.911,295.213C258.206,296.654 257.441,298.096 256.707,299.508C256.647,299.565 256.619,299.654 256.588,299.713C255.177,302.329 253.677,304.919 252.09,307.419L251.385,308.513L250.98,309.103L250.316,310.136L249.767,310.943L249.354,311.546L249.354,311.565C249.088,312.005 248.794,312.416 248.472,312.829C247.32,314.5 246.13,316.138 244.904,317.745L244.816,317.86C243.221,319.948 241.565,321.984 239.854,323.976L239.073,324.871L238.079,325.991L237.478,326.655L236.874,327.314L236.265,327.97L235.652,328.622L235.034,329.27L234.413,329.913L233.787,330.553L233.157,331.188L232.523,331.819L231.885,332.446L231.243,333.069L230.597,333.688L229.946,334.303L229.292,334.913L228.634,335.519L227.305,336.718L225.961,337.9L224.601,339.064L223.226,340.21L221.835,341.339L220.43,342.45L219.251,343.358L218.294,344.082L217.12,344.95L216.125,345.672L214.957,346.501L213.924,347.22L212.763,348.011L211.691,348.725L210.538,349.478L209.428,350.187L208.283,350.903L207.134,351.605L205.999,352.284L204.81,352.979L203.686,353.621L202.128,354.488L200.557,355.336L199.718,355.777L198.921,356.19L198.122,356.597L197.319,356.999L196.514,357.396L195.706,357.788L194.894,358.175L194.08,358.556L193.263,358.932L192.443,359.303L191.621,359.668L190.795,360.029L189.967,360.383L189.136,360.733L188.303,361.077L187.466,361.416L186.627,361.749L185.472,362.197L184.208,362.674L183.508,362.932C175.658,365.798 167.471,367.962 159.021,369.348L157.605,369.572L156.197,369.781L154.318,370.035L152.436,370.263L150.549,370.465L148.516,370.653L146.646,370.8L144.654,370.927L142.787,371.02L140.923,371.087L139.53,371.121L138.144,371.142L136.819,371.148L135.472,371.141L135.01,371.136L133.308,371.103L132.116,371.068L131.571,371.048C131.011,371.027 130.452,371.002 129.893,370.974L128.91,370.921L128.07,370.87L126.787,370.783L125.344,370.67L124.595,370.605L123.757,370.528L122.78,370.431L121.461,370.29L119.917,370.108L119.147,370.01L118.622,369.94C61.059,362.253 14.891,318.582 3.474,262.277L3.239,261.09L2.955,259.579L2.689,258.062L2.439,256.54L2.206,255.012L1.989,253.478L1.79,251.939L1.609,250.395L1.444,248.846L1.295,247.267L1.199,246.139L1.071,244.412L1.03,243.782L0.93,242.013L0.887,241.098L0.867,240.61L0.814,239.101L0.782,237.765L0.762,236.427L0.756,235.069L0.761,233.92L0.78,232.504L0.814,231.055L0.874,229.343L0.941,227.924L1.04,226.215L1.16,224.51L1.339,222.399L1.503,220.733L1.754,218.52L1.965,216.867L2.116,215.769L2.36,214.126L2.623,212.491L2.832,211.276L3.004,210.32L3.25,209.022L3.391,208.305L3.7,206.805L3.847,206.115L4.228,204.413L4.525,203.156L4.699,202.441L5.07,200.971L5.248,200.286L5.705,198.602L6.047,197.393L6.255,196.679L6.685,195.245L7.142,193.78L7.652,192.213L8.179,190.657L8.724,189.112L9.286,187.576L9.865,186.051L10.462,184.535L11.076,183.028L11.589,181.809L12.228,180.334L12.884,178.867L13.557,177.41L14.247,175.963L14.953,174.524L15.675,173.096L16.414,171.677L17.169,170.268L17.681,169.334L18.2,168.404L18.727,167.479L19.26,166.559L19.8,165.643L20.347,164.732L20.901,163.825L21.462,162.923L21.995,162.081C24.011,158.918 26.155,155.843 28.418,152.865L29.105,151.969L30.119,150.673L31.137,149.404L32.163,148.156L33.2,146.924L34.249,145.708L35.309,144.506L36.64,143.037L37.833,141.756L39.206,140.322L40.549,138.958L41.845,137.678L43.198,136.376L44.743,134.932L46.31,133.513L47.5,132.464L48.702,131.429L49.916,130.407L51.142,129.4L52.38,128.406L53.63,127.427L54.892,126.462L56.165,125.511L57.449,124.575L58.745,123.654L60.052,122.747L61.369,121.855L62.698,120.978L64.037,120.117L64.936,119.551L65.84,118.992C65.398,118.817 65.044,118.669 64.75,118.492L64.722,118.492C55.281,115.374 48.341,108.758 41.958,101.287C30.577,85.318 46.666,69.791 47.751,53.967C48.723,40.557 42.782,25.706 49.694,12.56C53.84,3.853 62.664,0.531 72.427,0.768C81.014,1.208 89.338,4.267 95.161,8.707C107.57,18.236 119.159,31.999 128.776,45.146C128.776,44.116 130.394,42.292 132.157,41.293C133.276,40.617 134.598,40.263 136.01,40.263L144.597,40.263L144.768,40.265ZM233.106,301.981L233,302.134C230.483,303.681 227.993,305.253 225.474,306.802C223.721,307.892 224.466,310.555 226.475,310.623C225.699,311.543 224.907,312.453 224.102,313.349L223.767,313.36C222.62,313.389 221.681,314.328 221.65,315.475C221.645,315.641 221.659,315.803 221.69,315.957C200.328,338.368 170.192,352.34 136.819,352.34C129.603,352.34 122.539,351.687 115.679,350.436L134.186,327.506L164.772,329.681L159.508,320.888L165.184,312.093L175.802,312.975L170.243,303.566L173.565,295.625L181.093,299.3L186.535,320.035L200.475,303.418L218.297,304.448C218.326,304.8 218.445,305.153 218.65,305.447C219.327,306.417 220.62,306.683 221.621,306.066C224.267,304.448 226.915,302.799 229.591,301.155C230.762,301.438 231.935,301.697 233.106,301.981ZM107.895,341.033L113.364,348.678L110.159,337.003L107.895,341.033ZM104.571,345.769L100.63,345.592L99.878,346.393C99.065,346.123 98.255,345.844 97.449,345.556L97.102,344.532L93.718,342.975L96.925,341.004L97.306,337.591L100.219,339.797L103.749,338.798L102.571,342.768L104.571,345.769ZM85.131,273.303L79.354,270.4L80.178,272.648C80.193,272.692 80.209,272.736 80.222,272.78C81.181,275.96 79.411,279.432 76.27,280.531C74.342,281.206 72.35,280.866 70.84,279.792C71.014,281.638 70.315,283.537 68.77,284.872C67.596,285.888 66.126,286.394 64.662,286.394C62.977,286.394 61.301,285.725 60.085,284.426C60.052,284.392 60.022,284.357 59.993,284.321L57.193,280.956L57.193,288.369C57.193,291.684 54.444,294.418 50.997,294.418C47.547,294.418 44.798,291.684 44.798,288.369L44.798,280.956L41.998,284.321C41.969,284.357 41.939,284.392 41.906,284.426C39.633,286.853 35.746,287.057 33.221,284.874L33.221,284.872C31.676,283.537 30.977,281.638 31.152,279.792C30.457,280.285 29.66,280.624 28.814,280.779C39.992,307.142 60.547,328.582 86.29,340.908L91.19,337.739L92.396,325.651L101.189,333.062L108.66,330.739L105.749,320.828L76.779,308.771L84.691,302.624L82.543,295.744L74.367,291.949L81.926,286.273L82.749,277.684L87.308,281.333L85.131,273.303ZM117.923,310.182L108.954,306.066L117.395,300.861L118.423,291.83L126.187,297.713L135.451,295.037L132.392,305.535L137.657,313.475L127.187,312.975L121.099,319.533L117.923,310.182ZM158.478,319.476L151.155,307.801L156.126,310.066L158.478,319.476ZM156.891,305.007L159.832,303.212L160.184,300.067L162.889,302.125L166.096,301.183L165.036,304.83L166.861,307.595L163.243,307.419L161.125,309.711L160.007,306.448L156.891,305.007ZM169.832,294.508L163.95,296.566L155.684,289.92L154.539,300.772L148.686,303.77L158.714,273.038L151.862,274.421L157.803,267.421L179.124,269.362L177.948,279.302L160.979,290.508L169.832,294.508ZM223.767,299.771C222.62,300.476 221.444,301.212 220.268,301.948L218.827,299.713C219.267,299.448 219.709,299.183 220.151,298.889C221.356,299.183 222.561,299.477 223.767,299.771ZM91.073,297.625L88.014,301.654L94.543,297.832L91.073,297.625ZM244.174,281.971C242.194,282.636 240.411,283.148 238.825,283.51C236.164,284.117 234.021,284.278 232.399,284.016C230.74,283.749 229.485,283.359 228.629,282.866C227.774,282.375 226.905,281.662 226.026,280.722C224.778,279.387 224.218,277.82 224.343,276.022C224.464,274.292 225.222,272.561 226.649,270.845C227.7,269.58 228.832,268.517 230.043,267.653C231.223,266.813 233.539,265.509 237.002,263.743C240.679,261.698 243.091,260.018 244.216,258.674C244.469,258.371 244.651,258.093 244.751,257.833C244.838,257.606 244.855,257.404 244.758,257.223C244.103,256.575 242.797,256.31 240.875,256.285C238.731,256.258 236.166,256.786 233.176,257.855L217.503,265.997L210.092,286.304L214.679,293.332C214.886,293.39 215.092,293.448 215.297,293.478C215.003,293.008 214.709,292.537 214.444,292.068C213.827,291.067 214.15,289.772 215.209,289.213C216.208,288.655 217.503,289.009 218.12,289.979C219.121,291.624 220.12,293.244 221.091,294.862C222.326,295.154 223.533,295.448 224.738,295.744C223.798,294.214 222.885,292.712 221.975,291.213C221.356,290.183 221.681,288.89 222.737,288.331C223.738,287.802 225.032,288.125 225.65,289.124C227.268,291.772 228.915,294.449 230.531,297.123C231.737,297.39 232.973,297.682 234.178,297.978C232.591,295.39 231.002,292.802 229.414,290.214C228.325,288.419 230.296,286.304 232.178,287.303C234.692,288.656 237.18,290.008 239.692,291.362L239.958,290.875C239.999,290.56 242.256,286.005 244.174,281.971ZM202.504,293.509L195.447,293.184L191.358,297.567L189.212,291.301L183.182,288.507L188.858,285.008L189.565,278.948L194.77,282.891L201.006,281.098L198.946,288.154L202.504,293.509ZM92.631,293.39L89.278,293.213L87.308,295.331L86.279,292.331L83.396,291.007L86.132,289.332L86.455,286.419L88.926,288.302L91.926,287.449L90.927,290.83L92.631,293.39ZM95.661,275.126L103.66,275.774L102.836,292.331L98.924,294.566L95.807,289.772L98.543,281.596L89.338,283.271L95.661,275.126ZM98.806,255.804L106.454,245.776L120.717,247.071L112.218,252.716L135.51,262.245L139.303,278.155L128.657,280.979L104.542,260.512L103.66,269.596L100.984,266.009L104.69,255.07L98.806,255.804ZM249.963,265.946C248.94,267.067 247.698,268.06 246.235,268.923C246.224,268.929 246.213,268.936 246.201,268.942C241.353,271.433 237.952,273.242 235.997,274.372C234.132,275.449 232.893,276.331 232.301,277.044C231.888,277.541 231.682,277.918 231.979,278.236C232.191,278.462 232.569,278.583 233.086,278.667C234.096,278.833 235.554,278.782 237.459,278.533C240.383,278.15 243.474,277.387 246.726,276.249C246.826,275.956 246.864,275.775 246.825,275.733C248.009,272.534 249.058,269.27 249.963,265.946ZM33.617,275.518L35.978,260.906L44.798,256.088L45.284,265.759L33.617,275.518ZM68.374,275.516L56.423,266.816L57.193,256.088L66.785,261.932L68.374,275.516ZM213.021,266.809L208.979,262.485C208.717,262.205 208.617,261.858 208.722,261.433C208.794,261.143 208.943,260.903 209.17,260.716C208.447,260.576 207.856,260.381 207.395,260.139C206.607,259.724 205.783,259.066 204.932,258.156C203.66,256.795 203.06,255.091 203.152,253.037C203.217,251.578 203.624,250.207 204.377,248.926C199.872,249.921 196.628,249.272 194.628,247.133C192.975,245.363 192.328,243.227 192.701,240.72C192.931,239.174 193.505,237.614 194.431,236.045C191.886,236.657 189.825,236.865 188.25,236.689C186.612,236.507 185.364,236.153 184.499,235.656C183.648,235.167 182.724,234.397 181.735,233.339C180.497,232.014 179.964,230.25 180.186,228.031C180.327,226.621 180.73,225.306 181.395,224.085C179.83,224.454 178.49,224.634 177.378,224.629L168.771,246.775L175.154,243.424L175.802,234.426L183.007,240.159L192.536,237.512L189.181,246.452L193.977,254.57L184.8,253.892L181.418,258.158L196.505,270.363L213.021,266.809ZM95.955,263.598C95.955,263.598 93.726,264.232 93.726,264.232C94.485,265.959 94.443,268.037 93.413,269.845L96.72,269.979C96.72,269.979 94.896,267.246 94.896,267.246L95.955,263.598ZM169.743,249.334L176.007,252.188L179.241,263.569L169.743,249.334ZM137.657,250.424L144.568,246.216L145.391,238.864L151.685,243.658L159.242,241.481L156.745,250.011L161.037,256.48L152.508,256.069L147.568,261.394L144.979,253.804L137.657,250.424ZM171.673,123.105C173.195,125.172 175.023,127.891 177.158,131.264C180.588,136.684 183.055,140.435 184.561,142.516C187.846,143.308 190.584,144.88 192.778,147.228L192.778,147.228C193.691,148.204 194.281,149.414 194.539,150.862C194.81,152.377 194.451,153.73 193.462,154.92C192.462,156.124 191.159,156.671 189.551,156.553C188.026,156.441 186.554,155.663 185.159,154.171C183.788,152.705 182.405,151.105 181.009,149.373C178.172,149.824 174.485,150.97 169.946,152.802C165.155,154.735 160.584,156.75 156.234,158.846C151.853,160.958 146.949,162.999 141.524,164.971C136.509,166.794 132.072,167.969 128.215,168.503C131.304,173.698 134.231,177.779 137,180.742C141.677,185.744 145.34,186.824 148.104,183.498C148.372,183.175 148.678,183.079 148.968,183.105C149.259,183.131 149.641,183.332 149.964,183.882C149.97,183.891 149.975,183.901 149.981,183.911C150.259,184.443 150.331,185.071 150.159,185.798C149.948,186.693 149.338,187.778 148.295,189.033C147.33,190.195 146.291,191.211 145.182,192.081C144.065,192.957 142.837,193.692 141.497,194.283C141.201,194.414 140.903,194.524 140.604,194.613L143.481,197.28L149.201,195.674C149.209,195.533 149.221,195.391 149.236,195.249C149.527,192.473 150.93,189.539 153.484,186.466C155.925,183.53 158.944,181.26 162.546,179.657C166.158,178.048 169.73,177.38 173.258,177.643C176.869,177.912 179.711,179.177 181.797,181.409C184.065,183.835 185.043,186.51 184.763,189.425C184.488,192.277 183.262,195.029 181.064,197.673C178.246,201.065 174.463,203.587 169.708,205.228C170.35,205.818 171.272,206.126 172.455,206.187C174.219,206.279 176.517,205.828 179.35,204.861C179.462,204.795 179.576,204.73 179.69,204.664C183.327,202.578 194.173,196.848 212.228,187.475C212.552,187.297 212.854,187.237 213.124,187.262C213.438,187.29 213.726,187.426 213.977,187.694C213.977,187.694 218.293,192.311 218.293,192.311C218.553,192.59 218.66,192.959 218.509,193.438C218.376,193.855 218.149,194.092 217.91,194.211C199.423,203.793 188.307,209.632 184.562,211.727C180.913,213.77 178.453,215.531 177.201,217.036C176.788,217.533 176.583,217.91 176.88,218.228C177.205,218.576 177.696,218.779 178.334,218.879C179.09,218.997 180.032,218.963 181.16,218.787C183.424,218.435 186.725,217.482 191.062,215.938C193.515,214.554 196.975,212.692 201.442,210.352C201.442,210.352 199.99,208.798 199.99,208.798C199.729,208.518 199.628,208.171 199.733,207.747C199.834,207.344 200.049,207.102 200.308,206.971L203.264,205.37C203.273,205.365 203.282,205.361 203.291,205.357C203.932,205.046 204.487,205.151 204.959,205.657C204.959,205.657 206.771,207.596 206.771,207.596C209.261,206.301 213.65,204.024 219.936,200.764C220.26,200.586 220.561,200.527 220.831,200.551C221.145,200.579 221.434,200.715 221.684,200.983C221.684,200.983 225.946,205.543 225.946,205.543C226.182,205.795 226.299,206.125 226.244,206.549C226.185,206.997 225.948,207.303 225.531,207.46C219.761,210.486 215.532,212.696 212.842,214.091C212.842,214.091 215.101,216.507 215.101,216.507C215.363,216.787 215.463,217.134 215.358,217.558C215.273,217.898 215.084,218.169 214.787,218.367C214.768,218.38 214.748,218.392 214.728,218.402L211.8,219.949C211.16,220.259 210.605,220.154 210.133,219.649C210.133,219.649 207.513,216.846 207.513,216.846C199.81,220.91 194.886,223.591 192.741,224.891C190.628,226.172 189.059,227.417 188.045,228.637C187.627,229.139 187.456,229.542 187.777,229.886C188.148,230.282 188.726,230.537 189.493,230.692C190.375,230.87 191.486,230.905 192.825,230.805C195.173,230.631 198.081,229.98 201.547,228.86C201.801,228.695 202.06,228.532 202.325,228.372C204.775,226.884 207.318,225.743 209.953,224.95C212.635,224.143 215.314,223.955 217.992,224.384C220.604,224.803 222.749,225.865 224.432,227.559C224.478,227.535 224.525,227.511 224.573,227.488L236.058,222.105C237.305,221.52 238.706,221.874 239.184,222.893L240.915,226.587C241.393,227.607 240.769,228.909 239.522,229.494L226.824,232.426C226.86,233.07 226.8,233.73 226.644,234.406C227.157,234.259 227.61,234.402 228.005,234.825C228.005,234.825 232.321,239.442 232.321,239.442C232.583,239.722 232.683,240.069 232.578,240.493C232.493,240.834 232.304,241.104 232.007,241.302C231.986,241.316 231.965,241.329 231.943,241.34C223.609,245.661 218.216,248.583 215.763,250.107C213.384,251.586 211.717,252.883 210.775,254.016C210.362,254.513 210.157,254.89 210.454,255.208C210.593,255.356 210.87,255.4 211.252,255.44C212.105,255.53 213.363,255.432 215.03,255.16C217.814,254.707 221.281,253.731 225.434,252.238L238.76,245.318C238.765,245.315 238.77,245.312 238.776,245.31C239.417,244.999 239.972,245.105 240.444,245.61C240.444,245.61 244.76,250.227 244.76,250.227C245.021,250.507 245.122,250.854 245.016,251.278C244.922,251.66 244.687,251.937 244.295,252.085C244.295,252.085 244.126,252.177 244.128,252.177C244.695,252.273 245.235,252.411 245.747,252.59C246.946,253.009 247.816,253.451 248.367,253.896C248.894,254.323 249.513,254.914 250.222,255.672C250.95,256.451 251.473,257.29 251.794,258.19C253.29,250.721 254.074,242.994 254.074,235.085C254.074,182.504 219.39,137.96 171.673,123.105ZM93.065,254.373C92.686,254.936 92.218,255.437 91.68,255.854L93.838,257.628C93.838,257.628 93.065,254.373 93.065,254.373ZM177.771,247.63L179.977,246.275L180.242,243.924L182.271,245.453L184.683,244.775L183.889,247.511L185.242,249.569L182.534,249.452L180.947,251.158L180.094,248.718L177.771,247.63ZM19.892,243.913L30.396,239.854L39.892,245.33L30.696,251.158L20.154,246.913C20.055,245.921 19.967,244.919 19.892,243.913ZM85.767,245.33L71.954,250.362L62.099,245.33L72.204,240.111L85.767,245.33ZM90.909,245.299L90.892,245.226C90.821,245.263 90.748,245.297 90.675,245.33C90.767,245.374 90.859,245.418 90.949,245.466L90.909,245.299ZM136.951,215.603L134.158,214.25L133.128,238.953L124.099,244.982L114.747,230.777L121.159,213.484L107.513,216.397L113.805,208.336L131.216,209.631L135.804,211.22L136.951,215.603ZM219.497,238.14C217.268,239.306 215.401,240.349 213.895,241.27C209.455,243.029 206.063,243.97 203.714,244.068C202.362,244.125 201.396,243.925 200.851,243.341C200.582,243.054 200.541,242.637 200.635,242.108C200.757,241.424 201.137,240.72 201.751,239.981C203.231,238.201 205.386,236.454 208.208,234.731C211.039,233.003 213.85,231.814 216.642,231.17C219.189,230.583 220.972,230.713 221.965,231.776C222.471,232.318 222.462,233.13 222.104,234.201C221.68,235.467 220.805,236.775 219.498,238.14L219.497,238.14ZM108.423,237.6L102.159,237.308L98.513,241.218L96.601,235.629L91.221,233.158L96.278,230.041L96.897,224.63L101.543,228.16L107.101,226.542L105.276,232.835L108.423,237.6ZM33.617,215.144L45.803,224.221L44.798,234.574L35.216,230.049L33.617,215.144ZM68.374,215.144L65.894,229.603L57.193,234.572L57.247,224.607L68.374,215.144ZM151.531,202.452L150.596,205.25L155.861,214.22L145.892,213.72L140.422,219.337L153.743,230.337L176.806,224.612C175.361,224.539 174.266,224.289 173.515,223.894C172.732,223.482 171.853,222.768 170.891,221.738C169.653,220.414 169.12,218.649 169.343,216.43C169.537,214.486 170.229,212.721 171.421,211.137C171.097,211.127 170.764,211.11 170.422,211.086C169.397,211.013 168.513,210.792 167.766,210.431C167.02,210.07 166.298,209.524 165.606,208.784C165.029,208.166 164.561,207.431 164.206,206.576C158.883,207.231 154.845,206.032 152.068,203.062C151.88,202.86 151.701,202.657 151.531,202.452ZM81.367,214.368L80.453,215.505C80.529,216.287 80.46,217.092 80.222,217.88C80.209,217.926 80.195,217.97 80.178,218.015L78.666,222.142L85.066,218.437C86.073,217.855 87.185,217.602 88.282,217.649L88.425,215.19L81.367,214.368ZM64.079,143.141L70.546,145.608L72.309,151.812L72.104,167.459L61.28,174.605L73.22,179.604L77.192,191.927L84.455,182.341L94.748,183.163L94.574,185.811L78.604,196.25L83.984,199.367L80.191,200.339L72.897,194.369L71.956,203.573L68.783,205.8L68.77,205.788C66.245,203.605 62.358,203.809 60.085,206.234C60.052,206.269 60.022,206.305 59.993,206.34L57.193,209.706L57.193,202.293C57.193,198.979 54.444,196.242 50.997,196.242C47.547,196.242 44.798,198.979 44.798,202.293L44.798,209.706L41.998,206.34C41.969,206.305 41.939,206.269 41.906,206.234C39.633,203.809 35.746,203.605 33.221,205.788C31.676,207.124 30.977,209.024 31.152,210.871C29.641,209.796 27.649,209.456 25.722,210.131C22.578,211.23 20.81,214.7 21.769,217.88C21.783,217.926 21.796,217.97 21.813,218.015L23.325,222.142L20.466,220.486C24.353,189.233 40.563,161.778 64.079,143.141ZM85.514,207.014L88.102,200.839L96.601,204.074L99.043,213.808L89.278,205.925L89.132,206.044L88.308,210.955L85.514,207.014ZM82.514,210.544L80.985,208.221L81.867,205.193L79.19,205.955L76.956,204.28L76.662,206.868L74.192,208.398L76.81,209.574L77.123,210.504C77.62,210.767 78.073,211.095 78.475,211.475L79.486,210.398L82.514,210.544ZM146.862,208.692L143.215,208.544L141.127,210.807L140.01,207.573L136.892,206.132L139.834,204.309L140.185,201.192L142.862,203.219L146.098,202.31L145.039,205.955L146.862,208.692ZM125.996,181.978L122.306,192.398L129.863,203.515L134.01,201.427L134.932,193.836C134.271,193.428 133.636,192.9 133.028,192.25C132.403,191.581 131.789,190.856 131.187,190.076C130.594,189.309 130.065,188.61 129.6,187.978C129.125,187.335 128.599,186.523 128.022,185.543C127.457,184.584 127.007,183.815 126.672,183.235C126.48,182.902 126.254,182.483 125.996,181.978ZM103.629,192.104L104.248,186.693L108.894,190.222L114.453,188.605L112.601,194.897L115.777,199.663L109.482,199.367L105.835,203.281L103.923,197.691L98.543,195.22L103.629,192.104ZM178.789,186.117C179.229,186.587 179.306,187.207 179.093,187.963C178.825,188.917 178.131,190.042 177.039,191.356C175.259,193.498 173.002,195.369 170.273,196.972C169.455,196.479 168.399,196.342 167.095,196.617C165.665,196.92 164.493,197.623 163.578,198.724C163.148,199.241 162.86,199.747 162.7,200.236C160.895,200.73 159.38,200.952 158.152,200.889C156.99,200.829 156.107,200.518 155.527,199.898C155.123,199.466 155.137,198.806 155.404,197.934C155.74,196.84 156.407,195.704 157.393,194.518C159.442,192.052 162.062,189.981 165.247,188.299C168.431,186.619 171.325,185.616 173.935,185.304C175.193,185.153 176.247,185.152 177.096,185.311C177.836,185.45 178.406,185.707 178.789,186.117ZM77.897,171.429L78.337,167.43L81.778,170.016L85.896,168.84L84.543,173.488L86.866,177.018L82.22,176.782L79.544,179.693L78.132,175.546L74.133,173.723L77.897,171.429ZM109.363,164.218L105.19,163.989L99.925,169.899L109.924,179.399L123.147,175.967L123.006,175.623C122.495,174.375 122.162,173.581 122.008,173.241C121.851,172.894 121.494,172.044 120.939,170.692C120.561,169.771 120.296,169.099 120.14,168.677C115.923,168.224 112.331,166.736 109.363,164.218ZM94.514,161.341L96.985,162.165L98.159,168.871L95.955,167.105L95.131,178.694L90.337,172.399L94.514,161.341ZM83.074,163.666L76.485,157.665L83.337,148.607L95.69,149.489L95.338,154.195L88.573,158.167L92.865,160.636L83.074,163.666ZM105.454,158.695L104.571,157.371L105.455,154.343L102.778,155.108L100.544,153.43L100.248,156.018L97.779,157.519L100.396,158.724L101.308,161.429L103.07,159.548L105.768,159.652C105.643,159.339 105.539,159.02 105.454,158.695ZM111.3,158.69C110.237,157.552 109.95,156.567 110.678,155.692C110.992,155.314 111.368,155.131 111.818,155.166C112.355,155.208 112.89,155.573 113.467,156.19C114.496,157.292 115.561,158.856 116.666,160.878C114.364,160.764 112.571,160.049 111.301,158.69L111.3,158.69ZM150.319,118.6C145.883,118.09 141.381,117.829 136.819,117.829C121.682,117.829 107.211,120.704 93.918,125.938L90.279,137.638L96.043,146.373L96.424,144.019L102.984,150.225L112.042,147.785L111.638,149.439C111.743,149.432 111.849,149.428 111.955,149.426C113.94,149.389 115.989,150.432 118.057,152.644C119.496,154.184 121.256,156.682 123.328,160.143C126.356,159.394 130.204,158.076 134.874,156.193C139.823,154.198 144.444,152.249 148.738,150.348C153.057,148.435 157.813,146.634 163.005,144.944C167.703,143.415 171.833,142.455 175.395,142.06C170.24,135.09 166.669,130.54 164.68,128.413C162.836,126.44 161.013,124.995 159.204,124.087C157.48,123.222 155.993,122.846 154.731,123.006C153.447,123.169 152.376,123.453 151.521,123.868C150.704,124.264 150.048,124.752 149.559,125.341C149.364,125.575 149.144,125.67 148.941,125.693C148.715,125.718 148.471,125.662 148.236,125.452C148.061,125.295 147.851,124.977 147.662,124.467C147.657,124.455 147.653,124.444 147.65,124.432C147.214,123.024 147.505,121.679 148.564,120.406C149.106,119.753 149.691,119.151 150.319,118.6ZM75.665,135.043C76.512,134.523 77.364,134.016 78.223,133.519L79.749,134.667L84.19,133.374L82.72,138.431L85.251,142.255L80.22,142.02L77.309,145.137L75.78,140.668L71.456,138.668L75.543,136.168L75.665,135.043ZM153.862,80.436L179.889,104.287L180.419,105.288L180.29,105.606L180.195,106.039L180.189,106.092C174.413,104.148 168.461,102.581 162.366,101.421L161.821,100.432L161.261,99.409L160.126,97.318C160.038,97.141 159.95,96.995 159.89,96.847C157.125,91.759 155.303,86.083 153.862,80.436ZM126.011,79.759C123.982,85.819 121.482,91.818 117.923,97.024L117.894,97.024C117.835,97.141 117.775,97.229 117.687,97.318C117.658,97.406 117.57,97.523 117.452,97.671L117.042,98.249L116.246,99.381L115.61,100.266L115.274,100.721C108.993,101.722 102.856,103.153 96.893,104.984L96.631,104.2L98.278,101.641L126.011,79.759ZM140.465,49.848L140.627,49.852C142.334,49.909 143.98,50.645 145.127,51.938C146.303,53.174 146.951,54.849 146.862,56.556C146.803,58.291 146.038,59.908 144.803,61.086C143.509,62.26 141.863,62.879 140.128,62.819C138.421,62.762 136.775,62.026 135.628,60.733C134.452,59.497 133.804,57.82 133.864,56.115C133.952,54.35 134.717,52.763 135.95,51.587C137.096,50.519 138.581,49.913 140.141,49.852L140.465,49.848ZM212.533,14.49L212.739,14.493C220.061,14.64 222.354,22.1 218.297,30.998C205.399,42.147 189.145,48.573 172.115,49.219L171.713,49.233C178.065,33.087 191.329,20.618 207.857,15.296C209.586,14.744 211.148,14.488 212.533,14.49ZM70.673,9.257C72.254,9.253 74.061,9.626 76.074,10.442C92.16,16.971 104.454,30.352 109.63,46.91C92.543,45.117 76.633,37.47 64.545,25.293C61.224,16.382 63.823,9.274 70.673,9.257Z" style="fill:none;stroke:rgb(255,0,0);stroke-width:1px;"/>
</svg>
