<?xml version="1.0" encoding="UTF-8" standalone="no"?>
<!DOCTYPE svg PUBLIC "-//W3C//DTD SVG 1.1//EN" "http://www.w3.org/Graphics/SVG/1.1/DTD/svg11.dtd">
<svg width="100%" height="100%" viewBox="0 0 1123 794" version="1.1" xmlns="http://www.w3.org/2000/svg" xmlns:xlink="http://www.w3.org/1999/xlink" xml:space="preserve" xmlns:serif="http://www.serif.com/" style="fill-rule:evenodd;clip-rule:evenodd;stroke-linejoin:round;stroke-miterlimit:2;">
    <path d="M144.768,40.265C146.525,40.302 148.11,40.912 149.422,41.91C150.863,43.057 151.891,44.704 152.273,46.587C152.802,46.587 182.859,16.178 188.975,12.177C194.836,8.337 202.831,5.966 211.003,5.93C211.404,5.929 211.807,5.932 212.21,5.942C221.975,6.413 230.502,10.413 234.032,19.412C239.942,32.998 232.913,47.381 232.854,60.821C232.825,76.702 247.707,93.348 235.179,108.435C229.972,113.729 222.856,118.846 215.857,121.903L215.797,121.903L214.909,122.185L213.44,122.66C235.271,137.575 252.544,158.68 262.718,183.428L263.146,184.482L263.635,185.717L264.183,187.147L264.715,188.58L264.956,189.247L265.465,190.694L265.958,192.147L266.475,193.735L266.941,195.223L267.39,196.719L267.822,198.222L268.318,200.033L268.765,201.757L269.14,203.283L269.499,204.816L269.84,206.356L270.097,207.582L270.267,208.418L270.567,209.973L270.849,211.533L271.113,213.1L271.309,214.338L271.419,215.073L271.66,216.779L271.864,218.366L272.05,219.958L272.182,221.204L272.257,221.958L272.366,223.158L272.397,223.517L272.519,225.075L272.624,226.63L272.71,228.177L272.746,228.945L272.807,230.524L272.85,232.102C272.861,232.627 272.87,233.152 272.875,233.676L272.882,235.204L272.88,235.812C272.877,236.27 272.873,236.727 272.866,237.183L272.845,238.277C272.836,238.637 272.827,238.997 272.816,239.357L272.77,240.666L272.707,242.056L272.66,242.916C272.616,243.693 272.566,244.469 272.509,245.242L272.378,246.891L272.235,248.448L272.115,249.632L271.964,250.996L271.773,252.558L271.607,253.813L271.429,255.064L271.176,256.717L270.983,257.897L270.743,259.275L270.405,261.091L270.108,262.584L269.863,263.752L269.428,265.714L269.074,267.212L268.795,268.344L268.42,269.801L268.042,271.21L267.725,272.344L267.361,273.601L266.892,275.16L266.363,276.838L265.822,278.487L265.452,279.56L265.025,280.738L264.863,281.178C264.752,281.514 264.639,281.848 264.5,282.186C263.205,285.714 261.764,289.155 260.177,292.537C259.764,293.448 259.353,294.331 258.911,295.213C258.206,296.654 257.441,298.096 256.707,299.508C256.647,299.565 256.619,299.654 256.588,299.713C255.177,302.329 253.677,304.919 252.09,307.419L251.385,308.513L250.98,309.103L250.316,310.136L249.767,310.943L249.354,311.546L249.354,311.565C249.088,312.005 248.794,312.416 248.472,312.829C247.32,314.5 246.13,316.138 244.904,317.745L244.816,317.86C243.221,319.948 241.565,321.984 239.854,323.976L239.073,324.871L238.079,325.991L237.478,326.655L236.874,327.314L236.265,327.97L235.652,328.622L235.034,329.27L234.413,329.913L233.787,330.553L233.157,331.188L232.523,331.819L231.885,332.446L231.243,333.069L230.597,333.688L229.946,334.303L229.292,334.913L228.634,335.519L227.305,336.718L225.961,337.9L224.601,339.064L223.226,340.21L221.835,341.339L220.43,342.45L219.251,343.358L218.294,344.082L217.12,344.95L216.125,345.672L214.957,346.501L213.924,347.22L212.763,348.011L211.691,348.725L210.538,349.478L209.428,350.187L208.283,350.903L207.134,351.605L205.999,352.284L204.81,352.979L203.686,353.621L202.128,354.488L200.557,355.336L199.718,355.777L198.921,356.19L198.122,356.597L197.319,356.999L196.514,357.396L195.706,357.788L194.894,358.175L194.08,358.556L193.263,358.932L192.443,359.303L191.621,359.668L190.795,360.029L189.967,360.383L189.136,360.733L188.303,361.077L187.466,361.416L186.627,361.749L185.472,362.197L184.208,362.674L183.508,362.932C175.658,365.798 167.471,367.962 159.021,369.348L157.605,369.572L156.197,369.781L154.318,370.035L152.436,370.263L150.549,370.465L148.516,370.653L146.646,370.8L144.654,370.927L142.787,371.02L140.923,371.087L139.53,371.121L138.144,371.142L136.819,371.148L135.472,371.141L135.01,371.136L133.308,371.103L132.116,371.068L131.571,371.048C131.011,371.027 130.452,371.002 129.893,370.974L128.91,370.921L128.07,370.87L126.787,370.783L125.344,370.67L124.595,370.605L123.757,370.528L122.78,370.431L121.461,370.29L119.917,370.108L119.147,370.01L118.622,369.94C61.059,362.253 14.891,318.582 3.474,262.277L3.239,261.09L2.955,259.579L2.689,258.062L2.439,256.54L2.206,255.012L1.989,253.478L1.79,251.939L1.609,250.395L1.444,248.846L1.295,247.267L1.199,246.139L1.071,244.412L1.03,243.782L0.93,242.013L0.887,241.098L0.867,240.61L0.814,239.101L0.782,237.765L0.762,236.427L0.756,235.069L0.761,233.92L0.78,232.504L0.814,231.055L0.874,229.343L0.941,227.924L1.04,226.215L1.16,224.51L1.339,222.399L1.503,220.733L1.754,218.52L1.965,216.867L2.116,215.769L2.36,214.126L2.623,212.491L2.832,211.276L3.004,210.32L3.25,209.022L3.391,208.305L3.7,206.805L3.847,206.115L4.228,204.413L4.525,203.156L4.699,202.441L5.07,200.971L5.248,200.286L5.705,198.602L6.047,197.393L6.255,196.679L6.685,195.245L7.142,193.78L7.652,192.213L8.179,190.657L8.724,189.112L9.286,187.576L9.865,186.051L10.462,184.535L11.076,183.028L11.589,181.809L12.228,180.334L12.884,178.867L13.557,177.41L14.247,175.963L14.953,174.524L15.675,173.096L16.414,171.677L17.169,170.268L17.681,169.334L18.2,168.404L18.727,167.479L19.26,166.559L19.8,165.643L20.347,164.732L20.901,163.825L21.462,162.923L21.995,162.081C24.011,158.918 26.155,155.843 28.418,152.865L29.105,151.969L30.119,150.673L31.137,149.404L32.163,148.156L33.2,146.924L34.249,145.708L35.309,144.506L36.64,143.037L37.833,141.756L39.206,140.322L40.549,138.958L41.845,137.678L43.198,136.376L44.743,134.932L46.31,133.513L47.5,132.464L48.702,131.429L49.916,130.407L51.142,129.4L52.38,128.406L53.63,127.427L54.892,126.462L56.165,125.511L57.449,124.575L58.745,123.654L60.052,122.747L61.369,121.855L62.698,120.978L64.037,120.117L64.936,119.551L65.84,118.992C65.398,118.817 65.044,118.669 64.75,118.492L64.722,118.492C55.281,115.374 48.341,108.758 41.958,101.287C30.577,85.318 46.666,69.791 47.751,53.967C48.723,40.557 42.782,25.706 49.694,12.56C53.84,3.853 62.664,0.531 72.427,0.768C81.014,1.208 89.338,4.267 95.161,8.707C107.57,18.236 119.159,31.999 128.776,45.146C128.776,44.116 130.394,42.292 132.157,41.293C133.276,40.617 134.598,40.263 136.01,40.263L144.597,40.263L144.768,40.265ZM233.106,301.981L233,302.134C230.483,303.681 227.993,305.253 225.474,306.802C223.721,307.892 224.466,310.555 226.475,310.623C225.699,311.543 224.907,312.453 224.102,313.349L223.767,313.36C222.62,313.389 221.681,314.328 221.65,315.475C221.645,315.641 221.659,315.803 221.69,315.957C200.328,338.368 170.192,352.34 136.819,352.34C129.603,352.34 122.539,351.687 115.679,350.436L134.186,327.506L164.772,329.681L159.508,320.888L165.184,312.093L175.802,312.975L170.243,303.566L173.565,295.625L181.093,299.3L186.535,320.035L200.475,303.418L218.297,304.448C218.326,304.8 218.445,305.153 218.65,305.447C219.327,306.417 220.62,306.683 221.621,306.066C224.267,304.448 226.915,302.799 229.591,301.155C230.762,301.438 231.935,301.697 233.106,301.981ZM107.895,341.033L113.364,348.678L110.159,337.003L107.895,341.033ZM104.571,345.769L100.63,345.592L99.878,346.393C99.065,346.123 98.255,345.844 97.449,345.556L97.102,344.532L93.718,342.975L96.925,341.004L97.306,337.591L100.219,339.797L103.749,338.798L102.571,342.768L104.571,345.769ZM85.131,273.303L79.354,270.4L80.178,272.648C80.193,272.692 80.209,272.736 80.222,272.78C81.181,275.96 79.411,279.432 76.27,280.531C74.342,281.206 72.35,280.866 70.84,279.792C71.014,281.638 70.315,283.537 68.77,284.872C67.596,285.888 66.126,286.394 64.662,286.394C62.977,286.394 61.301,285.725 60.085,284.426C60.052,284.392 60.022,284.357 59.993,284.321L57.193,280.956L57.193,288.369C57.193,291.684 54.444,294.418 50.997,294.418C47.547,294.418 44.798,291.684 44.798,288.369L44.798,280.956L41.998,284.321C41.969,284.357 41.939,284.392 41.906,284.426C39.633,286.853 35.746,287.057 33.221,284.874L33.221,284.872C31.676,283.537 30.977,281.638 31.152,279.792C30.457,280.285 29.66,280.624 28.814,280.779C39.992,307.142 60.547,328.582 86.29,340.908L91.19,337.739L92.396,325.651L101.189,333.062L108.66,330.739L105.749,320.828L76.779,308.771L84.691,302.624L82.543,295.744L74.367,291.949L81.926,286.273L82.749,277.684L87.308,281.333L85.131,273.303ZM117.923,310.182L108.954,306.066L117.395,300.861L118.423,291.83L126.187,297.713L135.451,295.037L132.392,305.535L137.657,313.475L127.187,312.975L121.099,319.533L117.923,310.182ZM158.478,319.476L151.155,307.801L156.126,310.066L158.478,319.476ZM156.891,305.007L159.832,303.212L160.184,300.067L162.889,302.125L166.096,301.183L165.036,304.83L166.861,307.595L163.243,307.419L161.125,309.711L160.007,306.448L156.891,305.007ZM169.832,294.508L163.95,296.566L155.684,289.92L154.539,300.772L148.686,303.77L158.714,273.038L151.862,274.421L157.803,267.421L179.124,269.362L177.948,279.302L160.979,290.508L169.832,294.508ZM223.767,299.771C222.62,300.476 221.444,301.212 220.268,301.948L218.827,299.713C219.267,299.448 219.709,299.183 220.151,298.889C221.356,299.183 222.561,299.477 223.767,299.771ZM91.073,297.625L88.014,301.654L94.543,297.832L91.073,297.625ZM217.38,266.332L210.092,286.304L214.679,293.332C214.886,293.39 215.092,293.448 215.297,293.478C215.003,293.008 214.709,292.537 214.444,292.068C213.827,291.067 214.15,289.772 215.209,289.213C216.208,288.655 217.503,289.009 218.12,289.979C219.121,291.624 220.12,293.244 221.091,294.862C222.326,295.154 223.533,295.448 224.738,295.744C223.798,294.214 222.885,292.712 221.975,291.213C221.356,290.183 221.681,288.89 222.737,288.331C223.738,287.802 225.032,288.125 225.65,289.124C227.268,291.772 228.915,294.449 230.531,297.123C231.737,297.39 232.973,297.682 234.178,297.978C232.591,295.39 231.002,292.802 229.414,290.214C228.325,288.419 230.296,286.304 232.178,287.303C234.692,288.656 237.18,290.008 239.692,291.362L239.958,290.875C239.678,289.929 239.398,288.992 239.12,288.037C236.355,286.567 233.619,285.068 230.856,283.596C229.854,283.068 229.414,281.773 229.914,280.745C230.414,279.657 231.678,279.244 232.737,279.803C234.297,280.656 235.855,281.479 237.414,282.332C237.06,281.125 236.708,279.949 236.355,278.744C234.65,277.832 232.973,276.95 231.296,276.039C230.531,275.611 230.111,274.771 230.167,273.939C228.583,274.223 227.227,274.313 226.099,274.213C224.313,274.055 222.983,273.73 222.103,273.267C221.225,272.805 220.287,272.05 219.296,270.99C218.123,269.735 217.478,268.184 217.38,266.332ZM202.504,293.509L195.447,293.184L191.358,297.567L189.212,291.301L183.182,288.507L188.858,285.008L189.565,278.948L194.77,282.891L201.006,281.098L198.946,288.154L202.504,293.509ZM92.631,293.39L89.278,293.213L87.308,295.331L86.279,292.331L83.396,291.007L86.132,289.332L86.455,286.419L88.926,288.302L91.926,287.449L90.927,290.83L92.631,293.39ZM95.661,275.126L103.66,275.774L102.836,292.331L98.924,294.566L95.807,289.772L98.543,281.596L89.338,283.271L95.661,275.126ZM253.202,249.444C252.77,249.477 252.357,249.473 251.962,249.435C252.079,249.67 252.106,249.942 252.029,250.252C251.939,250.614 251.738,250.902 251.422,251.113C251.401,251.126 251.38,251.139 251.358,251.15C241.172,256.436 234.603,259.982 231.653,261.79C228.78,263.55 226.804,265.06 225.741,266.339C225.241,266.94 225.023,267.404 225.382,267.788C225.565,267.984 225.916,268.067 226.404,268.128C227.4,268.254 228.864,268.166 230.795,267.881C231.822,267.73 232.922,267.519 234.095,267.249C234.322,267.024 234.607,266.848 234.943,266.745C235.331,266.633 235.722,266.645 236.082,266.754C238.189,266.191 240.502,265.46 243.021,264.562C243.07,264.545 243.12,264.533 243.171,264.527C243.574,264.482 243.836,264.622 243.997,264.795C244.156,264.964 244.273,265.221 244.213,265.582C244.2,265.889 244.158,266.487 244.087,267.374L243.977,268.736C243.95,269.35 243.659,269.702 243.213,269.857L242.758,270.028C243.358,270.693 243.489,271.702 243.059,272.538L240.325,277.569C240.678,278.744 241.03,279.949 241.383,281.125C242.236,279.569 243.09,278.039 243.912,276.479C244.5,275.42 245.766,275.096 246.796,275.714L246.825,275.733C249.918,267.378 252.086,258.573 253.202,249.444ZM98.806,255.804L106.454,245.776L120.717,247.071L112.218,252.716L135.51,262.245L139.303,278.155L128.657,280.979L104.542,260.512L103.66,269.596L100.984,266.009L104.69,255.07L98.806,255.804ZM33.617,275.518L35.978,260.906L44.798,256.088L45.284,265.759L33.617,275.518ZM68.374,275.516L56.423,266.816L57.193,256.088L66.785,261.932L68.374,275.516ZM234.513,272.856L234.38,272.895L234.65,273.038L234.586,272.834L234.513,272.856ZM238.831,271.452C238.76,271.58 238.689,271.708 238.618,271.833L238.536,271.553L238.831,271.452ZM95.955,263.598C95.955,263.598 93.726,264.232 93.726,264.232C94.485,265.959 94.443,268.037 93.413,269.845L96.72,269.979C96.72,269.979 94.896,267.246 94.896,267.246L95.955,263.598ZM217.367,265.874C217.366,265.705 217.369,265.534 217.377,265.36C217.453,263.672 217.939,262.09 218.839,260.615C216.564,260.741 214.711,260.295 213.274,259.313C211.022,261.455 208.596,263.456 205.996,265.315C203.527,267.081 201.049,268.616 198.562,269.92L217.367,265.874ZM243.125,269.154L243.312,269.361C243.178,269.361 243.049,269.321 242.94,269.247L242.979,269.233C243.034,269.214 243.083,269.188 243.125,269.154ZM243.971,268.789L243.977,268.74C243.974,268.789 243.965,268.836 243.952,268.881L243.971,268.789ZM191.618,266.409L190.694,265.661C190.799,265.222 191.11,264.719 191.595,264.135C192.924,262.535 195.046,260.712 197.953,258.655C200.69,256.719 204.993,254.078 210.86,250.73C210.527,252.106 210.413,253.378 210.512,254.543C206.918,258.025 202.871,261.069 198.372,263.678C195.685,265.236 193.621,266.139 192.167,266.357C191.97,266.387 191.786,266.405 191.618,266.409ZM169.743,249.334L176.007,252.188L179.241,263.569L169.743,249.334ZM137.657,250.424L144.568,246.216L145.391,238.864L151.685,243.658L159.242,241.481L156.745,250.011L161.037,256.48L152.508,256.069L147.568,261.394L144.979,253.804L137.657,250.424ZM189.146,254.213L184.8,253.892L181.418,258.158L184.045,260.283C184.561,259.451 185.164,258.62 185.854,257.79C186.889,256.544 187.987,255.352 189.146,254.213ZM93.065,254.373C92.686,254.936 92.218,255.437 91.68,255.854L93.838,257.628C93.838,257.628 93.065,254.373 93.065,254.373ZM253.854,227.846C243.115,233.412 228.738,240.847 222.659,244.159C222.722,247.042 221.108,250.545 217.718,254.623C217.718,254.623 217.644,254.712 217.644,254.712C218.27,254.939 219.091,254.986 220.1,254.89C222.453,254.665 225.725,253.624 229.924,251.785C233.35,249.847 238.413,247.134 245.113,243.645C245.118,243.642 245.124,243.639 245.13,243.636C245.813,243.305 246.404,243.417 246.908,243.956L247.487,244.576C247.604,243.316 248.235,242.161 249.414,241.128C250.643,240.051 252.084,239.419 253.74,239.234C253.828,239.224 253.916,239.216 254.003,239.209C254.051,237.84 254.074,236.465 254.074,235.085C254.074,232.652 254,230.236 253.854,227.846ZM189.181,246.452L192.158,251.492C192.986,250.804 193.839,250.139 194.72,249.498C196.898,247.91 199.766,246.063 203.324,243.958C202.819,243.835 202.354,243.67 201.929,243.465C201.098,243.064 200.295,242.455 199.526,241.631C198.87,240.93 198.341,240.092 197.943,239.116C195.747,239.391 193.746,239.385 191.939,239.103L189.181,246.452ZM177.771,247.63L179.977,246.275L180.242,243.924L182.271,245.453L184.683,244.775L183.889,247.511L185.242,249.569L182.534,249.452L180.947,251.158L180.094,248.718L177.771,247.63ZM19.892,243.913L30.396,239.854L39.892,245.33L30.696,251.158L20.154,246.913C20.055,245.921 19.967,244.919 19.892,243.913ZM85.767,245.33L71.954,250.362L62.099,245.33L72.204,240.111L85.767,245.33ZM189.24,238.427C187.319,237.742 185.675,236.663 184.305,235.198C181.854,232.576 180.809,229.667 181.143,226.479C181.367,224.341 182.181,222.121 183.597,219.824L183.597,219.824C181.521,220.316 179.725,220.572 178.209,220.596C174.584,220.652 171.409,219.64 168.688,217.569C167.456,216.862 166.191,215.819 164.897,214.435C163.254,212.678 162.35,210.521 162.192,207.96C162.165,207.521 162.154,207.086 162.16,206.657C161.932,206.852 161.7,207.042 161.466,207.225C160.216,208.206 158.841,209.028 157.341,209.691C156.115,210.232 154.866,210.454 153.594,210.358L155.861,214.22L145.892,213.72L140.422,219.337L153.743,230.337L177.446,224.453L168.771,246.775L175.154,243.424L175.802,234.426L183.007,240.159L189.24,238.427ZM90.909,245.299L90.892,245.226C90.821,245.263 90.748,245.297 90.675,245.33C90.767,245.374 90.859,245.418 90.949,245.466L90.909,245.299ZM136.951,215.603L134.158,214.25L133.128,238.953L124.099,244.982L114.747,230.777L121.159,213.484L107.513,216.397L113.805,208.336L131.216,209.631L135.804,211.22L136.951,215.603ZM108.423,237.6L102.159,237.308L98.513,241.218L96.601,235.629L91.221,233.158L96.278,230.041L96.897,224.63L101.543,228.16L107.101,226.542L105.276,232.835L108.423,237.6ZM191.872,131.55C192.586,132.636 193.337,133.803 194.126,135.049C197.997,141.166 200.778,145.393 202.47,147.728C206.16,148.612 209.234,150.374 211.697,153.008L211.697,153.008C212.712,154.095 213.368,155.441 213.656,157.052C213.955,158.73 213.558,160.229 212.463,161.547C211.356,162.879 209.914,163.484 208.135,163.353C206.439,163.228 204.803,162.36 203.252,160.702C201.702,159.044 200.138,157.235 198.561,155.275C195.359,155.777 191.192,157.069 186.057,159.142C180.669,161.316 175.528,163.582 170.636,165.94C165.712,168.312 160.202,170.606 154.105,172.822C148.42,174.889 143.396,176.215 139.035,176.806C142.536,182.704 149.124,191.244 152.259,194.598L152.421,194.77L154.274,194.25L153.677,196.034C158.313,200.451 162.015,201.125 164.867,197.693C164.922,197.627 164.978,197.57 165.036,197.522C165.526,196.733 166.06,195.992 166.638,195.297C167.34,194.453 168.005,193.872 168.619,193.54C169.282,193.181 169.906,193.088 170.486,193.224C174.471,192.095 180.929,189.811 189.86,186.374C192.74,185.257 195.187,185.789 197.208,187.951C198.207,189.02 198.734,190.355 198.773,191.962C198.812,193.589 198.449,194.814 197.751,195.654C197.636,195.792 197.471,195.878 197.292,195.892C195.859,196.008 194.368,196.831 192.791,198.305C191.116,199.871 189.607,201.664 188.265,203.684C186.884,205.762 185.343,207.893 183.643,210.079C182.344,211.746 181.096,213.206 179.896,214.46C182.818,214.358 186.369,213.61 190.55,212.23C192.227,210.976 194.063,209.905 196.058,209.017C200.106,207.215 204.108,206.466 208.061,206.76C212.097,207.061 215.275,208.473 217.607,210.968C217.775,211.148 217.937,211.329 218.092,211.51L230.098,208.24C231.082,207.972 232.098,208.553 232.366,209.537L233.337,213.103C233.606,214.087 233.024,215.103 232.04,215.371L220.962,218.389C220.983,218.891 220.969,219.4 220.919,219.916C220.612,223.106 219.239,226.185 216.78,229.144C213.595,232.976 209.311,235.818 203.92,237.656C204.684,238.418 205.82,238.804 207.305,238.858C209.386,238.933 212.104,238.364 215.465,237.173C222.042,233.634 240.886,223.962 252.804,217.786C247.263,180.373 224.021,148.695 191.872,131.55ZM33.617,215.144L45.803,224.221L44.798,234.574L35.216,230.049L33.617,215.144ZM68.374,215.144L65.894,229.603L57.193,234.572L57.247,224.607L68.374,215.144ZM214.346,216.148C214.86,216.697 214.956,217.42 214.708,218.302C214.403,219.383 213.619,220.659 212.383,222.147C210.365,224.574 207.807,226.692 204.711,228.505C203.8,227.939 202.619,227.781 201.156,228.091C199.567,228.427 198.265,229.208 197.248,230.431C196.76,231.019 196.436,231.593 196.263,232.147C194.205,232.713 192.478,232.967 191.08,232.895C189.748,232.827 188.738,232.466 188.072,231.754C187.602,231.251 187.604,230.483 187.916,229.465C188.296,228.227 189.051,226.94 190.167,225.596C192.478,222.816 195.431,220.481 199.022,218.585C202.613,216.69 205.876,215.56 208.819,215.208C210.244,215.037 211.437,215.036 212.398,215.217C213.25,215.378 213.905,215.676 214.346,216.147L214.346,216.148ZM81.367,214.368L80.453,215.505C80.529,216.287 80.46,217.092 80.222,217.88C80.209,217.926 80.195,217.97 80.178,218.015L78.666,222.142L85.066,218.437C86.073,217.855 87.185,217.602 88.282,217.649L88.425,215.19L81.367,214.368ZM64.079,143.141L70.546,145.608L72.309,151.812L72.104,167.459L61.28,174.605L73.22,179.604L77.192,191.927L84.455,182.341L94.748,183.163L94.574,185.811L78.604,196.25L83.984,199.367L80.191,200.339L72.897,194.369L71.956,203.573L68.783,205.8L68.77,205.788C66.245,203.605 62.358,203.809 60.085,206.234C60.052,206.269 60.022,206.305 59.993,206.34L57.193,209.706L57.193,202.293C57.193,198.979 54.444,196.242 50.997,196.242C47.547,196.242 44.798,198.979 44.798,202.293L44.798,209.706L41.998,206.34C41.969,206.305 41.939,206.269 41.906,206.234C39.633,203.809 35.746,203.605 33.221,205.788C31.676,207.124 30.977,209.024 31.152,210.871C29.641,209.796 27.649,209.456 25.722,210.131C22.578,211.23 20.81,214.7 21.769,217.88C21.783,217.926 21.796,217.97 21.813,218.015L23.325,222.142L20.466,220.486C24.353,189.233 40.563,161.778 64.079,143.141ZM85.514,207.014L88.102,200.839L96.601,204.074L99.043,213.808L89.278,205.925L89.132,206.044L88.308,210.955L85.514,207.014ZM82.514,210.544L80.985,208.221L81.867,205.193L79.19,205.955L76.956,204.28L76.662,206.868L74.192,208.398L76.81,209.574L77.123,210.504C77.62,210.767 78.073,211.095 78.475,211.475L79.486,210.398L82.514,210.544ZM144.221,202.837L142.862,203.219L140.185,201.192L139.834,204.309L136.892,206.132L140.01,207.573L141.127,210.807L143.215,208.544L146.862,208.692L145.039,205.955L145.466,204.487C145.015,203.899 144.6,203.35 144.221,202.837ZM169.258,206.553C168.33,205.56 168.124,204.312 168.586,202.818C169.083,201.21 170.019,199.737 171.384,198.394C174.417,197.548 178.383,196.298 183.283,194.64C182.908,195.126 182.511,195.649 182.092,196.211C181.103,197.539 180.236,198.698 179.489,199.688C178.745,200.675 177.936,201.717 177.063,202.813C176.214,203.879 175.434,204.731 174.722,205.366C174.017,205.993 173.297,206.531 172.559,206.98C171.938,207.357 171.356,207.528 170.801,207.456C170.251,207.384 169.743,207.071 169.258,206.553ZM127.882,176.65L122.306,192.398L129.863,203.515L134.01,201.427L135.422,189.809L135.88,190.234C135.343,189.133 134.948,188.332 134.695,187.831C134.415,187.28 133.98,186.284 133.391,184.845C132.816,183.44 132.442,182.546 132.268,182.163C132.091,181.774 131.691,180.819 131.067,179.3C130.628,178.229 130.323,177.458 130.152,176.99C129.377,176.908 128.62,176.795 127.882,176.65ZM103.629,192.104L104.248,186.693L108.894,190.222L114.453,188.605L112.601,194.897L115.777,199.663L109.482,199.367L105.835,203.281L103.923,197.691L98.543,195.22L103.629,192.104ZM77.897,171.429L78.337,167.43L81.778,170.016L85.896,168.84L84.543,173.488L86.866,177.018L82.22,176.782L79.544,179.693L78.132,175.546L74.133,173.723L77.897,171.429ZM113.412,164.441L105.19,163.989L99.925,169.899L109.924,179.399L124.327,175.661C121.205,174.511 118.487,172.695 116.17,170.217C114.545,168.478 113.63,166.55 113.412,164.441ZM94.514,161.341L96.985,162.165L98.159,168.871L95.955,167.105L95.131,178.694L90.337,172.399L94.514,161.341ZM120.094,165.895C118.86,164.575 118.547,163.43 119.391,162.415C119.763,161.967 120.21,161.752 120.743,161.794C121.363,161.843 121.984,162.259 122.65,162.971C123.833,164.237 125.058,166.044 126.33,168.388C123.646,168.282 121.562,167.466 120.094,165.895L120.094,165.895ZM163.906,120.979C155.204,118.919 146.138,117.829 136.819,117.829C121.682,117.829 107.211,120.704 93.918,125.938L90.279,137.638L96.043,146.373L96.424,144.019L102.984,150.225L112.042,147.785L109.747,157.196L113.371,163.03C113.455,161.267 114.068,159.702 115.206,158.332C116.741,156.486 118.639,155.548 120.892,155.506C123.104,155.464 125.386,156.632 127.691,159.098C129.313,160.834 131.297,163.655 133.637,167.567C137.053,166.727 141.403,165.239 146.688,163.108C152.253,160.864 157.449,158.673 162.278,156.536C167.131,154.386 172.476,152.362 178.31,150.463C183.649,148.725 188.334,147.642 192.367,147.208C186.521,139.303 182.476,134.147 180.228,131.742C178.147,129.516 176.09,127.886 174.048,126.861C172.091,125.879 170.403,125.456 168.972,125.638C167.518,125.823 166.305,126.145 165.337,126.615C164.407,127.066 163.66,127.622 163.103,128.292C162.901,128.535 162.674,128.635 162.464,128.658C162.23,128.685 161.978,128.626 161.736,128.409C161.544,128.237 161.318,127.889 161.112,127.334C161.107,127.322 161.103,127.31 161.1,127.299C160.618,125.743 160.942,124.257 162.112,122.85C162.67,122.178 163.268,121.555 163.906,120.979ZM83.074,163.666L76.485,157.665L83.337,148.607L95.69,149.489L95.338,154.195L88.573,158.167L92.865,160.636L83.074,163.666ZM106.1,159.665L103.07,159.548L101.308,161.429L100.396,158.724L97.779,157.519L100.248,156.018L100.544,153.43L102.778,155.108L105.455,154.343L104.571,157.371L106.1,159.665ZM75.665,135.043C76.512,134.523 77.364,134.016 78.223,133.519L79.749,134.667L84.19,133.374L82.72,138.431L85.251,142.255L80.22,142.02L77.309,145.137L75.78,140.668L71.456,138.668L75.543,136.168L75.665,135.043ZM153.862,80.436L179.889,104.287L180.419,105.288L180.29,105.606L180.195,106.039L180.189,106.092C174.413,104.148 168.461,102.581 162.366,101.421L161.821,100.432L161.261,99.409L160.126,97.318C160.038,97.141 159.95,96.995 159.89,96.847C157.125,91.759 155.303,86.083 153.862,80.436ZM126.011,79.759C123.982,85.819 121.482,91.818 117.923,97.024L117.894,97.024C117.835,97.141 117.775,97.229 117.687,97.318C117.658,97.406 117.57,97.523 117.452,97.671L117.042,98.249L116.246,99.381L115.61,100.266L115.274,100.721C108.993,101.722 102.856,103.153 96.893,104.984L96.631,104.2L98.278,101.641L126.011,79.759ZM140.465,49.848L140.627,49.852C142.334,49.909 143.98,50.645 145.127,51.938C146.303,53.174 146.951,54.849 146.862,56.556C146.803,58.291 146.038,59.908 144.803,61.086C143.509,62.26 141.863,62.879 140.128,62.819C138.421,62.762 136.775,62.026 135.628,60.733C134.452,59.497 133.804,57.82 133.864,56.115C133.952,54.35 134.717,52.763 135.95,51.587C137.096,50.519 138.581,49.913 140.141,49.852L140.465,49.848ZM212.533,14.49L212.739,14.493C220.061,14.64 222.354,22.1 218.297,30.998C205.399,42.147 189.145,48.573 172.115,49.219L171.713,49.233C178.065,33.087 191.329,20.618 207.857,15.296C209.586,14.744 211.148,14.488 212.533,14.49ZM70.673,9.257C72.254,9.253 74.061,9.626 76.074,10.442C92.16,16.971 104.454,30.352 109.63,46.91C92.543,45.117 76.633,37.47 64.545,25.293C61.224,16.382 63.823,9.274 70.673,9.257Z" style="fill:none;stroke:rgb(255,0,0);stroke-width:1px;"/>
</svg>
