<?xml version="1.0" encoding="UTF-8" standalone="no"?>
<!DOCTYPE svg PUBLIC "-//W3C//DTD SVG 1.1//EN" "http://www.w3.org/Graphics/SVG/1.1/DTD/svg11.dtd">
<svg width="100%" height="100%" viewBox="0 0 1123 794" version="1.1" xmlns="http://www.w3.org/2000/svg" xmlns:xlink="http://www.w3.org/1999/xlink" xml:space="preserve" xmlns:serif="http://www.serif.com/" style="fill-rule:evenodd;clip-rule:evenodd;stroke-linejoin:round;stroke-miterlimit:2;">
    <path d="M144.768,40.265C146.525,40.302 148.11,40.912 149.422,41.91C150.863,43.057 151.891,44.704 152.273,46.587C152.802,46.587 182.859,16.178 188.975,12.177C194.836,8.337 202.831,5.966 211.003,5.93C211.404,5.929 211.807,5.932 212.21,5.942C221.975,6.413 230.502,10.413 234.032,19.412C239.942,32.998 232.913,47.381 232.854,60.821C232.825,76.702 247.707,93.348 235.179,108.435C229.972,113.729 222.856,118.846 215.857,121.903L215.797,121.903L214.909,122.185L213.44,122.66C235.271,137.575 252.544,158.68 262.718,183.428L263.146,184.482L263.635,185.717L264.183,187.147L264.715,188.58L264.956,189.247L265.465,190.694L265.958,192.147L266.475,193.735L266.941,195.223L267.39,196.719L267.822,198.222L268.318,200.033L268.765,201.757L269.14,203.283L269.499,204.816L269.84,206.356L270.097,207.582L270.267,208.418L270.567,209.973L270.849,211.533L271.113,213.1L271.309,214.338L271.419,215.073L271.66,216.779L271.864,218.366L272.05,219.958L272.182,221.204L272.257,221.958L272.366,223.158L272.397,223.517L272.519,225.075L272.624,226.63L272.71,228.177L272.746,228.945L272.807,230.524L272.85,232.102C272.861,232.627 272.87,233.152 272.875,233.676L272.882,235.204L272.88,235.812C272.877,236.27 272.873,236.727 272.866,237.183L272.845,238.277C272.836,238.637 272.827,238.997 272.816,239.357L272.77,240.666L272.707,242.056L272.66,242.916C272.616,243.693 272.566,244.469 272.509,245.242L272.378,246.891L272.235,248.448L272.115,249.632L271.964,250.996L271.773,252.558L271.607,253.813L271.429,255.064L271.176,256.717L270.983,257.897L270.743,259.275L270.405,261.091L270.108,262.584L269.863,263.752L269.428,265.714L269.074,267.212L268.795,268.344L268.42,269.801L268.042,271.21L267.725,272.344L267.361,273.601L266.892,275.16L266.363,276.838L265.822,278.487L265.452,279.56L265.025,280.738L264.863,281.178C264.752,281.514 264.639,281.848 264.5,282.186C263.205,285.714 261.764,289.155 260.177,292.537C259.764,293.448 259.353,294.331 258.911,295.213C258.206,296.654 257.441,298.096 256.707,299.508C256.647,299.565 256.619,299.654 256.588,299.713C255.177,302.329 253.677,304.919 252.09,307.419L251.385,308.513L250.98,309.103L250.316,310.136L249.767,310.943L249.354,311.546L249.354,311.565C249.088,312.005 248.794,312.416 248.472,312.829C247.32,314.5 246.13,316.138 244.904,317.745L244.816,317.86C243.221,319.948 241.565,321.984 239.854,323.976L239.073,324.871L238.079,325.991L237.478,326.655L236.874,327.314L236.265,327.97L235.652,328.622L235.034,329.27L234.413,329.913L233.787,330.553L233.157,331.188L232.523,331.819L231.885,332.446L231.243,333.069L230.597,333.688L229.946,334.303L229.292,334.913L228.634,335.519L227.305,336.718L225.961,337.9L224.601,339.064L223.226,340.21L221.835,341.339L220.43,342.45L219.251,343.358L218.294,344.082L217.12,344.95L216.125,345.672L214.957,346.501L213.924,347.22L212.763,348.011L211.691,348.725L210.538,349.478L209.428,350.187L208.283,350.903L207.134,351.605L205.999,352.284L204.81,352.979L203.686,353.621L202.128,354.488L200.557,355.336L199.718,355.777L198.921,356.19L198.122,356.597L197.319,356.999L196.514,357.396L195.706,357.788L194.894,358.175L194.08,358.556L193.263,358.932L192.443,359.303L191.621,359.668L190.795,360.029L189.967,360.383L189.136,360.733L188.303,361.077L187.466,361.416L186.627,361.749L185.472,362.197L184.208,362.674L183.508,362.932C175.658,365.798 167.471,367.962 159.021,369.348L157.605,369.572L156.197,369.781L154.318,370.035L152.436,370.263L150.549,370.465L148.516,370.653L146.646,370.8L144.654,370.927L142.787,371.02L140.923,371.087L139.53,371.121L138.144,371.142L136.819,371.148L135.472,371.141L135.01,371.136L133.308,371.103L132.116,371.068L131.571,371.048C131.011,371.027 130.452,371.002 129.893,370.974L128.91,370.921L128.07,370.87L126.787,370.783L125.344,370.67L124.595,370.605L123.757,370.528L122.78,370.431L121.461,370.29L119.917,370.108L119.147,370.01L118.622,369.94C61.059,362.253 14.891,318.582 3.474,262.277L3.239,261.09L2.955,259.579L2.689,258.062L2.439,256.54L2.206,255.012L1.989,253.478L1.79,251.939L1.609,250.395L1.444,248.846L1.295,247.267L1.199,246.139L1.071,244.412L1.03,243.782L0.93,242.013L0.887,241.098L0.867,240.61L0.814,239.101L0.782,237.765L0.762,236.427L0.756,235.069L0.761,233.92L0.78,232.504L0.814,231.055L0.874,229.343L0.941,227.924L1.04,226.215L1.16,224.51L1.339,222.399L1.503,220.733L1.754,218.52L1.965,216.867L2.116,215.769L2.36,214.126L2.623,212.491L2.832,211.276L3.004,210.32L3.25,209.022L3.391,208.305L3.7,206.805L3.847,206.115L4.228,204.413L4.525,203.156L4.699,202.441L5.07,200.971L5.248,200.286L5.705,198.602L6.047,197.393L6.255,196.679L6.685,195.245L7.142,193.78L7.652,192.213L8.179,190.657L8.724,189.112L9.286,187.576L9.865,186.051L10.462,184.535L11.076,183.028L11.589,181.809L12.228,180.334L12.884,178.867L13.557,177.41L14.247,175.963L14.953,174.524L15.675,173.096L16.414,171.677L17.169,170.268L17.681,169.334L18.2,168.404L18.727,167.479L19.26,166.559L19.8,165.643L20.347,164.732L20.901,163.825L21.462,162.923L21.995,162.081C24.011,158.918 26.155,155.843 28.418,152.865L29.105,151.969L30.119,150.673L31.137,149.404L32.163,148.156L33.2,146.924L34.249,145.708L35.309,144.506L36.64,143.037L37.833,141.756L39.206,140.322L40.549,138.958L41.845,137.678L43.198,136.376L44.743,134.932L46.31,133.513L47.5,132.464L48.702,131.429L49.916,130.407L51.142,129.4L52.38,128.406L53.63,127.427L54.892,126.462L56.165,125.511L57.449,124.575L58.745,123.654L60.052,122.747L61.369,121.855L62.698,120.978L64.037,120.117L64.936,119.551L65.84,118.992C65.398,118.817 65.044,118.669 64.75,118.492L64.722,118.492C55.281,115.374 48.341,108.758 41.958,101.287C30.577,85.318 46.666,69.791 47.751,53.967C48.723,40.557 42.782,25.706 49.694,12.56C53.84,3.853 62.664,0.531 72.427,0.768C81.014,1.208 89.338,4.267 95.161,8.707C107.57,18.236 119.159,31.999 128.776,45.146C128.776,44.116 130.394,42.292 132.157,41.293C133.276,40.617 134.598,40.263 136.01,40.263L144.597,40.263L144.768,40.265ZM233.106,301.981L233,302.134C230.483,303.681 227.993,305.253 225.474,306.802C223.721,307.892 224.466,310.555 226.475,310.623C225.699,311.543 224.907,312.453 224.102,313.349L223.767,313.36C222.62,313.389 221.681,314.328 221.65,315.475C221.645,315.641 221.659,315.803 221.69,315.957C200.328,338.368 170.192,352.34 136.819,352.34C129.603,352.34 122.539,351.687 115.679,350.436L134.186,327.506L164.772,329.681L159.508,320.888L165.184,312.093L175.802,312.975L170.243,303.566L173.565,295.625L181.093,299.3L186.535,320.035L200.475,303.418L218.297,304.448C218.326,304.8 218.445,305.153 218.65,305.447C219.327,306.417 220.62,306.683 221.621,306.066C224.267,304.448 226.915,302.799 229.591,301.155C230.762,301.438 231.935,301.697 233.106,301.981ZM107.895,341.033L113.364,348.678L110.159,337.003L107.895,341.033ZM104.571,345.769L100.63,345.592L99.878,346.393C99.065,346.123 98.255,345.844 97.449,345.556L97.102,344.532L93.718,342.975L96.925,341.004L97.306,337.591L100.219,339.797L103.749,338.798L102.571,342.768L104.571,345.769ZM85.131,273.303L79.354,270.4L80.178,272.648C80.193,272.692 80.209,272.736 80.222,272.78C81.181,275.96 79.411,279.432 76.27,280.531C74.342,281.206 72.35,280.866 70.84,279.792C71.014,281.638 70.315,283.537 68.77,284.872C67.596,285.888 66.126,286.394 64.662,286.394C62.977,286.394 61.301,285.725 60.085,284.426C60.052,284.392 60.022,284.357 59.993,284.321L57.193,280.956L57.193,288.369C57.193,291.684 54.444,294.418 50.997,294.418C47.547,294.418 44.798,291.684 44.798,288.369L44.798,280.956L41.998,284.321C41.969,284.357 41.939,284.392 41.906,284.426C39.633,286.853 35.746,287.057 33.221,284.874L33.221,284.872C31.676,283.537 30.977,281.638 31.152,279.792C30.457,280.285 29.66,280.624 28.814,280.779C39.992,307.142 60.547,328.582 86.29,340.908L91.19,337.739L92.396,325.651L101.189,333.062L108.66,330.739L105.749,320.828L76.779,308.771L84.691,302.624L82.543,295.744L74.367,291.949L81.926,286.273L82.749,277.684L87.308,281.333L85.131,273.303ZM117.923,310.182L108.954,306.066L117.395,300.861L118.423,291.83L126.187,297.713L135.451,295.037L132.392,305.535L137.657,313.475L127.187,312.975L121.099,319.533L117.923,310.182ZM158.478,319.476L151.155,307.801L156.126,310.066L158.478,319.476ZM156.891,305.007L159.832,303.212L160.184,300.067L162.889,302.125L166.096,301.183L165.036,304.83L166.861,307.595L163.243,307.419L161.125,309.711L160.007,306.448L156.891,305.007ZM169.832,294.508L163.95,296.566L155.684,289.92L154.539,300.772L148.686,303.77L158.714,273.038L151.862,274.421L157.803,267.421L179.124,269.362L177.948,279.302L160.979,290.508L169.832,294.508ZM223.767,299.771C222.62,300.476 221.444,301.212 220.268,301.948L218.827,299.713C219.267,299.448 219.709,299.183 220.151,298.889C221.356,299.183 222.561,299.477 223.767,299.771ZM91.073,297.625L88.014,301.654L94.543,297.832L91.073,297.625ZM216.95,267.513C217.214,268.386 217.659,269.156 218.282,269.823C219.166,270.768 220.001,271.442 220.79,271.845C221.578,272.249 222.777,272.504 224.386,272.612C225.996,272.721 228.111,272.391 230.731,271.624C231.698,271.341 232.758,271.001 233.911,270.605C234.15,271.422 234.393,272.23 234.65,273.038C234.149,272.774 233.649,272.509 233.179,272.244C232.12,271.685 230.856,272.098 230.356,273.186C229.885,274.216 230.296,275.48 231.296,276.039C232.973,276.95 234.65,277.832 236.355,278.744C236.708,279.949 237.06,281.125 237.414,282.332C235.855,281.479 234.297,280.656 232.737,279.803C231.678,279.244 230.414,279.657 229.914,280.745C229.414,281.773 229.854,283.068 230.856,283.596C233.619,285.068 236.355,286.567 239.12,288.037C239.398,288.992 239.678,289.929 239.958,290.875L239.692,291.362C237.18,290.008 234.692,288.656 232.178,287.303C230.296,286.304 228.325,288.419 229.414,290.214C231.002,292.802 232.591,295.39 234.178,297.978C232.973,297.682 231.737,297.39 230.531,297.123C228.915,294.449 227.268,291.772 225.65,289.124C225.032,288.125 223.738,287.802 222.737,288.331C221.681,288.89 221.356,290.183 221.975,291.213C222.885,292.712 223.798,294.214 224.738,295.744C223.533,295.448 222.326,295.154 221.091,294.862C220.12,293.244 219.121,291.624 218.12,289.979C217.503,289.009 216.208,288.655 215.209,289.213C214.15,289.772 213.827,291.067 214.444,292.068C214.709,292.537 215.003,293.008 215.297,293.478C215.092,293.448 214.886,293.39 214.679,293.332L210.092,286.304L216.95,267.513ZM202.504,293.509L195.447,293.184L191.358,297.567L189.212,291.301L183.182,288.507L188.858,285.008L189.565,278.948L194.77,282.891L201.006,281.098L198.946,288.154L202.504,293.509ZM92.631,293.39L89.278,293.213L87.308,295.331L86.279,292.331L83.396,291.007L86.132,289.332L86.455,286.419L88.926,288.302L91.926,287.449L90.927,290.83L92.631,293.39ZM95.661,275.126L103.66,275.774L102.836,292.331L98.924,294.566L95.807,289.772L98.543,281.596L89.338,283.271L95.661,275.126ZM253.461,247.143C252.442,257.094 250.178,266.677 246.825,275.733L246.796,275.714C245.766,275.096 244.5,275.42 243.912,276.479C243.09,278.039 242.236,279.569 241.383,281.125C241.03,279.949 240.678,278.744 240.325,277.569L243.059,272.538C243.589,271.508 243.266,270.215 242.265,269.627C241.266,269.01 239.973,269.331 239.414,270.392C239.149,270.861 238.885,271.362 238.618,271.833C238.361,270.949 238.087,270.066 237.82,269.183C238.721,268.839 239.664,268.47 240.648,268.076C240.854,268.002 240.963,267.826 240.976,267.547C240.976,267.547 241.018,267.102 241.1,266.212C241.183,265.322 241.231,264.738 241.244,264.459C241.296,264.22 241.2,264.118 240.956,264.15C236.229,265.94 232.247,267.109 229.012,267.658C225.776,268.206 223.851,268.152 223.237,267.494C222.699,266.919 222.815,266.164 223.587,265.228C224.657,263.928 226.629,262.37 229.501,260.551C232.372,258.733 238.759,255.149 248.661,249.8C248.828,249.685 248.936,249.532 248.986,249.34C249.035,249.149 249.002,248.991 248.887,248.868C248.887,248.868 249.549,248.152 250.94,247.966C251.851,247.844 252.691,247.569 253.461,247.143ZM98.806,255.804L106.454,245.776L120.717,247.071L112.218,252.716L135.51,262.245L139.303,278.155L128.657,280.979L104.542,260.512L103.66,269.596L100.984,266.009L104.69,255.07L98.806,255.804ZM33.617,275.518L35.978,260.906L44.798,256.088L45.284,265.759L33.617,275.518ZM68.374,275.516L56.423,266.816L57.193,256.088L66.785,261.932L68.374,275.516ZM176.72,226.321C179.451,227.915 182.992,228.351 187.344,227.629C187.697,228.692 188.21,229.583 188.882,230.302C189.555,231.021 190.256,231.551 190.987,231.893C191.717,232.234 192.586,232.43 193.593,232.48C194.527,232.527 195.394,232.523 196.193,232.468C195.966,232.71 195.754,232.95 195.558,233.188C194.101,234.956 193.25,236.931 193.006,239.114C192.761,241.297 193.234,243.026 194.425,244.3C195.385,245.327 196.259,246.043 197.048,246.446C197.836,246.849 199.017,247.061 200.59,247.081C202.163,247.102 204.21,246.724 206.729,245.947L206.886,245.898C205.585,247.583 204.819,249.453 204.588,251.506C204.344,253.689 204.817,255.417 206.007,256.691C207.006,257.76 207.938,258.537 208.803,259.022C209.668,259.508 210.925,259.825 212.573,259.974C214.221,260.123 216.384,259.845 219.062,259.14L219.063,259.14C219.03,259.179 218.997,259.218 218.965,259.257C217.552,260.972 216.787,262.844 216.67,264.871C216.647,265.269 216.65,265.653 216.678,266.023L196.505,270.363L181.418,258.158L184.8,253.892L193.977,254.57L189.181,246.452L192.536,237.512L183.007,240.159L175.802,234.426L175.154,243.424L168.771,246.775L176.72,226.321ZM95.955,263.598C95.955,263.598 93.726,264.232 93.726,264.232C94.485,265.959 94.443,268.037 93.413,269.845L96.72,269.979C96.72,269.979 94.896,267.246 94.896,267.246L95.955,263.598ZM169.743,249.334L176.007,252.188L179.241,263.569L169.743,249.334ZM137.657,250.424L144.568,246.216L145.391,238.864L151.685,243.658L159.242,241.481L156.745,250.011L161.037,256.48L152.508,256.069L147.568,261.394L144.979,253.804L137.657,250.424ZM93.065,254.373C92.686,254.936 92.218,255.437 91.68,255.854L93.838,257.628C93.838,257.628 93.065,254.373 93.065,254.373ZM253.782,226.752C253.976,229.503 254.074,232.283 254.074,235.085C254.074,236.587 254.046,238.082 253.99,239.571C253.236,239.308 252.375,239.241 251.408,239.371C249.946,239.567 248.666,240.154 247.57,241.133C246.474,242.113 245.908,243.194 245.872,244.378C245.854,244.986 244.277,243.936 244.277,243.936C244.008,243.648 243.688,243.599 243.315,243.787C236.654,247.398 231.662,250.182 228.339,252.139C223.998,253.707 220.407,254.628 217.567,254.901C214.505,255.195 212.494,254.829 211.534,253.801C210.958,253.185 211.055,252.408 211.826,251.473C212.983,250.069 214.757,248.618 217.15,247.118C219.542,245.618 225.09,242.482 233.794,237.71L236.964,241.1C237.233,241.388 237.553,241.438 237.925,241.249L241.096,239.506C241.263,239.392 241.371,239.238 241.421,239.047C241.47,238.855 241.438,238.698 241.322,238.574L238.268,235.307C240.903,233.888 247.338,230.283 253.782,226.752ZM19.892,243.913L30.396,239.854L39.892,245.33L30.696,251.158L20.154,246.913C20.055,245.921 19.967,244.919 19.892,243.913ZM177.771,247.63L179.977,246.275L180.242,243.924L182.271,245.453L184.683,244.775L183.889,247.511L185.242,249.569L182.534,249.452L180.947,251.158L180.094,248.718L177.771,247.63ZM85.767,245.33L71.954,250.362L62.099,245.33L72.204,240.111L85.767,245.33ZM90.909,245.299L90.892,245.226C90.821,245.263 90.748,245.297 90.675,245.33C90.767,245.374 90.859,245.418 90.949,245.466L90.909,245.299ZM136.951,215.603L134.158,214.25L133.128,238.953L124.099,244.982L114.747,230.777L121.159,213.484L107.513,216.397L113.805,208.336L131.216,209.631L135.804,211.22L136.951,215.603ZM183.861,127.662C221.535,144.201 248.874,179.982 253.409,222.531L251.093,220.054C250.824,219.766 250.482,219.743 250.067,219.983C242.775,223.919 235.404,228.037 232.794,229.45L230.488,226.984C230.22,226.697 229.899,226.647 229.527,226.836L226.291,228.656C226.167,228.719 226.081,228.846 226.031,229.038C225.982,229.23 226.015,229.387 226.13,229.51L228.32,231.853C223.012,234.74 218.945,237.011 216.118,238.667C211.308,240.488 207.655,241.62 205.158,242.065C202.532,242.532 200.777,242.293 199.893,241.348C199.356,240.772 199.472,240.017 200.243,239.081C201.657,237.366 204.408,235.321 208.497,232.947C212.586,230.573 224.719,223.942 244.895,213.054C245.019,212.992 245.117,212.851 245.188,212.634C245.259,212.416 245.236,212.246 245.121,212.122L240.511,207.191C240.242,206.903 239.9,206.879 239.485,207.12C219.805,217.756 207.981,224.253 204.014,226.611C203.871,226.696 203.729,226.781 203.589,226.865C197.131,229.226 193.146,229.104 191.636,226.499C197.133,224.653 201.488,221.781 204.701,217.882C207.014,215.075 208.332,212.182 208.655,209.202C208.979,206.222 208.007,203.52 205.74,201.095C203.627,198.835 200.718,197.606 197.014,197.408C193.309,197.211 189.548,198.003 185.729,199.787C183.808,200.684 182.039,201.756 180.423,203.005C175.486,204.753 171.443,205.58 168.292,205.486C169.773,204.039 171.342,202.245 172.998,200.104C174.654,197.963 176.155,195.878 177.503,193.847C178.851,191.817 180.36,190.008 182.03,188.42C183.7,186.832 185.285,185.961 186.786,185.806C187.386,185.079 187.678,184.022 187.663,182.637C187.648,181.251 187.218,180.107 186.373,179.202C184.644,177.353 182.524,176.943 180.013,177.973C171.204,181.558 164.874,183.931 161.024,185.094C160.11,184.801 159.031,185.407 157.789,186.915C157.472,187.3 157.168,187.7 156.877,188.114C156.983,187.578 156.935,187.113 156.733,186.718C156.434,186.203 156.156,186.101 155.899,186.413C152.601,190.416 145.293,188.658 139.876,182.863C136.726,179.493 133.398,174.759 129.893,168.662C134.281,168.074 139.415,166.646 145.295,164.379C151.175,162.112 156.494,159.781 161.25,157.387C166.006,154.993 171,152.682 176.233,150.455C181.465,148.228 185.668,146.856 188.841,146.339C190.403,148.303 191.953,150.107 193.489,151.751C194.834,153.19 196.251,153.948 197.741,154.026C199.231,154.104 200.447,153.571 201.39,152.427C202.332,151.284 202.686,149.999 202.451,148.574C202.215,147.149 201.656,145.964 200.772,145.019C198.467,142.553 195.556,140.954 192.038,140.223C190.447,138.031 187.766,133.916 183.996,127.877L183.861,127.662ZM108.423,237.6L102.159,237.308L98.513,241.218L96.601,235.629L91.221,233.158L96.278,230.041L96.897,224.63L101.543,228.16L107.101,226.542L105.276,232.835L108.423,237.6ZM33.617,215.144L45.803,224.221L44.798,234.574L35.216,230.049L33.617,215.144ZM68.374,215.144L65.894,229.603L57.193,234.572L57.247,224.607L68.374,215.144ZM153.566,196.365C153.481,197.168 153.459,197.99 153.499,198.831C153.611,201.151 154.397,203.092 155.857,204.654C157.048,205.928 158.214,206.882 159.354,207.515C161.849,209.401 164.774,210.281 168.13,210.155C169.934,210.088 172.162,209.656 174.815,208.861C172.903,211.532 171.806,214.078 171.523,216.499C171.183,219.411 172.108,222.039 174.298,224.382C174.521,224.621 174.753,224.848 174.993,225.062L153.743,230.337L140.422,219.337L145.892,213.72L155.861,214.22L150.596,205.25L153.566,196.365ZM203.483,205.282C202.484,204.213 200.531,203.885 197.625,204.298C194.719,204.71 191.484,205.895 187.92,207.852C184.355,209.809 181.416,212.191 179.103,214.998C177.946,216.402 177.166,217.743 176.762,219.023C176.358,220.302 176.445,221.25 177.021,221.867C178.481,223.429 181.444,223.517 185.909,222.133C186.017,221.564 186.328,220.967 186.842,220.343C187.742,219.252 188.885,218.544 190.273,218.219C191.661,217.894 192.744,218.05 193.521,218.686C196.761,216.772 199.43,214.542 201.529,211.995C204.099,208.876 204.75,206.638 203.483,205.282ZM64.079,143.141L70.546,145.608L72.309,151.812L72.104,167.459L61.28,174.605L73.22,179.604L77.192,191.927L84.455,182.341L94.748,183.163L94.574,185.811L78.604,196.25L83.984,199.367L80.191,200.339L72.897,194.369L71.956,203.573L68.783,205.8L68.77,205.788C66.245,203.605 62.358,203.809 60.085,206.234C60.052,206.269 60.022,206.305 59.993,206.34L57.193,209.706L57.193,202.293C57.193,198.979 54.444,196.242 50.997,196.242C47.547,196.242 44.798,198.979 44.798,202.293L44.798,209.706L41.998,206.34C41.969,206.305 41.939,206.269 41.906,206.234C39.633,203.809 35.746,203.605 33.221,205.788C31.676,207.124 30.977,209.024 31.152,210.871C29.641,209.796 27.649,209.456 25.722,210.131C22.578,211.23 20.81,214.7 21.769,217.88C21.783,217.926 21.796,217.97 21.813,218.015L23.325,222.142L20.466,220.486C24.353,189.233 40.563,161.778 64.079,143.141ZM81.367,214.368L80.453,215.505C80.529,216.287 80.46,217.092 80.222,217.88C80.209,217.926 80.195,217.97 80.178,218.015L78.666,222.142L85.066,218.437C86.073,217.855 87.185,217.602 88.282,217.649L88.425,215.19L81.367,214.368ZM85.514,207.014L88.102,200.839L96.601,204.074L99.043,213.808L89.278,205.925L89.132,206.044L88.308,210.955L85.514,207.014ZM82.514,210.544L80.985,208.221L81.867,205.193L79.19,205.955L76.956,204.28L76.662,206.868L74.192,208.398L76.81,209.574L77.123,210.504C77.62,210.767 78.073,211.095 78.475,211.475L79.486,210.398L82.514,210.544ZM146.862,208.692L143.215,208.544L141.127,210.807L140.01,207.573L136.892,206.132L139.834,204.309L140.185,201.192L142.862,203.219L146.098,202.31L145.039,205.955L146.862,208.692ZM126.983,179.19C127.061,179.363 127.13,179.512 127.192,179.636C127.45,180.157 127.863,181.015 128.432,182.21C129.001,183.406 129.463,184.315 129.817,184.938C130.171,185.561 130.646,186.388 131.243,187.418C131.84,188.448 132.385,189.3 132.878,189.974C133.371,190.647 133.931,191.393 134.558,192.211C134.722,192.425 134.887,192.635 135.053,192.841L134.01,201.427L129.863,203.515L122.306,192.398L126.983,179.19ZM103.629,192.104L104.248,186.693L108.894,190.222L114.453,188.605L112.601,194.897L115.777,199.663L109.482,199.367L105.835,203.281L103.923,197.691L98.543,195.22L103.629,192.104ZM159.209,197.823C159.785,198.44 160.405,198.785 161.067,198.858C161.73,198.931 162.436,198.732 163.185,198.262C163.934,197.792 164.667,197.231 165.384,196.58C166.101,195.929 166.889,195.061 167.748,193.975C168.607,192.888 169.403,191.857 170.135,190.88C170.868,189.903 171.72,188.76 172.69,187.451C173.66,186.142 174.51,185.046 175.238,184.162C169.446,186.279 164.87,187.839 161.512,188.844C160.031,190.291 159.017,191.872 158.472,193.587C157.926,195.302 158.172,196.714 159.209,197.823ZM153.921,194.349L151.287,195.088C151.401,195.002 151.513,194.914 151.625,194.824C152.8,193.881 153.901,192.785 154.929,191.537L154.597,192.302C154.32,192.969 154.095,193.651 153.921,194.349ZM77.897,171.429L78.337,167.43L81.778,170.016L85.896,168.84L84.543,173.488L86.866,177.018L82.22,176.782L79.544,179.693L78.132,175.546L74.133,173.723L77.897,171.429ZM111.042,164.31C114.246,167.055 118.184,168.588 122.857,168.91C122.925,169.178 123.248,170.037 123.825,171.486C124.402,172.935 124.772,173.845 124.936,174.216C125.033,174.433 125.193,174.82 125.418,175.378L109.924,179.399L99.925,169.899L105.19,163.989L111.042,164.31ZM94.514,161.341L96.985,162.165L98.159,168.871L95.955,167.105L95.131,178.694L90.337,172.399L94.514,161.341ZM83.074,163.666L76.485,157.665L83.337,148.607L95.69,149.489L95.338,154.195L88.573,158.167L92.865,160.636L83.074,163.666ZM112.347,159.427C114.037,161.235 116.542,162.056 119.86,161.889C118.457,159.117 117.103,157.033 115.797,155.635C115.029,154.813 114.282,154.382 113.557,154.34C112.833,154.298 112.213,154.589 111.699,155.213C110.671,156.461 110.887,157.865 112.347,159.427ZM106.1,159.665L103.07,159.548L101.308,161.429L100.396,158.724L97.779,157.519L100.248,156.018L100.544,153.43L102.778,155.108L105.455,154.343L104.571,157.371L106.1,159.665ZM153.301,118.981C153.238,119.477 153.282,119.98 153.434,120.49C153.719,121.284 153.99,121.525 154.247,121.213C154.808,120.533 155.54,119.952 156.443,119.468C161.114,120.256 165.691,121.321 170.159,122.645C170.661,123.111 171.164,123.613 171.668,124.152C173.896,126.536 177.967,131.771 183.881,139.858C179.784,140.268 174.924,141.451 169.301,143.406C163.678,145.362 158.523,147.428 153.838,149.604C149.153,151.781 144.112,154.017 138.714,156.312C133.317,158.607 128.923,160.19 125.531,161.06C123.253,157.157 121.327,154.363 119.752,152.678C117.716,150.5 115.707,149.451 113.725,149.531C112.935,149.563 112.193,149.721 111.5,150.005L112.042,147.785L102.984,150.225L96.424,144.019L96.043,146.373L90.279,137.638L93.918,125.938C107.211,120.704 121.682,117.829 136.819,117.829C142.41,117.829 147.911,118.221 153.301,118.981ZM75.665,135.043C76.512,134.523 77.364,134.016 78.223,133.519L79.749,134.667L84.19,133.374L82.72,138.431L85.251,142.255L80.22,142.02L77.309,145.137L75.78,140.668L71.456,138.668L75.543,136.168L75.665,135.043ZM153.862,80.436L179.889,104.287L180.419,105.288L180.29,105.606L180.195,106.039L180.189,106.092C174.413,104.148 168.461,102.581 162.366,101.421L161.821,100.432L161.261,99.409L160.126,97.318C160.038,97.141 159.95,96.995 159.89,96.847C157.125,91.759 155.303,86.083 153.862,80.436ZM126.011,79.759C123.982,85.819 121.482,91.818 117.923,97.024L117.894,97.024C117.835,97.141 117.775,97.229 117.687,97.318C117.658,97.406 117.57,97.523 117.452,97.671L117.042,98.249L116.246,99.381L115.61,100.266L115.274,100.721C108.993,101.722 102.856,103.153 96.893,104.984L96.631,104.2L98.278,101.641L126.011,79.759ZM140.465,49.848L140.627,49.852C142.334,49.909 143.98,50.645 145.127,51.938C146.303,53.174 146.951,54.849 146.862,56.556C146.803,58.291 146.038,59.908 144.803,61.086C143.509,62.26 141.863,62.879 140.128,62.819C138.421,62.762 136.775,62.026 135.628,60.733C134.452,59.497 133.804,57.82 133.864,56.115C133.952,54.35 134.717,52.763 135.95,51.587C137.096,50.519 138.581,49.913 140.141,49.852L140.465,49.848ZM212.533,14.49L212.739,14.493C220.061,14.64 222.354,22.1 218.297,30.998C205.399,42.147 189.145,48.573 172.115,49.219L171.713,49.233C178.065,33.087 191.329,20.618 207.857,15.296C209.586,14.744 211.148,14.488 212.533,14.49ZM70.673,9.257C72.254,9.253 74.061,9.626 76.074,10.442C92.16,16.971 104.454,30.352 109.63,46.91C92.543,45.117 76.633,37.47 64.545,25.293C61.224,16.382 63.823,9.274 70.673,9.257Z" style="fill:none;stroke:rgb(255,0,0);stroke-width:1px;"/>
</svg>
