<?xml version="1.0" encoding="UTF-8" standalone="no"?>
<!DOCTYPE svg PUBLIC "-//W3C//DTD SVG 1.1//EN" "http://www.w3.org/Graphics/SVG/1.1/DTD/svg11.dtd">
<svg width="100%" height="100%" viewBox="0 0 1123 794" version="1.1" xmlns="http://www.w3.org/2000/svg" xmlns:xlink="http://www.w3.org/1999/xlink" xml:space="preserve" xmlns:serif="http://www.serif.com/" style="fill-rule:evenodd;clip-rule:evenodd;stroke-linejoin:round;stroke-miterlimit:2;">
    <path d="M144.768,40.265C146.525,40.302 148.11,40.912 149.422,41.91C150.863,43.057 151.891,44.704 152.273,46.587C152.802,46.587 182.859,16.178 188.975,12.177C194.836,8.337 202.831,5.966 211.003,5.93C211.404,5.929 211.807,5.932 212.21,5.942C221.975,6.413 230.502,10.413 234.032,19.412C239.942,32.998 232.913,47.381 232.854,60.821C232.825,76.702 247.707,93.348 235.179,108.435C229.972,113.729 222.856,118.846 215.857,121.903L215.797,121.903L214.909,122.185L213.44,122.66C235.271,137.575 252.544,158.68 262.718,183.428L263.146,184.482L263.635,185.717L264.183,187.147L264.715,188.58L264.956,189.247L265.465,190.694L265.958,192.147L266.475,193.735L266.941,195.223L267.39,196.719L267.822,198.222L268.318,200.033L268.765,201.757L269.14,203.283L269.499,204.816L269.84,206.356L270.097,207.582L270.267,208.418L270.567,209.973L270.849,211.533L271.113,213.1L271.309,214.338L271.419,215.073L271.66,216.779L271.864,218.366L272.05,219.958L272.182,221.204L272.257,221.958L272.366,223.158L272.397,223.517L272.519,225.075L272.624,226.63L272.71,228.177L272.746,228.945L272.807,230.524L272.85,232.102C272.861,232.627 272.87,233.152 272.875,233.676L272.882,235.204L272.88,235.812C272.877,236.27 272.873,236.727 272.866,237.183L272.845,238.277C272.836,238.637 272.827,238.997 272.816,239.357L272.77,240.666L272.707,242.056L272.66,242.916C272.616,243.693 272.566,244.469 272.509,245.242L272.378,246.891L272.235,248.448L272.115,249.632L271.964,250.996L271.773,252.558L271.607,253.813L271.429,255.064L271.176,256.717L270.983,257.897L270.743,259.275L270.405,261.091L270.108,262.584L269.863,263.752L269.428,265.714L269.074,267.212L268.795,268.344L268.42,269.801L268.042,271.21L267.725,272.344L267.361,273.601L266.892,275.16L266.363,276.838L265.822,278.487L265.452,279.56L265.025,280.738L264.863,281.178C264.752,281.514 264.639,281.848 264.5,282.186C263.205,285.714 261.764,289.155 260.177,292.537C259.764,293.448 259.353,294.331 258.911,295.213C258.206,296.654 257.441,298.096 256.707,299.508C256.647,299.565 256.619,299.654 256.588,299.713C255.177,302.329 253.677,304.919 252.09,307.419L251.385,308.513L250.98,309.103L250.316,310.136L249.767,310.943L249.354,311.546L249.354,311.565C249.088,312.005 248.794,312.416 248.472,312.829C247.32,314.5 246.13,316.138 244.904,317.745L244.816,317.86C243.221,319.948 241.565,321.984 239.854,323.976L239.073,324.871L238.079,325.991L237.478,326.655L236.874,327.314L236.265,327.97L235.652,328.622L235.034,329.27L234.413,329.913L233.787,330.553L233.157,331.188L232.523,331.819L231.885,332.446L231.243,333.069L230.597,333.688L229.946,334.303L229.292,334.913L228.634,335.519L227.305,336.718L225.961,337.9L224.601,339.064L223.226,340.21L221.835,341.339L220.43,342.45L219.251,343.358L218.294,344.082L217.12,344.95L216.125,345.672L214.957,346.501L213.924,347.22L212.763,348.011L211.691,348.725L210.538,349.478L209.428,350.187L208.283,350.903L207.134,351.605L205.999,352.284L204.81,352.979L203.686,353.621L202.128,354.488L200.557,355.336L199.718,355.777L198.921,356.19L198.122,356.597L197.319,356.999L196.514,357.396L195.706,357.788L194.894,358.175L194.08,358.556L193.263,358.932L192.443,359.303L191.621,359.668L190.795,360.029L189.967,360.383L189.136,360.733L188.303,361.077L187.466,361.416L186.627,361.749L185.472,362.197L184.208,362.674L183.508,362.932C175.658,365.798 167.471,367.962 159.021,369.348L157.605,369.572L156.197,369.781L154.318,370.035L152.436,370.263L150.549,370.465L148.516,370.653L146.646,370.8L144.654,370.927L142.787,371.02L140.923,371.087L139.53,371.121L138.144,371.142L136.819,371.148L135.472,371.141L135.01,371.136L133.308,371.103L132.116,371.068L131.571,371.048C131.011,371.027 130.452,371.002 129.893,370.974L128.91,370.921L128.07,370.87L126.787,370.783L125.344,370.67L124.595,370.605L123.757,370.528L122.78,370.431L121.461,370.29L119.917,370.108L119.147,370.01L118.622,369.94C61.059,362.253 14.891,318.582 3.474,262.277L3.239,261.09L2.955,259.579L2.689,258.062L2.439,256.54L2.206,255.012L1.989,253.478L1.79,251.939L1.609,250.395L1.444,248.846L1.295,247.267L1.199,246.139L1.071,244.412L1.03,243.782L0.93,242.013L0.887,241.098L0.867,240.61L0.814,239.101L0.782,237.765L0.762,236.427L0.756,235.069L0.761,233.92L0.78,232.504L0.814,231.055L0.874,229.343L0.941,227.924L1.04,226.215L1.16,224.51L1.339,222.399L1.503,220.733L1.754,218.52L1.965,216.867L2.116,215.769L2.36,214.126L2.623,212.491L2.832,211.276L3.004,210.32L3.25,209.022L3.391,208.305L3.7,206.805L3.847,206.115L4.228,204.413L4.525,203.156L4.699,202.441L5.07,200.971L5.248,200.286L5.705,198.602L6.047,197.393L6.255,196.679L6.685,195.245L7.142,193.78L7.652,192.213L8.179,190.657L8.724,189.112L9.286,187.576L9.865,186.051L10.462,184.535L11.076,183.028L11.589,181.809L12.228,180.334L12.884,178.867L13.557,177.41L14.247,175.963L14.953,174.524L15.675,173.096L16.414,171.677L17.169,170.268L17.681,169.334L18.2,168.404L18.727,167.479L19.26,166.559L19.8,165.643L20.347,164.732L20.901,163.825L21.462,162.923L21.995,162.081C24.011,158.918 26.155,155.843 28.418,152.865L29.105,151.969L30.119,150.673L31.137,149.404L32.163,148.156L33.2,146.924L34.249,145.708L35.309,144.506L36.64,143.037L37.833,141.756L39.206,140.322L40.549,138.958L41.845,137.678L43.198,136.376L44.743,134.932L46.31,133.513L47.5,132.464L48.702,131.429L49.916,130.407L51.142,129.4L52.38,128.406L53.63,127.427L54.892,126.462L56.165,125.511L57.449,124.575L58.745,123.654L60.052,122.747L61.369,121.855L62.698,120.978L64.037,120.117L64.936,119.551L65.84,118.992C65.398,118.817 65.044,118.669 64.75,118.492L64.722,118.492C55.281,115.374 48.341,108.758 41.958,101.287C30.577,85.318 46.666,69.791 47.751,53.967C48.723,40.557 42.782,25.706 49.694,12.56C53.84,3.853 62.664,0.531 72.427,0.768C81.014,1.208 89.338,4.267 95.161,8.707C107.57,18.236 119.159,31.999 128.776,45.146C128.776,44.116 130.394,42.292 132.157,41.293C133.276,40.617 134.598,40.263 136.01,40.263L144.597,40.263L144.768,40.265ZM233.106,301.981L233,302.134C230.483,303.681 227.993,305.253 225.474,306.802C223.721,307.892 224.466,310.555 226.475,310.623C225.699,311.543 224.907,312.453 224.102,313.349L223.767,313.36C222.62,313.389 221.681,314.328 221.65,315.475C221.645,315.641 221.659,315.803 221.69,315.957C200.328,338.368 170.192,352.34 136.819,352.34C129.603,352.34 122.539,351.687 115.679,350.436L134.186,327.506L164.772,329.681L159.508,320.888L165.184,312.093L175.802,312.975L170.243,303.566L173.565,295.625L181.093,299.3L186.535,320.035L200.475,303.418L218.297,304.448C218.326,304.8 218.445,305.153 218.65,305.447C219.327,306.417 220.62,306.683 221.621,306.066C224.267,304.448 226.915,302.799 229.591,301.155C230.762,301.438 231.935,301.697 233.106,301.981ZM107.895,341.033L113.364,348.678L110.159,337.003L107.895,341.033ZM104.571,345.769L100.63,345.592L99.878,346.393C99.065,346.123 98.255,345.844 97.449,345.556L97.102,344.532L93.718,342.975L96.925,341.004L97.306,337.591L100.219,339.797L103.749,338.798L102.571,342.768L104.571,345.769ZM85.131,273.303L79.354,270.4L80.178,272.648C80.193,272.692 80.209,272.736 80.222,272.78C81.181,275.96 79.411,279.432 76.27,280.531C74.342,281.206 72.35,280.866 70.84,279.792C71.014,281.638 70.315,283.537 68.77,284.872C67.596,285.888 66.126,286.394 64.662,286.394C62.977,286.394 61.301,285.725 60.085,284.426C60.052,284.392 60.022,284.357 59.993,284.321L57.193,280.956L57.193,288.369C57.193,291.684 54.444,294.418 50.997,294.418C47.547,294.418 44.798,291.684 44.798,288.369L44.798,280.956L41.998,284.321C41.969,284.357 41.939,284.392 41.906,284.426C39.633,286.853 35.746,287.057 33.221,284.874L33.221,284.872C31.676,283.537 30.977,281.638 31.152,279.792C30.457,280.285 29.66,280.624 28.814,280.779C39.992,307.142 60.547,328.582 86.29,340.908L91.19,337.739L92.396,325.651L101.189,333.062L108.66,330.739L105.749,320.828L76.779,308.771L84.691,302.624L82.543,295.744L74.367,291.949L81.926,286.273L82.749,277.684L87.308,281.333L85.131,273.303ZM117.923,310.182L108.954,306.066L117.395,300.861L118.423,291.83L126.187,297.713L135.451,295.037L132.392,305.535L137.657,313.475L127.187,312.975L121.099,319.533L117.923,310.182ZM158.478,319.476L151.155,307.801L156.126,310.066L158.478,319.476ZM156.891,305.007L159.832,303.212L160.184,300.067L162.889,302.125L166.096,301.183L165.036,304.83L166.861,307.595L163.243,307.419L161.125,309.711L160.007,306.448L156.891,305.007ZM169.832,294.508L163.95,296.566L155.684,289.92L154.539,300.772L148.686,303.77L158.714,273.038L151.862,274.421L157.803,267.421L179.124,269.362L177.948,279.302L160.979,290.508L169.832,294.508ZM223.767,299.771C222.62,300.476 221.444,301.212 220.268,301.948L218.827,299.713C219.267,299.448 219.709,299.183 220.151,298.889C221.356,299.183 222.561,299.477 223.767,299.771ZM91.073,297.625L88.014,301.654L94.543,297.832L91.073,297.625ZM191.865,239.299L189.181,246.452L193.977,254.57L184.8,253.892L181.418,258.158L196.505,270.363L217.563,265.832L210.092,286.304L214.679,293.332C214.886,293.39 215.092,293.448 215.297,293.478C215.003,293.008 214.709,292.537 214.444,292.068C213.827,291.067 214.15,289.772 215.209,289.213C216.208,288.655 217.503,289.009 218.12,289.979C219.121,291.624 220.12,293.244 221.091,294.862C222.326,295.154 223.533,295.448 224.738,295.744C223.798,294.214 222.885,292.712 221.975,291.213C221.356,290.183 221.681,288.89 222.737,288.331C223.738,287.802 225.032,288.125 225.65,289.124C227.268,291.772 228.915,294.449 230.531,297.123C231.737,297.39 232.973,297.682 234.178,297.978C232.591,295.39 231.002,292.802 229.414,290.214C228.325,288.419 230.296,286.304 232.178,287.303C234.692,288.656 237.18,290.008 239.692,291.362L239.958,290.875C239.678,289.929 239.398,288.992 239.12,288.037C236.355,286.567 233.619,285.068 230.856,283.596C229.854,283.068 229.414,281.773 229.914,280.745C230.414,279.657 231.678,279.244 232.737,279.803C234.297,280.656 235.855,281.479 237.414,282.332C237.178,281.529 236.944,280.741 236.71,279.948C236.457,279.952 236.216,279.946 235.987,279.932C234.473,279.835 233.337,279.57 232.573,279.168C231.815,278.768 231.022,278.135 230.202,277.259C228.976,275.947 228.397,274.305 228.486,272.325C228.548,270.94 228.929,269.637 229.634,268.418C225.328,269.357 222.226,268.725 220.31,266.676C218.716,264.971 218.093,262.913 218.453,260.497C218.678,258.98 219.248,257.449 220.17,255.908C218.562,256.268 217.158,256.456 215.958,256.475C212.841,256.524 210.112,255.653 207.772,253.874C206.715,253.266 205.628,252.371 204.518,251.183C203.1,249.666 202.318,247.805 202.182,245.594C202.05,243.443 202.367,241.435 203.128,239.571C203.146,239.527 203.164,239.483 203.182,239.439C199.383,240.025 195.611,239.979 191.865,239.299ZM202.504,293.509L195.447,293.184L191.358,297.567L189.212,291.301L183.182,288.507L188.858,285.008L189.565,278.948L194.77,282.891L201.006,281.098L198.946,288.154L202.504,293.509ZM92.631,293.39L89.278,293.213L87.308,295.331L86.279,292.331L83.396,291.007L86.132,289.332L86.455,286.419L88.926,288.302L91.926,287.449L90.927,290.83L92.631,293.39ZM95.661,275.126L103.66,275.774L102.836,292.331L98.924,294.566L95.807,289.772L98.543,281.596L89.338,283.271L95.661,275.126ZM242.654,278.812C242.341,278.906 242.038,278.993 241.745,279.076C241.437,279.162 241.137,279.242 240.845,279.315C241.024,279.921 241.203,280.527 241.383,281.125C241.808,280.35 242.233,279.581 242.654,278.812ZM98.806,255.804L106.454,245.776L120.717,247.071L112.218,252.716L135.51,262.245L139.303,278.155L128.657,280.979L104.542,260.512L103.66,269.596L100.984,266.009L104.69,255.07L98.806,255.804ZM33.617,275.518L35.978,260.906L44.798,256.088L45.284,265.759L33.617,275.518ZM68.374,275.516L56.423,266.816L57.193,256.088L66.785,261.932L68.374,275.516ZM250.448,264.11C245.94,266.491 242.783,268.229 240.976,269.326C241.408,269.281 241.861,269.377 242.265,269.627C243.266,270.215 243.589,271.508 243.059,272.538L242.348,273.846C244.053,273.443 245.963,272.883 248.08,272.168C248.962,269.523 249.753,266.836 250.448,264.11ZM95.955,263.598C95.955,263.598 93.726,264.232 93.726,264.232C94.485,265.959 94.443,268.037 93.413,269.845L96.72,269.979C96.72,269.979 94.896,267.246 94.896,267.246L95.955,263.598ZM244.188,258.003C242.05,259.12 240.259,260.121 238.815,261.005C234.556,262.692 231.303,263.595 229.051,263.689C227.763,263.743 226.842,263.555 226.322,262.999C226.07,262.729 226.033,262.336 226.122,261.838C226.238,261.186 226.602,260.514 227.188,259.809C228.607,258.102 230.674,256.427 233.38,254.774C236.095,253.116 238.791,251.976 241.47,251.358C243.902,250.797 245.606,250.917 246.554,251.932C247.035,252.447 247.022,253.218 246.682,254.234C246.277,255.444 245.44,256.696 244.19,258.001L244.188,258.003ZM169.743,249.334L176.007,252.188L179.241,263.569L169.743,249.334ZM137.657,250.424L144.568,246.216L145.391,238.864L151.685,243.658L159.242,241.481L156.745,250.011L161.037,256.48L152.508,256.069L147.568,261.394L144.979,253.804L137.657,250.424ZM93.065,254.373C92.686,254.936 92.218,255.437 91.68,255.854L93.838,257.628C93.838,257.628 93.065,254.373 93.065,254.373ZM176.012,124.551C179.115,129.444 181.363,132.855 182.756,134.781C185.911,135.543 188.54,137.055 190.649,139.31C191.528,140.251 192.097,141.417 192.346,142.812C192.607,144.275 192.261,145.581 191.306,146.73C190.34,147.892 189.082,148.421 187.529,148.307C186.059,148.199 184.639,147.45 183.295,146.012C181.982,144.607 180.657,143.075 179.319,141.417C176.599,141.851 173.066,142.95 168.719,144.704C164.12,146.56 159.732,148.494 155.556,150.506C151.349,152.534 146.641,154.494 141.431,156.388C136.632,158.132 132.384,159.259 128.688,159.774C131.645,164.744 134.447,168.648 137.099,171.485C139.126,173.654 140.961,175.052 142.628,175.649C144.09,176.173 145.4,176.042 146.555,175.232C147.048,174.387 147.596,173.602 148.2,172.875C149.437,171.387 150.596,170.864 151.556,171.068C154.959,170.102 160.464,168.154 168.07,165.227C170.57,164.257 172.696,164.721 174.45,166.598C175.32,167.528 175.78,168.689 175.813,170.087C175.847,171.506 175.527,172.573 174.918,173.305C174.804,173.443 174.638,173.529 174.459,173.543C173.253,173.641 172.001,174.337 170.674,175.577C169.249,176.91 167.966,178.436 166.824,180.154C165.643,181.93 164.326,183.752 162.872,185.62C161.821,186.97 160.808,188.161 159.833,189.195C162.498,189.066 165.761,188.323 169.623,186.979C169.797,186.876 169.974,186.771 170.156,186.663C173.107,184.923 177.397,182.592 183.028,179.673C183.033,179.67 183.038,179.667 183.044,179.665C183.671,179.361 184.214,179.464 184.676,179.959C184.676,179.959 188.768,184.336 188.768,184.336C189.025,184.611 189.124,184.953 189.021,185.37C188.938,185.703 188.753,185.968 188.461,186.162C188.441,186.176 188.42,186.188 188.398,186.2C179.706,190.711 174.108,193.746 171.608,195.306C169.181,196.821 167.508,198.114 166.604,199.202C166.219,199.665 166.018,200.014 166.294,200.31C166.492,200.521 166.821,200.64 167.259,200.719C168.126,200.877 169.35,200.828 170.93,200.594C173.673,200.187 177.091,199.212 181.185,197.677C184.075,196.008 188.191,193.798 193.532,191.046C193.848,190.873 194.143,190.815 194.406,190.839C194.714,190.867 194.997,191 195.242,191.262C195.242,191.262 199.334,195.639 199.334,195.639C199.591,195.915 199.69,196.256 199.586,196.673C199.504,197.006 199.318,197.271 199.027,197.466C199.007,197.479 198.986,197.492 198.964,197.503C190.271,202.014 184.674,205.049 182.173,206.61C179.747,208.125 178.074,209.417 177.17,210.505C176.785,210.968 176.583,211.317 176.86,211.614C176.99,211.753 177.251,211.791 177.61,211.829C178.427,211.915 179.633,211.82 181.23,211.56C183.705,211.157 186.743,210.323 190.349,209.062C193.616,207.794 196.683,206.491 199.552,205.154C199.896,203.798 200.533,202.559 201.464,201.438C202.524,200.163 203.758,199.308 205.161,198.862C206.773,198.349 207.914,198.574 208.607,199.315C209.42,200.185 209.638,201.334 209.166,202.777C208.808,203.873 208.239,204.901 207.458,205.859C208.266,206.719 209.992,208.395 212.633,210.888C215.319,213.424 217.284,215.191 218.53,216.186C218.537,216.191 218.543,216.197 218.55,216.203C218.821,216.437 219.014,216.771 219.096,217.222C219.184,217.709 219.137,218.374 218.919,219.212C218.588,220.489 218.079,221.622 217.396,222.612C216.624,223.73 215.795,224.318 214.971,224.459C214.927,224.467 214.882,224.47 214.837,224.468C212.292,224.385 208.702,224.204 204.066,223.925C200.234,223.694 197.463,223.548 195.755,223.487C196.712,227.129 196.203,230.683 194.217,234.147C198.351,234.923 202.574,234.802 206.885,233.786C207.782,232.995 208.621,232.742 209.359,232.904C210.397,232.609 211.631,232.223 213.062,231.744C213.154,231.702 213.239,231.676 213.309,231.662C216.535,230.578 220.723,229.045 225.871,227.063C228.372,226.093 230.497,226.557 232.252,228.434C233.121,229.365 233.581,230.526 233.614,231.923C233.648,233.342 233.328,234.409 232.719,235.141C232.605,235.279 232.439,235.365 232.26,235.379C231.054,235.477 229.802,236.173 228.475,237.414C227.05,238.746 225.767,240.272 224.625,241.99C223.445,243.766 222.128,245.588 220.673,247.456C219.623,248.806 218.61,249.998 217.634,251.031C220.283,250.903 223.522,250.168 227.35,248.841C227.467,248.768 227.585,248.695 227.704,248.623C230.058,247.193 232.502,246.098 235.034,245.336C237.613,244.559 240.189,244.379 242.763,244.791C245.396,245.213 247.536,246.314 249.188,248.083C250.981,250.001 251.618,252.107 251.102,254.402C251.587,254.278 252.016,254.421 252.392,254.823L252.413,254.846C253.506,248.422 254.074,241.819 254.074,235.085C254.074,184.115 221.483,140.698 176.012,124.551ZM177.771,247.63L179.977,246.275L180.242,243.924L182.271,245.453L184.683,244.775L183.889,247.511L185.242,249.569L182.534,249.452L180.947,251.158L180.094,248.718L177.771,247.63ZM19.892,243.913L30.396,239.854L39.892,245.33L30.696,251.158L20.154,246.913C20.055,245.921 19.967,244.919 19.892,243.913ZM85.767,245.33L71.954,250.362L62.099,245.33L72.204,240.111L85.767,245.33ZM168.771,246.775L174.075,243.991C172.7,243.832 171.41,243.531 170.203,243.089L168.771,246.775ZM90.909,245.299L90.892,245.226C90.821,245.263 90.748,245.297 90.675,245.33C90.767,245.374 90.859,245.418 90.949,245.466L90.909,245.299ZM209.956,237.732C210.579,237.515 211.202,237.281 211.827,237.03C214.071,236.367 216.804,235.492 220.017,234.408C219.754,234.75 219.48,235.113 219.195,235.496C218.35,236.63 217.609,237.62 216.972,238.465C216.337,239.307 215.647,240.196 214.902,241.132C214.181,242.037 213.519,242.76 212.914,243.299C212.317,243.831 211.706,244.287 211.081,244.667C210.573,244.975 210.097,245.12 209.643,245.06C209.194,245.001 208.781,244.743 208.385,244.319C207.616,243.497 207.45,242.462 207.832,241.225C208.222,239.964 208.932,238.801 209.955,237.733L209.956,237.732ZM136.951,215.603L134.158,214.25L133.128,238.953L124.099,244.982L114.747,230.777L121.159,213.484L107.513,216.397L113.805,208.336L131.216,209.631L135.804,211.22L136.951,215.603ZM108.423,237.6L102.159,237.308L98.513,241.218L96.601,235.629L91.221,233.158L96.278,230.041L96.897,224.63L101.543,228.16L107.101,226.542L105.276,232.835L108.423,237.6ZM174.457,232.144C175.335,232.607 176.444,233.206 177.784,233.94C178.747,234.468 179.651,234.939 180.494,235.355L180.496,235.356C179.547,235.625 178.597,235.804 177.644,235.892L175.692,235.944C175.108,235.922 174.522,235.865 173.936,235.774C173.651,235.73 173.373,235.681 173.104,235.626L174.457,232.144ZM33.617,215.144L45.803,224.221L44.798,234.574L35.216,230.049L33.617,215.144ZM68.374,215.144L65.894,229.603L57.193,234.572L57.247,224.607L68.374,215.144ZM128.206,175.735L122.306,192.398L129.863,203.515L134.01,201.427L135.422,189.809L143.481,197.28L154.274,194.25L150.596,205.25L155.861,214.22L145.892,213.72L140.422,219.337L153.743,230.337L162.373,228.195C162.714,227.49 163.156,226.812 163.698,226.159C164.809,224.823 166.039,223.991 167.371,223.64C168.704,223.29 170.178,223.402 171.792,224.008C172.716,224.354 173.62,224.746 174.506,225.183L176.7,226.374C177.979,227.104 179.557,227.993 181.433,229.041C183.411,230.146 185.206,231.056 186.818,231.769C187.368,231.269 187.869,230.746 188.323,230.2C189.153,229.202 189.713,228.054 190.007,226.757C190.265,225.616 190.201,224.458 189.82,223.284C189.558,223.279 189.383,223.28 189.295,223.29C189.269,223.293 189.243,223.294 189.217,223.294C188.517,223.29 187.977,223.104 187.584,222.783C187.172,222.448 186.901,221.957 186.811,221.291C186.661,220.187 187.05,219.017 188.055,217.807C188.698,217.034 189.534,216.718 190.571,216.871C191.44,217.001 192.135,217.325 192.664,217.825C199.341,218.085 204.786,218.182 208.997,218.117C204.784,214.722 202.004,212.301 200.655,210.858C200.401,210.586 200.173,210.282 199.972,209.946C196.766,211.312 193.206,212.754 189.291,214.273C189.282,214.276 189.272,214.28 189.263,214.283C189.155,214.319 189.055,214.336 188.966,214.339C186.69,215.179 184.723,215.832 183.063,216.298C180.675,216.968 178.754,217.246 177.305,217.154C175.791,217.057 174.656,216.792 173.892,216.39C173.133,215.99 172.34,215.357 171.521,214.481C170.285,213.159 169.735,211.557 169.881,209.67C169.999,208.14 170.546,206.668 171.532,205.259C166.56,206.154 163.041,205.409 160.955,203.177C159.759,201.897 159.214,200.308 159.341,198.402C159.432,197.015 159.874,195.68 160.674,194.4C159.754,194.548 158.915,194.627 158.157,194.638C155.04,194.687 152.311,193.817 149.971,192.038C148.914,191.43 147.827,190.535 146.716,189.347C145.299,187.83 144.517,185.968 144.381,183.758C144.363,183.455 144.353,183.155 144.352,182.858C143.442,183.506 142.46,184.063 141.407,184.528C140.036,185.134 138.632,185.278 137.194,184.964C135.775,184.654 134.455,183.863 133.246,182.57C132.645,181.927 132.056,181.231 131.477,180.481C130.908,179.745 130.4,179.073 129.953,178.466C129.497,177.848 128.991,177.068 128.436,176.126L128.206,175.735ZM64.079,143.141L70.546,145.608L72.309,151.812L72.104,167.459L61.28,174.605L73.22,179.604L77.192,191.927L84.455,182.341L94.748,183.163L94.574,185.811L78.604,196.25L83.984,199.367L80.191,200.339L72.897,194.369L71.956,203.573L68.783,205.8L68.77,205.788C66.245,203.605 62.358,203.809 60.085,206.234C60.052,206.269 60.022,206.305 59.993,206.34L57.193,209.706L57.193,202.293C57.193,198.979 54.444,196.242 50.997,196.242C47.547,196.242 44.798,198.979 44.798,202.293L44.798,209.706L41.998,206.34C41.969,206.305 41.939,206.269 41.906,206.234C39.633,203.809 35.746,203.605 33.221,205.788C31.676,207.124 30.977,209.024 31.152,210.871C29.641,209.796 27.649,209.456 25.722,210.131C22.578,211.23 20.81,214.7 21.769,217.88C21.783,217.926 21.796,217.97 21.813,218.015L23.325,222.142L20.466,220.486C24.353,189.233 40.563,161.778 64.079,143.141ZM81.367,214.368L80.453,215.505C80.529,216.287 80.46,217.092 80.222,217.88C80.209,217.926 80.195,217.97 80.178,218.015L78.666,222.142L85.066,218.437C86.073,217.855 87.185,217.602 88.282,217.649L88.425,215.19L81.367,214.368ZM85.514,207.014L88.102,200.839L96.601,204.074L99.043,213.808L89.278,205.925L89.132,206.044L88.308,210.955L85.514,207.014ZM82.514,210.544L80.985,208.221L81.867,205.193L79.19,205.955L76.956,204.28L76.662,206.868L74.192,208.398L76.81,209.574L77.123,210.504C77.62,210.767 78.073,211.095 78.475,211.475L79.486,210.398L82.514,210.544ZM146.862,208.692L143.215,208.544L141.127,210.807L140.01,207.573L136.892,206.132L139.834,204.309L140.185,201.192L142.862,203.219L146.098,202.31L145.039,205.955L146.862,208.692ZM103.629,192.104L104.248,186.693L108.894,190.222L114.453,188.605L112.601,194.897L115.777,199.663L109.482,199.367L105.835,203.281L103.923,197.691L98.543,195.22L103.629,192.104ZM150.583,182.483C149.815,181.661 149.648,180.626 150.031,179.389C150.449,178.038 151.234,176.8 152.378,175.669C154.903,174.965 158.182,173.933 162.215,172.572C161.953,172.914 161.679,173.277 161.394,173.66C160.549,174.794 159.808,175.783 159.171,176.629C158.536,177.471 157.846,178.36 157.101,179.295C156.379,180.201 155.718,180.924 155.113,181.463C154.516,181.995 153.905,182.451 153.28,182.831C152.772,183.139 152.296,183.283 151.842,183.224C151.393,183.165 150.98,182.907 150.584,182.483L150.583,182.483ZM77.897,171.429L78.337,167.43L81.778,170.016L85.896,168.84L84.543,173.488L86.866,177.018L82.22,176.782L79.544,179.693L78.132,175.546L74.133,173.723L77.897,171.429ZM110.193,155.368L109.747,157.196L114.276,164.488L105.19,163.989L99.925,169.899L109.924,179.399L127.657,174.797L127.141,173.91C126.814,173.345 126.387,172.521 125.86,171.439C125.344,170.379 124.969,169.618 124.736,169.157C124.496,168.685 124.124,167.832 123.619,166.599C123.129,165.402 122.81,164.64 122.661,164.313C122.51,163.98 122.168,163.164 121.635,161.865C121.277,160.992 121.024,160.352 120.874,159.945C116.666,159.49 113.106,157.962 110.193,155.368ZM94.514,161.341L96.985,162.165L98.159,168.871L95.955,167.105L95.131,178.694L90.337,172.399L94.514,161.341ZM83.074,163.666L76.485,157.665L83.337,148.607L95.69,149.489L95.338,154.195L88.573,158.167L92.865,160.636L83.074,163.666ZM106.1,159.665L103.07,159.548L101.308,161.429L100.396,158.724L97.779,157.519L100.248,156.018L100.544,153.43L102.778,155.108L105.455,154.343L104.571,157.371L106.1,159.665ZM111.674,149.292L111.555,147.916C111.617,147.764 111.708,147.616 111.829,147.471C112.124,147.116 112.478,146.943 112.901,146.976C113.411,147.016 113.918,147.364 114.466,147.95C115.446,148.999 116.459,150.485 117.511,152.404C115.332,152.288 113.632,151.605 112.425,150.314C112.092,149.958 111.839,149.618 111.674,149.292ZM147.76,118.335C144.157,118 140.508,117.829 136.819,117.829C121.682,117.829 107.211,120.704 93.918,125.938L90.279,137.638L96.043,146.373L96.424,144.019L102.984,150.225L106.564,149.261C106.55,149.152 106.54,149.043 106.531,148.933C106.382,146.991 106.909,145.3 108.106,143.86C109.436,142.26 111.081,141.448 113.034,141.412C114.945,141.376 116.921,142.379 118.913,144.51C120.293,145.986 121.979,148.38 123.966,151.697C126.869,150.977 130.556,149.714 135.028,147.911C139.779,145.995 144.215,144.124 148.337,142.299C152.485,140.463 157.052,138.733 162.037,137.11C166.529,135.648 170.481,134.728 173.892,134.345C168.958,127.676 165.539,123.321 163.634,121.283C163.484,121.122 163.333,120.964 163.182,120.81C158.566,119.748 153.843,118.958 149.033,118.46C148.885,118.59 148.728,118.652 148.581,118.675C148.412,118.701 148.24,118.679 148.067,118.592C147.975,118.546 147.87,118.462 147.76,118.335ZM75.665,135.043C76.512,134.523 77.364,134.016 78.223,133.519L79.749,134.667L84.19,133.374L82.72,138.431L85.251,142.255L80.22,142.02L77.309,145.137L75.78,140.668L71.456,138.668L75.543,136.168L75.665,135.043ZM153.862,80.436L179.889,104.287L180.419,105.288L180.29,105.606L180.195,106.039L180.189,106.092C174.413,104.148 168.461,102.581 162.366,101.421L161.821,100.432L161.261,99.409L160.126,97.318C160.038,97.141 159.95,96.995 159.89,96.847C157.125,91.759 155.303,86.083 153.862,80.436ZM126.011,79.759C123.982,85.819 121.482,91.818 117.923,97.024L117.894,97.024C117.835,97.141 117.775,97.229 117.687,97.318C117.658,97.406 117.57,97.523 117.452,97.671L117.042,98.249L116.246,99.381L115.61,100.266L115.274,100.721C108.993,101.722 102.856,103.153 96.893,104.984L96.631,104.2L98.278,101.641L126.011,79.759ZM140.465,49.848L140.627,49.852C142.334,49.909 143.98,50.645 145.127,51.938C146.303,53.174 146.951,54.849 146.862,56.556C146.803,58.291 146.038,59.908 144.803,61.086C143.509,62.26 141.863,62.879 140.128,62.819C138.421,62.762 136.775,62.026 135.628,60.733C134.452,59.497 133.804,57.82 133.864,56.115C133.952,54.35 134.717,52.763 135.95,51.587C137.096,50.519 138.581,49.913 140.141,49.852L140.465,49.848ZM212.533,14.49L212.739,14.493C220.061,14.64 222.354,22.1 218.297,30.998C205.399,42.147 189.145,48.573 172.115,49.219L171.713,49.233C178.065,33.087 191.329,20.618 207.857,15.296C209.586,14.744 211.148,14.488 212.533,14.49ZM70.673,9.257C72.254,9.253 74.061,9.626 76.074,10.442C92.16,16.971 104.454,30.352 109.63,46.91C92.543,45.117 76.633,37.47 64.545,25.293C61.224,16.382 63.823,9.274 70.673,9.257Z" style="fill:none;stroke:rgb(255,0,0);stroke-width:1px;"/>
</svg>
