<?xml version="1.0" encoding="UTF-8" standalone="no"?>
<!DOCTYPE svg PUBLIC "-//W3C//DTD SVG 1.1//EN" "http://www.w3.org/Graphics/SVG/1.1/DTD/svg11.dtd">
<svg width="100%" height="100%" viewBox="0 0 1123 794" version="1.1" xmlns="http://www.w3.org/2000/svg" xmlns:xlink="http://www.w3.org/1999/xlink" xml:space="preserve" xmlns:serif="http://www.serif.com/" style="fill-rule:evenodd;clip-rule:evenodd;stroke-linejoin:round;stroke-miterlimit:2;">
    <path d="M144.768,40.265C146.525,40.302 148.11,40.912 149.422,41.91C150.863,43.057 151.891,44.704 152.273,46.587C152.802,46.587 182.859,16.178 188.975,12.177C194.836,8.337 202.831,5.966 211.003,5.93C211.404,5.929 211.807,5.932 212.21,5.942C221.975,6.413 230.502,10.413 234.032,19.412C239.942,32.998 232.913,47.381 232.854,60.821C232.825,76.702 247.707,93.348 235.179,108.435C229.972,113.729 222.856,118.846 215.857,121.903L215.797,121.903L214.909,122.185L213.44,122.66C235.271,137.575 252.544,158.68 262.718,183.428L263.146,184.482L263.635,185.717L264.183,187.147L264.715,188.58L264.956,189.247L265.465,190.694L265.958,192.147L266.475,193.735L266.941,195.223L267.39,196.719L267.822,198.222L268.318,200.033L268.765,201.757L269.14,203.283L269.499,204.816L269.84,206.356L270.097,207.582L270.267,208.418L270.567,209.973L270.849,211.533L271.113,213.1L271.309,214.338L271.419,215.073L271.66,216.779L271.864,218.366L272.05,219.958L272.182,221.204L272.257,221.958L272.366,223.158L272.397,223.517L272.519,225.075L272.624,226.63L272.71,228.177L272.746,228.945L272.807,230.524L272.85,232.102C272.861,232.627 272.87,233.152 272.875,233.676L272.882,235.204L272.88,235.812C272.877,236.27 272.873,236.727 272.866,237.183L272.845,238.277C272.836,238.637 272.827,238.997 272.816,239.357L272.77,240.666L272.707,242.056L272.66,242.916C272.616,243.693 272.566,244.469 272.509,245.242L272.378,246.891L272.235,248.448L272.115,249.632L271.964,250.996L271.773,252.558L271.607,253.813L271.429,255.064L271.176,256.717L270.983,257.897L270.743,259.275L270.405,261.091L270.108,262.584L269.863,263.752L269.428,265.714L269.074,267.212L268.795,268.344L268.42,269.801L268.042,271.21L267.725,272.344L267.361,273.601L266.892,275.16L266.363,276.838L265.822,278.487L265.452,279.56L265.025,280.738L264.863,281.178C264.752,281.514 264.639,281.848 264.5,282.186C263.205,285.714 261.764,289.155 260.177,292.537C259.764,293.448 259.353,294.331 258.911,295.213C258.206,296.654 257.441,298.096 256.707,299.508C256.647,299.565 256.619,299.654 256.588,299.713C255.177,302.329 253.677,304.919 252.09,307.419L251.385,308.513L250.98,309.103L250.316,310.136L249.767,310.943L249.354,311.546L249.354,311.565C249.088,312.005 248.794,312.416 248.472,312.829C247.32,314.5 246.13,316.138 244.904,317.745L244.816,317.86C243.221,319.948 241.565,321.984 239.854,323.976L239.073,324.871L238.079,325.991L237.478,326.655L236.874,327.314L236.265,327.97L235.652,328.622L235.034,329.27L234.413,329.913L233.787,330.553L233.157,331.188L232.523,331.819L231.885,332.446L231.243,333.069L230.597,333.688L229.946,334.303L229.292,334.913L228.634,335.519L227.305,336.718L225.961,337.9L224.601,339.064L223.226,340.21L221.835,341.339L220.43,342.45L219.251,343.358L218.294,344.082L217.12,344.95L216.125,345.672L214.957,346.501L213.924,347.22L212.763,348.011L211.691,348.725L210.538,349.478L209.428,350.187L208.283,350.903L207.134,351.605L205.999,352.284L204.81,352.979L203.686,353.621L202.128,354.488L200.557,355.336L199.718,355.777L198.921,356.19L198.122,356.597L197.319,356.999L196.514,357.396L195.706,357.788L194.894,358.175L194.08,358.556L193.263,358.932L192.443,359.303L191.621,359.668L190.795,360.029L189.967,360.383L189.136,360.733L188.303,361.077L187.466,361.416L186.627,361.749L185.472,362.197L184.208,362.674L183.508,362.932C175.658,365.798 167.471,367.962 159.021,369.348L157.605,369.572L156.197,369.781L154.318,370.035L152.436,370.263L150.549,370.465L148.516,370.653L146.646,370.8L144.654,370.927L142.787,371.02L140.923,371.087L139.53,371.121L138.144,371.142L136.819,371.148L135.472,371.141L135.01,371.136L133.308,371.103L132.116,371.068L131.571,371.048C131.011,371.027 130.452,371.002 129.893,370.974L128.91,370.921L128.07,370.87L126.787,370.783L125.344,370.67L124.595,370.605L123.757,370.528L122.78,370.431L121.461,370.29L119.917,370.108L119.147,370.01L118.622,369.94C61.059,362.253 14.891,318.582 3.474,262.277L3.239,261.09L2.955,259.579L2.689,258.062L2.439,256.54L2.206,255.012L1.989,253.478L1.79,251.939L1.609,250.395L1.444,248.846L1.295,247.267L1.199,246.139L1.071,244.412L1.03,243.782L0.93,242.013L0.887,241.098L0.867,240.61L0.814,239.101L0.782,237.765L0.762,236.427L0.756,235.069L0.761,233.92L0.78,232.504L0.814,231.055L0.874,229.343L0.941,227.924L1.04,226.215L1.16,224.51L1.339,222.399L1.503,220.733L1.754,218.52L1.965,216.867L2.116,215.769L2.36,214.126L2.623,212.491L2.832,211.276L3.004,210.32L3.25,209.022L3.391,208.305L3.7,206.805L3.847,206.115L4.228,204.413L4.525,203.156L4.699,202.441L5.07,200.971L5.248,200.286L5.705,198.602L6.047,197.393L6.255,196.679L6.685,195.245L7.142,193.78L7.652,192.213L8.179,190.657L8.724,189.112L9.286,187.576L9.865,186.051L10.462,184.535L11.076,183.028L11.589,181.809L12.228,180.334L12.884,178.867L13.557,177.41L14.247,175.963L14.953,174.524L15.675,173.096L16.414,171.677L17.169,170.268L17.681,169.334L18.2,168.404L18.727,167.479L19.26,166.559L19.8,165.643L20.347,164.732L20.901,163.825L21.462,162.923L21.995,162.081C24.011,158.918 26.155,155.843 28.418,152.865L29.105,151.969L30.119,150.673L31.137,149.404L32.163,148.156L33.2,146.924L34.249,145.708L35.309,144.506L36.64,143.037L37.833,141.756L39.206,140.322L40.549,138.958L41.845,137.678L43.198,136.376L44.743,134.932L46.31,133.513L47.5,132.464L48.702,131.429L49.916,130.407L51.142,129.4L52.38,128.406L53.63,127.427L54.892,126.462L56.165,125.511L57.449,124.575L58.745,123.654L60.052,122.747L61.369,121.855L62.698,120.978L64.037,120.117L64.936,119.551L65.84,118.992C65.398,118.817 65.044,118.669 64.75,118.492L64.722,118.492C55.281,115.374 48.341,108.758 41.958,101.287C30.577,85.318 46.666,69.791 47.751,53.967C48.723,40.557 42.782,25.706 49.694,12.56C53.84,3.853 62.664,0.531 72.427,0.768C81.014,1.208 89.338,4.267 95.161,8.707C107.57,18.236 119.159,31.999 128.776,45.146C128.776,44.116 130.394,42.292 132.157,41.293C133.276,40.617 134.598,40.263 136.01,40.263L144.597,40.263L144.768,40.265ZM233.106,301.981L233,302.134C230.483,303.681 227.993,305.253 225.474,306.802C223.721,307.892 224.466,310.555 226.475,310.623C225.699,311.543 224.907,312.453 224.102,313.349L223.767,313.36C222.62,313.389 221.681,314.328 221.65,315.475C221.645,315.641 221.659,315.803 221.69,315.957C200.328,338.368 170.192,352.34 136.819,352.34C129.603,352.34 122.539,351.687 115.679,350.436L134.186,327.506L164.772,329.681L159.508,320.888L165.184,312.093L175.802,312.975L170.243,303.566L173.565,295.625L181.093,299.3L186.535,320.035L200.475,303.418L218.297,304.448C218.326,304.8 218.445,305.153 218.65,305.447C219.327,306.417 220.62,306.683 221.621,306.066C224.267,304.448 226.915,302.799 229.591,301.155C230.762,301.438 231.935,301.697 233.106,301.981ZM107.895,341.033L113.364,348.678L110.159,337.003L107.895,341.033ZM104.571,345.769L100.63,345.592L99.878,346.393C99.065,346.123 98.255,345.844 97.449,345.556L97.102,344.532L93.718,342.975L96.925,341.004L97.306,337.591L100.219,339.797L103.749,338.798L102.571,342.768L104.571,345.769ZM85.131,273.303L79.354,270.4L80.178,272.648C80.193,272.692 80.209,272.736 80.222,272.78C81.181,275.96 79.411,279.432 76.27,280.531C74.342,281.206 72.35,280.866 70.84,279.792C71.014,281.638 70.315,283.537 68.77,284.872C67.596,285.888 66.126,286.394 64.662,286.394C62.977,286.394 61.301,285.725 60.085,284.426C60.052,284.392 60.022,284.357 59.993,284.321L57.193,280.956L57.193,288.369C57.193,291.684 54.444,294.418 50.997,294.418C47.547,294.418 44.798,291.684 44.798,288.369L44.798,280.956L41.998,284.321C41.969,284.357 41.939,284.392 41.906,284.426C39.633,286.853 35.746,287.057 33.221,284.874L33.221,284.872C31.676,283.537 30.977,281.638 31.152,279.792C30.457,280.285 29.66,280.624 28.814,280.779C39.992,307.142 60.547,328.582 86.29,340.908L91.19,337.739L92.396,325.651L101.189,333.062L108.66,330.739L105.749,320.828L76.779,308.771L84.691,302.624L82.543,295.744L74.367,291.949L81.926,286.273L82.749,277.684L87.308,281.333L85.131,273.303ZM117.923,310.182L108.954,306.066L117.395,300.861L118.423,291.83L126.187,297.713L135.451,295.037L132.392,305.535L137.657,313.475L127.187,312.975L121.099,319.533L117.923,310.182ZM158.478,319.476L151.155,307.801L156.126,310.066L158.478,319.476ZM156.891,305.007L159.832,303.212L160.184,300.067L162.889,302.125L166.096,301.183L165.036,304.83L166.861,307.595L163.243,307.419L161.125,309.711L160.007,306.448L156.891,305.007ZM169.832,294.508L163.95,296.566L155.684,289.92L154.539,300.772L148.686,303.77L158.714,273.038L151.862,274.421L157.803,267.421L179.124,269.362L177.948,279.302L160.979,290.508L169.832,294.508ZM223.767,299.771C222.62,300.476 221.444,301.212 220.268,301.948L218.827,299.713C219.267,299.448 219.709,299.183 220.151,298.889C221.356,299.183 222.561,299.477 223.767,299.771ZM91.073,297.625L88.014,301.654L94.543,297.832L91.073,297.625ZM236.347,278.04C236.718,279.55 237.168,281.493 237.414,282.332C235.855,281.479 234.297,280.656 232.737,279.803C231.678,279.244 230.414,279.657 229.914,280.745C229.414,281.773 229.854,283.068 230.856,283.596C233.619,285.068 236.355,286.567 239.12,288.037C239.398,288.992 239.678,289.929 239.958,290.875L239.692,291.362C237.18,290.008 234.692,288.656 232.178,287.303C230.296,286.304 228.325,288.419 229.414,290.214C231.002,292.802 232.591,295.39 234.178,297.978C232.973,297.682 231.737,297.39 230.531,297.123C228.915,294.449 227.268,291.772 225.65,289.124C225.032,288.125 223.738,287.802 222.737,288.331C221.681,288.89 221.356,290.183 221.975,291.213C222.885,292.712 223.798,294.214 224.738,295.744C223.533,295.448 222.326,295.154 221.091,294.862C220.12,293.244 219.121,291.624 218.12,289.979C217.503,289.009 216.208,288.655 215.209,289.213C214.15,289.772 213.827,291.067 214.444,292.068C214.709,292.537 215.003,293.008 215.297,293.478C215.092,293.448 214.886,293.39 214.679,293.332L210.092,286.304L217.563,265.832L196.505,270.363L181.418,258.158L184.8,253.892L193.977,254.57L189.181,246.452L192.351,238.004C195.497,238.302 198.661,238.147 201.845,237.54C201.645,237.945 201.458,238.364 201.282,238.794C200.558,240.568 200.259,242.478 200.384,244.524C200.51,246.571 201.229,248.296 202.541,249.699C203.612,250.844 204.656,251.707 205.674,252.287C207.907,253.995 210.51,254.826 213.485,254.78C215.042,254.755 216.955,254.434 219.22,253.815C217.789,255.751 216.931,257.668 216.649,259.567C216.322,261.765 216.883,263.64 218.333,265.192C220.371,267.371 223.85,267.737 228.771,266.29L228.658,266.425C227.425,267.909 226.768,269.543 226.688,271.327C226.608,273.11 227.121,274.593 228.226,275.775C228.985,276.588 229.717,277.179 230.42,277.549C231.124,277.919 232.172,278.149 233.566,278.238C234.35,278.288 235.277,278.222 236.347,278.04ZM202.504,293.509L195.447,293.184L191.358,297.567L189.212,291.301L183.182,288.507L188.858,285.008L189.565,278.948L194.77,282.891L201.006,281.098L198.946,288.154L202.504,293.509ZM92.631,293.39L89.278,293.213L87.308,295.331L86.279,292.331L83.396,291.007L86.132,289.332L86.455,286.419L88.926,288.302L91.926,287.449L90.927,290.83L92.631,293.39ZM95.661,275.126L103.66,275.774L102.836,292.331L98.924,294.566L95.807,289.772L98.543,281.596L89.338,283.271L95.661,275.126ZM247.212,274.673C247.084,275.028 246.956,275.381 246.825,275.733L246.796,275.714C245.766,275.096 244.5,275.42 243.912,276.479C243.09,278.039 242.236,279.569 241.383,281.125C241.147,280.34 240.724,278.514 240.362,277.036C242.287,276.45 244.57,275.662 247.212,274.673ZM98.806,255.804L106.454,245.776L120.717,247.071L112.218,252.716L135.51,262.245L139.303,278.155L128.657,280.979L104.542,260.512L103.66,269.596L100.984,266.009L104.69,255.07L98.806,255.804ZM33.617,275.518L35.978,260.906L44.798,256.088L45.284,265.759L33.617,275.518ZM68.374,275.516L56.423,266.816L57.193,256.088L66.785,261.932L68.374,275.516ZM251.286,260.597C250.463,264.303 249.463,267.944 248.297,271.51L248.313,271.266C248.356,271.058 248.27,270.965 248.054,270.989C243.846,272.52 240.347,273.513 237.555,273.968C234.764,274.422 233.109,274.373 232.591,273.819C232.108,273.301 232.203,272.638 232.876,271.828C233.81,270.704 235.458,269.408 237.819,267.941C239.966,266.606 244.455,264.158 251.286,260.597ZM95.955,263.598C95.955,263.598 93.726,264.232 93.726,264.232C94.485,265.959 94.443,268.037 93.413,269.845L96.72,269.979C96.72,269.979 94.896,267.246 94.896,267.246L95.955,263.598ZM169.743,249.334L176.007,252.188L179.241,263.569L169.743,249.334ZM242.13,257.515C243.504,256.097 244.411,254.731 244.851,253.417C245.29,252.103 245.199,251.114 244.578,250.449C243.508,249.304 241.6,249.047 238.857,249.68C236.113,250.313 233.35,251.479 230.57,253.177C227.789,254.874 225.669,256.6 224.212,258.354C223.539,259.164 223.136,259.943 223.002,260.693C222.869,261.442 222.992,262.02 223.372,262.426C224.926,264.088 229.352,263.471 236.651,260.575C238.115,259.677 239.941,258.657 242.13,257.515ZM137.657,250.424L144.568,246.216L145.391,238.864L151.685,243.658L159.242,241.481L156.745,250.011L161.037,256.48L152.508,256.069L147.568,261.394L144.979,253.804L137.657,250.424ZM93.065,254.373C92.686,254.936 92.218,255.437 91.68,255.854L93.838,257.628C93.838,257.628 93.065,254.373 93.065,254.373ZM171.434,123.032C219.278,137.817 254.074,182.42 254.074,235.085C254.074,242.578 253.37,249.908 252.024,257.012L249.442,254.25C249.2,253.992 248.915,253.942 248.587,254.101C247.966,254.456 247.601,254.66 247.492,254.713C248.659,252.053 248.241,249.652 246.238,247.509C244.684,245.847 242.67,244.818 240.195,244.421C237.719,244.025 235.242,244.199 232.763,244.946C230.284,245.692 227.892,246.765 225.587,248.165C225.45,248.248 225.314,248.331 225.181,248.416C220.423,250.071 216.554,250.822 213.574,250.67C214.871,249.423 216.241,247.873 217.684,246.018C219.127,244.164 220.435,242.355 221.606,240.593C222.778,238.83 224.095,237.265 225.557,235.898C227.019,234.531 228.414,233.794 229.743,233.686C230.267,233.057 230.514,232.132 230.484,230.911C230.455,229.69 230.061,228.674 229.301,227.861C227.747,226.199 225.863,225.797 223.649,226.657C218.461,228.653 214.248,230.195 211.008,231.282C210.967,231.286 210.918,231.301 210.862,231.329L210.836,231.34C209.299,231.853 207.986,232.263 206.897,232.567C206.262,232.352 205.544,232.618 204.744,233.365C199.952,234.52 195.268,234.592 190.692,233.582C193.153,229.758 193.72,225.819 192.393,221.765C193.931,221.797 197.015,221.952 201.643,222.231C206.271,222.509 209.855,222.69 212.395,222.774C213.08,222.656 213.742,222.133 214.384,221.205C215.025,220.277 215.5,219.214 215.811,218.016C216.121,216.819 216.067,216.04 215.65,215.678C214.396,214.676 212.416,212.898 209.712,210.345C207.007,207.791 205.258,206.089 204.463,205.24C204.325,205.092 204.223,204.94 204.157,204.785C205.051,203.787 205.689,202.706 206.069,201.542C206.45,200.377 206.312,199.444 205.656,198.742C205.104,198.151 204.185,198.06 202.899,198.469C201.614,198.878 200.485,199.667 199.513,200.836C198.579,201.96 197.962,203.212 197.663,204.592C194.694,205.986 191.511,207.342 188.113,208.661C184.461,209.938 181.382,210.781 178.874,211.19C176.082,211.644 174.428,211.594 173.91,211.04C173.426,210.523 173.521,209.86 174.194,209.05C175.128,207.926 176.849,206.581 179.357,205.016C181.865,203.451 187.477,200.406 196.194,195.883C196.34,195.785 196.434,195.652 196.476,195.484C196.518,195.316 196.487,195.177 196.383,195.066L192.291,190.689C192.05,190.43 191.746,190.403 191.381,190.607C186.02,193.368 181.897,195.583 179.009,197.252C174.836,198.82 171.355,199.811 168.565,200.225C165.775,200.638 164.035,200.476 163.344,199.737C162.861,199.22 162.955,198.557 163.628,197.747C164.563,196.623 166.284,195.278 168.791,193.713C171.299,192.147 176.911,189.103 185.628,184.58C185.774,184.482 185.869,184.349 185.91,184.181C185.952,184.013 185.921,183.874 185.817,183.763L181.726,179.386C181.484,179.127 181.199,179.077 180.871,179.236C175.255,182.148 170.975,184.473 168.031,186.209C167.831,186.328 167.635,186.444 167.443,186.557C162.657,188.228 158.767,188.987 155.773,188.833C157.069,187.587 158.44,186.037 159.883,184.182C161.326,182.328 162.634,180.519 163.805,178.757C164.977,176.994 166.293,175.429 167.756,174.062C169.218,172.695 170.613,171.958 171.942,171.85C172.465,171.221 172.712,170.295 172.683,169.075C172.654,167.854 172.26,166.837 171.5,166.025C169.946,164.362 168.062,163.961 165.848,164.82C158.08,167.81 152.496,169.78 149.096,170.731C148.282,170.455 147.333,170.969 146.249,172.273C145.746,172.879 145.282,173.528 144.859,174.219C142.002,177.418 138.192,176.471 133.431,171.378C130.6,168.349 127.596,164.115 124.418,158.677C128.301,158.243 132.836,157.084 138.023,155.199C143.21,153.313 147.898,151.362 152.087,149.343C156.275,147.325 160.676,145.385 165.289,143.523C169.902,141.662 173.612,140.533 176.42,140.138C177.827,141.898 179.221,143.517 180.602,144.995C181.81,146.287 183.076,146.982 184.397,147.08C185.719,147.177 186.791,146.73 187.613,145.741C188.436,144.752 188.734,143.627 188.51,142.367C188.285,141.107 187.775,140.052 186.981,139.203C184.909,136.986 182.31,135.522 179.183,134.811C177.747,132.85 175.324,129.174 171.912,123.782L171.434,123.032ZM177.771,247.63L179.977,246.275L180.242,243.924L182.271,245.453L184.683,244.775L183.889,247.511L185.242,249.569L182.534,249.452L180.947,251.158L180.094,248.718L177.771,247.63ZM19.892,243.913L30.396,239.854L39.892,245.33L30.696,251.158L20.154,246.913C20.055,245.921 19.967,244.919 19.892,243.913ZM85.767,245.33L71.954,250.362L62.099,245.33L72.204,240.111L85.767,245.33ZM170.575,242.134C171.819,242.36 173.14,242.457 174.537,242.425C174.769,242.42 174.999,242.411 175.228,242.399L175.154,243.424L168.771,246.775L170.575,242.134ZM90.909,245.299L90.892,245.226C90.821,245.263 90.748,245.297 90.675,245.33C90.767,245.374 90.859,245.418 90.949,245.466L90.909,245.299ZM136.951,215.603L134.158,214.25L133.128,238.953L124.099,244.982L114.747,230.777L121.159,213.484L107.513,216.397L113.805,208.336L131.216,209.631L135.804,211.22L136.951,215.603ZM207.124,236.126C205.963,237.306 205.166,238.598 204.732,240C204.268,241.5 204.502,242.749 205.434,243.746C205.952,244.3 206.505,244.616 207.094,244.693C207.682,244.77 208.305,244.608 208.964,244.208C209.622,243.808 210.266,243.329 210.894,242.769C211.522,242.209 212.211,241.459 212.96,240.518C213.709,239.578 214.402,238.685 215.041,237.838C215.679,236.992 216.421,236.001 217.266,234.866C218.111,233.731 218.852,232.782 219.487,232.017C215.324,233.446 211.873,234.565 209.134,235.375C208.463,235.645 207.793,235.895 207.124,236.126ZM108.423,237.6L102.159,237.308L98.513,241.218L96.601,235.629L91.221,233.158L96.278,230.041L96.897,224.63L101.543,228.16L107.101,226.542L105.276,232.835L108.423,237.6ZM191.218,237.878L184.029,239.875C185.306,239.148 186.518,238.264 187.665,237.225C188.846,237.507 190.03,237.725 191.218,237.878ZM174.606,231.762L173.123,235.578C173.992,235.616 174.86,235.582 175.726,235.475L175.802,234.426L176.886,235.289C177.864,235.095 178.839,234.809 179.811,234.431C178.577,233.875 177.187,233.174 175.641,232.327L174.606,231.762ZM33.617,215.144L45.803,224.221L44.798,234.574L35.216,230.049L33.617,215.144ZM68.374,215.144L65.894,229.603L57.193,234.572L57.247,224.607L68.374,215.144ZM127.491,177.754C127.89,178.291 128.334,178.877 128.824,179.511C129.39,180.244 129.966,180.924 130.553,181.552C131.658,182.734 132.859,183.467 134.156,183.75C135.454,184.034 136.721,183.902 137.957,183.356C139.194,182.81 140.328,182.132 141.358,181.324C141.8,180.977 142.229,180.606 142.646,180.21C142.552,181.013 142.531,181.839 142.583,182.688C142.709,184.734 143.428,186.459 144.74,187.863C145.81,189.008 146.855,189.871 147.873,190.45C150.106,192.159 152.709,192.99 155.683,192.943C156.846,192.925 158.206,192.742 159.763,192.392C159.715,192.449 159.666,192.507 159.618,192.565C158.347,194.094 157.655,195.712 157.542,197.417C157.429,199.123 157.908,200.548 158.978,201.694C161.188,204.058 165.11,204.558 170.745,203.194C170.595,203.374 170.408,203.599 170.184,203.868C168.913,205.398 168.213,207.006 168.082,208.693C167.952,210.38 168.439,211.815 169.544,212.997C170.304,213.81 171.035,214.401 171.739,214.771C172.442,215.141 173.491,215.371 174.884,215.46C176.278,215.549 178.123,215.272 180.42,214.627C182.098,214.156 184.095,213.492 186.409,212.634C186.456,212.65 186.516,212.646 186.586,212.623C190.725,211.018 194.467,209.498 197.811,208.064C198.044,208.568 198.334,209.005 198.679,209.374C200.164,210.963 203.398,213.743 208.381,217.714C203.9,217.848 197.743,217.761 189.91,217.453C189.876,217.416 189.858,217.397 189.858,217.397C189.41,216.917 188.793,216.619 188.009,216.503C187.226,216.386 186.591,216.62 186.105,217.205C185.245,218.239 184.879,219.229 185.008,220.173C185.136,221.117 185.719,221.593 186.758,221.599C186.902,221.583 187.26,221.584 187.832,221.602C188.391,223.049 188.511,224.473 188.194,225.875C187.876,227.278 187.269,228.518 186.372,229.598C185.812,230.272 185.18,230.914 184.479,231.523C182.75,230.778 180.805,229.802 178.645,228.595C177.818,228.133 177.05,227.702 176.339,227.302L177.446,224.453L173.183,225.512C171.865,224.767 170.502,224.131 169.095,223.603C167.628,223.053 166.289,222.938 165.078,223.257C163.867,223.576 162.757,224.342 161.748,225.556C160.909,226.566 160.328,227.641 160.006,228.782L153.743,230.337L140.422,219.337L145.892,213.72L155.861,214.22L150.596,205.25L154.274,194.25L143.481,197.28L135.422,189.809L134.01,201.427L129.863,203.515L122.306,192.398L127.491,177.754ZM81.367,214.368L80.453,215.505C80.529,216.287 80.46,217.092 80.222,217.88C80.209,217.926 80.195,217.97 80.178,218.015L78.666,222.142L85.066,218.437C86.073,217.855 87.185,217.602 88.282,217.649L88.425,215.19L81.367,214.368ZM64.079,143.141L70.546,145.608L72.309,151.812L72.104,167.459L61.28,174.605L73.22,179.604L77.192,191.927L84.455,182.341L94.748,183.163L94.574,185.811L78.604,196.25L83.984,199.367L80.191,200.339L72.897,194.369L71.956,203.573L68.783,205.8L68.77,205.788C66.245,203.605 62.358,203.809 60.085,206.234C60.052,206.269 60.022,206.305 59.993,206.34L57.193,209.706L57.193,202.293C57.193,198.979 54.444,196.242 50.997,196.242C47.547,196.242 44.798,198.979 44.798,202.293L44.798,209.706L41.998,206.34C41.969,206.305 41.939,206.269 41.906,206.234C39.633,203.809 35.746,203.605 33.221,205.788C31.676,207.124 30.977,209.024 31.152,210.871C29.641,209.796 27.649,209.456 25.722,210.131C22.578,211.23 20.81,214.7 21.769,217.88C21.783,217.926 21.796,217.97 21.813,218.015L23.325,222.142L20.466,220.486C24.353,189.233 40.563,161.778 64.079,143.141ZM85.514,207.014L88.102,200.839L96.601,204.074L99.043,213.808L89.278,205.925L89.132,206.044L88.308,210.955L85.514,207.014ZM82.514,210.544L80.985,208.221L81.867,205.193L79.19,205.955L76.956,204.28L76.662,206.868L74.192,208.398L76.81,209.574L77.123,210.504C77.62,210.767 78.073,211.095 78.475,211.475L79.486,210.398L82.514,210.544ZM146.862,208.692L143.215,208.544L141.127,210.807L140.01,207.573L136.892,206.132L139.834,204.309L140.185,201.192L142.862,203.219L146.098,202.31L145.039,205.955L146.862,208.692ZM103.629,192.104L104.248,186.693L108.894,190.222L114.453,188.605L112.601,194.897L115.777,199.663L109.482,199.367L105.835,203.281L103.923,197.691L98.543,195.22L103.629,192.104ZM147.633,181.91C148.151,182.464 148.704,182.779 149.292,182.857C149.881,182.934 150.504,182.772 151.163,182.372C151.821,181.972 152.465,181.492 153.093,180.933C153.721,180.373 154.41,179.623 155.159,178.682C155.908,177.742 156.601,176.848 157.24,176.002C157.878,175.155 158.62,174.165 159.465,173.03C160.31,171.895 161.05,170.946 161.686,170.181C156.575,171.935 152.537,173.223 149.572,174.044C148.275,175.29 147.395,176.663 146.931,178.164C146.467,179.664 146.701,180.912 147.633,181.91ZM77.897,171.429L78.337,167.43L81.778,170.016L85.896,168.84L84.543,173.488L86.866,177.018L82.22,176.782L79.544,179.693L78.132,175.546L74.133,173.723L77.897,171.429ZM109.994,156.184C112.372,157.625 115.102,158.484 118.184,158.762C118.247,158.999 118.543,159.762 119.071,161.049C119.6,162.336 119.939,163.145 120.088,163.475C120.238,163.805 120.56,164.575 121.056,165.784C121.551,166.994 121.916,167.83 122.15,168.293C122.385,168.757 122.761,169.52 123.279,170.584C123.797,171.648 124.217,172.458 124.538,173.014C124.859,173.57 125.29,174.307 125.831,175.226L125.854,175.265L109.924,179.399L99.925,169.899L105.19,163.989L114.276,164.488L109.747,157.196L109.994,156.184ZM94.514,161.341L96.985,162.165L98.159,168.871L95.955,167.105L95.131,178.694L90.337,172.399L94.514,161.341ZM83.074,163.666L76.485,157.665L83.337,148.607L95.69,149.489L95.338,154.195L88.573,158.167L92.865,160.636L83.074,163.666ZM106.1,159.665L103.07,159.548L101.308,161.429L100.396,158.724L97.779,157.519L100.248,156.018L100.544,153.43L102.778,155.108L105.455,154.343L104.571,157.371L106.1,159.665ZM111.061,151.808C112.286,152.331 113.747,152.568 115.446,152.52C114.171,150.051 112.947,148.189 111.773,146.933C111.082,146.194 110.416,145.799 109.773,145.749C109.13,145.698 108.584,145.943 108.136,146.482C107.524,147.218 107.426,148.03 107.842,148.916L112.042,147.785L111.061,151.808ZM161.001,120.331C163.017,122.502 166.666,127.17 171.948,134.334C168.321,134.617 164.026,135.566 159.063,137.181C154.101,138.797 149.555,140.518 145.427,142.346C141.298,144.174 136.855,146.048 132.097,147.966C127.339,149.885 123.461,151.196 120.464,151.898C118.401,148.416 116.661,145.917 115.245,144.403C113.415,142.445 111.622,141.483 109.866,141.516C108.11,141.549 106.634,142.285 105.438,143.724C104.354,145.028 103.88,146.56 104.016,148.32C104.057,148.851 104.153,149.367 104.305,149.869L102.984,150.225L96.424,144.019L96.043,146.373L90.279,137.638L93.918,125.938C107.211,120.704 121.682,117.829 136.819,117.829C145.109,117.829 153.199,118.691 161.001,120.331ZM75.665,135.043C76.512,134.523 77.364,134.016 78.223,133.519L79.749,134.667L84.19,133.374L82.72,138.431L85.251,142.255L80.22,142.02L77.309,145.137L75.78,140.668L71.456,138.668L75.543,136.168L75.665,135.043ZM153.862,80.436L179.889,104.287L180.419,105.288L180.29,105.606L180.195,106.039L180.189,106.092C174.413,104.148 168.461,102.581 162.366,101.421L161.821,100.432L161.261,99.409L160.126,97.318C160.038,97.141 159.95,96.995 159.89,96.847C157.125,91.759 155.303,86.083 153.862,80.436ZM126.011,79.759C123.982,85.819 121.482,91.818 117.923,97.024L117.894,97.024C117.835,97.141 117.775,97.229 117.687,97.318C117.658,97.406 117.57,97.523 117.452,97.671L117.042,98.249L116.246,99.381L115.61,100.266L115.274,100.721C108.993,101.722 102.856,103.153 96.893,104.984L96.631,104.2L98.278,101.641L126.011,79.759ZM140.465,49.848L140.627,49.852C142.334,49.909 143.98,50.645 145.127,51.938C146.303,53.174 146.951,54.849 146.862,56.556C146.803,58.291 146.038,59.908 144.803,61.086C143.509,62.26 141.863,62.879 140.128,62.819C138.421,62.762 136.775,62.026 135.628,60.733C134.452,59.497 133.804,57.82 133.864,56.115C133.952,54.35 134.717,52.763 135.95,51.587C137.096,50.519 138.581,49.913 140.141,49.852L140.465,49.848ZM212.533,14.49L212.739,14.493C220.061,14.64 222.354,22.1 218.297,30.998C205.399,42.147 189.145,48.573 172.115,49.219L171.713,49.233C178.065,33.087 191.329,20.618 207.857,15.296C209.586,14.744 211.148,14.488 212.533,14.49ZM70.673,9.257C72.254,9.253 74.061,9.626 76.074,10.442C92.16,16.971 104.454,30.352 109.63,46.91C92.543,45.117 76.633,37.47 64.545,25.293C61.224,16.382 63.823,9.274 70.673,9.257Z" style="fill:none;stroke:rgb(255,0,0);stroke-width:1px;"/>
</svg>
