  0
SECTION
  2
HEADER
  9
$ACADVER
  1
AC1014
  9
$ACADMAINTVER
 70
     9
  9
$DWGCODEPAGE
  3
ANSI_1252
  9
$INSBASE
 10
0.0
 20
0.0
 30
0.0
  9
$EXTMIN
 10
1.000000000000000E+20
 20
1.000000000000000E+20
 30
1.000000000000000E+20
  9
$EXTMAX
 10
-1.000000000000000E+20
 20
-1.000000000000000E+20
 30
-1.000000000000000E+20
  9
$LIMMIN
 10
0.0
 20
0.0
  9
$LIMMAX
 10
12.0
 20
9.0
  9
$ORTHOMODE
 70
     0
  9
$REGENMODE
 70
     1
  9
$FILLMODE
 70
     1
  9
$QTEXTMODE
 70
     0
  9
$MIRRTEXT
 70
     1
  9
$DRAGMODE
 70
     2
  9
$LTSCALE
 40
1.0
  9
$OSMODE
 70
    37
  9
$ATTMODE
 70
     1
  9
$TEXTSIZE
 40
0.2
  9
$TRACEWID
 40
0.05
  9
$TEXTSTYLE
  7
STANDARD
  9
$CLAYER
  8
0
  9
$CELTYPE
  6
BYLAYER
  9
$CECOLOR
 62
   256
  9
$CELTSCALE
 40
1.0
  9
$DELOBJ
 70
     1
  9
$DISPSILH
 70
     0
  9
$DIMSCALE
 40
1.0
  9
$DIMASZ
 40
0.18
  9
$DIMEXO
 40
0.0625
  9
$DIMDLI
 40
0.38
  9
$DIMRND
 40
0.0
  9
$DIMDLE
 40
0.0
  9
$DIMEXE
 40
0.18
  9
$DIMTP
 40
0.0
  9
$DIMTM
 40
0.0
  9
$DIMTXT
 40
0.18
  9
$DIMCEN
 40
0.09
  9
$DIMTSZ
 40
0.0
  9
$DIMTOL
 70
     0
  9
$DIMLIM
 70
     0
  9
$DIMTIH
 70
     1
  9
$DIMTOH
 70
     1
  9
$DIMSE1
 70
     0
  9
$DIMSE2
 70
     0
  9
$DIMTAD
 70
     0
  9
$DIMZIN
 70
     0
  9
$DIMBLK
  1

  9
$DIMASO
 70
     1
  9
$DIMSHO
 70
     1
  9
$DIMPOST
  1

  9
$DIMAPOST
  1

  9
$DIMALT
 70
     0
  9
$DIMALTD
 70
     2
  9
$DIMALTF
 40
25.4
  9
$DIMLFAC
 40
1.0
  9
$DIMTOFL
 70
     0
  9
$DIMTVP
 40
0.0
  9
$DIMTIX
 70
     0
  9
$DIMSOXD
 70
     0
  9
$DIMSAH
 70
     0
  9
$DIMBLK1
  1

  9
$DIMBLK2
  1

  9
$DIMSTYLE
  2
STANDARD
  9
$DIMCLRD
 70
     0
  9
$DIMCLRE
 70
     0
  9
$DIMCLRT
 70
     0
  9
$DIMTFAC
 40
1.0
  9
$DIMGAP
 40
0.09
  9
$DIMJUST
 70
     0
  9
$DIMSD1
 70
     0
  9
$DIMSD2
 70
     0
  9
$DIMTOLJ
 70
     1
  9
$DIMTZIN
 70
     0
  9
$DIMALTZ
 70
     0
  9
$DIMALTTZ
 70
     0
  9
$DIMFIT
 70
     3
  9
$DIMUPT
 70
     0
  9
$DIMUNIT
 70
     2
  9
$DIMDEC
 70
     4
  9
$DIMTDEC
 70
     4
  9
$DIMALTU
 70
     2
  9
$DIMALTTD
 70
     2
  9
$DIMTXSTY
  7
STANDARD
  9
$DIMAUNIT
 70
     0
  9
$LUNITS
 70
     2
  9
$LUPREC
 70
     4
  9
$SKETCHINC
 40
0.1
  9
$FILLETRAD
 40
0.5
  9
$AUNITS
 70
     0
  9
$AUPREC
 70
     0
  9
$MENU
  1
.
  9
$ELEVATION
 40
0.0
  9
$PELEVATION
 40
0.0
  9
$THICKNESS
 40
0.0
  9
$LIMCHECK
 70
     0
  9
$CHAMFERA
 40
0.5
  9
$CHAMFERB
 40
0.5
  9
$CHAMFERC
 40
1.0
  9
$CHAMFERD
 40
0.0
  9
$SKPOLY
 70
     0
  9
$TDCREATE
 40
2459455.469339757
  9
$TDUPDATE
 40
2459455.469339873
  9
$TDINDWG
 40
0.0000000116
  9
$TDUSRTIMER
 40
0.0000000116
  9
$USRTIMER
 70
     1
  9
$ANGBASE
 50
0.0
  9
$ANGDIR
 70
     0
  9
$PDMODE
 70
     0
  9
$PDSIZE
 40
0.0
  9
$PLINEWID
 40
0.0
  9
$COORDS
 70
     1
  9
$SPLFRAME
 70
     0
  9
$SPLINETYPE
 70
     6
  9
$SPLINESEGS
 70
     8
  9
$ATTDIA
 70
     0
  9
$ATTREQ
 70
     1
  9
$HANDLING
 70
     1
  9
$HANDSEED
  5
1F2
  9
$SURFTAB1
 70
     6
  9
$SURFTAB2
 70
     6
  9
$SURFTYPE
 70
     6
  9
$SURFU
 70
     6
  9
$SURFV
 70
     6
  9
$UCSNAME
  2

  9
$UCSORG
 10
0.0
 20
0.0
 30
0.0
  9
$UCSXDIR
 10
1.0
 20
0.0
 30
0.0
  9
$UCSYDIR
 10
0.0
 20
1.0
 30
0.0
  9
$PUCSNAME
  2

  9
$PUCSORG
 10
0.0
 20
0.0
 30
0.0
  9
$PUCSXDIR
 10
1.0
 20
0.0
 30
0.0
  9
$PUCSYDIR
 10
0.0
 20
1.0
 30
0.0
  9
$USERI1
 70
     0
  9
$USERI2
 70
     0
  9
$USERI3
 70
     0
  9
$USERI4
 70
     0
  9
$USERI5
 70
     0
  9
$USERR1
 40
0.0
  9
$USERR2
 40
0.0
  9
$USERR3
 40
0.0
  9
$USERR4
 40
0.0
  9
$USERR5
 40
0.0
  9
$WORLDVIEW
 70
     1
  9
$SHADEDGE
 70
     3
  9
$SHADEDIF
 70
    70
  9
$TILEMODE
 70
     1
  9
$MAXACTVP
 70
    64
  9
$PINSBASE
 10
0.0
 20
0.0
 30
0.0
  9
$PLIMCHECK
 70
     0
  9
$PEXTMIN
 10
1.000000000000000E+20
 20
1.000000000000000E+20
 30
1.000000000000000E+20
  9
$PEXTMAX
 10
-1.000000000000000E+20
 20
-1.000000000000000E+20
 30
-1.000000000000000E+20
  9
$PLIMMIN
 10
0.0
 20
0.0
  9
$PLIMMAX
 10
12.0
 20
9.0
  9
$UNITMODE
 70
     0
  9
$VISRETAIN
 70
     1
  9
$PLINEGEN
 70
     0
  9
$PSLTSCALE
 70
     1
  9
$TREEDEPTH
 70
  3020
  9
$PICKSTYLE
 70
     1
  9
$CMLSTYLE
  2
STANDARD
  9
$CMLJUST
 70
     0
  9
$CMLSCALE
 40
1.0
  9
$PROXYGRAPHICS
 70
     1
  9
$MEASUREMENT
 70
     0
  0
ENDSEC
  0
SECTION
  2
CLASSES
  0
CLASS
  1
ACDBDICTIONARYWDFLT
  2
AcDbDictionaryWithDefault
  3
ObjectDBX Classes
 90
        0
280
     0
281
     0
  0
CLASS
  1
VISUALSTYLE
  2
AcDbVisualStyle
  3
ObjectDBX Classes
 90
     4095
280
     0
281
     0
  0
CLASS
  1
MATERIAL
  2
AcDbMaterial
  3
ObjectDBX Classes
 90
     1153
280
     0
281
     0
  0
CLASS
  1
SUN
  2
AcDbSun
  3
SCENEOE
 90
     1024
280
     0
281
     0
  0
CLASS
  1
DICTIONARYVAR
  2
AcDbDictionaryVar
  3
ObjectDBX Classes
 90
        0
280
     0
281
     0
  0
CLASS
  1
XRECORD
  2
AcDbXrecord
  3
AutoCAD 2000
 90
        0
280
     0
281
     0
  0
CLASS
  1
LWPOLYLINE
  2
AcDbPolyline
  3
AutoCAD 2000
 90
        0
280
     0
281
     1
  0
CLASS
  1
HATCH
  2
AcDbHatch
  3
AutoCAD 2000
 90
        0
280
     0
281
     1
  0
CLASS
  1
ACDBPLACEHOLDER
  2
AcDbPlaceHolder
  3
ObjectDBX Classes
 90
        0
280
     0
281
     0
  0
CLASS
  1
LAYOUT
  2
AcDbLayout
  3
ObjectDBX Classes
 90
        0
280
     0
281
     0
  0
ENDSEC
  0
SECTION
  2
TABLES
  0
TABLE
  2
VPORT
  5
8
330
0
100
AcDbSymbolTable
 70
     1
  0
VPORT
  5
29
330
8
100
AcDbSymbolTableRecord
100
AcDbViewportTableRecord
  2
*ACTIVE
 70
     0
 10
0.0
 20
0.0
 11
1.0
 21
1.0
 12
0.0
 22
0.0
 13
0.0
 23
0.0
 14
0.5
 24
0.5
 15
0.5
 25
0.5
 16
0.0
 26
0.0
 36
1.0
 17
46.40000152587891
 27
63.09999847412109
 37
0.0
 40
126.1999969482422
 41
0.7353407709654497
 42
50.0
 43
0.0
 44
0.0
 50
0.0
 51
0.0
 71
     0
 72
   100
 73
     1
 74
     3
 75
     0
 76
     0
 77
     0
 78
     0
  0
ENDTAB
  0
TABLE
  2
LTYPE
  5
5
330
0
100
AcDbSymbolTable
 70
     1
  0
LTYPE
  5
14
330
5
100
AcDbSymbolTableRecord
100
AcDbLinetypeTableRecord
  2
BYBLOCK
 70
     0
  3

 72
    65
 73
     0
 40
0.0
  0
LTYPE
  5
15
330
5
100
AcDbSymbolTableRecord
100
AcDbLinetypeTableRecord
  2
BYLAYER
 70
     0
  3

 72
    65
 73
     0
 40
0.0
  0
LTYPE
  5
16
330
5
100
AcDbSymbolTableRecord
100
AcDbLinetypeTableRecord
  2
CONTINUOUS
 70
     0
  3
Solid line
 72
    65
 73
     0
 40
0.0
  0
ENDTAB
  0
TABLE
  2
LAYER
  5
2
330
0
100
AcDbSymbolTable
 70
     2
  0
LAYER
  5
10
330
2
100
AcDbSymbolTableRecord
100
AcDbLayerTableRecord
  2
0
 70
     0
 62
     7
  6
CONTINUOUS
  0
LAYER
  5
40
330
2
100
AcDbSymbolTableRecord
100
AcDbLayerTableRecord
  2
LAYER_1
 70
     0
 62
     7
  6
CONTINUOUS
  0
ENDTAB
  0
TABLE
  2
STYLE
  5
3
330
0
100
AcDbSymbolTable
 70
     1
  0
STYLE
  5
11
330
3
100
AcDbSymbolTableRecord
100
AcDbTextStyleTableRecord
  2
STANDARD
 70
     0
 40
0.0
 41
1.0
 50
0.0
 71
     0
 42
0.2
  3
txt
  4

  0
ENDTAB
  0
TABLE
  2
VIEW
  5
6
330
0
100
AcDbSymbolTable
 70
     0
  0
ENDTAB
  0
TABLE
  2
UCS
  5
7
330
0
100
AcDbSymbolTable
 70
     0
  0
ENDTAB
  0
TABLE
  2
APPID
  5
9
330
0
100
AcDbSymbolTable
 70
     1
  0
APPID
  5
12
330
9
100
AcDbSymbolTableRecord
100
AcDbRegAppTableRecord
  2
ACAD
 70
     0
  0
ENDTAB
  0
TABLE
  2
DIMSTYLE
  5
A
330
0
100
AcDbSymbolTable
 70
     1
  0
DIMSTYLE
105
27
330
A
100
AcDbSymbolTableRecord
100
AcDbDimStyleTableRecord
  2
STANDARD
 70
     0
  3

  4

  5

  6

  7

 40
1.0
 41
0.18
 42
0.0625
 43
0.38
 44
0.18
 45
0.0
 46
0.0
 47
0.0
 48
0.0
140
0.18
141
0.09
142
0.0
143
25.4
144
1.0
145
0.0
146
1.0
147
0.09
 71
     0
 72
     0
 73
     1
 74
     1
 75
     0
 76
     0
 77
     0
 78
     0
170
     0
171
     2
172
     0
173
     0
174
     0
175
     0
176
     0
177
     0
178
     0
270
     2
271
     4
272
     4
273
     2
274
     2
340
11
275
     0
280
     0
281
     0
282
     0
283
     1
284
     0
285
     0
286
     0
287
     3
288
     0
  0
ENDTAB
  0
TABLE
  2
BLOCK_RECORD
  5
1
330
0
100
AcDbSymbolTable
 70
     2
  0
BLOCK_RECORD
  5
1F
330
1
100
AcDbSymbolTableRecord
100
AcDbBlockTableRecord
  2
*MODEL_SPACE
  0
BLOCK_RECORD
  5
1B
330
1
100
AcDbSymbolTableRecord
100
AcDbBlockTableRecord
  2
*PAPER_SPACE
  0
BLOCK_RECORD
  5
41
330
1
100
AcDbSymbolTableRecord
100
AcDbBlockTableRecord
  2
BLOCK_2
  0
ENDTAB
  0
ENDSEC
  0
SECTION
  2
BLOCKS
  0
BLOCK
  5
20
330
1F
100
AcDbEntity
  8
0
100
AcDbBlockBegin
  2
*MODEL_SPACE
 70
     0
 10
0.0
 20
0.0
 30
0.0
  3
*MODEL_SPACE
  1

  0
ENDBLK
  5
21
330
1F
100
AcDbEntity
  8
0
100
AcDbBlockEnd
  0
BLOCK
  5
1C
330
1B
100
AcDbEntity
 67
     1
  8
0
100
AcDbBlockBegin
  2
*PAPER_SPACE
 70
     0
 10
0.0
 20
0.0
 30
0.0
  3
*PAPER_SPACE
  1

  0
ENDBLK
  5
1D
330
1B
100
AcDbEntity
 67
     1
  8
0
100
AcDbBlockEnd
  0
BLOCK
  5
43
330
41
100
AcDbEntity
  8
0
100
AcDbBlockBegin
  2
BLOCK_2
 70
     0
 10
0.0
 20
0.0
 30
0.0
  3
BLOCK_2
  1

  0
ENDBLK
  5
44
330
41
100
AcDbEntity
  8
0
100
AcDbBlockEnd
  0
ENDSEC
  0
SECTION
  2
ENTITIES
  0
INSERT
  5
42
330
1F
100
AcDbEntity
  8
LAYER_1
100
AcDbBlockReference
  2
BLOCK_2
 10
0.0
 20
0.0
 30
0.0
  0
SPLINE
  5
45
330
1F
100
AcDbEntity
  8
LAYER_1
 62
   178
100
AcDbSpline
210
0.0
220
0.0
230
1.0
 70
    11
 71
     3
 72
   116
 73
   112
 74
     0
 42
0.0000000001
 43
0.0000000001
 12
1.0
 22
0.0
 32
0.0
 13
1.0
 23
0.0
 33
0.0
 40
0.0
 40
0.0
 40
0.0
 40
0.0
 40
1.0
 40
1.0
 40
1.0
 40
2.0
 40
2.0
 40
2.0
 40
3.0
 40
3.0
 40
3.0
 40
4.0
 40
4.0
 40
4.0
 40
5.0
 40
5.0
 40
5.0
 40
6.0
 40
6.0
 40
6.0
 40
7.0
 40
7.0
 40
7.0
 40
8.0
 40
8.0
 40
8.0
 40
9.0
 40
9.0
 40
9.0
 40
10.0
 40
10.0
 40
10.0
 40
11.0
 40
11.0
 40
11.0
 40
12.0
 40
12.0
 40
12.0
 40
13.0
 40
13.0
 40
13.0
 40
14.0
 40
14.0
 40
14.0
 40
15.0
 40
15.0
 40
15.0
 40
16.0
 40
16.0
 40
16.0
 40
17.0
 40
17.0
 40
17.0
 40
18.0
 40
18.0
 40
18.0
 40
19.0
 40
19.0
 40
19.0
 40
20.0
 40
20.0
 40
20.0
 40
21.0
 40
21.0
 40
21.0
 40
22.0
 40
22.0
 40
22.0
 40
23.0
 40
23.0
 40
23.0
 40
24.0
 40
24.0
 40
24.0
 40
25.0
 40
25.0
 40
25.0
 40
26.0
 40
26.0
 40
26.0
 40
27.0
 40
27.0
 40
27.0
 40
28.0
 40
28.0
 40
28.0
 40
29.0
 40
29.0
 40
29.0
 40
30.0
 40
30.0
 40
30.0
 40
31.0
 40
31.0
 40
31.0
 40
32.0
 40
32.0
 40
32.0
 40
33.0
 40
33.0
 40
33.0
 40
34.0
 40
34.0
 40
34.0
 40
35.0
 40
35.0
 40
35.0
 40
36.0
 40
36.0
 40
36.0
 40
37.0
 40
37.0
 40
37.0
 40
37.0
 10
72.5
 20
84.59999945068375
 30
0.0
 10
72.5
 20
84.59999945068375
 30
0.0
 10
73.30000305175781
 20
84.8999986877443
 30
0.0
 10
73.30000305175781
 20
84.8999986877443
 30
0.0
 10
73.30000305175781
 20
84.8999986877443
 30
0.0
 10
73.30000305175781
 20
84.8999986877443
 30
0.0
 10
73.30000305175781
 20
84.8999986877443
 30
0.0
 10
75.76178741455078
 20
85.97454550170914
 30
0.0
 10
78.00041961669922
 20
87.50088598632829
 30
0.0
 10
79.9000015258789
 20
89.3999986877443
 30
0.0
 10
84.0999984741211
 20
94.59999945068375
 30
0.0
 10
79.0999984741211
 20
100.1999979248048
 30
0.0
 10
79.0999984741211
 20
105.5999994506838
 30
0.0
 10
79.0999984741211
 20
111.0000009765627
 30
0.0
 10
81.5
 20
115.0999994506838
 30
0.0
 10
79.5
 20
119.6999998321535
 30
0.0
 10
77.5
 20
124.3000002136232
 30
0.0
 10
75.4000015258789
 20
124.0999980201723
 30
0.0
 10
72.0
 20
124.2999979486467
 30
0.0
 10
69.22042846679688
 20
124.3665007581712
 30
0.0
 10
66.47965240478516
 20
123.6379416217806
 30
0.0
 10
64.0999984741211
 20
122.1999979248048
 30
0.0
 10
62.09999847412109
 20
120.7999978294374
 30
0.0
 10
51.79999923706055
 20
110.4999981155397
 30
0.0
 10
51.69999694824219
 20
110.4999981155397
 30
0.0
 10
51.52428817749023
 20
111.1169929733278
 30
0.0
 10
51.1776008605957
 20
111.6716881027223
 30
0.0
 10
50.69999694824219
 20
112.0999984970094
 30
0.0
 10
50.22500991821289
 20
112.4153108825685
 30
0.0
 10
49.67000579833984
 20
112.5887489547731
 30
0.0
 10
49.09999847412109
 20
112.5999984970094
 30
0.0
 10
49.09999847412109
 20
112.5999984970094
 30
0.0
 10
46.09999847412109
 20
112.5999984970094
 30
0.0
 10
46.09999847412109
 20
112.5999984970094
 30
0.0
 10
45.65002822875977
 20
112.5955372085573
 30
0.0
 10
45.2064208984375
 20
112.493165992737
 30
0.0
 10
44.79999923706055
 20
112.2999983062746
 30
0.0
 10
44.20000076293945
 20
111.8999986877443
 30
0.0
 10
43.70000076293945
 20
111.2999983062746
 30
0.0
 10
43.70000076293945
 20
110.9999981155397
 30
0.0
 10
40.40000152587891
 20
115.3999986877443
 30
0.0
 10
36.5
 20
120.0999984970094
 30
0.0
 10
32.20000076293945
 20
123.39999773407
 30
0.0
 10
29.94470024108887
 20
125.018508457184
 30
0.0
 10
27.27220344543457
 20
125.9556179871561
 30
0.0
 10
24.5
 20
126.0999979233147
 30
0.0
 10
21.20000076293945
 20
126.0999979233147
 30
0.0
 10
18.20000076293945
 20
124.9999978771211
 30
0.0
 10
16.79999923706055
 20
121.9999981155397
 30
0.0
 10
15.39999771118164
 20
118.9999981155397
 30
0.0
 10
16.5
 20
112.4999981155397
 30
0.0
 10
16.09999847412109
 20
107.9999971618654
 30
0.0
 10
15.69999694824219
 20
103.4999971618654
 30
0.0
 10
10.29999828338623
 20
97.29999639892594
 30
0.0
 10
14.19999885559082
 20
91.89999487304704
 30
0.0
 10
16.14743423461914
 20
89.23529150390641
 30
0.0
 10
18.82042121887207
 20
87.18715765380875
 30
0.0
 10
21.89999771118164
 20
85.99999334716813
 30
0.0
 10
21.89999771118164
 20
85.99999334716813
 30
0.0
 10
22.29999732971191
 20
85.99999334716813
 30
0.0
 10
22.29999732971191
 20
85.99999334716813
 30
0.0
 10
0.484730064868927
 20
72.6598634948732
 30
0.0
 10
-6.385725498199463
 20
44.16078283691422
 30
0.0
 10
6.954404830932617
 20
22.34551336669938
 30
0.0
 10
15.35642528533936
 20
8.60559179687516
 30
0.0
 10
30.29475021362305
 20
0.2189264526368788
 30
0.0
 10
46.39999771118164
 20
0.1999902954103163
 30
0.0
 10
59.86622619628906
 20
0.1602716674806288
 30
0.0
 10
72.66754913330078
 20
6.048874877929848
 30
0.0
 10
81.39999389648438
 20
16.29998876953141
 30
0.0
 10
82.48356628417969
 20
17.46314337158219
 30
0.0
 10
83.48592376708984
 20
18.69939520263688
 30
0.0
 10
84.39999389648438
 20
19.9999857177736
 30
0.0
 10
84.39999389648438
 20
19.9999857177736
 30
0.0
 10
84.69999694824219
 20
20.4999857177736
 30
0.0
 10
84.69999694824219
 20
20.4999857177736
 30
0.0
 10
84.69999694824219
 20
20.4999857177736
 30
0.0
 10
84.69999694824219
 20
20.4999857177736
 30
0.0
 10
84.69999694824219
 20
20.4999857177736
 30
0.0
 10
84.69999694824219
 20
20.4999857177736
 30
0.0
 10
85.19999694824219
 20
21.29998876953141
 30
0.0
 10
85.19999694824219
 20
21.29998876953141
 30
0.0
 10
85.36692810058594
 20
21.4754266967775
 30
0.0
 10
85.50225830078125
 20
21.67842199707047
 30
0.0
 10
85.5999984741211
 20
21.8999872436525
 30
0.0
 10
86.15860748291016
 20
22.73149206542985
 30
0.0
 10
86.65977478027344
 20
23.6001825561525
 30
0.0
 10
87.0999984741211
 20
24.4999857177736
 30
0.0
 10
87.0999984741211
 20
24.4999857177736
 30
0.0
 10
87.19999694824219
 20
24.4999857177736
 30
0.0
 10
87.19999694824219
 20
24.4999857177736
 30
0.0
 10
87.19999694824219
 20
24.4999857177736
 30
0.0
 10
87.89999389648438
 20
25.8999872436525
 30
0.0
 10
87.89999389648438
 20
25.8999872436525
 30
0.0
 10
87.89999389648438
 20
25.8999872436525
 30
0.0
 10
88.39999389648438
 20
26.79998876953141
 30
0.0
 10
88.39999389648438
 20
26.79998876953141
 30
0.0
 10
88.89999389648438
 20
27.9999857177736
 30
0.0
 10
89.39999389648438
 20
29.19999029541032
 30
0.0
 10
89.79999542236328
 20
30.3999872436525
 30
0.0
 10
89.79999542236328
 20
30.3999872436525
 30
0.0
 10
89.99999237060547
 20
30.69999029541032
 30
0.0
 10
89.99999237060547
 20
30.69999029541032
 30
0.0
 10
89.99999237060547
 20
30.69999029541032
 30
0.0
 10
90.29999542236328
 20
31.79998876953141
 30
0.0
 10
90.29999542236328
 20
31.79998876953141
 30
0.0
 10
91.91280364990234
 20
36.49769689941422
 30
0.0
 10
92.72412109375
 20
41.4331903686525
 30
0.0
 10
92.69999694824219
 20
46.3999872436525
 30
0.0
 10
92.72103118896484
 20
61.69597723388688
 30
0.0
 10
85.15375518798828
 20
76.00637915039079
 30
0.0
 10
72.5
 20
84.59999945068375
 30
0.0
  0
SPLINE
  5
46
330
1F
100
AcDbEntity
  8
LAYER_1
 62
   178
100
AcDbSpline
210
0.0
220
0.0
230
1.0
 70
    11
 71
     3
 72
    14
 73
    10
 74
     0
 42
0.0000000001
 43
0.0000000001
 12
1.0
 22
0.0
 32
0.0
 13
1.0
 23
0.0
 33
0.0
 40
0.0
 40
0.0
 40
0.0
 40
0.0
 40
1.0
 40
1.0
 40
1.0
 40
2.0
 40
2.0
 40
2.0
 40
3.0
 40
3.0
 40
3.0
 40
3.0
 10
70.5999984741211
 20
121.0999980201723
 30
0.0
 10
74.29999542236328
 20
122.299998067856
 30
0.0
 10
75.79999542236328
 20
119.39999773407
 30
0.0
 10
74.0999984741211
 20
115.7999983062746
 30
0.0
 10
69.69160461425781
 20
111.996752761841
 30
0.0
 10
64.11846923828125
 20
109.8098249664308
 30
0.0
 10
58.29999923706055
 20
109.5999994506838
 30
0.0
 10
60.42343139648438
 20
115.1140842666628
 30
0.0
 10
64.95577239990234
 20
119.3516350021364
 30
0.0
 10
70.5999984741211
 20
121.0999980201723
 30
0.0
  0
SPLINE
  5
47
330
1F
100
AcDbEntity
  8
LAYER_1
 62
   178
100
AcDbSpline
210
0.0
220
0.0
230
1.0
 70
    11
 71
     3
 72
    23
 73
    19
 74
     0
 42
0.0000000001
 43
0.0000000001
 12
1.0
 22
0.0
 32
0.0
 13
1.0
 23
0.0
 33
0.0
 40
0.0
 40
0.0
 40
0.0
 40
0.0
 40
1.0
 40
1.0
 40
1.0
 40
2.0
 40
2.0
 40
2.0
 40
3.0
 40
3.0
 40
3.0
 40
4.0
 40
4.0
 40
4.0
 40
5.0
 40
5.0
 40
5.0
 40
6.0
 40
6.0
 40
6.0
 40
6.0
 10
61.09999847412109
 20
90.8999986877443
 30
0.0
 10
61.09999847412109
 20
90.8999986877443
 30
0.0
 10
61.09999847412109
 20
90.19999792480485
 30
0.0
 10
61.09999847412109
 20
90.19999792480485
 30
0.0
 10
59.10952758789062
 20
90.88508703613297
 30
0.0
 10
57.07047271728516
 20
91.4199190368654
 30
0.0
 10
55.0
 20
91.79999639892594
 30
0.0
 10
54.77145385742188
 20
92.2874384155275
 30
0.0
 10
54.5039176940918
 20
92.75562765502946
 30
0.0
 10
54.20000076293945
 20
93.19999792480485
 30
0.0
 10
54.20000076293945
 20
93.19999792480485
 30
0.0
 10
54.20000076293945
 20
93.3999986877443
 30
0.0
 10
54.20000076293945
 20
93.3999986877443
 30
0.0
 10
53.23515319824219
 20
95.15633871459977
 30
0.0
 10
52.52791595458984
 20
97.0423097839357
 30
0.0
 10
52.10000228881836
 20
98.99999906921403
 30
0.0
 10
52.10000228881836
 20
98.99999906921403
 30
0.0
 10
61.09999847412109
 20
90.8999986877443
 30
0.0
 10
61.09999847412109
 20
90.8999986877443
 30
0.0
  0
SPLINE
  5
48
330
1F
100
AcDbEntity
  8
LAYER_1
 62
   178
100
AcDbSpline
210
0.0
220
0.0
230
1.0
 70
    11
 71
     3
 72
    29
 73
    25
 74
     0
 42
0.0000000001
 43
0.0000000001
 12
1.0
 22
0.0
 32
0.0
 13
1.0
 23
0.0
 33
0.0
 40
0.0
 40
0.0
 40
0.0
 40
0.0
 40
1.0
 40
1.0
 40
1.0
 40
2.0
 40
2.0
 40
2.0
 40
3.0
 40
3.0
 40
3.0
 40
4.0
 40
4.0
 40
4.0
 40
5.0
 40
5.0
 40
5.0
 40
6.0
 40
6.0
 40
6.0
 40
7.0
 40
7.0
 40
7.0
 40
8.0
 40
8.0
 40
8.0
 40
8.0
 10
46.09999847412109
 20
108.7999983062746
 30
0.0
 10
46.5364875793457
 20
109.1980505218507
 30
0.0
 10
47.10940170288086
 20
109.4128923645021
 30
0.0
 10
47.69999694824219
 20
109.3999986877443
 30
0.0
 10
48.26290512084961
 20
109.3363085021974
 30
0.0
 10
48.78960800170898
 20
109.0905142059328
 30
0.0
 10
49.19999694824219
 20
108.6999979248048
 30
0.0
 10
49.62923812866211
 20
108.2832498779298
 30
0.0
 10
49.84936904907227
 20
107.6962270965578
 30
0.0
 10
49.79999542236328
 20
107.0999975433351
 30
0.0
 10
49.77587509155273
 20
106.4976816406252
 30
0.0
 10
49.52598190307617
 20
105.9264974823
 30
0.0
 10
49.09999465942383
 20
105.4999971618654
 30
0.0
 10
48.68154907226562
 20
105.080004714966
 30
0.0
 10
48.08312606811523
 20
104.8929987182619
 30
0.0
 10
47.49999618530273
 20
104.9999971618654
 30
0.0
 10
46.91929244995117
 20
104.9918203582765
 30
0.0
 10
46.36673736572266
 20
105.2496786346437
 30
0.0
 10
45.99999618530273
 20
105.6999979248048
 30
0.0
 10
45.61700439453125
 20
106.1058130493166
 30
0.0
 10
45.40253067016602
 20
106.6419992675783
 30
0.0
 10
45.39999771118164
 20
107.1999979248048
 30
0.0
 10
45.42411804199219
 20
107.8023138275148
 30
0.0
 10
45.67401123046875
 20
108.37349798584
 30
0.0
 10
46.09999847412109
 20
108.7999983062746
 30
0.0
  0
SPLINE
  5
49
330
1F
100
AcDbEntity
  8
LAYER_1
 62
   178
100
AcDbSpline
210
0.0
220
0.0
230
1.0
 70
    11
 71
     3
 72
    14
 73
    10
 74
     0
 42
0.0000000001
 43
0.0000000001
 12
1.0
 22
0.0
 32
0.0
 13
1.0
 23
0.0
 33
0.0
 40
0.0
 40
0.0
 40
0.0
 40
0.0
 40
1.0
 40
1.0
 40
1.0
 40
2.0
 40
2.0
 40
2.0
 40
3.0
 40
3.0
 40
3.0
 40
3.0
 10
21.79999923706055
 20
117.6999979248048
 30
0.0
 10
20.39999961853027
 20
121.39999773407
 30
0.0
 10
22.09999847412109
 20
124.1999979248048
 30
0.0
 10
25.79999923706055
 20
122.7999978294374
 30
0.0
 10
31.21642875671387
 20
120.5126300086977
 30
0.0
 10
35.37505340576172
 20
115.9892130126955
 30
0.0
 10
37.20000076293945
 20
110.39999773407
 30
0.0
 10
31.38358688354492
 20
111.0030679931642
 30
0.0
 10
25.94893455505371
 20
113.5792350997926
 30
0.0
 10
21.79999923706055
 20
117.6999979248048
 30
0.0
  0
SPLINE
  5
4A
330
1F
100
AcDbEntity
  8
LAYER_1
 62
   178
100
AcDbSpline
210
0.0
220
0.0
230
1.0
 70
    11
 71
     3
 72
    32
 73
    28
 74
     0
 42
0.0000000001
 43
0.0000000001
 12
1.0
 22
0.0
 32
0.0
 13
1.0
 23
0.0
 33
0.0
 40
0.0
 40
0.0
 40
0.0
 40
0.0
 40
1.0
 40
1.0
 40
1.0
 40
2.0
 40
2.0
 40
2.0
 40
3.0
 40
3.0
 40
3.0
 40
4.0
 40
4.0
 40
4.0
 40
5.0
 40
5.0
 40
5.0
 40
6.0
 40
6.0
 40
6.0
 40
7.0
 40
7.0
 40
7.0
 40
8.0
 40
8.0
 40
8.0
 40
9.0
 40
9.0
 40
9.0
 40
9.0
 10
42.70000076293945
 20
99.19999792480485
 30
0.0
 10
42.06779098510742
 20
97.12147619628922
 30
0.0
 10
41.15969848632812
 20
95.13712408447282
 30
0.0
 10
40.0
 20
93.29999639892594
 30
0.0
 10
40.0
 20
93.29999639892594
 30
0.0
 10
40.0
 20
93.29999639892594
 30
0.0
 10
40.0
 20
93.29999639892594
 30
0.0
 10
39.94477081298828
 20
93.29999639892594
 30
0.0
 10
39.90000152587891
 20
93.25522711181657
 30
0.0
 10
39.90000152587891
 20
93.19999792480485
 30
0.0
 10
39.90000152587891
 20
93.19999792480485
 30
0.0
 10
39.80000305175781
 20
93.19999792480485
 30
0.0
 10
39.80000305175781
 20
93.19999792480485
 30
0.0
 10
39.80000305175781
 20
93.19999792480485
 30
0.0
 10
39.10000228881836
 20
92.19999792480485
 30
0.0
 10
39.10000228881836
 20
92.19999792480485
 30
0.0
 10
36.97610473632812
 20
91.80630209350602
 30
0.0
 10
34.87343215942383
 20
91.30566503906266
 30
0.0
 10
32.80000305175781
 20
90.69999792480485
 30
0.0
 10
32.80000305175781
 20
90.69999792480485
 30
0.0
 10
32.80000305175781
 20
90.9999971618654
 30
0.0
 10
32.80000305175781
 20
90.9999971618654
 30
0.0
 10
32.80000305175781
 20
90.9999971618654
 30
0.0
 10
33.40000152587891
 20
91.8999986877443
 30
0.0
 10
33.40000152587891
 20
91.8999986877443
 30
0.0
 10
33.40000152587891
 20
91.8999986877443
 30
0.0
 10
42.70000076293945
 20
99.19999792480485
 30
0.0
 10
42.70000076293945
 20
99.19999792480485
 30
0.0
  0
POLYLINE
  5
4B
330
1F
100
AcDbEntity
  8
LAYER_1
 62
   178
100
AcDb2dPolyline
 66
     1
 10
0.0
 20
0.0
 30
0.0
  0
VERTEX
  5
4C
330
4B
100
AcDbEntity
  8
LAYER_1
 62
   178
100
AcDbVertex
100
AcDb2dVertex
 10
36.0
 20
71.9999971618654
 30
0.0
  0
VERTEX
  5
4D
330
4B
100
AcDbEntity
  8
LAYER_1
 62
   178
100
AcDbVertex
100
AcDb2dVertex
 10
34.90000152587891
 20
71.9999971618654
 30
0.0
  0
VERTEX
  5
4E
330
4B
100
AcDbEntity
  8
LAYER_1
 62
   178
100
AcDbVertex
100
AcDb2dVertex
 10
34.30000305175781
 20
71.29999639892594
 30
0.0
  0
VERTEX
  5
4F
330
4B
100
AcDbEntity
  8
LAYER_1
 62
   178
100
AcDbVertex
100
AcDb2dVertex
 10
34.00000381469727
 20
72.19999792480485
 30
0.0
  0
VERTEX
  5
50
330
4B
100
AcDbEntity
  8
LAYER_1
 62
   178
100
AcDbVertex
100
AcDb2dVertex
 10
33.10000228881836
 20
72.69999792480485
 30
0.0
  0
VERTEX
  5
51
330
4B
100
AcDbEntity
  8
LAYER_1
 62
   178
100
AcDbVertex
100
AcDb2dVertex
 10
34.00000381469727
 20
73.19999792480485
 30
0.0
  0
VERTEX
  5
52
330
4B
100
AcDbEntity
  8
LAYER_1
 62
   178
100
AcDbVertex
100
AcDb2dVertex
 10
34.00000381469727
 20
73.9999971618654
 30
0.0
  0
VERTEX
  5
53
330
4B
100
AcDbEntity
  8
LAYER_1
 62
   178
100
AcDbVertex
100
AcDb2dVertex
 10
34.70000457763672
 20
73.4999971618654
 30
0.0
  0
VERTEX
  5
54
330
4B
100
AcDbEntity
  8
LAYER_1
 62
   178
100
AcDbVertex
100
AcDb2dVertex
 10
35.60000610351562
 20
73.69999792480485
 30
0.0
  0
VERTEX
  5
55
330
4B
100
AcDbEntity
  8
LAYER_1
 62
   178
100
AcDbVertex
100
AcDb2dVertex
 10
35.30000686645508
 20
72.69999792480485
 30
0.0
  0
VERTEX
  5
56
330
4B
100
AcDbEntity
  8
LAYER_1
 62
   178
100
AcDbVertex
100
AcDb2dVertex
 10
36.0
 20
71.9999971618654
 30
0.0
  0
SEQEND
  5
57
330
4B
100
AcDbEntity
  8
LAYER_1
 62
   178
  0
POLYLINE
  5
58
330
1F
100
AcDbEntity
  8
LAYER_1
 62
   178
100
AcDb2dPolyline
 66
     1
 10
0.0
 20
0.0
 30
0.0
  0
VERTEX
  5
59
330
58
100
AcDbEntity
  8
LAYER_1
 62
   178
100
AcDbVertex
100
AcDb2dVertex
 10
39.29999923706055
 20
58.39999487304704
 30
0.0
  0
VERTEX
  5
5A
330
58
100
AcDbEntity
  8
LAYER_1
 62
   178
100
AcDbVertex
100
AcDb2dVertex
 10
37.09999847412109
 20
58.39999487304704
 30
0.0
  0
VERTEX
  5
5B
330
58
100
AcDbEntity
  8
LAYER_1
 62
   178
100
AcDbVertex
100
AcDb2dVertex
 10
35.90000152587891
 20
57.19999792480485
 30
0.0
  0
VERTEX
  5
5C
330
58
100
AcDbEntity
  8
LAYER_1
 62
   178
100
AcDbVertex
100
AcDb2dVertex
 10
35.20000076293945
 20
59.09999945068375
 30
0.0
  0
VERTEX
  5
5D
330
58
100
AcDbEntity
  8
LAYER_1
 62
   178
100
AcDbVertex
100
AcDb2dVertex
 10
33.40000152587891
 20
59.90000250244157
 30
0.0
  0
VERTEX
  5
5E
330
58
100
AcDbEntity
  8
LAYER_1
 62
   178
100
AcDbVertex
100
AcDb2dVertex
 10
35.10000228881836
 20
61.00000097656266
 30
0.0
  0
VERTEX
  5
5F
330
58
100
AcDbEntity
  8
LAYER_1
 62
   178
100
AcDbVertex
100
AcDb2dVertex
 10
35.30000305175781
 20
62.80000021362321
 30
0.0
  0
VERTEX
  5
60
330
58
100
AcDbEntity
  8
LAYER_1
 62
   178
100
AcDbVertex
100
AcDb2dVertex
 10
36.90000152587891
 20
61.59999945068375
 30
0.0
  0
VERTEX
  5
61
330
58
100
AcDbEntity
  8
LAYER_1
 62
   178
100
AcDbVertex
100
AcDb2dVertex
 10
38.80000305175781
 20
62.19999792480485
 30
0.0
  0
VERTEX
  5
62
330
58
100
AcDbEntity
  8
LAYER_1
 62
   178
100
AcDbVertex
100
AcDb2dVertex
 10
38.20000457763672
 20
60.00000097656266
 30
0.0
  0
VERTEX
  5
63
330
58
100
AcDbEntity
  8
LAYER_1
 62
   178
100
AcDbVertex
100
AcDb2dVertex
 10
39.29999923706055
 20
58.39999487304704
 30
0.0
  0
SEQEND
  5
64
330
58
100
AcDbEntity
  8
LAYER_1
 62
   178
  0
POLYLINE
  5
65
330
1F
100
AcDbEntity
  8
LAYER_1
 62
   178
100
AcDb2dPolyline
 66
     1
 10
0.0
 20
0.0
 30
0.0
  0
VERTEX
  5
66
330
65
100
AcDbEntity
  8
LAYER_1
 62
   178
100
AcDbVertex
100
AcDb2dVertex
 10
49.79999923706055
 20
55.39999487304704
 30
0.0
  0
VERTEX
  5
67
330
65
100
AcDbEntity
  8
LAYER_1
 62
   178
100
AcDbVertex
100
AcDb2dVertex
 10
48.59999847412109
 20
55.39999487304704
 30
0.0
  0
VERTEX
  5
68
330
65
100
AcDbEntity
  8
LAYER_1
 62
   178
100
AcDbVertex
100
AcDb2dVertex
 10
47.89999771118164
 20
54.59999182128922
 30
0.0
  0
VERTEX
  5
69
330
65
100
AcDbEntity
  8
LAYER_1
 62
   178
100
AcDbVertex
100
AcDb2dVertex
 10
47.49999618530273
 20
55.69999029541032
 30
0.0
  0
VERTEX
  5
6A
330
65
100
AcDbEntity
  8
LAYER_1
 62
   178
100
AcDbVertex
100
AcDb2dVertex
 10
46.40000152587891
 20
56.19999792480485
 30
0.0
  0
VERTEX
  5
6B
330
65
100
AcDbEntity
  8
LAYER_1
 62
   178
100
AcDbVertex
100
AcDb2dVertex
 10
47.40000152587891
 20
56.79999639892594
 30
0.0
  0
VERTEX
  5
6C
330
65
100
AcDbEntity
  8
LAYER_1
 62
   178
100
AcDbVertex
100
AcDb2dVertex
 10
47.60000228881836
 20
57.89999487304704
 30
0.0
  0
VERTEX
  5
6D
330
65
100
AcDbEntity
  8
LAYER_1
 62
   178
100
AcDbVertex
100
AcDb2dVertex
 10
48.50000381469727
 20
57.19999792480485
 30
0.0
  0
VERTEX
  5
6E
330
65
100
AcDbEntity
  8
LAYER_1
 62
   178
100
AcDbVertex
100
AcDb2dVertex
 10
49.60000228881836
 20
57.50000097656266
 30
0.0
  0
VERTEX
  5
6F
330
65
100
AcDbEntity
  8
LAYER_1
 62
   178
100
AcDbVertex
100
AcDb2dVertex
 10
49.20000076293945
 20
56.30000402832047
 30
0.0
  0
VERTEX
  5
70
330
65
100
AcDbEntity
  8
LAYER_1
 62
   178
100
AcDbVertex
100
AcDb2dVertex
 10
49.79999923706055
 20
55.39999487304704
 30
0.0
  0
SEQEND
  5
71
330
65
100
AcDbEntity
  8
LAYER_1
 62
   178
  0
SPLINE
  5
72
330
1F
100
AcDbEntity
  8
LAYER_1
 62
   178
100
AcDbSpline
210
0.0
220
0.0
230
1.0
 70
    11
 71
     3
 72
    53
 73
    49
 74
     0
 42
0.0000000001
 43
0.0000000001
 12
1.0
 22
0.0
 32
0.0
 13
1.0
 23
0.0
 33
0.0
 40
0.0
 40
0.0
 40
0.0
 40
0.0
 40
1.0
 40
1.0
 40
1.0
 40
2.0
 40
2.0
 40
2.0
 40
3.0
 40
3.0
 40
3.0
 40
4.0
 40
4.0
 40
4.0
 40
5.0
 40
5.0
 40
5.0
 40
6.0
 40
6.0
 40
6.0
 40
7.0
 40
7.0
 40
7.0
 40
8.0
 40
8.0
 40
8.0
 40
9.0
 40
9.0
 40
9.0
 40
10.0
 40
10.0
 40
10.0
 40
11.0
 40
11.0
 40
11.0
 40
12.0
 40
12.0
 40
12.0
 40
13.0
 40
13.0
 40
13.0
 40
14.0
 40
14.0
 40
14.0
 40
15.0
 40
15.0
 40
15.0
 40
16.0
 40
16.0
 40
16.0
 40
16.0
 10
51.09999847412109
 20
56.49999334716813
 30
0.0
 10
51.09999847412109
 20
56.49999334716813
 30
0.0
 10
51.29999923706055
 20
57.09999182128922
 30
0.0
 10
51.29999923706055
 20
57.09999182128922
 30
0.0
 10
51.30631256103516
 20
57.02292730712907
 30
0.0
 10
51.34213638305664
 20
56.9512796630861
 30
0.0
 10
51.39999771118164
 20
56.89999487304704
 30
0.0
 10
52.29999923706055
 20
55.89999487304704
 30
0.0
 10
53.69999694824219
 20
55.79999639892594
 30
0.0
 10
55.79999923706055
 20
56.39999487304704
 30
0.0
 10
55.79999923706055
 20
56.39999487304704
 30
0.0
 10
55.70000076293945
 20
56.39999487304704
 30
0.0
 10
55.70000076293945
 20
56.39999487304704
 30
0.0
 10
55.25086212158203
 20
55.82164862060563
 30
0.0
 10
54.9736213684082
 20
55.12854864501969
 30
0.0
 10
54.90000152587891
 20
54.39999487304704
 30
0.0
 10
54.85791778564453
 20
53.72634985351579
 30
0.0
 10
55.11385726928711
 20
53.06821539306657
 30
0.0
 10
55.60000228881836
 20
52.59999182128922
 30
0.0
 10
55.84667587280273
 20
52.27877142334
 30
0.0
 10
56.15208053588867
 20
52.00730230712907
 30
0.0
 10
56.50000381469727
 20
51.79998876953141
 30
0.0
 10
56.50000381469727
 20
51.79998876953141
 30
0.0
 10
57.80000305175781
 20
51.4999857177736
 30
0.0
 10
57.80000305175781
 20
51.4999857177736
 30
0.0
 10
58.58224868774414
 20
51.51867773437516
 30
0.0
 10
59.35737609863281
 20
51.65348913574235
 30
0.0
 10
60.10000228881836
 20
51.8999872436525
 30
0.0
 10
60.10000228881836
 20
51.8999872436525
 30
0.0
 10
60.0
 20
51.8999872436525
 30
0.0
 10
60.0
 20
51.8999872436525
 30
0.0
 10
59.53545761108398
 20
51.33059790039079
 30
0.0
 10
59.25629043579102
 20
50.6326761474611
 30
0.0
 10
59.20000076293945
 20
49.8999872436525
 30
0.0
 10
59.20000076293945
 20
49.8999872436525
 30
0.0
 10
52.20000076293945
 20
48.19999029541032
 30
0.0
 10
52.20000076293945
 20
48.19999029541032
 30
0.0
 10
52.20000076293945
 20
48.19999029541032
 30
0.0
 10
47.60000228881836
 20
51.8999872436525
 30
0.0
 10
47.60000228881836
 20
51.8999872436525
 30
0.0
 10
47.60000228881836
 20
51.8999872436525
 30
0.0
 10
49.50000381469727
 20
53.79998876953141
 30
0.0
 10
49.50000381469727
 20
53.79998876953141
 30
0.0
 10
49.50000381469727
 20
53.79998876953141
 30
0.0
 10
52.90000534057617
 20
53.79998876953141
 30
0.0
 10
52.90000534057617
 20
53.79998876953141
 30
0.0
 10
52.90000534057617
 20
53.79998876953141
 30
0.0
 10
51.09999847412109
 20
56.49999334716813
 30
0.0
 10
51.09999847412109
 20
56.49999334716813
 30
0.0
  0
SPLINE
  5
73
330
1F
100
AcDbEntity
  8
LAYER_1
 62
   178
100
AcDbSpline
210
0.0
220
0.0
230
1.0
 70
    11
 71
     3
 72
    32
 73
    28
 74
     0
 42
0.0000000001
 43
0.0000000001
 12
1.0
 22
0.0
 32
0.0
 13
1.0
 23
0.0
 33
0.0
 40
0.0
 40
0.0
 40
0.0
 40
0.0
 40
1.0
 40
1.0
 40
1.0
 40
2.0
 40
2.0
 40
2.0
 40
3.0
 40
3.0
 40
3.0
 40
4.0
 40
4.0
 40
4.0
 40
5.0
 40
5.0
 40
5.0
 40
6.0
 40
6.0
 40
6.0
 40
7.0
 40
7.0
 40
7.0
 40
8.0
 40
8.0
 40
8.0
 40
9.0
 40
9.0
 40
9.0
 40
9.0
 10
53.39999771118164
 20
58.69999029541032
 30
0.0
 10
53.44099044799805
 20
59.0826044311525
 30
0.0
 10
53.61850357055664
 20
59.43763067626969
 30
0.0
 10
53.89999771118164
 20
59.69999029541032
 30
0.0
 10
54.66263961791992
 20
60.51979925537125
 30
0.0
 10
55.5380859375
 20
61.2268915405275
 30
0.0
 10
56.49999618530273
 20
61.79998876953141
 30
0.0
 10
57.56655502319336
 20
62.5071649780275
 30
0.0
 10
58.75234985351562
 20
63.0153665771486
 30
0.0
 10
60.0
 20
63.29999639892594
 30
0.0
 10
60.79559707641602
 20
63.63988592529313
 30
0.0
 10
61.71255111694336
 20
63.52526571655289
 30
0.0
 10
62.40000152587891
 20
62.99999716186539
 30
0.0
 10
62.64540100097656
 20
62.60957815551774
 30
0.0
 10
62.68280029296875
 20
62.12335302734391
 30
0.0
 10
62.5
 20
61.69999792480485
 30
0.0
 10
62.21626281738281
 20
61.05960180664079
 30
0.0
 10
61.80840301513672
 20
60.48180487060563
 30
0.0
 10
61.29999923706055
 20
60.00000097656266
 30
0.0
 10
61.29999923706055
 20
60.00000097656266
 30
0.0
 10
59.09999847412109
 20
58.80000402832047
 30
0.0
 10
59.09999847412109
 20
58.80000402832047
 30
0.0
 10
56.0
 20
57.60000708007829
 30
0.0
 10
54.19999694824219
 20
57.30000402832047
 30
0.0
 10
53.5
 20
58.00000097656266
 30
0.0
 10
53.35976028442383
 20
58.20514013671891
 30
0.0
 10
53.32281112670898
 20
58.46379949951188
 30
0.0
 10
53.39999771118164
 20
58.69999029541032
 30
0.0
  0
SPLINE
  5
74
330
1F
100
AcDbEntity
  8
LAYER_1
 62
   178
100
AcDbSpline
210
0.0
220
0.0
230
1.0
 70
    11
 71
     3
 72
    68
 73
    64
 74
     0
 42
0.0000000001
 43
0.0000000001
 12
1.0
 22
0.0
 32
0.0
 13
1.0
 23
0.0
 33
0.0
 40
0.0
 40
0.0
 40
0.0
 40
0.0
 40
1.0
 40
1.0
 40
1.0
 40
2.0
 40
2.0
 40
2.0
 40
3.0
 40
3.0
 40
3.0
 40
4.0
 40
4.0
 40
4.0
 40
5.0
 40
5.0
 40
5.0
 40
6.0
 40
6.0
 40
6.0
 40
7.0
 40
7.0
 40
7.0
 40
8.0
 40
8.0
 40
8.0
 40
9.0
 40
9.0
 40
9.0
 40
10.0
 40
10.0
 40
10.0
 40
11.0
 40
11.0
 40
11.0
 40
12.0
 40
12.0
 40
12.0
 40
13.0
 40
13.0
 40
13.0
 40
14.0
 40
14.0
 40
14.0
 40
15.0
 40
15.0
 40
15.0
 40
16.0
 40
16.0
 40
16.0
 40
17.0
 40
17.0
 40
17.0
 40
18.0
 40
18.0
 40
18.0
 40
19.0
 40
19.0
 40
19.0
 40
20.0
 40
20.0
 40
20.0
 40
21.0
 40
21.0
 40
21.0
 40
21.0
 10
66.19999694824219
 20
41.09999945068375
 30
0.0
 10
66.19999694824219
 20
41.09999945068375
 30
0.0
 10
67.9000015258789
 20
39.19999792480485
 30
0.0
 10
67.9000015258789
 20
39.19999792480485
 30
0.0
 10
67.9000015258789
 20
39.19999792480485
 30
0.0
 10
68.30000305175781
 20
39.19999792480485
 30
0.0
 10
68.30000305175781
 20
39.19999792480485
 30
0.0
 10
68.30000305175781
 20
39.19999792480485
 30
0.0
 10
75.5
 20
42.89999487304704
 30
0.0
 10
75.5
 20
42.89999487304704
 30
0.0
 10
76.51039123535156
 20
43.34105780029313
 30
0.0
 10
77.59773254394531
 20
43.57891180419938
 30
0.0
 10
78.69999694824219
 20
43.59999182128922
 30
0.0
 10
79.32872009277344
 20
43.69104101562516
 30
0.0
 10
79.9690170288086
 20
43.54875280761735
 30
0.0
 10
80.5
 20
43.19999029541032
 30
0.0
 10
80.9000015258789
 20
42.59999182128922
 30
0.0
 10
79.80000305175781
 20
41.59999182128922
 30
0.0
 10
77.30000305175781
 20
40.09999182128922
 30
0.0
 10
77.30000305175781
 20
40.09999182128922
 30
0.0
 10
74.60000610351562
 20
38.59999182128922
 30
0.0
 10
74.60000610351562
 20
38.59999182128922
 30
0.0
 10
74.09745025634766
 20
38.28218176269547
 30
0.0
 10
73.65693664550781
 20
37.87555792236344
 30
0.0
 10
73.30000305175781
 20
37.39999487304704
 30
0.0
 10
72.84368896484375
 20
36.89177801513688
 30
0.0
 10
72.53278350830078
 20
36.26997473144547
 30
0.0
 10
72.4000015258789
 20
35.59999182128922
 30
0.0
 10
72.4000015258789
 20
35.59999182128922
 30
0.0
 10
66.70000457763672
 20
34.39999487304704
 30
0.0
 10
66.70000457763672
 20
34.39999487304704
 30
0.0
 10
66.70000457763672
 20
34.39999487304704
 30
0.0
 10
61.60000610351562
 20
38.49999334716813
 30
0.0
 10
61.60000610351562
 20
38.49999334716813
 30
0.0
 10
61.60000610351562
 20
38.49999334716813
 30
0.0
 10
62.70000457763672
 20
39.99999334716813
 30
0.0
 10
62.70000457763672
 20
39.99999334716813
 30
0.0
 10
62.70000457763672
 20
39.99999334716813
 30
0.0
 10
65.80000305175781
 20
39.79999639892594
 30
0.0
 10
65.80000305175781
 20
39.79999639892594
 30
0.0
 10
65.80000305175781
 20
39.79999639892594
 30
0.0
 10
64.20000457763672
 20
42.49999334716813
 30
0.0
 10
64.20000457763672
 20
42.49999334716813
 30
0.0
 10
64.20000457763672
 20
42.49999334716813
 30
0.0
 10
64.4000015258789
 20
42.99999334716813
 30
0.0
 10
64.4000015258789
 20
42.99999334716813
 30
0.0
 10
64.4000015258789
 20
42.99999334716813
 30
0.0
 10
65.30000305175781
 20
42.19999029541032
 30
0.0
 10
65.30000305175781
 20
42.19999029541032
 30
0.0
 10
65.74606323242188
 20
42.0205927124025
 30
0.0
 10
66.2196044921875
 20
41.91912176513688
 30
0.0
 10
66.70000457763672
 20
41.8999872436525
 30
0.0
 10
66.70000457763672
 20
41.8999872436525
 30
0.0
 10
67.10000610351562
 20
41.8999872436525
 30
0.0
 10
67.10000610351562
 20
41.8999872436525
 30
0.0
 10
67.10000610351562
 20
41.8999872436525
 30
0.0
 10
66.30000305175781
 20
41.4999857177736
 30
0.0
 10
66.30000305175781
 20
41.4999857177736
 30
0.0
 10
66.20000457763672
 20
41.4999857177736
 30
0.0
 10
66.20000457763672
 20
41.3999872436525
 30
0.0
 10
66.20000457763672
 20
41.29998876953141
 30
0.0
 10
66.20000457763672
 20
41.19999029541032
 30
0.0
 10
66.19999694824219
 20
41.09999945068375
 30
0.0
 10
66.19999694824219
 20
41.09999945068375
 30
0.0
  0
POLYLINE
  5
75
330
1F
100
AcDbEntity
  8
LAYER_1
 62
   178
100
AcDb2dPolyline
 66
     1
 10
0.0
 20
0.0
 30
0.0
  0
VERTEX
  5
76
330
75
100
AcDbEntity
  8
LAYER_1
 62
   178
100
AcDbVertex
100
AcDb2dVertex
 10
68.69999694824219
 20
26.50000097656266
 30
0.0
  0
VERTEX
  5
77
330
75
100
AcDbEntity
  8
LAYER_1
 62
   178
100
AcDbVertex
100
AcDb2dVertex
 10
66.30000305175781
 20
26.50000097656266
 30
0.0
  0
VERTEX
  5
78
330
75
100
AcDbEntity
  8
LAYER_1
 62
   178
100
AcDbVertex
100
AcDb2dVertex
 10
65.0
 20
25.09999945068375
 30
0.0
  0
VERTEX
  5
79
330
75
100
AcDbEntity
  8
LAYER_1
 62
   178
100
AcDbVertex
100
AcDb2dVertex
 10
64.19999694824219
 20
27.29999639892594
 30
0.0
  0
VERTEX
  5
7A
330
75
100
AcDbEntity
  8
LAYER_1
 62
   178
100
AcDbVertex
100
AcDb2dVertex
 10
62.19999694824219
 20
28.19999792480485
 30
0.0
  0
VERTEX
  5
7B
330
75
100
AcDbEntity
  8
LAYER_1
 62
   178
100
AcDbVertex
100
AcDb2dVertex
 10
64.0999984741211
 20
29.39999487304704
 30
0.0
  0
VERTEX
  5
7C
330
75
100
AcDbEntity
  8
LAYER_1
 62
   178
100
AcDbVertex
100
AcDb2dVertex
 10
64.29999542236328
 20
31.49999334716813
 30
0.0
  0
VERTEX
  5
7D
330
75
100
AcDbEntity
  8
LAYER_1
 62
   178
100
AcDbVertex
100
AcDb2dVertex
 10
66.0999984741211
 20
30.09999182128922
 30
0.0
  0
VERTEX
  5
7E
330
75
100
AcDbEntity
  8
LAYER_1
 62
   178
100
AcDbVertex
100
AcDb2dVertex
 10
68.19999694824219
 20
30.69999029541032
 30
0.0
  0
VERTEX
  5
7F
330
75
100
AcDbEntity
  8
LAYER_1
 62
   178
100
AcDbVertex
100
AcDb2dVertex
 10
67.5
 20
28.29998876953141
 30
0.0
  0
VERTEX
  5
80
330
75
100
AcDbEntity
  8
LAYER_1
 62
   178
100
AcDbVertex
100
AcDb2dVertex
 10
68.69999694824219
 20
26.50000097656266
 30
0.0
  0
SEQEND
  5
81
330
75
100
AcDbEntity
  8
LAYER_1
 62
   178
  0
POLYLINE
  5
82
330
1F
100
AcDbEntity
  8
LAYER_1
 62
   178
100
AcDb2dPolyline
 66
     1
 10
0.0
 20
0.0
 30
0.0
  0
VERTEX
  5
83
330
82
100
AcDbEntity
  8
LAYER_1
 62
   178
100
AcDbVertex
100
AcDb2dVertex
 10
57.59999847412109
 20
26.19999792480485
 30
0.0
  0
VERTEX
  5
84
330
82
100
AcDbEntity
  8
LAYER_1
 62
   178
100
AcDbVertex
100
AcDb2dVertex
 10
55.59999847412109
 20
25.50000097656266
 30
0.0
  0
VERTEX
  5
85
330
82
100
AcDbEntity
  8
LAYER_1
 62
   178
100
AcDbVertex
100
AcDb2dVertex
 10
52.79999923706055
 20
27.69999792480485
 30
0.0
  0
VERTEX
  5
86
330
82
100
AcDbEntity
  8
LAYER_1
 62
   178
100
AcDbVertex
100
AcDb2dVertex
 10
52.39999771118164
 20
24.00000097656266
 30
0.0
  0
VERTEX
  5
87
330
82
100
AcDbEntity
  8
LAYER_1
 62
   178
100
AcDbVertex
100
AcDb2dVertex
 10
50.39999771118164
 20
23.00000097656266
 30
0.0
  0
VERTEX
  5
88
330
82
100
AcDbEntity
  8
LAYER_1
 62
   178
100
AcDbVertex
100
AcDb2dVertex
 10
53.89999771118164
 20
33.50000097656266
 30
0.0
  0
VERTEX
  5
89
330
82
100
AcDbEntity
  8
LAYER_1
 62
   178
100
AcDbVertex
100
AcDb2dVertex
 10
51.49999618530273
 20
33.00000097656266
 30
0.0
  0
VERTEX
  5
8A
330
82
100
AcDbEntity
  8
LAYER_1
 62
   178
100
AcDbVertex
100
AcDb2dVertex
 10
53.49999618530273
 20
35.40000250244157
 30
0.0
  0
VERTEX
  5
8B
330
82
100
AcDbEntity
  8
LAYER_1
 62
   178
100
AcDbVertex
100
AcDb2dVertex
 10
60.79999542236328
 20
34.70000555419938
 30
0.0
  0
VERTEX
  5
8C
330
82
100
AcDbEntity
  8
LAYER_1
 62
   178
100
AcDbVertex
100
AcDb2dVertex
 10
60.39999389648438
 20
31.30000402832047
 30
0.0
  0
VERTEX
  5
8D
330
82
100
AcDbEntity
  8
LAYER_1
 62
   178
100
AcDbVertex
100
AcDb2dVertex
 10
54.59999465942383
 20
27.50000097656266
 30
0.0
  0
VERTEX
  5
8E
330
82
100
AcDbEntity
  8
LAYER_1
 62
   178
100
AcDbVertex
100
AcDb2dVertex
 10
57.59999847412109
 20
26.19999792480485
 30
0.0
  0
SEQEND
  5
8F
330
82
100
AcDbEntity
  8
LAYER_1
 62
   178
  0
POLYLINE
  5
90
330
1F
100
AcDbEntity
  8
LAYER_1
 62
   178
100
AcDb2dPolyline
 66
     1
 10
0.0
 20
0.0
 30
0.0
  0
VERTEX
  5
91
330
90
100
AcDbEntity
  8
LAYER_1
 62
   178
100
AcDbVertex
100
AcDb2dVertex
 10
53.19999694824219
 20
22.59999945068375
 30
0.0
  0
VERTEX
  5
92
330
90
100
AcDbEntity
  8
LAYER_1
 62
   178
100
AcDbVertex
100
AcDb2dVertex
 10
54.19999694824219
 20
23.19999792480485
 30
0.0
  0
VERTEX
  5
93
330
90
100
AcDbEntity
  8
LAYER_1
 62
   178
100
AcDbVertex
100
AcDb2dVertex
 10
54.39999771118164
 20
24.29999639892594
 30
0.0
  0
VERTEX
  5
94
330
90
100
AcDbEntity
  8
LAYER_1
 62
   178
100
AcDbVertex
100
AcDb2dVertex
 10
55.29999923706055
 20
23.59999945068375
 30
0.0
  0
VERTEX
  5
95
330
90
100
AcDbEntity
  8
LAYER_1
 62
   178
100
AcDbVertex
100
AcDb2dVertex
 10
56.39999771118164
 20
23.90000250244157
 30
0.0
  0
VERTEX
  5
96
330
90
100
AcDbEntity
  8
LAYER_1
 62
   178
100
AcDbVertex
100
AcDb2dVertex
 10
55.99999618530273
 20
22.70000555419938
 30
0.0
  0
VERTEX
  5
97
330
90
100
AcDbEntity
  8
LAYER_1
 62
   178
100
AcDbVertex
100
AcDb2dVertex
 10
56.59999465942383
 20
21.70000555419938
 30
0.0
  0
VERTEX
  5
98
330
90
100
AcDbEntity
  8
LAYER_1
 62
   178
100
AcDbVertex
100
AcDb2dVertex
 10
55.40000152587891
 20
21.70000555419938
 30
0.0
  0
VERTEX
  5
99
330
90
100
AcDbEntity
  8
LAYER_1
 62
   178
100
AcDbVertex
100
AcDb2dVertex
 10
54.70000076293945
 20
20.90000250244157
 30
0.0
  0
VERTEX
  5
9A
330
90
100
AcDbEntity
  8
LAYER_1
 62
   178
100
AcDbVertex
100
AcDb2dVertex
 10
54.29999923706055
 20
22.00000097656266
 30
0.0
  0
VERTEX
  5
9B
330
90
100
AcDbEntity
  8
LAYER_1
 62
   178
100
AcDbVertex
100
AcDb2dVertex
 10
53.19999694824219
 20
22.59999945068375
 30
0.0
  0
SEQEND
  5
9C
330
90
100
AcDbEntity
  8
LAYER_1
 62
   178
  0
POLYLINE
  5
9D
330
1F
100
AcDbEntity
  8
LAYER_1
 62
   178
100
AcDb2dPolyline
 66
     1
 10
0.0
 20
0.0
 30
0.0
  0
VERTEX
  5
9E
330
9D
100
AcDbEntity
  8
LAYER_1
 62
   178
100
AcDbVertex
100
AcDb2dVertex
 10
53.79999542236328
 20
17.69999792480485
 30
0.0
  0
VERTEX
  5
9F
330
9D
100
AcDbEntity
  8
LAYER_1
 62
   178
100
AcDbVertex
100
AcDb2dVertex
 10
51.29999542236328
 20
21.69999792480485
 30
0.0
  0
VERTEX
  5
A0
330
9D
100
AcDbEntity
  8
LAYER_1
 62
   178
100
AcDbVertex
100
AcDb2dVertex
 10
52.99999618530273
 20
20.89999487304704
 30
0.0
  0
VERTEX
  5
A1
330
9D
100
AcDbEntity
  8
LAYER_1
 62
   178
100
AcDbVertex
100
AcDb2dVertex
 10
53.79999542236328
 20
17.69999792480485
 30
0.0
  0
SEQEND
  5
A2
330
9D
100
AcDbEntity
  8
LAYER_1
 62
   178
  0
POLYLINE
  5
A3
330
1F
100
AcDbEntity
  8
LAYER_1
 62
   178
100
AcDb2dPolyline
 66
     1
 10
0.0
 20
0.0
 30
0.0
  0
VERTEX
  5
A4
330
A3
100
AcDbEntity
  8
LAYER_1
 62
   178
100
AcDbVertex
100
AcDb2dVertex
 10
46.69999694824219
 20
19.69999792480485
 30
0.0
  0
VERTEX
  5
A5
330
A3
100
AcDbEntity
  8
LAYER_1
 62
   178
100
AcDbVertex
100
AcDb2dVertex
 10
43.09999847412109
 20
19.89999487304704
 30
0.0
  0
VERTEX
  5
A6
330
A3
100
AcDbEntity
  8
LAYER_1
 62
   178
100
AcDbVertex
100
AcDb2dVertex
 10
41.09999847412109
 20
17.69999792480485
 30
0.0
  0
VERTEX
  5
A7
330
A3
100
AcDbEntity
  8
LAYER_1
 62
   178
100
AcDbVertex
100
AcDb2dVertex
 10
40.0
 20
20.79999639892594
 30
0.0
  0
VERTEX
  5
A8
330
A3
100
AcDbEntity
  8
LAYER_1
 62
   178
100
AcDbVertex
100
AcDb2dVertex
 10
36.90000152587891
 20
22.19999792480485
 30
0.0
  0
VERTEX
  5
A9
330
A3
100
AcDbEntity
  8
LAYER_1
 62
   178
100
AcDbVertex
100
AcDb2dVertex
 10
39.80000305175781
 20
24.00000097656266
 30
0.0
  0
VERTEX
  5
AA
330
A3
100
AcDbEntity
  8
LAYER_1
 62
   178
100
AcDbVertex
100
AcDb2dVertex
 10
40.20000457763672
 20
27.09999945068375
 30
0.0
  0
VERTEX
  5
AB
330
A3
100
AcDbEntity
  8
LAYER_1
 62
   178
100
AcDbVertex
100
AcDb2dVertex
 10
42.80000305175781
 20
25.09999945068375
 30
0.0
  0
VERTEX
  5
AC
330
A3
100
AcDbEntity
  8
LAYER_1
 62
   178
100
AcDbVertex
100
AcDb2dVertex
 10
45.90000152587891
 20
26.00000097656266
 30
0.0
  0
VERTEX
  5
AD
330
A3
100
AcDbEntity
  8
LAYER_1
 62
   178
100
AcDbVertex
100
AcDb2dVertex
 10
44.90000152587891
 20
22.40000250244157
 30
0.0
  0
VERTEX
  5
AE
330
A3
100
AcDbEntity
  8
LAYER_1
 62
   178
100
AcDbVertex
100
AcDb2dVertex
 10
46.69999694824219
 20
19.69999792480485
 30
0.0
  0
SEQEND
  5
AF
330
A3
100
AcDbEntity
  8
LAYER_1
 62
   178
  0
POLYLINE
  5
B0
330
1F
100
AcDbEntity
  8
LAYER_1
 62
   178
100
AcDb2dPolyline
 66
     1
 10
0.0
 20
0.0
 30
0.0
  0
VERTEX
  5
B1
330
B0
100
AcDbEntity
  8
LAYER_1
 62
   178
100
AcDbVertex
100
AcDb2dVertex
 10
43.59999847412109
 20
30.79999639892594
 30
0.0
  0
VERTEX
  5
B2
330
B0
100
AcDbEntity
  8
LAYER_1
 62
   178
100
AcDbVertex
100
AcDb2dVertex
 10
35.39999771118164
 20
37.69999792480485
 30
0.0
  0
VERTEX
  5
B3
330
B0
100
AcDbEntity
  8
LAYER_1
 62
   178
100
AcDbVertex
100
AcDb2dVertex
 10
35.09999847412109
 20
34.59999945068375
 30
0.0
  0
VERTEX
  5
B4
330
B0
100
AcDbEntity
  8
LAYER_1
 62
   178
100
AcDbVertex
100
AcDb2dVertex
 10
34.19999694824219
 20
35.90000250244157
 30
0.0
  0
VERTEX
  5
B5
330
B0
100
AcDbEntity
  8
LAYER_1
 62
   178
100
AcDbVertex
100
AcDb2dVertex
 10
35.49999618530273
 20
39.59999945068375
 30
0.0
  0
VERTEX
  5
B6
330
B0
100
AcDbEntity
  8
LAYER_1
 62
   178
100
AcDbVertex
100
AcDb2dVertex
 10
33.49999618530273
 20
39.29999639892594
 30
0.0
  0
VERTEX
  5
B7
330
B0
100
AcDbEntity
  8
LAYER_1
 62
   178
100
AcDbVertex
100
AcDb2dVertex
 10
36.09999465942383
 20
42.69999792480485
 30
0.0
  0
VERTEX
  5
B8
330
B0
100
AcDbEntity
  8
LAYER_1
 62
   178
100
AcDbVertex
100
AcDb2dVertex
 10
40.89999389648438
 20
42.29999639892594
 30
0.0
  0
VERTEX
  5
B9
330
B0
100
AcDbEntity
  8
LAYER_1
 62
   178
100
AcDbVertex
100
AcDb2dVertex
 10
38.0
 20
40.39999487304704
 30
0.0
  0
VERTEX
  5
BA
330
B0
100
AcDbEntity
  8
LAYER_1
 62
   178
100
AcDbVertex
100
AcDb2dVertex
 10
46.0
 20
37.09999182128922
 30
0.0
  0
VERTEX
  5
BB
330
B0
100
AcDbEntity
  8
LAYER_1
 62
   178
100
AcDbVertex
100
AcDb2dVertex
 10
47.29999923706055
 20
31.69999029541032
 30
0.0
  0
VERTEX
  5
BC
330
B0
100
AcDbEntity
  8
LAYER_1
 62
   178
100
AcDbVertex
100
AcDb2dVertex
 10
43.59999847412109
 20
30.79999639892594
 30
0.0
  0
SEQEND
  5
BD
330
B0
100
AcDbEntity
  8
LAYER_1
 62
   178
  0
POLYLINE
  5
BE
330
1F
100
AcDbEntity
  8
LAYER_1
 62
   178
100
AcDb2dPolyline
 66
     1
 10
0.0
 20
0.0
 30
0.0
  0
VERTEX
  5
BF
330
BE
100
AcDbEntity
  8
LAYER_1
 62
   178
100
AcDbVertex
100
AcDb2dVertex
 10
30.29999923706055
 20
29.99999334716813
 30
0.0
  0
VERTEX
  5
C0
330
BE
100
AcDbEntity
  8
LAYER_1
 62
   178
100
AcDbVertex
100
AcDb2dVertex
 10
32.39999771118164
 20
32.79999639892594
 30
0.0
  0
VERTEX
  5
C1
330
BE
100
AcDbEntity
  8
LAYER_1
 62
   178
100
AcDbVertex
100
AcDb2dVertex
 10
35.09999847412109
 20
32.49999334716813
 30
0.0
  0
VERTEX
  5
C2
330
BE
100
AcDbEntity
  8
LAYER_1
 62
   178
100
AcDbVertex
100
AcDb2dVertex
 10
34.89999771118164
 20
26.89999487304704
 30
0.0
  0
VERTEX
  5
C3
330
BE
100
AcDbEntity
  8
LAYER_1
 62
   178
100
AcDbVertex
100
AcDb2dVertex
 10
33.49999618530273
 20
26.19999792480485
 30
0.0
  0
VERTEX
  5
C4
330
BE
100
AcDbEntity
  8
LAYER_1
 62
   178
100
AcDbVertex
100
AcDb2dVertex
 10
32.49999618530273
 20
27.79999639892594
 30
0.0
  0
VERTEX
  5
C5
330
BE
100
AcDbEntity
  8
LAYER_1
 62
   178
100
AcDbVertex
100
AcDb2dVertex
 10
33.39999771118164
 20
30.59999945068375
 30
0.0
  0
VERTEX
  5
C6
330
BE
100
AcDbEntity
  8
LAYER_1
 62
   178
100
AcDbVertex
100
AcDb2dVertex
 10
30.29999923706055
 20
29.99999334716813
 30
0.0
  0
SEQEND
  5
C7
330
BE
100
AcDbEntity
  8
LAYER_1
 62
   178
  0
SPLINE
  5
C8
330
1F
100
AcDbEntity
  8
LAYER_1
 62
   178
100
AcDbSpline
210
0.0
220
0.0
230
1.0
 70
    11
 71
     3
 72
    89
 73
    85
 74
     0
 42
0.0000000001
 43
0.0000000001
 12
1.0
 22
0.0
 32
0.0
 13
1.0
 23
0.0
 33
0.0
 40
0.0
 40
0.0
 40
0.0
 40
0.0
 40
1.0
 40
1.0
 40
1.0
 40
2.0
 40
2.0
 40
2.0
 40
3.0
 40
3.0
 40
3.0
 40
4.0
 40
4.0
 40
4.0
 40
5.0
 40
5.0
 40
5.0
 40
6.0
 40
6.0
 40
6.0
 40
7.0
 40
7.0
 40
7.0
 40
8.0
 40
8.0
 40
8.0
 40
9.0
 40
9.0
 40
9.0
 40
10.0
 40
10.0
 40
10.0
 40
11.0
 40
11.0
 40
11.0
 40
12.0
 40
12.0
 40
12.0
 40
13.0
 40
13.0
 40
13.0
 40
14.0
 40
14.0
 40
14.0
 40
15.0
 40
15.0
 40
15.0
 40
16.0
 40
16.0
 40
16.0
 40
17.0
 40
17.0
 40
17.0
 40
18.0
 40
18.0
 40
18.0
 40
19.0
 40
19.0
 40
19.0
 40
20.0
 40
20.0
 40
20.0
 40
21.0
 40
21.0
 40
21.0
 40
22.0
 40
22.0
 40
22.0
 40
23.0
 40
23.0
 40
23.0
 40
24.0
 40
24.0
 40
24.0
 40
25.0
 40
25.0
 40
25.0
 40
26.0
 40
26.0
 40
26.0
 40
27.0
 40
27.0
 40
27.0
 40
28.0
 40
28.0
 40
28.0
 40
28.0
 10
24.69999885559082
 20
36.89999487304704
 30
0.0
 10
24.69999885559082
 20
36.89999487304704
 30
0.0
 10
27.19999885559082
 20
37.59999182128922
 30
0.0
 10
27.19999885559082
 20
37.59999182128922
 30
0.0
 10
27.19999885559082
 20
37.59999182128922
 30
0.0
 10
26.29999923706055
 20
38.59999182128922
 30
0.0
 10
26.29999923706055
 20
38.59999182128922
 30
0.0
 10
26.29999923706055
 20
38.59999182128922
 30
0.0
 10
23.69999885559082
 20
37.89999487304704
 30
0.0
 10
23.69999885559082
 20
37.89999487304704
 30
0.0
 10
23.69999885559082
 20
37.89999487304704
 30
0.0
 10
22.59999847412109
 20
38.99999334716813
 30
0.0
 10
22.59999847412109
 20
38.99999334716813
 30
0.0
 10
22.59999847412109
 20
38.99999334716813
 30
0.0
 10
27.10000038146973
 20
40.19999792480485
 30
0.0
 10
27.10000038146973
 20
40.19999792480485
 30
0.0
 10
27.10000038146973
 20
40.19999792480485
 30
0.0
 10
26.10000038146973
 20
41.09999945068375
 30
0.0
 10
26.10000038146973
 20
41.09999945068375
 30
0.0
 10
26.10000038146973
 20
41.09999945068375
 30
0.0
 10
22.30000114440918
 20
40.09999945068375
 30
0.0
 10
22.30000114440918
 20
40.09999945068375
 30
0.0
 10
22.30000114440918
 20
40.09999945068375
 30
0.0
 10
23.00000190734863
 20
42.50000097656266
 30
0.0
 10
23.00000190734863
 20
42.50000097656266
 30
0.0
 10
23.00000190734863
 20
42.50000097656266
 30
0.0
 10
21.70000267028809
 20
42.09999945068375
 30
0.0
 10
21.70000267028809
 20
42.09999945068375
 30
0.0
 10
21.58980369567871
 20
41.65988256835954
 30
0.0
 10
21.4562816619873
 20
41.2259378662111
 30
0.0
 10
21.30000305175781
 20
40.79999639892594
 30
0.0
 10
21.30000305175781
 20
40.79999639892594
 30
0.0
 10
20.50000381469727
 20
41.59999945068375
 30
0.0
 10
20.50000381469727
 20
41.59999945068375
 30
0.0
 10
20.50000381469727
 20
41.59999945068375
 30
0.0
 10
21.00000381469727
 20
43.69999792480485
 30
0.0
 10
21.00000381469727
 20
43.69999792480485
 30
0.0
 10
21.00000381469727
 20
43.69999792480485
 30
0.0
 10
21.60000419616699
 20
45.69999792480485
 30
0.0
 10
21.60000419616699
 20
45.69999792480485
 30
0.0
 10
21.60000419616699
 20
45.69999792480485
 30
0.0
 10
22.70000457763672
 20
46.00000097656266
 30
0.0
 10
22.70000457763672
 20
46.00000097656266
 30
0.0
 10
22.70000457763672
 20
46.00000097656266
 30
0.0
 10
22.40000534057617
 20
44.69999792480485
 30
0.0
 10
22.40000534057617
 20
44.69999792480485
 30
0.0
 10
22.40000534057617
 20
44.69999792480485
 30
0.0
 10
23.30000495910645
 20
43.69999792480485
 30
0.0
 10
23.30000495910645
 20
43.69999792480485
 30
0.0
 10
23.30000495910645
 20
43.69999792480485
 30
0.0
 10
23.90000534057617
 20
46.19999792480485
 30
0.0
 10
23.90000534057617
 20
46.19999792480485
 30
0.0
 10
23.90000534057617
 20
46.19999792480485
 30
0.0
 10
26.70000457763672
 20
43.39999487304704
 30
0.0
 10
26.70000457763672
 20
43.39999487304704
 30
0.0
 10
26.70000457763672
 20
43.39999487304704
 30
0.0
 10
28.00000381469727
 20
43.69999792480485
 30
0.0
 10
28.00000381469727
 20
43.69999792480485
 30
0.0
 10
28.00000381469727
 20
43.69999792480485
 30
0.0
 10
25.5
 20
46.19999792480485
 30
0.0
 10
25.5
 20
46.19999792480485
 30
0.0
 10
25.5
 20
46.19999792480485
 30
0.0
 10
30.60000038146973
 20
43.89999487304704
 30
0.0
 10
30.60000038146973
 20
43.89999487304704
 30
0.0
 10
30.60000038146973
 20
43.89999487304704
 30
0.0
 10
31.80000114440918
 20
38.69999792480485
 30
0.0
 10
31.80000114440918
 20
38.69999792480485
 30
0.0
 10
31.80000114440918
 20
38.69999792480485
 30
0.0
 10
28.60000038146973
 20
41.29999639892594
 30
0.0
 10
28.60000038146973
 20
41.29999639892594
 30
0.0
 10
28.60000038146973
 20
41.29999639892594
 30
0.0
 10
28.60000038146973
 20
37.19999792480485
 30
0.0
 10
28.60000038146973
 20
37.19999792480485
 30
0.0
 10
28.60000038146973
 20
37.19999792480485
 30
0.0
 10
25.30000114440918
 20
35.29999639892594
 30
0.0
 10
25.30000114440918
 20
35.29999639892594
 30
0.0
 10
25.30000114440918
 20
35.29999639892594
 30
0.0
 10
25.40000152587891
 20
35.29999639892594
 30
0.0
 10
25.40000152587891
 20
35.29999639892594
 30
0.0
 10
25.40000152587891
 20
35.29999639892594
 30
0.0
 10
25.80000114440918
 20
35.69999792480485
 30
0.0
 10
25.80000114440918
 20
35.69999792480485
 30
0.0
 10
25.80000114440918
 20
35.69999792480485
 30
0.0
 10
24.69999885559082
 20
36.89999487304704
 30
0.0
 10
24.69999885559082
 20
36.89999487304704
 30
0.0
  0
SPLINE
  5
C9
330
1F
100
AcDbEntity
  8
LAYER_1
 62
   178
100
AcDbSpline
210
0.0
220
0.0
230
1.0
 70
    11
 71
     3
 72
    20
 73
    16
 74
     0
 42
0.0000000001
 43
0.0000000001
 12
1.0
 22
0.0
 32
0.0
 13
1.0
 23
0.0
 33
0.0
 40
0.0
 40
0.0
 40
0.0
 40
0.0
 40
1.0
 40
1.0
 40
1.0
 40
2.0
 40
2.0
 40
2.0
 40
3.0
 40
3.0
 40
3.0
 40
4.0
 40
4.0
 40
4.0
 40
5.0
 40
5.0
 40
5.0
 40
5.0
 10
19.69999885559082
 20
41.69999792480485
 30
0.0
 10
18.89999961853027
 20
42.59999945068375
 30
0.0
 10
17.99999809265137
 20
43.39999487304704
 30
0.0
 10
17.09999847412109
 20
44.29999639892594
 30
0.0
 10
17.26787948608398
 20
44.53064062500016
 30
0.0
 10
17.33959007263184
 20
44.81748297119157
 30
0.0
 10
17.29999923706055
 20
45.09999945068375
 30
0.0
 10
17.29999923706055
 20
45.09999945068375
 30
0.0
 10
20.89999961853027
 20
46.00000097656266
 30
0.0
 10
20.89999961853027
 20
46.00000097656266
 30
0.0
 10
20.89999961853027
 20
46.00000097656266
 30
0.0
 10
19.0
 20
44.19999792480485
 30
0.0
 10
19.0
 20
44.19999792480485
 30
0.0
 10
19.0
 20
44.19999792480485
 30
0.0
 10
19.69999885559082
 20
41.69999792480485
 30
0.0
 10
19.69999885559082
 20
41.69999792480485
 30
0.0
  0
SPLINE
  5
CA
330
1F
100
AcDbEntity
  8
LAYER_1
 62
   178
100
AcDbSpline
210
0.0
220
0.0
230
1.0
 70
    11
 71
     3
 72
    20
 73
    16
 74
     0
 42
0.0000000001
 43
0.0000000001
 12
1.0
 22
0.0
 32
0.0
 13
1.0
 23
0.0
 33
0.0
 40
0.0
 40
0.0
 40
0.0
 40
0.0
 40
1.0
 40
1.0
 40
1.0
 40
2.0
 40
2.0
 40
2.0
 40
3.0
 40
3.0
 40
3.0
 40
4.0
 40
4.0
 40
4.0
 40
5.0
 40
5.0
 40
5.0
 40
5.0
 10
11.59999847412109
 20
48.50000097656266
 30
0.0
 10
11.59999847412109
 20
48.50000097656266
 30
0.0
 10
14.19999885559082
 20
45.90000250244157
 30
0.0
 10
14.19999885559082
 20
45.90000250244157
 30
0.0
 10
14.03211784362793
 20
45.66935827636735
 30
0.0
 10
13.96040725708008
 20
45.38251593017594
 30
0.0
 10
13.99999904632568
 20
45.09999945068375
 30
0.0
 10
13.99999904632568
 20
45.09999945068375
 30
0.0
 10
10.39999961853027
 20
44.09999945068375
 30
0.0
 10
10.39999961853027
 20
44.09999945068375
 30
0.0
 10
10.39999961853027
 20
44.09999945068375
 30
0.0
 10
12.29999923706055
 20
46.00000097656266
 30
0.0
 10
12.29999923706055
 20
46.00000097656266
 30
0.0
 10
12.29999923706055
 20
46.00000097656266
 30
0.0
 10
11.59999847412109
 20
48.50000097656266
 30
0.0
 10
11.59999847412109
 20
48.50000097656266
 30
0.0
  0
POLYLINE
  5
CB
330
1F
100
AcDbEntity
  8
LAYER_1
 62
   178
100
AcDb2dPolyline
 66
     1
 10
0.0
 20
0.0
 30
0.0
  0
VERTEX
  5
CC
330
CB
100
AcDbEntity
  8
LAYER_1
 62
   178
100
AcDbVertex
100
AcDb2dVertex
 10
18.39999771118164
 20
51.69999792480485
 30
0.0
  0
VERTEX
  5
CD
330
CB
100
AcDbEntity
  8
LAYER_1
 62
   178
100
AcDbVertex
100
AcDb2dVertex
 10
19.39999771118164
 20
50.69999792480485
 30
0.0
  0
VERTEX
  5
CE
330
CB
100
AcDbEntity
  8
LAYER_1
 62
   178
100
AcDbVertex
100
AcDb2dVertex
 10
20.69999694824219
 20
51.00000097656266
 30
0.0
  0
VERTEX
  5
CF
330
CB
100
AcDbEntity
  8
LAYER_1
 62
   178
100
AcDbVertex
100
AcDb2dVertex
 10
18.89999771118164
 20
52.80000402832047
 30
0.0
  0
VERTEX
  5
D0
330
CB
100
AcDbEntity
  8
LAYER_1
 62
   178
100
AcDbVertex
100
AcDb2dVertex
 10
22.69999694824219
 20
53.80000402832047
 30
0.0
  0
VERTEX
  5
D1
330
CB
100
AcDbEntity
  8
LAYER_1
 62
   178
100
AcDbVertex
100
AcDb2dVertex
 10
22.89999771118164
 20
54.80000402832047
 30
0.0
  0
VERTEX
  5
D2
330
CB
100
AcDbEntity
  8
LAYER_1
 62
   178
100
AcDbVertex
100
AcDb2dVertex
 10
24.69999694824219
 20
54.00000097656266
 30
0.0
  0
VERTEX
  5
D3
330
CB
100
AcDbEntity
  8
LAYER_1
 62
   178
100
AcDbVertex
100
AcDb2dVertex
 10
25.19999694824219
 20
52.40000250244157
 30
0.0
  0
VERTEX
  5
D4
330
CB
100
AcDbEntity
  8
LAYER_1
 62
   178
100
AcDbVertex
100
AcDb2dVertex
 10
24.39999771118164
 20
52.20000555419938
 30
0.0
  0
VERTEX
  5
D5
330
CB
100
AcDbEntity
  8
LAYER_1
 62
   178
100
AcDbVertex
100
AcDb2dVertex
 10
23.29999732971191
 20
48.40000250244157
 30
0.0
  0
VERTEX
  5
D6
330
CB
100
AcDbEntity
  8
LAYER_1
 62
   178
100
AcDbVertex
100
AcDb2dVertex
 10
21.59999656677246
 20
50.09999945068375
 30
0.0
  0
VERTEX
  5
D7
330
CB
100
AcDbEntity
  8
LAYER_1
 62
   178
100
AcDbVertex
100
AcDb2dVertex
 10
21.19999694824219
 20
48.79999639892594
 30
0.0
  0
VERTEX
  5
D8
330
CB
100
AcDbEntity
  8
LAYER_1
 62
   178
100
AcDbVertex
100
AcDb2dVertex
 10
22.19999694824219
 20
47.89999487304704
 30
0.0
  0
VERTEX
  5
D9
330
CB
100
AcDbEntity
  8
LAYER_1
 62
   178
100
AcDbVertex
100
AcDb2dVertex
 10
21.09999656677246
 20
47.49999334716813
 30
0.0
  0
VERTEX
  5
DA
330
CB
100
AcDbEntity
  8
LAYER_1
 62
   178
100
AcDbVertex
100
AcDb2dVertex
 10
19.59999656677246
 20
48.99999334716813
 30
0.0
  0
VERTEX
  5
DB
330
CB
100
AcDbEntity
  8
LAYER_1
 62
   178
100
AcDbVertex
100
AcDb2dVertex
 10
18.09999656677246
 20
50.49999334716813
 30
0.0
  0
VERTEX
  5
DC
330
CB
100
AcDbEntity
  8
LAYER_1
 62
   178
100
AcDbVertex
100
AcDb2dVertex
 10
18.39999771118164
 20
51.69999792480485
 30
0.0
  0
SEQEND
  5
DD
330
CB
100
AcDbEntity
  8
LAYER_1
 62
   178
  0
SPLINE
  5
DE
330
1F
100
AcDbEntity
  8
LAYER_1
 62
   178
100
AcDbSpline
210
0.0
220
0.0
230
1.0
 70
    11
 71
     3
 72
    17
 73
    13
 74
     0
 42
0.0000000001
 43
0.0000000001
 12
1.0
 22
0.0
 32
0.0
 13
1.0
 23
0.0
 33
0.0
 40
0.0
 40
0.0
 40
0.0
 40
0.0
 40
1.0
 40
1.0
 40
1.0
 40
2.0
 40
2.0
 40
2.0
 40
3.0
 40
3.0
 40
3.0
 40
4.0
 40
4.0
 40
4.0
 40
4.0
 10
18.29999732971191
 20
56.29999639892594
 30
0.0
 10
18.29999732971191
 20
56.39999487304704
 30
0.0
 10
18.49999809265137
 20
56.49999334716813
 30
0.0
 10
18.69999694824219
 20
56.49999334716813
 30
0.0
 10
18.89999580383301
 20
56.49999334716813
 30
0.0
 10
18.99999618530273
 20
56.29999639892594
 30
0.0
 10
18.89999771118164
 20
56.09999182128922
 30
0.0
 10
18.79999923706055
 20
55.8999872436525
 30
0.0
 10
18.69999694824219
 20
55.79998876953141
 30
0.0
 10
18.49999809265137
 20
55.89999487304704
 30
0.0
 10
18.29999923706055
 20
56.00000097656266
 30
0.0
 10
18.20000076293945
 20
56.09999945068375
 30
0.0
 10
18.29999732971191
 20
56.29999639892594
 30
0.0
  0
POLYLINE
  5
DF
330
1F
100
AcDbEntity
  8
LAYER_1
 62
   178
100
AcDb2dPolyline
 66
     1
 10
0.0
 20
0.0
 30
0.0
  0
VERTEX
  5
E0
330
DF
100
AcDbEntity
  8
LAYER_1
 62
   178
100
AcDbVertex
100
AcDb2dVertex
 10
27.89999771118164
 20
54.69999792480485
 30
0.0
  0
VERTEX
  5
E1
330
DF
100
AcDbEntity
  8
LAYER_1
 62
   178
100
AcDbVertex
100
AcDb2dVertex
 10
26.89999771118164
 20
54.69999792480485
 30
0.0
  0
VERTEX
  5
E2
330
DF
100
AcDbEntity
  8
LAYER_1
 62
   178
100
AcDbVertex
100
AcDb2dVertex
 10
26.29999732971191
 20
54.00000097656266
 30
0.0
  0
VERTEX
  5
E3
330
DF
100
AcDbEntity
  8
LAYER_1
 62
   178
100
AcDbVertex
100
AcDb2dVertex
 10
25.99999809265137
 20
55.00000097656266
 30
0.0
  0
VERTEX
  5
E4
330
DF
100
AcDbEntity
  8
LAYER_1
 62
   178
100
AcDbVertex
100
AcDb2dVertex
 10
25.09999847412109
 20
55.40000250244157
 30
0.0
  0
VERTEX
  5
E5
330
DF
100
AcDbEntity
  8
LAYER_1
 62
   178
100
AcDbVertex
100
AcDb2dVertex
 10
25.99999809265137
 20
55.90000250244157
 30
0.0
  0
VERTEX
  5
E6
330
DF
100
AcDbEntity
  8
LAYER_1
 62
   178
100
AcDbVertex
100
AcDb2dVertex
 10
25.99999809265137
 20
56.80000402832047
 30
0.0
  0
VERTEX
  5
E7
330
DF
100
AcDbEntity
  8
LAYER_1
 62
   178
100
AcDbVertex
100
AcDb2dVertex
 10
26.69999885559082
 20
56.20000555419938
 30
0.0
  0
VERTEX
  5
E8
330
DF
100
AcDbEntity
  8
LAYER_1
 62
   178
100
AcDbVertex
100
AcDb2dVertex
 10
27.59999847412109
 20
56.40000250244157
 30
0.0
  0
VERTEX
  5
E9
330
DF
100
AcDbEntity
  8
LAYER_1
 62
   178
100
AcDbVertex
100
AcDb2dVertex
 10
27.29999923706055
 20
55.40000250244157
 30
0.0
  0
VERTEX
  5
EA
330
DF
100
AcDbEntity
  8
LAYER_1
 62
   178
100
AcDbVertex
100
AcDb2dVertex
 10
27.89999771118164
 20
54.69999792480485
 30
0.0
  0
SEQEND
  5
EB
330
DF
100
AcDbEntity
  8
LAYER_1
 62
   178
  0
POLYLINE
  5
EC
330
1F
100
AcDbEntity
  8
LAYER_1
 62
   178
100
AcDb2dPolyline
 66
     1
 10
0.0
 20
0.0
 30
0.0
  0
VERTEX
  5
ED
330
EC
100
AcDbEntity
  8
LAYER_1
 62
   178
100
AcDbVertex
100
AcDb2dVertex
 10
36.79999542236328
 20
45.50000097656266
 30
0.0
  0
VERTEX
  5
EE
330
EC
100
AcDbEntity
  8
LAYER_1
 62
   178
100
AcDbVertex
100
AcDb2dVertex
 10
34.59999847412109
 20
45.50000097656266
 30
0.0
  0
VERTEX
  5
EF
330
EC
100
AcDbEntity
  8
LAYER_1
 62
   178
100
AcDbVertex
100
AcDb2dVertex
 10
33.39999771118164
 20
44.19999792480485
 30
0.0
  0
VERTEX
  5
F0
330
EC
100
AcDbEntity
  8
LAYER_1
 62
   178
100
AcDbVertex
100
AcDb2dVertex
 10
32.70000076293945
 20
46.19999792480485
 30
0.0
  0
VERTEX
  5
F1
330
EC
100
AcDbEntity
  8
LAYER_1
 62
   178
100
AcDbVertex
100
AcDb2dVertex
 10
30.90000152587891
 20
47.00000097656266
 30
0.0
  0
VERTEX
  5
F2
330
EC
100
AcDbEntity
  8
LAYER_1
 62
   178
100
AcDbVertex
100
AcDb2dVertex
 10
32.60000228881836
 20
48.09999945068375
 30
0.0
  0
VERTEX
  5
F3
330
EC
100
AcDbEntity
  8
LAYER_1
 62
   178
100
AcDbVertex
100
AcDb2dVertex
 10
32.80000305175781
 20
49.90000250244157
 30
0.0
  0
VERTEX
  5
F4
330
EC
100
AcDbEntity
  8
LAYER_1
 62
   178
100
AcDbVertex
100
AcDb2dVertex
 10
34.40000152587891
 20
48.70000555419938
 30
0.0
  0
VERTEX
  5
F5
330
EC
100
AcDbEntity
  8
LAYER_1
 62
   178
100
AcDbVertex
100
AcDb2dVertex
 10
36.30000305175781
 20
49.30000402832047
 30
0.0
  0
VERTEX
  5
F6
330
EC
100
AcDbEntity
  8
LAYER_1
 62
   178
100
AcDbVertex
100
AcDb2dVertex
 10
35.70000457763672
 20
47.10000708007829
 30
0.0
  0
VERTEX
  5
F7
330
EC
100
AcDbEntity
  8
LAYER_1
 62
   178
100
AcDbVertex
100
AcDb2dVertex
 10
36.79999542236328
 20
45.50000097656266
 30
0.0
  0
SEQEND
  5
F8
330
EC
100
AcDbEntity
  8
LAYER_1
 62
   178
  0
POLYLINE
  5
F9
330
1F
100
AcDbEntity
  8
LAYER_1
 62
   178
100
AcDb2dPolyline
 66
     1
 10
0.0
 20
0.0
 30
0.0
  0
VERTEX
  5
FA
330
F9
100
AcDbEntity
  8
LAYER_1
 62
   178
100
AcDbVertex
100
AcDb2dVertex
 10
30.20000076293945
 20
56.29999639892594
 30
0.0
  0
VERTEX
  5
FB
330
F9
100
AcDbEntity
  8
LAYER_1
 62
   178
100
AcDbVertex
100
AcDb2dVertex
 10
30.20000076293945
 20
56.29999639892594
 30
0.0
  0
VERTEX
  5
FC
330
F9
100
AcDbEntity
  8
LAYER_1
 62
   178
100
AcDbVertex
100
AcDb2dVertex
 10
29.90000152587891
 20
54.59999945068375
 30
0.0
  0
VERTEX
  5
FD
330
F9
100
AcDbEntity
  8
LAYER_1
 62
   178
100
AcDbVertex
100
AcDb2dVertex
 10
29.0
 20
55.89999487304704
 30
0.0
  0
VERTEX
  5
FE
330
F9
100
AcDbEntity
  8
LAYER_1
 62
   178
100
AcDbVertex
100
AcDb2dVertex
 10
29.79999923706055
 20
57.99999334716813
 30
0.0
  0
VERTEX
  5
FF
330
F9
100
AcDbEntity
  8
LAYER_1
 62
   178
100
AcDbVertex
100
AcDb2dVertex
 10
32.70000076293945
 20
56.89999487304704
 30
0.0
  0
VERTEX
  5
100
330
F9
100
AcDbEntity
  8
LAYER_1
 62
   178
100
AcDbVertex
100
AcDb2dVertex
 10
33.60000228881836
 20
53.59999182128922
 30
0.0
  0
VERTEX
  5
101
330
F9
100
AcDbEntity
  8
LAYER_1
 62
   178
100
AcDbVertex
100
AcDb2dVertex
 10
30.20000076293945
 20
56.29999639892594
 30
0.0
  0
SEQEND
  5
102
330
F9
100
AcDbEntity
  8
LAYER_1
 62
   178
  0
POLYLINE
  5
103
330
1F
100
AcDbEntity
  8
LAYER_1
 62
   178
100
AcDb2dPolyline
 66
     1
 10
0.0
 20
0.0
 30
0.0
  0
VERTEX
  5
104
330
103
100
AcDbEntity
  8
LAYER_1
 62
   178
100
AcDbVertex
100
AcDb2dVertex
 10
30.0
 20
53.09999945068375
 30
0.0
  0
VERTEX
  5
105
330
103
100
AcDbEntity
  8
LAYER_1
 62
   178
100
AcDbVertex
100
AcDb2dVertex
 10
29.79999923706055
 20
49.90000250244157
 30
0.0
  0
VERTEX
  5
106
330
103
100
AcDbEntity
  8
LAYER_1
 62
   178
100
AcDbVertex
100
AcDb2dVertex
 10
28.79999923706055
 20
49.20000555419938
 30
0.0
  0
VERTEX
  5
107
330
103
100
AcDbEntity
  8
LAYER_1
 62
   178
100
AcDbVertex
100
AcDb2dVertex
 10
27.19999885559082
 20
48.80000402832047
 30
0.0
  0
VERTEX
  5
108
330
103
100
AcDbEntity
  8
LAYER_1
 62
   178
100
AcDbVertex
100
AcDb2dVertex
 10
27.89999961853027
 20
51.40000250244157
 30
0.0
  0
VERTEX
  5
109
330
103
100
AcDbEntity
  8
LAYER_1
 62
   178
100
AcDbVertex
100
AcDb2dVertex
 10
26.60000038146973
 20
51.00000097656266
 30
0.0
  0
VERTEX
  5
10A
330
103
100
AcDbEntity
  8
LAYER_1
 62
   178
100
AcDbVertex
100
AcDb2dVertex
 10
25.89999961853027
 20
48.50000097656266
 30
0.0
  0
VERTEX
  5
10B
330
103
100
AcDbEntity
  8
LAYER_1
 62
   178
100
AcDbVertex
100
AcDb2dVertex
 10
24.39999961853027
 20
48.09999945068375
 30
0.0
  0
VERTEX
  5
10C
330
103
100
AcDbEntity
  8
LAYER_1
 62
   178
100
AcDbVertex
100
AcDb2dVertex
 10
25.39999961853027
 20
51.69999792480485
 30
0.0
  0
VERTEX
  5
10D
330
103
100
AcDbEntity
  8
LAYER_1
 62
   178
100
AcDbVertex
100
AcDb2dVertex
 10
25.60000038146973
 20
51.00000097656266
 30
0.0
  0
VERTEX
  5
10E
330
103
100
AcDbEntity
  8
LAYER_1
 62
   178
100
AcDbVertex
100
AcDb2dVertex
 10
27.60000038146973
 20
53.40000250244157
 30
0.0
  0
VERTEX
  5
10F
330
103
100
AcDbEntity
  8
LAYER_1
 62
   178
100
AcDbVertex
100
AcDb2dVertex
 10
30.0
 20
53.09999945068375
 30
0.0
  0
SEQEND
  5
110
330
103
100
AcDbEntity
  8
LAYER_1
 62
   178
  0
POLYLINE
  5
111
330
1F
100
AcDbEntity
  8
LAYER_1
 62
   178
100
AcDb2dPolyline
 66
     1
 10
0.0
 20
0.0
 30
0.0
  0
VERTEX
  5
112
330
111
100
AcDbEntity
  8
LAYER_1
 62
   178
100
AcDbVertex
100
AcDb2dVertex
 10
25.70000076293945
 20
47.19999792480485
 30
0.0
  0
VERTEX
  5
113
330
111
100
AcDbEntity
  8
LAYER_1
 62
   178
100
AcDbVertex
100
AcDb2dVertex
 10
24.90000152587891
 20
46.79999639892594
 30
0.0
  0
VERTEX
  5
114
330
111
100
AcDbEntity
  8
LAYER_1
 62
   178
100
AcDbVertex
100
AcDb2dVertex
 10
24.70000076293945
 20
46.99999334716813
 30
0.0
  0
VERTEX
  5
115
330
111
100
AcDbEntity
  8
LAYER_1
 62
   178
100
AcDbVertex
100
AcDb2dVertex
 10
25.70000076293945
 20
47.19999792480485
 30
0.0
  0
SEQEND
  5
116
330
111
100
AcDbEntity
  8
LAYER_1
 62
   178
  0
SPLINE
  5
117
330
1F
100
AcDbEntity
  8
LAYER_1
 62
   178
100
AcDbSpline
210
0.0
220
0.0
230
1.0
 70
    11
 71
     3
 72
    26
 73
    22
 74
     0
 42
0.0000000001
 43
0.0000000001
 12
1.0
 22
0.0
 32
0.0
 13
1.0
 23
0.0
 33
0.0
 40
0.0
 40
0.0
 40
0.0
 40
0.0
 40
1.0
 40
1.0
 40
1.0
 40
2.0
 40
2.0
 40
2.0
 40
3.0
 40
3.0
 40
3.0
 40
4.0
 40
4.0
 40
4.0
 40
5.0
 40
5.0
 40
5.0
 40
6.0
 40
6.0
 40
6.0
 40
7.0
 40
7.0
 40
7.0
 40
7.0
 10
18.10000038146973
 20
47.59999945068375
 30
0.0
 10
18.10000038146973
 20
47.59999945068375
 30
0.0
 10
20.70000076293945
 20
46.90000250244157
 30
0.0
 10
20.70000076293945
 20
46.90000250244157
 30
0.0
 10
20.70000076293945
 20
46.90000250244157
 30
0.0
 10
17.10000038146973
 20
45.90000250244157
 30
0.0
 10
17.10000038146973
 20
45.90000250244157
 30
0.0
 10
17.10000038146973
 20
45.90000250244157
 30
0.0
 10
16.80000114440918
 20
46.30000402832047
 30
0.0
 10
16.80000114440918
 20
46.30000402832047
 30
0.0
 10
16.80000114440918
 20
46.35523321533219
 30
0.0
 10
16.75522804260254
 20
46.40000250244157
 30
0.0
 10
16.70000076293945
 20
46.40000250244157
 30
0.0
 10
16.70000076293945
 20
46.40000250244157
 30
0.0
 10
16.5
 20
46.40000250244157
 30
0.0
 10
16.5
 20
46.40000250244157
 30
0.0
 10
16.79999923706055
 20
47.59999945068375
 30
0.0
 10
17.10000038146973
 20
48.80000402832047
 30
0.0
 10
17.5
 20
50.00000097656266
 30
0.0
 10
17.5
 20
50.00000097656266
 30
0.0
 10
18.10000038146973
 20
47.59999945068375
 30
0.0
 10
18.10000038146973
 20
47.59999945068375
 30
0.0
  0
SPLINE
  5
118
330
1F
100
AcDbEntity
  8
LAYER_1
 62
   178
100
AcDbSpline
210
0.0
220
0.0
230
1.0
 70
    11
 71
     3
 72
    20
 73
    16
 74
     0
 42
0.0000000001
 43
0.0000000001
 12
1.0
 22
0.0
 32
0.0
 13
1.0
 23
0.0
 33
0.0
 40
0.0
 40
0.0
 40
0.0
 40
0.0
 40
1.0
 40
1.0
 40
1.0
 40
2.0
 40
2.0
 40
2.0
 40
3.0
 40
3.0
 40
3.0
 40
4.0
 40
4.0
 40
4.0
 40
5.0
 40
5.0
 40
5.0
 40
5.0
 10
15.60000038146973
 20
46.79999639892594
 30
0.0
 10
15.60000038146973
 20
46.79999639892594
 30
0.0
 10
14.80000019073486
 20
46.79999639892594
 30
0.0
 10
14.80000019073486
 20
46.79999639892594
 30
0.0
 10
14.80000019073486
 20
46.79999639892594
 30
0.0
 10
12.20000076293945
 20
49.29999639892594
 30
0.0
 10
12.20000076293945
 20
49.29999639892594
 30
0.0
 10
12.20000076293945
 20
49.29999639892594
 30
0.0
 10
14.70000076293945
 20
48.69999792480485
 30
0.0
 10
14.70000076293945
 20
48.69999792480485
 30
0.0
 10
14.70000076293945
 20
48.69999792480485
 30
0.0
 10
16.60000038146973
 20
50.50000097656266
 30
0.0
 10
16.60000038146973
 20
50.50000097656266
 30
0.0
 10
16.29999923706055
 20
49.19999792480485
 30
0.0
 10
16.0
 20
48.00000097656266
 30
0.0
 10
15.60000038146973
 20
46.79999639892594
 30
0.0
  0
SPLINE
  5
119
330
1F
100
AcDbEntity
  8
LAYER_1
 62
   178
100
AcDbSpline
210
0.0
220
0.0
230
1.0
 70
    11
 71
     3
 72
    26
 73
    22
 74
     0
 42
0.0000000001
 43
0.0000000001
 12
1.0
 22
0.0
 32
0.0
 13
1.0
 23
0.0
 33
0.0
 40
0.0
 40
0.0
 40
0.0
 40
0.0
 40
1.0
 40
1.0
 40
1.0
 40
2.0
 40
2.0
 40
2.0
 40
3.0
 40
3.0
 40
3.0
 40
4.0
 40
4.0
 40
4.0
 40
5.0
 40
5.0
 40
5.0
 40
6.0
 40
6.0
 40
6.0
 40
7.0
 40
7.0
 40
7.0
 40
7.0
 10
14.19999980926514
 20
44.19999792480485
 30
0.0
 10
14.19999980926514
 20
44.19999792480485
 30
0.0
 10
14.5
 20
43.89999487304704
 30
0.0
 10
14.5
 20
43.89999487304704
 30
0.0
 10
14.50000095367432
 20
43.84476568603532
 30
0.0
 10
14.54477214813232
 20
43.79999639892594
 30
0.0
 10
14.60000038146973
 20
43.79999639892594
 30
0.0
 10
14.60000038146973
 20
43.79999639892594
 30
0.0
 10
14.80000019073486
 20
43.79999639892594
 30
0.0
 10
14.80000019073486
 20
43.79999639892594
 30
0.0
 10
14.80000019073486
 20
43.79999639892594
 30
0.0
 10
13.90000057220459
 20
40.29999639892594
 30
0.0
 10
13.90000057220459
 20
40.29999639892594
 30
0.0
 10
13.90000057220459
 20
40.29999639892594
 30
0.0
 10
13.20000076293945
 20
42.79999639892594
 30
0.0
 10
13.20000076293945
 20
42.79999639892594
 30
0.0
 10
13.20000076293945
 20
42.79999639892594
 30
0.0
 10
10.60000038146973
 20
43.49999334716813
 30
0.0
 10
10.60000038146973
 20
43.49999334716813
 30
0.0
 10
10.60000038146973
 20
43.49999334716813
 30
0.0
 10
14.19999980926514
 20
44.19999792480485
 30
0.0
 10
14.19999980926514
 20
44.19999792480485
 30
0.0
  0
SPLINE
  5
11A
330
1F
100
AcDbEntity
  8
LAYER_1
 62
   178
100
AcDbSpline
210
0.0
220
0.0
230
1.0
 70
    11
 71
     3
 72
    20
 73
    16
 74
     0
 42
0.0000000001
 43
0.0000000001
 12
1.0
 22
0.0
 32
0.0
 13
1.0
 23
0.0
 33
0.0
 40
0.0
 40
0.0
 40
0.0
 40
0.0
 40
1.0
 40
1.0
 40
1.0
 40
2.0
 40
2.0
 40
2.0
 40
3.0
 40
3.0
 40
3.0
 40
4.0
 40
4.0
 40
4.0
 40
5.0
 40
5.0
 40
5.0
 40
5.0
 10
15.69999980926514
 20
43.39999487304704
 30
0.0
 10
15.69999980926514
 20
43.39999487304704
 30
0.0
 10
16.5
 20
43.39999487304704
 30
0.0
 10
16.5
 20
43.39999487304704
 30
0.0
 10
16.5
 20
43.39999487304704
 30
0.0
 10
19.10000038146973
 20
40.79999639892594
 30
0.0
 10
19.10000038146973
 20
40.79999639892594
 30
0.0
 10
19.10000038146973
 20
40.79999639892594
 30
0.0
 10
16.60000038146973
 20
41.49999334716813
 30
0.0
 10
16.60000038146973
 20
41.49999334716813
 30
0.0
 10
16.60000038146973
 20
41.49999334716813
 30
0.0
 10
14.70000076293945
 20
39.59999182128922
 30
0.0
 10
14.70000076293945
 20
39.59999182128922
 30
0.0
 10
15.0
 20
41.00000097656266
 30
0.0
 10
15.39999961853027
 20
42.19999792480485
 30
0.0
 10
15.69999980926514
 20
43.39999487304704
 30
0.0
  0
POLYLINE
  5
11B
330
1F
100
AcDbEntity
  8
LAYER_1
 62
   178
100
AcDb2dPolyline
 66
     1
 10
0.0
 20
0.0
 30
0.0
  0
VERTEX
  5
11C
330
11B
100
AcDbEntity
  8
LAYER_1
 62
   178
100
AcDbVertex
100
AcDb2dVertex
 10
30.39999961853027
 20
35.99999334716813
 30
0.0
  0
VERTEX
  5
11D
330
11B
100
AcDbEntity
  8
LAYER_1
 62
   178
100
AcDbVertex
100
AcDb2dVertex
 10
30.39999961853027
 20
37.09999945068375
 30
0.0
  0
VERTEX
  5
11E
330
11B
100
AcDbEntity
  8
LAYER_1
 62
   178
100
AcDbVertex
100
AcDb2dVertex
 10
31.29999923706055
 20
36.40000250244157
 30
0.0
  0
VERTEX
  5
11F
330
11B
100
AcDbEntity
  8
LAYER_1
 62
   178
100
AcDbVertex
100
AcDb2dVertex
 10
32.39999771118164
 20
36.70000555419938
 30
0.0
  0
VERTEX
  5
120
330
11B
100
AcDbEntity
  8
LAYER_1
 62
   178
100
AcDbVertex
100
AcDb2dVertex
 10
32.09999847412109
 20
35.40000250244157
 30
0.0
  0
VERTEX
  5
121
330
11B
100
AcDbEntity
  8
LAYER_1
 62
   178
100
AcDbVertex
100
AcDb2dVertex
 10
32.69999694824219
 20
34.50000097656266
 30
0.0
  0
VERTEX
  5
122
330
11B
100
AcDbEntity
  8
LAYER_1
 62
   178
100
AcDbVertex
100
AcDb2dVertex
 10
31.5
 20
34.50000097656266
 30
0.0
  0
VERTEX
  5
123
330
11B
100
AcDbEntity
  8
LAYER_1
 62
   178
100
AcDbVertex
100
AcDb2dVertex
 10
30.79999923706055
 20
33.69999792480485
 30
0.0
  0
VERTEX
  5
124
330
11B
100
AcDbEntity
  8
LAYER_1
 62
   178
100
AcDbVertex
100
AcDb2dVertex
 10
30.39999961853027
 20
34.79999639892594
 30
0.0
  0
VERTEX
  5
125
330
11B
100
AcDbEntity
  8
LAYER_1
 62
   178
100
AcDbVertex
100
AcDb2dVertex
 10
29.39999961853027
 20
35.29999639892594
 30
0.0
  0
VERTEX
  5
126
330
11B
100
AcDbEntity
  8
LAYER_1
 62
   178
100
AcDbVertex
100
AcDb2dVertex
 10
30.39999961853027
 20
35.99999334716813
 30
0.0
  0
SEQEND
  5
127
330
11B
100
AcDbEntity
  8
LAYER_1
 62
   178
  0
POLYLINE
  5
128
330
1F
100
AcDbEntity
  8
LAYER_1
 62
   178
100
AcDb2dPolyline
 66
     1
 10
0.0
 20
0.0
 30
0.0
  0
VERTEX
  5
129
330
128
100
AcDbEntity
  8
LAYER_1
 62
   178
100
AcDbVertex
100
AcDb2dVertex
 10
31.39999961853027
 20
26.59999182128922
 30
0.0
  0
VERTEX
  5
12A
330
128
100
AcDbEntity
  8
LAYER_1
 62
   178
100
AcDbVertex
100
AcDb2dVertex
 10
30.20000076293945
 20
26.59999182128922
 30
0.0
  0
VERTEX
  5
12B
330
128
100
AcDbEntity
  8
LAYER_1
 62
   178
100
AcDbVertex
100
AcDb2dVertex
 10
29.60000038146973
 20
25.89999487304704
 30
0.0
  0
VERTEX
  5
12C
330
128
100
AcDbEntity
  8
LAYER_1
 62
   178
100
AcDbVertex
100
AcDb2dVertex
 10
29.20000076293945
 20
26.89999487304704
 30
0.0
  0
VERTEX
  5
12D
330
128
100
AcDbEntity
  8
LAYER_1
 62
   178
100
AcDbVertex
100
AcDb2dVertex
 10
28.20000076293945
 20
27.39999487304704
 30
0.0
  0
VERTEX
  5
12E
330
128
100
AcDbEntity
  8
LAYER_1
 62
   178
100
AcDbVertex
100
AcDb2dVertex
 10
29.20000076293945
 20
27.89999487304704
 30
0.0
  0
VERTEX
  5
12F
330
128
100
AcDbEntity
  8
LAYER_1
 62
   178
100
AcDbVertex
100
AcDb2dVertex
 10
29.20000076293945
 20
28.89999487304704
 30
0.0
  0
VERTEX
  5
130
330
128
100
AcDbEntity
  8
LAYER_1
 62
   178
100
AcDbVertex
100
AcDb2dVertex
 10
30.0
 20
28.29999639892594
 30
0.0
  0
VERTEX
  5
131
330
128
100
AcDbEntity
  8
LAYER_1
 62
   178
100
AcDbVertex
100
AcDb2dVertex
 10
31.0
 20
28.59999945068375
 30
0.0
  0
VERTEX
  5
132
330
128
100
AcDbEntity
  8
LAYER_1
 62
   178
100
AcDbVertex
100
AcDb2dVertex
 10
30.70000076293945
 20
27.40000250244157
 30
0.0
  0
VERTEX
  5
133
330
128
100
AcDbEntity
  8
LAYER_1
 62
   178
100
AcDbVertex
100
AcDb2dVertex
 10
31.39999961853027
 20
26.59999182128922
 30
0.0
  0
SEQEND
  5
134
330
128
100
AcDbEntity
  8
LAYER_1
 62
   178
  0
POLYLINE
  5
135
330
1F
100
AcDbEntity
  8
LAYER_1
 62
   178
100
AcDb2dPolyline
 66
     1
 10
0.0
 20
0.0
 30
0.0
  0
VERTEX
  5
136
330
135
100
AcDbEntity
  8
LAYER_1
 62
   178
100
AcDbVertex
100
AcDb2dVertex
 10
30.89999961853027
 20
25.09999182128922
 30
0.0
  0
VERTEX
  5
137
330
135
100
AcDbEntity
  8
LAYER_1
 62
   178
100
AcDbVertex
100
AcDb2dVertex
 10
32.0
 20
25.09999182128922
 30
0.0
  0
VERTEX
  5
138
330
135
100
AcDbEntity
  8
LAYER_1
 62
   178
100
AcDbVertex
100
AcDb2dVertex
 10
29.79999923706055
 20
23.79998876953141
 30
0.0
  0
VERTEX
  5
139
330
135
100
AcDbEntity
  8
LAYER_1
 62
   178
100
AcDbVertex
100
AcDb2dVertex
 10
30.89999961853027
 20
25.09999182128922
 30
0.0
  0
SEQEND
  5
13A
330
135
100
AcDbEntity
  8
LAYER_1
 62
   178
  0
POLYLINE
  5
13B
330
1F
100
AcDbEntity
  8
LAYER_1
 62
   178
100
AcDb2dPolyline
 66
     1
 10
0.0
 20
0.0
 30
0.0
  0
VERTEX
  5
13C
330
13B
100
AcDbEntity
  8
LAYER_1
 62
   178
100
AcDbVertex
100
AcDb2dVertex
 10
46.70000076293945
 20
41.19999792480485
 30
0.0
  0
VERTEX
  5
13D
330
13B
100
AcDbEntity
  8
LAYER_1
 62
   178
100
AcDbVertex
100
AcDb2dVertex
 10
49.0
 20
42.59999945068375
 30
0.0
  0
VERTEX
  5
13E
330
13B
100
AcDbEntity
  8
LAYER_1
 62
   178
100
AcDbVertex
100
AcDb2dVertex
 10
49.29999923706055
 20
45.09999945068375
 30
0.0
  0
VERTEX
  5
13F
330
13B
100
AcDbEntity
  8
LAYER_1
 62
   178
100
AcDbVertex
100
AcDb2dVertex
 10
51.5
 20
43.50000097656266
 30
0.0
  0
VERTEX
  5
140
330
13B
100
AcDbEntity
  8
LAYER_1
 62
   178
100
AcDbVertex
100
AcDb2dVertex
 10
54.0
 20
44.19999792480485
 30
0.0
  0
VERTEX
  5
141
330
13B
100
AcDbEntity
  8
LAYER_1
 62
   178
100
AcDbVertex
100
AcDb2dVertex
 10
53.20000076293945
 20
41.29999639892594
 30
0.0
  0
VERTEX
  5
142
330
13B
100
AcDbEntity
  8
LAYER_1
 62
   178
100
AcDbVertex
100
AcDb2dVertex
 10
54.60000228881836
 20
39.09999945068375
 30
0.0
  0
VERTEX
  5
143
330
13B
100
AcDbEntity
  8
LAYER_1
 62
   178
100
AcDbVertex
100
AcDb2dVertex
 10
51.70000076293945
 20
39.09999945068375
 30
0.0
  0
VERTEX
  5
144
330
13B
100
AcDbEntity
  8
LAYER_1
 62
   178
100
AcDbVertex
100
AcDb2dVertex
 10
50.10000228881836
 20
37.29999639892594
 30
0.0
  0
VERTEX
  5
145
330
13B
100
AcDbEntity
  8
LAYER_1
 62
   178
100
AcDbVertex
100
AcDb2dVertex
 10
49.20000076293945
 20
39.89999487304704
 30
0.0
  0
VERTEX
  5
146
330
13B
100
AcDbEntity
  8
LAYER_1
 62
   178
100
AcDbVertex
100
AcDb2dVertex
 10
46.70000076293945
 20
41.19999792480485
 30
0.0
  0
SEQEND
  5
147
330
13B
100
AcDbEntity
  8
LAYER_1
 62
   178
  0
POLYLINE
  5
148
330
1F
100
AcDbEntity
  8
LAYER_1
 62
   178
100
AcDb2dPolyline
 66
     1
 10
0.0
 20
0.0
 30
0.0
  0
VERTEX
  5
149
330
148
100
AcDbEntity
  8
LAYER_1
 62
   178
100
AcDbVertex
100
AcDb2dVertex
 10
57.59999847412109
 20
41.50000097656266
 30
0.0
  0
VERTEX
  5
14A
330
148
100
AcDbEntity
  8
LAYER_1
 62
   178
100
AcDbVertex
100
AcDb2dVertex
 10
59.69999694824219
 20
40.59999945068375
 30
0.0
  0
VERTEX
  5
14B
330
148
100
AcDbEntity
  8
LAYER_1
 62
   178
100
AcDbVertex
100
AcDb2dVertex
 10
60.79999542236328
 20
36.69999792480485
 30
0.0
  0
VERTEX
  5
14C
330
148
100
AcDbEntity
  8
LAYER_1
 62
   178
100
AcDbVertex
100
AcDb2dVertex
 10
57.59999847412109
 20
41.50000097656266
 30
0.0
  0
SEQEND
  5
14D
330
148
100
AcDbEntity
  8
LAYER_1
 62
   178
  0
POLYLINE
  5
14E
330
1F
100
AcDbEntity
  8
LAYER_1
 62
   178
100
AcDb2dPolyline
 66
     1
 10
0.0
 20
0.0
 30
0.0
  0
VERTEX
  5
14F
330
14E
100
AcDbEntity
  8
LAYER_1
 62
   178
100
AcDbVertex
100
AcDb2dVertex
 10
60.29999923706055
 20
42.09999945068375
 30
0.0
  0
VERTEX
  5
150
330
14E
100
AcDbEntity
  8
LAYER_1
 62
   178
100
AcDbVertex
100
AcDb2dVertex
 10
61.09999847412109
 20
42.59999945068375
 30
0.0
  0
VERTEX
  5
151
330
14E
100
AcDbEntity
  8
LAYER_1
 62
   178
100
AcDbVertex
100
AcDb2dVertex
 10
61.09999847412109
 20
43.40000250244157
 30
0.0
  0
VERTEX
  5
152
330
14E
100
AcDbEntity
  8
LAYER_1
 62
   178
100
AcDbVertex
100
AcDb2dVertex
 10
61.79999923706055
 20
42.90000250244157
 30
0.0
  0
VERTEX
  5
153
330
14E
100
AcDbEntity
  8
LAYER_1
 62
   178
100
AcDbVertex
100
AcDb2dVertex
 10
62.59999847412109
 20
43.09999945068375
 30
0.0
  0
VERTEX
  5
154
330
14E
100
AcDbEntity
  8
LAYER_1
 62
   178
100
AcDbVertex
100
AcDb2dVertex
 10
62.29999923706055
 20
42.19999792480485
 30
0.0
  0
VERTEX
  5
155
330
14E
100
AcDbEntity
  8
LAYER_1
 62
   178
100
AcDbVertex
100
AcDb2dVertex
 10
62.79999923706055
 20
41.50000097656266
 30
0.0
  0
VERTEX
  5
156
330
14E
100
AcDbEntity
  8
LAYER_1
 62
   178
100
AcDbVertex
100
AcDb2dVertex
 10
62.0
 20
41.50000097656266
 30
0.0
  0
VERTEX
  5
157
330
14E
100
AcDbEntity
  8
LAYER_1
 62
   178
100
AcDbVertex
100
AcDb2dVertex
 10
61.40000152587891
 20
40.90000250244157
 30
0.0
  0
VERTEX
  5
158
330
14E
100
AcDbEntity
  8
LAYER_1
 62
   178
100
AcDbVertex
100
AcDb2dVertex
 10
61.10000228881836
 20
41.70000555419938
 30
0.0
  0
VERTEX
  5
159
330
14E
100
AcDbEntity
  8
LAYER_1
 62
   178
100
AcDbVertex
100
AcDb2dVertex
 10
60.29999923706055
 20
42.09999945068375
 30
0.0
  0
SEQEND
  5
15A
330
14E
100
AcDbEntity
  8
LAYER_1
 62
   178
  0
SPLINE
  5
15B
330
1F
100
AcDbEntity
  8
LAYER_1
 62
   178
100
AcDbSpline
210
0.0
220
0.0
230
1.0
 70
    11
 71
     3
 72
    38
 73
    34
 74
     0
 42
0.0000000001
 43
0.0000000001
 12
1.0
 22
0.0
 32
0.0
 13
1.0
 23
0.0
 33
0.0
 40
0.0
 40
0.0
 40
0.0
 40
0.0
 40
1.0
 40
1.0
 40
1.0
 40
2.0
 40
2.0
 40
2.0
 40
3.0
 40
3.0
 40
3.0
 40
4.0
 40
4.0
 40
4.0
 40
5.0
 40
5.0
 40
5.0
 40
6.0
 40
6.0
 40
6.0
 40
7.0
 40
7.0
 40
7.0
 40
8.0
 40
8.0
 40
8.0
 40
9.0
 40
9.0
 40
9.0
 40
10.0
 40
10.0
 40
10.0
 40
11.0
 40
11.0
 40
11.0
 40
11.0
 10
63.70000076293945
 20
45.09999945068375
 30
0.0
 10
63.70000076293945
 20
45.09999945068375
 30
0.0
 10
62.10000228881836
 20
44.69999792480485
 30
0.0
 10
62.10000228881836
 20
44.69999792480485
 30
0.0
 10
62.10000228881836
 20
44.69999792480485
 30
0.0
 10
59.70000076293945
 20
46.59999945068375
 30
0.0
 10
59.70000076293945
 20
46.59999945068375
 30
0.0
 10
59.70000076293945
 20
46.59999945068375
 30
0.0
 10
59.40000152587891
 20
43.50000097656266
 30
0.0
 10
59.40000152587891
 20
43.50000097656266
 30
0.0
 10
59.40000152587891
 20
43.50000097656266
 30
0.0
 10
57.30000305175781
 20
42.40000250244157
 30
0.0
 10
57.30000305175781
 20
42.40000250244157
 30
0.0
 10
57.30000305175781
 20
42.40000250244157
 30
0.0
 10
59.50000381469727
 20
48.30000402832047
 30
0.0
 10
59.50000381469727
 20
48.30000402832047
 30
0.0
 10
59.50000381469727
 20
48.30000402832047
 30
0.0
 10
59.80000305175781
 20
47.90000250244157
 30
0.0
 10
59.80000305175781
 20
47.90000250244157
 30
0.0
 10
59.80000305175781
 20
47.90000250244157
 30
0.0
 10
60.80000305175781
 20
47.09999945068375
 30
0.0
 10
60.80000305175781
 20
47.09999945068375
 30
0.0
 10
61.21009063720703
 20
46.9175653686525
 30
0.0
 10
61.65144348144531
 20
46.81572058105485
 30
0.0
 10
62.10000228881836
 20
46.79999639892594
 30
0.0
 10
62.87958526611328
 20
46.71833135986344
 30
0.0
 10
63.66744995117188
 20
46.82109930419938
 30
0.0
 10
64.4000015258789
 20
47.09999945068375
 30
0.0
 10
64.4000015258789
 20
47.09999945068375
 30
0.0
 10
64.5999984741211
 20
47.09999945068375
 30
0.0
 10
64.5999984741211
 20
47.09999945068375
 30
0.0
 10
64.11952209472656
 20
46.53020574951188
 30
0.0
 10
63.80780792236328
 20
45.83749487304704
 30
0.0
 10
63.70000076293945
 20
45.09999945068375
 30
0.0
  0
POLYLINE
  5
15C
330
1F
100
AcDbEntity
  8
LAYER_1
 62
   178
100
AcDb2dPolyline
 66
     1
 10
0.0
 20
0.0
 30
0.0
  0
VERTEX
  5
15D
330
15C
100
AcDbEntity
  8
LAYER_1
 62
   178
100
AcDbVertex
100
AcDb2dVertex
 10
46.5
 20
53.00000097656266
 30
0.0
  0
VERTEX
  5
15E
330
15C
100
AcDbEntity
  8
LAYER_1
 62
   178
100
AcDbVertex
100
AcDb2dVertex
 10
45.5
 20
53.50000097656266
 30
0.0
  0
VERTEX
  5
15F
330
15C
100
AcDbEntity
  8
LAYER_1
 62
   178
100
AcDbVertex
100
AcDb2dVertex
 10
45.20000076293945
 20
45.09999945068375
 30
0.0
  0
VERTEX
  5
160
330
15C
100
AcDbEntity
  8
LAYER_1
 62
   178
100
AcDbVertex
100
AcDb2dVertex
 10
42.10000228881836
 20
43.00000097656266
 30
0.0
  0
VERTEX
  5
161
330
15C
100
AcDbEntity
  8
LAYER_1
 62
   178
100
AcDbVertex
100
AcDb2dVertex
 10
38.90000152587891
 20
47.80000402832047
 30
0.0
  0
VERTEX
  5
162
330
15C
100
AcDbEntity
  8
LAYER_1
 62
   178
100
AcDbVertex
100
AcDb2dVertex
 10
41.10000228881836
 20
53.70000555419938
 30
0.0
  0
VERTEX
  5
163
330
15C
100
AcDbEntity
  8
LAYER_1
 62
   178
100
AcDbVertex
100
AcDb2dVertex
 10
36.40000152587891
 20
52.70000555419938
 30
0.0
  0
VERTEX
  5
164
330
15C
100
AcDbEntity
  8
LAYER_1
 62
   178
100
AcDbVertex
100
AcDb2dVertex
 10
38.60000228881836
 20
55.50000860595719
 30
0.0
  0
VERTEX
  5
165
330
15C
100
AcDbEntity
  8
LAYER_1
 62
   178
100
AcDbVertex
100
AcDb2dVertex
 10
44.50000381469727
 20
55.00000860595719
 30
0.0
  0
VERTEX
  5
166
330
15C
100
AcDbEntity
  8
LAYER_1
 62
   178
100
AcDbVertex
100
AcDb2dVertex
 10
46.10000228881836
 20
54.50000860595719
 30
0.0
  0
VERTEX
  5
167
330
15C
100
AcDbEntity
  8
LAYER_1
 62
   178
100
AcDbVertex
100
AcDb2dVertex
 10
46.5
 20
53.00000097656266
 30
0.0
  0
SEQEND
  5
168
330
15C
100
AcDbEntity
  8
LAYER_1
 62
   178
  0
POLYLINE
  5
169
330
1F
100
AcDbEntity
  8
LAYER_1
 62
   178
100
AcDb2dPolyline
 66
     1
 10
0.0
 20
0.0
 30
0.0
  0
VERTEX
  5
16A
330
169
100
AcDbEntity
  8
LAYER_1
 62
   178
100
AcDbVertex
100
AcDb2dVertex
 10
33.29999923706055
 20
68.8999986877443
 30
0.0
  0
VERTEX
  5
16B
330
169
100
AcDbEntity
  8
LAYER_1
 62
   178
100
AcDbVertex
100
AcDb2dVertex
 10
32.5
 20
69.4999971618654
 30
0.0
  0
VERTEX
  5
16C
330
169
100
AcDbEntity
  8
LAYER_1
 62
   178
100
AcDbVertex
100
AcDb2dVertex
 10
32.20000076293945
 20
65.59999563598649
 30
0.0
  0
VERTEX
  5
16D
330
169
100
AcDbEntity
  8
LAYER_1
 62
   178
100
AcDbVertex
100
AcDb2dVertex
 10
30.60000038146973
 20
67.69999411010758
 30
0.0
  0
VERTEX
  5
16E
330
169
100
AcDbEntity
  8
LAYER_1
 62
   178
100
AcDbVertex
100
AcDb2dVertex
 10
32.0
 20
71.4999971618654
 30
0.0
  0
VERTEX
  5
16F
330
169
100
AcDbEntity
  8
LAYER_1
 62
   178
100
AcDbVertex
100
AcDb2dVertex
 10
32.90000152587891
 20
71.19999792480485
 30
0.0
  0
VERTEX
  5
170
330
169
100
AcDbEntity
  8
LAYER_1
 62
   178
100
AcDbVertex
100
AcDb2dVertex
 10
33.29999923706055
 20
68.8999986877443
 30
0.0
  0
SEQEND
  5
171
330
169
100
AcDbEntity
  8
LAYER_1
 62
   178
  0
POLYLINE
  5
172
330
1F
100
AcDbEntity
  8
LAYER_1
 62
   178
100
AcDb2dPolyline
 66
     1
 10
0.0
 20
0.0
 30
0.0
  0
VERTEX
  5
173
330
172
100
AcDbEntity
  8
LAYER_1
 62
   178
100
AcDbVertex
100
AcDb2dVertex
 10
32.29999923706055
 20
73.8999986877443
 30
0.0
  0
VERTEX
  5
174
330
172
100
AcDbEntity
  8
LAYER_1
 62
   178
100
AcDbVertex
100
AcDb2dVertex
 10
30.0
 20
72.4999971618654
 30
0.0
  0
VERTEX
  5
175
330
172
100
AcDbEntity
  8
LAYER_1
 62
   178
100
AcDbVertex
100
AcDb2dVertex
 10
31.5
 20
71.69999792480485
 30
0.0
  0
VERTEX
  5
176
330
172
100
AcDbEntity
  8
LAYER_1
 62
   178
100
AcDbVertex
100
AcDb2dVertex
 10
28.10000038146973
 20
70.69999792480485
 30
0.0
  0
VERTEX
  5
177
330
172
100
AcDbEntity
  8
LAYER_1
 62
   178
100
AcDbVertex
100
AcDb2dVertex
 10
25.89999961853027
 20
72.69999792480485
 30
0.0
  0
VERTEX
  5
178
330
172
100
AcDbEntity
  8
LAYER_1
 62
   178
100
AcDbVertex
100
AcDb2dVertex
 10
28.19999885559082
 20
75.79999639892594
 30
0.0
  0
VERTEX
  5
179
330
172
100
AcDbEntity
  8
LAYER_1
 62
   178
100
AcDbVertex
100
AcDb2dVertex
 10
32.39999771118164
 20
75.4999971618654
 30
0.0
  0
VERTEX
  5
17A
330
172
100
AcDbEntity
  8
LAYER_1
 62
   178
100
AcDbVertex
100
AcDb2dVertex
 10
32.29999923706055
 20
73.8999986877443
 30
0.0
  0
SEQEND
  5
17B
330
172
100
AcDbEntity
  8
LAYER_1
 62
   178
  0
POLYLINE
  5
17C
330
1F
100
AcDbEntity
  8
LAYER_1
 62
   178
100
AcDb2dPolyline
 66
     1
 10
0.0
 20
0.0
 30
0.0
  0
VERTEX
  5
17D
330
17C
100
AcDbEntity
  8
LAYER_1
 62
   178
100
AcDbVertex
100
AcDb2dVertex
 10
29.39999961853027
 20
66.09999945068375
 30
0.0
  0
VERTEX
  5
17E
330
17C
100
AcDbEntity
  8
LAYER_1
 62
   178
100
AcDbVertex
100
AcDb2dVertex
 10
27.79999923706055
 20
66.09999945068375
 30
0.0
  0
VERTEX
  5
17F
330
17C
100
AcDbEntity
  8
LAYER_1
 62
   178
100
AcDbVertex
100
AcDb2dVertex
 10
26.89999961853027
 20
65.09999945068375
 30
0.0
  0
VERTEX
  5
180
330
17C
100
AcDbEntity
  8
LAYER_1
 62
   178
100
AcDbVertex
100
AcDb2dVertex
 10
26.5
 20
66.50000097656266
 30
0.0
  0
VERTEX
  5
181
330
17C
100
AcDbEntity
  8
LAYER_1
 62
   178
100
AcDbVertex
100
AcDb2dVertex
 10
25.10000038146973
 20
67.19999792480485
 30
0.0
  0
VERTEX
  5
182
330
17C
100
AcDbEntity
  8
LAYER_1
 62
   178
100
AcDbVertex
100
AcDb2dVertex
 10
26.39999961853027
 20
67.9999971618654
 30
0.0
  0
VERTEX
  5
183
330
17C
100
AcDbEntity
  8
LAYER_1
 62
   178
100
AcDbVertex
100
AcDb2dVertex
 10
26.39999961853027
 20
69.3999986877443
 30
0.0
  0
VERTEX
  5
184
330
17C
100
AcDbEntity
  8
LAYER_1
 62
   178
100
AcDbVertex
100
AcDb2dVertex
 10
27.60000038146973
 20
68.4999971618654
 30
0.0
  0
VERTEX
  5
185
330
17C
100
AcDbEntity
  8
LAYER_1
 62
   178
100
AcDbVertex
100
AcDb2dVertex
 10
29.0
 20
68.8999986877443
 30
0.0
  0
VERTEX
  5
186
330
17C
100
AcDbEntity
  8
LAYER_1
 62
   178
100
AcDbVertex
100
AcDb2dVertex
 10
28.5
 20
67.3000002136232
 30
0.0
  0
VERTEX
  5
187
330
17C
100
AcDbEntity
  8
LAYER_1
 62
   178
100
AcDbVertex
100
AcDb2dVertex
 10
29.39999961853027
 20
66.09999945068375
 30
0.0
  0
SEQEND
  5
188
330
17C
100
AcDbEntity
  8
LAYER_1
 62
   178
  0
POLYLINE
  5
189
330
1F
100
AcDbEntity
  8
LAYER_1
 62
   178
100
AcDb2dPolyline
 66
     1
 10
0.0
 20
0.0
 30
0.0
  0
VERTEX
  5
18A
330
189
100
AcDbEntity
  8
LAYER_1
 62
   178
100
AcDbVertex
100
AcDb2dVertex
 10
27.20000076293945
 20
77.9999971618654
 30
0.0
  0
VERTEX
  5
18B
330
189
100
AcDbEntity
  8
LAYER_1
 62
   178
100
AcDbVertex
100
AcDb2dVertex
 10
26.20000076293945
 20
76.9999971618654
 30
0.0
  0
VERTEX
  5
18C
330
189
100
AcDbEntity
  8
LAYER_1
 62
   178
100
AcDbVertex
100
AcDb2dVertex
 10
25.70000076293945
 20
78.4999971618654
 30
0.0
  0
VERTEX
  5
18D
330
189
100
AcDbEntity
  8
LAYER_1
 62
   178
100
AcDbVertex
100
AcDb2dVertex
 10
24.20000076293945
 20
79.19999792480485
 30
0.0
  0
VERTEX
  5
18E
330
189
100
AcDbEntity
  8
LAYER_1
 62
   178
100
AcDbVertex
100
AcDb2dVertex
 10
25.60000038146973
 20
79.9999971618654
 30
0.0
  0
VERTEX
  5
18F
330
189
100
AcDbEntity
  8
LAYER_1
 62
   178
100
AcDbVertex
100
AcDb2dVertex
 10
25.60000038146973
 20
81.19999792480485
 30
0.0
  0
VERTEX
  5
190
330
189
100
AcDbEntity
  8
LAYER_1
 62
   178
100
AcDbVertex
100
AcDb2dVertex
 10
25.80000114440918
 20
81.19999792480485
 30
0.0
  0
VERTEX
  5
191
330
189
100
AcDbEntity
  8
LAYER_1
 62
   178
100
AcDbVertex
100
AcDb2dVertex
 10
26.90000152587891
 20
80.3999986877443
 30
0.0
  0
VERTEX
  5
192
330
189
100
AcDbEntity
  8
LAYER_1
 62
   178
100
AcDbVertex
100
AcDb2dVertex
 10
28.40000152587891
 20
80.8999986877443
 30
0.0
  0
VERTEX
  5
193
330
189
100
AcDbEntity
  8
LAYER_1
 62
   178
100
AcDbVertex
100
AcDb2dVertex
 10
28.0
 20
79.19999792480485
 30
0.0
  0
VERTEX
  5
194
330
189
100
AcDbEntity
  8
LAYER_1
 62
   178
100
AcDbVertex
100
AcDb2dVertex
 10
28.89999961853027
 20
77.8999986877443
 30
0.0
  0
VERTEX
  5
195
330
189
100
AcDbEntity
  8
LAYER_1
 62
   178
100
AcDbVertex
100
AcDb2dVertex
 10
27.20000076293945
 20
77.9999971618654
 30
0.0
  0
SEQEND
  5
196
330
189
100
AcDbEntity
  8
LAYER_1
 62
   178
  0
SPLINE
  5
197
330
1F
100
AcDbEntity
  8
LAYER_1
 62
   178
100
AcDbSpline
210
0.0
220
0.0
230
1.0
 70
    11
 71
     3
 72
   155
 73
   151
 74
     0
 42
0.0000000001
 43
0.0000000001
 12
1.0
 22
0.0
 32
0.0
 13
1.0
 23
0.0
 33
0.0
 40
0.0
 40
0.0
 40
0.0
 40
0.0
 40
1.0
 40
1.0
 40
1.0
 40
2.0
 40
2.0
 40
2.0
 40
3.0
 40
3.0
 40
3.0
 40
4.0
 40
4.0
 40
4.0
 40
5.0
 40
5.0
 40
5.0
 40
6.0
 40
6.0
 40
6.0
 40
7.0
 40
7.0
 40
7.0
 40
8.0
 40
8.0
 40
8.0
 40
9.0
 40
9.0
 40
9.0
 40
10.0
 40
10.0
 40
10.0
 40
11.0
 40
11.0
 40
11.0
 40
12.0
 40
12.0
 40
12.0
 40
13.0
 40
13.0
 40
13.0
 40
14.0
 40
14.0
 40
14.0
 40
15.0
 40
15.0
 40
15.0
 40
16.0
 40
16.0
 40
16.0
 40
17.0
 40
17.0
 40
17.0
 40
18.0
 40
18.0
 40
18.0
 40
19.0
 40
19.0
 40
19.0
 40
20.0
 40
20.0
 40
20.0
 40
21.0
 40
21.0
 40
21.0
 40
22.0
 40
22.0
 40
22.0
 40
23.0
 40
23.0
 40
23.0
 40
24.0
 40
24.0
 40
24.0
 40
25.0
 40
25.0
 40
25.0
 40
26.0
 40
26.0
 40
26.0
 40
27.0
 40
27.0
 40
27.0
 40
28.0
 40
28.0
 40
28.0
 40
29.0
 40
29.0
 40
29.0
 40
30.0
 40
30.0
 40
30.0
 40
31.0
 40
31.0
 40
31.0
 40
32.0
 40
32.0
 40
32.0
 40
33.0
 40
33.0
 40
33.0
 40
34.0
 40
34.0
 40
34.0
 40
35.0
 40
35.0
 40
35.0
 40
36.0
 40
36.0
 40
36.0
 40
37.0
 40
37.0
 40
37.0
 40
38.0
 40
38.0
 40
38.0
 40
39.0
 40
39.0
 40
39.0
 40
40.0
 40
40.0
 40
40.0
 40
41.0
 40
41.0
 40
41.0
 40
42.0
 40
42.0
 40
42.0
 40
43.0
 40
43.0
 40
43.0
 40
44.0
 40
44.0
 40
44.0
 40
45.0
 40
45.0
 40
45.0
 40
46.0
 40
46.0
 40
46.0
 40
47.0
 40
47.0
 40
47.0
 40
48.0
 40
48.0
 40
48.0
 40
49.0
 40
49.0
 40
49.0
 40
50.0
 40
50.0
 40
50.0
 40
50.0
 10
21.0
 20
77.8999986877443
 30
0.0
 10
21.0
 20
77.8999986877443
 30
0.0
 10
23.89999961853027
 20
76.8000002136232
 30
0.0
 10
23.89999961853027
 20
76.8000002136232
 30
0.0
 10
23.89999961853027
 20
76.8000002136232
 30
0.0
 10
24.5
 20
74.70000173950211
 30
0.0
 10
24.5
 20
74.70000173950211
 30
0.0
 10
24.5
 20
74.70000173950211
 30
0.0
 10
24.5
 20
69.40000250244157
 30
0.0
 10
24.5
 20
69.40000250244157
 30
0.0
 10
24.5
 20
69.40000250244157
 30
0.0
 10
20.79999923706055
 20
66.90000250244157
 30
0.0
 10
20.79999923706055
 20
66.90000250244157
 30
0.0
 10
20.79999923706055
 20
66.90000250244157
 30
0.0
 10
24.79999923706055
 20
65.19999792480485
 30
0.0
 10
24.79999923706055
 20
65.19999792480485
 30
0.0
 10
24.79999923706055
 20
65.19999792480485
 30
0.0
 10
26.09999847412109
 20
61.09999945068375
 30
0.0
 10
26.09999847412109
 20
61.09999945068375
 30
0.0
 10
26.09999847412109
 20
61.09999945068375
 30
0.0
 10
28.59999847412109
 20
64.3000002136232
 30
0.0
 10
28.59999847412109
 20
64.3000002136232
 30
0.0
 10
28.59999847412109
 20
64.3000002136232
 30
0.0
 10
32.09999847412109
 20
64.00000097656266
 30
0.0
 10
32.09999847412109
 20
64.00000097656266
 30
0.0
 10
32.09999847412109
 20
64.00000097656266
 30
0.0
 10
32.09999847412109
 20
63.09999945068375
 30
0.0
 10
32.09999847412109
 20
63.09999945068375
 30
0.0
 10
32.09999847412109
 20
63.09999945068375
 30
0.0
 10
26.69999885559082
 20
59.59999945068375
 30
0.0
 10
26.69999885559082
 20
59.59999945068375
 30
0.0
 10
26.69999885559082
 20
59.59999945068375
 30
0.0
 10
28.49999809265137
 20
58.50000097656266
 30
0.0
 10
28.49999809265137
 20
58.50000097656266
 30
0.0
 10
28.49999809265137
 20
58.50000097656266
 30
0.0
 10
27.29999732971191
 20
58.19999792480485
 30
0.0
 10
27.29999732971191
 20
58.19999792480485
 30
0.0
 10
27.29999732971191
 20
58.19999792480485
 30
0.0
 10
24.79999732971191
 20
60.19999792480485
 30
0.0
 10
24.79999732971191
 20
60.19999792480485
 30
0.0
 10
24.79999732971191
 20
60.19999792480485
 30
0.0
 10
24.49999809265137
 20
57.09999945068375
 30
0.0
 10
24.49999809265137
 20
57.09999945068375
 30
0.0
 10
24.49999809265137
 20
57.09999945068375
 30
0.0
 10
21.99999809265137
 20
55.40000250244157
 30
0.0
 10
21.99999809265137
 20
55.40000250244157
 30
0.0
 10
21.99999809265137
 20
55.40000250244157
 30
0.0
 10
22.69999885559082
 20
55.00000097656266
 30
0.0
 10
22.69999885559082
 20
55.00000097656266
 30
0.0
 10
22.69999885559082
 20
55.00000097656266
 30
0.0
 10
18.69999885559082
 20
53.90000250244157
 30
0.0
 10
18.69999885559082
 20
53.90000250244157
 30
0.0
 10
18.69999885559082
 20
53.90000250244157
 30
0.0
 10
19.09999847412109
 20
55.40000250244157
 30
0.0
 10
19.09999847412109
 20
55.40000250244157
 30
0.0
 10
19.09999847412109
 20
55.40000250244157
 30
0.0
 10
21.59999847412109
 20
56.09999945068375
 30
0.0
 10
21.59999847412109
 20
56.09999945068375
 30
0.0
 10
21.59999847412109
 20
56.09999945068375
 30
0.0
 10
21.99999809265137
 20
57.40000250244157
 30
0.0
 10
21.99999809265137
 20
57.40000250244157
 30
0.0
 10
21.99999809265137
 20
57.40000250244157
 30
0.0
 10
19.39999771118164
 20
56.70000555419938
 30
0.0
 10
19.39999771118164
 20
56.70000555419938
 30
0.0
 10
19.39999771118164
 20
56.70000555419938
 30
0.0
 10
19.79999732971191
 20
58.20000555419938
 30
0.0
 10
19.79999732971191
 20
58.20000555419938
 30
0.0
 10
19.79999732971191
 20
58.20000555419938
 30
0.0
 10
18.69999694824219
 20
58.50000860595719
 30
0.0
 10
18.69999694824219
 20
58.50000860595719
 30
0.0
 10
18.69999694824219
 20
58.50000860595719
 30
0.0
 10
18.29999732971191
 20
57.00000860595719
 30
0.0
 10
18.29999732971191
 20
57.00000860595719
 30
0.0
 10
18.29999732971191
 20
57.00000860595719
 30
0.0
 10
16.39999771118164
 20
58.800011657715
 30
0.0
 10
16.39999771118164
 20
58.800011657715
 30
0.0
 10
16.39999771118164
 20
58.800011657715
 30
0.0
 10
16.0
 20
57.59999945068375
 30
0.0
 10
16.0
 20
57.59999945068375
 30
0.0
 10
16.0
 20
57.59999945068375
 30
0.0
 10
17.89999961853027
 20
55.69999792480485
 30
0.0
 10
17.89999961853027
 20
55.69999792480485
 30
0.0
 10
17.89999961853027
 20
55.69999792480485
 30
0.0
 10
17.5
 20
54.19999792480485
 30
0.0
 10
17.5
 20
54.19999792480485
 30
0.0
 10
17.5
 20
54.19999792480485
 30
0.0
 10
14.19999980926514
 20
57.39999487304704
 30
0.0
 10
14.19999980926514
 20
57.39999487304704
 30
0.0
 10
14.19999980926514
 20
57.39999487304704
 30
0.0
 10
13.89999961853027
 20
56.19999792480485
 30
0.0
 10
13.89999961853027
 20
56.19999792480485
 30
0.0
 10
13.89999961853027
 20
56.19999792480485
 30
0.0
 10
16.69999885559082
 20
53.39999487304704
 30
0.0
 10
16.69999885559082
 20
53.39999487304704
 30
0.0
 10
16.69999885559082
 20
53.39999487304704
 30
0.0
 10
14.29999923706055
 20
52.69999792480485
 30
0.0
 10
14.29999923706055
 20
52.69999792480485
 30
0.0
 10
14.29999923706055
 20
52.69999792480485
 30
0.0
 10
15.19999885559082
 20
51.79999639892594
 30
0.0
 10
15.19999885559082
 20
51.79999639892594
 30
0.0
 10
15.19999885559082
 20
51.79999639892594
 30
0.0
 10
16.49999809265137
 20
52.19999792480485
 30
0.0
 10
16.49999809265137
 20
52.19999792480485
 30
0.0
 10
16.49999809265137
 20
52.19999792480485
 30
0.0
 10
16.19999885559082
 20
51.00000097656266
 30
0.0
 10
16.19999885559082
 20
51.00000097656266
 30
0.0
 10
16.19999885559082
 20
51.00000097656266
 30
0.0
 10
14.19999885559082
 20
50.50000097656266
 30
0.0
 10
14.19999885559082
 20
50.50000097656266
 30
0.0
 10
14.19999885559082
 20
50.50000097656266
 30
0.0
 10
12.19999885559082
 20
49.90000250244157
 30
0.0
 10
12.19999885559082
 20
49.90000250244157
 30
0.0
 10
12.19999885559082
 20
49.90000250244157
 30
0.0
 10
11.29999923706055
 20
50.70000555419938
 30
0.0
 10
11.29999923706055
 20
50.70000555419938
 30
0.0
 10
11.29999923706055
 20
50.70000555419938
 30
0.0
 10
12.69999885559082
 20
51.10000708007829
 30
0.0
 10
12.69999885559082
 20
51.10000708007829
 30
0.0
 10
12.69999885559082
 20
51.10000708007829
 30
0.0
 10
12.99999904632568
 20
52.4000101318361
 30
0.0
 10
12.99999904632568
 20
52.4000101318361
 30
0.0
 10
12.99999904632568
 20
52.4000101318361
 30
0.0
 10
10.59999847412109
 20
51.70001318359391
 30
0.0
 10
10.59999847412109
 20
51.70001318359391
 30
0.0
 10
10.59999847412109
 20
51.70001318359391
 30
0.0
 10
11.59999847412109
 20
55.50001623535172
 30
0.0
 10
11.59999847412109
 20
55.50001623535172
 30
0.0
 10
11.59999847412109
 20
55.50001623535172
 30
0.0
 10
10.69999885559082
 20
56.50001623535172
 30
0.0
 10
10.69999885559082
 20
56.50001623535172
 30
0.0
 10
10.69999885559082
 20
56.50001623535172
 30
0.0
 10
9.5
 20
52.00000097656266
 30
0.0
 10
9.5
 20
52.00000097656266
 30
0.0
 10
9.5
 20
52.00000097656266
 30
0.0
 10
8.399999618530273
 20
53.09999945068375
 30
0.0
 10
8.399999618530273
 20
53.09999945068375
 30
0.0
 10
8.399999618530273
 20
53.09999945068375
 30
0.0
 10
9.09999942779541
 20
55.69999792480485
 30
0.0
 10
9.09999942779541
 20
55.69999792480485
 30
0.0
 10
9.09999942779541
 20
55.69999792480485
 30
0.0
 10
8.09999942779541
 20
56.59999945068375
 30
0.0
 10
8.09999942779541
 20
56.59999945068375
 30
0.0
 10
8.09999942779541
 20
56.59999945068375
 30
0.0
 10
7.499999523162842
 20
54.00000097656266
 30
0.0
 10
7.499999523162842
 20
54.00000097656266
 30
0.0
 10
7.499999523162842
 20
54.00000097656266
 30
0.0
 10
6.699999332427979
 20
54.80000402832047
 30
0.0
 10
6.699999332427979
 20
54.80000402832047
 30
0.0
 10
8.664820671081543
 20
63.91679479980485
 30
0.0
 10
13.71584129333496
 20
72.07613088989274
 30
0.0
 10
21.0
 20
77.8999986877443
 30
0.0
  0
SPLINE
  5
198
330
1F
100
AcDbEntity
  8
LAYER_1
 62
   178
100
AcDbSpline
210
0.0
220
0.0
230
1.0
 70
    11
 71
     3
 72
    17
 73
    13
 74
     0
 42
0.0000000001
 43
0.0000000001
 12
1.0
 22
0.0
 32
0.0
 13
1.0
 23
0.0
 33
0.0
 40
0.0
 40
0.0
 40
0.0
 40
0.0
 40
1.0
 40
1.0
 40
1.0
 40
2.0
 40
2.0
 40
2.0
 40
3.0
 40
3.0
 40
3.0
 40
4.0
 40
4.0
 40
4.0
 40
4.0
 10
6.300000190734863
 20
52.00000097656266
 30
0.0
 10
6.300000190734863
 20
52.00000097656266
 30
0.0
 10
7.600000381469727
 20
52.30000402832047
 30
0.0
 10
7.600000381469727
 20
52.30000402832047
 30
0.0
 10
7.600000381469727
 20
52.30000402832047
 30
0.0
 10
8.699999809265137
 20
51.19999792480485
 30
0.0
 10
8.699999809265137
 20
51.19999792480485
 30
0.0
 10
8.699999809265137
 20
51.19999792480485
 30
0.0
 10
6.099999904632568
 20
50.50000097656266
 30
0.0
 10
6.099999904632568
 20
50.50000097656266
 30
0.0
 10
6.117253303527832
 20
51.0053568115236
 30
0.0
 10
6.184243679046631
 20
51.50778295898454
 30
0.0
 10
6.300000190734863
 20
52.00000097656266
 30
0.0
  0
SPLINE
  5
199
330
1F
100
AcDbEntity
  8
LAYER_1
 62
   178
100
AcDbSpline
210
0.0
220
0.0
230
1.0
 70
    11
 71
     3
 72
    44
 73
    40
 74
     0
 42
0.0000000001
 43
0.0000000001
 12
1.0
 22
0.0
 32
0.0
 13
1.0
 23
0.0
 33
0.0
 40
0.0
 40
0.0
 40
0.0
 40
0.0
 40
1.0
 40
1.0
 40
1.0
 40
2.0
 40
2.0
 40
2.0
 40
3.0
 40
3.0
 40
3.0
 40
4.0
 40
4.0
 40
4.0
 40
5.0
 40
5.0
 40
5.0
 40
6.0
 40
6.0
 40
6.0
 40
7.0
 40
7.0
 40
7.0
 40
8.0
 40
8.0
 40
8.0
 40
9.0
 40
9.0
 40
9.0
 40
10.0
 40
10.0
 40
10.0
 40
11.0
 40
11.0
 40
11.0
 40
12.0
 40
12.0
 40
12.0
 40
13.0
 40
13.0
 40
13.0
 40
13.0
 10
5.900000095367432
 20
46.40000250244157
 30
0.0
 10
5.88336706161499
 20
47.36774542236344
 30
0.0
 10
5.916745185852051
 20
48.33570196533219
 30
0.0
 10
6.0
 20
49.29999639892594
 30
0.0
 10
6.0
 20
49.29999639892594
 30
0.0
 10
9.0
 20
50.09999945068375
 30
0.0
 10
9.0
 20
50.09999945068375
 30
0.0
 10
9.0
 20
50.09999945068375
 30
0.0
 10
8.300000190734863
 20
47.69999792480485
 30
0.0
 10
8.300000190734863
 20
47.69999792480485
 30
0.0
 10
8.300000190734863
 20
47.69999792480485
 30
0.0
 10
9.600000381469727
 20
48.00000097656266
 30
0.0
 10
9.600000381469727
 20
48.00000097656266
 30
0.0
 10
9.704632759094238
 20
48.47439672851579
 30
0.0
 10
9.838214874267578
 20
48.94194128417985
 30
0.0
 10
10.0
 20
49.40000250244157
 30
0.0
 10
10.0
 20
49.40000250244157
 30
0.0
 10
10.80000019073486
 20
48.59999945068375
 30
0.0
 10
10.80000019073486
 20
48.59999945068375
 30
0.0
 10
10.80000019073486
 20
48.59999945068375
 30
0.0
 10
9.699999809265137
 20
44.50000097656266
 30
0.0
 10
9.699999809265137
 20
44.50000097656266
 30
0.0
 10
9.699999809265137
 20
44.50000097656266
 30
0.0
 10
8.600000381469727
 20
44.19999792480485
 30
0.0
 10
8.600000381469727
 20
44.19999792480485
 30
0.0
 10
8.706633567810059
 20
44.6410989990236
 30
0.0
 10
8.840217590332031
 20
45.07524969482438
 30
0.0
 10
9.0
 20
45.50000097656266
 30
0.0
 10
9.0
 20
45.50000097656266
 30
0.0
 10
8.0
 20
46.50000097656266
 30
0.0
 10
8.0
 20
46.50000097656266
 30
0.0
 10
8.0
 20
46.50000097656266
 30
0.0
 10
7.400000095367432
 20
44.00000097656266
 30
0.0
 10
7.400000095367432
 20
44.00000097656266
 30
0.0
 10
7.400000095367432
 20
44.00000097656266
 30
0.0
 10
5.900000095367432
 20
45.50000097656266
 30
0.0
 10
5.900000095367432
 20
45.50000097656266
 30
0.0
 10
5.900000095367432
 20
45.50000097656266
 30
0.0
 10
5.900000095367432
 20
46.40000250244157
 30
0.0
 10
5.900000095367432
 20
46.40000250244157
 30
0.0
  0
SPLINE
  5
19A
330
1F
100
AcDbEntity
  8
LAYER_1
 62
   178
100
AcDbSpline
210
0.0
220
0.0
230
1.0
 70
    11
 71
     3
 72
    14
 73
    10
 74
     0
 42
0.0000000001
 43
0.0000000001
 12
1.0
 22
0.0
 32
0.0
 13
1.0
 23
0.0
 33
0.0
 40
0.0
 40
0.0
 40
0.0
 40
0.0
 40
1.0
 40
1.0
 40
1.0
 40
2.0
 40
2.0
 40
2.0
 40
3.0
 40
3.0
 40
3.0
 40
3.0
 10
5.900000095367432
 20
43.80000402832047
 30
0.0
 10
5.900000095367432
 20
43.80000402832047
 30
0.0
 10
6.599999904632568
 20
43.20000555419938
 30
0.0
 10
6.599999904632568
 20
43.20000555419938
 30
0.0
 10
6.599999904632568
 20
43.20000555419938
 30
0.0
 10
6.0
 20
43.20000555419938
 30
0.0
 10
6.0
 20
43.20000555419938
 30
0.0
 10
6.003008842468262
 20
43.40438940429704
 30
0.0
 10
5.969133377075195
 20
43.60763647460954
 30
0.0
 10
5.900000095367432
 20
43.80000402832047
 30
0.0
  0
SPLINE
  5
19B
330
1F
100
AcDbEntity
  8
LAYER_1
 62
   178
100
AcDbSpline
210
0.0
220
0.0
230
1.0
 70
    11
 71
     3
 72
    14
 73
    10
 74
     0
 42
0.0000000001
 43
0.0000000001
 12
1.0
 22
0.0
 32
0.0
 13
1.0
 23
0.0
 33
0.0
 40
0.0
 40
0.0
 40
0.0
 40
0.0
 40
1.0
 40
1.0
 40
1.0
 40
2.0
 40
2.0
 40
2.0
 40
3.0
 40
3.0
 40
3.0
 40
3.0
 10
6.099999904632568
 20
41.90000250244157
 30
0.0
 10
6.099999904632568
 20
41.90000250244157
 30
0.0
 10
6.900000095367432
 20
42.09999945068375
 30
0.0
 10
6.900000095367432
 20
42.09999945068375
 30
0.0
 10
6.900000095367432
 20
42.09999945068375
 30
0.0
 10
6.300000190734863
 20
40.19999792480485
 30
0.0
 10
6.300000190734863
 20
40.19999792480485
 30
0.0
 10
6.277190685272217
 20
40.77096655273454
 30
0.0
 10
6.210325241088867
 20
41.33931829834
 30
0.0
 10
6.099999904632568
 20
41.90000250244157
 30
0.0
  0
SPLINE
  5
19C
330
1F
100
AcDbEntity
  8
LAYER_1
 62
   178
100
AcDbSpline
210
0.0
220
0.0
230
1.0
 70
    11
 71
     3
 72
   194
 73
   190
 74
     0
 42
0.0000000001
 43
0.0000000001
 12
1.0
 22
0.0
 32
0.0
 13
1.0
 23
0.0
 33
0.0
 40
0.0
 40
0.0
 40
0.0
 40
0.0
 40
1.0
 40
1.0
 40
1.0
 40
2.0
 40
2.0
 40
2.0
 40
3.0
 40
3.0
 40
3.0
 40
4.0
 40
4.0
 40
4.0
 40
5.0
 40
5.0
 40
5.0
 40
6.0
 40
6.0
 40
6.0
 40
7.0
 40
7.0
 40
7.0
 40
8.0
 40
8.0
 40
8.0
 40
9.0
 40
9.0
 40
9.0
 40
10.0
 40
10.0
 40
10.0
 40
11.0
 40
11.0
 40
11.0
 40
12.0
 40
12.0
 40
12.0
 40
13.0
 40
13.0
 40
13.0
 40
14.0
 40
14.0
 40
14.0
 40
15.0
 40
15.0
 40
15.0
 40
16.0
 40
16.0
 40
16.0
 40
17.0
 40
17.0
 40
17.0
 40
18.0
 40
18.0
 40
18.0
 40
19.0
 40
19.0
 40
19.0
 40
20.0
 40
20.0
 40
20.0
 40
21.0
 40
21.0
 40
21.0
 40
22.0
 40
22.0
 40
22.0
 40
23.0
 40
23.0
 40
23.0
 40
24.0
 40
24.0
 40
24.0
 40
25.0
 40
25.0
 40
25.0
 40
26.0
 40
26.0
 40
26.0
 40
27.0
 40
27.0
 40
27.0
 40
28.0
 40
28.0
 40
28.0
 40
29.0
 40
29.0
 40
29.0
 40
30.0
 40
30.0
 40
30.0
 40
31.0
 40
31.0
 40
31.0
 40
32.0
 40
32.0
 40
32.0
 40
33.0
 40
33.0
 40
33.0
 40
34.0
 40
34.0
 40
34.0
 40
35.0
 40
35.0
 40
35.0
 40
36.0
 40
36.0
 40
36.0
 40
37.0
 40
37.0
 40
37.0
 40
38.0
 40
38.0
 40
38.0
 40
39.0
 40
39.0
 40
39.0
 40
40.0
 40
40.0
 40
40.0
 40
41.0
 40
41.0
 40
41.0
 40
42.0
 40
42.0
 40
42.0
 40
43.0
 40
43.0
 40
43.0
 40
44.0
 40
44.0
 40
44.0
 40
45.0
 40
45.0
 40
45.0
 40
46.0
 40
46.0
 40
46.0
 40
47.0
 40
47.0
 40
47.0
 40
48.0
 40
48.0
 40
48.0
 40
49.0
 40
49.0
 40
49.0
 40
50.0
 40
50.0
 40
50.0
 40
51.0
 40
51.0
 40
51.0
 40
52.0
 40
52.0
 40
52.0
 40
53.0
 40
53.0
 40
53.0
 40
54.0
 40
54.0
 40
54.0
 40
55.0
 40
55.0
 40
55.0
 40
56.0
 40
56.0
 40
56.0
 40
57.0
 40
57.0
 40
57.0
 40
58.0
 40
58.0
 40
58.0
 40
59.0
 40
59.0
 40
59.0
 40
60.0
 40
60.0
 40
60.0
 40
61.0
 40
61.0
 40
61.0
 40
62.0
 40
62.0
 40
62.0
 40
63.0
 40
63.0
 40
63.0
 40
63.0
 10
30.89999961853027
 20
11.50000097656266
 30
0.0
 10
30.89999961853027
 20
11.50000097656266
 30
0.0
 10
28.60000038146973
 20
10.00000097656266
 30
0.0
 10
28.60000038146973
 20
10.00000097656266
 30
0.0
 10
17.43259429931641
 20
15.53054144287125
 30
0.0
 10
9.37757682800293
 20
25.82919409179704
 30
0.0
 10
6.700000762939453
 20
38.00000097656266
 30
0.0
 10
6.700000762939453
 20
38.00000097656266
 30
0.0
 10
7.0
 20
38.00000097656266
 30
0.0
 10
7.0
 20
38.00000097656266
 30
0.0
 10
7.0
 20
38.00000097656266
 30
0.0
 10
8.0
 20
41.80000402832047
 30
0.0
 10
8.0
 20
41.80000402832047
 30
0.0
 10
8.0
 20
41.80000402832047
 30
0.0
 10
9.800000190734863
 20
40.10000708007829
 30
0.0
 10
9.800000190734863
 20
40.10000708007829
 30
0.0
 10
9.800000190734863
 20
40.10000708007829
 30
0.0
 10
10.10000038146973
 20
41.30000402832047
 30
0.0
 10
10.10000038146973
 20
41.30000402832047
 30
0.0
 10
10.10000038146973
 20
41.30000402832047
 30
0.0
 10
9.100000381469727
 20
42.30000402832047
 30
0.0
 10
9.100000381469727
 20
42.30000402832047
 30
0.0
 10
9.100000381469727
 20
42.30000402832047
 30
0.0
 10
10.20000076293945
 20
42.60000708007829
 30
0.0
 10
10.20000076293945
 20
42.60000708007829
 30
0.0
 10
10.20000076293945
 20
42.60000708007829
 30
0.0
 10
11.70000076293945
 20
41.10000708007829
 30
0.0
 10
11.70000076293945
 20
41.10000708007829
 30
0.0
 10
11.70000076293945
 20
41.10000708007829
 30
0.0
 10
13.20000076293945
 20
39.70000555419938
 30
0.0
 10
13.20000076293945
 20
39.70000555419938
 30
0.0
 10
13.20000076293945
 20
39.70000555419938
 30
0.0
 10
12.90000057220459
 20
38.50000860595719
 30
0.0
 10
12.90000057220459
 20
38.50000860595719
 30
0.0
 10
12.90000057220459
 20
38.50000860595719
 30
0.0
 10
11.90000057220459
 20
39.50000860595719
 30
0.0
 10
11.90000057220459
 20
39.50000860595719
 30
0.0
 10
11.90000057220459
 20
39.50000860595719
 30
0.0
 10
10.70000076293945
 20
39.20000555419938
 30
0.0
 10
10.70000076293945
 20
39.20000555419938
 30
0.0
 10
10.70000076293945
 20
39.20000555419938
 30
0.0
 10
12.40000057220459
 20
37.40000250244157
 30
0.0
 10
12.40000057220459
 20
37.40000250244157
 30
0.0
 10
12.40000057220459
 20
37.40000250244157
 30
0.0
 10
8.600000381469727
 20
36.40000250244157
 30
0.0
 10
8.600000381469727
 20
36.40000250244157
 30
0.0
 10
8.600000381469727
 20
36.40000250244157
 30
0.0
 10
8.300000190734863
 20
35.09999945068375
 30
0.0
 10
8.300000190734863
 20
35.09999945068375
 30
0.0
 10
8.300000190734863
 20
35.09999945068375
 30
0.0
 10
12.70000076293945
 20
36.29999639892594
 30
0.0
 10
12.70000076293945
 20
36.29999639892594
 30
0.0
 10
12.70000076293945
 20
36.29999639892594
 30
0.0
 10
12.30000114440918
 20
34.79999639892594
 30
0.0
 10
12.30000114440918
 20
34.79999639892594
 30
0.0
 10
12.30000114440918
 20
34.79999639892594
 30
0.0
 10
9.80000114440918
 20
34.09999945068375
 30
0.0
 10
9.80000114440918
 20
34.09999945068375
 30
0.0
 10
9.80000114440918
 20
34.09999945068375
 30
0.0
 10
9.400001525878906
 20
32.79999639892594
 30
0.0
 10
9.400001525878906
 20
32.79999639892594
 30
0.0
 10
9.400001525878906
 20
32.79999639892594
 30
0.0
 10
12.00000190734863
 20
33.49999334716813
 30
0.0
 10
12.00000190734863
 20
33.49999334716813
 30
0.0
 10
12.00000190734863
 20
33.49999334716813
 30
0.0
 10
11.60000228881836
 20
31.89999487304704
 30
0.0
 10
11.60000228881836
 20
31.89999487304704
 30
0.0
 10
11.60000228881836
 20
31.89999487304704
 30
0.0
 10
12.70000267028809
 20
31.89999487304704
 30
0.0
 10
12.70000267028809
 20
31.89999487304704
 30
0.0
 10
12.70000267028809
 20
31.89999487304704
 30
0.0
 10
13.10000228881836
 20
33.39999487304704
 30
0.0
 10
13.10000228881836
 20
33.39999487304704
 30
0.0
 10
13.10000228881836
 20
33.39999487304704
 30
0.0
 10
15.0
 20
31.39999487304704
 30
0.0
 10
15.0
 20
31.39999487304704
 30
0.0
 10
15.0
 20
31.39999487304704
 30
0.0
 10
15.30000019073486
 20
32.59999182128922
 30
0.0
 10
15.30000019073486
 20
32.59999182128922
 30
0.0
 10
15.30000019073486
 20
32.59999182128922
 30
0.0
 10
13.40000057220459
 20
34.49999334716813
 30
0.0
 10
13.40000057220459
 20
34.49999334716813
 30
0.0
 10
13.40000057220459
 20
34.49999334716813
 30
0.0
 10
13.80000019073486
 20
35.99999334716813
 30
0.0
 10
13.80000019073486
 20
35.99999334716813
 30
0.0
 10
13.80000019073486
 20
35.99999334716813
 30
0.0
 10
17.10000038146973
 20
32.69999029541032
 30
0.0
 10
17.10000038146973
 20
32.69999029541032
 30
0.0
 10
17.10000038146973
 20
32.69999029541032
 30
0.0
 10
17.39999961853027
 20
33.99999334716813
 30
0.0
 10
17.39999961853027
 20
33.99999334716813
 30
0.0
 10
17.39999961853027
 20
33.99999334716813
 30
0.0
 10
14.59999942779541
 20
36.79999639892594
 30
0.0
 10
14.59999942779541
 20
36.79999639892594
 30
0.0
 10
14.59999942779541
 20
36.79999639892594
 30
0.0
 10
17.09999847412109
 20
37.49999334716813
 30
0.0
 10
17.09999847412109
 20
37.49999334716813
 30
0.0
 10
17.09999847412109
 20
37.49999334716813
 30
0.0
 10
16.09999847412109
 20
38.39999487304704
 30
0.0
 10
16.09999847412109
 20
38.39999487304704
 30
0.0
 10
16.09999847412109
 20
38.39999487304704
 30
0.0
 10
14.79999828338623
 20
37.99999334716813
 30
0.0
 10
14.79999828338623
 20
37.99999334716813
 30
0.0
 10
14.79999828338623
 20
37.99999334716813
 30
0.0
 10
15.09999847412109
 20
39.19999029541032
 30
0.0
 10
15.09999847412109
 20
39.19999029541032
 30
0.0
 10
15.09999847412109
 20
39.19999029541032
 30
0.0
 10
17.09999847412109
 20
39.69999029541032
 30
0.0
 10
17.09999847412109
 20
39.69999029541032
 30
0.0
 10
17.09999847412109
 20
39.69999029541032
 30
0.0
 10
19.09999847412109
 20
40.29998876953141
 30
0.0
 10
19.09999847412109
 20
40.29998876953141
 30
0.0
 10
19.09999847412109
 20
40.29998876953141
 30
0.0
 10
19.99999809265137
 20
39.3999872436525
 30
0.0
 10
19.99999809265137
 20
39.3999872436525
 30
0.0
 10
19.99999809265137
 20
39.3999872436525
 30
0.0
 10
18.59999847412109
 20
39.09998419189469
 30
0.0
 10
18.59999847412109
 20
39.09998419189469
 30
0.0
 10
18.59999847412109
 20
39.09998419189469
 30
0.0
 10
18.29999923706055
 20
37.79998114013688
 30
0.0
 10
18.29999923706055
 20
37.79998114013688
 30
0.0
 10
18.29999923706055
 20
37.79998114013688
 30
0.0
 10
20.69999885559082
 20
38.49997808837907
 30
0.0
 10
20.69999885559082
 20
38.49997808837907
 30
0.0
 10
20.69999885559082
 20
38.49997808837907
 30
0.0
 10
19.69999885559082
 20
34.59997656250016
 30
0.0
 10
19.69999885559082
 20
34.59997656250016
 30
0.0
 10
19.69999885559082
 20
34.59997656250016
 30
0.0
 10
20.59999847412109
 20
33.69997503662125
 30
0.0
 10
20.59999847412109
 20
33.69997503662125
 30
0.0
 10
20.59999847412109
 20
33.69997503662125
 30
0.0
 10
21.79999923706055
 20
38.19999792480485
 30
0.0
 10
21.79999923706055
 20
38.19999792480485
 30
0.0
 10
21.79999923706055
 20
38.19999792480485
 30
0.0
 10
22.89999961853027
 20
37.09999945068375
 30
0.0
 10
22.89999961853027
 20
37.09999945068375
 30
0.0
 10
22.89999961853027
 20
37.09999945068375
 30
0.0
 10
22.19999885559082
 20
34.50000097656266
 30
0.0
 10
22.19999885559082
 20
34.50000097656266
 30
0.0
 10
22.19999885559082
 20
34.50000097656266
 30
0.0
 10
23.19999885559082
 20
33.59999945068375
 30
0.0
 10
23.19999885559082
 20
33.59999945068375
 30
0.0
 10
23.19999885559082
 20
33.59999945068375
 30
0.0
 10
23.89999961853027
 20
36.09999945068375
 30
0.0
 10
23.89999961853027
 20
36.09999945068375
 30
0.0
 10
23.89999961853027
 20
36.09999945068375
 30
0.0
 10
25.0
 20
35.00000097656266
 30
0.0
 10
25.0
 20
35.00000097656266
 30
0.0
 10
25.0
 20
35.00000097656266
 30
0.0
 10
25.20000076293945
 20
35.19999792480485
 30
0.0
 10
25.20000076293945
 20
35.19999792480485
 30
0.0
 10
25.20000076293945
 20
35.19999792480485
 30
0.0
 10
28.80000114440918
 20
33.39999487304704
 30
0.0
 10
28.80000114440918
 20
33.39999487304704
 30
0.0
 10
28.80000114440918
 20
33.39999487304704
 30
0.0
 10
29.60000038146973
 20
30.69999792480485
 30
0.0
 10
29.60000038146973
 20
30.69999792480485
 30
0.0
 10
29.60000038146973
 20
30.69999792480485
 30
0.0
 10
28.0
 20
31.89999487304704
 30
0.0
 10
28.0
 20
31.89999487304704
 30
0.0
 10
28.0
 20
31.89999487304704
 30
0.0
 10
27.70000076293945
 20
28.99999334716813
 30
0.0
 10
27.70000076293945
 20
28.99999334716813
 30
0.0
 10
27.70000076293945
 20
28.99999334716813
 30
0.0
 10
25.20000076293945
 20
26.99999334716813
 30
0.0
 10
25.20000076293945
 20
26.99999334716813
 30
0.0
 10
25.20000076293945
 20
26.99999334716813
 30
0.0
 10
28.0
 20
25.79999639892594
 30
0.0
 10
28.0
 20
25.79999639892594
 30
0.0
 10
28.0
 20
25.79999639892594
 30
0.0
 10
28.70000076293945
 20
23.39999487304704
 30
0.0
 10
28.70000076293945
 20
23.39999487304704
 30
0.0
 10
28.70000076293945
 20
23.39999487304704
 30
0.0
 10
26.0
 20
21.29999639892594
 30
0.0
 10
26.0
 20
21.29999639892594
 30
0.0
 10
26.0
 20
21.29999639892594
 30
0.0
 10
35.79999923706055
 20
17.19999792480485
 30
0.0
 10
35.79999923706055
 20
17.19999792480485
 30
0.0
 10
35.79999923706055
 20
17.19999792480485
 30
0.0
 10
36.79999923706055
 20
13.89999487304704
 30
0.0
 10
36.79999923706055
 20
13.89999487304704
 30
0.0
 10
36.79999923706055
 20
13.89999487304704
 30
0.0
 10
34.29999923706055
 20
13.09999182128922
 30
0.0
 10
34.29999923706055
 20
13.09999182128922
 30
0.0
 10
34.29999923706055
 20
13.09999182128922
 30
0.0
 10
31.29999923706055
 20
15.59999182128922
 30
0.0
 10
31.29999923706055
 20
15.59999182128922
 30
0.0
 10
31.29999923706055
 20
15.59999182128922
 30
0.0
 10
30.89999961853027
 20
11.50000097656266
 30
0.0
 10
30.89999961853027
 20
11.50000097656266
 30
0.0
  0
POLYLINE
  5
19D
330
1F
100
AcDbEntity
  8
LAYER_1
 62
   178
100
AcDb2dPolyline
 66
     1
 10
0.0
 20
0.0
 30
0.0
  0
VERTEX
  5
19E
330
19D
100
AcDbEntity
  8
LAYER_1
 62
   178
100
AcDbVertex
100
AcDb2dVertex
 10
34.09999847412109
 20
8.800004028320473
 30
0.0
  0
VERTEX
  5
19F
330
19D
100
AcDbEntity
  8
LAYER_1
 62
   178
100
AcDbVertex
100
AcDb2dVertex
 10
33.29999923706055
 20
8.00000097656266
 30
0.0
  0
VERTEX
  5
1A0
330
19D
100
AcDbEntity
  8
LAYER_1
 62
   178
100
AcDbVertex
100
AcDb2dVertex
 10
33.29999923706055
 20
8.00000097656266
 30
0.0
  0
VERTEX
  5
1A1
330
19D
100
AcDbEntity
  8
LAYER_1
 62
   178
100
AcDbVertex
100
AcDb2dVertex
 10
32.89999771118164
 20
9.199997924804848
 30
0.0
  0
VERTEX
  5
1A2
330
19D
100
AcDbEntity
  8
LAYER_1
 62
   178
100
AcDbVertex
100
AcDb2dVertex
 10
31.79999732971191
 20
9.699997924804848
 30
0.0
  0
VERTEX
  5
1A3
330
19D
100
AcDbEntity
  8
LAYER_1
 62
   178
100
AcDbVertex
100
AcDb2dVertex
 10
32.79999542236328
 20
10.39999487304704
 30
0.0
  0
VERTEX
  5
1A4
330
19D
100
AcDbEntity
  8
LAYER_1
 62
   178
100
AcDbVertex
100
AcDb2dVertex
 10
32.99999618530273
 20
11.49999334716813
 30
0.0
  0
VERTEX
  5
1A5
330
19D
100
AcDbEntity
  8
LAYER_1
 62
   178
100
AcDbVertex
100
AcDb2dVertex
 10
33.99999618530273
 20
10.79999639892594
 30
0.0
  0
VERTEX
  5
1A6
330
19D
100
AcDbEntity
  8
LAYER_1
 62
   178
100
AcDbVertex
100
AcDb2dVertex
 10
35.19999694824219
 20
11.09999945068375
 30
0.0
  0
VERTEX
  5
1A7
330
19D
100
AcDbEntity
  8
LAYER_1
 62
   178
100
AcDbVertex
100
AcDb2dVertex
 10
34.79999542236328
 20
9.799996398925941
 30
0.0
  0
VERTEX
  5
1A8
330
19D
100
AcDbEntity
  8
LAYER_1
 62
   178
100
AcDbVertex
100
AcDb2dVertex
 10
35.39999389648438
 20
8.699997924804848
 30
0.0
  0
VERTEX
  5
1A9
330
19D
100
AcDbEntity
  8
LAYER_1
 62
   178
100
AcDbVertex
100
AcDb2dVertex
 10
34.09999847412109
 20
8.800004028320473
 30
0.0
  0
SEQEND
  5
1AA
330
19D
100
AcDbEntity
  8
LAYER_1
 62
   178
  0
POLYLINE
  5
1AB
330
1F
100
AcDbEntity
  8
LAYER_1
 62
   178
100
AcDb2dPolyline
 66
     1
 10
0.0
 20
0.0
 30
0.0
  0
VERTEX
  5
1AC
330
1AB
100
AcDbEntity
  8
LAYER_1
 62
   178
100
AcDbVertex
100
AcDb2dVertex
 10
36.59999847412109
 20
10.40000250244157
 30
0.0
  0
VERTEX
  5
1AD
330
1AB
100
AcDbEntity
  8
LAYER_1
 62
   178
100
AcDbVertex
100
AcDb2dVertex
 10
37.29999923706055
 20
11.70000555419938
 30
0.0
  0
VERTEX
  5
1AE
330
1AB
100
AcDbEntity
  8
LAYER_1
 62
   178
100
AcDbVertex
100
AcDb2dVertex
 10
38.39999771118164
 20
7.800004028320473
 30
0.0
  0
VERTEX
  5
1AF
330
1AB
100
AcDbEntity
  8
LAYER_1
 62
   178
100
AcDbVertex
100
AcDb2dVertex
 10
36.59999847412109
 20
10.40000250244157
 30
0.0
  0
SEQEND
  5
1B0
330
1AB
100
AcDbEntity
  8
LAYER_1
 62
   178
  0
SPLINE
  5
1B1
330
1F
100
AcDbEntity
  8
LAYER_1
 62
   178
100
AcDbSpline
210
0.0
220
0.0
230
1.0
 70
    11
 71
     3
 72
    92
 73
    88
 74
     0
 42
0.0000000001
 43
0.0000000001
 12
1.0
 22
0.0
 32
0.0
 13
1.0
 23
0.0
 33
0.0
 40
0.0
 40
0.0
 40
0.0
 40
0.0
 40
1.0
 40
1.0
 40
1.0
 40
2.0
 40
2.0
 40
2.0
 40
3.0
 40
3.0
 40
3.0
 40
4.0
 40
4.0
 40
4.0
 40
5.0
 40
5.0
 40
5.0
 40
6.0
 40
6.0
 40
6.0
 40
7.0
 40
7.0
 40
7.0
 40
8.0
 40
8.0
 40
8.0
 40
9.0
 40
9.0
 40
9.0
 40
10.0
 40
10.0
 40
10.0
 40
11.0
 40
11.0
 40
11.0
 40
12.0
 40
12.0
 40
12.0
 40
13.0
 40
13.0
 40
13.0
 40
14.0
 40
14.0
 40
14.0
 40
15.0
 40
15.0
 40
15.0
 40
16.0
 40
16.0
 40
16.0
 40
17.0
 40
17.0
 40
17.0
 40
18.0
 40
18.0
 40
18.0
 40
19.0
 40
19.0
 40
19.0
 40
20.0
 40
20.0
 40
20.0
 40
21.0
 40
21.0
 40
21.0
 40
22.0
 40
22.0
 40
22.0
 40
23.0
 40
23.0
 40
23.0
 40
24.0
 40
24.0
 40
24.0
 40
25.0
 40
25.0
 40
25.0
 40
26.0
 40
26.0
 40
26.0
 40
27.0
 40
27.0
 40
27.0
 40
28.0
 40
28.0
 40
28.0
 40
29.0
 40
29.0
 40
29.0
 40
29.0
 10
76.89999389648438
 20
20.70000555419938
 30
0.0
 10
76.89999389648438
 20
20.70000555419938
 30
0.0
 10
77.79999542236328
 20
20.70000555419938
 30
0.0
 10
77.79999542236328
 20
20.70000555419938
 30
0.0
 10
77.79999542236328
 20
20.70000555419938
 30
0.0
 10
76.99999237060547
 20
19.80000402832047
 30
0.0
 10
76.99999237060547
 20
19.80000402832047
 30
0.0
 10
76.99999237060547
 20
19.80000402832047
 30
0.0
 10
76.0
 20
19.80000402832047
 30
0.0
 10
76.0
 20
19.80000402832047
 30
0.0
 10
75.59761810302734
 20
19.74932196044938
 30
0.0
 10
75.29682159423828
 20
19.40554907226579
 30
0.0
 10
75.30000305175781
 20
19.00000097656266
 30
0.0
 10
75.20000457763672
 20
18.69999792480485
 30
0.0
 10
75.4000015258789
 20
18.50000097656266
 30
0.0
 10
75.70000457763672
 20
18.40000250244157
 30
0.0
 10
75.70000457763672
 20
18.40000250244157
 30
0.0
 10
74.70000457763672
 20
17.30000402832047
 30
0.0
 10
74.70000457763672
 20
17.30000402832047
 30
0.0
 10
74.50000762939453
 20
17.30000402832047
 30
0.0
 10
74.4000015258789
 20
17.20000555419938
 30
0.0
 10
74.30000305175781
 20
17.00000097656266
 30
0.0
 10
66.79283905029297
 20
9.807633422851723
 30
0.0
 10
56.79652404785156
 20
5.794777893066566
 30
0.0
 10
46.40000152587891
 20
5.800004028320473
 30
0.0
 10
43.9514274597168
 20
5.829796813965004
 30
0.0
 10
41.50961685180664
 20
6.063942932129066
 30
0.0
 10
39.10000228881836
 20
6.50000097656266
 30
0.0
 10
39.10000228881836
 20
6.50000097656266
 30
0.0
 10
39.10000228881836
 20
7.00000097656266
 30
0.0
 10
39.10000228881836
 20
7.00000097656266
 30
0.0
 10
39.10000228881836
 20
7.00000097656266
 30
0.0
 10
45.50000381469727
 20
15.00000097656266
 30
0.0
 10
45.50000381469727
 20
15.00000097656266
 30
0.0
 10
45.50000381469727
 20
15.00000097656266
 30
0.0
 10
55.90000152587891
 20
14.19999792480485
 30
0.0
 10
55.90000152587891
 20
14.19999792480485
 30
0.0
 10
55.90000152587891
 20
14.19999792480485
 30
0.0
 10
54.10000228881836
 20
17.19999792480485
 30
0.0
 10
54.10000228881836
 20
17.19999792480485
 30
0.0
 10
54.10000228881836
 20
17.19999792480485
 30
0.0
 10
56.10000228881836
 20
20.19999792480485
 30
0.0
 10
56.10000228881836
 20
20.19999792480485
 30
0.0
 10
56.10000228881836
 20
20.19999792480485
 30
0.0
 10
59.70000076293945
 20
19.89999487304704
 30
0.0
 10
59.70000076293945
 20
19.89999487304704
 30
0.0
 10
59.70000076293945
 20
19.89999487304704
 30
0.0
 10
57.79999923706055
 20
23.09999182128922
 30
0.0
 10
57.79999923706055
 20
23.09999182128922
 30
0.0
 10
57.79999923706055
 20
23.09999182128922
 30
0.0
 10
58.89999771118164
 20
25.79998876953141
 30
0.0
 10
58.89999771118164
 20
25.79998876953141
 30
0.0
 10
58.89999771118164
 20
25.79998876953141
 30
0.0
 10
61.49999618530273
 20
24.4999857177736
 30
0.0
 10
61.49999618530273
 20
24.4999857177736
 30
0.0
 10
61.49999618530273
 20
24.4999857177736
 30
0.0
 10
63.29999542236328
 20
17.4999857177736
 30
0.0
 10
63.29999542236328
 20
17.4999857177736
 30
0.0
 10
63.29999542236328
 20
17.4999857177736
 30
0.0
 10
68.0999984741211
 20
23.09998419189469
 30
0.0
 10
68.0999984741211
 20
23.09998419189469
 30
0.0
 10
68.0999984741211
 20
23.09998419189469
 30
0.0
 10
74.0999984741211
 20
22.79998114013688
 30
0.0
 10
74.0999984741211
 20
22.79998114013688
 30
0.0
 10
74.0999984741211
 20
22.69998266601579
 30
0.0
 10
74.19999694824219
 20
22.59998419189469
 30
0.0
 10
74.19999694824219
 20
22.49997808837907
 30
0.0
 10
74.36386108398438
 20
22.14982702636735
 30
0.0
 10
74.78054809570312
 20
21.99880316162125
 30
0.0
 10
75.13070678710938
 20
22.16266729736344
 30
0.0
 10
75.15448760986328
 20
22.17379095459
 30
0.0
 10
75.17761993408203
 20
22.18624975585954
 30
0.0
 10
75.19999694824219
 20
22.19997503662125
 30
0.0
 10
76.09681701660156
 20
22.82470800781266
 30
0.0
 10
77.03199005126953
 20
23.39249517822282
 30
0.0
 10
78.0
 20
23.89997198486344
 30
0.0
 10
78.0
 20
23.89997198486344
 30
0.0
 10
79.19999694824219
 20
23.59996893310563
 30
0.0
 10
79.19999694824219
 20
23.59996893310563
 30
0.0
 10
79.19999694824219
 20
23.59996893310563
 30
0.0
 10
76.5999984741211
 20
21.99997045898454
 30
0.0
 10
76.5999984741211
 20
21.99997045898454
 30
0.0
 10
76.26737213134766
 20
21.80294897460954
 30
0.0
 10
76.15744018554688
 20
21.37358190917985
 30
0.0
 10
76.35446166992188
 20
21.04095556640641
 30
0.0
 10
76.47022247314453
 20
20.84552099609391
 30
0.0
 10
76.6736068725586
 20
20.71840765380875
 30
0.0
 10
76.89999389648438
 20
20.70000555419938
 30
0.0
  0
SPLINE
  5
1B2
330
1F
100
AcDbEntity
  8
LAYER_1
 62
   178
100
AcDbSpline
210
0.0
220
0.0
230
1.0
 70
    11
 71
     3
 72
    23
 73
    19
 74
     0
 42
0.0000000001
 43
0.0000000001
 12
1.0
 22
0.0
 32
0.0
 13
1.0
 23
0.0
 33
0.0
 40
0.0
 40
0.0
 40
0.0
 40
0.0
 40
1.0
 40
1.0
 40
1.0
 40
2.0
 40
2.0
 40
2.0
 40
3.0
 40
3.0
 40
3.0
 40
4.0
 40
4.0
 40
4.0
 40
5.0
 40
5.0
 40
5.0
 40
6.0
 40
6.0
 40
6.0
 40
6.0
 10
73.59999084472656
 20
25.70000555419938
 30
0.0
 10
73.59999084472656
 20
25.90000250244157
 30
0.0
 10
73.79998779296875
 20
26.00000860595719
 30
0.0
 10
73.99999237060547
 20
25.90000250244157
 30
0.0
 10
74.19999694824219
 20
25.79999639892594
 30
0.0
 10
74.29999542236328
 20
25.70000555419938
 30
0.0
 10
74.29999542236328
 20
25.50000097656266
 30
0.0
 10
74.20988464355469
 20
25.31432440185563
 30
0.0
 10
73.99330139160156
 20
25.22769262695329
 30
0.0
 10
73.79999542236328
 20
25.30000402832047
 30
0.0
 10
73.74476623535156
 20
25.30000402832047
 30
0.0
 10
73.69999694824219
 20
25.34477331542985
 30
0.0
 10
73.69999694824219
 20
25.40000250244157
 30
0.0
 10
73.69999694824219
 20
25.40000250244157
 30
0.0
 10
73.5999984741211
 20
25.40000250244157
 30
0.0
 10
73.5999984741211
 20
25.40000250244157
 30
0.0
 10
73.5999984741211
 20
25.40000250244157
 30
0.0
 10
73.59999084472656
 20
25.70000555419938
 30
0.0
 10
73.59999084472656
 20
25.70000555419938
 30
0.0
  0
POLYLINE
  5
1B3
330
1F
100
AcDbEntity
  8
LAYER_1
 62
   178
100
AcDb2dPolyline
 66
     1
 10
0.0
 20
0.0
 30
0.0
  0
VERTEX
  5
1B4
330
1B3
100
AcDbEntity
  8
LAYER_1
 62
   178
100
AcDbVertex
100
AcDb2dVertex
 10
74.29998779296875
 20
24.40000250244157
 30
0.0
  0
VERTEX
  5
1B5
330
1B3
100
AcDbEntity
  8
LAYER_1
 62
   178
100
AcDbVertex
100
AcDb2dVertex
 10
74.69998931884766
 20
24.70000555419938
 30
0.0
  0
VERTEX
  5
1B6
330
1B3
100
AcDbEntity
  8
LAYER_1
 62
   178
100
AcDbVertex
100
AcDb2dVertex
 10
75.99999237060547
 20
24.40000250244157
 30
0.0
  0
VERTEX
  5
1B7
330
1B3
100
AcDbEntity
  8
LAYER_1
 62
   178
100
AcDbVertex
100
AcDb2dVertex
 10
74.79999542236328
 20
23.59999945068375
 30
0.0
  0
VERTEX
  5
1B8
330
1B3
100
AcDbEntity
  8
LAYER_1
 62
   178
100
AcDbVertex
100
AcDb2dVertex
 10
74.29998779296875
 20
24.40000250244157
 30
0.0
  0
SEQEND
  5
1B9
330
1B3
100
AcDbEntity
  8
LAYER_1
 62
   178
  0
SPLINE
  5
1BA
330
1F
100
AcDbEntity
  8
LAYER_1
 62
   178
100
AcDbSpline
210
0.0
220
0.0
230
1.0
 70
    11
 71
     3
 72
    23
 73
    19
 74
     0
 42
0.0000000001
 43
0.0000000001
 12
1.0
 22
0.0
 32
0.0
 13
1.0
 23
0.0
 33
0.0
 40
0.0
 40
0.0
 40
0.0
 40
0.0
 40
1.0
 40
1.0
 40
1.0
 40
2.0
 40
2.0
 40
2.0
 40
3.0
 40
3.0
 40
3.0
 40
4.0
 40
4.0
 40
4.0
 40
5.0
 40
5.0
 40
5.0
 40
6.0
 40
6.0
 40
6.0
 40
6.0
 10
76.79998779296875
 20
24.90000250244157
 30
0.0
 10
76.79998779296875
 20
25.09999945068375
 30
0.0
 10
76.99998474121094
 20
25.20000555419938
 30
0.0
 10
77.19998931884766
 20
25.20000555419938
 30
0.0
 10
77.36426544189453
 20
25.12983801269547
 30
0.0
 10
77.47862243652344
 20
24.97735693359391
 30
0.0
 10
77.49999237060547
 20
24.80000402832047
 30
0.0
 10
77.41492462158203
 20
24.6031122436525
 30
0.0
 10
77.21375274658203
 20
24.4824075927736
 30
0.0
 10
76.99999237060547
 20
24.50000097656266
 30
0.0
 10
76.84014129638672
 20
24.54357244873063
 30
0.0
 10
76.74588012695312
 20
24.7084818115236
 30
0.0
 10
76.7894515991211
 20
24.86834051513688
 30
0.0
 10
76.7923812866211
 20
24.87907507324235
 30
0.0
 10
76.7958984375
 20
24.88964941406266
 30
0.0
 10
76.80000305175781
 20
24.89999487304704
 30
0.0
 10
76.80000305175781
 20
24.89999487304704
 30
0.0
 10
76.79998779296875
 20
24.90000250244157
 30
0.0
 10
76.79998779296875
 20
24.90000250244157
 30
0.0
  0
SPLINE
  5
1BB
330
1F
100
AcDbEntity
  8
LAYER_1
 62
   178
100
AcDbSpline
210
0.0
220
0.0
230
1.0
 70
    11
 71
     3
 72
    20
 73
    16
 74
     0
 42
0.0000000001
 43
0.0000000001
 12
1.0
 22
0.0
 32
0.0
 13
1.0
 23
0.0
 33
0.0
 40
0.0
 40
0.0
 40
0.0
 40
0.0
 40
1.0
 40
1.0
 40
1.0
 40
2.0
 40
2.0
 40
2.0
 40
3.0
 40
3.0
 40
3.0
 40
4.0
 40
4.0
 40
4.0
 40
5.0
 40
5.0
 40
5.0
 40
5.0
 10
80.09999084472656
 20
23.80000402832047
 30
0.0
 10
79.99999237060547
 20
23.90000250244157
 30
0.0
 10
79.99999237060547
 20
24.00000097656266
 30
0.0
 10
79.99999237060547
 20
24.20000555419938
 30
0.0
 10
80.04356384277344
 20
24.35985662841813
 30
0.0
 10
80.20846557617188
 20
24.45412542724625
 30
0.0
 10
80.36832427978516
 20
24.41056158447282
 30
0.0
 10
80.37906646728516
 20
24.40763189697282
 30
0.0
 10
80.38964080810547
 20
24.40410711669938
 30
0.0
 10
80.39999389648438
 20
24.40000250244157
 30
0.0
 10
80.39999389648438
 20
24.40000250244157
 30
0.0
 10
80.49999237060547
 20
24.40000250244157
 30
0.0
 10
80.49999237060547
 20
24.40000250244157
 30
0.0
 10
80.49999237060547
 20
24.40000250244157
 30
0.0
 10
80.09999084472656
 20
23.80000402832047
 30
0.0
 10
80.09999084472656
 20
23.80000402832047
 30
0.0
  0
POLYLINE
  5
1BC
330
1F
100
AcDbEntity
  8
LAYER_1
 62
   178
100
AcDb2dPolyline
 66
     1
 10
0.0
 20
0.0
 30
0.0
  0
VERTEX
  5
1BD
330
1BC
100
AcDbEntity
  8
LAYER_1
 62
   178
100
AcDbVertex
100
AcDb2dVertex
 10
80.99999237060547
 20
25.30000402832047
 30
0.0
  0
VERTEX
  5
1BE
330
1BC
100
AcDbEntity
  8
LAYER_1
 62
   178
100
AcDbVertex
100
AcDb2dVertex
 10
80.49999237060547
 20
26.10000708007829
 30
0.0
  0
VERTEX
  5
1BF
330
1BC
100
AcDbEntity
  8
LAYER_1
 62
   178
100
AcDbVertex
100
AcDb2dVertex
 10
81.29999542236328
 20
25.70000555419938
 30
0.0
  0
VERTEX
  5
1C0
330
1BC
100
AcDbEntity
  8
LAYER_1
 62
   178
100
AcDbVertex
100
AcDb2dVertex
 10
80.99999237060547
 20
25.30000402832047
 30
0.0
  0
SEQEND
  5
1C1
330
1BC
100
AcDbEntity
  8
LAYER_1
 62
   178
  0
SPLINE
  5
1C2
330
1F
100
AcDbEntity
  8
LAYER_1
 62
   178
100
AcDbSpline
210
0.0
220
0.0
230
1.0
 70
    11
 71
     3
 72
    98
 73
    94
 74
     0
 42
0.0000000001
 43
0.0000000001
 12
1.0
 22
0.0
 32
0.0
 13
1.0
 23
0.0
 33
0.0
 40
0.0
 40
0.0
 40
0.0
 40
0.0
 40
1.0
 40
1.0
 40
1.0
 40
2.0
 40
2.0
 40
2.0
 40
3.0
 40
3.0
 40
3.0
 40
4.0
 40
4.0
 40
4.0
 40
5.0
 40
5.0
 40
5.0
 40
6.0
 40
6.0
 40
6.0
 40
7.0
 40
7.0
 40
7.0
 40
8.0
 40
8.0
 40
8.0
 40
9.0
 40
9.0
 40
9.0
 40
10.0
 40
10.0
 40
10.0
 40
11.0
 40
11.0
 40
11.0
 40
12.0
 40
12.0
 40
12.0
 40
13.0
 40
13.0
 40
13.0
 40
14.0
 40
14.0
 40
14.0
 40
15.0
 40
15.0
 40
15.0
 40
16.0
 40
16.0
 40
16.0
 40
17.0
 40
17.0
 40
17.0
 40
18.0
 40
18.0
 40
18.0
 40
19.0
 40
19.0
 40
19.0
 40
20.0
 40
20.0
 40
20.0
 40
21.0
 40
21.0
 40
21.0
 40
22.0
 40
22.0
 40
22.0
 40
23.0
 40
23.0
 40
23.0
 40
24.0
 40
24.0
 40
24.0
 40
25.0
 40
25.0
 40
25.0
 40
26.0
 40
26.0
 40
26.0
 40
27.0
 40
27.0
 40
27.0
 40
28.0
 40
28.0
 40
28.0
 40
29.0
 40
29.0
 40
29.0
 40
30.0
 40
30.0
 40
30.0
 40
31.0
 40
31.0
 40
31.0
 40
31.0
 10
78.79999542236328
 20
28.60000708007829
 30
0.0
 10
78.19999694824219
 20
29.00000860595719
 30
0.0
 10
77.49999237060547
 20
28.20000555419938
 30
0.0
 10
77.89999389648438
 20
27.60000708007829
 30
0.0
 10
77.89999389648438
 20
27.60000708007829
 30
0.0
 10
79.49999237060547
 20
25.00000860595719
 30
0.0
 10
79.49999237060547
 20
25.00000860595719
 30
0.0
 10
79.49999237060547
 20
25.00000860595719
 30
0.0
 10
78.29999542236328
 20
25.300011657715
 30
0.0
 10
78.29999542236328
 20
25.300011657715
 30
0.0
 10
78.29999542236328
 20
25.300011657715
 30
0.0
 10
76.5999984741211
 20
28.00000860595719
 30
0.0
 10
76.5999984741211
 20
28.00000860595719
 30
0.0
 10
76.4480209350586
 20
28.35548498535172
 30
0.0
 10
76.03665161132812
 20
28.52044775390641
 30
0.0
 10
75.6811752319336
 20
28.36847021484391
 30
0.0
 10
75.32569885253906
 20
28.21649267578141
 30
0.0
 10
75.16073608398438
 20
27.80512335205094
 30
0.0
 10
75.31271362304688
 20
27.44965460205094
 30
0.0
 10
75.33550262451172
 20
27.3963480224611
 30
0.0
 10
75.36482238769531
 20
27.34608557128922
 30
0.0
 10
75.4000015258789
 20
27.300011657715
 30
0.0
 10
75.4000015258789
 20
27.300011657715
 30
0.0
 10
76.30000305175781
 20
25.800011657715
 30
0.0
 10
76.30000305175781
 20
25.800011657715
 30
0.0
 10
76.30000305175781
 20
25.800011657715
 30
0.0
 10
75.10000610351562
 20
26.10001470947282
 30
0.0
 10
75.10000610351562
 20
26.10001470947282
 30
0.0
 10
74.73107147216797
 20
26.61025335693375
 30
0.0
 10
74.39698028564453
 20
27.14479925537125
 30
0.0
 10
74.10000610351562
 20
27.70001318359391
 30
0.0
 10
73.80000305175781
 20
28.00001623535172
 30
0.0
 10
73.40000915527344
 20
28.20001318359391
 30
0.0
 10
73.10000610351562
 20
28.00001623535172
 30
0.0
 10
72.7498550415039
 20
27.83615209960954
 30
0.0
 10
72.59883117675781
 20
27.41946508789079
 30
0.0
 10
72.7626953125
 20
27.06930639648454
 30
0.0
 10
72.77381896972656
 20
27.04552557373063
 30
0.0
 10
72.7862777709961
 20
27.02239324951188
 30
0.0
 10
72.80000305175781
 20
27.00001623535172
 30
0.0
 10
72.80000305175781
 20
27.00001623535172
 30
0.0
 10
73.10000610351562
 20
26.50001623535172
 30
0.0
 10
73.10000610351562
 20
26.50001623535172
 30
0.0
 10
73.10000610351562
 20
26.50001623535172
 30
0.0
 10
72.90000915527344
 20
26.50001623535172
 30
0.0
 10
72.90000915527344
 20
26.50001623535172
 30
0.0
 10
72.90000915527344
 20
26.50001623535172
 30
0.0
 10
71.30001068115234
 20
28.90001776123063
 30
0.0
 10
71.30001068115234
 20
28.90001776123063
 30
0.0
 10
71.30001068115234
 20
28.90001776123063
 30
0.0
 10
73.10001373291016
 20
33.60001470947282
 30
0.0
 10
73.10001373291016
 20
33.60001470947282
 30
0.0
 10
73.10001373291016
 20
33.60001470947282
 30
0.0
 10
74.00001525878906
 20
32.90001776123063
 30
0.0
 10
74.00001525878906
 20
32.90001776123063
 30
0.0
 10
74.42921447753906
 20
32.64280035400407
 30
0.0
 10
74.90498352050781
 20
32.4728861083986
 30
0.0
 10
75.40001678466797
 20
32.40001776123063
 30
0.0
 10
76.24349212646484
 20
32.3782587280275
 30
0.0
 10
77.08563995361328
 20
32.47931768798844
 30
0.0
 10
77.90001678466797
 20
32.70002081298844
 30
0.0
 10
77.90001678466797
 20
32.70002081298844
 30
0.0
 10
78.20001983642578
 20
32.70002081298844
 30
0.0
 10
78.20001983642578
 20
32.70002081298844
 30
0.0
 10
78.20001983642578
 20
32.70002081298844
 30
0.0
 10
78.5000228881836
 20
32.40001776123063
 30
0.0
 10
78.5000228881836
 20
32.40001776123063
 30
0.0
 10
78.5000228881836
 20
32.40001776123063
 30
0.0
 10
80.3000259399414
 20
31.40001776123063
 30
0.0
 10
80.3000259399414
 20
31.40001776123063
 30
0.0
 10
80.3000259399414
 20
31.40001776123063
 30
0.0
 10
80.60002899169922
 20
30.20002081298844
 30
0.0
 10
80.60002899169922
 20
30.20002081298844
 30
0.0
 10
80.60002899169922
 20
30.20002081298844
 30
0.0
 10
79.0
 20
31.19999792480485
 30
0.0
 10
79.0
 20
31.19999792480485
 30
0.0
 10
78.66764831542969
 20
31.34953405761735
 30
0.0
 10
78.27616119384766
 20
31.21903326416032
 30
0.0
 10
78.0999984741211
 20
30.89999487304704
 30
0.0
 10
77.89786529541016
 20
30.57044317626969
 30
0.0
 10
78.00115966796875
 20
30.13943579101579
 30
0.0
 10
78.3307113647461
 20
29.93730261230485
 30
0.0
 10
78.35308837890625
 20
29.92357733154313
 30
0.0
 10
78.376220703125
 20
29.91112615966813
 30
0.0
 10
78.4000015258789
 20
29.89999487304704
 30
0.0
 10
78.4000015258789
 20
29.89999487304704
 30
0.0
 10
81.20000457763672
 20
28.39999487304704
 30
0.0
 10
81.20000457763672
 20
28.39999487304704
 30
0.0
 10
81.28759002685547
 20
27.98617651367204
 30
0.0
 10
81.42178344726562
 20
27.5836038818361
 30
0.0
 10
81.60000610351562
 20
27.19999792480485
 30
0.0
 10
81.60000610351562
 20
27.19999792480485
 30
0.0
 10
78.79999542236328
 20
28.60000708007829
 30
0.0
 10
78.79999542236328
 20
28.60000708007829
 30
0.0
  0
SPLINE
  5
1C3
330
1F
100
AcDbEntity
  8
LAYER_1
 62
   178
100
AcDbSpline
210
0.0
220
0.0
230
1.0
 70
    11
 71
     3
 72
    20
 73
    16
 74
     0
 42
0.0000000001
 43
0.0000000001
 12
1.0
 22
0.0
 32
0.0
 13
1.0
 23
0.0
 33
0.0
 40
0.0
 40
0.0
 40
0.0
 40
0.0
 40
1.0
 40
1.0
 40
1.0
 40
2.0
 40
2.0
 40
2.0
 40
3.0
 40
3.0
 40
3.0
 40
4.0
 40
4.0
 40
4.0
 40
5.0
 40
5.0
 40
5.0
 40
5.0
 10
80.49999237060547
 20
33.00000860595719
 30
0.0
 10
80.69329833984375
 20
33.07232000732438
 30
0.0
 10
80.90988159179688
 20
32.98568823242204
 30
0.0
 10
80.99999237060547
 20
32.800011657715
 30
0.0
 10
80.99999237060547
 20
32.60001470947282
 30
0.0
 10
80.89999389648438
 20
32.4000101318361
 30
0.0
 10
80.69998931884766
 20
32.4000101318361
 30
0.0
 10
80.49998474121094
 20
32.4000101318361
 30
0.0
 10
80.39998626708984
 20
32.4000101318361
 30
0.0
 10
80.29998779296875
 20
32.60000708007829
 30
0.0
 10
80.23892974853516
 20
32.75403692626969
 30
0.0
 10
80.31430053710938
 20
32.92839147949235
 30
0.0
 10
80.46833038330078
 20
32.98944189453141
 30
0.0
 10
80.47868347167969
 20
32.99354650878922
 30
0.0
 10
80.4892578125
 20
32.99707128906266
 30
0.0
 10
80.49999237060547
 20
33.00000860595719
 30
0.0
  0
SPLINE
  5
1C4
330
1F
100
AcDbEntity
  8
LAYER_1
 62
   178
100
AcDbSpline
210
0.0
220
0.0
230
1.0
 70
    11
 71
     3
 72
    17
 73
    13
 74
     0
 42
0.0000000001
 43
0.0000000001
 12
1.0
 22
0.0
 32
0.0
 13
1.0
 23
0.0
 33
0.0
 40
0.0
 40
0.0
 40
0.0
 40
0.0
 40
1.0
 40
1.0
 40
1.0
 40
2.0
 40
2.0
 40
2.0
 40
3.0
 40
3.0
 40
3.0
 40
4.0
 40
4.0
 40
4.0
 40
4.0
 10
81.69999694824219
 20
29.19999792480485
 30
0.0
 10
81.69999694824219
 20
29.19999792480485
 30
0.0
 10
81.19999694824219
 20
29.39999487304704
 30
0.0
 10
81.19999694824219
 20
29.39999487304704
 30
0.0
 10
81.18240356445312
 20
29.6137552490236
 30
0.0
 10
81.30310821533203
 20
29.8149271240236
 30
0.0
 10
81.5
 20
29.89999487304704
 30
0.0
 10
81.69999694824219
 20
29.89999487304704
 30
0.0
 10
81.9000015258789
 20
29.79999639892594
 30
0.0
 10
81.9000015258789
 20
29.59999182128922
 30
0.0
 10
81.9000015258789
 20
29.3999872436525
 30
0.0
 10
81.9000015258789
 20
29.29999639892594
 30
0.0
 10
81.69999694824219
 20
29.19999792480485
 30
0.0
  0
SPLINE
  5
1C5
330
1F
100
AcDbEntity
  8
LAYER_1
 62
   178
100
AcDbSpline
210
0.0
220
0.0
230
1.0
 70
    11
 71
     3
 72
   101
 73
    97
 74
     0
 42
0.0000000001
 43
0.0000000001
 12
1.0
 22
0.0
 32
0.0
 13
1.0
 23
0.0
 33
0.0
 40
0.0
 40
0.0
 40
0.0
 40
0.0
 40
1.0
 40
1.0
 40
1.0
 40
2.0
 40
2.0
 40
2.0
 40
3.0
 40
3.0
 40
3.0
 40
4.0
 40
4.0
 40
4.0
 40
5.0
 40
5.0
 40
5.0
 40
6.0
 40
6.0
 40
6.0
 40
7.0
 40
7.0
 40
7.0
 40
8.0
 40
8.0
 40
8.0
 40
9.0
 40
9.0
 40
9.0
 40
10.0
 40
10.0
 40
10.0
 40
11.0
 40
11.0
 40
11.0
 40
12.0
 40
12.0
 40
12.0
 40
13.0
 40
13.0
 40
13.0
 40
14.0
 40
14.0
 40
14.0
 40
15.0
 40
15.0
 40
15.0
 40
16.0
 40
16.0
 40
16.0
 40
17.0
 40
17.0
 40
17.0
 40
18.0
 40
18.0
 40
18.0
 40
19.0
 40
19.0
 40
19.0
 40
20.0
 40
20.0
 40
20.0
 40
21.0
 40
21.0
 40
21.0
 40
22.0
 40
22.0
 40
22.0
 40
23.0
 40
23.0
 40
23.0
 40
24.0
 40
24.0
 40
24.0
 40
25.0
 40
25.0
 40
25.0
 40
26.0
 40
26.0
 40
26.0
 40
27.0
 40
27.0
 40
27.0
 40
28.0
 40
28.0
 40
28.0
 40
29.0
 40
29.0
 40
29.0
 40
30.0
 40
30.0
 40
30.0
 40
31.0
 40
31.0
 40
31.0
 40
32.0
 40
32.0
 40
32.0
 40
32.0
 10
86.89999389648438
 20
46.39999487304704
 30
0.0
 10
86.92162322998047
 20
40.12270452880875
 30
0.0
 10
85.4837875366211
 20
33.92630865478532
 30
0.0
 10
82.69999694824219
 20
28.29999639892594
 30
0.0
 10
82.69999694824219
 20
28.29999639892594
 30
0.0
 10
82.5
 20
28.79999639892594
 30
0.0
 10
82.5
 20
28.79999639892594
 30
0.0
 10
83.09210205078125
 20
29.69849493408219
 30
0.0
 10
83.62651062011719
 20
30.63371374511735
 30
0.0
 10
84.0999984741211
 20
31.59999945068375
 30
0.0
 10
84.26126098632812
 20
31.96164038085954
 30
0.0
 10
84.13369750976562
 20
32.38684179687516
 30
0.0
 10
83.79999542236328
 20
32.59999945068375
 30
0.0
 10
83.47044372558594
 20
32.80213262939469
 30
0.0
 10
83.03943634033203
 20
32.6988382568361
 30
0.0
 10
82.8373031616211
 20
32.36928656005875
 30
0.0
 10
82.82357788085938
 20
32.3469095458986
 30
0.0
 10
82.81112670898438
 20
32.32377722167985
 30
0.0
 10
82.79999542236328
 20
32.29999639892594
 30
0.0
 10
82.79999542236328
 20
32.29999639892594
 30
0.0
 10
82.0
 20
30.69999792480485
 30
0.0
 10
82.0
 20
30.69999792480485
 30
0.0
 10
81.82177734375
 20
31.0836038818361
 30
0.0
 10
81.68758392333984
 20
31.48617651367204
 30
0.0
 10
81.5999984741211
 20
31.89999487304704
 30
0.0
 10
81.5999984741211
 20
31.89999487304704
 30
0.0
 10
82.5
 20
33.59999182128922
 30
0.0
 10
82.5
 20
33.59999182128922
 30
0.0
 10
82.68196868896484
 20
33.93812658691422
 30
0.0
 10
82.5980224609375
 20
34.35785009765641
 30
0.0
 10
82.30000305175781
 20
34.59999182128922
 30
0.0
 10
82.12569427490234
 20
34.72302343750016
 30
0.0
 10
81.90479278564453
 20
34.75983526611344
 30
0.0
 10
81.70000457763672
 20
34.69999029541032
 30
0.0
 10
81.70000457763672
 20
34.69999029541032
 30
0.0
 10
81.70000457763672
 20
35.19999792480485
 30
0.0
 10
81.70000457763672
 20
35.19999792480485
 30
0.0
 10
81.70000457763672
 20
35.29999639892594
 30
0.0
 10
81.60000610351562
 20
35.39999487304704
 30
0.0
 10
81.60000610351562
 20
35.29999639892594
 30
0.0
 10
81.60000610351562
 20
35.29999639892594
 30
0.0
 10
80.60000610351562
 20
34.99999334716813
 30
0.0
 10
80.60000610351562
 20
34.99999334716813
 30
0.0
 10
80.60000610351562
 20
34.99999334716813
 30
0.0
 10
80.60000610351562
 20
34.99999334716813
 30
0.0
 10
80.60000610351562
 20
34.99999334716813
 30
0.0
 10
80.46134948730469
 20
35.36320593261735
 30
0.0
 10
80.0816421508789
 20
35.57415869140641
 30
0.0
 10
79.70000457763672
 20
35.49999334716813
 30
0.0
 10
79.32424926757812
 20
35.40905859375016
 30
0.0
 10
79.0933609008789
 20
35.03073980712907
 30
0.0
 10
79.18429565429688
 20
34.65498449707047
 30
0.0
 10
79.18878173828125
 20
34.63644506835954
 30
0.0
 10
79.19402313232422
 20
34.61810400390641
 30
0.0
 10
79.20000457763672
 20
34.59999182128922
 30
0.0
 10
79.20000457763672
 20
34.59999182128922
 30
0.0
 10
79.20000457763672
 20
34.59999182128922
 30
0.0
 10
79.20000457763672
 20
34.59999182128922
 30
0.0
 10
79.20000457763672
 20
34.59999182128922
 30
0.0
 10
77.30000305175781
 20
34.19999029541032
 30
0.0
 10
77.30000305175781
 20
34.19999029541032
 30
0.0
 10
76.0
 20
33.99999334716813
 30
0.0
 10
75.20000457763672
 20
34.09999182128922
 30
0.0
 10
74.9000015258789
 20
34.3999872436525
 30
0.0
 10
74.5999984741211
 20
34.69998266601579
 30
0.0
 10
74.70000457763672
 20
34.8999872436525
 30
0.0
 10
75.0
 20
35.19999029541032
 30
0.0
 10
75.0
 20
35.19999029541032
 30
0.0
 10
76.5999984741211
 20
36.3999872436525
 30
0.0
 10
76.5999984741211
 20
36.3999872436525
 30
0.0
 10
76.5999984741211
 20
36.3999872436525
 30
0.0
 10
80.5999984741211
 20
38.4999857177736
 30
0.0
 10
80.5999984741211
 20
38.4999857177736
 30
0.0
 10
81.21783447265625
 20
38.86019995117204
 30
0.0
 10
81.76095581054688
 20
39.3354349365236
 30
0.0
 10
82.19999694824219
 20
39.8999872436525
 30
0.0
 10
82.65950775146484
 20
40.34470465087907
 30
0.0
 10
82.91313171386719
 20
40.96064855957047
 30
0.0
 10
82.89999389648438
 20
41.59998419189469
 30
0.0
 10
82.92902374267578
 20
42.27153875732438
 30
0.0
 10
82.67510223388672
 20
42.92448522949235
 30
0.0
 10
82.19999694824219
 20
43.3999872436525
 30
0.0
 10
82.19999694824219
 20
43.3999872436525
 30
0.0
 10
81.5
 20
44.09998419189469
 30
0.0
 10
81.5
 20
44.09998419189469
 30
0.0
 10
81.5
 20
44.09998419189469
 30
0.0
 10
80.5
 20
44.59998419189469
 30
0.0
 10
80.5
 20
44.59998419189469
 30
0.0
 10
80.01785278320312
 20
44.76394750976579
 30
0.0
 10
79.50826263427734
 20
44.83188726806657
 30
0.0
 10
79.0
 20
44.79998114013688
 30
0.0
 10
79.0
 20
44.79998114013688
 30
0.0
 10
86.80000305175781
 20
48.79998114013688
 30
0.0
 10
86.80000305175781
 20
48.79998114013688
 30
0.0
 10
86.80000305175781
 20
48.79998114013688
 30
0.0
 10
86.89999389648438
 20
46.39999487304704
 30
0.0
 10
86.89999389648438
 20
46.39999487304704
 30
0.0
  0
SPLINE
  5
1C6
330
1F
100
AcDbEntity
  8
LAYER_1
 62
   178
100
AcDbSpline
210
0.0
220
0.0
230
1.0
 70
    11
 71
     3
 72
   440
 73
   436
 74
     0
 42
0.0000000001
 43
0.0000000001
 12
1.0
 22
0.0
 32
0.0
 13
1.0
 23
0.0
 33
0.0
 40
0.0
 40
0.0
 40
0.0
 40
0.0
 40
1.0
 40
1.0
 40
1.0
 40
2.0
 40
2.0
 40
2.0
 40
3.0
 40
3.0
 40
3.0
 40
4.0
 40
4.0
 40
4.0
 40
5.0
 40
5.0
 40
5.0
 40
6.0
 40
6.0
 40
6.0
 40
7.0
 40
7.0
 40
7.0
 40
8.0
 40
8.0
 40
8.0
 40
9.0
 40
9.0
 40
9.0
 40
10.0
 40
10.0
 40
10.0
 40
11.0
 40
11.0
 40
11.0
 40
12.0
 40
12.0
 40
12.0
 40
13.0
 40
13.0
 40
13.0
 40
14.0
 40
14.0
 40
14.0
 40
15.0
 40
15.0
 40
15.0
 40
16.0
 40
16.0
 40
16.0
 40
17.0
 40
17.0
 40
17.0
 40
18.0
 40
18.0
 40
18.0
 40
19.0
 40
19.0
 40
19.0
 40
20.0
 40
20.0
 40
20.0
 40
21.0
 40
21.0
 40
21.0
 40
22.0
 40
22.0
 40
22.0
 40
23.0
 40
23.0
 40
23.0
 40
24.0
 40
24.0
 40
24.0
 40
25.0
 40
25.0
 40
25.0
 40
26.0
 40
26.0
 40
26.0
 40
27.0
 40
27.0
 40
27.0
 40
28.0
 40
28.0
 40
28.0
 40
29.0
 40
29.0
 40
29.0
 40
30.0
 40
30.0
 40
30.0
 40
31.0
 40
31.0
 40
31.0
 40
32.0
 40
32.0
 40
32.0
 40
33.0
 40
33.0
 40
33.0
 40
34.0
 40
34.0
 40
34.0
 40
35.0
 40
35.0
 40
35.0
 40
36.0
 40
36.0
 40
36.0
 40
37.0
 40
37.0
 40
37.0
 40
38.0
 40
38.0
 40
38.0
 40
39.0
 40
39.0
 40
39.0
 40
40.0
 40
40.0
 40
40.0
 40
41.0
 40
41.0
 40
41.0
 40
42.0
 40
42.0
 40
42.0
 40
43.0
 40
43.0
 40
43.0
 40
44.0
 40
44.0
 40
44.0
 40
45.0
 40
45.0
 40
45.0
 40
46.0
 40
46.0
 40
46.0
 40
47.0
 40
47.0
 40
47.0
 40
48.0
 40
48.0
 40
48.0
 40
49.0
 40
49.0
 40
49.0
 40
50.0
 40
50.0
 40
50.0
 40
51.0
 40
51.0
 40
51.0
 40
52.0
 40
52.0
 40
52.0
 40
53.0
 40
53.0
 40
53.0
 40
54.0
 40
54.0
 40
54.0
 40
55.0
 40
55.0
 40
55.0
 40
56.0
 40
56.0
 40
56.0
 40
57.0
 40
57.0
 40
57.0
 40
58.0
 40
58.0
 40
58.0
 40
59.0
 40
59.0
 40
59.0
 40
60.0
 40
60.0
 40
60.0
 40
61.0
 40
61.0
 40
61.0
 40
62.0
 40
62.0
 40
62.0
 40
63.0
 40
63.0
 40
63.0
 40
64.0
 40
64.0
 40
64.0
 40
65.0
 40
65.0
 40
65.0
 40
66.0
 40
66.0
 40
66.0
 40
67.0
 40
67.0
 40
67.0
 40
68.0
 40
68.0
 40
68.0
 40
69.0
 40
69.0
 40
69.0
 40
70.0
 40
70.0
 40
70.0
 40
71.0
 40
71.0
 40
71.0
 40
72.0
 40
72.0
 40
72.0
 40
73.0
 40
73.0
 40
73.0
 40
74.0
 40
74.0
 40
74.0
 40
75.0
 40
75.0
 40
75.0
 40
76.0
 40
76.0
 40
76.0
 40
77.0
 40
77.0
 40
77.0
 40
78.0
 40
78.0
 40
78.0
 40
79.0
 40
79.0
 40
79.0
 40
80.0
 40
80.0
 40
80.0
 40
81.0
 40
81.0
 40
81.0
 40
82.0
 40
82.0
 40
82.0
 40
83.0
 40
83.0
 40
83.0
 40
84.0
 40
84.0
 40
84.0
 40
85.0
 40
85.0
 40
85.0
 40
86.0
 40
86.0
 40
86.0
 40
87.0
 40
87.0
 40
87.0
 40
88.0
 40
88.0
 40
88.0
 40
89.0
 40
89.0
 40
89.0
 40
90.0
 40
90.0
 40
90.0
 40
91.0
 40
91.0
 40
91.0
 40
92.0
 40
92.0
 40
92.0
 40
93.0
 40
93.0
 40
93.0
 40
94.0
 40
94.0
 40
94.0
 40
95.0
 40
95.0
 40
95.0
 40
96.0
 40
96.0
 40
96.0
 40
97.0
 40
97.0
 40
97.0
 40
98.0
 40
98.0
 40
98.0
 40
99.0
 40
99.0
 40
99.0
 40
100.0
 40
100.0
 40
100.0
 40
101.0
 40
101.0
 40
101.0
 40
102.0
 40
102.0
 40
102.0
 40
103.0
 40
103.0
 40
103.0
 40
104.0
 40
104.0
 40
104.0
 40
105.0
 40
105.0
 40
105.0
 40
106.0
 40
106.0
 40
106.0
 40
107.0
 40
107.0
 40
107.0
 40
108.0
 40
108.0
 40
108.0
 40
109.0
 40
109.0
 40
109.0
 40
110.0
 40
110.0
 40
110.0
 40
111.0
 40
111.0
 40
111.0
 40
112.0
 40
112.0
 40
112.0
 40
113.0
 40
113.0
 40
113.0
 40
114.0
 40
114.0
 40
114.0
 40
115.0
 40
115.0
 40
115.0
 40
116.0
 40
116.0
 40
116.0
 40
117.0
 40
117.0
 40
117.0
 40
118.0
 40
118.0
 40
118.0
 40
119.0
 40
119.0
 40
119.0
 40
120.0
 40
120.0
 40
120.0
 40
121.0
 40
121.0
 40
121.0
 40
122.0
 40
122.0
 40
122.0
 40
123.0
 40
123.0
 40
123.0
 40
124.0
 40
124.0
 40
124.0
 40
125.0
 40
125.0
 40
125.0
 40
126.0
 40
126.0
 40
126.0
 40
127.0
 40
127.0
 40
127.0
 40
128.0
 40
128.0
 40
128.0
 40
129.0
 40
129.0
 40
129.0
 40
130.0
 40
130.0
 40
130.0
 40
131.0
 40
131.0
 40
131.0
 40
132.0
 40
132.0
 40
132.0
 40
133.0
 40
133.0
 40
133.0
 40
134.0
 40
134.0
 40
134.0
 40
135.0
 40
135.0
 40
135.0
 40
136.0
 40
136.0
 40
136.0
 40
137.0
 40
137.0
 40
137.0
 40
138.0
 40
138.0
 40
138.0
 40
139.0
 40
139.0
 40
139.0
 40
140.0
 40
140.0
 40
140.0
 40
141.0
 40
141.0
 40
141.0
 40
142.0
 40
142.0
 40
142.0
 40
143.0
 40
143.0
 40
143.0
 40
144.0
 40
144.0
 40
144.0
 40
145.0
 40
145.0
 40
145.0
 40
145.0
 10
85.79999542236328
 20
51.29999639892594
 30
0.0
 10
85.69999694824219
 20
51.39999487304704
 30
0.0
 10
85.5999984741211
 20
51.39999487304704
 30
0.0
 10
85.39999389648438
 20
51.29999639892594
 30
0.0
 10
85.39999389648438
 20
51.29999639892594
 30
0.0
 10
72.39999389648438
 20
44.59999945068375
 30
0.0
 10
72.39999389648438
 20
44.59999945068375
 30
0.0
 10
71.1382064819336
 20
44.15350439453141
 30
0.0
 10
69.82984161376953
 20
43.85157873535172
 30
0.0
 10
68.49999237060547
 20
43.69999792480485
 30
0.0
 10
67.74241638183594
 20
43.5644388427736
 30
0.0
 10
66.96136474609375
 20
43.70645239257829
 30
0.0
 10
66.29999542236328
 20
44.09999945068375
 30
0.0
 10
66.0999984741211
 20
44.40000250244157
 30
0.0
 10
66.0999984741211
 20
44.59999945068375
 30
0.0
 10
66.39999389648438
 20
45.00000097656266
 30
0.0
 10
66.95250701904297
 20
45.59464361572282
 30
0.0
 10
67.5933609008789
 20
46.10057928466813
 30
0.0
 10
68.29999542236328
 20
46.50000097656266
 30
0.0
 10
68.29999542236328
 20
46.50000097656266
 30
0.0
 10
74.39999389648438
 20
49.90000250244157
 30
0.0
 10
74.39999389648438
 20
49.90000250244157
 30
0.0
 10
74.39999389648438
 20
49.90000250244157
 30
0.0
 10
75.59999084472656
 20
48.59999945068375
 30
0.0
 10
75.59999084472656
 20
48.59999945068375
 30
0.0
 10
75.59999084472656
 20
48.59999945068375
 30
0.0
 10
76.0
 20
48.59999945068375
 30
0.0
 10
76.0
 20
48.59999945068375
 30
0.0
 10
76.0
 20
48.59999945068375
 30
0.0
 10
77.0999984741211
 20
49.19999792480485
 30
0.0
 10
77.0999984741211
 20
49.19999792480485
 30
0.0
 10
77.0999984741211
 20
49.19999792480485
 30
0.0
 10
77.29999542236328
 20
49.39999487304704
 30
0.0
 10
77.29999542236328
 20
49.39999487304704
 30
0.0
 10
77.29999542236328
 20
49.49999334716813
 30
0.0
 10
77.29999542236328
 20
49.49999334716813
 30
0.0
 10
77.19999694824219
 20
49.59999182128922
 30
0.0
 10
77.19999694824219
 20
49.59999182128922
 30
0.0
 10
76.0999984741211
 20
50.79998876953141
 30
0.0
 10
76.0999984741211
 20
50.79998876953141
 30
0.0
 10
76.0999984741211
 20
50.79998876953141
 30
0.0
 10
81.5
 20
53.59999182128922
 30
0.0
 10
81.5
 20
53.59999182128922
 30
0.0
 10
81.5
 20
53.59999182128922
 30
0.0
 10
81.5
 20
53.99999334716813
 30
0.0
 10
81.5
 20
53.99999334716813
 30
0.0
 10
81.5
 20
53.99999334716813
 30
0.0
 10
79.80000305175781
 20
55.79999639892594
 30
0.0
 10
79.80000305175781
 20
55.79999639892594
 30
0.0
 10
79.80000305175781
 20
55.79999639892594
 30
0.0
 10
79.5
 20
55.79999639892594
 30
0.0
 10
79.5
 20
55.79999639892594
 30
0.0
 10
79.5
 20
55.79999639892594
 30
0.0
 10
74.0
 20
52.89999487304704
 30
0.0
 10
74.0
 20
52.89999487304704
 30
0.0
 10
74.0
 20
52.89999487304704
 30
0.0
 10
73.19999694824219
 20
53.79999639892594
 30
0.0
 10
73.19999694824219
 20
53.79999639892594
 30
0.0
 10
73.19999694824219
 20
53.79999639892594
 30
0.0
 10
72.79999542236328
 20
53.79999639892594
 30
0.0
 10
72.79999542236328
 20
53.79999639892594
 30
0.0
 10
72.79999542236328
 20
53.79999639892594
 30
0.0
 10
71.5999984741211
 20
53.09999945068375
 30
0.0
 10
71.5999984741211
 20
53.09999945068375
 30
0.0
 10
71.5999984741211
 20
53.09999945068375
 30
0.0
 10
71.5
 20
53.09999945068375
 30
0.0
 10
71.5
 20
53.09999945068375
 30
0.0
 10
71.5
 20
53.00000097656266
 30
0.0
 10
71.5
 20
53.00000097656266
 30
0.0
 10
71.5999984741211
 20
52.90000250244157
 30
0.0
 10
71.5999984741211
 20
52.90000250244157
 30
0.0
 10
72.4000015258789
 20
52.00000097656266
 30
0.0
 10
72.4000015258789
 20
52.00000097656266
 30
0.0
 10
70.92908477783203
 20
51.3057718505861
 30
0.0
 10
69.49394226074219
 20
50.53814031982438
 30
0.0
 10
68.0999984741211
 20
49.69999792480485
 30
0.0
 10
66.71721649169922
 20
49.1583109130861
 30
0.0
 10
65.27303314208984
 20
48.78887274169938
 30
0.0
 10
63.79999923706055
 20
48.59999945068375
 30
0.0
 10
62.59999847412109
 20
48.40000250244157
 30
0.0
 10
61.89999771118164
 20
48.40000250244157
 30
0.0
 10
61.70000076293945
 20
48.69999792480485
 30
0.0
 10
61.50000381469727
 20
48.99999334716813
 30
0.0
 10
61.5
 20
49.19999792480485
 30
0.0
 10
61.79999923706055
 20
49.50000097656266
 30
0.0
 10
62.42535781860352
 20
50.15312292480485
 30
0.0
 10
63.1309814453125
 20
50.72434332275407
 30
0.0
 10
63.90000152587891
 20
51.19999792480485
 30
0.0
 10
63.90000152587891
 20
51.19999792480485
 30
0.0
 10
70.9000015258789
 20
55.00000097656266
 30
0.0
 10
70.9000015258789
 20
55.00000097656266
 30
0.0
 10
70.9000015258789
 20
55.00000097656266
 30
0.0
 10
71.0999984741211
 20
55.00000097656266
 30
0.0
 10
71.0999984741211
 20
55.00000097656266
 30
0.0
 10
71.0999984741211
 20
55.09999945068375
 30
0.0
 10
71.0999984741211
 20
55.19999792480485
 30
0.0
 10
71.0
 20
55.19999792480485
 30
0.0
 10
71.0
 20
55.19999792480485
 30
0.0
 10
70.80000305175781
 20
55.39999487304704
 30
0.0
 10
70.80000305175781
 20
55.39999487304704
 30
0.0
 10
70.80000305175781
 20
55.39999487304704
 30
0.0
 10
71.20000457763672
 20
55.39999487304704
 30
0.0
 10
71.20000457763672
 20
55.39999487304704
 30
0.0
 10
71.72555541992188
 20
55.4899759521486
 30
0.0
 10
72.21269226074219
 20
55.73354437255875
 30
0.0
 10
72.60000610351562
 20
56.09999182128922
 30
0.0
 10
72.96208190917969
 20
56.35170080566422
 30
0.0
 10
73.18440246582031
 20
56.75929357910172
 30
0.0
 10
73.20000457763672
 20
57.19999029541032
 30
0.0
 10
73.20829010009766
 20
57.62340643310563
 30
0.0
 10
73.02446746826172
 20
58.0278177490236
 30
0.0
 10
72.70000457763672
 20
58.29998876953141
 30
0.0
 10
72.2619857788086
 20
58.50444891357438
 30
0.0
 10
71.78334045410156
 20
58.6070184936525
 30
0.0
 10
71.30000305175781
 20
58.59999182128922
 30
0.0
 10
70.7949447631836
 20
58.50518896484391
 30
0.0
 10
70.31696319580078
 20
58.30033972167985
 30
0.0
 10
69.9000015258789
 20
57.99999334716813
 30
0.0
 10
69.60960388183594
 20
57.72998907470719
 30
0.0
 10
69.40158081054688
 20
57.3832864990236
 30
0.0
 10
69.30000305175781
 20
56.99999334716813
 30
0.0
 10
69.30000305175781
 20
56.99999334716813
 30
0.0
 10
69.30000305175781
 20
56.99999334716813
 30
0.0
 10
69.30000305175781
 20
56.99999334716813
 30
0.0
 10
69.20000457763672
 20
57.19999029541032
 30
0.0
 10
69.10000610351562
 20
57.19999029541032
 30
0.0
 10
69.0
 20
57.09999182128922
 30
0.0
 10
69.0
 20
57.09999182128922
 30
0.0
 10
63.79999923706055
 20
54.29998876953141
 30
0.0
 10
63.79999923706055
 20
54.29998876953141
 30
0.0
 10
62.36308288574219
 20
53.82318975830094
 30
0.0
 10
60.89224243164062
 20
53.45548345947282
 30
0.0
 10
59.40000152587891
 20
53.19999792480485
 30
0.0
 10
58.30000305175781
 20
53.00000097656266
 30
0.0
 10
57.60000228881836
 20
53.00000097656266
 30
0.0
 10
57.40000152587891
 20
53.29999639892594
 30
0.0
 10
57.20000076293945
 20
53.59999182128922
 30
0.0
 10
57.20000076293945
 20
53.79999639892594
 30
0.0
 10
57.5
 20
54.09999945068375
 30
0.0
 10
58.08880233764648
 20
54.72397711181657
 30
0.0
 10
58.76199340820312
 20
55.26252844238297
 30
0.0
 10
59.5
 20
55.69999792480485
 30
0.0
 10
59.5
 20
55.69999792480485
 30
0.0
 10
66.0
 20
59.19999792480485
 30
0.0
 10
66.0
 20
59.19999792480485
 30
0.0
 10
66.0999984741211
 20
59.29999639892594
 30
0.0
 10
66.0999984741211
 20
59.29999639892594
 30
0.0
 10
66.0999984741211
 20
59.39999487304704
 30
0.0
 10
66.0999984741211
 20
59.49999334716813
 30
0.0
 10
66.0999984741211
 20
59.49999334716813
 30
0.0
 10
66.0999984741211
 20
59.59999182128922
 30
0.0
 10
66.0999984741211
 20
59.59999182128922
 30
0.0
 10
64.4000015258789
 20
61.39999487304704
 30
0.0
 10
64.4000015258789
 20
61.39999487304704
 30
0.0
 10
64.4000015258789
 20
61.39999487304704
 30
0.0
 10
64.0
 20
61.39999487304704
 30
0.0
 10
64.0
 20
61.39999487304704
 30
0.0
 10
64.0
 20
61.39999487304704
 30
0.0
 10
63.59999847412109
 20
61.09999182128922
 30
0.0
 10
63.59999847412109
 20
61.09999182128922
 30
0.0
 10
64.09658813476562
 20
62.10334875488297
 30
0.0
 10
63.89516067504883
 20
63.31192877197282
 30
0.0
 10
63.09999847412109
 20
64.09999182128922
 30
0.0
 10
62.39663314819336
 20
64.80296804809586
 30
0.0
 10
61.48440170288086
 20
65.25908377075211
 30
0.0
 10
60.5
 20
65.39999105834977
 30
0.0
 10
59.46547317504883
 20
65.5809183349611
 30
0.0
 10
58.40270233154297
 20
65.51235296630875
 30
0.0
 10
57.40000152587891
 20
65.19999029541032
 30
0.0
 10
56.37042236328125
 20
64.87677099609391
 30
0.0
 10
55.39347457885742
 20
64.40514089965836
 30
0.0
 10
54.5
 20
63.79998876953141
 30
0.0
 10
53.58235931396484
 20
63.33138754272477
 30
0.0
 10
52.76665496826172
 20
62.68562414550797
 30
0.0
 10
52.09999847412109
 20
61.8999872436525
 30
0.0
 10
51.55437850952148
 20
61.29389288330094
 30
0.0
 10
51.14516830444336
 20
60.57777502441422
 30
0.0
 10
50.89999771118164
 20
59.79998876953141
 30
0.0
 10
50.89999771118164
 20
59.79998876953141
 30
0.0
 10
48.69999694824219
 20
59.09999182128922
 30
0.0
 10
48.69999694824219
 20
59.09999182128922
 30
0.0
 10
48.69999694824219
 20
59.09999182128922
 30
0.0
 10
45.89999771118164
 20
61.69999029541032
 30
0.0
 10
45.89999771118164
 20
61.69999029541032
 30
0.0
 10
45.89999771118164
 20
61.69999029541032
 30
0.0
 10
45.49999618530273
 20
57.69999029541032
 30
0.0
 10
45.49999618530273
 20
57.69999029541032
 30
0.0
 10
45.49999618530273
 20
57.69999029541032
 30
0.0
 10
43.99999618530273
 20
56.99999334716813
 30
0.0
 10
43.99999618530273
 20
56.99999334716813
 30
0.0
 10
43.99999618530273
 20
56.99999334716813
 30
0.0
 10
41.49999618530273
 20
60.79999639892594
 30
0.0
 10
41.49999618530273
 20
60.79999639892594
 30
0.0
 10
41.49999618530273
 20
60.79999639892594
 30
0.0
 10
42.89999771118164
 20
64.79999639892594
 30
0.0
 10
42.89999771118164
 20
64.79999639892594
 30
0.0
 10
42.89999771118164
 20
64.79999639892594
 30
0.0
 10
43.79999923706055
 20
64.9999971618654
 30
0.0
 10
43.79999923706055
 20
64.9999971618654
 30
0.0
 10
43.79999923706055
 20
64.9999971618654
 30
0.0
 10
45.29999923706055
 20
65.29999639892594
 30
0.0
 10
45.29999923706055
 20
65.29999639892594
 30
0.0
 10
45.8957405090332
 20
65.4552965393068
 30
0.0
 10
46.46763229370117
 20
65.6907816162111
 30
0.0
 10
47.0
 20
65.9999971618654
 30
0.0
 10
47.59275054931641
 20
66.20729544067399
 30
0.0
 10
48.16245269775391
 20
66.47538854980485
 30
0.0
 10
48.70000076293945
 20
66.79999639892594
 30
0.0
 10
48.70000076293945
 20
66.79999639892594
 30
0.0
 10
50.60000228881836
 20
67.69999792480485
 30
0.0
 10
50.60000228881836
 20
67.69999792480485
 30
0.0
 10
50.60000228881836
 20
67.69999792480485
 30
0.0
 10
52.50000381469727
 20
68.79999639892594
 30
0.0
 10
52.50000381469727
 20
68.79999639892594
 30
0.0
 10
52.50000381469727
 20
68.79999639892594
 30
0.0
 10
54.40000534057617
 20
69.89999487304704
 30
0.0
 10
54.40000534057617
 20
69.89999487304704
 30
0.0
 10
54.40000534057617
 20
69.89999487304704
 30
0.0
 10
54.80000686645508
 20
70.09999563598649
 30
0.0
 10
54.80000686645508
 20
70.09999563598649
 30
0.0
 10
54.80000686645508
 20
70.09999563598649
 30
0.0
 10
57.0
 20
67.79999639892594
 30
0.0
 10
57.0
 20
67.79999639892594
 30
0.0
 10
57.0
 20
67.79999639892594
 30
0.0
 10
57.40000152587891
 20
67.79999639892594
 30
0.0
 10
57.40000152587891
 20
67.79999639892594
 30
0.0
 10
57.40000152587891
 20
67.79999639892594
 30
0.0
 10
58.80000305175781
 20
68.59999563598649
 30
0.0
 10
58.80000305175781
 20
68.59999563598649
 30
0.0
 10
58.80000305175781
 20
68.59999563598649
 30
0.0
 10
58.90000152587891
 20
68.59999563598649
 30
0.0
 10
58.90000152587891
 20
68.59999563598649
 30
0.0
 10
58.90000152587891
 20
68.59999563598649
 30
0.0
 10
58.90000152587891
 20
68.79999639892594
 30
0.0
 10
58.90000152587891
 20
68.79999639892594
 30
0.0
 10
58.90000152587891
 20
68.79999639892594
 30
0.0
 10
56.59999847412109
 20
71.19999792480485
 30
0.0
 10
56.59999847412109
 20
71.19999792480485
 30
0.0
 10
56.59999847412109
 20
71.19999792480485
 30
0.0
 10
59.5
 20
72.8999986877443
 30
0.0
 10
59.5
 20
72.8999986877443
 30
0.0
 10
59.5
 20
72.8999986877443
 30
0.0
 10
62.09999847412109
 20
73.8999986877443
 30
0.0
 10
62.09999847412109
 20
73.8999986877443
 30
0.0
 10
62.75516510009766
 20
74.20798590087907
 30
0.0
 10
63.47748565673828
 20
74.34557058715836
 30
0.0
 10
64.19999694824219
 20
74.3000002136232
 30
0.0
 10
64.76212310791016
 20
74.31982519531266
 30
0.0
 10
65.30661010742188
 20
74.10203268432633
 30
0.0
 10
65.69999694824219
 20
73.70000173950211
 30
0.0
 10
65.79999542236328
 20
73.60000326538102
 30
0.0
 10
65.89999389648438
 20
73.70000173950211
 30
0.0
 10
65.89999389648438
 20
73.90000250244157
 30
0.0
 10
66.0967788696289
 20
74.26863577270524
 30
0.0
 10
66.0139389038086
 20
74.72422506713883
 30
0.0
 10
65.69999694824219
 20
75.00000097656266
 30
0.0
 10
64.61320495605469
 20
76.04883673095719
 30
0.0
 10
63.08079147338867
 20
76.49734594726579
 30
0.0
 10
61.59999847412109
 20
76.19999792480485
 30
0.0
 10
59.69999694824219
 20
75.9999971618654
 30
0.0
 10
57.29999923706055
 20
74.9999971618654
 30
0.0
 10
54.29999923706055
 20
73.3999986877443
 30
0.0
 10
54.29999923706055
 20
73.3999986877443
 30
0.0
 10
49.39999771118164
 20
71.09999945068375
 30
0.0
 10
49.39999771118164
 20
71.09999945068375
 30
0.0
 10
48.29696655273438
 20
70.59123327636735
 30
0.0
 10
47.16109085083008
 20
70.15692617797868
 30
0.0
 10
46.0
 20
69.79999639892594
 30
0.0
 10
46.0
 20
69.79999639892594
 30
0.0
 10
43.70000076293945
 20
69.4999971618654
 30
0.0
 10
43.70000076293945
 20
69.4999971618654
 30
0.0
 10
43.70000076293945
 20
69.4999971618654
 30
0.0
 10
42.29999923706055
 20
69.69999792480485
 30
0.0
 10
42.29999923706055
 20
69.69999792480485
 30
0.0
 10
41.9368896484375
 20
69.8858499755861
 30
0.0
 10
41.62714004516602
 20
70.16117956542985
 30
0.0
 10
41.39999771118164
 20
70.4999971618654
 30
0.0
 10
41.27409362792969
 20
70.59442617797868
 30
0.0
 10
41.19999694824219
 20
70.74261953735368
 30
0.0
 10
41.19999694824219
 20
70.8999986877443
 30
0.0
 10
41.19999694824219
 20
70.8999986877443
 30
0.0
 10
41.19999694824219
 20
71.19999792480485
 30
0.0
 10
41.19999694824219
 20
71.19999792480485
 30
0.0
 10
41.09999847412109
 20
71.29999639892594
 30
0.0
 10
40.99999618530273
 20
71.29999639892594
 30
0.0
 10
40.79999542236328
 20
71.19999792480485
 30
0.0
 10
40.79999542236328
 20
71.19999792480485
 30
0.0
 10
40.19999694824219
 20
70.69999792480485
 30
0.0
 10
40.19999694824219
 20
70.69999792480485
 30
0.0
 10
39.73982620239258
 20
69.97805120849625
 30
0.0
 10
39.46503067016602
 20
69.15365698242204
 30
0.0
 10
39.39999771118164
 20
68.29999639892594
 30
0.0
 10
39.35443878173828
 20
67.4747286071779
 30
0.0
 10
39.60241317749023
 20
66.65996267700211
 30
0.0
 10
40.09999847412109
 20
65.9999971618654
 30
0.0
 10
40.09999847412109
 20
65.9999971618654
 30
0.0
 10
37.29999923706055
 20
65.29999639892594
 30
0.0
 10
37.29999923706055
 20
65.29999639892594
 30
0.0
 10
37.29999923706055
 20
65.29999639892594
 30
0.0
 10
33.89999771118164
 20
68.4999971618654
 30
0.0
 10
33.89999771118164
 20
68.4999971618654
 30
0.0
 10
33.89999771118164
 20
68.4999971618654
 30
0.0
 10
35.69999694824219
 20
70.59999563598649
 30
0.0
 10
35.69999694824219
 20
70.59999563598649
 30
0.0
 10
35.69999694824219
 20
70.59999563598649
 30
0.0
 10
38.69999694824219
 20
70.39999487304704
 30
0.0
 10
38.69999694824219
 20
70.39999487304704
 30
0.0
 10
38.69999694824219
 20
70.39999487304704
 30
0.0
 10
37.19999694824219
 20
72.89999487304704
 30
0.0
 10
37.19999694824219
 20
72.89999487304704
 30
0.0
 10
37.19999694824219
 20
72.89999487304704
 30
0.0
 10
37.99999618530273
 20
76.09999563598649
 30
0.0
 10
37.99999618530273
 20
76.09999563598649
 30
0.0
 10
37.99999618530273
 20
76.09999563598649
 30
0.0
 10
34.89999771118164
 20
75.19999411010758
 30
0.0
 10
34.89999771118164
 20
75.19999411010758
 30
0.0
 10
34.89999771118164
 20
75.19999411010758
 30
0.0
 10
32.69999694824219
 20
77.29999258422868
 30
0.0
 10
32.69999694824219
 20
77.29999258422868
 30
0.0
 10
32.69999694824219
 20
77.29999258422868
 30
0.0
 10
32.49999618530273
 20
76.49999334716813
 30
0.0
 10
32.49999618530273
 20
76.49999334716813
 30
0.0
 10
32.49999618530273
 20
76.49999334716813
 30
0.0
 10
30.59999656677246
 20
79.49999334716813
 30
0.0
 10
30.59999656677246
 20
79.49999334716813
 30
0.0
 10
30.59999656677246
 20
79.49999334716813
 30
0.0
 10
32.09999847412109
 20
84.29999258422868
 30
0.0
 10
32.09999847412109
 20
84.29999258422868
 30
0.0
 10
36.66728210449219
 20
86.03485205078141
 30
0.0
 10
41.51435089111328
 20
86.91613867187516
 30
0.0
 10
46.39999771118164
 20
86.89999105834977
 30
0.0
 10
48.68002700805664
 20
86.90332891845719
 30
0.0
 10
50.95578002929688
 20
86.70252706909196
 30
0.0
 10
53.19999694824219
 20
86.29999258422868
 30
0.0
 10
53.19999694824219
 20
86.29999258422868
 30
0.0
 10
52.29999542236328
 20
86.29999258422868
 30
0.0
 10
52.29999542236328
 20
86.29999258422868
 30
0.0
 10
51.01685333251953
 20
86.02919104003922
 30
0.0
 10
49.79579544067383
 20
85.52041723632829
 30
0.0
 10
48.69999694824219
 20
84.79999258422868
 30
0.0
 10
47.68215179443359
 20
84.14331533813493
 30
0.0
 10
46.77148056030273
 20
83.3338365783693
 30
0.0
 10
46.0
 20
82.3999986877443
 30
0.0
 10
44.9620361328125
 20
81.16186621093766
 30
0.0
 10
44.36414337158203
 20
79.6143770446779
 30
0.0
 10
44.29999923706055
 20
77.9999971618654
 30
0.0
 10
44.13275146484375
 20
76.66707327270524
 30
0.0
 10
44.5317268371582
 20
75.32506277465836
 30
0.0
 10
45.39999771118164
 20
74.29999639892594
 30
0.0
 10
46.34288787841797
 20
73.28210546875016
 30
0.0
 10
47.72764587402344
 20
72.79557135009782
 30
0.0
 10
49.09999847412109
 20
72.9999971618654
 30
0.0
 10
50.40454864501953
 20
73.12675955200211
 30
0.0
 10
51.61585998535156
 20
73.73241140747086
 30
0.0
 10
52.5
 20
74.69999792480485
 30
0.0
 10
52.78451538085938
 20
75.06897833251969
 30
0.0
 10
52.8940544128418
 20
75.5436525573732
 30
0.0
 10
52.79999923706055
 20
75.9999971618654
 30
0.0
 10
52.79999923706055
 20
76.39999487304704
 30
0.0
 10
52.70000076293945
 20
76.4999971618654
 30
0.0
 10
52.5
 20
76.29999639892594
 30
0.0
 10
51.91855621337891
 20
75.68640997314469
 30
0.0
 10
51.13973617553711
 20
75.29699804687516
 30
0.0
 10
50.29999923706055
 20
75.19999792480485
 30
0.0
 10
49.40292358398438
 20
75.0264635314943
 30
0.0
 10
48.47652435302734
 20
75.28585531616227
 30
0.0
 10
47.79999923706055
 20
75.8999986877443
 30
0.0
 10
47.38619232177734
 20
76.40224554443375
 30
0.0
 10
47.20451736450195
 20
77.05628302001969
 30
0.0
 10
47.29999923706055
 20
77.69999792480485
 30
0.0
 10
47.48868560791016
 20
78.45012380981461
 30
0.0
 10
47.86753845214844
 20
79.13894750976579
 30
0.0
 10
48.39999771118164
 20
79.69999792480485
 30
0.0
 10
49.23075485229492
 20
80.74458792114274
 30
0.0
 10
50.2479362487793
 20
81.62614538574235
 30
0.0
 10
51.39999771118164
 20
82.29999639892594
 30
0.0
 10
52.63049697875977
 20
82.9413576354982
 30
0.0
 10
53.94252777099609
 20
83.41234304809586
 30
0.0
 10
55.29999923706055
 20
83.69999792480485
 30
0.0
 10
56.66490936279297
 20
83.93291952514664
 30
0.0
 10
58.06423950195312
 20
83.86465933227555
 30
0.0
 10
59.39999771118164
 20
83.4999971618654
 30
0.0
 10
60.76762008666992
 20
83.08487036132829
 30
0.0
 10
62.0067024230957
 20
82.32765295410172
 30
0.0
 10
63.0
 20
81.29999639892594
 30
0.0
 10
64.1570816040039
 20
80.05550863647477
 30
0.0
 10
65.16397857666016
 20
78.67941381835954
 30
0.0
 10
66.0
 20
77.19999792480485
 30
0.0
 10
67.0
 20
75.69999792480485
 30
0.0
 10
67.80000305175781
 20
74.29999639892594
 30
0.0
 10
68.5
 20
72.9999971618654
 30
0.0
 10
69.03199768066406
 20
71.94706060791032
 30
0.0
 10
69.70484161376953
 20
70.97144033813493
 30
0.0
 10
70.5
 20
70.09999563598649
 30
0.0
 10
70.82328033447266
 20
69.73312094116227
 30
0.0
 10
71.23700714111328
 20
69.45730688476579
 30
0.0
 10
71.69999694824219
 20
69.29999639892594
 30
0.0
 10
72.13516235351562
 20
69.2305650939943
 30
0.0
 10
72.58057403564453
 20
69.26482870483414
 30
0.0
 10
73.0
 20
69.39999487304704
 30
0.0
 10
73.0
 20
69.39999487304704
 30
0.0
 10
74.0999984741211
 20
69.99999334716813
 30
0.0
 10
74.0999984741211
 20
69.99999334716813
 30
0.0
 10
74.38137817382812
 20
70.17974951171891
 30
0.0
 10
74.6202392578125
 20
70.41861822509782
 30
0.0
 10
74.79999542236328
 20
70.69999411010758
 30
0.0
 10
74.79999542236328
 20
70.69999411010758
 30
0.0
 10
75.0999984741211
 20
71.19999411010758
 30
0.0
 10
75.0999984741211
 20
71.19999411010758
 30
0.0
 10
75.10928344726562
 20
71.30948355102555
 30
0.0
 10
75.07312774658203
 20
71.41797354125993
 30
0.0
 10
75.0
 20
71.49999334716813
 30
0.0
 10
75.0
 20
71.59999182128922
 30
0.0
 10
74.80000305175781
 20
71.59999182128922
 30
0.0
 10
74.5999984741211
 20
71.59999182128922
 30
0.0
 10
74.5999984741211
 20
71.59999182128922
 30
0.0
 10
73.79999542236328
 20
71.59999182128922
 30
0.0
 10
73.79999542236328
 20
71.59999182128922
 30
0.0
 10
73.43206787109375
 20
71.72963430786149
 30
0.0
 10
73.11621856689453
 20
71.97529699707047
 30
0.0
 10
72.89999389648438
 20
72.29999258422868
 30
0.0
 10
71.39999389648438
 20
73.89999105834977
 30
0.0
 10
69.79999542236328
 20
75.69999411010758
 30
0.0
 10
68.19999694824219
 20
77.69999411010758
 30
0.0
 10
66.5999984741211
 20
79.69999411010758
 30
0.0
 10
65.39999389648438
 20
81.09999563598649
 30
0.0
 10
64.79999542236328
 20
81.79999258422868
 30
0.0
 10
64.79999542236328
 20
81.79999258422868
 30
0.0
 10
63.49999618530273
 20
82.99999334716813
 30
0.0
 10
63.49999618530273
 20
82.99999334716813
 30
0.0
 10
76.4780502319336
 20
76.97707846069352
 30
0.0
 10
85.30253601074219
 20
64.53911688232438
 30
0.0
 10
86.69999694824219
 20
50.29999639892594
 30
0.0
 10
86.69999694824219
 20
50.29999639892594
 30
0.0
 10
85.79999542236328
 20
51.29999639892594
 30
0.0
 10
85.79999542236328
 20
51.29999639892594
 30
0.0
  0
ENDSEC
  0
SECTION
  2
OBJECTS
  0
DICTIONARY
  5
C
330
0
100
AcDbDictionary
  3
ACAD_GROUP
350
D
  3
ACAD_LAYOUT
350
1A
  3
ACAD_MATERIAL
350
3B
  3
ACAD_MLEADERSTYLE
350
1E9
  3
ACAD_MLINESTYLE
350
17
  3
ACAD_PLOTSETTINGS
350
19
  3
ACAD_VISUALSTYLE
350
2A
  3
ACDBHEADERROUNDTRIPXREC
350
1C7
  3
ACDBVARIABLEDICTIONARY
350
1E7
  0
DICTIONARY
  5
D
102
{ACAD_REACTORS
330
C
102
}
330
C
100
AcDbDictionary
  0
DICTIONARY
  5
1A
102
{ACAD_REACTORS
330
C
102
}
330
C
100
AcDbDictionary
  0
DICTIONARY
  5
3B
102
{ACAD_REACTORS
330
C
102
}
330
C
100
AcDbDictionary
  3
BYBLOCK
350
3D
  3
BYLAYER
350
3C
  3
GLOBAL
350
3E
  0
DICTIONARY
  5
1E9
102
{ACAD_REACTORS
330
C
102
}
330
C
100
AcDbDictionary
  0
DICTIONARY
  5
17
102
{ACAD_REACTORS
330
C
102
}
330
C
100
AcDbDictionary
  3
STANDARD
350
18
  0
DICTIONARY
  5
19
102
{ACAD_REACTORS
330
C
102
}
330
C
100
AcDbDictionary
  0
DICTIONARY
  5
2A
102
{ACAD_REACTORS
330
C
102
}
330
C
100
AcDbDictionary
  3
2DWIREFRAME
350
2F
  3
3D_HIDDEN
350
31
  3
3DWIREFRAME
350
30
  3
BASIC
350
32
  3
BRIGHTEN
350
36
  3
COLORCHANGE
350
3A
  3
CONCEPTUAL
350
34
  3
DIM
350
35
  3
FACEPATTERN
350
39
  3
FLAT
350
2B
  3
FLATWITHEDGES
350
2C
  3
GOURAUD
350
2D
  3
GOURAUDWITHEDGES
350
2E
  3
LINEPATTERN
350
38
  3
REALISTIC
350
33
  3
THICKEN
350
37
  0
DICTIONARY
  5
1C7
102
{ACAD_REACTORS
330
C
102
}
330
C
100
AcDbDictionary
  3
CEPSNTYPE
350
1D0
  3
DIMSTYLEDATA
350
1E6
  3
FINGERPRINTGUID
350
1D1
  3
HYPERLINKBASE
350
1CA
  3
INSUNITS
350
1CF
  3
LAYOUTDICT
350
1CC
  3
LWETCUNION
350
1CE
  3
PLOTSETDICT
350
1CD
  3
PSVPSCALE
350
1D3
  3
PUCSBASE
350
1D6
  3
PUCSORGBACK
350
1DC
  3
PUCSORGBOTTOM
350
1D8
  3
PUCSORGFRONT
350
1DB
  3
PUCSORGLEFT
350
1D9
  3
PUCSORGRIGHT
350
1DA
  3
PUCSORGTOP
350
1D7
  3
PUCSORTHOREF
350
1D4
  3
PUCSORTHOVIEW
350
1D5
  3
STYLESHEET
350
1CB
  3
TSTACKALIGN
350
1C8
  3
TSTACKSIZE
350
1C9
  3
UCSBASE
350
1DF
  3
UCSORGBACK
350
1E5
  3
UCSORGBOTTOM
350
1E1
  3
UCSORGFRONT
350
1E4
  3
UCSORGLEFT
350
1E2
  3
UCSORGRIGHT
350
1E3
  3
UCSORGTOP
350
1E0
  3
UCSORTHOREF
350
1DD
  3
UCSORTHOVIEW
350
1DE
  3
VERSIONGUID
350
1D2
  0
DICTIONARY
  5
1E7
102
{ACAD_REACTORS
330
C
102
}
330
C
100
AcDbDictionary
  3
DIMASSOC
350
1EA
  3
HIDETEXT
350
1EB
  0
MATERIAL
  5
3D
102
{ACAD_REACTORS
330
3B
102
}
102
{ACAD_XDICTIONARY
360
1EE
102
}
330
3B
100
AcDbMaterial
  1
ByBlock
  0
MATERIAL
  5
3C
102
{ACAD_REACTORS
330
3B
102
}
102
{ACAD_XDICTIONARY
360
1EC
102
}
330
3B
100
AcDbMaterial
  1
ByLayer
  0
MATERIAL
  5
3E
102
{ACAD_REACTORS
330
3B
102
}
102
{ACAD_XDICTIONARY
360
1F0
102
}
330
3B
100
AcDbMaterial
  1
Global
  0
MLINESTYLE
  5
18
102
{ACAD_REACTORS
330
17
102
}
330
17
100
AcDbMlineStyle
  2
Standard
 70
     0
  3

 62
   256
 51
90.0
 52
90.0
 71
     2
 49
0.5
 62
   256
  6
BYLAYER
 49
-0.5
 62
   256
  6
BYLAYER
  0
ACAD_PROXY_OBJECT
  5
2F
102
{ACAD_REACTORS
330
2A
102
}
330
2A
100
AcDbProxyObject
 90
      499
 91
      501
 93
      436
310
42CC9915DA5C99599C985B595049028333333333333E3BF0000000000000FB0107901411070040501600405405064090741402480A0340
1001
ACAD
1000
AcDbSavedByObjectVersion
1070
     0
  0
ACAD_PROXY_OBJECT
  5
31
102
{ACAD_REACTORS
330
2A
102
}
330
2A
100
AcDbProxyObject
 90
      499
 91
      501
 93
      500
310
424CD108121A5919195B90640502408333333333333E3BF0000000000000FB01079024090700405020000000000001110200405405064090740C02480A0340
1001
ACAD
1000
AcDbSavedByObjectVersion
1070
     0
  0
ACAD_PROXY_OBJECT
  5
30
102
{ACAD_REACTORS
330
2A
102
}
330
2A
100
AcDbProxyObject
 90
      499
 91
      501
 93
      436
310
42CCD915DA5C99599C985B595059028333333333333E3BF0000000000000FB0107901411070040501600405405064090741402480A0340
1001
ACAD
1000
AcDbSavedByObjectVersion
1070
     0
  0
ACAD_PROXY_OBJECT
  5
32
102
{ACAD_REACTORS
330
2A
102
}
330
2A
100
AcDbProxyObject
 90
      499
 91
      501
 93
      388
310
4150985CDA58D07406404333333333333E3BF0000000000000FB0107A41107004050150841D405064090741402480A0350
1001
ACAD
1000
AcDbSavedByObjectVersion
1070
     0
  0
ACAD_PROXY_OBJECT
  5
36
102
{ACAD_REACTORS
330
2A
102
}
330
2A
100
AcDbProxyObject
 90
      499
 91
      501
 93
      428
310
42109C9A59DA1D195B90C409028333333333333E3BF0000000000000FB010790141107004050150841D405064090741402480A029950
1001
ACAD
1000
AcDbSavedByObjectVersion
1070
     0
  0
ACAD_PROXY_OBJECT
  5
3A
102
{ACAD_REACTORS
330
2A
102
}
330
2A
100
AcDbProxyObject
 90
      499
 91
      501
 93
      452
310
42D0DBDB1BDC90DA185B99D95104090240C333333333333E3BF0000000000000FB0108901411070040501508421405064090741402480A0350
1001
ACAD
1000
AcDbSavedByObjectVersion
1070
     0
  0
ACAD_PROXY_OBJECT
  5
34
102
{ACAD_REACTORS
330
2A
102
}
330
2A
100
AcDbProxyObject
 90
      499
 91
      501
 93
      500
310
4290DBDB98D95C1D1D585B10940D028333333333333E3BF0000000000000FB0107902409070040501000000000000111010841D405064090740C02480A0340
1001
ACAD
1000
AcDbSavedByObjectVersion
1070
     0
  0
ACAD_PROXY_OBJECT
  5
35
102
{ACAD_REACTORS
330
2A
102
}
330
2A
100
AcDbProxyObject
 90
      499
 91
      501
 93
      412
310
40D11A5B50B409028333333333333E3BF0000000000000FB010790141107004050150841D405064090741402480A02677FFFFFD0
1001
ACAD
1000
AcDbSavedByObjectVersion
1070
     0
  0
ACAD_PROXY_OBJECT
  5
39
102
{ACAD_REACTORS
330
2A
102
}
330
2A
100
AcDbProxyObject
 90
      499
 91
      501
 93
      444
310
42D19858D95C185D1D195C9B90F409028333333333333E3BF0000000000000FB010790141107004050150841D405064090741402480A0350
1001
ACAD
1000
AcDbSavedByObjectVersion
1070
     0
  0
ACAD_PROXY_OBJECT
  5
2B
102
{ACAD_REACTORS
330
2A
102
}
330
2A
100
AcDbProxyObject
 90
      499
 91
      501
 93
      388
310
41119B185D240901404333333333333E3BF0000000000000F9010740A41107004050150841D405064090741402480A1B50
1001
ACAD
1000
AcDbSavedByObjectVersion
1070
     0
  0
ACAD_PROXY_OBJECT
  5
2C
102
{ACAD_REACTORS
330
2A
102
}
330
2A
100
AcDbProxyObject
 90
      499
 91
      501
 93
      476
310
43519B185D15DA5D1A115919D95CD0140901404333333333333E3BF0000000000000F9010740901411070040501600405405064090741402480A1B50
1001
ACAD
1000
AcDbSavedByObjectVersion
1070
     0
  0
ACAD_PROXY_OBJECT
  5
2D
102
{ACAD_REACTORS
330
2A
102
}
330
2A
100
AcDbProxyObject
 90
      499
 91
      501
 93
      412
310
41D1DBDD5C985D5910240902404333333333333E3BF0000000000000F9010740A411070040501641D405064090741402480A1B50
1001
ACAD
1000
AcDbSavedByObjectVersion
1070
     0
  0
ACAD_PROXY_OBJECT
  5
2E
102
{ACAD_REACTORS
330
2A
102
}
330
2A
100
AcDbProxyObject
 90
      499
 91
      501
 93
      500
310
4411DBDD5C985D5915DA5D1A115919D95CD0340902404333333333333E3BF0000000000000F9010740901411070040501600405405064090741402480A1B50
1001
ACAD
1000
AcDbSavedByObjectVersion
1070
     0
  0
ACAD_PROXY_OBJECT
  5
38
102
{ACAD_REACTORS
330
2A
102
}
330
2A
100
AcDbProxyObject
 90
      499
 91
      501
 93
      444
310
42D31A5B995C185D1D195C9B90E409028333333333333E3BF0000000000000FB010790141107004050750841D405064090741402483A0350
1001
ACAD
1000
AcDbSavedByObjectVersion
1070
     0
  0
ACAD_PROXY_OBJECT
  5
33
102
{ACAD_REACTORS
330
2A
102
}
330
2A
100
AcDbProxyObject
 90
      499
 91
      501
 93
      420
310
425499585B1A5CDD1A58D08409028333333333333E3BF0000000000000FB01079019070040501508421405064090741402480A1B40
1001
ACAD
1000
AcDbSavedByObjectVersion
1070
     0
  0
ACAD_PROXY_OBJECT
  5
37
102
{ACAD_REACTORS
330
2A
102
}
330
2A
100
AcDbProxyObject
 90
      499
 91
      501
 93
      412
310
41D51A1A58DAD95B90D409028333333333333E3BF0000000000000FB010790141107004050150C41D405064090741402480A0350
1001
ACAD
1000
AcDbSavedByObjectVersion
1070
     0
  0
XRECORD
  5
1D0
102
{ACAD_REACTORS
330
1C7
102
}
330
1C7
100
AcDbXrecord
 90
        0
  0
XRECORD
  5
1E6
102
{ACAD_REACTORS
330
1C7
102
}
330
1C7
100
AcDbXrecord
1000
DSTYLE
1002
{
1070
   340
340
11
1002
}
  0
XRECORD
  5
1D1
102
{ACAD_REACTORS
330
1C7
102
}
330
1C7
100
AcDbXrecord
  1
{FC017048-4DC9-4E45-9836-B316959EC590}
  0
XRECORD
  5
1CA
102
{ACAD_REACTORS
330
1C7
102
}
330
1C7
100
AcDbXrecord
  1

  0
XRECORD
  5
1CF
102
{ACAD_REACTORS
330
1C7
102
}
330
1C7
100
AcDbXrecord
 90
        0
  0
XRECORD
  5
1CC
102
{ACAD_REACTORS
330
1C7
102
}
330
1C7
100
AcDbXrecord
340
1A
  0
XRECORD
  5
1CE
102
{ACAD_REACTORS
330
1C7
102
}
330
1C7
100
AcDbXrecord
 90
    10269
  0
XRECORD
  5
1CD
102
{ACAD_REACTORS
330
1C7
102
}
330
1C7
100
AcDbXrecord
340
19
  0
XRECORD
  5
1D3
102
{ACAD_REACTORS
330
1C7
102
}
330
1C7
100
AcDbXrecord
 40
0.0
  0
XRECORD
  5
1D6
102
{ACAD_REACTORS
330
1C7
102
}
330
1C7
100
AcDbXrecord
340
0
  0
XRECORD
  5
1DC
102
{ACAD_REACTORS
330
1C7
102
}
330
1C7
100
AcDbXrecord
 10
0.0
 20
0.0
 30
0.0
  0
XRECORD
  5
1D8
102
{ACAD_REACTORS
330
1C7
102
}
330
1C7
100
AcDbXrecord
 10
0.0
 20
0.0
 30
0.0
  0
XRECORD
  5
1DB
102
{ACAD_REACTORS
330
1C7
102
}
330
1C7
100
AcDbXrecord
 10
0.0
 20
0.0
 30
0.0
  0
XRECORD
  5
1D9
102
{ACAD_REACTORS
330
1C7
102
}
330
1C7
100
AcDbXrecord
 10
0.0
 20
0.0
 30
0.0
  0
XRECORD
  5
1DA
102
{ACAD_REACTORS
330
1C7
102
}
330
1C7
100
AcDbXrecord
 10
0.0
 20
0.0
 30
0.0
  0
XRECORD
  5
1D7
102
{ACAD_REACTORS
330
1C7
102
}
330
1C7
100
AcDbXrecord
 10
0.0
 20
0.0
 30
0.0
  0
XRECORD
  5
1D4
102
{ACAD_REACTORS
330
1C7
102
}
330
1C7
100
AcDbXrecord
340
0
  0
XRECORD
  5
1D5
102
{ACAD_REACTORS
330
1C7
102
}
330
1C7
100
AcDbXrecord
 70
     0
  0
XRECORD
  5
1CB
102
{ACAD_REACTORS
330
1C7
102
}
330
1C7
100
AcDbXrecord
  1

  0
XRECORD
  5
1C8
102
{ACAD_REACTORS
330
1C7
102
}
330
1C7
100
AcDbXrecord
 90
        1
  0
XRECORD
  5
1C9
102
{ACAD_REACTORS
330
1C7
102
}
330
1C7
100
AcDbXrecord
 90
       70
  0
XRECORD
  5
1DF
102
{ACAD_REACTORS
330
1C7
102
}
330
1C7
100
AcDbXrecord
340
0
  0
XRECORD
  5
1E5
102
{ACAD_REACTORS
330
1C7
102
}
330
1C7
100
AcDbXrecord
 10
0.0
 20
0.0
 30
0.0
  0
XRECORD
  5
1E1
102
{ACAD_REACTORS
330
1C7
102
}
330
1C7
100
AcDbXrecord
 10
0.0
 20
0.0
 30
0.0
  0
XRECORD
  5
1E4
102
{ACAD_REACTORS
330
1C7
102
}
330
1C7
100
AcDbXrecord
 10
0.0
 20
0.0
 30
0.0
  0
XRECORD
  5
1E2
102
{ACAD_REACTORS
330
1C7
102
}
330
1C7
100
AcDbXrecord
 10
0.0
 20
0.0
 30
0.0
  0
XRECORD
  5
1E3
102
{ACAD_REACTORS
330
1C7
102
}
330
1C7
100
AcDbXrecord
 10
0.0
 20
0.0
 30
0.0
  0
XRECORD
  5
1E0
102
{ACAD_REACTORS
330
1C7
102
}
330
1C7
100
AcDbXrecord
 10
0.0
 20
0.0
 30
0.0
  0
XRECORD
  5
1DD
102
{ACAD_REACTORS
330
1C7
102
}
330
1C7
100
AcDbXrecord
340
0
  0
XRECORD
  5
1DE
102
{ACAD_REACTORS
330
1C7
102
}
330
1C7
100
AcDbXrecord
 70
     0
  0
XRECORD
  5
1D2
102
{ACAD_REACTORS
330
1C7
102
}
330
1C7
100
AcDbXrecord
  1
{FAEB1C32-E019-11D5-929B-00C0DF256EC4}
  0
DICTIONARYVAR
  5
1EA
102
{ACAD_REACTORS
330
1E7
102
}
330
1E7
100
DictionaryVariables
280
     0
  1
2
  0
DICTIONARYVAR
  5
1EB
102
{ACAD_REACTORS
330
1E7
102
}
330
1E7
100
DictionaryVariables
280
     0
  1
1
  0
DICTIONARY
  5
1EE
330
3D
100
AcDbDictionary
280
     1
  3
ACAD_XREC_ROUNDTRIP
360
1EF
  0
DICTIONARY
  5
1EC
330
3C
100
AcDbDictionary
280
     1
  3
ACAD_XREC_ROUNDTRIP
360
1ED
  0
DICTIONARY
  5
1F0
330
3E
100
AcDbDictionary
280
     1
  3
ACAD_XREC_ROUNDTRIP
360
1F1
  0
XRECORD
  5
1EF
102
{ACAD_REACTORS
330
1EE
102
}
330
1EE
100
AcDbXrecord
102
MATERIAL
148
0.0
149
0.0
149
0.0
 93
        0
 94
      127
282
     0
 72
     1
 77
     1
171
     1
175
     1
179
     1
273
     0
  0
XRECORD
  5
1ED
102
{ACAD_REACTORS
330
1EC
102
}
330
1EC
100
AcDbXrecord
102
MATERIAL
148
0.0
149
0.0
149
0.0
 93
        0
 94
      127
282
     0
 72
     1
 77
     1
171
     1
175
     1
179
     1
273
     0
  0
XRECORD
  5
1F1
102
{ACAD_REACTORS
330
1F0
102
}
330
1F0
100
AcDbXrecord
102
MATERIAL
148
0.0
149
0.0
149
0.0
 93
        0
 94
      127
282
     0
 72
     1
 77
     1
171
     1
175
     1
179
     1
273
     0
  0
ENDSEC
  0
EOF
