  0
SECTION
  2
HEADER
  9
$ACADVER
  1
AC1024
  9
$ACADMAINTVER
 70
     6
  9
$DWGCODEPAGE
  3
ANSI_1252
  9
$INSBASE
 10
0.0
 20
0.0
 30
0.0
  9
$EXTMIN
 10
1.000000000000000E+20
 20
1.000000000000000E+20
 30
1.000000000000000E+20
  9
$EXTMAX
 10
-1.000000000000000E+20
 20
-1.000000000000000E+20
 30
-1.000000000000000E+20
  9
$LIMMIN
 10
0.0
 20
0.0
  9
$LIMMAX
 10
12.0
 20
9.0
  9
$ORTHOMODE
 70
     0
  9
$REGENMODE
 70
     1
  9
$FILLMODE
 70
     1
  9
$QTEXTMODE
 70
     0
  9
$MIRRTEXT
 70
     1
  9
$LTSCALE
 40
1.0
  9
$ATTMODE
 70
     1
  9
$TEXTSIZE
 40
0.2
  9
$TRACEWID
 40
0.05
  9
$TEXTSTYLE
  7
Standard
  9
$CLAYER
  8
0
  9
$CELTYPE
  6
ByLayer
  9
$CECOLOR
 62
   256
  9
$CELTSCALE
 40
1.0
  9
$DISPSILH
 70
     0
  9
$DIMSCALE
 40
1.0
  9
$DIMASZ
 40
0.18
  9
$DIMEXO
 40
0.0625
  9
$DIMDLI
 40
0.38
  9
$DIMRND
 40
0.0
  9
$DIMDLE
 40
0.0
  9
$DIMEXE
 40
0.18
  9
$DIMTP
 40
0.0
  9
$DIMTM
 40
0.0
  9
$DIMTXT
 40
0.18
  9
$DIMCEN
 40
0.09
  9
$DIMTSZ
 40
0.0
  9
$DIMTOL
 70
     0
  9
$DIMLIM
 70
     0
  9
$DIMTIH
 70
     1
  9
$DIMTOH
 70
     1
  9
$DIMSE1
 70
     0
  9
$DIMSE2
 70
     0
  9
$DIMTAD
 70
     0
  9
$DIMZIN
 70
     0
  9
$DIMBLK
  1

  9
$DIMASO
 70
     1
  9
$DIMSHO
 70
     1
  9
$DIMPOST
  1

  9
$DIMAPOST
  1

  9
$DIMALT
 70
     0
  9
$DIMALTD
 70
     2
  9
$DIMALTF
 40
25.4
  9
$DIMLFAC
 40
1.0
  9
$DIMTOFL
 70
     0
  9
$DIMTVP
 40
0.0
  9
$DIMTIX
 70
     0
  9
$DIMSOXD
 70
     0
  9
$DIMSAH
 70
     0
  9
$DIMBLK1
  1

  9
$DIMBLK2
  1

  9
$DIMSTYLE
  2
Standard
  9
$DIMCLRD
 70
     0
  9
$DIMCLRE
 70
     0
  9
$DIMCLRT
 70
     0
  9
$DIMTFAC
 40
1.0
  9
$DIMGAP
 40
0.09
  9
$DIMJUST
 70
     0
  9
$DIMSD1
 70
     0
  9
$DIMSD2
 70
     0
  9
$DIMTOLJ
 70
     1
  9
$DIMTZIN
 70
     0
  9
$DIMALTZ
 70
     0
  9
$DIMALTTZ
 70
     0
  9
$DIMUPT
 70
     0
  9
$DIMDEC
 70
     4
  9
$DIMTDEC
 70
     4
  9
$DIMALTU
 70
     2
  9
$DIMALTTD
 70
     2
  9
$DIMTXSTY
  7
Standard
  9
$DIMAUNIT
 70
     0
  9
$DIMADEC
 70
     0
  9
$DIMALTRND
 40
0.0
  9
$DIMAZIN
 70
     0
  9
$DIMDSEP
 70
    46
  9
$DIMATFIT
 70
     3
  9
$DIMFRAC
 70
     0
  9
$DIMLDRBLK
  1

  9
$DIMLUNIT
 70
     2
  9
$DIMLWD
 70
    -2
  9
$DIMLWE
 70
    -2
  9
$DIMTMOVE
 70
     0
  9
$DIMFXL
 40
1.0
  9
$DIMFXLON
 70
     0
  9
$DIMJOGANG
 40
0.7853981633974483
  9
$DIMTFILL
 70
     0
  9
$DIMTFILLCLR
 70
     0
  9
$DIMARCSYM
 70
     0
  9
$DIMLTYPE
  6

  9
$DIMLTEX1
  6

  9
$DIMLTEX2
  6

  9
$DIMTXTDIRECTION
 70
     0
  9
$LUNITS
 70
     2
  9
$LUPREC
 70
     4
  9
$SKETCHINC
 40
0.1
  9
$FILLETRAD
 40
0.5
  9
$AUNITS
 70
     0
  9
$AUPREC
 70
     0
  9
$MENU
  1
.
  9
$ELEVATION
 40
0.0
  9
$PELEVATION
 40
0.0
  9
$THICKNESS
 40
0.0
  9
$LIMCHECK
 70
     0
  9
$CHAMFERA
 40
0.5
  9
$CHAMFERB
 40
0.5
  9
$CHAMFERC
 40
1.0
  9
$CHAMFERD
 40
0.0
  9
$SKPOLY
 70
     0
  9
$TDCREATE
 40
2459192.94280147
  9
$TDUCREATE
 40
2459192.776134803
  9
$TDUPDATE
 40
2459192.942801516
  9
$TDUUPDATE
 40
2459192.77613485
  9
$TDINDWG
 40
0.0000000116
  9
$TDUSRTIMER
 40
0.0000000116
  9
$USRTIMER
 70
     1
  9
$ANGBASE
 50
0.0
  9
$ANGDIR
 70
     0
  9
$PDMODE
 70
     0
  9
$PDSIZE
 40
0.0
  9
$PLINEWID
 40
0.0
  9
$SPLFRAME
 70
     0
  9
$SPLINETYPE
 70
     6
  9
$SPLINESEGS
 70
     8
  9
$HANDSEED
  5
1F1
  9
$SURFTAB1
 70
     6
  9
$SURFTAB2
 70
     6
  9
$SURFTYPE
 70
     6
  9
$SURFU
 70
     6
  9
$SURFV
 70
     6
  9
$UCSBASE
  2

  9
$UCSNAME
  2

  9
$UCSORG
 10
0.0
 20
0.0
 30
0.0
  9
$UCSXDIR
 10
1.0
 20
0.0
 30
0.0
  9
$UCSYDIR
 10
0.0
 20
1.0
 30
0.0
  9
$UCSORTHOREF
  2

  9
$UCSORTHOVIEW
 70
     0
  9
$UCSORGTOP
 10
0.0
 20
0.0
 30
0.0
  9
$UCSORGBOTTOM
 10
0.0
 20
0.0
 30
0.0
  9
$UCSORGLEFT
 10
0.0
 20
0.0
 30
0.0
  9
$UCSORGRIGHT
 10
0.0
 20
0.0
 30
0.0
  9
$UCSORGFRONT
 10
0.0
 20
0.0
 30
0.0
  9
$UCSORGBACK
 10
0.0
 20
0.0
 30
0.0
  9
$PUCSBASE
  2

  9
$PUCSNAME
  2

  9
$PUCSORG
 10
0.0
 20
0.0
 30
0.0
  9
$PUCSXDIR
 10
1.0
 20
0.0
 30
0.0
  9
$PUCSYDIR
 10
0.0
 20
1.0
 30
0.0
  9
$PUCSORTHOREF
  2

  9
$PUCSORTHOVIEW
 70
     0
  9
$PUCSORGTOP
 10
0.0
 20
0.0
 30
0.0
  9
$PUCSORGBOTTOM
 10
0.0
 20
0.0
 30
0.0
  9
$PUCSORGLEFT
 10
0.0
 20
0.0
 30
0.0
  9
$PUCSORGRIGHT
 10
0.0
 20
0.0
 30
0.0
  9
$PUCSORGFRONT
 10
0.0
 20
0.0
 30
0.0
  9
$PUCSORGBACK
 10
0.0
 20
0.0
 30
0.0
  9
$USERI1
 70
     0
  9
$USERI2
 70
     0
  9
$USERI3
 70
     0
  9
$USERI4
 70
     0
  9
$USERI5
 70
     0
  9
$USERR1
 40
0.0
  9
$USERR2
 40
0.0
  9
$USERR3
 40
0.0
  9
$USERR4
 40
0.0
  9
$USERR5
 40
0.0
  9
$WORLDVIEW
 70
     1
  9
$SHADEDGE
 70
     3
  9
$SHADEDIF
 70
    70
  9
$TILEMODE
 70
     1
  9
$MAXACTVP
 70
    64
  9
$PINSBASE
 10
0.0
 20
0.0
 30
0.0
  9
$PLIMCHECK
 70
     0
  9
$PEXTMIN
 10
1.000000000000000E+20
 20
1.000000000000000E+20
 30
1.000000000000000E+20
  9
$PEXTMAX
 10
-1.000000000000000E+20
 20
-1.000000000000000E+20
 30
-1.000000000000000E+20
  9
$PLIMMIN
 10
0.0
 20
0.0
  9
$PLIMMAX
 10
12.0
 20
9.0
  9
$UNITMODE
 70
     0
  9
$VISRETAIN
 70
     1
  9
$PLINEGEN
 70
     0
  9
$PSLTSCALE
 70
     1
  9
$TREEDEPTH
 70
  3020
  9
$CMLSTYLE
  2
Standard
  9
$CMLJUST
 70
     0
  9
$CMLSCALE
 40
1.0
  9
$PROXYGRAPHICS
 70
     1
  9
$MEASUREMENT
 70
     0
  9
$CELWEIGHT
370
    -1
  9
$ENDCAPS
280
     0
  9
$JOINSTYLE
280
     0
  9
$LWDISPLAY
290
     1
  9
$INSUNITS
 70
     4
  9
$HYPERLINKBASE
  1

  9
$STYLESHEET
  1

  9
$XEDIT
290
     1
  9
$CEPSNTYPE
380
     0
  9
$PSTYLEMODE
290
     1
  9
$FINGERPRINTGUID
  2
{7C39FA13-2329-48C0-92DE-E7D99A7DF432}
  9
$VERSIONGUID
  2
{FAEB1C32-E019-11D5-929B-00C0DF256EC4}
  9
$EXTNAMES
290
     1
  9
$PSVPSCALE
 40
0.0
  9
$OLESTARTUP
290
     0
  9
$SORTENTS
280
   127
  9
$INDEXCTL
280
     0
  9
$HIDETEXT
280
     1
  9
$XCLIPFRAME
280
     2
  9
$HALOGAP
280
     0
  9
$OBSCOLOR
 70
   257
  9
$OBSLTYPE
280
     0
  9
$INTERSECTIONDISPLAY
280
     0
  9
$INTERSECTIONCOLOR
 70
   257
  9
$DIMASSOC
280
     2
  9
$PROJECTNAME
  1

  9
$CAMERADISPLAY
290
     0
  9
$LENSLENGTH
 40
50.0
  9
$CAMERAHEIGHT
 40
0.0
  9
$STEPSPERSEC
 40
2.0
  9
$STEPSIZE
 40
6.0
  9
$3DDWFPREC
 40
2.0
  9
$PSOLWIDTH
 40
0.25
  9
$PSOLHEIGHT
 40
4.0
  9
$LOFTANG1
 40
1.570796326794897
  9
$LOFTANG2
 40
1.570796326794897
  9
$LOFTMAG1
 40
0.0
  9
$LOFTMAG2
 40
0.0
  9
$LOFTPARAM
 70
     7
  9
$LOFTNORMALS
280
     1
  9
$LATITUDE
 40
37.795
  9
$LONGITUDE
 40
-122.394
  9
$NORTHDIRECTION
 40
0.0
  9
$TIMEZONE
 70
 -8000
  9
$LIGHTGLYPHDISPLAY
280
     1
  9
$TILEMODELIGHTSYNCH
280
     1
  9
$CMATERIAL
347
3C
  9
$SOLIDHIST
280
     1
  9
$SHOWHIST
280
     1
  9
$DWFFRAME
280
     2
  9
$DGNFRAME
280
     2
  9
$REALWORLDSCALE
290
     1
  9
$INTERFERECOLOR
 62
   256
  9
$CSHADOW
280
     0
  9
$SHADOWPLANELOCATION
 40
0.0
  0
ENDSEC
  0
SECTION
  2
CLASSES
  0
CLASS
  1
ACDBDICTIONARYWDFLT
  2
AcDbDictionaryWithDefault
  3
ObjectDBX Classes
 90
        0
 91
        4
280
     0
281
     0
  0
CLASS
  1
VISUALSTYLE
  2
AcDbVisualStyle
  3
ObjectDBX Classes
 90
     4095
 91
        4
280
     0
281
     0
  0
CLASS
  1
MATERIAL
  2
AcDbMaterial
  3
ObjectDBX Classes
 90
     1153
 91
        4
280
     0
281
     0
  0
CLASS
  1
SUN
  2
AcDbSun
  3
SCENEOE
 90
     1024
 91
        4
280
     0
281
     0
  0
ENDSEC
  0
SECTION
  2
TABLES
  0
TABLE
  2
VPORT
  5
8
330
0
100
AcDbSymbolTable
 70
     1
  0
VPORT
  5
29
330
8
100
AcDbSymbolTableRecord
100
AcDbViewportTableRecord
  2
*Active
 70
     0
 10
0.0
 20
0.0
 11
1.0
 21
1.0
 12
0.0
 22
0.0
 13
0.0
 23
0.0
 14
0.5
 24
0.5
 15
0.5
 25
0.5
 16
0.0
 26
0.0
 36
1.0
 17
16.31597221814323
 27
22.2073613747072
 37
0.0
 40
44.41472274941439
 41
0.7347100784664182
 42
50.0
 43
0.0
 44
0.0
 50
0.0
 51
0.0
 71
     0
 72
   100
 73
     1
 74
     3
 75
     0
 76
     0
 77
     0
 78
     0
281
     0
 65
     1
110
0.0
120
0.0
130
0.0
111
1.0
121
0.0
131
0.0
112
0.0
122
1.0
132
0.0
 79
     0
146
0.0
 60
     3
 61
     5
292
     1
282
     1
141
0.0
142
0.0
 63
   250
361
3F
  0
ENDTAB
  0
TABLE
  2
LTYPE
  5
5
330
0
100
AcDbSymbolTable
 70
     1
  0
LTYPE
  5
14
330
5
100
AcDbSymbolTableRecord
100
AcDbLinetypeTableRecord
  2
ByBlock
 70
     0
  3

 72
    65
 73
     0
 40
0.0
  0
LTYPE
  5
15
330
5
100
AcDbSymbolTableRecord
100
AcDbLinetypeTableRecord
  2
ByLayer
 70
     0
  3

 72
    65
 73
     0
 40
0.0
  0
LTYPE
  5
16
330
5
100
AcDbSymbolTableRecord
100
AcDbLinetypeTableRecord
  2
Continuous
 70
     0
  3
Solid line
 72
    65
 73
     0
 40
0.0
  0
ENDTAB
  0
TABLE
  2
LAYER
  5
2
330
0
100
AcDbSymbolTable
 70
     2
  0
LAYER
  5
10
330
2
100
AcDbSymbolTableRecord
100
AcDbLayerTableRecord
  2
0
 70
     0
 62
     7
  6
Continuous
370
    -3
390
F
347
3E
  0
LAYER
  5
40
330
2
100
AcDbSymbolTableRecord
100
AcDbLayerTableRecord
  2
Layer 1
 70
     0
 62
     7
  6
Continuous
370
    -3
390
F
347
3E
  0
ENDTAB
  0
TABLE
  2
STYLE
  5
3
330
0
100
AcDbSymbolTable
 70
     1
  0
STYLE
  5
11
330
3
100
AcDbSymbolTableRecord
100
AcDbTextStyleTableRecord
  2
Standard
 70
     0
 40
0.0
 41
1.0
 50
0.0
 71
     0
 42
0.2
  3
txt
  4

  0
ENDTAB
  0
TABLE
  2
VIEW
  5
6
330
0
100
AcDbSymbolTable
 70
     0
  0
ENDTAB
  0
TABLE
  2
UCS
  5
7
330
0
100
AcDbSymbolTable
 70
     0
  0
ENDTAB
  0
TABLE
  2
APPID
  5
9
330
0
100
AcDbSymbolTable
 70
     1
  0
APPID
  5
12
330
9
100
AcDbSymbolTableRecord
100
AcDbRegAppTableRecord
  2
ACAD
 70
     0
  0
ENDTAB
  0
TABLE
  2
DIMSTYLE
  5
A
330
0
100
AcDbSymbolTable
 70
     1
100
AcDbDimStyleTable
  0
DIMSTYLE
105
27
330
A
100
AcDbSymbolTableRecord
100
AcDbDimStyleTableRecord
  2
Standard
 70
     0
178
     0
340
11
  0
ENDTAB
  0
TABLE
  2
BLOCK_RECORD
  5
1
330
0
100
AcDbSymbolTable
 70
     4
  0
BLOCK_RECORD
  5
1F
330
1
100
AcDbSymbolTableRecord
100
AcDbBlockTableRecord
  2
*Model_Space
340
22
 70
     0
280
     1
281
     0
  0
BLOCK_RECORD
  5
1B
330
1
100
AcDbSymbolTableRecord
100
AcDbBlockTableRecord
  2
*Paper_Space
340
1E
 70
     0
280
     1
281
     0
  0
BLOCK_RECORD
  5
23
330
1
100
AcDbSymbolTableRecord
100
AcDbBlockTableRecord
  2
*Paper_Space0
340
26
 70
     0
280
     1
281
     0
  0
BLOCK_RECORD
  5
41
330
1
100
AcDbSymbolTableRecord
100
AcDbBlockTableRecord
  2
block 2
340
0
102
{BLKREFS
331
42
102
}
 70
     0
280
     1
281
     0
  0
BLOCK_RECORD
  5
45
330
1
100
AcDbSymbolTableRecord
100
AcDbBlockTableRecord
  2
block 3
340
0
102
{BLKREFS
331
46
102
}
 70
     0
280
     1
281
     0
  0
BLOCK_RECORD
  5
49
330
1
100
AcDbSymbolTableRecord
100
AcDbBlockTableRecord
  2
block 4
340
0
102
{BLKREFS
331
4A
102
}
 70
     0
280
     1
281
     0
  0
ENDTAB
  0
ENDSEC
  0
SECTION
  2
BLOCKS
  0
BLOCK
  5
20
330
1F
100
AcDbEntity
  8
0
100
AcDbBlockBegin
  2
*Model_Space
 70
     0
 10
0.0
 20
0.0
 30
0.0
  3
*Model_Space
  1

  0
ENDBLK
  5
21
330
1F
100
AcDbEntity
  8
0
100
AcDbBlockEnd
  0
BLOCK
  5
1C
330
1B
100
AcDbEntity
 67
     1
  8
0
100
AcDbBlockBegin
  2
*Paper_Space
 70
     0
 10
0.0
 20
0.0
 30
0.0
  3
*Paper_Space
  1

  0
ENDBLK
  5
1D
330
1B
100
AcDbEntity
 67
     1
  8
0
100
AcDbBlockEnd
  0
BLOCK
  5
24
330
23
100
AcDbEntity
  8
0
100
AcDbBlockBegin
  2
*Paper_Space0
 70
     0
 10
0.0
 20
0.0
 30
0.0
  3
*Paper_Space0
  1

  0
ENDBLK
  5
25
330
23
100
AcDbEntity
  8
0
100
AcDbBlockEnd
  0
BLOCK
  5
43
330
41
100
AcDbEntity
  8
0
100
AcDbBlockBegin
  2
block 2
 70
     0
 10
0.0
 20
0.0
 30
0.0
  3
block 2
  1

  0
ENDBLK
  5
44
330
41
100
AcDbEntity
  8
0
100
AcDbBlockEnd
  0
BLOCK
  5
47
330
45
100
AcDbEntity
  8
0
100
AcDbBlockBegin
  2
block 3
 70
     0
 10
0.0
 20
0.0
 30
0.0
  3
block 3
  1

  0
INSERT
  5
4A
330
45
100
AcDbEntity
  8
Layer 1
100
AcDbBlockReference
  2
block 4
 10
0.0
 20
0.0
 30
0.0
  0
ENDBLK
  5
48
330
45
100
AcDbEntity
  8
0
100
AcDbBlockEnd
  0
BLOCK
  5
4B
330
49
100
AcDbEntity
  8
0
100
AcDbBlockBegin
  2
block 4
 70
     0
 10
0.0
 20
0.0
 30
0.0
  3
block 4
  1

  0
SPLINE
  5
4D
330
49
100
AcDbEntity
  8
Layer 1
370
     0
100
AcDbSpline
210
0.0
220
0.0
230
1.0
 70
    11
 71
     3
 72
   119
 73
   115
 74
     0
 42
0.0000000001
 43
0.0000000001
 12
1.0
 22
0.0
 32
0.0
 13
1.0
 23
0.0
 33
0.0
 40
0.0
 40
0.0
 40
0.0
 40
0.0
 40
1.0
 40
1.0
 40
1.0
 40
2.0
 40
2.0
 40
2.0
 40
3.0
 40
3.0
 40
3.0
 40
4.0
 40
4.0
 40
4.0
 40
5.0
 40
5.0
 40
5.0
 40
6.0
 40
6.0
 40
6.0
 40
7.0
 40
7.0
 40
7.0
 40
8.0
 40
8.0
 40
8.0
 40
9.0
 40
9.0
 40
9.0
 40
10.0
 40
10.0
 40
10.0
 40
11.0
 40
11.0
 40
11.0
 40
12.0
 40
12.0
 40
12.0
 40
13.0
 40
13.0
 40
13.0
 40
14.0
 40
14.0
 40
14.0
 40
15.0
 40
15.0
 40
15.0
 40
16.0
 40
16.0
 40
16.0
 40
17.0
 40
17.0
 40
17.0
 40
18.0
 40
18.0
 40
18.0
 40
19.0
 40
19.0
 40
19.0
 40
20.0
 40
20.0
 40
20.0
 40
21.0
 40
21.0
 40
21.0
 40
22.0
 40
22.0
 40
22.0
 40
23.0
 40
23.0
 40
23.0
 40
24.0
 40
24.0
 40
24.0
 40
25.0
 40
25.0
 40
25.0
 40
26.0
 40
26.0
 40
26.0
 40
27.0
 40
27.0
 40
27.0
 40
28.0
 40
28.0
 40
28.0
 40
29.0
 40
29.0
 40
29.0
 40
30.0
 40
30.0
 40
30.0
 40
31.0
 40
31.0
 40
31.0
 40
32.0
 40
32.0
 40
32.0
 40
33.0
 40
33.0
 40
33.0
 40
34.0
 40
34.0
 40
34.0
 40
35.0
 40
35.0
 40
35.0
 40
36.0
 40
36.0
 40
36.0
 40
37.0
 40
37.0
 40
37.0
 40
38.0
 40
38.0
 40
38.0
 40
38.0
 10
25.50583440354922
 20
29.77443649819216
 30
0.0
 10
25.50583440354922
 20
29.77443649819216
 30
0.0
 10
25.78805770229322
 20
29.88026956235095
 30
0.0
 10
25.78805770229322
 20
29.88026956235095
 30
0.0
 10
25.78805770229322
 20
29.88026956235095
 30
0.0
 10
25.78805770229322
 20
29.88026956235095
 30
0.0
 10
25.78805770229322
 20
29.88026956235095
 30
0.0
 10
26.65812195005476
 20
30.27206708363226
 30
0.0
 10
27.44767323973368
 20
30.82236052908185
 30
0.0
 10
28.1163904967483
 20
31.50304680142687
 30
0.0
 10
29.63333601740585
 20
33.30221360221778
 30
0.0
 10
27.83416719800429
 20
35.31304653132629
 30
0.0
 10
27.83416719800429
 20
37.2180470691462
 30
0.0
 10
27.83416719800429
 20
39.12304760696613
 30
0.0
 10
28.68083440275547
 20
40.53415804485424
 30
0.0
 10
27.9752788473763
 20
42.19221386914337
 30
0.0
 10
27.55194659074114
 20
43.25054720221212
 30
0.0
 10
26.52889049714518
 20
43.74443612462105
 30
0.0
 10
25.36472275417721
 20
43.7797138687465
 30
0.0
 10
24.38224342584346
 20
43.81988850994828
 30
0.0
 10
23.41062422273079
 20
43.56161072754617
 30
0.0
 10
22.57777777213333
 20
43.03888090567699
 30
0.0
 10
21.83694497728138
 20
42.58026989561106
 30
0.0
 10
18.23861137569954
 20
38.91138080577833
 30
0.0
 10
18.16805555101354
 20
38.91138080577833
 30
0.0
 10
18.12870206379668
 20
39.1383850105776
 30
0.0
 10
18.00208134730951
 20
39.34097748408686
 30
0.0
 10
17.81527777332396
 20
39.47582538465571
 30
0.0
 10
17.66129411679711
 20
39.61624936067108
 30
0.0
 10
17.4591827454894
 20
39.69204112491148
 30
0.0
 10
17.2508338673168
 20
39.6874921858435
 30
0.0
 10
17.2508338673168
 20
39.6874921858435
 30
0.0
 10
16.22777777372083
 20
39.6874921858435
 30
0.0
 10
16.22777777372083
 20
39.6874921858435
 30
0.0
 10
16.0656335472633
 20
39.6788643075506
 30
0.0
 10
15.90811597638321
 20
39.63039712974781
 30
0.0
 10
15.76916693187246
 20
39.54638120934171
 30
0.0
 10
15.55750080355488
 20
39.44054780874781
 30
0.0
 10
15.34583332949687
 20
39.22888134399513
 30
0.0
 10
15.34583332949687
 20
39.08777003105823
 30
0.0
 10
14.22215891588484
 20
40.73136621092738
 30
0.0
 10
12.86770885993547
 20
42.20462681059611
 30
0.0
 10
11.32416612553946
 20
43.46221425572624
 30
0.0
 10
10.52584397264761
 20
44.0279764826962
 30
0.0
 10
9.584604859605056
 20
44.35802130347702
 30
0.0
 10
8.607777641051792
 20
44.41471427230987
 30
0.0
 10
7.40833333148125
 20
44.44999205060451
 30
0.0
 10
6.349999998412501
 20
44.02665870844045
 30
0.0
 10
5.856111244221126
 20
43.00360316155154
 30
0.0
 10
5.044722288248063
 20
41.41610316194841
 30
0.0
 10
5.750278180062335
 20
39.6522142735005
 30
0.0
 10
5.644444443033334
 20
38.02943636155437
 30
0.0
 10
5.538610706004332
 20
36.40665844960824
 30
0.0
 10
3.563055689238834
 20
34.25471454399796
 30
0.0
 10
4.938888887654167
 20
32.34971400617804
 30
0.0
 10
5.715000267719335
 20
31.46776956195408
 30
0.0
 10
6.526388887257292
 20
30.65638094241612
 30
0.0
 10
7.690555284484832
 20
30.30360316472654
 30
0.0
 10
7.690555284484832
 20
30.30360316472654
 30
0.0
 10
7.690555284484832
 20
30.30360316472654
 30
0.0
 10
7.690555284484832
 20
30.30360316472654
 30
0.0
 10
7.690555284484832
 20
30.30360316472654
 30
0.0
 10
7.796388348643623
 20
30.23304734004054
 30
0.0
 10
7.796388348643623
 20
30.23304734004054
 30
0.0
 10
0.0881395108777473
 20
25.54713208301635
 30
0.0
 10
-2.361945353023473
 20
15.49967528061692
 30
0.0
 10
2.323970408653372
 20
7.791427546778735
 30
0.0
 10
7.009886506765324
 20
0.0831771214597037
 30
0.0
 10
17.05734196342433
 20
-2.366904809147937
 30
0.0
 10
24.76559104300294
 20
2.319009102135826
 30
0.0
 10
26.23790104527972
 20
3.214039526242038
 30
0.0
 10
27.55932124826425
 20
4.336392422757783
 30
0.0
 10
28.68083440275547
 20
5.644438657409341
 30
0.0
 10
29.03361218044505
 20
6.067770914044502
 30
0.0
 10
29.38638995813463
 20
6.526383101633299
 30
0.0
 10
29.70389049635143
 20
6.984995289222097
 30
0.0
 10
29.70389049635143
 20
6.984995289222097
 30
0.0
 10
29.80972490625064
 20
7.126106938594099
 30
0.0
 10
29.80972490625064
 20
7.126106938594099
 30
0.0
 10
29.80972490625064
 20
7.126106938594099
 30
0.0
 10
29.80972490625064
 20
7.126106938594099
 30
0.0
 10
29.80972490625064
 20
7.126106938594099
 30
0.0
 10
29.80972490625064
 20
7.126106938594099
 30
0.0
 10
30.02139103456822
 20
7.408330237338105
 30
0.0
 10
30.02139103456822
 20
7.408330237338105
 30
0.0
 10
30.02139103456822
 20
7.408330237338105
 30
0.0
 10
30.16250268394023
 20
7.619996365655686
 30
0.0
 10
30.16250268394023
 20
7.619996365655686
 30
0.0
 10
30.16250268394023
 20
7.619996365655686
 30
0.0
 10
30.6916693504746
 20
8.537218049352433
 30
0.0
 10
30.6916693504746
 20
8.537218049352433
 30
0.0
 10
30.6916693504746
 20
8.537218049352433
 30
0.0
 10
30.6916693504746
 20
8.537218049352433
 30
0.0
 10
30.6916693504746
 20
8.537218049352433
 30
0.0
 10
30.6916693504746
 20
8.537218049352433
 30
0.0
 10
30.97389264921861
 20
9.066384715886809
 30
0.0
 10
30.97389264921861
 20
9.066384715886809
 30
0.0
 10
30.97389264921861
 20
9.066384715886809
 30
0.0
 10
31.11500429859061
 20
9.383885254103603
 30
0.0
 10
31.11500429859061
 20
9.383885254103603
 30
0.0
 10
31.31258321615054
 20
9.78605170535126
 30
0.0
 10
31.48920895530994
 20
10.19817663573597
 30
0.0
 10
31.64417096512498
 20
10.61860747601714
 30
0.0
 10
31.64417096512498
 20
10.65388471548993
 30
0.0
 10
31.67944820459777
 20
10.68916195496272
 30
0.0
 10
31.67944820459777
 20
10.75971912538915
 30
0.0
 10
31.67944820459777
 20
10.75971912538915
 30
0.0
 10
31.82055985396978
 20
11.11249690307873
 30
0.0
 10
31.82055985396978
 20
11.11249690307873
 30
0.0
 10
32.36096883600563
 20
12.77581053520414
 30
0.0
 10
32.63481624635111
 20
14.51415188744425
 30
0.0
 10
32.63194981924816
 20
16.26305191905048
 30
0.0
 10
32.65109432251892
 20
21.67161228909726
 30
0.0
 10
29.98016023945998
 20
26.73580306762316
 30
0.0
 10
25.50583440354922
 20
29.77443649819216
 30
0.0
  0
SPLINE
  5
4E
330
49
100
AcDbEntity
  8
Layer 1
370
     0
100
AcDbSpline
210
0.0
220
0.0
230
1.0
 70
    11
 71
     3
 72
   245
 73
   241
 74
     0
 42
0.0000000001
 43
0.0000000001
 12
1.0
 22
0.0
 32
0.0
 13
1.0
 23
0.0
 33
0.0
 40
0.0
 40
0.0
 40
0.0
 40
0.0
 40
1.0
 40
1.0
 40
1.0
 40
2.0
 40
2.0
 40
2.0
 40
3.0
 40
3.0
 40
3.0
 40
4.0
 40
4.0
 40
4.0
 40
5.0
 40
5.0
 40
5.0
 40
6.0
 40
6.0
 40
6.0
 40
7.0
 40
7.0
 40
7.0
 40
8.0
 40
8.0
 40
8.0
 40
9.0
 40
9.0
 40
9.0
 40
10.0
 40
10.0
 40
10.0
 40
11.0
 40
11.0
 40
11.0
 40
12.0
 40
12.0
 40
12.0
 40
13.0
 40
13.0
 40
13.0
 40
14.0
 40
14.0
 40
14.0
 40
15.0
 40
15.0
 40
15.0
 40
16.0
 40
16.0
 40
16.0
 40
17.0
 40
17.0
 40
17.0
 40
18.0
 40
18.0
 40
18.0
 40
19.0
 40
19.0
 40
19.0
 40
20.0
 40
20.0
 40
20.0
 40
21.0
 40
21.0
 40
21.0
 40
22.0
 40
22.0
 40
22.0
 40
23.0
 40
23.0
 40
23.0
 40
24.0
 40
24.0
 40
24.0
 40
25.0
 40
25.0
 40
25.0
 40
26.0
 40
26.0
 40
26.0
 40
27.0
 40
27.0
 40
27.0
 40
28.0
 40
28.0
 40
28.0
 40
29.0
 40
29.0
 40
29.0
 40
30.0
 40
30.0
 40
30.0
 40
31.0
 40
31.0
 40
31.0
 40
32.0
 40
32.0
 40
32.0
 40
33.0
 40
33.0
 40
33.0
 40
34.0
 40
34.0
 40
34.0
 40
35.0
 40
35.0
 40
35.0
 40
36.0
 40
36.0
 40
36.0
 40
37.0
 40
37.0
 40
37.0
 40
38.0
 40
38.0
 40
38.0
 40
39.0
 40
39.0
 40
39.0
 40
40.0
 40
40.0
 40
40.0
 40
41.0
 40
41.0
 40
41.0
 40
42.0
 40
42.0
 40
42.0
 40
43.0
 40
43.0
 40
43.0
 40
44.0
 40
44.0
 40
44.0
 40
45.0
 40
45.0
 40
45.0
 40
46.0
 40
46.0
 40
46.0
 40
47.0
 40
47.0
 40
47.0
 40
48.0
 40
48.0
 40
48.0
 40
49.0
 40
49.0
 40
49.0
 40
50.0
 40
50.0
 40
50.0
 40
51.0
 40
51.0
 40
51.0
 40
52.0
 40
52.0
 40
52.0
 40
53.0
 40
53.0
 40
53.0
 40
54.0
 40
54.0
 40
54.0
 40
55.0
 40
55.0
 40
55.0
 40
56.0
 40
56.0
 40
56.0
 40
57.0
 40
57.0
 40
57.0
 40
58.0
 40
58.0
 40
58.0
 40
59.0
 40
59.0
 40
59.0
 40
60.0
 40
60.0
 40
60.0
 40
61.0
 40
61.0
 40
61.0
 40
62.0
 40
62.0
 40
62.0
 40
63.0
 40
63.0
 40
63.0
 40
64.0
 40
64.0
 40
64.0
 40
65.0
 40
65.0
 40
65.0
 40
66.0
 40
66.0
 40
66.0
 40
67.0
 40
67.0
 40
67.0
 40
68.0
 40
68.0
 40
68.0
 40
69.0
 40
69.0
 40
69.0
 40
70.0
 40
70.0
 40
70.0
 40
71.0
 40
71.0
 40
71.0
 40
72.0
 40
72.0
 40
72.0
 40
73.0
 40
73.0
 40
73.0
 40
74.0
 40
74.0
 40
74.0
 40
75.0
 40
75.0
 40
75.0
 40
76.0
 40
76.0
 40
76.0
 40
77.0
 40
77.0
 40
77.0
 40
78.0
 40
78.0
 40
78.0
 40
79.0
 40
79.0
 40
79.0
 40
80.0
 40
80.0
 40
80.0
 40
80.0
 10
30.62111218004818
 20
16.29832646704242
 30
0.0
 10
30.62812617913767
 20
15.6487671707028
 30
0.0
 10
30.5809256795089
 20
14.99975693645615
 30
0.0
 10
30.48000053067617
 20
14.35804868974971
 30
0.0
 10
30.48000053067617
 20
14.35804868974971
 30
0.0
 10
27.16388888209792
 20
13.37026983562654
 30
0.0
 10
27.16388888209792
 20
13.37026983562654
 30
0.0
 10
26.89600848479211
 20
13.32420783239641
 30
0.0
 10
26.62336416638561
 20
13.31235455074247
 30
0.0
 10
26.35249891681954
 20
13.33499259615375
 30
0.0
 10
26.35249891681954
 20
13.33499259615375
 30
0.0
 10
25.61166612196758
 20
13.47610424552575
 30
0.0
 10
25.61166612196758
 20
13.47610424552575
 30
0.0
 10
25.61166612196758
 20
13.47610424552575
 30
0.0
 10
25.15305662585963
 20
13.72304761331612
 30
0.0
 10
25.15305662585963
 20
13.72304761331612
 30
0.0
 10
25.15305662585963
 20
13.72304761331612
 30
0.0
 10
24.87083332711563
 20
13.96999098110649
 30
0.0
 10
24.87083332711563
 20
13.96999098110649
 30
0.0
 10
24.77843209812804
 20
14.07685622817043
 30
0.0
 10
24.75140693893476
 20
14.22549594947388
 30
0.0
 10
24.80027884817005
 20
14.35804599826886
 30
0.0
 10
24.84343943504619
 20
14.50851054358715
 30
0.0
 10
24.92920078078213
 20
14.64327837260077
 30
0.0
 10
25.04722221596042
 20
14.74610101543123
 30
0.0
 10
25.04722221596042
 20
14.74610101543123
 30
0.0
 10
25.32944551470442
 20
14.92248990427603
 30
0.0
 10
25.32944551470442
 20
14.92248990427603
 30
0.0
 10
25.53400882506453
 20
14.69897049430451
 30
0.0
 10
25.77202724236342
 20
14.50855360728072
 30
0.0
 10
26.03500107008359
 20
14.35804599826886
 30
0.0
 10
26.33613740474545
 20
14.21565051253243
 30
0.0
 10
26.65739794170669
 20
14.12046090938647
 30
0.0
 10
26.98749999325313
 20
14.07582269952486
 30
0.0
 10
27.2872986619336
 20
13.99201267740361
 30
0.0
 10
27.60907865469848
 20
14.07245565698419
 30
0.0
 10
27.83416719800429
 20
14.28748882784244
 30
0.0
 10
27.96510235829057
 20
14.40451441510702
 30
0.0
 10
28.0417288180289
 20
14.57053841120673
 30
0.0
 10
28.04583332632188
 20
14.74610101543123
 30
0.0
 10
27.99035652308596
 20
14.96885873632281
 30
0.0
 10
27.88137308059476
 20
15.17471664897073
 30
0.0
 10
27.72833278810508
 20
15.34582216091119
 30
0.0
 10
27.47316156336283
 20
15.61642364535417
 30
0.0
 10
27.14039763725787
 20
15.80129339035054
 30
0.0
 10
26.77583386493555
 20
15.87498882744556
 30
0.0
 10
26.38348324434
 20
15.97484276690085
 30
0.0
 10
25.97393136964584
 20
15.98688983517583
 30
0.0
 10
25.57638888249479
 20
15.91026606691835
 30
0.0
 10
25.3549634446229
 20
15.85566399495799
 30
0.0
 10
25.14152632190743
 20
15.7726614170911
 30
0.0
 10
24.9413878060612
 20
15.66332269912798
 30
0.0
 10
24.9413878060612
 20
15.66332269912798
 30
0.0
 10
23.98888888289167
 20
15.66332269912798
 30
0.0
 10
23.98888888289167
 20
15.66332269912798
 30
0.0
 10
23.6008338657293
 20
15.69859993860077
 30
0.0
 10
23.38916773741171
 20
15.73387717807356
 30
0.0
 10
23.2833333275125
 20
15.83971158797277
 30
0.0
 10
23.17749891761329
 20
15.94554599787199
 30
0.0
 10
23.24805608803971
 20
15.98082323734478
 30
0.0
 10
23.35388780645808
 20
16.05137771629035
 30
0.0
 10
23.48814694559145
 20
16.15675188296458
 30
0.0
 10
23.64520561898697
 20
16.22924153663977
 30
0.0
 10
23.81249999404688
 20
16.26304384460794
 30
0.0
 10
23.81249999404688
 20
16.26304384460794
 30
0.0
 10
25.01194497648763
 20
16.61582162229752
 30
0.0
 10
25.01194497648763
 20
16.61582162229752
 30
0.0
 10
25.19160401456256
 20
16.68074283182854
 30
0.0
 10
25.35869114559718
 20
16.77622311490607
 30
0.0
 10
25.50583440354922
 20
16.89804492104152
 30
0.0
 10
25.61689297777411
 20
17.01498438091897
 30
0.0
 10
25.69058303190743
 20
17.16236718066647
 30
0.0
 10
25.7175005318668
 20
17.32137717767668
 30
0.0
 10
25.71484942323166
 20
17.50748231238222
 30
0.0
 10
25.63877202558629
 20
17.68499893170226
 30
0.0
 10
25.50583440354922
 20
17.81526660473827
 30
0.0
 10
25.45430331123625
 20
17.90257824344257
 30
0.0
 10
25.38147991393593
 20
17.97540164074289
 30
0.0
 10
25.29416827523163
 20
18.02693273305585
 30
0.0
 10
25.25889103575885
 20
18.09748721200143
 30
0.0
 10
25.15305662585963
 20
18.13276714295506
 30
0.0
 10
25.01194497648763
 20
18.20332162190064
 30
0.0
 10
25.01194497648763
 20
18.20332162190064
 30
0.0
 10
24.58861002837162
 20
18.30915872328071
 30
0.0
 10
24.58861002837162
 20
18.30915872328071
 30
0.0
 10
24.58861002837162
 20
18.30915872328071
 30
0.0
 10
27.05805447219871
 20
19.01471427865987
 30
0.0
 10
27.05805447219871
 20
19.01471427865987
 30
0.0
 10
27.05805447219871
 20
19.01471427865987
 30
0.0
 10
27.09333171167149
 20
19.01471427865987
 30
0.0
 10
27.09333171167149
 20
19.01471427865987
 30
0.0
 10
27.09333171167149
 20
19.01471427865987
 30
0.0
 10
26.59944228460991
 20
19.57915818466704
 30
0.0
 10
26.59944228460991
 20
19.57915818466704
 30
0.0
 10
26.59944228460991
 20
19.57915818466704
 30
0.0
 10
26.49360787471069
 20
19.57915818466704
 30
0.0
 10
26.49360787471069
 20
19.57915818466704
 30
0.0
 10
26.49360787471069
 20
19.57915818466704
 30
0.0
 10
22.64833225107891
 20
18.59138202202471
 30
0.0
 10
22.64833225107891
 20
18.59138202202471
 30
0.0
 10
22.64833225107891
 20
18.59138202202471
 30
0.0
 10
21.80166504632774
 20
18.52082754307913
 30
0.0
 10
21.80166504632774
 20
18.52082754307913
 30
0.0
 10
21.56180565612892
 20
18.54035961959199
 30
0.0
 10
21.32503070298173
 20
18.58771353362909
 30
0.0
 10
21.09610949094857
 20
18.66193919245114
 30
0.0
 10
21.09610949094857
 20
18.66193919245114
 30
0.0
 10
20.6374986491002
 20
18.87360532076872
 30
0.0
 10
20.6374986491002
 20
18.87360532076872
 30
0.0
 10
20.52799036784367
 20
18.93640564339163
 30
0.0
 10
20.43205657024328
 20
19.02034485659358
 30
0.0
 10
20.35527669609662
 20
19.12054868855909
 30
0.0
 10
20.26287412136861
 20
19.22741393562303
 30
0.0
 10
20.23584896217533
 20
19.37605096544562
 30
0.0
 10
20.28472087141062
 20
19.50860370572146
 30
0.0
 10
20.34269536887334
 20
19.66070736287609
 30
0.0
 10
20.4401014064975
 20
19.79464083282687
 30
0.0
 10
20.5669428244142
 20
19.89665872288383
 30
0.0
 10
20.81773231833615
 20
20.09341673878516
 30
0.0
 10
21.1057288434988
 20
20.23741634710691
 30
0.0
 10
21.41361002916537
 20
20.31999097951899
 30
0.0
 10
21.73209295789163
 20
20.42279747346437
 30
0.0
 10
22.06835446335838
 20
20.45882563609371
 30
0.0
 10
22.40138753754812
 20
20.4258253894182
 30
0.0
 10
22.62997366021572
 20
20.42337075888496
 30
0.0
 10
22.85204505349109
 20
20.34934696112651
 30
0.0
 10
23.03638726824128
 20
20.21415926110063
 30
0.0
 10
23.10694174718686
 20
20.10832485120141
 30
0.0
 10
23.10694174718686
 20
20.03777037225583
 30
0.0
 10
23.03638726824128
 20
19.96721589331025
 30
0.0
 10
22.96583278929571
 20
19.89666141436468
 30
0.0
 10
22.64833225107891
 20
19.72027252551988
 30
0.0
 10
22.26027588817612
 20
19.72027252551988
 30
0.0
 10
21.87221952527332
 20
19.72027252551988
 30
0.0
 10
22.22499864870333
 20
19.61443811562067
 30
0.0
 10
22.2955531276489
 20
19.50860639720231
 30
0.0
 10
22.41621625127936
 20
19.38701067545807
 30
0.0
 10
22.58311767013547
 20
19.32281616575597
 30
0.0
 10
22.75416396949728
 20
19.33221750835751
 30
0.0
 10
22.94131609025263
 20
19.31933338953885
 30
0.0
 10
23.12744544828579
 20
19.36896698785408
 30
0.0
 10
23.28333063603165
 20
19.47332915772952
 30
0.0
 10
23.60083117424845
 20
19.75555245647352
 30
0.0
 10
23.60083117424845
 20
20.10833023416311
 30
0.0
 10
23.24805339655886
 20
20.49638525132548
 30
0.0
 10
23.00103197582391
 20
20.77728165001149
 30
0.0
 10
22.66455111466806
 20
20.96421306933732
 30
0.0
 10
22.2955531276489
 20
21.02555191785985
 30
0.0
 10
21.89117024192304
 20
21.12497791186033
 30
0.0
 10
21.47023071176162
 20
21.13700344828853
 30
0.0
 10
21.06083090573536
 20
21.06082915733264
 30
0.0
 10
21.06083090573536
 20
21.06082915733264
 30
0.0
 10
20.46110841451499
 20
20.84916302901506
 30
0.0
 10
20.46110841451499
 20
20.84916302901506
 30
0.0
 10
20.13485383484056
 20
20.7941895326977
 30
0.0
 10
19.8040869875247
 20
20.77056371381526
 30
0.0
 10
19.47333090613224
 20
20.77860855006949
 30
0.0
 10
19.12055312844265
 20
20.77860855006949
 30
0.0
 10
18.94416423959786
 20
20.81388578954227
 30
0.0
 10
18.87360841491186
 20
20.8844429599687
 30
0.0
 10
18.80305259022586
 20
20.95500013039512
 30
0.0
 10
18.83833117543907
 20
21.0255546093407
 30
0.0
 10
18.90888565438465
 20
21.09610908828628
 30
0.0
 10
19.08730930275042
 20
21.23831617036336
 30
0.0
 10
19.29069509023958
 20
21.3459915531625
 30
0.0
 10
19.50860814560503
 20
21.41360962650307
 30
0.0
 10
19.50860814560503
 20
21.41360962650307
 30
0.0
 10
21.44888592289773
 20
22.01333211772345
 30
0.0
 10
21.44888592289773
 20
22.01333211772345
 30
0.0
 10
21.46836955275533
 20
22.01333211772345
 30
0.0
 10
21.48416316237052
 20
22.02912572733864
 30
0.0
 10
21.48416316237052
 20
22.04860935719624
 30
0.0
 10
21.48416316237052
 20
22.04860935719624
 30
0.0
 10
21.48416316237052
 20
22.04860935719624
 30
0.0
 10
21.48416316237052
 20
22.04860935719624
 30
0.0
 10
21.48416316237052
 20
22.04860935719624
 30
0.0
 10
20.99027373530894
 20
22.6130532632034
 30
0.0
 10
20.99027373530894
 20
22.6130532632034
 30
0.0
 10
20.95499649583615
 20
22.64833050267619
 30
0.0
 10
20.91971791062294
 20
22.6836090878894
 30
0.0
 10
20.88444067115015
 20
22.64833050267619
 30
0.0
 10
20.88444067115015
 20
22.64833050267619
 30
0.0
 10
20.74332902177814
 20
22.64833050267619
 30
0.0
 10
20.74332902177814
 20
22.64833050267619
 30
0.0
 10
20.88759104948256
 20
22.91920517242523
 30
0.0
 10
20.82946044613066
 20
23.25345479595821
 30
0.0
 10
20.60221737240614
 20
23.45971912221415
 30
0.0
 10
20.4114492471317
 20
23.67196930187571
 30
0.0
 10
20.16808151164771
 20
23.83015839722733
 30
0.0
 10
19.89666181702697
 20
23.91832996406252
 30
0.0
 10
19.59920069946286
 20
24.00569139516251
 30
0.0
 10
19.28897927119908
 20
24.04148539895808
 30
0.0
 10
18.97944013333023
 20
24.02416302822131
 30
0.0
 10
18.68986370890989
 20
23.98721707062285
 30
0.0
 10
18.40566890044483
 20
23.9161687049417
 30
0.0
 10
18.13277292857906
 20
23.81249689990373
 30
0.0
 10
17.63018059819595
 20
23.74217792553234
 30
0.0
 10
17.12331554196687
 20
23.70681590441285
 30
0.0
 10
16.61582875366193
 20
23.70666383574494
 30
0.0
 10
16.08666208712756
 20
23.70666383574494
 30
0.0
 10
15.73388430943798
 20
23.77721966043094
 30
0.0
 10
15.62805124527919
 20
23.91832996406252
 30
0.0
 10
15.56960170144682
 20
23.969878551001
 30
0.0
 10
15.56400611276414
 20
24.05905000297116
 30
0.0
 10
15.61555469970261
 20
24.11749954680353
 30
0.0
 10
15.61945465545115
 20
24.12192164983655
 30
0.0
 10
15.62362914224617
 20
24.12609613663156
 30
0.0
 10
15.62805124527919
 20
24.1299960923801
 30
0.0
 10
15.69671361318872
 20
24.23748710874117
 30
0.0
 10
15.79461892051017
 20
24.32315425264743
 30
0.0
 10
15.91027319828277
 20
24.37694080591089
 30
0.0
 10
15.91027319828277
 20
24.37694080591089
 30
0.0
 10
16.33360680065835
 20
24.62388551944169
 30
0.0
 10
16.33360680065835
 20
24.62388551944169
 30
0.0
 10
16.33360680065835
 20
24.62388551944169
 30
0.0
 10
16.82749622771994
 20
24.90610747244527
 30
0.0
 10
16.82749622771994
 20
24.90610747244527
 30
0.0
 10
16.82749622771994
 20
24.90610747244527
 30
0.0
 10
17.21555124488231
 20
25.18832942544885
 30
0.0
 10
17.21555124488231
 20
25.18832942544885
 30
0.0
 10
17.47170216865318
 20
25.35647969141837
 30
0.0
 10
17.59790301412809
 20
25.66497184323741
 30
0.0
 10
17.5330517830991
 20
25.96444080551402
 30
0.0
 10
17.9547718427064
 20
25.60721535572336
 30
0.0
 10
18.46798744799599
 20
25.37504687204727
 30
0.0
 10
19.01471871854344
 20
25.29416248960764
 30
0.0
 10
19.51386326196046
 20
25.218452479098
 30
0.0
 10
20.02030844717727
 20
25.37427980000563
 30
0.0
 10
20.39055528130983
 20
25.71749205476195
 30
0.0
 10
20.86613860138476
 20
26.12763201802137
 30
0.0
 10
21.09344627064963
 20
26.75607260988832
 30
0.0
 10
20.99027777253021
 20
27.37554787905108
 30
0.0
 10
20.89800169740205
 20
28.13102367545577
 30
0.0
 10
20.56387588198807
 20
28.83640024735856
 30
0.0
 10
20.03777750362025
 20
29.38638148102979
 30
0.0
 10
19.72119879759384
 20
29.74193282973308
 30
0.0
 10
19.36626245226428
 20
30.06137392564118
 30
0.0
 10
18.9794441705515
 20
30.33888174993975
 30
0.0
 10
25.73112480791862
 20
29.06656492354342
 30
0.0
 10
30.6211983074353
 20
23.1688427125443
 30
0.0
 10
30.62111218004818
 20
16.29832646704242
 30
0.0
  0
POLYLINE
  5
4F
330
49
100
AcDbEntity
  8
Layer 1
370
     0
100
AcDb2dPolyline
 66
     1
 10
0.0
 20
0.0
 30
0.0
  0
VERTEX
  5
50
330
4F
100
AcDbEntity
  8
Layer 1
370
     0
100
AcDbVertex
100
AcDb2dVertex
 10
24.20055501120925
 20
9.31332539219633
 30
0.0
  0
VERTEX
  5
51
330
4F
100
AcDbEntity
  8
Layer 1
370
     0
100
AcDbVertex
100
AcDb2dVertex
 10
23.35388780645808
 20
9.31332539219633
 30
0.0
  0
VERTEX
  5
52
330
4F
100
AcDbEntity
  8
Layer 1
370
     0
100
AcDbVertex
100
AcDb2dVertex
 10
22.85999837939649
 20
8.784158725661955
 30
0.0
  0
VERTEX
  5
53
330
4F
100
AcDbEntity
  8
Layer 1
370
     0
100
AcDbVertex
100
AcDb2dVertex
 10
22.61305501160612
 20
9.52499152051391
 30
0.0
  0
VERTEX
  5
54
330
4F
100
AcDbEntity
  8
Layer 1
370
     0
100
AcDbVertex
100
AcDb2dVertex
 10
21.87222221675417
 20
9.877769298203493
 30
0.0
  0
VERTEX
  5
55
330
4F
100
AcDbEntity
  8
Layer 1
370
     0
100
AcDbVertex
100
AcDb2dVertex
 10
22.57777777213333
 20
10.26582431536587
 30
0.0
  0
VERTEX
  5
56
330
4F
100
AcDbEntity
  8
Layer 1
370
     0
100
AcDbVertex
100
AcDb2dVertex
 10
22.64833225107891
 20
11.00665711021782
 30
0.0
  0
VERTEX
  5
57
330
4F
100
AcDbEntity
  8
Layer 1
370
     0
100
AcDbVertex
100
AcDb2dVertex
 10
23.2833333275125
 20
10.58332485358266
 30
0.0
  0
VERTEX
  5
58
330
4F
100
AcDbEntity
  8
Layer 1
370
     0
100
AcDbVertex
100
AcDb2dVertex
 10
24.02416612236446
 20
10.79499098190024
 30
0.0
  0
VERTEX
  5
59
330
4F
100
AcDbEntity
  8
Layer 1
370
     0
100
AcDbVertex
100
AcDb2dVertex
 10
23.77722275457409
 20
9.94832377714907
 30
0.0
  0
VERTEX
  5
5A
330
4F
100
AcDbEntity
  8
Layer 1
370
     0
100
AcDbVertex
100
AcDb2dVertex
 10
24.20055501120925
 20
9.31332539219633
 30
0.0
  0
SEQEND
  5
5B
330
4F
100
AcDbEntity
  8
Layer 1
370
     0
  0
SPLINE
  5
5C
330
49
100
AcDbEntity
  8
Layer 1
370
     0
100
AcDbSpline
210
0.0
220
0.0
230
1.0
 70
    11
 71
     3
 72
    62
 73
    58
 74
     0
 42
0.0000000001
 43
0.0000000001
 12
1.0
 22
0.0
 32
0.0
 13
1.0
 23
0.0
 33
0.0
 40
0.0
 40
0.0
 40
0.0
 40
0.0
 40
1.0
 40
1.0
 40
1.0
 40
2.0
 40
2.0
 40
2.0
 40
3.0
 40
3.0
 40
3.0
 40
4.0
 40
4.0
 40
4.0
 40
5.0
 40
5.0
 40
5.0
 40
6.0
 40
6.0
 40
6.0
 40
7.0
 40
7.0
 40
7.0
 40
8.0
 40
8.0
 40
8.0
 40
9.0
 40
9.0
 40
9.0
 40
10.0
 40
10.0
 40
10.0
 40
11.0
 40
11.0
 40
11.0
 40
12.0
 40
12.0
 40
12.0
 40
13.0
 40
13.0
 40
13.0
 40
14.0
 40
14.0
 40
14.0
 40
15.0
 40
15.0
 40
15.0
 40
16.0
 40
16.0
 40
16.0
 40
17.0
 40
17.0
 40
17.0
 40
18.0
 40
18.0
 40
18.0
 40
19.0
 40
19.0
 40
19.0
 40
19.0
 10
23.49499945583008
 20
12.06499313476742
 30
0.0
 10
23.49499945583008
 20
12.06499313476742
 30
0.0
 10
21.66055474269616
 20
13.54665872447133
 30
0.0
 10
21.66055474269616
 20
13.54665872447133
 30
0.0
 10
21.66055474269616
 20
13.54665872447133
 30
0.0
 10
22.08388834507175
 20
14.04054815153292
 30
0.0
 10
22.08388834507175
 20
14.04054815153292
 30
0.0
 10
22.08388834507175
 20
14.04054815153292
 30
0.0
 10
23.17749891761329
 20
13.96999367258734
 30
0.0
 10
23.17749891761329
 20
13.96999367258734
 30
0.0
 10
23.17749891761329
 20
13.96999367258734
 30
0.0
 10
22.61305501160612
 20
14.95777252671051
 30
0.0
 10
22.61305501160612
 20
14.95777252671051
 30
0.0
 10
22.61305501160612
 20
14.95777252671051
 30
0.0
 10
22.85999837939649
 20
15.5927736031441
 30
0.0
 10
22.85999837939649
 20
15.5927736031441
 30
0.0
 10
22.85999837939649
 20
15.5927736031441
 30
0.0
 10
23.00111002876849
 20
15.48693919324489
 30
0.0
 10
23.00111002876849
 20
15.48693919324489
 30
0.0
 10
23.00111002876849
 20
15.48693919324489
 30
0.0
 10
23.38916504593087
 20
15.2752730649273
 30
0.0
 10
23.38916504593087
 20
15.2752730649273
 30
0.0
 10
23.63285710485703
 20
15.2257417428843
 30
0.0
 10
23.88270188900139
 20
15.21384270605594
 30
0.0
 10
24.12999784078282
 20
15.23999582545452
 30
0.0
 10
24.12999784078282
 20
15.23999582545452
 30
0.0
 10
24.37694120857319
 20
15.23999582545452
 30
0.0
 10
24.37694120857319
 20
15.23999582545452
 30
0.0
 10
24.20343489571645
 20
15.069528194475
 30
0.0
 10
24.09171152572214
 20
14.84608145448637
 30
0.0
 10
24.0594406703564
 20
14.60499474902093
 30
0.0
 10
24.00061297346491
 20
14.29294715100188
 30
0.0
 10
24.10737325277578
 20
13.9726690045501
 30
0.0
 10
24.3416639691004
 20
13.75832754426976
 30
0.0
 10
24.3416639691004
 20
13.75832754426976
 30
0.0
 10
24.58860733689077
 20
13.47610424552575
 30
0.0
 10
24.58860733689077
 20
13.47610424552575
 30
0.0
 10
24.58860733689077
 20
13.47610424552575
 30
0.0
 10
24.97666235405314
 20
13.22916087773538
 30
0.0
 10
24.97666235405314
 20
13.22916087773538
 30
0.0
 10
25.14665090144175
 20
13.14355025492693
 30
0.0
 10
25.32369382013256
 20
13.0727347023391
 30
0.0
 10
25.50582902058752
 20
13.0174947494178
 30
0.0
 10
25.50582902058752
 20
13.0174947494178
 30
0.0
 10
26.24666181543947
 20
12.94694027047223
 30
0.0
 10
26.24666181543947
 20
12.94694027047223
 30
0.0
 10
26.24666181543947
 20
12.94694027047223
 30
0.0
 10
26.21138457596669
 20
12.94694027047223
 30
0.0
 10
26.21138457596669
 20
12.94694027047223
 30
0.0
 10
26.10893874045492
 20
12.85168876326676
 30
0.0
 10
26.0355528236574
 20
12.72937979909785
 30
0.0
 10
25.99971844764911
 20
12.59416249278264
 30
0.0
 10
25.99971844764911
 20
12.59416249278264
 30
0.0
 10
25.99971844764911
 20
12.66471697172822
 30
0.0
 10
25.99971844764911
 20
12.66471697172822
 30
0.0
 10
25.99971844764911
 20
12.66471697172822
 30
0.0
 10
23.49499945583008
 20
12.06499313476742
 30
0.0
 10
23.49499945583008
 20
12.06499313476742
 30
0.0
  0
POLYLINE
  5
5D
330
49
100
AcDbEntity
  8
Layer 1
370
     0
100
AcDb2dPolyline
 66
     1
 10
0.0
 20
0.0
 30
0.0
  0
VERTEX
  5
5E
330
5D
100
AcDbEntity
  8
Layer 1
370
     0
100
AcDbVertex
100
AcDb2dVertex
 10
20.28472221715104
 20
9.172216434305174
 30
0.0
  0
VERTEX
  5
5F
330
5D
100
AcDbEntity
  8
Layer 1
370
     0
100
AcDbVertex
100
AcDb2dVertex
 10
19.57916666177188
 20
8.925273066514805
 30
0.0
  0
VERTEX
  5
60
330
5D
100
AcDbEntity
  8
Layer 1
370
     0
100
AcDbVertex
100
AcDb2dVertex
 10
18.59138915338913
 20
9.736663031793187
 30
0.0
  0
VERTEX
  5
61
330
5D
100
AcDbEntity
  8
Layer 1
370
     0
100
AcDbVertex
100
AcDb2dVertex
 10
18.45027750401712
 20
8.431386330934068
 30
0.0
  0
VERTEX
  5
62
330
5D
100
AcDbEntity
  8
Layer 1
370
     0
100
AcDbVertex
100
AcDb2dVertex
 10
17.74472194863796
 20
8.078608553244484
 30
0.0
  0
VERTEX
  5
63
330
5D
100
AcDbEntity
  8
Layer 1
370
     0
100
AcDbVertex
100
AcDb2dVertex
 10
18.94416693107871
 20
11.74749797951232
 30
0.0
  0
VERTEX
  5
64
330
5D
100
AcDbEntity
  8
Layer 1
370
     0
100
AcDbVertex
100
AcDb2dVertex
 10
18.13277831154075
 20
11.57110909066753
 30
0.0
  0
VERTEX
  5
65
330
5D
100
AcDbEntity
  8
Layer 1
370
     0
100
AcDbVertex
100
AcDb2dVertex
 10
18.83833386691992
 20
12.4177762954187
 30
0.0
  0
VERTEX
  5
66
330
5D
100
AcDbEntity
  8
Layer 1
370
     0
100
AcDbVertex
100
AcDb2dVertex
 10
21.41361137490579
 20
12.20611016710112
 30
0.0
  0
VERTEX
  5
67
330
5D
100
AcDbEntity
  8
Layer 1
370
     0
100
AcDbVertex
100
AcDb2dVertex
 10
21.27249972553379
 20
11.00666518466037
 30
0.0
  0
VERTEX
  5
68
330
5D
100
AcDbEntity
  8
Layer 1
370
     0
100
AcDbVertex
100
AcDb2dVertex
 10
19.22638888408229
 20
9.666108552847609
 30
0.0
  0
VERTEX
  5
69
330
5D
100
AcDbEntity
  8
Layer 1
370
     0
100
AcDbVertex
100
AcDb2dVertex
 10
20.28472221715104
 20
9.172216434305174
 30
0.0
  0
SEQEND
  5
6A
330
5D
100
AcDbEntity
  8
Layer 1
370
     0
  0
POLYLINE
  5
6B
330
49
100
AcDbEntity
  8
Layer 1
370
     0
100
AcDb2dPolyline
 66
     1
 10
0.0
 20
0.0
 30
0.0
  0
VERTEX
  5
6C
330
6B
100
AcDbEntity
  8
Layer 1
370
     0
100
AcDbVertex
100
AcDb2dVertex
 10
18.7324994570207
 20
7.902216972918844
 30
0.0
  0
VERTEX
  5
6D
330
6B
100
AcDbEntity
  8
Layer 1
370
     0
100
AcDbVertex
100
AcDb2dVertex
 10
19.08527723471029
 20
8.149160340709214
 30
0.0
  0
VERTEX
  5
6E
330
6B
100
AcDbEntity
  8
Layer 1
370
     0
100
AcDbVertex
100
AcDb2dVertex
 10
19.08527723471029
 20
8.501938118398796
 30
0.0
  0
VERTEX
  5
6F
330
6B
100
AcDbEntity
  8
Layer 1
370
     0
100
AcDbVertex
100
AcDb2dVertex
 10
19.40277777292708
 20
8.254994750608427
 30
0.0
  0
VERTEX
  5
70
330
6B
100
AcDbEntity
  8
Layer 1
370
     0
100
AcDbVertex
100
AcDb2dVertex
 10
19.79083279008946
 20
8.360829160507642
 30
0.0
  0
VERTEX
  5
71
330
6B
100
AcDbEntity
  8
Layer 1
370
     0
100
AcDbVertex
100
AcDb2dVertex
 10
19.68499972593067
 20
7.93749690387248
 30
0.0
  0
VERTEX
  5
72
330
6B
100
AcDbEntity
  8
Layer 1
370
     0
100
AcDbVertex
100
AcDb2dVertex
 10
19.89666585424825
 20
7.619996365655686
 30
0.0
  0
VERTEX
  5
73
330
6B
100
AcDbEntity
  8
Layer 1
370
     0
100
AcDbVertex
100
AcDb2dVertex
 10
19.50861083708588
 20
7.619996365655686
 30
0.0
  0
VERTEX
  5
74
330
6B
100
AcDbEntity
  8
Layer 1
370
     0
100
AcDbVertex
100
AcDb2dVertex
 10
19.22638888408229
 20
7.33777306691168
 30
0.0
  0
VERTEX
  5
75
330
6B
100
AcDbEntity
  8
Layer 1
370
     0
100
AcDbVertex
100
AcDb2dVertex
 10
19.1205558199235
 20
7.761105323546841
 30
0.0
  0
VERTEX
  5
76
330
6B
100
AcDbEntity
  8
Layer 1
370
     0
100
AcDbVertex
100
AcDb2dVertex
 10
18.7324994570207
 20
7.902216972918844
 30
0.0
  0
SEQEND
  5
77
330
6B
100
AcDbEntity
  8
Layer 1
370
     0
  0
POLYLINE
  5
78
330
49
100
AcDbEntity
  8
Layer 1
370
     0
100
AcDb2dPolyline
 66
     1
 10
0.0
 20
0.0
 30
0.0
  0
VERTEX
  5
79
330
78
100
AcDbEntity
  8
Layer 1
370
     0
100
AcDbVertex
100
AcDb2dVertex
 10
18.9088883458655
 20
6.173605323943716
 30
0.0
  0
VERTEX
  5
7A
330
78
100
AcDbEntity
  8
Layer 1
370
     0
100
AcDbVertex
100
AcDb2dVertex
 10
18.02694390164154
 20
7.58471643470205
 30
0.0
  0
VERTEX
  5
7B
330
78
100
AcDbEntity
  8
Layer 1
370
     0
100
AcDbVertex
100
AcDb2dVertex
 10
18.62666639286192
 20
7.302493135958043
 30
0.0
  0
VERTEX
  5
7C
330
78
100
AcDbEntity
  8
Layer 1
370
     0
100
AcDbVertex
100
AcDb2dVertex
 10
18.9088883458655
 20
6.173605323943716
 30
0.0
  0
SEQEND
  5
7D
330
78
100
AcDbEntity
  8
Layer 1
370
     0
  0
POLYLINE
  5
7E
330
49
100
AcDbEntity
  8
Layer 1
370
     0
100
AcDb2dPolyline
 66
     1
 10
0.0
 20
0.0
 30
0.0
  0
VERTEX
  5
7F
330
7E
100
AcDbEntity
  8
Layer 1
370
     0
100
AcDbVertex
100
AcDb2dVertex
 10
16.40416666256563
 20
6.914438118795672
 30
0.0
  0
VERTEX
  5
80
330
7E
100
AcDbEntity
  8
Layer 1
370
     0
100
AcDbVertex
100
AcDb2dVertex
 10
15.16944444065208
 20
6.914438118795672
 30
0.0
  0
VERTEX
  5
81
330
7E
100
AcDbEntity
  8
Layer 1
370
     0
100
AcDbVertex
100
AcDb2dVertex
 10
14.42861164580013
 20
6.138328084470927
 30
0.0
  0
VERTEX
  5
82
330
7E
100
AcDbEntity
  8
Layer 1
370
     0
100
AcDbVertex
100
AcDb2dVertex
 10
14.04055662863776
 20
7.267215896485255
 30
0.0
  0
VERTEX
  5
83
330
7E
100
AcDbEntity
  8
Layer 1
370
     0
100
AcDbVertex
100
AcDb2dVertex
 10
12.98222329556901
 20
7.761105323546841
 30
0.0
  0
VERTEX
  5
84
330
7E
100
AcDbEntity
  8
Layer 1
370
     0
100
AcDbVertex
100
AcDb2dVertex
 10
14.00527938916497
 20
8.39610639998043
 30
0.0
  0
VERTEX
  5
85
330
7E
100
AcDbEntity
  8
Layer 1
370
     0
100
AcDbVertex
100
AcDb2dVertex
 10
14.11111245332376
 20
9.45443973304918
 30
0.0
  0
VERTEX
  5
86
330
7E
100
AcDbEntity
  8
Layer 1
370
     0
100
AcDbVertex
100
AcDb2dVertex
 10
15.06361272223372
 20
8.748884177670014
 30
0.0
  0
VERTEX
  5
87
330
7E
100
AcDbEntity
  8
Layer 1
370
     0
100
AcDbVertex
100
AcDb2dVertex
 10
16.15722329477526
 20
9.066384715886809
 30
0.0
  0
VERTEX
  5
88
330
7E
100
AcDbEntity
  8
Layer 1
370
     0
100
AcDbVertex
100
AcDb2dVertex
 10
15.80444551708567
 20
7.831662493973266
 30
0.0
  0
VERTEX
  5
89
330
7E
100
AcDbEntity
  8
Layer 1
370
     0
100
AcDbVertex
100
AcDb2dVertex
 10
16.40416666256563
 20
6.914438118795672
 30
0.0
  0
SEQEND
  5
8A
330
7E
100
AcDbEntity
  8
Layer 1
370
     0
  0
POLYLINE
  5
8B
330
49
100
AcDbEntity
  8
Layer 1
370
     0
100
AcDb2dPolyline
 66
     1
 10
0.0
 20
0.0
 30
0.0
  0
VERTEX
  5
8C
330
8B
100
AcDbEntity
  8
Layer 1
370
     0
100
AcDbVertex
100
AcDb2dVertex
 10
15.34583332949687
 20
10.79499367338109
 30
0.0
  0
VERTEX
  5
8D
330
8B
100
AcDbEntity
  8
Layer 1
370
     0
100
AcDbVertex
100
AcDb2dVertex
 10
12.45305528329421
 20
13.26443811720817
 30
0.0
  0
VERTEX
  5
8E
330
8B
100
AcDbEntity
  8
Layer 1
370
     0
100
AcDbVertex
100
AcDb2dVertex
 10
12.34722221913542
 20
12.17082485318578
 30
0.0
  0
VERTEX
  5
8F
330
8B
100
AcDbEntity
  8
Layer 1
370
     0
100
AcDbVertex
100
AcDb2dVertex
 10
12.02972168091862
 20
12.59415710982095
 30
0.0
  0
VERTEX
  5
90
330
8B
100
AcDbEntity
  8
Layer 1
370
     0
100
AcDbVertex
100
AcDb2dVertex
 10
12.45305528329421
 20
13.89943381068007
 30
0.0
  0
VERTEX
  5
91
330
8B
100
AcDbEntity
  8
Layer 1
370
     0
100
AcDbVertex
100
AcDb2dVertex
 10
11.74749972791504
 20
13.82887933173449
 30
0.0
  0
VERTEX
  5
92
330
8B
100
AcDbEntity
  8
Layer 1
370
     0
100
AcDbVertex
100
AcDb2dVertex
 10
12.66472141161179
 20
15.02832431417524
 30
0.0
  0
VERTEX
  5
93
330
8B
100
AcDbEntity
  8
Layer 1
370
     0
100
AcDbVertex
100
AcDb2dVertex
 10
14.39333306058692
 20
14.85193542533045
 30
0.0
  0
VERTEX
  5
94
330
8B
100
AcDbEntity
  8
Layer 1
370
     0
100
AcDbVertex
100
AcDb2dVertex
 10
13.37027696699096
 20
14.18165710942407
 30
0.0
  0
VERTEX
  5
95
330
8B
100
AcDbEntity
  8
Layer 1
370
     0
100
AcDbVertex
100
AcDb2dVertex
 10
16.15722194903483
 20
13.05276929740974
 30
0.0
  0
VERTEX
  5
96
330
8B
100
AcDbEntity
  8
Layer 1
370
     0
100
AcDbVertex
100
AcDb2dVertex
 10
16.61583279088321
 20
11.14776875958982
 30
0.0
  0
VERTEX
  5
97
330
8B
100
AcDbEntity
  8
Layer 1
370
     0
100
AcDbVertex
100
AcDb2dVertex
 10
15.34583332949687
 20
10.79499367338109
 30
0.0
  0
SEQEND
  5
98
330
8B
100
AcDbEntity
  8
Layer 1
370
     0
  0
POLYLINE
  5
99
330
49
100
AcDbEntity
  8
Layer 1
370
     0
100
AcDb2dPolyline
 66
     1
 10
0.0
 20
0.0
 30
0.0
  0
VERTEX
  5
9A
330
99
100
AcDbEntity
  8
Layer 1
370
     0
100
AcDbVertex
100
AcDb2dVertex
 10
10.6186112430305
 20
10.51277037463708
 30
0.0
  0
VERTEX
  5
9B
330
99
100
AcDbEntity
  8
Layer 1
370
     0
100
AcDbVertex
100
AcDb2dVertex
 10
11.39472195022546
 20
11.50054922876025
 30
0.0
  0
VERTEX
  5
9C
330
99
100
AcDbEntity
  8
Layer 1
370
     0
100
AcDbVertex
100
AcDb2dVertex
 10
12.34722221913542
 20
11.42999474981468
 30
0.0
  0
VERTEX
  5
9D
330
99
100
AcDbEntity
  8
Layer 1
370
     0
100
AcDbVertex
100
AcDb2dVertex
 10
12.24138915497663
 20
9.45443973304918
 30
0.0
  0
VERTEX
  5
9E
330
99
100
AcDbEntity
  8
Layer 1
370
     0
100
AcDbVertex
100
AcDb2dVertex
 10
11.78277831312825
 20
9.172216434305174
 30
0.0
  0
VERTEX
  5
9F
330
99
100
AcDbEntity
  8
Layer 1
370
     0
100
AcDbVertex
100
AcDb2dVertex
 10
11.39472329596588
 20
9.736660340312339
 30
0.0
  0
VERTEX
  5
A0
330
99
100
AcDbEntity
  8
Layer 1
370
     0
100
AcDbVertex
100
AcDb2dVertex
 10
11.74750107365547
 20
10.72443919443551
 30
0.0
  0
VERTEX
  5
A1
330
99
100
AcDbEntity
  8
Layer 1
370
     0
100
AcDbVertex
100
AcDb2dVertex
 10
10.6186112430305
 20
10.51277037463708
 30
0.0
  0
SEQEND
  5
A2
330
99
100
AcDbEntity
  8
Layer 1
370
     0
  0
SPLINE
  5
A3
330
49
100
AcDbEntity
  8
Layer 1
370
     0
100
AcDbSpline
210
0.0
220
0.0
230
1.0
 70
    11
 71
     3
 72
    89
 73
    85
 74
     0
 42
0.0000000001
 43
0.0000000001
 12
1.0
 22
0.0
 32
0.0
 13
1.0
 23
0.0
 33
0.0
 40
0.0
 40
0.0
 40
0.0
 40
0.0
 40
1.0
 40
1.0
 40
1.0
 40
2.0
 40
2.0
 40
2.0
 40
3.0
 40
3.0
 40
3.0
 40
4.0
 40
4.0
 40
4.0
 40
5.0
 40
5.0
 40
5.0
 40
6.0
 40
6.0
 40
6.0
 40
7.0
 40
7.0
 40
7.0
 40
8.0
 40
8.0
 40
8.0
 40
9.0
 40
9.0
 40
9.0
 40
10.0
 40
10.0
 40
10.0
 40
11.0
 40
11.0
 40
11.0
 40
12.0
 40
12.0
 40
12.0
 40
13.0
 40
13.0
 40
13.0
 40
14.0
 40
14.0
 40
14.0
 40
15.0
 40
15.0
 40
15.0
 40
16.0
 40
16.0
 40
16.0
 40
17.0
 40
17.0
 40
17.0
 40
18.0
 40
18.0
 40
18.0
 40
19.0
 40
19.0
 40
19.0
 40
20.0
 40
20.0
 40
20.0
 40
21.0
 40
21.0
 40
21.0
 40
22.0
 40
22.0
 40
22.0
 40
23.0
 40
23.0
 40
23.0
 40
24.0
 40
24.0
 40
24.0
 40
25.0
 40
25.0
 40
25.0
 40
26.0
 40
26.0
 40
26.0
 40
27.0
 40
27.0
 40
27.0
 40
28.0
 40
28.0
 40
28.0
 40
28.0
 10
8.643055553394792
 20
12.98221481846417
 30
0.0
 10
8.643055553394792
 20
12.98221481846417
 30
0.0
 10
9.560277909961751
 20
13.22915818625454
 30
0.0
 10
9.560277909961751
 20
13.22915818625454
 30
0.0
 10
9.560277909961751
 20
13.22915818625454
 30
0.0
 10
9.207500132272168
 20
13.54665872447133
 30
0.0
 10
9.207500132272168
 20
13.54665872447133
 30
0.0
 10
9.207500132272168
 20
13.54665872447133
 30
0.0
 10
8.32555568804821
 20
13.29971535668096
 30
0.0
 10
8.32555568804821
 20
13.29971535668096
 30
0.0
 10
8.32555568804821
 20
13.29971535668096
 30
0.0
 10
7.937499998015626
 20
13.68777037384333
 30
0.0
 10
7.937499998015626
 20
13.68777037384333
 30
0.0
 10
7.937499998015626
 20
13.68777037384333
 30
0.0
 10
9.48972208527575
 20
14.11110263047849
 30
0.0
 10
9.48972208527575
 20
14.11110263047849
 30
0.0
 10
9.48972208527575
 20
14.11110263047849
 30
0.0
 10
9.172222219929168
 20
14.42860316869529
 30
0.0
 10
9.172222219929168
 20
14.42860316869529
 30
0.0
 10
9.172222219929168
 20
14.42860316869529
 30
0.0
 10
7.831666933856835
 20
14.0758253910057
 30
0.0
 10
7.831666933856835
 20
14.0758253910057
 30
0.0
 10
7.831666933856835
 20
14.0758253910057
 30
0.0
 10
8.043333735044628
 20
14.92249259575688
 30
0.0
 10
8.043333735044628
 20
14.92249259575688
 30
0.0
 10
8.043333735044628
 20
14.92249259575688
 30
0.0
 10
7.584722893196254
 20
14.81665818585766
 30
0.0
 10
7.584722893196254
 20
14.81665818585766
 30
0.0
 10
7.584722893196254
 20
14.81665818585766
 30
0.0
 10
7.514167068510252
 20
14.53443488711365
 30
0.0
 10
7.478889829037464
 20
14.32276875879607
 30
0.0
 10
7.478889829037464
 20
14.32276875879607
 30
0.0
 10
7.196667876033882
 20
14.64026929701287
 30
0.0
 10
7.196667876033882
 20
14.64026929701287
 30
0.0
 10
7.196667876033882
 20
14.64026929701287
 30
0.0
 10
7.373056764878673
 20
15.34582485239203
 30
0.0
 10
7.373056764878673
 20
15.34582485239203
 30
0.0
 10
7.444316411806388
 20
15.57771745928122
 30
0.0
 10
7.503195919704198
 20
15.81323549087246
 30
0.0
 10
7.549445653723465
 20
16.0513804077712
 30
0.0
 10
7.549445653723465
 20
16.0513804077712
 30
0.0
 10
7.97277925609905
 20
16.19249205714321
 30
0.0
 10
7.97277925609905
 20
16.19249205714321
 30
0.0
 10
7.902223431413049
 20
15.98082592882562
 30
0.0
 10
7.831668279597259
 20
15.69860263008162
 30
0.0
 10
7.831668279597259
 20
15.69860263008162
 30
0.0
 10
7.831668279597259
 20
15.69860263008162
 30
0.0
 10
8.149168144943841
 20
15.38110209186482
 30
0.0
 10
8.149168144943841
 20
15.38110209186482
 30
0.0
 10
8.149168144943841
 20
15.38110209186482
 30
0.0
 10
8.396112858474634
 20
16.22776929661599
 30
0.0
 10
8.396112858474634
 20
16.22776929661599
 30
0.0
 10
8.396112858474634
 20
16.22776929661599
 30
0.0
 10
9.383890366857383
 20
15.23999044249282
 30
0.0
 10
9.383890366857383
 20
15.23999044249282
 30
0.0
 10
9.383890366857383
 20
15.23999044249282
 30
0.0
 10
9.842501208705757
 20
15.38110209186482
 30
0.0
 10
9.842501208705757
 20
15.38110209186482
 30
0.0
 10
9.842501208705757
 20
15.38110209186482
 30
0.0
 10
8.9605567644818
 20
16.22776929661599
 30
0.0
 10
8.9605567644818
 20
16.22776929661599
 30
0.0
 10
8.9605567644818
 20
16.22776929661599
 30
0.0
 10
10.72444565292971
 20
15.41637933133761
 30
0.0
 10
10.72444565292971
 20
15.41637933133761
 30
0.0
 10
10.72444565292971
 20
15.41637933133761
 30
0.0
 10
11.18305649477809
 20
13.61721320341691
 30
0.0
 10
11.18305649477809
 20
13.61721320341691
 30
0.0
 10
11.18305649477809
 20
13.61721320341691
 30
0.0
 10
10.05416733702334
 20
14.53443488711365
 30
0.0
 10
10.05416733702334
 20
14.53443488711365
 30
0.0
 10
10.05416733702334
 20
14.53443488711365
 30
0.0
 10
10.05416733702334
 20
13.08804653688253
 30
0.0
 10
10.05416733702334
 20
13.08804653688253
 30
0.0
 10
10.05416733702334
 20
13.08804653688253
 30
0.0
 10
8.925278179268586
 20
12.41776822097615
 30
0.0
 10
8.925278179268586
 20
12.41776822097615
 30
0.0
 10
8.925278179268586
 20
12.41776822097615
 30
0.0
 10
8.960556091611586
 20
12.41776822097615
 30
0.0
 10
8.960556091611586
 20
12.41776822097615
 30
0.0
 10
8.960556091611586
 20
12.41776822097615
 30
0.0
 10
9.101667068113377
 20
12.55887987034816
 30
0.0
 10
9.101667068113377
 20
12.55887987034816
 30
0.0
 10
9.101667068113377
 20
12.55887987034816
 30
0.0
 10
8.643055553394792
 20
12.98221481846417
 30
0.0
 10
8.643055553394792
 20
12.98221481846417
 30
0.0
  0
SPLINE
  5
A4
330
49
100
AcDbEntity
  8
Layer 1
370
     0
100
AcDbSpline
210
0.0
220
0.0
230
1.0
 70
    11
 71
     3
 72
    20
 73
    16
 74
     0
 42
0.0000000001
 43
0.0000000001
 12
1.0
 22
0.0
 32
0.0
 13
1.0
 23
0.0
 33
0.0
 40
0.0
 40
0.0
 40
0.0
 40
0.0
 40
1.0
 40
1.0
 40
1.0
 40
2.0
 40
2.0
 40
2.0
 40
3.0
 40
3.0
 40
3.0
 40
4.0
 40
4.0
 40
4.0
 40
5.0
 40
5.0
 40
5.0
 40
5.0
 10
6.914444577289876
 20
14.64026929701287
 30
0.0
 10
6.596944711943293
 20
14.95776983522966
 30
0.0
 10
6.3147220860695
 20
15.27527037344646
 30
0.0
 10
5.997222220722917
 20
15.55749098070962
 30
0.0
 10
6.03684754750541
 20
15.64678893227963
 30
0.0
 10
6.060718291145004
 20
15.74227459831886
 30
0.0
 10
6.067778045408918
 20
15.83971427945362
 30
0.0
 10
6.067778045408918
 20
15.83971427945362
 30
0.0
 10
7.33777817966546
 20
16.19249205714321
 30
0.0
 10
7.33777817966546
 20
16.19249205714321
 30
0.0
 10
7.33777817966546
 20
16.19249205714321
 30
0.0
 10
6.667500536629295
 20
15.52221374123683
 30
0.0
 10
6.667500536629295
 20
15.52221374123683
 30
0.0
 10
6.667500536629295
 20
15.52221374123683
 30
0.0
 10
6.914444577289876
 20
14.64026929701287
 30
0.0
 10
6.914444577289876
 20
14.64026929701287
 30
0.0
  0
SPLINE
  5
A5
330
49
100
AcDbEntity
  8
Layer 1
370
     0
100
AcDbSpline
210
0.0
220
0.0
230
1.0
 70
    11
 71
     3
 72
    20
 73
    16
 74
     0
 42
0.0000000001
 43
0.0000000001
 12
1.0
 22
0.0
 32
0.0
 13
1.0
 23
0.0
 33
0.0
 40
0.0
 40
0.0
 40
0.0
 40
0.0
 40
1.0
 40
1.0
 40
1.0
 40
2.0
 40
2.0
 40
2.0
 40
3.0
 40
3.0
 40
3.0
 40
4.0
 40
4.0
 40
4.0
 40
5.0
 40
5.0
 40
5.0
 40
5.0
 10
4.021666867522314
 20
17.03915926189437
 30
0.0
 10
4.344788563489846
 20
16.75130807669751
 30
0.0
 10
4.651037702457304
 20
16.44505792842473
 30
0.0
 10
4.938888887654167
 20
16.12193757819763
 30
0.0
 10
4.894993190071452
 20
16.0341630047875
 30
0.0
 10
4.870907464399135
 20
15.93781875635781
 30
0.0
 10
4.868333399403271
 20
15.83971427945362
 30
0.0
 10
4.868333399403271
 20
15.83971427945362
 30
0.0
 10
3.63361117748973
 20
15.52221374123683
 30
0.0
 10
3.63361117748973
 20
15.52221374123683
 30
0.0
 10
3.63361117748973
 20
15.52221374123683
 30
0.0
 10
4.268611244618001
 20
16.15721481767041
 30
0.0
 10
4.268611244618001
 20
16.15721481767041
 30
0.0
 10
4.268611244618001
 20
16.15721481767041
 30
0.0
 10
4.021666867522314
 20
17.03915926189437
 30
0.0
 10
4.021666867522314
 20
17.03915926189437
 30
0.0
  0
POLYLINE
  5
A6
330
49
100
AcDbEntity
  8
Layer 1
370
     0
100
AcDb2dPolyline
 66
     1
 10
0.0
 20
0.0
 30
0.0
  0
VERTEX
  5
A7
330
A6
100
AcDbEntity
  8
Layer 1
370
     0
100
AcDbVertex
100
AcDb2dVertex
 10
6.420555823098502
 20
18.1680470739087
 30
0.0
  0
VERTEX
  5
A8
330
A6
100
AcDbEntity
  8
Layer 1
370
     0
100
AcDbVertex
100
AcDb2dVertex
 10
6.773333600788085
 20
17.81526929621912
 30
0.0
  0
VERTEX
  5
A9
330
A6
100
AcDbEntity
  8
Layer 1
370
     0
100
AcDbVertex
100
AcDb2dVertex
 10
7.231944442636459
 20
17.95638094559112
 30
0.0
  0
VERTEX
  5
AA
330
A6
100
AcDbEntity
  8
Layer 1
370
     0
100
AcDbVertex
100
AcDb2dVertex
 10
6.596944711943293
 20
18.55610209107108
 30
0.0
  0
VERTEX
  5
AB
330
A6
100
AcDbEntity
  8
Layer 1
370
     0
100
AcDbVertex
100
AcDb2dVertex
 10
7.937499998015626
 20
18.94415710823345
 30
0.0
  0
VERTEX
  5
AC
330
A6
100
AcDbEntity
  8
Layer 1
370
     0
100
AcDbVertex
100
AcDb2dVertex
 10
8.043333062174415
 20
19.29693488592303
 30
0.0
  0
VERTEX
  5
AD
330
A6
100
AcDbEntity
  8
Layer 1
370
     0
100
AcDbVertex
100
AcDb2dVertex
 10
8.67833279286758
 20
18.97943434770623
 30
0.0
  0
VERTEX
  5
AE
330
A6
100
AcDbEntity
  8
Layer 1
370
     0
100
AcDbVertex
100
AcDb2dVertex
 10
8.854721681712373
 20
18.41499044169907
 30
0.0
  0
VERTEX
  5
AF
330
A6
100
AcDbEntity
  8
Layer 1
370
     0
100
AcDbVertex
100
AcDb2dVertex
 10
8.53722181636579
 20
18.34443596275349
 30
0.0
  0
VERTEX
  5
B0
330
A6
100
AcDbEntity
  8
Layer 1
370
     0
100
AcDbVertex
100
AcDb2dVertex
 10
8.184444038676206
 20
17.00387933094074
 30
0.0
  0
VERTEX
  5
B1
330
A6
100
AcDbEntity
  8
Layer 1
370
     0
100
AcDbVertex
100
AcDb2dVertex
 10
7.549444307983041
 20
17.63888040737433
 30
0.0
  0
VERTEX
  5
B2
330
A6
100
AcDbEntity
  8
Layer 1
370
     0
100
AcDbVertex
100
AcDb2dVertex
 10
7.443611243824251
 20
17.18026821978553
 30
0.0
  0
VERTEX
  5
B3
330
A6
100
AcDbEntity
  8
Layer 1
370
     0
100
AcDbVertex
100
AcDb2dVertex
 10
7.796389021513835
 20
16.82749044209595
 30
0.0
  0
VERTEX
  5
B4
330
A6
100
AcDbEntity
  8
Layer 1
370
     0
100
AcDbVertex
100
AcDb2dVertex
 10
7.373055419138249
 20
16.72165603219673
 30
0.0
  0
VERTEX
  5
B5
330
A6
100
AcDbEntity
  8
Layer 1
370
     0
100
AcDbVertex
100
AcDb2dVertex
 10
6.843888752603875
 20
17.25082539021195
 30
0.0
  0
VERTEX
  5
B6
330
A6
100
AcDbEntity
  8
Layer 1
370
     0
100
AcDbVertex
100
AcDb2dVertex
 10
6.3147220860695
 20
17.77999205674633
 30
0.0
  0
VERTEX
  5
B7
330
A6
100
AcDbEntity
  8
Layer 1
370
     0
100
AcDbVertex
100
AcDb2dVertex
 10
6.420555823098502
 20
18.1680470739087
 30
0.0
  0
SEQEND
  5
B8
330
A6
100
AcDbEntity
  8
Layer 1
370
     0
  0
SPLINE
  5
B9
330
49
100
AcDbEntity
  8
Layer 1
370
     0
100
AcDbSpline
210
0.0
220
0.0
230
1.0
 70
    11
 71
     3
 72
    20
 73
    16
 74
     0
 42
0.0000000001
 43
0.0000000001
 12
1.0
 22
0.0
 32
0.0
 13
1.0
 23
0.0
 33
0.0
 40
0.0
 40
0.0
 40
0.0
 40
0.0
 40
1.0
 40
1.0
 40
1.0
 40
2.0
 40
2.0
 40
2.0
 40
3.0
 40
3.0
 40
3.0
 40
4.0
 40
4.0
 40
4.0
 40
5.0
 40
5.0
 40
5.0
 40
5.0
 10
6.420555823098502
 20
19.79082431298461
 30
0.0
 10
6.420555823098502
 20
19.86137879193019
 30
0.0
 10
6.491111647784503
 20
19.89665872288383
 30
0.0
 10
6.526388887257292
 20
19.86137879193019
 30
0.0
 10
6.58483910395987
 20
19.86137879193019
 30
0.0
 10
6.632221951416082
 20
19.81399527160377
 30
0.0
 10
6.632221951416082
 20
19.75554438203098
 30
0.0
 10
6.632221951416082
 20
19.75554438203098
 30
0.0
 10
6.632221951416082
 20
19.75554438203098
 30
0.0
 10
6.632221951416082
 20
19.75554438203098
 30
0.0
 10
6.607467729188181
 20
19.69759141641504
 30
0.0
 10
6.553676465833234
 20
19.6572488099866
 30
0.0
 10
6.491110974914291
 20
19.64970997213177
 30
0.0
 10
6.420555823098502
 20
19.68499259456625
 30
0.0
 10
6.385277910755501
 20
19.72026983403904
 30
0.0
 10
6.420555823098502
 20
19.79082431298461
 30
0.0
  0
POLYLINE
  5
BA
330
49
100
AcDbEntity
  8
Layer 1
370
     0
100
AcDb2dPolyline
 66
     1
 10
0.0
 20
0.0
 30
0.0
  0
VERTEX
  5
BB
330
BA
100
AcDbEntity
  8
Layer 1
370
     0
100
AcDbVertex
100
AcDb2dVertex
 10
9.807222623492544
 20
19.26165764645024
 30
0.0
  0
VERTEX
  5
BC
330
BA
100
AcDbEntity
  8
Layer 1
370
     0
100
AcDbVertex
100
AcDb2dVertex
 10
9.45444484580296
 20
19.26165764645024
 30
0.0
  0
VERTEX
  5
BD
330
BA
100
AcDbEntity
  8
Layer 1
370
     0
100
AcDbVertex
100
AcDb2dVertex
 10
9.242778044615168
 20
19.04999151813266
 30
0.0
  0
VERTEX
  5
BE
330
BA
100
AcDbEntity
  8
Layer 1
370
     0
100
AcDbVertex
100
AcDb2dVertex
 10
9.136944980456379
 20
19.36749205634946
 30
0.0
  0
VERTEX
  5
BF
330
BA
100
AcDbEntity
  8
Layer 1
370
     0
100
AcDbVertex
100
AcDb2dVertex
 10
8.819445115109795
 20
19.50860370572146
 30
0.0
  0
VERTEX
  5
C0
330
BA
100
AcDbEntity
  8
Layer 1
370
     0
100
AcDbVertex
100
AcDb2dVertex
 10
9.101667068113377
 20
19.68499259456625
 30
0.0
  0
VERTEX
  5
C1
330
BA
100
AcDbEntity
  8
Layer 1
370
     0
100
AcDbVertex
100
AcDb2dVertex
 10
9.101667068113377
 20
20.00249313278304
 30
0.0
  0
VERTEX
  5
C2
330
BA
100
AcDbEntity
  8
Layer 1
370
     0
100
AcDbVertex
100
AcDb2dVertex
 10
9.383889021116959
 20
19.79082700446546
 30
0.0
  0
VERTEX
  5
C3
330
BA
100
AcDbEntity
  8
Layer 1
370
     0
100
AcDbVertex
100
AcDb2dVertex
 10
9.701388886463542
 20
19.89666141436468
 30
0.0
  0
VERTEX
  5
C4
330
BA
100
AcDbEntity
  8
Layer 1
370
     0
100
AcDbVertex
100
AcDb2dVertex
 10
9.595555822304751
 20
19.54388363667509
 30
0.0
  0
VERTEX
  5
C5
330
BA
100
AcDbEntity
  8
Layer 1
370
     0
100
AcDbVertex
100
AcDb2dVertex
 10
9.807222623492544
 20
19.26165764645024
 30
0.0
  0
SEQEND
  5
C6
330
BA
100
AcDbEntity
  8
Layer 1
370
     0
  0
POLYLINE
  5
C7
330
49
100
AcDbEntity
  8
Layer 1
370
     0
100
AcDb2dPolyline
 66
     1
 10
0.0
 20
0.0
 30
0.0
  0
VERTEX
  5
C8
330
C7
100
AcDbEntity
  8
Layer 1
370
     0
100
AcDbVertex
100
AcDb2dVertex
 10
10.12472248883913
 20
27.44610235799666
 30
0.0
  0
VERTEX
  5
C9
330
C7
100
AcDbEntity
  8
Layer 1
370
     0
100
AcDbVertex
100
AcDb2dVertex
 10
9.52499999761875
 20
27.44610235799666
 30
0.0
  0
VERTEX
  5
CA
330
C7
100
AcDbEntity
  8
Layer 1
370
     0
100
AcDbVertex
100
AcDb2dVertex
 10
9.172222219929168
 20
27.05804734083429
 30
0.0
  0
VERTEX
  5
CB
330
C7
100
AcDbEntity
  8
Layer 1
370
     0
100
AcDbVertex
100
AcDb2dVertex
 10
8.995833331084375
 20
27.58721400736866
 30
0.0
  0
VERTEX
  5
CC
330
C7
100
AcDbEntity
  8
Layer 1
370
     0
100
AcDbVertex
100
AcDb2dVertex
 10
8.46666666455
 20
27.86943596037224
 30
0.0
  0
VERTEX
  5
CD
330
C7
100
AcDbEntity
  8
Layer 1
370
     0
100
AcDbVertex
100
AcDb2dVertex
 10
8.960555418741375
 20
28.18693649858904
 30
0.0
  0
VERTEX
  5
CE
330
C7
100
AcDbEntity
  8
Layer 1
370
     0
100
AcDbVertex
100
AcDb2dVertex
 10
9.031111243427375
 20
28.61027010096462
 30
0.0
  0
VERTEX
  5
CF
330
C7
100
AcDbEntity
  8
Layer 1
370
     0
100
AcDbVertex
100
AcDb2dVertex
 10
9.101667068113377
 20
28.61027010096462
 30
0.0
  0
VERTEX
  5
D0
330
C7
100
AcDbEntity
  8
Layer 1
370
     0
100
AcDbVertex
100
AcDb2dVertex
 10
9.489722758145962
 20
28.32804814796104
 30
0.0
  0
VERTEX
  5
D1
330
C7
100
AcDbEntity
  8
Layer 1
370
     0
100
AcDbVertex
100
AcDb2dVertex
 10
10.01888942468034
 20
28.46915979733305
 30
0.0
  0
VERTEX
  5
D2
330
C7
100
AcDbEntity
  8
Layer 1
370
     0
100
AcDbVertex
100
AcDb2dVertex
 10
9.842500535835544
 20
27.86943730611267
 30
0.0
  0
VERTEX
  5
D3
330
C7
100
AcDbEntity
  8
Layer 1
370
     0
100
AcDbVertex
100
AcDb2dVertex
 10
10.12472248883913
 20
27.44610235799666
 30
0.0
  0
SEQEND
  5
D4
330
C7
100
AcDbEntity
  8
Layer 1
370
     0
  0
POLYLINE
  5
D5
330
49
100
AcDbEntity
  8
Layer 1
370
     0
100
AcDb2dPolyline
 66
     1
 10
0.0
 20
0.0
 30
0.0
  0
VERTEX
  5
D6
330
D5
100
AcDbEntity
  8
Layer 1
370
     0
100
AcDbVertex
100
AcDb2dVertex
 10
9.242778044615168
 20
23.95360316631404
 30
0.0
  0
VERTEX
  5
D7
330
D5
100
AcDbEntity
  8
Layer 1
370
     0
100
AcDbVertex
100
AcDb2dVertex
 10
9.31333386930117
 20
24.41221400816241
 30
0.0
  0
VERTEX
  5
D8
330
D5
100
AcDbEntity
  8
Layer 1
370
     0
100
AcDbVertex
100
AcDb2dVertex
 10
9.701389559333753
 20
24.09471346994562
 30
0.0
  0
VERTEX
  5
D9
330
D5
100
AcDbEntity
  8
Layer 1
370
     0
100
AcDbVertex
100
AcDb2dVertex
 10
10.23055622586813
 20
24.23582511931762
 30
0.0
  0
VERTEX
  5
DA
330
D5
100
AcDbEntity
  8
Layer 1
370
     0
100
AcDbVertex
100
AcDb2dVertex
 10
10.05416733702334
 20
23.70665845278324
 30
0.0
  0
VERTEX
  5
DB
330
D5
100
AcDbEntity
  8
Layer 1
370
     0
100
AcDbVertex
100
AcDb2dVertex
 10
10.33638929002692
 20
23.28332485040766
 30
0.0
  0
VERTEX
  5
DC
330
D5
100
AcDbEntity
  8
Layer 1
370
     0
100
AcDbVertex
100
AcDb2dVertex
 10
9.771944711149544
 20
23.28332485040766
 30
0.0
  0
VERTEX
  5
DD
330
D5
100
AcDbEntity
  8
Layer 1
370
     0
100
AcDbVertex
100
AcDb2dVertex
 10
9.45444484580296
 20
22.96582431219086
 30
0.0
  0
VERTEX
  5
DE
330
D5
100
AcDbEntity
  8
Layer 1
370
     0
100
AcDbVertex
100
AcDb2dVertex
 10
9.27805595695817
 20
23.45971373925245
 30
0.0
  0
VERTEX
  5
DF
330
D5
100
AcDbEntity
  8
Layer 1
370
     0
100
AcDbVertex
100
AcDb2dVertex
 10
8.819444442239584
 20
23.67138121331046
 30
0.0
  0
VERTEX
  5
E0
330
D5
100
AcDbEntity
  8
Layer 1
370
     0
100
AcDbVertex
100
AcDb2dVertex
 10
9.242778044615168
 20
23.95360316631404
 30
0.0
  0
SEQEND
  5
E1
330
D5
100
AcDbEntity
  8
Layer 1
370
     0
  0
POLYLINE
  5
E2
330
49
100
AcDbEntity
  8
Layer 1
370
     0
100
AcDb2dPolyline
 66
     1
 10
0.0
 20
0.0
 30
0.0
  0
VERTEX
  5
E3
330
E2
100
AcDbEntity
  8
Layer 1
370
     0
100
AcDbVertex
100
AcDb2dVertex
 10
9.877777775308333
 20
24.87082485001078
 30
0.0
  0
VERTEX
  5
E4
330
E2
100
AcDbEntity
  8
Layer 1
370
     0
100
AcDbVertex
100
AcDb2dVertex
 10
9.101666395243166
 20
25.57638040538995
 30
0.0
  0
VERTEX
  5
E5
330
E2
100
AcDbEntity
  8
Layer 1
370
     0
100
AcDbVertex
100
AcDb2dVertex
 10
9.913055014781122
 20
26.66999097793149
 30
0.0
  0
VERTEX
  5
E6
330
E2
100
AcDbEntity
  8
Layer 1
370
     0
100
AcDbVertex
100
AcDb2dVertex
 10
11.39472195022546
 20
26.5641579137727
 30
0.0
  0
VERTEX
  5
E7
330
E2
100
AcDbEntity
  8
Layer 1
370
     0
100
AcDbVertex
100
AcDb2dVertex
 10
11.39472195022546
 20
25.99971400776554
 30
0.0
  0
VERTEX
  5
E8
330
E2
100
AcDbEntity
  8
Layer 1
370
     0
100
AcDbVertex
100
AcDb2dVertex
 10
10.5833333306875
 20
25.54110316591716
 30
0.0
  0
VERTEX
  5
E9
330
E2
100
AcDbEntity
  8
Layer 1
370
     0
100
AcDbVertex
100
AcDb2dVertex
 10
11.07722208487887
 20
25.22360262770037
 30
0.0
  0
VERTEX
  5
EA
330
E2
100
AcDbEntity
  8
Layer 1
370
     0
100
AcDbVertex
100
AcDb2dVertex
 10
9.877777775308333
 20
24.87082485001078
 30
0.0
  0
SEQEND
  5
EB
330
E2
100
AcDbEntity
  8
Layer 1
370
     0
  0
SPLINE
  5
EC
330
49
100
AcDbEntity
  8
Layer 1
370
     0
100
AcDbSpline
210
0.0
220
0.0
230
1.0
 70
    11
 71
     3
 72
   185
 73
   181
 74
     0
 42
0.0000000001
 43
0.0000000001
 12
1.0
 22
0.0
 32
0.0
 13
1.0
 23
0.0
 33
0.0
 40
0.0
 40
0.0
 40
0.0
 40
0.0
 40
1.0
 40
1.0
 40
1.0
 40
2.0
 40
2.0
 40
2.0
 40
3.0
 40
3.0
 40
3.0
 40
4.0
 40
4.0
 40
4.0
 40
5.0
 40
5.0
 40
5.0
 40
6.0
 40
6.0
 40
6.0
 40
7.0
 40
7.0
 40
7.0
 40
8.0
 40
8.0
 40
8.0
 40
9.0
 40
9.0
 40
9.0
 40
10.0
 40
10.0
 40
10.0
 40
11.0
 40
11.0
 40
11.0
 40
12.0
 40
12.0
 40
12.0
 40
13.0
 40
13.0
 40
13.0
 40
14.0
 40
14.0
 40
14.0
 40
15.0
 40
15.0
 40
15.0
 40
16.0
 40
16.0
 40
16.0
 40
17.0
 40
17.0
 40
17.0
 40
18.0
 40
18.0
 40
18.0
 40
19.0
 40
19.0
 40
19.0
 40
20.0
 40
20.0
 40
20.0
 40
21.0
 40
21.0
 40
21.0
 40
22.0
 40
22.0
 40
22.0
 40
23.0
 40
23.0
 40
23.0
 40
24.0
 40
24.0
 40
24.0
 40
25.0
 40
25.0
 40
25.0
 40
26.0
 40
26.0
 40
26.0
 40
27.0
 40
27.0
 40
27.0
 40
28.0
 40
28.0
 40
28.0
 40
29.0
 40
29.0
 40
29.0
 40
30.0
 40
30.0
 40
30.0
 40
31.0
 40
31.0
 40
31.0
 40
32.0
 40
32.0
 40
32.0
 40
33.0
 40
33.0
 40
33.0
 40
34.0
 40
34.0
 40
34.0
 40
35.0
 40
35.0
 40
35.0
 40
36.0
 40
36.0
 40
36.0
 40
37.0
 40
37.0
 40
37.0
 40
38.0
 40
38.0
 40
38.0
 40
39.0
 40
39.0
 40
39.0
 40
40.0
 40
40.0
 40
40.0
 40
41.0
 40
41.0
 40
41.0
 40
42.0
 40
42.0
 40
42.0
 40
43.0
 40
43.0
 40
43.0
 40
44.0
 40
44.0
 40
44.0
 40
45.0
 40
45.0
 40
45.0
 40
46.0
 40
46.0
 40
46.0
 40
47.0
 40
47.0
 40
47.0
 40
48.0
 40
48.0
 40
48.0
 40
49.0
 40
49.0
 40
49.0
 40
50.0
 40
50.0
 40
50.0
 40
51.0
 40
51.0
 40
51.0
 40
52.0
 40
52.0
 40
52.0
 40
53.0
 40
53.0
 40
53.0
 40
54.0
 40
54.0
 40
54.0
 40
55.0
 40
55.0
 40
55.0
 40
56.0
 40
56.0
 40
56.0
 40
57.0
 40
57.0
 40
57.0
 40
58.0
 40
58.0
 40
58.0
 40
59.0
 40
59.0
 40
59.0
 40
60.0
 40
60.0
 40
60.0
 40
60.0
 10
14.07583386811054
 20
28.61027010096462
 30
0.0
 10
14.34797084237723
 20
28.28566674479035
 30
0.0
 10
14.74602605662979
 20
28.0930589923564
 30
0.0
 10
15.16944444065208
 20
28.08110343443025
 30
0.0
 10
15.51816750244438
 20
28.03407384383532
 30
0.0
 10
15.87165717681822
 20
28.12244592599367
 30
0.0
 10
16.15722194903483
 20
28.32804814796104
 30
0.0
 10
16.25595623245741
 20
28.41643099604279
 30
0.0
 10
16.29683444357458
 20
28.55268990544612
 30
0.0
 10
16.26305501319362
 20
28.68082592565062
 30
0.0
 10
16.26305501319362
 20
28.78665898980941
 30
0.0
 10
16.22777777372083
 20
28.78665898980941
 30
0.0
 10
16.19249918850762
 20
28.75138175033663
 30
0.0
 10
15.75859075788083
 20
28.46563799464363
 30
0.0
 10
15.18353703437143
 20
28.5246164144626
 30
0.0
 10
14.8166666629625
 20
28.8924920539682
 30
0.0
 10
14.68752402892089
 20
29.02172350687779
 30
0.0
 10
14.63417887851648
 20
29.20843018755282
 30
0.0
 10
14.6755550135905
 20
29.38638148102979
 30
0.0
 10
14.73745369012939
 20
29.57543378726372
 30
0.0
 10
14.84676280180317
 20
29.74547212704801
 30
0.0
 10
14.99305555180729
 20
29.88027090809138
 30
0.0
 10
15.1989861344381
 20
30.03772657491196
 30
0.0
 10
15.42424693251818
 20
30.16814093365418
 30
0.0
 10
15.66333386771367
 20
30.26832592525375
 30
0.0
 10
15.96077076195016
 20
30.36417494120743
 30
0.0
 10
16.26878383017828
 20
30.42340770596653
 30
0.0
 10
16.58055555141042
 20
30.44471481409854
 30
0.0
 10
16.93487823910667
 20
30.47413135402513
 30
0.0
 10
17.2916071106809
 20
30.45034942925352
 30
0.0
 10
17.63888888447917
 20
30.37415898941254
 30
0.0
 10
18.02276537762525
 20
30.28926160902876
 30
0.0
 10
18.39151171118514
 20
30.14652026800339
 30
0.0
 10
18.7324994570207
 20
29.95082538703695
 30
0.0
 10
19.128728501518
 20
29.72773661400109
 30
0.0
 10
19.47652165667737
 20
29.42791506773341
 30
0.0
 10
19.75555555061667
 20
29.068880942813
 30
0.0
 10
20.15733039140096
 20
28.70953326037381
 30
0.0
 10
20.38806297004472
 20
28.19679539293472
 30
0.0
 10
20.39055528130983
 20
27.65776983205467
 30
0.0
 10
20.35858587179905
 20
27.22177684951121
 30
0.0
 10
20.15572357733479
 20
26.81605226058269
 30
0.0
 10
19.82611137530267
 20
26.52888067429991
 30
0.0
 10
19.45134285334571
 20
26.21875613934666
 30
0.0
 10
18.97046404470264
 20
26.06690009843003
 30
0.0
 10
18.48555608923034
 20
26.10554707192433
 30
0.0
 10
17.94105605630575
 20
26.19289504562007
 30
0.0
 10
17.44964817458589
 20
26.48270024591248
 30
0.0
 10
17.10972221794479
 20
26.91693569146229
 30
0.0
 10
17.07444497847201
 20
26.95221293093507
 30
0.0
 10
17.03916639325879
 20
26.91693569146229
 30
0.0
 10
16.96861056857279
 20
26.84637986677628
 30
0.0
 10
16.90750587888402
 20
26.73256117894192
 30
0.0
 10
16.92145447837801
 20
26.59306710955947
 30
0.0
 10
17.00388780804558
 20
26.4936020890867
 30
0.0
 10
17.00388780804558
 20
26.4936020890867
 30
0.0
 10
17.07444363273158
 20
26.4230462644007
 30
0.0
 10
17.07444363273158
 20
26.4230462644007
 30
0.0
 10
17.10584110256219
 20
26.2773281455576
 30
0.0
 10
17.05099679732552
 20
26.12650428754612
 30
0.0
 10
16.93333198335958
 20
26.03499124723833
 30
0.0
 10
16.64258745625127
 20
25.84391494740681
 30
0.0
 10
16.33567520368993
 20
25.67865398612746
 30
0.0
 10
16.01611029966283
 20
25.54110182017674
 30
0.0
 10
15.6635774467304
 20
25.41210183462007
 30
0.0
 10
15.33103422205497
 20
25.23395406304121
 30
0.0
 10
15.02833279128008
 20
25.01193649938279
 30
0.0
 10
14.56972194943171
 20
24.62388148222042
 30
0.0
 10
14.53444336421849
 20
24.20054787984483
 30
0.0
 10
14.92249972712129
 20
23.77721427746925
 30
0.0
 10
15.00479309978477
 20
23.66842865882036
 30
0.0
 10
15.11430407252215
 20
23.58325271016883
 30
0.0
 10
15.24000026533809
 20
23.53026956393845
 30
0.0
 10
15.24000026533809
 20
23.53026956393845
 30
0.0
 10
13.0880563597278
 20
23.00110289740408
 30
0.0
 10
13.0880563597278
 20
23.00110289740408
 30
0.0
 10
13.0880563597278
 20
23.00110289740408
 30
0.0
 10
11.88861137728704
 20
24.12999205515883
 30
0.0
 10
11.88861137728704
 20
24.12999205515883
 30
0.0
 10
11.88861137728704
 20
24.12999205515883
 30
0.0
 10
12.52361110798021
 20
24.835547610538
 30
0.0
 10
12.52361110798021
 20
24.835547610538
 30
0.0
 10
12.52361110798021
 20
24.835547610538
 30
0.0
 10
13.61722168052175
 20
24.764991785852
 30
0.0
 10
13.61722168052175
 20
24.764991785852
 30
0.0
 10
13.61722168052175
 20
24.764991785852
 30
0.0
 10
13.08805501398737
 20
25.64693623007595
 30
0.0
 10
13.08805501398737
 20
25.64693623007595
 30
0.0
 10
13.08805501398737
 20
25.64693623007595
 30
0.0
 10
13.22916666335938
 20
26.28193596076912
 30
0.0
 10
13.22916666335938
 20
26.28193596076912
 30
0.0
 10
13.22916666335938
 20
26.28193596076912
 30
0.0
 10
13.26444390283216
 20
26.28193596076912
 30
0.0
 10
13.26444390283216
 20
26.28193596076912
 30
0.0
 10
13.64190928859867
 20
26.2369209435888
 30
0.0
 10
14.02441043503149
 20
26.26082802221984
 30
0.0
 10
14.39333306058692
 20
26.35249178545512
 30
0.0
 10
14.83565909756536
 20
26.44147079654466
 30
0.0
 10
15.27168437787899
 20
26.55931459398699
 30
0.0
 10
15.69861110718646
 20
26.7052695631447
 30
0.0
 10
15.69861110718646
 20
26.7052695631447
 30
0.0
 10
17.03916639325879
 20
27.16388040499308
 30
0.0
 10
17.03916639325879
 20
27.16388040499308
 30
0.0
 10
17.03916639325879
 20
27.16388040499308
 30
0.0
 10
18.30916585464512
 20
27.55193542215545
 30
0.0
 10
18.30916585464512
 20
27.55193542215545
 30
0.0
 10
18.65401991271863
 20
27.64621665051526
 30
0.0
 10
19.00998978669377
 20
27.6936795695267
 30
0.0
 10
19.36749918771387
 20
27.69304707152745
 30
0.0
 10
19.61450042234247
 20
27.70079988210969
 30
0.0
 10
19.85484562483433
 20
27.6122515079558
 30
0.0
 10
20.03777750362025
 20
27.44610235799666
 30
0.0
 10
20.07305474309304
 20
27.41082511852387
 30
0.0
 10
20.07305474309304
 20
27.41082511852387
 30
0.0
 10
20.10833332830625
 20
27.48137959746945
 30
0.0
 10
20.14361191351946
 20
27.55193407641503
 30
0.0
 10
20.14361056777904
 20
27.65776848631424
 30
0.0
 10
20.03777750362025
 20
27.76360155047303
 30
0.0
 10
19.73286636706928
 20
28.10455026983631
 30
0.0
 10
19.29571066479955
 20
28.29741236721037
 30
0.0
 10
18.8383325211795
 20
28.29276821700741
 30
0.0
 10
18.1070706322225
 20
28.28740678715848
 30
0.0
 10
17.38108673720814
 20
28.16839354128777
 30
0.0
 10
16.68638861556921
 20
27.93999043931782
 30
0.0
 10
16.68638861556921
 20
27.93999043931782
 30
0.0
 10
15.24000026533809
 20
27.55193542215545
 30
0.0
 10
15.24000026533809
 20
27.55193542215545
 30
0.0
 10
15.24000026533809
 20
27.55193542215545
 30
0.0
 10
14.21694417174212
 20
27.41082377278344
 30
0.0
 10
14.21694417174212
 20
27.41082377278344
 30
0.0
 10
14.21694417174212
 20
27.41082377278344
 30
0.0
 10
13.54666720157617
 20
27.41082377278344
 30
0.0
 10
13.54666720157617
 20
27.41082377278344
 30
0.0
 10
13.54666720157617
 20
27.41082377278344
 30
0.0
 10
13.12333359920058
 20
27.55193542215545
 30
0.0
 10
13.12333359920058
 20
27.55193542215545
 30
0.0
 10
13.12333359920058
 20
27.55193542215545
 30
0.0
 10
12.87638888566979
 20
27.79888013568624
 30
0.0
 10
12.87638888566979
 20
27.79888013568624
 30
0.0
 10
12.85059238748356
 20
27.82781490054107
 30
0.0
 10
12.83783476826475
 20
27.86608775819752
 30
0.0
 10
12.841111646197
 20
27.90471319984503
 30
0.0
 10
12.80583440672421
 20
27.97526902453103
 30
0.0
 10
12.80583440672421
 20
27.97526902453103
 30
0.0
 10
12.80583440672421
 20
28.01054626400382
 30
0.0
 10
12.80583440672421
 20
28.01054626400382
 30
0.0
 10
12.699999996825
 20
28.01054626400382
 30
0.0
 10
12.699999996825
 20
28.01054626400382
 30
0.0
 10
12.66472275735221
 20
27.97526902453103
 30
0.0
 10
12.59416693266621
 20
27.97526902453103
 30
0.0
 10
12.558888347453
 20
27.90471319984503
 30
0.0
 10
12.20239363471253
 20
27.58134119615865
 30
0.0
 10
12.17099616488192
 20
27.03186730662724
 30
0.0
 10
12.488332522767
 20
26.66999097793149
 30
0.0
 10
12.488332522767
 20
26.66999097793149
 30
0.0
 10
12.59416558692579
 20
26.5641579137727
 30
0.0
 10
12.59416558692579
 20
26.5641579137727
 30
0.0
 10
12.59416558692579
 20
26.5641579137727
 30
0.0
 10
12.27666504870899
 20
26.4936020890867
 30
0.0
 10
12.27666504870899
 20
26.4936020890867
 30
0.0
 10
12.27666504870899
 20
26.4936020890867
 30
0.0
 10
11.46527642917103
 20
27.23443488393865
 30
0.0
 10
11.46527642917103
 20
27.23443488393865
 30
0.0
 10
11.46527642917103
 20
27.23443488393865
 30
0.0
 10
11.46527642917103
 20
26.95221293093507
 30
0.0
 10
11.46527642917103
 20
26.95221293093507
 30
0.0
 10
11.46527642917103
 20
26.95221293093507
 30
0.0
 10
10.75972087379187
 20
28.01054626400382
 30
0.0
 10
10.75972087379187
 20
28.01054626400382
 30
0.0
 10
10.75972087379187
 20
28.01054626400382
 30
0.0
 10
11.28888754032624
 20
29.66860208829295
 30
0.0
 10
11.28888754032624
 20
29.66860208829295
 30
0.0
 10
12.20308265380958
 20
30.0156241341894
 30
0.0
 10
13.14802389875835
 20
30.27548257282819
 30
0.0
 10
14.11111110758333
 20
30.44471481409854
 30
0.0
 10
13.93909183789503
 20
30.20505728496331
 30
0.0
 10
13.82992806618702
 20
29.92608394934308
 30
0.0
 10
13.79361056936654
 20
29.63332619456058
 30
0.0
 10
13.74708159420931
 20
29.26828737586861
 30
0.0
 10
13.84872805990926
 20
28.89982230205733
 30
0.0
 10
14.07583386811054
 20
28.61027010096462
 30
0.0
  0
SPLINE
  5
ED
330
49
100
AcDbEntity
  8
Layer 1
370
     0
100
AcDbSpline
210
0.0
220
0.0
230
1.0
 70
    11
 71
     3
 72
    44
 73
    40
 74
     0
 42
0.0000000001
 43
0.0000000001
 12
1.0
 22
0.0
 32
0.0
 13
1.0
 23
0.0
 33
0.0
 40
0.0
 40
0.0
 40
0.0
 40
0.0
 40
1.0
 40
1.0
 40
1.0
 40
2.0
 40
2.0
 40
2.0
 40
3.0
 40
3.0
 40
3.0
 40
4.0
 40
4.0
 40
4.0
 40
5.0
 40
5.0
 40
5.0
 40
6.0
 40
6.0
 40
6.0
 40
7.0
 40
7.0
 40
7.0
 40
8.0
 40
8.0
 40
8.0
 40
9.0
 40
9.0
 40
9.0
 40
10.0
 40
10.0
 40
10.0
 40
11.0
 40
11.0
 40
11.0
 40
12.0
 40
12.0
 40
12.0
 40
13.0
 40
13.0
 40
13.0
 40
13.0
 10
17.14500080315801
 20
22.11915979892055
 30
0.0
 10
17.3919455166888
 20
21.83693784591696
 30
0.0
 10
17.81527911906438
 20
21.73110478175817
 30
0.0
 10
18.41500026454434
 20
21.76638202123096
 30
0.0
 10
18.41500026454434
 20
21.76638202123096
 30
0.0
 10
18.41500026454434
 20
21.76638202123096
 30
0.0
 10
18.41500026454434
 20
21.76638202123096
 30
0.0
 10
18.25228006118536
 20
21.65600170017973
 30
0.0
 10
18.15872822413531
 20
21.46889802607964
 30
0.0
 10
18.16805555101354
 20
21.27249259416937
 30
0.0
 10
18.13277831154075
 20
21.23721535469658
 30
0.0
 10
18.16805555101354
 20
21.16665818427016
 30
0.0
 10
18.16805555101354
 20
21.13138094479737
 30
0.0
 10
18.16805555101354
 20
21.13138094479737
 30
0.0
 10
17.10972221794479
 20
20.84915764605337
 30
0.0
 10
17.10972221794479
 20
20.84915764605337
 30
0.0
 10
17.10972221794479
 20
20.84915764605337
 30
0.0
 10
16.15722194903483
 20
21.73110209027733
 30
0.0
 10
16.15722194903483
 20
21.73110209027733
 30
0.0
 10
16.15722194903483
 20
21.73110209027733
 30
0.0
 10
15.98083306019004
 20
20.35526821899178
 30
0.0
 10
15.98083306019004
 20
20.35526821899178
 30
0.0
 10
15.98083306019004
 20
20.35526821899178
 30
0.0
 10
15.48694363312845
 20
20.10832485120141
 30
0.0
 10
15.48694363312845
 20
20.10832485120141
 30
0.0
 10
15.48694363312845
 20
20.10832485120141
 30
0.0
 10
14.56972194943171
 20
21.41360155206053
 30
0.0
 10
14.56972194943171
 20
21.41360155206053
 30
0.0
 10
14.56972194943171
 20
21.41360155206053
 30
0.0
 10
15.31055474428366
 20
23.49499097872524
 30
0.0
 10
15.31055474428366
 20
23.49499097872524
 30
0.0
 10
15.95942502152623
 20
23.28533942382228
 30
0.0
 10
16.6495974181195
 20
23.23690622596519
 30
0.0
 10
17.32138834626237
 20
23.35387932935324
 30
0.0
 10
17.14540856250645
 20
23.19460825870078
 30
0.0
 10
17.02231772315124
 20
22.98535235148245
 30
0.0
 10
16.96861056857279
 20
22.75415683813286
 30
0.0
 10
16.92483766980376
 20
22.52655176023431
 30
0.0
 10
16.990108771845
 20
22.29157875351476
 30
0.0
 10
17.14500080315801
 20
22.11915979892055
 30
0.0
  0
SPLINE
  5
EE
330
49
100
AcDbEntity
  8
Layer 1
370
     0
100
AcDbSpline
210
0.0
220
0.0
230
1.0
 70
    11
 71
     3
 72
    65
 73
    61
 74
     0
 42
0.0000000001
 43
0.0000000001
 12
1.0
 22
0.0
 32
0.0
 13
1.0
 23
0.0
 33
0.0
 40
0.0
 40
0.0
 40
0.0
 40
0.0
 40
1.0
 40
1.0
 40
1.0
 40
2.0
 40
2.0
 40
2.0
 40
3.0
 40
3.0
 40
3.0
 40
4.0
 40
4.0
 40
4.0
 40
5.0
 40
5.0
 40
5.0
 40
6.0
 40
6.0
 40
6.0
 40
7.0
 40
7.0
 40
7.0
 40
8.0
 40
8.0
 40
8.0
 40
9.0
 40
9.0
 40
9.0
 40
10.0
 40
10.0
 40
10.0
 40
11.0
 40
11.0
 40
11.0
 40
12.0
 40
12.0
 40
12.0
 40
13.0
 40
13.0
 40
13.0
 40
14.0
 40
14.0
 40
14.0
 40
15.0
 40
15.0
 40
15.0
 40
16.0
 40
16.0
 40
16.0
 40
17.0
 40
17.0
 40
17.0
 40
18.0
 40
18.0
 40
18.0
 40
19.0
 40
19.0
 40
19.0
 40
20.0
 40
20.0
 40
20.0
 40
20.0
 10
19.82611137530267
 20
18.9088825602415
 30
0.0
 10
19.82611137530267
 20
18.9088825602415
 30
0.0
 10
20.10833332830625
 20
18.66193919245114
 30
0.0
 10
20.10833332830625
 20
18.66193919245114
 30
0.0
 10
20.10833332830625
 20
18.66193919245114
 30
0.0
 10
20.46111110599583
 20
18.41499582466077
 30
0.0
 10
20.46111110599583
 20
18.41499582466077
 30
0.0
 10
20.46111110599583
 20
18.41499582466077
 30
0.0
 10
20.99027777253021
 20
18.20332969634319
 30
0.0
 10
20.99027777253021
 20
18.20332969634319
 30
0.0
 10
20.99027777253021
 20
18.20332969634319
 30
0.0
 10
21.237222486061
 20
18.20332969634319
 30
0.0
 10
21.237222486061
 20
18.20332969634319
 30
0.0
 10
21.237222486061
 20
18.20332969634319
 30
0.0
 10
20.77861164421263
 20
18.09749528644397
 30
0.0
 10
20.77861164421263
 20
18.09749528644397
 30
0.0
 10
20.77861164421263
 20
18.09749528644397
 30
0.0
 10
20.74333440473984
 20
18.09749528644397
 30
0.0
 10
20.74333440473984
 20
18.09749528644397
 30
0.0
 10
20.74333440473984
 20
18.06221804697118
 30
0.0
 10
20.74333440473984
 20
18.06221804697118
 30
0.0
 10
20.77861164421263
 20
18.0269408074984
 30
0.0
 10
20.77861164421263
 20
18.0269408074984
 30
0.0
 10
21.13138942190221
 20
17.63888579033602
 30
0.0
 10
21.13138942190221
 20
17.63888579033602
 30
0.0
 10
21.13138942190221
 20
17.63888579033602
 30
0.0
 10
18.34444443985834
 20
16.93333023495686
 30
0.0
 10
18.34444443985834
 20
16.93333023495686
 30
0.0
 10
18.34444443985834
 20
16.93333023495686
 30
0.0
 10
16.75694444025521
 20
18.27388686676961
 30
0.0
 10
16.75694444025521
 20
18.27388686676961
 30
0.0
 10
16.75694444025521
 20
18.27388686676961
 30
0.0
 10
17.42722275616159
 20
18.94416518267599
 30
0.0
 10
17.42722275616159
 20
18.94416518267599
 30
0.0
 10
17.42722275616159
 20
18.94416518267599
 30
0.0
 10
18.59138915338913
 20
18.87361070373041
 30
0.0
 10
18.59138915338913
 20
18.87361070373041
 30
0.0
 10
18.59138915338913
 20
18.87361070373041
 30
0.0
 10
17.99166666216875
 20
19.89665872288383
 30
0.0
 10
17.99166666216875
 20
19.89665872288383
 30
0.0
 10
17.99166666216875
 20
19.89665872288383
 30
0.0
 10
18.27388861517233
 20
20.81388040658058
 30
0.0
 10
18.27388861517233
 20
20.81388040658058
 30
0.0
 10
18.27388861517233
 20
20.81388040658058
 30
0.0
 10
18.34444443985834
 20
20.81388040658058
 30
0.0
 10
18.34444443985834
 20
20.81388040658058
 30
0.0
 10
18.34444443985834
 20
20.81388040658058
 30
0.0
 10
18.59138915338913
 20
20.56693703879021
 30
0.0
 10
18.59138915338913
 20
20.56693703879021
 30
0.0
 10
18.70640824168164
 20
20.48722345051939
 30
0.0
 10
18.84008736669229
 20
20.43861261492635
 30
0.0
 10
18.9794441705515
 20
20.4258253894182
 30
0.0
 10
18.9794441705515
 20
20.4258253894182
 30
0.0
 10
19.86138861477546
 20
20.4258253894182
 30
0.0
 10
19.86138861477546
 20
20.4258253894182
 30
0.0
 10
19.71859882709482
 20
20.25269319239931
 30
0.0
 10
19.62155883086596
 20
20.04648269576033
 30
0.0
 10
19.57916666177188
 20
19.82610424393825
 30
0.0
 10
19.49228162278196
 20
19.49820382372536
 30
0.0
 10
19.58634214971225
 20
19.14883615227
 30
0.0
 10
19.82611137530267
 20
18.9088825602415
 30
0.0
  0
SPLINE
  5
EF
330
49
100
AcDbEntity
  8
Layer 1
370
     0
100
AcDbSpline
210
0.0
220
0.0
230
1.0
 70
    11
 71
     3
 72
    50
 73
    46
 74
     0
 42
0.0000000001
 43
0.0000000001
 12
1.0
 22
0.0
 32
0.0
 13
1.0
 23
0.0
 33
0.0
 40
0.0
 40
0.0
 40
0.0
 40
0.0
 40
1.0
 40
1.0
 40
1.0
 40
2.0
 40
2.0
 40
2.0
 40
3.0
 40
3.0
 40
3.0
 40
4.0
 40
4.0
 40
4.0
 40
5.0
 40
5.0
 40
5.0
 40
6.0
 40
6.0
 40
6.0
 40
7.0
 40
7.0
 40
7.0
 40
8.0
 40
8.0
 40
8.0
 40
9.0
 40
9.0
 40
9.0
 40
10.0
 40
10.0
 40
10.0
 40
11.0
 40
11.0
 40
11.0
 40
12.0
 40
12.0
 40
12.0
 40
13.0
 40
13.0
 40
13.0
 40
14.0
 40
14.0
 40
14.0
 40
15.0
 40
15.0
 40
15.0
 40
15.0
 10
22.8247211399237
 20
16.651104244732
 30
0.0
 10
22.673715606955
 20
16.54155559126275
 30
0.0
 10
22.57224274176973
 20
16.37666201711913
 30
0.0
 10
22.54249918692012
 20
16.19249205714321
 30
0.0
 10
22.53194185329442
 20
16.0930364568534
 30
0.0
 10
22.556936290188
 20
15.99305601779826
 30
0.0
 10
22.61305501160612
 20
15.9102687583992
 30
0.0
 10
22.61305501160612
 20
15.9102687583992
 30
0.0
 10
21.87222221675417
 20
15.69860263008162
 30
0.0
 10
21.87222221675417
 20
15.69860263008162
 30
0.0
 10
21.87222221675417
 20
15.69860263008162
 30
0.0
 10
20.99027777253021
 20
16.368880945988
 30
0.0
 10
20.99027777253021
 20
16.368880945988
 30
0.0
 10
20.99027777253021
 20
16.368880945988
 30
0.0
 10
20.91972194784421
 20
15.31054761291925
 30
0.0
 10
20.91972194784421
 20
15.31054761291925
 30
0.0
 10
20.91972194784421
 20
15.31054761291925
 30
0.0
 10
20.14361056777904
 20
14.88721535628409
 30
0.0
 10
20.14361056777904
 20
14.88721535628409
 30
0.0
 10
20.14361056777904
 20
14.88721535628409
 30
0.0
 10
21.166666661375
 20
17.49776875800232
 30
0.0
 10
21.166666661375
 20
17.49776875800232
 30
0.0
 10
21.166666661375
 20
17.49776875800232
 30
0.0
 10
21.27249972553379
 20
17.39193434810311
 30
0.0
 10
21.27249972553379
 20
17.39193434810311
 30
0.0
 10
21.27249972553379
 20
17.35665710863032
 30
0.0
 10
21.30777696500658
 20
17.35665710863032
 30
0.0
 10
21.34305555021979
 20
17.39193434810311
 30
0.0
 10
21.34305555021979
 20
17.39193434810311
 30
0.0
 10
23.49499945583008
 20
17.99165549358306
 30
0.0
 10
23.49499945583008
 20
17.99165549358306
 30
0.0
 10
23.8085865808941
 20
18.05412207258085
 30
0.0
 10
24.1301485637103
 20
18.06603187533259
 30
0.0
 10
24.44749837899962
 20
18.02693273305585
 30
0.0
 10
24.63732583171773
 20
17.99621755362017
 30
0.0
 10
24.81802108991909
 20
17.92394052693197
 30
0.0
 10
24.97666504553399
 20
17.81526660473827
 30
0.0
 10
25.09425853525747
 20
17.62711863606922
 30
0.0
 10
24.77675799704068
 20
17.41544981627079
 30
0.0
 10
24.02416612236446
 20
17.18026552830468
 30
0.0
 10
24.02416612236446
 20
17.18026552830468
 30
0.0
 10
23.21277615708608
 20
16.89804222956068
 30
0.0
 10
23.21277615708608
 20
16.89804222956068
 30
0.0
 10
23.0645509238332
 20
16.850026211235
 30
0.0
 10
22.93099964416281
 20
16.76504001198325
 30
0.0
 10
22.8247211399237
 20
16.651104244732
 30
0.0
  0
POLYLINE
  5
F0
330
49
100
AcDbEntity
  8
Layer 1
370
     0
100
AcDb2dPolyline
 66
     1
 10
0.0
 20
0.0
 30
0.0
  0
VERTEX
  5
F1
330
F0
100
AcDbEntity
  8
Layer 1
370
     0
100
AcDbVertex
100
AcDb2dVertex
 10
12.80583306098379
 20
18.55610209107108
 30
0.0
  0
VERTEX
  5
F2
330
F0
100
AcDbEntity
  8
Layer 1
370
     0
100
AcDbVertex
100
AcDb2dVertex
 10
13.54666585583575
 20
19.50860101424061
 30
0.0
  0
VERTEX
  5
F3
330
F0
100
AcDbEntity
  8
Layer 1
370
     0
100
AcDbVertex
100
AcDb2dVertex
 10
15.66333252197325
 20
19.36748936486861
 30
0.0
  0
VERTEX
  5
F4
330
F0
100
AcDbEntity
  8
Layer 1
370
     0
100
AcDbVertex
100
AcDb2dVertex
 10
16.19249918850762
 20
19.15582323655103
 30
0.0
  0
VERTEX
  5
F5
330
F0
100
AcDbEntity
  8
Layer 1
370
     0
100
AcDbVertex
100
AcDb2dVertex
 10
16.33361083787963
 20
18.62665657001665
 30
0.0
  0
VERTEX
  5
F6
330
F0
100
AcDbEntity
  8
Layer 1
370
     0
100
AcDbVertex
100
AcDb2dVertex
 10
16.01611029966283
 20
18.80304545886144
 30
0.0
  0
VERTEX
  5
F7
330
F0
100
AcDbEntity
  8
Layer 1
370
     0
100
AcDbVertex
100
AcDb2dVertex
 10
15.87499999603125
 20
15.83971427945362
 30
0.0
  0
VERTEX
  5
F8
330
F0
100
AcDbEntity
  8
Layer 1
370
     0
100
AcDbVertex
100
AcDb2dVertex
 10
14.78138942348971
 20
15.13415872407445
 30
0.0
  0
VERTEX
  5
F9
330
F0
100
AcDbEntity
  8
Layer 1
370
     0
100
AcDbVertex
100
AcDb2dVertex
 10
13.68777885094817
 20
16.82749313357679
 30
0.0
  0
VERTEX
  5
FA
330
F0
100
AcDbEntity
  8
Layer 1
370
     0
100
AcDbVertex
100
AcDb2dVertex
 10
14.42861164580013
 20
18.9088825602415
 30
0.0
  0
VERTEX
  5
FB
330
F0
100
AcDbEntity
  8
Layer 1
370
     0
100
AcDbVertex
100
AcDb2dVertex
 10
12.80583306098379
 20
18.55610209107108
 30
0.0
  0
SEQEND
  5
FC
330
F0
100
AcDbEntity
  8
Layer 1
370
     0
  0
POLYLINE
  5
FD
330
49
100
AcDbEntity
  8
Layer 1
370
     0
100
AcDb2dPolyline
 66
     1
 10
0.0
 20
0.0
 30
0.0
  0
VERTEX
  5
FE
330
FD
100
AcDbEntity
  8
Layer 1
370
     0
100
AcDbVertex
100
AcDb2dVertex
 10
12.629444172139
 20
25.36471427707237
 30
0.0
  0
VERTEX
  5
FF
330
FD
100
AcDbEntity
  8
Layer 1
370
     0
100
AcDbVertex
100
AcDb2dVertex
 10
12.27666639444942
 20
25.36471427707237
 30
0.0
  0
VERTEX
  5
100
330
FD
100
AcDbEntity
  8
Layer 1
370
     0
100
AcDbVertex
100
AcDb2dVertex
 10
12.06500026613184
 20
25.15304814875479
 30
0.0
  0
VERTEX
  5
101
330
FD
100
AcDbEntity
  8
Layer 1
370
     0
100
AcDbVertex
100
AcDb2dVertex
 10
11.95916720197305
 20
25.47054868697159
 30
0.0
  0
VERTEX
  5
102
330
FD
100
AcDbEntity
  8
Layer 1
370
     0
100
AcDbVertex
100
AcDb2dVertex
 10
11.64166666375625
 20
25.61166033634359
 30
0.0
  0
VERTEX
  5
103
330
FD
100
AcDbEntity
  8
Layer 1
370
     0
100
AcDbVertex
100
AcDb2dVertex
 10
11.92388861675983
 20
25.78804922518838
 30
0.0
  0
VERTEX
  5
104
330
FD
100
AcDbEntity
  8
Layer 1
370
     0
100
AcDbVertex
100
AcDb2dVertex
 10
11.92388861675983
 20
26.10554976340518
 30
0.0
  0
VERTEX
  5
105
330
FD
100
AcDbEntity
  8
Layer 1
370
     0
100
AcDbVertex
100
AcDb2dVertex
 10
12.20611056976341
 20
25.89388363508759
 30
0.0
  0
VERTEX
  5
106
330
FD
100
AcDbEntity
  8
Layer 1
370
     0
100
AcDbVertex
100
AcDb2dVertex
 10
12.52361110798021
 20
25.99971669924638
 30
0.0
  0
VERTEX
  5
107
330
FD
100
AcDbEntity
  8
Layer 1
370
     0
100
AcDbVertex
100
AcDb2dVertex
 10
12.41777804382142
 20
25.61166168208401
 30
0.0
  0
VERTEX
  5
108
330
FD
100
AcDbEntity
  8
Layer 1
370
     0
100
AcDbVertex
100
AcDb2dVertex
 10
12.629444172139
 20
25.36471427707237
 30
0.0
  0
SEQEND
  5
109
330
FD
100
AcDbEntity
  8
Layer 1
370
     0
  0
POLYLINE
  5
10A
330
49
100
AcDbEntity
  8
Layer 1
370
     0
100
AcDb2dPolyline
 66
     1
 10
0.0
 20
0.0
 30
0.0
  0
VERTEX
  5
10B
330
10A
100
AcDbEntity
  8
Layer 1
370
     0
100
AcDbVertex
100
AcDb2dVertex
 10
13.79361056936654
 20
20.56693703879021
 30
0.0
  0
VERTEX
  5
10C
330
10A
100
AcDbEntity
  8
Layer 1
370
     0
100
AcDbVertex
100
AcDb2dVertex
 10
13.05277777451458
 20
20.56693703879021
 30
0.0
  0
VERTEX
  5
10D
330
10A
100
AcDbEntity
  8
Layer 1
370
     0
100
AcDbVertex
100
AcDb2dVertex
 10
12.59416693266621
 20
20.07304761172862
 30
0.0
  0
VERTEX
  5
10E
330
10A
100
AcDbEntity
  8
Layer 1
370
     0
100
AcDbVertex
100
AcDb2dVertex
 10
12.38249945860821
 20
20.77860316710779
 30
0.0
  0
VERTEX
  5
10F
330
10A
100
AcDbEntity
  8
Layer 1
370
     0
100
AcDbVertex
100
AcDb2dVertex
 10
11.74749972791504
 20
21.09610370532458
 30
0.0
  0
VERTEX
  5
110
330
10A
100
AcDbEntity
  8
Layer 1
370
     0
100
AcDbVertex
100
AcDb2dVertex
 10
12.34722221913542
 20
21.44888148301417
 30
0.0
  0
VERTEX
  5
111
330
10A
100
AcDbEntity
  8
Layer 1
370
     0
100
AcDbVertex
100
AcDb2dVertex
 10
12.41777804382142
 20
22.11915979892055
 30
0.0
  0
VERTEX
  5
112
330
10A
100
AcDbEntity
  8
Layer 1
370
     0
100
AcDbVertex
100
AcDb2dVertex
 10
12.98222194982858
 20
21.69582754228538
 30
0.0
  0
VERTEX
  5
113
330
10A
100
AcDbEntity
  8
Layer 1
370
     0
100
AcDbVertex
100
AcDb2dVertex
 10
13.65250026573496
 20
21.87221643113017
 30
0.0
  0
VERTEX
  5
114
330
10A
100
AcDbEntity
  8
Layer 1
370
     0
100
AcDbVertex
100
AcDb2dVertex
 10
13.40555555220417
 20
21.13138094479737
 30
0.0
  0
VERTEX
  5
115
330
10A
100
AcDbEntity
  8
Layer 1
370
     0
100
AcDbVertex
100
AcDb2dVertex
 10
13.79361056936654
 20
20.56693703879021
 30
0.0
  0
SEQEND
  5
116
330
10A
100
AcDbEntity
  8
Layer 1
370
     0
  0
POLYLINE
  5
117
330
49
100
AcDbEntity
  8
Layer 1
370
     0
100
AcDb2dPolyline
 66
     1
 10
0.0
 20
0.0
 30
0.0
  0
VERTEX
  5
118
330
117
100
AcDbEntity
  8
Layer 1
370
     0
100
AcDbVertex
100
AcDb2dVertex
 10
12.77055447577058
 20
17.32138256063838
 30
0.0
  0
VERTEX
  5
119
330
117
100
AcDbEntity
  8
Layer 1
370
     0
100
AcDbVertex
100
AcDb2dVertex
 10
12.52360976223978
 20
16.58054976578643
 30
0.0
  0
VERTEX
  5
11A
330
117
100
AcDbEntity
  8
Layer 1
370
     0
100
AcDbVertex
100
AcDb2dVertex
 10
12.91166477940216
 20
16.01610585977926
 30
0.0
  0
VERTEX
  5
11B
330
117
100
AcDbEntity
  8
Layer 1
370
     0
100
AcDbVertex
100
AcDb2dVertex
 10
12.17083333029063
 20
16.01610585977926
 30
0.0
  0
VERTEX
  5
11C
330
117
100
AcDbEntity
  8
Layer 1
370
     0
100
AcDbVertex
100
AcDb2dVertex
 10
11.71222248844225
 20
15.52221643271768
 30
0.0
  0
VERTEX
  5
11D
330
117
100
AcDbEntity
  8
Layer 1
370
     0
100
AcDbVertex
100
AcDb2dVertex
 10
11.50055636012467
 20
16.19249474862405
 30
0.0
  0
VERTEX
  5
11E
330
117
100
AcDbEntity
  8
Layer 1
370
     0
100
AcDbVertex
100
AcDb2dVertex
 10
10.86555528369108
 20
16.54526983483279
 30
0.0
  0
VERTEX
  5
11F
330
117
100
AcDbEntity
  8
Layer 1
370
     0
100
AcDbVertex
100
AcDb2dVertex
 10
11.46527777491146
 20
16.89804761252237
 30
0.0
  0
VERTEX
  5
120
330
117
100
AcDbEntity
  8
Layer 1
370
     0
100
AcDbVertex
100
AcDb2dVertex
 10
11.53583359959746
 20
17.56832592842875
 30
0.0
  0
VERTEX
  5
121
330
117
100
AcDbEntity
  8
Layer 1
370
     0
100
AcDbVertex
100
AcDb2dVertex
 10
12.10027750560462
 20
17.14499367179359
 30
0.0
  0
VERTEX
  5
122
330
117
100
AcDbEntity
  8
Layer 1
370
     0
100
AcDbVertex
100
AcDb2dVertex
 10
12.77055447577058
 20
17.32138256063838
 30
0.0
  0
SEQEND
  5
123
330
117
100
AcDbEntity
  8
Layer 1
370
     0
  0
POLYLINE
  5
124
330
49
100
AcDbEntity
  8
Layer 1
370
     0
100
AcDb2dPolyline
 66
     1
 10
0.0
 20
0.0
 30
0.0
  0
VERTEX
  5
125
330
124
100
AcDbEntity
  8
Layer 1
370
     0
100
AcDbVertex
100
AcDb2dVertex
 10
16.3336094921392
 20
19.79082700446546
 30
0.0
  0
VERTEX
  5
126
330
124
100
AcDbEntity
  8
Layer 1
370
     0
100
AcDbVertex
100
AcDb2dVertex
 10
16.68638726982878
 20
20.00249313278304
 30
0.0
  0
VERTEX
  5
127
330
124
100
AcDbEntity
  8
Layer 1
370
     0
100
AcDbVertex
100
AcDb2dVertex
 10
16.68638726982878
 20
20.35527091047263
 30
0.0
  0
VERTEX
  5
128
330
124
100
AcDbEntity
  8
Layer 1
370
     0
100
AcDbVertex
100
AcDb2dVertex
 10
17.00388780804558
 20
20.14360478215505
 30
0.0
  0
VERTEX
  5
129
330
124
100
AcDbEntity
  8
Layer 1
370
     0
100
AcDbVertex
100
AcDb2dVertex
 10
17.39194282520795
 20
20.24943919205426
 30
0.0
  0
VERTEX
  5
12A
330
124
100
AcDbEntity
  8
Layer 1
370
     0
100
AcDbVertex
100
AcDb2dVertex
 10
17.28610976104916
 20
19.79082700446546
 30
0.0
  0
VERTEX
  5
12B
330
124
100
AcDbEntity
  8
Layer 1
370
     0
100
AcDbVertex
100
AcDb2dVertex
 10
17.49777588936674
 20
19.47332646624867
 30
0.0
  0
VERTEX
  5
12C
330
124
100
AcDbEntity
  8
Layer 1
370
     0
100
AcDbVertex
100
AcDb2dVertex
 10
17.07444497847201
 20
19.47332646624867
 30
0.0
  0
VERTEX
  5
12D
330
124
100
AcDbEntity
  8
Layer 1
370
     0
100
AcDbVertex
100
AcDb2dVertex
 10
16.82750026494121
 20
19.2263830984583
 30
0.0
  0
VERTEX
  5
12E
330
124
100
AcDbEntity
  8
Layer 1
370
     0
100
AcDbVertex
100
AcDb2dVertex
 10
16.72166720078242
 20
19.61443811562067
 30
0.0
  0
VERTEX
  5
12F
330
124
100
AcDbEntity
  8
Layer 1
370
     0
100
AcDbVertex
100
AcDb2dVertex
 10
16.3336094921392
 20
19.79082700446546
 30
0.0
  0
SEQEND
  5
130
330
124
100
AcDbEntity
  8
Layer 1
370
     0
  0
SPLINE
  5
131
330
49
100
AcDbEntity
  8
Layer 1
370
     0
100
AcDbSpline
210
0.0
220
0.0
230
1.0
 70
    11
 71
     3
 72
    32
 73
    28
 74
     0
 42
0.0000000001
 43
0.0000000001
 12
1.0
 22
0.0
 32
0.0
 13
1.0
 23
0.0
 33
0.0
 40
0.0
 40
0.0
 40
0.0
 40
0.0
 40
1.0
 40
1.0
 40
1.0
 40
2.0
 40
2.0
 40
2.0
 40
3.0
 40
3.0
 40
3.0
 40
4.0
 40
4.0
 40
4.0
 40
5.0
 40
5.0
 40
5.0
 40
6.0
 40
6.0
 40
6.0
 40
7.0
 40
7.0
 40
7.0
 40
8.0
 40
8.0
 40
8.0
 40
9.0
 40
9.0
 40
9.0
 40
9.0
 10
17.77999784237032
 20
22.29554868776534
 30
0.0
 10
17.7365963679583
 20
22.3570409506962
 30
0.0
 10
17.72360862712699
 20
22.43497008716489
 30
0.0
 10
17.74472060289753
 20
22.50721481608292
 30
0.0
 10
17.74472060289753
 20
22.57777064076892
 30
0.0
 10
17.81527642758353
 20
22.64832646545492
 30
0.0
 10
17.88583225226954
 20
22.7188809444005
 30
0.0
 10
18.12473347528653
 20
22.92186839272418
 30
0.0
 10
18.40010022657063
 20
23.07751000145331
 30
0.0
 10
18.69722221754792
 20
23.17749178624887
 30
0.0
 10
19.02951917172577
 20
23.28507565869919
 30
0.0
 10
19.37257128337165
 20
23.35605270013788
 30
0.0
 10
19.72027831114388
 20
23.38915791456645
 30
0.0
 10
19.96381964714256
 20
23.41906161252651
 30
0.0
 10
20.20835683105495
 20
23.3418403355208
 30
0.0
 10
20.39055662705026
 20
23.17749178624887
 30
0.0
 10
20.46684665168261
 20
23.08913854445645
 30
0.0
 10
20.48086792115949
 20
22.96293635324112
 30
0.0
 10
20.42583386652305
 20
22.85999124803207
 30
0.0
 10
20.34851569620682
 20
22.69906222517734
 30
0.0
 10
20.22591066914464
 20
22.56419615711278
 30
0.0
 10
20.07305608883346
 20
22.47193623086971
 30
0.0
 10
20.07305608883346
 20
22.47193623086971
 30
0.0
 10
19.40277777292708
 20
22.22499151733891
 30
0.0
 10
19.40277777292708
 20
22.22499151733891
 30
0.0
 10
18.52083332870313
 20
22.08388121370733
 30
0.0
 10
17.95638942269596
 20
22.08388121370733
 30
0.0
 10
17.77999784237032
 20
22.29554868776534
 30
0.0
  0
POLYLINE
  5
132
330
49
100
AcDbEntity
  8
Layer 1
370
     0
100
AcDb2dPolyline
 66
     1
 10
0.0
 20
0.0
 30
0.0
  0
VERTEX
  5
133
330
132
100
AcDbEntity
  8
Layer 1
370
     0
100
AcDbVertex
100
AcDb2dVertex
 10
11.25361097372367
 20
25.15304814875479
 30
0.0
  0
VERTEX
  5
134
330
132
100
AcDbEntity
  8
Layer 1
370
     0
100
AcDbVertex
100
AcDb2dVertex
 10
11.53583359959746
 20
25.047215084596
 30
0.0
  0
VERTEX
  5
135
330
132
100
AcDbEntity
  8
Layer 1
370
     0
100
AcDbVertex
100
AcDb2dVertex
 10
11.67694524896946
 20
24.23582646505804
 30
0.0
  0
VERTEX
  5
136
330
132
100
AcDbEntity
  8
Layer 1
370
     0
100
AcDbVertex
100
AcDb2dVertex
 10
11.43000053543867
 20
24.44749259337562
 30
0.0
  0
VERTEX
  5
137
330
132
100
AcDbEntity
  8
Layer 1
370
     0
100
AcDbVertex
100
AcDb2dVertex
 10
11.32416747127988
 20
23.07165872209008
 30
0.0
  0
VERTEX
  5
138
330
132
100
AcDbEntity
  8
Layer 1
370
     0
100
AcDbVertex
100
AcDb2dVertex
 10
10.7597228924025
 20
23.81249151694204
 30
0.0
  0
VERTEX
  5
139
330
132
100
AcDbEntity
  8
Layer 1
370
     0
100
AcDbVertex
100
AcDb2dVertex
 10
11.25361097372367
 20
25.15304814875479
 30
0.0
  0
SEQEND
  5
13A
330
132
100
AcDbEntity
  8
Layer 1
370
     0
  0
POLYLINE
  5
13B
330
49
100
AcDbEntity
  8
Layer 1
370
     0
100
AcDb2dPolyline
 66
     1
 10
0.0
 20
0.0
 30
0.0
  0
VERTEX
  5
13C
330
13B
100
AcDbEntity
  8
Layer 1
370
     0
100
AcDbVertex
100
AcDb2dVertex
 10
11.50055501438425
 20
20.03777037225583
 30
0.0
  0
VERTEX
  5
13D
330
13B
100
AcDbEntity
  8
Layer 1
370
     0
100
AcDbVertex
100
AcDb2dVertex
 10
11.78277696738783
 20
18.87360262928787
 30
0.0
  0
VERTEX
  5
13E
330
13B
100
AcDbEntity
  8
Layer 1
370
     0
100
AcDbVertex
100
AcDb2dVertex
 10
10.61861057016029
 20
19.79082431298461
 30
0.0
  0
VERTEX
  5
13F
330
13B
100
AcDbEntity
  8
Layer 1
370
     0
100
AcDbVertex
100
AcDb2dVertex
 10
10.5833333306875
 20
19.79082431298461
 30
0.0
  0
VERTEX
  5
140
330
13B
100
AcDbEntity
  8
Layer 1
370
     0
100
AcDbVertex
100
AcDb2dVertex
 10
10.5127775060015
 20
19.19110316750466
 30
0.0
  0
VERTEX
  5
141
330
13B
100
AcDbEntity
  8
Layer 1
370
     0
100
AcDbVertex
100
AcDb2dVertex
 10
10.15999972831192
 20
19.68499259456625
 30
0.0
  0
VERTEX
  5
142
330
13B
100
AcDbEntity
  8
Layer 1
370
     0
100
AcDbVertex
100
AcDb2dVertex
 10
10.4774995936585
 20
20.4258253894182
 30
0.0
  0
VERTEX
  5
143
330
13B
100
AcDbEntity
  8
Layer 1
370
     0
100
AcDbVertex
100
AcDb2dVertex
 10
11.50055501438425
 20
20.03777037225583
 30
0.0
  0
SEQEND
  5
144
330
13B
100
AcDbEntity
  8
Layer 1
370
     0
  0
POLYLINE
  5
145
330
49
100
AcDbEntity
  8
Layer 1
370
     0
100
AcDb2dPolyline
 66
     1
 10
0.0
 20
0.0
 30
0.0
  0
VERTEX
  5
146
330
145
100
AcDbEntity
  8
Layer 1
370
     0
100
AcDbVertex
100
AcDb2dVertex
 10
10.5127775060015
 20
18.69721374044308
 30
0.0
  0
VERTEX
  5
147
330
145
100
AcDbEntity
  8
Layer 1
370
     0
100
AcDbVertex
100
AcDb2dVertex
 10
10.4422216813155
 20
17.53304599747511
 30
0.0
  0
VERTEX
  5
148
330
145
100
AcDbEntity
  8
Layer 1
370
     0
100
AcDbVertex
100
AcDb2dVertex
 10
10.08944390362591
 20
17.32137986915753
 30
0.0
  0
VERTEX
  5
149
330
145
100
AcDbEntity
  8
Layer 1
370
     0
100
AcDbVertex
100
AcDb2dVertex
 10
9.560277237091539
 20
17.18026821978553
 30
0.0
  0
VERTEX
  5
14A
330
145
100
AcDbEntity
  8
Layer 1
370
     0
100
AcDbVertex
100
AcDb2dVertex
 10
9.771944038279331
 20
18.06221266400949
 30
0.0
  0
VERTEX
  5
14B
330
145
100
AcDbEntity
  8
Layer 1
370
     0
100
AcDbVertex
100
AcDb2dVertex
 10
9.348610435903748
 20
17.95637825411027
 30
0.0
  0
VERTEX
  5
14C
330
145
100
AcDbEntity
  8
Layer 1
370
     0
100
AcDbVertex
100
AcDb2dVertex
 10
9.101665722372953
 20
17.03915657041353
 30
0.0
  0
VERTEX
  5
14D
330
145
100
AcDbEntity
  8
Layer 1
370
     0
100
AcDbVertex
100
AcDb2dVertex
 10
8.572499055838579
 20
16.89804492104152
 30
0.0
  0
VERTEX
  5
14E
330
145
100
AcDbEntity
  8
Layer 1
370
     0
100
AcDbVertex
100
AcDb2dVertex
 10
8.925276833528162
 20
18.16804438242785
 30
0.0
  0
VERTEX
  5
14F
330
145
100
AcDbEntity
  8
Layer 1
370
     0
100
AcDbVertex
100
AcDb2dVertex
 10
8.995832658214164
 20
17.95637825411027
 30
0.0
  0
VERTEX
  5
150
330
145
100
AcDbEntity
  8
Layer 1
370
     0
100
AcDbVertex
100
AcDb2dVertex
 10
9.66611030125033
 20
18.80304545886144
 30
0.0
  0
VERTEX
  5
151
330
145
100
AcDbEntity
  8
Layer 1
370
     0
100
AcDbVertex
100
AcDb2dVertex
 10
10.5127775060015
 20
18.69721374044308
 30
0.0
  0
SEQEND
  5
152
330
145
100
AcDbEntity
  8
Layer 1
370
     0
  0
POLYLINE
  5
153
330
49
100
AcDbEntity
  8
Layer 1
370
     0
100
AcDb2dPolyline
 66
     1
 10
0.0
 20
0.0
 30
0.0
  0
VERTEX
  5
154
330
153
100
AcDbEntity
  8
Layer 1
370
     0
100
AcDbVertex
100
AcDb2dVertex
 10
8.995833331084375
 20
16.61582431377836
 30
0.0
  0
VERTEX
  5
155
330
153
100
AcDbEntity
  8
Layer 1
370
     0
100
AcDbVertex
100
AcDb2dVertex
 10
8.748888617553582
 20
16.43943542493357
 30
0.0
  0
VERTEX
  5
156
330
153
100
AcDbEntity
  8
Layer 1
370
     0
100
AcDbVertex
100
AcDb2dVertex
 10
8.67833279286758
 20
16.50998990387915
 30
0.0
  0
VERTEX
  5
157
330
153
100
AcDbEntity
  8
Layer 1
370
     0
100
AcDbVertex
100
AcDb2dVertex
 10
8.995833331084375
 20
16.61582431377836
 30
0.0
  0
SEQEND
  5
158
330
153
100
AcDbEntity
  8
Layer 1
370
     0
  0
POLYLINE
  5
159
330
49
100
AcDbEntity
  8
Layer 1
370
     0
100
AcDb2dPolyline
 66
     1
 10
0.0
 20
0.0
 30
0.0
  0
VERTEX
  5
15A
330
159
100
AcDbEntity
  8
Layer 1
370
     0
100
AcDbVertex
100
AcDb2dVertex
 10
6.349999998412501
 20
16.72165872367758
 30
0.0
  0
VERTEX
  5
15B
330
159
100
AcDbEntity
  8
Layer 1
370
     0
100
AcDbVertex
100
AcDb2dVertex
 10
7.231944442636459
 20
16.50999259536
 30
0.0
  0
VERTEX
  5
15C
330
159
100
AcDbEntity
  8
Layer 1
370
     0
100
AcDbVertex
100
AcDb2dVertex
 10
5.997222220722917
 20
16.15721481767041
 30
0.0
  0
VERTEX
  5
15D
330
159
100
AcDbEntity
  8
Layer 1
370
     0
100
AcDbVertex
100
AcDb2dVertex
 10
5.891389156564126
 20
16.26304922756963
 30
0.0
  0
VERTEX
  5
15E
330
159
100
AcDbEntity
  8
Layer 1
370
     0
100
AcDbVertex
100
AcDb2dVertex
 10
5.785556092405336
 20
16.26304922756963
 30
0.0
  0
VERTEX
  5
15F
330
159
100
AcDbEntity
  8
Layer 1
370
     0
100
AcDbVertex
100
AcDb2dVertex
 10
6.103055957751919
 20
17.49777144948317
 30
0.0
  0
VERTEX
  5
160
330
159
100
AcDbEntity
  8
Layer 1
370
     0
100
AcDbVertex
100
AcDb2dVertex
 10
6.349999998412501
 20
16.72165872367758
 30
0.0
  0
SEQEND
  5
161
330
159
100
AcDbEntity
  8
Layer 1
370
     0
  0
POLYLINE
  5
162
330
49
100
AcDbEntity
  8
Layer 1
370
     0
100
AcDb2dPolyline
 66
     1
 10
0.0
 20
0.0
 30
0.0
  0
VERTEX
  5
163
330
162
100
AcDbEntity
  8
Layer 1
370
     0
100
AcDbVertex
100
AcDb2dVertex
 10
5.468055554188542
 20
16.43943542493357
 30
0.0
  0
VERTEX
  5
164
330
162
100
AcDbEntity
  8
Layer 1
370
     0
100
AcDbVertex
100
AcDb2dVertex
 10
5.185833264749854
 20
16.43943542493357
 30
0.0
  0
VERTEX
  5
165
330
162
100
AcDbEntity
  8
Layer 1
370
     0
100
AcDbVertex
100
AcDb2dVertex
 10
4.268611244618001
 20
17.35665710863032
 30
0.0
  0
VERTEX
  5
166
330
162
100
AcDbEntity
  8
Layer 1
370
     0
100
AcDbVertex
100
AcDb2dVertex
 10
5.150555688841959
 20
17.10971374083995
 30
0.0
  0
VERTEX
  5
167
330
162
100
AcDbEntity
  8
Layer 1
370
     0
100
AcDbVertex
100
AcDb2dVertex
 10
5.785555419535124
 20
17.77999205674633
 30
0.0
  0
VERTEX
  5
168
330
162
100
AcDbEntity
  8
Layer 1
370
     0
100
AcDbVertex
100
AcDb2dVertex
 10
5.468055554188542
 20
16.43943542493357
 30
0.0
  0
SEQEND
  5
169
330
162
100
AcDbEntity
  8
Layer 1
370
     0
  0
SPLINE
  5
16A
330
49
100
AcDbEntity
  8
Layer 1
370
     0
100
AcDbSpline
210
0.0
220
0.0
230
1.0
 70
    11
 71
     3
 72
    23
 73
    19
 74
     0
 42
0.0000000001
 43
0.0000000001
 12
1.0
 22
0.0
 32
0.0
 13
1.0
 23
0.0
 33
0.0
 40
0.0
 40
0.0
 40
0.0
 40
0.0
 40
1.0
 40
1.0
 40
1.0
 40
2.0
 40
2.0
 40
2.0
 40
3.0
 40
3.0
 40
3.0
 40
4.0
 40
4.0
 40
4.0
 40
5.0
 40
5.0
 40
5.0
 40
6.0
 40
6.0
 40
6.0
 40
6.0
 10
4.974166799997167
 20
15.55749098070962
 30
0.0
 10
4.983792544814403
 20
15.50470296684071
 30
0.0
 10
5.008267189469233
 20
15.45575300466083
 30
0.0
 10
5.044722288248063
 20
15.41637933133761
 30
0.0
 10
5.044722288248063
 20
15.41637933133761
 30
0.0
 10
5.185833264749854
 20
15.41637933133761
 30
0.0
 10
5.185833264749854
 20
15.41637933133761
 30
0.0
 10
5.044722288248063
 20
14.99304707470245
 30
0.0
 10
4.938888887654167
 20
14.56971212658644
 30
0.0
 10
4.833055487060271
 20
14.14637986995128
 30
0.0
 10
4.833055487060271
 20
14.14637986995128
 30
0.0
 10
4.586111109964584
 20
14.99304707470245
 30
0.0
 10
4.586111109964584
 20
14.99304707470245
 30
0.0
 10
4.586111109964584
 20
14.99304707470245
 30
0.0
 10
3.704166665740625
 20
15.20471320302003
 30
0.0
 10
3.704166665740625
 20
15.20471320302003
 30
0.0
 10
3.704166665740625
 20
15.20471320302003
 30
0.0
 10
4.974166799997167
 20
15.55749098070962
 30
0.0
 10
4.974166799997167
 20
15.55749098070962
 30
0.0
  0
POLYLINE
  5
16B
330
49
100
AcDbEntity
  8
Layer 1
370
     0
100
AcDb2dPolyline
 66
     1
 10
0.0
 20
0.0
 30
0.0
  0
VERTEX
  5
16C
330
16B
100
AcDbEntity
  8
Layer 1
370
     0
100
AcDbVertex
100
AcDb2dVertex
 10
5.468055554188542
 20
15.23999044249282
 30
0.0
  0
VERTEX
  5
16D
330
16B
100
AcDbEntity
  8
Layer 1
370
     0
100
AcDbVertex
100
AcDb2dVertex
 10
5.679722355376335
 20
15.3105449214384
 30
0.0
  0
VERTEX
  5
16E
330
16B
100
AcDbEntity
  8
Layer 1
370
     0
100
AcDbVertex
100
AcDb2dVertex
 10
5.750278180062335
 20
15.3105449214384
 30
0.0
  0
VERTEX
  5
16F
330
16B
100
AcDbEntity
  8
Layer 1
370
     0
100
AcDbVertex
100
AcDb2dVertex
 10
6.667499863759083
 20
14.42860316869529
 30
0.0
  0
VERTEX
  5
170
330
16B
100
AcDbEntity
  8
Layer 1
370
     0
100
AcDbVertex
100
AcDb2dVertex
 10
5.785555419535124
 20
14.67554653648566
 30
0.0
  0
VERTEX
  5
171
330
16B
100
AcDbEntity
  8
Layer 1
370
     0
100
AcDbVertex
100
AcDb2dVertex
 10
5.150555352406854
 20
14.00526822057928
 30
0.0
  0
VERTEX
  5
172
330
16B
100
AcDbEntity
  8
Layer 1
370
     0
100
AcDbVertex
100
AcDb2dVertex
 10
5.468055554188542
 20
15.23999044249282
 30
0.0
  0
SEQEND
  5
173
330
16B
100
AcDbEntity
  8
Layer 1
370
     0
  0
POLYLINE
  5
174
330
49
100
AcDbEntity
  8
Layer 1
370
     0
100
AcDb2dPolyline
 66
     1
 10
0.0
 20
0.0
 30
0.0
  0
VERTEX
  5
175
330
174
100
AcDbEntity
  8
Layer 1
370
     0
100
AcDbVertex
100
AcDb2dVertex
 10
10.6538891553735
 20
12.62943434929374
 30
0.0
  0
VERTEX
  5
176
330
174
100
AcDbEntity
  8
Layer 1
370
     0
100
AcDbVertex
100
AcDb2dVertex
 10
10.7244449800595
 20
13.01748936645611
 30
0.0
  0
VERTEX
  5
177
330
174
100
AcDbEntity
  8
Layer 1
370
     0
100
AcDbVertex
100
AcDb2dVertex
 10
11.04194484540609
 20
12.77054599866574
 30
0.0
  0
VERTEX
  5
178
330
174
100
AcDbEntity
  8
Layer 1
370
     0
100
AcDbVertex
100
AcDb2dVertex
 10
11.43000053543867
 20
12.87638040856495
 30
0.0
  0
VERTEX
  5
179
330
174
100
AcDbEntity
  8
Layer 1
370
     0
100
AcDbVertex
100
AcDb2dVertex
 10
11.28888888606667
 20
12.45304815192979
 30
0.0
  0
VERTEX
  5
17A
330
174
100
AcDbEntity
  8
Layer 1
370
     0
100
AcDbVertex
100
AcDb2dVertex
 10
11.50055501438425
 20
12.135547613713
 30
0.0
  0
VERTEX
  5
17B
330
174
100
AcDbEntity
  8
Layer 1
370
     0
100
AcDbVertex
100
AcDb2dVertex
 10
11.07722208487887
 20
12.135547613713
 30
0.0
  0
VERTEX
  5
17C
330
174
100
AcDbEntity
  8
Layer 1
370
     0
100
AcDbVertex
100
AcDb2dVertex
 10
10.83027737134808
 20
11.85332431496899
 30
0.0
  0
VERTEX
  5
17D
330
174
100
AcDbEntity
  8
Layer 1
370
     0
100
AcDbVertex
100
AcDb2dVertex
 10
10.68916639484629
 20
12.24137933213136
 30
0.0
  0
VERTEX
  5
17E
330
174
100
AcDbEntity
  8
Layer 1
370
     0
100
AcDbVertex
100
AcDb2dVertex
 10
10.30111070481371
 20
12.41776822097615
 30
0.0
  0
VERTEX
  5
17F
330
174
100
AcDbEntity
  8
Layer 1
370
     0
100
AcDbVertex
100
AcDb2dVertex
 10
10.6538891553735
 20
12.62943434929374
 30
0.0
  0
SEQEND
  5
180
330
174
100
AcDbEntity
  8
Layer 1
370
     0
  0
POLYLINE
  5
181
330
49
100
AcDbEntity
  8
Layer 1
370
     0
100
AcDb2dPolyline
 66
     1
 10
0.0
 20
0.0
 30
0.0
  0
VERTEX
  5
182
330
181
100
AcDbEntity
  8
Layer 1
370
     0
100
AcDbVertex
100
AcDb2dVertex
 10
11.00666693306309
 20
9.313322700715482
 30
0.0
  0
VERTEX
  5
183
330
181
100
AcDbEntity
  8
Layer 1
370
     0
100
AcDbVertex
100
AcDb2dVertex
 10
10.6186112430305
 20
9.313322700715482
 30
0.0
  0
VERTEX
  5
184
330
181
100
AcDbEntity
  8
Layer 1
370
     0
100
AcDbVertex
100
AcDb2dVertex
 10
10.37166652949971
 20
9.031099401971476
 30
0.0
  0
VERTEX
  5
185
330
181
100
AcDbEntity
  8
Layer 1
370
     0
100
AcDbVertex
100
AcDb2dVertex
 10
10.26583346534092
 20
9.419154419133848
 30
0.0
  0
VERTEX
  5
186
330
181
100
AcDbEntity
  8
Layer 1
370
     0
100
AcDbVertex
100
AcDb2dVertex
 10
9.913055687651335
 20
9.56026606850585
 30
0.0
  0
VERTEX
  5
187
330
181
100
AcDbEntity
  8
Layer 1
370
     0
100
AcDbVertex
100
AcDb2dVertex
 10
10.23055555299792
 20
9.771932196823432
 30
0.0
  0
VERTEX
  5
188
330
181
100
AcDbEntity
  8
Layer 1
370
     0
100
AcDbVertex
100
AcDb2dVertex
 10
10.23055555299792
 20
10.12470997451302
 30
0.0
  0
VERTEX
  5
189
330
181
100
AcDbEntity
  8
Layer 1
370
     0
100
AcDbVertex
100
AcDb2dVertex
 10
10.5480554183445
 20
9.877766606722645
 30
0.0
  0
VERTEX
  5
18A
330
181
100
AcDbEntity
  8
Layer 1
370
     0
100
AcDbVertex
100
AcDb2dVertex
 10
10.90083319603408
 20
9.98360101662186
 30
0.0
  0
VERTEX
  5
18B
330
181
100
AcDbEntity
  8
Layer 1
370
     0
100
AcDbVertex
100
AcDb2dVertex
 10
10.79500013187529
 20
9.595545999459487
 30
0.0
  0
VERTEX
  5
18C
330
181
100
AcDbEntity
  8
Layer 1
370
     0
100
AcDbVertex
100
AcDb2dVertex
 10
11.00666693306309
 20
9.313322700715482
 30
0.0
  0
SEQEND
  5
18D
330
181
100
AcDbEntity
  8
Layer 1
370
     0
  0
POLYLINE
  5
18E
330
49
100
AcDbEntity
  8
Layer 1
370
     0
100
AcDb2dPolyline
 66
     1
 10
0.0
 20
0.0
 30
0.0
  0
VERTEX
  5
18F
330
18E
100
AcDbEntity
  8
Layer 1
370
     0
100
AcDbVertex
100
AcDb2dVertex
 10
10.83027804421829
 20
8.819433273653896
 30
0.0
  0
VERTEX
  5
190
330
18E
100
AcDbEntity
  8
Layer 1
370
     0
100
AcDbVertex
100
AcDb2dVertex
 10
11.25361164659388
 20
8.819433273653896
 30
0.0
  0
VERTEX
  5
191
330
18E
100
AcDbEntity
  8
Layer 1
370
     0
100
AcDbVertex
100
AcDb2dVertex
 10
10.47750026652871
 20
8.360821086065098
 30
0.0
  0
VERTEX
  5
192
330
18E
100
AcDbEntity
  8
Layer 1
370
     0
100
AcDbVertex
100
AcDb2dVertex
 10
10.83027804421829
 20
8.819433273653896
 30
0.0
  0
SEQEND
  5
193
330
18E
100
AcDbEntity
  8
Layer 1
370
     0
  0
POLYLINE
  5
194
330
49
100
AcDbEntity
  8
Layer 1
370
     0
100
AcDb2dPolyline
 66
     1
 10
0.0
 20
0.0
 30
0.0
  0
VERTEX
  5
195
330
194
100
AcDbEntity
  8
Layer 1
370
     0
100
AcDbVertex
100
AcDb2dVertex
 10
16.40416666256563
 20
14.46387771668723
 30
0.0
  0
VERTEX
  5
196
330
194
100
AcDbEntity
  8
Layer 1
370
     0
100
AcDbVertex
100
AcDb2dVertex
 10
17.2508338673168
 20
14.95776714374882
 30
0.0
  0
VERTEX
  5
197
330
194
100
AcDbEntity
  8
Layer 1
370
     0
100
AcDbVertex
100
AcDb2dVertex
 10
17.35666693147559
 20
15.83971158797277
 30
0.0
  0
VERTEX
  5
198
330
194
100
AcDbEntity
  8
Layer 1
370
     0
100
AcDbVertex
100
AcDb2dVertex
 10
18.09749972632754
 20
15.27526768196561
 30
0.0
  0
VERTEX
  5
199
330
194
100
AcDbEntity
  8
Layer 1
370
     0
100
AcDbVertex
100
AcDb2dVertex
 10
19.01472141002429
 20
15.52221104975598
 30
0.0
  0
VERTEX
  5
19A
330
194
100
AcDbEntity
  8
Layer 1
370
     0
100
AcDbVertex
100
AcDb2dVertex
 10
18.69722221754792
 20
14.49915764764087
 30
0.0
  0
VERTEX
  5
19B
330
194
100
AcDbEntity
  8
Layer 1
370
     0
100
AcDbVertex
100
AcDb2dVertex
 10
19.22638888408229
 20
13.72304761331612
 30
0.0
  0
VERTEX
  5
19C
330
194
100
AcDbEntity
  8
Layer 1
370
     0
100
AcDbVertex
100
AcDb2dVertex
 10
18.20333279048633
 20
13.7936020922617
 30
0.0
  0
VERTEX
  5
19D
330
194
100
AcDbEntity
  8
Layer 1
370
     0
100
AcDbVertex
100
AcDb2dVertex
 10
17.60361029926596
 20
13.15860101582811
 30
0.0
  0
VERTEX
  5
19E
330
194
100
AcDbEntity
  8
Layer 1
370
     0
100
AcDbVertex
100
AcDb2dVertex
 10
17.28611110678958
 20
14.0758253910057
 30
0.0
  0
VERTEX
  5
19F
330
194
100
AcDbEntity
  8
Layer 1
370
     0
100
AcDbVertex
100
AcDb2dVertex
 10
16.40416666256563
 20
14.46387771668723
 30
0.0
  0
SEQEND
  5
1A0
330
194
100
AcDbEntity
  8
Layer 1
370
     0
  0
POLYLINE
  5
1A1
330
49
100
AcDbEntity
  8
Layer 1
370
     0
100
AcDb2dPolyline
 66
     1
 10
0.0
 20
0.0
 30
0.0
  0
VERTEX
  5
1A2
330
1A1
100
AcDbEntity
  8
Layer 1
370
     0
100
AcDbVertex
100
AcDb2dVertex
 10
20.28472221715104
 20
14.60498936605923
 30
0.0
  0
VERTEX
  5
1A3
330
1A1
100
AcDbEntity
  8
Layer 1
370
     0
100
AcDbVertex
100
AcDb2dVertex
 10
21.025555012003
 20
14.25221158836965
 30
0.0
  0
VERTEX
  5
1A4
330
1A1
100
AcDbEntity
  8
Layer 1
370
     0
100
AcDbVertex
100
AcDb2dVertex
 10
21.41361002916537
 20
12.8763777170841
 30
0.0
  0
VERTEX
  5
1A5
330
1A1
100
AcDbEntity
  8
Layer 1
370
     0
100
AcDbVertex
100
AcDb2dVertex
 10
20.28472221715104
 20
14.60498936605923
 30
0.0
  0
SEQEND
  5
1A6
330
1A1
100
AcDbEntity
  8
Layer 1
370
     0
  0
POLYLINE
  5
1A7
330
49
100
AcDbEntity
  8
Layer 1
370
     0
100
AcDb2dPolyline
 66
     1
 10
0.0
 20
0.0
 30
0.0
  0
VERTEX
  5
1A8
330
1A7
100
AcDbEntity
  8
Layer 1
370
     0
100
AcDbVertex
100
AcDb2dVertex
 10
21.237222486061
 20
14.81665549437681
 30
0.0
  0
VERTEX
  5
1A9
330
1A7
100
AcDbEntity
  8
Layer 1
370
     0
100
AcDbVertex
100
AcDb2dVertex
 10
21.48416719959179
 20
14.95776714374882
 30
0.0
  0
VERTEX
  5
1AA
330
1A7
100
AcDbEntity
  8
Layer 1
370
     0
100
AcDbVertex
100
AcDb2dVertex
 10
21.48416719959179
 20
15.23999044249282
 30
0.0
  0
VERTEX
  5
1AB
330
1A7
100
AcDbEntity
  8
Layer 1
370
     0
100
AcDbVertex
100
AcDb2dVertex
 10
21.73111191312259
 20
15.06360155364803
 30
0.0
  0
VERTEX
  5
1AC
330
1A7
100
AcDbEntity
  8
Layer 1
370
     0
100
AcDbVertex
100
AcDb2dVertex
 10
22.01333386612617
 20
15.13415603259361
 30
0.0
  0
VERTEX
  5
1AD
330
1A7
100
AcDbEntity
  8
Layer 1
370
     0
100
AcDbVertex
100
AcDb2dVertex
 10
21.94277804144017
 20
14.81665549437681
 30
0.0
  0
VERTEX
  5
1AE
330
1A7
100
AcDbEntity
  8
Layer 1
370
     0
100
AcDbVertex
100
AcDb2dVertex
 10
22.08388969081217
 20
14.56971212658644
 30
0.0
  0
VERTEX
  5
1AF
330
1A7
100
AcDbEntity
  8
Layer 1
370
     0
100
AcDbVertex
100
AcDb2dVertex
 10
21.76638915259538
 20
14.56971212658644
 30
0.0
  0
VERTEX
  5
1B0
330
1A7
100
AcDbEntity
  8
Layer 1
370
     0
100
AcDbVertex
100
AcDb2dVertex
 10
21.59000026375059
 20
14.39332323774165
 30
0.0
  0
VERTEX
  5
1B1
330
1A7
100
AcDbEntity
  8
Layer 1
370
     0
100
AcDbVertex
100
AcDb2dVertex
 10
21.48416719959179
 20
14.67554653648566
 30
0.0
  0
VERTEX
  5
1B2
330
1A7
100
AcDbEntity
  8
Layer 1
370
     0
100
AcDbVertex
100
AcDb2dVertex
 10
21.237222486061
 20
14.81665549437681
 30
0.0
  0
SEQEND
  5
1B3
330
1A7
100
AcDbEntity
  8
Layer 1
370
     0
  0
SPLINE
  5
1B4
330
49
100
AcDbEntity
  8
Layer 1
370
     0
100
AcDbSpline
210
0.0
220
0.0
230
1.0
 70
    11
 71
     3
 72
    23
 73
    19
 74
     0
 42
0.0000000001
 43
0.0000000001
 12
1.0
 22
0.0
 32
0.0
 13
1.0
 23
0.0
 33
0.0
 40
0.0
 40
0.0
 40
0.0
 40
0.0
 40
1.0
 40
1.0
 40
1.0
 40
2.0
 40
2.0
 40
2.0
 40
3.0
 40
3.0
 40
3.0
 40
4.0
 40
4.0
 40
4.0
 40
5.0
 40
5.0
 40
5.0
 40
6.0
 40
6.0
 40
6.0
 40
6.0
 10
25.64694336144037
 20
15.06359886216718
 30
0.0
 10
26.00656826640689
 20
15.20456248009255
 30
0.0
 10
26.389568682537
 20
15.27637657207493
 30
0.0
 10
26.7758311734547
 20
15.27526499048476
 30
0.0
 10
27.04774879203228
 20
15.31271963796346
 30
0.0
 10
27.32160158533947
 20
15.22143537352773
 30
0.0
 10
27.51666396830665
 20
15.02832162269439
 30
0.0
 10
27.55194120777944
 20
15.02832162269439
 30
0.0
 10
27.55194120777944
 20
14.9930443832216
 30
0.0
 10
27.55194120777944
 20
14.95776714374882
 30
0.0
 10
27.55194120777944
 20
14.92248990427603
 30
0.0
 10
27.37555231893465
 20
14.74610101543123
 30
0.0
 10
27.09332902019064
 20
14.71082377595845
 30
0.0
 10
26.58330685692704
 20
14.62735557190488
 30
0.0
 10
26.06125915723523
 20
14.75468414785503
 30
0.0
 10
25.64694336144037
 20
15.06360424512888
 30
0.0
 10
25.64694336144037
 20
15.06360424512888
 30
0.0
 10
25.64694336144037
 20
15.06359886216718
 30
0.0
 10
25.64694336144037
 20
15.06359886216718
 30
0.0
  0
SPLINE
  5
1B5
330
49
100
AcDbEntity
  8
Layer 1
370
     0
100
AcDbSpline
210
0.0
220
0.0
230
1.0
 70
    11
 71
     3
 72
    14
 73
    10
 74
     0
 42
0.0000000001
 43
0.0000000001
 12
1.0
 22
0.0
 32
0.0
 13
1.0
 23
0.0
 33
0.0
 40
0.0
 40
0.0
 40
0.0
 40
0.0
 40
1.0
 40
1.0
 40
1.0
 40
2.0
 40
2.0
 40
2.0
 40
3.0
 40
3.0
 40
3.0
 40
3.0
 10
24.83555608764284
 20
42.6861031279874
 30
0.0
 10
26.17611271945559
 20
43.10943647803666
 30
0.0
 10
26.66999945503633
 20
42.05110322907669
 30
0.0
 10
26.10555554902917
 20
40.78110309482015
 30
0.0
 10
24.53662407579537
 20
39.43927675691742
 30
0.0
 10
22.55951742032109
 20
38.66832931929395
 30
0.0
 10
20.49638834546862
 20
38.59388094043175
 30
0.0
 10
21.27489918070965
 20
40.52676353765987
 30
0.0
 10
22.86042363337045
 20
42.02205340341561
 30
0.0
 10
24.83555608764284
 20
42.6861031279874
 30
0.0
  0
SPLINE
  5
1B6
330
49
100
AcDbEntity
  8
Layer 1
370
     0
100
AcDbSpline
210
0.0
220
0.0
230
1.0
 70
    11
 71
     3
 72
    26
 73
    22
 74
     0
 42
0.0000000001
 43
0.0000000001
 12
1.0
 22
0.0
 32
0.0
 13
1.0
 23
0.0
 33
0.0
 40
0.0
 40
0.0
 40
0.0
 40
0.0
 40
1.0
 40
1.0
 40
1.0
 40
2.0
 40
2.0
 40
2.0
 40
3.0
 40
3.0
 40
3.0
 40
4.0
 40
4.0
 40
4.0
 40
5.0
 40
5.0
 40
5.0
 40
6.0
 40
6.0
 40
6.0
 40
7.0
 40
7.0
 40
7.0
 40
7.0
 10
21.48416719959179
 20
31.99693622848845
 30
0.0
 10
21.48416719959179
 20
31.99693622848845
 30
0.0
 10
21.5547230242778
 20
31.89110316432966
 30
0.0
 10
21.5547230242778
 20
31.89110316432966
 30
0.0
 10
21.52892652609156
 20
31.86216839947484
 30
0.0
 10
21.51616890687275
 20
31.82389554181839
 30
0.0
 10
21.51944578480501
 20
31.78527010017087
 30
0.0
 10
20.81389022942584
 20
31.99693622848845
 30
0.0
 10
20.10833467404667
 20
32.20860370254645
 30
0.0
 10
19.40277911866751
 20
32.34971400617804
 30
0.0
 10
19.29694605450872
 20
32.49082565555004
 30
0.0
 10
19.22639022982272
 20
32.66721454439483
 30
0.0
 10
19.12055716566393
 20
32.84360343323962
 30
0.0
 10
19.12055716566393
 20
32.84360343323962
 30
0.0
 10
19.08527992619114
 20
32.84360343323962
 30
0.0
 10
19.08527992619114
 20
32.84360343323962
 30
0.0
 10
18.76739181473225
 20
33.46959006744355
 30
0.0
 10
18.53030868702799
 20
34.13342161384911
 30
0.0
 10
18.37972437081197
 20
34.81915912287533
 30
0.0
 10
18.37972437081197
 20
34.81915912287533
 30
0.0
 10
21.48416719959179
 20
31.99693622848845
 30
0.0
 10
21.48416719959179
 20
31.99693622848845
 30
0.0
  0
SPLINE
  5
1B7
330
49
100
AcDbEntity
  8
Layer 1
370
     0
100
AcDbSpline
210
0.0
220
0.0
230
1.0
 70
    11
 71
     3
 72
    29
 73
    25
 74
     0
 42
0.0000000001
 43
0.0000000001
 12
1.0
 22
0.0
 32
0.0
 13
1.0
 23
0.0
 33
0.0
 40
0.0
 40
0.0
 40
0.0
 40
0.0
 40
1.0
 40
1.0
 40
1.0
 40
2.0
 40
2.0
 40
2.0
 40
3.0
 40
3.0
 40
3.0
 40
4.0
 40
4.0
 40
4.0
 40
5.0
 40
5.0
 40
5.0
 40
6.0
 40
6.0
 40
6.0
 40
7.0
 40
7.0
 40
7.0
 40
8.0
 40
8.0
 40
8.0
 40
8.0
 10
16.22777777372083
 20
38.31165898742817
 30
0.0
 10
16.38176143024769
 20
38.45208296344354
 30
0.0
 10
16.58387280155539
 20
38.52787439124883
 30
0.0
 10
16.792221679728
 20
38.52332578861596
 30
0.0
 10
16.99314476224138
 20
38.50953598649199
 30
0.0
 10
17.18175970283754
 20
38.42151581545449
 30
0.0
 10
17.32138834626237
 20
38.27638107508516
 30
0.0
 10
17.46181232227775
 20
38.1223967456881
 30
0.0
 10
17.53760307721282
 20
37.92028537438039
 30
0.0
 10
17.53305447457995
 20
37.71193649620779
 30
0.0
 10
17.52666086182588
 20
37.50917715088596
 30
0.0
 10
17.43740328246858
 20
37.31790908304404
 30
0.0
 10
17.28610976104916
 20
37.18276982967341
 30
0.0
 10
17.12866351441155
 20
37.04810696841286
 30
0.0
 10
16.92883451886282
 20
36.97317143151719
 30
0.0
 10
16.721665855042
 20
36.97110302848562
 30
0.0
 10
16.51890583684996
 20
36.97749596836948
 30
0.0
 10
16.32763844187824
 20
37.06675422059699
 30
0.0
 10
16.19249918850762
 20
37.21804774201642
 30
0.0
 10
16.03654402225972
 20
37.36206282635304
 30
0.0
 10
15.95802679722577
 20
37.57144186882016
 30
0.0
 10
15.98083306019004
 20
37.78249232089379
 30
0.0
 10
15.97235085829804
 20
37.988513068133
 30
0.0
 10
16.06443045532431
 20
38.18582552908899
 30
0.0
 10
16.22777777372083
 20
38.31165898742817
 30
0.0
  0
SPLINE
  5
1B8
330
49
100
AcDbEntity
  8
Layer 1
370
     0
100
AcDbSpline
210
0.0
220
0.0
230
1.0
 70
    11
 71
     3
 72
    29
 73
    25
 74
     0
 42
0.0000000001
 43
0.0000000001
 12
1.0
 22
0.0
 32
0.0
 13
1.0
 23
0.0
 33
0.0
 40
0.0
 40
0.0
 40
0.0
 40
0.0
 40
1.0
 40
1.0
 40
1.0
 40
2.0
 40
2.0
 40
2.0
 40
3.0
 40
3.0
 40
3.0
 40
4.0
 40
4.0
 40
4.0
 40
5.0
 40
5.0
 40
5.0
 40
6.0
 40
6.0
 40
6.0
 40
7.0
 40
7.0
 40
7.0
 40
8.0
 40
8.0
 40
8.0
 40
8.0
 10
14.04055528289733
 20
32.87888067271241
 30
0.0
 10
14.04055528289733
 20
32.87888067271241
 30
0.0
 10
14.04055528289733
 20
32.87888067271241
 30
0.0
 10
14.04055528289733
 20
32.87888067271241
 30
0.0
 10
14.04055528289733
 20
32.84360343323962
 30
0.0
 10
14.00527804342454
 20
32.84360343323962
 30
0.0
 10
14.00527804342454
 20
32.80832484802641
 30
0.0
 10
14.00527804342454
 20
32.80832484802641
 30
0.0
 10
13.72305609042096
 20
32.45554707033683
 30
0.0
 10
13.72305609042096
 20
32.45554707033683
 30
0.0
 10
12.98277235766197
 20
32.3452286533451
 30
0.0
 10
12.2516921436622
 20
32.1801453298017
 30
0.0
 10
11.53583359959746
 20
31.96165764327524
 30
0.0
 10
11.53583359959746
 20
31.96165764327524
 30
0.0
 10
11.53583359959746
 20
32.03221346796124
 30
0.0
 10
11.53583359959746
 20
32.03221346796124
 30
0.0
 10
11.53583359959746
 20
32.03221346796124
 30
0.0
 10
11.74749972791504
 20
32.34971400617804
 30
0.0
 10
11.74749972791504
 20
32.34971400617804
 30
0.0
 10
11.74749972791504
 20
32.34971400617804
 30
0.0
 10
15.06361003075287
 20
34.96026942650691
 30
0.0
 10
15.06361003075287
 20
34.96026942650691
 30
0.0
 10
14.82009695530309
 20
34.22265967997026
 30
0.0
 10
14.47582291135229
 20
33.52223879717858
 30
0.0
 10
14.04055528289733
 20
32.87888067271241
 30
0.0
  0
SPLINE
  5
1B9
330
49
100
AcDbEntity
  8
Layer 1
370
     0
100
AcDbSpline
210
0.0
220
0.0
230
1.0
 70
    11
 71
     3
 72
    14
 73
    10
 74
     0
 42
0.0000000001
 43
0.0000000001
 12
1.0
 22
0.0
 32
0.0
 13
1.0
 23
0.0
 33
0.0
 40
0.0
 40
0.0
 40
0.0
 40
0.0
 40
1.0
 40
1.0
 40
1.0
 40
2.0
 40
2.0
 40
2.0
 40
3.0
 40
3.0
 40
3.0
 40
3.0
 10
7.655278045012044
 20
41.48665865019931
 30
0.0
 10
7.16138929082067
 20
42.79193636036375
 30
0.0
 10
7.761111109170834
 20
43.7797142051816
 30
0.0
 10
9.031111243427375
 20
43.25054753864723
 30
0.0
 10
10.96478345384925
 20
42.47643105054298
 30
0.0
 10
12.44359741959486
 20
40.86789729633144
 30
0.0
 10
13.05277777451458
 20
38.87610322987044
 30
0.0
 10
11.00312629000774
 20
39.08634220046844
 30
0.0
 10
9.092600142007178
 20
40.01038779741981
 30
0.0
 10
7.655278045012044
 20
41.48665865019931
 30
0.0
  0
SPLINE
  5
1BA
330
49
100
AcDbEntity
  8
Layer 1
370
     0
100
AcDbSpline
210
0.0
220
0.0
230
1.0
 70
    11
 71
     3
 72
   155
 73
   151
 74
     0
 42
0.0000000001
 43
0.0000000001
 12
1.0
 22
0.0
 32
0.0
 13
1.0
 23
0.0
 33
0.0
 40
0.0
 40
0.0
 40
0.0
 40
0.0
 40
1.0
 40
1.0
 40
1.0
 40
2.0
 40
2.0
 40
2.0
 40
3.0
 40
3.0
 40
3.0
 40
4.0
 40
4.0
 40
4.0
 40
5.0
 40
5.0
 40
5.0
 40
6.0
 40
6.0
 40
6.0
 40
7.0
 40
7.0
 40
7.0
 40
8.0
 40
8.0
 40
8.0
 40
9.0
 40
9.0
 40
9.0
 40
10.0
 40
10.0
 40
10.0
 40
11.0
 40
11.0
 40
11.0
 40
12.0
 40
12.0
 40
12.0
 40
13.0
 40
13.0
 40
13.0
 40
14.0
 40
14.0
 40
14.0
 40
15.0
 40
15.0
 40
15.0
 40
16.0
 40
16.0
 40
16.0
 40
17.0
 40
17.0
 40
17.0
 40
18.0
 40
18.0
 40
18.0
 40
19.0
 40
19.0
 40
19.0
 40
20.0
 40
20.0
 40
20.0
 40
21.0
 40
21.0
 40
21.0
 40
22.0
 40
22.0
 40
22.0
 40
23.0
 40
23.0
 40
23.0
 40
24.0
 40
24.0
 40
24.0
 40
25.0
 40
25.0
 40
25.0
 40
26.0
 40
26.0
 40
26.0
 40
27.0
 40
27.0
 40
27.0
 40
28.0
 40
28.0
 40
28.0
 40
29.0
 40
29.0
 40
29.0
 40
30.0
 40
30.0
 40
30.0
 40
31.0
 40
31.0
 40
31.0
 40
32.0
 40
32.0
 40
32.0
 40
33.0
 40
33.0
 40
33.0
 40
34.0
 40
34.0
 40
34.0
 40
35.0
 40
35.0
 40
35.0
 40
36.0
 40
36.0
 40
36.0
 40
37.0
 40
37.0
 40
37.0
 40
38.0
 40
38.0
 40
38.0
 40
39.0
 40
39.0
 40
39.0
 40
40.0
 40
40.0
 40
40.0
 40
41.0
 40
41.0
 40
41.0
 40
42.0
 40
42.0
 40
42.0
 40
43.0
 40
43.0
 40
43.0
 40
44.0
 40
44.0
 40
44.0
 40
45.0
 40
45.0
 40
45.0
 40
46.0
 40
46.0
 40
46.0
 40
47.0
 40
47.0
 40
47.0
 40
48.0
 40
48.0
 40
48.0
 40
49.0
 40
49.0
 40
49.0
 40
50.0
 40
50.0
 40
50.0
 40
50.0
 10
7.33777817966546
 20
27.44610370373708
 30
0.0
 10
7.33777817966546
 20
27.44610370373708
 30
0.0
 10
8.36083360039121
 20
27.0227701013615
 30
0.0
 10
8.36083360039121
 20
27.0227701013615
 30
0.0
 10
8.36083360039121
 20
27.0227701013615
 30
0.0
 10
8.572500401579003
 20
26.28193730650954
 30
0.0
 10
8.572500401579003
 20
26.28193730650954
 30
0.0
 10
8.572500401579003
 20
26.28193730650954
 30
0.0
 10
8.572500401579003
 20
24.41221535390284
 30
0.0
 10
8.572500401579003
 20
24.41221535390284
 30
0.0
 10
8.572500401579003
 20
24.41221535390284
 30
0.0
 10
7.267222354979459
 20
23.56554814915167
 30
0.0
 10
7.267222354979459
 20
23.56554814915167
 30
0.0
 10
7.267222354979459
 20
23.56554814915167
 30
0.0
 10
8.678333465737794
 20
22.96582565793129
 30
0.0
 10
8.678333465737794
 20
22.96582565793129
 30
0.0
 10
8.678333465737794
 20
22.96582565793129
 30
0.0
 10
9.172222219929168
 20
21.48415872248696
 30
0.0
 10
9.172222219929168
 20
21.48415872248696
 30
0.0
 10
9.172222219929168
 20
21.48415872248696
 30
0.0
 10
10.05416666415313
 20
22.6483251197145
 30
0.0
 10
10.05416666415313
 20
22.6483251197145
 30
0.0
 10
10.05416666415313
 20
22.6483251197145
 30
0.0
 10
11.28888888606667
 20
22.54249205555571
 30
0.0
 10
11.28888888606667
 20
22.54249205555571
 30
0.0
 10
11.28888888606667
 20
22.54249205555571
 30
0.0
 10
11.28888888606667
 20
22.22499151733891
 30
0.0
 10
11.28888888606667
 20
22.22499151733891
 30
0.0
 10
11.28888888606667
 20
22.22499151733891
 30
0.0
 10
9.383889021116959
 20
20.95499205595258
 30
0.0
 10
9.383889021116959
 20
20.95499205595258
 30
0.0
 10
9.383889021116959
 20
20.95499205595258
 30
0.0
 10
10.01888875181012
 20
20.60221427826299
 30
0.0
 10
10.01888875181012
 20
20.60221427826299
 30
0.0
 10
10.01888875181012
 20
20.60221427826299
 30
0.0
 10
9.560277909961751
 20
20.46110262889099
 30
0.0
 10
9.560277909961751
 20
20.46110262889099
 30
0.0
 10
9.560277909961751
 20
20.46110262889099
 30
0.0
 10
8.678333465737794
 20
21.20193542374295
 30
0.0
 10
8.678333465737794
 20
21.20193542374295
 30
0.0
 10
8.678333465737794
 20
21.20193542374295
 30
0.0
 10
8.537222489236003
 20
20.07304761172862
 30
0.0
 10
8.537222489236003
 20
20.07304761172862
 30
0.0
 10
8.537222489236003
 20
20.07304761172862
 30
0.0
 10
7.655278045012044
 20
19.47332646624867
 30
0.0
 10
7.655278045012044
 20
19.47332646624867
 30
0.0
 10
7.655278045012044
 20
19.47332646624867
 30
0.0
 10
7.937499998015626
 20
19.33221481687666
 30
0.0
 10
7.937499998015626
 20
19.33221481687666
 30
0.0
 10
7.937499998015626
 20
19.33221481687666
 30
0.0
 10
6.491110974914291
 20
18.9441597997143
 30
0.0
 10
6.491110974914291
 20
18.9441597997143
 30
0.0
 10
6.491110974914291
 20
18.9441597997143
 30
0.0
 10
6.632221951416082
 20
19.47332646624867
 30
0.0
 10
6.632221951416082
 20
19.47332646624867
 30
0.0
 10
6.632221951416082
 20
19.47332646624867
 30
0.0
 10
7.549444307983041
 20
19.72026983403904
 30
0.0
 10
7.549444307983041
 20
19.72026983403904
 30
0.0
 10
7.549444307983041
 20
19.72026983403904
 30
0.0
 10
7.655277372141832
 20
20.17888202162784
 30
0.0
 10
7.655277372141832
 20
20.17888202162784
 30
0.0
 10
7.655277372141832
 20
20.17888202162784
 30
0.0
 10
6.773332927917873
 20
19.93193865383747
 30
0.0
 10
6.773332927917873
 20
19.93193865383747
 30
0.0
 10
6.773332927917873
 20
19.93193865383747
 30
0.0
 10
6.914443904419664
 20
20.49638255984463
 30
0.0
 10
6.914443904419664
 20
20.49638255984463
 30
0.0
 10
6.914443904419664
 20
20.49638255984463
 30
0.0
 10
6.52638821438708
 20
20.60221696974384
 30
0.0
 10
6.52638821438708
 20
20.60221696974384
 30
0.0
 10
6.52638821438708
 20
20.60221696974384
 30
0.0
 10
6.385277237885289
 20
20.03777306373668
 30
0.0
 10
6.385277237885289
 20
20.03777306373668
 30
0.0
 10
6.385277237885289
 20
20.03777306373668
 30
0.0
 10
5.714999594849123
 20
20.70805137964306
 30
0.0
 10
5.714999594849123
 20
20.70805137964306
 30
0.0
 10
5.714999594849123
 20
20.70805137964306
 30
0.0
 10
5.573888618347332
 20
20.24943919205426
 30
0.0
 10
5.573888618347332
 20
20.24943919205426
 30
0.0
 10
5.573888618347332
 20
20.24943919205426
 30
0.0
 10
6.244166261383498
 20
19.57916087614788
 30
0.0
 10
6.244166261383498
 20
19.57916087614788
 30
0.0
 10
6.244166261383498
 20
19.57916087614788
 30
0.0
 10
6.103055284881707
 20
19.04999420961351
 30
0.0
 10
6.103055284881707
 20
19.04999420961351
 30
0.0
 10
6.103055284881707
 20
19.04999420961351
 30
0.0
 10
4.974166463562062
 20
20.21416195258147
 30
0.0
 10
4.974166463562062
 20
20.21416195258147
 30
0.0
 10
4.974166463562062
 20
20.21416195258147
 30
0.0
 10
4.833055487060271
 20
19.75554976499268
 30
0.0
 10
4.833055487060271
 20
19.75554976499268
 30
0.0
 10
4.833055487060271
 20
19.75554976499268
 30
0.0
 10
5.820833331878125
 20
18.7677709108695
 30
0.0
 10
5.820833331878125
 20
18.7677709108695
 30
0.0
 10
5.820833331878125
 20
18.7677709108695
 30
0.0
 10
4.974166799997167
 20
18.55610478255192
 30
0.0
 10
4.974166799997167
 20
18.55610478255192
 30
0.0
 10
4.974166799997167
 20
18.55610478255192
 30
0.0
 10
5.29166666534375
 20
18.20332700486234
 30
0.0
 10
5.29166666534375
 20
18.20332700486234
 30
0.0
 10
5.29166666534375
 20
18.20332700486234
 30
0.0
 10
5.785555419535124
 20
18.34443865423434
 30
0.0
 10
5.785555419535124
 20
18.34443865423434
 30
0.0
 10
5.785555419535124
 20
18.34443865423434
 30
0.0
 10
5.679722355376335
 20
17.95638094559112
 30
0.0
 10
5.679722355376335
 20
17.95638094559112
 30
0.0
 10
5.679722355376335
 20
17.95638094559112
 30
0.0
 10
4.938888887654167
 20
17.74471481727354
 30
0.0
 10
4.938888887654167
 20
17.74471481727354
 30
0.0
 10
4.938888887654167
 20
17.74471481727354
 30
0.0
 10
4.233333332275
 20
17.53304868895596
 30
0.0
 10
4.233333332275
 20
17.53304868895596
 30
0.0
 10
4.233333332275
 20
17.53304868895596
 30
0.0
 10
3.951111042836312
 20
17.85054922717276
 30
0.0
 10
3.951111042836312
 20
17.85054922717276
 30
0.0
 10
3.951111042836312
 20
17.85054922717276
 30
0.0
 10
4.409722221119792
 20
17.95638363707197
 30
0.0
 10
4.409722221119792
 20
17.95638363707197
 30
0.0
 10
4.409722221119792
 20
17.95638363707197
 30
0.0
 10
4.550833197621583
 20
18.41499582466077
 30
0.0
 10
4.550833197621583
 20
18.41499582466077
 30
0.0
 10
4.550833197621583
 20
18.41499582466077
 30
0.0
 10
3.704166665740625
 20
18.20332969634319
 30
0.0
 10
3.704166665740625
 20
18.20332969634319
 30
0.0
 10
3.704166665740625
 20
18.20332969634319
 30
0.0
 10
4.056944443430209
 20
19.54388632815594
 30
0.0
 10
4.056944443430209
 20
19.54388632815594
 30
0.0
 10
4.056944443430209
 20
19.54388632815594
 30
0.0
 10
3.704166665740625
 20
19.86138686637274
 30
0.0
 10
3.704166665740625
 20
19.86138686637274
 30
0.0
 10
3.704166665740625
 20
19.86138686637274
 30
0.0
 10
3.316110975708041
 20
18.30915872328071
 30
0.0
 10
3.316110975708041
 20
18.30915872328071
 30
0.0
 10
3.316110975708041
 20
18.30915872328071
 30
0.0
 10
2.892777709767562
 20
18.69721374044308
 30
0.0
 10
2.892777709767562
 20
18.69721374044308
 30
0.0
 10
2.892777709767562
 20
18.69721374044308
 30
0.0
 10
3.139722086863249
 20
19.57915818466704
 30
0.0
 10
3.139722086863249
 20
19.57915818466704
 30
0.0
 10
3.139722086863249
 20
19.57915818466704
 30
0.0
 10
2.822222053299114
 20
19.93193596235662
 30
0.0
 10
2.822222053299114
 20
19.93193596235662
 30
0.0
 10
2.822222053299114
 20
19.93193596235662
 30
0.0
 10
2.57527784442098
 20
19.01471427865987
 30
0.0
 10
2.57527784442098
 20
19.01471427865987
 30
0.0
 10
2.57527784442098
 20
19.01471427865987
 30
0.0
 10
2.328333467325292
 20
19.26165764645024
 30
0.0
 10
2.328333467325292
 20
19.26165764645024
 30
0.0
 10
3.007401823245647
 20
22.48465213213538
 30
0.0
 10
4.776562313369187
 20
25.37511281332804
 30
0.0
 10
7.33777817966546
 20
27.44610370373708
 30
0.0
  0
POLYLINE
  5
1BB
330
49
100
AcDbEntity
  8
Layer 1
370
     0
100
AcDb2dPolyline
 66
     1
 10
0.0
 20
0.0
 30
0.0
  0
VERTEX
  5
1BC
330
1BB
100
AcDbEntity
  8
Layer 1
370
     0
100
AcDbVertex
100
AcDb2dVertex
 10
2.222500066731396
 20
18.80304815034229
 30
0.0
  0
VERTEX
  5
1BD
330
1BB
100
AcDbEntity
  8
Layer 1
370
     0
100
AcDbVertex
100
AcDb2dVertex
 10
2.293055554982292
 20
18.73249367139671
 30
0.0
  0
VERTEX
  5
1BE
330
1BB
100
AcDbEntity
  8
Layer 1
370
     0
100
AcDbVertex
100
AcDb2dVertex
 10
2.222500066731396
 20
18.73249367139671
 30
0.0
  0
VERTEX
  5
1BF
330
1BB
100
AcDbEntity
  8
Layer 1
370
     0
100
AcDbVertex
100
AcDb2dVertex
 10
2.222500066731396
 20
18.80304815034229
 30
0.0
  0
SEQEND
  5
1C0
330
1BB
100
AcDbEntity
  8
Layer 1
370
     0
  0
SPLINE
  5
1C1
330
49
100
AcDbEntity
  8
Layer 1
370
     0
100
AcDbSpline
210
0.0
220
0.0
230
1.0
 70
    11
 71
     3
 72
    17
 73
    13
 74
     0
 42
0.0000000001
 43
0.0000000001
 12
1.0
 22
0.0
 32
0.0
 13
1.0
 23
0.0
 33
0.0
 40
0.0
 40
0.0
 40
0.0
 40
0.0
 40
1.0
 40
1.0
 40
1.0
 40
2.0
 40
2.0
 40
2.0
 40
3.0
 40
3.0
 40
3.0
 40
4.0
 40
4.0
 40
4.0
 40
4.0
 10
2.151944578480501
 20
18.27388148380792
 30
0.0
 10
2.151944578480501
 20
18.27388148380792
 30
0.0
 10
2.610555756763981
 20
18.41499313317992
 30
0.0
 10
2.610555756763981
 20
18.41499313317992
 30
0.0
 10
2.610555756763981
 20
18.41499313317992
 30
0.0
 10
2.998611446796565
 20
18.02693811601755
 30
0.0
 10
2.998611446796565
 20
18.02693811601755
 30
0.0
 10
2.998611446796565
 20
18.02693811601755
 30
0.0
 10
2.081389258447158
 20
17.77999474822718
 30
0.0
 10
2.081389258447158
 20
17.77999474822718
 30
0.0
 10
2.1166666661375
 20
17.92110370611833
 30
0.0
 10
2.1166666661375
 20
18.09749259496312
 30
0.0
 10
2.151944578480501
 20
18.27388148380792
 30
0.0
  0
SPLINE
  5
1C2
330
49
100
AcDbEntity
  8
Layer 1
370
     0
100
AcDbSpline
210
0.0
220
0.0
230
1.0
 70
    11
 71
     3
 72
    44
 73
    40
 74
     0
 42
0.0000000001
 43
0.0000000001
 12
1.0
 22
0.0
 32
0.0
 13
1.0
 23
0.0
 33
0.0
 40
0.0
 40
0.0
 40
0.0
 40
0.0
 40
1.0
 40
1.0
 40
1.0
 40
2.0
 40
2.0
 40
2.0
 40
3.0
 40
3.0
 40
3.0
 40
4.0
 40
4.0
 40
4.0
 40
5.0
 40
5.0
 40
5.0
 40
6.0
 40
6.0
 40
6.0
 40
7.0
 40
7.0
 40
7.0
 40
8.0
 40
8.0
 40
8.0
 40
9.0
 40
9.0
 40
9.0
 40
10.0
 40
10.0
 40
10.0
 40
11.0
 40
11.0
 40
11.0
 40
12.0
 40
12.0
 40
12.0
 40
13.0
 40
13.0
 40
13.0
 40
13.0
 10
2.010833433761157
 20
16.29832646704242
 30
0.0
 10
2.010833433761157
 20
16.651104244732
 30
0.0
 10
2.046111177886605
 20
17.00388202242159
 30
0.0
 10
2.046111177886605
 20
17.32138256063838
 30
0.0
 10
2.046111177886605
 20
17.32138256063838
 30
0.0
 10
3.104444510955354
 20
17.63888309885517
 30
0.0
 10
3.104444510955354
 20
17.63888309885517
 30
0.0
 10
3.104444510955354
 20
17.63888309885517
 30
0.0
 10
2.892777709767562
 20
16.75693865463122
 30
0.0
 10
2.892777709767562
 20
16.75693865463122
 30
0.0
 10
2.892777709767562
 20
16.75693865463122
 30
0.0
 10
3.351388888051042
 20
16.89804761252237
 30
0.0
 10
3.351388888051042
 20
16.89804761252237
 30
0.0
 10
3.351388888051042
 20
16.89804761252237
 30
0.0
 10
3.457222288644938
 20
17.35665980011117
 30
0.0
 10
3.457222288644938
 20
17.35665980011117
 30
0.0
 10
3.457222288644938
 20
17.35665980011117
 30
0.0
 10
3.774722153991521
 20
17.07443650136716
 30
0.0
 10
3.774722153991521
 20
17.07443650136716
 30
0.0
 10
3.774722153991521
 20
17.07443650136716
 30
0.0
 10
3.386666800394043
 20
15.62804815113604
 30
0.0
 10
3.386666800394043
 20
15.62804815113604
 30
0.0
 10
3.386666800394043
 20
15.62804815113604
 30
0.0
 10
2.998611110361459
 20
15.52221374123683
 30
0.0
 10
2.998611110361459
 20
15.52221374123683
 30
0.0
 10
2.998611110361459
 20
15.52221374123683
 30
0.0
 10
3.104444510955354
 20
16.01610316829841
 30
0.0
 10
3.104444510955354
 20
16.01610316829841
 30
0.0
 10
3.104444510955354
 20
16.01610316829841
 30
0.0
 10
2.786944477391219
 20
16.33360370651521
 30
0.0
 10
2.786944477391219
 20
16.33360370651521
 30
0.0
 10
2.786944477391219
 20
16.33360370651521
 30
0.0
 10
2.539999932077979
 20
15.48693650176404
 30
0.0
 10
2.539999932077979
 20
15.48693650176404
 30
0.0
 10
2.539999932077979
 20
15.48693650176404
 30
0.0
 10
2.010833265543604
 20
16.01610316829841
 30
0.0
 10
2.010833265543604
 20
16.01610316829841
 30
0.0
 10
2.010833265543604
 20
16.01610316829841
 30
0.0
 10
2.010833433761157
 20
16.29832646704242
 30
0.0
 10
2.010833433761157
 20
16.29832646704242
 30
0.0
  0
SPLINE
  5
1C3
330
49
100
AcDbEntity
  8
Layer 1
370
     0
100
AcDbSpline
210
0.0
220
0.0
230
1.0
 70
    11
 71
     3
 72
    14
 73
    10
 74
     0
 42
0.0000000001
 43
0.0000000001
 12
1.0
 22
0.0
 32
0.0
 13
1.0
 23
0.0
 33
0.0
 40
0.0
 40
0.0
 40
0.0
 40
0.0
 40
1.0
 40
1.0
 40
1.0
 40
2.0
 40
2.0
 40
2.0
 40
3.0
 40
3.0
 40
3.0
 40
3.0
 10
2.046111177886605
 20
15.41638202281846
 30
0.0
 10
2.046111177886605
 20
15.41638202281846
 30
0.0
 10
2.257777810856844
 20
15.20471589450088
 30
0.0
 10
2.257777810856844
 20
15.20471589450088
 30
0.0
 10
2.257777810856844
 20
15.20471589450088
 30
0.0
 10
2.081388922012053
 20
15.1341614155553
 30
0.0
 10
2.081388922012053
 20
15.1341614155553
 30
0.0
 10
2.052345656835547
 20
15.22525996781253
 30
0.0
 10
2.04038555703546
 20
15.3209394204728
 30
0.0
 10
2.046111177886605
 20
15.41638202281846
 30
0.0
  0
SPLINE
  5
1C4
330
49
100
AcDbEntity
  8
Layer 1
370
     0
100
AcDbSpline
210
0.0
220
0.0
230
1.0
 70
    11
 71
     3
 72
    14
 73
    10
 74
     0
 42
0.0000000001
 43
0.0000000001
 12
1.0
 22
0.0
 32
0.0
 13
1.0
 23
0.0
 33
0.0
 40
0.0
 40
0.0
 40
0.0
 40
0.0
 40
1.0
 40
1.0
 40
1.0
 40
2.0
 40
2.0
 40
2.0
 40
3.0
 40
3.0
 40
3.0
 40
3.0
 10
2.1166666661375
 20
14.74610370691208
 30
0.0
 10
2.1166666661375
 20
14.74610370691208
 30
0.0
 10
2.363611043233187
 20
14.81665818585766
 30
0.0
 10
2.363611043233187
 20
14.81665818585766
 30
0.0
 10
2.363611043233187
 20
14.81665818585766
 30
0.0
 10
2.187222154388396
 20
14.11110263047849
 30
0.0
 10
2.187222154388396
 20
14.11110263047849
 30
0.0
 10
2.146289272566506
 20
14.32047023415201
 30
0.0
 10
2.12269070492765
 20
14.53285767933681
 30
0.0
 10
2.1166666661375
 20
14.74610370691208
 30
0.0
  0
SPLINE
  5
1C5
330
49
100
AcDbEntity
  8
Layer 1
370
     0
100
AcDbSpline
210
0.0
220
0.0
230
1.0
 70
    11
 71
     3
 72
   197
 73
   193
 74
     0
 42
0.0000000001
 43
0.0000000001
 12
1.0
 22
0.0
 32
0.0
 13
1.0
 23
0.0
 33
0.0
 40
0.0
 40
0.0
 40
0.0
 40
0.0
 40
1.0
 40
1.0
 40
1.0
 40
2.0
 40
2.0
 40
2.0
 40
3.0
 40
3.0
 40
3.0
 40
4.0
 40
4.0
 40
4.0
 40
5.0
 40
5.0
 40
5.0
 40
6.0
 40
6.0
 40
6.0
 40
7.0
 40
7.0
 40
7.0
 40
8.0
 40
8.0
 40
8.0
 40
9.0
 40
9.0
 40
9.0
 40
10.0
 40
10.0
 40
10.0
 40
11.0
 40
11.0
 40
11.0
 40
12.0
 40
12.0
 40
12.0
 40
13.0
 40
13.0
 40
13.0
 40
14.0
 40
14.0
 40
14.0
 40
15.0
 40
15.0
 40
15.0
 40
16.0
 40
16.0
 40
16.0
 40
17.0
 40
17.0
 40
17.0
 40
18.0
 40
18.0
 40
18.0
 40
19.0
 40
19.0
 40
19.0
 40
20.0
 40
20.0
 40
20.0
 40
21.0
 40
21.0
 40
21.0
 40
22.0
 40
22.0
 40
22.0
 40
23.0
 40
23.0
 40
23.0
 40
24.0
 40
24.0
 40
24.0
 40
25.0
 40
25.0
 40
25.0
 40
26.0
 40
26.0
 40
26.0
 40
27.0
 40
27.0
 40
27.0
 40
28.0
 40
28.0
 40
28.0
 40
29.0
 40
29.0
 40
29.0
 40
30.0
 40
30.0
 40
30.0
 40
31.0
 40
31.0
 40
31.0
 40
32.0
 40
32.0
 40
32.0
 40
33.0
 40
33.0
 40
33.0
 40
34.0
 40
34.0
 40
34.0
 40
35.0
 40
35.0
 40
35.0
 40
36.0
 40
36.0
 40
36.0
 40
37.0
 40
37.0
 40
37.0
 40
38.0
 40
38.0
 40
38.0
 40
39.0
 40
39.0
 40
39.0
 40
40.0
 40
40.0
 40
40.0
 40
41.0
 40
41.0
 40
41.0
 40
42.0
 40
42.0
 40
42.0
 40
43.0
 40
43.0
 40
43.0
 40
44.0
 40
44.0
 40
44.0
 40
45.0
 40
45.0
 40
45.0
 40
46.0
 40
46.0
 40
46.0
 40
47.0
 40
47.0
 40
47.0
 40
48.0
 40
48.0
 40
48.0
 40
49.0
 40
49.0
 40
49.0
 40
50.0
 40
50.0
 40
50.0
 40
51.0
 40
51.0
 40
51.0
 40
52.0
 40
52.0
 40
52.0
 40
53.0
 40
53.0
 40
53.0
 40
54.0
 40
54.0
 40
54.0
 40
55.0
 40
55.0
 40
55.0
 40
56.0
 40
56.0
 40
56.0
 40
57.0
 40
57.0
 40
57.0
 40
58.0
 40
58.0
 40
58.0
 40
59.0
 40
59.0
 40
59.0
 40
60.0
 40
60.0
 40
60.0
 40
61.0
 40
61.0
 40
61.0
 40
62.0
 40
62.0
 40
62.0
 40
63.0
 40
63.0
 40
63.0
 40
64.0
 40
64.0
 40
64.0
 40
64.0
 10
10.86555528369108
 20
3.98638148737979
 30
0.0
 10
10.86555528369108
 20
3.98638148737979
 30
0.0
 10
10.01888875181012
 20
3.457214820845415
 30
0.0
 10
10.01888875181012
 20
3.457214820845415
 30
0.0
 10
6.07937900073337
 20
5.400084494194605
 30
0.0
 10
3.245943397134342
 20
9.039359556693531
 30
0.0
 10
2.328333467325292
 20
13.33499259615375
 30
0.0
 10
2.328333467325292
 20
13.33499259615375
 30
0.0
 10
2.398888955576188
 20
13.33499259615375
 30
0.0
 10
2.398888955576188
 20
13.33499259615375
 30
0.0
 10
2.398888955576188
 20
13.33499259615375
 30
0.0
 10
2.751666733265771
 20
14.6755492279665
 30
0.0
 10
2.751666733265771
 20
14.6755492279665
 30
0.0
 10
2.751666733265771
 20
14.6755492279665
 30
0.0
 10
3.386666800394043
 20
14.0758253910057
 30
0.0
 10
3.386666800394043
 20
14.0758253910057
 30
0.0
 10
3.386666800394043
 20
14.0758253910057
 30
0.0
 10
3.492500200987939
 20
14.5344375785945
 30
0.0
 10
3.492500200987939
 20
14.5344375785945
 30
0.0
 10
3.492500200987939
 20
14.5344375785945
 30
0.0
 10
3.175000335641356
 20
14.88721535628409
 30
0.0
 10
3.175000335641356
 20
14.88721535628409
 30
0.0
 10
3.175000335641356
 20
14.88721535628409
 30
0.0
 10
3.56305602567394
 20
14.9930497661833
 30
0.0
 10
3.56305602567394
 20
14.9930497661833
 30
0.0
 10
3.56305602567394
 20
14.9930497661833
 30
0.0
 10
4.092222692208315
 20
14.46388309964892
 30
0.0
 10
4.092222692208315
 20
14.46388309964892
 30
0.0
 10
4.092222692208315
 20
14.46388309964892
 30
0.0
 10
4.62138935874269
 20
13.93471643311455
 30
0.0
 10
4.62138935874269
 20
13.93471643311455
 30
0.0
 10
4.62138935874269
 20
13.93471643311455
 30
0.0
 10
4.515555958148794
 20
13.54666141595218
 30
0.0
 10
4.515555958148794
 20
13.54666141595218
 30
0.0
 10
4.515555958148794
 20
13.54666141595218
 30
0.0
 10
4.162778180459211
 20
13.86416195416897
 30
0.0
 10
4.162778180459211
 20
13.86416195416897
 30
0.0
 10
4.162778180459211
 20
13.86416195416897
 30
0.0
 10
3.704167002175731
 20
13.75832754426976
 30
0.0
 10
3.704167002175731
 20
13.75832754426976
 30
0.0
 10
3.704167002175731
 20
13.75832754426976
 30
0.0
 10
4.339167069304002
 20
13.12332646783617
 30
0.0
 10
4.339167069304002
 20
13.12332646783617
 30
0.0
 10
4.339167069304002
 20
13.12332646783617
 30
0.0
 10
2.998611446796565
 20
12.77054869014659
 30
0.0
 10
2.998611446796565
 20
12.77054869014659
 30
0.0
 10
2.998611446796565
 20
12.77054869014659
 30
0.0
 10
2.892777709767562
 20
12.31193650255779
 30
0.0
 10
2.892777709767562
 20
12.31193650255779
 30
0.0
 10
2.892777709767562
 20
12.31193650255779
 30
0.0
 10
4.445000133462792
 20
12.73526875919295
 30
0.0
 10
4.445000133462792
 20
12.73526875919295
 30
0.0
 10
4.445000133462792
 20
12.73526875919295
 30
0.0
 10
4.303889156961001
 20
12.20610209265857
 30
0.0
 10
4.303889156961001
 20
12.20610209265857
 30
0.0
 10
4.303889156961001
 20
12.20610209265857
 30
0.0
 10
3.386666800394043
 20
11.9591587248682
 30
0.0
 10
3.386666800394043
 20
11.9591587248682
 30
0.0
 10
3.386666800394043
 20
11.9591587248682
 30
0.0
 10
3.280833399800146
 20
11.53582646823304
 30
0.0
 10
3.280833399800146
 20
11.53582646823304
 30
0.0
 10
3.280833399800146
 20
11.53582646823304
 30
0.0
 10
4.198055419931999
 20
11.78276983602341
 30
0.0
 10
4.198055419931999
 20
11.78276983602341
 30
0.0
 10
4.198055419931999
 20
11.78276983602341
 30
0.0
 10
4.021666531087208
 20
11.21832593001625
 30
0.0
 10
4.021666531087208
 20
11.21832593001625
 30
0.0
 10
4.021666531087208
 20
11.21832593001625
 30
0.0
 10
4.233333332275
 20
11.14777145107067
 30
0.0
 10
4.233333332275
 20
11.14777145107067
 30
0.0
 10
4.233333332275
 20
11.14777145107067
 30
0.0
 10
4.409722221119792
 20
11.14777145107067
 30
0.0
 10
4.409722221119792
 20
11.14777145107067
 30
0.0
 10
4.409722221119792
 20
11.14777145107067
 30
0.0
 10
4.586111109964584
 20
11.71221535707783
 30
0.0
 10
4.586111109964584
 20
11.71221535707783
 30
0.0
 10
4.586111109964584
 20
11.71221535707783
 30
0.0
 10
5.221111177092855
 20
11.04193704117146
 30
0.0
 10
5.221111177092855
 20
11.04193704117146
 30
0.0
 10
5.221111177092855
 20
11.04193704117146
 30
0.0
 10
5.362222153594645
 20
11.50054922876025
 30
0.0
 10
5.362222153594645
 20
11.50054922876025
 30
0.0
 10
5.362222153594645
 20
11.50054922876025
 30
0.0
 10
4.691944510558479
 20
12.13555030519384
 30
0.0
 10
4.691944510558479
 20
12.13555030519384
 30
0.0
 10
4.691944510558479
 20
12.13555030519384
 30
0.0
 10
4.833055487060271
 20
12.66471697172822
 30
0.0
 10
4.833055487060271
 20
12.66471697172822
 30
0.0
 10
4.833055487060271
 20
12.66471697172822
 30
0.0
 10
5.997222220722917
 20
11.50054653727941
 30
0.0
 10
5.997222220722917
 20
11.50054653727941
 30
0.0
 10
5.997222220722917
 20
11.50054653727941
 30
0.0
 10
6.103055284881707
 20
11.9591587248682
 30
0.0
 10
6.103055284881707
 20
11.9591587248682
 30
0.0
 10
6.103055284881707
 20
11.9591587248682
 30
0.0
 10
5.115277440063853
 20
12.91165764803774
 30
0.0
 10
5.115277440063853
 20
12.91165764803774
 30
0.0
 10
5.115277440063853
 20
12.91165764803774
 30
0.0
 10
5.961944308379916
 20
13.15860101582811
 30
0.0
 10
5.961944308379916
 20
13.15860101582811
 30
0.0
 10
5.961944308379916
 20
13.15860101582811
 30
0.0
 10
5.644444443033334
 20
13.4761015540449
 30
0.0
 10
5.644444443033334
 20
13.4761015540449
 30
0.0
 10
5.644444443033334
 20
13.4761015540449
 30
0.0
 10
5.150555688841959
 20
13.37026714414569
 30
0.0
 10
5.150555688841959
 20
13.37026714414569
 30
0.0
 10
5.150555688841959
 20
13.37026714414569
 30
0.0
 10
5.256389089435856
 20
13.75832216130806
 30
0.0
 10
5.256389089435856
 20
13.75832216130806
 30
0.0
 10
5.256389089435856
 20
13.75832216130806
 30
0.0
 10
5.997222220722917
 20
13.96998828962564
 30
0.0
 10
5.997222220722917
 20
13.96998828962564
 30
0.0
 10
5.997222220722917
 20
13.96998828962564
 30
0.0
 10
6.702777776102083
 20
14.14637717847043
 30
0.0
 10
6.702777776102083
 20
14.14637717847043
 30
0.0
 10
6.702777776102083
 20
14.14637717847043
 30
0.0
 10
6.984999729105666
 20
13.86415387972643
 30
0.0
 10
6.984999729105666
 20
13.86415387972643
 30
0.0
 10
6.984999729105666
 20
13.86415387972643
 30
0.0
 10
6.526388887257292
 20
13.72304223035442
 30
0.0
 10
6.526388887257292
 20
13.72304223035442
 30
0.0
 10
6.526388887257292
 20
13.72304223035442
 30
0.0
 10
6.420555823098502
 20
13.26443004276563
 30
0.0
 10
6.420555823098502
 20
13.26443004276563
 30
0.0
 10
6.420555823098502
 20
13.26443004276563
 30
0.0
 10
7.267222354979459
 20
13.511373410556
 30
0.0
 10
7.267222354979459
 20
13.511373410556
 30
0.0
 10
7.267222354979459
 20
13.511373410556
 30
0.0
 10
6.914444577289876
 20
12.17081677874324
 30
0.0
 10
6.914444577289876
 20
12.17081677874324
 30
0.0
 10
6.914444577289876
 20
12.17081677874324
 30
0.0
 10
7.231944442636459
 20
11.85331624052645
 30
0.0
 10
7.231944442636459
 20
11.85331624052645
 30
0.0
 10
7.231944442636459
 20
11.85331624052645
 30
0.0
 10
7.655278045012044
 20
13.40553900065678
 30
0.0
 10
7.655278045012044
 20
13.40553900065678
 30
0.0
 10
7.655278045012044
 20
13.40553900065678
 30
0.0
 10
8.043333062174415
 20
13.01749205793695
 30
0.0
 10
8.043333062174415
 20
13.01749205793695
 30
0.0
 10
8.043333062174415
 20
13.01749205793695
 30
0.0
 10
7.796388348643623
 20
12.10027037424021
 30
0.0
 10
7.796388348643623
 20
12.10027037424021
 30
0.0
 10
7.796388348643623
 20
12.10027037424021
 30
0.0
 10
8.113888213990204
 20
11.78276983602341
 30
0.0
 10
8.113888213990204
 20
11.78276983602341
 30
0.0
 10
8.113888213990204
 20
11.78276983602341
 30
0.0
 10
8.360832927520999
 20
12.69999151972016
 30
0.0
 10
8.360832927520999
 20
12.69999151972016
 30
0.0
 10
8.360832927520999
 20
12.69999151972016
 30
0.0
 10
8.784166529896583
 20
12.276659263085
 30
0.0
 10
8.784166529896583
 20
12.276659263085
 30
0.0
 10
8.784166529896583
 20
12.276659263085
 30
0.0
 10
8.854722354582584
 20
12.34721374203058
 30
0.0
 10
8.854722354582584
 20
12.34721374203058
 30
0.0
 10
8.854722354582584
 20
12.34721374203058
 30
0.0
 10
10.12472248883913
 20
11.71221266559699
 30
0.0
 10
10.12472248883913
 20
11.71221266559699
 30
0.0
 10
10.12472248883913
 20
11.71221266559699
 30
0.0
 10
10.37166720236992
 20
10.75971374242745
 30
0.0
 10
10.37166720236992
 20
10.75971374242745
 30
0.0
 10
10.37166720236992
 20
10.75971374242745
 30
0.0
 10
9.842500535835544
 20
11.18304599906261
 30
0.0
 10
9.842500535835544
 20
11.18304599906261
 30
0.0
 10
9.842500535835544
 20
11.18304599906261
 30
0.0
 10
9.736667471676755
 20
10.15998990546665
 30
0.0
 10
9.736667471676755
 20
10.15998990546665
 30
0.0
 10
9.736667471676755
 20
10.15998990546665
 30
0.0
 10
8.819444442239584
 20
9.48971428104112
 30
0.0
 10
8.819444442239584
 20
9.48971428104112
 30
0.0
 10
8.819444442239584
 20
9.48971428104112
 30
0.0
 10
9.807221950622333
 20
9.031102093452324
 30
0.0
 10
9.807221950622333
 20
9.031102093452324
 30
0.0
 10
9.807221950622333
 20
9.031102093452324
 30
0.0
 10
10.05416666415313
 20
8.219712128173942
 30
0.0
 10
10.05416666415313
 20
8.219712128173942
 30
0.0
 10
10.05416666415313
 20
8.219712128173942
 30
0.0
 10
9.136944307586166
 20
7.478879333321987
 30
0.0
 10
9.136944307586166
 20
7.478879333321987
 30
0.0
 10
9.136944307586166
 20
7.478879333321987
 30
0.0
 10
12.59416693266621
 20
6.032490983090865
 30
0.0
 10
12.59416693266621
 20
6.032490983090865
 30
0.0
 10
12.59416693266621
 20
6.032490983090865
 30
0.0
 10
12.94694471035579
 20
4.833046000650112
 30
0.0
 10
12.94694471035579
 20
4.833046000650112
 30
0.0
 10
12.94694471035579
 20
4.833046000650112
 30
0.0
 10
12.06500026613184
 20
4.550822701906107
 30
0.0
 10
12.06500026613184
 20
4.550822701906107
 30
0.0
 10
12.06500026613184
 20
4.550822701906107
 30
0.0
 10
11.00666693306309
 20
5.432767146130065
 30
0.0
 10
11.00666693306309
 20
5.432767146130065
 30
0.0
 10
11.00666693306309
 20
5.432767146130065
 30
0.0
 10
10.86555528369108
 20
3.98638148737979
 30
0.0
 10
10.86555528369108
 20
3.98638148737979
 30
0.0
  0
POLYLINE
  5
1C6
330
49
100
AcDbEntity
  8
Layer 1
370
     0
100
AcDb2dPolyline
 66
     1
 10
0.0
 20
0.0
 30
0.0
  0
VERTEX
  5
1C7
330
1C6
100
AcDbEntity
  8
Layer 1
370
     0
100
AcDbVertex
100
AcDb2dVertex
 10
11.99444444144583
 20
3.033882564210255
 30
0.0
  0
VERTEX
  5
1C8
330
1C6
100
AcDbEntity
  8
Layer 1
370
     0
100
AcDbVertex
100
AcDb2dVertex
 10
11.71222248844225
 20
2.751659265466249
 30
0.0
  0
VERTEX
  5
1C9
330
1C6
100
AcDbEntity
  8
Layer 1
370
     0
100
AcDbVertex
100
AcDb2dVertex
 10
11.71222248844225
 20
2.751659265466249
 30
0.0
  0
VERTEX
  5
1CA
330
1C6
100
AcDbEntity
  8
Layer 1
370
     0
100
AcDbVertex
100
AcDb2dVertex
 10
11.57111083907025
 20
3.139714282628621
 30
0.0
  0
VERTEX
  5
1CB
330
1C6
100
AcDbEntity
  8
Layer 1
370
     0
100
AcDbVertex
100
AcDb2dVertex
 10
11.14777723669466
 20
3.316103171473412
 30
0.0
  0
VERTEX
  5
1CC
330
1C6
100
AcDbEntity
  8
Layer 1
370
     0
100
AcDbVertex
100
AcDb2dVertex
 10
11.53583225385704
 20
3.563046539263782
 30
0.0
  0
VERTEX
  5
1CD
330
1C6
100
AcDbEntity
  8
Layer 1
370
     0
100
AcDbVertex
100
AcDb2dVertex
 10
11.53583225385704
 20
3.986378795898943
 30
0.0
  0
VERTEX
  5
1CE
330
1C6
100
AcDbEntity
  8
Layer 1
370
     0
100
AcDbVertex
100
AcDb2dVertex
 10
11.88861003154662
 20
3.704155497154937
 30
0.0
  0
VERTEX
  5
1CF
330
1C6
100
AcDbEntity
  8
Layer 1
370
     0
100
AcDbVertex
100
AcDb2dVertex
 10
12.3119436339222
 20
3.84526714652694
 30
0.0
  0
VERTEX
  5
1D0
330
1C6
100
AcDbEntity
  8
Layer 1
370
     0
100
AcDbVertex
100
AcDb2dVertex
 10
12.1708319845502
 20
3.351377719465353
 30
0.0
  0
VERTEX
  5
1D1
330
1C6
100
AcDbEntity
  8
Layer 1
370
     0
100
AcDbVertex
100
AcDb2dVertex
 10
12.417776698081
 20
2.99859994177577
 30
0.0
  0
VERTEX
  5
1D2
330
1C6
100
AcDbEntity
  8
Layer 1
370
     0
100
AcDbVertex
100
AcDb2dVertex
 10
11.99444444144583
 20
3.033882564210255
 30
0.0
  0
SEQEND
  5
1D3
330
1C6
100
AcDbEntity
  8
Layer 1
370
     0
  0
POLYLINE
  5
1D4
330
49
100
AcDbEntity
  8
Layer 1
370
     0
100
AcDb2dPolyline
 66
     1
 10
0.0
 20
0.0
 30
0.0
  0
VERTEX
  5
1D5
330
1D4
100
AcDbEntity
  8
Layer 1
370
     0
100
AcDbVertex
100
AcDb2dVertex
 10
13.12333359920058
 20
4.092215897279004
 30
0.0
  0
VERTEX
  5
1D6
330
1D4
100
AcDbEntity
  8
Layer 1
370
     0
100
AcDbVertex
100
AcDb2dVertex
 10
13.51138861636296
 20
2.681104786520671
 30
0.0
  0
VERTEX
  5
1D7
330
1D4
100
AcDbEntity
  8
Layer 1
370
     0
100
AcDbVertex
100
AcDb2dVertex
 10
12.84111030045658
 20
3.598326470217418
 30
0.0
  0
VERTEX
  5
1D8
330
1D4
100
AcDbEntity
  8
Layer 1
370
     0
100
AcDbVertex
100
AcDb2dVertex
 10
13.12333359920058
 20
4.092215897279004
 30
0.0
  0
SEQEND
  5
1D9
330
1D4
100
AcDbEntity
  8
Layer 1
370
     0
  0
SPLINE
  5
1DA
330
49
100
AcDbEntity
  8
Layer 1
370
     0
100
AcDbSpline
210
0.0
220
0.0
230
1.0
 70
    11
 71
     3
 72
    86
 73
    82
 74
     0
 42
0.0000000001
 43
0.0000000001
 12
1.0
 22
0.0
 32
0.0
 13
1.0
 23
0.0
 33
0.0
 40
0.0
 40
0.0
 40
0.0
 40
0.0
 40
1.0
 40
1.0
 40
1.0
 40
2.0
 40
2.0
 40
2.0
 40
3.0
 40
3.0
 40
3.0
 40
4.0
 40
4.0
 40
4.0
 40
5.0
 40
5.0
 40
5.0
 40
6.0
 40
6.0
 40
6.0
 40
7.0
 40
7.0
 40
7.0
 40
8.0
 40
8.0
 40
8.0
 40
9.0
 40
9.0
 40
9.0
 40
10.0
 40
10.0
 40
10.0
 40
11.0
 40
11.0
 40
11.0
 40
12.0
 40
12.0
 40
12.0
 40
13.0
 40
13.0
 40
13.0
 40
14.0
 40
14.0
 40
14.0
 40
15.0
 40
15.0
 40
15.0
 40
16.0
 40
16.0
 40
16.0
 40
17.0
 40
17.0
 40
17.0
 40
18.0
 40
18.0
 40
18.0
 40
19.0
 40
19.0
 40
19.0
 40
20.0
 40
20.0
 40
20.0
 40
21.0
 40
21.0
 40
21.0
 40
22.0
 40
22.0
 40
22.0
 40
23.0
 40
23.0
 40
23.0
 40
24.0
 40
24.0
 40
24.0
 40
25.0
 40
25.0
 40
25.0
 40
26.0
 40
26.0
 40
26.0
 40
27.0
 40
27.0
 40
27.0
 40
27.0
 10
27.09333440315234
 20
7.231938657012466
 30
0.0
 10
27.09333440315234
 20
7.231938657012466
 30
0.0
 10
27.37555770189635
 20
7.231938657012466
 30
0.0
 10
27.37555770189635
 20
7.231938657012466
 30
0.0
 10
27.30156351042721
 20
7.09959854372361
 30
0.0
 10
27.20620434398784
 20
6.980398239933966
 30
0.0
 10
27.09333440315234
 20
6.879160879322883
 30
0.0
 10
27.09333440315234
 20
6.879160879322883
 30
0.0
 10
26.74055662546276
 20
6.879160879322883
 30
0.0
 10
26.74055662546276
 20
6.879160879322883
 30
0.0
 10
26.60417390794043
 20
6.879160879322883
 30
0.0
 10
26.49361325767239
 20
6.768600229054841
 30
0.0
 10
26.49361325767239
 20
6.632217511532513
 30
0.0
 10
26.49270353714581
 20
6.530484918445425
 30
0.0
 10
26.54661659000913
 20
6.436137748804841
 30
0.0
 10
26.63472490704439
 20
6.385274143742144
 30
0.0
 10
26.52615864408461
 20
6.258989862360955
 30
0.0
 10
26.408231410736
 20
6.141062629012344
 30
0.0
 10
26.28194712935481
 20
6.032496366052561
 30
0.0
 10
26.28194712935481
 20
6.032496366052561
 30
0.0
 10
26.17611271945559
 20
5.891384716680558
 30
0.0
 10
26.17611271945559
 20
5.891384716680558
 30
0.0
 10
23.52020517397021
 20
3.370075436915377
 30
0.0
 10
19.99568678038112
 20
1.967848904435801
 30
0.0
 10
16.33361218362005
 20
1.975551922622352
 30
0.0
 10
15.26503507444438
 20
1.966844982079553
 30
0.0
 10
14.19921538739733
 20
2.085270139385016
 30
0.0
 10
13.1586121844138
 20
2.328329700311936
 30
0.0
 10
13.1586121844138
 20
2.328329700311936
 30
0.0
 10
13.68777885094817
 20
2.328329700311936
 30
0.0
 10
13.68777885094817
 20
2.328329700311936
 30
0.0
 10
13.68777885094817
 20
2.328329700311936
 30
0.0
 10
16.01611164540325
 20
5.22110640077418
 30
0.0
 10
16.01611164540325
 20
5.22110640077418
 30
0.0
 10
16.01611164540325
 20
5.22110640077418
 30
0.0
 10
19.68500107167109
 20
4.974163032983811
 30
0.0
 10
19.68500107167109
 20
4.974163032983811
 30
0.0
 10
19.68500107167109
 20
4.974163032983811
 30
0.0
 10
19.0499999952375
 20
5.997213743618076
 30
0.0
 10
19.0499999952375
 20
5.997213743618076
 30
0.0
 10
19.0499999952375
 20
5.997213743618076
 30
0.0
 10
19.72027831114388
 20
7.055547076686826
 30
0.0
 10
19.72027831114388
 20
7.055547076686826
 30
0.0
 10
19.72027831114388
 20
7.055547076686826
 30
0.0
 10
20.99027777253021
 20
6.949712666787613
 30
0.0
 10
20.99027777253021
 20
6.949712666787613
 30
0.0
 10
20.99027777253021
 20
6.949712666787613
 30
0.0
 10
20.31999945662383
 20
8.078603170282788
 30
0.0
 10
20.31999945662383
 20
8.078603170282788
 30
0.0
 10
20.31999945662383
 20
8.078603170282788
 30
0.0
 10
20.74333305899941
 20
9.031102093452324
 30
0.0
 10
20.74333305899941
 20
9.031102093452324
 30
0.0
 10
20.74333305899941
 20
9.031102093452324
 30
0.0
 10
21.62527750322337
 20
8.607769836817162
 30
0.0
 10
21.62527750322337
 20
8.607769836817162
 30
0.0
 10
21.62527750322337
 20
8.607769836817162
 30
0.0
 10
22.29555581912975
 20
6.103048153517291
 30
0.0
 10
22.29555581912975
 20
6.103048153517291
 30
0.0
 10
22.29555581912975
 20
6.103048153517291
 30
0.0
 10
23.95361164341888
 20
8.113880409755577
 30
0.0
 10
23.95361164341888
 20
8.113880409755577
 30
0.0
 10
23.95361164341888
 20
8.113880409755577
 30
0.0
 10
26.10555554902917
 20
7.972768760383573
 30
0.0
 10
26.10555554902917
 20
7.972768760383573
 30
0.0
 10
26.10227732535649
 20
7.934143318736058
 30
0.0
 10
26.1150349445753
 20
7.89587046107961
 30
0.0
 10
26.14083278850196
 20
7.866934350484359
 30
0.0
 10
26.22625500765107
 20
7.761799725605586
 30
0.0
 10
26.37432413501476
 20
7.732185361836677
 30
0.0
 10
26.49361056619154
 20
7.796379871538782
 30
0.0
 10
26.49361056619154
 20
7.796379871538782
 30
0.0
 10
27.44610948936107
 20
8.396101017018735
 30
0.0
 10
27.44610948936107
 20
8.396101017018735
 30
0.0
 10
27.44610948936107
 20
8.396101017018735
 30
0.0
 10
27.86944174599624
 20
8.29026660711952
 30
0.0
 10
27.86944174599624
 20
8.29026660711952
 30
0.0
 10
27.86944174599624
 20
8.29026660711952
 30
0.0
 10
26.95222006229949
 20
7.690545461639568
 30
0.0
 10
26.95222006229949
 20
7.690545461639568
 30
0.0
 10
26.74055662546276
 20
7.584713743221202
 30
0.0
 10
26.84638834388112
 20
7.231935965531618
 30
0.0
 10
27.09333440315234
 20
7.231938657012466
 30
0.0
  0
SPLINE
  5
1DB
330
49
100
AcDbEntity
  8
Layer 1
370
     0
100
AcDbSpline
210
0.0
220
0.0
230
1.0
 70
    11
 71
     3
 72
    20
 73
    16
 74
     0
 42
0.0000000001
 43
0.0000000001
 12
1.0
 22
0.0
 32
0.0
 13
1.0
 23
0.0
 33
0.0
 40
0.0
 40
0.0
 40
0.0
 40
0.0
 40
1.0
 40
1.0
 40
1.0
 40
2.0
 40
2.0
 40
2.0
 40
3.0
 40
3.0
 40
3.0
 40
4.0
 40
4.0
 40
4.0
 40
5.0
 40
5.0
 40
5.0
 40
5.0
 10
25.89388942071159
 20
8.995827545460383
 30
0.0
 10
25.92389943216513
 20
9.065286591700884
 30
0.0
 10
25.99486839916128
 20
9.107868510194741
 30
0.0
 10
26.07027830955638
 20
9.101661955359598
 30
0.0
 10
26.10555554902917
 20
9.066384715886809
 30
0.0
 10
26.17611271945559
 20
8.995827545460383
 30
0.0
 10
26.14083278850196
 20
8.960550305987594
 30
0.0
 10
26.10555285754832
 20
8.925273066514805
 30
0.0
 10
26.07027830955638
 20
8.85471589608838
 30
0.0
 10
25.99972113912995
 20
8.85471589608838
 30
0.0
 10
25.99972113912995
 20
8.85471589608838
 30
0.0
 10
25.92916666018438
 20
8.85471589608838
 30
0.0
 10
25.92916666018438
 20
8.85471589608838
 30
0.0
 10
25.92916666018438
 20
8.85471589608838
 30
0.0
 10
25.89388942071159
 20
8.995827545460383
 30
0.0
 10
25.89388942071159
 20
8.995827545460383
 30
0.0
  0
POLYLINE
  5
1DC
330
49
100
AcDbEntity
  8
Layer 1
370
     0
100
AcDb2dPolyline
 66
     1
 10
0.0
 20
0.0
 30
0.0
  0
VERTEX
  5
1DD
330
1DC
100
AcDbEntity
  8
Layer 1
370
     0
100
AcDbVertex
100
AcDb2dVertex
 10
26.17611271945559
 20
8.537215357871585
 30
0.0
  0
VERTEX
  5
1DE
330
1DC
100
AcDbEntity
  8
Layer 1
370
     0
100
AcDbVertex
100
AcDb2dVertex
 10
26.3172243688276
 20
8.6430497677708
 30
0.0
  0
VERTEX
  5
1DF
330
1DC
100
AcDbEntity
  8
Layer 1
370
     0
100
AcDbVertex
100
AcDb2dVertex
 10
26.74055662546276
 20
8.537215357871585
 30
0.0
  0
VERTEX
  5
1E0
330
1DC
100
AcDbEntity
  8
Layer 1
370
     0
100
AcDbVertex
100
AcDb2dVertex
 10
26.3172243688276
 20
8.290271990081216
 30
0.0
  0
VERTEX
  5
1E1
330
1DC
100
AcDbEntity
  8
Layer 1
370
     0
100
AcDbVertex
100
AcDb2dVertex
 10
26.17611271945559
 20
8.537215357871585
 30
0.0
  0
SEQEND
  5
1E2
330
1DC
100
AcDbEntity
  8
Layer 1
370
     0
  0
SPLINE
  5
1E3
330
49
100
AcDbEntity
  8
Layer 1
370
     0
100
AcDbSpline
210
0.0
220
0.0
230
1.0
 70
    11
 71
     3
 72
    17
 73
    13
 74
     0
 42
0.0000000001
 43
0.0000000001
 12
1.0
 22
0.0
 32
0.0
 13
1.0
 23
0.0
 33
0.0
 40
0.0
 40
0.0
 40
0.0
 40
0.0
 40
1.0
 40
1.0
 40
1.0
 40
2.0
 40
2.0
 40
2.0
 40
3.0
 40
3.0
 40
3.0
 40
4.0
 40
4.0
 40
4.0
 40
4.0
 10
27.02277992420676
 20
8.748881486189166
 30
0.0
 10
27.05805716367955
 20
8.784158725661955
 30
0.0
 10
27.12861433410598
 20
8.85471589608838
 30
0.0
 10
27.19916881305155
 20
8.819435965134742
 30
0.0
 10
27.26972329199713
 20
8.784156034181107
 30
0.0
 10
27.30500322295077
 20
8.748881486189166
 30
0.0
 10
27.26972329199713
 20
8.67832431576274
 30
0.0
 10
27.2344433610435
 20
8.607767145336314
 30
0.0
 10
27.19916881305155
 20
8.572489905863526
 30
0.0
 10
27.12861164262513
 20
8.572489905863526
 30
0.0
 10
27.05915259638463
 20
8.60249991731707
 30
0.0
 10
27.01657067789077
 20
8.673471575794064
 30
0.0
 10
27.02277992420676
 20
8.748881486189166
 30
0.0
  0
SPLINE
  5
1E4
330
49
100
AcDbEntity
  8
Layer 1
370
     0
100
AcDbSpline
210
0.0
220
0.0
230
1.0
 70
    11
 71
     3
 72
    17
 73
    13
 74
     0
 42
0.0000000001
 43
0.0000000001
 12
1.0
 22
0.0
 32
0.0
 13
1.0
 23
0.0
 33
0.0
 40
0.0
 40
0.0
 40
0.0
 40
0.0
 40
1.0
 40
1.0
 40
1.0
 40
2.0
 40
2.0
 40
2.0
 40
3.0
 40
3.0
 40
3.0
 40
4.0
 40
4.0
 40
4.0
 40
4.0
 10
28.18694766717473
 20
8.360826469026794
 30
0.0
 10
28.18694766717473
 20
8.396103708499583
 30
0.0
 10
28.15167042770194
 20
8.431380947972372
 30
0.0
 10
28.18694766717473
 20
8.466660878926008
 30
0.0
 10
28.22222490664752
 20
8.501940809879644
 30
0.0
 10
28.25750214612031
 20
8.572495288825221
 30
0.0
 10
28.32805931654673
 20
8.572495288825221
 30
0.0
 10
28.32805931654673
 20
8.572495288825221
 30
0.0
 10
28.32805931654673
 20
8.572495288825221
 30
0.0
 10
28.32805931654673
 20
8.572495288825221
 30
0.0
 10
28.32805931654673
 20
8.572495288825221
 30
0.0
 10
28.18694766717473
 20
8.360826469026794
 30
0.0
 10
28.18694766717473
 20
8.360826469026794
 30
0.0
  0
POLYLINE
  5
1E5
330
49
100
AcDbEntity
  8
Layer 1
370
     0
100
AcDb2dPolyline
 66
     1
 10
0.0
 20
0.0
 30
0.0
  0
VERTEX
  5
1E6
330
1E5
100
AcDbEntity
  8
Layer 1
370
     0
100
AcDbVertex
100
AcDb2dVertex
 10
28.53972544486431
 20
8.85471589608838
 30
0.0
  0
VERTEX
  5
1E7
330
1E5
100
AcDbEntity
  8
Layer 1
370
     0
100
AcDbVertex
100
AcDb2dVertex
 10
28.36333655601952
 20
9.136939194832385
 30
0.0
  0
VERTEX
  5
1E8
330
1E5
100
AcDbEntity
  8
Layer 1
370
     0
100
AcDbVertex
100
AcDb2dVertex
 10
28.61027992380989
 20
8.995827545460383
 30
0.0
  0
VERTEX
  5
1E9
330
1E5
100
AcDbEntity
  8
Layer 1
370
     0
100
AcDbVertex
100
AcDb2dVertex
 10
28.53972544486431
 20
8.85471589608838
 30
0.0
  0
SEQEND
  5
1EA
330
1E5
100
AcDbEntity
  8
Layer 1
370
     0
  0
SPLINE
  5
1EB
330
49
100
AcDbEntity
  8
Layer 1
370
     0
100
AcDbSpline
210
0.0
220
0.0
230
1.0
 70
    11
 71
     3
 72
   104
 73
   100
 74
     0
 42
0.0000000001
 43
0.0000000001
 12
1.0
 22
0.0
 32
0.0
 13
1.0
 23
0.0
 33
0.0
 40
0.0
 40
0.0
 40
0.0
 40
0.0
 40
1.0
 40
1.0
 40
1.0
 40
2.0
 40
2.0
 40
2.0
 40
3.0
 40
3.0
 40
3.0
 40
4.0
 40
4.0
 40
4.0
 40
5.0
 40
5.0
 40
5.0
 40
6.0
 40
6.0
 40
6.0
 40
7.0
 40
7.0
 40
7.0
 40
8.0
 40
8.0
 40
8.0
 40
9.0
 40
9.0
 40
9.0
 40
10.0
 40
10.0
 40
10.0
 40
11.0
 40
11.0
 40
11.0
 40
12.0
 40
12.0
 40
12.0
 40
13.0
 40
13.0
 40
13.0
 40
14.0
 40
14.0
 40
14.0
 40
15.0
 40
15.0
 40
15.0
 40
16.0
 40
16.0
 40
16.0
 40
17.0
 40
17.0
 40
17.0
 40
18.0
 40
18.0
 40
18.0
 40
19.0
 40
19.0
 40
19.0
 40
20.0
 40
20.0
 40
20.0
 40
21.0
 40
21.0
 40
21.0
 40
22.0
 40
22.0
 40
22.0
 40
23.0
 40
23.0
 40
23.0
 40
24.0
 40
24.0
 40
24.0
 40
25.0
 40
25.0
 40
25.0
 40
26.0
 40
26.0
 40
26.0
 40
27.0
 40
27.0
 40
27.0
 40
28.0
 40
28.0
 40
28.0
 40
29.0
 40
29.0
 40
29.0
 40
30.0
 40
30.0
 40
30.0
 40
31.0
 40
31.0
 40
31.0
 40
32.0
 40
32.0
 40
32.0
 40
33.0
 40
33.0
 40
33.0
 40
33.0
 10
27.76361541053956
 20
10.05416087852913
 30
0.0
 10
27.64095924534128
 20
10.11379332819413
 30
0.0
 10
27.49318618087085
 20
10.06270094725937
 30
0.0
 10
27.43355373120585
 20
9.94004478206108
 30
0.0
 10
27.39640322106295
 20
9.863628257828882
 30
0.0
 10
27.40114830179772
 20
9.773477106830098
 30
0.0
 10
27.44611487232277
 20
9.70138310083955
 30
0.0
 10
27.62250376116756
 20
9.383882562622755
 30
0.0
 10
27.79889265001236
 20
9.06638202440596
 30
0.0
 10
28.01055877832994
 20
8.748884177670014
 30
0.0
 10
28.01055877832994
 20
8.748884177670014
 30
0.0
 10
27.55194659074114
 20
8.854718587569227
 30
0.0
 10
27.55194659074114
 20
8.854718587569227
 30
0.0
 10
27.55194659074114
 20
8.854718587569227
 30
0.0
 10
26.98750268473398
 20
9.807217510738763
 30
0.0
 10
26.98750268473398
 20
9.807217510738763
 30
0.0
 10
26.92969505908382
 20
9.930743024250905
 30
0.0
 10
26.78269714109757
 20
9.984020887634124
 30
0.0
 10
26.65916893610458
 20
9.926213261983971
 30
0.0
 10
26.65077959030182
 20
9.922289082907804
 30
0.0
 10
26.64261902037114
 20
9.917893894683262
 30
0.0
 10
26.63472490704439
 20
9.913051920637978
 30
0.0
 10
26.51119939353225
 20
9.855244294987825
 30
0.0
 10
26.45792153014903
 20
9.70824637700157
 30
0.0
 10
26.51572915579918
 20
9.58471817200858
 30
0.0
 10
26.51965333487535
 20
9.576328826205827
 30
0.0
 10
26.52404852309989
 20
9.568168256275143
 30
0.0
 10
26.52889049714518
 20
9.560274142948394
 30
0.0
 10
26.63409510052599
 20
9.37593461967905
 30
0.0
 10
26.75197119573849
 20
9.199120476860298
 30
0.0
 10
26.88166827483476
 20
9.03110747641402
 30
0.0
 10
26.88166827483476
 20
9.03110747641402
 30
0.0
 10
26.42305608724596
 20
9.136941886313233
 30
0.0
 10
26.42305608724596
 20
9.136941886313233
 30
0.0
 10
26.42305608724596
 20
9.136941886313233
 30
0.0
 10
26.07027830955638
 20
9.736663031793187
 30
0.0
 10
26.07027830955638
 20
9.736663031793187
 30
0.0
 10
25.99234379012599
 20
9.853562119457917
 30
0.0
 10
25.83439961953153
 20
9.88515203016915
 30
0.0
 10
25.7175005318668
 20
9.807217510738763
 30
0.0
 10
25.60060144420206
 20
9.729282991308377
 30
0.0
 10
25.56901153349083
 20
9.571338820713912
 30
0.0
 10
25.64694605292122
 20
9.45443973304918
 30
0.0
 10
25.64694605292122
 20
9.45443973304918
 30
0.0
 10
25.75278046282043
 20
9.313328083677177
 30
0.0
 10
25.75278046282043
 20
9.313328083677177
 30
0.0
 10
25.75278046282043
 20
9.313328083677177
 30
0.0
 10
25.64694605292122
 20
9.313328083677177
 30
0.0
 10
25.64694605292122
 20
9.313328083677177
 30
0.0
 10
25.64694605292122
 20
9.313328083677177
 30
0.0
 10
25.11777938638684
 20
10.15999528842835
 30
0.0
 10
25.11777938638684
 20
10.15999528842835
 30
0.0
 10
25.11777938638684
 20
10.15999528842835
 30
0.0
 10
25.96444659113801
 20
12.52360532235622
 30
0.0
 10
25.96444659113801
 20
12.52360532235622
 30
0.0
 10
25.96444659113801
 20
12.45305084341064
 30
0.0
 10
25.92916935166522
 20
12.417770912457
 30
0.0
 10
25.92916935166522
 20
12.38249367298421
 30
0.0
 10
25.89871255439094
 20
12.19405771586444
 30
0.0
 10
25.95004178564031
 20
12.00157646303034
 30
0.0
 10
26.07028100103723
 20
11.85332700644984
 30
0.0
 10
26.07028100103723
 20
11.85332700644984
 30
0.0
 10
26.35250429978123
 20
11.60638363865947
 30
0.0
 10
26.35250429978123
 20
11.60638363865947
 30
0.0
 10
26.35250429978123
 20
11.60638363865947
 30
0.0
 10
26.7405593169436
 20
11.46527198928747
 30
0.0
 10
26.7405593169436
 20
11.46527198928747
 30
0.0
 10
26.7405593169436
 20
11.46527198928747
 30
0.0
 10
27.58722652169477
 20
11.46527198928747
 30
0.0
 10
27.58722652169477
 20
11.46527198928747
 30
0.0
 10
27.58722652169477
 20
11.46527198928747
 30
0.0
 10
27.65778100064035
 20
11.39471751034189
 30
0.0
 10
27.65778100064035
 20
11.39471751034189
 30
0.0
 10
27.65778100064035
 20
11.39471751034189
 30
0.0
 10
28.25750214612031
 20
11.07721697212509
 30
0.0
 10
28.25750214612031
 20
11.07721697212509
 30
0.0
 10
28.29277938559309
 20
10.93610532275309
 30
0.0
 10
28.36333655601952
 20
10.79499367338109
 30
0.0
 10
28.39861379549231
 20
10.65388471548993
 30
0.0
 10
28.39861379549231
 20
10.65388471548993
 30
0.0
 10
27.83416988948514
 20
10.93610801423394
 30
0.0
 10
27.83416988948514
 20
10.93610801423394
 30
0.0
 10
27.7179113742622
 20
11.00741610781692
 30
0.0
 10
27.56586154672453
 20
10.97097614861785
 30
0.0
 10
27.49455345314155
 20
10.85471763339491
 30
0.0
 10
27.48971147909627
 20
10.84682352006816
 30
0.0
 10
27.48531898235257
 20
10.83866295013748
 30
0.0
 10
27.48139211179556
 20
10.83027360433472
 30
0.0
 10
27.43789239833259
 20
10.70214296709191
 30
0.0
 10
27.48037742351592
 20
10.56052262783966
 30
0.0
 10
27.58722652169477
 20
10.47749582664514
 30
0.0
 10
27.58722652169477
 20
10.47749582664514
 30
0.0
 10
28.57499999285625
 20
9.948326468629919
 30
0.0
 10
28.57499999285625
 20
9.948326468629919
 30
0.0
 10
28.63787298546206
 20
9.812998811599948
 30
0.0
 10
28.68521344209492
 20
9.67098013318222
 30
0.0
 10
28.71611164222825
 20
9.524994211994757
 30
0.0
 10
28.71611164222825
 20
9.524994211994757
 30
0.0
 10
27.76361541053956
 20
10.05416087852913
 30
0.0
 10
27.76361541053956
 20
10.05416087852913
 30
0.0
  0
SPLINE
  5
1EC
330
49
100
AcDbEntity
  8
Layer 1
370
     0
100
AcDbSpline
210
0.0
220
0.0
230
1.0
 70
    11
 71
     3
 72
    20
 73
    16
 74
     0
 42
0.0000000001
 43
0.0000000001
 12
1.0
 22
0.0
 32
0.0
 13
1.0
 23
0.0
 33
0.0
 40
0.0
 40
0.0
 40
0.0
 40
0.0
 40
1.0
 40
1.0
 40
1.0
 40
2.0
 40
2.0
 40
2.0
 40
3.0
 40
3.0
 40
3.0
 40
4.0
 40
4.0
 40
4.0
 40
5.0
 40
5.0
 40
5.0
 40
5.0
 10
28.32805931654673
 20
11.57110639918668
 30
0.0
 10
28.32805931654673
 20
11.57110639918668
 30
0.0
 10
28.43389372644594
 20
11.57110639918668
 30
0.0
 10
28.43389372644594
 20
11.57110639918668
 30
0.0
 10
28.46917096591873
 20
11.53582915971389
 30
0.0
 10
28.50444820539152
 20
11.53582915971389
 30
0.0
 10
28.50444820539152
 20
11.46527198928747
 30
0.0
 10
28.50444820539152
 20
11.39471481886104
 30
0.0
 10
28.50444820539152
 20
11.35943757938825
 30
0.0
 10
28.43389372644594
 20
11.32416033991546
 30
0.0
 10
28.43389372644594
 20
11.32416033991546
 30
0.0
 10
28.29278207707394
 20
11.39471481886104
 30
0.0
 10
28.29278207707394
 20
11.39471481886104
 30
0.0
 10
28.25749945463946
 20
11.50054653727941
 30
0.0
 10
28.29277669411224
 20
11.53582646823304
 30
0.0
 10
28.32805931654673
 20
11.57110639918668
 30
0.0
  0
SPLINE
  5
1ED
330
49
100
AcDbEntity
  8
Layer 1
370
     0
100
AcDbSpline
210
0.0
220
0.0
230
1.0
 70
    11
 71
     3
 72
    23
 73
    19
 74
     0
 42
0.0000000001
 43
0.0000000001
 12
1.0
 22
0.0
 32
0.0
 13
1.0
 23
0.0
 33
0.0
 40
0.0
 40
0.0
 40
0.0
 40
0.0
 40
1.0
 40
1.0
 40
1.0
 40
2.0
 40
2.0
 40
2.0
 40
3.0
 40
3.0
 40
3.0
 40
4.0
 40
4.0
 40
4.0
 40
5.0
 40
5.0
 40
5.0
 40
6.0
 40
6.0
 40
6.0
 40
6.0
 10
28.75139157318189
 20
10.26582969832756
 30
0.0
 10
28.7161143337091
 20
10.23055245885477
 30
0.0
 10
28.64555716328268
 20
10.26582969832756
 30
0.0
 10
28.61027992380989
 20
10.33638417727314
 30
0.0
 10
28.58874000258453
 20
10.39071979262956
 30
0.0
 10
28.61532645039961
 20
10.45223089592636
 30
0.0
 10
28.66966206575603
 20
10.47377081715172
 30
0.0
 10
28.67331440526657
 20
10.47521883384786
 30
0.0
 10
28.67704479772169
 20
10.47646229799957
 30
0.0
 10
28.68083440275547
 20
10.47749582664514
 30
0.0
 10
28.74902845299748
 20
10.50300568212108
 30
0.0
 10
28.82543421130628
 20
10.47244391709372
 30
0.0
 10
28.85722329160026
 20
10.40694134769956
 30
0.0
 10
28.85722329160026
 20
10.33638148579229
 30
0.0
 10
28.82194336064662
 20
10.26582431536587
 30
0.0
 10
28.75138888170104
 20
10.26582431536587
 30
0.0
 10
28.75138888170104
 20
10.26582431536587
 30
0.0
 10
28.75139157318189
 20
10.26582969832756
 30
0.0
 10
28.75139157318189
 20
10.26582969832756
 30
0.0
  0
SPLINE
  5
1EE
330
49
100
AcDbEntity
  8
Layer 1
370
     0
100
AcDbSpline
210
0.0
220
0.0
230
1.0
 70
    11
 71
     3
 72
    80
 73
    76
 74
     0
 42
0.0000000001
 43
0.0000000001
 12
1.0
 22
0.0
 32
0.0
 13
1.0
 23
0.0
 33
0.0
 40
0.0
 40
0.0
 40
0.0
 40
0.0
 40
1.0
 40
1.0
 40
1.0
 40
2.0
 40
2.0
 40
2.0
 40
3.0
 40
3.0
 40
3.0
 40
4.0
 40
4.0
 40
4.0
 40
5.0
 40
5.0
 40
5.0
 40
6.0
 40
6.0
 40
6.0
 40
7.0
 40
7.0
 40
7.0
 40
8.0
 40
8.0
 40
8.0
 40
9.0
 40
9.0
 40
9.0
 40
10.0
 40
10.0
 40
10.0
 40
11.0
 40
11.0
 40
11.0
 40
12.0
 40
12.0
 40
12.0
 40
13.0
 40
13.0
 40
13.0
 40
14.0
 40
14.0
 40
14.0
 40
15.0
 40
15.0
 40
15.0
 40
16.0
 40
16.0
 40
16.0
 40
17.0
 40
17.0
 40
17.0
 40
18.0
 40
18.0
 40
18.0
 40
19.0
 40
19.0
 40
19.0
 40
20.0
 40
20.0
 40
20.0
 40
21.0
 40
21.0
 40
21.0
 40
22.0
 40
22.0
 40
22.0
 40
23.0
 40
23.0
 40
23.0
 40
24.0
 40
24.0
 40
24.0
 40
25.0
 40
25.0
 40
25.0
 40
25.0
 10
29.10416935087147
 20
9.913051920637978
 30
0.0
 10
29.11500525276492
 20
9.974191599577772
 30
0.0
 10
29.10240912239698
 20
10.03716955993665
 30
0.0
 10
29.06889211139869
 20
10.08944080948277
 30
0.0
 10
29.06889211139869
 20
10.08944080948277
 30
0.0
 10
29.59805877793306
 20
11.07721966360594
 30
0.0
 10
29.59805877793306
 20
11.07721966360594
 30
0.0
 10
29.66225328763516
 20
11.19650609478272
 30
0.0
 10
29.63263892386626
 20
11.34457522214642
 30
0.0
 10
29.52750429898748
 20
11.42999744129552
 30
0.0
 10
29.41124578376454
 20
11.5013055348785
 30
0.0
 10
29.25919595622687
 20
11.46486557567944
 30
0.0
 10
29.18788786264389
 20
11.3486070604565
 30
0.0
 10
29.18304588859861
 20
11.34071294712975
 30
0.0
 10
29.17865339185492
 20
11.33255237719906
 30
0.0
 10
29.1747265212979
 20
11.32416303139631
 30
0.0
 10
29.1747265212979
 20
11.32416303139631
 30
0.0
 10
28.8572259830811
 20
10.79499636486194
 30
0.0
 10
28.8572259830811
 20
10.79499636486194
 30
0.0
 10
28.8572259830811
 20
10.79499636486194
 30
0.0
 10
28.75139157318189
 20
11.2183286214971
 30
0.0
 10
28.75139157318189
 20
11.2183286214971
 30
0.0
 10
28.75139157318189
 20
11.2183286214971
 30
0.0
 10
29.06889211139869
 20
11.81804976697705
 30
0.0
 10
29.06889211139869
 20
11.81804976697705
 30
0.0
 10
29.14020020498166
 20
11.93430828219999
 30
0.0
 10
29.1037602457826
 20
12.08635810973766
 30
0.0
 10
28.98750173055966
 20
12.15766620332064
 30
0.0
 10
28.97960761723291
 20
12.16250817736592
 30
0.0
 10
28.97144704730222
 20
12.16690067410962
 30
0.0
 10
28.96305770149947
 20
12.17082754466663
 30
0.0
 10
28.86591946621967
 20
12.23586448787412
 30
0.0
 10
28.73445139272551
 20
12.20984325103709
 30
0.0
 10
28.66941175803719
 20
12.11270501575728
 30
0.0
 10
28.65948019370861
 20
12.09786957332392
 30
0.0
 10
28.65146496374371
 20
12.08183911339412
 30
0.0
 10
28.64555716328268
 20
12.06499313476742
 30
0.0
 10
28.64555716328268
 20
12.06499313476742
 30
0.0
 10
28.53972275338346
 20
11.92388148539542
 30
0.0
 10
28.53972275338346
 20
11.92388148539542
 30
0.0
 10
28.53972275338346
 20
11.92388148539542
 30
0.0
 10
28.50444551391067
 20
11.92388148539542
 30
0.0
 10
28.50444551391067
 20
11.92388148539542
 30
0.0
 10
28.50444551391067
 20
11.92388148539542
 30
0.0
 10
28.39861110401146
 20
12.31193650255779
 30
0.0
 10
28.39861110401146
 20
12.31193650255779
 30
0.0
 10
28.34969613108261
 20
12.44006983128145
 30
0.0
 10
28.21574382076589
 20
12.51448927672454
 30
0.0
 10
28.08111056579466
 20
12.48832539140258
 30
0.0
 10
27.93999891642266
 20
12.417770912457
 30
0.0
 10
27.86944443747709
 20
12.276659263085
 30
0.0
 10
27.93999891642266
 20
12.17082485318578
 30
0.0
 10
27.94643693861072
 20
12.06190600623493
 30
0.0
 10
27.97025385263336
 20
11.95471778146925
 30
0.0
 10
28.01055339536824
 20
11.85332431496899
 30
0.0
 10
28.01055339536824
 20
11.85332431496899
 30
0.0
 10
27.2344433610435
 20
11.85332431496899
 30
0.0
 10
27.2344433610435
 20
11.85332431496899
 30
0.0
 10
27.03039143204449
 20
11.83532638253941
 30
0.0
 10
26.82749683981005
 20
11.89873228835309
 30
0.0
 10
26.66999945503633
 20
12.02971320381378
 30
0.0
 10
26.63255288200017
 20
12.10013041723612
 30
0.0
 10
26.64701690007653
 20
12.18691183421339
 30
0.0
 10
26.70527669450912
 20
12.24137933213136
 30
0.0
 10
26.98267685957378
 20
12.4371872552934
 30
0.0
 10
27.29352405713468
 20
12.58065664188812
 30
0.0
 10
27.62250106968672
 20
12.66471428024737
 30
0.0
 10
27.62250106968672
 20
12.66471428024737
 30
0.0
 10
30.33888888130417
 20
13.47610424552575
 30
0.0
 10
30.33888888130417
 20
13.47610424552575
 30
0.0
 10
30.09279871294257
 20
12.23737710011061
 30
0.0
 10
29.67732288890229
 20
11.03843273310756
 30
0.0
 10
29.10416665939062
 20
9.913046537676282
 30
0.0
 10
29.10416665939062
 20
9.913046537676282
 30
0.0
 10
29.10416935087147
 20
9.913051920637978
 30
0.0
 10
29.10416935087147
 20
9.913051920637978
 30
0.0
  0
ENDBLK
  5
4C
330
49
100
AcDbEntity
  8
0
100
AcDbBlockEnd
  0
ENDSEC
  0
SECTION
  2
ENTITIES
  0
INSERT
  5
42
330
1F
100
AcDbEntity
  8
Layer 1
100
AcDbBlockReference
  2
block 2
 10
0.0
 20
0.0
 30
0.0
  0
INSERT
  5
46
330
1F
100
AcDbEntity
  8
Layer 1
100
AcDbBlockReference
  2
block 3
 10
0.0
 20
0.0
 30
0.0
  0
ENDSEC
  0
SECTION
  2
OBJECTS
  0
DICTIONARY
  5
C
330
0
100
AcDbDictionary
281
     1
  3
ACAD_GROUP
350
D
  3
ACAD_LAYOUT
350
1A
  3
ACAD_MATERIAL
350
3B
  3
ACAD_MLEADERSTYLE
350
1F0
  3
ACAD_MLINESTYLE
350
17
  3
ACAD_PLOTSETTINGS
350
19
  3
ACAD_PLOTSTYLENAME
350
E
  3
ACAD_TABLESTYLE
350
1EF
  3
ACAD_VISUALSTYLE
350
2A
  0
SUN
  5
3F
330
29
100
AcDbSun
 90
        1
290
     0
 63
     7
421
 16777215
 40
1.0
291
     1
 91
  2455826
 92
 54000000
292
     0
 70
     2
 71
   256
280
     1
  0
DICTIONARY
  5
D
102
{ACAD_REACTORS
330
C
102
}
330
C
100
AcDbDictionary
281
     1
  0
DICTIONARY
  5
1A
102
{ACAD_REACTORS
330
C
102
}
330
C
100
AcDbDictionary
281
     1
  3
Layout1
350
1E
  3
Layout2
350
26
  3
Model
350
22
  0
DICTIONARY
  5
3B
102
{ACAD_REACTORS
330
C
102
}
330
C
100
AcDbDictionary
281
     1
  3
ByBlock
350
3D
  3
ByLayer
350
3C
  3
Global
350
3E
  0
DICTIONARY
  5
1F0
102
{ACAD_REACTORS
330
C
102
}
330
C
100
AcDbDictionary
281
     1
  0
DICTIONARY
  5
17
102
{ACAD_REACTORS
330
C
102
}
330
C
100
AcDbDictionary
281
     1
  3
Standard
350
18
  0
DICTIONARY
  5
19
102
{ACAD_REACTORS
330
C
102
}
330
C
100
AcDbDictionary
281
     1
  0
ACDBDICTIONARYWDFLT
  5
E
102
{ACAD_REACTORS
330
C
102
}
330
C
100
AcDbDictionary
281
     1
  3
Normal
350
F
100
AcDbDictionaryWithDefault
340
F
  0
DICTIONARY
  5
1EF
102
{ACAD_REACTORS
330
C
102
}
330
C
100
AcDbDictionary
281
     1
  0
DICTIONARY
  5
2A
102
{ACAD_REACTORS
330
C
102
}
330
C
100
AcDbDictionary
281
     1
  3
2dWireframe
350
2F
  3
3D Hidden
350
31
  3
3dWireframe
350
30
  3
Basic
350
32
  3
Brighten
350
36
  3
ColorChange
350
3A
  3
Conceptual
350
34
  3
Dim
350
35
  3
Facepattern
350
39
  3
Flat
350
2B
  3
FlatWithEdges
350
2C
  3
Gouraud
350
2D
  3
GouraudWithEdges
350
2E
  3
Linepattern
350
38
  3
Realistic
350
33
  3
Thicken
350
37
  0
LAYOUT
  5
1E
102
{ACAD_REACTORS
330
1A
102
}
330
1A
100
AcDbPlotSettings
  1

  2
none_device
  4

  6

 40
0.0
 41
0.0
 42
0.0
 43
0.0
 44
0.0
 45
0.0
 46
0.0
 47
0.0
 48
0.0
 49
0.0
140
0.0
141
0.0
142
1.0
143
1.0
 70
   688
 72
     0
 73
     0
 74
     5
  7

 75
    16
 76
     0
 77
     2
 78
   300
147
1.0
148
0.0
149
0.0
100
AcDbLayout
  1
Layout1
 70
     1
 71
     1
 10
0.0
 20
0.0
 11
12.0
 21
9.0
 12
0.0
 22
0.0
 32
0.0
 14
1.000000000000000E+20
 24
1.000000000000000E+20
 34
1.000000000000000E+20
 15
-1.000000000000000E+20
 25
-1.000000000000000E+20
 35
-1.000000000000000E+20
146
0.0
 13
0.0
 23
0.0
 33
0.0
 16
1.0
 26
0.0
 36
0.0
 17
0.0
 27
1.0
 37
0.0
 76
     0
330
1B
  0
LAYOUT
  5
26
102
{ACAD_REACTORS
330
1A
102
}
330
1A
100
AcDbPlotSettings
  1

  2
none_device
  4

  6

 40
0.0
 41
0.0
 42
0.0
 43
0.0
 44
0.0
 45
0.0
 46
0.0
 47
0.0
 48
0.0
 49
0.0
140
0.0
141
0.0
142
1.0
143
1.0
 70
   688
 72
     0
 73
     0
 74
     5
  7

 75
    16
 76
     0
 77
     2
 78
   300
147
1.0
148
0.0
149
0.0
100
AcDbLayout
  1
Layout2
 70
     1
 71
     2
 10
0.0
 20
0.0
 11
0.0
 21
0.0
 12
0.0
 22
0.0
 32
0.0
 14
0.0
 24
0.0
 34
0.0
 15
0.0
 25
0.0
 35
0.0
146
0.0
 13
0.0
 23
0.0
 33
0.0
 16
1.0
 26
0.0
 36
0.0
 17
0.0
 27
1.0
 37
0.0
 76
     0
330
23
  0
LAYOUT
  5
22
102
{ACAD_REACTORS
330
1A
102
}
330
1A
100
AcDbPlotSettings
  1

  2
none_device
  4

  6

 40
0.0
 41
0.0
 42
0.0
 43
0.0
 44
0.0
 45
0.0
 46
0.0
 47
0.0
 48
0.0
 49
0.0
140
0.0
141
0.0
142
1.0
143
1.0
 70
  1712
 72
     0
 73
     0
 74
     0
  7

 75
     0
 76
     0
 77
     2
 78
   300
147
1.0
148
0.0
149
0.0
100
AcDbLayout
  1
Model
 70
     1
 71
     0
 10
0.0
 20
0.0
 11
12.0
 21
9.0
 12
0.0
 22
0.0
 32
0.0
 14
1.000000000000000E+20
 24
1.000000000000000E+20
 34
1.000000000000000E+20
 15
-1.000000000000000E+20
 25
-1.000000000000000E+20
 35
-1.000000000000000E+20
146
0.0
 13
0.0
 23
0.0
 33
0.0
 16
1.0
 26
0.0
 36
0.0
 17
0.0
 27
1.0
 37
0.0
 76
     0
330
1F
331
29
  0
MATERIAL
  5
3D
102
{ACAD_REACTORS
330
3B
102
}
330
3B
100
AcDbMaterial
  1
ByBlock
 72
     1
 94
      127
  0
MATERIAL
  5
3C
102
{ACAD_REACTORS
330
3B
102
}
330
3B
100
AcDbMaterial
  1
ByLayer
 72
     1
 94
      127
  0
MATERIAL
  5
3E
102
{ACAD_REACTORS
330
3B
102
}
330
3B
100
AcDbMaterial
  1
Global
 72
     1
 94
      127
  0
MLINESTYLE
  5
18
102
{ACAD_REACTORS
330
17
102
}
330
17
100
AcDbMlineStyle
  2
Standard
 70
     0
  3

 62
   256
 51
90.0
 52
90.0
 71
     2
 49
0.5
 62
   256
  6
BYLAYER
 49
-0.5
 62
   256
  6
BYLAYER
  0
ACDBPLACEHOLDER
  5
F
102
{ACAD_REACTORS
330
E
102
}
330
E
  0
VISUALSTYLE
  5
2F
102
{ACAD_REACTORS
330
2A
102
}
330
2A
100
AcDbVisualStyle
  2
2dWireframe
 70
     4
177
     2
291
     0
 71
     0
176
     1
 72
     2
176
     1
 73
     0
176
     1
 90
        0
176
     1
 40
-0.6
176
     1
 41
-30.0
176
     1
 62
     5
 63
     7
421
 16777215
176
     1
 74
     1
176
     1
 91
        4
176
     1
 64
     7
176
     1
 65
   257
176
     1
 75
     1
176
     1
175
     1
176
     1
 42
1.0
176
     1
 92
        0
176
     1
 66
   257
176
     1
 43
1.0
176
     1
 76
     1
176
     1
 77
     6
176
     1
 78
     2
176
     1
 67
     7
176
     1
 79
     5
176
     1
170
     0
176
     1
171
     0
176
     1
290
     0
176
     1
 93
        1
176
     1
 44
0.0
176
     1
173
     0
176
     1
  0
VISUALSTYLE
  5
31
102
{ACAD_REACTORS
330
2A
102
}
330
2A
100
AcDbVisualStyle
  2
3D Hidden
 70
     6
177
     2
291
     0
 71
     1
176
     1
 72
     2
176
     1
 73
     2
176
     1
 90
        0
176
     1
 40
-0.6
176
     1
 41
-30.0
176
     1
 62
     5
 63
     7
421
 16777215
176
     1
 74
     2
176
     1
 91
        2
176
     1
 64
     7
176
     1
 65
   257
176
     1
 75
     2
176
     1
175
     1
176
     1
 42
40.0
176
     1
 92
        0
176
     1
 66
   257
176
     1
 43
1.0
176
     1
 76
     1
176
     1
 77
     6
176
     1
 78
     2
176
     1
 67
     7
176
     1
 79
     3
176
     1
170
     0
176
     1
171
     0
176
     1
290
     0
176
     1
 93
        1
176
     1
 44
0.0
176
     1
173
     0
176
     1
  0
VISUALSTYLE
  5
30
102
{ACAD_REACTORS
330
2A
102
}
330
2A
100
AcDbVisualStyle
  2
3dWireframe
 70
     5
177
     2
291
     0
 71
     0
176
     1
 72
     2
176
     1
 73
     0
176
     1
 90
        0
176
     1
 40
-0.6
176
     1
 41
-30.0
176
     1
 62
     5
 63
     7
421
 16777215
176
     1
 74
     1
176
     1
 91
        4
176
     1
 64
     7
176
     1
 65
   257
176
     1
 75
     1
176
     1
175
     1
176
     1
 42
1.0
176
     1
 92
        0
176
     1
 66
   257
176
     1
 43
1.0
176
     1
 76
     1
176
     1
 77
     6
176
     1
 78
     2
176
     1
 67
     7
176
     1
 79
     5
176
     1
170
     0
176
     1
171
     0
176
     1
290
     0
176
     1
 93
        1
176
     1
 44
0.0
176
     1
173
     0
176
     1
  0
VISUALSTYLE
  5
32
102
{ACAD_REACTORS
330
2A
102
}
330
2A
100
AcDbVisualStyle
  2
Basic
 70
     7
177
     2
291
     1
 71
     1
176
     1
 72
     0
176
     1
 73
     1
176
     1
 90
        0
176
     1
 40
-0.6
176
     1
 41
-30.0
176
     1
 62
     5
 63
     7
421
 16777215
176
     1
 74
     0
176
     1
 91
        4
176
     1
 64
     7
176
     1
 65
   257
176
     1
 75
     1
176
     1
175
     1
176
     1
 42
1.0
176
     1
 92
        8
176
     1
 66
     7
176
     1
 43
1.0
176
     1
 76
     1
176
     1
 77
     6
176
     1
 78
     2
176
     1
 67
     7
176
     1
 79
     5
176
     1
170
     0
176
     1
171
     0
176
     1
290
     0
176
     1
 93
        1
176
     1
 44
0.0
176
     1
173
     0
176
     1
  0
VISUALSTYLE
  5
36
102
{ACAD_REACTORS
330
2A
102
}
330
2A
100
AcDbVisualStyle
  2
Brighten
 70
    12
177
     2
291
     1
 71
     2
176
     1
 72
     2
176
     1
 73
     0
176
     1
 90
        0
176
     1
 40
-0.6
176
     1
 41
-30.0
176
     1
 62
     5
 63
     7
421
 16777215
176
     1
 74
     1
176
     1
 91
        4
176
     1
 64
     7
176
     1
 65
   257
176
     1
 75
     1
176
     1
175
     1
176
     1
 42
1.0
176
     1
 92
        8
176
     1
 66
     7
176
     1
 43
1.0
176
     1
 76
     1
176
     1
 77
     6
176
     1
 78
     2
176
     1
 67
     7
176
     1
 79
     5
176
     1
170
     0
176
     1
171
     0
176
     1
290
     0
176
     1
 93
        1
176
     1
 44
50.0
176
     1
173
     0
176
     1
  0
VISUALSTYLE
  5
3A
102
{ACAD_REACTORS
330
2A
102
}
330
2A
100
AcDbVisualStyle
  2
ColorChange
 70
    16
177
     2
291
     1
 71
     2
176
     1
 72
     2
176
     1
 73
     3
176
     1
 90
        0
176
     1
 40
-0.6
176
     1
 41
-30.0
176
     1
 62
     5
 63
     8
421
  8421504
176
     1
 74
     1
176
     1
 91
        4
176
     1
 64
     7
176
     1
 65
   257
176
     1
 75
     1
176
     1
175
     1
176
     1
 42
1.0
176
     1
 92
        8
176
     1
 66
     8
424
  8421504
176
     1
 43
1.0
176
     1
 76
     1
176
     1
 77
     6
176
     1
 78
     2
176
     1
 67
     7
176
     1
 79
     5
176
     1
170
     0
176
     1
171
     0
176
     1
290
     0
176
     1
 93
        1
176
     1
 44
0.0
176
     1
173
     0
176
     1
  0
VISUALSTYLE
  5
34
102
{ACAD_REACTORS
330
2A
102
}
330
2A
100
AcDbVisualStyle
  2
Conceptual
 70
     9
177
     2
291
     0
 71
     3
176
     1
 72
     2
176
     1
 73
     0
176
     1
 90
        0
176
     1
 40
-0.6
176
     1
 41
-30.0
176
     1
 62
     5
 63
     7
421
 16777215
176
     1
 74
     2
176
     1
 91
        2
176
     1
 64
     7
176
     1
 65
   257
176
     1
 75
     1
176
     1
175
     1
176
     1
 42
40.0
176
     1
 92
        8
176
     1
 66
     7
176
     1
 43
1.0
176
     1
 76
     1
176
     1
 77
     6
176
     1
 78
     2
176
     1
 67
     7
176
     1
 79
     3
176
     1
170
     0
176
     1
171
     0
176
     1
290
     0
176
     1
 93
        1
176
     1
 44
0.0
176
     1
173
     0
176
     1
  0
VISUALSTYLE
  5
35
102
{ACAD_REACTORS
330
2A
102
}
330
2A
100
AcDbVisualStyle
  2
Dim
 70
    11
177
     2
291
     1
 71
     2
176
     1
 72
     2
176
     1
 73
     0
176
     1
 90
        0
176
     1
 40
-0.6
176
     1
 41
-30.0
176
     1
 62
     5
 63
     7
421
 16777215
176
     1
 74
     1
176
     1
 91
        4
176
     1
 64
     7
176
     1
 65
   257
176
     1
 75
     1
176
     1
175
     1
176
     1
 42
1.0
176
     1
 92
        8
176
     1
 66
     7
176
     1
 43
1.0
176
     1
 76
     1
176
     1
 77
     6
176
     1
 78
     2
176
     1
 67
     7
176
     1
 79
     5
176
     1
170
     0
176
     1
171
     0
176
     1
290
     0
176
     1
 93
        1
176
     1
 44
-50.0
176
     1
173
     0
176
     1
  0
VISUALSTYLE
  5
39
102
{ACAD_REACTORS
330
2A
102
}
330
2A
100
AcDbVisualStyle
  2
Facepattern
 70
    15
177
     2
291
     1
 71
     2
176
     1
 72
     2
176
     1
 73
     0
176
     1
 90
        0
176
     1
 40
-0.6
176
     1
 41
-30.0
176
     1
 62
     5
 63
     7
421
 16777215
176
     1
 74
     1
176
     1
 91
        4
176
     1
 64
     7
176
     1
 65
   257
176
     1
 75
     1
176
     1
175
     1
176
     1
 42
1.0
176
     1
 92
        8
176
     1
 66
     7
176
     1
 43
1.0
176
     1
 76
     1
176
     1
 77
     6
176
     1
 78
     2
176
     1
 67
     7
176
     1
 79
     5
176
     1
170
     0
176
     1
171
     0
176
     1
290
     0
176
     1
 93
        1
176
     1
 44
0.0
176
     1
173
     0
176
     1
  0
VISUALSTYLE
  5
2B
102
{ACAD_REACTORS
330
2A
102
}
330
2A
100
AcDbVisualStyle
  2
Flat
 70
     0
177
     2
291
     1
 71
     2
176
     1
 72
     1
176
     1
 73
     1
176
     1
 90
        2
176
     1
 40
-0.6
176
     1
 41
30.0
176
     1
 62
     5
 63
     7
421
 16777215
176
     1
 74
     0
176
     1
 91
        4
176
     1
 64
     7
176
     1
 65
   257
176
     1
 75
     1
176
     1
175
     1
176
     1
 42
1.0
176
     1
 92
        8
176
     1
 66
     7
176
     1
 43
1.0
176
     1
 76
     1
176
     1
 77
     6
176
     1
 78
     2
176
     1
 67
     7
176
     1
 79
     5
176
     1
170
     0
176
     1
171
     0
176
     1
290
     0
176
     1
 93
       13
176
     1
 44
0.0
176
     1
173
     0
176
     1
  0
VISUALSTYLE
  5
2C
102
{ACAD_REACTORS
330
2A
102
}
330
2A
100
AcDbVisualStyle
  2
FlatWithEdges
 70
     1
177
     2
291
     1
 71
     2
176
     1
 72
     1
176
     1
 73
     1
176
     1
 90
        2
176
     1
 40
-0.6
176
     1
 41
30.0
176
     1
 62
     5
 63
     7
421
 16777215
176
     1
 74
     1
176
     1
 91
        4
176
     1
 64
     7
176
     1
 65
   257
176
     1
 75
     1
176
     1
175
     1
176
     1
 42
1.0
176
     1
 92
        0
176
     1
 66
   257
176
     1
 43
1.0
176
     1
 76
     1
176
     1
 77
     6
176
     1
 78
     2
176
     1
 67
     7
176
     1
 79
     5
176
     1
170
     0
176
     1
171
     0
176
     1
290
     0
176
     1
 93
       13
176
     1
 44
0.0
176
     1
173
     0
176
     1
  0
VISUALSTYLE
  5
2D
102
{ACAD_REACTORS
330
2A
102
}
330
2A
100
AcDbVisualStyle
  2
Gouraud
 70
     2
177
     2
291
     1
 71
     2
176
     1
 72
     2
176
     1
 73
     1
176
     1
 90
        2
176
     1
 40
-0.6
176
     1
 41
30.0
176
     1
 62
     5
 63
     7
421
 16777215
176
     1
 74
     0
176
     1
 91
        4
176
     1
 64
     7
176
     1
 65
   257
176
     1
 75
     1
176
     1
175
     1
176
     1
 42
1.0
176
     1
 92
        0
176
     1
 66
     7
176
     1
 43
1.0
176
     1
 76
     1
176
     1
 77
     6
176
     1
 78
     2
176
     1
 67
     7
176
     1
 79
     5
176
     1
170
     0
176
     1
171
     0
176
     1
290
     0
176
     1
 93
       13
176
     1
 44
0.0
176
     1
173
     0
176
     1
  0
VISUALSTYLE
  5
2E
102
{ACAD_REACTORS
330
2A
102
}
330
2A
100
AcDbVisualStyle
  2
GouraudWithEdges
 70
     3
177
     2
291
     1
 71
     2
176
     1
 72
     2
176
     1
 73
     1
176
     1
 90
        2
176
     1
 40
-0.6
176
     1
 41
30.0
176
     1
 62
     5
 63
     7
421
 16777215
176
     1
 74
     1
176
     1
 91
        4
176
     1
 64
     7
176
     1
 65
   257
176
     1
 75
     1
176
     1
175
     1
176
     1
 42
1.0
176
     1
 92
        0
176
     1
 66
   257
176
     1
 43
1.0
176
     1
 76
     1
176
     1
 77
     6
176
     1
 78
     2
176
     1
 67
     7
176
     1
 79
     5
176
     1
170
     0
176
     1
171
     0
176
     1
290
     0
176
     1
 93
       13
176
     1
 44
0.0
176
     1
173
     0
176
     1
  0
VISUALSTYLE
  5
38
102
{ACAD_REACTORS
330
2A
102
}
330
2A
100
AcDbVisualStyle
  2
Linepattern
 70
    14
177
     2
291
     1
 71
     2
176
     1
 72
     2
176
     1
 73
     0
176
     1
 90
        0
176
     1
 40
-0.6
176
     1
 41
-30.0
176
     1
 62
     5
 63
     7
421
 16777215
176
     1
 74
     1
176
     1
 91
        4
176
     1
 64
     7
176
     1
 65
   257
176
     1
 75
     7
176
     1
175
     7
176
     1
 42
1.0
176
     1
 92
        8
176
     1
 66
     7
176
     1
 43
1.0
176
     1
 76
     1
176
     1
 77
     6
176
     1
 78
     2
176
     1
 67
     7
176
     1
 79
     5
176
     1
170
     0
176
     1
171
     0
176
     1
290
     0
176
     1
 93
        1
176
     1
 44
0.0
176
     1
173
     0
176
     1
  0
VISUALSTYLE
  5
33
102
{ACAD_REACTORS
330
2A
102
}
330
2A
100
AcDbVisualStyle
  2
Realistic
 70
     8
177
     2
291
     0
 71
     2
176
     1
 72
     2
176
     1
 73
     0
176
     1
 90
        0
176
     1
 40
-0.6
176
     1
 41
-30.0
176
     1
 62
     5
 63
     7
421
 16777215
176
     1
 74
     1
176
     1
 91
        0
176
     1
 64
     7
176
     1
 65
   257
176
     1
 75
     1
176
     1
175
     1
176
     1
 42
1.0
176
     1
 92
        8
176
     1
 66
     8
424
  7895160
176
     1
 43
1.0
176
     1
 76
     1
176
     1
 77
     6
176
     1
 78
     2
176
     1
 67
     7
176
     1
 79
     5
176
     1
170
     0
176
     1
171
     0
176
     1
290
     0
176
     1
 93
       13
176
     1
 44
0.0
176
     1
173
     0
176
     1
  0
VISUALSTYLE
  5
37
102
{ACAD_REACTORS
330
2A
102
}
330
2A
100
AcDbVisualStyle
  2
Thicken
 70
    13
177
     2
291
     1
 71
     2
176
     1
 72
     2
176
     1
 73
     0
176
     1
 90
        0
176
     1
 40
-0.6
176
     1
 41
-30.0
176
     1
 62
     5
 63
     7
421
 16777215
176
     1
 74
     1
176
     1
 91
        4
176
     1
 64
     7
176
     1
 65
   257
176
     1
 75
     1
176
     1
175
     1
176
     1
 42
1.0
176
     1
 92
       12
176
     1
 66
     7
176
     1
 43
1.0
176
     1
 76
     1
176
     1
 77
     6
176
     1
 78
     2
176
     1
 67
     7
176
     1
 79
     5
176
     1
170
     0
176
     1
171
     0
176
     1
290
     0
176
     1
 93
        1
176
     1
 44
0.0
176
     1
173
     0
176
     1
  0
ENDSEC
  0
EOF
