<svg xmlns="http://www.w3.org/2000/svg" viewBox="0 0 92.5 125.9"><defs><style>.cls-1{fill:#000001;fill-rule:evenodd;}</style></defs><title>Amanda</title><g id="Layer_2" data-name="Layer 2"><g id="Layer_1-2" data-name="Layer 1"><path class="cls-1" d="M72.3,41.5l.8-.3h0a21.8,21.8,0,0,0,6.6-4.6c4.3-5.1-.8-10.8-.8-16.2s2.4-9.4.4-14.1c-1.2-3-4.1-4.4-7.4-4.5A13.8,13.8,0,0,0,64,3.9C61.9,5.2,51.7,15.6,51.5,15.6a2.8,2.8,0,0,0-.9-1.6,2.7,2.7,0,0,0-1.7-.6H46a2.8,2.8,0,0,0-1.3.4c-.6.3-1.2.9-1.2,1.3A58.8,58.8,0,0,0,32.1,2.7,14.8,14.8,0,0,0,24.4,0c-3.3-.1-6.3,1.1-7.8,4-2.3,4.5-.3,9.5-.6,14.1s-5.9,10.7-2,16.1c2.2,2.5,4.5,4.8,7.8,5.8h0l.3.2a46.3,46.3,0,1,0,59.2,69.7c1-1.2,2-2.5,2.9-3.8l.3-.4h0l.6-.8.4-.6,1.5-2.6h0l.8-1.5.4-.9a36.8,36.8,0,0,0,1.5-3.5c0-.1.1-.2.1-.4l.4-1a47,47,0,0,0,2.3-14.6A46.1,46.1,0,0,0,72.3,41.5Zm4.2,56.6a.7.7,0,0,0-1-.3.7.7,0,0,0-.3,1,13,13,0,0,0,1,1.5l-1.3-.3-1-1.7a.7.7,0,1,0-1.2.8l.3.4h-.3l-1.5-2.4,2.5-7-7.1,1.6-5.2-4.2,1.2-1.4,3.1.2-1.6-2.8.6-1.7,1.1.3a4.3,4.3,0,0,0,2,.1h.7a4.1,4.1,0,0,0-1.1,1.7,1.8,1.8,0,0,0,.4,1.7c.7.7,1.9,1,3.7.7h0a2.4,2.4,0,0,0-.9,1.4,1.9,1.9,0,0,0,.3,1.5l.7.6,1.1.3a6,6,0,0,0,1.8-.1h.4a3,3,0,0,0-.9,1.5,1.8,1.8,0,0,0,.4,1.7c.6.7,1.8,1,3.5.7h-.1a2.9,2.9,0,0,0-.8,1.4,2.3,2.3,0,0,0,.4,1.4l.7.6.4.2a.6.6,0,0,0-.7,1c.5.9,1,1.8,1.6,2.7l-1.3-.3Zm.8,3.2c0,.2-.2.3-.4.3a.5.5,0,0,1-.3-.5c.1-.1.3-.3.5-.2S77.4,101.1,77.3,101.3Zm-1.5.4-1.2.7-.4-.7.4-.3Zm-1.7-1.2c0,.2-.2.3-.4.3h-.2v-.2a.5.5,0,0,1,.5-.3C74,100.2,74.2,100.4,74.1,100.5Zm-5.5-1H66.2l-1.4,1.5-.7-2.1-2.1-1,2-1.1.2-2.1L66,95.9l2.1-.6-.7,2.4Zm-11.1.4-2,.7-2.8-2.3-.4,3.7-2,1,3.4-10.4-2.3.5,2-2.4,7.3.6-.4,3.4-5.8,3.8Zm-4.4,3.6,1-.7v-1l.9.7,1.1-.3-.3,1.2.6.9H55.3l-.8.8-.3-1.2Zm.5,4.9-2.5-4,1.7.8ZM33.2,118l-.4-1.1-1.2-.5,1.1-.7v-1.2l1,.8,1.2-.4-.4,1.4.7,1H34l-.8.8Zm3.6-14.2,2.9-1.8.3-3,2.7,2,3.1-.9-1,3.5,1.8,2.7H43l-2.1,2.2-1.1-3.2Zm1.5,14.5-1.9-2.6.8-1.4Zm5.2-23-8.2-7L35,91.4l-.9-1.2,1.2-3.7-2,.2,2.6-3.4,4.9.5-2.9,1.9,7.9,3.2,1.3,5.4Zm-13.4.8,2.2-2.8,2.7.2-.3,5.6-1.3.8-1.1-1.6,1-2.8Zm-5.6-7,2.6-.7-1-.9-2.5.7-1.1-1.1,4.4-1.2L26,85l-3.8,1,.6-2.4-1.3.3s-.2.8-.3,1.4l-.8-.9.5-2a19.4,19.4,0,0,0,.5-2l1.2-.4c-.2.6-.4,1.4-.4,1.4l.9.9.7-2.4,2.8,2.8,1.3-.4-2.5-2.4,5,2.3,1.3,5.1-3.2-2.6v4.1l-3.2,1.9h.1l.4-.4Zm-4.9-4.7c-.9-.9-1.7-1.8-2.6-2.6a2.4,2.4,0,0,0,.2-.8l3.6-1-1.9,1.9ZM7.9,79.6,7.2,82,5.7,80.5v-.8c0-1,.1-2,.1-2.9l3-.9-.6,2.5L9.5,78l.3-1.3.9.8L9.6,81.6l-1.1.3.3-1.4ZM6,84.1l.7-.2-.5,2A11,11,0,0,1,6,84.1Zm.3-11.5.2.2H6.3Zm-.2,1.5,1.3-.4,1.1,1.1-2.6.7C6,75.1,6,74.6,6.1,74.1Zm-.3,8.1.6.6-.5.2A2.2,2.2,0,0,1,5.8,82.2Zm6.3-2.1-.7-2.5A31.9,31.9,0,0,1,14,80.2a1.9,1.9,0,0,0-.2.8l-3.5.9Zm6.1-5.7,1,1,1.3-.4-1.8-1.7,3.8-1.1.3-1,1.8.9.5,1.6-.9.2-1,3.8-1.8-1.8-.3,1.3,1,1-1.2.3L19.4,77l-1.5-1.5Zm0-4.6c0-.2.2-.3.3-.2a.3.3,0,0,1,.3.3.5.5,0,0,1-.4.3C18.2,70.1,18.1,70,18.2,69.8Zm9.6,1.5h-1l-.6.6-.3-.9-.9-.4.8-.5v-.9l.8.6.9-.3-.3,1ZM39.6,44.4a3.5,3.5,0,0,0,2.8,1.2,4,4,0,0,0,2.7-.9,1.2,1.2,0,0,0,.4-.9c-.1-.2-.1-.3-.3-.2a3,3,0,0,1-1.8.6,2.1,2.1,0,0,1-1.8-.7,1.1,1.1,0,0,1-.3-1.2,2.8,2.8,0,0,1,.9-1.4,7.1,7.1,0,0,1,2.6-1.3,5.4,5.4,0,0,1,2.2-.4h2.1l1.8.5a6.1,6.1,0,0,1,2.4,1.7l1.1,1.2.6.9a3.5,3.5,0,0,1,.6.9,5.9,5.9,0,0,1,.5.8c-2.4-.4-5.5-.1-9.4.8a45.6,45.6,0,0,1-4.9,1.1,13.8,13.8,0,0,1-3.1.4L37,47.3l-.9-.6c-.1-.1-.1-.2-.1-.4v-.2h-.3l-.5.3a3,3,0,0,0-.8,1.6,2.4,2.4,0,0,0,.4,1.7,1.8,1.8,0,0,0,.7.5l.8.2-1.5.4-2.3-2.1v.8l-2-3,1.5-4.7a43,43,0,0,1,8-2.2,6.2,6.2,0,0,0-1,2.2A3.3,3.3,0,0,0,39.6,44.4Zm1,11a2.9,2.9,0,0,0-.8,1.4,1.1,1.1,0,0,0,.3,1.3,2.1,2.1,0,0,0,1.1.7c.4.1.7.1.9-.1a.3.3,0,0,0,.1-.2c0-.1-.1-.1-.1-.2l.2-.4a1.3,1.3,0,0,1,.5-.6l.3-.3.8.9h.3l5.6-2,3.1-.3c.7.1,1.2.2,1.4.5s.2.3.1.4-.2.3-.5.4l-.9.4-1.5.6-5.6,1.9c-.1,0-.1,0-.1.1h0l1.4,1.6h.2l5.7-1.9.4-.2a8.6,8.6,0,0,1,2.7-.2c.7.1,1.2.2,1.4.5s-.7,1.1-2.8,1.9l-2.3.8-1.1.8a1.7,1.7,0,0,0-.8,1.3,1.4,1.4,0,0,0,.3,1.2H51l-2.5.7-2.7-2.5-.5,3.9-1.4.7-2.6-3.7,2.2-6.1-6.4,1.6-3.4-3.2,1.8-2,3.1.2-1.5-2.5.6-2.7h.8l1.3-.2,1.4-.3,1.4-.4,1.6-.5,1.5-.5,2.7,3.1a31.7,31.7,0,0,0-4.8,1.9A12.8,12.8,0,0,0,40.6,55.4Zm14.2,15c.6.8,1.7,1,3.4.7h0a2,2,0,0,0-.8,1.4,1.3,1.3,0,0,0,.4,1.3,1.3,1.3,0,0,0,.7.6,1.9,1.9,0,0,0,1,.4h.1l-.5.2H59l.7.9L52,78.1l-4.5-3.8,1.9-1.9,3.3.2L51,69.5l.9-2.7.9.3a6,6,0,0,0,2,.1h.6a2.8,2.8,0,0,0-1,1.6A1.5,1.5,0,0,0,54.8,70.4Zm1.6-1.1.5-.7a11.7,11.7,0,0,1,2.3-1.3,7.7,7.7,0,0,1,2.9-.7A2.2,2.2,0,0,1,64,67q.3.3,0,.9A4.7,4.7,0,0,1,63,69l-2,.7c-2.5.6-4,.7-4.5.1A.7.7,0,0,1,56.4,69.3Zm8,9.2a2.3,2.3,0,0,0-.8,1.3,1.4,1.4,0,0,0,.2,1.1l-1.8.5-2.5-1.9-.2,3-2.2,1.2,2.8-7.3.3.4c.1,0,.2.1.3,0l6.1-2.1a8.8,8.8,0,0,1,2.7-.2,2.3,2.3,0,0,1,1.3.5c.3.5-.6,1.1-2.7,1.9l-2.3.9ZM36.3,73.3l2.1-2.7,6,.4,1.5.6.4,1.5-.9-.5L45,81l-3.1,2-3.1-4.8,2.1-5.9ZM35.8,54h-1l-.6.6-.3-.9-.9-.4.8-.5v-.9l.8.6.9-.3-.3,1.1Zm3.3,13.6H37l-1.3,1.4L35.1,67l-1.8-.9,1.7-1,.2-1.9,1.6,1.2,1.9-.5L38,66Zm-2.9,9.2-.7,2.1,1.1,1.6H34.5l-1.3,1.4-.6-1.9L30.8,79l1.7-1,.2-1.9,1.6,1.2Zm10.1-7,1-.6v-1l.9.6,1.1-.3-.3,1.3.6.9H48.4l-.7.7-.3-1.1Zm1-21.7h.2c4.3-1.1,7.6-1.5,9.9-1.1l.4.5.8.7-1.4.6-2.6.8-2.8.9-1.9.7ZM25.4,46l.2-1.2h.2l1.1.8,1.5-.4-.5,1.7.8,1.3H27l-1,1.1-.5-1.5L24,46.9Zm.8,12,.2-1.3,1.2.9,1.4-.4-.5,1.5.8,1.2H27.7l-.9.9-.5-1.4L25,58.8ZM28,55.4l-2.2-2,2.3-3.1,4.2.3v1.6l-2.3,1.3,1.4.9Zm3.9-.8.8.3.4,2.3-.7-.6-.3,3.9-1.6-2.1Zm.7,14.5.8,3.3-3.3-2.6h0l-.3,1.7-1-1.4.9-2.1Zm-2.8,3.8-.2,3.3-1,.6-1.5.4.6-2.5-1.2.3-.7,2.6-1.5.4,1-3.6.2.6,1.9-2.4Zm-5.2,6.2.9-.3-.7.5ZM18,78.5l2.5.6-3.5,1-.3-.3h-.3l.9-3.5Zm-2.5.8h-.8l-2.6-2.6,2.5.7,1.8-1.9Zm-1.4,2.5a.8.8,0,0,0,.2.4h.4c-.4,1.2-.7,2.4-1,3.6l-.6-2.6-2.6-.6Zm1.4.9.6-.2h.2L18.9,85l-2.5-.7-1.8,1.9Zm14.7,7.4.2-1.1.9.7,1.1-.3L32,90.6l.6.9H31.4l-.7.8-.4-1.1-1.1-.5Zm1,9.4H30.1l-.7.8-.3-1.1-1-.4.9-.6v-1l.9.7,1-.3-.3,1.1Zm-.5,1.4h1.2l-2.2,1.3Zm15.9-16,2.3-1.4.3-2.5,2.1,1.6,2.6-.7L53,84.8,54.5,87l-2.9-.2-1.7,1.8L49,86Zm10.9-.4,2.1,1,1.1,3.9Zm2.7-.6.7-.4v-.8l.7.5.8-.2-.2.9.4.7h-.9l-.5.5-.3-.8Zm9.3.4a1.3,1.3,0,0,1,.5-.6,7.5,7.5,0,0,1,2.2-1.3,8.4,8.4,0,0,1,2.9-.8A2.3,2.3,0,0,1,77,82a.9.9,0,0,1,0,1,3.7,3.7,0,0,1-1.1,1.1l-1.5.6a14,14,0,0,1-3.1.5,2.3,2.3,0,0,1-1.7-.3A.7.7,0,0,1,69.5,84.3Zm11.4,16.5-.5-.8.7.4Zm-1.7-3.3h1.5l.4.2.3,1.2-2.7-1.5h.5Zm3.2-.2h.5a2.5,2.5,0,0,1-.4.7A.7.7,0,0,0,82.4,97.3Zm1-1.3h-.3l-1.4.2H80.6a4.9,4.9,0,0,1-1.7-.2c-.1-.2,0-.4.2-.6l.5-.3.6-.4.7-.3.6-.3,1.1-.4,1.1-.4.8-.2Zm.2-5.5a3.5,3.5,0,0,1-1,1.2h-.2l-1.7.7a17.6,17.6,0,0,1-2.7.4c-.9.1-1.6,0-1.8-.3a.6.6,0,0,1-.1-.6,1.3,1.3,0,0,1,.5-.6A7.5,7.5,0,0,1,78.8,90a11.5,11.5,0,0,1,2.9-.8,2.3,2.3,0,0,1,1.9.4A.7.7,0,0,1,83.6,90.5Zm-3.7,11.4c0-.2.2-.3.4-.3h0l-.4.5C79.9,102.1,79.8,102,79.9,101.9Zm6.9-22.2A42.3,42.3,0,0,1,85.2,91h-.1a.1.1,0,0,0-.2,0h-.4a1.8,1.8,0,0,0-.2-2.2,4.3,4.3,0,0,0-2-1.1,6.9,6.9,0,0,0-2.5-.1,11.7,11.7,0,0,0-2.5.7l-.3.2-2.9.4c-.8,0-1.3-.1-1.5-.4s-.1-.4.1-.6a10.1,10.1,0,0,1,2.6-1.3l11.2-3.9c.1,0,.1,0,.1-.1h0l-1.3-1.4c0-.1-.1-.2-.2-.1l-7.3,2.4a1.7,1.7,0,0,0-.1-2.2,4.3,4.3,0,0,0-2-1.1,6.9,6.9,0,0,0-2.5-.1,11.7,11.7,0,0,0-2.5.7h-.2a15.3,15.3,0,0,1-3,.3,3.6,3.6,0,0,1-1.9-.3c-.1-.2-.1-.4.2-.6l1.3-.7,3.4-1.2a4.7,4.7,0,0,0,1.4-.8,1.4,1.4,0,0,0,.6-1.2,1.6,1.6,0,0,0-.4-1.3l-.5-.6a2.9,2.9,0,0,0-.8-.4,3.5,3.5,0,0,0-1.2-.3l.8-.3h.1v-.2l-1.3-1.4h-.3l-4.5,1.5a17.4,17.4,0,0,1-3.4.5c-1,.1-1.5,0-1.7-.2a.5.5,0,0,1,.1-.6l1.8-1L66.7,70h.1v-.2l-1.3-1.4h-.7a1.6,1.6,0,0,0-.2-2.1A3.5,3.5,0,0,0,62.7,65a7,7,0,0,0-2.5-.1l-2.5.7-.3.2-2.9.3c-1.1,0-1.7-.1-1.9-.3s-.1-.4.1-.6a3.7,3.7,0,0,1,1.3-.7l3.5-1.2a7.4,7.4,0,0,0,1.3-.8,2.5,2.5,0,0,0,.7-1.2,1.6,1.6,0,0,0-.5-1.4,1.2,1.2,0,0,0-.5-.5,1.5,1.5,0,0,0-.6-.4,1.8,1.8,0,0,0-1.1-.3,3.3,3.3,0,0,0-1.4,0c1-.8,1.1-1.7.4-2.5a3.8,3.8,0,0,0-3-1.2l1.2-.4c.1,0,.1,0,.1-.1s.1-.1,0-.1l-1.2-1.5h-.3l-5.6,2c1.5-.7,3.6-1.5,6.5-2.5l1.7-.6,2.8-.9a5.2,5.2,0,0,0,1.7-.9,2.3,2.3,0,0,0,.8-1.4,2.5,2.5,0,0,0-.3-1.3,7.2,7.2,0,0,0-2-1.4c-.7-.8-1.3-1.7-2-2.6A18.3,18.3,0,0,0,54.6,41a6.8,6.8,0,0,0-1.2-1.2A40.5,40.5,0,0,1,86.8,79.7ZM70.4,4.9c3.8-1.2,5.2,1.8,3.6,5.4a25.6,25.6,0,0,1-15.9,6.2A20.2,20.2,0,0,1,70.4,4.9ZM60.9,35.2l.2.3a.4.4,0,0,0-.1.3,58.7,58.7,0,0,0-6-1.6c-.3-.4-.5-.9-.8-1.4h-.1a28.8,28.8,0,0,1-2-5.6ZM46,17.3a2.3,2.3,0,0,1,1.6-.6,2.3,2.3,0,0,1,1.5.7,2.3,2.3,0,0,1,.6,1.6,2.1,2.1,0,0,1-.7,1.5,2.5,2.5,0,0,1-1.6.6,2.1,2.1,0,0,1-1.5-.7,1.9,1.9,0,0,1-.6-1.6A2.1,2.1,0,0,1,46,17.3ZM39.8,32.7h0c0,.1-.1.1-.1.2l-.8,1a42.9,42.9,0,0,0-6.2,1.4v-.2l.6-.9,9.4-7.4A20.7,20.7,0,0,1,39.8,32.7ZM21.7,8.3c-1.4-3.7.3-6.5,3.9-5A19.5,19.5,0,0,1,37,15.7,24.9,24.9,0,0,1,21.7,8.3Zm-.9,39.8,2.9,1.2.6,2.1v5.3l-3.7,2.4,4,1.7L26,65l2.5-3.3L32,62v.9l-5.4,3.6,1.8,1-1.3.4-2.5-2.1L24.2,69l-2.5,1.7.8.4-4.1,1.1.4-1.5,2.6-.7.3-1.3-2.5.7.4-1.6-1.1-.3-.4,1.6-1.9-1.9-.4,1.3,1.9,1.9-.4,1.5-3.2-3.3-.4,1.3,2.8,2.8-2.4.6,1,1,1.3-.4L16.1,75l-2,.6-2.1.6-.8-.9,1.3-.3.4-1.3-2.4.6,1-3.8-1-.9L9.4,74,8.2,72.9l.7-2.5-.9-1L7.3,72l-.7-.7A41.1,41.1,0,0,1,20.8,48.1ZM6.6,88.1h.2l1-3.8L9.6,86l.3-1.3-.9-1,1.1-.3,1.5,1.5,1.5,1.5-.3,1.1-1-.9-1.3.3,1.8,1.8-3.8,1L8.2,91l4.4-1.2-.4,1.5L9.6,92l-.3,1.2,2.6-.7-.5,1.6.6.2h.5l.5-1.6,1.8,1.9.4-1.3-1.9-1.8.4-1.5L17,93.3l.3-1.3-2.8-2.7,2.4-.7-.9-.9-1.4.3.3-1.1,2.1-.6,2-.5.8.8-1.3.4-.3,1.3,2.4-.7-1,3.8.9.9,1.2-4.4L22.8,89l-.7,2.6.9.9.7-2.6,1.2,1.2.2-.2,3.6,1.8.7,2.7-1.5-1.2-.3,2.9L25,99l2.8,1.3.7,2.3-2.6,2.1,9.8,4.1,1,3.4-2.5.8-3-2.5-.4,4.1-2.4,1.5A40.7,40.7,0,0,1,6.6,88.1Zm30.7,31.1h1.5l6.6-8.2,10.4.7L54,108.9l1.9-3,3.6.3L57.6,103l1.2-2.7,2.5,1.2,1.9,7.1,4.7-5.7,6.1.4a.4.4,0,0,0,.1.3.8.8,0,0,0,1,.2l2.7-1.7,1.2.3-2.6,1.7c-.6.3-.3,1.3.4,1.3h.8a3.9,3.9,0,0,1-.8,1h-1a.7.7,0,0,0-.7.7.8.8,0,0,0,.5.7l-1.1,1-.3.4a40.4,40.4,0,0,1-27.9,11.1A38.2,38.2,0,0,1,37.3,119.2Z"/></g></g></svg>