<svg xmlns="http://www.w3.org/2000/svg" viewBox="0 0 92.5 125.9"><defs><style>.cls-1{fill:#000001;}</style></defs><title>Amy</title><g id="Layer_2" data-name="Layer 2"><g id="Layer_1-2" data-name="Layer 1"><path class="cls-1" d="M72.3,41.5l.8-.3h0a21.8,21.8,0,0,0,6.6-4.6c4.3-5.1-.8-10.8-.8-16.2s2.4-9.4.4-14.1c-1.2-3-4.1-4.4-7.4-4.5A13.8,13.8,0,0,0,64,3.9C61.9,5.2,51.7,15.6,51.5,15.6a2.8,2.8,0,0,0-.9-1.6,2.7,2.7,0,0,0-1.7-.6H46a2.8,2.8,0,0,0-1.3.4c-.6.3-1.2.9-1.2,1.3A58.8,58.8,0,0,0,32.1,2.7,14.8,14.8,0,0,0,24.4,0C21-.1,18.1,1.1,16.6,4c-2.3,4.5-.3,9.5-.6,14.1s-5.9,10.7-2,16.1c2.2,2.5,4.5,4.8,7.7,5.8h.1l.3.2A46.4,46.4,0,0,0,0,79.7a45.9,45.9,0,0,0,8.5,26.7L9.7,108A46.2,46.2,0,1,0,72.3,41.5Zm.2,25.6h-.3l.2-.3Zm3.5-.3.3,2.6-1.6-1.6,1.2-.9Zm.6,3.9,1.6,1.6H75.9l-2.4-1.9Zm1.6,2.4-1.6,1.6-3.1.3,2.4-1.9Zm-1.1,2.1,1.6-1.6v2.3l-1.9,2.3Zm0-5-.3-3.1,1.9,2.4v2.3Zm-.2-4.1a10.3,10.3,0,0,0,1.4-1.5,1,1,0,0,0,.4.5v3.3Zm1.8-1.9a29.4,29.4,0,0,0,2-2.6c.1,0,0-.1,0-.2l-.8-.7c0-.1-.1-.1-.2,0a22.6,22.6,0,0,1-5.9,5.7h0a.8.8,0,0,0-1-.1l5.9-10.6c.1-.1,0-.1,0-.2a40.2,40.2,0,0,1,5.8,10.8h-.1a.8.8,0,0,0-.2.8l-2.3,2.3.3-3.3c0-.2-.1-.4-.2-.4h-.5l-2.1,2.6V65.1a.8.8,0,0,0,.5-.7.1.1,0,0,0-.1-.1H78.7Zm6.8,5.4-3.1.3,2.3-2.3H85C85.2,68.2,85.3,68.9,85.5,69.6Zm-4.1-2.5L81,70.2l-1.6,1.6V69.5Zm-2,6.5L81,75.2l.4,3-2-2.3Zm.5-.5h2.3L84.6,75l-3-.3Zm0-.8,1.7-1.6,3-.3-2.4,1.9Zm5.8-1.9a16.2,16.2,0,0,1,.4,1.9H83.4ZM70.4,4.9c3.8-1.2,5.2,1.8,3.6,5.4a25.6,25.6,0,0,1-15.9,6.2A20.2,20.2,0,0,1,70.4,4.9ZM60.9,35.2l.2.3a.4.4,0,0,0-.1.3,54.3,54.3,0,0,0-6.1-1.6c-.2-.4-.5-.9-.7-1.4h-.1a28.8,28.8,0,0,1-2-5.6ZM46,17.3a2.3,2.3,0,0,1,1.6-.6,2.3,2.3,0,0,1,1.5.7,2.3,2.3,0,0,1,.6,1.6,2.1,2.1,0,0,1-.7,1.5,2.5,2.5,0,0,1-1.6.6,2.6,2.6,0,0,1-1.6-.7,2.2,2.2,0,0,1-.5-1.6A1.8,1.8,0,0,1,46,17.3Zm.3,21.8A40.4,40.4,0,0,1,78.7,55.4H75.6l-.4.2-2.8,5.1a20.1,20.1,0,0,1-3.1,3.6c-1,.9-1.7,1.3-2.2,1.3a.5.5,0,0,1-.6-.6,6.6,6.6,0,0,1,.8-2.4c.5-1.1,1.7-3.4,3.7-7v-.2H67.8l-.3.2c-1.3,2.3-2.2,4-2.8,5.3a4.3,4.3,0,0,1-.4.7,14.3,14.3,0,0,1-2.4,2.5q-1.6,1.5-2.4,1.5c-.3,0-.5-.2-.5-.6a3.8,3.8,0,0,1,.6-1.7c.4-.8,1.1-2.2,2.2-4.1a6.1,6.1,0,0,0,.5-1.8,2.6,2.6,0,0,0-.7-1.6,4,4,0,0,0-2.1-.7H58.4l-1.1.2-1.5.7a8.7,8.7,0,0,0-1.5,1.3c.1-1.6-.7-2.4-2.5-2.4a6.8,6.8,0,0,0-4.4,1.8l.8-1.5c.1-.1.1-.1,0-.2H45.1c-.2,0-.3,0-.4.2l-5,9,.6-2c.8-2,2.1-4.8,4-8.7l1.2-2,1.8-3.4a6.5,6.5,0,0,0,.7-2.3,2.3,2.3,0,0,0-.8-1.8,2.9,2.9,0,0,0-1.8-.8,11.3,11.3,0,0,0-3.6.6l-4.9-.4-4.1-.3a16.3,16.3,0,0,0-3.9.3A40.1,40.1,0,0,1,46.3,39.1Zm-.7,66.3h-.4l-.3-.2h-.5V104l.3-.2h.9l.5.2.3.2h1l.2-.2h.3l.5-.3h.6l-.2-.2h-.2l-.2-.2h-.7l-.4-.3-.3-.2H46.1l-.6.2h-.9l-.2-.2-.2-.3v-.5h.9l-.3-.2-.3-.2h-.3v-.6h.2l.4-.2h.3l.6.4h.4v-.9h0l.4-.3h1v2.1h.1v.2h.3l.2.2.6.4.3.2.3.2h.4v-2.1H50l-.2-.2-.9-.8h-.2v-.2h-.1v-.7h.9l.3.2.2.2h.3V96.8h0v-.2h1l.5.3h0v1.5h.4l.3-.2.2-.2h.4l.3.2h.1v.6H53l-.2.2-.5.4h-.6v1.9h.8l.6-.4h.6l.2-.2H54v-.8l.2-.6V99h.9l.2.2.2.2h.1v.9h.2l.7-.3h.3l.2.2.3.2h.1v.5h-.3l-.3.2h.4v.6h-.1l-.5.3h-.5l-1.1-.5H53.8l-.6.3-.3.2H53l.3.2.3.2.3.2H55l.6-.2h.9l.2.2v.9h-.9l.4.2.4.3h.4v.8h-.1l-.5.2H56l-.4-.2-.3-.3h-.5v.9h0l-.5.3h-.5l-.3-.2h-.1v-1.9h-.5l-.4-.2-.3-.3h-.7v2.5h.4l.2.2.4.4.3.2.2.2H53l-.2.6H52l-.2-.2-.3-.2-.2-.2h-.2v1H49.6v-1.1h-.2l-.3.2H49l-.2.2h-.5l-.2-.2h-.2V109H48l.2-.2h.2l.3-.2.5-.3.2-.2h.4V105h-.1l-.3.2h-.4l-.3.2-.4.2h-.6v2.1h-1L46,108h0l.2-.6v-.3h-.5l-.4.2-.4.2h-.3l-.5-.3H44v-.6h.4l.4-.2.4-.2h.4Zm7.9-38.6H52.3a1.7,1.7,0,0,1-.5-1.1,1.2,1.2,0,0,1,1.2-1,1.3,1.3,0,0,1,1.1,1.2A2.2,2.2,0,0,1,53.5,66.8ZM55,78.3a1,1,0,0,1,1.1,1.1,1.3,1.3,0,0,1-.6,1H54.3a1.7,1.7,0,0,1-.5-1.1A1.2,1.2,0,0,1,55,78.3Zm-3.2,6.2a6,6,0,0,0,2.3-.5c.6-1.2.6-1.2,1-1.4a1.6,1.6,0,0,1,.8.3,4.1,4.1,0,0,1-4.1,2.7h-2a6.7,6.7,0,0,1-1.8-3,.9.9,0,0,1,1.1.1A3,3,0,0,0,51.8,84.5Zm-1.7-4.4H48.9a1.5,1.5,0,0,1-.5-1,1.2,1.2,0,0,1,2.3.1A1.3,1.3,0,0,1,50.1,80.1ZM58,75a16.2,16.2,0,0,0,1-1.8,2.6,2.6,0,0,0,1,1.3,4.7,4.7,0,0,0,1.2.7C58.1,75.4,58,75,58,75Zm4.2-1.7-.7-.2a.9.9,0,0,1-.3-.6q0-.6.9-.9l4-.9h.5C65.3,72.4,63.8,73.3,62.2,73.3Zm4-4.4-2.7.4-1.9.5-1.2.4a2.4,2.4,0,0,0,.2-1.8s-.5-1.3-3.1-1.2-3.4-.2-3-.5C56,64.2,53,64,53,64c-2.9-.2-1.7,2.6-1.3,2.9l-2.1-.2h0c2-3.4,3.2-5.5,3.7-6.5l.2-.5A12.5,12.5,0,0,1,56,57a4,4,0,0,1,2.1-.8c.8.1.6,1.4-.7,3.9A22.8,22.8,0,0,0,56,62.9a4.1,4.1,0,0,0-.3,1.6,2.6,2.6,0,0,0,.6,1.8,3,3,0,0,0,1.8.7l1.6-.2,1.6-.6a9.2,9.2,0,0,0,2.1-1.7,2.5,2.5,0,0,0,.7,1.9,2.9,2.9,0,0,0,1.9.7,5.9,5.9,0,0,0,3.5-1.3l-.6,1-1,1.8ZM39.4,55.5H33.5c0-.1.1-.2.1-.3,3.1-4.9,5.9-8.2,8.6-10h2.5a4.6,4.6,0,0,1-.6,1.8l-1.7,3a18.4,18.4,0,0,0-1.8,3.3A17.4,17.4,0,0,0,39.4,55.5Zm.4-22.8h0c0,.1-.1.1-.1.2l-.8,1a42.9,42.9,0,0,0-6.2,1.4v-.2l.6-.9,9.4-7.4A20.7,20.7,0,0,1,39.8,32.7ZM21.7,8.3c-1.4-3.7.3-6.5,3.9-5A19.5,19.5,0,0,1,37,15.7,24.9,24.9,0,0,1,21.7,8.3ZM5.7,79.7A40,40,0,0,1,16.8,51.9a6.4,6.4,0,0,0-.3,2A4.5,4.5,0,0,0,18,57.7a5.1,5.1,0,0,0,3.6,1.7,5.6,5.6,0,0,0,4.1-1.6,5,5,0,0,0,1.8-3.2,1.1,1.1,0,0,0-.7-1.1c-.3-.2-.4-.2-.4,0a3.3,3.3,0,0,1-1.2,2.2,4,4,0,0,1-2.6,1.1,2,2,0,0,1-1.7-.8,3.1,3.1,0,0,1-.5-2,6.9,6.9,0,0,1,1-3.5A15.9,15.9,0,0,1,24,47.3a15.7,15.7,0,0,1,3.8-2.2,10.6,10.6,0,0,1,4.2-.9h2.4l1.7.2,1.7.2,1.3.2c-2.9,1.8-5.7,4.9-8.5,9.3-1.4,2.2-2.7,3.9-3.7,5.3a25.9,25.9,0,0,1-2.7,3.2,12.5,12.5,0,0,1-2,1.4,4.5,4.5,0,0,1-1.6.3h-.5l-.2-.2-.3.2a1.4,1.4,0,0,0-.2.7,2.8,2.8,0,0,0,1,2,3.1,3.1,0,0,0,2.3,1.1l1.2-.2,1.2-.6,1.1-.8a6.9,6.9,0,0,0,1.1-1.2l1-1.3,1-1.6c.5-.7.8-1.3,1-1.6L31.4,59l1-1.8h6q-1.8,3.8-2.7,6a13.5,13.5,0,0,0-.8,4.3,2.6,2.6,0,0,0,.7,1.9,2.2,2.2,0,0,0,1.7.9,4.1,4.1,0,0,0,1.9-.5c.6-.3.9-.6.9-.8l-.2-.3-.3-.2c-.1,0-.2-.2-.3-.4a3.1,3.1,0,0,1-.1-1v-.6h2.7l3.6-6.6a21.4,21.4,0,0,1,2.8-3,4.3,4.3,0,0,1,2.1-.9.5.5,0,0,1,.5.3c.1.1.1.4,0,.8a11.7,11.7,0,0,0-.5,1.1L49.5,60l-3.6,6.5c-.1,0-.1.1,0,.1s0,.1.1.1a1.5,1.5,0,0,0-1.2.7s-.7,1,.3,3.3,1.7,3.7,1.6,4.1c-4.8-.9-4.9.9-4.9.9-.1,1.8,3.7,1.1,3.6,1.6a9.1,9.1,0,0,0-3.8,4.9c2.5,2.8,2.5,2.8,1,3.3a9.4,9.4,0,0,0-1.7,2.2l-1.8-1.2s-.3-.2,2.2-3.8L38.2,82c-.6,3.5-.9,3.3-.9,3.3-2.1-1.4-4.5-2.6-4.9-1.4s-.5,1.2,2,2.6l2.5,1.2c-3.4,1.7-2.2,3-2.2,3s3.3-2.5,3.6-2.3l1.9.8-.6,2.2c.1,2.5.3,4.7.3,4.7a17.9,17.9,0,0,0-5.5,6.6l-4.2-7.1a.5.5,0,0,1,.5-.8h2.4c.5,0,.7-.3.5-.7l-5.3-8.9a.5.5,0,0,1,.5-.8h1.9c.5,0,.7-.3.5-.8L23,70c-.2-.5-.6-.5-.9,0L14,83.6c-.3.5-.1.8.4.8h1.9c.6,0,.8.4.5.8l-5.3,8.9c-.2.4,0,.7.5.7h2.4c.5,0,.8.4.5.8l-3.1,5.3A39.5,39.5,0,0,1,5.7,79.7ZM26.6,96.9a2.1,2.1,0,0,1-2.1-2.1,2,2,0,0,1,2.1-2,2.1,2.1,0,1,1,0,4.1Zm.9,2.5a1.1,1.1,0,0,1-1.2,1.1,1.1,1.1,0,0,1,0-2.2A1.1,1.1,0,0,1,27.5,99.4ZM22.6,86a2.1,2.1,0,0,1-2.1-2.1,2.1,2.1,0,0,1,2.1-2.1,2.1,2.1,0,0,1,2.2,2.1A2.2,2.2,0,0,1,22.6,86Zm1.3,19.1a1.1,1.1,0,0,1-1.2,1.1,1.1,1.1,0,0,1,0-2.2A1.1,1.1,0,0,1,23.9,105.1ZM21.3,76.5a1.1,1.1,0,0,1,1.1-1.1,1.1,1.1,0,1,1,0,2.2A1.1,1.1,0,0,1,21.3,76.5Zm5.2,11.3a1.1,1.1,0,0,1,1.1,1.1,1.2,1.2,0,0,1-1.1,1.2,1.2,1.2,0,0,1-1.2-1.2A1.1,1.1,0,0,1,26.5,87.8Zm-.6-6.6a1.2,1.2,0,1,1,2.4,0,1.2,1.2,0,0,1-2.4,0Zm4.2,20.5a2.1,2.1,0,0,1,2.2,2.1,2.2,2.2,0,0,1-2.2,2.1,2.1,2.1,0,0,1-2.1-2.1A2.1,2.1,0,0,1,30.1,101.7Zm-17.5.5h0l1-.2a2.1,2.1,0,0,1,1.5,3.6C14.2,104.5,13.4,103.4,12.6,102.2Zm4.1-3.5a1.1,1.1,0,0,1,1.2-1.1,1.1,1.1,0,0,1,0,2.2A1.1,1.1,0,0,1,16.7,98.7Zm1.6-4.6A2.1,2.1,0,0,1,16.2,92a2,2,0,0,1,2.1-2,2.1,2.1,0,1,1,0,4.1Zm-.6-11a1.1,1.1,0,1,1,0-2.2,1.1,1.1,0,1,1,0,2.2Zm.2,25.6-.6-.7H33.5c.4,5.2,4.8,9.7,9.6,12.1a41.4,41.4,0,0,1-15.8-4.6v-6.8Zm56.3.3c-12.3-11.6-12.3-11.7-12-13s.3-2.7.3-2.7A14.9,14.9,0,0,1,66,91.6s.3-.2,4.3,2.7l1.2-3.2c-3.9-.3-3.6-.5-3.6-.5,1.9-1,3.5-2.1,2.7-2.8s-.9-.9-3.2.1l-2.1,1.2c-.4-3.4-2-3-2-3-1.6.5,1,3.5.8,3.6l-1.7,1A12.4,12.4,0,0,0,62,89a10.7,10.7,0,0,0-2.6-3c2.3-2.9,2.2-5.5,0-7.8,0,0-.1-.6,3.2.5.1-1.7.1-1.8.1-3.3h2a7.1,7.1,0,0,0,1.8-.8,8.4,8.4,0,0,0,2.1-1.8,23,23,0,0,0,2.2-3.1L74,68.2l1.8,1.7-3.4-.4a.3.3,0,0,0-.3.3h0c-.1.2-.1.3.1.4l2.6,2.1H71.5a1,1,0,0,0-.7-.4.8.8,0,0,0,0,1.6,1,1,0,0,0,.7-.4h3.3l-2.6,2.1c-.2.1-.2.2-.1.4h0c0,.2.2.3.3.2l3.4-.3-2.4,2.3h0a.9.9,0,0,0-.8.2.8.8,0,0,0,0,1.1.9.9,0,0,0,1.2,0,.8.8,0,0,0,.1-.8L76.3,76l-.4,3.3c0,.2.1.3.3.4h0c.1.1.3,0,.4-.1L78.7,77v3.3a.8.8,0,0,0-.4.7.8.8,0,0,0,.8.8.9.9,0,0,0,.8-.8.8.8,0,0,0-.5-.7V77l2.1,2.6a.4.4,0,0,0,.5.1h0a.5.5,0,0,0,.2-.4L81.9,76l2.3,2.3h0a.8.8,0,1,0,.5-.5h0l-2.3-2.3,3.3.3c.2.1.3,0,.4-.2h0c0-.2,0-.3-.1-.4l-2.6-2.1h2.9a46.5,46.5,0,0,1,.5,6.6A40.2,40.2,0,0,1,74.2,109Z"/></g></g></svg>