<svg xmlns="http://www.w3.org/2000/svg" viewBox="0 0 92.5 125.9"><defs><style>.cls-1{fill:#000001;fill-rule:evenodd;}</style></defs><title>Betty</title><g id="Layer_2" data-name="Layer 2"><g id="Layer_1-2" data-name="Layer 1"><path class="cls-1" d="M92.5,78.9v-.5A45.9,45.9,0,0,0,72.3,41.5l.8-.3h0a21.8,21.8,0,0,0,6.6-4.6c4.3-5.1-.8-10.8-.8-16.2s2.4-9.4.4-14.1c-1.2-3-4.1-4.4-7.4-4.5A13.8,13.8,0,0,0,64,3.9C61.9,5.2,51.7,15.6,51.5,15.6a2.8,2.8,0,0,0-.9-1.6,2.7,2.7,0,0,0-1.7-.6H46a2.8,2.8,0,0,0-1.3.4c-.6.3-1.2.9-1.2,1.3A58.8,58.8,0,0,0,32.1,2.7,14.8,14.8,0,0,0,24.4,0C21-.1,18.1,1.1,16.6,4c-2.3,4.5-.3,9.5-.6,14.1s-5.9,10.7-2,16.1c2.2,2.5,4.5,4.8,7.7,5.8h.1l.3.2A46.4,46.4,0,0,0,0,79.7a45.9,45.9,0,0,0,8.5,26.7L9.7,108a47.4,47.4,0,0,0,14.4,12.3l2.3,1.2a45.7,45.7,0,0,0,19.9,4.4,47.1,47.1,0,0,0,12.5-1.7l2-.6a44.1,44.1,0,0,0,8-3.5l1.7-1a46.1,46.1,0,0,0,22-39.4Zm-6-1.6-.3-4.8a39.1,39.1,0,0,1,.5,4.8Zm-.7-6.5-3.5,5.7-3.8-.8A18.3,18.3,0,0,0,81.9,71,21.7,21.7,0,0,0,84,64.9,40.2,40.2,0,0,1,85.8,70.8ZM83,62.6h0c-.1-.1-.2,0-.2.1a21.7,21.7,0,0,1-4.6,10.4.9.9,0,0,1,.1-.5l.9-14.8c0-.1,0-.2-.1-.2s-.2-.1-.2,0l-3.2,1.3q-.3.1-.3.3L75,65.9a24.5,24.5,0,0,1-1.5,5.3,4.1,4.1,0,0,1-1.6,2.3.6.6,0,0,1-.9-.3,7.4,7.4,0,0,1-.4-3c-.1-1.4.1-4.4.4-9a.3.3,0,0,0-.1-.2h-.3l-3.1,1.3c-.2.1-.3.2-.3.4q-.3,4.5-.3,6.9v.8a19.2,19.2,0,0,1-1.4,3.9,5,5,0,0,1-1.9,2.4.7.7,0,0,1-.9-.4,6.2,6.2,0,0,1-.5-2.7q0-1.6.3-7.8l2.2-.9c.2-.1.3-.2.3-.4V63c0-.1,0-.1-.1-.2h-.2l-1.3.5.6-.5-.3-1.3,2.4.7-.5-1.9-2.4-.6L63,58.5l2.4.6-.5-1.8-1.8-.5c0-.1,0-.2-.1-.2s-.1-.1-.2,0h-.3L61.9,54l1,.3a1.1,1.1,0,0,0,.3,1.1,1.2,1.2,0,0,0,1.6,0,1,1,0,0,0,0-1.6,1,1,0,0,0-1-.3l-.3-1.1,2.6.7.6,2.4,1.9.6-.7-2.5,1.2.4.6,2.4,1.9.5L71,54.5l1.2.3.7-.6-.2-1-1.3-.3,1.8-1.8-1.9-.5-1.7,1.7L68.4,52l1.8-1.7-1.9-.5-1.8,1.7L64,50.8l.7-.8a1.1,1.1,0,0,0,1.9-1.1,1,1,0,0,0-1.3-.8,1.1,1.1,0,0,0-.9.7l-1-.3,1.9-1.8,2.4.7L69,46.1A40.8,40.8,0,0,1,83,62.6ZM57,68h.3l1.5-.7c-.2,2.7-.3,4.7-.3,6.1A19.7,19.7,0,0,1,57,77.9c-.7,1.3-1.3,2.1-2,2.3s-.7.1-.9-.4a6.2,6.2,0,0,1-.4-2.6c0-1.2.1-3.8.3-7.9l2.2-.9c.2-.1.3-.2.3-.4V66.4a.2.2,0,0,0-.3,0l-2.1.8c.1-1.3.3-3.6.4-6.9.1-.1,0-.1,0-.2h-.1l-.6-2.2.9-.9.6,2.4,1.4-1.3-.6-2.4L58,53.8l.3,1.1a1.1,1.1,0,0,0-.8.8,1.1,1.1,0,0,0,.8,1.4,1.2,1.2,0,0,0,1.4-.8,1.1,1.1,0,0,0-.3-1.1l.8-.8.7,2.6-.7.6-.6.3c-.2,0-.3.2-.3.4v.2l-.2.3.2.7c-.2,2.7-.3,4.7-.4,5.7l-1.6.7c-.2.1-.3.2-.3.4v1.5C56.9,67.9,57,67.9,57,68Zm-8.5,3.5h.2l1.5-.6c-.1,2.6-.2,4.6-.3,5.9a11.7,11.7,0,0,1-1.1,3.3,11.4,11.4,0,0,1-1.7,2.7l-1.8,1.6-1.5.8a1.7,1.7,0,0,1-1.7,0,3.9,3.9,0,0,1-1.3-1.5,5,5,0,0,1-.3-1.3,15.7,15.7,0,0,0,3.4-2.3,10.2,10.2,0,0,0,2.8-3.4,3.9,3.9,0,0,0,.3-3.6,2.1,2.1,0,0,0-1.7-1.3,5.6,5.6,0,0,0-3,.5,8.3,8.3,0,0,0-3.8,3.2A10.7,10.7,0,0,0,36.6,83a5.8,5.8,0,0,0-1.8-1.7,7.7,7.7,0,0,0-4-1,11.6,11.6,0,0,0,3.8-4.6,6.2,6.2,0,0,0-.1-5A6.3,6.3,0,0,0,31,67.2l-.8-.3.4-.5.6-.8L32.4,64a9.5,9.5,0,0,0,1.2-1.6l1.4.5v1.8l.5-.5c.8-.9.8-.7,1.2-.5l.8.2c-.1-.4-.5-.8-.6-1.2l1.1-1c.4.1,1.2.7,1.7.9s1.9,1.2,2.5,1.4l.8.5,1.6.9-1.4-3.6L42.3,60a17.1,17.1,0,0,0-.7-1.8l1-.8a8.5,8.5,0,0,0,1.4,1l-.3-1.6.7-.4.4-.3c.2-.1.2,0,.3-.2l-1.6-.2-.2-1.5,2.5-1.5c.7-.4,3.8-2.1,4.1-2.4h-.7l1.4-1.4,1.2.3L50,50.9l1.9.5,1.8-1.7,2.5.7-.7.7a1.1,1.1,0,0,0-1.1-.2,1,1,0,0,0-.8,1.3,1.1,1.1,0,0,0,1.3.9,1.4,1.4,0,0,0,.9-.8l1,.3-1.9,1.9-2.4-.7-1.4,1.3,2.4.7-.8.9L50.3,56l-1.4,1.4,2.4.6-.9.9.2,1,.9.2,1-.9.3,1.5-1.7.7c-.2.1-.3.2-.3.4-.2,3.5-.4,5.8-.4,7l-1.6.7a.3.3,0,0,0-.3.3v1.6ZM40.3,81a10.6,10.6,0,0,1,.8-4.7,5,5,0,0,1,2.1-2.8h.4c.5.2.7.9.5,2.1A9.2,9.2,0,0,1,40.3,81ZM29.1,94.6a4.5,4.5,0,0,1-1.8.5,2.8,2.8,0,0,1-1.3,0l-.8-.2c-.2,0-.3-.1-.4,0s-.2.1-.2.3a1.1,1.1,0,0,0,.1.5c.2.6,1,.9,2.2,1.1a5.6,5.6,0,0,0,2.2-.1l-.3.5-.3.7-.4.7-.4.6h0l-1.5-.8-1.5-.8L23.4,97h-.2a.9.9,0,0,0-.7.1,15.9,15.9,0,0,0,.8-3.3,45.6,45.6,0,0,0,.4-5.4c.1-2,.1-3.9.1-5.9s.1-3.7.2-5.3a21.5,21.5,0,0,1,.9-4.3,4.5,4.5,0,0,1,2-2.4q.3,0,0-.3a1.2,1.2,0,0,0-1.3-.1,6,6,0,0,0-1.5.9l-.6-.2.4-.2a.6.6,0,0,0,.1-.8.5.5,0,0,0-.8-.2l-1.4.8-1-.2,1.3-.8a.4.4,0,0,0,.2-.5,8.7,8.7,0,0,1,4.2-.2,5.7,5.7,0,0,1,3.8,3.3,6.5,6.5,0,0,1-.1,5.6c-.8,1.7-2.5,3.1-4.9,4.2-.2.1-.3.3,0,.6a1.3,1.3,0,0,0,1.6.2l.9-.4a4.2,4.2,0,0,1,2.9.4A4.6,4.6,0,0,1,32.9,85a9.3,9.3,0,0,1,.8,3.5A7.7,7.7,0,0,1,32.5,92,7.6,7.6,0,0,1,29.1,94.6Zm-3.8,18-.5.5H23.4c-1.2-.9-2.4-1.8-3.5-2.8H20l.6-.3.6-.4.6-.4.6-.4.6-.4h0l1.1.3,1,.2,1,.2-.5.4-.5.5-.6.5h2.4l-.2.2-.9,1.1Zm1.6-6.2h0l-1.1-.2-1-.3-.9-.2-3.1-4.9a.7.7,0,0,0-.6-.4h-.1a6.6,6.6,0,0,0,1.6-1.7c0,.3.2.5.5.7l.5.2,1.4.8,1.5.8,1.5.8h.2v.4l.7,2v.5l-.8-.3-1.2-.4h-.3Zm-4.4-35c-.2-.1-.3-.2-.3-.4a.5.5,0,0,1,.4-.2.5.5,0,0,1,.2.4Zm-5.4.1-.3-.2h.1Zm-.9,2.6c.1-.1.3,0,.3.2s0,.3-.2.3-.3,0-.3-.2S16,74.1,16.2,74.1ZM5.8,81.3c0-.5-.1-1.1-.1-1.6A38.8,38.8,0,0,1,7.4,68.3l.2-.2,1,.3-1.3.8a.6.6,0,0,0-.1.8.6.6,0,0,0,.8.1l2.2-1.3,1,.2L9.1,70.3a.6.6,0,0,0,.3,1.1h2.5a2.7,2.7,0,0,1-.7.8H8.6a.6.6,0,0,0-.6.6.6.6,0,0,0,.6.6h1.5l-.7.8H7.8a.6.6,0,1,0,0,1.2h.4l-.7.7a.7.7,0,0,0,0,.9h.4a18.7,18.7,0,0,0-2,4A.4.4,0,0,0,5.8,81.3ZM9.3,68a.3.3,0,0,1,.3-.3c.2.1.3.2.2.4s-.2.2-.3.2S9.2,68.1,9.3,68Zm4.4-.3.2.8-.8-.2L12.3,67Zm-.4-3.3c-.2.1-.3,0-.4-.2s.1-.3.2-.3.3,0,.4.2S13.4,64.4,13.3,64.4Zm1.9,4.5a.6.6,0,0,1-.1.8.6.6,0,0,1-.9-.1.5.5,0,0,1,.2-.8A.5.5,0,0,1,15.2,68.9Zm-.4-1.5.7-1.3v1.5l-.5.5Zm-.7-.4c-.2.1-.4,0-.4-.2s0-.3.2-.3.3,0,.3.2A.2.2,0,0,1,14.1,67Zm-1.6,1.7c-.1.2-.2.3-.4.2s-.2-.2-.2-.3.2-.3.3-.2A.3.3,0,0,1,12.5,68.7Zm.4.7.7.2-.5.5H11.6Zm.2,1.9a.2.2,0,0,1-.4.1.5.5,0,0,1,0-.5.3.3,0,1,1,.4.4Zm-3.9,4H9a.3.3,0,1,1,.4-.4h.1ZM11,73.4a.1.1,0,0,1-.1-.1.3.3,0,1,1,.4-.4v.2Zm2.9-2.3v-.2l.6-.5v.3Zm2.5-2.7h1.4l-1.2.8-.8-.2Zm-.1-1.2a.2.2,0,0,1,.4-.1c.1.2.1.3,0,.4a.2.2,0,0,1-.4.1C16.2,67.4,16.2,67.3,16.3,67.2Zm3.7,3c.1,0,.2.2.2.3s-.2.3-.4.3a.5.5,0,0,1-.2-.4C19.6,70.3,19.8,70.2,20,70.2ZM41.2,55.5c0-.3,0-.2.7-.6s.6-.4.8-.4-.4,1.1-.4,1.1A2,2,0,0,1,41.2,55.5Zm.7,1.1-.4,1c-.3-.1-.3-.1-.4-.4s-.1-.3-.1-.4a5.4,5.4,0,0,1-.3-1c.4,0,.4.2.7.3S41.8,56.4,41.9,56.6Zm-2.4-2.5a3.6,3.6,0,0,1-.2-1,1.8,1.8,0,0,1,.7-.5l.5-.5-1.1-.2H39c-.2-1.3-.3-1.3.2-1.2l4.9.7v.2h-.2l-.3.2Zm1-5.2h-.9l.2-.2.9-.3c.3-.1.2,0,.4.2l.3.5A1.5,1.5,0,0,1,40.5,48.9Zm-.4-1.4h-.2l-.2.4c-.5.6-.2.6-.6.6s.1-1.5.1-1.8.3-.2.4-.1l.6.5Zm-6.9-3.6V42.3a1.7,1.7,0,0,0-.6.6l-.6.6a5.9,5.9,0,0,0-1.4-.6c.1.5.6,1,.7,1.5s-.7.9-1,.9a8.1,8.1,0,0,1-1.8-1l-1-.6A38.1,38.1,0,0,1,38.2,40l-1.5,1.8h-.2l-2,2.6-.3-.2C33.9,44.3,33.3,44.1,33.2,43.9Zm.9,1c0,.2-.2.3-.3.5s-.7,1-.9,1a.7.7,0,0,1,.1-.6c0-.8-.2-.6.5-.8Zm-3.7,4.8.4.7c-.4.2-1,.8-1.3.9l-1-2.7a20.3,20.3,0,0,1-.9-2.6,3.4,3.4,0,0,1,1.2.6l3.7,2.1a4.1,4.1,0,0,1-1,.9l-1.3-.7A2.4,2.4,0,0,0,30.4,49.7Zm.8-4.2H32a10.4,10.4,0,0,1,.5,1.2,8.3,8.3,0,0,1-1.3-.7C31,45.8,30.7,45.6,31.2,45.5Zm-3.7,5.8c-.1.2,0,.1-.2.3l-1.7.9a1.5,1.5,0,0,1,.3-1.1ZM27,53.7l1.3-.8,1.4-.9v-.3l1.4-.2c.1.4.4,1,.5,1.4h.1c.2-.4.3-1.1.5-1.5s1.3-.1,1.5-.3a4.2,4.2,0,0,0-1.3-.7,10.3,10.3,0,0,0,.4-1.4l.5.2c.2,0,.2-.1.3-.2l.3-.4H34l2-2.5.2-.3,1.1-1.3c.1-.1.1-.2.3-.1s-.4,5.2-.2,6.1l.8.2h.1a7.5,7.5,0,0,1-.7,1.2H36.2l1,1.2a3.3,3.3,0,0,0-.7,1.3l1.7-.4c.2.3.6.5.7.8l-.5.3c.1.8,2.3,5.8,2.3,5.9s-.6-.1-.7-.2l-.7-.4-2.7-1.6-1.4-.8h-.3c-.5-.3-.6-.9-1-1.1s.7-.9.9-1.3l-1.6.3-.9-1.1c-.2,1.8.1,1.4-1,1.7s-.5.3-.5-.2l-1.7-.2-1.6-.2-3.3-.4c.1-.3.2-.2.3-.3Zm10.3,7.7-1.1.2-.5-1h.2l1.1.6C37.2,61.2,37.2,61.2,37.3,61.4Zm-3.2.5.5-.6c.2-.4.4-.8.6-.8v1.4c-.3,0-.9.3-1.2.2S33.9,62.1,34.1,61.9Zm-.2-2.7-2.1,2.4c-.3.3-.8,1-1,1s0-5.5.1-5.6,1.1.2,1.2.4V59c.3-.1.8-1,1.1-1.2l1.4.5c0,.2,0,.1-.2.3l-.2.3C34.1,59,34,59,33.9,59.2Zm-7.3-1.5,1.6.2c0,.3,0,.1-.5.4l-.6.4a1.7,1.7,0,0,1-.6-1Zm2.2.6v.2a9.6,9.6,0,0,1,0,1.7l-.9-.8C27.9,59.3,28.6,58.3,28.8,58.3Zm29-10.1,1.8.5L61,47.4l.5,1.8,1.8.6-1.4,1.3.5,1.8-1.8-.5-1.4,1.3-.5-1.8-1.8-.5,1.4-1.3Zm9.3-3.3,1.5,1-1.9-.6Zm-3,.6-1.9,1.8-.3-1a1.1,1.1,0,0,0,0-2.2,1.1,1.1,0,0,0-1.4.8.9.9,0,0,0,.3,1l-.8.8-.7-2.6,1.8-1.7v-.5L63.5,43h0Zm-5.5-4.4,1.1.3-.9.9-.3-1.2Zm4.1,22.2h.6l-.6.3ZM65.5,44h0ZM70.4,4.9c3.8-1.2,5.2,1.8,3.6,5.4a25.6,25.6,0,0,1-15.9,6.2A20.2,20.2,0,0,1,70.4,4.9ZM60.9,35.2l.2.3a.4.4,0,0,0-.1.3,58.7,58.7,0,0,0-6-1.6c-.3-.4-.5-.9-.8-1.4h-.1a28.8,28.8,0,0,1-2-5.6ZM46,17.3a2.3,2.3,0,0,1,1.6-.6,2.3,2.3,0,0,1,1.5.7,2.3,2.3,0,0,1,.6,1.6,2.1,2.1,0,0,1-.7,1.5,2.5,2.5,0,0,1-1.6.6,2.1,2.1,0,0,1-1.5-.7,1.9,1.9,0,0,1-.6-1.6A1.8,1.8,0,0,1,46,17.3Zm.3,21.8a42.6,42.6,0,0,1,8,.8l.2.9,2.4.7.3,1.2L54.8,42l.5,1.9,2.4.7.6,2.5-1-.3a1,1,0,0,0-.3-1,1.1,1.1,0,0,0-1.6-.1,1.2,1.2,0,0,0,0,1.7,1,1,0,0,0,1,.3l.3,1.1L54.1,48l-.6-2.4-1.8-.5.6,2.4-1.2-.3-.6-2.4-1.9-.6.6,2.5L48,46.3l-.7.7.2.9,1.3.4-1.7,1.6L46,49.7l-3.9-.6a6,6,0,0,1-.2-1.2l1.5-.7L42,46.8l-.2-1.7a9.4,9.4,0,0,0-.9,1.2l-1.6-.5.2-6.1A38.2,38.2,0,0,1,46.3,39.1Zm-6.5-6.4h0c0,.1-.1.1-.1.2l-.8,1a42.9,42.9,0,0,0-6.2,1.4v-.2l.6-.9,9.4-7.4A20.7,20.7,0,0,1,39.8,32.7ZM21.7,8.3c-1.4-3.7.3-6.5,3.9-5A19.5,19.5,0,0,1,37,15.7,24.9,24.9,0,0,1,21.7,8.3Zm3.4,36.9c.6,1.5,1.3,3.5,1.3,3.6s-1,.9-1.2.9L23.8,49l.5,1.5-.5.3a5,5,0,0,0-.8.7h1.7l.5,1.3-6.8,3.9c1.3.3,6,.9,7.6,1,0,.2.1,1.2.1,1.5l-1.5.6c.4.3,1.2.3,1.6.5s.2,1.2.4,1.5l.8-1.3a4.7,4.7,0,0,1,1.4.4c0,.5-.1,1.4-.1,2v3.8a11.3,11.3,0,0,0-3.2-.1,22.9,22.9,0,0,0-4.9,1.1c0-.3-.2-.5-.6-.5H17.5l.7-.7h2.6a.6.6,0,0,0,0-1.2H19.4l.7-.8h1.6a.6.6,0,0,0,0-1.2h-.5a2.7,2.7,0,0,0,.7-.8.5.5,0,0,0,0-.8.5.5,0,0,0-.8.1l-.7.7V62c0-.4-.3-.6-.7-.6a.6.6,0,0,0-.5.6v1.6l-.7.8V62.9a.5.5,0,0,0-.6-.5.6.6,0,0,0-.6.6c0,.9.1,1.7.1,2.6l-.7.7a20.1,20.1,0,0,1-.1-2.5.6.6,0,0,0-1.1-.2l-1.2,2.2-.3-1,1.2-2.3a.5.5,0,0,0-.2-.8.5.5,0,0,0-.8.2,8.3,8.3,0,0,1-.7,1.3l-.3-1,.8-1.4a.8.8,0,0,0-.2-.8.5.5,0,0,0-.8.2l-.3.4-.3-1c0-.3-.4-.5-.7-.4a.6.6,0,0,0-.4.7l.3,1-.4-.2a.6.6,0,0,0-.5,1.1l1.4.7.3,1-1.3-.7a.6.6,0,1,0-.5,1.1l2.3,1.2.3,1-2.3-1.2a.5.5,0,0,0-.7.8l1.3,2.2-1-.3L9.1,65.4a.6.6,0,0,0-.7-.2A40,40,0,0,1,25.1,45.2Zm-6.9,20c.1-.1.2-.1.4,0a.3.3,0,1,1-.4,0Zm1.8-2a.3.3,0,1,1,0,.4A.3.3,0,0,1,20,63.2Zm-7.3-1.7c0,.1,0,.3-.2.3s-.3,0-.3-.2a.2.2,0,0,1,.1-.3C12.5,61.2,12.7,61.3,12.7,61.5ZM8.1,66l.8,1.3-1-.3H7.8Zm4.5,36.2a5.7,5.7,0,0,1-.8-1.3,39.3,39.3,0,0,1-4.3-9.3l1.6.9a6.1,6.1,0,0,0,4.6-.1,6.5,6.5,0,0,0,3.7-3.6,5.3,5.3,0,0,0,.3-4.2,1.2,1.2,0,0,0-1.2-.8c-.4-.1-.5,0-.4.2a3.6,3.6,0,0,1-.3,2.8,4.6,4.6,0,0,1-2.2,2.5,2.8,2.8,0,0,1-2.2,0,4.5,4.5,0,0,1-1.5-1.8,9.4,9.4,0,0,1-.7-3.1,18.1,18.1,0,0,1,.5-3.8,15.9,15.9,0,0,1,1.8-4l.4-.6.2-.3.8-1a.5.5,0,0,0,1,.2l1.2-2.2.3,1L14.2,76a.5.5,0,0,0,.2.8.5.5,0,0,0,.8-.2l.7-1.3.3,1-.7,1.4a.6.6,0,0,0,1,.6l.2-.4.3,1a.6.6,0,0,0,1.1-.3l-.3-1,.4.2a.6.6,0,0,0,.8-.3.7.7,0,0,0-.3-.8L17.3,76,17,75l1.3.7a.6.6,0,0,0,.8-.3c.2-.3,0-.6-.2-.8l-2.3-1.2-.3-1,2.2,1.2a.6.6,0,0,0,.8-.8l-1.4-2.2H18l.9.2c.5.8,1,1.5,1.4,2.3a.8.8,0,0,0,.8.2.5.5,0,0,0,.2-.8c-.2-.4-.5-.8-.7-1.3l1,.3.8,1.3c0,.1,0,.1.1.1a5.4,5.4,0,0,0-.7,1.3A25.7,25.7,0,0,0,20.1,83c-.1,2.3-.3,4.4-.5,6.1a28.7,28.7,0,0,1-.8,4.2,8.2,8.2,0,0,1-1.1,2.5,7.3,7.3,0,0,1-1.1,1.5l-1.3.8h-.9c-.2,0-.2.2-.2.4a1.2,1.2,0,0,0,.1.8,3.7,3.7,0,0,0,2,1.6,3.6,3.6,0,0,0,2.5.1h0l-.3.2-.2.3a.8.8,0,0,0,.2.7l.2.3,2.4,3.8-.3.2-.6.4-.6.4-.6.4-.6.4-.6.3-.5-.5-2.2-2.4C14.2,104.5,13.4,103.4,12.6,102.2ZM16.7,77c0-.1.1-.3.2-.3s.3,0,.4.1-.1.4-.2.4S16.8,77.2,16.7,77Zm10,38.1.2-.2.5-.6.5-.5.5-.5.4-.5.2,1.3.2.9.3-.3.4-.6.4-.6.4-.5.5,1.6.4,1.3v.3l-.4.7-.2.3-3.6-1.7Zm6.8,3.1h.1l.4.2h-.5Zm18.1,1.7,4.9-3,.6,1.9A48.6,48.6,0,0,1,51.6,119.9Zm14.2-13-.4,2.1.5,2.1-3.8-1.9Zm-3.7.1,1.4-4.4,5.3-3.3L66.2,105Zm4.2,6.2.6,1.3a11.7,11.7,0,0,1-2.7,1.5l-.8-.4-1.6-4.5Zm.2-4.4,2.1-1.4,4,1.3-3.9,1.7Zm-12.3-1.6,4,2.1-4.3,2,1.1-2.1Zm3.7,8.2,2.1-3.9,1.9,3.9-2.1-.9Zm1.8.7,1.3,1.4-2.6.9Zm.4-12.8,1.9-1.1-2,4.7-2.2-4.6ZM58,99.8l1.9-10.3,2.2,10.4-2,2.4Zm.1,7.2L54,105.4l-2.7-5.5,5.1,2.8Zm-4.2,6.2,4.2-2.3-1.6,4.4-5.3,3.1Zm14.2.6-.7-1.6,6.3-2.7A39.6,39.6,0,0,1,68.1,113.8Zm7.3-5.9-8-2.7,4.7-10-8.2,5.5L59.6,81.2l-3.3,20-8.5-4.5,4.8,8.8-9.7,3.8,9.6,3.5-3.8,7.4H46.3a40.5,40.5,0,0,1-7-.6h.1l.2-.4c0-.1,0-.2.1-.2v-.2a.9.9,0,0,0-.5-.8H39l-1.5-.8-1.5-.8-1.5-.8h-.2V115l-.7-2v-.6l.8.2,1.2.5h0l-.8-2h.2l1.1.3,1.1.2.6.2,2.9,4.6h.2l.5.3h.6l.6-.3h.2l.3-.3a.4.4,0,0,0,.1-.3.9.9,0,0,0-.1-.7l-.9-1.4-1.7-2.8.4-.2.6-.4.6-.4.6-.3.6-.4.6-.4.6-.4h.1a.8.8,0,0,0,.4-.4h0a.8.8,0,0,0-.1-.7l-.5-.8a.9.9,0,0,0-.6-.4H43l-.3.2-1.3.8-.6.4-.6.3-.6.4-.6.4-.6.4-.4.2h-.3l-1.1-.3-1.1-.2H35l.3-.3.5-.4.5-.5.6-.4-1-.2H34.8l.5-.6.5-.5.5-.5.5-.6h6a.7.7,0,0,0,.4-.6h0a.4.4,0,0,0,.1-.3v-.9h0a.9.9,0,0,0-.6-.8H37.4V96.5h0a1,1,0,0,0-.5-.6H34.9a.7.7,0,0,0-.4.6h0c0,.1-.1.2,0,.2v5.9h-.1l-.5.6-.5.5-.4.5-.5.6h-.1v-.2l-.3-1.6v-.4l-.5.6-.4.6-.3.4-.4-1.2-.5-1.8h0l.4-.7.3-.7.4-.7.8-1.4.3-.7.4-.6h0v-.2a.6.6,0,0,0,0-.6A15.6,15.6,0,0,0,35,93.6a9.2,9.2,0,0,0,2.3-3.1,8.7,8.7,0,0,0,.6-3.2,4.9,4.9,0,0,0-.1-1.2,6.5,6.5,0,0,0,2,1.7,5.6,5.6,0,0,0,4.2-.1l1.5-.8a9.1,9.1,0,0,0,1.7-1.2,15.4,15.4,0,0,0,1.7-1.9A14.1,14.1,0,0,0,50.4,81v-.2a.4.4,0,0,1,.1.3,3.3,3.3,0,0,0,1.8,1.7,3.1,3.1,0,0,0,2.5,0l1.7-.9a6,6,0,0,0,1.3-1.4,11.3,11.3,0,0,0,1.3-2.7v-.2a3.1,3.1,0,0,0,1.8,1.6,3.1,3.1,0,0,0,2.5.1l1.6-.9a6.9,6.9,0,0,0,1.4-1.5,11.7,11.7,0,0,0,1.2-2.5,2.9,2.9,0,0,0,1.6,1.5,2.7,2.7,0,0,0,2.3-.1,6,6,0,0,0,3.1-3v1.4c-.1,1.3-.2,2.1-.2,2.3l-1.6,1.2-2.6,1.6-1.9,1.4a7.9,7.9,0,0,0-1.3,1.4,5.6,5.6,0,0,0-.4,1.2,2.3,2.3,0,0,0,.2,1.4A3.3,3.3,0,0,0,69,86.5a5.9,5.9,0,0,0,3.4-.4l2-1.1a5.9,5.9,0,0,0,1.5-1.6,9.1,9.1,0,0,0,1.2-2.8,17.7,17.7,0,0,0,.7-2.9L80,80.1l-3.8,6,6.5-2.9L86.2,87A41.7,41.7,0,0,1,75.4,107.9Zm-22,1.2-2.1,1.5-4.5-1.4,4.7-1.8ZM74,79.2c-.5,2.6-1.6,4.2-3.2,4.9a1.2,1.2,0,0,1-1,.1.8.8,0,0,1-.5-.5c-.2-.4-.1-.9.5-1.4l3.7-2.7Z"/></g></g></svg>