<svg xmlns="http://www.w3.org/2000/svg" viewBox="0 0 92.5 125.9"><defs><style>.cls-1{fill:#000001;fill-rule:evenodd;}</style></defs><title>Brenda</title><g id="Layer_2" data-name="Layer 2"><g id="Layer_1-2" data-name="Layer 1"><path class="cls-1" d="M8.7,73.3a3.8,3.8,0,0,0,3,.1,12,12,0,0,0,3.4-1.7,32,32,0,0,0,3.8-2.9l3.8-3.3,3.6-3a15.8,15.8,0,0,1,3.2-1.9,2.9,2.9,0,0,1,2.4-.1c.1.1.2,0,.2-.2a.8.8,0,0,0-.5-.9,5.6,5.6,0,0,0-4.4,0,24.5,24.5,0,0,0-6.5,4.1l-4.2,3.2-3,1.8a7.9,7.9,0,0,1-2.2.9H9.8l-1.1-.4a.5.5,0,0,1-.2-.4v-.2H8a1.5,1.5,0,0,0-.4.6,3.1,3.1,0,0,0-.2,2.2A2.7,2.7,0,0,0,8.7,73.3Z"/><path class="cls-1" d="M92.5,78.9v-.5A45.9,45.9,0,0,0,72.3,41.5l.8-.3h0a21.8,21.8,0,0,0,6.6-4.6c4.3-5.1-.8-10.8-.8-16.2s2.4-9.4.4-14.1c-1.2-3-4.1-4.4-7.4-4.5A13.8,13.8,0,0,0,64,3.9C61.9,5.2,51.7,15.6,51.5,15.6a2.5,2.5,0,0,0-1-1.6,2.3,2.3,0,0,0-1.6-.6H46a2.8,2.8,0,0,0-1.3.4c-.6.3-1.2.9-1.2,1.3A58.8,58.8,0,0,0,32.1,2.7,14.8,14.8,0,0,0,24.4,0C21-.1,18,1.1,16.6,4c-2.3,4.5-.3,9.5-.6,14.1s-5.9,10.7-2,16.1c2.2,2.5,4.5,4.8,7.7,5.8h.1l.3.2A46.4,46.4,0,0,0,0,79.7a45.9,45.9,0,0,0,8.5,26.7L9.7,108a47.4,47.4,0,0,0,14.4,12.3l2.3,1.2a45.7,45.7,0,0,0,19.9,4.4,47.1,47.1,0,0,0,12.5-1.7l2-.6a44.1,44.1,0,0,0,8-3.5l1.7-1a46.1,46.1,0,0,0,22-39.4ZM84.6,66.4h-.4l-4.6-.7c0-.5-.2-1.1-.2-1.5l1.7-.7c-.4-.3-1.1-.3-1.5-.6L79.3,61c-.3.1-1,1.2-1.1,1.4l-1.9-.5.4-8.9-.2.2-3.2,4h-.2l-2.3,3c-.2-.1-.1-.2-.4-.3a4.3,4.3,0,0,1-1.2-.5V57.7a4.6,4.6,0,0,0-.7.7l-.7.8a4.4,4.4,0,0,0-1.5-.8c.1.6.6,1.2.7,1.7s-.8,1.1-1.2,1.2l-2-1.2-5.8-3.5a17.2,17.2,0,0,0,.7,2.1l-2.9.8.7-2.6-1.4.3a12.7,12.7,0,0,0-.4,1.5l-.9-.9.6-2.2a14.2,14.2,0,0,1,.5-2.2l1.3-.4c-.2.6-.4,1.5-.4,1.5l1,1,.7-2.6,3.1,3,1.4-.4L58.5,52l1.6-.5,2.1,2.1,1.4-.4-2.1-2,1.7-.5v-.6l-.2-.6-1.7.5.7-2.8-1.3.3-.8,2.8-1.6.5,1.3-4.9-1.4.4L57,50.5l-2-2-.3,1.4,1,1.1-1.2.3-1.6-1.6-1.7-1.6.4-1.3,1,1.1,1.4-.4-1.9-1.9,4.2-1.1.3-1.4-4.8,1.3.4-1.6L55,42l.4-1.4-2.8.8.4-1.7,1.3.2a29,29,0,0,1,4.2,1.2l1.2.3,1.3.5L63.5,43l2,1h.1l1.5.9,1.5,1,.4.2A41.5,41.5,0,0,1,84.6,66.4ZM72.4,78.9l1.3.7c.2.2.3.1.3.5a2.8,2.8,0,0,1-1.3.1l-.5-1.1v-.2Zm.8-2.3-1.7-.9h-.3c-.5-.2-.6-1-1.1-1.3s.8-1,1-1.4l-1.9.3a6.4,6.4,0,0,0-1-1.3c-.2,2.1.1,1.6-1.2,2s-.5.3-.6-.3l-1.9-.2-1.9-.2-3.8-.5c.1-.3.1-.2.4-.4L62,71l1.6-.9,1.6-1v-.4l1.8-.2a9.8,9.8,0,0,0,.5,1.6h.1c.3-.5.3-1.4.6-1.8a4.3,4.3,0,0,0,1.7-.3L68.3,67a9.8,9.8,0,0,0,.5-1.6l.6.3.4-.3.3-.4v-.2L72.5,62l.3-.4L74,60c.1-.1.2-.2.3-.1s-.4,6.1-.1,7.1l.9.3h.1a10,10,0,0,1-.8,1.4H72.8A13.4,13.4,0,0,1,73.9,70a4.4,4.4,0,0,0-.8,1.5l2-.5c.2.4.7.6.9,1l-.7.3c.2,1,2.8,6.8,2.7,6.9s-.6-.1-.8-.2l-.8-.5Zm-2.9,4,.5-.8c.3-.3.5-.8.8-.8v1.6c-.4,0-1.1.4-1.4.3S70.1,80.8,70.3,80.6Zm-.2-3.2-2.5,2.9c-.3.3-.9,1.2-1.1,1.2V74.9l1.5.4v2a8.8,8.8,0,0,0,1.2-1.5,4.9,4.9,0,0,1,1.7.6c0,.2,0,.2-.2.4l-.3.3Zm-7.9,23c-.1.1-.2.2-.2.3l-.3-.4c-.4.2-.1.2-.5.4s0-.7,0-1.1h.2l.5.2Zm-14.7,9.4c-.7.7-.3,2,1.1,1.8s.4,0,.6-.4-.1-.3.3-.5,0-.1.4-.1,1.2,1.5-.4,2a9,9,0,0,1-3.6.3l-1.5-.4-2.9-.9c-.7-.3-.7-.2-.8-1.2s.4.2.6.1.3-.3.4-.5l.5-.6a5.4,5.4,0,0,0,2.7.6c-.1-.6-.8-1.1.3-.9a2.7,2.7,0,0,0,1.6-.4l-2.5-1h0a14,14,0,0,0,2.8-1.4c1.2-1,.2-.9,2-.9a12.6,12.6,0,0,0,3.8-.6c1.5-.4.4-.3,1.6-.2s.8-.4,2.6-.6a10.1,10.1,0,0,1-2,1.4l-.9.3c-.3.3-.3,1.7,2.7-.3,0,.4-.2.4-.8.9v.8l.5-.4c.1.7-.2,1.5.6,2.4s3.4.6,3.6-.5-1.4-2.5-2-1.4.4.8.6,1.3-.3.1-.5.2a.8.8,0,0,1-.7-.7,1.5,1.5,0,0,1,.5-2,2.7,2.7,0,0,1,4.4,1.3c.2,1.4.3,1.2-.5,2.5a2.5,2.5,0,0,1-.4.7,8.3,8.3,0,0,1-2.6,1.9,18.3,18.3,0,0,1-7.7,1.5H50.3c.2-.2.7-.5.9-.9A2.4,2.4,0,0,0,47.5,109.8Zm.2,9.8a2.1,2.1,0,0,1-1.9-.2v-.8c.1,0,1.8.9,2-.3s-2.3-2.5-3.1-.7a2,2,0,0,0,.6,2.6l-3-.2a2.2,2.2,0,0,0,.5-.8c.8-2.2-1.1-5.2-2.6-6.4a2,2,0,0,1-.7-.6c1.5.1,5.8,2,7.2,2.6a4.9,4.9,0,0,1,2.1,3.3A1.6,1.6,0,0,1,47.7,119.6ZM36.2,95.5c0,.4-.2.5-.4.8v.2h.8c.2.6-.9.9-1.5,1.2s.3.7,1.2.3-.4.4-.6.9.5.2.8.4-.7,1.1-1.4,1.3l-.2-.5c-.4-.8-1.7-.3-2.4-.4s-2-.7-2.1-1.6a1.7,1.7,0,0,0,1.3.3V97.1a1.5,1.5,0,0,0,1-.4v-.6a2.6,2.6,0,0,1-1.8-.2,1.5,1.5,0,0,1-.9-1.3c.4.2.8.4.8-.2s-.4,0-.7-.4,1.1,0,1.2-.6-.1-.5-.4-.5a4.8,4.8,0,0,1-2-.4v-.6l.8.3a1.7,1.7,0,0,0-.5-1.2h.8c0-.5,0-.5-.2-.7s-1.3-.5-1.6-.9l.6-.6c1-1.3,3.6-2.2,5.3-2.4a2.4,2.4,0,0,0-.2.8h1.1l.5.5c.1.1.2.3.4.3s.1-.7.2-1.1H36l.9.4a5.7,5.7,0,0,0,1.6.3h2l1.1-.3-1.5,1.2h0v.2l2.3,1.1h.3l6.5-5a11.5,11.5,0,0,1,3.1-1.4,2.9,2.9,0,0,1,1.9,0c.6.4-.2,1.6-2.4,3.4a24.2,24.2,0,0,0-2.4,2,3.6,3.6,0,0,0-1,1.4,2.5,2.5,0,0,0-.4,1.8,1.9,1.9,0,0,0,1,1.3l1.1.4-.4.5c-.4-.2-1-.9-1.3-.3s1.7,1.4,2.1,1.9.3.1.6.8.7.2,1.1,1,.9,1.8.6,2.6-2.7,1.6-3.9,1.8c-3.5.4-3.8.6-4-1-1.1.2-.3,1.6.2,1.9s-.2.2-.2.5,0,.4-.3.6h-.1c-.9.3-3.5-.6-3.7-1.9s.5.7,1.8.6a1.2,1.2,0,0,1-.2-.7l1.3-.2c-.1-.9-.2-.6-.9-.7l-1.1-.4c-.8-.3-1.4-.7-1.5-1.6l.6.2c.6.2.3.1.5,0h.1c.3-.4-.3-.7-.4-1h.7c0-.4.1-.2-.1-.5s.2,0,.7-.7l.4.5c.1-.2.3-.3.4-.4s-.6-.8-.6-1.2a8.4,8.4,0,0,1,.4-1.2c1.1,1.2.4,1.9.5,2.4l.5.2c.3-.2.1-.2.3-.4l.3.5.6-.3-.5-.8h.9v-.6l-1.2-.3a4.1,4.1,0,0,1-.7-1.1c1.8.1,1.4.6,1.8,1.3h.6l-.2-.7,1,.2.2-.4a1.1,1.1,0,0,0-.6-.2c.1-.3.2-.3.3-.5l-.3-.3c-.4.1-1,.5-1.4.4l-1.2-.3.7-.4a1.5,1.5,0,0,1,.7-.3c.4,0,1.1.5,1.2-.3h-.5l.8-.5c-.1-.3-.1-.4-.3-.5a.8.8,0,0,0-.6.2v-.5h-.5a1.1,1.1,0,0,0-.3.6c-.1.3,0,.2-.3.4l-1.2.6a3.1,3.1,0,0,1,.2-.8l.2-.7H45v-.7L44,91a2.4,2.4,0,0,0,.2-.9h-.6a1.4,1.4,0,0,1-.2.7l-.5-.3c-.2.1-.1.2-.3.4s.3.5.1,2.2h0c-.9-1.1-.8-1.1-.3-2.2l-.5-.3-.3.6-.2-.2c-.3-.5-.2-.7-.9-.3l.5,1h-.9a.7.7,0,0,0-.1.5c.3.1,1.1.1,1.3.3a4.4,4.4,0,0,1,.8,1.1,8.5,8.5,0,0,1-1.7-.4v-.8h-.5v.6a1.6,1.6,0,0,0-1-.2c-.1.1-.1.3-.2.4l.8.3h-.1l-.3.4.4.3c.6-.2.8-.6,1.2-.4l1.3.3c-.2.3-.2.2-.6.4s-.8.3-1.7,0-.2.1-.2.5H40c-.6.3-.8-.1-1.2-.6s-1.1-1.5-1.5-1.7l-1.5,2.2c-.4.4-.5.3-.5.7Zm-2.9,14.1-2.5.3-.2-1.3,1,.2,1.2-1.7,1.3.6c.5-.4.4-.7.5-1s.1-.2.5-.3h.7a6.1,6.1,0,0,1-1.4,1.7c-.8.2-1.6-.4-2.2.9S33,109.3,33.3,109.6Zm1.3-6a1.2,1.2,0,0,1-1.9-1c.7.1.9.3,1.6-.2l-.5-.5c-.3-.3-.3-.3-.4-.8h.7l.2.4h.8c-.2.4.2.9.4,1.2l.7-.5C36.1,103,35.7,103.2,34.6,103.6Zm-8.3,10.1-.5.9-.5-.2a5.2,5.2,0,0,1,1.5-1.5Zm-12.5-9.8-1.2-1.7a8.3,8.3,0,0,1-.8-1.2l-.3-.5-.6-1.1h.6l1,.2a8.6,8.6,0,0,1,3.7,2.6l2.4,2.6-.9-.2A12.8,12.8,0,0,0,13.8,103.9ZM7.3,78.7c-.7,1,.8,1.4.9,1.5H8.1a1,1,0,0,1-.9.2C6.1,80,6,78.1,7,77.2s2.8-.7,4.1.3a3.7,3.7,0,0,1,.9,1.6c.5,1.7-.4,4.1-1.2,5.4a6,6,0,0,0-.8,1.6c-.7,2.5.2,6,1,8.5A22.8,22.8,0,0,0,12.6,98H10.2A40.3,40.3,0,0,1,5.8,80.9a2.5,2.5,0,0,0,1.6.8,2.3,2.3,0,0,0,2-1C10.6,78.6,8,77.5,7.3,78.7Zm8.2,6.6a2.1,2.1,0,0,0-1.7.8,2.3,2.3,0,0,0,.8,2.6l.4.2a3.4,3.4,0,0,0,3.3-.9,3.6,3.6,0,0,0,.7-1.7v-.7c.1-.3,0-.1.1-.2h0v.2s.1.3.1.1h.6V85l.6-.4v.9h.6l-.2-1.3.7-.4c.1.6.1.5.6.7s-.1-.4-.1-.4-.1-.2.1-.3.1,0,.1.2,0,.7-.2,1l-.3.5c0,.1.1.5.3.5s.5-.5.8-.8-.4.8-.4,1.7.6-.1.8-.4l.3.6c.2-.1.2-.4.2-.8h.8c-.1-.6-.3-.5-1-.6V85c.6.2.4.3,1.3.2s-.1-.5-.3-.6l-1.3-.4v-.4h.5l.2-.4c-.2-.3-.2-.1-.5-.4H24a6,6,0,0,1,.9,1.3c.5-.1.3-.2.7-.3a2.3,2.3,0,0,0-.7-1h.6l.7.8h.5c-.1-.4-.3-.4-.3-.8h.8v-.6h-.7c0-.2.1-.2.1-.5s-.6.5-1.6.6l.6-1c-.4-.2-.7-.3-1,.2l-.5.8h-.7c.1-.3.3-.2.3-.3h0v-.6l-.6.3a1.7,1.7,0,0,1,.1-.7c1.7-.2,1.1.2,1.6-.9l-1.2.2c0-.3.1-.3.1-.6h.8c0-.3.1-.3.1-.6h-.5c0-.2.1-.3.1-.6h-.1a6.2,6.2,0,0,0,1.7-1.1,8.6,8.6,0,0,0,1.4-1.8l.3.9h.1c3.1-1.9,5.4-3.3,6.8-4.4a1.7,1.7,0,0,1,.2,1.3l-.6.6a31.1,31.1,0,0,0-4.4,3.4,8.8,8.8,0,0,0-1.9,2.1,3.5,3.5,0,0,0-.3,2,2.2,2.2,0,0,0,1.1,1.4l1.2.4a5,5,0,0,0,1.5-.2,7.6,7.6,0,0,0,2.3-.9l.8-.4a4.3,4.3,0,0,0-.4,2.4,4.6,4.6,0,0,0,.3.9c-1,.1-.8-.2-.8.3v.2a12.1,12.1,0,0,1-1.9-.1l-2.2.2a12.5,12.5,0,0,0-3.7,1A13,13,0,0,0,21,91l-.8-.2h-.9c-1.9.2-2.8,1.6-2.7,3.5-1.7.2-2.5-.2-3.4,2.2-.7-.8-2-4.9-2.2-5.8A8.7,8.7,0,0,1,12.2,85a4,4,0,0,1,4.1-1.5l.6.3.4.2c1.1.8.7,3.5-1,3.8s-1-.1-1.1-.7C17,87.7,17.5,85.4,15.5,85.3Zm7.6-6.4h.2a.3.3,0,0,1-.1.2Zm2.3,10.7c.2,1.6-1.8,2.7-2,3a.8.8,0,0,1,.2.5h1.5c.1.8-1.1,1.1-1.4,1.4l-.4.4c-.5.4-.5.2-.5.6s-.2.3,1,.1a5.3,5.3,0,0,1-.3,1.1c1,.5.8-.2,1.4-.4s.3.5,0,.8a9.6,9.6,0,0,1-2.2,1.8l-.2-2h.6A4.6,4.6,0,0,0,22,95.2c-.3,0-.7.2-1,0s.4,0,.9-.6a1.9,1.9,0,0,0,.1-2.2l-.3-.5c-.1-.2-.2-.1-.3-.4a8.5,8.5,0,0,1,1.1-1.4,10.2,10.2,0,0,1,6.6-3.7h-.2c-1.7.8-2.2.5-4.1,2.7a6.6,6.6,0,0,0-.9,1.9C24.5,90.9,24.9,89.8,25.4,89.6Zm-4.7,8.7.2,1.4h-.7L20,98.4Zm-1-.3v-.7h.9v.7Zm1-3.7c-1-.2-.7,1-1.3.1l.3-.2c.3-.1.4.1.3-.7s-.8-.4-1.2,0a1.1,1.1,0,0,0,.2,1.6c.2.1,2.1.2.1.5l-.5.9a1.8,1.8,0,0,0-.4-1.1,1.3,1.3,0,0,0-.6-.4,3.4,3.4,0,0,1,.2-2.3,1.9,1.9,0,0,1,1.8-1.1c1.2-.1,2.7,1.9,1.3,2.8S20.8,94.4,20.7,94.3Zm1.2,3.9.2,1.3h-.7l-.2-1.3Zm-.8-.4v-.7h1v.7Zm9.3-11.1-.9.4A8.3,8.3,0,0,0,28,88.2l-.5.6-.5-.6A8.1,8.1,0,0,1,30.4,86.7ZM14.9,98.4c-.9-2.3.4-3.4,1.5-2.7s-.5.8-.4,1.4,1.4,1.2,2.2.4.2-.2.8-.3l.4,3.2h.8l.2.3H21v.3h.7c-.1-.9,0,.2.5-.8H23V101c1.6-.2,1.2-.8,2.1-1.2.1,1.3-2.8,3-3.6,3.5s-.4,1.7,1.5.5c.1.6-.2.7,0,1.5l1.1-.4.6-.4h.2v.2a3.5,3.5,0,0,1-.8,1.3,4,4,0,0,1-1.5,1c-1.5-1.7-1.8-1.9-3.3-3.4S15.4,100,14.9,98.4Zm10.5,13.9-.7.7a9.2,9.2,0,0,0-.5-2.9,6.9,6.9,0,0,1-.3-.8,8.2,8.2,0,0,0,1.7-1.1c.2.1.6.8.8,1l1.3-.5c.1.5,0,.6.1,1a4.4,4.4,0,0,0,.2,1C27,111.4,26.8,111.3,25.4,112.3ZM60.3,98.2a3.1,3.1,0,0,0,.5,1c-.2.3-.1.3-.4.6s.3-.4-.2-1l-.3.3h-.1a1.9,1.9,0,0,0-.8-.3c.1.2,0,.1.1.3s.1.2.2.3-.3-.1-.2.4h.2a1,1,0,0,1,.9.4h-.9v.4c.3.2,1,0,1.4-.1v.6h-.6l.3.3c-.6.1-1-.3-1.5-.5l-.4.4.7.5c-.8.2.1-.3-1.1-.2l.3.5-1.2.2H56.3l-.2-1.7a7,7,0,0,0-.9-2.4c-.3-.5-.5-.6-.6-1.1l.8-.6.3-.2h.2c1.1.6,2.7.4,4.8-.7h0A3.2,3.2,0,0,0,60.3,98.2Zm1.1,5.4v.4l-1.3.2c-2,.3-1,.2-1.7.5l.9-2.1h.5l-.4.9h.7c.1-.2.1-.4.2-.6s.1-.3.4-.4a.1.1,0,0,0,.1.1v.4h.3c0,.6-.7.4-.8.9S61.1,103.8,61.4,103.6ZM54.6,95a1.4,1.4,0,0,0,.2.6h-.2c-.9.1-.9-.4-2-.2s.1-1.1-.6-1.1,0,.6-.1.7v-.2a1.7,1.7,0,0,1,0-1.2h0a7.3,7.3,0,0,0,2.5-.7l.7-.4A4.1,4.1,0,0,0,54.6,95Zm-3.4.4-.8-.7a1.4,1.4,0,0,1,.6-.9Zm-7.8,9.8a2.9,2.9,0,0,0,1.6,0c0,.9-1.2,1.5-1.9,1.7h-.4a1.6,1.6,0,0,1-.6-.8l1.4.2C44.1,106.2,43.5,106.2,43.4,105.2ZM40.7,97l.8-.2v.8c-.6-.2-1.9-.5-2-1.2s1.4-.2,1.6-.8.3-.7,1.2-1.1c-.4,1.1-.2,1.4-1.6,2ZM60,95a2.9,2.9,0,0,1-2.3.3.6.6,0,0,1-.3-.6,1.5,1.5,0,0,1,.2-.9,11.9,11.9,0,0,1,2.2-2.5,12.1,12.1,0,0,1,3.1-2.1,2.9,2.9,0,0,1,2.5-.3.9.9,0,0,1,.5,1.1,4.5,4.5,0,0,1-.8,1.8l-1.6,1.3A17.7,17.7,0,0,1,60,95Zm2.9-7.9a11.2,11.2,0,0,0-3.1,1A10.1,10.1,0,0,0,57.1,90a.2.2,0,0,0-.2.2,18.1,18.1,0,0,1-3.5,1.6h-.1a2.2,2.2,0,0,0,.1-1.1h-.7a1.3,1.3,0,0,1,.1.6c-.1.5.1.2-.2.4s-.1-.4-.2-.6-.6.3-.9.9-.2-.2-.5-.1-.2,0-.2.1a.6.6,0,0,1,0-.6,5.1,5.1,0,0,1,1.3-1.4l3.6-2.9A3.7,3.7,0,0,0,57,85.7a2,2,0,0,0,.2-1.7A2.2,2.2,0,0,0,56,82.7l-.9-.5H54a4.3,4.3,0,0,0-1.6.1l.8-.6v-.2h-.1l-2.3-1.2h-.4L45.6,84a15.9,15.9,0,0,1-2.7,1.2,9.1,9.1,0,0,1-2.6.5l-1.7-.2-1.2-.4a1.2,1.2,0,0,1-.8-1.1,2.7,2.7,0,0,1,.5-1.6,3,3,0,0,1,.7-1,8.2,8.2,0,0,0,3,.8,7.1,7.1,0,0,0,3.5-.3,3.9,3.9,0,0,0,2.5-1.8,2.1,2.1,0,0,0,.1-1.9,4.7,4.7,0,0,0-1.6-1.5,6,6,0,0,0-3.8-.4,8.3,8.3,0,0,0-4,1.6,9.5,9.5,0,0,0-1.8,1.5,20.1,20.1,0,0,1-2.5,1.3l-2.1.9q-.7.2-.9,0c-.3-.1-.3-.4-.1-.8s2.5-2.6,6-5.1a2.9,2.9,0,0,0,.8-.7,2.9,2.9,0,0,0,.2-.9,5.2,5.2,0,0,0-.2-1.1,6.3,6.3,0,0,1-.4-.9l-.6-1c-.1-.2-.1-.3-.2-.3l.3-.3a1.6,1.6,0,0,0,.1-1,.6.6,0,0,0-.5-.6,1.2,1.2,0,0,0-1-.1,1.3,1.3,0,0,0-.9.9c-.2.2-.2.6,0,1.1-1.5,1.1-3.5,2.6-6.1,4.2a6,6,0,0,0,.7-3.2,6.1,6.1,0,0,0-1.1-3.1,7.9,7.9,0,0,0,4.6-.2,6.4,6.4,0,0,0,3.3-3,6.1,6.1,0,0,0,.7-4.2c0-.2-.1-.3-.1-.5l.9-.3.7-2.8,1.7-.4-1.3,4.8,1.4-.3,1.1-4.2,1.9,1.9.4-1.4L41.4,57l1.3-.3,1.6,1.6L45.9,60l-.3,1.2-1.1-1.1-1.4.4,2,1.9-4.2,1.2L40.5,65l4.9-1.4-.5,1.7-2.8.7-.3,1.4,2.8-.7-.5,1.7h.6l.6.2.5-1.7,2,2,.4-1.4-2-2,.4-1.6,3.5,3.5.4-1.4-3-3,2.6-.7-1-1.1-1.5.4.3-1.2,2.3-.6,2.2-.6.9.9-1.5.4L51.5,62l2.6-.7L53,65.4l1,1.1,1.3-4.9,1.2,1.2-.7,2.8,1,1,.7-2.8,1.3,1.3.4-.5.5-.4-1.3-1.3,1.9-.5,1,2.9c-.3.1-1.2,1-1.4,1l-1.6-.8.6,1.8-.6.4c-.2.1-.8.4-.9.7h1.9l.6,1.6c-.2.2-7.5,4.1-7.9,4.6,1.5.3,7,.9,8.8,1.1a8.8,8.8,0,0,1,.2,1.7l-1.7.7c.4.4,1.3.4,1.8.6s.2,1.4.5,1.8l.9-1.5a4.7,4.7,0,0,1,1.7.4c0,.6-.1,1.6-.1,2.3v5.6ZM38.6,80.5a12,12,0,0,1,3.5-2.2,3.6,3.6,0,0,1,2.8-.3l.2.2q0,.8-1.2,1.5A7.3,7.3,0,0,1,38.6,80.5ZM28.9,50.8l3.9,4.3-.4-5.9L38,46.8h-.3l2.1-.6L41,47.3l-4.9,1.3,1,1.1,4.2-1.2-.7,2.7,1.4-.4s.2-.9.4-1.5l.9.9-.6,2.3-.6,2.2-1.2.3c.1-.5.4-1.4.4-1.4l-1.1-1.1-.7,2.7-3-3.1-1.4.4,3.6,3.6-1.7.4-2-2-1.4.3,2,2.1-1.7.4v.2c0-.1,0-.1-.1-.2a14.2,14.2,0,0,0-4-3.1,22.7,22.7,0,0,0-4.7-1.8ZM28.5,45l-2.3-.5,1.4-.8L30,42.5Zm15.6,5.3L47,53.1a1.6,1.6,0,0,0-.3.9l-3.9,1.1L44.9,53ZM53,57.7c-.9-.9-1.9-1.8-2.8-2.8a2.9,2.9,0,0,0,.2-.9l3.9-1-2,2Zm-4.4-1.8.6-.2c.1,0,.2,0,.2-.1h.1l2.8,2.9-2.7-.8-2,2.1C47.9,58.5,48.3,57.2,48.6,55.9Zm-2,3.6-.7-2.8L43.1,56,47,55l.3.3c0,.1.1.1.2.2h.1C47.3,56.9,46.9,58.2,46.6,59.5Zm3.6-6.4-.3-.4h-.3a.1.1,0,0,1-.1-.1c.4-1.3.7-2.5,1-3.8l.8,2.7L54,52Zm-1.6-.9h-.9l-2.9-2.8,2.8.7,2-2C49.2,49.6,48.9,50.9,48.6,52.2Zm-14,6.2,1.3-.3L35.4,60A6,6,0,0,0,34.6,58.4Zm24.7,1.5c.2.4.3.8.5,1.3l-2.4.7-1.2-1.2Zm3.3,8.4c-.1.2,0,.1-.2.2l-2,1.1c-.1-.3.2-1,.3-1.3Zm.2,8.1-.7.4c-.2-.2-.7-.7-.6-1.1h0l2,.2C63.4,76.3,63.5,76.1,62.8,76.4Zm1.4,0v.2a12.7,12.7,0,0,1-.1,2,13.5,13.5,0,0,0-1.1-.9C63.1,77.5,63.9,76.4,64.2,76.4Zm4.3-11.2a4.5,4.5,0,0,1-1.3,1.1,4.9,4.9,0,0,0-1.5-.9l.3,1,.4.8c-.4.2-1.1.9-1.5,1l-1.1-3.1A29.6,29.6,0,0,1,62.7,62c.4,0,1.1.6,1.5.8Zm-1.6-3.7,1-.2a13.1,13.1,0,0,1,.5,1.5A6.4,6.4,0,0,1,67,62C66.7,61.8,66.3,61.6,66.9,61.5Zm2.1.3c.1-.9-.2-.7.6-.9h.7c0,.2-.2.3-.3.5s-.8,1.2-1,1.2A.8.8,0,0,1,69,61.8Zm9,11.7c.4,0,.5.2.8.4a1.5,1.5,0,0,1,.6.5,4.2,4.2,0,0,0-.4,1.2c-.4-.1-.3-.2-.5-.5s-.1-.3-.2-.5A4.5,4.5,0,0,1,78,73.5Zm.6-.4c0-.4,0-.2.8-.7a3,3,0,0,1,1-.4c.1.3-.5,1.2-.5,1.3Zm-2-1.6a5,5,0,0,1-.2-1.2l.7-.6.7-.5a2.8,2.8,0,0,0-1.3-.3h-.4c-.3-1.5-.4-1.5.2-1.4s5.4.7,5.7.9h-.3l-.4.2Zm.4-6.4,1-.4c.3-.1.3,0,.5.3l.3.5c-.2.2-.6.1-1,0l-1-.2C76.8,65.1,76.7,65.2,77,65.1Zm.3-1.3-.2.2-.3.4c-.5.7-.2.7-.6.7a7.7,7.7,0,0,1,.1-2.1c0-.8.3-.3.5-.1a1.5,1.5,0,0,0,.6.5A2.3,2.3,0,0,1,77.3,63.8ZM52.1,42c0,.2-.2.3-.4.2s-.3-.2-.2-.4.2-.3.4-.2S52.2,41.8,52.1,42ZM70.4,4.9c3.8-1.2,5.2,1.8,3.6,5.4a25.9,25.9,0,0,1-15.9,6.2A20.2,20.2,0,0,1,70.4,4.9ZM60.9,35.2l.2.3a.4.4,0,0,0-.1.3,60.6,60.6,0,0,0-6.1-1.6c-.2-.4-.5-.9-.7-1.4h-.1A29.2,29.2,0,0,1,52,27.1Zm-9.1,4.3-.4,1.6-1.8-1.8ZM46,17.3a2.2,2.2,0,0,1,1.5-.6,2.4,2.4,0,0,1,1.6.7,2.3,2.3,0,0,1,.6,1.6,2.1,2.1,0,0,1-.7,1.5,2.5,2.5,0,0,1-1.6.6,2.6,2.6,0,0,1-1.6-.7,2.2,2.2,0,0,1-.5-1.6A1.8,1.8,0,0,1,46,17.3Zm.3,21.8,2.9.2-.3,1.1,2.1,2-.4,1.7L47,40.5l-.4,1.4L49.7,45l-2.7.7,1.1,1,1.4-.4-.3,1.3-2.2.6-2.2.6-1-1,1.5-.4.4-1.3-2.7.7,1.1-4.2-1-1-1.3,4.8-1.2-1.2.8-2.8-1-1-.8,2.8L38.4,43l-.5.4-.4.5,1.2,1.2-2.8.8.7.6-4.5-.9-.2-3.8A32.6,32.6,0,0,1,38.2,40l1.3-.3A38.2,38.2,0,0,1,46.3,39.1Zm-6.5-6.4h0c0,.1-.1.1-.1.2l-.8,1a42.9,42.9,0,0,0-6.2,1.4v-.2l.6-.9,9.4-7.4A23.9,23.9,0,0,1,39.8,32.7ZM21.7,8.3c-1.4-3.7.3-6.5,3.9-5A19.5,19.5,0,0,1,37,15.7,24.9,24.9,0,0,1,21.7,8.3Zm2.6,37.4,2.2,2.4-2.6,4.1a14.2,14.2,0,0,0-4.1-.1,19.1,19.1,0,0,0-4.1,1.1h-.2A39.8,39.8,0,0,1,24.3,45.7ZM7.8,66.9l.3-.9.3-.8c.4-1.1.9-2.1,1.4-3.2a3.8,3.8,0,0,0,2,2.8,4.3,4.3,0,0,0,4,.2,4.6,4.6,0,0,0,2.8-2.2.9.9,0,0,0,0-1.2c-.1-.3-.2-.3-.3-.1a4,4,0,0,1-2,1.4,2.7,2.7,0,0,1-2.5,0,1.8,1.8,0,0,1-1-1.4,3.1,3.1,0,0,1,.5-2A8.7,8.7,0,0,1,15,57.3a18.5,18.5,0,0,1,2.7-1.9,19.6,19.6,0,0,1,3.4-1.2,10.7,10.7,0,0,1,4,0,11.6,11.6,0,0,1,4.2,1.4,7,7,0,0,1,3.6,3.6,5.1,5.1,0,0,1-.5,4.3,5.9,5.9,0,0,1-3.6,3.2,6.2,6.2,0,0,1-4.9-.7c-.2-.1-.3,0-.4.3a.9.9,0,0,0,.5,1.2l.7.3a3.2,3.2,0,0,1,1,2.1,4.2,4.2,0,0,1-.7,2.9,6.9,6.9,0,0,1-1.9,2.5,4.7,4.7,0,0,1-2.8,1.2,4.7,4.7,0,0,1-3.2-.6L16,75.1a2.4,2.4,0,0,1-.6-.9c-.1-.2-.1-.4-.2-.6a.8.8,0,0,1-.1-.3h-.3l-.3.3a2.3,2.3,0,0,0,.2,2.1A5.5,5.5,0,0,0,17,78a9.6,9.6,0,0,0,3.4,1.1,6.6,6.6,0,0,0,2-.1h-.1l.6.6-.2.5a4.6,4.6,0,0,0-.7-.7l-.4.2a1.9,1.9,0,0,0,.5.9c.3.5.2.4.1.9s-.1-.4-.6-.3h0v.2c-.1.4.2.1-.2.3a10.1,10.1,0,0,1-.3-1.7h-.7V81h-.4l-.2-1.1h-.5v.4H19c-.4-.2-.6-.3-1,.1l.7.5c-.4.1-.6.1-.1.7s.8-.1,1.1.1l-.6.2v.7a6.7,6.7,0,0,1,2-.1h-.3l-.2.2c.1.2.3.2.5.3s-.9.1-1.9,0-.2.2-.2.5l.7.4c-1.1.8-1.1-.9-2.5-1.5l-.8-.3h-.8l-2.1.3c.1-1.6.4-3.4-.6-5a4.3,4.3,0,0,0-2.3-1.9l-.5-.2H9.7l-2.2.3h0l-.5.2a5,5,0,0,0-1.2.8,54,54,0,0,1,1.5-8.2Zm10.1,41.8c0-.1-.1-.1-.1-.2l-.5-.5-2.2-2.4-.4-.5,1.2.2a13,13,0,0,1,3.7,1.9,6.8,6.8,0,0,1,2.5,3.3,6.3,6.3,0,0,1,.3,1.9l-2.5-2ZM34,118.3h-.5l-2.6-1-3.6-1.7-.5-.3a13.6,13.6,0,0,1,1.2-1.7,7.7,7.7,0,0,1,6-2,6.6,6.6,0,0,1,2.5.7c2.2,1,4.7,2.8,5,5.4a3,3,0,0,1-.6,2.3l-1.6-.3-1.3-.2h.6c.8-.3,1-.7,1.1-1.6.1-2.4-3.3-3-4.4-.8a4.7,4.7,0,0,0-.3,1.7l-1-.3Zm2.5-1.3c.6-.1,1.3-.3,1.6.1s-1.4.2-1.2,1.4a.9.9,0,0,0,.6.7l-1.5-.3A3.4,3.4,0,0,1,36.5,117Zm24.5.5-2.7.9-1.2.4a48.6,48.6,0,0,1-5.5,1.1l-2.6.2a2.4,2.4,0,0,0,.8-2.4,2.9,2.9,0,0,0-.3-1.4c-.1-.4-.4-.9-.5-1.3h3.2a26.1,26.1,0,0,0,6.9-1c2.3-.7,2.4-1.6,5.1-2.5s4.2-.8,5.4,1.2h0l-1.5,1a.1.1,0,0,0-.1.1l-.5-.6a1.8,1.8,0,0,0-2.9,1.4,2,2,0,0,0,0,1.1l-.4.2Zm4.9-2.4h0Zm7.8-5.6a33.6,33.6,0,0,1-2.9,2.4l-.3-.4a4.6,4.6,0,0,0-3.9-1.7l-2.2.3c.1-1.5.7-2,0-3.8a4.5,4.5,0,0,0-2.3-2.2v-.7a1.6,1.6,0,0,0,1.2.3c-.3-.5-1-.5-1.2-1.2h.6v-.5h.6v.8l.5-.2h0v-.4c.7.4-.1.7.6.7s.1-.3.2-.4h.8c-.1-.3-.5-.5-.7-.7s.4-.8-.2-.4-.3.2-.7.2l.5-.8c-1,.1-.9.5-1.2.5h-.4c.1-.3.2-.2.2-.5h-.2c-.1-.1-.1-.1-.1,0h-.1a3.3,3.3,0,0,1,1.5-.3v-.4h0a9.3,9.3,0,0,0,2.2-.9l.5-.3a4.5,4.5,0,0,0-.4,2.2,2.8,2.8,0,0,0,1.3,1.9c1.2.5,2.7.3,4.6-.7h0a2.2,2.2,0,0,0-.3,1.9,1.9,1.9,0,0,0,1.1,1.5l1.2.4a3.6,3.6,0,0,0,1.4-.1,6.4,6.4,0,0,0,1.9-.7,25.2,25.2,0,0,1-2.1,2.5Zm-4.6-8.6a2.2,2.2,0,0,1,.3-1,9,9,0,0,1,2.1-2.5,12.6,12.6,0,0,1,3.2-2.1,2.9,2.9,0,0,1,2.5-.3,1,1,0,0,1,.4,1.1,2.7,2.7,0,0,1-.7,1.7l-2,1.7c-2.8,1.7-4.6,2.4-5.4,2A.9.9,0,0,1,69.1,100.9ZM86.8,81.4h0a34.3,34.3,0,0,1-.7,5.6,39.4,39.4,0,0,1-6.7,15.9l-2.6,1.3c-1.1.4-1.8.6-2.1.4s-.3-.3-.1-.7a6.5,6.5,0,0,1,1.7-1.9c.8-.8,2.7-2.3,5.7-4.6v-.2a.1.1,0,0,0-.1-.1l-2.2-1.2c-.1-.1-.3,0-.4,0l-.4.4a2.2,2.2,0,0,0-1.3-2.5,5.6,5.6,0,0,0-2.9-.5,8,8,0,0,0-3.1.9,13.1,13.1,0,0,0-2.7,1.9l-.5.4a23.4,23.4,0,0,1-3.1,1.6,2.7,2.7,0,0,1-2.1.2c-.3-.1-.3-.4-.1-.7a9.5,9.5,0,0,1,2.5-2.7l11.8-9.2v-.2h-.1l-2.2-1.2h-.4l-7.6,5.9a2,2,0,0,0-1.3-2.5,1.1,1.1,0,0,0-.7-.3l.6-.8h0l.6-.7a6.1,6.1,0,0,1,.7-1l1.4-1.8a21.4,21.4,0,0,0,1.3-1.9l1.7.6v2.1c.2-.1.4-.5.6-.7s.8-.7,1.4-.6l.9.3c-.1-.5-.6-.9-.7-1.4a7.1,7.1,0,0,1,1.3-1.2l1.9,1.1,2.9,1.7,1,.5,1.9,1c-.6-1.3-1.1-2.7-1.7-4.2l-.9-2.1a8.4,8.4,0,0,1-.8-2l1.1-.9a12.6,12.6,0,0,0,1.7,1.1l-.4-1.8.9-.6.4-.2c.3-.2.3-.1.4-.3l-2-.2V71.6L84,69.9l1.4-.8c.1.6.3,1.1.4,1.7s.3,1.2.4,1.7h0c.2,1.6.4,3.2.5,4.8a19.3,19.3,0,0,1,.1,2.4Z"/></g></g></svg>