<svg xmlns="http://www.w3.org/2000/svg" viewBox="0 0 92.8 126.2"><defs><style>.a{fill:none;stroke:#000001;stroke-miterlimit:10;stroke-width:0.28px;fill-rule:evenodd;opacity:0.98;}</style></defs><title>Denyelle</title><path class="a" d="M92.6,78.5A46.3,46.3,0,0,0,72.5,41.6l.8-.3h0a19.9,19.9,0,0,0,6.5-4.5c4.3-5.2-.8-10.8-.7-16.2s2.4-9.5.4-14.1S75.4,2.1,72,1.9A14.6,14.6,0,0,0,64.1,4c-2,1.4-12.3,11.7-12.4,11.7a3.4,3.4,0,0,0-1-1.6,3,3,0,0,0-1.6-.5h-3a3.1,3.1,0,0,0-1.3.3c-.6.4-1.1,1-1.1,1.3-3.3-4.4-7.2-9.1-11.5-12.4A14.5,14.5,0,0,0,24.5.1c-3.3,0-6.3,1.1-7.7,4.1s-.3,9.5-.7,14-5.8,10.7-1.9,16.1a17.2,17.2,0,0,0,7.7,5.9h.4A46.2,46.2,0,0,0,8.6,106.5l1.2,1.7a46.6,46.6,0,0,0,14.5,12.3l2.3,1.1a45.3,45.3,0,0,0,19.8,4.5A47.3,47.3,0,0,0,59,124.4l2-.7a39.6,39.6,0,0,0,7.9-3.5l1.7-.9A46.5,46.5,0,0,0,92.7,79.8V79A1.1,1.1,0,0,0,92.6,78.5ZM85.2,68c.3,1,.5,2,.8,3l-3.6,5.6L76,75.4h.1a2.9,2.9,0,0,0,.7-1,7.2,7.2,0,0,0,.5-2,1.3,1.3,0,0,0,.1-.6,5.6,5.6,0,0,0,1.4,1.6,2.7,2.7,0,0,0,2.6.1,1.9,1.9,0,0,0,.9-.5,3.1,3.1,0,0,0,1-.8,6.4,6.4,0,0,0,1-1.3c.2-.6.5-1.3.7-2.1S85.1,68.2,85.2,68Zm-6.1-3.5c.3-1.1.7-1.8,1.2-2h.2c.4.2.5.8.4,1.7a5.5,5.5,0,0,1-2.1,3.9A10.5,10.5,0,0,1,79.1,64.5ZM70.6,5.1c3.7-1.2,5.2,1.7,3.5,5.3a25.6,25.6,0,0,1-15.8,6.2A19.3,19.3,0,0,1,70.6,5.1ZM65.7,44.2l-.3.2h-.1v-.5l.4.2Zm-3.6,9.4-1.9-.5-1.4,1.4-.5-1.9L56.5,52l1.3-1.3-.4-1.9,1.8.5L60.6,48l.6,1.8,1.8.6-1.3,1.3Zm-4-12.2h0l.3-.2h.3l.9.3-.3.2-.9.9Zm3.8,6.4-.3-1.1a1.4,1.4,0,0,0,.9-.8,1.2,1.2,0,0,0-.9-1.4,1,1,0,0,0-1.4.8,1.1,1.1,0,0,0,.2,1.1l-.8.8-.7-2.7,1.9-1.8v-.9l.5.3,2.5,1-.3.3h0l.6,2.5Zm-.8-12.5V36a42.1,42.1,0,0,0-6.1-1.6,10,10,0,0,0-.8-1.4v-.2a20.9,20.9,0,0,1-2.1-5.6Zm-15-17.9a2.3,2.3,0,0,1,1.6-.6,2.6,2.6,0,0,1,1.5.7,2.5,2.5,0,0,1,.6,1.6,2.4,2.4,0,0,1-.7,1.6,1.8,1.8,0,0,1-1.6.5,1.8,1.8,0,0,1-1.5-.7,2.2,2.2,0,0,1-.6-1.5A2.4,2.4,0,0,1,46.1,17.4Zm.3,21.9a42,42,0,0,1,7.2.6v.3l.2.9,2.5.7.3,1.2-2.5-.7.5,2,2.5.7.7,2.6-1.1-.3a1.2,1.2,0,0,0-.3-1.1,1.1,1.1,0,0,0-1.7,0,1.4,1.4,0,0,0,0,1.7,1.1,1.1,0,0,0,1.1.3l.3,1.1-2.6-.7-.7-2.5L51,45.5l.6,2.5-1.2-.3-.7-2.5-1.9-.6.7,2.6-1.3-.4-.7.7.2,1,1.3.3-1.7,1.7-1.2-.2L41,49.7a5.7,5.7,0,0,1-.1-1.3l1.5-.7L41,47.3l-.3-1.8-.9,1.3-1.7-.5.3-6.2,1.3-.3A49.1,49.1,0,0,1,46.4,39.3ZM35.3,59.4l-1.5-.7h-.2c-.5-.2-.6-.9-1.1-1.2l1-1.2-1.7.2-.9-1.1c-.2,1.9.1,1.5-1.1,1.8s-.5.3-.5-.3l-1.7-.2-1.7-.2-3.4-.4.3-.3,2.5-1.5,1.5-.9,1.4-.9v-.3l1.6-.2a7.4,7.4,0,0,0,.4,1.4h.1c.3-.4.3-1.2.6-1.6l1.5-.2-1.4-.8a4.8,4.8,0,0,0,.5-1.4l.6.2.3-.3c0-.1.1-.2.2-.3s.1-.1.2-.2l2-2.5L35,46l1.1-1.3c0-.1.1-.2.2-.1s-.3,5.4-.1,6.3l.8.2h.1a8.3,8.3,0,0,1-.7,1.3H35c.2.4.8.9.9,1.3a5.4,5.4,0,0,0-.7,1.3l1.8-.5c.2.4.7.6.8.9l-.6.3c.1.9,2.4,6,2.4,6.2s-.6-.2-.7-.3l-.7-.4Zm.7,3.1-1.1.2-.5-1c0-.3,0-.1.1-.2h.1l1.1.6C36,62.2,36,62.2,36,62.5Zm-3.3.5.5-.7c.3-.3.5-.8.7-.8V63c-.3,0-1,.3-1.2.2S32.5,63.2,32.7,63Zm-.2-2.9-2.2,2.6c-.2.3-.7,1-1,1s0-5.7.1-5.8a3.3,3.3,0,0,1,1.3.4V60l1.1-1.3,1.5.5c0,.3-.1.2-.2.4l-.3.3Zm-5.2-.8h0a9.7,9.7,0,0,1-.1,1.8c-.2,0-.6-.6-.9-.8S27,59.3,27.3,59.3Zm-1.2,0-.6.3a1.2,1.2,0,0,1-.6-1h0l1.8.2C26.6,59.1,26.7,58.9,26.1,59.3Zm-1.9-7.2a4.7,4.7,0,0,1,1.7-.1c-.1.2,0,.1-.2.2l-1.8,1A4.5,4.5,0,0,1,24.2,52.1Zm7.6-7.8V42.6a3.4,3.4,0,0,0-.6.6,4.6,4.6,0,0,1-.7.7,3,3,0,0,0-1.4-.6c.1.4.6,1,.7,1.5s-.7.9-1,1l-1.8-1.1-.5-.2,1.1-.7a41.2,41.2,0,0,1,9.1-3.3l-1.4,1.6c0,.1,0,0-.1.1h-.1l-2,2.7-.4-.2C32.5,44.7,31.9,44.5,31.8,44.3Zm.9,1.1c0,.2-.1.3-.3.4a4.8,4.8,0,0,1-.9,1.1.7.7,0,0,1,.1-.6c0-.9-.2-.7.5-.8Zm-1.6,1.7a5.4,5.4,0,0,1-1.3-.7c-.3-.2-.6-.3-.1-.4l.9-.2C30.7,46.1,31.1,47,31.1,47.1Zm-3.8,0,3.8,2.2a3.1,3.1,0,0,1-1.1.9l-1.3-.7a1.3,1.3,0,0,0,.3.8,2.5,2.5,0,0,0,.3.7c-.4.2-1,.9-1.4.9l-1-2.7c-.1-.6-.9-2.4-.9-2.8A4.2,4.2,0,0,1,27.3,47.1Zm12.3,9.5c.4,0,.4.2.7.4a1.2,1.2,0,0,1,.5.5l-.4,1c-.3-.1-.2-.1-.3-.4l-.2-.5A2.9,2.9,0,0,1,39.6,56.6Zm.5-.3c0-.3,0-.2.7-.6s.6-.4.9-.4-.4,1.1-.4,1.1A2.3,2.3,0,0,1,40.1,56.3Zm-1.8-1.4c0-.3-.1-.8-.1-1.1l.6-.5.6-.5-1.2-.2h-.3c-.3-1.3-.4-1.3.2-1.2l5.1.7h-.3l-.4.2Zm.4-5.8.9-.3c.3,0,.2.1.4.3s.2.2.3.5a1.5,1.5,0,0,1-.9-.1h-.9C38.5,49.2,38.4,49.2,38.7,49.1Zm.2-1.1c0,.1,0,.1-.1.2s-.2.2-.2.3-.3.7-.6.7a12,12,0,0,1,0-1.9c.1-.7.3-.2.5-.1a1.5,1.5,0,0,0,.6.5C39,48,39.1,47.8,38.9,48ZM40,32.9a.1.1,0,0,0-.1.1h-.1l-.7,1a64.2,64.2,0,0,0-6.3,1.5v-.3l.6-.9L42.7,27A24.3,24.3,0,0,1,40,32.9ZM21.8,8.5c-1.4-3.7.3-6.5,4-5.1A20.3,20.3,0,0,1,37.2,15.8,25.6,25.6,0,0,1,21.8,8.5Zm-2.7,99.4-.6.4-.6.3-.5-.4c-.7-.8-1.5-1.6-2.2-2.5l-2.5-3.3-.8-1.3a40.7,40.7,0,0,1-6-21.3,41.5,41.5,0,0,1,1.2-10l.7-.4h.3l1.1.2-1.4.9a.7.7,0,1,0,.7,1.1L11,70l1.1.2L9.7,71.7a.7.7,0,0,0,.4,1.2h2.8l-.8.8H9.2a.7.7,0,0,0-.7.7.7.7,0,0,0,.7.6h1.6l-.8.8H8.3a.7.7,0,0,0-.1,1.3h.6L8,78a.6.6,0,0,0,0,.9.6.6,0,0,0,.9,0l.8-.9v.6a.7.7,0,0,0,.7.6.9.9,0,0,0,.6-.7V76.7l.7-.8a8.6,8.6,0,0,1,.1,1.6c0,.4.3.6.7.6a.7.7,0,0,0,.6-.7c0-.9-.1-1.9-.1-2.9l.8-.8c0,.9.1,1.9.1,2.8a.6.6,0,0,0,1.2.3l1.3-2.5c.1.4.3.8.4,1.1l-1.1,2a14.2,14.2,0,0,0-3.3,2.1,12.6,12.6,0,0,0-2.6,3.2,16.3,16.3,0,0,0-1.4,3.4,10.2,10.2,0,0,0-.3,3.4,13.3,13.3,0,0,0,.6,3,5.1,5.1,0,0,0,2.5,2.7,3.3,3.3,0,0,0,3,.3,4.1,4.1,0,0,0,2.2-2.6,4.7,4.7,0,0,0,0-3.3,1,1,0,0,0-.8-.7c-.3-.1-.4,0-.3.2a4,4,0,0,1,0,2.2A2.7,2.7,0,0,1,13.9,93a1.4,1.4,0,0,1-1.4-.1,3.7,3.7,0,0,1-1.1-1.5,8.4,8.4,0,0,1-.6-2.4,10.3,10.3,0,0,1,.2-3,8.6,8.6,0,0,1,.9-3,11.1,11.1,0,0,1,1.9-2.7,8.5,8.5,0,0,1,1.9-1.4.7.7,0,0,0,.8-.3l.2-.3H17l.5-.2a.4.4,0,0,1,.1.3l-.8,1.5c-.2.4-.1.8.2.9a.7.7,0,0,0,.9-.2l.3-.5.3,1.2.2.3c0,.1,0,.2-.1.2a21.6,21.6,0,0,0-.6,6.8c0,1.8,0,3.4-.1,4.8a18.2,18.2,0,0,1-.4,3.1,8.3,8.3,0,0,1-.5,2,7.2,7.2,0,0,1-.7,1.1,2.6,2.6,0,0,1-.9.5h-.5c-.1.1-.2.2-.2.3a1.4,1.4,0,0,0,.2.6,2.4,2.4,0,0,0,1.4,1.4,1.9,1.9,0,0,0,1.9.2l.3-.2v.2l.2.4,2.4,3.8-.3.2-.6.3-.6.4ZM9.9,69a.5.5,0,0,1,.4-.2c.2,0,.3.2.2.4s-.2.3-.3.2S9.9,69.2,9.9,69Zm4.9-.2.2.8-.8-.2L13.3,68Zm-.4-3.7c-.2.1-.4,0-.4-.2s0-.3.2-.4a.5.5,0,0,1,.4.2C14.6,64.9,14.5,65.1,14.4,65.1Zm3.4,4.4h1.6l-1.4.9-.8-.2Zm-.1-1.3c.1-.2.3-.2.5-.1a.4.4,0,0,1-.5.5A.3.3,0,0,1,17.7,68.2Zm1.4,3c-.1.2-.2.3-.4.3s-.3-.3-.2-.4a.3.3,0,0,1,.3-.3A.5.5,0,0,1,19.1,71.2Zm-1.4.4.9,1.4-1.5-.8-.2-.8Zm-.1,4.2.4.2c0,.2-.1.4-.3.4s-.3,0-.4-.2S17.4,75.9,17.6,75.8Zm-.5-2.6-.2.4c-.2,0-.4-.1-.4-.3s0-.3.2-.4S17,73,17.1,73.2Zm-.8-4-.3-.8.8-1.4v1.6Zm.2.9a.7.7,0,0,1-.1.9.8.8,0,0,1-1-.1.7.7,0,0,1,.2-.9A.6.6,0,0,1,16.5,70.1Zm-.6,2.4L15.1,74V72.3l.6-.6ZM15.2,68c-.1.1-.3,0-.4-.2a.5.5,0,0,1,.2-.4l.4.2C15.5,67.8,15.4,68,15.2,68Zm-1.7,1.9c-.1.2-.3.3-.4.2s-.3-.2-.3-.4l.4-.2C13.4,69.5,13.5,69.7,13.5,69.9Zm.4.7.8.2-.6.7H12.5Zm.3,2.2a.3.3,0,0,1-.4,0,.2.2,0,0,1-.1-.4c.2-.2.4-.2.5-.1A.4.4,0,0,1,14.2,72.8ZM12.1,75h-.4a.4.4,0,0,1,0-.5h.4C12.3,74.6,12.3,74.8,12.1,75Zm-2,2.1c-.1.2-.3.2-.5.1a.4.4,0,0,1,0-.5.4.4,0,0,1,.5,0A.3.3,0,0,1,10.1,77.1ZM21.5,98.7l.5.6.3.2.5.3,1.5.8,1.5.7,1.4.8.3.2v.3l.6,2,.2.6-.9-.3-1.2-.4h-.2l.9,2.2h0l-1-.2-1.1-.2L24,106l-3.1-5a.7.7,0,0,0-.5-.4h-.5c-.1,0-.1,0-.1.1s0-.1.1-.2a11.5,11.5,0,0,0,.6-3.4c.1-1.3.1-2.7.1-4.2s-.2-3.1-.2-4.6-.2-2.9-.2-4.2a14.7,14.7,0,0,1,.4-3.2,2.6,2.6,0,0,1,1.2-1.7.2.2,0,0,0,0-.3c-.2-.3-.5-.3-.9-.2l-.3.2h-.2l-1.6-.9v-.2h1.5a4.2,4.2,0,0,1,1.9.6c1.6.9,3,2.7,4.2,5.5a21.4,21.4,0,0,1,1.3,4.8,14.7,14.7,0,0,1,0,4.2,8.1,8.1,0,0,1-1.2,3.3,5.5,5.5,0,0,1-1.7,1.7l-1.2-.7h-.3a1,1,0,0,0-.7.2q-.2,0-.3.3v.3l-.2.4h-.4c-.1,0-.1.1-.1.2S21.5,98.6,21.5,98.7ZM18.8,78.9c0,.2,0,.3-.2.4s-.3,0-.4-.2,0-.4.2-.4S18.7,78.7,18.8,78.9Zm7.1,33.3-.5.6-.4.4H23.6a33.8,33.8,0,0,1-3.6-2.7h.1l.6-.4.6-.4.6-.4.7-.3.6-.4h0l1,.2,1.1.2,1,.3-.5.4-.6.5-.5.4h2.4l-.2.2Zm5.7,4.1-.4.7v.3a24.8,24.8,0,0,1-3.7-1.7l-.6-.3.3-.3.5-.5.5-.6.4-.5.4-.4.3,1.3.2.8.2-.3.4-.6.5-.6.3-.5.5,1.6.4,1.4Zm1.2-11.5h-.1v-.3l-.3-1.6v-.5l-.2.2-.4.6-.5.6-.3.3-.3-1.2-.6-1.8h.1l.3-.7.4-.7.4-.7.7-1.4.4-.6.3-.7h0a.3.3,0,0,0,.1-.2.9.9,0,0,0-.5-1l-.8-.4h-.2a.6.6,0,0,0-.7.1l-.3.3v.2l-.4.7L29,97.3l-.4.7-.4.7-.3.7h-.1l-1.1-.5a9,9,0,0,0,1.8-1.6,9.7,9.7,0,0,0,1.8-3.5,12.3,12.3,0,0,0,.4-4.8,17.7,17.7,0,0,0-1.4-5.6,15.5,15.5,0,0,0-2.1-3.6,8.4,8.4,0,0,0-2.5-2.2,9.6,9.6,0,0,0-2.8-1.1l-1.7-.2L18,75.1l-.3-1.2,2.4,1.4a.7.7,0,0,0,.9-.9L19.5,72l1.1.2c.5.9,1.1,1.7,1.6,2.5s.5.4.9.3a.7.7,0,0,0,.2-.9l-.9-1.4,1.2.2.9,1.6a.7.7,0,1,0,1.1-.7.8.8,0,0,1-.2-.4l1.1.2a.7.7,0,0,0,.8-.4.7.7,0,0,0-.5-.8l-1.2-.3.5-.3a.5.5,0,0,0,.2-.8.7.7,0,0,0-.9-.2l-1.5.9-1.2-.3,1.4-.8a.7.7,0,0,0-.7-1.1L20.9,71l-1.1-.3,2.4-1.4a.6.6,0,0,0-.3-1.2H19a3,3,0,0,0,.8-.8h2.9a.7.7,0,0,0,.7-.6.7.7,0,0,0-.7-.7H21.1l.8-.9h1.8a.7.7,0,0,0,.6-.7.6.6,0,0,0-.6-.6h-.5l.8-.9a.7.7,0,0,0,0-.9.8.8,0,0,0-1,.1l-.8.8v-.5c0-.4-.3-.6-.7-.6a.7.7,0,0,0-.6.7,9.1,9.1,0,0,0,.1,1.7l-.8.9c0-.6-.1-1.1-.1-1.6a.7.7,0,0,0-.7-.7.9.9,0,0,0-.6.7c0,1,.1,2,.1,2.9l-.8.9a25.3,25.3,0,0,0-.1-2.8.6.6,0,0,0-1.2-.3l-1.3,2.4-.3-1.1L16.5,63a.7.7,0,1,0-1.1-.7l-.8,1.5-.3-1.1c.3-.6.6-1.1.8-1.6a.7.7,0,0,0-1.1-.7l-.2.5a4.9,4.9,0,0,0-.4-1.1.6.6,0,0,0-.8-.5.7.7,0,0,0-.4.8l.3,1.2-.4-.3a.7.7,0,0,0-.9.3.8.8,0,0,0,.3.9l1.6.8.3,1.1L12,63.4c-.4-.2-.8-.1-.9.2a.6.6,0,0,0,.3.9l2.5,1.4c.1.4.3.7.4,1.1l-2.5-1.3a.7.7,0,0,0-.9.9L12.4,69l-1.1-.3L9.8,66.2a1.1,1.1,0,0,0-.8-.3H8.9a.6.6,0,0,0-.3.9l.9,1.4L8.4,68H8.3a2.5,2.5,0,0,1-.4-.7V67l.3-.9.4-.8a40.3,40.3,0,0,1,15-19c.6,1.5,1.2,2.9,1.2,3.1s-1.1.9-1.3.9l-1.4-.8.5,1.6-.5.4a2.8,2.8,0,0,0-.9.6H23l.5,1.4c-.2.1-6.7,3.6-7,4,1.3.3,6.2.9,7.8,1,.1.2.1,1.3.2,1.6l-1.6.6c.4.3,1.2.3,1.7.5a15.7,15.7,0,0,1,.3,1.6l.9-1.4,1.5.4c0,.6-.1,1.5-.1,2.1v6.2h0l1.4-1.8h0l.5-.7.7-.8L31,65.2a6.6,6.6,0,0,0,1.2-1.7l1.5.5v1.9a1.5,1.5,0,0,0,.5-.6c.8-.9.8-.7,1.3-.5l.8.2c-.1-.4-.5-.8-.6-1.2a11.3,11.3,0,0,1,1.1-1.1l1.7,1L41,65.2l.9.5,1.7.9c-.6-1.3-1-2.5-1.5-3.8L41.3,61c-.2-.5-.7-1.5-.8-1.9l1-.8L43,59.4l-.3-1.7.8-.5.3-.2c.3-.1.3-.1.4-.3H42.5L42.3,55l2.6-1.6L49.1,51c0-.1-.3-.1-.6-.2l1.4-1.4,1.2.3-1.8,1.8,1.9.6,1.9-1.8,2.6.7-.8.8a1.1,1.1,0,0,0-1.1-.3,1.3,1.3,0,0,0-.9,1.4,1.2,1.2,0,0,0,1.5.9,1.1,1.1,0,0,0,.8-.8l1.1.3-1.9,2-2.5-.7L50.4,56l2.5.7-.9.8-2.5-.6-1.4,1.4,2.5.7-1,.9.3,1,.9.2,1-.9.6,2.5,1.5-1.4-.7-2.5.9-.9.7,2.5L56.2,59l-.6-2.5,1.9-1.9.3,1.1a1.3,1.3,0,0,0-.8.8,1.2,1.2,0,0,0,.9,1.5,1.2,1.2,0,0,0,1.4-.9A1.1,1.1,0,0,0,59,56l.9-.8.7,2.7-1.9,1.8.5,2,1.9-1.9.3,1.3-1.9,1.8.5,1.9L61.9,63l.3,1.3,1,.3.7-.7-.3-1.3,2.4.7-.5-2-2.4-.7-.3-1.2,2.4.7-.5-1.9-2.5-.7-.6-2.7,1.1.3a1.1,1.1,0,0,0,.3,1.1,1,1,0,0,0,1.6,0,1.2,1.2,0,0,0,.1-1.7,1.3,1.3,0,0,0-1.2-.3l-.2-1.1,2.6.7.7,2.6,1.9.5-.6-2.5,1.2.3.6,2.6,2,.5L71,55.3l1.3.3.7-.7-.2-1-1.3-.3,1.9-1.8-2-.6-1.8,1.9-1.3-.4,1.9-1.8-1.9-.5-1.9,1.8-2.7-.8.8-.8a1.3,1.3,0,0,0,1.2.3,1.1,1.1,0,0,0,.8-1.4,1.1,1.1,0,0,0-1.4-.9,1.4,1.4,0,0,0-.9.8l-1.1-.3,2-1.9,2.5.7,1.3-1.3h.2l-.6-.2-2-.5.5-.5.2-.2,1.5.9.4.3A40.1,40.1,0,0,1,84.5,66a9,9,0,0,1-.4,1.9,6.2,6.2,0,0,1-1,2l-1,1.1-.9.5a.9.9,0,0,1-1.1-.1,3.6,3.6,0,0,1-.8-1.2l-.3-1a9.4,9.4,0,0,0,2-1.6,6.7,6.7,0,0,0,1.6-2.4,3.2,3.2,0,0,0,0-2.7,1.7,1.7,0,0,0-1.1-1.2,3.1,3.1,0,0,0-1.8.3,3.9,3.9,0,0,0-2.2,2.2,8.8,8.8,0,0,0-1,3.6,14.8,14.8,0,0,0,.1,2.1,15.5,15.5,0,0,1-.5,2.9,2.2,2.2,0,0,1-.9,1.5c-.2.1-.4,0-.5-.4a9.3,9.3,0,0,1-.5-3.1c0-1.5-.1-5.9-.2-13.1h-.2l-1.9.9c-.1,0-.1.1-.1.3,0,6.7.1,10.8.1,12.5a20.2,20.2,0,0,1-.6,3.7c-.2.8-.5,1.3-.9,1.4s-.4,0-.5-.3a9.9,9.9,0,0,1-.5-3.1c0-1.5-.1-5.9-.2-13.1H69l-1.9.8a.4.4,0,0,0-.1.3c0,7,.1,11.2.2,12.7a18.3,18.3,0,0,1-.6,2.5,5.6,5.6,0,0,1-1,1.9,3.6,3.6,0,0,1-1,1.1l-.8.6a1.1,1.1,0,0,1-1.1-.1,3.8,3.8,0,0,1-.9-1.2l-.3-1a9.8,9.8,0,0,0,2.1-1.6,7,7,0,0,0,1.5-2.5,3.6,3.6,0,0,0,.1-2.7A1.8,1.8,0,0,0,64,68.9a2.4,2.4,0,0,0-1.8.2A4.9,4.9,0,0,0,60,71.4a7.3,7.3,0,0,0-.9,3.5,7.9,7.9,0,0,0,.1,2.2A15.5,15.5,0,0,1,57,83.7V71.9h-.1l-1.9.8c-.1.1-.2.1-.2.3v5.1A17.8,17.8,0,0,1,54,82c-.3,1-.6,1.6-.9,1.7a.4.4,0,0,1-.6-.3,8.8,8.8,0,0,1-.4-2.3c-.1-1-.1-3.3-.2-6.9h-.2l-1.9.9c-.1,0-.1.1-.1.2,0,2.3,0,4.1.1,5.3v.5a13.3,13.3,0,0,1-.6,3c-.3,1.2-.7,1.8-1,1.9s-.4,0-.5-.3a11.6,11.6,0,0,1-.3-1.6v-4a8,8,0,0,0-.4-1.8,1.7,1.7,0,0,0-1-1,1.4,1.4,0,0,0-1.5,0l-.8.3-.6.7a4.1,4.1,0,0,0-.7,1.1v-.8c0-.1,0-.2-.1-.2s-.1-.1-.1,0l-1.9.8c-.1,0-.2.1-.2.3v5.4a10.1,10.1,0,0,1-.5,2.5,7.5,7.5,0,0,1-1,2l-1,1a2.4,2.4,0,0,1-.9.6.9.9,0,0,1-1-.1,2.7,2.7,0,0,1-.9-1.2l-.3-1a9.8,9.8,0,0,0,2.1-1.6,7,7,0,0,0,1.5-2.5,3.6,3.6,0,0,0,.1-2.7A1.8,1.8,0,0,0,37,80.6a3,3,0,0,0-1.8.2A4.9,4.9,0,0,0,33,83.1a8.8,8.8,0,0,0-1,3.6,7.4,7.4,0,0,0,.6,3.4,4.5,4.5,0,0,0,1.8,2.4,2.5,2.5,0,0,0,2.5.2l1-.5.9-.8a7.1,7.1,0,0,0,1-1.4l.4-.8v1.5c0,.1,0,.2.1.2h.1l1.9-.8c.1,0,.2-.1.2-.3V82.7a8.8,8.8,0,0,1,.7-2.8c.3-.7.6-1.2.9-1.3s.9,1,1,3.5.1,2.3.1,2.8a7.4,7.4,0,0,0,.4,1.4,2.4,2.4,0,0,0,1.1,1.3,1.2,1.2,0,0,0,1.3.1l1-.6a4.9,4.9,0,0,0,.8-1,7.3,7.3,0,0,0,.7-2.1h0a2.8,2.8,0,0,0,1.1,1.3,1.6,1.6,0,0,0,1.5.1,3.6,3.6,0,0,0,1.7-2.2v2.9l-1,.8-1.5,1.1-1.1.9a4.6,4.6,0,0,0-.7,1,2.9,2.9,0,0,0-.2.9,1.5,1.5,0,0,0,.2,1.1,2.9,2.9,0,0,0,1.4,1.5,3,3,0,0,0,2.1-.1l1.2-.7a4.1,4.1,0,0,0,.9-1.2,5.2,5.2,0,0,0,.6-2,15.8,15.8,0,0,0,.3-3.4A11,11,0,0,0,59,82.8L56.4,98.3l-8.5-4.5,4.8,8.8-8.6,3.5-.3-.2h-.4l-.3.2-.3.2-1.2.7-.6.4-.6.4-.6.4-.6.3-.6.4-.5.3h-.3l-1.1-.2-1-.3h-.5l.2-.2.5-.5.6-.5.5-.4H35l.4-.5.5-.6.5-.5.5-.5h6a1.2,1.2,0,0,0,.5-.5h0v-1.1h0a1.1,1.1,0,0,0-.7-.8H37.5V96.7h0a.8.8,0,0,0-.5-.7H35.1a1.3,1.3,0,0,0-.5.6h0v6.1h0l-.5.5-.5.5-.5.6Zm-11.4-33c0-.2.2-.3.4-.3a.5.5,0,0,1,.2.4c0,.2-.2.3-.4.2S21.3,71.9,21.4,71.8Zm2.9.7c0-.2.2-.3.4-.3s.3.2.2.4-.2.3-.4.2S24.3,72.6,24.3,72.5ZM19.8,66h.4c.1.1.2.3,0,.4s-.3.2-.4,0A.3.3,0,0,1,19.8,66Zm2-2.2h.5a.3.3,0,0,1,0,.4c-.1.2-.3.2-.5,0A.3.3,0,0,1,21.8,63.8Zm-8.1-1.9c.1.1,0,.3-.2.4l-.4-.2c0-.2.1-.4.2-.4S13.7,61.7,13.7,61.9ZM61.4,75.6a13.5,13.5,0,0,1,.2-3.5c.3-1.1.7-1.8,1.2-2h.3c.3.2.4.7.4,1.6A6.3,6.3,0,0,1,61.4,75.6ZM54,110.3l4.2-2.2-1.5,4.3-5.4,3.2ZM51.4,97.1l5.1,2.7,1.7,4.3-4.1-1.5Zm2.7,11.3,1.1-2-.8-2,3.9,2Zm3.8-8.9,2.3.9,1.9-1-2,4.7Zm2.4-.1L58.1,97l2-10.4L62.2,97Zm-26-12.1a10.2,10.2,0,0,1,.3-3.5c.3-1.1.7-1.8,1.2-2h.3c.3.2.4.7.3,1.6A5.1,5.1,0,0,1,34.3,87.3Zm20.3.9q-.3,3-1.8,3.6a.4.4,0,0,1-.5,0l-.4-.4a1,1,0,0,1,.2-1l2.2-1.9C54.5,88.4,54.5,88.3,54.6,88.2Zm-1,18.1-2.2,1.4-4.5-1.3,4.7-1.9Zm3.6,12.6a31.5,31.5,0,0,1-5.5,1.1l-2.9.3H46.4a38.5,38.5,0,0,1-6.9-.6h0l.2-.4a.3.3,0,0,0,.1-.2v-.2a1,1,0,0,0-.5-.8h-.2l-1.5-.8-1.4-.8-1.5-.8h-.3v-.3l-.6-2.1-.2-.6.8.3,1.2.4h.1l-.9-2H35l1,.2,1.1.2.7.2,2.9,4.6h0l.2.2.4.2H42l.5-.3.3-.2c.1-.1.2-.2.2-.3l.2-.3a1.1,1.1,0,0,0-.2-.7l-.9-1.4L40.4,111l.4-.3.6-.3.6-.4.6-.4.6-.4.6-.4.6-.3h.2a.9.9,0,0,0,.3-.5.1.1,0,0,1,.1-.1,1,1,0,0,0-.2-.7h0l7.9,2.8-3.9,7.4-1.1,2.1,4-2.4,5-3,.5,1.9.9,2.7Zm3.4-1.1-1.2.4-.9-2.6h0l1.3-2.3,1.3,1.4.5.6Zm-.6-6.1-1.9.8,2.1-3.8,1.8,3.9Zm4.4,4.5-2.2.9,1.1-2.9,2.4,1.3Zm2.8-1.6-2.8-1.4-.8-.5-1.7-4.4,4.6,2,.6,1.4,1,2.3ZM66,104l-.5,2.1.5,2.2-3.7-2Zm-3.7.1,1.3-4.3,5.3-3.4-2.6,5.7Zm4.4,1.8,2-1.4,4.1,1.3-3.9,1.7Zm8.8,2.1-1.6,1.6a39.2,39.2,0,0,1-4.6,3.7L68.2,111l-.7-1.6,6.4-2.8,2.8-1.2-1.2-.4-7.9-2.7,4.6-9.9L64,97.9,59.9,79.3H60a4.4,4.4,0,0,0,1.4,1.6,2.5,2.5,0,0,0,2.5.2l1-.5.9-.8a4.5,4.5,0,0,0,1-1.4,11.7,11.7,0,0,0,.8-2.1h0v.2a3.6,3.6,0,0,0,1.2,1.5,1.6,1.6,0,0,0,1.5.1l.9-.5a2.6,2.6,0,0,0,.7-1,7.2,7.2,0,0,0,.5-2h0a3.7,3.7,0,0,0,1.2,1.3,1.6,1.6,0,0,0,1.5.1l.6-.3,4.3,4.8-3.7,5.9,6.5-2.9,3.4,3.8A40.5,40.5,0,0,1,75.5,108Z"/></svg>