<?xml version="1.0" encoding="utf-8"?>
<!-- Generator: Adobe Illustrator 24.0.0, SVG Export Plug-In . SVG Version: 6.00 Build 0)  -->
<svg version="1.1" id="Layer_1" xmlns="http://www.w3.org/2000/svg" xmlns:xlink="http://www.w3.org/1999/xlink" x="0px" y="0px"
	 viewBox="0 0 92.8 126.2" style="enable-background:new 0 0 92.8 126.2;" xml:space="preserve">
<style type="text/css">
	.st0{fill:none;stroke:#000000;stroke-width:0.2835;stroke-miterlimit:10;}
</style>
<title>Garrett</title>
<path class="st0" d="M72.5,41.6l0.8-0.3c2.5-1.1,4.7-2.6,6.6-4.5c4.2-5.2-0.8-10.8-0.8-16.2c0-5.4,2.4-9.5,0.4-14.1
	c-2-4.6-4.1-4.4-7.5-4.6c-2.8-0.1-5.5,0.7-7.9,2.1c-2,1.4-12.3,11.7-12.4,11.7c-0.2-0.6-0.5-1.2-1-1.6c-0.5-0.3-1-0.5-1.6-0.5h-3
	c-0.4,0-0.9,0.1-1.3,0.3c-0.6,0.4-1.1,1-1.1,1.3c-3.3-4.4-7.2-9.1-11.5-12.4c-2.3-1.6-4.9-2.5-7.7-2.7c-3.3,0-6.3,1.1-7.7,4.1
	c-1.4,3-0.3,9.5-0.7,14c-0.4,4.5-5.8,10.7-1.9,16.1c2,2.7,4.6,4.7,7.7,5.9h0.4C0.5,53.5-6.4,82,7,103.9
	c8.4,13.7,23.3,22.1,39.5,22.1c8.3,0,16.4-2.2,23.5-6.4l0.3-0.2c1.9-1.1,3.6-2.3,5.3-3.7l0.9-0.8c0.9-0.7,1.7-1.5,2.5-2.3l1.8-1.8
	l0.5-0.6l1.1-1.2l0.3-0.5l0.8-0.9c0.2-0.4,0.4-0.7,0.7-1l1-1.6c0,0,0,0,0,0c0.1-0.1,0.2-0.2,0.3-0.4c0,0,0,0,0,0
	c0.1-0.1,0.2-0.3,0.2-0.5C98.7,83.1,92.9,55.5,72.5,41.6z M86.9,77.5l-1.7,1.1l-0.7-0.7c-0.1-0.1-0.2-0.1-0.3,0c0,0,0,0,0,0
	l-0.8,0.6h-0.1l0.7,0.6l-3.4,2.3c-0.9,0.4-1.8,0.8-2.8,0.9c-0.9,0.2-1.4,0.1-1.7-0.2c-0.3-0.3-0.2-0.3,0-0.6c0.4-0.5,0.8-1,1.3-1.4
	l4.5-2.9l1,0.9c0,0.1,0,0.1,0.1,0.1c0.1,0,0.1,0,0.1-0.1l0.9-0.6l-0.9-0.9l3.5-2.3L86.9,77.5z M70.6,5.1c3.7-1.2,5.2,1.7,3.5,5.3
	c-4.4,3.8-10,6-15.8,6.2C60.5,11.1,65,6.9,70.6,5.1z M61.1,35.3V36c-2-0.7-4-1.2-6.1-1.6c-0.2-0.5-0.5-0.9-0.8-1.4v-0.2
	c-1-1.8-1.7-3.6-2.1-5.6L61.1,35.3z M46.1,17.4c0.5-0.4,1-0.6,1.6-0.6c0.6,0.1,1.1,0.3,1.5,0.7c0.4,0.4,0.6,1,0.6,1.6
	c0,0.6-0.2,1.2-0.7,1.6c-0.4,0.4-1,0.6-1.6,0.5c-0.6,0-1.1-0.3-1.5-0.7c-0.4-0.4-0.6-0.9-0.6-1.5C45.4,18.4,45.7,17.8,46.1,17.4z
	 M46.4,39.3h0.2c0.3,1.2,0.7,2.3,1.3,3.3c-1.9,0.9-3.6,2.2-4.8,3.9c-0.9,1.3-1.5,2.8-1.6,4.3c-0.1,1.2,0.4,2.4,1.3,3.2
	c1.1,0.9,2.5,1.2,3.9,0.8l-3,1.5c-0.7,0.4-1.4,0.6-2.2,0.8c-0.5,0.1-1,0.2-1.5,0.1c-0.3,0-0.7-0.1-1-0.2l-0.7-0.5
	c-0.1,0-0.1-0.2-0.1-0.3c-0.1-0.1-0.1-0.1-0.1-0.2c-0.1-0.1-0.2-0.1-0.3,0c0,0,0,0,0,0l-0.2,0.2l-1-1l-1.4-1l-1.6-0.8l-1.7-0.5
	l-0.2-0.8l-3.1-6.4L28,45l-0.8-0.5h-0.6C32.6,41.1,39.5,39.3,46.4,39.3z M43.7,101.5l-0.2-1.8v-0.3h0.8l1.6,0.9l1,0.2H48l1-0.3
	l1-0.4l1.5-0.8l0.3-0.2h0.1v0.5l-0.3,2.6l-0.4,1.5l-0.8,1.6l-1,1.6l-1.2,1.5l-1.2,1.3l-1.2,1.1l-1,0.7l-0.7,0.2l-0.2-0.3v-7.6
	L43.7,101.5z M51.5,94.7l-0.1,1L51,96.8l-0.6,1l-0.7,0.6L49,98.9l-0.8,0.2h-1.5l-0.8-0.2l-1.4-0.8l-1.1-1L43,96.6L42.7,96v-1.1
	l0.3-0.8l0.4-0.7l0.4-0.5l0.5-0.3l0.4-0.2h0.5l0.8,0.2l0.6,0.6l0.3,0.7v0.4l-0.2,0.3l-0.3,0.3l-0.5,0.3l-0.3,0.3v0.2l0.3,0.3
	l0.4,0.2l0.5,0.2h0.6l0.6-0.2l0.6-0.4l0.6-0.7l0.3-0.6l0.2-0.7v-0.5l-0.2-0.6l-0.3-0.5l-1-0.7L47,91l-1.3-0.2L44.6,91l-0.5,0.2
	l-0.4,0.3l-0.6,0.8L42.4,93l-0.7,0.4H41l-0.9-0.6L39,91.7l-1.2-2l-1.4-3l1.6-1l1.4-0.6l0.9-0.3l1,0.3l1.6,0.8L45,87l2.1,1.4l2,1.6
	l0.8,0.9l0.7,0.9l0.6,1l0.3,1V94.7z M30.7,83.6v0.8l-0.3,0.2l-0.6,0.2h-2l-1.2-0.2l-1-0.4l-1-0.7L24.3,83L24,82.4l1.3,0.3h1.1
	l0.9-0.2l0.9-0.4l1-0.7l1.2-1l0.2,0.4v2.5L30.7,83.6z M30.4,75.2h-2.5l-1.3-0.3h-1.2L25,75l-0.4,0.3l-0.7,1.3v1l0.3,0.8l0.5,0.5
	l0.7,0.2H26l0.5-0.2l0.2-0.4l-0.3-0.3l-0.7-0.8l-0.2-0.5v-0.5l0.3-0.4l0.7-0.4l0.7-0.3h0.7l0.6,0.2l0.5,0.4l0.4,0.5l0.3,0.6v2
	l-0.2,0.6l-0.4,0.6l-0.5,0.5l-0.7,0.4l-0.8,0.3H25l-1.2-0.5L22.6,80l-0.5-0.5l-0.4-0.7l-0.3-0.6v-1.5l0.3-0.8l0.5-0.8l0.7-0.8
	l1.1-0.8l1.4-0.8L27,72l2.1-0.8l1.4,1.2l0.5,0.7l0.2,0.7v0.6l-0.3,0.5L30.4,75.2z M29.3,59.2L29.3,59.2l-1.7,1.4h-0.7l-0.4-0.5v-0.3
	l0.2-0.3l1.5-1.4l0.4-0.2l0.3,0.2l0.4,0.4V59.2z M30.3,60.7l0.4,0.3l0.2,0.4v1l-0.3,0.4l-0.4,0.3h-1l-0.4-0.3l-0.3-0.4v-1l0.3-0.4
	l0.4-0.3H30.3z M30.8,68.9h-0.6l-0.5-0.2l-0.6-0.5l-0.6-0.8L28,66.5h0.3l0.7,0.4l1.2,0.6l1.3,0.4h1.3l0.8-0.3l0.5-0.2l-0.4,0.4
	L33,68.2l-0.8,0.4L30.8,68.9z M31.5,81l0.1-0.9l0.4-0.6l0.7-0.5h0.9l0.8,0.2l0.7,0.4l0.4,0.7l0.2,0.9L35.5,82L35,82.7l-0.7,0.4
	l-0.8,0.2l-0.9-0.2L32,82.6l-0.5-0.7V81z M33.8,91.1l0.5-0.7L35,90l0.8-0.2l0.9,0.2l0.6,0.5l0.5,0.7v1.7l-0.5,0.7L36.6,94h-1.7
	l-0.7-0.5l-0.4-0.7l-0.2-0.9L33.8,91.1z M34.4,107.5l0.5-0.7l0.7-0.4l0.8-0.2l0.9,0.2l0.7,0.5l0.4,0.7v1.6l-0.5,0.7l-0.7,0.5h-0.9
	l-0.8-0.2l-0.7-0.5l-0.4-0.6l-0.2-0.9L34.4,107.5z M38.3,101.7l-0.7,0.5h-1.7l-0.7-0.5l-0.4-0.7l-0.2-0.9l0.2-0.8l0.5-0.7l0.7-0.4
	l0.8-0.2l0.9,0.2l0.6,0.5l0.5,0.7v1.7L38.3,101.7z M41.7,79l-0.3,1.1l-0.2,0.5L40.8,81l-1.1,1l-1.1,0.7l-0.7,0.2v-3.7L37.6,78
	l-0.4-1.2l-0.5-1.2l-1.3-2.2l-1.1-1.7l0.3-0.2H35l1,0.2l1,0.5l1.1,0.6l1.9,1.5l1.3,1.2l0.2,0.4l0.2,0.6V79z M35.3,65.3l-2.8,1.5
	l-1-0.3l-0.6-0.4l-0.3-0.5v-0.5l0.3-0.9l0.3-0.4l6.9-1h0.5v0.3l-0.2,0.2L35.3,65.3z M33.1,60.1h1l0.4,0.2l0.3,0.5v1l-0.3,0.4
	l-0.4,0.3h-0.5l-0.5-0.2l-0.4-0.2l-0.3-0.5v-1l0.3-0.4L33.1,60.1z M32.8,58.6v-0.3l0.2-0.6l0.3-0.2h0.4l1.9,1l0.2,0.2v0.4l-0.3,0.5
	l-0.3,0.3h-0.3l-1.9-1L32.8,58.6z M40,32.9c-0.1,0-0.1,0.1-0.1,0.1h-0.1l-0.7,1c-2.1,0.4-4.2,0.9-6.3,1.5v-0.3l0.5-0.9l9.4-7.3
	C42.1,29.1,41.2,31.1,40,32.9z M21.8,8.5c-1.4-3.7,0.3-6.5,4-5.1c5.4,2.3,9.6,6.8,11.4,12.4C31.4,15.2,26,12.6,21.8,8.5z M21.3,49.2
	l0.9-1l1-0.8l0.9-0.5h0.4l0.4,0.2L26,48l2.3,2.5l1.8,1.9l-2.3,0.7L26,53.8l-1.1,0.5L23.8,55l-0.6,0.2L22,52.8L21.2,51l-0.3-1.1
	L21.3,49.2z M13.6,93.6L13,95.8l-0.2,2.4v1.8l0.2,1.8l0.4,1.6c0,0.1,0.1,0.2,0.2,0.2h-0.1l-0.1-0.2c-11.8-16.4-9.7-39,4.9-53h0.1
	l3,6.2L20.7,58l-0.6,1.4l-0.4,1.4v2.8l0.2,1.3l0.4,1.3l0.6,1.1l0.7,1.1l0.9,0.9l1,0.9l1.1,0.7l-1.3,0.5l-1.2,0.7L21,72.8l-0.9,0.8
	l-0.8,0.8l-0.5,0.9l-0.4,1v1l-0.7-0.6l-0.8-0.5L16,75.9h-1.9l-0.9,0.3l-0.8,0.4l-1.2,1.2l-0.4,0.8l-0.3,0.9v1.8l0.3,0.9l0.4,0.8
	l0.5,0.6l0.7,0.6l0.8,0.5l0.8,0.2h1.8l0.9-0.3l0.7-0.4l0.7-0.5l0.6-0.6l0.4-0.8l0.3-0.8l0.2-0.9l1.3,1.4l1.8,1.2l-2.1,1.3l-1.9,1.4
	L17,87.6l-1.4,1.9l-1.2,2L13.6,93.6z M17.6,80.4l-0.3,1.2l-0.6,0.9l-0.9,0.6l-0.5,0.2h-1.7l-0.9-0.7l-0.5-1L12,81.1v-0.6l0.2-1.2
	l0.6-0.9l0.9-0.6l0.6-0.2h1.1l0.5,0.2l0.9,0.7l0.6,0.9v1.2L17.6,80.4z M24.2,110l-0.2,0.2h-0.8l-0.7-0.4l-0.4-0.7l-0.2-0.7l0.2-0.6
	l0.5-0.4l0.7-0.3l0.3-0.4v-0.4l-0.3-0.3l-0.4-0.3h-1.2l-0.6,0.2l-0.4,0.4l-0.3,0.5l-0.5,1.1l-0.4,1l-0.2,0.2h-0.2l-0.6-0.2l-0.6-0.6
	l-0.5-0.9l-0.6-1.3l-0.5-1.4l-0.4-1.6l-0.3-1.7l-0.2-1.7v-1.9l0.2-1.7l0.3-1.5l0.7-1.4l0.8-1.1l1.2-0.8l0.7-0.3h2.6l1.8,0.4l1.5,0.5
	l1.1,0.8l0.8,0.9l0.5,1.1l0.3,1.1v1.1L27.7,98l-0.4,0.9l-0.6,0.9l-0.8,0.7L25,101l-1,0.2l-1.1-0.2l-1.1-0.4l-1.3-0.9L20,99.1
	l-0.4-0.6l-0.2-0.6V96l0.4-0.8l0.6-0.6h1.1l0.4,0.3l0.3,0.5l0.2,0.6l0.3,0.8l0.3,0.5l0.3,0.3h0.9l0.6-0.7l0.2-1v-1l-0.2-0.5L24.5,94
	l-0.4-0.4l-0.6-0.2l-1.1-0.2h-2.8l-0.7,0.3L18.3,94l-0.5,0.5l-0.3,0.6l-0.2,0.6v1.5l0.3,0.8l0.4,0.8l0.7,0.8l0.8,0.8l1,0.9l1.8,1.1
	l1.2,0.8l1.1,0.9l1,1l0.6,1.2v1.1l-0.2,0.7l-0.3,0.6l-0.5,0.6l-0.5,0.4L24.2,110z M25.6,113.5l-0.5-0.2h-0.3v-0.5l0.7-0.5l0.8-0.5
	l0.9-0.5l0.5-0.6l0.8-2.1V107l-0.4-0.9l-0.5-0.8l-1.9-2.3v-0.2l0.4-0.4l1.5-1.1l0.9-0.7l0.8-0.8l0.7-0.9l0.4-1.1v-3.4l-0.8-1.6
	l-1.1-1.3l-1.5-1l-1.8-0.8L23,89.4h-2.5l2.1-1.4l1.1-1.1l0.6-0.8l0.2-0.4h0.1l0.4,0.2l0.8,0.4l1.7,0.6h2.3l0.7,0.6l0.7,1l0.7,1.6
	l0.7,2.5l0.4,2.2l0.3,2.1v3.5l-0.2,3.1l-0.5,2.5l-0.6,2.3l-0.7,2l-0.5,1.9l-0.3,1.9l-3.2-0.2L25.6,113.5z M69.2,113.3l-3,1.9v-0.8
	l3-1.9V113.3z M69.2,111.1l-1.4,0.9c0-0.5,0.1-1.1,0.2-1.6l1.2-0.7V111.1z M69.2,108.4l-1.8,1l-1.5-0.7c-0.3-0.2-0.6,0-0.8,0.3
	c-0.1,0.3,0,0.5,0.2,0.7c0,0,0,0,0.1,0l0.7,0.4l-0.8,0.4c-0.3,0.2-0.4,0.5-0.2,0.8c0.2,0.3,0.5,0.4,0.8,0.3l0.8-0.5
	c0,0.3,0,0.5-0.1,0.8c0,0.3,0.2,0.5,0.4,0.6l-1.4,0.9l-1.5-0.6c-0.3-0.1-0.7,0-0.8,0.3c0,0.1,0,0.1,0,0.2c0,0.2,0.1,0.5,0.3,0.6
	l0.8,0.3l-1.1,0.6c-0.3,0.2-0.4,0.6-0.2,0.9c0.2,0.2,0.6,0.3,0.8,0.1l1.1-0.7c0,0.3,0,0.5-0.1,0.8c-5.7,2.9-12.1,4.5-18.5,4.5
	c-6.5,0-12.9-1.6-18.6-4.6l1.4,0.4l2.1,0.3h4.2l2.1-0.3l2-0.4l2-0.5l1.8-0.8l1.8-0.8l1.6-1l1.5-1.2l1.4-1.2l1.2-1.4l1.1-1.5l0.9-1.5
	l0.8-1.7l0.3-1l0.7,0.4l-0.7,0.3c-0.3,0.2-0.4,0.5-0.3,0.8c0.1,0.3,0.5,0.4,0.8,0.3c0,0,0,0,0,0l1.5-0.7l3.1,1.6l-1.2,0.7l-2.2-1.2
	c-0.3-0.1-0.6,0-0.8,0.3c-0.1,0.3,0,0.5,0.2,0.7c0,0,0,0,0.1,0l1.5,0.9l-1.1,0.6l-1.3-0.5c-0.3-0.2-0.6,0-0.8,0.3
	c-0.1,0.3,0.1,0.7,0.4,0.8h0.4l-1,0.6c-0.3,0.1-0.5,0.4-0.4,0.8c0.1,0.3,0.4,0.5,0.8,0.4c0.1,0,0.2-0.1,0.2-0.2l1-0.6
	c0,0.2,0,0.3-0.1,0.5c-0.1,0.3,0.2,0.6,0.5,0.7c0.3,0.1,0.6-0.2,0.7-0.5c0.1-0.5,0.1-1,0.2-1.4l1.1-0.6c0,0.5-0.1,1.1-0.1,1.7
	c0,0.3,0.3,0.6,0.6,0.6s0.6-0.3,0.6-0.6c0-0.8,0-1.6,0.1-2.4l1.1-0.7c0,1.2-0.1,2.3-0.1,3.5l-1.4,0.9c-0.2,0.2-0.3,0.5-0.1,0.8
	c0.1,0.3,0.4,0.4,0.6,0.3c0.1,0,0.1-0.1,0.2-0.1l0.7-0.5c-0.1,0.4-0.1,0.9-0.1,1.3c-0.1,0.3,0.1,0.5,0.4,0.6c0.1,0,0.2,0,0.2,0
	c0.3,0.1,0.5-0.1,0.6-0.4c0,0,0-0.1,0-0.1V112l0.6,0.5c0.3,0.2,0.7,0.1,0.9-0.1c0.2-0.3,0.1-0.6-0.1-0.8l-1.3-1.1v-1.6
	c0.2,0.2,0.6,0.2,0.8,0l0.6-0.5v1c0,0.3,0.3,0.6,0.6,0.6c0.3-0.1,0.6-0.3,0.6-0.6v-1l0.6,0.5c0.2,0.2,0.5,0.2,0.7,0
	c0,0,0.1-0.1,0.1-0.2c0.2-0.2,0.2-0.5,0-0.7c0,0-0.1-0.1-0.1-0.1l-1.3-0.9c-0.1-0.7-0.1-1.4-0.1-2.1l1.6-0.9l0.6,3.3
	c0,0.2,0.1,0.4,0.3,0.5c0.1,0,0.2,0,0.3-0.1l3.2-1.2V108.4z M54.9,95.2c0.1,0.3,0.4,0.4,0.6,0.3c0.1,0,0.1-0.1,0.2-0.1l2.2-1.1
	l1.2,0.7L56,96.6l-1.5-0.7h-0.1v-1L54,93.6v-0.2c0.1,0.2,0.3,0.2,0.5,0.1l1.3-0.5l1.1,0.6l-1.5,0.8C55,94.5,54.8,94.8,54.9,95.2z
	 M65.6,100.7l1.1,0.9l-1.4,0.8l-2.2-1.9l2.2-1.9l1.4,0.8l-1.1,0.8C65.5,100.3,65.5,100.6,65.6,100.7z M61.6,100.1
	c-0.2,0.2-0.2,0.6,0,0.8l2.6,2.1l-1.6,0.9l-1.7-1c-0.1-0.6-0.1-1.1-0.2-1.7c0-0.3-0.3-0.5-0.6-0.5c-0.3,0-0.5,0.2-0.5,0.5
	c0,0,0,0.1,0,0.1v0.8l-0.8-0.4c-0.3-0.2-0.6-0.1-0.8,0.2c-0.1,0.3,0,0.6,0.2,0.8l0.9,0.4l-0.8,0.4c-0.2,0.1-0.4,0.4-0.3,0.6
	l-1.5-0.8c-0.1-0.5-0.1-1.1-0.2-1.6c-0.1-0.3-0.4-0.5-0.7-0.5c-0.3,0.1-0.5,0.4-0.5,0.7c0.1,0.3,0.1,0.5,0.1,0.8l-0.9-0.5l0.2-1.4
	l0.2-1.8v-0.4l0.5-0.3c0,0.3,0,0.5-0.1,0.8c-0.1,0.3,0.2,0.7,0.5,0.7c0.3,0.1,0.6-0.2,0.7-0.5c0.1-0.6,0.1-1.1,0.2-1.7l1.5-0.7
	c-0.1,0.2,0.1,0.5,0.3,0.6l0.8,0.3l-0.9,0.5c-0.2,0.2-0.3,0.5-0.2,0.8c0.2,0.3,0.5,0.4,0.8,0.2l0.8-0.5v0.8c-0.2,0.3,0,0.7,0.3,0.8
	c0.3,0.2,0.7,0,0.8-0.3c0.1-0.1,0.1-0.3,0-0.5c0.1-0.5,0.1-1.1,0.2-1.6l1.7-1.1l1.6,1L61.6,100.1z M60.8,106.3l1.3-0.7v1.4l-1.3,1
	V106.3z M60.2,105.3l-1.4-0.8l1.5-0.6l1.2,0.7L60.2,105.3z M62.1,95.4l-1.3-0.8V93l1.3,1V95.4z M61.5,96.4l-1.2,0.7l-1.5-0.7
	l1.4-0.7L61.5,96.4z M69.2,105.3l-2.8,1c-0.2-1-0.3-2-0.5-2.9l1.3-0.8l0.3,1.4c0,0.2,0.2,0.3,0.4,0.2l1.3-0.5V105.3z M66.8,100.5
	l0.7-0.6l1.1,0.6l-1.1,0.6L66.8,100.5z M69.2,102.7l-0.9,0.3l-0.2-0.9l1.1-0.6V102.7z M69.2,99.5l-1.1-0.6l0.2-1l0.9,0.4V99.5z
	 M69.2,97.2l-1.3-0.4c-0.2-0.1-0.4,0-0.4,0.2l-0.3,1.4c-0.4-0.3-0.8-0.6-1.3-0.8c0.2-1,0.3-2,0.5-2.9l2.8,1V97.2z M69.9,81.2
	c-0.3,0-0.6,0.3-0.6,0.6V83l-0.4-0.3c-0.2-0.3-0.6-0.3-0.8-0.2c-0.3,0.2-0.4,0.6-0.2,0.8c0.1,0.1,0.2,0.2,0.3,0.2l1.1,0.9v1.2
	l-1.5-0.9c-0.3-0.2-0.6-0.1-0.8,0.2c-0.2,0.3-0.1,0.6,0.2,0.8l2.1,1.3v1.3l-3-1.8c0-0.6-0.1-1.1-0.1-1.6c0-0.3-0.3-0.6-0.6-0.6
	c-0.3,0-0.6,0.3-0.6,0.6c0.1,0.3,0.1,0.5,0.1,0.8L64,85.1c-0.3-0.1-0.6-0.1-0.8,0.2c-0.2,0.2-0.2,0.5,0,0.7c0,0,0.1,0.1,0.2,0.1
	l1.1,0.7l-0.8,0.3c-0.3,0.1-0.4,0.5-0.3,0.8c0.1,0.3,0.5,0.4,0.8,0.3l1.5-0.6l1.4,0.9c-0.2,0.1-0.4,0.3-0.4,0.6
	c0.1,0.3,0.1,0.5,0.1,0.8L66,89.4c-0.2-0.2-0.5-0.2-0.7,0.1c0,0-0.1,0.1-0.1,0.1c-0.2,0.2-0.2,0.5,0,0.7c0,0,0.1,0.1,0.2,0.1
	l0.8,0.5l-0.7,0.3c-0.3,0.1-0.4,0.5-0.3,0.8c0.1,0.3,0.5,0.4,0.8,0.3l1.5-0.7l1.8,1v1.8L66,93.3c-0.2-0.1-0.4,0-0.5,0.2
	c0,0,0,0.1,0,0.1l-0.6,3.3L63.2,96c0-0.7,0-1.3,0.1-2l1.3-1c0.3-0.1,0.3-0.5,0.1-0.8c-0.2-0.2-0.5-0.3-0.8-0.1l-0.6,0.4v-0.9
	c0-0.3-0.3-0.6-0.6-0.6s-0.6,0.3-0.6,0.6v0.9l-0.6-0.4c-0.2-0.2-0.6-0.2-0.8,0v-1.7l1.3-1c0.2-0.2,0.3-0.5,0.1-0.8
	c-0.2-0.3-0.6-0.3-0.8-0.1c0,0-0.1,0-0.1,0L60.6,89v-1.3c0-0.3-0.3-0.6-0.6-0.6s-0.6,0.3-0.6,0.6c0,0.4,0,0.9,0.1,1.3l-0.7-0.4
	c-0.3-0.2-0.6-0.1-0.8,0.1c-0.2,0.3-0.2,0.7,0.1,0.9l1.4,0.9c0,1.1,0.1,2.3,0.1,3.5l-1.1-0.7c-0.1-0.8-0.1-1.7-0.1-2.5
	c-0.1-0.3-0.3-0.5-0.6-0.5c-0.3,0-0.6,0.3-0.6,0.6c0,0.6,0.1,1.1,0.1,1.7L56.2,92c-0.1-0.5-0.1-1-0.2-1.4c-0.1-0.4-0.4-0.6-0.7-0.5
	c-0.3,0.1-0.5,0.3-0.5,0.7c0.1,0.1,0.1,0.3,0.1,0.4l-1-0.6c-0.3-0.1-0.6,0-0.8,0.3c-0.2,0.3-0.1,0.6,0.2,0.8l1,0.5l-0.4,0.2
	c-0.2,0.1-0.3,0.2-0.4,0.4l-0.7-1.6l-1.4-2.3l-1.9-2.1L47.4,85L45,83.4l-2.7-1.2l1.2-1.2l0.8-1.2l0.7,0.8l0.9,0.6l1,0.4h2l0.8-0.2
	l0.8-0.4l0.7-0.6l0.6-0.6l0.4-0.8l0.3-0.9v-1.8l-0.2-0.9L52,74.9v-0.3L51.4,74l-0.2-0.3l-0.4-0.3L50,72.9h-0.3l-0.6-0.2l-0.9-0.2
	l-1.3,0.2l-1.1,0.5l-1,0.8L44,75.1l-0.6-0.8l-0.7-0.8l-1.8-1.3l-2.3-1.1L36,70.4l1.6-1.5l0.7-0.9l0.6-0.9l0.5-1l0.3-1.1l0.3-1.1
	v-2.7c0.9-0.1,1.8-0.3,2.6-0.7l3.1-1.8l3.3-2.2l3.4-2.2c1-0.7,2-1.2,3.1-1.6c0.1,0,0.1,0,0.1-0.1v-0.2l-1.5-1.3h-0.2
	c-0.9,0.3-1.7,0.7-2.5,1.1c-1.4,0.6-2.8,1-4.3,1.2c-0.9,0.2-1.8-0.1-2.5-0.7c-0.4-0.4-0.6-0.9-0.5-1.5c0.2-0.8,0.5-1.6,1-2.3
	c1.2-1.6,2.7-3,4.5-3.9l1.3,1.3c1,0.9,2,1.6,3.2,2.2c1,0.5,2,0.8,3,0.9c0.9,0.1,1.7,0,2.5-0.3c0.7-0.2,1.3-0.7,1.7-1.3
	c0.4-0.5,0.6-1.1,0.6-1.7c0-0.5-0.1-1.1-0.3-1.6l-0.9-1.1c-1.4-1.3-3.3-2-5.2-2.2c-2.1-0.2-4.2,0.1-6.2,0.9
	c-0.4-0.8-0.6-1.8-0.7-2.7c19,1.1,34.7,15.2,37.8,34l-0.8-0.9h-0.3l-4,2.6l-0.7-0.7c-0.1-0.1-0.2-0.1-0.3,0c0,0,0,0,0,0L79.5,75
	h-0.1c0,0.1,0,0.1,0.1,0.1l0.7,0.6L76.8,78c-0.7,0.3-1.4,0.5-2.1,0.6c-0.6,0.2-1.2,0.2-1.8,0.1c-0.5,0-0.9-0.2-1.3-0.4l-0.8-0.5
	c-0.3-0.3-0.4-0.6-0.4-1c0.1-0.5,0.3-0.9,0.6-1.3l0.6-0.8c0.6,0.5,1.3,0.9,2,1.1c0.8,0.3,1.7,0.4,2.6,0.2c0.8-0.1,1.5-0.5,2-1.2
	c0.4-0.5,0.5-1,0.4-1.6c-0.2-0.6-0.6-1.1-1-1.5c-0.7-0.6-1.6-0.9-2.6-0.9c-1.7,0.1-3.3,0.8-4.6,2l-1.9,0.7L66.8,74h-0.6
	c-0.2-0.2-0.2-0.4,0-0.7s2.2-1.9,5-3.5l0.7-0.6c0.1-0.2,0.2-0.5,0.2-0.7c0.1-0.3,0.1-0.6,0-0.9c0-0.4-0.1-0.6-0.1-0.9
	c-0.1-0.3-0.2-0.6-0.3-0.9c0-0.1,0-0.2-0.1-0.3c0.1-0.1,0.2-0.1,0.2-0.2c0.2-0.2,0.3-0.5,0.3-0.8c0-0.2-0.1-0.5-0.3-0.6
	c-0.2-0.2-0.5-0.3-0.7-0.2c-0.3,0.1-0.6,0.3-0.8,0.6c-0.1,0.3-0.2,0.6-0.1,0.9c-1.5,1-3.2,1.9-4.8,2.7l-2.2,0.9l-1.7,0.5h-0.6
	c-0.2-0.2-0.2-0.4,0-0.7c0.2-0.3,2.2-1.9,5-3.5l0.6-0.6c0.2-0.2,0.3-0.4,0.3-0.7c0.1-0.3,0.1-0.6,0-0.9c0-0.3-0.1-0.6-0.1-0.8
	l-0.3-1c0-0.1,0-0.2-0.1-0.3c0.1,0,0.2-0.1,0.2-0.2c0.2-0.2,0.3-0.5,0.3-0.8c0-0.2-0.1-0.4-0.3-0.6C66.3,59,66,58.9,65.8,59
	c-0.3,0.1-0.6,0.3-0.8,0.6c-0.1,0.3-0.2,0.6-0.1,0.9c-1.5,1-3.1,2-4.8,2.8c-0.9,0.4-1.8,0.8-2.8,1c-0.9,0.2-1.4,0.3-1.6,0.1
	c-0.1-0.2-0.1-0.4,0.1-0.6c0.4-0.6,0.8-1,1.4-1.4c0.7-0.6,2.3-1.6,4.7-3.2c0.1,0,0.1,0,0.1-0.1c0,0,0-0.1,0-0.1l-1.5-1.3h-0.3
	c-0.1,0.2-0.3,0.2-0.3,0.3c0.3-0.8,0.1-1.7-0.6-2.3c-0.5-0.5-1.3-0.8-2-0.8c-0.8-0.1-1.6,0-2.3,0.4c-0.8,0.3-1.5,0.7-2.2,1.2
	c-0.6,0.4-1.2,0.9-1.7,1.5c-0.5,0.6-0.8,1.4-0.8,2.2c-0.1,0.7,0.2,1.3,0.7,1.7c0.7,0.7,1.8,0.7,3.3,0.1c-0.3,0.5-0.5,1-0.5,1.6v0.1
	c0,0.5,0.2,1,0.6,1.4l0.8,0.5h1l1.7-0.4l2.7-1.2c1.6-0.7,3.1-1.5,4.6-2.4c0.1,0.5,0.1,0.9-0.1,1.1c-0.1,0.2-0.2,0.3-0.4,0.4L61,65.4
	c-0.6,0.5-1.1,1-1.6,1.6c-0.3,0.5-0.5,1-0.5,1.6c0.1,0.5,0.3,1,0.6,1.4c0.3,0.2,0.5,0.4,0.8,0.4c0.4,0.2,0.7,0.2,1.1,0.1
	c0.6,0,1.2-0.2,1.8-0.4l2.7-1.2l4.6-2.4c0.1,0.5,0.1,0.9-0.1,1.1L70,68l-3.7,2.3c-0.6,0.5-1.1,1-1.6,1.6c-0.3,0.5-0.5,1-0.5,1.6
	c0.1,0.5,0.3,1,0.6,1.4l0.8,0.4h1.1c0.6,0,1.2-0.2,1.8-0.4l0.6-0.3c-0.4,0.6-0.6,1.3-0.6,2c-0.1,0.9,0.3,1.8,1,2.4l0.7,0.6l1.1,0.4
	c0.4,0.2,0.9,0.3,1.4,0.3c0.6,0,1.3-0.2,1.9-0.4h0.1v0.2c-0.4,0.5-0.6,1.1-0.6,1.7c0,0.6,0.2,1.1,0.6,1.5l0.8,0.6l1.1,0.2
	c0.6,0,1.2-0.2,1.8-0.4h0.1c-0.3,0.5-0.5,1-0.5,1.6c0,0.6,0.2,1.1,0.6,1.5l0.7,0.5c-0.2,0.1-0.2,0.2-0.2,0.4C79,88.1,79,88.6,79,89
	l-0.6-0.5c-0.2-0.2-0.5-0.2-0.7,0c0,0-0.1,0.1-0.1,0.1c-0.2,0.2-0.2,0.5,0,0.7c0,0,0.1,0.1,0.1,0.1l1.3,1c-0.1,0.6-0.1,1.1-0.1,1.7
	c-0.2-0.2-0.5-0.2-0.7,0l-0.7,0.4v-0.9c0-0.3-0.3-0.6-0.6-0.6c-0.3,0-0.5,0.2-0.5,0.5c0,0,0,0.1,0,0.1v0.9l-0.7-0.4
	c-0.3-0.2-0.6-0.1-0.8,0.1c-0.2,0.3-0.1,0.6,0.1,0.8l1.4,1v2l-1.6,0.9c-0.2-1.1-0.4-2.2-0.5-3.3c-0.1-0.3-0.4-0.4-0.6-0.3
	c0,0,0,0-0.1,0l-3.2,1.1v-1.8l1.8-1l1.5,0.7c0.3,0.1,0.7,0,0.8-0.3c0,0,0,0,0,0c0.1-0.3,0-0.6-0.3-0.8l-0.7-0.3l0.8-0.5
	c0.3-0.1,0.5-0.4,0.4-0.8c-0.1-0.3-0.4-0.5-0.8-0.4c-0.1,0-0.2,0.1-0.2,0.1l-0.8,0.5c0-0.3,0.1-0.6,0.1-0.8c0.1-0.3-0.1-0.5-0.4-0.6
	c0,0,0,0,0,0l1.4-0.9l1.6,0.6c0.3,0.1,0.6,0,0.7-0.2c0,0,0,0,0-0.1c0.1-0.3,0-0.6-0.3-0.8c0,0,0,0,0,0l-0.7-0.3l1.1-0.7
	c0.2-0.2,0.3-0.5,0.1-0.8C76.4,85,76,85,75.7,85.1c-0.3,0.3-0.7,0.5-1.1,0.7c0-0.2,0.1-0.5,0.1-0.8c0-0.3-0.3-0.6-0.6-0.6
	c-0.3,0-0.6,0.3-0.6,0.6c0,0.5-0.1,1-0.1,1.6l-3,1.8v-1.3l2.1-1.3c0.2-0.2,0.2-0.6,0-0.8c-0.2-0.2-0.4-0.2-0.6-0.2l-1.5,0.9v-1.2
	l1.2-0.9c0.2-0.2,0.2-0.6,0-0.8c-0.1-0.2-0.4-0.3-0.7-0.2c0,0-0.1,0.1-0.1,0.1L70.4,83v-1.2C70.4,81.5,70.2,81.2,69.9,81.2z
	 M69.2,89.9v1.4L68,90.6L67.8,89L69.2,89.9z M50.6,76l0.2,0.6v0.5l-0.2,1.1l-0.7,1L49,79.8h-1.5l-0.6-0.2L46.1,79l-0.6-1l-0.2-0.5
	V77l0.2-1.1l0.6-0.9l1-0.7h1.6l0.6,0.2l0.8,0.6h0.1v0.3L50.6,76z M50.8,44.3c1.6-0.8,3.4-1.2,5.2-1.2c1.5,0,2.9,0.5,4,1.4
	c0.2,0.1,0.2,0.3,0.2,0.6c0,0.3-0.1,0.5-0.2,0.7c-0.3,0.5-0.8,0.9-1.4,1c-0.6,0.3-1.3,0.4-2,0.3c-0.8,0-1.7-0.2-2.5-0.5
	c-0.9-0.4-1.8-0.9-2.5-1.6L50.8,44.3z M72.4,74.1c0.8-0.6,1.7-1,2.7-1.4c1-0.2,1.7-0.2,2,0.2l0.2,0.2c-0.1,0.4-0.4,0.7-1.1,1.1
	C75,74.8,73.6,74.8,72.4,74.1z M52.5,60.9c-0.2-0.1-0.2-0.3-0.2-0.5c0-0.3,0.1-0.6,0.3-0.8c0.5-0.7,1.2-1.3,1.9-1.8
	c0.7-0.6,1.6-1.1,2.5-1.4c0.9-0.3,1.5-0.3,1.9,0.1c0.4,0.4,0.2,0.5,0.1,0.9c-0.1,0.5-0.3,1-0.7,1.4l-1.7,1.1
	C54.4,61.1,53,61.4,52.5,60.9z M79.3,95.7l1.4,0.7l-1.5,0.7L78,96.4L79.3,95.7z M77.5,95.4c0-0.5-0.1-1-0.1-1.4l1.4-1
	c-0.1,0.5-0.1,1.1-0.1,1.6L77.5,95.4z M72.3,98.4c-0.1-0.4-0.2-0.9-0.2-1.4c-0.1-0.2-0.3-0.3-0.5-0.2l-1.3,0.4v-1.5l2.8-1
	c0.2,0.9,0.3,1.9,0.5,2.9L72.3,98.4z M72.7,100.5l-0.7,0.6l-1.1-0.6l1.1-0.6L72.7,100.5z M71.2,97.9l0.2,1l-1.1,0.6v-1.2L71.2,97.9z
	 M71.4,102.1l-0.2,0.9l-0.9-0.3v-1.2L71.4,102.1z M71.6,104.2c0.2,0.1,0.4,0,0.5-0.2c0-0.5,0.1-0.9,0.2-1.4l1.3,0.8
	c-0.2,0.9-0.3,1.9-0.5,2.9l-2.8-1v-1.6L71.6,104.2z M72.9,101.6l1-0.9c0.2-0.1,0.2-0.3,0-0.5l-1-0.8l1.3-0.8l2.3,1.9l-2.3,1.9
	L72.9,101.6z M70.3,91.3v-1.5l1.4-0.9v1.6L70.3,91.3z M71.3,111.8l-1-0.7v-1.4l1.3,0.7c0,0.4,0,0.7,0.1,1.1L71.3,111.8z M76.3,107
	l-1.4,0.9c-0.2,0.2-0.3,0.6-0.1,0.8c-0.1,0.2-0.2,0.3-0.4,0.4c-0.1-0.2-0.3-0.3-0.6-0.3c-0.1,0-0.2,0-0.2,0h0l-1.5,0.7l-1.8-1v-1.9
	l3.2,1.2c0.3,0.1,0.6-0.1,0.7-0.4c0.1-1.1,0.3-2.2,0.5-3.3l1.6,0.9V107z M78.3,104.8l-0.3-0.2l0.9-0.5L78.3,104.8z M80.5,101.8
	l-0.6,0.3c0-0.3,0-0.5,0.1-0.8c0-0.3-0.3-0.6-0.6-0.6c-0.3,0-0.6,0.2-0.6,0.5c-0.1,0.6-0.1,1.1-0.2,1.7l-1.7,1l-1.6-0.9l2.6-2.1
	c0.2-0.2,0.2-0.6,0-0.8L75.3,98l1.6-1l1.7,1.1c0.1,0.5,0.1,1.1,0.2,1.6c0,0.3,0.2,0.5,0.5,0.5c0,0,0.1,0,0.1,0
	c0.3,0,0.6-0.3,0.6-0.6c-0.1-0.3-0.1-0.5-0.1-0.8l0.8,0.5c0.2,0.2,0.6,0.2,0.8,0c0.2-0.2,0.2-0.6,0-0.8c-0.1-0.1-0.1-0.1-0.2-0.2
	l-0.8-0.5l0.7-0.3c0.2,0,0.4-0.2,0.3-0.4c0,0,0-0.1,0-0.2l1.4,0.6L80.5,101.8z M83.4,96.5L80.5,95l1.1-0.7l2.2,1.1
	C83.7,95.8,83.5,96.1,83.4,96.5z M84.3,94.4l-1.5-0.8l1.1-0.6l0.8,0.3C84.5,93.6,84.4,94,84.3,94.4z M85.4,90.7l-0.8,0.5
	c0-0.1,0.1-0.3,0.1-0.4s-0.2-0.7-0.5-0.7s-0.6,0.2-0.7,0.5c0,0.5-0.1,0.9-0.2,1.4l-1.1,0.6c0.1-0.6,0.1-1.1,0.1-1.7
	c0-0.3-0.2-0.5-0.5-0.6c-0.3,0-0.6,0.2-0.7,0.5v2.5L79.9,94c0-1.2,0.1-2.4,0.1-3.5l1.4-0.9c0.3-0.2,0.3-0.6,0.1-0.8c0,0,0,0,0-0.1
	c-0.2-0.2-0.5-0.3-0.8-0.1L80.1,89v-1.5h0.3c0.6,0,1.2-0.2,1.8-0.4c0.9-0.3,1.8-0.7,2.7-1.1H85v-1h-0.1c-1,0.5-2.1,0.8-3.2,1
	c-0.9,0.2-1.5,0.1-1.8-0.2c-0.3-0.3-0.1-0.3,0.1-0.6c0.3-0.5,0.8-1,1.3-1.4l4.4-2.9l1,0.9h0.2C86.7,84.8,86.2,87.8,85.4,90.7z"/>
</svg>
