<svg xmlns="http://www.w3.org/2000/svg" viewBox="0 0 92.6 126.1"><title>Michelle</title><g id="Layer_2" data-name="Layer 2"><g id="Layer_1-2" data-name="Layer 1"><path d="M23.6,0h1.1a14.3,14.3,0,0,1,6,1.7,22.2,22.2,0,0,1,4.5,3.6A62.4,62.4,0,0,1,42,13.1L43.5,15a2.9,2.9,0,0,1,2.6-1.5H49a2.4,2.4,0,0,1,1.9.8,7.5,7.5,0,0,1,.7,1.2l.3-.2,7.7-7.4a36,36,0,0,1,4.1-3.7A12.7,12.7,0,0,1,74.9,2.3a6.5,6.5,0,0,1,4.5,4.2,11.9,11.9,0,0,1,.7,5.9l-.9,5.4a13.2,13.2,0,0,0,.2,5.6l1.2,3.9a20.2,20.2,0,0,1,.9,4.9,6.7,6.7,0,0,1-1.8,4.5,20.2,20.2,0,0,1-6.3,4.5l-1,.3.3.2a45,45,0,0,1,7,6.1A45.9,45.9,0,0,1,92.5,76.5a6.6,6.6,0,0,0,.1,1.4V82a42.3,42.3,0,0,1-2.2,12.1A44.8,44.8,0,0,1,78,113.5a46.4,46.4,0,0,1-11.9,8.1A45.2,45.2,0,0,1,44.4,126a45.4,45.4,0,0,1-34-17A46.4,46.4,0,0,1,.2,84.3,49.1,49.1,0,0,1,.5,72.8,43.4,43.4,0,0,1,4.8,59.3a45.4,45.4,0,0,1,17-18.8l.3-.2-2.2-1a18.7,18.7,0,0,1-4.7-3.7,11.9,11.9,0,0,1-2.1-2.9,8.1,8.1,0,0,1-.1-5.1c.5-1.7,1.2-3.3,1.8-4.9A13.9,13.9,0,0,0,16,17c-.1-1.9-.3-3.8-.4-5.7A13.6,13.6,0,0,1,15.9,6C16.8,2.8,18.8.7,22.2.2Zm8.3,92.1H32a4.3,4.3,0,0,1-.2-1.1c0-2.1-.1-4.2-.1-6.2,0-.4-.1-.9.5-1s-.4-.3-.5-.5a2.3,2.3,0,0,1,.8-2.9,1.1,1.1,0,0,1,1.4.5,2,2,0,0,1,.1,1.1,5.3,5.3,0,0,1-.3,1.2h.1c.4-.1.5-.1.5.3v1.1c0,2.2.1,4.4.1,6.6a9.4,9.4,0,0,0,.4,1.6c.1.4.5.4.8.1l.3-.6a25.8,25.8,0,0,0,.8-2.6,6.2,6.2,0,0,0,.2-1.9,9.7,9.7,0,0,1,1-5.3,5.2,5.2,0,0,1,3.2-2.8,1.9,1.9,0,0,1,2.5,1.4,3.4,3.4,0,0,1,.1,1,2,2,0,0,1-1.1,1.7h-.5c0-.2-.1-.3,0-.5a3.4,3.4,0,0,0-.1-2c-.2-.6-.6-.7-1.1-.3a2.3,2.3,0,0,0-.7,1,9.2,9.2,0,0,0-.5,6.1,3.5,3.5,0,0,0,1.2,1.9.9.9,0,0,0,1.2.1l1-.7a8.5,8.5,0,0,0,2.6-6c.1-1.8,0-3.6,0-5.4s0-4.8.1-7.2c0-.3,0-.4.3-.5l1.5-.7c.6-.2.7-.2.6.5h0v7.6a5.1,5.1,0,0,1,2.6-2.2,2.1,2.1,0,0,1,2.6,1.2,5.7,5.7,0,0,1,.3,1.8c.1,1.5,0,3,.1,4.5a5,5,0,0,0,.2,1.2c.2.4.5.4.8.1a1.6,1.6,0,0,0,.4-.7c.4-1,.7-1.9,1-2.9a2.5,2.5,0,0,0,.1-1.2,9.6,9.6,0,0,1,1-5.8A5,5,0,0,1,60.9,71a1.8,1.8,0,0,1,1.8.6,2.6,2.6,0,0,1,.6,2.1,6.3,6.3,0,0,1-1.6,3.4A9,9,0,0,1,59,79.2a3.8,3.8,0,0,0,1.1,2.2,1.3,1.3,0,0,0,1.2.2l.6-.4a5.9,5.9,0,0,0,2.5-3.1,7.6,7.6,0,0,0,.8-3.3V62l-1.4-.4.3,1v.3c-.2.2-.4.5-.6.6s-.4-.1-.6-.1h-.1a.8.8,0,0,1-.4-.4,2.9,2.9,0,0,0-.2-.9h-.1l-1.6,1.8a5.5,5.5,0,0,1-.5-1.7c-.1-.2-.1-.3.1-.4a9.3,9.3,0,0,0,1.4-1.4c.1-.1.2-.2.2-.3l-.3-1-1.8,1.7c-.1-.6-.3-1.1-.4-1.7a.4.4,0,0,1,.1-.3l1.4-1.5c.1,0,.2-.2.2-.3l-.6-2.4-.8.8a1.2,1.2,0,0,1-.2,1.7,1.2,1.2,0,0,1-1.7-.4c-.4-.7,0-1.3.7-1.7L58,54h-.1l-1.6,1.7a.6.6,0,0,0-.1.4c.2.6.3,1.3.5,1.9v.4l-1.2,1.3h-.2l-.6-2.4-.7.7c0,.1-.1.3,0,.4s.3,1.3.4,2a.2.2,0,0,1,0,.3l-1.3,1.2-.6-2.3-.8.7h-.2c-.3-.1-.6-.1-.8-.3s-.1-.3-.2-.5h0c-.1-.2-.1-.4.1-.5l.7-.7L49,57.5l1.2-1.3c0-.1.2-.1.3-.1l2,.6h.3a6,6,0,0,1,.8-.8l-2.4-.6L52.4,54h.4l1.2.4a1.1,1.1,0,0,0,1.6-.4l.2-.2a9.4,9.4,0,0,1,1-1l-1-.3c-.5.8-1.1,1-1.7.6a1.1,1.1,0,0,1-.4-1.5,1.5,1.5,0,0,1,.6-.5,1.3,1.3,0,0,1,1.2.1l.7-.6L54,49.8c-.2,0-.4,0-.5.2l-1.4,1.3c-.1.1-.2.2-.3.1L50,50.9l1.8-1.7-1-.3h-.2a8,8,0,0,1-1.3,1.3l.7.2L49,51l-5.4,3.1c-.1.1-.2.2-.2.3s.1.9.1,1.4h1.6a3.4,3.4,0,0,1-1.2.9c-.1.1-.1.2-.1.4a5.1,5.1,0,0,1,.2,1.3h-.2l-.7-.5c-.6-.5-.5-.4-.9,0s-.6.4-.3,1c.9,2.2,1.7,4.3,2.6,6.4v.2l-5.7-3.2c-1.1-.7-.7-.7-1.6.1s-.4.4-.1.8a3,3,0,0,0,.4.8l-.6-.2c-.9-.2-.9-.2-1.4.5l-.3.3-.3.2V63l-1.1-.4h-.4L29,68.6l-.2.3V62c0-1.4.3-1.1-1.1-1.5s-.3,0-.4.2l-.7,1.1a3,3,0,0,1-.2-1c0-.4-.2-.6-.7-.7h-.4l-.6-.2,1.2-.5c.2-.1.2-.2.2-.4s-.1-.6-.1-.9a.3.3,0,0,0-.3-.3L20,57l-1.5-.3h-.1l6.8-3.8a4.9,4.9,0,0,1-.4-1.1c-.1-.2-.2-.2-.4-.2H23l1-.7c.3-.2.3-.4.2-.6a5.6,5.6,0,0,0-.4-1.2,13.3,13.3,0,0,0,1.2.6.3.3,0,0,0,.4,0,3.9,3.9,0,0,0,1-.8l-1.3-3.6a41.4,41.4,0,0,0-16.7,20c.5-.1.7.2.9.6a7.5,7.5,0,0,1,.9,1.5c.3.5.8.5,1.3.6l-.6-.9-.7-1.2a.5.5,0,0,1,.1-.7.5.5,0,0,1,.6-.1l.4.2,1.9,1c-.1-.3-.1-.4-.2-.5a.7.7,0,0,0-.5-.7l-1.8-.9a.9.9,0,0,1-.4-1c.2-.3.5-.4,1-.1l1,.5c0-.6-.1-.9-.7-1.1l-.9-.6a.5.5,0,0,1-.2-.8c.1-.3.4-.4.8-.2l.3.2a4.4,4.4,0,0,1-.2-1c-.1-.4,0-.7.3-.7s.7,0,.8.4l.3.9a.3.3,0,0,1,.1-.2.6.6,0,0,1,.8-.4.6.6,0,0,1,.3.9,2.2,2.2,0,0,1-.5.8,1.4,1.4,0,0,0,.1,1.5l.6-1.2a.7.7,0,0,1,.8-.3.7.7,0,0,1,.2.9,21.2,21.2,0,0,1-1.1,2.1V65a2.4,2.4,0,0,0,.2.8l.2-.3.9-1.7a.8.8,0,0,1,.8-.5c.3.1.4.3.4.8s.1,1.5.1,2.3.8-.7.7-1.3a12.1,12.1,0,0,1-.1-1.9.8.8,0,0,1,.6-.8c.4,0,.6.2.6.7a6.2,6.2,0,0,0,.1,1.3l.3-.3a.8.8,0,0,0,.3-.9V62a.6.6,0,0,1,.6-.5c.3,0,.5.1.6.5v.4a4.6,4.6,0,0,0,.7-.7.7.7,0,0,1,.9,0,.6.6,0,0,1,0,.8l-.7.8h.3c.4,0,.7.2.7.5a.7.7,0,0,1-.7.7h-.8a1.3,1.3,0,0,0-1.3.7h1.4a1,1,0,0,1,.5.4c.1.1,0,.4-.1.6l-.6.2H18.8c-.6,0-.9.4-1.2.8h2.3c.4,0,.6.1.7.3s0,.6-.4.8l-1.9,1.3h.4a.9.9,0,0,0,1-.2l1.6-1h.3a.5.5,0,0,1,.7.3c.2.2.1.5-.2.7l-.5.3-.7.5h.4a.9.9,0,0,0,1-.2l.9-.5a.7.7,0,0,1,.9.2.6.6,0,0,1-.2.8l-.4.2.9.2c.5.1.7.4.6.8a.8.8,0,0,1-.9.4l-.8-.2v.2c.2.4.2.7-.1.9a.7.7,0,0,1-.9-.2l-.6-1c-.2-.5-.7-.4-1.2-.6l.8,1.3c.1.2.1.6-.2.7a.6.6,0,0,1-.8,0l-.2-.3-1.1-1.8-.2-.3-.9-.2c.1.2.1.3.2.3l1,1.8a.6.6,0,0,1-.8.8h-.3l-1.8-1a1.7,1.7,0,0,0,.8,1.3l1.7.8q.6.5.3.9c-.1.3-.5.4-.9.2l-1.1-.6c0,.2.1.3.1.4a1.2,1.2,0,0,0,.6.8l1,.5a.7.7,0,0,1,.2.9.8.8,0,0,1-.8.2l-.3-.2.3,1.5,1-.2a2.1,2.1,0,0,0,1-.6,6.6,6.6,0,0,1,2-1.4c.8-.2,1.4.1,1.5.7a1.3,1.3,0,0,1-.6,1.4,1.8,1.8,0,0,1-.9.4c-.3.1-.4.3-.5.6a8.2,8.2,0,0,0,.4,3.5c.4,1.4.9,2.8,1.4,4.2l1.2,3.6v-.2c.4-1.9.8-3.7,1.1-5.6A55.9,55.9,0,0,1,27,79.7,12.1,12.1,0,0,1,29.3,75,6,6,0,0,1,32,73a1.2,1.2,0,0,1,1.3.5,4.2,4.2,0,0,0-2,2.9,18.6,18.6,0,0,0-.7,5.2,40.5,40.5,0,0,0,.6,7C31.4,89.8,31.6,90.9,31.9,92.1Zm44.5-6h-.1l.2-.3,3.4-5.3c.1-.2.1-.3-.1-.5s-2.1-2.4-3.2-3.5l-.6-.7a9.3,9.3,0,0,1-.5,1c-1.2,1.4-3,1.6-4.2-.1,0-.1-.1-.2-.1-.3a.4.4,0,0,0-.1.3,5.6,5.6,0,0,1-1,2.4,2.3,2.3,0,0,1-3.4.6,2.7,2.7,0,0,1-.8-1l-.2-.3A7.8,7.8,0,0,1,63.8,82a6.2,6.2,0,0,1-3.6,1.8c1.2,5.7,2.5,11.3,3.7,17l8.2-5.4h0c-1.5,3.3-3,6.6-4.6,9.9h.2l7.5,2.6c.2.1.3-.1.5-.2A40.7,40.7,0,0,0,86.1,87.3c.1-.1,0-.3-.1-.4l-3-3.4c-.1-.2-.3-.2-.5-.1L78.9,85Zm-43,26.4.9,2.9.2.2,4.7,2.5a.8.8,0,0,1,.4,1.2l-.2.4h.4a41,41,0,0,0,8.6.5c.2,0,.4-.1.4-.3l3.6-6.9v-.2l-9.6-3.5,9.7-3.8-4.7-8.7h0l8.4,4.5,2.9-17.7a4.2,4.2,0,0,1-2-1.7c-.1.5-.3,1-.4,1.5a4.4,4.4,0,0,1-2.4,2.9,1.9,1.9,0,0,1-2.7-.9,5.4,5.4,0,0,1-.6-2.5c0-1.3-.1-2.6-.1-3.8a8.3,8.3,0,0,0-.4-1.5c-.2-.4-.5-.5-.8-.2a2.1,2.1,0,0,0-.4.6,7.1,7.1,0,0,0-1.2,3.7v7a.5.5,0,0,1-.3.5l-1.8.7c-.4.2-.5.1-.5-.3v-1h-.1a6.5,6.5,0,0,1-1.6,2.1,5.1,5.1,0,0,1-2.6,1.4,3.1,3.1,0,0,1-3-1.4,1,1,0,0,1-.4-.5,10.6,10.6,0,0,1-.6,1.9,3.5,3.5,0,0,1-1.9,2.4,2.1,2.1,0,0,1-2.8-.8l-.2-.3h-.1a21.4,21.4,0,0,0,1,2.2,1.4,1.4,0,0,0,1.2.9.8.8,0,0,1,.8-.9h1a.8.8,0,0,1,.9.9c.1,1.3.1,2.6.2,3.9v.9h.3l4.6-.2a1,1,0,0,1,1,.9v.8c0,.7-.3,1.1-1,1.1l-5.1.2-.5.2L35.2,106l-.4.6,2.1.3-1.8,1.6,2.6.6h.6l4.6-2.9a.9.9,0,0,1,1.4.3l.3.5a1,1,0,0,1-.3,1.6l-3.6,2.2-.4.3.2.3,2.4,3.7a1,1,0,0,1-.3,1.4l-.5.3c-.8.5-1.2.4-1.6-.4l-2.7-4.2-.4-.3-2.5-.5h-.3l.9,2ZM66,61.5l1.3-.5c.3-.2.4-.1.4.3v1.8c0,4.1,0,8.2.1,12.2a9.3,9.3,0,0,0,.4,2.3c.1.6.6.7,1,.1a6.7,6.7,0,0,0,.6-1.2,15.8,15.8,0,0,0,.7-5.3V59.9a.5.5,0,0,1,.4-.5l1.5-.6c.7-.3.7-.3.7.4,0,4-.1,7.9,0,11.8a27.1,27.1,0,0,0,.1,2.9,8,8,0,0,0,.3,1.5c.2.4.5.5.9.1a2.2,2.2,0,0,0,.5-.8,9,9,0,0,0,.6-2.2,9.9,9.9,0,0,0,.2-1.7,8.6,8.6,0,0,1,1.3-6,4.8,4.8,0,0,1,3.1-2.2,1.8,1.8,0,0,1,2.2.8,1.1,1.1,0,0,1,.3.8,3.7,3.7,0,0,1-.5,2.9,8.7,8.7,0,0,1-3.5,3.6c-.1,0-.2.2-.2.2a5.3,5.3,0,0,0,.8,1.7,1.2,1.2,0,0,0,1.9.3,6.3,6.3,0,0,0,2.3-2.3,12.9,12.9,0,0,0,1.2-3.8.9.9,0,0,0-.1-.5c-.6-1.5-1.1-3-1.8-4.4a40.5,40.5,0,0,0-9.8-12.7c-1.2-1.1-2.5-2-3.8-3l-.5.4c-.3.3-.5.7-.9.8s-.7-.2-1.1-.3-.9-.4-1.3-.3-.6.6-.9.9l-1,.9,1,.3c.5-.8,1.1-1,1.7-.7a1.2,1.2,0,0,1,.5,1.6,1.2,1.2,0,0,1-1.7.4l-.8.7,2.3.6h.3L68.2,50c.1-.1.2-.2.3-.1l1.7.4-1.8,1.8.9.2a.7.7,0,0,0,.6-.1l1.3-1.4h.3l1.8.5L71.6,53l.9.2a.2.2,0,0,1,.2.2c.3.5.3.8-.2,1.3h-.1c-.1.1-.2.2-.4.1l-1-.2.7,2.4-1.8-.5c-.1,0-.2-.2-.2-.2s-.3-1.4-.5-2-.1-.2-.1-.3L68,53.7l.6,2.5L67,55.7c-.2,0-.3-.2-.4-.4s-.3-1.2-.4-1.8l-.4-.4-1.3-.4-.9-.2.2,1c.9,0,1.4.4,1.4,1.1a1.1,1.1,0,0,1-1,1.2c-.8.1-1.2-.4-1.3-1.4l-1-.3.6,2.3a.3.3,0,0,0,.3.3l1.9.6H65a12.1,12.1,0,0,0,.5,1.8l-2.4-.6c.1.4.1.7.2,1l.3.2,1.9.5c.2.1.3.2.3.4A2.4,2.4,0,0,1,66,61.5Zm-51.7,29h.2c.4-.1.8.2,1,.7a4,4,0,0,1-.1,3.2,3.9,3.9,0,0,1-5,2.7l-.9-.3.9,1.9a40.1,40.1,0,0,0,7.2,9.7c.2.2.3.2.5,0l2-1.2,1-.7-2.5-3.8a6.4,6.4,0,0,1-1.3,1c-1.4.8-3.3-.4-3.7-1.5a.9.9,0,0,0-.1-.5c0-.2.1-.3.4-.2h.5a2.4,2.4,0,0,0,1.3-1.1,11.7,11.7,0,0,0,.9-2.4,37.1,37.1,0,0,0,.5-6.7c.1-1.7.1-3.5.3-5.3a13.3,13.3,0,0,1,1.3-5.2.4.4,0,0,1,.1-.3h-.3l-3.2.8A6.1,6.1,0,0,0,12,83.4a9.6,9.6,0,0,0-2.4,7.9,5.5,5.5,0,0,0,1,2.5,1.7,1.7,0,0,0,2.9.3,3.5,3.5,0,0,0,.9-3.1A4.3,4.3,0,0,1,14.3,90.5ZM48.7,48.3h-.5c-.7-.2-.7-.2-.8-.9a.6.6,0,0,1,.1-.4l.3-.3c.1-.2.3-.2.5-.1l1,.2-.7-2.4,1.7.5q.2,0,.3.3c.2.6.3,1.3.5,1.9a1,1,0,0,0,.1.3l1.1.3-.6-2.5,1.7.5c.1.1.2.2.2.3s.3.9.4,1.4.4.9,1,1.1a5.3,5.3,0,0,1,1.7.4l-.2-1h-.4a1.1,1.1,0,0,1-1-1.2,1,1,0,0,1,1.1-1.1,1.1,1.1,0,0,1,1.2,1.1c0,.1,0,.3.1.3l.9.3-.6-2.4-.3-.2L55.6,44h-.3c-.2-.6-.3-1.2-.5-1.8l2.4.6c-.1-.3-.1-.6-.2-.9l-.3-.3-1.6-.4c-.5-.1-.7-.3-.7-.8a.5.5,0,0,0-.3-.3l-4.3-.6a39.6,39.6,0,0,0-7.7,0l-2.5.4-.3,5.9.2.3,1,.3c.3.1.4.1.6-.2l.7-1a7.8,7.8,0,0,1,.2,1.4.7.7,0,0,0,.4.5l1,.2h-.1l-.5.3c-.9.4-.9.4-.7,1.4h0l.2.2,4.7.7h.3Zm9.5-31.8h.1l3-.4a25.2,25.2,0,0,0,12.5-5.7l.3-.3a6.7,6.7,0,0,0,.6-2.8c-.1-1.5-.8-2.5-2.2-2.6a3.8,3.8,0,0,0-2.1.2,19.5,19.5,0,0,0-11.3,9.6A11.1,11.1,0,0,0,58.2,16.5ZM37,15.8v-.4A19.4,19.4,0,0,0,27.1,4a7.7,7.7,0,0,0-2.9-1,2.4,2.4,0,0,0-2.8,1.8,3.9,3.9,0,0,0,0,2.4,2.4,2.4,0,0,0,.5,1.4,25.1,25.1,0,0,0,11.7,6.5ZM7,69.6a40.7,40.7,0,0,0-.2,19.3c1.5-5.4,5.1-8.4,10.4-9.6l-.5-1.2c-.1,0-.1.1-.1.2s-.6.5-.9.3-.4-.5-.2-.9l.4-.8c.4-.5.2-.9,0-1.5l-.6,1.2a.7.7,0,0,1-.5.4.5.5,0,0,1-.5-.3.6.6,0,0,1-.1-.6,11.4,11.4,0,0,1,1-1.9c.4-.5.1-.8,0-1.4S14.4,74.3,14,75s-.4.4-.7.3a.5.5,0,0,1-.4-.6c0-.5-.1-1-.1-1.5v-.9l-.3.3c-.4.2-.4.6-.4,1a12.1,12.1,0,0,0,.1,1.9.4.4,0,0,1-.1.3c-.1.3-.4.5-.6.4s-.5-.2-.5-.6V74.2c-.5.5-.9.8-.8,1.4a3.1,3.1,0,0,1,.1,1,.7.7,0,0,1-.7.6.6.6,0,0,1-.5-.6v-.3H9l-.6.6a.6.6,0,0,1-.9.1.7.7,0,0,1,0-.9l.7-.7H7.8a.5.5,0,0,1-.6-.6.6.6,0,0,1,.6-.6,2.7,2.7,0,0,1,.9,0,1.4,1.4,0,0,0,1.3-.7H8.7c-.4,0-.7-.2-.7-.5s.3-.6.7-.6h1.9c.6.1.9-.3,1.3-.8H9.4a.5.5,0,0,1-.6-.4.9.9,0,0,1,.3-.7l.6-.4,1.5-.9c-.6-.1-1-.3-1.5.1l-1.5,1Q7.3,70.7,7,69.6ZM34.9,58.1c.2-.3.4-.3.6-.1l4.8,2.8h.4c-.7-2-1.7-3.9-2.3-5.9l.6-.3c-.1-.2-.2-.2-.3-.3a.9.9,0,0,0-1.2-.4,2.9,2.9,0,0,1-1,.3,9.3,9.3,0,0,1,.5-1c.2-.3.1-.4-.1-.7l-.7-.9,1.2.2h.3l.6-1.1-.6-.2a.3.3,0,0,1-.3-.3v-.9c.1-1.5.2-2.9.2-4.4v-.7l-.3.3-3.6,4.4c-.3.4-.3.4-.7.2a.1.1,0,0,0-.1.1l-.5,1.2,1.3.7h0l-.6.2c-.8-.1-1.1.3-1.1.9l-.3.7h-.1l-.5-1.3-1.4.2v.3l-5.5,3.4h.3l5.9.7c.2,0,.5,0,.5.4l.8-.2c.4-.1.5-.3.5-.6s.1-.7.1-1.1l.7.9a.4.4,0,0,0,.6.2l1.3-.2-1,1.2Zm-6.7,47a25.8,25.8,0,0,0-.8-2.6l-.3-.4-4.5-2.4c-1-.5-1.1-.9-.6-1.9s.7-1,1.4-.8h0a1.3,1.3,0,0,0-.1-.6,53.6,53.6,0,0,0-1.7-5.7,30,30,0,0,1-1.5-5.9,5.7,5.7,0,0,0-.1-1.3c-.1.5-.1,1-.2,1.5-.2,2.9-.1,5.8-.1,8.7a44.7,44.7,0,0,1-.1,5.2,13.8,13.8,0,0,1-.3,2c.9-.4,1.2-.4,1.7.5l2,3.1c.3.5.5,1.2,1,1.5a4.7,4.7,0,0,0,1.7.4l1.2.3-1-2.3Zm-.4-5.8h0l1.7-3.1v-.4l-.4-1.3a41.4,41.4,0,0,1-.9-6,44.2,44.2,0,0,1,.1-6.3c.1-.5.1-1,.2-1.4h-.1L27.2,88a49.9,49.9,0,0,1-1.5,7.7,14.2,14.2,0,0,1-.7,2.2ZM60,89.8h-.1c-.1.8-.3,1.6-.4,2.4-.5,2.5-.9,4.9-1.4,7.3,0,.2,0,.4.1.4l2,2.4L62,100c.1,0,.1-.2,0-.3-.5-2.7-1.1-5.5-1.7-8.3ZM42.6,27h-.2l-9.1,7.2-.6.9v.3h.2l5.9-1.3.3-.2a19.2,19.2,0,0,0,2.5-4.4A18.6,18.6,0,0,0,42.6,27ZM61,35.8c.2-.3,0-.5-.2-.7l-7.6-6.9-1-.9h0v.3a33.2,33.2,0,0,0,2.4,5.9c.3.5.6.8,1.1.8l.7.2ZM31.2,98.7a10.9,10.9,0,0,1-.8,1.5,2,2,0,0,0-.2,2,11.7,11.7,0,0,1,.6,2l1.4-1.8.4,2.4c.7-.7,1.2-1.3,1.9-1.9a1.4,1.4,0,0,0,.2-.7,24.4,24.4,0,0,1-.1-2.7,15.5,15.5,0,0,1-.1-2.2C33.8,98.8,32.3,99.4,31.2,98.7Zm3.3-54.1,3.6-4.5a34.9,34.9,0,0,0-10.4,3.7l2.1,1.3c.6.4.6.4,1.2-.2s.4-.5.1-1.1a3,3,0,0,1-.4-.8h.1l1.3.5,1.1-1.1a2.9,2.9,0,0,1,0,1.3c0,.2.1.4.3.4Zm24.8,9.1,1-.9c.2-.3.4-.3.7-.2l1.4.4a7.5,7.5,0,0,0-.4-1.6c0-.2,0-.3.2-.4a11.4,11.4,0,0,1,1.1-1.1l-1.5-.5c-.2,0-.3-.1-.4-.4a11.3,11.3,0,0,0-.4-1.5l-.8.8a.9.9,0,0,1-1.3.3l-1-.3c.1.6.2,1,.3,1.5a.5.5,0,0,1-.1.6l-1.1,1,1.5.5q.3.1.3.3C59,52.7,59.1,53.2,59.3,53.7ZM19.9,110.6l3.4,2.6h1.6V113l1.7-1.8.2-.2-2.4-.3,1.6-1.5-2.8-.6H23Zm42.3-3.5h.2l3.7-1.8.2-.3,1.5-3.2a14.7,14.7,0,0,1,1-2.2h-.1l-5.1,3.2-.2.3c-.3.9-.5,1.9-.8,2.9S62.3,106.6,62.2,107.1Zm-4.1-.1H58L56.5,103c-.1-.2-.2-.3-.4-.3s-2.9-1.7-4.4-2.5h-.3c0,.1.1.2.1.3s1.5,2.9,2.1,4.4a2.5,2.5,0,0,0,1.2,1.1Zm-6.8,11.5h.1l5-2.9.3-.3,1.2-3.6c.1-.1.1-.3.2-.5h-.2l-3.8,2-.3.3c-.5,1.1-1.1,2.1-1.6,3.1ZM49.7,19a2.2,2.2,0,1,0-4.4-.1,2.2,2.2,0,0,0,2.2,2.2A2.1,2.1,0,0,0,49.7,19ZM76.6,73.5l-.4,1.8,6,1.2.3-.2c1.1-1.7,2.2-3.4,3.2-5.2.1-.1.2-.2.1-.3s-.3-1.2-.4-1.9-.5,1.6-.8,2.3a6.3,6.3,0,0,1-3.9,3.9,2.8,2.8,0,0,1-3.1-.5ZM67,114.7a11.7,11.7,0,0,0-.5-1.1c-.1-.2-.2-.4-.4-.4l-3.9-1.8h-.3c0,.2.1.3.1.4s.9,2.3,1.3,3.5a1.6,1.6,0,0,0,.9.9h.2ZM62.3,47.4,64,45.6c.1,0,.1-.2.1-.3a19.4,19.4,0,0,1-.5-2l-.2-.3-2.3-1H61c.3.4,0,.6-.2.8l-.8.8a1.1,1.1,0,0,0-.4,1.5,8.5,8.5,0,0,1,.4,1.7l.8-.8a1.2,1.2,0,0,1,.3-1.8,1.3,1.3,0,0,1,1.6.4,1.3,1.3,0,0,1-.7,1.8ZM29.2,115.1l-.4-2.1-2.1,2.3,4.2,2,.7-1.1v-.3l-.9-2.8Zm1.7-52.4h0l3.8-4.3-1-.4a.5.5,0,0,0-.8.2l-.7.9V57.7c0-.1-.1-.3-.2-.3L30.9,57Zm22.5,46.5-1.7-1.5c-.2-.1-.3-.2-.5-.1l-3.9,1.6H47l4.1,1.2h.3ZM27.7,46h-.1l1.9,5.3,1.2-.9L30.2,49h.1a3.1,3.1,0,0,0,1,.5h.3l1-.8Zm38.9,62.9,2,1.4a.3.3,0,0,0,.4,0l3.4-1.4h.2l-3.8-1.2h-.3ZM40.5,52.1h0l-1,.8c0,.1-.1.2-.1.3s.1.6.1.9l4.6-2.7h0l-5.2-.7c0,.3.1.5.1.8s.2.4.5.5ZM58.8,78a5.9,5.9,0,0,0,2.4-4.2,4.1,4.1,0,0,0-.1-1.1c-.1-.4-.4-.5-.8-.3l-.7.9A9.4,9.4,0,0,0,58.8,78Zm19.4-8.4a6.3,6.3,0,0,0,2.4-4.5,3.6,3.6,0,0,0-.2-1c-.1-.2-.3-.3-.6-.1a1.2,1.2,0,0,0-.5.5,8.9,8.9,0,0,0-.8,1.7A9.6,9.6,0,0,0,78.2,69.6ZM58,102.5h-.1L60,107l1.9-4.5-1.5.8a.6.6,0,0,1-.6,0Zm7.9,4.5-3.7,2.3,3.7,1.9c-.1-.6-.3-1.2-.4-1.8a.8.8,0,0,1,0-.7A13.6,13.6,0,0,1,65.9,107Zm7.6,2.7-6.1,2.7.7,1.5A27.9,27.9,0,0,0,73.5,109.7ZM54,111.3h.1l4.1-1.9-3.9-2A7.7,7.7,0,0,0,55,109a1.1,1.1,0,0,1-.1.6Zm6.1.4L58,115.5l.9-.5a2.1,2.1,0,0,1,1.9,0l1.1.5ZM56.6,117l-4.8,2.9h.1l5.2-1.1Zm3.1-.8-1.2,2.2h0l2.5-.9ZM39.1,48.7h.2l.8-1.2a.2.2,0,0,0,0-.3l-.7-.7h-.1Zm1.6,7.1a14.2,14.2,0,0,1,.5,1.6l.3.3a3.6,3.6,0,0,1,.4-.9v-.2A5,5,0,0,0,40.7,55.8Zm-26,13a.5.5,0,0,0-.5.6.5.5,0,0,0,.5.5.6.6,0,0,0,.6-.6A.5.5,0,0,0,14.7,68.8ZM27.5,51.5h0a3.8,3.8,0,0,0-1.5.1h-.1l-.3,1h.1Zm1.3,7h-.1l-.8,1.1.9.7h0Zm-2.2-.7h-.1l.4.6c.1.2.3.2.5.1l.7-.4h.1Zm14.6-2.3h1.2l.4-.9h-.1A4.6,4.6,0,0,0,41.2,55.5Zm-6,5.2h-.1L34,62.2h0l1.1-.3Zm.6-.2h-.1c.2.4.3.8.6,1s.6,0,1,0v-.2A7.5,7.5,0,0,0,35.8,60.5ZM32.4,46.7h.1a4.2,4.2,0,0,1-.4-1h-.2l-.9.2h-.1ZM11.7,70.2c1.3.1,1.5,0,1.9-.6h-.8A6,6,0,0,0,11.7,70.2ZM14,72.3c.7-.8.8-1.2.4-1.8s-.4.4-.4.6A4.8,4.8,0,0,0,14,72.3Zm-1.5-5.1h0c.4.4.4,1.2,1.4,1.2a2,2,0,0,0-.4-.8ZM41.3,49.1h.1c-.2-.2-.4-.6-.5-.6a5.3,5.3,0,0,0-1.2.3v.2ZM15.6,70.2c.1.9.9.9,1.4,1.3l-.4-.8A1,1,0,0,0,15.6,70.2ZM32.9,46.4H33l1.1-1.3H33A4.1,4.1,0,0,1,32.9,46.4Zm-15.2,22h-.9c-.4,0-.6.2-.9.6S17.1,68.8,17.7,68.4Zm-2.2-2.1c-.3.6-1,1.1-.5,1.8S15.4,66.9,15.5,66.3ZM7.1,69.4l1.5-.9-.8-.2c-.2,0-.4.1-.4.2A3.2,3.2,0,0,0,7.1,69.4Zm79.6,8h.1l-.4-3.9v.2c.1,1.2.2,2.4.2,3.6ZM58.6,41.1l.3,1.2.8-.8ZM8.1,66.1a2.4,2.4,0,0,0-.2.8c-.1,0,0,.2.1.2l.9.2ZM68.3,45.8h.1l-.9-.6c-.4-.2-.5-.2-.7.2ZM22.5,71.6l.3-.4c0-.1-.2-.2-.3-.3s-.2.2-.2.3Zm-5.5,5-.2.4.2.3.3-.3Zm3.2-12.7c.2-.2.3-.3.3-.4s-.2-.3-.2-.2-.3.1-.3.2S20.1,63.7,20.2,63.9Zm-6.9,7.3-.4-.2a.2.2,0,0,0-.2.2c0,.1.1.3.2.3Zm2.6.7-.4-.3-.3.2.3.3Zm-2.3-7.7-.4-.2-.2.2c0,.1.1.3.2.3Zm-2.5,9.4.2-.4c0-.1-.1-.2-.2-.3a.5.5,0,0,0-.3.3Zm1.1-5.3c-.1.2-.2.3-.2.4s.1.3.2.3l.3-.3C12.5,68.6,12.3,68.5,12.2,68.3Zm7.3,2.3.4.2.3-.3-.3-.2Zm-2.2-1.1c-.1.2-.3.3-.3.4l.3.3c.1,0,.2-.2.2-.3S17.4,69.7,17.3,69.5ZM10,68.1c-.2-.1-.3-.3-.4-.2l-.3.2c0,.1.2.2.3.3Zm6.9-.7-.4-.2c-.1,0-.2.2-.2.2s.1.3.2.3ZM9.6,75.2l-.4-.3-.2.2c0,.2.1.3.2.3Zm4.4-8,.3-.4-.3-.2-.3.2C13.7,66.9,13.9,67,14,67.2ZM16.3,74c-.2.2-.3.3-.3.4l.2.3.3-.3C16.5,74.3,16.4,74.2,16.3,74ZM12.1,61.7l.4.2c.1,0,.2-.2.2-.3l-.3-.2Q12.3,61.4,12.1,61.7Zm6.3,3.4-.3.4.3.2a.2.2,0,0,0,.2-.2C18.7,65.4,18.5,65.3,18.4,65.1Z"/></g></g></svg>