<svg xmlns="http://www.w3.org/2000/svg" viewBox="0 0 92.8 126.2"><defs><style>.a{fill:none;stroke:#000001;stroke-miterlimit:10;stroke-width:0.28px;fill-rule:evenodd;opacity:0.98;}</style></defs><title>Olivia</title><path class="a" d="M72.5,41.6l.8-.3h0a19.9,19.9,0,0,0,6.5-4.5c4.3-5.2-.8-10.8-.7-16.2s2.4-9.5.4-14.1S75.4,2.1,72,1.9A14.6,14.6,0,0,0,64.1,4c-2,1.4-12.3,11.7-12.4,11.7a3.4,3.4,0,0,0-1-1.6,3,3,0,0,0-1.6-.5h-3a3.1,3.1,0,0,0-1.3.3c-.6.4-1.1,1-1.1,1.3-3.3-4.4-7.2-9.1-11.5-12.4A14.5,14.5,0,0,0,24.5.1c-3.3,0-6.3,1.1-7.7,4.1s-.3,9.5-.7,14-5.8,10.7-1.9,16.1a17.2,17.2,0,0,0,7.7,5.9h.4A46.2,46.2,0,0,0,8.6,106.5l1.2,1.7A46.3,46.3,0,1,0,72.5,41.6ZM70.6,5.1c3.7-1.2,5.2,1.7,3.5,5.3a25.6,25.6,0,0,1-15.8,6.2A19.3,19.3,0,0,1,70.6,5.1ZM61.1,35.3V36a42.1,42.1,0,0,0-6.1-1.6,10,10,0,0,0-.8-1.4v-.2a20.9,20.9,0,0,1-2.1-5.6Zm-15-17.9a2.3,2.3,0,0,1,1.6-.6,2.6,2.6,0,0,1,1.5.7,2.5,2.5,0,0,1,.6,1.6,2.4,2.4,0,0,1-.7,1.6,1.8,1.8,0,0,1-1.6.5,1.8,1.8,0,0,1-1.5-.7,2.2,2.2,0,0,1-.6-1.5A2.4,2.4,0,0,1,46.1,17.4ZM21.8,8.5c-1.4-3.7.3-6.5,4-5.1A20.3,20.3,0,0,1,37.2,15.8,25.6,25.6,0,0,1,21.8,8.5ZM42.7,27A24.3,24.3,0,0,1,40,32.9a.1.1,0,0,0-.1.1h-.1l-.7,1a64.2,64.2,0,0,0-6.3,1.5v-.3l.6-.9ZM15.2,105.7l-2.5-3.3a1.9,1.9,0,0,1,1-.3,2.2,2.2,0,0,1,2.2,2.1A2.1,2.1,0,0,1,15.2,105.7Zm3.3-15.6a2.1,2.1,0,0,1,2.1,2.1,2.2,2.2,0,0,1-4.3,0A2.1,2.1,0,0,1,18.5,90.1Zm-.7-6.9a1.1,1.1,0,1,1,0-2.2,1.1,1.1,0,1,1,0,2.2Zm-.9,15.7A1.1,1.1,0,0,1,18,97.7a1.2,1.2,0,0,1,1.2,1.2A1.1,1.1,0,0,1,18,100,1.1,1.1,0,0,1,16.9,98.9Zm10.5,16.7v-6.8H18.1l-.7-.6H33.6c.5,5.2,4.8,9.6,9.6,12A38.6,38.6,0,0,1,27.4,115.6ZM22.8,81.9A2.2,2.2,0,0,1,24.9,84a2.1,2.1,0,0,1-2.1,2.1A2.1,2.1,0,0,1,20.6,84,2.2,2.2,0,0,1,22.8,81.9Zm-1.4-5.3a1.1,1.1,0,0,1,1.2-1.1,1.1,1.1,0,1,1,0,2.2A1.1,1.1,0,0,1,21.4,76.6ZM26.6,88a1.1,1.1,0,1,1,0,2.2,1.1,1.1,0,1,1,0-2.2Zm-.5-6.7a1.1,1.1,0,0,1,1.1-1.1,1.1,1.1,0,1,1,0,2.2A1.1,1.1,0,0,1,26.1,81.3Zm.7,11.6A2.1,2.1,0,0,1,28.9,95a2.1,2.1,0,0,1-2.1,2.1A2.2,2.2,0,0,1,24.6,95,2.1,2.1,0,0,1,26.8,92.9Zm3.5,8.9a2.1,2.1,0,0,1,2.1,2.1,2.1,2.1,0,0,1-2.1,2.1,2.1,2.1,0,0,1-2.2-2.1A2.2,2.2,0,0,1,30.3,101.8Zm-2.7-2.2a1.1,1.1,0,0,1-1.1,1.1,1.1,1.1,0,0,1-1.2-1.1,1.2,1.2,0,0,1,1.2-1.2A1.1,1.1,0,0,1,27.6,99.6ZM24,105.2a1.1,1.1,0,0,1-1.1,1.2,1.2,1.2,0,0,1-1.2-1.2,1.1,1.1,0,0,1,1.2-1.1A1.1,1.1,0,0,1,24,105.2ZM42.7,85.6A12.3,12.3,0,0,0,41,87.8a14.8,14.8,0,0,1-1.7-1.2s-.3-.2,2.1-3.7l-3-.7c-.7,3.4-1,3.2-1,3.2-2.1-1.3-4.4-2.5-4.9-1.4s-.4,1.2,2,2.7l2.6,1.2c-3.5,1.7-2.3,2.9-2.3,2.9s3.4-2.4,3.7-2.3l1.9.8a17.4,17.4,0,0,1-.6,2.2c0,2.5.2,4.7.2,4.7a17.5,17.5,0,0,0-5.4,6.6l-4.2-7c-.3-.5-.1-.8.4-.8h2.5a.5.5,0,0,0,.4-.8l-5.2-8.9c-.3-.4-.1-.7.4-.7h1.9c.6,0,.8-.4.5-.8L23.2,70.1a.6.6,0,0,0-1,0L14.1,83.8a.5.5,0,0,0,.5.8h1.9c.5,0,.7.3.5.7l-5.3,8.9c-.3.4-.1.8.5.8h2.4c.5,0,.7.3.4.8l-3.1,5.3a40.7,40.7,0,0,1,4.3-48.3,14.1,14.1,0,0,0,5.7,2.1,23.7,23.7,0,0,0-.5,9.9,10.5,10.5,0,0,0,1.5,4.3,8.5,8.5,0,0,0,2.9,3.3,7.3,7.3,0,0,0,4.1,1.2,7.6,7.6,0,0,0,4.5-1.5A12.3,12.3,0,0,0,38,68.5a24.5,24.5,0,0,0,2.3-4.9,7.4,7.4,0,0,0,0,2.1,4.2,4.2,0,0,0,1,2,2.1,2.1,0,0,0,1.7.8l1.2-.2a.5.5,0,0,0,.5-.3,6.5,6.5,0,0,0,.6,2.8c1.6,3.7,1.6,3.7,1.6,4.2-4.9-1-5,.8-5,.8,0,1.8,3.7,1.1,3.6,1.7a9.1,9.1,0,0,0-3.8,4.9C44.3,85.2,44.3,85.2,42.7,85.6ZM26.5,55.2A21.7,21.7,0,0,0,33.2,54a12,12,0,0,0,4.3-2.9,23.4,23.4,0,0,1,.1,7,29.8,29.8,0,0,1-1.7,6.7,14.7,14.7,0,0,1-3.1,5,5.3,5.3,0,0,1-3.8,2c-.7.1-1.5-.4-2.2-1.4a11.6,11.6,0,0,1-1.4-4,28.3,28.3,0,0,1,.5-11.2Zm0-1.9A18.8,18.8,0,0,1,29.8,47c1.4-1.6,2.7-2.4,4.2-2.4a1.5,1.5,0,0,1,1.2.4,2.3,2.3,0,0,1,.7,1.3,3.6,3.6,0,0,1-.5,2.1,9.2,9.2,0,0,1-1.8,2.2,11.5,11.5,0,0,1-3.1,1.8A9.3,9.3,0,0,1,26.5,53.3ZM45.7,67c.2-.4.5-.8.7-1.3h0l.3,1.1Zm11.9,34v.2H57l-.3.2h.2l.3.2h.3v.7h-.2l-.4.4h-.6l-1.1-.5h-1l-.3.2-.6.3H53l-.3.2h-.1l.2.2h.6l.3.3h1.4l.6-.2h.9l.2.2.2.2v.6h-.8l.3.2.4.3h.4v.6H57l-.5.2h-.3l-.4-.3-.4-.2H55v1h0l-.4.3h-1v-2.1H53l-.4-.3-.4-.2h-.3l-.2-.2h-.2v2.6h.1l.2.2.2.2.5.4.2.2h.2l.2.2h.1v.5h-.2l-.2.2h-.5l-.2-.2-.2-.2-.3-.2h-.2v1H49.8v-1h-.2l-.2.2-.3.2h-1v-.7h.4l.2-.2h.2l.5-.4h.2l.2-.2h.2v-2.7h-.8l-.4.2-.4.2h-.6v1l-.2.6v.4h-.9l-.5-.4h.1V107h-.4l-.4.2-.4.2h-.4l-.5-.3h0v-.9h.5l.4-.2.4-.2H45l-.2-.2h-.2v-.7l.2-.2.2-.2h.9l.6.3h1.4l.3-.2.6-.2.2-.2h.2l-.3-.2h-.2l-.2-.2H48l-.3-.2-.3-.2H46.2l-.5.2h-1l-.2-.2v-.8h1l-.3-.2-.3-.2h-.4v-.7h.2l.5-.3h.3l.6.4.2.2h.1v-1h0l.5-.3h.9v2.1h.3l.2.2h.3l.6.4.3.2.2.2h.5v-2.1h-.5l-.8-.8-.2-.2h-.3v-.6h1.1l.2.2.2.2.2.2h.1V96.8h1l.4.3h0v.2h0v1.3h.2l.3-.2.2-.2h1v.7h-.3l-.2.2h-.3l-.5.4h-.2l-.2.2h-.2v.2h0v1.9h.5l.3-.2.6-.3.3-.2h.7V99.3h1.2l.2.2h0v.9H56l.6-.3h.6l.2.2h.2v.5ZM49.3,82.6a2.9,2.9,0,0,0,2.7,2,4.1,4.1,0,0,0,2.2-.5c.6-1.1.6-1.1,1.1-1.4l.7.3a3.9,3.9,0,0,1-4.1,2.7h0l-2-.2a6.1,6.1,0,0,1-1.8-2.9A1.1,1.1,0,0,1,49.3,82.6Zm-.7-3.5c0-.6.5-1,1.2-1a1,1,0,0,1,1,1.1,1.4,1.4,0,0,1-.5,1H49A1.3,1.3,0,0,1,48.6,79.1Zm3.5-12.7.4-.9a.5.5,0,0,0,.2-.4v.2a3.8,3.8,0,0,0,.6,1.6h-1C52.2,66.7,52.2,66.5,52.1,66.4Zm1.9,13a1.1,1.1,0,0,1,1.2-1,1.1,1.1,0,0,1,1,1.2,1.5,1.5,0,0,1-.5,1H54.4A1.9,1.9,0,0,1,54,79.4Zm2-13c-.2,0-.3-.1-.4-.3a1.4,1.4,0,0,1-.2-.6,8.6,8.6,0,0,1,0-3.2,62.2,62.2,0,0,1,1.4-6.6c0-.1,0-.2-.1-.2s0-.1-.1-.1H54.2c-.1,0-.2,0-.3.2a51.2,51.2,0,0,0-1.2,6.2h0a31.5,31.5,0,0,1-1.6,3.2c-.7.9-1.1,1.4-1.5,1.4s-.4-.2-.5-.6a8.7,8.7,0,0,1,.2-2.6c.2-1.2.7-3.7,1.7-7.5v-.2h-.3l.6-.6a2.7,2.7,0,0,0,.5-1.4,1.4,1.4,0,0,0-.5-1.2,1.1,1.1,0,0,0-1.1-.3,1.7,1.7,0,0,0-1.1.8,2.1,2.1,0,0,0-.4,1.4,1.2,1.2,0,0,0,.4,1.1l.2.2h-.9l-.2.2c-.6,2.4-1,4.3-1.3,5.6A28.1,28.1,0,0,1,45,65.2q-.7,1.2-1.5,1.2c-.2,0-.4-.2-.5-.6a12.8,12.8,0,0,1,.3-3.6c.4-1.6,1.5-6.3,3.4-14,0-.1,0-.1-.1-.2s0-.1-.1-.1H44.1c-.2,0-.3,0-.3.2-.9,3.8-1.6,6.8-2.2,9a18.7,18.7,0,0,0-.2-5.3,13.6,13.6,0,0,0-1-3.6,12.8,12.8,0,0,0-1.6-2.6,7,7,0,0,0-1.9-1.6,4.6,4.6,0,0,0-1.9-.9l-1.7-.3a9.7,9.7,0,0,0-6.5,2.9A18.6,18.6,0,0,0,22.4,53a8.4,8.4,0,0,1-4.2-2.2,40.4,40.4,0,0,1,60.6,4.7h-.3l-.3.2a2,2,0,0,1-.1.5,2.3,2.3,0,0,0-2.5-1.5,4,4,0,0,0-2.5.9A6.9,6.9,0,0,0,71.3,58a17.1,17.1,0,0,0-.9,3h0a20,20,0,0,1-1.8,3.6c-.6,1-1.1,1.5-1.4,1.5s-.5-.2-.5-.6a8.6,8.6,0,0,1,.1-2.7c.2-1.1.8-3.6,1.7-7.4v-.2h-.6a1.3,1.3,0,0,0,.7-.6,2.3,2.3,0,0,0,.4-1.4,1.3,1.3,0,0,0-.5-1.2,1.1,1.1,0,0,0-1.1-.3,1.9,1.9,0,0,0-1,.8,2.4,2.4,0,0,0-.5,1.4,1.7,1.7,0,0,0,.5,1.2h-.5c-.2,0-.3,0-.3.2l-1.4,5.9c-.6,1.5-1.2,2.3-1.8,2.3a1.1,1.1,0,0,1-1.1-.7,11.9,11.9,0,0,0,.8-6.1,2,2,0,0,0-.6-1.3,1,1,0,0,0-.8-.5c-.7.1-1.2.8-1.6,2.1a11.2,11.2,0,0,0-.2,4.5,6.9,6.9,0,0,0,.5,1.3,12.4,12.4,0,0,1-1.8,2.5C57,66,56.5,66.4,56,66.4Zm21.6-7.9a15.7,15.7,0,0,0-.5,2.5c-1.1,3-2.1,4.4-3,4.5a.7.7,0,0,1-.6-.4,1.9,1.9,0,0,1-.4-1,11.8,11.8,0,0,1,.1-3.2,12,12,0,0,1,1.1-3.5c.6-.9,1.1-1.4,1.8-1.5a1.2,1.2,0,0,1,.9.7A5.3,5.3,0,0,1,77.6,58.5Zm8.7,14H83.5l2.4-1.9A16.2,16.2,0,0,0,86.3,72.5Zm-4.8-5.2-.3,3L79.6,72V69.7Zm-1.9,1.2v-1h.9Zm.5,4.7h2.3l2.4,1.9-3.1-.3Zm1.4,5.2L79.6,76V73.7l1.6,1.6Zm-1.4-5.9,1.6-1.6,3.1-.4-2.4,2Zm4.8-4.8h.2l.6,2-3.2.3,2.3-2.3Zm-1.5-4.4a16.6,16.6,0,0,1,1.2,3.1h-.1a1.1,1.1,0,0,0-.2.8L82,69.5l.4-3.3c0-.1-.1-.3-.2-.3l.6-1.2A9.8,9.8,0,0,0,83.4,63.3Zm-3.8-.7c.1-.8.5-2.3,1-4.6.7,1.2,1.4,2.4,2,3.7a12.6,12.6,0,0,1-1.3,2.6c-.6.9-1,1.4-1.3,1.4a.5.5,0,0,1-.4-.2v-.3a.8.8,0,0,0,.4-.7h-.6A14.1,14.1,0,0,1,79.6,62.6ZM80,81.1a1,1,0,0,0-.4-.7V77.2l2.1,2.5a.2.2,0,0,0,.4.1h0a.3.3,0,0,0,.3-.3L82,76.1l2.3,2.4h0a1.3,1.3,0,0,0,.2.8.8.8,0,0,0,1.1,0,.9.9,0,0,0,0-1.2.6.6,0,0,0-.7-.1h-.1l-2.3-2.4,3.3.4c.2,0,.4-.1.4-.3h0a.2.2,0,0,0-.1-.4l-2.6-2.1h2.9a48.9,48.9,0,0,1,.5,6.6,40.5,40.5,0,0,1-12.5,29.3c-12.3-11.6-12.3-11.6-12.1-13a20,20,0,0,0,.4-2.6,19,19,0,0,1,3.4-1.8s.3-.1,4.4,2.8l1.2-3.2c-3.9-.4-3.6-.5-3.6-.5,1.9-1.1,3.4-2.1,2.7-2.8s-.9-.9-3.2.1l-2.2,1.1c-.4-3.4-1.9-2.9-1.9-2.9-1.6.4,1,3.5.8,3.6l-1.8,1a11.1,11.1,0,0,0-.3-1.8,14.7,14.7,0,0,0-2.7-3c2.4-2.9,2.3-5.4,0-7.8,0,0,0-.5,3.3.6V75.2c-4.7.5-4.7-.1-4.7-.1,1.8-3.4,3-5.4,2.5-6.5s-.5-1.2-2.8-1.3l.3-.2a10.3,10.3,0,0,0,2.3-2.7,2.9,2.9,0,0,0,1.9.8,3,3,0,0,0,1.5-.7v.8a4.4,4.4,0,0,0,1,1.9,2.3,2.3,0,0,0,1.7.7l1.2-.2a4.6,4.6,0,0,0,1-.7,5.7,5.7,0,0,0,1.3-1.9l.3-.7a5.5,5.5,0,0,0,1.1,2.3,2.3,2.3,0,0,0,1.6,1h.5L75.9,70l-3.3-.3-.4.2h0a.4.4,0,0,0,.1.5l2.6,2.1H71.6a.7.7,0,0,0-.7-.4.8.8,0,0,0-.8.7.8.8,0,0,0,.8.8.8.8,0,0,0,.7-.4h3.3l-2.6,2.1c-.1.1-.2.3-.1.4h0c.1.2.2.3.4.3l3.3-.4L73.6,78h0a.8.8,0,0,0-.8.1.9.9,0,0,0,0,1.2.8.8,0,0,0,1.1,0,.9.9,0,0,0,.2-.8l2.3-2.4-.3,3.4c0,.1.1.3.2.3h0c.2.1.4.1.5-.1l2.1-2.5v3.2c-.3.2-.5.4-.5.7a.8.8,0,0,0,.8.8A.7.7,0,0,0,80,81.1Zm-2.8-5.8,1.7-1.6V76l-2,2.4Zm-.5-.5-3,.3,2.4-1.9h2.2Zm1.6-2.3H76.1l-2.4-2,3,.4Zm-1.4-5.2,2,2.4V72l-1.7-1.7Zm2,1.2-2.1-2.6h-.5a.5.5,0,0,0-.2.4l.3,3.3-2-2c.9-.3,1.6-1.2,2.3-2.6h0a3.2,3.2,0,0,0,1,1.8,1.9,1.9,0,0,0,1.2.7Z"/></svg>