<svg xmlns="http://www.w3.org/2000/svg" viewBox="0 0 92.5 125.9"><defs><style>.cls-1{fill:#000001;fill-rule:evenodd;}</style></defs><title>Rachel</title><g id="Layer_2" data-name="Layer 2"><g id="Layer_1-2" data-name="Layer 1"><path class="cls-1" d="M72.3,41.5l.8-.3h0a21.8,21.8,0,0,0,6.6-4.6c4.3-5.1-.8-10.8-.8-16.2s2.4-9.4.4-14.1c-1.2-3-4.1-4.4-7.4-4.5A13.8,13.8,0,0,0,64,3.9C61.9,5.2,51.7,15.6,51.5,15.6a2.5,2.5,0,0,0-1-1.6,2.3,2.3,0,0,0-1.6-.6H46a2.8,2.8,0,0,0-1.3.4c-.6.3-1.2.9-1.2,1.3A58.8,58.8,0,0,0,32.1,2.7,14.8,14.8,0,0,0,24.4,0C21-.1,18,1.1,16.6,4c-2.3,4.5-.3,9.5-.6,14.1s-5.9,10.7-2,16.1c2.2,2.5,4.5,4.8,7.8,5.8h0l.3.2a46.3,46.3,0,1,0,59.2,69.7c1-1.2,2-2.5,2.9-3.8l.3-.4h0l.6-.8.4-.6,1.5-2.6h0l.8-1.5.4-.9a36.8,36.8,0,0,0,1.5-3.5c0-.1.1-.2.1-.4l.4-1a47,47,0,0,0,2.3-14.6A46.1,46.1,0,0,0,72.3,41.5ZM86.8,79.7a33.1,33.1,0,0,1-.4,5.5L77,88a9.1,9.1,0,0,1-2.3.1l-2.1-.4L71.3,87l-.8-.7a1.1,1.1,0,0,1-.2-1.1,2.3,2.3,0,0,1,.7-1.1l.8-.5a8.3,8.3,0,0,0,2,1.6,9.2,9.2,0,0,0,2.7.8,2.5,2.5,0,0,0,2.4-.6,1.8,1.8,0,0,0,.6-1.3,4,4,0,0,0-.9-1.7,5.1,5.1,0,0,0-2.7-1.5,7.8,7.8,0,0,0-3.4-.1,7.5,7.5,0,0,0-1.8.7H68c-1.1-.1-1.7-.2-2-.5s-.1-.4.2-.6a3.1,3.1,0,0,1,1.3-.6l3.4-1a4.7,4.7,0,0,0,1.4-.8,2.3,2.3,0,0,0,.6-1.2,2,2,0,0,0-.6-1.4,1.7,1.7,0,0,0-.6-.6c-.1-.2-.4-.3-.8-.5L69.7,74l7-2h.1l-1.4-1.6h-.3L64.2,73.2l-2.4.2a8.8,8.8,0,0,1-2-.4l-1.3-.6a2.7,2.7,0,0,1-.8-.7,1.1,1.1,0,0,1-.2-1.1,2.6,2.6,0,0,1,.8-1.1,6.7,6.7,0,0,1,2.4-1.2,6.9,6.9,0,0,1,2.8-.3,3.1,3.1,0,0,1,1.8.6c.2.3.2.5,0,.7s-1.1.7-2.2.7-.1.3.1.6a1.7,1.7,0,0,0,1.3.5,2.4,2.4,0,0,0,1.5-.4c.9-.8.9-1.8-.1-2.9a4.6,4.6,0,0,0-2.7-1.5,8.3,8.3,0,0,0-3.5-.1l-1.7.6a14.7,14.7,0,0,1-2.8.2c-1,0-1.5-.1-1.7-.3s-.1-.4.1-.6a5.2,5.2,0,0,1,1.7-.9l5.5-1.7a.1.1,0,0,0,.1-.1h0l-1.4-1.6c-.1-.1-.2-.2-.3-.1h-.4a1.9,1.9,0,0,0-.4-2.3,4.6,4.6,0,0,0-2-1.3,7.7,7.7,0,0,0-2.6-.3,10.5,10.5,0,0,0-2.4.6,31.1,31.1,0,0,1-4.3.3c-1.5,0-2.5-.2-2.8-.6a.4.4,0,0,1,0-.6,1.9,1.9,0,0,1,.8-.7l1.2-.7,1.4-.8,1.1-.8a2.1,2.1,0,0,0,.9-2.2,8.4,8.4,0,0,0,4.2,1.9A4.7,4.7,0,0,0,57.8,53a5.1,5.1,0,0,0,1.7-4.7,10,10,0,0,0-2.7-5.7,18.3,18.3,0,0,0-3-2.7A40.5,40.5,0,0,1,86.8,79.7ZM68.6,99.5H66.2l-1.4,1.5-.7-2.1-2.1-1,2-1.1.2-2.1L66,95.9l2.1-.6-.7,2.4Zm-2-7.8-5.2-4.2,1.2-1.4,3.1.2-1.6-2.8.7-1.8.4.3,1.1.6a6.9,6.9,0,0,0,2.1.1h.7a3.1,3.1,0,0,0-.9,1.8,2.6,2.6,0,0,0,.8,2.4l.7.8,1.1.7a9.4,9.4,0,0,0,1.5.6l2.1.2h-.1a2.1,2.1,0,0,0-.6,1v-.2Zm-9.1,8.2-2,.7-2.8-2.3-.4,3.7-2,1,3.4-10.4-2.3.5,2-2.4,7.3.6-.4,3.4-5.8,3.8Zm-4.4,3.6,1-.7v-1l.9.7,1.1-.3-.3,1.2.6.9H55.3l-.8.8-.3-1.2Zm.5,4.9-2.5-4,1.7.8Zm-7.1-2.1H43l-2.1,2.2-1.1-3.2-3-1.4,2.9-1.8.3-3,2.7,2,3.1-.9-1,3.5Zm-3-11-8.2-7L35,91.4l-.9-1.2,1.2-3.7-2,.2,2.6-3.4,4.9.5-2.9,1.9,7.9,3.2,1.3,5.4Zm-13.4.8,2.2-2.8,2.7.2-.3,5.6-1.3.8-1.1-1.6,1-2.8Zm-5.6-7,2.6-.7-1-.9-2.5.7-1.1-1.1,4.4-1.2L26,85l-3.8,1,.6-2.4-1.3.3s-.2.8-.3,1.4l-.8-.9.5-2a19.4,19.4,0,0,0,.5-2l1.2-.4c-.2.6-.4,1.4-.4,1.4l.9.9.7-2.4,2.8,2.8,1.3-.4-2.5-2.4,5,2.3,1.3,5.1-3.2-2.6v4.1l-3.2,1.9h.1l.4-.4Zm-4.9-4.7c-.9-.9-1.7-1.8-2.6-2.6a2.4,2.4,0,0,0,.2-.8l3.6-1-1.9,1.9Zm-8.2-6.8A31.9,31.9,0,0,1,14,80.2a1.9,1.9,0,0,0-.2.8l-3.5.9,1.8-1.8Zm6.8-3.2,1,1,1.3-.4-1.8-1.7,3.8-1.1.3-1,1.8.9.5,1.6-.9.2-1,3.8-1.8-1.8-.3,1.3,1,1-1.2.3L19.4,77l-1.5-1.5Zm0-4.6c0-.2.2-.3.3-.2a.3.3,0,0,1,.3.3.5.5,0,0,1-.4.3C18.2,70.1,18.1,70,18.2,69.8Zm9.6,1.5h-1l-.6.6-.3-.9-.9-.4.8-.5v-.9l.8.6.9-.3-.3,1Zm.9-23.2H27l-1,1.1-.5-1.5L24,46.9l1.4-.9.2-1.2h.2l1.1.8,1.5-.4-.5,1.7ZM26.2,58l.2-1.3,1.1.9,1.5-.4-.5,1.5.8,1.2H27.7l-.9.9-.5-1.4L25,58.8ZM28,55.4l-2.2-2,2.3-3.1,4.2.3v1.6l-2.3,1.3,1.4.9ZM39.9,44.8A4.2,4.2,0,0,0,43,46.3a3.9,3.9,0,0,0,2.8-.7,1,1,0,0,0,.3-1c0-.3-.1-.3-.2-.2A3.1,3.1,0,0,1,42,44a1.5,1.5,0,0,1-.4-1.4,3.3,3.3,0,0,1,.9-1.4,8.6,8.6,0,0,1,1.9-1.1,10.9,10.9,0,0,1,2.6-.5,10.1,10.1,0,0,1,3,.2A11,11,0,0,1,53.1,41,9.7,9.7,0,0,1,56,43.5a5.4,5.4,0,0,1,1.8,4,4.7,4.7,0,0,1-1.6,3.2,5.3,5.3,0,0,1-3.8,1.2,6.2,6.2,0,0,1-3.9-2.3c-.1-.1-.2,0-.4.2a.9.9,0,0,0,.1,1l.2.2a1.1,1.1,0,0,1-.4,1.1,16.9,16.9,0,0,1-2.6,1.4A11.3,11.3,0,0,0,42.6,55c-1.3,1.1-1.4,2.3-.3,3.5a2.2,2.2,0,0,0,.9.7l-6.1,1.5-3.4-3.2,1.8-2,3.1.2-1.5-2.5.4-1.8h.1a8.9,8.9,0,0,0,3.2-.2,29.3,29.3,0,0,0,3.7-1l3.8-1.3,3.6-1.1a11.3,11.3,0,0,1,3-.4,2.7,2.7,0,0,1,1.9.7c.1.1.1.1.2-.1s.1-.5-.2-.8a4.5,4.5,0,0,0-3.4-1.5,20,20,0,0,0-6.1,1l-4.1,1.1-2.9.4H38.4l-1.2-.4-.7-.7a.4.4,0,0,1-.1-.3c-.1-.2-.1-.2-.1-.3H36c-.1.1-.3.1-.4.3a2.5,2.5,0,0,0-.2,3.5l.3.3-.9.2-2.3-2.1v.8l-2-3,1.5-4.7A44,44,0,0,1,40,39.6a5,5,0,0,0-.9,2.3A3.9,3.9,0,0,0,39.9,44.8Zm8.7,18.4c.7.8,1.9,1.1,3.6,1h0a1.6,1.6,0,0,0-.7,1.4c-.1.1,0,.3,0,.4l-3,.8-2.7-2.5-.5,3.9-1.4.7-2.6-3.7,2.1-5.9a11.9,11.9,0,0,0,5.7.4,3.3,3.3,0,0,0-1,1.7A2.1,2.1,0,0,0,48.6,63.2Zm7.6,9.1.8.7,1,.7,1.5.6h.7l-1.3.3h-.1c0,.1,0,.1.1.2l1,1.1-7.9,2-4.5-3.8,1.9-1.9,3.3.2L51,69.5l.8-2.6H52l.7.7a2.3,2.3,0,0,0,1.1.4h2.5a3.8,3.8,0,0,0-.8,1.7A2.7,2.7,0,0,0,56.2,72.3Zm8.5,6.4a2,2,0,0,0-.8,1.3,1.2,1.2,0,0,0,.2.8l-2.1.6-2.5-1.9-.2,3-2.2,1.2L60,76.3l.3.3c0,.1.1.1.2,0l6.1-1.7a8.5,8.5,0,0,1,2.7-.1,3.7,3.7,0,0,1,1.5.6q.5.8-2.7,1.8l-2.3.8A2.6,2.6,0,0,0,64.7,78.7ZM36.3,73.3l2.1-2.7,6,.4,1.5.6.4,1.5-.9-.5L45,81l-3.1,2-3.1-4.8,2.1-5.9ZM35.8,54h-1l-.6.6-.3-.9-.9-.4.8-.5v-.9l.8.6.9-.3-.3,1.1Zm3.3,13.6H37l-1.3,1.4L35.1,67l-1.8-.9,1.7-1,.2-1.9,1.6,1.2,1.9-.5L38,66Zm-2.9,9.2-.7,2.1,1.1,1.6H34.5l-1.3,1.4-.6-1.9L30.8,79l1.7-1,.2-1.9,1.6,1.2Zm10.1-7,1-.6v-1l.9.6,1.1-.3-.3,1.3.6.9H48.4l-.7.7-.3-1.1Zm4.1-7.1a.7.7,0,0,1-.1-.6c0-.2.2-.4.4-.6A7,7,0,0,1,53,60.2a13.6,13.6,0,0,1,2.9-.6,2.4,2.4,0,0,1,1.9.6.8.8,0,0,1,.1.9,2.6,2.6,0,0,1-1,1.1l-1.9.7C52.5,63.3,50.9,63.3,50.4,62.7ZM31.9,54.6l.8.3.4,2.3-.7-.6-.3,3.9-1.6-2.1Zm.7,14.5.8,3.3-3.3-2.6H30l-.2,1.7-1-1.4.9-2.1Zm-2.8,3.8-.2,3.3-1,.6-1.5.4.6-2.5-1.2.3-.7,2.6-1.5.4,1-3.6.2.6,1.9-2.4Zm-4.3,5.9-.7.5-.2-.2ZM18,78.5l2.5.6-3.5,1-.3-.3h-.3l.9-3.5Zm-2.5.8h-.8l-2.6-2.6,2.5.7,1.8-1.9Zm-1.4,2.5a.8.8,0,0,0,.2.4h.4c-.4,1.2-.7,2.4-1,3.6L13,83.4l-2.5-.6Zm1.4.9.6-.2h.2L18.9,85l-2.5-.7-1.8,1.9Zm14.7,7.4.2-1.1.9.7,1.1-.3L32,90.6l.6.9H31.4l-.7.8-.4-1.1-1.1-.5Zm1,9.4H30.1l-.7.8-.3-1.1-1-.4.9-.6v-1l.9.7,1-.3-.3,1.1Zm-.5,1.4h1.2l-2.2,1.3Zm15.8-16,2.4-1.4.3-2.5,2.1,1.6,2.6-.7L53,84.8,54.5,87l-2.9-.2-1.7,1.8L49,86Zm11-.4,2.1,1,1.1,3.9Zm2.7-.6.7-.4v-.8l.7.5.8-.2-.2.9.4.7h-.9l-.5.5-.3-.8Zm12.5-.7a8.7,8.7,0,0,1,3.2-.6,2.5,2.5,0,0,1,2.1.7c.1,0,.1.1.1.2s-.5.6-1.3.7A5.4,5.4,0,0,1,72.7,83.2ZM70.4,4.9c3.8-1.2,5.2,1.8,3.6,5.4a25.9,25.9,0,0,1-15.9,6.2A20.2,20.2,0,0,1,70.4,4.9ZM60.9,35.2l.2.3a.4.4,0,0,0-.1.3c-2-.6-4-1.2-6-1.6-.3-.4-.5-.9-.8-1.4h-.1a23.5,23.5,0,0,1-2-5.6ZM46,17.3a2.3,2.3,0,0,1,1.6-.6,2.3,2.3,0,0,1,1.5.7,2.3,2.3,0,0,1,.6,1.6,2.1,2.1,0,0,1-.7,1.5,2.5,2.5,0,0,1-1.6.6,2.1,2.1,0,0,1-1.5-.7,1.9,1.9,0,0,1-.6-1.6A1.8,1.8,0,0,1,46,17.3ZM39.8,32.7h0c0,.1-.1.1-.1.2l-.8,1a42.9,42.9,0,0,0-6.2,1.4v-.2l.6-.9,9.4-7.4A23.9,23.9,0,0,1,39.8,32.7ZM21.7,8.3c-1.4-3.7.3-6.5,3.9-5A19.5,19.5,0,0,1,37,15.7,24.9,24.9,0,0,1,21.7,8.3Zm-.9,39.8,2.9,1.2.6,2.1v5.3l-3.7,2.4,4,1.7L26,65l2.5-3.3L32,62v.9l-5.4,3.6,1.8,1-1.3.4-2.5-2.1L24.2,69l-2.5,1.7.8.4-4.1,1.1.4-1.5,2.6-.7.3-1.3-2.5.7.4-1.6-1.1-.3-.4,1.6-1.9-1.9-.4,1.3,1.9,1.9-.4,1.5-3.2-3.3-.4,1.3,2.8,2.8-2.4.6.9,1,1.4-.4L16.1,75l-2.1.6-2,.6-.8-.9,1.3-.3.4-1.3-2.4.6,1-3.8-1-.9L9.4,74,8.2,72.9l.7-2.5-.9-1L7.3,72l-.7-.7A40.6,40.6,0,0,1,20.8,48.1ZM6.3,72.6l.2.2H6.3Zm-.2,1.5,1.3-.4,1.1,1.1-2.6.7C6,75.1,6,74.6,6.1,74.1Zm-.4,5.6c0-1,.1-2,.1-2.9l3-.9-.6,2.5L9.5,78l.3-1.3.9.8L9.6,81.6l-1.1.3.3-1.4-.9-.9L7.2,82,5.7,80.5Zm.1,2.5.6.6-.5.2A2.2,2.2,0,0,1,5.8,82.2ZM6,84.1l.7-.2-.5,2A11,11,0,0,1,6,84.1Zm24.8,30.5-2.4,1.5a40.7,40.7,0,0,1-21.8-28h.2l1-3.8L9.6,86l.3-1.3-.9-1,1.1-.3,1.5,1.5,1.5,1.5-.3,1.1-1-.9-1.3.3,1.8,1.8-3.8,1L8.2,91l4.4-1.2-.4,1.5L9.6,92l-.3,1.2,2.6-.7-.5,1.6.6.2h.5l.5-1.6,1.8,1.9.4-1.3-1.9-1.8.4-1.5L17,93.3l.3-1.3-2.8-2.7,2.4-.7-.9-.9-1.4.3.3-1.1,2.1-.6,2-.5.8.8-1.3.4-.3,1.3,2.4-.7-1,3.8.9.9,1.2-4.4L22.8,89l-.7,2.6.9.9.7-2.6,1.2,1.2.2-.2,3.6,1.8.7,2.7-1.5-1.2-.3,2.9L25,99l2.8,1.3.7,2.3-2.6,2.1,9.8,4.1,1,3.4-2.5.8-3-2.5Zm3.2,2.7-.8.8h0l-.4-1.1-1.2-.5,1.1-.7v-1.2l1,.8,1.2-.4-.4,1.4.7,1Zm3.2-3,1.1,4-1.9-2.6Zm39.6-8.9h.8a3.9,3.9,0,0,1-.8,1h-1a.7.7,0,0,0-.7.7.8.8,0,0,0,.4.7,9.4,9.4,0,0,1-1,1l-.3.4a40.4,40.4,0,0,1-27.9,11.1,38.2,38.2,0,0,1-9-1h1.5l6.6-8.2,10.4.7L54,108.9l1.9-3,3.6.3L57.6,103l1.2-2.7,2.5,1.2,1.9,7.1,4.7-5.7,6.1.4a.4.4,0,0,0,.1.3.8.8,0,0,0,1,.2l2.7-1.7,1.2.3-2.6,1.7C75.8,104.4,76.1,105.4,76.8,105.4Zm-3.4-5a.5.5,0,0,1,.5-.3c.1.1.3.3.2.4s-.2.3-.4.3h-.2Zm.8,1.3.4-.3,1.2.3-1.2.7Zm2.4-.6c.1-.1.3-.3.5-.2s.3.2.2.4-.2.3-.4.3A.5.5,0,0,1,76.6,101.1Zm3.3,1.1c0-.1-.1-.2,0-.3s.2-.3.4-.3h0Zm1-1.4-.5-.8.7.4Zm-2.2-3.4a.7.7,0,0,0-.9,1c.5.9,1,1.8,1.6,2.7l-1.3-.3-1.6-2.7a.7.7,0,0,0-1-.3.7.7,0,0,0-.3,1,13,13,0,0,0,1,1.5l-1.3-.3-1-1.7a.7.7,0,1,0-1.2.8l.3.4h-.3l-1.5-2.4,2.4-6.7c0,.2-.1.3-.1.4a1.9,1.9,0,0,0,.4,1.5l.8.7,1.1.4h2.4l.2.2,1.7.9c.1.4.3.8.4,1.2l-1.6-.8a.7.7,0,0,0-1,.3.9.9,0,0,0,.3,1L81,97.7a5.6,5.6,0,0,1,.4,1.2Zm1.6-4.3h.3c.1.1.2.1.2.3s0,.3-.2.4l-.4-.2C80.1,93.3,80.2,93.2,80.3,93.1Zm1.2,3.7c-.1.1-.3,0-.4-.2a.3.3,0,0,1,.2-.4.4.4,0,0,1,.5.2C81.8,96.6,81.7,96.8,81.5,96.8Zm1,1a.7.7,0,0,0-.1-.5l1.5-2.8a.8.8,0,0,0-.2-1,.7.7,0,0,0-1,.3l-.9,1.5-.3-1.2.9-1.7a.7.7,0,0,0-.3-1,.6.6,0,0,0-.9.3l-.3.4h-.1l-.3-1.1a.8.8,0,0,0-.9-.5c-.4.2-.6.6-.4.9a2.9,2.9,0,0,0,.2.9H77.2a2.2,2.2,0,0,1-1.6-.5.5.5,0,0,1,.1-.6A7.9,7.9,0,0,1,78.3,90L86,87.7A39,39,0,0,1,82.5,97.8Z"/></g></g></svg>