<svg xmlns="http://www.w3.org/2000/svg" viewBox="0 0 92.5 125.9"><defs><style>.cls-1{fill:#000001;fill-rule:evenodd;}</style></defs><title>Stephanie</title><g id="Layer_2" data-name="Layer 2"><g id="Layer_1-2" data-name="Layer 1"><path class="cls-1" d="M92.5,78.9v-.5A45.9,45.9,0,0,0,72.3,41.5l.8-.3h0a21.8,21.8,0,0,0,6.6-4.6c4.3-5.1-.8-10.8-.8-16.2s2.4-9.4.4-14.1c-1.2-3-4.1-4.4-7.4-4.5A13.8,13.8,0,0,0,64,3.9C61.9,5.2,51.7,15.6,51.5,15.6a2.5,2.5,0,0,0-1-1.6,2.3,2.3,0,0,0-1.6-.6H46a2.8,2.8,0,0,0-1.3.4c-.6.3-1.2.9-1.2,1.3A58.8,58.8,0,0,0,32.1,2.7,14.8,14.8,0,0,0,24.4,0C21-.1,18,1.1,16.6,4c-2.3,4.5-.3,9.5-.6,14.1s-5.9,10.7-2,16.1c2.2,2.5,4.5,4.8,7.7,5.8h.1l.3.2A46.4,46.4,0,0,0,0,79.7a45.9,45.9,0,0,0,8.5,26.7L9.7,108a47.4,47.4,0,0,0,14.4,12.3l2.3,1.2a45.7,45.7,0,0,0,19.9,4.4,47.1,47.1,0,0,0,12.5-1.7l2-.6a44.1,44.1,0,0,0,8-3.5l1.7-1a46.1,46.1,0,0,0,22-39.4Zm-6-1.6-.3-4.8a39.1,39.1,0,0,1,.5,4.8ZM83.8,64.4c.5,1.2.9,2.4,1.3,3.7v.3a11.4,11.4,0,0,1-.9,1.9l-1,1a1.8,1.8,0,0,1-.8.5.9.9,0,0,1-1.1-.1,2.3,2.3,0,0,1-.8-1.2l-.3-.9a12.5,12.5,0,0,0,1.9-1.5,7.2,7.2,0,0,0,1.4-2.4A3.5,3.5,0,0,0,83.8,64.4Zm-1.9.3A5.4,5.4,0,0,1,80,68.5a10.1,10.1,0,0,1,.1-3.5c.3-1.1.7-1.7,1.2-1.9h.2C81.8,63.3,81.9,63.8,81.9,64.7Zm-1.7,8.8a2.3,2.3,0,0,0,2.4.2l.9-.5a2.2,2.2,0,0,0,.9-.8,3,3,0,0,0,.9-1.3,2,2,0,0,0,.4-.8c0,.2.1.3.1.5l-3.5,5.7-4.9-1h.1a3.5,3.5,0,0,0,.6-.9,7.2,7.2,0,0,0,.5-2,1.5,1.5,0,0,0,.1-.7A4.6,4.6,0,0,0,80.2,73.5Zm2.6-11.4-.5-.2a3.6,3.6,0,0,0-1.7.2,4.4,4.4,0,0,0-2,2.2,8.2,8.2,0,0,0-.9,3.5,11.1,11.1,0,0,0,.2,1.9,18.6,18.6,0,0,1-.5,3c-.3,1-.5,1.5-.7,1.6s-.4,0-.6-.3a8.7,8.7,0,0,1-.4-2.2c-.1-1.1-.3-3.3-.4-6.7,0-.1,0-.2-.1-.2H75a.8.8,0,0,0,.2-.5,1.9,1.9,0,0,0,0-1.3,1,1,0,0,0-.6-.8.8.8,0,0,0-.9.1,1.5,1.5,0,0,0-.6.9,2.8,2.8,0,0,0,0,1.3,1.2,1.2,0,0,0,.6.9h0l-.4.2a.2.2,0,0,0-.2.2c.1,2.3.2,4,.3,5.2a17.2,17.2,0,0,1-.6,3.4,3.6,3.6,0,0,1-.9,1.9c-.2.1-.4,0-.5-.4a4.3,4.3,0,0,1-.3-1.5c-.1-.8-.1-2.1-.2-3.9a4.3,4.3,0,0,0-.4-1.7,2.1,2.1,0,0,0-1-1.1,1.9,1.9,0,0,0-1.5,0l-.5.3-.2-1,2.7.8-.5-2.1L66.7,65l-.3-1.4,2.7.8-.5-2.1-2.8-.8-.7-2.9,1.2.3a1.3,1.3,0,0,0,.3,1.2,1.3,1.3,0,0,0,1.9,0,1.3,1.3,0,0,0,0-1.8,1.1,1.1,0,0,0-1.2-.4L67,56.7l2.9.8.7,2.8,2.1.6L72,58.1l1.4.4.7,2.8,2.1.6-.7-2.8,1.4.4.8-.8-.3-1.1L76,57.3l2-2-2.1-.6-2,2-1.4-.4,2.1-2-2.2-.6-2,2-2.9-.8.9-.9a1.3,1.3,0,0,0,1.2.3,1.3,1.3,0,0,0,.9-1.6,1.1,1.1,0,0,0-1.5-.9,1.3,1.3,0,0,0-1,.9l-1.2-.4L69,50.2l2.7.8,1.5-1.4h.1A40.7,40.7,0,0,1,82.8,62.1ZM64.1,75a16.8,16.8,0,0,1-.6,3.7c-.2,1-.4,1.5-.7,1.6s-.3,0-.5-.4a7,7,0,0,1-.4-2.1c-.1-.9-.3-3-.4-6.2h-.2l-1.8.7-.2.3a1,1,0,0,1,.1.4,1.8,1.8,0,0,0-2.3-.5A3.5,3.5,0,0,0,55.5,74a5.8,5.8,0,0,0-.9,2.5,13.1,13.1,0,0,0,0,2.8h0a24,24,0,0,1-.5,3.2,3.6,3.6,0,0,1-.9,1.9c-.2.1-.4-.1-.6-.4a5.1,5.1,0,0,1-.2-1.6,29.9,29.9,0,0,1-.2-3.9,7.5,7.5,0,0,0-.4-1.6,2.2,2.2,0,0,0-1-1.1,1.9,1.9,0,0,0-1.5,0l-.7.4a1.7,1.7,0,0,0-.6.6,4.1,4.1,0,0,0-.7,1.1L47,70.1v-.2h-.1l-1.8.8h0c-.5-1.1-.8-2.2-1.3-3.3l-.9-2.1c-.1-.4-.7-1.6-.8-2l1.1-.8a11.6,11.6,0,0,1,1.6,1.1l-.3-1.8.8-.6.4-.2c.3-.2.3-.1.4-.3l-1.9-.2-.2-1.8,2.9-1.6c.8-.5,4.3-2.4,4.6-2.7s-.3-.1-.7-.2l1.6-1.6,1.3.4-2,2,2.1.6,2.1-2,2.9.8-.9.9a1.1,1.1,0,0,0-1.2-.3,1.2,1.2,0,0,0-1,1.5,1.3,1.3,0,0,0,1.6,1,1.2,1.2,0,0,0,.9-.9l1.3.4-2.2,2.1-2.8-.8-1.5,1.6,2.7.7-1,1-2.7-.8-1.6,1.6,2.7.7-1,1.1.3,1,1,.3,1.1-1,.7,2.8,1.5-1.6L55.9,63l1-1,.7,2.8,1.6-1.6-.7-2.7,2.2-2.2.3,1.2a1.6,1.6,0,0,0-.9.9,1.4,1.4,0,0,0,.9,1.7,1.5,1.5,0,0,0,1.6-.9,1.4,1.4,0,0,0-.3-1.3l.9-.9.8,3-2.1,2,.6,2.1,2-2,.4,1.4-2.1,2,.6,2.1,2-2,.4,1.3-1.8.8c-.1,0-.1.1-.1.2Zm-5.7,6.8a.5.5,0,0,1-.6-.1c-.2-.1-.3-.3-.5-.7a9,9,0,0,1-.6-2.7,11.3,11.3,0,0,1,.1-3.2c.2-1,.5-1.6,1-1.8s.5,0,.8.3a3.5,3.5,0,0,1,.9,1.5,12.8,12.8,0,0,0,.1,2.1C59.5,80,59,81.5,58.4,81.8Zm-15.6.4a4.2,4.2,0,0,0-1.5-1.9,2,2,0,0,0-2-.2,2.7,2.7,0,0,0-1.4,1.7v-.6h-.2l-1.9.8a.4.4,0,0,0-.1.3l.2,5.6a13,13,0,0,1-.4,2.1,3.8,3.8,0,0,1-.9,1.8,3.5,3.5,0,0,1-.9,1.1l-.8.5a.9.9,0,0,1-1.1-.1,3.6,3.6,0,0,1-.8-1.2,3,3,0,0,1-.4-1,8.1,8.1,0,0,0,2-1.4A7.2,7.2,0,0,0,34,87.1a4.2,4.2,0,0,0,0-2.7,2.1,2.1,0,0,0-1.2-1.1,2.6,2.6,0,0,0-1.7.2A4.1,4.1,0,0,0,29,85.7a7.8,7.8,0,0,0-.8,3.5,14.9,14.9,0,0,0,.2,2.1,14.6,14.6,0,0,1-.5,2.7,2.6,2.6,0,0,1-1.1,1.6c-.2.1-.4,0-.5-.4a7.2,7.2,0,0,1-.5-2c0-.8-.2-2.8-.3-5.8l1.3-.6c.1,0,.1-.1.1-.2V85.5c-.1-.1-.1-.1-.1-.2h-.1l-1.3.5c0-1-.1-2.7-.2-5.1H25l-1.8.8a.4.4,0,0,0-.1.3c.1,2.5.2,4.3.2,5.2l-.9.4a.2.2,0,0,0-.2.2v1.2h.2l.8-.4c.2,2.8.3,4.7.4,5.5a8.1,8.1,0,0,0,.5,2.1,3.3,3.3,0,0,0,1.2,1.4,1.6,1.6,0,0,0,1.5.2l.9-.6a2.2,2.2,0,0,0,.7-.9,5.2,5.2,0,0,0,.6-2,1.5,1.5,0,0,0,.1-.7,3.6,3.6,0,0,0,1.1,1.3l-.3.3v.2l-.3.7-.8,1.4-.3.7-.4.7-.4.6h0l-1.5-.8-1.5-.8L23.4,97h-.1a6.5,6.5,0,0,0-.7-2.9,7.1,7.1,0,0,0-1.3-2.2l-2.4-2.6-1.8-1.9a12,12,0,0,0,3.2-4,4.6,4.6,0,0,0,.3-3.9,3,3,0,0,0-1.8-1.7h0l.2-.2a.7.7,0,0,0-.3-.8L17.3,76,17,75l1.3.7a.6.6,0,0,0,.8-.3c.2-.3,0-.6-.3-.8l-2.3-1.2c0-.4-.2-.7-.2-1l2.2,1.2a.6.6,0,0,0,.8-.8l-1.4-2.2,1,.2,1.4,2.3a.8.8,0,0,0,.8.2.5.5,0,0,0,.2-.8c-.2-.4-.5-.8-.7-1.3l1,.3.8,1.3a.5.5,0,0,0,.8.2.4.4,0,0,0,.2-.7c-.1-.2-.1-.3-.2-.4l1,.2a.6.6,0,0,0,.3-1.1l-1-.3.3-.2a.6.6,0,1,0-.6-1l-1.4.8-1-.2,1.3-.8c.3-.1.3-.5.2-.8a1,1,0,0,0-.9-.2,16.4,16.4,0,0,1-2.2,1.4l-1-.2,2.1-1.4a.5.5,0,0,0-.3-1H17.5l.7-.7h2.6a.6.6,0,0,0,.6-.6.6.6,0,0,0-.6-.6H19.3l.8-.8h1.6a.6.6,0,0,0,0-1.2h-.5a2.7,2.7,0,0,0,.7-.8H22l2.1.3a7.8,7.8,0,0,1,.2,1.6l-1.6.7c.4.4,1.3.4,1.8.6s.2,1.4.4,1.8l.9-1.5a4.2,4.2,0,0,1,1.6.4c0,.6-.1,1.6-.1,2.3v6.8h.1l1.5-1.9h0l.6-.7.7-.9L31.5,70a15.8,15.8,0,0,0,1.3-1.8,15.4,15.4,0,0,1,1.7.5v2l.6-.6c.8-1,.8-.7,1.3-.5l.9.2c-.1-.4-.6-.9-.7-1.4s1.1-1.1,1.3-1.1l1.9,1.1c.9.4,2.2,1.3,2.8,1.6a4.7,4.7,0,0,1,1,.5l1.4.8L45.3,83a19.1,19.1,0,0,1-.6,4.3A3.7,3.7,0,0,1,43,89.4a10.1,10.1,0,0,0,.6-3.6A9.6,9.6,0,0,0,42.8,82.2ZM34.5,97.6v4.9h-.1l-.5.6-.5.5-.5.5-.5.6h0v-.2l-.3-1.6v-.4l-.5.6-.4.6-.3.4-.4-1.2-.5-1.8h0l.4-.7.3-.7.4-.7.8-1.4.3-.7.4-.6h0v-.2a.7.7,0,0,0-.1-.6l.7-.2.9-.5.9-.8a6,6,0,0,0,.9-1.3l.3-.7v3.9H34.9a.7.7,0,0,0-.4.6h0c0,.1-.1.2,0,.2ZM30.6,86.4c.3-1.1.6-1.7,1.1-1.9H32c.3.2.4.7.4,1.6a5.3,5.3,0,0,1-2,3.7A12.7,12.7,0,0,1,30.6,86.4Zm-5.3,26.2-.5.5H23.4c-1.2-.9-2.4-1.8-3.5-2.8H20l.6-.3.6-.4.6-.4.6-.4.6-.4h0l1.1.3,1,.2,1,.2-.5.4-.5.5-.6.5h2.4l-.2.2-.9,1.1Zm1.6-6.2h0l-1.1-.2-1-.3-.9-.2-2.6-4.1.5-.4a5.1,5.1,0,0,0,.9-1.6l1.4.7,1.5.8,1.5.8h.2v.4l.7,2v.5l-.8-.3-1.2-.4h-.3ZM13.1,85.7a7,7,0,0,0,.9,1.7l-.3.2a13.6,13.6,0,0,1-2.5.7,5.5,5.5,0,0,1-1.9-.2,2.7,2.7,0,0,1-1.4-.7,2.4,2.4,0,0,1-1-1,2.7,2.7,0,0,1-.6-1.2L6.1,85a45.5,45.5,0,0,1-.4-5.3A42.4,42.4,0,0,1,7.3,68.3l.3-.2,1,.3-1.3.8a.6.6,0,0,0-.1.8.6.6,0,0,0,.8.1l2.2-1.3,1,.2L9.1,70.3a.6.6,0,0,0,.3,1.1h2.5a2.7,2.7,0,0,1-.7.8H8.6a.6.6,0,0,0-.6.6.6.6,0,0,0,.6.6h1.5l-.7.8H7.8a.6.6,0,1,0,0,1.2h.4l-.7.7a.7.7,0,0,0,0,.9.5.5,0,0,0,.8-.1l.8-.7v.4a.6.6,0,0,0,.6.6.6.6,0,0,0,.6-.6,9.2,9.2,0,0,1-.1-1.6l.7-.8a7.6,7.6,0,0,0,.1,1.5.5.5,0,0,0,.6.5.6.6,0,0,0,.5-.6V72.9l.7-.8v2.6a.6.6,0,0,0,1.1.2l1.2-2.2.3,1L14.2,76a.6.6,0,1,0,1,.6l.7-1.3.3,1-.7,1.4c-.2.2-.1.5,0,.7l-.7.6a6.1,6.1,0,0,0-1.4,1.7,6.2,6.2,0,0,0-.8,2.4A6,6,0,0,0,13.1,85.7ZM9.3,68a.3.3,0,0,1,.3-.3c.2.1.3.2.2.4s-.2.2-.3.2S9.2,68.1,9.3,68Zm4.3-.3.3.8-.8-.2L12.3,67Zm-.3-3.3c-.2.1-.3,0-.4-.2s.1-.3.2-.3.3,0,.4.2S13.4,64.4,13.3,64.4Zm3.1,4h1.4l-1.2.8-.8-.2Zm-.1-1.2a.2.2,0,0,1,.4-.1c.1.2.1.3,0,.4a.2.2,0,0,1-.4.1C16.2,67.4,16.2,67.3,16.3,67.2Zm1.2,2.7c0,.2-.2.3-.3.2s-.3-.2-.2-.3.2-.3.3-.2S17.6,69.8,17.5,69.9Zm-1.2.3.8,1.3-1.3-.7-.3-.8Zm.4,6.8c0-.1.1-.3.2-.3s.3,0,.4.1-.1.4-.2.4S16.8,77.2,16.7,77Zm1.1.6Zm-1.5-3c-.1.1-.3,0-.3-.2a.2.2,0,0,1,.1-.3c.2-.1.4,0,.4.2S16.5,74.6,16.3,74.6Zm-.6-2.9c.1.1,0,.3-.2.3s-.3,0-.3-.2,0-.3.2-.3S15.7,71.5,15.7,71.7ZM15,68.1l-.2-.7.7-1.3v1.5Zm.2.8a.6.6,0,0,1-.1.8.6.6,0,0,1-.9-.1.5.5,0,0,1,.2-.8A.5.5,0,0,1,15.2,68.9Zm-.5,2.2L14,72.4V70.9l.6-.5ZM14,67c-.1.1-.3,0-.3-.2s0-.3.2-.3.3,0,.3.2S14.2,67,14,67Zm-1.5,1.7c-.1.2-.2.3-.4.2s-.2-.2-.2-.3.2-.3.3-.2A.3.3,0,0,1,12.5,68.7Zm.3.7.8.2-.5.5H11.6Zm.3,1.9a.2.2,0,0,1-.4.1.5.5,0,0,1,0-.5.3.3,0,1,1,.4.4Zm-1.8,2a.3.3,0,0,1-.4-.4c.1-.1.2-.1.4,0A.3.3,0,0,1,11.3,73.3Zm-1.9,2a.3.3,0,1,1,0-.4A.3.3,0,0,1,9.4,75.3Zm5.8,5.9a3.9,3.9,0,0,1,1.9-2.1c.2.2.4.3.6.2h.2c.2.1.3.3.5.5a4.6,4.6,0,0,1-.2,3A7.4,7.4,0,0,1,16,86.1l-1-1.7A3.6,3.6,0,0,1,15.2,81.2Zm4.4-10.8c0-.1.2-.2.4-.2s.2.2.2.3-.2.3-.4.3A.5.5,0,0,1,19.6,70.4Zm2.6.6a.5.5,0,0,1,.4-.2.5.5,0,0,1,.2.4l-.3.2C22.3,71.3,22.2,71.2,22.2,71Zm-4-5.8c.1-.1.2-.1.4,0a.3.3,0,1,1-.4.4A.2.2,0,0,1,18.2,65.2Zm2.2-2.8v-.2h0Zm0,1.2a.3.3,0,1,1,0-.4A.3.3,0,0,1,20.4,63.6Zm4.9-5.4,1.6-.9,1.5-1v-.4l1.7-.2a9.8,9.8,0,0,0,.5,1.6h.1c.3-.4.3-1.3.6-1.8l1.7-.2a6.5,6.5,0,0,0-1.6-.9,10.4,10.4,0,0,0,.6-1.6l.6.3.3-.3.3-.4c.1-.2,0,0,.2-.2l2.2-2.8.3-.3,1.2-1.5c.1-.2.1-.3.3-.2s-.4,6-.2,7l.9.2a.1.1,0,0,1,.1.1,9.1,9.1,0,0,0-.7,1.4l-1.6-.2a9.4,9.4,0,0,1,1,1.4,4.1,4.1,0,0,0-.7,1.5l1.9-.5c.2.3.7.6.8.9l-.6.4c.2.9,2.7,6.6,2.6,6.7s-.6-.2-.7-.2l-.8-.5-3.2-1.8-1.6-.9h-.3c-.5-.3-.6-1-1.1-1.3s.8-1,1-1.4l-1.8.3-1-1.3c-.3,2.1.1,1.6-1.2,2s-.5.3-.6-.3l-1.9-.2-1.8-.2-3.7-.5c0-.2.1-.2.3-.3S24.3,58.7,25.3,58.2ZM24,55.6a6.1,6.1,0,0,1,1.9-.1c-.1.2,0,.1-.2.3l-1.9,1A2.5,2.5,0,0,1,24,55.6Zm7.6-3.1a3.8,3.8,0,0,1-1.2,1L29,52.7a1.9,1.9,0,0,0,.3,1,2.5,2.5,0,0,0,.3.7c-.4.2-1,1-1.4,1l-1.1-3a28.5,28.5,0,0,1-1.1-3,3.7,3.7,0,0,1,1.4.7Zm-1.5-3.6.9-.2a15.6,15.6,0,0,1,.6,1.5l-1.4-.9C29.9,49.2,29.5,49,30.1,48.9Zm2,.3c.1-.9-.1-.7.7-.9h.6c0,.2-.1.3-.3.5a12.7,12.7,0,0,1-1,1.2C32,49.6,32.1,49.5,32.1,49.2ZM40,52.4l.9-.4c.4-.1.3.1.5.3l.3.5c-.2.2-.6.1-1,0l-1-.2C39.8,52.4,39.7,52.5,40,52.4Zm.2-1.3c-.1.2,0,.1-.1.2l-.3.4c-.5.7-.2.7-.6.7a14.6,14.6,0,0,1,0-2.1c.1-.7.4-.2.6,0l.6.5C40.3,51.2,40.4,50.9,40.2,51.1Zm-.9,3.6,5.6.8-.2.2h-.2l-.3.3-4.6,2.7a5,5,0,0,1-.2-1.2l.7-.6.7-.5-1.3-.3h-.4C38.8,54.6,38.7,54.6,39.3,54.7Zm2.2,5.5c0-.3,0-.2.8-.6a2.4,2.4,0,0,1,1-.5c.1.4-.5,1.3-.5,1.3A2.7,2.7,0,0,1,41.5,60.2Zm.8,1.3-.4,1.1c-.4-.1-.3-.1-.4-.4l-.2-.5c-.1-.4-.3-.7-.4-1.1s.5.2.8.4A1.5,1.5,0,0,1,42.3,61.5ZM37.1,67a3,3,0,0,1-1.3.2l-.5-1.1c-.1-.3,0-.1,0-.2h.2l1.2.7C37,66.7,37,66.7,37.1,67Zm-3.7.5.6-.7c.2-.3.4-.8.7-.8v1.5c-.4.1-1.1.4-1.4.3S33.2,67.8,33.4,67.5Zm-.2-3.1-2.4,2.9c-.3.3-.9,1.1-1.1,1.1V62a3.7,3.7,0,0,1,1.5.4v1.9l1.2-1.5,1.6.6c0,.3,0,.2-.2.4l-.3.3Zm-5.8-.9h0a13.2,13.2,0,0,1,0,2c-.2,0-.8-.7-1.1-.9S27.2,63.5,27.4,63.5Zm-1.3,0-.7.4a2,2,0,0,1-.6-1.1h0a7.1,7.1,0,0,1,2,.2C26.7,63.3,26.8,63.1,26.1,63.5ZM60.5,52l2,.5,1.6-1.4.5,2,2.1.6-1.5,1.5.5,2.1-2.1-.5-1.5,1.4-.6-2-2-.6L61,54Zm.8-8.2,1.3-1.2.9.4,2,1h.1l1.5.9.6.4L67,46h-.1l.8,2.7-2.2,2.1-.3-1.2a1.3,1.3,0,0,0,.9-.9,1.3,1.3,0,0,0-.9-1.6,1.4,1.4,0,0,0-1.7.9,1.6,1.6,0,0,0,.4,1.3l-1,.8-.7-2.9,2-2v-.5l-.4-1.6-1.1,1-1,1-.3-1.4ZM71,48.2l.3-.3,1.8,1.5h-.3l-2.2-.6Zm-1.2-1.5-.5.5h-.1v-.2l-.3-1H69ZM66.4,69.2l-.3.7v-.8Zm4-64.3c3.8-1.2,5.2,1.8,3.6,5.4a25.9,25.9,0,0,1-15.9,6.2A20.2,20.2,0,0,1,70.4,4.9ZM60.9,35.2l.2.3a.4.4,0,0,0-.1.3c-2-.6-4-1.2-6-1.6-.3-.4-.5-.9-.8-1.4h-.1A29.2,29.2,0,0,1,52,27.1ZM46,17.3a2.2,2.2,0,0,1,1.5-.6,2.4,2.4,0,0,1,1.6.7,2.3,2.3,0,0,1,.6,1.6,2.1,2.1,0,0,1-.7,1.5,2.5,2.5,0,0,1-1.6.6,2.6,2.6,0,0,1-1.6-.7,2.2,2.2,0,0,1-.5-1.6A1.8,1.8,0,0,1,46,17.3Zm.3,21.8a42.6,42.6,0,0,1,8,.8,29,29,0,0,1,4.2,1.2h.1l.3,1-2.7-.7.3,1.1.2,1,2.7.8.4,1.3L57,44.9l.6,2.1,2.7.8.8,2.9-1.2-.3a1.4,1.4,0,0,0-.4-1.3,1.3,1.3,0,0,0-1.8,0,1.4,1.4,0,0,0,0,1.9,1.3,1.3,0,0,0,1.2.3l.3,1.3-2.9-.8L55.6,49l-2.1-.6.7,2.8-1.4-.4L52.1,48,50,47.4l.7,2.8-1.4-.4-.8.8.3,1,1.4.4-1.9,1.8H47L42.5,53c0-.4-.2-1.1-.2-1.5l1.7-.7-1.5-.5-.3-1.9a7.1,7.1,0,0,0-1,1.4l-1.9-.6.3-7V40.6l-.2.2-1.4,1.7-1.7,2.2h-.2l-2.3,2.9-.4-.2L32.4,47V45.2a2.3,2.3,0,0,0-.7.7l-.7.7a6.9,6.9,0,0,0-1.5-.7c.1.5.6,1.2.7,1.6s-.8,1.1-1.1,1.2l-2-1.2L26,46.8l-1.8-1.1.8-.5,2.6-1.5A38.1,38.1,0,0,1,38.2,40l1.3-.3A38.2,38.2,0,0,1,46.3,39.1Zm-6.5-6.4h0c0,.1-.1.1-.1.2l-.8,1a42.9,42.9,0,0,0-6.2,1.4v-.2l.6-.9,9.4-7.4A23.9,23.9,0,0,1,39.8,32.7ZM21.7,8.3c-1.4-3.7.3-6.5,3.9-5A19.5,19.5,0,0,1,37,15.7,24.9,24.9,0,0,1,21.7,8.3Zm.8,38.6a9.1,9.1,0,0,1,.6,1.6c.7,1.8,1.6,4,1.6,4.1s-1.2,1-1.5,1l-1.5-.8.6,1.7-.6.4a6.5,6.5,0,0,0-.9.8h1.9l.5,1.5c-.1.2-7.2,4-7.7,4.5l3.7.5v1.5l-.7.8V62.9a.5.5,0,0,0-.7-.5.6.6,0,0,0-.5.6,22.6,22.6,0,0,0,.1,2.6l-.7.7a20.1,20.1,0,0,1-.1-2.5.6.6,0,0,0-1.1-.2l-1.2,2.2-.3-1,1.2-2.3a.5.5,0,0,0-.2-.8.5.5,0,0,0-.8.2,8.3,8.3,0,0,1-.7,1.3l-.3-1,.8-1.4a.8.8,0,0,0-.2-.8.5.5,0,0,0-.8.2l-.3.4-.3-1a.6.6,0,1,0-1.1.3l.3,1-.4-.2a.6.6,0,0,0-.5,1.1l1.4.7.3,1-1.3-.7a.6.6,0,1,0-.5,1.1l2.3,1.2.3,1-2.3-1.2a.5.5,0,0,0-.7.8l1.3,2.2-1-.3L9.1,65.4a.6.6,0,0,0-.7-.2A40.7,40.7,0,0,1,22.5,46.9ZM12.7,61.5c0,.1-.1.3-.2.3s-.3,0-.4-.2.1-.3.2-.3S12.6,61.3,12.7,61.5ZM8.1,66l.8,1.3-1-.3H7.8ZM7,89.5l1.1.4a6.6,6.6,0,0,0,2.8,0,14.6,14.6,0,0,0,3.6-1.1l.4-.2c.4.4.9,1.1,1.8,2a21.2,21.2,0,0,1,2,2.4A9.8,9.8,0,0,1,20,95.2a5,5,0,0,1,.3,4.1,5.4,5.4,0,0,1-.7,1.3h-.1l-.4.2-.3.3-.3.2c0,.1-.1.2-.1.3l-.6.3a3.1,3.1,0,0,1-2.8-.2,4.9,4.9,0,0,1-2.3-2.6,2.4,2.4,0,0,1-.2-1.8,1.5,1.5,0,0,1,.8-1.1,2.7,2.7,0,0,1,2.1.2A3.2,3.2,0,0,1,17,97.8c0,.1.1.1.3-.1a1.1,1.1,0,0,0,0-1.1,5.2,5.2,0,0,0-2.2-2.2,3.9,3.9,0,0,0-3.3-.2A3.9,3.9,0,0,0,10,96.5c0,.3-.1.7-.1,1A36.3,36.3,0,0,1,7,89.5Zm6.4,13.9a4.6,4.6,0,0,0,2.3.6,8.5,8.5,0,0,0,3.1-.6h.3l2,3.1-.3.2-.6.4-.6.4-.6.4-.7.4-.5.3-.5-.5-2.2-2.4Zm13.2,11.7.3-.2.5-.6.5-.5.5-.5.4-.5.2,1.3.2.9.3-.3.4-.6.4-.6.4-.5.5,1.6.4,1.3v.3l-.4.7-.2.3-3.6-1.7Zm6.9,3.1h0l.5.2h-.5Zm5.8,1.4h.1l.2-.4V119a.3.3,0,0,0,.1-.2.9.9,0,0,0-.5-.8H39l-1.5-.8-1.5-.8-1.5-.8h-.2V115l-.7-2-.2-.6.9.2,1.2.5h0l-.9-2h.3l1.1.3,1.1.2.6.2,2.9,4.6h.2l.4.3h.7l.5-.3h.3l.3-.3a.4.4,0,0,0,.1-.3.9.9,0,0,0-.1-.7l-.9-1.4-1.7-2.8.3-.2.7-.4.6-.4.6-.3.6-.4.6-.4.6-.4h.1a.8.8,0,0,0,.4-.4h0a.8.8,0,0,0-.1-.7l-.5-.8a.9.9,0,0,0-.6-.4H43l-.4.2-1.2.8-.6.4-.6.3-.6.4-.6.4-.6.4-.4.2h-.4l-1-.3-1.1-.2H35l.3-.3.5-.4.5-.5.6-.4-1-.2H34.8l.5-.6.5-.5.5-.5.5-.6h6a.9.9,0,0,0,.4-.6h0a.4.4,0,0,0,.1-.3v-.9h0a.9.9,0,0,0-.6-.8H37.3v-1l1.1-.5.2-.2-.5-12.5a11.5,11.5,0,0,1,.4-4.1c.2-.9.6-1.5.9-1.6s.7.1,1,.8a11,11,0,0,1,.7,3.7,10.5,10.5,0,0,1-.3,3.7,2,2,0,0,0-1.1,0,1.1,1.1,0,0,0-.7.6,1.4,1.4,0,0,0,.1,1.1,1,1,0,0,0,.5.6,1.1,1.1,0,0,0,.7.2l.7-.3.5-.3v-.2l1.5-.5,1.1-.5.8-.8a4.7,4.7,0,0,0,.5-1h.1v.7h.2l1.8-.8c.1,0,.1-.1.1-.2l-.2-6.9a6.8,6.8,0,0,1,.5-2.7c.3-.7.6-1.2.9-1.3s.9,1,1.1,3.5a14.2,14.2,0,0,0,.2,2.6,3.7,3.7,0,0,0,.4,1.4,2.7,2.7,0,0,0,1,1.3,1.7,1.7,0,0,0,1.4,0l.8-.5a2.9,2.9,0,0,0,.8-1,6,6,0,0,0,.6-2,1.5,1.5,0,0,0,.1-.7,4,4,0,0,0,1.4,1.7,1.7,1.7,0,0,0,1.8.1,1.3,1.3,0,0,0,.7-.6l-2.9,18-8.5-4.5,4.8,8.8-9.7,3.8,9.6,3.5-3.8,7.4H46.3A40.5,40.5,0,0,1,39.3,119.6Zm26.5-12.7-.5,2.1.6,2.1-3.8-1.9Zm-3.7.1,1.4-4.4,5.3-3.3L66.2,105Zm4.2,6.2.6,1.3L64.2,116l-.8-.4-1.6-4.5Zm.2-4.4,2.1-1.4,4,1.3-3.9,1.7Zm-12.3-1.6,4,2.1-4.3,2,1.1-2.1Zm3.9-.2L54,105.4l-2.7-5.5,5.1,2.8Zm-.3-4.7,2.3,1,1.9-1.1-2,4.7Zm-3.9,10.9,4.2-2.3-1.6,4.4-5.3,3.1Zm6.1-1.7,1.9,3.9-2.1-.9-1.9.9Zm-.3,4.6,1.3,1.4-2.7.9Zm.4-13.8L58,99.8l1.9-10.3,2.2,10.4Zm-6.7,6.8-2.1,1.5-4.5-1.4,4.7-1.8Zm-1.8,10.8,4.9-3,.6,1.9A48.6,48.6,0,0,1,51.6,119.9Zm16.5-6.1-.7-1.6,6.3-2.7A39.6,39.6,0,0,1,68.1,113.8Zm7.3-5.9-8-2.7,4.7-10-8.2,5.5L59.8,82.2a7.5,7.5,0,0,0,.4-1.6h0a2.8,2.8,0,0,0,1.1,1.3,1.6,1.6,0,0,0,1.5.1l.8-.5a2.9,2.9,0,0,0,.6-1h.1v.7a.1.1,0,0,0,.1.1h.1l1.8-.7.2-.3-.3-6.9a9,9,0,0,1,.6-2.7c.3-.7.6-1.2.9-1.3s.9,1,1,3.5.1,2.1.2,2.6a7.4,7.4,0,0,0,.4,1.4,2.4,2.4,0,0,0,1.1,1.3,1.5,1.5,0,0,0,1.3,0,2.6,2.6,0,0,0,.9-.5l.7-1a5.7,5.7,0,0,0,.7-2h0v.2a2.8,2.8,0,0,0,1.2,1.2,1.5,1.5,0,0,0,1.1.2l3.7,4-3.8,6,6.5-2.9L86.1,87A40.7,40.7,0,0,1,75.4,107.9Z"/></g></g></svg>