<svg xmlns="http://www.w3.org/2000/svg" viewBox="0 0 92.5 125.9"><defs><style>.cls-1{fill:#000001;}</style></defs><title>Virginia</title><g id="Layer_2" data-name="Layer 2"><g id="Layer_1-2" data-name="Layer 1"><path class="cls-1" d="M37.5,55.4a2.4,2.4,0,0,0,.9-.6,3.1,3.1,0,0,0,.5-1c0-.4,0-.7-.2-.9a.8.8,0,0,0-.8-.2,1.4,1.4,0,0,0-.9.5,1.9,1.9,0,0,0-.5,1,.9.9,0,0,0,.2.9A1,1,0,0,0,37.5,55.4Z"/><path class="cls-1" d="M58,55.8a1.5,1.5,0,0,0,.9-.6,2.1,2.1,0,0,0,.6-1c0-.4,0-.7-.2-.9a.8.8,0,0,0-.8-.2,1.4,1.4,0,0,0-.9.5,1.6,1.6,0,0,0-.5,1,.9.9,0,0,0,.2.9A.9.9,0,0,0,58,55.8Z"/><path class="cls-1" d="M71.9,56.1a2.4,2.4,0,0,0,.9-.6,1.4,1.4,0,0,0,.5-1,.9.9,0,0,0-.2-.9.6.6,0,0,0-.7-.2,1.1,1.1,0,0,0-.9.5,2.1,2.1,0,0,0-.6,1c0,.4,0,.7.2.9A1.1,1.1,0,0,0,71.9,56.1Z"/><path class="cls-1" d="M72.3,41.5l.8-.3h0a21.8,21.8,0,0,0,6.6-4.6c4.3-5.1-.8-10.8-.8-16.2s2.4-9.4.4-14.1c-1.2-3-4.1-4.4-7.4-4.5A13.8,13.8,0,0,0,64,3.9C61.9,5.2,51.7,15.6,51.5,15.6a2.5,2.5,0,0,0-1-1.6,2.3,2.3,0,0,0-1.6-.6H46a2.8,2.8,0,0,0-1.3.4c-.6.3-1.2.9-1.2,1.3A58.8,58.8,0,0,0,32.1,2.7,14.8,14.8,0,0,0,24.4,0C21-.1,18,1.1,16.6,4c-2.3,4.5-.3,9.5-.6,14.1s-5.9,10.7-2,16.1c2.2,2.5,4.5,4.8,7.7,5.8h.1l.3.2A46.4,46.4,0,0,0,0,79.7a45.9,45.9,0,0,0,8.5,26.7L9.7,108A46.2,46.2,0,1,0,72.3,41.5Zm5.9,31.6-1.6,1.6-3.1.3,2.4-1.9Zm-4.7-2.7,3.1.3,1.6,1.6H75.9Zm3.6,4.8,1.6-1.6v2.3l-1.9,2.3Zm0-5-.3-3.1,1.9,2.4v2.3Zm-.5-4.4c-.1-.1-.3-.2-.4-.1h0c-.2,0-.3.2-.3.4l.4,3.3L74,67.1h0v-.4h.1c.9,0,1.8-.7,2.7-2h0a2.4,2.4,0,0,0,.4,1.5,2.1,2.1,0,0,0,1.2.5h.3v1.6Zm1.7-5.6a10.3,10.3,0,0,0-.7,1.7c-1.2,2.2-2.1,3.2-2.8,3.2s-.3-.1-.4-.3a1.2,1.2,0,0,1-.2-.7,7.9,7.9,0,0,1,.5-2.4A14.6,14.6,0,0,1,76,59.2c.6-.7,1.1-1,1.5-1s.5.2.7.5A6.6,6.6,0,0,1,78.3,60.2Zm1.1,9.3,2-2.4L81,70.2l-1.6,1.6Zm0,4.1L81,75.2l.4,3-2-2.3Zm.6-.5h2.2L84.6,75l-3-.3Zm0-.8,1.6-1.6,3-.3-2.4,1.9Zm4.7-4.7H85c.2.6.3,1.3.5,2l-3.1.3,2.3-2.3Zm1,2.8a16.2,16.2,0,0,1,.4,1.9H83.4Zm-1.3-4.1a.8.8,0,0,0-.2.8l-2.3,2.3.3-3.3c0-.2-.1-.4-.2-.4h-.5l-2.1,2.6V66.7l.8-.5a8.1,8.1,0,0,0,1.1-1.3l1.5-2.5h0l-.5-.6c0-.1,0-.1-.1,0a19.1,19.1,0,0,1-1.9,2.8,3.8,3.8,0,0,1-.9.9h-.3c-.2,0-.3-.1-.3-.4a3.1,3.1,0,0,1,.1-.9l.3-1L81,58.9a37.7,37.7,0,0,1,3.5,7.3ZM70.4,4.9c3.8-1.2,5.2,1.8,3.6,5.4a25.9,25.9,0,0,1-15.9,6.2A20.2,20.2,0,0,1,70.4,4.9ZM60.9,35.2l.2.3a.4.4,0,0,0-.1.3c-2-.6-4-1.2-6-1.6-.3-.4-.5-.9-.8-1.4h-.1A29.2,29.2,0,0,1,52,27.1ZM46,17.3a2.2,2.2,0,0,1,1.5-.6,2.4,2.4,0,0,1,1.6.7,2.3,2.3,0,0,1,.6,1.6,2.1,2.1,0,0,1-.7,1.5,2.5,2.5,0,0,1-1.6.6,2.6,2.6,0,0,1-1.6-.7,2.2,2.2,0,0,1-.5-1.6A1.8,1.8,0,0,1,46,17.3Zm-24.3-9c-1.4-3.7.3-6.5,3.9-5A19.5,19.5,0,0,1,37,15.7,24.9,24.9,0,0,1,21.7,8.3ZM42.6,26.9a23.9,23.9,0,0,1-2.8,5.8h0c0,.1-.1.1-.1.2l-.8,1a42.9,42.9,0,0,0-6.2,1.4v-.2l.6-.9Zm-22,21.4A40.4,40.4,0,0,1,80.5,58H79.4a.2.2,0,0,0-.2.2l-.2.3a1.6,1.6,0,0,0-1.6-1.2,3.1,3.1,0,0,0-2,.7,6.5,6.5,0,0,0-1.7,1.6,22.6,22.6,0,0,0-1.1,2.2h0a11.7,11.7,0,0,1-1.8,2.6c-.6.7-1,1-1.2,1s-.3-.1-.3-.4a6.3,6.3,0,0,1,.4-2L72,57.5h0a.1.1,0,0,0-.1-.1H69.8l-1.7,4.2a27,27,0,0,1-1.8,2.5c-.7.8-1.1,1.1-1.5,1.1s-.3-.1-.3-.4a6.3,6.3,0,0,1,.4-1.4c.3-.6.7-1.6,1.3-3.1a4,4,0,0,0,.3-1.5,1.7,1.7,0,0,0-.4-1.2,1.7,1.7,0,0,0-1.2-.5h-.7l-.8.3a2.4,2.4,0,0,0-.9.6l.3-.7h0a.1.1,0,0,0-.1-.1H60.6l-1.7,4h0A19.1,19.1,0,0,1,57,64c-.6.7-1,1.1-1.3,1.1a.5.5,0,0,1-.3-.5,6.7,6.7,0,0,1,.5-1.9c.3-.9,1-2.7,2.2-5.5.1,0,.1-.1,0-.1s0-.1-.1-.1H56.2c-.1,0-.2,0-.2.1l-1.7,4h0a13.4,13.4,0,0,1-2,2.9c-.9.2-1.2.7-1.2,1.2l-1.3,1.1a.4.4,0,0,1,.1-.3l3.6-8.4h0c0-.1,0-.1-.1-.1H51.6c-.1,0-.2,0-.2.1l-.2.4a1.6,1.6,0,0,0-1.7-1.2,3.9,3.9,0,0,0-2,.6A6.5,6.5,0,0,0,45.9,59a9.1,9.1,0,0,0-1.1,2.2v.2a15.7,15.7,0,0,1-1.2,1.9,9.6,9.6,0,0,1-1.1,1.3l-.6.4a.5.5,0,0,1-.3-.5c0-.8.7-2.7,2.1-5.6a1,1,0,0,0,.2-.7,2,2,0,0,0-.1-.7,1.3,1.3,0,0,0-.5-.6l-.5-.5-.7-.5-.2-.2v-.2a1.4,1.4,0,0,0-.2-.7.6.6,0,0,0-.6-.3.9.9,0,0,0-.6.3,1.2,1.2,0,0,0-.3.9.8.8,0,0,0,.4.7,35.7,35.7,0,0,1-2.2,4.4,19.1,19.1,0,0,1-1.9,2.8c-.6.7-1,1-1.3,1s-.3-.1-.3-.4a7.1,7.1,0,0,1,.5-2c.3-.8,1-2.6,2.2-5.4.1,0,.1-.1,0-.1s0-.1-.1-.1h-2l-.3.8H35a21.7,21.7,0,0,0,.7-2.4,13.5,13.5,0,0,0,.6-3.7,6.1,6.1,0,0,0-.2-1.5,2.6,2.6,0,0,0-.7-1,2,2,0,0,0-.8-.4l-.8-.2-.7.2c-.2.1-.3.2-.3.4a.4.4,0,0,0,.1.3l.3.3a2.2,2.2,0,0,1,.3.8,6.6,6.6,0,0,1,.1,1.5,17.6,17.6,0,0,1-1,5.2,26.6,26.6,0,0,1-2.3,5.4,18.9,18.9,0,0,1-3,4.1,5.1,5.1,0,0,1-3.2,1.7,1,1,0,0,1-.5-.4,2.5,2.5,0,0,1-.2-1,17.8,17.8,0,0,1,.8-3.7,29.7,29.7,0,0,1,1.5-4.5l1.5-4.4a14.4,14.4,0,0,0,.7-3.2,3.3,3.3,0,0,0-.9-2.5,3.5,3.5,0,0,0-2.5-.9,10.9,10.9,0,0,0-4,.7h.1ZM38.3,82c-.7,3.5-1,3.3-1,3.3-2.1-1.4-4.5-2.6-4.9-1.4s-.5,1.2,2,2.6l2.5,1.2c-3.4,1.7-2.2,3-2.2,3s3.3-2.5,3.6-2.3l2,.8c-.1.1-.1.1-.7,2.2s.3,4.7.3,4.7a18.9,18.9,0,0,0-5.5,6.6l-4.2-7.1a.5.5,0,0,1,.5-.8h2.4c.5,0,.7-.3.5-.7l-5.3-8.9a.5.5,0,0,1,.5-.8h1.9c.5,0,.7-.3.5-.8L23.3,70.4h0a6.8,6.8,0,0,0,3.2-.9A11.8,11.8,0,0,0,29.6,67a24.5,24.5,0,0,0,2.6-3.5,21.5,21.5,0,0,0,1.4-2.6v.2h0a1.6,1.6,0,0,0-.3.8,6.4,6.4,0,0,0-.5,2,2.5,2.5,0,0,0,.5,1.5,1.4,1.4,0,0,0,1.2.6h.8l.9-.6A3.8,3.8,0,0,0,37.4,64l1.1-1.7h0l.3-.5v-.2h0q1.6-2.8,2.4-4.5c.4.3.6.6.5.9a1.1,1.1,0,0,1-.1.5A30.9,30.9,0,0,0,40,62.2a5.9,5.9,0,0,0-.4,2.1,2.1,2.1,0,0,0,.4,1.4,1.4,1.4,0,0,0,1.2.6H42a2.4,2.4,0,0,0,.9-.6,5.8,5.8,0,0,0,1.2-1.4l.3-.4a2.7,2.7,0,0,0,.4,1.6,1.9,1.9,0,0,0,1.5.8,2.1,2.1,0,0,0,1.6-.7l-.2.4a2.5,2.5,0,0,0-.2.7c-.2.4-.3.7-.4.7l-1,.3-1.5.3h-.1l-1.2.3a1.9,1.9,0,0,0-1,.5l-.4.6a1.5,1.5,0,0,0-.2.9,1.8,1.8,0,0,0,.6,1.7,2.2,2.2,0,0,0,1.7.7h1.2l.6-.3c1,2.1,1,2.2.9,2.5-4.8-.9-4.9.9-4.9.9-.1,1.8,3.7,1.1,3.5,1.7a8.7,8.7,0,0,0-3.7,4.8c2.5,2.8,2.5,2.8,1,3.3a8.5,8.5,0,0,0-1.7,2.2l-1.8-1.2s-.3-.2,2.2-3.8ZM26.6,96.9a2.1,2.1,0,0,1-2.1-2.1,2,2,0,0,1,2.1-2,2.1,2.1,0,1,1,0,4.1Zm.9,2.5a1.1,1.1,0,0,1-1.2,1.1,1.1,1.1,0,0,1,0-2.2A1.1,1.1,0,0,1,27.5,99.4ZM22.6,86a2.1,2.1,0,0,1-2.1-2.1,2.1,2.1,0,0,1,2.1-2.1,2.1,2.1,0,0,1,2.2,2.1A2.2,2.2,0,0,1,22.6,86Zm1.3,19.1a1.1,1.1,0,0,1-1.2,1.1,1.1,1.1,0,0,1,0-2.2A1.1,1.1,0,0,1,23.9,105.1Zm-.3-28.6a1.1,1.1,0,0,1-1.2,1.1,1.1,1.1,0,0,1,0-2.2A1.1,1.1,0,0,1,23.6,76.5Zm2.9,11.3a1.1,1.1,0,0,1,1.1,1.1,1.2,1.2,0,0,1-1.1,1.2,1.2,1.2,0,0,1-1.2-1.2A1.1,1.1,0,0,1,26.5,87.8Zm-.6-6.6a1.2,1.2,0,1,1,2.4,0,1.2,1.2,0,0,1-2.4,0Zm4.2,20.5a2.1,2.1,0,0,1,2.2,2.1,2.2,2.2,0,0,1-2.2,2.1,2.1,2.1,0,0,1-2.1-2.1A2.1,2.1,0,0,1,30.1,101.7Zm15-31.2a2.2,2.2,0,0,1-1.4.6l-.5-.2c-.1-.2-.2-.3-.2-.5s.2-.5.6-.7l1.1-.3L46,69h.3A5.5,5.5,0,0,1,45.1,70.5Zm5.6,8.6a1.3,1.3,0,0,1-.6,1H48.9a1.5,1.5,0,0,1-.5-1,1.2,1.2,0,0,1,2.3.1Zm-1.6,3.4a3,3,0,0,0,2.7,2,6,6,0,0,0,2.3-.5c.6-1.2.6-1.2,1-1.4a1.6,1.6,0,0,1,.8.3,4.1,4.1,0,0,1-4.1,2.7h0l-2-.2a6.7,6.7,0,0,1-1.8-3A.9.9,0,0,1,49.1,82.5Zm2.6-15.6h-.6l.3-.3C51.5,66.7,51.7,66.8,51.7,66.9Zm-5.3-3.3a9.2,9.2,0,0,1,.5-2.5,13.6,13.6,0,0,1,1.3-2.4c.5-.7,1-1.1,1.5-1.1s.5.2.6.6a3.4,3.4,0,0,1,.2,1.5l-.8,1.8c-1.2,2.1-2.1,3.1-2.7,3.1a.5.5,0,0,1-.5-.3A1.5,1.5,0,0,1,46.4,63.6Zm11.1,37.3h-.3l-.3.2h.4v.6h-.1l-.5.3h-.5l-1.1-.5H53.8l-.6.3-.4.2H53l.3.2.3.2.3.2H55l.6-.2h.9l.2.2v.9h-.9l.4.2.4.3h.4v.8h-.2l-.4.2H56l-.3-.2-.4-.3h-.5v.9h0l-.5.3h-.5l-.3-.2h-.1v-2.2h-.5l-.4-.2-.3-.3h-.7v2.5h.4l.2.2.4.4.3.2.2.2H53l-.2.6H52l-.2-.2-.3-.2-.2-.2h-.2v1.2H49.6v-1.2h-.2l-.3.2H49l-.2.2h-.5l-.2-.2h-.2V109H48l.2-.2h.2l.3-.2.5-.3.2-.2h.4V105h-.1l-.4.2h-.4l-.3.2-.5.2h-.5v2.1h-1L46,108h0l.2-.6v-.3h-.5l-.4.2-.4.2h-.3l-.5-.3H44v-.6h0l.2-.2h.2l.4-.2.4-.2h0l-.3-.2h-.4V104l.3-.2h.9l.5.2.3.2h1l.2-.2h.3l.5-.3h.6l-.2-.2h-.2l-.2-.2h-.7l-.4-.3-.3-.2H46.1l-.6.2h-.9l-.2-.2-.2-.3v-.5h.9l-.3-.2-.3-.2h-.3v-.7h.1l.4-.2h.3l.6.4h.4v-.9h0l.5-.3h.9v2.1h.5l.2.2.7.4.2.2.3.2h.4v-2.2H50l-.2-.2-.9-.8h-.2v-.2h-.1V98h.2l.2-.2h.6l.2.2.3.2h.3V96.8h0v-.2h1l.5.3h0v1.5h.4l.3-.2.2-.2h.5l.2.2h.1v.6H53l-.2.2-.5.4h-.6v1.9h0v.2h.8l.7-.3.3-.2H54v-.8l.2-.6V99h.9l.2.2.2.2h.1v.9h0l.9-.4h.3l.2.2.3.2h.1v.5Zm-2-20.5H54.3a1.7,1.7,0,0,1-.5-1.1,1.2,1.2,0,0,1,1.2-1,1,1,0,0,1,1.1,1.1A1.3,1.3,0,0,1,55.5,80.4Zm-2-13.6H52.3c-.2-.2-.4-.4-.4-.6H52l1.1-1.3h.4a1.3,1.3,0,0,0,.4,1H54A1.4,1.4,0,0,1,53.5,66.8ZM5.7,79.7a40.4,40.4,0,0,1,7.8-23.9h0a6.8,6.8,0,0,0-.3,1.9,5.1,5.1,0,0,0,1.1,3.4,3.4,3.4,0,0,0,2.6,1.4,3.8,3.8,0,0,0,2.9-1.4,4.2,4.2,0,0,0,1.3-2.8,1,1,0,0,0-.4-.9c-.3-.2-.4-.2-.4,0a3.4,3.4,0,0,1-.8,1.9,2.6,2.6,0,0,1-1.9.9,1.4,1.4,0,0,1-1.2-.6,3.2,3.2,0,0,1-.4-1.8,8,8,0,0,1,1.2-4,11.4,11.4,0,0,1,3-3.5A6.2,6.2,0,0,1,23.9,49c.7,0,1.2.1,1.4.4a1.2,1.2,0,0,1,.4,1.1,11.1,11.1,0,0,1-.8,3l-1.8,4.3a32.7,32.7,0,0,0-1.8,4.7,13.2,13.2,0,0,0-.9,4.2,4.1,4.1,0,0,0,.8,2.7l.8.7h0L14,83.6c-.3.5-.1.8.4.8h1.9c.6,0,.8.4.5.8l-5.3,8.9c-.2.4,0,.7.5.7h2.4c.6,0,.8.4.5.8l-3.1,5.3A39.5,39.5,0,0,1,5.7,79.7Zm6.9,22.5,1-.2a2.1,2.1,0,0,1,1.5,3.6C14.2,104.5,13.4,103.4,12.6,102.2Zm4.1-3.5a1.1,1.1,0,0,1,1.2-1.1,1.1,1.1,0,0,1,0,2.2A1.1,1.1,0,0,1,16.7,98.7Zm1.6-4.6A2.1,2.1,0,0,1,16.2,92a2,2,0,0,1,2.1-2,2.1,2.1,0,1,1,0,4.1Zm-.6-11a1.1,1.1,0,1,1,0-2.2,1.1,1.1,0,1,1,0,2.2Zm9.6,32.4v-6.8H18l-.7-.7H33.5c.4,5.2,4.8,9.7,9.6,12.1A39.7,39.7,0,0,1,27.3,115.5ZM74.2,109c-12.3-11.6-12.3-11.7-12-13s.3-2.7.3-2.7,1.7-.8,3.5-1.7c0,0,.3-.2,4.3,2.7l1.2-3.2c-3.9-.3-3.6-.5-3.6-.5,1.9-1,3.5-2.1,2.7-2.8s-.9-.9-3.1.1l-2.2,1.2c-.4-3.4-2-3-2-3-1.6.5,1,3.5.8,3.6l-1.7,1A12.4,12.4,0,0,0,62,89a10.7,10.7,0,0,0-2.6-3c2.3-2.9,2.2-5.5-.1-7.8,0,0,0-.6,3.3.5V75c-4.6.5-4.7,0-4.7,0,1.8-3.4,3-5.5,2.6-6.5s-.5-1.4-3.1-1.3-3.5-.2-3-.5.2-.3.2-.4h1.2l.9-.5.2-.2-.2.6c-.1.1-.1.1,0,.1s0,.1.1.1h2l2.4-5.6a7.9,7.9,0,0,1,1.5-1.9,1.9,1.9,0,0,1,1.2-.7c.5.1.4,1.1-.4,3.1a16.8,16.8,0,0,0-.9,2.2,5,5,0,0,0-.2,1.2,2.6,2.6,0,0,0,.4,1.4,1.5,1.5,0,0,0,1.1.6h.9l1-.5a6,6,0,0,0,1.3-1.4h.1a2.4,2.4,0,0,0,.4,1.5,3.4,3.4,0,0,0,1.2.6h.9l.9-.6a8.1,8.1,0,0,0,1.2-1.3l.3-.5a3.5,3.5,0,0,0,.5,1.8.3.3,0,0,1,.1.2h-.1a.7.7,0,0,0-.2.8c0,.1.1.2.2.3a.7.7,0,0,0,.7.2h.1l2.3,2.3-3.3-.4c-.2,0-.4.1-.4.3h0c-.1.2-.1.3.1.4l2.6,2.1H71.5a1,1,0,0,0-.7-.4.8.8,0,0,0,0,1.6,1,1,0,0,0,.7-.4h3.3l-2.6,2.1c-.2.1-.2.2-.1.4h0c0,.2.2.3.4.2l3.3-.3-2.3,2.3h-.1a.7.7,0,0,0-.7.2.7.7,0,0,0,0,1.1.8.8,0,0,0,1.1,0,1.1,1.1,0,0,0,.2-.8L76.3,76l-.4,3.3c0,.2.1.3.3.4h0c.1.1.3,0,.4-.1L78.7,77v3.3a.8.8,0,0,0-.4.7.8.8,0,0,0,.8.8.9.9,0,0,0,.8-.8.8.8,0,0,0-.5-.7V77l2.1,2.6a.4.4,0,0,0,.5.1h0a.5.5,0,0,0,.2-.4L81.9,76l2.3,2.3h0a.8.8,0,1,0,.5-.5h0l-2.3-2.3,3.3.3c.2.1.3,0,.4-.2h0c.1-.2,0-.3-.1-.4l-2.6-2.1h2.9a46.5,46.5,0,0,1,.5,6.6A40.2,40.2,0,0,1,74.2,109Z"/></g></g></svg>