<svg xmlns="http://www.w3.org/2000/svg" viewBox="0 0 92.8 126.2"><defs><style>.a{fill:none;stroke:#000001;stroke-miterlimit:10;stroke-width:0.28px;fill-rule:evenodd;opacity:0.98;}</style></defs><title>Ambers</title><path class="a" d="M92.6,78.5A46.3,46.3,0,0,0,72.5,41.6l.8-.3h0a19.9,19.9,0,0,0,6.5-4.5c4.3-5.2-.8-10.8-.7-16.2s2.4-9.5.4-14.1S75.4,2.1,72,1.9A14.6,14.6,0,0,0,64.1,4c-2,1.4-12.3,11.7-12.4,11.7a3.4,3.4,0,0,0-1-1.6,3,3,0,0,0-1.6-.5h-3a3.1,3.1,0,0,0-1.3.3c-.6.4-1.1,1-1.1,1.3-3.3-4.4-7.2-9.1-11.5-12.4A14.5,14.5,0,0,0,24.5.1c-3.3,0-6.3,1.1-7.7,4.1s-.3,9.5-.7,14-5.8,10.7-1.9,16.1a17.2,17.2,0,0,0,7.7,5.9h.4A46.2,46.2,0,0,0,8.6,106.5l1.2,1.7a46.6,46.6,0,0,0,14.5,12.3l2.3,1.1a45.3,45.3,0,0,0,19.8,4.5A47.3,47.3,0,0,0,59,124.4l2-.7a39.6,39.6,0,0,0,7.9-3.5l1.7-.9A46.5,46.5,0,0,0,92.7,79.8V79A1.1,1.1,0,0,0,92.6,78.5ZM70.6,5.1c3.7-1.2,5.2,1.7,3.5,5.3a25.6,25.6,0,0,1-15.8,6.2A19.3,19.3,0,0,1,70.6,5.1ZM64.5,43.6l-1.2.7V43l.4.2Zm-2.4,1.6-1.5,1-.3-4.4c.3.1.6.1.8.3l.8.3Zm-1-9.9V36a42.1,42.1,0,0,0-6.1-1.6,10,10,0,0,0-.8-1.4v-.2a20.9,20.9,0,0,1-2.1-5.6ZM59.2,46.2l-2.6-1.3v1.5l1.5.8-1.2.7-2.2-1.1-2.1-1.1V44.3l1.4.8,1.3-.9-2.6-1.3,3.7-2.4,2.3.7.7.2-.4.3Zm-6,7.9c0-.1.1-.1.1-.2h.1l3.8,1.9-3,.2-1.4,2.7c-.1-1.4-.2-2.9-.2-4.3Zm-.7-3.4h-.1l-.3-4.3L53.8,49l3-.2-3.6,2.3-.4-.3h-.3Zm1.4,2.2a2.8,2.8,0,0,0-.1-.9l3.6-2.4L56,52.4l1.6,2.5ZM52.4,39.7l2,.4h.2L52,41.8V40ZM52,65.1l-2.6,1.7v1.5l2.6-1.6v1.8h1.3V66.6L56.1,68V66.4l-2.7-1.3V63.3l4.7,2.4V64.1l-4.1-2,2.4-1.6-1.4-.7-1.3.9V59.3L55.5,58l2-1.4,1.2.7-1.3.8v1.6l2.4-1.6.3,4.5,1.3.7L61.2,58l1.6.8.2,3.1,1.4.7-.2-3.1,1.7.9.3-.6a3,3,0,0,1,.3-.6l-1.7-.9,2.6-1.7L66,56l-2.6,1.6-1.6-.8,4.5-2.9-1.4-.7-3.8,2.5-.2-2.9-1.3.9s.1.9.1,1.6l-1.2-.6c0-.9-.1-1.7-.1-2.5s-.1-1.6-.2-2.4l1.2-.8c0,.7.1,1.6.1,1.6l1.3.7V48.4l4.1,2.1,1.2-.8-4.7-2.4,1.5-1,2.7,1.4,1.3-.9-2.7-1.4,1.5-1-.2-.4h.3l1.5.9,1.5.9.4.3A40.6,40.6,0,0,1,85.9,70.6h-.1L81.6,70a7.1,7.1,0,0,1-.1-1.4l1.5-.7-1.4-.5-.3-1.8-1,1.3-1.7-.5.4-8.1-.2.2-3,3.6c0,.1,0,0-.1.1h0L73.5,65l-.3-.2c-.3-.1-1-.3-1.1-.5V62.6l-.7.6-.6.7a5.2,5.2,0,0,0-1.5-.6c.1.5.6,1.1.7,1.5s-.7,1-1.1,1.1l-1.8-1.1-5.4-3.3a17.2,17.2,0,0,0,.7,2.1c.3.7,2.3,5.7,2.3,6s-1.1.9-1.3.9L62,69.8l.6,1.6-.6.4c-.2.1-.7.4-.8.7h1.7l.6,1.4c-.2.2-6.9,3.8-7.3,4.2l3.4.5-7.7,5.8-.5.3a21.8,21.8,0,0,1-3.8,1.8c-1.3.4-2.1.6-2.5.4a.6.6,0,0,1,0-.8,4.5,4.5,0,0,1,1.4-1.4l3.7-2.9a6.4,6.4,0,0,0,1.4-1.5,2.2,2.2,0,0,0,.4-1.7A2.3,2.3,0,0,0,50.9,77l-.8-.4-1-.2a3.3,3.3,0,0,0-1.4,0l-1.9.6c1-1.4.9-2.5-.4-3.2a5,5,0,0,0-4.2-.1l1.4-1v-.4l-2.2-1.2h-.3l-11,8.2v.2h0l2.2,1.3h.3L38,76.1a23.8,23.8,0,0,1,3.6-1.6c1-.2,1.6-.3,2,0s.3.2.3.4a2.3,2.3,0,0,1-.5.7l-1,.9-1.6,1.3-6.2,4.6v.2c0,.1,0,.1.1.1l2.3,1.4c.1.1.2,0,.4-.1l6.2-4.6.4-.3a9.1,9.1,0,0,1,3.3-1.4,2.9,2.9,0,0,1,1.9,0c.5.4-.4,1.6-2.7,3.4l-2.5,2a7.6,7.6,0,0,0-1.1,1.4,2.9,2.9,0,0,0-.5,1.9,1.6,1.6,0,0,0,.9,1.4l1.2.5a3.7,3.7,0,0,0,1.5,0,7.3,7.3,0,0,0,2.5-.7l.4-.2h0a7.6,7.6,0,0,0-.4,1.1,1.1,1.1,0,0,0,0,.8.7.7,0,0,0,.4.5c0,.1.1.1.2,0l3.6-2.7,3-2,2.2-1,1.4-.3.8.2c.4.2.4.7-.1,1.5a13.8,13.8,0,0,1-3.2,3.3,13.8,13.8,0,0,1-3.6,2.1h-.4a2,2,0,0,0-.8-1.1,1.6,1.6,0,0,0-1.2-.2,2.1,2.1,0,0,0-1.2,1.8,2,2,0,0,0,.4.8h0l.6.7a6.7,6.7,0,0,1-.6,1.2c-.5-.2-1.1-1-1.4-.3s1.7,1.4,2.2,1.8.3.1.5.9.8.2,1.1,1,1,1.7.6,2.6-2.7,1.6-3.9,1.7c-3.5.5-3.7.6-3.9-1-1.1.3-.4,1.7.1,2l-.2.4c-.1.4.1.5-.3.6h-.1c-.8.3-3.4-.6-3.7-1.8s.5.7,1.9.5a1.1,1.1,0,0,1-.3-.6,4.2,4.2,0,0,0,1.3-.3c-.1-.9-.2-.6-.9-.7l-1.1-.3a2.2,2.2,0,0,1-1.5-1.6h1.2c.3-.4-.2-.6-.4-.9h.7c.1-.4.1-.2,0-.6s.2,0,.6-.7l.4.5a.8.8,0,0,0,.4-.4c-.1-.4-.6-.7-.5-1.1a5.3,5.3,0,0,1,.3-1.2,2,2,0,0,1,.5,2.3l.6.2c.2-.2,0-.1.3-.4s.1.4.2.5.4-.1.6-.3l-.5-.7h1V96l-1.3-.3a13.4,13.4,0,0,1-.6-1.2c1.7.2,1.4.7,1.8,1.3H46a1.9,1.9,0,0,0-.2-.7,3.5,3.5,0,0,0,1.1.3l.2-.5-.7-.2c.1-.3.2-.2.3-.5l-.3-.3c-.4.2-.9.5-1.3.4s-.9-.3-1.3-.2l.7-.5.7-.2c.5,0,1.2.5,1.3-.3h-.6l.8-.6a.9.9,0,0,0-.3-.5l-.6.3c0-.2.1-.3,0-.6h-.5c-.2.2-.2.3-.2.6s-.1.3-.4.5a4.5,4.5,0,0,1-1.2.6,3.1,3.1,0,0,0,.2-.8l.3-.7,1.1-.2v-.7l-.9.2a2.4,2.4,0,0,0,.2-.8h-.5a6.4,6.4,0,0,0-.2.7l-.5-.4c-.3.2-.1.2-.4.4s.3.6.2,2.3a.1.1,0,0,0-.1-.1h0c-.9-1.2-.8-1.1-.2-2.2l-.6-.3-.3.6-.2-.2c-.3-.5-.2-.8-.8-.3a2.5,2.5,0,0,0,.4.9h-.9c0,.2-.1.3-.1.5l1.4.3a6.3,6.3,0,0,1,.7,1.2L40.5,93v-.8H40v.6l-1.1-.2c0,.2-.1.3-.2.5s.5,0,.8.2h-.1l-.2.4.4.2c.5-.1.7-.5,1.2-.4A4.2,4.2,0,0,0,42,94c-.2.3-.2.2-.5.4s-.9.3-1.8,0-.2.2-.2.6h.4l.3.2c-.7.2-.9-.2-1.3-.6s-1-1.6-1.5-1.8L35.9,95c-.4.5-.4.3-.4.8l.9-.2a2,2,0,0,1-.4.8l-.2.2h.8c.3.7-.8,1-1.4,1.2s.3.7,1.1.4-.4.4-.6.9a3.2,3.2,0,0,0,.9.3c0,.7-.8,1.2-1.5,1.3l-.2-.4c-.3-.9-1.7-.4-2.4-.5a2.5,2.5,0,0,1-2.1-1.6c.5.2.7.4,1.3.3V97.3c.7-.1.6-.1,1-.4v-.7a2.4,2.4,0,0,1-1.7-.2,1.3,1.3,0,0,1-1-1.2c.4.1.8.3.9-.3s-.5,0-.8-.4,1.2,0,1.3-.5a.5.5,0,0,0-.4-.6,3.9,3.9,0,0,1-2.1-.3V92a.9.9,0,0,0,.7.3,2.2,2.2,0,0,0-.5-1.2h.9c-.1-.4,0-.5-.3-.7s-1.2-.5-1.5-.9l.5-.5c1-1.3,3.6-2.3,5.3-2.5a1.9,1.9,0,0,1-.2.8h1.2l.4.5a.8.8,0,0,0,.4.4c.1-.4.1-.8.2-1.1l1.3-.2c-.2-.4-.6-.6-.9-.9a2.2,2.2,0,0,0,.5-.8H35.4l-.5-1c-.3.4-.2.6-.4,1.1s-1-.3-1,.3h0a12.8,12.8,0,0,1-1.9-.1l-2.1.2a9,9,0,0,0-3.7,1.1c-1.8,1.1-3.7,2.4-4.6,4.3a2.4,2.4,0,0,1-.9-.2h-.9a3,3,0,0,0-2.7,3.5c-1.6.2-2.4-.1-3.3,2.2-.8-.8-2.1-4.9-2.2-5.7a8.1,8.1,0,0,1,1.2-5.7,3.9,3.9,0,0,1,4-1.5l.6.2.4.3c1.1.7.7,3.4-1,3.8s-1-.1-1.1-.7c1.8.6,2.4-1.8.4-1.9a1.9,1.9,0,0,0-1.7.8,2.1,2.1,0,0,0,.7,2.6l.4.2a3.2,3.2,0,0,0,3.3-.8,3.6,3.6,0,0,0,.7-1.8v-.9h.1v.2H20v-.8l.6-.4v1h.6V84.4l.6-.5c.1.7.1.6.6.8s-.1-.4-.1-.5,0-.1.2-.3v.2c.1.5-.1.7-.3,1.1l-.3.4c0,.2.1.5.3.5s.5-.5.8-.7-.4.8-.3,1.6.5-.1.7-.4l.3.7c.3-.2.3-.5.3-.9h.8c-.1-.6-.4-.5-1-.6v-.6a1.8,1.8,0,0,0,1.3.2c0-.3,0-.4-.2-.5l-1.4-.5v-.4h.4l.2-.4-.5-.4h.7a3.8,3.8,0,0,1,.9,1.2l.6-.3a3.3,3.3,0,0,0-.6-1h.6a2.8,2.8,0,0,0,.6.9h.6c-.2-.4-.3-.3-.4-.8h.9v-.5h-.7a1.1,1.1,0,0,0,.1-.6c-1.3.2-.6.6-1.5.7l.3-.7h.3c.7-.1,1-.2,1.2-.5a.2.2,0,0,0,0-.3c0-.1-.1-.2-.1-.3a.4.4,0,0,1,0-.5l.4-1a24.2,24.2,0,0,1,3.8-4.4A98.4,98.4,0,0,1,39,68.5,17.7,17.7,0,0,1,41,67a33.8,33.8,0,0,0,3.2-2.3A7.5,7.5,0,0,0,46,62.8a2.8,2.8,0,0,0,.5-2.1,6.7,6.7,0,0,0-.6-1.2l1.3.7V58.7L45.7,58l1.1-.8L49,58.3l2.2,1.1v1.4l-1.5-.7-1.2.8,2.5,1.3-3.8,2.5v1.5l4.5-2.9ZM75,82.2l1.2.6c.2.1.2.1.3.4l-1.2.2-.5-1.1h0C75,82.1,74.7,82.1,75,82.2Zm.7-2.2-1.5-.8h-.3c-.5-.3-.6-1-1.1-1.2s.8-1,1-1.4l-1.7.3-1-1.2c-.2,2,.1,1.6-1.1,1.9s-.5.3-.5-.3l-1.8-.2-1.8-.2H66v-.2a.1.1,0,0,0-.1-.1l-1.9-1.1a5.7,5.7,0,0,1,1.3-.8l1.5-.9,1.5-.9v-.4l1.6-.2a6.6,6.6,0,0,0,.5,1.5h.1c.3-.4.3-1.2.6-1.7l1.5-.2a3.9,3.9,0,0,0-1.4-.8c.1-.5.4-1,.5-1.5l.6.3.3-.3.2-.4c.2-.2.1,0,.2-.2l2.1-2.6.3-.3,1.1-1.4c.1-.2.1-.3.3-.2s-.4,5.6-.1,6.6l.8.2h0c.1.1-.6,1.2-.6,1.3H75.4a14.7,14.7,0,0,0,1,1.3,4.6,4.6,0,0,0-.7,1.4l1.8-.4c.2.3.7.5.8.8l-.6.3c.1.9,2.5,6.3,2.4,6.4s-.5-.1-.7-.2l-.7-.4ZM62.3,100.6l-.2.3-.2-.4c-.4.1-.1.1-.5.3s0-.7,0-1.4H61c-.3.3-.1.3-.5.6s.3-.4-.2-1l-.3.3h0v.2a1,1,0,0,0-.7-.4c0,.3,0,.2.1.4v.2c-.2.2-.2,0-.2.4h.3a1,1,0,0,1,.8.5h-.8v.3a2.2,2.2,0,0,0,1.4-.1v.7h-.6l.3.3a2.5,2.5,0,0,1-1.4-.6l-.4.4c.2.3.5.4.7.6s0-.4-1.1-.2l.2.4-1.1.2H56.4v-1.6a5.5,5.5,0,0,0-1-2.5,2,2,0,0,1-.6-1.1l.8-.5.4-.3.4-.2c-.1-.6.1-.8-.4-.9H54.8c-.9.1-.9-.3-2-.2s0-1.1-.6-1a1.5,1.5,0,0,0-.1.6c-.1-.1-.1,0-.1-.2a2.5,2.5,0,0,1-.1-1.2l.3-.3,1,.6,1.3.7a3.4,3.4,0,0,0,1.4.2h1.4l1.6-.6,1.4-.6a5.7,5.7,0,0,0-.6,2.5,3,3,0,0,0,1.7,2.5l1.1.6h.3v.5h-.1l-.4-.6C61.5,99.4,62.2,100.1,62.3,100.6Zm-14.7,9.3c-.7.7-.3,2,1.1,1.8a.6.6,0,0,0,.7-.4c.2-.4-.2-.2.3-.4s-.1-.2.3-.1,1.2,1.4-.4,1.9a8.6,8.6,0,0,1-3.5.3l-1.5-.3-2.9-1c-.8-.3-.8-.1-.9-1.2l.7.2c.2-.1.2-.4.4-.6s.3-.3.4-.6a4.9,4.9,0,0,0,2.8.6c-.1-.6-.9-1,.2-.9a2.3,2.3,0,0,0,1.7-.4l-2.6-.9a.1.1,0,0,1,.1-.1,17.7,17.7,0,0,0,2.7-1.4c1.3-.9.3-.8,2-.8A23.2,23.2,0,0,0,53,105c1.5-.5.4-.4,1.7-.3s.7-.3,2.5-.6a9.4,9.4,0,0,1-1.9,1.4l-1,.3c-.3.3-.2,1.7,2.7-.3,0,.4-.2.4-.8.9v.8l.5-.3a3.2,3.2,0,0,0,.7,2.3,2.2,2.2,0,0,0,3.6-.4c.4-1.8-1.5-2.6-2.1-1.4s.4.8.6,1.2l-.4.2c-.4-.1-.7-.2-.8-.6a1.7,1.7,0,0,1,.6-2.1c1.8-1.4,4.1-.3,4.3,1.3s.3,1.3-.4,2.5l-.5.7a9.6,9.6,0,0,1-2.5,2,18.6,18.6,0,0,1-7.7,1.5H50.4a5.8,5.8,0,0,0,1-.8A2.5,2.5,0,0,0,47.6,109.9Zm-4-4.5a4,4,0,0,0,1.5-.1c0,1-1.1,1.5-1.8,1.7h-.4a1.6,1.6,0,0,1-.7-.7h1.4C44.2,106.3,43.7,106.3,43.6,105.4Zm16.8-2a1.7,1.7,0,0,1,.2-.5c0-.3,0-.4.4-.4h0v.5h.4c-.1.6-.8.5-.9,1s.6.1,1-.2v.5l-1.3.2c-2,.2-.9.2-1.7.4l.9-2.1h.6c-.1.2-.4.5-.4.8ZM58,93.2a4.4,4.4,0,0,1-3.4-.2,10.4,10.4,0,0,0,4.1-2,10.4,10.4,0,0,0,3.1-3.2,4.3,4.3,0,0,0,.8-2.8,2.7,2.7,0,0,0-1.3-2.1,3.7,3.7,0,0,0-2.8-.2l5-3.7h.8a7.8,7.8,0,0,1,.2,1.6l-1.6.6c.4.3,1.3.3,1.7.6s.2,1.2.4,1.6l.9-1.4a3.7,3.7,0,0,1,1.5.4c0,.6-.1,1.5-.1,2.1v3.7a13.8,13.8,0,0,0-3.6,1.5,10.5,10.5,0,0,0-1.9,1.7A22.6,22.6,0,0,1,58,93.2Zm6.2-20.8a5,5,0,0,1,1.7-.1c0,.2.1.1-.1.3l-1.8.9A2.2,2.2,0,0,1,64.2,72.4Zm2,7.4-.7.4a1.7,1.7,0,0,1-.6-1H65a5.8,5.8,0,0,1,1.8.2C66.7,79.7,66.8,79.5,66.2,79.8Zm1.2,0v2c-.2,0-.7-.6-1-.8A2.9,2.9,0,0,1,67.4,79.8Zm-.1,10.9v.4h0l.5-.6.5-.2q2-.7,2.7-.3l.2.3c.1.4-.4.9-1.3,1.5a7.1,7.1,0,0,1-5.2.7A15.1,15.1,0,0,1,67.3,90.7Zm2.3-12.3,1.4.4v1.8l1.1-1.4,1.5.6c0,.2,0,.2-.2.3l-.3.4-.2.2-2.3,2.7c-.3.3-.8,1.1-1.1,1.1S69.5,78.6,69.6,78.4ZM73,83.7l.6-.7c.2-.4.4-.8.7-.8v1.5c-.4,0-1.1.3-1.3.2S72.8,83.9,73,83.7ZM71.4,69.5a5,5,0,0,1-1.1,1l-1.4-.8a2.9,2.9,0,0,0,.2.9l.4.7c-.4.2-1,.9-1.4.9l-1-2.8a25.2,25.2,0,0,1-1-2.9l1.3.7ZM70,66.1l.8-.2a12.1,12.1,0,0,1,.5,1.4L70,66.5C69.7,66.4,69.4,66.2,70,66.1Zm1.8.3c.1-.9-.1-.7.7-.9h.6c-.1.3-.2.3-.3.5S72,67,71.8,67,71.8,66.6,71.8,66.4Zm8.3,10.7c.5,0,.5.2.8.4l.6.5a11.7,11.7,0,0,0-.5,1.1c-.3-.1-.2-.2-.3-.5a.8.8,0,0,1-.2-.4C80.4,77.8,80.2,77.5,80.1,77.1Zm.6-.3c0-.4,0-.2.8-.7a2.5,2.5,0,0,1,.9-.4,3.5,3.5,0,0,1-.5,1.2A2.4,2.4,0,0,1,80.7,76.8Zm-1.9-1.5c0-.3-.1-.8-.1-1.1a1.8,1.8,0,0,1,.7-.5l.6-.6-1.3-.2h-.3c-.3-1.3-.4-1.4.2-1.2l5.3.7-.2.2h-.2l-.3.2Zm.4-5.9.9-.4c.4,0,.3.1.5.3l.3.5c-.2.1-.6,0-.9,0l-1-.2C79.1,69.4,78.9,69.5,79.2,69.4Zm.3-1.2c-.1.1-.1.1-.1.2l-.3.3c-.5.7-.3.7-.6.7a12,12,0,0,1,0-1.9c.1-.7.4-.3.5-.1l.6.5ZM51.3,95.5c-.3-.1-.5-.4-.7-.6s-.1-.5.5-1ZM40.9,97.1l.8-.2-.2.9c-.5-.2-1.8-.6-2-1.2s1.5-.2,1.6-.9.3-.7,1.3-1-.2,1.3-1.7,1.9Zm-7.5,12.6-2.5.4-.2-1.4,1.1.3,1.2-1.7,1.2.5c.5-.4.4-.7.5-.9s.1-.2.6-.3l.6-.2a4.1,4.1,0,0,1-1.4,1.7c-.7.2-1.5-.3-2.2,1S33.1,109.4,33.4,109.7Zm1.4-5.9c-1,.4-1.7.1-1.9-1s.8.2,1.5-.2l-.5-.6c-.3-.3-.3-.2-.3-.8h.7v.3h.8c-.2.5.2.9.4,1.2s.3-.3.8-.5S35.8,103.4,34.8,103.8ZM25.6,89.7c.2,1.7-1.8,2.8-2.1,3l.3.5h1.5c0,.9-1.1,1.2-1.4,1.4l-.4.4c-.5.5-.5.3-.6.6s-.2.3,1,.1-.2.8-.2,1.1.7-.1,1.4-.4.3.5,0,.9a11.8,11.8,0,0,1-2.2,1.7L22.6,97h.6a5.1,5.1,0,0,0-1.1-1.6,1.5,1.5,0,0,1-.9.1c.1-.4.3-.1.9-.7a1.5,1.5,0,0,0,.3-1,1.7,1.7,0,0,0-.3-1.2.5.5,0,0,0-.3-.4l-.2-.5c.2-.6.8-1,1-1.3a10.3,10.3,0,0,1,6.6-3.7H29c-1.6.8-2.1.5-4,2.6a5,5,0,0,0-1,1.9C24.6,91.1,25,90,25.6,89.7Zm-4.8,8.8.2,1.3h-.7l-.2-1.3Zm-1-.3v-.8h1V98Zm1-3.7c-1-.3-.7.9-1.3,0h.4c.3-.1.3,0,.2-.8s-.7-.4-1.2,0a1,1,0,0,0,.3,1.6c.2.1,2.1.2,0,.5a7.3,7.3,0,0,1-.5.9c-.1-.6,0-.7-.3-1l-.7-.5a3.4,3.4,0,0,1,.3-2.3,1.6,1.6,0,0,1,1.7-1c1.2-.2,2.7,1.8,1.4,2.8Zm1.3,3.8.2,1.3h-.8V98.4Zm-.9-.3v-.7l1-.2v.7Zm9.3-11.2c-.2.3-.5.3-.9.5a4.5,4.5,0,0,0-1.4,1c-.3.2-.3.4-.6.7l-.4-.6A6.4,6.4,0,0,1,30.5,86.8Zm-6.7-5-.6.2a1.3,1.3,0,0,0,.1-.6h.6l.3.2.5.2a3,3,0,0,0-.4.8h-.7c0-.2.2-.2.2-.3h.1ZM42.2,58.2l-2.6-1.8,3,1.5Zm1.2,2.6v.6a5.7,5.7,0,0,1-1.1,1l-.3.2L41.8,60h0l.8.4Zm-2.9,0,.2,2.8-1.4.9-3.2,2.3-2.2,1.6-4.4-2.6h.2A42.4,42.4,0,0,1,38.4,61l.2.3.4.5Zm9.6-7.6-3.6,2.3,1.4-2.7-1.7-2.5L50,52.2A3.4,3.4,0,0,0,50.1,53.2Zm1.4,1.3c.1,1.4.2,2.8.2,4.2l-1.6-2.5-3,.2L50.6,54l.5.3c0,.1.1.1.2.1Zm-.1-14.9h-.2c-.1.1-.2,0-.2-.1Zm-.3,6.9c.1,1.4.1,2.8.2,4.2H51l-.3.2c-.1.1-.1.2-.2.2l-3.8-1.9h3Zm-5-29.1a2.3,2.3,0,0,1,1.6-.6,2.6,2.6,0,0,1,1.5.7,2.5,2.5,0,0,1,.6,1.6,2.4,2.4,0,0,1-.7,1.6,1.8,1.8,0,0,1-1.6.5,1.8,1.8,0,0,1-1.5-.7,2.2,2.2,0,0,1-.6-1.5A2.4,2.4,0,0,1,46.1,17.4Zm.3,21.9h2.8l1.4.7v1.8l-4.8-2.4V41l4.1,2.1-2.4,1.6,1.3.7,1.4-.9v1.3l-2.1,1.4-2,1.3-1.3-.6,1.4-.9V45.5L44,47.1l-.3-4.6-1.3-.7.3,5.3L41,46.3v-3l-1.4-.7.2,3L38,44.8a2.8,2.8,0,0,1-.3.6l-.3.6,1.7.8-2.6,1.7,1.4.7,2.6-1.7,1.6.8-4.5,2.9,1.4.7,3.8-2.5v2.9l1.3-.8a12.6,12.6,0,0,0-.1-1.6l1.3.6c0,.8.1,1.6.1,2.4s.1,1.7.1,2.5l-1.1.7c0-.6-.1-1.6-.1-1.6L43,53.8l.2,2.9-4.1-2-1,.6a17.6,17.6,0,0,0-2.3-1.5,12.3,12.3,0,0,0-3.1-1.4l-.2-3,5.7-2.5-5.9-1.1L32,41.9a49.7,49.7,0,0,1,6.3-1.8l1.4-.3A49.1,49.1,0,0,1,46.4,39.3ZM40,32.9a.1.1,0,0,0-.1.1h-.1l-.7,1a64.2,64.2,0,0,0-6.3,1.5v-.3l.6-.9L42.7,27A24.3,24.3,0,0,1,40,32.9ZM21.8,8.5c-1.4-3.7.3-6.5,4-5.1A20.3,20.3,0,0,1,37.2,15.8,25.6,25.6,0,0,1,21.8,8.5Zm6.9,36.6-2.4-.5,1.4-.8,2.5-1.1Zm1.1,6.7H27.2l1.8-.8ZM7.5,68.4c.1-.4.3-.9.4-1.4l.3-.9.4-.8A40.5,40.5,0,0,1,24.4,45.8l2.3,2.5-2.6,4a12.1,12.1,0,0,0-3.8,1.8,8.7,8.7,0,0,0-3.2,3.1,5.9,5.9,0,0,0-.9,4.2,3.8,3.8,0,0,0,1.9,3.1,4.6,4.6,0,0,0,4,.3,5.4,5.4,0,0,0,3.1-2.3,1.2,1.2,0,0,0,.1-1.3c-.1-.3-.2-.3-.4-.1a3.6,3.6,0,0,1-2.1,1.5,3.3,3.3,0,0,1-2.6-.1,1.6,1.6,0,0,1-.8-1.4,3.5,3.5,0,0,1,.7-2.1,8,8,0,0,1,2.7-2.8,14.4,14.4,0,0,1,3.7-1.9,12.1,12.1,0,0,1,4.2-.5h1l1.2,1.3V54.1l1.5.7,1.8,1.1,1.3.9,1,.8h-.2l-1.2.8.8.5a36.7,36.7,0,0,0-10.1,4.7c-2.3,1.4-4.2,2.6-5.8,3.4a17.7,17.7,0,0,1-3.8,1.8,8.7,8.7,0,0,1-2.3.5,2.3,2.3,0,0,1-1.4-.4l-.3-.3a.4.4,0,0,0-.1-.3c-.1-.1-.2,0-.4.1l-.4.5a3.5,3.5,0,0,0-.4,2.3,2.3,2.3,0,0,0,1.2,2l1,.4a3,3,0,0,0,1.3-.1l1.2-.3,1.5-.6,1.5-.8,1.7-1.1A10.1,10.1,0,0,0,24,69.5l1.8-1.2L27.6,67l4.6,2.7a66.6,66.6,0,0,0-5.4,4.5,23.8,23.8,0,0,0-3,3.6,11.2,11.2,0,0,0-.5,1.3l-.5-.3-.3.4.5.7-.2.5-.7-.8-.3.3a1.5,1.5,0,0,0,.4.9c.4.4.2.3.2.9s-.1-.4-.6-.4h-.1v.3c0,.3.2.1-.1.3s-.3-1.4-.3-1.8h-.7v.9h-.5V79.9h-.6v.4h-.2c-.5-.2-.7-.3-1.1.1s.5.3.7.6-.5,0,0,.7.7-.2,1,0l-.6.2v.7h2l-.2.2h0l-.3.3.5.2c-.5.7-.9.1-1.8,0s-.3.2-.3.5l.8.5c-1.1.7-1.1-.9-2.6-1.5a1.9,1.9,0,0,0-.8-.3l-.8-.2-2.1.3c.2-1.6.4-3.4-.6-4.9a4.5,4.5,0,0,0-2.3-2l-.5-.2H9.8l-2.1.3H7.6l-.4.2a2.7,2.7,0,0,0-1.2.9A38,38,0,0,1,7.5,68.4ZM5.9,81.1a4,4,0,0,0,1.6.8,2.7,2.7,0,0,0,2-1c1.2-2.2-1.3-3.2-2.1-2.1s.8,1.5.9,1.5a.1.1,0,0,1-.1.1,1,1,0,0,1-.9.2c-1.1-.4-1.2-2.4-.2-3.2s2.8-.8,4.2.2a3.4,3.4,0,0,1,.8,1.7c.6,1.7-.4,4.1-1.2,5.4a3.4,3.4,0,0,0-.7,1.6c-.8,2.4.1,5.9.9,8.4a28.7,28.7,0,0,0,1.7,3.5,2.7,2.7,0,0,0-.9,0l-1.5.2A40.4,40.4,0,0,1,5.9,81.1Zm6.8,21.3-.8-1.3c0-.2-.1-.3-.3-.5L11,99.5h.6l1,.2c1.3.3,2.8,1.7,3.7,2.6l2.5,2.7-1-.3a15.2,15.2,0,0,0-3.9-.6Zm7.3,8.2-1.9-1.8c-.1,0-.1-.1-.2-.2l-.5-.4c-.7-.8-1.5-1.6-2.2-2.5l-.3-.5,1.2.2a18.6,18.6,0,0,1,3.7,1.9,7.5,7.5,0,0,1,2.5,3.3l.3,2Zm-.6-6.9c-1.2-1.2-3.8-3.6-4.4-5.1s.5-3.5,1.5-2.7a2.6,2.6,0,0,0-.3,1.4c.1.9,1.4,1.1,2.1.3s.3-.2.9-.3l.4,3.2h.8l.2.3h.5v.3h.7c-.1-1-.1.1.4-.8h.8c.1.4,0,.6.1,1,1.6-.2,1.2-.8,2.1-1.1.1,1.2-2.9,2.9-3.7,3.4s-.4,1.8,1.6.5a6.6,6.6,0,0,0-.1,1.5,2.4,2.4,0,0,0,1.1-.3l.7-.5s.1-.1.1.1h0a2.9,2.9,0,0,1-.8,1.3,3.8,3.8,0,0,1-1.4,1.1C21.2,105.4,20.9,105.2,19.4,103.7Zm5,6.6a1.4,1.4,0,0,1-.3-.9,4.6,4.6,0,0,0,1.6-1.1,4.4,4.4,0,0,1,.8,1.1,5.9,5.9,0,0,1,1.4-.6,3.3,3.3,0,0,0,0,1,3.6,3.6,0,0,1,.2,1.1,14.1,14.1,0,0,0-2.6,1.6l-.7.6A11,11,0,0,0,24.4,110.3Zm2.1,3.5-.6,1-.4-.3A4.3,4.3,0,0,1,27,113Zm9.6,5.2a2.9,2.9,0,0,1,.5-1.8c.7-.1,1.3-.3,1.6,0s-1.4.3-1.1,1.4a.9.9,0,0,0,.5.8Zm5,1-1.6-.2-1.3-.3h.6a1.3,1.3,0,0,0,1-1.5c.1-2.4-3.2-3-4.3-.9a3.5,3.5,0,0,0-.4,1.7l-.9-.2h0l-.5-.2-2.6-1a24.8,24.8,0,0,1-3.7-1.7l-.5-.3a15.5,15.5,0,0,1,1.3-1.7c1.2-1.3,3.7-2.1,6-2a7.8,7.8,0,0,1,2.5.7c2.1,1,4.6,2.9,5,5.5A3.2,3.2,0,0,1,41.1,120Zm6.7-.2c-.6.4-1.4-.1-1.9-.3v-.7c.2,0,1.8.8,2-.4s-2.3-2.4-3-.6a1.9,1.9,0,0,0,.5,2.5H42.4a3.6,3.6,0,0,0,.4-.9c.8-2.1-1-5.1-2.6-6.3l-.7-.6c1.6.1,5.8,1.9,7.2,2.6a4.4,4.4,0,0,1,2.1,3.2A1.9,1.9,0,0,1,47.8,119.8ZM66,115.3c.1-.1.1-.1.1-.2a.1.1,0,0,1,.1.1Zm2.2-1.3h-.1a1,1,0,0,0-.4-.5,1.9,1.9,0,0,0-3,1.3,2,2,0,0,0,.1,1.1l-.4.3-3.3,1.4-2.6.9-1.3.4a31.5,31.5,0,0,1-5.5,1.1l-2.5.3a3,3,0,0,0,.8-2.5,5.7,5.7,0,0,0-.4-1.4,8.4,8.4,0,0,1-.4-1.2c.3-.1.4,0,.8,0h2.4a32.8,32.8,0,0,0,6.9-1c2.2-.7,2.3-1.7,5.1-2.6s4.2-.8,5.3,1.3h0ZM86.9,81.6h0a48.7,48.7,0,0,1-.6,5.5A40.5,40.5,0,0,1,75.5,108l-1.6,1.6-3,2.5-.3-.5a4.5,4.5,0,0,0-3.9-1.7l-2.2.3c.1-1.4.8-1.9,0-3.7a4.7,4.7,0,0,0-2.2-2.2v-.7a3.5,3.5,0,0,0,1.1.3c-.2-.6-1-.6-1.1-1.2h.5v-.6h.7v.8l.5-.2h0v-.4c.8.4,0,.8.7.8s.1-.3.2-.5l.7.2c-.1-.3-.4-.5-.6-.8s.3-.8-.3-.3-.3.1-.6.1l.4-.8c-.9.1-.8.5-1.2.6h-.4c.2-.3.2-.2.2-.5h-.4a8,8,0,0,1,1.5-.3V100h-.7c.1-.3.3-.2.8-.3v-.2a5.4,5.4,0,0,0,1.8,0,12.2,12.2,0,0,0,2.5-.7l2.2-1h.1a71.1,71.1,0,0,0,7-4.4,2.3,2.3,0,0,1,.1,1.4c-.2.2-.3.4-.6.5a51.4,51.4,0,0,0-4.7,3.5,7.5,7.5,0,0,0-1.9,2.2,2.3,2.3,0,0,0-.5,1.9,2,2,0,0,0,.9,1.5,3,3,0,0,0,1.1.4,4,4,0,0,0,1.5-.1,7.2,7.2,0,0,0,2.4-.9,36.1,36.1,0,0,0,3.6-2,.1.1,0,0,0,0-.2v-1h-.1a23.5,23.5,0,0,1-3.5,1.8,10.4,10.4,0,0,1-2.3.9h-.8c-.3-.1-.3-.4-.1-.8s2.7-2.6,6.4-5.1l.8-.8a1.6,1.6,0,0,0,.3-.9,4.5,4.5,0,0,0-.1-1.1,3.9,3.9,0,0,0-.4-.9,3.7,3.7,0,0,0-.4-1.1c-.1-.2-.1-.3-.2-.3l.3-.3a1.2,1.2,0,0,0,.2-1c0-.3-.2-.5-.5-.7a.9.9,0,0,0-1,0,1.7,1.7,0,0,0-.9.8,1.4,1.4,0,0,0-.1,1.1,79.8,79.8,0,0,1-6.6,4.5l-2.1.8a9.2,9.2,0,0,1-2.5.5l-1.8-.2-1.1-.5a1.1,1.1,0,0,1-.7-1.1,2.7,2.7,0,0,1,.6-1.6l.7-1.1a7,7,0,0,0,2.9.9,8.3,8.3,0,0,0,3.5-.2,4.4,4.4,0,0,0,2.6-1.9,1.7,1.7,0,0,0,.3-1.9,3.2,3.2,0,0,0-1.5-1.6,3.8,3.8,0,0,0-1.9-.5l.4-.5L71.3,86a13.6,13.6,0,0,0,1.2-1.7,14.2,14.2,0,0,1,1.6.5l-.2,1.9a1.2,1.2,0,0,0,.6-.6c.8-1,.8-.7,1.3-.5l.8.2c-.1-.4-.5-.8-.6-1.3l1.2-1.1,1.8,1L81.6,86a2.6,2.6,0,0,1,.9.5l1.8.9c-.6-1.3-1-2.5-1.6-3.9s-.5-1.2-.8-1.9-.7-1.5-.8-1.9l1.1-.8c.4.2,1,.8,1.5,1l-.3-1.7.8-.5.4-.2.4-.3L83.1,77V75.4l2.7-1.6.7-.4c.2,1.3.4,2.7.5,4v4.2Z"/></svg>