<svg xmlns="http://www.w3.org/2000/svg" viewBox="0 0 92.5 125.9"><defs><style>.cls-1{fill:#000001;fill-rule:evenodd;}</style></defs><title>David</title><g id="Layer_2" data-name="Layer 2"><g id="Layer_1-2" data-name="Layer 1"><path class="cls-1" d="M72.3,41.5l.8-.3h0a21.8,21.8,0,0,0,6.6-4.6c4.3-5.1-.8-10.8-.8-16.2s2.4-9.4.4-14.1c-1.2-3-4.1-4.4-7.4-4.5A13.8,13.8,0,0,0,64,3.9C61.9,5.2,51.7,15.6,51.5,15.6a2.5,2.5,0,0,0-1-1.6,2.3,2.3,0,0,0-1.6-.6H46a2.8,2.8,0,0,0-1.3.4c-.6.3-1.2.9-1.2,1.3A58.8,58.8,0,0,0,32.1,2.7,14.8,14.8,0,0,0,24.4,0C21-.1,18,1.1,16.6,4c-2.3,4.5-.3,9.5-.6,14.1s-5.9,10.7-2,16.1c2.2,2.5,4.5,4.8,7.7,5.8h.1l.3.2a46.3,46.3,0,1,0,59.2,69.7c1-1.2,2-2.5,2.9-3.8l.3-.4h0l.6-.8.4-.6,1.5-2.6h0l.8-1.5.4-.9,1.5-3.5c0-.1.1-.2.1-.4l.4-1a47,47,0,0,0,2.3-14.6A46.1,46.1,0,0,0,72.3,41.5Zm4.2,56.6a.7.7,0,0,0-1-.3.7.7,0,0,0-.3,1,13,13,0,0,0,1,1.5l-1.3-.3-1-1.7a.8.8,0,0,0-1-.2.7.7,0,0,0-.2,1,.8.8,0,0,0,.2.4h-.2l-1.5-2.4,2.3-6.3h.9l3.2-.5h.2v-.5c0-.2.1-.3.1-.4h-.1a23.1,23.1,0,0,1-3.8.4c-.9,0-1.5-.2-1.7-.5a.4.4,0,0,1,.1-.7,9.6,9.6,0,0,1,2.7-1.3l11.5-3.5a40.2,40.2,0,0,1-4.1,14.2,4.3,4.3,0,0,0-.1-.5l1.5-2.8a.8.8,0,0,0-.2-1,.7.7,0,0,0-1,.3l-.9,1.5-.3-1.2.9-1.7a.7.7,0,0,0-1.3-.7l-.2.5c-.1-.4-.3-.8-.4-1.3a.8.8,0,0,0-.9-.5c-.4.2-.6.6-.4.9l.3,1.3-.5-.3a.7.7,0,0,0-.9.3.7.7,0,0,0,.3,1l1.7.9a5.6,5.6,0,0,0,.4,1.2l-1.6-.8a.7.7,0,0,0-1,.3.8.8,0,0,0,.3,1L81,97.7a5.6,5.6,0,0,1,.4,1.2l-2.7-1.5a.7.7,0,0,0-1,1l1.7,2.7-1.3-.3Zm.8,3.2c0,.2-.2.3-.4.3a.5.5,0,0,1-.3-.5c.1-.1.3-.3.5-.2A.3.3,0,0,1,77.3,101.3Zm-1.5.4-1.2.7-.5-.7.5-.3Zm-1.7-1.2c0,.2-.2.3-.4.3h-.2v-.2a.5.5,0,0,1,.4-.3C74,100.2,74.2,100.4,74.1,100.5Zm-5.5-1H66.2l-1.4,1.5-.7-2.1-2.1-1,2-1.1.2-2.1L66,95.9l2.1-.6-.7,2.4Zm-2-7.8-5.2-4.2,1.2-1.4,3.1.2-1.6-2.8.6-1.7h2.7a3.6,3.6,0,0,0-1,1.8,2,2,0,0,0,.5,1.9c.8.8,2.1,1.2,4,.9h0A2.4,2.4,0,0,0,70,88a1.8,1.8,0,0,0,.5,1.6l.8.8.4.2Zm-9.1,8.2-2,.7-2.8-2.3-.4,3.7-2,1,3.4-10.4-2.3.5,2-2.4,7.2.6-.4,3.4-5.7,3.8Zm-4.4,3.6,1-.7v-1l.9.7,1.1-.3-.3,1.2.6.9H55.2l-.7.8-.4-1.2Zm.5,4.9-2.5-4,1.7.8ZM33.1,118l-.3-1.1-1.2-.5,1.1-.7v-1.2l1,.8,1.2-.4-.4,1.4.7,1H34l-.8.8Zm3.7-14.2,2.9-1.8.3-3,2.6,2,3.2-.9-1,3.5,1.7,2.7H43l-2.1,2.2-1.1-3.2Zm1.5,14.5-1.9-2.6.8-1.4Zm5.2-23-8.2-7L35,91.4l-.9-1.2,1.2-3.7-2,.2,2.6-3.4,4.9.5-2.9,1.9,7.9,3.2,1.3,5.4Zm-13.4.8,2.2-2.8,2.7.2-.3,5.6-1.3.8-1.1-1.6.9-2.8Zm-5.6-7,2.6-.7-1-.9-2.5.7-1.1-1.1,4.4-1.2L26,85l-3.8,1,.6-2.4-1.3.3s-.2.8-.3,1.4l-.9-.9.6-2,.5-2,1.2-.4c-.2.6-.4,1.4-.4,1.4l.9.9.7-2.4,2.8,2.8,1.3-.4-2.5-2.4,5,2.3,1.2,5.1-3.2-2.6v4.1l-3.2,1.9h.1l.4-.4Zm-4.9-4.7L17,81.8a2.4,2.4,0,0,0,.2-.8l3.5-1-1.8,1.9ZM7.9,79.6,7.2,82,5.7,80.5v-.8c0-1,.1-2,.1-2.9l3-.9-.6,2.5L9.5,78l.3-1.3.9.8L9.6,81.6l-1.2.3a11.9,11.9,0,0,0,.4-1.4ZM6,84.1l.7-.2-.5,2A11,11,0,0,1,6,84.1Zm.3-11.5.2.2H6.3Zm-.2,1.5,1.3-.4,1.1,1.1-2.6.7C6,75.1,6,74.6,6.1,74.1Zm-.3,8.1.6.6-.5.2A2.2,2.2,0,0,1,5.8,82.2Zm6.3-2.1-.7-2.5A31.9,31.9,0,0,1,14,80.2a1.9,1.9,0,0,0-.2.8l-3.5.9Zm6.1-5.7,1,1,1.3-.4-1.8-1.7,3.8-1.1.3-1,1.8.9.5,1.6-.9.2-1,3.8-1.8-1.8-.3,1.3,1,1-1.2.3L19.4,77l-1.5-1.5Zm-.1-4.6c.1-.2.3-.3.4-.2a.3.3,0,0,1,.3.3.5.5,0,0,1-.4.3C18.2,70.1,18.1,70,18.1,69.8Zm9.7,1.5h-1l-.6.6-.3-.9-.9-.4.8-.5v-.9l.8.6.9-.3-.3,1Zm13.1-26a4.1,4.1,0,0,0,3.2,1.5,3.9,3.9,0,0,0,2.8-.8.9.9,0,0,0,.4-1c0-.2-.1-.3-.3-.2a2.6,2.6,0,0,1-1.9.5,2.5,2.5,0,0,1-2-.8,1.6,1.6,0,0,1-.4-1.4,2.4,2.4,0,0,1,.9-1.4,6.7,6.7,0,0,1,2-1.2,8.9,8.9,0,0,1,2.6-.7,15.1,15.1,0,0,1,3,.2,8.3,8.3,0,0,1,3.1,1.1,14.2,14.2,0,0,1,3,2.5A6.4,6.4,0,0,1,59,48.7c-.2,1.7-1.3,3.5-3.4,5.3a13.2,13.2,0,0,1-3.8,2.5,11.8,11.8,0,0,1-3.7,1.1,9.6,9.6,0,0,1-3.4-.3,6,6,0,0,1-2.4-1.6,3.1,3.1,0,0,1-.8-1.3,1.8,1.8,0,0,1-.2-.9v-.4H41l-.3.2c-.4.3-.5.8-.4,1.6a3.7,3.7,0,0,0,1.1,2.4,9.6,9.6,0,0,0,3,2.3,10,10,0,0,0,3.8.8,6.7,6.7,0,0,0,2-.1l-.6.5a3.8,3.8,0,0,0-1.3,1.9,2.2,2.2,0,0,0,.6,2c.7.8,1.9,1.1,3.8.9h-.1a1.6,1.6,0,0,0-.6.8l.2-.6-3.7,1-2.7-2.5-.5,3.9-1.4.7-2.6-3.7,2.2-6.1-6.4,1.6-3.4-3.2,1.8-2,3.1.2-1.5-2.5.3-1.4,1.1.3a9.7,9.7,0,0,0,3.3-.3l3.7-1,4-1.4,3.6-1.2a12.5,12.5,0,0,1,3.1-.4,2.2,2.2,0,0,1,1.9.7c.1.1.2.1.3-.1a1,1,0,0,0-.2-.9,5.1,5.1,0,0,0-3.5-1.4,19.3,19.3,0,0,0-6.3,1.1c-1.5.5-2.9.8-4.2,1.1l-2.9.5a13.3,13.3,0,0,1-2,0l-1.2-.4-.7-.7c-.1-.1-.1-.2-.1-.4v-.2q0-.1-.3,0l-.5.3a3,3,0,0,0-.5,3.1l-1.1.3-2.3-2.1v.8l-2-3,1.5-4.7a40.5,40.5,0,0,1,9.7-2.4,4.4,4.4,0,0,0-1.5,3A3.9,3.9,0,0,0,40.9,45.3ZM56.2,73.1a5.1,5.1,0,0,0,2.2,1.3,11.5,11.5,0,0,0,3.3.4,2.1,2.1,0,0,0,.5,1.7,2.3,2.3,0,0,0,1.4.7l-.6.4a2.8,2.8,0,0,0-.8,1.5,2.5,2.5,0,0,0,.5,1.5c.2.2.3.4.5.5l-1.2.3-2.5-1.9-.2,3-2.2,1.2,3-7.6-8.1,2-4.5-3.8,1.8-1.9,3.4.2-1.8-3.1,1-2.7c0,.1-.1.1-.1.3a2.3,2.3,0,0,0,.5,1.5l.8.7,1.1.4h2.3a2.1,2.1,0,0,0-.8,1.6A2.2,2.2,0,0,0,56.2,73.1Zm-19.9.2,2.1-2.7,6,.4,1.5.6.4,1.5-.9-.5L45,81l-3.1,2-3.1-4.8,2.1-5.9ZM35.8,54h-1l-.6.6-.3-.9-.9-.4.8-.5v-.9l.8.6.9-.3-.3,1.1Zm3.3,13.6H37l-1.3,1.4L35.1,67l-1.9-.9,1.8-1,.2-1.9,1.6,1.2,1.9-.5L38,66Zm-2.9,9.2-.7,2.1,1.1,1.6H34.5l-1.3,1.4-.6-1.9L30.8,79l1.7-1,.2-1.9,1.6,1.2Zm10.1-7,1-.6v-1l.9.6,1.1-.3-.3,1.3.6.9H48.4l-.7.7-.4-1.1ZM50.7,64a1.3,1.3,0,0,1-.1-.6,1.2,1.2,0,0,1,.5-.7,5.4,5.4,0,0,1,2.4-1.3,8.2,8.2,0,0,1,3.1-.7c1-.1,1.7.1,2,.6a.9.9,0,0,1,.1,1,2.3,2.3,0,0,1-1.1,1.1l-2,.7C52.9,64.6,51.3,64.6,50.7,64ZM25.4,46l.2-1.2h.2l1.1.8,1.5-.4-.5,1.7.8,1.3H27l-1,1.1-.5-1.5L24,46.9Zm.8,12,.2-1.3,1.1.9,1.4-.4-.4,1.5.8,1.2H27.7l-.9.9-.5-1.4-1.4-.6ZM28,55.4l-2.3-2,2.4-3.1,4.2.3v1.6l-2.3,1.3,1.4.9Zm3.9-.8.8.3.4,2.3-.7-.6-.3,3.9-1.6-2.1Zm.7,14.5.8,3.3-3.3-2.6H30l-.2,1.7-1-1.4.9-2.1Zm-2.8,3.8-.2,3.3-1,.6-1.5.4.6-2.5-1.2.3-.7,2.6-1.5.4,1-3.6.2.6,1.9-2.4Zm-5.2,6.2.9-.3-.7.5ZM18,78.5l2.5.6-3.5,1-.3-.3h-.3l.9-3.5Zm-2.5.8h-.8l-2.6-2.6,2.5.7,1.8-1.9Zm-1.4,2.5a.8.8,0,0,0,.2.4h.3L13.7,86,13,83.4l-2.5-.6Zm1.4.9.6-.2h.2L18.9,85l-2.5-.7-1.8,1.9Zm14.7,7.4.2-1.1.9.7,1.1-.3L32,90.6l.6.9H31.4l-.7.8-.4-1.1-1.1-.5Zm1,9.4H30.1l-.7.8-.3-1.1-1-.4.9-.6v-1l.9.7,1-.3-.3,1.1Zm-.5,1.4h1.2l-2.2,1.3Zm15.8-16,2.4-1.4.3-2.5,2.1,1.6,2.6-.7L53,84.8,54.5,87l-2.9-.2-1.7,1.8L49,86Zm11-.4,2.1,1,1.1,3.9Zm2.7-.6.7-.4v-.8l.7.5.8-.2-.2.9.4.7h-.9l-.5.5-.3-.8Zm8.5.4a1.3,1.3,0,0,1,.4-.7,8.9,8.9,0,0,1,2.4-1.3,12.5,12.5,0,0,1,3.1-.7,2.9,2.9,0,0,1,2.1.6.9.9,0,0,1,0,1,2.4,2.4,0,0,1-1.1,1.2L74,85a23.8,23.8,0,0,1-3.4.4,2.6,2.6,0,0,1-1.8-.5A.7.7,0,0,1,68.7,84.3Zm12.2,16.5-.5-.8.7.4Zm.6-4c-.2.1-.3,0-.4-.2s0-.4.2-.4a.4.4,0,0,1,.5.2C81.8,96.6,81.7,96.8,81.5,96.8Zm-.7-3.5c.1.1,0,.3-.2.4l-.4-.2a.4.4,0,0,1,.2-.5C80.6,93,80.8,93.1,80.8,93.3Zm-1,8.6a.5.5,0,0,1,.5-.3h0l-.4.5C79.9,102.1,79.8,102,79.8,101.9Zm7-22.2c0,1-.1,2.1-.1,3.1l-1.1-1.2h-.3l-7.6,2.3a2,2,0,0,0-.4-2.5A3.8,3.8,0,0,0,75.2,80a6.5,6.5,0,0,0-2.8-.3,7.7,7.7,0,0,0-2.6.7h0a15.6,15.6,0,0,1-3.6.2H65.1l-.8-.2a.5.5,0,0,1,.2-.7,7.8,7.8,0,0,1,1.9-1l6.3-2h.1l-.5-.6a2.1,2.1,0,0,0,1.1.4,2.8,2.8,0,0,0,1.3-.3,1.2,1.2,0,0,0,.6-.8,1.1,1.1,0,0,0-.5-.9,1.5,1.5,0,0,0-1.1-.4,1.9,1.9,0,0,0-1.3.2c-.4.3-.6.5-.6.9a.9.9,0,0,0,.1.5l-.6-.7c-.1-.1-.2-.2-.3-.1l-5,1.6c-1.4.2-2.3.1-2.7-.4a.9.9,0,0,1-.1-1.1,8.7,8.7,0,0,0,4.8-2c.3-.3.6-.6.6-.9a.8.8,0,0,0-.2-.8c-.4-.5-1.2-.6-2.4-.2a7.6,7.6,0,0,0-3.2,1.7l-.7.9a8.2,8.2,0,0,1-2.8-.2,3,3,0,0,1-1.7-.7v-.4l.3-.4a10,10,0,0,1,2.3-1.4l5.5-1.8h.1l-1.5-1.7H64c-2.5.8-4.2,1.3-5.1,1.7h-.1a11,11,0,0,1-3,.2c-1.1,0-1.7-.1-1.9-.3s-.1-.4.2-.6a5.7,5.7,0,0,1,1.8-1c.9-.4,2.8-1,5.8-1.9.1,0,.1,0,.1-.1s0-.1,0-.1l-1.4-1.7h-.8a1.9,1.9,0,0,0-.3-2.4,4.5,4.5,0,0,0-2.2-1.3,6.3,6.3,0,0,0-2.7-.3h-.5a16.6,16.6,0,0,0,3.2-2.2,10.9,10.9,0,0,0,2.4-2.9,7.3,7.3,0,0,0,1.1-3,7.1,7.1,0,0,0,0-2.9,13.1,13.1,0,0,0-.9-2.8A10.4,10.4,0,0,0,58,42.7a12.7,12.7,0,0,0-2.7-2.5A40.5,40.5,0,0,1,86.8,79.7ZM70.4,4.9c3.8-1.2,5.2,1.8,3.6,5.4a25.9,25.9,0,0,1-15.9,6.2A20.2,20.2,0,0,1,70.4,4.9ZM60.9,35.2l.2.3a.4.4,0,0,0-.1.3c-2-.6-4-1.2-6-1.6a6.4,6.4,0,0,1-.8-1.4h-.1a23.5,23.5,0,0,1-2-5.6ZM46,17.3a2.3,2.3,0,0,1,1.6-.6,2.3,2.3,0,0,1,1.5.7,2.3,2.3,0,0,1,.6,1.6,2.1,2.1,0,0,1-.7,1.5,2.5,2.5,0,0,1-1.6.6,2,2,0,0,1-1.5-.7,1.9,1.9,0,0,1-.6-1.6A1.8,1.8,0,0,1,46,17.3ZM39.8,32.7h0c-.1.1-.1.1-.1.2l-.8,1a42.9,42.9,0,0,0-6.2,1.4v-.2l.6-.9,9.4-7.4A23.9,23.9,0,0,1,39.8,32.7ZM21.7,8.3c-1.4-3.7.3-6.5,3.9-5A19.5,19.5,0,0,1,37,15.7,24.9,24.9,0,0,1,21.7,8.3Zm-.9,39.8,2.9,1.2.6,2.1v5.3l-3.7,2.4,4,1.7L26,65l2.5-3.3L32,62v.9l-5.4,3.6,1.8,1-1.3.4-2.5-2.1L24.2,69l-2.5,1.7.8.4-4.1,1.1.4-1.5,2.6-.7.3-1.3-2.5.7.4-1.6-1.1-.3-.4,1.6-1.9-1.9-.4,1.3,1.9,1.9-.4,1.5-3.2-3.3-.4,1.3,2.8,2.8-2.4.6.9,1,1.4-.4L16.1,75l-2.1.6-2,.6-.8-.9,1.3-.3.4-1.3-2.5.6,1.1-3.8-1-.9L9.3,74,8.2,72.9l.7-2.5-.9-1L7.3,72l-.7-.7A40.6,40.6,0,0,1,20.8,48.1ZM6.6,88.1h.2l1-3.8L9.6,86l.3-1.3-1-1,1.2-.3,1.5,1.5,1.5,1.5-.3,1.1-1-.9-1.3.3,1.8,1.8-3.8,1L8.1,91l4.5-1.2-.4,1.5L9.6,92l-.3,1.2,2.5-.7-.4,1.6.6.2h.5l.4-1.6,1.9,1.9.4-1.3-1.9-1.8.4-1.5,3.2,3.2.4-1.3-2.8-2.7,2.4-.7-.9-.9-1.4.3.3-1.1,2.1-.6,2-.5.8.8-1.3.4-.4,1.3,2.5-.7-1,3.8.9.9,1.2-4.4L22.8,89l-.7,2.6.9.9.7-2.6,1.2,1.2.2-.2,3.6,1.8.7,2.7-1.5-1.2-.3,2.9L25,99l2.8,1.3.7,2.3-2.7,2.1,9.9,4.1,1,3.4-2.6.8-2.9-2.5-.5,4.1-2.3,1.5A40.7,40.7,0,0,1,6.6,88.1Zm30.7,31.1h1.5l6.6-8.2,10.4.7L54,108.9l1.9-3,3.6.3L57.6,103l1.2-2.7,2.5,1.2,1.9,7.1,4.7-5.7,6.1.4a.4.4,0,0,0,.1.3.8.8,0,0,0,1,.2l2.7-1.7,1.2.3-2.6,1.7c-.6.3-.3,1.3.4,1.3h.8a3.9,3.9,0,0,1-.8,1h-1a.7.7,0,0,0-.7.7.8.8,0,0,0,.4.7,9.4,9.4,0,0,1-1,1c-.1.1-.3.2-.3.4a40.4,40.4,0,0,1-27.9,11.1A38.2,38.2,0,0,1,37.3,119.2Z"/></g></g></svg>