<svg xmlns="http://www.w3.org/2000/svg" viewBox="0 0 92.5 125.9"><defs><style>.cls-1{fill:#000001;fill-rule:evenodd;}</style></defs><title>Donald</title><g id="Layer_2" data-name="Layer 2"><g id="Layer_1-2" data-name="Layer 1"><path class="cls-1" d="M92.5,78.9v-.5A45.9,45.9,0,0,0,72.3,41.5l.8-.3h0a21.8,21.8,0,0,0,6.6-4.6c4.3-5.1-.8-10.8-.8-16.2s2.4-9.4.4-14.1c-1.2-3-4.1-4.4-7.4-4.5A13.8,13.8,0,0,0,64,3.9C61.9,5.2,51.7,15.6,51.5,15.6a2.5,2.5,0,0,0-1-1.6,2.3,2.3,0,0,0-1.6-.6H46a2.8,2.8,0,0,0-1.3.4c-.6.3-1.2.9-1.2,1.3A58.8,58.8,0,0,0,32.1,2.7,14.8,14.8,0,0,0,24.4,0C21-.1,18,1.1,16.6,4c-2.3,4.5-.3,9.5-.6,14.1s-5.9,10.7-2,16.1c2.2,2.5,4.5,4.8,7.7,5.8h.1l.3.2A46.4,46.4,0,0,0,0,79.7a45.9,45.9,0,0,0,8.5,26.7L9.7,108a47.4,47.4,0,0,0,14.4,12.3l2.3,1.2a45.7,45.7,0,0,0,19.9,4.4,47.1,47.1,0,0,0,12.5-1.7l2-.6a44.1,44.1,0,0,0,8-3.5l1.7-1a46.1,46.1,0,0,0,22-39.4ZM76.6,72.2l.9.6c.3.1.3,0,.3.3h-.9l-.4-.8c-.1-.2,0-.1,0-.1S76.4,72.2,76.6,72.2Zm.6-1.7L76,69.9h-.2c-.4-.2-.6-.8-.9-1s.6-.7.8-1.1l-1.4.3-.8-1c-.2,1.6.1,1.2-.9,1.5s-.4.3-.4-.2l-1.5-.2H69.3l-2.8-.4c.1-.2.1-.2.3-.3l2.1-1.2,1.2-.7,1.2-.8v-.3h1.3a8.4,8.4,0,0,0,.4,1.2H73c.2-.3.2-1,.4-1.3l1.3-.2-1.1-.7c.1-.4.3-.8.4-1.2l.4.2.3-.2c0-.1.1-.2.2-.3H75l1.7-2.1.2-.3.9-1.2h.3c.1.4-.3,4.5-.1,5.3l.6.2h.1a6,6,0,0,1-.6,1.1H76.9l.8,1a6,6,0,0,0-.6,1.1l1.5-.3c.2.2.6.4.7.7l-.5.2c.1.8,2,5,2,5.2s-.5-.2-.6-.2l-.6-.4Zm-2.2,3,.5-.6c.2-.3.3-.6.5-.6v1.2c-.2,0-.8.3-1,.2S74.9,73.7,75,73.5Zm-.1-2.4-1.8,2.2c-.3.2-.7.8-.9.8s0-4.7.1-4.9l1.1.3V71a10.6,10.6,0,0,0,.9-1.1,2.6,2.6,0,0,1,1.2.5c0,.2,0,.1-.2.2l-.2.3Zm-4.4-.7h0V72c-.2,0-.6-.5-.8-.7S70.3,70.4,70.5,70.4Zm-1,0-.5.3c-.2-.2-.5-.5-.5-.8h0A7.1,7.1,0,0,1,70,70C70,70.3,70,70.1,69.5,70.4Zm-1.6-6h1.4c0,.2.1.1-.1.2l-1.5.8A2.9,2.9,0,0,1,67.9,64.4Zm5.8-2.3-.9.7-1.1-.6a1.4,1.4,0,0,0,.2.7c.2.5.2.5.3.6a7.6,7.6,0,0,1-1.1.8L70.2,62c-.1-.5-.8-2-.8-2.3s.8.4,1.1.5Zm-1.1-2.8h.7c0,.2.4.9.4,1.1s-1-.6-1.1-.6S72.1,59.4,72.6,59.3Zm1.5.2c.1-.7-.1-.5.5-.6h.5l-.3.4-.7.9C74,59.9,74.1,59.7,74.1,59.5ZM80,62l.7-.3c.3-.1.3,0,.4.2l.3.4c-.2.1-.5,0-.8,0l-.7-.2C79.9,62,79.8,62,80,62Zm-.6,0c0-.1.1-1.4.1-1.6s.2-.2.4,0l.4.3c0,.3,0,.1-.1.3s0,.1-.1.1l-.2.3C79.5,62,79.7,62,79.4,62Zm1.5-2-1.4-.4.2-2.9,1.6,2.7A6.1,6.1,0,0,0,80.9,60Zm-.2,8.2c.4,0,.4.1.7.3s.3.2.4.4a2.4,2.4,0,0,0-.3.9c-.3-.1-.2-.2-.3-.4s-.1-.2-.2-.4Zm.5-.3c0-.3,0-.1.6-.5l.7-.3c.1.2-.3.9-.3.9A1.6,1.6,0,0,1,81.2,67.9Zm-1.5-1.1c0-.3-.1-.7-.1-1l.5-.4.5-.4-1-.2h-.3c-.2-1.1-.3-1.1.2-1l4.3.6-.2.2h-.1l-.3.2ZM82,62.4a4.3,4.3,0,0,1-.2-1.1l.5-.2.7,1.5ZM70.4,4.9c3.8-1.2,5.2,1.8,3.6,5.4a25.9,25.9,0,0,1-15.9,6.2A20.2,20.2,0,0,1,70.4,4.9Zm-12.9,36-.3,1.4L55,40.1l2.3.6Zm1.7,12.8-2.4-2.4a.8.8,0,0,0,.2-.7l3.3-.9-1.7,1.7Zm-7.4-6.2,2.3,2.4a1.4,1.4,0,0,0-.2.7l-3.2.9,1.7-1.7Zm.6-.6,2.3.6,1.6-1.7c-.2,1.1-.5,2.2-.8,3.3H55l-.3.2Zm1.8,4.5c0,.1.1.2.2.3h.2c0,.1,0,.1.1.1h0l-.9,3.3-.6-2.3-2.3-.6Zm1.3.7h.7l2.4,2.4-2.3-.6-1.7,1.7Zm1.3-2.3-.2-.3a.1.1,0,0,1-.1-.1.1.1,0,0,1-.1-.1h-.1c.3-1.1.6-2.2.8-3.3l.7,2.3,2.3.6Zm1.7-8.6h.2l1,.3,1.1.4-2.6.7Zm2.4-6,.2.3a.4.4,0,0,0-.1.3,60.6,60.6,0,0,0-6.1-1.6c-.2-.4-.5-.9-.7-1.4h-.1A29.2,29.2,0,0,1,52,27.1ZM46,17.3a2.2,2.2,0,0,1,1.5-.6,2.4,2.4,0,0,1,1.6.7,2.3,2.3,0,0,1,.6,1.6,2.1,2.1,0,0,1-.7,1.5,2.5,2.5,0,0,1-1.6.6,2.6,2.6,0,0,1-1.6-.7,2.2,2.2,0,0,1-.5-1.6A1.8,1.8,0,0,1,46,17.3Zm.3,21.8a39.4,39.4,0,0,1,7.7.8v.6L56.4,43l-2.2.6.9.9,1.2-.4L56,45.2l-1.8.5-1.9.5-.8-.8,1.3-.3.3-1.2-2.2.6.9-3.5-.9-.8-1.1,4-1-1,.7-2.3-.9-.9L48,42.4l-1.1-1.1-.3.4-.4.4,1,1-2.3.7.9.8,2.3-.6,1,1L45,46.1l.9.8,3.5-.9-.6,2.2,1.2-.3.3-1.2.8.7a13.3,13.3,0,0,0-.5,1.9,10.5,10.5,0,0,0-.5,1.9l-1.1.2a7.9,7.9,0,0,0,.4-1.2l-.9-.8-.6,2.2L45.3,49l-1.1.3,3,3-1.4.4L44.1,51l-1.2.3L44.6,53l-1.4.4a1.2,1.2,0,0,1,.1.5l.2.5,1.4-.4-.6,2.4,1.1-.4.7-2.3,1.3-.4-1,4.1,1.1-.3,1-3.5,1.6,1.6.3-1.2a7,7,0,0,1-.9-.9l1-.2,1.4,1.3,1.4,1.4-.3,1-.9-.9-1.2.3,1.6,1.7-3.4.9-.4,1.2,4.1-1.1L52.5,60l-2.4.7-.3,1.1,2.3-.6-.3,1.4.5.2h.5l.4-1.4,1.7,1.7.3-1.2-1.7-1.7.3-1.4,3,3,.3-1.2-2.5-2.5,2.2-.6-.9-.9-1.2.4L55,56l1.8-.5,1.9-.5.8.8-1.3.3-.3,1.2,2.2-.6-.9,3.5.9.8,1-4,1.1,1-.7,2.3.9.9.6-2.4,1.1,1.1.3-.4.4-.4-1.1-1,2.4-.7-.9-.8-2.3.6-1-1,4-1.1-.8-.8-3.5.9.6-2.2-1.2.3-.3,1.2-.8-.7a13.3,13.3,0,0,0,.5-1.9,10.5,10.5,0,0,0,.5-1.9l1.1-.2a7.9,7.9,0,0,0-.4,1.2l.9.8.6-2.2,2.5,2.6,1.2-.3-3-3,1.4-.4,1.7,1.7,1.2-.3-1.7-1.7,1.4-.4a1.2,1.2,0,0,1-.1-.5l-.2-.5-1.4.4.6-2.4-1.2.4-.6,2.3-1.4.4,1.1-4.1-1.1.3-1,3.5L60.9,46l-.3,1.2.9.9-1,.2L59.1,47l-1.4-1.4.3-1,.9.9,1.2-.3-1.7-1.7,3.5-.9v-.3l1.5.7,2,1h.1l1.5.9,1.5,1,.4.2a40.9,40.9,0,0,1,9.3,8.8l-1,1.2h-.1l-1.8,2.2-.3-.2c-.2-.1-.7-.2-.8-.4V56.5l-.5.5-.5.6a2.6,2.6,0,0,0-1.2-.5,13.4,13.4,0,0,1,.6,1.2c-.2.2-.6.8-.9.8s-1.2-.7-1.5-.8L66,55.7a16.6,16.6,0,0,0,.6,1.6c.2.6,1.8,4.6,1.8,4.9s-.9.7-1.1.7l-1.1-.6.4,1.3-.4.3a1.8,1.8,0,0,0-.7.5h1.4l.4,1.1c-.1.2-5.5,3.1-5.8,3.4l6.5.9c.1.1.1,1,.2,1.2a13.9,13.9,0,0,0-1.3.6c.3.2,1,.2,1.4.4s.1,1,.3,1.3l.7-1.1,1.2.3c0,.5-.1,1.2-.1,1.7v5.2h.1L71.6,78h0l.5-.5c.1-.3.3-.4.5-.7l1-1.4,1-1.3,1.3.4v1.5l.4-.5c.7-.7.7-.5,1.1-.4l.6.2c0-.4-.4-.7-.5-1.1l1-.8,1.4.8L82,75.3l.7.4,1.4.8c-.5-1-.8-2.1-1.2-3.1a11.1,11.1,0,0,1-.7-1.6,15.6,15.6,0,0,1-.6-1.5l.8-.7,1.2.9-.2-1.4.6-.4.3-.2.3-.2-1.4-.2L83,66.8l1.4-.8a29,29,0,0,1,1.4,4.8c.1.6.3,1.2.4,1.7h0c.2,1.6.4,3.2.5,4.8a19.3,19.3,0,0,1,.1,2.4v1.7h0a34.3,34.3,0,0,1-.7,5.6,15,15,0,0,1-.6,2.9h-.4l-7.6,5.8a2.2,2.2,0,0,0-1-2.6,4.9,4.9,0,0,0-2.7-.5,8,8,0,0,0-3,.9,15.9,15.9,0,0,0-2.7,1.8c0,.1,0,.1-.1.1a23.5,23.5,0,0,1-3.5,1.8,2.2,2.2,0,0,1-1.9.2c-.3-.1-.3-.4-.1-.7A12.3,12.3,0,0,1,65.1,94l11.7-9.1v-.2h0l-2.1-1.3c-.1-.1-.2,0-.3.1C68.4,88,64.7,91,63.2,92.2a26.6,26.6,0,0,1-3.8,1.9c-1.1.5-1.8.6-2,.4s-.3-.3-.1-.7A12.3,12.3,0,0,1,59,91.9l5.7-4.6h.1V87l-2-1.2h-.4l-.4.3a2.1,2.1,0,0,0-1.1-2.5,4.4,4.4,0,0,0-2.6-.5,5.3,5.3,0,0,0-3,.9,12.7,12.7,0,0,0-2.7,1.8l-.2.2A20.6,20.6,0,0,1,49,87.6c-1.2.5-2,.6-2.4.4s-.2-.4,0-.8l1.3-1.3L51.5,83a4.5,4.5,0,0,0,1.3-1.5,2.1,2.1,0,0,0,.4-1.7,2.1,2.1,0,0,0-1-1.4l-.9-.5-1-.2-1.5.2.8-.6c.1-.1.1-.1.1-.2h-.1l-2-1.3h-.3l-5.2,3.9c-2.1,1.3-3.6,1.6-4.3.8a10.6,10.6,0,0,0,4.1-3.7,5.5,5.5,0,0,0,.8-3.1,3,3,0,0,0-1.6-2.4,4.3,4.3,0,0,0-3.4-.5A8.7,8.7,0,0,0,34.3,72a12.7,12.7,0,0,0,2.1-2.9,15.6,15.6,0,0,0,1.9-4.2,12.9,12.9,0,0,0,.3-3.8,10.7,10.7,0,0,0-.8-3.2A10.6,10.6,0,0,0,36,55.2a11.6,11.6,0,0,0-2.4-2l-1-.5-.2-3.5L38,46.8l-5.9-1.2-.2-3.8A32.6,32.6,0,0,1,38.2,40l1.3-.3A38.2,38.2,0,0,1,46.3,39.1Zm30,56.4a3.4,3.4,0,0,1-.8,1.8l-1.6,1.3a21.1,21.1,0,0,1-3.5,1.9,2.9,2.9,0,0,1-2.1.3.9.9,0,0,1-.3-.6,2.2,2.2,0,0,1,.3-1,11.9,11.9,0,0,1,2.2-2.5,14.1,14.1,0,0,1,3.1-2.1,2.6,2.6,0,0,1,2.4-.2C76.3,94.6,76.4,94.9,76.3,95.5ZM47.5,109.8c-.7.7-.3,2,1.1,1.8s.4,0,.6-.4-.1-.3.3-.5,0-.1.4-.1,1.2,1.5-.4,2a9,9,0,0,1-3.6.3l-1.5-.4-2.9-.9c-.7-.3-.7-.2-.8-1.2s.4.2.6.1.3-.3.4-.5l.5-.6a5.4,5.4,0,0,0,2.7.6c-.1-.6-.8-1.1.3-.9a2.7,2.7,0,0,0,1.6-.4l-2.5-1h0a14,14,0,0,0,2.8-1.4c1.2-1,.2-.9,2-.9a12.6,12.6,0,0,0,3.8-.6c1.5-.4.4-.3,1.6-.2s.8-.4,2.6-.6a10.1,10.1,0,0,1-2,1.4l-.9.3c-.3.3-.3,1.7,2.7-.3,0,.4-.2.4-.8.9v.8l.5-.4c.1.7-.2,1.5.6,2.4s3.4.6,3.6-.5-1.4-2.5-2-1.4.4.8.6,1.3-.3.1-.5.2a.8.8,0,0,1-.7-.7,1.5,1.5,0,0,1,.5-2,2.7,2.7,0,0,1,4.4,1.3c.2,1.4.3,1.2-.5,2.5a2.5,2.5,0,0,1-.4.7,8.3,8.3,0,0,1-2.6,1.9,18.3,18.3,0,0,1-7.7,1.5H50.3c.2-.2.7-.5.9-.9A2.4,2.4,0,0,0,47.5,109.8Zm.2,9.8a2.1,2.1,0,0,1-1.9-.2v-.8c.1,0,1.8.9,2-.3s-2.3-2.5-3.1-.7a2,2,0,0,0,.6,2.6l-3-.2a2.2,2.2,0,0,0,.5-.8c.8-2.2-1.1-5.2-2.6-6.4a2,2,0,0,1-.7-.6c1.5.1,5.8,2,7.2,2.6a4.9,4.9,0,0,1,2.1,3.3A1.6,1.6,0,0,1,47.7,119.6ZM40.7,97l.8-.2v.8c-.6-.2-1.9-.5-2-1.2s1.4-.2,1.6-.8.3-.7,1.2-1.1c-.4,1.1-.2,1.4-1.6,2Zm2.7,8.2a2.9,2.9,0,0,0,1.6,0c0,.9-1.2,1.5-1.9,1.7h-.4a1.6,1.6,0,0,1-.6-.8l1.4.2C44.1,106.2,43.5,106.2,43.4,105.2Zm10-13.8c0-.3.1-.6,0-.7h-.7a.8.8,0,0,1,.1.4.6.6,0,0,1-.3-.6,1.9,1.9,0,0,1,.3-.9A11.9,11.9,0,0,1,55,87.2a12.1,12.1,0,0,1,3.1-2.1c1.1-.5,1.9-.6,2.4-.2s.4.5.3,1a4.5,4.5,0,0,1-.8,1.8l-2,1.6C55.9,90.7,54.3,91.4,53.4,91.4ZM51,93.8l.2,1.6-.8-.7A1.4,1.4,0,0,1,51,93.8Zm.8-.1a1.2,1.2,0,0,1,.5-.6,5.6,5.6,0,0,0,2.9-1h0a2.9,2.9,0,0,0-.4,2,2,2,0,0,0,.8,1.4h-1c-.9.1-.9-.4-2-.2s.1-1.1-.6-1.1,0,.6-.1.7v-.2C51.7,94.6,51.6,93.9,51.8,93.7Zm8.4,9.6c.1-.2.1-.4.2-.6s.1-.3.4-.4a.1.1,0,0,0,.1.1v.4h.3c0,.6-.7.4-.8.9s.6.1.9-.1v.4l-1.3.2c-2,.3-1,.2-1.7.5l.9-2.1h.5l-.4.9Zm1.5-3c-.4.2-.1.2-.5.4s.1-.7,0-1.4h-.3c-.4.3-.2.3-.5.6s.3-.4-.2-1l-.3.3h-.1a1.9,1.9,0,0,0-.8-.3c.1.2,0,.1.1.3s.1.2.2.3-.3-.1-.2.4h.2a1,1,0,0,1,.9.4h-.9v.4c.3.2,1,0,1.4-.1v.6h-.6l.3.3c-.6.1-1-.3-1.5-.5l-.4.4.7.5c-.8.2.1-.3-1.1-.2l.3.5-1.2.2H56.3l-.2-1.7a7,7,0,0,0-.9-2.4c-.3-.5-.5-.6-.6-1.1l.8-.6.4-.2.4-.3a1.1,1.1,0,0,1-.1-.5l.7.2a2.8,2.8,0,0,0,1.3,0,10.1,10.1,0,0,0,2.2-.8h.1a2.9,2.9,0,0,0-.5,2,2.2,2.2,0,0,0,.9,1.6l1,.4c-.2.4.3.8.4,1.2s-.2.2-.2.3Zm1-1v.5h-.1l-.3-.4Zm-30.8-20a3,3,0,0,1,.5-1.5,12.7,12.7,0,0,1,2.7-3,14.5,14.5,0,0,1,3.3-1.9,2.8,2.8,0,0,1,2.2-.1c.5.3.5,1.1-.3,2.3a8.8,8.8,0,0,1-2.4,2.8c-.3-.2-.7-.1-1.2.1a2.4,2.4,0,0,0-1.1.9,2.5,2.5,0,0,0-.2.7c-1.5.8-2.6.9-3.2.6A.8.8,0,0,1,31.9,79.3Zm-3-28.5.7.7-.7-.2H28ZM28.5,45l-2.3-.5,1.4-.8L30,42.5ZM39.8,32.7h0c0,.1-.1.1-.1.2l-.8,1a42.9,42.9,0,0,0-6.2,1.4v-.2l.6-.9,9.4-7.4A23.9,23.9,0,0,1,39.8,32.7ZM21.7,8.3c-1.4-3.7.3-6.5,3.9-5A19.5,19.5,0,0,1,37,15.7,24.9,24.9,0,0,1,21.7,8.3ZM7.8,66.9l.3-.9.3-.8A40.2,40.2,0,0,1,24.3,45.7l2.2,2.4L24.7,51h-.3a13.2,13.2,0,0,0-3.9,1A14.2,14.2,0,0,0,17.3,54a10.9,10.9,0,0,0-2.2,2.6,5.8,5.8,0,0,0-.9,4,3.9,3.9,0,0,0,1.7,2.9,4.6,4.6,0,0,0,3.8.3,5.2,5.2,0,0,0,2.9-2.2,1.3,1.3,0,0,0,.1-1.2c-.1-.3-.3-.3-.4-.1a3.6,3.6,0,0,1-1.9,1.4,2.8,2.8,0,0,1-2.4-.1,1.4,1.4,0,0,1-.8-1.3,4.1,4.1,0,0,1,.6-2,7.3,7.3,0,0,1,1.8-2.2,13.2,13.2,0,0,1,2.6-1.8,12.8,12.8,0,0,1,3.3-1.1,9.1,9.1,0,0,1,3.7-.1,12.1,12.1,0,0,1,2.5.8l1.1,1.2v-.7l.3.2a6,6,0,0,1,3.3,4.8c.3,2.1-.4,4.5-2.2,7.4a20.8,20.8,0,0,1-3.4,4.3,13.2,13.2,0,0,1-3.8,2.8A8.3,8.3,0,0,1,23.3,75a4.6,4.6,0,0,1-3.1-.7,4,4,0,0,1-1.2-1,3.1,3.1,0,0,1-.5-1h0l.3-.3a35.8,35.8,0,0,0,3.3-3.4c1.2-1.2,2.3-2.4,3.4-3.7l3.1-3.4a13.5,13.5,0,0,1,2.8-2.3,2.9,2.9,0,0,1,2.3-.4c.1.1.1,0,.1-.2a.6.6,0,0,0-.5-.8c-1.1-.5-2.5-.3-4.1.5a27.2,27.2,0,0,0-5.8,4.9c-1.3,1.4-2.6,2.6-3.7,3.6L17,69l-1.9,1.1-1.4.3-1.1-.3c-.1,0-.2-.1-.2-.3s-.1-.2-.2-.2-.2,0-.3.2l-.3.5a2.8,2.8,0,0,0,0,2.2,2.4,2.4,0,0,0,1.3,1.7,3.5,3.5,0,0,0,2.8-.2,10,10,0,0,0,1.9-1.2,3.6,3.6,0,0,0,.2,1.4,4,4,0,0,0,1.9,2.2,7.1,7.1,0,0,0,3.9,1.1,10.9,10.9,0,0,0,4.3-.6A15.9,15.9,0,0,0,31,75.2l-.2.3a6.2,6.2,0,0,0-1,3.4,3,3,0,0,0,1.6,2.3c1.2.8,2.9.8,4.9,0l.8.8a1.9,1.9,0,0,0,.8.3,1.4,1.4,0,0,0,.9,0l-1.9,1.5c-.1,0-.1.1-.1.2h.1l2,1.2a.2.2,0,0,0,.3,0l6.5-5a9.4,9.4,0,0,1,3-1.3,2.7,2.7,0,0,1,1.8,0c.5.5-.4,1.6-2.6,3.4a24.2,24.2,0,0,0-2.4,2,5.3,5.3,0,0,0-1.1,1.4,3.3,3.3,0,0,0-.5,1.8,1.9,1.9,0,0,0,.9,1.4l1.1.5h1.5a6.5,6.5,0,0,0,2.3-.7l.8-.4a4.9,4.9,0,0,0-.7,2.4,2,2,0,0,0,.3,1.1l-.3.3a1.4,1.4,0,0,0,.6.7,4.7,4.7,0,0,1-.7,1.2c-.4-.2-1-.9-1.3-.3s1.7,1.4,2.1,1.9.3.1.6.8.7.2,1.1,1,.9,1.8.6,2.6-2.7,1.6-3.9,1.8c-3.5.4-3.8.6-4-1-1.1.2-.3,1.6.2,1.9s-.2.2-.2.5,0,.4-.3.6h-.1c-.9.3-3.5-.6-3.7-1.9s.5.7,1.8.6a1.2,1.2,0,0,1-.2-.7l1.3-.2c-.1-.9-.2-.6-.9-.7l-1.1-.4c-.8-.3-1.4-.7-1.5-1.6l.6.2c.6.2.3.1.5,0h.1c.3-.4-.3-.7-.4-1h.7c0-.4.1-.2-.1-.5s.2,0,.7-.7l.4.5c.1-.2.3-.3.4-.4s-.6-.8-.6-1.2a8.4,8.4,0,0,1,.4-1.2c1.1,1.2.4,1.9.5,2.4l.5.2c.3-.2.1-.2.3-.4l.3.5.6-.3-.5-.8h.9v-.6l-1.2-.3a4.1,4.1,0,0,1-.7-1.1c1.8.1,1.4.6,1.8,1.3h.6l-.2-.7,1,.2.2-.4a1.1,1.1,0,0,0-.6-.2c.1-.3.2-.3.3-.5l-.3-.3c-.4.1-1,.5-1.4.4l-1.2-.3.7-.4a1.5,1.5,0,0,1,.7-.3c.4,0,1.1.5,1.2-.3h-.5l.8-.5c-.1-.3-.1-.4-.3-.5a.8.8,0,0,0-.6.2v-.5h-.5a1.1,1.1,0,0,0-.3.6c-.1.3,0,.2-.3.4l-1.2.6a3.1,3.1,0,0,1,.2-.8l.2-.7H45v-.7L44,91a2.4,2.4,0,0,0,.2-.9h-.6a1.4,1.4,0,0,1-.2.7l-.5-.3c-.2.1-.1.2-.3.4s.3.5.1,2.2h0c-.9-1.1-.8-1.1-.3-2.2l-.5-.3-.3.6-.2-.2c-.3-.5-.2-.7-.9-.3l.5,1h-.9a.7.7,0,0,0-.1.5c.3.1,1.1.1,1.3.3a4.4,4.4,0,0,1,.8,1.1,8.5,8.5,0,0,1-1.7-.4v-.8h-.5v.6a1.6,1.6,0,0,0-1-.2c-.1.1-.1.3-.2.4l.8.3h-.1l-.3.4.4.3c.6-.2.8-.6,1.2-.4l1.3.3c-.2.3-.2.2-.6.4s-.8.3-1.7,0-.2.1-.2.5H40c-.6.3-.8-.1-1.2-.6s-1.1-1.5-1.5-1.7l-1.5,2.2c-.4.4-.5.3-.5.7h.9c0,.4-.2.5-.4.8v.2h.8c.2.6-.9.9-1.5,1.2s.3.7,1.2.3-.4.4-.6.9.5.2.8.4-.7,1.1-1.4,1.3l-.2-.5c-.4-.8-1.7-.3-2.4-.4s-2-.7-2.1-1.6a1.7,1.7,0,0,0,1.3.3V97.1a1.5,1.5,0,0,0,1-.4v-.6a2.6,2.6,0,0,1-1.8-.2,1.5,1.5,0,0,1-.9-1.3c.4.2.8.4.8-.2s-.4,0-.7-.4,1.1,0,1.2-.6-.1-.5-.4-.5a4.8,4.8,0,0,1-2-.4v-.6l.8.3a1.7,1.7,0,0,0-.5-1.2h.8c0-.5,0-.5-.2-.7s-1.3-.5-1.6-.9l.6-.6c1-1.3,3.6-2.2,5.3-2.4a2.4,2.4,0,0,0-.2.8h1.1l.5.5c.1.1.2.3.4.3s.1-.7.2-1.1h1.2c-.1-.4-.5-.6-.8-.9a1.5,1.5,0,0,0,.4-.9l-1.2.2-.6-1a2.9,2.9,0,0,0-.3,1c-1.3.2-1-.2-1,.3v.2a12.1,12.1,0,0,1-1.9-.1l-2.2.2a12.5,12.5,0,0,0-3.7,1A13,13,0,0,0,21,91l-.8-.2h-.9c-1.9.2-2.8,1.6-2.7,3.5-1.7.2-2.5-.2-3.4,2.2-.7-.8-2-4.9-2.2-5.8A8.7,8.7,0,0,1,12.2,85a4,4,0,0,1,4.1-1.5l.6.3.4.2c1.1.8.7,3.5-1,3.8s-1-.1-1.1-.7c1.8.6,2.3-1.7.3-1.8a2.1,2.1,0,0,0-1.7.8,2.3,2.3,0,0,0,.8,2.6l.4.2a3.4,3.4,0,0,0,3.3-.9,3.6,3.6,0,0,0,.7-1.7v-.7c.1-.3,0-.1.1-.2h0v.2s.1.3.1.1h.6V85l.6-.4v.9h.6l-.2-1.3.7-.4c.1.6.1.5.6.7s-.1-.4-.1-.4-.1-.2.1-.3.1,0,.1.2,0,.7-.2,1l-.3.5c0,.1.1.5.3.5s.5-.5.8-.8-.4.8-.4,1.7.6-.1.8-.4l.3.6c.2-.1.2-.4.2-.8h.8c-.1-.6-.3-.5-1-.6V85c.6.2.4.3,1.3.2s-.1-.5-.3-.6l-1.3-.4v-.4h.5l.2-.4c-.2-.3-.2-.1-.5-.4H24a6,6,0,0,1,.9,1.3c.5-.1.3-.2.7-.3a2.3,2.3,0,0,0-.7-1h.6l.7.8h.5c-.1-.4-.3-.4-.3-.8h.8v-.6h-.7c0-.2.1-.2.1-.5s-.6.5-1.6.6l.6-1c-.4-.2-.7-.3-1,.2l-.5.8h-.7c.1-.3.3-.2.3-.3h0v-.6l-.6.3a1.7,1.7,0,0,1,.1-.7c1.7-.2,1.1.2,1.6-.9l-1.2.2c0-.3.1-.3.1-.6h.8c0-.3.1-.3.1-.6h-.5c0-.2.1-.3.1-.6l-.6-.2-.2.3a.5.5,0,0,1-.2.4l-.5-.3-.4.4.6.6-.2.5a4.6,4.6,0,0,0-.7-.7l-.4.2a1.9,1.9,0,0,0,.5.9c.3.5.2.4.1.9s-.1-.4-.6-.3h0v.2c-.1.4.2.1-.2.3a10.1,10.1,0,0,1-.3-1.7h-.7V81h-.4l-.2-1.1h-.5v.4H19c-.4-.2-.6-.3-1,.1l.7.5c-.4.1-.6.1-.1.7s.8-.1,1.1.1l-.6.2v.7a6.7,6.7,0,0,1,2-.1h-.3l-.2.2c.1.2.3.2.5.3s-.9.1-1.9,0-.2.2-.2.5l.7.4c-1.1.8-1.1-.9-2.5-1.5l-.8-.3h-.8l-2.1.3c.1-1.6.4-3.4-.6-5a4.3,4.3,0,0,0-2.3-1.9l-.5-.2H9.7l-2.2.3h0l-.5.2a5,5,0,0,0-1.2.8,54,54,0,0,1,1.5-8.2Zm25.5,42.7-2.5.3-.2-1.3,1,.2,1.2-1.7,1.3.6c.5-.4.4-.7.5-1s.1-.2.5-.3h.7a6.1,6.1,0,0,1-1.4,1.7c-.8.2-1.6-.4-2.2.9S33,109.3,33.3,109.6Zm1.3-6a1.2,1.2,0,0,1-1.9-1c.7.1.9.3,1.6-.2l-.5-.5c-.3-.3-.3-.3-.4-.8h.7l.2.4h.8c-.2.4.2.9.4,1.2l.7-.5C36.1,103,35.7,103.2,34.6,103.6Zm-8.3,10.1-.5.9-.5-.2a5.2,5.2,0,0,1,1.5-1.5Zm-12.5-9.8-1.2-1.7a8.3,8.3,0,0,1-.8-1.2l-.3-.5-.6-1.1h.6l1,.2a8.6,8.6,0,0,1,3.7,2.6l2.4,2.6-.9-.2A12.8,12.8,0,0,0,13.8,103.9ZM7.3,78.7c-.7,1,.8,1.4.9,1.5H8.1a1,1,0,0,1-.9.2C6.1,80,6,78.1,7,77.2s2.8-.7,4.1.3a3.7,3.7,0,0,1,.9,1.6c.5,1.7-.4,4.1-1.2,5.4a6,6,0,0,0-.8,1.6c-.7,2.5.2,6,1,8.5A22.8,22.8,0,0,0,12.6,98H10.2A40.3,40.3,0,0,1,5.8,80.9a2.5,2.5,0,0,0,1.6.8,2.3,2.3,0,0,0,2-1C10.6,78.6,8,77.5,7.3,78.7Zm7.6,19.7c-.9-2.3.4-3.4,1.5-2.7s-.5.8-.4,1.4,1.4,1.2,2.2.4.2-.2.8-.3l.4,3.2h.8l.2.3H21v.3h.7c-.1-.9,0,.2.5-.8H23V101c1.6-.2,1.2-.8,2.1-1.2.1,1.3-2.8,3-3.6,3.5s-.4,1.7,1.5.5c.1.6-.2.7,0,1.5l1.1-.4.6-.4h.2v.2a3.5,3.5,0,0,1-.8,1.3,4,4,0,0,1-1.5,1c-1.5-1.7-1.8-1.9-3.3-3.4S15.4,100,14.9,98.4ZM29,86.5h-.1c-1.7.8-2.2.5-4.1,2.7a6.6,6.6,0,0,0-.9,1.9c.6-.2,1-1.3,1.5-1.5.2,1.6-1.8,2.7-2,3a.8.8,0,0,1,.2.5h1.5c.1.8-1.1,1.1-1.4,1.4l-.4.4c-.5.4-.5.2-.5.6s-.2.3,1,.1a5.3,5.3,0,0,1-.3,1.1c1,.5.8-.2,1.4-.4s.3.5,0,.8a9.6,9.6,0,0,1-2.2,1.8l-.2-2h.6A4.6,4.6,0,0,0,22,95.2c-.3,0-.7.2-1,0s.4,0,.9-.6a1.9,1.9,0,0,0,.1-2.2l-.3-.5c-.1-.2-.2-.1-.3-.4a8.5,8.5,0,0,1,1.1-1.4,10.2,10.2,0,0,1,6.6-3.7Zm1.4.2-.9.4A8.3,8.3,0,0,0,28,88.2l-.5.6-.5-.6A8.1,8.1,0,0,1,30.4,86.7ZM21.9,98.2l.2,1.3h-.7l-.2-1.3Zm-.8-.4v-.7h1v.7Zm-.2-3.4c-.3,0-.1,0-.2-.1s-.7,1-1.3.1l.3-.2c.3-.1.4.1.3-.7s-.8-.4-1.2,0a1.1,1.1,0,0,0,.2,1.6c.2.1,2.1.2.1.5l-.5.9a1.8,1.8,0,0,0-.4-1.1,1.3,1.3,0,0,0-.6-.4,3.4,3.4,0,0,1,.2-2.3,1.9,1.9,0,0,1,1.8-1.1C20.8,91.5,22.3,93.5,20.9,94.4Zm-.2,3.9.2,1.4h-.7L20,98.4Zm-1-.3v-.7h.9v.7Zm5.7,14.3-.7.7a9.2,9.2,0,0,0-.5-2.9,6.9,6.9,0,0,1-.3-.8,8.2,8.2,0,0,0,1.7-1.1c.2.1.6.8.8,1l1.3-.5c.1.5,0,.6.1,1a4.4,4.4,0,0,0,.2,1C27,111.4,26.8,111.3,25.4,112.3Zm-7.5-3.6c0-.1-.1-.1-.1-.2l-.5-.5-2.2-2.4-.4-.5,1.2.2a13,13,0,0,1,3.7,1.9,6.8,6.8,0,0,1,2.5,3.3,6.3,6.3,0,0,1,.3,1.9l-2.5-2ZM34,118.3h-.5l-2.6-1-3.6-1.7-.5-.3a13.6,13.6,0,0,1,1.2-1.7,7.7,7.7,0,0,1,6-2,6.6,6.6,0,0,1,2.5.7c2.2,1,4.7,2.8,5,5.4a3,3,0,0,1-.6,2.3l-1.6-.3-1.3-.2h.6c.8-.3,1-.7,1.1-1.6.1-2.4-3.3-3-4.4-.8a4.7,4.7,0,0,0-.3,1.7l-1-.3Zm2.5-1.3c.6-.1,1.3-.3,1.6.1s-1.4.2-1.2,1.4a.9.9,0,0,0,.6.7l-1.5-.3A3.4,3.4,0,0,1,36.5,117Zm24.5.5-2.7.9-1.2.4a48.6,48.6,0,0,1-5.5,1.1l-2.6.2a2.4,2.4,0,0,0,.8-2.4,2.9,2.9,0,0,0-.3-1.4c-.1-.4-.4-.9-.5-1.3h3.2a26.1,26.1,0,0,0,6.9-1c2.3-.7,2.4-1.6,5.1-2.5s4.2-.8,5.4,1.2h0l-1.5,1a.1.1,0,0,0-.1.1l-.5-.6a1.8,1.8,0,0,0-2.9,1.4,2,2,0,0,0,0,1.1l-.4.2Zm4.9-2.4h0Zm9.5-7.2-1.7,1.6a33.6,33.6,0,0,1-2.9,2.4l-.3-.4a4.6,4.6,0,0,0-3.9-1.7l-2.2.3c.1-1.5.7-2,0-3.8a4.5,4.5,0,0,0-2.3-2.2v-.7a1.6,1.6,0,0,0,1.2.3c-.3-.5-1-.5-1.2-1.2h.6v-.5h.6v.8l.5-.2h0v-.4c.7.4-.1.7.6.7s.1-.3.2-.4h.8c-.1-.3-.5-.5-.7-.7s.4-.8-.2-.4-.3.2-.7.2l.5-.8c-1,.1-.9.5-1.2.5h-.4c.1-.3.2-.2.2-.5h-.2c-.1-.1-.1-.1-.1,0h-.1a3.3,3.3,0,0,1,1.5-.3v-.6h-.7c.2-.3.4-.2.9-.3s0-.4-.3-.4V99a4.7,4.7,0,0,0,1.5-.6l.6-.4a5.6,5.6,0,0,0-.6,2.3,2.2,2.2,0,0,0,1.1,1.9c1.1.7,2.6.4,4.6-.6h0a3.3,3.3,0,0,0-.5,2.1,1.9,1.9,0,0,0,.8,1.6,3.7,3.7,0,0,0,1.1.4h1.4a6.9,6.9,0,0,0,2.1-.9,20.4,20.4,0,0,0,3.3-1.9c.1,0,.1-.1.1-.2v-.5a1.1,1.1,0,0,1-.1-.5c0-.1-.1-.1-.1,0a28.8,28.8,0,0,1-4,2,2.5,2.5,0,0,1-2,.2c-.2-.1-.2-.4,0-.8a13.8,13.8,0,0,1,2.5-2.6l8.6-6.7A40.5,40.5,0,0,1,75.4,107.9Z"/></g></g></svg>