<svg xmlns="http://www.w3.org/2000/svg" viewBox="0 0 92.5 125.9"><defs><style>.cls-1{fill:#000001;fill-rule:evenodd;}</style></defs><title>Jonathan</title><g id="Layer_2" data-name="Layer 2"><g id="Layer_1-2" data-name="Layer 1"><path class="cls-1" d="M92.5,78.9v-.5A45.9,45.9,0,0,0,72.3,41.5l.8-.3h0a21.8,21.8,0,0,0,6.6-4.6c4.3-5.1-.8-10.8-.8-16.2s2.4-9.4.4-14.1c-1.2-3-4.1-4.4-7.4-4.5A13.8,13.8,0,0,0,64,3.9C61.9,5.2,51.7,15.6,51.5,15.6a2.5,2.5,0,0,0-1-1.6,2.3,2.3,0,0,0-1.6-.6H46a2.8,2.8,0,0,0-1.3.4c-.6.3-1.2.9-1.2,1.3A58.8,58.8,0,0,0,32.1,2.7,14.8,14.8,0,0,0,24.4,0C21-.1,18,1.1,16.6,4c-2.3,4.5-.3,9.5-.6,14.1s-5.9,10.7-2,16.1c2.2,2.5,4.5,4.8,7.7,5.8h.1l.3.2A46.4,46.4,0,0,0,0,79.7a45.9,45.9,0,0,0,8.5,26.7L9.7,108a47.4,47.4,0,0,0,14.4,12.3l2.3,1.2a45.7,45.7,0,0,0,19.9,4.4,47.1,47.1,0,0,0,12.5-1.7l2-.6a44.1,44.1,0,0,0,8-3.5l1.7-1a46.1,46.1,0,0,0,22-39.4Zm-6-1.6-.3-4.8a39.1,39.1,0,0,1,.5,4.8ZM84.3,65.8a5.9,5.9,0,0,1-.2,1.3c-.4,1.1-.7,1.7-1,1.8s-.4,0-.5-.3a9.1,9.1,0,0,1-.3-1.6c0-.8-.1-2.1-.1-3.9a8.5,8.5,0,0,0-.4-1.7,2.1,2.1,0,0,0-1.1-1,1.4,1.4,0,0,0-1.4,0l-.7.3-.7.7a5.4,5.4,0,0,0-.6,1.1v-.9h-.1l-1.9.8c-.1.1-.2.2-.1.3v5.1a27.8,27.8,0,0,1-.5,3.7c-.3,1-.5,1.5-.8,1.6s-.4,0-.5-.3a8.7,8.7,0,0,1-.4-2.2c-.1-.9-.2-3-.4-6.2h-.2l-1.8.8-.2.2a1.3,1.3,0,0,1,.1.5,1.9,1.9,0,0,0-1.8-.7l-.4-1.4-2.6-.8-.3-1.2,2.6.7-.5-2.1-2.6-.7-.7-2.8,1.1.3a1.3,1.3,0,0,0,.3,1.2,1.3,1.3,0,1,0,1.8-1.8,1.3,1.3,0,0,0-1.2-.3l-.3-1.2,2.8.8.7,2.7,2.1.5-.7-2.6,1.3.3.6,2.7,2.1.6-.7-2.7,1.3.4.8-.8-.3-1-1.3-.4,1.9-1.9-2-.5-1.9,1.9-1.3-.4,1.9-1.9-2-.6-2,1.9-2.8-.7.9-.9a1.2,1.2,0,0,0,1.2.3,1.3,1.3,0,0,0,.9-1.5,1.2,1.2,0,0,0-1.5-.9,1.1,1.1,0,0,0-.9.9l-1.2-.4,2.1-2,2.6.7,1.2-1.1A39.3,39.3,0,0,1,84.3,65.8Zm-17.8.8a8,8,0,0,0-.9,2.6,12.2,12.2,0,0,0,0,2.7v.2a14,14,0,0,1-.6,3.2,3.6,3.6,0,0,1-.9,1.9c-.2.1-.4-.1-.5-.4a9.1,9.1,0,0,1-.3-1.6c0-.7-.1-2-.2-3.9a4.1,4.1,0,0,0-.3-1.6,2.3,2.3,0,0,0-1.1-1.1,1.7,1.7,0,0,0-1.4,0l-.7.4-.7.6a2.3,2.3,0,0,0-.6,1.2l-.3-8v-.2h-.1l-1.8.8-.6-2.6.9-.9.7,2.6L58.5,61l-.6-2.6,2-2,.3,1.1a1.2,1.2,0,0,0-.8.9,1.2,1.2,0,0,0,.8,1.5,1.3,1.3,0,0,0,1.6-.8,1.2,1.2,0,0,0-.3-1.2l.9-.8.7,2.7-2,2,.6,2,1.9-1.9.3,1.3L62,65.1l.5,2.1,2-2,.3,1.4,1,.3.8-.7-.4-1.4,1.6.4A5.8,5.8,0,0,0,66.5,66.6ZM59.7,50.3l2,.5,1.5-1.4.5,2,2,.6-1.5,1.4.5,2-2-.5-1.4,1.4-.6-2-1.9-.6,1.4-1.4Zm10.1-3.6,1.1.8-1.5-.4Zm-3.2.6-2.1,2-.3-1.2a1.2,1.2,0,0,0,.9-.8,1.3,1.3,0,0,0-.9-1.6,1.2,1.2,0,0,0-1.5.9,1.1,1.1,0,0,0,.3,1.2l-.9.8-.7-2.8,1.9-1.9v-.5l-.2-.6.5.2,2,1h.1l.6.4-.2.2h-.1Zm-6.1-4.9.6-.5,1.1.5-.4.5-1,.9-.3-1.3Zm7.3,25.4a2.5,2.5,0,0,1,1-1.8.7.7,0,0,1,.9.3,3,3,0,0,1,.8,1.4c.1.9.1,1.6.2,2.2-.2,2.8-.6,4.3-1.3,4.6a.7.7,0,0,1-.6-.1c-.2-.1-.3-.4-.5-.7a9,9,0,0,1-.6-2.8A10.5,10.5,0,0,1,67.8,67.8Zm.3-22.3c0,.1.1.1.2.2h-.2v-.2ZM70.4,4.9c3.8-1.2,5.2,1.8,3.6,5.4a25.9,25.9,0,0,1-15.9,6.2A20.2,20.2,0,0,1,70.4,4.9ZM60.9,35.2l.2.3a.4.4,0,0,0-.1.3c-2-.6-4-1.2-6-1.6-.3-.4-.5-.9-.8-1.4h-.1A29.2,29.2,0,0,1,52,27.1ZM46,17.3a2.2,2.2,0,0,1,1.5-.6,2.4,2.4,0,0,1,1.6.7,2.3,2.3,0,0,1,.6,1.6,2.1,2.1,0,0,1-.7,1.5,2.5,2.5,0,0,1-1.6.6,2.1,2.1,0,0,1-1.5-.7,1.9,1.9,0,0,1-.6-1.6A1.8,1.8,0,0,1,46,17.3Zm.3,21.8a42.6,42.6,0,0,1,8,.8l1.3.4.3.9.2,1,2.6.7.4,1.3-2.7-.7.6,2,2.6.8.7,2.8-1.1-.3a1.3,1.3,0,0,0-2.1-1.2,1.2,1.2,0,0,0-.1,1.7,1.2,1.2,0,0,0,1.2.4l.3,1.2-2.8-.8L55,47.4l-2-.6.7,2.7-1.3-.3-.7-2.7-2-.6.7,2.7L49,48.2l-.7.7.2,1.1,1.4.3-1.8,1.8-1.3-.2-4.3-.6a7.1,7.1,0,0,1-.1-1.4l1.6-.7a13.1,13.1,0,0,0-1.5-.5l-.3-1.8a6.4,6.4,0,0,0-1,1.3l-1.7-.5.3-6.7V39.7A34.9,34.9,0,0,1,46.3,39.1ZM36.5,61.5,35,60.7h-.3c-.5-.2-.6-.9-1.1-1.2a11.3,11.3,0,0,1,1-1.3l-1.8.2-.9-1.2c-.2,2,.1,1.6-1.1,2s-.6.2-.6-.4l-1.8-.2-1.8-.2-3.5-.4c0-.3.1-.2.3-.4l2.7-1.5,1.5-1,1.5-.9V54h1.6c.1.4.4,1,.5,1.4h.1c.3-.4.3-1.3.6-1.7a3.8,3.8,0,0,0,1.6-.3l-1.5-.8a9.4,9.4,0,0,0,.6-1.5l.5.3c.2-.1.2-.2.3-.3l.3-.4c.1-.2.1,0,.2-.2l2.1-2.6.3-.4L37.3,46c.1-.2.1-.2.3-.2s-.4,5.7-.1,6.7l.9.2h0l-.7,1.3-1.5-.2c.3.5.9,1.1,1,1.4a3.7,3.7,0,0,0-.7,1.4l1.8-.5c.2.4.7.6.8.9l-.5.3c.1,1,2.5,6.4,2.4,6.5s-.6-.1-.7-.2l-.8-.5Zm.8,3.2-1.2.2-.5-1.1v-.2h.2l1.2.7C37.3,64.4,37.3,64.4,37.3,64.7Zm-3.5.5.5-.7c.3-.4.5-.8.8-.8v1.5l-1.3.3C33.7,65.2,33.6,65.4,33.8,65.2Zm-.2-3-2.3,2.7c-.2.3-.8,1.1-1,1.1s-.1-6,0-6.2l1.4.4v1.9l1.2-1.4a4.7,4.7,0,0,1,1.5.6c0,.2,0,.1-.2.3l-.3.3C33.8,62.1,33.7,62.1,33.6,62.2Zm-5.5-.9h0a10.3,10.3,0,0,1-.1,1.9c-.1,0-.6-.6-1-.8S27.9,61.3,28.1,61.3Zm-1.2,0-.7.4a1.5,1.5,0,0,1-.6-1.1h0l1.9.2C27.4,61.2,27.5,60.9,26.9,61.3ZM40.1,50.7l.9-.4c.3,0,.3.1.5.3l.3.5a3.3,3.3,0,0,1-1,0l-.9-.2C39.9,50.7,39.8,50.8,40.1,50.7Zm.3-1.2h-.2c-.1.2-.2.3-.2.4s-.3.7-.7.7.1-1.7.1-2,.3-.2.5,0,.4.4.6.4A2.3,2.3,0,0,1,40.4,49.5Zm-2.1-8.3-1.6,2.1h-.2l-2.2,2.8-.4-.2c-.3-.2-.9-.3-1.1-.5V43.8l-.6.6-.7.7a5.2,5.2,0,0,0-1.5-.6c.2.5.6,1.1.8,1.6s-.8.9-1.1,1A9.3,9.3,0,0,1,27.9,46l-1.1-.7-1.1-.6,1.9-1A38.1,38.1,0,0,1,38.2,40l1.3-.3h.1Zm-4.5,5.5c0,.2-.1.3-.3.5a4.8,4.8,0,0,1-.9,1.1c-.1-.3,0-.4,0-.7s-.1-.7.6-.8Zm-3.9,5.2a2.5,2.5,0,0,0,.3.7c-.4.2-1,1-1.4,1l-1-2.9c-.2-.6-1-2.5-1.1-2.9a3.7,3.7,0,0,1,1.4.7l4,2.3c-.1.2-.9,1-1.1,1L29.6,51A1.6,1.6,0,0,0,29.9,51.9Zm.8-4.6h.9a7.8,7.8,0,0,1,.5,1.4l-1.4-.8C30.5,47.6,30.1,47.4,30.7,47.3Zm-4.1,6.4c0,.2.1.1-.2.2l-1.8,1a1.9,1.9,0,0,1,.3-1.2A9.7,9.7,0,0,1,26.6,53.7ZM41,58.5c.4,0,.5.2.8.4a1.5,1.5,0,0,1,.6.5l-.5,1.1c-.3-.1-.2-.1-.4-.4s-.1-.3-.1-.5A4.9,4.9,0,0,1,41,58.5Zm.6-.3c0-.4,0-.2.8-.7a2.5,2.5,0,0,1,.9-.4,1.7,1.7,0,0,1-.5,1.2A2.4,2.4,0,0,1,41.6,58.2Zm-1.9-1.5c0-.3-.1-.9-.1-1.2l.6-.5.7-.5-1.3-.2-.4-.2c-.2-1.3-.3-1.3.3-1.2s5,.6,5.3.8h-.3l-.4.2Zm.1-24h0c0,.1-.1.1-.1.2l-.8,1a42.9,42.9,0,0,0-6.2,1.4v-.2l.6-.9,9.4-7.4A23.9,23.9,0,0,1,39.8,32.7ZM21.7,8.3c-1.4-3.7.3-6.5,3.9-5A19.5,19.5,0,0,1,37,15.7,24.9,24.9,0,0,1,21.7,8.3ZM8.1,66l.8,1.3-1-.3H7.8Zm4.5,36.2a5.7,5.7,0,0,1-.8-1.3A39.5,39.5,0,0,1,5.7,79.7,38.8,38.8,0,0,1,7.4,68.3l.2-.2,1,.3-1.3.8a.6.6,0,0,0-.1.8.6.6,0,0,0,.8.1l2.2-1.3,1,.2L9.1,70.3a.6.6,0,0,0,.3,1.1h2.5a2.7,2.7,0,0,1-.7.8H8.6a.6.6,0,0,0-.6.6.6.6,0,0,0,.6.6h1.5l-.7.8H7.8a.6.6,0,1,0,0,1.2h.4l-.7.7a.7.7,0,0,0,0,.9.5.5,0,0,0,.8-.1l.8-.7v.4a.6.6,0,0,0,.6.6.6.6,0,0,0,.6-.6,9.2,9.2,0,0,1-.1-1.6l.7-.8a7.6,7.6,0,0,0,.1,1.5.5.5,0,0,0,.6.5.6.6,0,0,0,.5-.6V72.9l.7-.8a22.6,22.6,0,0,0,.1,2.6.5.5,0,0,0,1,.2l1.2-2.2.3,1L14.2,76a.6.6,0,1,0,1,.6l.7-1.3.3,1-.3.5h0a11.2,11.2,0,0,0-3.7,2.6A10.6,10.6,0,0,0,10,83a9.9,9.9,0,0,0-.7,3.8,8.6,8.6,0,0,0,.7,3.6,5.3,5.3,0,0,0,2.4,2.7,3.6,3.6,0,0,0,3,.2,3.5,3.5,0,0,0,2-2.5,4.4,4.4,0,0,0,0-3.2,1.3,1.3,0,0,0-.8-.7c-.3,0-.4,0-.3.2a3.7,3.7,0,0,1,0,2.1,2.3,2.3,0,0,1-1.2,1.7,1.4,1.4,0,0,1-1.4-.1,3,3,0,0,1-1.1-1.5,8.1,8.1,0,0,1-.7-4.2,10.2,10.2,0,0,1,1.2-4.2,7.5,7.5,0,0,1,2.5-2.5h.1a.5.5,0,0,0,.8-.2V78h.1l.3.9a.6.6,0,0,0,1.1-.3l-.3-1h.1l.3.2a.6.6,0,0,0,.8-.3v-.2l1-.3q-1.5,3.4-1.2,9.6c.1,2.5.1,4.7.1,6.7s-.2,3.8-.4,5.6a18.7,18.7,0,0,1-1.1,4.4,4.5,4.5,0,0,1-1.9,2.3h-.4l-.8-1c-.1-.2-.1-.5-.2-.7a4.1,4.1,0,0,1,.1-1.2c-.1-.1-.1-.2-.3-.2h-.3c-.2,0-.4.2-.5.5ZM9.3,68a.3.3,0,0,1,.3-.3c.2.1.3.2.2.4s-.2.2-.3.2S9.2,68.1,9.3,68Zm4.4-.3.2.8-.8-.2L12.3,67Zm-.4-3.3c-.2.1-.3,0-.4-.2s.1-.3.2-.3.3,0,.4.2S13.4,64.4,13.3,64.4Zm3.1,4h1.4l-1.2.8-.8-.2Zm-.1-1.2a.2.2,0,0,1,.4-.1c.1.2.1.3,0,.4a.2.2,0,0,1-.4.1C16.2,67.4,16.2,67.3,16.3,67.2Zm1.2,2.7c0,.2-.2.3-.3.2s-.3-.2-.2-.3.2-.3.3-.2S17.6,69.8,17.5,69.9Zm-1.2.3.8,1.3-1.3-.7-.3-.8Zm0,4.4c-.1.1-.3,0-.3-.2s0-.3.2-.3.3,0,.3.2S16.5,74.6,16.3,74.6Zm-.6-2.9c.1.1,0,.3-.2.3s-.3,0-.3-.2,0-.3.2-.3S15.7,71.5,15.7,71.7ZM15,68.1l-.2-.7.7-1.3v1.5Zm.2.8a.6.6,0,0,1-.1.8.6.6,0,0,1-.9-.1.5.5,0,0,1,.2-.8A.5.5,0,0,1,15.2,68.9Zm-.5,2.2L14,72.4V70.9l.6-.5ZM14,67c-.1.1-.3,0-.3-.2s0-.3.2-.3.3,0,.3.2S14.2,67,14,67Zm-1.5,1.7c-.1.2-.2.3-.4.2s-.2-.2-.2-.3.2-.3.3-.2A.3.3,0,0,1,12.5,68.7Zm.4.7.7.2-.5.5H11.6Zm.2,1.9a.2.2,0,0,1-.4.1.5.5,0,0,1,0-.5.3.3,0,1,1,.4.4Zm-1.8,2a.3.3,0,1,1,0-.4A.3.3,0,0,1,11.3,73.3Zm-1.9,2a.3.3,0,1,1,0-.4A.3.3,0,0,1,9.4,75.3Zm15.2,35.3h2.3l-.2.2-.9,1.1-.5.5-.5.5H23.4c-1.2-.9-2.4-1.8-3.5-2.8H20l.6-.3.6-.4.6-.4.6-.4.6-.4h0l1.1.3,1,.2,1,.2-.5.4-.5.5-.6.5h.1Zm-6.9-2.2h.4l-.3.2Zm3.4-2-.3.2-.6.4-.6.4h-.2a4.6,4.6,0,0,0,1.1-1.6v-.2Zm5.6,8.7.2-.2.5-.6.5-.5.5-.5.4-.5.2,1.3.2.9.3-.3.4-.6.4-.6.4-.5.5,1.6.4,1.3v.3l-.4.7-.2.3-3.6-1.7A1.3,1.3,0,0,1,26.7,115.1Zm6.8,3.1h0l.5.2h-.5Zm18.1,1.7,4.9-3,.6,1.9A48.6,48.6,0,0,1,51.6,119.9Zm14.2-13-.4,2.1.5,2.1-3.8-1.9Zm-3.7.1,1.4-4.4,5.3-3.3L66.2,105Zm4.2,6.2.6,1.3a14.3,14.3,0,0,1-2.7,1.5l-.8-.4-1.6-4.5Zm.2-4.4,2.1-1.4,4,1.3-3.9,1.7Zm-12.3-1.6,4,2.1-4.3,2,1.1-2.1Zm3.7,8.2,2.1-3.9,1.9,3.9-2.1-.9Zm1.8.7,1.3,1.4-2.6.9Zm.4-12.8,1.9-1.1-2,4.7-2.2-4.6ZM58,99.8l1.9-10.3,2.2,10.4-2,2.4Zm.1,7.2L54,105.4l-2.7-5.5,5.1,2.8Zm-4.2,6.2,4.2-2.3-1.6,4.4-5.3,3.1Zm14.2.6-.7-1.6,6.3-2.7A39.6,39.6,0,0,1,68.1,113.8Zm7.3-5.9-8-2.7,4.7-10-8.2,5.5L59.6,81.2l-3.3,20-8.5-4.5,4.8,8.8-9.7,3.8,9.6,3.5-3.8,7.4H46.3a40.5,40.5,0,0,1-7-.6h.1l.2-.4c0-.1,0-.2.1-.2v-.2a.9.9,0,0,0-.5-.8H39l-1.5-.8-1.5-.8-1.5-.8h-.2V115l-.7-2v-.6l.8.2,1.2.5h0l-.9-2h.3l1.1.3,1.1.2.6.2,2.9,4.6h.2l.5.3h.6l.6-.3h.2l.3-.3a.4.4,0,0,0,.1-.3.9.9,0,0,0-.1-.7l-.9-1.4-1.7-2.8.4-.2.6-.4.6-.4.6-.3.6-.4.6-.4.6-.4h.1a.8.8,0,0,0,.4-.4h0a.8.8,0,0,0-.1-.7l-.5-.8a.9.9,0,0,0-.6-.4H43l-.3.2-1.3.8-.6.4-.6.3-.6.4-.6.4-.6.4-.4.2h-.3l-1.1-.3-1.1-.2H35l.3-.3.5-.4.5-.5.6-.4-1-.2H34.8l.5-.6.5-.5.5-.5.5-.6h6a.7.7,0,0,0,.4-.6h0a.4.4,0,0,0,.1-.3v-.9h0a.9.9,0,0,0-.6-.8H37.4V96.5h0a1,1,0,0,0-.5-.6H34.9a.7.7,0,0,0-.4.6h0c0,.1-.1.2,0,.2v5.9h-.1l-.5.6-.5.5-.4.5-.5.6h-.1v-.2l-.3-1.6v-.4l-.5.6-.4.6-.3.4-.4-1.2-.5-1.8h0l.4-.7.3-.7.4-.7.8-1.4.3-.7.4-.6h0v-.2a.8.8,0,0,0-.4-1l-.8-.4h-.9l-.4.4v.2l-.3.7-.8,1.4-.3.7-.4.7-.4.6h0l-1.5-.8-1.5-.8L23.4,97h-.2a.9.9,0,0,0-.7.1l-.3.3-.2.3-.2.5a.4.4,0,0,0-.1.3h0a.9.9,0,0,0,.5,1l.5.2,1.4.8,1.5.8,1.5.8h.2v.4l.7,2v.5l-.8-.3-1.2-.4h-.3l1,2.2h0l-1.1-.2-1-.3-.9-.2-2.5-3.9a3.7,3.7,0,0,0,.1-1.1,69.3,69.3,0,0,0,0-9.2c0-.6-.1-1.7-.2-3.4s-.1-2.8-.2-3.5V81.8a23.6,23.6,0,0,1,.2-3,7.1,7.1,0,0,1,.6-2.2l1.6-.6a1.1,1.1,0,0,0,.8-.7,1.4,1.4,0,0,0-.1-1.1.8.8,0,0,0-.5-.5h-.8a5.2,5.2,0,0,0-2,1.7l-1.6.3-1.5.4-.5-.2L17,75l1.3.7a.6.6,0,0,0,.8-.3c.2-.3,0-.6-.2-.8l-2.4-1.2a3,3,0,0,0-.2-1l2.2,1.2a.6.6,0,0,0,.8-.8l-1.4-2.2,1,.2c.5.8,1,1.5,1.4,2.3a.8.8,0,0,0,.8.2.5.5,0,0,0,.2-.8c-.2-.4-.5-.8-.7-1.3l1,.3.8,1.3a.5.5,0,0,0,.8.2.4.4,0,0,0,.2-.7.5.5,0,0,0-.2-.4l1,.2c.3.1.7-.1.7-.4a.6.6,0,0,0-.4-.7l-1-.3.4-.2a.6.6,0,0,0,.1-.8.5.5,0,0,0-.8-.2l-1.4.8-1-.2,1.3-.8c.3-.1.3-.5.2-.8a1,1,0,0,0-.9-.2,16.4,16.4,0,0,1-2.2,1.4l-1-.2,2.2-1.4c.5-.3.2-1-.4-1H17.5l.7-.7h2.6a.6.6,0,0,0,0-1.2H19.4l.7-.8h1.6a.6.6,0,0,0,0-1.2h-.5a2.7,2.7,0,0,0,.7-.8.5.5,0,0,0,0-.8.5.5,0,0,0-.8.1l-.7.7V62c0-.4-.3-.6-.7-.6a.6.6,0,0,0-.5.6v1.6l-.7.8V62.9a.5.5,0,0,0-.6-.5.6.6,0,0,0-.6.6c0,.9.1,1.7.1,2.6l-.7.7a20.1,20.1,0,0,1-.1-2.5.6.6,0,0,0-1.1-.2l-1.2,2.2-.3-1,1.2-2.3a.5.5,0,0,0-.2-.8.5.5,0,0,0-.8.2,8.3,8.3,0,0,1-.7,1.3l-.3-1,.8-1.4a.8.8,0,0,0-.2-.8.5.5,0,0,0-.8.2l-.3.4-.3-1c0-.3-.4-.5-.7-.4a.6.6,0,0,0-.4.7l.3,1-.4-.2a.6.6,0,0,0-.5,1.1l1.4.7.3,1-1.3-.7a.6.6,0,1,0-.5,1.1l2.3,1.2.3,1-2.3-1.2a.5.5,0,0,0-.7.8l1.3,2.2-1-.3L9.1,65.4a.6.6,0,0,0-.7-.2A40.4,40.4,0,0,1,23.6,46.1l.4.8c.6,1.7,1.5,3.8,1.5,4s-1.2.9-1.4,1l-1.5-.8.6,1.6-.6.4c-.2.2-.7.4-.8.7h1.8l.5,1.5c-.2.2-7,3.8-7.4,4.3l8.3,1a8.1,8.1,0,0,1,.1,1.6l-1.6.7c.4.3,1.3.3,1.8.5s.2,1.3.4,1.7l.9-1.4a4.2,4.2,0,0,1,1.5.4c0,.6-.1,1.5-.1,2.2v6.5h0l1.5-1.9h0l.6-.7.6-.8L32,67.5l1.3-1.7a14.2,14.2,0,0,1,1.6.5l-.2,1.9c.3,0,.5-.4.6-.5s.8-.7,1.3-.6l.9.3c-.1-.5-.6-.9-.7-1.4L38,64.9,39.8,66l2.8,1.5.9.5,1.7,1c-.6-1.3-1-2.6-1.5-3.9s-.6-1.4-.8-2-.8-1.6-.9-2l1.1-.8c.4.2,1,.9,1.6,1.1l-.4-1.7.8-.5.4-.3c.3-.1.3-.1.4-.3H44.1l-.2-1.7,2.7-1.6c.8-.5,4.2-2.3,4.5-2.6l-.7-.2,1.5-1.5,1.3.4-2,1.9,2.1.5,1.9-1.9,2.8.8-.8.9a1.4,1.4,0,0,0-1.2-.4,1.3,1.3,0,0,0-.9,1.6,1.2,1.2,0,0,0,2.4,0l1.2.4-2.1,2-2.7-.7-1.5,1.4,2.7.8-1,.9-2.6-.7L50,60.2l2.6.8-1,1,.3,1,1,.3,1-1,.6,2.6,1.3-1.2h0l.4,12.4a12.2,12.2,0,0,1-.6,3.3,2.6,2.6,0,0,1-1.1,1.7c-.2.1-.4,0-.5-.4a7.2,7.2,0,0,1-.5-2c0-.8-.1-2.8-.3-5.8l1.3-.6a.2.2,0,0,0,.2-.2V70.9h-.2l-1.2.5c0-1-.1-2.7-.2-5.1V66h-.2l-1.8.8c-.1,0-.2.1-.2.3.1,2.5.2,4.3.2,5.2l-.9.4a.2.2,0,0,0-.2.2v1.2h.2l.9-.4c0,1.9.1,3.3.1,4.3a23.9,23.9,0,0,1-.5,3.6c-.3,1-.5,1.5-.7,1.6s-.4,0-.6-.3a8.7,8.7,0,0,1-.4-2.2c-.1-.9-.2-3-.3-6.2h-.2l-1.9.8c-.1,0-.1.1-.1.2V76a1.7,1.7,0,0,0-2.2-.6A4.6,4.6,0,0,0,42.5,77a7.2,7.2,0,0,0-.8,2.6,12.2,12.2,0,0,0-.1,2.7.3.3,0,0,0,.1.2,22.9,22.9,0,0,1-.6,3.2,3.6,3.6,0,0,1-.9,1.9c-.3.1-.4-.1-.6-.4a5.1,5.1,0,0,1-.2-1.6,29.9,29.9,0,0,1-.2-3.9,7.5,7.5,0,0,0-.4-1.6,2.2,2.2,0,0,0-1-1.1,1.9,1.9,0,0,0-1.5,0l-.7.4a1.7,1.7,0,0,0-.6.6,4.1,4.1,0,0,0-.7,1.1v-.8c0-.1,0-.2-.1-.2h-.1l-1.8.8c-.2,0-.2.1-.2.2l.2,5.6c-.2,2.1-.8,3.3-1.6,3.4a8.9,8.9,0,0,0-.6-4.7,4.1,4.1,0,0,0-1.7-2.1,2.5,2.5,0,0,0-2.4,0,3.6,3.6,0,0,0-2.1,2.1,7.8,7.8,0,0,0-.8,3.5,8.6,8.6,0,0,0,.7,3.6,5.2,5.2,0,0,0,1.8,2.4,2.4,2.4,0,0,0,2.3,0c1.2-.5,2-1.6,2.5-3.4l.9-.2.7-.4.4-.6v2.2h.2l1.8-.8c.1,0,.1-.1.1-.3l-.2-6.9a9,9,0,0,1,.6-2.7c.3-.7.6-1.2.9-1.3s.9,1,1.1,3.5a16.4,16.4,0,0,0,.1,2.6,5.7,5.7,0,0,0,.4,1.4,2.9,2.9,0,0,0,1.1,1.3,1.5,1.5,0,0,0,1.3,0,1.9,1.9,0,0,0,.9-.5,2.9,2.9,0,0,0,.8-1,5.7,5.7,0,0,0,.7-2,2,2,0,0,1,.1-.7,3.1,3.1,0,0,0,1.3,1.6,1.7,1.7,0,0,0,1.8.2q1.3-.6,1.8-3.3h0a2.2,2.2,0,0,0,1.1,1.2,1.6,1.6,0,0,0,1.5.1,2.6,2.6,0,0,0,.9-.5,3.5,3.5,0,0,0,.6-.9,7.2,7.2,0,0,0,.5-2h0a3,3,0,0,0,1.2,1.3,1.6,1.6,0,0,0,1.5.2l.9-.6a2,2,0,0,0,.7-1l.2-.3v1h.1l1.9-.8c.1,0,.1-.1.1-.3l-.2-6.8a9,9,0,0,1,.6-2.8,2.9,2.9,0,0,1,.9-1.3c.5-.1.9,1,1,3.5s.1,2.1.2,2.6a5.7,5.7,0,0,0,.4,1.4,2.8,2.8,0,0,0,1,1.3,1.7,1.7,0,0,0,1.4,0,2.6,2.6,0,0,0,.9-.5,4.9,4.9,0,0,0,.8-1,9.8,9.8,0,0,0,.6-2,1.5,1.5,0,0,0,.1-.7,3.6,3.6,0,0,0,1.3,1.6,1.9,1.9,0,0,0,1.9.2c.9-.4,1.5-1.5,1.7-3.3h.1a1.9,1.9,0,0,0,1.1,1.2,1.6,1.6,0,0,0,1.5.1l.8-.5a3.5,3.5,0,0,0,.6-.9v.5h.1a.1.1,0,0,0,.1.1l1.9-.8a.4.4,0,0,0,.1-.3l-.2-7a9,9,0,0,1,.6-2.7q.4-1.1.9-1.2c.5-.2.9,1,1,3.4a14.7,14.7,0,0,0,.2,2.7,10.3,10.3,0,0,0,.4,1.4,3.4,3.4,0,0,0,1,1.3,1.7,1.7,0,0,0,1.4,0l.9-.5a4.3,4.3,0,0,0,.7-1,3.9,3.9,0,0,0,.5-1.3c.3,1,.6,1.9.8,2.9l-3.5,5.7-6.8-1.4,4.5,5-3.8,6,6.5-2.9L86.2,87A41.7,41.7,0,0,1,75.4,107.9Zm-22,1.2-2.1,1.5-4.5-1.4,4.7-1.8ZM19.6,70.4c0-.1.2-.2.4-.2s.2.2.2.3-.2.3-.4.3A.5.5,0,0,1,19.6,70.4Zm2.6.6a.5.5,0,0,1,.4-.2.5.5,0,0,1,.2.4l-.3.2C22.3,71.3,22.2,71.2,22.2,71Zm-4-5.8c.1-.1.2-.1.4,0a.3.3,0,1,1-.4.4A.2.2,0,0,1,18.2,65.2Zm1.8-2a.3.3,0,1,1,0,.4A.3.3,0,0,1,20,63.2Zm-7.3-1.7c0,.1,0,.3-.2.3s-.3,0-.3-.2a.2.2,0,0,1,.1-.3C12.5,61.2,12.7,61.3,12.7,61.5Zm34,18.8c-.2,2.8-.6,4.3-1.3,4.6s-.3,0-.5-.1a1.3,1.3,0,0,1-.5-.7,9,9,0,0,1-.6-2.8,8,8,0,0,1,.1-3.1c.2-1,.5-1.6,1-1.8s.6-.1.9.3a3,3,0,0,1,.8,1.4C46.6,78.9,46.7,79.7,46.7,80.3ZM28.5,90.8l.3.5c-.2,1.4-.6,2.3-1.2,2.5s-.4.1-.7-.2a3.5,3.5,0,0,1-.8-1.1,11.4,11.4,0,0,1-.7-3.3,9.6,9.6,0,0,1,.4-3.2c.2-.9.6-1.5,1-1.6s.9.2,1.4,1.3a8.8,8.8,0,0,1,.7,3,1.9,1.9,0,0,0-.5.9A1.7,1.7,0,0,0,28.5,90.8Z"/></g></g></svg>