<svg xmlns="http://www.w3.org/2000/svg" viewBox="0 0 92.8 126.2"><defs><style>.a{fill:none;stroke:#000001;stroke-miterlimit:10;stroke-width:0.28px;fill-rule:evenodd;opacity:0.98;}</style></defs><title>Nate</title><path class="a" d="M.1,79.8a46.1,46.1,0,0,0,8.5,26.7l1.2,1.7A46.3,46.3,0,1,0,72.5,41.6l.8-.3h0a19.9,19.9,0,0,0,6.5-4.5c4.3-5.2-.8-10.8-.7-16.2s2.4-9.5.4-14.1S75.4,2.1,72,1.9A14.6,14.6,0,0,0,64.1,4c-2,1.4-12.3,11.7-12.4,11.7a3.4,3.4,0,0,0-1-1.6,3,3,0,0,0-1.6-.5h-3a3.1,3.1,0,0,0-1.3.3c-.6.4-1.1,1-1.1,1.3-3.3-4.4-7.2-9.1-11.5-12.4A14.5,14.5,0,0,0,24.5.1c-3.3,0-6.3,1.1-7.7,4.1s-.3,9.5-.7,14-5.8,10.7-1.9,16.1a17.2,17.2,0,0,0,7.7,5.9h.4A46.4,46.4,0,0,0,.1,79.8Zm15.1,25.9-2.5-3.3a1.9,1.9,0,0,1,1-.3,2.2,2.2,0,0,1,2.2,2.1A2.1,2.1,0,0,1,15.2,105.7Zm3.3-15.6a2.1,2.1,0,0,1,2.1,2.1,2.2,2.2,0,0,1-4.3,0A2.1,2.1,0,0,1,18.5,90.1Zm-.7-6.9a1.1,1.1,0,1,1,0-2.2,1.1,1.1,0,1,1,0,2.2Zm-.9,15.7A1.1,1.1,0,0,1,18,97.7a1.2,1.2,0,0,1,1.2,1.2A1.1,1.1,0,0,1,18,100,1.1,1.1,0,0,1,16.9,98.9Zm10.5,16.7v-6.8H18.1l-.7-.6H33.6c.5,5.2,4.8,9.6,9.6,12A39.1,39.1,0,0,1,27.4,115.6ZM22.8,81.9A2.2,2.2,0,0,1,24.9,84a2.1,2.1,0,0,1-2.1,2.1A2.1,2.1,0,0,1,20.6,84,2.2,2.2,0,0,1,22.8,81.9Zm-1.4-5.3a1.1,1.1,0,0,1,1.2-1.1,1.1,1.1,0,1,1,0,2.2A1.1,1.1,0,0,1,21.4,76.6ZM26.6,88a1.1,1.1,0,1,1,0,2.2,1.1,1.1,0,1,1,0-2.2Zm-.5-6.7a1.1,1.1,0,0,1,1.1-1.1,1.1,1.1,0,1,1,0,2.2A1.1,1.1,0,0,1,26.1,81.3Zm.7,11.6A2.1,2.1,0,0,1,28.9,95a2.1,2.1,0,0,1-2.1,2.1A2.2,2.2,0,0,1,24.6,95,2.1,2.1,0,0,1,26.8,92.9Zm3.5,8.9a2.1,2.1,0,0,1,2.1,2.1,2.1,2.1,0,0,1-2.1,2.1,2.1,2.1,0,0,1-2.2-2.1A2.2,2.2,0,0,1,30.3,101.8Zm-2.7-2.2a1.1,1.1,0,0,1-1.1,1.1,1.1,1.1,0,0,1-1.2-1.1,1.2,1.2,0,0,1,1.2-1.2A1.1,1.1,0,0,1,27.6,99.6ZM24,105.2a1.1,1.1,0,0,1-1.1,1.2,1.2,1.2,0,0,1-1.2-1.2,1.1,1.1,0,0,1,1.2-1.1A1.1,1.1,0,0,1,24,105.2ZM57.6,101v.2H57l-.3.2H57l.2.2h.3v.7h-.2l-.4.4h-.6l-1.1-.5h-1l-.3.2-.6.3H53l-.3.2h-.1l.2.2h.6l.3.3h1.4l.6-.2h.9l.3.2v.8h-.9l.3.2.4.3h.4v.6H57l-.5.2h-.3l-.4-.3-.4-.2-.2-.2H55v1h0l-.4.3h-1v-2.1H53l-.4-.3-.4-.2h-.3l-.2-.2h-.2v2.6h.1l.2.2.2.2.5.4.2.2h.2l.2.2h.1v.5h-.2l-.2.2h-.5l-.2-.2-.2-.2-.3-.2h-.2v1H49.8v-1h-.2l-.2.2-.3.2h-1v-.7h.4l.2-.2h.2l.5-.4h.3v-.2h.2v-2.7h-.8l-.4.2-.4.2H48v1l-.2.6v.4h-1l-.4-.4h0V107h-.4l-.4.2-.4.2h-.4l-.4-.3h-.1v-.9h.5l.4-.2.4-.2H45l-.2-.2h-.2v-.7l.2-.2.2-.2h.9l.6.3h1.2l.5-.3.6-.2.2-.2h.2l-.3-.2h-.2l-.2-.2H48l-.3-.2-.3-.2H46.2l-.5.2h-1l-.2-.2v-.8h1l-.3-.2-.3-.2h-.3v-.7h.2l.5-.3h.3l.6.4.2.2h.1v-1h0l.5-.3h.9v2.1h.3l.2.2h.3l.6.4.3.2.3.2h.4v-2.1H50l-.9-.8-.2-.2h-.3v-.6h1l.2.2.2.2.2.2h.1V96.8h1l.4.3h0v.2h0v1.3h.2l.3-.2.2-.2h1v.7h-.3l-.2.2h-.3l-.5.4h-.2l-.2.2h-.2v.2h0v1.9h.5l.3-.2.6-.3.3-.2h.7V99.3h1.2l.2.2h0v.9H56l.6-.3h.6l.2.2h.2v.5ZM55.2,78.4a1.3,1.3,0,0,1,1.1,1.2,2.2,2.2,0,0,1-.6,1H54.4a1.9,1.9,0,0,1-.4-1.1A1.1,1.1,0,0,1,55.2,78.4Zm-.4-11.3a2.5,2.5,0,0,1,.4-.7h0a1.9,1.9,0,0,0,.2.8Zm.8-5.3a26.1,26.1,0,0,1-1.2,2.8,2.5,2.5,0,0,1-.4.7,4.5,4.5,0,0,1-1.3,1.6l-.6.2h-.3l-.4-.4a1.6,1.6,0,0,1-.5-1.1,13,13,0,0,1,.1-3.9,11.8,11.8,0,0,1,1.4-4c.6-1.2,1.3-1.8,2-1.8s.8.3,1.2.8a6.4,6.4,0,0,1,.6,2.3A21.5,21.5,0,0,0,55.6,61.8ZM50.8,79.2a1.4,1.4,0,0,1-.5,1H49a1.3,1.3,0,0,1-.4-1.1c0-.6.5-1,1.2-1A1,1,0,0,1,50.8,79.2Zm-1.5,3.4a2.9,2.9,0,0,0,2.7,2,4,4,0,0,0,2.2-.5c.7-1.1.7-1.1,1.1-1.4l.7.3a3.9,3.9,0,0,1-4.1,2.7h0l-2-.2a6.1,6.1,0,0,1-1.8-2.9A1.1,1.1,0,0,1,49.3,82.6Zm37.6-2.8a40.5,40.5,0,0,1-12.5,29.3c-12.3-11.6-12.3-11.6-12.1-13a20,20,0,0,0,.4-2.6,19,19,0,0,1,3.4-1.8s.4-.1,4.4,2.8l1.2-3.2c-3.9-.4-3.6-.5-3.6-.5,1.9-1.1,3.4-2.1,2.7-2.8s-.9-.9-3.2.1l-2.2,1.1c-.3-3.4-1.9-2.9-1.9-2.9-1.6.4,1,3.5.8,3.6l-1.7,1a7.1,7.1,0,0,1-.4-1.8,14.7,14.7,0,0,0-2.7-3c2.4-2.9,2.3-5.4,0-7.8,0,0,0-.5,3.3.6V75.2c-4.6.5-4.7-.1-4.7-.1,1.8-3.4,3-5.4,2.6-6.5h-.1l.2-.2a6.4,6.4,0,0,0,1.4-2.2.1.1,0,0,0,.1-.1,4.9,4.9,0,0,0,1.1,2.3,2.8,2.8,0,0,0,2.1.9l1.5-.2a3.3,3.3,0,0,0,1.4-.9A11.4,11.4,0,0,0,70.1,66l.4-.8a5.8,5.8,0,0,0,1.4,2.7,4.2,4.2,0,0,0,3.4,1.5l.6.6-3.3-.3-.4.2h0a.4.4,0,0,0,.1.5l2.6,2.1H71.6a.7.7,0,0,0-.7-.4.8.8,0,0,0-.8.7.8.8,0,0,0,.8.8.8.8,0,0,0,.7-.4h3.3l-2.6,2.1c-.1.1-.2.3-.1.4h0c.1.2.2.3.4.3l3.3-.4L73.6,78h0a.8.8,0,0,0-.8.1.9.9,0,0,0,0,1.2.8.8,0,0,0,1.1,0,.9.9,0,0,0,.2-.8l2.3-2.4-.3,3.4c0,.1.1.3.2.3h0c.2.1.4.1.5-.1l2.1-2.5v3.2c-.3.2-.5.4-.5.7a.8.8,0,0,0,.8.8.7.7,0,0,0,.8-.8,1,1,0,0,0-.4-.7V77.2l2.1,2.5a.2.2,0,0,0,.4.1h0a.3.3,0,0,0,.3-.3L82,76.1l2.3,2.4h0a1.3,1.3,0,0,0,.2.8.8.8,0,0,0,1.1,0,.9.9,0,0,0,0-1.2.6.6,0,0,0-.7-.1h-.1l-2.3-2.4,3.3.4c.2,0,.4-.1.4-.3h0a.2.2,0,0,0-.1-.4l-2.6-2.1h2.9A36.7,36.7,0,0,1,86.9,79.8Zm-9.7-4.5,1.7-1.6V76l-2,2.4Zm-.5-.5-3,.3,2.4-1.9h2.2Zm1.6-2.3H76.1l-2.4-2,3,.4Zm-1.2-3.3,1.1-.4.7.9V72l-1.7-1.7Zm3,3.3,1.6-1.6,3.1-.4-2.4,2Zm4.7,2.6-3.1-.3-1.6-1.6h2.3Zm-3.6-4.8L79.6,72V69.7l1.9-2.4Zm0,5,.3,3.1L79.6,76V73.7Zm5.1-2.8H83.5l2.4-1.9C86,71.2,86.2,71.8,86.3,72.5Zm-1.4-4.8h.2l.6,2-3.2.3,2.3-2.3Zm-.3-1.3h-.1a1.1,1.1,0,0,0-.2.8L82,69.5l.4-3.3c0-.2-.1-.3-.3-.4H82c-.1,0-.3,0-.3.1h-.1l-2,2.5V68l.5-.5a9.7,9.7,0,0,0,1.7-2.3,14.6,14.6,0,0,0,1.3-2.5A23.9,23.9,0,0,1,84.6,66.4Zm-5-6.8a7,7,0,0,0,.9-1.7L82.3,61a14.7,14.7,0,0,1-1.6,2.8,8.6,8.6,0,0,1-.7,1v-.3H78.5c0,.1-.1.1-.1.2a.8.8,0,0,0,.5.7v.5h-.1l-1.5.8-.5-.7h-.5a.5.5,0,0,0-.2.4v.7h-.4a1.8,1.8,0,0,1-1.5-.7,3.6,3.6,0,0,1-.7-1.9,7.6,7.6,0,0,1-.1-1.5,9.1,9.1,0,0,0,3.3-.9A8,8,0,0,0,79.6,59.6Zm-1.9-4.4c.3.4.3,1.2-.1,2.3a6,6,0,0,1-4.1,3.8A13.6,13.6,0,0,1,75,57c.8-1.3,1.5-1.9,2.3-1.9ZM70.6,5.1c3.7-1.2,5.2,1.7,3.5,5.3a25.6,25.6,0,0,1-15.8,6.2A19.3,19.3,0,0,1,70.6,5.1ZM61.1,35.3V36a42.1,42.1,0,0,0-6.1-1.6,10,10,0,0,0-.8-1.4v-.2a20.9,20.9,0,0,1-2.1-5.6Zm-15-17.9a2.3,2.3,0,0,1,1.6-.6,2.6,2.6,0,0,1,1.5.7,2.5,2.5,0,0,1,.6,1.6,2.4,2.4,0,0,1-.7,1.6,1.8,1.8,0,0,1-1.6.5,1.8,1.8,0,0,1-1.5-.7,2.2,2.2,0,0,1-.6-1.5A2.4,2.4,0,0,1,46.1,17.4Zm.3,21.9A40.4,40.4,0,0,1,77.2,53.5h-.4A6,6,0,0,0,73,55.2a9.9,9.9,0,0,0-2.4,4.1,7.4,7.4,0,0,0-.5,2.9,17,17,0,0,1-1.8,3.1,3.9,3.9,0,0,1-2.1,1.6c-.3,0-.5-.3-.6-.8a9.1,9.1,0,0,1,.1-2.8c.2-1.1.8-3.7,1.7-7.7h2a.3.3,0,0,0,.3-.3l.3-1.4c.1-.1,0-.2,0-.3H67.9c.3-1.3.9-3.5,1.6-6.7a.1.1,0,0,0,0-.2h-3c-.2,0-.3.1-.4.3l-1.6,6.8H63.1c-.2,0-.3.1-.4.3l-.3,1.5a.1.1,0,0,0,.1.1.1.1,0,0,0,.1.1H64c-.6,2.4-1,4.3-1.3,5.6a22.8,22.8,0,0,1-2.1,4.4c-.7,1.1-1.2,1.7-1.6,1.7s-.5-.3-.6-.8a10.9,10.9,0,0,1,.2-2.9c.2-1.3.8-4,1.8-8.2,0-.1,0-.1-.1-.2h-3c-.2,0-.3.1-.3.2a2.1,2.1,0,0,0-.1.6,3.1,3.1,0,0,0-3-1.8,4.4,4.4,0,0,0-3,1.2,6.7,6.7,0,0,0-2.1,2.8,13,13,0,0,0-1.1,3.5,13.9,13.9,0,0,0-.1,3.5,5.7,5.7,0,0,0,.4,1.4c-1.6,0-2.7.1-3.1.8s-.6,1,.4,3.3S47,74.5,46.9,75c-4.9-1-5,.8-5,.8,0,1.8,3.7,1.1,3.6,1.7a8.7,8.7,0,0,0-3.7,4.9c2.5,2.8,2.5,2.8.9,3.2A12.3,12.3,0,0,0,41,87.8a14.8,14.8,0,0,1-1.7-1.2s-.3-.2,2.1-3.7l-3-.7c-.6,3.4-.9,3.2-.9,3.2-2.2-1.3-4.5-2.5-5-1.4s-.4,1.2,2,2.7l2.6,1.2c-3.4,1.7-2.2,2.9-2.2,2.9s3.3-2.4,3.6-2.3l1.9.8a17.4,17.4,0,0,1-.6,2.2c0,2.5.2,4.7.2,4.7a18.5,18.5,0,0,0-5.4,6.6l-4.2-7c-.3-.5-.1-.8.4-.8h2.5a.5.5,0,0,0,.4-.8l-5.2-8.9c-.3-.4-.1-.7.4-.7h1.9c.6,0,.8-.4.5-.8L23.7,70.9l.5.6a3.7,3.7,0,0,0,2.6,1.2,3.6,3.6,0,0,0,3-1.9A17.4,17.4,0,0,0,32,65.7l1.5-6.4c.5-2.2,1-4.6,1.7-7a32.1,32.1,0,0,1,2-6,15,15,0,0,0-.7,8.2,28.9,28.9,0,0,0,1.9,6.3,36.2,36.2,0,0,1,1.8,5.8,6.5,6.5,0,0,1-.5,4.4c-.1.1-.1.2,0,.2a1,1,0,0,0,.9.4c2.2-.1,3.7-3,4.5-8.8.5-3.3,1-6.2,1.5-8.6s1.1-4.3,1.5-5.6a12.7,12.7,0,0,1,1.6-3.1A6.1,6.1,0,0,1,51,44.1a2.8,2.8,0,0,1,1.3-.3l.4.2H53c.1,0,.2,0,.2-.2a1.3,1.3,0,0,0,.1-.6,3.4,3.4,0,0,0-1.1-1.8,2.4,2.4,0,0,0-1.6-.8,4.2,4.2,0,0,0-2.1.8A7.7,7.7,0,0,0,46.7,44,21.4,21.4,0,0,0,45,49.1c-.5,2.3-1.1,5-1.5,8.3-.1,1-.3,2.1-.4,3.3s-.3,2.1-.4,2.6a12.6,12.6,0,0,0-1.2-3.4L40,56.2a28,28,0,0,1-1.2-4.6,13,13,0,0,1,0-4.4,5.9,5.9,0,0,1,1.2-3h1.3a1.5,1.5,0,0,0,1.3-.6,1.7,1.7,0,0,0,.3-1.4,1,1,0,0,0-.6-.9,2,2,0,0,0-1.1-.3,7,7,0,0,0-3.4,1,14.8,14.8,0,0,1-2.4-.4l-1.6-.3A40.5,40.5,0,0,1,46.4,39.3ZM40,32.9a.1.1,0,0,0-.1.1h-.1l-.7,1a64.2,64.2,0,0,0-6.3,1.5v-.3l.6-.9L42.7,27A24.3,24.3,0,0,1,40,32.9ZM21.8,8.5c-1.4-3.7.3-6.5,4-5.1A20.3,20.3,0,0,1,37.2,15.8,25.6,25.6,0,0,1,21.8,8.5ZM17,55.3A8,8,0,0,0,19.5,60a5.6,5.6,0,0,0,4,1.9,4.9,4.9,0,0,0,3.9-2.2,6,6,0,0,0,1.1-4.1,1.6,1.6,0,0,0-.9-1.3c-.4-.2-.5-.2-.5.1a4.2,4.2,0,0,1-.7,2.7,3,3,0,0,1-2.5,1.5,2.3,2.3,0,0,1-1.8-.9,4.4,4.4,0,0,1-1-2.4,10.2,10.2,0,0,1,.5-5.7,10.8,10.8,0,0,1,1.6-3,40,40,0,0,1,6.7-3.8,33.2,33.2,0,0,1,6.1.7c-2.1,2.4-3.8,6.2-5.1,11.5-.6,2.3-1.1,4.3-1.7,5.9a31.9,31.9,0,0,1-1.4,3.9A10.5,10.5,0,0,1,26.4,67a4.5,4.5,0,0,1-1.3,1,5,5,0,0,1-1.3.3l-.5-.2-.3-.2q-.2,0-.3.3V69l.3.9c-.2-.2-.5-.1-.8.2L14.1,83.8a.5.5,0,0,0,.5.8h1.9c.5,0,.7.3.5.7l-5.3,8.9c-.3.4-.1.8.5.8h2.4c.5,0,.7.3.4.8l-3.1,5.3A40.7,40.7,0,0,1,17,51.9,9.7,9.7,0,0,0,17,55.3Z"/></svg>