<svg xmlns="http://www.w3.org/2000/svg" viewBox="0 0 141.61 192.77"><defs><style>.cls-1{font-size:45.04px;font-family:GoldenHillsDEMORegular, Golden Hills DEMO;letter-spacing:-0.01em;}.cls-2{letter-spacing:0em;}.cls-3{fill:#000001;fill-rule:evenodd;}</style></defs><g id="Layer_2" data-name="Layer 2"><g id="Layer_1-2" data-name="Layer 1"><text class="cls-1" transform="matrix(0.65, 0.38, -0.52, 0.85, 9.52, 99.8)">Y<tspan class="cls-2" x="38.69" y="0">ourname</tspan></text><path class="cls-3" d="M141.59,120.75c0-.26,0-.52,0-.76a70.76,70.76,0,0,0-30.9-56.54l1.24-.4h0a34.1,34.1,0,0,0,10-7c6.52-7.85-1.23-16.51-1.2-24.78,0-7,3.69-14.48.6-21.55-1.82-4.68-6.26-6.77-11.34-7A21.73,21.73,0,0,0,97.94,5.94C94.77,8,79.12,23.85,78.84,23.85a4.06,4.06,0,0,0-1.47-2.43,4.12,4.12,0,0,0-2.51-.86H70.38a3.85,3.85,0,0,0-2,.54c-.92.52-1.76,1.47-1.76,2-5-6.84-11-14-17.5-19A21.92,21.92,0,0,0,37.3,0c-5.1-.13-9.67,1.6-11.83,6.13-3.6,6.85-.51,14.57-1,21.55-.57,8.24-9,16.32-3,24.63,3.32,3.89,6.92,7.33,11.83,9h0a3,3,0,0,0,.56.26A70.84,70.84,0,0,0,13,162.84c.6.84,1.21,1.67,1.84,2.48a71.15,71.15,0,0,0,22.09,18.83c1.16.63,2.34,1.22,3.53,1.8A71,71,0,0,0,90,190.12c1-.28,2-.6,3-.94a69.12,69.12,0,0,0,12.19-5.35c.87-.49,1.74-1,2.58-1.52A70.74,70.74,0,0,0,141.61,122C141.61,121.55,141.61,121.15,141.59,120.75ZM107.78,7.57c5.74-1.84,8,2.63,5.42,8.17A38.92,38.92,0,0,1,89,25.23,30.17,30.17,0,0,1,107.78,7.57Zm-13,61.34-2.31,1.51-.36-6.72,1.22.45,1.21.5Zm-4.33,1.62-4-2,.14,2.34L88.82,72l-1.75,1.14-3.34-1.69-3.34-1.69-.11-2.09,2.2,1.12,2-1.28-4-2,5.59-3.67c1.19.31,2.37.64,3.53,1,.34.1.69.22,1,.34l-.57.36ZM70.54,76.75q2.89,1.47,5.8,2.93a3,3,0,0,0,.08,1.48L71,84.74l2.14-4.15Zm.74-1.47,4.6-.22L78,70.89l.36,6.53a3.25,3.25,0,0,0-.43.18,3.21,3.21,0,0,0-.46.29,3.61,3.61,0,0,0-.35.33Zm6,7.22a3.07,3.07,0,0,0,.62.42,2.28,2.28,0,0,0,.36.15l.28.09h0L79,89.66l-2.49-3.88-4.66.29Zm.89-22a.57.57,0,0,1-.42-.15l.65.08A.48.48,0,0,1,78.19,60.46Zm1.73.12c1.06.16,2.12.34,3.16.56a2,2,0,0,1,.26.06l-4,2.59L79.22,61Zm1.23,22,.28-.25,0,0,5.8,2.94-4.6.22-2.08,4.17-.36-6.52A3.19,3.19,0,0,0,81.15,82.58Zm-1.05-5.2-.16,0-.36-6.49,2.49,3.88,4.66-.29L81.25,78a2.74,2.74,0,0,0-.62-.43l-.29-.13Zm2.11,3.44a3,3,0,0,0-.08-1.48l5.47-3.58-2.14,4.15L88,83.75Zm16.3-14.34-1.77,1.15-.12-2.07.6.28C97.66,66,98.08,66.26,98.51,66.48Zm-5.28-12.6.27.52a1.25,1.25,0,0,0-.12.45,71.44,71.44,0,0,0-9.28-2.44c-.36-.69-.76-1.42-1.16-2.16,0-.09-.09-.16-.12-.24a37.54,37.54,0,0,1-3.15-8.54ZM70.36,26.45a3.4,3.4,0,0,1,2.42-.9A3.4,3.4,0,0,1,76,29a3.4,3.4,0,0,1-3.51,3.26,3.28,3.28,0,0,1-2.35-1.09,3.34,3.34,0,0,1,.18-4.76ZM33.2,12.77c-2.14-5.71.41-10,6-7.73A30.14,30.14,0,0,1,56.65,24,38.67,38.67,0,0,1,33.2,12.77Zm32,28.35a35.86,35.86,0,0,1-4.23,9,.56.56,0,0,1-.1.15,1.08,1.08,0,0,1-.13.19c-.24.33-.67,1-1.16,1.61A70.31,70.31,0,0,0,50,54.25l-.13-.41.85-1.34ZM46,65.11,43.64,68.8,40,68.1c.72-.41,1.45-.82,2.2-1.21C43.45,66.26,44.7,65.66,46,65.11ZM11.16,120.42c-1,1.63,1.18,2.25,1.32,2.34,0,0-.08,0-.09.06a1.57,1.57,0,0,1-1.41.29c-1.7-.6-1.84-3.6-.29-4.9,2.2-1.87,4.27-1.15,6.32.4a4.86,4.86,0,0,1,1.34,2.53c.8,2.55-.59,6.24-1.88,8.24a6.29,6.29,0,0,0-1.12,2.44c-1.19,3.75.2,9.09,1.47,12.9a39.92,39.92,0,0,0,2.5,5.33,8,8,0,0,0-1.36,0c-.89.11-1.62.18-2.29.28a61.66,61.66,0,0,1-6.85-26.51,4.27,4.27,0,0,0,2.48,1.22,3.8,3.8,0,0,0,3-1.5C16.2,120.28,12.26,118.66,11.16,120.42Zm13.36,28.25c.22,1.48,2.16,1.78,3.28.57.47-.51.41-.36,1.3-.48l.64,4.9,1.21-.17.29.43a.26.26,0,0,0,.06.08l.81-.1.08.54,1.07-.14c-.14-1.39,0,.29.68-1.19l1.22-.15c.06.58,0,.88.08,1.63,2.48-.32,1.86-1.28,3.23-1.79.16,1.89-4.37,4.53-5.59,5.24-1.64,1-.64,2.69,2.37.84,0,.89-.29,1-.12,2.22a4.25,4.25,0,0,0,1.74-.48,9.39,9.39,0,0,0,1-.68c.08-.05.16-.2.23,0l.06.26a6.83,6.83,0,0,1-1.22,2,6.29,6.29,0,0,1-2.25,1.57c-2.36-2.66-2.82-3-5.13-5.25-1.94-1.91-5.89-5.52-6.75-7.9-1.3-3.56.68-5.23,2.33-4.11C24.83,147.22,24.35,147.64,24.52,148.67ZM40.29,174a11,11,0,0,0-.82,1.46c-.24-.14-.49-.27-.72-.42a7.86,7.86,0,0,1,2.3-2.29ZM38.88,172c-.38.29-.77.66-1.12,1a14.39,14.39,0,0,0-.7-4.35,4.71,4.71,0,0,1-.45-1.31,9.21,9.21,0,0,0,2.55-1.72,6.76,6.76,0,0,1,1.17,1.64,19,19,0,0,1,2.1-.83c.09.75,0,.88.06,1.52s.25.83.35,1.62A32.05,32.05,0,0,0,38.88,172Zm3.14-36-.63-.92a10.16,10.16,0,0,1,5.1-2.33,4.31,4.31,0,0,1-1.35.69A7,7,0,0,0,42.92,135C42.55,135.29,42.43,135.6,42,135.94Zm2.38-3.62a.2.2,0,0,1-.09.06l-.09.05c-2.52,1.23-3.34.75-6.2,4a7.66,7.66,0,0,0-1.44,2.9c.91-.16,1.47-1.86,2.35-2.23.27,2.51-2.79,4.18-3.16,4.56a3,3,0,0,1,.39.78c.88-.12,1.33,0,2.32-.17.05,1.29-1.71,1.76-2.17,2.13l-.61.63c-.77.69-.77.4-.88.9.36.46-.24.44,1.53.22a9.69,9.69,0,0,1-.32,1.68c1.46.79,1.14-.28,2.11-.69.4.57.49.78,0,1.36a18.22,18.22,0,0,1-3.37,2.68l-.39-3,1-.12a8.79,8.79,0,0,0-1.68-2.39,3.15,3.15,0,0,1-1.52.05c.17-.63.58-.05,1.38-1a2.34,2.34,0,0,0,.56-1.53,2.8,2.8,0,0,0-.44-1.79c-.11-.19-.28-.48-.44-.71s-.26-.24-.43-.7a9.14,9.14,0,0,1,1.64-2,15.63,15.63,0,0,1,10.07-5.71A.37.37,0,0,1,44.4,132.32ZM33.58,150.26l.26,2h-.13l-.83.11-.12,0-.28-2Zm-1.33-.52-.14-1.09,1.52-.19.06.55.08.53Zm-.24-5.2c-.55-.13-.14-.09-.4-.16-1.5-.35-1,1.49-2,0l.53-.19c.46-.17.55.06.4-1.15-.57-.22-1.15-.61-1.82,0a1.61,1.61,0,0,0,.38,2.44c.31.15,3.23.32.06.72a8,8,0,0,1-.79,1.36c-.13-.92,0-1-.51-1.56a2.94,2.94,0,0,0-1-.74,5.22,5.22,0,0,1,.4-3.47,2.83,2.83,0,0,1,2.67-1.64C31.84,140,34.12,143.08,32,144.54Zm-.34,6,.28,2-1.11.14-.26-2ZM30.09,150l-.15-1.09.69-.09.4-.05.41,0,.14,1.08Zm-5.37,6.33,3.81,4.09A10.68,10.68,0,0,1,27,160a23.42,23.42,0,0,0-5.92-1c-.64-.85-1.25-1.71-1.84-2.59-.42-.63-.83-1.27-1.22-1.91a2.08,2.08,0,0,0-.46-.79c-.34-.56-.66-1.14-1-1.71l1,.07a10.73,10.73,0,0,1,1.48.26C21.05,152.89,23.36,154.93,24.72,156.35Zm2.75,10-.24-.25q-.39-.36-.75-.75c-1.18-1.19-2.31-2.45-3.38-3.75-.2-.23-.38-.47-.57-.7a9.14,9.14,0,0,1,1.82.24,23.82,23.82,0,0,1,5.67,3c1.56,1.2,3.32,3,3.82,5a23.91,23.91,0,0,1,.52,3c-1.35-1-2.68-2-3.95-3.11C29.4,168.14,28.42,167.25,27.47,166.32Zm24.63,14.8c-.27-.08-.54-.17-.81-.28-1.33-.43-2.65-.92-3.95-1.45a61.25,61.25,0,0,1-5.62-2.63l-.77-.44a19,19,0,0,1,2-2.61c1.91-2.11,5.76-3.29,9.17-3.06a9.22,9.22,0,0,1,3.82,1.07c3.26,1.47,7.15,4.35,7.64,8.34a4.48,4.48,0,0,1-.91,3.41c-.82-.11-1.64-.23-2.44-.38s-1.32-.27-2-.41a3.38,3.38,0,0,0,.89-.15c1.21-.4,1.53-1,1.61-2.31.2-3.72-5-4.61-6.64-1.34a5.41,5.41,0,0,0-.54,2.64c-.48-.14-1-.25-1.42-.4ZM51.66,156c-.46-.46-.41-.4-.52-1.22l1.09-.14.2.52,1.22-.15a2,2,0,0,0,.66,1.83c.66-.23.47-.44,1.15-.69-.14,1.52-.86,1.87-2.45,2.51s-2.62.16-2.94-1.53c1,.05,1.36.39,2.43-.32C52.29,156.52,52,156.26,51.66,156Zm-1.39,8a14.83,14.83,0,0,0,1.89.85c.77-.67.62-1.08.8-1.47s.15-.3.8-.49a7.06,7.06,0,0,1,1-.18,7.3,7.3,0,0,1-2.19,2.54c-1.13.38-2.34-.5-3.35,1.5.44.54,1.19.55,1.63,1l-3.79.49-.28-2a8.23,8.23,0,0,0,1.58.35Zm12.07-15.52a3.61,3.61,0,0,0,1.21-.31l-.26,1.3c-.81-.31-2.8-.9-3-1.84,1.84-.65,2.22-.33,2.41-1.31.15-.81.49-1.09,1.91-1.59-.57,1.56-.26,2.06-2.47,2.95Zm8.91,27.3c1.16.58,3.26,3,3.28,4.93A2.76,2.76,0,0,1,73,183.08c-1,.64-2.22-.08-2.94-.4l-.12-1.1c.17,0,2.76,1.27,3-.58.55-3.51-3.54-3.71-4.7-.94a3.06,3.06,0,0,0,.86,3.92c-1.52,0-3-.14-4.52-.29a5.86,5.86,0,0,0,.67-1.29c1.27-3.29-1.6-7.89-3.93-9.68a8.73,8.73,0,0,1-1.12-.92C62.63,171.9,69.18,174.74,71.25,175.76Zm-4.8-14.71a5.06,5.06,0,0,0,2.35,0c.08,1.41-1.71,2.3-2.8,2.6-.29.1-.26.14-.63,0a2.11,2.11,0,0,1-1-1.17,7.31,7.31,0,0,0,2.16.23C67.5,162.55,66.64,162.48,66.45,161.05Zm-1.93,6.32c1.34.49,2.35,1.2,4.25,1-.18-.92-1.35-1.61.34-1.41a3.35,3.35,0,0,0,2.58-.63l-3.9-1.42s.06-.09.08-.06a23.16,23.16,0,0,0,4.18-2.16c1.89-1.45.39-1.32,3.07-1.27a30.65,30.65,0,0,0,5.82-.92c2.25-.72.58-.58,2.49-.38,2.13.23,1.17-.57,3.91-.94a13,13,0,0,1-3,2.12c-.24.1-1.37.44-1.42.49-.49.42-.37,2.58,4.12-.49,0,.59-.34.65-1.18,1.4l.15,1.21a3.63,3.63,0,0,0,.75-.5c.14,1-.24,2.22,1,3.53,2,2.24,5.13.92,5.53-.62.71-2.8-2.22-4-3.11-2.16-.63,1.27.6,1.24.86,1.88a1.91,1.91,0,0,0-.65.37c-.53-.22-1-.35-1.19-1a2.48,2.48,0,0,1,.89-3.14c2.72-2.23,6.33-.44,6.64,1.93s.47,1.94-.67,3.89a7.73,7.73,0,0,1-.72,1,12.09,12.09,0,0,1-3.89,3,27.4,27.4,0,0,1-11.76,2.31,11.52,11.52,0,0,1-1.3-.06,6.67,6.67,0,0,0-1.36-.14,9.06,9.06,0,0,0,1.44-1.36c2.49-4-2.79-7.73-5.77-4.8-1.06,1-.46,3,1.68,2.77.51-.06.71,0,1-.58s-.19-.45.49-.72c.07-.07-.12-.2.49-.16.82.06,1.86,2.25-.58,3a13.38,13.38,0,0,1-5.45.38,11.11,11.11,0,0,1-2.3-.5l-4.41-1.43c-1.13-.46-1.13-.27-1.36-1.9.46.07.67.34,1,.29s.44-.52.63-.85S64.3,167.77,64.52,167.37Zm27.65-9.26c.11-.29.19-.59.29-.87.14-.43.07-.5.62-.63a.33.33,0,0,1,.06.1l.18.7.55-.06c-.1.87-1.15.64-1.33,1.41.49.52.93.16,1.49-.19l.09.68-2,.27c-3.07.4-1.42.29-2.54.74L90.92,157l.83-.1a5.22,5.22,0,0,0-.66,1.34Zm-36.35,21c1-.14,2-.46,2.48.09-.32.23-2.14.34-1.77,2.16a1.51,1.51,0,0,0,.82,1.12c-.77-.17-1.54-.35-2.3-.55A5.19,5.19,0,0,1,55.82,179.13Zm37.48.66c-1.31.52-2.63,1-4,1.39-.63.21-1.27.4-1.91.58A62.19,62.19,0,0,1,79,183.48c-1.31.17-2.64.29-4,.38a4.13,4.13,0,0,0,1.25-3.78,7.27,7.27,0,0,0-.49-2.1,19.4,19.4,0,0,1-.74-1.9,5.62,5.62,0,0,1,1.23,0l3.7,0a44.89,44.89,0,0,0,10.53-1.49c3.44-1.12,3.63-2.57,7.81-3.9,3-.93,6.42-1.27,8.18,1.9a.36.36,0,0,1,0,.11c-.76.53-1.53,1.05-2.32,1.56l-.16.1a1.92,1.92,0,0,0-.69-.85c-1.32-.89-4.15-.91-4.55,2.05a4.15,4.15,0,0,0,.13,1.72l-.62.33C96.69,178.38,95,179.13,93.3,179.79Zm7.57-3.58A.4.4,0,0,1,101,176s.08,0,.12.09Zm31.92-51.6v0a63.16,63.16,0,0,1-.93,8.44,62,62,0,0,1-16.49,32c-.82.85-1.68,1.68-2.55,2.48-1.43,1.33-2.93,2.58-4.49,3.77l-.45-.74a7.06,7.06,0,0,0-6-2.54c-1.13.15-2.28.3-3.39.43.16-2.21,1.2-3,0-5.74a6.6,6.6,0,0,0-3.41-3.34l-.16-1.1c.63.23.91.56,1.73.47-.36-.87-1.54-.81-1.76-1.87l.86.19,0-.83c.38.05.6.11,1,.15l.15,1.23.72-.29a.41.41,0,0,0,0-.11.25.25,0,0,0,0-.12c0-.15,0-.38-.06-.54,1.13.54-.09,1.14,1,1.12.34-.09.19-.46.32-.73a4.77,4.77,0,0,0,1.14.26c-.17-.43-.68-.77-1-1.12,1-.84.51-1.21-.43-.57-.52.35-.41.28-1,.22l.67-1.2c-1.41.17-1.24.74-1.82.84l-.58-.12c.2-.41.26-.23.32-.73l-.37-.14c-.13-.08-.15-.06-.15,0a1.42,1.42,0,0,0-.08-.17,7.23,7.23,0,0,1,2.3-.44l-.12-.94-1.09.14c.25-.49.57-.35,1.32-.46-.1-.79.09-.63-.49-.61a3.6,3.6,0,0,1,.27-.84l-.56-.37a2.32,2.32,0,0,0-.62.63.79.79,0,0,0,0-.09.33.33,0,0,1-.06-.1s-.1-.12-.13-.13c-.19-.17,0-.16-.38-.14-.09.18,0,0-.06.3,0,.11,0,.14,0,.14a.34.34,0,0,1,0,.11l-.23,1.27-.14-.15-.72-1c-1,.44,0,1.41.29,2.19a1.92,1.92,0,0,0-.36.44l-.37-.64c-.6.27-.12.26-.75.52-.4-1,.11-1,0-2.07-.41-.06-.23,0-.57-.21-.49.47-.21.52-.72.93-.39-1.09.43-.63-.33-1.48l-.45.38-.06.08-.09.16a2.52,2.52,0,0,0-1.16-.52c.06.39,0,.25.15.57s.12.2.25.32c-.33.31-.37,0-.36.61a.22.22,0,0,0,.11,0l.34,0a1.44,1.44,0,0,1,1.31.68c-.18,0-1.24.11-1.33.14l0,.58c.55.26,1.6-.08,2.19-.16l.12,1-1,.12.47.49a4,4,0,0,1-2.18-.83c-.23.2-.4.42-.6.63.4.46.76.49,1,.83-1.34.18.05-.54-1.68-.32a2,2,0,0,0,.37.64c-.61.09-1,.26-1.76.37s-1,0-1.78.09l-.18-2.48a9.12,9.12,0,0,0-1.52-3.75c-.46-.69-.75-.83-.87-1.73.38-.28.77-.52,1.2-.81a5.56,5.56,0,0,1,.64-.35l.6-.4c-.13-.92.09-1.23-.69-1.32a8.11,8.11,0,0,0-1.69.12c-1.39.19-1.39-.5-3.07-.3-.14-1.06.1-1.67-.88-1.55-.09.29-.06.8-.15,1-.14-.16-.06,0-.15-.29a3.19,3.19,0,0,1-.11-1.87c.18-.37,2-2.16,2.28-2.63a5.2,5.2,0,0,0,.26-2l-1.07.14a4.23,4.23,0,0,1,0,1c0,.7.18.29-.23.67a1.7,1.7,0,0,1-.27-.91c-1.09.13-1,.36-1.47,1.28-.31-.14-.29-.26-.72-.18-.66.13-.2,0-.36.21l-.13.28c-.31-.43-.17-.37-.63-.62a1.54,1.54,0,0,0-.77.51,4.08,4.08,0,0,0,1,1.12,10.3,10.3,0,0,1-1,1.79c-.68-.31-1.59-1.41-2.11-.42.3.72,2.61,2.1,3.33,2.79s.43.2.83,1.33,1.16.29,1.65,1.5,1.5,2.74,1,4c-.78,1.79-4.11,2.47-6,2.71-5.32.66-5.68.86-6-1.58-1.68.37-.55,2.56.25,3a1.25,1.25,0,0,0-.34.72c-.12.6.09.63-.41.91a.93.93,0,0,0-.2.09c-1.32.53-5.28-.92-5.68-2.79,1.16-.12.76,1.09,2.88.88a2.19,2.19,0,0,1-.43-1.06,7.38,7.38,0,0,0,2-.4c-.16-1.32-.3-.9-1.36-1.07a7.75,7.75,0,0,1-1.7-.51,3.12,3.12,0,0,1-2.29-2.41,3.29,3.29,0,0,1,.92.24c1,.26.47.09.71,0l.19-.1c.47-.53-.42-1-.61-1.43l1.08-.14c.08-.58.11-.28-.1-.81,1.14.1.29-.06,1-1.1.25.26.4.52.65.75a2.35,2.35,0,0,0,.59-.63c-.22-.65-.87-1.09-.82-1.75,0-.24.41-1.5.5-1.82,1.72,1.79.69,2.89.77,3.64l.86.29c.36-.35.1-.26.47-.59a2.84,2.84,0,0,0,.38.76,1.73,1.73,0,0,0,.89-.52c-.26-.35-.44-.76-.7-1.15.65,0,.69.17,1.39.1l-.11-.81a7.22,7.22,0,0,1-1.91-.51,6.88,6.88,0,0,1-1-1.74c2.64.23,2.15,1,2.76,2l.81-.11a4.12,4.12,0,0,0-.28-1.07,6.33,6.33,0,0,0,1.57.35,3.86,3.86,0,0,0,.32-.72,2.29,2.29,0,0,0-1-.28c.18-.42.36-.36.47-.78l-.49-.47c-.58.23-1.41.78-2,.67a10.91,10.91,0,0,0-2-.43l1.07-.65a2.7,2.7,0,0,1,1.09-.42c.72,0,1.78.77,1.93-.43l-.84-.16c.35-.34,1-.51,1.25-.86a1.32,1.32,0,0,0-.5-.75,2.68,2.68,0,0,0-.92.38,2.75,2.75,0,0,0,0-.83l-.81.11a2.84,2.84,0,0,0-.37.94c-.2.56-.06.41-.53.68a13,13,0,0,1-1.81.94,5.91,5.91,0,0,1,.34-1.21,8.86,8.86,0,0,1,.32-1.09l1.77-.23-.15-1.11-1.33.35a3.79,3.79,0,0,0,.24-1.29,1.75,1.75,0,0,0-.82-.17,3.51,3.51,0,0,1-.32,1l-.72-.49c-.4.22-.2.28-.6.63,1.79,2.07.52.78.29,3.41,0,0,0-.06-.06-.07l-.06-.08c-1.33-1.77-1.23-1.68-.35-3.37a8,8,0,0,0-.88-.44l-.43.89c-.13-.11-.07,0-.27-.29-.54-.75-.37-1.18-1.35-.46a5.45,5.45,0,0,0,.74,1.42,6.21,6.21,0,0,0-1.4-.11,3.08,3.08,0,0,0-.18.71,20,20,0,0,1,2.08.49,6.85,6.85,0,0,1,1.12,1.74,15.09,15.09,0,0,1-2.59-.64L61.64,141l-.67.09,0,1a4.87,4.87,0,0,0-1.56-.33,4.62,4.62,0,0,0-.32.71,3.27,3.27,0,0,1,1.16.4l-.08.08-.42.57.64.44c.79-.29,1.09-.86,1.84-.67a10.77,10.77,0,0,0,1.86.46c-.24.44-.29.36-.81.62-1.15.58-1.35.43-2.71,0-.23.44-.32.26-.29.85a1.47,1.47,0,0,1,.52.11l.48.2c-1,.37-1.32-.18-1.9-.9a13.89,13.89,0,0,0-2.3-2.71l-2.29,3.37c-.58.68-.72.5-.71,1.16l1.37-.18c-.07.61-.28.7-.6,1.14-.17.23-.11,0-.19.34l1.23-.15c.35,1-1.33,1.45-2.25,1.82.15,1.16.47,1.07,1.73.58-.09.8-.57.61-.92,1.38.38.38.86.3,1.3.52.05,1-1.16,1.77-2.23,1.94l-.26-.63c-.55-1.36-2.58-.58-3.72-.7-1.29-.14-2.93-1-3.14-2.45a2.79,2.79,0,0,0,2,.44l-.22-1.76c1-.16,1-.12,1.57-.62l-.13-.95a4.19,4.19,0,0,1-2.69-.31,2.17,2.17,0,0,1-1.47-1.91c.64.23,1.24.55,1.32-.43-.63-.24-.71,0-1.17-.57.85-.1,1.76,0,1.9-.87a.62.62,0,0,0-.6-.79,6.6,6.6,0,0,1-3.1-.57l-.14-1a4.51,4.51,0,0,0,1.16.41,2.87,2.87,0,0,0-.79-1.85l1.36-.17c-.08-.66,0-.71-.43-1a15.4,15.4,0,0,1-2.36-1.38,4.6,4.6,0,0,0,.81-.84c1.54-2,5.58-3.51,8.12-3.77,0,.55-.19.77-.25,1.26l1.76-.23a8.55,8.55,0,0,1,.63.78c.21.27.34.5.66.57.18-.54.17-1.2.32-1.69l1.9-.24c-.22-.57-.88-.89-1.27-1.36a3.13,3.13,0,0,0,.64-1.32l-1.88.24-.89-1.53a4.94,4.94,0,0,0-.49,1.58c-1.94.26-1.53-.37-1.56.49v.26c-.9.11-1.91-.21-2.93-.17s-2,.12-3.27.28a15.17,15.17,0,0,0-5.68,1.62c-2.74,1.76-5.57,3.7-7,6.66-.64,0-.7-.14-1.25-.29a3.55,3.55,0,0,0-1.43-.05c-2.78.32-4.25,2.46-4.15,5.37-2.46.31-3.68-.21-5.06,3.42-1.13-1.23-3.12-7.5-3.37-8.82-.49-2.6.17-6.67,1.79-8.77a6,6,0,0,1,6.23-2.27,3.51,3.51,0,0,1,.93.39l.59.35c1.66,1.19,1.08,5.31-1.57,5.83-1,.18-1.45-.15-1.65-1.06,2.74.89,3.61-2.66.52-2.87a3,3,0,0,0-2.57,1.3,3.29,3.29,0,0,0,1.12,3.92l.63.29A5.06,5.06,0,0,0,28,134.73a5,5,0,0,0,1-2.64l.11-1.13c.07-.41,0-.11.09-.3,0,0,0,.07,0,.09l.16.29s0,.49.1.18c0,0,0,.06.05.08l.81-.11-.14-1.09a9.67,9.67,0,0,0,.89-.65l.2,1.48.93-.12L32,128.93l1-.69c.14,1,.11.84.85,1.11a4.07,4.07,0,0,1-.11-.67c0-.43-.11-.24.23-.44.12.13.06,0,.15.3.25.66,0,1.07-.41,1.58a2.3,2.3,0,0,0-.4.73c0,.2.09.74.4.74.7-.15.79-.75,1.24-1.12.2,1.32-.65,1.21-.51,2.54.91-.12.8-.17,1.17-.69l.41,1c.38-.23.41-.73.38-1.28l1.23-.17c-.14-.93-.49-.8-1.52-.9l-.11-.95a2.65,2.65,0,0,0,2,.29c-.06-.4,0-.64-.37-.81l-2.05-.68-.08-.67c.46.23.14.2.68.15l.36-.56c-.36-.4-.36-.12-.78-.6l1-.12a9,9,0,0,1,1.35,1.9c.72-.13.49-.22,1-.42a3.65,3.65,0,0,0-1-1.53l1-.12a7.13,7.13,0,0,0,1,1.25l.81-.1c-.21-.55-.43-.52-.57-1.17l1.37-.18-.11-.81L40.5,126a1.62,1.62,0,0,0,.17-.85c-2,.27-.87.81-2.36,1a11.62,11.62,0,0,1,.89-1.62c-.7-.23-1-.35-1.51.27a3.61,3.61,0,0,0-.75,1.26l-1.11.14c.1-.34.37-.26.4-.43s.06,0,.09-.05l-.1-.82-.92.41a5.23,5.23,0,0,0,.15-1c2.66-.35,1.78.23,2.43-1.4l-1.74.21c0-.46.11-.4.15-.86l1.23-.15c0-.43.12-.41.15-.84l-.84-.17a2.69,2.69,0,0,0,.15-1,2.19,2.19,0,0,0-.87-.31c-.15.25-.12.25-.26.52a2.89,2.89,0,0,1-.29.51,3.39,3.39,0,0,0-.84-.4l-.52.6c.29.37.53.64.84,1l-.34.73a7.63,7.63,0,0,0-1.1-1.1c-.18.14-.34.22-.51.35a2.93,2.93,0,0,0,.74,1.41c.49.69.23.54.17,1.38-.37-.4-.13-.66-.91-.58a.34.34,0,0,0,0,.1s0,.08,0,.11l0,.34c-.1.55.26.17-.23.46-.39-.48-.39-2.12-.49-2.71l-1.07.15.17,1.35c-.52-.06-.2-.11-.72-.17l-.21-1.78-.83.11-.15.61s0,.08,0,.11l-.36-.18c-.71-.34-1-.49-1.57.15.41.49.75.46,1.07.83-.61.09-.84.09-.12,1.1.61-.06,1.15-.23,1.65.08l-.92.26.12,1.07a12,12,0,0,1,3-.11l-.24.18a.47.47,0,0,0-.09.06l-.4.42a1.76,1.76,0,0,0,.75.43c-.84,1-1.32.15-2.79,0-.3.27-.38.29-.44.75l1.19.67c-1.69,1.16-1.69-1.33-3.87-2.27a12,12,0,0,0-1.22-.49,9.94,9.94,0,0,0-1.3-.19c-.4,0-2.41.36-3.19.47.25-2.5.58-5.24-.88-7.59a7.14,7.14,0,0,0-3.54-3c-.25-.08-.47-.17-.78-.25s-.23,0-.41-.09l-.2-.06-.19-.09-3.24.43s-.08,0-.09.06l-.68.33A6,6,0,0,0,9,117.12a61.38,61.38,0,0,1,2.3-12.59c.21-.72.43-1.42.66-2.13.17-.46.32-.93.49-1.39s.32-.86.49-1.29A62.31,62.31,0,0,1,37.16,69.87l3.42,3.78-5,7.89,8.65-3.83,5.95,6.62-.63-9,8.67-3.79-9-1.71L48.81,64a62.53,62.53,0,0,1,9.64-2.83c.68-.14,1.35-.26,2-.38a61.81,61.81,0,0,1,10.33-.86c1.44,0,2.86.07,4.28.16l2.13,1.08.15,2.76-7.28-3.69.12,2.33,6.24,3.16-3.72,2.44,2.1,1,2.07-1.35L77,69.94l-3.14,2-3.13,2-1.87-.94L71,71.74l-.13-2.35L67.1,71.82l-.4-7-2.08-1,.45,8.15-2.46-1.24L62.35,66l-2.08-1,.26,4.7L58,68.33l-.46.9-.46.91,2.57,1.3L55.68,74l2.08,1,3.94-2.58,2.46,1.25L57.32,78.2l2.09,1,5.86-3.82.25,4.45,2-1.3s-.08-1.5-.14-2.47l1.87,1,.21,3.74c.07,1.24.13,2.49.2,3.73l-1.75,1.15c-.05-1-.13-2.47-.13-2.47l-2.1-1.07.25,4.44-6.25-3.15-2,1.28L65,88.39,62.66,89.9l-4.2-2.13-2,1.28,4.2,2.13-2.42,1.58.56.84.55.85,2.41-1.58.27,4.7,2-1.27-.26-4.71,2.31-1.51.44,8.15,2-1.27-.38-7,4,2-.14-2.35-2.2-1.11,1.75-1.15,3.34,1.69,3.34,1.69.11,2.09-2.2-1.12L74.1,93l4,2-5.85,3.84.13,2.33,6.83-4.47.15,2.75L75.38,102l.13,2.33,3.94-2.57.16,2.87,1,0,1-.06-.16-2.87,4.2,2.12-.12-2.33-4.21-2.13-.15-2.75,7.28,3.69L88.35,98l-6.24-3.17,3.72-2.44-2.1-1-2.07,1.35-.12-2.09,3.14-2,3.13-2,1.87,1L87.6,88.77l.13,2.34,3.72-2.43.4,7,2.08,1-.45-8.15,2.46,1.24.26,4.71,2.08,1L98,90.87l2.57,1.3.46-.9.46-.9-2.57-1.3,3.93-2.58-2.08-1.06L96.85,88l-2.46-1.24,6.84-4.47-2.09-1-5.86,3.82L93,80.63l-2,1.29s.08,1.5.14,2.47l-1.87-1-.21-3.73c-.07-1.25-.14-2.49-.2-3.74l1.75-1.15c0,1,.13,2.48.13,2.48l2.1,1.06-.25-4.44,6.25,3.15,2-1.28-7.29-3.68,2.31-1.51,4.2,2.13,2-1.28-4.2-2.13,2.42-1.57-.39-.59.32.16.15.09h0c.76.43,1.55.87,2.3,1.33s1.56,1,2.31,1.46c.2.12.38.24.58.38a62.13,62.13,0,0,1,25.65,37.23h0c-1.1-.17-5.86-.78-6.44-1a11.26,11.26,0,0,1-.26-2.1l2.38-1c-.62-.4-1.57-.43-2.16-.76l-.44-2.76a12.36,12.36,0,0,0-1.5,2,22.25,22.25,0,0,1-2.64-.77L120.63,89c-.1.14-.15.14-.27.28l-4.48,5.54a1.15,1.15,0,0,1-.16.19,1.59,1.59,0,0,0-.13.13l-3.29,4.17a3.09,3.09,0,0,0-.53-.31,6.44,6.44,0,0,1-1.69-.76l.16-2.64a4.64,4.64,0,0,0-1,1,6.39,6.39,0,0,1-1,1.06,7.29,7.29,0,0,0-2.22-1c.16.73.9,1.68,1.08,2.37-.41.36-1.17,1.47-1.67,1.61A28.45,28.45,0,0,1,102.62,99l-8.26-5c.24.88.79,2.25,1.13,3.13.42,1.08,3.46,8.82,3.49,9.23-.49.17-1.73,1.4-2,1.41s-1.79-1-2.2-1.17l.8,2.48-.85.61a4.48,4.48,0,0,0-1.29,1l2.74-.11.8,2.21c-.27.27-10.52,5.79-11.13,6.41,2.12.43,9.91,1.35,12.43,1.63a14.7,14.7,0,0,1,.26,2.41c-.18.12-1.94.68-2.42,1,.59.5,1.91.5,2.62.87.23.2.3,2,.58,2.53l1.36-2.2a9.06,9.06,0,0,1,2.31.64c0,.9-.12,2.26-.12,3.25l0,9.89.06-.05,2.2-2.76,0,0,.81-1.05c.35-.48.62-.81,1-1.28l2-2.6a26.39,26.39,0,0,0,1.91-2.64c.55.05,1.64.6,2.38.77l-.22,2.94a3,3,0,0,0,.88-.86c1.2-1.52,1.21-1.1,2-.85.46.15.93.27,1.3.39-.14-.7-.82-1.3-1-2a15.5,15.5,0,0,1,1.82-1.66c.55.25,2,1.18,2.72,1.57,1.28.65,3.21,1.88,4.09,2.32.51.26.88.48,1.35.76l2.7,1.45c-.9-1.94-1.51-3.91-2.37-5.91-.42-1-.83-2-1.23-3a24.36,24.36,0,0,1-1.21-2.93,14.27,14.27,0,0,1,1.59-1.21c.6.25,1.54,1.25,2.33,1.61l-.47-2.6c.39-.24.8-.53,1.22-.79.17-.1.38-.26.57-.38.36-.22.37-.11.58-.43l-2.78-.24-.24-2.55,4.14-2.38,1.12-.65a59.78,59.78,0,0,1,.7,6.19c.07,1.21.1,2.42.1,3.64C132.85,122.85,132.84,123.74,132.79,124.61ZM78.31,146a3.77,3.77,0,0,1-1.1-1c.13-.44-.1-.75.79-1.48Zm36.26-20.46,1.78,1c.4.21.43.18.5.63a4.8,4.8,0,0,1-1.79.25l-.74-1.57c-.08-.39,0-.18,0-.26C114.5,125.5,114.11,125.45,114.57,125.52Zm1.09-3.25c-.78-.44-1.5-.88-2.29-1.25-.16.14,0,0-.14.15l-.09.09c-.12.11,0,.07-.21.14-.74-.36-1-1.4-1.66-1.82.16-.46,1.2-1.46,1.53-2l-2.71.43a20.65,20.65,0,0,0-1.45-1.82c-.33,3,.17,2.34-1.66,2.9-.8.25-.78.43-.83-.46-.88,0-1.84-.22-2.75-.31s-1.82-.18-2.68-.29l-5.32-.72c.08-.37.19-.31.51-.5,1.37-.77,2.58-1.61,4-2.37.82-.46,1.55-1,2.29-1.4s1.48-1,2.26-1.37l-.11-.59,2.45-.25a19.47,19.47,0,0,0,.75,2.23s0,0,.06-.06l.06-.06c.45-.61.52-1.88.92-2.54A10.22,10.22,0,0,0,111,110a9.9,9.9,0,0,0-2.21-1.28c.21-.69.68-1.52.81-2.2l.82.38a1.92,1.92,0,0,0,.46-.48c.16-.2.28-.34.43-.55s.06-.06.25-.27l3.22-4c.17-.21.22-.34.41-.56l1.72-2.15c.15-.2.17-.34.45-.23.32.82-.57,8.59-.21,10.09l1.3.33s0,0,.06,0a21.53,21.53,0,0,1-1,2l-2.27-.22c.38.62,1.29,1.52,1.51,2.06a6.25,6.25,0,0,0-1.1,2.09l2.82-.7c.3.49,1,.84,1.19,1.35a6.18,6.18,0,0,1-.88.48c.17,1.37,3.86,9.52,3.73,9.78s-.88-.27-1.12-.4-.73-.41-1.1-.65Zm-4.08,5.6.79-1.05c.38-.54.71-1.27,1.12-1.25l-.19,2.27c-.53.09-1.56.54-2,.43C111.38,127.83,111.26,128.19,111.58,127.87Zm-.29-4.51-3.47,4.09c-.41.43-1.25,1.63-1.59,1.62,0-.11,0-9,.06-9.29a8.91,8.91,0,0,1,2.11.61l0,2.78c.34-.28,1.32-1.68,1.7-2.1a9.44,9.44,0,0,1,2.35.86c0,.37,0,.25-.33.52a4.31,4.31,0,0,0-.4.49C111.56,123.14,111.47,123.14,111.29,123.36ZM102.94,122l0,.22a17.75,17.75,0,0,1-.11,2.84c-.28-.06-1.05-1-1.52-1.26C101.47,123.52,102.6,122,102.94,122Zm-1.84,0c-.38.21-.61.36-1,.54a2.17,2.17,0,0,1-1-1.53l.08,0a22.61,22.61,0,0,1,2.77.28C101.91,121.79,102,121.46,101.1,122Zm-3-11.4a9.3,9.3,0,0,1,2.63-.08c0,.26.06.15-.26.35l-2.79,1.49A3.64,3.64,0,0,1,98.08,110.58ZM109,106.2a6.52,6.52,0,0,1-1.7,1.44c-.13,0-1.69-1-2.14-1.16a6.69,6.69,0,0,0,.44,1.33,6.38,6.38,0,0,0,.53,1.13c-.58.27-1.53,1.37-2.12,1.41L102.44,106a41.92,41.92,0,0,1-1.55-4.33,6.78,6.78,0,0,1,2.08,1.08C103.63,103.1,108.9,106,109,106.2Zm-2.16-5.28a9.08,9.08,0,0,1,1.33-.24,16,16,0,0,1,.77,2.08,16.37,16.37,0,0,1-2-1.18C106.52,101.35,106,101.06,106.85,100.92Zm2.89.44c.14-1.34-.19-1,1-1.25a4.86,4.86,0,0,1,.94-.16,1.38,1.38,0,0,1-.46.71c-.26.29-1.17,1.63-1.46,1.72A2,2,0,0,1,109.74,101.36Zm12.68,16.44c.66,0,.74.3,1.16.57a3.6,3.6,0,0,1,.9.74c-.17.48-.53,1.14-.66,1.67-.5-.14-.43-.2-.6-.65l-.26-.71A8.33,8.33,0,0,1,122.42,117.8Zm.84-.48c0-.54,0-.29,1.21-1a4,4,0,0,1,1.36-.64c.15.52-.64,1.8-.69,1.84A4.44,4.44,0,0,1,123.26,117.32Zm-2.8-2.22c-.08-.47-.19-1.35-.23-1.78.36-.3.67-.53,1-.81l1-.78a9,9,0,0,0-1.92-.35,1,1,0,0,1-.58-.17c-.34-2-.56-2.08.37-1.9,1.56.31,7.6,1,8,1.19l-.25.2-.25.11c-.18.1-.3.19-.48.31ZM121,106l1.39-.48c.51-.14.44,0,.69.39a2.77,2.77,0,0,1,.51.78c-.34.18-.89,0-1.45-.08-.31-.06-1.15-.17-1.43-.27C120.78,106,120.6,106.11,121,106Zm.4-1.79a1.85,1.85,0,0,1-.18.26c-.16.21-.28.35-.42.54-.78,1.1-.37,1-1,1.1,0-.13.09-2.59.13-3,.09-1.06.49-.38.75-.08a5.23,5.23,0,0,0,.86.71C121.53,104.2,121.64,103.8,121.43,104.16Z"/></g></g></svg>