  0
SECTION
  2
HEADER
  9
$ACADVER
  1
AC1024
  9
$ACADMAINTVER
 70
     6
  9
$DWGCODEPAGE
  3
ANSI_1252
  9
$INSBASE
 10
0.0
 20
0.0
 30
0.0
  9
$EXTMIN
 10
1.000000000000000E+20
 20
1.000000000000000E+20
 30
1.000000000000000E+20
  9
$EXTMAX
 10
-1.000000000000000E+20
 20
-1.000000000000000E+20
 30
-1.000000000000000E+20
  9
$LIMMIN
 10
0.0
 20
0.0
  9
$LIMMAX
 10
12.0
 20
9.0
  9
$ORTHOMODE
 70
     0
  9
$REGENMODE
 70
     1
  9
$FILLMODE
 70
     1
  9
$QTEXTMODE
 70
     0
  9
$MIRRTEXT
 70
     1
  9
$LTSCALE
 40
1.0
  9
$ATTMODE
 70
     1
  9
$TEXTSIZE
 40
0.2
  9
$TRACEWID
 40
0.05
  9
$TEXTSTYLE
  7
Standard
  9
$CLAYER
  8
0
  9
$CELTYPE
  6
ByLayer
  9
$CECOLOR
 62
   256
  9
$CELTSCALE
 40
1.0
  9
$DISPSILH
 70
     0
  9
$DIMSCALE
 40
1.0
  9
$DIMASZ
 40
0.18
  9
$DIMEXO
 40
0.0625
  9
$DIMDLI
 40
0.38
  9
$DIMRND
 40
0.0
  9
$DIMDLE
 40
0.0
  9
$DIMEXE
 40
0.18
  9
$DIMTP
 40
0.0
  9
$DIMTM
 40
0.0
  9
$DIMTXT
 40
0.18
  9
$DIMCEN
 40
0.09
  9
$DIMTSZ
 40
0.0
  9
$DIMTOL
 70
     0
  9
$DIMLIM
 70
     0
  9
$DIMTIH
 70
     1
  9
$DIMTOH
 70
     1
  9
$DIMSE1
 70
     0
  9
$DIMSE2
 70
     0
  9
$DIMTAD
 70
     0
  9
$DIMZIN
 70
     0
  9
$DIMBLK
  1

  9
$DIMASO
 70
     1
  9
$DIMSHO
 70
     1
  9
$DIMPOST
  1

  9
$DIMAPOST
  1

  9
$DIMALT
 70
     0
  9
$DIMALTD
 70
     2
  9
$DIMALTF
 40
25.4
  9
$DIMLFAC
 40
1.0
  9
$DIMTOFL
 70
     0
  9
$DIMTVP
 40
0.0
  9
$DIMTIX
 70
     0
  9
$DIMSOXD
 70
     0
  9
$DIMSAH
 70
     0
  9
$DIMBLK1
  1

  9
$DIMBLK2
  1

  9
$DIMSTYLE
  2
Standard
  9
$DIMCLRD
 70
     0
  9
$DIMCLRE
 70
     0
  9
$DIMCLRT
 70
     0
  9
$DIMTFAC
 40
1.0
  9
$DIMGAP
 40
0.09
  9
$DIMJUST
 70
     0
  9
$DIMSD1
 70
     0
  9
$DIMSD2
 70
     0
  9
$DIMTOLJ
 70
     1
  9
$DIMTZIN
 70
     0
  9
$DIMALTZ
 70
     0
  9
$DIMALTTZ
 70
     0
  9
$DIMUPT
 70
     0
  9
$DIMDEC
 70
     4
  9
$DIMTDEC
 70
     4
  9
$DIMALTU
 70
     2
  9
$DIMALTTD
 70
     2
  9
$DIMTXSTY
  7
Standard
  9
$DIMAUNIT
 70
     0
  9
$DIMADEC
 70
     0
  9
$DIMALTRND
 40
0.0
  9
$DIMAZIN
 70
     0
  9
$DIMDSEP
 70
    46
  9
$DIMATFIT
 70
     3
  9
$DIMFRAC
 70
     0
  9
$DIMLDRBLK
  1

  9
$DIMLUNIT
 70
     2
  9
$DIMLWD
 70
    -2
  9
$DIMLWE
 70
    -2
  9
$DIMTMOVE
 70
     0
  9
$DIMFXL
 40
1.0
  9
$DIMFXLON
 70
     0
  9
$DIMJOGANG
 40
0.7853981633974483
  9
$DIMTFILL
 70
     0
  9
$DIMTFILLCLR
 70
     0
  9
$DIMARCSYM
 70
     0
  9
$DIMLTYPE
  6

  9
$DIMLTEX1
  6

  9
$DIMLTEX2
  6

  9
$DIMTXTDIRECTION
 70
     0
  9
$LUNITS
 70
     2
  9
$LUPREC
 70
     4
  9
$SKETCHINC
 40
0.1
  9
$FILLETRAD
 40
0.5
  9
$AUNITS
 70
     0
  9
$AUPREC
 70
     0
  9
$MENU
  1
.
  9
$ELEVATION
 40
0.0
  9
$PELEVATION
 40
0.0
  9
$THICKNESS
 40
0.0
  9
$LIMCHECK
 70
     0
  9
$CHAMFERA
 40
0.5
  9
$CHAMFERB
 40
0.5
  9
$CHAMFERC
 40
1.0
  9
$CHAMFERD
 40
0.0
  9
$SKPOLY
 70
     0
  9
$TDCREATE
 40
2459192.944481435
  9
$TDUCREATE
 40
2459192.777814769
  9
$TDUPDATE
 40
2459192.944481481
  9
$TDUUPDATE
 40
2459192.777814815
  9
$TDINDWG
 40
0.0000000116
  9
$TDUSRTIMER
 40
0.0000000116
  9
$USRTIMER
 70
     1
  9
$ANGBASE
 50
0.0
  9
$ANGDIR
 70
     0
  9
$PDMODE
 70
     0
  9
$PDSIZE
 40
0.0
  9
$PLINEWID
 40
0.0
  9
$SPLFRAME
 70
     0
  9
$SPLINETYPE
 70
     6
  9
$SPLINESEGS
 70
     8
  9
$HANDSEED
  5
18F
  9
$SURFTAB1
 70
     6
  9
$SURFTAB2
 70
     6
  9
$SURFTYPE
 70
     6
  9
$SURFU
 70
     6
  9
$SURFV
 70
     6
  9
$UCSBASE
  2

  9
$UCSNAME
  2

  9
$UCSORG
 10
0.0
 20
0.0
 30
0.0
  9
$UCSXDIR
 10
1.0
 20
0.0
 30
0.0
  9
$UCSYDIR
 10
0.0
 20
1.0
 30
0.0
  9
$UCSORTHOREF
  2

  9
$UCSORTHOVIEW
 70
     0
  9
$UCSORGTOP
 10
0.0
 20
0.0
 30
0.0
  9
$UCSORGBOTTOM
 10
0.0
 20
0.0
 30
0.0
  9
$UCSORGLEFT
 10
0.0
 20
0.0
 30
0.0
  9
$UCSORGRIGHT
 10
0.0
 20
0.0
 30
0.0
  9
$UCSORGFRONT
 10
0.0
 20
0.0
 30
0.0
  9
$UCSORGBACK
 10
0.0
 20
0.0
 30
0.0
  9
$PUCSBASE
  2

  9
$PUCSNAME
  2

  9
$PUCSORG
 10
0.0
 20
0.0
 30
0.0
  9
$PUCSXDIR
 10
1.0
 20
0.0
 30
0.0
  9
$PUCSYDIR
 10
0.0
 20
1.0
 30
0.0
  9
$PUCSORTHOREF
  2

  9
$PUCSORTHOVIEW
 70
     0
  9
$PUCSORGTOP
 10
0.0
 20
0.0
 30
0.0
  9
$PUCSORGBOTTOM
 10
0.0
 20
0.0
 30
0.0
  9
$PUCSORGLEFT
 10
0.0
 20
0.0
 30
0.0
  9
$PUCSORGRIGHT
 10
0.0
 20
0.0
 30
0.0
  9
$PUCSORGFRONT
 10
0.0
 20
0.0
 30
0.0
  9
$PUCSORGBACK
 10
0.0
 20
0.0
 30
0.0
  9
$USERI1
 70
     0
  9
$USERI2
 70
     0
  9
$USERI3
 70
     0
  9
$USERI4
 70
     0
  9
$USERI5
 70
     0
  9
$USERR1
 40
0.0
  9
$USERR2
 40
0.0
  9
$USERR3
 40
0.0
  9
$USERR4
 40
0.0
  9
$USERR5
 40
0.0
  9
$WORLDVIEW
 70
     1
  9
$SHADEDGE
 70
     3
  9
$SHADEDIF
 70
    70
  9
$TILEMODE
 70
     1
  9
$MAXACTVP
 70
    64
  9
$PINSBASE
 10
0.0
 20
0.0
 30
0.0
  9
$PLIMCHECK
 70
     0
  9
$PEXTMIN
 10
1.000000000000000E+20
 20
1.000000000000000E+20
 30
1.000000000000000E+20
  9
$PEXTMAX
 10
-1.000000000000000E+20
 20
-1.000000000000000E+20
 30
-1.000000000000000E+20
  9
$PLIMMIN
 10
0.0
 20
0.0
  9
$PLIMMAX
 10
12.0
 20
9.0
  9
$UNITMODE
 70
     0
  9
$VISRETAIN
 70
     1
  9
$PLINEGEN
 70
     0
  9
$PSLTSCALE
 70
     1
  9
$TREEDEPTH
 70
  3020
  9
$CMLSTYLE
  2
Standard
  9
$CMLJUST
 70
     0
  9
$CMLSCALE
 40
1.0
  9
$PROXYGRAPHICS
 70
     1
  9
$MEASUREMENT
 70
     0
  9
$CELWEIGHT
370
    -1
  9
$ENDCAPS
280
     0
  9
$JOINSTYLE
280
     0
  9
$LWDISPLAY
290
     1
  9
$INSUNITS
 70
     4
  9
$HYPERLINKBASE
  1

  9
$STYLESHEET
  1

  9
$XEDIT
290
     1
  9
$CEPSNTYPE
380
     0
  9
$PSTYLEMODE
290
     1
  9
$FINGERPRINTGUID
  2
{71D2DD43-6A1E-46CB-B375-35FCD590D002}
  9
$VERSIONGUID
  2
{FAEB1C32-E019-11D5-929B-00C0DF256EC4}
  9
$EXTNAMES
290
     1
  9
$PSVPSCALE
 40
0.0
  9
$OLESTARTUP
290
     0
  9
$SORTENTS
280
   127
  9
$INDEXCTL
280
     0
  9
$HIDETEXT
280
     1
  9
$XCLIPFRAME
280
     2
  9
$HALOGAP
280
     0
  9
$OBSCOLOR
 70
   257
  9
$OBSLTYPE
280
     0
  9
$INTERSECTIONDISPLAY
280
     0
  9
$INTERSECTIONCOLOR
 70
   257
  9
$DIMASSOC
280
     2
  9
$PROJECTNAME
  1

  9
$CAMERADISPLAY
290
     0
  9
$LENSLENGTH
 40
50.0
  9
$CAMERAHEIGHT
 40
0.0
  9
$STEPSPERSEC
 40
2.0
  9
$STEPSIZE
 40
6.0
  9
$3DDWFPREC
 40
2.0
  9
$PSOLWIDTH
 40
0.25
  9
$PSOLHEIGHT
 40
4.0
  9
$LOFTANG1
 40
1.570796326794897
  9
$LOFTANG2
 40
1.570796326794897
  9
$LOFTMAG1
 40
0.0
  9
$LOFTMAG2
 40
0.0
  9
$LOFTPARAM
 70
     7
  9
$LOFTNORMALS
280
     1
  9
$LATITUDE
 40
37.795
  9
$LONGITUDE
 40
-122.394
  9
$NORTHDIRECTION
 40
0.0
  9
$TIMEZONE
 70
 -8000
  9
$LIGHTGLYPHDISPLAY
280
     1
  9
$TILEMODELIGHTSYNCH
280
     1
  9
$CMATERIAL
347
3C
  9
$SOLIDHIST
280
     1
  9
$SHOWHIST
280
     1
  9
$DWFFRAME
280
     2
  9
$DGNFRAME
280
     2
  9
$REALWORLDSCALE
290
     1
  9
$INTERFERECOLOR
 62
   256
  9
$CSHADOW
280
     0
  9
$SHADOWPLANELOCATION
 40
0.0
  0
ENDSEC
  0
SECTION
  2
CLASSES
  0
CLASS
  1
ACDBDICTIONARYWDFLT
  2
AcDbDictionaryWithDefault
  3
ObjectDBX Classes
 90
        0
 91
        4
280
     0
281
     0
  0
CLASS
  1
VISUALSTYLE
  2
AcDbVisualStyle
  3
ObjectDBX Classes
 90
     4095
 91
        4
280
     0
281
     0
  0
CLASS
  1
MATERIAL
  2
AcDbMaterial
  3
ObjectDBX Classes
 90
     1153
 91
        4
280
     0
281
     0
  0
CLASS
  1
SUN
  2
AcDbSun
  3
SCENEOE
 90
     1024
 91
        4
280
     0
281
     0
  0
ENDSEC
  0
SECTION
  2
TABLES
  0
TABLE
  2
VPORT
  5
8
330
0
100
AcDbSymbolTable
 70
     1
  0
VPORT
  5
29
330
8
100
AcDbSymbolTableRecord
100
AcDbViewportTableRecord
  2
*Active
 70
     0
 10
0.0
 20
0.0
 11
1.0
 21
1.0
 12
0.0
 22
0.0
 13
0.0
 23
0.0
 14
0.5
 24
0.5
 15
0.5
 25
0.5
 16
0.0
 26
0.0
 36
1.0
 17
16.31597221814323
 27
22.2073613747072
 37
0.0
 40
44.41472274941439
 41
0.7347100784664182
 42
50.0
 43
0.0
 44
0.0
 50
0.0
 51
0.0
 71
     0
 72
   100
 73
     1
 74
     3
 75
     0
 76
     0
 77
     0
 78
     0
281
     0
 65
     1
110
0.0
120
0.0
130
0.0
111
1.0
121
0.0
131
0.0
112
0.0
122
1.0
132
0.0
 79
     0
146
0.0
 60
     3
 61
     5
292
     1
282
     1
141
0.0
142
0.0
 63
   250
361
3F
  0
ENDTAB
  0
TABLE
  2
LTYPE
  5
5
330
0
100
AcDbSymbolTable
 70
     1
  0
LTYPE
  5
14
330
5
100
AcDbSymbolTableRecord
100
AcDbLinetypeTableRecord
  2
ByBlock
 70
     0
  3

 72
    65
 73
     0
 40
0.0
  0
LTYPE
  5
15
330
5
100
AcDbSymbolTableRecord
100
AcDbLinetypeTableRecord
  2
ByLayer
 70
     0
  3

 72
    65
 73
     0
 40
0.0
  0
LTYPE
  5
16
330
5
100
AcDbSymbolTableRecord
100
AcDbLinetypeTableRecord
  2
Continuous
 70
     0
  3
Solid line
 72
    65
 73
     0
 40
0.0
  0
ENDTAB
  0
TABLE
  2
LAYER
  5
2
330
0
100
AcDbSymbolTable
 70
     2
  0
LAYER
  5
10
330
2
100
AcDbSymbolTableRecord
100
AcDbLayerTableRecord
  2
0
 70
     0
 62
     7
  6
Continuous
370
    -3
390
F
347
3E
  0
LAYER
  5
40
330
2
100
AcDbSymbolTableRecord
100
AcDbLayerTableRecord
  2
Layer 1
 70
     0
 62
     7
  6
Continuous
370
    -3
390
F
347
3E
  0
ENDTAB
  0
TABLE
  2
STYLE
  5
3
330
0
100
AcDbSymbolTable
 70
     1
  0
STYLE
  5
11
330
3
100
AcDbSymbolTableRecord
100
AcDbTextStyleTableRecord
  2
Standard
 70
     0
 40
0.0
 41
1.0
 50
0.0
 71
     0
 42
0.2
  3
txt
  4

  0
ENDTAB
  0
TABLE
  2
VIEW
  5
6
330
0
100
AcDbSymbolTable
 70
     0
  0
ENDTAB
  0
TABLE
  2
UCS
  5
7
330
0
100
AcDbSymbolTable
 70
     0
  0
ENDTAB
  0
TABLE
  2
APPID
  5
9
330
0
100
AcDbSymbolTable
 70
     1
  0
APPID
  5
12
330
9
100
AcDbSymbolTableRecord
100
AcDbRegAppTableRecord
  2
ACAD
 70
     0
  0
ENDTAB
  0
TABLE
  2
DIMSTYLE
  5
A
330
0
100
AcDbSymbolTable
 70
     1
100
AcDbDimStyleTable
  0
DIMSTYLE
105
27
330
A
100
AcDbSymbolTableRecord
100
AcDbDimStyleTableRecord
  2
Standard
 70
     0
178
     0
340
11
  0
ENDTAB
  0
TABLE
  2
BLOCK_RECORD
  5
1
330
0
100
AcDbSymbolTable
 70
     4
  0
BLOCK_RECORD
  5
1F
330
1
100
AcDbSymbolTableRecord
100
AcDbBlockTableRecord
  2
*Model_Space
340
22
 70
     0
280
     1
281
     0
  0
BLOCK_RECORD
  5
1B
330
1
100
AcDbSymbolTableRecord
100
AcDbBlockTableRecord
  2
*Paper_Space
340
1E
 70
     0
280
     1
281
     0
  0
BLOCK_RECORD
  5
23
330
1
100
AcDbSymbolTableRecord
100
AcDbBlockTableRecord
  2
*Paper_Space0
340
26
 70
     0
280
     1
281
     0
  0
BLOCK_RECORD
  5
41
330
1
100
AcDbSymbolTableRecord
100
AcDbBlockTableRecord
  2
block 2
340
0
102
{BLKREFS
331
42
102
}
 70
     0
280
     1
281
     0
  0
BLOCK_RECORD
  5
45
330
1
100
AcDbSymbolTableRecord
100
AcDbBlockTableRecord
  2
block 3
340
0
102
{BLKREFS
331
46
102
}
 70
     0
280
     1
281
     0
  0
BLOCK_RECORD
  5
49
330
1
100
AcDbSymbolTableRecord
100
AcDbBlockTableRecord
  2
block 4
340
0
102
{BLKREFS
331
4A
102
}
 70
     0
280
     1
281
     0
  0
ENDTAB
  0
ENDSEC
  0
SECTION
  2
BLOCKS
  0
BLOCK
  5
20
330
1F
100
AcDbEntity
  8
0
100
AcDbBlockBegin
  2
*Model_Space
 70
     0
 10
0.0
 20
0.0
 30
0.0
  3
*Model_Space
  1

  0
ENDBLK
  5
21
330
1F
100
AcDbEntity
  8
0
100
AcDbBlockEnd
  0
BLOCK
  5
1C
330
1B
100
AcDbEntity
 67
     1
  8
0
100
AcDbBlockBegin
  2
*Paper_Space
 70
     0
 10
0.0
 20
0.0
 30
0.0
  3
*Paper_Space
  1

  0
ENDBLK
  5
1D
330
1B
100
AcDbEntity
 67
     1
  8
0
100
AcDbBlockEnd
  0
BLOCK
  5
24
330
23
100
AcDbEntity
  8
0
100
AcDbBlockBegin
  2
*Paper_Space0
 70
     0
 10
0.0
 20
0.0
 30
0.0
  3
*Paper_Space0
  1

  0
ENDBLK
  5
25
330
23
100
AcDbEntity
  8
0
100
AcDbBlockEnd
  0
BLOCK
  5
43
330
41
100
AcDbEntity
  8
0
100
AcDbBlockBegin
  2
block 2
 70
     0
 10
0.0
 20
0.0
 30
0.0
  3
block 2
  1

  0
ENDBLK
  5
44
330
41
100
AcDbEntity
  8
0
100
AcDbBlockEnd
  0
BLOCK
  5
47
330
45
100
AcDbEntity
  8
0
100
AcDbBlockBegin
  2
block 3
 70
     0
 10
0.0
 20
0.0
 30
0.0
  3
block 3
  1

  0
INSERT
  5
4A
330
45
100
AcDbEntity
  8
Layer 1
100
AcDbBlockReference
  2
block 4
 10
0.0
 20
0.0
 30
0.0
  0
ENDBLK
  5
48
330
45
100
AcDbEntity
  8
0
100
AcDbBlockEnd
  0
BLOCK
  5
4B
330
49
100
AcDbEntity
  8
0
100
AcDbBlockBegin
  2
block 4
 70
     0
 10
0.0
 20
0.0
 30
0.0
  3
block 4
  1

  0
SPLINE
  5
4D
330
49
100
AcDbEntity
  8
Layer 1
370
     0
100
AcDbSpline
210
0.0
220
0.0
230
1.0
 70
    11
 71
     3
 72
    29
 73
    25
 74
     0
 42
0.0000000001
 43
0.0000000001
 12
1.0
 22
0.0
 32
0.0
 13
1.0
 23
0.0
 33
0.0
 40
0.0
 40
0.0
 40
0.0
 40
0.0
 40
1.0
 40
1.0
 40
1.0
 40
2.0
 40
2.0
 40
2.0
 40
3.0
 40
3.0
 40
3.0
 40
4.0
 40
4.0
 40
4.0
 40
5.0
 40
5.0
 40
5.0
 40
6.0
 40
6.0
 40
6.0
 40
7.0
 40
7.0
 40
7.0
 40
8.0
 40
8.0
 40
8.0
 40
8.0
 10
20.56694417015462
 20
24.97665925991
 30
0.0
 10
20.74196578672871
 20
25.00873767439512
 30
0.0
 10
20.90243187487761
 20
25.09514228405369
 30
0.0
 10
21.025555012003
 20
25.22360397344079
 30
0.0
 10
21.16339516640444
 20
25.34479462731742
 30
0.0
 10
21.26170688733391
 20
25.50455016452249
 30
0.0
 10
21.30777696500658
 20
25.68221481528917
 30
0.0
 10
21.35354559682429
 20
25.83203878816567
 30
0.0
 10
21.31283291177927
 20
25.99488952834576
 30
0.0
 10
21.20194390084779
 20
26.10554841766475
 30
0.0
 10
21.08072633216268
 20
26.19615039170555
 30
0.0
 10
20.92820280399579
 20
26.23428060087706
 30
0.0
 10
20.77861029847221
 20
26.21138148182354
 30
0.0
 10
20.6063999336437
 20
26.17157986304552
 30
0.0
 10
20.44802243463273
 20
26.08630029238134
 30
0.0
 10
20.31999945662383
 20
25.96443676829275
 30
0.0
 10
20.19153776723673
 20
25.84131363116736
 30
0.0
 10
20.10513315757816
 20
25.68084754301846
 30
0.0
 10
20.07305474309304
 20
25.50582592644437
 30
0.0
 10
19.97968727248107
 20
25.31291538241505
 30
0.0
 10
20.06038325126135
 20
25.08084110056863
 30
0.0
 10
20.25329379529068
 20
24.98747497569709
 30
0.0
 10
20.35165800009668
 20
24.9398680624603
 30
0.0
 10
20.46553455476928
 20
24.93594119190328
 30
0.0
 10
20.56694417015462
 20
24.97665925991
 30
0.0
  0
SPLINE
  5
4E
330
49
100
AcDbEntity
  8
Layer 1
370
     0
100
AcDbSpline
210
0.0
220
0.0
230
1.0
 70
    11
 71
     3
 72
    86
 73
    82
 74
     0
 42
0.0000000001
 43
0.0000000001
 12
1.0
 22
0.0
 32
0.0
 13
1.0
 23
0.0
 33
0.0
 40
0.0
 40
0.0
 40
0.0
 40
0.0
 40
1.0
 40
1.0
 40
1.0
 40
2.0
 40
2.0
 40
2.0
 40
3.0
 40
3.0
 40
3.0
 40
4.0
 40
4.0
 40
4.0
 40
5.0
 40
5.0
 40
5.0
 40
6.0
 40
6.0
 40
6.0
 40
7.0
 40
7.0
 40
7.0
 40
8.0
 40
8.0
 40
8.0
 40
9.0
 40
9.0
 40
9.0
 40
10.0
 40
10.0
 40
10.0
 40
11.0
 40
11.0
 40
11.0
 40
12.0
 40
12.0
 40
12.0
 40
13.0
 40
13.0
 40
13.0
 40
14.0
 40
14.0
 40
14.0
 40
15.0
 40
15.0
 40
15.0
 40
16.0
 40
16.0
 40
16.0
 40
17.0
 40
17.0
 40
17.0
 40
18.0
 40
18.0
 40
18.0
 40
19.0
 40
19.0
 40
19.0
 40
20.0
 40
20.0
 40
20.0
 40
21.0
 40
21.0
 40
21.0
 40
22.0
 40
22.0
 40
22.0
 40
23.0
 40
23.0
 40
23.0
 40
24.0
 40
24.0
 40
24.0
 40
25.0
 40
25.0
 40
25.0
 40
26.0
 40
26.0
 40
26.0
 40
27.0
 40
27.0
 40
27.0
 40
27.0
 10
25.50583440354922
 20
29.77443649819216
 30
0.0
 10
25.50583440354922
 20
29.77443649819216
 30
0.0
 10
25.78805770229322
 20
29.88026956235095
 30
0.0
 10
25.78805770229322
 20
29.88026956235095
 30
0.0
 10
25.78805770229322
 20
29.88026956235095
 30
0.0
 10
25.78805770229322
 20
29.88026956235095
 30
0.0
 10
25.78805770229322
 20
29.88026956235095
 30
0.0
 10
26.65812195005476
 20
30.27206708363226
 30
0.0
 10
27.44767323973368
 20
30.82236052908185
 30
0.0
 10
28.1163904967483
 20
31.50304680142687
 30
0.0
 10
29.63333601740585
 20
33.30221360221778
 30
0.0
 10
27.83416719800429
 20
35.31304653132629
 30
0.0
 10
27.83416719800429
 20
37.2180470691462
 30
0.0
 10
27.83416719800429
 20
39.12304760696613
 30
0.0
 10
28.68083440275547
 20
40.53415804485424
 30
0.0
 10
27.9752788473763
 20
42.19221386914337
 30
0.0
 10
27.55194659074114
 20
43.25054720221212
 30
0.0
 10
26.52889049714518
 20
43.74443612462105
 30
0.0
 10
25.36472275417721
 20
43.7797138687465
 30
0.0
 10
24.38224342584346
 20
43.81988850994828
 30
0.0
 10
23.41062422273079
 20
43.56161072754617
 30
0.0
 10
22.57777777213333
 20
43.03888090567699
 30
0.0
 10
21.83694497728138
 20
42.58026989561106
 30
0.0
 10
18.23861137569954
 20
38.91138080577833
 30
0.0
 10
18.16805555101354
 20
38.91138080577833
 30
0.0
 10
18.12870206379668
 20
39.1383850105776
 30
0.0
 10
18.00208134730951
 20
39.34097748408686
 30
0.0
 10
17.81527777332396
 20
39.47582538465571
 30
0.0
 10
17.66129411679711
 20
39.61624936067108
 30
0.0
 10
17.4591827454894
 20
39.69204112491148
 30
0.0
 10
17.2508338673168
 20
39.6874921858435
 30
0.0
 10
17.2508338673168
 20
39.6874921858435
 30
0.0
 10
16.22777777372083
 20
39.6874921858435
 30
0.0
 10
16.22777777372083
 20
39.6874921858435
 30
0.0
 10
16.0656335472633
 20
39.6788643075506
 30
0.0
 10
15.90811597638321
 20
39.63039712974781
 30
0.0
 10
15.76916693187246
 20
39.54638120934171
 30
0.0
 10
15.55750080355488
 20
39.44054780874781
 30
0.0
 10
15.34583332949687
 20
39.22888134399513
 30
0.0
 10
15.34583332949687
 20
39.08777003105823
 30
0.0
 10
14.22215891588484
 20
40.73136621092738
 30
0.0
 10
12.86770885993547
 20
42.20462681059611
 30
0.0
 10
11.32416612553946
 20
43.46221425572624
 30
0.0
 10
10.52584397264761
 20
44.0279764826962
 30
0.0
 10
9.584604859605056
 20
44.35802130347702
 30
0.0
 10
8.607777641051792
 20
44.41471427230987
 30
0.0
 10
7.40833333148125
 20
44.44999205060451
 30
0.0
 10
6.349999998412501
 20
44.02665870844045
 30
0.0
 10
5.856111244221126
 20
43.00360316155154
 30
0.0
 10
5.044722288248063
 20
41.41610316194841
 30
0.0
 10
5.750278180062335
 20
39.6522142735005
 30
0.0
 10
5.644444443033334
 20
38.02943636155437
 30
0.0
 10
5.538610706004332
 20
36.40665844960824
 30
0.0
 10
3.563055689238834
 20
34.25471454399796
 30
0.0
 10
4.938888887654167
 20
32.34971400617804
 30
0.0
 10
5.715000267719335
 20
31.46776956195408
 30
0.0
 10
6.526388887257292
 20
30.65638094241612
 30
0.0
 10
7.655278045012044
 20
30.30360316472654
 30
0.0
 10
7.655278045012044
 20
30.30360316472654
 30
0.0
 10
7.690555957355044
 20
30.30360316472654
 30
0.0
 10
7.690555957355044
 20
30.30360316472654
 30
0.0
 10
7.690555957355044
 20
30.30360316472654
 30
0.0
 10
7.796389021513835
 20
30.23304734004054
 30
0.0
 10
7.796389021513835
 20
30.23304734004054
 30
0.0
 10
2.954694553802172
 20
27.25660461168241
 30
0.0
 10
0.0034423570217651
 20
21.98174086127179
 30
0.0
 10
0.0
 20
16.29832646704242
 30
0.0
 10
-0.0066673657943693
 20
12.92280307022869
 30
0.0
 10
1.041735475332709
 20
9.629585157742264
 30
0.0
 10
2.998611110361459
 20
6.879160879322883
 30
0.0
 10
2.998611110361459
 20
6.879160879322883
 30
0.0
 10
3.421944376301937
 20
6.31471428183487
 30
0.0
 10
3.421944376301937
 20
6.31471428183487
 30
0.0
 10
8.963561129978213
 20
-0.7785381527118033
 30
0.0
 10
19.20614894810645
 20
-2.03639096103178
 30
0.0
 10
26.29940407413397
 20
3.505225456209389
 30
0.0
 10
33.3926592001615
 20
9.046841873450559
 30
0.0
 10
34.65050931700063
 20
19.28943103731922
 30
0.0
 10
29.10889289975945
 20
26.38268481760632
 30
0.0
 10
28.08750283280831
 20
27.69006221926719
 30
0.0
 10
26.87248225070104
 20
28.83382584592759
 30
0.0
 10
25.50583440354922
 20
29.77443649819216
 30
0.0
  0
POLYLINE
  5
4F
330
49
100
AcDbEntity
  8
Layer 1
370
     0
100
AcDb2dPolyline
 66
     1
 10
0.0
 20
0.0
 30
0.0
  0
VERTEX
  5
50
330
4F
100
AcDbEntity
  8
Layer 1
370
     0
100
AcDbVertex
100
AcDb2dVertex
 10
26.91694551430755
 20
19.93193596235662
 30
0.0
  0
VERTEX
  5
51
330
4F
100
AcDbEntity
  8
Layer 1
370
     0
100
AcDbVertex
100
AcDb2dVertex
 10
26.67000214651718
 20
20.17887933014699
 30
0.0
  0
VERTEX
  5
52
330
4F
100
AcDbEntity
  8
Layer 1
370
     0
100
AcDbVertex
100
AcDb2dVertex
 10
26.88166827483476
 20
20.31999097951899
 30
0.0
  0
VERTEX
  5
53
330
4F
100
AcDbEntity
  8
Layer 1
370
     0
100
AcDbVertex
100
AcDb2dVertex
 10
26.91694551430755
 20
19.93193596235662
 30
0.0
  0
SEQEND
  5
54
330
4F
100
AcDbEntity
  8
Layer 1
370
     0
  0
POLYLINE
  5
55
330
49
100
AcDbEntity
  8
Layer 1
370
     0
100
AcDb2dPolyline
 66
     1
 10
0.0
 20
0.0
 30
0.0
  0
VERTEX
  5
56
330
55
100
AcDbEntity
  8
Layer 1
370
     0
100
AcDbVertex
100
AcDb2dVertex
 10
27.02277992420676
 20
19.47332377476782
 30
0.0
  0
VERTEX
  5
57
330
55
100
AcDbEntity
  8
Layer 1
370
     0
100
AcDbVertex
100
AcDb2dVertex
 10
27.58722383021393
 20
18.90887986876066
 30
0.0
  0
VERTEX
  5
58
330
55
100
AcDbEntity
  8
Layer 1
370
     0
100
AcDbVertex
100
AcDb2dVertex
 10
26.77583386493555
 20
18.90887986876066
 30
0.0
  0
VERTEX
  5
59
330
55
100
AcDbEntity
  8
Layer 1
370
     0
100
AcDbVertex
100
AcDb2dVertex
 10
25.92916666018438
 20
19.57915818466704
 30
0.0
  0
VERTEX
  5
5A
330
55
100
AcDbEntity
  8
Layer 1
370
     0
100
AcDbVertex
100
AcDb2dVertex
 10
27.02277992420676
 20
19.47332377476782
 30
0.0
  0
SEQEND
  5
5B
330
55
100
AcDbEntity
  8
Layer 1
370
     0
  0
POLYLINE
  5
5C
330
49
100
AcDbEntity
  8
Layer 1
370
     0
100
AcDb2dPolyline
 66
     1
 10
0.0
 20
0.0
 30
0.0
  0
VERTEX
  5
5D
330
5C
100
AcDbEntity
  8
Layer 1
370
     0
100
AcDbVertex
100
AcDb2dVertex
 10
26.74055662546276
 20
19.75554707351183
 30
0.0
  0
VERTEX
  5
5E
330
5C
100
AcDbEntity
  8
Layer 1
370
     0
100
AcDbVertex
100
AcDb2dVertex
 10
25.9997238306108
 20
19.82610155245741
 30
0.0
  0
VERTEX
  5
5F
330
5C
100
AcDbEntity
  8
Layer 1
370
     0
100
AcDbVertex
100
AcDb2dVertex
 10
26.42305608724596
 20
20.03776768077498
 30
0.0
  0
VERTEX
  5
60
330
5C
100
AcDbEntity
  8
Layer 1
370
     0
100
AcDbVertex
100
AcDb2dVertex
 10
26.74055662546276
 20
19.75554707351183
 30
0.0
  0
SEQEND
  5
61
330
5C
100
AcDbEntity
  8
Layer 1
370
     0
  0
POLYLINE
  5
62
330
49
100
AcDbEntity
  8
Layer 1
370
     0
100
AcDb2dPolyline
 66
     1
 10
0.0
 20
0.0
 30
0.0
  0
VERTEX
  5
63
330
62
100
AcDbEntity
  8
Layer 1
370
     0
100
AcDbVertex
100
AcDb2dVertex
 10
25.64694605292122
 20
19.50860370572146
 30
0.0
  0
VERTEX
  5
64
330
62
100
AcDbEntity
  8
Layer 1
370
     0
100
AcDbVertex
100
AcDb2dVertex
 10
26.38777884777317
 20
18.9088825602415
 30
0.0
  0
VERTEX
  5
65
330
62
100
AcDbEntity
  8
Layer 1
370
     0
100
AcDbVertex
100
AcDb2dVertex
 10
25.258888344278
 20
18.9088825602415
 30
0.0
  0
VERTEX
  5
66
330
62
100
AcDbEntity
  8
Layer 1
370
     0
100
AcDbVertex
100
AcDb2dVertex
 10
25.64694605292122
 20
19.50860370572146
 30
0.0
  0
SEQEND
  5
67
330
62
100
AcDbEntity
  8
Layer 1
370
     0
  0
POLYLINE
  5
68
330
49
100
AcDbEntity
  8
Layer 1
370
     0
100
AcDb2dPolyline
 66
     1
 10
0.0
 20
0.0
 30
0.0
  0
VERTEX
  5
69
330
68
100
AcDbEntity
  8
Layer 1
370
     0
100
AcDbVertex
100
AcDb2dVertex
 10
26.77583386493555
 20
18.6266592614975
 30
0.0
  0
VERTEX
  5
6A
330
68
100
AcDbEntity
  8
Layer 1
370
     0
100
AcDbVertex
100
AcDb2dVertex
 10
27.58722383021393
 20
18.6266592614975
 30
0.0
  0
VERTEX
  5
6B
330
68
100
AcDbEntity
  8
Layer 1
370
     0
100
AcDbVertex
100
AcDb2dVertex
 10
27.02277992420676
 20
18.06221535549033
 30
0.0
  0
VERTEX
  5
6C
330
68
100
AcDbEntity
  8
Layer 1
370
     0
100
AcDbVertex
100
AcDb2dVertex
 10
25.92916935166522
 20
17.95638094559112
 30
0.0
  0
VERTEX
  5
6D
330
68
100
AcDbEntity
  8
Layer 1
370
     0
100
AcDbVertex
100
AcDb2dVertex
 10
26.77583386493555
 20
18.6266592614975
 30
0.0
  0
SEQEND
  5
6E
330
68
100
AcDbEntity
  8
Layer 1
370
     0
  0
POLYLINE
  5
6F
330
49
100
AcDbEntity
  8
Layer 1
370
     0
100
AcDb2dPolyline
 66
     1
 10
0.0
 20
0.0
 30
0.0
  0
VERTEX
  5
70
330
6F
100
AcDbEntity
  8
Layer 1
370
     0
100
AcDbVertex
100
AcDb2dVertex
 10
27.19916612157071
 20
17.88582646664554
 30
0.0
  0
VERTEX
  5
71
330
6F
100
AcDbEntity
  8
Layer 1
370
     0
100
AcDbVertex
100
AcDb2dVertex
 10
27.76361002757787
 20
18.45027037265271
 30
0.0
  0
VERTEX
  5
72
330
6F
100
AcDbEntity
  8
Layer 1
370
     0
100
AcDbVertex
100
AcDb2dVertex
 10
27.76361002757787
 20
17.63888040737433
 30
0.0
  0
VERTEX
  5
73
330
6F
100
AcDbEntity
  8
Layer 1
370
     0
100
AcDbVertex
100
AcDb2dVertex
 10
27.09333171167149
 20
16.82749044209595
 30
0.0
  0
VERTEX
  5
74
330
6F
100
AcDbEntity
  8
Layer 1
370
     0
100
AcDbVertex
100
AcDb2dVertex
 10
27.19916612157071
 20
17.88582646664554
 30
0.0
  0
SEQEND
  5
75
330
6F
100
AcDbEntity
  8
Layer 1
370
     0
  0
POLYLINE
  5
76
330
49
100
AcDbEntity
  8
Layer 1
370
     0
100
AcDb2dPolyline
 66
     1
 10
0.0
 20
0.0
 30
0.0
  0
VERTEX
  5
77
330
76
100
AcDbEntity
  8
Layer 1
370
     0
100
AcDbVertex
100
AcDb2dVertex
 10
27.19916612157071
 20
19.64971535509346
 30
0.0
  0
VERTEX
  5
78
330
76
100
AcDbEntity
  8
Layer 1
370
     0
100
AcDbVertex
100
AcDb2dVertex
 10
27.09333171167149
 20
20.49638255984463
 30
0.0
  0
VERTEX
  5
79
330
76
100
AcDbEntity
  8
Layer 1
370
     0
100
AcDbVertex
100
AcDb2dVertex
 10
27.19916612157071
 20
20.56693703879021
 30
0.0
  0
VERTEX
  5
7A
330
76
100
AcDbEntity
  8
Layer 1
370
     0
100
AcDbVertex
100
AcDb2dVertex
 10
27.76361002757787
 20
19.89665872288383
 30
0.0
  0
VERTEX
  5
7B
330
76
100
AcDbEntity
  8
Layer 1
370
     0
100
AcDbVertex
100
AcDb2dVertex
 10
27.76361002757787
 20
19.08526875760545
 30
0.0
  0
VERTEX
  5
7C
330
76
100
AcDbEntity
  8
Layer 1
370
     0
100
AcDbVertex
100
AcDb2dVertex
 10
27.19916612157071
 20
19.64971535509346
 30
0.0
  0
SEQEND
  5
7D
330
76
100
AcDbEntity
  8
Layer 1
370
     0
  0
POLYLINE
  5
7E
330
49
100
AcDbEntity
  8
Layer 1
370
     0
100
AcDb2dPolyline
 66
     1
 10
0.0
 20
0.0
 30
0.0
  0
VERTEX
  5
7F
330
7E
100
AcDbEntity
  8
Layer 1
370
     0
100
AcDbVertex
100
AcDb2dVertex
 10
27.41083224988829
 20
20.743325927635
 30
0.0
  0
VERTEX
  5
80
330
7E
100
AcDbEntity
  8
Layer 1
370
     0
100
AcDbVertex
100
AcDb2dVertex
 10
27.76361002757787
 20
21.06082646585179
 30
0.0
  0
VERTEX
  5
81
330
7E
100
AcDbEntity
  8
Layer 1
370
     0
100
AcDbVertex
100
AcDb2dVertex
 10
27.76361002757787
 20
20.28471643152705
 30
0.0
  0
VERTEX
  5
82
330
7E
100
AcDbEntity
  8
Layer 1
370
     0
100
AcDbVertex
100
AcDb2dVertex
 10
27.41083224988829
 20
20.743325927635
 30
0.0
  0
SEQEND
  5
83
330
7E
100
AcDbEntity
  8
Layer 1
370
     0
  0
SPLINE
  5
84
330
49
100
AcDbEntity
  8
Layer 1
370
     0
100
AcDbSpline
210
0.0
220
0.0
230
1.0
 70
    11
 71
     3
 72
    89
 73
    85
 74
     0
 42
0.0000000001
 43
0.0000000001
 12
1.0
 22
0.0
 32
0.0
 13
1.0
 23
0.0
 33
0.0
 40
0.0
 40
0.0
 40
0.0
 40
0.0
 40
1.0
 40
1.0
 40
1.0
 40
2.0
 40
2.0
 40
2.0
 40
3.0
 40
3.0
 40
3.0
 40
4.0
 40
4.0
 40
4.0
 40
5.0
 40
5.0
 40
5.0
 40
6.0
 40
6.0
 40
6.0
 40
7.0
 40
7.0
 40
7.0
 40
8.0
 40
8.0
 40
8.0
 40
9.0
 40
9.0
 40
9.0
 40
10.0
 40
10.0
 40
10.0
 40
11.0
 40
11.0
 40
11.0
 40
12.0
 40
12.0
 40
12.0
 40
13.0
 40
13.0
 40
13.0
 40
14.0
 40
14.0
 40
14.0
 40
15.0
 40
15.0
 40
15.0
 40
16.0
 40
16.0
 40
16.0
 40
17.0
 40
17.0
 40
17.0
 40
18.0
 40
18.0
 40
18.0
 40
19.0
 40
19.0
 40
19.0
 40
20.0
 40
20.0
 40
20.0
 40
21.0
 40
21.0
 40
21.0
 40
22.0
 40
22.0
 40
22.0
 40
23.0
 40
23.0
 40
23.0
 40
24.0
 40
24.0
 40
24.0
 40
25.0
 40
25.0
 40
25.0
 40
26.0
 40
26.0
 40
26.0
 40
27.0
 40
27.0
 40
27.0
 40
28.0
 40
28.0
 40
28.0
 40
28.0
 10
28.85722060011941
 20
22.50721481608292
 30
0.0
 10
28.876704229977
 20
22.50721481608292
 30
0.0
 10
28.8924978395922
 20
22.52300977143853
 30
0.0
 10
28.8924978395922
 20
22.54249205555571
 30
0.0
 10
28.8924978395922
 20
22.5619756854133
 30
0.0
 10
28.876704229977
 20
22.57777064076892
 30
0.0
 10
28.85722060011941
 20
22.57777064076892
 30
0.0
 10
28.85722060011941
 20
22.57777064076892
 30
0.0
 10
28.61027723232904
 20
22.8599925937725
 30
0.0
 10
28.61027723232904
 20
22.8599925937725
 30
0.0
 10
28.61027723232904
 20
22.8599925937725
 30
0.0
 10
28.53972275338346
 20
22.8599925937725
 30
0.0
 10
28.53972275338346
 20
22.8599925937725
 30
0.0
 10
28.30668357565309
 20
22.46912497912412
 30
0.0
 10
28.03484670150095
 20
22.10273638278695
 30
0.0
 10
27.72833278810508
 20
21.76638202123096
 30
0.0
 10
27.72833278810508
 20
21.76638202123096
 30
0.0
 10
27.62249837820587
 20
21.76638202123096
 30
0.0
 10
27.62249837820587
 20
21.76638202123096
 30
0.0
 10
27.62249837820587
 20
21.76638202123096
 30
0.0
 10
27.62249837820587
 20
21.66054761133175
 30
0.0
 10
27.62249837820587
 20
21.66054761133175
 30
0.0
 10
27.62249837820587
 20
21.66054761133175
 30
0.0
 10
27.62249837820587
 20
21.66054761133175
 30
0.0
 10
27.62249837820587
 20
21.66054761133175
 30
0.0
 10
27.62249837820587
 20
21.66054761133175
 30
0.0
 10
27.09333440315234
 20
21.13138094479737
 30
0.0
 10
27.09333440315234
 20
21.13138094479737
 30
0.0
 10
27.09333440315234
 20
21.13138094479737
 30
0.0
 10
27.02277992420676
 20
21.20193542374295
 30
0.0
 10
27.02277992420676
 20
21.20193542374295
 30
0.0
 10
26.98750268473398
 20
21.23721266321574
 30
0.0
 10
26.91694551430755
 20
21.27248990268853
 30
0.0
 10
26.88166827483476
 20
21.23721266321574
 30
0.0
 10
26.88166827483476
 20
21.23721266321574
 30
0.0
 10
26.88166827483476
 20
21.23721266321574
 30
0.0
 10
26.88166827483476
 20
21.23721266321574
 30
0.0
 10
26.81111379588918
 20
21.23721266321574
 30
0.0
 10
26.77583386493555
 20
21.16665818427016
 30
0.0
 10
26.77583386493555
 20
21.09610101384374
 30
0.0
 10
26.77583386493555
 20
21.09610101384374
 30
0.0
 10
26.77583386493555
 20
20.91971212499895
 30
0.0
 10
26.77583386493555
 20
20.91971212499895
 30
0.0
 10
26.60000480410711
 20
20.79333364178808
 30
0.0
 10
26.41069949867348
 20
20.68684789352368
 30
0.0
 10
26.21138995892838
 20
20.60221158678215
 30
0.0
 10
26.21138995892838
 20
20.60221158678215
 30
0.0
 10
26.21138995892838
 20
20.60221158678215
 30
0.0
 10
26.21138995892838
 20
20.60221158678215
 30
0.0
 10
26.21138995892838
 20
20.60221158678215
 30
0.0
 10
26.21138995892838
 20
20.70804599668136
 30
0.0
 10
26.21138995892838
 20
20.70804599668136
 30
0.0
 10
26.21138995892838
 20
20.70804599668136
 30
0.0
 10
28.04583332632188
 20
24.3769354229492
 30
0.0
 10
28.04583332632188
 20
24.3769354229492
 30
0.0
 10
28.74845247609604
 20
23.34774813598183
 30
0.0
 10
29.31745575065946
 20
22.23345353312456
 30
0.0
 10
29.73916773582421
 20
21.06082377437095
 30
0.0
 10
29.73916773582421
 20
21.06082377437095
 30
0.0
 10
29.70389049635143
 20
21.06082377437095
 30
0.0
 10
29.70389049635143
 20
21.06082377437095
 30
0.0
 10
29.62996359190349
 20
20.98705028433134
 30
0.0
 10
29.60282269903376
 20
20.87848402137156
 30
0.0
 10
29.63333601740585
 20
20.77860047562694
 30
0.0
 10
29.63333601740585
 20
20.77860047562694
 30
0.0
 10
28.82194605212747
 20
19.96721051034856
 30
0.0
 10
28.82194605212747
 20
19.96721051034856
 30
0.0
 10
28.82194605212747
 20
19.96721051034856
 30
0.0
 10
28.92778046202668
 20
21.13137825331652
 30
0.0
 10
28.92778046202668
 20
21.13137825331652
 30
0.0
 10
28.92778046202668
 20
21.2019327322621
 30
0.0
 10
28.89250322255389
 20
21.27248990268853
 30
0.0
 10
28.8572259830811
 20
21.27248990268853
 30
0.0
 10
28.8572259830811
 20
21.27248990268853
 30
0.0
 10
28.68083709423631
 20
21.27248990268853
 30
0.0
 10
28.68083709423631
 20
21.27248990268853
 30
0.0
 10
28.68083709423631
 20
21.27248990268853
 30
0.0
 10
27.94000429938436
 20
20.35526821899178
 30
0.0
 10
27.94000429938436
 20
20.35526821899178
 30
0.0
 10
27.94000429938436
 20
20.35526821899178
 30
0.0
 10
27.94000429938436
 20
21.37832431258774
 30
0.0
 10
27.94000429938436
 20
21.37832431258774
 30
0.0
 10
28.27161088872474
 20
21.73284347838588
 30
0.0
 10
28.57809519583128
 20
22.11005586495269
 30
0.0
 10
28.85722060011941
 20
22.50721481608292
 30
0.0
  0
SPLINE
  5
85
330
49
100
AcDbEntity
  8
Layer 1
370
     0
100
AcDbSpline
210
0.0
220
0.0
230
1.0
 70
    11
 71
     3
 72
    17
 73
    13
 74
     0
 42
0.0000000001
 43
0.0000000001
 12
1.0
 22
0.0
 32
0.0
 13
1.0
 23
0.0
 33
0.0
 40
0.0
 40
0.0
 40
0.0
 40
0.0
 40
1.0
 40
1.0
 40
1.0
 40
2.0
 40
2.0
 40
2.0
 40
3.0
 40
3.0
 40
3.0
 40
4.0
 40
4.0
 40
4.0
 40
4.0
 10
30.16249730097853
 20
19.86138148341104
 30
0.0
 10
30.16249730097853
 20
19.86138148341104
 30
0.0
 10
29.06888672843699
 20
19.75554707351183
 30
0.0
 10
29.06888672843699
 20
19.75554707351183
 30
0.0
 10
29.06888672843699
 20
19.75554707351183
 30
0.0
 10
29.88027669371537
 20
20.56693703879021
 30
0.0
 10
29.88027669371537
 20
20.56693703879021
 30
0.0
 10
29.88027669371537
 20
20.56693703879021
 30
0.0
 10
29.98611110361459
 20
20.56693703879021
 30
0.0
 10
29.98611110361459
 20
20.56693703879021
 30
0.0
 10
30.05666558256016
 20
20.35527091047263
 30
0.0
 10
30.0919455135138
 20
20.10832485120141
 30
0.0
 10
30.16249730097853
 20
19.86138148341104
 30
0.0
  0
POLYLINE
  5
86
330
49
100
AcDbEntity
  8
Layer 1
370
     0
100
AcDb2dPolyline
 66
     1
 10
0.0
 20
0.0
 30
0.0
  0
VERTEX
  5
87
330
86
100
AcDbEntity
  8
Layer 1
370
     0
100
AcDbVertex
100
AcDb2dVertex
 10
28.71610895074741
 20
20.743325927635
 30
0.0
  0
VERTEX
  5
88
330
86
100
AcDbEntity
  8
Layer 1
370
     0
100
AcDbVertex
100
AcDb2dVertex
 10
28.57499999285625
 20
19.64971535509346
 30
0.0
  0
VERTEX
  5
89
330
86
100
AcDbEntity
  8
Layer 1
370
     0
100
AcDbVertex
100
AcDb2dVertex
 10
28.01055608684909
 20
19.0852714490863
 30
0.0
  0
VERTEX
  5
8A
330
86
100
AcDbEntity
  8
Layer 1
370
     0
100
AcDbVertex
100
AcDb2dVertex
 10
28.01055608684909
 20
19.89665872288383
 30
0.0
  0
VERTEX
  5
8B
330
86
100
AcDbEntity
  8
Layer 1
370
     0
100
AcDbVertex
100
AcDb2dVertex
 10
28.71610895074741
 20
20.743325927635
 30
0.0
  0
SEQEND
  5
8C
330
86
100
AcDbEntity
  8
Layer 1
370
     0
  0
POLYLINE
  5
8D
330
49
100
AcDbEntity
  8
Layer 1
370
     0
100
AcDb2dPolyline
 66
     1
 10
0.0
 20
0.0
 30
0.0
  0
VERTEX
  5
8E
330
8D
100
AcDbEntity
  8
Layer 1
370
     0
100
AcDbVertex
100
AcDb2dVertex
 10
28.01055339536824
 20
18.45027037265271
 30
0.0
  0
VERTEX
  5
8F
330
8D
100
AcDbEntity
  8
Layer 1
370
     0
100
AcDbVertex
100
AcDb2dVertex
 10
28.57499999285625
 20
17.88582646664554
 30
0.0
  0
VERTEX
  5
90
330
8D
100
AcDbEntity
  8
Layer 1
370
     0
100
AcDbVertex
100
AcDb2dVertex
 10
28.71611164222825
 20
16.82749313357679
 30
0.0
  0
VERTEX
  5
91
330
8D
100
AcDbEntity
  8
Layer 1
370
     0
100
AcDbVertex
100
AcDb2dVertex
 10
28.01055608684909
 20
17.63888309885517
 30
0.0
  0
VERTEX
  5
92
330
8D
100
AcDbEntity
  8
Layer 1
370
     0
100
AcDbVertex
100
AcDb2dVertex
 10
28.01055339536824
 20
18.45027037265271
 30
0.0
  0
SEQEND
  5
93
330
8D
100
AcDbEntity
  8
Layer 1
370
     0
  0
POLYLINE
  5
94
330
49
100
AcDbEntity
  8
Layer 1
370
     0
100
AcDb2dPolyline
 66
     1
 10
0.0
 20
0.0
 30
0.0
  0
VERTEX
  5
95
330
94
100
AcDbEntity
  8
Layer 1
370
     0
100
AcDbVertex
100
AcDb2dVertex
 10
28.18694228421303
 20
18.6266592614975
 30
0.0
  0
VERTEX
  5
96
330
94
100
AcDbEntity
  8
Layer 1
370
     0
100
AcDbVertex
100
AcDb2dVertex
 10
28.99833224949141
 20
18.6266592614975
 30
0.0
  0
VERTEX
  5
97
330
94
100
AcDbEntity
  8
Layer 1
370
     0
100
AcDbVertex
100
AcDb2dVertex
 10
29.84499945424258
 20
17.95638094559112
 30
0.0
  0
VERTEX
  5
98
330
94
100
AcDbEntity
  8
Layer 1
370
     0
100
AcDbVertex
100
AcDb2dVertex
 10
28.78666612117383
 20
18.06221535549033
 30
0.0
  0
VERTEX
  5
99
330
94
100
AcDbEntity
  8
Layer 1
370
     0
100
AcDbVertex
100
AcDb2dVertex
 10
28.18694228421303
 20
18.6266592614975
 30
0.0
  0
SEQEND
  5
9A
330
94
100
AcDbEntity
  8
Layer 1
370
     0
  0
POLYLINE
  5
9B
330
49
100
AcDbEntity
  8
Layer 1
370
     0
100
AcDb2dPolyline
 66
     1
 10
0.0
 20
0.0
 30
0.0
  0
VERTEX
  5
9C
330
9B
100
AcDbEntity
  8
Layer 1
370
     0
100
AcDbVertex
100
AcDb2dVertex
 10
28.18694228421303
 20
18.9088825602415
 30
0.0
  0
VERTEX
  5
9D
330
9B
100
AcDbEntity
  8
Layer 1
370
     0
100
AcDbVertex
100
AcDb2dVertex
 10
28.78666342969298
 20
19.47332646624867
 30
0.0
  0
VERTEX
  5
9E
330
9B
100
AcDbEntity
  8
Layer 1
370
     0
100
AcDbVertex
100
AcDb2dVertex
 10
29.84499676276173
 20
19.57916087614788
 30
0.0
  0
VERTEX
  5
9F
330
9B
100
AcDbEntity
  8
Layer 1
370
     0
100
AcDbVertex
100
AcDb2dVertex
 10
28.99832955801056
 20
18.9088825602415
 30
0.0
  0
VERTEX
  5
A0
330
9B
100
AcDbEntity
  8
Layer 1
370
     0
100
AcDbVertex
100
AcDb2dVertex
 10
28.18694228421303
 20
18.9088825602415
 30
0.0
  0
SEQEND
  5
A1
330
9B
100
AcDbEntity
  8
Layer 1
370
     0
  0
SPLINE
  5
A2
330
49
100
AcDbEntity
  8
Layer 1
370
     0
100
AcDbSpline
210
0.0
220
0.0
230
1.0
 70
    11
 71
     3
 72
    14
 73
    10
 74
     0
 42
0.0000000001
 43
0.0000000001
 12
1.0
 22
0.0
 32
0.0
 13
1.0
 23
0.0
 33
0.0
 40
0.0
 40
0.0
 40
0.0
 40
0.0
 40
1.0
 40
1.0
 40
1.0
 40
2.0
 40
2.0
 40
2.0
 40
3.0
 40
3.0
 40
3.0
 40
3.0
 10
30.23305447140496
 20
19.57916087614788
 30
0.0
 10
30.29345130163074
 20
19.35875820099818
 30
0.0
 10
30.34057374831492
 20
19.13492927072916
 30
0.0
 10
30.37416612077696
 20
18.9088825602415
 30
0.0
 10
30.37416612077696
 20
18.9088825602415
 30
0.0
 10
29.42166719760742
 20
18.9088825602415
 30
0.0
 10
29.42166719760742
 20
18.9088825602415
 30
0.0
 10
29.42166719760742
 20
18.9088825602415
 30
0.0
 10
30.23305447140496
 20
19.57916087614788
 30
0.0
 10
30.23305447140496
 20
19.57916087614788
 30
0.0
  0
SPLINE
  5
A3
330
49
100
AcDbEntity
  8
Layer 1
370
     0
100
AcDbSpline
210
0.0
220
0.0
230
1.0
 70
    11
 71
     3
 72
    14
 73
    10
 74
     0
 42
0.0000000001
 43
0.0000000001
 12
1.0
 22
0.0
 32
0.0
 13
1.0
 23
0.0
 33
0.0
 40
0.0
 40
0.0
 40
0.0
 40
0.0
 40
1.0
 40
1.0
 40
1.0
 40
2.0
 40
2.0
 40
2.0
 40
3.0
 40
3.0
 40
3.0
 40
3.0
 10
24.83555608764284
 20
42.6861031279874
 30
0.0
 10
26.17611271945559
 20
43.10943647803666
 30
0.0
 10
26.66999945503633
 20
42.05110322907669
 30
0.0
 10
26.10555554902917
 20
40.78110309482015
 30
0.0
 10
24.53662407579537
 20
39.43927675691742
 30
0.0
 10
22.55951742032109
 20
38.66832931929395
 30
0.0
 10
20.49638834546862
 20
38.59388094043175
 30
0.0
 10
21.27489918070965
 20
40.52676353765987
 30
0.0
 10
22.86042363337045
 20
42.02205340341561
 30
0.0
 10
24.83555608764284
 20
42.6861031279874
 30
0.0
  0
SPLINE
  5
A4
330
49
100
AcDbEntity
  8
Layer 1
370
     0
100
AcDbSpline
210
0.0
220
0.0
230
1.0
 70
    11
 71
     3
 72
    26
 73
    22
 74
     0
 42
0.0000000001
 43
0.0000000001
 12
1.0
 22
0.0
 32
0.0
 13
1.0
 23
0.0
 33
0.0
 40
0.0
 40
0.0
 40
0.0
 40
0.0
 40
1.0
 40
1.0
 40
1.0
 40
2.0
 40
2.0
 40
2.0
 40
3.0
 40
3.0
 40
3.0
 40
4.0
 40
4.0
 40
4.0
 40
5.0
 40
5.0
 40
5.0
 40
6.0
 40
6.0
 40
6.0
 40
7.0
 40
7.0
 40
7.0
 40
7.0
 10
21.48416719959179
 20
31.99693622848845
 30
0.0
 10
21.48416719959179
 20
31.99693622848845
 30
0.0
 10
21.5547230242778
 20
31.89110316432966
 30
0.0
 10
21.5547230242778
 20
31.89110316432966
 30
0.0
 10
21.52892652609156
 20
31.86216839947484
 30
0.0
 10
21.51616890687275
 20
31.82389554181839
 30
0.0
 10
21.51944578480501
 20
31.78527010017087
 30
0.0
 10
20.81389022942584
 20
31.99693622848845
 30
0.0
 10
20.10833467404667
 20
32.20860370254645
 30
0.0
 10
19.40277911866751
 20
32.34971400617804
 30
0.0
 10
19.29694605450872
 20
32.49082565555004
 30
0.0
 10
19.22639022982272
 20
32.66721454439483
 30
0.0
 10
19.12055716566393
 20
32.84360343323962
 30
0.0
 10
19.12055716566393
 20
32.84360343323962
 30
0.0
 10
19.08527992619114
 20
32.84360343323962
 30
0.0
 10
19.08527992619114
 20
32.84360343323962
 30
0.0
 10
18.76909686784937
 20
33.48630214489807
 30
0.0
 10
18.52080910537549
 20
34.16022539874265
 30
0.0
 10
18.34444443985834
 20
34.85443636234812
 30
0.0
 10
18.34444443985834
 20
34.85443636234812
 30
0.0
 10
21.48416719959179
 20
31.99693622848845
 30
0.0
 10
21.48416719959179
 20
31.99693622848845
 30
0.0
  0
SPLINE
  5
A5
330
49
100
AcDbEntity
  8
Layer 1
370
     0
100
AcDbSpline
210
0.0
220
0.0
230
1.0
 70
    11
 71
     3
 72
    29
 73
    25
 74
     0
 42
0.0000000001
 43
0.0000000001
 12
1.0
 22
0.0
 32
0.0
 13
1.0
 23
0.0
 33
0.0
 40
0.0
 40
0.0
 40
0.0
 40
0.0
 40
1.0
 40
1.0
 40
1.0
 40
2.0
 40
2.0
 40
2.0
 40
3.0
 40
3.0
 40
3.0
 40
4.0
 40
4.0
 40
4.0
 40
5.0
 40
5.0
 40
5.0
 40
6.0
 40
6.0
 40
6.0
 40
7.0
 40
7.0
 40
7.0
 40
8.0
 40
8.0
 40
8.0
 40
8.0
 10
16.22777777372083
 20
38.31165898742817
 30
0.0
 10
16.3709403314989
 20
38.44676998024988
 30
0.0
 10
16.56009491400505
 20
38.52243154410426
 30
0.0
 10
16.75694444025521
 20
38.52332578861596
 30
0.0
 10
16.96942743301011
 20
38.51481667191548
 30
0.0
 10
17.17092918390578
 20
38.42665990822495
 30
0.0
 10
17.32138834626237
 20
38.27638107508516
 30
0.0
 10
17.46181232227775
 20
38.1223967456881
 30
0.0
 10
17.53760307721282
 20
37.92028537438039
 30
0.0
 10
17.53305447457995
 20
37.71193649620779
 30
0.0
 10
17.52666086182588
 20
37.50917715088596
 30
0.0
 10
17.43740328246858
 20
37.31790908304404
 30
0.0
 10
17.28610976104916
 20
37.18276982967341
 30
0.0
 10
17.12866351441155
 20
37.04810696841286
 30
0.0
 10
16.92883451886282
 20
36.97317143151719
 30
0.0
 10
16.721665855042
 20
36.97110302848562
 30
0.0
 10
16.51067259693638
 20
36.98587589398927
 30
0.0
 10
16.31127020110203
 20
37.07311553558089
 30
0.0
 10
16.15722194903483
 20
37.21804774201642
 30
0.0
 10
16.02623968783372
 20
37.37554512679014
 30
0.0
 10
15.96283647350088
 20
37.57843904615436
 30
0.0
 10
15.98083306019004
 20
37.78249232089379
 30
0.0
 10
15.97235085829804
 20
37.988513068133
 30
0.0
 10
16.06443045532431
 20
38.18582552908899
 30
0.0
 10
16.22777777372083
 20
38.31165898742817
 30
0.0
  0
SPLINE
  5
A6
330
49
100
AcDbEntity
  8
Layer 1
370
     0
100
AcDbSpline
210
0.0
220
0.0
230
1.0
 70
    11
 71
     3
 72
    14
 73
    10
 74
     0
 42
0.0000000001
 43
0.0000000001
 12
1.0
 22
0.0
 32
0.0
 13
1.0
 23
0.0
 33
0.0
 40
0.0
 40
0.0
 40
0.0
 40
0.0
 40
1.0
 40
1.0
 40
1.0
 40
2.0
 40
2.0
 40
2.0
 40
3.0
 40
3.0
 40
3.0
 40
3.0
 10
7.655278045012044
 20
41.48665898663442
 30
0.0
 10
7.16138929082067
 20
42.79193669679885
 30
0.0
 10
7.761111109170834
 20
43.77971454161671
 30
0.0
 10
9.031111243427375
 20
43.25054787508233
 30
0.0
 10
10.96478345384925
 20
42.47643121876053
 30
0.0
 10
12.44359741959486
 20
40.86789729633144
 30
0.0
 10
13.05277777451458
 20
38.87610322987044
 30
0.0
 10
11.00312629000774
 20
39.08634220046844
 30
0.0
 10
9.092600142007178
 20
40.01038779741981
 30
0.0
 10
7.655278045012044
 20
41.48665898663442
 30
0.0
  0
SPLINE
  5
A7
330
49
100
AcDbEntity
  8
Layer 1
370
     0
100
AcDbSpline
210
0.0
220
0.0
230
1.0
 70
    11
 71
     3
 72
    29
 73
    25
 74
     0
 42
0.0000000001
 43
0.0000000001
 12
1.0
 22
0.0
 32
0.0
 13
1.0
 23
0.0
 33
0.0
 40
0.0
 40
0.0
 40
0.0
 40
0.0
 40
1.0
 40
1.0
 40
1.0
 40
2.0
 40
2.0
 40
2.0
 40
3.0
 40
3.0
 40
3.0
 40
4.0
 40
4.0
 40
4.0
 40
5.0
 40
5.0
 40
5.0
 40
6.0
 40
6.0
 40
6.0
 40
7.0
 40
7.0
 40
7.0
 40
8.0
 40
8.0
 40
8.0
 40
8.0
 10
15.02833279128008
 20
34.92499218703412
 30
0.0
 10
14.79289954133555
 20
34.20151204207848
 30
0.0
 10
14.46062411900447
 20
33.51322704642976
 30
0.0
 10
14.04055528289733
 20
32.87888067271241
 30
0.0
 10
14.04055528289733
 20
32.87888067271241
 30
0.0
 10
14.04055528289733
 20
32.87888067271241
 30
0.0
 10
14.04055528289733
 20
32.87888067271241
 30
0.0
 10
14.04055528289733
 20
32.84360343323962
 30
0.0
 10
14.00527804342454
 20
32.84360343323962
 30
0.0
 10
14.00527804342454
 20
32.80832484802641
 30
0.0
 10
14.00527804342454
 20
32.80832484802641
 30
0.0
 10
13.72305609042096
 20
32.45554707033683
 30
0.0
 10
13.72305609042096
 20
32.45554707033683
 30
0.0
 10
12.98277235766197
 20
32.3452286533451
 30
0.0
 10
12.2516921436622
 20
32.1801453298017
 30
0.0
 10
11.53583359959746
 20
31.96165764327524
 30
0.0
 10
11.53583359959746
 20
31.96165764327524
 30
0.0
 10
11.53583359959746
 20
32.03221346796124
 30
0.0
 10
11.53583359959746
 20
32.03221346796124
 30
0.0
 10
11.53583359959746
 20
32.03221346796124
 30
0.0
 10
11.74749972791504
 20
32.34971400617804
 30
0.0
 10
11.74749972791504
 20
32.34971400617804
 30
0.0
 10
11.74749972791504
 20
32.34971400617804
 30
0.0
 10
15.02833279128008
 20
34.92499218703412
 30
0.0
 10
15.02833279128008
 20
34.92499218703412
 30
0.0
  0
SPLINE
  5
A8
330
49
100
AcDbEntity
  8
Layer 1
370
     0
100
AcDbSpline
210
0.0
220
0.0
230
1.0
 70
    11
 71
     3
 72
   230
 73
   226
 74
     0
 42
0.0000000001
 43
0.0000000001
 12
1.0
 22
0.0
 32
0.0
 13
1.0
 23
0.0
 33
0.0
 40
0.0
 40
0.0
 40
0.0
 40
0.0
 40
1.0
 40
1.0
 40
1.0
 40
2.0
 40
2.0
 40
2.0
 40
3.0
 40
3.0
 40
3.0
 40
4.0
 40
4.0
 40
4.0
 40
5.0
 40
5.0
 40
5.0
 40
6.0
 40
6.0
 40
6.0
 40
7.0
 40
7.0
 40
7.0
 40
8.0
 40
8.0
 40
8.0
 40
9.0
 40
9.0
 40
9.0
 40
10.0
 40
10.0
 40
10.0
 40
11.0
 40
11.0
 40
11.0
 40
12.0
 40
12.0
 40
12.0
 40
13.0
 40
13.0
 40
13.0
 40
14.0
 40
14.0
 40
14.0
 40
15.0
 40
15.0
 40
15.0
 40
16.0
 40
16.0
 40
16.0
 40
17.0
 40
17.0
 40
17.0
 40
18.0
 40
18.0
 40
18.0
 40
19.0
 40
19.0
 40
19.0
 40
20.0
 40
20.0
 40
20.0
 40
21.0
 40
21.0
 40
21.0
 40
22.0
 40
22.0
 40
22.0
 40
23.0
 40
23.0
 40
23.0
 40
24.0
 40
24.0
 40
24.0
 40
25.0
 40
25.0
 40
25.0
 40
26.0
 40
26.0
 40
26.0
 40
27.0
 40
27.0
 40
27.0
 40
28.0
 40
28.0
 40
28.0
 40
29.0
 40
29.0
 40
29.0
 40
30.0
 40
30.0
 40
30.0
 40
31.0
 40
31.0
 40
31.0
 40
32.0
 40
32.0
 40
32.0
 40
33.0
 40
33.0
 40
33.0
 40
34.0
 40
34.0
 40
34.0
 40
35.0
 40
35.0
 40
35.0
 40
36.0
 40
36.0
 40
36.0
 40
37.0
 40
37.0
 40
37.0
 40
38.0
 40
38.0
 40
38.0
 40
39.0
 40
39.0
 40
39.0
 40
40.0
 40
40.0
 40
40.0
 40
41.0
 40
41.0
 40
41.0
 40
42.0
 40
42.0
 40
42.0
 40
43.0
 40
43.0
 40
43.0
 40
44.0
 40
44.0
 40
44.0
 40
45.0
 40
45.0
 40
45.0
 40
46.0
 40
46.0
 40
46.0
 40
47.0
 40
47.0
 40
47.0
 40
48.0
 40
48.0
 40
48.0
 40
49.0
 40
49.0
 40
49.0
 40
50.0
 40
50.0
 40
50.0
 40
51.0
 40
51.0
 40
51.0
 40
52.0
 40
52.0
 40
52.0
 40
53.0
 40
53.0
 40
53.0
 40
54.0
 40
54.0
 40
54.0
 40
55.0
 40
55.0
 40
55.0
 40
56.0
 40
56.0
 40
56.0
 40
57.0
 40
57.0
 40
57.0
 40
58.0
 40
58.0
 40
58.0
 40
59.0
 40
59.0
 40
59.0
 40
60.0
 40
60.0
 40
60.0
 40
61.0
 40
61.0
 40
61.0
 40
62.0
 40
62.0
 40
62.0
 40
63.0
 40
63.0
 40
63.0
 40
64.0
 40
64.0
 40
64.0
 40
65.0
 40
65.0
 40
65.0
 40
66.0
 40
66.0
 40
66.0
 40
67.0
 40
67.0
 40
67.0
 40
68.0
 40
68.0
 40
68.0
 40
69.0
 40
69.0
 40
69.0
 40
70.0
 40
70.0
 40
70.0
 40
71.0
 40
71.0
 40
71.0
 40
72.0
 40
72.0
 40
72.0
 40
73.0
 40
73.0
 40
73.0
 40
74.0
 40
74.0
 40
74.0
 40
75.0
 40
75.0
 40
75.0
 40
75.0
 10
16.33361083787963
 20
30.62110370294333
 30
0.0
 10
20.899338017643
 20
30.61331590311007
 30
0.0
 10
25.18637715875603
 20
28.42390927557854
 30
0.0
 10
27.86944443747709
 20
24.72971454637921
 30
0.0
 10
27.86944443747709
 20
24.72971454637921
 30
0.0
 10
27.26972329199713
 20
24.72971454637921
 30
0.0
 10
27.26972329199713
 20
24.72971454637921
 30
0.0
 10
27.26972329199713
 20
24.72971454637921
 30
0.0
 10
27.16388888209792
 20
24.65915872169321
 30
0.0
 10
27.16388888209792
 20
24.65915872169321
 30
0.0
 10
27.16388888209792
 20
24.65915872169321
 30
0.0
 10
26.28194443787396
 20
22.89526983324529
 30
0.0
 10
26.28194443787396
 20
22.89526983324529
 30
0.0
 10
25.98264369315034
 20
22.44946371153057
 30
0.0
 10
25.65258201381662
 20
22.02509792624983
 30
0.0
 10
25.29416558375079
 20
21.62527037185896
 30
0.0
 10
25.1233453687802
 20
21.41432017744691
 30
0.0
 10
24.88777081609116
 20
21.26553511617768
 30
0.0
 10
24.62388726784441
 20
21.2019381152238
 30
0.0
 10
24.48277561847241
 20
21.2019381152238
 30
0.0
 10
24.44749837899962
 20
21.27249259416937
 30
0.0
 10
24.44749837899962
 20
21.41360424354138
 30
0.0
 10
24.47335543550493
 20
21.70931724429482
 30
0.0
 10
24.55727042537924
 20
21.99702712674717
 30
0.0
 10
24.69444174678999
 20
22.26027144829255
 30
0.0
 10
24.83555339616199
 20
22.64832646545492
 30
0.0
 10
25.22360841332436
 20
23.42443784552009
 30
0.0
 10
25.82332955880431
 20
24.65916006743363
 30
0.0
 10
25.8586067982771
 20
24.69443730690642
 30
0.0
 10
25.8586067982771
 20
24.69443730690642
 30
0.0
 10
25.82332955880431
 20
24.72971589211963
 30
0.0
 10
25.82332955880431
 20
24.72971589211963
 30
0.0
 10
24.83555608764284
 20
24.72971589211963
 30
0.0
 10
24.83555608764284
 20
24.72971589211963
 30
0.0
 10
24.80027884817005
 20
24.72971589211963
 30
0.0
 10
24.76500160869726
 20
24.72971589211963
 30
0.0
 10
24.72972167774362
 20
24.65916006743363
 30
0.0
 10
24.34166666058125
 20
23.88304868736846
 30
0.0
 10
24.05944336183725
 20
23.28332619614809
 30
0.0
 10
23.88305447299245
 20
22.82471535429971
 30
0.0
 10
23.84660105638915
 20
22.78534168097649
 30
0.0
 10
23.82212472955879
 20
22.73639171879662
 30
0.0
 10
23.81249999404688
 20
22.68360370492771
 30
0.0
 10
23.57072157800354
 20
22.32078535793521
 30
0.0
 10
23.29933418115298
 20
21.97859855738193
 30
0.0
 10
23.00111002876849
 20
21.66054761133175
 30
0.0
 10
22.84193585142656
 20
21.4665672036654
 30
0.0
 10
22.61490136746775
 20
21.34043902817339
 30
0.0
 10
22.36611029807533
 20
21.30776983364216
 30
0.0
 10
22.26027723391654
 20
21.30776983364216
 30
0.0
 10
22.22499864870333
 20
21.37832431258774
 30
0.0
 10
22.22499864870333
 20
21.51943596195974
 30
0.0
 10
22.26047102053759
 20
21.91663797678354
 30
0.0
 10
22.380772139994
 20
22.30160182819215
 30
0.0
 10
22.57777642639291
 20
22.6483251197145
 30
0.0
 10
22.8247211399237
 20
23.17749178624887
 30
0.0
 10
23.56555393477566
 20
24.69443596116599
 30
0.0
 10
24.83555339616199
 20
27.19915764446587
 30
0.0
 10
24.83332485001997
 20
27.22634294676959
 30
0.0
 10
24.8206883474393
 20
27.25161998915219
 30
0.0
 10
24.8002761566892
 20
27.26971346915187
 30
0.0
 10
24.8002761566892
 20
27.28919709900946
 30
0.0
 10
24.78448254707401
 20
27.30499070862466
 30
0.0
 10
24.76499891721641
 20
27.30499070862466
 30
0.0
 10
24.76499891721641
 20
27.30499070862466
 30
0.0
 10
23.84777723351966
 20
27.30499070862466
 30
0.0
 10
23.84777723351966
 20
27.30499070862466
 30
0.0
 10
23.79225736659019
 20
27.30499070862466
 30
0.0
 10
23.73997804260152
 20
27.27885104663032
 30
0.0
 10
23.70666558414766
 20
27.23443488393865
 30
0.0
 10
22.57777777213333
 20
25.01193649938279
 30
0.0
 10
21.87222221675417
 20
23.60082538862445
 30
0.0
 10
21.59000026375059
 20
22.96582565793129
 30
0.0
 10
21.2936655309213
 20
22.52895794411229
 30
0.0
 10
20.9633858416389
 20
22.11610631389866
 30
0.0
 10
20.60222275536784
 20
21.73110209027733
 30
0.0
 10
20.32000080236426
 20
21.44887879153332
 30
0.0
 10
20.10833332830625
 20
21.27248990268853
 30
0.0
 10
19.96722302467467
 20
21.27248990268853
 30
0.0
 10
19.82611272104309
 20
21.27248990268853
 30
0.0
 10
19.79083413582988
 20
21.37832431258774
 30
0.0
 10
19.82611137530267
 20
21.48415603100611
 30
0.0
 10
19.84803617828927
 20
21.78772277287358
 30
0.0
 10
19.91953805849329
 20
22.08564951662437
 30
0.0
 10
20.03777750362025
 20
22.36610047523007
 30
0.0
 10
20.03777750362025
 20
22.36610047523007
 30
0.0
 10
21.20194390084779
 20
24.76498909437115
 30
0.0
 10
21.20194390084779
 20
24.76498909437115
 30
0.0
 10
21.20194390084779
 20
24.76498909437115
 30
0.0
 10
21.20194390084779
 20
24.83554491905715
 30
0.0
 10
21.20194390084779
 20
24.83554491905715
 30
0.0
 10
21.20194390084779
 20
24.83554491905715
 30
0.0
 10
20.21416639246504
 20
24.83554491905715
 30
0.0
 10
20.21416639246504
 20
24.83554491905715
 30
0.0
 10
20.17888915299225
 20
24.83554491905715
 30
0.0
 10
20.10833332830625
 20
24.80026767958436
 30
0.0
 10
20.10833332830625
 20
24.76498909437115
 30
0.0
 10
19.68499972593067
 20
23.91832188961998
 30
0.0
 10
19.36750053345429
 20
23.28332215892681
 30
0.0
 10
19.1911116446095
 20
22.85998855655123
 30
0.0
 10
18.913337363707
 20
22.48391197490222
 30
0.0
 10
18.60666869016238
 20
22.13006298783519
 30
0.0
 10
18.27388996091276
 20
21.8016565692229
 30
0.0
 10
17.95638942269596
 20
21.44887879153332
 30
0.0
 10
17.70944605490559
 20
21.30776714216131
 30
0.0
 10
17.5330571660608
 20
21.30776714216131
 30
0.0
 10
17.35666827721601
 20
21.30776714216131
 30
0.0
 10
17.35666827721601
 20
21.37832162110689
 30
0.0
 10
17.3919455166888
 20
21.5194332704789
 30
0.0
 10
17.40632340737802
 20
21.72980748798951
 30
0.0
 10
17.46652510524234
 20
21.93449595220903
 30
0.0
 10
17.56833440553359
 20
22.11915576169927
 30
0.0
 10
17.70944605490559
 20
22.36610047523007
 30
0.0
 10
17.92111218322317
 20
22.85998855655123
 30
0.0
 10
18.23861272143997
 20
23.49498963298482
 30
0.0
 10
18.32578844036145
 20
23.70996762848568
 30
0.0
 10
18.38506696029496
 20
23.93522708082533
 30
0.0
 10
18.41500161028476
 20
24.1652679488912
 30
0.0
 10
18.40860799753069
 20
24.36802796708324
 30
0.0
 10
18.31935041817339
 20
24.55929536205495
 30
0.0
 10
18.16805689675397
 20
24.69443461542557
 30
0.0
 10
18.0032507957379
 20
24.84024289887707
 30
0.0
 10
17.78815168359889
 20
24.91616015341199
 30
0.0
 10
17.56833440553359
 20
24.90610074374315
 30
0.0
 10
17.56833440553359
 20
24.90610074374315
 30
0.0
 10
17.21555662784401
 20
24.90610074374315
 30
0.0
 10
17.21555662784401
 20
24.90610074374315
 30
0.0
 10
17.21555662784401
 20
24.90610074374315
 30
0.0
 10
16.86277885015442
 20
24.83554491905715
 30
0.0
 10
16.86277885015442
 20
24.83554491905715
 30
0.0
 10
16.86277885015442
 20
24.83554491905715
 30
0.0
 10
16.40416800830605
 20
24.58860020552635
 30
0.0
 10
16.40416800830605
 20
24.58860020552635
 30
0.0
 10
16.22243383849743
 20
24.45524944117913
 30
0.0
 10
16.0567072510314
 20
24.30135998648196
 30
0.0
 10
15.91027858124446
 20
24.12998936367798
 30
0.0
 10
15.94555582071725
 20
24.69443326968515
 30
0.0
 10
15.69861245292688
 20
24.94137798321594
 30
0.0
 10
15.1341672011793
 20
24.97665656842915
 30
0.0
 10
14.6161473025763
 20
24.9582387649873
 30
0.0
 10
14.12442451759723
 20
24.74389865044738
 30
0.0
 10
13.75833332989375
 20
24.37693676868962
 30
0.0
 10
13.75833332989375
 20
24.37693676868962
 30
0.0
 10
14.04055528289733
 20
24.906103435224
 30
0.0
 10
14.04055528289733
 20
24.906103435224
 30
0.0
 10
14.04055528289733
 20
24.906103435224
 30
0.0
 10
14.04055528289733
 20
24.97665925991
 30
0.0
 10
14.04055528289733
 20
24.97665925991
 30
0.0
 10
14.04055528289733
 20
24.97665925991
 30
0.0
 10
13.05277777451458
 20
24.97665925991
 30
0.0
 10
13.05277777451458
 20
24.97665925991
 30
0.0
 10
12.98222194982858
 20
24.97665925991
 30
0.0
 10
12.94694471035579
 20
24.94138202043721
 30
0.0
 10
12.94694471035579
 20
24.906103435224
 30
0.0
 10
12.94694471035579
 20
24.906103435224
 30
0.0
 10
12.06500026613184
 20
23.17749178624887
 30
0.0
 10
12.06500026613184
 20
23.17749178624887
 30
0.0
 10
12.06500026613184
 20
23.17749178624887
 30
0.0
 10
12.02972302665905
 20
23.17749178624887
 30
0.0
 10
12.02972302665905
 20
23.17749178624887
 30
0.0
 10
11.60047624086073
 20
22.52557609842696
 30
0.0
 10
11.04948031890986
 20
21.96260174096272
 30
0.0
 10
10.40694511471292
 20
21.51943596195974
 30
0.0
 10
9.87537697439205
 20
21.15928621822789
 30
0.0
 10
9.24981290268124
 20
20.96303150924511
 30
0.0
 10
8.607778313922003
 20
20.95499205595258
 30
0.0
 10
8.24189908033529
 20
20.95794191896183
 30
0.0
 10
7.89005120927864
 20
21.09616830086493
 30
0.0
 10
7.620000805539255
 20
21.34304707311495
 30
0.0
 10
7.382367270001604
 20
21.57350242923138
 30
0.0
 10
7.254077835388765
 20
21.89422467002306
 30
0.0
 10
7.267223027849671
 20
22.22499151733891
 30
0.0
 10
7.275437427397314
 20
22.50799130830752
 30
0.0
 10
7.347812693136463
 20
22.7854318455849
 30
0.0
 10
7.478889829037464
 20
23.03638013687687
 30
0.0
 10
7.638998623103814
 20
23.31304821915091
 30
0.0
 10
7.841345498985709
 20
23.56300604549087
 30
0.0
 10
8.07861232025784
 20
23.77721293172882
 30
0.0
 10
8.323288788304106
 20
24.01636177098381
 30
0.0
 10
8.61042000237417
 20
24.20778123462343
 30
0.0
 10
8.925278852138797
 20
24.34165683773599
 30
0.0
 10
9.267626468672745
 20
24.45150424557935
 30
0.0
 10
9.624143386130205
 20
24.51092406825736
 30
0.0
 10
9.983612185207548
 20
24.51804572658078
 30
0.0
 10
9.983612185207548
 20
24.51804572658078
 30
0.0
 10
10.05416800989355
 20
24.51804572658078
 30
0.0
 10
10.05416800989355
 20
24.51804572658078
 30
0.0
 10
10.19527898639534
 20
24.55332296605357
 30
0.0
 10
10.23055689873834
 20
24.65915737595278
 30
0.0
 10
10.12472383457955
 20
24.80026767958436
 30
0.0
 10
10.06632273740245
 20
24.96564437454017
 30
0.0
 10
9.911993225586645
 20
25.07788316311684
 30
0.0
 10
9.736668144546966
 20
25.08248963258794
 30
0.0
 10
9.352089847769808
 20
25.29181013534662
 30
0.0
 10
9.090107157871856
 20
25.67168439647195
 30
0.0
 10
9.0311125891678
 20
26.1055457261839
 30
0.0
 10
9.663589729436316
 20
26.12235133259789
 30
0.0
 10
10.29157613391019
 20
26.21714125083794
 30
0.0
 10
10.90083521464472
 20
26.38776767918749
 30
0.0
 10
11.39917500528823
 20
26.53573991324066
 30
0.0
 10
11.86569745508886
 20
26.77498160858491
 30
0.0
 10
12.27666908593026
 20
27.09332323456665
 30
0.0
 10
12.59803728212542
 20
27.33732481379032
 30
0.0
 10
12.79240391729344
 20
27.71310129532479
 30
0.0
 10
12.80583575246464
 20
28.11637932816261
 30
0.0
 10
12.80607394851967
 20
28.33463285585531
 30
0.0
 10
12.73135036574077
 20
28.54634877656857
 30
0.0
 10
12.59416962414706
 20
28.71610181938299
 30
0.0
 10
12.42633695291759
 20
28.88933494693368
 30
0.0
 10
12.22123669212834
 20
29.02204648457953
 30
0.0
 10
11.99444444144583
 20
29.10415818228579
 30
0.0
 10
11.78983537591132
 20
29.17330905396921
 30
0.0
 10
11.57542124564808
 20
29.20904384518613
 30
0.0
 10
11.35944471075267
 20
29.20999124644458
 30
0.0
 10
10.54072180590432
 20
29.2538368151965
 30
0.0
 10
9.735252425620997
 20
28.98954281612045
 30
0.0
 10
9.101667068113377
 20
28.46915845159262
 30
0.0
 10
8.491417522426842
 20
28.06245012641421
 30
0.0
 10
8.071542472940747
 20
27.42627556433096
 30
0.0
 10
7.937500670885838
 20
26.7052695631447
 30
0.0
 10
7.56087300853323
 20
26.74396632903469
 30
0.0
 10
7.192210110879628
 20
26.83910479404454
 30
0.0
 10
6.843889425474087
 20
26.98749151614829
 30
0.0
 10
9.453235698032064
 20
29.32352598304949
 30
0.0
 10
12.83136444830651
 20
30.61701130631418
 30
0.0
 10
16.33361083787963
 20
30.62110370294333
 30
0.0
  0
POLYLINE
  5
A9
330
49
100
AcDbEntity
  8
Layer 1
370
     0
100
AcDb2dPolyline
 66
     1
 10
0.0
 20
0.0
 30
0.0
  0
VERTEX
  5
AA
330
A9
100
AcDbEntity
  8
Layer 1
370
     0
100
AcDbVertex
100
AcDb2dVertex
 10
20.28472221715104
 20
8.81943865661559
 30
0.0
  0
VERTEX
  5
AB
330
A9
100
AcDbEntity
  8
Layer 1
370
     0
100
AcDbVertex
100
AcDb2dVertex
 10
20.17888915299225
 20
8.81943865661559
 30
0.0
  0
VERTEX
  5
AC
330
A9
100
AcDbEntity
  8
Layer 1
370
     0
100
AcDbVertex
100
AcDb2dVertex
 10
20.07305608883346
 20
8.748884177670014
 30
0.0
  0
VERTEX
  5
AD
330
A9
100
AcDbEntity
  8
Layer 1
370
     0
100
AcDbVertex
100
AcDb2dVertex
 10
20.21416773820546
 20
8.748884177670014
 30
0.0
  0
VERTEX
  5
AE
330
A9
100
AcDbEntity
  8
Layer 1
370
     0
100
AcDbVertex
100
AcDb2dVertex
 10
20.21416773820546
 20
8.537218049352433
 30
0.0
  0
VERTEX
  5
AF
330
A9
100
AcDbEntity
  8
Layer 1
370
     0
100
AcDbVertex
100
AcDb2dVertex
 10
20.17889049873268
 20
8.537218049352433
 30
0.0
  0
VERTEX
  5
B0
330
A9
100
AcDbEntity
  8
Layer 1
370
     0
100
AcDbVertex
100
AcDb2dVertex
 10
20.00250160988788
 20
8.43138363945322
 30
0.0
  0
VERTEX
  5
B1
330
A9
100
AcDbEntity
  8
Layer 1
370
     0
100
AcDbVertex
100
AcDb2dVertex
 10
19.82611272104309
 20
8.43138363945322
 30
0.0
  0
VERTEX
  5
B2
330
A9
100
AcDbEntity
  8
Layer 1
370
     0
100
AcDbVertex
100
AcDb2dVertex
 10
19.43805770388072
 20
8.60777252829801
 30
0.0
  0
VERTEX
  5
B3
330
A9
100
AcDbEntity
  8
Layer 1
370
     0
100
AcDbVertex
100
AcDb2dVertex
 10
18.9794441705515
 20
8.60777252829801
 30
0.0
  0
VERTEX
  5
B4
330
A9
100
AcDbEntity
  8
Layer 1
370
     0
100
AcDbVertex
100
AcDb2dVertex
 10
18.76777804223392
 20
8.501938118398796
 30
0.0
  0
VERTEX
  5
B5
330
A9
100
AcDbEntity
  8
Layer 1
370
     0
100
AcDbVertex
100
AcDb2dVertex
 10
18.66194497807513
 20
8.43138363945322
 30
0.0
  0
VERTEX
  5
B6
330
A9
100
AcDbEntity
  8
Layer 1
370
     0
100
AcDbVertex
100
AcDb2dVertex
 10
18.69722221754792
 20
8.43138363945322
 30
0.0
  0
VERTEX
  5
B7
330
A9
100
AcDbEntity
  8
Layer 1
370
     0
100
AcDbVertex
100
AcDb2dVertex
 10
18.80305528170671
 20
8.360829160507642
 30
0.0
  0
VERTEX
  5
B8
330
A9
100
AcDbEntity
  8
Layer 1
370
     0
100
AcDbVertex
100
AcDb2dVertex
 10
18.9088883458655
 20
8.290274681562064
 30
0.0
  0
VERTEX
  5
B9
330
A9
100
AcDbEntity
  8
Layer 1
370
     0
100
AcDbVertex
100
AcDb2dVertex
 10
19.01472141002429
 20
8.219720202616486
 30
0.0
  0
VERTEX
  5
BA
330
A9
100
AcDbEntity
  8
Layer 1
370
     0
100
AcDbVertex
100
AcDb2dVertex
 10
19.40277777292708
 20
8.219720202616486
 30
0.0
  0
VERTEX
  5
BB
330
A9
100
AcDbEntity
  8
Layer 1
370
     0
100
AcDbVertex
100
AcDb2dVertex
 10
19.61444390124467
 20
8.290274681562064
 30
0.0
  0
VERTEX
  5
BC
330
A9
100
AcDbEntity
  8
Layer 1
370
     0
100
AcDbVertex
100
AcDb2dVertex
 10
19.93194443946146
 20
8.290274681562064
 30
0.0
  0
VERTEX
  5
BD
330
A9
100
AcDbEntity
  8
Layer 1
370
     0
100
AcDbVertex
100
AcDb2dVertex
 10
20.00250026414746
 20
8.219720202616486
 30
0.0
  0
VERTEX
  5
BE
330
A9
100
AcDbEntity
  8
Layer 1
370
     0
100
AcDbVertex
100
AcDb2dVertex
 10
20.00250026414746
 20
7.902219664399691
 30
0.0
  0
VERTEX
  5
BF
330
A9
100
AcDbEntity
  8
Layer 1
370
     0
100
AcDbVertex
100
AcDb2dVertex
 10
19.68499972593067
 20
7.902219664399691
 30
0.0
  0
VERTEX
  5
C0
330
A9
100
AcDbEntity
  8
Layer 1
370
     0
100
AcDbVertex
100
AcDb2dVertex
 10
19.82611137530267
 20
7.831665185454114
 30
0.0
  0
VERTEX
  5
C1
330
A9
100
AcDbEntity
  8
Layer 1
370
     0
100
AcDbVertex
100
AcDb2dVertex
 10
19.96722302467467
 20
7.7258307755549
 30
0.0
  0
VERTEX
  5
C2
330
A9
100
AcDbEntity
  8
Layer 1
370
     0
100
AcDbVertex
100
AcDb2dVertex
 10
20.10833467404667
 20
7.7258307755549
 30
0.0
  0
VERTEX
  5
C3
330
A9
100
AcDbEntity
  8
Layer 1
370
     0
100
AcDbVertex
100
AcDb2dVertex
 10
20.10833467404667
 20
7.443607476810894
 30
0.0
  0
VERTEX
  5
C4
330
A9
100
AcDbEntity
  8
Layer 1
370
     0
100
AcDbVertex
100
AcDb2dVertex
 10
20.07305743457389
 20
7.443607476810894
 30
0.0
  0
VERTEX
  5
C5
330
A9
100
AcDbEntity
  8
Layer 1
370
     0
100
AcDbVertex
100
AcDb2dVertex
 10
19.8966685457291
 20
7.373052997865317
 30
0.0
  0
VERTEX
  5
C6
330
A9
100
AcDbEntity
  8
Layer 1
370
     0
100
AcDbVertex
100
AcDb2dVertex
 10
19.75555555061667
 20
7.373052997865317
 30
0.0
  0
VERTEX
  5
C7
330
A9
100
AcDbEntity
  8
Layer 1
370
     0
100
AcDbVertex
100
AcDb2dVertex
 10
19.61444390124467
 20
7.443607476810894
 30
0.0
  0
VERTEX
  5
C8
330
A9
100
AcDbEntity
  8
Layer 1
370
     0
100
AcDbVertex
100
AcDb2dVertex
 10
19.50861083708588
 20
7.549441886710109
 30
0.0
  0
VERTEX
  5
C9
330
A9
100
AcDbEntity
  8
Layer 1
370
     0
100
AcDbVertex
100
AcDb2dVertex
 10
19.33222194824108
 20
7.549441886710109
 30
0.0
  0
VERTEX
  5
CA
330
A9
100
AcDbEntity
  8
Layer 1
370
     0
100
AcDbVertex
100
AcDb2dVertex
 10
19.33222194824108
 20
7.231941348493314
 30
0.0
  0
VERTEX
  5
CB
330
A9
100
AcDbEntity
  8
Layer 1
370
     0
100
AcDbVertex
100
AcDb2dVertex
 10
19.33222194824108
 20
7.231941348493314
 30
0.0
  0
VERTEX
  5
CC
330
A9
100
AcDbEntity
  8
Layer 1
370
     0
100
AcDbVertex
100
AcDb2dVertex
 10
19.15583305939629
 20
7.126106938594099
 30
0.0
  0
VERTEX
  5
CD
330
A9
100
AcDbEntity
  8
Layer 1
370
     0
100
AcDbVertex
100
AcDb2dVertex
 10
18.9794441705515
 20
7.126106938594099
 30
0.0
  0
VERTEX
  5
CE
330
A9
100
AcDbEntity
  8
Layer 1
370
     0
100
AcDbVertex
100
AcDb2dVertex
 10
18.87361110639271
 20
7.196661417539677
 30
0.0
  0
VERTEX
  5
CF
330
A9
100
AcDbEntity
  8
Layer 1
370
     0
100
AcDbVertex
100
AcDb2dVertex
 10
18.83833386691992
 20
7.196661417539677
 30
0.0
  0
VERTEX
  5
D0
330
A9
100
AcDbEntity
  8
Layer 1
370
     0
100
AcDbVertex
100
AcDb2dVertex
 10
18.83833386691992
 20
7.866939733446055
 30
0.0
  0
VERTEX
  5
D1
330
A9
100
AcDbEntity
  8
Layer 1
370
     0
100
AcDbVertex
100
AcDb2dVertex
 10
18.66194497807513
 20
7.866939733446055
 30
0.0
  0
VERTEX
  5
D2
330
A9
100
AcDbEntity
  8
Layer 1
370
     0
100
AcDbVertex
100
AcDb2dVertex
 10
18.52083332870313
 20
7.937494212391632
 30
0.0
  0
VERTEX
  5
D3
330
A9
100
AcDbEntity
  8
Layer 1
370
     0
100
AcDbVertex
100
AcDb2dVertex
 10
18.41500026454434
 20
8.043328622290847
 30
0.0
  0
VERTEX
  5
D4
330
A9
100
AcDbEntity
  8
Layer 1
370
     0
100
AcDbVertex
100
AcDb2dVertex
 10
18.16805555101354
 20
8.043328622290847
 30
0.0
  0
VERTEX
  5
D5
330
A9
100
AcDbEntity
  8
Layer 1
370
     0
100
AcDbVertex
100
AcDb2dVertex
 10
18.16805555101354
 20
7.161384178066888
 30
0.0
  0
VERTEX
  5
D6
330
A9
100
AcDbEntity
  8
Layer 1
370
     0
100
AcDbVertex
100
AcDb2dVertex
 10
18.30916720038555
 20
7.161384178066888
 30
0.0
  0
VERTEX
  5
D7
330
A9
100
AcDbEntity
  8
Layer 1
370
     0
100
AcDbVertex
100
AcDb2dVertex
 10
18.37972302507155
 20
7.09082969912131
 30
0.0
  0
VERTEX
  5
D8
330
A9
100
AcDbEntity
  8
Layer 1
370
     0
100
AcDbVertex
100
AcDb2dVertex
 10
18.52083467444355
 20
6.949718049749308
 30
0.0
  0
VERTEX
  5
D9
330
A9
100
AcDbEntity
  8
Layer 1
370
     0
100
AcDbVertex
100
AcDb2dVertex
 10
18.62666773860234
 20
6.879163570803731
 30
0.0
  0
VERTEX
  5
DA
330
A9
100
AcDbEntity
  8
Layer 1
370
     0
100
AcDbVertex
100
AcDb2dVertex
 10
18.69722356328834
 20
6.808609091858153
 30
0.0
  0
VERTEX
  5
DB
330
A9
100
AcDbEntity
  8
Layer 1
370
     0
100
AcDbVertex
100
AcDb2dVertex
 10
18.69722221754792
 20
6.808609091858153
 30
0.0
  0
VERTEX
  5
DC
330
A9
100
AcDbEntity
  8
Layer 1
370
     0
100
AcDbVertex
100
AcDb2dVertex
 10
18.62666639286192
 20
6.596942963540572
 30
0.0
  0
VERTEX
  5
DD
330
A9
100
AcDbEntity
  8
Layer 1
370
     0
100
AcDbVertex
100
AcDb2dVertex
 10
18.34444443985834
 20
6.596942963540572
 30
0.0
  0
VERTEX
  5
DE
330
A9
100
AcDbEntity
  8
Layer 1
370
     0
100
AcDbVertex
100
AcDb2dVertex
 10
18.27388861517233
 20
6.66749744248615
 30
0.0
  0
VERTEX
  5
DF
330
A9
100
AcDbEntity
  8
Layer 1
370
     0
100
AcDbVertex
100
AcDb2dVertex
 10
18.16805555101354
 20
6.738051921431728
 30
0.0
  0
VERTEX
  5
E0
330
A9
100
AcDbEntity
  8
Layer 1
370
     0
100
AcDbVertex
100
AcDb2dVertex
 10
18.09749972632754
 20
6.808606400377305
 30
0.0
  0
VERTEX
  5
E1
330
A9
100
AcDbEntity
  8
Layer 1
370
     0
100
AcDbVertex
100
AcDb2dVertex
 10
18.02694390164154
 20
6.808606400377305
 30
0.0
  0
VERTEX
  5
E2
330
A9
100
AcDbEntity
  8
Layer 1
370
     0
100
AcDbVertex
100
AcDb2dVertex
 10
18.02694390164154
 20
6.455828622687721
 30
0.0
  0
VERTEX
  5
E3
330
A9
100
AcDbEntity
  8
Layer 1
370
     0
100
AcDbVertex
100
AcDb2dVertex
 10
17.49777723510716
 20
6.455828622687721
 30
0.0
  0
VERTEX
  5
E4
330
A9
100
AcDbEntity
  8
Layer 1
370
     0
100
AcDbVertex
100
AcDb2dVertex
 10
17.49777723510716
 20
6.843883639850094
 30
0.0
  0
VERTEX
  5
E5
330
A9
100
AcDbEntity
  8
Layer 1
370
     0
100
AcDbVertex
100
AcDb2dVertex
 10
17.42722141042116
 20
6.843883639850094
 30
0.0
  0
VERTEX
  5
E6
330
A9
100
AcDbEntity
  8
Layer 1
370
     0
100
AcDbVertex
100
AcDb2dVertex
 10
17.32138834626237
 20
6.773329160904516
 30
0.0
  0
VERTEX
  5
E7
330
A9
100
AcDbEntity
  8
Layer 1
370
     0
100
AcDbVertex
100
AcDb2dVertex
 10
17.28611110678958
 20
6.773329160904516
 30
0.0
  0
VERTEX
  5
E8
330
A9
100
AcDbEntity
  8
Layer 1
370
     0
100
AcDbVertex
100
AcDb2dVertex
 10
17.21555528210358
 20
6.702774681958939
 30
0.0
  0
VERTEX
  5
E9
330
A9
100
AcDbEntity
  8
Layer 1
370
     0
100
AcDbVertex
100
AcDb2dVertex
 10
17.03916639325879
 20
6.702774681958939
 30
0.0
  0
VERTEX
  5
EA
330
A9
100
AcDbEntity
  8
Layer 1
370
     0
100
AcDbVertex
100
AcDb2dVertex
 10
16.96861056857279
 20
6.773329160904516
 30
0.0
  0
VERTEX
  5
EB
330
A9
100
AcDbEntity
  8
Layer 1
370
     0
100
AcDbVertex
100
AcDb2dVertex
 10
16.89805474388679
 20
6.773329160904516
 30
0.0
  0
VERTEX
  5
EC
330
A9
100
AcDbEntity
  8
Layer 1
370
     0
100
AcDbVertex
100
AcDb2dVertex
 10
16.89805474388679
 20
5.961936504145288
 30
0.0
  0
VERTEX
  5
ED
330
A9
100
AcDbEntity
  8
Layer 1
370
     0
100
AcDbVertex
100
AcDb2dVertex
 10
16.9333333291
 20
5.961936504145288
 30
0.0
  0
VERTEX
  5
EE
330
A9
100
AcDbEntity
  8
Layer 1
370
     0
100
AcDbVertex
100
AcDb2dVertex
 10
17.003889153786
 20
6.032490983090865
 30
0.0
  0
VERTEX
  5
EF
330
A9
100
AcDbEntity
  8
Layer 1
370
     0
100
AcDbVertex
100
AcDb2dVertex
 10
17.07444497847201
 20
6.032490983090865
 30
0.0
  0
VERTEX
  5
F0
330
A9
100
AcDbEntity
  8
Layer 1
370
     0
100
AcDbVertex
100
AcDb2dVertex
 10
17.18027804263079
 20
6.103045462036443
 30
0.0
  0
VERTEX
  5
F1
330
A9
100
AcDbEntity
  8
Layer 1
370
     0
100
AcDbVertex
100
AcDb2dVertex
 10
17.35666693147559
 20
6.208879871935657
 30
0.0
  0
VERTEX
  5
F2
330
A9
100
AcDbEntity
  8
Layer 1
370
     0
100
AcDbVertex
100
AcDb2dVertex
 10
17.42722275616159
 20
6.279434350881234
 30
0.0
  0
VERTEX
  5
F3
330
A9
100
AcDbEntity
  8
Layer 1
370
     0
100
AcDbVertex
100
AcDb2dVertex
 10
17.56833440553359
 20
6.279434350881234
 30
0.0
  0
VERTEX
  5
F4
330
A9
100
AcDbEntity
  8
Layer 1
370
     0
100
AcDbVertex
100
AcDb2dVertex
 10
17.56833440553359
 20
7.373047614903621
 30
0.0
  0
VERTEX
  5
F5
330
A9
100
AcDbEntity
  8
Layer 1
370
     0
100
AcDbVertex
100
AcDb2dVertex
 10
17.5330571660608
 20
7.373047614903621
 30
0.0
  0
VERTEX
  5
F6
330
A9
100
AcDbEntity
  8
Layer 1
370
     0
100
AcDbVertex
100
AcDb2dVertex
 10
17.42722410190201
 20
7.302493135958043
 30
0.0
  0
VERTEX
  5
F7
330
A9
100
AcDbEntity
  8
Layer 1
370
     0
100
AcDbVertex
100
AcDb2dVertex
 10
17.28611245253001
 20
7.302493135958043
 30
0.0
  0
VERTEX
  5
F8
330
A9
100
AcDbEntity
  8
Layer 1
370
     0
100
AcDbVertex
100
AcDb2dVertex
 10
17.18027938837122
 20
7.231938657012466
 30
0.0
  0
VERTEX
  5
F9
330
A9
100
AcDbEntity
  8
Layer 1
370
     0
100
AcDbVertex
100
AcDb2dVertex
 10
17.03916773899921
 20
7.161384178066888
 30
0.0
  0
VERTEX
  5
FA
330
A9
100
AcDbEntity
  8
Layer 1
370
     0
100
AcDbVertex
100
AcDb2dVertex
 10
16.82750161068163
 20
7.161384178066888
 30
0.0
  0
VERTEX
  5
FB
330
A9
100
AcDbEntity
  8
Layer 1
370
     0
100
AcDbVertex
100
AcDb2dVertex
 10
16.82750161068163
 20
6.420551383214933
 30
0.0
  0
VERTEX
  5
FC
330
A9
100
AcDbEntity
  8
Layer 1
370
     0
100
AcDbVertex
100
AcDb2dVertex
 10
16.47472383299205
 20
6.420551383214933
 30
0.0
  0
VERTEX
  5
FD
330
A9
100
AcDbEntity
  8
Layer 1
370
     0
100
AcDbVertex
100
AcDb2dVertex
 10
16.22777777372083
 20
6.31471428183487
 30
0.0
  0
VERTEX
  5
FE
330
A9
100
AcDbEntity
  8
Layer 1
370
     0
100
AcDbVertex
100
AcDb2dVertex
 10
16.22777777372083
 20
6.31471428183487
 30
0.0
  0
VERTEX
  5
FF
330
A9
100
AcDbEntity
  8
Layer 1
370
     0
100
AcDbVertex
100
AcDb2dVertex
 10
16.29833359840683
 20
6.526380410152451
 30
0.0
  0
VERTEX
  5
100
330
A9
100
AcDbEntity
  8
Layer 1
370
     0
100
AcDbVertex
100
AcDb2dVertex
 10
16.29833359840683
 20
6.632214820051665
 30
0.0
  0
VERTEX
  5
101
330
A9
100
AcDbEntity
  8
Layer 1
370
     0
100
AcDbVertex
100
AcDb2dVertex
 10
16.12194470956204
 20
6.632214820051665
 30
0.0
  0
VERTEX
  5
102
330
A9
100
AcDbEntity
  8
Layer 1
370
     0
100
AcDbVertex
100
AcDb2dVertex
 10
15.98083306019004
 20
6.561660341106088
 30
0.0
  0
VERTEX
  5
103
330
A9
100
AcDbEntity
  8
Layer 1
370
     0
100
AcDbVertex
100
AcDb2dVertex
 10
15.83972141081804
 20
6.49110586216051
 30
0.0
  0
VERTEX
  5
104
330
A9
100
AcDbEntity
  8
Layer 1
370
     0
100
AcDbVertex
100
AcDb2dVertex
 10
15.73388834665925
 20
6.49110586216051
 30
0.0
  0
VERTEX
  5
105
330
A9
100
AcDbEntity
  8
Layer 1
370
     0
100
AcDbVertex
100
AcDb2dVertex
 10
15.55749945781446
 20
6.596940272059725
 30
0.0
  0
VERTEX
  5
106
330
A9
100
AcDbEntity
  8
Layer 1
370
     0
100
AcDbVertex
100
AcDb2dVertex
 10
15.52222221834167
 20
6.596940272059725
 30
0.0
  0
VERTEX
  5
107
330
A9
100
AcDbEntity
  8
Layer 1
370
     0
100
AcDbVertex
100
AcDb2dVertex
 10
15.52222221834167
 20
6.808606400377305
 30
0.0
  0
VERTEX
  5
108
330
A9
100
AcDbEntity
  8
Layer 1
370
     0
100
AcDbVertex
100
AcDb2dVertex
 10
15.66333386771367
 20
6.808606400377305
 30
0.0
  0
VERTEX
  5
109
330
A9
100
AcDbEntity
  8
Layer 1
370
     0
100
AcDbVertex
100
AcDb2dVertex
 10
15.80444551708567
 20
6.879160879322883
 30
0.0
  0
VERTEX
  5
10A
330
A9
100
AcDbEntity
  8
Layer 1
370
     0
100
AcDbVertex
100
AcDb2dVertex
 10
15.94555716645768
 20
6.949715358268461
 30
0.0
  0
VERTEX
  5
10B
330
A9
100
AcDbEntity
  8
Layer 1
370
     0
100
AcDbVertex
100
AcDb2dVertex
 10
15.94555716645768
 20
6.949715358268461
 30
0.0
  0
VERTEX
  5
10C
330
A9
100
AcDbEntity
  8
Layer 1
370
     0
100
AcDbVertex
100
AcDb2dVertex
 10
15.83972410229889
 20
7.020269837214038
 30
0.0
  0
VERTEX
  5
10D
330
A9
100
AcDbEntity
  8
Layer 1
370
     0
100
AcDbVertex
100
AcDb2dVertex
 10
15.66333521345409
 20
7.020269837214038
 30
0.0
  0
VERTEX
  5
10E
330
A9
100
AcDbEntity
  8
Layer 1
370
     0
100
AcDbVertex
100
AcDb2dVertex
 10
15.66333521345409
 20
7.725825392593205
 30
0.0
  0
VERTEX
  5
10F
330
A9
100
AcDbEntity
  8
Layer 1
370
     0
100
AcDbVertex
100
AcDb2dVertex
 10
15.76916827761288
 20
7.796379871538782
 30
0.0
  0
VERTEX
  5
110
330
A9
100
AcDbEntity
  8
Layer 1
370
     0
100
AcDbVertex
100
AcDb2dVertex
 10
16.08666881582968
 20
7.796379871538782
 30
0.0
  0
VERTEX
  5
111
330
A9
100
AcDbEntity
  8
Layer 1
370
     0
100
AcDbVertex
100
AcDb2dVertex
 10
16.26305770467447
 20
7.725825392593205
 30
0.0
  0
VERTEX
  5
112
330
A9
100
AcDbEntity
  8
Layer 1
370
     0
100
AcDbVertex
100
AcDb2dVertex
 10
16.36889076883326
 20
7.655270913647627
 30
0.0
  0
VERTEX
  5
113
330
A9
100
AcDbEntity
  8
Layer 1
370
     0
100
AcDbVertex
100
AcDb2dVertex
 10
16.72166854652285
 20
7.655270913647627
 30
0.0
  0
VERTEX
  5
114
330
A9
100
AcDbEntity
  8
Layer 1
370
     0
100
AcDbVertex
100
AcDb2dVertex
 10
16.79222437120885
 20
7.725825392593205
 30
0.0
  0
VERTEX
  5
115
330
A9
100
AcDbEntity
  8
Layer 1
370
     0
100
AcDbVertex
100
AcDb2dVertex
 10
16.89805743536764
 20
7.725825392593205
 30
0.0
  0
VERTEX
  5
116
330
A9
100
AcDbEntity
  8
Layer 1
370
     0
100
AcDbVertex
100
AcDb2dVertex
 10
17.07444632421243
 20
7.831659802492418
 30
0.0
  0
VERTEX
  5
117
330
A9
100
AcDbEntity
  8
Layer 1
370
     0
100
AcDbVertex
100
AcDb2dVertex
 10
17.28611245253001
 20
7.831659802492418
 30
0.0
  0
VERTEX
  5
118
330
A9
100
AcDbEntity
  8
Layer 1
370
     0
100
AcDbVertex
100
AcDb2dVertex
 10
17.21555662784401
 20
7.902214281437996
 30
0.0
  0
VERTEX
  5
119
330
A9
100
AcDbEntity
  8
Layer 1
370
     0
100
AcDbVertex
100
AcDb2dVertex
 10
17.14500080315801
 20
7.902214281437996
 30
0.0
  0
VERTEX
  5
11A
330
A9
100
AcDbEntity
  8
Layer 1
370
     0
100
AcDbVertex
100
AcDb2dVertex
 10
17.07444497847201
 20
7.972768760383573
 30
0.0
  0
VERTEX
  5
11B
330
A9
100
AcDbEntity
  8
Layer 1
370
     0
100
AcDbVertex
100
AcDb2dVertex
 10
16.82750026494121
 20
7.972768760383573
 30
0.0
  0
VERTEX
  5
11C
330
A9
100
AcDbEntity
  8
Layer 1
370
     0
100
AcDbVertex
100
AcDb2dVertex
 10
16.68638861556921
 20
8.078603170282788
 30
0.0
  0
VERTEX
  5
11D
330
A9
100
AcDbEntity
  8
Layer 1
370
     0
100
AcDbVertex
100
AcDb2dVertex
 10
16.58055555141042
 20
8.149157649228366
 30
0.0
  0
VERTEX
  5
11E
330
A9
100
AcDbEntity
  8
Layer 1
370
     0
100
AcDbVertex
100
AcDb2dVertex
 10
16.26305501319362
 20
8.149157649228366
 30
0.0
  0
VERTEX
  5
11F
330
A9
100
AcDbEntity
  8
Layer 1
370
     0
100
AcDbVertex
100
AcDb2dVertex
 10
16.05138888487604
 20
8.078603170282788
 30
0.0
  0
VERTEX
  5
120
330
A9
100
AcDbEntity
  8
Layer 1
370
     0
100
AcDbVertex
100
AcDb2dVertex
 10
15.73388834665925
 20
8.078603170282788
 30
0.0
  0
VERTEX
  5
121
330
A9
100
AcDbEntity
  8
Layer 1
370
     0
100
AcDbVertex
100
AcDb2dVertex
 10
15.66333252197325
 20
8.149157649228366
 30
0.0
  0
VERTEX
  5
122
330
A9
100
AcDbEntity
  8
Layer 1
370
     0
100
AcDbVertex
100
AcDb2dVertex
 10
15.59277669728725
 20
8.254992059127579
 30
0.0
  0
VERTEX
  5
123
330
A9
100
AcDbEntity
  8
Layer 1
370
     0
100
AcDbVertex
100
AcDb2dVertex
 10
15.59277669728725
 20
8.431380947972372
 30
0.0
  0
VERTEX
  5
124
330
A9
100
AcDbEntity
  8
Layer 1
370
     0
100
AcDbVertex
100
AcDb2dVertex
 10
15.91027723550404
 20
8.431380947972372
 30
0.0
  0
VERTEX
  5
125
330
A9
100
AcDbEntity
  8
Layer 1
370
     0
100
AcDbVertex
100
AcDb2dVertex
 10
15.80444417134525
 20
8.501935426917948
 30
0.0
  0
VERTEX
  5
126
330
A9
100
AcDbEntity
  8
Layer 1
370
     0
100
AcDbVertex
100
AcDb2dVertex
 10
15.69861110718646
 20
8.572489905863526
 30
0.0
  0
VERTEX
  5
127
330
A9
100
AcDbEntity
  8
Layer 1
370
     0
100
AcDbVertex
100
AcDb2dVertex
 10
15.59277804302767
 20
8.572489905863526
 30
0.0
  0
VERTEX
  5
128
330
A9
100
AcDbEntity
  8
Layer 1
370
     0
100
AcDbVertex
100
AcDb2dVertex
 10
15.59277804302767
 20
8.784156034181107
 30
0.0
  0
VERTEX
  5
129
330
A9
100
AcDbEntity
  8
Layer 1
370
     0
100
AcDbVertex
100
AcDb2dVertex
 10
15.66333386771367
 20
8.784156034181107
 30
0.0
  0
VERTEX
  5
12A
330
A9
100
AcDbEntity
  8
Layer 1
370
     0
100
AcDbVertex
100
AcDb2dVertex
 10
15.80444551708567
 20
8.854710513126683
 30
0.0
  0
VERTEX
  5
12B
330
A9
100
AcDbEntity
  8
Layer 1
370
     0
100
AcDbVertex
100
AcDb2dVertex
 10
15.91027858124446
 20
8.854710513126683
 30
0.0
  0
VERTEX
  5
12C
330
A9
100
AcDbEntity
  8
Layer 1
370
     0
100
AcDbVertex
100
AcDb2dVertex
 10
16.12194470956204
 20
8.713598863754681
 30
0.0
  0
VERTEX
  5
12D
330
A9
100
AcDbEntity
  8
Layer 1
370
     0
100
AcDbVertex
100
AcDb2dVertex
 10
16.26305635893405
 20
8.713598863754681
 30
0.0
  0
VERTEX
  5
12E
330
A9
100
AcDbEntity
  8
Layer 1
370
     0
100
AcDbVertex
100
AcDb2dVertex
 10
16.26305635893405
 20
9.031099401971476
 30
0.0
  0
VERTEX
  5
12F
330
A9
100
AcDbEntity
  8
Layer 1
370
     0
100
AcDbVertex
100
AcDb2dVertex
 10
16.26305635893405
 20
9.031099401971476
 30
0.0
  0
VERTEX
  5
130
330
A9
100
AcDbEntity
  8
Layer 1
370
     0
100
AcDbVertex
100
AcDb2dVertex
 10
16.40416800830605
 20
9.13693381187069
 30
0.0
  0
VERTEX
  5
131
330
A9
100
AcDbEntity
  8
Layer 1
370
     0
100
AcDbVertex
100
AcDb2dVertex
 10
16.75694578599563
 20
9.13693381187069
 30
0.0
  0
VERTEX
  5
132
330
A9
100
AcDbEntity
  8
Layer 1
370
     0
100
AcDbVertex
100
AcDb2dVertex
 10
16.75694578599563
 20
8.396101017018735
 30
0.0
  0
VERTEX
  5
133
330
A9
100
AcDbEntity
  8
Layer 1
370
     0
100
AcDbVertex
100
AcDb2dVertex
 10
16.79222302546842
 20
8.396101017018735
 30
0.0
  0
VERTEX
  5
134
330
A9
100
AcDbEntity
  8
Layer 1
370
     0
100
AcDbVertex
100
AcDb2dVertex
 10
16.79222302546842
 20
8.325546538073157
 30
0.0
  0
VERTEX
  5
135
330
A9
100
AcDbEntity
  8
Layer 1
370
     0
100
AcDbVertex
100
AcDb2dVertex
 10
16.89805608962721
 20
8.325546538073157
 30
0.0
  0
VERTEX
  5
136
330
A9
100
AcDbEntity
  8
Layer 1
370
     0
100
AcDbVertex
100
AcDb2dVertex
 10
16.96861191431321
 20
8.254992059127579
 30
0.0
  0
VERTEX
  5
137
330
A9
100
AcDbEntity
  8
Layer 1
370
     0
100
AcDbVertex
100
AcDb2dVertex
 10
17.18027804263079
 20
8.113880409755577
 30
0.0
  0
VERTEX
  5
138
330
A9
100
AcDbEntity
  8
Layer 1
370
     0
100
AcDbVertex
100
AcDb2dVertex
 10
17.28611110678958
 20
8.04332593081
 30
0.0
  0
VERTEX
  5
139
330
A9
100
AcDbEntity
  8
Layer 1
370
     0
100
AcDbVertex
100
AcDb2dVertex
 10
17.39194417094837
 20
7.972771451864421
 30
0.0
  0
VERTEX
  5
13A
330
A9
100
AcDbEntity
  8
Layer 1
370
     0
100
AcDbVertex
100
AcDb2dVertex
 10
17.53305582032038
 20
7.972771451864421
 30
0.0
  0
VERTEX
  5
13B
330
A9
100
AcDbEntity
  8
Layer 1
370
     0
100
AcDbVertex
100
AcDb2dVertex
 10
17.53305582032038
 20
8.713604246716377
 30
0.0
  0
VERTEX
  5
13C
330
A9
100
AcDbEntity
  8
Layer 1
370
     0
100
AcDbVertex
100
AcDb2dVertex
 10
17.63888888447917
 20
8.713604246716377
 30
0.0
  0
VERTEX
  5
13D
330
A9
100
AcDbEntity
  8
Layer 1
370
     0
100
AcDbVertex
100
AcDb2dVertex
 10
17.56833305979317
 20
8.784158725661955
 30
0.0
  0
VERTEX
  5
13E
330
A9
100
AcDbEntity
  8
Layer 1
370
     0
100
AcDbVertex
100
AcDb2dVertex
 10
17.25083252157637
 20
9.06638202440596
 30
0.0
  0
VERTEX
  5
13F
330
A9
100
AcDbEntity
  8
Layer 1
370
     0
100
AcDbVertex
100
AcDb2dVertex
 10
17.18027669689037
 20
9.06638202440596
 30
0.0
  0
VERTEX
  5
140
330
A9
100
AcDbEntity
  8
Layer 1
370
     0
100
AcDbVertex
100
AcDb2dVertex
 10
17.18027669689037
 20
9.136936503351537
 30
0.0
  0
VERTEX
  5
141
330
A9
100
AcDbEntity
  8
Layer 1
370
     0
100
AcDbVertex
100
AcDb2dVertex
 10
17.14499945741758
 20
9.136936503351537
 30
0.0
  0
VERTEX
  5
142
330
A9
100
AcDbEntity
  8
Layer 1
370
     0
100
AcDbVertex
100
AcDb2dVertex
 10
17.14499945741758
 20
9.383879871141907
 30
0.0
  0
VERTEX
  5
143
330
A9
100
AcDbEntity
  8
Layer 1
370
     0
100
AcDbVertex
100
AcDb2dVertex
 10
17.46249999563437
 20
9.383879871141907
 30
0.0
  0
VERTEX
  5
144
330
A9
100
AcDbEntity
  8
Layer 1
370
     0
100
AcDbVertex
100
AcDb2dVertex
 10
17.56833305979317
 20
9.31332539219633
 30
0.0
  0
VERTEX
  5
145
330
A9
100
AcDbEntity
  8
Layer 1
370
     0
100
AcDbVertex
100
AcDb2dVertex
 10
17.63888888447917
 20
9.242770913250752
 30
0.0
  0
VERTEX
  5
146
330
A9
100
AcDbEntity
  8
Layer 1
370
     0
100
AcDbVertex
100
AcDb2dVertex
 10
17.74472194863796
 20
9.242770913250752
 30
0.0
  0
VERTEX
  5
147
330
A9
100
AcDbEntity
  8
Layer 1
370
     0
100
AcDbVertex
100
AcDb2dVertex
 10
17.74472194863796
 20
10.26582431536587
 30
0.0
  0
VERTEX
  5
148
330
A9
100
AcDbEntity
  8
Layer 1
370
     0
100
AcDbVertex
100
AcDb2dVertex
 10
17.74472194863796
 20
10.26582431536587
 30
0.0
  0
VERTEX
  5
149
330
A9
100
AcDbEntity
  8
Layer 1
370
     0
100
AcDbVertex
100
AcDb2dVertex
 10
17.74472194863796
 20
10.33637879431144
 30
0.0
  0
VERTEX
  5
14A
330
A9
100
AcDbEntity
  8
Layer 1
370
     0
100
AcDbVertex
100
AcDb2dVertex
 10
18.09749972632754
 20
10.33637879431144
 30
0.0
  0
VERTEX
  5
14B
330
A9
100
AcDbEntity
  8
Layer 1
370
     0
100
AcDbVertex
100
AcDb2dVertex
 10
18.27388861517233
 20
10.23054438441223
 30
0.0
  0
VERTEX
  5
14C
330
A9
100
AcDbEntity
  8
Layer 1
370
     0
100
AcDbVertex
100
AcDb2dVertex
 10
18.27388861517233
 20
10.23054438441223
 30
0.0
  0
VERTEX
  5
14D
330
A9
100
AcDbEntity
  8
Layer 1
370
     0
100
AcDbVertex
100
AcDb2dVertex
 10
18.27388861517233
 20
9.701377717877854
 30
0.0
  0
VERTEX
  5
14E
330
A9
100
AcDbEntity
  8
Layer 1
370
     0
100
AcDbVertex
100
AcDb2dVertex
 10
18.41500026454434
 20
9.701377717877854
 30
0.0
  0
VERTEX
  5
14F
330
A9
100
AcDbEntity
  8
Layer 1
370
     0
100
AcDbVertex
100
AcDb2dVertex
 10
18.52083332870313
 20
9.771932196823432
 30
0.0
  0
VERTEX
  5
150
330
A9
100
AcDbEntity
  8
Layer 1
370
     0
100
AcDbVertex
100
AcDb2dVertex
 10
18.59138915338913
 20
9.842486675769008
 30
0.0
  0
VERTEX
  5
151
330
A9
100
AcDbEntity
  8
Layer 1
370
     0
100
AcDbVertex
100
AcDb2dVertex
 10
18.73250080276113
 20
9.842486675769008
 30
0.0
  0
VERTEX
  5
152
330
A9
100
AcDbEntity
  8
Layer 1
370
     0
100
AcDbVertex
100
AcDb2dVertex
 10
18.83833386691992
 20
9.771932196823432
 30
0.0
  0
VERTEX
  5
153
330
A9
100
AcDbEntity
  8
Layer 1
370
     0
100
AcDbVertex
100
AcDb2dVertex
 10
18.87361110639271
 20
9.771932196823432
 30
0.0
  0
VERTEX
  5
154
330
A9
100
AcDbEntity
  8
Layer 1
370
     0
100
AcDbVertex
100
AcDb2dVertex
 10
18.87361110639271
 20
9.56026606850585
 30
0.0
  0
VERTEX
  5
155
330
A9
100
AcDbEntity
  8
Layer 1
370
     0
100
AcDbVertex
100
AcDb2dVertex
 10
18.69722221754792
 20
9.56026606850585
 30
0.0
  0
VERTEX
  5
156
330
A9
100
AcDbEntity
  8
Layer 1
370
     0
100
AcDbVertex
100
AcDb2dVertex
 10
18.62666639286192
 20
9.489711589560272
 30
0.0
  0
VERTEX
  5
157
330
A9
100
AcDbEntity
  8
Layer 1
370
     0
100
AcDbVertex
100
AcDb2dVertex
 10
18.45027750401712
 20
9.34859994018827
 30
0.0
  0
VERTEX
  5
158
330
A9
100
AcDbEntity
  8
Layer 1
370
     0
100
AcDbVertex
100
AcDb2dVertex
 10
18.23861137569954
 20
9.34859994018827
 30
0.0
  0
VERTEX
  5
159
330
A9
100
AcDbEntity
  8
Layer 1
370
     0
100
AcDbVertex
100
AcDb2dVertex
 10
18.23861137569954
 20
8.678321624281892
 30
0.0
  0
VERTEX
  5
15A
330
A9
100
AcDbEntity
  8
Layer 1
370
     0
100
AcDbVertex
100
AcDb2dVertex
 10
18.52083332870313
 20
8.678321624281892
 30
0.0
  0
VERTEX
  5
15B
330
A9
100
AcDbEntity
  8
Layer 1
370
     0
100
AcDbVertex
100
AcDb2dVertex
 10
18.7324994570207
 20
8.819433273653896
 30
0.0
  0
VERTEX
  5
15C
330
A9
100
AcDbEntity
  8
Layer 1
370
     0
100
AcDbVertex
100
AcDb2dVertex
 10
18.94416558533829
 20
8.819433273653896
 30
0.0
  0
VERTEX
  5
15D
330
A9
100
AcDbEntity
  8
Layer 1
370
     0
100
AcDbVertex
100
AcDb2dVertex
 10
19.01472141002429
 20
8.889987752599472
 30
0.0
  0
VERTEX
  5
15E
330
A9
100
AcDbEntity
  8
Layer 1
370
     0
100
AcDbVertex
100
AcDb2dVertex
 10
19.0499999952375
 20
8.889987752599472
 30
0.0
  0
VERTEX
  5
15F
330
A9
100
AcDbEntity
  8
Layer 1
370
     0
100
AcDbVertex
100
AcDb2dVertex
 10
19.0499999952375
 20
9.172211051343478
 30
0.0
  0
VERTEX
  5
160
330
A9
100
AcDbEntity
  8
Layer 1
370
     0
100
AcDbVertex
100
AcDb2dVertex
 10
19.1205558199235
 20
9.38387717966106
 30
0.0
  0
VERTEX
  5
161
330
A9
100
AcDbEntity
  8
Layer 1
370
     0
100
AcDbVertex
100
AcDb2dVertex
 10
19.1205558199235
 20
9.48971428104112
 30
0.0
  0
VERTEX
  5
162
330
A9
100
AcDbEntity
  8
Layer 1
370
     0
100
AcDbVertex
100
AcDb2dVertex
 10
19.4380563581403
 20
9.48971428104112
 30
0.0
  0
VERTEX
  5
163
330
A9
100
AcDbEntity
  8
Layer 1
370
     0
100
AcDbVertex
100
AcDb2dVertex
 10
19.5086121828263
 20
9.419159802095544
 30
0.0
  0
VERTEX
  5
164
330
A9
100
AcDbEntity
  8
Layer 1
370
     0
100
AcDbVertex
100
AcDb2dVertex
 10
19.5791680075123
 20
9.348605323149966
 30
0.0
  0
VERTEX
  5
165
330
A9
100
AcDbEntity
  8
Layer 1
370
     0
100
AcDbVertex
100
AcDb2dVertex
 10
19.61444524698509
 20
9.348605323149966
 30
0.0
  0
VERTEX
  5
166
330
A9
100
AcDbEntity
  8
Layer 1
370
     0
100
AcDbVertex
100
AcDb2dVertex
 10
19.61444524698509
 20
9.031104784933172
 30
0.0
  0
VERTEX
  5
167
330
A9
100
AcDbEntity
  8
Layer 1
370
     0
100
AcDbVertex
100
AcDb2dVertex
 10
19.68500107167109
 20
9.031104784933172
 30
0.0
  0
VERTEX
  5
168
330
A9
100
AcDbEntity
  8
Layer 1
370
     0
100
AcDbVertex
100
AcDb2dVertex
 10
19.93194578520188
 20
9.136939194832385
 30
0.0
  0
VERTEX
  5
169
330
A9
100
AcDbEntity
  8
Layer 1
370
     0
100
AcDbVertex
100
AcDb2dVertex
 10
20.03777884936067
 20
9.136939194832385
 30
0.0
  0
VERTEX
  5
16A
330
A9
100
AcDbEntity
  8
Layer 1
370
     0
100
AcDbVertex
100
AcDb2dVertex
 10
20.10833467404667
 20
9.066384715886809
 30
0.0
  0
VERTEX
  5
16B
330
A9
100
AcDbEntity
  8
Layer 1
370
     0
100
AcDbVertex
100
AcDb2dVertex
 10
20.21416773820546
 20
8.99583023694123
 30
0.0
  0
VERTEX
  5
16C
330
A9
100
AcDbEntity
  8
Layer 1
370
     0
100
AcDbVertex
100
AcDb2dVertex
 10
20.24944497767826
 20
8.99583023694123
 30
0.0
  0
VERTEX
  5
16D
330
A9
100
AcDbEntity
  8
Layer 1
370
     0
100
AcDbVertex
100
AcDb2dVertex
 10
20.24944497767826
 20
8.819441348096438
 30
0.0
  0
VERTEX
  5
16E
330
A9
100
AcDbEntity
  8
Layer 1
370
     0
100
AcDbVertex
100
AcDb2dVertex
 10
20.28472221715104
 20
8.81943865661559
 30
0.0
  0
SEQEND
  5
16F
330
A9
100
AcDbEntity
  8
Layer 1
370
     0
  0
SPLINE
  5
170
330
49
100
AcDbEntity
  8
Layer 1
370
     0
100
AcDbSpline
210
0.0
220
0.0
230
1.0
 70
    11
 71
     3
 72
    23
 73
    19
 74
     0
 42
0.0000000001
 43
0.0000000001
 12
1.0
 22
0.0
 32
0.0
 13
1.0
 23
0.0
 33
0.0
 40
0.0
 40
0.0
 40
0.0
 40
0.0
 40
1.0
 40
1.0
 40
1.0
 40
2.0
 40
2.0
 40
2.0
 40
3.0
 40
3.0
 40
3.0
 40
4.0
 40
4.0
 40
4.0
 40
5.0
 40
5.0
 40
5.0
 40
6.0
 40
6.0
 40
6.0
 40
6.0
 10
17.49777723510716
 20
16.89804761252237
 30
0.0
 10
17.71209447205988
 20
16.89804761252237
 30
0.0
 10
17.88583225226954
 20
16.72430983231271
 30
0.0
 10
17.88583225226954
 20
16.50999259536
 30
0.0
 10
17.87493848353786
 20
16.36557580750684
 30
0.0
 10
17.79646701367832
 20
16.23478867866719
 30
0.0
 10
17.67416612395196
 20
16.15721481767041
 30
0.0
 10
17.67416612395196
 20
16.15721481767041
 30
0.0
 10
17.2508338673168
 20
16.15721481767041
 30
0.0
 10
17.2508338673168
 20
16.15721481767041
 30
0.0
 10
17.14877291356627
 20
16.24768356340925
 30
0.0
 10
17.08558232622041
 20
16.37406204662011
 30
0.0
 10
17.07444497847201
 20
16.50999259536
 30
0.0
 10
17.07355813553264
 20
16.72430714083186
 30
0.0
 10
17.24657594461549
 20
16.8987635464279
 30
0.0
 10
17.46089049008736
 20
16.89965173510769
 30
0.0
 10
17.4732053607067
 20
16.8997028732438
 30
0.0
 10
17.48551350262393
 20
16.89916726855508
 30
0.0
 10
17.49777723510716
 20
16.89804761252237
 30
0.0
  0
SPLINE
  5
171
330
49
100
AcDbEntity
  8
Layer 1
370
     0
100
AcDbSpline
210
0.0
220
0.0
230
1.0
 70
    11
 71
     3
 72
    29
 73
    25
 74
     0
 42
0.0000000001
 43
0.0000000001
 12
1.0
 22
0.0
 32
0.0
 13
1.0
 23
0.0
 33
0.0
 40
0.0
 40
0.0
 40
0.0
 40
0.0
 40
1.0
 40
1.0
 40
1.0
 40
2.0
 40
2.0
 40
2.0
 40
3.0
 40
3.0
 40
3.0
 40
4.0
 40
4.0
 40
4.0
 40
5.0
 40
5.0
 40
5.0
 40
6.0
 40
6.0
 40
6.0
 40
7.0
 40
7.0
 40
7.0
 40
8.0
 40
8.0
 40
8.0
 40
8.0
 10
17.32138834626237
 20
15.31054761291925
 30
0.0
 10
17.46504613651644
 20
14.90294167887808
 30
0.0
 10
17.84211049163661
 20
14.62363594537315
 30
0.0
 10
18.27388861517233
 20
14.60499205754008
 30
0.0
 10
18.55334507160475
 20
14.60964293644517
 30
0.0
 10
18.82911285353518
 20
14.66959028936936
 30
0.0
 10
19.08527723471029
 20
14.78138094638487
 30
0.0
 10
19.29694336302787
 20
15.20471320302003
 30
0.0
 10
19.29694336302787
 20
15.20471320302003
 30
0.0
 10
19.43805501239987
 20
15.27527037344646
 30
0.0
 10
19.53998273784843
 20
15.26622699779768
 30
0.0
 10
19.63753546117881
 20
15.22964439011368
 30
0.0
 10
19.72027696540345
 20
15.16943596354724
 30
0.0
 10
19.50250790426337
 20
14.56648504104987
 30
0.0
 10
18.91382721322131
 20
14.17881759712959
 30
0.0
 10
18.27388861517233
 20
14.21693704037771
 30
0.0
 10
18.27388861517233
 20
14.21693704037771
 30
0.0
 10
17.56833305979317
 20
14.21693704037771
 30
0.0
 10
17.56833305979317
 20
14.21693704037771
 30
0.0
 10
17.26667054062555
 20
14.50725093055035
 30
0.0
 10
17.04753286147434
 20
14.8724794986421
 30
0.0
 10
16.9333333291
 20
15.27527037344646
 30
0.0
 10
17.03941266375637
 20
15.37435454937926
 30
0.0
 10
17.19918031262526
 20
15.38887778003427
 30
0.0
 10
17.32138834626237
 20
15.31054761291925
 30
0.0
  0
SPLINE
  5
172
330
49
100
AcDbEntity
  8
Layer 1
370
     0
100
AcDbSpline
210
0.0
220
0.0
230
1.0
 70
    11
 71
     3
 72
    23
 73
    19
 74
     0
 42
0.0000000001
 43
0.0000000001
 12
1.0
 22
0.0
 32
0.0
 13
1.0
 23
0.0
 33
0.0
 40
0.0
 40
0.0
 40
0.0
 40
0.0
 40
1.0
 40
1.0
 40
1.0
 40
2.0
 40
2.0
 40
2.0
 40
3.0
 40
3.0
 40
3.0
 40
4.0
 40
4.0
 40
4.0
 40
5.0
 40
5.0
 40
5.0
 40
6.0
 40
6.0
 40
6.0
 40
6.0
 10
18.7677766964935
 20
21.58999313238617
 30
0.0
 10
18.7677766964935
 20
21.58999313238617
 30
0.0
 10
18.80305393596628
 20
21.58999313238617
 30
0.0
 10
18.80305393596628
 20
21.58999313238617
 30
0.0
 10
18.77984933383653
 20
21.36843042899104
 30
0.0
 10
18.85758199220333
 20
21.14818655121136
 30
0.0
 10
19.01472006428386
 20
20.99027198690622
 30
0.0
 10
18.97944282481108
 20
20.95499474743343
 30
0.0
 10
18.94416423959786
 20
20.884437577007
 30
0.0
 10
18.87360841491186
 20
20.84916033753422
 30
0.0
 10
18.87360841491186
 20
20.84916033753422
 30
0.0
 10
18.45027750401712
 20
20.84916033753422
 30
0.0
 10
18.45027750401712
 20
20.84916033753422
 30
0.0
 10
18.37647440768819
 20
20.91965022093944
 30
0.0
 10
18.31663202251706
 20
21.00342794529051
 30
0.0
 10
18.27388861517233
 20
21.09610370532458
 30
0.0
 10
18.27388861517233
 20
21.09610370532458
 30
0.0
 10
18.7677766964935
 20
21.58999313238617
 30
0.0
 10
18.7677766964935
 20
21.58999313238617
 30
0.0
  0
SPLINE
  5
173
330
49
100
AcDbEntity
  8
Layer 1
370
     0
100
AcDbSpline
210
0.0
220
0.0
230
1.0
 70
    11
 71
     3
 72
    23
 73
    19
 74
     0
 42
0.0000000001
 43
0.0000000001
 12
1.0
 22
0.0
 32
0.0
 13
1.0
 23
0.0
 33
0.0
 40
0.0
 40
0.0
 40
0.0
 40
0.0
 40
1.0
 40
1.0
 40
1.0
 40
2.0
 40
2.0
 40
2.0
 40
3.0
 40
3.0
 40
3.0
 40
4.0
 40
4.0
 40
4.0
 40
5.0
 40
5.0
 40
5.0
 40
6.0
 40
6.0
 40
6.0
 40
6.0
 10
19.57916531603145
 20
16.05138309925205
 30
0.0
 10
19.57916531603145
 20
16.05138309925205
 30
0.0
 10
19.15583305939629
 20
16.05138309925205
 30
0.0
 10
19.15583305939629
 20
16.05138309925205
 30
0.0
 10
19.05150049581018
 20
16.15477095306057
 30
0.0
 10
18.98873650817871
 20
16.29285199499789
 30
0.0
 10
18.9794441705515
 20
16.43943811641442
 30
0.0
 10
19.01422886902913
 20
16.6453498586793
 30
0.0
 10
19.19396999726992
 20
16.79513345934308
 30
0.0
 10
19.40277777292708
 20
16.792215894104
 30
0.0
 10
19.59652267601924
 20
16.81278688222413
 30
0.0
 10
19.7702604562289
 20
16.6724046241619
 30
0.0
 10
19.79083279008946
 20
16.47865837532931
 30
0.0
 10
19.79346236687781
 20
16.45389675152908
 30
0.0
 10
19.79346236687781
 20
16.42892519222271
 30
0.0
 10
19.79083279008946
 20
16.40416087694163
 30
0.0
 10
19.77993902135778
 20
16.25974139760762
 30
0.0
 10
19.70146755149824
 20
16.12895426876798
 30
0.0
 10
19.57916531603145
 20
16.05138309925205
 30
0.0
  0
POLYLINE
  5
174
330
49
100
AcDbEntity
  8
Layer 1
370
     0
100
AcDb2dPolyline
 66
     1
 10
0.0
 20
0.0
 30
0.0
  0
VERTEX
  5
175
330
174
100
AcDbEntity
  8
Layer 1
370
     0
100
AcDbVertex
100
AcDb2dVertex
 10
18.09749972632754
 20
21.02554653489816
 30
0.0
  0
VERTEX
  5
176
330
174
100
AcDbEntity
  8
Layer 1
370
     0
100
AcDbVertex
100
AcDb2dVertex
 10
18.09749972632754
 20
21.02554653489816
 30
0.0
  0
VERTEX
  5
177
330
174
100
AcDbEntity
  8
Layer 1
370
     0
100
AcDbVertex
100
AcDb2dVertex
 10
18.23861137569954
 20
20.81388040658058
 30
0.0
  0
VERTEX
  5
178
330
174
100
AcDbEntity
  8
Layer 1
370
     0
100
AcDbVertex
100
AcDb2dVertex
 10
17.78000053385117
 20
20.81388040658058
 30
0.0
  0
VERTEX
  5
179
330
174
100
AcDbEntity
  8
Layer 1
370
     0
100
AcDbVertex
100
AcDb2dVertex
 10
18.09749972632754
 20
21.02554653489816
 30
0.0
  0
SEQEND
  5
17A
330
174
100
AcDbEntity
  8
Layer 1
370
     0
  0
SPLINE
  5
17B
330
49
100
AcDbEntity
  8
Layer 1
370
     0
100
AcDbSpline
210
0.0
220
0.0
230
1.0
 70
    11
 71
     3
 72
    11
 73
     7
 74
     0
 42
0.0000000001
 43
0.0000000001
 12
1.0
 22
0.0
 32
0.0
 13
1.0
 23
0.0
 33
0.0
 40
0.0
 40
0.0
 40
0.0
 40
0.0
 40
1.0
 40
1.0
 40
1.0
 40
2.0
 40
2.0
 40
2.0
 40
2.0
 10
19.15583305939629
 20
20.84915764605337
 30
0.0
 10
19.15583305939629
 20
20.84915764605337
 30
0.0
 10
19.29694470876829
 20
20.77860316710779
 30
0.0
 10
19.29694470876829
 20
20.77860316710779
 30
0.0
 10
19.15583305939629
 20
20.77860316710779
 30
0.0
 10
19.15583305939629
 20
20.81388040658058
 30
0.0
 10
19.15583305939629
 20
20.84915764605337
 30
0.0
  0
SPLINE
  5
17C
330
49
100
AcDbEntity
  8
Layer 1
370
     0
100
AcDbSpline
210
0.0
220
0.0
230
1.0
 70
    11
 71
     3
 72
    23
 73
    19
 74
     0
 42
0.0000000001
 43
0.0000000001
 12
1.0
 22
0.0
 32
0.0
 13
1.0
 23
0.0
 33
0.0
 40
0.0
 40
0.0
 40
0.0
 40
0.0
 40
1.0
 40
1.0
 40
1.0
 40
2.0
 40
2.0
 40
2.0
 40
3.0
 40
3.0
 40
3.0
 40
4.0
 40
4.0
 40
4.0
 40
5.0
 40
5.0
 40
5.0
 40
6.0
 40
6.0
 40
6.0
 40
6.0
 10
9.066389155770377
 20
26.66999232367192
 30
0.0
 10
9.23601502611473
 20
27.19616337202263
 30
0.0
 10
9.554630510272746
 20
27.66183127665407
 30
0.0
 10
9.983611512337337
 20
28.01054760974425
 30
0.0
 10
10.36795094018925
 20
28.371512872173
 30
0.0
 10
10.86810478892421
 20
28.58407930083418
 30
0.0
 10
11.39472329596588
 20
28.61027010096462
 30
0.0
 10
11.49989156435525
 20
28.61897973298827
 30
0.0
 10
11.60343552405294
 20
28.58014973879632
 30
0.0
 10
11.67694524896946
 20
28.50443703680583
 30
0.0
 10
11.74702871876667
 20
28.44183992098693
 30
0.0
 10
11.78578200575446
 20
28.35141289320124
 30
0.0
 10
11.78277831312825
 20
28.25749232327504
 30
0.0
 10
11.74750107365547
 20
27.90471454558546
 30
0.0
 10
11.50055636012467
 20
27.55193676789587
 30
0.0
 10
10.9713896935903
 20
27.23443622967908
 30
0.0
 10
10.40442858012018
 20
26.86582312442116
 30
0.0
 10
9.74264390489941
 20
26.66973932447222
 30
0.0
 10
9.066389155770377
 20
26.66999232367192
 30
0.0
  0
SPLINE
  5
17D
330
49
100
AcDbEntity
  8
Layer 1
370
     0
100
AcDbSpline
210
0.0
220
0.0
230
1.0
 70
    11
 71
     3
 72
   233
 73
   229
 74
     0
 42
0.0000000001
 43
0.0000000001
 12
1.0
 22
0.0
 32
0.0
 13
1.0
 23
0.0
 33
0.0
 40
0.0
 40
0.0
 40
0.0
 40
0.0
 40
1.0
 40
1.0
 40
1.0
 40
2.0
 40
2.0
 40
2.0
 40
3.0
 40
3.0
 40
3.0
 40
4.0
 40
4.0
 40
4.0
 40
5.0
 40
5.0
 40
5.0
 40
6.0
 40
6.0
 40
6.0
 40
7.0
 40
7.0
 40
7.0
 40
8.0
 40
8.0
 40
8.0
 40
9.0
 40
9.0
 40
9.0
 40
10.0
 40
10.0
 40
10.0
 40
11.0
 40
11.0
 40
11.0
 40
12.0
 40
12.0
 40
12.0
 40
13.0
 40
13.0
 40
13.0
 40
14.0
 40
14.0
 40
14.0
 40
15.0
 40
15.0
 40
15.0
 40
16.0
 40
16.0
 40
16.0
 40
17.0
 40
17.0
 40
17.0
 40
18.0
 40
18.0
 40
18.0
 40
19.0
 40
19.0
 40
19.0
 40
20.0
 40
20.0
 40
20.0
 40
21.0
 40
21.0
 40
21.0
 40
22.0
 40
22.0
 40
22.0
 40
23.0
 40
23.0
 40
23.0
 40
24.0
 40
24.0
 40
24.0
 40
25.0
 40
25.0
 40
25.0
 40
26.0
 40
26.0
 40
26.0
 40
27.0
 40
27.0
 40
27.0
 40
28.0
 40
28.0
 40
28.0
 40
29.0
 40
29.0
 40
29.0
 40
30.0
 40
30.0
 40
30.0
 40
31.0
 40
31.0
 40
31.0
 40
32.0
 40
32.0
 40
32.0
 40
33.0
 40
33.0
 40
33.0
 40
34.0
 40
34.0
 40
34.0
 40
35.0
 40
35.0
 40
35.0
 40
36.0
 40
36.0
 40
36.0
 40
37.0
 40
37.0
 40
37.0
 40
38.0
 40
38.0
 40
38.0
 40
39.0
 40
39.0
 40
39.0
 40
40.0
 40
40.0
 40
40.0
 40
41.0
 40
41.0
 40
41.0
 40
42.0
 40
42.0
 40
42.0
 40
43.0
 40
43.0
 40
43.0
 40
44.0
 40
44.0
 40
44.0
 40
45.0
 40
45.0
 40
45.0
 40
46.0
 40
46.0
 40
46.0
 40
47.0
 40
47.0
 40
47.0
 40
48.0
 40
48.0
 40
48.0
 40
49.0
 40
49.0
 40
49.0
 40
50.0
 40
50.0
 40
50.0
 40
51.0
 40
51.0
 40
51.0
 40
52.0
 40
52.0
 40
52.0
 40
53.0
 40
53.0
 40
53.0
 40
54.0
 40
54.0
 40
54.0
 40
55.0
 40
55.0
 40
55.0
 40
56.0
 40
56.0
 40
56.0
 40
57.0
 40
57.0
 40
57.0
 40
58.0
 40
58.0
 40
58.0
 40
59.0
 40
59.0
 40
59.0
 40
60.0
 40
60.0
 40
60.0
 40
61.0
 40
61.0
 40
61.0
 40
62.0
 40
62.0
 40
62.0
 40
63.0
 40
63.0
 40
63.0
 40
64.0
 40
64.0
 40
64.0
 40
65.0
 40
65.0
 40
65.0
 40
66.0
 40
66.0
 40
66.0
 40
67.0
 40
67.0
 40
67.0
 40
68.0
 40
68.0
 40
68.0
 40
69.0
 40
69.0
 40
69.0
 40
70.0
 40
70.0
 40
70.0
 40
71.0
 40
71.0
 40
71.0
 40
72.0
 40
72.0
 40
72.0
 40
73.0
 40
73.0
 40
73.0
 40
74.0
 40
74.0
 40
74.0
 40
75.0
 40
75.0
 40
75.0
 40
76.0
 40
76.0
 40
76.0
 40
76.0
 10
2.010833265543604
 20
16.29832646704242
 30
0.0
 10
2.020153527284608
 20
20.12940991216348
 30
0.0
 10
3.556430945566954
 20
23.79870171481807
 30
0.0
 10
6.279444173726499
 20
26.49360343482712
 30
0.0
 10
6.811739013876289
 20
26.30030935477698
 30
0.0
 10
7.37145129655293
 20
26.19313055019426
 30
0.0
 10
7.937499998015626
 20
26.17610289661033
 30
0.0
 10
8.045523254714354
 20
25.70636278145609
 30
0.0
 10
8.32155211028703
 20
25.29231882522686
 30
0.0
 10
8.713611378080794
 20
25.01193649938279
 30
0.0
 10
7.931510107388732
 20
24.90071643630703
 30
0.0
 10
7.210216790621966
 20
24.52763412710125
 30
0.0
 10
6.667500536629295
 20
23.95360316631404
 30
0.0
 10
6.174125182409648
 20
23.49628827249391
 30
0.0
 10
5.882318866106868
 20
22.86192642276168
 30
0.0
 10
5.856111917091338
 20
22.18971427786612
 30
0.0
 10
5.839788085749119
 20
21.6128195814568
 30
0.0
 10
6.055871607008235
 20
21.05354601015836
 30
0.0
 10
6.455834408311715
 20
20.63749151773579
 30
0.0
 10
6.944159198720368
 20
20.18981481683181
 30
0.0
 10
7.593855760583226
 20
19.96050872303741
 30
0.0
 10
8.255001209102632
 20
20.0024904413022
 30
0.0
 10
9.031604457292746
 20
19.98661877874241
 30
0.0
 10
9.790500452984844
 20
20.23543541720289
 30
0.0
 10
10.40694578758313
 20
20.70804599668136
 30
0.0
 10
10.40694578758313
 20
20.70804599668136
 30
0.0
 10
11.1125013429623
 20
21.30776714216131
 30
0.0
 10
11.1125013429623
 20
21.30776714216131
 30
0.0
 10
11.1125013429623
 20
21.30776714216131
 30
0.0
 10
10.93611245411751
 20
20.95498936447173
 30
0.0
 10
10.93611245411751
 20
20.95498936447173
 30
0.0
 10
10.93611245411751
 20
20.95498936447173
 30
0.0
 10
10.93611245411751
 20
20.88443488552615
 30
0.0
 10
10.93611245411751
 20
20.88443488552615
 30
0.0
 10
10.93611245411751
 20
20.88443488552615
 30
0.0
 10
11.92388996250026
 20
20.88443488552615
 30
0.0
 10
11.92388996250026
 20
20.88443488552615
 30
0.0
 10
11.99444578718626
 20
20.88443488552615
 30
0.0
 10
12.02972302665905
 20
20.91971212499895
 30
0.0
 10
12.02972302665905
 20
20.95498936447173
 30
0.0
 10
12.02972302665905
 20
20.95498936447173
 30
0.0
 10
13.19388942388659
 20
23.24804491945402
 30
0.0
 10
13.19388942388659
 20
23.24804491945402
 30
0.0
 10
13.43448089687603
 20
23.6316737963621
 30
0.0
 10
13.73184108390835
 20
23.9766112903419
 30
0.0
 10
14.07583386811054
 20
24.27110101304999
 30
0.0
 10
14.24463008948355
 20
24.44689104740613
 30
0.0
 10
14.46892464593925
 20
24.55903697989356
 30
0.0
 10
14.71083359880371
 20
24.58860155126678
 30
0.0
 10
14.78138942348971
 20
24.58860155126678
 30
0.0
 10
14.85194524817571
 20
24.55332431179399
 30
0.0
 10
14.85194524817571
 20
24.48276848710799
 30
0.0
 10
14.88986955906236
 20
24.40482185601379
 30
0.0
 10
14.88986955906236
 20
24.3137704046714
 30
0.0
 10
14.85194524817571
 20
24.2358237735772
 30
0.0
 10
14.81666800870292
 20
24.09471212420519
 30
0.0
 10
14.74611218401692
 20
23.95360182057361
 30
0.0
 10
14.71083359880371
 20
23.81249017120161
 30
0.0
 10
14.71083359880371
 20
23.81249017120161
 30
0.0
 10
14.42861164580013
 20
23.21276767998123
 30
0.0
 10
14.42861164580013
 20
23.21276767998123
 30
0.0
 10
14.42861164580013
 20
23.21276767998123
 30
0.0
 10
13.29972248804538
 20
20.95498936447173
 30
0.0
 10
13.29972248804538
 20
20.95498936447173
 30
0.0
 10
13.26444524857259
 20
20.91971212499895
 30
0.0
 10
13.26444524857259
 20
20.91971212499895
 30
0.0
 10
13.29972248804538
 20
20.88443488552615
 30
0.0
 10
13.29972248804538
 20
20.88443488552615
 30
0.0
 10
14.35805582111413
 20
20.88443488552615
 30
0.0
 10
14.35805582111413
 20
20.88443488552615
 30
0.0
 10
14.39333306058692
 20
20.88443488552615
 30
0.0
 10
14.42861164580013
 20
20.88443488552615
 30
0.0
 10
14.46388888527292
 20
20.95498936447173
 30
0.0
 10
14.46388888527292
 20
20.95498936447173
 30
0.0
 10
15.62805528250046
 20
23.21276767998123
 30
0.0
 10
15.62805528250046
 20
23.21276767998123
 30
0.0
 10
15.62805528250046
 20
23.24804491945402
 30
0.0
 10
15.66333252197325
 20
23.31860074414002
 30
0.0
 10
15.66333252197325
 20
23.35387932935324
 30
0.0
 10
15.87883401049901
 20
23.70415537559474
 30
0.0
 10
16.1533502538352
 20
24.01447773439032
 30
0.0
 10
16.4747211415112
 20
24.27110101304999
 30
0.0
 10
16.64521972452047
 20
24.43897943945387
 30
0.0
 10
16.87085867565967
 20
24.53926401584481
 30
0.0
 10
17.10972087220437
 20
24.55332296605357
 30
0.0
 10
17.368423319819
 20
24.50628664675651
 30
0.0
 10
17.29786884087342
 20
24.04767445916772
 30
0.0
 10
16.89805474388679
 20
23.17748909476802
 30
0.0
 10
16.72792354801325
 20
22.86859187508139
 30
0.0
 10
16.57482404294492
 20
22.55061763623537
 30
0.0
 10
16.43944390203842
 20
22.22498882585806
 30
0.0
 10
16.39648921344713
 20
22.03978399149613
 30
0.0
 10
16.37284455419875
 20
21.85062537176871
 30
0.0
 10
16.36888807735241
 20
21.6605449198509
 30
0.0
 10
16.33108488310392
 20
21.44407718970075
 30
0.0
 10
16.39629811830693
 20
21.2223556889356
 30
0.0
 10
16.5452769661972
 20
21.06082377437095
 30
0.0
 10
16.5452769661972
 20
21.06082377437095
 30
0.0
 10
16.61583279088321
 20
20.99026929542537
 30
0.0
 10
16.61583279088321
 20
20.99026929542537
 30
0.0
 10
16.19249918850762
 20
20.99026929542537
 30
0.0
 10
15.91027723550404
 20
20.91971481647979
 30
0.0
 10
15.80444417134525
 20
20.70804599668136
 30
0.0
 10
15.69861110718646
 20
20.49637717688293
 30
0.0
 10
15.55749945781446
 20
20.35526821899178
 30
0.0
 10
15.91027723550404
 20
19.5438782537134
 30
0.0
 10
16.26305501319362
 20
18.73248828843502
 30
0.0
 10
16.50999972672442
 20
18.23860155285428
 30
0.0
 10
16.4747211415112
 20
18.09748990348228
 30
0.0
 10
14.78138807774929
 20
18.41499044169907
 30
0.0
 10
14.74610949253607
 20
17.77998936526548
 30
0.0
 10
14.74610949253607
 20
17.77998936526548
 30
0.0
 10
14.71083225306329
 20
17.14498828883189
 30
0.0
 10
16.05138753913562
 20
17.39193434810311
 30
0.0
 10
16.01610895392241
 20
17.21554545925832
 30
0.0
 10
15.38066782037019
 20
16.81404918674178
 30
0.0
 10
14.90625664020451
 20
16.20230788779532
 30
0.0
 10
14.67555366785007
 20
15.48693381028319
 30
0.0
 10
15.55749811207403
 20
14.49915495616002
 30
0.0
 10
15.55749811207403
 20
14.49915495616002
 30
0.0
 10
15.02833144553966
 20
14.32276606731523
 30
0.0
 10
14.79105856843562
 20
14.09522020199532
 30
0.0
 10
14.58894046842579
 20
13.83365671023942
 30
0.0
 10
14.42860895431928
 20
13.54665603299048
 30
0.0
 10
14.42860895431928
 20
13.54665603299048
 30
0.0
 10
13.79360922362611
 20
13.96998828962564
 30
0.0
 10
13.79360922362611
 20
13.96998828962564
 30
0.0
 10
13.79360922362611
 20
13.96998828962564
 30
0.0
 10
13.68777615946733
 20
14.04054276857122
 30
0.0
 10
14.56972060369128
 20
15.3105449214384
 30
0.0
 10
14.56972060369128
 20
15.3105449214384
 30
0.0
 10
13.47611137689017
 20
15.48693650176404
 30
0.0
 10
13.47611137689017
 20
15.48693650176404
 30
0.0
 10
13.26444524857259
 20
14.2522142798505
 30
0.0
 10
13.15861083867337
 20
14.32276875879607
 30
0.0
 10
13.15861083867337
 20
14.32276875879607
 30
0.0
 10
12.41777804382142
 20
14.81665818585766
 30
0.0
 10
11.57111083907025
 20
15.23999044249282
 30
0.0
 10
11.42999918969825
 20
14.81665818585766
 30
0.0
 10
11.28888754032624
 20
14.3933259292225
 30
0.0
 10
11.25361030085345
 20
14.3933259292225
 30
0.0
 10
12.13555474507741
 20
13.89943650216091
 30
0.0
 10
12.13555474507741
 20
13.89943650216091
 30
0.0
 10
13.01749918930137
 20
13.47610424552575
 30
0.0
 10
13.01749918930137
 20
13.47610424552575
 30
0.0
 10
11.81805420686062
 20
12.8763831000458
 30
0.0
 10
12.2413878092362
 20
12.417770912457
 30
0.0
 10
12.2413878092362
 20
12.417770912457
 30
0.0
 10
12.2413878092362
 20
12.417770912457
 30
0.0
 10
13.40555420646374
 20
13.29971535668096
 30
0.0
 10
13.51138727062253
 20
13.22916087773538
 30
0.0
 10
13.51138727062253
 20
13.22916087773538
 30
0.0
 10
14.18166558652891
 20
12.94693757899138
 30
0.0
 10
14.18166558652891
 20
12.94693757899138
 30
0.0
 10
14.18166558652891
 20
12.94693757899138
 30
0.0
 10
13.96999945821133
 20
12.17082754466663
 30
0.0
 10
13.96999945821133
 20
12.17082754466663
 30
0.0
 10
14.00527669768412
 20
11.28888310044267
 30
0.0
 10
14.07583252237012
 20
10.51277306611793
 30
0.0
 10
14.07583252237012
 20
10.51277306611793
 30
0.0
 10
13.24965017835195
 20
9.905679954595712
 30
0.0
 10
12.58371187531273
 20
9.10655506754099
 30
0.0
 10
12.13555474507741
 20
8.184440271662849
 30
0.0
 10
12.13555474507741
 20
8.184440271662849
 30
0.0
 10
10.65388780963308
 20
10.68916195496272
 30
0.0
 10
10.65388780963308
 20
10.68916195496272
 30
0.0
 10
10.59307783709715
 20
10.76526895889742
 30
0.0
 10
10.6054774893632
 20
10.87626024610111
 30
0.0
 10
10.68158382042768
 20
10.93707156437747
 30
0.0
 10
10.72337982651397
 20
10.97046745873761
 30
0.0
 10
10.77807340882316
 20
10.98308781243318
 30
0.0
 10
10.83027669847787
 20
10.97138525370673
 30
0.0
 10
10.83027669847787
 20
10.97138525370673
 30
0.0
 10
11.67694390322904
 20
10.97138525370673
 30
0.0
 10
11.67694390322904
 20
10.97138525370673
 30
0.0
 10
11.85333279207383
 20
10.97138525370673
 30
0.0
 10
11.92388861675983
 20
11.07721966360594
 30
0.0
 10
11.85333279207383
 20
11.2183286214971
 30
0.0
 10
11.85333279207383
 20
11.2183286214971
 30
0.0
 10
9.983610839467124
 20
14.35805138123056
 30
0.0
 10
9.983610839467124
 20
14.35805138123056
 30
0.0
 10
9.922800866931192
 20
14.43415838516525
 30
0.0
 10
9.935200519197243
 20
14.54514967236895
 30
0.0
 10
10.01130685026173
 20
14.60596099064531
 30
0.0
 10
10.05310285634801
 20
14.63935688500545
 30
0.0
 10
10.1077964386572
 20
14.65197723870102
 30
0.0
 10
10.15999972831192
 20
14.64027467997456
 30
0.0
 10
10.15999972831192
 20
14.64027467997456
 30
0.0
 10
10.83027737134808
 20
14.64027467997456
 30
0.0
 10
10.83027737134808
 20
14.64027467997456
 30
0.0
 10
11.00666626019287
 20
14.64027467997456
 30
0.0
 10
11.07722208487887
 20
14.74610908987378
 30
0.0
 10
11.00666626019287
 20
14.92249797871857
 30
0.0
 10
11.00666626019287
 20
14.92249797871857
 30
0.0
 10
8.113888886860417
 20
19.72026983403904
 30
0.0
 10
8.113888886860417
 20
19.72026983403904
 30
0.0
 10
8.043333062174415
 20
19.89665872288383
 30
0.0
 10
7.902222085672625
 20
19.89665872288383
 30
0.0
 10
7.796389021513835
 20
19.72026983403904
 30
0.0
 10
7.796389021513835
 20
19.72026983403904
 30
0.0
 10
4.938888887654167
 20
14.92249259575688
 30
0.0
 10
4.938888887654167
 20
14.92249259575688
 30
0.0
 10
4.833055487060271
 20
14.74610370691208
 30
0.0
 10
4.903610975311167
 20
14.64026929701287
 30
0.0
 10
5.079999864155958
 20
14.64026929701287
 30
0.0
 10
5.079999864155958
 20
14.64026929701287
 30
0.0
 10
5.750277507192123
 20
14.64026929701287
 30
0.0
 10
5.750277507192123
 20
14.64026929701287
 30
0.0
 10
5.961944308379916
 20
14.64026929701287
 30
0.0
 10
6.032499460195706
 20
14.49915764764087
 30
0.0
 10
5.926666396036915
 20
14.35804599826886
 30
0.0
 10
5.926666396036915
 20
14.35804599826886
 30
0.0
 10
4.056944106995102
 20
11.2183232385354
 30
0.0
 10
4.056944106995102
 20
11.2183232385354
 30
0.0
 10
3.986388618744207
 20
11.0772115891634
 30
0.0
 10
4.056944106995102
 20
10.97137987074503
 30
0.0
 10
4.233332995839894
 20
10.97137987074503
 30
0.0
 10
4.233332995839894
 20
10.97137987074503
 30
0.0
 10
5.079999864155958
 20
10.97137987074503
 30
0.0
 10
5.079999864155958
 20
10.97137987074503
 30
0.0
 10
5.29166666534375
 20
10.97137987074503
 30
0.0
 10
5.362222153594645
 20
10.83026822137303
 30
0.0
 10
5.256388753000749
 20
10.68915657200103
 30
0.0
 10
5.256388753000749
 20
10.68915657200103
 30
0.0
 10
4.162777507588999
 20
8.819433273653896
 30
0.0
 10
4.162777507588999
 20
8.819433273653896
 30
0.0
 10
2.74975090355476
 20
11.05743727937423
 30
0.0
 10
2.003322688237675
 20
13.65158341384397
 30
0.0
 10
2.010833265543604
 20
16.29832646704242
 30
0.0
  0
SPLINE
  5
17E
330
49
100
AcDbEntity
  8
Layer 1
370
     0
100
AcDbSpline
210
0.0
220
0.0
230
1.0
 70
    11
 71
     3
 72
    23
 73
    19
 74
     0
 42
0.0000000001
 43
0.0000000001
 12
1.0
 22
0.0
 32
0.0
 13
1.0
 23
0.0
 33
0.0
 40
0.0
 40
0.0
 40
0.0
 40
0.0
 40
1.0
 40
1.0
 40
1.0
 40
2.0
 40
2.0
 40
2.0
 40
3.0
 40
3.0
 40
3.0
 40
4.0
 40
4.0
 40
4.0
 40
5.0
 40
5.0
 40
5.0
 40
6.0
 40
6.0
 40
6.0
 40
6.0
 10
9.383889021116959
 20
10.23054707589308
 30
0.0
 10
8.974738177069128
 20
10.23054707589308
 30
0.0
 10
8.643055553394792
 20
10.5622290266972
 30
0.0
 10
8.643055553394792
 20
10.97137987074503
 30
0.0
 10
8.64256839536133
 20
11.36104708493527
 30
0.0
 10
8.958061088865628
 20
11.67733107380883
 30
0.0
 10
9.347728303055863
 20
11.67781823184229
 30
0.0
 10
9.359787482994662
 20
11.67783168924653
 30
0.0
 10
9.371844644322824
 20
11.67753831783412
 30
0.0
 10
9.383889021116959
 20
11.6769354261242
 30
0.0
 10
9.783298050235993
 20
11.7656870070821
 30
0.0
 10
10.17903051651686
 20
11.51385052711034
 30
0.0
 10
10.26778209747476
 20
11.11444015225088
 30
0.0
 10
10.35653367843266
 20
10.71502977739142
 30
0.0
 10
10.10469585272048
 20
10.31929865685098
 30
0.0
 10
9.705286823601442
 20
10.23054707589308
 30
0.0
 10
9.599445012129896
 20
10.20702891624455
 30
0.0
 10
9.489730832588505
 20
10.20702891624455
 30
0.0
 10
9.383889021116959
 20
10.23054707589308
 30
0.0
  0
SPLINE
  5
17F
330
49
100
AcDbEntity
  8
Layer 1
370
     0
100
AcDbSpline
210
0.0
220
0.0
230
1.0
 70
    11
 71
     3
 72
    23
 73
    19
 74
     0
 42
0.0000000001
 43
0.0000000001
 12
1.0
 22
0.0
 32
0.0
 13
1.0
 23
0.0
 33
0.0
 40
0.0
 40
0.0
 40
0.0
 40
0.0
 40
1.0
 40
1.0
 40
1.0
 40
2.0
 40
2.0
 40
2.0
 40
3.0
 40
3.0
 40
3.0
 40
4.0
 40
4.0
 40
4.0
 40
5.0
 40
5.0
 40
5.0
 40
6.0
 40
6.0
 40
6.0
 40
6.0
 10
9.701388886463542
 20
9.348602631669118
 30
0.0
 10
9.702276402273121
 20
9.134288086197252
 30
0.0
 10
9.529258593190264
 20
8.959831680601217
 30
0.0
 10
9.314943374848186
 20
8.958943491921426
 30
0.0
 10
9.30262850422884
 20
8.958892353785318
 30
0.0
 10
9.290319016571193
 20
8.95942795847404
 30
0.0
 10
9.278055284087957
 20
8.960547614506746
 30
0.0
 10
9.063738720005455
 20
8.96090558145951
 30
0.0
 10
8.890291619727366
 20
9.134936733081584
 30
0.0
 10
8.890650259550341
 20
9.349253970034297
 30
0.0
 10
8.891008226503105
 20
9.563062517106768
 30
0.0
 10
9.064246064145275
 20
9.736299681878727
 30
0.0
 10
9.278055284087957
 20
9.73665764883149
 30
0.0
 10
9.491485005231093
 20
9.756143970169935
 30
0.0
 10
9.680299788280202
 20
9.598921116442693
 30
0.0
 10
9.699784763878222
 20
9.385489376688922
 30
0.0
 10
9.700904419910929
 20
9.373226989946112
 30
0.0
 10
9.701440024599652
 20
9.360916156548038
 30
0.0
 10
9.701388886463542
 20
9.348602631669118
 30
0.0
  0
SPLINE
  5
180
330
49
100
AcDbEntity
  8
Layer 1
370
     0
100
AcDbSpline
210
0.0
220
0.0
230
1.0
 70
    11
 71
     3
 72
    20
 73
    16
 74
     0
 42
0.0000000001
 43
0.0000000001
 12
1.0
 22
0.0
 32
0.0
 13
1.0
 23
0.0
 33
0.0
 40
0.0
 40
0.0
 40
0.0
 40
0.0
 40
1.0
 40
1.0
 40
1.0
 40
2.0
 40
2.0
 40
2.0
 40
3.0
 40
3.0
 40
3.0
 40
4.0
 40
4.0
 40
4.0
 40
5.0
 40
5.0
 40
5.0
 40
5.0
 10
7.972777910358626
 20
14.0758253910057
 30
0.0
 10
7.563627066310795
 20
14.0758253910057
 30
0.0
 10
7.231944442636459
 20
14.40750734180983
 30
0.0
 10
7.231944442636459
 20
14.81665818585766
 30
0.0
 10
7.231944442636459
 20
15.22580902990549
 30
0.0
 10
7.563627066310795
 20
15.55749098070962
 30
0.0
 10
7.972777910358626
 20
15.55749098070962
 30
0.0
 10
8.381464473960204
 20
15.57697461056721
 30
0.0
 10
8.728565245671456
 20
15.26146307669698
 30
0.0
 10
8.748049548399264
 20
14.85277785883583
 30
0.0
 10
8.748622833819857
 20
14.84074693944593
 30
0.0
 10
8.748902747828033
 20
14.8287025626518
 30
0.0
 10
8.748889290423794
 20
14.81665818585766
 30
0.0
 10
8.730015280978236
 20
14.40186061499104
 30
0.0
 10
8.388004772420482
 20
14.07539475407005
 30
0.0
 10
7.972777910358626
 20
14.0758253910057
 30
0.0
  0
SPLINE
  5
181
330
49
100
AcDbEntity
  8
Layer 1
370
     0
100
AcDbSpline
210
0.0
220
0.0
230
1.0
 70
    11
 71
     3
 72
    23
 73
    19
 74
     0
 42
0.0000000001
 43
0.0000000001
 12
1.0
 22
0.0
 32
0.0
 13
1.0
 23
0.0
 33
0.0
 40
0.0
 40
0.0
 40
0.0
 40
0.0
 40
1.0
 40
1.0
 40
1.0
 40
2.0
 40
2.0
 40
2.0
 40
3.0
 40
3.0
 40
3.0
 40
4.0
 40
4.0
 40
4.0
 40
5.0
 40
5.0
 40
5.0
 40
6.0
 40
6.0
 40
6.0
 40
6.0
 10
8.431388752206999
 20
7.337770375430832
 30
0.0
 10
8.43227626801658
 20
7.123455829958966
 30
0.0
 10
8.25925845893372
 20
6.948999424362932
 30
0.0
 10
8.044943240591643
 20
6.94811123568314
 30
0.0
 10
8.032628369972299
 20
6.948060097547032
 30
0.0
 10
8.02031888231465
 20
6.948595702235754
 30
0.0
 10
8.008055149831415
 20
6.949715358268461
 30
0.0
 10
7.793738585748913
 20
6.950073325221224
 30
0.0
 10
7.620291485470823
 20
7.124104476843298
 30
0.0
 10
7.620650125293799
 20
7.338421713796012
 30
0.0
 10
7.621008092246563
 20
7.552230260868482
 30
0.0
 10
7.794245929888732
 20
7.72546742564044
 30
0.0
 10
8.008055149831415
 20
7.725825392593205
 30
0.0
 10
8.22148487097455
 20
7.745311713931649
 30
0.0
 10
8.41029965402366
 20
7.588088860204407
 30
0.0
 10
8.42978462962168
 20
7.374657120450636
 30
0.0
 10
8.430904285654387
 20
7.362394733707825
 30
0.0
 10
8.431439890343109
 20
7.350083900309753
 30
0.0
 10
8.431388752206999
 20
7.337770375430832
 30
0.0
  0
SPLINE
  5
182
330
49
100
AcDbEntity
  8
Layer 1
370
     0
100
AcDbSpline
210
0.0
220
0.0
230
1.0
 70
    11
 71
     3
 72
    20
 73
    16
 74
     0
 42
0.0000000001
 43
0.0000000001
 12
1.0
 22
0.0
 32
0.0
 13
1.0
 23
0.0
 33
0.0
 40
0.0
 40
0.0
 40
0.0
 40
0.0
 40
1.0
 40
1.0
 40
1.0
 40
2.0
 40
2.0
 40
2.0
 40
3.0
 40
3.0
 40
3.0
 40
4.0
 40
4.0
 40
4.0
 40
5.0
 40
5.0
 40
5.0
 40
5.0
 10
7.51416639564004
 20
17.42721427905675
 30
0.0
 10
7.51416639564004
 20
17.64153151600946
 30
0.0
 10
7.687904848719911
 20
17.81526929621912
 30
0.0
 10
7.902222085672625
 20
17.81526929621912
 30
0.0
 10
8.116538649755126
 20
17.81562726317188
 30
0.0
 10
8.290568455636777
 20
17.64218016289379
 30
0.0
 10
8.290927095459752
 20
17.42786561742193
 30
0.0
 10
8.29128640815294
 20
17.21354838046921
 30
0.0
 10
8.117839307874851
 20
17.03951722884714
 30
0.0
 10
7.903522070922137
 20
17.03915926189437
 30
0.0
 10
7.903088742505632
 20
17.03915926189437
 30
0.0
 10
7.902655414089129
 20
17.03915926189437
 30
0.0
 10
7.902222085672625
 20
17.03915926189437
 30
0.0
 10
7.687904848719911
 20
17.03915926189437
 30
0.0
 10
7.51416639564004
 20
17.21289704210403
 30
0.0
 10
7.51416639564004
 20
17.42721427905675
 30
0.0
  0
SPLINE
  5
183
330
49
100
AcDbEntity
  8
Layer 1
370
     0
100
AcDbSpline
210
0.0
220
0.0
230
1.0
 70
    11
 71
     3
 72
    20
 73
    16
 74
     0
 42
0.0000000001
 43
0.0000000001
 12
1.0
 22
0.0
 32
0.0
 13
1.0
 23
0.0
 33
0.0
 40
0.0
 40
0.0
 40
0.0
 40
0.0
 40
1.0
 40
1.0
 40
1.0
 40
2.0
 40
2.0
 40
2.0
 40
3.0
 40
3.0
 40
3.0
 40
4.0
 40
4.0
 40
4.0
 40
5.0
 40
5.0
 40
5.0
 40
5.0
 10
9.348611108773959
 20
13.44082431457212
 30
0.0
 10
9.562928345726673
 20
13.44082431457212
 30
0.0
 10
9.736666798806542
 20
13.26708653436246
 30
0.0
 10
9.736666798806542
 20
13.05276929740974
 30
0.0
 10
9.73743387084818
 20
12.83208132529017
 30
0.0
 10
9.568534027462535
 20
12.6478252379271
 30
0.0
 10
9.348611108773959
 20
12.62943704077458
 30
0.0
 10
9.11481091483386
 20
12.62943704077458
 30
0.0
 10
8.925278179268586
 20
12.81896843059943
 30
0.0
 10
8.925277506398373
 20
13.05276929740974
 30
0.0
 10
8.924389990588795
 20
13.26708384288161
 30
0.0
 10
9.097407799671652
 20
13.44154024847764
 30
0.0
 10
9.311723018013732
 20
13.44242843715744
 30
0.0
 10
9.324037888633075
 20
13.44247957529354
 30
0.0
 10
9.336347376290723
 20
13.44194397060482
 30
0.0
 10
9.348611108773959
 20
13.44082431457212
 30
0.0
  0
SPLINE
  5
184
330
49
100
AcDbEntity
  8
Layer 1
370
     0
100
AcDbSpline
210
0.0
220
0.0
230
1.0
 70
    11
 71
     3
 72
    20
 73
    16
 74
     0
 42
0.0000000001
 43
0.0000000001
 12
1.0
 22
0.0
 32
0.0
 13
1.0
 23
0.0
 33
0.0
 40
0.0
 40
0.0
 40
0.0
 40
0.0
 40
1.0
 40
1.0
 40
1.0
 40
2.0
 40
2.0
 40
2.0
 40
3.0
 40
3.0
 40
3.0
 40
4.0
 40
4.0
 40
4.0
 40
5.0
 40
5.0
 40
5.0
 40
5.0
 10
9.136944307586166
 20
15.7691571090272
 30
0.0
 10
9.136804350582079
 20
16.00295797583751
 30
0.0
 10
9.326224043951742
 20
16.19260240785797
 30
0.0
 10
9.560024237891842
 20
16.19274236486206
 30
0.0
 10
9.793825104702151
 20
16.19288232186614
 30
0.0
 10
9.983470882463036
 20
16.0034639742369
 30
0.0
 10
9.983610839467124
 20
15.76966310742659
 30
0.0
 10
9.983610839467124
 20
15.76949354413318
 30
0.0
 10
9.983610839467124
 20
15.76932667232061
 30
0.0
 10
9.983610839467124
 20
15.7691571090272
 30
0.0
 10
9.983470882463036
 20
15.53535624221688
 30
0.0
 10
9.793825104702151
 20
15.34593789458764
 30
0.0
 10
9.560024237891842
 20
15.34607785159173
 30
0.0
 10
9.326421867794059
 20
15.34621780859582
 30
0.0
 10
9.137084264590255
 20
15.53555541179963
 30
0.0
 10
9.136944307586166
 20
15.7691571090272
 30
0.0
  0
SPLINE
  5
185
330
49
100
AcDbEntity
  8
Layer 1
370
     0
100
AcDbSpline
210
0.0
220
0.0
230
1.0
 70
    11
 71
     3
 72
    23
 73
    19
 74
     0
 42
0.0000000001
 43
0.0000000001
 12
1.0
 22
0.0
 32
0.0
 13
1.0
 23
0.0
 33
0.0
 40
0.0
 40
0.0
 40
0.0
 40
0.0
 40
1.0
 40
1.0
 40
1.0
 40
2.0
 40
2.0
 40
2.0
 40
3.0
 40
3.0
 40
3.0
 40
4.0
 40
4.0
 40
4.0
 40
5.0
 40
5.0
 40
5.0
 40
6.0
 40
6.0
 40
6.0
 40
6.0
 10
10.61861057016029
 20
8.537212666390737
 30
0.0
 10
11.02729713376187
 20
8.556696296248333
 30
0.0
 10
11.37439857834333
 20
8.2411847623781
 30
0.0
 10
11.39388220820093
 20
7.832499544516948
 30
0.0
 10
11.39445549362152
 20
7.820468625127052
 30
0.0
 10
11.3947354076297
 20
7.808424248332917
 30
0.0
 10
11.39472195022546
 20
7.796379871538782
 30
0.0
 10
11.3758479407799
 20
7.381582300672158
 30
0.0
 10
11.03383743222215
 20
7.055116439751171
 30
0.0
 10
10.61861057016029
 20
7.055547076686826
 30
0.0
 10
10.20945972611246
 20
7.055547076686826
 30
0.0
 10
9.877777102438122
 20
7.38722902749095
 30
0.0
 10
9.877777102438122
 20
7.796379871538782
 30
0.0
 10
9.877775756697698
 20
8.205530715586614
 30
0.0
 10
10.20945703463161
 20
8.537215357871585
 30
0.0
 10
10.61860787867944
 20
8.537215357871585
 30
0.0
 10
10.61860922441987
 20
8.537215357871585
 30
0.0
 10
10.61860989729008
 20
8.537215357871585
 30
0.0
 10
10.61861057016029
 20
8.537212666390737
 30
0.0
  0
SPLINE
  5
186
330
49
100
AcDbEntity
  8
Layer 1
370
     0
100
AcDbSpline
210
0.0
220
0.0
230
1.0
 70
    11
 71
     3
 72
    17
 73
    13
 74
     0
 42
0.0000000001
 43
0.0000000001
 12
1.0
 22
0.0
 32
0.0
 13
1.0
 23
0.0
 33
0.0
 40
0.0
 40
0.0
 40
0.0
 40
0.0
 40
1.0
 40
1.0
 40
1.0
 40
2.0
 40
2.0
 40
2.0
 40
3.0
 40
3.0
 40
3.0
 40
4.0
 40
4.0
 40
4.0
 40
4.0
 10
4.44499946059258
 20
8.360823777545946
 30
0.0
 10
4.44499946059258
 20
8.360823777545946
 30
0.0
 10
4.797777238282164
 20
8.431378256491524
 30
0.0
 10
4.797777238282164
 20
8.431378256491524
 30
0.0
 10
5.20688501863643
 20
8.437326429165275
 30
0.0
 10
5.543354440998669
 20
8.110502601291524
 30
0.0
 10
5.549302950107527
 20
7.701394820937256
 30
0.0
 10
5.552252813116772
 20
7.498535217953846
 30
0.0
 10
5.471879475603127
 20
7.303343643905965
 30
0.0
 10
5.326943904816539
 20
7.161378795105192
 30
0.0
 10
5.009444375905062
 20
7.549436503748413
 30
0.0
 10
4.727222086466375
 20
7.937491520910784
 30
0.0
 10
4.44499946059258
 20
8.360823777545946
 30
0.0
  0
SPLINE
  5
187
330
49
100
AcDbEntity
  8
Layer 1
370
     0
100
AcDbSpline
210
0.0
220
0.0
230
1.0
 70
    11
 71
     3
 72
    23
 73
    19
 74
     0
 42
0.0000000001
 43
0.0000000001
 12
1.0
 22
0.0
 32
0.0
 13
1.0
 23
0.0
 33
0.0
 40
0.0
 40
0.0
 40
0.0
 40
0.0
 40
1.0
 40
1.0
 40
1.0
 40
2.0
 40
2.0
 40
2.0
 40
3.0
 40
3.0
 40
3.0
 40
4.0
 40
4.0
 40
4.0
 40
5.0
 40
5.0
 40
5.0
 40
6.0
 40
6.0
 40
6.0
 40
6.0
 10
5.891388483693914
 20
9.595545999459487
 30
0.0
 10
5.890500967884336
 20
9.809860544931354
 30
0.0
 10
6.063518776967194
 20
9.984316950527388
 30
0.0
 10
6.277833995309272
 20
9.98520513920718
 30
0.0
 10
6.290148865928616
 20
9.985256277343288
 30
0.0
 10
6.302458353586265
 20
9.984720672654566
 30
0.0
 10
6.3147220860695
 20
9.98360101662186
 30
0.0
 10
6.529038650152001
 20
9.983243049669095
 30
0.0
 10
6.702485750430092
 20
9.809211898047021
 30
0.0
 10
6.702127110607115
 20
9.594894661094306
 30
0.0
 10
6.701769143654351
 20
9.381086114021837
 30
0.0
 10
6.528531306012182
 20
9.207848949249879
 30
0.0
 10
6.3147220860695
 20
9.207490982297115
 30
0.0
 10
6.101292364926365
 20
9.18800466095867
 30
0.0
 10
5.912478254747467
 20
9.345230206166761
 30
0.0
 10
5.892993279149446
 20
9.558659254439684
 30
0.0
 10
5.891872950246528
 20
9.570921641182494
 30
0.0
 10
5.891338018428018
 20
9.583232474580567
 30
0.0
 10
5.891388483693914
 20
9.595545999459487
 30
0.0
  0
SPLINE
  5
188
330
49
100
AcDbEntity
  8
Layer 1
370
     0
100
AcDbSpline
210
0.0
220
0.0
230
1.0
 70
    11
 71
     3
 72
    26
 73
    22
 74
     0
 42
0.0000000001
 43
0.0000000001
 12
1.0
 22
0.0
 32
0.0
 13
1.0
 23
0.0
 33
0.0
 40
0.0
 40
0.0
 40
0.0
 40
0.0
 40
1.0
 40
1.0
 40
1.0
 40
2.0
 40
2.0
 40
2.0
 40
3.0
 40
3.0
 40
3.0
 40
4.0
 40
4.0
 40
4.0
 40
5.0
 40
5.0
 40
5.0
 40
6.0
 40
6.0
 40
6.0
 40
7.0
 40
7.0
 40
7.0
 40
7.0
 10
6.455833062571291
 20
11.2183232385354
 30
0.0
 10
6.046682218523459
 20
11.2183232385354
 30
0.0
 10
5.715000267719335
 20
11.55000518933952
 30
0.0
 10
5.715000267719335
 20
11.95915603338736
 30
0.0
 10
5.715000267719335
 20
11.9591587248682
 30
0.0
 10
5.715000267719335
 20
11.9591587248682
 30
0.0
 10
5.715000267719335
 20
11.9591587248682
 30
0.0
 10
5.714513109685874
 20
12.34882593905844
 30
0.0
 10
6.030005803190171
 20
12.66510992793201
 30
0.0
 10
6.419673017380407
 20
12.66559708596547
 30
0.0
 10
6.431732197319205
 20
12.66561054336971
 30
0.0
 10
6.443789358647368
 20
12.66531717195729
 30
0.0
 10
6.455833735441503
 20
12.66471428024737
 30
0.0
 10
6.855242764560536
 20
12.75346586120527
 30
0.0
 10
7.250975230841404
 20
12.50162938123351
 30
0.0
 10
7.339726811799305
 20
12.10221900637405
 30
0.0
 10
7.428478392757206
 20
11.70280863151459
 30
0.0
 10
7.17664056704502
 20
11.30707751097415
 30
0.0
 10
6.777231537925986
 20
11.21832593001625
 30
0.0
 10
6.67138972645444
 20
11.19480777036772
 30
0.0
 10
6.561675546913048
 20
11.19480777036772
 30
0.0
 10
6.455833062571291
 20
11.2183232385354
 30
0.0
  0
SPLINE
  5
189
330
49
100
AcDbEntity
  8
Layer 1
370
     0
100
AcDbSpline
210
0.0
220
0.0
230
1.0
 70
    11
 71
     3
 72
    23
 73
    19
 74
     0
 42
0.0000000001
 43
0.0000000001
 12
1.0
 22
0.0
 32
0.0
 13
1.0
 23
0.0
 33
0.0
 40
0.0
 40
0.0
 40
0.0
 40
0.0
 40
1.0
 40
1.0
 40
1.0
 40
2.0
 40
2.0
 40
2.0
 40
3.0
 40
3.0
 40
3.0
 40
4.0
 40
4.0
 40
4.0
 40
5.0
 40
5.0
 40
5.0
 40
6.0
 40
6.0
 40
6.0
 40
6.0
 10
6.244166261383498
 20
15.09887879312082
 30
0.0
 10
6.029849697300996
 20
15.09852082616805
 30
0.0
 10
5.855819891419346
 20
15.27196792644614
 30
0.0
 10
5.85546125159637
 20
15.48628247191801
 30
0.0
 10
5.855101938903181
 20
15.70059970887072
 30
0.0
 10
6.028549039181271
 20
15.8746308604928
 30
0.0
 10
6.242866276133986
 20
15.87498882744556
 30
0.0
 10
6.24329960455049
 20
15.87498882744556
 30
0.0
 10
6.243732932966994
 20
15.87498882744556
 30
0.0
 10
6.244166261383498
 20
15.87498882744556
 30
0.0
 10
6.458482825466
 20
15.87534679439833
 30
0.0
 10
6.63251263134765
 20
15.70189969412024
 30
0.0
 10
6.632871271170626
 20
15.48758514864837
 30
0.0
 10
6.633230583863814
 20
15.27326791169566
 30
0.0
 10
6.459783483585724
 20
15.09923676007358
 30
0.0
 10
6.24546624663301
 20
15.09887879312082
 30
0.0
 10
6.245032918216507
 20
15.09887879312082
 30
0.0
 10
6.244599589800003
 20
15.09887879312082
 30
0.0
 10
6.244166261383498
 20
15.09887879312082
 30
0.0
  0
SPLINE
  5
18A
330
49
100
AcDbEntity
  8
Layer 1
370
     0
100
AcDbSpline
210
0.0
220
0.0
230
1.0
 70
    11
 71
     3
 72
    23
 73
    19
 74
     0
 42
0.0000000001
 43
0.0000000001
 12
1.0
 22
0.0
 32
0.0
 13
1.0
 23
0.0
 33
0.0
 40
0.0
 40
0.0
 40
0.0
 40
0.0
 40
1.0
 40
1.0
 40
1.0
 40
2.0
 40
2.0
 40
2.0
 40
3.0
 40
3.0
 40
3.0
 40
4.0
 40
4.0
 40
4.0
 40
5.0
 40
5.0
 40
5.0
 40
6.0
 40
6.0
 40
6.0
 40
6.0
 10
6.349999325542289
 20
6.067768222563654
 30
0.0
 10
6.349999325542289
 20
6.067768222563654
 30
0.0
 10
6.103054612011495
 20
6.314711590354023
 30
0.0
 10
6.103054612011495
 20
6.314711590354023
 30
0.0
 10
6.103054612011495
 20
6.314711590354023
 30
0.0
 10
11.81805555260104
 20
6.314711590354023
 30
0.0
 10
11.81805555260104
 20
6.314711590354023
 30
0.0
 10
11.95916720197305
 20
4.480268222960529
 30
0.0
 10
13.51138861636296
 20
2.892768223357404
 30
0.0
 10
15.20472168012487
 20
2.046101018606234
 30
0.0
 10
13.25688891609225
 20
2.208599174795264
 30
0.0
 10
11.36148889045661
 20
2.760422727106853
 30
0.0
 10
9.63083306177754
 20
3.668878257682148
 30
0.0
 10
9.63083306177754
 20
3.668878257682148
 30
0.0
 10
9.63083306177754
 20
6.067768222563654
 30
0.0
 10
9.63083306177754
 20
6.067768222563654
 30
0.0
 10
9.63083306177754
 20
6.067768222563654
 30
0.0
 10
6.349999325542289
 20
6.067768222563654
 30
0.0
 10
6.349999325542289
 20
6.067768222563654
 30
0.0
  0
SPLINE
  5
18B
330
49
100
AcDbEntity
  8
Layer 1
370
     0
100
AcDbSpline
210
0.0
220
0.0
230
1.0
 70
    11
 71
     3
 72
   284
 73
   280
 74
     0
 42
0.0000000001
 43
0.0000000001
 12
1.0
 22
0.0
 32
0.0
 13
1.0
 23
0.0
 33
0.0
 40
0.0
 40
0.0
 40
0.0
 40
0.0
 40
1.0
 40
1.0
 40
1.0
 40
2.0
 40
2.0
 40
2.0
 40
3.0
 40
3.0
 40
3.0
 40
4.0
 40
4.0
 40
4.0
 40
5.0
 40
5.0
 40
5.0
 40
6.0
 40
6.0
 40
6.0
 40
7.0
 40
7.0
 40
7.0
 40
8.0
 40
8.0
 40
8.0
 40
9.0
 40
9.0
 40
9.0
 40
10.0
 40
10.0
 40
10.0
 40
11.0
 40
11.0
 40
11.0
 40
12.0
 40
12.0
 40
12.0
 40
13.0
 40
13.0
 40
13.0
 40
14.0
 40
14.0
 40
14.0
 40
15.0
 40
15.0
 40
15.0
 40
16.0
 40
16.0
 40
16.0
 40
17.0
 40
17.0
 40
17.0
 40
18.0
 40
18.0
 40
18.0
 40
19.0
 40
19.0
 40
19.0
 40
20.0
 40
20.0
 40
20.0
 40
21.0
 40
21.0
 40
21.0
 40
22.0
 40
22.0
 40
22.0
 40
23.0
 40
23.0
 40
23.0
 40
24.0
 40
24.0
 40
24.0
 40
25.0
 40
25.0
 40
25.0
 40
26.0
 40
26.0
 40
26.0
 40
27.0
 40
27.0
 40
27.0
 40
28.0
 40
28.0
 40
28.0
 40
29.0
 40
29.0
 40
29.0
 40
30.0
 40
30.0
 40
30.0
 40
31.0
 40
31.0
 40
31.0
 40
32.0
 40
32.0
 40
32.0
 40
33.0
 40
33.0
 40
33.0
 40
34.0
 40
34.0
 40
34.0
 40
35.0
 40
35.0
 40
35.0
 40
36.0
 40
36.0
 40
36.0
 40
37.0
 40
37.0
 40
37.0
 40
38.0
 40
38.0
 40
38.0
 40
39.0
 40
39.0
 40
39.0
 40
40.0
 40
40.0
 40
40.0
 40
41.0
 40
41.0
 40
41.0
 40
42.0
 40
42.0
 40
42.0
 40
43.0
 40
43.0
 40
43.0
 40
44.0
 40
44.0
 40
44.0
 40
45.0
 40
45.0
 40
45.0
 40
46.0
 40
46.0
 40
46.0
 40
47.0
 40
47.0
 40
47.0
 40
48.0
 40
48.0
 40
48.0
 40
49.0
 40
49.0
 40
49.0
 40
50.0
 40
50.0
 40
50.0
 40
51.0
 40
51.0
 40
51.0
 40
52.0
 40
52.0
 40
52.0
 40
53.0
 40
53.0
 40
53.0
 40
54.0
 40
54.0
 40
54.0
 40
55.0
 40
55.0
 40
55.0
 40
56.0
 40
56.0
 40
56.0
 40
57.0
 40
57.0
 40
57.0
 40
58.0
 40
58.0
 40
58.0
 40
59.0
 40
59.0
 40
59.0
 40
60.0
 40
60.0
 40
60.0
 40
61.0
 40
61.0
 40
61.0
 40
62.0
 40
62.0
 40
62.0
 40
63.0
 40
63.0
 40
63.0
 40
64.0
 40
64.0
 40
64.0
 40
65.0
 40
65.0
 40
65.0
 40
66.0
 40
66.0
 40
66.0
 40
67.0
 40
67.0
 40
67.0
 40
68.0
 40
68.0
 40
68.0
 40
69.0
 40
69.0
 40
69.0
 40
70.0
 40
70.0
 40
70.0
 40
71.0
 40
71.0
 40
71.0
 40
72.0
 40
72.0
 40
72.0
 40
73.0
 40
73.0
 40
73.0
 40
74.0
 40
74.0
 40
74.0
 40
75.0
 40
75.0
 40
75.0
 40
76.0
 40
76.0
 40
76.0
 40
77.0
 40
77.0
 40
77.0
 40
78.0
 40
78.0
 40
78.0
 40
79.0
 40
79.0
 40
79.0
 40
80.0
 40
80.0
 40
80.0
 40
81.0
 40
81.0
 40
81.0
 40
82.0
 40
82.0
 40
82.0
 40
83.0
 40
83.0
 40
83.0
 40
84.0
 40
84.0
 40
84.0
 40
85.0
 40
85.0
 40
85.0
 40
86.0
 40
86.0
 40
86.0
 40
87.0
 40
87.0
 40
87.0
 40
88.0
 40
88.0
 40
88.0
 40
89.0
 40
89.0
 40
89.0
 40
90.0
 40
90.0
 40
90.0
 40
91.0
 40
91.0
 40
91.0
 40
92.0
 40
92.0
 40
92.0
 40
93.0
 40
93.0
 40
93.0
 40
93.0
 10
26.17611002797474
 20
5.96193381266444
 30
0.0
 10
21.83694363154095
 20
10.05415549556744
 30
0.0
 10
21.83694363154095
 20
10.08943273504023
 30
0.0
 10
21.94277669569975
 20
10.54804492262902
 30
0.0
 10
22.04860975985854
 20
11.00665711021782
 30
0.0
 10
22.04860975985854
 20
11.50054384579856
 30
0.0
 10
22.04860975985854
 20
11.50054384579856
 30
0.0
 10
22.43220095603474
 20
11.75356457734338
 30
0.0
 10
22.84731343016057
 20
11.95519148209847
 30
0.0
 10
23.2833333275125
 20
12.10027037424021
 30
0.0
 10
23.2833333275125
 20
12.10027037424021
 30
0.0
 10
23.38916773741171
 20
12.17082485318578
 30
0.0
 10
24.80027884817005
 20
11.14777145107067
 30
0.0
 10
24.80027884817005
 20
11.14777145107067
 30
0.0
 10
25.22361110480521
 20
12.276659263085
 30
0.0
 10
25.22361110480521
 20
12.276659263085
 30
0.0
 10
23.84777723351966
 20
12.38249367298421
 30
0.0
 10
23.95361164341888
 20
12.45304815192979
 30
0.0
 10
23.95361164341888
 20
12.45304815192979
 30
0.0
 10
24.62388995932526
 20
12.80582592961937
 30
0.0
 10
25.18833386533242
 20
13.19388094678175
 30
0.0
 10
24.90611056658841
 20
13.44082700605296
 30
0.0
 10
24.62388726784441
 20
13.68777306532418
 30
0.0
 10
24.58861002837162
 20
13.75832754426976
 30
0.0
 10
23.77722275457409
 20
13.40554976658017
 30
0.0
 10
23.77722275457409
 20
13.40554976658017
 30
0.0
 10
23.03638995972213
 20
12.98221750994501
 30
0.0
 10
23.03638995972213
 20
12.98221750994501
 30
0.0
 10
22.89527831035013
 20
14.18166249238577
 30
0.0
 10
22.33083440434297
 20
14.04055084301376
 30
0.0
 10
22.33083440434297
 20
14.04055084301376
 30
0.0
 10
21.7663904983358
 20
13.86416195416897
 30
0.0
 10
22.68361218203255
 20
12.80582862110022
 30
0.0
 10
22.61305770308697
 20
12.77055138162743
 30
0.0
 10
22.61305770308697
 20
12.77055138162743
 30
0.0
 10
22.01333521186659
 20
12.41777360393785
 30
0.0
 10
22.01333521186659
 20
12.41777360393785
 30
0.0
 10
21.98045069886755
 20
12.62074894059772
 30
0.0
 10
21.93329595441319
 20
12.82115122156704
 30
0.0
 10
21.87222221675417
 20
13.01749205793695
 30
0.0
 10
21.63517407830092
 20
13.42439551547683
 30
0.0
 10
21.32408061024244
 20
13.78335024171223
 30
0.0
 10
20.95500053305742
 20
14.0758253910057
 30
0.0
 10
21.76638915259538
 20
15.09888148460167
 30
0.0
 10
21.73111191312259
 20
16.01610316829841
 30
0.0
 10
20.95500053305742
 20
16.82749313357679
 30
0.0
 10
20.95500053305742
 20
16.82749313357679
 30
0.0
 10
20.91972329358463
 20
17.03915926189437
 30
0.0
 10
22.08388969081217
 20
16.651104244732
 30
0.0
 10
22.08388969081217
 20
16.651104244732
 30
0.0
 10
22.08388969081217
 20
17.95638094559112
 30
0.0
 10
22.08388969081217
 20
17.95638094559112
 30
0.0
 10
20.46111245173626
 20
17.77999205674633
 30
0.0
 10
20.42583386652305
 20
17.95638094559112
 30
0.0
 10
20.42583386652305
 20
17.95638094559112
 30
0.0
 10
21.06083359721621
 20
19.15582592803187
 30
0.0
 10
21.48416719959179
 20
19.89665872288383
 30
0.0
 10
21.34305555021979
 20
20.2847137400462
 30
0.0
 10
21.20194390084779
 20
20.67276875720857
 30
0.0
 10
21.166666661375
 20
20.743325927635
 30
0.0
 10
20.24944497767826
 20
20.70804599668136
 30
0.0
 10
20.24944497767826
 20
20.70804599668136
 30
0.0
 10
20.03777884936067
 20
20.70804599668136
 30
0.0
 10
20.03777884936067
 20
20.70804599668136
 30
0.0
 10
20.20733810555404
 20
20.75466782792785
 30
0.0
 10
20.36413166808605
 20
20.83909419916325
 30
0.0
 10
20.49638969120905
 20
20.95498936447173
 30
0.0
 10
20.72250368871789
 20
21.11319191722759
 30
0.0
 10
20.92450874653211
 20
21.30331274135812
 30
0.0
 10
21.09611218242942
 20
21.5194332704789
 30
0.0
 10
21.09611218242942
 20
21.5194332704789
 30
0.0
 10
21.16666800711543
 20
21.58998774942447
 30
0.0
 10
21.16666800711543
 20
21.58998774942447
 30
0.0
 10
21.16154208184069
 20
21.34935590422232
 30
0.0
 10
21.23594268691785
 20
21.11375712820564
 30
0.0
 10
21.378334135433
 20
20.9197094335181
 30
0.0
 10
21.53030187280482
 20
20.74110007297383
 30
0.0
 10
21.74491113542952
 20
20.62748459194347
 30
0.0
 10
21.97805662665338
 20
20.6022088953013
 30
0.0
 10
21.97805662665338
 20
20.6022088953013
 30
0.0
 10
22.47194605371497
 20
20.67276337424688
 30
0.0
 10
22.47194605371497
 20
20.67276337424688
 30
0.0
 10
22.47194605371497
 20
20.67276337424688
 30
0.0
 10
22.89527831035013
 20
20.88442950256446
 30
0.0
 10
22.89527831035013
 20
20.88442950256446
 30
0.0
 10
23.11244582552072
 20
21.05489175058228
 30
0.0
 10
23.30272544702127
 20
21.25706502594949
 30
0.0
 10
23.45972221635729
 20
21.48415872248696
 30
0.0
 10
23.44966415242887
 20
21.26434009868123
 30
0.0
 10
23.52558006122337
 20
21.04924233228264
 30
0.0
 10
23.67138834467487
 20
20.884437577007
 30
0.0
 10
23.82200361292064
 20
20.70927869490968
 30
0.0
 10
24.0401427526773
 20
20.60662561537263
 30
0.0
 10
24.27110949015482
 20
20.60221427826299
 30
0.0
 10
24.6862246557615
 20
20.6174238365342
 30
0.0
 10
25.07883904148013
 20
20.79473590330981
 30
0.0
 10
25.36472006269636
 20
21.09610370532458
 30
0.0
 10
25.36472006269636
 20
21.09610370532458
 30
0.0
 10
25.18833117385157
 20
20.70804868816221
 30
0.0
 10
25.18833117385157
 20
20.70804868816221
 30
0.0
 10
25.18833117385157
 20
20.70804868816221
 30
0.0
 10
24.87083063563478
 20
20.10832754268226
 30
0.0
 10
24.87083063563478
 20
20.10832754268226
 30
0.0
 10
24.87083063563478
 20
20.10832754268226
 30
0.0
 10
24.30638672962762
 20
19.96721589331025
 30
0.0
 10
24.30638672962762
 20
19.96721589331025
 30
0.0
 10
24.30638672962762
 20
19.96721589331025
 30
0.0
 10
23.49499676434924
 20
19.82610424393825
 30
0.0
 10
23.49499676434924
 20
19.82610424393825
 30
0.0
 10
23.49499676434924
 20
19.82610424393825
 30
0.0
 10
22.89527561886928
 20
19.68499259456625
 30
0.0
 10
22.89527561886928
 20
19.68499259456625
 30
0.0
 10
22.89527561886928
 20
19.68499259456625
 30
0.0
 10
22.4013861918077
 20
19.47332646624867
 30
0.0
 10
22.4013861918077
 20
19.47332646624867
 30
0.0
 10
22.30118235984219
 20
19.39654659210201
 30
0.0
 10
22.21724045515939
 20
19.3006114487612
 30
0.0
 10
22.1544414782769
 20
19.19110316750466
 30
0.0
 10
22.08278214644328
 20
19.06166447056979
 30
0.0
 10
22.04629239484854
 20
18.91570546419081
 30
0.0
 10
22.04860841411811
 20
18.7677709108695
 30
0.0
 10
22.03717096625517
 20
18.47782844505386
 30
0.0
 10
22.16908313408921
 20
18.20081316175045
 30
0.0
 10
22.4013861918077
 20
18.02693811601755
 30
0.0
 10
22.6539278397616
 20
17.83378668445233
 30
0.0
 10
22.96557171565346
 20
17.7340592445969
 30
0.0
 10
23.28333063603165
 20
17.74471481727354
 30
0.0
 10
23.48371676811589
 20
17.71985899164363
 30
0.0
 10
23.68696125286054
 20
17.73181185808894
 30
0.0
 10
23.88305178151161
 20
17.77999205674633
 30
0.0
 10
24.08064415647577
 20
17.83876592402086
 30
0.0
 10
24.27022668443673
 20
17.92170659782825
 30
0.0
 10
24.44749568751877
 20
18.0269354245367
 30
0.0
 10
24.6292298573274
 20
18.1602848431435
 30
0.0
 10
24.79495779053385
 20
18.3141756435811
 30
0.0
 10
24.94138511458036
 20
18.4855476121255
 30
0.0
 10
24.94138511458036
 20
18.4855476121255
 30
0.0
 10
24.97666235405314
 20
18.4855476121255
 30
0.0
 10
24.97666235405314
 20
18.4855476121255
 30
0.0
 10
25.07513018087179
 20
18.49584790933022
 30
0.0
 10
25.16474034422016
 20
18.5470533324606
 30
0.0
 10
25.22360572184351
 20
18.6266592614975
 30
0.0
 10
25.22360572184351
 20
18.6266592614975
 30
0.0
 10
26.38777346481148
 20
18.6266592614975
 30
0.0
 10
26.38777346481148
 20
18.6266592614975
 30
0.0
 10
26.38777346481148
 20
18.6266592614975
 30
0.0
 10
25.47055178111473
 20
17.88582646664554
 30
0.0
 10
25.47055178111473
 20
17.88582646664554
 30
0.0
 10
25.39999730216915
 20
17.85054922717276
 30
0.0
 10
25.39999730216915
 20
17.81527198769997
 30
0.0
 10
25.43527454164194
 20
17.74471481727354
 30
0.0
 10
25.43527454164194
 20
17.74471481727354
 30
0.0
 10
25.43527454164194
 20
17.74471481727354
 30
0.0
 10
25.43527454164194
 20
17.74471481727354
 30
0.0
 10
25.43527454164194
 20
17.67416033832796
 30
0.0
 10
25.50582902058752
 20
17.63888040737433
 30
0.0
 10
25.54110895154115
 20
17.67416033832796
 30
0.0
 10
25.54110895154115
 20
17.67416033832796
 30
0.0
 10
26.74055393398191
 20
17.77999474822718
 30
0.0
 10
26.74055393398191
 20
17.77999474822718
 30
0.0
 10
26.74055393398191
 20
17.77999474822718
 30
0.0
 10
25.89388672923074
 20
16.9686047829488
 30
0.0
 10
25.89388672923074
 20
16.9686047829488
 30
0.0
 10
25.89388672923074
 20
16.9686047829488
 30
0.0
 10
25.89388672923074
 20
16.9686047829488
 30
0.0
 10
25.89388672923074
 20
16.9686047829488
 30
0.0
 10
25.79393858794578
 20
16.99210410223139
 30
0.0
 10
25.68879588862446
 20
16.96581910027127
 30
0.0
 10
25.61166343048673
 20
16.89805030400322
 30
0.0
 10
25.50862816066929
 20
16.7892175844395
 30
0.0
 10
25.50862816066929
 20
16.61882800640457
 30
0.0
 10
25.61166343048673
 20
16.50999528684085
 30
0.0
 10
25.73218525137267
 20
16.4021960959227
 30
0.0
 10
25.91447386623596
 20
16.4021960959227
 30
0.0
 10
26.0349956871219
 20
16.50999528684085
 30
0.0
 10
26.09676248109924
 20
16.59083391410606
 30
0.0
 10
26.11024141718528
 20
16.69866271131354
 30
0.0
 10
26.07027292659468
 20
16.79221858558485
 30
0.0
 10
26.07027292659468
 20
16.79221858558485
 30
0.0
 10
26.91694551430755
 20
17.60360316790154
 30
0.0
 10
26.91694551430755
 20
17.60360316790154
 30
0.0
 10
26.91694551430755
 20
17.60360316790154
 30
0.0
 10
26.77583386493555
 20
16.43943542493357
 30
0.0
 10
26.77583386493555
 20
16.43943542493357
 30
0.0
 10
26.77583386493555
 20
16.368880945988
 30
0.0
 10
26.81111110440833
 20
16.33360101503436
 30
0.0
 10
26.88166827483476
 20
16.29832377556157
 30
0.0
 10
26.88166827483476
 20
16.29832377556157
 30
0.0
 10
26.88166827483476
 20
16.29832377556157
 30
0.0
 10
26.88166827483476
 20
16.29832377556157
 30
0.0
 10
26.91694551430755
 20
16.26304653608878
 30
0.0
 10
26.98750268473398
 20
16.29832377556157
 30
0.0
 10
27.02277992420676
 20
16.33360101503436
 30
0.0
 10
27.02277992420676
 20
16.33360101503436
 30
0.0
 10
27.76361002757787
 20
17.25082539021195
 30
0.0
 10
27.76361002757787
 20
17.25082539021195
 30
0.0
 10
27.76361002757787
 20
17.25082539021195
 30
0.0
 10
27.76361002757787
 20
16.08665764724399
 30
0.0
 10
27.76361002757787
 20
16.08665764724399
 30
0.0
 10
27.6755017105426
 20
16.03579404218129
 30
0.0
 10
27.62158865767929
 20
15.94144687254071
 30
0.0
 10
27.62249837820587
 20
15.83971427945362
 30
0.0
 10
27.62249837820587
 20
15.6838479320737
 30
0.0
 10
27.7488526380891
 20
15.55749098070962
 30
0.0
 10
27.90471898546902
 20
15.55749098070962
 30
0.0
 10
27.90471898546902
 20
15.55749098070962
 30
0.0
 10
27.90472167694987
 20
15.55749098070962
 30
0.0
 10
27.90472167694987
 20
15.55749098070962
 30
0.0
 10
28.05355787635521
 20
15.57328459032481
 30
0.0
 10
28.17115136607869
 20
15.69087808004828
 30
0.0
 10
28.18694497569388
 20
15.83971427945362
 30
0.0
 10
28.18117174927524
 20
15.94932483698237
 30
0.0
 10
28.11237211584246
 20
16.04564755356528
 30
0.0
 10
28.01055608684909
 20
16.08665764724399
 30
0.0
 10
28.01055608684909
 20
16.08665764724399
 30
0.0
 10
28.01055608684909
 20
17.25082539021195
 30
0.0
 10
28.01055608684909
 20
17.25082539021195
 30
0.0
 10
28.01055608684909
 20
17.25082539021195
 30
0.0
 10
28.75138888170104
 20
16.33360370651521
 30
0.0
 10
28.75138888170104
 20
16.33360370651521
 30
0.0
 10
28.7940999912756
 20
16.28103639407582
 30
0.0
 10
28.86813455495745
 20
16.26623055793179
 30
0.0
 10
28.92777777054583
 20
16.29832646704242
 30
0.0
 10
28.92777777054583
 20
16.29832646704242
 30
0.0
 10
28.92777777054583
 20
16.29832646704242
 30
0.0
 10
28.92777777054583
 20
16.29832646704242
 30
0.0
 10
28.97219258749708
 20
16.33163892549628
 30
0.0
 10
28.99833224949141
 20
16.38391824948494
 30
0.0
 10
28.99833224949141
 20
16.43943811641442
 30
0.0
 10
28.99833224949141
 20
16.43943811641442
 30
0.0
 10
28.89250053107305
 20
17.60360316790154
 30
0.0
 10
28.89250053107305
 20
17.60360316790154
 30
0.0
 10
28.89250053107305
 20
17.60360316790154
 30
0.0
 10
29.70389049635143
 20
16.79221320262316
 30
0.0
 10
29.70389049635143
 20
16.79221320262316
 30
0.0
 10
29.70389049635143
 20
16.79221320262316
 30
0.0
 10
29.70389049635143
 20
16.79221320262316
 30
0.0
 10
29.70389049635143
 20
16.79221320262316
 30
0.0
 10
29.65373205927087
 20
16.64463661625462
 30
0.0
 10
29.73270279882768
 20
16.48434278287997
 30
0.0
 10
29.88027938519622
 20
16.43418165431857
 30
0.0
 10
30.02785597156476
 20
16.38402321723801
 30
0.0
 10
30.1881498049394
 20
16.46299664827567
 30
0.0
 10
30.23831093350081
 20
16.61057054316336
 30
0.0
 10
30.28846937058137
 20
16.7581471295319
 30
0.0
 10
30.20949593954371
 20
16.91844365438739
 30
0.0
 10
30.06192204465601
 20
16.96860209146795
 30
0.0
 10
30.00302706074333
 20
16.98861863453342
 30
0.0
 10
29.93917167762806
 20
16.98861863453342
 30
0.0
 10
29.88027938519622
 20
16.96860209146795
 30
0.0
 10
29.88027938519622
 20
16.96860209146795
 30
0.0
 10
29.88027938519622
 20
16.96860209146795
 30
0.0
 10
29.88027938519622
 20
16.96860209146795
 30
0.0
 10
29.88027938519622
 20
16.96860209146795
 30
0.0
 10
29.06888941991784
 20
17.77999205674633
 30
0.0
 10
29.06888941991784
 20
17.77999205674633
 30
0.0
 10
29.06888941991784
 20
17.77999205674633
 30
0.0
 10
30.2330571628858
 20
17.67415764684712
 30
0.0
 10
30.2330571628858
 20
17.67415764684712
 30
0.0
 10
30.30361164183138
 20
17.63888040737433
 30
0.0
 10
30.33889157278502
 20
17.67415764684712
 30
0.0
 10
30.3741688122578
 20
17.74471212579269
 30
0.0
 10
30.3741688122578
 20
17.74471212579269
 30
0.0
 10
30.3741688122578
 20
17.74471212579269
 30
0.0
 10
30.3741688122578
 20
17.74471212579269
 30
0.0
 10
30.3741688122578
 20
17.81526660473827
 30
0.0
 10
30.3741688122578
 20
17.85054653569191
 30
0.0
 10
30.33889157278502
 20
17.8858237751647
 30
0.0
 10
30.33889157278502
 20
17.8858237751647
 30
0.0
 10
29.42166988908827
 20
18.62665657001665
 30
0.0
 10
29.42166988908827
 20
18.62665657001665
 30
0.0
 10
29.42166988908827
 20
18.62665657001665
 30
0.0
 10
30.44472598268423
 20
18.62665657001665
 30
0.0
 10
30.44472598268423
 20
18.62665657001665
 30
0.0
 10
30.55875326028431
 20
17.85571956188148
 30
0.0
 10
30.6176993823331
 20
17.07763936357611
 30
0.0
 10
30.62111487152902
 20
16.29832377556157
 30
0.0
 10
30.62810464729089
 20
12.38734102999119
 30
0.0
 10
29.01966492669148
 20
8.64708429756173
 30
0.0
 10
26.17611002797474
 20
5.96193381266444
 30
0.0
  0
SPLINE
  5
18C
330
49
100
AcDbEntity
  8
Layer 1
370
     0
100
AcDbSpline
210
0.0
220
0.0
230
1.0
 70
    11
 71
     3
 72
    23
 73
    19
 74
     0
 42
0.0000000001
 43
0.0000000001
 12
1.0
 22
0.0
 32
0.0
 13
1.0
 23
0.0
 33
0.0
 40
0.0
 40
0.0
 40
0.0
 40
0.0
 40
1.0
 40
1.0
 40
1.0
 40
2.0
 40
2.0
 40
2.0
 40
3.0
 40
3.0
 40
3.0
 40
4.0
 40
4.0
 40
4.0
 40
5.0
 40
5.0
 40
5.0
 40
6.0
 40
6.0
 40
6.0
 40
6.0
 10
24.44750107048047
 20
19.40276929582224
 30
0.0
 10
24.05944605331809
 20
18.76776821938865
 30
0.0
 10
23.6008338657293
 20
18.45027037265271
 30
0.0
 10
23.10694443866771
 20
18.45027037265271
 30
0.0
 10
23.10694443866771
 20
18.45027037265271
 30
0.0
 10
22.86000107087734
 20
18.52082485159828
 30
0.0
 10
22.86000107087734
 20
18.52082485159828
 30
0.0
 10
22.82064623792006
 20
18.58507588239819
 30
0.0
 10
22.79651172915737
 20
18.6574767172054
 30
0.0
 10
22.78944659193176
 20
18.73249097991587
 30
0.0
 10
22.78944659193176
 20
18.87360262928787
 30
0.0
 10
22.89528100183098
 20
18.97943434770623
 30
0.0
 10
23.07166989067577
 20
19.04999151813266
 30
0.0
 10
23.07166989067577
 20
19.04999151813266
 30
0.0
 10
24.30639211258931
 20
19.36749205634946
 30
0.0
 10
24.30639211258931
 20
19.36749205634946
 30
0.0
 10
24.30639211258931
 20
19.36749205634946
 30
0.0
 10
24.44750107048047
 20
19.40276929582224
 30
0.0
 10
24.44750107048047
 20
19.40276929582224
 30
0.0
  0
ENDBLK
  5
4C
330
49
100
AcDbEntity
  8
0
100
AcDbBlockEnd
  0
ENDSEC
  0
SECTION
  2
ENTITIES
  0
INSERT
  5
42
330
1F
100
AcDbEntity
  8
Layer 1
100
AcDbBlockReference
  2
block 2
 10
0.0
 20
0.0
 30
0.0
  0
INSERT
  5
46
330
1F
100
AcDbEntity
  8
Layer 1
100
AcDbBlockReference
  2
block 3
 10
0.0
 20
0.0
 30
0.0
  0
ENDSEC
  0
SECTION
  2
OBJECTS
  0
DICTIONARY
  5
C
330
0
100
AcDbDictionary
281
     1
  3
ACAD_GROUP
350
D
  3
ACAD_LAYOUT
350
1A
  3
ACAD_MATERIAL
350
3B
  3
ACAD_MLEADERSTYLE
350
18E
  3
ACAD_MLINESTYLE
350
17
  3
ACAD_PLOTSETTINGS
350
19
  3
ACAD_PLOTSTYLENAME
350
E
  3
ACAD_TABLESTYLE
350
18D
  3
ACAD_VISUALSTYLE
350
2A
  0
SUN
  5
3F
330
29
100
AcDbSun
 90
        1
290
     0
 63
     7
421
 16777215
 40
1.0
291
     1
 91
  2455826
 92
 54000000
292
     0
 70
     2
 71
   256
280
     1
  0
DICTIONARY
  5
D
102
{ACAD_REACTORS
330
C
102
}
330
C
100
AcDbDictionary
281
     1
  0
DICTIONARY
  5
1A
102
{ACAD_REACTORS
330
C
102
}
330
C
100
AcDbDictionary
281
     1
  3
Layout1
350
1E
  3
Layout2
350
26
  3
Model
350
22
  0
DICTIONARY
  5
3B
102
{ACAD_REACTORS
330
C
102
}
330
C
100
AcDbDictionary
281
     1
  3
ByBlock
350
3D
  3
ByLayer
350
3C
  3
Global
350
3E
  0
DICTIONARY
  5
18E
102
{ACAD_REACTORS
330
C
102
}
330
C
100
AcDbDictionary
281
     1
  0
DICTIONARY
  5
17
102
{ACAD_REACTORS
330
C
102
}
330
C
100
AcDbDictionary
281
     1
  3
Standard
350
18
  0
DICTIONARY
  5
19
102
{ACAD_REACTORS
330
C
102
}
330
C
100
AcDbDictionary
281
     1
  0
ACDBDICTIONARYWDFLT
  5
E
102
{ACAD_REACTORS
330
C
102
}
330
C
100
AcDbDictionary
281
     1
  3
Normal
350
F
100
AcDbDictionaryWithDefault
340
F
  0
DICTIONARY
  5
18D
102
{ACAD_REACTORS
330
C
102
}
330
C
100
AcDbDictionary
281
     1
  0
DICTIONARY
  5
2A
102
{ACAD_REACTORS
330
C
102
}
330
C
100
AcDbDictionary
281
     1
  3
2dWireframe
350
2F
  3
3D Hidden
350
31
  3
3dWireframe
350
30
  3
Basic
350
32
  3
Brighten
350
36
  3
ColorChange
350
3A
  3
Conceptual
350
34
  3
Dim
350
35
  3
Facepattern
350
39
  3
Flat
350
2B
  3
FlatWithEdges
350
2C
  3
Gouraud
350
2D
  3
GouraudWithEdges
350
2E
  3
Linepattern
350
38
  3
Realistic
350
33
  3
Thicken
350
37
  0
LAYOUT
  5
1E
102
{ACAD_REACTORS
330
1A
102
}
330
1A
100
AcDbPlotSettings
  1

  2
none_device
  4

  6

 40
0.0
 41
0.0
 42
0.0
 43
0.0
 44
0.0
 45
0.0
 46
0.0
 47
0.0
 48
0.0
 49
0.0
140
0.0
141
0.0
142
1.0
143
1.0
 70
   688
 72
     0
 73
     0
 74
     5
  7

 75
    16
 76
     0
 77
     2
 78
   300
147
1.0
148
0.0
149
0.0
100
AcDbLayout
  1
Layout1
 70
     1
 71
     1
 10
0.0
 20
0.0
 11
12.0
 21
9.0
 12
0.0
 22
0.0
 32
0.0
 14
1.000000000000000E+20
 24
1.000000000000000E+20
 34
1.000000000000000E+20
 15
-1.000000000000000E+20
 25
-1.000000000000000E+20
 35
-1.000000000000000E+20
146
0.0
 13
0.0
 23
0.0
 33
0.0
 16
1.0
 26
0.0
 36
0.0
 17
0.0
 27
1.0
 37
0.0
 76
     0
330
1B
  0
LAYOUT
  5
26
102
{ACAD_REACTORS
330
1A
102
}
330
1A
100
AcDbPlotSettings
  1

  2
none_device
  4

  6

 40
0.0
 41
0.0
 42
0.0
 43
0.0
 44
0.0
 45
0.0
 46
0.0
 47
0.0
 48
0.0
 49
0.0
140
0.0
141
0.0
142
1.0
143
1.0
 70
   688
 72
     0
 73
     0
 74
     5
  7

 75
    16
 76
     0
 77
     2
 78
   300
147
1.0
148
0.0
149
0.0
100
AcDbLayout
  1
Layout2
 70
     1
 71
     2
 10
0.0
 20
0.0
 11
0.0
 21
0.0
 12
0.0
 22
0.0
 32
0.0
 14
0.0
 24
0.0
 34
0.0
 15
0.0
 25
0.0
 35
0.0
146
0.0
 13
0.0
 23
0.0
 33
0.0
 16
1.0
 26
0.0
 36
0.0
 17
0.0
 27
1.0
 37
0.0
 76
     0
330
23
  0
LAYOUT
  5
22
102
{ACAD_REACTORS
330
1A
102
}
330
1A
100
AcDbPlotSettings
  1

  2
none_device
  4

  6

 40
0.0
 41
0.0
 42
0.0
 43
0.0
 44
0.0
 45
0.0
 46
0.0
 47
0.0
 48
0.0
 49
0.0
140
0.0
141
0.0
142
1.0
143
1.0
 70
  1712
 72
     0
 73
     0
 74
     0
  7

 75
     0
 76
     0
 77
     2
 78
   300
147
1.0
148
0.0
149
0.0
100
AcDbLayout
  1
Model
 70
     1
 71
     0
 10
0.0
 20
0.0
 11
12.0
 21
9.0
 12
0.0
 22
0.0
 32
0.0
 14
1.000000000000000E+20
 24
1.000000000000000E+20
 34
1.000000000000000E+20
 15
-1.000000000000000E+20
 25
-1.000000000000000E+20
 35
-1.000000000000000E+20
146
0.0
 13
0.0
 23
0.0
 33
0.0
 16
1.0
 26
0.0
 36
0.0
 17
0.0
 27
1.0
 37
0.0
 76
     0
330
1F
331
29
  0
MATERIAL
  5
3D
102
{ACAD_REACTORS
330
3B
102
}
330
3B
100
AcDbMaterial
  1
ByBlock
 72
     1
 94
      127
  0
MATERIAL
  5
3C
102
{ACAD_REACTORS
330
3B
102
}
330
3B
100
AcDbMaterial
  1
ByLayer
 72
     1
 94
      127
  0
MATERIAL
  5
3E
102
{ACAD_REACTORS
330
3B
102
}
330
3B
100
AcDbMaterial
  1
Global
 72
     1
 94
      127
  0
MLINESTYLE
  5
18
102
{ACAD_REACTORS
330
17
102
}
330
17
100
AcDbMlineStyle
  2
Standard
 70
     0
  3

 62
   256
 51
90.0
 52
90.0
 71
     2
 49
0.5
 62
   256
  6
BYLAYER
 49
-0.5
 62
   256
  6
BYLAYER
  0
ACDBPLACEHOLDER
  5
F
102
{ACAD_REACTORS
330
E
102
}
330
E
  0
VISUALSTYLE
  5
2F
102
{ACAD_REACTORS
330
2A
102
}
330
2A
100
AcDbVisualStyle
  2
2dWireframe
 70
     4
177
     2
291
     0
 71
     0
176
     1
 72
     2
176
     1
 73
     0
176
     1
 90
        0
176
     1
 40
-0.6
176
     1
 41
-30.0
176
     1
 62
     5
 63
     7
421
 16777215
176
     1
 74
     1
176
     1
 91
        4
176
     1
 64
     7
176
     1
 65
   257
176
     1
 75
     1
176
     1
175
     1
176
     1
 42
1.0
176
     1
 92
        0
176
     1
 66
   257
176
     1
 43
1.0
176
     1
 76
     1
176
     1
 77
     6
176
     1
 78
     2
176
     1
 67
     7
176
     1
 79
     5
176
     1
170
     0
176
     1
171
     0
176
     1
290
     0
176
     1
 93
        1
176
     1
 44
0.0
176
     1
173
     0
176
     1
  0
VISUALSTYLE
  5
31
102
{ACAD_REACTORS
330
2A
102
}
330
2A
100
AcDbVisualStyle
  2
3D Hidden
 70
     6
177
     2
291
     0
 71
     1
176
     1
 72
     2
176
     1
 73
     2
176
     1
 90
        0
176
     1
 40
-0.6
176
     1
 41
-30.0
176
     1
 62
     5
 63
     7
421
 16777215
176
     1
 74
     2
176
     1
 91
        2
176
     1
 64
     7
176
     1
 65
   257
176
     1
 75
     2
176
     1
175
     1
176
     1
 42
40.0
176
     1
 92
        0
176
     1
 66
   257
176
     1
 43
1.0
176
     1
 76
     1
176
     1
 77
     6
176
     1
 78
     2
176
     1
 67
     7
176
     1
 79
     3
176
     1
170
     0
176
     1
171
     0
176
     1
290
     0
176
     1
 93
        1
176
     1
 44
0.0
176
     1
173
     0
176
     1
  0
VISUALSTYLE
  5
30
102
{ACAD_REACTORS
330
2A
102
}
330
2A
100
AcDbVisualStyle
  2
3dWireframe
 70
     5
177
     2
291
     0
 71
     0
176
     1
 72
     2
176
     1
 73
     0
176
     1
 90
        0
176
     1
 40
-0.6
176
     1
 41
-30.0
176
     1
 62
     5
 63
     7
421
 16777215
176
     1
 74
     1
176
     1
 91
        4
176
     1
 64
     7
176
     1
 65
   257
176
     1
 75
     1
176
     1
175
     1
176
     1
 42
1.0
176
     1
 92
        0
176
     1
 66
   257
176
     1
 43
1.0
176
     1
 76
     1
176
     1
 77
     6
176
     1
 78
     2
176
     1
 67
     7
176
     1
 79
     5
176
     1
170
     0
176
     1
171
     0
176
     1
290
     0
176
     1
 93
        1
176
     1
 44
0.0
176
     1
173
     0
176
     1
  0
VISUALSTYLE
  5
32
102
{ACAD_REACTORS
330
2A
102
}
330
2A
100
AcDbVisualStyle
  2
Basic
 70
     7
177
     2
291
     1
 71
     1
176
     1
 72
     0
176
     1
 73
     1
176
     1
 90
        0
176
     1
 40
-0.6
176
     1
 41
-30.0
176
     1
 62
     5
 63
     7
421
 16777215
176
     1
 74
     0
176
     1
 91
        4
176
     1
 64
     7
176
     1
 65
   257
176
     1
 75
     1
176
     1
175
     1
176
     1
 42
1.0
176
     1
 92
        8
176
     1
 66
     7
176
     1
 43
1.0
176
     1
 76
     1
176
     1
 77
     6
176
     1
 78
     2
176
     1
 67
     7
176
     1
 79
     5
176
     1
170
     0
176
     1
171
     0
176
     1
290
     0
176
     1
 93
        1
176
     1
 44
0.0
176
     1
173
     0
176
     1
  0
VISUALSTYLE
  5
36
102
{ACAD_REACTORS
330
2A
102
}
330
2A
100
AcDbVisualStyle
  2
Brighten
 70
    12
177
     2
291
     1
 71
     2
176
     1
 72
     2
176
     1
 73
     0
176
     1
 90
        0
176
     1
 40
-0.6
176
     1
 41
-30.0
176
     1
 62
     5
 63
     7
421
 16777215
176
     1
 74
     1
176
     1
 91
        4
176
     1
 64
     7
176
     1
 65
   257
176
     1
 75
     1
176
     1
175
     1
176
     1
 42
1.0
176
     1
 92
        8
176
     1
 66
     7
176
     1
 43
1.0
176
     1
 76
     1
176
     1
 77
     6
176
     1
 78
     2
176
     1
 67
     7
176
     1
 79
     5
176
     1
170
     0
176
     1
171
     0
176
     1
290
     0
176
     1
 93
        1
176
     1
 44
50.0
176
     1
173
     0
176
     1
  0
VISUALSTYLE
  5
3A
102
{ACAD_REACTORS
330
2A
102
}
330
2A
100
AcDbVisualStyle
  2
ColorChange
 70
    16
177
     2
291
     1
 71
     2
176
     1
 72
     2
176
     1
 73
     3
176
     1
 90
        0
176
     1
 40
-0.6
176
     1
 41
-30.0
176
     1
 62
     5
 63
     8
421
  8421504
176
     1
 74
     1
176
     1
 91
        4
176
     1
 64
     7
176
     1
 65
   257
176
     1
 75
     1
176
     1
175
     1
176
     1
 42
1.0
176
     1
 92
        8
176
     1
 66
     8
424
  8421504
176
     1
 43
1.0
176
     1
 76
     1
176
     1
 77
     6
176
     1
 78
     2
176
     1
 67
     7
176
     1
 79
     5
176
     1
170
     0
176
     1
171
     0
176
     1
290
     0
176
     1
 93
        1
176
     1
 44
0.0
176
     1
173
     0
176
     1
  0
VISUALSTYLE
  5
34
102
{ACAD_REACTORS
330
2A
102
}
330
2A
100
AcDbVisualStyle
  2
Conceptual
 70
     9
177
     2
291
     0
 71
     3
176
     1
 72
     2
176
     1
 73
     0
176
     1
 90
        0
176
     1
 40
-0.6
176
     1
 41
-30.0
176
     1
 62
     5
 63
     7
421
 16777215
176
     1
 74
     2
176
     1
 91
        2
176
     1
 64
     7
176
     1
 65
   257
176
     1
 75
     1
176
     1
175
     1
176
     1
 42
40.0
176
     1
 92
        8
176
     1
 66
     7
176
     1
 43
1.0
176
     1
 76
     1
176
     1
 77
     6
176
     1
 78
     2
176
     1
 67
     7
176
     1
 79
     3
176
     1
170
     0
176
     1
171
     0
176
     1
290
     0
176
     1
 93
        1
176
     1
 44
0.0
176
     1
173
     0
176
     1
  0
VISUALSTYLE
  5
35
102
{ACAD_REACTORS
330
2A
102
}
330
2A
100
AcDbVisualStyle
  2
Dim
 70
    11
177
     2
291
     1
 71
     2
176
     1
 72
     2
176
     1
 73
     0
176
     1
 90
        0
176
     1
 40
-0.6
176
     1
 41
-30.0
176
     1
 62
     5
 63
     7
421
 16777215
176
     1
 74
     1
176
     1
 91
        4
176
     1
 64
     7
176
     1
 65
   257
176
     1
 75
     1
176
     1
175
     1
176
     1
 42
1.0
176
     1
 92
        8
176
     1
 66
     7
176
     1
 43
1.0
176
     1
 76
     1
176
     1
 77
     6
176
     1
 78
     2
176
     1
 67
     7
176
     1
 79
     5
176
     1
170
     0
176
     1
171
     0
176
     1
290
     0
176
     1
 93
        1
176
     1
 44
-50.0
176
     1
173
     0
176
     1
  0
VISUALSTYLE
  5
39
102
{ACAD_REACTORS
330
2A
102
}
330
2A
100
AcDbVisualStyle
  2
Facepattern
 70
    15
177
     2
291
     1
 71
     2
176
     1
 72
     2
176
     1
 73
     0
176
     1
 90
        0
176
     1
 40
-0.6
176
     1
 41
-30.0
176
     1
 62
     5
 63
     7
421
 16777215
176
     1
 74
     1
176
     1
 91
        4
176
     1
 64
     7
176
     1
 65
   257
176
     1
 75
     1
176
     1
175
     1
176
     1
 42
1.0
176
     1
 92
        8
176
     1
 66
     7
176
     1
 43
1.0
176
     1
 76
     1
176
     1
 77
     6
176
     1
 78
     2
176
     1
 67
     7
176
     1
 79
     5
176
     1
170
     0
176
     1
171
     0
176
     1
290
     0
176
     1
 93
        1
176
     1
 44
0.0
176
     1
173
     0
176
     1
  0
VISUALSTYLE
  5
2B
102
{ACAD_REACTORS
330
2A
102
}
330
2A
100
AcDbVisualStyle
  2
Flat
 70
     0
177
     2
291
     1
 71
     2
176
     1
 72
     1
176
     1
 73
     1
176
     1
 90
        2
176
     1
 40
-0.6
176
     1
 41
30.0
176
     1
 62
     5
 63
     7
421
 16777215
176
     1
 74
     0
176
     1
 91
        4
176
     1
 64
     7
176
     1
 65
   257
176
     1
 75
     1
176
     1
175
     1
176
     1
 42
1.0
176
     1
 92
        8
176
     1
 66
     7
176
     1
 43
1.0
176
     1
 76
     1
176
     1
 77
     6
176
     1
 78
     2
176
     1
 67
     7
176
     1
 79
     5
176
     1
170
     0
176
     1
171
     0
176
     1
290
     0
176
     1
 93
       13
176
     1
 44
0.0
176
     1
173
     0
176
     1
  0
VISUALSTYLE
  5
2C
102
{ACAD_REACTORS
330
2A
102
}
330
2A
100
AcDbVisualStyle
  2
FlatWithEdges
 70
     1
177
     2
291
     1
 71
     2
176
     1
 72
     1
176
     1
 73
     1
176
     1
 90
        2
176
     1
 40
-0.6
176
     1
 41
30.0
176
     1
 62
     5
 63
     7
421
 16777215
176
     1
 74
     1
176
     1
 91
        4
176
     1
 64
     7
176
     1
 65
   257
176
     1
 75
     1
176
     1
175
     1
176
     1
 42
1.0
176
     1
 92
        0
176
     1
 66
   257
176
     1
 43
1.0
176
     1
 76
     1
176
     1
 77
     6
176
     1
 78
     2
176
     1
 67
     7
176
     1
 79
     5
176
     1
170
     0
176
     1
171
     0
176
     1
290
     0
176
     1
 93
       13
176
     1
 44
0.0
176
     1
173
     0
176
     1
  0
VISUALSTYLE
  5
2D
102
{ACAD_REACTORS
330
2A
102
}
330
2A
100
AcDbVisualStyle
  2
Gouraud
 70
     2
177
     2
291
     1
 71
     2
176
     1
 72
     2
176
     1
 73
     1
176
     1
 90
        2
176
     1
 40
-0.6
176
     1
 41
30.0
176
     1
 62
     5
 63
     7
421
 16777215
176
     1
 74
     0
176
     1
 91
        4
176
     1
 64
     7
176
     1
 65
   257
176
     1
 75
     1
176
     1
175
     1
176
     1
 42
1.0
176
     1
 92
        0
176
     1
 66
     7
176
     1
 43
1.0
176
     1
 76
     1
176
     1
 77
     6
176
     1
 78
     2
176
     1
 67
     7
176
     1
 79
     5
176
     1
170
     0
176
     1
171
     0
176
     1
290
     0
176
     1
 93
       13
176
     1
 44
0.0
176
     1
173
     0
176
     1
  0
VISUALSTYLE
  5
2E
102
{ACAD_REACTORS
330
2A
102
}
330
2A
100
AcDbVisualStyle
  2
GouraudWithEdges
 70
     3
177
     2
291
     1
 71
     2
176
     1
 72
     2
176
     1
 73
     1
176
     1
 90
        2
176
     1
 40
-0.6
176
     1
 41
30.0
176
     1
 62
     5
 63
     7
421
 16777215
176
     1
 74
     1
176
     1
 91
        4
176
     1
 64
     7
176
     1
 65
   257
176
     1
 75
     1
176
     1
175
     1
176
     1
 42
1.0
176
     1
 92
        0
176
     1
 66
   257
176
     1
 43
1.0
176
     1
 76
     1
176
     1
 77
     6
176
     1
 78
     2
176
     1
 67
     7
176
     1
 79
     5
176
     1
170
     0
176
     1
171
     0
176
     1
290
     0
176
     1
 93
       13
176
     1
 44
0.0
176
     1
173
     0
176
     1
  0
VISUALSTYLE
  5
38
102
{ACAD_REACTORS
330
2A
102
}
330
2A
100
AcDbVisualStyle
  2
Linepattern
 70
    14
177
     2
291
     1
 71
     2
176
     1
 72
     2
176
     1
 73
     0
176
     1
 90
        0
176
     1
 40
-0.6
176
     1
 41
-30.0
176
     1
 62
     5
 63
     7
421
 16777215
176
     1
 74
     1
176
     1
 91
        4
176
     1
 64
     7
176
     1
 65
   257
176
     1
 75
     7
176
     1
175
     7
176
     1
 42
1.0
176
     1
 92
        8
176
     1
 66
     7
176
     1
 43
1.0
176
     1
 76
     1
176
     1
 77
     6
176
     1
 78
     2
176
     1
 67
     7
176
     1
 79
     5
176
     1
170
     0
176
     1
171
     0
176
     1
290
     0
176
     1
 93
        1
176
     1
 44
0.0
176
     1
173
     0
176
     1
  0
VISUALSTYLE
  5
33
102
{ACAD_REACTORS
330
2A
102
}
330
2A
100
AcDbVisualStyle
  2
Realistic
 70
     8
177
     2
291
     0
 71
     2
176
     1
 72
     2
176
     1
 73
     0
176
     1
 90
        0
176
     1
 40
-0.6
176
     1
 41
-30.0
176
     1
 62
     5
 63
     7
421
 16777215
176
     1
 74
     1
176
     1
 91
        0
176
     1
 64
     7
176
     1
 65
   257
176
     1
 75
     1
176
     1
175
     1
176
     1
 42
1.0
176
     1
 92
        8
176
     1
 66
     8
424
  7895160
176
     1
 43
1.0
176
     1
 76
     1
176
     1
 77
     6
176
     1
 78
     2
176
     1
 67
     7
176
     1
 79
     5
176
     1
170
     0
176
     1
171
     0
176
     1
290
     0
176
     1
 93
       13
176
     1
 44
0.0
176
     1
173
     0
176
     1
  0
VISUALSTYLE
  5
37
102
{ACAD_REACTORS
330
2A
102
}
330
2A
100
AcDbVisualStyle
  2
Thicken
 70
    13
177
     2
291
     1
 71
     2
176
     1
 72
     2
176
     1
 73
     0
176
     1
 90
        0
176
     1
 40
-0.6
176
     1
 41
-30.0
176
     1
 62
     5
 63
     7
421
 16777215
176
     1
 74
     1
176
     1
 91
        4
176
     1
 64
     7
176
     1
 65
   257
176
     1
 75
     1
176
     1
175
     1
176
     1
 42
1.0
176
     1
 92
       12
176
     1
 66
     7
176
     1
 43
1.0
176
     1
 76
     1
176
     1
 77
     6
176
     1
 78
     2
176
     1
 67
     7
176
     1
 79
     5
176
     1
170
     0
176
     1
171
     0
176
     1
290
     0
176
     1
 93
        1
176
     1
 44
0.0
176
     1
173
     0
176
     1
  0
ENDSEC
  0
EOF
