  0
SECTION
  2
HEADER
  9
$ACADVER
  1
AC1024
  9
$ACADMAINTVER
 70
     6
  9
$DWGCODEPAGE
  3
ANSI_1252
  9
$INSBASE
 10
0.0
 20
0.0
 30
0.0
  9
$EXTMIN
 10
1.000000000000000E+20
 20
1.000000000000000E+20
 30
1.000000000000000E+20
  9
$EXTMAX
 10
-1.000000000000000E+20
 20
-1.000000000000000E+20
 30
-1.000000000000000E+20
  9
$LIMMIN
 10
0.0
 20
0.0
  9
$LIMMAX
 10
12.0
 20
9.0
  9
$ORTHOMODE
 70
     0
  9
$REGENMODE
 70
     1
  9
$FILLMODE
 70
     1
  9
$QTEXTMODE
 70
     0
  9
$MIRRTEXT
 70
     1
  9
$LTSCALE
 40
1.0
  9
$ATTMODE
 70
     1
  9
$TEXTSIZE
 40
0.2
  9
$TRACEWID
 40
0.05
  9
$TEXTSTYLE
  7
Standard
  9
$CLAYER
  8
0
  9
$CELTYPE
  6
ByLayer
  9
$CECOLOR
 62
   256
  9
$CELTSCALE
 40
1.0
  9
$DISPSILH
 70
     0
  9
$DIMSCALE
 40
1.0
  9
$DIMASZ
 40
0.18
  9
$DIMEXO
 40
0.0625
  9
$DIMDLI
 40
0.38
  9
$DIMRND
 40
0.0
  9
$DIMDLE
 40
0.0
  9
$DIMEXE
 40
0.18
  9
$DIMTP
 40
0.0
  9
$DIMTM
 40
0.0
  9
$DIMTXT
 40
0.18
  9
$DIMCEN
 40
0.09
  9
$DIMTSZ
 40
0.0
  9
$DIMTOL
 70
     0
  9
$DIMLIM
 70
     0
  9
$DIMTIH
 70
     1
  9
$DIMTOH
 70
     1
  9
$DIMSE1
 70
     0
  9
$DIMSE2
 70
     0
  9
$DIMTAD
 70
     0
  9
$DIMZIN
 70
     0
  9
$DIMBLK
  1

  9
$DIMASO
 70
     1
  9
$DIMSHO
 70
     1
  9
$DIMPOST
  1

  9
$DIMAPOST
  1

  9
$DIMALT
 70
     0
  9
$DIMALTD
 70
     2
  9
$DIMALTF
 40
25.4
  9
$DIMLFAC
 40
1.0
  9
$DIMTOFL
 70
     0
  9
$DIMTVP
 40
0.0
  9
$DIMTIX
 70
     0
  9
$DIMSOXD
 70
     0
  9
$DIMSAH
 70
     0
  9
$DIMBLK1
  1

  9
$DIMBLK2
  1

  9
$DIMSTYLE
  2
Standard
  9
$DIMCLRD
 70
     0
  9
$DIMCLRE
 70
     0
  9
$DIMCLRT
 70
     0
  9
$DIMTFAC
 40
1.0
  9
$DIMGAP
 40
0.09
  9
$DIMJUST
 70
     0
  9
$DIMSD1
 70
     0
  9
$DIMSD2
 70
     0
  9
$DIMTOLJ
 70
     1
  9
$DIMTZIN
 70
     0
  9
$DIMALTZ
 70
     0
  9
$DIMALTTZ
 70
     0
  9
$DIMUPT
 70
     0
  9
$DIMDEC
 70
     4
  9
$DIMTDEC
 70
     4
  9
$DIMALTU
 70
     2
  9
$DIMALTTD
 70
     2
  9
$DIMTXSTY
  7
Standard
  9
$DIMAUNIT
 70
     0
  9
$DIMADEC
 70
     0
  9
$DIMALTRND
 40
0.0
  9
$DIMAZIN
 70
     0
  9
$DIMDSEP
 70
    46
  9
$DIMATFIT
 70
     3
  9
$DIMFRAC
 70
     0
  9
$DIMLDRBLK
  1

  9
$DIMLUNIT
 70
     2
  9
$DIMLWD
 70
    -2
  9
$DIMLWE
 70
    -2
  9
$DIMTMOVE
 70
     0
  9
$DIMFXL
 40
1.0
  9
$DIMFXLON
 70
     0
  9
$DIMJOGANG
 40
0.7853981633974483
  9
$DIMTFILL
 70
     0
  9
$DIMTFILLCLR
 70
     0
  9
$DIMARCSYM
 70
     0
  9
$DIMLTYPE
  6

  9
$DIMLTEX1
  6

  9
$DIMLTEX2
  6

  9
$DIMTXTDIRECTION
 70
     0
  9
$LUNITS
 70
     2
  9
$LUPREC
 70
     4
  9
$SKETCHINC
 40
0.1
  9
$FILLETRAD
 40
0.5
  9
$AUNITS
 70
     0
  9
$AUPREC
 70
     0
  9
$MENU
  1
.
  9
$ELEVATION
 40
0.0
  9
$PELEVATION
 40
0.0
  9
$THICKNESS
 40
0.0
  9
$LIMCHECK
 70
     0
  9
$CHAMFERA
 40
0.5
  9
$CHAMFERB
 40
0.5
  9
$CHAMFERC
 40
1.0
  9
$CHAMFERD
 40
0.0
  9
$SKPOLY
 70
     0
  9
$TDCREATE
 40
2459192.943916285
  9
$TDUCREATE
 40
2459192.777249618
  9
$TDUPDATE
 40
2459192.943916331
  9
$TDUUPDATE
 40
2459192.777249665
  9
$TDINDWG
 40
0.0000000116
  9
$TDUSRTIMER
 40
0.0000000116
  9
$USRTIMER
 70
     1
  9
$ANGBASE
 50
0.0
  9
$ANGDIR
 70
     0
  9
$PDMODE
 70
     0
  9
$PDSIZE
 40
0.0
  9
$PLINEWID
 40
0.0
  9
$SPLFRAME
 70
     0
  9
$SPLINETYPE
 70
     6
  9
$SPLINESEGS
 70
     8
  9
$HANDSEED
  5
183
  9
$SURFTAB1
 70
     6
  9
$SURFTAB2
 70
     6
  9
$SURFTYPE
 70
     6
  9
$SURFU
 70
     6
  9
$SURFV
 70
     6
  9
$UCSBASE
  2

  9
$UCSNAME
  2

  9
$UCSORG
 10
0.0
 20
0.0
 30
0.0
  9
$UCSXDIR
 10
1.0
 20
0.0
 30
0.0
  9
$UCSYDIR
 10
0.0
 20
1.0
 30
0.0
  9
$UCSORTHOREF
  2

  9
$UCSORTHOVIEW
 70
     0
  9
$UCSORGTOP
 10
0.0
 20
0.0
 30
0.0
  9
$UCSORGBOTTOM
 10
0.0
 20
0.0
 30
0.0
  9
$UCSORGLEFT
 10
0.0
 20
0.0
 30
0.0
  9
$UCSORGRIGHT
 10
0.0
 20
0.0
 30
0.0
  9
$UCSORGFRONT
 10
0.0
 20
0.0
 30
0.0
  9
$UCSORGBACK
 10
0.0
 20
0.0
 30
0.0
  9
$PUCSBASE
  2

  9
$PUCSNAME
  2

  9
$PUCSORG
 10
0.0
 20
0.0
 30
0.0
  9
$PUCSXDIR
 10
1.0
 20
0.0
 30
0.0
  9
$PUCSYDIR
 10
0.0
 20
1.0
 30
0.0
  9
$PUCSORTHOREF
  2

  9
$PUCSORTHOVIEW
 70
     0
  9
$PUCSORGTOP
 10
0.0
 20
0.0
 30
0.0
  9
$PUCSORGBOTTOM
 10
0.0
 20
0.0
 30
0.0
  9
$PUCSORGLEFT
 10
0.0
 20
0.0
 30
0.0
  9
$PUCSORGRIGHT
 10
0.0
 20
0.0
 30
0.0
  9
$PUCSORGFRONT
 10
0.0
 20
0.0
 30
0.0
  9
$PUCSORGBACK
 10
0.0
 20
0.0
 30
0.0
  9
$USERI1
 70
     0
  9
$USERI2
 70
     0
  9
$USERI3
 70
     0
  9
$USERI4
 70
     0
  9
$USERI5
 70
     0
  9
$USERR1
 40
0.0
  9
$USERR2
 40
0.0
  9
$USERR3
 40
0.0
  9
$USERR4
 40
0.0
  9
$USERR5
 40
0.0
  9
$WORLDVIEW
 70
     1
  9
$SHADEDGE
 70
     3
  9
$SHADEDIF
 70
    70
  9
$TILEMODE
 70
     1
  9
$MAXACTVP
 70
    64
  9
$PINSBASE
 10
0.0
 20
0.0
 30
0.0
  9
$PLIMCHECK
 70
     0
  9
$PEXTMIN
 10
1.000000000000000E+20
 20
1.000000000000000E+20
 30
1.000000000000000E+20
  9
$PEXTMAX
 10
-1.000000000000000E+20
 20
-1.000000000000000E+20
 30
-1.000000000000000E+20
  9
$PLIMMIN
 10
0.0
 20
0.0
  9
$PLIMMAX
 10
12.0
 20
9.0
  9
$UNITMODE
 70
     0
  9
$VISRETAIN
 70
     1
  9
$PLINEGEN
 70
     0
  9
$PSLTSCALE
 70
     1
  9
$TREEDEPTH
 70
  3020
  9
$CMLSTYLE
  2
Standard
  9
$CMLJUST
 70
     0
  9
$CMLSCALE
 40
1.0
  9
$PROXYGRAPHICS
 70
     1
  9
$MEASUREMENT
 70
     0
  9
$CELWEIGHT
370
    -1
  9
$ENDCAPS
280
     0
  9
$JOINSTYLE
280
     0
  9
$LWDISPLAY
290
     1
  9
$INSUNITS
 70
     4
  9
$HYPERLINKBASE
  1

  9
$STYLESHEET
  1

  9
$XEDIT
290
     1
  9
$CEPSNTYPE
380
     0
  9
$PSTYLEMODE
290
     1
  9
$FINGERPRINTGUID
  2
{2D7A7A7F-25C2-45AE-AF85-628E12148FE1}
  9
$VERSIONGUID
  2
{FAEB1C32-E019-11D5-929B-00C0DF256EC4}
  9
$EXTNAMES
290
     1
  9
$PSVPSCALE
 40
0.0
  9
$OLESTARTUP
290
     0
  9
$SORTENTS
280
   127
  9
$INDEXCTL
280
     0
  9
$HIDETEXT
280
     1
  9
$XCLIPFRAME
280
     2
  9
$HALOGAP
280
     0
  9
$OBSCOLOR
 70
   257
  9
$OBSLTYPE
280
     0
  9
$INTERSECTIONDISPLAY
280
     0
  9
$INTERSECTIONCOLOR
 70
   257
  9
$DIMASSOC
280
     2
  9
$PROJECTNAME
  1

  9
$CAMERADISPLAY
290
     0
  9
$LENSLENGTH
 40
50.0
  9
$CAMERAHEIGHT
 40
0.0
  9
$STEPSPERSEC
 40
2.0
  9
$STEPSIZE
 40
6.0
  9
$3DDWFPREC
 40
2.0
  9
$PSOLWIDTH
 40
0.25
  9
$PSOLHEIGHT
 40
4.0
  9
$LOFTANG1
 40
1.570796326794897
  9
$LOFTANG2
 40
1.570796326794897
  9
$LOFTMAG1
 40
0.0
  9
$LOFTMAG2
 40
0.0
  9
$LOFTPARAM
 70
     7
  9
$LOFTNORMALS
280
     1
  9
$LATITUDE
 40
37.795
  9
$LONGITUDE
 40
-122.394
  9
$NORTHDIRECTION
 40
0.0
  9
$TIMEZONE
 70
 -8000
  9
$LIGHTGLYPHDISPLAY
280
     1
  9
$TILEMODELIGHTSYNCH
280
     1
  9
$CMATERIAL
347
3C
  9
$SOLIDHIST
280
     1
  9
$SHOWHIST
280
     1
  9
$DWFFRAME
280
     2
  9
$DGNFRAME
280
     2
  9
$REALWORLDSCALE
290
     1
  9
$INTERFERECOLOR
 62
   256
  9
$CSHADOW
280
     0
  9
$SHADOWPLANELOCATION
 40
0.0
  0
ENDSEC
  0
SECTION
  2
CLASSES
  0
CLASS
  1
ACDBDICTIONARYWDFLT
  2
AcDbDictionaryWithDefault
  3
ObjectDBX Classes
 90
        0
 91
        4
280
     0
281
     0
  0
CLASS
  1
VISUALSTYLE
  2
AcDbVisualStyle
  3
ObjectDBX Classes
 90
     4095
 91
        4
280
     0
281
     0
  0
CLASS
  1
MATERIAL
  2
AcDbMaterial
  3
ObjectDBX Classes
 90
     1153
 91
        4
280
     0
281
     0
  0
CLASS
  1
SUN
  2
AcDbSun
  3
SCENEOE
 90
     1024
 91
        4
280
     0
281
     0
  0
ENDSEC
  0
SECTION
  2
TABLES
  0
TABLE
  2
VPORT
  5
8
330
0
100
AcDbSymbolTable
 70
     1
  0
VPORT
  5
29
330
8
100
AcDbSymbolTableRecord
100
AcDbViewportTableRecord
  2
*Active
 70
     0
 10
0.0
 20
0.0
 11
1.0
 21
1.0
 12
0.0
 22
0.0
 13
0.0
 23
0.0
 14
0.5
 24
0.5
 15
0.5
 25
0.5
 16
0.0
 26
0.0
 36
1.0
 17
16.31597221814323
 27
22.2073613747072
 37
0.0
 40
44.41472274941439
 41
0.7347100784664182
 42
50.0
 43
0.0
 44
0.0
 50
0.0
 51
0.0
 71
     0
 72
   100
 73
     1
 74
     3
 75
     0
 76
     0
 77
     0
 78
     0
281
     0
 65
     1
110
0.0
120
0.0
130
0.0
111
1.0
121
0.0
131
0.0
112
0.0
122
1.0
132
0.0
 79
     0
146
0.0
 60
     3
 61
     5
292
     1
282
     1
141
0.0
142
0.0
 63
   250
361
3F
  0
ENDTAB
  0
TABLE
  2
LTYPE
  5
5
330
0
100
AcDbSymbolTable
 70
     1
  0
LTYPE
  5
14
330
5
100
AcDbSymbolTableRecord
100
AcDbLinetypeTableRecord
  2
ByBlock
 70
     0
  3

 72
    65
 73
     0
 40
0.0
  0
LTYPE
  5
15
330
5
100
AcDbSymbolTableRecord
100
AcDbLinetypeTableRecord
  2
ByLayer
 70
     0
  3

 72
    65
 73
     0
 40
0.0
  0
LTYPE
  5
16
330
5
100
AcDbSymbolTableRecord
100
AcDbLinetypeTableRecord
  2
Continuous
 70
     0
  3
Solid line
 72
    65
 73
     0
 40
0.0
  0
ENDTAB
  0
TABLE
  2
LAYER
  5
2
330
0
100
AcDbSymbolTable
 70
     2
  0
LAYER
  5
10
330
2
100
AcDbSymbolTableRecord
100
AcDbLayerTableRecord
  2
0
 70
     0
 62
     7
  6
Continuous
370
    -3
390
F
347
3E
  0
LAYER
  5
40
330
2
100
AcDbSymbolTableRecord
100
AcDbLayerTableRecord
  2
Layer 1
 70
     0
 62
     7
  6
Continuous
370
    -3
390
F
347
3E
  0
ENDTAB
  0
TABLE
  2
STYLE
  5
3
330
0
100
AcDbSymbolTable
 70
     1
  0
STYLE
  5
11
330
3
100
AcDbSymbolTableRecord
100
AcDbTextStyleTableRecord
  2
Standard
 70
     0
 40
0.0
 41
1.0
 50
0.0
 71
     0
 42
0.2
  3
txt
  4

  0
ENDTAB
  0
TABLE
  2
VIEW
  5
6
330
0
100
AcDbSymbolTable
 70
     0
  0
ENDTAB
  0
TABLE
  2
UCS
  5
7
330
0
100
AcDbSymbolTable
 70
     0
  0
ENDTAB
  0
TABLE
  2
APPID
  5
9
330
0
100
AcDbSymbolTable
 70
     1
  0
APPID
  5
12
330
9
100
AcDbSymbolTableRecord
100
AcDbRegAppTableRecord
  2
ACAD
 70
     0
  0
ENDTAB
  0
TABLE
  2
DIMSTYLE
  5
A
330
0
100
AcDbSymbolTable
 70
     1
100
AcDbDimStyleTable
  0
DIMSTYLE
105
27
330
A
100
AcDbSymbolTableRecord
100
AcDbDimStyleTableRecord
  2
Standard
 70
     0
178
     0
340
11
  0
ENDTAB
  0
TABLE
  2
BLOCK_RECORD
  5
1
330
0
100
AcDbSymbolTable
 70
     4
  0
BLOCK_RECORD
  5
1F
330
1
100
AcDbSymbolTableRecord
100
AcDbBlockTableRecord
  2
*Model_Space
340
22
 70
     0
280
     1
281
     0
  0
BLOCK_RECORD
  5
1B
330
1
100
AcDbSymbolTableRecord
100
AcDbBlockTableRecord
  2
*Paper_Space
340
1E
 70
     0
280
     1
281
     0
  0
BLOCK_RECORD
  5
23
330
1
100
AcDbSymbolTableRecord
100
AcDbBlockTableRecord
  2
*Paper_Space0
340
26
 70
     0
280
     1
281
     0
  0
BLOCK_RECORD
  5
41
330
1
100
AcDbSymbolTableRecord
100
AcDbBlockTableRecord
  2
block 2
340
0
102
{BLKREFS
331
42
102
}
 70
     0
280
     1
281
     0
  0
BLOCK_RECORD
  5
45
330
1
100
AcDbSymbolTableRecord
100
AcDbBlockTableRecord
  2
block 3
340
0
102
{BLKREFS
331
46
102
}
 70
     0
280
     1
281
     0
  0
BLOCK_RECORD
  5
49
330
1
100
AcDbSymbolTableRecord
100
AcDbBlockTableRecord
  2
block 4
340
0
102
{BLKREFS
331
4A
102
}
 70
     0
280
     1
281
     0
  0
ENDTAB
  0
ENDSEC
  0
SECTION
  2
BLOCKS
  0
BLOCK
  5
20
330
1F
100
AcDbEntity
  8
0
100
AcDbBlockBegin
  2
*Model_Space
 70
     0
 10
0.0
 20
0.0
 30
0.0
  3
*Model_Space
  1

  0
ENDBLK
  5
21
330
1F
100
AcDbEntity
  8
0
100
AcDbBlockEnd
  0
BLOCK
  5
1C
330
1B
100
AcDbEntity
 67
     1
  8
0
100
AcDbBlockBegin
  2
*Paper_Space
 70
     0
 10
0.0
 20
0.0
 30
0.0
  3
*Paper_Space
  1

  0
ENDBLK
  5
1D
330
1B
100
AcDbEntity
 67
     1
  8
0
100
AcDbBlockEnd
  0
BLOCK
  5
24
330
23
100
AcDbEntity
  8
0
100
AcDbBlockBegin
  2
*Paper_Space0
 70
     0
 10
0.0
 20
0.0
 30
0.0
  3
*Paper_Space0
  1

  0
ENDBLK
  5
25
330
23
100
AcDbEntity
  8
0
100
AcDbBlockEnd
  0
BLOCK
  5
43
330
41
100
AcDbEntity
  8
0
100
AcDbBlockBegin
  2
block 2
 70
     0
 10
0.0
 20
0.0
 30
0.0
  3
block 2
  1

  0
ENDBLK
  5
44
330
41
100
AcDbEntity
  8
0
100
AcDbBlockEnd
  0
BLOCK
  5
47
330
45
100
AcDbEntity
  8
0
100
AcDbBlockBegin
  2
block 3
 70
     0
 10
0.0
 20
0.0
 30
0.0
  3
block 3
  1

  0
INSERT
  5
4A
330
45
100
AcDbEntity
  8
Layer 1
100
AcDbBlockReference
  2
block 4
 10
0.0
 20
0.0
 30
0.0
  0
ENDBLK
  5
48
330
45
100
AcDbEntity
  8
0
100
AcDbBlockEnd
  0
BLOCK
  5
4B
330
49
100
AcDbEntity
  8
0
100
AcDbBlockBegin
  2
block 4
 70
     0
 10
0.0
 20
0.0
 30
0.0
  3
block 4
  1

  0
SPLINE
  5
4D
330
49
100
AcDbEntity
  8
Layer 1
370
     0
100
AcDbSpline
210
0.0
220
0.0
230
1.0
 70
    11
 71
     3
 72
    86
 73
    82
 74
     0
 42
0.0000000001
 43
0.0000000001
 12
1.0
 22
0.0
 32
0.0
 13
1.0
 23
0.0
 33
0.0
 40
0.0
 40
0.0
 40
0.0
 40
0.0
 40
1.0
 40
1.0
 40
1.0
 40
2.0
 40
2.0
 40
2.0
 40
3.0
 40
3.0
 40
3.0
 40
4.0
 40
4.0
 40
4.0
 40
5.0
 40
5.0
 40
5.0
 40
6.0
 40
6.0
 40
6.0
 40
7.0
 40
7.0
 40
7.0
 40
8.0
 40
8.0
 40
8.0
 40
9.0
 40
9.0
 40
9.0
 40
10.0
 40
10.0
 40
10.0
 40
11.0
 40
11.0
 40
11.0
 40
12.0
 40
12.0
 40
12.0
 40
13.0
 40
13.0
 40
13.0
 40
14.0
 40
14.0
 40
14.0
 40
15.0
 40
15.0
 40
15.0
 40
16.0
 40
16.0
 40
16.0
 40
17.0
 40
17.0
 40
17.0
 40
18.0
 40
18.0
 40
18.0
 40
19.0
 40
19.0
 40
19.0
 40
20.0
 40
20.0
 40
20.0
 40
21.0
 40
21.0
 40
21.0
 40
22.0
 40
22.0
 40
22.0
 40
23.0
 40
23.0
 40
23.0
 40
24.0
 40
24.0
 40
24.0
 40
25.0
 40
25.0
 40
25.0
 40
26.0
 40
26.0
 40
26.0
 40
27.0
 40
27.0
 40
27.0
 40
27.0
 10
25.50583440354922
 20
29.77443649819216
 30
0.0
 10
25.50583440354922
 20
29.77443649819216
 30
0.0
 10
25.78805770229322
 20
29.88026956235095
 30
0.0
 10
25.78805770229322
 20
29.88026956235095
 30
0.0
 10
25.78805770229322
 20
29.88026956235095
 30
0.0
 10
25.78805770229322
 20
29.88026956235095
 30
0.0
 10
25.78805770229322
 20
29.88026956235095
 30
0.0
 10
26.65812195005476
 20
30.27206708363226
 30
0.0
 10
27.44767323973368
 20
30.82236052908185
 30
0.0
 10
28.1163904967483
 20
31.50304680142687
 30
0.0
 10
29.63333601740585
 20
33.30221360221778
 30
0.0
 10
27.83416719800429
 20
35.31304653132629
 30
0.0
 10
27.83416719800429
 20
37.2180470691462
 30
0.0
 10
27.83416719800429
 20
39.12304760696613
 30
0.0
 10
28.68083440275547
 20
40.53415804485424
 30
0.0
 10
27.9752788473763
 20
42.19221386914337
 30
0.0
 10
27.55194659074114
 20
43.25054720221212
 30
0.0
 10
26.52889049714518
 20
43.74443612462105
 30
0.0
 10
25.36472275417721
 20
43.7797138687465
 30
0.0
 10
24.38224342584346
 20
43.81988850994828
 30
0.0
 10
23.41062422273079
 20
43.56161072754617
 30
0.0
 10
22.57777777213333
 20
43.03888090567699
 30
0.0
 10
21.83694497728138
 20
42.58026989561106
 30
0.0
 10
18.23861137569954
 20
38.91138080577833
 30
0.0
 10
18.16805555101354
 20
38.91138080577833
 30
0.0
 10
18.12870206379668
 20
39.1383850105776
 30
0.0
 10
18.00208134730951
 20
39.34097748408686
 30
0.0
 10
17.81527777332396
 20
39.47582538465571
 30
0.0
 10
17.66129411679711
 20
39.61624936067108
 30
0.0
 10
17.4591827454894
 20
39.69204112491148
 30
0.0
 10
17.2508338673168
 20
39.6874921858435
 30
0.0
 10
17.2508338673168
 20
39.6874921858435
 30
0.0
 10
16.22777777372083
 20
39.6874921858435
 30
0.0
 10
16.22777777372083
 20
39.6874921858435
 30
0.0
 10
16.0656335472633
 20
39.6788643075506
 30
0.0
 10
15.90811597638321
 20
39.63039712974781
 30
0.0
 10
15.76916693187246
 20
39.54638120934171
 30
0.0
 10
15.55750080355488
 20
39.44054780874781
 30
0.0
 10
15.34583332949687
 20
39.22888134399513
 30
0.0
 10
15.34583332949687
 20
39.08777003105823
 30
0.0
 10
14.22215891588484
 20
40.73136621092738
 30
0.0
 10
12.86770885993547
 20
42.20462681059611
 30
0.0
 10
11.32416612553946
 20
43.46221425572624
 30
0.0
 10
10.52584397264761
 20
44.0279764826962
 30
0.0
 10
9.584604859605056
 20
44.35802130347702
 30
0.0
 10
8.607777641051792
 20
44.41471427230987
 30
0.0
 10
7.40833333148125
 20
44.44999205060451
 30
0.0
 10
6.349999998412501
 20
44.02665870844045
 30
0.0
 10
5.856111244221126
 20
43.00360316155154
 30
0.0
 10
5.044722288248063
 20
41.41610316194841
 30
0.0
 10
5.750278180062335
 20
39.6522142735005
 30
0.0
 10
5.644444443033334
 20
38.02943636155437
 30
0.0
 10
5.538610706004332
 20
36.40665844960824
 30
0.0
 10
3.563055689238834
 20
34.25471454399796
 30
0.0
 10
4.938888887654167
 20
32.34971400617804
 30
0.0
 10
5.715000267719335
 20
31.46776956195408
 30
0.0
 10
6.526388887257292
 20
30.65638094241612
 30
0.0
 10
7.655278045012044
 20
30.30360316472654
 30
0.0
 10
7.655278045012044
 20
30.30360316472654
 30
0.0
 10
7.690555957355044
 20
30.30360316472654
 30
0.0
 10
7.690555957355044
 20
30.30360316472654
 30
0.0
 10
7.690555957355044
 20
30.30360316472654
 30
0.0
 10
7.796389021513835
 20
30.23304734004054
 30
0.0
 10
7.796389021513835
 20
30.23304734004054
 30
0.0
 10
2.954694553802172
 20
27.25660461168241
 30
0.0
 10
0.0034423570217651
 20
21.98174086127179
 30
0.0
 10
0.0
 20
16.29832646704242
 30
0.0
 10
-0.0066673657943693
 20
12.92280307022869
 30
0.0
 10
1.041735475332709
 20
9.629585157742264
 30
0.0
 10
2.998611110361459
 20
6.879160879322883
 30
0.0
 10
2.998611110361459
 20
6.879160879322883
 30
0.0
 10
3.421944376301937
 20
6.31471428183487
 30
0.0
 10
3.421944376301937
 20
6.31471428183487
 30
0.0
 10
8.963561129978213
 20
-0.7785381527118033
 30
0.0
 10
19.20614894810645
 20
-2.03639096103178
 30
0.0
 10
26.29940407413397
 20
3.505225456209389
 30
0.0
 10
33.3926592001615
 20
9.046841873450559
 30
0.0
 10
34.65050931700063
 20
19.28943103731922
 30
0.0
 10
29.10889289975945
 20
26.38268481760632
 30
0.0
 10
28.08750283280831
 20
27.69006221926719
 30
0.0
 10
26.87248225070104
 20
28.83382584592759
 30
0.0
 10
25.50583440354922
 20
29.77443649819216
 30
0.0
  0
POLYLINE
  5
4E
330
49
100
AcDbEntity
  8
Layer 1
370
     0
100
AcDb2dPolyline
 66
     1
 10
0.0
 20
0.0
 30
0.0
  0
VERTEX
  5
4F
330
4E
100
AcDbEntity
  8
Layer 1
370
     0
100
AcDbVertex
100
AcDb2dVertex
 10
28.18694497569388
 20
18.6266592614975
 30
0.0
  0
VERTEX
  5
50
330
4E
100
AcDbEntity
  8
Layer 1
370
     0
100
AcDbVertex
100
AcDb2dVertex
 10
28.99833494097226
 20
18.6266592614975
 30
0.0
  0
VERTEX
  5
51
330
4E
100
AcDbEntity
  8
Layer 1
370
     0
100
AcDbVertex
100
AcDb2dVertex
 10
29.84499945424258
 20
17.95638094559112
 30
0.0
  0
VERTEX
  5
52
330
4E
100
AcDbEntity
  8
Layer 1
370
     0
100
AcDbVertex
100
AcDb2dVertex
 10
28.78666612117383
 20
18.06221535549033
 30
0.0
  0
VERTEX
  5
53
330
4E
100
AcDbEntity
  8
Layer 1
370
     0
100
AcDbVertex
100
AcDb2dVertex
 10
28.18694497569388
 20
18.6266592614975
 30
0.0
  0
SEQEND
  5
54
330
4E
100
AcDbEntity
  8
Layer 1
370
     0
  0
POLYLINE
  5
55
330
49
100
AcDbEntity
  8
Layer 1
370
     0
100
AcDb2dPolyline
 66
     1
 10
0.0
 20
0.0
 30
0.0
  0
VERTEX
  5
56
330
55
100
AcDbEntity
  8
Layer 1
370
     0
100
AcDbVertex
100
AcDb2dVertex
 10
28.71611164222825
 20
16.82749313357679
 30
0.0
  0
VERTEX
  5
57
330
55
100
AcDbEntity
  8
Layer 1
370
     0
100
AcDbVertex
100
AcDb2dVertex
 10
28.01055608684909
 20
17.63888309885517
 30
0.0
  0
VERTEX
  5
58
330
55
100
AcDbEntity
  8
Layer 1
370
     0
100
AcDbVertex
100
AcDb2dVertex
 10
28.01055608684909
 20
18.45027037265271
 30
0.0
  0
VERTEX
  5
59
330
55
100
AcDbEntity
  8
Layer 1
370
     0
100
AcDbVertex
100
AcDb2dVertex
 10
28.57499999285625
 20
17.88582646664554
 30
0.0
  0
VERTEX
  5
5A
330
55
100
AcDbEntity
  8
Layer 1
370
     0
100
AcDbVertex
100
AcDb2dVertex
 10
28.71611164222825
 20
16.82749313357679
 30
0.0
  0
SEQEND
  5
5B
330
55
100
AcDbEntity
  8
Layer 1
370
     0
  0
POLYLINE
  5
5C
330
49
100
AcDbEntity
  8
Layer 1
370
     0
100
AcDb2dPolyline
 66
     1
 10
0.0
 20
0.0
 30
0.0
  0
VERTEX
  5
5D
330
5C
100
AcDbEntity
  8
Layer 1
370
     0
100
AcDbVertex
100
AcDb2dVertex
 10
28.01055608684909
 20
19.0852714490863
 30
0.0
  0
VERTEX
  5
5E
330
5C
100
AcDbEntity
  8
Layer 1
370
     0
100
AcDbVertex
100
AcDb2dVertex
 10
28.01055608684909
 20
19.89665872288383
 30
0.0
  0
VERTEX
  5
5F
330
5C
100
AcDbEntity
  8
Layer 1
370
     0
100
AcDbVertex
100
AcDb2dVertex
 10
28.71611164222825
 20
20.743325927635
 30
0.0
  0
VERTEX
  5
60
330
5C
100
AcDbEntity
  8
Layer 1
370
     0
100
AcDbVertex
100
AcDb2dVertex
 10
28.57499999285625
 20
19.64971535509346
 30
0.0
  0
VERTEX
  5
61
330
5C
100
AcDbEntity
  8
Layer 1
370
     0
100
AcDbVertex
100
AcDb2dVertex
 10
28.01055608684909
 20
19.0852714490863
 30
0.0
  0
SEQEND
  5
62
330
5C
100
AcDbEntity
  8
Layer 1
370
     0
  0
POLYLINE
  5
63
330
49
100
AcDbEntity
  8
Layer 1
370
     0
100
AcDb2dPolyline
 66
     1
 10
0.0
 20
0.0
 30
0.0
  0
VERTEX
  5
64
330
63
100
AcDbEntity
  8
Layer 1
370
     0
100
AcDbVertex
100
AcDb2dVertex
 10
28.18694497569388
 20
18.9088825602415
 30
0.0
  0
VERTEX
  5
65
330
63
100
AcDbEntity
  8
Layer 1
370
     0
100
AcDbVertex
100
AcDb2dVertex
 10
28.78666612117383
 20
19.47332646624867
 30
0.0
  0
VERTEX
  5
66
330
63
100
AcDbEntity
  8
Layer 1
370
     0
100
AcDbVertex
100
AcDb2dVertex
 10
29.84499945424258
 20
19.57916087614788
 30
0.0
  0
VERTEX
  5
67
330
63
100
AcDbEntity
  8
Layer 1
370
     0
100
AcDbVertex
100
AcDb2dVertex
 10
28.99833224949141
 20
18.9088825602415
 30
0.0
  0
VERTEX
  5
68
330
63
100
AcDbEntity
  8
Layer 1
370
     0
100
AcDbVertex
100
AcDb2dVertex
 10
28.18694497569388
 20
18.9088825602415
 30
0.0
  0
SEQEND
  5
69
330
63
100
AcDbEntity
  8
Layer 1
370
     0
  0
SPLINE
  5
6A
330
49
100
AcDbEntity
  8
Layer 1
370
     0
100
AcDbSpline
210
0.0
220
0.0
230
1.0
 70
    11
 71
     3
 72
    17
 73
    13
 74
     0
 42
0.0000000001
 43
0.0000000001
 12
1.0
 22
0.0
 32
0.0
 13
1.0
 23
0.0
 33
0.0
 40
0.0
 40
0.0
 40
0.0
 40
0.0
 40
1.0
 40
1.0
 40
1.0
 40
2.0
 40
2.0
 40
2.0
 40
3.0
 40
3.0
 40
3.0
 40
4.0
 40
4.0
 40
4.0
 40
4.0
 10
29.88027938519622
 20
20.56693703879021
 30
0.0
 10
29.88027938519622
 20
20.56693703879021
 30
0.0
 10
29.98611110361459
 20
20.56693703879021
 30
0.0
 10
29.98611110361459
 20
20.56693703879021
 30
0.0
 10
30.05666558256016
 20
20.31999367099984
 30
0.0
 10
30.0919455135138
 20
20.10832485120141
 30
0.0
 10
30.16249999245938
 20
19.86138148341104
 30
0.0
 10
30.16249999245938
 20
19.86138148341104
 30
0.0
 10
29.06888941991784
 20
19.75554707351183
 30
0.0
 10
29.06888941991784
 20
19.75554707351183
 30
0.0
 10
29.06888941991784
 20
19.75554707351183
 30
0.0
 10
29.88027938519622
 20
20.56693703879021
 30
0.0
 10
29.88027938519622
 20
20.56693703879021
 30
0.0
  0
SPLINE
  5
6B
330
49
100
AcDbEntity
  8
Layer 1
370
     0
100
AcDbSpline
210
0.0
220
0.0
230
1.0
 70
    11
 71
     3
 72
    14
 73
    10
 74
     0
 42
0.0000000001
 43
0.0000000001
 12
1.0
 22
0.0
 32
0.0
 13
1.0
 23
0.0
 33
0.0
 40
0.0
 40
0.0
 40
0.0
 40
0.0
 40
1.0
 40
1.0
 40
1.0
 40
2.0
 40
2.0
 40
2.0
 40
3.0
 40
3.0
 40
3.0
 40
3.0
 10
30.2330571628858
 20
19.57915818466704
 30
0.0
 10
30.29345399311159
 20
19.35875550951733
 30
0.0
 10
30.34057643979577
 20
19.13492657924831
 30
0.0
 10
30.3741688122578
 20
18.90887986876066
 30
0.0
 10
30.3741688122578
 20
18.90887986876066
 30
0.0
 10
29.42166719760742
 20
18.90887986876066
 30
0.0
 10
29.42166719760742
 20
18.90887986876066
 30
0.0
 10
29.42166719760742
 20
18.90887986876066
 30
0.0
 10
30.2330571628858
 20
19.57915818466704
 30
0.0
 10
30.2330571628858
 20
19.57915818466704
 30
0.0
  0
SPLINE
  5
6C
330
49
100
AcDbEntity
  8
Layer 1
370
     0
100
AcDbSpline
210
0.0
220
0.0
230
1.0
 70
    11
 71
     3
 72
    14
 73
    10
 74
     0
 42
0.0000000001
 43
0.0000000001
 12
1.0
 22
0.0
 32
0.0
 13
1.0
 23
0.0
 33
0.0
 40
0.0
 40
0.0
 40
0.0
 40
0.0
 40
1.0
 40
1.0
 40
1.0
 40
2.0
 40
2.0
 40
2.0
 40
3.0
 40
3.0
 40
3.0
 40
3.0
 10
24.83555608764284
 20
42.6861031279874
 30
0.0
 10
26.17611271945559
 20
43.10943647803666
 30
0.0
 10
26.66999945503633
 20
42.05110322907669
 30
0.0
 10
26.10555554902917
 20
40.78110309482015
 30
0.0
 10
24.53662407579537
 20
39.43927675691742
 30
0.0
 10
22.55951742032109
 20
38.66832931929395
 30
0.0
 10
20.49638834546862
 20
38.59388094043175
 30
0.0
 10
21.27489918070965
 20
40.52676353765987
 30
0.0
 10
22.86042363337045
 20
42.02205340341561
 30
0.0
 10
24.83555608764284
 20
42.6861031279874
 30
0.0
  0
SPLINE
  5
6D
330
49
100
AcDbEntity
  8
Layer 1
370
     0
100
AcDbSpline
210
0.0
220
0.0
230
1.0
 70
    11
 71
     3
 72
    26
 73
    22
 74
     0
 42
0.0000000001
 43
0.0000000001
 12
1.0
 22
0.0
 32
0.0
 13
1.0
 23
0.0
 33
0.0
 40
0.0
 40
0.0
 40
0.0
 40
0.0
 40
1.0
 40
1.0
 40
1.0
 40
2.0
 40
2.0
 40
2.0
 40
3.0
 40
3.0
 40
3.0
 40
4.0
 40
4.0
 40
4.0
 40
5.0
 40
5.0
 40
5.0
 40
6.0
 40
6.0
 40
6.0
 40
7.0
 40
7.0
 40
7.0
 40
7.0
 10
21.48416719959179
 20
31.99693622848845
 30
0.0
 10
21.48416719959179
 20
31.99693622848845
 30
0.0
 10
21.5547230242778
 20
31.89110316432966
 30
0.0
 10
21.5547230242778
 20
31.89110316432966
 30
0.0
 10
21.52892652609156
 20
31.86216839947484
 30
0.0
 10
21.51616890687275
 20
31.82389554181839
 30
0.0
 10
21.51944578480501
 20
31.78527010017087
 30
0.0
 10
20.81241395218079
 20
32.01063990322529
 30
0.0
 10
20.09412634665087
 20
32.19904221683446
 30
0.0
 10
19.36750187919472
 20
32.34971400617804
 30
0.0
 10
19.29694605450872
 20
32.49082565555004
 30
0.0
 10
19.19111299034993
 20
32.66721454439483
 30
0.0
 10
19.12055716566393
 20
32.84360343323962
 30
0.0
 10
19.12055716566393
 20
32.84360343323962
 30
0.0
 10
19.08527992619114
 20
32.84360343323962
 30
0.0
 10
19.08527992619114
 20
32.84360343323962
 30
0.0
 10
18.76909686784937
 20
33.48630214489807
 30
0.0
 10
18.52080910537549
 20
34.16022539874265
 30
0.0
 10
18.34444443985834
 20
34.85443636234812
 30
0.0
 10
18.34444443985834
 20
34.85443636234812
 30
0.0
 10
21.48416719959179
 20
31.99693622848845
 30
0.0
 10
21.48416719959179
 20
31.99693622848845
 30
0.0
  0
SPLINE
  5
6E
330
49
100
AcDbEntity
  8
Layer 1
370
     0
100
AcDbSpline
210
0.0
220
0.0
230
1.0
 70
    11
 71
     3
 72
    29
 73
    25
 74
     0
 42
0.0000000001
 43
0.0000000001
 12
1.0
 22
0.0
 32
0.0
 13
1.0
 23
0.0
 33
0.0
 40
0.0
 40
0.0
 40
0.0
 40
0.0
 40
1.0
 40
1.0
 40
1.0
 40
2.0
 40
2.0
 40
2.0
 40
3.0
 40
3.0
 40
3.0
 40
4.0
 40
4.0
 40
4.0
 40
5.0
 40
5.0
 40
5.0
 40
6.0
 40
6.0
 40
6.0
 40
7.0
 40
7.0
 40
7.0
 40
8.0
 40
8.0
 40
8.0
 40
8.0
 10
16.22777777372083
 20
38.31165898742817
 30
0.0
 10
16.3709403314989
 20
38.44676998024988
 30
0.0
 10
16.56009491400505
 20
38.52243154410426
 30
0.0
 10
16.75694444025521
 20
38.52332578861596
 30
0.0
 10
16.96942743301011
 20
38.51481667191548
 30
0.0
 10
17.17092918390578
 20
38.42665990822495
 30
0.0
 10
17.32138834626237
 20
38.27638107508516
 30
0.0
 10
17.46181232227775
 20
38.1223967456881
 30
0.0
 10
17.53760307721282
 20
37.92028537438039
 30
0.0
 10
17.53305447457995
 20
37.71193649620779
 30
0.0
 10
17.52666086182588
 20
37.50917715088596
 30
0.0
 10
17.43740328246858
 20
37.31790908304404
 30
0.0
 10
17.28610976104916
 20
37.18276982967341
 30
0.0
 10
17.12866351441155
 20
37.04810696841286
 30
0.0
 10
16.92883451886282
 20
36.97317143151719
 30
0.0
 10
16.721665855042
 20
36.97110302848562
 30
0.0
 10
16.51067259693638
 20
36.98587589398927
 30
0.0
 10
16.31127020110203
 20
37.07311553558089
 30
0.0
 10
16.15722194903483
 20
37.21804774201642
 30
0.0
 10
16.02623968783372
 20
37.37554512679014
 30
0.0
 10
15.96283647350088
 20
37.57843904615436
 30
0.0
 10
15.98083306019004
 20
37.78249232089379
 30
0.0
 10
15.97235085829804
 20
37.988513068133
 30
0.0
 10
16.06443045532431
 20
38.18582552908899
 30
0.0
 10
16.22777777372083
 20
38.31165898742817
 30
0.0
  0
SPLINE
  5
6F
330
49
100
AcDbEntity
  8
Layer 1
370
     0
100
AcDbSpline
210
0.0
220
0.0
230
1.0
 70
    11
 71
     3
 72
   266
 73
   262
 74
     0
 42
0.0000000001
 43
0.0000000001
 12
1.0
 22
0.0
 32
0.0
 13
1.0
 23
0.0
 33
0.0
 40
0.0
 40
0.0
 40
0.0
 40
0.0
 40
1.0
 40
1.0
 40
1.0
 40
2.0
 40
2.0
 40
2.0
 40
3.0
 40
3.0
 40
3.0
 40
4.0
 40
4.0
 40
4.0
 40
5.0
 40
5.0
 40
5.0
 40
6.0
 40
6.0
 40
6.0
 40
7.0
 40
7.0
 40
7.0
 40
8.0
 40
8.0
 40
8.0
 40
9.0
 40
9.0
 40
9.0
 40
10.0
 40
10.0
 40
10.0
 40
11.0
 40
11.0
 40
11.0
 40
12.0
 40
12.0
 40
12.0
 40
13.0
 40
13.0
 40
13.0
 40
14.0
 40
14.0
 40
14.0
 40
15.0
 40
15.0
 40
15.0
 40
16.0
 40
16.0
 40
16.0
 40
17.0
 40
17.0
 40
17.0
 40
18.0
 40
18.0
 40
18.0
 40
19.0
 40
19.0
 40
19.0
 40
20.0
 40
20.0
 40
20.0
 40
21.0
 40
21.0
 40
21.0
 40
22.0
 40
22.0
 40
22.0
 40
23.0
 40
23.0
 40
23.0
 40
24.0
 40
24.0
 40
24.0
 40
25.0
 40
25.0
 40
25.0
 40
26.0
 40
26.0
 40
26.0
 40
27.0
 40
27.0
 40
27.0
 40
28.0
 40
28.0
 40
28.0
 40
29.0
 40
29.0
 40
29.0
 40
30.0
 40
30.0
 40
30.0
 40
31.0
 40
31.0
 40
31.0
 40
32.0
 40
32.0
 40
32.0
 40
33.0
 40
33.0
 40
33.0
 40
34.0
 40
34.0
 40
34.0
 40
35.0
 40
35.0
 40
35.0
 40
36.0
 40
36.0
 40
36.0
 40
37.0
 40
37.0
 40
37.0
 40
38.0
 40
38.0
 40
38.0
 40
39.0
 40
39.0
 40
39.0
 40
40.0
 40
40.0
 40
40.0
 40
41.0
 40
41.0
 40
41.0
 40
42.0
 40
42.0
 40
42.0
 40
43.0
 40
43.0
 40
43.0
 40
44.0
 40
44.0
 40
44.0
 40
45.0
 40
45.0
 40
45.0
 40
46.0
 40
46.0
 40
46.0
 40
47.0
 40
47.0
 40
47.0
 40
48.0
 40
48.0
 40
48.0
 40
49.0
 40
49.0
 40
49.0
 40
50.0
 40
50.0
 40
50.0
 40
51.0
 40
51.0
 40
51.0
 40
52.0
 40
52.0
 40
52.0
 40
53.0
 40
53.0
 40
53.0
 40
54.0
 40
54.0
 40
54.0
 40
55.0
 40
55.0
 40
55.0
 40
56.0
 40
56.0
 40
56.0
 40
57.0
 40
57.0
 40
57.0
 40
58.0
 40
58.0
 40
58.0
 40
59.0
 40
59.0
 40
59.0
 40
60.0
 40
60.0
 40
60.0
 40
61.0
 40
61.0
 40
61.0
 40
62.0
 40
62.0
 40
62.0
 40
63.0
 40
63.0
 40
63.0
 40
64.0
 40
64.0
 40
64.0
 40
65.0
 40
65.0
 40
65.0
 40
66.0
 40
66.0
 40
66.0
 40
67.0
 40
67.0
 40
67.0
 40
68.0
 40
68.0
 40
68.0
 40
69.0
 40
69.0
 40
69.0
 40
70.0
 40
70.0
 40
70.0
 40
71.0
 40
71.0
 40
71.0
 40
72.0
 40
72.0
 40
72.0
 40
73.0
 40
73.0
 40
73.0
 40
74.0
 40
74.0
 40
74.0
 40
75.0
 40
75.0
 40
75.0
 40
76.0
 40
76.0
 40
76.0
 40
77.0
 40
77.0
 40
77.0
 40
78.0
 40
78.0
 40
78.0
 40
79.0
 40
79.0
 40
79.0
 40
80.0
 40
80.0
 40
80.0
 40
81.0
 40
81.0
 40
81.0
 40
82.0
 40
82.0
 40
82.0
 40
83.0
 40
83.0
 40
83.0
 40
84.0
 40
84.0
 40
84.0
 40
85.0
 40
85.0
 40
85.0
 40
86.0
 40
86.0
 40
86.0
 40
87.0
 40
87.0
 40
87.0
 40
87.0
 10
16.33361083787963
 20
30.62110370294333
 30
0.0
 10
22.39630333022653
 20
30.6076866709168
 30
0.0
 10
27.79381113417161
 20
26.77856531533382
 30
0.0
 10
29.80972221476979
 20
21.06082646585179
 30
0.0
 10
29.80972221476979
 20
21.06082646585179
 30
0.0
 10
29.774444975297
 20
21.06082646585179
 30
0.0
 10
29.774444975297
 20
21.06082646585179
 30
0.0
 10
29.70051807084907
 20
20.98705297581219
 30
0.0
 10
29.67337717797934
 20
20.8784867128524
 30
0.0
 10
29.70389049635143
 20
20.77860316710779
 30
0.0
 10
29.70389049635143
 20
20.77860316710779
 30
0.0
 10
28.89250053107305
 20
19.96721320182941
 30
0.0
 10
28.89250053107305
 20
19.96721320182941
 30
0.0
 10
28.89250053107305
 20
19.96721320182941
 30
0.0
 10
28.99833494097226
 20
21.13138094479737
 30
0.0
 10
28.99833494097226
 20
21.13138094479737
 30
0.0
 10
28.99833494097226
 20
21.20193542374295
 30
0.0
 10
28.96305770149947
 20
21.27249259416937
 30
0.0
 10
28.92778046202668
 20
21.27249259416937
 30
0.0
 10
28.92778046202668
 20
21.27249259416937
 30
0.0
 10
28.75139157318189
 20
21.27249259416937
 30
0.0
 10
28.75139157318189
 20
21.27249259416937
 30
0.0
 10
28.75139157318189
 20
21.27249259416937
 30
0.0
 10
28.01055877832994
 20
20.35527091047263
 30
0.0
 10
28.01055877832994
 20
20.35527091047263
 30
0.0
 10
28.01055877832994
 20
20.35527091047263
 30
0.0
 10
28.01055877832994
 20
21.44888148301417
 30
0.0
 10
28.01055877832994
 20
21.44888148301417
 30
0.0
 10
28.11237480732331
 20
21.48989157669288
 30
0.0
 10
28.18117444075608
 20
21.58621429327578
 30
0.0
 10
28.18694766717473
 20
21.69582485080453
 30
0.0
 10
28.18694766717473
 20
21.71530848066213
 30
0.0
 10
28.17115405755953
 20
21.73110209027733
 30
0.0
 10
28.15167042770194
 20
21.73110209027733
 30
0.0
 10
28.15167042770194
 20
21.73110209027733
 30
0.0
 10
27.90472705991157
 20
21.73110209027733
 30
0.0
 10
27.90472705991157
 20
21.73110209027733
 30
0.0
 10
27.90472705991157
 20
21.73110209027733
 30
0.0
 10
28.50444820539152
 20
22.64832377397407
 30
0.0
 10
28.50444820539152
 20
22.64832377397407
 30
0.0
 10
28.53972544486431
 20
22.64832377397407
 30
0.0
 10
28.50444820539152
 20
22.68360101344686
 30
0.0
 10
28.50444820539152
 20
22.71887959866007
 30
0.0
 10
28.50444820539152
 20
22.71887959866007
 30
0.0
 10
28.22222490664752
 20
23.03638013687687
 30
0.0
 10
28.22222490664752
 20
23.03638013687687
 30
0.0
 10
28.18694766717473
 20
23.07165737634966
 30
0.0
 10
28.18694766717473
 20
23.07165737634966
 30
0.0
 10
28.15167042770194
 20
23.03638013687687
 30
0.0
 10
27.82237312892901
 20
22.508389647473
 30
0.0
 10
27.44443000531202
 20
22.01234165277144
 30
0.0
 10
27.02278261568761
 20
21.55471320143253
 30
0.0
 10
26.67000483799803
 20
21.20193542374295
 30
0.0
 10
26.45833870968045
 20
20.99026929542537
 30
0.0
 10
26.31722706030844
 20
21.02554653489816
 30
0.0
 10
26.17611541093644
 20
21.06082377437095
 30
0.0
 10
26.14083817146365
 20
21.09610101384374
 30
0.0
 10
26.14083817146365
 20
21.27248990268853
 30
0.0
 10
26.16368615238106
 20
21.60250582684783
 30
0.0
 10
26.24741004711518
 20
21.92544315637728
 30
0.0
 10
26.38778153925402
 20
22.22499017159848
 30
0.0
 10
26.56417042809881
 20
22.64832377397407
 30
0.0
 10
26.95222544526118
 20
23.53026821819803
 30
0.0
 10
27.62250376116756
 20
24.87082350427036
 30
0.0
 10
27.62250376116756
 20
24.87082350427036
 30
0.0
 10
27.62250376116756
 20
24.94137932895636
 30
0.0
 10
27.62250376116756
 20
24.94137932895636
 30
0.0
 10
27.62250376116756
 20
24.94137932895636
 30
0.0
 10
26.49361056619154
 20
24.94137932895636
 30
0.0
 10
26.49361056619154
 20
24.94137932895636
 30
0.0
 10
26.43809069926206
 20
24.94137932895636
 30
0.0
 10
26.38581137527339
 20
24.91523966696203
 30
0.0
 10
26.35249891681954
 20
24.87082350427036
 30
0.0
 10
26.28194443787396
 20
24.76499044011157
 30
0.0
 10
26.28194443787396
 20
24.69443461542557
 30
0.0
 10
26.24666450692032
 20
24.65915737595278
 30
0.0
 10
26.11866306075821
 20
25.07328611382871
 30
0.0
 10
25.72719255439991
 20
25.34876590730843
 30
0.0
 10
25.29416558375079
 20
25.32943569185916
 30
0.0
 10
24.86824950550169
 20
25.33313782376538
 30
0.0
 10
24.45081159192332
 20
25.21036188766936
 30
0.0
 10
24.09472060131003
 20
24.97665791416958
 30
0.0
 10
23.71008107334358
 20
24.75129887703855
 30
0.0
 10
23.37426769943801
 20
24.45146521910705
 30
0.0
 10
23.10694174718686
 20
24.09471346994562
 30
0.0
 10
22.86144639609264
 20
23.73847310214527
 30
0.0
 10
22.64890015353781
 20
23.36061610591541
 30
0.0
 10
22.4719420164937
 20
22.96582431219086
 30
0.0
 10
22.4719420164937
 20
22.93054707271808
 30
0.0
 10
22.4719420164937
 20
22.89526848750486
 30
0.0
 10
22.43666477702091
 20
22.89526848750486
 30
0.0
 10
22.08002607005508
 20
22.30634287170565
 30
0.0
 10
21.62685067377894
 20
21.78161311134895
 30
0.0
 10
21.09610949094857
 20
21.34304707311495
 30
0.0
 10
21.12685427667358
 20
21.65955983786058
 30
0.0
 10
21.1386335426042
 20
21.97762827853628
 30
0.0
 10
21.13138673042137
 20
22.29554734202491
 30
0.0
 10
21.12789184254043
 20
22.63765205241234
 30
0.0
 10
21.10433196493876
 20
22.97925749310249
 30
0.0
 10
21.06083090573536
 20
23.31860343562087
 30
0.0
 10
21.03576783608017
 20
23.63640003673093
 30
0.0
 10
21.04760631458944
 20
23.9560308820388
 30
0.0
 10
21.09610814520815
 20
24.27110370453083
 30
0.0
 10
21.13078922167314
 20
24.53933668582771
 30
0.0
 10
21.25510737629498
 20
24.78797568655222
 30
0.0
 10
21.44888592289773
 20
24.97665925991
 30
0.0
 10
21.4433831903043
 20
25.13212726812444
 30
0.0
 10
21.36495209265749
 20
25.27591694094006
 30
0.0
 10
21.23721979458016
 20
25.36471427707237
 30
0.0
 10
21.10695212154414
 20
25.49765055336903
 30
0.0
 10
20.92943415648368
 20
25.57372929675482
 30
0.0
 10
20.74333036751857
 20
25.57638040538995
 30
0.0
 10
20.36133791096598
 20
25.58951214044662
 30
0.0
 10
20.00020712246509
 20
25.40225908915948
 30
0.0
 10
19.79083009860861
 20
25.08249097832837
 30
0.0
 10
19.29694067154702
 20
24.27110235879041
 30
0.0
 10
18.90888565438465
 20
23.67137986757003
 30
0.0
 10
18.55610787669507
 20
23.17749044050845
 30
0.0
 10
18.55610787669507
 20
23.17749044050845
 30
0.0
 10
18.52083063722228
 20
23.17749044050845
 30
0.0
 10
18.52083063722228
 20
23.17749044050845
 30
0.0
 10
18.37971898785027
 20
22.93054572697765
 30
0.0
 10
18.2386086842187
 20
22.75415683813286
 30
0.0
 10
18.09749703484669
 20
22.54249070981528
 30
0.0
 10
18.02301433960368
 20
22.49468597273617
 30
0.0
 10
17.97186543757111
 20
22.41796396542774
 30
0.0
 10
17.95638538547469
 20
22.3308245814977
 30
0.0
 10
17.95638538547469
 20
22.3308245814977
 30
0.0
 10
17.39194147946753
 20
21.66054761133175
 30
0.0
 10
17.39194147946753
 20
21.66054761133175
 30
0.0
 10
17.03916370177794
 20
21.30776983364216
 30
0.0
 10
16.79221898824715
 20
21.13138094479737
 30
0.0
 10
16.65110868461557
 20
21.13138094479737
 30
0.0
 10
16.50999703524357
 20
21.13138094479737
 30
0.0
 10
16.43944255629799
 20
21.20193542374295
 30
0.0
 10
16.43944255629799
 20
21.37832431258774
 30
0.0
 10
16.493608608361
 20
21.72911577741161
 30
0.0
 10
16.5883164364352
 20
22.07243165418057
 30
0.0
 10
16.72166450930157
 20
22.4013804061837
 30
0.0
 10
16.89805339814636
 20
22.85999124803207
 30
0.0
 10
17.35666423999474
 20
23.81249151694204
 30
0.0
 10
18.06221979537391
 20
25.25887986717316
 30
0.0
 10
18.06221979537391
 20
25.25887986717316
 30
0.0
 10
18.06221979537391
 20
25.32943569185916
 30
0.0
 10
18.06221979537391
 20
25.32943569185916
 30
0.0
 10
18.06221979537391
 20
25.32943569185916
 30
0.0
 10
17.70944201768432
 20
25.32943569185916
 30
0.0
 10
17.70944201768432
 20
25.32943569185916
 30
0.0
 10
17.70944201768432
 20
25.32943569185916
 30
0.0
 10
18.02694255590112
 20
25.54110182017674
 30
0.0
 10
18.02694255590112
 20
25.54110182017674
 30
0.0
 10
18.16832200761748
 20
25.70162712090429
 30
0.0
 10
18.26557193935247
 20
25.89612698437428
 30
0.0
 10
18.3091645089047
 20
26.1055457261839
 30
0.0
 10
18.38119930231659
 20
26.26480468517255
 30
0.0
 10
18.33786915214703
 20
26.45256777208036
 30
0.0
 10
18.20333144474591
 20
26.56415656803228
 30
0.0
 10
18.08511622294658
 20
26.68728239663851
 30
0.0
 10
17.91170411191951
 20
26.74063965870674
 30
0.0
 10
17.74472060289753
 20
26.70526821740428
 30
0.0
 10
17.54881847790582
 20
26.65354064698942
 30
0.0
 10
17.36764817333482
 20
26.55691648455156
 30
0.0
 10
17.21555393636316
 20
26.4230462644007
 30
0.0
 10
17.0719755447941
 20
26.27224259249558
 30
0.0
 10
16.9635492388384
 20
26.09153253114956
 30
0.0
 10
16.89805339814636
 20
25.89387959786632
 30
0.0
 10
16.84904826060911
 20
25.71581526219374
 30
0.0
 10
16.90348480649733
 20
25.52528802445519
 30
0.0
 10
17.03916504751837
 20
25.39999017080474
 30
0.0
 10
17.03916504751837
 20
25.39999017080474
 30
0.0
 10
16.9333333291
 20
25.39999017080474
 30
0.0
 10
16.9333333291
 20
25.39999017080474
 30
0.0
 10
16.87781346217052
 20
25.39999017080474
 30
0.0
 10
16.82553413818185
 20
25.3738505088104
 30
0.0
 10
16.792221679728
 20
25.32943434611873
 30
0.0
 10
16.11018562973778
 20
23.9183232353604
 30
0.0
 10
15.68685068162177
 20
23.00110020592323
 30
0.0
 10
15.52222221834167
 20
22.57776794928807
 30
0.0
 10
15.38787829756159
 20
22.22696302705996
 30
0.0
 10
15.30471019362255
 20
21.858651367657
 30
0.0
 10
15.27527750481087
 20
21.48415603100611
 30
0.0
 10
15.27527750481087
 20
21.48415603100611
 30
0.0
 10
15.27527750481087
 20
21.41360155206053
 30
0.0
 10
15.27527750481087
 20
21.41360155206053
 30
0.0
 10
15.27527750481087
 20
21.46912141899001
 30
0.0
 10
15.24913784281654
 20
21.52140074297867
 30
0.0
 10
15.20472168012487
 20
21.55471320143253
 30
0.0
 10
15.20472168012487
 20
21.55471320143253
 30
0.0
 10
15.06361003075287
 20
21.62526768037811
 30
0.0
 10
15.06361003075287
 20
21.62526768037811
 30
0.0
 10
15.06361003075287
 20
21.62526768037811
 30
0.0
 10
14.88722114190808
 20
21.62526768037811
 30
0.0
 10
14.88722114190808
 20
21.62526768037811
 30
0.0
 10
14.87552127466247
 20
21.31477844976997
 30
0.0
 10
14.70130575660232
 20
21.03335452083778
 30
0.0
 10
14.4286103000597
 20
20.88443488552615
 30
0.0
 10
13.99066599390156
 20
20.6337799656466
 30
0.0
 10
13.48227083081048
 20
20.53458005603734
 30
0.0
 10
12.98222194982858
 20
20.60221158678215
 30
0.0
 10
12.01257291069654
 20
20.66837356898403
 30
0.0
 10
11.05376246493879
 20
20.84593056051679
 30
0.0
 10
10.12472248883913
 20
21.13138094479737
 30
0.0
 10
10.48328089451968
 20
21.54759154310912
 30
0.0
 10
10.80216687250291
 20
21.99639462874792
 30
0.0
 10
11.07722275774909
 20
22.47193623086971
 30
0.0
 10
11.33809319318666
 20
22.90479094674456
 30
0.0
 10
11.5736731288374
 20
23.3523922861848
 30
0.0
 10
11.78277831312825
 20
23.81249151694204
 30
0.0
 10
11.95916720197305
 20
24.12999205515883
 30
0.0
 10
12.20611191550384
 20
24.65915872169321
 30
0.0
 10
12.52361110798021
 20
25.36471427707237
 30
0.0
 10
12.52361110798021
 20
25.36471427707237
 30
0.0
 10
12.66472275735221
 20
25.71749205476195
 30
0.0
 10
12.66472275735221
 20
25.71749205476195
 30
0.0
 10
13.38447452846337
 20
25.7514504686193
 30
0.0
 10
14.0964008190094
 20
25.88196979511458
 30
0.0
 10
14.78138942348971
 20
26.10554707192433
 30
0.0
 10
15.35066319187835
 20
26.28908184242016
 30
0.0
 10
15.8866850601322
 20
26.56304767792296
 30
0.0
 10
16.36888942309284
 20
26.91693569146229
 30
0.0
 10
16.75051583825012
 20
27.20319082851637
 30
0.0
 10
17.08397416641382
 20
27.54855895943182
 30
0.0
 10
17.35666693147559
 20
27.93999178505825
 30
0.0
 10
17.58342284716664
 20
28.24648147512648
 30
0.0
 10
17.70695508938091
 20
28.61707954750969
 30
0.0
 10
17.70944470916517
 20
28.998325118127
 30
0.0
 10
17.74004684640524
 20
29.30783868692779
 30
0.0
 10
17.63741260723412
 20
29.61574275018157
 30
0.0
 10
17.42722275616159
 20
29.84499232287817
 30
0.0
 10
17.23456251985111
 20
30.06327949408146
 30
0.0
 10
16.9927127795653
 20
30.23257498515174
 30
0.0
 10
16.72166720078242
 20
30.33888174993975
 30
0.0
 10
16.46173743790117
 20
30.43375914130736
 30
0.0
 10
16.18697761554825
 20
30.48154369228012
 30
0.0
 10
15.91027858124446
 20
30.47999339931176
 30
0.0
 10
15.44614212921545
 20
30.50867785644773
 30
0.0
 10
14.98289924882793
 20
30.41115339366626
 30
0.0
 10
14.56972329517213
 20
30.19777144630817
 30
0.0
 10
14.11788960209865
 20
29.99757910084498
 30
0.0
 10
13.71021907251713
 20
29.7098113515544
 30
0.0
 10
13.37027831273138
 20
29.351104241557
 30
0.0
 10
12.99327317018986
 20
28.9454590513135
 30
0.0
 10
12.6510486889047
 20
28.50882684206868
 30
0.0
 10
12.34722221913542
 20
28.04582484921703
 30
0.0
 10
11.99150534435998
 20
27.52825711939647
 30
0.0
 10
11.67319601614841
 20
26.98595333484374
 30
0.0
 10
11.39472195022546
 20
26.42304761014112
 30
0.0
 10
10.8446323844501
 20
26.45344250335591
 30
0.0
 10
10.2999964317427
 20
26.5481610973535
 30
0.0
 10
9.771944038279331
 20
26.7052695631447
 30
0.0
 10
9.374680792266247
 20
26.83863782211744
 30
0.0
 10
9.004357250929521
 20
27.04171812653037
 30
0.0
 10
8.67833279286758
 20
27.30499205436508
 30
0.0
 10
8.459616330469053
 20
27.49147803361059
 30
0.0
 10
8.279800513634735
 20
27.71924460036001
 30
0.0
 10
8.149166126333206
 20
27.97527037027146
 30
0.0
 10
8.149166126333206
 20
27.97527037027146
 30
0.0
 10
8.113888886860417
 20
27.97527037027146
 30
0.0
 10
8.113888886860417
 20
27.97527037027146
 30
0.0
 10
10.51636524997168
 20
29.6818118762942
 30
0.0
 10
13.38675824996277
 20
30.60575822488931
 30
0.0
 10
16.33361083787963
 20
30.62110370294333
 30
0.0
  0
POLYLINE
  5
70
330
49
100
AcDbEntity
  8
Layer 1
370
     0
100
AcDb2dPolyline
 66
     1
 10
0.0
 20
0.0
 30
0.0
  0
VERTEX
  5
71
330
70
100
AcDbEntity
  8
Layer 1
370
     0
100
AcDbVertex
100
AcDb2dVertex
 10
27.76361002757787
 20
21.44888148301417
 30
0.0
  0
VERTEX
  5
72
330
70
100
AcDbEntity
  8
Layer 1
370
     0
100
AcDbVertex
100
AcDb2dVertex
 10
27.76361002757787
 20
20.2847137400462
 30
0.0
  0
VERTEX
  5
73
330
70
100
AcDbEntity
  8
Layer 1
370
     0
100
AcDbVertex
100
AcDb2dVertex
 10
27.2344433610435
 20
20.91971481647979
 30
0.0
  0
VERTEX
  5
74
330
70
100
AcDbEntity
  8
Layer 1
370
     0
100
AcDbVertex
100
AcDb2dVertex
 10
27.62249837820587
 20
21.37832700406859
 30
0.0
  0
VERTEX
  5
75
330
70
100
AcDbEntity
  8
Layer 1
370
     0
100
AcDbVertex
100
AcDb2dVertex
 10
27.69305285715145
 20
21.4841614139678
 30
0.0
  0
VERTEX
  5
76
330
70
100
AcDbEntity
  8
Layer 1
370
     0
100
AcDbVertex
100
AcDb2dVertex
 10
27.76361002757787
 20
21.44888148301417
 30
0.0
  0
SEQEND
  5
77
330
70
100
AcDbEntity
  8
Layer 1
370
     0
  0
SPLINE
  5
78
330
49
100
AcDbEntity
  8
Layer 1
370
     0
100
AcDbSpline
210
0.0
220
0.0
230
1.0
 70
    11
 71
     3
 72
    32
 73
    28
 74
     0
 42
0.0000000001
 43
0.0000000001
 12
1.0
 22
0.0
 32
0.0
 13
1.0
 23
0.0
 33
0.0
 40
0.0
 40
0.0
 40
0.0
 40
0.0
 40
1.0
 40
1.0
 40
1.0
 40
2.0
 40
2.0
 40
2.0
 40
3.0
 40
3.0
 40
3.0
 40
4.0
 40
4.0
 40
4.0
 40
5.0
 40
5.0
 40
5.0
 40
6.0
 40
6.0
 40
6.0
 40
7.0
 40
7.0
 40
7.0
 40
8.0
 40
8.0
 40
8.0
 40
9.0
 40
9.0
 40
9.0
 40
9.0
 10
25.82333225028516
 20
23.88304868736846
 30
0.0
 10
25.66590484401348
 20
23.57305468923632
 30
0.0
 10
25.52460479098213
 20
23.25512889704557
 30
0.0
 10
25.39999999365
 20
22.93054707271808
 30
0.0
 10
24.69444443827084
 20
21.80165926070375
 30
0.0
 10
24.16527777173646
 20
21.23721266321574
 30
0.0
 10
23.7419455151013
 20
21.27249259416937
 30
0.0
 10
23.64784057873702
 20
21.26715538764808
 30
0.0
 10
23.56154631979321
 20
21.32468579077091
 30
0.0
 10
23.53027938678372
 20
21.41360424354138
 30
0.0
 10
23.4538843943983
 20
21.52807023251965
 30
0.0
 10
23.41674195869795
 20
21.66425647194009
 30
0.0
 10
23.42444497688451
 20
21.80165926070375
 30
0.0
 10
23.44483832726867
 20
22.24188459688045
 30
0.0
 10
23.55277478371006
 20
22.67362773116515
 30
0.0
 10
23.7419455151013
 20
23.07165872209008
 30
0.0
 10
23.91119659673759
 20
23.54648035308506
 30
0.0
 10
24.16189188882986
 20
23.98817792928554
 30
0.0
 10
24.48277830995325
 20
24.37693676868962
 30
0.0
 10
24.80027884817005
 20
24.72971454637921
 30
0.0
 10
25.08249945543321
 20
24.94138067469679
 30
0.0
 10
25.36472275417721
 20
24.906103435224
 30
0.0
 10
25.64694605292122
 20
24.87082619575121
 30
0.0
 10
25.64694605292122
 20
24.835547610538
 30
0.0
 10
25.75277777133958
 20
24.62388148222042
 30
0.0
 10
25.83601989100193
 20
24.38631119648269
 30
0.0
 10
25.86023514419005
 20
24.1320604581904
 30
0.0
 10
25.82333225028516
 20
23.88304868736846
 30
0.0
  0
POLYLINE
  5
79
330
49
100
AcDbEntity
  8
Layer 1
370
     0
100
AcDb2dPolyline
 66
     1
 10
0.0
 20
0.0
 30
0.0
  0
VERTEX
  5
7A
330
79
100
AcDbEntity
  8
Layer 1
370
     0
100
AcDbVertex
100
AcDb2dVertex
 10
26.84638834388112
 20
20.60221427826299
 30
0.0
  0
VERTEX
  5
7B
330
79
100
AcDbEntity
  8
Layer 1
370
     0
100
AcDbVertex
100
AcDb2dVertex
 10
26.9169428228267
 20
19.93193596235662
 30
0.0
  0
VERTEX
  5
7C
330
79
100
AcDbEntity
  8
Layer 1
370
     0
100
AcDbVertex
100
AcDb2dVertex
 10
26.45833332671875
 20
20.39054814994542
 30
0.0
  0
VERTEX
  5
7D
330
79
100
AcDbEntity
  8
Layer 1
370
     0
100
AcDbVertex
100
AcDb2dVertex
 10
26.45833332671875
 20
20.39054814994542
 30
0.0
  0
VERTEX
  5
7E
330
79
100
AcDbEntity
  8
Layer 1
370
     0
100
AcDbVertex
100
AcDb2dVertex
 10
26.84638834388112
 20
20.60221427826299
 30
0.0
  0
SEQEND
  5
7F
330
79
100
AcDbEntity
  8
Layer 1
370
     0
  0
POLYLINE
  5
80
330
49
100
AcDbEntity
  8
Layer 1
370
     0
100
AcDb2dPolyline
 66
     1
 10
0.0
 20
0.0
 30
0.0
  0
VERTEX
  5
81
330
80
100
AcDbEntity
  8
Layer 1
370
     0
100
AcDbVertex
100
AcDb2dVertex
 10
27.02277723272591
 20
19.47332646624867
 30
0.0
  0
VERTEX
  5
82
330
80
100
AcDbEntity
  8
Layer 1
370
     0
100
AcDbVertex
100
AcDb2dVertex
 10
27.58722113873308
 20
18.9088825602415
 30
0.0
  0
VERTEX
  5
83
330
80
100
AcDbEntity
  8
Layer 1
370
     0
100
AcDbVertex
100
AcDb2dVertex
 10
26.77583386493555
 20
18.9088825602415
 30
0.0
  0
VERTEX
  5
84
330
80
100
AcDbEntity
  8
Layer 1
370
     0
100
AcDbVertex
100
AcDb2dVertex
 10
25.92916666018438
 20
19.57916087614788
 30
0.0
  0
VERTEX
  5
85
330
80
100
AcDbEntity
  8
Layer 1
370
     0
100
AcDbVertex
100
AcDb2dVertex
 10
27.02277723272591
 20
19.47332646624867
 30
0.0
  0
SEQEND
  5
86
330
80
100
AcDbEntity
  8
Layer 1
370
     0
  0
POLYLINE
  5
87
330
49
100
AcDbEntity
  8
Layer 1
370
     0
100
AcDb2dPolyline
 66
     1
 10
0.0
 20
0.0
 30
0.0
  0
VERTEX
  5
88
330
87
100
AcDbEntity
  8
Layer 1
370
     0
100
AcDbVertex
100
AcDb2dVertex
 10
27.58722113873308
 20
18.6266592614975
 30
0.0
  0
VERTEX
  5
89
330
87
100
AcDbEntity
  8
Layer 1
370
     0
100
AcDbVertex
100
AcDb2dVertex
 10
27.02277723272591
 20
18.06221535549033
 30
0.0
  0
VERTEX
  5
8A
330
87
100
AcDbEntity
  8
Layer 1
370
     0
100
AcDbVertex
100
AcDb2dVertex
 10
25.92916666018438
 20
17.95638094559112
 30
0.0
  0
VERTEX
  5
8B
330
87
100
AcDbEntity
  8
Layer 1
370
     0
100
AcDbVertex
100
AcDb2dVertex
 10
26.77583386493555
 20
18.6266592614975
 30
0.0
  0
VERTEX
  5
8C
330
87
100
AcDbEntity
  8
Layer 1
370
     0
100
AcDbVertex
100
AcDb2dVertex
 10
27.58722113873308
 20
18.6266592614975
 30
0.0
  0
SEQEND
  5
8D
330
87
100
AcDbEntity
  8
Layer 1
370
     0
  0
POLYLINE
  5
8E
330
49
100
AcDbEntity
  8
Layer 1
370
     0
100
AcDb2dPolyline
 66
     1
 10
0.0
 20
0.0
 30
0.0
  0
VERTEX
  5
8F
330
8E
100
AcDbEntity
  8
Layer 1
370
     0
100
AcDbVertex
100
AcDb2dVertex
 10
27.19916612157071
 20
17.88582646664554
 30
0.0
  0
VERTEX
  5
90
330
8E
100
AcDbEntity
  8
Layer 1
370
     0
100
AcDbVertex
100
AcDb2dVertex
 10
27.76361002757787
 20
18.45027037265271
 30
0.0
  0
VERTEX
  5
91
330
8E
100
AcDbEntity
  8
Layer 1
370
     0
100
AcDbVertex
100
AcDb2dVertex
 10
27.76361002757787
 20
17.63888040737433
 30
0.0
  0
VERTEX
  5
92
330
8E
100
AcDbEntity
  8
Layer 1
370
     0
100
AcDbVertex
100
AcDb2dVertex
 10
27.09333171167149
 20
16.82749044209595
 30
0.0
  0
VERTEX
  5
93
330
8E
100
AcDbEntity
  8
Layer 1
370
     0
100
AcDbVertex
100
AcDb2dVertex
 10
27.19916612157071
 20
17.88582646664554
 30
0.0
  0
SEQEND
  5
94
330
8E
100
AcDbEntity
  8
Layer 1
370
     0
  0
POLYLINE
  5
95
330
49
100
AcDbEntity
  8
Layer 1
370
     0
100
AcDb2dPolyline
 66
     1
 10
0.0
 20
0.0
 30
0.0
  0
VERTEX
  5
96
330
95
100
AcDbEntity
  8
Layer 1
370
     0
100
AcDbVertex
100
AcDb2dVertex
 10
27.19916612157071
 20
19.64971535509346
 30
0.0
  0
VERTEX
  5
97
330
95
100
AcDbEntity
  8
Layer 1
370
     0
100
AcDbVertex
100
AcDb2dVertex
 10
27.09333171167149
 20
20.743325927635
 30
0.0
  0
VERTEX
  5
98
330
95
100
AcDbEntity
  8
Layer 1
370
     0
100
AcDbVertex
100
AcDb2dVertex
 10
27.76361002757787
 20
19.89665872288383
 30
0.0
  0
VERTEX
  5
99
330
95
100
AcDbEntity
  8
Layer 1
370
     0
100
AcDbVertex
100
AcDb2dVertex
 10
27.76361002757787
 20
19.08526875760545
 30
0.0
  0
VERTEX
  5
9A
330
95
100
AcDbEntity
  8
Layer 1
370
     0
100
AcDbVertex
100
AcDb2dVertex
 10
27.19916612157071
 20
19.64971535509346
 30
0.0
  0
SEQEND
  5
9B
330
95
100
AcDbEntity
  8
Layer 1
370
     0
  0
SPLINE
  5
9C
330
49
100
AcDbEntity
  8
Layer 1
370
     0
100
AcDbSpline
210
0.0
220
0.0
230
1.0
 70
    11
 71
     3
 72
   137
 73
   133
 74
     0
 42
0.0000000001
 43
0.0000000001
 12
1.0
 22
0.0
 32
0.0
 13
1.0
 23
0.0
 33
0.0
 40
0.0
 40
0.0
 40
0.0
 40
0.0
 40
1.0
 40
1.0
 40
1.0
 40
2.0
 40
2.0
 40
2.0
 40
3.0
 40
3.0
 40
3.0
 40
4.0
 40
4.0
 40
4.0
 40
5.0
 40
5.0
 40
5.0
 40
6.0
 40
6.0
 40
6.0
 40
7.0
 40
7.0
 40
7.0
 40
8.0
 40
8.0
 40
8.0
 40
9.0
 40
9.0
 40
9.0
 40
10.0
 40
10.0
 40
10.0
 40
11.0
 40
11.0
 40
11.0
 40
12.0
 40
12.0
 40
12.0
 40
13.0
 40
13.0
 40
13.0
 40
14.0
 40
14.0
 40
14.0
 40
15.0
 40
15.0
 40
15.0
 40
16.0
 40
16.0
 40
16.0
 40
17.0
 40
17.0
 40
17.0
 40
18.0
 40
18.0
 40
18.0
 40
19.0
 40
19.0
 40
19.0
 40
20.0
 40
20.0
 40
20.0
 40
21.0
 40
21.0
 40
21.0
 40
22.0
 40
22.0
 40
22.0
 40
23.0
 40
23.0
 40
23.0
 40
24.0
 40
24.0
 40
24.0
 40
25.0
 40
25.0
 40
25.0
 40
26.0
 40
26.0
 40
26.0
 40
27.0
 40
27.0
 40
27.0
 40
28.0
 40
28.0
 40
28.0
 40
29.0
 40
29.0
 40
29.0
 40
30.0
 40
30.0
 40
30.0
 40
31.0
 40
31.0
 40
31.0
 40
32.0
 40
32.0
 40
32.0
 40
33.0
 40
33.0
 40
33.0
 40
34.0
 40
34.0
 40
34.0
 40
35.0
 40
35.0
 40
35.0
 40
36.0
 40
36.0
 40
36.0
 40
37.0
 40
37.0
 40
37.0
 40
38.0
 40
38.0
 40
38.0
 40
39.0
 40
39.0
 40
39.0
 40
40.0
 40
40.0
 40
40.0
 40
41.0
 40
41.0
 40
41.0
 40
42.0
 40
42.0
 40
42.0
 40
43.0
 40
43.0
 40
43.0
 40
44.0
 40
44.0
 40
44.0
 40
44.0
 10
13.47611137689017
 20
15.48693650176404
 30
0.0
 10
13.26444524857259
 20
14.2522142798505
 30
0.0
 10
13.15861083867337
 20
14.32276875879607
 30
0.0
 10
13.15861083867337
 20
14.32276875879607
 30
0.0
 10
12.41777804382142
 20
14.81665818585766
 30
0.0
 10
11.57111083907025
 20
15.23999044249282
 30
0.0
 10
11.42999918969825
 20
14.81665818585766
 30
0.0
 10
11.28888754032624
 20
14.3933259292225
 30
0.0
 10
11.25361030085345
 20
14.3933259292225
 30
0.0
 10
12.13555474507741
 20
13.89943650216091
 30
0.0
 10
12.13555474507741
 20
13.89943650216091
 30
0.0
 10
13.01749918930137
 20
13.47610424552575
 30
0.0
 10
13.01749918930137
 20
13.47610424552575
 30
0.0
 10
11.81805420686062
 20
12.8763831000458
 30
0.0
 10
12.2413878092362
 20
12.417770912457
 30
0.0
 10
12.2413878092362
 20
12.417770912457
 30
0.0
 10
12.2413878092362
 20
12.417770912457
 30
0.0
 10
13.40555420646374
 20
13.29971535668096
 30
0.0
 10
13.51138727062253
 20
13.22916087773538
 30
0.0
 10
13.51138727062253
 20
13.22916087773538
 30
0.0
 10
14.18166558652891
 20
12.94693757899138
 30
0.0
 10
14.18166558652891
 20
12.94693757899138
 30
0.0
 10
14.18166558652891
 20
12.94693757899138
 30
0.0
 10
13.96999945821133
 20
12.17082754466663
 30
0.0
 10
13.96999945821133
 20
12.17082754466663
 30
0.0
 10
14.00527669768412
 20
11.28888310044267
 30
0.0
 10
14.07583252237012
 20
10.51277306611793
 30
0.0
 10
14.07583252237012
 20
10.51277306611793
 30
0.0
 10
13.24965017835195
 20
9.905679954595712
 30
0.0
 10
12.58371187531273
 20
9.10655506754099
 30
0.0
 10
12.13555474507741
 20
8.184440271662849
 30
0.0
 10
12.13555474507741
 20
8.184440271662849
 30
0.0
 10
10.65388780963308
 20
10.68916195496272
 30
0.0
 10
10.65388780963308
 20
10.68916195496272
 30
0.0
 10
10.59307783709715
 20
10.76526895889742
 30
0.0
 10
10.6054774893632
 20
10.87626024610111
 30
0.0
 10
10.68158382042768
 20
10.93707156437747
 30
0.0
 10
10.72337982651397
 20
10.97046745873761
 30
0.0
 10
10.77807340882316
 20
10.98308781243318
 30
0.0
 10
10.83027669847787
 20
10.97138525370673
 30
0.0
 10
10.83027669847787
 20
10.97138525370673
 30
0.0
 10
11.67694390322904
 20
10.97138525370673
 30
0.0
 10
11.67694390322904
 20
10.97138525370673
 30
0.0
 10
11.85333279207383
 20
10.97138525370673
 30
0.0
 10
11.92388861675983
 20
11.07721966360594
 30
0.0
 10
11.85333279207383
 20
11.2183286214971
 30
0.0
 10
11.85333279207383
 20
11.2183286214971
 30
0.0
 10
9.983610839467124
 20
14.35805138123056
 30
0.0
 10
9.983610839467124
 20
14.35805138123056
 30
0.0
 10
9.922800866931192
 20
14.43415838516525
 30
0.0
 10
9.935200519197243
 20
14.54514967236895
 30
0.0
 10
10.01130685026173
 20
14.60596099064531
 30
0.0
 10
10.05310285634801
 20
14.63935688500545
 30
0.0
 10
10.1077964386572
 20
14.65197723870102
 30
0.0
 10
10.15999972831192
 20
14.64027467997456
 30
0.0
 10
10.15999972831192
 20
14.64027467997456
 30
0.0
 10
10.83027737134808
 20
14.64027467997456
 30
0.0
 10
10.83027737134808
 20
14.64027467997456
 30
0.0
 10
11.00666626019287
 20
14.64027467997456
 30
0.0
 10
11.07722208487887
 20
14.74610908987378
 30
0.0
 10
11.00666626019287
 20
14.92249797871857
 30
0.0
 10
11.00666626019287
 20
14.92249797871857
 30
0.0
 10
8.113888886860417
 20
19.72026983403904
 30
0.0
 10
8.113888886860417
 20
19.72026983403904
 30
0.0
 10
8.113888886860417
 20
19.72026983403904
 30
0.0
 10
8.113888886860417
 20
19.72026983403904
 30
0.0
 10
8.113888886860417
 20
19.72026983403904
 30
0.0
 10
8.502129616201291
 20
19.85842892892095
 30
0.0
 10
8.869978340898419
 20
20.04828598792839
 30
0.0
 10
9.207500132272168
 20
20.2847137400462
 30
0.0
 10
9.207500132272168
 20
20.2847137400462
 30
0.0
 10
10.6538891553735
 20
19.79082431298461
 30
0.0
 10
10.6538891553735
 20
19.79082431298461
 30
0.0
 10
11.11634006752155
 20
19.63422857429492
 30
0.0
 10
11.58750599465494
 20
19.50465799479851
 30
0.0
 10
12.06500026613184
 20
19.40276929582224
 30
0.0
 10
12.06500026613184
 20
19.40276929582224
 30
0.0
 10
13.65250026573496
 20
19.19110316750466
 30
0.0
 10
13.65250026573496
 20
19.19110316750466
 30
0.0
 10
13.92112754897605
 20
19.19122159266197
 30
0.0
 10
14.18632050265527
 20
19.25149461476875
 30
0.0
 10
14.42861164580013
 20
19.36749205634946
 30
0.0
 10
14.65430308081586
 20
19.48350833829609
 30
0.0
 10
14.84810719648668
 20
19.65308778059582
 30
0.0
 10
14.99305555180729
 20
19.86138148341104
 30
0.0
 10
15.10802619344454
 20
20.05077022475096
 30
0.0
 10
15.20262636228482
 20
20.25179692927698
 30
0.0
 10
15.27527750481087
 20
20.46110262889099
 30
0.0
 10
15.31621089128542
 20
20.67047023256451
 30
0.0
 10
15.33980979535938
 20
20.88285767774931
 30
0.0
 10
15.34583332949687
 20
21.09610370532458
 30
0.0
 10
15.34583332949687
 20
21.09610370532458
 30
0.0
 10
15.34583332949687
 20
21.09610370532458
 30
0.0
 10
15.34583332949687
 20
21.09610370532458
 30
0.0
 10
15.3913099356426
 20
20.97554151222593
 30
0.0
 10
15.46370269600726
 20
20.86695102593851
 30
0.0
 10
15.55749945781446
 20
20.77860316710779
 30
0.0
 10
15.62434911337297
 20
20.70071171137097
 30
0.0
 10
15.70908365916545
 20
20.64018838154533
 30
0.0
 10
15.80444417134525
 20
20.60221427826299
 30
0.0
 10
15.80444417134525
 20
20.60221427826299
 30
0.0
 10
15.80444417134525
 20
20.60221427826299
 30
0.0
 10
15.80444417134525
 20
20.60221427826299
 30
0.0
 10
15.80444417134525
 20
20.60221427826299
 30
0.0
 10
15.55749945781446
 20
20.24943650057341
 30
0.0
 10
15.91027723550404
 20
19.43804653529503
 30
0.0
 10
16.26305501319362
 20
18.62665657001665
 30
0.0
 10
16.50999972672442
 20
18.13276983443591
 30
0.0
 10
16.4747211415112
 20
17.99165818506391
 30
0.0
 10
14.78138807774929
 20
18.30915872328071
 30
0.0
 10
14.74610949253607
 20
17.67415764684712
 30
0.0
 10
14.74610949253607
 20
17.67415764684712
 30
0.0
 10
14.71083225306329
 20
17.03915657041353
 30
0.0
 10
16.01610895392241
 20
17.28610262968474
 30
0.0
 10
15.98083171444962
 20
17.10971374083995
 30
0.0
 10
15.36062570823667
 20
16.69998422840983
 30
0.0
 10
14.89985764448874
 20
16.08977707354665
 30
0.0
 10
14.67555366785007
 20
15.38110209186482
 30
0.0
 10
15.55749811207403
 20
14.39332323774165
 30
0.0
 10
15.55749811207403
 20
14.39332323774165
 30
0.0
 10
15.02833144553966
 20
14.21693434889686
 30
0.0
 10
14.78346590096383
 20
14.01004829056506
 30
0.0
 10
14.57997649146202
 20
13.75867743677998
 30
0.0
 10
14.42860895431928
 20
13.4761015540449
 30
0.0
 10
14.39333171484649
 20
13.44082431457212
 30
0.0
 10
14.1463870013157
 20
13.61721320341691
 30
0.0
 10
13.79360922362611
 20
13.86415657120728
 30
0.0
 10
13.44083144593653
 20
14.11109993899765
 30
0.0
 10
13.68777615946733
 20
13.93471105015285
 30
0.0
 10
14.56972060369128
 20
15.20471320302003
 30
0.0
 10
14.56972060369128
 20
15.20471320302003
 30
0.0
 10
13.47611137689017
 20
15.48693650176404
 30
0.0
 10
13.47611137689017
 20
15.48693650176404
 30
0.0
  0
SPLINE
  5
9D
330
49
100
AcDbEntity
  8
Layer 1
370
     0
100
AcDbSpline
210
0.0
220
0.0
230
1.0
 70
    11
 71
     3
 72
    23
 73
    19
 74
     0
 42
0.0000000001
 43
0.0000000001
 12
1.0
 22
0.0
 32
0.0
 13
1.0
 23
0.0
 33
0.0
 40
0.0
 40
0.0
 40
0.0
 40
0.0
 40
1.0
 40
1.0
 40
1.0
 40
2.0
 40
2.0
 40
2.0
 40
3.0
 40
3.0
 40
3.0
 40
4.0
 40
4.0
 40
4.0
 40
5.0
 40
5.0
 40
5.0
 40
6.0
 40
6.0
 40
6.0
 40
6.0
 10
9.383889021116959
 20
10.23054707589308
 30
0.0
 10
8.974738177069128
 20
10.23054707589308
 30
0.0
 10
8.643055553394792
 20
10.5622290266972
 30
0.0
 10
8.643055553394792
 20
10.97137987074503
 30
0.0
 10
8.64256839536133
 20
11.36104708493527
 30
0.0
 10
8.958061088865628
 20
11.67733107380883
 30
0.0
 10
9.347728303055863
 20
11.67781823184229
 30
0.0
 10
9.359787482994662
 20
11.67783168924653
 30
0.0
 10
9.371844644322824
 20
11.67753831783412
 30
0.0
 10
9.383889021116959
 20
11.6769354261242
 30
0.0
 10
9.783298050235993
 20
11.7656870070821
 30
0.0
 10
10.17903051651686
 20
11.51385052711034
 30
0.0
 10
10.26778209747476
 20
11.11444015225088
 30
0.0
 10
10.35653367843266
 20
10.71502977739142
 30
0.0
 10
10.10469585272048
 20
10.31929865685098
 30
0.0
 10
9.705286823601442
 20
10.23054707589308
 30
0.0
 10
9.599445012129896
 20
10.20702891624455
 30
0.0
 10
9.489730832588505
 20
10.20702891624455
 30
0.0
 10
9.383889021116959
 20
10.23054707589308
 30
0.0
  0
SPLINE
  5
9E
330
49
100
AcDbEntity
  8
Layer 1
370
     0
100
AcDbSpline
210
0.0
220
0.0
230
1.0
 70
    11
 71
     3
 72
    23
 73
    19
 74
     0
 42
0.0000000001
 43
0.0000000001
 12
1.0
 22
0.0
 32
0.0
 13
1.0
 23
0.0
 33
0.0
 40
0.0
 40
0.0
 40
0.0
 40
0.0
 40
1.0
 40
1.0
 40
1.0
 40
2.0
 40
2.0
 40
2.0
 40
3.0
 40
3.0
 40
3.0
 40
4.0
 40
4.0
 40
4.0
 40
5.0
 40
5.0
 40
5.0
 40
6.0
 40
6.0
 40
6.0
 40
6.0
 10
9.701388886463542
 20
9.348602631669118
 30
0.0
 10
9.702276402273121
 20
9.134288086197252
 30
0.0
 10
9.529258593190264
 20
8.959831680601217
 30
0.0
 10
9.314943374848186
 20
8.958943491921426
 30
0.0
 10
9.30262850422884
 20
8.958892353785318
 30
0.0
 10
9.290319016571193
 20
8.95942795847404
 30
0.0
 10
9.278055284087957
 20
8.960547614506746
 30
0.0
 10
9.063738720005455
 20
8.96090558145951
 30
0.0
 10
8.890291619727366
 20
9.134936733081584
 30
0.0
 10
8.890650259550341
 20
9.349253970034297
 30
0.0
 10
8.891008226503105
 20
9.563062517106768
 30
0.0
 10
9.064246064145275
 20
9.736299681878727
 30
0.0
 10
9.278055284087957
 20
9.73665764883149
 30
0.0
 10
9.491485005231093
 20
9.756143970169935
 30
0.0
 10
9.680299788280202
 20
9.598921116442693
 30
0.0
 10
9.699784763878222
 20
9.385489376688922
 30
0.0
 10
9.700904419910929
 20
9.373226989946112
 30
0.0
 10
9.701440024599652
 20
9.360916156548038
 30
0.0
 10
9.701388886463542
 20
9.348602631669118
 30
0.0
  0
SPLINE
  5
9F
330
49
100
AcDbEntity
  8
Layer 1
370
     0
100
AcDbSpline
210
0.0
220
0.0
230
1.0
 70
    11
 71
     3
 72
    20
 73
    16
 74
     0
 42
0.0000000001
 43
0.0000000001
 12
1.0
 22
0.0
 32
0.0
 13
1.0
 23
0.0
 33
0.0
 40
0.0
 40
0.0
 40
0.0
 40
0.0
 40
1.0
 40
1.0
 40
1.0
 40
2.0
 40
2.0
 40
2.0
 40
3.0
 40
3.0
 40
3.0
 40
4.0
 40
4.0
 40
4.0
 40
5.0
 40
5.0
 40
5.0
 40
5.0
 10
7.972777910358626
 20
14.0758253910057
 30
0.0
 10
7.563627066310795
 20
14.0758253910057
 30
0.0
 10
7.231944442636459
 20
14.40750734180983
 30
0.0
 10
7.231944442636459
 20
14.81665818585766
 30
0.0
 10
7.231944442636459
 20
15.22580902990549
 30
0.0
 10
7.563627066310795
 20
15.55749098070962
 30
0.0
 10
7.972777910358626
 20
15.55749098070962
 30
0.0
 10
8.381464473960204
 20
15.57697461056721
 30
0.0
 10
8.728565245671456
 20
15.26146307669698
 30
0.0
 10
8.748049548399264
 20
14.85277785883583
 30
0.0
 10
8.748622833819857
 20
14.84074693944593
 30
0.0
 10
8.748902747828033
 20
14.8287025626518
 30
0.0
 10
8.748889290423794
 20
14.81665818585766
 30
0.0
 10
8.730015280978236
 20
14.40186061499104
 30
0.0
 10
8.388004772420482
 20
14.07539475407005
 30
0.0
 10
7.972777910358626
 20
14.0758253910057
 30
0.0
  0
SPLINE
  5
A0
330
49
100
AcDbEntity
  8
Layer 1
370
     0
100
AcDbSpline
210
0.0
220
0.0
230
1.0
 70
    11
 71
     3
 72
    23
 73
    19
 74
     0
 42
0.0000000001
 43
0.0000000001
 12
1.0
 22
0.0
 32
0.0
 13
1.0
 23
0.0
 33
0.0
 40
0.0
 40
0.0
 40
0.0
 40
0.0
 40
1.0
 40
1.0
 40
1.0
 40
2.0
 40
2.0
 40
2.0
 40
3.0
 40
3.0
 40
3.0
 40
4.0
 40
4.0
 40
4.0
 40
5.0
 40
5.0
 40
5.0
 40
6.0
 40
6.0
 40
6.0
 40
6.0
 10
8.431388752206999
 20
7.337770375430832
 30
0.0
 10
8.43227626801658
 20
7.123455829958966
 30
0.0
 10
8.25925845893372
 20
6.948999424362932
 30
0.0
 10
8.044943240591643
 20
6.94811123568314
 30
0.0
 10
8.032628369972299
 20
6.948060097547032
 30
0.0
 10
8.02031888231465
 20
6.948595702235754
 30
0.0
 10
8.008055149831415
 20
6.949715358268461
 30
0.0
 10
7.793738585748913
 20
6.950073325221224
 30
0.0
 10
7.620291485470823
 20
7.124104476843298
 30
0.0
 10
7.620650125293799
 20
7.338421713796012
 30
0.0
 10
7.621008092246563
 20
7.552230260868482
 30
0.0
 10
7.794245929888732
 20
7.72546742564044
 30
0.0
 10
8.008055149831415
 20
7.725825392593205
 30
0.0
 10
8.22148487097455
 20
7.745311713931649
 30
0.0
 10
8.41029965402366
 20
7.588088860204407
 30
0.0
 10
8.42978462962168
 20
7.374657120450636
 30
0.0
 10
8.430904285654387
 20
7.362394733707825
 30
0.0
 10
8.431439890343109
 20
7.350083900309753
 30
0.0
 10
8.431388752206999
 20
7.337770375430832
 30
0.0
  0
SPLINE
  5
A1
330
49
100
AcDbEntity
  8
Layer 1
370
     0
100
AcDbSpline
210
0.0
220
0.0
230
1.0
 70
    11
 71
     3
 72
    20
 73
    16
 74
     0
 42
0.0000000001
 43
0.0000000001
 12
1.0
 22
0.0
 32
0.0
 13
1.0
 23
0.0
 33
0.0
 40
0.0
 40
0.0
 40
0.0
 40
0.0
 40
1.0
 40
1.0
 40
1.0
 40
2.0
 40
2.0
 40
2.0
 40
3.0
 40
3.0
 40
3.0
 40
4.0
 40
4.0
 40
4.0
 40
5.0
 40
5.0
 40
5.0
 40
5.0
 10
6.738055688445084
 20
20.24943650057341
 30
0.0
 10
6.385277910755501
 20
20.24943650057341
 30
0.0
 10
6.24416693425371
 20
20.39054814994542
 30
0.0
 10
6.24416693425371
 20
20.63749151773579
 30
0.0
 10
6.252105457014448
 20
20.75513076263368
 30
0.0
 10
6.31829098967375
 20
20.86102976807324
 30
0.0
 10
6.420555823098502
 20
20.91971481647979
 30
0.0
 10
6.547841335355092
 20
20.99669386020919
 30
0.0
 10
6.695353326183286
 20
21.03357253078645
 30
0.0
 10
6.843889425474087
 20
21.02554922637901
 30
0.0
 10
7.263195899631073
 20
20.96925421296535
 30
0.0
 10
7.676485568352689
 20
20.87478592668661
 30
0.0
 10
8.078611647387628
 20
20.743325927635
 30
0.0
 10
7.705614792698773
 20
20.42297511120033
 30
0.0
 10
7.22973406399016
 20
20.24765204877129
 30
0.0
 10
6.738055688445084
 20
20.24943650057341
 30
0.0
  0
SPLINE
  5
A2
330
49
100
AcDbEntity
  8
Layer 1
370
     0
100
AcDbSpline
210
0.0
220
0.0
230
1.0
 70
    11
 71
     3
 72
    23
 73
    19
 74
     0
 42
0.0000000001
 43
0.0000000001
 12
1.0
 22
0.0
 32
0.0
 13
1.0
 23
0.0
 33
0.0
 40
0.0
 40
0.0
 40
0.0
 40
0.0
 40
1.0
 40
1.0
 40
1.0
 40
2.0
 40
2.0
 40
2.0
 40
3.0
 40
3.0
 40
3.0
 40
4.0
 40
4.0
 40
4.0
 40
5.0
 40
5.0
 40
5.0
 40
6.0
 40
6.0
 40
6.0
 40
6.0
 10
8.32555568804821
 20
17.42721427905675
 30
0.0
 10
8.326443203857789
 20
17.21289973358488
 30
0.0
 10
8.153425394774931
 20
17.03844332798884
 30
0.0
 10
7.939110176432853
 20
17.03755513930906
 30
0.0
 10
7.926795305813508
 20
17.03750400117294
 30
0.0
 10
7.914485818155859
 20
17.03803960586167
 30
0.0
 10
7.902222085672625
 20
17.03915926189437
 30
0.0
 10
7.687905521590123
 20
17.03951722884714
 30
0.0
 10
7.514458421312033
 20
17.21354838046921
 30
0.0
 10
7.514817061135009
 20
17.42786561742193
 30
0.0
 10
7.515175028087773
 20
17.6416741644944
 30
0.0
 10
7.688412865729942
 20
17.81491132926636
 30
0.0
 10
7.902222085672625
 20
17.81526929621912
 30
0.0
 10
8.11565180681576
 20
17.83475561755756
 30
0.0
 10
8.30446658986487
 20
17.67753276383032
 30
0.0
 10
8.32395156546289
 20
17.46410102407655
 30
0.0
 10
8.325071221495596
 20
17.45183863733374
 30
0.0
 10
8.325606826184318
 20
17.43952780393567
 30
0.0
 10
8.32555568804821
 20
17.42721427905675
 30
0.0
  0
SPLINE
  5
A3
330
49
100
AcDbEntity
  8
Layer 1
370
     0
100
AcDbSpline
210
0.0
220
0.0
230
1.0
 70
    11
 71
     3
 72
    20
 73
    16
 74
     0
 42
0.0000000001
 43
0.0000000001
 12
1.0
 22
0.0
 32
0.0
 13
1.0
 23
0.0
 33
0.0
 40
0.0
 40
0.0
 40
0.0
 40
0.0
 40
1.0
 40
1.0
 40
1.0
 40
2.0
 40
2.0
 40
2.0
 40
3.0
 40
3.0
 40
3.0
 40
4.0
 40
4.0
 40
4.0
 40
5.0
 40
5.0
 40
5.0
 40
5.0
 10
9.348611108773959
 20
13.44082431457212
 30
0.0
 10
9.562928345726673
 20
13.44082431457212
 30
0.0
 10
9.736666798806542
 20
13.26708653436246
 30
0.0
 10
9.736666798806542
 20
13.05276929740974
 30
0.0
 10
9.73743387084818
 20
12.83208132529017
 30
0.0
 10
9.568534027462535
 20
12.6478252379271
 30
0.0
 10
9.348611108773959
 20
12.62943704077458
 30
0.0
 10
9.11481091483386
 20
12.62943704077458
 30
0.0
 10
8.925278179268586
 20
12.81896843059943
 30
0.0
 10
8.925277506398373
 20
13.05276929740974
 30
0.0
 10
8.924389990588795
 20
13.26708384288161
 30
0.0
 10
9.097407799671652
 20
13.44154024847764
 30
0.0
 10
9.311723018013732
 20
13.44242843715744
 30
0.0
 10
9.324037888633075
 20
13.44247957529354
 30
0.0
 10
9.336347376290723
 20
13.44194397060482
 30
0.0
 10
9.348611108773959
 20
13.44082431457212
 30
0.0
  0
SPLINE
  5
A4
330
49
100
AcDbEntity
  8
Layer 1
370
     0
100
AcDbSpline
210
0.0
220
0.0
230
1.0
 70
    11
 71
     3
 72
    20
 73
    16
 74
     0
 42
0.0000000001
 43
0.0000000001
 12
1.0
 22
0.0
 32
0.0
 13
1.0
 23
0.0
 33
0.0
 40
0.0
 40
0.0
 40
0.0
 40
0.0
 40
1.0
 40
1.0
 40
1.0
 40
2.0
 40
2.0
 40
2.0
 40
3.0
 40
3.0
 40
3.0
 40
4.0
 40
4.0
 40
4.0
 40
5.0
 40
5.0
 40
5.0
 40
5.0
 10
9.136944307586166
 20
15.7691571090272
 30
0.0
 10
9.136804350582079
 20
16.00295797583751
 30
0.0
 10
9.326224043951742
 20
16.19260240785797
 30
0.0
 10
9.560024237891842
 20
16.19274236486206
 30
0.0
 10
9.793825104702151
 20
16.19288232186614
 30
0.0
 10
9.983470882463036
 20
16.0034639742369
 30
0.0
 10
9.983610839467124
 20
15.76966310742659
 30
0.0
 10
9.983610839467124
 20
15.76949354413318
 30
0.0
 10
9.983610839467124
 20
15.76932667232061
 30
0.0
 10
9.983610839467124
 20
15.7691571090272
 30
0.0
 10
9.983470882463036
 20
15.53535624221688
 30
0.0
 10
9.793825104702151
 20
15.34593789458764
 30
0.0
 10
9.560024237891842
 20
15.34607785159173
 30
0.0
 10
9.326421867794059
 20
15.34621780859582
 30
0.0
 10
9.137084264590255
 20
15.53555541179963
 30
0.0
 10
9.136944307586166
 20
15.7691571090272
 30
0.0
  0
SPLINE
  5
A5
330
49
100
AcDbEntity
  8
Layer 1
370
     0
100
AcDbSpline
210
0.0
220
0.0
230
1.0
 70
    11
 71
     3
 72
    23
 73
    19
 74
     0
 42
0.0000000001
 43
0.0000000001
 12
1.0
 22
0.0
 32
0.0
 13
1.0
 23
0.0
 33
0.0
 40
0.0
 40
0.0
 40
0.0
 40
0.0
 40
1.0
 40
1.0
 40
1.0
 40
2.0
 40
2.0
 40
2.0
 40
3.0
 40
3.0
 40
3.0
 40
4.0
 40
4.0
 40
4.0
 40
5.0
 40
5.0
 40
5.0
 40
6.0
 40
6.0
 40
6.0
 40
6.0
 10
10.61861057016029
 20
8.537212666390737
 30
0.0
 10
11.02729713376187
 20
8.556696296248333
 30
0.0
 10
11.37439857834333
 20
8.2411847623781
 30
0.0
 10
11.39388220820093
 20
7.832499544516948
 30
0.0
 10
11.39445549362152
 20
7.820468625127052
 30
0.0
 10
11.3947354076297
 20
7.808424248332917
 30
0.0
 10
11.39472195022546
 20
7.796379871538782
 30
0.0
 10
11.3758479407799
 20
7.381582300672158
 30
0.0
 10
11.03383743222215
 20
7.055116439751171
 30
0.0
 10
10.61861057016029
 20
7.055547076686826
 30
0.0
 10
10.20945972611246
 20
7.055547076686826
 30
0.0
 10
9.877777102438122
 20
7.38722902749095
 30
0.0
 10
9.877777102438122
 20
7.796379871538782
 30
0.0
 10
9.877775756697698
 20
8.205530715586614
 30
0.0
 10
10.20945703463161
 20
8.537215357871585
 30
0.0
 10
10.61860787867944
 20
8.537215357871585
 30
0.0
 10
10.61860922441987
 20
8.537215357871585
 30
0.0
 10
10.61860989729008
 20
8.537215357871585
 30
0.0
 10
10.61861057016029
 20
8.537212666390737
 30
0.0
  0
SPLINE
  5
A6
330
49
100
AcDbEntity
  8
Layer 1
370
     0
100
AcDbSpline
210
0.0
220
0.0
230
1.0
 70
    11
 71
     3
 72
    44
 73
    40
 74
     0
 42
0.0000000001
 43
0.0000000001
 12
1.0
 22
0.0
 32
0.0
 13
1.0
 23
0.0
 33
0.0
 40
0.0
 40
0.0
 40
0.0
 40
0.0
 40
1.0
 40
1.0
 40
1.0
 40
2.0
 40
2.0
 40
2.0
 40
3.0
 40
3.0
 40
3.0
 40
4.0
 40
4.0
 40
4.0
 40
5.0
 40
5.0
 40
5.0
 40
6.0
 40
6.0
 40
6.0
 40
7.0
 40
7.0
 40
7.0
 40
8.0
 40
8.0
 40
8.0
 40
9.0
 40
9.0
 40
9.0
 40
10.0
 40
10.0
 40
10.0
 40
11.0
 40
11.0
 40
11.0
 40
12.0
 40
12.0
 40
12.0
 40
13.0
 40
13.0
 40
13.0
 40
13.0
 10
18.55611056817591
 20
22.36610316671091
 30
0.0
 10
18.55611056817591
 20
22.36610316671091
 30
0.0
 10
19.82611002956224
 20
24.12999205515883
 30
0.0
 10
19.82611002956224
 20
24.12999205515883
 30
0.0
 10
19.82611002956224
 20
24.12999205515883
 30
0.0
 10
19.82611002956224
 20
23.56554814915167
 30
0.0
 10
19.82611002956224
 20
23.56554814915167
 30
0.0
 10
19.82611002956224
 20
23.35388202083409
 30
0.0
 10
19.86138726903503
 20
23.17749313198929
 30
0.0
 10
19.86138726903503
 20
23.0011042431445
 30
0.0
 10
19.86138726903503
 20
23.0011042431445
 30
0.0
 10
19.86138726903503
 20
22.47193757661013
 30
0.0
 10
19.86138726903503
 20
22.47193757661013
 30
0.0
 10
19.86854795383074
 20
22.31819749910001
 30
0.0
 10
19.8567000551385
 20
22.16416270443704
 30
0.0
 10
19.82611002956224
 20
22.01332673476175
 30
0.0
 10
19.82611002956224
 20
22.01332673476175
 30
0.0
 10
19.72027696540345
 20
21.62527037185896
 30
0.0
 10
19.72027696540345
 20
21.62527037185896
 30
0.0
 10
19.68225979842755
 20
21.51986121593371
 30
0.0
 10
19.60696562170891
 20
21.43201935550238
 30
0.0
 10
19.50861083708588
 20
21.37832700406859
 30
0.0
 10
19.50861083708588
 20
21.37832700406859
 30
0.0
 10
19.36749918771387
 20
21.30777252512301
 30
0.0
 10
19.36749918771387
 20
21.30777252512301
 30
0.0
 10
19.36749918771387
 20
21.30777252512301
 30
0.0
 10
19.0499999952375
 20
21.30777252512301
 30
0.0
 10
19.0499999952375
 20
21.30777252512301
 30
0.0
 10
18.87816240050643
 20
21.34719464510149
 30
0.0
 10
18.73461361522669
 20
21.46464279485918
 30
0.0
 10
18.66194497807513
 20
21.6252730633398
 30
0.0
 10
18.66194497807513
 20
21.6252730633398
 30
0.0
 10
18.66194497807513
 20
21.6252730633398
 30
0.0
 10
18.66194497807513
 20
21.6252730633398
 30
0.0
 10
18.62258879937742
 20
21.68952409413972
 30
0.0
 10
18.59845429061474
 20
21.76192492894692
 30
0.0
 10
18.59138915338913
 20
21.83693919165739
 30
0.0
 10
18.54450893998125
 20
22.00921818924751
 30
0.0
 10
18.5325143555828
 20
22.18912618930086
 30
0.0
 10
18.55611056817591
 20
22.36610316671091
 30
0.0
  0
SPLINE
  5
A7
330
49
100
AcDbEntity
  8
Layer 1
370
     0
100
AcDbSpline
210
0.0
220
0.0
230
1.0
 70
    11
 71
     3
 72
    23
 73
    19
 74
     0
 42
0.0000000001
 43
0.0000000001
 12
1.0
 22
0.0
 32
0.0
 13
1.0
 23
0.0
 33
0.0
 40
0.0
 40
0.0
 40
0.0
 40
0.0
 40
1.0
 40
1.0
 40
1.0
 40
2.0
 40
2.0
 40
2.0
 40
3.0
 40
3.0
 40
3.0
 40
4.0
 40
4.0
 40
4.0
 40
5.0
 40
5.0
 40
5.0
 40
6.0
 40
6.0
 40
6.0
 40
6.0
 10
17.49777723510716
 20
16.89804761252237
 30
0.0
 10
17.71209447205988
 20
16.89804761252237
 30
0.0
 10
17.88583225226954
 20
16.72430983231271
 30
0.0
 10
17.88583225226954
 20
16.50999259536
 30
0.0
 10
17.85638072309192
 20
16.37216993558407
 30
0.0
 10
17.78191552247442
 20
16.24806037072794
 30
0.0
 10
17.67416612395196
 20
16.15721481767041
 30
0.0
 10
17.67416612395196
 20
16.15721481767041
 30
0.0
 10
17.2508338673168
 20
16.15721481767041
 30
0.0
 10
17.2508338673168
 20
16.15721481767041
 30
0.0
 10
17.14877291356627
 20
16.24768356340925
 30
0.0
 10
17.08558232622041
 20
16.37406204662011
 30
0.0
 10
17.07444497847201
 20
16.50999259536
 30
0.0
 10
17.07355813553264
 20
16.72430714083186
 30
0.0
 10
17.24657594461549
 20
16.8987635464279
 30
0.0
 10
17.46089049008736
 20
16.89965173510769
 30
0.0
 10
17.4732053607067
 20
16.8997028732438
 30
0.0
 10
17.48551350262393
 20
16.89916726855508
 30
0.0
 10
17.49777723510716
 20
16.89804761252237
 30
0.0
  0
SPLINE
  5
A8
330
49
100
AcDbEntity
  8
Layer 1
370
     0
100
AcDbSpline
210
0.0
220
0.0
230
1.0
 70
    11
 71
     3
 72
    29
 73
    25
 74
     0
 42
0.0000000001
 43
0.0000000001
 12
1.0
 22
0.0
 32
0.0
 13
1.0
 23
0.0
 33
0.0
 40
0.0
 40
0.0
 40
0.0
 40
0.0
 40
1.0
 40
1.0
 40
1.0
 40
2.0
 40
2.0
 40
2.0
 40
3.0
 40
3.0
 40
3.0
 40
4.0
 40
4.0
 40
4.0
 40
5.0
 40
5.0
 40
5.0
 40
6.0
 40
6.0
 40
6.0
 40
7.0
 40
7.0
 40
7.0
 40
8.0
 40
8.0
 40
8.0
 40
8.0
 10
17.32138834626237
 20
15.31054761291925
 30
0.0
 10
17.46504613651644
 20
14.90294167887808
 30
0.0
 10
17.84211049163661
 20
14.62363594537315
 30
0.0
 10
18.27388861517233
 20
14.60499205754008
 30
0.0
 10
18.55334507160475
 20
14.60964293644517
 30
0.0
 10
18.82911285353518
 20
14.66959028936936
 30
0.0
 10
19.08527723471029
 20
14.78138094638487
 30
0.0
 10
19.29694336302787
 20
15.20471320302003
 30
0.0
 10
19.29694336302787
 20
15.20471320302003
 30
0.0
 10
19.43805501239987
 20
15.27527037344646
 30
0.0
 10
19.53998273784843
 20
15.26622699779768
 30
0.0
 10
19.63753546117881
 20
15.22964439011368
 30
0.0
 10
19.72027696540345
 20
15.16943596354724
 30
0.0
 10
19.51041951221563
 20
14.56429686712057
 30
0.0
 10
18.91074277616967
 20
14.18401215516594
 30
0.0
 10
18.27388861517233
 20
14.2522142798505
 30
0.0
 10
18.27388861517233
 20
14.2522142798505
 30
0.0
 10
17.56833305979317
 20
14.2522142798505
 30
0.0
 10
17.56833305979317
 20
14.2522142798505
 30
0.0
 10
17.26667054062555
 20
14.54252817002314
 30
0.0
 10
17.04753286147434
 20
14.90775673811489
 30
0.0
 10
16.9333333291
 20
15.31054761291925
 30
0.0
 10
17.04763379200613
 20
15.39879319547775
 30
0.0
 10
17.20708788335624
 20
15.39879319547775
 30
0.0
 10
17.32138834626237
 20
15.31054761291925
 30
0.0
  0
SPLINE
  5
A9
330
49
100
AcDbEntity
  8
Layer 1
370
     0
100
AcDbSpline
210
0.0
220
0.0
230
1.0
 70
    11
 71
     3
 72
    23
 73
    19
 74
     0
 42
0.0000000001
 43
0.0000000001
 12
1.0
 22
0.0
 32
0.0
 13
1.0
 23
0.0
 33
0.0
 40
0.0
 40
0.0
 40
0.0
 40
0.0
 40
1.0
 40
1.0
 40
1.0
 40
2.0
 40
2.0
 40
2.0
 40
3.0
 40
3.0
 40
3.0
 40
4.0
 40
4.0
 40
4.0
 40
5.0
 40
5.0
 40
5.0
 40
6.0
 40
6.0
 40
6.0
 40
6.0
 10
19.57916666177188
 20
16.0513804077712
 30
0.0
 10
19.57916666177188
 20
16.0513804077712
 30
0.0
 10
19.15583305939629
 20
16.0513804077712
 30
0.0
 10
19.15583305939629
 20
16.0513804077712
 30
0.0
 10
19.05150049581018
 20
16.15476826157972
 30
0.0
 10
18.98873650817871
 20
16.29284930351704
 30
0.0
 10
18.9794441705515
 20
16.43943542493357
 30
0.0
 10
19.01422886902913
 20
16.64534716719845
 30
0.0
 10
19.19396999726992
 20
16.79513076786223
 30
0.0
 10
19.40277777292708
 20
16.79221320262316
 30
0.0
 10
19.59652267601924
 20
16.81278419074329
 30
0.0
 10
19.7702604562289
 20
16.67240193268105
 30
0.0
 10
19.79083279008946
 20
16.47865568384847
 30
0.0
 10
19.79346236687781
 20
16.45389406004823
 30
0.0
 10
19.79346236687781
 20
16.42892250074187
 30
0.0
 10
19.79083279008946
 20
16.40415818546078
 30
0.0
 10
19.77993902135778
 20
16.25974139760762
 30
0.0
 10
19.70146755149824
 20
16.12895426876798
 30
0.0
 10
19.57916666177188
 20
16.0513804077712
 30
0.0
  0
SPLINE
  5
AA
330
49
100
AcDbEntity
  8
Layer 1
370
     0
100
AcDbSpline
210
0.0
220
0.0
230
1.0
 70
    11
 71
     3
 72
    17
 73
    13
 74
     0
 42
0.0000000001
 43
0.0000000001
 12
1.0
 22
0.0
 32
0.0
 13
1.0
 23
0.0
 33
0.0
 40
0.0
 40
0.0
 40
0.0
 40
0.0
 40
1.0
 40
1.0
 40
1.0
 40
2.0
 40
2.0
 40
2.0
 40
3.0
 40
3.0
 40
3.0
 40
4.0
 40
4.0
 40
4.0
 40
4.0
 10
18.02694390164154
 20
21.41360424354138
 30
0.0
 10
18.03434547397313
 20
21.19672471682151
 30
0.0
 10
18.10823873491047
 20
20.98736249610969
 30
0.0
 10
18.23861002995912
 20
20.81388309806142
 30
0.0
 10
18.23861002995912
 20
20.81388309806142
 30
0.0
 10
17.35666558573516
 20
20.91971750796064
 30
0.0
 10
17.35666558573516
 20
20.91971750796064
 30
0.0
 10
17.58582903104463
 20
21.11313270464894
 30
0.0
 10
17.79825011974003
 20
21.32555244760392
 30
0.0
 10
17.99166666216875
 20
21.55471320143253
 30
0.0
 10
17.99166666216875
 20
21.51943596195974
 30
0.0
 10
18.02694390164154
 20
21.48415872248696
 30
0.0
 10
18.02694390164154
 20
21.41360424354138
 30
0.0
  0
POLYLINE
  5
AB
330
49
100
AcDbEntity
  8
Layer 1
370
     0
100
AcDb2dPolyline
 66
     1
 10
0.0
 20
0.0
 30
0.0
  0
VERTEX
  5
AC
330
AB
100
AcDbEntity
  8
Layer 1
370
     0
100
AcDbVertex
100
AcDb2dVertex
 10
20.24944363193783
 20
8.81943865661559
 30
0.0
  0
VERTEX
  5
AD
330
AB
100
AcDbEntity
  8
Layer 1
370
     0
100
AcDbVertex
100
AcDb2dVertex
 10
20.24944363193783
 20
8.748884177670014
 30
0.0
  0
VERTEX
  5
AE
330
AB
100
AcDbEntity
  8
Layer 1
370
     0
100
AcDbVertex
100
AcDb2dVertex
 10
20.17888780725183
 20
8.748884177670014
 30
0.0
  0
VERTEX
  5
AF
330
AB
100
AcDbEntity
  8
Layer 1
370
     0
100
AcDbVertex
100
AcDb2dVertex
 10
19.86138726903503
 20
8.572495288825221
 30
0.0
  0
VERTEX
  5
B0
330
AB
100
AcDbEntity
  8
Layer 1
370
     0
100
AcDbVertex
100
AcDb2dVertex
 10
19.86138726903503
 20
8.572495288825221
 30
0.0
  0
VERTEX
  5
B1
330
AB
100
AcDbEntity
  8
Layer 1
370
     0
100
AcDbVertex
100
AcDb2dVertex
 10
19.93194309372103
 20
8.501940809879644
 30
0.0
  0
VERTEX
  5
B2
330
AB
100
AcDbEntity
  8
Layer 1
370
     0
100
AcDbVertex
100
AcDb2dVertex
 10
20.21416504672462
 20
8.501940809879644
 30
0.0
  0
VERTEX
  5
B3
330
AB
100
AcDbEntity
  8
Layer 1
370
     0
100
AcDbVertex
100
AcDb2dVertex
 10
20.21416504672462
 20
8.290274681562064
 30
0.0
  0
VERTEX
  5
B4
330
AB
100
AcDbEntity
  8
Layer 1
370
     0
100
AcDbVertex
100
AcDb2dVertex
 10
20.17888780725183
 20
8.290274681562064
 30
0.0
  0
VERTEX
  5
B5
330
AB
100
AcDbEntity
  8
Layer 1
370
     0
100
AcDbVertex
100
AcDb2dVertex
 10
20.00249891840704
 20
8.184440271662849
 30
0.0
  0
VERTEX
  5
B6
330
AB
100
AcDbEntity
  8
Layer 1
370
     0
100
AcDbVertex
100
AcDb2dVertex
 10
19.79083279008946
 20
8.184440271662849
 30
0.0
  0
VERTEX
  5
B7
330
AB
100
AcDbEntity
  8
Layer 1
370
     0
100
AcDbVertex
100
AcDb2dVertex
 10
19.43805501239987
 20
8.360829160507642
 30
0.0
  0
VERTEX
  5
B8
330
AB
100
AcDbEntity
  8
Layer 1
370
     0
100
AcDbVertex
100
AcDb2dVertex
 10
19.36749918771387
 20
8.43138363945322
 30
0.0
  0
VERTEX
  5
B9
330
AB
100
AcDbEntity
  8
Layer 1
370
     0
100
AcDbVertex
100
AcDb2dVertex
 10
18.9794441705515
 20
8.43138363945322
 30
0.0
  0
VERTEX
  5
BA
330
AB
100
AcDbEntity
  8
Layer 1
370
     0
100
AcDbVertex
100
AcDb2dVertex
 10
18.7324994570207
 20
8.325549229554005
 30
0.0
  0
VERTEX
  5
BB
330
AB
100
AcDbEntity
  8
Layer 1
370
     0
100
AcDbVertex
100
AcDb2dVertex
 10
18.62666639286192
 20
8.254994750608427
 30
0.0
  0
VERTEX
  5
BC
330
AB
100
AcDbEntity
  8
Layer 1
370
     0
100
AcDbVertex
100
AcDb2dVertex
 10
18.69722221754792
 20
8.254994750608427
 30
0.0
  0
VERTEX
  5
BD
330
AB
100
AcDbEntity
  8
Layer 1
370
     0
100
AcDbVertex
100
AcDb2dVertex
 10
18.80305528170671
 20
8.184440271662849
 30
0.0
  0
VERTEX
  5
BE
330
AB
100
AcDbEntity
  8
Layer 1
370
     0
100
AcDbVertex
100
AcDb2dVertex
 10
18.9088883458655
 20
8.113885792717273
 30
0.0
  0
VERTEX
  5
BF
330
AB
100
AcDbEntity
  8
Layer 1
370
     0
100
AcDbVertex
100
AcDb2dVertex
 10
19.01472141002429
 20
8.043331313771695
 30
0.0
  0
VERTEX
  5
C0
330
AB
100
AcDbEntity
  8
Layer 1
370
     0
100
AcDbVertex
100
AcDb2dVertex
 10
19.40277777292708
 20
8.043331313771695
 30
0.0
  0
VERTEX
  5
C1
330
AB
100
AcDbEntity
  8
Layer 1
370
     0
100
AcDbVertex
100
AcDb2dVertex
 10
19.57916666177188
 20
8.113885792717273
 30
0.0
  0
VERTEX
  5
C2
330
AB
100
AcDbEntity
  8
Layer 1
370
     0
100
AcDbVertex
100
AcDb2dVertex
 10
19.93194443946146
 20
8.113885792717273
 30
0.0
  0
VERTEX
  5
C3
330
AB
100
AcDbEntity
  8
Layer 1
370
     0
100
AcDbVertex
100
AcDb2dVertex
 10
20.00250026414746
 20
8.043331313771695
 30
0.0
  0
VERTEX
  5
C4
330
AB
100
AcDbEntity
  8
Layer 1
370
     0
100
AcDbVertex
100
AcDb2dVertex
 10
20.00250026414746
 20
7.7258307755549
 30
0.0
  0
VERTEX
  5
C5
330
AB
100
AcDbEntity
  8
Layer 1
370
     0
100
AcDbVertex
100
AcDb2dVertex
 10
19.68499972593067
 20
7.7258307755549
 30
0.0
  0
VERTEX
  5
C6
330
AB
100
AcDbEntity
  8
Layer 1
370
     0
100
AcDbVertex
100
AcDb2dVertex
 10
19.82611137530267
 20
7.655276296609323
 30
0.0
  0
VERTEX
  5
C7
330
AB
100
AcDbEntity
  8
Layer 1
370
     0
100
AcDbVertex
100
AcDb2dVertex
 10
19.96722302467467
 20
7.549441886710109
 30
0.0
  0
VERTEX
  5
C8
330
AB
100
AcDbEntity
  8
Layer 1
370
     0
100
AcDbVertex
100
AcDb2dVertex
 10
20.10833467404667
 20
7.549441886710109
 30
0.0
  0
VERTEX
  5
C9
330
AB
100
AcDbEntity
  8
Layer 1
370
     0
100
AcDbVertex
100
AcDb2dVertex
 10
20.10833467404667
 20
7.267218587966102
 30
0.0
  0
VERTEX
  5
CA
330
AB
100
AcDbEntity
  8
Layer 1
370
     0
100
AcDbVertex
100
AcDb2dVertex
 10
20.03777884936067
 20
7.267218587966102
 30
0.0
  0
VERTEX
  5
CB
330
AB
100
AcDbEntity
  8
Layer 1
370
     0
100
AcDbVertex
100
AcDb2dVertex
 10
19.89666719998867
 20
7.196664109020525
 30
0.0
  0
VERTEX
  5
CC
330
AB
100
AcDbEntity
  8
Layer 1
370
     0
100
AcDbVertex
100
AcDb2dVertex
 10
19.75555555061667
 20
7.196664109020525
 30
0.0
  0
VERTEX
  5
CD
330
AB
100
AcDbEntity
  8
Layer 1
370
     0
100
AcDbVertex
100
AcDb2dVertex
 10
19.61444390124467
 20
7.267218587966102
 30
0.0
  0
VERTEX
  5
CE
330
AB
100
AcDbEntity
  8
Layer 1
370
     0
100
AcDbVertex
100
AcDb2dVertex
 10
19.50861083708588
 20
7.373052997865317
 30
0.0
  0
VERTEX
  5
CF
330
AB
100
AcDbEntity
  8
Layer 1
370
     0
100
AcDbVertex
100
AcDb2dVertex
 10
19.33222194824108
 20
7.373052997865317
 30
0.0
  0
VERTEX
  5
D0
330
AB
100
AcDbEntity
  8
Layer 1
370
     0
100
AcDbVertex
100
AcDb2dVertex
 10
19.33222194824108
 20
7.055552459648522
 30
0.0
  0
VERTEX
  5
D1
330
AB
100
AcDbEntity
  8
Layer 1
370
     0
100
AcDbVertex
100
AcDb2dVertex
 10
19.33222194824108
 20
7.055552459648522
 30
0.0
  0
VERTEX
  5
D2
330
AB
100
AcDbEntity
  8
Layer 1
370
     0
100
AcDbVertex
100
AcDb2dVertex
 10
19.15583305939629
 20
6.949718049749308
 30
0.0
  0
VERTEX
  5
D3
330
AB
100
AcDbEntity
  8
Layer 1
370
     0
100
AcDbVertex
100
AcDb2dVertex
 10
18.9794441705515
 20
6.949718049749308
 30
0.0
  0
VERTEX
  5
D4
330
AB
100
AcDbEntity
  8
Layer 1
370
     0
100
AcDbVertex
100
AcDb2dVertex
 10
18.87361110639271
 20
7.020272528694885
 30
0.0
  0
VERTEX
  5
D5
330
AB
100
AcDbEntity
  8
Layer 1
370
     0
100
AcDbVertex
100
AcDb2dVertex
 10
18.83833386691992
 20
7.020272528694885
 30
0.0
  0
VERTEX
  5
D6
330
AB
100
AcDbEntity
  8
Layer 1
370
     0
100
AcDbVertex
100
AcDb2dVertex
 10
18.83833386691992
 20
7.690550844601264
 30
0.0
  0
VERTEX
  5
D7
330
AB
100
AcDbEntity
  8
Layer 1
370
     0
100
AcDbVertex
100
AcDb2dVertex
 10
18.66194497807513
 20
7.690550844601264
 30
0.0
  0
VERTEX
  5
D8
330
AB
100
AcDbEntity
  8
Layer 1
370
     0
100
AcDbVertex
100
AcDb2dVertex
 10
18.52083332870313
 20
7.761105323546841
 30
0.0
  0
VERTEX
  5
D9
330
AB
100
AcDbEntity
  8
Layer 1
370
     0
100
AcDbVertex
100
AcDb2dVertex
 10
18.41500026454434
 20
7.866939733446055
 30
0.0
  0
VERTEX
  5
DA
330
AB
100
AcDbEntity
  8
Layer 1
370
     0
100
AcDbVertex
100
AcDb2dVertex
 10
18.16805555101354
 20
7.866939733446055
 30
0.0
  0
VERTEX
  5
DB
330
AB
100
AcDbEntity
  8
Layer 1
370
     0
100
AcDbVertex
100
AcDb2dVertex
 10
18.16805555101354
 20
6.984995289222097
 30
0.0
  0
VERTEX
  5
DC
330
AB
100
AcDbEntity
  8
Layer 1
370
     0
100
AcDbVertex
100
AcDb2dVertex
 10
18.30916720038555
 20
6.984995289222097
 30
0.0
  0
VERTEX
  5
DD
330
AB
100
AcDbEntity
  8
Layer 1
370
     0
100
AcDbVertex
100
AcDb2dVertex
 10
18.37972302507155
 20
6.91444081027652
 30
0.0
  0
VERTEX
  5
DE
330
AB
100
AcDbEntity
  8
Layer 1
370
     0
100
AcDbVertex
100
AcDb2dVertex
 10
18.52083467444355
 20
6.773329160904516
 30
0.0
  0
VERTEX
  5
DF
330
AB
100
AcDbEntity
  8
Layer 1
370
     0
100
AcDbVertex
100
AcDb2dVertex
 10
18.62666773860234
 20
6.702774681958939
 30
0.0
  0
VERTEX
  5
E0
330
AB
100
AcDbEntity
  8
Layer 1
370
     0
100
AcDbVertex
100
AcDb2dVertex
 10
18.69722356328834
 20
6.632220203013361
 30
0.0
  0
VERTEX
  5
E1
330
AB
100
AcDbEntity
  8
Layer 1
370
     0
100
AcDbVertex
100
AcDb2dVertex
 10
18.69722221754792
 20
6.632220203013361
 30
0.0
  0
VERTEX
  5
E2
330
AB
100
AcDbEntity
  8
Layer 1
370
     0
100
AcDbVertex
100
AcDb2dVertex
 10
18.62666639286192
 20
6.420554074695781
 30
0.0
  0
VERTEX
  5
E3
330
AB
100
AcDbEntity
  8
Layer 1
370
     0
100
AcDbVertex
100
AcDb2dVertex
 10
18.30916585464512
 20
6.420554074695781
 30
0.0
  0
VERTEX
  5
E4
330
AB
100
AcDbEntity
  8
Layer 1
370
     0
100
AcDbVertex
100
AcDb2dVertex
 10
18.30916585464512
 20
6.491108553641358
 30
0.0
  0
VERTEX
  5
E5
330
AB
100
AcDbEntity
  8
Layer 1
370
     0
100
AcDbVertex
100
AcDb2dVertex
 10
18.20333279048633
 20
6.561663032586936
 30
0.0
  0
VERTEX
  5
E6
330
AB
100
AcDbEntity
  8
Layer 1
370
     0
100
AcDbVertex
100
AcDb2dVertex
 10
18.13277696580033
 20
6.632217511532513
 30
0.0
  0
VERTEX
  5
E7
330
AB
100
AcDbEntity
  8
Layer 1
370
     0
100
AcDbVertex
100
AcDb2dVertex
 10
18.06222114111433
 20
6.632217511532513
 30
0.0
  0
VERTEX
  5
E8
330
AB
100
AcDbEntity
  8
Layer 1
370
     0
100
AcDbVertex
100
AcDb2dVertex
 10
18.06222114111433
 20
6.27943973384293
 30
0.0
  0
VERTEX
  5
E9
330
AB
100
AcDbEntity
  8
Layer 1
370
     0
100
AcDbVertex
100
AcDb2dVertex
 10
17.49777723510716
 20
6.27943973384293
 30
0.0
  0
VERTEX
  5
EA
330
AB
100
AcDbEntity
  8
Layer 1
370
     0
100
AcDbVertex
100
AcDb2dVertex
 10
17.49777723510716
 20
6.667494751005302
 30
0.0
  0
VERTEX
  5
EB
330
AB
100
AcDbEntity
  8
Layer 1
370
     0
100
AcDbVertex
100
AcDb2dVertex
 10
17.42722141042116
 20
6.667494751005302
 30
0.0
  0
VERTEX
  5
EC
330
AB
100
AcDbEntity
  8
Layer 1
370
     0
100
AcDbVertex
100
AcDb2dVertex
 10
17.32138834626237
 20
6.596940272059725
 30
0.0
  0
VERTEX
  5
ED
330
AB
100
AcDbEntity
  8
Layer 1
370
     0
100
AcDbVertex
100
AcDb2dVertex
 10
17.28611110678958
 20
6.596940272059725
 30
0.0
  0
VERTEX
  5
EE
330
AB
100
AcDbEntity
  8
Layer 1
370
     0
100
AcDbVertex
100
AcDb2dVertex
 10
17.21555528210358
 20
6.526385793114147
 30
0.0
  0
VERTEX
  5
EF
330
AB
100
AcDbEntity
  8
Layer 1
370
     0
100
AcDbVertex
100
AcDb2dVertex
 10
17.03916639325879
 20
6.526385793114147
 30
0.0
  0
VERTEX
  5
F0
330
AB
100
AcDbEntity
  8
Layer 1
370
     0
100
AcDbVertex
100
AcDb2dVertex
 10
16.96861056857279
 20
6.596940272059725
 30
0.0
  0
VERTEX
  5
F1
330
AB
100
AcDbEntity
  8
Layer 1
370
     0
100
AcDbVertex
100
AcDb2dVertex
 10
16.89805474388679
 20
6.596940272059725
 30
0.0
  0
VERTEX
  5
F2
330
AB
100
AcDbEntity
  8
Layer 1
370
     0
100
AcDbVertex
100
AcDb2dVertex
 10
16.89805474388679
 20
5.961936504145288
 30
0.0
  0
VERTEX
  5
F3
330
AB
100
AcDbEntity
  8
Layer 1
370
     0
100
AcDbVertex
100
AcDb2dVertex
 10
16.9333333291
 20
5.961936504145288
 30
0.0
  0
VERTEX
  5
F4
330
AB
100
AcDbEntity
  8
Layer 1
370
     0
100
AcDbVertex
100
AcDb2dVertex
 10
17.003889153786
 20
6.032490983090865
 30
0.0
  0
VERTEX
  5
F5
330
AB
100
AcDbEntity
  8
Layer 1
370
     0
100
AcDbVertex
100
AcDb2dVertex
 10
17.07444497847201
 20
6.032490983090865
 30
0.0
  0
VERTEX
  5
F6
330
AB
100
AcDbEntity
  8
Layer 1
370
     0
100
AcDbVertex
100
AcDb2dVertex
 10
17.18027804263079
 20
6.103045462036443
 30
0.0
  0
VERTEX
  5
F7
330
AB
100
AcDbEntity
  8
Layer 1
370
     0
100
AcDbVertex
100
AcDb2dVertex
 10
17.35666693147559
 20
6.208879871935657
 30
0.0
  0
VERTEX
  5
F8
330
AB
100
AcDbEntity
  8
Layer 1
370
     0
100
AcDbVertex
100
AcDb2dVertex
 10
17.42722275616159
 20
6.279434350881234
 30
0.0
  0
VERTEX
  5
F9
330
AB
100
AcDbEntity
  8
Layer 1
370
     0
100
AcDbVertex
100
AcDb2dVertex
 10
17.56833440553359
 20
6.279434350881234
 30
0.0
  0
VERTEX
  5
FA
330
AB
100
AcDbEntity
  8
Layer 1
370
     0
100
AcDbVertex
100
AcDb2dVertex
 10
17.56833440553359
 20
7.373047614903621
 30
0.0
  0
VERTEX
  5
FB
330
AB
100
AcDbEntity
  8
Layer 1
370
     0
100
AcDbVertex
100
AcDb2dVertex
 10
17.5330571660608
 20
7.373047614903621
 30
0.0
  0
VERTEX
  5
FC
330
AB
100
AcDbEntity
  8
Layer 1
370
     0
100
AcDbVertex
100
AcDb2dVertex
 10
17.42722410190201
 20
7.302493135958043
 30
0.0
  0
VERTEX
  5
FD
330
AB
100
AcDbEntity
  8
Layer 1
370
     0
100
AcDbVertex
100
AcDb2dVertex
 10
17.28611245253001
 20
7.302493135958043
 30
0.0
  0
VERTEX
  5
FE
330
AB
100
AcDbEntity
  8
Layer 1
370
     0
100
AcDbVertex
100
AcDb2dVertex
 10
17.18027938837122
 20
7.231938657012466
 30
0.0
  0
VERTEX
  5
FF
330
AB
100
AcDbEntity
  8
Layer 1
370
     0
100
AcDbVertex
100
AcDb2dVertex
 10
17.00389049952643
 20
7.161384178066888
 30
0.0
  0
VERTEX
  5
100
330
AB
100
AcDbEntity
  8
Layer 1
370
     0
100
AcDbVertex
100
AcDb2dVertex
 10
16.82750161068163
 20
7.161384178066888
 30
0.0
  0
VERTEX
  5
101
330
AB
100
AcDbEntity
  8
Layer 1
370
     0
100
AcDbVertex
100
AcDb2dVertex
 10
16.82750161068163
 20
6.420551383214933
 30
0.0
  0
VERTEX
  5
102
330
AB
100
AcDbEntity
  8
Layer 1
370
     0
100
AcDbVertex
100
AcDb2dVertex
 10
16.47472383299205
 20
6.420551383214933
 30
0.0
  0
VERTEX
  5
103
330
AB
100
AcDbEntity
  8
Layer 1
370
     0
100
AcDbVertex
100
AcDb2dVertex
 10
16.22777777372083
 20
6.31471428183487
 30
0.0
  0
VERTEX
  5
104
330
AB
100
AcDbEntity
  8
Layer 1
370
     0
100
AcDbVertex
100
AcDb2dVertex
 10
16.22777777372083
 20
6.31471428183487
 30
0.0
  0
VERTEX
  5
105
330
AB
100
AcDbEntity
  8
Layer 1
370
     0
100
AcDbVertex
100
AcDb2dVertex
 10
16.22777777372083
 20
6.632214820051665
 30
0.0
  0
VERTEX
  5
106
330
AB
100
AcDbEntity
  8
Layer 1
370
     0
100
AcDbVertex
100
AcDb2dVertex
 10
16.05138888487604
 20
6.632214820051665
 30
0.0
  0
VERTEX
  5
107
330
AB
100
AcDbEntity
  8
Layer 1
370
     0
100
AcDbVertex
100
AcDb2dVertex
 10
15.91027723550404
 20
6.561660341106088
 30
0.0
  0
VERTEX
  5
108
330
AB
100
AcDbEntity
  8
Layer 1
370
     0
100
AcDbVertex
100
AcDb2dVertex
 10
15.76916558613204
 20
6.49110586216051
 30
0.0
  0
VERTEX
  5
109
330
AB
100
AcDbEntity
  8
Layer 1
370
     0
100
AcDbVertex
100
AcDb2dVertex
 10
15.66333252197325
 20
6.49110586216051
 30
0.0
  0
VERTEX
  5
10A
330
AB
100
AcDbEntity
  8
Layer 1
370
     0
100
AcDbVertex
100
AcDb2dVertex
 10
15.48694363312845
 20
6.596940272059725
 30
0.0
  0
VERTEX
  5
10B
330
AB
100
AcDbEntity
  8
Layer 1
370
     0
100
AcDbVertex
100
AcDb2dVertex
 10
15.52222221834167
 20
6.596940272059725
 30
0.0
  0
VERTEX
  5
10C
330
AB
100
AcDbEntity
  8
Layer 1
370
     0
100
AcDbVertex
100
AcDb2dVertex
 10
15.52222221834167
 20
6.808606400377305
 30
0.0
  0
VERTEX
  5
10D
330
AB
100
AcDbEntity
  8
Layer 1
370
     0
100
AcDbVertex
100
AcDb2dVertex
 10
15.69861110718646
 20
6.808606400377305
 30
0.0
  0
VERTEX
  5
10E
330
AB
100
AcDbEntity
  8
Layer 1
370
     0
100
AcDbVertex
100
AcDb2dVertex
 10
15.83972275655846
 20
6.879160879322883
 30
0.0
  0
VERTEX
  5
10F
330
AB
100
AcDbEntity
  8
Layer 1
370
     0
100
AcDbVertex
100
AcDb2dVertex
 10
15.98083440593046
 20
6.949715358268461
 30
0.0
  0
VERTEX
  5
110
330
AB
100
AcDbEntity
  8
Layer 1
370
     0
100
AcDbVertex
100
AcDb2dVertex
 10
15.98083440593046
 20
6.949715358268461
 30
0.0
  0
VERTEX
  5
111
330
AB
100
AcDbEntity
  8
Layer 1
370
     0
100
AcDbVertex
100
AcDb2dVertex
 10
15.87500134177168
 20
7.020269837214038
 30
0.0
  0
VERTEX
  5
112
330
AB
100
AcDbEntity
  8
Layer 1
370
     0
100
AcDbVertex
100
AcDb2dVertex
 10
15.69861245292688
 20
7.020269837214038
 30
0.0
  0
VERTEX
  5
113
330
AB
100
AcDbEntity
  8
Layer 1
370
     0
100
AcDbVertex
100
AcDb2dVertex
 10
15.69861245292688
 20
7.725825392593205
 30
0.0
  0
VERTEX
  5
114
330
AB
100
AcDbEntity
  8
Layer 1
370
     0
100
AcDbVertex
100
AcDb2dVertex
 10
15.80444551708567
 20
7.796379871538782
 30
0.0
  0
VERTEX
  5
115
330
AB
100
AcDbEntity
  8
Layer 1
370
     0
100
AcDbVertex
100
AcDb2dVertex
 10
15.94555716645768
 20
7.796379871538782
 30
0.0
  0
VERTEX
  5
116
330
AB
100
AcDbEntity
  8
Layer 1
370
     0
100
AcDbVertex
100
AcDb2dVertex
 10
16.01611299114368
 20
7.725825392593205
 30
0.0
  0
VERTEX
  5
117
330
AB
100
AcDbEntity
  8
Layer 1
370
     0
100
AcDbVertex
100
AcDb2dVertex
 10
16.12194605530247
 20
7.725825392593205
 30
0.0
  0
VERTEX
  5
118
330
AB
100
AcDbEntity
  8
Layer 1
370
     0
100
AcDbVertex
100
AcDb2dVertex
 10
16.29833494414726
 20
7.655270913647627
 30
0.0
  0
VERTEX
  5
119
330
AB
100
AcDbEntity
  8
Layer 1
370
     0
100
AcDbVertex
100
AcDb2dVertex
 10
16.40416800830605
 20
7.58471643470205
 30
0.0
  0
VERTEX
  5
11A
330
AB
100
AcDbEntity
  8
Layer 1
370
     0
100
AcDbVertex
100
AcDb2dVertex
 10
16.75694578599563
 20
7.58471643470205
 30
0.0
  0
VERTEX
  5
11B
330
AB
100
AcDbEntity
  8
Layer 1
370
     0
100
AcDbVertex
100
AcDb2dVertex
 10
16.93333467484042
 20
7.690550844601264
 30
0.0
  0
VERTEX
  5
11C
330
AB
100
AcDbEntity
  8
Layer 1
370
     0
100
AcDbVertex
100
AcDb2dVertex
 10
17.10972356368521
 20
7.796385254500477
 30
0.0
  0
VERTEX
  5
11D
330
AB
100
AcDbEntity
  8
Layer 1
370
     0
100
AcDbVertex
100
AcDb2dVertex
 10
17.3213896920028
 20
7.796385254500477
 30
0.0
  0
VERTEX
  5
11E
330
AB
100
AcDbEntity
  8
Layer 1
370
     0
100
AcDbVertex
100
AcDb2dVertex
 10
17.2508338673168
 20
7.866939733446055
 30
0.0
  0
VERTEX
  5
11F
330
AB
100
AcDbEntity
  8
Layer 1
370
     0
100
AcDbVertex
100
AcDb2dVertex
 10
17.18027804263079
 20
7.866939733446055
 30
0.0
  0
VERTEX
  5
120
330
AB
100
AcDbEntity
  8
Layer 1
370
     0
100
AcDbVertex
100
AcDb2dVertex
 10
17.07444497847201
 20
7.937494212391632
 30
0.0
  0
VERTEX
  5
121
330
AB
100
AcDbEntity
  8
Layer 1
370
     0
100
AcDbVertex
100
AcDb2dVertex
 10
16.86277885015442
 20
7.937494212391632
 30
0.0
  0
VERTEX
  5
122
330
AB
100
AcDbEntity
  8
Layer 1
370
     0
100
AcDbVertex
100
AcDb2dVertex
 10
16.72166720078242
 20
8.043328622290847
 30
0.0
  0
VERTEX
  5
123
330
AB
100
AcDbEntity
  8
Layer 1
370
     0
100
AcDbVertex
100
AcDb2dVertex
 10
16.61583413662363
 20
8.113883101236425
 30
0.0
  0
VERTEX
  5
124
330
AB
100
AcDbEntity
  8
Layer 1
370
     0
100
AcDbVertex
100
AcDb2dVertex
 10
16.26305501319362
 20
8.113883101236425
 30
0.0
  0
VERTEX
  5
125
330
AB
100
AcDbEntity
  8
Layer 1
370
     0
100
AcDbVertex
100
AcDb2dVertex
 10
16.05138888487604
 20
8.043328622290847
 30
0.0
  0
VERTEX
  5
126
330
AB
100
AcDbEntity
  8
Layer 1
370
     0
100
AcDbVertex
100
AcDb2dVertex
 10
15.73388834665925
 20
8.043328622290847
 30
0.0
  0
VERTEX
  5
127
330
AB
100
AcDbEntity
  8
Layer 1
370
     0
100
AcDbVertex
100
AcDb2dVertex
 10
15.66333252197325
 20
8.113883101236425
 30
0.0
  0
VERTEX
  5
128
330
AB
100
AcDbEntity
  8
Layer 1
370
     0
100
AcDbVertex
100
AcDb2dVertex
 10
15.59277669728725
 20
8.219717511135638
 30
0.0
  0
VERTEX
  5
129
330
AB
100
AcDbEntity
  8
Layer 1
370
     0
100
AcDbVertex
100
AcDb2dVertex
 10
15.59277669728725
 20
8.39610639998043
 30
0.0
  0
VERTEX
  5
12A
330
AB
100
AcDbEntity
  8
Layer 1
370
     0
100
AcDbVertex
100
AcDb2dVertex
 10
15.91027723550404
 20
8.39610639998043
 30
0.0
  0
VERTEX
  5
12B
330
AB
100
AcDbEntity
  8
Layer 1
370
     0
100
AcDbVertex
100
AcDb2dVertex
 10
15.80444417134525
 20
8.466660878926008
 30
0.0
  0
VERTEX
  5
12C
330
AB
100
AcDbEntity
  8
Layer 1
370
     0
100
AcDbVertex
100
AcDb2dVertex
 10
15.69861110718646
 20
8.537215357871585
 30
0.0
  0
VERTEX
  5
12D
330
AB
100
AcDbEntity
  8
Layer 1
370
     0
100
AcDbVertex
100
AcDb2dVertex
 10
15.59277804302767
 20
8.537215357871585
 30
0.0
  0
VERTEX
  5
12E
330
AB
100
AcDbEntity
  8
Layer 1
370
     0
100
AcDbVertex
100
AcDb2dVertex
 10
15.59277804302767
 20
8.748881486189166
 30
0.0
  0
VERTEX
  5
12F
330
AB
100
AcDbEntity
  8
Layer 1
370
     0
100
AcDbVertex
100
AcDb2dVertex
 10
15.66333386771367
 20
8.748881486189166
 30
0.0
  0
VERTEX
  5
130
330
AB
100
AcDbEntity
  8
Layer 1
370
     0
100
AcDbVertex
100
AcDb2dVertex
 10
15.80444551708567
 20
8.819435965134742
 30
0.0
  0
VERTEX
  5
131
330
AB
100
AcDbEntity
  8
Layer 1
370
     0
100
AcDbVertex
100
AcDb2dVertex
 10
15.91027858124446
 20
8.819435965134742
 30
0.0
  0
VERTEX
  5
132
330
AB
100
AcDbEntity
  8
Layer 1
370
     0
100
AcDbVertex
100
AcDb2dVertex
 10
16.12194470956204
 20
8.67832431576274
 30
0.0
  0
VERTEX
  5
133
330
AB
100
AcDbEntity
  8
Layer 1
370
     0
100
AcDbVertex
100
AcDb2dVertex
 10
16.26305635893405
 20
8.67832431576274
 30
0.0
  0
VERTEX
  5
134
330
AB
100
AcDbEntity
  8
Layer 1
370
     0
100
AcDbVertex
100
AcDb2dVertex
 10
16.26305635893405
 20
8.995824853979535
 30
0.0
  0
VERTEX
  5
135
330
AB
100
AcDbEntity
  8
Layer 1
370
     0
100
AcDbVertex
100
AcDb2dVertex
 10
16.26305635893405
 20
8.995824853979535
 30
0.0
  0
VERTEX
  5
136
330
AB
100
AcDbEntity
  8
Layer 1
370
     0
100
AcDbVertex
100
AcDb2dVertex
 10
16.40416800830605
 20
9.10165926387875
 30
0.0
  0
VERTEX
  5
137
330
AB
100
AcDbEntity
  8
Layer 1
370
     0
100
AcDbVertex
100
AcDb2dVertex
 10
16.75694578599563
 20
9.10165926387875
 30
0.0
  0
VERTEX
  5
138
330
AB
100
AcDbEntity
  8
Layer 1
370
     0
100
AcDbVertex
100
AcDb2dVertex
 10
16.75694578599563
 20
8.360826469026794
 30
0.0
  0
VERTEX
  5
139
330
AB
100
AcDbEntity
  8
Layer 1
370
     0
100
AcDbVertex
100
AcDb2dVertex
 10
16.79222302546842
 20
8.360826469026794
 30
0.0
  0
VERTEX
  5
13A
330
AB
100
AcDbEntity
  8
Layer 1
370
     0
100
AcDbVertex
100
AcDb2dVertex
 10
16.79222302546842
 20
8.290271990081216
 30
0.0
  0
VERTEX
  5
13B
330
AB
100
AcDbEntity
  8
Layer 1
370
     0
100
AcDbVertex
100
AcDb2dVertex
 10
16.89805608962721
 20
8.290271990081216
 30
0.0
  0
VERTEX
  5
13C
330
AB
100
AcDbEntity
  8
Layer 1
370
     0
100
AcDbVertex
100
AcDb2dVertex
 10
16.96861191431321
 20
8.219717511135638
 30
0.0
  0
VERTEX
  5
13D
330
AB
100
AcDbEntity
  8
Layer 1
370
     0
100
AcDbVertex
100
AcDb2dVertex
 10
17.18027804263079
 20
8.078605861763636
 30
0.0
  0
VERTEX
  5
13E
330
AB
100
AcDbEntity
  8
Layer 1
370
     0
100
AcDbVertex
100
AcDb2dVertex
 10
17.28611110678958
 20
8.008051382818058
 30
0.0
  0
VERTEX
  5
13F
330
AB
100
AcDbEntity
  8
Layer 1
370
     0
100
AcDbVertex
100
AcDb2dVertex
 10
17.39194417094837
 20
7.93749690387248
 30
0.0
  0
VERTEX
  5
140
330
AB
100
AcDbEntity
  8
Layer 1
370
     0
100
AcDbVertex
100
AcDb2dVertex
 10
17.53305582032038
 20
7.93749690387248
 30
0.0
  0
VERTEX
  5
141
330
AB
100
AcDbEntity
  8
Layer 1
370
     0
100
AcDbVertex
100
AcDb2dVertex
 10
17.53305582032038
 20
8.678329698724436
 30
0.0
  0
VERTEX
  5
142
330
AB
100
AcDbEntity
  8
Layer 1
370
     0
100
AcDbVertex
100
AcDb2dVertex
 10
17.63888888447917
 20
8.678329698724436
 30
0.0
  0
VERTEX
  5
143
330
AB
100
AcDbEntity
  8
Layer 1
370
     0
100
AcDbVertex
100
AcDb2dVertex
 10
17.56833305979317
 20
8.748884177670014
 30
0.0
  0
VERTEX
  5
144
330
AB
100
AcDbEntity
  8
Layer 1
370
     0
100
AcDbVertex
100
AcDb2dVertex
 10
17.25083252157637
 20
9.03110747641402
 30
0.0
  0
VERTEX
  5
145
330
AB
100
AcDbEntity
  8
Layer 1
370
     0
100
AcDbVertex
100
AcDb2dVertex
 10
17.18027669689037
 20
9.03110747641402
 30
0.0
  0
VERTEX
  5
146
330
AB
100
AcDbEntity
  8
Layer 1
370
     0
100
AcDbVertex
100
AcDb2dVertex
 10
17.18027669689037
 20
9.101661955359598
 30
0.0
  0
VERTEX
  5
147
330
AB
100
AcDbEntity
  8
Layer 1
370
     0
100
AcDbVertex
100
AcDb2dVertex
 10
17.14499945741758
 20
9.101661955359598
 30
0.0
  0
VERTEX
  5
148
330
AB
100
AcDbEntity
  8
Layer 1
370
     0
100
AcDbVertex
100
AcDb2dVertex
 10
17.14499945741758
 20
9.348605323149966
 30
0.0
  0
VERTEX
  5
149
330
AB
100
AcDbEntity
  8
Layer 1
370
     0
100
AcDbVertex
100
AcDb2dVertex
 10
17.46249999563437
 20
9.348605323149966
 30
0.0
  0
VERTEX
  5
14A
330
AB
100
AcDbEntity
  8
Layer 1
370
     0
100
AcDbVertex
100
AcDb2dVertex
 10
17.53305582032038
 20
9.278050844204389
 30
0.0
  0
VERTEX
  5
14B
330
AB
100
AcDbEntity
  8
Layer 1
370
     0
100
AcDbVertex
100
AcDb2dVertex
 10
17.63888888447917
 20
9.20749636525881
 30
0.0
  0
VERTEX
  5
14C
330
AB
100
AcDbEntity
  8
Layer 1
370
     0
100
AcDbVertex
100
AcDb2dVertex
 10
17.70944470916517
 20
9.20749636525881
 30
0.0
  0
VERTEX
  5
14D
330
AB
100
AcDbEntity
  8
Layer 1
370
     0
100
AcDbVertex
100
AcDb2dVertex
 10
17.70944470916517
 20
10.26582431536587
 30
0.0
  0
VERTEX
  5
14E
330
AB
100
AcDbEntity
  8
Layer 1
370
     0
100
AcDbVertex
100
AcDb2dVertex
 10
17.70944470916517
 20
10.26582431536587
 30
0.0
  0
VERTEX
  5
14F
330
AB
100
AcDbEntity
  8
Layer 1
370
     0
100
AcDbVertex
100
AcDb2dVertex
 10
17.70944470916517
 20
10.33637879431144
 30
0.0
  0
VERTEX
  5
150
330
AB
100
AcDbEntity
  8
Layer 1
370
     0
100
AcDbVertex
100
AcDb2dVertex
 10
18.06222248685475
 20
10.33637879431144
 30
0.0
  0
VERTEX
  5
151
330
AB
100
AcDbEntity
  8
Layer 1
370
     0
100
AcDbVertex
100
AcDb2dVertex
 10
18.23861137569954
 20
10.23054438441223
 30
0.0
  0
VERTEX
  5
152
330
AB
100
AcDbEntity
  8
Layer 1
370
     0
100
AcDbVertex
100
AcDb2dVertex
 10
18.23861137569954
 20
10.23054438441223
 30
0.0
  0
VERTEX
  5
153
330
AB
100
AcDbEntity
  8
Layer 1
370
     0
100
AcDbVertex
100
AcDb2dVertex
 10
18.23861137569954
 20
9.701377717877854
 30
0.0
  0
VERTEX
  5
154
330
AB
100
AcDbEntity
  8
Layer 1
370
     0
100
AcDbVertex
100
AcDb2dVertex
 10
18.37972302507155
 20
9.701377717877854
 30
0.0
  0
VERTEX
  5
155
330
AB
100
AcDbEntity
  8
Layer 1
370
     0
100
AcDbVertex
100
AcDb2dVertex
 10
18.48555608923034
 20
9.771932196823432
 30
0.0
  0
VERTEX
  5
156
330
AB
100
AcDbEntity
  8
Layer 1
370
     0
100
AcDbVertex
100
AcDb2dVertex
 10
18.55611191391634
 20
9.842486675769008
 30
0.0
  0
VERTEX
  5
157
330
AB
100
AcDbEntity
  8
Layer 1
370
     0
100
AcDbVertex
100
AcDb2dVertex
 10
18.69722356328834
 20
9.842486675769008
 30
0.0
  0
VERTEX
  5
158
330
AB
100
AcDbEntity
  8
Layer 1
370
     0
100
AcDbVertex
100
AcDb2dVertex
 10
18.80305662744713
 20
9.771932196823432
 30
0.0
  0
VERTEX
  5
159
330
AB
100
AcDbEntity
  8
Layer 1
370
     0
100
AcDbVertex
100
AcDb2dVertex
 10
18.83833386691992
 20
9.771932196823432
 30
0.0
  0
VERTEX
  5
15A
330
AB
100
AcDbEntity
  8
Layer 1
370
     0
100
AcDbVertex
100
AcDb2dVertex
 10
18.83833386691992
 20
9.56026606850585
 30
0.0
  0
VERTEX
  5
15B
330
AB
100
AcDbEntity
  8
Layer 1
370
     0
100
AcDbVertex
100
AcDb2dVertex
 10
18.69722221754792
 20
9.56026606850585
 30
0.0
  0
VERTEX
  5
15C
330
AB
100
AcDbEntity
  8
Layer 1
370
     0
100
AcDbVertex
100
AcDb2dVertex
 10
18.45027750401712
 20
9.38387717966106
 30
0.0
  0
VERTEX
  5
15D
330
AB
100
AcDbEntity
  8
Layer 1
370
     0
100
AcDbVertex
100
AcDb2dVertex
 10
18.34444443985834
 20
9.313322700715482
 30
0.0
  0
VERTEX
  5
15E
330
AB
100
AcDbEntity
  8
Layer 1
370
     0
100
AcDbVertex
100
AcDb2dVertex
 10
18.20333279048633
 20
9.313322700715482
 30
0.0
  0
VERTEX
  5
15F
330
AB
100
AcDbEntity
  8
Layer 1
370
     0
100
AcDbVertex
100
AcDb2dVertex
 10
18.20333279048633
 20
8.607767145336314
 30
0.0
  0
VERTEX
  5
160
330
AB
100
AcDbEntity
  8
Layer 1
370
     0
100
AcDbVertex
100
AcDb2dVertex
 10
18.48555474348991
 20
8.607767145336314
 30
0.0
  0
VERTEX
  5
161
330
AB
100
AcDbEntity
  8
Layer 1
370
     0
100
AcDbVertex
100
AcDb2dVertex
 10
18.6972208718075
 20
8.748878794708318
 30
0.0
  0
VERTEX
  5
162
330
AB
100
AcDbEntity
  8
Layer 1
370
     0
100
AcDbVertex
100
AcDb2dVertex
 10
18.90888700012507
 20
8.748878794708318
 30
0.0
  0
VERTEX
  5
163
330
AB
100
AcDbEntity
  8
Layer 1
370
     0
100
AcDbVertex
100
AcDb2dVertex
 10
18.97944282481108
 20
8.819433273653896
 30
0.0
  0
VERTEX
  5
164
330
AB
100
AcDbEntity
  8
Layer 1
370
     0
100
AcDbVertex
100
AcDb2dVertex
 10
19.0499999952375
 20
8.819433273653896
 30
0.0
  0
VERTEX
  5
165
330
AB
100
AcDbEntity
  8
Layer 1
370
     0
100
AcDbVertex
100
AcDb2dVertex
 10
19.0499999952375
 20
9.101656572397902
 30
0.0
  0
VERTEX
  5
166
330
AB
100
AcDbEntity
  8
Layer 1
370
     0
100
AcDbVertex
100
AcDb2dVertex
 10
19.1205558199235
 20
9.313322700715482
 30
0.0
  0
VERTEX
  5
167
330
AB
100
AcDbEntity
  8
Layer 1
370
     0
100
AcDbVertex
100
AcDb2dVertex
 10
19.1205558199235
 20
9.48971428104112
 30
0.0
  0
VERTEX
  5
168
330
AB
100
AcDbEntity
  8
Layer 1
370
     0
100
AcDbVertex
100
AcDb2dVertex
 10
19.4380563581403
 20
9.48971428104112
 30
0.0
  0
VERTEX
  5
169
330
AB
100
AcDbEntity
  8
Layer 1
370
     0
100
AcDbVertex
100
AcDb2dVertex
 10
19.5086121828263
 20
9.419159802095544
 30
0.0
  0
VERTEX
  5
16A
330
AB
100
AcDbEntity
  8
Layer 1
370
     0
100
AcDbVertex
100
AcDb2dVertex
 10
19.5791680075123
 20
9.348605323149966
 30
0.0
  0
VERTEX
  5
16B
330
AB
100
AcDbEntity
  8
Layer 1
370
     0
100
AcDbVertex
100
AcDb2dVertex
 10
19.61444524698509
 20
9.348605323149966
 30
0.0
  0
VERTEX
  5
16C
330
AB
100
AcDbEntity
  8
Layer 1
370
     0
100
AcDbVertex
100
AcDb2dVertex
 10
19.61444524698509
 20
9.031104784933172
 30
0.0
  0
VERTEX
  5
16D
330
AB
100
AcDbEntity
  8
Layer 1
370
     0
100
AcDbVertex
100
AcDb2dVertex
 10
19.68500107167109
 20
9.031104784933172
 30
0.0
  0
VERTEX
  5
16E
330
AB
100
AcDbEntity
  8
Layer 1
370
     0
100
AcDbVertex
100
AcDb2dVertex
 10
19.93194578520188
 20
9.136939194832385
 30
0.0
  0
VERTEX
  5
16F
330
AB
100
AcDbEntity
  8
Layer 1
370
     0
100
AcDbVertex
100
AcDb2dVertex
 10
20.03777884936067
 20
9.136939194832385
 30
0.0
  0
VERTEX
  5
170
330
AB
100
AcDbEntity
  8
Layer 1
370
     0
100
AcDbVertex
100
AcDb2dVertex
 10
20.10833467404667
 20
9.066384715886809
 30
0.0
  0
VERTEX
  5
171
330
AB
100
AcDbEntity
  8
Layer 1
370
     0
100
AcDbVertex
100
AcDb2dVertex
 10
20.21416773820546
 20
9.066384715886809
 30
0.0
  0
VERTEX
  5
172
330
AB
100
AcDbEntity
  8
Layer 1
370
     0
100
AcDbVertex
100
AcDb2dVertex
 10
20.21416773820546
 20
8.99583023694123
 30
0.0
  0
VERTEX
  5
173
330
AB
100
AcDbEntity
  8
Layer 1
370
     0
100
AcDbVertex
100
AcDb2dVertex
 10
20.21416773820546
 20
8.99583023694123
 30
0.0
  0
VERTEX
  5
174
330
AB
100
AcDbEntity
  8
Layer 1
370
     0
100
AcDbVertex
100
AcDb2dVertex
 10
20.21416773820546
 20
8.819441348096438
 30
0.0
  0
VERTEX
  5
175
330
AB
100
AcDbEntity
  8
Layer 1
370
     0
100
AcDbVertex
100
AcDb2dVertex
 10
20.24944363193783
 20
8.81943865661559
 30
0.0
  0
SEQEND
  5
176
330
AB
100
AcDbEntity
  8
Layer 1
370
     0
  0
SPLINE
  5
177
330
49
100
AcDbEntity
  8
Layer 1
370
     0
100
AcDbSpline
210
0.0
220
0.0
230
1.0
 70
    11
 71
     3
 72
    38
 73
    34
 74
     0
 42
0.0000000001
 43
0.0000000001
 12
1.0
 22
0.0
 32
0.0
 13
1.0
 23
0.0
 33
0.0
 40
0.0
 40
0.0
 40
0.0
 40
0.0
 40
1.0
 40
1.0
 40
1.0
 40
2.0
 40
2.0
 40
2.0
 40
3.0
 40
3.0
 40
3.0
 40
4.0
 40
4.0
 40
4.0
 40
5.0
 40
5.0
 40
5.0
 40
6.0
 40
6.0
 40
6.0
 40
7.0
 40
7.0
 40
7.0
 40
8.0
 40
8.0
 40
8.0
 40
9.0
 40
9.0
 40
9.0
 40
10.0
 40
10.0
 40
10.0
 40
11.0
 40
11.0
 40
11.0
 40
11.0
 10
13.01749918930137
 20
26.45832754109476
 30
0.0
 10
13.01749918930137
 20
26.45832754109476
 30
0.0
 10
13.54666585583575
 20
27.5519381136363
 30
0.0
 10
13.54666585583575
 20
27.5519381136363
 30
0.0
 10
13.69668630681414
 20
27.86095779570151
 30
0.0
 10
13.8737655604964
 20
28.15609078233224
 30
0.0
 10
14.07583252237012
 20
28.43388255786025
 30
0.0
 10
14.22918906385942
 20
28.71618390954885
 30
0.0
 10
14.41895999547973
 20
28.97711894052678
 30
0.0
 10
14.64027642837729
 20
29.20999393792543
 30
0.0
 10
14.82465632385935
 20
29.38216662202205
 30
0.0
 10
15.02553230545789
 20
29.53577750845148
 30
0.0
 10
15.23999891959766
 20
29.6686047797738
 30
0.0
 10
15.46235964706418
 20
29.76564343026223
 30
0.0
 10
15.70297668912167
 20
29.81376710782182
 30
0.0
 10
15.94555447497683
 20
29.8097164291458
 30
0.0
 10
16.07883660656243
 20
29.8210556379578
 30
0.0
 10
16.20963853854674
 20
29.76873594175641
 30
0.0
 10
16.29833225266641
 20
29.6686047797738
 30
0.0
 10
16.36973993104076
 20
29.56502448508466
 30
0.0
 10
16.4067639415838
 20
29.44160932228728
 30
0.0
 10
16.4041653168252
 20
29.31582700208421
 30
0.0
 10
16.39523363763161
 20
29.02825573089553
 30
0.0
 10
16.31000789658439
 20
28.74822868052337
 30
0.0
 10
16.15722060329441
 20
28.50443838254626
 30
0.0
 10
15.99224493898493
 20
28.19004112174704
 30
0.0
 10
15.77784964908763
 20
27.90417894089673
 30
0.0
 10
15.52222221834167
 20
27.65776983205467
 30
0.0
 10
15.20646845119513
 20
27.36175538544627
 30
0.0
 10
14.85010023805451
 20
27.11229817454401
 30
0.0
 10
14.46388888527292
 20
26.91693703720271
 30
0.0
 10
14.00398344113673
 20
26.70123234187293
 30
0.0
 10
13.51767322414269
 20
26.54703605835909
 30
0.0
 10
13.01749918930137
 20
26.45832754109476
 30
0.0
  0
SPLINE
  5
178
330
49
100
AcDbEntity
  8
Layer 1
370
     0
100
AcDbSpline
210
0.0
220
0.0
230
1.0
 70
    11
 71
     3
 72
    29
 73
    25
 74
     0
 42
0.0000000001
 43
0.0000000001
 12
1.0
 22
0.0
 32
0.0
 13
1.0
 23
0.0
 33
0.0
 40
0.0
 40
0.0
 40
0.0
 40
0.0
 40
1.0
 40
1.0
 40
1.0
 40
2.0
 40
2.0
 40
2.0
 40
3.0
 40
3.0
 40
3.0
 40
4.0
 40
4.0
 40
4.0
 40
5.0
 40
5.0
 40
5.0
 40
6.0
 40
6.0
 40
6.0
 40
7.0
 40
7.0
 40
7.0
 40
8.0
 40
8.0
 40
8.0
 40
8.0
 10
14.04055528289733
 20
32.87888336419326
 30
0.0
 10
14.04055528289733
 20
32.87888336419326
 30
0.0
 10
14.04055528289733
 20
32.87888336419326
 30
0.0
 10
14.04055528289733
 20
32.87888336419326
 30
0.0
 10
14.04055528289733
 20
32.84360612472047
 30
0.0
 10
14.00527804342454
 20
32.84360612472047
 30
0.0
 10
14.00527804342454
 20
32.80832753950726
 30
0.0
 10
14.00527804342454
 20
32.80832753950726
 30
0.0
 10
13.72305609042096
 20
32.45554976181768
 30
0.0
 10
13.72305609042096
 20
32.45554976181768
 30
0.0
 10
12.98277235766197
 20
32.34523134482594
 30
0.0
 10
12.2516921436622
 20
32.18014802128255
 30
0.0
 10
11.53583359959746
 20
31.96166033475609
 30
0.0
 10
11.53583359959746
 20
31.96166033475609
 30
0.0
 10
11.53583359959746
 20
32.03221615944209
 30
0.0
 10
11.53583359959746
 20
32.03221615944209
 30
0.0
 10
11.53583359959746
 20
32.03221615944209
 30
0.0
 10
11.74749972791504
 20
32.34971669765888
 30
0.0
 10
11.74749972791504
 20
32.34971669765888
 30
0.0
 10
11.74749972791504
 20
32.34971669765888
 30
0.0
 10
15.06361003075287
 20
34.96027211798776
 30
0.0
 10
15.06361003075287
 20
34.96027211798776
 30
0.0
 10
14.82009695530309
 20
34.22266102571069
 30
0.0
 10
14.47582291135229
 20
33.5222394700488
 30
0.0
 10
14.04055528289733
 20
32.87888336419326
 30
0.0
  0
SPLINE
  5
179
330
49
100
AcDbEntity
  8
Layer 1
370
     0
100
AcDbSpline
210
0.0
220
0.0
230
1.0
 70
    11
 71
     3
 72
    14
 73
    10
 74
     0
 42
0.0000000001
 43
0.0000000001
 12
1.0
 22
0.0
 32
0.0
 13
1.0
 23
0.0
 33
0.0
 40
0.0
 40
0.0
 40
0.0
 40
0.0
 40
1.0
 40
1.0
 40
1.0
 40
2.0
 40
2.0
 40
2.0
 40
3.0
 40
3.0
 40
3.0
 40
3.0
 10
7.655278045012044
 20
41.48665865019931
 30
0.0
 10
7.16138929082067
 20
42.79193636036375
 30
0.0
 10
7.761111109170834
 20
43.7797142051816
 30
0.0
 10
9.031111243427375
 20
43.25054753864723
 30
0.0
 10
10.96478345384925
 20
42.47643105054298
 30
0.0
 10
12.44359741959486
 20
40.86789729633144
 30
0.0
 10
13.05277777451458
 20
38.87610322987044
 30
0.0
 10
11.00312629000774
 20
39.08634220046844
 30
0.0
 10
9.092600142007178
 20
40.01038779741981
 30
0.0
 10
7.655278045012044
 20
41.48665865019931
 30
0.0
  0
SPLINE
  5
17A
330
49
100
AcDbEntity
  8
Layer 1
370
     0
100
AcDbSpline
210
0.0
220
0.0
230
1.0
 70
    11
 71
     3
 72
    92
 73
    88
 74
     0
 42
0.0000000001
 43
0.0000000001
 12
1.0
 22
0.0
 32
0.0
 13
1.0
 23
0.0
 33
0.0
 40
0.0
 40
0.0
 40
0.0
 40
0.0
 40
1.0
 40
1.0
 40
1.0
 40
2.0
 40
2.0
 40
2.0
 40
3.0
 40
3.0
 40
3.0
 40
4.0
 40
4.0
 40
4.0
 40
5.0
 40
5.0
 40
5.0
 40
6.0
 40
6.0
 40
6.0
 40
7.0
 40
7.0
 40
7.0
 40
8.0
 40
8.0
 40
8.0
 40
9.0
 40
9.0
 40
9.0
 40
10.0
 40
10.0
 40
10.0
 40
11.0
 40
11.0
 40
11.0
 40
12.0
 40
12.0
 40
12.0
 40
13.0
 40
13.0
 40
13.0
 40
14.0
 40
14.0
 40
14.0
 40
15.0
 40
15.0
 40
15.0
 40
16.0
 40
16.0
 40
16.0
 40
17.0
 40
17.0
 40
17.0
 40
18.0
 40
18.0
 40
18.0
 40
19.0
 40
19.0
 40
19.0
 40
20.0
 40
20.0
 40
20.0
 40
21.0
 40
21.0
 40
21.0
 40
22.0
 40
22.0
 40
22.0
 40
23.0
 40
23.0
 40
23.0
 40
24.0
 40
24.0
 40
24.0
 40
25.0
 40
25.0
 40
25.0
 40
26.0
 40
26.0
 40
26.0
 40
27.0
 40
27.0
 40
27.0
 40
28.0
 40
28.0
 40
28.0
 40
29.0
 40
29.0
 40
29.0
 40
29.0
 10
2.010833265543604
 20
16.29832646704242
 30
0.0
 10
2.018704501283145
 20
20.49453351250216
 30
0.0
 10
3.861860865051347
 20
24.47729670654431
 30
0.0
 10
7.055555553791667
 20
27.19915899020629
 30
0.0
 10
7.296103290217329
 20
26.90401792913302
 30
0.0
 10
7.596754485456362
 20
26.66349778038605
 30
0.0
 10
7.937499998015626
 20
26.49360343482712
 30
0.0
 10
8.914855419685281
 20
26.04876490047721
 30
0.0
 10
9.96903647067601
 20
25.79719891433065
 30
0.0
 10
11.04194417253587
 20
25.75277063997517
 30
0.0
 10
11.04194417253587
 20
25.75277063997517
 30
0.0
 10
10.90083319603408
 20
25.43527010175837
 30
0.0
 10
10.90083319603408
 20
25.43527010175837
 30
0.0
 10
10.90083319603408
 20
25.43527010175837
 30
0.0
 10
10.6186112430305
 20
24.87082619575121
 30
0.0
 10
10.6186112430305
 20
24.87082619575121
 30
0.0
 10
10.6186112430305
 20
24.87082619575121
 30
0.0
 10
10.33638929002692
 20
24.27110370453083
 30
0.0
 10
10.33638929002692
 20
24.27110370453083
 30
0.0
 10
10.24157851281029
 20
24.10082043998939
 30
0.0
 10
10.15905299992368
 20
23.92398207384301
 30
0.0
 10
10.08944457649613
 20
23.74193703799646
 30
0.0
 10
10.00512182727337
 20
23.56051777144703
 30
0.0
 10
9.910905867324113
 20
23.38386377173873
 30
0.0
 10
9.807222623492544
 20
23.21277037146208
 30
0.0
 10
9.807222623492544
 20
23.21277037146208
 30
0.0
 10
9.560277909961751
 20
22.75415952961371
 30
0.0
 10
9.560277909961751
 20
22.75415952961371
 30
0.0
 10
9.560277909961751
 20
22.75415952961371
 30
0.0
 10
9.27805595695817
 20
22.26027010255212
 30
0.0
 10
9.27805595695817
 20
22.26027010255212
 30
0.0
 10
9.27805595695817
 20
22.26027010255212
 30
0.0
 10
9.031111243427375
 20
21.87221508538975
 30
0.0
 10
9.031111243427375
 20
21.87221508538975
 30
0.0
 10
9.031111243427375
 20
21.87221508538975
 30
0.0
 10
8.748888617553582
 20
21.48415872248696
 30
0.0
 10
8.748888617553582
 20
21.48415872248696
 30
0.0
 10
8.180529952653218
 20
21.61426759815294
 30
0.0
 10
7.602332579513534
 20
21.69686645389265
 30
0.0
 10
7.020277641448666
 20
21.73110209027733
 30
0.0
 10
6.604750679272274
 20
21.79523738740077
 30
0.0
 10
6.181542230756115
 20
21.67981592272152
 30
0.0
 10
5.856111244221126
 20
21.41360155206053
 30
0.0
 10
5.61397149687396
 20
21.22860261598346
 30
0.0
 10
5.470770585493812
 20
20.94220213896359
 30
0.0
 10
5.468055554188542
 20
20.63749151773579
 30
0.0
 10
5.462476787261158
 20
20.34878444162931
 30
0.0
 10
5.593181489499838
 20
20.07430453328457
 30
0.0
 10
5.820833331878125
 20
19.89665872288383
 30
0.0
 10
6.083302506939326
 20
19.66806318003326
 30
0.0
 10
6.426200531306658
 20
19.55376406286756
 30
0.0
 10
6.773333600788085
 20
19.57915818466704
 30
0.0
 10
7.105497999534187
 20
19.57771016797089
 30
0.0
 10
7.436793049966432
 20
19.61320541739235
 30
0.0
 10
7.761111109170834
 20
19.68499259456625
 30
0.0
 10
7.761111109170834
 20
19.68499259456625
 30
0.0
 10
4.938888887654167
 20
14.92249259575688
 30
0.0
 10
4.938888887654167
 20
14.92249259575688
 30
0.0
 10
4.833055487060271
 20
14.74610370691208
 30
0.0
 10
4.903610975311167
 20
14.64026929701287
 30
0.0
 10
5.079999864155958
 20
14.64026929701287
 30
0.0
 10
5.079999864155958
 20
14.64026929701287
 30
0.0
 10
5.750277507192123
 20
14.64026929701287
 30
0.0
 10
5.750277507192123
 20
14.64026929701287
 30
0.0
 10
5.961944308379916
 20
14.64026929701287
 30
0.0
 10
6.032499460195706
 20
14.49915764764087
 30
0.0
 10
5.926666396036915
 20
14.35804599826886
 30
0.0
 10
5.926666396036915
 20
14.35804599826886
 30
0.0
 10
4.056944106995102
 20
11.2183232385354
 30
0.0
 10
4.056944106995102
 20
11.2183232385354
 30
0.0
 10
3.986388618744207
 20
11.0772115891634
 30
0.0
 10
4.056944106995102
 20
10.97137987074503
 30
0.0
 10
4.233332995839894
 20
10.97137987074503
 30
0.0
 10
4.233332995839894
 20
10.97137987074503
 30
0.0
 10
5.079999864155958
 20
10.97137987074503
 30
0.0
 10
5.079999864155958
 20
10.97137987074503
 30
0.0
 10
5.175057248305269
 20
10.99269101609832
 30
0.0
 10
5.269392306282038
 20
10.93290784350584
 30
0.0
 10
5.290702778765113
 20
10.83785012292143
 30
0.0
 10
5.302406010361784
 20
10.7856461603965
 30
0.0
 10
5.289784310925784
 20
10.73095257808731
 30
0.0
 10
5.256388753000749
 20
10.68915657200103
 30
0.0
 10
5.256388753000749
 20
10.68915657200103
 30
0.0
 10
4.162777507588999
 20
8.819433273653896
 30
0.0
 10
4.162777507588999
 20
8.819433273653896
 30
0.0
 10
2.74975090355476
 20
11.05743727937423
 30
0.0
 10
2.003322688237675
 20
13.65158341384397
 30
0.0
 10
2.010833265543604
 20
16.29832646704242
 30
0.0
  0
SPLINE
  5
17B
330
49
100
AcDbEntity
  8
Layer 1
370
     0
100
AcDbSpline
210
0.0
220
0.0
230
1.0
 70
    11
 71
     3
 72
    17
 73
    13
 74
     0
 42
0.0000000001
 43
0.0000000001
 12
1.0
 22
0.0
 32
0.0
 13
1.0
 23
0.0
 33
0.0
 40
0.0
 40
0.0
 40
0.0
 40
0.0
 40
1.0
 40
1.0
 40
1.0
 40
2.0
 40
2.0
 40
2.0
 40
3.0
 40
3.0
 40
3.0
 40
4.0
 40
4.0
 40
4.0
 40
4.0
 10
4.445000133462792
 20
8.360826469026794
 30
0.0
 10
4.445000133462792
 20
8.360826469026794
 30
0.0
 10
4.797777911152376
 20
8.431380947972372
 30
0.0
 10
4.797777911152376
 20
8.431380947972372
 30
0.0
 10
5.206885691506642
 20
8.437329120646123
 30
0.0
 10
5.543355113868881
 20
8.110505292772372
 30
0.0
 10
5.549303622977739
 20
7.701397512418104
 30
0.0
 10
5.552253485986984
 20
7.498537909434694
 30
0.0
 10
5.471880148473339
 20
7.303346335386812
 30
0.0
 10
5.326944577686751
 20
7.16138148658604
 30
0.0
 10
5.009444375905062
 20
7.549436503748413
 30
0.0
 10
4.727222086466375
 20
7.937491520910784
 30
0.0
 10
4.445000133462792
 20
8.360826469026794
 30
0.0
  0
SPLINE
  5
17C
330
49
100
AcDbEntity
  8
Layer 1
370
     0
100
AcDbSpline
210
0.0
220
0.0
230
1.0
 70
    11
 71
     3
 72
    23
 73
    19
 74
     0
 42
0.0000000001
 43
0.0000000001
 12
1.0
 22
0.0
 32
0.0
 13
1.0
 23
0.0
 33
0.0
 40
0.0
 40
0.0
 40
0.0
 40
0.0
 40
1.0
 40
1.0
 40
1.0
 40
2.0
 40
2.0
 40
2.0
 40
3.0
 40
3.0
 40
3.0
 40
4.0
 40
4.0
 40
4.0
 40
5.0
 40
5.0
 40
5.0
 40
6.0
 40
6.0
 40
6.0
 40
6.0
 10
5.891389156564126
 20
9.595548690940335
 30
0.0
 10
5.890501640754548
 20
9.809863236412202
 30
0.0
 10
6.063519449837406
 20
9.984319642008236
 30
0.0
 10
6.277834668179484
 20
9.985207830688028
 30
0.0
 10
6.290149538798828
 20
9.985258968824136
 30
0.0
 10
6.302459026456477
 20
9.984723364135414
 30
0.0
 10
6.314722758939712
 20
9.983603708102708
 30
0.0
 10
6.529039323022213
 20
9.983245741149943
 30
0.0
 10
6.702486423300304
 20
9.809214589527869
 30
0.0
 10
6.702127783477327
 20
9.594897352575154
 30
0.0
 10
6.701769816524563
 20
9.381088805502685
 30
0.0
 10
6.528531978882394
 20
9.207851640730727
 30
0.0
 10
6.314722758939712
 20
9.207493673777963
 30
0.0
 10
6.101293037796577
 20
9.188007352439518
 30
0.0
 10
5.912478254747467
 20
9.345230206166761
 30
0.0
 10
5.892993279149446
 20
9.558661945920532
 30
0.0
 10
5.89187362311674
 20
9.570924332663342
 30
0.0
 10
5.891338018428018
 20
9.583235166061415
 30
0.0
 10
5.891389156564126
 20
9.595548690940335
 30
0.0
  0
SPLINE
  5
17D
330
49
100
AcDbEntity
  8
Layer 1
370
     0
100
AcDbSpline
210
0.0
220
0.0
230
1.0
 70
    11
 71
     3
 72
    23
 73
    19
 74
     0
 42
0.0000000001
 43
0.0000000001
 12
1.0
 22
0.0
 32
0.0
 13
1.0
 23
0.0
 33
0.0
 40
0.0
 40
0.0
 40
0.0
 40
0.0
 40
1.0
 40
1.0
 40
1.0
 40
2.0
 40
2.0
 40
2.0
 40
3.0
 40
3.0
 40
3.0
 40
4.0
 40
4.0
 40
4.0
 40
5.0
 40
5.0
 40
5.0
 40
6.0
 40
6.0
 40
6.0
 40
6.0
 10
6.455833735441503
 20
11.21832593001625
 30
0.0
 10
6.046682891393671
 20
11.21832593001625
 30
0.0
 10
5.715000267719335
 20
11.55000788082037
 30
0.0
 10
5.715000267719335
 20
11.9591587248682
 30
0.0
 10
5.714513109685874
 20
12.34882593905844
 30
0.0
 10
6.030005803190171
 20
12.66510992793201
 30
0.0
 10
6.419673017380407
 20
12.66559708596547
 30
0.0
 10
6.431732197319205
 20
12.66561054336971
 30
0.0
 10
6.443789358647368
 20
12.66531717195729
 30
0.0
 10
6.455833735441503
 20
12.66471428024737
 30
0.0
 10
6.855242764560536
 20
12.75346586120527
 30
0.0
 10
7.250975230841404
 20
12.50162938123351
 30
0.0
 10
7.339726811799305
 20
12.10221900637405
 30
0.0
 10
7.428478392757206
 20
11.70280863151459
 30
0.0
 10
7.17664056704502
 20
11.30707751097415
 30
0.0
 10
6.777231537925986
 20
11.21832593001625
 30
0.0
 10
6.67138972645444
 20
11.19480777036772
 30
0.0
 10
6.561675546913048
 20
11.19480777036772
 30
0.0
 10
6.455833735441503
 20
11.21832593001625
 30
0.0
  0
SPLINE
  5
17E
330
49
100
AcDbEntity
  8
Layer 1
370
     0
100
AcDbSpline
210
0.0
220
0.0
230
1.0
 70
    11
 71
     3
 72
    20
 73
    16
 74
     0
 42
0.0000000001
 43
0.0000000001
 12
1.0
 22
0.0
 32
0.0
 13
1.0
 23
0.0
 33
0.0
 40
0.0
 40
0.0
 40
0.0
 40
0.0
 40
1.0
 40
1.0
 40
1.0
 40
2.0
 40
2.0
 40
2.0
 40
3.0
 40
3.0
 40
3.0
 40
4.0
 40
4.0
 40
4.0
 40
5.0
 40
5.0
 40
5.0
 40
5.0
 10
6.208889021910709
 20
15.09888148460167
 30
0.0
 10
5.994572457828207
 20
15.09923945155443
 30
0.0
 10
5.821125357550117
 20
15.2732706031765
 30
0.0
 10
5.821483997373093
 20
15.48758784012922
 30
0.0
 10
5.821841964325857
 20
15.70139638720169
 30
0.0
 10
5.995079801968028
 20
15.87463355197365
 30
0.0
 10
6.208889021910709
 20
15.87499151892641
 30
0.0
 10
6.423205585993212
 20
15.87534948587918
 30
0.0
 10
6.597235391874861
 20
15.70190238560108
 30
0.0
 10
6.597594031697837
 20
15.48758784012922
 30
0.0
 10
6.597953344391025
 20
15.2732706031765
 30
0.0
 10
6.424506244112935
 20
15.09923945155443
 30
0.0
 10
6.210189007160221
 20
15.09888148460167
 30
0.0
 10
6.209755678743718
 20
15.09888148460167
 30
0.0
 10
6.209322350327214
 20
15.09888148460167
 30
0.0
 10
6.208889021910709
 20
15.09888148460167
 30
0.0
  0
SPLINE
  5
17F
330
49
100
AcDbEntity
  8
Layer 1
370
     0
100
AcDbSpline
210
0.0
220
0.0
230
1.0
 70
    11
 71
     3
 72
    23
 73
    19
 74
     0
 42
0.0000000001
 43
0.0000000001
 12
1.0
 22
0.0
 32
0.0
 13
1.0
 23
0.0
 33
0.0
 40
0.0
 40
0.0
 40
0.0
 40
0.0
 40
1.0
 40
1.0
 40
1.0
 40
2.0
 40
2.0
 40
2.0
 40
3.0
 40
3.0
 40
3.0
 40
4.0
 40
4.0
 40
4.0
 40
5.0
 40
5.0
 40
5.0
 40
6.0
 40
6.0
 40
6.0
 40
6.0
 10
9.63083306177754
 20
3.668880949162996
 30
0.0
 10
9.63083306177754
 20
3.668880949162996
 30
0.0
 10
9.63083306177754
 20
6.067770914044502
 30
0.0
 10
9.63083306177754
 20
6.067770914044502
 30
0.0
 10
9.63083306177754
 20
6.067770914044502
 30
0.0
 10
6.3147220860695
 20
6.067770914044502
 30
0.0
 10
6.3147220860695
 20
6.067770914044502
 30
0.0
 10
6.3147220860695
 20
6.067770914044502
 30
0.0
 10
6.103055284881707
 20
6.31471428183487
 30
0.0
 10
6.103055284881707
 20
6.31471428183487
 30
0.0
 10
6.103055284881707
 20
6.31471428183487
 30
0.0
 10
11.81805555260104
 20
6.31471428183487
 30
0.0
 10
11.81805555260104
 20
6.31471428183487
 30
0.0
 10
11.95916720197305
 20
4.480270914441377
 30
0.0
 10
13.51138861636296
 20
2.892770914838251
 30
0.0
 10
15.20472168012487
 20
2.046103710087082
 30
0.0
 10
13.25473707715439
 20
2.196891233107111
 30
0.0
 10
11.35701968650875
 20
2.749393038592358
 30
0.0
 10
9.63083306177754
 20
3.668880949162996
 30
0.0
  0
SPLINE
  5
180
330
49
100
AcDbEntity
  8
Layer 1
370
     0
100
AcDbSpline
210
0.0
220
0.0
230
1.0
 70
    11
 71
     3
 72
   266
 73
   262
 74
     0
 42
0.0000000001
 43
0.0000000001
 12
1.0
 22
0.0
 32
0.0
 13
1.0
 23
0.0
 33
0.0
 40
0.0
 40
0.0
 40
0.0
 40
0.0
 40
1.0
 40
1.0
 40
1.0
 40
2.0
 40
2.0
 40
2.0
 40
3.0
 40
3.0
 40
3.0
 40
4.0
 40
4.0
 40
4.0
 40
5.0
 40
5.0
 40
5.0
 40
6.0
 40
6.0
 40
6.0
 40
7.0
 40
7.0
 40
7.0
 40
8.0
 40
8.0
 40
8.0
 40
9.0
 40
9.0
 40
9.0
 40
10.0
 40
10.0
 40
10.0
 40
11.0
 40
11.0
 40
11.0
 40
12.0
 40
12.0
 40
12.0
 40
13.0
 40
13.0
 40
13.0
 40
14.0
 40
14.0
 40
14.0
 40
15.0
 40
15.0
 40
15.0
 40
16.0
 40
16.0
 40
16.0
 40
17.0
 40
17.0
 40
17.0
 40
18.0
 40
18.0
 40
18.0
 40
19.0
 40
19.0
 40
19.0
 40
20.0
 40
20.0
 40
20.0
 40
21.0
 40
21.0
 40
21.0
 40
22.0
 40
22.0
 40
22.0
 40
23.0
 40
23.0
 40
23.0
 40
24.0
 40
24.0
 40
24.0
 40
25.0
 40
25.0
 40
25.0
 40
26.0
 40
26.0
 40
26.0
 40
27.0
 40
27.0
 40
27.0
 40
28.0
 40
28.0
 40
28.0
 40
29.0
 40
29.0
 40
29.0
 40
30.0
 40
30.0
 40
30.0
 40
31.0
 40
31.0
 40
31.0
 40
32.0
 40
32.0
 40
32.0
 40
33.0
 40
33.0
 40
33.0
 40
34.0
 40
34.0
 40
34.0
 40
35.0
 40
35.0
 40
35.0
 40
36.0
 40
36.0
 40
36.0
 40
37.0
 40
37.0
 40
37.0
 40
38.0
 40
38.0
 40
38.0
 40
39.0
 40
39.0
 40
39.0
 40
40.0
 40
40.0
 40
40.0
 40
41.0
 40
41.0
 40
41.0
 40
42.0
 40
42.0
 40
42.0
 40
43.0
 40
43.0
 40
43.0
 40
44.0
 40
44.0
 40
44.0
 40
45.0
 40
45.0
 40
45.0
 40
46.0
 40
46.0
 40
46.0
 40
47.0
 40
47.0
 40
47.0
 40
48.0
 40
48.0
 40
48.0
 40
49.0
 40
49.0
 40
49.0
 40
50.0
 40
50.0
 40
50.0
 40
51.0
 40
51.0
 40
51.0
 40
52.0
 40
52.0
 40
52.0
 40
53.0
 40
53.0
 40
53.0
 40
54.0
 40
54.0
 40
54.0
 40
55.0
 40
55.0
 40
55.0
 40
56.0
 40
56.0
 40
56.0
 40
57.0
 40
57.0
 40
57.0
 40
58.0
 40
58.0
 40
58.0
 40
59.0
 40
59.0
 40
59.0
 40
60.0
 40
60.0
 40
60.0
 40
61.0
 40
61.0
 40
61.0
 40
62.0
 40
62.0
 40
62.0
 40
63.0
 40
63.0
 40
63.0
 40
64.0
 40
64.0
 40
64.0
 40
65.0
 40
65.0
 40
65.0
 40
66.0
 40
66.0
 40
66.0
 40
67.0
 40
67.0
 40
67.0
 40
68.0
 40
68.0
 40
68.0
 40
69.0
 40
69.0
 40
69.0
 40
70.0
 40
70.0
 40
70.0
 40
71.0
 40
71.0
 40
71.0
 40
72.0
 40
72.0
 40
72.0
 40
73.0
 40
73.0
 40
73.0
 40
74.0
 40
74.0
 40
74.0
 40
75.0
 40
75.0
 40
75.0
 40
76.0
 40
76.0
 40
76.0
 40
77.0
 40
77.0
 40
77.0
 40
78.0
 40
78.0
 40
78.0
 40
79.0
 40
79.0
 40
79.0
 40
80.0
 40
80.0
 40
80.0
 40
81.0
 40
81.0
 40
81.0
 40
82.0
 40
82.0
 40
82.0
 40
83.0
 40
83.0
 40
83.0
 40
84.0
 40
84.0
 40
84.0
 40
85.0
 40
85.0
 40
85.0
 40
86.0
 40
86.0
 40
86.0
 40
87.0
 40
87.0
 40
87.0
 40
87.0
 10
26.17611002797474
 20
5.961936504145288
 30
0.0
 10
21.83694363154095
 20
10.05415818704829
 30
0.0
 10
21.83694363154095
 20
10.08943542652107
 30
0.0
 10
21.94277669569975
 20
10.54804761410987
 30
0.0
 10
22.04860975985854
 20
11.00665980169867
 30
0.0
 10
22.04860975985854
 20
11.50054653727941
 30
0.0
 10
22.04860975985854
 20
11.50054653727941
 30
0.0
 10
22.42248201869316
 20
11.74860148665994
 30
0.0
 10
22.82528635090175
 20
11.95000230702381
 30
0.0
 10
23.24805339655886
 20
12.10026768275936
 30
0.0
 10
23.24805339655886
 20
12.10026768275936
 30
0.0
 10
23.38916504593087
 20
12.17082216170494
 30
0.0
 10
24.8002761566892
 20
11.14776875958982
 30
0.0
 10
24.8002761566892
 20
11.14776875958982
 30
0.0
 10
25.22360841332436
 20
12.27665657160415
 30
0.0
 10
25.22360841332436
 20
12.27665657160415
 30
0.0
 10
23.84777454203882
 20
12.38249098150336
 30
0.0
 10
23.95360895193803
 20
12.45304546044894
 30
0.0
 10
23.95360895193803
 20
12.45304546044894
 30
0.0
 10
24.62388726784441
 20
12.80582323813853
 30
0.0
 10
25.18833117385157
 20
13.1938782553009
 30
0.0
 10
24.90610787510757
 20
13.44082431457212
 30
0.0
 10
24.62388457636356
 20
13.68777037384333
 30
0.0
 10
24.58860733689077
 20
13.75832485278891
 30
0.0
 10
23.77722006309324
 20
13.40554707509933
 30
0.0
 10
23.77722006309324
 20
13.40554707509933
 30
0.0
 10
23.03638726824128
 20
12.98221481846417
 30
0.0
 10
23.03638726824128
 20
12.98221481846417
 30
0.0
 10
22.89527561886928
 20
14.18165980090492
 30
0.0
 10
22.33083171286212
 20
14.04054815153292
 30
0.0
 10
22.33083171286212
 20
14.04054815153292
 30
0.0
 10
21.76638780685495
 20
13.86415926268812
 30
0.0
 10
22.6836094905517
 20
12.80582592961937
 30
0.0
 10
22.61305501160612
 20
12.77054869014659
 30
0.0
 10
22.61305501160612
 20
12.77054869014659
 30
0.0
 10
22.01333252038575
 20
12.417770912457
 30
0.0
 10
22.01333252038575
 20
12.417770912457
 30
0.0
 10
21.98044935312712
 20
12.62074624911687
 30
0.0
 10
21.93329595441319
 20
12.82115122156704
 30
0.0
 10
21.87222221675417
 20
13.01749205793695
 30
0.0
 10
21.63114896869296
 20
13.43171365190214
 30
0.0
 10
21.32092484894833
 20
13.80159579037982
 30
0.0
 10
20.95500053305742
 20
14.11110263047849
 30
0.0
 10
21.76638915259538
 20
15.09888148460167
 30
0.0
 10
21.73111191312259
 20
16.01610316829841
 30
0.0
 10
20.91972329358463
 20
16.82749044209595
 30
0.0
 10
20.91972329358463
 20
16.82749044209595
 30
0.0
 10
20.91972329358463
 20
17.03915657041353
 30
0.0
 10
22.08388969081217
 20
16.65110155325116
 30
0.0
 10
22.11916693028496
 20
17.28610262968474
 30
0.0
 10
22.11916693028496
 20
17.28610262968474
 30
0.0
 10
22.11916693028496
 20
17.95637825411027
 30
0.0
 10
20.49638969120905
 20
17.77998936526548
 30
0.0
 10
20.46111110599583
 20
17.95637825411027
 30
0.0
 10
20.46111110599583
 20
17.95637825411027
 30
0.0
 10
21.096110836689
 20
19.15582323655103
 30
0.0
 10
21.51944443906459
 20
19.89665603140298
 30
0.0
 10
21.37833278969258
 20
20.28471104856536
 30
0.0
 10
21.28112053868946
 20
20.43905132630455
 30
0.0
 10
21.13038549954596
 20
20.55210159635685
 30
0.0
 10
20.954999187317
 20
20.60221158678215
 30
0.0
 10
20.954999187317
 20
20.60221158678215
 30
0.0
 10
21.51944443906459
 20
20.99026929542537
 30
0.0
 10
21.51944443906459
 20
20.99026929542537
 30
0.0
 10
21.78017760897892
 20
21.21155746777402
 30
0.0
 10
22.01668745126259
 20
21.45989233116273
 30
0.0
 10
22.22499999444375
 20
21.73110209027733
 30
0.0
 10
22.22219681714071
 20
21.40356771145974
 30
0.0
 10
22.32077634041454
 20
21.0831845972549
 30
0.0
 10
22.50722194744733
 20
20.81388040658058
 30
0.0
 10
22.70326268370271
 20
20.54283751927855
 30
0.0
 10
23.01942824741897
 20
20.38475608316084
 30
0.0
 10
23.35388780645808
 20
20.39054814994542
 30
0.0
 10
23.89481355281672
 20
20.39054814994542
 30
0.0
 10
24.42398021935109
 20
20.743325927635
 30
0.0
 10
24.9413878060612
 20
21.44888148301417
 30
0.0
 10
24.9413878060612
 20
21.44888148301417
 30
0.0
 10
24.9413878060612
 20
21.44888148301417
 30
0.0
 10
24.9413878060612
 20
21.44888148301417
 30
0.0
 10
24.91837564481207
 20
21.17193348673195
 30
0.0
 10
25.02216452926692
 20
20.89948833790819
 30
0.0
 10
25.22361110480521
 20
20.70804868816221
 30
0.0
 10
25.39734350205317
 20
20.49919784881148
 30
0.0
 10
25.65763392336804
 20
20.38206729379383
 30
0.0
 10
25.92916666018438
 20
20.39054814994542
 30
0.0
 10
25.92916666018438
 20
20.39054814994542
 30
0.0
 10
26.14083278850196
 20
20.39054814994542
 30
0.0
 10
26.14083278850196
 20
20.39054814994542
 30
0.0
 10
26.14083278850196
 20
20.39054814994542
 30
0.0
 10
26.74055393398191
 20
19.79082700446546
 30
0.0
 10
26.74055393398191
 20
19.79082700446546
 30
0.0
 10
26.74055393398191
 20
19.79082700446546
 30
0.0
 10
25.54110895154115
 20
19.93193865383747
 30
0.0
 10
25.54110895154115
 20
19.93193865383747
 30
0.0
 10
25.48265806196837
 20
19.93193865383747
 30
0.0
 10
25.43527454164194
 20
19.88455782499189
 30
0.0
 10
25.43527454164194
 20
19.8261069354191
 30
0.0
 10
25.43527454164194
 20
19.8261069354191
 30
0.0
 10
25.43527454164194
 20
19.82610424393825
 30
0.0
 10
25.43527454164194
 20
19.82610424393825
 30
0.0
 10
25.43527454164194
 20
19.82610424393825
 30
0.0
 10
25.43527454164194
 20
19.82610424393825
 30
0.0
 10
25.43527454164194
 20
19.82610424393825
 30
0.0
 10
25.39999730216915
 20
19.75554976499268
 30
0.0
 10
25.39999730216915
 20
19.72026983403904
 30
0.0
 10
25.47055178111473
 20
19.68499259456625
 30
0.0
 10
25.47055178111473
 20
19.68499259456625
 30
0.0
 10
26.38777346481148
 20
18.9441597997143
 30
0.0
 10
26.38777346481148
 20
18.9441597997143
 30
0.0
 10
26.38777346481148
 20
18.9441597997143
 30
0.0
 10
25.22361110480521
 20
18.9441597997143
 30
0.0
 10
25.22361110480521
 20
18.9441597997143
 30
0.0
 10
25.16474572718185
 20
19.0237657287512
 30
0.0
 10
25.07513556383348
 20
19.07497115188157
 30
0.0
 10
24.97666773701484
 20
19.0852714490863
 30
0.0
 10
24.82080138963492
 20
19.08505343913762
 30
0.0
 10
24.69462476748764
 20
18.95851885003758
 30
0.0
 10
24.69484277743632
 20
18.80265250265766
 30
0.0
 10
24.69506078738499
 20
18.64709567557524
 30
0.0
 10
24.82111090993242
 20
18.52104555302781
 30
0.0
 10
24.97666773701484
 20
18.52082754307913
 30
0.0
 10
25.07513556383348
 20
18.53112784028386
 30
0.0
 10
25.16474572718185
 20
18.58233326341423
 30
0.0
 10
25.22361110480521
 20
18.66193919245114
 30
0.0
 10
25.22361110480521
 20
18.66193919245114
 30
0.0
 10
26.38777884777317
 20
18.66193919245114
 30
0.0
 10
26.38777884777317
 20
18.66193919245114
 30
0.0
 10
26.38777884777317
 20
18.66193919245114
 30
0.0
 10
25.47055716407642
 20
17.92110639759918
 30
0.0
 10
25.47055716407642
 20
17.92110639759918
 30
0.0
 10
25.40000268513085
 20
17.88582915812639
 30
0.0
 10
25.40000268513085
 20
17.8505519186536
 30
0.0
 10
25.43527992460364
 20
17.77999474822718
 30
0.0
 10
25.43527992460364
 20
17.77999474822718
 30
0.0
 10
25.43527992460364
 20
17.77999474822718
 30
0.0
 10
25.43527992460364
 20
17.77999474822718
 30
0.0
 10
25.43527992460364
 20
17.7094402692816
 30
0.0
 10
25.50583440354922
 20
17.67416033832796
 30
0.0
 10
25.54111433450285
 20
17.7094402692816
 30
0.0
 10
25.54111433450285
 20
17.7094402692816
 30
0.0
 10
26.7405593169436
 20
17.81527467918081
 30
0.0
 10
26.7405593169436
 20
17.81527467918081
 30
0.0
 10
26.7405593169436
 20
17.81527467918081
 30
0.0
 10
25.89389211219244
 20
17.00388471390243
 30
0.0
 10
25.89389211219244
 20
17.00388471390243
 30
0.0
 10
25.89389211219244
 20
17.00388471390243
 30
0.0
 10
25.89389211219244
 20
17.00388471390243
 30
0.0
 10
25.89389211219244
 20
17.00388471390243
 30
0.0
 10
25.79394397090747
 20
17.02738403318503
 30
0.0
 10
25.68880127158615
 20
17.00109903122491
 30
0.0
 10
25.61166881344843
 20
16.93333023495686
 30
0.0
 10
25.50863354363098
 20
16.82449751539313
 30
0.0
 10
25.50863354363098
 20
16.65410793735821
 30
0.0
 10
25.61166881344843
 20
16.54527521779448
 30
0.0
 10
25.73219063433437
 20
16.43747602687634
 30
0.0
 10
25.91447924919765
 20
16.43747602687634
 30
0.0
 10
26.03500107008359
 20
16.54527521779448
 30
0.0
 10
26.09676786406093
 20
16.6261138450597
 30
0.0
 10
26.11024680014697
 20
16.73394264226717
 30
0.0
 10
26.07027830955638
 20
16.82749851653849
 30
0.0
 10
26.07027830955638
 20
16.82749851653849
 30
0.0
 10
26.91694551430755
 20
17.60360316790154
 30
0.0
 10
26.91694551430755
 20
17.60360316790154
 30
0.0
 10
26.91694551430755
 20
17.60360316790154
 30
0.0
 10
26.77583386493555
 20
16.43943542493357
 30
0.0
 10
26.77583386493555
 20
16.43943542493357
 30
0.0
 10
26.77583386493555
 20
16.368880945988
 30
0.0
 10
26.81111110440833
 20
16.33360101503436
 30
0.0
 10
26.88166827483476
 20
16.29832377556157
 30
0.0
 10
26.88166827483476
 20
16.29832377556157
 30
0.0
 10
26.88166827483476
 20
16.29832377556157
 30
0.0
 10
26.88166827483476
 20
16.29832377556157
 30
0.0
 10
26.91694551430755
 20
16.26304653608878
 30
0.0
 10
26.98750268473398
 20
16.29832377556157
 30
0.0
 10
27.02277992420676
 20
16.33360101503436
 30
0.0
 10
27.02277992420676
 20
16.33360101503436
 30
0.0
 10
27.76361002757787
 20
17.25082539021195
 30
0.0
 10
27.76361002757787
 20
17.25082539021195
 30
0.0
 10
27.76361002757787
 20
17.25082539021195
 30
0.0
 10
27.76361002757787
 20
16.08665764724399
 30
0.0
 10
27.76361002757787
 20
16.08665764724399
 30
0.0
 10
27.6755017105426
 20
16.03579404218129
 30
0.0
 10
27.62158865767929
 20
15.94144687254071
 30
0.0
 10
27.62249837820587
 20
15.83971427945362
 30
0.0
 10
27.62249837820587
 20
15.6838479320737
 30
0.0
 10
27.7488526380891
 20
15.55749098070962
 30
0.0
 10
27.90471898546902
 20
15.55749098070962
 30
0.0
 10
27.90471898546902
 20
15.55749098070962
 30
0.0
 10
27.90472167694987
 20
15.55749098070962
 30
0.0
 10
27.90472167694987
 20
15.55749098070962
 30
0.0
 10
28.05355787635521
 20
15.57328459032481
 30
0.0
 10
28.17115136607869
 20
15.69087808004828
 30
0.0
 10
28.18694497569388
 20
15.83971427945362
 30
0.0
 10
28.18117174927524
 20
15.94932483698237
 30
0.0
 10
28.11237211584246
 20
16.04564755356528
 30
0.0
 10
28.01055608684909
 20
16.08665764724399
 30
0.0
 10
28.01055608684909
 20
16.08665764724399
 30
0.0
 10
28.01055608684909
 20
17.25082539021195
 30
0.0
 10
28.01055608684909
 20
17.25082539021195
 30
0.0
 10
28.01055608684909
 20
17.25082539021195
 30
0.0
 10
28.75138888170104
 20
16.33360370651521
 30
0.0
 10
28.75138888170104
 20
16.33360370651521
 30
0.0
 10
28.7940999912756
 20
16.28103639407582
 30
0.0
 10
28.86813455495745
 20
16.26623055793179
 30
0.0
 10
28.92777777054583
 20
16.29832646704242
 30
0.0
 10
28.92777777054583
 20
16.29832646704242
 30
0.0
 10
28.92777777054583
 20
16.29832646704242
 30
0.0
 10
28.92777777054583
 20
16.29832646704242
 30
0.0
 10
28.97219258749708
 20
16.33163892549628
 30
0.0
 10
28.99833224949141
 20
16.38391824948494
 30
0.0
 10
28.99833224949141
 20
16.43943811641442
 30
0.0
 10
28.99833224949141
 20
16.43943811641442
 30
0.0
 10
28.89250053107305
 20
17.60360316790154
 30
0.0
 10
28.89250053107305
 20
17.60360316790154
 30
0.0
 10
28.89250053107305
 20
17.60360316790154
 30
0.0
 10
29.70389049635143
 20
16.79221320262316
 30
0.0
 10
29.70389049635143
 20
16.79221320262316
 30
0.0
 10
29.70389049635143
 20
16.79221320262316
 30
0.0
 10
29.70389049635143
 20
16.79221320262316
 30
0.0
 10
29.70389049635143
 20
16.79221320262316
 30
0.0
 10
29.65373205927087
 20
16.64463661625462
 30
0.0
 10
29.73270279882768
 20
16.48434278287997
 30
0.0
 10
29.88027938519622
 20
16.43418165431857
 30
0.0
 10
30.02785597156476
 20
16.38402321723801
 30
0.0
 10
30.1881498049394
 20
16.46299664827567
 30
0.0
 10
30.23831093350081
 20
16.61057054316336
 30
0.0
 10
30.28846937058137
 20
16.7581471295319
 30
0.0
 10
30.20949593954371
 20
16.91844365438739
 30
0.0
 10
30.06192204465601
 20
16.96860209146795
 30
0.0
 10
30.00302706074333
 20
16.98861863453342
 30
0.0
 10
29.93917167762806
 20
16.98861863453342
 30
0.0
 10
29.88027938519622
 20
16.96860209146795
 30
0.0
 10
29.88027938519622
 20
16.96860209146795
 30
0.0
 10
29.88027938519622
 20
16.96860209146795
 30
0.0
 10
29.88027938519622
 20
16.96860209146795
 30
0.0
 10
29.88027938519622
 20
16.96860209146795
 30
0.0
 10
29.06888941991784
 20
17.77999205674633
 30
0.0
 10
29.06888941991784
 20
17.77999205674633
 30
0.0
 10
29.06888941991784
 20
17.77999205674633
 30
0.0
 10
30.2330571628858
 20
17.67415764684712
 30
0.0
 10
30.2330571628858
 20
17.67415764684712
 30
0.0
 10
30.30361164183138
 20
17.63888040737433
 30
0.0
 10
30.33889157278502
 20
17.67415764684712
 30
0.0
 10
30.3741688122578
 20
17.74471212579269
 30
0.0
 10
30.3741688122578
 20
17.74471212579269
 30
0.0
 10
30.3741688122578
 20
17.74471212579269
 30
0.0
 10
30.3741688122578
 20
17.74471212579269
 30
0.0
 10
30.3741688122578
 20
17.81526660473827
 30
0.0
 10
30.3741688122578
 20
17.85054653569191
 30
0.0
 10
30.33889157278502
 20
17.8858237751647
 30
0.0
 10
30.33889157278502
 20
17.8858237751647
 30
0.0
 10
29.42166988908827
 20
18.62665657001665
 30
0.0
 10
29.42166988908827
 20
18.62665657001665
 30
0.0
 10
29.42166988908827
 20
18.62665657001665
 30
0.0
 10
30.44472598268423
 20
18.62665657001665
 30
0.0
 10
30.44472598268423
 20
18.62665657001665
 30
0.0
 10
30.55875326028431
 20
17.85571956188148
 30
0.0
 10
30.6176993823331
 20
17.07763936357611
 30
0.0
 10
30.62111487152902
 20
16.29832377556157
 30
0.0
 10
30.62810464729089
 20
12.38734102999119
 30
0.0
 10
29.01966492669148
 20
8.64708429756173
 30
0.0
 10
26.17611002797474
 20
5.961936504145288
 30
0.0
  0
ENDBLK
  5
4C
330
49
100
AcDbEntity
  8
0
100
AcDbBlockEnd
  0
ENDSEC
  0
SECTION
  2
ENTITIES
  0
INSERT
  5
42
330
1F
100
AcDbEntity
  8
Layer 1
100
AcDbBlockReference
  2
block 2
 10
0.0
 20
0.0
 30
0.0
  0
INSERT
  5
46
330
1F
100
AcDbEntity
  8
Layer 1
100
AcDbBlockReference
  2
block 3
 10
0.0
 20
0.0
 30
0.0
  0
ENDSEC
  0
SECTION
  2
OBJECTS
  0
DICTIONARY
  5
C
330
0
100
AcDbDictionary
281
     1
  3
ACAD_GROUP
350
D
  3
ACAD_LAYOUT
350
1A
  3
ACAD_MATERIAL
350
3B
  3
ACAD_MLEADERSTYLE
350
182
  3
ACAD_MLINESTYLE
350
17
  3
ACAD_PLOTSETTINGS
350
19
  3
ACAD_PLOTSTYLENAME
350
E
  3
ACAD_TABLESTYLE
350
181
  3
ACAD_VISUALSTYLE
350
2A
  0
SUN
  5
3F
330
29
100
AcDbSun
 90
        1
290
     0
 63
     7
421
 16777215
 40
1.0
291
     1
 91
  2455826
 92
 54000000
292
     0
 70
     2
 71
   256
280
     1
  0
DICTIONARY
  5
D
102
{ACAD_REACTORS
330
C
102
}
330
C
100
AcDbDictionary
281
     1
  0
DICTIONARY
  5
1A
102
{ACAD_REACTORS
330
C
102
}
330
C
100
AcDbDictionary
281
     1
  3
Layout1
350
1E
  3
Layout2
350
26
  3
Model
350
22
  0
DICTIONARY
  5
3B
102
{ACAD_REACTORS
330
C
102
}
330
C
100
AcDbDictionary
281
     1
  3
ByBlock
350
3D
  3
ByLayer
350
3C
  3
Global
350
3E
  0
DICTIONARY
  5
182
102
{ACAD_REACTORS
330
C
102
}
330
C
100
AcDbDictionary
281
     1
  0
DICTIONARY
  5
17
102
{ACAD_REACTORS
330
C
102
}
330
C
100
AcDbDictionary
281
     1
  3
Standard
350
18
  0
DICTIONARY
  5
19
102
{ACAD_REACTORS
330
C
102
}
330
C
100
AcDbDictionary
281
     1
  0
ACDBDICTIONARYWDFLT
  5
E
102
{ACAD_REACTORS
330
C
102
}
330
C
100
AcDbDictionary
281
     1
  3
Normal
350
F
100
AcDbDictionaryWithDefault
340
F
  0
DICTIONARY
  5
181
102
{ACAD_REACTORS
330
C
102
}
330
C
100
AcDbDictionary
281
     1
  0
DICTIONARY
  5
2A
102
{ACAD_REACTORS
330
C
102
}
330
C
100
AcDbDictionary
281
     1
  3
2dWireframe
350
2F
  3
3D Hidden
350
31
  3
3dWireframe
350
30
  3
Basic
350
32
  3
Brighten
350
36
  3
ColorChange
350
3A
  3
Conceptual
350
34
  3
Dim
350
35
  3
Facepattern
350
39
  3
Flat
350
2B
  3
FlatWithEdges
350
2C
  3
Gouraud
350
2D
  3
GouraudWithEdges
350
2E
  3
Linepattern
350
38
  3
Realistic
350
33
  3
Thicken
350
37
  0
LAYOUT
  5
1E
102
{ACAD_REACTORS
330
1A
102
}
330
1A
100
AcDbPlotSettings
  1

  2
none_device
  4

  6

 40
0.0
 41
0.0
 42
0.0
 43
0.0
 44
0.0
 45
0.0
 46
0.0
 47
0.0
 48
0.0
 49
0.0
140
0.0
141
0.0
142
1.0
143
1.0
 70
   688
 72
     0
 73
     0
 74
     5
  7

 75
    16
 76
     0
 77
     2
 78
   300
147
1.0
148
0.0
149
0.0
100
AcDbLayout
  1
Layout1
 70
     1
 71
     1
 10
0.0
 20
0.0
 11
12.0
 21
9.0
 12
0.0
 22
0.0
 32
0.0
 14
1.000000000000000E+20
 24
1.000000000000000E+20
 34
1.000000000000000E+20
 15
-1.000000000000000E+20
 25
-1.000000000000000E+20
 35
-1.000000000000000E+20
146
0.0
 13
0.0
 23
0.0
 33
0.0
 16
1.0
 26
0.0
 36
0.0
 17
0.0
 27
1.0
 37
0.0
 76
     0
330
1B
  0
LAYOUT
  5
26
102
{ACAD_REACTORS
330
1A
102
}
330
1A
100
AcDbPlotSettings
  1

  2
none_device
  4

  6

 40
0.0
 41
0.0
 42
0.0
 43
0.0
 44
0.0
 45
0.0
 46
0.0
 47
0.0
 48
0.0
 49
0.0
140
0.0
141
0.0
142
1.0
143
1.0
 70
   688
 72
     0
 73
     0
 74
     5
  7

 75
    16
 76
     0
 77
     2
 78
   300
147
1.0
148
0.0
149
0.0
100
AcDbLayout
  1
Layout2
 70
     1
 71
     2
 10
0.0
 20
0.0
 11
0.0
 21
0.0
 12
0.0
 22
0.0
 32
0.0
 14
0.0
 24
0.0
 34
0.0
 15
0.0
 25
0.0
 35
0.0
146
0.0
 13
0.0
 23
0.0
 33
0.0
 16
1.0
 26
0.0
 36
0.0
 17
0.0
 27
1.0
 37
0.0
 76
     0
330
23
  0
LAYOUT
  5
22
102
{ACAD_REACTORS
330
1A
102
}
330
1A
100
AcDbPlotSettings
  1

  2
none_device
  4

  6

 40
0.0
 41
0.0
 42
0.0
 43
0.0
 44
0.0
 45
0.0
 46
0.0
 47
0.0
 48
0.0
 49
0.0
140
0.0
141
0.0
142
1.0
143
1.0
 70
  1712
 72
     0
 73
     0
 74
     0
  7

 75
     0
 76
     0
 77
     2
 78
   300
147
1.0
148
0.0
149
0.0
100
AcDbLayout
  1
Model
 70
     1
 71
     0
 10
0.0
 20
0.0
 11
12.0
 21
9.0
 12
0.0
 22
0.0
 32
0.0
 14
1.000000000000000E+20
 24
1.000000000000000E+20
 34
1.000000000000000E+20
 15
-1.000000000000000E+20
 25
-1.000000000000000E+20
 35
-1.000000000000000E+20
146
0.0
 13
0.0
 23
0.0
 33
0.0
 16
1.0
 26
0.0
 36
0.0
 17
0.0
 27
1.0
 37
0.0
 76
     0
330
1F
331
29
  0
MATERIAL
  5
3D
102
{ACAD_REACTORS
330
3B
102
}
330
3B
100
AcDbMaterial
  1
ByBlock
 72
     1
 94
      127
  0
MATERIAL
  5
3C
102
{ACAD_REACTORS
330
3B
102
}
330
3B
100
AcDbMaterial
  1
ByLayer
 72
     1
 94
      127
  0
MATERIAL
  5
3E
102
{ACAD_REACTORS
330
3B
102
}
330
3B
100
AcDbMaterial
  1
Global
 72
     1
 94
      127
  0
MLINESTYLE
  5
18
102
{ACAD_REACTORS
330
17
102
}
330
17
100
AcDbMlineStyle
  2
Standard
 70
     0
  3

 62
   256
 51
90.0
 52
90.0
 71
     2
 49
0.5
 62
   256
  6
BYLAYER
 49
-0.5
 62
   256
  6
BYLAYER
  0
ACDBPLACEHOLDER
  5
F
102
{ACAD_REACTORS
330
E
102
}
330
E
  0
VISUALSTYLE
  5
2F
102
{ACAD_REACTORS
330
2A
102
}
330
2A
100
AcDbVisualStyle
  2
2dWireframe
 70
     4
177
     2
291
     0
 71
     0
176
     1
 72
     2
176
     1
 73
     0
176
     1
 90
        0
176
     1
 40
-0.6
176
     1
 41
-30.0
176
     1
 62
     5
 63
     7
421
 16777215
176
     1
 74
     1
176
     1
 91
        4
176
     1
 64
     7
176
     1
 65
   257
176
     1
 75
     1
176
     1
175
     1
176
     1
 42
1.0
176
     1
 92
        0
176
     1
 66
   257
176
     1
 43
1.0
176
     1
 76
     1
176
     1
 77
     6
176
     1
 78
     2
176
     1
 67
     7
176
     1
 79
     5
176
     1
170
     0
176
     1
171
     0
176
     1
290
     0
176
     1
 93
        1
176
     1
 44
0.0
176
     1
173
     0
176
     1
  0
VISUALSTYLE
  5
31
102
{ACAD_REACTORS
330
2A
102
}
330
2A
100
AcDbVisualStyle
  2
3D Hidden
 70
     6
177
     2
291
     0
 71
     1
176
     1
 72
     2
176
     1
 73
     2
176
     1
 90
        0
176
     1
 40
-0.6
176
     1
 41
-30.0
176
     1
 62
     5
 63
     7
421
 16777215
176
     1
 74
     2
176
     1
 91
        2
176
     1
 64
     7
176
     1
 65
   257
176
     1
 75
     2
176
     1
175
     1
176
     1
 42
40.0
176
     1
 92
        0
176
     1
 66
   257
176
     1
 43
1.0
176
     1
 76
     1
176
     1
 77
     6
176
     1
 78
     2
176
     1
 67
     7
176
     1
 79
     3
176
     1
170
     0
176
     1
171
     0
176
     1
290
     0
176
     1
 93
        1
176
     1
 44
0.0
176
     1
173
     0
176
     1
  0
VISUALSTYLE
  5
30
102
{ACAD_REACTORS
330
2A
102
}
330
2A
100
AcDbVisualStyle
  2
3dWireframe
 70
     5
177
     2
291
     0
 71
     0
176
     1
 72
     2
176
     1
 73
     0
176
     1
 90
        0
176
     1
 40
-0.6
176
     1
 41
-30.0
176
     1
 62
     5
 63
     7
421
 16777215
176
     1
 74
     1
176
     1
 91
        4
176
     1
 64
     7
176
     1
 65
   257
176
     1
 75
     1
176
     1
175
     1
176
     1
 42
1.0
176
     1
 92
        0
176
     1
 66
   257
176
     1
 43
1.0
176
     1
 76
     1
176
     1
 77
     6
176
     1
 78
     2
176
     1
 67
     7
176
     1
 79
     5
176
     1
170
     0
176
     1
171
     0
176
     1
290
     0
176
     1
 93
        1
176
     1
 44
0.0
176
     1
173
     0
176
     1
  0
VISUALSTYLE
  5
32
102
{ACAD_REACTORS
330
2A
102
}
330
2A
100
AcDbVisualStyle
  2
Basic
 70
     7
177
     2
291
     1
 71
     1
176
     1
 72
     0
176
     1
 73
     1
176
     1
 90
        0
176
     1
 40
-0.6
176
     1
 41
-30.0
176
     1
 62
     5
 63
     7
421
 16777215
176
     1
 74
     0
176
     1
 91
        4
176
     1
 64
     7
176
     1
 65
   257
176
     1
 75
     1
176
     1
175
     1
176
     1
 42
1.0
176
     1
 92
        8
176
     1
 66
     7
176
     1
 43
1.0
176
     1
 76
     1
176
     1
 77
     6
176
     1
 78
     2
176
     1
 67
     7
176
     1
 79
     5
176
     1
170
     0
176
     1
171
     0
176
     1
290
     0
176
     1
 93
        1
176
     1
 44
0.0
176
     1
173
     0
176
     1
  0
VISUALSTYLE
  5
36
102
{ACAD_REACTORS
330
2A
102
}
330
2A
100
AcDbVisualStyle
  2
Brighten
 70
    12
177
     2
291
     1
 71
     2
176
     1
 72
     2
176
     1
 73
     0
176
     1
 90
        0
176
     1
 40
-0.6
176
     1
 41
-30.0
176
     1
 62
     5
 63
     7
421
 16777215
176
     1
 74
     1
176
     1
 91
        4
176
     1
 64
     7
176
     1
 65
   257
176
     1
 75
     1
176
     1
175
     1
176
     1
 42
1.0
176
     1
 92
        8
176
     1
 66
     7
176
     1
 43
1.0
176
     1
 76
     1
176
     1
 77
     6
176
     1
 78
     2
176
     1
 67
     7
176
     1
 79
     5
176
     1
170
     0
176
     1
171
     0
176
     1
290
     0
176
     1
 93
        1
176
     1
 44
50.0
176
     1
173
     0
176
     1
  0
VISUALSTYLE
  5
3A
102
{ACAD_REACTORS
330
2A
102
}
330
2A
100
AcDbVisualStyle
  2
ColorChange
 70
    16
177
     2
291
     1
 71
     2
176
     1
 72
     2
176
     1
 73
     3
176
     1
 90
        0
176
     1
 40
-0.6
176
     1
 41
-30.0
176
     1
 62
     5
 63
     8
421
  8421504
176
     1
 74
     1
176
     1
 91
        4
176
     1
 64
     7
176
     1
 65
   257
176
     1
 75
     1
176
     1
175
     1
176
     1
 42
1.0
176
     1
 92
        8
176
     1
 66
     8
424
  8421504
176
     1
 43
1.0
176
     1
 76
     1
176
     1
 77
     6
176
     1
 78
     2
176
     1
 67
     7
176
     1
 79
     5
176
     1
170
     0
176
     1
171
     0
176
     1
290
     0
176
     1
 93
        1
176
     1
 44
0.0
176
     1
173
     0
176
     1
  0
VISUALSTYLE
  5
34
102
{ACAD_REACTORS
330
2A
102
}
330
2A
100
AcDbVisualStyle
  2
Conceptual
 70
     9
177
     2
291
     0
 71
     3
176
     1
 72
     2
176
     1
 73
     0
176
     1
 90
        0
176
     1
 40
-0.6
176
     1
 41
-30.0
176
     1
 62
     5
 63
     7
421
 16777215
176
     1
 74
     2
176
     1
 91
        2
176
     1
 64
     7
176
     1
 65
   257
176
     1
 75
     1
176
     1
175
     1
176
     1
 42
40.0
176
     1
 92
        8
176
     1
 66
     7
176
     1
 43
1.0
176
     1
 76
     1
176
     1
 77
     6
176
     1
 78
     2
176
     1
 67
     7
176
     1
 79
     3
176
     1
170
     0
176
     1
171
     0
176
     1
290
     0
176
     1
 93
        1
176
     1
 44
0.0
176
     1
173
     0
176
     1
  0
VISUALSTYLE
  5
35
102
{ACAD_REACTORS
330
2A
102
}
330
2A
100
AcDbVisualStyle
  2
Dim
 70
    11
177
     2
291
     1
 71
     2
176
     1
 72
     2
176
     1
 73
     0
176
     1
 90
        0
176
     1
 40
-0.6
176
     1
 41
-30.0
176
     1
 62
     5
 63
     7
421
 16777215
176
     1
 74
     1
176
     1
 91
        4
176
     1
 64
     7
176
     1
 65
   257
176
     1
 75
     1
176
     1
175
     1
176
     1
 42
1.0
176
     1
 92
        8
176
     1
 66
     7
176
     1
 43
1.0
176
     1
 76
     1
176
     1
 77
     6
176
     1
 78
     2
176
     1
 67
     7
176
     1
 79
     5
176
     1
170
     0
176
     1
171
     0
176
     1
290
     0
176
     1
 93
        1
176
     1
 44
-50.0
176
     1
173
     0
176
     1
  0
VISUALSTYLE
  5
39
102
{ACAD_REACTORS
330
2A
102
}
330
2A
100
AcDbVisualStyle
  2
Facepattern
 70
    15
177
     2
291
     1
 71
     2
176
     1
 72
     2
176
     1
 73
     0
176
     1
 90
        0
176
     1
 40
-0.6
176
     1
 41
-30.0
176
     1
 62
     5
 63
     7
421
 16777215
176
     1
 74
     1
176
     1
 91
        4
176
     1
 64
     7
176
     1
 65
   257
176
     1
 75
     1
176
     1
175
     1
176
     1
 42
1.0
176
     1
 92
        8
176
     1
 66
     7
176
     1
 43
1.0
176
     1
 76
     1
176
     1
 77
     6
176
     1
 78
     2
176
     1
 67
     7
176
     1
 79
     5
176
     1
170
     0
176
     1
171
     0
176
     1
290
     0
176
     1
 93
        1
176
     1
 44
0.0
176
     1
173
     0
176
     1
  0
VISUALSTYLE
  5
2B
102
{ACAD_REACTORS
330
2A
102
}
330
2A
100
AcDbVisualStyle
  2
Flat
 70
     0
177
     2
291
     1
 71
     2
176
     1
 72
     1
176
     1
 73
     1
176
     1
 90
        2
176
     1
 40
-0.6
176
     1
 41
30.0
176
     1
 62
     5
 63
     7
421
 16777215
176
     1
 74
     0
176
     1
 91
        4
176
     1
 64
     7
176
     1
 65
   257
176
     1
 75
     1
176
     1
175
     1
176
     1
 42
1.0
176
     1
 92
        8
176
     1
 66
     7
176
     1
 43
1.0
176
     1
 76
     1
176
     1
 77
     6
176
     1
 78
     2
176
     1
 67
     7
176
     1
 79
     5
176
     1
170
     0
176
     1
171
     0
176
     1
290
     0
176
     1
 93
       13
176
     1
 44
0.0
176
     1
173
     0
176
     1
  0
VISUALSTYLE
  5
2C
102
{ACAD_REACTORS
330
2A
102
}
330
2A
100
AcDbVisualStyle
  2
FlatWithEdges
 70
     1
177
     2
291
     1
 71
     2
176
     1
 72
     1
176
     1
 73
     1
176
     1
 90
        2
176
     1
 40
-0.6
176
     1
 41
30.0
176
     1
 62
     5
 63
     7
421
 16777215
176
     1
 74
     1
176
     1
 91
        4
176
     1
 64
     7
176
     1
 65
   257
176
     1
 75
     1
176
     1
175
     1
176
     1
 42
1.0
176
     1
 92
        0
176
     1
 66
   257
176
     1
 43
1.0
176
     1
 76
     1
176
     1
 77
     6
176
     1
 78
     2
176
     1
 67
     7
176
     1
 79
     5
176
     1
170
     0
176
     1
171
     0
176
     1
290
     0
176
     1
 93
       13
176
     1
 44
0.0
176
     1
173
     0
176
     1
  0
VISUALSTYLE
  5
2D
102
{ACAD_REACTORS
330
2A
102
}
330
2A
100
AcDbVisualStyle
  2
Gouraud
 70
     2
177
     2
291
     1
 71
     2
176
     1
 72
     2
176
     1
 73
     1
176
     1
 90
        2
176
     1
 40
-0.6
176
     1
 41
30.0
176
     1
 62
     5
 63
     7
421
 16777215
176
     1
 74
     0
176
     1
 91
        4
176
     1
 64
     7
176
     1
 65
   257
176
     1
 75
     1
176
     1
175
     1
176
     1
 42
1.0
176
     1
 92
        0
176
     1
 66
     7
176
     1
 43
1.0
176
     1
 76
     1
176
     1
 77
     6
176
     1
 78
     2
176
     1
 67
     7
176
     1
 79
     5
176
     1
170
     0
176
     1
171
     0
176
     1
290
     0
176
     1
 93
       13
176
     1
 44
0.0
176
     1
173
     0
176
     1
  0
VISUALSTYLE
  5
2E
102
{ACAD_REACTORS
330
2A
102
}
330
2A
100
AcDbVisualStyle
  2
GouraudWithEdges
 70
     3
177
     2
291
     1
 71
     2
176
     1
 72
     2
176
     1
 73
     1
176
     1
 90
        2
176
     1
 40
-0.6
176
     1
 41
30.0
176
     1
 62
     5
 63
     7
421
 16777215
176
     1
 74
     1
176
     1
 91
        4
176
     1
 64
     7
176
     1
 65
   257
176
     1
 75
     1
176
     1
175
     1
176
     1
 42
1.0
176
     1
 92
        0
176
     1
 66
   257
176
     1
 43
1.0
176
     1
 76
     1
176
     1
 77
     6
176
     1
 78
     2
176
     1
 67
     7
176
     1
 79
     5
176
     1
170
     0
176
     1
171
     0
176
     1
290
     0
176
     1
 93
       13
176
     1
 44
0.0
176
     1
173
     0
176
     1
  0
VISUALSTYLE
  5
38
102
{ACAD_REACTORS
330
2A
102
}
330
2A
100
AcDbVisualStyle
  2
Linepattern
 70
    14
177
     2
291
     1
 71
     2
176
     1
 72
     2
176
     1
 73
     0
176
     1
 90
        0
176
     1
 40
-0.6
176
     1
 41
-30.0
176
     1
 62
     5
 63
     7
421
 16777215
176
     1
 74
     1
176
     1
 91
        4
176
     1
 64
     7
176
     1
 65
   257
176
     1
 75
     7
176
     1
175
     7
176
     1
 42
1.0
176
     1
 92
        8
176
     1
 66
     7
176
     1
 43
1.0
176
     1
 76
     1
176
     1
 77
     6
176
     1
 78
     2
176
     1
 67
     7
176
     1
 79
     5
176
     1
170
     0
176
     1
171
     0
176
     1
290
     0
176
     1
 93
        1
176
     1
 44
0.0
176
     1
173
     0
176
     1
  0
VISUALSTYLE
  5
33
102
{ACAD_REACTORS
330
2A
102
}
330
2A
100
AcDbVisualStyle
  2
Realistic
 70
     8
177
     2
291
     0
 71
     2
176
     1
 72
     2
176
     1
 73
     0
176
     1
 90
        0
176
     1
 40
-0.6
176
     1
 41
-30.0
176
     1
 62
     5
 63
     7
421
 16777215
176
     1
 74
     1
176
     1
 91
        0
176
     1
 64
     7
176
     1
 65
   257
176
     1
 75
     1
176
     1
175
     1
176
     1
 42
1.0
176
     1
 92
        8
176
     1
 66
     8
424
  7895160
176
     1
 43
1.0
176
     1
 76
     1
176
     1
 77
     6
176
     1
 78
     2
176
     1
 67
     7
176
     1
 79
     5
176
     1
170
     0
176
     1
171
     0
176
     1
290
     0
176
     1
 93
       13
176
     1
 44
0.0
176
     1
173
     0
176
     1
  0
VISUALSTYLE
  5
37
102
{ACAD_REACTORS
330
2A
102
}
330
2A
100
AcDbVisualStyle
  2
Thicken
 70
    13
177
     2
291
     1
 71
     2
176
     1
 72
     2
176
     1
 73
     0
176
     1
 90
        0
176
     1
 40
-0.6
176
     1
 41
-30.0
176
     1
 62
     5
 63
     7
421
 16777215
176
     1
 74
     1
176
     1
 91
        4
176
     1
 64
     7
176
     1
 65
   257
176
     1
 75
     1
176
     1
175
     1
176
     1
 42
1.0
176
     1
 92
       12
176
     1
 66
     7
176
     1
 43
1.0
176
     1
 76
     1
176
     1
 77
     6
176
     1
 78
     2
176
     1
 67
     7
176
     1
 79
     5
176
     1
170
     0
176
     1
171
     0
176
     1
290
     0
176
     1
 93
        1
176
     1
 44
0.0
176
     1
173
     0
176
     1
  0
ENDSEC
  0
EOF
