  0
SECTION
  2
HEADER
  9
$ACADVER
  1
AC1014
  9
$ACADMAINTVER
 70
     9
  9
$DWGCODEPAGE
  3
ANSI_1252
  9
$INSBASE
 10
0.0
 20
0.0
 30
0.0
  9
$EXTMIN
 10
1.000000000000000E+20
 20
1.000000000000000E+20
 30
1.000000000000000E+20
  9
$EXTMAX
 10
-1.000000000000000E+20
 20
-1.000000000000000E+20
 30
-1.000000000000000E+20
  9
$LIMMIN
 10
0.0
 20
0.0
  9
$LIMMAX
 10
12.0
 20
9.0
  9
$ORTHOMODE
 70
     0
  9
$REGENMODE
 70
     1
  9
$FILLMODE
 70
     1
  9
$QTEXTMODE
 70
     0
  9
$MIRRTEXT
 70
     1
  9
$DRAGMODE
 70
     2
  9
$LTSCALE
 40
1.0
  9
$OSMODE
 70
    37
  9
$ATTMODE
 70
     1
  9
$TEXTSIZE
 40
0.2
  9
$TRACEWID
 40
0.05
  9
$TEXTSTYLE
  7
STANDARD
  9
$CLAYER
  8
0
  9
$CELTYPE
  6
BYLAYER
  9
$CECOLOR
 62
   256
  9
$CELTSCALE
 40
1.0
  9
$DELOBJ
 70
     1
  9
$DISPSILH
 70
     0
  9
$DIMSCALE
 40
1.0
  9
$DIMASZ
 40
0.18
  9
$DIMEXO
 40
0.0625
  9
$DIMDLI
 40
0.38
  9
$DIMRND
 40
0.0
  9
$DIMDLE
 40
0.0
  9
$DIMEXE
 40
0.18
  9
$DIMTP
 40
0.0
  9
$DIMTM
 40
0.0
  9
$DIMTXT
 40
0.18
  9
$DIMCEN
 40
0.09
  9
$DIMTSZ
 40
0.0
  9
$DIMTOL
 70
     0
  9
$DIMLIM
 70
     0
  9
$DIMTIH
 70
     1
  9
$DIMTOH
 70
     1
  9
$DIMSE1
 70
     0
  9
$DIMSE2
 70
     0
  9
$DIMTAD
 70
     0
  9
$DIMZIN
 70
     0
  9
$DIMBLK
  1

  9
$DIMASO
 70
     1
  9
$DIMSHO
 70
     1
  9
$DIMPOST
  1

  9
$DIMAPOST
  1

  9
$DIMALT
 70
     0
  9
$DIMALTD
 70
     2
  9
$DIMALTF
 40
25.4
  9
$DIMLFAC
 40
1.0
  9
$DIMTOFL
 70
     0
  9
$DIMTVP
 40
0.0
  9
$DIMTIX
 70
     0
  9
$DIMSOXD
 70
     0
  9
$DIMSAH
 70
     0
  9
$DIMBLK1
  1

  9
$DIMBLK2
  1

  9
$DIMSTYLE
  2
STANDARD
  9
$DIMCLRD
 70
     0
  9
$DIMCLRE
 70
     0
  9
$DIMCLRT
 70
     0
  9
$DIMTFAC
 40
1.0
  9
$DIMGAP
 40
0.09
  9
$DIMJUST
 70
     0
  9
$DIMSD1
 70
     0
  9
$DIMSD2
 70
     0
  9
$DIMTOLJ
 70
     1
  9
$DIMTZIN
 70
     0
  9
$DIMALTZ
 70
     0
  9
$DIMALTTZ
 70
     0
  9
$DIMFIT
 70
     3
  9
$DIMUPT
 70
     0
  9
$DIMUNIT
 70
     2
  9
$DIMDEC
 70
     4
  9
$DIMTDEC
 70
     4
  9
$DIMALTU
 70
     2
  9
$DIMALTTD
 70
     2
  9
$DIMTXSTY
  7
STANDARD
  9
$DIMAUNIT
 70
     0
  9
$LUNITS
 70
     2
  9
$LUPREC
 70
     4
  9
$SKETCHINC
 40
0.1
  9
$FILLETRAD
 40
0.5
  9
$AUNITS
 70
     0
  9
$AUPREC
 70
     0
  9
$MENU
  1
.
  9
$ELEVATION
 40
0.0
  9
$PELEVATION
 40
0.0
  9
$THICKNESS
 40
0.0
  9
$LIMCHECK
 70
     0
  9
$CHAMFERA
 40
0.5
  9
$CHAMFERB
 40
0.5
  9
$CHAMFERC
 40
1.0
  9
$CHAMFERD
 40
0.0
  9
$SKPOLY
 70
     0
  9
$TDCREATE
 40
2459455.472006944
  9
$TDUPDATE
 40
2459455.472007037
  9
$TDINDWG
 40
0.0000000116
  9
$TDUSRTIMER
 40
0.0000000116
  9
$USRTIMER
 70
     1
  9
$ANGBASE
 50
0.0
  9
$ANGDIR
 70
     0
  9
$PDMODE
 70
     0
  9
$PDSIZE
 40
0.0
  9
$PLINEWID
 40
0.0
  9
$COORDS
 70
     1
  9
$SPLFRAME
 70
     0
  9
$SPLINETYPE
 70
     6
  9
$SPLINESEGS
 70
     8
  9
$ATTDIA
 70
     0
  9
$ATTREQ
 70
     1
  9
$HANDLING
 70
     1
  9
$HANDSEED
  5
1A2
  9
$SURFTAB1
 70
     6
  9
$SURFTAB2
 70
     6
  9
$SURFTYPE
 70
     6
  9
$SURFU
 70
     6
  9
$SURFV
 70
     6
  9
$UCSNAME
  2

  9
$UCSORG
 10
0.0
 20
0.0
 30
0.0
  9
$UCSXDIR
 10
1.0
 20
0.0
 30
0.0
  9
$UCSYDIR
 10
0.0
 20
1.0
 30
0.0
  9
$PUCSNAME
  2

  9
$PUCSORG
 10
0.0
 20
0.0
 30
0.0
  9
$PUCSXDIR
 10
1.0
 20
0.0
 30
0.0
  9
$PUCSYDIR
 10
0.0
 20
1.0
 30
0.0
  9
$USERI1
 70
     0
  9
$USERI2
 70
     0
  9
$USERI3
 70
     0
  9
$USERI4
 70
     0
  9
$USERI5
 70
     0
  9
$USERR1
 40
0.0
  9
$USERR2
 40
0.0
  9
$USERR3
 40
0.0
  9
$USERR4
 40
0.0
  9
$USERR5
 40
0.0
  9
$WORLDVIEW
 70
     1
  9
$SHADEDGE
 70
     3
  9
$SHADEDIF
 70
    70
  9
$TILEMODE
 70
     1
  9
$MAXACTVP
 70
    64
  9
$PINSBASE
 10
0.0
 20
0.0
 30
0.0
  9
$PLIMCHECK
 70
     0
  9
$PEXTMIN
 10
1.000000000000000E+20
 20
1.000000000000000E+20
 30
1.000000000000000E+20
  9
$PEXTMAX
 10
-1.000000000000000E+20
 20
-1.000000000000000E+20
 30
-1.000000000000000E+20
  9
$PLIMMIN
 10
0.0
 20
0.0
  9
$PLIMMAX
 10
12.0
 20
9.0
  9
$UNITMODE
 70
     0
  9
$VISRETAIN
 70
     1
  9
$PLINEGEN
 70
     0
  9
$PSLTSCALE
 70
     1
  9
$TREEDEPTH
 70
  3020
  9
$PICKSTYLE
 70
     1
  9
$CMLSTYLE
  2
STANDARD
  9
$CMLJUST
 70
     0
  9
$CMLSCALE
 40
1.0
  9
$PROXYGRAPHICS
 70
     1
  9
$MEASUREMENT
 70
     0
  0
ENDSEC
  0
SECTION
  2
CLASSES
  0
CLASS
  1
ACDBDICTIONARYWDFLT
  2
AcDbDictionaryWithDefault
  3
ObjectDBX Classes
 90
        0
280
     0
281
     0
  0
CLASS
  1
VISUALSTYLE
  2
AcDbVisualStyle
  3
ObjectDBX Classes
 90
     4095
280
     0
281
     0
  0
CLASS
  1
MATERIAL
  2
AcDbMaterial
  3
ObjectDBX Classes
 90
     1153
280
     0
281
     0
  0
CLASS
  1
SUN
  2
AcDbSun
  3
SCENEOE
 90
     1024
280
     0
281
     0
  0
CLASS
  1
DICTIONARYVAR
  2
AcDbDictionaryVar
  3
ObjectDBX Classes
 90
        0
280
     0
281
     0
  0
CLASS
  1
XRECORD
  2
AcDbXrecord
  3
AutoCAD 2000
 90
        0
280
     0
281
     0
  0
CLASS
  1
LWPOLYLINE
  2
AcDbPolyline
  3
AutoCAD 2000
 90
        0
280
     0
281
     1
  0
CLASS
  1
HATCH
  2
AcDbHatch
  3
AutoCAD 2000
 90
        0
280
     0
281
     1
  0
CLASS
  1
ACDBPLACEHOLDER
  2
AcDbPlaceHolder
  3
ObjectDBX Classes
 90
        0
280
     0
281
     0
  0
CLASS
  1
LAYOUT
  2
AcDbLayout
  3
ObjectDBX Classes
 90
        0
280
     0
281
     0
  0
ENDSEC
  0
SECTION
  2
TABLES
  0
TABLE
  2
VPORT
  5
8
330
0
100
AcDbSymbolTable
 70
     1
  0
VPORT
  5
29
330
8
100
AcDbSymbolTableRecord
100
AcDbViewportTableRecord
  2
*ACTIVE
 70
     0
 10
0.0
 20
0.0
 11
1.0
 21
1.0
 12
0.0
 22
0.0
 13
0.0
 23
0.0
 14
0.5
 24
0.5
 15
0.5
 25
0.5
 16
0.0
 26
0.0
 36
1.0
 17
46.40000152587891
 27
63.09999847412109
 37
0.0
 40
126.1999969482422
 41
0.7353407709654497
 42
50.0
 43
0.0
 44
0.0
 50
0.0
 51
0.0
 71
     0
 72
   100
 73
     1
 74
     3
 75
     0
 76
     0
 77
     0
 78
     0
  0
ENDTAB
  0
TABLE
  2
LTYPE
  5
5
330
0
100
AcDbSymbolTable
 70
     1
  0
LTYPE
  5
14
330
5
100
AcDbSymbolTableRecord
100
AcDbLinetypeTableRecord
  2
BYBLOCK
 70
     0
  3

 72
    65
 73
     0
 40
0.0
  0
LTYPE
  5
15
330
5
100
AcDbSymbolTableRecord
100
AcDbLinetypeTableRecord
  2
BYLAYER
 70
     0
  3

 72
    65
 73
     0
 40
0.0
  0
LTYPE
  5
16
330
5
100
AcDbSymbolTableRecord
100
AcDbLinetypeTableRecord
  2
CONTINUOUS
 70
     0
  3
Solid line
 72
    65
 73
     0
 40
0.0
  0
ENDTAB
  0
TABLE
  2
LAYER
  5
2
330
0
100
AcDbSymbolTable
 70
     2
  0
LAYER
  5
10
330
2
100
AcDbSymbolTableRecord
100
AcDbLayerTableRecord
  2
0
 70
     0
 62
     7
  6
CONTINUOUS
  0
LAYER
  5
40
330
2
100
AcDbSymbolTableRecord
100
AcDbLayerTableRecord
  2
LAYER_1
 70
     0
 62
     7
  6
CONTINUOUS
  0
ENDTAB
  0
TABLE
  2
STYLE
  5
3
330
0
100
AcDbSymbolTable
 70
     1
  0
STYLE
  5
11
330
3
100
AcDbSymbolTableRecord
100
AcDbTextStyleTableRecord
  2
STANDARD
 70
     0
 40
0.0
 41
1.0
 50
0.0
 71
     0
 42
0.2
  3
txt
  4

  0
ENDTAB
  0
TABLE
  2
VIEW
  5
6
330
0
100
AcDbSymbolTable
 70
     0
  0
ENDTAB
  0
TABLE
  2
UCS
  5
7
330
0
100
AcDbSymbolTable
 70
     0
  0
ENDTAB
  0
TABLE
  2
APPID
  5
9
330
0
100
AcDbSymbolTable
 70
     1
  0
APPID
  5
12
330
9
100
AcDbSymbolTableRecord
100
AcDbRegAppTableRecord
  2
ACAD
 70
     0
  0
ENDTAB
  0
TABLE
  2
DIMSTYLE
  5
A
330
0
100
AcDbSymbolTable
 70
     1
  0
DIMSTYLE
105
27
330
A
100
AcDbSymbolTableRecord
100
AcDbDimStyleTableRecord
  2
STANDARD
 70
     0
  3

  4

  5

  6

  7

 40
1.0
 41
0.18
 42
0.0625
 43
0.38
 44
0.18
 45
0.0
 46
0.0
 47
0.0
 48
0.0
140
0.18
141
0.09
142
0.0
143
25.4
144
1.0
145
0.0
146
1.0
147
0.09
 71
     0
 72
     0
 73
     1
 74
     1
 75
     0
 76
     0
 77
     0
 78
     0
170
     0
171
     2
172
     0
173
     0
174
     0
175
     0
176
     0
177
     0
178
     0
270
     2
271
     4
272
     4
273
     2
274
     2
340
11
275
     0
280
     0
281
     0
282
     0
283
     1
284
     0
285
     0
286
     0
287
     3
288
     0
  0
ENDTAB
  0
TABLE
  2
BLOCK_RECORD
  5
1
330
0
100
AcDbSymbolTable
 70
     2
  0
BLOCK_RECORD
  5
1F
330
1
100
AcDbSymbolTableRecord
100
AcDbBlockTableRecord
  2
*MODEL_SPACE
  0
BLOCK_RECORD
  5
1B
330
1
100
AcDbSymbolTableRecord
100
AcDbBlockTableRecord
  2
*PAPER_SPACE
  0
BLOCK_RECORD
  5
41
330
1
100
AcDbSymbolTableRecord
100
AcDbBlockTableRecord
  2
BLOCK_2
  0
ENDTAB
  0
ENDSEC
  0
SECTION
  2
BLOCKS
  0
BLOCK
  5
20
330
1F
100
AcDbEntity
  8
0
100
AcDbBlockBegin
  2
*MODEL_SPACE
 70
     0
 10
0.0
 20
0.0
 30
0.0
  3
*MODEL_SPACE
  1

  0
ENDBLK
  5
21
330
1F
100
AcDbEntity
  8
0
100
AcDbBlockEnd
  0
BLOCK
  5
1C
330
1B
100
AcDbEntity
 67
     1
  8
0
100
AcDbBlockBegin
  2
*PAPER_SPACE
 70
     0
 10
0.0
 20
0.0
 30
0.0
  3
*PAPER_SPACE
  1

  0
ENDBLK
  5
1D
330
1B
100
AcDbEntity
 67
     1
  8
0
100
AcDbBlockEnd
  0
BLOCK
  5
43
330
41
100
AcDbEntity
  8
0
100
AcDbBlockBegin
  2
BLOCK_2
 70
     0
 10
0.0
 20
0.0
 30
0.0
  3
BLOCK_2
  1

  0
ENDBLK
  5
44
330
41
100
AcDbEntity
  8
0
100
AcDbBlockEnd
  0
ENDSEC
  0
SECTION
  2
ENTITIES
  0
INSERT
  5
42
330
1F
100
AcDbEntity
  8
LAYER_1
100
AcDbBlockReference
  2
BLOCK_2
 10
0.0
 20
0.0
 30
0.0
  0
SPLINE
  5
45
330
1F
100
AcDbEntity
  8
LAYER_1
 62
   178
100
AcDbSpline
210
0.0
220
0.0
230
1.0
 70
    11
 71
     3
 72
    83
 73
    79
 74
     0
 42
0.0000000001
 43
0.0000000001
 12
1.0
 22
0.0
 32
0.0
 13
1.0
 23
0.0
 33
0.0
 40
0.0
 40
0.0
 40
0.0
 40
0.0
 40
1.0
 40
1.0
 40
1.0
 40
2.0
 40
2.0
 40
2.0
 40
3.0
 40
3.0
 40
3.0
 40
4.0
 40
4.0
 40
4.0
 40
5.0
 40
5.0
 40
5.0
 40
6.0
 40
6.0
 40
6.0
 40
7.0
 40
7.0
 40
7.0
 40
8.0
 40
8.0
 40
8.0
 40
9.0
 40
9.0
 40
9.0
 40
10.0
 40
10.0
 40
10.0
 40
11.0
 40
11.0
 40
11.0
 40
12.0
 40
12.0
 40
12.0
 40
13.0
 40
13.0
 40
13.0
 40
14.0
 40
14.0
 40
14.0
 40
15.0
 40
15.0
 40
15.0
 40
16.0
 40
16.0
 40
16.0
 40
17.0
 40
17.0
 40
17.0
 40
18.0
 40
18.0
 40
18.0
 40
19.0
 40
19.0
 40
19.0
 40
20.0
 40
20.0
 40
20.0
 40
21.0
 40
21.0
 40
21.0
 40
22.0
 40
22.0
 40
22.0
 40
23.0
 40
23.0
 40
23.0
 40
24.0
 40
24.0
 40
24.0
 40
25.0
 40
25.0
 40
25.0
 40
26.0
 40
26.0
 40
26.0
 40
26.0
 10
72.5
 20
84.59999945068375
 30
0.0
 10
72.5
 20
84.59999945068375
 30
0.0
 10
73.30000305175781
 20
84.8999986877443
 30
0.0
 10
73.30000305175781
 20
84.8999986877443
 30
0.0
 10
73.30000305175781
 20
84.8999986877443
 30
0.0
 10
73.30000305175781
 20
84.8999986877443
 30
0.0
 10
73.30000305175781
 20
84.8999986877443
 30
0.0
 10
75.74581909179688
 20
85.95019628906266
 30
0.0
 10
77.95609283447266
 20
87.48038580322282
 30
0.0
 10
79.80000305175781
 20
89.3999986877443
 30
0.0
 10
84.10000610351562
 20
94.59999945068375
 30
0.0
 10
79.0
 20
100.1999979248048
 30
0.0
 10
79.10000610351562
 20
105.5999994506838
 30
0.0
 10
79.20001220703125
 20
111.0000009765627
 30
0.0
 10
81.50000762939453
 20
115.0999994506838
 30
0.0
 10
79.50000762939453
 20
119.6999998321535
 30
0.0
 10
77.50000762939453
 20
124.3000002136232
 30
0.0
 10
75.4000015258789
 20
124.0999980201723
 30
0.0
 10
72.0
 20
124.2999979486467
 30
0.0
 10
69.22042846679688
 20
124.3665007581712
 30
0.0
 10
66.47965240478516
 20
123.6379416217806
 30
0.0
 10
64.0999984741211
 20
122.1999979248048
 30
0.0
 10
62.09999847412109
 20
120.7999978294374
 30
0.0
 10
51.79999923706055
 20
110.4999981155397
 30
0.0
 10
51.69999694824219
 20
110.4999981155397
 30
0.0
 10
51.52428817749023
 20
111.1169929733278
 30
0.0
 10
51.1776008605957
 20
111.6716881027223
 30
0.0
 10
50.69999694824219
 20
112.0999984970094
 30
0.0
 10
50.22500991821289
 20
112.4153108825685
 30
0.0
 10
49.67000579833984
 20
112.5887489547731
 30
0.0
 10
49.09999847412109
 20
112.5999984970094
 30
0.0
 10
49.09999847412109
 20
112.5999984970094
 30
0.0
 10
46.09999847412109
 20
112.5999984970094
 30
0.0
 10
46.09999847412109
 20
112.5999984970094
 30
0.0
 10
45.65002822875977
 20
112.5955372085573
 30
0.0
 10
45.2064208984375
 20
112.493165992737
 30
0.0
 10
44.79999923706055
 20
112.2999983062746
 30
0.0
 10
44.20000076293945
 20
111.8999986877443
 30
0.0
 10
43.70000076293945
 20
111.2999983062746
 30
0.0
 10
43.70000076293945
 20
110.9999981155397
 30
0.0
 10
40.40000152587891
 20
115.3999986877443
 30
0.0
 10
36.5
 20
120.0999984970094
 30
0.0
 10
32.20000076293945
 20
123.39999773407
 30
0.0
 10
29.94470024108887
 20
125.018508457184
 30
0.0
 10
27.27220344543457
 20
125.9556179871561
 30
0.0
 10
24.5
 20
126.0999979233147
 30
0.0
 10
21.20000076293945
 20
126.0999979233147
 30
0.0
 10
18.20000076293945
 20
124.9999978771211
 30
0.0
 10
16.79999923706055
 20
121.9999981155397
 30
0.0
 10
15.39999771118164
 20
118.9999981155397
 30
0.0
 10
16.5
 20
112.4999981155397
 30
0.0
 10
16.09999847412109
 20
107.9999971618654
 30
0.0
 10
15.69999694824219
 20
103.4999971618654
 30
0.0
 10
10.29999828338623
 20
97.29999639892594
 30
0.0
 10
14.19999885559082
 20
91.89999487304704
 30
0.0
 10
16.14743423461914
 20
89.23529150390641
 30
0.0
 10
18.82042121887207
 20
87.18715765380875
 30
0.0
 10
21.89999771118164
 20
85.99999334716813
 30
0.0
 10
21.89999771118164
 20
85.99999334716813
 30
0.0
 10
22.29999732971191
 20
85.99999334716813
 30
0.0
 10
22.29999732971191
 20
85.99999334716813
 30
0.0
 10
0.4777747094631195
 20
72.77750494384782
 30
0.0
 10
-6.493687152862549
 20
44.3681497802736
 30
0.0
 10
6.728801250457764
 20
22.54592993164079
 30
0.0
 10
7.317342281341553
 20
21.57460882568375
 30
0.0
 10
7.941499710083008
 20
20.62532141113297
 30
0.0
 10
8.600000381469727
 20
19.69999792480485
 30
0.0
 10
8.600000381469727
 20
19.69999792480485
 30
0.0
 10
9.800000190734863
 20
18.00000097656266
 30
0.0
 10
9.800000190734863
 20
18.00000097656266
 30
0.0
 10
25.46174430847168
 20
-2.213225341796715
 30
0.0
 10
54.54415893554688
 20
-5.902937866210777
 30
0.0
 10
74.75739288330078
 20
9.758805297851723
 30
0.0
 10
94.97061920166016
 20
25.42054846191422
 30
0.0
 10
98.66033172607422
 20
54.50296118164079
 30
0.0
 10
82.99858856201172
 20
74.71619131469743
 30
0.0
 10
80.03669738769531
 20
78.53884603881852
 30
0.0
 10
76.49421691894531
 20
81.87388327026383
 30
0.0
 10
72.5
 20
84.59999945068375
 30
0.0
  0
SPLINE
  5
46
330
1F
100
AcDbEntity
  8
LAYER_1
 62
   178
100
AcDbSpline
210
0.0
220
0.0
230
1.0
 70
    11
 71
     3
 72
    14
 73
    10
 74
     0
 42
0.0000000001
 43
0.0000000001
 12
1.0
 22
0.0
 32
0.0
 13
1.0
 23
0.0
 33
0.0
 40
0.0
 40
0.0
 40
0.0
 40
0.0
 40
1.0
 40
1.0
 40
1.0
 40
2.0
 40
2.0
 40
2.0
 40
3.0
 40
3.0
 40
3.0
 40
3.0
 10
70.5999984741211
 20
121.0999980201723
 30
0.0
 10
74.29999542236328
 20
122.299998067856
 30
0.0
 10
75.79999542236328
 20
119.39999773407
 30
0.0
 10
74.0999984741211
 20
115.7999983062746
 30
0.0
 10
69.69160461425781
 20
111.996752761841
 30
0.0
 10
64.11846923828125
 20
109.8098249664308
 30
0.0
 10
58.29999923706055
 20
109.5999994506838
 30
0.0
 10
60.42343139648438
 20
115.1140842666628
 30
0.0
 10
64.95577239990234
 20
119.3516350021364
 30
0.0
 10
70.5999984741211
 20
121.0999980201723
 30
0.0
  0
SPLINE
  5
47
330
1F
100
AcDbEntity
  8
LAYER_1
 62
   178
100
AcDbSpline
210
0.0
220
0.0
230
1.0
 70
    11
 71
     3
 72
    23
 73
    19
 74
     0
 42
0.0000000001
 43
0.0000000001
 12
1.0
 22
0.0
 32
0.0
 13
1.0
 23
0.0
 33
0.0
 40
0.0
 40
0.0
 40
0.0
 40
0.0
 40
1.0
 40
1.0
 40
1.0
 40
2.0
 40
2.0
 40
2.0
 40
3.0
 40
3.0
 40
3.0
 40
4.0
 40
4.0
 40
4.0
 40
5.0
 40
5.0
 40
5.0
 40
6.0
 40
6.0
 40
6.0
 40
6.0
 10
61.09999847412109
 20
90.8999986877443
 30
0.0
 10
61.09999847412109
 20
90.8999986877443
 30
0.0
 10
61.09999847412109
 20
90.19999792480485
 30
0.0
 10
61.09999847412109
 20
90.19999792480485
 30
0.0
 10
59.10952758789062
 20
90.88508703613297
 30
0.0
 10
57.07047271728516
 20
91.4199190368654
 30
0.0
 10
55.0
 20
91.79999639892594
 30
0.0
 10
54.77145385742188
 20
92.2874384155275
 30
0.0
 10
54.5039176940918
 20
92.75562765502946
 30
0.0
 10
54.20000076293945
 20
93.19999792480485
 30
0.0
 10
54.20000076293945
 20
93.19999792480485
 30
0.0
 10
54.20000076293945
 20
93.3999986877443
 30
0.0
 10
54.20000076293945
 20
93.3999986877443
 30
0.0
 10
53.23515319824219
 20
95.15633871459977
 30
0.0
 10
52.52791595458984
 20
97.0423097839357
 30
0.0
 10
52.10000228881836
 20
98.99999906921403
 30
0.0
 10
52.10000228881836
 20
98.99999906921403
 30
0.0
 10
61.09999847412109
 20
90.8999986877443
 30
0.0
 10
61.09999847412109
 20
90.8999986877443
 30
0.0
  0
SPLINE
  5
48
330
1F
100
AcDbEntity
  8
LAYER_1
 62
   178
100
AcDbSpline
210
0.0
220
0.0
230
1.0
 70
    11
 71
     3
 72
    29
 73
    25
 74
     0
 42
0.0000000001
 43
0.0000000001
 12
1.0
 22
0.0
 32
0.0
 13
1.0
 23
0.0
 33
0.0
 40
0.0
 40
0.0
 40
0.0
 40
0.0
 40
1.0
 40
1.0
 40
1.0
 40
2.0
 40
2.0
 40
2.0
 40
3.0
 40
3.0
 40
3.0
 40
4.0
 40
4.0
 40
4.0
 40
5.0
 40
5.0
 40
5.0
 40
6.0
 40
6.0
 40
6.0
 40
7.0
 40
7.0
 40
7.0
 40
8.0
 40
8.0
 40
8.0
 40
8.0
 10
46.09999847412109
 20
108.7999983062746
 30
0.0
 10
46.5364875793457
 20
109.1980505218507
 30
0.0
 10
47.10940170288086
 20
109.4128923645021
 30
0.0
 10
47.69999694824219
 20
109.3999986877443
 30
0.0
 10
48.26290512084961
 20
109.3363085021974
 30
0.0
 10
48.78960800170898
 20
109.0905142059328
 30
0.0
 10
49.19999694824219
 20
108.6999979248048
 30
0.0
 10
49.58171844482422
 20
108.2536936035158
 30
0.0
 10
49.79413223266602
 20
107.6872492065431
 30
0.0
 10
49.79999542236328
 20
107.0999975433351
 30
0.0
 10
49.77587509155273
 20
106.4976816406252
 30
0.0
 10
49.52598190307617
 20
105.9264974823
 30
0.0
 10
49.09999465942383
 20
105.4999971618654
 30
0.0
 10
48.68154907226562
 20
105.080004714966
 30
0.0
 10
48.08312606811523
 20
104.8929987182619
 30
0.0
 10
47.49999618530273
 20
104.9999971618654
 30
0.0
 10
46.91600036621094
 20
104.9759531250002
 30
0.0
 10
46.356689453125
 20
105.236966156006
 30
0.0
 10
45.99999618530273
 20
105.6999979248048
 30
0.0
 10
45.61700439453125
 20
106.1058130493166
 30
0.0
 10
45.40253067016602
 20
106.6419992675783
 30
0.0
 10
45.39999771118164
 20
107.1999979248048
 30
0.0
 10
45.42411804199219
 20
107.8023138275148
 30
0.0
 10
45.67401123046875
 20
108.37349798584
 30
0.0
 10
46.09999847412109
 20
108.7999983062746
 30
0.0
  0
SPLINE
  5
49
330
1F
100
AcDbEntity
  8
LAYER_1
 62
   178
100
AcDbSpline
210
0.0
220
0.0
230
1.0
 70
    11
 71
     3
 72
    14
 73
    10
 74
     0
 42
0.0000000001
 43
0.0000000001
 12
1.0
 22
0.0
 32
0.0
 13
1.0
 23
0.0
 33
0.0
 40
0.0
 40
0.0
 40
0.0
 40
0.0
 40
1.0
 40
1.0
 40
1.0
 40
2.0
 40
2.0
 40
2.0
 40
3.0
 40
3.0
 40
3.0
 40
3.0
 10
21.79999923706055
 20
117.6999979248048
 30
0.0
 10
20.39999961853027
 20
121.39999773407
 30
0.0
 10
22.09999847412109
 20
124.1999979248048
 30
0.0
 10
25.79999923706055
 20
122.7999978294374
 30
0.0
 10
31.21642875671387
 20
120.5126300086977
 30
0.0
 10
35.37505340576172
 20
115.9892130126955
 30
0.0
 10
37.20000076293945
 20
110.39999773407
 30
0.0
 10
31.38358688354492
 20
111.0030679931642
 30
0.0
 10
25.94893455505371
 20
113.5792350997926
 30
0.0
 10
21.79999923706055
 20
117.6999979248048
 30
0.0
  0
SPLINE
  5
4A
330
1F
100
AcDbEntity
  8
LAYER_1
 62
   178
100
AcDbSpline
210
0.0
220
0.0
230
1.0
 70
    11
 71
     3
 72
    29
 73
    25
 74
     0
 42
0.0000000001
 43
0.0000000001
 12
1.0
 22
0.0
 32
0.0
 13
1.0
 23
0.0
 33
0.0
 40
0.0
 40
0.0
 40
0.0
 40
0.0
 40
1.0
 40
1.0
 40
1.0
 40
2.0
 40
2.0
 40
2.0
 40
3.0
 40
3.0
 40
3.0
 40
4.0
 40
4.0
 40
4.0
 40
5.0
 40
5.0
 40
5.0
 40
6.0
 40
6.0
 40
6.0
 40
7.0
 40
7.0
 40
7.0
 40
8.0
 40
8.0
 40
8.0
 40
8.0
 10
42.70000076293945
 20
99.19999792480485
 30
0.0
 10
42.06779098510742
 20
97.12147619628922
 30
0.0
 10
41.15969848632812
 20
95.13712408447282
 30
0.0
 10
40.0
 20
93.29999639892594
 30
0.0
 10
39.94477081298828
 20
93.29999639892594
 30
0.0
 10
39.90000152587891
 20
93.25522711181657
 30
0.0
 10
39.90000152587891
 20
93.19999792480485
 30
0.0
 10
39.90000152587891
 20
93.19999792480485
 30
0.0
 10
39.80000305175781
 20
93.19999792480485
 30
0.0
 10
39.80000305175781
 20
93.19999792480485
 30
0.0
 10
39.80000305175781
 20
93.19999792480485
 30
0.0
 10
39.10000228881836
 20
92.19999792480485
 30
0.0
 10
39.10000228881836
 20
92.19999792480485
 30
0.0
 10
36.97610473632812
 20
91.80630209350602
 30
0.0
 10
34.87343215942383
 20
91.30566503906266
 30
0.0
 10
32.80000305175781
 20
90.69999792480485
 30
0.0
 10
32.80000305175781
 20
90.69999792480485
 30
0.0
 10
32.80000305175781
 20
90.9999971618654
 30
0.0
 10
32.80000305175781
 20
90.9999971618654
 30
0.0
 10
32.80000305175781
 20
90.9999971618654
 30
0.0
 10
33.40000152587891
 20
91.8999986877443
 30
0.0
 10
33.40000152587891
 20
91.8999986877443
 30
0.0
 10
33.40000152587891
 20
91.8999986877443
 30
0.0
 10
42.70000076293945
 20
99.19999792480485
 30
0.0
 10
42.70000076293945
 20
99.19999792480485
 30
0.0
  0
SPLINE
  5
4B
330
1F
100
AcDbEntity
  8
LAYER_1
 62
   178
100
AcDbSpline
210
0.0
220
0.0
230
1.0
 70
    11
 71
     3
 72
    17
 73
    13
 74
     0
 42
0.0000000001
 43
0.0000000001
 12
1.0
 22
0.0
 32
0.0
 13
1.0
 23
0.0
 33
0.0
 40
0.0
 40
0.0
 40
0.0
 40
0.0
 40
1.0
 40
1.0
 40
1.0
 40
2.0
 40
2.0
 40
2.0
 40
3.0
 40
3.0
 40
3.0
 40
4.0
 40
4.0
 40
4.0
 40
4.0
 10
15.19999980926514
 20
20.50000097656266
 30
0.0
 10
15.19999980926514
 20
20.50000097656266
 30
0.0
 10
12.69999980926514
 20
23.80000402832047
 30
0.0
 10
12.69999980926514
 20
23.80000402832047
 30
0.0
 10
12.998779296875
 20
23.991417907715
 30
0.0
 10
13.34519195556641
 20
24.09534552001969
 30
0.0
 10
13.69999980926514
 20
24.10000708007829
 30
0.0
 10
14.87702083587646
 20
24.10122015380875
 30
0.0
 10
15.84649848937988
 20
23.17581274414079
 30
0.0
 10
15.89999961853027
 20
22.00000860595719
 30
0.0
 10
15.88187980651855
 20
21.42525579834
 30
0.0
 10
15.62886428833008
 20
20.88307287597672
 30
0.0
 10
15.19999980926514
 20
20.50000097656266
 30
0.0
  0
SPLINE
  5
4C
330
1F
100
AcDbEntity
  8
LAYER_1
 62
   178
100
AcDbSpline
210
0.0
220
0.0
230
1.0
 70
    11
 71
     3
 72
    20
 73
    16
 74
     0
 42
0.0000000001
 43
0.0000000001
 12
1.0
 22
0.0
 32
0.0
 13
1.0
 23
0.0
 33
0.0
 40
0.0
 40
0.0
 40
0.0
 40
0.0
 40
1.0
 40
1.0
 40
1.0
 40
2.0
 40
2.0
 40
2.0
 40
3.0
 40
3.0
 40
3.0
 40
4.0
 40
4.0
 40
4.0
 40
5.0
 40
5.0
 40
5.0
 40
5.0
 10
18.5
 20
36.09999945068375
 30
0.0
 10
19.65979766845703
 20
36.09999945068375
 30
0.0
 10
20.60000038146973
 20
35.15979864501969
 30
0.0
 10
20.60000038146973
 20
34.00000097656266
 30
0.0
 10
20.34243392944336
 20
32.8125848999025
 30
0.0
 10
19.17104530334473
 20
32.058800720215
 30
0.0
 10
17.98363304138184
 20
32.31636907959
 30
0.0
 10
17.1409797668457
 20
32.49915411376969
 30
0.0
 10
16.4827823638916
 20
33.15734960937516
 30
0.0
 10
16.29999923706055
 20
34.00000097656266
 30
0.0
 10
16.29868507385254
 20
35.15979864501969
 30
0.0
 10
17.23781967163086
 20
36.10106756591813
 30
0.0
 10
18.39761734008789
 20
36.1023798217775
 30
0.0
 10
18.43175888061523
 20
36.10241796875016
 30
0.0
 10
18.46589660644531
 20
36.10162451171891
 30
0.0
 10
18.5
 20
36.09999945068375
 30
0.0
  0
SPLINE
  5
4D
330
1F
100
AcDbEntity
  8
LAYER_1
 62
   178
100
AcDbSpline
210
0.0
220
0.0
230
1.0
 70
    11
 71
     3
 72
    23
 73
    19
 74
     0
 42
0.0000000001
 43
0.0000000001
 12
1.0
 22
0.0
 32
0.0
 13
1.0
 23
0.0
 33
0.0
 40
0.0
 40
0.0
 40
0.0
 40
0.0
 40
1.0
 40
1.0
 40
1.0
 40
2.0
 40
2.0
 40
2.0
 40
3.0
 40
3.0
 40
3.0
 40
4.0
 40
4.0
 40
4.0
 40
5.0
 40
5.0
 40
5.0
 40
6.0
 40
6.0
 40
6.0
 40
6.0
 10
17.79999923706055
 20
43.00000097656266
 30
0.0
 10
17.1924877166748
 20
42.99898626709
 30
0.0
 10
16.69917488098145
 20
43.49064733886735
 30
0.0
 10
16.69815826416016
 20
44.09815313720719
 30
0.0
 10
16.69713973999023
 20
44.70566656494157
 30
0.0
 10
17.18880081176758
 20
45.19898321533219
 30
0.0
 10
17.79631423950195
 20
45.19999792480485
 30
0.0
 10
17.79754257202148
 20
45.19999792480485
 30
0.0
 10
17.79877090454102
 20
45.19999792480485
 30
0.0
 10
17.79999923706055
 20
45.19999792480485
 30
0.0
 10
18.40751075744629
 20
45.2010126342775
 30
0.0
 10
18.90082359313965
 20
44.70935156250016
 30
0.0
 10
18.90184020996094
 20
44.10184576416032
 30
0.0
 10
18.90285873413086
 20
43.49433233642594
 30
0.0
 10
18.41119766235352
 20
43.00101568603532
 30
0.0
 10
17.80368423461914
 20
43.00000097656266
 30
0.0
 10
17.80245590209961
 20
43.00000097656266
 30
0.0
 10
17.80122756958008
 20
43.00000097656266
 30
0.0
 10
17.79999923706055
 20
43.00000097656266
 30
0.0
  0
SPLINE
  5
4E
330
1F
100
AcDbEntity
  8
LAYER_1
 62
   178
100
AcDbSpline
210
0.0
220
0.0
230
1.0
 70
    11
 71
     3
 72
    23
 73
    19
 74
     0
 42
0.0000000001
 43
0.0000000001
 12
1.0
 22
0.0
 32
0.0
 13
1.0
 23
0.0
 33
0.0
 40
0.0
 40
0.0
 40
0.0
 40
0.0
 40
1.0
 40
1.0
 40
1.0
 40
2.0
 40
2.0
 40
2.0
 40
3.0
 40
3.0
 40
3.0
 40
4.0
 40
4.0
 40
4.0
 40
5.0
 40
5.0
 40
5.0
 40
6.0
 40
6.0
 40
6.0
 40
6.0
 10
16.89999961853027
 20
27.30000402832047
 30
0.0
 10
16.84476852416992
 20
27.90499975585954
 30
0.0
 10
17.29043960571289
 20
28.44022467041032
 30
0.0
 10
17.89543724060059
 20
28.49545385742204
 30
0.0
 10
17.93020057678223
 20
28.49862768554704
 30
0.0
 10
17.9650936126709
 20
28.50014593505875
 30
0.0
 10
18.0
 20
28.50000097656266
 30
0.0
 10
18.66274070739746
 20
28.50000097656266
 30
0.0
 10
19.19999885559082
 20
27.96274664306657
 30
0.0
 10
19.20000076293945
 20
27.30000402832047
 30
0.0
 10
19.2025203704834
 20
26.69249822998063
 30
0.0
 10
18.71208000183105
 20
26.19796850585954
 30
0.0
 10
18.10457229614258
 20
26.19545080566422
 30
0.0
 10
18.06966209411621
 20
26.19530584716813
 30
0.0
 10
18.03476524353027
 20
26.19682409667985
 30
0.0
 10
18.0
 20
26.19999792480485
 30
0.0
 10
17.39248657226562
 20
26.19999792480485
 30
0.0
 10
16.89999961853027
 20
26.69248297119157
 30
0.0
 10
16.89999961853027
 20
27.30000402832047
 30
0.0
  0
SPLINE
  5
4F
330
1F
100
AcDbEntity
  8
LAYER_1
 62
   178
100
AcDbSpline
210
0.0
220
0.0
230
1.0
 70
    11
 71
     3
 72
    23
 73
    19
 74
     0
 42
0.0000000001
 43
0.0000000001
 12
1.0
 22
0.0
 32
0.0
 13
1.0
 23
0.0
 33
0.0
 40
0.0
 40
0.0
 40
0.0
 40
0.0
 40
1.0
 40
1.0
 40
1.0
 40
2.0
 40
2.0
 40
2.0
 40
3.0
 40
3.0
 40
3.0
 40
4.0
 40
4.0
 40
4.0
 40
5.0
 40
5.0
 40
5.0
 40
6.0
 40
6.0
 40
6.0
 40
6.0
 10
27.39999961853027
 20
10.60000708007829
 30
0.0
 10
27.39999961853027
 20
10.60000708007829
 30
0.0
 10
27.39999961853027
 20
17.4000101318361
 30
0.0
 10
27.39999961853027
 20
17.4000101318361
 30
0.0
 10
27.39999961853027
 20
17.4000101318361
 30
0.0
 10
18.10000038146973
 20
17.4000101318361
 30
0.0
 10
18.10000038146973
 20
17.4000101318361
 30
0.0
 10
18.10000038146973
 20
17.4000101318361
 30
0.0
 10
17.39999961853027
 20
18.00000860595719
 30
0.0
 10
17.39999961853027
 20
18.00000860595719
 30
0.0
 10
17.39999961853027
 20
18.00000860595719
 30
0.0
 10
33.59999847412109
 20
18.00000860595719
 30
0.0
 10
33.59999847412109
 20
18.00000860595719
 30
0.0
 10
34.09999847412109
 20
12.800011657715
 30
0.0
 10
38.39999771118164
 20
8.400010131836098
 30
0.0
 10
43.19999694824219
 20
6.000008605957191
 30
0.0
 10
37.66390991210938
 20
6.379815124511879
 30
0.0
 10
32.27479553222656
 20
7.948800109863441
 30
0.0
 10
27.39999961853027
 20
10.60000708007829
 30
0.0
  0
SPLINE
  5
50
330
1F
100
AcDbEntity
  8
LAYER_1
 62
   178
100
AcDbSpline
210
0.0
220
0.0
230
1.0
 70
    11
 71
     3
 72
    20
 73
    16
 74
     0
 42
0.0000000001
 43
0.0000000001
 12
1.0
 22
0.0
 32
0.0
 13
1.0
 23
0.0
 33
0.0
 40
0.0
 40
0.0
 40
0.0
 40
0.0
 40
1.0
 40
1.0
 40
1.0
 40
2.0
 40
2.0
 40
2.0
 40
3.0
 40
3.0
 40
3.0
 40
4.0
 40
4.0
 40
4.0
 40
5.0
 40
5.0
 40
5.0
 40
5.0
 10
22.79999923706055
 20
44.29999639892594
 30
0.0
 10
23.93815231323242
 20
44.24933721923844
 30
0.0
 10
24.84934043884277
 20
43.33815100097672
 30
0.0
 10
24.89999961853027
 20
42.19999792480485
 30
0.0
 10
24.89999961853027
 20
41.04020025634782
 30
0.0
 10
23.95979690551758
 20
40.09999945068375
 30
0.0
 10
22.79999923706055
 20
40.09999945068375
 30
0.0
 10
21.64151763916016
 20
40.04477026367204
 30
0.0
 10
20.6576099395752
 20
40.93913366699235
 30
0.0
 10
20.60238075256348
 20
42.09761907959
 30
0.0
 10
20.60075569152832
 20
42.13172247314469
 30
0.0
 10
20.59996223449707
 20
42.1658563842775
 30
0.0
 10
20.60000038146973
 20
42.19999792480485
 30
0.0
 10
20.65350151062012
 20
43.37580206298844
 30
0.0
 10
21.62297821044922
 20
44.30120947265641
 30
0.0
 10
22.79999923706055
 20
44.29999639892594
 30
0.0
  0
SPLINE
  5
51
330
1F
100
AcDbEntity
  8
LAYER_1
 62
   178
100
AcDbSpline
210
0.0
220
0.0
230
1.0
 70
    11
 71
     3
 72
    26
 73
    22
 74
     0
 42
0.0000000001
 43
0.0000000001
 12
1.0
 22
0.0
 32
0.0
 13
1.0
 23
0.0
 33
0.0
 40
0.0
 40
0.0
 40
0.0
 40
0.0
 40
1.0
 40
1.0
 40
1.0
 40
2.0
 40
2.0
 40
2.0
 40
3.0
 40
3.0
 40
3.0
 40
4.0
 40
4.0
 40
4.0
 40
5.0
 40
5.0
 40
5.0
 40
6.0
 40
6.0
 40
6.0
 40
7.0
 40
7.0
 40
7.0
 40
7.0
 10
21.39999961853027
 20
49.59999945068375
 30
0.0
 10
21.39748382568359
 20
50.2075052490236
 30
0.0
 10
21.8879280090332
 20
50.70202734375016
 30
0.0
 10
22.49543571472168
 20
50.70454504394547
 30
0.0
 10
22.53034400939941
 20
50.70469000244157
 30
0.0
 10
22.56523704528809
 20
50.70317175292985
 30
0.0
 10
22.60000038146973
 20
50.69999792480485
 30
0.0
 10
23.20751190185547
 20
50.7010126342775
 30
0.0
 10
23.70082473754883
 20
50.20935156250016
 30
0.0
 10
23.70184135437012
 20
49.60184576416032
 30
0.0
 10
23.70285987854004
 20
48.99433233642594
 30
0.0
 10
23.2111988067627
 20
48.50101568603532
 30
0.0
 10
22.60368537902832
 20
48.50000097656266
 30
0.0
 10
22.60245704650879
 20
48.50000097656266
 30
0.0
 10
22.60122871398926
 20
48.50000097656266
 30
0.0
 10
22.60000038146973
 20
48.50000097656266
 30
0.0
 10
21.99500274658203
 20
48.44476416015641
 30
0.0
 10
21.45977973937988
 20
48.89043524169938
 30
0.0
 10
21.4045467376709
 20
49.49543859863297
 30
0.0
 10
21.4013729095459
 20
49.53019812011735
 30
0.0
 10
21.39985466003418
 20
49.56509497070329
 30
0.0
 10
21.39999961853027
 20
49.59999945068375
 30
0.0
  0
SPLINE
  5
52
330
1F
100
AcDbEntity
  8
LAYER_1
 62
   178
100
AcDbSpline
210
0.0
220
0.0
230
1.0
 70
    11
 71
     3
 72
    23
 73
    19
 74
     0
 42
0.0000000001
 43
0.0000000001
 12
1.0
 22
0.0
 32
0.0
 13
1.0
 23
0.0
 33
0.0
 40
0.0
 40
0.0
 40
0.0
 40
0.0
 40
1.0
 40
1.0
 40
1.0
 40
2.0
 40
2.0
 40
2.0
 40
3.0
 40
3.0
 40
3.0
 40
4.0
 40
4.0
 40
4.0
 40
5.0
 40
5.0
 40
5.0
 40
6.0
 40
6.0
 40
6.0
 40
6.0
 10
26.60000038146973
 20
38.19999792480485
 30
0.0
 10
27.20751190185547
 20
38.2010126342775
 30
0.0
 10
27.70082473754883
 20
37.70935156250016
 30
0.0
 10
27.70184135437012
 20
37.10184576416032
 30
0.0
 10
27.70285987854004
 20
36.49433233642594
 30
0.0
 10
27.2111988067627
 20
36.00101568603532
 30
0.0
 10
26.60368537902832
 20
36.00000097656266
 30
0.0
 10
26.60245704650879
 20
36.00000097656266
 30
0.0
 10
26.60122871398926
 20
36.00000097656266
 30
0.0
 10
26.60000038146973
 20
36.00000097656266
 30
0.0
 10
25.99248886108398
 20
35.99898626709
 30
0.0
 10
25.49917602539062
 20
36.49064733886735
 30
0.0
 10
25.49815940856934
 20
37.09815313720719
 30
0.0
 10
25.49714088439941
 20
37.70566656494157
 30
0.0
 10
25.98880195617676
 20
38.19898321533219
 30
0.0
 10
26.59631538391113
 20
38.19999792480485
 30
0.0
 10
26.59754371643066
 20
38.19999792480485
 30
0.0
 10
26.5987720489502
 20
38.19999792480485
 30
0.0
 10
26.60000038146973
 20
38.19999792480485
 30
0.0
  0
SPLINE
  5
53
330
1F
100
AcDbEntity
  8
LAYER_1
 62
   178
100
AcDbSpline
210
0.0
220
0.0
230
1.0
 70
    11
 71
     3
 72
    20
 73
    16
 74
     0
 42
0.0000000001
 43
0.0000000001
 12
1.0
 22
0.0
 32
0.0
 13
1.0
 23
0.0
 33
0.0
 40
0.0
 40
0.0
 40
0.0
 40
0.0
 40
1.0
 40
1.0
 40
1.0
 40
2.0
 40
2.0
 40
2.0
 40
3.0
 40
3.0
 40
3.0
 40
4.0
 40
4.0
 40
4.0
 40
5.0
 40
5.0
 40
5.0
 40
5.0
 10
26.10000038146973
 20
44.89999487304704
 30
0.0
 10
26.10000038146973
 20
45.50750830078141
 30
0.0
 10
26.59248733520508
 20
45.99999334716813
 30
0.0
 10
27.20000076293945
 20
45.99999334716813
 30
0.0
 10
27.8075122833252
 20
46.00100805664079
 30
0.0
 10
28.30082511901855
 20
45.50934698486344
 30
0.0
 10
28.30184173583984
 20
44.9018411865236
 30
0.0
 10
28.30286026000977
 20
44.29432775878922
 30
0.0
 10
27.81119918823242
 20
43.8010111083986
 30
0.0
 10
27.20368576049805
 20
43.79999639892594
 30
0.0
 10
27.20245742797852
 20
43.79999639892594
 30
0.0
 10
27.20122909545898
 20
43.79999639892594
 30
0.0
 10
27.20000076293945
 20
43.79999639892594
 30
0.0
 10
26.59248733520508
 20
43.79999639892594
 30
0.0
 10
26.10000038146973
 20
44.29248144531266
 30
0.0
 10
26.10000038146973
 20
44.89999487304704
 30
0.0
  0
SPLINE
  5
54
330
1F
100
AcDbEntity
  8
LAYER_1
 62
   178
100
AcDbSpline
210
0.0
220
0.0
230
1.0
 70
    11
 71
     3
 72
    20
 73
    16
 74
     0
 42
0.0000000001
 43
0.0000000001
 12
1.0
 22
0.0
 32
0.0
 13
1.0
 23
0.0
 33
0.0
 40
0.0
 40
0.0
 40
0.0
 40
0.0
 40
1.0
 40
1.0
 40
1.0
 40
2.0
 40
2.0
 40
2.0
 40
3.0
 40
3.0
 40
3.0
 40
4.0
 40
4.0
 40
4.0
 40
5.0
 40
5.0
 40
5.0
 40
5.0
 10
26.80000114440918
 20
33.29999639892594
 30
0.0
 10
27.95979881286621
 20
33.29999639892594
 30
0.0
 10
28.89999961853027
 20
32.35979559326188
 30
0.0
 10
28.89999961853027
 20
31.19999792480485
 30
0.0
 10
28.89999961853027
 20
30.04020025634782
 30
0.0
 10
27.95979690551758
 20
29.09999945068375
 30
0.0
 10
26.79999923706055
 20
29.09999945068375
 30
0.0
 10
25.62297821044922
 20
29.09878637695329
 30
0.0
 10
24.65350151062012
 20
30.02419378662125
 30
0.0
 10
24.60000038146973
 20
31.19999792480485
 30
0.0
 10
24.59868621826172
 20
32.35979559326188
 30
0.0
 10
25.53782081604004
 20
33.30106451416032
 30
0.0
 10
26.69761848449707
 20
33.30237677001969
 30
0.0
 10
26.73176002502441
 20
33.30241491699235
 30
0.0
 10
26.76589584350586
 20
33.3016214599611
 30
0.0
 10
26.80000114440918
 20
33.29999639892594
 30
0.0
  0
SPLINE
  5
55
330
1F
100
AcDbEntity
  8
LAYER_1
 62
   178
100
AcDbSpline
210
0.0
220
0.0
230
1.0
 70
    11
 71
     3
 72
    20
 73
    16
 74
     0
 42
0.0000000001
 43
0.0000000001
 12
1.0
 22
0.0
 32
0.0
 13
1.0
 23
0.0
 33
0.0
 40
0.0
 40
0.0
 40
0.0
 40
0.0
 40
1.0
 40
1.0
 40
1.0
 40
2.0
 40
2.0
 40
2.0
 40
3.0
 40
3.0
 40
3.0
 40
4.0
 40
4.0
 40
4.0
 40
5.0
 40
5.0
 40
5.0
 40
5.0
 10
30.30000114440918
 20
24.39999487304704
 30
0.0
 10
31.45979881286621
 20
24.39999487304704
 30
0.0
 10
32.40000152587891
 20
23.45979406738297
 30
0.0
 10
32.40000152587891
 20
22.29999639892594
 30
0.0
 10
32.40000152587891
 20
21.14019873046891
 30
0.0
 10
31.45979881286621
 20
20.19999792480485
 30
0.0
 10
30.30000114440918
 20
20.19999792480485
 30
0.0
 10
29.14151954650879
 20
20.14476873779313
 30
0.0
 10
28.15761184692383
 20
21.03913214111344
 30
0.0
 10
28.10238075256348
 20
22.19760992431657
 30
0.0
 10
28.10075569152832
 20
22.23171331787125
 30
0.0
 10
28.09996223449707
 20
22.2658548583986
 30
0.0
 10
28.10000038146973
 20
22.29999639892594
 30
0.0
 10
28.15350151062012
 20
23.47580053710954
 30
0.0
 10
29.12297821044922
 20
24.4012079467775
 30
0.0
 10
30.30000114440918
 20
24.39999487304704
 30
0.0
  0
SPLINE
  5
56
330
1F
100
AcDbEntity
  8
LAYER_1
 62
   178
100
AcDbSpline
210
0.0
220
0.0
230
1.0
 70
    11
 71
     3
 72
    23
 73
    19
 74
     0
 42
0.0000000001
 43
0.0000000001
 12
1.0
 22
0.0
 32
0.0
 13
1.0
 23
0.0
 33
0.0
 40
0.0
 40
0.0
 40
0.0
 40
0.0
 40
1.0
 40
1.0
 40
1.0
 40
2.0
 40
2.0
 40
2.0
 40
3.0
 40
3.0
 40
3.0
 40
4.0
 40
4.0
 40
4.0
 40
5.0
 40
5.0
 40
5.0
 40
6.0
 40
6.0
 40
6.0
 40
6.0
 10
27.60000038146973
 20
26.59999182128922
 30
0.0
 10
27.60000038146973
 20
25.99247839355485
 30
0.0
 10
27.10751342773438
 20
25.49999334716813
 30
0.0
 10
26.5
 20
25.49999334716813
 30
0.0
 10
25.8950023651123
 20
25.44475653076188
 30
0.0
 10
25.35977935791016
 20
25.89042761230485
 30
0.0
 10
25.30454635620117
 20
26.49543096923844
 30
0.0
 10
25.30137252807617
 20
26.53019049072282
 30
0.0
 10
25.29985427856445
 20
26.56508734130875
 30
0.0
 10
25.29999923706055
 20
26.59999182128922
 30
0.0
 10
25.30000114440918
 20
27.26273443603532
 30
0.0
 10
25.83725929260254
 20
27.79998876953141
 30
0.0
 10
26.5
 20
27.79998876953141
 30
0.0
 10
27.10750770568848
 20
27.80250646972672
 30
0.0
 10
27.60202980041504
 20
27.31205847167985
 30
0.0
 10
27.60454559326172
 20
26.70455267334
 30
0.0
 10
27.60469055175781
 20
26.66964819335954
 30
0.0
 10
27.60317420959473
 20
26.63475897216813
 30
0.0
 10
27.60000038146973
 20
26.59999182128922
 30
0.0
  0
SPLINE
  5
57
330
1F
100
AcDbEntity
  8
LAYER_1
 62
   178
100
AcDbSpline
210
0.0
220
0.0
230
1.0
 70
    11
 71
     3
 72
    23
 73
    19
 74
     0
 42
0.0000000001
 43
0.0000000001
 12
1.0
 22
0.0
 32
0.0
 13
1.0
 23
0.0
 33
0.0
 40
0.0
 40
0.0
 40
0.0
 40
0.0
 40
1.0
 40
1.0
 40
1.0
 40
2.0
 40
2.0
 40
2.0
 40
3.0
 40
3.0
 40
3.0
 40
4.0
 40
4.0
 40
4.0
 40
5.0
 40
5.0
 40
5.0
 40
6.0
 40
6.0
 40
6.0
 40
6.0
 10
24.0
 20
21.00000097656266
 30
0.0
 10
24.05523109436035
 20
20.3950052490236
 30
0.0
 10
23.60956001281738
 20
19.85978033447282
 30
0.0
 10
23.00456237792969
 20
19.8045511474611
 30
0.0
 10
22.96979904174805
 20
19.8013773193361
 30
0.0
 10
22.93490600585938
 20
19.79985906982438
 30
0.0
 10
22.89999961853027
 20
19.80000402832047
 30
0.0
 10
22.23725891113281
 20
19.80000402832047
 30
0.0
 10
21.70000076293945
 20
20.33725836181657
 30
0.0
 10
21.69999885559082
 20
21.00000097656266
 30
0.0
 10
21.69748306274414
 20
21.6075067749025
 30
0.0
 10
22.18792724609375
 20
22.10202886962907
 30
0.0
 10
22.79543495178223
 20
22.10454656982438
 30
0.0
 10
22.83034324645996
 20
22.10469152832047
 30
0.0
 10
22.86523628234863
 20
22.10317327880875
 30
0.0
 10
22.89999961853027
 20
22.09999945068375
 30
0.0
 10
23.50751304626465
 20
22.09999945068375
 30
0.0
 10
24.0
 20
21.60751440429704
 30
0.0
 10
24.0
 20
21.00000097656266
 30
0.0
  0
SPLINE
  5
58
330
1F
100
AcDbEntity
  8
LAYER_1
 62
   178
100
AcDbSpline
210
0.0
220
0.0
230
1.0
 70
    11
 71
     3
 72
   173
 73
   169
 74
     0
 42
0.0000000001
 43
0.0000000001
 12
1.0
 22
0.0
 32
0.0
 13
1.0
 23
0.0
 33
0.0
 40
0.0
 40
0.0
 40
0.0
 40
0.0
 40
1.0
 40
1.0
 40
1.0
 40
2.0
 40
2.0
 40
2.0
 40
3.0
 40
3.0
 40
3.0
 40
4.0
 40
4.0
 40
4.0
 40
5.0
 40
5.0
 40
5.0
 40
6.0
 40
6.0
 40
6.0
 40
7.0
 40
7.0
 40
7.0
 40
8.0
 40
8.0
 40
8.0
 40
9.0
 40
9.0
 40
9.0
 40
10.0
 40
10.0
 40
10.0
 40
11.0
 40
11.0
 40
11.0
 40
12.0
 40
12.0
 40
12.0
 40
13.0
 40
13.0
 40
13.0
 40
14.0
 40
14.0
 40
14.0
 40
15.0
 40
15.0
 40
15.0
 40
16.0
 40
16.0
 40
16.0
 40
17.0
 40
17.0
 40
17.0
 40
18.0
 40
18.0
 40
18.0
 40
19.0
 40
19.0
 40
19.0
 40
20.0
 40
20.0
 40
20.0
 40
21.0
 40
21.0
 40
21.0
 40
22.0
 40
22.0
 40
22.0
 40
23.0
 40
23.0
 40
23.0
 40
24.0
 40
24.0
 40
24.0
 40
25.0
 40
25.0
 40
25.0
 40
26.0
 40
26.0
 40
26.0
 40
27.0
 40
27.0
 40
27.0
 40
28.0
 40
28.0
 40
28.0
 40
29.0
 40
29.0
 40
29.0
 40
30.0
 40
30.0
 40
30.0
 40
31.0
 40
31.0
 40
31.0
 40
32.0
 40
32.0
 40
32.0
 40
33.0
 40
33.0
 40
33.0
 40
34.0
 40
34.0
 40
34.0
 40
35.0
 40
35.0
 40
35.0
 40
36.0
 40
36.0
 40
36.0
 40
37.0
 40
37.0
 40
37.0
 40
38.0
 40
38.0
 40
38.0
 40
39.0
 40
39.0
 40
39.0
 40
40.0
 40
40.0
 40
40.0
 40
41.0
 40
41.0
 40
41.0
 40
42.0
 40
42.0
 40
42.0
 40
43.0
 40
43.0
 40
43.0
 40
44.0
 40
44.0
 40
44.0
 40
45.0
 40
45.0
 40
45.0
 40
46.0
 40
46.0
 40
46.0
 40
47.0
 40
47.0
 40
47.0
 40
48.0
 40
48.0
 40
48.0
 40
49.0
 40
49.0
 40
49.0
 40
50.0
 40
50.0
 40
50.0
 40
51.0
 40
51.0
 40
51.0
 40
52.0
 40
52.0
 40
52.0
 40
53.0
 40
53.0
 40
53.0
 40
54.0
 40
54.0
 40
54.0
 40
55.0
 40
55.0
 40
55.0
 40
56.0
 40
56.0
 40
56.0
 40
56.0
 10
42.70000076293945
 20
40.59999945068375
 30
0.0
 10
42.05200576782227
 20
39.93327429199235
 30
0.0
 10
41.48169708251953
 20
39.19522192382829
 30
0.0
 10
41.0
 20
38.39999487304704
 30
0.0
 10
40.40587997436523
 20
38.75961401367204
 30
0.0
 10
39.83781051635742
 20
39.16059973144547
 30
0.0
 10
39.29999923706055
 20
39.59999182128922
 30
0.0
 10
39.29999923706055
 20
39.59999182128922
 30
0.0
 10
39.0
 20
39.79998876953141
 30
0.0
 10
41.39999771118164
 20
43.29998876953141
 30
0.0
 10
41.39999771118164
 20
43.29998876953141
 30
0.0
 10
38.39999771118164
 20
43.9999857177736
 30
0.0
 10
38.39999771118164
 20
43.9999857177736
 30
0.0
 10
37.69999694824219
 20
40.59998419189469
 30
0.0
 10
37.39999771118164
 20
40.79998876953141
 30
0.0
 10
37.39999771118164
 20
40.79998876953141
 30
0.0
 10
35.29999923706055
 20
42.09999182128922
 30
0.0
 10
32.99999618530273
 20
43.29998876953141
 30
0.0
 10
32.49999618530273
 20
42.19999029541032
 30
0.0
 10
31.99999618530273
 20
41.09999182128922
 30
0.0
 10
32.09999465942383
 20
40.99999334716813
 30
0.0
 10
34.49999618530273
 20
39.49999334716813
 30
0.0
 10
34.49999618530273
 20
39.49999334716813
 30
0.0
 10
37.09999465942383
 20
38.29999639892594
 30
0.0
 10
37.09999465942383
 20
38.29999639892594
 30
0.0
 10
33.59999465942383
 20
36.59999945068375
 30
0.0
 10
34.79999542236328
 20
35.39999487304704
 30
0.0
 10
34.79999542236328
 20
35.39999487304704
 30
0.0
 10
34.79999542236328
 20
35.39999487304704
 30
0.0
 10
38.19999694824219
 20
37.79999639892594
 30
0.0
 10
38.49999618530273
 20
37.69999792480485
 30
0.0
 10
38.49999618530273
 20
37.69999792480485
 30
0.0
 10
40.39999771118164
 20
36.89999487304704
 30
0.0
 10
40.39999771118164
 20
36.89999487304704
 30
0.0
 10
40.24831771850586
 20
36.15432836914079
 30
0.0
 10
40.04788970947266
 20
35.4194193115236
 30
0.0
 10
39.79999923706055
 20
34.69999792480485
 30
0.0
 10
39.79999923706055
 20
32.19999792480485
 30
0.0
 10
40.0
 20
30.00000097656266
 30
0.0
 10
40.0
 20
30.00000097656266
 30
0.0
 10
37.68331527709961
 20
28.27893164062516
 30
0.0
 10
35.82823944091797
 20
26.01162054443375
 30
0.0
 10
34.59999847412109
 20
23.40000250244157
 30
0.0
 10
34.59999847412109
 20
23.40000250244157
 30
0.0
 10
30.39999771118164
 20
30.40000250244157
 30
0.0
 10
30.39999771118164
 20
30.40000250244157
 30
0.0
 10
30.09999847412109
 20
30.90000250244157
 30
0.0
 10
30.29999732971191
 20
31.20000555419938
 30
0.0
 10
30.79999732971191
 20
31.20000555419938
 30
0.0
 10
30.79999732971191
 20
31.20000555419938
 30
0.0
 10
33.29999542236328
 20
31.20000555419938
 30
0.0
 10
33.29999542236328
 20
31.20000555419938
 30
0.0
 10
33.57613754272461
 20
31.20000555419938
 30
0.0
 10
33.79999542236328
 20
31.42385961914079
 30
0.0
 10
33.79999923706055
 20
31.69999792480485
 30
0.0
 10
33.79999923706055
 20
31.8081903686525
 30
0.0
 10
33.76491165161133
 20
31.91346075439469
 30
0.0
 10
33.69999694824219
 20
32.00000860595719
 30
0.0
 10
33.69999694824219
 20
32.00000860595719
 30
0.0
 10
28.49999618530273
 20
40.9000101318361
 30
0.0
 10
28.49999618530273
 20
40.9000101318361
 30
0.0
 10
28.19999694824219
 20
41.300011657715
 30
0.0
 10
28.39999580383301
 20
41.60000708007829
 30
0.0
 10
28.89999580383301
 20
41.60000708007829
 30
0.0
 10
28.89999580383301
 20
41.60000708007829
 30
0.0
 10
30.79999542236328
 20
41.60000708007829
 30
0.0
 10
30.79999542236328
 20
41.60000708007829
 30
0.0
 10
31.39999580383301
 20
41.60000708007829
 30
0.0
 10
31.59999465942383
 20
42.00000860595719
 30
0.0
 10
31.29999542236328
 20
42.4000101318361
 30
0.0
 10
31.29999542236328
 20
42.4000101318361
 30
0.0
 10
23.20000076293945
 20
56.09999945068375
 30
0.0
 10
23.20000076293945
 20
56.09999945068375
 30
0.0
 10
23.0168285369873
 20
56.37614538574235
 30
0.0
 10
22.64447975158691
 20
56.45150854492204
 30
0.0
 10
22.36833763122559
 20
56.26833441162125
 30
0.0
 10
22.30154609680176
 20
56.22403051757829
 30
0.0
 10
22.24430656433105
 20
56.16679479980485
 30
0.0
 10
22.20000076293945
 20
56.09999945068375
 30
0.0
 10
22.20000076293945
 20
56.09999945068375
 30
0.0
 10
14.10000038146973
 20
42.39999487304704
 30
0.0
 10
14.10000038146973
 20
42.39999487304704
 30
0.0
 10
13.92762470245361
 20
42.18425848388688
 30
0.0
 10
13.9627742767334
 20
41.86963751220719
 30
0.0
 10
14.17850875854492
 20
41.69725897216813
 30
0.0
 10
14.29698467254639
 20
41.60259344482438
 30
0.0
 10
14.45202255249023
 20
41.56681921386735
 30
0.0
 10
14.60000038146973
 20
41.59999182128922
 30
0.0
 10
14.60000038146973
 20
41.59999182128922
 30
0.0
 10
16.5
 20
41.59999182128922
 30
0.0
 10
16.5
 20
41.59999182128922
 30
0.0
 10
17.0
 20
41.59999182128922
 30
0.0
 10
17.20000076293945
 20
41.29998876953141
 30
0.0
 10
17.0
 20
40.89999487304704
 30
0.0
 10
17.0
 20
40.89999487304704
 30
0.0
 10
11.69999980926514
 20
31.99999334716813
 30
0.0
 10
11.69999980926514
 20
31.99999334716813
 30
0.0
 10
11.39999961853027
 20
31.59999182128922
 30
0.0
 10
11.59999942779541
 20
31.19999029541032
 30
0.0
 10
12.19999980926514
 20
31.19999029541032
 30
0.0
 10
12.19999980926514
 20
31.19999029541032
 30
0.0
 10
14.60000038146973
 20
31.19999029541032
 30
0.0
 10
14.60000038146973
 20
31.19999029541032
 30
0.0
 10
15.10000038146973
 20
31.19999029541032
 30
0.0
 10
15.30000019073486
 20
30.8999872436525
 30
0.0
 10
15.0
 20
30.3999872436525
 30
0.0
 10
15.0
 20
30.3999872436525
 30
0.0
 10
11.89999961853027
 20
25.09998419189469
 30
0.0
 10
11.89999961853027
 20
25.09998419189469
 30
0.0
 10
2.539153337478638
 20
40.38986303710954
 30
0.0
 10
4.28535795211792
 20
60.00419714355485
 30
0.0
 10
16.20000076293945
 20
73.39998342895524
 30
0.0
 10
17.92485618591309
 20
72.29415991210954
 30
0.0
 10
19.86999130249023
 20
71.57753088378922
 30
0.0
 10
21.90000152587891
 20
71.29998495483414
 30
0.0
 10
21.0373649597168
 20
68.07212164306657
 30
0.0
 10
20.86697196960449
 20
64.6983385314943
 30
0.0
 10
21.40000152587891
 20
61.3999872436525
 30
0.0
 10
21.57940101623535
 20
59.87417700195329
 30
0.0
 10
22.0914421081543
 20
58.40631964111344
 30
0.0
 10
22.90000152587891
 20
57.09998419189469
 30
0.0
 10
23.560791015625
 20
55.76486303710954
 30
0.0
 10
24.56085968017578
 20
54.62685491943375
 30
0.0
 10
25.80000114440918
 20
53.79998114013688
 30
0.0
 10
27.01643371582031
 20
53.00009252929704
 30
0.0
 10
28.44425201416016
 20
52.58220007324235
 30
0.0
 10
29.90000152587891
 20
52.59998419189469
 30
0.0
 10
31.52161598205566
 20
52.60709478759782
 30
0.0
 10
33.09844589233398
 20
53.13269903564469
 30
0.0
 10
34.40000152587891
 20
54.09998419189469
 30
0.0
 10
35.83793640136719
 20
55.03579046630875
 30
0.0
 10
37.06420135498047
 20
56.26205541992204
 30
0.0
 10
38.0
 20
57.69999792480485
 30
0.0
 10
38.94529724121094
 20
59.24336340332047
 30
0.0
 10
39.71667098999023
 20
60.88672735595719
 30
0.0
 10
40.29999923706055
 20
62.59999945068375
 30
0.0
 10
40.20016860961914
 20
61.90355780029313
 30
0.0
 10
40.20016860961914
 20
61.19644262695329
 30
0.0
 10
40.29999923706055
 20
60.50000097656266
 30
0.0
 10
40.44648361206055
 20
59.75521948242204
 30
0.0
 10
40.79206466674805
 20
59.06405737304704
 30
0.0
 10
41.29999923706055
 20
58.50000097656266
 30
0.0
 10
41.70912170410156
 20
57.9805765380861
 30
0.0
 10
42.3389892578125
 20
57.6841669311525
 30
0.0
 10
43.0
 20
57.69999792480485
 30
0.0
 10
43.0
 20
57.69999792480485
 30
0.0
 10
44.20000076293945
 20
57.89999487304704
 30
0.0
 10
44.20000076293945
 20
57.89999487304704
 30
0.0
 10
44.41376113891602
 20
57.88240148925797
 30
0.0
 10
44.61493301391602
 20
58.00310614013688
 30
0.0
 10
44.70000076293945
 20
58.19999792480485
 30
0.0
 10
44.68936920166016
 20
57.23366644287125
 30
0.0
 10
44.89434051513672
 20
56.27712347412125
 30
0.0
 10
45.29999923706055
 20
55.39999487304704
 30
0.0
 10
46.89999771118164
 20
51.69999792480485
 30
0.0
 10
46.89999771118164
 20
51.69999792480485
 30
0.0
 10
46.89999771118164
 20
51.19999792480485
 30
0.0
 10
41.99999618530273
 20
52.19999792480485
 30
0.0
 10
41.89999771118164
 20
50.39999487304704
 30
0.0
 10
41.89999771118164
 20
50.39999487304704
 30
0.0
 10
41.89999771118164
 20
48.59999182128922
 30
0.0
 10
45.59999847412109
 20
49.29999639892594
 30
0.0
 10
45.49999618530273
 20
48.69999792480485
 30
0.0
 10
43.69874572753906
 20
47.56189825439469
 30
0.0
 10
42.35395812988281
 20
45.82782843017594
 30
0.0
 10
41.69999694824219
 20
43.79999639892594
 30
0.0
 10
44.29999923706055
 20
41.00000097656266
 30
0.0
 10
44.29999923706055
 20
41.00000097656266
 30
0.0
 10
42.70000076293945
 20
40.59999945068375
 30
0.0
  0
SPLINE
  5
59
330
1F
100
AcDbEntity
  8
LAYER_1
 62
   178
100
AcDbSpline
210
0.0
220
0.0
230
1.0
 70
    11
 71
     3
 72
    35
 73
    31
 74
     0
 42
0.0000000001
 43
0.0000000001
 12
1.0
 22
0.0
 32
0.0
 13
1.0
 23
0.0
 33
0.0
 40
0.0
 40
0.0
 40
0.0
 40
0.0
 40
1.0
 40
1.0
 40
1.0
 40
2.0
 40
2.0
 40
2.0
 40
3.0
 40
3.0
 40
3.0
 40
4.0
 40
4.0
 40
4.0
 40
5.0
 40
5.0
 40
5.0
 40
6.0
 40
6.0
 40
6.0
 40
7.0
 40
7.0
 40
7.0
 40
8.0
 40
8.0
 40
8.0
 40
9.0
 40
9.0
 40
9.0
 40
10.0
 40
10.0
 40
10.0
 40
10.0
 10
26.5
 20
70.9999971618654
 30
0.0
 10
28.78255271911621
 20
71.04506399536149
 30
0.0
 10
31.04369735717773
 20
71.45004370117204
 30
0.0
 10
33.20000076293945
 20
72.19999792480485
 30
0.0
 10
34.82759475708008
 20
72.84165289306657
 30
0.0
 10
36.29520416259766
 20
73.83143713378922
 30
0.0
 10
37.5
 20
75.09999945068375
 30
0.0
 10
37.88415908813477
 20
72.78488256835954
 30
0.0
 10
37.91786575317383
 20
70.4251451721193
 30
0.0
 10
37.59999847412109
 20
68.09999945068375
 30
0.0
 10
37.29514312744141
 20
65.80828573608414
 30
0.0
 10
36.72463989257812
 20
63.55983068847672
 30
0.0
 10
35.89999771118164
 20
61.40000250244157
 30
0.0
 10
35.21413421630859
 20
59.54147436523454
 30
0.0
 10
34.15968704223633
 20
57.84076025390641
 30
0.0
 10
32.79999923706055
 20
56.40000250244157
 30
0.0
 10
31.87223243713379
 20
55.22706701660172
 30
0.0
 10
30.49210739135742
 20
54.50068762207047
 30
0.0
 10
29.0
 20
54.40000250244157
 30
0.0
 10
28.29999923706055
 20
54.30000402832047
 30
0.0
 10
27.5
 20
54.80000402832047
 30
0.0
 10
26.79999923706055
 20
55.80000402832047
 30
0.0
 10
26.09166717529297
 20
57.03605749511735
 30
0.0
 10
25.6170825958252
 20
58.39201452636735
 30
0.0
 10
25.39999961853027
 20
59.80000402832047
 30
0.0
 10
24.81811141967773
 20
63.52932455444352
 30
0.0
 10
24.98811340332031
 20
67.33736898803727
 30
0.0
 10
25.89999961853027
 20
71.00000479125993
 30
0.0
 10
25.89999961853027
 20
71.00000479125993
 30
0.0
 10
26.5
 20
70.9999971618654
 30
0.0
 10
26.5
 20
70.9999971618654
 30
0.0
  0
SPLINE
  5
5A
330
1F
100
AcDbEntity
  8
LAYER_1
 62
   178
100
AcDbSpline
210
0.0
220
0.0
230
1.0
 70
    11
 71
     3
 72
    29
 73
    25
 74
     0
 42
0.0000000001
 43
0.0000000001
 12
1.0
 22
0.0
 32
0.0
 13
1.0
 23
0.0
 33
0.0
 40
0.0
 40
0.0
 40
0.0
 40
0.0
 40
1.0
 40
1.0
 40
1.0
 40
2.0
 40
2.0
 40
2.0
 40
3.0
 40
3.0
 40
3.0
 40
4.0
 40
4.0
 40
4.0
 40
5.0
 40
5.0
 40
5.0
 40
6.0
 40
6.0
 40
6.0
 40
7.0
 40
7.0
 40
7.0
 40
8.0
 40
8.0
 40
8.0
 40
8.0
 10
26.5
 20
72.8999986877443
 30
0.0
 10
27.18915367126465
 20
75.19083120727555
 30
0.0
 10
28.30919075012207
 20
77.32908346557633
 30
0.0
 10
29.79999923706055
 20
79.19999792480485
 30
0.0
 10
31.19999885559082
 20
80.79999639892594
 30
0.0
 10
32.5
 20
81.59999945068375
 30
0.0
 10
34.0
 20
81.59999945068375
 30
0.0
 10
34.43940734863281
 20
81.65008642578141
 30
0.0
 10
34.8785285949707
 20
81.50371267700211
 30
0.0
 10
35.20000076293945
 20
81.19999792480485
 30
0.0
 10
35.56986236572266
 20
80.85537054443375
 30
0.0
 10
35.81587600708008
 20
80.39848425292985
 30
0.0
 10
35.90000152587891
 20
79.8999986877443
 30
0.0
 10
35.95207214355469
 20
79.16533377075211
 30
0.0
 10
35.77755737304688
 20
78.43237402343766
 30
0.0
 10
35.40000152587891
 20
77.8000002136232
 30
0.0
 10
34.91759872436523
 20
76.97784521484391
 30
0.0
 10
34.31035232543945
 20
76.23565390014664
 30
0.0
 10
33.60000228881836
 20
75.59999945068375
 30
0.0
 10
32.66711044311523
 20
74.84164526367204
 30
0.0
 10
31.62107086181641
 20
74.23426916503922
 30
0.0
 10
30.50000190734863
 20
73.8000002136232
 30
0.0
 10
29.25022315979004
 20
73.20617010498063
 30
0.0
 10
27.8836841583252
 20
72.89869787597672
 30
0.0
 10
26.5
 20
72.8999986877443
 30
0.0
  0
SPLINE
  5
5B
330
1F
100
AcDbEntity
  8
LAYER_1
 62
   178
100
AcDbSpline
210
0.0
220
0.0
230
1.0
 70
    11
 71
     3
 72
    17
 73
    13
 74
     0
 42
0.0000000001
 43
0.0000000001
 12
1.0
 22
0.0
 32
0.0
 13
1.0
 23
0.0
 33
0.0
 40
0.0
 40
0.0
 40
0.0
 40
0.0
 40
1.0
 40
1.0
 40
1.0
 40
2.0
 40
2.0
 40
2.0
 40
3.0
 40
3.0
 40
3.0
 40
4.0
 40
4.0
 40
4.0
 40
4.0
 10
45.70000076293945
 20
59.19999792480485
 30
0.0
 10
45.90000152587891
 20
59.59999945068375
 30
0.0
 10
46.20000076293945
 20
60.00000097656266
 30
0.0
 10
46.40000152587891
 20
60.50000097656266
 30
0.0
 10
46.40000152587891
 20
60.50000097656266
 30
0.0
 10
46.40000152587891
 20
60.50000097656266
 30
0.0
 10
46.40000152587891
 20
60.50000097656266
 30
0.0
 10
46.40000152587891
 20
60.50000097656266
 30
0.0
 10
46.70000076293945
 20
59.40000250244157
 30
0.0
 10
46.70000076293945
 20
59.40000250244157
 30
0.0
 10
46.70000076293945
 20
59.40000250244157
 30
0.0
 10
45.70000076293945
 20
59.19999792480485
 30
0.0
 10
45.70000076293945
 20
59.19999792480485
 30
0.0
  0
POLYLINE
  5
5C
330
1F
100
AcDbEntity
  8
LAYER_1
 62
   178
100
AcDb2dPolyline
 66
     1
 10
0.0
 20
0.0
 30
0.0
  0
VERTEX
  5
5D
330
5C
100
AcDbEntity
  8
LAYER_1
 62
   178
100
AcDbVertex
100
AcDb2dVertex
 10
57.59999847412109
 20
25.19999792480485
 30
0.0
  0
VERTEX
  5
5E
330
5C
100
AcDbEntity
  8
LAYER_1
 62
   178
100
AcDbVertex
100
AcDb2dVertex
 10
57.59999847412109
 20
25.00000097656266
 30
0.0
  0
VERTEX
  5
5F
330
5C
100
AcDbEntity
  8
LAYER_1
 62
   178
100
AcDbVertex
100
AcDb2dVertex
 10
57.0
 20
25.00000097656266
 30
0.0
  0
VERTEX
  5
60
330
5C
100
AcDbEntity
  8
LAYER_1
 62
   178
100
AcDbVertex
100
AcDb2dVertex
 10
56.70000076293945
 20
24.80000402832047
 30
0.0
  0
VERTEX
  5
61
330
5C
100
AcDbEntity
  8
LAYER_1
 62
   178
100
AcDbVertex
100
AcDb2dVertex
 10
56.90000152587891
 20
24.80000402832047
 30
0.0
  0
VERTEX
  5
62
330
5C
100
AcDbEntity
  8
LAYER_1
 62
   178
100
AcDbVertex
100
AcDb2dVertex
 10
57.20000076293945
 20
24.60000708007829
 30
0.0
  0
VERTEX
  5
63
330
5C
100
AcDbEntity
  8
LAYER_1
 62
   178
100
AcDbVertex
100
AcDb2dVertex
 10
57.5
 20
24.60000708007829
 30
0.0
  0
VERTEX
  5
64
330
5C
100
AcDbEntity
  8
LAYER_1
 62
   178
100
AcDbVertex
100
AcDb2dVertex
 10
57.5
 20
23.9000101318361
 30
0.0
  0
VERTEX
  5
65
330
5C
100
AcDbEntity
  8
LAYER_1
 62
   178
100
AcDbVertex
100
AcDb2dVertex
 10
57.29999923706055
 20
23.9000101318361
 30
0.0
  0
VERTEX
  5
66
330
5C
100
AcDbEntity
  8
LAYER_1
 62
   178
100
AcDbVertex
100
AcDb2dVertex
 10
56.89999771118164
 20
23.50000860595719
 30
0.0
  0
VERTEX
  5
67
330
5C
100
AcDbEntity
  8
LAYER_1
 62
   178
100
AcDbVertex
100
AcDb2dVertex
 10
56.29999923706055
 20
23.50000860595719
 30
0.0
  0
VERTEX
  5
68
330
5C
100
AcDbEntity
  8
LAYER_1
 62
   178
100
AcDbVertex
100
AcDb2dVertex
 10
55.20000076293945
 20
24.00000860595719
 30
0.0
  0
VERTEX
  5
69
330
5C
100
AcDbEntity
  8
LAYER_1
 62
   178
100
AcDbVertex
100
AcDb2dVertex
 10
54.20000076293945
 20
24.00000860595719
 30
0.0
  0
VERTEX
  5
6A
330
5C
100
AcDbEntity
  8
LAYER_1
 62
   178
100
AcDbVertex
100
AcDb2dVertex
 10
53.90000152587891
 20
23.800011657715
 30
0.0
  0
VERTEX
  5
6B
330
5C
100
AcDbEntity
  8
LAYER_1
 62
   178
100
AcDbVertex
100
AcDb2dVertex
 10
53.30000305175781
 20
23.50000860595719
 30
0.0
  0
VERTEX
  5
6C
330
5C
100
AcDbEntity
  8
LAYER_1
 62
   178
100
AcDbVertex
100
AcDb2dVertex
 10
53.0
 20
23.50000860595719
 30
0.0
  0
VERTEX
  5
6D
330
5C
100
AcDbEntity
  8
LAYER_1
 62
   178
100
AcDbVertex
100
AcDb2dVertex
 10
52.70000076293945
 20
23.300011657715
 30
0.0
  0
VERTEX
  5
6E
330
5C
100
AcDbEntity
  8
LAYER_1
 62
   178
100
AcDbVertex
100
AcDb2dVertex
 10
52.60000228881836
 20
23.300011657715
 30
0.0
  0
VERTEX
  5
6F
330
5C
100
AcDbEntity
  8
LAYER_1
 62
   178
100
AcDbVertex
100
AcDb2dVertex
 10
52.80000305175781
 20
23.10001470947282
 30
0.0
  0
VERTEX
  5
70
330
5C
100
AcDbEntity
  8
LAYER_1
 62
   178
100
AcDbVertex
100
AcDb2dVertex
 10
53.40000152587891
 20
23.10001470947282
 30
0.0
  0
VERTEX
  5
71
330
5C
100
AcDbEntity
  8
LAYER_1
 62
   178
100
AcDbVertex
100
AcDb2dVertex
 10
53.70000076293945
 20
22.800011657715
 30
0.0
  0
VERTEX
  5
72
330
5C
100
AcDbEntity
  8
LAYER_1
 62
   178
100
AcDbVertex
100
AcDb2dVertex
 10
55.10000228881836
 20
22.800011657715
 30
0.0
  0
VERTEX
  5
73
330
5C
100
AcDbEntity
  8
LAYER_1
 62
   178
100
AcDbVertex
100
AcDb2dVertex
 10
55.70000076293945
 20
23.00000860595719
 30
0.0
  0
VERTEX
  5
74
330
5C
100
AcDbEntity
  8
LAYER_1
 62
   178
100
AcDbVertex
100
AcDb2dVertex
 10
56.60000228881836
 20
23.00000860595719
 30
0.0
  0
VERTEX
  5
75
330
5C
100
AcDbEntity
  8
LAYER_1
 62
   178
100
AcDbVertex
100
AcDb2dVertex
 10
56.80000305175781
 20
22.800011657715
 30
0.0
  0
VERTEX
  5
76
330
5C
100
AcDbEntity
  8
LAYER_1
 62
   178
100
AcDbVertex
100
AcDb2dVertex
 10
57.00000381469727
 20
22.60001470947282
 30
0.0
  0
VERTEX
  5
77
330
5C
100
AcDbEntity
  8
LAYER_1
 62
   178
100
AcDbVertex
100
AcDb2dVertex
 10
57.00000381469727
 20
22.00001623535172
 30
0.0
  0
VERTEX
  5
78
330
5C
100
AcDbEntity
  8
LAYER_1
 62
   178
100
AcDbVertex
100
AcDb2dVertex
 10
56.20000457763672
 20
22.00001623535172
 30
0.0
  0
VERTEX
  5
79
330
5C
100
AcDbEntity
  8
LAYER_1
 62
   178
100
AcDbVertex
100
AcDb2dVertex
 10
56.50000381469727
 20
21.80001928710954
 30
0.0
  0
VERTEX
  5
7A
330
5C
100
AcDbEntity
  8
LAYER_1
 62
   178
100
AcDbVertex
100
AcDb2dVertex
 10
56.90000534057617
 20
21.50001623535172
 30
0.0
  0
VERTEX
  5
7B
330
5C
100
AcDbEntity
  8
LAYER_1
 62
   178
100
AcDbVertex
100
AcDb2dVertex
 10
57.30000686645508
 20
21.50001623535172
 30
0.0
  0
VERTEX
  5
7C
330
5C
100
AcDbEntity
  8
LAYER_1
 62
   178
100
AcDbVertex
100
AcDb2dVertex
 10
57.30000686645508
 20
20.90001776123063
 30
0.0
  0
VERTEX
  5
7D
330
5C
100
AcDbEntity
  8
LAYER_1
 62
   178
100
AcDbVertex
100
AcDb2dVertex
 10
57.0
 20
20.90001776123063
 30
0.0
  0
VERTEX
  5
7E
330
5C
100
AcDbEntity
  8
LAYER_1
 62
   178
100
AcDbVertex
100
AcDb2dVertex
 10
56.5
 20
20.70002081298844
 30
0.0
  0
VERTEX
  5
7F
330
5C
100
AcDbEntity
  8
LAYER_1
 62
   178
100
AcDbVertex
100
AcDb2dVertex
 10
56.20000076293945
 20
20.70002081298844
 30
0.0
  0
VERTEX
  5
80
330
5C
100
AcDbEntity
  8
LAYER_1
 62
   178
100
AcDbVertex
100
AcDb2dVertex
 10
55.79999923706055
 20
21.00002386474625
 30
0.0
  0
VERTEX
  5
81
330
5C
100
AcDbEntity
  8
LAYER_1
 62
   178
100
AcDbVertex
100
AcDb2dVertex
 10
55.39999771118164
 20
21.20002081298844
 30
0.0
  0
VERTEX
  5
82
330
5C
100
AcDbEntity
  8
LAYER_1
 62
   178
100
AcDbVertex
100
AcDb2dVertex
 10
55.0
 20
21.20002081298844
 30
0.0
  0
VERTEX
  5
83
330
5C
100
AcDbEntity
  8
LAYER_1
 62
   178
100
AcDbVertex
100
AcDb2dVertex
 10
55.0
 20
20.20002081298844
 30
0.0
  0
VERTEX
  5
84
330
5C
100
AcDbEntity
  8
LAYER_1
 62
   178
100
AcDbVertex
100
AcDb2dVertex
 10
55.0
 20
20.20002081298844
 30
0.0
  0
VERTEX
  5
85
330
5C
100
AcDbEntity
  8
LAYER_1
 62
   178
100
AcDbVertex
100
AcDb2dVertex
 10
54.59999847412109
 20
19.90001776123063
 30
0.0
  0
VERTEX
  5
86
330
5C
100
AcDbEntity
  8
LAYER_1
 62
   178
100
AcDbVertex
100
AcDb2dVertex
 10
53.59999847412109
 20
19.90001776123063
 30
0.0
  0
VERTEX
  5
87
330
5C
100
AcDbEntity
  8
LAYER_1
 62
   178
100
AcDbVertex
100
AcDb2dVertex
 10
53.59999847412109
 20
22.00001623535172
 30
0.0
  0
VERTEX
  5
88
330
5C
100
AcDbEntity
  8
LAYER_1
 62
   178
100
AcDbVertex
100
AcDb2dVertex
 10
53.0
 20
22.00001623535172
 30
0.0
  0
VERTEX
  5
89
330
5C
100
AcDbEntity
  8
LAYER_1
 62
   178
100
AcDbVertex
100
AcDb2dVertex
 10
52.59999847412109
 20
22.30001928710954
 30
0.0
  0
VERTEX
  5
8A
330
5C
100
AcDbEntity
  8
LAYER_1
 62
   178
100
AcDbVertex
100
AcDb2dVertex
 10
52.19999694824219
 20
22.50001623535172
 30
0.0
  0
VERTEX
  5
8B
330
5C
100
AcDbEntity
  8
LAYER_1
 62
   178
100
AcDbVertex
100
AcDb2dVertex
 10
51.89999771118164
 20
22.50001623535172
 30
0.0
  0
VERTEX
  5
8C
330
5C
100
AcDbEntity
  8
LAYER_1
 62
   178
100
AcDbVertex
100
AcDb2dVertex
 10
51.69999694824219
 20
22.70001318359391
 30
0.0
  0
VERTEX
  5
8D
330
5C
100
AcDbEntity
  8
LAYER_1
 62
   178
100
AcDbVertex
100
AcDb2dVertex
 10
51.49999618530273
 20
22.70001318359391
 30
0.0
  0
VERTEX
  5
8E
330
5C
100
AcDbEntity
  8
LAYER_1
 62
   178
100
AcDbVertex
100
AcDb2dVertex
 10
51.49999618530273
 20
20.10001470947282
 30
0.0
  0
VERTEX
  5
8F
330
5C
100
AcDbEntity
  8
LAYER_1
 62
   178
100
AcDbVertex
100
AcDb2dVertex
 10
51.59999465942383
 20
20.10001470947282
 30
0.0
  0
VERTEX
  5
90
330
5C
100
AcDbEntity
  8
LAYER_1
 62
   178
100
AcDbVertex
100
AcDb2dVertex
 10
51.79999542236328
 20
19.90001776123063
 30
0.0
  0
VERTEX
  5
91
330
5C
100
AcDbEntity
  8
LAYER_1
 62
   178
100
AcDbVertex
100
AcDb2dVertex
 10
51.99999618530273
 20
19.70002081298844
 30
0.0
  0
VERTEX
  5
92
330
5C
100
AcDbEntity
  8
LAYER_1
 62
   178
100
AcDbVertex
100
AcDb2dVertex
 10
52.49999618530273
 20
19.30001928710954
 30
0.0
  0
VERTEX
  5
93
330
5C
100
AcDbEntity
  8
LAYER_1
 62
   178
100
AcDbVertex
100
AcDb2dVertex
 10
52.69999694824219
 20
19.10002233886735
 30
0.0
  0
VERTEX
  5
94
330
5C
100
AcDbEntity
  8
LAYER_1
 62
   178
100
AcDbVertex
100
AcDb2dVertex
 10
52.89999771118164
 20
19.10002233886735
 30
0.0
  0
VERTEX
  5
95
330
5C
100
AcDbEntity
  8
LAYER_1
 62
   178
100
AcDbVertex
100
AcDb2dVertex
 10
53.09999847412109
 20
18.90002539062516
 30
0.0
  0
VERTEX
  5
96
330
5C
100
AcDbEntity
  8
LAYER_1
 62
   178
100
AcDbVertex
100
AcDb2dVertex
 10
53.19999694824219
 20
18.90002539062516
 30
0.0
  0
VERTEX
  5
97
330
5C
100
AcDbEntity
  8
LAYER_1
 62
   178
100
AcDbVertex
100
AcDb2dVertex
 10
53.19999694824219
 20
18.40002539062516
 30
0.0
  0
VERTEX
  5
98
330
5C
100
AcDbEntity
  8
LAYER_1
 62
   178
100
AcDbVertex
100
AcDb2dVertex
 10
52.99999618530273
 20
18.40002539062516
 30
0.0
  0
VERTEX
  5
99
330
5C
100
AcDbEntity
  8
LAYER_1
 62
   178
100
AcDbVertex
100
AcDb2dVertex
 10
52.79999542236328
 20
18.20002844238297
 30
0.0
  0
VERTEX
  5
9A
330
5C
100
AcDbEntity
  8
LAYER_1
 62
   178
100
AcDbVertex
100
AcDb2dVertex
 10
52.29999542236328
 20
18.20002844238297
 30
0.0
  0
VERTEX
  5
9B
330
5C
100
AcDbEntity
  8
LAYER_1
 62
   178
100
AcDbVertex
100
AcDb2dVertex
 10
52.09999465942383
 20
18.40002539062516
 30
0.0
  0
VERTEX
  5
9C
330
5C
100
AcDbEntity
  8
LAYER_1
 62
   178
100
AcDbVertex
100
AcDb2dVertex
 10
51.89999389648438
 20
18.60002233886735
 30
0.0
  0
VERTEX
  5
9D
330
5C
100
AcDbEntity
  8
LAYER_1
 62
   178
100
AcDbVertex
100
AcDb2dVertex
 10
51.59999465942383
 20
18.80001928710954
 30
0.0
  0
VERTEX
  5
9E
330
5C
100
AcDbEntity
  8
LAYER_1
 62
   178
100
AcDbVertex
100
AcDb2dVertex
 10
51.39999389648438
 20
18.80001928710954
 30
0.0
  0
VERTEX
  5
9F
330
5C
100
AcDbEntity
  8
LAYER_1
 62
   178
100
AcDbVertex
100
AcDb2dVertex
 10
51.39999389648438
 20
17.80001928710954
 30
0.0
  0
VERTEX
  5
A0
330
5C
100
AcDbEntity
  8
LAYER_1
 62
   178
100
AcDbVertex
100
AcDb2dVertex
 10
49.79999923706055
 20
17.80001928710954
 30
0.0
  0
VERTEX
  5
A1
330
5C
100
AcDbEntity
  8
LAYER_1
 62
   178
100
AcDbVertex
100
AcDb2dVertex
 10
49.79999923706055
 20
18.80001928710954
 30
0.0
  0
VERTEX
  5
A2
330
5C
100
AcDbEntity
  8
LAYER_1
 62
   178
100
AcDbVertex
100
AcDb2dVertex
 10
49.59999847412109
 20
18.80001928710954
 30
0.0
  0
VERTEX
  5
A3
330
5C
100
AcDbEntity
  8
LAYER_1
 62
   178
100
AcDbVertex
100
AcDb2dVertex
 10
49.39999771118164
 20
18.60002233886735
 30
0.0
  0
VERTEX
  5
A4
330
5C
100
AcDbEntity
  8
LAYER_1
 62
   178
100
AcDbVertex
100
AcDb2dVertex
 10
49.09999847412109
 20
18.40002539062516
 30
0.0
  0
VERTEX
  5
A5
330
5C
100
AcDbEntity
  8
LAYER_1
 62
   178
100
AcDbVertex
100
AcDb2dVertex
 10
48.09999847412109
 20
18.40002539062516
 30
0.0
  0
VERTEX
  5
A6
330
5C
100
AcDbEntity
  8
LAYER_1
 62
   178
100
AcDbVertex
100
AcDb2dVertex
 10
48.09999847412109
 20
19.10002233886735
 30
0.0
  0
VERTEX
  5
A7
330
5C
100
AcDbEntity
  8
LAYER_1
 62
   178
100
AcDbVertex
100
AcDb2dVertex
 10
48.5
 20
19.10002233886735
 30
0.0
  0
VERTEX
  5
A8
330
5C
100
AcDbEntity
  8
LAYER_1
 62
   178
100
AcDbVertex
100
AcDb2dVertex
 10
48.70000076293945
 20
19.30001928710954
 30
0.0
  0
VERTEX
  5
A9
330
5C
100
AcDbEntity
  8
LAYER_1
 62
   178
100
AcDbVertex
100
AcDb2dVertex
 10
48.90000152587891
 20
19.30001928710954
 30
0.0
  0
VERTEX
  5
AA
330
5C
100
AcDbEntity
  8
LAYER_1
 62
   178
100
AcDbVertex
100
AcDb2dVertex
 10
49.40000152587891
 20
19.70002081298844
 30
0.0
  0
VERTEX
  5
AB
330
5C
100
AcDbEntity
  8
LAYER_1
 62
   178
100
AcDbVertex
100
AcDb2dVertex
 10
49.60000228881836
 20
19.70002081298844
 30
0.0
  0
VERTEX
  5
AC
330
5C
100
AcDbEntity
  8
LAYER_1
 62
   178
100
AcDbVertex
100
AcDb2dVertex
 10
49.80000305175781
 20
19.90001776123063
 30
0.0
  0
VERTEX
  5
AD
330
5C
100
AcDbEntity
  8
LAYER_1
 62
   178
100
AcDbVertex
100
AcDb2dVertex
 10
50.00000381469727
 20
19.90001776123063
 30
0.0
  0
VERTEX
  5
AE
330
5C
100
AcDbEntity
  8
LAYER_1
 62
   178
100
AcDbVertex
100
AcDb2dVertex
 10
50.00000381469727
 20
22.60001470947282
 30
0.0
  0
VERTEX
  5
AF
330
5C
100
AcDbEntity
  8
LAYER_1
 62
   178
100
AcDbVertex
100
AcDb2dVertex
 10
49.20000457763672
 20
22.60001470947282
 30
0.0
  0
VERTEX
  5
B0
330
5C
100
AcDbEntity
  8
LAYER_1
 62
   178
100
AcDbVertex
100
AcDb2dVertex
 10
48.80000305175781
 20
22.40001776123063
 30
0.0
  0
VERTEX
  5
B1
330
5C
100
AcDbEntity
  8
LAYER_1
 62
   178
100
AcDbVertex
100
AcDb2dVertex
 10
48.40000152587891
 20
22.20002081298844
 30
0.0
  0
VERTEX
  5
B2
330
5C
100
AcDbEntity
  8
LAYER_1
 62
   178
100
AcDbVertex
100
AcDb2dVertex
 10
47.80000305175781
 20
22.20002081298844
 30
0.0
  0
VERTEX
  5
B3
330
5C
100
AcDbEntity
  8
LAYER_1
 62
   178
100
AcDbVertex
100
AcDb2dVertex
 10
47.80000305175781
 20
21.20002081298844
 30
0.0
  0
VERTEX
  5
B4
330
5C
100
AcDbEntity
  8
LAYER_1
 62
   178
100
AcDbVertex
100
AcDb2dVertex
 10
47.60000228881836
 20
20.60002233886735
 30
0.0
  0
VERTEX
  5
B5
330
5C
100
AcDbEntity
  8
LAYER_1
 62
   178
100
AcDbVertex
100
AcDb2dVertex
 10
47.60000228881836
 20
20.20002081298844
 30
0.0
  0
VERTEX
  5
B6
330
5C
100
AcDbEntity
  8
LAYER_1
 62
   178
100
AcDbVertex
100
AcDb2dVertex
 10
46.70000076293945
 20
20.20002081298844
 30
0.0
  0
VERTEX
  5
B7
330
5C
100
AcDbEntity
  8
LAYER_1
 62
   178
100
AcDbVertex
100
AcDb2dVertex
 10
46.20000076293945
 20
20.60002233886735
 30
0.0
  0
VERTEX
  5
B8
330
5C
100
AcDbEntity
  8
LAYER_1
 62
   178
100
AcDbVertex
100
AcDb2dVertex
 10
46.29999923706055
 20
20.60002233886735
 30
0.0
  0
VERTEX
  5
B9
330
5C
100
AcDbEntity
  8
LAYER_1
 62
   178
100
AcDbVertex
100
AcDb2dVertex
 10
46.29999923706055
 20
19.19999792480485
 30
0.0
  0
VERTEX
  5
BA
330
5C
100
AcDbEntity
  8
LAYER_1
 62
   178
100
AcDbVertex
100
AcDb2dVertex
 10
45.89999771118164
 20
19.19999792480485
 30
0.0
  0
VERTEX
  5
BB
330
5C
100
AcDbEntity
  8
LAYER_1
 62
   178
100
AcDbVertex
100
AcDb2dVertex
 10
45.49999618530273
 20
19.00000097656266
 30
0.0
  0
VERTEX
  5
BC
330
5C
100
AcDbEntity
  8
LAYER_1
 62
   178
100
AcDbVertex
100
AcDb2dVertex
 10
45.09999465942383
 20
18.80000402832047
 30
0.0
  0
VERTEX
  5
BD
330
5C
100
AcDbEntity
  8
LAYER_1
 62
   178
100
AcDbVertex
100
AcDb2dVertex
 10
44.69999313354492
 20
18.80000402832047
 30
0.0
  0
VERTEX
  5
BE
330
5C
100
AcDbEntity
  8
LAYER_1
 62
   178
100
AcDbVertex
100
AcDb2dVertex
 10
44.19999313354492
 20
19.10000708007829
 30
0.0
  0
VERTEX
  5
BF
330
5C
100
AcDbEntity
  8
LAYER_1
 62
   178
100
AcDbVertex
100
AcDb2dVertex
 10
44.19999313354492
 20
19.10000708007829
 30
0.0
  0
VERTEX
  5
C0
330
5C
100
AcDbEntity
  8
LAYER_1
 62
   178
100
AcDbVertex
100
AcDb2dVertex
 10
44.19999313354492
 20
20.00000860595719
 30
0.0
  0
VERTEX
  5
C1
330
5C
100
AcDbEntity
  8
LAYER_1
 62
   178
100
AcDbVertex
100
AcDb2dVertex
 10
44.69999313354492
 20
20.00000860595719
 30
0.0
  0
VERTEX
  5
C2
330
5C
100
AcDbEntity
  8
LAYER_1
 62
   178
100
AcDbVertex
100
AcDb2dVertex
 10
45.09999465942383
 20
20.20000555419938
 30
0.0
  0
VERTEX
  5
C3
330
5C
100
AcDbEntity
  8
LAYER_1
 62
   178
100
AcDbVertex
100
AcDb2dVertex
 10
45.49999618530273
 20
20.40000250244157
 30
0.0
  0
VERTEX
  5
C4
330
5C
100
AcDbEntity
  8
LAYER_1
 62
   178
100
AcDbVertex
100
AcDb2dVertex
 10
45.0
 20
20.40000250244157
 30
0.0
  0
VERTEX
  5
C5
330
5C
100
AcDbEntity
  8
LAYER_1
 62
   178
100
AcDbVertex
100
AcDb2dVertex
 10
44.79999923706055
 20
20.59999945068375
 30
0.0
  0
VERTEX
  5
C6
330
5C
100
AcDbEntity
  8
LAYER_1
 62
   178
100
AcDbVertex
100
AcDb2dVertex
 10
44.59999847412109
 20
20.59999945068375
 30
0.0
  0
VERTEX
  5
C7
330
5C
100
AcDbEntity
  8
LAYER_1
 62
   178
100
AcDbVertex
100
AcDb2dVertex
 10
44.59999847412109
 20
21.29999639892594
 30
0.0
  0
VERTEX
  5
C8
330
5C
100
AcDbEntity
  8
LAYER_1
 62
   178
100
AcDbVertex
100
AcDb2dVertex
 10
44.79999923706055
 20
21.49999334716813
 30
0.0
  0
VERTEX
  5
C9
330
5C
100
AcDbEntity
  8
LAYER_1
 62
   178
100
AcDbVertex
100
AcDb2dVertex
 10
45.0
 20
21.69999029541032
 30
0.0
  0
VERTEX
  5
CA
330
5C
100
AcDbEntity
  8
LAYER_1
 62
   178
100
AcDbVertex
100
AcDb2dVertex
 10
45.90000152587891
 20
21.69999029541032
 30
0.0
  0
VERTEX
  5
CB
330
5C
100
AcDbEntity
  8
LAYER_1
 62
   178
100
AcDbVertex
100
AcDb2dVertex
 10
46.5
 20
21.3999872436525
 30
0.0
  0
VERTEX
  5
CC
330
5C
100
AcDbEntity
  8
LAYER_1
 62
   178
100
AcDbVertex
100
AcDb2dVertex
 10
47.90000152587891
 20
21.3999872436525
 30
0.0
  0
VERTEX
  5
CD
330
5C
100
AcDbEntity
  8
LAYER_1
 62
   178
100
AcDbVertex
100
AcDb2dVertex
 10
48.20000076293945
 20
21.59998419189469
 30
0.0
  0
VERTEX
  5
CE
330
5C
100
AcDbEntity
  8
LAYER_1
 62
   178
100
AcDbVertex
100
AcDb2dVertex
 10
48.79999923706055
 20
21.79998114013688
 30
0.0
  0
VERTEX
  5
CF
330
5C
100
AcDbEntity
  8
LAYER_1
 62
   178
100
AcDbVertex
100
AcDb2dVertex
 10
49.0
 20
21.99997808837907
 30
0.0
  0
VERTEX
  5
D0
330
5C
100
AcDbEntity
  8
LAYER_1
 62
   178
100
AcDbVertex
100
AcDb2dVertex
 10
49.20000076293945
 20
21.99997808837907
 30
0.0
  0
VERTEX
  5
D1
330
5C
100
AcDbEntity
  8
LAYER_1
 62
   178
100
AcDbVertex
100
AcDb2dVertex
 10
48.90000152587891
 20
22.19997503662125
 30
0.0
  0
VERTEX
  5
D2
330
5C
100
AcDbEntity
  8
LAYER_1
 62
   178
100
AcDbVertex
100
AcDb2dVertex
 10
48.70000076293945
 20
22.19997503662125
 30
0.0
  0
VERTEX
  5
D3
330
5C
100
AcDbEntity
  8
LAYER_1
 62
   178
100
AcDbVertex
100
AcDb2dVertex
 10
48.5
 20
22.39997198486344
 30
0.0
  0
VERTEX
  5
D4
330
5C
100
AcDbEntity
  8
LAYER_1
 62
   178
100
AcDbVertex
100
AcDb2dVertex
 10
48.0
 20
22.39997198486344
 30
0.0
  0
VERTEX
  5
D5
330
5C
100
AcDbEntity
  8
LAYER_1
 62
   178
100
AcDbVertex
100
AcDb2dVertex
 10
47.70000076293945
 20
22.59996893310563
 30
0.0
  0
VERTEX
  5
D6
330
5C
100
AcDbEntity
  8
LAYER_1
 62
   178
100
AcDbVertex
100
AcDb2dVertex
 10
47.40000152587891
 20
22.79996588134782
 30
0.0
  0
VERTEX
  5
D7
330
5C
100
AcDbEntity
  8
LAYER_1
 62
   178
100
AcDbVertex
100
AcDb2dVertex
 10
46.20000076293945
 20
22.79996588134782
 30
0.0
  0
VERTEX
  5
D8
330
5C
100
AcDbEntity
  8
LAYER_1
 62
   178
100
AcDbVertex
100
AcDb2dVertex
 10
45.70000076293945
 20
22.59996893310563
 30
0.0
  0
VERTEX
  5
D9
330
5C
100
AcDbEntity
  8
LAYER_1
 62
   178
100
AcDbVertex
100
AcDb2dVertex
 10
44.70000076293945
 20
22.59996893310563
 30
0.0
  0
VERTEX
  5
DA
330
5C
100
AcDbEntity
  8
LAYER_1
 62
   178
100
AcDbVertex
100
AcDb2dVertex
 10
44.5
 20
22.79996588134782
 30
0.0
  0
VERTEX
  5
DB
330
5C
100
AcDbEntity
  8
LAYER_1
 62
   178
100
AcDbVertex
100
AcDb2dVertex
 10
44.5
 20
23.59996893310563
 30
0.0
  0
VERTEX
  5
DC
330
5C
100
AcDbEntity
  8
LAYER_1
 62
   178
100
AcDbVertex
100
AcDb2dVertex
 10
45.5
 20
23.59996893310563
 30
0.0
  0
VERTEX
  5
DD
330
5C
100
AcDbEntity
  8
LAYER_1
 62
   178
100
AcDbVertex
100
AcDb2dVertex
 10
45.20000076293945
 20
23.79996588134782
 30
0.0
  0
VERTEX
  5
DE
330
5C
100
AcDbEntity
  8
LAYER_1
 62
   178
100
AcDbVertex
100
AcDb2dVertex
 10
44.90000152587891
 20
23.99996282959
 30
0.0
  0
VERTEX
  5
DF
330
5C
100
AcDbEntity
  8
LAYER_1
 62
   178
100
AcDbVertex
100
AcDb2dVertex
 10
44.5
 20
23.99996282959
 30
0.0
  0
VERTEX
  5
E0
330
5C
100
AcDbEntity
  8
LAYER_1
 62
   178
100
AcDbVertex
100
AcDb2dVertex
 10
44.5
 20
24.69995977783219
 30
0.0
  0
VERTEX
  5
E1
330
5C
100
AcDbEntity
  8
LAYER_1
 62
   178
100
AcDbVertex
100
AcDb2dVertex
 10
44.70000076293945
 20
24.69995977783219
 30
0.0
  0
VERTEX
  5
E2
330
5C
100
AcDbEntity
  8
LAYER_1
 62
   178
100
AcDbVertex
100
AcDb2dVertex
 10
45.20000076293945
 20
24.99996282959
 30
0.0
  0
VERTEX
  5
E3
330
5C
100
AcDbEntity
  8
LAYER_1
 62
   178
100
AcDbVertex
100
AcDb2dVertex
 10
45.5
 20
24.99996282959
 30
0.0
  0
VERTEX
  5
E4
330
5C
100
AcDbEntity
  8
LAYER_1
 62
   178
100
AcDbVertex
100
AcDb2dVertex
 10
46.09999847412109
 20
24.5999613037111
 30
0.0
  0
VERTEX
  5
E5
330
5C
100
AcDbEntity
  8
LAYER_1
 62
   178
100
AcDbVertex
100
AcDb2dVertex
 10
46.29999923706055
 20
24.39996435546891
 30
0.0
  0
VERTEX
  5
E6
330
5C
100
AcDbEntity
  8
LAYER_1
 62
   178
100
AcDbVertex
100
AcDb2dVertex
 10
46.39999771118164
 20
24.39996435546891
 30
0.0
  0
VERTEX
  5
E7
330
5C
100
AcDbEntity
  8
LAYER_1
 62
   178
100
AcDbVertex
100
AcDb2dVertex
 10
46.39999771118164
 20
25.39996435546891
 30
0.0
  0
VERTEX
  5
E8
330
5C
100
AcDbEntity
  8
LAYER_1
 62
   178
100
AcDbVertex
100
AcDb2dVertex
 10
46.39999771118164
 20
25.39996435546891
 30
0.0
  0
VERTEX
  5
E9
330
5C
100
AcDbEntity
  8
LAYER_1
 62
   178
100
AcDbVertex
100
AcDb2dVertex
 10
46.89999771118164
 20
25.69996740722672
 30
0.0
  0
VERTEX
  5
EA
330
5C
100
AcDbEntity
  8
LAYER_1
 62
   178
100
AcDbVertex
100
AcDb2dVertex
 10
47.79999923706055
 20
25.69996740722672
 30
0.0
  0
VERTEX
  5
EB
330
5C
100
AcDbEntity
  8
LAYER_1
 62
   178
100
AcDbVertex
100
AcDb2dVertex
 10
47.79999923706055
 20
23.59996893310563
 30
0.0
  0
VERTEX
  5
EC
330
5C
100
AcDbEntity
  8
LAYER_1
 62
   178
100
AcDbVertex
100
AcDb2dVertex
 10
48.09999847412109
 20
23.59996893310563
 30
0.0
  0
VERTEX
  5
ED
330
5C
100
AcDbEntity
  8
LAYER_1
 62
   178
100
AcDbVertex
100
AcDb2dVertex
 10
48.29999923706055
 20
23.39997198486344
 30
0.0
  0
VERTEX
  5
EE
330
5C
100
AcDbEntity
  8
LAYER_1
 62
   178
100
AcDbVertex
100
AcDb2dVertex
 10
48.59999847412109
 20
23.39997198486344
 30
0.0
  0
VERTEX
  5
EF
330
5C
100
AcDbEntity
  8
LAYER_1
 62
   178
100
AcDbVertex
100
AcDb2dVertex
 10
49.19999694824219
 20
22.99997045898454
 30
0.0
  0
VERTEX
  5
F0
330
5C
100
AcDbEntity
  8
LAYER_1
 62
   178
100
AcDbVertex
100
AcDb2dVertex
 10
49.49999618530273
 20
22.79997351074235
 30
0.0
  0
VERTEX
  5
F1
330
5C
100
AcDbEntity
  8
LAYER_1
 62
   178
100
AcDbVertex
100
AcDb2dVertex
 10
49.69999694824219
 20
22.59997656250016
 30
0.0
  0
VERTEX
  5
F2
330
5C
100
AcDbEntity
  8
LAYER_1
 62
   178
100
AcDbVertex
100
AcDb2dVertex
 10
50.19999694824219
 20
22.59997656250016
 30
0.0
  0
VERTEX
  5
F3
330
5C
100
AcDbEntity
  8
LAYER_1
 62
   178
100
AcDbVertex
100
AcDb2dVertex
 10
50.19999694824219
 20
24.69997503662125
 30
0.0
  0
VERTEX
  5
F4
330
5C
100
AcDbEntity
  8
LAYER_1
 62
   178
100
AcDbVertex
100
AcDb2dVertex
 10
49.69999694824219
 20
24.69997503662125
 30
0.0
  0
VERTEX
  5
F5
330
5C
100
AcDbEntity
  8
LAYER_1
 62
   178
100
AcDbVertex
100
AcDb2dVertex
 10
48.89999771118164
 20
25.49997808837907
 30
0.0
  0
VERTEX
  5
F6
330
5C
100
AcDbEntity
  8
LAYER_1
 62
   178
100
AcDbVertex
100
AcDb2dVertex
 10
48.69999694824219
 20
25.69997503662125
 30
0.0
  0
VERTEX
  5
F7
330
5C
100
AcDbEntity
  8
LAYER_1
 62
   178
100
AcDbVertex
100
AcDb2dVertex
 10
48.39999771118164
 20
25.69997503662125
 30
0.0
  0
VERTEX
  5
F8
330
5C
100
AcDbEntity
  8
LAYER_1
 62
   178
100
AcDbVertex
100
AcDb2dVertex
 10
48.39999771118164
 20
26.29997351074235
 30
0.0
  0
VERTEX
  5
F9
330
5C
100
AcDbEntity
  8
LAYER_1
 62
   178
100
AcDbVertex
100
AcDb2dVertex
 10
49.49999618530273
 20
26.29997351074235
 30
0.0
  0
VERTEX
  5
FA
330
5C
100
AcDbEntity
  8
LAYER_1
 62
   178
100
AcDbVertex
100
AcDb2dVertex
 10
49.69999694824219
 20
26.09997656250016
 30
0.0
  0
VERTEX
  5
FB
330
5C
100
AcDbEntity
  8
LAYER_1
 62
   178
100
AcDbVertex
100
AcDb2dVertex
 10
49.89999771118164
 20
25.89997961425797
 30
0.0
  0
VERTEX
  5
FC
330
5C
100
AcDbEntity
  8
LAYER_1
 62
   178
100
AcDbVertex
100
AcDb2dVertex
 10
50.09999847412109
 20
25.69998266601579
 30
0.0
  0
VERTEX
  5
FD
330
5C
100
AcDbEntity
  8
LAYER_1
 62
   178
100
AcDbVertex
100
AcDb2dVertex
 10
50.19999694824219
 20
25.69998266601579
 30
0.0
  0
VERTEX
  5
FE
330
5C
100
AcDbEntity
  8
LAYER_1
 62
   178
100
AcDbVertex
100
AcDb2dVertex
 10
50.19999694824219
 20
29.39999487304704
 30
0.0
  0
VERTEX
  5
FF
330
5C
100
AcDbEntity
  8
LAYER_1
 62
   178
100
AcDbVertex
100
AcDb2dVertex
 10
51.19999694824219
 20
29.39999487304704
 30
0.0
  0
VERTEX
  5
100
330
5C
100
AcDbEntity
  8
LAYER_1
 62
   178
100
AcDbVertex
100
AcDb2dVertex
 10
51.59999847412109
 20
29.09999182128922
 30
0.0
  0
VERTEX
  5
101
330
5C
100
AcDbEntity
  8
LAYER_1
 62
   178
100
AcDbVertex
100
AcDb2dVertex
 10
51.59999847412109
 20
29.09999182128922
 30
0.0
  0
VERTEX
  5
102
330
5C
100
AcDbEntity
  8
LAYER_1
 62
   178
100
AcDbVertex
100
AcDb2dVertex
 10
51.59999847412109
 20
28.89999487304704
 30
0.0
  0
VERTEX
  5
103
330
5C
100
AcDbEntity
  8
LAYER_1
 62
   178
100
AcDbVertex
100
AcDb2dVertex
 10
51.59999847412109
 20
28.89999487304704
 30
0.0
  0
VERTEX
  5
104
330
5C
100
AcDbEntity
  8
LAYER_1
 62
   178
100
AcDbVertex
100
AcDb2dVertex
 10
51.59999847412109
 20
27.59999182128922
 30
0.0
  0
VERTEX
  5
105
330
5C
100
AcDbEntity
  8
LAYER_1
 62
   178
100
AcDbVertex
100
AcDb2dVertex
 10
51.79999923706055
 20
27.59999182128922
 30
0.0
  0
VERTEX
  5
106
330
5C
100
AcDbEntity
  8
LAYER_1
 62
   178
100
AcDbVertex
100
AcDb2dVertex
 10
52.09999847412109
 20
27.79998876953141
 30
0.0
  0
VERTEX
  5
107
330
5C
100
AcDbEntity
  8
LAYER_1
 62
   178
100
AcDbVertex
100
AcDb2dVertex
 10
52.29999923706055
 20
27.9999857177736
 30
0.0
  0
VERTEX
  5
108
330
5C
100
AcDbEntity
  8
LAYER_1
 62
   178
100
AcDbVertex
100
AcDb2dVertex
 10
53.29999923706055
 20
27.9999857177736
 30
0.0
  0
VERTEX
  5
109
330
5C
100
AcDbEntity
  8
LAYER_1
 62
   178
100
AcDbVertex
100
AcDb2dVertex
 10
53.29999923706055
 20
27.29998876953141
 30
0.0
  0
VERTEX
  5
10A
330
5C
100
AcDbEntity
  8
LAYER_1
 62
   178
100
AcDbVertex
100
AcDb2dVertex
 10
53.0
 20
27.29998876953141
 30
0.0
  0
VERTEX
  5
10B
330
5C
100
AcDbEntity
  8
LAYER_1
 62
   178
100
AcDbVertex
100
AcDb2dVertex
 10
52.79999923706055
 20
27.09999182128922
 30
0.0
  0
VERTEX
  5
10C
330
5C
100
AcDbEntity
  8
LAYER_1
 62
   178
100
AcDbVertex
100
AcDb2dVertex
 10
52.5
 20
27.09999182128922
 30
0.0
  0
VERTEX
  5
10D
330
5C
100
AcDbEntity
  8
LAYER_1
 62
   178
100
AcDbVertex
100
AcDb2dVertex
 10
52.0
 20
26.69999029541032
 30
0.0
  0
VERTEX
  5
10E
330
5C
100
AcDbEntity
  8
LAYER_1
 62
   178
100
AcDbVertex
100
AcDb2dVertex
 10
51.79999923706055
 20
26.69999029541032
 30
0.0
  0
VERTEX
  5
10F
330
5C
100
AcDbEntity
  8
LAYER_1
 62
   178
100
AcDbVertex
100
AcDb2dVertex
 10
51.59999847412109
 20
26.49999334716813
 30
0.0
  0
VERTEX
  5
110
330
5C
100
AcDbEntity
  8
LAYER_1
 62
   178
100
AcDbVertex
100
AcDb2dVertex
 10
51.39999771118164
 20
26.49999334716813
 30
0.0
  0
VERTEX
  5
111
330
5C
100
AcDbEntity
  8
LAYER_1
 62
   178
100
AcDbVertex
100
AcDb2dVertex
 10
51.39999771118164
 20
26.29999639892594
 30
0.0
  0
VERTEX
  5
112
330
5C
100
AcDbEntity
  8
LAYER_1
 62
   178
100
AcDbVertex
100
AcDb2dVertex
 10
51.39999771118164
 20
26.29999639892594
 30
0.0
  0
VERTEX
  5
113
330
5C
100
AcDbEntity
  8
LAYER_1
 62
   178
100
AcDbVertex
100
AcDb2dVertex
 10
51.39999771118164
 20
24.39999487304704
 30
0.0
  0
VERTEX
  5
114
330
5C
100
AcDbEntity
  8
LAYER_1
 62
   178
100
AcDbVertex
100
AcDb2dVertex
 10
51.89999771118164
 20
24.39999487304704
 30
0.0
  0
VERTEX
  5
115
330
5C
100
AcDbEntity
  8
LAYER_1
 62
   178
100
AcDbVertex
100
AcDb2dVertex
 10
52.19999694824219
 20
24.59999182128922
 30
0.0
  0
VERTEX
  5
116
330
5C
100
AcDbEntity
  8
LAYER_1
 62
   178
100
AcDbVertex
100
AcDb2dVertex
 10
52.79999542236328
 20
24.89999487304704
 30
0.0
  0
VERTEX
  5
117
330
5C
100
AcDbEntity
  8
LAYER_1
 62
   178
100
AcDbVertex
100
AcDb2dVertex
 10
53.09999465942383
 20
25.09999182128922
 30
0.0
  0
VERTEX
  5
118
330
5C
100
AcDbEntity
  8
LAYER_1
 62
   178
100
AcDbVertex
100
AcDb2dVertex
 10
53.79999542236328
 20
25.09999182128922
 30
0.0
  0
VERTEX
  5
119
330
5C
100
AcDbEntity
  8
LAYER_1
 62
   178
100
AcDbVertex
100
AcDb2dVertex
 10
53.79999542236328
 20
26.89999487304704
 30
0.0
  0
VERTEX
  5
11A
330
5C
100
AcDbEntity
  8
LAYER_1
 62
   178
100
AcDbVertex
100
AcDb2dVertex
 10
54.99999618530273
 20
26.89999487304704
 30
0.0
  0
VERTEX
  5
11B
330
5C
100
AcDbEntity
  8
LAYER_1
 62
   178
100
AcDbVertex
100
AcDb2dVertex
 10
55.19999694824219
 20
26.69999792480485
 30
0.0
  0
VERTEX
  5
11C
330
5C
100
AcDbEntity
  8
LAYER_1
 62
   178
100
AcDbVertex
100
AcDb2dVertex
 10
55.19999694824219
 20
26.69999792480485
 30
0.0
  0
VERTEX
  5
11D
330
5C
100
AcDbEntity
  8
LAYER_1
 62
   178
100
AcDbVertex
100
AcDb2dVertex
 10
55.19999694824219
 20
25.79999639892594
 30
0.0
  0
VERTEX
  5
11E
330
5C
100
AcDbEntity
  8
LAYER_1
 62
   178
100
AcDbVertex
100
AcDb2dVertex
 10
56.0
 20
25.79999639892594
 30
0.0
  0
VERTEX
  5
11F
330
5C
100
AcDbEntity
  8
LAYER_1
 62
   178
100
AcDbVertex
100
AcDb2dVertex
 10
56.59999847412109
 20
26.09999945068375
 30
0.0
  0
VERTEX
  5
120
330
5C
100
AcDbEntity
  8
LAYER_1
 62
   178
100
AcDbVertex
100
AcDb2dVertex
 10
57.19999694824219
 20
26.09999945068375
 30
0.0
  0
VERTEX
  5
121
330
5C
100
AcDbEntity
  8
LAYER_1
 62
   178
100
AcDbVertex
100
AcDb2dVertex
 10
57.39999771118164
 20
25.90000250244157
 30
0.0
  0
VERTEX
  5
122
330
5C
100
AcDbEntity
  8
LAYER_1
 62
   178
100
AcDbVertex
100
AcDb2dVertex
 10
57.59999847412109
 20
25.90000250244157
 30
0.0
  0
VERTEX
  5
123
330
5C
100
AcDbEntity
  8
LAYER_1
 62
   178
100
AcDbVertex
100
AcDb2dVertex
 10
57.59999847412109
 20
25.40000250244157
 30
0.0
  0
VERTEX
  5
124
330
5C
100
AcDbEntity
  8
LAYER_1
 62
   178
100
AcDbVertex
100
AcDb2dVertex
 10
57.59999847412109
 20
25.19999792480485
 30
0.0
  0
SEQEND
  5
125
330
5C
100
AcDbEntity
  8
LAYER_1
 62
   178
  0
SPLINE
  5
126
330
1F
100
AcDbEntity
  8
LAYER_1
 62
   178
100
AcDbSpline
210
0.0
220
0.0
230
1.0
 70
    11
 71
     3
 72
    32
 73
    28
 74
     0
 42
0.0000000001
 43
0.0000000001
 12
1.0
 22
0.0
 32
0.0
 13
1.0
 23
0.0
 33
0.0
 40
0.0
 40
0.0
 40
0.0
 40
0.0
 40
1.0
 40
1.0
 40
1.0
 40
2.0
 40
2.0
 40
2.0
 40
3.0
 40
3.0
 40
3.0
 40
4.0
 40
4.0
 40
4.0
 40
5.0
 40
5.0
 40
5.0
 40
6.0
 40
6.0
 40
6.0
 40
7.0
 40
7.0
 40
7.0
 40
8.0
 40
8.0
 40
8.0
 40
9.0
 40
9.0
 40
9.0
 40
9.0
 10
49.29999923706055
 20
43.59999945068375
 30
0.0
 10
49.68276214599609
 20
42.4267435302736
 30
0.0
 10
50.7661247253418
 20
41.6242532958986
 30
0.0
 10
52.0
 20
41.59999945068375
 30
0.0
 10
52.76566314697266
 20
41.55764868164079
 30
0.0
 10
53.52785491943359
 20
41.73087408447282
 30
0.0
 10
54.20000076293945
 20
42.09999945068375
 30
0.0
 10
54.79999923706055
 20
43.19999792480485
 30
0.0
 10
54.79999923706055
 20
43.19999792480485
 30
0.0
 10
55.29999923706055
 20
43.50000097656266
 30
0.0
 10
55.29999923706055
 20
43.50000097656266
 30
0.0
 10
56.0
 20
43.19999792480485
 30
0.0
 10
56.0
 20
43.19999792480485
 30
0.0
 10
55.4422492980957
 20
41.44484045410172
 30
0.0
 10
53.73273849487305
 20
40.31906988525407
 30
0.0
 10
51.90000152587891
 20
40.50000097656266
 30
0.0
 10
51.90000152587891
 20
40.50000097656266
 30
0.0
 10
51.90000152587891
 20
40.50000097656266
 30
0.0
 10
51.90000152587891
 20
40.50000097656266
 30
0.0
 10
51.90000152587891
 20
40.50000097656266
 30
0.0
 10
49.90000152587891
 20
40.69999792480485
 30
0.0
 10
49.90000152587891
 20
40.69999792480485
 30
0.0
 10
49.03627014160156
 20
41.47568609619157
 30
0.0
 10
48.41182327270508
 20
42.48174383544938
 30
0.0
 10
48.10000228881836
 20
43.59999945068375
 30
0.0
 10
48.46477890014648
 20
43.83739569091813
 30
0.0
 10
48.93522262573242
 20
43.83739569091813
 30
0.0
 10
49.29999923706055
 20
43.59999945068375
 30
0.0
  0
SPLINE
  5
127
330
1F
100
AcDbEntity
  8
LAYER_1
 62
   178
100
AcDbSpline
210
0.0
220
0.0
230
1.0
 70
    11
 71
     3
 72
    23
 73
    19
 74
     0
 42
0.0000000001
 43
0.0000000001
 12
1.0
 22
0.0
 32
0.0
 13
1.0
 23
0.0
 33
0.0
 40
0.0
 40
0.0
 40
0.0
 40
0.0
 40
1.0
 40
1.0
 40
1.0
 40
2.0
 40
2.0
 40
2.0
 40
3.0
 40
3.0
 40
3.0
 40
4.0
 40
4.0
 40
4.0
 40
5.0
 40
5.0
 40
5.0
 40
6.0
 40
6.0
 40
6.0
 40
6.0
 10
48.59999847412109
 20
47.09999945068375
 30
0.0
 10
48.59999847412109
 20
47.69999792480485
 30
0.0
 10
49.09999847412109
 20
48.09999945068375
 30
0.0
 10
49.79999923706055
 20
48.09999945068375
 30
0.0
 10
50.35227584838867
 20
48.1027689208986
 30
0.0
 10
50.80223083496094
 20
47.65730383300797
 30
0.0
 10
50.80500030517578
 20
47.10502722167985
 30
0.0
 10
50.80517578125
 20
47.06995489501969
 30
0.0
 10
50.80350494384766
 20
47.0348978271486
 30
0.0
 10
50.79999923706055
 20
47.00000097656266
 30
0.0
 10
50.77944183349609
 20
46.61169531250016
 30
0.0
 10
50.59830856323242
 20
46.24942877197282
 30
0.0
 10
50.29999923706055
 20
46.00000097656266
 30
0.0
 10
50.29999923706055
 20
46.00000097656266
 30
0.0
 10
49.0
 20
46.00000097656266
 30
0.0
 10
49.0
 20
46.00000097656266
 30
0.0
 10
48.69980621337891
 20
46.28250982666032
 30
0.0
 10
48.55138778686523
 20
46.69065191650407
 30
0.0
 10
48.59999847412109
 20
47.09999945068375
 30
0.0
  0
SPLINE
  5
128
330
1F
100
AcDbEntity
  8
LAYER_1
 62
   178
100
AcDbSpline
210
0.0
220
0.0
230
1.0
 70
    11
 71
     3
 72
    23
 73
    19
 74
     0
 42
0.0000000001
 43
0.0000000001
 12
1.0
 22
0.0
 32
0.0
 13
1.0
 23
0.0
 33
0.0
 40
0.0
 40
0.0
 40
0.0
 40
0.0
 40
1.0
 40
1.0
 40
1.0
 40
2.0
 40
2.0
 40
2.0
 40
3.0
 40
3.0
 40
3.0
 40
4.0
 40
4.0
 40
4.0
 40
5.0
 40
5.0
 40
5.0
 40
6.0
 40
6.0
 40
6.0
 40
6.0
 10
52.09999847412109
 20
59.79999639892594
 30
0.0
 10
52.09999847412109
 20
59.79999639892594
 30
0.0
 10
52.5
 20
60.69999792480485
 30
0.0
 10
52.5
 20
60.69999792480485
 30
0.0
 10
52.62590408325195
 20
60.79442694091813
 30
0.0
 10
52.70000076293945
 20
60.94262030029313
 30
0.0
 10
52.70000076293945
 20
61.09999945068375
 30
0.0
 10
52.70000076293945
 20
61.09999945068375
 30
0.0
 10
52.70000076293945
 20
60.90000250244157
 30
0.0
 10
52.70000076293945
 20
60.90000250244157
 30
0.0
 10
52.77593612670898
 20
60.32803442382829
 30
0.0
 10
52.98112106323242
 20
59.7808695068361
 30
0.0
 10
53.29999923706055
 20
59.30000402832047
 30
0.0
 10
53.29999923706055
 20
59.30000402832047
 30
0.0
 10
52.29999923706055
 20
59.30000402832047
 30
0.0
 10
52.29999923706055
 20
59.30000402832047
 30
0.0
 10
52.20000076293945
 20
59.50000097656266
 30
0.0
 10
52.20000076293945
 20
59.69999792480485
 30
0.0
 10
52.09999847412109
 20
59.79999639892594
 30
0.0
  0
SPLINE
  5
129
330
1F
100
AcDbEntity
  8
LAYER_1
 62
   178
100
AcDbSpline
210
0.0
220
0.0
230
1.0
 70
    11
 71
     3
 72
    26
 73
    22
 74
     0
 42
0.0000000001
 43
0.0000000001
 12
1.0
 22
0.0
 32
0.0
 13
1.0
 23
0.0
 33
0.0
 40
0.0
 40
0.0
 40
0.0
 40
0.0
 40
1.0
 40
1.0
 40
1.0
 40
2.0
 40
2.0
 40
2.0
 40
3.0
 40
3.0
 40
3.0
 40
4.0
 40
4.0
 40
4.0
 40
5.0
 40
5.0
 40
5.0
 40
6.0
 40
6.0
 40
6.0
 40
7.0
 40
7.0
 40
7.0
 40
7.0
 10
54.0
 20
46.79999639892594
 30
0.0
 10
54.0525016784668
 20
47.40523626709
 30
0.0
 10
54.5857048034668
 20
47.85331823730485
 30
0.0
 10
55.19094467163086
 20
47.80082037353532
 30
0.0
 10
55.19396591186523
 20
47.80056097412125
 30
0.0
 10
55.19698333740234
 20
47.80028631591813
 30
0.0
 10
55.20000076293945
 20
47.79999639892594
 30
0.0
 10
55.80524063110352
 20
47.74749853515641
 30
0.0
 10
56.25332641601562
 20
47.21428778076188
 30
0.0
 10
56.20082473754883
 20
46.60904791259782
 30
0.0
 10
56.2005615234375
 20
46.60603430175797
 30
0.0
 10
56.20028686523438
 20
46.6030130615236
 30
0.0
 10
56.20000076293945
 20
46.59999945068375
 30
0.0
 10
56.16843032836914
 20
46.2146845092775
 30
0.0
 10
55.98930740356445
 20
45.85644628906266
 30
0.0
 10
55.70000076293945
 20
45.59999945068375
 30
0.0
 10
55.70000076293945
 20
45.59999945068375
 30
0.0
 10
54.40000152587891
 20
45.59999945068375
 30
0.0
 10
54.40000152587891
 20
45.59999945068375
 30
0.0
 10
54.13352584838867
 20
45.94257452392594
 30
0.0
 10
53.99236297607422
 20
46.3660516967775
 30
0.0
 10
54.0
 20
46.79999639892594
 30
0.0
  0
SPLINE
  5
12A
330
1F
100
AcDbEntity
  8
LAYER_1
 62
   178
100
AcDbSpline
210
0.0
220
0.0
230
1.0
 70
    11
 71
     3
 72
   257
 73
   253
 74
     0
 42
0.0000000001
 43
0.0000000001
 12
1.0
 22
0.0
 32
0.0
 13
1.0
 23
0.0
 33
0.0
 40
0.0
 40
0.0
 40
0.0
 40
0.0
 40
1.0
 40
1.0
 40
1.0
 40
2.0
 40
2.0
 40
2.0
 40
3.0
 40
3.0
 40
3.0
 40
4.0
 40
4.0
 40
4.0
 40
5.0
 40
5.0
 40
5.0
 40
6.0
 40
6.0
 40
6.0
 40
7.0
 40
7.0
 40
7.0
 40
8.0
 40
8.0
 40
8.0
 40
9.0
 40
9.0
 40
9.0
 40
10.0
 40
10.0
 40
10.0
 40
11.0
 40
11.0
 40
11.0
 40
12.0
 40
12.0
 40
12.0
 40
13.0
 40
13.0
 40
13.0
 40
14.0
 40
14.0
 40
14.0
 40
15.0
 40
15.0
 40
15.0
 40
16.0
 40
16.0
 40
16.0
 40
17.0
 40
17.0
 40
17.0
 40
18.0
 40
18.0
 40
18.0
 40
19.0
 40
19.0
 40
19.0
 40
20.0
 40
20.0
 40
20.0
 40
21.0
 40
21.0
 40
21.0
 40
22.0
 40
22.0
 40
22.0
 40
23.0
 40
23.0
 40
23.0
 40
24.0
 40
24.0
 40
24.0
 40
25.0
 40
25.0
 40
25.0
 40
26.0
 40
26.0
 40
26.0
 40
27.0
 40
27.0
 40
27.0
 40
28.0
 40
28.0
 40
28.0
 40
29.0
 40
29.0
 40
29.0
 40
30.0
 40
30.0
 40
30.0
 40
31.0
 40
31.0
 40
31.0
 40
32.0
 40
32.0
 40
32.0
 40
33.0
 40
33.0
 40
33.0
 40
34.0
 40
34.0
 40
34.0
 40
35.0
 40
35.0
 40
35.0
 40
36.0
 40
36.0
 40
36.0
 40
37.0
 40
37.0
 40
37.0
 40
38.0
 40
38.0
 40
38.0
 40
39.0
 40
39.0
 40
39.0
 40
40.0
 40
40.0
 40
40.0
 40
41.0
 40
41.0
 40
41.0
 40
42.0
 40
42.0
 40
42.0
 40
43.0
 40
43.0
 40
43.0
 40
44.0
 40
44.0
 40
44.0
 40
45.0
 40
45.0
 40
45.0
 40
46.0
 40
46.0
 40
46.0
 40
47.0
 40
47.0
 40
47.0
 40
48.0
 40
48.0
 40
48.0
 40
49.0
 40
49.0
 40
49.0
 40
50.0
 40
50.0
 40
50.0
 40
51.0
 40
51.0
 40
51.0
 40
52.0
 40
52.0
 40
52.0
 40
53.0
 40
53.0
 40
53.0
 40
54.0
 40
54.0
 40
54.0
 40
55.0
 40
55.0
 40
55.0
 40
56.0
 40
56.0
 40
56.0
 40
57.0
 40
57.0
 40
57.0
 40
58.0
 40
58.0
 40
58.0
 40
59.0
 40
59.0
 40
59.0
 40
60.0
 40
60.0
 40
60.0
 40
61.0
 40
61.0
 40
61.0
 40
62.0
 40
62.0
 40
62.0
 40
63.0
 40
63.0
 40
63.0
 40
64.0
 40
64.0
 40
64.0
 40
65.0
 40
65.0
 40
65.0
 40
66.0
 40
66.0
 40
66.0
 40
67.0
 40
67.0
 40
67.0
 40
68.0
 40
68.0
 40
68.0
 40
69.0
 40
69.0
 40
69.0
 40
70.0
 40
70.0
 40
70.0
 40
71.0
 40
71.0
 40
71.0
 40
72.0
 40
72.0
 40
72.0
 40
73.0
 40
73.0
 40
73.0
 40
74.0
 40
74.0
 40
74.0
 40
75.0
 40
75.0
 40
75.0
 40
76.0
 40
76.0
 40
76.0
 40
77.0
 40
77.0
 40
77.0
 40
78.0
 40
78.0
 40
78.0
 40
79.0
 40
79.0
 40
79.0
 40
80.0
 40
80.0
 40
80.0
 40
81.0
 40
81.0
 40
81.0
 40
82.0
 40
82.0
 40
82.0
 40
83.0
 40
83.0
 40
83.0
 40
84.0
 40
84.0
 40
84.0
 40
84.0
 10
56.0
 20
59.79999639892594
 30
0.0
 10
55.79999923706055
 20
59.79999639892594
 30
0.0
 10
55.70000076293945
 20
59.89999487304704
 30
0.0
 10
55.59999847412109
 20
60.09999945068375
 30
0.0
 10
55.48843765258789
 20
60.28212835693375
 30
0.0
 10
55.42002487182617
 20
60.48735906982438
 30
0.0
 10
55.39999771118164
 20
60.69999792480485
 30
0.0
 10
55.19979858398438
 20
61.75727178955094
 30
0.0
 10
55.19979858398438
 20
62.84272482299821
 30
0.0
 10
55.39999771118164
 20
63.8999986877443
 30
0.0
 10
55.74691772460938
 20
66.12370779418961
 30
0.0
 10
56.21427154541016
 20
68.32694723510758
 30
0.0
 10
56.79999923706055
 20
70.4999971618654
 30
0.0
 10
56.79999923706055
 20
70.59999563598649
 30
0.0
 10
56.79999923706055
 20
70.69999792480485
 30
0.0
 10
56.70000076293945
 20
70.69999792480485
 30
0.0
 10
56.60000228881836
 20
70.69999792480485
 30
0.0
 10
56.70000076293945
 20
70.79999639892594
 30
0.0
 10
56.60000228881836
 20
70.79999639892594
 30
0.0
 10
56.60000228881836
 20
70.79999639892594
 30
0.0
 10
54.20000076293945
 20
70.79999639892594
 30
0.0
 10
54.20000076293945
 20
70.79999639892594
 30
0.0
 10
54.10000228881836
 20
70.79999639892594
 30
0.0
 10
54.0
 20
70.79999639892594
 30
0.0
 10
53.90000152587891
 20
70.59999563598649
 30
0.0
 10
53.37281036376953
 20
68.55999090576188
 30
0.0
 10
52.9720458984375
 20
66.48938467407243
 30
0.0
 10
52.70000076293945
 20
64.39999487304704
 30
0.0
 10
52.70000076293945
 20
64.39999487304704
 30
0.0
 10
52.70000076293945
 20
64.39999487304704
 30
0.0
 10
52.70000076293945
 20
64.39999487304704
 30
0.0
 10
52.22772216796875
 20
63.30387976074235
 30
0.0
 10
51.69352722167969
 20
62.23548986816422
 30
0.0
 10
51.10000228881836
 20
61.19999792480485
 30
0.0
 10
50.40000152587891
 20
60.29999639892594
 30
0.0
 10
50.00000381469727
 20
59.79999639892594
 30
0.0
 10
49.60000228881836
 20
59.79999639892594
 30
0.0
 10
49.20000076293945
 20
59.79999639892594
 30
0.0
 10
49.20000076293945
 20
59.99999334716813
 30
0.0
 10
49.10000228881836
 20
60.39999487304704
 30
0.0
 10
49.03566741943359
 20
61.27179052734391
 30
0.0
 10
49.10309219360352
 20
62.14829351806657
 30
0.0
 10
49.30000305175781
 20
62.99999334716813
 30
0.0
 10
49.50000381469727
 20
64.19999411010758
 30
0.0
 10
50.00000381469727
 20
66.69999411010758
 30
0.0
 10
51.00000381469727
 20
70.49999334716813
 30
0.0
 10
51.00000381469727
 20
70.49999334716813
 30
0.0
 10
51.00000381469727
 20
70.69999411010758
 30
0.0
 10
51.00000381469727
 20
70.69999411010758
 30
0.0
 10
51.00000381469727
 20
70.69999411010758
 30
0.0
 10
50.70000457763672
 20
70.69999411010758
 30
0.0
 10
50.70000457763672
 20
70.69999411010758
 30
0.0
 10
50.70000457763672
 20
70.69999411010758
 30
0.0
 10
51.30000305175781
 20
71.29999258422868
 30
0.0
 10
51.30000305175781
 20
71.29999258422868
 30
0.0
 10
51.59439086914062
 20
71.7106790771486
 30
0.0
 10
51.76762390136719
 20
72.19573309326188
 30
0.0
 10
51.80000305175781
 20
72.69999411010758
 30
0.0
 10
51.84041213989258
 20
73.15781881713883
 30
0.0
 10
51.65353775024414
 20
73.60631658935563
 30
0.0
 10
51.30000305175781
 20
73.89999487304704
 30
0.0
 10
51.017822265625
 20
74.19704916381852
 30
0.0
 10
50.59392547607422
 20
74.31265737915055
 30
0.0
 10
50.20000457763672
 20
74.19999411010758
 30
0.0
 10
49.73798751831055
 20
74.0980196228029
 30
0.0
 10
49.33937072753906
 20
73.80811407470719
 30
0.0
 10
49.10000610351562
 20
73.39999487304704
 30
0.0
 10
48.80398178100586
 20
72.99596121215836
 30
0.0
 10
48.66211318969727
 20
72.49942877197282
 30
0.0
 10
48.70000457763672
 20
71.99999334716813
 30
0.0
 10
48.63335418701172
 20
71.58874990844743
 30
0.0
 10
48.78476715087891
 20
71.17236807250993
 30
0.0
 10
49.10000610351562
 20
70.89999487304704
 30
0.0
 10
49.10000610351562
 20
70.89999487304704
 30
0.0
 10
49.30000686645508
 20
70.69999411010758
 30
0.0
 10
49.30000686645508
 20
70.69999411010758
 30
0.0
 10
49.30000686645508
 20
70.69999411010758
 30
0.0
 10
48.40000534057617
 20
70.69999411010758
 30
0.0
 10
48.40000534057617
 20
70.69999411010758
 30
0.0
 10
48.40000534057617
 20
70.69999411010758
 30
0.0
 10
48.20000457763672
 20
70.49999334716813
 30
0.0
 10
48.20000457763672
 20
70.49999334716813
 30
0.0
 10
47.60000610351562
 20
68.09999182128922
 30
0.0
 10
47.20000457763672
 20
66.19999411010758
 30
0.0
 10
46.90000534057617
 20
64.89999487304704
 30
0.0
 10
46.36811447143555
 20
63.55297949218766
 30
0.0
 10
45.73288726806641
 20
62.24909689331071
 30
0.0
 10
45.0
 20
61.00000097656266
 30
0.0
 10
44.5333366394043
 20
60.20000555419938
 30
0.0
 10
44.0333366394043
 20
59.80000402832047
 30
0.0
 10
43.5
 20
59.80000402832047
 30
0.0
 10
43.29999923706055
 20
59.80000402832047
 30
0.0
 10
43.09999847412109
 20
60.00000097656266
 30
0.0
 10
43.0
 20
60.40000250244157
 30
0.0
 10
42.9293098449707
 20
61.60814764404313
 30
0.0
 10
43.03031539916992
 20
62.82021810913102
 30
0.0
 10
43.29999923706055
 20
64.00000097656266
 30
0.0
 10
43.70000076293945
 20
65.59999945068375
 30
0.0
 10
44.79999923706055
 20
70.3000002136232
 30
0.0
 10
46.70000076293945
 20
78.00000097656266
 30
0.0
 10
46.70000076293945
 20
78.09999945068375
 30
0.0
 10
46.70000076293945
 20
78.09999945068375
 30
0.0
 10
46.60000228881836
 20
78.20000173950211
 30
0.0
 10
46.50000381469727
 20
78.30000402832047
 30
0.0
 10
46.60000228881836
 20
78.3000002136232
 30
0.0
 10
46.50000381469727
 20
78.3000002136232
 30
0.0
 10
46.50000381469727
 20
78.3000002136232
 30
0.0
 10
44.09999847412109
 20
78.3000002136232
 30
0.0
 10
44.09999847412109
 20
78.3000002136232
 30
0.0
 10
43.89999771118164
 20
78.3000002136232
 30
0.0
 10
43.79999923706055
 20
78.3000002136232
 30
0.0
 10
43.79999923706055
 20
78.09999945068375
 30
0.0
 10
42.89999771118164
 20
74.3000002136232
 30
0.0
 10
42.20000076293945
 20
71.3000002136232
 30
0.0
 10
41.59999847412109
 20
69.09999945068375
 30
0.0
 10
41.78547668457031
 20
70.86719610595719
 30
0.0
 10
41.71813201904297
 20
72.6518068542482
 30
0.0
 10
41.39999771118164
 20
74.3999986877443
 30
0.0
 10
41.2338752746582
 20
75.64029028320329
 30
0.0
 10
40.89736557006836
 20
76.85171987915055
 30
0.0
 10
40.39999771118164
 20
77.9999971618654
 30
0.0
 10
39.97229766845703
 20
78.92738821411149
 30
0.0
 10
39.43514251708984
 20
79.80026342773454
 30
0.0
 10
38.79999923706055
 20
80.59999563598649
 30
0.0
 10
38.26711273193359
 20
81.24232962036149
 30
0.0
 10
37.62364959716797
 20
81.78419210815446
 30
0.0
 10
36.89999771118164
 20
82.19999411010758
 30
0.0
 10
36.34463119506836
 20
82.64264013671891
 30
0.0
 10
35.69431304931641
 20
82.95068838500993
 30
0.0
 10
34.99999618530273
 20
83.09999563598649
 30
0.0
 10
34.99999618530273
 20
83.09999563598649
 30
0.0
 10
33.29999542236328
 20
83.39999487304704
 30
0.0
 10
33.29999542236328
 20
83.39999487304704
 30
0.0
 10
30.8441333770752
 20
83.29188635253922
 30
0.0
 10
28.52091789245605
 20
82.25537588500993
 30
0.0
 10
26.79999542236328
 20
80.49999334716813
 30
0.0
 10
24.78804588317871
 20
78.44004537963883
 30
0.0
 10
23.28183746337891
 20
75.94110586547868
 30
0.0
 10
22.39999961853027
 20
73.19999792480485
 30
0.0
 10
20.81778907775879
 20
73.51480963134782
 30
0.0
 10
19.35969924926758
 20
74.27857305908219
 30
0.0
 10
18.20000076293945
 20
75.3999986877443
 30
0.0
 10
34.15487670898438
 20
90.99746420288102
 30
0.0
 10
59.73310089111328
 20
90.70772268676774
 30
0.0
 10
75.33056640625
 20
74.75284674072282
 30
0.0
 10
76.57508087158203
 20
73.47981359863297
 30
0.0
 10
77.73408508300781
 20
72.12591268920914
 30
0.0
 10
78.80000305175781
 20
70.69999792480485
 30
0.0
 10
78.80000305175781
 20
70.69999792480485
 30
0.0
 10
78.5
 20
70.69999792480485
 30
0.0
 10
78.5
 20
70.69999792480485
 30
0.0
 10
78.5
 20
70.69999792480485
 30
0.0
 10
78.19999694824219
 20
70.4999971618654
 30
0.0
 10
78.19999694824219
 20
70.4999971618654
 30
0.0
 10
78.1881332397461
 20
70.32974722290055
 30
0.0
 10
78.15452575683594
 20
70.16171362304704
 30
0.0
 10
78.0999984741211
 20
69.9999971618654
 30
0.0
 10
77.73046875
 20
71.03176214599625
 30
0.0
 10
76.68427276611328
 20
71.65947439575211
 30
0.0
 10
75.5999984741211
 20
71.4999971618654
 30
0.0
 10
74.68846130371094
 20
71.49362280273454
 30
0.0
 10
73.80643463134766
 20
71.17609503173844
 30
0.0
 10
73.0999984741211
 20
70.59999563598649
 30
0.0
 10
72.33124542236328
 20
69.94168951416032
 30
0.0
 10
71.71672058105469
 20
69.12232687377946
 30
0.0
 10
71.30000305175781
 20
68.19999792480485
 30
0.0
 10
70.90885925292969
 20
67.22963430786149
 30
0.0
 10
70.60759735107422
 20
66.22542288208024
 30
0.0
 10
70.4000015258789
 20
65.19999792480485
 30
0.0
 10
70.4000015258789
 20
65.19999792480485
 30
0.0
 10
70.4000015258789
 20
65.19999792480485
 30
0.0
 10
70.4000015258789
 20
65.19999792480485
 30
0.0
 10
69.9225845336914
 20
63.94252493286149
 30
0.0
 10
69.31952667236328
 20
62.73641683959977
 30
0.0
 10
68.5999984741211
 20
61.59999945068375
 30
0.0
 10
68.0
 20
60.59999945068375
 30
0.0
 10
67.5
 20
60.09999945068375
 30
0.0
 10
67.19999694824219
 20
60.09999945068375
 30
0.0
 10
66.89999389648438
 20
60.09999945068375
 30
0.0
 10
66.69999694824219
 20
60.29999639892594
 30
0.0
 10
66.69999694824219
 20
60.69999792480485
 30
0.0
 10
66.59086608886719
 20
61.59964849853532
 30
0.0
 10
66.6246109008789
 20
62.51088812255875
 30
0.0
 10
66.79999542236328
 20
63.3999986877443
 30
0.0
 10
66.99999237060547
 20
64.4999971618654
 30
0.0
 10
67.5999984741211
 20
66.9999971618654
 30
0.0
 10
68.49999237060547
 20
70.8000002136232
 30
0.0
 10
68.49999237060547
 20
70.8000002136232
 30
0.0
 10
68.49999237060547
 20
71.00000097656266
 30
0.0
 10
68.49999237060547
 20
71.00000097656266
 30
0.0
 10
68.49999237060547
 20
71.00000097656266
 30
0.0
 10
67.89999389648438
 20
71.00000097656266
 30
0.0
 10
67.89999389648438
 20
71.00000097656266
 30
0.0
 10
68.19879150390625
 20
71.10776617431657
 30
0.0
 10
68.44779205322266
 20
71.32119848632829
 30
0.0
 10
68.59999084472656
 20
71.59999945068375
 30
0.0
 10
68.88141632080078
 20
72.01103689575211
 30
0.0
 10
69.02178955078125
 20
72.50233175659196
 30
0.0
 10
68.99999237060547
 20
73.00000097656266
 30
0.0
 10
69.05965423583984
 20
73.46059896850602
 30
0.0
 10
68.86904907226562
 20
73.91803839111344
 30
0.0
 10
68.49999237060547
 20
74.20000173950211
 30
0.0
 10
68.21781158447266
 20
74.4970560302736
 30
0.0
 10
67.79391479492188
 20
74.61266424560563
 30
0.0
 10
67.39999389648438
 20
74.50000097656266
 30
0.0
 10
66.984130859375
 20
74.35709097290055
 30
0.0
 10
66.63070678710938
 20
74.07435324096696
 30
0.0
 10
66.39999389648438
 20
73.70000173950211
 30
0.0
 10
66.08935546875
 20
73.29801657104508
 30
0.0
 10
65.9142837524414
 20
72.807824157715
 30
0.0
 10
65.89999389648438
 20
72.3000002136232
 30
0.0
 10
65.9011001586914
 20
71.84955313110368
 30
0.0
 10
66.08092498779297
 20
71.41796209716813
 30
0.0
 10
66.39999389648438
 20
71.09999945068375
 30
0.0
 10
66.39999389648438
 20
71.09999945068375
 30
0.0
 10
65.89999389648438
 20
71.09999945068375
 30
0.0
 10
65.89999389648438
 20
71.09999945068375
 30
0.0
 10
65.69999694824219
 20
71.09999945068375
 30
0.0
 10
65.59999084472656
 20
71.09999945068375
 30
0.0
 10
65.59999084472656
 20
70.8999986877443
 30
0.0
 10
65.59999084472656
 20
70.8999986877443
 30
0.0
 10
64.19998931884766
 20
64.9999971618654
 30
0.0
 10
64.19998931884766
 20
64.9999971618654
 30
0.0
 10
63.59999084472656
 20
63.49999716186539
 30
0.0
 10
62.9999885559082
 20
62.69999792480485
 30
0.0
 10
62.39999008178711
 20
62.69999792480485
 30
0.0
 10
61.91964721679688
 20
62.6674661865236
 30
0.0
 10
61.47396087646484
 20
62.95108511352555
 30
0.0
 10
61.29999160766602
 20
63.3999986877443
 30
0.0
 10
62.09674453735352
 20
65.32805731201188
 30
0.0
 10
62.37263107299805
 20
67.43169119262711
 30
0.0
 10
62.09999084472656
 20
69.4999971618654
 30
0.0
 10
62.06726837158203
 20
69.99252416992204
 30
0.0
 10
61.85356140136719
 20
70.4555521240236
 30
0.0
 10
61.49999237060547
 20
70.79999639892594
 30
0.0
 10
61.33363723754883
 20
71.08987905883805
 30
0.0
 10
61.0334587097168
 20
71.27749349975602
 30
0.0
 10
60.69999313354492
 20
71.29999639892594
 30
0.0
 10
59.99999237060547
 20
71.19999792480485
 30
0.0
 10
59.49999237060547
 20
70.4999971618654
 30
0.0
 10
59.09999465942383
 20
69.19999792480485
 30
0.0
 10
58.72926712036133
 20
67.72902014160172
 30
0.0
 10
58.66122436523438
 20
66.19806387329118
 30
0.0
 10
58.89999389648438
 20
64.69999792480485
 30
0.0
 10
59.02238464355469
 20
64.25090887451188
 30
0.0
 10
59.18990707397461
 20
63.81535818481461
 30
0.0
 10
59.39999389648438
 20
63.3999986877443
 30
0.0
 10
58.90624237060547
 20
62.49508383178727
 30
0.0
 10
58.30157852172852
 20
61.65526678466813
 30
0.0
 10
57.59999465942383
 20
60.89999487304704
 30
0.0
 10
57.0
 20
60.19999792480485
 30
0.0
 10
56.5
 20
59.79999639892594
 30
0.0
 10
56.0
 20
59.79999639892594
 30
0.0
  0
SPLINE
  5
12B
330
1F
100
AcDbEntity
  8
LAYER_1
 62
   178
100
AcDbSpline
210
0.0
220
0.0
230
1.0
 70
    11
 71
     3
 72
    32
 73
    28
 74
     0
 42
0.0000000001
 43
0.0000000001
 12
1.0
 22
0.0
 32
0.0
 13
1.0
 23
0.0
 33
0.0
 40
0.0
 40
0.0
 40
0.0
 40
0.0
 40
1.0
 40
1.0
 40
1.0
 40
2.0
 40
2.0
 40
2.0
 40
3.0
 40
3.0
 40
3.0
 40
4.0
 40
4.0
 40
4.0
 40
5.0
 40
5.0
 40
5.0
 40
6.0
 40
6.0
 40
6.0
 40
7.0
 40
7.0
 40
7.0
 40
8.0
 40
8.0
 40
8.0
 40
9.0
 40
9.0
 40
9.0
 40
9.0
 10
77.5999984741211
 20
67.69999792480485
 30
0.0
 10
77.36583709716797
 20
66.88159658813493
 30
0.0
 10
77.19861602783203
 20
66.0455065002443
 30
0.0
 10
77.0999984741211
 20
65.19999792480485
 30
0.0
 10
76.0
 20
62.19999792480485
 30
0.0
 10
75.0
 20
60.79999639892594
 30
0.0
 10
74.0999984741211
 20
60.69999792480485
 30
0.0
 10
73.84142303466797
 20
60.71213629150407
 30
0.0
 10
73.61065673828125
 20
60.86598303222672
 30
0.0
 10
73.5
 20
61.09999945068375
 30
0.0
 10
73.27300262451172
 20
61.38777258300797
 30
0.0
 10
73.13408660888672
 20
61.73506262207047
 30
0.0
 10
73.0999984741211
 20
62.09999945068375
 30
0.0
 10
72.98780059814453
 20
63.16625692749039
 30
0.0
 10
73.02144622802734
 20
64.24282934570329
 30
0.0
 10
73.19999694824219
 20
65.3000002136232
 30
0.0
 10
73.38510131835938
 20
66.51615240478532
 30
0.0
 10
73.75609588623047
 20
67.69661047363297
 30
0.0
 10
74.29999542236328
 20
68.8000002136232
 30
0.0
 10
74.89999389648438
 20
69.70000173950211
 30
0.0
 10
75.39999389648438
 20
70.20000173950211
 30
0.0
 10
76.0999984741211
 20
70.3000002136232
 30
0.0
 10
76.49877166748047
 20
70.23318960571305
 30
0.0
 10
76.83708953857422
 20
69.9700556030275
 30
0.0
 10
77.0
 20
69.59999945068375
 30
0.0
 10
77.31832122802734
 20
69.01029302978532
 30
0.0
 10
77.52191925048828
 20
68.36556723022477
 30
0.0
 10
77.5999984741211
 20
67.69999792480485
 30
0.0
  0
SPLINE
  5
12C
330
1F
100
AcDbEntity
  8
LAYER_1
 62
   178
100
AcDbSpline
210
0.0
220
0.0
230
1.0
 70
    11
 71
     3
 72
    14
 73
    10
 74
     0
 42
0.0000000001
 43
0.0000000001
 12
1.0
 22
0.0
 32
0.0
 13
1.0
 23
0.0
 33
0.0
 40
0.0
 40
0.0
 40
0.0
 40
0.0
 40
1.0
 40
1.0
 40
1.0
 40
2.0
 40
2.0
 40
2.0
 40
3.0
 40
3.0
 40
3.0
 40
3.0
 10
86.29999542236328
 20
53.69999792480485
 30
0.0
 10
86.29999542236328
 20
53.69999792480485
 30
0.0
 10
83.5
 20
53.69999792480485
 30
0.0
 10
83.5
 20
53.69999792480485
 30
0.0
 10
83.5
 20
53.69999792480485
 30
0.0
 10
85.9000015258789
 20
55.59999945068375
 30
0.0
 10
85.9000015258789
 20
55.59999945068375
 30
0.0
 10
85.99522399902344
 20
54.95923712158219
 30
0.0
 10
86.12879943847656
 20
54.32476141357438
 30
0.0
 10
86.29999542236328
 20
53.69999792480485
 30
0.0
  0
POLYLINE
  5
12D
330
1F
100
AcDbEntity
  8
LAYER_1
 62
   178
100
AcDb2dPolyline
 66
     1
 10
0.0
 20
0.0
 30
0.0
  0
VERTEX
  5
12E
330
12D
100
AcDbEntity
  8
LAYER_1
 62
   178
100
AcDbVertex
100
AcDb2dVertex
 10
81.49999237060547
 20
58.89999487304704
 30
0.0
  0
VERTEX
  5
12F
330
12D
100
AcDbEntity
  8
LAYER_1
 62
   178
100
AcDbVertex
100
AcDb2dVertex
 10
81.19998931884766
 20
55.89999487304704
 30
0.0
  0
VERTEX
  5
130
330
12D
100
AcDbEntity
  8
LAYER_1
 62
   178
100
AcDbVertex
100
AcDb2dVertex
 10
79.5999984741211
 20
54.19999792480485
 30
0.0
  0
VERTEX
  5
131
330
12D
100
AcDbEntity
  8
LAYER_1
 62
   178
100
AcDbVertex
100
AcDb2dVertex
 10
79.5999984741211
 20
56.50000097656266
 30
0.0
  0
VERTEX
  5
132
330
12D
100
AcDbEntity
  8
LAYER_1
 62
   178
100
AcDbVertex
100
AcDb2dVertex
 10
81.49999237060547
 20
58.89999487304704
 30
0.0
  0
SEQEND
  5
133
330
12D
100
AcDbEntity
  8
LAYER_1
 62
   178
  0
POLYLINE
  5
134
330
1F
100
AcDbEntity
  8
LAYER_1
 62
   178
100
AcDb2dPolyline
 66
     1
 10
0.0
 20
0.0
 30
0.0
  0
VERTEX
  5
135
330
134
100
AcDbEntity
  8
LAYER_1
 62
   178
100
AcDbVertex
100
AcDb2dVertex
 10
79.59999084472656
 20
57.69999792480485
 30
0.0
  0
VERTEX
  5
136
330
134
100
AcDbEntity
  8
LAYER_1
 62
   178
100
AcDbVertex
100
AcDb2dVertex
 10
79.59999084472656
 20
58.69999792480485
 30
0.0
  0
VERTEX
  5
137
330
134
100
AcDbEntity
  8
LAYER_1
 62
   178
100
AcDbVertex
100
AcDb2dVertex
 10
80.49999237060547
 20
58.69999792480485
 30
0.0
  0
VERTEX
  5
138
330
134
100
AcDbEntity
  8
LAYER_1
 62
   178
100
AcDbVertex
100
AcDb2dVertex
 10
79.59999084472656
 20
57.69999792480485
 30
0.0
  0
SEQEND
  5
139
330
134
100
AcDbEntity
  8
LAYER_1
 62
   178
  0
POLYLINE
  5
13A
330
1F
100
AcDbEntity
  8
LAYER_1
 62
   178
100
AcDb2dPolyline
 66
     1
 10
0.0
 20
0.0
 30
0.0
  0
VERTEX
  5
13B
330
13A
100
AcDbEntity
  8
LAYER_1
 62
   178
100
AcDbVertex
100
AcDb2dVertex
 10
80.09999084472656
 20
53.00000097656266
 30
0.0
  0
VERTEX
  5
13C
330
13A
100
AcDbEntity
  8
LAYER_1
 62
   178
100
AcDbVertex
100
AcDb2dVertex
 10
82.39999389648438
 20
53.00000097656266
 30
0.0
  0
VERTEX
  5
13D
330
13A
100
AcDbEntity
  8
LAYER_1
 62
   178
100
AcDbVertex
100
AcDb2dVertex
 10
84.79999542236328
 20
51.09999945068375
 30
0.0
  0
VERTEX
  5
13E
330
13A
100
AcDbEntity
  8
LAYER_1
 62
   178
100
AcDbVertex
100
AcDb2dVertex
 10
81.69999694824219
 20
51.40000250244157
 30
0.0
  0
VERTEX
  5
13F
330
13A
100
AcDbEntity
  8
LAYER_1
 62
   178
100
AcDbVertex
100
AcDb2dVertex
 10
80.09999084472656
 20
53.00000097656266
 30
0.0
  0
SEQEND
  5
140
330
13A
100
AcDbEntity
  8
LAYER_1
 62
   178
  0
POLYLINE
  5
141
330
1F
100
AcDbEntity
  8
LAYER_1
 62
   178
100
AcDb2dPolyline
 66
     1
 10
0.0
 20
0.0
 30
0.0
  0
VERTEX
  5
142
330
141
100
AcDbEntity
  8
LAYER_1
 62
   178
100
AcDbVertex
100
AcDb2dVertex
 10
81.49999237060547
 20
47.80000402832047
 30
0.0
  0
VERTEX
  5
143
330
141
100
AcDbEntity
  8
LAYER_1
 62
   178
100
AcDbVertex
100
AcDb2dVertex
 10
79.5999984741211
 20
50.19999792480485
 30
0.0
  0
VERTEX
  5
144
330
141
100
AcDbEntity
  8
LAYER_1
 62
   178
100
AcDbVertex
100
AcDb2dVertex
 10
79.5999984741211
 20
52.50000097656266
 30
0.0
  0
VERTEX
  5
145
330
141
100
AcDbEntity
  8
LAYER_1
 62
   178
100
AcDbVertex
100
AcDb2dVertex
 10
81.19999694824219
 20
50.90000250244157
 30
0.0
  0
VERTEX
  5
146
330
141
100
AcDbEntity
  8
LAYER_1
 62
   178
100
AcDbVertex
100
AcDb2dVertex
 10
81.49999237060547
 20
47.80000402832047
 30
0.0
  0
SEQEND
  5
147
330
141
100
AcDbEntity
  8
LAYER_1
 62
   178
  0
POLYLINE
  5
148
330
1F
100
AcDbEntity
  8
LAYER_1
 62
   178
100
AcDb2dPolyline
 66
     1
 10
0.0
 20
0.0
 30
0.0
  0
VERTEX
  5
149
330
148
100
AcDbEntity
  8
LAYER_1
 62
   178
100
AcDbVertex
100
AcDb2dVertex
 10
80.09999084472656
 20
53.70000555419938
 30
0.0
  0
VERTEX
  5
14A
330
148
100
AcDbEntity
  8
LAYER_1
 62
   178
100
AcDbVertex
100
AcDb2dVertex
 10
81.69998931884766
 20
55.30000402832047
 30
0.0
  0
VERTEX
  5
14B
330
148
100
AcDbEntity
  8
LAYER_1
 62
   178
100
AcDbVertex
100
AcDb2dVertex
 10
84.79998779296875
 20
55.70000555419938
 30
0.0
  0
VERTEX
  5
14C
330
148
100
AcDbEntity
  8
LAYER_1
 62
   178
100
AcDbVertex
100
AcDb2dVertex
 10
82.39998626708984
 20
53.70000555419938
 30
0.0
  0
VERTEX
  5
14D
330
148
100
AcDbEntity
  8
LAYER_1
 62
   178
100
AcDbVertex
100
AcDb2dVertex
 10
80.09999084472656
 20
53.70000555419938
 30
0.0
  0
SEQEND
  5
14E
330
148
100
AcDbEntity
  8
LAYER_1
 62
   178
  0
POLYLINE
  5
14F
330
1F
100
AcDbEntity
  8
LAYER_1
 62
   178
100
AcDb2dPolyline
 66
     1
 10
0.0
 20
0.0
 30
0.0
  0
VERTEX
  5
150
330
14F
100
AcDbEntity
  8
LAYER_1
 62
   178
100
AcDbVertex
100
AcDb2dVertex
 10
84.89999389648438
 20
58.50000860595719
 30
0.0
  0
VERTEX
  5
151
330
14F
100
AcDbEntity
  8
LAYER_1
 62
   178
100
AcDbVertex
100
AcDb2dVertex
 10
85.09999084472656
 20
58.50000860595719
 30
0.0
  0
VERTEX
  5
152
330
14F
100
AcDbEntity
  8
LAYER_1
 62
   178
100
AcDbVertex
100
AcDb2dVertex
 10
85.69998931884766
 20
56.50000860595719
 30
0.0
  0
VERTEX
  5
153
330
14F
100
AcDbEntity
  8
LAYER_1
 62
   178
100
AcDbVertex
100
AcDb2dVertex
 10
82.49999237060547
 20
56.20000555419938
 30
0.0
  0
VERTEX
  5
154
330
14F
100
AcDbEntity
  8
LAYER_1
 62
   178
100
AcDbVertex
100
AcDb2dVertex
 10
84.79999542236328
 20
58.50000860595719
 30
0.0
  0
VERTEX
  5
155
330
14F
100
AcDbEntity
  8
LAYER_1
 62
   178
100
AcDbVertex
100
AcDb2dVertex
 10
84.89999389648438
 20
58.50000860595719
 30
0.0
  0
SEQEND
  5
156
330
14F
100
AcDbEntity
  8
LAYER_1
 62
   178
  0
SPLINE
  5
157
330
1F
100
AcDbEntity
  8
LAYER_1
 62
   178
100
AcDbSpline
210
0.0
220
0.0
230
1.0
 70
    11
 71
     3
 72
    32
 73
    28
 74
     0
 42
0.0000000001
 43
0.0000000001
 12
1.0
 22
0.0
 32
0.0
 13
1.0
 23
0.0
 33
0.0
 40
0.0
 40
0.0
 40
0.0
 40
0.0
 40
1.0
 40
1.0
 40
1.0
 40
2.0
 40
2.0
 40
2.0
 40
3.0
 40
3.0
 40
3.0
 40
4.0
 40
4.0
 40
4.0
 40
5.0
 40
5.0
 40
5.0
 40
6.0
 40
6.0
 40
6.0
 40
7.0
 40
7.0
 40
7.0
 40
8.0
 40
8.0
 40
8.0
 40
9.0
 40
9.0
 40
9.0
 40
9.0
 10
83.39999389648438
 20
62.9000101318361
 30
0.0
 10
83.9027099609375
 20
61.90943243408219
 30
0.0
 10
84.30472564697266
 20
60.87088873291032
 30
0.0
 10
84.59999084472656
 20
59.800011657715
 30
0.0
 10
84.59999084472656
 20
59.800011657715
 30
0.0
 10
84.49999237060547
 20
59.800011657715
 30
0.0
 10
84.49999237060547
 20
59.800011657715
 30
0.0
 10
84.33211517333984
 20
59.56936743164079
 30
0.0
 10
84.26040649414062
 20
59.28252508544938
 30
0.0
 10
84.29999542236328
 20
59.00000860595719
 30
0.0
 10
84.29999542236328
 20
59.00000860595719
 30
0.0
 10
82.0
 20
56.69999792480485
 30
0.0
 10
82.0
 20
56.69999792480485
 30
0.0
 10
82.0
 20
56.69999792480485
 30
0.0
 10
82.4000015258789
 20
60.00000097656266
 30
0.0
 10
82.4000015258789
 20
60.00000097656266
 30
0.0
 10
82.4000015258789
 20
60.09999945068375
 30
0.0
 10
82.30000305175781
 20
60.30000402832047
 30
0.0
 10
82.20000457763672
 20
60.30000402832047
 30
0.0
 10
82.20000457763672
 20
60.30000402832047
 30
0.0
 10
82.80000305175781
 20
61.50000097656266
 30
0.0
 10
82.80000305175781
 20
61.50000097656266
 30
0.0
 10
83.03601837158203
 20
61.95039465332047
 30
0.0
 10
83.23662567138672
 20
62.41847326660172
 30
0.0
 10
83.4000015258789
 20
62.8999986877443
 30
0.0
 10
83.4000015258789
 20
62.8999986877443
 30
0.0
 10
83.39999389648438
 20
62.9000101318361
 30
0.0
 10
83.39999389648438
 20
62.9000101318361
 30
0.0
  0
SPLINE
  5
158
330
1F
100
AcDbEntity
  8
LAYER_1
 62
   178
100
AcDbSpline
210
0.0
220
0.0
230
1.0
 70
    11
 71
     3
 72
    35
 73
    31
 74
     0
 42
0.0000000001
 43
0.0000000001
 12
1.0
 22
0.0
 32
0.0
 13
1.0
 23
0.0
 33
0.0
 40
0.0
 40
0.0
 40
0.0
 40
0.0
 40
1.0
 40
1.0
 40
1.0
 40
2.0
 40
2.0
 40
2.0
 40
3.0
 40
3.0
 40
3.0
 40
4.0
 40
4.0
 40
4.0
 40
5.0
 40
5.0
 40
5.0
 40
6.0
 40
6.0
 40
6.0
 40
7.0
 40
7.0
 40
7.0
 40
8.0
 40
8.0
 40
8.0
 40
9.0
 40
9.0
 40
9.0
 40
10.0
 40
10.0
 40
10.0
 40
10.0
 10
79.59999084472656
 20
63.60001089477555
 30
0.0
 10
79.69998931884766
 20
64.4000101318361
 30
0.0
 10
80.09999084472656
 20
65.9000101318361
 30
0.0
 10
80.59999084472656
 20
68.20000936889664
 30
0.0
 10
81.29998779296875
 20
67.00000860595719
 30
0.0
 10
81.99999237060547
 20
65.80000784301774
 30
0.0
 10
82.59999084472656
 20
64.50000860595719
 30
0.0
 10
82.26841735839844
 20
63.58609106445329
 30
0.0
 10
81.8321762084961
 20
62.71362020874039
 30
0.0
 10
81.29998779296875
 20
61.9000101318361
 30
0.0
 10
80.69998931884766
 20
61.00000860595719
 30
0.0
 10
80.29998779296875
 20
60.50000860595719
 30
0.0
 10
79.99998474121094
 20
60.50000860595719
 30
0.0
 10
79.84260559082031
 20
60.50000860595719
 30
0.0
 10
79.69441223144531
 20
60.57410528564469
 30
0.0
 10
79.59998321533203
 20
60.70000555419938
 30
0.0
 10
79.59998321533203
 20
60.70000555419938
 30
0.0
 10
79.59998321533203
 20
61.00000860595719
 30
0.0
 10
79.59998321533203
 20
61.00000860595719
 30
0.0
 10
79.84973907470703
 20
61.14418890380875
 30
0.0
 10
80.0025634765625
 20
61.41162969970719
 30
0.0
 10
79.99998474121094
 20
61.70000555419938
 30
0.0
 10
79.99998474121094
 20
61.70000555419938
 30
0.0
 10
79.39998626708984
 20
61.70000555419938
 30
0.0
 10
79.39998626708984
 20
61.70000555419938
 30
0.0
 10
79.42362213134766
 20
62.33712866210954
 30
0.0
 10
79.49044799804688
 20
62.97191717529313
 30
0.0
 10
79.5999984741211
 20
63.59999945068375
 30
0.0
 10
79.5999984741211
 20
63.59999945068375
 30
0.0
 10
79.59999084472656
 20
63.60001089477555
 30
0.0
 10
79.59999084472656
 20
63.60001089477555
 30
0.0
  0
SPLINE
  5
159
330
1F
100
AcDbEntity
  8
LAYER_1
 62
   178
100
AcDbSpline
210
0.0
220
0.0
230
1.0
 70
    11
 71
     3
 72
   293
 73
   289
 74
     0
 42
0.0000000001
 43
0.0000000001
 12
1.0
 22
0.0
 32
0.0
 13
1.0
 23
0.0
 33
0.0
 40
0.0
 40
0.0
 40
0.0
 40
0.0
 40
1.0
 40
1.0
 40
1.0
 40
2.0
 40
2.0
 40
2.0
 40
3.0
 40
3.0
 40
3.0
 40
4.0
 40
4.0
 40
4.0
 40
5.0
 40
5.0
 40
5.0
 40
6.0
 40
6.0
 40
6.0
 40
7.0
 40
7.0
 40
7.0
 40
8.0
 40
8.0
 40
8.0
 40
9.0
 40
9.0
 40
9.0
 40
10.0
 40
10.0
 40
10.0
 40
11.0
 40
11.0
 40
11.0
 40
12.0
 40
12.0
 40
12.0
 40
13.0
 40
13.0
 40
13.0
 40
14.0
 40
14.0
 40
14.0
 40
15.0
 40
15.0
 40
15.0
 40
16.0
 40
16.0
 40
16.0
 40
17.0
 40
17.0
 40
17.0
 40
18.0
 40
18.0
 40
18.0
 40
19.0
 40
19.0
 40
19.0
 40
20.0
 40
20.0
 40
20.0
 40
21.0
 40
21.0
 40
21.0
 40
22.0
 40
22.0
 40
22.0
 40
23.0
 40
23.0
 40
23.0
 40
24.0
 40
24.0
 40
24.0
 40
25.0
 40
25.0
 40
25.0
 40
26.0
 40
26.0
 40
26.0
 40
27.0
 40
27.0
 40
27.0
 40
28.0
 40
28.0
 40
28.0
 40
29.0
 40
29.0
 40
29.0
 40
30.0
 40
30.0
 40
30.0
 40
31.0
 40
31.0
 40
31.0
 40
32.0
 40
32.0
 40
32.0
 40
33.0
 40
33.0
 40
33.0
 40
34.0
 40
34.0
 40
34.0
 40
35.0
 40
35.0
 40
35.0
 40
36.0
 40
36.0
 40
36.0
 40
37.0
 40
37.0
 40
37.0
 40
38.0
 40
38.0
 40
38.0
 40
39.0
 40
39.0
 40
39.0
 40
40.0
 40
40.0
 40
40.0
 40
41.0
 40
41.0
 40
41.0
 40
42.0
 40
42.0
 40
42.0
 40
43.0
 40
43.0
 40
43.0
 40
44.0
 40
44.0
 40
44.0
 40
45.0
 40
45.0
 40
45.0
 40
46.0
 40
46.0
 40
46.0
 40
47.0
 40
47.0
 40
47.0
 40
48.0
 40
48.0
 40
48.0
 40
49.0
 40
49.0
 40
49.0
 40
50.0
 40
50.0
 40
50.0
 40
51.0
 40
51.0
 40
51.0
 40
52.0
 40
52.0
 40
52.0
 40
53.0
 40
53.0
 40
53.0
 40
54.0
 40
54.0
 40
54.0
 40
55.0
 40
55.0
 40
55.0
 40
56.0
 40
56.0
 40
56.0
 40
57.0
 40
57.0
 40
57.0
 40
58.0
 40
58.0
 40
58.0
 40
59.0
 40
59.0
 40
59.0
 40
60.0
 40
60.0
 40
60.0
 40
61.0
 40
61.0
 40
61.0
 40
62.0
 40
62.0
 40
62.0
 40
63.0
 40
63.0
 40
63.0
 40
64.0
 40
64.0
 40
64.0
 40
65.0
 40
65.0
 40
65.0
 40
66.0
 40
66.0
 40
66.0
 40
67.0
 40
67.0
 40
67.0
 40
68.0
 40
68.0
 40
68.0
 40
69.0
 40
69.0
 40
69.0
 40
70.0
 40
70.0
 40
70.0
 40
71.0
 40
71.0
 40
71.0
 40
72.0
 40
72.0
 40
72.0
 40
73.0
 40
73.0
 40
73.0
 40
74.0
 40
74.0
 40
74.0
 40
75.0
 40
75.0
 40
75.0
 40
76.0
 40
76.0
 40
76.0
 40
77.0
 40
77.0
 40
77.0
 40
78.0
 40
78.0
 40
78.0
 40
79.0
 40
79.0
 40
79.0
 40
80.0
 40
80.0
 40
80.0
 40
81.0
 40
81.0
 40
81.0
 40
82.0
 40
82.0
 40
82.0
 40
83.0
 40
83.0
 40
83.0
 40
84.0
 40
84.0
 40
84.0
 40
85.0
 40
85.0
 40
85.0
 40
86.0
 40
86.0
 40
86.0
 40
87.0
 40
87.0
 40
87.0
 40
88.0
 40
88.0
 40
88.0
 40
89.0
 40
89.0
 40
89.0
 40
90.0
 40
90.0
 40
90.0
 40
91.0
 40
91.0
 40
91.0
 40
92.0
 40
92.0
 40
92.0
 40
93.0
 40
93.0
 40
93.0
 40
94.0
 40
94.0
 40
94.0
 40
95.0
 40
95.0
 40
95.0
 40
96.0
 40
96.0
 40
96.0
 40
96.0
 10
80.0
 20
45.09999945068375
 30
0.0
 10
79.9708023071289
 20
45.37912084960954
 30
0.0
 10
79.82565307617188
 20
45.63313391113297
 30
0.0
 10
79.5999984741211
 20
45.79999639892594
 30
0.0
 10
79.5999984741211
 20
45.79999639892594
 30
0.0
 10
79.5999984741211
 20
49.00000097656266
 30
0.0
 10
79.5999984741211
 20
49.00000097656266
 30
0.0
 10
79.5999984741211
 20
49.00000097656266
 30
0.0
 10
81.69999694824219
 20
46.50000097656266
 30
0.0
 10
81.69999694824219
 20
46.50000097656266
 30
0.0
 10
81.6723861694336
 20
46.38954260253922
 30
0.0
 10
81.73954010009766
 20
46.27761175537125
 30
0.0
 10
81.8499984741211
 20
46.25000097656266
 30
0.0
 10
81.96045684814453
 20
46.22239019775407
 30
0.0
 10
82.0723876953125
 20
46.28954412841813
 30
0.0
 10
82.0999984741211
 20
46.40000250244157
 30
0.0
 10
82.0999984741211
 20
46.40000250244157
 30
0.0
 10
82.0999984741211
 20
46.40000250244157
 30
0.0
 10
82.0999984741211
 20
46.40000250244157
 30
0.0
 10
82.26568603515625
 20
46.40000250244157
 30
0.0
 10
82.4000015258789
 20
46.53431036376969
 30
0.0
 10
82.4000015258789
 20
46.69999792480485
 30
0.0
 10
82.4000015258789
 20
46.69999792480485
 30
0.0
 10
82.4000015258789
 20
46.70000555419938
 30
0.0
 10
82.4000015258789
 20
46.70000555419938
 30
0.0
 10
82.4000015258789
 20
46.70000555419938
 30
0.0
 10
82.0
 20
50.09999945068375
 30
0.0
 10
82.0
 20
50.09999945068375
 30
0.0
 10
82.0
 20
50.09999945068375
 30
0.0
 10
84.30000305175781
 20
47.69999792480485
 30
0.0
 10
84.30000305175781
 20
47.69999792480485
 30
0.0
 10
84.30000305175781
 20
47.69999792480485
 30
0.0
 10
84.30000305175781
 20
47.69999792480485
 30
0.0
 10
84.30000305175781
 20
47.69999792480485
 30
0.0
 10
84.27808380126953
 20
47.41869451904313
 30
0.0
 10
84.34828186035156
 20
47.13789465332047
 30
0.0
 10
84.5
 20
46.89999487304704
 30
0.0
 10
84.80850219726562
 20
46.60792639160172
 30
0.0
 10
85.29149627685547
 20
46.60792639160172
 30
0.0
 10
85.5999984741211
 20
46.89999487304704
 30
0.0
 10
85.90557098388672
 20
47.24163153076188
 30
0.0
 10
85.90557098388672
 20
47.75835516357438
 30
0.0
 10
85.5999984741211
 20
48.09999182128922
 30
0.0
 10
85.41317749023438
 20
48.28188421630875
 30
0.0
 10
85.13027954101562
 20
48.32229711914079
 30
0.0
 10
84.9000015258789
 20
48.19999029541032
 30
0.0
 10
84.9000015258789
 20
48.19999029541032
 30
0.0
 10
84.80000305175781
 20
48.19999029541032
 30
0.0
 10
84.80000305175781
 20
48.19999029541032
 30
0.0
 10
84.80000305175781
 20
48.19999029541032
 30
0.0
 10
82.5
 20
50.59999182128922
 30
0.0
 10
82.5
 20
50.59999182128922
 30
0.0
 10
82.5
 20
50.59999182128922
 30
0.0
 10
85.80000305175781
 20
50.19999029541032
 30
0.0
 10
85.80000305175781
 20
50.19999029541032
 30
0.0
 10
86.0
 20
50.19999029541032
 30
0.0
 10
86.20000457763672
 20
50.29998876953141
 30
0.0
 10
86.20000457763672
 20
50.49999334716813
 30
0.0
 10
86.20000457763672
 20
50.49999334716813
 30
0.0
 10
86.20000457763672
 20
50.49999334716813
 30
0.0
 10
86.20000457763672
 20
50.49999334716813
 30
0.0
 10
86.31046295166016
 20
50.52760412597672
 30
0.0
 10
86.37761688232422
 20
50.63953497314469
 30
0.0
 10
86.35000610351562
 20
50.74999334716813
 30
0.0
 10
86.32239532470703
 20
50.86045172119157
 30
0.0
 10
86.21046447753906
 20
50.92760565185563
 30
0.0
 10
86.10000610351562
 20
50.89999487304704
 30
0.0
 10
86.10000610351562
 20
50.89999487304704
 30
0.0
 10
83.50000762939453
 20
52.99999334716813
 30
0.0
 10
83.50000762939453
 20
52.99999334716813
 30
0.0
 10
83.50000762939453
 20
52.99999334716813
 30
0.0
 10
86.40000915527344
 20
52.99999334716813
 30
0.0
 10
86.40000915527344
 20
52.99999334716813
 30
0.0
 10
86.71554565429688
 20
50.81381323242204
 30
0.0
 10
86.88259887695312
 20
48.60876562500016
 30
0.0
 10
86.90000915527344
 20
46.39999487304704
 30
0.0
 10
86.91045379638672
 20
35.33591558837907
 30
0.0
 10
82.39395141601562
 20
24.749230407715
 30
0.0
 10
74.40000915527344
 20
17.09999182128922
 30
0.0
 10
62.10000991821289
 20
28.69999029541032
 30
0.0
 10
62.10000991821289
 20
28.69999029541032
 30
0.0
 10
62.30001068115234
 20
30.09999182128922
 30
0.0
 10
62.49025726318359
 20
30.95694067382829
 30
0.0
 10
62.62388229370117
 20
31.82548620605485
 30
0.0
 10
62.70001220703125
 20
32.69999029541032
 30
0.0
 10
63.76952743530273
 20
33.41347601318375
 30
0.0
 10
64.90869903564453
 20
34.01657202148454
 30
0.0
 10
66.10001373291016
 20
34.49999334716813
 30
0.0
 10
66.10001373291016
 20
34.49999334716813
 30
0.0
 10
66.40001678466797
 20
34.59999182128922
 30
0.0
 10
70.50001525878906
 20
31.69999029541032
 30
0.0
 10
70.50001525878906
 20
31.69999029541032
 30
0.0
 10
71.70001220703125
 20
34.8999872436525
 30
0.0
 10
71.70001220703125
 20
34.8999872436525
 30
0.0
 10
67.80001068115234
 20
35.29998876953141
 30
0.0
 10
68.10001373291016
 20
35.3999872436525
 30
0.0
 10
68.10001373291016
 20
35.3999872436525
 30
0.0
 10
70.00001525878906
 20
36.4999857177736
 30
0.0
 10
71.50001525878906
 20
37.4999857177736
 30
0.0
 10
70.80001068115234
 20
38.19999029541032
 30
0.0
 10
70.10000610351562
 20
38.89999487304704
 30
0.0
 10
69.90000915527344
 20
39.09999182128922
 30
0.0
 10
67.60001373291016
 20
38.09999182128922
 30
0.0
 10
67.60001373291016
 20
38.09999182128922
 30
0.0
 10
65.40001678466797
 20
36.99999334716813
 30
0.0
 10
65.40001678466797
 20
36.99999334716813
 30
0.0
 10
65.00001525878906
 20
40.39999487304704
 30
0.0
 10
63.50001525878906
 20
39.89999487304704
 30
0.0
 10
63.50001525878906
 20
39.89999487304704
 30
0.0
 10
61.90001678466797
 20
39.49999334716813
 30
0.0
 10
64.50001525878906
 20
36.39999487304704
 30
0.0
 10
64.30001831054688
 20
36.29999639892594
 30
0.0
 10
64.30001831054688
 20
36.29999639892594
 30
0.0
 10
62.50001907348633
 20
35.29999639892594
 30
0.0
 10
62.50001907348633
 20
35.29999639892594
 30
0.0
 10
62.44959259033203
 20
35.9072122802736
 30
0.0
 10
62.3492546081543
 20
36.50924780273454
 30
0.0
 10
62.20001983642578
 20
37.09999945068375
 30
0.0
 10
61.44223403930664
 20
38.21938421630875
 30
0.0
 10
60.53367233276367
 20
39.22889807128922
 30
0.0
 10
59.50001907348633
 20
40.09999945068375
 30
0.0
 10
61.90002059936523
 20
43.00000097656266
 30
0.0
 10
61.80001831054688
 20
45.50000097656266
 30
0.0
 10
59.50001907348633
 20
47.90000250244157
 30
0.0
 10
59.50001907348633
 20
47.90000250244157
 30
0.0
 10
59.50001907348633
 20
48.40000250244157
 30
0.0
 10
62.80001831054688
 20
47.30000402832047
 30
0.0
 10
62.80001831054688
 20
47.30000402832047
 30
0.0
 10
62.80001831054688
 20
51.00000097656266
 30
0.0
 10
62.80001831054688
 20
51.00000097656266
 30
0.0
 10
58.10001754760742
 20
50.50000097656266
 30
0.0
 10
58.10001754760742
 20
51.09999945068375
 30
0.0
 10
58.10001754760742
 20
51.09999945068375
 30
0.0
 10
59.90001678466797
 20
54.50000097656266
 30
0.0
 10
61.10001754760742
 20
56.50000097656266
 30
0.0
 10
60.60001754760742
 20
57.59999945068375
 30
0.0
 10
60.10001754760742
 20
58.69999792480485
 30
0.0
 10
60.10001754760742
 20
58.79999639892594
 30
0.0
 10
57.80001831054688
 20
58.90000250244157
 30
0.0
 10
57.80001831054688
 20
58.90000250244157
 30
0.0
 10
58.10001754760742
 20
59.09999945068375
 30
0.0
 10
58.10001754760742
 20
59.09999945068375
 30
0.0
 10
59.01704025268555
 20
59.86023046875016
 30
0.0
 10
59.79524230957031
 20
60.77377416992204
 30
0.0
 10
60.40001678466797
 20
61.79999639892594
 30
0.0
 10
60.91399002075195
 20
61.30961706542985
 30
0.0
 10
61.5900764465332
 20
61.02494909667985
 30
0.0
 10
62.30001831054688
 20
60.99999334716813
 30
0.0
 10
62.85577011108398
 20
61.08803656005875
 30
0.0
 10
63.37555694580078
 20
61.33060552978532
 30
0.0
 10
63.80001831054688
 20
61.69999029541032
 30
0.0
 10
63.80001831054688
 20
61.69999029541032
 30
0.0
 10
63.80001831054688
 20
60.8999872436525
 30
0.0
 10
63.80001831054688
 20
60.8999872436525
 30
0.0
 10
63.97134017944336
 20
60.19379522705094
 30
0.0
 10
64.31490325927734
 20
59.54102423095719
 30
0.0
 10
64.80001831054688
 20
58.9999857177736
 30
0.0
 10
65.24473571777344
 20
58.54047491455094
 30
0.0
 10
65.86067962646484
 20
58.2868509521486
 30
0.0
 10
66.50001525878906
 20
58.29998876953141
 30
0.0
 10
66.50001525878906
 20
58.29998876953141
 30
0.0
 10
67.70001220703125
 20
58.4999857177736
 30
0.0
 10
67.70001220703125
 20
58.4999857177736
 30
0.0
 10
68.06295776367188
 20
58.68785955810563
 30
0.0
 10
68.39925384521484
 20
58.92326452636735
 30
0.0
 10
68.70001220703125
 20
59.19998266601579
 30
0.0
 10
69.25806427001953
 20
59.73830511474625
 30
0.0
 10
69.70042419433594
 20
60.38482000732438
 30
0.0
 10
70.00001525878906
 20
61.09998419189469
 30
0.0
 10
70.00001525878906
 20
61.09998419189469
 30
0.0
 10
70.30001831054688
 20
61.79998114013688
 30
0.0
 10
70.30001831054688
 20
61.79998114013688
 30
0.0
 10
70.48147583007812
 20
60.95774176025407
 30
0.0
 10
70.85826873779297
 20
60.1699075927736
 30
0.0
 10
71.40001678466797
 20
59.49997808837907
 30
0.0
 10
71.76578521728516
 20
58.95315649414079
 30
0.0
 10
72.34821319580078
 20
58.58914282226579
 30
0.0
 10
73.00001525878906
 20
58.49997808837907
 30
0.0
 10
73.00001525878906
 20
58.49997808837907
 30
0.0
 10
73.50001525878906
 20
58.49997808837907
 30
0.0
 10
73.50001525878906
 20
58.49997808837907
 30
0.0
 10
73.50001525878906
 20
58.49997808837907
 30
0.0
 10
75.9000015258789
 20
56.19999792480485
 30
0.0
 10
75.9000015258789
 20
56.19999792480485
 30
0.0
 10
75.9000015258789
 20
56.19999792480485
 30
0.0
 10
72.5999984741211
 20
56.50000097656266
 30
0.0
 10
72.5999984741211
 20
56.50000097656266
 30
0.0
 10
72.5999984741211
 20
56.50000097656266
 30
0.0
 10
72.19999694824219
 20
56.30000402832047
 30
0.0
 10
72.19999694824219
 20
56.30000402832047
 30
0.0
 10
72.19999694824219
 20
56.30000402832047
 30
0.0
 10
72.19999694824219
 20
56.30000402832047
 30
0.0
 10
72.19999694824219
 20
56.30000402832047
 30
0.0
 10
72.10901641845703
 20
56.13093664550797
 30
0.0
 10
72.15098571777344
 20
55.92107489013688
 30
0.0
 10
72.29999542236328
 20
55.80000402832047
 30
0.0
 10
72.29999542236328
 20
55.80000402832047
 30
0.0
 10
74.89999389648438
 20
53.70000555419938
 30
0.0
 10
74.89999389648438
 20
53.70000555419938
 30
0.0
 10
74.89999389648438
 20
53.70000555419938
 30
0.0
 10
71.5999984741211
 20
53.70000555419938
 30
0.0
 10
71.5999984741211
 20
53.70000555419938
 30
0.0
 10
71.47457885742188
 20
53.96781256103532
 30
0.0
 10
71.19440460205078
 20
54.1279154052736
 30
0.0
 10
70.9000015258789
 20
54.10000708007829
 30
0.0
 10
70.49445343017578
 20
54.10318853759782
 30
0.0
 10
70.15068054199219
 20
53.80239202880875
 30
0.0
 10
70.0999984741211
 20
53.4000101318361
 30
0.0
 10
70.0999984741211
 20
52.95818426513688
 30
0.0
 10
70.45816802978516
 20
52.60000708007829
 30
0.0
 10
70.89999389648438
 20
52.60000708007829
 30
0.0
 10
70.89999389648438
 20
52.60000708007829
 30
0.0
 10
70.9000015258789
 20
52.60000708007829
 30
0.0
 10
70.9000015258789
 20
52.60000708007829
 30
0.0
 10
71.1883773803711
 20
52.59742834472672
 30
0.0
 10
71.45581817626953
 20
52.75025274658219
 30
0.0
 10
71.5999984741211
 20
53.00000860595719
 30
0.0
 10
71.5999984741211
 20
53.00000860595719
 30
0.0
 10
74.9000015258789
 20
53.00000860595719
 30
0.0
 10
74.9000015258789
 20
53.00000860595719
 30
0.0
 10
74.9000015258789
 20
53.00000860595719
 30
0.0
 10
72.30000305175781
 20
50.9000101318361
 30
0.0
 10
72.30000305175781
 20
50.9000101318361
 30
0.0
 10
72.20000457763672
 20
50.800011657715
 30
0.0
 10
72.10000610351562
 20
50.60000708007829
 30
0.0
 10
72.20000457763672
 20
50.50000860595719
 30
0.0
 10
72.20000457763672
 20
50.50000860595719
 30
0.0
 10
72.20000457763672
 20
50.50000860595719
 30
0.0
 10
72.20000457763672
 20
50.50000860595719
 30
0.0
 10
72.30000305175781
 20
50.300011657715
 30
0.0
 10
72.4000015258789
 20
50.20000555419938
 30
0.0
 10
72.60000610351562
 20
50.20000555419938
 30
0.0
 10
72.60000610351562
 20
50.20000555419938
 30
0.0
 10
75.90000915527344
 20
50.60000708007829
 30
0.0
 10
75.90000915527344
 20
50.60000708007829
 30
0.0
 10
75.90000915527344
 20
50.60000708007829
 30
0.0
 10
73.5999984741211
 20
48.19999792480485
 30
0.0
 10
73.5999984741211
 20
48.19999792480485
 30
0.0
 10
73.5999984741211
 20
48.19999792480485
 30
0.0
 10
73.5999984741211
 20
48.19999792480485
 30
0.0
 10
73.5999984741211
 20
48.19999792480485
 30
0.0
 10
73.33480072021484
 20
48.31329443359391
 30
0.0
 10
73.02914428710938
 20
48.27508642578141
 30
0.0
 10
72.79999542236328
 20
48.09999945068375
 30
0.0
 10
72.49442291259766
 20
47.75836279296891
 30
0.0
 10
72.49442291259766
 20
47.24163916015641
 30
0.0
 10
72.79999542236328
 20
46.90000250244157
 30
0.0
 10
73.1084976196289
 20
46.60793402099625
 30
0.0
 10
73.59149169921875
 20
46.60793402099625
 30
0.0
 10
73.89999389648438
 20
46.90000250244157
 30
0.0
 10
74.09209442138672
 20
47.11864569091813
 30
0.0
 10
74.1666030883789
 20
47.41668798828141
 30
0.0
 10
74.09999084472656
 20
47.70000555419938
 30
0.0
 10
74.09999084472656
 20
47.70000555419938
 30
0.0
 10
76.39999389648438
 20
50.10000708007829
 30
0.0
 10
76.39999389648438
 20
50.10000708007829
 30
0.0
 10
76.39999389648438
 20
50.10000708007829
 30
0.0
 10
76.09999084472656
 20
46.70000555419938
 30
0.0
 10
76.09999084472656
 20
46.70000555419938
 30
0.0
 10
76.09999084472656
 20
46.60000708007829
 30
0.0
 10
76.19998931884766
 20
46.40000250244157
 30
0.0
 10
76.29998779296875
 20
46.40000250244157
 30
0.0
 10
76.29998779296875
 20
46.40000250244157
 30
0.0
 10
76.29998779296875
 20
46.40000250244157
 30
0.0
 10
76.29998779296875
 20
46.40000250244157
 30
0.0
 10
76.49998474121094
 20
46.30000402832047
 30
0.0
 10
76.69998931884766
 20
46.30000402832047
 30
0.0
 10
76.79998779296875
 20
46.50000097656266
 30
0.0
 10
76.79998779296875
 20
46.50000097656266
 30
0.0
 10
78.89998626708984
 20
49.00000097656266
 30
0.0
 10
78.89998626708984
 20
49.00000097656266
 30
0.0
 10
78.89998626708984
 20
49.00000097656266
 30
0.0
 10
78.89998626708984
 20
45.80000402832047
 30
0.0
 10
78.89998626708984
 20
45.80000402832047
 30
0.0
 10
78.59998321533203
 20
45.60000708007829
 30
0.0
 10
78.39998626708984
 20
45.40000250244157
 30
0.0
 10
78.39998626708984
 20
45.10000708007829
 30
0.0
 10
78.39998626708984
 20
44.65818121337907
 30
0.0
 10
78.7581558227539
 20
44.30000402832047
 30
0.0
 10
79.19998168945312
 20
44.30000402832047
 30
0.0
 10
79.19998168945312
 20
44.30000402832047
 30
0.0
 10
79.19998931884766
 20
44.30000402832047
 30
0.0
 10
79.19998931884766
 20
44.30000402832047
 30
0.0
 10
79.58191680908203
 20
44.2400980224611
 30
0.0
 10
79.94009399414062
 20
44.50116064453141
 30
0.0
 10
80.0
 20
44.88308813476579
 30
0.0
 10
80.01126861572266
 20
44.95494940185563
 30
0.0
 10
80.01126861572266
 20
45.02813818359391
 30
0.0
 10
80.0
 20
45.09999945068375
 30
0.0
  0
POLYLINE
  5
15A
330
1F
100
AcDbEntity
  8
LAYER_1
 62
   178
100
AcDb2dPolyline
 66
     1
 10
0.0
 20
0.0
 30
0.0
  0
VERTEX
  5
15B
330
15A
100
AcDbEntity
  8
LAYER_1
 62
   178
100
AcDbVertex
100
AcDb2dVertex
 10
77.19999694824219
 20
50.90000250244157
 30
0.0
  0
VERTEX
  5
15C
330
15A
100
AcDbEntity
  8
LAYER_1
 62
   178
100
AcDbVertex
100
AcDb2dVertex
 10
78.89999389648438
 20
52.50000097656266
 30
0.0
  0
VERTEX
  5
15D
330
15A
100
AcDbEntity
  8
LAYER_1
 62
   178
100
AcDbVertex
100
AcDb2dVertex
 10
78.89999389648438
 20
50.19999792480485
 30
0.0
  0
VERTEX
  5
15E
330
15A
100
AcDbEntity
  8
LAYER_1
 62
   178
100
AcDbVertex
100
AcDb2dVertex
 10
76.89999389648438
 20
47.79999639892594
 30
0.0
  0
VERTEX
  5
15F
330
15A
100
AcDbEntity
  8
LAYER_1
 62
   178
100
AcDbVertex
100
AcDb2dVertex
 10
77.19999694824219
 20
50.90000250244157
 30
0.0
  0
SEQEND
  5
160
330
15A
100
AcDbEntity
  8
LAYER_1
 62
   178
  0
POLYLINE
  5
161
330
1F
100
AcDbEntity
  8
LAYER_1
 62
   178
100
AcDb2dPolyline
 66
     1
 10
0.0
 20
0.0
 30
0.0
  0
VERTEX
  5
162
330
161
100
AcDbEntity
  8
LAYER_1
 62
   178
100
AcDbVertex
100
AcDb2dVertex
 10
76.69999694824219
 20
51.40000250244157
 30
0.0
  0
VERTEX
  5
163
330
161
100
AcDbEntity
  8
LAYER_1
 62
   178
100
AcDbVertex
100
AcDb2dVertex
 10
73.69999694824219
 20
51.09999945068375
 30
0.0
  0
VERTEX
  5
164
330
161
100
AcDbEntity
  8
LAYER_1
 62
   178
100
AcDbVertex
100
AcDb2dVertex
 10
76.0999984741211
 20
53.00000097656266
 30
0.0
  0
VERTEX
  5
165
330
161
100
AcDbEntity
  8
LAYER_1
 62
   178
100
AcDbVertex
100
AcDb2dVertex
 10
78.29999542236328
 20
53.00000097656266
 30
0.0
  0
VERTEX
  5
166
330
161
100
AcDbEntity
  8
LAYER_1
 62
   178
100
AcDbVertex
100
AcDb2dVertex
 10
76.69999694824219
 20
51.40000250244157
 30
0.0
  0
SEQEND
  5
167
330
161
100
AcDbEntity
  8
LAYER_1
 62
   178
  0
POLYLINE
  5
168
330
1F
100
AcDbEntity
  8
LAYER_1
 62
   178
100
AcDb2dPolyline
 66
     1
 10
0.0
 20
0.0
 30
0.0
  0
VERTEX
  5
169
330
168
100
AcDbEntity
  8
LAYER_1
 62
   178
100
AcDbVertex
100
AcDb2dVertex
 10
78.29999542236328
 20
53.70000555419938
 30
0.0
  0
VERTEX
  5
16A
330
168
100
AcDbEntity
  8
LAYER_1
 62
   178
100
AcDbVertex
100
AcDb2dVertex
 10
76.0999984741211
 20
53.70000555419938
 30
0.0
  0
VERTEX
  5
16B
330
168
100
AcDbEntity
  8
LAYER_1
 62
   178
100
AcDbVertex
100
AcDb2dVertex
 10
73.69999694824219
 20
55.70000555419938
 30
0.0
  0
VERTEX
  5
16C
330
168
100
AcDbEntity
  8
LAYER_1
 62
   178
100
AcDbVertex
100
AcDb2dVertex
 10
76.69999694824219
 20
55.30000402832047
 30
0.0
  0
VERTEX
  5
16D
330
168
100
AcDbEntity
  8
LAYER_1
 62
   178
100
AcDbVertex
100
AcDb2dVertex
 10
78.29999542236328
 20
53.70000555419938
 30
0.0
  0
SEQEND
  5
16E
330
168
100
AcDbEntity
  8
LAYER_1
 62
   178
  0
POLYLINE
  5
16F
330
1F
100
AcDbEntity
  8
LAYER_1
 62
   178
100
AcDb2dPolyline
 66
     1
 10
0.0
 20
0.0
 30
0.0
  0
VERTEX
  5
170
330
16F
100
AcDbEntity
  8
LAYER_1
 62
   178
100
AcDbVertex
100
AcDb2dVertex
 10
76.89999389648438
 20
58.90000250244157
 30
0.0
  0
VERTEX
  5
171
330
16F
100
AcDbEntity
  8
LAYER_1
 62
   178
100
AcDbVertex
100
AcDb2dVertex
 10
78.89999389648438
 20
56.50000097656266
 30
0.0
  0
VERTEX
  5
172
330
16F
100
AcDbEntity
  8
LAYER_1
 62
   178
100
AcDbVertex
100
AcDb2dVertex
 10
78.89999389648438
 20
54.19999792480485
 30
0.0
  0
VERTEX
  5
173
330
16F
100
AcDbEntity
  8
LAYER_1
 62
   178
100
AcDbVertex
100
AcDb2dVertex
 10
77.19999694824219
 20
55.89999487304704
 30
0.0
  0
VERTEX
  5
174
330
16F
100
AcDbEntity
  8
LAYER_1
 62
   178
100
AcDbVertex
100
AcDb2dVertex
 10
76.89999389648438
 20
58.90000250244157
 30
0.0
  0
SEQEND
  5
175
330
16F
100
AcDbEntity
  8
LAYER_1
 62
   178
  0
SPLINE
  5
176
330
1F
100
AcDbEntity
  8
LAYER_1
 62
   178
100
AcDbSpline
210
0.0
220
0.0
230
1.0
 70
    11
 71
     3
 72
    35
 73
    31
 74
     0
 42
0.0000000001
 43
0.0000000001
 12
1.0
 22
0.0
 32
0.0
 13
1.0
 23
0.0
 33
0.0
 40
0.0
 40
0.0
 40
0.0
 40
0.0
 40
1.0
 40
1.0
 40
1.0
 40
2.0
 40
2.0
 40
2.0
 40
3.0
 40
3.0
 40
3.0
 40
4.0
 40
4.0
 40
4.0
 40
5.0
 40
5.0
 40
5.0
 40
6.0
 40
6.0
 40
6.0
 40
7.0
 40
7.0
 40
7.0
 40
8.0
 40
8.0
 40
8.0
 40
9.0
 40
9.0
 40
9.0
 40
10.0
 40
10.0
 40
10.0
 40
10.0
 10
78.89999389648438
 20
57.70000555419938
 30
0.0
 10
78.89999389648438
 20
57.70000555419938
 30
0.0
 10
76.79999542236328
 20
60.30000402832047
 30
0.0
 10
76.79999542236328
 20
60.30000402832047
 30
0.0
 10
76.79999542236328
 20
60.30000402832047
 30
0.0
 10
76.29999542236328
 20
60.30000402832047
 30
0.0
 10
76.29999542236328
 20
60.30000402832047
 30
0.0
 10
76.1740951538086
 20
60.20557501220719
 30
0.0
 10
76.0999984741211
 20
60.05738165283219
 30
0.0
 10
76.0999984741211
 20
59.90000250244157
 30
0.0
 10
76.0999984741211
 20
59.90000250244157
 30
0.0
 10
76.4000015258789
 20
56.59999945068375
 30
0.0
 10
76.4000015258789
 20
56.59999945068375
 30
0.0
 10
76.4000015258789
 20
56.59999945068375
 30
0.0
 10
74.4000015258789
 20
58.59999945068375
 30
0.0
 10
74.4000015258789
 20
58.59999945068375
 30
0.0
 10
75.30000305175781
 20
58.90000250244157
 30
0.0
 10
76.0
 20
59.79999639892594
 30
0.0
 10
76.70000457763672
 20
61.19999792480485
 30
0.0
 10
76.70000457763672
 20
61.19999792480485
 30
0.0
 10
76.70000457763672
 20
61.19999792480485
 30
0.0
 10
76.70000457763672
 20
61.19999792480485
 30
0.0
 10
76.82592010498047
 20
60.5062113037111
 30
0.0
 10
77.17745971679688
 20
59.87343695068375
 30
0.0
 10
77.70000457763672
 20
59.39999487304704
 30
0.0
 10
77.99729919433594
 20
59.02355291748063
 30
0.0
 10
78.42597961425781
 20
58.77348425292985
 30
0.0
 10
78.9000015258789
 20
58.69999792480485
 30
0.0
 10
78.9000015258789
 20
58.69999792480485
 30
0.0
 10
78.89999389648438
 20
57.70000555419938
 30
0.0
 10
78.89999389648438
 20
57.70000555419938
 30
0.0
  0
ENDSEC
  0
SECTION
  2
OBJECTS
  0
DICTIONARY
  5
C
330
0
100
AcDbDictionary
  3
ACAD_GROUP
350
D
  3
ACAD_LAYOUT
350
1A
  3
ACAD_MATERIAL
350
3B
  3
ACAD_MLEADERSTYLE
350
199
  3
ACAD_MLINESTYLE
350
17
  3
ACAD_PLOTSETTINGS
350
19
  3
ACAD_VISUALSTYLE
350
2A
  3
ACDBHEADERROUNDTRIPXREC
350
177
  3
ACDBVARIABLEDICTIONARY
350
197
  0
DICTIONARY
  5
D
102
{ACAD_REACTORS
330
C
102
}
330
C
100
AcDbDictionary
  0
DICTIONARY
  5
1A
102
{ACAD_REACTORS
330
C
102
}
330
C
100
AcDbDictionary
  0
DICTIONARY
  5
3B
102
{ACAD_REACTORS
330
C
102
}
330
C
100
AcDbDictionary
  3
BYBLOCK
350
3D
  3
BYLAYER
350
3C
  3
GLOBAL
350
3E
  0
DICTIONARY
  5
199
102
{ACAD_REACTORS
330
C
102
}
330
C
100
AcDbDictionary
  0
DICTIONARY
  5
17
102
{ACAD_REACTORS
330
C
102
}
330
C
100
AcDbDictionary
  3
STANDARD
350
18
  0
DICTIONARY
  5
19
102
{ACAD_REACTORS
330
C
102
}
330
C
100
AcDbDictionary
  0
DICTIONARY
  5
2A
102
{ACAD_REACTORS
330
C
102
}
330
C
100
AcDbDictionary
  3
2DWIREFRAME
350
2F
  3
3D_HIDDEN
350
31
  3
3DWIREFRAME
350
30
  3
BASIC
350
32
  3
BRIGHTEN
350
36
  3
COLORCHANGE
350
3A
  3
CONCEPTUAL
350
34
  3
DIM
350
35
  3
FACEPATTERN
350
39
  3
FLAT
350
2B
  3
FLATWITHEDGES
350
2C
  3
GOURAUD
350
2D
  3
GOURAUDWITHEDGES
350
2E
  3
LINEPATTERN
350
38
  3
REALISTIC
350
33
  3
THICKEN
350
37
  0
DICTIONARY
  5
177
102
{ACAD_REACTORS
330
C
102
}
330
C
100
AcDbDictionary
  3
CEPSNTYPE
350
180
  3
DIMSTYLEDATA
350
196
  3
FINGERPRINTGUID
350
181
  3
HYPERLINKBASE
350
17A
  3
INSUNITS
350
17F
  3
LAYOUTDICT
350
17C
  3
LWETCUNION
350
17E
  3
PLOTSETDICT
350
17D
  3
PSVPSCALE
350
183
  3
PUCSBASE
350
186
  3
PUCSORGBACK
350
18C
  3
PUCSORGBOTTOM
350
188
  3
PUCSORGFRONT
350
18B
  3
PUCSORGLEFT
350
189
  3
PUCSORGRIGHT
350
18A
  3
PUCSORGTOP
350
187
  3
PUCSORTHOREF
350
184
  3
PUCSORTHOVIEW
350
185
  3
STYLESHEET
350
17B
  3
TSTACKALIGN
350
178
  3
TSTACKSIZE
350
179
  3
UCSBASE
350
18F
  3
UCSORGBACK
350
195
  3
UCSORGBOTTOM
350
191
  3
UCSORGFRONT
350
194
  3
UCSORGLEFT
350
192
  3
UCSORGRIGHT
350
193
  3
UCSORGTOP
350
190
  3
UCSORTHOREF
350
18D
  3
UCSORTHOVIEW
350
18E
  3
VERSIONGUID
350
182
  0
DICTIONARY
  5
197
102
{ACAD_REACTORS
330
C
102
}
330
C
100
AcDbDictionary
  3
DIMASSOC
350
19A
  3
HIDETEXT
350
19B
  0
MATERIAL
  5
3D
102
{ACAD_REACTORS
330
3B
102
}
102
{ACAD_XDICTIONARY
360
19E
102
}
330
3B
100
AcDbMaterial
  1
ByBlock
  0
MATERIAL
  5
3C
102
{ACAD_REACTORS
330
3B
102
}
102
{ACAD_XDICTIONARY
360
19C
102
}
330
3B
100
AcDbMaterial
  1
ByLayer
  0
MATERIAL
  5
3E
102
{ACAD_REACTORS
330
3B
102
}
102
{ACAD_XDICTIONARY
360
1A0
102
}
330
3B
100
AcDbMaterial
  1
Global
  0
MLINESTYLE
  5
18
102
{ACAD_REACTORS
330
17
102
}
330
17
100
AcDbMlineStyle
  2
Standard
 70
     0
  3

 62
   256
 51
90.0
 52
90.0
 71
     2
 49
0.5
 62
   256
  6
BYLAYER
 49
-0.5
 62
   256
  6
BYLAYER
  0
ACAD_PROXY_OBJECT
  5
2F
102
{ACAD_REACTORS
330
2A
102
}
330
2A
100
AcDbProxyObject
 90
      499
 91
      501
 93
      436
310
42CC9915DA5C99599C985B595049028333333333333E3BF0000000000000FB0107901411070040501600405405064090741402480A0340
1001
ACAD
1000
AcDbSavedByObjectVersion
1070
     0
  0
ACAD_PROXY_OBJECT
  5
31
102
{ACAD_REACTORS
330
2A
102
}
330
2A
100
AcDbProxyObject
 90
      499
 91
      501
 93
      500
310
424CD108121A5919195B90640502408333333333333E3BF0000000000000FB01079024090700405020000000000001110200405405064090740C02480A0340
1001
ACAD
1000
AcDbSavedByObjectVersion
1070
     0
  0
ACAD_PROXY_OBJECT
  5
30
102
{ACAD_REACTORS
330
2A
102
}
330
2A
100
AcDbProxyObject
 90
      499
 91
      501
 93
      436
310
42CCD915DA5C99599C985B595059028333333333333E3BF0000000000000FB0107901411070040501600405405064090741402480A0340
1001
ACAD
1000
AcDbSavedByObjectVersion
1070
     0
  0
ACAD_PROXY_OBJECT
  5
32
102
{ACAD_REACTORS
330
2A
102
}
330
2A
100
AcDbProxyObject
 90
      499
 91
      501
 93
      388
310
4150985CDA58D07406404333333333333E3BF0000000000000FB0107A41107004050150841D405064090741402480A0350
1001
ACAD
1000
AcDbSavedByObjectVersion
1070
     0
  0
ACAD_PROXY_OBJECT
  5
36
102
{ACAD_REACTORS
330
2A
102
}
330
2A
100
AcDbProxyObject
 90
      499
 91
      501
 93
      428
310
42109C9A59DA1D195B90C409028333333333333E3BF0000000000000FB010790141107004050150841D405064090741402480A029950
1001
ACAD
1000
AcDbSavedByObjectVersion
1070
     0
  0
ACAD_PROXY_OBJECT
  5
3A
102
{ACAD_REACTORS
330
2A
102
}
330
2A
100
AcDbProxyObject
 90
      499
 91
      501
 93
      452
310
42D0DBDB1BDC90DA185B99D95104090240C333333333333E3BF0000000000000FB0108901411070040501508421405064090741402480A0350
1001
ACAD
1000
AcDbSavedByObjectVersion
1070
     0
  0
ACAD_PROXY_OBJECT
  5
34
102
{ACAD_REACTORS
330
2A
102
}
330
2A
100
AcDbProxyObject
 90
      499
 91
      501
 93
      500
310
4290DBDB98D95C1D1D585B10940D028333333333333E3BF0000000000000FB0107902409070040501000000000000111010841D405064090740C02480A0340
1001
ACAD
1000
AcDbSavedByObjectVersion
1070
     0
  0
ACAD_PROXY_OBJECT
  5
35
102
{ACAD_REACTORS
330
2A
102
}
330
2A
100
AcDbProxyObject
 90
      499
 91
      501
 93
      412
310
40D11A5B50B409028333333333333E3BF0000000000000FB010790141107004050150841D405064090741402480A02677FFFFFD0
1001
ACAD
1000
AcDbSavedByObjectVersion
1070
     0
  0
ACAD_PROXY_OBJECT
  5
39
102
{ACAD_REACTORS
330
2A
102
}
330
2A
100
AcDbProxyObject
 90
      499
 91
      501
 93
      444
310
42D19858D95C185D1D195C9B90F409028333333333333E3BF0000000000000FB010790141107004050150841D405064090741402480A0350
1001
ACAD
1000
AcDbSavedByObjectVersion
1070
     0
  0
ACAD_PROXY_OBJECT
  5
2B
102
{ACAD_REACTORS
330
2A
102
}
330
2A
100
AcDbProxyObject
 90
      499
 91
      501
 93
      388
310
41119B185D240901404333333333333E3BF0000000000000F9010740A41107004050150841D405064090741402480A1B50
1001
ACAD
1000
AcDbSavedByObjectVersion
1070
     0
  0
ACAD_PROXY_OBJECT
  5
2C
102
{ACAD_REACTORS
330
2A
102
}
330
2A
100
AcDbProxyObject
 90
      499
 91
      501
 93
      476
310
43519B185D15DA5D1A115919D95CD0140901404333333333333E3BF0000000000000F9010740901411070040501600405405064090741402480A1B50
1001
ACAD
1000
AcDbSavedByObjectVersion
1070
     0
  0
ACAD_PROXY_OBJECT
  5
2D
102
{ACAD_REACTORS
330
2A
102
}
330
2A
100
AcDbProxyObject
 90
      499
 91
      501
 93
      412
310
41D1DBDD5C985D5910240902404333333333333E3BF0000000000000F9010740A411070040501641D405064090741402480A1B50
1001
ACAD
1000
AcDbSavedByObjectVersion
1070
     0
  0
ACAD_PROXY_OBJECT
  5
2E
102
{ACAD_REACTORS
330
2A
102
}
330
2A
100
AcDbProxyObject
 90
      499
 91
      501
 93
      500
310
4411DBDD5C985D5915DA5D1A115919D95CD0340902404333333333333E3BF0000000000000F9010740901411070040501600405405064090741402480A1B50
1001
ACAD
1000
AcDbSavedByObjectVersion
1070
     0
  0
ACAD_PROXY_OBJECT
  5
38
102
{ACAD_REACTORS
330
2A
102
}
330
2A
100
AcDbProxyObject
 90
      499
 91
      501
 93
      444
310
42D31A5B995C185D1D195C9B90E409028333333333333E3BF0000000000000FB010790141107004050750841D405064090741402483A0350
1001
ACAD
1000
AcDbSavedByObjectVersion
1070
     0
  0
ACAD_PROXY_OBJECT
  5
33
102
{ACAD_REACTORS
330
2A
102
}
330
2A
100
AcDbProxyObject
 90
      499
 91
      501
 93
      420
310
425499585B1A5CDD1A58D08409028333333333333E3BF0000000000000FB01079019070040501508421405064090741402480A1B40
1001
ACAD
1000
AcDbSavedByObjectVersion
1070
     0
  0
ACAD_PROXY_OBJECT
  5
37
102
{ACAD_REACTORS
330
2A
102
}
330
2A
100
AcDbProxyObject
 90
      499
 91
      501
 93
      412
310
41D51A1A58DAD95B90D409028333333333333E3BF0000000000000FB010790141107004050150C41D405064090741402480A0350
1001
ACAD
1000
AcDbSavedByObjectVersion
1070
     0
  0
XRECORD
  5
180
102
{ACAD_REACTORS
330
177
102
}
330
177
100
AcDbXrecord
 90
        0
  0
XRECORD
  5
196
102
{ACAD_REACTORS
330
177
102
}
330
177
100
AcDbXrecord
1000
DSTYLE
1002
{
1070
   340
340
11
1002
}
  0
XRECORD
  5
181
102
{ACAD_REACTORS
330
177
102
}
330
177
100
AcDbXrecord
  1
{A0AA500A-660E-4715-B1E2-15AE5EF9E619}
  0
XRECORD
  5
17A
102
{ACAD_REACTORS
330
177
102
}
330
177
100
AcDbXrecord
  1

  0
XRECORD
  5
17F
102
{ACAD_REACTORS
330
177
102
}
330
177
100
AcDbXrecord
 90
        0
  0
XRECORD
  5
17C
102
{ACAD_REACTORS
330
177
102
}
330
177
100
AcDbXrecord
340
1A
  0
XRECORD
  5
17E
102
{ACAD_REACTORS
330
177
102
}
330
177
100
AcDbXrecord
 90
    10269
  0
XRECORD
  5
17D
102
{ACAD_REACTORS
330
177
102
}
330
177
100
AcDbXrecord
340
19
  0
XRECORD
  5
183
102
{ACAD_REACTORS
330
177
102
}
330
177
100
AcDbXrecord
 40
0.0
  0
XRECORD
  5
186
102
{ACAD_REACTORS
330
177
102
}
330
177
100
AcDbXrecord
340
0
  0
XRECORD
  5
18C
102
{ACAD_REACTORS
330
177
102
}
330
177
100
AcDbXrecord
 10
0.0
 20
0.0
 30
0.0
  0
XRECORD
  5
188
102
{ACAD_REACTORS
330
177
102
}
330
177
100
AcDbXrecord
 10
0.0
 20
0.0
 30
0.0
  0
XRECORD
  5
18B
102
{ACAD_REACTORS
330
177
102
}
330
177
100
AcDbXrecord
 10
0.0
 20
0.0
 30
0.0
  0
XRECORD
  5
189
102
{ACAD_REACTORS
330
177
102
}
330
177
100
AcDbXrecord
 10
0.0
 20
0.0
 30
0.0
  0
XRECORD
  5
18A
102
{ACAD_REACTORS
330
177
102
}
330
177
100
AcDbXrecord
 10
0.0
 20
0.0
 30
0.0
  0
XRECORD
  5
187
102
{ACAD_REACTORS
330
177
102
}
330
177
100
AcDbXrecord
 10
0.0
 20
0.0
 30
0.0
  0
XRECORD
  5
184
102
{ACAD_REACTORS
330
177
102
}
330
177
100
AcDbXrecord
340
0
  0
XRECORD
  5
185
102
{ACAD_REACTORS
330
177
102
}
330
177
100
AcDbXrecord
 70
     0
  0
XRECORD
  5
17B
102
{ACAD_REACTORS
330
177
102
}
330
177
100
AcDbXrecord
  1

  0
XRECORD
  5
178
102
{ACAD_REACTORS
330
177
102
}
330
177
100
AcDbXrecord
 90
        1
  0
XRECORD
  5
179
102
{ACAD_REACTORS
330
177
102
}
330
177
100
AcDbXrecord
 90
       70
  0
XRECORD
  5
18F
102
{ACAD_REACTORS
330
177
102
}
330
177
100
AcDbXrecord
340
0
  0
XRECORD
  5
195
102
{ACAD_REACTORS
330
177
102
}
330
177
100
AcDbXrecord
 10
0.0
 20
0.0
 30
0.0
  0
XRECORD
  5
191
102
{ACAD_REACTORS
330
177
102
}
330
177
100
AcDbXrecord
 10
0.0
 20
0.0
 30
0.0
  0
XRECORD
  5
194
102
{ACAD_REACTORS
330
177
102
}
330
177
100
AcDbXrecord
 10
0.0
 20
0.0
 30
0.0
  0
XRECORD
  5
192
102
{ACAD_REACTORS
330
177
102
}
330
177
100
AcDbXrecord
 10
0.0
 20
0.0
 30
0.0
  0
XRECORD
  5
193
102
{ACAD_REACTORS
330
177
102
}
330
177
100
AcDbXrecord
 10
0.0
 20
0.0
 30
0.0
  0
XRECORD
  5
190
102
{ACAD_REACTORS
330
177
102
}
330
177
100
AcDbXrecord
 10
0.0
 20
0.0
 30
0.0
  0
XRECORD
  5
18D
102
{ACAD_REACTORS
330
177
102
}
330
177
100
AcDbXrecord
340
0
  0
XRECORD
  5
18E
102
{ACAD_REACTORS
330
177
102
}
330
177
100
AcDbXrecord
 70
     0
  0
XRECORD
  5
182
102
{ACAD_REACTORS
330
177
102
}
330
177
100
AcDbXrecord
  1
{FAEB1C32-E019-11D5-929B-00C0DF256EC4}
  0
DICTIONARYVAR
  5
19A
102
{ACAD_REACTORS
330
197
102
}
330
197
100
DictionaryVariables
280
     0
  1
2
  0
DICTIONARYVAR
  5
19B
102
{ACAD_REACTORS
330
197
102
}
330
197
100
DictionaryVariables
280
     0
  1
1
  0
DICTIONARY
  5
19E
330
3D
100
AcDbDictionary
280
     1
  3
ACAD_XREC_ROUNDTRIP
360
19F
  0
DICTIONARY
  5
19C
330
3C
100
AcDbDictionary
280
     1
  3
ACAD_XREC_ROUNDTRIP
360
19D
  0
DICTIONARY
  5
1A0
330
3E
100
AcDbDictionary
280
     1
  3
ACAD_XREC_ROUNDTRIP
360
1A1
  0
XRECORD
  5
19F
102
{ACAD_REACTORS
330
19E
102
}
330
19E
100
AcDbXrecord
102
MATERIAL
148
0.0
149
0.0
149
0.0
 93
        0
 94
      127
282
     0
 72
     1
 77
     1
171
     1
175
     1
179
     1
273
     0
  0
XRECORD
  5
19D
102
{ACAD_REACTORS
330
19C
102
}
330
19C
100
AcDbXrecord
102
MATERIAL
148
0.0
149
0.0
149
0.0
 93
        0
 94
      127
282
     0
 72
     1
 77
     1
171
     1
175
     1
179
     1
273
     0
  0
XRECORD
  5
1A1
102
{ACAD_REACTORS
330
1A0
102
}
330
1A0
100
AcDbXrecord
102
MATERIAL
148
0.0
149
0.0
149
0.0
 93
        0
 94
      127
282
     0
 72
     1
 77
     1
171
     1
175
     1
179
     1
273
     0
  0
ENDSEC
  0
EOF
