  0
SECTION
  2
HEADER
  9
$ACADVER
  1
AC1024
  9
$ACADMAINTVER
 70
     6
  9
$DWGCODEPAGE
  3
ANSI_1252
  9
$INSBASE
 10
0.0
 20
0.0
 30
0.0
  9
$EXTMIN
 10
1.000000000000000E+20
 20
1.000000000000000E+20
 30
1.000000000000000E+20
  9
$EXTMAX
 10
-1.000000000000000E+20
 20
-1.000000000000000E+20
 30
-1.000000000000000E+20
  9
$LIMMIN
 10
0.0
 20
0.0
  9
$LIMMAX
 10
12.0
 20
9.0
  9
$ORTHOMODE
 70
     0
  9
$REGENMODE
 70
     1
  9
$FILLMODE
 70
     1
  9
$QTEXTMODE
 70
     0
  9
$MIRRTEXT
 70
     1
  9
$LTSCALE
 40
1.0
  9
$ATTMODE
 70
     1
  9
$TEXTSIZE
 40
0.2
  9
$TRACEWID
 40
0.05
  9
$TEXTSTYLE
  7
Standard
  9
$CLAYER
  8
0
  9
$CELTYPE
  6
ByLayer
  9
$CECOLOR
 62
   256
  9
$CELTSCALE
 40
1.0
  9
$DISPSILH
 70
     0
  9
$DIMSCALE
 40
1.0
  9
$DIMASZ
 40
0.18
  9
$DIMEXO
 40
0.0625
  9
$DIMDLI
 40
0.38
  9
$DIMRND
 40
0.0
  9
$DIMDLE
 40
0.0
  9
$DIMEXE
 40
0.18
  9
$DIMTP
 40
0.0
  9
$DIMTM
 40
0.0
  9
$DIMTXT
 40
0.18
  9
$DIMCEN
 40
0.09
  9
$DIMTSZ
 40
0.0
  9
$DIMTOL
 70
     0
  9
$DIMLIM
 70
     0
  9
$DIMTIH
 70
     1
  9
$DIMTOH
 70
     1
  9
$DIMSE1
 70
     0
  9
$DIMSE2
 70
     0
  9
$DIMTAD
 70
     0
  9
$DIMZIN
 70
     0
  9
$DIMBLK
  1

  9
$DIMASO
 70
     1
  9
$DIMSHO
 70
     1
  9
$DIMPOST
  1

  9
$DIMAPOST
  1

  9
$DIMALT
 70
     0
  9
$DIMALTD
 70
     2
  9
$DIMALTF
 40
25.4
  9
$DIMLFAC
 40
1.0
  9
$DIMTOFL
 70
     0
  9
$DIMTVP
 40
0.0
  9
$DIMTIX
 70
     0
  9
$DIMSOXD
 70
     0
  9
$DIMSAH
 70
     0
  9
$DIMBLK1
  1

  9
$DIMBLK2
  1

  9
$DIMSTYLE
  2
Standard
  9
$DIMCLRD
 70
     0
  9
$DIMCLRE
 70
     0
  9
$DIMCLRT
 70
     0
  9
$DIMTFAC
 40
1.0
  9
$DIMGAP
 40
0.09
  9
$DIMJUST
 70
     0
  9
$DIMSD1
 70
     0
  9
$DIMSD2
 70
     0
  9
$DIMTOLJ
 70
     1
  9
$DIMTZIN
 70
     0
  9
$DIMALTZ
 70
     0
  9
$DIMALTTZ
 70
     0
  9
$DIMUPT
 70
     0
  9
$DIMDEC
 70
     4
  9
$DIMTDEC
 70
     4
  9
$DIMALTU
 70
     2
  9
$DIMALTTD
 70
     2
  9
$DIMTXSTY
  7
Standard
  9
$DIMAUNIT
 70
     0
  9
$DIMADEC
 70
     0
  9
$DIMALTRND
 40
0.0
  9
$DIMAZIN
 70
     0
  9
$DIMDSEP
 70
    46
  9
$DIMATFIT
 70
     3
  9
$DIMFRAC
 70
     0
  9
$DIMLDRBLK
  1

  9
$DIMLUNIT
 70
     2
  9
$DIMLWD
 70
    -2
  9
$DIMLWE
 70
    -2
  9
$DIMTMOVE
 70
     0
  9
$DIMFXL
 40
1.0
  9
$DIMFXLON
 70
     0
  9
$DIMJOGANG
 40
0.7853981633974483
  9
$DIMTFILL
 70
     0
  9
$DIMTFILLCLR
 70
     0
  9
$DIMARCSYM
 70
     0
  9
$DIMLTYPE
  6

  9
$DIMLTEX1
  6

  9
$DIMLTEX2
  6

  9
$DIMTXTDIRECTION
 70
     0
  9
$LUNITS
 70
     2
  9
$LUPREC
 70
     4
  9
$SKETCHINC
 40
0.1
  9
$FILLETRAD
 40
0.5
  9
$AUNITS
 70
     0
  9
$AUPREC
 70
     0
  9
$MENU
  1
.
  9
$ELEVATION
 40
0.0
  9
$PELEVATION
 40
0.0
  9
$THICKNESS
 40
0.0
  9
$LIMCHECK
 70
     0
  9
$CHAMFERA
 40
0.5
  9
$CHAMFERB
 40
0.5
  9
$CHAMFERC
 40
1.0
  9
$CHAMFERD
 40
0.0
  9
$SKPOLY
 70
     0
  9
$TDCREATE
 40
2459192.941937338
  9
$TDUCREATE
 40
2459192.775270671
  9
$TDUPDATE
 40
2459192.941937396
  9
$TDUUPDATE
 40
2459192.775270729
  9
$TDINDWG
 40
0.0000000116
  9
$TDUSRTIMER
 40
0.0000000116
  9
$USRTIMER
 70
     1
  9
$ANGBASE
 50
0.0
  9
$ANGDIR
 70
     0
  9
$PDMODE
 70
     0
  9
$PDSIZE
 40
0.0
  9
$PLINEWID
 40
0.0
  9
$SPLFRAME
 70
     0
  9
$SPLINETYPE
 70
     6
  9
$SPLINESEGS
 70
     8
  9
$HANDSEED
  5
177
  9
$SURFTAB1
 70
     6
  9
$SURFTAB2
 70
     6
  9
$SURFTYPE
 70
     6
  9
$SURFU
 70
     6
  9
$SURFV
 70
     6
  9
$UCSBASE
  2

  9
$UCSNAME
  2

  9
$UCSORG
 10
0.0
 20
0.0
 30
0.0
  9
$UCSXDIR
 10
1.0
 20
0.0
 30
0.0
  9
$UCSYDIR
 10
0.0
 20
1.0
 30
0.0
  9
$UCSORTHOREF
  2

  9
$UCSORTHOVIEW
 70
     0
  9
$UCSORGTOP
 10
0.0
 20
0.0
 30
0.0
  9
$UCSORGBOTTOM
 10
0.0
 20
0.0
 30
0.0
  9
$UCSORGLEFT
 10
0.0
 20
0.0
 30
0.0
  9
$UCSORGRIGHT
 10
0.0
 20
0.0
 30
0.0
  9
$UCSORGFRONT
 10
0.0
 20
0.0
 30
0.0
  9
$UCSORGBACK
 10
0.0
 20
0.0
 30
0.0
  9
$PUCSBASE
  2

  9
$PUCSNAME
  2

  9
$PUCSORG
 10
0.0
 20
0.0
 30
0.0
  9
$PUCSXDIR
 10
1.0
 20
0.0
 30
0.0
  9
$PUCSYDIR
 10
0.0
 20
1.0
 30
0.0
  9
$PUCSORTHOREF
  2

  9
$PUCSORTHOVIEW
 70
     0
  9
$PUCSORGTOP
 10
0.0
 20
0.0
 30
0.0
  9
$PUCSORGBOTTOM
 10
0.0
 20
0.0
 30
0.0
  9
$PUCSORGLEFT
 10
0.0
 20
0.0
 30
0.0
  9
$PUCSORGRIGHT
 10
0.0
 20
0.0
 30
0.0
  9
$PUCSORGFRONT
 10
0.0
 20
0.0
 30
0.0
  9
$PUCSORGBACK
 10
0.0
 20
0.0
 30
0.0
  9
$USERI1
 70
     0
  9
$USERI2
 70
     0
  9
$USERI3
 70
     0
  9
$USERI4
 70
     0
  9
$USERI5
 70
     0
  9
$USERR1
 40
0.0
  9
$USERR2
 40
0.0
  9
$USERR3
 40
0.0
  9
$USERR4
 40
0.0
  9
$USERR5
 40
0.0
  9
$WORLDVIEW
 70
     1
  9
$SHADEDGE
 70
     3
  9
$SHADEDIF
 70
    70
  9
$TILEMODE
 70
     1
  9
$MAXACTVP
 70
    64
  9
$PINSBASE
 10
0.0
 20
0.0
 30
0.0
  9
$PLIMCHECK
 70
     0
  9
$PEXTMIN
 10
1.000000000000000E+20
 20
1.000000000000000E+20
 30
1.000000000000000E+20
  9
$PEXTMAX
 10
-1.000000000000000E+20
 20
-1.000000000000000E+20
 30
-1.000000000000000E+20
  9
$PLIMMIN
 10
0.0
 20
0.0
  9
$PLIMMAX
 10
12.0
 20
9.0
  9
$UNITMODE
 70
     0
  9
$VISRETAIN
 70
     1
  9
$PLINEGEN
 70
     0
  9
$PSLTSCALE
 70
     1
  9
$TREEDEPTH
 70
  3020
  9
$CMLSTYLE
  2
Standard
  9
$CMLJUST
 70
     0
  9
$CMLSCALE
 40
1.0
  9
$PROXYGRAPHICS
 70
     1
  9
$MEASUREMENT
 70
     0
  9
$CELWEIGHT
370
    -1
  9
$ENDCAPS
280
     0
  9
$JOINSTYLE
280
     0
  9
$LWDISPLAY
290
     1
  9
$INSUNITS
 70
     4
  9
$HYPERLINKBASE
  1

  9
$STYLESHEET
  1

  9
$XEDIT
290
     1
  9
$CEPSNTYPE
380
     0
  9
$PSTYLEMODE
290
     1
  9
$FINGERPRINTGUID
  2
{60FEFE36-4142-4734-B907-F0EB556DE13C}
  9
$VERSIONGUID
  2
{FAEB1C32-E019-11D5-929B-00C0DF256EC4}
  9
$EXTNAMES
290
     1
  9
$PSVPSCALE
 40
0.0
  9
$OLESTARTUP
290
     0
  9
$SORTENTS
280
   127
  9
$INDEXCTL
280
     0
  9
$HIDETEXT
280
     1
  9
$XCLIPFRAME
280
     2
  9
$HALOGAP
280
     0
  9
$OBSCOLOR
 70
   257
  9
$OBSLTYPE
280
     0
  9
$INTERSECTIONDISPLAY
280
     0
  9
$INTERSECTIONCOLOR
 70
   257
  9
$DIMASSOC
280
     2
  9
$PROJECTNAME
  1

  9
$CAMERADISPLAY
290
     0
  9
$LENSLENGTH
 40
50.0
  9
$CAMERAHEIGHT
 40
0.0
  9
$STEPSPERSEC
 40
2.0
  9
$STEPSIZE
 40
6.0
  9
$3DDWFPREC
 40
2.0
  9
$PSOLWIDTH
 40
0.25
  9
$PSOLHEIGHT
 40
4.0
  9
$LOFTANG1
 40
1.570796326794897
  9
$LOFTANG2
 40
1.570796326794897
  9
$LOFTMAG1
 40
0.0
  9
$LOFTMAG2
 40
0.0
  9
$LOFTPARAM
 70
     7
  9
$LOFTNORMALS
280
     1
  9
$LATITUDE
 40
37.795
  9
$LONGITUDE
 40
-122.394
  9
$NORTHDIRECTION
 40
0.0
  9
$TIMEZONE
 70
 -8000
  9
$LIGHTGLYPHDISPLAY
280
     1
  9
$TILEMODELIGHTSYNCH
280
     1
  9
$CMATERIAL
347
3C
  9
$SOLIDHIST
280
     1
  9
$SHOWHIST
280
     1
  9
$DWFFRAME
280
     2
  9
$DGNFRAME
280
     2
  9
$REALWORLDSCALE
290
     1
  9
$INTERFERECOLOR
 62
   256
  9
$CSHADOW
280
     0
  9
$SHADOWPLANELOCATION
 40
0.0
  0
ENDSEC
  0
SECTION
  2
CLASSES
  0
CLASS
  1
ACDBDICTIONARYWDFLT
  2
AcDbDictionaryWithDefault
  3
ObjectDBX Classes
 90
        0
 91
        4
280
     0
281
     0
  0
CLASS
  1
VISUALSTYLE
  2
AcDbVisualStyle
  3
ObjectDBX Classes
 90
     4095
 91
        4
280
     0
281
     0
  0
CLASS
  1
MATERIAL
  2
AcDbMaterial
  3
ObjectDBX Classes
 90
     1153
 91
        4
280
     0
281
     0
  0
CLASS
  1
SUN
  2
AcDbSun
  3
SCENEOE
 90
     1024
 91
        4
280
     0
281
     0
  0
ENDSEC
  0
SECTION
  2
TABLES
  0
TABLE
  2
VPORT
  5
8
330
0
100
AcDbSymbolTable
 70
     1
  0
VPORT
  5
29
330
8
100
AcDbSymbolTableRecord
100
AcDbViewportTableRecord
  2
*Active
 70
     0
 10
0.0
 20
0.0
 11
1.0
 21
1.0
 12
0.0
 22
0.0
 13
0.0
 23
0.0
 14
0.5
 24
0.5
 15
0.5
 25
0.5
 16
0.0
 26
0.0
 36
1.0
 17
16.31597221814323
 27
22.2073613747072
 37
0.0
 40
44.41472274941439
 41
0.7347100784664182
 42
50.0
 43
0.0
 44
0.0
 50
0.0
 51
0.0
 71
     0
 72
   100
 73
     1
 74
     3
 75
     0
 76
     0
 77
     0
 78
     0
281
     0
 65
     1
110
0.0
120
0.0
130
0.0
111
1.0
121
0.0
131
0.0
112
0.0
122
1.0
132
0.0
 79
     0
146
0.0
 60
     3
 61
     5
292
     1
282
     1
141
0.0
142
0.0
 63
   250
361
3F
  0
ENDTAB
  0
TABLE
  2
LTYPE
  5
5
330
0
100
AcDbSymbolTable
 70
     1
  0
LTYPE
  5
14
330
5
100
AcDbSymbolTableRecord
100
AcDbLinetypeTableRecord
  2
ByBlock
 70
     0
  3

 72
    65
 73
     0
 40
0.0
  0
LTYPE
  5
15
330
5
100
AcDbSymbolTableRecord
100
AcDbLinetypeTableRecord
  2
ByLayer
 70
     0
  3

 72
    65
 73
     0
 40
0.0
  0
LTYPE
  5
16
330
5
100
AcDbSymbolTableRecord
100
AcDbLinetypeTableRecord
  2
Continuous
 70
     0
  3
Solid line
 72
    65
 73
     0
 40
0.0
  0
ENDTAB
  0
TABLE
  2
LAYER
  5
2
330
0
100
AcDbSymbolTable
 70
     2
  0
LAYER
  5
10
330
2
100
AcDbSymbolTableRecord
100
AcDbLayerTableRecord
  2
0
 70
     0
 62
     7
  6
Continuous
370
    -3
390
F
347
3E
  0
LAYER
  5
40
330
2
100
AcDbSymbolTableRecord
100
AcDbLayerTableRecord
  2
Layer 1
 70
     0
 62
     7
  6
Continuous
370
    -3
390
F
347
3E
  0
ENDTAB
  0
TABLE
  2
STYLE
  5
3
330
0
100
AcDbSymbolTable
 70
     1
  0
STYLE
  5
11
330
3
100
AcDbSymbolTableRecord
100
AcDbTextStyleTableRecord
  2
Standard
 70
     0
 40
0.0
 41
1.0
 50
0.0
 71
     0
 42
0.2
  3
txt
  4

  0
ENDTAB
  0
TABLE
  2
VIEW
  5
6
330
0
100
AcDbSymbolTable
 70
     0
  0
ENDTAB
  0
TABLE
  2
UCS
  5
7
330
0
100
AcDbSymbolTable
 70
     0
  0
ENDTAB
  0
TABLE
  2
APPID
  5
9
330
0
100
AcDbSymbolTable
 70
     1
  0
APPID
  5
12
330
9
100
AcDbSymbolTableRecord
100
AcDbRegAppTableRecord
  2
ACAD
 70
     0
  0
ENDTAB
  0
TABLE
  2
DIMSTYLE
  5
A
330
0
100
AcDbSymbolTable
 70
     1
100
AcDbDimStyleTable
  0
DIMSTYLE
105
27
330
A
100
AcDbSymbolTableRecord
100
AcDbDimStyleTableRecord
  2
Standard
 70
     0
178
     0
340
11
  0
ENDTAB
  0
TABLE
  2
BLOCK_RECORD
  5
1
330
0
100
AcDbSymbolTable
 70
     4
  0
BLOCK_RECORD
  5
1F
330
1
100
AcDbSymbolTableRecord
100
AcDbBlockTableRecord
  2
*Model_Space
340
22
 70
     0
280
     1
281
     0
  0
BLOCK_RECORD
  5
1B
330
1
100
AcDbSymbolTableRecord
100
AcDbBlockTableRecord
  2
*Paper_Space
340
1E
 70
     0
280
     1
281
     0
  0
BLOCK_RECORD
  5
23
330
1
100
AcDbSymbolTableRecord
100
AcDbBlockTableRecord
  2
*Paper_Space0
340
26
 70
     0
280
     1
281
     0
  0
BLOCK_RECORD
  5
41
330
1
100
AcDbSymbolTableRecord
100
AcDbBlockTableRecord
  2
block 2
340
0
102
{BLKREFS
331
42
102
}
 70
     0
280
     1
281
     0
  0
BLOCK_RECORD
  5
45
330
1
100
AcDbSymbolTableRecord
100
AcDbBlockTableRecord
  2
block 3
340
0
102
{BLKREFS
331
46
102
}
 70
     0
280
     1
281
     0
  0
BLOCK_RECORD
  5
49
330
1
100
AcDbSymbolTableRecord
100
AcDbBlockTableRecord
  2
block 4
340
0
102
{BLKREFS
331
4A
102
}
 70
     0
280
     1
281
     0
  0
ENDTAB
  0
ENDSEC
  0
SECTION
  2
BLOCKS
  0
BLOCK
  5
20
330
1F
100
AcDbEntity
  8
0
100
AcDbBlockBegin
  2
*Model_Space
 70
     0
 10
0.0
 20
0.0
 30
0.0
  3
*Model_Space
  1

  0
ENDBLK
  5
21
330
1F
100
AcDbEntity
  8
0
100
AcDbBlockEnd
  0
BLOCK
  5
1C
330
1B
100
AcDbEntity
 67
     1
  8
0
100
AcDbBlockBegin
  2
*Paper_Space
 70
     0
 10
0.0
 20
0.0
 30
0.0
  3
*Paper_Space
  1

  0
ENDBLK
  5
1D
330
1B
100
AcDbEntity
 67
     1
  8
0
100
AcDbBlockEnd
  0
BLOCK
  5
24
330
23
100
AcDbEntity
  8
0
100
AcDbBlockBegin
  2
*Paper_Space0
 70
     0
 10
0.0
 20
0.0
 30
0.0
  3
*Paper_Space0
  1

  0
ENDBLK
  5
25
330
23
100
AcDbEntity
  8
0
100
AcDbBlockEnd
  0
BLOCK
  5
43
330
41
100
AcDbEntity
  8
0
100
AcDbBlockBegin
  2
block 2
 70
     0
 10
0.0
 20
0.0
 30
0.0
  3
block 2
  1

  0
ENDBLK
  5
44
330
41
100
AcDbEntity
  8
0
100
AcDbBlockEnd
  0
BLOCK
  5
47
330
45
100
AcDbEntity
  8
0
100
AcDbBlockBegin
  2
block 3
 70
     0
 10
0.0
 20
0.0
 30
0.0
  3
block 3
  1

  0
INSERT
  5
4A
330
45
100
AcDbEntity
  8
Layer 1
100
AcDbBlockReference
  2
block 4
 10
0.0
 20
0.0
 30
0.0
  0
ENDBLK
  5
48
330
45
100
AcDbEntity
  8
0
100
AcDbBlockEnd
  0
BLOCK
  5
4B
330
49
100
AcDbEntity
  8
0
100
AcDbBlockBegin
  2
block 4
 70
     0
 10
0.0
 20
0.0
 30
0.0
  3
block 4
  1

  0
SPLINE
  5
4D
330
49
100
AcDbEntity
  8
Layer 1
370
     0
100
AcDbSpline
210
0.0
220
0.0
230
1.0
 70
    11
 71
     3
 72
    29
 73
    25
 74
     0
 42
0.0000000001
 43
0.0000000001
 12
1.0
 22
0.0
 32
0.0
 13
1.0
 23
0.0
 33
0.0
 40
0.0
 40
0.0
 40
0.0
 40
0.0
 40
1.0
 40
1.0
 40
1.0
 40
2.0
 40
2.0
 40
2.0
 40
3.0
 40
3.0
 40
3.0
 40
4.0
 40
4.0
 40
4.0
 40
5.0
 40
5.0
 40
5.0
 40
6.0
 40
6.0
 40
6.0
 40
7.0
 40
7.0
 40
7.0
 40
8.0
 40
8.0
 40
8.0
 40
8.0
 10
13.22916666335938
 20
24.87082485001078
 30
0.0
 10
13.34972751071761
 20
24.91630145615651
 30
0.0
 10
13.45831934274545
 20
24.98869421652117
 30
0.0
 10
13.54666720157617
 20
25.08249097832837
 30
0.0
 10
13.62635791225978
 20
25.18842093579768
 30
0.0
 10
13.68612628170759
 20
25.30795767469331
 30
0.0
 10
13.72305609042096
 20
25.43526875601795
 30
0.0
 10
13.72305609042096
 20
25.57638040538995
 30
0.0
 10
13.72305609042096
 20
25.68221346954874
 30
0.0
 10
13.65250026573496
 20
25.75276929423474
 30
0.0
 10
13.57872812143578
 20
25.82669619868268
 30
0.0
 10
13.47016051273557
 20
25.85383709155241
 30
0.0
 10
13.37027831273138
 20
25.82332511892075
 30
0.0
 10
13.24588210516496
 20
25.80699052165513
 30
0.0
 10
13.13236486318555
 20
25.74392643390913
 30
0.0
 10
13.05277777451458
 20
25.64693623007595
 30
0.0
 10
12.95993110544668
 20
25.54969571852393
 30
0.0
 10
12.89847383176684
 20
25.42677982542383
 30
0.0
 10
12.87638888566979
 20
25.29415845238637
 30
0.0
 10
12.83979820354325
 20
25.18339997827601
 30
0.0
 10
12.86688795827688
 20
25.06149473623428
 30
0.0
 10
12.94694471035579
 20
24.97665791416958
 30
0.0
 10
13.02045443527231
 20
24.90094521217909
 30
0.0
 10
13.12399839497001
 20
24.86211521798714
 30
0.0
 10
13.22916666335938
 20
24.87082485001078
 30
0.0
  0
SPLINE
  5
4E
330
49
100
AcDbEntity
  8
Layer 1
370
     0
100
AcDbSpline
210
0.0
220
0.0
230
1.0
 70
    11
 71
     3
 72
    29
 73
    25
 74
     0
 42
0.0000000001
 43
0.0000000001
 12
1.0
 22
0.0
 32
0.0
 13
1.0
 23
0.0
 33
0.0
 40
0.0
 40
0.0
 40
0.0
 40
0.0
 40
1.0
 40
1.0
 40
1.0
 40
2.0
 40
2.0
 40
2.0
 40
3.0
 40
3.0
 40
3.0
 40
4.0
 40
4.0
 40
4.0
 40
5.0
 40
5.0
 40
5.0
 40
6.0
 40
6.0
 40
6.0
 40
7.0
 40
7.0
 40
7.0
 40
8.0
 40
8.0
 40
8.0
 40
8.0
 10
20.46111110599583
 20
24.72971454637921
 30
0.0
 10
20.58958625278717
 20
24.75832767927271
 30
0.0
 10
20.70278590002653
 20
24.83379411076562
 30
0.0
 10
20.77861164421263
 20
24.94138067469679
 30
0.0
 10
20.8810574797244
 20
25.03663083616183
 30
0.0
 10
20.95444339652192
 20
25.15894114607116
 30
0.0
 10
20.99027777253021
 20
25.29415845238637
 30
0.0
 10
20.99027777253021
 20
25.43527010175837
 30
0.0
 10
20.99027777253021
 20
25.54110316591716
 30
0.0
 10
20.91972194784421
 20
25.61165899060316
 30
0.0
 10
20.84594980354503
 20
25.6855858950511
 30
0.0
 10
20.73738219484482
 20
25.71272678792083
 30
0.0
 10
20.63749999484063
 20
25.68221481528917
 30
0.0
 10
20.5131037872742
 20
25.66588021802356
 30
0.0
 10
20.3995865452948
 20
25.60281613027755
 30
0.0
 10
20.31999945662383
 20
25.50582592644437
 30
0.0
 10
20.2206945792615
 20
25.41326993730804
 30
0.0
 10
20.15807189437454
 20
25.28802591327454
 30
0.0
 10
20.14361056777904
 20
25.15304814875479
 30
0.0
 10
20.1070198856525
 20
25.04228967464443
 30
0.0
 10
20.13410964038613
 20
24.9203844326027
 30
0.0
 10
20.21416639246504
 20
24.835547610538
 30
0.0
 10
20.27676350828395
 20
24.76546414074079
 30
0.0
 10
20.36719053606964
 20
24.726710853753
 30
0.0
 10
20.46111110599583
 20
24.72971454637921
 30
0.0
  0
SPLINE
  5
4F
330
49
100
AcDbEntity
  8
Layer 1
370
     0
100
AcDbSpline
210
0.0
220
0.0
230
1.0
 70
    11
 71
     3
 72
    29
 73
    25
 74
     0
 42
0.0000000001
 43
0.0000000001
 12
1.0
 22
0.0
 32
0.0
 13
1.0
 23
0.0
 33
0.0
 40
0.0
 40
0.0
 40
0.0
 40
0.0
 40
1.0
 40
1.0
 40
1.0
 40
2.0
 40
2.0
 40
2.0
 40
3.0
 40
3.0
 40
3.0
 40
4.0
 40
4.0
 40
4.0
 40
5.0
 40
5.0
 40
5.0
 40
6.0
 40
6.0
 40
6.0
 40
7.0
 40
7.0
 40
7.0
 40
8.0
 40
8.0
 40
8.0
 40
8.0
 10
25.36472275417721
 20
24.62388148222042
 30
0.0
 10
25.48528494727587
 20
24.66935808836614
 30
0.0
 10
25.59387543356328
 20
24.7417508487308
 30
0.0
 10
25.68222329239401
 20
24.835547610538
 30
0.0
 10
25.787460193545
 20
24.92354153963723
 30
0.0
 10
25.85135864035384
 20
25.05133977899533
 30
0.0
 10
25.8586121812388
 20
25.18832538822758
 30
0.0
 10
25.89520286336534
 20
25.29908386233794
 30
0.0
 10
25.86811310863171
 20
25.42098775863925
 30
0.0
 10
25.78805770229322
 20
25.50582592644437
 30
0.0
 10
25.73104406349318
 20
25.5823003175148
 30
0.0
 10
25.62992243655856
 20
25.61119201867606
 30
0.0
 10
25.54111433450285
 20
25.57638175113038
 30
0.0
 10
25.41259881549879
 20
25.57379927525686
 30
0.0
 10
25.29370264904496
 20
25.50774495228889
 30
0.0
 10
25.22361379628606
 20
25.39999286228559
 30
0.0
 10
25.12116796077429
 20
25.30474270082055
 30
0.0
 10
25.04778204397677
 20
25.18243239091121
 30
0.0
 10
25.01194766796848
 20
25.047215084596
 30
0.0
 10
25.01194766796848
 20
24.906103435224
 30
0.0
 10
25.01194766796848
 20
24.80027037106521
 30
0.0
 10
25.08250214691406
 20
24.72971454637921
 30
0.0
 10
25.15847188532551
 20
24.65785066200115
 30
0.0
 10
25.26023139322108
 20
24.61969084654031
 30
0.0
 10
25.36472275417721
 20
24.62388148222042
 30
0.0
  0
SPLINE
  5
50
330
49
100
AcDbEntity
  8
Layer 1
370
     0
100
AcDbSpline
210
0.0
220
0.0
230
1.0
 70
    11
 71
     3
 72
    86
 73
    82
 74
     0
 42
0.0000000001
 43
0.0000000001
 12
1.0
 22
0.0
 32
0.0
 13
1.0
 23
0.0
 33
0.0
 40
0.0
 40
0.0
 40
0.0
 40
0.0
 40
1.0
 40
1.0
 40
1.0
 40
2.0
 40
2.0
 40
2.0
 40
3.0
 40
3.0
 40
3.0
 40
4.0
 40
4.0
 40
4.0
 40
5.0
 40
5.0
 40
5.0
 40
6.0
 40
6.0
 40
6.0
 40
7.0
 40
7.0
 40
7.0
 40
8.0
 40
8.0
 40
8.0
 40
9.0
 40
9.0
 40
9.0
 40
10.0
 40
10.0
 40
10.0
 40
11.0
 40
11.0
 40
11.0
 40
12.0
 40
12.0
 40
12.0
 40
13.0
 40
13.0
 40
13.0
 40
14.0
 40
14.0
 40
14.0
 40
15.0
 40
15.0
 40
15.0
 40
16.0
 40
16.0
 40
16.0
 40
17.0
 40
17.0
 40
17.0
 40
18.0
 40
18.0
 40
18.0
 40
19.0
 40
19.0
 40
19.0
 40
20.0
 40
20.0
 40
20.0
 40
21.0
 40
21.0
 40
21.0
 40
22.0
 40
22.0
 40
22.0
 40
23.0
 40
23.0
 40
23.0
 40
24.0
 40
24.0
 40
24.0
 40
25.0
 40
25.0
 40
25.0
 40
26.0
 40
26.0
 40
26.0
 40
27.0
 40
27.0
 40
27.0
 40
27.0
 10
25.50583440354922
 20
29.77443649819216
 30
0.0
 10
25.50583440354922
 20
29.77443649819216
 30
0.0
 10
25.78805770229322
 20
29.88026956235095
 30
0.0
 10
25.78805770229322
 20
29.88026956235095
 30
0.0
 10
25.78805770229322
 20
29.88026956235095
 30
0.0
 10
25.78805770229322
 20
29.88026956235095
 30
0.0
 10
25.78805770229322
 20
29.88026956235095
 30
0.0
 10
26.65812195005476
 20
30.27206708363226
 30
0.0
 10
27.44767323973368
 20
30.82236052908185
 30
0.0
 10
28.1163904967483
 20
31.50304680142687
 30
0.0
 10
29.63333601740585
 20
33.30221360221778
 30
0.0
 10
27.83416719800429
 20
35.31304653132629
 30
0.0
 10
27.83416719800429
 20
37.2180470691462
 30
0.0
 10
27.83416719800429
 20
39.12304760696613
 30
0.0
 10
28.68083440275547
 20
40.53415804485424
 30
0.0
 10
27.9752788473763
 20
42.19221386914337
 30
0.0
 10
27.55194659074114
 20
43.25054720221212
 30
0.0
 10
26.52889049714518
 20
43.74443612462105
 30
0.0
 10
25.36472275417721
 20
43.7797138687465
 30
0.0
 10
24.38224342584346
 20
43.81988850994828
 30
0.0
 10
23.41062422273079
 20
43.56161072754617
 30
0.0
 10
22.57777777213333
 20
43.03888090567699
 30
0.0
 10
21.83694497728138
 20
42.58026989561106
 30
0.0
 10
18.23861137569954
 20
38.91138080577833
 30
0.0
 10
18.16805555101354
 20
38.91138080577833
 30
0.0
 10
18.12870206379668
 20
39.1383850105776
 30
0.0
 10
18.00208134730951
 20
39.34097748408686
 30
0.0
 10
17.81527777332396
 20
39.47582538465571
 30
0.0
 10
17.66129411679711
 20
39.61624936067108
 30
0.0
 10
17.4591827454894
 20
39.69204112491148
 30
0.0
 10
17.2508338673168
 20
39.6874921858435
 30
0.0
 10
17.2508338673168
 20
39.6874921858435
 30
0.0
 10
16.22777777372083
 20
39.6874921858435
 30
0.0
 10
16.22777777372083
 20
39.6874921858435
 30
0.0
 10
16.0656335472633
 20
39.6788643075506
 30
0.0
 10
15.90811597638321
 20
39.63039712974781
 30
0.0
 10
15.76916693187246
 20
39.54638120934171
 30
0.0
 10
15.55750080355488
 20
39.44054780874781
 30
0.0
 10
15.34583332949687
 20
39.22888134399513
 30
0.0
 10
15.34583332949687
 20
39.08777003105823
 30
0.0
 10
14.22215891588484
 20
40.73136621092738
 30
0.0
 10
12.86770885993547
 20
42.20462681059611
 30
0.0
 10
11.32416612553946
 20
43.46221425572624
 30
0.0
 10
10.52584397264761
 20
44.0279764826962
 30
0.0
 10
9.584604859605056
 20
44.35802130347702
 30
0.0
 10
8.607777641051792
 20
44.41471427230987
 30
0.0
 10
7.40833333148125
 20
44.44999205060451
 30
0.0
 10
6.349999998412501
 20
44.02665870844045
 30
0.0
 10
5.856111244221126
 20
43.00360316155154
 30
0.0
 10
5.044722288248063
 20
41.41610316194841
 30
0.0
 10
5.750278180062335
 20
39.6522142735005
 30
0.0
 10
5.644444443033334
 20
38.02943636155437
 30
0.0
 10
5.538610706004332
 20
36.40665844960824
 30
0.0
 10
3.563055689238834
 20
34.25471454399796
 30
0.0
 10
4.938888887654167
 20
32.34971400617804
 30
0.0
 10
5.715000267719335
 20
31.46776956195408
 30
0.0
 10
6.526388887257292
 20
30.65638094241612
 30
0.0
 10
7.655278045012044
 20
30.30360316472654
 30
0.0
 10
7.655278045012044
 20
30.30360316472654
 30
0.0
 10
7.690555957355044
 20
30.30360316472654
 30
0.0
 10
7.690555957355044
 20
30.30360316472654
 30
0.0
 10
7.690555957355044
 20
30.30360316472654
 30
0.0
 10
7.796389021513835
 20
30.23304734004054
 30
0.0
 10
7.796389021513835
 20
30.23304734004054
 30
0.0
 10
2.954694553802172
 20
27.25660461168241
 30
0.0
 10
0.0034423570217651
 20
21.98174086127179
 30
0.0
 10
0.0
 20
16.29832646704242
 30
0.0
 10
-0.0066673657943693
 20
12.92280307022869
 30
0.0
 10
1.041735475332709
 20
9.629585157742264
 30
0.0
 10
2.998611110361459
 20
6.879160879322883
 30
0.0
 10
2.998611110361459
 20
6.879160879322883
 30
0.0
 10
3.421944376301937
 20
6.31471428183487
 30
0.0
 10
3.421944376301937
 20
6.31471428183487
 30
0.0
 10
8.963561129978213
 20
-0.7785381527118033
 30
0.0
 10
19.20614894810645
 20
-2.03639096103178
 30
0.0
 10
26.29940407413397
 20
3.505225456209389
 30
0.0
 10
33.3926592001615
 20
9.046841873450559
 30
0.0
 10
34.65050931700063
 20
19.28943103731922
 30
0.0
 10
29.10889289975945
 20
26.38268481760632
 30
0.0
 10
28.08750283280831
 20
27.69006221926719
 30
0.0
 10
26.87248225070104
 20
28.83382584592759
 30
0.0
 10
25.50583440354922
 20
29.77443649819216
 30
0.0
  0
POLYLINE
  5
51
330
49
100
AcDbEntity
  8
Layer 1
370
     0
100
AcDb2dPolyline
 66
     1
 10
0.0
 20
0.0
 30
0.0
  0
VERTEX
  5
52
330
51
100
AcDbEntity
  8
Layer 1
370
     0
100
AcDbVertex
100
AcDb2dVertex
 10
27.58722383021393
 20
18.6266592614975
 30
0.0
  0
VERTEX
  5
53
330
51
100
AcDbEntity
  8
Layer 1
370
     0
100
AcDbVertex
100
AcDb2dVertex
 10
27.02277992420676
 20
18.06221535549033
 30
0.0
  0
VERTEX
  5
54
330
51
100
AcDbEntity
  8
Layer 1
370
     0
100
AcDbVertex
100
AcDb2dVertex
 10
25.92916935166522
 20
17.95638094559112
 30
0.0
  0
VERTEX
  5
55
330
51
100
AcDbEntity
  8
Layer 1
370
     0
100
AcDbVertex
100
AcDb2dVertex
 10
26.77583655641639
 20
18.6266592614975
 30
0.0
  0
VERTEX
  5
56
330
51
100
AcDbEntity
  8
Layer 1
370
     0
100
AcDbVertex
100
AcDb2dVertex
 10
27.58722383021393
 20
18.6266592614975
 30
0.0
  0
SEQEND
  5
57
330
51
100
AcDbEntity
  8
Layer 1
370
     0
  0
POLYLINE
  5
58
330
49
100
AcDbEntity
  8
Layer 1
370
     0
100
AcDb2dPolyline
 66
     1
 10
0.0
 20
0.0
 30
0.0
  0
VERTEX
  5
59
330
58
100
AcDbEntity
  8
Layer 1
370
     0
100
AcDbVertex
100
AcDb2dVertex
 10
25.92916935166522
 20
19.57915818466704
 30
0.0
  0
VERTEX
  5
5A
330
58
100
AcDbEntity
  8
Layer 1
370
     0
100
AcDbVertex
100
AcDb2dVertex
 10
27.02277992420676
 20
19.47332377476782
 30
0.0
  0
VERTEX
  5
5B
330
58
100
AcDbEntity
  8
Layer 1
370
     0
100
AcDbVertex
100
AcDb2dVertex
 10
27.58722383021393
 20
18.90887986876066
 30
0.0
  0
VERTEX
  5
5C
330
58
100
AcDbEntity
  8
Layer 1
370
     0
100
AcDbVertex
100
AcDb2dVertex
 10
26.77583386493555
 20
18.90887986876066
 30
0.0
  0
VERTEX
  5
5D
330
58
100
AcDbEntity
  8
Layer 1
370
     0
100
AcDbVertex
100
AcDb2dVertex
 10
25.92916935166522
 20
19.57915818466704
 30
0.0
  0
SEQEND
  5
5E
330
58
100
AcDbEntity
  8
Layer 1
370
     0
  0
POLYLINE
  5
5F
330
49
100
AcDbEntity
  8
Layer 1
370
     0
100
AcDb2dPolyline
 66
     1
 10
0.0
 20
0.0
 30
0.0
  0
VERTEX
  5
60
330
5F
100
AcDbEntity
  8
Layer 1
370
     0
100
AcDbVertex
100
AcDb2dVertex
 10
27.19916881305155
 20
17.8858237751647
 30
0.0
  0
VERTEX
  5
61
330
5F
100
AcDbEntity
  8
Layer 1
370
     0
100
AcDbVertex
100
AcDb2dVertex
 10
27.76361271905872
 20
18.45026768117186
 30
0.0
  0
VERTEX
  5
62
330
5F
100
AcDbEntity
  8
Layer 1
370
     0
100
AcDbVertex
100
AcDb2dVertex
 10
27.76361271905872
 20
17.63887771589348
 30
0.0
  0
VERTEX
  5
63
330
5F
100
AcDbEntity
  8
Layer 1
370
     0
100
AcDbVertex
100
AcDb2dVertex
 10
27.09333440315234
 20
16.8274877506151
 30
0.0
  0
VERTEX
  5
64
330
5F
100
AcDbEntity
  8
Layer 1
370
     0
100
AcDbVertex
100
AcDb2dVertex
 10
27.19916881305155
 20
17.8858237751647
 30
0.0
  0
SEQEND
  5
65
330
5F
100
AcDbEntity
  8
Layer 1
370
     0
  0
POLYLINE
  5
66
330
49
100
AcDbEntity
  8
Layer 1
370
     0
100
AcDb2dPolyline
 66
     1
 10
0.0
 20
0.0
 30
0.0
  0
VERTEX
  5
67
330
66
100
AcDbEntity
  8
Layer 1
370
     0
100
AcDbVertex
100
AcDb2dVertex
 10
27.19916881305155
 20
19.64971266361261
 30
0.0
  0
VERTEX
  5
68
330
66
100
AcDbEntity
  8
Layer 1
370
     0
100
AcDbVertex
100
AcDb2dVertex
 10
27.09333440315234
 20
20.74332323615415
 30
0.0
  0
VERTEX
  5
69
330
66
100
AcDbEntity
  8
Layer 1
370
     0
100
AcDbVertex
100
AcDb2dVertex
 10
27.76361271905872
 20
19.89665603140298
 30
0.0
  0
VERTEX
  5
6A
330
66
100
AcDbEntity
  8
Layer 1
370
     0
100
AcDbVertex
100
AcDb2dVertex
 10
27.76361271905872
 20
19.0852660661246
 30
0.0
  0
VERTEX
  5
6B
330
66
100
AcDbEntity
  8
Layer 1
370
     0
100
AcDbVertex
100
AcDb2dVertex
 10
27.19916881305155
 20
19.64971266361261
 30
0.0
  0
SEQEND
  5
6C
330
66
100
AcDbEntity
  8
Layer 1
370
     0
  0
SPLINE
  5
6D
330
49
100
AcDbEntity
  8
Layer 1
370
     0
100
AcDbSpline
210
0.0
220
0.0
230
1.0
 70
    11
 71
     3
 72
    50
 73
    46
 74
     0
 42
0.0000000001
 43
0.0000000001
 12
1.0
 22
0.0
 32
0.0
 13
1.0
 23
0.0
 33
0.0
 40
0.0
 40
0.0
 40
0.0
 40
0.0
 40
1.0
 40
1.0
 40
1.0
 40
2.0
 40
2.0
 40
2.0
 40
3.0
 40
3.0
 40
3.0
 40
4.0
 40
4.0
 40
4.0
 40
5.0
 40
5.0
 40
5.0
 40
6.0
 40
6.0
 40
6.0
 40
7.0
 40
7.0
 40
7.0
 40
8.0
 40
8.0
 40
8.0
 40
9.0
 40
9.0
 40
9.0
 40
10.0
 40
10.0
 40
10.0
 40
11.0
 40
11.0
 40
11.0
 40
12.0
 40
12.0
 40
12.0
 40
13.0
 40
13.0
 40
13.0
 40
14.0
 40
14.0
 40
14.0
 40
15.0
 40
15.0
 40
15.0
 40
15.0
 10
27.02277992420676
 20
21.20193542374295
 30
0.0
 10
26.98750268473398
 20
21.23721266321574
 30
0.0
 10
26.91694551430755
 20
21.27248990268853
 30
0.0
 10
26.88166827483476
 20
21.23721266321574
 30
0.0
 10
26.88166827483476
 20
21.23721266321574
 30
0.0
 10
26.88166827483476
 20
21.23721266321574
 30
0.0
 10
26.88166827483476
 20
21.23721266321574
 30
0.0
 10
26.81111379588918
 20
21.23721266321574
 30
0.0
 10
26.77583386493555
 20
21.16665818427016
 30
0.0
 10
26.77583386493555
 20
21.09610101384374
 30
0.0
 10
26.77583386493555
 20
21.09610101384374
 30
0.0
 10
26.91694551430755
 20
19.93193327087577
 30
0.0
 10
26.91694551430755
 20
19.93193327087577
 30
0.0
 10
26.91694551430755
 20
19.93193327087577
 30
0.0
 10
26.10555554902917
 20
20.743325927635
 30
0.0
 10
26.10555554902917
 20
20.743325927635
 30
0.0
 10
26.10555554902917
 20
20.743325927635
 30
0.0
 10
26.10555554902917
 20
20.743325927635
 30
0.0
 10
26.10555554902917
 20
20.743325927635
 30
0.0
 10
26.10555554902917
 20
20.743325927635
 30
0.0
 10
26.10555554902917
 20
20.884437577007
 30
0.0
 10
26.10555554902917
 20
20.884437577007
 30
0.0
 10
26.10555554902917
 20
20.884437577007
 30
0.0
 10
26.14083278850196
 20
20.884437577007
 30
0.0
 10
26.14083278850196
 20
20.884437577007
 30
0.0
 10
26.45833332671875
 20
20.884437577007
 30
0.0
 10
26.77583386493555
 20
21.13138094479737
 30
0.0
 10
27.09333171167149
 20
21.58999313238617
 30
0.0
 10
27.09333171167149
 20
21.58999313238617
 30
0.0
 10
27.09333171167149
 20
21.58999313238617
 30
0.0
 10
27.09333171167149
 20
21.58999313238617
 30
0.0
 10
27.08044759285283
 20
21.40284101163082
 30
0.0
 10
27.13008119116806
 20
21.21671165359765
 30
0.0
 10
27.2344433610435
 20
21.06082646585179
 30
0.0
 10
27.35334491045903
 20
20.95873321433109
 30
0.0
 10
27.50155937778851
 20
20.89697718627714
 30
0.0
 10
27.65777561767866
 20
20.884437577007
 30
0.0
 10
27.65777561767866
 20
20.884437577007
 30
0.0
 10
27.76361002757787
 20
20.884437577007
 30
0.0
 10
27.76361002757787
 20
20.884437577007
 30
0.0
 10
27.76361002757787
 20
20.884437577007
 30
0.0
 10
27.76361002757787
 20
20.31999367099984
 30
0.0
 10
27.76361002757787
 20
20.31999367099984
 30
0.0
 10
27.76361002757787
 20
20.31999367099984
 30
0.0
 10
27.02277992420676
 20
21.20193542374295
 30
0.0
 10
27.02277992420676
 20
21.20193542374295
 30
0.0
  0
SPLINE
  5
6E
330
49
100
AcDbEntity
  8
Layer 1
370
     0
100
AcDbSpline
210
0.0
220
0.0
230
1.0
 70
    11
 71
     3
 72
    32
 73
    28
 74
     0
 42
0.0000000001
 43
0.0000000001
 12
1.0
 22
0.0
 32
0.0
 13
1.0
 23
0.0
 33
0.0
 40
0.0
 40
0.0
 40
0.0
 40
0.0
 40
1.0
 40
1.0
 40
1.0
 40
2.0
 40
2.0
 40
2.0
 40
3.0
 40
3.0
 40
3.0
 40
4.0
 40
4.0
 40
4.0
 40
5.0
 40
5.0
 40
5.0
 40
6.0
 40
6.0
 40
6.0
 40
7.0
 40
7.0
 40
7.0
 40
8.0
 40
8.0
 40
8.0
 40
9.0
 40
9.0
 40
9.0
 40
9.0
 10
27.62250106968672
 20
23.17749044050845
 30
0.0
 10
27.52247487545716
 20
22.98534293129948
 30
0.0
 10
27.43983026454304
 20
22.78463651299435
 30
0.0
 10
27.37555770189635
 20
22.57776794928807
 30
0.0
 10
26.95222544526118
 20
21.8016565692229
 30
0.0
 10
26.63472490704439
 20
21.44887879153332
 30
0.0
 10
26.38777884777317
 20
21.44887879153332
 30
0.0
 10
26.14083278850196
 20
21.44887879153332
 30
0.0
 10
26.28194443787396
 20
21.48415603100611
 30
0.0
 10
26.24666719840117
 20
21.55471320143253
 30
0.0
 10
26.1981451816761
 20
21.62773576831559
 30
0.0
 10
26.17349121710978
 20
21.71402195281686
 30
0.0
 10
26.17611271945559
 20
21.8016565692229
 30
0.0
 10
26.19049330162566
 20
22.0913379613963
 30
0.0
 10
26.25000732613335
 20
22.37699962692344
 30
0.0
 10
26.35250160830039
 20
22.64832377397407
 30
0.0
 10
26.47657887538634
 20
22.95640412922339
 30
0.0
 10
26.63016284700728
 20
23.25176185450491
 30
0.0
 10
26.81111110440833
 20
23.53026956393845
 30
0.0
 10
27.02277723272591
 20
23.77721427746925
 30
0.0
 10
27.19916612157071
 20
23.88304734162804
 30
0.0
 10
27.34027777094271
 20
23.88304734162804
 30
0.0
 10
27.48138942031471
 20
23.88304734162804
 30
0.0
 10
27.5166666597875
 20
23.81249151694204
 30
0.0
 10
27.58722113873308
 20
23.70665845278324
 30
0.0
 10
27.61909634641418
 20
23.53218858978297
 30
0.0
 10
27.63093347918304
 20
23.35464909287573
 30
0.0
 10
27.62250106968672
 20
23.17749044050845
 30
0.0
  0
POLYLINE
  5
6F
330
49
100
AcDbEntity
  8
Layer 1
370
     0
100
AcDb2dPolyline
 66
     1
 10
0.0
 20
0.0
 30
0.0
  0
VERTEX
  5
70
330
6F
100
AcDbEntity
  8
Layer 1
370
     0
100
AcDbVertex
100
AcDb2dVertex
 10
28.01055608684909
 20
19.89665603140298
 30
0.0
  0
VERTEX
  5
71
330
6F
100
AcDbEntity
  8
Layer 1
370
     0
100
AcDbVertex
100
AcDb2dVertex
 10
28.71611164222825
 20
20.74332323615415
 30
0.0
  0
VERTEX
  5
72
330
6F
100
AcDbEntity
  8
Layer 1
370
     0
100
AcDbVertex
100
AcDb2dVertex
 10
28.57499999285625
 20
19.64971535509346
 30
0.0
  0
VERTEX
  5
73
330
6F
100
AcDbEntity
  8
Layer 1
370
     0
100
AcDbVertex
100
AcDb2dVertex
 10
28.01055608684909
 20
19.0852714490863
 30
0.0
  0
VERTEX
  5
74
330
6F
100
AcDbEntity
  8
Layer 1
370
     0
100
AcDbVertex
100
AcDb2dVertex
 10
28.01055608684909
 20
19.89665603140298
 30
0.0
  0
SEQEND
  5
75
330
6F
100
AcDbEntity
  8
Layer 1
370
     0
  0
POLYLINE
  5
76
330
49
100
AcDbEntity
  8
Layer 1
370
     0
100
AcDb2dPolyline
 66
     1
 10
0.0
 20
0.0
 30
0.0
  0
VERTEX
  5
77
330
76
100
AcDbEntity
  8
Layer 1
370
     0
100
AcDbVertex
100
AcDb2dVertex
 10
28.01055608684909
 20
18.45026768117186
 30
0.0
  0
VERTEX
  5
78
330
76
100
AcDbEntity
  8
Layer 1
370
     0
100
AcDbVertex
100
AcDb2dVertex
 10
28.57499999285625
 20
17.88582646664554
 30
0.0
  0
VERTEX
  5
79
330
76
100
AcDbEntity
  8
Layer 1
370
     0
100
AcDbVertex
100
AcDb2dVertex
 10
28.71611164222825
 20
16.82749313357679
 30
0.0
  0
VERTEX
  5
7A
330
76
100
AcDbEntity
  8
Layer 1
370
     0
100
AcDbVertex
100
AcDb2dVertex
 10
28.01055608684909
 20
17.63888309885517
 30
0.0
  0
VERTEX
  5
7B
330
76
100
AcDbEntity
  8
Layer 1
370
     0
100
AcDbVertex
100
AcDb2dVertex
 10
28.01055608684909
 20
18.45026768117186
 30
0.0
  0
SEQEND
  5
7C
330
76
100
AcDbEntity
  8
Layer 1
370
     0
  0
POLYLINE
  5
7D
330
49
100
AcDbEntity
  8
Layer 1
370
     0
100
AcDb2dPolyline
 66
     1
 10
0.0
 20
0.0
 30
0.0
  0
VERTEX
  5
7E
330
7D
100
AcDbEntity
  8
Layer 1
370
     0
100
AcDbVertex
100
AcDb2dVertex
 10
28.22222221516667
 20
18.62665657001665
 30
0.0
  0
VERTEX
  5
7F
330
7D
100
AcDbEntity
  8
Layer 1
370
     0
100
AcDbVertex
100
AcDb2dVertex
 10
28.99833224949141
 20
18.62665657001665
 30
0.0
  0
VERTEX
  5
80
330
7D
100
AcDbEntity
  8
Layer 1
370
     0
100
AcDbVertex
100
AcDb2dVertex
 10
29.84499945424258
 20
17.95638094559112
 30
0.0
  0
VERTEX
  5
81
330
7D
100
AcDbEntity
  8
Layer 1
370
     0
100
AcDbVertex
100
AcDb2dVertex
 10
28.78666612117383
 20
18.06221535549033
 30
0.0
  0
VERTEX
  5
82
330
7D
100
AcDbEntity
  8
Layer 1
370
     0
100
AcDbVertex
100
AcDb2dVertex
 10
28.22222221516667
 20
18.62665657001665
 30
0.0
  0
SEQEND
  5
83
330
7D
100
AcDbEntity
  8
Layer 1
370
     0
  0
POLYLINE
  5
84
330
49
100
AcDbEntity
  8
Layer 1
370
     0
100
AcDb2dPolyline
 66
     1
 10
0.0
 20
0.0
 30
0.0
  0
VERTEX
  5
85
330
84
100
AcDbEntity
  8
Layer 1
370
     0
100
AcDbVertex
100
AcDb2dVertex
 10
28.22222221516667
 20
18.90887986876066
 30
0.0
  0
VERTEX
  5
86
330
84
100
AcDbEntity
  8
Layer 1
370
     0
100
AcDbVertex
100
AcDb2dVertex
 10
28.78666612117383
 20
19.47332377476782
 30
0.0
  0
VERTEX
  5
87
330
84
100
AcDbEntity
  8
Layer 1
370
     0
100
AcDbVertex
100
AcDb2dVertex
 10
29.84499945424258
 20
19.57915818466704
 30
0.0
  0
VERTEX
  5
88
330
84
100
AcDbEntity
  8
Layer 1
370
     0
100
AcDbVertex
100
AcDb2dVertex
 10
28.99833224949141
 20
18.90887986876066
 30
0.0
  0
VERTEX
  5
89
330
84
100
AcDbEntity
  8
Layer 1
370
     0
100
AcDbVertex
100
AcDb2dVertex
 10
28.22222221516667
 20
18.90887986876066
 30
0.0
  0
SEQEND
  5
8A
330
84
100
AcDbEntity
  8
Layer 1
370
     0
  0
SPLINE
  5
8B
330
49
100
AcDbEntity
  8
Layer 1
370
     0
100
AcDbSpline
210
0.0
220
0.0
230
1.0
 70
    11
 71
     3
 72
    17
 73
    13
 74
     0
 42
0.0000000001
 43
0.0000000001
 12
1.0
 22
0.0
 32
0.0
 13
1.0
 23
0.0
 33
0.0
 40
0.0
 40
0.0
 40
0.0
 40
0.0
 40
1.0
 40
1.0
 40
1.0
 40
2.0
 40
2.0
 40
2.0
 40
3.0
 40
3.0
 40
3.0
 40
4.0
 40
4.0
 40
4.0
 40
4.0
 10
29.88027669371537
 20
20.56693434730936
 30
0.0
 10
29.88027669371537
 20
20.56693434730936
 30
0.0
 10
29.98611110361459
 20
20.56693434730936
 30
0.0
 10
29.98611110361459
 20
20.56693434730936
 30
0.0
 10
30.05666558256016
 20
20.35526821899178
 30
0.0
 10
30.0919455135138
 20
20.10832215972056
 30
0.0
 10
30.16249999245938
 20
19.86137879193019
 30
0.0
 10
30.16249999245938
 20
19.86137879193019
 30
0.0
 10
29.06888941991784
 20
19.75554438203098
 30
0.0
 10
29.06888941991784
 20
19.75554438203098
 30
0.0
 10
29.06888941991784
 20
19.75554438203098
 30
0.0
 10
29.88027938519622
 20
20.56693434730936
 30
0.0
 10
29.88027669371537
 20
20.56693434730936
 30
0.0
  0
SPLINE
  5
8C
330
49
100
AcDbEntity
  8
Layer 1
370
     0
100
AcDbSpline
210
0.0
220
0.0
230
1.0
 70
    11
 71
     3
 72
    14
 73
    10
 74
     0
 42
0.0000000001
 43
0.0000000001
 12
1.0
 22
0.0
 32
0.0
 13
1.0
 23
0.0
 33
0.0
 40
0.0
 40
0.0
 40
0.0
 40
0.0
 40
1.0
 40
1.0
 40
1.0
 40
2.0
 40
2.0
 40
2.0
 40
3.0
 40
3.0
 40
3.0
 40
3.0
 10
30.23305447140496
 20
19.57915549318619
 30
0.0
 10
30.29345130163074
 20
19.35875281803648
 30
0.0
 10
30.34057374831492
 20
19.13492388776746
 30
0.0
 10
30.37416612077696
 20
18.90887717727981
 30
0.0
 10
30.37416612077696
 20
18.90887717727981
 30
0.0
 10
29.42166719760742
 20
18.90887717727981
 30
0.0
 10
29.42166719760742
 20
18.90887717727981
 30
0.0
 10
29.42166719760742
 20
18.90887717727981
 30
0.0
 10
30.23305447140496
 20
19.57915549318619
 30
0.0
 10
30.23305447140496
 20
19.57915549318619
 30
0.0
  0
SPLINE
  5
8D
330
49
100
AcDbEntity
  8
Layer 1
370
     0
100
AcDbSpline
210
0.0
220
0.0
230
1.0
 70
    11
 71
     3
 72
    71
 73
    67
 74
     0
 42
0.0000000001
 43
0.0000000001
 12
1.0
 22
0.0
 32
0.0
 13
1.0
 23
0.0
 33
0.0
 40
0.0
 40
0.0
 40
0.0
 40
0.0
 40
1.0
 40
1.0
 40
1.0
 40
2.0
 40
2.0
 40
2.0
 40
3.0
 40
3.0
 40
3.0
 40
4.0
 40
4.0
 40
4.0
 40
5.0
 40
5.0
 40
5.0
 40
6.0
 40
6.0
 40
6.0
 40
7.0
 40
7.0
 40
7.0
 40
8.0
 40
8.0
 40
8.0
 40
9.0
 40
9.0
 40
9.0
 40
10.0
 40
10.0
 40
10.0
 40
11.0
 40
11.0
 40
11.0
 40
12.0
 40
12.0
 40
12.0
 40
13.0
 40
13.0
 40
13.0
 40
14.0
 40
14.0
 40
14.0
 40
15.0
 40
15.0
 40
15.0
 40
16.0
 40
16.0
 40
16.0
 40
17.0
 40
17.0
 40
17.0
 40
18.0
 40
18.0
 40
18.0
 40
19.0
 40
19.0
 40
19.0
 40
20.0
 40
20.0
 40
20.0
 40
21.0
 40
21.0
 40
21.0
 40
22.0
 40
22.0
 40
22.0
 40
22.0
 10
29.77444228381616
 20
21.02554384341731
 30
0.0
 10
29.70051537936822
 20
20.9517703533777
 30
0.0
 10
29.67337448649849
 20
20.84320409041792
 30
0.0
 10
29.70388780487058
 20
20.7433205446733
 30
0.0
 10
29.70388780487058
 20
20.7433205446733
 30
0.0
 10
28.8924978395922
 20
19.93193057939492
 30
0.0
 10
28.8924978395922
 20
19.93193057939492
 30
0.0
 10
28.8924978395922
 20
19.93193057939492
 30
0.0
 10
28.99833224949141
 20
21.09609832236289
 30
0.0
 10
28.99833224949141
 20
21.09609832236289
 30
0.0
 10
28.99833224949141
 20
21.16665280130847
 30
0.0
 10
28.96305501001862
 20
21.23720997173489
 30
0.0
 10
28.92777777054583
 20
21.23720997173489
 30
0.0
 10
28.92777777054583
 20
21.23720997173489
 30
0.0
 10
28.75138888170104
 20
21.23720997173489
 30
0.0
 10
28.75138888170104
 20
21.23720997173489
 30
0.0
 10
28.75138888170104
 20
21.23720997173489
 30
0.0
 10
28.01055608684909
 20
20.31998828803814
 30
0.0
 10
28.01055608684909
 20
20.31998828803814
 30
0.0
 10
28.01055608684909
 20
20.31998828803814
 30
0.0
 10
28.01055608684909
 20
20.884437577007
 30
0.0
 10
28.01055608684909
 20
20.884437577007
 30
0.0
 10
28.01055608684909
 20
20.884437577007
 30
0.0
 10
28.29277938559309
 20
21.06082646585179
 30
0.0
 10
28.29277938559309
 20
21.06082646585179
 30
0.0
 10
28.43788519254331
 20
21.19963689909888
 30
0.0
 10
28.56795638747742
 20
21.35335813624307
 30
0.0
 10
28.68083440275547
 20
21.51943865344059
 30
0.0
 10
28.68083440275547
 20
21.51943865344059
 30
0.0
 10
29.21000106928984
 20
22.40138309766455
 30
0.0
 10
29.21000106928984
 20
22.40138309766455
 30
0.0
 10
29.21000106928984
 20
22.40138309766455
 30
0.0
 10
29.21000106928984
 20
22.40138309766455
 30
0.0
 10
29.21000106928984
 20
22.40138309766455
 30
0.0
 10
29.21000106928984
 20
22.40138309766455
 30
0.0
 10
29.03361218044505
 20
22.61304922598213
 30
0.0
 10
29.03361218044505
 20
22.61304922598213
 30
0.0
 10
29.03361218044505
 20
22.64832646545492
 30
0.0
 10
29.03361218044505
 20
22.64832646545492
 30
0.0
 10
28.99833494097226
 20
22.61304922598213
 30
0.0
 10
28.80457254325459
 20
22.26460742393844
 30
0.0
 10
28.58026722087549
 20
21.93405185786914
 30
0.0
 10
28.32805662506588
 20
21.62527037185896
 30
0.0
 10
28.24082573078702
 20
21.50233967561419
 30
0.0
 10
28.13348678309385
 20
21.39500072792103
 30
0.0
 10
28.01055608684909
 20
21.30776983364216
 30
0.0
 10
28.01055608684909
 20
21.30776983364216
 30
0.0
 10
27.90472167694987
 20
21.30776983364216
 30
0.0
 10
27.90472167694987
 20
21.30776983364216
 30
0.0
 10
27.83416719800429
 20
21.30776983364216
 30
0.0
 10
27.79888726705066
 20
21.34304707311495
 30
0.0
 10
27.79888726705066
 20
21.44888148301417
 30
0.0
 10
27.79504114091908
 20
21.55587053819711
 30
0.0
 10
27.80692672034319
 20
21.66284613597581
 30
0.0
 10
27.83416450652345
 20
21.76638202123096
 30
0.0
 10
27.83416450652345
 20
21.76638202123096
 30
0.0
 10
27.93999891642266
 20
22.11915979892055
 30
0.0
 10
27.93999891642266
 20
22.11915979892055
 30
0.0
 10
27.93999891642266
 20
22.11915979892055
 30
0.0
 10
28.57499999285625
 20
23.63610262809724
 30
0.0
 10
28.57499999285625
 20
23.63610262809724
 30
0.0
 10
29.07781706189016
 20
22.82448388694679
 30
0.0
 10
29.4917775822131
 20
21.96108105428369
 30
0.0
 10
29.80972221476979
 20
21.06082377437095
 30
0.0
 10
29.80972221476979
 20
21.06082377437095
 30
0.0
 10
29.77444228381616
 20
21.02554384341731
 30
0.0
 10
29.77444228381616
 20
21.02554384341731
 30
0.0
  0
SPLINE
  5
8E
330
49
100
AcDbEntity
  8
Layer 1
370
     0
100
AcDbSpline
210
0.0
220
0.0
230
1.0
 70
    11
 71
     3
 72
    14
 73
    10
 74
     0
 42
0.0000000001
 43
0.0000000001
 12
1.0
 22
0.0
 32
0.0
 13
1.0
 23
0.0
 33
0.0
 40
0.0
 40
0.0
 40
0.0
 40
0.0
 40
1.0
 40
1.0
 40
1.0
 40
2.0
 40
2.0
 40
2.0
 40
3.0
 40
3.0
 40
3.0
 40
3.0
 10
24.83555608764284
 20
42.6861031279874
 30
0.0
 10
26.17611271945559
 20
43.10943647803666
 30
0.0
 10
26.66999945503633
 20
42.05110322907669
 30
0.0
 10
26.10555554902917
 20
40.78110309482015
 30
0.0
 10
24.53662407579537
 20
39.43927675691742
 30
0.0
 10
22.55951742032109
 20
38.66832931929395
 30
0.0
 10
20.49638834546862
 20
38.59388094043175
 30
0.0
 10
21.27489918070965
 20
40.52676353765987
 30
0.0
 10
22.86042363337045
 20
42.02205340341561
 30
0.0
 10
24.83555608764284
 20
42.6861031279874
 30
0.0
  0
SPLINE
  5
8F
330
49
100
AcDbEntity
  8
Layer 1
370
     0
100
AcDbSpline
210
0.0
220
0.0
230
1.0
 70
    11
 71
     3
 72
    26
 73
    22
 74
     0
 42
0.0000000001
 43
0.0000000001
 12
1.0
 22
0.0
 32
0.0
 13
1.0
 23
0.0
 33
0.0
 40
0.0
 40
0.0
 40
0.0
 40
0.0
 40
1.0
 40
1.0
 40
1.0
 40
2.0
 40
2.0
 40
2.0
 40
3.0
 40
3.0
 40
3.0
 40
4.0
 40
4.0
 40
4.0
 40
5.0
 40
5.0
 40
5.0
 40
6.0
 40
6.0
 40
6.0
 40
7.0
 40
7.0
 40
7.0
 40
7.0
 10
21.48416719959179
 20
31.99693622848845
 30
0.0
 10
21.48416719959179
 20
31.99693622848845
 30
0.0
 10
21.5547230242778
 20
31.89110316432966
 30
0.0
 10
21.5547230242778
 20
31.89110316432966
 30
0.0
 10
21.52892652609156
 20
31.86216839947484
 30
0.0
 10
21.51616890687275
 20
31.82389554181839
 30
0.0
 10
21.51944578480501
 20
31.78527010017087
 30
0.0
 10
20.81389022942584
 20
31.99693622848845
 30
0.0
 10
20.10833467404667
 20
32.20860370254645
 30
0.0
 10
19.40277911866751
 20
32.34971400617804
 30
0.0
 10
19.29694605450872
 20
32.49082565555004
 30
0.0
 10
19.22639022982272
 20
32.66721454439483
 30
0.0
 10
19.12055716566393
 20
32.84360343323962
 30
0.0
 10
19.12055716566393
 20
32.84360343323962
 30
0.0
 10
19.08527992619114
 20
32.84360343323962
 30
0.0
 10
19.08527992619114
 20
32.84360343323962
 30
0.0
 10
18.76909686784937
 20
33.48630214489807
 30
0.0
 10
18.52080910537549
 20
34.16022539874265
 30
0.0
 10
18.34444443985834
 20
34.85443636234812
 30
0.0
 10
18.34444443985834
 20
34.85443636234812
 30
0.0
 10
21.48416719959179
 20
31.99693622848845
 30
0.0
 10
21.48416719959179
 20
31.99693622848845
 30
0.0
  0
SPLINE
  5
90
330
49
100
AcDbEntity
  8
Layer 1
370
     0
100
AcDbSpline
210
0.0
220
0.0
230
1.0
 70
    11
 71
     3
 72
    29
 73
    25
 74
     0
 42
0.0000000001
 43
0.0000000001
 12
1.0
 22
0.0
 32
0.0
 13
1.0
 23
0.0
 33
0.0
 40
0.0
 40
0.0
 40
0.0
 40
0.0
 40
1.0
 40
1.0
 40
1.0
 40
2.0
 40
2.0
 40
2.0
 40
3.0
 40
3.0
 40
3.0
 40
4.0
 40
4.0
 40
4.0
 40
5.0
 40
5.0
 40
5.0
 40
6.0
 40
6.0
 40
6.0
 40
7.0
 40
7.0
 40
7.0
 40
8.0
 40
8.0
 40
8.0
 40
8.0
 10
16.22777777372083
 20
38.31165898742817
 30
0.0
 10
16.3709403314989
 20
38.44676998024988
 30
0.0
 10
16.56009491400505
 20
38.52243154410426
 30
0.0
 10
16.75694444025521
 20
38.52332578861596
 30
0.0
 10
16.96942743301011
 20
38.51481667191548
 30
0.0
 10
17.17092918390578
 20
38.42665990822495
 30
0.0
 10
17.32138834626237
 20
38.27638107508516
 30
0.0
 10
17.46181232227775
 20
38.1223967456881
 30
0.0
 10
17.53760307721282
 20
37.92028537438039
 30
0.0
 10
17.53305447457995
 20
37.71193649620779
 30
0.0
 10
17.52666086182588
 20
37.50917715088596
 30
0.0
 10
17.43740328246858
 20
37.31790908304404
 30
0.0
 10
17.28610976104916
 20
37.18276982967341
 30
0.0
 10
17.12866351441155
 20
37.04810696841286
 30
0.0
 10
16.92883451886282
 20
36.97317143151719
 30
0.0
 10
16.721665855042
 20
36.97110302848562
 30
0.0
 10
16.51067259693638
 20
36.98587589398927
 30
0.0
 10
16.31127020110203
 20
37.07311553558089
 30
0.0
 10
16.15722194903483
 20
37.21804774201642
 30
0.0
 10
16.02623968783372
 20
37.37554512679014
 30
0.0
 10
15.96283647350088
 20
37.57843904615436
 30
0.0
 10
15.98083306019004
 20
37.78249232089379
 30
0.0
 10
15.97235085829804
 20
37.988513068133
 30
0.0
 10
16.06443045532431
 20
38.18582552908899
 30
0.0
 10
16.22777777372083
 20
38.31165898742817
 30
0.0
  0
SPLINE
  5
91
330
49
100
AcDbEntity
  8
Layer 1
370
     0
100
AcDbSpline
210
0.0
220
0.0
230
1.0
 70
    11
 71
     3
 72
    14
 73
    10
 74
     0
 42
0.0000000001
 43
0.0000000001
 12
1.0
 22
0.0
 32
0.0
 13
1.0
 23
0.0
 33
0.0
 40
0.0
 40
0.0
 40
0.0
 40
0.0
 40
1.0
 40
1.0
 40
1.0
 40
2.0
 40
2.0
 40
2.0
 40
3.0
 40
3.0
 40
3.0
 40
3.0
 10
7.655278045012044
 20
41.48665898663442
 30
0.0
 10
7.16138929082067
 20
42.79193669679885
 30
0.0
 10
7.761111109170834
 20
43.77971454161671
 30
0.0
 10
9.031111243427375
 20
43.25054787508233
 30
0.0
 10
10.96478345384925
 20
42.47643121876053
 30
0.0
 10
12.44359741959486
 20
40.86789729633144
 30
0.0
 10
13.05277777451458
 20
38.87610322987044
 30
0.0
 10
11.00312629000774
 20
39.08634220046844
 30
0.0
 10
9.092600142007178
 20
40.01038779741981
 30
0.0
 10
7.655278045012044
 20
41.48665898663442
 30
0.0
  0
SPLINE
  5
92
330
49
100
AcDbEntity
  8
Layer 1
370
     0
100
AcDbSpline
210
0.0
220
0.0
230
1.0
 70
    11
 71
     3
 72
    29
 73
    25
 74
     0
 42
0.0000000001
 43
0.0000000001
 12
1.0
 22
0.0
 32
0.0
 13
1.0
 23
0.0
 33
0.0
 40
0.0
 40
0.0
 40
0.0
 40
0.0
 40
1.0
 40
1.0
 40
1.0
 40
2.0
 40
2.0
 40
2.0
 40
3.0
 40
3.0
 40
3.0
 40
4.0
 40
4.0
 40
4.0
 40
5.0
 40
5.0
 40
5.0
 40
6.0
 40
6.0
 40
6.0
 40
7.0
 40
7.0
 40
7.0
 40
8.0
 40
8.0
 40
8.0
 40
8.0
 10
15.02833279128008
 20
34.92499218703412
 30
0.0
 10
14.79289954133555
 20
34.20151204207848
 30
0.0
 10
14.46062411900447
 20
33.51322704642976
 30
0.0
 10
14.04055528289733
 20
32.87888067271241
 30
0.0
 10
14.04055528289733
 20
32.87888067271241
 30
0.0
 10
14.04055528289733
 20
32.87888067271241
 30
0.0
 10
14.04055528289733
 20
32.87888067271241
 30
0.0
 10
14.04055528289733
 20
32.84360343323962
 30
0.0
 10
14.00527804342454
 20
32.84360343323962
 30
0.0
 10
14.00527804342454
 20
32.80832484802641
 30
0.0
 10
14.00527804342454
 20
32.80832484802641
 30
0.0
 10
13.72305609042096
 20
32.45554707033683
 30
0.0
 10
13.72305609042096
 20
32.45554707033683
 30
0.0
 10
12.98277235766197
 20
32.3452286533451
 30
0.0
 10
12.2516921436622
 20
32.1801453298017
 30
0.0
 10
11.53583359959746
 20
31.96165764327524
 30
0.0
 10
11.53583359959746
 20
31.96165764327524
 30
0.0
 10
11.53583359959746
 20
32.03221346796124
 30
0.0
 10
11.53583359959746
 20
32.03221346796124
 30
0.0
 10
11.53583359959746
 20
32.03221346796124
 30
0.0
 10
11.74749972791504
 20
32.34971400617804
 30
0.0
 10
11.74749972791504
 20
32.34971400617804
 30
0.0
 10
11.74749972791504
 20
32.34971400617804
 30
0.0
 10
15.02833279128008
 20
34.92499218703412
 30
0.0
 10
15.02833279128008
 20
34.92499218703412
 30
0.0
  0
SPLINE
  5
93
330
49
100
AcDbEntity
  8
Layer 1
370
     0
100
AcDbSpline
210
0.0
220
0.0
230
1.0
 70
    11
 71
     3
 72
   356
 73
   352
 74
     0
 42
0.0000000001
 43
0.0000000001
 12
1.0
 22
0.0
 32
0.0
 13
1.0
 23
0.0
 33
0.0
 40
0.0
 40
0.0
 40
0.0
 40
0.0
 40
1.0
 40
1.0
 40
1.0
 40
2.0
 40
2.0
 40
2.0
 40
3.0
 40
3.0
 40
3.0
 40
4.0
 40
4.0
 40
4.0
 40
5.0
 40
5.0
 40
5.0
 40
6.0
 40
6.0
 40
6.0
 40
7.0
 40
7.0
 40
7.0
 40
8.0
 40
8.0
 40
8.0
 40
9.0
 40
9.0
 40
9.0
 40
10.0
 40
10.0
 40
10.0
 40
11.0
 40
11.0
 40
11.0
 40
12.0
 40
12.0
 40
12.0
 40
13.0
 40
13.0
 40
13.0
 40
14.0
 40
14.0
 40
14.0
 40
15.0
 40
15.0
 40
15.0
 40
16.0
 40
16.0
 40
16.0
 40
17.0
 40
17.0
 40
17.0
 40
18.0
 40
18.0
 40
18.0
 40
19.0
 40
19.0
 40
19.0
 40
20.0
 40
20.0
 40
20.0
 40
21.0
 40
21.0
 40
21.0
 40
22.0
 40
22.0
 40
22.0
 40
23.0
 40
23.0
 40
23.0
 40
24.0
 40
24.0
 40
24.0
 40
25.0
 40
25.0
 40
25.0
 40
26.0
 40
26.0
 40
26.0
 40
27.0
 40
27.0
 40
27.0
 40
28.0
 40
28.0
 40
28.0
 40
29.0
 40
29.0
 40
29.0
 40
30.0
 40
30.0
 40
30.0
 40
31.0
 40
31.0
 40
31.0
 40
32.0
 40
32.0
 40
32.0
 40
33.0
 40
33.0
 40
33.0
 40
34.0
 40
34.0
 40
34.0
 40
35.0
 40
35.0
 40
35.0
 40
36.0
 40
36.0
 40
36.0
 40
37.0
 40
37.0
 40
37.0
 40
38.0
 40
38.0
 40
38.0
 40
39.0
 40
39.0
 40
39.0
 40
40.0
 40
40.0
 40
40.0
 40
41.0
 40
41.0
 40
41.0
 40
42.0
 40
42.0
 40
42.0
 40
43.0
 40
43.0
 40
43.0
 40
44.0
 40
44.0
 40
44.0
 40
45.0
 40
45.0
 40
45.0
 40
46.0
 40
46.0
 40
46.0
 40
47.0
 40
47.0
 40
47.0
 40
48.0
 40
48.0
 40
48.0
 40
49.0
 40
49.0
 40
49.0
 40
50.0
 40
50.0
 40
50.0
 40
51.0
 40
51.0
 40
51.0
 40
52.0
 40
52.0
 40
52.0
 40
53.0
 40
53.0
 40
53.0
 40
54.0
 40
54.0
 40
54.0
 40
55.0
 40
55.0
 40
55.0
 40
56.0
 40
56.0
 40
56.0
 40
57.0
 40
57.0
 40
57.0
 40
58.0
 40
58.0
 40
58.0
 40
59.0
 40
59.0
 40
59.0
 40
60.0
 40
60.0
 40
60.0
 40
61.0
 40
61.0
 40
61.0
 40
62.0
 40
62.0
 40
62.0
 40
63.0
 40
63.0
 40
63.0
 40
64.0
 40
64.0
 40
64.0
 40
65.0
 40
65.0
 40
65.0
 40
66.0
 40
66.0
 40
66.0
 40
67.0
 40
67.0
 40
67.0
 40
68.0
 40
68.0
 40
68.0
 40
69.0
 40
69.0
 40
69.0
 40
70.0
 40
70.0
 40
70.0
 40
71.0
 40
71.0
 40
71.0
 40
72.0
 40
72.0
 40
72.0
 40
73.0
 40
73.0
 40
73.0
 40
74.0
 40
74.0
 40
74.0
 40
75.0
 40
75.0
 40
75.0
 40
76.0
 40
76.0
 40
76.0
 40
77.0
 40
77.0
 40
77.0
 40
78.0
 40
78.0
 40
78.0
 40
79.0
 40
79.0
 40
79.0
 40
80.0
 40
80.0
 40
80.0
 40
81.0
 40
81.0
 40
81.0
 40
82.0
 40
82.0
 40
82.0
 40
83.0
 40
83.0
 40
83.0
 40
84.0
 40
84.0
 40
84.0
 40
85.0
 40
85.0
 40
85.0
 40
86.0
 40
86.0
 40
86.0
 40
87.0
 40
87.0
 40
87.0
 40
88.0
 40
88.0
 40
88.0
 40
89.0
 40
89.0
 40
89.0
 40
90.0
 40
90.0
 40
90.0
 40
91.0
 40
91.0
 40
91.0
 40
92.0
 40
92.0
 40
92.0
 40
93.0
 40
93.0
 40
93.0
 40
94.0
 40
94.0
 40
94.0
 40
95.0
 40
95.0
 40
95.0
 40
96.0
 40
96.0
 40
96.0
 40
97.0
 40
97.0
 40
97.0
 40
98.0
 40
98.0
 40
98.0
 40
99.0
 40
99.0
 40
99.0
 40
100.0
 40
100.0
 40
100.0
 40
101.0
 40
101.0
 40
101.0
 40
102.0
 40
102.0
 40
102.0
 40
103.0
 40
103.0
 40
103.0
 40
104.0
 40
104.0
 40
104.0
 40
105.0
 40
105.0
 40
105.0
 40
106.0
 40
106.0
 40
106.0
 40
107.0
 40
107.0
 40
107.0
 40
108.0
 40
108.0
 40
108.0
 40
109.0
 40
109.0
 40
109.0
 40
110.0
 40
110.0
 40
110.0
 40
111.0
 40
111.0
 40
111.0
 40
112.0
 40
112.0
 40
112.0
 40
113.0
 40
113.0
 40
113.0
 40
114.0
 40
114.0
 40
114.0
 40
115.0
 40
115.0
 40
115.0
 40
116.0
 40
116.0
 40
116.0
 40
117.0
 40
117.0
 40
117.0
 40
117.0
 10
7.267221682109247
 20
27.37554787905108
 30
0.0
 10
13.34281040493863
 20
32.37998105405255
 30
0.0
 10
22.32494409850744
 20
31.51163666255279
 30
0.0
 10
27.32937727350891
 20
25.4360479397234
 30
0.0
 10
27.71713891925887
 20
24.9652864075874
 30
0.0
 10
28.07428497036451
 20
24.47011987286351
 30
0.0
 10
28.39861110401146
 20
23.95360316631404
 30
0.0
 10
28.39861110401146
 20
23.95360316631404
 30
0.0
 10
28.01055608684909
 20
23.95360316631404
 30
0.0
 10
28.01055608684909
 20
23.95360316631404
 30
0.0
 10
27.9715888271339
 20
23.95360316631404
 30
0.0
 10
27.94000160790351
 20
23.92201325560281
 30
0.0
 10
27.94000160790351
 20
23.88304734162804
 30
0.0
 10
27.94000160790351
 20
23.88304734162804
 30
0.0
 10
27.86944712895793
 20
23.77721427746925
 30
0.0
 10
27.86944712895793
 20
23.77721427746925
 30
0.0
 10
27.80353814595574
 20
24.03302069169159
 30
0.0
 10
27.5690321111633
 20
24.20890223639656
 30
0.0
 10
27.30500322295077
 20
24.20054787984483
 30
0.0
 10
27.04811214194674
 20
24.20366192318579
 30
0.0
 10
26.79832657038104
 20
24.11623724228588
 30
0.0
 10
26.5994476675716
 20
23.95360316631404
 30
0.0
 10
26.36711365782337
 20
23.80318975913186
 30
0.0
 10
26.16393107713822
 20
23.61195869915159
 30
0.0
 10
25.99972652209165
 20
23.38915926030688
 30
0.0
 10
25.85638094361593
 20
23.13769151321127
 30
0.0
 10
25.72683997040884
 20
22.87860418383539
 30
0.0
 10
25.61167150492928
 20
22.61304788024171
 30
0.0
 10
25.61167150492928
 20
22.61304788024171
 30
0.0
 10
25.61167150492928
 20
22.61304788024171
 30
0.0
 10
25.61167150492928
 20
22.61304788024171
 30
0.0
 10
25.44248771031418
 20
22.27997981680094
 30
0.0
 10
25.22887025838191
 20
21.97142037796071
 30
0.0
 10
24.97667042849569
 20
21.69582485080453
 30
0.0
 10
24.76500430017811
 20
21.44888148301417
 30
0.0
 10
24.62389265080611
 20
21.34304707311495
 30
0.0
 10
24.55333817186053
 20
21.34304707311495
 30
0.0
 10
24.48278369291495
 20
21.34304707311495
 30
0.0
 10
24.44750376196131
 20
21.37832431258774
 30
0.0
 10
24.44750376196131
 20
21.48415872248696
 30
0.0
 10
24.45590656516831
 20
21.72544728901599
 30
0.0
 10
24.50356730802206
 20
21.96375504050603
 30
0.0
 10
24.58861541133331
 20
22.18971427786612
 30
0.0
 10
24.58861541133331
 20
22.18971427786612
 30
0.0
 10
25.39999999365
 20
24.12999205515883
 30
0.0
 10
25.39999999365
 20
24.12999205515883
 30
0.0
 10
25.39999999365
 20
24.12999205515883
 30
0.0
 10
25.39999999365
 20
24.12999205515883
 30
0.0
 10
25.39999999365
 20
24.12999205515883
 30
0.0
 10
25.39999999365
 20
24.14947568501643
 30
0.0
 10
25.38420638403481
 20
24.16526929463162
 30
0.0
 10
25.36472275417721
 20
24.16526929463162
 30
0.0
 10
25.36472275417721
 20
24.16526929463162
 30
0.0
 10
24.62388995932526
 20
24.16526929463162
 30
0.0
 10
24.62388995932526
 20
24.16526929463162
 30
0.0
 10
24.62388995932526
 20
24.16526929463162
 30
0.0
 10
24.0241688138453
 20
22.68360235918728
 30
0.0
 10
24.0241688138453
 20
22.68360235918728
 30
0.0
 10
23.82945901486919
 20
22.37777477340762
 30
0.0
 10
23.61744568552223
 20
22.08331331124844
 30
0.0
 10
23.38916773741171
 20
21.8016565692229
 30
0.0
 10
23.14222436962135
 20
21.5194332704789
 30
0.0
 10
23.00111272024934
 20
21.41360155206053
 30
0.0
 10
22.86000107087734
 20
21.41360155206053
 30
0.0
 10
22.71888942150534
 20
21.41360155206053
 30
0.0
 10
22.75416666097813
 20
21.44887879153332
 30
0.0
 10
22.75416666097813
 20
21.55471320143253
 30
0.0
 10
22.78195889221304
 20
21.724244197077
 30
0.0
 10
22.82931011476929
 20
21.88998020472599
 30
0.0
 10
22.89527831035013
 20
22.04860262849412
 30
0.0
 10
23.00111272024934
 20
22.2602687568117
 30
0.0
 10
23.1422216781405
 20
22.61304653450128
 30
0.0
 10
23.35389049793893
 20
23.14221320103566
 30
0.0
 10
23.4228812265119
 20
23.3101508400182
 30
0.0
 10
23.45881787879242
 20
23.48982468123779
 30
0.0
 10
23.45972490783814
 20
23.67137986757003
 30
0.0
 10
23.46889209160592
 20
23.82538909316494
 30
0.0
 10
23.41835146424497
 20
23.97700559228611
 30
0.0
 10
23.31861325846614
 20
24.09471346994562
 30
0.0
 10
23.20644310265108
 20
24.20727254474319
 30
0.0
 10
23.05418872256897
 20
24.2707134398079
 30
0.0
 10
22.89528100183098
 20
24.27110235879041
 30
0.0
 10
22.89528100183098
 20
24.27110235879041
 30
0.0
 10
22.64833763404061
 20
24.27110235879041
 30
0.0
 10
22.64833763404061
 20
24.27110235879041
 30
0.0
 10
22.64833763404061
 20
24.27110235879041
 30
0.0
 10
22.36611568103703
 20
24.16526929463162
 30
0.0
 10
22.36611568103703
 20
24.16526929463162
 30
0.0
 10
22.24555483367879
 20
24.1197926884859
 30
0.0
 10
22.13696300165095
 20
24.04739992812124
 30
0.0
 10
22.04861514282023
 20
23.95360316631404
 30
0.0
 10
22.04861514282023
 20
23.95360316631404
 30
0.0
 10
22.15444820697902
 20
24.20054787984483
 30
0.0
 10
22.15444820697902
 20
24.20054787984483
 30
0.0
 10
22.15444820697902
 20
24.20054787984483
 30
0.0
 10
22.15444820697902
 20
24.20054787984483
 30
0.0
 10
22.15444820697902
 20
24.20054787984483
 30
0.0
 10
22.15444820697902
 20
24.22003150970243
 30
0.0
 10
22.13865459736383
 20
24.23582511931762
 30
0.0
 10
22.11917096750623
 20
24.23582511931762
 30
0.0
 10
22.11917096750623
 20
24.23582511931762
 30
0.0
 10
21.37833278969258
 20
24.23582511931762
 30
0.0
 10
21.37833278969258
 20
24.23582511931762
 30
0.0
 10
21.37833278969258
 20
24.23582511931762
 30
0.0
 10
20.77861029847221
 20
22.82471400855929
 30
0.0
 10
20.77861029847221
 20
22.82471400855929
 30
0.0
 10
20.77861029847221
 20
22.82471400855929
 30
0.0
 10
20.77861029847221
 20
22.82471400855929
 30
0.0
 10
20.77861029847221
 20
22.82471400855929
 30
0.0
 10
20.58484790075453
 20
22.47627355225602
 30
0.0
 10
20.36054257837544
 20
22.1457166404463
 30
0.0
 10
20.10833332830625
 20
21.83693650017654
 30
0.0
 10
19.89666719998867
 20
21.58999313238617
 30
0.0
 10
19.75555555061667
 20
21.44888148301417
 30
0.0
 10
19.64972248645788
 20
21.44888148301417
 30
0.0
 10
19.58026344021738
 20
21.47889149446771
 30
0.0
 10
19.53768286746394
 20
21.54986046146386
 30
0.0
 10
19.54388942229909
 20
21.62527037185896
 30
0.0
 10
19.56943022980477
 20
21.85614963620893
 30
0.0
 10
19.62886485562745
 20
22.08200390581596
 30
0.0
 10
19.72027831114388
 20
22.29554868776534
 30
0.0
 10
19.82611137530267
 20
22.61304922598213
 30
0.0
 10
20.07305608883346
 20
23.24804895667529
 30
0.0
 10
20.49638969120905
 20
24.23582646505804
 30
0.0
 10
20.53166693068184
 20
24.23582646505804
 30
0.0
 10
20.53166693068184
 20
24.27110370453083
 30
0.0
 10
20.49638969120905
 20
24.27110370453083
 30
0.0
 10
20.46111245173626
 20
24.27110370453083
 30
0.0
 10
20.49638969120905
 20
24.30638094400362
 30
0.0
 10
20.46111245173626
 20
24.30638094400362
 30
0.0
 10
20.46111245173626
 20
24.30638094400362
 30
0.0
 10
19.82611137530267
 20
24.30638094400362
 30
0.0
 10
19.82611137530267
 20
24.30638094400362
 30
0.0
 10
19.79083413582988
 20
24.30638094400362
 30
0.0
 10
19.75555555061667
 20
24.30638094400362
 30
0.0
 10
19.75555555061667
 20
24.27110370453083
 30
0.0
 10
19.75555555061667
 20
24.27110370453083
 30
0.0
 10
19.15583305939629
 20
22.8599925937725
 30
0.0
 10
19.15583305939629
 20
22.8599925937725
 30
0.0
 10
19.15583305939629
 20
22.8599925937725
 30
0.0
 10
19.15583305939629
 20
22.8599925937725
 30
0.0
 10
19.15583305939629
 20
22.8599925937725
 30
0.0
 10
18.9666932800348
 20
22.48941067027438
 30
0.0
 10
18.72945942940306
 20
22.14542057755303
 30
0.0
 10
18.45027750401712
 20
21.83693650017654
 30
0.0
 10
18.13277696580033
 20
21.76638202123096
 30
0.0
 10
18.02694390164154
 20
21.58999313238617
 30
0.0
 10
18.02694390164154
 20
21.41360424354138
 30
0.0
 10
18.02694390164154
 20
21.41360424354138
 30
0.0
 10
17.56833305979317
 20
21.02554922637901
 30
0.0
 10
17.56833305979317
 20
21.02554922637901
 30
0.0
 10
17.56505618186091
 20
21.06417466802652
 30
0.0
 10
17.57781380107972
 20
21.10244752568297
 30
0.0
 10
17.60361029926596
 20
21.13138363627822
 30
0.0
 10
17.60361029926596
 20
21.13138363627822
 30
0.0
 10
18.87360976065229
 20
24.09471750716689
 30
0.0
 10
18.87360976065229
 20
24.09471750716689
 30
0.0
 10
18.87360976065229
 20
24.09471750716689
 30
0.0
 10
18.87360976065229
 20
24.09471750716689
 30
0.0
 10
18.87360976065229
 20
24.09471750716689
 30
0.0
 10
18.87360976065229
 20
24.12999474663968
 30
0.0
 10
18.87360976065229
 20
24.12999474663968
 30
0.0
 10
18.8383325211795
 20
24.12999474663968
 30
0.0
 10
18.8383325211795
 20
24.12999474663968
 30
0.0
 10
18.20333279048633
 20
24.12999474663968
 30
0.0
 10
18.20333279048633
 20
24.12999474663968
 30
0.0
 10
18.16805555101354
 20
24.12999474663968
 30
0.0
 10
18.13277696580033
 20
24.12999474663968
 30
0.0
 10
18.13277696580033
 20
24.09471750716689
 30
0.0
 10
18.13277696580033
 20
24.09471750716689
 30
0.0
 10
18.06222114111433
 20
23.95360585779489
 30
0.0
 10
18.06222114111433
 20
23.95360585779489
 30
0.0
 10
17.99390328275332
 20
24.22319265395823
 30
0.0
 10
17.73939819952091
 20
24.40284361759062
 30
0.0
 10
17.46249864989395
 20
24.37693946017047
 30
0.0
 10
17.21244662172431
 20
24.37182430081913
 30
0.0
 10
16.96851771248354
 20
24.29864697378732
 30
0.0
 10
16.75694309451479
 20
24.16527333185289
 30
0.0
 10
16.53724155012594
 20
24.01157093507464
 30
0.0
 10
16.34620023954545
 20
23.82052827875372
 30
0.0
 10
16.19250053424804
 20
23.60082538862445
 30
0.0
 10
16.02862030264364
 20
23.36087583381723
 30
0.0
 10
15.89807675282073
 20
23.09978738843098
 30
0.0
 10
15.80444551708567
 20
22.82471400855929
 30
0.0
 10
15.80444551708567
 20
22.82471400855929
 30
0.0
 10
15.80444551708567
 20
22.75415818387329
 30
0.0
 10
15.80444551708567
 20
22.75415818387329
 30
0.0
 10
15.67952581649434
 20
22.52090637915594
 30
0.0
 10
15.53805216294831
 20
22.29690653985308
 30
0.0
 10
15.38111191471009
 20
22.08387986796691
 30
0.0
 10
15.26560163116285
 20
21.91981526992443
 30
0.0
 10
15.13573902599444
 20
21.76634164901824
 30
0.0
 10
14.99305689754772
 20
21.62526768037811
 30
0.0
 10
14.99305689754772
 20
21.62526768037811
 30
0.0
 10
14.78139076923014
 20
21.48415603100611
 30
0.0
 10
14.78139076923014
 20
21.48415603100611
 30
0.0
 10
14.71193172298963
 20
21.51416604245965
 30
0.0
 10
14.6693511502362
 20
21.5851350094558
 30
0.0
 10
14.67555770507134
 20
21.6605449198509
 30
0.0
 10
14.67555770507134
 20
21.94276687285448
 30
0.0
 10
14.92250241860214
 20
22.61304518876086
 30
0.0
 10
15.4163904999233
 20
23.6360999366164
 30
0.0
 10
15.47010169172303
 20
23.70662615501307
 30
0.0
 10
15.49528991523764
 20
23.79478830166529
 30
0.0
 10
15.4869463246093
 20
23.88304465014719
 30
0.0
 10
15.48994732575466
 20
23.96680084265148
 30
0.0
 10
15.47800118801147
 20
24.05042246111337
 30
0.0
 10
15.45166908513651
 20
24.12998936367798
 30
0.0
 10
15.41595851724722
 20
24.21695649283376
 30
0.0
 10
15.35438147266965
 20
24.29084706229025
 30
0.0
 10
15.27528019629172
 20
24.34165549199556
 30
0.0
 10
15.27528019629172
 20
24.34165549199556
 30
0.0
 10
15.09889130744693
 20
24.51804438084035
 30
0.0
 10
15.09889130744693
 20
24.51804438084035
 30
0.0
 10
15.09889130744693
 20
24.51804438084035
 30
0.0
 10
14.85194659391614
 20
24.69443326968515
 30
0.0
 10
14.85194659391614
 20
24.69443326968515
 30
0.0
 10
14.85194659391614
 20
24.69443326968515
 30
0.0
 10
14.78139076923014
 20
24.76498909437115
 30
0.0
 10
14.78139076923014
 20
24.76498909437115
 30
0.0
 10
14.78139076923014
 20
24.76498909437115
 30
0.0
 10
14.78139076923014
 20
24.83554491905715
 30
0.0
 10
14.78139076923014
 20
24.83554491905715
 30
0.0
 10
14.78005983195087
 20
24.92264123929362
 30
0.0
 10
14.75571807916291
 20
25.00783737405151
 30
0.0
 10
14.71083494454413
 20
25.08248963258794
 30
0.0
 10
14.66843200952666
 20
25.15759809712808
 30
0.0
 10
14.58469734886915
 20
25.19946542745684
 30
0.0
 10
14.49916881622655
 20
25.18832269674673
 30
0.0
 10
14.41761156357496
 20
25.18163974980152
 30
0.0
 10
14.34178312790802
 20
25.14372620483826
 30
0.0
 10
14.28750268790897
 20
25.08248963258794
 30
0.0
 10
14.21011184760985
 20
24.99568533802346
 30
0.0
 10
14.17183898995341
 20
24.88086676505412
 30
0.0
 10
14.18166962375018
 20
24.76498909437115
 30
0.0
 10
14.18075855748319
 20
24.66325650128406
 30
0.0
 10
14.23467295608692
 20
24.56890798590305
 30
0.0
 10
14.32278127312219
 20
24.51804438084035
 30
0.0
 10
14.10007603610714
 20
23.98340727948272
 30
0.0
 10
13.84075723937835
 20
23.46476834028472
 30
0.0
 10
13.54666989305702
 20
22.96582162071002
 30
0.0
 10
13.35290749533934
 20
22.61738116440675
 30
0.0
 10
13.12860082721983
 20
22.28682425259703
 30
0.0
 10
12.87639157715064
 20
21.97804411232727
 30
0.0
 10
12.66472544883306
 20
21.73109939879648
 30
0.0
 10
12.52361379946106
 20
21.62526768037811
 30
0.0
 10
12.41778073530227
 20
21.62526768037811
 30
0.0
 10
12.31194767114348
 20
21.62526768037811
 30
0.0
 10
12.31194767114348
 20
21.6605449198509
 30
0.0
 10
12.31194767114348
 20
21.76637932975011
 30
0.0
 10
12.33610505749337
 20
22.00889386580534
 30
0.0
 10
12.39552757165223
 20
22.2465839224408
 30
0.0
 10
12.48833655998827
 20
22.47193488512928
 30
0.0
 10
12.59416962414706
 20
22.75415683813286
 30
0.0
 10
12.84111433767785
 20
23.38915656882603
 30
0.0
 10
13.26444794005344
 20
24.3769354229492
 30
0.0
 10
13.29972517952623
 20
24.3769354229492
 30
0.0
 10
13.29972517952623
 20
24.41221266242199
 30
0.0
 10
13.26444794005344
 20
24.41221266242199
 30
0.0
 10
13.22917070058065
 20
24.41221266242199
 30
0.0
 10
13.26444794005344
 20
24.44748990189478
 30
0.0
 10
13.22917070058065
 20
24.44748990189478
 30
0.0
 10
13.22917070058065
 20
24.44748990189478
 30
0.0
 10
12.52361514520148
 20
24.44748990189478
 30
0.0
 10
12.52361514520148
 20
24.44748990189478
 30
0.0
 10
12.52361514520148
 20
24.44748990189478
 30
0.0
 10
12.41778208104269
 20
24.1652679488912
 30
0.0
 10
12.41778208104269
 20
24.1652679488912
 30
0.0
 10
12.41778208104269
 20
24.1652679488912
 30
0.0
 10
12.34722221913542
 20
24.1652679488912
 30
0.0
 10
12.34722221913542
 20
24.1652679488912
 30
0.0
 10
12.44573983834975
 20
24.44251066232625
 30
0.0
 10
12.52819066264283
 20
24.72520227873778
 30
0.0
 10
12.59416693266621
 20
25.01193515364237
 30
0.0
 10
12.72507517814401
 20
25.43506824069479
 30
0.0
 10
12.79631733044621
 20
25.8743946222683
 30
0.0
 10
12.80583306098379
 20
26.31721320024191
 30
0.0
 10
12.80436889540256
 20
26.49584678411381
 30
0.0
 10
12.7806690607968
 20
26.67360294522931
 30
0.0
 10
12.73527723629779
 20
26.84637986677628
 30
0.0
 10
12.68212318103357
 20
26.98190265616772
 30
0.0
 10
12.59747610836864
 20
27.10282819918084
 30
0.0
 10
12.488332522767
 20
27.19915764446587
 30
0.0
 10
12.4061172030481
 20
27.26689683444459
 30
0.0
 10
12.3096316518739
 20
27.3151402829019
 30
0.0
 10
12.20611056976341
 20
27.34026929383787
 30
0.0
 10
12.20611056976341
 20
27.34026929383787
 30
0.0
 10
11.92388861675983
 20
27.41082511852387
 30
0.0
 10
11.92388861675983
 20
27.41082511852387
 30
0.0
 10
11.92388861675983
 20
27.41082511852387
 30
0.0
 10
11.67694390322904
 20
27.34026929383787
 30
0.0
 10
11.67694390322904
 20
27.34026929383787
 30
0.0
 10
11.60638807854304
 20
27.30499205436508
 30
0.0
 10
11.57111083907025
 20
27.26971346915187
 30
0.0
 10
11.57111083907025
 20
27.19915764446587
 30
0.0
 10
11.56783396113799
 20
27.16053220281835
 30
0.0
 10
11.58059158035681
 20
27.1222593451619
 30
0.0
 10
11.60638807854304
 20
27.09332458030708
 30
0.0
 10
11.60638807854304
 20
27.09332458030708
 30
0.0
 10
11.71222114270183
 20
26.98749151614829
 30
0.0
 10
11.71222114270183
 20
26.98749151614829
 30
0.0
 10
11.76560262809769
 20
26.90123762941719
 30
0.0
 10
11.80155812074414
 20
26.80535631569333
 30
0.0
 10
11.81805420686062
 20
26.7052695631447
 30
0.0
 10
11.84992941454172
 20
26.53079970014443
 30
0.0
 10
11.86176520157015
 20
26.35326020323718
 30
0.0
 10
11.85333144633341
 20
26.17610289661033
 30
0.0
 10
11.82892644374551
 20
25.5503295622636
 30
0.0
 10
11.70998721359811
 20
24.93184879527412
 30
0.0
 10
11.50055366864382
 20
24.34165818347641
 30
0.0
 10
11.3011916450222
 20
23.67867108918686
 30
0.0
 10
11.02907216538102
 20
23.03978216866855
 30
0.0
 10
10.68916504910587
 20
22.43665764565649
 30
0.0
 10
10.40308889552816
 20
21.90909510170744
 30
0.0
 10
10.04709547109561
 20
21.42257225772642
 30
0.0
 10
9.630831716037116
 20
20.99026929542537
 30
0.0
 10
9.340632213800504
 20
20.65891570528468
 30
0.0
 10
8.938963686509698
 20
20.44552972070533
 30
0.0
 10
8.501942558282366
 20
20.39054814994542
 30
0.0
 10
8.429269211039317
 20
20.41698118335216
 30
0.0
 10
8.367294500166478
 20
20.46656095205044
 30
0.0
 10
8.325553669437573
 20
20.53165979931742
 30
0.0
 10
8.278045668121935
 20
20.64315439343967
 30
0.0
 10
8.254027565905922
 20
20.76324557738995
 30
0.0
 10
8.254997844751571
 20
20.884437577007
 30
0.0
 10
8.302407607016264
 20
21.3283246728772
 30
0.0
 10
8.3970165231693
 20
21.76589217171665
 30
0.0
 10
8.537219797755155
 20
22.18971562360655
 30
0.0
 10
8.671001871908246
 20
22.73214456201871
 30
0.0
 10
8.847955298860875
 20
23.26300282426596
 30
0.0
 10
9.066386464289529
 20
23.77721562320967
 30
0.0
 10
9.066386464289529
 20
23.77721562320967
 30
0.0
 10
9.595553130823903
 20
25.32943838334001
 30
0.0
 10
9.595553130823903
 20
25.32943838334001
 30
0.0
 10
9.720538772696004
 20
25.69511642873334
 30
0.0
 10
9.803389954765203
 20
26.07386295938342
 30
0.0
 10
9.842497844354698
 20
26.45832754109476
 30
0.0
 10
9.86492124416836
 20
26.78381101150628
 30
0.0
 10
9.749737302673921
 20
27.10376752599674
 30
0.0
 10
9.524997979008115
 20
27.34027198531872
 30
0.0
 10
9.284179075887032
 20
27.55791858408022
 30
0.0
 10
8.967340641958808
 20
27.67198085093132
 30
0.0
 10
8.643053534784157
 20
27.65777252353551
 30
0.0
 10
8.161367281886728
 20
27.66457658711888
 30
0.0
 10
7.682691450317622
 20
27.58080828295078
 30
0.0
 10
7.231942424025823
 20
27.41082781000472
 30
0.0
 10
7.231942424025823
 20
27.41082781000472
 30
0.0
 10
7.267220336368823
 20
27.41082781000472
 30
0.0
 10
7.267220336368823
 20
27.41082781000472
 30
0.0
 10
7.267220336368823
 20
27.41082781000472
 30
0.0
 10
7.267221682109247
 20
27.37554787905108
 30
0.0
 10
7.267221682109247
 20
27.37554787905108
 30
0.0
  0
SPLINE
  5
94
330
49
100
AcDbEntity
  8
Layer 1
370
     0
100
AcDbSpline
210
0.0
220
0.0
230
1.0
 70
    11
 71
     3
 72
   236
 73
   232
 74
     0
 42
0.0000000001
 43
0.0000000001
 12
1.0
 22
0.0
 32
0.0
 13
1.0
 23
0.0
 33
0.0
 40
0.0
 40
0.0
 40
0.0
 40
0.0
 40
1.0
 40
1.0
 40
1.0
 40
2.0
 40
2.0
 40
2.0
 40
3.0
 40
3.0
 40
3.0
 40
4.0
 40
4.0
 40
4.0
 40
5.0
 40
5.0
 40
5.0
 40
6.0
 40
6.0
 40
6.0
 40
7.0
 40
7.0
 40
7.0
 40
8.0
 40
8.0
 40
8.0
 40
9.0
 40
9.0
 40
9.0
 40
10.0
 40
10.0
 40
10.0
 40
11.0
 40
11.0
 40
11.0
 40
12.0
 40
12.0
 40
12.0
 40
13.0
 40
13.0
 40
13.0
 40
14.0
 40
14.0
 40
14.0
 40
15.0
 40
15.0
 40
15.0
 40
16.0
 40
16.0
 40
16.0
 40
17.0
 40
17.0
 40
17.0
 40
18.0
 40
18.0
 40
18.0
 40
19.0
 40
19.0
 40
19.0
 40
20.0
 40
20.0
 40
20.0
 40
21.0
 40
21.0
 40
21.0
 40
22.0
 40
22.0
 40
22.0
 40
23.0
 40
23.0
 40
23.0
 40
24.0
 40
24.0
 40
24.0
 40
25.0
 40
25.0
 40
25.0
 40
26.0
 40
26.0
 40
26.0
 40
27.0
 40
27.0
 40
27.0
 40
28.0
 40
28.0
 40
28.0
 40
29.0
 40
29.0
 40
29.0
 40
30.0
 40
30.0
 40
30.0
 40
31.0
 40
31.0
 40
31.0
 40
32.0
 40
32.0
 40
32.0
 40
33.0
 40
33.0
 40
33.0
 40
34.0
 40
34.0
 40
34.0
 40
35.0
 40
35.0
 40
35.0
 40
36.0
 40
36.0
 40
36.0
 40
37.0
 40
37.0
 40
37.0
 40
38.0
 40
38.0
 40
38.0
 40
39.0
 40
39.0
 40
39.0
 40
40.0
 40
40.0
 40
40.0
 40
41.0
 40
41.0
 40
41.0
 40
42.0
 40
42.0
 40
42.0
 40
43.0
 40
43.0
 40
43.0
 40
44.0
 40
44.0
 40
44.0
 40
45.0
 40
45.0
 40
45.0
 40
46.0
 40
46.0
 40
46.0
 40
47.0
 40
47.0
 40
47.0
 40
48.0
 40
48.0
 40
48.0
 40
49.0
 40
49.0
 40
49.0
 40
50.0
 40
50.0
 40
50.0
 40
51.0
 40
51.0
 40
51.0
 40
52.0
 40
52.0
 40
52.0
 40
53.0
 40
53.0
 40
53.0
 40
54.0
 40
54.0
 40
54.0
 40
55.0
 40
55.0
 40
55.0
 40
56.0
 40
56.0
 40
56.0
 40
57.0
 40
57.0
 40
57.0
 40
58.0
 40
58.0
 40
58.0
 40
59.0
 40
59.0
 40
59.0
 40
60.0
 40
60.0
 40
60.0
 40
61.0
 40
61.0
 40
61.0
 40
62.0
 40
62.0
 40
62.0
 40
63.0
 40
63.0
 40
63.0
 40
64.0
 40
64.0
 40
64.0
 40
65.0
 40
65.0
 40
65.0
 40
66.0
 40
66.0
 40
66.0
 40
67.0
 40
67.0
 40
67.0
 40
68.0
 40
68.0
 40
68.0
 40
69.0
 40
69.0
 40
69.0
 40
70.0
 40
70.0
 40
70.0
 40
71.0
 40
71.0
 40
71.0
 40
72.0
 40
72.0
 40
72.0
 40
73.0
 40
73.0
 40
73.0
 40
74.0
 40
74.0
 40
74.0
 40
75.0
 40
75.0
 40
75.0
 40
76.0
 40
76.0
 40
76.0
 40
77.0
 40
77.0
 40
77.0
 40
77.0
 10
13.51138861636296
 20
15.48693650176404
 30
0.0
 10
13.26444390283216
 20
14.2522142798505
 30
0.0
 10
13.15861083867337
 20
14.32276875879607
 30
0.0
 10
13.15861083867337
 20
14.32276875879607
 30
0.0
 10
12.41777804382142
 20
14.81665818585766
 30
0.0
 10
11.57111083907025
 20
15.23999044249282
 30
0.0
 10
11.42999918969825
 20
14.81665818585766
 30
0.0
 10
11.28888754032624
 20
14.3933259292225
 30
0.0
 10
11.25361030085345
 20
14.3933259292225
 30
0.0
 10
12.13555474507741
 20
13.89943650216091
 30
0.0
 10
12.13555474507741
 20
13.89943650216091
 30
0.0
 10
13.01749918930137
 20
13.47610424552575
 30
0.0
 10
13.01749918930137
 20
13.47610424552575
 30
0.0
 10
11.81805420686062
 20
12.8763831000458
 30
0.0
 10
12.2413878092362
 20
12.417770912457
 30
0.0
 10
12.2413878092362
 20
12.417770912457
 30
0.0
 10
12.2413878092362
 20
12.417770912457
 30
0.0
 10
13.40555420646374
 20
13.29971535668096
 30
0.0
 10
13.51138727062253
 20
13.22916087773538
 30
0.0
 10
13.51138727062253
 20
13.22916087773538
 30
0.0
 10
14.2169428260017
 20
12.94693757899138
 30
0.0
 10
14.2169428260017
 20
12.94693757899138
 30
0.0
 10
14.18166558652891
 20
12.91166033951859
 30
0.0
 10
14.18166558652891
 20
12.91166033951859
 30
0.0
 10
13.96999811247091
 20
12.17082754466663
 30
0.0
 10
13.7583306384129
 20
11.42999474981468
 30
0.0
 10
14.0758311766297
 20
10.51277306611793
 30
0.0
 10
14.0758311766297
 20
10.51277306611793
 30
0.0
 10
13.25891156394941
 20
9.89589911319462
 30
0.0
 10
12.59500263746947
 20
9.099207324826356
 30
0.0
 10
12.13555339933699
 20
8.184440271662849
 30
0.0
 10
12.13555339933699
 20
8.184440271662849
 30
0.0
 10
10.65388646389265
 20
10.68916195496272
 30
0.0
 10
10.65388646389265
 20
10.68916195496272
 30
0.0
 10
10.59307649135672
 20
10.76526895889742
 30
0.0
 10
10.60547614362277
 20
10.87626024610111
 30
0.0
 10
10.68158247468726
 20
10.93707156437747
 30
0.0
 10
10.72337848077354
 20
10.97046745873761
 30
0.0
 10
10.77807206308273
 20
10.98308781243318
 30
0.0
 10
10.83027535273744
 20
10.97138525370673
 30
0.0
 10
10.83027535273744
 20
10.97138525370673
 30
0.0
 10
11.67694255748862
 20
10.97138525370673
 30
0.0
 10
11.67694255748862
 20
10.97138525370673
 30
0.0
 10
11.85333144633341
 20
10.97138525370673
 30
0.0
 10
11.92388727101941
 20
11.07721966360594
 30
0.0
 10
11.85333144633341
 20
11.2183286214971
 30
0.0
 10
11.85333144633341
 20
11.2183286214971
 30
0.0
 10
9.9836094937267
 20
14.35805138123056
 30
0.0
 10
9.9836094937267
 20
14.35805138123056
 30
0.0
 10
9.922799521190768
 20
14.43415838516525
 30
0.0
 10
9.93519917345682
 20
14.54514967236895
 30
0.0
 10
10.0113055045213
 20
14.60596099064531
 30
0.0
 10
10.05310151060759
 20
14.63935688500545
 30
0.0
 10
10.10779509291678
 20
14.65197723870102
 30
0.0
 10
10.15999838257149
 20
14.64027467997456
 30
0.0
 10
10.15999838257149
 20
14.64027467997456
 30
0.0
 10
10.83027602560766
 20
14.64027467997456
 30
0.0
 10
10.83027602560766
 20
14.64027467997456
 30
0.0
 10
11.00666491445245
 20
14.64027467997456
 30
0.0
 10
11.07722073913845
 20
14.74610908987378
 30
0.0
 10
11.00666491445245
 20
14.92249797871857
 30
0.0
 10
11.00666491445245
 20
14.92249797871857
 30
0.0
 10
8.219721951019208
 20
19.57915818466704
 30
0.0
 10
8.219721951019208
 20
19.57915818466704
 30
0.0
 10
8.219721951019208
 20
19.57915818466704
 30
0.0
 10
8.219721951019208
 20
19.57915818466704
 30
0.0
 10
8.219721951019208
 20
19.57915818466704
 30
0.0
 10
8.616489964556287
 20
19.58996986323286
 30
0.0
 10
9.004376091295455
 20
19.69906365643882
 30
0.0
 10
9.348611108773959
 20
19.89665872288383
 30
0.0
 10
9.760482367088755
 20
20.12655694246476
 30
0.0
 10
10.13028510688142
 20
20.42478647781093
 30
0.0
 10
10.44222235418571
 20
20.77860316710779
 30
0.0
 10
10.78405051491602
 20
21.16210150719475
 30
0.0
 10
11.09100650404115
 20
21.57531110436114
 30
0.0
 10
11.35944471075267
 20
22.01332538902133
 30
0.0
 10
11.54490119857387
 20
22.30738582053419
 30
0.0
 10
11.70991992657692
 20
22.61384859579394
 30
0.0
 10
11.85333413781425
 20
22.93054707271808
 30
0.0
 10
11.85333413781425
 20
22.93054707271808
 30
0.0
 10
11.85333413781425
 20
22.85999124803207
 30
0.0
 10
11.85333413781425
 20
22.85999124803207
 30
0.0
 10
11.85333413781425
 20
22.85999124803207
 30
0.0
 10
11.85333413781425
 20
22.85999124803207
 30
0.0
 10
11.85333413781425
 20
22.85999124803207
 30
0.0
 10
11.79312705698824
 20
22.77724974380743
 30
0.0
 10
11.75654444930425
 20
22.67969702047705
 30
0.0
 10
11.74750107365547
 20
22.57776929502849
 30
0.0
 10
11.65096303860473
 20
22.35366179649172
 30
0.0
 10
11.59139518448008
 20
22.11538499703143
 30
0.0
 10
11.57111218481067
 20
21.87221373964933
 30
0.0
 10
11.57111218481067
 20
21.68138774753666
 30
0.0
 10
11.63300547838787
 20
21.49570786680508
 30
0.0
 10
11.74750107365547
 20
21.34304707311495
 30
0.0
 10
11.8434146851495
 20
21.20506830744985
 30
0.0
 10
12.00290376575063
 20
21.1253251128897
 30
0.0
 10
12.17083467603105
 20
21.13138094479737
 30
0.0
 10
12.17083467603105
 20
21.13138094479737
 30
0.0
 10
12.45305662903463
 20
21.13138094479737
 30
0.0
 10
12.45305662903463
 20
21.13138094479737
 30
0.0
 10
12.45305662903463
 20
21.13138094479737
 30
0.0
 10
12.77055716725143
 20
21.34304707311495
 30
0.0
 10
12.77055716725143
 20
21.34304707311495
 30
0.0
 10
12.95007624832227
 20
21.47042409572037
 30
0.0
 10
13.09546735224236
 20
21.64004929319451
 30
0.0
 10
13.19388942388659
 20
21.83693650017654
 30
0.0
 10
13.19388942388659
 20
21.83693650017654
 30
0.0
 10
13.58194444104896
 20
22.43665899139691
 30
0.0
 10
13.58194444104896
 20
22.43665899139691
 30
0.0
 10
13.58194444104896
 20
22.43665899139691
 30
0.0
 10
13.58194444104896
 20
22.43665899139691
 30
0.0
 10
13.58194444104896
 20
22.43665899139691
 30
0.0
 10
13.58194444104896
 20
22.43665899139691
 30
0.0
 10
13.68777750520775
 20
22.61304788024171
 30
0.0
 10
13.68777750520775
 20
22.61304788024171
 30
0.0
 10
13.68777750520775
 20
22.61304788024171
 30
0.0
 10
13.68777750520775
 20
22.68360370492771
 30
0.0
 10
13.68777750520775
 20
22.68360370492771
 30
0.0
 10
13.68777750520775
 20
22.68360370492771
 30
0.0
 10
13.68777750520775
 20
22.68360370492771
 30
0.0
 10
13.68777750520775
 20
22.68360370492771
 30
0.0
 10
14.06407344254586
 20
23.3421215952694
 30
0.0
 10
14.34629674128986
 20
23.87128826180377
 30
0.0
 10
14.53444470995892
 20
24.27110370453083
 30
0.0
 10
14.67555635933092
 20
24.16527064037204
 30
0.0
 10
14.7461108382765
 20
24.05943757621325
 30
0.0
 10
14.71083359880371
 20
23.95360316631404
 30
0.0
 10
14.71305272476276
 20
23.89285509783761
 30
0.0
 10
14.70096932149633
 20
23.83243539002461
 30
0.0
 10
14.67555635933092
 20
23.77721427746925
 30
0.0
 10
14.45919763415511
 20
23.35487114004567
 30
0.0
 10
14.27064863483973
 20
22.91885124269374
 30
0.0
 10
14.11111110758333
 20
22.47193623086971
 30
0.0
 10
14.01935448825881
 20
22.23564439853471
 30
0.0
 10
13.97153360229461
 20
21.98457902782585
 30
0.0
 10
13.96999945821133
 20
21.73110209027733
 30
0.0
 10
13.95663221858048
 20
21.55491237101527
 30
0.0
 10
14.00668030494627
 20
21.3797454144754
 30
0.0
 10
14.11111110758333
 20
21.23721266321574
 30
0.0
 10
14.20702471907737
 20
21.09923389755063
 30
0.0
 10
14.3665137996785
 20
21.01949070299049
 30
0.0
 10
14.53444470995892
 20
21.02554653489816
 30
0.0
 10
14.53444470995892
 20
21.02554653489816
 30
0.0
 10
14.8166666629625
 20
21.02554653489816
 30
0.0
 10
14.8166666629625
 20
21.02554653489816
 30
0.0
 10
14.93722751032073
 20
21.07102179530346
 30
0.0
 10
15.04581934234857
 20
21.14341724714896
 30
0.0
 10
15.1341672011793
 20
21.23721266321574
 30
0.0
 10
15.30071199882307
 20
21.37821396187298
 30
0.0
 10
15.44362963184398
 20
21.54495120039737
 30
0.0
 10
15.55750080355488
 20
21.73110209027733
 30
0.0
 10
15.55750080355488
 20
21.73110209027733
 30
0.0
 10
15.66333386771367
 20
21.87221373964933
 30
0.0
 10
15.66333386771367
 20
21.87221373964933
 30
0.0
 10
15.65035016410364
 20
21.67395387743489
 30
0.0
 10
15.69969039100645
 20
21.47659566130449
 30
0.0
 10
15.80444551708567
 20
21.30776983364216
 30
0.0
 10
15.92656338611439
 20
21.13563079305613
 30
0.0
 10
16.12262699995697
 20
21.0310613791554
 30
0.0
 10
16.33361218362005
 20
21.02554653489816
 30
0.0
 10
16.54868841817186
 20
21.02201262054493
 30
0.0
 10
16.75468090486217
 20
21.11213416525439
 30
0.0
 10
16.89805608962721
 20
21.27248990268853
 30
0.0
 10
16.89805608962721
 20
21.27248990268853
 30
0.0
 10
16.82750026494121
 20
21.13137825331652
 30
0.0
 10
16.82750026494121
 20
21.13137825331652
 30
0.0
 10
16.7920588451367
 20
21.05294850141013
 30
0.0
 10
16.76828768628848
 20
20.9697521369222
 30
0.0
 10
16.75694444025521
 20
20.88443488552615
 30
0.0
 10
16.68638861556921
 20
20.74332323615415
 30
0.0
 10
16.65111137609642
 20
20.63749151773579
 30
0.0
 10
16.61583279088321
 20
20.63749151773579
 30
0.0
 10
16.61583279088321
 20
20.63749151773579
 30
0.0
 10
16.26305501319362
 20
20.53165710783657
 30
0.0
 10
16.26305501319362
 20
20.53165710783657
 30
0.0
 10
16.26305501319362
 20
20.53165710783657
 30
0.0
 10
15.73388834665925
 20
20.42582269793736
 30
0.0
 10
15.73388834665925
 20
20.42582269793736
 30
0.0
 10
15.73388834665925
 20
20.42582269793736
 30
0.0
 10
15.69861110718646
 20
20.42582269793736
 30
0.0
 10
15.69861110718646
 20
20.42582269793736
 30
0.0
 10
15.69861110718646
 20
20.42582269793736
 30
0.0
 10
15.27527750481087
 20
20.31998828803814
 30
0.0
 10
15.27527750481087
 20
20.31998828803814
 30
0.0
 10
15.14265613177342
 20
20.29790468768152
 30
0.0
 10
15.01974023867331
 20
20.23644741400168
 30
0.0
 10
14.92249972712129
 20
20.14359939919335
 30
0.0
 10
14.92249972712129
 20
20.14359939919335
 30
0.0
 10
14.78138807774929
 20
19.93193327087577
 30
0.0
 10
14.78138807774929
 20
19.93193327087577
 30
0.0
 10
14.72512132488453
 20
19.8361300100965
 30
0.0
 10
14.70043640828846
 20
19.72504990402482
 30
0.0
 10
14.71083225306329
 20
19.61443273265898
 30
0.0
 10
14.66898376310047
 20
19.3910505882107
 30
0.0
 10
14.74970665668923
 20
19.16233662020283
 30
0.0
 10
14.92249838138087
 20
19.01471158717902
 30
0.0
 10
15.07678213802225
 20
18.84881139919831
 30
0.0
 10
15.29585253015227
 20
18.75860641858257
 30
0.0
 10
15.52222087260124
 20
18.76776821938865
 30
0.0
 10
15.52222087260124
 20
18.76776821938865
 30
0.0
 10
15.94555447497683
 20
18.76776821938865
 30
0.0
 10
15.94555447497683
 20
18.76776821938865
 30
0.0
 10
15.94555447497683
 20
18.76776821938865
 30
0.0
 10
16.15722060329441
 20
18.87360262928787
 30
0.0
 10
16.15722060329441
 20
18.87360262928787
 30
0.0
 10
16.50999838098399
 20
18.13276983443591
 30
0.0
 10
16.50999838098399
 20
18.09749259496312
 30
0.0
 10
16.4747211415112
 20
17.99165818506391
 30
0.0
 10
14.78138807774929
 20
18.30915872328071
 30
0.0
 10
14.74610949253607
 20
17.67415764684712
 30
0.0
 10
14.74610949253607
 20
17.67415764684712
 30
0.0
 10
14.71083225306329
 20
17.03915657041353
 30
0.0
 10
16.05138753913562
 20
17.28610262968474
 30
0.0
 10
15.98083171444962
 20
17.07443650136716
 30
0.0
 10
15.35684821486671
 20
16.68468046830895
 30
0.0
 10
14.89362955780681
 20
16.08374815644746
 30
0.0
 10
14.67555366785007
 20
15.38110209186482
 30
0.0
 10
15.55749811207403
 20
14.39332323774165
 30
0.0
 10
15.55749811207403
 20
14.39332323774165
 30
0.0
 10
15.02833144553966
 20
14.21693434889686
 30
0.0
 10
14.78718149027429
 20
13.9929008660834
 30
0.0
 10
14.58456546630761
 20
13.73068872744317
 30
0.0
 10
14.42860895431928
 20
13.44082431457212
 30
0.0
 10
14.42860895431928
 20
13.44082431457212
 30
0.0
 10
13.79360922362611
 20
13.86415657120728
 30
0.0
 10
13.79360922362611
 20
13.86415657120728
 30
0.0
 10
13.79360922362611
 20
13.86415657120728
 30
0.0
 10
13.68777615946733
 20
13.93471105015285
 30
0.0
 10
14.56972060369128
 20
15.20471320302003
 30
0.0
 10
14.56972060369128
 20
15.20471320302003
 30
0.0
 10
13.51138861636296
 20
15.48693650176404
 30
0.0
 10
13.51138861636296
 20
15.48693650176404
 30
0.0
  0
SPLINE
  5
95
330
49
100
AcDbEntity
  8
Layer 1
370
     0
100
AcDbSpline
210
0.0
220
0.0
230
1.0
 70
    11
 71
     3
 72
    23
 73
    19
 74
     0
 42
0.0000000001
 43
0.0000000001
 12
1.0
 22
0.0
 32
0.0
 13
1.0
 23
0.0
 33
0.0
 40
0.0
 40
0.0
 40
0.0
 40
0.0
 40
1.0
 40
1.0
 40
1.0
 40
2.0
 40
2.0
 40
2.0
 40
3.0
 40
3.0
 40
3.0
 40
4.0
 40
4.0
 40
4.0
 40
5.0
 40
5.0
 40
5.0
 40
6.0
 40
6.0
 40
6.0
 40
6.0
 10
9.383889021116959
 20
10.23054707589308
 30
0.0
 10
8.974738177069128
 20
10.23054707589308
 30
0.0
 10
8.643055553394792
 20
10.5622290266972
 30
0.0
 10
8.643055553394792
 20
10.97137987074503
 30
0.0
 10
8.64256839536133
 20
11.36104708493527
 30
0.0
 10
8.958061088865628
 20
11.67733107380883
 30
0.0
 10
9.347728303055863
 20
11.67781823184229
 30
0.0
 10
9.359787482994662
 20
11.67783168924653
 30
0.0
 10
9.371844644322824
 20
11.67753831783412
 30
0.0
 10
9.383889021116959
 20
11.6769354261242
 30
0.0
 10
9.783298050235993
 20
11.7656870070821
 30
0.0
 10
10.17903051651686
 20
11.51385052711034
 30
0.0
 10
10.26778209747476
 20
11.11444015225088
 30
0.0
 10
10.35653367843266
 20
10.71502977739142
 30
0.0
 10
10.10469585272048
 20
10.31929865685098
 30
0.0
 10
9.705286823601442
 20
10.23054707589308
 30
0.0
 10
9.599445012129896
 20
10.20702891624455
 30
0.0
 10
9.489730832588505
 20
10.20702891624455
 30
0.0
 10
9.383889021116959
 20
10.23054707589308
 30
0.0
  0
SPLINE
  5
96
330
49
100
AcDbEntity
  8
Layer 1
370
     0
100
AcDbSpline
210
0.0
220
0.0
230
1.0
 70
    11
 71
     3
 72
    23
 73
    19
 74
     0
 42
0.0000000001
 43
0.0000000001
 12
1.0
 22
0.0
 32
0.0
 13
1.0
 23
0.0
 33
0.0
 40
0.0
 40
0.0
 40
0.0
 40
0.0
 40
1.0
 40
1.0
 40
1.0
 40
2.0
 40
2.0
 40
2.0
 40
3.0
 40
3.0
 40
3.0
 40
4.0
 40
4.0
 40
4.0
 40
5.0
 40
5.0
 40
5.0
 40
6.0
 40
6.0
 40
6.0
 40
6.0
 10
9.701388886463542
 20
9.348602631669118
 30
0.0
 10
9.702276402273121
 20
9.134288086197252
 30
0.0
 10
9.529258593190264
 20
8.959831680601217
 30
0.0
 10
9.314943374848186
 20
8.958943491921426
 30
0.0
 10
9.30262850422884
 20
8.958892353785318
 30
0.0
 10
9.290319016571193
 20
8.95942795847404
 30
0.0
 10
9.278055284087957
 20
8.960547614506746
 30
0.0
 10
9.063738720005455
 20
8.96090558145951
 30
0.0
 10
8.890291619727366
 20
9.134936733081584
 30
0.0
 10
8.890650259550341
 20
9.349253970034297
 30
0.0
 10
8.891008226503105
 20
9.563062517106768
 30
0.0
 10
9.064246064145275
 20
9.736299681878727
 30
0.0
 10
9.278055284087957
 20
9.73665764883149
 30
0.0
 10
9.491485005231093
 20
9.756143970169935
 30
0.0
 10
9.680299788280202
 20
9.598921116442693
 30
0.0
 10
9.699784763878222
 20
9.385489376688922
 30
0.0
 10
9.700904419910929
 20
9.373226989946112
 30
0.0
 10
9.701440024599652
 20
9.360916156548038
 30
0.0
 10
9.701388886463542
 20
9.348602631669118
 30
0.0
  0
SPLINE
  5
97
330
49
100
AcDbEntity
  8
Layer 1
370
     0
100
AcDbSpline
210
0.0
220
0.0
230
1.0
 70
    11
 71
     3
 72
    20
 73
    16
 74
     0
 42
0.0000000001
 43
0.0000000001
 12
1.0
 22
0.0
 32
0.0
 13
1.0
 23
0.0
 33
0.0
 40
0.0
 40
0.0
 40
0.0
 40
0.0
 40
1.0
 40
1.0
 40
1.0
 40
2.0
 40
2.0
 40
2.0
 40
3.0
 40
3.0
 40
3.0
 40
4.0
 40
4.0
 40
4.0
 40
5.0
 40
5.0
 40
5.0
 40
5.0
 10
7.972777910358626
 20
14.0758253910057
 30
0.0
 10
7.563627066310795
 20
14.0758253910057
 30
0.0
 10
7.231944442636459
 20
14.40750734180983
 30
0.0
 10
7.231944442636459
 20
14.81665818585766
 30
0.0
 10
7.231944442636459
 20
15.22580902990549
 30
0.0
 10
7.563627066310795
 20
15.55749098070962
 30
0.0
 10
7.972777910358626
 20
15.55749098070962
 30
0.0
 10
8.381464473960204
 20
15.57697461056721
 30
0.0
 10
8.728565245671456
 20
15.26146307669698
 30
0.0
 10
8.748049548399264
 20
14.85277785883583
 30
0.0
 10
8.748622833819857
 20
14.84074693944593
 30
0.0
 10
8.748902747828033
 20
14.8287025626518
 30
0.0
 10
8.748889290423794
 20
14.81665818585766
 30
0.0
 10
8.730015280978236
 20
14.40186061499104
 30
0.0
 10
8.388004772420482
 20
14.07539475407005
 30
0.0
 10
7.972777910358626
 20
14.0758253910057
 30
0.0
  0
SPLINE
  5
98
330
49
100
AcDbEntity
  8
Layer 1
370
     0
100
AcDbSpline
210
0.0
220
0.0
230
1.0
 70
    11
 71
     3
 72
    23
 73
    19
 74
     0
 42
0.0000000001
 43
0.0000000001
 12
1.0
 22
0.0
 32
0.0
 13
1.0
 23
0.0
 33
0.0
 40
0.0
 40
0.0
 40
0.0
 40
0.0
 40
1.0
 40
1.0
 40
1.0
 40
2.0
 40
2.0
 40
2.0
 40
3.0
 40
3.0
 40
3.0
 40
4.0
 40
4.0
 40
4.0
 40
5.0
 40
5.0
 40
5.0
 40
6.0
 40
6.0
 40
6.0
 40
6.0
 10
8.431388752206999
 20
7.337770375430832
 30
0.0
 10
8.43227626801658
 20
7.123455829958966
 30
0.0
 10
8.25925845893372
 20
6.948999424362932
 30
0.0
 10
8.044943240591643
 20
6.94811123568314
 30
0.0
 10
8.032628369972299
 20
6.948060097547032
 30
0.0
 10
8.02031888231465
 20
6.948595702235754
 30
0.0
 10
8.008055149831415
 20
6.949715358268461
 30
0.0
 10
7.793738585748913
 20
6.950073325221224
 30
0.0
 10
7.620291485470823
 20
7.124104476843298
 30
0.0
 10
7.620650125293799
 20
7.338421713796012
 30
0.0
 10
7.621008092246563
 20
7.552230260868482
 30
0.0
 10
7.794245929888732
 20
7.72546742564044
 30
0.0
 10
8.008055149831415
 20
7.725825392593205
 30
0.0
 10
8.22148487097455
 20
7.745311713931649
 30
0.0
 10
8.41029965402366
 20
7.588088860204407
 30
0.0
 10
8.42978462962168
 20
7.374657120450636
 30
0.0
 10
8.430904285654387
 20
7.362394733707825
 30
0.0
 10
8.431439890343109
 20
7.350083900309753
 30
0.0
 10
8.431388752206999
 20
7.337770375430832
 30
0.0
  0
SPLINE
  5
99
330
49
100
AcDbEntity
  8
Layer 1
370
     0
100
AcDbSpline
210
0.0
220
0.0
230
1.0
 70
    11
 71
     3
 72
    23
 73
    19
 74
     0
 42
0.0000000001
 43
0.0000000001
 12
1.0
 22
0.0
 32
0.0
 13
1.0
 23
0.0
 33
0.0
 40
0.0
 40
0.0
 40
0.0
 40
0.0
 40
1.0
 40
1.0
 40
1.0
 40
2.0
 40
2.0
 40
2.0
 40
3.0
 40
3.0
 40
3.0
 40
4.0
 40
4.0
 40
4.0
 40
5.0
 40
5.0
 40
5.0
 40
6.0
 40
6.0
 40
6.0
 40
6.0
 10
8.32555568804821
 20
17.42721427905675
 30
0.0
 10
8.326443203857789
 20
17.21289973358488
 30
0.0
 10
8.153425394774931
 20
17.03844332798884
 30
0.0
 10
7.939110176432853
 20
17.03755513930906
 30
0.0
 10
7.926795305813508
 20
17.03750400117294
 30
0.0
 10
7.914485818155859
 20
17.03803960586167
 30
0.0
 10
7.902222085672625
 20
17.03915926189437
 30
0.0
 10
7.687905521590123
 20
17.03951722884714
 30
0.0
 10
7.514458421312033
 20
17.21354838046921
 30
0.0
 10
7.514817061135009
 20
17.42786561742193
 30
0.0
 10
7.515175028087773
 20
17.6416741644944
 30
0.0
 10
7.688412865729942
 20
17.81491132926636
 30
0.0
 10
7.902222085672625
 20
17.81526929621912
 30
0.0
 10
8.11565180681576
 20
17.83475561755756
 30
0.0
 10
8.30446658986487
 20
17.67753276383032
 30
0.0
 10
8.32395156546289
 20
17.46410102407655
 30
0.0
 10
8.325071221495596
 20
17.45183863733374
 30
0.0
 10
8.325606826184318
 20
17.43952780393567
 30
0.0
 10
8.32555568804821
 20
17.42721427905675
 30
0.0
  0
SPLINE
  5
9A
330
49
100
AcDbEntity
  8
Layer 1
370
     0
100
AcDbSpline
210
0.0
220
0.0
230
1.0
 70
    11
 71
     3
 72
    20
 73
    16
 74
     0
 42
0.0000000001
 43
0.0000000001
 12
1.0
 22
0.0
 32
0.0
 13
1.0
 23
0.0
 33
0.0
 40
0.0
 40
0.0
 40
0.0
 40
0.0
 40
1.0
 40
1.0
 40
1.0
 40
2.0
 40
2.0
 40
2.0
 40
3.0
 40
3.0
 40
3.0
 40
4.0
 40
4.0
 40
4.0
 40
5.0
 40
5.0
 40
5.0
 40
5.0
 10
9.348611108773959
 20
13.44082431457212
 30
0.0
 10
9.562928345726673
 20
13.44082431457212
 30
0.0
 10
9.736666798806542
 20
13.26708653436246
 30
0.0
 10
9.736666798806542
 20
13.05276929740974
 30
0.0
 10
9.73743387084818
 20
12.83208132529017
 30
0.0
 10
9.568534027462535
 20
12.6478252379271
 30
0.0
 10
9.348611108773959
 20
12.62943704077458
 30
0.0
 10
9.11481091483386
 20
12.62943704077458
 30
0.0
 10
8.925278179268586
 20
12.81896843059943
 30
0.0
 10
8.925277506398373
 20
13.05276929740974
 30
0.0
 10
8.924389990588795
 20
13.26708384288161
 30
0.0
 10
9.097407799671652
 20
13.44154024847764
 30
0.0
 10
9.311723018013732
 20
13.44242843715744
 30
0.0
 10
9.324037888633075
 20
13.44247957529354
 30
0.0
 10
9.336347376290723
 20
13.44194397060482
 30
0.0
 10
9.348611108773959
 20
13.44082431457212
 30
0.0
  0
SPLINE
  5
9B
330
49
100
AcDbEntity
  8
Layer 1
370
     0
100
AcDbSpline
210
0.0
220
0.0
230
1.0
 70
    11
 71
     3
 72
    20
 73
    16
 74
     0
 42
0.0000000001
 43
0.0000000001
 12
1.0
 22
0.0
 32
0.0
 13
1.0
 23
0.0
 33
0.0
 40
0.0
 40
0.0
 40
0.0
 40
0.0
 40
1.0
 40
1.0
 40
1.0
 40
2.0
 40
2.0
 40
2.0
 40
3.0
 40
3.0
 40
3.0
 40
4.0
 40
4.0
 40
4.0
 40
5.0
 40
5.0
 40
5.0
 40
5.0
 10
9.136944307586166
 20
15.7691571090272
 30
0.0
 10
9.136804350582079
 20
16.00295797583751
 30
0.0
 10
9.326224043951742
 20
16.19260240785797
 30
0.0
 10
9.560024237891842
 20
16.19274236486206
 30
0.0
 10
9.793825104702151
 20
16.19288232186614
 30
0.0
 10
9.983470882463036
 20
16.0034639742369
 30
0.0
 10
9.983610839467124
 20
15.76966310742659
 30
0.0
 10
9.983610839467124
 20
15.76949354413318
 30
0.0
 10
9.983610839467124
 20
15.76932667232061
 30
0.0
 10
9.983610839467124
 20
15.7691571090272
 30
0.0
 10
9.983470882463036
 20
15.53535624221688
 30
0.0
 10
9.793825104702151
 20
15.34593789458764
 30
0.0
 10
9.560024237891842
 20
15.34607785159173
 30
0.0
 10
9.326421867794059
 20
15.34621780859582
 30
0.0
 10
9.137084264590255
 20
15.53555541179963
 30
0.0
 10
9.136944307586166
 20
15.7691571090272
 30
0.0
  0
SPLINE
  5
9C
330
49
100
AcDbEntity
  8
Layer 1
370
     0
100
AcDbSpline
210
0.0
220
0.0
230
1.0
 70
    11
 71
     3
 72
    23
 73
    19
 74
     0
 42
0.0000000001
 43
0.0000000001
 12
1.0
 22
0.0
 32
0.0
 13
1.0
 23
0.0
 33
0.0
 40
0.0
 40
0.0
 40
0.0
 40
0.0
 40
1.0
 40
1.0
 40
1.0
 40
2.0
 40
2.0
 40
2.0
 40
3.0
 40
3.0
 40
3.0
 40
4.0
 40
4.0
 40
4.0
 40
5.0
 40
5.0
 40
5.0
 40
6.0
 40
6.0
 40
6.0
 40
6.0
 10
10.61861057016029
 20
8.537212666390737
 30
0.0
 10
11.02729713376187
 20
8.556696296248333
 30
0.0
 10
11.37439857834333
 20
8.2411847623781
 30
0.0
 10
11.39388220820093
 20
7.832499544516948
 30
0.0
 10
11.39445549362152
 20
7.820468625127052
 30
0.0
 10
11.3947354076297
 20
7.808424248332917
 30
0.0
 10
11.39472195022546
 20
7.796379871538782
 30
0.0
 10
11.3758479407799
 20
7.381582300672158
 30
0.0
 10
11.03383743222215
 20
7.055116439751171
 30
0.0
 10
10.61861057016029
 20
7.055547076686826
 30
0.0
 10
10.20945972611246
 20
7.055547076686826
 30
0.0
 10
9.877777102438122
 20
7.38722902749095
 30
0.0
 10
9.877777102438122
 20
7.796379871538782
 30
0.0
 10
9.877775756697698
 20
8.205530715586614
 30
0.0
 10
10.20945703463161
 20
8.537215357871585
 30
0.0
 10
10.61860787867944
 20
8.537215357871585
 30
0.0
 10
10.61860922441987
 20
8.537215357871585
 30
0.0
 10
10.61860989729008
 20
8.537215357871585
 30
0.0
 10
10.61861057016029
 20
8.537212666390737
 30
0.0
  0
SPLINE
  5
9D
330
49
100
AcDbEntity
  8
Layer 1
370
     0
100
AcDbSpline
210
0.0
220
0.0
230
1.0
 70
    11
 71
     3
 72
    29
 73
    25
 74
     0
 42
0.0000000001
 43
0.0000000001
 12
1.0
 22
0.0
 32
0.0
 13
1.0
 23
0.0
 33
0.0
 40
0.0
 40
0.0
 40
0.0
 40
0.0
 40
1.0
 40
1.0
 40
1.0
 40
2.0
 40
2.0
 40
2.0
 40
3.0
 40
3.0
 40
3.0
 40
4.0
 40
4.0
 40
4.0
 40
5.0
 40
5.0
 40
5.0
 40
6.0
 40
6.0
 40
6.0
 40
7.0
 40
7.0
 40
7.0
 40
8.0
 40
8.0
 40
8.0
 40
8.0
 10
15.91027723550404
 20
19.54388094519425
 30
0.0
 10
15.77610287801737
 20
19.41676768771192
 30
0.0
 10
15.60096956498811
 20
19.34171036130789
 30
0.0
 10
15.41638780844245
 20
19.33221481687666
 30
0.0
 10
15.41638780844245
 20
19.33221481687666
 30
0.0
 10
15.23999891959766
 20
19.40276929582224
 30
0.0
 10
15.23999891959766
 20
19.40276929582224
 30
0.0
 10
15.20472168012487
 20
19.47332377476782
 30
0.0
 10
15.16944309491166
 20
19.50860370572146
 30
0.0
 10
15.16944309491166
 20
19.57915818466704
 30
0.0
 10
15.16944309491166
 20
19.64971266361261
 30
0.0
 10
15.23999891959766
 20
19.75554707351183
 30
0.0
 10
15.38110922322924
 20
19.82610155245741
 30
0.0
 10
15.38110922322924
 20
19.82610155245741
 30
0.0
 10
15.76916424039161
 20
19.93193596235662
 30
0.0
 10
15.76916424039161
 20
19.93193596235662
 30
0.0
 10
15.76916424039161
 20
19.93193596235662
 30
0.0
 10
16.22777777372083
 20
20.07304761172862
 30
0.0
 10
16.22777777372083
 20
20.07304761172862
 30
0.0
 10
16.22777777372083
 20
20.07304761172862
 30
0.0
 10
16.33361083787963
 20
20.07304761172862
 30
0.0
 10
16.33361083787963
 20
20.07304761172862
 30
0.0
 10
16.22463412409054
 20
19.87319170137141
 30
0.0
 10
16.08133699227009
 20
19.69407095946605
 30
0.0
 10
15.91027723550404
 20
19.54388094519425
 30
0.0
  0
SPLINE
  5
9E
330
49
100
AcDbEntity
  8
Layer 1
370
     0
100
AcDbSpline
210
0.0
220
0.0
230
1.0
 70
    11
 71
     3
 72
    23
 73
    19
 74
     0
 42
0.0000000001
 43
0.0000000001
 12
1.0
 22
0.0
 32
0.0
 13
1.0
 23
0.0
 33
0.0
 40
0.0
 40
0.0
 40
0.0
 40
0.0
 40
1.0
 40
1.0
 40
1.0
 40
2.0
 40
2.0
 40
2.0
 40
3.0
 40
3.0
 40
3.0
 40
4.0
 40
4.0
 40
4.0
 40
5.0
 40
5.0
 40
5.0
 40
6.0
 40
6.0
 40
6.0
 40
6.0
 10
17.88583225226954
 20
16.50999259536
 30
0.0
 10
17.87493848353786
 20
16.36557580750684
 30
0.0
 10
17.79646701367832
 20
16.23478867866719
 30
0.0
 10
17.67416612395196
 20
16.15721481767041
 30
0.0
 10
17.67416612395196
 20
16.15721481767041
 30
0.0
 10
17.2508338673168
 20
16.15721481767041
 30
0.0
 10
17.2508338673168
 20
16.15721481767041
 30
0.0
 10
17.14877291356627
 20
16.24768356340925
 30
0.0
 10
17.08558232622041
 20
16.37406204662011
 30
0.0
 10
17.07444497847201
 20
16.50999259536
 30
0.0
 10
17.15019536119436
 20
16.73118118291728
 30
0.0
 10
17.39091333378365
 20
16.84908150145741
 30
0.0
 10
17.61210192134093
 20
16.77333246447548
 30
0.0
 10
17.74814012931473
 20
16.72674293099917
 30
0.0
 10
17.85122653726829
 20
16.6142847867334
 30
0.0
 10
17.88583359800996
 20
16.47471535588721
 30
0.0
 10
17.88583359800996
 20
16.47471535588721
 30
0.0
 10
17.88583225226954
 20
16.50999259536
 30
0.0
 10
17.88583225226954
 20
16.50999259536
 30
0.0
  0
SPLINE
  5
9F
330
49
100
AcDbEntity
  8
Layer 1
370
     0
100
AcDbSpline
210
0.0
220
0.0
230
1.0
 70
    11
 71
     3
 72
    32
 73
    28
 74
     0
 42
0.0000000001
 43
0.0000000001
 12
1.0
 22
0.0
 32
0.0
 13
1.0
 23
0.0
 33
0.0
 40
0.0
 40
0.0
 40
0.0
 40
0.0
 40
1.0
 40
1.0
 40
1.0
 40
2.0
 40
2.0
 40
2.0
 40
3.0
 40
3.0
 40
3.0
 40
4.0
 40
4.0
 40
4.0
 40
5.0
 40
5.0
 40
5.0
 40
6.0
 40
6.0
 40
6.0
 40
7.0
 40
7.0
 40
7.0
 40
8.0
 40
8.0
 40
8.0
 40
9.0
 40
9.0
 40
9.0
 40
9.0
 10
17.32138834626237
 20
15.31054761291925
 30
0.0
 10
17.46504613651644
 20
14.90294167887808
 30
0.0
 10
17.84211049163661
 20
14.62363594537315
 30
0.0
 10
18.27388861517233
 20
14.60499205754008
 30
0.0
 10
18.55334507160475
 20
14.60964293644517
 30
0.0
 10
18.82911285353518
 20
14.66959028936936
 30
0.0
 10
19.08527723471029
 20
14.78138094638487
 30
0.0
 10
19.29694336302787
 20
15.20471320302003
 30
0.0
 10
19.29694336302787
 20
15.20471320302003
 30
0.0
 10
19.43805501239987
 20
15.27527037344646
 30
0.0
 10
19.53998273784843
 20
15.26622699779768
 30
0.0
 10
19.63753546117881
 20
15.22964439011368
 30
0.0
 10
19.72027696540345
 20
15.16943596354724
 30
0.0
 10
19.50250790426337
 20
14.56648504104987
 30
0.0
 10
18.91382721322131
 20
14.17881759712959
 30
0.0
 10
18.27388861517233
 20
14.21693704037771
 30
0.0
 10
18.27388861517233
 20
14.21693704037771
 30
0.0
 10
18.27388861517233
 20
14.21693704037771
 30
0.0
 10
18.27388861517233
 20
14.21693704037771
 30
0.0
 10
18.27388861517233
 20
14.21693704037771
 30
0.0
 10
17.56833305979317
 20
14.28749151932329
 30
0.0
 10
17.56833305979317
 20
14.28749151932329
 30
0.0
 10
17.26667054062555
 20
14.57780540949593
 30
0.0
 10
17.04753286147434
 20
14.94303397758768
 30
0.0
 10
16.9333333291
 20
15.34582485239203
 30
0.0
 10
17.05554136273712
 20
15.42415501950706
 30
0.0
 10
17.215309011606
 20
15.40963178885205
 30
0.0
 10
17.32138834626237
 20
15.31054761291925
 30
0.0
  0
SPLINE
  5
A0
330
49
100
AcDbEntity
  8
Layer 1
370
     0
100
AcDbSpline
210
0.0
220
0.0
230
1.0
 70
    11
 71
     3
 72
    14
 73
    10
 74
     0
 42
0.0000000001
 43
0.0000000001
 12
1.0
 22
0.0
 32
0.0
 13
1.0
 23
0.0
 33
0.0
 40
0.0
 40
0.0
 40
0.0
 40
0.0
 40
1.0
 40
1.0
 40
1.0
 40
2.0
 40
2.0
 40
2.0
 40
3.0
 40
3.0
 40
3.0
 40
3.0
 10
18.23861002995912
 20
20.81388040658058
 30
0.0
 10
18.23861002995912
 20
20.81388040658058
 30
0.0
 10
18.02694390164154
 20
20.81388040658058
 30
0.0
 10
18.02694390164154
 20
20.81388040658058
 30
0.0
 10
18.02694390164154
 20
20.81388040658058
 30
0.0
 10
18.13277696580033
 20
20.91971481647979
 30
0.0
 10
18.13277696580033
 20
20.91971481647979
 30
0.0
 10
18.16805555101354
 20
20.884437577007
 30
0.0
 10
18.23861137569954
 20
20.84915764605337
 30
0.0
 10
18.23861002995912
 20
20.81388040658058
 30
0.0
  0
SPLINE
  5
A1
330
49
100
AcDbEntity
  8
Layer 1
370
     0
100
AcDbSpline
210
0.0
220
0.0
230
1.0
 70
    11
 71
     3
 72
    32
 73
    28
 74
     0
 42
0.0000000001
 43
0.0000000001
 12
1.0
 22
0.0
 32
0.0
 13
1.0
 23
0.0
 33
0.0
 40
0.0
 40
0.0
 40
0.0
 40
0.0
 40
1.0
 40
1.0
 40
1.0
 40
2.0
 40
2.0
 40
2.0
 40
3.0
 40
3.0
 40
3.0
 40
4.0
 40
4.0
 40
4.0
 40
5.0
 40
5.0
 40
5.0
 40
6.0
 40
6.0
 40
6.0
 40
7.0
 40
7.0
 40
7.0
 40
8.0
 40
8.0
 40
8.0
 40
9.0
 40
9.0
 40
9.0
 40
9.0
 10
16.36888807735241
 20
21.97804680380812
 30
0.0
 10
16.38646748451016
 20
22.27879018226619
 30
0.0
 10
16.44583347757121
 20
22.57562014757148
 30
0.0
 10
16.5452769661972
 20
22.85999124803207
 30
0.0
 10
16.66936769068739
 20
23.1568790801756
 30
0.0
 10
16.82301222062742
 20
23.44052886376897
 30
0.0
 10
17.00388780804558
 20
23.70665845278324
 30
0.0
 10
17.18027669689037
 20
23.95360316631404
 30
0.0
 10
17.35666558573516
 20
24.09471346994562
 30
0.0
 10
17.53305447457995
 20
24.09471346994562
 30
0.0
 10
17.70944336342475
 20
24.09471346994562
 30
0.0
 10
17.70944336342475
 20
24.02415764525962
 30
0.0
 10
17.74472060289753
 20
23.88304734162804
 30
0.0
 10
17.80769318029471
 20
23.7141986363785
 30
0.0
 10
17.83180884869146
 20
23.53332977766246
 30
0.0
 10
17.81527642758353
 20
23.35388067509366
 30
0.0
 10
17.81527642758353
 20
23.35388067509366
 30
0.0
 10
17.53305447457995
 20
22.7188809444005
 30
0.0
 10
17.53305447457995
 20
22.7188809444005
 30
0.0
 10
17.10972087220437
 20
21.97804814954854
 30
0.0
 10
16.792221679728
 20
21.62527037185896
 30
0.0
 10
16.58055420566999
 20
21.62527037185896
 30
0.0
 10
16.50514429527489
 20
21.61906381702381
 30
0.0
 10
16.43417532827874
 20
21.66164573551767
 30
0.0
 10
16.4041653168252
 20
21.73110478175817
 30
0.0
 10
16.37289569233486
 20
21.80943225739234
 30
0.0
 10
16.36080152314504
 20
21.89409817042321
 30
0.0
 10
16.36888807735241
 20
21.97804680380812
 30
0.0
  0
POLYLINE
  5
A2
330
49
100
AcDbEntity
  8
Layer 1
370
     0
100
AcDb2dPolyline
 66
     1
 10
0.0
 20
0.0
 30
0.0
  0
VERTEX
  5
A3
330
A2
100
AcDbEntity
  8
Layer 1
370
     0
100
AcDbVertex
100
AcDb2dVertex
 10
20.28472221715104
 20
8.819435965134742
 30
0.0
  0
VERTEX
  5
A4
330
A2
100
AcDbEntity
  8
Layer 1
370
     0
100
AcDbVertex
100
AcDb2dVertex
 10
20.17888915299225
 20
8.819435965134742
 30
0.0
  0
VERTEX
  5
A5
330
A2
100
AcDbEntity
  8
Layer 1
370
     0
100
AcDbVertex
100
AcDb2dVertex
 10
20.07305608883346
 20
8.748881486189166
 30
0.0
  0
VERTEX
  5
A6
330
A2
100
AcDbEntity
  8
Layer 1
370
     0
100
AcDbVertex
100
AcDb2dVertex
 10
20.21416773820546
 20
8.748881486189166
 30
0.0
  0
VERTEX
  5
A7
330
A2
100
AcDbEntity
  8
Layer 1
370
     0
100
AcDbVertex
100
AcDb2dVertex
 10
20.21416773820546
 20
8.537215357871585
 30
0.0
  0
VERTEX
  5
A8
330
A2
100
AcDbEntity
  8
Layer 1
370
     0
100
AcDbVertex
100
AcDb2dVertex
 10
20.17889049873268
 20
8.537215357871585
 30
0.0
  0
VERTEX
  5
A9
330
A2
100
AcDbEntity
  8
Layer 1
370
     0
100
AcDbVertex
100
AcDb2dVertex
 10
20.00250160988788
 20
8.431380947972372
 30
0.0
  0
VERTEX
  5
AA
330
A2
100
AcDbEntity
  8
Layer 1
370
     0
100
AcDbVertex
100
AcDb2dVertex
 10
19.82611272104309
 20
8.431380947972372
 30
0.0
  0
VERTEX
  5
AB
330
A2
100
AcDbEntity
  8
Layer 1
370
     0
100
AcDbVertex
100
AcDb2dVertex
 10
19.43805770388072
 20
8.607769836817162
 30
0.0
  0
VERTEX
  5
AC
330
A2
100
AcDbEntity
  8
Layer 1
370
     0
100
AcDbVertex
100
AcDb2dVertex
 10
18.9794441705515
 20
8.607769836817162
 30
0.0
  0
VERTEX
  5
AD
330
A2
100
AcDbEntity
  8
Layer 1
370
     0
100
AcDbVertex
100
AcDb2dVertex
 10
18.76777804223392
 20
8.501935426917948
 30
0.0
  0
VERTEX
  5
AE
330
A2
100
AcDbEntity
  8
Layer 1
370
     0
100
AcDbVertex
100
AcDb2dVertex
 10
18.62666639286192
 20
8.431380947972372
 30
0.0
  0
VERTEX
  5
AF
330
A2
100
AcDbEntity
  8
Layer 1
370
     0
100
AcDbVertex
100
AcDb2dVertex
 10
18.69722221754792
 20
8.431380947972372
 30
0.0
  0
VERTEX
  5
B0
330
A2
100
AcDbEntity
  8
Layer 1
370
     0
100
AcDbVertex
100
AcDb2dVertex
 10
18.80305528170671
 20
8.360826469026794
 30
0.0
  0
VERTEX
  5
B1
330
A2
100
AcDbEntity
  8
Layer 1
370
     0
100
AcDbVertex
100
AcDb2dVertex
 10
18.9088883458655
 20
8.290271990081216
 30
0.0
  0
VERTEX
  5
B2
330
A2
100
AcDbEntity
  8
Layer 1
370
     0
100
AcDbVertex
100
AcDb2dVertex
 10
19.01472141002429
 20
8.219717511135638
 30
0.0
  0
VERTEX
  5
B3
330
A2
100
AcDbEntity
  8
Layer 1
370
     0
100
AcDbVertex
100
AcDb2dVertex
 10
19.40277777292708
 20
8.219717511135638
 30
0.0
  0
VERTEX
  5
B4
330
A2
100
AcDbEntity
  8
Layer 1
370
     0
100
AcDbVertex
100
AcDb2dVertex
 10
19.61444390124467
 20
8.290271990081216
 30
0.0
  0
VERTEX
  5
B5
330
A2
100
AcDbEntity
  8
Layer 1
370
     0
100
AcDbVertex
100
AcDb2dVertex
 10
19.93194443946146
 20
8.290271990081216
 30
0.0
  0
VERTEX
  5
B6
330
A2
100
AcDbEntity
  8
Layer 1
370
     0
100
AcDbVertex
100
AcDb2dVertex
 10
20.00250026414746
 20
8.219717511135638
 30
0.0
  0
VERTEX
  5
B7
330
A2
100
AcDbEntity
  8
Layer 1
370
     0
100
AcDbVertex
100
AcDb2dVertex
 10
20.00250026414746
 20
7.902216972918844
 30
0.0
  0
VERTEX
  5
B8
330
A2
100
AcDbEntity
  8
Layer 1
370
     0
100
AcDbVertex
100
AcDb2dVertex
 10
19.68499972593067
 20
7.902216972918844
 30
0.0
  0
VERTEX
  5
B9
330
A2
100
AcDbEntity
  8
Layer 1
370
     0
100
AcDbVertex
100
AcDb2dVertex
 10
19.82611137530267
 20
7.831662493973266
 30
0.0
  0
VERTEX
  5
BA
330
A2
100
AcDbEntity
  8
Layer 1
370
     0
100
AcDbVertex
100
AcDb2dVertex
 10
19.96722302467467
 20
7.725828084074053
 30
0.0
  0
VERTEX
  5
BB
330
A2
100
AcDbEntity
  8
Layer 1
370
     0
100
AcDbVertex
100
AcDb2dVertex
 10
20.10833467404667
 20
7.725828084074053
 30
0.0
  0
VERTEX
  5
BC
330
A2
100
AcDbEntity
  8
Layer 1
370
     0
100
AcDbVertex
100
AcDb2dVertex
 10
20.10833467404667
 20
7.443604785330046
 30
0.0
  0
VERTEX
  5
BD
330
A2
100
AcDbEntity
  8
Layer 1
370
     0
100
AcDbVertex
100
AcDb2dVertex
 10
20.03777884936067
 20
7.443604785330046
 30
0.0
  0
VERTEX
  5
BE
330
A2
100
AcDbEntity
  8
Layer 1
370
     0
100
AcDbVertex
100
AcDb2dVertex
 10
19.89666719998867
 20
7.373050306384469
 30
0.0
  0
VERTEX
  5
BF
330
A2
100
AcDbEntity
  8
Layer 1
370
     0
100
AcDbVertex
100
AcDb2dVertex
 10
19.75555555061667
 20
7.373050306384469
 30
0.0
  0
VERTEX
  5
C0
330
A2
100
AcDbEntity
  8
Layer 1
370
     0
100
AcDbVertex
100
AcDb2dVertex
 10
19.64972248645788
 20
7.443604785330046
 30
0.0
  0
VERTEX
  5
C1
330
A2
100
AcDbEntity
  8
Layer 1
370
     0
100
AcDbVertex
100
AcDb2dVertex
 10
19.50861083708588
 20
7.549439195229261
 30
0.0
  0
VERTEX
  5
C2
330
A2
100
AcDbEntity
  8
Layer 1
370
     0
100
AcDbVertex
100
AcDb2dVertex
 10
19.33222194824108
 20
7.549439195229261
 30
0.0
  0
VERTEX
  5
C3
330
A2
100
AcDbEntity
  8
Layer 1
370
     0
100
AcDbVertex
100
AcDb2dVertex
 10
19.33222194824108
 20
7.231938657012466
 30
0.0
  0
VERTEX
  5
C4
330
A2
100
AcDbEntity
  8
Layer 1
370
     0
100
AcDbVertex
100
AcDb2dVertex
 10
19.33222194824108
 20
7.231938657012466
 30
0.0
  0
VERTEX
  5
C5
330
A2
100
AcDbEntity
  8
Layer 1
370
     0
100
AcDbVertex
100
AcDb2dVertex
 10
19.15583305939629
 20
7.126104247113251
 30
0.0
  0
VERTEX
  5
C6
330
A2
100
AcDbEntity
  8
Layer 1
370
     0
100
AcDbVertex
100
AcDb2dVertex
 10
18.9794441705515
 20
7.126104247113251
 30
0.0
  0
VERTEX
  5
C7
330
A2
100
AcDbEntity
  8
Layer 1
370
     0
100
AcDbVertex
100
AcDb2dVertex
 10
18.87361110639271
 20
7.196658726058829
 30
0.0
  0
VERTEX
  5
C8
330
A2
100
AcDbEntity
  8
Layer 1
370
     0
100
AcDbVertex
100
AcDb2dVertex
 10
18.83833386691992
 20
7.196658726058829
 30
0.0
  0
VERTEX
  5
C9
330
A2
100
AcDbEntity
  8
Layer 1
370
     0
100
AcDbVertex
100
AcDb2dVertex
 10
18.83833386691992
 20
7.972768760383573
 30
0.0
  0
VERTEX
  5
CA
330
A2
100
AcDbEntity
  8
Layer 1
370
     0
100
AcDbVertex
100
AcDb2dVertex
 10
18.66194497807513
 20
7.972768760383573
 30
0.0
  0
VERTEX
  5
CB
330
A2
100
AcDbEntity
  8
Layer 1
370
     0
100
AcDbVertex
100
AcDb2dVertex
 10
18.52083332870313
 20
8.043323239329151
 30
0.0
  0
VERTEX
  5
CC
330
A2
100
AcDbEntity
  8
Layer 1
370
     0
100
AcDbVertex
100
AcDb2dVertex
 10
18.41500026454434
 20
8.149157649228366
 30
0.0
  0
VERTEX
  5
CD
330
A2
100
AcDbEntity
  8
Layer 1
370
     0
100
AcDbVertex
100
AcDb2dVertex
 10
18.16805555101354
 20
8.149157649228366
 30
0.0
  0
VERTEX
  5
CE
330
A2
100
AcDbEntity
  8
Layer 1
370
     0
100
AcDbVertex
100
AcDb2dVertex
 10
18.16805555101354
 20
7.267213205004407
 30
0.0
  0
VERTEX
  5
CF
330
A2
100
AcDbEntity
  8
Layer 1
370
     0
100
AcDbVertex
100
AcDb2dVertex
 10
18.30916720038555
 20
7.267213205004407
 30
0.0
  0
VERTEX
  5
D0
330
A2
100
AcDbEntity
  8
Layer 1
370
     0
100
AcDbVertex
100
AcDb2dVertex
 10
18.37972302507155
 20
7.196658726058829
 30
0.0
  0
VERTEX
  5
D1
330
A2
100
AcDbEntity
  8
Layer 1
370
     0
100
AcDbVertex
100
AcDb2dVertex
 10
18.52083467444355
 20
7.055547076686826
 30
0.0
  0
VERTEX
  5
D2
330
A2
100
AcDbEntity
  8
Layer 1
370
     0
100
AcDbVertex
100
AcDb2dVertex
 10
18.62666773860234
 20
6.984992597741249
 30
0.0
  0
VERTEX
  5
D3
330
A2
100
AcDbEntity
  8
Layer 1
370
     0
100
AcDbVertex
100
AcDb2dVertex
 10
18.69722356328834
 20
6.914438118795672
 30
0.0
  0
VERTEX
  5
D4
330
A2
100
AcDbEntity
  8
Layer 1
370
     0
100
AcDbVertex
100
AcDb2dVertex
 10
18.69722221754792
 20
6.914438118795672
 30
0.0
  0
VERTEX
  5
D5
330
A2
100
AcDbEntity
  8
Layer 1
370
     0
100
AcDbVertex
100
AcDb2dVertex
 10
18.62666639286192
 20
6.702771990478091
 30
0.0
  0
VERTEX
  5
D6
330
A2
100
AcDbEntity
  8
Layer 1
370
     0
100
AcDbVertex
100
AcDb2dVertex
 10
18.34444443985834
 20
6.702771990478091
 30
0.0
  0
VERTEX
  5
D7
330
A2
100
AcDbEntity
  8
Layer 1
370
     0
100
AcDbVertex
100
AcDb2dVertex
 10
18.27388861517233
 20
6.773326469423669
 30
0.0
  0
VERTEX
  5
D8
330
A2
100
AcDbEntity
  8
Layer 1
370
     0
100
AcDbVertex
100
AcDb2dVertex
 10
18.16805555101354
 20
6.843880948369246
 30
0.0
  0
VERTEX
  5
D9
330
A2
100
AcDbEntity
  8
Layer 1
370
     0
100
AcDbVertex
100
AcDb2dVertex
 10
18.09749972632754
 20
6.914435427314824
 30
0.0
  0
VERTEX
  5
DA
330
A2
100
AcDbEntity
  8
Layer 1
370
     0
100
AcDbVertex
100
AcDb2dVertex
 10
18.02694390164154
 20
6.914435427314824
 30
0.0
  0
VERTEX
  5
DB
330
A2
100
AcDbEntity
  8
Layer 1
370
     0
100
AcDbVertex
100
AcDb2dVertex
 10
18.02694390164154
 20
6.491103170679662
 30
0.0
  0
VERTEX
  5
DC
330
A2
100
AcDbEntity
  8
Layer 1
370
     0
100
AcDbVertex
100
AcDb2dVertex
 10
17.49777723510716
 20
6.491103170679662
 30
0.0
  0
VERTEX
  5
DD
330
A2
100
AcDbEntity
  8
Layer 1
370
     0
100
AcDbVertex
100
AcDb2dVertex
 10
17.49777723510716
 20
6.914435427314824
 30
0.0
  0
VERTEX
  5
DE
330
A2
100
AcDbEntity
  8
Layer 1
370
     0
100
AcDbVertex
100
AcDb2dVertex
 10
17.42722141042116
 20
6.914435427314824
 30
0.0
  0
VERTEX
  5
DF
330
A2
100
AcDbEntity
  8
Layer 1
370
     0
100
AcDbVertex
100
AcDb2dVertex
 10
17.32138834626237
 20
6.843880948369246
 30
0.0
  0
VERTEX
  5
E0
330
A2
100
AcDbEntity
  8
Layer 1
370
     0
100
AcDbVertex
100
AcDb2dVertex
 10
17.28611110678958
 20
6.843880948369246
 30
0.0
  0
VERTEX
  5
E1
330
A2
100
AcDbEntity
  8
Layer 1
370
     0
100
AcDbVertex
100
AcDb2dVertex
 10
17.21555528210358
 20
6.773326469423669
 30
0.0
  0
VERTEX
  5
E2
330
A2
100
AcDbEntity
  8
Layer 1
370
     0
100
AcDbVertex
100
AcDb2dVertex
 10
17.03916639325879
 20
6.773326469423669
 30
0.0
  0
VERTEX
  5
E3
330
A2
100
AcDbEntity
  8
Layer 1
370
     0
100
AcDbVertex
100
AcDb2dVertex
 10
16.96861056857279
 20
6.843880948369246
 30
0.0
  0
VERTEX
  5
E4
330
A2
100
AcDbEntity
  8
Layer 1
370
     0
100
AcDbVertex
100
AcDb2dVertex
 10
16.89805474388679
 20
6.843880948369246
 30
0.0
  0
VERTEX
  5
E5
330
A2
100
AcDbEntity
  8
Layer 1
370
     0
100
AcDbVertex
100
AcDb2dVertex
 10
16.89805474388679
 20
5.961936504145288
 30
0.0
  0
VERTEX
  5
E6
330
A2
100
AcDbEntity
  8
Layer 1
370
     0
100
AcDbVertex
100
AcDb2dVertex
 10
16.9333333291
 20
5.961936504145288
 30
0.0
  0
VERTEX
  5
E7
330
A2
100
AcDbEntity
  8
Layer 1
370
     0
100
AcDbVertex
100
AcDb2dVertex
 10
17.003889153786
 20
6.032490983090865
 30
0.0
  0
VERTEX
  5
E8
330
A2
100
AcDbEntity
  8
Layer 1
370
     0
100
AcDbVertex
100
AcDb2dVertex
 10
17.07444497847201
 20
6.032490983090865
 30
0.0
  0
VERTEX
  5
E9
330
A2
100
AcDbEntity
  8
Layer 1
370
     0
100
AcDbVertex
100
AcDb2dVertex
 10
17.18027804263079
 20
6.103045462036443
 30
0.0
  0
VERTEX
  5
EA
330
A2
100
AcDbEntity
  8
Layer 1
370
     0
100
AcDbVertex
100
AcDb2dVertex
 10
17.35666693147559
 20
6.208879871935657
 30
0.0
  0
VERTEX
  5
EB
330
A2
100
AcDbEntity
  8
Layer 1
370
     0
100
AcDbVertex
100
AcDb2dVertex
 10
17.42722275616159
 20
6.279434350881234
 30
0.0
  0
VERTEX
  5
EC
330
A2
100
AcDbEntity
  8
Layer 1
370
     0
100
AcDbVertex
100
AcDb2dVertex
 10
17.56833440553359
 20
6.279434350881234
 30
0.0
  0
VERTEX
  5
ED
330
A2
100
AcDbEntity
  8
Layer 1
370
     0
100
AcDbVertex
100
AcDb2dVertex
 10
17.56833440553359
 20
7.373047614903621
 30
0.0
  0
VERTEX
  5
EE
330
A2
100
AcDbEntity
  8
Layer 1
370
     0
100
AcDbVertex
100
AcDb2dVertex
 10
17.5330571660608
 20
7.373047614903621
 30
0.0
  0
VERTEX
  5
EF
330
A2
100
AcDbEntity
  8
Layer 1
370
     0
100
AcDbVertex
100
AcDb2dVertex
 10
17.3919455166888
 20
7.302493135958043
 30
0.0
  0
VERTEX
  5
F0
330
A2
100
AcDbEntity
  8
Layer 1
370
     0
100
AcDbVertex
100
AcDb2dVertex
 10
17.2508338673168
 20
7.302493135958043
 30
0.0
  0
VERTEX
  5
F1
330
A2
100
AcDbEntity
  8
Layer 1
370
     0
100
AcDbVertex
100
AcDb2dVertex
 10
17.14500080315801
 20
7.231938657012466
 30
0.0
  0
VERTEX
  5
F2
330
A2
100
AcDbEntity
  8
Layer 1
370
     0
100
AcDbVertex
100
AcDb2dVertex
 10
16.96861191431321
 20
7.161384178066888
 30
0.0
  0
VERTEX
  5
F3
330
A2
100
AcDbEntity
  8
Layer 1
370
     0
100
AcDbVertex
100
AcDb2dVertex
 10
16.79222302546842
 20
7.161384178066888
 30
0.0
  0
VERTEX
  5
F4
330
A2
100
AcDbEntity
  8
Layer 1
370
     0
100
AcDbVertex
100
AcDb2dVertex
 10
16.79222302546842
 20
6.420551383214933
 30
0.0
  0
VERTEX
  5
F5
330
A2
100
AcDbEntity
  8
Layer 1
370
     0
100
AcDbVertex
100
AcDb2dVertex
 10
16.43944524777884
 20
6.420551383214933
 30
0.0
  0
VERTEX
  5
F6
330
A2
100
AcDbEntity
  8
Layer 1
370
     0
100
AcDbVertex
100
AcDb2dVertex
 10
16.22777777372083
 20
6.31471428183487
 30
0.0
  0
VERTEX
  5
F7
330
A2
100
AcDbEntity
  8
Layer 1
370
     0
100
AcDbVertex
100
AcDb2dVertex
 10
16.22777777372083
 20
6.31471428183487
 30
0.0
  0
VERTEX
  5
F8
330
A2
100
AcDbEntity
  8
Layer 1
370
     0
100
AcDbVertex
100
AcDb2dVertex
 10
16.29833359840683
 20
6.526380410152451
 30
0.0
  0
VERTEX
  5
F9
330
A2
100
AcDbEntity
  8
Layer 1
370
     0
100
AcDbVertex
100
AcDb2dVertex
 10
16.29833359840683
 20
6.632214820051665
 30
0.0
  0
VERTEX
  5
FA
330
A2
100
AcDbEntity
  8
Layer 1
370
     0
100
AcDbVertex
100
AcDb2dVertex
 10
16.12194470956204
 20
6.632214820051665
 30
0.0
  0
VERTEX
  5
FB
330
A2
100
AcDbEntity
  8
Layer 1
370
     0
100
AcDbVertex
100
AcDb2dVertex
 10
15.98083306019004
 20
6.561660341106088
 30
0.0
  0
VERTEX
  5
FC
330
A2
100
AcDbEntity
  8
Layer 1
370
     0
100
AcDbVertex
100
AcDb2dVertex
 10
15.83972141081804
 20
6.49110586216051
 30
0.0
  0
VERTEX
  5
FD
330
A2
100
AcDbEntity
  8
Layer 1
370
     0
100
AcDbVertex
100
AcDb2dVertex
 10
15.73388834665925
 20
6.49110586216051
 30
0.0
  0
VERTEX
  5
FE
330
A2
100
AcDbEntity
  8
Layer 1
370
     0
100
AcDbVertex
100
AcDb2dVertex
 10
15.55749945781446
 20
6.596940272059725
 30
0.0
  0
VERTEX
  5
FF
330
A2
100
AcDbEntity
  8
Layer 1
370
     0
100
AcDbVertex
100
AcDb2dVertex
 10
15.52222221834167
 20
6.596940272059725
 30
0.0
  0
VERTEX
  5
100
330
A2
100
AcDbEntity
  8
Layer 1
370
     0
100
AcDbVertex
100
AcDb2dVertex
 10
15.52222221834167
 20
6.808606400377305
 30
0.0
  0
VERTEX
  5
101
330
A2
100
AcDbEntity
  8
Layer 1
370
     0
100
AcDbVertex
100
AcDb2dVertex
 10
15.52222221834167
 20
6.808606400377305
 30
0.0
  0
VERTEX
  5
102
330
A2
100
AcDbEntity
  8
Layer 1
370
     0
100
AcDbVertex
100
AcDb2dVertex
 10
15.59277804302767
 20
6.879160879322883
 30
0.0
  0
VERTEX
  5
103
330
A2
100
AcDbEntity
  8
Layer 1
370
     0
100
AcDbVertex
100
AcDb2dVertex
 10
15.66333386771367
 20
6.879160879322883
 30
0.0
  0
VERTEX
  5
104
330
A2
100
AcDbEntity
  8
Layer 1
370
     0
100
AcDbVertex
100
AcDb2dVertex
 10
15.80444551708567
 20
6.949715358268461
 30
0.0
  0
VERTEX
  5
105
330
A2
100
AcDbEntity
  8
Layer 1
370
     0
100
AcDbVertex
100
AcDb2dVertex
 10
15.94555716645768
 20
7.020269837214038
 30
0.0
  0
VERTEX
  5
106
330
A2
100
AcDbEntity
  8
Layer 1
370
     0
100
AcDbVertex
100
AcDb2dVertex
 10
15.94555716645768
 20
7.020269837214038
 30
0.0
  0
VERTEX
  5
107
330
A2
100
AcDbEntity
  8
Layer 1
370
     0
100
AcDbVertex
100
AcDb2dVertex
 10
15.83972410229889
 20
7.090824316159615
 30
0.0
  0
VERTEX
  5
108
330
A2
100
AcDbEntity
  8
Layer 1
370
     0
100
AcDbVertex
100
AcDb2dVertex
 10
15.69861245292688
 20
7.090824316159615
 30
0.0
  0
VERTEX
  5
109
330
A2
100
AcDbEntity
  8
Layer 1
370
     0
100
AcDbVertex
100
AcDb2dVertex
 10
15.69861245292688
 20
7.725825392593205
 30
0.0
  0
VERTEX
  5
10A
330
A2
100
AcDbEntity
  8
Layer 1
370
     0
100
AcDbVertex
100
AcDb2dVertex
 10
15.80444551708567
 20
7.796379871538782
 30
0.0
  0
VERTEX
  5
10B
330
A2
100
AcDbEntity
  8
Layer 1
370
     0
100
AcDbVertex
100
AcDb2dVertex
 10
16.12194605530247
 20
7.796379871538782
 30
0.0
  0
VERTEX
  5
10C
330
A2
100
AcDbEntity
  8
Layer 1
370
     0
100
AcDbVertex
100
AcDb2dVertex
 10
16.29833494414726
 20
7.725825392593205
 30
0.0
  0
VERTEX
  5
10D
330
A2
100
AcDbEntity
  8
Layer 1
370
     0
100
AcDbVertex
100
AcDb2dVertex
 10
16.40416800830605
 20
7.655270913647627
 30
0.0
  0
VERTEX
  5
10E
330
A2
100
AcDbEntity
  8
Layer 1
370
     0
100
AcDbVertex
100
AcDb2dVertex
 10
16.75694578599563
 20
7.655270913647627
 30
0.0
  0
VERTEX
  5
10F
330
A2
100
AcDbEntity
  8
Layer 1
370
     0
100
AcDbVertex
100
AcDb2dVertex
 10
16.82750161068163
 20
7.725825392593205
 30
0.0
  0
VERTEX
  5
110
330
A2
100
AcDbEntity
  8
Layer 1
370
     0
100
AcDbVertex
100
AcDb2dVertex
 10
16.93333467484042
 20
7.725825392593205
 30
0.0
  0
VERTEX
  5
111
330
A2
100
AcDbEntity
  8
Layer 1
370
     0
100
AcDbVertex
100
AcDb2dVertex
 10
17.10972356368521
 20
7.831659802492418
 30
0.0
  0
VERTEX
  5
112
330
A2
100
AcDbEntity
  8
Layer 1
370
     0
100
AcDbVertex
100
AcDb2dVertex
 10
17.3213896920028
 20
7.831659802492418
 30
0.0
  0
VERTEX
  5
113
330
A2
100
AcDbEntity
  8
Layer 1
370
     0
100
AcDbVertex
100
AcDb2dVertex
 10
17.2508338673168
 20
7.902214281437996
 30
0.0
  0
VERTEX
  5
114
330
A2
100
AcDbEntity
  8
Layer 1
370
     0
100
AcDbVertex
100
AcDb2dVertex
 10
17.18027804263079
 20
7.902214281437996
 30
0.0
  0
VERTEX
  5
115
330
A2
100
AcDbEntity
  8
Layer 1
370
     0
100
AcDbVertex
100
AcDb2dVertex
 10
17.10972221794479
 20
7.972768760383573
 30
0.0
  0
VERTEX
  5
116
330
A2
100
AcDbEntity
  8
Layer 1
370
     0
100
AcDbVertex
100
AcDb2dVertex
 10
16.862777504414
 20
7.972768760383573
 30
0.0
  0
VERTEX
  5
117
330
A2
100
AcDbEntity
  8
Layer 1
370
     0
100
AcDbVertex
100
AcDb2dVertex
 10
16.721665855042
 20
8.078603170282788
 30
0.0
  0
VERTEX
  5
118
330
A2
100
AcDbEntity
  8
Layer 1
370
     0
100
AcDbVertex
100
AcDb2dVertex
 10
16.61583279088321
 20
8.149157649228366
 30
0.0
  0
VERTEX
  5
119
330
A2
100
AcDbEntity
  8
Layer 1
370
     0
100
AcDbVertex
100
AcDb2dVertex
 10
16.26305501319362
 20
8.149157649228366
 30
0.0
  0
VERTEX
  5
11A
330
A2
100
AcDbEntity
  8
Layer 1
370
     0
100
AcDbVertex
100
AcDb2dVertex
 10
16.05138888487604
 20
8.078603170282788
 30
0.0
  0
VERTEX
  5
11B
330
A2
100
AcDbEntity
  8
Layer 1
370
     0
100
AcDbVertex
100
AcDb2dVertex
 10
15.73388834665925
 20
8.078603170282788
 30
0.0
  0
VERTEX
  5
11C
330
A2
100
AcDbEntity
  8
Layer 1
370
     0
100
AcDbVertex
100
AcDb2dVertex
 10
15.66333252197325
 20
8.149157649228366
 30
0.0
  0
VERTEX
  5
11D
330
A2
100
AcDbEntity
  8
Layer 1
370
     0
100
AcDbVertex
100
AcDb2dVertex
 10
15.59277669728725
 20
8.254992059127579
 30
0.0
  0
VERTEX
  5
11E
330
A2
100
AcDbEntity
  8
Layer 1
370
     0
100
AcDbVertex
100
AcDb2dVertex
 10
15.59277669728725
 20
8.431380947972372
 30
0.0
  0
VERTEX
  5
11F
330
A2
100
AcDbEntity
  8
Layer 1
370
     0
100
AcDbVertex
100
AcDb2dVertex
 10
15.91027723550404
 20
8.431380947972372
 30
0.0
  0
VERTEX
  5
120
330
A2
100
AcDbEntity
  8
Layer 1
370
     0
100
AcDbVertex
100
AcDb2dVertex
 10
15.80444417134525
 20
8.501935426917948
 30
0.0
  0
VERTEX
  5
121
330
A2
100
AcDbEntity
  8
Layer 1
370
     0
100
AcDbVertex
100
AcDb2dVertex
 10
15.69861110718646
 20
8.572489905863526
 30
0.0
  0
VERTEX
  5
122
330
A2
100
AcDbEntity
  8
Layer 1
370
     0
100
AcDbVertex
100
AcDb2dVertex
 10
15.59277804302767
 20
8.572489905863526
 30
0.0
  0
VERTEX
  5
123
330
A2
100
AcDbEntity
  8
Layer 1
370
     0
100
AcDbVertex
100
AcDb2dVertex
 10
15.59277804302767
 20
8.819433273653896
 30
0.0
  0
VERTEX
  5
124
330
A2
100
AcDbEntity
  8
Layer 1
370
     0
100
AcDbVertex
100
AcDb2dVertex
 10
15.62805528250046
 20
8.819433273653896
 30
0.0
  0
VERTEX
  5
125
330
A2
100
AcDbEntity
  8
Layer 1
370
     0
100
AcDbVertex
100
AcDb2dVertex
 10
15.76916693187246
 20
8.889987752599472
 30
0.0
  0
VERTEX
  5
126
330
A2
100
AcDbEntity
  8
Layer 1
370
     0
100
AcDbVertex
100
AcDb2dVertex
 10
15.87499999603125
 20
8.889987752599472
 30
0.0
  0
VERTEX
  5
127
330
A2
100
AcDbEntity
  8
Layer 1
370
     0
100
AcDbVertex
100
AcDb2dVertex
 10
16.08666612434883
 20
8.74887610322747
 30
0.0
  0
VERTEX
  5
128
330
A2
100
AcDbEntity
  8
Layer 1
370
     0
100
AcDbVertex
100
AcDb2dVertex
 10
16.22777777372083
 20
8.74887610322747
 30
0.0
  0
VERTEX
  5
129
330
A2
100
AcDbEntity
  8
Layer 1
370
     0
100
AcDbVertex
100
AcDb2dVertex
 10
16.22777777372083
 20
9.066376641444265
 30
0.0
  0
VERTEX
  5
12A
330
A2
100
AcDbEntity
  8
Layer 1
370
     0
100
AcDbVertex
100
AcDb2dVertex
 10
16.22777777372083
 20
9.066376641444265
 30
0.0
  0
VERTEX
  5
12B
330
A2
100
AcDbEntity
  8
Layer 1
370
     0
100
AcDbVertex
100
AcDb2dVertex
 10
16.40416666256563
 20
9.172211051343478
 30
0.0
  0
VERTEX
  5
12C
330
A2
100
AcDbEntity
  8
Layer 1
370
     0
100
AcDbVertex
100
AcDb2dVertex
 10
16.72166720078242
 20
9.172211051343478
 30
0.0
  0
VERTEX
  5
12D
330
A2
100
AcDbEntity
  8
Layer 1
370
     0
100
AcDbVertex
100
AcDb2dVertex
 10
16.72166720078242
 20
8.431378256491524
 30
0.0
  0
VERTEX
  5
12E
330
A2
100
AcDbEntity
  8
Layer 1
370
     0
100
AcDbVertex
100
AcDb2dVertex
 10
16.89805608962721
 20
8.431378256491524
 30
0.0
  0
VERTEX
  5
12F
330
A2
100
AcDbEntity
  8
Layer 1
370
     0
100
AcDbVertex
100
AcDb2dVertex
 10
16.96861191431321
 20
8.360823777545946
 30
0.0
  0
VERTEX
  5
130
330
A2
100
AcDbEntity
  8
Layer 1
370
     0
100
AcDbVertex
100
AcDb2dVertex
 10
17.21555662784401
 20
8.219712128173942
 30
0.0
  0
VERTEX
  5
131
330
A2
100
AcDbEntity
  8
Layer 1
370
     0
100
AcDbVertex
100
AcDb2dVertex
 10
17.28611245253001
 20
8.149157649228366
 30
0.0
  0
VERTEX
  5
132
330
A2
100
AcDbEntity
  8
Layer 1
370
     0
100
AcDbVertex
100
AcDb2dVertex
 10
17.3919455166888
 20
8.078603170282788
 30
0.0
  0
VERTEX
  5
133
330
A2
100
AcDbEntity
  8
Layer 1
370
     0
100
AcDbVertex
100
AcDb2dVertex
 10
17.5330571660608
 20
8.078603170282788
 30
0.0
  0
VERTEX
  5
134
330
A2
100
AcDbEntity
  8
Layer 1
370
     0
100
AcDbVertex
100
AcDb2dVertex
 10
17.5330571660608
 20
8.854713204607531
 30
0.0
  0
VERTEX
  5
135
330
A2
100
AcDbEntity
  8
Layer 1
370
     0
100
AcDbVertex
100
AcDb2dVertex
 10
17.63888888447917
 20
8.854713204607531
 30
0.0
  0
VERTEX
  5
136
330
A2
100
AcDbEntity
  8
Layer 1
370
     0
100
AcDbVertex
100
AcDb2dVertex
 10
17.56833305979317
 20
8.925267683553109
 30
0.0
  0
VERTEX
  5
137
330
A2
100
AcDbEntity
  8
Layer 1
370
     0
100
AcDbVertex
100
AcDb2dVertex
 10
17.25083252157637
 20
9.207490982297115
 30
0.0
  0
VERTEX
  5
138
330
A2
100
AcDbEntity
  8
Layer 1
370
     0
100
AcDbVertex
100
AcDb2dVertex
 10
17.18027669689037
 20
9.207490982297115
 30
0.0
  0
VERTEX
  5
139
330
A2
100
AcDbEntity
  8
Layer 1
370
     0
100
AcDbVertex
100
AcDb2dVertex
 10
17.18027669689037
 20
9.278045461242693
 30
0.0
  0
VERTEX
  5
13A
330
A2
100
AcDbEntity
  8
Layer 1
370
     0
100
AcDbVertex
100
AcDb2dVertex
 10
17.14499945741758
 20
9.278045461242693
 30
0.0
  0
VERTEX
  5
13B
330
A2
100
AcDbEntity
  8
Layer 1
370
     0
100
AcDbVertex
100
AcDb2dVertex
 10
17.14499945741758
 20
9.842492058730704
 30
0.0
  0
VERTEX
  5
13C
330
A2
100
AcDbEntity
  8
Layer 1
370
     0
100
AcDbVertex
100
AcDb2dVertex
 10
17.21555528210358
 20
9.842492058730704
 30
0.0
  0
VERTEX
  5
13D
330
A2
100
AcDbEntity
  8
Layer 1
370
     0
100
AcDbVertex
100
AcDb2dVertex
 10
17.28611110678958
 20
9.913046537676282
 30
0.0
  0
VERTEX
  5
13E
330
A2
100
AcDbEntity
  8
Layer 1
370
     0
100
AcDbVertex
100
AcDb2dVertex
 10
17.49777723510716
 20
9.913046537676282
 30
0.0
  0
VERTEX
  5
13F
330
A2
100
AcDbEntity
  8
Layer 1
370
     0
100
AcDbVertex
100
AcDb2dVertex
 10
17.56833305979317
 20
9.842492058730704
 30
0.0
  0
VERTEX
  5
140
330
A2
100
AcDbEntity
  8
Layer 1
370
     0
100
AcDbVertex
100
AcDb2dVertex
 10
17.67416612395196
 20
9.771937579785128
 30
0.0
  0
VERTEX
  5
141
330
A2
100
AcDbEntity
  8
Layer 1
370
     0
100
AcDbVertex
100
AcDb2dVertex
 10
17.77999918811075
 20
9.771937579785128
 30
0.0
  0
VERTEX
  5
142
330
A2
100
AcDbEntity
  8
Layer 1
370
     0
100
AcDbVertex
100
AcDb2dVertex
 10
17.77999918811075
 20
10.26582431536587
 30
0.0
  0
VERTEX
  5
143
330
A2
100
AcDbEntity
  8
Layer 1
370
     0
100
AcDbVertex
100
AcDb2dVertex
 10
17.77999918811075
 20
10.26582431536587
 30
0.0
  0
VERTEX
  5
144
330
A2
100
AcDbEntity
  8
Layer 1
370
     0
100
AcDbVertex
100
AcDb2dVertex
 10
17.77999918811075
 20
10.33637879431144
 30
0.0
  0
VERTEX
  5
145
330
A2
100
AcDbEntity
  8
Layer 1
370
     0
100
AcDbVertex
100
AcDb2dVertex
 10
18.13277696580033
 20
10.33637879431144
 30
0.0
  0
VERTEX
  5
146
330
A2
100
AcDbEntity
  8
Layer 1
370
     0
100
AcDbVertex
100
AcDb2dVertex
 10
18.30916585464512
 20
10.23054438441223
 30
0.0
  0
VERTEX
  5
147
330
A2
100
AcDbEntity
  8
Layer 1
370
     0
100
AcDbVertex
100
AcDb2dVertex
 10
18.30916585464512
 20
10.23054438441223
 30
0.0
  0
VERTEX
  5
148
330
A2
100
AcDbEntity
  8
Layer 1
370
     0
100
AcDbVertex
100
AcDb2dVertex
 10
18.30916585464512
 20
9.701377717877854
 30
0.0
  0
VERTEX
  5
149
330
A2
100
AcDbEntity
  8
Layer 1
370
     0
100
AcDbVertex
100
AcDb2dVertex
 10
18.45027750401712
 20
9.701377717877854
 30
0.0
  0
VERTEX
  5
14A
330
A2
100
AcDbEntity
  8
Layer 1
370
     0
100
AcDbVertex
100
AcDb2dVertex
 10
18.55611056817591
 20
9.771932196823432
 30
0.0
  0
VERTEX
  5
14B
330
A2
100
AcDbEntity
  8
Layer 1
370
     0
100
AcDbVertex
100
AcDb2dVertex
 10
18.62666639286192
 20
9.842486675769008
 30
0.0
  0
VERTEX
  5
14C
330
A2
100
AcDbEntity
  8
Layer 1
370
     0
100
AcDbVertex
100
AcDb2dVertex
 10
18.80305528170671
 20
9.842486675769008
 30
0.0
  0
VERTEX
  5
14D
330
A2
100
AcDbEntity
  8
Layer 1
370
     0
100
AcDbVertex
100
AcDb2dVertex
 10
18.87361110639271
 20
9.771932196823432
 30
0.0
  0
VERTEX
  5
14E
330
A2
100
AcDbEntity
  8
Layer 1
370
     0
100
AcDbVertex
100
AcDb2dVertex
 10
18.9088883458655
 20
9.771932196823432
 30
0.0
  0
VERTEX
  5
14F
330
A2
100
AcDbEntity
  8
Layer 1
370
     0
100
AcDbVertex
100
AcDb2dVertex
 10
18.9088883458655
 20
9.56026606850585
 30
0.0
  0
VERTEX
  5
150
330
A2
100
AcDbEntity
  8
Layer 1
370
     0
100
AcDbVertex
100
AcDb2dVertex
 10
18.69722221754792
 20
9.56026606850585
 30
0.0
  0
VERTEX
  5
151
330
A2
100
AcDbEntity
  8
Layer 1
370
     0
100
AcDbVertex
100
AcDb2dVertex
 10
18.62666639286192
 20
9.489711589560272
 30
0.0
  0
VERTEX
  5
152
330
A2
100
AcDbEntity
  8
Layer 1
370
     0
100
AcDbVertex
100
AcDb2dVertex
 10
18.45027750401712
 20
9.34859994018827
 30
0.0
  0
VERTEX
  5
153
330
A2
100
AcDbEntity
  8
Layer 1
370
     0
100
AcDbVertex
100
AcDb2dVertex
 10
18.23861137569954
 20
9.34859994018827
 30
0.0
  0
VERTEX
  5
154
330
A2
100
AcDbEntity
  8
Layer 1
370
     0
100
AcDbVertex
100
AcDb2dVertex
 10
18.23861137569954
 20
8.678321624281892
 30
0.0
  0
VERTEX
  5
155
330
A2
100
AcDbEntity
  8
Layer 1
370
     0
100
AcDbVertex
100
AcDb2dVertex
 10
18.23861137569954
 20
8.678321624281892
 30
0.0
  0
VERTEX
  5
156
330
A2
100
AcDbEntity
  8
Layer 1
370
     0
100
AcDbVertex
100
AcDb2dVertex
 10
18.23861137569954
 20
8.607767145336314
 30
0.0
  0
VERTEX
  5
157
330
A2
100
AcDbEntity
  8
Layer 1
370
     0
100
AcDbVertex
100
AcDb2dVertex
 10
18.52083332870313
 20
8.607767145336314
 30
0.0
  0
VERTEX
  5
158
330
A2
100
AcDbEntity
  8
Layer 1
370
     0
100
AcDbVertex
100
AcDb2dVertex
 10
18.76777804223392
 20
8.71360155523553
 30
0.0
  0
VERTEX
  5
159
330
A2
100
AcDbEntity
  8
Layer 1
370
     0
100
AcDbVertex
100
AcDb2dVertex
 10
18.87361110639271
 20
8.784156034181107
 30
0.0
  0
VERTEX
  5
15A
330
A2
100
AcDbEntity
  8
Layer 1
370
     0
100
AcDbVertex
100
AcDb2dVertex
 10
19.0499999952375
 20
8.784156034181107
 30
0.0
  0
VERTEX
  5
15B
330
A2
100
AcDbEntity
  8
Layer 1
370
     0
100
AcDbVertex
100
AcDb2dVertex
 10
19.0499999952375
 20
9.066379332925113
 30
0.0
  0
VERTEX
  5
15C
330
A2
100
AcDbEntity
  8
Layer 1
370
     0
100
AcDbVertex
100
AcDb2dVertex
 10
19.1205558199235
 20
9.278045461242693
 30
0.0
  0
VERTEX
  5
15D
330
A2
100
AcDbEntity
  8
Layer 1
370
     0
100
AcDbVertex
100
AcDb2dVertex
 10
19.1205558199235
 20
9.48971428104112
 30
0.0
  0
VERTEX
  5
15E
330
A2
100
AcDbEntity
  8
Layer 1
370
     0
100
AcDbVertex
100
AcDb2dVertex
 10
19.4380563581403
 20
9.48971428104112
 30
0.0
  0
VERTEX
  5
15F
330
A2
100
AcDbEntity
  8
Layer 1
370
     0
100
AcDbVertex
100
AcDb2dVertex
 10
19.5086121828263
 20
9.419159802095544
 30
0.0
  0
VERTEX
  5
160
330
A2
100
AcDbEntity
  8
Layer 1
370
     0
100
AcDbVertex
100
AcDb2dVertex
 10
19.5791680075123
 20
9.348605323149966
 30
0.0
  0
VERTEX
  5
161
330
A2
100
AcDbEntity
  8
Layer 1
370
     0
100
AcDbVertex
100
AcDb2dVertex
 10
19.61444524698509
 20
9.348605323149966
 30
0.0
  0
VERTEX
  5
162
330
A2
100
AcDbEntity
  8
Layer 1
370
     0
100
AcDbVertex
100
AcDb2dVertex
 10
19.61444524698509
 20
9.031104784933172
 30
0.0
  0
VERTEX
  5
163
330
A2
100
AcDbEntity
  8
Layer 1
370
     0
100
AcDbVertex
100
AcDb2dVertex
 10
19.61444524698509
 20
9.031104784933172
 30
0.0
  0
VERTEX
  5
164
330
A2
100
AcDbEntity
  8
Layer 1
370
     0
100
AcDbVertex
100
AcDb2dVertex
 10
19.93194578520188
 20
9.172216434305174
 30
0.0
  0
VERTEX
  5
165
330
A2
100
AcDbEntity
  8
Layer 1
370
     0
100
AcDbVertex
100
AcDb2dVertex
 10
20.03777884936067
 20
9.172216434305174
 30
0.0
  0
VERTEX
  5
166
330
A2
100
AcDbEntity
  8
Layer 1
370
     0
100
AcDbVertex
100
AcDb2dVertex
 10
20.10833467404667
 20
9.101661955359598
 30
0.0
  0
VERTEX
  5
167
330
A2
100
AcDbEntity
  8
Layer 1
370
     0
100
AcDbVertex
100
AcDb2dVertex
 10
20.21416773820546
 20
9.03110747641402
 30
0.0
  0
VERTEX
  5
168
330
A2
100
AcDbEntity
  8
Layer 1
370
     0
100
AcDbVertex
100
AcDb2dVertex
 10
20.24944497767826
 20
9.03110747641402
 30
0.0
  0
VERTEX
  5
169
330
A2
100
AcDbEntity
  8
Layer 1
370
     0
100
AcDbVertex
100
AcDb2dVertex
 10
20.24944497767826
 20
8.854718587569227
 30
0.0
  0
VERTEX
  5
16A
330
A2
100
AcDbEntity
  8
Layer 1
370
     0
100
AcDbVertex
100
AcDb2dVertex
 10
20.28472221715104
 20
8.819435965134742
 30
0.0
  0
SEQEND
  5
16B
330
A2
100
AcDbEntity
  8
Layer 1
370
     0
  0
SPLINE
  5
16C
330
49
100
AcDbEntity
  8
Layer 1
370
     0
100
AcDbSpline
210
0.0
220
0.0
230
1.0
 70
    11
 71
     3
 72
    23
 73
    19
 74
     0
 42
0.0000000001
 43
0.0000000001
 12
1.0
 22
0.0
 32
0.0
 13
1.0
 23
0.0
 33
0.0
 40
0.0
 40
0.0
 40
0.0
 40
0.0
 40
1.0
 40
1.0
 40
1.0
 40
2.0
 40
2.0
 40
2.0
 40
3.0
 40
3.0
 40
3.0
 40
4.0
 40
4.0
 40
4.0
 40
5.0
 40
5.0
 40
5.0
 40
6.0
 40
6.0
 40
6.0
 40
6.0
 10
19.57916666177188
 20
16.0513804077712
 30
0.0
 10
19.57916666177188
 20
16.0513804077712
 30
0.0
 10
19.15583305939629
 20
16.0513804077712
 30
0.0
 10
19.15583305939629
 20
16.0513804077712
 30
0.0
 10
19.05150049581018
 20
16.15476826157972
 30
0.0
 10
18.98873650817871
 20
16.29284930351704
 30
0.0
 10
18.9794441705515
 20
16.43943542493357
 30
0.0
 10
19.01422886902913
 20
16.64534716719845
 30
0.0
 10
19.19396999726992
 20
16.79513076786223
 30
0.0
 10
19.40277777292708
 20
16.79221320262316
 30
0.0
 10
19.59652267601924
 20
16.81278419074329
 30
0.0
 10
19.7702604562289
 20
16.67240193268105
 30
0.0
 10
19.79083279008946
 20
16.47865568384847
 30
0.0
 10
19.79346236687781
 20
16.45389406004823
 30
0.0
 10
19.79346236687781
 20
16.42892250074187
 30
0.0
 10
19.79083279008946
 20
16.40415818546078
 30
0.0
 10
19.77993902135778
 20
16.25974139760762
 30
0.0
 10
19.70146755149824
 20
16.12895426876798
 30
0.0
 10
19.57916666177188
 20
16.0513804077712
 30
0.0
  0
SPLINE
  5
16D
330
49
100
AcDbEntity
  8
Layer 1
370
     0
100
AcDbSpline
210
0.0
220
0.0
230
1.0
 70
    11
 71
     3
 72
    29
 73
    25
 74
     0
 42
0.0000000001
 43
0.0000000001
 12
1.0
 22
0.0
 32
0.0
 13
1.0
 23
0.0
 33
0.0
 40
0.0
 40
0.0
 40
0.0
 40
0.0
 40
1.0
 40
1.0
 40
1.0
 40
2.0
 40
2.0
 40
2.0
 40
3.0
 40
3.0
 40
3.0
 40
4.0
 40
4.0
 40
4.0
 40
5.0
 40
5.0
 40
5.0
 40
6.0
 40
6.0
 40
6.0
 40
7.0
 40
7.0
 40
7.0
 40
8.0
 40
8.0
 40
8.0
 40
8.0
 10
18.87361110639271
 20
20.84915764605337
 30
0.0
 10
18.87361110639271
 20
20.84915764605337
 30
0.0
 10
18.45027750401712
 20
20.84915764605337
 30
0.0
 10
18.45027750401712
 20
20.84915764605337
 30
0.0
 10
18.37972167933112
 20
20.91971212499895
 30
0.0
 10
18.30916585464512
 20
20.99026929542537
 30
0.0
 10
18.30916585464512
 20
21.06082377437095
 30
0.0
 10
18.30916585464512
 20
21.06082377437095
 30
0.0
 10
18.34444443985834
 20
21.06082377437095
 30
0.0
 10
18.34444443985834
 20
21.06082377437095
 30
0.0
 10
18.34444443985834
 20
21.06082377437095
 30
0.0
 10
18.7324994570207
 20
21.51943596195974
 30
0.0
 10
18.7324994570207
 20
21.51943596195974
 30
0.0
 10
18.7324994570207
 20
21.51943596195974
 30
0.0
 10
18.87361110639271
 20
21.51943596195974
 30
0.0
 10
18.87361110639271
 20
21.51943596195974
 30
0.0
 10
18.86743281210646
 20
21.38697204055189
 30
0.0
 10
18.91889527165781
 20
21.25831925602459
 30
0.0
 10
19.01472275576471
 20
21.16665818427016
 30
0.0
 10
19.01472275576471
 20
21.16665818427016
 30
0.0
 10
19.0499999952375
 20
21.16665818427016
 30
0.0
 10
19.0499999952375
 20
21.16665818427016
 30
0.0
 10
19.03366539797189
 20
21.04226332244416
 30
0.0
 10
18.97060131022588
 20
20.92874473472433
 30
0.0
 10
18.87361110639271
 20
20.84915764605337
 30
0.0
  0
SPLINE
  5
16E
330
49
100
AcDbEntity
  8
Layer 1
370
     0
100
AcDbSpline
210
0.0
220
0.0
230
1.0
 70
    11
 71
     3
 72
   110
 73
   106
 74
     0
 42
0.0000000001
 43
0.0000000001
 12
1.0
 22
0.0
 32
0.0
 13
1.0
 23
0.0
 33
0.0
 40
0.0
 40
0.0
 40
0.0
 40
0.0
 40
1.0
 40
1.0
 40
1.0
 40
2.0
 40
2.0
 40
2.0
 40
3.0
 40
3.0
 40
3.0
 40
4.0
 40
4.0
 40
4.0
 40
5.0
 40
5.0
 40
5.0
 40
6.0
 40
6.0
 40
6.0
 40
7.0
 40
7.0
 40
7.0
 40
8.0
 40
8.0
 40
8.0
 40
9.0
 40
9.0
 40
9.0
 40
10.0
 40
10.0
 40
10.0
 40
11.0
 40
11.0
 40
11.0
 40
12.0
 40
12.0
 40
12.0
 40
13.0
 40
13.0
 40
13.0
 40
14.0
 40
14.0
 40
14.0
 40
15.0
 40
15.0
 40
15.0
 40
16.0
 40
16.0
 40
16.0
 40
17.0
 40
17.0
 40
17.0
 40
18.0
 40
18.0
 40
18.0
 40
19.0
 40
19.0
 40
19.0
 40
20.0
 40
20.0
 40
20.0
 40
21.0
 40
21.0
 40
21.0
 40
22.0
 40
22.0
 40
22.0
 40
23.0
 40
23.0
 40
23.0
 40
24.0
 40
24.0
 40
24.0
 40
25.0
 40
25.0
 40
25.0
 40
26.0
 40
26.0
 40
26.0
 40
27.0
 40
27.0
 40
27.0
 40
28.0
 40
28.0
 40
28.0
 40
29.0
 40
29.0
 40
29.0
 40
30.0
 40
30.0
 40
30.0
 40
31.0
 40
31.0
 40
31.0
 40
32.0
 40
32.0
 40
32.0
 40
33.0
 40
33.0
 40
33.0
 40
34.0
 40
34.0
 40
34.0
 40
35.0
 40
35.0
 40
35.0
 40
35.0
 10
2.010833265543604
 20
16.29832646704242
 30
0.0
 10
2.007991398203379
 20
19.3299162922326
 30
0.0
 10
2.971901527297593
 20
22.28343433246916
 30
0.0
 10
4.762499998809375
 20
24.72971589211963
 30
0.0
 10
4.762499998809375
 20
24.72971589211963
 30
0.0
 10
4.762499998809375
 20
24.72971589211963
 30
0.0
 10
4.762499998809375
 20
24.72971589211963
 30
0.0
 10
4.695640250197686
 20
24.51243264327259
 30
0.0
 10
4.660005716642345
 20
24.28674928269939
 30
0.0
 10
4.656666598215479
 20
24.05943757621325
 30
0.0
 10
4.637128129435608
 20
23.62590595290516
 30
0.0
 10
4.774946415555158
 20
23.19992258763486
 30
0.0
 10
5.044722288248063
 20
22.8599925937725
 30
0.0
 10
5.259281085606871
 20
22.56425536969143
 30
0.0
 10
5.596938123893226
 20
22.38243910971695
 30
0.0
 10
5.961944308379916
 20
22.36610316671091
 30
0.0
 10
6.35931050353543
 20
22.37095725242001
 30
0.0
 10
6.734042690500938
 20
22.5518624461275
 30
0.0
 10
6.984999729105666
 20
22.8599925937725
 30
0.0
 10
7.25772008184612
 20
23.11909472629304
 30
0.0
 10
7.421676347784474
 20
23.47223181667581
 30
0.0
 10
7.443610570954039
 20
23.84777010215525
 30
0.0
 10
7.45556411026956
 20
23.97103588776557
 30
0.0
 10
7.402005660007951
 20
24.09154290550685
 30
0.0
 10
7.302499594452248
 20
24.16527064037204
 30
0.0
 10
7.196666530293458
 20
24.23582646505804
 30
0.0
 10
7.161388617950458
 20
24.23582646505804
 30
0.0
 10
7.161388617950458
 20
24.16527064037204
 30
0.0
 10
7.138950414992132
 20
23.91802178950544
 30
0.0
 10
7.040341958299186
 20
23.68382662075092
 30
0.0
 10
6.879166664946875
 20
23.49499232446566
 30
0.0
 10
6.710400722733411
 20
23.29951814492876
 30
0.0
 10
6.467049136134499
 20
23.18424605743655
 30
0.0
 10
6.208889021910709
 20
23.17749178624887
 30
0.0
 10
6.040958111630291
 20
23.17143595434121
 30
0.0
 10
5.88146970389937
 20
23.25117914890135
 30
0.0
 10
5.785555419535124
 20
23.38915791456645
 30
0.0
 10
5.677232735592072
 20
23.58239412777837
 30
0.0
 10
5.628158292422984
 20
23.80323013134458
 30
0.0
 10
5.644444443033334
 20
24.02415764525962
 30
0.0
 10
5.65813129601487
 20
24.52371263950593
 30
0.0
 10
5.804220166344762
 20
25.01067554060557
 30
0.0
 10
6.067778045408918
 20
25.43526875601795
 30
0.0
 10
6.332793361352186
 20
25.91461880353944
 30
0.0
 10
6.692933012030855
 20
26.33478049573583
 30
0.0
 10
7.126111378477669
 20
26.66999097793149
 30
0.0
 10
7.500120902835528
 20
26.96006532630868
 30
0.0
 10
7.958135581676102
 20
27.12099031194214
 30
0.0
 10
8.431388752206999
 20
27.12860316552029
 30
0.0
 10
8.678333465737794
 20
27.12860316552029
 30
0.0
 10
8.854722354582584
 20
27.0933259260475
 30
0.0
 10
8.925277506398373
 20
26.98749151614829
 30
0.0
 10
9.036486803550748
 20
26.89140430413957
 30
0.0
 10
9.089901932457208
 20
26.74451404538723
 30
0.0
 10
9.066388482900164
 20
26.59943649898591
 30
0.0
 10
9.022361239191012
 20
26.23517955548024
 30
0.0
 10
8.927358021093763
 20
25.87891631009269
 30
0.0
 10
8.784166529896583
 20
25.54110316591716
 30
0.0
 10
8.784166529896583
 20
25.54110316591716
 30
0.0
 10
8.149166799203417
 20
24.02415899100004
 30
0.0
 10
8.149166799203417
 20
24.02415899100004
 30
0.0
 10
7.895218852506515
 20
23.48860813189456
 30
0.0
 10
7.682924263410961
 20
22.93428150239447
 30
0.0
 10
7.514167068510252
 20
22.36610316671091
 30
0.0
 10
7.328148061191849
 20
21.89286143497362
 30
0.0
 10
7.220894568015605
 20
21.39234961928589
 30
0.0
 10
7.19666720316367
 20
20.884437577007
 30
0.0
 10
7.175336544574235
 20
20.54357498503086
 30
0.0
 10
7.275310927797465
 20
20.20616018002081
 30
0.0
 10
7.478889156167252
 20
19.93193865383747
 30
0.0
 10
7.478889156167252
 20
19.93193865383747
 30
0.0
 10
7.761111109170834
 20
19.6849952860471
 30
0.0
 10
7.761111109170834
 20
19.6849952860471
 30
0.0
 10
7.761111109170834
 20
19.6849952860471
 30
0.0
 10
7.761111109170834
 20
19.6849952860471
 30
0.0
 10
7.761111109170834
 20
19.6849952860471
 30
0.0
 10
7.761111109170834
 20
19.6849952860471
 30
0.0
 10
4.938888887654167
 20
14.92249259575688
 30
0.0
 10
4.938888887654167
 20
14.92249259575688
 30
0.0
 10
4.833055487060271
 20
14.74610370691208
 30
0.0
 10
4.903610975311167
 20
14.64026929701287
 30
0.0
 10
5.079999864155958
 20
14.64026929701287
 30
0.0
 10
5.079999864155958
 20
14.64026929701287
 30
0.0
 10
5.750277507192123
 20
14.64026929701287
 30
0.0
 10
5.750277507192123
 20
14.64026929701287
 30
0.0
 10
5.961944308379916
 20
14.64026929701287
 30
0.0
 10
6.032499460195706
 20
14.49915764764087
 30
0.0
 10
5.926666396036915
 20
14.35804599826886
 30
0.0
 10
5.926666396036915
 20
14.35804599826886
 30
0.0
 10
4.056944106995102
 20
11.2183232385354
 30
0.0
 10
4.056944106995102
 20
11.2183232385354
 30
0.0
 10
3.986388618744207
 20
11.0772115891634
 30
0.0
 10
4.056944106995102
 20
10.97137987074503
 30
0.0
 10
4.233332995839894
 20
10.97137987074503
 30
0.0
 10
4.233332995839894
 20
10.97137987074503
 30
0.0
 10
5.079999864155958
 20
10.97137987074503
 30
0.0
 10
5.079999864155958
 20
10.97137987074503
 30
0.0
 10
5.29166666534375
 20
10.97137987074503
 30
0.0
 10
5.362222153594645
 20
10.83026822137303
 30
0.0
 10
5.256388753000749
 20
10.68915657200103
 30
0.0
 10
5.256388753000749
 20
10.68915657200103
 30
0.0
 10
4.162777507588999
 20
8.819433273653896
 30
0.0
 10
4.162777507588999
 20
8.819433273653896
 30
0.0
 10
2.74975090355476
 20
11.05743727937423
 30
0.0
 10
2.003322688237675
 20
13.65158341384397
 30
0.0
 10
2.010833265543604
 20
16.29832646704242
 30
0.0
  0
SPLINE
  5
16F
330
49
100
AcDbEntity
  8
Layer 1
370
     0
100
AcDbSpline
210
0.0
220
0.0
230
1.0
 70
    11
 71
     3
 72
    17
 73
    13
 74
     0
 42
0.0000000001
 43
0.0000000001
 12
1.0
 22
0.0
 32
0.0
 13
1.0
 23
0.0
 33
0.0
 40
0.0
 40
0.0
 40
0.0
 40
0.0
 40
1.0
 40
1.0
 40
1.0
 40
2.0
 40
2.0
 40
2.0
 40
3.0
 40
3.0
 40
3.0
 40
4.0
 40
4.0
 40
4.0
 40
4.0
 10
4.445000133462792
 20
8.360826469026794
 30
0.0
 10
4.445000133462792
 20
8.360826469026794
 30
0.0
 10
4.797777911152376
 20
8.431380947972372
 30
0.0
 10
4.797777911152376
 20
8.431380947972372
 30
0.0
 10
5.206885691506642
 20
8.437329120646123
 30
0.0
 10
5.543355113868881
 20
8.110505292772372
 30
0.0
 10
5.549303622977739
 20
7.701397512418104
 30
0.0
 10
5.552253485986984
 20
7.498537909434694
 30
0.0
 10
5.471880148473339
 20
7.303346335386812
 30
0.0
 10
5.326944577686751
 20
7.16138148658604
 30
0.0
 10
5.009444375905062
 20
7.549436503748413
 30
0.0
 10
4.727222086466375
 20
7.937491520910784
 30
0.0
 10
4.445000133462792
 20
8.360826469026794
 30
0.0
  0
SPLINE
  5
170
330
49
100
AcDbEntity
  8
Layer 1
370
     0
100
AcDbSpline
210
0.0
220
0.0
230
1.0
 70
    11
 71
     3
 72
    23
 73
    19
 74
     0
 42
0.0000000001
 43
0.0000000001
 12
1.0
 22
0.0
 32
0.0
 13
1.0
 23
0.0
 33
0.0
 40
0.0
 40
0.0
 40
0.0
 40
0.0
 40
1.0
 40
1.0
 40
1.0
 40
2.0
 40
2.0
 40
2.0
 40
3.0
 40
3.0
 40
3.0
 40
4.0
 40
4.0
 40
4.0
 40
5.0
 40
5.0
 40
5.0
 40
6.0
 40
6.0
 40
6.0
 40
6.0
 10
5.891389156564126
 20
9.595548690940335
 30
0.0
 10
5.890501640754548
 20
9.809863236412202
 30
0.0
 10
6.063519449837406
 20
9.984319642008236
 30
0.0
 10
6.277834668179484
 20
9.985207830688028
 30
0.0
 10
6.290149538798828
 20
9.985258968824136
 30
0.0
 10
6.302459026456477
 20
9.984723364135414
 30
0.0
 10
6.314722758939712
 20
9.983603708102708
 30
0.0
 10
6.529039323022213
 20
9.983245741149943
 30
0.0
 10
6.702486423300304
 20
9.809214589527869
 30
0.0
 10
6.702127783477327
 20
9.594897352575154
 30
0.0
 10
6.701769816524563
 20
9.381088805502685
 30
0.0
 10
6.528531978882394
 20
9.207851640730727
 30
0.0
 10
6.314722758939712
 20
9.207493673777963
 30
0.0
 10
6.101293037796577
 20
9.188007352439518
 30
0.0
 10
5.912478254747467
 20
9.345230206166761
 30
0.0
 10
5.892993279149446
 20
9.558661945920532
 30
0.0
 10
5.89187362311674
 20
9.570924332663342
 30
0.0
 10
5.891338018428018
 20
9.583235166061415
 30
0.0
 10
5.891389156564126
 20
9.595548690940335
 30
0.0
  0
SPLINE
  5
171
330
49
100
AcDbEntity
  8
Layer 1
370
     0
100
AcDbSpline
210
0.0
220
0.0
230
1.0
 70
    11
 71
     3
 72
    23
 73
    19
 74
     0
 42
0.0000000001
 43
0.0000000001
 12
1.0
 22
0.0
 32
0.0
 13
1.0
 23
0.0
 33
0.0
 40
0.0
 40
0.0
 40
0.0
 40
0.0
 40
1.0
 40
1.0
 40
1.0
 40
2.0
 40
2.0
 40
2.0
 40
3.0
 40
3.0
 40
3.0
 40
4.0
 40
4.0
 40
4.0
 40
5.0
 40
5.0
 40
5.0
 40
6.0
 40
6.0
 40
6.0
 40
6.0
 10
6.455833735441503
 20
11.21832593001625
 30
0.0
 10
6.046682891393671
 20
11.21832593001625
 30
0.0
 10
5.715000267719335
 20
11.55000788082037
 30
0.0
 10
5.715000267719335
 20
11.9591587248682
 30
0.0
 10
5.714513109685874
 20
12.34882593905844
 30
0.0
 10
6.030005803190171
 20
12.66510992793201
 30
0.0
 10
6.419673017380407
 20
12.66559708596547
 30
0.0
 10
6.431732197319205
 20
12.66561054336971
 30
0.0
 10
6.443789358647368
 20
12.66531717195729
 30
0.0
 10
6.455833735441503
 20
12.66471428024737
 30
0.0
 10
6.855242764560536
 20
12.75346586120527
 30
0.0
 10
7.250975230841404
 20
12.50162938123351
 30
0.0
 10
7.339726811799305
 20
12.10221900637405
 30
0.0
 10
7.428478392757206
 20
11.70280863151459
 30
0.0
 10
7.17664056704502
 20
11.30707751097415
 30
0.0
 10
6.777231537925986
 20
11.21832593001625
 30
0.0
 10
6.67138972645444
 20
11.19480777036772
 30
0.0
 10
6.561675546913048
 20
11.19480777036772
 30
0.0
 10
6.455833735441503
 20
11.21832593001625
 30
0.0
  0
SPLINE
  5
172
330
49
100
AcDbEntity
  8
Layer 1
370
     0
100
AcDbSpline
210
0.0
220
0.0
230
1.0
 70
    11
 71
     3
 72
    23
 73
    19
 74
     0
 42
0.0000000001
 43
0.0000000001
 12
1.0
 22
0.0
 32
0.0
 13
1.0
 23
0.0
 33
0.0
 40
0.0
 40
0.0
 40
0.0
 40
0.0
 40
1.0
 40
1.0
 40
1.0
 40
2.0
 40
2.0
 40
2.0
 40
3.0
 40
3.0
 40
3.0
 40
4.0
 40
4.0
 40
4.0
 40
5.0
 40
5.0
 40
5.0
 40
6.0
 40
6.0
 40
6.0
 40
6.0
 10
6.24416693425371
 20
15.09888148460167
 30
0.0
 10
6.029850370171208
 20
15.0985235176489
 30
0.0
 10
5.855820564289558
 20
15.27197061792699
 30
0.0
 10
5.855461924466582
 20
15.48628516339886
 30
0.0
 10
5.855102611773393
 20
15.70060240035157
 30
0.0
 10
6.028549712051483
 20
15.87463355197365
 30
0.0
 10
6.242866949004198
 20
15.87499151892641
 30
0.0
 10
6.243300277420702
 20
15.87499151892641
 30
0.0
 10
6.243733605837206
 20
15.87499151892641
 30
0.0
 10
6.24416693425371
 20
15.87499151892641
 30
0.0
 10
6.458483498336212
 20
15.87534948587918
 30
0.0
 10
6.632513304217862
 20
15.70190238560108
 30
0.0
 10
6.632871944040838
 20
15.48758784012922
 30
0.0
 10
6.633231256734026
 20
15.2732706031765
 30
0.0
 10
6.459784156455936
 20
15.09923945155443
 30
0.0
 10
6.245466919503222
 20
15.09888148460167
 30
0.0
 10
6.245033591086719
 20
15.09888148460167
 30
0.0
 10
6.244600262670214
 20
15.09888148460167
 30
0.0
 10
6.24416693425371
 20
15.09888148460167
 30
0.0
  0
SPLINE
  5
173
330
49
100
AcDbEntity
  8
Layer 1
370
     0
100
AcDbSpline
210
0.0
220
0.0
230
1.0
 70
    11
 71
     3
 72
    23
 73
    19
 74
     0
 42
0.0000000001
 43
0.0000000001
 12
1.0
 22
0.0
 32
0.0
 13
1.0
 23
0.0
 33
0.0
 40
0.0
 40
0.0
 40
0.0
 40
0.0
 40
1.0
 40
1.0
 40
1.0
 40
2.0
 40
2.0
 40
2.0
 40
3.0
 40
3.0
 40
3.0
 40
4.0
 40
4.0
 40
4.0
 40
5.0
 40
5.0
 40
5.0
 40
6.0
 40
6.0
 40
6.0
 40
6.0
 10
9.630833734647753
 20
3.668880949162996
 30
0.0
 10
9.630833734647753
 20
3.668880949162996
 30
0.0
 10
9.630833734647753
 20
6.067770914044502
 30
0.0
 10
9.630833734647753
 20
6.067770914044502
 30
0.0
 10
9.630833734647753
 20
6.067770914044502
 30
0.0
 10
6.349999998412501
 20
6.067770914044502
 30
0.0
 10
6.349999998412501
 20
6.067770914044502
 30
0.0
 10
6.349999998412501
 20
6.067770914044502
 30
0.0
 10
6.103055284881707
 20
6.31471428183487
 30
0.0
 10
6.103055284881707
 20
6.31471428183487
 30
0.0
 10
6.103055284881707
 20
6.31471428183487
 30
0.0
 10
11.81805555260104
 20
6.31471428183487
 30
0.0
 10
11.81805555260104
 20
6.31471428183487
 30
0.0
 10
11.95916720197305
 20
4.480270914441377
 30
0.0
 10
13.51138861636296
 20
2.892770914838251
 30
0.0
 10
15.20472168012487
 20
2.046103710087082
 30
0.0
 10
13.25381120774273
 20
2.191796259862128
 30
0.0
 10
11.35506432567279
 20
2.744594128240639
 30
0.0
 10
9.630833734647753
 20
3.668880949162996
 30
0.0
  0
SPLINE
  5
174
330
49
100
AcDbEntity
  8
Layer 1
370
     0
100
AcDbSpline
210
0.0
220
0.0
230
1.0
 70
    11
 71
     3
 72
   341
 73
   337
 74
     0
 42
0.0000000001
 43
0.0000000001
 12
1.0
 22
0.0
 32
0.0
 13
1.0
 23
0.0
 33
0.0
 40
0.0
 40
0.0
 40
0.0
 40
0.0
 40
1.0
 40
1.0
 40
1.0
 40
2.0
 40
2.0
 40
2.0
 40
3.0
 40
3.0
 40
3.0
 40
4.0
 40
4.0
 40
4.0
 40
5.0
 40
5.0
 40
5.0
 40
6.0
 40
6.0
 40
6.0
 40
7.0
 40
7.0
 40
7.0
 40
8.0
 40
8.0
 40
8.0
 40
9.0
 40
9.0
 40
9.0
 40
10.0
 40
10.0
 40
10.0
 40
11.0
 40
11.0
 40
11.0
 40
12.0
 40
12.0
 40
12.0
 40
13.0
 40
13.0
 40
13.0
 40
14.0
 40
14.0
 40
14.0
 40
15.0
 40
15.0
 40
15.0
 40
16.0
 40
16.0
 40
16.0
 40
17.0
 40
17.0
 40
17.0
 40
18.0
 40
18.0
 40
18.0
 40
19.0
 40
19.0
 40
19.0
 40
20.0
 40
20.0
 40
20.0
 40
21.0
 40
21.0
 40
21.0
 40
22.0
 40
22.0
 40
22.0
 40
23.0
 40
23.0
 40
23.0
 40
24.0
 40
24.0
 40
24.0
 40
25.0
 40
25.0
 40
25.0
 40
26.0
 40
26.0
 40
26.0
 40
27.0
 40
27.0
 40
27.0
 40
28.0
 40
28.0
 40
28.0
 40
29.0
 40
29.0
 40
29.0
 40
30.0
 40
30.0
 40
30.0
 40
31.0
 40
31.0
 40
31.0
 40
32.0
 40
32.0
 40
32.0
 40
33.0
 40
33.0
 40
33.0
 40
34.0
 40
34.0
 40
34.0
 40
35.0
 40
35.0
 40
35.0
 40
36.0
 40
36.0
 40
36.0
 40
37.0
 40
37.0
 40
37.0
 40
38.0
 40
38.0
 40
38.0
 40
39.0
 40
39.0
 40
39.0
 40
40.0
 40
40.0
 40
40.0
 40
41.0
 40
41.0
 40
41.0
 40
42.0
 40
42.0
 40
42.0
 40
43.0
 40
43.0
 40
43.0
 40
44.0
 40
44.0
 40
44.0
 40
45.0
 40
45.0
 40
45.0
 40
46.0
 40
46.0
 40
46.0
 40
47.0
 40
47.0
 40
47.0
 40
48.0
 40
48.0
 40
48.0
 40
49.0
 40
49.0
 40
49.0
 40
50.0
 40
50.0
 40
50.0
 40
51.0
 40
51.0
 40
51.0
 40
52.0
 40
52.0
 40
52.0
 40
53.0
 40
53.0
 40
53.0
 40
54.0
 40
54.0
 40
54.0
 40
55.0
 40
55.0
 40
55.0
 40
56.0
 40
56.0
 40
56.0
 40
57.0
 40
57.0
 40
57.0
 40
58.0
 40
58.0
 40
58.0
 40
59.0
 40
59.0
 40
59.0
 40
60.0
 40
60.0
 40
60.0
 40
61.0
 40
61.0
 40
61.0
 40
62.0
 40
62.0
 40
62.0
 40
63.0
 40
63.0
 40
63.0
 40
64.0
 40
64.0
 40
64.0
 40
65.0
 40
65.0
 40
65.0
 40
66.0
 40
66.0
 40
66.0
 40
67.0
 40
67.0
 40
67.0
 40
68.0
 40
68.0
 40
68.0
 40
69.0
 40
69.0
 40
69.0
 40
70.0
 40
70.0
 40
70.0
 40
71.0
 40
71.0
 40
71.0
 40
72.0
 40
72.0
 40
72.0
 40
73.0
 40
73.0
 40
73.0
 40
74.0
 40
74.0
 40
74.0
 40
75.0
 40
75.0
 40
75.0
 40
76.0
 40
76.0
 40
76.0
 40
77.0
 40
77.0
 40
77.0
 40
78.0
 40
78.0
 40
78.0
 40
79.0
 40
79.0
 40
79.0
 40
80.0
 40
80.0
 40
80.0
 40
81.0
 40
81.0
 40
81.0
 40
82.0
 40
82.0
 40
82.0
 40
83.0
 40
83.0
 40
83.0
 40
84.0
 40
84.0
 40
84.0
 40
85.0
 40
85.0
 40
85.0
 40
86.0
 40
86.0
 40
86.0
 40
87.0
 40
87.0
 40
87.0
 40
88.0
 40
88.0
 40
88.0
 40
89.0
 40
89.0
 40
89.0
 40
90.0
 40
90.0
 40
90.0
 40
91.0
 40
91.0
 40
91.0
 40
92.0
 40
92.0
 40
92.0
 40
93.0
 40
93.0
 40
93.0
 40
94.0
 40
94.0
 40
94.0
 40
95.0
 40
95.0
 40
95.0
 40
96.0
 40
96.0
 40
96.0
 40
97.0
 40
97.0
 40
97.0
 40
98.0
 40
98.0
 40
98.0
 40
99.0
 40
99.0
 40
99.0
 40
100.0
 40
100.0
 40
100.0
 40
101.0
 40
101.0
 40
101.0
 40
102.0
 40
102.0
 40
102.0
 40
103.0
 40
103.0
 40
103.0
 40
104.0
 40
104.0
 40
104.0
 40
105.0
 40
105.0
 40
105.0
 40
106.0
 40
106.0
 40
106.0
 40
107.0
 40
107.0
 40
107.0
 40
108.0
 40
108.0
 40
108.0
 40
109.0
 40
109.0
 40
109.0
 40
110.0
 40
110.0
 40
110.0
 40
111.0
 40
111.0
 40
111.0
 40
112.0
 40
112.0
 40
112.0
 40
112.0
 10
26.17611002797474
 20
5.961936504145288
 30
0.0
 10
21.83694363154095
 20
10.05415818704829
 30
0.0
 10
21.83694363154095
 20
10.08943542652107
 30
0.0
 10
21.94277669569975
 20
10.54804761410987
 30
0.0
 10
22.04860975985854
 20
11.00665980169867
 30
0.0
 10
22.04860975985854
 20
11.50054653727941
 30
0.0
 10
22.04860975985854
 20
11.50054653727941
 30
0.0
 10
22.04860975985854
 20
11.50054653727941
 30
0.0
 10
22.64833225107891
 20
11.78276983602341
 30
0.0
 10
23.2833333275125
 20
12.10026768275936
 30
0.0
 10
23.2833333275125
 20
12.10026768275936
 30
0.0
 10
23.38916773741171
 20
12.17082216170494
 30
0.0
 10
24.80027884817005
 20
11.14776875958982
 30
0.0
 10
24.80027884817005
 20
11.14776875958982
 30
0.0
 10
25.22361110480521
 20
12.27665657160415
 30
0.0
 10
25.22361110480521
 20
12.27665657160415
 30
0.0
 10
23.84777723351966
 20
12.38249098150336
 30
0.0
 10
23.95361164341888
 20
12.45304546044894
 30
0.0
 10
23.95361164341888
 20
12.45304546044894
 30
0.0
 10
24.62388995932526
 20
12.80582323813853
 30
0.0
 10
25.18833386533242
 20
13.1938782553009
 30
0.0
 10
24.90611056658841
 20
13.44082431457212
 30
0.0
 10
24.62388726784441
 20
13.68777037384333
 30
0.0
 10
24.58861002837162
 20
13.75832485278891
 30
0.0
 10
23.81249999404688
 20
13.40554707509933
 30
0.0
 10
23.81249999404688
 20
13.40554707509933
 30
0.0
 10
23.03638995972213
 20
12.98221481846417
 30
0.0
 10
23.03638995972213
 20
12.98221481846417
 30
0.0
 10
22.89527831035013
 20
14.18165980090492
 30
0.0
 10
22.33083440434297
 20
14.04054815153292
 30
0.0
 10
22.33083440434297
 20
14.04054815153292
 30
0.0
 10
21.7663904983358
 20
13.86415926268812
 30
0.0
 10
22.68361218203255
 20
12.80582592961937
 30
0.0
 10
22.61305770308697
 20
12.77054869014659
 30
0.0
 10
22.61305770308697
 20
12.77054869014659
 30
0.0
 10
22.01333521186659
 20
12.417770912457
 30
0.0
 10
22.01333521186659
 20
12.417770912457
 30
0.0
 10
21.98045069886755
 20
12.62074624911687
 30
0.0
 10
21.93329595441319
 20
12.82115122156704
 30
0.0
 10
21.87222221675417
 20
13.01749205793695
 30
0.0
 10
21.63517407830092
 20
13.42439551547683
 30
0.0
 10
21.32408061024244
 20
13.78335024171223
 30
0.0
 10
20.95500053305742
 20
14.0758253910057
 30
0.0
 10
21.76638915259538
 20
15.09888148460167
 30
0.0
 10
21.73111191312259
 20
16.01610316829841
 30
0.0
 10
20.91972329358463
 20
16.82749313357679
 30
0.0
 10
20.91972329358463
 20
16.82749313357679
 30
0.0
 10
20.91972329358463
 20
17.03915926189437
 30
0.0
 10
22.08388969081217
 20
16.651104244732
 30
0.0
 10
22.08388969081217
 20
16.651104244732
 30
0.0
 10
22.08388969081217
 20
17.95638094559112
 30
0.0
 10
22.08388969081217
 20
17.95638094559112
 30
0.0
 10
20.46111245173626
 20
17.77999205674633
 30
0.0
 10
20.42583386652305
 20
17.95638094559112
 30
0.0
 10
20.42583386652305
 20
17.95638094559112
 30
0.0
 10
21.06083359721621
 20
19.15582592803187
 30
0.0
 10
21.48416719959179
 20
19.89665872288383
 30
0.0
 10
21.34305555021979
 20
20.24943650057341
 30
0.0
 10
21.20194390084779
 20
20.60221427826299
 30
0.0
 10
21.166666661375
 20
20.743325927635
 30
0.0
 10
20.24944497767826
 20
20.70804868816221
 30
0.0
 10
19.33222329398151
 20
20.67277144868942
 30
0.0
 10
19.01472275576471
 20
20.77860316710779
 30
0.0
 10
19.1911116446095
 20
20.884437577007
 30
0.0
 10
19.36750053345429
 20
20.99027198690622
 30
0.0
 10
19.26166746929551
 20
20.99027198690622
 30
0.0
 10
19.26166746929551
 20
21.02554922637901
 30
0.0
 10
19.26166746929551
 20
21.02554922637901
 30
0.0
 10
19.68500107167109
 20
21.02554922637901
 30
0.0
 10
19.68500107167109
 20
21.02554922637901
 30
0.0
 10
19.68500107167109
 20
21.02554922637901
 30
0.0
 10
20.00250160988788
 20
21.2019381152238
 30
0.0
 10
20.00250160988788
 20
21.2019381152238
 30
0.0
 10
20.00250160988788
 20
21.2019381152238
 30
0.0
 10
20.07305743457389
 20
21.27249259416937
 30
0.0
 10
20.07305743457389
 20
21.27249259416937
 30
0.0
 10
20.07305743457389
 20
21.27249259416937
 30
0.0
 10
20.00250160988788
 20
21.06082646585179
 30
0.0
 10
20.00250160988788
 20
21.06082646585179
 30
0.0
 10
19.9672243704151
 20
21.02554922637901
 30
0.0
 10
19.9672243704151
 20
21.02554922637901
 30
0.0
 10
20.00250160988788
 20
21.02554922637901
 30
0.0
 10
20.03777884936067
 20
21.02554922637901
 30
0.0
 10
20.00250160988788
 20
20.99027198690622
 30
0.0
 10
20.03777884936067
 20
20.99027198690622
 30
0.0
 10
20.03777884936067
 20
20.99027198690622
 30
0.0
 10
20.74333440473984
 20
20.99027198690622
 30
0.0
 10
20.74333440473984
 20
20.99027198690622
 30
0.0
 10
20.74333440473984
 20
20.99027198690622
 30
0.0
 10
21.59000160949101
 20
22.96582700367171
 30
0.0
 10
21.59000160949101
 20
22.96582700367171
 30
0.0
 10
21.73090870631858
 20
23.21511195979971
 30
0.0
 10
21.909391567263
 20
23.44119096805754
 30
0.0
 10
22.11916827602538
 20
23.63610531957809
 30
0.0
 10
22.22404721022361
 20
23.76890702183236
 30
0.0
 10
22.37527748184311
 20
23.85712434384196
 30
0.0
 10
22.54250187840097
 20
23.88305003310888
 30
0.0
 10
22.71889211298619
 20
23.8477727936361
 30
0.0
 10
22.68361218203255
 20
23.49499501594651
 30
0.0
 10
22.40139022902897
 20
22.78943946056735
 30
0.0
 10
22.27736544581955
 20
22.53855711055614
 30
0.0
 10
22.17126592505682
 20
22.27920332457633
 30
0.0
 10
22.08388969081217
 20
22.01332808050218
 30
0.0
 10
22.04322814390326
 20
21.87561577144101
 30
0.0
 10
22.01953369225919
 20
21.7334517530575
 30
0.0
 10
22.01333386612617
 20
21.58999582386702
 30
0.0
 10
22.01237300746349
 20
21.41528641907129
 30
0.0
 10
22.06132969834548
 20
21.24393598237367
 30
0.0
 10
22.15444551549817
 20
21.09610639680543
 30
0.0
 10
22.24672293636676
 20
20.9723171181702
 30
0.0
 10
22.38846304651674
 20
20.89500433081567
 30
0.0
 10
22.54250053266055
 20
20.88444026848785
 30
0.0
 10
22.54250053266055
 20
20.88444026848785
 30
0.0
 10
22.86000107087734
 20
20.88444026848785
 30
0.0
 10
22.86000107087734
 20
20.88444026848785
 30
0.0
 10
22.86000107087734
 20
20.88444026848785
 30
0.0
 10
23.21277884856692
 20
21.06082915733264
 30
0.0
 10
23.21277884856692
 20
21.06082915733264
 30
0.0
 10
23.39104639104352
 20
21.19990873866452
 30
0.0
 10
23.54587920977787
 20
21.36665136015061
 30
0.0
 10
23.67139103615572
 20
21.55471858439423
 30
0.0
 10
23.67139103615572
 20
21.55471858439423
 30
0.0
 10
23.70666827562851
 20
21.55471858439423
 30
0.0
 10
23.70666827562851
 20
21.55471858439423
 30
0.0
 10
23.69378415680984
 20
21.36756646363888
 30
0.0
 10
23.74341775512507
 20
21.18143710560571
 30
0.0
 10
23.84777992500051
 20
21.02555191785985
 30
0.0
 10
23.97343170838246
 20
20.92757932351721
 30
0.0
 10
24.11734249783623
 20
20.8556225830499
 30
0.0
 10
24.27111218163567
 20
20.81388578954227
 30
0.0
 10
24.27111218163567
 20
20.81388578954227
 30
0.0
 10
24.58861271985247
 20
20.81388578954227
 30
0.0
 10
24.58861271985247
 20
20.81388578954227
 30
0.0
 10
24.58861271985247
 20
20.81388578954227
 30
0.0
 10
24.90611325806926
 20
21.02555191785985
 30
0.0
 10
24.90611325806926
 20
21.02555191785985
 30
0.0
 10
25.06354604730264
 20
21.16250792080277
 30
0.0
 10
25.20550282166086
 20
21.31629644496816
 30
0.0
 10
25.32944551470442
 20
21.48416410544865
 30
0.0
 10
25.32944551470442
 20
21.48416410544865
 30
0.0
 10
25.43527992460364
 20
21.66055299429344
 30
0.0
 10
25.43527992460364
 20
21.66055299429344
 30
0.0
 10
25.4354575623396
 20
21.4368128828924
 30
0.0
 10
25.49642498650513
 20
21.21732800271181
 30
0.0
 10
25.61166881344843
 20
21.02555191785985
 30
0.0
 10
25.63208100419854
 20
21.00745978360059
 30
0.0
 10
25.6447175067792
 20
20.98218408695842
 30
0.0
 10
25.64694605292122
 20
20.95499743891428
 30
0.0
 10
25.64694605292122
 20
20.95499743891428
 30
0.0
 10
25.61166881344843
 20
20.95499743891428
 30
0.0
 10
25.61166881344843
 20
20.95499743891428
 30
0.0
 10
25.52935525467859
 20
20.88623010325167
 30
0.0
 10
25.5008443980573
 20
20.77218667676651
 30
0.0
 10
25.54111433450285
 20
20.67277414017027
 30
0.0
 10
25.54111433450285
 20
20.63749690069748
 30
0.0
 10
25.57639157397564
 20
20.60221966122469
 30
0.0
 10
25.61166881344843
 20
20.56693973027106
 30
0.0
 10
25.67431841314387
 20
20.49910095550096
 30
0.0
 10
25.76958068627272
 20
20.47188200968664
 30
0.0
 10
25.8586121812388
 20
20.49638525132548
 30
0.0
 10
25.8586121812388
 20
20.49638525132548
 30
0.0
 10
25.89388942071159
 20
20.49638525132548
 30
0.0
 10
25.89388942071159
 20
20.49638525132548
 30
0.0
 10
25.89388942071159
 20
20.49638525132548
 30
0.0
 10
26.70527938598997
 20
19.6849952860471
 30
0.0
 10
26.70527938598997
 20
19.6849952860471
 30
0.0
 10
26.70527938598997
 20
19.6849952860471
 30
0.0
 10
25.541111643022
 20
19.8261069354191
 30
0.0
 10
25.541111643022
 20
19.8261069354191
 30
0.0
 10
25.47055716407642
 20
19.8261069354191
 30
0.0
 10
25.39999999365
 20
19.79082969594631
 30
0.0
 10
25.39999999365
 20
19.72027252551988
 30
0.0
 10
25.39999999365
 20
19.72027252551988
 30
0.0
 10
25.39999999365
 20
19.72027252551988
 30
0.0
 10
25.39999999365
 20
19.72027252551988
 30
0.0
 10
25.36472275417721
 20
19.64971804657431
 30
0.0
 10
25.36472275417721
 20
19.61443811562067
 30
0.0
 10
25.43527723312279
 20
19.57916087614788
 30
0.0
 10
25.43527723312279
 20
19.57916087614788
 30
0.0
 10
26.35249891681954
 20
18.83832808129593
 30
0.0
 10
26.35249891681954
 20
18.83832808129593
 30
0.0
 10
26.35249891681954
 20
18.83832808129593
 30
0.0
 10
25.22361110480521
 20
18.83832808129593
 30
0.0
 10
25.22361110480521
 20
18.83832808129593
 30
0.0
 10
25.16474572718185
 20
18.91793401033283
 30
0.0
 10
25.07513556383348
 20
18.9691394334632
 30
0.0
 10
24.97666773701484
 20
18.97943973066793
 30
0.0
 10
24.82080138963492
 20
18.97922172071926
 30
0.0
 10
24.69462476748764
 20
18.85268713161922
 30
0.0
 10
24.69484277743632
 20
18.69682078423929
 30
0.0
 10
24.69506078738499
 20
18.54126395715687
 30
0.0
 10
24.82111090993242
 20
18.41521383460944
 30
0.0
 10
24.97666773701484
 20
18.41499582466077
 30
0.0
 10
25.07513556383348
 20
18.42529612186549
 30
0.0
 10
25.16474572718185
 20
18.47650154499587
 30
0.0
 10
25.22361110480521
 20
18.55610747403277
 30
0.0
 10
25.22361110480521
 20
18.55610747403277
 30
0.0
 10
26.38777884777317
 20
18.55610747403277
 30
0.0
 10
26.38777884777317
 20
18.55610747403277
 30
0.0
 10
26.38777884777317
 20
18.55610747403277
 30
0.0
 10
25.47055716407642
 20
17.81527467918081
 30
0.0
 10
25.47055716407642
 20
17.81527467918081
 30
0.0
 10
25.40000268513085
 20
17.77999743970803
 30
0.0
 10
25.40000268513085
 20
17.74472020023524
 30
0.0
 10
25.43527992460364
 20
17.67416302980881
 30
0.0
 10
25.43527992460364
 20
17.67416302980881
 30
0.0
 10
25.43527992460364
 20
17.67416302980881
 30
0.0
 10
25.43527992460364
 20
17.67416302980881
 30
0.0
 10
25.43527992460364
 20
17.60360855086324
 30
0.0
 10
25.50583440354922
 20
17.5683286199096
 30
0.0
 10
25.57639157397564
 20
17.60360855086324
 30
0.0
 10
25.57639157397564
 20
17.60360855086324
 30
0.0
 10
26.7405593169436
 20
17.70944296076245
 30
0.0
 10
26.7405593169436
 20
17.70944296076245
 30
0.0
 10
26.7405593169436
 20
17.70944296076245
 30
0.0
 10
25.92916935166522
 20
16.89805299548407
 30
0.0
 10
25.92916935166522
 20
16.89805299548407
 30
0.0
 10
25.92916935166522
 20
16.89805299548407
 30
0.0
 10
25.89389211219244
 20
16.89805299548407
 30
0.0
 10
25.89389211219244
 20
16.89805299548407
 30
0.0
 10
25.80486061722636
 20
16.92255623712291
 30
0.0
 10
25.7095983440975
 20
16.89533729130859
 30
0.0
 10
25.64694874440207
 20
16.82749851653849
 30
0.0
 10
25.53979012592571
 20
16.74313404936258
 30
0.0
 10
25.52131310990521
 20
16.58787059369258
 30
0.0
 10
25.60567757708111
 20
16.48071466669707
 30
0.0
 10
25.61775694312627
 20
16.46537322586432
 30
0.0
 10
25.63160999505016
 20
16.45152017394043
 30
0.0
 10
25.64694874440207
 20
16.43944349937612
 30
0.0
 10
25.75578146396579
 20
16.33640822955867
 30
0.0
 10
25.92617104200072
 20
16.33640822955867
 30
0.0
 10
26.03500376156444
 20
16.43944349937612
 30
0.0
 10
26.09422710614056
 20
16.52080965688751
 30
0.0
 10
26.11952433462952
 20
16.62200126232419
 30
0.0
 10
26.10555824051001
 20
16.72166679812012
 30
0.0
 10
26.10555824051001
 20
16.72166679812012
 30
0.0
 10
26.91694551430755
 20
17.60360316790154
 30
0.0
 10
26.91694551430755
 20
17.60360316790154
 30
0.0
 10
26.91694551430755
 20
17.60360316790154
 30
0.0
 10
26.77583386493555
 20
16.43943542493357
 30
0.0
 10
26.77583386493555
 20
16.43943542493357
 30
0.0
 10
26.77583386493555
 20
16.368880945988
 30
0.0
 10
26.81111110440833
 20
16.33360101503436
 30
0.0
 10
26.88166827483476
 20
16.29832377556157
 30
0.0
 10
26.88166827483476
 20
16.29832377556157
 30
0.0
 10
26.88166827483476
 20
16.29832377556157
 30
0.0
 10
26.88166827483476
 20
16.29832377556157
 30
0.0
 10
26.91694551430755
 20
16.26304653608878
 30
0.0
 10
26.98750268473398
 20
16.29832377556157
 30
0.0
 10
27.02277992420676
 20
16.33360101503436
 30
0.0
 10
27.02277992420676
 20
16.33360101503436
 30
0.0
 10
27.76361002757787
 20
17.25082539021195
 30
0.0
 10
27.76361002757787
 20
17.25082539021195
 30
0.0
 10
27.76361002757787
 20
17.25082539021195
 30
0.0
 10
27.76361002757787
 20
16.08665764724399
 30
0.0
 10
27.76361002757787
 20
16.08665764724399
 30
0.0
 10
27.6755017105426
 20
16.03579404218129
 30
0.0
 10
27.62158865767929
 20
15.94144687254071
 30
0.0
 10
27.62249837820587
 20
15.83971427945362
 30
0.0
 10
27.62249837820587
 20
15.6838479320737
 30
0.0
 10
27.7488526380891
 20
15.55749098070962
 30
0.0
 10
27.90471898546902
 20
15.55749098070962
 30
0.0
 10
27.90471898546902
 20
15.55749098070962
 30
0.0
 10
27.90472167694987
 20
15.55749098070962
 30
0.0
 10
27.90472167694987
 20
15.55749098070962
 30
0.0
 10
28.05355787635521
 20
15.57328459032481
 30
0.0
 10
28.17115136607869
 20
15.69087808004828
 30
0.0
 10
28.18694497569388
 20
15.83971427945362
 30
0.0
 10
28.18117174927524
 20
15.94932483698237
 30
0.0
 10
28.11237211584246
 20
16.04564755356528
 30
0.0
 10
28.01055608684909
 20
16.08665764724399
 30
0.0
 10
28.01055608684909
 20
16.08665764724399
 30
0.0
 10
28.01055608684909
 20
17.25082539021195
 30
0.0
 10
28.01055608684909
 20
17.25082539021195
 30
0.0
 10
28.01055608684909
 20
17.25082539021195
 30
0.0
 10
28.75138888170104
 20
16.33360370651521
 30
0.0
 10
28.75138888170104
 20
16.33360370651521
 30
0.0
 10
28.7940999912756
 20
16.28103639407582
 30
0.0
 10
28.86813455495745
 20
16.26623055793179
 30
0.0
 10
28.92777777054583
 20
16.29832646704242
 30
0.0
 10
28.92777777054583
 20
16.29832646704242
 30
0.0
 10
28.92777777054583
 20
16.29832646704242
 30
0.0
 10
28.92777777054583
 20
16.29832646704242
 30
0.0
 10
28.97219258749708
 20
16.33163892549628
 30
0.0
 10
28.99833224949141
 20
16.38391824948494
 30
0.0
 10
28.99833224949141
 20
16.43943811641442
 30
0.0
 10
28.99833224949141
 20
16.43943811641442
 30
0.0
 10
28.89250053107305
 20
17.60360316790154
 30
0.0
 10
28.89250053107305
 20
17.60360316790154
 30
0.0
 10
28.89250053107305
 20
17.60360316790154
 30
0.0
 10
29.70389049635143
 20
16.79221320262316
 30
0.0
 10
29.70389049635143
 20
16.79221320262316
 30
0.0
 10
29.70389049635143
 20
16.79221320262316
 30
0.0
 10
29.70389049635143
 20
16.79221320262316
 30
0.0
 10
29.70389049635143
 20
16.79221320262316
 30
0.0
 10
29.65373205927087
 20
16.64463661625462
 30
0.0
 10
29.73270279882768
 20
16.48434278287997
 30
0.0
 10
29.88027938519622
 20
16.43418165431857
 30
0.0
 10
30.02785597156476
 20
16.38402321723801
 30
0.0
 10
30.1881498049394
 20
16.46299664827567
 30
0.0
 10
30.23831093350081
 20
16.61057054316336
 30
0.0
 10
30.28846937058137
 20
16.7581471295319
 30
0.0
 10
30.20949593954371
 20
16.91844365438739
 30
0.0
 10
30.06192204465601
 20
16.96860209146795
 30
0.0
 10
30.00302706074333
 20
16.98861863453342
 30
0.0
 10
29.93917167762806
 20
16.98861863453342
 30
0.0
 10
29.88027938519622
 20
16.96860209146795
 30
0.0
 10
29.88027938519622
 20
16.96860209146795
 30
0.0
 10
29.88027938519622
 20
16.96860209146795
 30
0.0
 10
29.88027938519622
 20
16.96860209146795
 30
0.0
 10
29.88027938519622
 20
16.96860209146795
 30
0.0
 10
29.06888941991784
 20
17.77999205674633
 30
0.0
 10
29.06888941991784
 20
17.77999205674633
 30
0.0
 10
29.06888941991784
 20
17.77999205674633
 30
0.0
 10
30.2330571628858
 20
17.67415764684712
 30
0.0
 10
30.2330571628858
 20
17.67415764684712
 30
0.0
 10
30.30361164183138
 20
17.63888040737433
 30
0.0
 10
30.33889157278502
 20
17.67415764684712
 30
0.0
 10
30.3741688122578
 20
17.74471212579269
 30
0.0
 10
30.3741688122578
 20
17.74471212579269
 30
0.0
 10
30.3741688122578
 20
17.74471212579269
 30
0.0
 10
30.3741688122578
 20
17.74471212579269
 30
0.0
 10
30.40944605173059
 20
17.81526660473827
 30
0.0
 10
30.3741688122578
 20
17.85054653569191
 30
0.0
 10
30.33889157278502
 20
17.8858237751647
 30
0.0
 10
30.33889157278502
 20
17.8858237751647
 30
0.0
 10
29.42166988908827
 20
18.62665657001665
 30
0.0
 10
29.42166988908827
 20
18.62665657001665
 30
0.0
 10
29.42166988908827
 20
18.62665657001665
 30
0.0
 10
30.44472598268423
 20
18.62665657001665
 30
0.0
 10
30.44472598268423
 20
18.62665657001665
 30
0.0
 10
30.55875326028431
 20
17.85571956188148
 30
0.0
 10
30.6176993823331
 20
17.07763936357611
 30
0.0
 10
30.62111487152902
 20
16.29832377556157
 30
0.0
 10
30.62810464729089
 20
12.38734102999119
 30
0.0
 10
29.01966492669148
 20
8.64708429756173
 30
0.0
 10
26.17611002797474
 20
5.961936504145288
 30
0.0
  0
ENDBLK
  5
4C
330
49
100
AcDbEntity
  8
0
100
AcDbBlockEnd
  0
ENDSEC
  0
SECTION
  2
ENTITIES
  0
INSERT
  5
42
330
1F
100
AcDbEntity
  8
Layer 1
100
AcDbBlockReference
  2
block 2
 10
0.0
 20
0.0
 30
0.0
  0
INSERT
  5
46
330
1F
100
AcDbEntity
  8
Layer 1
100
AcDbBlockReference
  2
block 3
 10
0.0
 20
0.0
 30
0.0
  0
ENDSEC
  0
SECTION
  2
OBJECTS
  0
DICTIONARY
  5
C
330
0
100
AcDbDictionary
281
     1
  3
ACAD_GROUP
350
D
  3
ACAD_LAYOUT
350
1A
  3
ACAD_MATERIAL
350
3B
  3
ACAD_MLEADERSTYLE
350
176
  3
ACAD_MLINESTYLE
350
17
  3
ACAD_PLOTSETTINGS
350
19
  3
ACAD_PLOTSTYLENAME
350
E
  3
ACAD_TABLESTYLE
350
175
  3
ACAD_VISUALSTYLE
350
2A
  0
SUN
  5
3F
330
29
100
AcDbSun
 90
        1
290
     0
 63
     7
421
 16777215
 40
1.0
291
     1
 91
  2455826
 92
 54000000
292
     0
 70
     2
 71
   256
280
     1
  0
DICTIONARY
  5
D
102
{ACAD_REACTORS
330
C
102
}
330
C
100
AcDbDictionary
281
     1
  0
DICTIONARY
  5
1A
102
{ACAD_REACTORS
330
C
102
}
330
C
100
AcDbDictionary
281
     1
  3
Layout1
350
1E
  3
Layout2
350
26
  3
Model
350
22
  0
DICTIONARY
  5
3B
102
{ACAD_REACTORS
330
C
102
}
330
C
100
AcDbDictionary
281
     1
  3
ByBlock
350
3D
  3
ByLayer
350
3C
  3
Global
350
3E
  0
DICTIONARY
  5
176
102
{ACAD_REACTORS
330
C
102
}
330
C
100
AcDbDictionary
281
     1
  0
DICTIONARY
  5
17
102
{ACAD_REACTORS
330
C
102
}
330
C
100
AcDbDictionary
281
     1
  3
Standard
350
18
  0
DICTIONARY
  5
19
102
{ACAD_REACTORS
330
C
102
}
330
C
100
AcDbDictionary
281
     1
  0
ACDBDICTIONARYWDFLT
  5
E
102
{ACAD_REACTORS
330
C
102
}
330
C
100
AcDbDictionary
281
     1
  3
Normal
350
F
100
AcDbDictionaryWithDefault
340
F
  0
DICTIONARY
  5
175
102
{ACAD_REACTORS
330
C
102
}
330
C
100
AcDbDictionary
281
     1
  0
DICTIONARY
  5
2A
102
{ACAD_REACTORS
330
C
102
}
330
C
100
AcDbDictionary
281
     1
  3
2dWireframe
350
2F
  3
3D Hidden
350
31
  3
3dWireframe
350
30
  3
Basic
350
32
  3
Brighten
350
36
  3
ColorChange
350
3A
  3
Conceptual
350
34
  3
Dim
350
35
  3
Facepattern
350
39
  3
Flat
350
2B
  3
FlatWithEdges
350
2C
  3
Gouraud
350
2D
  3
GouraudWithEdges
350
2E
  3
Linepattern
350
38
  3
Realistic
350
33
  3
Thicken
350
37
  0
LAYOUT
  5
1E
102
{ACAD_REACTORS
330
1A
102
}
330
1A
100
AcDbPlotSettings
  1

  2
none_device
  4

  6

 40
0.0
 41
0.0
 42
0.0
 43
0.0
 44
0.0
 45
0.0
 46
0.0
 47
0.0
 48
0.0
 49
0.0
140
0.0
141
0.0
142
1.0
143
1.0
 70
   688
 72
     0
 73
     0
 74
     5
  7

 75
    16
 76
     0
 77
     2
 78
   300
147
1.0
148
0.0
149
0.0
100
AcDbLayout
  1
Layout1
 70
     1
 71
     1
 10
0.0
 20
0.0
 11
12.0
 21
9.0
 12
0.0
 22
0.0
 32
0.0
 14
1.000000000000000E+20
 24
1.000000000000000E+20
 34
1.000000000000000E+20
 15
-1.000000000000000E+20
 25
-1.000000000000000E+20
 35
-1.000000000000000E+20
146
0.0
 13
0.0
 23
0.0
 33
0.0
 16
1.0
 26
0.0
 36
0.0
 17
0.0
 27
1.0
 37
0.0
 76
     0
330
1B
  0
LAYOUT
  5
26
102
{ACAD_REACTORS
330
1A
102
}
330
1A
100
AcDbPlotSettings
  1

  2
none_device
  4

  6

 40
0.0
 41
0.0
 42
0.0
 43
0.0
 44
0.0
 45
0.0
 46
0.0
 47
0.0
 48
0.0
 49
0.0
140
0.0
141
0.0
142
1.0
143
1.0
 70
   688
 72
     0
 73
     0
 74
     5
  7

 75
    16
 76
     0
 77
     2
 78
   300
147
1.0
148
0.0
149
0.0
100
AcDbLayout
  1
Layout2
 70
     1
 71
     2
 10
0.0
 20
0.0
 11
0.0
 21
0.0
 12
0.0
 22
0.0
 32
0.0
 14
0.0
 24
0.0
 34
0.0
 15
0.0
 25
0.0
 35
0.0
146
0.0
 13
0.0
 23
0.0
 33
0.0
 16
1.0
 26
0.0
 36
0.0
 17
0.0
 27
1.0
 37
0.0
 76
     0
330
23
  0
LAYOUT
  5
22
102
{ACAD_REACTORS
330
1A
102
}
330
1A
100
AcDbPlotSettings
  1

  2
none_device
  4

  6

 40
0.0
 41
0.0
 42
0.0
 43
0.0
 44
0.0
 45
0.0
 46
0.0
 47
0.0
 48
0.0
 49
0.0
140
0.0
141
0.0
142
1.0
143
1.0
 70
  1712
 72
     0
 73
     0
 74
     0
  7

 75
     0
 76
     0
 77
     2
 78
   300
147
1.0
148
0.0
149
0.0
100
AcDbLayout
  1
Model
 70
     1
 71
     0
 10
0.0
 20
0.0
 11
12.0
 21
9.0
 12
0.0
 22
0.0
 32
0.0
 14
1.000000000000000E+20
 24
1.000000000000000E+20
 34
1.000000000000000E+20
 15
-1.000000000000000E+20
 25
-1.000000000000000E+20
 35
-1.000000000000000E+20
146
0.0
 13
0.0
 23
0.0
 33
0.0
 16
1.0
 26
0.0
 36
0.0
 17
0.0
 27
1.0
 37
0.0
 76
     0
330
1F
331
29
  0
MATERIAL
  5
3D
102
{ACAD_REACTORS
330
3B
102
}
330
3B
100
AcDbMaterial
  1
ByBlock
 72
     1
 94
      127
  0
MATERIAL
  5
3C
102
{ACAD_REACTORS
330
3B
102
}
330
3B
100
AcDbMaterial
  1
ByLayer
 72
     1
 94
      127
  0
MATERIAL
  5
3E
102
{ACAD_REACTORS
330
3B
102
}
330
3B
100
AcDbMaterial
  1
Global
 72
     1
 94
      127
  0
MLINESTYLE
  5
18
102
{ACAD_REACTORS
330
17
102
}
330
17
100
AcDbMlineStyle
  2
Standard
 70
     0
  3

 62
   256
 51
90.0
 52
90.0
 71
     2
 49
0.5
 62
   256
  6
BYLAYER
 49
-0.5
 62
   256
  6
BYLAYER
  0
ACDBPLACEHOLDER
  5
F
102
{ACAD_REACTORS
330
E
102
}
330
E
  0
VISUALSTYLE
  5
2F
102
{ACAD_REACTORS
330
2A
102
}
330
2A
100
AcDbVisualStyle
  2
2dWireframe
 70
     4
177
     2
291
     0
 71
     0
176
     1
 72
     2
176
     1
 73
     0
176
     1
 90
        0
176
     1
 40
-0.6
176
     1
 41
-30.0
176
     1
 62
     5
 63
     7
421
 16777215
176
     1
 74
     1
176
     1
 91
        4
176
     1
 64
     7
176
     1
 65
   257
176
     1
 75
     1
176
     1
175
     1
176
     1
 42
1.0
176
     1
 92
        0
176
     1
 66
   257
176
     1
 43
1.0
176
     1
 76
     1
176
     1
 77
     6
176
     1
 78
     2
176
     1
 67
     7
176
     1
 79
     5
176
     1
170
     0
176
     1
171
     0
176
     1
290
     0
176
     1
 93
        1
176
     1
 44
0.0
176
     1
173
     0
176
     1
  0
VISUALSTYLE
  5
31
102
{ACAD_REACTORS
330
2A
102
}
330
2A
100
AcDbVisualStyle
  2
3D Hidden
 70
     6
177
     2
291
     0
 71
     1
176
     1
 72
     2
176
     1
 73
     2
176
     1
 90
        0
176
     1
 40
-0.6
176
     1
 41
-30.0
176
     1
 62
     5
 63
     7
421
 16777215
176
     1
 74
     2
176
     1
 91
        2
176
     1
 64
     7
176
     1
 65
   257
176
     1
 75
     2
176
     1
175
     1
176
     1
 42
40.0
176
     1
 92
        0
176
     1
 66
   257
176
     1
 43
1.0
176
     1
 76
     1
176
     1
 77
     6
176
     1
 78
     2
176
     1
 67
     7
176
     1
 79
     3
176
     1
170
     0
176
     1
171
     0
176
     1
290
     0
176
     1
 93
        1
176
     1
 44
0.0
176
     1
173
     0
176
     1
  0
VISUALSTYLE
  5
30
102
{ACAD_REACTORS
330
2A
102
}
330
2A
100
AcDbVisualStyle
  2
3dWireframe
 70
     5
177
     2
291
     0
 71
     0
176
     1
 72
     2
176
     1
 73
     0
176
     1
 90
        0
176
     1
 40
-0.6
176
     1
 41
-30.0
176
     1
 62
     5
 63
     7
421
 16777215
176
     1
 74
     1
176
     1
 91
        4
176
     1
 64
     7
176
     1
 65
   257
176
     1
 75
     1
176
     1
175
     1
176
     1
 42
1.0
176
     1
 92
        0
176
     1
 66
   257
176
     1
 43
1.0
176
     1
 76
     1
176
     1
 77
     6
176
     1
 78
     2
176
     1
 67
     7
176
     1
 79
     5
176
     1
170
     0
176
     1
171
     0
176
     1
290
     0
176
     1
 93
        1
176
     1
 44
0.0
176
     1
173
     0
176
     1
  0
VISUALSTYLE
  5
32
102
{ACAD_REACTORS
330
2A
102
}
330
2A
100
AcDbVisualStyle
  2
Basic
 70
     7
177
     2
291
     1
 71
     1
176
     1
 72
     0
176
     1
 73
     1
176
     1
 90
        0
176
     1
 40
-0.6
176
     1
 41
-30.0
176
     1
 62
     5
 63
     7
421
 16777215
176
     1
 74
     0
176
     1
 91
        4
176
     1
 64
     7
176
     1
 65
   257
176
     1
 75
     1
176
     1
175
     1
176
     1
 42
1.0
176
     1
 92
        8
176
     1
 66
     7
176
     1
 43
1.0
176
     1
 76
     1
176
     1
 77
     6
176
     1
 78
     2
176
     1
 67
     7
176
     1
 79
     5
176
     1
170
     0
176
     1
171
     0
176
     1
290
     0
176
     1
 93
        1
176
     1
 44
0.0
176
     1
173
     0
176
     1
  0
VISUALSTYLE
  5
36
102
{ACAD_REACTORS
330
2A
102
}
330
2A
100
AcDbVisualStyle
  2
Brighten
 70
    12
177
     2
291
     1
 71
     2
176
     1
 72
     2
176
     1
 73
     0
176
     1
 90
        0
176
     1
 40
-0.6
176
     1
 41
-30.0
176
     1
 62
     5
 63
     7
421
 16777215
176
     1
 74
     1
176
     1
 91
        4
176
     1
 64
     7
176
     1
 65
   257
176
     1
 75
     1
176
     1
175
     1
176
     1
 42
1.0
176
     1
 92
        8
176
     1
 66
     7
176
     1
 43
1.0
176
     1
 76
     1
176
     1
 77
     6
176
     1
 78
     2
176
     1
 67
     7
176
     1
 79
     5
176
     1
170
     0
176
     1
171
     0
176
     1
290
     0
176
     1
 93
        1
176
     1
 44
50.0
176
     1
173
     0
176
     1
  0
VISUALSTYLE
  5
3A
102
{ACAD_REACTORS
330
2A
102
}
330
2A
100
AcDbVisualStyle
  2
ColorChange
 70
    16
177
     2
291
     1
 71
     2
176
     1
 72
     2
176
     1
 73
     3
176
     1
 90
        0
176
     1
 40
-0.6
176
     1
 41
-30.0
176
     1
 62
     5
 63
     8
421
  8421504
176
     1
 74
     1
176
     1
 91
        4
176
     1
 64
     7
176
     1
 65
   257
176
     1
 75
     1
176
     1
175
     1
176
     1
 42
1.0
176
     1
 92
        8
176
     1
 66
     8
424
  8421504
176
     1
 43
1.0
176
     1
 76
     1
176
     1
 77
     6
176
     1
 78
     2
176
     1
 67
     7
176
     1
 79
     5
176
     1
170
     0
176
     1
171
     0
176
     1
290
     0
176
     1
 93
        1
176
     1
 44
0.0
176
     1
173
     0
176
     1
  0
VISUALSTYLE
  5
34
102
{ACAD_REACTORS
330
2A
102
}
330
2A
100
AcDbVisualStyle
  2
Conceptual
 70
     9
177
     2
291
     0
 71
     3
176
     1
 72
     2
176
     1
 73
     0
176
     1
 90
        0
176
     1
 40
-0.6
176
     1
 41
-30.0
176
     1
 62
     5
 63
     7
421
 16777215
176
     1
 74
     2
176
     1
 91
        2
176
     1
 64
     7
176
     1
 65
   257
176
     1
 75
     1
176
     1
175
     1
176
     1
 42
40.0
176
     1
 92
        8
176
     1
 66
     7
176
     1
 43
1.0
176
     1
 76
     1
176
     1
 77
     6
176
     1
 78
     2
176
     1
 67
     7
176
     1
 79
     3
176
     1
170
     0
176
     1
171
     0
176
     1
290
     0
176
     1
 93
        1
176
     1
 44
0.0
176
     1
173
     0
176
     1
  0
VISUALSTYLE
  5
35
102
{ACAD_REACTORS
330
2A
102
}
330
2A
100
AcDbVisualStyle
  2
Dim
 70
    11
177
     2
291
     1
 71
     2
176
     1
 72
     2
176
     1
 73
     0
176
     1
 90
        0
176
     1
 40
-0.6
176
     1
 41
-30.0
176
     1
 62
     5
 63
     7
421
 16777215
176
     1
 74
     1
176
     1
 91
        4
176
     1
 64
     7
176
     1
 65
   257
176
     1
 75
     1
176
     1
175
     1
176
     1
 42
1.0
176
     1
 92
        8
176
     1
 66
     7
176
     1
 43
1.0
176
     1
 76
     1
176
     1
 77
     6
176
     1
 78
     2
176
     1
 67
     7
176
     1
 79
     5
176
     1
170
     0
176
     1
171
     0
176
     1
290
     0
176
     1
 93
        1
176
     1
 44
-50.0
176
     1
173
     0
176
     1
  0
VISUALSTYLE
  5
39
102
{ACAD_REACTORS
330
2A
102
}
330
2A
100
AcDbVisualStyle
  2
Facepattern
 70
    15
177
     2
291
     1
 71
     2
176
     1
 72
     2
176
     1
 73
     0
176
     1
 90
        0
176
     1
 40
-0.6
176
     1
 41
-30.0
176
     1
 62
     5
 63
     7
421
 16777215
176
     1
 74
     1
176
     1
 91
        4
176
     1
 64
     7
176
     1
 65
   257
176
     1
 75
     1
176
     1
175
     1
176
     1
 42
1.0
176
     1
 92
        8
176
     1
 66
     7
176
     1
 43
1.0
176
     1
 76
     1
176
     1
 77
     6
176
     1
 78
     2
176
     1
 67
     7
176
     1
 79
     5
176
     1
170
     0
176
     1
171
     0
176
     1
290
     0
176
     1
 93
        1
176
     1
 44
0.0
176
     1
173
     0
176
     1
  0
VISUALSTYLE
  5
2B
102
{ACAD_REACTORS
330
2A
102
}
330
2A
100
AcDbVisualStyle
  2
Flat
 70
     0
177
     2
291
     1
 71
     2
176
     1
 72
     1
176
     1
 73
     1
176
     1
 90
        2
176
     1
 40
-0.6
176
     1
 41
30.0
176
     1
 62
     5
 63
     7
421
 16777215
176
     1
 74
     0
176
     1
 91
        4
176
     1
 64
     7
176
     1
 65
   257
176
     1
 75
     1
176
     1
175
     1
176
     1
 42
1.0
176
     1
 92
        8
176
     1
 66
     7
176
     1
 43
1.0
176
     1
 76
     1
176
     1
 77
     6
176
     1
 78
     2
176
     1
 67
     7
176
     1
 79
     5
176
     1
170
     0
176
     1
171
     0
176
     1
290
     0
176
     1
 93
       13
176
     1
 44
0.0
176
     1
173
     0
176
     1
  0
VISUALSTYLE
  5
2C
102
{ACAD_REACTORS
330
2A
102
}
330
2A
100
AcDbVisualStyle
  2
FlatWithEdges
 70
     1
177
     2
291
     1
 71
     2
176
     1
 72
     1
176
     1
 73
     1
176
     1
 90
        2
176
     1
 40
-0.6
176
     1
 41
30.0
176
     1
 62
     5
 63
     7
421
 16777215
176
     1
 74
     1
176
     1
 91
        4
176
     1
 64
     7
176
     1
 65
   257
176
     1
 75
     1
176
     1
175
     1
176
     1
 42
1.0
176
     1
 92
        0
176
     1
 66
   257
176
     1
 43
1.0
176
     1
 76
     1
176
     1
 77
     6
176
     1
 78
     2
176
     1
 67
     7
176
     1
 79
     5
176
     1
170
     0
176
     1
171
     0
176
     1
290
     0
176
     1
 93
       13
176
     1
 44
0.0
176
     1
173
     0
176
     1
  0
VISUALSTYLE
  5
2D
102
{ACAD_REACTORS
330
2A
102
}
330
2A
100
AcDbVisualStyle
  2
Gouraud
 70
     2
177
     2
291
     1
 71
     2
176
     1
 72
     2
176
     1
 73
     1
176
     1
 90
        2
176
     1
 40
-0.6
176
     1
 41
30.0
176
     1
 62
     5
 63
     7
421
 16777215
176
     1
 74
     0
176
     1
 91
        4
176
     1
 64
     7
176
     1
 65
   257
176
     1
 75
     1
176
     1
175
     1
176
     1
 42
1.0
176
     1
 92
        0
176
     1
 66
     7
176
     1
 43
1.0
176
     1
 76
     1
176
     1
 77
     6
176
     1
 78
     2
176
     1
 67
     7
176
     1
 79
     5
176
     1
170
     0
176
     1
171
     0
176
     1
290
     0
176
     1
 93
       13
176
     1
 44
0.0
176
     1
173
     0
176
     1
  0
VISUALSTYLE
  5
2E
102
{ACAD_REACTORS
330
2A
102
}
330
2A
100
AcDbVisualStyle
  2
GouraudWithEdges
 70
     3
177
     2
291
     1
 71
     2
176
     1
 72
     2
176
     1
 73
     1
176
     1
 90
        2
176
     1
 40
-0.6
176
     1
 41
30.0
176
     1
 62
     5
 63
     7
421
 16777215
176
     1
 74
     1
176
     1
 91
        4
176
     1
 64
     7
176
     1
 65
   257
176
     1
 75
     1
176
     1
175
     1
176
     1
 42
1.0
176
     1
 92
        0
176
     1
 66
   257
176
     1
 43
1.0
176
     1
 76
     1
176
     1
 77
     6
176
     1
 78
     2
176
     1
 67
     7
176
     1
 79
     5
176
     1
170
     0
176
     1
171
     0
176
     1
290
     0
176
     1
 93
       13
176
     1
 44
0.0
176
     1
173
     0
176
     1
  0
VISUALSTYLE
  5
38
102
{ACAD_REACTORS
330
2A
102
}
330
2A
100
AcDbVisualStyle
  2
Linepattern
 70
    14
177
     2
291
     1
 71
     2
176
     1
 72
     2
176
     1
 73
     0
176
     1
 90
        0
176
     1
 40
-0.6
176
     1
 41
-30.0
176
     1
 62
     5
 63
     7
421
 16777215
176
     1
 74
     1
176
     1
 91
        4
176
     1
 64
     7
176
     1
 65
   257
176
     1
 75
     7
176
     1
175
     7
176
     1
 42
1.0
176
     1
 92
        8
176
     1
 66
     7
176
     1
 43
1.0
176
     1
 76
     1
176
     1
 77
     6
176
     1
 78
     2
176
     1
 67
     7
176
     1
 79
     5
176
     1
170
     0
176
     1
171
     0
176
     1
290
     0
176
     1
 93
        1
176
     1
 44
0.0
176
     1
173
     0
176
     1
  0
VISUALSTYLE
  5
33
102
{ACAD_REACTORS
330
2A
102
}
330
2A
100
AcDbVisualStyle
  2
Realistic
 70
     8
177
     2
291
     0
 71
     2
176
     1
 72
     2
176
     1
 73
     0
176
     1
 90
        0
176
     1
 40
-0.6
176
     1
 41
-30.0
176
     1
 62
     5
 63
     7
421
 16777215
176
     1
 74
     1
176
     1
 91
        0
176
     1
 64
     7
176
     1
 65
   257
176
     1
 75
     1
176
     1
175
     1
176
     1
 42
1.0
176
     1
 92
        8
176
     1
 66
     8
424
  7895160
176
     1
 43
1.0
176
     1
 76
     1
176
     1
 77
     6
176
     1
 78
     2
176
     1
 67
     7
176
     1
 79
     5
176
     1
170
     0
176
     1
171
     0
176
     1
290
     0
176
     1
 93
       13
176
     1
 44
0.0
176
     1
173
     0
176
     1
  0
VISUALSTYLE
  5
37
102
{ACAD_REACTORS
330
2A
102
}
330
2A
100
AcDbVisualStyle
  2
Thicken
 70
    13
177
     2
291
     1
 71
     2
176
     1
 72
     2
176
     1
 73
     0
176
     1
 90
        0
176
     1
 40
-0.6
176
     1
 41
-30.0
176
     1
 62
     5
 63
     7
421
 16777215
176
     1
 74
     1
176
     1
 91
        4
176
     1
 64
     7
176
     1
 65
   257
176
     1
 75
     1
176
     1
175
     1
176
     1
 42
1.0
176
     1
 92
       12
176
     1
 66
     7
176
     1
 43
1.0
176
     1
 76
     1
176
     1
 77
     6
176
     1
 78
     2
176
     1
 67
     7
176
     1
 79
     5
176
     1
170
     0
176
     1
171
     0
176
     1
290
     0
176
     1
 93
        1
176
     1
 44
0.0
176
     1
173
     0
176
     1
  0
ENDSEC
  0
EOF
